<svg width="18" height="18" viewBox="0 0 18 18" fill="none" xmlns="http://www.w3.org/2000/svg">
<path fill-rule="evenodd" clip-rule="evenodd" d="M12.394 2.25004L5.59214 2.25C3.21499 2.25 1.5 4.17113 1.5 6.64423V11.3558C1.5 13.8289 3.21499 15.75 5.59214 15.75H12.3876C13.5294 15.7372 14.6101 15.2565 15.3844 14.4199C16.1587 13.5833 16.559 12.4637 16.492 11.322L16.493 6.64423C16.559 5.53628 16.1587 4.41671 15.3844 3.58008C14.6101 2.74345 13.5294 2.26279 12.394 2.25004ZM5.5921 3.39632L12.3812 3.39628C13.2054 3.40554 13.9899 3.75444 14.5519 4.36172C15.1139 4.969 15.4045 5.78165 15.3558 6.61041L15.3548 11.3558C15.4045 12.2183 15.1139 13.031 14.5519 13.6383C13.9899 14.2456 13.2054 14.5945 12.3812 14.6037L5.5921 14.6037C3.87206 14.6037 2.63804 13.2213 2.63804 11.3558V6.64423C2.63804 4.77866 3.87206 3.39632 5.5921 3.39632ZM13.5181 6.47877C13.3217 6.23164 12.9636 6.19166 12.7183 6.38947L9.64381 8.86818L9.55569 8.93011C9.19319 9.15716 8.71718 9.13619 8.36995 8.86359L5.27302 6.38798L5.20331 6.3402C4.96311 6.20045 4.65115 6.25523 4.47355 6.48064C4.27818 6.72859 4.31937 7.08912 4.56554 7.2859L7.66639 9.76461L7.78737 9.85315C8.56741 10.3844 9.6011 10.355 10.3492 9.76772L13.4295 7.28441L13.4913 7.22663C13.6801 7.02196 13.6967 6.70344 13.5181 6.47877Z" fill="#200E32"/>
<script xmlns=""/></svg>