<svg width="16" height="16" viewBox="0 0 16 16" fill="none" xmlns="http://www.w3.org/2000/svg">
<path fill-rule="evenodd" clip-rule="evenodd" d="M3.85661 0.502708L3.83527 0.501294C2.84764 0.455344 1.45392 1.64288 0.938941 2.5018C0.373893 3.2736 0.363029 4.29856 0.856469 5.48412L0.934261 5.66315C2.23449 8.8653 7.11352 13.7382 10.3031 15.0723C11.5235 15.6432 12.6112 15.6537 13.4682 15.0366C14.2217 14.6058 15.4573 13.1726 15.4216 12.1547C15.3877 11.7359 15.193 11.394 14.8906 11.0828L14.8168 11.0095L14.6114 10.8196C13.8675 10.1544 12.5797 9.20737 12.1813 9.12365C11.7136 9.02614 11.3965 9.11343 10.8962 9.38925L10.7099 9.4952C10.3542 9.70034 10.227 9.73542 10.0585 9.67393C8.2788 8.94333 7.02385 7.68208 6.28843 5.87295C6.24062 5.73891 6.26426 5.62185 6.41895 5.33803L6.50045 5.19329C6.83762 4.60442 6.95065 4.27152 6.84445 3.75891L6.8257 3.69248C6.6515 3.18531 5.58382 1.75441 4.991 1.13146L4.89549 1.03484C4.58653 0.731419 4.2468 0.536299 3.85661 0.502708ZM3.77382 1.59798L3.81449 1.60579C3.88566 1.62588 3.9696 1.67517 4.06412 1.75638L4.13296 1.81934L4.26289 1.95612C4.76694 2.51265 5.74343 3.82506 5.77573 3.98199C5.80625 4.12931 5.7725 4.25244 5.61256 4.54261L5.52888 4.69054C5.17668 5.30726 5.06766 5.70491 5.27005 6.26726C6.12441 8.37019 7.59488 9.84803 9.66613 10.6978C10.2003 10.8931 10.579 10.8151 11.1155 10.5243L11.2993 10.4205C11.6634 10.21 11.7967 10.1643 11.9589 10.1981C12.1175 10.2314 13.5362 11.2962 14.0562 11.7966L14.117 11.8569C14.2511 11.9951 14.3244 12.1239 14.3323 12.2194C14.3395 12.4427 14.1159 12.8622 13.7212 13.3201C13.4401 13.6461 13.0752 13.9794 12.917 14.0899L12.8792 14.1143C12.368 14.4792 11.7367 14.4948 10.9019 14.1391L10.743 14.0681C7.85914 12.8614 3.3239 8.36599 2.01404 5.41106L1.93642 5.22842C1.53055 4.33069 1.49687 3.67437 1.7883 3.19685L1.84674 3.1094C2.18452 2.55011 3.20246 1.66919 3.70929 1.60138L3.77382 1.59798ZM9.81629 0.682797L9.89045 0.686034C12.8378 1.01501 15.1653 3.35225 15.4966 6.31507C15.5302 6.61623 15.3147 6.88781 15.0151 6.92166C14.7156 6.95551 14.4455 6.73881 14.4118 6.43765C14.1375 3.9844 12.2104 2.04919 9.77 1.7768C9.47041 1.74336 9.2545 1.47208 9.28776 1.17087C9.31548 0.919863 9.50748 0.727287 9.74409 0.68942L9.81629 0.682797ZM9.86098 3.27572L9.93463 3.28505C11.4409 3.58022 12.6179 4.7636 12.9115 6.27797C12.9692 6.57543 12.7761 6.86357 12.4802 6.92155C12.1844 6.97953 11.8978 6.78539 11.8401 6.48793C11.6316 5.41227 10.7957 4.57191 9.72579 4.36225C9.42992 4.30427 9.23682 4.01613 9.29449 3.71867C9.34255 3.47078 9.54959 3.29465 9.78848 3.27638L9.86098 3.27572Z" fill="#200E32"/>
<script xmlns=""/></svg>