<svg width="50" height="48" fill="none" xmlns="http://www.w3.org/2000/svg"><path d="M49.477 18.02c-.962-3.568-3.241-6.36-6.777-8.301-3.592-1.973-7.95-2.297-11.695-.985-.058.008-.115.001-.174.02l-4.873 1.56v-.085c0-3.244 1.26-6.296 3.55-8.59a.96.96 0 0 0 0-1.357.955.955 0 0 0-1.354 0 13.987 13.987 0 0 0-4.111 9.947v.093l-4.952-1.57c-.023-.007-.044-.002-.068-.008-3.75-1.323-8.12-1.006-11.724.974-3.534 1.94-5.814 4.733-6.777 8.3-2.143 7.95 2.903 17.252 4.5 19.915 1.398 2.327 6.414 9.93 12.293 10.064l.24.003c3.776 0 6.262-2.035 7.443-3.297C26.18 45.965 28.666 48 32.443 48c.08 0 .16 0 .24-.003 5.88-.135 10.895-7.738 12.292-10.064 1.6-2.662 6.647-11.966 4.503-19.914zm-24.476 2.854c.342.686.735 1.276 1.11 1.836.941 1.412 1.756 2.631 1.764 5.132.008 2.423-.856 4.618-1.772 6.943-.382.973-.769 1.959-1.103 2.982-.334-1.024-.721-2.008-1.103-2.98-.915-2.326-1.78-4.521-1.771-6.945.008-2.5.822-3.72 1.765-5.132.375-.56.77-1.15 1.11-1.836zm-7.642 25.204c-3.895-.088-8.078-4.777-10.695-9.135C5.597 35.166.374 25.922 2.371 18.52c.821-3.043 2.79-5.438 5.848-7.118 3.74-2.053 8.624-2.023 12.154.076 2.29 1.362 3.573 3.335 3.653 5.573-.1 2.137-.857 3.289-1.726 4.592-.974 1.46-2.079 3.113-2.089 6.194-.01 2.791.963 5.264 1.905 7.655.908 2.307 1.837 4.693 1.913 7.41-.616.794-2.863 3.3-6.67 3.176zm25.976-9.135c-2.617 4.358-6.8 9.047-10.695 9.135-3.823.123-6.053-2.375-6.667-3.17.075-2.72 1.004-5.11 1.913-7.417.94-2.392 1.913-4.863 1.905-7.655-.011-3.08-1.115-4.734-2.09-6.193-.873-1.308-1.631-2.467-1.726-4.623.09-2.224 1.37-4.187 3.65-5.543 3.53-2.099 8.414-2.129 12.154-.076 3.059 1.68 5.027 4.075 5.848 7.118 1.998 7.402-3.224 16.646-4.292 18.425z" fill="#841839"/><path d="M24.256 23.397c-1.51 1.398-1.603 3.908-1.564 4.95.06 1.617.47 2.636.833 3.537.247.615.461 1.145.522 1.803.003.039.023.07.03.106.013.056.025.11.047.164a.927.927 0 0 0 .093.17c.031.045.06.087.097.127a.931.931 0 0 0 .151.123c.044.031.087.062.135.085.064.03.13.044.2.06.039.008.072.03.114.034a.716.716 0 0 0 .085.004h.003c.029 0 .058 0 .087-.004.041-.003.075-.025.114-.034.07-.016.136-.031.2-.06.05-.023.09-.053.135-.084a.926.926 0 0 0 .151-.124.865.865 0 0 0 .097-.127.898.898 0 0 0 .092-.17.909.909 0 0 0 .047-.164c.008-.036.027-.068.031-.105.06-.659.275-1.189.522-1.804.362-.9.773-1.92.833-3.537.038-1.041-.056-3.552-1.564-4.95l-.005-.008c-.005-.007-.013-.008-.018-.015-.04-.037-.07-.08-.111-.115-.027-.022-.06-.028-.088-.047a.942.942 0 0 0-.703-.142.884.884 0 0 0-.341.141c-.029.02-.062.025-.088.047-.043.035-.071.08-.112.116-.004.005-.012.008-.018.014-.005.004-.005.006-.007.01zm1.137 4.88c-.005.133-.023.241-.033.364a.81.81 0 0 1-.719.009c-.01-.126-.03-.237-.034-.373-.032-.86.073-1.865.394-2.635.318.77.424 1.774.392 2.635zM33.3 37.567l-1.785-1.033a.956.956 0 0 0-1.309.351.961.961 0 0 0 .351 1.312l1.785 1.032a.957.957 0 0 0 1.308-.351.962.962 0 0 0-.35-1.311zM35.277 31.148l-2.136-.377a.953.953 0 0 0-1.109.778.96.96 0 0 0 .778 1.112l2.136.377a.96.96 0 0 0 .331-1.89zM34.945 24.44l-2.249.397a.96.96 0 0 0 .333 1.89l2.25-.397a.96.96 0 0 0-.334-1.89zM31.228 21.112l2.074-1.2a.96.96 0 0 0 .35-1.311.956.956 0 0 0-1.308-.352l-2.074 1.2a.961.961 0 0 0 .48 1.791.95.95 0 0 0 .478-.128zM18.06 36.533l-1.786 1.033a.961.961 0 0 0 .48 1.791.952.952 0 0 0 .478-.128l1.786-1.033a.962.962 0 0 0 .35-1.311.957.957 0 0 0-1.308-.352zM17.546 31.55a.96.96 0 0 0-1.11-.78l-2.136.377a.96.96 0 0 0 .331 1.891l2.137-.377a.959.959 0 0 0 .778-1.11zM14.3 26.33l2.25.397a.958.958 0 0 0 1.11-.778.96.96 0 0 0-.777-1.113l-2.25-.397a.959.959 0 1 0-.333 1.89zM19.305 19.449l-2.073-1.2a.957.957 0 0 0-1.309.351.961.961 0 0 0 .35 1.311l2.075 1.2a.956.956 0 0 0 1.308-.351.961.961 0 0 0-.35-1.311z" fill="#841839"/></svg>