<svg width="61" height="64" fill="none" xmlns="http://www.w3.org/2000/svg"><path d="M60.35 37.773a2.245 2.245 0 0 0 .314-2.76c-.136-.227-.23-.488-.374-.708-.526-.802-1.053-1.604-1.613-2.38-.34-.464-.709-.907-1.104-1.325a1.782 1.782 0 0 1-.484-2.084 6.77 6.77 0 0 0 .315-1.097 3.263 3.263 0 0 0-.022-2.038 3.286 3.286 0 0 0-1.227-1.633c-.535-.372-1.028-.802-1.563-1.182h.001a3.998 3.998 0 0 0-1.885-.843 10.428 10.428 0 0 1-1.35-.279 5.322 5.322 0 0 1-.722-.27c.042-.28.068-.561.076-.844a6.847 6.847 0 0 0-.263-2.025 5.566 5.566 0 0 0-3.634-3.426c-.767-.251-1.55-.452-2.343-.6a7.236 7.236 0 0 1-1.334-.345 4.523 4.523 0 0 1-2.428-1.983 5.509 5.509 0 0 0-3.846-2.844 1.699 1.699 0 0 1-.968-.532A11.339 11.339 0 0 0 33 6.128a2.622 2.622 0 0 0-.314-.126l-.764.346-1.553-1.199a2.532 2.532 0 0 0-.646-.473 2.208 2.208 0 0 0-.704 0c-.45-.506-.85-.987-1.274-1.409a12.883 12.883 0 0 1-1.698-2.025 1.377 1.377 0 0 0-.213-.27.486.486 0 0 0-.314-.093.39.39 0 0 0-.212.236c-.102.355.127.777-.255 1.131a1.324 1.324 0 0 1-.518 0c-1.002-.397-2.03-.751-2.471-1.89-.127-.33-.331-.413-.518-.32-.186.092-.203.303-.186.488.017.186.068.456.076.684.051.953.145 1.915.12 2.869h-.001a5.268 5.268 0 0 1-.85 2.945c-.05.076-.177.11-.296.177l-.527-.65c-.433 0-.51.304-.57.566-.245 1.08-.509 2.16-.721 3.249-.055.417-.055.84 0 1.258a.488.488 0 0 0 .484.523c.12-.675-.144-1.359 0-2.009a7.462 7.462 0 0 1 .56-2.067c1.011.05 1.147 0 1.589-.844.408-.744.63-1.575.645-2.422V2.162c0-.185-.05-.388.238-.498l1.791.954c.573.35 1.296.35 1.868 0 .122-.059.25-.104.382-.135.56.557 1.155 1.105 1.698 1.687.274.32.503.674.68 1.055.466.911.458.92 1.537.448l1.307 1.096c.459.38.756.962 1.418 1.182l.595-.667c.735.311 1.336.87 1.697 1.578-.05.051-.093.144-.152.16a5.95 5.95 0 0 0-2.25 1.36l-.773.691a.274.274 0 0 1-.407 0c-.128-.134-.077-.27 0-.405.229-.278.679-.311.9-.801a3.195 3.195 0 0 0-1.257.463.856.856 0 0 1-.544.11 2.282 2.282 0 0 1-1.18-.633c.144-.362.441-.464.705-.599.263-.135.577-.202.696-.6v.001a1.449 1.449 0 0 0-.39 0c-.434.16-.85.338-1.291.515-.441.177-.85.371-1.274.523a.853.853 0 0 1-1.002-.194c0-1.688.17-3.325.051-5.064-.186.06-.373.068-.415.144-.078.172-.113.36-.102.549v1.95c0 .168 0 .396-.28.472a6.528 6.528 0 0 1-.485-.583c-.407-.607-.79-1.232-1.189-1.84a3.271 3.271 0 0 0-.398-.548.324.324 0 0 0-.315-.042.37.37 0 0 0-.136.287.555.555 0 0 0 .11.312c.476.734.968 1.468 1.444 2.21v.001c.104.18.197.367.28.557a5.425 5.425 0 0 1-1.171-1.105 11.755 11.755 0 0 0-.629-.667c-.22-.21-.305-.16-.39 0a.475.475 0 0 0 0 .405c.178.253.4.464.603.7l1.587 1.815c.253.236.376.578.332.92a.675.675 0 0 1-.85.075c-.967-.514-1.961-.995-2.937-1.493-.255.439-.263.616-.043.718.595.261 1.206.506 1.8.776.204.093.382.22.603.346a1.416 1.416 0 0 1-1.987.405c-.374-.203-.73-.422-1.104-.625a1.134 1.134 0 0 0-.416-.177c-.084 0-.195.093-.263.177-.068.084 0 .16 0 .203.102.113.22.213.349.295.526.304 1.06.6 1.587.844-.178.658-.212.844-.44.903h-.001c-.241.106-.5.163-.764.168a9.515 9.515 0 0 0-1.385 0 10.587 10.587 0 0 0-4.33 1.486c-.569.396-1.188.717-1.766 1.097a10.633 10.633 0 0 0-3.116 3.03 6.722 6.722 0 0 0-1.027 3.012c-.102.987 0 1.991 0 2.987v2.042a3.92 3.92 0 0 1-1.325.473c-1.698.549-3.286 1.308-4.11 3.072a2.461 2.461 0 0 0-.297 1.088c-.016.614.007 1.229.068 1.84A6.885 6.885 0 0 0 5.6 36.296c1.24 1.413 2.46 2.841 3.66 4.288.329.42.6.883.807 1.374.245.608.458 1.228.636 1.857a2.41 2.41 0 0 1 0 .498l-.849-.329c-.976-.36-2-.577-3.04-.641-.067 0-.17.126-.22.22v-.001a.22.22 0 0 0 .093.186c.237.114.488.197.747.244a9.166 9.166 0 0 1 3.184.963c.654.312.773.641.595 1.375-.11 0-.255.05-.331 0a2.56 2.56 0 0 0-1.775-.346 89.824 89.824 0 0 0-2.997.21c-.225.03-.439.119-.62.254-.187.144-.11.329.076.49h.323a11.428 11.428 0 0 1 3.21-.346c.368-.061.74.073.984.354a1.884 1.884 0 0 1-.305.43c-.423.322-.868.613-1.333.87-.977.531-1.987 1.004-2.98 1.527-.714.372-1.427.76-2.115 1.173-.262.159-.5.355-.704.583a.334.334 0 0 0 0 .506c2.36-1.688 3.345-2.211 4.432-2.338-.467.777-.943 1.51-1.35 2.279-.408.768-.79 1.688-1.163 2.532a9.031 9.031 0 0 0-1.045 2.387c.128 0 .179 0 .196-.059a31.398 31.398 0 0 0 2.096-3.991 11.23 11.23 0 0 1 2.632-3.739 5.298 5.298 0 0 1 2.548-1.181c.176.548.287 1.114.331 1.688a8.853 8.853 0 0 1-.136 1.687c-.084.549-.237 1.089-.364 1.688h.195a.582.582 0 0 0 .161-.16 6.547 6.547 0 0 0 .662-4.11c0-.27-.119-.531-.144-.793-.026-.262-.085-.397.186-.473.264.367.547.72.85 1.055.42.404.654.963.645 1.544v1.688c0 .152 0 .304.263.32.535-.75.153-1.687.484-2.53.165-.002.328.024.484.075a7.844 7.844 0 0 0 3.439.844c.527.005 1.033.2 1.427.548a4.215 4.215 0 0 1-.544.6 22.852 22.852 0 0 0-2.547 2.455c-.433.448-.85.911-1.265 1.35a4.395 4.395 0 0 1-.485.355c-.45-.304-.373-.962-.959-1.013-1.698 1.393-2.547 1.874-3.447 1.984-.06-.211-.11-.43-.187-.642a1.7 1.7 0 0 0-.203-.405.435.435 0 0 0-.756 0 1.75 1.75 0 0 0-.204.532c-.07.3-.244.566-.493.75a19.813 19.813 0 0 1-4.66 2.963 4.192 4.192 0 0 1-.655.177 1.455 1.455 0 0 1-.178-.338c-.17-1.097-.356-2.186-.467-3.291-.084-.844-.05-1.604-.068-2.414a1.217 1.217 0 0 0-.289-.987c-.56-.143-.85.549-1.367.296a.905.905 0 0 1-.068-.321c.068-.65.145-1.291.238-1.932a5.59 5.59 0 0 1 1.486-3.08c.382-.389.704-.845 1.061-1.216a.613.613 0 0 0 .12-.743c-.85-.556-1.597.296-2.497.135.055-.198.132-.39.229-.573a15.034 15.034 0 0 1 5.867-5.384c.069 0 .153-.076.179-.135a.454.454 0 0 0 .059-.304c0-.076-.204-.169-.272-.144-.217.07-.426.166-.62.288a20.34 20.34 0 0 0-2.86 2.32 19.071 19.071 0 0 0-3.143 3.95.782.782 0 0 0-.135.742c.059.118.212.185.288.253.68-.185 1.18-.675 1.876-.692.102.48-.246.675-.45.92A6.927 6.927 0 0 0 .363 51.41c0 .228-.068.456-.094.683-.093.76-.186 1.519-.263 2.279a.38.38 0 0 0 .297.43.59.59 0 0 0 .425-.11c.263-.202.348-.607.849-.624.085.195.144.399.178.608 0 .422-.076.844 0 1.265.204 1.519.382 3.038.51 4.557.042.523.348.683.806.43a52.125 52.125 0 0 0 3.21-1.814c1.044-.65 1.834-1.257 2.743-1.899l.713.844c1.316-.717 2.403-1.688 3.761-2.261.099.08.192.168.28.261.586.845.917.845 1.596.144.077-.084.145-.177.221-.27a23.583 23.583 0 0 1 4.45-4.304 1.442 1.442 0 0 1 1.502-.295c.648.255 1.341.376 2.038.354.23 0 .458 0 .688.05.471-.007.912.23 1.163.625.275.417.58.812.917 1.182a8.082 8.082 0 0 0 7.082 2.894l4.143-.362c.57-.051 1.146-.11 1.698-.144a7.08 7.08 0 0 1 .85 0c.135.397.254.76.381 1.114.221.616.433 1.232.68 1.83a7.676 7.676 0 0 0 2.173 2.785 2.76 2.76 0 0 0 1.945.752c.059-.085.102-.119.102-.152l.076-.903c.06-.557.263-.844.781-.794a6.742 6.742 0 0 1 3.142.625c.85.473 1.758.92 2.657 1.384.799-.102.68-1.03 1.24-1.46.263.144.535.27.781.43.298.242.613.462.943.659.707.311 1.33.786 1.817 1.384.182.17.391.31.62.413a2.307 2.307 0 0 0 1.197-2.253c0-.27-.05-.532-.085-.844-.119-.946-.254-1.9-.373-2.844a2.114 2.114 0 0 1 0-.405c.092-.013.187-.013.28 0 .229.135.458.397.721.245a1.75 1.75 0 0 0 .637-.633c.104-.242.156-.505.153-.768-.03-.34-.03-.681 0-1.02a3.352 3.352 0 0 0-.077-1.537 10.968 10.968 0 0 0-3.778-5.493c-.212-.152-.484-.262-.466-.675.373-.296.849-.6 1.205-.962.357-.363.688-.844 1.095-1.182a2.046 2.046 0 0 0 .73-1.688c0-.683 0-1.376-.059-2.067a3.944 3.944 0 0 1 .501-2.102 14.7 14.7 0 0 1 1.205-2v.001zm-8.092-15.452a7.328 7.328 0 0 1 4.067 2.667c.51.599.703 1.405.518 2.168a6.623 6.623 0 0 1-1.528 3.157 3.837 3.837 0 0 0-.952 2.287 8.685 8.685 0 0 0 .103 2.851 10.664 10.664 0 0 1-.383 5.444 5.302 5.302 0 0 1-1.919 2.531 22.258 22.258 0 0 1-5.434 2.92 6.212 6.212 0 0 1-4.185.237c-.629-.17-1.266-.312-1.902-.481-.094 0-.178-.127-.263-.186 0-.405.33-.523.569-.675a14.173 14.173 0 0 0 2.309-2.05c.42-.445.754-.963.985-1.528.33-.777.747-1.51 1.146-2.312l.738.27c.476-.253.934-.515 1.41-.76.476-.244 1.053-.134 1.52-.59a7.318 7.318 0 0 0-2.853.565c0-.321 0-.557.051-.726.259-.569.777-.98 1.393-1.106.29-.074.573-.17.848-.286 0 0 0-.068.06-.144l-.595-.245 2.428-1.688-.05-.109-1.503.38c.11-.903.646-1.57.714-2.363.068-.794.093-1.51.144-2.338l.739.135c-.28-.667-.952-.844-1.283-1.358-.33-.515-.687-.996-1.104-1.587.474.026.937.14 1.368.337l1.282.313c-.144-.532-.544-.49-.85-.608-.305-.118-.653-.22-.967-.371-.314-.152-.577-.355-.85-.524 0-.38.28-.388.485-.43.44-.101.849-.16 1.324-.236 0-.354-.221-.363-.4-.337-.721.11-1.443.236-2.156.354l-.68.101c.545-1.055 1.64-1.113 2.345-1.687-.06-.346-.298-.279-.45-.22-.57.236-1.121.498-1.699.743-.16.068-.34.101-.585.177-.221-1.224-.433-2.38-.637-3.485.272-.253.5-.135.713-.076.972.237 1.964.38 2.963.43 1.01.086 2.014.232 3.006.44zM16.834 40.498a3.752 3.752 0 0 1-1.596-1.14c-.306-.387-.738-.683-1.027-1.08a6.505 6.505 0 0 1-1.18-2.835 15.474 15.474 0 0 1-.264-2.725 6.125 6.125 0 0 1 1.792-4.346c.891-.903 1.766-1.823 2.65-2.726a7.546 7.546 0 0 0 1.604-2.085c.22-.38.47-.74.747-1.08.386 1.88.426 3.812.119 5.705l-1.197.329c.136.127.287.238.45.329.148.035.298.06.45.076a.966.966 0 0 1 .85.844c.042.22.084.438.135.675l-2.038.717c-.119.312 0 .422.247.405h-.001c.224-.049.445-.11.662-.186.333-.09.67-.163 1.01-.22a.922.922 0 0 1 .738.143.91.91 0 0 1 .384.643c-.272.532-1.138.413-1.342 1.063.272.211.476 0 .688 0 .212 0 .518-.143.781-.185.323-.09.668.04.849.32l.544.785c-.646.286-1.283-.144-1.826.194 0 .21.11.278.263.27.89.07 1.757.32 2.547.734.433.187.77.545.926.988-.543.329-1.07 0-1.57 0 0 .32.186.38.348.43.321.123.658.205 1.001.245a6.557 6.557 0 0 1 2.446.75c-.578.54-1.359.71-1.995 1.207.348.113.729.07 1.044-.117.441-.135.85-.33 1.29-.498a1.373 1.373 0 0 1 1.18 0c-.048.137-.12.265-.212.38-.314.278-.662.523-.985.8-.139.153-.262.32-.365.499.57.152.773-.27 1.087-.43l.993-.498c0 .683-.628 1.097-.475 1.687.297.135.382-.076.466-.228.23-.438.408-.91.943-1.13l2.624 1.13c.65.321 1.32.603 2.004.844a10.11 10.11 0 0 0 3.397.515c.191.009.384-.014.568-.068 1.087-.548 2.31-.54 3.456-.844a12.354 12.354 0 0 0 1.486-.59l.628-.245s.06 0 .162.101a8.531 8.531 0 0 1-1.698 3.14 23.395 23.395 0 0 1-3.626 2.835 7.772 7.772 0 0 1-3.023 1.072 27.27 27.27 0 0 1-2.76.245 2.989 2.989 0 0 1-1.698-.347 3.712 3.712 0 0 0-.772-.194 3.4 3.4 0 0 1-2.267-1.443c-.136-.236-.323-.43-.476-.65a5.236 5.236 0 0 0-3.693-2.303c-.23 0-.459-.068-.688-.084a21.85 21.85 0 0 1-6.784-1.824zm2.081 1.629c-.178.16-.28.32-.357.311-.517-.05-1.027-.134-1.545-.202.128-.574.23-.683.527-.591.297.093.84.27 1.375.481zm-3.396-15.95a1.461 1.461 0 0 1-.28-1.4.854.854 0 0 1 1.001-.127.49.49 0 0 1 .255.743c-.263.278-.408.65-.942.759l-.034.025zm1.417-2.27a2.098 2.098 0 0 1-.203-.48c-.255-1.291.135-1.452 1.137-1.072l.527.202s0 .06.11.17c-.526 1.197-.535 1.206-1.57 1.18zm.23.71a1.52 1.52 0 0 1-.102.151l-.128-.126a.577.577 0 0 1 .162-.084l.068.058zM29 31.306h.001a2.334 2.334 0 0 1-.51-2.252c.06-.286.145-.574.222-.844h-.001a.738.738 0 0 1 .57.49 6.882 6.882 0 0 0 2.547 2.404 6.744 6.744 0 0 0 3.396 1.055c.852.09 1.715.03 2.547-.177a5.106 5.106 0 0 0 2.547-1.316c.104-.116.215-.226.332-.33a4.635 4.635 0 0 0 1.451-3.502c0-.416-.07-.83-.212-1.223a1.695 1.695 0 0 0-1.18-1.114 5.295 5.295 0 0 0-1.91-.422c-.289 0-.595 0-1.02-.068.162-.202.23-.346.34-.405.272-.135.56-.228.85-.337-.094-.473-.187-.582-.433-.531a8.404 8.404 0 0 0-1.002.26 1.196 1.196 0 0 1-1.096 0 .852.852 0 0 0-1.044.237l-.722.684a.388.388 0 0 1-.179-.616c.173-.297.404-.555.68-.76a6.485 6.485 0 0 1 4.39-1.071 5.744 5.744 0 0 1 2.963 1.434c.46.396.79.92.951 1.503a7.254 7.254 0 0 1 .331 3.51 5.99 5.99 0 0 0-.043.684 6.815 6.815 0 0 1-2.708 5.113c-.3.242-.63.44-.985.591-1.164.499-2.41.785-3.676.844a13.256 13.256 0 0 1-6.53-1.688 2.146 2.146 0 0 1-.925-.996c-.178-.346 0-.574.323-.784a2.861 2.861 0 0 0-.306-.372H29zm8.576-12.04c0-.136-.144-.33-.237-.347a1.172 1.172 0 0 0-.527.101.39.39 0 0 0-.16.17 14.056 14.056 0 0 0-1.42 2.345c0 .068 0 .16-.084.202a4.073 4.073 0 0 1-1.435 1.055c-.068-.076-.11-.11-.102-.135.263-2.531 1.316-3.789 3.074-4.421a1.314 1.314 0 0 1 1.214-.051 4.867 4.867 0 0 1 1.104-.481c.38-.04.764.009 1.12.144.438.15.854.355 1.24.607a11.257 11.257 0 0 1 2.683 1.958c.47.504.784 1.13.909 1.806.119.76.314 1.502.458 2.253.129.496.081 1.02-.135 1.485-.433.059-.697-.043-.799-.397-.101-.355-.263-.844-.39-1.325a3.776 3.776 0 0 0-1.962-2.438 1.467 1.467 0 0 1-.194-.11 5.814 5.814 0 0 0-4.874-.616c-.298.076-.603.135-.9.185 0 0-.069-.042-.12-.076.196-.75 1.036-.692 1.528-1.173h.001a5.45 5.45 0 0 0 .008-.742zm-3.073 7.898c.416.075.849.227 1.257.354.046.414.128.824.246 1.224.175.336.386.653.628.945-.068.236-.229.43-.492.27a7.224 7.224 0 0 1-.9-.7c-.204-.177-.365-.397-.56-.582-.196-.186-.51-.245-.603-.076a.42.42 0 0 0 .093.522 6.175 6.175 0 0 0 2.861 1.857c.16.072.31.16.45.262a6.834 6.834 0 0 1-4.054-.175 6.787 6.787 0 0 1-3.231-2.441 8.716 8.716 0 0 1 1.953-2.971l.374.388c.525.57 1.217.963 1.978 1.122zm1.027-.845l.128-.118.076.05v.001a.807.807 0 0 1-.127.119l-.077-.052zm.28-1.687a.246.246 0 0 1 .128-.16s.11 0 .17.05l-.145.27c-.076-.109-.16-.168-.152-.202v.042zm1.257 1.57c.012-.19.052-.378.12-.557a.794.794 0 0 1 .509-.582 3.123 3.123 0 0 1 3.286.734.845.845 0 0 1 .203.405 4.555 4.555 0 0 1-.203 2.422 3.106 3.106 0 0 1-1.64 1.688c.306-.633.994-.946 1.249-1.688-.204 0-.365-.11-.467-.059-.452.207-.99.057-1.265-.355a2.62 2.62 0 0 1 .73-1.122c.3-.306.583-.627.849-.962 0-.05 0-.236-.077-.296a.327.327 0 0 0-.305 0c-.22.211-.424.437-.611.675-.365.448-.705.903-1.053 1.35h-1.078c.022.221.056.442.102.659.05.177 0 .312-.162.354a.374.374 0 0 1-.297-.11c-.38-.408-.44-1.02-.144-1.493.222-.323.313-.718.254-1.106v.042zm.799 2.936c.093-.279.424-.355.849-.17v.001c.172.086.34.182.5.288-.11.194-.16.38-.271.43a.855.855 0 0 1-.518 0c-.45-.169-.629-.363-.56-.591v.042zm.44 1.274c-.203.144-.322.304-.407.287a2.565 2.565 0 0 1-.73-.27c-.068 0-.127-.235-.085-.278.043-.042.255-.22.34-.185.304.111.6.247.883.404v.042zm-6.35-6.287c-.28-.692.374-1.249.085-1.848-.179-.295-.416 0-.62-.076a4.28 4.28 0 0 1-.586-.194c-.085.135-.17.203-.161.262.06.836.191 1.666.39 2.481.23.53.13 1.145-.255 1.578l-.407.473c-.603-1.055-.068-2.186-.459-3.165-.339 0-.348.211-.348.388 0 .996.068 1.992.102 2.988v.531c-.297.169-.382 0-.484-.177a5.224 5.224 0 0 1-.772-2.531 9.44 9.44 0 0 1 .382-4.54c.195-.626.499-1.211.9-1.73.56-.659.993-.642 1.434.067a3.4 3.4 0 0 1 .366.717c.348.97.696 1.941 1.01 2.929.066.299.097.605.093.911a.844.844 0 0 1-.67.895v.041zm9.068 11.14c.68-.43 1.376-.844 2.08-1.24.42-.174.808-.417 1.146-.718-.73-.152-1.197.413-1.8.413a3.557 3.557 0 0 1 1.274-1.687c.518-.448 1.112-.844 1.698-1.215.05-.321.102-.65.153-1.013-.382-.202-.697.287-1.146.101.019-1.015.115-2.028.289-3.03.228-.052.462-.075.696-.067a2.72 2.72 0 0 1 1.384.585c.397.322.694.748.857 1.23a.75.75 0 0 0 .349.421c.5.298.818.823.848 1.401a5.524 5.524 0 0 1-.721 3.975c-.34.6-.79 1.13-1.138 1.687-.263.464-.85.557-1.095.962-.192.41-.456.782-.781 1.098-.586.49-1.189.97-1.809 1.418-.288.19-.602.34-.934.439a12.39 12.39 0 0 1-2.921.632c-.31 0-.615.064-.9.186a2.697 2.697 0 0 1-1.58.22 7.427 7.427 0 0 1-2.674-.617c-.849-.405-1.698-.7-2.547-1.063a2.896 2.896 0 0 1-1.231-.911c1.13-.076 2.148-.16 3.158-.203a5.017 5.017 0 0 0 1.8-.363 8.223 8.223 0 0 1 1.529-.489 6.048 6.048 0 0 0 2.31-.988c.543-.43 1.128-.835 1.706-1.206v.042zM32.746 10.97c.331-.26.705-.472 1.045-.717a3.209 3.209 0 0 1 2.403-.574 4.749 4.749 0 0 1 3.804 2.464 4.78 4.78 0 0 0 3.931 2.633 9.524 9.524 0 0 1 2.878.785 5.76 5.76 0 0 1 3.133 3.376 5.96 5.96 0 0 1 .11 2.32 7.742 7.742 0 0 1-3.633-.38 7.18 7.18 0 0 1-1.308-.43c-.382-.228-.637-.658-1.002-.928-.85-.659-1.817-1.283-2.726-1.916l-.365-.253c0-.574.697-.447.799-.844-.153-.236-.349-.177-.518-.11-.39.152-.764.355-1.163.49a3.199 3.199 0 0 1-.773 0l.433-.524c.119-.134.153-.303 0-.396a.513.513 0 0 0-.417 0 6.733 6.733 0 0 0-.848.464c.093-.566.17-.962.237-1.367.068-.405-.076-.683-.28-.641-.204.042-.263.32-.306.54-.042.22-.11.514-.17.768 0 0-.059 0-.16.076-.518-1.114-.102-2.33-.315-3.443-.246-.059-.322.076-.339.228a107.28 107.28 0 0 0-.23 2.008c-.245.194-.398.043-.551-.05-3.532-2.06-3.532-2.06-4.246-2.988.18-.21.372-.406.577-.59zM22.362 13.09c.138-.322.312-.628.518-.91.323-.43.838-.67 1.376-.642.364-.693.399-.769.959-.937a6.89 6.89 0 0 1 3.65-.253c.407.108.788.294 1.122.549 1.18.844 2.326 1.747 3.507 2.598.472.32.969.603 1.485.845a3.926 3.926 0 0 1 2.242 2.936 4.025 4.025 0 0 1-.56.32 5.747 5.747 0 0 0-3.278 2.904 1.682 1.682 0 0 1-.272.32c-.22-.455-.415-.844-.603-1.265-.068-.135-.11-.287-.17-.422-.44-1.047-.934-2.042-2.165-2.27-.105-.39-.105-.8 0-1.19 0-.574.06-1.14.069-1.688 0-.194-.068-.227-.518-.371.13 1.328.032 2.67-.289 3.966a.763.763 0 0 1-.144.236c-.349-.084-.34-.295-.349-.48 0-.727 0-1.452-.093-2.178a4.573 4.573 0 0 0-.238-1.114c0-.084-.237-.143-.365-.16-.127-.017-.17.194-.152.261.415 1.376.262 2.819.569 4.22.069.4-.02.81-.247 1.148-.271 0-.297-.178-.297-.33 0-1.138-.23-2.27-.195-3.375a.402.402 0 0 0-.094-.203c-.051-.05-.136-.126-.187-.11-.05.018-.271.12-.263.17.094.717-.39 1.384-.16 2.135h-.001c.124.714.35 1.407.67 2.058.239.317.287.736.128 1.097a3.86 3.86 0 0 0-.23 1.578 17.08 17.08 0 0 0 .222 3.545c.108.587.303 1.156.577 1.687.054.14.093.284.119.43l-.586.313c-.094.405-.187.801-.297 1.3a1.708 1.708 0 0 1-.442-.27 2.52 2.52 0 0 1-.577-1.688l.798-.253c-.05-.118-.059-.202-.11-.236-.05-.034-.34-.177-.5-.278l-.002-.001a.843.843 0 0 1-.407-.768 3.41 3.41 0 0 1 .628-2.531.348.348 0 0 0-.084-.22.324.324 0 0 0-.298-.05 1.362 1.362 0 0 0-.441.489 5.559 5.559 0 0 0-.22 1.004c-.052.253-.085.514-.12.75-.28.094-.441 0-.484-.219v.001a4.605 4.605 0 0 1 .179-2.152c0-.16.339-.261.552-.413a3.22 3.22 0 0 1-.29-.844 2.25 2.25 0 0 1 .264-.785l1.01.185c0-.134.043-.236 0-.261a3.87 3.87 0 0 1-1.002-2.439c0-.22 0-.455-.068-.683-.068-.228-.05-.279-.119-.304-.85-.27-.773-1.047-1.01-1.688a.247.247 0 0 0-.161-.144c-.06 0-.178 0-.187.06a.696.696 0 0 0 0 .32c.136.718.263 1.426.416 2.135.127.582.076 1.08-.595 1.3 0 .245.015.49.043.734a1 1 0 0 1-.187.76c-1.12 1.611-.976 3.375-.39 5.063a19.183 19.183 0 0 0 1.698 3.771c.86 1.548 2.09 2.861 3.583 3.824a30.537 30.537 0 0 0 3.677 1.637c1.562.093 3.107.599 4.695.143a3.157 3.157 0 0 1 1.384 0c-.19.171-.397.321-.62.447a18.857 18.857 0 0 1-5.943 1.688 2.206 2.206 0 0 1-.578 0 98.629 98.629 0 0 1-3.507-.675 7.53 7.53 0 0 1-4.032-2.532 27.551 27.551 0 0 1-2.973-4.219 6.468 6.468 0 0 1-.95-3.738 41.37 41.37 0 0 0-.128-4.7c0-.845-.178-1.748-.272-2.625v-.574a2.27 2.27 0 0 1 .671-2.017 3.74 3.74 0 0 0 .943-1.688c.22-.658.441-1.358.696-2.033zm5.723 18.912a4.238 4.238 0 0 1-1.3-1.249 1.623 1.623 0 0 1-.432-1.156c1.537 1.004 1.834 1.418 1.732 2.405zm-3.396-8.633a4.062 4.062 0 0 1 .085-1.232c0-.059.16-.126.255-.152.093-.025.135.06.17.119h-.001a.896.896 0 0 1 .11.32v.524c-.076.523-.135 1.012-.229 1.493a.587.587 0 0 1-.254.346.532.532 0 0 1-.408 0c-.077 0-.136-.185-.136-.278-.017-.456.476-.675.382-1.173l.026.033zm.637-3.207c.45.49.45.49.22.971-.466-.473-.466-.473-.246-1.004l.026.033zm-.068 6.616c.246.354.704 0 .85.363h-.002c.05.225.076.454.077.684l-.662.152c-.34-.203-.654-.954-.994-2.37.696.21.433.885.705 1.138l.026.033zm-15.114-4.59a7.843 7.843 0 0 1 3.515-6.22 14.227 14.227 0 0 1 2.131-1.375c1.698-.793 3.329-1.62 5.273-1.367l.544.093a5.111 5.111 0 0 1-1.087 2.954c-.128.151-.264.286-.39.43a2.924 2.924 0 0 0-.756 2.439 5.467 5.467 0 0 1-.57 2.886c0 .059-.11.1-.16.143-.807-.236-1.614-.48-2.42-.708v-.001a1.633 1.633 0 0 0-.451-.042c-.136 0-.28.203-.246.33.033.126 0 .083 0 .109.645.548.399 1.333.594 2.017-.798.489-.85-.33-1.307-.65l-.85.844c-.059.447.416.472.492.76h.001c.041.301.101.6.178.894.178.326.38.639.603.936-.04.101-.092.198-.153.288-.33.362-.738.329-.9-.11-.161-.439-.263-.953-.416-1.426a26.7 26.7 0 0 0-.526-1.519c-.085-.22-.306-.228-.697 0 .442.849.73 1.768.85 2.717l-2.964-.515a1.942 1.942 0 0 1-.288-1.266v-2.641zm14.281 28.835a4.668 4.668 0 0 1-2.02-.102 24.064 24.064 0 0 0-4.747-.953 8.978 8.978 0 0 1-2.65-.743c-2.088-.928-2.156-.961-2.971-3.063-.17-.43-.28-.844-.433-1.308-.416-1.156-.85-2.304-1.265-3.443a6.287 6.287 0 0 0-1.554-2.127c-.39-.413-.747-.844-1.112-1.307-.586-.7-1.163-1.418-1.766-2.11a6.372 6.372 0 0 1-1.52-4.456 3.937 3.937 0 0 1 2.02-3.375 7.738 7.738 0 0 1 4.518-1.182c1.005.02 1.99.284 2.87.769.068 0 .093.118.22.286l-1.213 1.78c-.434.077-.553-.311-.85-.421a1.313 1.313 0 0 0-.407 0v.312c.246.337.526.658.79.979-.052.278-.23.337-.4.169a2.526 2.526 0 0 1-.942-1.882c0-.093-.102-.194-.161-.287-.06-.093-.069 0-.12-.068-.415.093-.373.515-.551.794.019.111.052.219.101.32.315.415.504.91.544 1.426l-1.061 1.207c.052.166.124.324.212.473a6.513 6.513 0 0 0 1.885 1.823c.121.084.22.198.288.329v.202c0 .05-.152.093-.195.068-.23-.135-.441-.295-.662-.447a1.063 1.063 0 0 0-.39-.22.545.545 0 0 0-.374.152c-.043.042 0 .22.059.304a.72.72 0 0 0 .272.202l.535.228a1.976 1.976 0 0 1 1.452 2.11c-.28.236-.637.118-.96.169a4.8 4.8 0 0 0-1.112.22c-.288.117-.229.362.06.54v-.001c.417-.142.842-.26 1.273-.354.359-.03.72-.03 1.078 0 .221.329.45.632.637.953.362.637.89 1.165 1.529 1.528.399.227.79.472 1.163.7-.145.844-.221.928-.85 1.004-.415.051-.849.051-1.264.093a.794.794 0 0 0-.323.118.24.24 0 0 0-.077.186c0 .059.085.16.136.17h1.767c.313.438-.069 1.02.457 1.315.467-.261.145-.844.56-1.198h.001a2.202 2.202 0 0 1 1.597.076c0 .43-.094.844-.094 1.257 0 .236.212.279.492.16 0-.177.085-.396.11-.616a.907.907 0 0 1 .901-.844 10.822 10.822 0 0 1 3.125 3.89c.4 1.038.781 2.077 1.282 3.072.214.336.255.752.11 1.123zM12.08 31.664a5.06 5.06 0 0 1-.11.843c-.254-.371-.526-.717-.356-1.139.305-.101.466.05.466.296zm27.273 23.628a25.84 25.84 0 0 1-4.491.337.917.917 0 0 0-.34 0 7.327 7.327 0 0 1-3.55 0 6.83 6.83 0 0 1-1.426-.447 9.001 9.001 0 0 1-4.398-4.38c-.306-.657-.629-1.316-.917-1.982a10.406 10.406 0 0 1-1.019-2.473 1.952 1.952 0 0 0-.4-.684l-2.037-2.928c.11 0 .212-.135.297-.118 1.07.151 2.131.286 3.193.48v.001a3.398 3.398 0 0 1 2.36 1.493c.417.557.868 1.086 1.35 1.587.094.118.161.253.23.354 0 .439-.68.65-.34 1.224l1.299-.684c.246.135.51.262.85.422-.12.33-.213.608-.324.937.153 0 .314.05.349 0a1.44 1.44 0 0 1 1.884-.397c.12.456-.339.591-.44.903 0 .093 0 .262.05.296.095.054.21.054.306 0a3.666 3.666 0 0 1 2.08-1.199c.28-.057.564-.092.85-.101a1.97 1.97 0 0 1-.162.574c-.28.363-.595.709-.891 1.055-.12.135-.23.278-.331.413h-.001a.273.273 0 0 0 .45 0c.323-.32.629-.675.96-.995.372-.385.763-.752 1.171-1.098.245-.15.508-.273.781-.362.289.27.128.472.06.692-.069.22-.39.65-.145 1.173l.492-.7c.323-.473.637-.954.968-1.427h.001a.334.334 0 0 1 .501-.11.52.52 0 0 1 .195.372c0 .303-.093.607-.119.911a3.662 3.662 0 0 0 0 .683c0 .06.077.119.128.178.272 0 .288-.22.323-.38.102-.675.186-1.359.28-2.026.39-.278.764-.134 1.197-.058.441.759.467 1.864 1.537 2.219.212-.261 0-.372-.127-.498a1.528 1.528 0 0 1-.476-1.113.413.413 0 0 1 .458-.406c.307.03.59.183.782.422.293.297.624.556.985.768.247.092.508.14.772.144-.085-.456-.68-.346-.662-.844l2.76-.709a12.604 12.604 0 0 0 2.648-1.122c.85-.456 1.699-.844 2.548-1.232.348.278.255.607.23.844a14.398 14.398 0 0 1-2.548 6.936 7.813 7.813 0 0 1-2.845 2.616 4.996 4.996 0 0 1-3.455.549 12.063 12.063 0 0 0-3.881-.11zm17.21-5.772h.001a9.282 9.282 0 0 1 2.42 3.46.84.84 0 0 1-.077.962c-.22.236-.085.498.051.734.36.673.419 1.467.162 2.185a2.265 2.265 0 0 1-.519-.202c-.144-.11-.229-.32-.382-.413a.708.708 0 0 0-.526-.11.615.615 0 0 0-.288.438 11.65 11.65 0 0 0 .067 1.688c.094.751.289 1.502.408 2.254v-.001c.068.453.102.91.102 1.367.029.414-.174.81-.526 1.03a1.983 1.983 0 0 1-.459-.245 41.785 41.785 0 0 0-3.685-2.532.96.96 0 0 0-.45-.076c-.068 0-.136.068-.221.119-.255.388-.127.979-.637 1.333a10.942 10.942 0 0 1-2.19-.819 5.118 5.118 0 0 0-2.19-.65c-.306 0-.612-.1-.918-.134a4.202 4.202 0 0 0-.798 0c-.705.084-.85.278-.993 1.02l-.077.55a.751.751 0 0 1-.85-.077 6.079 6.079 0 0 1-1.426-1.325 8.827 8.827 0 0 1-1.613-3.645.416.416 0 0 1 .441-.532c.619.015 1.235.077 1.843.186a5.48 5.48 0 0 0 3.762-.751c.569-.296 1.087-.718 1.63-1.072.178-.118.365-.22.654-.388 0 1.25-.713 2.27-.475 3.435.212-.6.424-1.199.645-1.806.221-.608.357-1.004.578-1.493l-.001-.001a.61.61 0 0 1 .416-.32c.229 0 .288.194.288.396l.051 2.414v.911c.068.236.158.465.272.684.092-.169.163-.347.213-.532 0-.76 0-1.528.05-2.295 0-.253.069-.506.11-.844.198.073.389.163.57.27a9.438 9.438 0 0 1 2.3 2.996c.12.22.145.523.545.59-.085-1.198-.96-2.05-1.325-3.172l1.884-.322c-1.486-.54-3.014-.337-3.94-1.518.069-.33.289-.287.467-.304.85-.084 1.698-.16 2.548-.253.373 0 .747-.118 1.265-.203a2.73 2.73 0 0 0-1.834-.253c-.577 0-1.155.093-1.698.11a3.026 3.026 0 0 1-1.537-.346.724.724 0 0 1 .28-.845 35.028 35.028 0 0 1 2.284-1.915c.475-.31.969-.592 1.478-.843.695.22 1.329.598 1.851 1.105zm1.835-9.739a3.09 3.09 0 0 0-.39 1.503c-.007.563.016 1.126.067 1.687a3.415 3.415 0 0 1-1.103 3.004 8.939 8.939 0 0 1-1.886 1.494c-.78.422-1.537.844-2.309 1.308-.232.11-.47.206-.714.287a3.67 3.67 0 0 1 .051-.734 13.16 13.16 0 0 0 .587-4.22c.01-.225.086-.442.22-.624.153-.22.374-.397.544-.6a5.988 5.988 0 0 0 1.375-2.615c.334-1.338.465-2.717.39-4.093a6.457 6.457 0 0 0-.144-.802 7.62 7.62 0 0 1 .12-3.527c.203-.734.356-.928 1.256-1.57.492.575.952 1.081 1.367 1.63.416.548.985 1.367 1.452 2.067.237.346.433.726.654 1.08.495.728.44 1.695-.136 2.363a16.247 16.247 0 0 0-1.401 2.363z" fill="#841839"/><path d="M46.653 23.9c-.084.068-.093.237-.144.355l.178.16.713-.304.739-.286c.212-.085.517 0 .68-.27a2.245 2.245 0 0 0-2.166.346zM14.048 41.875c.16-.06.306-.148.433-.261l-.093-.22a1.85 1.85 0 0 0-.434 0c-.084 0-.152.144-.22.22.11.1.23.278.314.26zM34.377 30.762c.22.176.535.176.755 0l-3.158-1.849c.535.97 1.511 1.35 2.403 1.849z" fill="#841839"/></svg>