<svg width="46" height="48" fill="none" xmlns="http://www.w3.org/2000/svg"><path d="M9.443 33.83c-2.063-1.72-3.833-2.148-3.907-2.167a.89.89 0 0 0-1.062.65.88.88 0 0 0 .65 1.059c.015.004 1.462.37 3.179 1.803 1.398 1.167 2.348 2.808 2.357 2.825a.888.888 0 0 0 1.208.33.875.875 0 0 0 .333-1.197c-.045-.078-1.11-1.927-2.758-3.303zM36.069 39.266c-2.416-.913-6.619-1.161-9.197.024a.875.875 0 0 0-.43 1.167.889.889 0 0 0 1.176.427c2.062-.948 5.777-.748 7.82.023a.885.885 0 0 0 1.143-.51.876.876 0 0 0-.512-1.13z" fill="#841839"/><path d="M45.994 29.523c-.258-11.631-10-15.496-13.03-16.417.322-1.372.496-2.985.502-4.76.235.28.493.544.778.781 1.669 1.385 3.27 1.966 5.464 1.966.1 0 .203 0 .306-.004a.885.885 0 0 0 .741-.432.872.872 0 0 0 .02-.854c-.324-.613-.561-1.258-.79-1.881-.476-1.29-.968-2.623-2.216-3.658-1.73-1.433-3.743-1.822-4.825-1.925-.06-.36-.114-.72-.184-1.081a.885.885 0 0 0-.84-.712.882.882 0 0 0-.885.653c-.074.273-.16.53-.24.796-2.945-1.142-12.122-4.086-18.878.46-3.171 2.132-4.51 3.782-5.585 5.107-.838 1.034-1.5 1.85-2.816 2.688a1.13 1.13 0 0 0-.544 1.018c.013.32.063 1.24 3.633 3.294-1.17.9-2.298 2.01-3.348 3.376-6.433 8.362-1.577 15.846-.262 17.585-.247 1.078-.64 3.665.913 4.858 1.831 1.41 4.366.457 5.398-.035.91.465 3.072 1.41 5.658 1.41 1.65 0 3.47-.388 5.25-1.523 2.405 2.765 5.42 3.55 6.625 3.76.588 1.135 2.24 3.874 4.533 4.003.048.002.095.004.142.004 2.155 0 3.87-2.734 4.488-3.87 2.193-.31 10.266-2.29 9.991-14.607zM26.51 14.579l-.61-1.217c2.44-2.19 4.313-4.872 5.652-8.138.286 2.989.16 5.715-.372 7.746-.877.19-2.652.652-4.67 1.609zm-7.867-3.515l.8-1.469a59.771 59.771 0 0 0 2.373-.764l-1.092 2.435a23.15 23.15 0 0 0-2.08-.202zm5.497-3.093a50.23 50.23 0 0 0 1.69-.699l-.597 1.36a.877.877 0 0 0 .811 1.23.885.885 0 0 0 .812-.528l1.41-3.218c.429-.22.844-.447 1.244-.676-1.222 2.665-2.847 4.885-4.91 6.711a21.52 21.52 0 0 0-2.084-.563l1.624-3.617zm12.496-2.358c.883.732 1.255 1.742 1.686 2.912.09.245.182.494.28.744-1.212-.159-2.17-.616-3.222-1.49-1.138-.946-1.755-2.547-2.06-3.62.898.15 2.194.525 3.316 1.454zm-31.621 5.75c1.217-.873 1.94-1.763 2.698-2.699 1.053-1.299 2.247-2.77 5.199-4.756 5.562-3.741 13.35-1.646 16.584-.51-.59.375-1.22.741-1.89 1.094l-2.819-1.636a.888.888 0 0 0-1.21.315.875.875 0 0 0 .316 1.202l1.804 1.046a47.88 47.88 0 0 1-2.099.893l-4.654-3.295a.887.887 0 0 0-1.235.205.875.875 0 0 0 .206 1.226l3.69 2.611c-.887.312-1.77.598-2.633.856l-4.31-2.745a.89.89 0 0 0-1.224.265.876.876 0 0 0 .267 1.215l2.973 1.893c-1.69.42-3.205.699-4.339.793a.882.882 0 0 0-.809.95.882.882 0 0 0 .956.802c1.198-.098 2.8-.396 4.59-.843l-.44.809c-2.637.107-5.588.731-8.398 2.404-1.358-.749-2.639-1.582-3.224-2.095zM9.79 38.606a.893.893 0 0 0-.923-.014c-.024.014-2.533 1.43-3.874.4-.482-.371-.524-1.448-.39-2.422.28.13.607.302.952.533a7.186 7.186 0 0 1 1.37 1.213.889.889 0 0 0 1.245.118.873.873 0 0 0 .122-1.235 8.596 8.596 0 0 0-3.737-2.542c-.703-.838-6.03-7.674.108-15.653 1.253-1.629 2.623-2.855 4.036-3.777l.019-.014c2.76-1.793 5.69-2.41 8.268-2.478a.915.915 0 0 0 .204.025.931.931 0 0 0 .216-.028 20.617 20.617 0 0 1 3.674.323c.061.013.124.04.185.04.007 0 .014-.003.02-.003a19.54 19.54 0 0 1 2.883.764l.773 1.545c-3.932 2.29-8.104 6.517-8.103 14.143 0 4.167.967 7.14 2.314 9.263-4.456 2.767-9.156-.073-9.362-.201zm25.615 3.823a.887.887 0 0 0-.772.5c-.661 1.37-2.14 3.368-3.162 3.312-1.034-.058-2.08-1.406-2.72-2.459a6.988 6.988 0 0 1 1.492-.376c.948-.131 1.827-.002 1.836-.001a.887.887 0 0 0 1.008-.736.88.88 0 0 0-.738-1.002c-.046-.006-1.136-.172-2.35-.001a8.434 8.434 0 0 0-2.363.676c-.049-.011-.098-.026-.149-.03-.233-.014-3.824-.304-6.366-3.702-.018-.03-.024-.065-.046-.093-.02-.026-.048-.038-.07-.061-1.36-1.894-2.393-4.712-2.394-8.913 0-7.234 4.096-11.038 7.764-12.994.039-.013.08-.012.117-.03.045-.022.075-.06.115-.088 2.43-1.252 4.628-1.7 5.254-1.81 1.396.344 12.107 3.36 12.363 14.942.275 12.391-8.45 12.853-8.819 12.866z" fill="#841839"/></svg>