<svg width="72" height="51" fill="none" xmlns="http://www.w3.org/2000/svg"><path d="M71.182 11.086c-.282-.278-.557-.566-.831-.82a2.626 2.626 0 0 0-2.768-.583l-.83.296c-.084-.115-.15-.172-.167-.246a1.803 1.803 0 0 1 0-.468 7.304 7.304 0 0 0-.79-3.89 1.582 1.582 0 0 0-.39-.583 4.88 4.88 0 0 0-2.926-1.23 5.838 5.838 0 0 0-2.602.213c-.306.08-.622.115-.939.107a4.193 4.193 0 0 1 0-1.469 1.515 1.515 0 0 0-.532-1.255 2.517 2.517 0 0 0-3.1-.271 1.834 1.834 0 0 0-1.022 1.846c.091.82.735 1.472 1.562 1.584.26.034.52.054.782.057a.683.683 0 0 1-.117.821 9.71 9.71 0 0 1-.831.82 6.39 6.39 0 0 0-1.596 2.2c-.38.95-.659 1.938-.83 2.946a9.892 9.892 0 0 1-1.248 3.553 1.763 1.763 0 0 1-1.097.976l-1.396-.722a1.802 1.802 0 0 0-1.663 1.584.882.882 0 0 1-.69.738c-.98.32-1.96.673-2.942.993a3.14 3.14 0 0 1-.631.099c-.083-.082-.125-.107-.133-.148a9.694 9.694 0 0 0-2.61-4.447c-.157-.18-.3-.373-.424-.575a8.91 8.91 0 0 0-1.92-1.937 18.766 18.766 0 0 0-3.599-1.837 6.513 6.513 0 0 0-2.926-.485 1.89 1.89 0 0 1-1.28-.197c-.332-.943-.706-1.977-1.064-3.02a8.332 8.332 0 0 0-2.061-3.281 12.213 12.213 0 0 0-2.669-1.79A4 4 0 0 0 21.87.108a1.79 1.79 0 0 1-.831 0 4.953 4.953 0 0 0-2.826.23c-.193.052-.391.087-.59.106-.95.127-1.848.5-2.602 1.083a12.237 12.237 0 0 0-4.563 6.77c-.366 1.329-.607 2.691-.898 4.037-.108.468-.241.607-.715.649a3.208 3.208 0 0 0-1.504.335c-.548.313-1.117.587-1.704.821-.88.379-1.693.89-2.41 1.518a6.882 6.882 0 0 0-1.064.944A10.493 10.493 0 0 0 0 23.108c.044 1.581.341 3.146.88 4.636.152.616.42 1.198.79 1.715a21.16 21.16 0 0 1 2.003 3.069c.25.401.528.785.832 1.149.407.492.831.968 1.263 1.427a24.17 24.17 0 0 0 3.508 3.045l1.953 1.37c.424.295.831.6 1.271.886 2.161 1.42 4.306 2.872 6.367 4.43.54.411 1.056.822 1.596 1.248a76.47 76.47 0 0 0 3.184 2.322c.74.537 1.514 1.025 2.318 1.461a2.225 2.225 0 0 0 2.361 0 14.364 14.364 0 0 0 1.995-1.501c.191-.139.341-.326.432-.542.153-.417.446-.77.831-1.001.193-.135.363-.298.507-.484 1.662-2.388 3.416-4.767 5.078-7.18.94-1.37 1.787-2.806 2.694-4.193a20.754 20.754 0 0 0 2.493-4.858c.241-.755.466-1.51.698-2.264a7.515 7.515 0 0 0 .358-3.775 25.376 25.376 0 0 1 4.987-1.641c.355-.088.73.015.989.271.964.903 1.77.755 2.967.156a1.677 1.677 0 0 1 1.862-.452 7.69 7.69 0 0 1 4.605 2.569 6.048 6.048 0 0 0 3.2 1.96c.424.116.831.173 1.28.288.117 0 .208.156.424.328-.33.033-.657.082-.981.148-.266.092-.527.199-.781.32-.18.39-.162.84.05 1.214.181.401.468.747.83 1.001 1.081.73 1.904.493 2.91-.098a1.875 1.875 0 0 0 .765-2.462c-.117-.279-.266-.558-.382-.82l2.003-1.576a4.266 4.266 0 0 0 1.662-3.282V19.86a5.244 5.244 0 0 0-.632-2.618 4.927 4.927 0 0 1-.216-.615c.532-.28 1.006-.5 1.446-.763a3.455 3.455 0 0 0 1.513-2.191 2.663 2.663 0 0 0-.732-2.585zM56.313 2.39c-.307.14-.374.336-.174.656a.236.236 0 0 1-.014.264.243.243 0 0 1-.252.089.921.921 0 0 1-.826-.594.902.902 0 0 1 .236-.981c.364-.365.87-.556 1.388-.525.518.032.997.282 1.313.688.183.31.231.68.133 1.026a.824.824 0 0 1-.69.78 5.27 5.27 0 0 0-.125-.55 2.942 2.942 0 0 0-.257-.648.553.553 0 0 0-.732-.205zm-5.078 14.327c.082-.18.195-.343.332-.485a11.249 11.249 0 0 0 2.37-4.972c.157-.566.257-1.157.431-1.724a6.625 6.625 0 0 1 1.677-3.025 6.759 6.759 0 0 1 2.986-1.791c.233-.066.466-.131.69-.214a5.708 5.708 0 0 1 3.99.164c.371.109.708.312.973.59.266.279.452.622.54.994.166.649.398 1.28.506 1.937a3.522 3.522 0 0 1-.83 3.093 11.924 11.924 0 0 1-2.079 1.953 1.608 1.608 0 0 1-2.493-.386 1.526 1.526 0 0 1-.218-1.297c.127-.443.448-.807.875-.992.199-.09.54.099.523.32-.017.222-.108.468-.116.698a.506.506 0 0 0 .152.428.518.518 0 0 0 .438.138 2.5 2.5 0 0 0 1.957-1.055 2.435 2.435 0 0 0 .32-2.178 2.88 2.88 0 0 0-.807-1.558 2.949 2.949 0 0 0-1.57-.814l-.232-.065c-1.663-.616-2.901.147-3.965 1.378a5.397 5.397 0 0 0-1.18 2.667c-.183 1.05-.45 2.076-.64 3.127a4.524 4.524 0 0 1-2.145 2.707c-.723.41-1.455.821-2.186 1.198-.399-.295-.416-.566-.299-.837zm13.174-3.2c0 .057-.108.14-.191.221l-.274-.18.282-.279c.033.081.175.147.183.237zM30.664 9.904a2.699 2.699 0 0 1 2.011-.23c1.368.244 2.674.755 3.84 1.502.058 0 .083.123.224.377-1.113-.066-2.094-.164-3.083-.18-.99-.017-1.896.04-2.885.073a1.961 1.961 0 0 1-.099-.467c-.017-.329-.009-.681-.009-1.075zM10.358 11.48a21.636 21.636 0 0 1 1.663-5.424 9.755 9.755 0 0 1 3.823-4.291A8.4 8.4 0 0 1 19.858.747c.757-.04 1.521 0 2.278 0a3.693 3.693 0 0 1 1.845.419l1.73.984a6.747 6.747 0 0 1 3.124 4.03c.224.713.449 1.427.723 2.125.28.955.365 1.957.25 2.946a3.411 3.411 0 0 1-1.903-1.002 1.635 1.635 0 0 1-.374-.722 9.58 9.58 0 0 0-1.139-2.847 8.099 8.099 0 0 0-4.355-3.709 2.53 2.53 0 0 0-1.056-.148 7.54 7.54 0 0 0-4.422 1.6 4.463 4.463 0 0 0-1.662 2.782 44.169 44.169 0 0 0-.832 5.613 19.649 19.649 0 0 1-.332 2.273c-.174.06-.357.09-.54.09a3.261 3.261 0 0 1-2.22-1.252 3.179 3.179 0 0 1-.615-2.449zm13.947 3.8a4.3 4.3 0 0 0 .374-.394 9.625 9.625 0 0 1 2.112-2.068c.1-.066.224-.14.257-.238a.724.724 0 0 0 0-.419c0-.049-.24-.066-.316 0a6.674 6.674 0 0 0-.648.526l-.598.525c-.757-.615-.931-.648-1.605-.164-.448.328-.831.706-1.288 1.05a.427.427 0 0 1-.632-.066.426.426 0 0 1 0-.632 11.27 11.27 0 0 1 1.24-.919c.913-.558 1.845-1.091 2.784-1.64a1.402 1.402 0 0 1 1.761.164c.432.401 1.09.5 1.496 1.091-.831.583-1.72 1.124-2.494 1.724-.772.599-1.604 1.288-2.493 2.002-.59-.09-.94-.632-1.396-1.092a2.883 2.883 0 0 1 1.62-1.33c.192-.014.383.005.566.058-.175.689-.898 1-.881 1.64-.017.091.041.108.141.182zm-8.81-1.133a2.159 2.159 0 0 1-.474-.05.387.387 0 0 1-.191-.27c0-.09.1-.263.166-.27.67-.081 1.345-.108 2.02-.083 1.031.082 2.053.288 3.076.41.69.075 1.072.625 1.604.822.05.352-.058.558-.366.525a1.233 1.233 0 0 1-.981-.362 1.339 1.339 0 0 0-1.155-.41l-3.699-.312zm2.8.739l-.04.172-2.594.386c-.15.047-.308.064-.465.05a.89.89 0 0 1-.482-.28c-.125-.131.083-.386.399-.468.19-.05.385-.08.581-.09.2-.012.4-.012.599 0l2.003.23zm2.835-1.51c-1.038-.148-2.102-.303-3.166-.427-1.064-.123-2.036-.188-3.05-.278a2.55 2.55 0 0 1-.06-.42c.084-.902.15-1.805.275-2.7.1-.746.274-1.476.399-2.215.157-.979.69-1.86 1.488-2.461a5.428 5.428 0 0 1 4.588-1.182c.932.227 1.79.684 2.494 1.33a7.732 7.732 0 0 1 2.576 4.037c.038.195.06.392.067.59l-2.244 1.223a10.688 10.688 0 0 0-3.367 2.503zM10.45 38.403a26.306 26.306 0 0 1-4.821-4.054c-1.779-1.928-2.86-4.25-4.023-6.564a6.755 6.755 0 0 1-.29-1.018c-.15-.484-.117-1.026-.5-1.436a.52.52 0 0 1-.132-.32 9.74 9.74 0 0 1-.15-2.938 4.9 4.9 0 0 0 .1-.705 7.726 7.726 0 0 1 4.015-5.974c.79-.459 1.602-.878 2.435-1.255a5.118 5.118 0 0 1 2.585-.468l.881 1.042c-.648.493-1.255.92-1.828 1.395a6.292 6.292 0 0 0-1.439 1.526c.2.238.324.09.432 0l1.321-1.206c.175-.156.374-.295.566-.435.989-.73 1.995-.96 3.075 0a3.595 3.595 0 0 1-.448.492c-.582.427-1.164.821-1.77 1.23v.002c-.477.29-.89.672-1.214 1.124-.49.713-1.106 1.329-1.546 2.092a22.935 22.935 0 0 0-1.779 4.25c-.144.333-.144.71 0 1.043.249.577.422 1.184.516 1.805.084.348.224.68.415.984a31.248 31.248 0 0 0 2.493 3.874c.482.574.981 1.14 1.471 1.706l.707.821c-.997.18-1.405 0-1.746-.624-.124-.238-.166-.541-.59-.541l-.2.624h.001a.576.576 0 0 1-.224.057 1.538 1.538 0 0 1-1.222-.82 6.663 6.663 0 0 1-.898-2.175 1.338 1.338 0 0 0-.124-.452.368.368 0 0 0-.292-.123.357.357 0 0 0-.199.246 1.7 1.7 0 0 0 .092.575c.2.55.415 1.1.623 1.64l-.307.65c.083.114.132.253.224.287v-.001c.68.33 1.286.793 1.779 1.362.476.422.984.806 1.52 1.149.413.248.712.646.832 1.108-.208.008-.3.05-.341.025zm-.915-2.24h-.29c-.075 0-.133-.156-.2-.238-.067-.082.1-.165.133-.156a.507.507 0 0 1 .29.114c.06.058.043.181.067.28zm2.303 1.19c-.05.057-.05.155-.092.221-.042.066-.1.107-.174.189-.964-.131-.997-.944-1.297-1.64v-.002a3.826 3.826 0 0 1 2.236.329 4.243 4.243 0 0 1 1.878 1.928h-.831a1.047 1.047 0 0 1-1.147-.82.649.649 0 0 0-.1-.205.3.3 0 0 0-.474 0zm.49 1.797c.356.193.61.528.698.919-.83-.247-.84-.271-.698-.92v.001zm.89-.205c.839-.052 1.68.029 2.493.238.228.064.444.164.64.295l2.884 2.06c.123.112.234.236.333.369a6.036 6.036 0 0 1-3.707-1.19c-.399-.05-.832.254-1.255 0a3.46 3.46 0 0 1-1.388-1.773v.001zm1.836 2.65c.083-.303.316-.237.474-.172.399.157.681.514.74.935a2.607 2.607 0 0 1-1.214-.763zm5.087 3.636v-.001a9.45 9.45 0 0 1-.831-.517 3.682 3.682 0 0 1-.673-.484c-.183-.197-.274-.468-.44-.681-.167-.214-.425-.468-.616-.714a6.195 6.195 0 0 1-.332-.542 3.226 3.226 0 0 1 1.496.173.545.545 0 0 1 .36.278c.075.14.083.305.022.452a.659.659 0 0 0 .35.886 5.5 5.5 0 0 1 1.437 1.428c-.382.131-.548-.164-.773-.28v.002zm-.182-2.806s.041-.058.108-.14a6.299 6.299 0 0 1 1.97 1.764s-.067.114-.125.196c-.258-.073-.524-.13-.782-.221-.972-.312-1.113-.509-1.171-1.6zm5.942 6.81a8.146 8.146 0 0 1-2.535-1.888c.291-.337.74.164.981-.254-.083-.279-.349-.304-.548-.386-.516-.221-1.04-.418-1.546-.648a1.642 1.642 0 0 1-.981-1.305 4.487 4.487 0 0 1 2.626.706c.907.698 1.862 1.346 2.801 2.019.104.056.2.128.282.213.233.262.366.632.748.73.383.098.599.106.915.156-.956 1.017-1.704 1.165-2.743.656v.001zm3.94-2.322c-.25-.369-.191-.673.092-.82.282-.148.523 0 .706.237-.125.36-.457.459-.798.582v.001zm1.53-1.273c-.325.18-.59 0-.832-.172a.523.523 0 0 1-.224-.607c.1-.328.224-.649.366-1.034 1.213.361 1.28.574.69 1.813zm.897-4.455a4.608 4.608 0 0 1-.424 2.313l-.897-.418c.023-.941.134-1.877.332-2.798.922.057 1.022.148.989.91v-.007zm1.47 1.576c-.29.426-.606.82-.93 1.23-.058.066-.208.057-.391.099.03-1.015.192-2.022.483-2.996.499 0 .831.173.964.534.15.377.103.803-.124 1.14l-.001-.007zm2.378-3.282c-.366.41-.673.87-1.022 1.296a.83.83 0 0 1-.282.155c-.058-.074-.15-.14-.142-.189.224-1.264.466-2.527.732-3.938l1.006.344c.058.156.108.263.141.37a1.944 1.944 0 0 1-.432 1.961zm2.378-3.579c-.316.534-.698 1.034-1.047 1.543l-.258-.066a8.13 8.13 0 0 1-.05-1c0-.665.066-1.33.116-1.995 0-.098.133-.18.225-.312.15.02.297.053.44.099 1.122.46 1.205.68.574 1.731zm1.139-2.076l-.25-.066V32.24c.028-.242.081-.481.158-.713.456-.095.928.07 1.222.427a7.562 7.562 0 0 1-1.122 1.87h-.008zm3.1-8.041c-.31 1.79-.82 3.54-1.521 5.219 0 .066-.1.115-.15.172-.947 0-1.097-.09-1.811-1.05h-.001c-.243.1-.496.175-.756.221-.233 0-.474-.074-.715-.074a.34.34 0 0 0-.241.205.383.383 0 0 0 .141.288c.14.072.287.128.44.164.69.221.758.287.774.984.017.698 0 1.182 0 1.764a.99.99 0 0 1-1.139-.254 2.109 2.109 0 0 0-1.505-.582c-.257.196-.216.401 0 .582.217.18.316.23.491.353.093.883.02 1.776-.216 2.634a.95.95 0 0 1-1.006-.509c-.19-.41-.548-.41-.889-.468-.092 0-.282.058-.3.123-.016.066 0 .353.043.41h-.001c.375.315.547.805.449 1.28a10.968 10.968 0 0 1-.798 3.472c-.881 0-1.155-.608-1.255-1.412l-.765.37-1.205-.411c0 .615 0 1.149-.075 1.641s-.225 1.058-.332 1.535c-.474.189-.64-.246-.948-.255v.001a.393.393 0 0 0-.299.131.323.323 0 0 0 0 .328c.258.238.549.443.832.69h-.001a1.52 1.52 0 0 1-.399 1.526 7.483 7.483 0 0 0-.773-.328.324.324 0 0 0-.307.098.308.308 0 0 0 0 .304c.224.213.474.41.74.631.141.567-.3 1.034-.25 1.51-.42.455-1.13.499-1.604.099-.538-.34-1.057-.71-1.554-1.108-1.097-.91-2.17-1.855-3.267-2.774a38.537 38.537 0 0 0-2.045-1.641c-1.088-.82-2.235-1.526-3.324-2.355a36.192 36.192 0 0 1-4.272-3.43c-.732-.779-1.563-1.46-2.328-2.215a9.714 9.714 0 0 1-.914-1.14 24.246 24.246 0 0 1-2.494-4.284 4.784 4.784 0 0 1-.357-3.225c.331-1.26.81-2.477 1.43-3.627a10.501 10.501 0 0 1 4.605-4.52 6.78 6.78 0 0 1 1.92-.633 27.474 27.474 0 0 1 4.596-.475 9.687 9.687 0 0 1 3.324.607c.49.164.964.369 1.463.558a.99.99 0 0 0 .765-.476c.362-.571.827-1.071 1.372-1.477a16.724 16.724 0 0 1 3.823-2.462 6.954 6.954 0 0 1 2.335-.484 19.05 19.05 0 0 1 2.161-.05c.762.016 1.51.195 2.195.526.862.34 1.696.746 2.493 1.214a6.925 6.925 0 0 1 2.851 3.545c.167.476.366.944.582 1.493a4.028 4.028 0 0 1-.557.296c-4.696 1.641-9.4 3.282-14.039 5.128-.14.022-.283.022-.424 0a2.98 2.98 0 0 0-1.285-.888 3.025 3.025 0 0 0-1.565-.121c-.485.018-.95.2-1.313.517a3.403 3.403 0 0 0-1.314 2.798c.014.71.094 1.415.241 2.109.228.836.506 1.658.831 2.462.192.525.407 1.033.64 1.534a5.216 5.216 0 0 1 .192 3.48 9.604 9.604 0 0 0-.266 1.271.81.81 0 0 0 .193.714.835.835 0 0 0 .696.271c.48-.002.957-.063 1.422-.18a29.98 29.98 0 0 1 3.49-.821c.178-.037.347-.107.5-.205a.58.58 0 0 0 .306-.706c-.1-.29-.236-.565-.407-.82a29.21 29.21 0 0 0-1.155-1.519 4.517 4.517 0 0 1-.74-3.815 1.714 1.714 0 0 1 1.197-1.346c3.117-1.132 6.201-2.338 9.31-3.479 1.155-.426 2.352-.738 3.532-1.099.14-.025.282-.03.424-.017.197.469.229.988.09 1.477h-.007zm-15.876-1.33a.887.887 0 0 1-.83.329 6.27 6.27 0 0 1-1.09-.361c-.066 0-.091-.197-.091-.296a.232.232 0 0 1 .142-.164 1.796 1.796 0 0 1 1.87.345v.147zm-2.8-.057c0 .82-.083.952-1.09 1.748.209-.87.433-1.428 1.123-1.748h-.034zm1.33 10.577c-.167-.14-.283-.189-.317-.27-.033-.083.075-.427.242-.411.166.016.174.074.174.106-.008.132-.058.296-.1.575zm0 1.748c-.108.27 0 .657-.367.82-.232.083-.324-.336-.182-.877a3.88 3.88 0 0 1 .174-.477c.391.05.457.271.358.5l.016.034zm-.424-4.365c-.424-.328-.441-.32-.599-1.018a.75.75 0 0 1 .831-.468c.092.82.092.82-.25 1.453l.018.032zm1.853 4.791l-.914.37c.124-.854.232-.903.897-.402l.017.032zm-.623-2.56a.583.583 0 0 1 .182-.246s.117 0 .183.05a2.141 2.141 0 0 1-.09.303c0 .057-.109.099-.225.197-.05-.197-.092-.28-.067-.337l.017.033zm.407 1.42c.148-.528.466-.995.906-1.33a.839.839 0 0 1 1.08 0c.513.492.933 1.07 1.239 1.707a3.043 3.043 0 0 0-.616.19c-1.072.607-1.861.163-2.626-.6l.017.033zm.399-3.233a.312.312 0 0 1 .316 0c.296.311.412.75.307 1.165a8.443 8.443 0 0 1-.765-.607.44.44 0 0 1 .125-.59l.017.032zm-.274-3.726c1.063-1.1 1.32-1.19 2.426-.944v.001a1.82 1.82 0 0 1-.282.345 1.309 1.309 0 0 1-.44.18c-.583.115-1.156.247-1.721.386l.017.032zm.69.714c.103.646-.19 1.29-.748 1.642a.726.726 0 0 1-.489-.28.71.71 0 0 1-.135-.541.632.632 0 0 1 .266-.468 7.047 7.047 0 0 1 1.089-.386l.016.033zM26.4 32.388l-.432.377c-.066-.082-.207-.189-.19-.246a.651.651 0 0 1 .265-.328s.158.058.34.164l.017.033zm4.273-4.8c.34-.541.34-.541.831-.303-.158.303-.441.245-.831.303zm4.604-1.773c0-.336.192-.467.474-.509.1 0 .208.058.316.099-.05.123-.067.295-.158.361s-.4.181-.632.017v.032zm4.513-1.813c.117-.148.266-.345.424-.377.158-.033.573-.041.598.443l-1.03.328c0-.23-.042-.361.008-.427v.033zm3.608-.82c.506-.822.54-.822 1.055-.386-.208.312-.582.222-1.055.345v.04zm4.048-1.141c-.308.073-.624.098-.94.147-.083-.45.316-.55.466-.82.15-.271.141-.313 0-.419a.347.347 0 0 0-.325 0c-.25.205-.465.436-.698.65a3.18 3.18 0 0 1-.548.458.478.478 0 0 1-.582-.082c-.167-.55.69-.648.39-1.181-.498-.066-.59.476-.939.607-.318.1-.643.179-.972.238-.192.352 0 .902-.466 1.214a6.763 6.763 0 0 0-1.014.911l-.89-.69c.043-.139.043-.278.109-.352.257-.295.548-.574.831-.82 0-.28-.207-.362-.382-.239-.449.328-.831.698-1.246 1.026l-1.18-.156c-.258.5.298.542.356.821a.638.638 0 0 1-.058.221c-.24.32-.49.624-.723.944a1.913 1.913 0 0 1-1.247.648c-.448.082-.731-.221-1.097-.5.085-.174.188-.34.308-.493.207-.238.456-.443.673-.673.216-.23.157-.295 0-.41a.378.378 0 0 0-.324 0 1.977 1.977 0 0 0-.474.353c-.224.222-.432.46-.615.649-.424.221-.79-.378-1.214.065l.449.821c-.349.451-.698.927-1.089 1.37a1.983 1.983 0 0 1-1.388.607 1.04 1.04 0 0 1-.955-.55c.191-.213.399-.435.582-.665.13-.146.242-.309.332-.484a.566.566 0 0 0-.133-.287c-.066-.074-.174 0-.224 0-.126.094-.24.201-.342.32-.266.288-.515.583-.79.903a30.737 30.737 0 0 0-1.18-.336c-.075 0-.2.098-.257.18-.058.082 0 .164 0 .205.224.213.466.41.732.64-.208.262-.366.492-.549.68v.001a.529.529 0 0 1-.665.107c-.232-.123-.424-.41-.665-.435a1.521 1.521 0 0 1-.748-.27.405.405 0 0 0-.407 0c-.083.08-.075.27-.075.418.008.113.025.226.05.336-.698.607-1.372 1.215-2.07 1.797a2.846 2.846 0 0 1-1.446.591 3.951 3.951 0 0 1-.914-2.462c0-.32.274-.68.582-.624a2.222 2.222 0 0 0 1.662-.574c.238-.143.485-.272.74-.386.141-.065.357-.065.432-.172.432-.607 1.138-.689 1.762-.919 1.537-.558 3.058-1.14 4.571-1.773 1.355-.574 2.76-1.017 4.156-1.526l7.422-2.691a87.38 87.38 0 0 1 2.826-.96c.204-.03.412-.03.615 0 .324 1.24.59 2.462.898 3.71-.44.065-.773.188-1.113.27v.04zm3.657.574a1.397 1.397 0 0 1-1.563-.582 3.989 3.989 0 0 1-.465-1.01 9.55 9.55 0 0 1-.516-3.282 4.96 4.96 0 0 1 0-.935.756.756 0 0 1 .429-.602.773.773 0 0 1 .743.044c.413.156.71.52.773.951.241 1.108.565 2.2.831 3.282v.001c.101.498.174 1.003.217 1.51a.535.535 0 0 1-.45.583v.04zm.432-3.971a24.224 24.224 0 0 1 2.585-1.723 5.091 5.091 0 0 0 2.31-2.626 9.8 9.8 0 0 0 .35-1.403c.182-.821.39-1.7.498-2.552a3.26 3.26 0 0 1 .765-1.707l.224-.27c1.296-1.47 1.662-1.494 3.59-1.059a2.177 2.177 0 0 1 1.562 1.42 2.138 2.138 0 0 1-.398 2.06c0 .056-.132.065-.282.13l-.274-.558a1.468 1.468 0 0 0-1.123-.82 1.002 1.002 0 0 0-.581.065 2.546 2.546 0 0 0-1.438 2.048 2.53 2.53 0 0 0 1.022 2.277c.233.14.449.312.79.55-.208.278-.357.46-.482.656a2.7 2.7 0 0 0-.191 2.462c.288.683.888 1.19 1.616 1.367.728.177 1.498 0 2.074-.473.216-.18.382-.41.582-.6v.001a.484.484 0 0 1 .731 0c.74.706 1.197 3.102.332 4.226-1.072 1.387-1.928 1.412-3.324.944a4.079 4.079 0 0 1-1.213-.73c-.657-.518-1.272-1.093-1.879-1.642a4.798 4.798 0 0 0-2.601-1.264 7.693 7.693 0 0 1-1.047-.23 5.559 5.559 0 0 0-3.192 0c-.224.067-.457.091-.74.148l-.266-.697zm14.13 10.667a2.379 2.379 0 0 1-1.446.764 1.658 1.658 0 0 1-1.547-1.223.397.397 0 0 1 .374-.378c.325.028.594.26.665.575a.427.427 0 0 0 .648.262.552.552 0 0 0 .325-.771 2.944 2.944 0 0 0-.266-.386 6.946 6.946 0 0 1-.316-.426c.289-.123.594-.203.906-.238.23.036.442.149.599.32.368.396.39.998.05 1.42l.008.081zm3.498-9.92v2.839h.001c0 .64-.239 1.256-.674 1.73a6.321 6.321 0 0 1-2.734 2.05 6.406 6.406 0 0 1-3.416.339 5.28 5.28 0 0 1-2.942-1.486l-.075-.081a9.58 9.58 0 0 0-4.364-2.799 9.132 9.132 0 0 0-2.552-.394c-.141-.435-.257-.762-.349-1.107a.445.445 0 0 1 .031-.345.456.456 0 0 1 .269-.221 2.93 2.93 0 0 1 1.155-.23c1.18.155 2.36.369 3.533.615a4.256 4.256 0 0 1 1.753.993c.49.394.923.87 1.397 1.28a5.635 5.635 0 0 0 3.906 1.543c.198.012.397-.019.582-.09a3.955 3.955 0 0 0 2.269-2.873 5.445 5.445 0 0 0-.332-2.797 3.163 3.163 0 0 0-.832-1.125 8.69 8.69 0 0 0-2.834-1.502.847.847 0 0 0-.465 0 .387.387 0 0 0-.217.239.4.4 0 0 0 .092.32c.12.1.263.173.416.213.527.112.937.52 1.047 1.042a1.015 1.015 0 0 1-.832.886 1.675 1.675 0 0 1-1.529-.492 1.955 1.955 0 0 1 .432-3.061 3.071 3.071 0 0 1 3.192-.156c.79.46 1.538.977 2.294 1.486.113.11.21.234.29.369.176.26.368.51.575.746.556.528.882 1.25.905 2.011l.008.058zm1.929-5.072c-.2.246-.382.5-.582.755-.345.462-.869.759-1.446.821a2.968 2.968 0 0 1-2.244-.894c-.533-.534-1.03-1.101-1.488-1.699a.755.755 0 0 1 0-.984 4.512 4.512 0 0 1 2.884-1.962 2.433 2.433 0 0 1 1.704.402c.526.294.963.722 1.263 1.24a1.989 1.989 0 0 1-.1 2.264l.009.057z" fill="#841839"/><path d="M15.286 23.748a5.544 5.544 0 0 1-.69-.32 1.974 1.974 0 0 1-.424-.41l-.44-.51c-.2.608-.358 1.125-.524 1.642h-.79c.108.582.499 1.042.382 1.64a6.406 6.406 0 0 1-.374 1.478c-.332.254-.623-.197-.831.155 0 .444.457.591.682.895.224.303.473.534.706.82.233.288.482.633.757.912.274.278.407.623.897.656-.316-.46-.615-.87-.889-1.296a1.18 1.18 0 0 1 .307-1.519c.432 0 .607.763 1.222.394-.416-.492-1.006-.82-1.08-1.576.113-.466.338-.9.656-1.263.183.213.341.377.474.558.257.345.498.706.764 1.05.083.107.208.28.432 0-.316-.558-.615-1.148-.972-1.714a1.625 1.625 0 0 1-.265-1.592zm-2.111 4.71c-.732-.583-.74-.69-.125-2.01.125.081.3.14.34.238a1.818 1.818 0 0 1-.216 1.771zm.681-2.642c-.582-.583-.582-.583 0-1.863.715.664.706.927 0 1.862zM9.442 14.46v-.197c-.14-.01-.281.007-.415.049a14.255 14.255 0 0 0-3.6 2.527s.05.123.1.255a18.044 18.044 0 0 0 1.913-1.395l2.002-1.24zM69.246 11.948c-.499-.665-.748-.738-1.496-.541a1.929 1.929 0 0 0-1.297 1.124 1.016 1.016 0 0 0 .3 1.444c.427.3.95.43 1.47.369h.358c.473.02.915-.234 1.131-.65a1.187 1.187 0 0 0-.125-1.286c-.1-.165-.25-.304-.341-.46zm-.382 1.641c-.471.228-1.029.191-1.464-.098-.216-.147-.365-.352-.24-.59V12.9c.12-.191.282-.354.474-.476.074-.057.224 0 .415 0 .252.016.502.052.748.107.248.038.42.263.39.508a.82.82 0 0 1-.348.6l.025-.05z" fill="#841839"/></svg>