<svg width="62" height="60" fill="none" xmlns="http://www.w3.org/2000/svg"><path d="M61.903 21.391a28.076 28.076 0 0 0-1.893-9.655c-.232-.515-.169-.933.423-1.534a1.682 1.682 0 0 1-1.682-1.17 8.443 8.443 0 0 0-1.744-2.563c-1.058-1.073-2.179-2.146-3.173-3.304A7.826 7.826 0 0 0 50.058.696a12.522 12.522 0 0 0-9.042.311l-.444.204h-.001c-2.2.8-4.144 2.191-5.626 4.023-.359.482-.709.976-1.058 1.47-.518.761-1.058 1.534-1.533 2.338-.54-.129-1.005-.268-1.481-.332a5.91 5.91 0 0 0-1.438-.118c-1.396.107-2.792.267-4.23.428v.001a4.572 4.572 0 0 0-2.55.976c-.542.453-1.11.872-1.702 1.256a20.194 20.194 0 0 0-5.796 6.275 19.097 19.097 0 0 0-2.368 6.78c-.117.537-.17 1.074-.254 1.631-.085.558-.159 1.17-.244 1.781-1.058.204-1.966.354-2.908.59a8.428 8.428 0 0 0-4.59 2.617c-.38.451-.761.913-1.11 1.395a18.306 18.306 0 0 0-2.57 4.549c-.9 2.6-1.26 5.361-1.058 8.11a16.79 16.79 0 0 0 1.163 4.946 41.592 41.592 0 0 0 2.306 4.387c.137.236.325.438.55.59a10.403 10.403 0 0 0 2.993 1.888c2.317.74 4.632 1.47 7 2.028h.329c2.686.333 5.372.633 8.048 1.073 1.234.16 2.485.139 3.712-.065.529-.086 1.058-.086 1.618-.129.65-.006 1.297-.067 1.936-.182 1.002-.226 2.03-.32 3.056-.278a5.5 5.5 0 0 0 1.428-.226 73.927 73.927 0 0 0 3.469-.836c.836-.225 1.66-.493 2.475-.762.814-.268 1.534-.547 2.305-.804v-.001c.265-.047.526-.111.783-.193a45.574 45.574 0 0 0 5.954-3.316c.476-.332.423-.88.793-1.19.456-.284.885-.61 1.28-.976.242-.423.4-.889.465-1.373a5.44 5.44 0 0 0 .085-.923 5.801 5.801 0 0 1 2.295-.365.97.97 0 0 0 .836-.418c.41-.577.792-1.175 1.142-1.792.814-1.491 1.565-3.003 2.368-4.495a31.495 31.495 0 0 0 2.517-7.101c.098-.8.439-1.55.973-2.146-.137-.472-.465-.762-.402-1.276.454-3.197.578-6.433.37-9.656zm-1.883-5.696c.29.625.394 1.322.297 2.006a29.731 29.731 0 0 1-1.206 8.11c-.667 2.264-1.312 4.528-2.179 6.716-.31.701-.663 1.382-1.057 2.038a170.06 170.06 0 0 1-2.4 4.291h-.001a4.27 4.27 0 0 1-1.618 1.953c-.406.26-.866.417-1.343.461-2.115.043-4.23.072-6.346.086a2.601 2.601 0 0 1-.645-.13c0-.257-.064-.31 0-.353a14.059 14.059 0 0 0 1.058-6.726 31.27 31.27 0 0 0-.868-6.019 4.237 4.237 0 0 1-.137-.815c-.085-1.244-.159-2.499-.244-3.776a28.808 28.808 0 0 1 8.408-4.796c1.65-.686 3.268-1.459 4.908-2.145a21.868 21.868 0 0 1 2.305-.794c.352-.075.71-.114 1.068-.118v.01zM40.983 33.138c-.465-1.791-.772-3.636-1.173-5.45a27.065 27.065 0 0 0-.55-2.06 4.648 4.648 0 0 1-.349-2.091l2.264-1.502c.19.203.338.3.39.44a13.328 13.328 0 0 1 1.185 4.742c.008.767.108 1.53.296 2.274.74 3.041.847 6.204.317 9.29a5.301 5.301 0 0 1-.92 2.071.4.4 0 0 1-.666-.096c-.1-.194-.16-.405-.18-.623a13.738 13.738 0 0 1 0-1.48 18.074 18.074 0 0 0-.613-5.525v.01zm-1.5 6.705a1.999 1.999 0 0 1-1.397.912c.212-1.974 1.058-3.82.951-5.782-.105-1.963-.105-3.82-.148-5.728l.2-.065c.18.676.382 1.341.53 2.028.37 1.706.719 3.412 1.058 5.129v-.002c.062.434.087.871.074 1.309.028.215 0 .433-.085.633-.422.547-.824 1.062-1.184 1.566zm.877.644a1.879 1.879 0 0 1-.127.247 1.06 1.06 0 0 1-.116-.247.2.2 0 0 1 .116-.075.232.232 0 0 1 .084.075h.043zm-8.059 6.952a1.784 1.784 0 0 0 .554 1.385c.378.355.892.524 1.403.46a15.729 15.729 0 0 0 5.224-1.073c.343-.19.666-.418.962-.676l3.374.537c-.296.343-.402.611-.603.697-3.225 1.406-6.43 2.886-10.037 3.068-1.776.086-3.564.408-5.34.376-2.052 0-4.104-.075-6.156-.257v-.001a59.878 59.878 0 0 1-8.724-1.792 8.284 8.284 0 0 0-3.015-.503 11.09 11.09 0 0 1-5.457-3.09A2.428 2.428 0 0 1 4 45.229c.009-.597.066-1.193.169-1.781a7.311 7.311 0 0 1 1.248-3.219 19.753 19.753 0 0 1 5.954-5.965 3.3 3.3 0 0 1 2.22-.74l2.624 2.886c.095.666-.634 1.074-.761 1.685s-.095 1.18-.148 1.824c-.635-.193-1.227-.408-1.84-.558h-.001a3.946 3.946 0 0 0-2.928.191 4.035 4.035 0 0 0-2.011 2.169 22.717 22.717 0 0 0-.814 1.974 1.89 1.89 0 0 0 .158 1.576 4.43 4.43 0 0 0 1.583 1.735 4.337 4.337 0 0 0 2.236.668c1.185.107 2.378.107 3.563 0a1.698 1.698 0 0 0 1.418-1.212c.234-.728.39-1.48.465-2.242a2.806 2.806 0 0 0-.285-1.072c-.18-.505-.381-1.01-.72-1.878 2.177.709 4.523.683 6.684-.075l1.64 1.073c-.19.6-.625.472-.974.525a5.283 5.283 0 0 0-3.786 2.532 7.32 7.32 0 0 0-.824 2.307c-.19.858.433 1.416 1.057 1.92.212.172.457.296.72.365 2.45.77 5.085.69 7.487-.225.535-.196.856-.752.761-1.32a6.663 6.663 0 0 0-1.195-4.195 2.722 2.722 0 0 1-.254-.6c.222-.055.413-.183.518-.13 1.417.634 3.173.548 4.379 1.856-.085.601-.095 1.363-.085 2.136h.043zm1.153-1.577a.7.7 0 0 1 .57-.172c.482.135.954.296 1.418.483l-1.777 1.705c-.19-.247-.434-.429-.465-.633a1.474 1.474 0 0 1 .212-1.383h.042zM36.12 47.9c.18-.59.285-.933.412-1.373.65.053 1.275.283 1.808.665-.603.687-1.312.611-2.263.708h.043zM7.15 35.703c.254-.547.36-.569 1.808-.837a6.07 6.07 0 0 1-1.724 1.739c-.465-.333-.2-.666-.084-.902zm3.448-3.304c.244.665 0 1.073-.39 1.63h-.002c-.262-.569-.1-1.247.391-1.63h.001zm1.808 10.728a.647.647 0 0 0-.592 0c-.442.39-.845.82-1.205 1.287-.286.386-.381.913-.92 1.148l-1.206-1.073c.18-.557.328-1.137.54-1.695h-.001c.149-.412.359-.8.624-1.147.285-.471.69-.855 1.171-1.112a2.995 2.995 0 0 1 1.568-.347 3.51 3.51 0 0 1 1.884.673c.551.404.977.96 1.226 1.6a4.88 4.88 0 0 1 .21 3.348c-.105.332-.253.644-.602.708a7.545 7.545 0 0 1-3.998.086 2.534 2.534 0 0 1-.423-.279 1.535 1.535 0 0 1 1.058-1.18c.544-.277.905-.822.952-1.438a.648.648 0 0 0-.286-.568v-.01zm6.81-3.84c-.39-.344-.792-.14-1.194 0-.184.109-.384.19-.593.236a.748.748 0 0 1-.803-.397.791.791 0 0 1 0-1.073c.11-.118.23-.226.36-.322.168-.129.348-.236.56-.386a26.409 26.409 0 0 1 3.48 2.467c0 .461-.233.537-.487.601-.254.064-.825.29-1.237 0 0 0 0-.097-.074-.14-.138-.257.36-.643-.011-.976v-.01zm6.347 4.677c.56.196 1.055.546 1.429 1.013a3.24 3.24 0 0 1 .686 1.626c.047.635.047 1.274 0 1.91-2.115 1.073-4.125 1.212-5.436.45 0-.944 1.058-.762 1.353-1.427a1.333 1.333 0 0 0-1.057-.772 1.62 1.62 0 0 0-1.227.3c-.338.258-.709.461-1.058.72a2.273 2.273 0 0 1 .656-2.618c1.364-1.127 2.823-1.91 4.622-1.192l.032-.01zM25.3 42.59h.095v.086l-.095-.086zm2.115-7.113h-.001a8.89 8.89 0 0 1-.623.934l-1.354-1.18a.945.945 0 0 0-.91.804c0 .118 0 .247.127.311.369.318.758.612 1.163.88.526.282.91.777 1.058 1.362.369 1.022.569 2.099.592 3.187a2.903 2.903 0 0 1-2.422-.72c.027-.428.027-.858 0-1.287a1.655 1.655 0 0 0-.296-.89 5.715 5.715 0 0 1-.994-2.231c-.232-.73-.37-1.48-.571-2.318.149-.26.319-.508.508-.74.73-.88 1.48-1.75 2.231-2.607.286-.333.55-.666 1.058-.622.212-.016.417-.09.592-.215l7.402-4.43c.508-.312 1.058-.558 1.64-.88.512.5.785 1.2.752 1.92-.403.3-.783.601-1.174.88h-.001A82.552 82.552 0 0 0 29.255 33a6.763 6.763 0 0 0-1.893 2.489l.053-.011zm9.074-11.458l-3.3 1.878c-.37-.268-.074-.386 0-.526.074-.139.222-.235.317-.375s.402-.547.117-.87c-.286-.32-.582-.17-.857.14-1.914 2.146-4.378 3.55-6.726 5.107-.141.052-.287.092-.434.118a9.976 9.976 0 0 1-3.353-3.348 2.311 2.311 0 0 1-.233-.944c.004-.259.033-.518.085-.772a19.353 19.353 0 0 1 5.14-2.532c1.681-.386 3.278-1.073 5.002-1.383l2.57-.365a.927.927 0 0 1 1.058.536 3.51 3.51 0 0 1 .539 1.866c0 .43.021.87.021 1.481l.054-.01zm9.645-8.904c.063.075.211.15.275.118.24-.105.471-.234.687-.386 1.248-.965 2.486-1.93 3.744-2.885.24-.16.495-.297.761-.408.223.139.43.304.613.494.236.203.37.501.37.815 0 .313-.134.611-.37.815a8.436 8.436 0 0 1-1.639 1.566 58.416 58.416 0 0 1-7.244 4.291c-.244.107-.508.183-.73.258l-2.506-2.146c.666-1.073 1.205-2.06 1.787-2.971.376-.601.793-1.174 1.248-1.717.71-.837 1.46-1.62 2.2-2.414.76-.812 1.64-1.496 2.612-2.027a3.52 3.52 0 0 1 3.818.311c.117.075.17.268.286.46a10.749 10.749 0 0 1-2.697 2.769c-.751.537-1.534 1.073-2.264 1.577a9.62 9.62 0 0 0-1.057 1.17s0 .246.053.321l.052-.011zm-5.51 4.238a.984.984 0 0 1 .212 1.642 2.626 2.626 0 0 1-2.688 1.072 1.547 1.547 0 0 1-1.02-.823 1.585 1.585 0 0 1-.037-1.323 3.395 3.395 0 0 1 1.735-1.48c.655.3 1.248.569 1.797.912zm-1.809 8.528l-.275.097-.116-.622h.169c.095.15.159.332.222.525zm-9.444 6.244a47.34 47.34 0 0 1 7.562-6.2c.196-.088.402-.153.613-.193.096.236.17.48.222.73.2 1.63.497 3.218.55 4.913a22.616 22.616 0 0 1-.867 6.168c-.223.869-.561 1.073-1.428.826a9.384 9.384 0 0 1-.92-.333 25.018 25.018 0 0 0-3.966-1.416 7.962 7.962 0 0 1-3.099-1.791 4.746 4.746 0 0 1 1.333-2.704zm29.422-23a6.683 6.683 0 0 1 1.058 3.476 105.78 105.78 0 0 0-17.07 7.864 2.412 2.412 0 0 1-.296-.88.897.897 0 0 1 .487-.58c.836-.396 1.702-.707 2.548-1.072a2.25 2.25 0 0 0 .962-.58c1.058-1.512 2.813-2.145 4.23-3.218.645-.493 1.312-.966 1.935-1.48h.001c.49-.35.86-.844 1.058-1.416.145-.352.387-.654.698-.869a9.004 9.004 0 0 1 4.389-1.244zm-43.203 7.22a17.292 17.292 0 0 1 3.797-4.88c2.337-2.072 4.98-3.692 8.238-3.798.381-.015.76-.061 1.132-.14a4.409 4.409 0 0 1 2.707.193c.201.075.403.172.603.226.825.214 1.132 0 1.386-.88.056-.322.159-.633.306-.923a13.13 13.13 0 0 1 4.23-4.677c1.058-.611 2.116-1.245 3.3-1.749a11.787 11.787 0 0 1 9.741.344c.804.37 1.524.902 2.115 1.566 1.121 1.18 2.274 2.338 3.363 3.562a5.081 5.081 0 0 1 1.618 3.025l-4.23 1.19c-1.057-.654-.476-1.502-.2-2.296-.942-1.073-1.904-2.028-3.395-2.016a4.46 4.46 0 0 0-2.76.73 30.994 30.994 0 0 0-5.225 5.138 23.707 23.707 0 0 0-2.475 3.647 3.113 3.113 0 0 1-1.195 1.288c-.998.55-2.065.958-3.173 1.213a55.064 55.064 0 0 0-8.186 1.952 21.009 21.009 0 0 0-4.304 1.845 7.822 7.822 0 0 1-1.206.461c-.357.067-.662.3-.826.627a1.194 1.194 0 0 0-.01 1.046c.218.678.535 1.319.942 1.9a17.12 17.12 0 0 0 2.676 3.218c.108.147.2.305.274.472-.465 1.276-1.702 1.91-2.453 3.046a5.233 5.233 0 0 1-1.057-.321 16.486 16.486 0 0 1-4.03-2.993 13.044 13.044 0 0 1-2.2-2.393 6.736 6.736 0 0 1-1.058-2.896 12.035 12.035 0 0 1 1.556-6.726zm-2.115 9.42c.184.12.351.263.497.428a21.003 21.003 0 0 0 4.336 4.614c.751.529 1.543.995 2.369 1.394l.994.557v.001c.35.16.595.493.645.88a9.255 9.255 0 0 0 1.058 2.928c.274.389.303.903.074 1.32a6.288 6.288 0 0 1-.857-.407c-1.205-.805-2.412-1.642-3.607-2.468-.846-.59-1.713-1.137-2.506-1.802a8.22 8.22 0 0 1-2.78-4.871c-.138-.633-.191-1.299-.265-1.942a4.031 4.031 0 0 1 .02-.633h.022zm-.92 2.917c.39.437.568 1.026.486 1.61 0 .118-.168.247-.285.322a.345.345 0 0 1-.286-.054c-.687-.526-.666-1.106.064-1.878h.021zM2.148 37.044c.264-.718.598-1.408.994-2.06.66-1.321 1.5-2.542 2.497-3.626a9.691 9.691 0 0 1 3.902-2.253c.624-.182 1.259-.322 1.893-.472a.702.702 0 0 1 .857.258c.226.385.193.873-.085 1.222-.254.28-.561.515-.846.773-.645-.087-1.333-.57-2.042.321v.001c.354.63.377 1.397.064 2.049a1.18 1.18 0 0 1-.55.77c-.281.168-.619.207-.93.11-.36-.698.116-1.18.338-1.706.138-.344.508-.644.159-1.073-.349-.43-.666 0-.9.643-.232.644-.433 1.223-.644 1.824-.099.06-.206.104-.318.13-.38 0-.857-.537-1.058.096-.2.633.36.569.645.783.114.102.22.214.318.333A6.17 6.17 0 0 1 4.4 40.305a3.188 3.188 0 0 1 .085-2.146c.264-.708.55-1.416.804-2.145-.317-.386-.517-.193-.666 0-.099.19-.17.391-.211.6-.18.634-.37 1.267-.53 1.9-.158.632-.317 1.49-.486 2.241a5.804 5.804 0 0 1-.698 2.264 3.1 3.1 0 0 1-.423-.58 11.142 11.142 0 0 1-.127-5.396zM24.675 58.94a2.425 2.425 0 0 1-2.115-.408.693.693 0 0 1 .313-.445c.16-.1.352-.128.533-.08a3.313 3.313 0 0 1 1.597.6c.064.333-.158.333-.328.333zm2.115-1.255a.943.943 0 0 1-1.057.15c-.36-.139-.91-.086-.952-.719a1.408 1.408 0 0 1 2.295.087 2.327 2.327 0 0 1-.37.525l.084-.043zm12.469-1.824c.232-1.073.698-1.351 1.502-.858.29.225.57.465.836.718v.161c-.804.58-1.608.237-2.422.022l.084-.043zm3.342-2.08c-.19.328-.42.631-.687.9l-.941-.858c.26-.282.542-.54.846-.772a.604.604 0 0 1 .56 0c.165.22.216.507.138.772l.084-.042zm.973 1.319a.65.65 0 0 1-.56-.183.489.489 0 0 1 .18-.708c.205-.163.458-.253.72-.257.408.123.804.284 1.183.483-.521.267-1.059.504-1.607.707l.084-.042zm-.264-2.95c.073 0 .148-.15.222-.16v-.002a.481.481 0 0 1 .243.086.758.758 0 0 1-.232.161c-.148.065-.244-.01-.317-.042l.084-.043zm2.686 1.426a9.653 9.653 0 0 1-1.12-.182c-.646-.161-.805-.666-.381-1.234a3.51 3.51 0 0 1 .56-.493L46.8 52.74c-.286.836-.328.912-.803.836zm1.301-1.63a3.622 3.622 0 0 1-1.48-1.02c.19-.364.37-.687.57-1.073l-.56-.471-2.115 2.725-.53-.654a2.6 2.6 0 0 0-.74.225 11.848 11.848 0 0 0-3.077 2.606l-.307.386c-.804.89-.951.913-2.051.332v.001a1.04 1.04 0 0 0-.444-.171.71.71 0 0 0-.413.182.337.337 0 0 0 0 .3c.073.204.197.385.36.526.316.206.649.385.994.536.307.15.613.268.93.397a4.652 4.652 0 0 1-2.167.858 25.954 25.954 0 0 1-5.288.73c-.54.044-1.076.12-1.608.225a5.787 5.787 0 0 1-1.967 0c0-.203 0-.418.095-.482.282-.244.615-.42.973-.515a4.394 4.394 0 0 1 1.29.075c.476 0 .952.139 1.46.225.243-.28.444-.526.666-.762a1.047 1.047 0 0 1 1.11-.332c.47.134.947.242 1.428.322.282.021.565.021.846 0-.306-.901-1.364-.473-1.724-1.202.201-1.073 1.301-.88 2-1.266-.074-.58-.434-.708-.805-.59-.408.14-.788.355-1.12.633a2.663 2.663 0 0 1-1.84.708 5.953 5.953 0 0 1-.223.955c-.327.858-.878.944-1.84.257l1.142-1.073c-.158-.376-.454-.3-.677-.193-.375.19-.73.42-1.057.687a1.11 1.11 0 0 1-1.492.118 1.62 1.62 0 0 0-1.945-.15c-.73.343-1.512.569-2.412.89-.38-.15-.867-.375-1.375-.525a.7.7 0 0 0-.528.225c-.064 0 0 .344.095.429.232.208.48.398.74.569-.476 1.073-.645 1.18-1.417.804-.773-.376-1.703-.955-2.549-1.437l-1.449-.848c-.074.536.35.547.54.74.213.166.436.32.666.462.285.225.698.364.602.954h.001a30.583 30.583 0 0 1-7.277-1.351 31.233 31.233 0 0 1-6.842-2.564c-.761-1.48-1.618-2.94-2.295-4.484-.957-2-1.387-4.218-1.248-6.438.017-.163.049-.324.095-.482 0 0 .053-.086.148-.215.149.14.36.247.423.418v.001a12.337 12.337 0 0 0 2.845 4.345 9.28 9.28 0 0 0 4.051 2.338 64.98 64.98 0 0 0 7.244 1.75c.318.063.635.16.942.246 3.453.9 7.01 1.325 10.576 1.266 1.617 0 3.236-.194 4.854-.322.814-.065 1.618-.183 2.432-.268.159.01.318.01.476 0a54.381 54.381 0 0 0 6.346-1.878c1.058-.44 2.115-.88 3.173-1.34.358-.108.694-.279.993-.505a1.496 1.496 0 0 1 1.778-.204c.264 1.02.539 2.146.846 3.348v-.001a2.792 2.792 0 0 1-.868.032v-.01zm1.629-1.341a1.31 1.31 0 0 1-.307-1.641c.233-.526.751-.461 1.269-.194a1.893 1.893 0 0 1-.962 1.845v-.01zm3.448-3.219a2.807 2.807 0 0 1-2.116.376c-2.81-.165-5.61-.48-8.386-.944a43.186 43.186 0 0 1-9.603-2.961 24.021 24.021 0 0 0-2.75-.998 1.395 1.395 0 0 1-1.057-1.073c-.148-.75-.37-1.491-.53-2.242a3.545 3.545 0 0 1 0-.73c.773.183 1.46.28 2.116.505 1.058.354 2.115.805 3.173 1.202.402.15.836.225 1.248.354l1.914.569c0 .643.074 1.222.106 1.748.09.12.228.196.377.209a.528.528 0 0 0 .406-.145c.312-.217.593-.477.835-.772a1.698 1.698 0 0 1 2.115-.537c.074.45.158.923.232 1.363 1.058.557 1.417-.6 2.115-.88 2.951.096 5.901-.429 8.979 0 .403 1.491 1.122 3.133.825 4.913l.001.043zm2.697-2.006a1.09 1.09 0 0 1-.138.462c-.254.418-.454 1.008-1.058.965-.602-.043-.539-.74-.645-1.19a67.166 67.166 0 0 1-.38-2.93 6 6 0 0 1 .084-1.072c.814.44 1.417.816 2.263.322a71.576 71.576 0 0 1-.127 3.4l.001.043zm.983-1.352a4.141 4.141 0 0 1-.095-2.413c0-.183.37-.364.602-.418.233-.054.328.214.444.375h.001a.662.662 0 0 1 .116.461 3.005 3.005 0 0 1-1.068 1.953v.042zm4.294-11.618c-.285.097-.38-.086-.444-.311a2.337 2.337 0 0 0-.18-.622.516.516 0 0 0-.412-.183.468.468 0 0 0-.318.301c-.021.27-.021.544 0 .815v2.145l-1.058.601a.518.518 0 0 0-.264.687c.074.14.328.215.518.268.183.023.367.023.55 0 .288.522.367 1.137.222 1.717a5.982 5.982 0 0 1-1.322 2.81c-.158-1.126-.275-2.027-.422-2.917a1.798 1.798 0 0 0-.244-.59c0-.065-.19-.087-.285-.065a.381.381 0 0 0-.244.183 1.002 1.002 0 0 0 0 .472c0 .322.17.633.19.965.075.426.075.861 0 1.287-.126.493-.655.483-1.057.633-.402.15-.635.419-.973.58a6.32 6.32 0 0 1-.93.236 1.822 1.822 0 0 1 .232-1.491c.825-1.43 1.66-2.833 2.507-4.206.22-.31.419-.636.592-.976a59.15 59.15 0 0 0 2.549-7.263c.2-.794.497-1.566.772-2.338.127-.365.275-.708.434-1.073.159-.365-.064-.676.317-.87a26.95 26.95 0 0 1-.73 9.162v.043z" fill="#841839"/></svg>