<svg width="21" height="15" fill="none" xmlns="http://www.w3.org/2000/svg"><path d="M19.228 6.536a1.524 1.524 0 0 1 0 1.928C17.786 10.274 14.326 14 10.286 14s-7.5-3.726-8.942-5.536A1.533 1.533 0 0 1 1 7.5c0-.35.12-.688.344-.964C2.786 4.726 6.246 1 10.286 1s7.5 3.726 8.942 5.536v0z" stroke="#841839" stroke-width="2" stroke-linecap="round" stroke-linejoin="round"/><path d="M10.286 10.286a2.786 2.786 0 1 0 0-5.572 2.786 2.786 0 0 0 0 5.572z" stroke="#841839" stroke-width="2" stroke-linecap="round" stroke-linejoin="round"/></svg>