<svg version="1.1" id="Слой_1" xmlns="http://www.w3.org/2000/svg" x="0" y="0" viewBox="0 0 114.3 82" xml:space="preserve"><style>.st0{fill:none;stroke:#841839;stroke-width:2;stroke-linecap:round;stroke-linejoin:round}.st1{fill:#fff;stroke:#fff;stroke-miterlimit:10}.st2{fill:#841839}</style><path class="st0" d="M113.3 1H64v49.3h49.3V1z"/><path class="st0" d="M68.5 46h-35v35h35V46z"/><path class="st1" d="M46.8 72.3c-.5 0-1-.1-1.5-.3-.5-.2-.9-.5-1.2-.8-.3-.3-.6-.7-.8-1.2-.2-.5-.3-.9-.3-1.5v-8.9h-2.6V58H43v-3.4l1.7-.3V58h3.6v1.6h-3.6v8.9c0 .3.1.6.2.8.1.2.3.5.4.6.2.2.4.3.7.4.3.1.5.2.8.2h1.6v1.6l-1.6.2zM61.2 70.1c-.2.5-.5 1-.9 1.3-.4.4-.8.7-1.3.9-.5.2-1.1.3-1.6.3h-1.1c-.6 0-1.1-.1-1.6-.3-.5-.2-1-.5-1.3-.9-.4-.4-.7-.8-.9-1.3-.3-.5-.5-1.1-.5-1.7V62c0-.6.1-1.1.3-1.6.2-.5.5-1 .9-1.3.4-.4.8-.7 1.3-.9.5-.2 1.1-.3 1.6-.3h1.1c.6 0 1.1.1 1.6.3.5.2 1 .5 1.3.9.4.4.7.8.9 1.3s.3 1.1.3 1.6v6.4c.2.6.1 1.2-.1 1.7zm-1.4-8.2c0-.3-.1-.7-.2-1-.1-.3-.3-.6-.5-.8-.2-.2-.5-.4-.8-.5-.3-.1-.6-.2-1-.2h-1.1c-.3 0-.7.1-1 .2-.3.1-.6.3-.8.5-.2.2-.4.5-.5.8-.1.3-.2.6-.2 1v6.6c0 .3.1.7.2 1 .1.3.3.6.5.8.2.2.5.4.8.5.3.1.6.2 1 .2h1.1c.3 0 .7-.1 1-.2.3-.1.6-.3.8-.5.2-.2.4-.5.5-.8.1-.3.2-.6.2-1v-6.6zM79.5 77.8h-1.7l2.5-6.9-4.6-13h1.7l3.7 10.8.1.7.1-.7L85 57.9h1.7l-7.2 19.9zM98.2 69.8c-.2.5-.5 1-.9 1.3-.4.4-.8.7-1.3.9-.5.2-1.1.3-1.6.3h-1.1c-.6 0-1.1-.1-1.6-.3-.5-.2-1-.5-1.3-.9-.4-.4-.7-.8-.9-1.3-.2-.5-.3-1.1-.3-1.6v-6.4c0-.6.1-1.1.3-1.6.2-.5.5-1 .9-1.3.4-.4.8-.7 1.3-.9.5-.2 1.1-.3 1.6-.3h1.1c.6 0 1.1.1 1.6.3.5.2 1 .5 1.3.9.4.4.7.8.9 1.3.2.5.3 1.1.3 1.6v6.4c0 .6-.1 1.1-.3 1.6zm-1.4-8.1c0-.3-.1-.7-.2-1-.1-.3-.3-.6-.5-.8-.2-.2-.5-.4-.8-.5-.3-.1-.6-.2-1-.2h-1.1c-.3 0-.7.1-1 .2-.3.1-.6.3-.8.5-.2.2-.4.5-.5.8-.1.3-.2.6-.2 1v6.6c0 .3.1.7.2 1 .1.3.3.6.5.8.2.2.5.4.8.5.3.1.6.2 1 .2h1.1c.3 0 .7-.1 1-.2.3-.1.6-.3.8-.5.2-.2.4-.5.5-.8.1-.3.2-.6.2-1v-6.6zM111.4 72.1l-.9-1.4c-.4.5-.9.9-1.5 1.3-.6.3-1.2.5-1.9.5h-.4c-.6 0-1.1-.1-1.6-.3-.5-.2-1-.5-1.3-.9-.4-.4-.7-.8-.9-1.3-.2-.5-.3-1.1-.3-1.6V57.9h1.7v10.4c0 .3.1.7.2 1 .1.3.3.6.5.8.2.2.5.4.8.5.3.1.6.2 1 .2h1.1c.3 0 .7-.1 1-.2.3-.1.6-.3.8-.5.2-.2.4-.5.5-.8.1-.3.2-.6.2-1V57.9h1.7v14.2h-.7zM11.1 36.5c-.2.6-.6 1.1-1 1.6-.4.4-.9.8-1.5 1-.6.3-1.2.4-1.9.4H5.3c-.7 0-1.3-.1-1.9-.4-.6-.3-1.1-.6-1.5-1-.4-.4-.8-1-1-1.6-.2-.6-.4-1.2-.4-1.9V23.9c0-.7.1-1.3.4-1.9.2-.6.6-1.1 1-1.6.4-.4.9-.8 1.5-1 .6-.3 1.2-.4 1.9-.4h1.4c.7 0 1.3.1 1.9.4.6.3 1.1.6 1.5 1 .4.4.8 1 1 1.6.2.6.4 1.2.4 1.9v.8l-1.8.3v-1.1c0-.4-.1-.9-.2-1.2-.2-.4-.4-.7-.7-1-.3-.3-.6-.5-1-.7-.4-.2-.8-.3-1.2-.3H5.4c-.4 0-.8.1-1.2.3-.4.2-.7.4-1 .7-.3.3-.5.6-.7 1-.2.4-.2.8-.2 1.2v10.7c0 .4.1.9.2 1.2.2.4.4.7.7 1 .3.3.6.5 1 .7.4.2.8.3 1.2.3h1.2c.4 0 .8-.1 1.2-.3.4-.2.7-.4 1-.7.3-.3.5-.6.7-1 .2-.4.2-.8.2-1.2v-1.1l1.8.3v.8c0 .7-.2 1.3-.4 1.9zM15.9 39.2V19.3h1.7v19.9h-1.7zM30.8 36.9c-.2.5-.5 1-.9 1.3-.4.4-.8.7-1.3.9-.5.2-1 .3-1.6.3h-1.1c-.6 0-1.1-.1-1.6-.3-.5-.2-.9-.5-1.3-.9s-.7-.8-.9-1.3c-.2-.5-.3-1.1-.3-1.6v-6.4c0-.6.1-1.1.3-1.6.2-.5.5-1 .9-1.3.4-.4.8-.7 1.3-.9.5-.2 1-.3 1.6-.3H27c.6 0 1.1.1 1.6.3.5.2.9.5 1.3.9s.7.8.9 1.3c.2.5.3 1.1.3 1.6v6.4c0 .6-.1 1.1-.3 1.6zm-1.4-8.1c0-.3-.1-.7-.2-1-.1-.3-.3-.6-.5-.8-.2-.2-.5-.4-.8-.5-.3-.1-.6-.2-.9-.2h-1.1c-.3 0-.7.1-.9.2-.3.1-.6.3-.8.5-.2.2-.4.5-.5.8-.1.3-.2.6-.2 1v6.6c0 .3.1.7.2 1 .1.3.3.6.5.8.2.2.5.4.8.5.3.1.6.2.9.2H27c.3 0 .7-.1.9-.2.3-.1.6-.3.8-.5.2-.2.4-.5.5-.8.1-.3.2-.6.2-1v-6.6zM44.5 35.6c0 .6-.1 1.1-.3 1.6-.2.5-.5.9-.9 1.2-.4.3-.8.6-1.4.8-.5.2-1 .3-1.6.3h-1.1c-.6 0-1.1-.1-1.6-.3-.5-.2-1-.5-1.3-.9-.4-.4-.7-.8-.9-1.3-.2-.5-.3-1.1-.3-1.6v-.6l1.7-.3v.9c0 .3.1.7.2 1 .1.3.3.6.6.8.2.2.5.4.8.5.3.1.6.2 1 .2h1.1c.3 0 .7-.1 1-.2.3-.1.6-.2.8-.4.2-.2.4-.4.6-.7.1-.3.2-.6.2-.9 0-.5-.1-.9-.3-1.3-.2-.3-.5-.6-.9-.8-.4-.2-.8-.4-1.2-.5-.5-.1-.9-.3-1.4-.4-.5-.1-.9-.3-1.4-.5-.5-.2-.9-.4-1.2-.7s-.6-.7-.9-1.1c-.2-.5-.3-1-.3-1.7 0-.6.1-1.1.3-1.6.2-.5.5-.9.9-1.2.4-.3.8-.6 1.3-.8.5-.2 1-.3 1.6-.3h1c.6 0 1.1.1 1.6.3.5.2.9.5 1.3.9s.7.8.9 1.3c.2.5.3 1.1.3 1.6v.1l-1.7.3v-.4c0-.3-.1-.7-.2-1-.1-.3-.3-.6-.5-.8-.2-.2-.5-.4-.8-.5-.3-.1-.6-.2-.9-.2h-1c-.3 0-.7.1-.9.2-.3.1-.6.2-.8.4-.2.2-.4.4-.5.7-.1.3-.2.6-.2.9 0 .5.1.9.3 1.2.2.3.5.6.9.8.4.2.8.4 1.2.5.5.1.9.3 1.4.4.5.2.9.3 1.4.5.5.2.9.4 1.2.8.4.3.6.7.9 1.1-.1.4 0 1 0 1.7zM57.3 36.9c-.2.5-.5 1-.9 1.3-.4.4-.8.7-1.3.9-.5.2-1 .3-1.6.3h-1.1c-.6 0-1.1-.1-1.6-.3-.5-.2-.9-.5-1.3-.9s-.7-.8-.9-1.3c-.2-.5-.3-1.1-.3-1.6v-6.4c0-.6.1-1.1.3-1.6.2-.5.5-1 .9-1.3.4-.4.8-.7 1.3-.9.5-.2 1-.3 1.6-.3h1.1c.6 0 1.1.1 1.6.3.5.2.9.5 1.3.9s.7.8.9 1.3c.2.5.3 1.1.3 1.6v3.3H50v3.2c0 .3.1.7.2 1 .1.3.3.6.5.8.2.2.5.4.8.5.3.1.6.2.9.2h1.1c.3 0 .6-.1.9-.2.3-.1.6-.3.8-.5.2-.2.4-.5.5-.8.1-.3.2-.6.2-1v-.9l1.7.3v.6c0 .5-.1 1-.3 1.5zm-1.4-8.1c0-.3-.1-.7-.2-1-.1-.3-.3-.6-.5-.8-.2-.2-.5-.4-.8-.5-.3-.1-.6-.2-.9-.2h-1.1c-.3 0-.7.1-.9.2-.3.1-.6.3-.8.5-.2.2-.4.5-.5.8-.1.3-.2.6-.2 1v2.1h6v-2.1h-.1z"/><path class="st2" d="M94.5 19c-.1-.2.3-.5-.1-.7.1-.1.1-.3.3-.6-.3.1-.5.1-.6.2-.1.1 0 .3 0 .6-.1-.2-.4-.3-.4-.5-.1-.8.1-1.8-.8-2.3-.1.3-.2.7-.2 1.2.1.2.3.4.5.6H93c-.1.3-.2.7-.3 1 .3.1.5.1.7.2-.1.2-.2.5-.3.7h-.8c.1-.1.2-.3.3-.3-.3-.7-.6-1.4-.9-2.2-.5.7-.3 1.2.1 1.7.1.1 0 .2 0 .3-.1 0-.2.1-.3 0-.4-.2-.8-.3-.7-.8 0-.1-.1-.1-.1-.2-.1.8-.2 1.5-.2 2.2-.6 0-1.2-.4-1.7-1.2-.1.1-.1.3-.2.3s-.3 0-.4-.1v.1l.4.1c-.2.4-.3.7-.4 1-.4-.1-.7-.3-1-.4-.1.2-.2.3-.3.6l.2.9c-.5 0-.8-.1-1.2-.1-.1 0-.3-.2-.4-.4-.1-.1-.1-.3-.2-.4-.1 0-.1.1-.2.1l.3.6c.1.2.2.4-.2.4-.4-.8-.4-.8-1.1-.4.1.2.3.3.4.6-.2.1-.3.2-.5.2-.1 0-.3-.1-.4-.2 0 .1-.1.1-.1.2.4.1.8.3 1.2.4l-.2-1.4.7.7c.4.9.5-.2.9-.1.2.2.4.5.6.7-.5.6-.6-.1-.8-.2-.6 1.4-1.5 1.5-2.8.7.8.4.7 1 .4 1.6-.9 0-1.5.3-2 1.1-.5.7-.7 1.6-1.6 2-.1.1-.1.3-.2.5-.5.5-1 .5-1.7.4-.1 0-.3 0-.3.1-.3.9-1.1 1.3-1.7 1.9-.2.2-.2.3-.2.6s-.3.7-.4 1c-.1.2-.1.4-.2.6-.1.2-.3.5-.5.6-.2.2-.5.3-.8.5.3.2.5.2.6.3-.1.4-.2.9-.4 1.3-.1.3-.8.7-1.1.9-1.1.6-1.9-.5-2.9-.4-.1 0-.4-.3-.4-.4 0-.2 0-.6.2-.7.5-.3.3-.6.3-1s0-.7.1-1.1c.1-.3.3-.6.5-1 .1-.2 0-.4 0-.5 0-.2 0-.4.1-.5 0-.3.1-.7.1-1 0-.3-.1-.7 0-1l1.5-5.1c.4-1.3.8-2.5 1.2-3.8 0-.1.1-.3.2-.4.7-.8 1-1.9 1.9-2.5.3-.2.5-.6.7-.9.5-.3 1.1-.7 1.6-1 .4-.2.7-.6 1.1-.6 1.3-.1 2.7-.4 4 .2.4.2.5 0 .6-.3.3-.7.7-1.3 1.1-2 .1-.2.1-.4.3-.6.4-.5.8-1 1.2-1.4.1-.1.3-.1.5-.1-.1-.5.3-.8 1-.6.1 0 .3 0 .3-.1.3-.4.6-.3 1-.1.2-.4 1.9-.5 2.2-.1.6-.3 1.1-.1 1.6.1.2.1.5 0 .7.1.2.1.4.1.6.3.3.2.5.5.9.4h.3c.3.5.9.5 1.4.8.1.1.2.3.3.4.2-.2.7-.1.9.3.3.5.7.8 1.2.9.4.1.8.4 1.2.6.4.2.9.5 1.3.8l.4.4.6-.1c.5.5.6.6.1 1 .2.2.3.3.6.5v-.4l.1-.1c.1.2.1.3.2.5.1.1.1.4.2.4.6 0 .7.4.7.8 1.1.3 1.6 1.5 1.2 2.5-.2.5-.4 1.1-.5 1.7-.1.5-.5.8-1 .8s-1.1.2-1.8.3c.4.1.7.2 1.1.4-.8.4-1.5.3-2.1 0-.6-.4-1.1-.2-1.6.1-.1.1-.3.1-.4.1 0-.1.1-.3.1-.4-.2.1-.4.1-.6.2v-.1c-.1-.1-.3-.2-.4-.2-.3 0-.7 0-1-.1-.1 0-.3-.1-.3-.2s.1-.2.2-.4c-.7-.2-1.4-.4-2.2-.1-.3.2-.6.4-.9.5-.2.1-.4-.1-.6-.2-.3-.2-.6-.5-.9-.8-.1-.1-.1-.2-.2-.4.1-.1.3-.2.4-.2.9 0 .9-.1 1-1.1.1 0 .3.1.4.1-.5-.4-.4-.7-.1-.4.1.2.1.4.2.7.1-.3.2-.4.3-.6.1 0 .3.1.4.1v.5c0-.3.6-.6 0-.8-.2-.1-.5 0-.9.1zm.9-2.7c-.1-.3-.1-.6-.2-.7-.2-.2-1.2.3-1.3.6 0 .2.2.4.3.7 0-.1.1-.1.1-.2.3 0 .7-.1 1 0 .2.1.1.6.1.8.1-.1.4-.1.5-.2 0-.5 0-.9-.5-1zM87.1 19l.8-.8c-1.3-.4-1.3-.4-1.5 0 .5.1.5.2 0 1 .2.1.4.3.5.2.3-.2.3 0 .3.2.1-.1.2-.1.2-.2-.1-.2-.2-.3-.3-.4zm-15.4 9.4h-.2l-.6 1.2.2.1c.1-.4.9-.3.8-.9-.1-.4.1-.8.1-1.2h-.1c-.2.2-.3.4-.4.5 0 0 .1.1.2.3zm8.3-4.7c-.2.4-.9.4-.6 1 .1.3.4.2.6 0 .4-.3.4-.6 0-1zM96.8 17c-.1.2-.3.5-.2.6.2.3.5.5.8.8l.2-.2c-.3-.2-.5-.4-.7-.6.3-.1.6-.1.7-.2.2-.2.3-.4-.1-.5v.4c-.3-.2-.5-.3-.7-.3zm-14.2 7.3v-.2l-.9-1.2h-.1c.1.1.1.2.2.3-.2.1-.3.1-.4.2v.3c0 .1.2.1.2.1.4-.4.4 0 .6.2 0 .3.2.3.4.3zm-4.5.9v.2c.2.1.3.3.6.5.1-.3.1-.5.1-.7h-.7zm6.6-2.2c0-.1.1-.2.1-.3-.3-.1-.6-.2-.9-.2 0 .1 0 .1-.1.2.3 0 .6.2.9.3z"/><path class="st2" d="M75.4 38.2c.1-.2.3-.5.3-.7 0-.5.3-.7.8-.6.2-.5-.2-.6-.5-.7-.1-.1-.3.1-.5.2s-.5.2-.7.3l-.1-.2c.4-.3.8-.6 1.1-.8h.6c0-.2-.1-.3 0-.5 0-.2 0-.5.1-.7.4-.4.9-.6 1.3-.9l.2.1c.3-.1.6-.3.8-.3 1.2-.1 2.1-.8 3.1-1.3.7-.4 1.3-.9 2.3-.6.9.3 1.9 0 2.8-.2.9-.2 1.8-.3 2.7-.6 1.3-.4 2.6-.8 3.5-2 .4-.5 1.1-.8 1.7-1.2.2-.2.5-.3.7-.5.4-.4.7-1 1.4-1 0 0 .1-.2.2-.2.2-.1.5-.3.7-.4.6-.2 1.1-.4 1.7-.6.1 0 .3-.1.3-.2.2-.4.6-.4 1-.4-.1.1-.1.2-.2.3 0 0 0 .1.1.1.4-.2.7-.5 1.1-.7v-.1c-.3-.1-.6-.1-1-.2.7-.6.8-.5 1.4.1.7-.2 1.3-.3 1.9-.5.3-.1.5-.3.8-.4.1-.1.3-.1.5-.1v.2c.6.2 1.1.5 1.7.7v.2c-.4-.2-.8-.3-1.1.2-.2.3-.6.4-.9.5-.7.3-.9.8-.5 1.6.1-.2.3-.4.4-.6h.2l.3 1.1c.3-.1.5-.1.7-.2v-.1h-.4c-.1-.3-.2-.6-.3-1 .4 0 .9-.5 1.2 0-.2.4-.3.8-.5 1.3l.7-.2c.1.3.2.5.3.7h.1c-.1-.4-.1-.8-.2-1.2.1 0 .1 0 .2-.1.3.5.6 1.1.8 1.6 0 .2-.1.4-.2.7-.3 0-.5-.2-.6-.7-.4.5.4 1.2-.2 1.7.1.2.3.4.5.7l-.1.1c-.2-.1-.3-.1-.5-.2.1.3.2.5.3.7-.2-.1-.3-.1-.5-.2.5.4.3.8 0 1.1-.1-.1-.2-.3-.4-.5v1.8c-.3-.1-.5-.2-.6-.3.1.3.2.5.1.7 0 .2-.3.3-.5.5.1.1.2.2.3.4l-.1.1c-.2-.1-.3-.1-.5-.2-.1.6-.3 1-.9 1.2 0 .2 0 .4.1.7-.3-.1-.5-.3-.6.2 0 .4-.4.7-.7 1-.4.5-.8 1.1-1.4 1.6-.6.5-1.2 1-1.9 1.3-.8.4-1.7.5-2.5.8-.3.1-.6.4-.9.5-.9.3-1.7.5-2.6.7-.4.1-.8.3-1.3.4-1.1.1-2.2.3-3.3.3-.8 0-1.5-.2-2.3-.1-.5 0-.9-.1-1.3-.2-.1 0-.2-.2-.4-.4l-.7.2c-.4-.1-.8-.2-1.1-.4-.3-.1-.6-.3-.9-.5 0 0-.1.1-.2.3-.4-.6-1.6-.3-1.7-1.3v.7c-.4-.2-.7-.4-1-.5-.2-.1-.4-.2-.5-.1-.5.2-.7-.2-1-.5v.6c-.5-.2-1-.4-1.4-.6-.1 0-.1-.1-.2-.1-.8-.1-.8-.8-1.1-1.4zm14.5-2.7c.2.6.7-.2 1 .2l-.4.3.1.1c.2-.1.4-.2.5-.2v-.8c-.4 0-.8 0-1.2-.1v.5c-.2-.3-.5-.4-.7-.6-.1.6.5 1.5 1 1.6-.2-.4-.2-.7-.3-1zm6.8-2.1h.1l.1.4.4-.4c.2-.1.4-.1.6-.1.1 0 .1.2.2.2.1-.1.1-.2.2-.3 0-.1.1-.2.1-.3l.4.4.1-.1c-.2-.3-.5-.6-.7-.9-.2-.3-.3-.6-.4-.8-.2-.3-.3-.2-.4.1 0 .1-.1.2-.2.3l-.3-.3c-.1-.1-.3-.2-.4-.2-.1 0-.2.2-.3.3v.3c-.1 0-.2-.1-.2-.1 0-.2.1-.4.1-.6.1-.2.1-.4.3-.8-.6.4-.8.8-.5 1.2.2.4.3.7.5 1.1.1.3 0 .6-.3.7.4-.5.1-.8-.2-1.1-.2-.1-.4-.1-.7-.1v.2c-.2-.3-.3-.7-.5-.9-.1.2-.3.3-.4.4.1.1.1.2.2.3-.2.1-.3.2-.4.2.1.2.1.4.2.6h-.1c-.2-.4-.3-.7-.5-1.1h-.1l.3 1.2h-.1l-.7-1.3c-.1 0-.1.1-.2.1.1.3.2.7.4 1 .3.6.1 1.4-.5 1.8-.1-.5-.2-1.1-.4-1.5-.2-.5-.5-.9-.7-1.3h-.1l.7 3.2c-.2-.1-.3-.1-.5-.2 0 .4.3.5.6.6.2.1.4.2.6.4.1.1.2.3.2.4h.1c-.1-.4-.3-.8-.4-1.2 0-.1.1-.1.1-.2.4.2.8.4 1.3.7-.2-.5-.3-.9-.5-1.4h.1c.4.5.7.9 1.1 1.4.2-.6.3-1 .5-1.4h.2c.1.2.1.3.2.5h.2c.1-.3.1-.7.2-1l.3.3c0-.3 0-.5.1-.7zm-12.4 3.5c.5-.1 1.1.5 1.3-.4l.4.4c.1.1.2.2.3.4.1-.1.1-.2.2-.3.5-.7.7-.7 1.4-.4.3.1.5.3.8.4.1 0 .3 0 .4-.1.1 0 .1-.2 0-.3l-.3-.9c0-.1-.2-.2-.3-.3h-.1l.1.6c-.6-.4-1.2-1.5-1.7 0-.4-.1-.9-.1-1.2-.3-.6-.4-.8-.4-1.3.1-.1.1-.3.2-.5.3-.2.1-.4.1-.6.2.1-.4.1-.7.2-1.1h-.1c-.1.2-.1.5-.2.7-.2-.1-.5-.2-.7-.2-.2.2-.5.3-.7.5-.1-.2-.1-.3-.2-.5-.1.5-.1.9.4 1 .5 0 1.1-.1 1.6-.2.6-.1.8 0 .8.4zm14.6-7.6c-.1 0-.2.1-.3.1 0 .4-.3 1-.1 1.3.4.6.6 1.9 1.9 1.2 0 .2-.1.4-.1.6l.4-.2c-.2-.3-.4-.6-.5-.9.2 0 .4-.1.5-.1v-.2c-.2-.5-.5-.9 0-1.4.1-.1 0-.4-.1-.4-.1-.1-.3-.1-.5 0-.2 0-.3.2-.5.3 1 .6.3 1 .1 1.5-.2-.3-.4-.6-.6-.8h.6c-.4-.4-.6-.7-.8-1zm1.2-1.7v.2c.3.5.9.9.7 1.6 0 0 .1.2.2.2.3.1.7.2 1.1.3l.1-.1c-.3-.3-.6-.6-1-.9 0 0 0-.1.1-.1.2.1.5.2.7.2-.1-.4-.3-.5-.7-.4h-.4c0-.7-.6-.6-.8-1zm1.6.1c0 .1 0 .2.1.2.4.1.7.2 1.1.3 0-.2 0-.5-.1-.7-.1-.2-.4-.4-.4-.4-.3.1-.5.3-.7.6zM90 33.8c0 .6.2.9.7.9-.1-.5-.3-1-.4-1.4-.5.2-.7.5-.6.8 0-.2.1-.2.3-.3zm13.7-7.8c0 .4 0 .8.2 1.1.2.3.4.5.9.4-.4-.5-.7-1-1.1-1.5zM78.4 37.9c-.1-.7-.1-1.3-.2-2-.3.8-.2 1.5.2 2zm1.8-2h-.3c0 .3.1.6.1 1h.2v-1zm6.9.8v.1c.4.1.7.2 1.2.3-.3-.6-.9-.3-1.2-.4zM76 33.7l-.6.2-.1-.1c.2-.3.3-.6.5-.8.2-.3.3-.6-.2-.8v-.1c.9-.6 1.1-1.8 2.1-2.3.6-.3 1.1-.8 1.6-1.2.2-.1.3-.4.4-.6l2.4-1.8c.3-.2.7-.5 1.1-.8-.1 1.2-.8 2-1.7 2.7-.1.1-.2.1-.3.1-.9 0-1.2.8-1.7 1.2-.3.3-.7.6-1 .9-.3.4-.7.7-.9 1.1-.3 1-1 1.6-1.6 2.3z"/><path class="st2" d="M98.1 24c.2-.1.3-.2.4-.4.3-.3.9-.2 1 .2 0 .1 0 .4-.1.4-.3.1-.6.2-.9.2-.2 0-.3-.3-.4-.4zM88.1 21.5c-.1 0-.3.1-.4.1-.1 0-.2-.1-.3-.2 0-.1.1-.2.1-.3.2-.2.4-.4.6-.4.2 0 .5.1.7.2-.1.2-.2.4-.4.6h-.3zM75.4 38.2c-.3 0-.8.2-.7-.4h-.4c.2-.2.3-.3.5-.4.2.2.4.5.6.8zM76 33.7c.2-.1.4-.1.7-.2l.1.1c-.2.2-.4.5-.6.7-.1-.1-.3-.1-.4-.2 0-.1.1-.3.2-.4zM106.4 24.4c.3.1.5.2.8.3l.2.4c-.1.1-.4.2-.4.2-.3-.3-.4-.6-.6-.9z"/></svg>