<svg width="35" height="30" fill="none" xmlns="http://www.w3.org/2000/svg"><path d="M22.896 8.986c-.05-.196.281-.437-.075-.598l.28-.494c-.27.06-.463.052-.556.143-.06.059.026.261-.031.503-.127-.138-.343-.263-.365-.416-.116-.762.114-1.63-.773-2.02l-.228 1.038.452.51-.156.003-.275.855.619.187c-.1.211-.197.424-.306.63-.016.03-.096.037-.147.04-.172.014-.344.02-.515.03.11-.12.222-.239.267-.287l-.826-1.99c-.451.65-.294 1.098.135 1.512.059.057.026.204.035.31-.096.006-.208.047-.284.012-.336-.152-.72-.272-.677-.758.005-.06-.07-.13-.118-.209L19.146 10c-.575-.002-1.084-.368-1.526-1.1-.07.093-.128.242-.225.273-.117.036-.268-.03-.404-.05l-.02.131.323.046-.385.926-.95-.34-.278.575.199.843c-.423-.041-.78-.046-1.12-.123-.131-.03-.237-.213-.33-.343-.075-.106-.114-.237-.168-.356l-.167.075c.103.188.199.38.31.563.11.18.168.321-.142.315-.363-.717-.409-.736-1.025-.366.119.157.234.313.385.514-.13.053-.253.146-.366.135-.128-.012-.248-.118-.371-.182l-.07.164 1.13.346-.29-1.233.614.614c.375.766.492-.197.854-.059l.577.67c-.465.496-.54-.055-.749-.206-.527 1.3-1.419 1.338-2.575.657.774.39.64.905.408 1.412-.816-.011-1.382.249-1.88.94-.444.618-.664 1.446-1.47 1.803-.1.045-.118.266-.174.407l.009-.01c-.43.431-.956.468-1.527.373-.1-.017-.292.038-.316.105-.285.78-.97 1.192-1.586 1.666-.191.147-.225.26-.182.535.045.282-.247.609-.374.924-.075.185-.084.4-.175.576-.108.212-.241.43-.419.582-.187.16-.44.248-.78.43l.566.267c-.112.403-.22.787-.325 1.174-.082.306-.764.663-1.035.805-1.015.535-1.78-.428-2.707-.373-.132.007-.371-.232-.399-.385-.036-.207.013-.561.151-.638.42-.234.294-.541.273-.875-.02-.319-.02-.654.062-.957.08-.3.298-.563.415-.857.057-.144.022-.324.037-.487.015-.159.038-.318.06-.477.038-.293.098-.584.113-.877.016-.313-.085-.65 0-.94.438-1.522.909-3.036 1.388-4.547.362-1.143.754-2.276 1.137-3.413.042-.127.08-.274.171-.365.681-.682.897-1.696 1.748-2.266.271-.183.416-.545.605-.807.496-.305.997-.62 1.503-.925.322-.196.646-.526.98-.54 1.228-.055 2.494-.398 3.672.219.357.187.453.022.59-.228.321-.588.66-1.166.983-1.753.095-.172.121-.39.24-.538.358-.447.734-.88 1.13-1.293.084-.089.285-.074.481-.118-.053-.445.285-.689.89-.502.093.028.263-.01.318-.077.271-.343.58-.3.916-.13.213-.401 1.724-.447 2.034-.067.51-.301.989-.058 1.48.056.202.047.426.007.628.057.185.045.382.126.524.246.236.202.416.475.8.38.075-.02.21-.021.238.02.295.446.858.458 1.241.75.11.084.165.235.242.35.204-.17.62-.074.789.225.252.444.604.707 1.134.823.386.085.735.342 1.092.535.398.216.793.438 1.176.677.116.072.188.21.353.404l.506-.115c.48.426.514.569.106.868l.524.47-.021-.367.12-.051c.053.144.103.291.163.433.05.122.123.344.173.342.595-.038.64.343.635.759A1.625 1.625 0 0 1 32.9 9.357c-.218.487-.361 1.01-.49 1.528-.107.436-.476.674-.95.69-.497.016-.99.153-1.615.259l.98.318c-.729.33-1.35.31-1.934-.039-.529-.317-.977-.197-1.439.117-.094.064-.243.053-.366.076.028-.115.054-.23.094-.402l-.533.19.037-.118c-.133-.077-.26-.2-.402-.22-.306-.044-.621-.016-.929-.056-.113-.014-.277-.119-.3-.21-.022-.091.105-.216.173-.335-.64-.193-1.314-.394-2.004-.058-.286.14-.539.364-.838.455-.15.046-.397-.085-.547-.2a7.448 7.448 0 0 1-.784-.73c-.084-.086-.119-.218-.176-.33.13-.059.259-.17.39-.17.781.002.85-.056.893-.943l.381.093c-.037-.27-.002-.483.366-.297l.153.65.313-.572.397.098-.005.469c.017-.232.511-.547-.015-.678-.263-.065-.567.024-.852.044h-.002zm.815-2.366c-.087-.272-.09-.549-.225-.644-.22-.152-1.134.231-1.191.508-.036.172.163.392.256.59.038-.053.076-.105.113-.159.308-.01.68-.124.902.006.14.083.06.526.074.757l.495-.173c.02-.419-.007-.818-.424-.886v.001zM16.05 8.976l.75-.695c-1.188-.35-1.203-.35-1.415.027.493.126.49.192-.042.872.156.068.366.227.44.18.237-.152.232.025.288.143.059-.047.176-.11.167-.138-.036-.123-.108-.235-.187-.39v.001zM1.914 17.418l-.17-.023-.51 1.069.14.068c.13-.36.799-.227.719-.824-.047-.354.066-.73.108-1.095l-.137-.004-.404.474.254.334v.001zm7.638-4.203c-.152.36-.858.347-.572.921.125.253.357.152.565 0 .392-.289.343-.568.007-.92v-.001zM24.94 7.197c-.083.205-.261.443-.202.533.163.25.426.44.737.737l.15-.212c-.27-.224-.425-.354-.674-.559.291-.079.51-.087.659-.192.21-.148.295-.358-.055-.486l.024.349-.638-.171h-.001zm-13.014 6.587l-.016-.156c-.28-.347-.56-.693-.842-1.039l-.062.044.146.301c-.14.063-.271.1-.37.178-.04.03-.025.157.001.227.018.044.141.1.154.09.373-.369.404.036.568.21.089.094.278.1.421.144v.001zm-4.143.835c0 .058-.002.116-.004.175.139.126.276.25.51.466l.12-.664-.626.021v.002zm6.043-2.043l.068-.229-.821-.217-.055.152.808.294z" fill="#841839"/><path d="M5.3 26.217c.095-.221.25-.435.273-.663.045-.443.249-.628.69-.534.192-.447-.206-.52-.418-.654-.076-.048-.295.131-.454.19-.225.085-.458.154-.687.23l-.099-.2 1.014-.71.553.016c-.014-.148-.047-.297-.035-.443.016-.205-.009-.49.114-.596.369-.318.796-.572 1.214-.83.037-.023.182.118.184.12.277-.112.512-.282.755-.293 1.099-.05 1.917-.691 2.81-1.188.632-.351 1.186-.828 2.07-.523.825.284 1.71.024 2.555-.194.812-.209 1.66-.307 2.449-.574 1.17-.396 2.387-.698 3.182-1.817.34-.48 1.012-.736 1.53-1.098.206-.143.43-.273.6-.45.363-.378.617-.883 1.253-.912.038-.002.066-.184.15-.178.224-.108.44-.234.673-.32.516-.191 1.04-.359 1.558-.542.104-.038.248-.078.29-.16.194-.38.524-.351.912-.345l-.177.26.056.074 1.032-.634-.02-.12-.945-.155c.642-.498.775-.47 1.284.131.625-.14 1.217-.247 1.791-.414.25-.072.452-.282.691-.397.126-.06.286-.052.43-.075l.02.18 1.518.624-.042.171c-.378-.15-.69-.236-.971.193-.152.23-.532.333-.825.46-.656.282-.808.71-.427 1.39l.346-.582h.16l.24 1.019.614-.17-.023-.125-.324.018-.3-.873c.41.012.805-.413 1.132.005l-.475 1.127.646-.145.29.651.083-.02-.187-1.044.187-.06.76 1.478-.18.625c-.284.024-.48-.182-.59-.618-.402.474.363 1.086-.217 1.55l.415.589-.081.087-.48-.169.257.655-.482-.155c.423.397.29.698-.026 1.017l-.325-.488-.03 1.581-.587-.28c.058.249.18.475.134.66-.04.16-.27.275-.457.447l.288.328-.071.09-.452-.211c-.079.526-.319.91-.845 1.083.014.176.034.397.056.641-.253-.052-.476-.286-.542.197-.045.327-.37.63-.604.917-.394.482-.77.995-1.24 1.4-.526.451-1.105.884-1.736 1.166-.73.326-1.546.46-2.314.71-.3.098-.557.329-.858.42-.79.237-1.594.427-2.39.642-.386.105-.762.275-1.154.322-1.015.124-2.033.24-3.053.276-.704.024-1.421-.176-2.118-.118-.441.038-.82-.06-1.217-.147-.127-.028-.218-.206-.33-.32l-.077.217c-.348-.106-.698-.181-1.02-.317-.282-.12-.535-.31-.812-.475l-.15.251c-.412-.539-1.424-.226-1.55-1.145l.02.655c-.35-.17-.633-.317-.927-.444-.14-.06-.322-.144-.443-.102-.467.164-.642-.16-.893-.434l-.035.527c-.463-.21-.873-.393-1.282-.58-.062-.028-.114-.103-.173-.107-.815-.046-.869-.735-1.124-1.254l-.007.01.002.002zm13.298-2.406c.192.548.676-.137.95.196l-.405.295.061.092.484-.183.017-.756c-.348-.015-.724-.034-1.118-.052l.047.328-.715-.469c-.088.524.451 1.334.931 1.398-.08-.273-.166-.561-.252-.848zm6.275-1.91l.112.002.081.344c.155-.158.245-.311.38-.37.152-.067.345-.076.514-.059.07.007.126.143.188.221.062-.1.126-.2.185-.302.045-.075.086-.154.126-.226l.384.39.095-.093c-.227-.281-.471-.553-.677-.85-.16-.23-.255-.504-.41-.738-.176-.264-.318-.215-.413.076-.03.099-.114.183-.173.272-.083-.088-.157-.187-.251-.26-.11-.09-.24-.216-.359-.214-.093 0-.201.16-.272.268-.04.06-.018.16-.024.242l-.227-.098c.042-.176.074-.355.126-.528.06-.198.137-.39.24-.675-.567.329-.694.682-.5 1.076.157.318.286.65.432.973.134.299.037.499-.291.636.343-.427.132-.755-.198-.997-.145-.106-.405-.057-.613-.079l-.042.16c-.152-.3-.304-.6-.42-.833l-.362.395.206.301c-.143.077-.256.136-.332.178.056.195.099.344.14.493l-.106.026c-.152-.332-.302-.666-.454-1l-.126.037.243 1.031-.09.022-.676-1.143-.18.08c.11.288.194.59.337.862.264.502.118 1.244-.428 1.595-.114-.48-.172-.942-.336-1.365-.161-.414-.429-.788-.649-1.18l-.083.036.676 2.867-.446-.137c.022.404.269.458.561.526.196.045.374.2.532.34.102.09.153.235.228.355l.1-.041-.348-1.064.126-.141 1.184.633-.446-1.23.093-.038 1.024 1.26.415-1.27.146.018.2.46.174.02.211-.918.293.23.179-.579.001.003zm-11.356 3.165c.442-.051 1.03.409 1.19-.402.174.154.29.25.396.356.105.103.202.213.322.342.07-.12.114-.211.171-.294.42-.61.653-.67 1.304-.34.23.118.455.253.697.34.108.039.266.006.375-.047.047-.023.053-.185.032-.272a7.224 7.224 0 0 0-.253-.837c-.042-.11-.154-.196-.235-.291l-.08.042.116.498c-.561-.335-1.097-1.369-1.521-.009-.364-.074-.797-.057-1.092-.246-.543-.349-.77-.383-1.214.063-.113.114-.271.192-.422.261-.16.073-.336.114-.596.2l.156-.952-.086-.028-.194.636-.633-.197-.65.478-.204-.404c-.118.447-.09.84.328.876.485.042.992-.088 1.481-.181.387-.074.601.055.613.408zm13.343-6.773a30.78 30.78 0 0 1-.308.067c-.032.393-.238.904-.06 1.154.4.561.53 1.664 1.768 1.1-.043.22-.072.361-.11.543l.414-.17-.495-.765.5-.075c.013-.089.029-.126.019-.154-.143-.413-.43-.81-.041-1.255.06-.068 0-.337-.09-.402-.11-.079-.319-.077-.468-.043-.153.035-.285.151-.5.273.897.505.252.926.082 1.347l-.593-.758.513-.04-.632-.822h.001zm1.128-1.608c.011.048.012.103.036.145.259.457.845.764.676 1.422-.009.034.133.135.219.158.321.09.649.16.973.238l.09-.052-.894-.842.068-.117.686.22c-.119-.332-.267-.49-.615-.387-.119.036-.375 0-.38-.029-.071-.47-.675-.392-.858-.756h-.001zm1.464.088l.068.207c.335.086.67.17 1.005.257-.012-.221.024-.458-.051-.656-.059-.154-.341-.388-.374-.368-.237.156-.437.367-.648.56zm-10.757 5.471c-.037.543.163.808.599.796l-.381-1.293c-.43.2-.62.452-.57.755l.352-.258zm12.648-6.96l-.067.073c.07.298.092.617.222.887.141.29.406.484.79.392l-.945-1.352zM8.07 25.99l-.212-1.792c-.241.693-.17 1.29.212 1.792zm1.667-1.86l-.262.03.104.862.224-.02-.066-.873v.001zm6.293.776l-.03.125 1.082.275c-.222-.591-.7-.32-1.052-.4zM5.874 22.198l-.582.176a72.44 72.44 0 0 1-.097-.084c.147-.25.29-.502.441-.75.18-.294.293-.569-.163-.697.007-.066-.003-.117.016-.13.783-.564 1.036-1.583 1.918-2.077.532-.298 1.006-.697 1.483-1.079.162-.13.254-.343.377-.52l-.008.012 2.23-1.57c.313-.22.63-.436.985-.68-.086 1.112-.733 1.793-1.53 2.377a.45.45 0 0 1-.241.086c-.786.014-1.093.673-1.569 1.1-.301.27-.6.545-.876.839-.309.328-.68.639-.864 1.028-.367.778-.944 1.374-1.528 1.976l.01-.01-.002.003z" fill="#841839"/><path d="M26.137 13.482c.15-.124.274-.218.388-.324.264-.242.813-.17.921.144.035.102-.006.322-.07.347-.268.106-.562.216-.842.207-.143-.005-.279-.257-.397-.374zM17.024 11.266c-.137.024-.28.08-.409.06a.427.427 0 0 1-.267-.2c-.028-.05.047-.188.113-.247.162-.142.332-.334.525-.368.196-.034.422.099.634.158-.113.18-.217.367-.349.532-.04.052-.163.044-.247.062v.003zM5.308 26.205c-.282-.012-.7.2-.636-.373l-.325.005.44-.401.512.779.007-.013.002.003zM5.864 22.208l.6-.169.07.079-.546.63-.372-.173.255-.377-.008.01zM33.775 13.83c.315.101.456.147.721.234l.156.336c-.132.052-.343.176-.375.141-.167-.177-.288-.395-.502-.713v.001z" fill="#841839"/></svg>