<svg width="42" height="32" fill="none" xmlns="http://www.w3.org/2000/svg"><path d="M7.506 31.93v-2.125c0-.814-.496-1.345-1.345-1.345-.425 0-.885.142-1.204.602-.248-.39-.602-.602-1.133-.602-.354 0-.707.106-.99.496v-.425H2.09v3.398h.743v-1.876c0-.602.319-.885.815-.885.495 0 .743.319.743.885v1.876h.743v-1.876c0-.602.354-.885.814-.885.496 0 .744.319.744.885v1.876h.814zm11.009-3.399H17.31v-1.026h-.743v1.026h-.673v.672h.673v1.558c0 .779.318 1.239 1.168 1.239.319 0 .672-.106.92-.248l-.212-.637c-.213.142-.46.177-.637.177-.354 0-.496-.212-.496-.566v-1.523h1.204v-.672zm6.3-.07a.998.998 0 0 0-.884.495v-.425h-.744v3.398h.744v-1.911c0-.567.247-.885.707-.885.142 0 .32.035.46.07l.213-.707c-.142-.036-.354-.036-.495-.036zm-9.522.353c-.354-.248-.85-.354-1.38-.354-.85 0-1.416.425-1.416 1.098 0 .566.425.884 1.168.99l.354.036c.39.07.602.177.602.354 0 .248-.283.425-.779.425-.495 0-.885-.177-1.133-.354l-.354.566c.39.283.92.425 1.452.425.99 0 1.557-.46 1.557-1.097 0-.602-.46-.92-1.168-1.027l-.354-.035c-.319-.036-.566-.106-.566-.319 0-.248.247-.39.637-.39.425 0 .85.178 1.062.284l.319-.602zm19.753-.354a.998.998 0 0 0-.885.496v-.425h-.744v3.398h.744v-1.911c0-.567.247-.885.707-.885.142 0 .32.035.46.07l.213-.707c-.141-.036-.354-.036-.495-.036zm-9.487 1.77c0 1.027.708 1.77 1.805 1.77.496 0 .85-.106 1.204-.39l-.354-.601c-.283.212-.566.319-.885.319-.602 0-1.027-.425-1.027-1.098 0-.637.425-1.062 1.027-1.097.319 0 .602.106.885.319l.354-.602c-.354-.284-.708-.39-1.204-.39-1.097 0-1.805.744-1.805 1.77zm6.867 0v-1.699h-.743v.425c-.248-.319-.602-.496-1.062-.496-.956 0-1.7.744-1.7 1.77 0 1.027.744 1.77 1.7 1.77.495 0 .85-.177 1.062-.495v.424h.743V30.23zm-2.726 0c0-.602.39-1.097 1.027-1.097.602 0 1.027.46 1.027 1.097 0 .602-.425 1.098-1.027 1.098-.637-.036-1.026-.496-1.026-1.098zm-8.884-1.77c-.992 0-1.7.708-1.7 1.77S19.824 32 20.851 32c.495 0 .991-.142 1.38-.46l-.354-.531a1.691 1.691 0 0 1-.99.354c-.46 0-.921-.212-1.027-.814h2.513v-.283c.036-1.098-.602-1.806-1.558-1.806zm0 .637c.46 0 .779.284.85.815h-1.77c.07-.46.389-.815.92-.815zm18.442 1.133v-3.044h-.743v1.77c-.248-.319-.602-.496-1.062-.496-.956 0-1.7.744-1.7 1.77 0 1.027.744 1.77 1.7 1.77.495 0 .85-.177 1.062-.495v.424h.743V30.23zm-2.726 0c0-.602.39-1.097 1.027-1.097.602 0 1.027.46 1.027 1.097 0 .602-.425 1.098-1.027 1.098-.637-.036-1.026-.496-1.026-1.098zm-24.85 0v-1.699h-.743v.425c-.247-.319-.601-.496-1.062-.496-.955 0-1.699.744-1.699 1.77 0 1.027.744 1.77 1.7 1.77.495 0 .849-.177 1.061-.495v.424h.744V30.23zm-2.76 0c0-.602.39-1.097 1.026-1.097.602 0 1.027.46 1.027 1.097 0 .602-.425 1.098-1.027 1.098-.637-.036-1.026-.496-1.026-1.098z" fill="#000"/><path d="M15.045 2.726h11.15V22.76h-11.15V2.726z" fill="#FF5F00"/><path d="M15.752 12.743c0-4.07 1.912-7.681 4.85-10.017A12.665 12.665 0 0 0 12.744 0C5.699 0 0 5.699 0 12.743c0 7.045 5.699 12.744 12.743 12.744 2.974 0 5.7-1.027 7.859-2.726a12.724 12.724 0 0 1-4.85-10.018z" fill="#EB001B"/><path d="M41.239 12.743c0 7.045-5.7 12.744-12.744 12.744-2.973 0-5.699-1.027-7.858-2.726a12.67 12.67 0 0 0 4.85-10.018c0-4.07-1.912-7.681-4.85-10.017A12.665 12.665 0 0 1 28.495 0C35.54 0 41.24 5.735 41.24 12.743z" fill="#F79E1B"/></svg>