<svg width="25" height="29" fill="none" xmlns="http://www.w3.org/2000/svg"><path d="M20.608 2.154C19.285.646 16.895 0 13.836 0H4.961a1.271 1.271 0 0 0-1.256 1.072L.01 24.51a.762.762 0 0 0 .752.88h5.48l1.376-8.728-.042.273a1.267 1.267 0 0 1 1.25-1.072h2.604c5.115 0 9.12-2.078 10.29-8.088.036-.178.066-.35.092-.52-.148-.078-.148-.078 0 0 .348-2.221-.003-3.733-1.204-5.102z" fill="#27346A"/><path d="M9.715 6.456c.15-.071.314-.108.48-.108h6.958c.824 0 1.593.053 2.295.166a9.624 9.624 0 0 1 1.401.335c.346.116.667.25.963.407.348-2.222-.003-3.733-1.204-5.102C19.284.646 16.895 0 13.836 0H4.96a1.27 1.27 0 0 0-1.255 1.072L.01 24.51a.762.762 0 0 0 .752.881h5.48L9.097 7.286a1.112 1.112 0 0 1 .618-.83z" fill="#27346A"/><path d="M21.721 7.776c-1.17 6.01-5.175 8.088-10.29 8.088H8.825c-.625 0-1.153.455-1.25 1.072L5.864 27.79a.667.667 0 0 0 .658.771h4.619a1.111 1.111 0 0 0 1.098-.937l.044-.236.871-5.517.056-.305a1.112 1.112 0 0 1 1.097-.938H15c4.474 0 7.978-1.818 9.002-7.075.427-2.197.206-4.032-.924-5.32a4.413 4.413 0 0 0-1.265-.976c-.027.17-.056.342-.091.52z" fill="#2790C3"/><path d="M20.587 6.768a8.541 8.541 0 0 0-.552-.141c-.195-.043-.39-.08-.586-.112a14.441 14.441 0 0 0-2.296-.167h-6.958a1.109 1.109 0 0 0-1.097.939l-1.48 9.376-.042.273a1.266 1.266 0 0 1 1.25-1.072h2.605c5.115 0 9.12-2.078 10.29-8.088.035-.178.064-.35.091-.52a6.32 6.32 0 0 0-1.225-.488" fill="#1F264F"/></svg>