<svg width="61" height="19" fill="none" xmlns="http://www.w3.org/2000/svg"><path d="M31.548 6.074c-.035 2.647 2.445 4.124 4.314 5.002 1.92.9 2.564 1.479 2.556 2.284-.014 1.234-1.53 1.778-2.95 1.799-2.477.037-3.917-.645-5.061-1.16l-.892 4.026c1.148.51 3.275.956 5.48.975 5.177 0 8.563-2.465 8.582-6.286.02-4.85-6.955-5.119-6.908-7.286.017-.658.667-1.36 2.092-1.538.705-.09 2.652-.159 4.86.822l.866-3.896C43.3.4 41.774 0 39.875 0c-4.873 0-8.3 2.498-8.327 6.074zM52.812.336c-.945 0-1.742.531-2.097 1.348l-7.395 17.03h5.173l1.03-2.744h6.32l.598 2.744H61L57.021.336h-4.209zm.724 4.964l1.493 6.901H50.94l2.596-6.9zM25.276.336l-4.078 18.378h4.93L30.203.335h-4.927zm-7.292 0l-5.13 12.509-2.076-10.637C10.534 1.021 9.572.336 8.504.336H.117L0 .869c1.722.36 3.678.942 4.863 1.564.726.38.932.712 1.17 1.615l3.932 14.666h5.209L23.16.336h-5.176" fill="url(#paint0_linear_513_108)"/><defs><linearGradient id="paint0_linear_513_108" x1="28.044" y1="19.381" x2="28.575" y2="-.133" gradientUnits="userSpaceOnUse"><stop stop-color="#222357"/><stop offset="1" stop-color="#254AA5"/></linearGradient></defs></svg>