<svg width="3840" height="2160" fill="none" xmlns="http://www.w3.org/2000/svg"><path fill="#EB3333" d="M0 0h3840v2160H0z"/><g opacity=".5" fill="#fff"><path d="M133.465 191.05c2.519 3.139 5.29 6.023 8.144 8.823 13.603 13.064 30.984 22.396 50.38 26.384v-11.708c-16.121-3.732-30.564-11.792-41.983-22.736-3.778-3.563-7.137-7.55-10.16-11.707l-6.381 10.944z"/><path d="M91.314 178.833c12.678-12.216 20.571-29.098 20.571-47.592V80h11.923v51.326c0 8.992 1.512 19.597 4.199 27.741 2.771-8.229 4.198-18.749 4.198-27.741V80h11.923v51.326c0 18.494 7.893 35.376 20.572 47.592 7.557 7.296 16.877 12.895 27.289 16.289v11.962a83.114 83.114 0 0 1-35.686-20.191c-7.389-7.042-13.35-15.44-17.465-24.772-3.106 8.059-6.549 15.694-10.831 21.463-4.282-5.769-7.725-13.404-10.832-21.463-4.198 9.332-10.16 17.646-17.465 24.772-9.74 9.416-22 16.458-35.686 20.191v-11.962c10.412-3.394 19.733-9.078 27.29-16.374z"/><path d="M163.189 130.223c0 13.489 5.709 25.79 15.03 34.697a53.031 53.031 0 0 0 13.854 9.502v12.471a63.717 63.717 0 0 1-22.251-13.828c-11.419-10.944-18.473-26.13-18.473-42.757v-11.623h11.924v11.538h-.084zM92.909 118.685h11.923v11.538c0 16.627-7.053 31.813-18.472 42.757a63.707 63.707 0 0 1-22.252 13.828v-12.471a50.478 50.478 0 0 0 13.855-9.501c9.236-8.908 15.03-21.209 15.03-34.698v-11.453h-.084zM116.252 180.191c-3.023 4.157-6.466 8.059-10.16 11.707-11.42 10.944-25.862 19.003-41.984 22.736v11.707c19.397-3.987 36.862-13.319 50.38-26.383 2.939-2.8 5.626-5.769 8.145-8.823l-6.381-10.944zM1296.07 191.05c2.52 3.139 5.29 6.023 8.14 8.823 13.6 13.064 30.98 22.396 50.38 26.384v-11.708c-16.12-3.732-30.56-11.792-41.98-22.736-3.78-3.563-7.14-7.55-10.16-11.707l-6.38 10.944z"/><path d="M1253.92 178.833c12.67-12.216 20.57-29.098 20.57-47.592V80h11.92v51.326c0 8.992 1.51 19.597 4.2 27.741 2.77-8.229 4.2-18.749 4.2-27.741V80h11.92v51.326c0 18.494 7.89 35.376 20.57 47.592 7.56 7.296 16.88 12.895 27.29 16.289v11.962a83.04 83.04 0 0 1-35.68-20.191c-7.39-7.042-13.36-15.44-17.47-24.772-3.11 8.059-6.55 15.694-10.83 21.463-4.28-5.769-7.73-13.404-10.83-21.463-4.2 9.332-10.16 17.646-17.47 24.772-9.74 9.416-22 16.458-35.68 20.191v-11.962c10.41-3.394 19.73-9.078 27.29-16.374z"/><path d="M1325.79 130.223c0 13.489 5.71 25.79 15.03 34.697a53.11 53.11 0 0 0 13.85 9.502v12.471a63.785 63.785 0 0 1-22.25-13.828c-11.42-10.944-18.47-26.13-18.47-42.757v-11.623h11.92v11.538h-.08zM1255.51 118.685h11.92v11.538c0 16.627-7.05 31.813-18.47 42.757a63.694 63.694 0 0 1-22.25 13.828v-12.471a50.48 50.48 0 0 0 13.85-9.501c9.24-8.908 15.03-21.209 15.03-34.698v-11.453h-.08zM1278.85 180.191c-3.02 4.157-6.46 8.059-10.16 11.707-11.42 10.944-25.86 19.003-41.98 22.736v11.707c19.4-3.987 36.86-13.319 50.38-26.383 2.94-2.8 5.63-5.769 8.14-8.823l-6.38-10.944zM133.465 808.936c2.519 3.139 5.29 6.023 8.144 8.823 13.603 13.065 30.984 22.397 50.38 26.384v-11.707c-16.121-3.733-30.564-11.793-41.983-22.736-3.778-3.564-7.137-7.551-10.16-11.708l-6.381 10.944z"/><path d="M91.314 796.72c12.678-12.217 20.571-29.099 20.571-47.593v-51.241h11.923v51.326c0 8.992 1.512 19.597 4.199 27.741 2.771-8.229 4.198-18.749 4.198-27.741v-51.326h11.923v51.326c0 18.494 7.893 35.376 20.572 47.593 7.557 7.295 16.877 12.895 27.289 16.288v11.962a83.104 83.104 0 0 1-35.686-20.191c-7.389-7.041-13.35-15.44-17.465-24.772-3.106 8.059-6.549 15.695-10.831 21.463-4.282-5.768-7.725-13.404-10.832-21.463-4.198 9.332-10.16 17.646-17.465 24.772-9.74 9.417-22 16.458-35.686 20.191v-11.962c10.412-3.393 19.733-9.077 27.29-16.373z"/><path d="M163.189 748.109c0 13.489 5.709 25.79 15.03 34.698 4.03 3.817 8.648 7.041 13.854 9.501v12.471a63.717 63.717 0 0 1-22.251-13.828c-11.419-10.944-18.473-26.129-18.473-42.757v-11.623h11.924v11.538h-.084zM92.909 736.571h11.923v11.538c0 16.628-7.053 31.813-18.472 42.757a63.707 63.707 0 0 1-22.252 13.828v-12.471a50.478 50.478 0 0 0 13.855-9.501c9.236-8.908 15.03-21.209 15.03-34.698v-11.453h-.084zM116.252 798.077c-3.023 4.157-6.466 8.059-10.16 11.707-11.42 10.944-25.862 19.004-41.984 22.736v11.708c19.397-3.988 36.862-13.32 50.38-26.384 2.939-2.8 5.626-5.769 8.145-8.823l-6.381-10.944zM1296.07 808.936c2.52 3.139 5.29 6.023 8.14 8.823 13.6 13.065 30.98 22.397 50.38 26.384v-11.707c-16.12-3.733-30.56-11.793-41.98-22.736-3.78-3.564-7.14-7.551-10.16-11.708l-6.38 10.944z"/><path d="M1253.92 796.72c12.67-12.217 20.57-29.099 20.57-47.593v-51.241h11.92v51.326c0 8.992 1.51 19.597 4.2 27.741 2.77-8.229 4.2-18.749 4.2-27.741v-51.326h11.92v51.326c0 18.494 7.89 35.376 20.57 47.593 7.56 7.295 16.88 12.895 27.29 16.288v11.962a83.03 83.03 0 0 1-35.68-20.191c-7.39-7.041-13.36-15.44-17.47-24.772-3.11 8.059-6.55 15.695-10.83 21.463-4.28-5.768-7.73-13.404-10.83-21.463-4.2 9.332-10.16 17.646-17.47 24.772-9.74 9.417-22 16.458-35.68 20.191v-11.962c10.41-3.393 19.73-9.077 27.29-16.373z"/><path d="M1325.79 748.109c0 13.489 5.71 25.79 15.03 34.698a53.13 53.13 0 0 0 13.85 9.501v12.471a63.785 63.785 0 0 1-22.25-13.828c-11.42-10.944-18.47-26.129-18.47-42.757v-11.623h11.92v11.538h-.08zM1255.51 736.571h11.92v11.538c0 16.628-7.05 31.813-18.47 42.757a63.694 63.694 0 0 1-22.25 13.828v-12.471a50.48 50.48 0 0 0 13.85-9.501c9.24-8.908 15.03-21.209 15.03-34.698v-11.453h-.08zM1278.85 798.077c-3.02 4.157-6.46 8.059-10.16 11.707-11.42 10.944-25.86 19.004-41.98 22.736v11.708c19.4-3.988 36.86-13.32 50.38-26.384 2.94-2.8 5.63-5.769 8.14-8.823l-6.38-10.944zM133.465 1426.82c2.519 3.14 5.29 6.03 8.144 8.83 13.603 13.06 30.984 22.39 50.38 26.38v-11.71c-16.121-3.73-30.564-11.79-41.983-22.73-3.778-3.57-7.137-7.55-10.16-11.71l-6.381 10.94z"/><path d="M91.314 1414.61c12.678-12.22 20.571-29.1 20.571-47.6v-51.24h11.923v51.33c0 8.99 1.512 19.6 4.199 27.74 2.771-8.23 4.198-18.75 4.198-27.74v-51.33h11.923v51.33c0 18.49 7.893 35.37 20.572 47.59 7.557 7.3 16.877 12.9 27.289 16.29v11.96a83.04 83.04 0 0 1-35.686-20.19c-7.389-7.04-13.35-15.44-17.465-24.77-3.106 8.06-6.549 15.69-10.831 21.46-4.282-5.77-7.725-13.4-10.832-21.46-4.198 9.33-10.16 17.64-17.465 24.77-9.74 9.42-22 16.46-35.686 20.19v-11.96c10.412-3.39 19.733-9.08 27.29-16.37z"/><path d="M163.189 1366c0 13.48 5.709 25.79 15.03 34.69a52.976 52.976 0 0 0 13.854 9.5v12.48a63.853 63.853 0 0 1-22.251-13.83c-11.419-10.95-18.473-26.13-18.473-42.76v-11.62h11.924V1366h-.084zM92.909 1354.46h11.923V1366c0 16.62-7.053 31.81-18.472 42.75a63.552 63.552 0 0 1-22.252 13.83v-12.47a50.628 50.628 0 0 0 13.855-9.5c9.236-8.91 15.03-21.21 15.03-34.7v-11.45h-.084zM116.252 1415.96c-3.023 4.16-6.466 8.06-10.16 11.71-11.42 10.94-25.862 19-41.984 22.74v11.7c19.397-3.98 36.862-13.32 50.38-26.38 2.939-2.8 5.626-5.77 8.145-8.82l-6.381-10.95zM133.465 2044.71c2.519 3.14 5.29 6.02 8.144 8.82 13.603 13.07 30.984 22.4 50.38 26.38v-11.7a90.172 90.172 0 0 1-41.983-22.74c-3.778-3.56-7.137-7.55-10.16-11.71l-6.381 10.95z"/><path d="M91.314 2032.49c12.678-12.21 20.571-29.1 20.571-47.59v-51.24h11.923v51.32c0 9 1.512 19.6 4.199 27.74 2.771-8.22 4.198-18.74 4.198-27.74v-51.32h11.923v51.32c0 18.5 7.893 35.38 20.572 47.6 7.557 7.29 16.877 12.89 27.289 16.28v11.97a83.245 83.245 0 0 1-35.686-20.19c-7.389-7.05-13.35-15.44-17.465-24.78-3.106 8.06-6.549 15.7-10.831 21.47-4.282-5.77-7.725-13.41-10.832-21.47-4.198 9.34-10.16 17.65-17.465 24.78-9.74 9.41-22 16.45-35.686 20.19v-11.97c10.412-3.39 19.733-9.07 27.29-16.37z"/><path d="M163.189 1983.88c0 13.49 5.709 25.79 15.03 34.7a52.976 52.976 0 0 0 13.854 9.5v12.47a63.561 63.561 0 0 1-22.251-13.83c-11.419-10.94-18.473-26.13-18.473-42.75v-11.63h11.924v11.54h-.084zM92.909 1972.34h11.923v11.54c0 16.63-7.053 31.81-18.472 42.76a63.843 63.843 0 0 1-22.252 13.83V2028a50.442 50.442 0 0 0 13.855-9.51c9.236-8.9 15.03-21.21 15.03-34.69v-11.46h-.084zM116.252 2033.85c-3.023 4.16-6.466 8.06-10.16 11.71-11.42 10.94-25.862 19-41.984 22.73V2080c19.397-3.99 36.862-13.32 50.38-26.38 2.939-2.8 5.626-5.77 8.145-8.83l-6.381-10.94zM1296.07 1426.82c2.52 3.14 5.29 6.03 8.14 8.83 13.6 13.06 30.98 22.39 50.38 26.38v-11.71c-16.12-3.73-30.56-11.79-41.98-22.73-3.78-3.57-7.14-7.55-10.16-11.71l-6.38 10.94z"/><path d="M1253.92 1414.61c12.67-12.22 20.57-29.1 20.57-47.6v-51.24h11.92v51.33c0 8.99 1.51 19.6 4.2 27.74 2.77-8.23 4.2-18.75 4.2-27.74v-51.33h11.92v51.33c0 18.49 7.89 35.37 20.57 47.59 7.56 7.3 16.88 12.9 27.29 16.29v11.96a82.967 82.967 0 0 1-35.68-20.19c-7.39-7.04-13.36-15.44-17.47-24.77-3.11 8.06-6.55 15.69-10.83 21.46-4.28-5.77-7.73-13.4-10.83-21.46-4.2 9.33-10.16 17.64-17.47 24.77-9.74 9.42-22 16.46-35.68 20.19v-11.96c10.41-3.39 19.73-9.08 27.29-16.37z"/><path d="M1325.79 1366c0 13.48 5.71 25.79 15.03 34.69 4.03 3.82 8.65 7.04 13.85 9.5v12.48a63.922 63.922 0 0 1-22.25-13.83c-11.42-10.95-18.47-26.13-18.47-42.76v-11.62h11.92V1366h-.08zM1255.51 1354.46h11.92V1366c0 16.62-7.05 31.81-18.47 42.75a63.54 63.54 0 0 1-22.25 13.83v-12.47a50.63 50.63 0 0 0 13.85-9.5c9.24-8.91 15.03-21.21 15.03-34.7v-11.45h-.08zM1278.85 1415.96c-3.02 4.16-6.46 8.06-10.16 11.71-11.42 10.94-25.86 19-41.98 22.74v11.7c19.4-3.98 36.86-13.32 50.38-26.38 2.94-2.8 5.63-5.77 8.14-8.82l-6.38-10.95zM1296.07 2044.71c2.52 3.14 5.29 6.02 8.14 8.82 13.6 13.07 30.98 22.4 50.38 26.38v-11.7a90.172 90.172 0 0 1-41.98-22.74c-3.78-3.56-7.14-7.55-10.16-11.71l-6.38 10.95z"/><path d="M1253.92 2032.49c12.67-12.21 20.57-29.1 20.57-47.59v-51.24h11.92v51.32c0 9 1.51 19.6 4.2 27.74 2.77-8.22 4.2-18.74 4.2-27.74v-51.32h11.92v51.32c0 18.5 7.89 35.38 20.57 47.6 7.56 7.29 16.88 12.89 27.29 16.28v11.97a83.172 83.172 0 0 1-35.68-20.19c-7.39-7.05-13.36-15.44-17.47-24.78-3.11 8.06-6.55 15.7-10.83 21.47-4.28-5.77-7.73-13.41-10.83-21.47-4.2 9.34-10.16 17.65-17.47 24.78-9.74 9.41-22 16.45-35.68 20.19v-11.97c10.41-3.39 19.73-9.07 27.29-16.37z"/><path d="M1325.79 1983.88c0 13.49 5.71 25.79 15.03 34.7 4.03 3.82 8.65 7.04 13.85 9.5v12.47a63.63 63.63 0 0 1-22.25-13.83c-11.42-10.94-18.47-26.13-18.47-42.75v-11.63h11.92v11.54h-.08zM1255.51 1972.34h11.92v11.54c0 16.63-7.05 31.81-18.47 42.76a63.83 63.83 0 0 1-22.25 13.83V2028c5.12-2.38 9.82-5.6 13.85-9.51 9.24-8.9 15.03-21.21 15.03-34.69v-11.46h-.08zM1278.85 2033.85c-3.02 4.16-6.46 8.06-10.16 11.71-11.42 10.94-25.86 19-41.98 22.73V2080c19.4-3.99 36.86-13.32 50.38-26.38 2.94-2.8 5.63-5.77 8.14-8.83l-6.38-10.94zM714.765 191.05c2.519 3.139 5.29 6.023 8.145 8.823 13.603 13.064 30.984 22.396 50.38 26.384v-11.708c-16.122-3.732-30.564-11.792-41.983-22.736-3.779-3.563-7.137-7.55-10.16-11.707l-6.382 10.944z"/><path d="M672.614 178.833c12.679-12.216 20.572-29.098 20.572-47.592V80h11.923v51.326c0 8.992 1.512 19.597 4.199 27.741 2.77-8.229 4.198-18.749 4.198-27.741V80h11.923v51.326c0 18.494 7.893 35.376 20.572 47.592 7.557 7.296 16.877 12.895 27.289 16.289v11.962a83.103 83.103 0 0 1-35.686-20.191c-7.389-7.042-13.35-15.44-17.465-24.772-3.107 8.059-6.549 15.694-10.831 21.463-4.283-5.769-7.725-13.404-10.832-21.463-4.198 9.332-10.16 17.646-17.465 24.772-9.74 9.416-21.999 16.458-35.686 20.191v-11.962c10.412-3.394 19.732-9.078 27.289-16.374z"/><path d="M744.489 130.223c0 13.489 5.71 25.79 15.03 34.697 4.031 3.818 8.649 7.042 13.855 9.502v12.471a63.698 63.698 0 0 1-22.251-13.828c-11.42-10.944-18.473-26.13-18.473-42.757v-11.623h11.923v11.538h-.084zM674.21 118.685h11.923v11.538c0 16.627-7.053 31.813-18.473 42.757a63.698 63.698 0 0 1-22.251 13.828v-12.471a50.49 50.49 0 0 0 13.855-9.501c9.236-8.908 15.03-21.209 15.03-34.698v-11.453h-.084zM697.552 180.191c-3.023 4.157-6.465 8.059-10.16 11.707-11.419 10.944-25.861 19.003-41.983 22.736v11.707c19.396-3.987 36.861-13.319 50.38-26.383 2.939-2.8 5.626-5.769 8.145-8.823l-6.382-10.944zM714.765 808.936c2.519 3.139 5.29 6.023 8.145 8.823 13.603 13.065 30.984 22.397 50.38 26.384v-11.707c-16.122-3.733-30.564-11.793-41.983-22.736-3.779-3.564-7.137-7.551-10.16-11.708l-6.382 10.944z"/><path d="M672.614 796.72c12.679-12.217 20.572-29.099 20.572-47.593v-51.241h11.923v51.326c0 8.992 1.512 19.597 4.199 27.741 2.77-8.229 4.198-18.749 4.198-27.741v-51.326h11.923v51.326c0 18.494 7.893 35.376 20.572 47.593 7.557 7.295 16.877 12.895 27.289 16.288v11.962a83.092 83.092 0 0 1-35.686-20.191c-7.389-7.041-13.35-15.44-17.465-24.772-3.107 8.059-6.549 15.695-10.831 21.463-4.283-5.768-7.725-13.404-10.832-21.463-4.198 9.332-10.16 17.646-17.465 24.772-9.74 9.417-21.999 16.458-35.686 20.191v-11.962c10.412-3.393 19.732-9.077 27.289-16.373z"/><path d="M744.489 748.109c0 13.489 5.71 25.79 15.03 34.698 4.031 3.817 8.649 7.041 13.855 9.501v12.471a63.698 63.698 0 0 1-22.251-13.828c-11.42-10.944-18.473-26.129-18.473-42.757v-11.623h11.923v11.538h-.084zM674.21 736.571h11.923v11.538c0 16.628-7.053 31.813-18.473 42.757a63.698 63.698 0 0 1-22.251 13.828v-12.471a50.49 50.49 0 0 0 13.855-9.501c9.236-8.908 15.03-21.209 15.03-34.698v-11.453h-.084zM697.552 798.077c-3.023 4.157-6.465 8.059-10.16 11.707-11.419 10.944-25.861 19.004-41.983 22.736v11.708c19.396-3.988 36.861-13.32 50.38-26.384 2.939-2.8 5.626-5.769 8.145-8.823l-6.382-10.944zM1877.37 808.936c2.52 3.139 5.29 6.023 8.14 8.823 13.6 13.065 30.99 22.397 50.38 26.384v-11.707c-16.12-3.733-30.56-11.793-41.98-22.736-3.78-3.564-7.14-7.551-10.16-11.708l-6.38 10.944z"/><path d="M1835.22 796.72c12.67-12.217 20.57-29.099 20.57-47.593v-51.241h11.92v51.326c0 8.992 1.51 19.597 4.2 27.741 2.77-8.229 4.2-18.749 4.2-27.741v-51.326h11.92v51.326c0 18.494 7.89 35.376 20.57 47.593 7.56 7.295 16.88 12.895 27.29 16.288v11.962a83.088 83.088 0 0 1-35.68-20.191c-7.39-7.041-13.35-15.44-17.47-24.772-3.11 8.059-6.55 15.695-10.83 21.463-4.28-5.768-7.73-13.404-10.83-21.463-4.2 9.332-10.16 17.646-17.47 24.772-9.74 9.417-22 16.458-35.68 20.191v-11.962c10.41-3.393 19.73-9.077 27.29-16.373z"/><path d="M1907.09 748.109c0 13.489 5.71 25.79 15.03 34.698a53.018 53.018 0 0 0 13.86 9.501v12.471a63.736 63.736 0 0 1-22.26-13.828c-11.41-10.944-18.47-26.129-18.47-42.757v-11.623h11.93v11.538h-.09zM1836.81 736.571h11.92v11.538c0 16.628-7.05 31.813-18.47 42.757a63.694 63.694 0 0 1-22.25 13.828v-12.471a50.68 50.68 0 0 0 13.86-9.501c9.23-8.908 15.03-21.209 15.03-34.698v-11.453h-.09zM1860.15 798.077c-3.02 4.157-6.46 8.059-10.16 11.707-11.42 10.944-25.86 19.004-41.98 22.736v11.708c19.4-3.988 36.86-13.32 50.38-26.384 2.94-2.8 5.63-5.769 8.15-8.823l-6.39-10.944zM714.765 1426.82c2.519 3.14 5.29 6.03 8.145 8.83 13.603 13.06 30.984 22.39 50.38 26.38v-11.71c-16.122-3.73-30.564-11.79-41.983-22.73-3.779-3.57-7.137-7.55-10.16-11.71l-6.382 10.94z"/><path d="M672.614 1414.61c12.679-12.22 20.572-29.1 20.572-47.6v-51.24h11.923v51.33c0 8.99 1.512 19.6 4.199 27.74 2.77-8.23 4.198-18.75 4.198-27.74v-51.33h11.923v51.33c0 18.49 7.893 35.37 20.572 47.59 7.557 7.3 16.877 12.9 27.289 16.29v11.96a83.03 83.03 0 0 1-35.686-20.19c-7.389-7.04-13.35-15.44-17.465-24.77-3.107 8.06-6.549 15.69-10.831 21.46-4.283-5.77-7.725-13.4-10.832-21.46-4.198 9.33-10.16 17.64-17.465 24.77-9.74 9.42-21.999 16.46-35.686 20.19v-11.96c10.412-3.39 19.732-9.08 27.289-16.37z"/><path d="M744.489 1366c0 13.48 5.71 25.79 15.03 34.69a52.998 52.998 0 0 0 13.855 9.5v12.48a63.835 63.835 0 0 1-22.251-13.83c-11.42-10.95-18.473-26.13-18.473-42.76v-11.62h11.923V1366h-.084zM674.21 1354.46h11.923V1366c0 16.62-7.053 31.81-18.473 42.75a63.543 63.543 0 0 1-22.251 13.83v-12.47a50.64 50.64 0 0 0 13.855-9.5c9.236-8.91 15.03-21.21 15.03-34.7v-11.45h-.084zM697.552 1415.96c-3.023 4.16-6.465 8.06-10.16 11.71-11.419 10.94-25.861 19-41.983 22.74v11.7c19.396-3.98 36.861-13.32 50.38-26.38 2.939-2.8 5.626-5.77 8.145-8.82l-6.382-10.95zM714.765 2044.71c2.519 3.14 5.29 6.02 8.145 8.82 13.603 13.07 30.984 22.4 50.38 26.38v-11.7a90.168 90.168 0 0 1-41.983-22.74c-3.779-3.56-7.137-7.55-10.16-11.71l-6.382 10.95z"/><path d="M672.614 2032.49c12.679-12.21 20.572-29.1 20.572-47.59v-51.24h11.923v51.32c0 9 1.512 19.6 4.199 27.74 2.77-8.22 4.198-18.74 4.198-27.74v-51.32h11.923v51.32c0 18.5 7.893 35.38 20.572 47.6 7.557 7.29 16.877 12.89 27.289 16.28v11.97a83.234 83.234 0 0 1-35.686-20.19c-7.389-7.05-13.35-15.44-17.465-24.78-3.107 8.06-6.549 15.7-10.831 21.47-4.283-5.77-7.725-13.41-10.832-21.47-4.198 9.34-10.16 17.65-17.465 24.78-9.74 9.41-21.999 16.45-35.686 20.19v-11.97c10.412-3.39 19.732-9.07 27.289-16.37z"/><path d="M744.489 1983.88c0 13.49 5.71 25.79 15.03 34.7a52.998 52.998 0 0 0 13.855 9.5v12.47a63.543 63.543 0 0 1-22.251-13.83c-11.42-10.94-18.473-26.13-18.473-42.75v-11.63h11.923v11.54h-.084zM674.21 1972.34h11.923v11.54c0 16.63-7.053 31.81-18.473 42.76a63.835 63.835 0 0 1-22.251 13.83V2028a50.454 50.454 0 0 0 13.855-9.51c9.236-8.9 15.03-21.21 15.03-34.69v-11.46h-.084zM697.552 2033.85c-3.023 4.16-6.465 8.06-10.16 11.71-11.419 10.94-25.861 19-41.983 22.73V2080c19.396-3.99 36.861-13.32 50.38-26.38 2.939-2.8 5.626-5.77 8.145-8.83l-6.382-10.94zM1877.37 1426.82c2.52 3.14 5.29 6.03 8.14 8.83 13.6 13.06 30.99 22.39 50.38 26.38v-11.71c-16.12-3.73-30.56-11.79-41.98-22.73-3.78-3.57-7.14-7.55-10.16-11.71l-6.38 10.94z"/><path d="M1835.22 1414.61c12.67-12.22 20.57-29.1 20.57-47.6v-51.24h11.92v51.33c0 8.99 1.51 19.6 4.2 27.74 2.77-8.23 4.2-18.75 4.2-27.74v-51.33h11.92v51.33c0 18.49 7.89 35.37 20.57 47.59 7.56 7.3 16.88 12.9 27.29 16.29v11.96a83.025 83.025 0 0 1-35.68-20.19c-7.39-7.04-13.35-15.44-17.47-24.77-3.11 8.06-6.55 15.69-10.83 21.46-4.28-5.77-7.73-13.4-10.83-21.46-4.2 9.33-10.16 17.64-17.47 24.77-9.74 9.42-22 16.46-35.68 20.19v-11.96c10.41-3.39 19.73-9.08 27.29-16.37z"/><path d="M1907.09 1366c0 13.48 5.71 25.79 15.03 34.69 4.03 3.82 8.65 7.04 13.86 9.5v12.48a63.872 63.872 0 0 1-22.26-13.83c-11.41-10.95-18.47-26.13-18.47-42.76v-11.62h11.93V1366h-.09zM1836.81 1354.46h11.92V1366c0 16.62-7.05 31.81-18.47 42.75a63.54 63.54 0 0 1-22.25 13.83v-12.47c5.12-2.38 9.82-5.6 13.86-9.5 9.23-8.91 15.03-21.21 15.03-34.7v-11.45h-.09zM1860.15 1415.96c-3.02 4.16-6.46 8.06-10.16 11.71-11.42 10.94-25.86 19-41.98 22.74v11.7c19.4-3.98 36.86-13.32 50.38-26.38 2.94-2.8 5.63-5.77 8.15-8.82l-6.39-10.95zM424.115 499.993c2.519 3.139 5.29 6.024 8.145 8.823 13.602 13.065 30.983 22.397 50.38 26.384v-11.707c-16.122-3.733-30.564-11.792-41.984-22.736-3.778-3.563-7.137-7.551-10.16-11.708l-6.381 10.944z"/><path d="M381.964 487.777c12.679-12.216 20.572-29.099 20.572-47.593v-51.241h11.923v51.326c0 8.992 1.511 19.597 4.198 27.741 2.771-8.229 4.198-18.749 4.198-27.741v-51.326h11.924v51.326c0 18.494 7.893 35.376 20.571 47.593 7.557 7.296 16.878 12.895 27.29 16.288v11.962a83.092 83.092 0 0 1-35.686-20.191c-7.389-7.041-13.351-15.44-17.465-24.772-3.107 8.059-6.55 15.695-10.832 21.463-4.282-5.768-7.725-13.404-10.831-21.463-4.199 9.332-10.16 17.646-17.465 24.772-9.741 9.417-22 16.458-35.686 20.191V504.15c10.412-3.393 19.732-9.077 27.289-16.373z"/><path d="M453.839 439.166c0 13.489 5.71 25.79 15.03 34.698a53.057 53.057 0 0 0 13.855 9.501v12.471a63.712 63.712 0 0 1-22.252-13.828C449.053 471.064 442 455.879 442 439.251v-11.623h11.923v11.538h-.084zM383.559 427.628h11.923v11.538c0 16.628-7.053 31.813-18.472 42.757a63.702 63.702 0 0 1-22.251 13.828v-12.47a50.495 50.495 0 0 0 13.854-9.502c9.237-8.908 15.03-21.209 15.03-34.698v-11.453h-.084zM406.902 489.134c-3.023 4.157-6.466 8.06-10.16 11.708-11.419 10.943-25.862 19.003-41.983 22.735v11.708c19.396-3.987 36.861-13.319 50.38-26.384 2.938-2.8 5.625-5.769 8.144-8.823l-6.381-10.944zM1586.72 499.993c2.52 3.139 5.29 6.023 8.14 8.823 13.6 13.064 30.99 22.396 50.38 26.384v-11.708c-16.12-3.733-30.56-11.792-41.98-22.736-3.78-3.563-7.14-7.55-10.16-11.707l-6.38 10.944z"/><path d="M1544.57 487.776c12.67-12.216 20.57-29.098 20.57-47.592v-51.241h11.92v51.325c0 8.993 1.51 19.597 4.2 27.742 2.77-8.229 4.2-18.749 4.2-27.742v-51.325h11.92v51.325c0 18.495 7.89 35.377 20.57 47.593 7.56 7.296 16.88 12.895 27.29 16.289v11.961a83.028 83.028 0 0 1-35.68-20.19c-7.39-7.042-13.36-15.44-17.47-24.772-3.11 8.059-6.55 15.694-10.83 21.463-4.28-5.769-7.73-13.404-10.83-21.463-4.2 9.332-10.16 17.645-17.47 24.772-9.74 9.416-22 16.458-35.68 20.19V504.15c10.41-3.394 19.73-9.078 27.29-16.374z"/><path d="M1616.44 439.166c0 13.488 5.71 25.79 15.03 34.697a52.997 52.997 0 0 0 13.86 9.502v12.471a63.736 63.736 0 0 1-22.26-13.828c-11.42-10.944-18.47-26.13-18.47-42.758v-11.622h11.92v11.538h-.08zM1546.16 427.628h11.92v11.538c0 16.627-7.05 31.813-18.47 42.757a63.694 63.694 0 0 1-22.25 13.828V483.28a50.461 50.461 0 0 0 13.85-9.502c9.24-8.907 15.03-21.208 15.03-34.697v-11.453h-.08zM1569.5 489.134c-3.02 4.157-6.46 8.059-10.16 11.707-11.42 10.944-25.86 19.003-41.98 22.736v11.707c19.4-3.987 36.86-13.319 50.38-26.384 2.94-2.799 5.63-5.768 8.15-8.822l-6.39-10.944zM1877.44 191.05c2.52 3.139 5.29 6.023 8.14 8.823 13.61 13.064 30.99 22.396 50.38 26.384v-11.708c-16.12-3.732-30.56-11.792-41.98-22.736-3.78-3.563-7.14-7.55-10.16-11.707l-6.38 10.944z"/><path d="M1835.29 178.833c12.68-12.216 20.57-29.098 20.57-47.592V80h11.92v51.326c0 8.992 1.52 19.597 4.2 27.741 2.77-8.229 4.2-18.749 4.2-27.741V80h11.92v51.326c0 18.494 7.9 35.376 20.58 47.592 7.55 7.296 16.87 12.895 27.28 16.289v11.962a83.099 83.099 0 0 1-35.68-20.191c-7.39-7.042-13.35-15.44-17.47-24.772-3.1 8.059-6.55 15.694-10.83 21.463-4.28-5.769-7.72-13.404-10.83-21.463-4.2 9.332-10.16 17.646-17.46 24.772-9.74 9.416-22 16.458-35.69 20.191v-11.962c10.41-3.394 19.73-9.078 27.29-16.374z"/><path d="M1907.16 130.223c0 13.489 5.71 25.79 15.03 34.697a52.997 52.997 0 0 0 13.86 9.502v12.471a63.694 63.694 0 0 1-22.25-13.828c-11.42-10.944-18.47-26.13-18.47-42.757v-11.623h11.92v11.538h-.09zM1836.88 118.685h11.93v11.538c0 16.627-7.06 31.813-18.47 42.757a63.736 63.736 0 0 1-22.26 13.828v-12.471a50.38 50.38 0 0 0 13.86-9.501c9.23-8.908 15.03-21.209 15.03-34.698v-11.453h-.09zM1860.23 180.191c-3.03 4.157-6.47 8.059-10.16 11.707-11.42 10.944-25.86 19.003-41.99 22.736v11.707c19.4-3.987 36.87-13.319 50.38-26.383 2.94-2.8 5.63-5.769 8.15-8.823l-6.38-10.944zM1005.42 499.993c2.51 3.139 5.29 6.024 8.14 8.823 13.6 13.065 30.98 22.397 50.38 26.384v-11.707c-16.12-3.733-30.56-11.792-41.98-22.736-3.78-3.563-7.14-7.551-10.16-11.708l-6.38 10.944z"/><path d="M963.265 487.777c12.679-12.216 20.571-29.099 20.571-47.593v-51.241h11.924v51.326c0 8.992 1.511 19.597 4.198 27.741 2.772-8.229 4.202-18.749 4.202-27.741v-51.326h11.92v51.326c0 18.494 7.89 35.376 20.57 47.593 7.56 7.296 16.88 12.895 27.29 16.288v11.962a83.124 83.124 0 0 1-35.69-20.191c-7.38-7.041-13.35-15.44-17.46-24.772-3.11 8.059-6.55 15.695-10.832 21.463-4.282-5.768-7.725-13.404-10.832-21.463-4.198 9.332-10.16 17.646-17.465 24.772-9.74 9.417-21.999 16.458-35.685 20.191V504.15c10.411-3.393 19.732-9.077 27.289-16.373z"/><path d="M1035.14 439.166c0 13.489 5.71 25.79 15.03 34.698a53.13 53.13 0 0 0 13.85 9.501v12.471a63.785 63.785 0 0 1-22.25-13.828c-11.42-10.944-18.47-26.129-18.47-42.757v-11.623h11.92v11.538h-.08zM964.86 427.628h11.923v11.538c0 16.628-7.053 31.813-18.472 42.757a63.702 63.702 0 0 1-22.251 13.828v-12.47a50.495 50.495 0 0 0 13.854-9.502c9.236-8.908 15.03-21.209 15.03-34.698v-11.453h-.084zM988.203 489.134c-3.023 4.157-6.466 8.06-10.16 11.708-11.42 10.943-25.862 19.003-41.983 22.735v11.708c19.396-3.987 36.861-13.319 50.379-26.384 2.939-2.8 5.626-5.769 8.145-8.823l-6.381-10.944zM1586.72 1117.88c2.52 3.14 5.29 6.02 8.14 8.82 13.6 13.07 30.99 22.4 50.38 26.39v-11.71c-16.12-3.73-30.56-11.79-41.98-22.74-3.78-3.56-7.14-7.55-10.16-11.7l-6.38 10.94z"/><path d="M1544.57 1105.66c12.67-12.21 20.57-29.1 20.57-47.59v-51.24h11.92v51.32c0 9 1.51 19.6 4.2 27.75 2.77-8.23 4.2-18.75 4.2-27.75v-51.32h11.92v51.32c0 18.5 7.89 35.38 20.57 47.6 7.56 7.29 16.88 12.89 27.29 16.29V1134a83.172 83.172 0 0 1-35.68-20.19c-7.39-7.04-13.36-15.44-17.47-24.78-3.11 8.06-6.55 15.7-10.83 21.47-4.28-5.77-7.73-13.41-10.83-21.47-4.2 9.34-10.16 17.65-17.47 24.78-9.74 9.41-22 16.45-35.68 20.19v-11.96c10.41-3.4 19.73-9.08 27.29-16.38z"/><path d="M1616.44 1057.05c0 13.49 5.71 25.79 15.03 34.7 4.03 3.82 8.65 7.04 13.86 9.5v12.47a63.58 63.58 0 0 1-22.26-13.83c-11.42-10.94-18.47-26.13-18.47-42.75v-11.63h11.92v11.54h-.08zM1546.16 1045.51h11.92v11.54c0 16.63-7.05 31.82-18.47 42.76a63.83 63.83 0 0 1-22.25 13.83v-12.47c5.12-2.38 9.82-5.6 13.85-9.51 9.24-8.9 15.03-21.2 15.03-34.69v-11.46h-.08zM1569.5 1107.02c-3.02 4.16-6.46 8.06-10.16 11.71-11.42 10.94-25.86 19-41.98 22.73v11.71c19.4-3.99 36.86-13.32 50.38-26.38 2.94-2.8 5.63-5.77 8.15-8.83l-6.39-10.94zM1005.42 1117.88c2.51 3.14 5.29 6.02 8.14 8.82 13.6 13.07 30.98 22.4 50.38 26.39v-11.71c-16.12-3.73-30.56-11.79-41.98-22.74-3.78-3.56-7.14-7.55-10.16-11.7l-6.38 10.94z"/><path d="M963.265 1105.66c12.679-12.21 20.571-29.1 20.571-47.59v-51.24h11.924v51.32c0 9 1.511 19.6 4.198 27.75 2.772-8.23 4.202-18.75 4.202-27.75v-51.32h11.92v51.32c0 18.5 7.89 35.38 20.57 47.6 7.56 7.29 16.88 12.89 27.29 16.29V1134a83.266 83.266 0 0 1-35.69-20.19c-7.38-7.04-13.35-15.44-17.46-24.78-3.11 8.06-6.55 15.7-10.832 21.47-4.282-5.77-7.725-13.41-10.832-21.47-4.198 9.34-10.16 17.65-17.465 24.78-9.74 9.41-21.999 16.45-35.685 20.19v-11.96c10.411-3.4 19.732-9.08 27.289-16.38z"/><path d="M1035.14 1057.05c0 13.49 5.71 25.79 15.03 34.7 4.03 3.82 8.65 7.04 13.85 9.5v12.47a63.63 63.63 0 0 1-22.25-13.83c-11.42-10.94-18.47-26.13-18.47-42.75v-11.63h11.92v11.54h-.08zM964.86 1045.51h11.923v11.54c0 16.63-7.053 31.82-18.472 42.76a63.853 63.853 0 0 1-22.251 13.83v-12.47a50.434 50.434 0 0 0 13.854-9.51c9.236-8.9 15.03-21.2 15.03-34.69v-11.46h-.084zM988.203 1107.02c-3.023 4.16-6.466 8.06-10.16 11.71-11.42 10.94-25.862 19-41.983 22.73v11.71c19.396-3.99 36.861-13.32 50.379-26.38 2.939-2.8 5.626-5.77 8.145-8.83l-6.381-10.94zM424.115 1735.77c2.519 3.13 5.29 6.02 8.145 8.82 13.602 13.06 30.983 22.4 50.38 26.38v-11.7c-16.122-3.74-30.564-11.8-41.984-22.74-3.778-3.56-7.137-7.55-10.16-11.71l-6.381 10.95z"/><path d="M381.964 1723.55c12.679-12.22 20.572-29.1 20.572-47.59v-51.24h11.923v51.32c0 8.99 1.511 19.6 4.198 27.74 2.771-8.23 4.198-18.75 4.198-27.74v-51.32h11.924v51.32c0 18.5 7.893 35.38 20.571 47.59 7.557 7.3 16.878 12.9 27.29 16.29v11.96a83.03 83.03 0 0 1-35.686-20.19c-7.389-7.04-13.351-15.44-17.465-24.77-3.107 8.06-6.55 15.7-10.832 21.46-4.282-5.76-7.725-13.4-10.831-21.46-4.199 9.33-10.16 17.65-17.465 24.77-9.741 9.42-22 16.46-35.686 20.19v-11.96c10.412-3.39 19.732-9.07 27.289-16.37z"/><path d="M453.839 1674.94c0 13.49 5.71 25.79 15.03 34.7 4.03 3.81 8.649 7.04 13.855 9.5v12.47a63.848 63.848 0 0 1-22.252-13.83c-11.419-10.94-18.472-26.13-18.472-42.76v-11.62h11.923v11.54h-.084zM383.559 1663.4h11.923v11.54c0 16.63-7.053 31.81-18.472 42.76a63.683 63.683 0 0 1-22.251 13.82v-12.47a50.4 50.4 0 0 0 13.854-9.5c9.237-8.91 15.03-21.21 15.03-34.7v-11.45h-.084zM406.902 1724.91c-3.023 4.15-6.466 8.06-10.16 11.7-11.419 10.95-25.862 19.01-41.983 22.74v11.71c19.396-3.99 36.861-13.32 50.38-26.39 2.938-2.8 5.625-5.77 8.144-8.82l-6.381-10.94zM1586.72 1735.77c2.52 3.13 5.29 6.02 8.14 8.82 13.6 13.06 30.99 22.4 50.38 26.38v-11.7c-16.12-3.74-30.56-11.8-41.98-22.74-3.78-3.56-7.14-7.55-10.16-11.71l-6.38 10.95z"/><path d="M1544.57 1723.55c12.67-12.22 20.57-29.1 20.57-47.59v-51.24h11.92v51.32c0 8.99 1.51 19.6 4.2 27.74 2.77-8.23 4.2-18.75 4.2-27.74v-51.32h11.92v51.32c0 18.5 7.89 35.38 20.57 47.59 7.56 7.3 16.88 12.9 27.29 16.29v11.96a82.967 82.967 0 0 1-35.68-20.19c-7.39-7.04-13.36-15.44-17.47-24.77-3.11 8.06-6.55 15.7-10.83 21.46-4.28-5.76-7.73-13.4-10.83-21.46-4.2 9.33-10.16 17.65-17.47 24.77-9.74 9.42-22 16.46-35.68 20.19v-11.96c10.41-3.39 19.73-9.07 27.29-16.37z"/><path d="M1616.44 1674.94c0 13.49 5.71 25.79 15.03 34.7 4.03 3.81 8.65 7.04 13.86 9.5v12.47a63.872 63.872 0 0 1-22.26-13.83c-11.42-10.94-18.47-26.13-18.47-42.76v-11.62h11.92v11.54h-.08zM1546.16 1663.4h11.92v11.54c0 16.63-7.05 31.81-18.47 42.76a63.66 63.66 0 0 1-22.25 13.82v-12.47c5.12-2.37 9.82-5.6 13.85-9.5 9.24-8.91 15.03-21.21 15.03-34.7v-11.45h-.08zM1569.5 1724.91c-3.02 4.15-6.46 8.06-10.16 11.7-11.42 10.95-25.86 19.01-41.98 22.74v11.71c19.4-3.99 36.86-13.32 50.38-26.39 2.94-2.8 5.63-5.77 8.15-8.82l-6.39-10.94zM1005.42 1735.77c2.51 3.13 5.29 6.02 8.14 8.82 13.6 13.06 30.98 22.4 50.38 26.38v-11.7c-16.12-3.74-30.56-11.8-41.98-22.74-3.78-3.56-7.14-7.55-10.16-11.71l-6.38 10.95z"/><path d="M963.265 1723.55c12.679-12.22 20.571-29.1 20.571-47.59v-51.24h11.924v51.32c0 8.99 1.511 19.6 4.198 27.74 2.772-8.23 4.202-18.75 4.202-27.74v-51.32h11.92v51.32c0 18.5 7.89 35.38 20.57 47.59 7.56 7.3 16.88 12.9 27.29 16.29v11.96a83.06 83.06 0 0 1-35.69-20.19c-7.38-7.04-13.35-15.44-17.46-24.77-3.11 8.06-6.55 15.7-10.832 21.46-4.282-5.76-7.725-13.4-10.832-21.46-4.198 9.33-10.16 17.65-17.465 24.77-9.74 9.42-21.999 16.46-35.685 20.19v-11.96c10.411-3.39 19.732-9.07 27.289-16.37z"/><path d="M1035.14 1674.94c0 13.49 5.71 25.79 15.03 34.7 4.03 3.81 8.65 7.04 13.85 9.5v12.47a63.922 63.922 0 0 1-22.25-13.83c-11.42-10.94-18.47-26.13-18.47-42.76v-11.62h11.92v11.54h-.08zM964.86 1663.4h11.923v11.54c0 16.63-7.053 31.81-18.472 42.76a63.683 63.683 0 0 1-22.251 13.82v-12.47a50.4 50.4 0 0 0 13.854-9.5c9.236-8.91 15.03-21.21 15.03-34.7v-11.45h-.084zM988.203 1724.91c-3.023 4.15-6.466 8.06-10.16 11.7-11.42 10.95-25.862 19.01-41.983 22.74v11.71c19.396-3.99 36.861-13.32 50.379-26.39 2.939-2.8 5.626-5.77 8.145-8.82l-6.381-10.94zM2957.39 191.05c2.52 3.139 5.29 6.023 8.15 8.823 13.6 13.064 30.98 22.396 50.38 26.384v-11.708c-16.13-3.732-30.57-11.792-41.99-22.736-3.78-3.563-7.13-7.55-10.16-11.707l-6.38 10.944z"/><path d="M2915.24 178.833c12.68-12.216 20.57-29.098 20.57-47.592V80h11.93v51.326c0 8.992 1.51 19.597 4.19 27.741 2.77-8.229 4.2-18.749 4.2-27.741V80h11.93v51.326c0 18.494 7.89 35.376 20.57 47.592 7.55 7.296 16.87 12.895 27.29 16.289v11.962a83.076 83.076 0 0 1-35.69-20.191c-7.39-7.042-13.35-15.44-17.46-24.772-3.11 8.059-6.55 15.694-10.84 21.463-4.28-5.769-7.72-13.404-10.83-21.463-4.2 9.332-10.16 17.646-17.46 24.772-9.74 9.416-22 16.458-35.69 20.191v-11.962c10.41-3.394 19.73-9.078 27.29-16.374z"/><path d="M2987.12 130.223c0 13.489 5.71 25.79 15.03 34.697 4.03 3.818 8.64 7.042 13.85 9.502v12.471a63.694 63.694 0 0 1-22.25-13.828c-11.42-10.944-18.47-26.13-18.47-42.757v-11.623h11.92v11.538h-.08zM2916.84 118.685h11.92v11.538c0 16.627-7.05 31.813-18.47 42.757a63.785 63.785 0 0 1-22.25 13.828v-12.471a50.48 50.48 0 0 0 13.85-9.501c9.24-8.908 15.03-21.209 15.03-34.698v-11.453h-.08zM2940.18 180.191c-3.02 4.157-6.47 8.059-10.16 11.707-11.42 10.944-25.86 19.003-41.98 22.736v11.707c19.39-3.987 36.86-13.319 50.37-26.383 2.94-2.8 5.63-5.769 8.15-8.823l-6.38-10.944zM2957.39 808.936c2.52 3.139 5.29 6.023 8.15 8.823 13.6 13.065 30.98 22.397 50.38 26.384v-11.707c-16.13-3.733-30.57-11.793-41.99-22.736-3.78-3.564-7.13-7.551-10.16-11.708l-6.38 10.944z"/><path d="M2915.24 796.72c12.68-12.217 20.57-29.099 20.57-47.593v-51.241h11.93v51.326c0 8.992 1.51 19.597 4.19 27.741 2.77-8.229 4.2-18.749 4.2-27.741v-51.326h11.93v51.326c0 18.494 7.89 35.376 20.57 47.593 7.55 7.295 16.87 12.895 27.29 16.288v11.962a83.066 83.066 0 0 1-35.69-20.191c-7.39-7.041-13.35-15.44-17.46-24.772-3.11 8.059-6.55 15.695-10.84 21.463-4.28-5.768-7.72-13.404-10.83-21.463-4.2 9.332-10.16 17.646-17.46 24.772-9.74 9.417-22 16.458-35.69 20.191v-11.962c10.41-3.393 19.73-9.077 27.29-16.373z"/><path d="M2987.12 748.109c0 13.489 5.71 25.79 15.03 34.698 4.03 3.817 8.64 7.041 13.85 9.501v12.471a63.694 63.694 0 0 1-22.25-13.828c-11.42-10.944-18.47-26.129-18.47-42.757v-11.623h11.92v11.538h-.08zM2916.84 736.571h11.92v11.538c0 16.628-7.05 31.813-18.47 42.757a63.785 63.785 0 0 1-22.25 13.828v-12.471a50.48 50.48 0 0 0 13.85-9.501c9.24-8.908 15.03-21.209 15.03-34.698v-11.453h-.08zM2940.18 798.077c-3.02 4.157-6.47 8.059-10.16 11.707-11.42 10.944-25.86 19.004-41.98 22.736v11.708c19.39-3.988 36.86-13.32 50.37-26.384 2.94-2.8 5.63-5.769 8.15-8.823l-6.38-10.944zM2957.39 1426.82c2.52 3.14 5.29 6.03 8.15 8.83 13.6 13.06 30.98 22.39 50.38 26.38v-11.71c-16.13-3.73-30.57-11.79-41.99-22.73-3.78-3.57-7.13-7.55-10.16-11.71l-6.38 10.94z"/><path d="M2915.24 1414.61c12.68-12.22 20.57-29.1 20.57-47.6v-51.24h11.93v51.33c0 8.99 1.51 19.6 4.19 27.74 2.77-8.23 4.2-18.75 4.2-27.74v-51.33h11.93v51.33c0 18.49 7.89 35.37 20.57 47.59 7.55 7.3 16.87 12.9 27.29 16.29v11.96a83.003 83.003 0 0 1-35.69-20.19c-7.39-7.04-13.35-15.44-17.46-24.77-3.11 8.06-6.55 15.69-10.84 21.46-4.28-5.77-7.72-13.4-10.83-21.46-4.2 9.33-10.16 17.64-17.46 24.77-9.74 9.42-22 16.46-35.69 20.19v-11.96c10.41-3.39 19.73-9.08 27.29-16.37z"/><path d="M2987.12 1366c0 13.48 5.71 25.79 15.03 34.69 4.03 3.82 8.64 7.04 13.85 9.5v12.48a63.83 63.83 0 0 1-22.25-13.83c-11.42-10.95-18.47-26.13-18.47-42.76v-11.62h11.92V1366h-.08zM2916.84 1354.46h11.92V1366c0 16.62-7.05 31.81-18.47 42.75a63.63 63.63 0 0 1-22.25 13.83v-12.47a50.63 50.63 0 0 0 13.85-9.5c9.24-8.91 15.03-21.21 15.03-34.7v-11.45h-.08zM2940.18 1415.96c-3.02 4.16-6.47 8.06-10.16 11.71-11.42 10.94-25.86 19-41.98 22.74v11.7c19.39-3.98 36.86-13.32 50.37-26.38 2.94-2.8 5.63-5.77 8.15-8.82l-6.38-10.95zM2957.39 2044.71c2.52 3.14 5.29 6.02 8.15 8.82 13.6 13.07 30.98 22.4 50.38 26.38v-11.7a90.157 90.157 0 0 1-41.99-22.74c-3.78-3.56-7.13-7.55-10.16-11.71l-6.38 10.95z"/><path d="M2915.24 2032.49c12.68-12.21 20.57-29.1 20.57-47.59v-51.24h11.93v51.32c0 9 1.51 19.6 4.19 27.74 2.77-8.22 4.2-18.74 4.2-27.74v-51.32h11.93v51.32c0 18.5 7.89 35.38 20.57 47.6 7.55 7.29 16.87 12.89 27.29 16.28v11.97a83.207 83.207 0 0 1-35.69-20.19c-7.39-7.05-13.35-15.44-17.46-24.78-3.11 8.06-6.55 15.7-10.84 21.47-4.28-5.77-7.72-13.41-10.83-21.47-4.2 9.34-10.16 17.65-17.46 24.78-9.74 9.41-22 16.45-35.69 20.19v-11.97c10.41-3.39 19.73-9.07 27.29-16.37z"/><path d="M2987.12 1983.88c0 13.49 5.71 25.79 15.03 34.7 4.03 3.82 8.64 7.04 13.85 9.5v12.47a63.54 63.54 0 0 1-22.25-13.83c-11.42-10.94-18.47-26.13-18.47-42.75v-11.63h11.92v11.54h-.08zM2916.84 1972.34h11.92v11.54c0 16.63-7.05 31.81-18.47 42.76a63.922 63.922 0 0 1-22.25 13.83V2028c5.12-2.38 9.82-5.6 13.85-9.51 9.24-8.9 15.03-21.21 15.03-34.69v-11.46h-.08zM2940.18 2033.85c-3.02 4.16-6.47 8.06-10.16 11.71-11.42 10.94-25.86 19-41.98 22.73V2080c19.39-3.99 36.86-13.32 50.37-26.38 2.94-2.8 5.63-5.77 8.15-8.83l-6.38-10.94zM2376.09 191.05c2.52 3.139 5.29 6.023 8.15 8.823 13.6 13.064 30.98 22.396 50.38 26.384v-11.708c-16.13-3.732-30.57-11.792-41.99-22.736-3.78-3.563-7.14-7.55-10.16-11.707l-6.38 10.944z"/><path d="M2333.94 178.833c12.68-12.216 20.57-29.098 20.57-47.592V80h11.92v51.326c0 8.992 1.52 19.597 4.2 27.741 2.77-8.229 4.2-18.749 4.2-27.741V80h11.92v51.326c0 18.494 7.9 35.376 20.58 47.592 7.55 7.296 16.87 12.895 27.29 16.289v11.962a83.076 83.076 0 0 1-35.69-20.191c-7.39-7.042-13.35-15.44-17.47-24.772-3.1 8.059-6.54 15.694-10.83 21.463-4.28-5.769-7.72-13.404-10.83-21.463-4.2 9.332-10.16 17.646-17.46 24.772-9.74 9.416-22 16.458-35.69 20.191v-11.962c10.41-3.394 19.73-9.078 27.29-16.374z"/><path d="M2405.81 130.223c0 13.489 5.71 25.79 15.03 34.697 4.04 3.818 8.65 7.042 13.86 9.502v12.471a63.694 63.694 0 0 1-22.25-13.828c-11.42-10.944-18.47-26.13-18.47-42.757v-11.623h11.92v11.538h-.09zM2335.53 118.685h11.93v11.538c0 16.627-7.06 31.813-18.47 42.757a63.736 63.736 0 0 1-22.26 13.828v-12.471a50.38 50.38 0 0 0 13.86-9.501c9.24-8.908 15.03-21.209 15.03-34.698v-11.453h-.09zM2358.88 180.191c-3.03 4.157-6.47 8.059-10.16 11.707-11.42 10.944-25.86 19.003-41.99 22.736v11.707c19.4-3.987 36.87-13.319 50.38-26.383 2.94-2.8 5.63-5.769 8.15-8.823l-6.38-10.944zM3538.69 191.05c2.52 3.139 5.29 6.023 8.15 8.823 13.6 13.064 30.98 22.396 50.38 26.384v-11.708c-16.12-3.732-30.57-11.792-41.99-22.736-3.77-3.563-7.13-7.55-10.16-11.707l-6.38 10.944z"/><path d="M3496.54 178.833c12.68-12.216 20.57-29.098 20.57-47.592V80h11.93v51.326c0 8.992 1.51 19.597 4.19 27.741 2.78-8.229 4.2-18.749 4.2-27.741V80h11.93v51.326c0 18.494 7.89 35.376 20.57 47.592 7.55 7.296 16.87 12.895 27.29 16.289v11.962a83.134 83.134 0 0 1-35.69-20.191c-7.39-7.042-13.35-15.44-17.46-24.772-3.11 8.059-6.55 15.694-10.84 21.463-4.28-5.769-7.72-13.404-10.83-21.463-4.2 9.332-10.16 17.646-17.46 24.772-9.74 9.416-22 16.458-35.69 20.191v-11.962c10.41-3.394 19.73-9.078 27.29-16.374z"/><path d="M3568.42 130.223c0 13.489 5.71 25.79 15.03 34.697 4.03 3.818 8.64 7.042 13.85 9.502v12.471a63.694 63.694 0 0 1-22.25-13.828c-11.42-10.944-18.47-26.13-18.47-42.757v-11.623h11.92v11.538h-.08zM3498.14 118.685h11.92v11.538c0 16.627-7.05 31.813-18.47 42.757a63.785 63.785 0 0 1-22.25 13.828v-12.471a50.48 50.48 0 0 0 13.85-9.501c9.24-8.908 15.03-21.209 15.03-34.698v-11.453h-.08zM3521.48 180.191c-3.02 4.157-6.47 8.059-10.16 11.707-11.42 10.944-25.86 19.003-41.98 22.736v11.707c19.39-3.987 36.86-13.319 50.38-26.383 2.93-2.8 5.62-5.769 8.14-8.823l-6.38-10.944zM2376.09 808.936c2.52 3.139 5.29 6.023 8.15 8.823 13.6 13.065 30.98 22.397 50.38 26.384v-11.707c-16.13-3.733-30.57-11.793-41.99-22.736-3.78-3.564-7.14-7.551-10.16-11.708l-6.38 10.944z"/><path d="M2333.94 796.72c12.68-12.217 20.57-29.099 20.57-47.593v-51.241h11.92v51.326c0 8.992 1.52 19.597 4.2 27.741 2.77-8.229 4.2-18.749 4.2-27.741v-51.326h11.92v51.326c0 18.494 7.9 35.376 20.58 47.593 7.55 7.295 16.87 12.895 27.29 16.288v11.962a83.066 83.066 0 0 1-35.69-20.191c-7.39-7.041-13.35-15.44-17.47-24.772-3.1 8.059-6.54 15.695-10.83 21.463-4.28-5.768-7.72-13.404-10.83-21.463-4.2 9.332-10.16 17.646-17.46 24.772-9.74 9.417-22 16.458-35.69 20.191v-11.962c10.41-3.393 19.73-9.077 27.29-16.373z"/><path d="M2405.81 748.109c0 13.489 5.71 25.79 15.03 34.698 4.04 3.817 8.65 7.041 13.86 9.501v12.471a63.694 63.694 0 0 1-22.25-13.828c-11.42-10.944-18.47-26.129-18.47-42.757v-11.623h11.92v11.538h-.09zM2335.53 736.571h11.93v11.538c0 16.628-7.06 31.813-18.47 42.757a63.736 63.736 0 0 1-22.26 13.828v-12.471a50.38 50.38 0 0 0 13.86-9.501c9.24-8.908 15.03-21.209 15.03-34.698v-11.453h-.09zM2358.88 798.077c-3.03 4.157-6.47 8.059-10.16 11.707-11.42 10.944-25.86 19.004-41.99 22.736v11.708c19.4-3.988 36.87-13.32 50.38-26.384 2.94-2.8 5.63-5.769 8.15-8.823l-6.38-10.944zM3538.69 808.936c2.52 3.139 5.29 6.023 8.15 8.823 13.6 13.065 30.98 22.397 50.38 26.384v-11.707c-16.12-3.733-30.57-11.793-41.99-22.736-3.77-3.564-7.13-7.551-10.16-11.708l-6.38 10.944z"/><path d="M3496.54 796.72c12.68-12.217 20.57-29.099 20.57-47.593v-51.241h11.93v51.326c0 8.992 1.51 19.597 4.19 27.741 2.78-8.229 4.2-18.749 4.2-27.741v-51.326h11.93v51.326c0 18.494 7.89 35.376 20.57 47.593 7.55 7.295 16.87 12.895 27.29 16.288v11.962a83.124 83.124 0 0 1-35.69-20.191c-7.39-7.041-13.35-15.44-17.46-24.772-3.11 8.059-6.55 15.695-10.84 21.463-4.28-5.768-7.72-13.404-10.83-21.463-4.2 9.332-10.16 17.646-17.46 24.772-9.74 9.417-22 16.458-35.69 20.191v-11.962c10.41-3.393 19.73-9.077 27.29-16.373z"/><path d="M3568.42 748.109c0 13.489 5.71 25.79 15.03 34.698 4.03 3.817 8.64 7.041 13.85 9.501v12.471a63.694 63.694 0 0 1-22.25-13.828c-11.42-10.944-18.47-26.129-18.47-42.757v-11.623h11.92v11.538h-.08zM3498.14 736.571h11.92v11.538c0 16.628-7.05 31.813-18.47 42.757a63.785 63.785 0 0 1-22.25 13.828v-12.471a50.48 50.48 0 0 0 13.85-9.501c9.24-8.908 15.03-21.209 15.03-34.698v-11.453h-.08zM3521.48 798.077c-3.02 4.157-6.47 8.059-10.16 11.707-11.42 10.944-25.86 19.004-41.98 22.736v11.708c19.39-3.988 36.86-13.32 50.38-26.384 2.93-2.8 5.62-5.769 8.14-8.823l-6.38-10.944zM2376.09 1426.82c2.52 3.14 5.29 6.03 8.15 8.83 13.6 13.06 30.98 22.39 50.38 26.38v-11.71c-16.13-3.73-30.57-11.79-41.99-22.73-3.78-3.57-7.14-7.55-10.16-11.71l-6.38 10.94z"/><path d="M2333.94 1414.61c12.68-12.22 20.57-29.1 20.57-47.6v-51.24h11.92v51.33c0 8.99 1.52 19.6 4.2 27.74 2.77-8.23 4.2-18.75 4.2-27.74v-51.33h11.92v51.33c0 18.49 7.9 35.37 20.58 47.59 7.55 7.3 16.87 12.9 27.29 16.29v11.96a83.003 83.003 0 0 1-35.69-20.19c-7.39-7.04-13.35-15.44-17.47-24.77-3.1 8.06-6.54 15.69-10.83 21.46-4.28-5.77-7.72-13.4-10.83-21.46-4.2 9.33-10.16 17.64-17.46 24.77-9.74 9.42-22 16.46-35.69 20.19v-11.96c10.41-3.39 19.73-9.08 27.29-16.37z"/><path d="M2405.81 1366c0 13.48 5.71 25.79 15.03 34.69 4.04 3.82 8.65 7.04 13.86 9.5v12.48a63.83 63.83 0 0 1-22.25-13.83c-11.42-10.95-18.47-26.13-18.47-42.76v-11.62h11.92V1366h-.09zM2335.53 1354.46h11.93V1366c0 16.62-7.06 31.81-18.47 42.75a63.58 63.58 0 0 1-22.26 13.83v-12.47a50.53 50.53 0 0 0 13.86-9.5c9.24-8.91 15.03-21.21 15.03-34.7v-11.45h-.09zM2358.88 1415.96c-3.03 4.16-6.47 8.06-10.16 11.71-11.42 10.94-25.86 19-41.99 22.74v11.7c19.4-3.98 36.87-13.32 50.38-26.38 2.94-2.8 5.63-5.77 8.15-8.82l-6.38-10.95zM2376.09 2044.71c2.52 3.14 5.29 6.02 8.15 8.82 13.6 13.07 30.98 22.4 50.38 26.38v-11.7a90.157 90.157 0 0 1-41.99-22.74c-3.78-3.56-7.14-7.55-10.16-11.71l-6.38 10.95z"/><path d="M2333.94 2032.49c12.68-12.21 20.57-29.1 20.57-47.59v-51.24h11.92v51.32c0 9 1.52 19.6 4.2 27.74 2.77-8.22 4.2-18.74 4.2-27.74v-51.32h11.92v51.32c0 18.5 7.9 35.38 20.58 47.6 7.55 7.29 16.87 12.89 27.29 16.28v11.97a83.207 83.207 0 0 1-35.69-20.19c-7.39-7.05-13.35-15.44-17.47-24.78-3.1 8.06-6.54 15.7-10.83 21.47-4.28-5.77-7.72-13.41-10.83-21.47-4.2 9.34-10.16 17.65-17.46 24.78-9.74 9.41-22 16.45-35.69 20.19v-11.97c10.41-3.39 19.73-9.07 27.29-16.37z"/><path d="M2405.81 1983.88c0 13.49 5.71 25.79 15.03 34.7 4.04 3.82 8.65 7.04 13.86 9.5v12.47a63.54 63.54 0 0 1-22.25-13.83c-11.42-10.94-18.47-26.13-18.47-42.75v-11.63h11.92v11.54h-.09zM2335.53 1972.34h11.93v11.54c0 16.63-7.06 31.81-18.47 42.76a63.872 63.872 0 0 1-22.26 13.83V2028c5.13-2.38 9.83-5.6 13.86-9.51 9.24-8.9 15.03-21.21 15.03-34.69v-11.46h-.09zM2358.88 2033.85c-3.03 4.16-6.47 8.06-10.16 11.71-11.42 10.94-25.86 19-41.99 22.73V2080c19.4-3.99 36.87-13.32 50.38-26.38 2.94-2.8 5.63-5.77 8.15-8.83l-6.38-10.94zM3538.69 1426.82c2.52 3.14 5.29 6.03 8.15 8.83 13.6 13.06 30.98 22.39 50.38 26.38v-11.71c-16.12-3.73-30.57-11.79-41.99-22.73-3.77-3.57-7.13-7.55-10.16-11.71l-6.38 10.94z"/><path d="M3496.54 1414.61c12.68-12.22 20.57-29.1 20.57-47.6v-51.24h11.93v51.33c0 8.99 1.51 19.6 4.19 27.74 2.78-8.23 4.2-18.75 4.2-27.74v-51.33h11.93v51.33c0 18.49 7.89 35.37 20.57 47.59 7.55 7.3 16.87 12.9 27.29 16.29v11.96a83.06 83.06 0 0 1-35.69-20.19c-7.39-7.04-13.35-15.44-17.46-24.77-3.11 8.06-6.55 15.69-10.84 21.46-4.28-5.77-7.72-13.4-10.83-21.46-4.2 9.33-10.16 17.64-17.46 24.77-9.74 9.42-22 16.46-35.69 20.19v-11.96c10.41-3.39 19.73-9.08 27.29-16.37z"/><path d="M3568.42 1366c0 13.48 5.71 25.79 15.03 34.69 4.03 3.82 8.64 7.04 13.85 9.5v12.48a63.83 63.83 0 0 1-22.25-13.83c-11.42-10.95-18.47-26.13-18.47-42.76v-11.62h11.92V1366h-.08zM3498.14 1354.46h11.92V1366c0 16.62-7.05 31.81-18.47 42.75a63.63 63.63 0 0 1-22.25 13.83v-12.47a50.63 50.63 0 0 0 13.85-9.5c9.24-8.91 15.03-21.21 15.03-34.7v-11.45h-.08zM3521.48 1415.96c-3.02 4.16-6.47 8.06-10.16 11.71-11.42 10.94-25.86 19-41.98 22.74v11.7c19.39-3.98 36.86-13.32 50.38-26.38 2.93-2.8 5.62-5.77 8.14-8.82l-6.38-10.95zM3538.69 2044.71c2.52 3.14 5.29 6.02 8.15 8.82 13.6 13.07 30.98 22.4 50.38 26.38v-11.7a90.206 90.206 0 0 1-41.99-22.74c-3.77-3.56-7.13-7.55-10.16-11.71l-6.38 10.95z"/><path d="M3496.54 2032.49c12.68-12.21 20.57-29.1 20.57-47.59v-51.24h11.93v51.32c0 9 1.51 19.6 4.19 27.74 2.78-8.22 4.2-18.74 4.2-27.74v-51.32h11.93v51.32c0 18.5 7.89 35.38 20.57 47.6 7.55 7.29 16.87 12.89 27.29 16.28v11.97a83.266 83.266 0 0 1-35.69-20.19c-7.39-7.05-13.35-15.44-17.46-24.78-3.11 8.06-6.55 15.7-10.84 21.47-4.28-5.77-7.72-13.41-10.83-21.47-4.2 9.34-10.16 17.65-17.46 24.78-9.74 9.41-22 16.45-35.69 20.19v-11.97c10.41-3.39 19.73-9.07 27.29-16.37z"/><path d="M3568.42 1983.88c0 13.49 5.71 25.79 15.03 34.7 4.03 3.82 8.64 7.04 13.85 9.5v12.47a63.54 63.54 0 0 1-22.25-13.83c-11.42-10.94-18.47-26.13-18.47-42.75v-11.63h11.92v11.54h-.08zM3498.14 1972.34h11.92v11.54c0 16.63-7.05 31.81-18.47 42.76a63.922 63.922 0 0 1-22.25 13.83V2028c5.12-2.38 9.82-5.6 13.85-9.51 9.24-8.9 15.03-21.21 15.03-34.69v-11.46h-.08zM3521.48 2033.85c-3.02 4.16-6.47 8.06-10.16 11.71-11.42 10.94-25.86 19-41.98 22.73V2080c19.39-3.99 36.86-13.32 50.38-26.38 2.93-2.8 5.62-5.77 8.14-8.83l-6.38-10.94zM2085.44 499.993c2.52 3.139 5.29 6.023 8.14 8.823 13.61 13.064 30.99 22.396 50.38 26.384v-11.708c-16.12-3.733-30.56-11.792-41.98-22.736-3.78-3.563-7.14-7.55-10.16-11.707l-6.38 10.944z"/><path d="M2043.29 487.776c12.68-12.216 20.57-29.098 20.57-47.592v-51.241h11.92v51.325c0 8.993 1.52 19.597 4.2 27.742 2.77-8.229 4.2-18.749 4.2-27.742v-51.325h11.92v51.325c0 18.495 7.9 35.377 20.58 47.593 7.55 7.296 16.87 12.895 27.28 16.289v11.961a83.087 83.087 0 0 1-35.68-20.19c-7.39-7.042-13.35-15.44-17.47-24.772-3.1 8.059-6.55 15.694-10.83 21.463-4.28-5.769-7.72-13.404-10.83-21.463-4.2 9.332-10.16 17.645-17.46 24.772-9.74 9.416-22 16.458-35.69 20.19V504.15c10.41-3.394 19.73-9.078 27.29-16.374z"/><path d="M2115.16 439.166c0 13.488 5.71 25.79 15.03 34.697a52.997 52.997 0 0 0 13.86 9.502v12.471a63.694 63.694 0 0 1-22.25-13.828c-11.42-10.944-18.47-26.13-18.47-42.758v-11.622h11.92v11.538h-.09zM2044.88 427.628h11.93v11.538c0 16.627-7.06 31.813-18.47 42.757a63.736 63.736 0 0 1-22.26 13.828V483.28a50.361 50.361 0 0 0 13.86-9.502c9.23-8.907 15.03-21.208 15.03-34.697v-11.453h-.09zM2068.23 489.134c-3.03 4.157-6.47 8.059-10.16 11.707-11.42 10.944-25.86 19.003-41.99 22.736v11.707c19.4-3.987 36.87-13.319 50.38-26.384 2.94-2.799 5.63-5.768 8.15-8.822l-6.38-10.944zM3248.04 499.993c2.52 3.139 5.29 6.023 8.15 8.823 13.6 13.064 30.98 22.396 50.38 26.384v-11.708c-16.13-3.733-30.57-11.792-41.99-22.736-3.78-3.563-7.13-7.55-10.16-11.707l-6.38 10.944z"/><path d="M3205.89 487.776c12.68-12.216 20.57-29.098 20.57-47.592v-51.241h11.93v51.325c0 8.993 1.51 19.597 4.19 27.742 2.77-8.229 4.2-18.749 4.2-27.742v-51.325h11.93v51.325c0 18.495 7.89 35.377 20.57 47.593 7.55 7.296 16.87 12.895 27.29 16.289v11.961a83.064 83.064 0 0 1-35.69-20.19c-7.39-7.042-13.35-15.44-17.46-24.772-3.11 8.059-6.55 15.694-10.84 21.463-4.28-5.769-7.72-13.404-10.83-21.463-4.2 9.332-10.16 17.645-17.46 24.772-9.74 9.416-22 16.458-35.69 20.19V504.15c10.41-3.394 19.73-9.078 27.29-16.374z"/><path d="M3277.77 439.166c0 13.488 5.71 25.79 15.03 34.697 4.03 3.818 8.64 7.042 13.85 9.502v12.471a63.694 63.694 0 0 1-22.25-13.828c-11.42-10.944-18.47-26.13-18.47-42.758v-11.622h11.92v11.538h-.08zM3207.49 427.628h11.92v11.538c0 16.627-7.05 31.813-18.47 42.757a63.785 63.785 0 0 1-22.25 13.828V483.28a50.461 50.461 0 0 0 13.85-9.502c9.24-8.907 15.03-21.208 15.03-34.697v-11.453h-.08zM3230.83 489.134c-3.02 4.157-6.47 8.059-10.16 11.707-11.42 10.944-25.86 19.003-41.98 22.736v11.707c19.39-3.987 36.86-13.319 50.38-26.384 2.93-2.799 5.62-5.768 8.14-8.822l-6.38-10.944zM3747.44 499.993c2.52 3.139 5.29 6.023 8.14 8.823 13.61 13.064 30.99 22.396 50.38 26.384v-11.708c-16.12-3.733-30.56-11.792-41.98-22.736-3.78-3.563-7.14-7.55-10.16-11.707l-6.38 10.944z"/><path d="M3705.29 487.776c12.68-12.216 20.57-29.098 20.57-47.592v-51.241h11.92v51.325c0 8.993 1.52 19.597 4.2 27.742 2.77-8.229 4.2-18.749 4.2-27.742v-51.325h11.92v51.325c0 18.495 7.9 35.377 20.58 47.593 7.55 7.296 16.87 12.895 27.28 16.289v11.961a83.087 83.087 0 0 1-35.68-20.19c-7.39-7.042-13.35-15.44-17.47-24.772-3.1 8.059-6.55 15.694-10.83 21.463-4.28-5.769-7.72-13.404-10.83-21.463-4.2 9.332-10.16 17.645-17.46 24.772-9.74 9.416-22 16.458-35.69 20.19V504.15c10.41-3.394 19.73-9.078 27.29-16.374z"/><path d="M3777.16 439.166c0 13.488 5.71 25.79 15.03 34.697a52.997 52.997 0 0 0 13.86 9.502v12.471a63.694 63.694 0 0 1-22.25-13.828c-11.42-10.944-18.47-26.13-18.47-42.758v-11.622h11.92v11.538h-.09zM3706.88 427.628h11.93v11.538c0 16.627-7.06 31.813-18.47 42.757a63.736 63.736 0 0 1-22.26 13.828V483.28a50.361 50.361 0 0 0 13.86-9.502c9.23-8.907 15.03-21.208 15.03-34.697v-11.453h-.09zM3730.23 489.134c-3.03 4.157-6.47 8.059-10.16 11.707-11.42 10.944-25.86 19.003-41.99 22.736v11.707c19.4-3.987 36.87-13.319 50.38-26.384 2.94-2.799 5.63-5.768 8.15-8.822l-6.38-10.944zM2666.74 499.993c2.52 3.139 5.29 6.023 8.15 8.823 13.6 13.064 30.98 22.396 50.38 26.384v-11.708c-16.13-3.733-30.57-11.792-41.99-22.736-3.78-3.563-7.13-7.55-10.16-11.707l-6.38 10.944z"/><path d="M2624.59 487.776c12.68-12.216 20.57-29.098 20.57-47.592v-51.241h11.92v51.325c0 8.993 1.52 19.597 4.2 27.742 2.77-8.229 4.2-18.749 4.2-27.742v-51.325h11.92v51.325c0 18.495 7.9 35.377 20.58 47.593 7.55 7.296 16.87 12.895 27.29 16.289v11.961a83.064 83.064 0 0 1-35.69-20.19c-7.39-7.042-13.35-15.44-17.47-24.772-3.1 8.059-6.54 15.694-10.83 21.463-4.28-5.769-7.72-13.404-10.83-21.463-4.2 9.332-10.16 17.645-17.46 24.772-9.74 9.416-22 16.458-35.69 20.19V504.15c10.41-3.394 19.73-9.078 27.29-16.374z"/><path d="M2696.47 439.166c0 13.488 5.7 25.79 15.03 34.697 4.03 3.818 8.64 7.042 13.85 9.502v12.471a63.694 63.694 0 0 1-22.25-13.828c-11.42-10.944-18.47-26.13-18.47-42.758v-11.622h11.92v11.538h-.08zM2626.19 427.628h11.92v11.538c0 16.627-7.05 31.813-18.47 42.757a63.736 63.736 0 0 1-22.26 13.828V483.28a50.361 50.361 0 0 0 13.86-9.502c9.24-8.907 15.03-21.208 15.03-34.697v-11.453h-.08zM2649.53 489.134c-3.02 4.157-6.47 8.059-10.16 11.707-11.42 10.944-25.86 19.003-41.99 22.736v11.707c19.4-3.987 36.87-13.319 50.38-26.384 2.94-2.799 5.63-5.768 8.15-8.822l-6.38-10.944zM2085.44 1117.88c2.52 3.14 5.29 6.02 8.14 8.82 13.61 13.07 30.99 22.4 50.38 26.39v-11.71c-16.12-3.73-30.56-11.79-41.98-22.74-3.78-3.56-7.14-7.55-10.16-11.7l-6.38 10.94z"/><path d="M2043.29 1105.66c12.68-12.21 20.57-29.1 20.57-47.59v-51.24h11.92v51.32c0 9 1.52 19.6 4.2 27.75 2.77-8.23 4.2-18.75 4.2-27.75v-51.32h11.92v51.32c0 18.5 7.9 35.38 20.58 47.6 7.55 7.29 16.87 12.89 27.28 16.29V1134a83.23 83.23 0 0 1-35.68-20.19c-7.39-7.04-13.35-15.44-17.47-24.78-3.1 8.06-6.55 15.7-10.83 21.47-4.28-5.77-7.72-13.41-10.83-21.47-4.2 9.34-10.16 17.65-17.46 24.78-9.74 9.41-22 16.45-35.69 20.19v-11.96c10.41-3.4 19.73-9.08 27.29-16.38z"/><path d="M2115.16 1057.05c0 13.49 5.71 25.79 15.03 34.7 4.03 3.82 8.65 7.04 13.86 9.5v12.47a63.54 63.54 0 0 1-22.25-13.83c-11.42-10.94-18.47-26.13-18.47-42.75v-11.63h11.92v11.54h-.09zM2044.88 1045.51h11.93v11.54c0 16.63-7.06 31.82-18.47 42.76a63.872 63.872 0 0 1-22.26 13.83v-12.47c5.13-2.38 9.83-5.6 13.86-9.51 9.23-8.9 15.03-21.2 15.03-34.69v-11.46h-.09zM2068.23 1107.02c-3.03 4.16-6.47 8.06-10.16 11.71-11.42 10.94-25.86 19-41.99 22.73v11.71c19.4-3.99 36.87-13.32 50.38-26.38 2.94-2.8 5.63-5.77 8.15-8.83l-6.38-10.94zM3248.04 1117.88c2.52 3.14 5.29 6.02 8.15 8.82 13.6 13.07 30.98 22.4 50.38 26.39v-11.71c-16.13-3.73-30.57-11.79-41.99-22.74-3.78-3.56-7.13-7.55-10.16-11.7l-6.38 10.94z"/><path d="M3205.89 1105.66c12.68-12.21 20.57-29.1 20.57-47.59v-51.24h11.93v51.32c0 9 1.51 19.6 4.19 27.75 2.77-8.23 4.2-18.75 4.2-27.75v-51.32h11.93v51.32c0 18.5 7.89 35.38 20.57 47.6 7.55 7.29 16.87 12.89 27.29 16.29V1134a83.207 83.207 0 0 1-35.69-20.19c-7.39-7.04-13.35-15.44-17.46-24.78-3.11 8.06-6.55 15.7-10.84 21.47-4.28-5.77-7.72-13.41-10.83-21.47-4.2 9.34-10.16 17.65-17.46 24.78-9.74 9.41-22 16.45-35.69 20.19v-11.96c10.41-3.4 19.73-9.08 27.29-16.38z"/><path d="M3277.77 1057.05c0 13.49 5.71 25.79 15.03 34.7 4.03 3.82 8.64 7.04 13.85 9.5v12.47a63.54 63.54 0 0 1-22.25-13.83c-11.42-10.94-18.47-26.13-18.47-42.75v-11.63h11.92v11.54h-.08zM3207.49 1045.51h11.92v11.54c0 16.63-7.05 31.82-18.47 42.76a63.922 63.922 0 0 1-22.25 13.83v-12.47c5.12-2.38 9.82-5.6 13.85-9.51 9.24-8.9 15.03-21.2 15.03-34.69v-11.46h-.08zM3230.83 1107.02c-3.02 4.16-6.47 8.06-10.16 11.71-11.42 10.94-25.86 19-41.98 22.73v11.71c19.39-3.99 36.86-13.32 50.38-26.38 2.93-2.8 5.62-5.77 8.14-8.83l-6.38-10.94zM2666.74 1117.88c2.52 3.14 5.29 6.02 8.15 8.82 13.6 13.07 30.98 22.4 50.38 26.39v-11.71c-16.13-3.73-30.57-11.79-41.99-22.74-3.78-3.56-7.13-7.55-10.16-11.7l-6.38 10.94z"/><path d="M2624.59 1105.66c12.68-12.21 20.57-29.1 20.57-47.59v-51.24h11.92v51.32c0 9 1.52 19.6 4.2 27.75 2.77-8.23 4.2-18.75 4.2-27.75v-51.32h11.92v51.32c0 18.5 7.9 35.38 20.58 47.6 7.55 7.29 16.87 12.89 27.29 16.29V1134a83.207 83.207 0 0 1-35.69-20.19c-7.39-7.04-13.35-15.44-17.47-24.78-3.1 8.06-6.54 15.7-10.83 21.47-4.28-5.77-7.72-13.41-10.83-21.47-4.2 9.34-10.16 17.65-17.46 24.78-9.74 9.41-22 16.45-35.69 20.19v-11.96c10.41-3.4 19.73-9.08 27.29-16.38z"/><path d="M2696.47 1057.05c0 13.49 5.7 25.79 15.03 34.7 4.03 3.82 8.64 7.04 13.85 9.5v12.47a63.54 63.54 0 0 1-22.25-13.83c-11.42-10.94-18.47-26.13-18.47-42.75v-11.63h11.92v11.54h-.08zM2626.19 1045.51h11.92v11.54c0 16.63-7.05 31.82-18.47 42.76a63.872 63.872 0 0 1-22.26 13.83v-12.47c5.13-2.38 9.83-5.6 13.86-9.51 9.24-8.9 15.03-21.2 15.03-34.69v-11.46h-.08zM2649.53 1107.02c-3.02 4.16-6.47 8.06-10.16 11.71-11.42 10.94-25.86 19-41.99 22.73v11.71c19.4-3.99 36.87-13.32 50.38-26.38 2.94-2.8 5.63-5.77 8.15-8.83l-6.38-10.94zM2085.44 1735.77c2.52 3.13 5.29 6.02 8.14 8.82 13.61 13.06 30.99 22.4 50.38 26.38v-11.7c-16.12-3.74-30.56-11.8-41.98-22.74-3.78-3.56-7.14-7.55-10.16-11.71l-6.38 10.95z"/><path d="M2043.29 1723.55c12.68-12.22 20.57-29.1 20.57-47.59v-51.24h11.92v51.32c0 8.99 1.52 19.6 4.2 27.74 2.77-8.23 4.2-18.75 4.2-27.74v-51.32h11.92v51.32c0 18.5 7.9 35.38 20.58 47.59 7.55 7.3 16.87 12.9 27.28 16.29v11.96a83.025 83.025 0 0 1-35.68-20.19c-7.39-7.04-13.35-15.44-17.47-24.77-3.1 8.06-6.55 15.7-10.83 21.46-4.28-5.76-7.72-13.4-10.83-21.46-4.2 9.33-10.16 17.65-17.46 24.77-9.74 9.42-22 16.46-35.69 20.19v-11.96c10.41-3.39 19.73-9.07 27.29-16.37z"/><path d="M2115.16 1674.94c0 13.49 5.71 25.79 15.03 34.7 4.03 3.81 8.65 7.04 13.86 9.5v12.47a63.83 63.83 0 0 1-22.25-13.83c-11.42-10.94-18.47-26.13-18.47-42.76v-11.62h11.92v11.54h-.09zM2044.88 1663.4h11.93v11.54c0 16.63-7.06 31.81-18.47 42.76a63.702 63.702 0 0 1-22.26 13.82v-12.47c5.13-2.37 9.83-5.6 13.86-9.5 9.23-8.91 15.03-21.21 15.03-34.7v-11.45h-.09zM2068.23 1724.91c-3.03 4.15-6.47 8.06-10.16 11.7-11.42 10.95-25.86 19.01-41.99 22.74v11.71c19.4-3.99 36.87-13.32 50.38-26.39 2.94-2.8 5.63-5.77 8.15-8.82l-6.38-10.94zM3248.04 1735.77c2.52 3.13 5.29 6.02 8.15 8.82 13.6 13.06 30.98 22.4 50.38 26.38v-11.7c-16.13-3.74-30.57-11.8-41.99-22.74-3.78-3.56-7.13-7.55-10.16-11.71l-6.38 10.95z"/><path d="M3205.89 1723.55c12.68-12.22 20.57-29.1 20.57-47.59v-51.24h11.93v51.32c0 8.99 1.51 19.6 4.19 27.74 2.77-8.23 4.2-18.75 4.2-27.74v-51.32h11.93v51.32c0 18.5 7.89 35.38 20.57 47.59 7.55 7.3 16.87 12.9 27.29 16.29v11.96a83.003 83.003 0 0 1-35.69-20.19c-7.39-7.04-13.35-15.44-17.46-24.77-3.11 8.06-6.55 15.7-10.84 21.46-4.28-5.76-7.72-13.4-10.83-21.46-4.2 9.33-10.16 17.65-17.46 24.77-9.74 9.42-22 16.46-35.69 20.19v-11.96c10.41-3.39 19.73-9.07 27.29-16.37z"/><path d="M3277.77 1674.94c0 13.49 5.71 25.79 15.03 34.7 4.03 3.81 8.64 7.04 13.85 9.5v12.47a63.83 63.83 0 0 1-22.25-13.83c-11.42-10.94-18.47-26.13-18.47-42.76v-11.62h11.92v11.54h-.08zM3207.49 1663.4h11.92v11.54c0 16.63-7.05 31.81-18.47 42.76a63.751 63.751 0 0 1-22.25 13.82v-12.47c5.12-2.37 9.82-5.6 13.85-9.5 9.24-8.91 15.03-21.21 15.03-34.7v-11.45h-.08zM3230.83 1724.91c-3.02 4.15-6.47 8.06-10.16 11.7-11.42 10.95-25.86 19.01-41.98 22.74v11.71c19.39-3.99 36.86-13.32 50.38-26.39 2.93-2.8 5.62-5.77 8.14-8.82l-6.38-10.94zM3747.44 1735.77c2.52 3.13 5.29 6.02 8.14 8.82 13.61 13.06 30.99 22.4 50.38 26.38v-11.7c-16.12-3.74-30.56-11.8-41.98-22.74-3.78-3.56-7.14-7.55-10.16-11.71l-6.38 10.95z"/><path d="M3705.29 1723.55c12.68-12.22 20.57-29.1 20.57-47.59v-51.24h11.92v51.32c0 8.99 1.52 19.6 4.2 27.74 2.77-8.23 4.2-18.75 4.2-27.74v-51.32h11.92v51.32c0 18.5 7.9 35.38 20.58 47.59 7.55 7.3 16.87 12.9 27.28 16.29v11.96a83.025 83.025 0 0 1-35.68-20.19c-7.39-7.04-13.35-15.44-17.47-24.77-3.1 8.06-6.55 15.7-10.83 21.46-4.28-5.76-7.72-13.4-10.83-21.46-4.2 9.33-10.16 17.65-17.46 24.77-9.74 9.42-22 16.46-35.69 20.19v-11.96c10.41-3.39 19.73-9.07 27.29-16.37z"/><path d="M3777.16 1674.94c0 13.49 5.71 25.79 15.03 34.7 4.03 3.81 8.65 7.04 13.86 9.5v12.47a63.83 63.83 0 0 1-22.25-13.83c-11.42-10.94-18.47-26.13-18.47-42.76v-11.62h11.92v11.54h-.09zM3706.88 1663.4h11.93v11.54c0 16.63-7.06 31.81-18.47 42.76a63.702 63.702 0 0 1-22.26 13.82v-12.47c5.13-2.37 9.83-5.6 13.86-9.5 9.23-8.91 15.03-21.21 15.03-34.7v-11.45h-.09zM3730.23 1724.91c-3.03 4.15-6.47 8.06-10.16 11.7-11.42 10.95-25.86 19.01-41.99 22.74v11.71c19.4-3.99 36.87-13.32 50.38-26.39 2.94-2.8 5.63-5.77 8.15-8.82l-6.38-10.94zM2666.74 1735.77c2.52 3.13 5.29 6.02 8.15 8.82 13.6 13.06 30.98 22.4 50.38 26.38v-11.7c-16.13-3.74-30.57-11.8-41.99-22.74-3.78-3.56-7.13-7.55-10.16-11.71l-6.38 10.95z"/><path d="M2624.59 1723.55c12.68-12.22 20.57-29.1 20.57-47.59v-51.24h11.92v51.32c0 8.99 1.52 19.6 4.2 27.74 2.77-8.23 4.2-18.75 4.2-27.74v-51.32h11.92v51.32c0 18.5 7.9 35.38 20.58 47.59 7.55 7.3 16.87 12.9 27.29 16.29v11.96a83.003 83.003 0 0 1-35.69-20.19c-7.39-7.04-13.35-15.44-17.47-24.77-3.1 8.06-6.54 15.7-10.83 21.46-4.28-5.76-7.72-13.4-10.83-21.46-4.2 9.33-10.16 17.65-17.46 24.77-9.74 9.42-22 16.46-35.69 20.19v-11.96c10.41-3.39 19.73-9.07 27.29-16.37z"/><path d="M2696.47 1674.94c0 13.49 5.7 25.79 15.03 34.7 4.03 3.81 8.64 7.04 13.85 9.5v12.47a63.83 63.83 0 0 1-22.25-13.83c-11.42-10.94-18.47-26.13-18.47-42.76v-11.62h11.92v11.54h-.08zM2626.19 1663.4h11.92v11.54c0 16.63-7.05 31.81-18.47 42.76a63.702 63.702 0 0 1-22.26 13.82v-12.47c5.13-2.37 9.83-5.6 13.86-9.5 9.24-8.91 15.03-21.21 15.03-34.7v-11.45h-.08zM2649.53 1724.91c-3.02 4.15-6.47 8.06-10.16 11.7-11.42 10.95-25.86 19.01-41.99 22.74v11.71c19.4-3.99 36.87-13.32 50.38-26.39 2.94-2.8 5.63-5.77 8.15-8.82l-6.38-10.94z"/></g></svg>