<svg width="40" height="40" fill="none" xmlns="http://www.w3.org/2000/svg"><path d="M37.656 22.832V3.594c0-.648-.524-1.172-1.172-1.172h-5.937v-1.25a1.172 1.172 0 1 0-2.344 0v1.25h-4.687v-1.25a1.172 1.172 0 1 0-2.344 0v1.25h-4.688v-1.25a1.172 1.172 0 1 0-2.343 0v1.25H9.453v-1.25a1.172 1.172 0 1 0-2.344 0v1.25H1.172C.525 2.422 0 2.946 0 3.594V34.14c0 .647.525 1.172 1.172 1.172h19.516A10.546 10.546 0 0 0 29.453 40C35.27 40 40 35.269 40 29.453c0-2.505-.879-4.81-2.344-6.621zM7.11 4.766v1.171a1.172 1.172 0 1 0 2.344 0V4.766h4.688v1.171a1.172 1.172 0 1 0 2.343 0V4.766h4.688v1.171a1.172 1.172 0 1 0 2.344 0V4.766h4.687v1.171a1.172 1.172 0 1 0 2.344 0V4.766h4.765v4.687H2.344V4.766h4.765zM2.344 32.969V11.797h32.968v8.89a10.487 10.487 0 0 0-5.859-1.78c-3.703 0-6.966 1.918-8.848 4.813a1.165 1.165 0 0 0-.527-.126h-2.344a1.172 1.172 0 1 0 0 2.343h1.776a10.458 10.458 0 0 0-.538 2.344h-1.238a1.172 1.172 0 1 0 0 2.344h1.238c.09.812.273 1.597.538 2.344H2.344zm27.11 4.687c-4.524 0-8.204-3.68-8.204-8.203s3.68-8.203 8.203-8.203 8.203 3.68 8.203 8.203-3.68 8.203-8.203 8.203z" fill="#ADADAD"/><path d="M34.14 28.281h-3.515v-3.515a1.172 1.172 0 1 0-2.344 0v4.687c0 .647.525 1.172 1.172 1.172h4.688a1.172 1.172 0 1 0 0-2.344zM10.625 14.219H8.281a1.172 1.172 0 1 0 0 2.344h2.344a1.172 1.172 0 1 0 0-2.344zM10.625 18.906H8.281a1.172 1.172 0 1 0 0 2.344h2.344a1.172 1.172 0 1 0 0-2.344zM10.625 23.594H8.281a1.172 1.172 0 1 0 0 2.343h2.344a1.172 1.172 0 1 0 0-2.343zM17.734 16.563h2.344a1.172 1.172 0 1 0 0-2.344h-2.344a1.172 1.172 0 1 0 0 2.344zM17.734 21.25h2.344a1.172 1.172 0 1 0 0-2.344h-2.344a1.172 1.172 0 1 0 0 2.344zM10.625 28.281H8.281a1.172 1.172 0 1 0 0 2.344h2.344a1.172 1.172 0 1 0 0-2.344zM27.11 16.563h2.343a1.172 1.172 0 1 0 0-2.344H27.11a1.172 1.172 0 1 0 0 2.344z" fill="#ADADAD"/></svg>