<svg width="1066" height="318" fill="none" xmlns="http://www.w3.org/2000/svg"><path d="M584.681 163.17h-20.207V31.768h20.207V83.75h2.887c11.547 0 14.433-11.552 14.433-20.216V31.768h21.651V62.09c0 14.44-5.773 24.548-15.877 31.768 11.547 7.22 15.877 15.884 15.877 30.324v40.431h-20.207v-41.875c0-8.664-4.33-18.772-14.434-18.772h-2.887v59.203h-1.443zm343.524 0V31.768h17.32v77.975l20.208-77.975h23.094v132.846h-18.764V72.199l-24.538 92.415-17.32-1.444zm76.495 0V31.768h17.32v77.975l20.21-77.975h23.1v132.846h-18.77V72.199l-24.54 92.415-17.32-1.444zM1056.67 0v15.884h-43.31V0h43.31zM877.687 163.17h-20.208V31.768h20.208V83.75h2.886c11.547 0 14.434-11.552 14.434-20.216V31.768h20.207V62.09c0 14.44-5.773 24.548-15.877 31.768 11.547 7.22 15.877 17.328 15.877 31.768v40.431h-20.207v-43.319c0-8.664-4.33-18.772-14.434-18.772h-2.886v59.203zm-366.618 0h-20.208V31.768h59.179v53.427h-20.208V50.539h-18.763v93.859h18.763v-34.655h20.208v53.427H511.069zm291.562 0h-20.207V31.768H841.602v53.427h-20.207V50.539h-18.764v93.859h18.764v-34.655h20.207v53.427H802.631zM456.22 50.54h-20.207v95.302h18.764c1.443-33.211 1.443-63.535 1.443-95.303zm-20.207 112.63h-20.207V30.324H474.984V163.17H436.013zM677.057 50.54h-18.764v95.302h18.764V50.539zm-18.764 112.63h-20.207V30.324H697.264V163.17H658.293zm73.612-112.63v36.099c7.217 0 17.321 0 17.321-12.996V50.54h-17.321zm0 53.427v40.431h17.321v-25.991c0-12.996-10.104-14.44-17.321-14.44zm37.528-49.096v15.884c0 10.108-4.33 18.772-11.547 23.104 7.217 5.776 11.547 14.44 11.547 25.992v43.319h-57.735V31.768h57.735V54.87zm-409.919 64.98c5.773-28.88 11.547-60.648 15.877-88.083h27.424v132.846h-17.32v-53.427l1.443-47.652c-2.887 15.884-12.99 70.755-24.537 98.191h-2.887c-12.99-27.436-23.094-82.307-24.538-98.19l1.444 47.651v51.983h-17.321V31.768h27.424c0 28.88 7.217 59.203 12.991 88.083zM558.701 203.602v59.204c7.217 0 17.32-1.444 17.32-14.44v-44.764h-17.32zm37.528 27.436v15.884c0 20.216-10.104 34.655-30.311 34.655h-7.217v36.1h-20.208V184.831h57.736v46.207zm5.773-46.207h62.065v18.771h-21.65v114.075h-20.208V203.602h-21.65v-18.771h1.443zm-96.706 18.771h-18.764v95.303h18.764v-95.303zm-20.208 114.075h-20.207V184.831h59.179v132.846H485.088zm-148.668 0h-20.207V184.831h59.179v53.427h-20.208v-34.656H336.42v95.303h18.764V264.25h20.208v53.427H336.42zm75.056 0h-20.207V184.831h59.178v132.846H430.24V203.602h-18.764v114.075zM140.121 248.365c4.33 5.776 10.104 11.552 15.877 17.328 27.424 25.991 60.622 43.319 99.593 51.983v-23.104c-31.754-7.22-60.622-23.103-82.272-44.763-7.217-7.22-14.434-14.44-20.208-23.104l-12.99 21.66z" fill="#E51F2F"/><path d="M56.405 223.817c24.537-24.548 40.414-56.315 40.414-92.415V31.767h23.094v99.635c0 17.328 2.887 38.988 8.661 54.871 5.773-15.883 8.66-36.099 8.66-54.871V31.767h23.094v99.635c0 36.1 15.877 69.311 40.415 92.415 14.433 14.44 33.197 24.548 53.405 31.768v23.103c-27.425-7.22-50.519-21.659-70.726-38.987-14.434-14.44-25.981-30.324-34.641-47.652-5.774 15.884-12.99 30.324-21.651 41.876-8.66-11.552-15.877-25.992-21.65-41.876-8.66 18.772-20.208 34.656-34.641 47.652-18.764 18.772-43.302 31.767-70.726 38.987v-23.103c23.094-5.776 41.858-17.328 56.292-31.768z" fill="#E51F2F"/><path d="M197.856 129.957c0 25.992 11.547 50.54 30.311 67.867 7.217 7.22 17.32 14.44 27.424 18.772v24.548c-17.32-5.776-31.754-15.884-43.301-27.436-23.094-21.659-36.085-50.539-36.085-83.751v-23.103h23.094v23.103h-1.443zM59.292 106.854h23.094v23.103c0 33.212-14.434 62.092-36.085 83.751C33.311 225.26 18.877 235.368 3 241.144v-24.548c10.104-4.332 18.764-11.552 27.424-18.772 18.764-17.327 30.311-41.875 30.311-67.867v-23.103h-1.443zM105.48 226.705c-5.774 8.664-12.99 15.884-20.208 23.104C62.178 271.469 34.754 287.352 3 294.572v23.104c38.971-7.22 72.169-25.992 99.593-51.983 5.774-5.776 11.547-11.552 15.877-17.328l-12.99-21.66z" fill="#E51F2F"/></svg>