<svg width="20" height="20" fill="none" xmlns="http://www.w3.org/2000/svg"><path fill-rule="evenodd" clip-rule="evenodd" d="M2.5 14.058V7.714h15v6.395c0 2.616-1.646 4.224-4.281 4.224H6.773c-2.61 0-4.273-1.642-4.273-4.275zm4.133-2.05a.685.685 0 0 1-.708-.665c0-.384.296-.7.675-.718.37 0 .675.293.683.667.017.384-.28.7-.65.716zm3.383 0a.685.685 0 0 1-.708-.665c0-.384.297-.7.675-.718.37 0 .675.293.684.667.016.384-.28.7-.65.716zm3.36 3.067a.706.706 0 0 1-.684-.709.693.693 0 0 1 .675-.707h.008c.387 0 .7.316.7.707a.703.703 0 0 1-.7.709zm-4.068-.708c.017.383.33.684.708.666a.684.684 0 0 0 .65-.716.681.681 0 0 0-.683-.667.712.712 0 0 0-.675.717zm-3.391 0c.016.383.33.684.708.666a.684.684 0 0 0 .65-.716.681.681 0 0 0-.683-.667.712.712 0 0 0-.675.717zm6.783-3.033c0-.383.297-.692.675-.7.37 0 .667.3.684.667a.678.678 0 1 1-1.358.042v-.009z" fill="#6BBB69"/><path opacity=".4" d="M2.503 7.714c.01-.49.052-1.46.13-1.772.394-1.758 1.736-2.875 3.655-3.034h7.425c1.902.168 3.26 1.292 3.656 3.034.076.304.117 1.282.128 1.772H2.503z" fill="#6BBB69"/><path d="M6.92 5.492a.622.622 0 0 0 .634-.642V2.309a.623.623 0 0 0-.633-.643.623.623 0 0 0-.634.643v2.54c0 .368.271.643.634.643zM13.08 5.492a.627.627 0 0 0 .633-.642V2.309a.628.628 0 0 0-.634-.643.623.623 0 0 0-.634.643v2.54c0 .368.272.643.634.643z" fill="#6BBB69"/></svg>