<svg width="28" height="28" fill="none" xmlns="http://www.w3.org/2000/svg"><path d="M13.781 25.563C7.283 25.563 2 20.28 2 13.78c0-3.572 1.596-6.879 4.332-9.159.343-.266.799-.228 1.065.114.266.342.228.798-.114 1.064a10.283 10.283 0 0 0-3.763 7.981c0 5.663 4.599 10.261 10.261 10.261 5.663 0 10.261-4.598 10.261-10.26 0-3.117-1.368-6.005-3.8-7.944a.741.741 0 0 1-.114-1.064.741.741 0 0 1 1.064-.114c2.774 2.242 4.37 5.549 4.37 9.121 0 6.499-5.282 11.781-11.78 11.781z" fill="#000"/><path d="M13.781 14.541a.762.762 0 0 1-.76-.76V2.761c0-.419.342-.761.76-.761s.76.342.76.76v11.021c0 .418-.342.76-.76.76z" fill="#000"/></svg>