<svg width="24" height="24" fill="none" xmlns="http://www.w3.org/2000/svg"><path fill-rule="evenodd" clip-rule="evenodd" d="M.563 2.695C0 3.78 0 5.203 0 8.05v7.9c0 2.848 0 4.271.563 5.355a5 5 0 0 0 2.132 2.132C3.78 24 5.203 24 8.05 24h7.9c2.848 0 4.271 0 5.355-.563a5 5 0 0 0 2.132-2.132C24 20.22 24 18.797 24 15.95v-7.9c0-2.847 0-4.271-.563-5.355A5 5 0 0 0 21.305.563C20.22 0 18.797 0 15.95 0h-7.9C5.203 0 3.779 0 2.695.563A5 5 0 0 0 .563 2.695zM17.2 11.997l-.533 3.334H14v8.666h-4v-8.666H7v-3.334h3V9.331c0-3 1.933-4.667 4.667-4.667.866 0 1.8.133 2.666.267v3.066H15.8c-1.467 0-1.8.734-1.8 1.667v2.333h3.2z" fill="#B5BFC9"/></svg>