<svg width="25" height="24" fill="none" xmlns="http://www.w3.org/2000/svg"><path d="M20.53 6.764L15.486 1.72a.749.749 0 0 0-.53-.22H5a.75.75 0 0 0-.75.75v19.5c0 .415.335.75.75.75h15a.75.75 0 0 0 .75-.75V7.296c0-.2-.08-.391-.22-.532zm-1.51.877h-4.41V3.23l4.41 4.41zm.043 13.171H5.938V3.188h7.078V8.25a.984.984 0 0 0 .984.984h5.063v11.579zm-6.75-6.328H8a.188.188 0 0 0-.188.188v1.125c0 .103.085.187.188.187h4.313a.188.188 0 0 0 .187-.187v-1.125a.188.188 0 0 0-.188-.188zm-4.5-3v1.125c0 .104.084.188.187.188h9a.188.188 0 0 0 .188-.188v-1.125a.188.188 0 0 0-.188-.187H8a.188.188 0 0 0-.188.187z" fill="#fff"/></svg>