<svg width="24" height="24" fill="none" xmlns="http://www.w3.org/2000/svg"><g clip-path="url(#clip0_1413_18322)"><path fill-rule="evenodd" clip-rule="evenodd" d="M.579 2.695C.016 3.78.016 5.203.016 8.05v7.9c0 2.848 0 4.271.563 5.355a5 5 0 0 0 2.132 2.132C3.794 24 5.218 24 8.066 24h7.9c2.847 0 4.27 0 5.354-.563a5 5 0 0 0 2.133-2.132c.563-1.084.563-2.508.563-5.355v-7.9c0-2.847 0-4.271-.563-5.355A5 5 0 0 0 21.32.563C20.238 0 18.813 0 15.966 0h-7.9C5.218 0 3.794 0 2.71.563A5 5 0 0 0 .579 2.695zm7.824.631c.93-.042 1.228-.053 3.598-.053h-.003c2.371 0 2.668.01 3.599.053.929.043 1.563.19 2.12.406.574.222 1.06.52 1.545 1.006.485.485.784.972 1.007 1.546.215.555.362 1.19.405 2.118.042.931.053 1.229.053 3.599s-.01 2.667-.053 3.598c-.043.928-.19 1.563-.405 2.118a4.284 4.284 0 0 1-1.007 1.546 4.27 4.27 0 0 1-1.545 1.007c-.555.216-1.19.363-2.12.405-.93.043-1.227.053-3.597.053s-2.667-.01-3.598-.053c-.929-.042-1.563-.19-2.118-.405a4.273 4.273 0 0 1-1.546-1.008 4.276 4.276 0 0 1-1.006-1.546c-.216-.554-.363-1.189-.406-2.118-.042-.93-.053-1.227-.053-3.597s.011-2.668.053-3.599c.042-.929.19-1.563.405-2.118A4.284 4.284 0 0 1 4.74 4.738a4.273 4.273 0 0 1 1.546-1.006c.555-.216 1.189-.363 2.118-.406zm3.307 1.52h-.492v-.002c-1.626.002-1.938.013-2.743.05-.851.038-1.313.18-1.62.3a2.709 2.709 0 0 0-1.004.653 2.704 2.704 0 0 0-.653 1.004c-.12.307-.262.77-.301 1.62-.042.92-.05 1.195-.05 3.525 0 2.331.008 2.607.05 3.527.039.851.181 1.313.3 1.62.16.408.348.698.654 1.003.305.306.596.495 1.003.653.308.12.77.262 1.62.301.92.042 1.197.051 3.527.051s2.607-.009 3.527-.05c.85-.04 1.313-.182 1.62-.302a2.696 2.696 0 0 0 1.003-.652c.305-.306.495-.596.653-1.003.12-.307.262-.769.3-1.62.042-.92.051-1.196.051-3.525 0-2.33-.009-2.606-.05-3.526-.04-.85-.182-1.312-.301-1.62a2.709 2.709 0 0 0-.653-1.003 2.699 2.699 0 0 0-1.003-.653c-.308-.12-.77-.262-1.62-.3-.92-.042-1.197-.05-3.527-.05h-.29zm3.902 2.496a1.048 1.048 0 1 1 2.094 0 1.048 1.048 0 0 1-2.094 0zM7.52 12.001a4.482 4.482 0 1 1 8.964 0 4.482 4.482 0 0 1-8.964 0zm7.391 0a2.91 2.91 0 1 0-5.818 0 2.91 2.91 0 0 0 5.818 0z" fill="#B5BFC9"/></g><defs><clipPath id="clip0_1413_18322"><path fill="#fff" d="M0 0h24v24H0z"/></clipPath></defs></svg>