<svg width="28" height="28" fill="none" xmlns="http://www.w3.org/2000/svg"><path d="M13.5 25C7.156 25 2 19.843 2 13.5c0-3.487 1.558-6.715 4.229-8.94.334-.26.78-.223 1.039.11.26.335.222.78-.112 1.04a10.037 10.037 0 0 0-3.672 7.79c0 5.527 4.489 10.016 10.016 10.016S23.516 19.027 23.516 13.5c0-3.042-1.335-5.861-3.71-7.753a.723.723 0 0 1-.11-1.039.724.724 0 0 1 1.038-.111C23.442 6.785 25 10.013 25 13.5 25 19.843 19.844 25 13.5 25z" fill="#000"/><path d="M13.5 14.242a.744.744 0 0 1-.742-.742V2.742c0-.408.334-.742.742-.742s.742.334.742.742V13.5a.744.744 0 0 1-.742.742z" fill="#000"/></svg>