<svg width="28" height="28" fill="none" xmlns="http://www.w3.org/2000/svg"><path clip-rule="evenodd" d="M17.192 3.222h-7.76c-2.402 0-4.473 1.947-4.473 4.35V20.23c0 2.539 1.934 4.404 4.473 4.404h9.319c2.403 0 4.352-2 4.352-4.404V9.378l-5.91-6.156z" stroke="#2D313E" stroke-width="1.5" stroke-linecap="round" stroke-linejoin="round"/><path d="M16.886 3.209v3.393c0 1.657 1.34 3.001 2.997 3.005 1.535.003 3.107.004 3.213-.003" stroke="#2D313E" stroke-width="1.5" stroke-linecap="round" stroke-linejoin="round"/><path opacity=".4" fill-rule="evenodd" clip-rule="evenodd" d="M14.568 12.209a.75.75 0 0 0-1.5 0v2.107h-2.109a.75.75 0 0 0 0 1.5h2.109v2.11a.75.75 0 0 0 1.5 0v-2.11h2.109a.75.75 0 0 0 0-1.5h-2.11V12.21z" fill="#2D313E"/></svg>