<svg width="28" height="28" fill="none" xmlns="http://www.w3.org/2000/svg"><path clip-rule="evenodd" d="M15.288 4.873l2.132 4.26c.21.418.612.707 1.08.775l4.77.686c1.178.17 1.647 1.598.794 2.417l-3.449 3.314a1.404 1.404 0 0 0-.413 1.254l.814 4.678c.2 1.158-1.031 2.04-2.084 1.493l-4.263-2.21a1.456 1.456 0 0 0-1.338 0L9.07 23.75c-1.054.548-2.286-.335-2.084-1.492l.813-4.679c.08-.46-.074-.929-.413-1.254L3.936 13.01c-.853-.819-.384-2.247.794-2.417l4.77-.686a1.435 1.435 0 0 0 1.08-.776l2.132-4.259c.527-1.053 2.05-1.053 2.576 0z" stroke="#2D313E" stroke-width="1.5" stroke-linecap="round" stroke-linejoin="round"/></svg>