<svg width="24" height="24" fill="none" xmlns="http://www.w3.org/2000/svg"><path fill-rule="evenodd" clip-rule="evenodd" d="M.563 2.695C0 3.78 0 5.203 0 8.05v7.9c0 2.848 0 4.271.563 5.355a5 5 0 0 0 2.132 2.132C3.78 24 5.203 24 8.05 24h7.9c2.848 0 4.271 0 5.355-.563a5 5 0 0 0 2.132-2.132C24 20.22 24 18.797 24 15.95v-7.9c0-2.847 0-4.271-.563-5.355A5 5 0 0 0 21.305.563C20.22 0 18.797 0 15.95 0h-7.9C5.203 0 3.779 0 2.695.563A5 5 0 0 0 .563 2.695zm3.312 8.492l14.449-5.573c.66-.3 1.297.159 1.045 1.169l-2.46 11.595c-.172.824-.67 1.02-1.36.64l-3.749-2.77-.066.065L10 18l-.014.014c-.203.198-.37.361-.737.361-.38 0-.412-.112-.488-.384a3.61 3.61 0 0 0-.082-.262l-1.38-4.227-3.603-1.125c-.8-.245-.806-.795.18-1.191zM15.987 8.12l-8.123 5.124 1.369 4.197.27-2.889 6.956-6.275c.305-.271-.067-.403-.472-.157z" fill="#B5BFC9"/></svg>