<svg width="24" height="24" fill="none" xmlns="http://www.w3.org/2000/svg"><path fill-rule="evenodd" clip-rule="evenodd" d="M.563 2.695C0 3.78 0 5.203 0 8.05v7.9c0 2.848 0 4.271.563 5.355a5 5 0 0 0 2.132 2.132C3.78 24 5.203 24 8.05 24h7.9c2.848 0 4.271 0 5.355-.563a5 5 0 0 0 2.132-2.132C24 20.22 24 18.797 24 15.95v-7.9c0-2.847 0-4.271-.563-5.355A5 5 0 0 0 21.305.563C20.22 0 18.797 0 15.95 0h-7.9C5.203 0 3.779 0 2.695.563A5 5 0 0 0 .563 2.695zm17.75 3.098A8.482 8.482 0 0 0 12.696 3.3l-.427-.01c-4.708 0-8.54 3.829-8.542 8.536 0 1.505.393 2.974 1.14 4.268L3.656 20.52l4.528-1.188a8.538 8.538 0 0 0 4.083 1.04h.003c4.708 0 8.54-3.83 8.542-8.538a8.484 8.484 0 0 0-2.5-6.04zm-9.66 12.146l-.259-.153-2.687.704.717-2.618-.168-.269a7.077 7.077 0 0 1-1.086-3.776c.002-3.913 3.187-7.096 7.103-7.096 1.896 0 3.679.74 5.02 2.081a7.051 7.051 0 0 1 2.077 5.02c-.002 3.913-3.187 7.097-7.1 7.097h-.003a7.091 7.091 0 0 1-3.613-.99zm7.628-4.268c.149.072.25.12.292.192.054.09.054.516-.124 1.015-.178.498-1.03.953-1.44 1.014a2.928 2.928 0 0 1-1.345-.085 12.29 12.29 0 0 1-1.217-.449c-2-.864-3.353-2.802-3.608-3.168-.018-.026-.03-.044-.038-.053l-.002-.003c-.113-.15-.87-1.16-.87-2.204 0-.983.484-1.498.706-1.735a5.4 5.4 0 0 0 .042-.045.784.784 0 0 1 .569-.267 8.59 8.59 0 0 1 .457.009c.124-.001.279-.002.432.365l.236.572c.183.447.386.94.422 1.012.053.107.089.232.018.374l-.03.06c-.054.11-.093.19-.184.296a8.055 8.055 0 0 0-.109.13c-.073.09-.147.18-.21.244-.108.106-.219.221-.094.435.124.213.553.912 1.187 1.478a5.51 5.51 0 0 0 1.575.995c.06.026.107.046.142.064.213.106.337.088.462-.054.124-.142.533-.623.676-.836.142-.214.284-.178.48-.107s1.245.587 1.458.694l.117.057z" fill="#B5BFC9"/></svg>