<svg width="24" height="24" fill="none" xmlns="http://www.w3.org/2000/svg"><path fill-rule="evenodd" clip-rule="evenodd" d="M.563 2.695C0 3.78 0 5.203 0 8.05v7.9c0 2.848 0 4.271.563 5.355a5 5 0 0 0 2.132 2.132C3.78 24 5.203 24 8.05 24h7.9c2.848 0 4.271 0 5.355-.563a5 5 0 0 0 2.132-2.132C24 20.22 24 18.797 24 15.95v-7.9c0-2.847 0-4.271-.563-5.355A5 5 0 0 0 21.305.563C20.22 0 18.797 0 15.95 0h-7.9C5.203 0 3.779 0 2.695.563A5 5 0 0 0 .563 2.695zm20.066 4.777a2.255 2.255 0 0 0-1.586-1.587C17.634 5.5 12 5.5 12 5.5s-5.634 0-7.043.37a2.302 2.302 0 0 0-1.586 1.602C3 8.881 3 11.802 3 11.802s0 2.935.37 4.329a2.255 2.255 0 0 0 1.587 1.586c1.424.386 7.043.386 7.043.386s5.634 0 7.043-.37a2.255 2.255 0 0 0 1.586-1.587c.37-1.409.37-4.33.37-4.33s.016-2.935-.37-4.344zm-10.423 6.925l4.685-2.699L10.206 9v5.397z" fill="#B5BFC9"/></svg>