<?xml version="1.0" encoding="utf-8"?>
<!-- Generator: Adobe Illustrator 24.1.2, SVG Export Plug-In . SVG Version: 6.00 Build 0)  -->
<svg version="1.1" id="Слой_1" xmlns="http://www.w3.org/2000/svg" xmlns:xlink="http://www.w3.org/1999/xlink" x="0px" y="0px"
	 viewBox="0 0 53.1 53.6" style="enable-background:new 0 0 53.1 53.6;" xml:space="preserve">
<style type="text/css">
	.st0{fill-rule:evenodd;clip-rule:evenodd;fill:#F39200;}
	.st1{fill-rule:evenodd;clip-rule:evenodd;fill:#FDD400;}
	.st2{fill-rule:evenodd;clip-rule:evenodd;fill:#E94591;}
	.st3{fill-rule:evenodd;clip-rule:evenodd;fill:#C52D88;}
	.st4{fill-rule:evenodd;clip-rule:evenodd;fill:#3AAA35;}
	.st5{fill-rule:evenodd;clip-rule:evenodd;fill:#FFED00;}
	.st6{fill-rule:evenodd;clip-rule:evenodd;fill:#787FBD;}
	.st7{fill-rule:evenodd;clip-rule:evenodd;fill:#E94792;}
	.st8{fill-rule:evenodd;clip-rule:evenodd;fill:#64B6E7;}
	.st9{fill-rule:evenodd;clip-rule:evenodd;fill:#93C461;}
</style>
<path class="st0" d="M26.5,26.8L0,19.1L19.9,0L26.5,26.8z"/>
<path class="st1" d="M33.1,53.6L6.5,45.9l20-19.1L33.1,53.6z"/>
<path class="st2" d="M53.1,34.4l-26.6-7.6L46.4,7.6L53.1,34.4z"/>
<path class="st3" d="M26.5,26.8l26.5,7.6L33.1,53.6L26.5,26.8z"/>
<path class="st4" d="M0,19.1l26.5,7.7l-20,19.1L0,19.1z"/>
<path class="st5" d="M26.5,26.8L19.9,0l26.5,7.6L26.5,26.8z"/>
<path class="st0" d="M26.5,26.8L0,19.1L19.9,0L26.5,26.8z"/>
<path class="st6" d="M33.1,53.6L6.5,45.9l20-19.1L33.1,53.6z"/>
<path class="st7" d="M53.1,34.4l-26.6-7.6L46.4,7.6L53.1,34.4z"/>
<path class="st8" d="M26.5,26.8l26.5,7.6L33.1,53.6L26.5,26.8z"/>
<path class="st9" d="M0,19.1l26.5,7.7l-20,19.1L0,19.1z"/>
<path class="st5" d="M26.5,26.8L19.9,0l26.5,7.6L26.5,26.8z"/>
</svg>
