<svg width="136" height="160" fill="none" xmlns="http://www.w3.org/2000/svg"><path fill-rule="evenodd" clip-rule="evenodd" d="M64.474.25L3.882 25.33A6.277 6.277 0 0 0 0 31.127v31.048c0 42.337 25.42 80.461 64.474 96.886v-13.793a92.882 92.882 0 0 1-34.571-29.254l-.948-1.273.032-.027a92.936 92.936 0 0 1-3.294-5.113c-.67-.975-1.566-2.604-2.023-3.479l.028-.023a92.1 92.1 0 0 1-11.105-43.924V35.318l51.881-21.475V.25zM67.95 160h.1-.1zM136 62.175c0 42.555-25.683 80.854-65.079 97.138v-13.751c32.301-15.53 52.486-48.098 52.486-83.387V42.022h.001v-6.294h-.001v-.41l-5.066-2.097.002-.002-5.016-2.074-.019-.007-42.387-17.545V0l61.197 25.33A6.277 6.277 0 0 1 136 31.127v31.048zm-3.828-30.727a3.219 3.219 0 0 1-3.224 3.214 3.22 3.22 0 0 1-3.224-3.214 3.22 3.22 0 0 1 3.224-3.214 3.219 3.219 0 0 1 3.224 3.214zM7.253 34.662a3.219 3.219 0 0 0 3.224-3.214 3.219 3.219 0 0 0-3.224-3.214 3.219 3.219 0 0 0-3.223 3.214 3.219 3.219 0 0 0 3.223 3.214zm20.148-8.838a3.219 3.219 0 0 0 3.224-3.214 3.219 3.219 0 0 0-3.224-3.214 3.219 3.219 0 0 0-3.223 3.214 3.219 3.219 0 0 0 3.223 3.214zM9.671 53.141a3.219 3.219 0 0 1-3.224 3.214 3.219 3.219 0 0 1-3.223-3.214 3.219 3.219 0 0 1 3.223-3.213 3.219 3.219 0 0 1 3.224 3.213zM7.253 80.46a3.219 3.219 0 0 0 3.224-3.214 3.219 3.219 0 0 0-3.224-3.214 3.219 3.219 0 0 0-3.223 3.214 3.219 3.219 0 0 0 3.223 3.214zm9.671 19.282a3.219 3.219 0 0 1-3.223 3.214 3.219 3.219 0 0 1-3.224-3.214 3.219 3.219 0 0 1 3.224-3.213 3.219 3.219 0 0 1 3.223 3.213zm8.866 24.907a3.219 3.219 0 0 0 3.223-3.214 3.219 3.219 0 0 0-3.223-3.213 3.219 3.219 0 0 0-3.224 3.213 3.219 3.219 0 0 0 3.224 3.214zm22.566 16.069a3.219 3.219 0 0 1-3.224 3.214 3.219 3.219 0 0 1-3.224-3.214 3.219 3.219 0 0 1 3.224-3.214 3.219 3.219 0 0 1 3.224 3.214zm-.806-123.73a3.219 3.219 0 0 0 3.223-3.215 3.219 3.219 0 0 0-3.223-3.213 3.219 3.219 0 0 0-3.224 3.213 3.219 3.219 0 0 0 3.224 3.214zm85.428 36.154a3.22 3.22 0 0 1-3.224 3.214 3.22 3.22 0 0 1-3.224-3.214 3.22 3.22 0 0 1 3.224-3.213 3.22 3.22 0 0 1 3.224 3.213zm-4.03 27.318a3.219 3.219 0 0 0 3.224-3.214 3.219 3.219 0 0 0-3.224-3.214 3.22 3.22 0 0 0-3.224 3.214 3.22 3.22 0 0 0 3.224 3.214zm-3.224 19.282a3.218 3.218 0 0 1-3.223 3.214 3.219 3.219 0 0 1-3.224-3.214 3.219 3.219 0 0 1 3.224-3.213 3.218 3.218 0 0 1 3.223 3.213zm-16.118 24.907a3.22 3.22 0 0 0 3.224-3.214 3.22 3.22 0 0 0-3.224-3.213 3.22 3.22 0 0 0-3.224 3.213 3.22 3.22 0 0 0 3.224 3.214zm-15.313 16.069a3.219 3.219 0 0 1-3.223 3.214 3.219 3.219 0 0 1-3.224-3.214 3.219 3.219 0 0 1 3.224-3.214 3.219 3.219 0 0 1 3.223 3.214zm15.313-114.893a3.22 3.22 0 0 0 3.224-3.214 3.22 3.22 0 0 0-3.224-3.214 3.22 3.22 0 0 0-3.224 3.214 3.22 3.22 0 0 0 3.224 3.214zM91.07 13.772a3.219 3.219 0 0 1-3.224 3.214 3.219 3.219 0 0 1-3.224-3.214 3.219 3.219 0 0 1 3.224-3.213 3.219 3.219 0 0 1 3.224 3.213zM46.189 49.704V78h10.314V39.93h-7.614l-11.07 3.132 1.998 8.1 6.372-1.458zm33.635 29.052c5.256 0 9.486-1.89 12.69-5.67 3.24-3.816 4.86-8.478 4.86-13.986 0-5.544-1.602-10.206-4.806-13.986-3.168-3.78-7.38-5.67-12.636-5.67-5.22 0-9.45 1.908-12.69 5.724-3.24 3.78-4.86 8.424-4.86 13.932 0 5.58 1.584 10.26 4.752 14.04 3.204 3.744 7.434 5.616 12.69 5.616zm.108-9.288c-2.088 0-3.78-.954-5.076-2.862-1.296-1.944-1.944-4.446-1.944-7.506 0-3.096.63-5.598 1.89-7.506 1.26-1.908 2.934-2.862 5.022-2.862 2.052 0 3.726.972 5.022 2.916 1.332 1.944 1.998 4.428 1.998 7.452 0 3.06-.63 5.562-1.89 7.506-1.26 1.908-2.934 2.862-5.022 2.862zM57.338 94.704H41.822c0 3.36-.06 6.06-.18 8.1-.12 2.016-.336 3.516-.648 4.5-.288.96-.6 1.584-.936 1.872-.336.264-.792.396-1.368.396-.336 0-.72-.036-1.152-.108l-.36 4.428a11.4 11.4 0 0 0 2.772.324c1.032 0 1.896-.108 2.592-.324.696-.216 1.344-.624 1.944-1.224.6-.6 1.068-1.452 1.404-2.556.336-1.104.6-2.532.792-4.284.192-1.752.288-3.9.288-6.444h4.896V114h5.472V94.704zm6.8 16.956c1.895 1.848 4.307 2.772 7.235 2.772 3.312 0 5.94-1.2 7.884-3.6l-3.132-2.772c-1.416 1.32-2.976 1.98-4.68 1.98-1.248 0-2.28-.324-3.096-.972-.816-.648-1.356-1.584-1.62-2.808h13.428c.048-.672.072-1.152.072-1.44 0-2.952-.804-5.436-2.412-7.452-1.608-2.016-3.936-3.024-6.984-3.024-2.76 0-5.04.972-6.84 2.916-1.8 1.944-2.7 4.32-2.7 7.128 0 2.976.948 5.4 2.844 7.272zm10.763-8.82h-8.244c.216-1.272.684-2.268 1.404-2.988.744-.744 1.668-1.116 2.772-1.116 1.128 0 2.04.372 2.736 1.116.72.744 1.164 1.74 1.332 2.988zm24.49-3.456v-4.68H82.4v4.68h5.724V114h5.544V99.384h5.724z" fill="url(#paint0_linear)"/><defs><linearGradient id="paint0_linear" x1="68.079" y1="0" x2="68.079" y2="160" gradientUnits="userSpaceOnUse"><stop stop-color="#fff"/><stop offset="1" stop-color="#006876"/></linearGradient></defs></svg>