<svg width="136" height="160" fill="none" xmlns="http://www.w3.org/2000/svg"><path fill-rule="evenodd" clip-rule="evenodd" d="M64.474.25L3.882 25.33A6.277 6.277 0 0 0 0 31.127v31.048c0 42.337 25.42 80.461 64.474 96.886v-13.793a92.882 92.882 0 0 1-34.571-29.254l-.948-1.273.032-.027a92.936 92.936 0 0 1-3.294-5.113c-.67-.975-1.566-2.604-2.023-3.479l.028-.023a92.1 92.1 0 0 1-11.105-43.924V35.318l51.881-21.475V.25zM67.95 160h.1-.1zM136 62.175c0 42.555-25.683 80.854-65.079 97.138v-13.751c32.301-15.53 52.486-48.098 52.486-83.387V42.022h.001v-6.294h-.001v-.41l-5.066-2.097.002-.002-5.016-2.074-.019-.007-42.387-17.545V0l61.197 25.33A6.277 6.277 0 0 1 136 31.127v31.048zm-3.828-30.727a3.219 3.219 0 0 1-3.224 3.214 3.22 3.22 0 0 1-3.224-3.214 3.22 3.22 0 0 1 3.224-3.214 3.219 3.219 0 0 1 3.224 3.214zM7.253 34.662a3.219 3.219 0 0 0 3.224-3.214 3.219 3.219 0 0 0-3.224-3.214 3.219 3.219 0 0 0-3.223 3.214 3.219 3.219 0 0 0 3.223 3.214zm20.148-8.838a3.219 3.219 0 0 0 3.224-3.214 3.219 3.219 0 0 0-3.224-3.214 3.219 3.219 0 0 0-3.223 3.214 3.219 3.219 0 0 0 3.223 3.214zM9.671 53.141a3.219 3.219 0 0 1-3.224 3.214 3.219 3.219 0 0 1-3.223-3.214 3.219 3.219 0 0 1 3.223-3.213 3.219 3.219 0 0 1 3.224 3.213zM7.253 80.46a3.219 3.219 0 0 0 3.224-3.214 3.219 3.219 0 0 0-3.224-3.214 3.219 3.219 0 0 0-3.223 3.214 3.219 3.219 0 0 0 3.223 3.214zm9.671 19.282a3.219 3.219 0 0 1-3.223 3.214 3.219 3.219 0 0 1-3.224-3.214 3.219 3.219 0 0 1 3.224-3.213 3.219 3.219 0 0 1 3.223 3.213zm8.866 24.907a3.219 3.219 0 0 0 3.223-3.214 3.219 3.219 0 0 0-3.223-3.213 3.219 3.219 0 0 0-3.224 3.213 3.219 3.219 0 0 0 3.224 3.214zm22.566 16.069a3.219 3.219 0 0 1-3.224 3.214 3.219 3.219 0 0 1-3.224-3.214 3.219 3.219 0 0 1 3.224-3.214 3.219 3.219 0 0 1 3.224 3.214zm-.806-123.73a3.219 3.219 0 0 0 3.223-3.215 3.219 3.219 0 0 0-3.223-3.213 3.219 3.219 0 0 0-3.224 3.213 3.219 3.219 0 0 0 3.224 3.214zm85.428 36.154a3.22 3.22 0 0 1-3.224 3.214 3.22 3.22 0 0 1-3.224-3.214 3.22 3.22 0 0 1 3.224-3.213 3.22 3.22 0 0 1 3.224 3.213zm-4.03 27.318a3.219 3.219 0 0 0 3.224-3.214 3.219 3.219 0 0 0-3.224-3.214 3.22 3.22 0 0 0-3.224 3.214 3.22 3.22 0 0 0 3.224 3.214zm-3.224 19.282a3.218 3.218 0 0 1-3.223 3.214 3.219 3.219 0 0 1-3.224-3.214 3.219 3.219 0 0 1 3.224-3.213 3.218 3.218 0 0 1 3.223 3.213zm-16.118 24.907a3.22 3.22 0 0 0 3.224-3.214 3.22 3.22 0 0 0-3.224-3.213 3.22 3.22 0 0 0-3.224 3.213 3.22 3.22 0 0 0 3.224 3.214zm-15.313 16.069a3.219 3.219 0 0 1-3.223 3.214 3.219 3.219 0 0 1-3.224-3.214 3.219 3.219 0 0 1 3.224-3.214 3.219 3.219 0 0 1 3.223 3.214zm15.313-114.893a3.22 3.22 0 0 0 3.224-3.214 3.22 3.22 0 0 0-3.224-3.214 3.22 3.22 0 0 0-3.224 3.214 3.22 3.22 0 0 0 3.224 3.214zM91.07 13.772a3.219 3.219 0 0 1-3.224 3.214 3.219 3.219 0 0 1-3.224-3.214 3.219 3.219 0 0 1 3.224-3.213 3.219 3.219 0 0 1 3.224 3.213zM39.712 52.367C39.712 36.725 52.437 24 68.079 24c15.641 0 28.366 12.725 28.367 28.367v16.2c0 .185.227.495.405.555 1.533.511 2.778.954 3.919 1.394 1.361.525 2.387 2.032 2.387 3.506v37.226c0 1.465-1.019 2.973-2.37 3.508A88.421 88.421 0 0 1 68.078 121a88.416 88.416 0 0 1-32.708-6.243c-1.35-.536-2.37-2.044-2.37-3.509V74.022c0-1.474 1.026-2.981 2.386-3.506a89.67 89.67 0 0 1 3.92-1.394c.178-.06.406-.37.406-.554v-16.2zm28.366 25.267a7.724 7.724 0 0 0-7.726 7.726c0 2.83 1.596 5.199 3.863 6.542v12.773a3.86 3.86 0 0 0 3.863 3.863 3.86 3.86 0 0 0 3.863-3.863V91.902c2.267-1.343 3.863-3.712 3.863-6.542 0-4.27-3.46-7.726-7.726-7.726zm18.614-11.289V52.367c0-10.264-8.35-18.613-18.614-18.613-10.263 0-18.613 8.35-18.613 18.613v13.977a88.846 88.846 0 0 1 18.616-1.978 88.67 88.67 0 0 1 18.61 1.98z" fill="url(#paint0_linear)"/><defs><linearGradient id="paint0_linear" x1="68.079" y1="0" x2="68.079" y2="160" gradientUnits="userSpaceOnUse"><stop stop-color="#fff"/><stop offset="1" stop-color="#006876"/></linearGradient></defs></svg>