<svg width="136" height="160" fill="none" xmlns="http://www.w3.org/2000/svg"><path fill-rule="evenodd" clip-rule="evenodd" d="M64.474.25L3.882 25.33A6.277 6.277 0 0 0 0 31.127v31.048c0 42.337 25.42 80.461 64.474 96.886v-13.793a92.882 92.882 0 0 1-34.571-29.254l-.948-1.273.032-.027a92.936 92.936 0 0 1-3.294-5.113c-.67-.975-1.566-2.604-2.023-3.479l.028-.023a92.1 92.1 0 0 1-11.105-43.924V35.318l51.881-21.475V.25zM67.95 160h.1-.1zM136 62.175c0 42.555-25.683 80.854-65.079 97.138v-13.751c32.301-15.53 52.486-48.098 52.486-83.387V42.022h.001v-6.294h-.001v-.41l-5.066-2.097.002-.002-5.016-2.074-.019-.007-42.387-17.545V0l61.197 25.33A6.277 6.277 0 0 1 136 31.127v31.048zm-3.828-30.727a3.219 3.219 0 0 1-3.224 3.214 3.22 3.22 0 0 1-3.224-3.214 3.22 3.22 0 0 1 3.224-3.214 3.219 3.219 0 0 1 3.224 3.214zM7.253 34.662a3.219 3.219 0 0 0 3.224-3.214 3.219 3.219 0 0 0-3.224-3.214 3.219 3.219 0 0 0-3.223 3.214 3.219 3.219 0 0 0 3.223 3.214zm20.148-8.838a3.219 3.219 0 0 0 3.224-3.214 3.219 3.219 0 0 0-3.224-3.214 3.219 3.219 0 0 0-3.223 3.214 3.219 3.219 0 0 0 3.223 3.214zM9.671 53.141a3.219 3.219 0 0 1-3.224 3.214 3.219 3.219 0 0 1-3.223-3.214 3.219 3.219 0 0 1 3.223-3.213 3.219 3.219 0 0 1 3.224 3.213zM7.253 80.46a3.219 3.219 0 0 0 3.224-3.214 3.219 3.219 0 0 0-3.224-3.214 3.219 3.219 0 0 0-3.223 3.214 3.219 3.219 0 0 0 3.223 3.214zm9.671 19.282a3.219 3.219 0 0 1-3.223 3.214 3.219 3.219 0 0 1-3.224-3.214 3.219 3.219 0 0 1 3.224-3.213 3.219 3.219 0 0 1 3.223 3.213zm8.866 24.907a3.219 3.219 0 0 0 3.223-3.214 3.219 3.219 0 0 0-3.223-3.213 3.219 3.219 0 0 0-3.224 3.213 3.219 3.219 0 0 0 3.224 3.214zm22.566 16.069a3.219 3.219 0 0 1-3.224 3.214 3.219 3.219 0 0 1-3.224-3.214 3.219 3.219 0 0 1 3.224-3.214 3.219 3.219 0 0 1 3.224 3.214zm-.806-123.73a3.219 3.219 0 0 0 3.223-3.215 3.219 3.219 0 0 0-3.223-3.213 3.219 3.219 0 0 0-3.224 3.213 3.219 3.219 0 0 0 3.224 3.214zm85.428 36.154a3.22 3.22 0 0 1-3.224 3.214 3.22 3.22 0 0 1-3.224-3.214 3.22 3.22 0 0 1 3.224-3.213 3.22 3.22 0 0 1 3.224 3.213zm-4.03 27.318a3.219 3.219 0 0 0 3.224-3.214 3.219 3.219 0 0 0-3.224-3.214 3.22 3.22 0 0 0-3.224 3.214 3.22 3.22 0 0 0 3.224 3.214zm-3.224 19.282a3.218 3.218 0 0 1-3.223 3.214 3.219 3.219 0 0 1-3.224-3.214 3.219 3.219 0 0 1 3.224-3.213 3.218 3.218 0 0 1 3.223 3.213zm-16.118 24.907a3.22 3.22 0 0 0 3.224-3.214 3.22 3.22 0 0 0-3.224-3.213 3.22 3.22 0 0 0-3.224 3.213 3.22 3.22 0 0 0 3.224 3.214zm-15.313 16.069a3.219 3.219 0 0 1-3.223 3.214 3.219 3.219 0 0 1-3.224-3.214 3.219 3.219 0 0 1 3.224-3.214 3.219 3.219 0 0 1 3.223 3.214zm15.313-114.893a3.22 3.22 0 0 0 3.224-3.214 3.22 3.22 0 0 0-3.224-3.214 3.22 3.22 0 0 0-3.224 3.214 3.22 3.22 0 0 0 3.224 3.214zM91.07 13.772a3.219 3.219 0 0 1-3.224 3.214 3.219 3.219 0 0 1-3.224-3.214 3.219 3.219 0 0 1 3.224-3.213 3.219 3.219 0 0 1 3.224 3.213zM43.35 80.673c-.023.025-.275 1.707-.56 3.738l-.517 3.692.906.118c3.994.517 8.312.216 11.928-.83 3.721-1.079 7.044-2.832 10.23-5.398l.405-.326.299.252c.296.25.3.25.499.015.163-.193.226-.216.335-.124.127.108.097.16-.527.897-.644.763-.661.793-.634 1.122.02.232-.07.547-.287 1.002-.205.431-.283.692-.221.744.074.062.202-.047.582-.497l.487-.576.34.252c.33.243.342.273.358.841.025.948.14 1.107 1.899 2.648 1.822 1.596 1.932 1.651 3 1.504l.703-.097.027.591c.033.697-.043 1.04-.715 3.214-1.298 4.2-1.38 4.427-1.872 5.13-.438.626-.458.678-.409 1.075.068.544.498 1.104 1.278 1.664 1.31.94 2.284 1.138 3.106.631.3-.185.712-.739.837-1.126.183-.568 1.266-3.477 1.727-4.637.337-.847.655-1.505.885-1.828.33-.464.406-.524.955-.769.48-.213.651-.337.879-.636.155-.205.385-.481.51-.615l.227-.244.36.304c.26.22.576.667 1.143 1.62 1.102 1.847 4.942 8.269 5.26 8.797.661 1.093 3.974 6.656 5.992 10.063.367.619 1.037 1.762 1.49 2.541 1.3 2.234 1.673 2.828 1.804 2.873.067.023.097.072.066.108-.111.132.28.348.506.279.13-.04.62-.44 1.139-.928 1.788-1.684 5.572-5.114 6.407-5.808 1.117-.929 1.48-1.498 1.101-1.73a.63.63 0 0 1-.21-.272c-.188-.488-3.47-4.136-8.636-9.6l-1.007-1.064-.466-.494c-1.053-1.115-1.75-1.552-3.272-2.053-.434-.142-.58-.24-1.142-.767-.354-.333-1.022-1.08-1.484-1.662a228.006 228.006 0 0 0-3.963-4.775c-.233-.269-.4-.517-.371-.551.028-.034-.036-.136-.143-.227-.14-.118-.197-.285-.202-.584-.003-.231.043-.436.102-.456.063-.02.061-.042-.003-.052-.061-.009-.105-.063-.096-.12.01-.059.078-.053.155.012.182.154.199.124.246-.442.033-.413.005-.509-.201-.685-.213-.182-.24-.29-.235-.964.004-.417-.055-.937-.13-1.155l-.137-.397-10.117-8.553-10.117-8.553.28-.331c.232-.274.262-.357.175-.48-.121-.174-.027-.339.122-.213.056.047.152.025.216-.05.09-.106.16-.098.317.035.186.157.218.152.403-.067.187-.221.187-.24-.005-.267-.114-.017-.224-.01-.245.016-.021.025-.966-.732-2.1-1.683-1.378-1.156-2.042-1.753-2.003-1.8.095-.111-.333-.424-.474-.346-.1.056-.268-.052-.856-.55-.834-.704-.892-.712-1.343-.177-.25.295-.251.295-.45.082-.134-.142-.181-.282-.141-.415.111-.372-.218-.677-3.821-3.535-6.05-4.8-6.198-4.914-6.381-4.915a.583.583 0 0 1-.262-.057l-.204-.141c-.067-.047-.193-.041-.28.014-.144.09-.216.05-.86-.495-.424-.358-.726-.567-.76-.526-.038.044-1.132-.841-3.146-2.544l-3.09-2.611-.86.29c-1.561.526-2.827.467-3.772-.176-.302-.205-.468-.271-.521-.209-.065.076-.586-.337-3.013-2.389-1.75-1.48-2.898-2.493-2.844-2.51.05-.017.335-.966.634-2.11.521-1.99.56-2.098.92-2.524.217-.255.372-.508.365-.594-.017-.205-1.318-1.305-1.523-1.287-.109.01-.555.492-1.63 1.763-1.44 1.705-1.482 1.747-1.614 1.636-.09-.076-.173-.068-.25.022-.09.107-.159.098-.323-.041-.159-.134-.221-.145-.257-.043-.029.082-.086.102-.146.051-.054-.046-.073-.114-.042-.151.034-.04-.167-.258-.481-.524-.314-.265-.563-.427-.596-.388-.089.105-.962.204-1.322.15a4.258 4.258 0 0 1-.775-.232c-.427-.173-.462-.171-.645.046l-.195.23 1.31 1.108c1.177.993 1.328 1.101 1.477 1.045.167-.063.239.076.115.222-.04.048.067.206.27.399.328.312.332.324.16.527-.162.192-.158.218.052.349.207.128.213.158.065.333-.158.187-.153.199.209.505.204.172.396.282.428.245.037-.045 1.82 1.422 5.211 4.29 4.537 3.834 5.144 4.369 5.068 4.458-.065.077-.004.172.251.387.255.215.358.26.423.183.075-.09.528.271 3.657 2.917l3.57 3.018-.165.196c-.135.16-.137.232-.012.39.085.107.26.345.39.529.232.326 2.03 1.993 7.609 7.057l2.745 2.491.81 1.216c.651.978.912 1.302 1.336 1.66.445.376.553.434.701.375.096-.038.172-.105.168-.148-.003-.044.197.093.445.302.34.287.482.365.576.313.157-.087.494.193 2.888 2.403 1.766 1.629 1.797 1.662 1.651 1.775-.081.064-.416.334-.744.6-3.459 2.811-7.488 4.413-12.073 4.8-1.48.124-3.23.123-4.517-.003-.402-.04-.751-.052-.775-.027zm28.559 8.621c-.297.052-.69.06-.872.019-.353-.082-.816-.457-2.638-2.137-.93-.858-1.03-1.028-.973-1.67.031-.344.062-.388 1.14-1.626l1.11-1.273 1.016.917c.629.568 1.01.96 1 1.032-.008.063.12.263.285.444.36.394.375.632.084 1.283-.171.383-.264.503-.515.667-.403.264-1.268.334-1.752.142-.212-.084-.418-.109-.463-.056-.226.268 1.206.691 1.9.563.22-.041.58-.186.798-.323.578-.362.788-.407 1.325-.281l.48.112-.342.405c-.288.34-.332.44-.281.636.033.128.023.2-.023.162-.046-.04-.183-.024-.303.033-.177.084-.24.177-.328.48l-.109.376-.54.095zm-38.464-40.98c.696.589 1.09.965 1.054 1.008-.037.044-1.674-1.3-4.773-3.92-4.447-3.758-4.71-3.993-4.616-4.105.09-.107.167-.058.761.477.622.56.67.589.816.486.153-.109.18-.089 3.044 2.333l2.89 2.442-.144.17-.144.17 1.112.94zm8.927 7.547c.225.19.379.372.347.41-.038.044-1.242-.934-3.477-2.823l-3.419-2.89.193-.216.193-.215 3.023 2.526 3.024 2.526-.144.17c-.138.163-.127.185.26.512zm1.202-2.241l-.23.271-3.015-2.549-3.015-2.549.336-.396.335-.397 1.346 1.061c1.717 1.355 3.46 2.83 4.71 3.984.898.828.975.919.878 1.033-.093.11-.165.075-.61-.303l-.506-.427-.23.272zm-.95-1.704a62.625 62.625 0 0 0-1.819-1.538c-.521-.421-.13-.074.87.772 1.001.846 1.428 1.19.949.766zm6.85 6.203a.434.434 0 0 1-.253.135c-.106.01-.53-.308-1.456-1.09l-1.306-1.105.096-.268c.091-.255.077-.284-.294-.597-.301-.255-.37-.353-.303-.431.066-.08.175-.026.49.24.305.258.424.318.486.244.045-.053.17-.104.278-.114.164-.014.4.156 1.458 1.05 1.305 1.104 1.403 1.227 1.182 1.488-.094.112-.023.19.84.92.864.73.952.787 1.047.675.22-.26.36-.184 1.63.89.675.57 1.26 1.096 1.299 1.169.04.072.01.204-.066.293-.108.128-.101.193.032.305.212.18.07.377-.165.23-.098-.06-.228-.057-.31.009-.076.063-.193.107-.258.1-.065-.009-.681-.49-1.37-1.071-1.293-1.092-1.391-1.216-1.17-1.477.094-.112.023-.19-.84-.92-.864-.73-.953-.787-1.047-.675zm-2.846-2.815a2.33 2.33 0 0 0-.404-.342c-.134-.087-.061-.005.16.184.223.188.332.26.244.158zm4.41 3.726c-.259-.242-.683-.6-.943-.798-.26-.197-.047 0 .472.44.519.438.73.599.471.358zm3.599 3.058c-.004-.042-.06-.093-.125-.115-.072-.024-.07.006.006.075.069.063.122.081.119.04zM28.04 38.326c.031.394.006.466-.26.744l-.296.308-.79-.638c-.434-.351-.806-.697-.828-.769-.028-.093.09-.273.406-.617l.445-.486.644.511.644.511.035.436zM27 38.824a5.039 5.039 0 0 0-.573-.484c-.17-.119-.05.002.264.268.315.267.454.364.309.216zm15.503 10.4c.053.045.046.143-.017.218-.12.14-.321.05-.294-.132.022-.14.192-.186.311-.086zm-.057.068c-.017-.014-.075-.01-.129.008-.054.018-.067.06-.028.093.04.033.098.03.13-.008.03-.037.043-.08.027-.093zm.583.6c.147-.173.353.035.237.24-.053.095-.12.1-.216.02-.097-.082-.103-.162-.021-.26zm.159.086c-.018-.055-.06-.067-.093-.027-.033.04-.03.097.007.128.037.032.079.044.093.027.013-.016.01-.074-.007-.128zm.703.51c.167-.014.311.243.18.324-.133.081-.351-.047-.329-.195.01-.064.077-.123.149-.129zM63.894 65.33c.059.05.062.118.007.152-.128.078-.264-.025-.864-.653-.549-.575-.964-1.116-1.155-1.504-.111-.227.014-.14 1.004.692 1.086.915 1.126.957 1.016 1.087-.067.079-.07.174-.008.226zm-1.525-1.592c-.004-.042-.06-.093-.125-.115-.072-.023-.07.006.006.076.069.063.122.08.119.039zm-32.79-28.781a5.653 5.653 0 0 0-.606-.513c-.189-.136-.07-.016.263.266.333.282.488.393.343.247z" fill="url(#paint0_linear)"/><defs><linearGradient id="paint0_linear" x1="68.079" y1="0" x2="68.079" y2="160" gradientUnits="userSpaceOnUse"><stop stop-color="#fff"/><stop offset="1" stop-color="#006876"/></linearGradient></defs></svg>