<svg width="136" height="160" fill="none" xmlns="http://www.w3.org/2000/svg"><path fill-rule="evenodd" clip-rule="evenodd" d="M64.474.25L3.882 25.33A6.277 6.277 0 0 0 0 31.127v31.048c0 42.337 25.42 80.461 64.474 96.886v-13.793a92.882 92.882 0 0 1-34.571-29.254l-.948-1.273.032-.027a92.936 92.936 0 0 1-3.294-5.113c-.67-.975-1.566-2.604-2.023-3.479l.028-.023a92.1 92.1 0 0 1-11.105-43.924V35.318l51.881-21.475V.25zM67.95 160h.1-.1zM136 62.175c0 42.555-25.683 80.854-65.079 97.138v-13.751c32.301-15.53 52.486-48.098 52.486-83.387V42.022h.001v-6.294h-.001v-.41l-5.066-2.097.002-.002-5.016-2.074-.019-.007-42.387-17.545V0l61.197 25.33A6.277 6.277 0 0 1 136 31.127v31.048zm-3.828-30.727a3.219 3.219 0 0 1-3.224 3.214 3.22 3.22 0 0 1-3.224-3.214 3.22 3.22 0 0 1 3.224-3.214 3.219 3.219 0 0 1 3.224 3.214zM7.253 34.662a3.219 3.219 0 0 0 3.224-3.214 3.219 3.219 0 0 0-3.224-3.214 3.219 3.219 0 0 0-3.223 3.214 3.219 3.219 0 0 0 3.223 3.214zm20.148-8.838a3.219 3.219 0 0 0 3.224-3.214 3.219 3.219 0 0 0-3.224-3.214 3.219 3.219 0 0 0-3.223 3.214 3.219 3.219 0 0 0 3.223 3.214zM9.671 53.141a3.219 3.219 0 0 1-3.224 3.214 3.219 3.219 0 0 1-3.223-3.214 3.219 3.219 0 0 1 3.223-3.213 3.219 3.219 0 0 1 3.224 3.213zM7.253 80.46a3.219 3.219 0 0 0 3.224-3.214 3.219 3.219 0 0 0-3.224-3.214 3.219 3.219 0 0 0-3.223 3.214 3.219 3.219 0 0 0 3.223 3.214zm9.671 19.282a3.219 3.219 0 0 1-3.223 3.214 3.219 3.219 0 0 1-3.224-3.214 3.219 3.219 0 0 1 3.224-3.213 3.219 3.219 0 0 1 3.223 3.213zm8.866 24.907a3.219 3.219 0 0 0 3.223-3.214 3.219 3.219 0 0 0-3.223-3.213 3.219 3.219 0 0 0-3.224 3.213 3.219 3.219 0 0 0 3.224 3.214zm22.566 16.069a3.219 3.219 0 0 1-3.224 3.214 3.219 3.219 0 0 1-3.224-3.214 3.219 3.219 0 0 1 3.224-3.214 3.219 3.219 0 0 1 3.224 3.214zm-.806-123.73a3.219 3.219 0 0 0 3.223-3.215 3.219 3.219 0 0 0-3.223-3.213 3.219 3.219 0 0 0-3.224 3.213 3.219 3.219 0 0 0 3.224 3.214zm85.428 36.154a3.22 3.22 0 0 1-3.224 3.214 3.22 3.22 0 0 1-3.224-3.214 3.22 3.22 0 0 1 3.224-3.213 3.22 3.22 0 0 1 3.224 3.213zm-4.03 27.318a3.219 3.219 0 0 0 3.224-3.214 3.219 3.219 0 0 0-3.224-3.214 3.22 3.22 0 0 0-3.224 3.214 3.22 3.22 0 0 0 3.224 3.214zm-3.224 19.282a3.218 3.218 0 0 1-3.223 3.214 3.219 3.219 0 0 1-3.224-3.214 3.219 3.219 0 0 1 3.224-3.213 3.218 3.218 0 0 1 3.223 3.213zm-16.118 24.907a3.22 3.22 0 0 0 3.224-3.214 3.22 3.22 0 0 0-3.224-3.213 3.22 3.22 0 0 0-3.224 3.213 3.22 3.22 0 0 0 3.224 3.214zm-15.313 16.069a3.219 3.219 0 0 1-3.223 3.214 3.219 3.219 0 0 1-3.224-3.214 3.219 3.219 0 0 1 3.224-3.214 3.219 3.219 0 0 1 3.223 3.214zm15.313-114.893a3.22 3.22 0 0 0 3.224-3.214 3.22 3.22 0 0 0-3.224-3.214 3.22 3.22 0 0 0-3.224 3.214 3.22 3.22 0 0 0 3.224 3.214zM91.07 13.772a3.219 3.219 0 0 1-3.224 3.214 3.219 3.219 0 0 1-3.224-3.214 3.219 3.219 0 0 1 3.224-3.213 3.219 3.219 0 0 1 3.224 3.213zm7.522 34.13c.558.512 1.255.76 1.957.76a2.905 2.905 0 0 0 1.961-5.053C92.88 34.832 80.515 30 67.689 30c-12.826 0-25.191 4.832-34.82 13.61a2.909 2.909 0 0 0-.19 4.107 2.912 2.912 0 0 0 4.107.19c8.552-7.8 19.526-12.094 30.903-12.094 11.377 0 22.35 4.293 30.903 12.09zm6.878 19.751c-.934 0-1.856-.449-2.414-1.286-8.068-12.013-21.29-19.185-35.367-19.185-14.078 0-27.3 7.172-35.367 19.185a2.9 2.9 0 0 1-4.034.794 2.907 2.907 0 0 1-.794-4.034c9.148-13.62 24.176-21.754 40.195-21.754 16.02 0 31.046 8.134 40.195 21.758a2.904 2.904 0 0 1-2.414 4.522zM56.444 122.14c.57.573 1.317.86 2.065.86.74 0 1.48-.279 2.046-.841a2.903 2.903 0 0 0 .02-4.111c-.14-.14-13.846-14.113-13.846-26.385 0-11.985 9.4-21.735 20.96-21.735 11.559 0 20.96 9.75 20.96 21.735a2.907 2.907 0 0 0 5.812 0c0-15.19-12.008-27.547-26.772-27.547S40.917 76.473 40.917 91.663c0 14.636 14.891 29.838 15.527 30.477zm20.425.86c-6.99 0-23.196-13.299-24.766-28.109-.554-5.235 1.113-10.59 4.453-14.326 2.906-3.247 6.832-5.049 11.051-5.072h.082c4.115 0 8.006 1.616 10.966 4.557 3.092 3.073 4.793 7.2 4.793 11.617v1.895c0 4.67 3.635 8.467 8.107 8.467 4.472 0 8.11-3.798 8.11-8.467v-.663c0-18.096-13.109-33.15-29.845-34.266-8.726-.593-17.096 2.421-23.556 8.459-6.704 6.27-10.548 15.228-10.548 24.575 0 7.688 2.604 15.178 7.332 21.092 1 1.255.798 3.08-.458 4.084a2.91 2.91 0 0 1-4.088-.457c-5.545-6.941-8.602-15.721-8.602-24.723 0-10.95 4.518-21.456 12.388-28.818 7.646-7.154 17.558-10.71 27.912-10.017 19.778 1.321 35.274 18.921 35.274 40.067v.663c0 7.874-6.247 14.279-13.923 14.279s-13.919-6.405-13.919-14.279v-1.895c0-2.86-1.093-5.518-3.077-7.494-1.86-1.852-4.297-2.868-6.866-2.868h-.054c-3.275.016-5.48 1.717-6.75 3.14-2.268 2.53-3.391 6.21-3.008 9.838 1.283 12.082 15.167 22.913 18.988 22.913a2.907 2.907 0 0 1 2.906 2.906A2.9 2.9 0 0 1 76.869 123zM64.554 89.768c0 14.837 12.698 27.547 23.099 27.547a2.907 2.907 0 0 0 2.906-2.906 2.907 2.907 0 0 0-2.906-2.906c-7.618 0-17.286-10.234-17.286-21.735a2.907 2.907 0 0 0-5.813 0z" fill="url(#paint0_linear)"/><defs><linearGradient id="paint0_linear" x1="68.079" y1="0" x2="68.079" y2="160" gradientUnits="userSpaceOnUse"><stop stop-color="#fff"/><stop offset="1" stop-color="#006876"/></linearGradient></defs></svg>