<svg width="136" height="160" fill="none" xmlns="http://www.w3.org/2000/svg"><path fill-rule="evenodd" clip-rule="evenodd" d="M64.474.25L3.882 25.33A6.277 6.277 0 0 0 0 31.127v31.048c0 42.337 25.42 80.461 64.474 96.886v-13.793a92.882 92.882 0 0 1-34.571-29.254l-.948-1.273.032-.027a92.936 92.936 0 0 1-3.294-5.113c-.67-.975-1.566-2.604-2.023-3.479l.028-.023a92.1 92.1 0 0 1-11.105-43.924V35.318l51.881-21.475V.25zM67.95 160h.1-.1zM136 62.175c0 42.555-25.683 80.854-65.079 97.138v-13.751c32.301-15.53 52.486-48.098 52.486-83.387V42.022h.001v-6.294h-.001v-.41l-5.066-2.097.002-.002-5.016-2.074-.019-.007-42.387-17.545V0l61.197 25.33A6.277 6.277 0 0 1 136 31.127v31.048zm-3.828-30.727a3.219 3.219 0 0 1-3.224 3.214 3.22 3.22 0 0 1-3.224-3.214 3.22 3.22 0 0 1 3.224-3.214 3.219 3.219 0 0 1 3.224 3.214zM7.253 34.662a3.219 3.219 0 0 0 3.224-3.214 3.219 3.219 0 0 0-3.224-3.214 3.219 3.219 0 0 0-3.223 3.214 3.219 3.219 0 0 0 3.223 3.214zm20.148-8.838a3.219 3.219 0 0 0 3.224-3.214 3.219 3.219 0 0 0-3.224-3.214 3.219 3.219 0 0 0-3.223 3.214 3.219 3.219 0 0 0 3.223 3.214zM9.671 53.141a3.219 3.219 0 0 1-3.224 3.214 3.219 3.219 0 0 1-3.223-3.214 3.219 3.219 0 0 1 3.223-3.213 3.219 3.219 0 0 1 3.224 3.213zM7.253 80.46a3.219 3.219 0 0 0 3.224-3.214 3.219 3.219 0 0 0-3.224-3.214 3.219 3.219 0 0 0-3.223 3.214 3.219 3.219 0 0 0 3.223 3.214zm9.671 19.282a3.219 3.219 0 0 1-3.223 3.214 3.219 3.219 0 0 1-3.224-3.214 3.219 3.219 0 0 1 3.224-3.213 3.219 3.219 0 0 1 3.223 3.213zm8.866 24.907a3.219 3.219 0 0 0 3.223-3.214 3.219 3.219 0 0 0-3.223-3.213 3.219 3.219 0 0 0-3.224 3.213 3.219 3.219 0 0 0 3.224 3.214zm22.566 16.069a3.219 3.219 0 0 1-3.224 3.214 3.219 3.219 0 0 1-3.224-3.214 3.219 3.219 0 0 1 3.224-3.214 3.219 3.219 0 0 1 3.224 3.214zm-.806-123.73a3.219 3.219 0 0 0 3.223-3.215 3.219 3.219 0 0 0-3.223-3.213 3.219 3.219 0 0 0-3.224 3.213 3.219 3.219 0 0 0 3.224 3.214zm85.428 36.154a3.22 3.22 0 0 1-3.224 3.214 3.22 3.22 0 0 1-3.224-3.214 3.22 3.22 0 0 1 3.224-3.213 3.22 3.22 0 0 1 3.224 3.213zm-4.03 27.318a3.219 3.219 0 0 0 3.224-3.214 3.219 3.219 0 0 0-3.224-3.214 3.22 3.22 0 0 0-3.224 3.214 3.22 3.22 0 0 0 3.224 3.214zm-3.224 19.282a3.218 3.218 0 0 1-3.223 3.214 3.219 3.219 0 0 1-3.224-3.214 3.219 3.219 0 0 1 3.224-3.213 3.218 3.218 0 0 1 3.223 3.213zm-16.118 24.907a3.22 3.22 0 0 0 3.224-3.214 3.22 3.22 0 0 0-3.224-3.213 3.22 3.22 0 0 0-3.224 3.213 3.22 3.22 0 0 0 3.224 3.214zm-15.313 16.069a3.219 3.219 0 0 1-3.223 3.214 3.219 3.219 0 0 1-3.224-3.214 3.219 3.219 0 0 1 3.224-3.214 3.219 3.219 0 0 1 3.223 3.214zm15.313-114.893a3.22 3.22 0 0 0 3.224-3.214 3.22 3.22 0 0 0-3.224-3.214 3.22 3.22 0 0 0-3.224 3.214 3.22 3.22 0 0 0 3.224 3.214zM91.07 13.772a3.219 3.219 0 0 1-3.224 3.214 3.219 3.219 0 0 1-3.224-3.214 3.219 3.219 0 0 1 3.224-3.213 3.219 3.219 0 0 1 3.224 3.213zm-25.89 84.19c0-6.76 5.5-12.26 12.26-12.26 6.761 0 12.262 5.5 12.26 12.26 0 3.469-1.45 6.603-3.772 8.835-.275.265-.563.517-.862.755l-.002.002c-.148.118-.299.233-.453.344l-.009.007a13.46 13.46 0 0 1-.461.318l-.013.008-.008.005c-.153.1-.307.196-.465.289l-.036.021c-.153.09-.307.176-.464.259l-.013.007-.013.007-.03.015c-.151.079-.303.156-.458.228l-.017.008-.026.012-.038.017a11.917 11.917 0 0 1-.509.221v.001l-.026.01-.02.008c-.144.058-.288.114-.435.167-.026.01-.053.018-.08.027l-.057.02c-.139.047-.278.095-.418.138l-.103.029-.068.019-.01.003a12.41 12.41 0 0 1-.387.107 5.592 5.592 0 0 1-.133.031l-.075.018-.06.014c-.104.024-.207.048-.312.069-.053.011-.107.02-.162.03l-.088.015-.086.016c-.085.015-.17.031-.255.044-.068.01-.137.018-.206.027a2.996 2.996 0 0 0-.094.011l-.092.012h-.003v.001c-.07.009-.138.018-.207.025-.098.009-.196.016-.295.023l-.078.005-.09.007a2.263 2.263 0 0 1-.082.007l-.067.004a12.794 12.794 0 0 1-1.243 0l-.148-.011-.091-.007-.078-.005c-.099-.007-.197-.014-.295-.023l-.054-.006-.035-.004-.117-.015-.096-.013c-.1-.013-.2-.023-.3-.038-.086-.013-.17-.029-.255-.044l-.086-.016-.068-.012-.02-.003-.07-.012a.506.506 0 0 0-.038-.007l-.054-.011a10.688 10.688 0 0 1-.311-.069l-.06-.014-.082-.019c-.043-.01-.085-.019-.127-.03a9.824 9.824 0 0 1-.379-.105l-.018-.005-.068-.019h-.001l-.102-.029c-.14-.043-.28-.091-.418-.138l-.059-.02-.015-.005-.034-.012-.03-.01c-.145-.053-.29-.109-.434-.167l-.049-.019-.058-.024c-.151-.062-.3-.129-.448-.197l-.016-.007-.025-.011v-.001a7.669 7.669 0 0 1-.498-.246l-.025-.013-.008-.004-.023-.012c-.157-.083-.311-.169-.464-.259l-.037-.021a11.919 11.919 0 0 1-.464-.289l-.02-.013c-.157-.103-.311-.209-.462-.318l-.01-.007a12.047 12.047 0 0 1-.452-.344l-.002-.002c-.3-.238-.587-.49-.862-.755a12.221 12.221 0 0 1-3.773-8.834zM98.19 31H37.83A2.83 2.83 0 0 0 35 33.83v80.166a2.83 2.83 0 0 0 2.83 2.829h25.464v-7.848c-2.448-3.122-3.773-6.95-3.773-11.014 0-9.881 8.04-17.92 17.92-17.92 9.88 0 17.92 8.039 17.92 17.92 0 4.064-1.325 7.892-3.773 11.014v7.848h6.602a2.83 2.83 0 0 0 2.829-2.829V33.83a2.83 2.83 0 0 0-2.83-2.83zM49.147 43.261h11.318a2.83 2.83 0 0 1 0 5.659H49.147a2.83 2.83 0 0 1 0-5.659zm37.725 33.953H75.555a2.83 2.83 0 0 1 0-5.66h11.317a2.83 2.83 0 0 1 0 5.66zm0-9.432H49.147a2.83 2.83 0 0 1 0-5.658h37.725a2.83 2.83 0 0 1 0 5.658zm0-9.43H49.147a2.83 2.83 0 0 1 0-5.66h37.725a2.83 2.83 0 0 1 0 5.66zm-17.92 67.905v-12.516a17.813 17.813 0 0 0 8.489 2.141c3.07 0 5.96-.776 8.488-2.141v12.516a2.831 2.831 0 0 1-2.83 2.829 2.824 2.824 0 0 1-1.569-.475l-4.09-2.726-4.088 2.726a2.83 2.83 0 0 1-4.4-2.354z" fill="url(#paint0_linear)"/><defs><linearGradient id="paint0_linear" x1="68.079" y1="0" x2="68.079" y2="160" gradientUnits="userSpaceOnUse"><stop stop-color="#fff"/><stop offset="1" stop-color="#006876"/></linearGradient></defs></svg>