<svg width="136" height="160" fill="none" xmlns="http://www.w3.org/2000/svg"><path fill-rule="evenodd" clip-rule="evenodd" d="M64.474.25L3.882 25.33A6.277 6.277 0 0 0 0 31.127v31.048c0 42.337 25.42 80.461 64.474 96.886v-13.793a92.882 92.882 0 0 1-34.571-29.254l-.948-1.273.032-.027a92.936 92.936 0 0 1-3.294-5.113c-.67-.975-1.566-2.604-2.023-3.479l.028-.023a92.1 92.1 0 0 1-11.105-43.924V35.318l51.881-21.475V.25zM67.95 160h.1-.1zM136 62.175c0 42.555-25.683 80.854-65.079 97.138v-13.751c32.301-15.53 52.486-48.098 52.486-83.387V42.022h.001v-6.294h-.001v-.41l-5.066-2.097.002-.002-5.016-2.074-.019-.007-42.387-17.545V0l61.197 25.33A6.277 6.277 0 0 1 136 31.127v31.048zm-3.828-30.727a3.219 3.219 0 0 1-3.224 3.214 3.22 3.22 0 0 1-3.224-3.214 3.22 3.22 0 0 1 3.224-3.214 3.219 3.219 0 0 1 3.224 3.214zM7.253 34.662a3.219 3.219 0 0 0 3.224-3.214 3.219 3.219 0 0 0-3.224-3.214 3.219 3.219 0 0 0-3.223 3.214 3.219 3.219 0 0 0 3.223 3.214zm20.148-8.838a3.219 3.219 0 0 0 3.224-3.214 3.219 3.219 0 0 0-3.224-3.214 3.219 3.219 0 0 0-3.223 3.214 3.219 3.219 0 0 0 3.223 3.214zM9.671 53.141a3.219 3.219 0 0 1-3.224 3.214 3.219 3.219 0 0 1-3.223-3.214 3.219 3.219 0 0 1 3.223-3.213 3.219 3.219 0 0 1 3.224 3.213zM7.253 80.46a3.219 3.219 0 0 0 3.224-3.214 3.219 3.219 0 0 0-3.224-3.214 3.219 3.219 0 0 0-3.223 3.214 3.219 3.219 0 0 0 3.223 3.214zm9.671 19.282a3.219 3.219 0 0 1-3.223 3.214 3.219 3.219 0 0 1-3.224-3.214 3.219 3.219 0 0 1 3.224-3.213 3.219 3.219 0 0 1 3.223 3.213zm8.866 24.907a3.219 3.219 0 0 0 3.223-3.214 3.219 3.219 0 0 0-3.223-3.213 3.219 3.219 0 0 0-3.224 3.213 3.219 3.219 0 0 0 3.224 3.214zm22.566 16.069a3.219 3.219 0 0 1-3.224 3.214 3.219 3.219 0 0 1-3.224-3.214 3.219 3.219 0 0 1 3.224-3.214 3.219 3.219 0 0 1 3.224 3.214zm-.806-123.73a3.219 3.219 0 0 0 3.223-3.215 3.219 3.219 0 0 0-3.223-3.213 3.219 3.219 0 0 0-3.224 3.213 3.219 3.219 0 0 0 3.224 3.214zm85.428 36.154a3.22 3.22 0 0 1-3.224 3.214 3.22 3.22 0 0 1-3.224-3.214 3.22 3.22 0 0 1 3.224-3.213 3.22 3.22 0 0 1 3.224 3.213zm-4.03 27.318a3.219 3.219 0 0 0 3.224-3.214 3.219 3.219 0 0 0-3.224-3.214 3.22 3.22 0 0 0-3.224 3.214 3.22 3.22 0 0 0 3.224 3.214zm-3.224 19.282a3.218 3.218 0 0 1-3.223 3.214 3.219 3.219 0 0 1-3.224-3.214 3.219 3.219 0 0 1 3.224-3.213 3.218 3.218 0 0 1 3.223 3.213zm-16.118 24.907a3.22 3.22 0 0 0 3.224-3.214 3.22 3.22 0 0 0-3.224-3.213 3.22 3.22 0 0 0-3.224 3.213 3.22 3.22 0 0 0 3.224 3.214zm-15.313 16.069a3.219 3.219 0 0 1-3.223 3.214 3.219 3.219 0 0 1-3.224-3.214 3.219 3.219 0 0 1 3.224-3.214 3.219 3.219 0 0 1 3.223 3.214zm15.313-114.893a3.22 3.22 0 0 0 3.224-3.214 3.22 3.22 0 0 0-3.224-3.214 3.22 3.22 0 0 0-3.224 3.214 3.22 3.22 0 0 0 3.224 3.214zM91.07 13.772a3.219 3.219 0 0 1-3.224 3.214 3.219 3.219 0 0 1-3.224-3.214 3.219 3.219 0 0 1 3.224-3.213 3.219 3.219 0 0 1 3.224 3.213zm-50.94 55.22V76h26.593v-7.584H52.85l5.76-4.032c2.752-1.952 4.736-3.76 5.952-5.424 1.216-1.696 1.824-3.808 1.824-6.336 0-3.2-1.152-5.792-3.456-7.776-2.272-2.016-5.248-3.024-8.928-3.024-3.104 0-5.68.576-7.728 1.728-2.048 1.152-4.032 2.976-5.952 5.472l6.288 5.232c1.344-1.568 2.512-2.672 3.504-3.312 1.024-.672 2.08-1.008 3.168-1.008 1.12 0 2.016.304 2.688.912.704.608 1.056 1.44 1.056 2.496 0 1.024-.336 2-1.008 2.928-.64.896-1.744 1.936-3.312 3.12l-12.576 9.6zm29.954 0V76h26.592v-7.584H82.804l5.76-4.032c2.752-1.952 4.736-3.76 5.952-5.424 1.216-1.696 1.824-3.808 1.824-6.336 0-3.2-1.152-5.792-3.456-7.776-2.272-2.016-5.248-3.024-8.928-3.024-3.104 0-5.68.576-7.728 1.728-2.048 1.152-4.032 2.976-5.952 5.472l6.288 5.232c1.344-1.568 2.512-2.672 3.504-3.312 1.024-.672 2.08-1.008 3.168-1.008 1.12 0 2.016.304 2.688.912.704.608 1.056 1.44 1.056 2.496 0 1.024-.336 2-1.008 2.928-.64.896-1.744 1.936-3.312 3.12l-12.576 9.6zm-32.657 17.7h4.302v-2.34H34.69V94h2.736v-7.308zm10.523 7.524c1.488 0 2.73-.486 3.726-1.458 1.008-.972 1.512-2.16 1.512-3.564 0-1.416-.498-2.604-1.494-3.564-.984-.972-2.22-1.458-3.708-1.458s-2.736.486-3.744 1.458c-.996.972-1.494 2.16-1.494 3.564 0 1.416.492 2.61 1.476 3.582.996.96 2.238 1.44 3.726 1.44zm1.854-3.114c-.456.504-1.062.756-1.818.756-.744 0-1.356-.258-1.836-.774-.468-.528-.702-1.158-.702-1.89 0-.756.228-1.386.684-1.89.456-.516 1.062-.774 1.818-.774.744 0 1.35.264 1.818.792.48.516.72 1.14.72 1.872 0 .756-.228 1.392-.684 1.908zm11.431.558h-3.294c.456-1.092.696-2.676.72-4.752v-.216h2.574v4.968zM56.61 94h6.048v2.268h2.304l.324-4.608h-1.314v-7.308h-7.884v.828c0 2.988-.312 5.148-.936 6.48h-1.044v4.608h2.304L56.61 94zm10.522-.612c.636.528 1.428.792 2.376.792 1.212 0 2.184-.408 2.916-1.224V94h2.646v-5.598c0-1.356-.348-2.382-1.044-3.078-.72-.72-1.806-1.08-3.258-1.08-1.32 0-2.568.258-3.744.774l.684 2.088c.948-.348 1.836-.522 2.664-.522 1.38 0 2.07.588 2.07 1.764v.162a7.206 7.206 0 0 0-2.358-.396c-1.188 0-2.136.258-2.844.774-.696.516-1.044 1.284-1.044 2.304 0 .936.312 1.668.936 2.196zm4.752-1.566c-.396.312-.912.468-1.548.468-.444 0-.804-.102-1.08-.306a1.042 1.042 0 0 1-.414-.864c0-.444.162-.78.486-1.008.336-.24.804-.36 1.404-.36.648 0 1.23.12 1.746.36v.486c0 .492-.198.9-.594 1.224zM91.658 94v-9.648h-2.736v3.708h-3.366v-3.708H82.82V94h2.736v-3.69h3.366V94h2.736zm2.807-.612c.636.528 1.428.792 2.376.792 1.212 0 2.184-.408 2.916-1.224V94h2.646v-5.598c0-1.356-.348-2.382-1.044-3.078-.72-.72-1.806-1.08-3.258-1.08-1.32 0-2.568.258-3.744.774l.684 2.088c.948-.348 1.836-.522 2.664-.522 1.38 0 2.07.588 2.07 1.764v.162a7.206 7.206 0 0 0-2.358-.396c-1.188 0-2.136.258-2.844.774-.696.516-1.044 1.284-1.044 2.304 0 .936.312 1.668.936 2.196zm4.752-1.566c-.396.312-.912.468-1.548.468-.444 0-.804-.102-1.08-.306a1.042 1.042 0 0 1-.414-.864c0-.444.162-.78.486-1.008.336-.24.804-.36 1.404-.36.648 0 1.23.12 1.746.36v.486c0 .492-.198.9-.594 1.224zm-59.745 10.53v12.528h2.736v-4.14c.804.96 1.806 1.44 3.006 1.44 1.212 0 2.244-.444 3.096-1.332.864-.9 1.296-2.118 1.296-3.654 0-1.548-.432-2.772-1.296-3.672-.864-.9-1.896-1.35-3.096-1.35-1.236 0-2.238.522-3.006 1.566v-1.386h-2.736zm5.04 7.506c-.66 0-1.218-.246-1.674-.738-.444-.504-.666-1.146-.666-1.926 0-.804.222-1.452.666-1.944.456-.504 1.014-.756 1.674-.756.66 0 1.218.252 1.674.756.456.492.684 1.128.684 1.908 0 .804-.228 1.458-.684 1.962a2.195 2.195 0 0 1-1.674.738zm7.106-7.506V112h4.86c1.164 0 2.07-.288 2.718-.864.66-.588.99-1.392.99-2.412 0-1.044-.353-1.836-1.062-2.376-.696-.54-1.626-.81-2.79-.81h-1.98v-3.186h-2.736zm2.736 5.256h1.71c.444 0 .78.096 1.008.288.24.192.36.456.36.792 0 .768-.45 1.152-1.35 1.152h-1.727v-2.232zm7.11-5.256V112h2.737v-9.648h-2.736zM75.487 112v-9.648H72.75v3.708h-3.366v-3.708h-2.736V112h2.736v-3.69h3.366V112h2.736zm2.447-9.648V112h2.736v-2.322l1.242-1.35L84.485 112h3.24l-3.996-5.688 3.546-3.96h-3.15l-3.456 3.96v-3.96h-2.736zm11.958 8.478c.948.924 2.154 1.386 3.618 1.386 1.656 0 2.97-.6 3.942-1.8l-1.566-1.386c-.708.66-1.488.99-2.34.99-.624 0-1.14-.162-1.548-.486-.408-.324-.678-.792-.81-1.404H97.9c.024-.336.036-.576.036-.72 0-1.476-.402-2.718-1.206-3.726-.804-1.008-1.968-1.512-3.492-1.512-1.38 0-2.52.486-3.42 1.458-.9.972-1.35 2.16-1.35 3.564 0 1.488.474 2.7 1.422 3.636zm5.382-4.41H91.15c.108-.636.342-1.134.702-1.494.372-.372.834-.558 1.386-.558.564 0 1.02.186 1.368.558.36.372.582.87.666 1.494z" fill="url(#paint0_linear)"/><defs><linearGradient id="paint0_linear" x1="68.079" y1="0" x2="68.079" y2="160" gradientUnits="userSpaceOnUse"><stop stop-color="#fff"/><stop offset="1" stop-color="#006876"/></linearGradient></defs></svg>