<svg width="136" height="160" fill="none" xmlns="http://www.w3.org/2000/svg"><path fill-rule="evenodd" clip-rule="evenodd" d="M64.474.25L3.882 25.33A6.277 6.277 0 0 0 0 31.127v31.048c0 42.337 25.42 80.461 64.474 96.886v-13.793a92.882 92.882 0 0 1-34.571-29.254l-.948-1.273.032-.027a92.936 92.936 0 0 1-3.294-5.113c-.67-.975-1.566-2.604-2.023-3.479l.028-.023a92.1 92.1 0 0 1-11.105-43.924V35.318l51.881-21.475V.25zM67.95 160h.1-.1zM136 62.175c0 42.555-25.683 80.854-65.079 97.138v-13.751c32.301-15.53 52.486-48.098 52.486-83.387V42.022h.001v-6.294h-.001v-.41l-5.066-2.097.002-.002-5.016-2.074-.019-.007-42.387-17.545V0l61.197 25.33A6.277 6.277 0 0 1 136 31.127v31.048zm-3.828-30.727a3.219 3.219 0 0 1-3.224 3.214 3.22 3.22 0 0 1-3.224-3.214 3.22 3.22 0 0 1 3.224-3.214 3.219 3.219 0 0 1 3.224 3.214zM7.253 34.662a3.219 3.219 0 0 0 3.224-3.214 3.219 3.219 0 0 0-3.224-3.214 3.219 3.219 0 0 0-3.223 3.214 3.219 3.219 0 0 0 3.223 3.214zm20.148-8.838a3.219 3.219 0 0 0 3.224-3.214 3.219 3.219 0 0 0-3.224-3.214 3.219 3.219 0 0 0-3.223 3.214 3.219 3.219 0 0 0 3.223 3.214zM9.671 53.141a3.219 3.219 0 0 1-3.224 3.214 3.219 3.219 0 0 1-3.223-3.214 3.219 3.219 0 0 1 3.223-3.213 3.219 3.219 0 0 1 3.224 3.213zM7.253 80.46a3.219 3.219 0 0 0 3.224-3.214 3.219 3.219 0 0 0-3.224-3.214 3.219 3.219 0 0 0-3.223 3.214 3.219 3.219 0 0 0 3.223 3.214zm9.671 19.282a3.219 3.219 0 0 1-3.223 3.214 3.219 3.219 0 0 1-3.224-3.214 3.219 3.219 0 0 1 3.224-3.213 3.219 3.219 0 0 1 3.223 3.213zm8.866 24.907a3.219 3.219 0 0 0 3.223-3.214 3.219 3.219 0 0 0-3.223-3.213 3.219 3.219 0 0 0-3.224 3.213 3.219 3.219 0 0 0 3.224 3.214zm22.566 16.069a3.219 3.219 0 0 1-3.224 3.214 3.219 3.219 0 0 1-3.224-3.214 3.219 3.219 0 0 1 3.224-3.214 3.219 3.219 0 0 1 3.224 3.214zm-.806-123.73a3.219 3.219 0 0 0 3.223-3.215 3.219 3.219 0 0 0-3.223-3.213 3.219 3.219 0 0 0-3.224 3.213 3.219 3.219 0 0 0 3.224 3.214zm85.428 36.154a3.22 3.22 0 0 1-3.224 3.214 3.22 3.22 0 0 1-3.224-3.214 3.22 3.22 0 0 1 3.224-3.213 3.22 3.22 0 0 1 3.224 3.213zm-4.03 27.318a3.219 3.219 0 0 0 3.224-3.214 3.219 3.219 0 0 0-3.224-3.214 3.22 3.22 0 0 0-3.224 3.214 3.22 3.22 0 0 0 3.224 3.214zm-3.224 19.282a3.218 3.218 0 0 1-3.223 3.214 3.219 3.219 0 0 1-3.224-3.214 3.219 3.219 0 0 1 3.224-3.213 3.218 3.218 0 0 1 3.223 3.213zm-16.118 24.907a3.22 3.22 0 0 0 3.224-3.214 3.22 3.22 0 0 0-3.224-3.213 3.22 3.22 0 0 0-3.224 3.213 3.22 3.22 0 0 0 3.224 3.214zm-15.313 16.069a3.219 3.219 0 0 1-3.223 3.214 3.219 3.219 0 0 1-3.224-3.214 3.219 3.219 0 0 1 3.224-3.214 3.219 3.219 0 0 1 3.223 3.214zm15.313-114.893a3.22 3.22 0 0 0 3.224-3.214 3.22 3.22 0 0 0-3.224-3.214 3.22 3.22 0 0 0-3.224 3.214 3.22 3.22 0 0 0 3.224 3.214zM91.07 13.772a3.219 3.219 0 0 1-3.224 3.214 3.219 3.219 0 0 1-3.224-3.214 3.219 3.219 0 0 1 3.224-3.213 3.219 3.219 0 0 1 3.224 3.213zm-.856 66.996c0 1.017-.767 1.86-1.761 2.07-7.304 1.547-13.069 7.311-14.615 14.615-.21.995-1.053 1.761-2.07 1.761H35a2 2 0 0 1-2-2V44a2 2 0 0 1 2-2h14.037a2 2 0 0 1 2 2v17.778c0 1.54 1.667 2.502 3 1.732l6.57-3.793a2 2 0 0 1 2 0l6.57 3.793c1.333.77 3-.192 3-1.732V44a2 2 0 0 1 2-2h14.037a2 2 0 0 1 2 2v36.768zm-48.629-2.972a2 2 0 0 0-2 2v.336a2 2 0 0 0 2 2h4.034a2 2 0 0 0 2-2v-.336a2 2 0 0 0-2-2h-4.034zm12.067 14.563a2 2 0 0 0 2-2v-.336a2 2 0 0 0-2-2H41.585a2 2 0 0 0-2 2v.336a2 2 0 0 0 2 2h12.067zM67.84 57.732V42H55.373v15.732l6.234-3.6 6.234 3.6zm28.47 25.106c-.995-.21-1.761-1.053-1.761-2.07V55.191a2 2 0 0 1 2-2h2.855a2 2 0 0 1 2 2v26.162c0 1.517-1.643 2.505-3.083 2.029a18.763 18.763 0 0 0-2.012-.544zM92.38 116c8.061 0 14.619-6.558 14.619-14.618s-6.558-14.618-14.618-14.618-14.619 6.558-14.619 14.618S84.321 116 92.382 116zm-7.594-16.087a2 2 0 0 1 2.828 0l1.032 1.031a2 2 0 0 0 2.828 0l5.34-5.34a2 2 0 0 1 2.828 0l.238.238a2 2 0 0 1 0 2.828l-8.406 8.406a2 2 0 0 1-2.828 0l-4.098-4.097a2 2 0 0 1 0-2.829l.238-.237zm-13.019 3.637c1.017 0 1.86.766 2.07 1.76.145.685.327 1.357.544 2.012.475 1.441-.513 3.083-2.03 3.083H46.192a2 2 0 0 1-2-2v-2.855a2 2 0 0 1 2-2h25.577z" fill="url(#paint0_linear)"/><defs><linearGradient id="paint0_linear" x1="68.079" y1="0" x2="68.079" y2="160" gradientUnits="userSpaceOnUse"><stop stop-color="#fff"/><stop offset="1" stop-color="#006876"/></linearGradient></defs></svg>