<svg width="255" height="350" fill="none" xmlns="http://www.w3.org/2000/svg"><path fill-rule="evenodd" clip-rule="evenodd" d="M5 0a5 5 0 0 0-5 5v340a5 5 0 0 0 5 5h245a5 5 0 0 0 5-5V5a5 5 0 0 0-5-5H5zm240 10H10v330h235V10z" fill="url(#paint0_linear)"/><g opacity=".5" fill="#fff"><circle cx="13" cy="5" r="3"/><circle cx="13" cy="345" r="3"/><circle cx="5" cy="254" r="3" transform="rotate(-90 5 254)"/><circle cx="250" cy="254" r="3" transform="rotate(-90 250 254)"/><circle cx="5" cy="325" r="3" transform="rotate(-90 5 325)"/><circle cx="250" cy="325" r="3" transform="rotate(-90 250 325)"/><circle cx="5" cy="337" r="3" transform="rotate(-90 5 337)"/><circle cx="250" cy="337" r="3" transform="rotate(-90 250 337)"/><circle cx="25" cy="5" r="3"/><circle cx="25" cy="345" r="3"/><circle cx="5" cy="242" r="3" transform="rotate(-90 5 242)"/><circle cx="250" cy="242" r="3" transform="rotate(-90 250 242)"/><circle cx="5" cy="313" r="3" transform="rotate(-90 5 313)"/><circle cx="250" cy="313" r="3" transform="rotate(-90 250 313)"/><circle cx="37" cy="5" r="3"/><circle cx="37" cy="345" r="3"/><circle cx="5" cy="230" r="3" transform="rotate(-90 5 230)"/><circle cx="250" cy="230" r="3" transform="rotate(-90 250 230)"/><circle cx="5" cy="301" r="3" transform="rotate(-90 5 301)"/><circle cx="250" cy="301" r="3" transform="rotate(-90 250 301)"/><circle cx="49" cy="5" r="3"/><circle cx="49" cy="345" r="3"/><circle cx="5" cy="218" r="3" transform="rotate(-90 5 218)"/><circle cx="250" cy="218" r="3" transform="rotate(-90 250 218)"/><circle cx="5" cy="289" r="3" transform="rotate(-90 5 289)"/><circle cx="250" cy="289" r="3" transform="rotate(-90 250 289)"/><circle cx="61" cy="5" r="3"/><circle cx="61" cy="345" r="3"/><circle cx="5" cy="206" r="3" transform="rotate(-90 5 206)"/><circle cx="250" cy="206" r="3" transform="rotate(-90 250 206)"/><circle cx="5" cy="278" r="3" transform="rotate(-90 5 278)"/><circle cx="250" cy="278" r="3" transform="rotate(-90 250 278)"/><circle cx="73" cy="5" r="3"/><circle cx="73" cy="345" r="3"/><circle cx="5" cy="194" r="3" transform="rotate(-90 5 194)"/><circle cx="250" cy="194" r="3" transform="rotate(-90 250 194)"/><circle cx="5" cy="266" r="3" transform="rotate(-90 5 266)"/><circle cx="250" cy="266" r="3" transform="rotate(-90 250 266)"/><circle cx="85" cy="5" r="3"/><circle cx="85" cy="345" r="3"/><circle cx="5" cy="182" r="3" transform="rotate(-90 5 182)"/><circle cx="250" cy="182" r="3" transform="rotate(-90 250 182)"/><circle cx="97" cy="5" r="3"/><circle cx="97" cy="345" r="3"/><circle cx="5" cy="170" r="3" transform="rotate(-90 5 170)"/><circle cx="250" cy="170" r="3" transform="rotate(-90 250 170)"/><circle cx="109" cy="5" r="3"/><circle cx="109" cy="345" r="3"/><circle cx="5" cy="158" r="3" transform="rotate(-90 5 158)"/><circle cx="250" cy="158" r="3" transform="rotate(-90 250 158)"/><circle cx="122" cy="5" r="3"/><circle cx="122" cy="345" r="3"/><circle cx="5" cy="145" r="3" transform="rotate(-90 5 145)"/><circle cx="250" cy="145" r="3" transform="rotate(-90 250 145)"/><circle cx="134" cy="5" r="3"/><circle cx="134" cy="345" r="3"/><circle cx="5" cy="133" r="3" transform="rotate(-90 5 133)"/><circle cx="250" cy="133" r="3" transform="rotate(-90 250 133)"/><circle cx="146" cy="5" r="3"/><circle cx="146" cy="345" r="3"/><circle cx="5" cy="121" r="3" transform="rotate(-90 5 121)"/><circle cx="250" cy="121" r="3" transform="rotate(-90 250 121)"/><circle cx="158" cy="5" r="3"/><circle cx="158" cy="345" r="3"/><circle cx="5" cy="109" r="3" transform="rotate(-90 5 109)"/><circle cx="250" cy="109" r="3" transform="rotate(-90 250 109)"/><circle cx="170" cy="5" r="3"/><circle cx="170" cy="345" r="3"/><circle cx="5" cy="97" r="3" transform="rotate(-90 5 97)"/><circle cx="250" cy="97" r="3" transform="rotate(-90 250 97)"/><circle cx="182" cy="5" r="3"/><circle cx="182" cy="345" r="3"/><circle cx="5" cy="85" r="3" transform="rotate(-90 5 85)"/><circle cx="250" cy="85" r="3" transform="rotate(-90 250 85)"/><circle cx="194" cy="5" r="3"/><circle cx="194" cy="345" r="3"/><circle cx="5" cy="73" r="3" transform="rotate(-90 5 73)"/><circle cx="250" cy="73" r="3" transform="rotate(-90 250 73)"/><circle cx="206" cy="5" r="3"/><circle cx="206" cy="345" r="3"/><circle cx="5" cy="61" r="3" transform="rotate(-90 5 61)"/><circle cx="250" cy="61" r="3" transform="rotate(-90 250 61)"/><circle cx="218" cy="5" r="3"/><circle cx="218" cy="345" r="3"/><circle cx="5" cy="49" r="3" transform="rotate(-90 5 49)"/><circle cx="250" cy="49" r="3" transform="rotate(-90 250 49)"/><circle cx="230" cy="5" r="3"/><circle cx="230" cy="345" r="3"/><circle cx="5" cy="37" r="3" transform="rotate(-90 5 37)"/><circle cx="250" cy="37" r="3" transform="rotate(-90 250 37)"/><circle cx="242" cy="5" r="3"/><circle cx="242" cy="345" r="3"/><circle cx="5" cy="25" r="3" transform="rotate(-90 5 25)"/><circle cx="250" cy="25" r="3" transform="rotate(-90 250 25)"/><circle cx="5" cy="13" r="3"/><circle cx="250" cy="13" r="3"/></g><defs><linearGradient id="paint0_linear" x1="0" y1="0" x2="272.884" y2="14.549" gradientUnits="userSpaceOnUse"><stop stop-color="#0C8180"/><stop offset="1" stop-color="#304659"/></linearGradient></defs></svg>