<svg width="539" height="797" fill="none" xmlns="http://www.w3.org/2000/svg"><path d="M105.512 796.166c-11.464-2.687-23.715-10.726-31.747-20.834-9.54-12.005-15.678-27.102-23.956-58.914-5.553-21.343-6.761-24.436-13.665-34.98C22.34 660.353 8.76 628.9 2.548 603.629c-3.023-12.298-3.214-18.635-1.322-43.748 2.555-33.901 2.575-35.799.47-46.764-2.507-13.056-2.125-31.688.86-41.998 3.547-12.255 11.196-25.405 21.086-36.255 2.843-3.118 5.594-7.418 7.374-11.523 5.433-12.531 11.375-21.251 24.65-36.175 3.527-3.965 8.484-10.408 11.015-14.317 4.569-7.056 10.048-17.284 10.048-18.757 0-.423-4.808-1.037-10.685-1.364-9.967-.556-32.983-2.931-33.509-3.458-.375-.376 13.58-10.403 18.133-13.029 11.103-6.405 20.8-20.356 25.534-36.735 5.028-17.395 4.896-39.19-.39-64.503-3.944-18.892-4.307-21.508-4.305-31.045.003-13.941 2.254-24.298 7.639-35.131 6.034-12.139 12.77-20.53 23.308-29.029l6.412-5.171-4.013-5.781c-2.482-3.574-4.626-5.78-5.62-5.78-2.296 0-12.02 4.088-14.04 5.902-4.877 4.38-14.407 20.874-28.944 50.096-19.051 38.294-20.703 41.507-22.729 44.213-1.644 2.196-3.384 3.073-9.28 4.68-3.992 1.087-8.337 2.31-9.656 2.717-1.32.407-2.4.583-2.4.391 0-.193.598-2.631 1.328-5.42.73-2.79 2.123-9.007 3.096-13.817 2.896-14.315 16.018-66.957 21.144-84.827 6.176-21.528 10.14-32.13 15.94-42.632 23.575-42.683 48.993-64.855 87.296-76.148l4.512-1.33 2.029 2.988c2.67 3.931 3.623 3.785 2.91-.447-.575-3.412-.548-3.454 2.758-4.322 19.452-5.103 46.799-6.566 66.601-3.562 23.202 3.52 51.084 13.312 73.691 25.88 10.75 5.977 28.331 17.507 28.331 18.58 0 .333-1.161 1.967-2.581 3.633-1.42 1.665-2.597 3.286-2.617 3.603-.019.317 2.418-.183 5.416-1.11l5.452-1.687 9.612 9.855c5.287 5.421 13.357 14.382 17.932 19.913 9.643 11.658 24.352 31.074 24.352 32.145 0 .403-4.66 1.201-10.356 1.772-32.235 3.231-58.765 12.845-68.309 24.752-2.596 3.238-3.065 3.471-5.998 2.974-3.079-.522-3.383-.32-9.411 6.24-3.427 3.728-6.23 7.028-6.23 7.333 0 .305 2.164 3.277 4.809 6.605 20.832 26.21 25.334 68.403 13.851 129.81-2.143 11.461-12.17 52.655-13.361 54.893-.325.611-2.293-5.007-4.372-12.484-2.08-7.477-4.12-13.805-4.535-14.062-.414-.256-.753 1.061-.753 2.929 0 4.978-2.501 18.801-4.922 27.202l-2.109 7.32 2.09 3.548 2.089 3.548-2.463 6.622c-4.256 11.443-9.505 24.017-10.398 24.913-.473.473-.859 1.43-.859 2.126 0 1.584-10.929 19.973-15.581 26.215l-3.469 4.656-1.814-4.111c-.998-2.261-1.814-4.27-1.814-4.465 0-.195-1.843-3.195-4.096-6.667-4.269-6.579-21.24-24.239-23.294-24.239-1.763 0-4.009 10.181-4.009 18.167 0 12.766 3.681 20.923 18.444 40.862 12.872 17.387 16.665 23.324 22.997 36l5.315 10.639 6.708-4.623c17.944-12.364 36.435-17.891 56.336-16.839 16.708.884 29.792 5.46 45.89 16.049 4.797 3.156 17.623 11.017 28.502 17.469 14.354 8.512 20.525 12.673 22.492 15.164 3.533 4.471 9.895 17.018 12.292 24.239 1.876 5.653 1.915 5.696 4.627 5.144 1.505-.307 7.446-.78 13.202-1.051 16.892-.797 27.493 2.369 43.811 13.089 4.799 3.152 13.978 8.753 20.398 12.446 17.62 10.134 18.002 10.446 22.588 18.489 7.652 13.42 11.324 28.423 11.326 46.281.007 46.711-28.607 88.29-68.216 99.13-3.496.956-8.123 1.824-10.282 1.927-4.876.233-50.085-10.55-56.901-13.572-6.921-3.069-13.443-7.447-19.573-13.137-4.706-4.368-5.597-4.863-7.395-4.105-1.124.473-6.361 2.115-11.638 3.648-12.549 3.647-25.491 9.124-35.525 15.034-18.715 11.024-43.963 22.421-72.63 32.786-39.448 14.264-83.735 26.924-110.77 31.667-13.099 2.297-33.826 3.05-40.558 1.473zm28.381-10.22c24.538-2.178 56.65-9.907 97.833-23.547 26.44-8.757 32.762-11.251 51.281-20.232 16.742-8.119 45.518-25.04 45.173-26.562-.1-.442-7.361-2.5-16.136-4.574-49.363-11.666-47.727-11.213-56.773-15.709-11.867-5.899-25.256-17.72-32.557-28.744-3.485-5.263-2.934-5.07-18.813-6.578-11.601-1.102-21.983-.277-35.042 2.785-12.828 3.007-16.296 3.057-19.584.283-4.775-4.028-3.295-10.313 2.992-12.71 1.211-.462 4.63-.844 7.597-.849 10.786-.02 11.008-.138 16.653-8.909 6.989-10.859 15.476-28.204 19.17-39.179 4.848-14.401 6.01-20.919 6.003-33.669-.006-13.367-1.728-21.137-7.246-32.71-7.844-16.451-13.387-20.606-27.55-20.651-8.282-.026-10.212-.718-11.059-3.967-.311-1.193.521-2.763 2.651-5 4.717-4.952 7.965-10.51 9.939-17.01 1.606-5.287 1.753-7.666 1.46-23.611l-.327-17.732-3.095-8.025c-4.357-11.298-8.069-17.211-15.597-24.844-12.928-13.109-28.865-18.84-46.06-16.562-37.314 4.943-65.04 23.563-80.246 53.891-8.706 17.365-9.76 32.329-4.06 57.704 2.933 13.057 6.238 19.454 14.043 27.179 5.338 5.283 6.137 6.44 5.066 7.332-1.648 1.371-5.747.681-12.71-2.138-3.032-1.228-5.782-1.948-6.11-1.599-.328.348-2.044 5.749-3.813 12.002-9.956 35.197-1.582 66.266 32.647 121.119 4.352 6.974 8.098 13.074 8.324 13.555.448.951.678.651 6.773-8.866 3.54-5.526 8.178-9.921 10.482-9.933.36-.001 1.46.804 2.443 1.791 2.509 2.515 1.636 4.527-5.067 11.674-3.165 3.374-6.639 8.177-7.88 10.894-2.106 4.613-2.166 5.161-1.196 10.835 1.127 6.59 4.09 13.171 7.265 16.139 5.245 4.902 13.114 6.069 46.519 6.902 25.557.637 28.347 1.142 28.347 5.127 0 1.388-.668 2.349-1.962 2.82-1.08.393-14.592.599-30.028.458-31.09-.285-32.37-.104-36.051 5.079-5.497 7.739-1.39 24.278 8.165 32.892 6.655 5.999 19.184 11.434 30.946 13.424 5.769.976 6.465.977 17.19.027v-.002zm-23.472-167.897c-2.816-4.267-5.976-12.254-11.422-28.871-8.57-26.151-16.643-36.795-29.512-38.906-3.408-.559-5.024-2.491-3.425-4.094.533-.535 5.024-.858 10.96-.789 5.53.065 11.82-.328 13.978-.872 4.578-1.156 8.95-.095 11.571 2.808 1.42 1.572 1.703 3.87 2.174 17.676.617 18.062 1.738 24.381 7.444 41.949 2.16 6.648 3.712 12.65 3.449 13.336-.843 2.204-2.856 1.341-5.217-2.237zm371.014 96.798c7.354-4.289 20.595-18.096 25.62-26.717 10.799-18.526 15.199-42.279 11.461-61.868-1.368-7.17-3.648-14.195-5.081-15.659-.564-.575-.656-.307-.271.784 1.148 3.246 2.253 13.321 2.265 20.641.035 21.265-7.125 44.606-19.204 62.603-4.462 6.648-14.985 18.041-20.459 22.151-3.596 2.701-.42 1.616 5.669-1.935zm-141.732-21.576c25.075-7.076 48.589-29.375 60.532-57.404 6.883-16.154 9.876-30.788 9.907-48.438.033-17.765-3.156-31.807-10.326-45.488-4.246-8.101-10.618-13.484-7.714-6.517.708 1.7 2.35 7.308 3.648 12.462 2.206 8.756 2.36 10.607 2.35 28.174-.01 17.524-.178 19.515-2.465 29.296-9.017 38.555-30.162 68.603-60.295 85.682-6.044 3.425-6.627 3.954-4.359 3.955 1.441 0 5.366-.775 8.722-1.722zm56.403-6.457c15.023-6.048 18.739-7.987 28.003-14.607 23.857-17.049 29.432-32.961 18.924-54.01-2.91-5.83-12.669-18.332-13.59-17.41-.174.175-1.112 4.985-2.085 10.69-4.608 27.023-17.364 52.62-35.519 71.272-4.447 4.57-8.087 8.407-8.089 8.527-.006.468 1.1.069 12.356-4.462zm51.6-15.246c5.857-3.184 13.08-11.275 15.557-17.428 2.868-7.124 2.96-22.296.172-28.34-1.794-3.891-7.69-11.262-9.008-11.262-.351 0 1.306 3.78 3.682 8.4 6.861 13.341 6.656 20.402-.918 31.548-3.294 4.849-9.588 11.318-17.186 17.663l-3.489 2.913 3.489-.602c1.919-.331 5.384-1.633 7.701-2.892zm-237.033-27.726c-1.562-3.747-4.385-13.994-5.742-20.841l-1.009-5.091-2.46 5.215c-3.676 7.793-8.729 20.73-8.729 22.348 0 1.227 1.318 1.422 9.606 1.422h9.606l-1.272-3.053zm8.332-108.228c4.288-8.529 11.312-18.748 18.67-27.16l6.737-7.702-2.365-5.581c-3.766-8.884-11.003-20.953-19.797-33.016-17.446-23.931-21.304-30.51-23.973-40.883-2.08-8.084-1.87-20.449.501-29.616 1.042-4.023 1.775-7.419 1.631-7.546-.144-.126-2.575-1.703-5.402-3.503-20.119-12.813-52.848-20.858-106.504-26.178l-5.233-.519-2.617 6.283c-5.034 12.089-14.35 26.559-25.13 39.031-4.086 4.727-10.194 14.505-10.194 16.317 0 .321 1.668-.456 3.707-1.727 12.176-7.588 33.11-15.555 46.01-17.51 10.746-1.629 29.22-1.606 36.998.046 11.722 2.489 24.594 9.938 33.049 19.125 8.028 8.722 16.095 21.979 19.225 31.596 2.16 6.638 3.995 20.417 4.629 34.765l.57 12.904 4.729 5.461c9.333 10.778 16.676 23.715 19.932 35.114.906 3.171 1.744 5.765 1.863 5.765s1.453-2.46 2.964-5.466zm24.199-124.098c4.728-7.59 11.597-24.192 14.915-36.047l1.9-6.789-3.564-5.485-3.564-5.484 3.142-8.665c8.157-22.494 11.679-35.847 11.697-44.354l.013-5.955-4.487-4.758c-4.012-4.253-4.867-4.757-8.068-4.762-6.363-.01-20.094-2.467-26.203-4.691-8.139-2.962-14.649-7.659-18.111-13.068-2.498-3.904-2.874-5.236-2.875-10.197-.002-6.31 1.274-8.809 6.251-12.239 5.117-3.526 10.462-4.652 22.53-4.742 9.592-.072 12.346.229 17.88 1.958 12.255 3.827 25.506 12.418 31.66 20.524 2.439 3.212 2.44 3.22 1.473 10.433-.532 3.969-2.135 14.419-3.562 23.221-2.391 14.75-2.622 20.415-.951 23.303.872 1.508 10.498-49.303 11.445-60.423 1.196-14.024 1.195-41.95 0-50.748-2.973-21.878-10.358-37.194-24.731-51.292-16.004-15.697-40.764-27.369-72.9-34.366-13.028-2.836-21.96-3.421-32.856-2.151-24.274 2.829-44.741 12.155-59.645 27.177-6.152 6.201-8.17 8.97-11.51 15.789-5.66 11.556-6.841 16.606-7.38 31.53-.439 12.165-.313 13.485 2.659 27.984 1.716 8.369 3.508 18.169 3.982 21.776 3.521 26.783.712 50.416-8.168 68.719-4.063 8.373-6.11 10.925-14.793 18.443l-5.164 4.472 9.526.548c15.917.915 36.853 3.082 47.903 4.959 42.261 7.18 76.964 22.723 100.683 45.095 7.669 7.234 18.374 19.711 18.374 21.415 0 1.376 1.307.785 2.499-1.13zm36.717-271.112l7.985-8.898-8.991-9.101c-21.07-21.327-45.697-35.188-70.482-39.67-9.084-1.642-29.068-1.402-38.757.467-10.66 2.056-24.446 6.77-35.235 12.048-8.886 4.347-25.747 14.923-27.806 17.44-.867 1.06-.12 2.61 4.149 8.61 2.864 4.024 5.38 7.491 5.592 7.703.212.213 4.624-1.394 9.806-3.57 16.986-7.135 31.76-10.238 48.741-10.238 27.671 0 68.926 13.21 89.767 28.744 3.838 2.86 7.038 5.237 7.112 5.281.074.045 3.727-3.923 8.119-8.816z" fill="#000" fill-opacity=".25"/></svg>