<svg width="33" height="33" fill="none" xmlns="http://www.w3.org/2000/svg"><path d="M30.25 17.417a.917.917 0 0 1-.65-.266L16.5 4.043 3.4 17.15a.917.917 0 0 1-1.292-1.293l13.75-13.75a.916.916 0 0 1 1.293 0l13.75 13.75a.917.917 0 0 1-.651 1.559z" fill="url(#paint0_linear)"/><path d="M16.5 7.14l-11 11.037v11.156a1.833 1.833 0 0 0 1.833 1.834h6.417V22h5.5v9.167h6.417a1.833 1.833 0 0 0 1.833-1.834v-11.22l-11-10.972z" fill="url(#paint1_linear)"/><defs><linearGradient id="paint0_linear" x1="31.163" y1="1.842" x2="30.513" y2="18.531" gradientUnits="userSpaceOnUse"><stop stop-color="#0C8180"/><stop offset="1" stop-color="#304659"/></linearGradient><linearGradient id="paint1_linear" x1="27.5" y1="7.141" x2="25.453" y2="32.761" gradientUnits="userSpaceOnUse"><stop stop-color="#0C8180"/><stop offset="1" stop-color="#304659"/></linearGradient></defs></svg>