<svg width="65" height="65" fill="none" xmlns="http://www.w3.org/2000/svg"><path d="M46.172 0h-27.35a4.73 4.73 0 0 0-4.728 4.737v55.532A4.73 4.73 0 0 0 18.822 65h27.35a4.735 4.735 0 0 0 4.733-4.73V4.736A4.738 4.738 0 0 0 46.172 0zm.186 52.665H18.64V7.99h27.717v44.675zm-7.52-47.858h-12.68V3.424H38.84l-.002 1.383zm5.426-.632a1.213 1.213 0 0 1-2.425 0 1.213 1.213 0 0 1 2.425 0zM38.27 59.954H26.722V56.4H38.27v3.553z" fill="url(#paint0_linear)"/><defs><linearGradient id="paint0_linear" x1="14.094" y1="0" x2="53.531" y2="1.634" gradientUnits="userSpaceOnUse"><stop stop-color="#0C8180"/><stop offset="1" stop-color="#304659"/></linearGradient></defs></svg>