<svg width="65" height="65" fill="none" xmlns="http://www.w3.org/2000/svg"><g clip-path="url(#clip0)"><path d="M58.441 2.74H6.56A6.566 6.566 0 0 0 0 9.3v13.647a6.566 6.566 0 0 0 6.559 6.559h1.088v3.823H0v13.127a8.466 8.466 0 0 0 4.705 7.614l1.776.887a2.098 2.098 0 0 1 1.166 1.887v5.417h22.941v-5.54l3.824-7.646v-7.519c0-4.536-3.691-8.227-8.227-8.227h-7.067v-3.823H58.44A6.566 6.566 0 0 0 65 22.946V9.3a6.566 6.566 0 0 0-6.559-6.559zM26.185 37.152a4.408 4.408 0 0 1 4.403 4.403v6.616l-3.823 7.647v2.618H11.47v-1.593a5.9 5.9 0 0 0-3.28-5.307l-1.776-.887a4.663 4.663 0 0 1-2.591-4.194v-9.303h3.823v8.922h3.824V21.858h3.823v15.294h10.89zm34.992-14.206a2.738 2.738 0 0 1-2.736 2.735H19.118v-7.647H7.648v7.647h-1.09a2.738 2.738 0 0 1-2.734-2.735V9.3a2.738 2.738 0 0 1 2.735-2.735H58.44a2.738 2.738 0 0 1 2.735 2.735v13.647z" fill="url(#paint0_linear)"/><path d="M7.647 10.388h27.402v3.823H7.647v-3.823z" fill="url(#paint1_linear)"/><path d="M22.941 18.034H35.05v3.824H22.941v-3.824z" fill="url(#paint2_linear)"/><path d="M44.894 16.704l-2.658-3.1-2.903 2.488 4.989 5.82 11.629-8.721-2.294-3.06-8.763 6.573z" fill="url(#paint3_linear)"/></g><defs><linearGradient id="paint0_linear" x1="0" y1="2.74" x2="69.314" y2="8.279" gradientUnits="userSpaceOnUse"><stop stop-color="#0C8180"/><stop offset="1" stop-color="#304659"/></linearGradient><linearGradient id="paint1_linear" x1="7.647" y1="10.388" x2="30.711" y2="22.483" gradientUnits="userSpaceOnUse"><stop stop-color="#0C8180"/><stop offset="1" stop-color="#304659"/></linearGradient><linearGradient id="paint2_linear" x1="22.941" y1="18.034" x2="35.273" y2="20.892" gradientUnits="userSpaceOnUse"><stop stop-color="#0C8180"/><stop offset="1" stop-color="#304659"/></linearGradient><linearGradient id="paint3_linear" x1="39.333" y1="10.132" x2="56.979" y2="11.953" gradientUnits="userSpaceOnUse"><stop stop-color="#0C8180"/><stop offset="1" stop-color="#304659"/></linearGradient><clipPath id="clip0"><path fill="#fff" d="M0 0h65v65H0z"/></clipPath></defs></svg>