<svg width="18" height="24" fill="none" xmlns="http://www.w3.org/2000/svg"><path fill-rule="evenodd" clip-rule="evenodd" d="M8.51 23.36l.544.64.534-.648c.319-.385 7.8-9.513 7.8-15.01 0-4.6-3.743-8.342-8.343-8.342S.703 3.742.703 8.342c0 5.782 7.488 14.644 7.806 15.019zM6.527 10.786a3.548 3.548 0 0 0 2.517 1.04c.912 0 1.823-.346 2.517-1.04a3.563 3.563 0 0 0 0-5.034 3.537 3.537 0 0 0-2.517-1.043c-.95 0-1.845.37-2.517 1.043a3.563 3.563 0 0 0 0 5.034z" fill="url(#paint0_linear)"/><defs><linearGradient id="paint0_linear" x1=".703" y1="0" x2="18.562" y2=".909" gradientUnits="userSpaceOnUse"><stop stop-color="#0C8180"/><stop offset="1" stop-color="#304659"/></linearGradient></defs></svg>