<svg width="50" height="50" fill="none" xmlns="http://www.w3.org/2000/svg"><path d="M4.167 0h41.666a4.167 4.167 0 0 1 0 8.333H4.167a4.167 4.167 0 0 1 0-8.333z" fill="url(#paint0_linear)"/><path d="M4.167 20.834h41.666a4.167 4.167 0 0 1 0 8.333H4.167a4.167 4.167 0 0 1 0-8.333z" fill="url(#paint1_linear)"/><path d="M4.167 41.666h41.666a4.167 4.167 0 0 1 0 8.333H4.167a4.167 4.167 0 1 1 0-8.333z" fill="url(#paint2_linear)"/><defs><linearGradient id="paint0_linear" x1="50" y1="0" x2="5.013" y2="19.752" gradientUnits="userSpaceOnUse"><stop stop-color="#0C8180"/><stop offset="1" stop-color="#304659"/></linearGradient><linearGradient id="paint1_linear" x1="50" y1="20.834" x2="5.013" y2="40.585" gradientUnits="userSpaceOnUse"><stop stop-color="#0C8180"/><stop offset="1" stop-color="#304659"/></linearGradient><linearGradient id="paint2_linear" x1="50" y1="41.666" x2="5.013" y2="61.418" gradientUnits="userSpaceOnUse"><stop stop-color="#0C8180"/><stop offset="1" stop-color="#304659"/></linearGradient></defs></svg>