<svg width="186" height="186" fill="none" xmlns="http://www.w3.org/2000/svg"><g filter="url(#filter0_d)"><circle cx="93" cy="93" r="80" fill="#fff"/></g><circle cx="93" cy="93" r="90.5" stroke="url(#paint0_linear)" stroke-width="5"/><g clip-path="url(#clip0)"><path fill-rule="evenodd" clip-rule="evenodd" d="M67.818 68.781c.452 2.077 1.144 3.421 1.952 4.259 1.92 13.373 13.925 24.77 23.566 24.293 12.265-.602 20.958-13.82 22.909-24.293.807-.833 1.585-2.614 2.052-4.705.521-2.403 1.083-6.025-.362-7.941-.085-.1-.637-.607-.732-.692.069-.25.143-.51.218-.778l.001-.002c1.439-5.088 3.811-13.477-3.354-21.056-4.088-4.324-9.767-6.496-14.898-8.211-15.15-5.062-25.844 2.036-30.78 13.84l-.007.016c-.379.89-2.633 6.189.138 16.19-.271.181-.517.412-.723.693-1.413 1.863-.552 5.781-.02 8.203l.04.184zm78.349 73.549l-.024-.519c-.419-9.227-1.068-23.495-8.96-35.207 0 0-2.293-3.125-7.73-5.202 0 0-11.808-3.596-17.246-7.484l-2.483 1.7.276 16.143-14.908 39.798a2.229 2.229 0 0 1-2.087 1.45c-.928 0-1.76-.577-2.087-1.45l-14.903-39.798s.272-15.833.271-16.138v-.004.004c-.03.083-2.488-1.705-2.488-1.705-5.427 3.888-17.24 7.484-17.24 7.484-5.438 2.077-7.73 5.202-7.73 5.202-7.897 11.727-8.547 26.015-8.968 35.242l-.022.484c-.29 6.36 1.044 8.733 2.72 9.41 20.796 8.347 80.083 8.347 100.885 0 1.686-.672 3.01-3.05 2.724-9.41zm-53.301-39.841l.672-.015a24.947 24.947 0 0 0 6.03-1.013l-5.824 8.909 5.307 5.116-5.458 33.142a.592.592 0 0 1-.582.492.584.584 0 0 1-.582-.492l-5.457-33.142 5.302-5.116-5.91-9.045c2.148.743 4.335 1.164 6.502 1.164z" fill="url(#paint1_linear)"/></g><defs><filter id="filter0_d" x="3" y="3" width="180" height="180" filterUnits="userSpaceOnUse" color-interpolation-filters="sRGB"><feFlood flood-opacity="0" result="BackgroundImageFix"/><feColorMatrix in="SourceAlpha" values="0 0 0 0 0 0 0 0 0 0 0 0 0 0 0 0 0 0 127 0" result="hardAlpha"/><feOffset/><feGaussianBlur stdDeviation="5"/><feColorMatrix values="0 0 0 0 0 0 0 0 0 0 0 0 0 0 0 0 0 0 0.15 0"/><feBlend in2="BackgroundImageFix" result="effect1_dropShadow"/><feBlend in="SourceGraphic" in2="effect1_dropShadow" result="shape"/></filter><linearGradient id="paint0_linear" x1="0" y1="0" x2="198.548" y2="14.529" gradientUnits="userSpaceOnUse"><stop stop-color="#0C8180"/><stop offset="1" stop-color="#304659"/></linearGradient><linearGradient id="paint1_linear" x1="39.798" y1="28" x2="153.584" y2="34.815" gradientUnits="userSpaceOnUse"><stop stop-color="#0C8180"/><stop offset="1" stop-color="#304659"/></linearGradient><clipPath id="clip0"><path fill="#fff" transform="translate(28 28)" d="M0 0h130v130H0z"/></clipPath></defs></svg>