<svg width="186" height="186" fill="none" xmlns="http://www.w3.org/2000/svg"><g filter="url(#filter0_d)"><circle cx="93" cy="93" r="80" fill="#fff"/></g><circle cx="93" cy="93" r="90.5" stroke="url(#paint0_linear)" stroke-width="5"/><path d="M54.504 148.561c-6.37-3.347-9.613-6.52-9.814-6.72a1.271 1.271 0 0 1 .891-2.168c.336-.001.66.13.898.366 2.479 2.453 10.17 7.939 21.542 11.143 8.349 2.353 17.432 3.205 27 2.534 11.988-.84 24.776-4.089 38.009-9.656a7.878 7.878 0 0 1 4.585-.463c6.259 1.225 9.153-.458 10.321-1.57 1.789-1.705 2.402-4.6 1.819-8.606l-.007-.061c-.353-3.673.722-6.068 1.86-8.606 1.605-3.578 3.424-7.633 1.503-17.054-1.428-7.01-3.32-10.655-7.89-19.462-1.107-2.135-2.363-4.554-3.808-7.398-8.031-15.802-13.226-36.123-14.627-41.975a5.125 5.125 0 0 0-1.82-2.828l-.203-.158a5.249 5.249 0 0 0-3.854-1.054c-6.602.747-15.466-1.34-20.162-2.652a2.933 2.933 0 0 0-3.253 1.213l-5.67 8.632a2.909 2.909 0 0 0-.043 3.118l4.07 6.639a21.576 21.576 0 0 1 5.02-2.654c2.318-.904 3.723-2.101 4.178-3.559.602-1.931-.635-3.838-.647-3.856a1.267 1.267 0 0 1 1.294-1.946c.328.061.619.25.809.524.08.117 1.939 2.92.968 6.035-.696 2.231-2.607 3.97-5.679 5.168-5.518 2.15-6.585 4.436-6.788 5.318-.154.67.022 1.158.238 1.39 3.772 4.066 7.864.9 9.208-.14 2.687-2.08 5.437-2.448 7.646-2.745a17.88 17.88 0 0 0 2.272-.396c.005-.001.009-.004.014-.006l.021-.004c1.621-.457 2.51-1.416 2.818-4.399a1.27 1.27 0 1 1 2.526.26c-.381 3.688-1.747 5.332-3.486 6.153.576 2.756 1.506 10.052-2.147 18.842-4.578 11.018-5.57 30.499-.314 35.328a1.259 1.259 0 0 1 .417.882 1.284 1.284 0 0 1-.334.918 1.262 1.262 0 0 1-.885.409 1.265 1.265 0 0 1-.915-.339c-1.983-1.821-3.211-4.975-3.841-8.791-14.844-8.329-29.734-2.452-34.508-.127a40.863 40.863 0 0 1 7.314 8.706 1.274 1.274 0 0 1-.043 1.41 1.263 1.263 0 0 1-1.32.5 1.258 1.258 0 0 1-.79-.564c-4.048-6.481-9.945-11.604-17.527-15.222a58.511 58.511 0 0 0-15.583-4.799c.104.29.203.586.3.889a1.27 1.27 0 1 1-2.423.761c-2.491-7.917-8.624-11.827-11.599-13.309v59.615c2.91.856 12.998 11.37 22.44 6.534zm90.844-38.054a1.274 1.274 0 0 1 .004-1.411 1.271 1.271 0 0 1 2.111.006c.125.187 3.027 4.65.123 11.871a1.269 1.269 0 1 1-2.355-.947c2.374-5.907.21-9.375.117-9.519zm-26.822-23.482a1.269 1.269 0 0 1 2.475.564c-.016.071-1.584 7.19.967 12.073a1.276 1.276 0 0 1 .097.975 1.278 1.278 0 0 1-.626.754 1.26 1.26 0 0 1-.976.083 1.266 1.266 0 0 1-.745-.636c-2.989-5.72-1.267-13.485-1.192-13.813zm-46.25 49.911a1.268 1.268 0 0 1 1.757-.365c.044.028 4.453 2.866 11.267 4.131 9.087 1.688 17.931-.07 26.286-5.223a1.268 1.268 0 0 1 1.9 1.373c-.077.327-.281.61-.567.788-7.741 4.773-15.096 6.199-21.116 6.199-2.376 0-4.746-.221-7.08-.66-7.281-1.374-11.888-4.357-12.08-4.483a1.278 1.278 0 0 1-.548-.804 1.27 1.27 0 0 1 .182-.956zm-32.8-35.417a1.274 1.274 0 0 1-.909-.343 1.271 1.271 0 0 1 .829-2.196 33.433 33.433 0 0 1 9.351 1.327c6.756 1.935 11.908 5.771 14.9 11.093a1.269 1.269 0 1 1-2.213 1.244c-6.457-11.483-21.802-11.131-21.957-11.125z" fill="url(#paint1_linear)"/><defs><filter id="filter0_d" x="3" y="3" width="180" height="180" filterUnits="userSpaceOnUse" color-interpolation-filters="sRGB"><feFlood flood-opacity="0" result="BackgroundImageFix"/><feColorMatrix in="SourceAlpha" values="0 0 0 0 0 0 0 0 0 0 0 0 0 0 0 0 0 0 127 0" result="hardAlpha"/><feOffset/><feGaussianBlur stdDeviation="5"/><feColorMatrix values="0 0 0 0 0 0 0 0 0 0 0 0 0 0 0 0 0 0 0.15 0"/><feBlend in2="BackgroundImageFix" result="effect1_dropShadow"/><feBlend in="SourceGraphic" in2="effect1_dropShadow" result="shape"/></filter><linearGradient id="paint0_linear" x1="0" y1="0" x2="198.548" y2="14.529" gradientUnits="userSpaceOnUse"><stop stop-color="#0C8180"/><stop offset="1" stop-color="#304659"/></linearGradient><linearGradient id="paint1_linear" x1="32.065" y1="32.062" x2="162.159" y2="41.581" gradientUnits="userSpaceOnUse"><stop stop-color="#0C8180"/><stop offset="1" stop-color="#304659"/></linearGradient></defs></svg>