<svg width="186" height="186" fill="none" xmlns="http://www.w3.org/2000/svg"><circle cx="93" cy="93" r="90.5" stroke="url(#paint0_linear)" stroke-width="5"/><g filter="url(#filter0_d)"><circle cx="93" cy="93" r="80" fill="#fff"/></g><path fill-rule="evenodd" clip-rule="evenodd" d="M77.981 28.654c.787-.438 1.683-.654 2.684-.654 4.533 0 11.222 4.867 11.22 9.236v19.67c0-1.209-.979-2.186-2.185-2.186-9.64 0-17.484 7.844-17.484 17.485 0 7.232-5.882 13.113-13.114 13.113a2.185 2.185 0 1 0 0 4.37c9.64 0 17.485-7.843 17.485-17.483 0-7.232 5.88-13.114 13.113-13.114a2.185 2.185 0 0 0 2.185-2.185v80.865c0 11.92-8.652 20.229-16.42 20.229-5.276 0-8.934-3.689-9.786-9.866-.31-2.242-1.157-2.565-3.202-3.341-1.012-.385-2.208-.844-3.375-1.65V133.4c0-6.026 4.902-10.928 10.928-10.928a2.185 2.185 0 1 0 0-4.371c-8.436 0-15.299 6.865-15.299 15.299v2.734c-.054-.223-.109-.444-.16-.647-.45-1.873-.65-2.492-1.842-3.104-6.62-3.398-11.603-12.807-11.107-20.972.111-1.839-3.134-5.849-5.085-8.26l-.018-.021-.032-.04c-1.08-1.334-2.011-2.486-2.65-3.477-4.167-6.486-4.167-15.547 0-22.034 1.692-2.63 2.636-8.327 2.426-11.798-.43-7.116 2.842-14.182 8.15-18.111h10.318c4.822 0 8.742 3.92 8.742 8.742a2.185 2.185 0 1 0 4.371 0c0-7.232-5.88-13.113-13.113-13.113h-1.696l.088-.13c.067-.097.135-.195.199-.325 2.806-5.829 5.903-7.894 11.83-7.894.867 0 1.81.04 2.837.105h.002c.8 0 1.723-.914 2.792-1.973l.003-.003.004-.003c1.61-1.593 3.79-3.75 7.191-4.422zm1.062 60.242a15.72 15.72 0 0 0-4.64 11.192c0 3.538 1.167 6.893 3.3 9.647a15.701 15.701 0 0 0-3.3 9.647c0 4.224 1.648 8.202 4.64 11.192.426.426.986.64 1.545.64a2.184 2.184 0 0 0 1.545-3.731 11.384 11.384 0 0 1-3.359-8.101c0-3.058 1.194-5.936 3.36-8.102a2.184 2.184 0 0 0 0-3.091 11.384 11.384 0 0 1-3.36-8.101c0-3.058 1.194-5.936 3.36-8.102a2.183 2.183 0 0 0 0-3.09 2.183 2.183 0 0 0-3.09 0zM61.41 111.278a4.472 4.472 0 0 1-2.644-5.733c1.687-4.568-.658-9.658-5.23-11.352a2.193 2.193 0 0 0-2.809 1.294 2.185 2.185 0 0 0 1.292 2.809 4.469 4.469 0 0 1 2.645 5.732v.005c-1.683 4.567.662 9.655 5.23 11.345a2.185 2.185 0 0 0 1.517-4.1zM54.45 77.83c3.594 0 6.982-2.212 8.298-5.776a2.188 2.188 0 0 0-1.292-2.81 2.19 2.19 0 0 0-2.808 1.293 4.468 4.468 0 0 1-5.735 2.642c-4.568-1.676-9.662.663-11.347 5.23a2.188 2.188 0 0 0 2.05 2.944c.89 0 1.724-.546 2.05-1.427a4.463 4.463 0 0 1 5.735-2.642 8.824 8.824 0 0 0 3.048.546zm95.289-12.543c-.212 3.469.734 9.17 2.423 11.798 4.168 6.487 4.168 15.548 0 22.035-.644 1-1.587 2.163-2.678 3.51l-.003.004-.068.083c-.705.873-1.571 1.945-2.385 3.047l-5.243-6.076c-3.21-5.206-8.761-8.308-14.887-8.308-7.232 0-13.114-5.88-13.114-13.113a2.185 2.185 0 1 0-4.371 0c0 9.64 7.844 17.485 17.485 17.485 4.644 0 8.847 2.375 11.244 6.353l6.524 7.568c-.181.468-.306.903-.286 1.244.494 8.17-4.489 17.574-11.107 20.972-1.191.61-1.39 1.233-1.843 3.104l-.161.649v-2.736c0-8.434-6.863-15.299-15.299-15.299a2.185 2.185 0 1 0 0 4.371c6.025 0 10.928 4.902 10.928 10.928v9.743c-1.168.806-2.363 1.265-3.375 1.65-2.046.776-2.891 1.099-3.202 3.342-.854 6.176-4.511 9.865-9.784 9.865h-.003c-7.767-.002-16.42-8.309-16.42-20.229V36.742c0-4.738 5.974-8.742 13.042-8.742l1.103.111c3.425.393 5.588 2.705 7.207 4.435l.006.007.028.03c.918.978 1.86 1.982 2.467 1.982a46.247 46.247 0 0 1 2.885-.107c5.928 0 9.024 2.066 11.828 7.894.063.13.13.227.197.324.03.042.059.084.088.129h-1.696c-6.026 0-10.928 4.902-10.928 10.928a2.185 2.185 0 1 0 4.371 0 6.565 6.565 0 0 1 6.557-6.557h10.32c5.308 3.93 8.58 10.993 8.15 18.111zm-39.834 51.336c5.765-5.765 5.765-15.15 0-20.917a2.185 2.185 0 0 0-3.09.002 2.182 2.182 0 0 0 0 3.09c4.06 4.063 4.06 10.674 0 14.737a14.697 14.697 0 0 0-4.336 10.458c0 3.947 1.54 7.663 4.336 10.458a2.178 2.178 0 0 0 3.09-.002 2.183 2.183 0 0 0 0-3.091 10.356 10.356 0 0 1-3.055-7.367 10.36 10.36 0 0 1 3.055-7.368zm23.523-37.169c.846 0 1.702-.076 2.564-.225a2.182 2.182 0 0 0 1.772-2.53 2.184 2.184 0 0 0-2.531-1.778c-5.656 1.001-11.074-2.802-12.066-8.46a14.695 14.695 0 0 0-6.074-9.553 14.713 14.713 0 0 0-11.052-2.456 2.185 2.185 0 0 0-1.775 2.53 2.195 2.195 0 0 0 2.531 1.777c2.745-.49 5.508.131 7.787 1.727a10.36 10.36 0 0 1 4.28 6.731c1.261 7.173 7.518 12.237 14.564 12.237z" fill="url(#paint1_linear)"/><defs><filter id="filter0_d" x="3" y="3" width="180" height="180" filterUnits="userSpaceOnUse" color-interpolation-filters="sRGB"><feFlood flood-opacity="0" result="BackgroundImageFix"/><feColorMatrix in="SourceAlpha" values="0 0 0 0 0 0 0 0 0 0 0 0 0 0 0 0 0 0 127 0" result="hardAlpha"/><feOffset/><feGaussianBlur stdDeviation="5"/><feColorMatrix values="0 0 0 0 0 0 0 0 0 0 0 0 0 0 0 0 0 0 0.15 0"/><feBlend in2="BackgroundImageFix" result="effect1_dropShadow"/><feBlend in="SourceGraphic" in2="effect1_dropShadow" result="shape"/></filter><linearGradient id="paint0_linear" x1="0" y1="0" x2="198.548" y2="14.529" gradientUnits="userSpaceOnUse"><stop stop-color="#0C8180"/><stop offset="1" stop-color="#304659"/></linearGradient><linearGradient id="paint1_linear" x1="30.712" y1="28" x2="163.75" y2="37.329" gradientUnits="userSpaceOnUse"><stop stop-color="#0C8180"/><stop offset="1" stop-color="#304659"/></linearGradient></defs></svg>