<svg width="45" height="45" fill="none" xmlns="http://www.w3.org/2000/svg"><path d="M4 .5h37A3.5 3.5 0 0 1 44.5 4v37a3.5 3.5 0 0 1-3.5 3.5H4A3.5 3.5 0 0 1 .5 41V4A3.5 3.5 0 0 1 4 .5z" stroke="#000"/><path d="M4 .5h37A3.5 3.5 0 0 1 44.5 4v37a3.5 3.5 0 0 1-3.5 3.5H4A3.5 3.5 0 0 1 .5 41V4A3.5 3.5 0 0 1 4 .5z" stroke="#000" stroke-opacity=".1"/><path d="M10.97 37.532c-.156-.039-.311-.075-.466-.117a4.841 4.841 0 0 1-2.24-1.312c-1.076-1.113-1.655-2.443-1.705-3.997a6.466 6.466 0 0 1 .186-1.725c.16-.666.409-1.295.734-1.896a9.772 9.772 0 0 1 1.998-2.531c.603-.556 1.26-1.04 1.965-1.46.659-.393 1.274-.848 1.863-1.34.74-.62 1.43-1.295 2.114-1.976.605-.602 1.203-1.21 1.833-1.784.474-.434.966-.845 1.498-1.206.665-.45 1.373-.807 2.165-.98a4.85 4.85 0 0 1 1.791-.055c.68.104 1.337.29 1.967.567a5.849 5.849 0 0 1 2.375 1.918c.428.582.765 1.215 1.067 1.868.32.692.602 1.401.897 2.105.333.793.682 1.576 1.094 2.332.41.753.884 1.465 1.42 2.134.65.809 1.198 1.68 1.63 2.624.367.81.635 1.65.77 2.53.105.685.126 1.37.04 2.06-.128 1.048-.482 2.009-1.117 2.86-.587.788-1.339 1.372-2.226 1.785-.653.303-1.334.5-2.055.55a5.105 5.105 0 0 1-.766 0c-.035-.003-.07-.003-.105-.004-.036.013-.07-.007-.105-.009-.03-.001-.057-.02-.088-.006l-.643-.113c-.022-.023-.053-.016-.08-.024l-.073-.013-.062-.01c-.546-.115-1.058-.324-1.568-.54-.862-.37-1.695-.802-2.55-1.188a16.828 16.828 0 0 0-2.125-.808c-.505-.15-1.02-.248-1.54-.32a8.31 8.31 0 0 0-1.253-.064c-.827.01-1.65.088-2.472.164-.87.082-1.741.163-2.616.153a6.254 6.254 0 0 1-1.06-.084c-.073-.013-.146-.015-.219-.03-.092-.021-.186-.02-.274-.058zM32.333 5.3c1.132.344 1.912 1.089 2.423 2.138.35.72.515 1.486.56 2.282a7.777 7.777 0 0 1-.162 2.036 8.887 8.887 0 0 1-1.494 3.389 7.46 7.46 0 0 1-1.833 1.82c-.64.44-1.334.76-2.102.9a3.879 3.879 0 0 1-1.61-.028c-.925-.22-1.652-.731-2.204-1.499-.47-.655-.74-1.394-.876-2.185a7.084 7.084 0 0 1-.083-1.666c.024-.383.073-.762.152-1.136a8.922 8.922 0 0 1 .93-2.505 8.146 8.146 0 0 1 1.76-2.217c.607-.532 1.28-.953 2.045-1.217a4.433 4.433 0 0 1 1.735-.245c.326.023.455.049.759.133zM4.897 14.45c.08-.35.205-.687.358-1.012.297-.633.698-1.187 1.247-1.625a3.414 3.414 0 0 1 2.098-.769 3.724 3.724 0 0 1 1.8.436 5.13 5.13 0 0 1 1.648 1.368c.71.876 1.153 1.879 1.388 2.978a7.29 7.29 0 0 1 .158 1.747 6.85 6.85 0 0 1-.083.851 5.984 5.984 0 0 1-.453 1.546c-.298.658-.705 1.234-1.273 1.688a3.408 3.408 0 0 1-2.23.774 3.752 3.752 0 0 1-1.724-.463c-.726-.386-1.31-.933-1.792-1.593A6.85 6.85 0 0 1 5 18.264a7.334 7.334 0 0 1-.313-2.295c.004-.138.011-.275.017-.413-.004-.064.013-.125.009-.19-.002-.026.006-.05.01-.076 0-.033.02-.065.007-.101l.087-.494c.038-.04.032-.092.044-.14.009-.035.007-.075.035-.104zm8.975-6.445c.176-.98.471-1.838.948-2.631.36-.6.802-1.128 1.362-1.55.604-.457 1.276-.743 2.036-.799a3.628 3.628 0 0 1 2.124.5c.58.335 1.057.785 1.457 1.318.64.85 1.036 1.808 1.256 2.844.14.658.2 1.324.181 1.996a9 9 0 0 1-.103 1.14 7.898 7.898 0 0 1-.35 1.398c-.334.95-.826 1.803-1.559 2.505a4.2 4.2 0 0 1-1.574.971c-.67.225-1.35.248-2.033.073a4.037 4.037 0 0 1-1.641-.881c-.63-.541-1.1-1.205-1.456-1.95a7.93 7.93 0 0 1-.735-2.802 8.778 8.778 0 0 1 .017-1.603c.019-.201.04-.402.07-.53zm27.53 13.471l-.02.114c-.21.937-.619 1.782-1.175 2.558a7.242 7.242 0 0 1-1.554 1.59c-.77.575-1.619.98-2.572 1.145-.57.099-1.14.097-1.705-.036a3.466 3.466 0 0 1-2.034-1.318c-.427-.567-.661-1.212-.757-1.91a5.423 5.423 0 0 1 .072-1.865c.282-1.358.932-2.522 1.877-3.526.32-.34.671-.644 1.052-.912.784-.548 1.635-.925 2.588-1.056a4.152 4.152 0 0 1 1.609.08c.809.209 1.47.646 1.97 1.32.45.607.68 1.3.761 2.046.045.413.04.826-.018 1.237l-.02.115a7.251 7.251 0 0 0-.074.418z" fill="url(#paint0_linear)"/><path fill-rule="evenodd" clip-rule="evenodd" d="M21.435 34H18.6l3.39-7.755h-4.875v-2.25h7.845v1.785L21.435 34z" fill="#fff"/><defs><linearGradient id="paint0_linear" x1="4.686" y1="3.015" x2="44.038" y2="5.846" gradientUnits="userSpaceOnUse"><stop stop-color="#0C8180"/><stop offset="1" stop-color="#304659"/></linearGradient></defs></svg>