<svg width="45" height="45" fill="none" xmlns="http://www.w3.org/2000/svg"><path d="M40 .5H5A4.5 4.5 0 0 0 .5 5v35A4.5 4.5 0 0 0 5 44.5h35a4.5 4.5 0 0 0 4.5-4.5V5A4.5 4.5 0 0 0 40 .5z" stroke="#000"/><path d="M40 .5H5A4.5 4.5 0 0 0 .5 5v35A4.5 4.5 0 0 0 5 44.5h35a4.5 4.5 0 0 0 4.5-4.5V5A4.5 4.5 0 0 0 40 .5z" stroke="#000" stroke-opacity=".1"/><path d="M11.095 16.9H9.634l-2.2-3.075V16.9H6.147v-6.068h1.287v2.939l2.175-2.939h1.37l-2.213 2.914 2.329 3.154zm2.05-3.212h.423c.396 0 .692-.078.889-.233.196-.158.294-.386.294-.685 0-.301-.083-.524-.249-.668-.163-.144-.42-.216-.772-.216h-.585v1.802zm2.905-.963c0 .653-.205 1.152-.614 1.498-.407.346-.986.519-1.739.519h-.552V16.9h-1.287v-6.068h1.939c.736 0 1.295.16 1.676.477.385.316.577.788.577 1.416zm4.64 4.175h-3.494v-6.068h3.494v1.054h-2.208v1.333h2.055v1.054h-2.055v1.565h2.208V16.9zm.548-1.07h.47c.4-.803.717-1.604.95-2.404.232-.802.405-1.667.518-2.594h3.537v4.997h.809v2.84h-1.241V16.9h-3.802v1.768h-1.24V15.83zm2.96-3.927a14.148 14.148 0 0 1-.445 2.013 14.149 14.149 0 0 1-.693 1.913h2.37v-3.926h-1.232zm4.262-1.07h1.158v2.93l-.017.784-.041.892h.025l2.801-4.607h1.54V16.9h-1.145v-2.913c0-.39.024-.969.074-1.735h-.033L30.008 16.9H28.46v-6.068zm9.338 6.067h-1.286v-4.997h-1.648v-1.07h4.582v1.07h-1.648V16.9z" fill="#000"/><path d="M21.65 34.946v2.804h-9.99v-2.214l4.803-4.375c.464-.429.776-.792.935-1.09.159-.31.238-.619.238-.928 0-.405-.14-.72-.421-.947-.282-.226-.691-.339-1.229-.339a2.77 2.77 0 0 0-1.32.322c-.39.202-.715.5-.971.892L11 27.607c.501-.81 1.204-1.446 2.108-1.91.904-.465 1.974-.697 3.208-.697.978 0 1.84.155 2.585.464.758.31 1.344.756 1.76 1.34.428.571.641 1.238.641 2 0 .678-.152 1.321-.458 1.928-.293.595-.868 1.274-1.723 2.036l-2.42 2.178h4.95z" fill="url(#paint0_linear)"/><path d="M28.354 38c-1.1 0-2.078-.256-2.933-.768-.856-.512-1.528-1.256-2.017-2.232-.476-.988-.715-2.155-.715-3.5 0-1.345.239-2.506.715-3.482.49-.988 1.161-1.738 2.017-2.25.855-.512 1.833-.768 2.933-.768 1.088 0 2.06.256 2.915.768s1.521 1.262 1.998 2.25c.489.976.733 2.137.733 3.482 0 1.345-.244 2.512-.733 3.5-.477.976-1.143 1.72-1.998 2.232-.856.512-1.827.768-2.915.768zm0-2.893c.61 0 1.094-.286 1.448-.857.367-.583.55-1.5.55-2.75s-.183-2.16-.55-2.732c-.354-.584-.837-.875-1.448-.875-.623 0-1.118.291-1.485.875-.354.571-.532 1.482-.532 2.732 0 1.25.178 2.167.532 2.75.367.571.862.857 1.485.857z" fill="url(#paint1_linear)"/><path stroke="url(#paint2_linear)" d="M4 22.5h36"/><defs><linearGradient id="paint0_linear" x1="11" y1="25" x2="35.276" y2="28.143" gradientUnits="userSpaceOnUse"><stop stop-color="#0C8180"/><stop offset="1" stop-color="#304659"/></linearGradient><linearGradient id="paint1_linear" x1="11" y1="25" x2="35.276" y2="28.143" gradientUnits="userSpaceOnUse"><stop stop-color="#0C8180"/><stop offset="1" stop-color="#304659"/></linearGradient><linearGradient id="paint2_linear" x1="4" y1="23" x2="8.866" y2="35.819" gradientUnits="userSpaceOnUse"><stop stop-color="#0C8180"/><stop offset="1" stop-color="#304659"/></linearGradient></defs></svg>