<svg width="45" height="45" fill="none" xmlns="http://www.w3.org/2000/svg"><path d="M40 .5H5A4.5 4.5 0 0 0 .5 5v35A4.5 4.5 0 0 0 5 44.5h35a4.5 4.5 0 0 0 4.5-4.5V5A4.5 4.5 0 0 0 40 .5z" stroke="#000"/><path d="M40 .5H5A4.5 4.5 0 0 0 .5 5v35A4.5 4.5 0 0 0 5 44.5h35a4.5 4.5 0 0 0 4.5-4.5V5A4.5 4.5 0 0 0 40 .5z" stroke="#000" stroke-opacity=".1"/><path d="M18.181 13.896c2.166-1.506 4.885-2.168 7.487-1.793 2.804.376 5.43 1.933 7.124 4.227 1.838 2.452 2.606 5.71 2.009 8.735-.485 2.675-1.986 5.153-4.15 6.768-2.048 1.565-4.663 2.35-7.22 2.13-3.444-.208-6.665-2.276-8.431-5.261 3.06-1.815 6.12-3.635 9.198-5.418-1.958-3.158-4.016-6.257-6.017-9.388z" fill="url(#paint0_linear)"/><path d="M11.488 19.117h0l.002-.007c.57-1.814 1.686-3.438 3.136-4.663a549.049 549.049 0 0 1 2.067 3.21c.957 1.492 1.918 2.991 2.888 4.463-2.55 1.49-5.1 2.982-7.645 4.484a10.481 10.481 0 0 1-.448-7.487z" stroke="url(#paint1_linear)" stroke-width="2"/><path d="M28.432 26.6V35h-2.376v-6.564h-1.56V26.6h3.936zM32.84 29.66c1.175 0 2.043.24 2.603.72.568.48.852 1.12.852 1.92 0 .52-.136 1-.408 1.44-.264.432-.672.78-1.224 1.044-.544.256-1.22.384-2.028.384-.592 0-1.18-.072-1.764-.216a5.042 5.042 0 0 1-1.488-.612l.852-1.788c.336.224.704.396 1.104.516.408.12.816.18 1.224.18.408 0 .732-.076.972-.228.248-.16.372-.38.372-.66s-.12-.492-.36-.636c-.24-.144-.664-.216-1.272-.216h-2.28l.42-4.908h5.352v1.836h-3.384l-.108 1.224h.564z" fill="#000"/><defs><linearGradient id="paint0_linear" x1="15" y1="12" x2="36.369" y2="13.422" gradientUnits="userSpaceOnUse"><stop stop-color="#0C8180"/><stop offset="1" stop-color="#304659"/></linearGradient><linearGradient id="paint1_linear" x1="10" y1="13" x2="21.771" y2="13.632" gradientUnits="userSpaceOnUse"><stop stop-color="#0C8180"/><stop offset="1" stop-color="#304659"/></linearGradient></defs></svg>