<svg width="45" height="45" fill="none" xmlns="http://www.w3.org/2000/svg"><path d="M40 .5H5A4.5 4.5 0 0 0 .5 5v35A4.5 4.5 0 0 0 5 44.5h35a4.5 4.5 0 0 0 4.5-4.5V5A4.5 4.5 0 0 0 40 .5z" stroke="#000"/><path d="M40 .5H5A4.5 4.5 0 0 0 .5 5v35A4.5 4.5 0 0 0 5 44.5h35a4.5 4.5 0 0 0 4.5-4.5V5A4.5 4.5 0 0 0 40 .5z" stroke="#000" stroke-opacity=".1"/><path d="M10.75 19.5c.524 0 .75.323.75.5s-.226.5-.75.5h-7.5c-.524 0-.75-.323-.75-.5s.226-.5.75-.5h7.5z" fill="#000" stroke="url(#paint0_linear)"/><path d="M5.333 24.5h5.334c.27 0 .495.083.642.193.147.11.191.224.191.307 0 .083-.044.197-.19.307-.148.11-.373.193-.643.193H5.333c-.27 0-.495-.083-.642-.193-.147-.11-.191-.224-.191-.307 0-.083.044-.197.19-.307.148-.11.373-.193.643-.193z" fill="#000" stroke="url(#paint1_linear)"/><path d="M8.25 29.5h2.5c.524 0 .75.323.75.5s-.226.5-.75.5h-2.5c-.524 0-.75-.323-.75-.5s.226-.5.75-.5z" fill="#000" stroke="url(#paint2_linear)"/><path d="M42.834 28.858l-3.5-6.25a1.15 1.15 0 0 0-1-.608h-8.167c-.644 0-1.167.56-1.167 1.25v12.5c0 .69.523 1.25 1.167 1.25h11.666c.644 0 1.167-.56 1.167-1.25V29.5c0-.227-.056-.45-.166-.642z" fill="url(#paint3_linear)"/><path d="M32.75 24.286h4.4l3.075 5.143H32.75v-5.143z" fill="#fff"/><path d="M11.25 18h17.5a.25.25 0 0 1 .25.25V36H11.25a.25.25 0 0 1-.25-.25v-17.5a.25.25 0 0 1 .25-.25z" stroke="url(#paint4_linear)" stroke-width="2"/><path d="M36.594 38.429a2.567 2.567 0 0 0 2.562-2.572 2.567 2.567 0 0 0-2.562-2.571 2.567 2.567 0 0 0-2.563 2.571 2.567 2.567 0 0 0 2.563 2.572z" fill="#fff"/><path d="M36.594 39.714a3.855 3.855 0 0 1-3.844-3.857A3.855 3.855 0 0 1 36.594 32c2.119 0 3.843 1.73 3.843 3.857a3.855 3.855 0 0 1-3.843 3.857zm0-5.143c-.705 0-1.282.579-1.282 1.286 0 .707.577 1.286 1.282 1.286.704 0 1.281-.579 1.281-1.286 0-.707-.577-1.286-1.281-1.286z" fill="#000"/><path d="M30 37H11.25c-.69 0-1.25-.56-1.25-1.25V32h20v5z" fill="url(#paint5_linear)"/><path d="M18.656 38.429a2.567 2.567 0 0 0 2.563-2.572 2.567 2.567 0 0 0-2.563-2.571 2.567 2.567 0 0 0-2.562 2.571 2.567 2.567 0 0 0 2.562 2.572z" fill="#fff"/><path d="M18.656 39.714a3.855 3.855 0 0 1-3.843-3.857A3.855 3.855 0 0 1 18.655 32c2.12 0 3.844 1.73 3.844 3.857a3.855 3.855 0 0 1-3.844 3.857zm0-5.143a1.286 1.286 0 0 0 0 2.572 1.286 1.286 0 0 0 0-2.572zM2.305 9.055h.413c.355-.708.634-1.415.84-2.12a14.6 14.6 0 0 0 .457-2.289h3.12v4.41h.714v2.504H6.754V10H3.4v1.56H2.305V9.055zm2.61-3.464c-.077.559-.208 1.15-.391 1.776-.18.625-.385 1.188-.612 1.688h2.091V5.591H4.916zm8.521 1.725c0 .886-.22 1.567-.659 2.043-.44.476-1.07.714-1.89.714-.82 0-1.45-.238-1.89-.714-.439-.476-.658-1.16-.658-2.05 0-.892.22-1.572.659-2.04.442-.472 1.074-.707 1.897-.707s1.451.237 1.886.71c.437.474.655 1.155.655 2.044zm-3.907 0c0 .598.113 1.048.34 1.351.228.303.567.454 1.019.454.905 0 1.358-.602 1.358-1.805 0-1.206-.45-1.81-1.351-1.81-.452 0-.792.153-1.022.458-.23.303-.344.754-.344 1.352zm7.191-1.802c-.427 0-.758.161-.992.483-.235.32-.352.767-.352 1.34 0 1.194.448 1.791 1.344 1.791.376 0 .832-.094 1.366-.282V9.8c-.44.183-.93.274-1.472.274-.779 0-1.375-.235-1.787-.707-.413-.473-.619-1.152-.619-2.036 0-.556.101-1.043.304-1.46.203-.42.493-.742.871-.964.381-.225.827-.337 1.337-.337.52 0 1.043.126 1.568.377l-.367.923a6.056 6.056 0 0 0-.604-.249 1.802 1.802 0 0 0-.597-.106zM21.194 10H20.06V5.59h-1.454v-.944h4.043v.945h-1.454V10zm5.456 0l-.389-1.274H24.31L23.92 10h-1.223l1.89-5.376h1.388L27.873 10H26.65zm-.66-2.227c-.358-1.154-.561-1.807-.607-1.959a6.091 6.091 0 0 1-.096-.359c-.08.313-.311 1.086-.692 2.318h1.395zm2.46-3.127h1.666c.76 0 1.31.109 1.652.326.344.215.516.558.516 1.029 0 .32-.075.582-.227.787a.893.893 0 0 1-.597.37v.037c.34.076.584.217.733.425.151.207.227.483.227.827 0 .489-.177.87-.531 1.143-.352.273-.83.41-1.436.41H28.45V4.646zm1.136 2.12h.659c.307 0 .53-.047.666-.142.14-.096.209-.253.209-.473 0-.205-.076-.351-.227-.44-.15-.09-.386-.135-.71-.135h-.598v1.19zm0 .901v1.396h.74c.312 0 .542-.06.691-.18.15-.12.224-.303.224-.55 0-.444-.318-.666-.952-.666h-.704zM37.755 10h-1.29l-1.94-2.714V10h-1.136V4.646h1.136v2.593l1.919-2.593h1.208L35.7 7.216 37.754 10zm3.85 0l-.387-1.274h-1.952L38.878 10h-1.224l1.89-5.376h1.388L42.83 10h-1.223zm-.658-2.227c-.36-1.154-.562-1.807-.608-1.959a6.172 6.172 0 0 1-.095-.359c-.081.313-.312 1.086-.693 2.318h1.396zM17.108 21.6V30h-2.376v-6.564h-1.56V21.6h3.936zM27.18 24.336V25.5h-8.52v-1.164h5.327c.104-.088.156-.188.156-.3 0-.224-.108-.404-.324-.54-.216-.144-.556-.216-1.02-.216-.792 0-1.604.148-2.436.444l-.528-1.752c.976-.368 1.936-.552 2.88-.552.752 0 1.412.112 1.98.336.576.224 1.02.544 1.332.96.312.408.468.888.468 1.44 0 .08-.004.14-.012.18h.696zm-8.52 1.656h8.52v1.164h-5.053c-.264.128-.396.288-.396.48 0 .456.456.684 1.368.684.488 0 .988-.056 1.5-.168a6.237 6.237 0 0 0 1.368-.456l.588 1.752c-.56.24-1.132.424-1.716.552-.576.12-1.136.18-1.68.18-.76 0-1.424-.108-1.992-.324-.568-.224-1.008-.54-1.32-.948-.312-.408-.468-.892-.468-1.452 0-.072.008-.172.024-.3h-.744v-1.164z" fill="#000"/><defs><linearGradient id="paint0_linear" x1="2" y1="19" x2="11.465" y2="22.463" gradientUnits="userSpaceOnUse"><stop stop-color="#0C8180"/><stop offset="1" stop-color="#304659"/></linearGradient><linearGradient id="paint1_linear" x1="4" y1="24" x2="11.908" y2="26.315" gradientUnits="userSpaceOnUse"><stop stop-color="#0C8180"/><stop offset="1" stop-color="#304659"/></linearGradient><linearGradient id="paint2_linear" x1="7" y1="29" x2="12.192" y2="29.95" gradientUnits="userSpaceOnUse"><stop stop-color="#0C8180"/><stop offset="1" stop-color="#304659"/></linearGradient><linearGradient id="paint3_linear" x1="29" y1="22" x2="43.955" y2="23.021" gradientUnits="userSpaceOnUse"><stop stop-color="#0C8180"/><stop offset="1" stop-color="#304659"/></linearGradient><linearGradient id="paint4_linear" x1="10" y1="17" x2="31.349" y2="18.562" gradientUnits="userSpaceOnUse"><stop stop-color="#0C8180"/><stop offset="1" stop-color="#304659"/></linearGradient><linearGradient id="paint5_linear" x1="10" y1="32" x2="29.77" y2="37.787" gradientUnits="userSpaceOnUse"><stop stop-color="#0C8180"/><stop offset="1" stop-color="#304659"/></linearGradient></defs></svg>