<svg width="160" height="161" fill="none" xmlns="http://www.w3.org/2000/svg"><path d="M33.455 93.413l1.048.452c5.104 2.204 11.289 2.254 16.653.136 3.09-1.221 6.13-3.327 8.35-5.785 1.292-1.431 1.76-2.086 2.858-3.993 1.377-2.396 2.063-4.167 2.576-6.663 1.572-7.636-.91-15.512-6.551-20.795-1.742-1.631-4.452-3.375-6.533-4.204-3.995-1.592-8.101-2.041-12.195-1.335-2.222.383-4.893 1.312-6.903 2.401-1.856 1.006-4.033 2.688-5.529 4.27-4.749 5.027-6.996 12.049-5.995 18.735.858 5.728 3.665 10.63 8.152 14.239.684.55 3.433 2.267 4.07 2.542zm3.761-13.781a8.919 8.919 0 0 1-.742-.784c-.116-.153-.278-.289-.36-.302-.08-.012-.11-.033-.064-.045.046-.013-.025-.192-.157-.397-.411-.636-.934-1.916-1.137-2.784-.266-1.136-.302-1.505-.24-2.478.03-.461.016-.829-.03-.816-.046.013-.029-.022.038-.076.067-.055.168-.347.225-.65.135-.711.212-.903.851-2.12.433-.826.641-1.138 1.103-1.659 1.718-1.938 4.025-2.992 6.611-3.018 2.583-.027 5.174 1.254 6.81 3.367 1.55 2 2.126 4.843 1.505 7.425-.254 1.058-1.154 2.78-1.892 3.619-1.245 1.416-2.543 2.22-4.39 2.721-2.113.572-4 .406-5.947-.525-.958-.458-1.485-.815-2.184-1.478zm2.422.935c.662.04 1.298-.605 1.285-1.302-.017-.918-1.14-1.507-1.883-.988-1 .698-.604 2.217.598 2.29zm1.586-2.702c1.03.459 2.53.513 3.597.13 1.898-.681 3.257-2.5 3.381-4.526.17-2.771-1.912-5.096-4.72-5.27-.854-.054-2.263.333-2.97.815-1.81 1.237-2.669 3.373-2.164 5.392.412 1.65 1.354 2.782 2.876 3.46zm5.314 2.703c.34-.018.89-.371 1.074-.69.295-.51.047-1.34-.493-1.653-.912-.527-2.045.321-1.82 1.363.082.384.134.455.52.71.322.213.503.281.719.27zM36.44 74.756c.353.037.766-.137 1.037-.437.248-.276.336-.974.166-1.318-.192-.384-.73-.722-1.127-.705-1.566.068-1.635 2.294-.076 2.46zm13.866-.806c.878-.026 1.417-.806 1.153-1.67-.128-.42-.72-.823-1.181-.803-.405.017-.82.274-1.03.638-.48.83.117 1.863 1.058 1.835zm-10.108-5.73c.447.06 1.135-.388 1.279-.831.439-1.357-1.253-2.279-2.152-1.173-.288.354-.323 1.016-.074 1.383.203.298.633.58.947.622zm6.361.163c.164.016.463-.041.665-.127.324-.138.392-.209.576-.598.164-.346.191-.517.126-.79-.154-.646-.68-1.02-1.338-.956-1.092.107-1.49 1.583-.603 2.239.154.114.407.217.574.232zm45.271 38.662a6.53 6.53 0 0 0 2.177.37c.697.012.89-.022.978-.17.023-.039.13-.027.237.024.132.064.468.008 1.03-.171 1.445-.458 3.061-1.684 3.719-2.819l.231-.401 10.635 6.14c10.379 5.992 10.651 6.144 11.32 6.332.377.106 1.014.21 1.417.232 1.213.067 2.988-.522 3.87-1.282.146-.126.289-.215.319-.198.12.069 4.469 1.758 4.575 1.776.084.015.278-.263.732-1.049l.617-1.069-.22-.186c-.121-.102-1.024-.826-2.007-1.609-1.352-1.076-1.791-1.464-1.799-1.593a17.661 17.661 0 0 1-.001-.797c.012-.764-.307-2.026-.685-2.711a6.105 6.105 0 0 0-1.568-1.827c-.363-.284-3.972-2.403-11.098-6.517l-10.561-6.098.162-.39c.841-2.026.436-4.215-1.049-5.674-.337-.332-2.496-1.596-18.185-10.655L68.873 66.425l-.46-1.342c-1.433-4.181-4.277-8.208-7.942-11.245-7.045-5.838-16.242-8.11-24.094-5.95-4.319 1.187-7.73 3.585-10.095 7.1l-.472.701.438.375c.713.61.654.61 1.328-.003 4.035-3.671 9.093-5.835 14.451-6.181 1.413-.092 3.894.021 5.115.232 10.882 1.883 18.683 10.669 19.288 21.725.205 3.75-.545 7.594-2.171 11.131-.855 1.858-2.687 4.642-3.854 5.853l-.145.15 15.51 8.946c12.492 7.204 15.618 8.981 16.06 9.128zm15.317 3.289l.883-1.529-2.831-1.635-2.832-1.634-.146.252c-.143.248-.138.258.27.623 1.347 1.205 2.967 3.487 3.52 4.961.091.242.186.452.21.465.024.014.441-.662.926-1.503zm28.17 6.836l.198-.344-1.057-.611-1.057-.61-.198.344-.199.344 1.057.61 1.057.611.199-.344zM64.878 53.085c.738-1.158 1.72-2.688 2.185-3.401.465-.713 1.972-3.053 3.35-5.2 3.103-4.836 5.424-8.442 5.622-8.73l.15-.22.626.31.626.31.474-.77.474-.772-5.515-3.183-5.515-3.184-.463.802-.464.803.551.318c.304.175.603.304.665.287.124-.034.07.086-.49 1.088-.19.339-1.455 2.773-2.812 5.409-5.293 10.284-6.64 12.894-6.772 13.123l-.137.237.82.543c1.648 1.091 3.23 2.352 4.477 3.57.414.403.765.741.78.75.016.009.631-.932 1.368-2.09z" fill="#000"/><path fill-rule="evenodd" clip-rule="evenodd" d="M80 160.152c44.183 0 80-35.818 80-80 0-44.183-35.817-80-80-80s-80 35.817-80 80c0 44.182 35.817 80 80 80zm70-80c0 38.66-31.34 70-70 70-18.125 0-34.641-6.889-47.073-18.191l98.882-98.882C143.111 45.51 150 62.027 150 80.152zm-22.412-51.337l-98.925 98.924C17.081 115.25 10 98.528 10 80.152c0-38.66 31.34-70 70-70 18.376 0 35.099 7.08 47.588 18.663z" fill="#E24A4A"/></svg>