<svg width="160" height="161" fill="none" xmlns="http://www.w3.org/2000/svg"><path d="M87.847 126.764a.078.078 0 1 1 .147.053.078.078 0 1 1-.147-.053zm.568.04c.016-.042-.193-.154-.487-.261-.293-.108-.502-.22-.487-.262.036-.098-.21-.183-.346-.12-.178.083-.346-.213-.294-.521.034-.204.019-.253-.06-.193-.057.045-.092.045-.076.001a.223.223 0 0 1 .097-.113c.12-.056.2-.262.152-.395-.037-.104-.063-.115-.144-.056-.06.044-.048-.005.03-.123.096-.148.103-.232.029-.344-.09-.136-.089-.145.027-.102.098.036.122.011.106-.108a1.976 1.976 0 0 1-.02-.237c0-.045-.078-.1-.174-.122-.096-.022-.175-.093-.176-.158-.002-.138-.346-.289-.389-.171-.02.054-.044.046-.077-.024-.05-.108-.515-.24-.495-.14.007.031-.069.033-.168.004-.102-.031-.149-.079-.108-.111.042-.033-.004-.046-.109-.031a.412.412 0 0 1-.333-.106c-.174-.152-.864-.461-.944-.423-.03.013-.192-.052-.362-.145-.17-.093-.351-.15-.402-.126-.057.026-.1.005-.113-.055-.01-.054-.07-.116-.13-.139-.06-.022-.103-.007-.095.033.008.04-.116.034-.275-.014-.16-.048-.298-.13-.31-.183-.012-.063.043-.06.158.007.097.057.188.073.202.035.03-.084-.321-.21-.553-.197-.093.006-.138.027-.1.047.038.021-.006.04-.099.042-.102.003-.177-.035-.192-.097-.017-.072-.034-.075-.058-.012-.025.067-.077.053-.2-.055-.093-.079-.19-.134-.216-.122-.026.012-.078-.043-.116-.123-.037-.081-.1-.158-.14-.173-.041-.015-.041.044 0 .131.1.218.08.231-.128.08a.947.947 0 0 0-.403-.149c-.122-.01-.23-.055-.24-.1-.008-.046.049-.059.127-.03.08.029.178.013.22-.036.088-.101-.179-.155-.407-.083-.108.034-.116.021-.04-.069.053-.061.063-.123.024-.137-.039-.014-.087.015-.107.065-.02.05-.05.004-.067-.102-.017-.107-.048-.197-.07-.201a1 1 0 0 1-.19-.125c-.117-.091-.13-.156-.056-.281.054-.089.063-.155.02-.146-.042.009-.057-.038-.033-.103.024-.066.069-.087.1-.047.032.041.086-.008.125-.112.077-.212.293-.273.5-.142.117.073.128.068.061-.029-.07-.102-.062-.113.053-.072.105.038.136.008.143-.136.005-.102-.016-.217-.046-.257-.032-.043-.02-.079.028-.089.045-.01.112-.14.147-.29.036-.15.032-.266-.008-.257-.107.022-.13-.172-.053-.436.137-.468.252-1.082.222-1.177-.04-.125.09-.422.172-.393.033.013.035-.038.003-.112-.048-.114-.075-.123-.173-.057-.091.061-.098.03-.033-.141.046-.12.102-.194.126-.164.023.03.06.005.083-.056.022-.061.015-.143-.016-.183-.032-.039-.014-.176.038-.303l.096-.232-.04.278-.04.277.095-.231c.053-.128.068-.266.035-.309-.033-.042-.026-.117.015-.165.043-.048.022-.148-.045-.224-.095-.107-.095-.189-.001-.376.066-.132.09-.264.053-.293-.043-.035-.016-.085.074-.138a.333.333 0 0 0 .149-.251c.009-.205-.105-.266-.144-.077-.015.074-.027.089-.026.031.001-.057-.044-.096-.102-.087-.057.01-.07.001-.03-.021.04-.021.062-.123.048-.225-.025-.174-.02-.176.075-.028.065.101.083.111.051.029a.269.269 0 0 1 .032-.235c.069-.089.063-.093-.035-.025-.063.044-.132.044-.153 0-.02-.045.036-.102.125-.128.18-.052.263-.163.097-.129-.064.013-.072-.003-.022-.043.045-.035.071-.141.058-.234-.019-.132.007-.169.119-.171.12-.002.13-.019.062-.105-.045-.057-.11-.098-.143-.091-.035.008-.032-.06.004-.149.037-.09.07-.251.072-.359.004-.137.024-.172.068-.117.038.049.085.019.12-.078.035-.094.007-.194-.067-.246-.1-.069-.1-.146-.006-.366.065-.153.089-.272.052-.264-.038.008-.077-.027-.087-.078-.01-.05.02-.077.068-.06.06.022.072-.031.04-.173-.059-.254.001-.646.092-.613.037.014.06-.013.05-.059-.009-.046.025-.093.075-.103.137-.029.157-.152.032-.198-.061-.022-.086-.106-.056-.187.03-.081.013-.163-.038-.182-.065-.025-.055-.043.035-.062.074-.017.133-.098.142-.198.01-.093.04-.14.068-.104.028.036.064.031.08-.012a.086.086 0 0 0-.053-.108c-.047-.017-.04-.076.014-.138.052-.06.063-.094.024-.076-.092.043-.184-.257-.128-.419.024-.069.078-.132.12-.141.043-.009.033.07-.02.175-.098.19-.098.191.029.029a.659.659 0 0 0 .128-.341c0-.098.03-.192.067-.209.036-.017 0-.03-.081-.028-.127.002-.13-.033-.022-.25.069-.139.104-.258.078-.264-.134-.032-.173-.087-.075-.109.145-.032.256-.59.127-.637-.068-.025-.044-.161.086-.49.124-.312.158-.492.108-.572-.058-.094-.043-.143.08-.252.084-.075.11-.128.059-.117-.135.028-.154-.17-.022-.232.148-.069.177-.162.063-.203-.058-.021-.053-.148.013-.341.061-.177.073-.359.028-.428-.083-.129.002-.467.108-.428.035.012.03-.05-.011-.139-.058-.124-.047-.177.047-.233.093-.054.102-.079.035-.103-.056-.021-.046-.123.026-.278.063-.136.1-.278.082-.317-.018-.038.015-.141.074-.227.073-.108.075-.17.007-.195-.083-.032-.08-.042.024-.065.081-.018.102-.052.062-.104-.033-.042-.028-.114.012-.159.04-.046.036-.144-.007-.219-.065-.111-.086-.118-.117-.035-.02.055-.05-.006-.068-.136-.032-.246.104-.525.278-.57.095-.025.049-.137-.129-.312-.033-.033.022-.088.124-.123.164-.056.163-.108-.003-.142-.03-.006-.019-.053.026-.104.044-.05.047-.165.006-.253-.087-.189-.146-.096-.068.107.03.077-.009.026-.085-.113-.1-.185-.107-.259-.023-.277.09-.02.095-.032.023-.06-.05-.019-.079-.07-.063-.113.015-.042.058-.04.094.006.045.057.057.043.04-.043a.624.624 0 0 1 .025-.275c.034-.1.006-.157-.087-.174-.076-.014-.123-.05-.106-.08.088-.156.07-.255-.053-.278-.089-.016-.117-.068-.08-.148.03-.067.033-.127.006-.132-.136-.028-.482-.306-.459-.368.015-.04.069-.036.121.01.07.062.114.029.173-.132.043-.118.049-.252.013-.297-.04-.052-.058-.044-.044.02.012.061-.025.088-.09.064-.072-.026-.08-.09-.024-.183.07-.116.06-.134-.047-.096-.105.038-.139.01-.159-.132a.717.717 0 0 0-.149-.318c-.088-.1-.118-.11-.103-.04.03.15-.061.088-.2-.137-.068-.11-.09-.219-.05-.24.04-.022.02-.03-.047-.018-.07.012-.13-.024-.143-.085-.012-.058-.114-.153-.227-.21-.112-.057-.187-.13-.167-.164.02-.033-.078-.1-.217-.15-.221-.079-.242-.073-.162.048.05.075.054.124.009.107-.115-.042-.145-.229-.063-.398.038-.078.035-.108-.006-.065-.106.11-.217.05-.166-.09.026-.07-.004-.118-.072-.117a.19.19 0 0 1-.163-.1c-.031-.068-.072-.08-.125-.039-.043.034-.128.044-.189.022-.06-.022-.078-.066-.038-.097.102-.081-.102-.142-.248-.074-.093.043-.112.035-.085-.039.019-.052-.01-.095-.066-.097-.121-.003-.327-.465-.238-.535.035-.027-.007-.075-.092-.106-.086-.032-.148-.017-.137.033.01.05-.035.07-.1.047-.066-.024-.094-.064-.063-.088.031-.025.002-.066-.066-.092a5.52 5.52 0 0 1-.435-.215c-.205-.11-.27-.127-.19-.05.082.08.086.107.011.083-.22-.071-.409-.247-.372-.347.02-.056-.021-.123-.092-.148-.11-.04-.117-.03-.045.066.066.087.042.096-.112.04-.108-.038-.195-.111-.193-.163.001-.051-.135-.16-.302-.24-.169-.082-.297-.111-.288-.067.01.044-.03.064-.087.043-.057-.021-.105-.083-.105-.138-.002-.069-.182-.155-.588-.28-.323-.1-.635-.203-.695-.228-1.846-.783-5.605-2.2-5.586-2.105.008.037-.021.055-.064.039s-.066-.061-.051-.101c.014-.04-.05-.096-.142-.124a1.48 1.48 0 0 1-.35-.18c-.12-.084-.193-.1-.212-.047-.017.045-.082.063-.145.04-.063-.023-.082-.068-.042-.1.047-.036-.005-.055-.151-.053-.185.003-.21-.013-.143-.09.066-.076.043-.093-.128-.09-.15.001-.187-.016-.13-.061.052-.042.024-.065-.084-.07-.14-.006-.148-.032-.06-.18.074-.124.072-.184-.01-.214a.868.868 0 0 1-.222-.137c-.075-.066-.103-.063-.089.01.012.057-.013.092-.056.076-.043-.015-.066-.06-.051-.1.014-.04-.077-.097-.204-.127-.156-.038-.217-.087-.192-.156.02-.055.07-.088.113-.073.044.016.052-.03.02-.11-.032-.075-.076-.13-.098-.12-.023.01-.068-.028-.1-.084a.695.695 0 0 0-.228-.196c-.093-.05-.158-.155-.146-.233.018-.11.05-.12.14-.04.08.069.102.069.07-.002a.587.587 0 0 0-.22-.198c-.114-.062-.186-.205-.216-.422-.024-.18-.069-.297-.1-.258-.077.097-.173.05-.131-.064.057-.157-.074-.588-.192-.631-.095-.035-.09-.053.035-.126.13-.077.127-.083-.036-.06-.158.022-.174.005-.12-.13a.306.306 0 0 0-.054-.289c-.143-.16-.135-.387.009-.262.053.047.11.052.124.012.015-.04-.017-.113-.071-.16a.126.126 0 0 1-.015-.181c.069-.08.058-.087-.063-.044-.154.055-.157.037-.042-.286.055-.157.044-.194-.05-.16-.085.03-.128.015-.142-.051-.025-.122.112-.231.18-.144.03.037.052-.037.05-.166-.001-.129-.032-.271-.068-.317-.037-.047-.015-.234.048-.416.063-.182.096-.388.074-.457-.086-.269-.08-.348.02-.26.076.065.1.048.102-.069a.643.643 0 0 0-.078-.288c-.073-.12-.069-.13.037-.09.08.029.122-.008.132-.12.014-.146-.045-.22-.203-.25-.032-.006-.04-.061-.017-.122.022-.06.07-.1.106-.086.036.013.098-.105.136-.263.039-.158.127-.446.196-.64.07-.194.092-.346.05-.337-.041.009-.05-.06-.019-.151.09-.267.113-.466.08-.69-.02-.138-.008-.18.034-.126.078.099.127-.244.084-.584-.022-.172-.004-.227.081-.246.073-.016.06-.043-.038-.08-.13-.048-.13-.092-.008-.348.089-.187.107-.287.049-.275-.05.01-.092-.04-.093-.112-.002-.072-.043-.122-.093-.112-.05.01-.078-.016-.062-.059.015-.043.067-.064.114-.047.047.018.072.003.056-.033-.017-.035-.092-.042-.168-.015-.087.03-.144.016-.155-.04-.01-.05.047-.1.127-.113.1-.016.126-.05.082-.105-.035-.045-.078-.045-.094 0-.017.046-.057.049-.09.007-.04-.052-.025-.096.05-.14.08-.047.067-.077-.053-.115-.11-.037-.156-.117-.146-.256.008-.112-.003-.172-.024-.134-.022.038-.042-.016-.045-.12-.003-.105-.042-.204-.086-.22-.044-.016-.072.01-.062.06.01.051-.023.052-.08.003-.053-.047-.11-.048-.127-.004-.017.045-.063.07-.103.055-.04-.015-.055-.078-.032-.141.023-.064.066-.085.094-.049.057.073.355-.04.395-.15.031-.085-.145-.116-.253-.044-.05.032-.067.014-.046-.047.02-.056-.017-.099-.084-.098-.139.002-.243-.225-.13-.284.042-.022.026-.032-.036-.021-.065.011-.112-.035-.113-.112-.001-.072-.077-.158-.17-.192-.184-.068-.3-.296-.18-.359.041-.022.034-.033-.017-.024-.05.008-.212-.1-.357-.243-.309-.3-.339-.317-.31-.179.015.074-.035.066-.172-.028a2.917 2.917 0 0 0-.354-.204c-.089-.04-.155-.09-.148-.11.024-.064-.9-.371-1.032-.342-.085.019-.101.007-.048-.035.056-.044-.071-.106-.43-.209-.281-.08-2.46-.85-4.843-1.71-3.366-1.213-4.345-1.59-4.39-1.686-.031-.069-.085-.112-.119-.096-.034.016-.048-.01-.03-.057.017-.047.065-.073.106-.058.099.036.212-.418.163-.65-.037-.17-.041-.17-.069.017-.028.192-.03.192-.084.01-.056-.185-.146-.22-9.09-3.497-7.092-2.599-9.06-3.297-9.158-3.252-.123.058-.507-.115-.471-.212.01-.028-.087-.081-.216-.118-.17-.05-.204-.082-.122-.12.159-.074.174-.165.026-.163-.069.002-.111-.036-.094-.083.017-.048.052-.06.077-.029.025.032.104.045.177.03.072-.016.094-.043.05-.06-.048-.018-.031-.147.042-.318.068-.157.098-.281.067-.274-.032.006.004-.118.08-.275.09-.19.11-.32.06-.388-.053-.067-.049-.09.01-.069.06.02.142-.116.249-.412.09-.25.123-.436.076-.426-.045.01-.07-.016-.055-.056.014-.04.067-.082.117-.093.05-.01.121-.108.16-.217.06-.171.053-.185-.052-.098-.067.056-.153.09-.192.076-.1-.037.005-.279.155-.356.104-.053.105-.061.009-.045-.097.016-.093-.004.022-.107.078-.07.134-.162.125-.206-.009-.043.046-.08.121-.08.076-.002.125-.03.11-.061-.014-.032.035-.13.111-.218.12-.137.118-.16-.008-.161-.125-.002-.12-.01.036-.06.124-.04.15-.071.08-.097-.075-.027-.072-.05.011-.09.157-.072.138-.27-.026-.28-.087-.006-.06-.032.074-.072.22-.066.345-.218.15-.18-.077.015-.066-.006.034-.066.13-.078.126-.096-.026-.157-.162-.064-.162-.069-.003-.078.166-.01.166-.011.016-.072-.21-.085-.283-.298-.127-.371.091-.042.099-.065.034-.096a1.486 1.486 0 0 1-.152-.087 10.752 10.752 0 0 0-.102-.069c-.02-.013.018-.072.085-.132.093-.083.096-.151.016-.295-.076-.135-.075-.193.004-.21.06-.012.186-.204.28-.427.097-.231.134-.398.087-.389-.047.01-.017-.122.07-.307.085-.18.123-.319.085-.311-.037.008.01-.146.106-.34.1-.203.145-.366.105-.38-.09-.034-.003-.279.109-.305.101-.023.364-.608.287-.636-.064-.023.008-.166.131-.263.05-.038.079-.147.066-.242-.035-.246.06-.46.205-.462.096-.002.16-.114.28-.488.085-.267.164-.441.175-.387.024.117.207.093.251-.032.02-.054-.015-.057-.089-.006-.099.067-.103.061-.026-.038.05-.065.099-.135.106-.154.007-.02.045.005.084.054.049.06.054.037.016-.073-.049-.144-.034-.154.138-.09.134.048.207.03.24-.059.042-.11.053-.108.08.008.024.11.046.101.11-.043l.174-.391c.052-.117.136-.21.188-.21.052.002.112-.044.133-.101.021-.057.06-.089.088-.07a.65.65 0 0 0 .24.04c.162.003.182-.019.137-.15-.045-.13-.036-.139.059-.057.065.056.123.06.141.011.017-.045.044-.054.06-.02.044.095.365.03.345-.07-.01-.047.017-.073.058-.058.042.016.075-.029.074-.098-.003-.15.109-.125.187.043.043.094.065.095.098.004.033-.09.097-.089.28.008.292.153.383.091.544-.369.097-.278.15-.346.269-.334.091.008.142.064.135.146-.01.116-.005.117.043.007.03-.07.105-.107.166-.085.06.022.124.003.14-.043.023-.06.049-.051.1.036.037.065.093.106.124.092.03-.015.298.062.595.171.65.238.964.298.98.185.006-.045.058-.083.116-.083.064 0 .073.035.022.093-.045.052-.05.135-.01.185.04.052.098.059.132.015.08-.1.255-.032.26.102.002.079.033.085.122.023.105-.073.114-.07.08.03-.031.09-.02.096.061.034.163-.125.145.056-.051.517-.213.5-.16.866.128.893.092.01.148.052.13.101-.02.058-.002.067.053.028.112-.079.436.026.518.168.037.064.097.102.132.086.036-.017.02-.053-.035-.08-.055-.028.106.002.357.067.584.152 1.743.623 1.671.68-.03.024-.008.06.049.081.057.021.095-.003.085-.052-.012-.058.025-.05.1.02.066.06.254.15.419.201l.524.162c.123.038.484.195.802.347.379.182.695.288.915.307.25.022.353.06.406.15.044.077.22.159.474.222.223.055 1.098.355 1.945.668.848.312 1.584.579 1.636.593.179.048.431.143 2.577.977 1.45.563 2.124.798 2.068.721-.068-.093-.052-.102.087-.053.094.034.137.086.097.118-.04.031-.04.069 0 .083.039.014.106-.008.148-.05.052-.052.08-.046.086.018.006.06.133.119.353.163.188.039.324.085.3.103-.023.019.352.177.833.353.48.176.883.296.893.267.01-.03.382.081.826.246.443.165.795.33.782.367-.035.094.317.211.41.137.043-.033.125-.02.182.031.207.185 1.373.637 1.512.587.09-.031.157-.012.2.058.087.14 2.59 1.056 2.625.96.015-.04.09.013.166.116.112.151.147.168.177.086.044-.12.399.06.438.222.017.07.035.072.06.009.026-.071.353.025 1.412.416.757.28 1.442.508 1.521.506.08-.001.134.026.121.06-.012.036.599.284 1.36.554.913.324 1.323.495 1.209.506-.136.013-.122.024.064.052.13.02.484.113.788.206.303.093.62.172.705.176.084.004.181.042.216.086.06.077 1.102.492 1.266.504.19.015 6.063 2.219 6.014 2.258-.067.052 3.531 1.375 3.66 1.345.05-.012.245.069.433.18.188.112.588.269.891.35.34.09.54.173.524.217-.014.04.023.09.084.112.06.022.12.013.132-.021.013-.034.09-.038.17-.008.08.03.136.085.122.122-.015.041.072.076.217.086.133.01.249.048.257.086.007.037 1.918.765 4.245 1.617 2.702.99 4.205 1.51 4.159 1.443-.05-.074-.034-.074.056 0 .237.197 2.262.974 2.405.923.095-.034.137-.02.152.052.014.07.065.083.173.046.122-.042.134-.037.062.021-.073.059.071.131.683.346.427.15.803.307.837.35.033.042.071.05.083.018.012-.033.828.245 1.813.617 1.404.53 1.802.658 1.834.588l.107-.234c.041-.091.117-.124.209-.09.131.047.169-.01.426-.638.154-.38.309-.69.344-.69.034 0 .082-.095.107-.212.042-.203.432-.508.546-.428.026.018.069-.072.095-.2.039-.187.082-.23.22-.217.094.01.185-.02.202-.067.017-.045.046-.021.063.054.016.075.041.11.054.076.013-.033.057.014.099.104.041.09.124.163.184.162.06-.001.133.067.163.151.042.121.032.153-.049.151-.057-.001-.115.03-.13.07-.014.04.018.062.071.051.065-.013.053.07-.038.253-.086.175-.112.332-.073.438.039.104.022.207-.043.276-.203.214-.302.58-.181.674.062.048.087.16.056.249-.042.116-.031.14.04.085.079-.06.098-.05.1.058.001.073-.027.122-.061.11-.156-.057-.218.187-.112.438.064.15.098.206.077.125-.039-.146.033-.23.158-.184.036.013.036.047-.001.077-.037.029-.042.086-.01.126.032.04.073.033.091-.016.018-.05.046-.062.063-.026.016.035-.027.098-.097.138-.097.057-.11.094-.057.16.039.05.131.045.217-.012.132-.089.143-.086.103.025-.047.129.121.23.375.225.111-.002.124-.022.065-.098-.062-.08-.052-.106.061-.154.113-.048.119-.042.036.03-.061.055-.015.056.118.004.146-.056.228-.145.248-.268.022-.133.054-.163.117-.109.049.043.103.03.126-.032.021-.06.077-.085.123-.057.045.028.122-.02.169-.105.077-.14.167-.165.316-.083.028.016.199.004.381-.026.212-.035.33-.021.328.037-.004.133.111.153.144.025.016-.06.065-.106.109-.101a.522.522 0 0 0 .216-.054c.115-.054.146-.037.197.107.057.164.06.165.066.019.005-.116.031-.132.107-.066a.723.723 0 0 0 .185.119c.046.017-.009.055-.122.085-.113.03-.218.095-.235.144-.016.049.025.043.092-.013a.305.305 0 0 1 .27-.047c.081.03.141.023.134-.014-.035-.168.379.066.454.258.045.115.077.165.071.11-.006-.054.063-.091.153-.083.136.013.146.04.06.159-.074.103-.073.122.004.067.059-.041.136-.04.171.005.036.046.081.03.105-.035.023-.063.077-.102.119-.086.043.016.04.058-.006.095-.056.044-.04.066.048.065.2-.004.271.263.105.392-.114.09-.109.105.045.12.168.016.168.02.001.099-.097.045-.184.102-.193.128-.009.025.037.02.103-.01.159-.074.213-.049.301.14.048.105.084.128.106.07.018-.05-.009-.156-.06-.237-.086-.139-.085-.142.026-.05.153.125.153.42.002.558-.095.086-.091.128.018.204.076.053.128.124.115.159-.013.034.034.061.103.06.069-.001.113.031.098.072-.014.04-.08.074-.146.075-.113.002-.171.174-.166.496.001.07 0 .153-.003.187a2.482 2.482 0 0 0-.007.122.295.295 0 0 1-.031.114c-.016.029.008.066.052.082.048.017.041.075-.017.14-.212.237-.256.407-.109.42.099.01.123.053.08.146-.039.084-.018.135.06.142.353.034.534.263.465.586-.032.15.004.203.18.268.186.069.208.107.14.244-.044.09-.041.154.006.145.047-.01.096.062.11.16.014.097.05.182.081.189.149.03.182.087.065.113-.105.023-.098.061.036.194.095.093.136.2.096.247-.039.045-.043.117-.008.162.038.048.055.039.042-.023-.013-.067.014-.073.079-.016.077.067.072.103-.022.157-.097.057-.092.082.019.123a.39.39 0 0 1 .197.172c.062.134.036.28-.035.19-.024-.03-.068.01-.098.09-.05.138-.044.141.087.053.077-.052.145-.076.151-.055.005.022.034.123.064.226.048.168.045.174-.03.053-.046-.074-.113-.12-.149-.104-.036.017-.016.1.044.187a.417.417 0 0 1 .044.334c-.044.12-.028.177.049.175.152-.002.154.28.003.316-.091.022-.095.056-.017.151.056.068.089.157.074.197-.015.041-.057.037-.093-.009-.041-.052-.057-.044-.044.022.012.058.051.1.087.092.037-.007.102.036.147.096.068.092.052.119-.109.173-.188.064-.188.065-.011.086.124.015.168.055.14.13-.021.059-.059.082-.084.05-.024-.03-.082.03-.127.137-.073.168-.068.177.034.069.086-.091.081-.021-.02.266-.096.275-.109.416-.042.473.052.046.067.104.034.13-.032.026-.032.082.001.124.042.053.017.103-.078.16-.119.071-.117.083.02.081.134-.001.138.01.024.077-.11.064-.113.085-.019.12.063.023.125.089.136.146.015.072-.023.073-.121.005-.079-.054-.155-.069-.168-.032-.013.036.01.079.052.094.045.017.02.138-.062.3a.995.995 0 0 0-.108.512c.017.132.002.263-.034.291-.035.028-.022.068.031.089.062.024.035.055-.075.09-.095.029-.145.083-.114.122.03.04.087.035.126-.008.092-.102.034.077-.573 1.793-.305.861-.531 1.412-.573 1.397-.039-.014-.025.05.03.142.055.093.064.129.019.08a.13.13 0 0 0-.171-.018c-.113.09-.145.38-.038.357.143-.03-.009.236-.191.332-.113.06-.203.189-.248.354-.06.22-.094.252-.223.205-.104-.038-.17-.008-.206.091-.03.081-.087.136-.128.12-.04-.014-.103.055-.139.154-.036.099-.106.188-.156.198-.049.01-.102.052-.117.092-.014.04.014.066.064.055.049-.01.076.019.059.064-.018.05-.082.043-.16-.017-.074-.058-.142-.067-.158-.022-.016.043-.093.055-.172.027-.078-.029-.18-.023-.226.013-.049.04-.044.058.015.046.053-.011.106.021.116.071.011.05-.031.074-.091.052-.061-.022-.142-.015-.182.016-.042.034-.011.057.079.057.082 0 .119.017.081.037-.115.062-.352-.015-.378-.122-.016-.068-.036-.069-.062 0-.031.081-.053.075-.116-.034-.066-.113-.077-.11-.075.017.001.106-.019.126-.066.066-.038-.05-.194-.04-.362.021-.162.06-.318.078-.347.041-.1-.128-.37-.087-.368.056.002.12.016.121.109.015.101-.114.105-.113.063.016-.026.08-.115.13-.212.122-.128-.012-.15.007-.093.082.057.075.043.087-.058.05-.086-.03-.126-.007-.113.065.011.061-.027.026-.083-.078-.063-.114-.132-.166-.176-.132-.04.032-.133.021-.207-.023-.073-.044-.138-.056-.145-.027-.062.295-.367.44-.416.199-.017-.084-.053-.078-.131.023-.097.126-.194.144-.339.064-.08-.045-.11.1-.039.19.043.056.025.088-.06.105-.067.014-.137.068-.157.12a.1.1 0 0 1-.129.06c-.052-.019-.137 0-.19.041-.053.042-.155.042-.226.001-.08-.045-.147-.032-.173.035-.063.164-.219.263-.284.18-.034-.043-.074.001-.097.11-.028.133-.072.167-.161.127-.067-.031-.127-.034-.133-.007a2.573 2.573 0 0 1-.091.237c-.066.159-.108.175-.259.1-.106-.052-.213-.052-.259 0-.042.05-.1.06-.128.025-.028-.036-.064-.03-.08.013-.036.1.059.135.193.073.071-.034.091-.013.062.064-.022.062-.051.09-.064.063-.013-.027-.12.027-.238.122-.117.094-.251.158-.296.141-.046-.016-.082.026-.081.094.001.067-.038.131-.088.141-.049.01-.093.09-.096.176-.004.087-.042.145-.083.13-.042-.015-.076.025-.075.09.001.064-.041.126-.094.137-.053.01-.131.108-.174.216-.074.19-.077.19-.082.007-.004-.105-.026-.197-.05-.206-.024-.009-.034.027-.023.08.01.053-.049.134-.132.181-.271.153-.313.22-.239.38.068.146.063.156-.05.115-.105-.04-.134.007-.197.314s-.089.348-.172.275c-.141-.123-.25-.003-.164.182.04.086.03.26-.023.387l-.095.23.046-.275.045-.275-.15.237c-.267.418-.639 1.364-.527 1.34.054-.01.07.003.034.032-.036.028-.183.3-.326.603-.238.507-.249.556-.125.607.13.053.13.055-.021.059-.142.003-.148.016-.072.146.047.081.044.192-.007.259-.056.072-.05.163.014.241.092.111.083.118-.083.065l-.186-.06.136.14c.158.163.148.249-.029.252-.069.001-.141.044-.159.097-.024.066 0 .069.078.01.089-.067.104-.063.075.018-.019.056.01.186.067.288l.103.185-.196.053c-.137.036-.17.073-.111.119.066.053.052.101-.068.222-.131.134-.138.193-.051.426.067.179.068.291.002.329-.06.035-.089.111-.072.19a.448.448 0 0 1-.075.282c-.069.101-.07.179-.002.237.077.068.071.114-.026.201-.07.062-.096.123-.059.136.037.014.027.132-.021.264-.176.479-.188.578-.079.618.06.022.093.087.072.144-.021.058-.006.13.033.161.051.041.021.127-.104.303-.177.248-.165.397.029.357.07-.014.077-.049.024-.117-.041-.052-.042-.111-.003-.129.04-.019.084-.009.099.022.046.101-.154.76-.223.734-.037-.013-.026-.094.024-.178.085-.143.083-.146-.029-.032-.089.089-.099.159-.038.257.075.122.071.13-.044.088-.105-.038-.117-.022-.07.091.041.099.081.119.142.073.054-.041.068-.018.038.065-.025.071-.079.117-.119.102-.04-.015-.086.008-.102.051s.012.07.06.06c.056-.012.027.107-.078.321-.121.246-.135.317-.051.257.099-.071.12-.064.145.045.016.071-.022.188-.084.261a.729.729 0 0 0-.129.358 7.875 7.875 0 0 1-.022.263c-.013.08-.019.336-.013.53.005.141-.025.21-.096.224-.136.028-.161.114-.069.234.061.079.054.091-.036.062-.061-.02-.019.052.094.159.184.176.194.224.091.469-.063.15-.113.291-.112.314 0 .024-.035.18-.078.348-.044.167-.109.425-.145.573-.036.147-.089.353-.119.457-.05.174-.045.179.063.065.104-.11.109-.101.048.08-.038.112-.107.19-.153.173-.047-.017-.036.057.023.165.112.202.075.422-.123.732-.064.1-.092.213-.062.252.03.038.022.107-.019.154-.04.047-.043.152-.005.233.042.09.017.289-.063.507-.072.198-.099.384-.061.415.038.03.053.102.032.16-.021.057-.014.113.017.124.03.011-.017.191-.104.4-.109.262-.123.342-.043.256a.44.44 0 0 0 .116-.247c-.001-.108.008-.105.075.027.047.092.041.158-.014.17-.055.012-.057.05-.005.096.05.045.049.066-.002.051-.05-.014-.097.051-.111.154-.02.149-.032.155-.07.037-.038-.116-.05-.106-.071.057-.014.11-.04.24-.057.29-.017.05.021.089.085.088.065-.001.126.042.137.094.018.087-.089.094-.231.015-.028-.016-.064.004-.078.045-.015.04.022.092.083.114a.12.12 0 0 1 .068.155c-.025.067-.073.082-.117.034-.041-.044-.041-.018 0 .058.086.158.038.344-.101.39-.053.018-.026.046.06.064.114.023.135.066.082.16-.04.07-.04.12 0 .112.041-.008.04.078-.002.192-.041.113-.091.187-.11.162-.019-.024-.056.107-.082.291a6.896 6.896 0 0 1-.072.431c-.013.052.012.108.056.124.044.017.096.107.116.201.032.15.019.159-.104.073-.113-.078-.14-.068-.138.049a.822.822 0 0 1-.015.196c-.009.027.034.012.095-.035.094-.07.104-.062.062.055a.369.369 0 0 0 .043.283c.085.131.08.135-.056.042-.108-.073-.162-.07-.192.012-.072.198-.04.555.048.537.115-.024-.034.303-.152.333-.058.015-.056.113.005.256.083.195.075.267-.053.443-.099.136-.133.236-.096.283.032.041.019.13-.029.199-.121.174-.008.195.169.032.13-.12.131-.11.01.097-.094.161-.105.226-.036.212.055-.012.087.014.071.057a.085.085 0 0 1-.11.048c-.047-.017-.089.042-.098.136-.013.136-.029.143-.089.041-.04-.069-.082-.096-.095-.06a.24.24 0 0 0 .141.291c.06.022.094.109.074.194l-.035.154-.014-.172c-.013-.161-.019-.16-.095.007a1.7 1.7 0 0 0-.093.247c-.006.038-.054.22-.105.404-.111.396-.09.472.107.402.121-.044.138-.03.098.079-.027.073-.062.102-.079.066-.057-.124-.288.025-.364.235-.061.167-.047.211.067.215.106.005.111.015.021.04-.067.019-.19.175-.273.347-.083.171-.209.416-.281.543-.094.166-.102.225-.027.21.076-.016.072.009-.016.09-.067.062-.122.16-.122.219 0 .058-.059.14-.13.182-.075.044-.098.086-.054.102.097.036.062.356-.058.529-.096.138-.194.125-1.039-.144-.355-.112-.506-.081-.383.079.07.09.061.1-.048.061-.072-.025-.132-.095-.133-.154-.002-.157-.345-.297-.394-.161-.022.06-.07.098-.106.085-.036-.013-.106.023-.156.08-.072.083-.063.094.042.057.107-.039.116-.008.046.164-.055.133-.106.179-.138.124-.032-.055-.08-.011-.13.118-.053.138-.043.205.03.203.06-.001.095.035.078.08-.016.045-.062.07-.103.055-.04-.015-.086.008-.102.051s.022.068.083.057c.062-.011-.025.039-.193.112-.168.073-.333.165-.366.204-.034.039-.152.065-.264.058-.196-.012-.197-.015-.017-.071.17-.053.104-.089-.737-.4-.509-.187-.967-.368-1.019-.4-.051-.032-.1-.017-.108.034-.011.066-.062.042-.175-.082-.14-.153-.182-.166-.335-.103-.097.039-.162.035-.146-.01.02-.053-.17-.152-.542-.282-.314-.111-.656-.254-.76-.319-.109-.068-.18-.082-.17-.033.02.097-.317-.008-.366-.113-.017-.039-.344-.187-.726-.329-.645-.241-.74-.248-.777-.059-.007.032-.035.045-.064.03-.148-.083-.246-.066-.287.05-.036.1-.024.112.052.054.072-.056.09-.021.065.128-.026.16-.047.18-.098.093-.047-.079-.09-.092-.152-.043-.053.041-.05.061.01.048.056-.011.083.077.064.218-.035.257-.15.397-.237.287-.072-.091-.101.116-.032.221.03.045-.039.048-.153.007-.118-.043-.198-.036-.188.016.01.049-.02.076-.067.059-.054-.02-.094.04-.106.16-.02.192-.245.349-.307.215-.061-.133-.315-.196-.354-.089-.03.082-.055.079-.109-.013-.053-.091-.1-.103-.194-.048-.096.056-.106.089-.044.146.045.04.006.048-.086.018-.092-.03-.155-.088-.14-.128v-.001zm.17-1.521c-.025-.055-.225.087-.264.188-.014.038.044.022.13-.036.086-.057.147-.126.134-.152zm.098-.008c.08.029.158.094.172.143.013.049.092.012.174-.082.082-.095.192-.159.244-.143.053.016.034-.034-.04-.111-.075-.078-.126-.169-.114-.203.032-.086.157-.032.18.078.026.13.169.165.169.041 0-.057-.04-.109-.09-.116-.049-.006-.078-.043-.064-.08.015-.041-.073-.076-.22-.086-.15-.011-.219-.038-.177-.071.037-.029.032-.066-.01-.082a.086.086 0 0 0-.108.054c-.019.051-.095.037-.202-.036-.13-.088-.167-.089-.15-.001.017.091.006.089-.054-.012-.05-.082-.123-.117-.21-.098-.107.023-.104.039.014.085.108.041.115.062.025.082-.097.021-.1.043-.02.114.055.048.082.128.06.179-.032.072-.042.069-.044-.013-.002-.058-.038-.118-.08-.134-.046-.017-.056.029-.025.116.028.079.096.161.152.181.056.02.088.072.073.115-.017.045.02.067.085.052a.553.553 0 0 1 .26.028zm-7.708-5.441c.206-.01.206-.011-.016-.073-.16-.045-.249-.023-.303.076-.05.09-.044.115.017.072a.71.71 0 0 1 .302-.075zm-.166-.234a.078.078 0 1 0-.147-.053.078.078 0 1 0 .147.053zm19.222 6.471c-.001-.062-.011-.116-.023-.12-.011-.004-.054.031-.094.077s-.03.1.022.12c.053.019.096-.016.095-.077zm1.356-4.305c-.002-.067-.026-.056-.061.028-.031.077-.03.127.003.111.034-.015.059-.078.058-.139zm.174-1.089c.015-.04-.008-.086-.05-.102-.043-.015-.07.012-.06.062.01.05.033.096.051.102.018.007.045-.021.059-.062zm1.07-8.163c.022-.061.008-.122-.031-.136-.039-.015-.07.03-.069.099.001.07.015.131.03.137.016.006.048-.039.07-.1zm1.02-7.347c.015-.04-.024-.092-.087-.115-.063-.023-.107-.001-.096.048.01.05.049.102.087.116.038.014.081-.008.096-.049zM80.279 94.57c-.016-.033-.078-.06-.139-.057-.067.002-.056.026.028.06.076.032.126.03.11-.003zm-.35-.258a.15.15 0 0 0-.084-.1c-.038-.014-.08.002-.092.036-.012.033.026.078.085.1.059.022.1.005.091-.036zm-7.483-4.9c.014-.037.074-.048.135-.026.06.022.096.077.08.123-.018.047.041.089.14.098a.683.683 0 0 1 .32.147c.128.111.16.109.204-.014.04-.108.107-.128.259-.08.126.04.16.034.089-.016-.064-.044-.105-.113-.09-.153.014-.04.052-.04.084 0 .06.078.139.008.298-.266.054-.095.109-.179.12-.186a.344.344 0 0 0 .062-.096c.023-.045.092-.08.155-.079.063.002.083.028.045.058-.038.03-.02.073.04.095.06.022.12-.015.133-.083a.373.373 0 0 1 .115-.195c.05-.039.063-.081.028-.094-.035-.013-.12.003-.19.035-.1.047-.106.037-.03-.052.053-.061.141-.095.196-.075.054.02.212-.017.35-.08.23-.108.239-.122.107-.17-.15-.055-.155-.178-.01-.209.047-.01.094.03.106.088.016.075.064.078.165.01.089-.06.184-.06.25-.003.088.077.098.069.056-.049-.028-.078-.016-.168.025-.201.042-.033.035-.075-.014-.093-.114-.041.03-.113.147-.074a.219.219 0 0 1 .118.127c.018.054.04.011.047-.095.01-.14.033-.169.084-.105.05.064.07.037.077-.1.006-.15.028-.169.11-.097.059.051.117.052.139 0 .18-.428.366-.787.421-.811.037-.016.004.104-.074.268-.11.233-.114.288-.02.254.067-.023.113-.08.104-.123-.009-.045.032-.144.09-.22.084-.108.113-.111.134-.013.029.134.044.116.212-.245.058-.128.077-.243.04-.256-.112-.041.026-.304.16-.306a.193.193 0 0 0 .167-.115c.023-.062.075-.1.116-.085.043.016.084-.058.096-.175.012-.11.067-.232.121-.268.055-.037.179-.301.276-.587.26-.773.265-.795.155-.772-.067.014-.064-.025.007-.118.062-.08.075-.15.031-.166-.042-.015-.042-.067 0-.115a.115.115 0 0 0-.011-.162c-.061-.053-.038-.19.08-.47.115-.272.148-.453.105-.576-.034-.1-.057-.138-.052-.086.006.052-.038.076-.097.055-.158-.058-.081-.178.103-.16.095.008.151-.028.139-.088a.576.576 0 0 1-.008-.181c.008-.043.03-.185.05-.316.02-.13.04-.188.046-.129.014.155.102.166.176.023.252-.491.316-.663.271-.721-.074-.094.347-.42.439-.34.041.035.139.028.216-.018.124-.074.118-.086-.056-.103-.108-.01-.23-.074-.269-.142-.078-.135-3.361-1.35-4.268-1.58a11.858 11.858 0 0 1-.77-.22c-.161-.056-.266-.059-.255-.006.01.054-.053.046-.164-.02-.155-.093-.174-.088-.13.036.044.124.03.128-.102.026-.106-.082-.147-.088-.133-.02.011.056-.013.089-.053.074s-.082-.068-.092-.117c-.01-.05-.085-.115-.165-.144-.081-.03-.14-.018-.131.026.009.044-.056.073-.144.065-.106-.01-.133-.038-.081-.083.05-.042.03-.047-.054-.012a.427.427 0 0 1-.27.006c-.103-.038-.139-.01-.144.114-.006.127-.04.152-.155.11-.08-.03-.175-.031-.21-.004-.034.027-.136.018-.226-.02-.12-.052-.192-.026-.266.096-.073.117-.178.159-.36.141-.216-.02-.72.21-.702.321.003.02-.016-.021-.043-.09-.038-.1-.073-.09-.165.046-.064.095-.138.145-.165.111-.059-.075-.312.324-.287.45.01.05-.037.027-.107-.052-.07-.078-.131-.113-.138-.08-.038.206-.148.32-.314.325-.105.003-.15.023-.1.044.05.021.053.115.008.212-.061.133-.096.148-.146.063-.036-.062-.036-.135 0-.163.034-.028.028-.063-.015-.079-.096-.035-.114.01-.085.216.016.115-.015.174-.11.208-.072.026-.142.126-.155.223-.018.13-.033.143-.059.049-.024-.09-.106.02-.278.378-.235.485-.466.726-.352.366.054-.169.053-.169-.064-.007-.066.09-.142.294-.17.453a3.278 3.278 0 0 1-.15.54c-.076.188-.071.25.017.249.083-.002.09.02.021.075a.877.877 0 0 0-.186.28c-.066.153-.055.215.047.252.086.031.116.103.081.197-.03.08-.086.135-.127.12-.118-.043-.134.105-.034.321.051.11.064.28.028.378-.053.145-.033.18.11.194.118.011.146.037.089.082-.046.037-.052.078-.013.092.04.015.035.102-.01.194-.067.134-.053.17.072.182.121.011.138.045.076.156-.046.082-.029.27.042.45.068.17.088.35.045.4-.1.115.132.394.252.3.045-.035.13-.023.187.027.058.05.075.115.039.144-.036.029-.094.017-.128-.027-.038-.048-.053-.036-.039.032.013.06.078.11.144.108.067 0 .091.022.054.052-.086.067.1.276.277.31.159.03.239.222.18.432-.024.083-.016.146.019.139.034-.007.062.037.063.097.001.064.1.138.236.177.134.04.22.104.203.153-.017.049.015.05.076.004.087-.068.119-.058.186.057.044.076.09.114.1.084.011-.03.055.004.096.076.042.072.048.153.012.181-.096.076.043.105.195.041.108-.045.115-.035.038.059-.084.103-.044.131.404.285.625.214.667.236.518.268-.097.021-.1.044-.017.117.056.05.096.054.087.01-.01-.044.042-.08.113-.082.075-.001.099.022.057.055-.046.037.057.093.282.154.404.111.633.247.54.32-.035.027-.005.049.067.048.071-.002.14-.032.153-.068zm1.196-.045c-.06-.079-.05-.098.058-.1.083-.001.118.037.093.106-.046.125-.05.125-.151-.006zm.207-.275a.133.133 0 0 1 .07-.14c.054-.025.069.017.037.104-.061.167-.079.173-.107.036zm-6.124-6.238c-.01-.05.017-.077.06-.061.042.015.065.061.05.102-.014.04-.041.068-.059.061-.018-.006-.04-.052-.05-.102zm.338-1.377c-.01-.052.024-.053.08-.004.11.095.113.157.007.118-.038-.014-.077-.065-.087-.114zm10.757-.374c.035-.084.059-.095.061-.028.002.06-.024.123-.057.139-.034.015-.035-.034-.004-.11zm.186.058c-.001-.12.01-.125.056-.026.032.068.033.135.002.15-.03.014-.057-.041-.058-.124zm-3.96-2.428c.021-.06.06-.08.087-.046.027.034.018.085-.019.114-.094.075-.113.056-.068-.069zm.394.04a.64.64 0 0 1 .257.095c.064.044 0 .038-.14-.014-.142-.051-.194-.088-.117-.08zM74.572 90.2c.015-.039-.03-.07-.1-.069-.068.001-.13.015-.135.031-.006.016.039.047.1.07.06.022.121.008.135-.032zm2.014.671c.134-.083.132-.087-.018-.038-.09.03-.17.067-.175.082-.023.06.052.044.193-.044zm.686.142c.014-.038-.023-.087-.082-.109-.066-.024-.107.01-.106.086.002.13.143.146.188.023zm.375.17a.301.301 0 0 0-.183-.067c-.058.002-.023.034.078.07.101.038.148.036.105-.003zm-7.713-3.098c.015-.04.013-.079-.005-.085-.018-.007-.065.013-.105.045-.04.031-.037.07.006.085a.081.081 0 0 0 .104-.045zm35.897 8.616a.082.082 0 0 0-.051-.102c-.043-.016-.07.012-.06.061.011.05.033.096.051.102.018.007.045-.02.06-.061zM94.16 86.722c.006-.017-.014-.065-.045-.104-.032-.04-.07-.038-.086.005-.015.043.005.09.045.105s.079.012.086-.006zm-28.416-11.77c.014-.04-.032-.093-.103-.119-.11-.039-.116-.03-.044.066.105.14.114.144.147.054zM36.027 55.579c.015-.04.013-.08-.005-.086-.018-.006-.065.014-.105.045-.04.032-.037.07.005.086.043.015.09-.005.105-.045zm34.447 4.442a.448.448 0 0 0-.219-.083c-.078-.008-.044.024.077.07.12.046.185.052.142.013zm9.14 3.345c-.016-.033-.079-.059-.14-.057-.067.002-.055.026.029.06.076.032.126.03.11-.003zm1.324.474a2.913 2.913 0 0 0-.514-.187c-.136-.031-.016.027.267.13.282.103.394.129.247.057zm.736.273a.85.85 0 0 0-.293-.109c-.098-.016-.046.02.115.08.162.06.242.073.178.029zm.698.257a.446.446 0 0 0-.22-.083c-.078-.007-.043.024.077.07.12.046.185.052.142.013zm1.689.614a1.115 1.115 0 0 0-.33-.121c-.098-.016-.03.026.153.092.181.067.261.08.177.029zm25.711 6.069c-.016-.034-.078-.06-.139-.057-.067.002-.056.025.028.06.076.032.126.03.111-.003zm-23.085 54.103c.025-.068.085-.133.135-.143.114-.024.078.074-.067.184-.097.073-.106.067-.068-.041zm-6.264-6.078c.035-.084.058-.095.06-.028.002.061-.024.123-.057.139-.033.015-.035-.034-.003-.111zm21.295.485c.016-.043.054-.046.086-.006.031.04.051.087.045.105-.007.018-.045.02-.086.006-.04-.015-.06-.062-.045-.105zm.512-2.729c.037-.102.069-.137.07-.079a.301.301 0 0 1-.067.184c-.039.043-.04-.004-.003-.105zm-20.296-8.171c.04-.031.087-.051.105-.045.017.007.02.045.005.085-.015.041-.062.061-.105.046-.042-.016-.045-.054-.005-.086zm21.183 1.853c.035-.084.059-.095.061-.028.002.061-.024.124-.058.139-.033.016-.034-.034-.003-.111zm.761-6.6c.051-.141.088-.194.08-.116a.644.644 0 0 1-.094.257c-.044.065-.038.001.014-.141zm-.016-.548c-.001-.069.03-.114.069-.1.039.015.053.076.031.137-.022.06-.053.105-.069.1-.016-.006-.03-.068-.031-.137zm.267-.612c.037-.101.069-.136.071-.078a.308.308 0 0 1-.068.184c-.039.043-.04-.004-.003-.106zM71.648 90.74a.64.64 0 0 1 .258.094c.063.045 0 .039-.141-.013-.142-.052-.194-.088-.117-.08zm32.424 11.591c-.008-.041.032-.058.089-.037.057.021.076.059.043.085-.033.026-.073.043-.088.037-.016-.005-.035-.044-.044-.085zm1.083-3.958c.052-.142.088-.194.081-.116a.66.66 0 0 1-.094.257c-.045.065-.039.001.013-.14zM66.21 82.217c-.01-.05.033-.071.096-.048.063.023.102.075.088.115-.015.04-.058.062-.096.048-.038-.013-.078-.066-.088-.115zm41.255 12.745c-.071-.096-.065-.105.045-.066.071.025.117.079.102.12-.033.089-.041.086-.147-.055zm1.788-1.322a.212.212 0 0 1-.003-.143c.016-.046.049-.03.082.043.031.065.032.13.004.143-.029.013-.066-.006-.083-.043zM65.015 74.668c.011-.031.069-.04.127-.019.058.022.112.07.12.11.008.039-.049.047-.127.019s-.132-.078-.12-.11zm-.38-.195c-.01-.044.057-.073.147-.064.136.013.143.028.04.088-.146.086-.166.083-.188-.024zm-29.9-11.94a.079.079 0 0 1 .1-.048.079.079 0 0 1-.054.148.079.079 0 0 1-.046-.1zm-.41-1.157c.03-.083.08-.12.11-.082.03.038.017.11-.027.162-.114.13-.148.098-.083-.08zm81.122 29.743c-.051-.067-.049-.099.004-.08a.182.182 0 0 1 .106.12c.023.113-.002.103-.11-.04zm.911-1.914c-.009-.046.018-.091.06-.1.042-.008.059.033.037.092-.045.124-.072.126-.097.008zm.925-3.335c.065-.178.112-.18.115-.007.001.068-.037.131-.085.14-.047.01-.061-.05-.03-.133zm-81.32-31.109c.046-.052.096-.09.112-.084.016.005.01.06-.011.12-.023.061-.073.1-.112.085-.039-.014-.034-.069.012-.12zm81.547 29.393c.046-.121.077-.156.07-.077a.447.447 0 0 1-.084.22c-.038.042-.032-.022.014-.143zM92.276 67.961c-.067-.09-.05-.1.086-.05.095.033.138.085.098.117-.087.069-.08.072-.184-.067zm.593.16c.06-.002.123.023.138.057.016.033-.034.035-.11.003-.085-.035-.096-.058-.029-.06zM51.24 52.793c.04-.031.103-.045.141-.032.038.014.057.059.042.1-.014.04-.078.054-.141.031-.063-.023-.082-.067-.042-.099zm-6.463-2.503c-.05-.142-.042-.15.06-.062a.84.84 0 0 0 .184.125c.037.013.055.058.04.098-.043.117-.224.015-.284-.161zm1.459.535a.302.302 0 0 1 .183.067c.043.04-.004.04-.105.004-.101-.037-.136-.069-.078-.07zm-1.453-.981c.016-.043.055-.046.086-.006.031.04.051.087.045.105-.007.018-.045.02-.085.006-.04-.015-.061-.062-.045-.105zm65.338 23.368l-.08-.217.114.2c.063.111.11.213.105.227-.022.059-.065-.006-.139-.21zM42.802 48.15a.3.3 0 0 1 .183.067c.043.039-.004.04-.105.003-.101-.036-.136-.068-.078-.07z" fill="#000"/><path fill-rule="evenodd" clip-rule="evenodd" d="M80 160.152c44.183 0 80-35.818 80-80 0-44.183-35.817-80-80-80s-80 35.817-80 80c0 44.182 35.817 80 80 80zm70-80c0 38.66-31.34 70-70 70-18.216 0-34.807-6.959-47.26-18.362l98.898-98.899C143.042 45.344 150 61.935 150 80.151zm-22.599-51.51l-98.91 98.911C17.011 115.084 10 98.437 10 80.152c0-38.66 31.34-70 70-70 18.285 0 34.933 7.01 47.401 18.49z" fill="#E24A4A"/></svg>