<svg width="160" height="161" fill="none" xmlns="http://www.w3.org/2000/svg"><path d="M90.153 140.739c11.297-4.225 20.455-10.93 25.721-18.83 7.121-10.685 8.059-24.507 2.682-39.507-1.235-3.445-1.124-3.485-1.972.704-.369 1.823-2.587 4.238-3.891 4.238-4.16 0-5.03-2.04-5.369-12.578-.353-10.969-1.197-15.867-3.593-20.85-1.414-2.94-2.673-4.712-4.666-6.568-1.501-1.398-2.802-2.467-2.891-2.376-.09.09.265 1.565.788 3.276.523 1.711.95 4.332.95 5.823 0 2.338-.195 2.91-1.417 4.156-3.27 3.331-7.244.577-10.944-7.583-4.372-9.642-5.236-22.206-2-29.095.619-1.319.966-2.397.77-2.397-.195 0-1.908 1.465-3.807 3.256-3.706 3.496-7.985 9.598-10.047 14.327-3.257 7.469-4.66 17.834-3.599 26.593.702 5.796.268 8.176-1.734 9.513-1.058.706-1.28.707-2.316.015-.985-.658-1.182-1.274-1.394-4.38-.367-5.367-1.906-8.966-5.32-12.444-1.568-1.598-2.943-2.813-3.055-2.698-.112.114.134 1.308.546 2.655 2.016 6.584-.722 18.017-7.165 29.915-1.288 2.38-3.04 6.402-3.892 8.937-1.41 4.194-1.548 5.144-1.537 10.539.013 6.807 1.076 10.975 4.292 16.834 2.178 3.969 8.1 10.441 12.067 13.188 3.177 2.201 9.722 5.434 12.61 6.23l1.885.52-3.878-4.056c-6.345-6.633-8.972-11.647-8.993-17.161-.02-5.376 1.682-8.428 10.053-18.025 8.77-10.054 10.931-14.334 10.931-21.645 0-2.232-.207-4.794-.46-5.693-.597-2.121-.088-1.876 2.383 1.148 2.311 2.828 5.953 10.225 6.773 13.76 1.003 4.319 1.138 9.718.364 14.52-.764 4.738-.566 6.883.711 7.704 2.07 1.331 6.03-1.833 7.393-5.907.43-1.284.78-3.895.78-5.804 0-4.202.44-3.922 2.23 1.423 1.099 3.281 1.329 4.834 1.352 9.141.033 5.934-1.04 10.312-3.886 15.854-1.855 3.612-6.94 10.327-9.668 12.768-.973.87-1.691 1.658-1.596 1.751.094.093 1.808-.443 3.809-1.191z" fill="#000"/><path fill-rule="evenodd" clip-rule="evenodd" d="M80 160.152c44.183 0 80-35.818 80-80 0-44.183-35.817-80-80-80s-80 35.817-80 80c0 44.182 35.817 80 80 80zm70-80c0 38.66-31.34 70-70 70-18.038 0-34.483-6.823-46.895-18.029l98.866-98.866C143.177 45.668 150 62.113 150 80.152zm-22.703-51.605L28.396 127.45C16.971 114.992 10 98.386 10 80.152c0-38.66 31.34-70 70-70 18.234 0 34.84 6.972 47.297 18.395z" fill="#E24A4A"/></svg>