<svg width="160" height="161" fill="none" xmlns="http://www.w3.org/2000/svg"><path d="M68.475 132.734c-.257-.317-.099-.84 1.83-6.065 1.538-4.168 2.203-5.762 2.45-5.879.253-.119 2.274.553 7.804 2.594 7.233 2.67 7.462 2.769 7.439 3.214-.013.253-.435 1.506-.938 2.785-.812 2.066-.882 2.374-.634 2.756.218.335 1.355.826 5.169 2.234 4.17 1.54 4.955 1.774 5.335 1.595.358-.17.64-.737 1.446-2.924l1.002-2.713 3.281 1.212c2.708.999 3.316 1.289 3.483 1.66.303.674-3.659 11.406-4.327 11.721-.398.188-2.197-.437-16.752-5.816-10.692-3.952-16.403-6.146-16.588-6.374zm18.583-.948c-.169-.433.002-1.054 1.127-4.101 1.282-3.474 1.345-3.597 1.904-3.75.476-.129 1.297.108 4.639 1.342 2.233.824 4.264 1.678 4.513 1.898l.452.4-1.432 3.88c-1.337 3.621-1.464 3.884-1.91 3.95-.287.042-2.211-.569-4.786-1.52-3.911-1.444-4.326-1.637-4.507-2.099zm-4.916-8.653c.023-.064.58-.451 1.236-.86 1.586-.989 3.034-2.457 3.882-3.938.84-1.466 1.535-4.62 2.04-9.255.734-6.737.804-11.611.19-13.42-.526-1.557-1.826-2.349-9.317-5.68-6.856-3.047-11.002-5.091-11.537-5.687-.255-.283-.598-.9-.763-1.37l-.3-.856 3.587-9.55 3.586-9.55 1.103-.135c.607-.075 1.742-.01 2.522.143.895.176 8.768 2.992 21.346 7.634l19.929 7.355-3.944 10.682-3.943 10.681-.736-.009c-1.014-.012-2.426.466-3.188 1.079-1.38 1.111-1.677 3.384-1.553 11.858.049 3.296.022 7.06-.059 8.363-.157 2.515-.826 8.829-1.084 10.231l-.155.837-2.687-.992-2.687-.992.383-1.037c.617-1.671.556-1.716-5.046-3.784-3.483-1.286-4.874-1.72-5.198-1.621-.291.088-.594.488-.884 1.164l-.441 1.029-3.163-1.102c-1.74-.605-3.143-1.154-3.12-1.218zm21.895-25.12c1.825-.78 1.871-3.183.074-3.847-.992-.366-2.032-.06-2.546.748-1.128 1.777.573 3.91 2.472 3.1zm-2.019-1.06c-.493-.82-.131-1.94.752-2.319.776-.333 1.404-.099 1.887.705.5.83.173 1.765-.774 2.212-.85.4-1.363.236-1.865-.598zM75.329 81.992l.349-.945-1.442-.532-1.442-.532-.348.944-.349.944 1.442.533 1.442.532.348-.944zm1.22-3.425l.392-.868-1.454-.537-1.453-.537-.352.954-.352.954 1.413.451 1.413.452.393-.869zm33.593 12.46c.099-.267-.421-.513-3.488-1.645-3.067-1.132-3.622-1.283-3.721-1.016-.099.268.422.514 3.489 1.646 3.066 1.132 3.621 1.284 3.72 1.016zm.543-1.468c.098-.268-.422-.513-3.489-1.646-3.066-1.132-3.622-1.283-3.72-1.015-.099.267.421.513 3.488 1.645 3.067 1.132 3.622 1.284 3.721 1.016zm-32.897-14.35l.393-.868-1.454-.537-1.454-.536-.352.954-.352.954 1.413.45 1.413.452.393-.869zm33.516 12.671c.099-.268-.421-.513-3.488-1.645-3.067-1.132-3.622-1.284-3.721-1.016-.099.268.422.513 3.489 1.645 3.066 1.132 3.621 1.284 3.72 1.016zm.62-1.679c.099-.268-.422-.513-3.488-1.645-3.067-1.132-3.622-1.284-3.721-1.016-.099.268.422.513 3.488 1.645 3.067 1.132 3.622 1.284 3.721 1.016zm-32.94-14.425l.348-.944-1.367-.575-1.368-.576-.394 1.069-.395 1.068 1.414.451 1.413.451.349-.944zm33.482 12.956c.099-.267-.421-.513-3.488-1.645-3.292-1.215-3.898-1.347-3.648-.79.047.105 1.646.766 3.553 1.47 2.944 1.087 3.485 1.233 3.583.965zm.62-1.678c.099-.268-.422-.514-3.488-1.646-3.067-1.132-3.622-1.284-3.721-1.016-.099.268.422.514 3.488 1.646 3.067 1.132 3.622 1.283 3.721 1.016zm-32.78-14.665l.266-.915-1.368-.575-1.367-.575-.352.954-.353.953 1.454.537 1.454.537.266-.916zm33.4 12.986c.099-.268-.422-.513-3.489-1.646-3.066-1.132-3.621-1.283-3.72-1.015-.099.267.421.513 3.488 1.645 3.067 1.132 3.622 1.284 3.721 1.016zm-33.835 21.282c.037-.099.598-.724 1.247-1.387 1.579-1.615 2.668-4.086 2.928-6.642.097-.948.233-1.752.303-1.787.249-.124 3.784 2.059 4.15 2.563.205.281.424 1.147.487 1.925.11 1.358-.085 8.127-.247 8.566-.05.137-1.65-.367-4.507-1.422-2.435-.899-4.398-1.716-4.361-1.816zm35.116-9.538c1.298-3.514 2.983-8.269 3.746-10.565l1.388-4.176.586.216c1.706.63 4.552 3.15 4.682 4.147.049.372-.774 2.851-2.673 8.058l-2.744 7.52-.863.434c-.838.423-4.61.95-5.861.82l-.619-.065 2.358-6.39zM63.326 79.322c-.87-.432-2.048-1.022-2.618-1.31l-1.035-.523 1.195-3.238c1.01-2.737 1.147-3.255.886-3.351-.251-.093-.436.23-.988 1.721l-.68 1.836-1.084.247-1.084.246 2.317-6.444c1.275-3.545 2.371-6.47 2.437-6.5.065-.032.408.327.762.797l.643.853-.696 1.886c-.562 1.522-.638 1.908-.393 1.998.252.094.52-.443 1.58-3.172l1.277-3.284 3.632.94c1.997.518 3.796.994 3.997 1.06.344.11.16.676-2.926 9.036l-3.292 8.918-1.174-.465a44.456 44.456 0 0 1-2.756-1.25zm-13.414-14.7l2.634-7.136 4.84 1.787 4.84 1.787-2.633 7.135-2.634 7.135-4.84-1.787-4.84-1.787 2.633-7.135zM44.32 67.09c-2.444-2.53-2.455-2.545-2.242-3.316.179-.65.135-.804-.27-.953-.326-.121-.634-.614-.948-1.516-.255-.735-.443-1.395-.417-1.465.026-.071.65.094 1.386.365l1.34.495.253-.681c.251-.674.297-.685 3.912-1 2.011-.176 3.749-.321 3.86-.324.113-.002-.722 2.506-1.854 5.575-1.599 4.33-2.116 5.554-2.312 5.47-.14-.06-1.358-1.252-2.708-2.65zM21.556 54.687c-.19-.728-.19-.729.471-1.137.527-.326.834-.346 1.502-.099.875.323 1.306.97 1.734 2.604l.191.73-1.853-.685c-1.79-.66-1.86-.71-2.045-1.413zm4.202 1.03c-.217-.719-.375-1.362-.35-1.43.026-.07.48.035 1.009.23.872.322 1.013.475 1.504 1.632.297.703.507 1.37.465 1.483-.042.114-.561.023-1.154-.201-1.044-.395-1.09-.45-1.474-1.714zm3.015.981l-.459-1.48 1.079.398c1.018.376 1.109.471 1.61 1.7.291.716.5 1.383.463 1.482-.036.1-.554.001-1.15-.219-1.07-.395-1.09-.42-1.543-1.88zm3.04 1.259c-.26-.743-.454-1.405-.43-1.47.073-.196 1.902.546 2.205.894.154.176.425.867.603 1.534l.324 1.214-1.114-.41c-1.08-.4-1.127-.451-1.587-1.762zm3.061 1.172c-.258-.718-.445-1.377-.413-1.464.03-.087.49.002 1.019.197.872.322 1.012.475 1.503 1.633.298.702.508 1.37.466 1.483-.042.114-.532.038-1.09-.168-.955-.352-1.041-.45-1.485-1.68zm3.034 1.24c-.197-.63-.403-1.297-.458-1.48-.077-.259.15-.244.983.064.974.36 1.124.5 1.5 1.407.23.554.446 1.224.48 1.489.06.447-.015.452-1.042.073-1.056-.39-1.122-.46-1.463-1.554zM47.7 30.846c.243-.168-.036-.374-.316-.233-.219.109-.227.152-.047.232.123.053.285.054.362 0zm-.73-1.604c.27-.115.458-.223.419-.24-.04-.017-.292.063-.562.178-.269.114-.457.222-.418.24.039.017.291-.063.56-.178zm51.727 20.14a.598.598 0 0 0-.355-.155c-.115-.004-.05.064.146.15.195.085.29.088.21.006zm41.737 13.902c.147-.057.215-.049.603.075.095.03.153.003.129-.06-.073-.187-1.153-.39-1.129-.212.028.196.191.277.397.197zm2.56.282c.424.045.795.025.825-.044.07-.159-.014-.195-.394-.17-.167.011-.614-.019-.994-.067s-.753-.044-.83.01c-.143.097-.022.121 1.393.271z" fill="#000"/><path fill-rule="evenodd" clip-rule="evenodd" d="M43.916 50.939c-.754-1.765-1.574-4.57-2.353-8.048-.282-1.26-.82-5.286-.912-6.837-.037-.623.011-1.52.108-1.991.097-.472.154-.95.128-1.062-.027-.111.055-.243.18-.292.127-.05.334-.283.46-.52 1.228-2.29 1.342-2.443 2.207-2.979 2.696-1.67 6.11-1.455 12.05.757 1.31.488 16.544 7.065 33.85 14.615 20.183 8.805 32.024 13.909 33.024 14.234 4.916 1.602 7.274 2.086 14.93 3.065.751.096 1.852.282 2.446.415.595.132 1.65.336 2.345.452 1.425.238 2.08.475 1.976.713-.039.089.171.067.468-.049.637-.248.92-.164.875.259-.041.383-3.865 4.221-4.323 4.338-.179.046-.593.085-.921.089-.328.003-.715.013-.859.022-.715.043-3.981-.797-6.168-1.587-2.509-.906-3.882-1.266-5.777-1.517-2.705-.359-3.811-.586-5.365-1.103-2.264-.753-8.998-3.626-34.414-14.684-29.78-12.956-34.637-15.02-36.611-15.556-.857-.232-1.814-.446-2.128-.475-.87-.08-2.967.31-3.19.592-.337.425-.616 2.3-.535 3.582.091 1.438.656 3.014 1.467 4.097.79 1.053 2.536 5.384 2.346 5.818-.033.074-.347.442-.699.818-.352.377-.686.79-.743.92-.057.13-.244.277-.416.326-.261.075-.323.044-.382-.192-.114-.458-1.448-2.492-1.71-2.607-.132-.058-.275-.254-.318-.436a4.32 4.32 0 0 0-.298-.767l-.22-.435.094.72c.051.395.218.96.37 1.257.151.296.403.877.56 1.291l.38 1.015c-.08.18.373 1.147.581 1.246.175.082-.281 1.136-.534 1.234-.079.03-.231.257-.34.502-.107.246-.324.522-.48.612-.256.149-.375-.043-1.148-1.852zm3.468-20.326c.28-.141.56.065.316.233-.078.053-.24.052-.363-.001-.18-.08-.172-.123.047-.232zm.005-1.611c.039.017-.15.125-.42.24-.269.115-.521.195-.56.178-.04-.018.15-.126.419-.24.269-.115.521-.195.56-.178zm50.953 20.225a.598.598 0 0 1 .355.156c.08.082-.014.08-.21-.007-.194-.085-.26-.153-.145-.15zm42.695 14.132c-.388-.124-.456-.132-.603-.075-.206.08-.369 0-.397-.197-.024-.177 1.056.025 1.129.211.024.064-.034.09-.129.06zm2.782.163c-.03.07-.401.09-.825.044-1.415-.15-1.536-.174-1.393-.272.077-.053.45-.057.83-.009.38.048.827.078.994.067.38-.025.464.011.394.17z" fill="#000"/><path fill-rule="evenodd" clip-rule="evenodd" d="M80 160.152c44.183 0 80-35.818 80-80 0-44.183-35.817-80-80-80s-80 35.817-80 80c0 44.182 35.817 80 80 80zm70-80c0 38.66-31.34 70-70 70-18.232 0-34.837-6.971-47.293-18.392l98.901-98.902C143.03 45.315 150 61.92 150 80.152zm-22.631-51.54L28.461 127.52C17 115.055 10 98.42 10 80.152c0-38.66 31.34-70 70-70 18.27 0 34.904 6.998 47.369 18.46z" fill="#E24A4A"/></svg>