<svg width="162" height="161" fill="none" xmlns="http://www.w3.org/2000/svg"><path d="M64.434 101.73c-.688-2.745-1.237-5.027-1.22-5.071.017-.044.468-.211 1.001-.372 1.706-.514 3.934-1.43 5.755-2.366 5.64-2.9 9.944-7.06 12.895-12.467.28-.513.567-1.034.637-1.158.127-.22.07-.247-3.021-1.403-4.194-1.569-4.767-1.75-4.922-1.556-.093.115-.316.09-.896-.098-.424-.138-.75-.207-.723-.153.027.053-.035.179-.137.278-.158.153-.326.136-1.087-.112-.726-.236-1.225-.513-2.561-1.421l-1.66-1.129-4.786-1.745c-9.727-3.545-12.878-4.733-13.342-5.029a21.673 21.673 0 0 0-.771-.47c-.24-.136-.276-.23-.186-.505l.109-.337-6.11-1.985c-5.354-1.74-6.117-1.964-6.167-1.81-.043.132-.198.13-.633-.012-.436-.142-.563-.23-.52-.363.05-.154-1-.518-8.762-3.04-5.802-1.886-8.832-2.826-8.857-2.75-.02.065-.323.025-.672-.088-.619-.202-.631-.214-.527-.537.098-.3.075-.335-.255-.39-.335-.057-.354-.088-.246-.42.113-.348.102-.362-.478-.589-.357-.14-.576-.286-.55-.368.082-.252-.081-.392-.261-.224-.16.15-.41.092-2.42-.562l-2.243-.728.128-.395c.122-.374.165-.396.799-.398.368-.002.866-.051 1.106-.11.487-.12 1.548-.704 1.606-.885.022-.068.424.01.96.183.539.175.907.349.885.417-.02.064.038.141.131.172.103.033.166-.022.16-.142-.007-.149.078-.169.349-.08.281.09.374.066.434-.118.05-.155.153-.208.306-.158.225.073.256-.003 1.21-2.939.711-2.188 1.03-3.04 1.163-3.108.252-.13 2.479.593 2.605.846.054.106-.013.511-.155.95-.239.734-.233.894.133 3.71.21 1.619.338 2.982.283 3.029-.06.05 1.927.744 4.922 1.717 4.153 1.35 5.03 1.604 5.073 1.473.035-.108.282-.11.772-.006 1.537.325 3.18-.263 4.896-1.754l.946-.823 5.285 1.718c3.447 1.12 5.299 1.676 5.323 1.6.023-.07.516.038 1.241.274 1.102.358 1.215.373 1.352.181.082-.115.239-.19.349-.164l.332.073c.073.016.237-.013.364-.065.234-.095.482-.027 10.67 2.935 6.068 1.764 6.645 1.98 6.696 2.514.018.192.15.345.393.457.365.168.367.167.532-.341.299-.92.377-.94 1.803-.477 1.006.326 1.276.376 1.375.253.139-.174.845.002.783.194-.027.08 1.128.494 3.481 1.249 1.937.62 3.532 1.093 3.546 1.05.014-.043.151-.11.304-.15.258-.066.268-.041.145.339-.123.377-.16.4-.48.297-.268-.087-.362-.06-.421.122-.042.13-.153.208-.249.177-.255-.083-.29.177-.045.335.174.113.179.235.025.707l-.185.57 17.311 5.625 17.311 5.624.379.436c.209.24.553.874.765 1.409.341.862.431.987.797 1.108.354.117.44.225.61.77.233.748.228.796-.084.695-.131-.043-.222-.014-.204.065.019.078.102.125.185.104.087-.022.1.006.031.065-.066.056-.018.342.106.636.16.38.32.563.559.64.183.06.318.157.299.216-.019.058.322.288.758.51 1.716.874 5.987 3.16 7.519 4.024.889.5 2.126 1.106 2.749 1.345.989.379 1.225.428 1.852.382 2.198-.158 3.311.035 5.229.908l2.683 1.219c9.407 4.273 15.475 7.214 15.966 7.739a.872.872 0 0 0 .408.238c.603.097.436 1.016-.506 2.788-.705 1.326-3.751 7.696-5.157 10.786-.407.896-.826 1.664-.97 1.783-.252.206-.862.136-.788-.091.02-.062-.043-.108-.141-.103-.189.011-.971-.553-3.783-2.726a682.212 682.212 0 0 0-3.214-2.467 3453.68 3453.68 0 0 0-12.837-9.719c-.68-.508-8.893-6.701-11.252-8.486-1.216-.919-1.849-1.325-2.294-1.47l-.615-.2-.164.431c-.09.238-.24.712-.332 1.054-.135.502-.288.75-.79 1.275-.573.6-.637.717-.818 1.484-.126.533-.191 1.54-.182 2.8.014 1.725.138 6.011.199 6.833.042.56-.196 1.485-.482 1.879-.786 1.079-2.129 1.337-4.283.822-1.284-.307-2.121-.797-2.489-1.457-.268-.481-.269-.558-.036-1.588.263-1.157.251-1.489-.269-7.54-.269-3.13-.35-3.608-.752-4.482l-.341-.74-.844.491c-1.285.749-1.454.736-4.6-.348-3.04-1.047-3.266-1.19-3.79-2.388-.313-.718-.344-.75-.889-.888l-.564-.144-.323.993c-.252.774-.358.98-.484.94-.105-.034-.142-.409-.104-1.067.04-.695-.007-1.145-.152-1.432-.205-.406-.2-.454.227-1.766.413-1.27.425-1.353.208-1.423-.187-.061-.256.003-.364.334-.132.405-.137.407-.643.242l-.51-.165-.348.63c-2.73 4.951-6.056 8.935-10.238 12.265-4.064 3.235-9.409 5.885-14.763 7.318l-1.216.326-1.25-4.991zm38.515-8.553c.254-.042.749-.258 1.1-.48l.639-.406-.056-.537c-.046-.432-.013-.585.168-.785.124-.137.29-.228.369-.202.079.026.055-.073-.054-.219-.166-.223-.161-.374.029-.96l.227-.697-.67.108c-.749.121-.994.289-1.543 1.054-.207.29-.589.664-.848.831-.818.529-2.861.739-2.712.279.03-.092.305-.169.619-.172.716-.008 1.781-.552 2.158-1.1.235-.343.291-.544.311-1.123.034-.985-.109-1.281-.771-1.597-.304-.145-.57-.333-.592-.418-.026-.096-.713-.397-1.809-.793l-1.768-.64-.754 2.209c-.734 2.149-.75 2.22-.611 2.677.259.85.473 1.016 2.102 1.624 3.191 1.191 3.974 1.428 4.466 1.347zM35.72 61.229c.024-.074-.673-.348-1.864-.735l-1.902-.618.095-.292.095-.292-4.944-1.607c-4.901-1.592-4.945-1.604-5.085-1.385-.132.209-.208.197-1.29-.193-1.033-.373-1.157-.394-1.216-.21-.063.193.395.354 8.003 2.826 5.304 1.723 8.083 2.582 8.108 2.506zm14.065 4.57c.02-.066-.27-.217-.654-.342-.662-.215-.688-.238-.596-.518l.095-.293-5.158-1.642-5.158-1.643-.134.376-.135.376 5.851 1.901c3.824 1.243 5.864 1.86 5.889 1.784zm-.283-3.837l.152-.467.864.28c.764.248.873.256.935.066.064-.196-.082-.272-1.653-.86-2.189-.819-5.173-1.788-8.061-2.62l-2.263-.651-.222.683-.222.683 5.16 1.677 5.158 1.676.152-.467zm-5.204-2.692c.882.265 2.283.72 3.113 1.012.83.292.108.075-1.604-.481-1.712-.556-2.391-.795-1.509-.53zm14.795 5.653a.602.602 0 0 0 .252-.305c.063-.193.205-.166 1.682.314 1.477.48 1.608.542 1.546.734-.146.45.043.557 2.256 1.274 1.177.381 2.21.674 2.298.65.087-.024.212-.142.278-.263.069-.127.233-.2.39-.173.375.065.453-.263.09-.381-.227-.074-.269-.153-.197-.373.05-.154.019-.339-.069-.41-.088-.072-1.104-.437-2.26-.813-2.172-.706-2.39-.73-2.536-.281-.062.192-.205.165-1.682-.315-1.477-.48-1.608-.542-1.546-.734.147-.45-.042-.556-2.276-1.282-1.809-.588-2.198-.681-2.4-.577-.132.069-.265.2-.295.291-.04.127-.223.112-.746-.057-.538-.175-.704-.186-.748-.05-.044.136.094.224.61.392.634.206.666.235.682.61l.017.392 2.235.726c1.584.515 2.288.699 2.419.631zm-5.52-2.636c.215.041.526.143.69.226.165.083-.011.05-.391-.075s-.515-.192-.3-.15v-.001zm6.622 2.15c.432.115 1.159.351 1.614.524.455.172.101.078-.786-.21-.888-.289-1.26-.43-.828-.314zm7.56 2.464c.095-.007.193.03.219.08.025.052-.052.058-.172.013-.132-.05-.15-.086-.046-.093zM21.858 51.65c.196-.497.19-.601-.053-1.088l-.27-.54-1.085-.315-1.085-.315-.315.855c-.223.605-.281.897-.198 1.001.065.08.719.328 1.453.548l1.335.402.218-.549zm-2.102-.224c.277.063.719.206.98.319.261.112.034.06-.505-.115-.538-.175-.752-.267-.475-.204zm26.198 5.766c.042-.128.001-.258-.09-.287-.204-.066-.396.083-.351.273.058.246.362.256.441.014zm-.288-.093c.06-.052.132-.087.16-.078.028.01.034.07.013.134a.126.126 0 0 1-.16.077c-.067-.022-.073-.082-.013-.133zm1.64.566c.04-.323-.33-.481-.427-.182-.054.167-.005.267.16.32.166.054.248.011.267-.138zm-.312-.143c.022-.068.081-.074.132-.014.05.06.084.133.075.162-.01.028-.069.034-.132.014-.063-.021-.097-.093-.075-.162zm1.689.59c.125-.172-.192-.426-.398-.32-.088.046-.143.155-.122.243.048.2.392.25.52.076zm32.847 8.347c.052-.071.013-.157-.088-.19-.105-.034-.15-.157-.106-.292.073-.225 0-.258-1.857-.857-1.691-.545-1.895-.59-1.636-.358.443.395 1.252.87 2.249 1.316 1.09.489 1.316.549 1.438.382zm-3.072-1.505c.094-.007.192.03.218.08.026.052-.051.057-.171.013-.133-.05-.151-.086-.047-.094zM20.983 45.11a7.72 7.72 0 0 1 1.037.338c.26.111.005.05-.565-.135-.57-.186-.783-.277-.472-.203z" fill="#000"/><path fill-rule="evenodd" clip-rule="evenodd" d="M82 160.152c44.183 0 80-35.818 80-80 0-44.183-35.817-80-80-80s-80 35.817-80 80c0 44.182 35.817 80 80 80zm70-80c0 38.66-31.34 70-70 70-19.99 0-38.022-8.379-50.777-21.816l98.961-98.962C143.621 42.13 152 60.162 152 80.152zm-26.351-54.728L27.272 123.8C17.714 111.832 12 96.659 12 80.151c0-38.66 31.34-70 70-70 16.508 0 31.681 5.715 43.649 15.273z" fill="#E24A4A"/></svg>