<svg width="160" height="161" fill="none" xmlns="http://www.w3.org/2000/svg"><path d="M84.309 136.106c-.021-.02-.593-.213-1.27-.429-5.798-1.841-5.724-1.813-5.982-2.308-.066-.128-.344-1.057-.616-2.063a4306.542 4306.542 0 0 0-1.725-6.365l-.664-2.441c-.119-.431-.336-1.235-.484-1.787a2624.841 2624.841 0 0 1-2.384-8.783l-.845-3.117-.792-2.92a5848.653 5848.653 0 0 0-3.806-14.036c-.2-.743-.679-2.508-1.063-3.923-.385-1.415-1.082-3.984-1.548-5.71-.467-1.726-1.062-3.923-1.324-4.882a7389.15 7389.15 0 0 1-3.087-11.377l-.863-3.182a593.4 593.4 0 0 0-.843-3.091c-.1-.358-.153-.678-.117-.711.051-.048 5.61-1.538 6.643-1.781l.235-.055.009 1.206c.016 2.22.403 6.204.985 10.142.949 6.417 2.144 12.523 4.581 23.408l.516 2.31c.09.407.29 1.27.445 1.918l.392 1.656c.109.465.71 2.931 1.457 5.972.2.815 1 3.993 1.78 7.061.78 3.069 1.469 5.796 1.532 6.059.063.264.257 1.01.43 1.657.174.647.49 1.844.705 2.659.213.815.684 2.6 1.047 3.966l1.12 4.229c.254.959.505 1.788.558 1.843.053.055 1.464.536 3.136 1.068 1.672.531 3.136 1.038 3.255 1.125.936.692.798 2.012-.267 2.549-.297.15-1.042.237-1.146.133zm5.752-7.568c-.298-.684-.723-1.655-.946-2.158-.222-.504-.636-1.445-.918-2.092-.282-.648-1.632-3.727-3-6.844a20944.76 20944.76 0 0 1-3.497-7.977l-1.833-4.184-1.28-2.921a9528.683 9528.683 0 0 1-4.36-9.938l-3.056-6.975c-3.87-8.827-3.42-7.638-3.897-10.33l-.579-3.27c-.24-1.35-.764-4.89-.877-5.928-.403-3.673-.53-5.25-.59-7.299-.06-2.017-.074-1.936.36-2.003.146-.023.193.092.363.89 1.43 6.682 4.934 17.1 10.876 32.343 1.154 2.96 5.026 12.496 6.742 16.608l1.947 4.664.38.915.436-.029c.557-.038 1.142.209 1.441.607.246.326.95 1.98.949 2.228-.001.35-.206.855-.442 1.088l-.249.247h.335c.797 0 1.248.394 1.761 1.537.492 1.098.47 1.858-.07 2.334-.256.225-.238.29.068.246.352-.051.83.118 1.132.4.268.251.97 1.744 1.05 2.236.075.458-.043.892-.329 1.215l-.259.292.437.041c.73.07.996.32 1.466 1.376.828 1.861.636 2.44-1.04 3.134-.5.206-1.121.469-1.381.582-.26.114-.502.207-.537.207-.035 0-.306-.559-.603-1.242zm13.674-5.24c-.15-.247-.662-1.057-1.138-1.8a1542.088 1542.088 0 0 1-3.942-6.19 640.908 640.908 0 0 0-2.003-3.138c-.57-.887-2.198-3.437-3.617-5.667a7398.953 7398.953 0 0 0-7.309-11.464c-1.575-2.48-3.433-5.401-3.781-5.948-.486-.76-2.082-3.269-3.814-5.995-.701-1.103-1.604-2.516-2.007-3.139-.402-.623-.88-1.369-1.06-1.656-.18-.288-.844-1.337-1.476-2.332l-1.148-1.808-1.5-4.469c-1.587-4.725-2.399-7.396-3.095-10.178-.609-2.431-.765-3.25-.629-3.296.06-.02.334-.148.607-.284.274-.136.502-.24.507-.23l.723 1.674c1.668 3.874 4.006 8.677 6.409 13.164.206.383.603 1.129.883 1.656 4.01 7.546 10.919 19.45 17.227 29.685.547.887 1.465 2.382 2.04 3.322l1.047 1.71.826-.336c.96-.391 2.335-.773 2.779-.772.57.002.672.077 1.146.845.387.627.452.79.41 1.042-.068.415-.695 1.248-1.58 2.1-.411.396-.732.719-.712.719.019 0 .281-.1.583-.222 1.196-.485 2.891-.793 3.197-.583.052.035.304.406.561.824.349.567.455.814.415.969-.099.39-.761 1.26-1.564 2.055l-.799.792.603-.23c1.399-.533 2.787-.773 3.201-.554.243.129.97 1.363.97 1.647 0 .373-.63 1.26-1.529 2.149l-.805.797.7-.253c1.552-.561 2.89-.744 3.198-.437.085.084.326.435.537.781.453.744.445.889-.088 1.652-.673.964-1.794 1.991-3.116 2.855-1.725 1.128-1.536 1.072-1.857.543zm-6.433-35.59C77.713 68.273 73.924 64.475 73.709 64.061c-.506-.975-1.89-3.924-2.585-5.506-2.117-4.826-2.877-6.726-3.405-8.519-.587-1.993-1.206-4.23-1.178-4.259.016-.016.324.45.684 1.035 1.626 2.64 4.888 7.263 7.398 10.482 3.736 4.79 7.792 9.594 13.439 15.91a561.42 561.42 0 0 0 4.273 4.704c.025.024.72.77 1.543 1.656.823.886 2.11 2.259 2.86 3.05 1.54 1.629 1.333 1.53 2.678 1.28 1.088-.201 2.407-.189 3.276.031 1.542.39.797-.282 12.065 10.887 5.621 5.572 10.23 10.159 10.242 10.194.029.079-.84.934-.896.882-.238-.225-9.153-8.99-13.443-13.217-4.888-4.817-5.566-5.453-6.035-5.668-.938-.43-1.972-.296-2.753.358l-.287.24.183.232c.1.127.644.703 1.209 1.278.565.575 1.524 1.556 2.132 2.18 6.542 6.707 8.353 8.54 14.248 14.424l3.278 3.273-.942.937c-.518.515-.968.937-.999.937-.031 0-10.558-10.419-23.392-23.154zm-41.87-30.265c-.083-.206-.612-2.119-1.454-5.257-.123-.458-.798-2.95-1.5-5.536-1.572-5.79-1.483-5.402-1.475-6.422.013-1.633.543-2.986 1.615-4.122 1.958-2.075 4.87-2.538 7.515-1.195.443.224.842.536 1.412 1.102 1.022 1.015 1.36 1.68 1.932 3.798.227.84.744 2.742 1.15 4.228 1.526 5.58 2.24 8.206 2.324 8.544.048.192.168.643.267 1.003.22.798.22.808.03 1.033-.117.136-.742.334-2.533.801l-3.7.967c-5.657 1.481-5.428 1.438-5.583 1.056zM58.28 44.56c1.499-.387 2.62-1.64 2.886-3.223.26-1.558-.649-3.228-2.16-3.964-2.29-1.116-5.065.295-5.534 2.814-.492 2.642 2.16 5.055 4.808 4.373zm-1.942-1.822c-.814-.41-1.184-.997-1.18-1.88.002-.685.192-1.135.67-1.587.662-.627 1.539-.77 2.37-.387 1.555.716 1.715 2.872.28 3.75-.334.204-.544.262-1.055.292-.555.032-.696.008-1.085-.188zm2.08-1.141c.324-.166.418-.492.226-.782-.203-.307-.54-.37-.831-.157-.312.23-.351.591-.094.862.232.244.347.257.7.077z" fill="#000"/><path fill-rule="evenodd" clip-rule="evenodd" d="M80 160.152c44.183 0 80-35.818 80-80 0-44.183-35.817-80-80-80s-80 35.817-80 80c0 44.182 35.817 80 80 80zm70-80c0 38.66-31.34 70-70 70-18.235 0-34.84-6.973-47.298-18.396l98.902-98.902C143.028 45.31 150 61.917 150 80.152zm-22.636-51.544l-98.907 98.908C16.997 115.051 10 98.418 10 80.152c0-38.66 31.34-70 70-70 18.267 0 34.899 6.996 47.364 18.456z" fill="#E24A4A"/></svg>