<?xml version="1.0" encoding="UTF-8" standalone="no"?>
<svg
   xmlns:dc="http://purl.org/dc/elements/1.1/"
   xmlns:cc="http://creativecommons.org/ns#"
   xmlns:rdf="http://www.w3.org/1999/02/22-rdf-syntax-ns#"
   xmlns:svg="http://www.w3.org/2000/svg"
   xmlns="http://www.w3.org/2000/svg"
   viewBox="0 0 338.94666 338.94666"
   height="338.94666"
   width="338.94666"
   xml:space="preserve"
   id="svg2"
   version="1.1"><metadata
     id="metadata8"><rdf:RDF><cc:Work
         rdf:about=""><dc:format>image/svg+xml</dc:format><dc:type
           rdf:resource="http://purl.org/dc/dcmitype/StillImage" /></cc:Work></rdf:RDF></metadata><defs
     id="defs6"><clipPath
       id="clipPath18"
       clipPathUnits="userSpaceOnUse"><path
         id="path16"
         d="M 0,254.21 H 254.21 V 0 H 0 Z" /></clipPath></defs><g
     transform="matrix(1.3333333,0,0,-1.3333333,0,338.94667)"
     id="g10"><g
       id="g12"><g
         clip-path="url(#clipPath18)"
         id="g14"><g
           transform="translate(0,127.1053)"
           id="g20"><path
             id="path22"
             style="fill:#f4dddf;fill-opacity:1;fill-rule:nonzero;stroke:none"
             d="M 0,0 C 0,70.198 56.907,127.105 127.105,127.105 197.303,127.105 254.21,70.198 254.21,0 254.21,-70.198 197.303,-127.105 127.105,-127.105 56.907,-127.105 0,-70.198 0,0" /></g><g
           transform="translate(210.8487,62.2967)"
           id="g24"><path
             id="path26"
             style="fill:#fbafa7;fill-opacity:1;fill-rule:nonzero;stroke:none"
             d="m 0,0 c 0,-4.211 -32.359,-7.625 -72.276,-7.625 -39.917,0 -72.276,3.414 -72.276,7.625 0,4.211 32.359,7.625 72.276,7.625 C -32.359,7.625 0,4.211 0,0" /></g><g
           transform="translate(66.2964,68.8572)"
           id="g28"><path
             id="path30"
             style="fill:#fbafa7;fill-opacity:1;fill-rule:nonzero;stroke:none"
             d="m 0,0 c 0,-0.588 -4.518,-1.064 -10.091,-1.064 -5.573,0 -10.09,0.476 -10.09,1.064 0,0.588 4.517,1.064 10.09,1.064 C -4.518,1.064 0,0.588 0,0" /></g><g
           transform="translate(90.0757,52.3714)"
           id="g32"><path
             id="path34"
             style="fill:#fbafa7;fill-opacity:1;fill-rule:nonzero;stroke:none"
             d="m 0,0 c 0,-0.588 -4.518,-1.064 -10.09,-1.064 -5.574,0 -10.091,0.476 -10.091,1.064 0,0.588 4.517,1.064 10.091,1.064 C -4.518,1.064 0,0.588 0,0" /></g><g
           transform="translate(195.4649,73.3343)"
           id="g36"><path
             id="path38"
             style="fill:#310382;fill-opacity:1;fill-rule:nonzero;stroke:none"
             d="m 0,0 c 0,0 11.518,-4.479 17.703,-4.692 0,0 7.252,0.64 -11.517,9.171 0,0 -2,-1.898 -6.399,-1.493 z" /></g><g
           transform="translate(162.6343,63.9051)"
           id="g40"><path
             id="path42"
             style="fill:#310382;fill-opacity:1;fill-rule:nonzero;stroke:none"
             d="m 0,0 c 0,0 12.208,-1.916 18.296,-0.803 0,0 7.917,1.534 -12.241,5.86 0,0 -3.004,-0.322 -7.735,0.96 z" /></g><g
           transform="translate(160.9541,108.7273)"
           id="g44"><path
             id="path46"
             style="fill:#df8551;fill-opacity:1;fill-rule:nonzero;stroke:none"
             d="M 0,0 C 0,0 11.689,-13.211 8.917,-22.809 6.144,-32.407 0,-38.806 0,-38.806 c 0,0 4.437,-2.132 8.49,-1.279 0,0 12.837,10.54 11.431,35.13 0,0 -6.661,6.422 -14.805,7.508 L 3.371,-0.201 Z" /></g><g
           transform="translate(164.3252,108.5266)"
           id="g48"><path
             id="path50"
             style="fill:#464195;fill-opacity:1;fill-rule:nonzero;stroke:none"
             d="m 0,0 c 0,0 -5.972,1.493 -18.982,-3.413 -13.011,-4.905 -43.925,-13.437 -47.237,12.371 0,0 0.954,11.731 -1.179,18.77 l 16.422,-11.305 c 0,0 17.276,-4.265 31.14,0 13.864,4.266 18.77,4.053 22.396,2.773 C 2.56,19.196 7.039,9.385 0,0" /></g><g
           transform="translate(124.649,209.4119)"
           id="g52"><path
             id="path54"
             style="fill:#9673d0;fill-opacity:1;fill-rule:nonzero;stroke:none"
             d="m 0,0 c 0,0 3.622,-12.584 0,-20.049 0,0 1.071,-17.063 -16.418,-14.29 0,0 1.919,-8.105 4.905,-8.532 0,0 -23.888,-7.252 -34.126,11.091 0,0 -2.986,6.399 0,10.878 2.986,4.479 6.826,3.839 6.826,3.839 0,0 -1.92,9.384 3.199,15.57 C -30.496,4.692 -5.763,14.077 0,0" /></g><g
           transform="translate(121.4541,204.9329)"
           id="g56"><path
             id="path58"
             style="fill:#f89b5b;fill-opacity:1;fill-rule:nonzero;stroke:none"
             d="m 0,0 c 0,0 8.672,-22.708 -2.559,-28.154 -7.039,-3.413 -10.665,-1.706 -10.665,-1.706 0,0 -1.493,-7.039 1.494,-12.798 0,0 -4.693,-5.118 -9.812,3.2 0,0 2.773,7.891 1.92,13.65 0,0 -1.493,2.133 -1.92,5.119 0,0 -2.986,4.906 -1.28,7.678 1.707,2.773 4.906,1.493 5.333,-0.639 0,0 11.73,-1.707 17.489,13.65" /></g><g
           transform="translate(119.9463,123.7718)"
           id="g60"><path
             id="path62"
             style="fill:#19114c;fill-opacity:1;fill-rule:nonzero;stroke:none"
             d="M 0,0 33.325,3.578 44.166,36.945 H 41.008 L 31.368,6.931 0,3.311 Z" /></g><g
           transform="translate(99.9122,165.4744)"
           id="g64"><path
             id="path66"
             style="fill:#464195;fill-opacity:1;fill-rule:nonzero;stroke:none"
             d="m 0,0 c 0,0 -8.318,-0.853 -7.892,-9.171 0.427,-8.318 2.773,-13.011 2.773,-13.011 0,0 5.119,4.053 12.158,4.053 0,0 2.559,-16.637 6.399,-22.395 0,0 -0.854,11.09 0,16.849 0,0 6.611,3.199 4.691,9.172 C 16.21,-8.531 9.812,-3.199 9.812,-3.199 9.812,-3.199 5.066,-7.897 0,0" /></g><g
           transform="translate(118.3912,114.7122)"
           id="g68"><path
             id="path70"
             style="fill:#f89b5b;fill-opacity:1;fill-rule:nonzero;stroke:none"
             d="m 0,0 c 0,0 -13.787,-7.678 -23.598,28.581 0,0 4.479,4.479 12.158,4.052 0,0 3.412,-17.916 6.398,-22.395 2.986,-4.479 13.224,-2.346 14.504,1.066 1.28,3.413 -1.066,8.745 2.772,10.665 3.84,1.919 7.679,2.346 8.532,0.213 0.853,-2.133 -1.919,-5.13 -4.053,-6.191 C 14.581,14.93 15.434,9.811 13.728,8.105 12.021,6.398 4.363,0.595 0,0" /></g><g
           transform="translate(166.0699,111.2801)"
           id="g72"><path
             id="path74"
             style="fill:#f89b5b;fill-opacity:1;fill-rule:nonzero;stroke:none"
             d="m 0,0 c 0,0 10.413,-1.139 18.518,-11.544 8.105,-10.405 10.664,-23.415 10.664,-23.415 0,0 4.479,-0.641 6.399,1.492 0,0 0.213,37.658 -34.126,48.05 0,0 2.21,-6.498 -1.455,-14.583" /></g><g
           transform="translate(67.2793,129.0022)"
           id="g76"><path
             id="path78"
             style="fill:#ffffff;fill-opacity:1;fill-rule:nonzero;stroke:none"
             d="M 0,0 C 0,0 -6.019,27.908 11.731,31.715 29.48,35.521 30.827,0.268 30.827,0.268 c 0,0 -5.247,-37.822 43.923,-25.337 0,0 12.698,3.527 15.257,-7.35 2.56,-10.878 -3.412,-16.85 -10.878,-18.77 -7.464,-1.919 -40.736,-4.692 -49.482,-2.772 0,0 -16.21,0.639 -29.647,53.961" /></g><g
           transform="translate(92.0049,61.7947)"
           id="g80"><path
             id="path82"
             style="fill:#34227a;fill-opacity:1;fill-rule:nonzero;stroke:none"
             d="m 0,0 h 7.481 l 6.396,12.601 H 6.938 Z" /></g><g
           transform="translate(153.1929,61.7947)"
           id="g84"><path
             id="path86"
             style="fill:#34227a;fill-opacity:1;fill-rule:nonzero;stroke:none"
             d="m 0,0 h -7.481 l -7.455,14.686 6.447,0.731 z" /></g><g
           transform="translate(122.7837,191.9221)"
           id="g88"><path
             id="path90"
             style="fill:#d07e4d;fill-opacity:1;fill-rule:nonzero;stroke:none"
             d="m 0,0 c 0,0 1.28,-2.666 2.986,-3.732 1.706,-1.067 0.107,-3.413 -1.067,-3.2 l -1.172,0.213 z" /></g><g
           transform="translate(116.5752,194.055)"
           id="g92"><path
             id="path94"
             style="fill:#d07e4d;fill-opacity:1;fill-rule:nonzero;stroke:none"
             d="M 0,0 C 0.676,-0.616 1.23,-1.063 1.877,-1.293 2.196,-1.413 2.534,-1.501 2.912,-1.548 3.291,-1.604 3.693,-1.612 4.159,-1.68 3.828,-2 3.415,-2.224 2.954,-2.316 2.495,-2.433 1.989,-2.374 1.523,-2.213 0.583,-1.856 -0.055,-0.925 0,0" /></g><g
           transform="translate(117.6954,184.9768)"
           id="g96"><path
             id="path98"
             style="fill:#d07e4d;fill-opacity:1;fill-rule:nonzero;stroke:none"
             d="M 0,0 C 0.24,-0.712 0.422,-1.218 0.721,-1.446 0.862,-1.579 1.069,-1.678 1.328,-1.796 1.596,-1.897 1.898,-1.988 2.251,-2.152 1.958,-2.394 1.612,-2.529 1.233,-2.56 0.852,-2.584 0.419,-2.479 0.066,-2.183 -0.278,-1.875 -0.443,-1.419 -0.421,-1.028 -0.407,-0.636 -0.274,-0.273 0,0" /></g><g
           transform="translate(62.1778,69.2273)"
           id="g100"><path
             id="path102"
             style="fill:#9673d0;fill-opacity:1;fill-rule:nonzero;stroke:none"
             d="m 0,0 c 0,0 6.034,9.743 0.502,14.991 -4.066,2.929 -8.705,-2.197 -11.268,0.732 -2.563,2.929 9.154,12.571 5.37,17.454 -3.783,4.882 -11.35,5.248 -15.744,1.098 -4.394,-4.15 2.685,-27.419 8.178,-34.275 0,0 7.251,-0.833 12.962,0" /></g><g
           transform="translate(56.0376,68.8572)"
           id="g104"><path
             id="path106"
             style="fill:#310382;fill-opacity:1;fill-rule:nonzero;stroke:none"
             d="m 0,0 c -2.305,2.479 -4.285,5.261 -5.951,8.223 -1.67,2.957 -2.948,6.177 -3.5,9.569 -0.299,1.694 -0.246,3.432 -0.064,5.142 0.285,1.675 0.562,3.358 1.055,4.99 0.471,1.634 1.043,3.244 1.793,4.774 0.774,1.503 1.667,3.006 2.969,4.102 -1.194,-1.2 -2.008,-2.707 -2.677,-4.239 -0.68,-1.535 -1.19,-3.14 -1.596,-4.768 C -8.38,26.165 -8.67,24.509 -8.922,22.849 -9.075,21.201 -9.108,19.531 -8.8,17.891 -8.319,14.592 -7.062,11.433 -5.507,8.462 -4.752,6.961 -3.868,5.525 -2.952,4.112 -2.044,2.691 -1.05,1.326 0,0" /></g></g></g></g></svg>