<?xml version="1.0" encoding="UTF-8" standalone="no"?>
<svg
   xmlns:dc="http://purl.org/dc/elements/1.1/"
   xmlns:cc="http://creativecommons.org/ns#"
   xmlns:rdf="http://www.w3.org/1999/02/22-rdf-syntax-ns#"
   xmlns:svg="http://www.w3.org/2000/svg"
   xmlns="http://www.w3.org/2000/svg"
   viewBox="0 0 340.28 340.28"
   height="340.28"
   width="340.28"
   xml:space="preserve"
   id="svg2"
   version="1.1"><metadata
     id="metadata8"><rdf:RDF><cc:Work
         rdf:about=""><dc:format>image/svg+xml</dc:format><dc:type
           rdf:resource="http://purl.org/dc/dcmitype/StillImage" /></cc:Work></rdf:RDF></metadata><defs
     id="defs6"><clipPath
       id="clipPath18"
       clipPathUnits="userSpaceOnUse"><path
         id="path16"
         d="M 0,255.21 H 255.21 V 0 H 0 Z" /></clipPath></defs><g
     transform="matrix(1.3333333,0,0,-1.3333333,0,340.28)"
     id="g10"><g
       id="g12"><g
         clip-path="url(#clipPath18)"
         id="g14"><g
           transform="translate(0.5,127.6053)"
           id="g20"><path
             id="path22"
             style="fill:#c44d58;fill-opacity:1;fill-rule:nonzero;stroke:none"
             d="M 0,0 C 0,70.198 56.907,127.105 127.105,127.105 197.304,127.105 254.21,70.198 254.21,0 254.21,-70.198 197.304,-127.105 127.105,-127.105 56.907,-127.105 0,-70.198 0,0" /></g><g
           transform="translate(0.5,127.6053)"
           id="g24"><path
             id="path26"
             style="fill:none;stroke:#ff6b6b;stroke-width:1;stroke-linecap:butt;stroke-linejoin:miter;stroke-miterlimit:10;stroke-dasharray:none;stroke-opacity:1"
             d="M 0,0 C 0,70.198 56.907,127.105 127.105,127.105 197.304,127.105 254.21,70.198 254.21,0 254.21,-70.198 197.304,-127.105 127.105,-127.105 56.907,-127.105 0,-70.198 0,0 Z" /></g><g
           transform="translate(195.7666,40.8582)"
           id="g28"><path
             id="path30"
             style="fill:#fbafa7;fill-opacity:1;fill-rule:nonzero;stroke:none"
             d="m 0,0 c 0,-4.211 -27.802,-7.625 -62.097,-7.625 -34.296,0 -62.097,3.414 -62.097,7.625 0,4.211 27.801,7.625 62.097,7.625 C -27.802,7.625 0,4.211 0,0" /></g><g
           transform="translate(77.2198,170.4124)"
           id="g32"><path
             id="path34"
             style="fill:#34227a;fill-opacity:1;fill-rule:nonzero;stroke:none"
             d="m 0,0 -10.217,-8.106 c -0.546,-0.433 -1.343,-0.319 -1.745,0.25 l -18.263,25.815 c -0.37,0.523 -0.269,1.244 0.23,1.646 l 13.542,10.925 c 0.548,0.442 1.354,0.327 1.757,-0.249 L 3.47,4.318 C 3.833,3.8 3.736,3.09 3.249,2.687 Z" /></g><g
           transform="translate(76.1436,171.3147)"
           id="g36"><path
             id="path38"
             style="fill:#19114c;fill-opacity:1;fill-rule:nonzero;stroke:none"
             d="M 0,0 -9.395,-7.454 C -9.896,-7.852 -10.63,-7.747 -11,-7.224 l -16.793,23.739 c -0.34,0.481 -0.248,1.143 0.211,1.513 l 12.453,10.046 c 0.503,0.405 1.244,0.301 1.615,-0.229 L 3.19,3.971 C 3.523,3.494 3.436,2.841 2.987,2.471 Z" /></g><g
           transform="translate(123.0655,232.0545)"
           id="g40"><path
             id="path42"
             style="fill:#310382;fill-opacity:1;fill-rule:nonzero;stroke:none"
             d="m 0,0 c 0,0 -20.279,-5.441 -20.032,-18.548 0.247,-13.108 5.811,-12.366 5.811,-12.366 0,0 5.812,-25.473 1.608,-41.795 -4.204,-16.323 42.29,-18.301 45.01,0 2.721,18.3 -7.667,28.44 -6.677,36.602 0.989,8.161 3.525,26.214 -4.42,33.386 C 13.354,4.452 0,0 0,0" /></g><g
           transform="translate(122.0147,178.9446)"
           id="g44"><path
             id="path46"
             style="fill:#ffd63f;fill-opacity:1;fill-rule:nonzero;stroke:none"
             d="m 0,0 c 0,0 -7.481,0.68 -12.181,-7.605 -4.698,-8.285 -5.688,-8.903 -5.688,-8.903 0,0 5.317,-5.441 9.645,-4.947 0,0 -0.371,-4.596 1.855,-11.139 2.226,-6.543 2.721,-4.812 2.721,-4.812 0,0 9.46,-3.462 16.322,0.247 0,0 0.989,7.667 6.554,17.065 0,0 1.607,-4.947 1.113,-7.42 0,0 6.064,-0.799 9.15,2.103 0,0 -1.483,26.709 -20.96,26.524 z" /></g><g
           transform="translate(152.125,42.9856)"
           id="g48"><path
             id="path50"
             style="fill:#19114c;fill-opacity:1;fill-rule:nonzero;stroke:none"
             d="m 0,0 c 0,0 10.294,-4.003 15.823,-4.194 0,0 6.482,0.572 -10.295,8.197 0,0 -2.669,-2.478 -5.719,-1.334 z" /></g><g
           transform="translate(130.3555,42.9856)"
           id="g52"><path
             id="path54"
             style="fill:#19114c;fill-opacity:1;fill-rule:nonzero;stroke:none"
             d="m 0,0 c 0,0 -10.294,-4.003 -15.823,-4.194 0,0 -6.482,0.572 10.295,8.197 0,0 2.669,-2.478 5.718,-1.334 z" /></g><g
           transform="translate(109.2159,209.9202)"
           id="g56"><path
             id="path58"
             style="fill:#f89b5b;fill-opacity:1;fill-rule:nonzero;stroke:none"
             d="m 0,0 c 0,0 -3.339,-14.097 10.017,-20.032 4.822,-2.597 13.725,-1.113 19.29,5.564 0,0 8.161,2.411 5.193,8.532 -2.04,3.524 -6.863,-0.185 -6.863,-0.185 0,0 -10.016,0.557 -13.911,14.097 C 13.726,7.976 4.637,0.927 0,0" /></g><g
           transform="translate(122.0147,178.9446)"
           id="g60"><path
             id="path62"
             style="fill:#f89b5b;fill-opacity:1;fill-rule:nonzero;stroke:none"
             d="m 0,0 c 0,0 1.483,2.9 0,9.982 0,0 3.099,-0.351 6.975,0.376 0,0 -0.298,-7.391 1.556,-9.245 0,0 -2.596,-11.315 -8.531,-10.387 C -2.782,-7.976 0,0 0,0" /></g><g
           transform="translate(118.3663,141.5388)"
           id="g64"><path
             id="path66"
             style="fill:#34227a;fill-opacity:1;fill-rule:nonzero;stroke:none"
             d="m 0,0 c 0,0 -12.365,-17.559 -6.925,-44.763 5.442,-27.204 12.366,-51.441 12.366,-51.441 0,0 3.338,-1.236 6.739,0 0,0 -2.411,27.204 0,51.441 0,0 -8.63,23.099 -5.75,43.295 0,0 -2.967,0.231 -6.43,1.468" /></g><g
           transform="translate(134.6885,141.7859)"
           id="g68"><path
             id="path70"
             style="fill:#464195;fill-opacity:1;fill-rule:nonzero;stroke:none"
             d="m 0,0 c 0,0 12.86,-12.299 13.603,-37.558 0.742,-25.259 10.881,-57.656 10.881,-57.656 0,0 -3.71,-2.336 -7.667,-1.786 0,0 -13.725,35.42 -20.96,51.99 0,0 -9.706,25.504 -5.75,43.295 0,0 5.936,-0.758 9.893,1.715" /></g><g
           transform="translate(106.9473,160.0647)"
           id="g72"><path
             id="path74"
             style="fill:#f89b5b;fill-opacity:1;fill-rule:nonzero;stroke:none"
             d="m 0,0 c 0,0 -7.871,-11.107 -14.301,-1.709 -6.43,9.398 -10.882,16.323 -10.882,16.323 0,0 0.186,7.326 -5.471,6.399 -5.658,-0.928 -5.286,-4.638 -3.71,-4.73 1.576,-0.093 3.617,0.927 4.544,0.556 0.927,-0.371 -1.205,-2.689 0.092,-6.491 L -32.51,8.307 c 0,0 1.485,-1.948 5.843,-2.689 0,0 8.161,-16.415 13.077,-18.734 4.915,-2.319 12.211,-1.638 20.434,10.541 0,0 -4.043,0.203 -6.844,2.575" /></g><g
           transform="translate(143.7207,151.3387)"
           id="g76"><path
             id="path78"
             style="fill:#f89b5b;fill-opacity:1;fill-rule:nonzero;stroke:none"
             d="m 0,0 c 0,0 1.355,-28.472 1.479,-34.531 0.124,-6.059 6.43,-7.419 8.532,-5.564 2.102,1.854 -1.608,3.462 -2.72,3.586 -1.113,0.123 2.349,0.37 1.483,3.957 -0.865,3.586 -2.967,3.956 -2.472,7.295 0.494,3.339 2.101,14.839 1.483,27.452 C 7.785,2.195 5.165,0.052 0,0" /></g><g
           transform="translate(117.4454,204.7649)"
           id="g80"><path
             id="path82"
             style="fill:#d07e4d;fill-opacity:1;fill-rule:nonzero;stroke:none"
             d="m 0,0 c 0,0 -1.233,-2.568 -2.877,-3.596 -1.644,-1.027 -0.102,-3.287 1.027,-3.082 l 1.13,0.205 z" /></g><g
           transform="translate(120.3028,205.8953)"
           id="g84"><path
             id="path86"
             style="fill:#d07e4d;fill-opacity:1;fill-rule:nonzero;stroke:none"
             d="m 0,0 c 1.078,-0.581 2.094,-0.974 3.129,-0.934 0.513,0.016 1.031,0.101 1.552,0.283 0.266,0.071 0.516,0.205 0.793,0.297 C 5.74,-0.238 6,-0.103 6.303,0 6.14,-0.261 5.946,-0.504 5.739,-0.739 5.503,-0.935 5.281,-1.171 4.999,-1.321 4.466,-1.678 3.806,-1.852 3.145,-1.884 1.796,-1.915 0.532,-1.116 0,0" /></g><g
           transform="translate(112.3077,207.95)"
           id="g88"><path
             id="path90"
             style="fill:#d07e4d;fill-opacity:1;fill-rule:nonzero;stroke:none"
             d="m 0,0 c 0.477,-0.695 0.863,-1.262 1.343,-1.472 0.233,-0.116 0.512,-0.171 0.852,-0.186 l 0.537,0.002 c 0.191,0.013 0.385,0.03 0.608,0.012 C 3.083,-1.984 2.739,-2.244 2.321,-2.389 1.906,-2.542 1.387,-2.538 0.927,-2.325 0.471,-2.098 0.152,-1.687 0.017,-1.267 -0.124,-0.847 -0.146,-0.409 0,0" /></g><g
           transform="translate(116.1094,196.4969)"
           id="g92"><path
             id="path94"
             style="fill:#d07e4d;fill-opacity:1;fill-rule:nonzero;stroke:none"
             d="m 0,0 c 1.389,-0.4 2.694,-0.723 3.991,-0.702 0.65,-0.014 1.277,0.123 1.897,0.319 C 6.524,-0.199 7.09,0.165 7.739,0.514 7.378,-0.106 6.874,-0.703 6.197,-1.058 5.541,-1.438 4.769,-1.65 4.006,-1.652 3.244,-1.651 2.494,-1.504 1.812,-1.216 1.132,-0.932 0.496,-0.541 0,0" /></g><g
           transform="translate(175.3194,25.0701)"
           id="g96"><path
             id="path98"
             style="fill:#fbafa7;fill-opacity:1;fill-rule:nonzero;stroke:none"
             d="m 0,0 c 0,-0.86 -6.609,-1.558 -14.763,-1.558 -8.153,0 -14.762,0.698 -14.762,1.558 0,0.86 6.609,1.557 14.762,1.557 C -6.609,1.557 0,0.86 0,0" /></g><g
           transform="translate(100.5196,51.5906)"
           id="g100"><path
             id="path102"
             style="fill:#fbafa7;fill-opacity:1;fill-rule:nonzero;stroke:none"
             d="m 0,0 c 0,-0.86 -6.61,-1.558 -14.764,-1.558 -8.153,0 -14.762,0.698 -14.762,1.558 0,0.86 6.609,1.558 14.762,1.558 C -6.61,1.558 0,0.86 0,0" /></g><g
           transform="translate(92.379,51.1902)"
           id="g104"><path
             id="path106"
             style="fill:#9673d0;fill-opacity:1;fill-rule:nonzero;stroke:none"
             d="m 0,0 c 0,0 6.033,9.743 0.502,14.991 -4.067,2.929 -8.705,-2.197 -11.269,0.732 -2.562,2.929 9.155,12.571 5.371,17.454 -3.784,4.882 -11.351,5.248 -15.745,1.098 -4.393,-4.15 2.685,-27.419 8.178,-34.275 0,0 7.251,-0.833 12.963,0" /></g><g
           transform="translate(86.2383,50.8201)"
           id="g108"><path
             id="path110"
             style="fill:#310382;fill-opacity:1;fill-rule:nonzero;stroke:none"
             d="m 0,0 c -2.305,2.479 -4.285,5.261 -5.951,8.223 -1.67,2.957 -2.948,6.177 -3.5,9.569 -0.299,1.694 -0.246,3.432 -0.064,5.142 0.285,1.675 0.562,3.358 1.054,4.99 0.472,1.634 1.044,3.244 1.793,4.774 0.775,1.503 1.667,3.006 2.97,4.102 -1.194,-1.2 -2.008,-2.707 -2.677,-4.239 -0.68,-1.535 -1.19,-3.14 -1.596,-4.768 -0.409,-1.628 -0.7,-3.284 -0.951,-4.944 -0.152,-1.648 -0.186,-3.317 0.121,-4.958 0.482,-3.299 1.739,-6.458 3.293,-9.429 0.756,-1.501 1.64,-2.937 2.557,-4.35 C -2.044,2.691 -1.05,1.326 0,0" /></g></g></g></g></svg>