<svg width="44" height="44" fill="none" xmlns="http://www.w3.org/2000/svg"><path d="M34.813 0H9.187C4.12 0 0 4.121 0 9.187v25.626C0 39.88 4.121 44 9.187 44h25.626C39.88 44 44 39.879 44 34.813V9.187C44 4.12 39.879 0 34.813 0zM9.187 41.422a6.616 6.616 0 0 1-6.609-6.608V17.56h6.834a13.627 13.627 0 0 0-1.118 5.418c0 7.558 6.149 13.706 13.706 13.706 7.557 0 13.706-6.148 13.706-13.706 0-1.923-.4-3.755-1.118-5.418h6.834v17.252a6.616 6.616 0 0 1-6.608 6.609H9.186zM34.814 2.578a6.616 6.616 0 0 1 6.608 6.609v5.795h-8.298C30.634 11.527 26.575 9.273 22 9.273s-8.633 2.254-11.124 5.71H2.578V9.186a6.616 6.616 0 0 1 6.609-6.609h25.627zM33.127 22.98c0 6.136-4.992 11.128-11.128 11.128s-11.128-4.992-11.128-11.128S15.864 11.852 22 11.852s11.128 4.991 11.128 11.127z" fill="#FF8830"/><path d="M34.143 7.305h2.578v2.578h-2.578V7.305zM14.17 22.98c0 4.317 3.512 7.83 7.83 7.83s7.83-3.513 7.83-7.83c0-4.318-3.512-7.831-7.83-7.831s-7.83 3.513-7.83 7.83zm13.082 0A5.258 5.258 0 0 1 22 28.231a5.258 5.258 0 0 1-5.252-5.253A5.258 5.258 0 0 1 22 17.727a5.258 5.258 0 0 1 5.252 5.252z" fill="#FF8830"/></svg>