<?xml version="1.0" encoding="utf-8"?>
<!-- Generator: Adobe Illustrator 24.1.2, SVG Export Plug-In . SVG Version: 6.00 Build 0)  -->
<svg version="1.1" id="Слой_1" xmlns:xodm="http://www.corel.com/coreldraw/odm/2003"
	 xmlns="http://www.w3.org/2000/svg" xmlns:xlink="http://www.w3.org/1999/xlink" x="0px" y="0px" viewBox="0 0 84.3 200.1"
	 style="enable-background:new 0 0 84.3 200.1;" xml:space="preserve">
<style type="text/css">
	.st0{fill-rule:evenodd;clip-rule:evenodd;fill:#FF0000;}
	.st1{fill-rule:evenodd;clip-rule:evenodd;}
</style>
<g id="Слой_x0020_1">
	<path class="st0" d="M35.5,5.2c16.4-6.8,31.8-7,34.5-0.4s-8.3,17.3-24.7,24.1c-16.4,6.8-31.8,7-34.5,0.4C8.1,22.8,19.2,12,35.5,5.2
		z"/>
	<path class="st1" d="M23.8,65.3c1,0,2.4-0.5,4.8-1.9s5.8-3.8,9.4-6.5c3.6-2.6,7.4-5.5,9.6-7.2c2.1-1.7,2.6-2.2,2.6-4.1
		c0-1.9-0.5-5.3-1.2-7.4c-0.7-2.2-1.7-3.1-2.9-3.8c-1.2-0.7-2.6-1.2-4.6-1c-1.9,0.2-4.3,1.2-6.5,2.2s-4.1,1.9-5.3,3.4
		s-1.7,3.4-2.4,6.5c-0.7,3.1-1.7,7.4-2.6,10.8c-1,3.4-1.9,5.8-2.2,7.2C22.3,64.8,22.8,65.3,23.8,65.3L23.8,65.3z M66.5,117.4
		c-1.4-0.7-4.3-3.1-6.5-5.3s-3.6-4.1-4.6-5.5s-1.4-2.4-1.2-3.6c0.2-1.2,1.2-2.6,1.7-3.8c0.5-1.2,0.5-2.2-0.7-2.6
		c-1.2-0.5-3.6-0.5-5.5-0.7s-3.4-0.7-5.8-2.9s-5.8-6-8.2-9.1s-3.8-5.5-4.6-7.2s-0.7-2.6,1-4.8c1.7-2.1,5-5.5,8.2-8.4
		c3.1-2.9,6-5.3,8.2-6.5s3.6-1.2,4.5-0.2c1,1,1.4,2.9,2.6,7.7s3.1,12.5,5,20.1s3.8,15.4,5,20.6s1.7,8.2,1.9,10.1
		C67.9,117.1,67.9,118.1,66.5,117.4L66.5,117.4z M15.8,125c2.2-1.7,5.5-4.5,9.4-7.7c3.8-3.1,8.2-6.5,10.6-8.9s2.9-3.8,2.4-5.8
		c-0.5-1.9-1.9-4.3-4.8-7.4s-7.2-6.9-9.8-8.9C21,84.4,20,84.4,19,86.1c-2.9,5-11.2,41-7,41C12.7,127.2,13.7,126.7,15.8,125L15.8,125
		z M0,187.4c0.2-4.1,1.7-11.8,2.9-18.5s2.2-12.5,3.4-16.1c1.2-3.6,2.6-5,5.5-7.9s7.2-7.2,11.5-11.5s8.6-8.6,11.5-12s4.3-5.8,6.5-7
		s5-1.2,7.9-0.5s5.8,2.2,8.4,4.6s5,5.8,7.4,8.9s4.8,6,6,9.1s1.2,6.5,1.7,11.5s1.4,11.8,3.6,19.2s5.5,15.6,7,21.4s1,9.1-0.2,10.6
		c-1.2,1.4-3.1,1-5.8-0.7s-6-4.6-10.8-7.4c-4.8-2.9-11-5.8-17.3-7.4c-6.2-1.7-12.5-2.2-18.5-2.2s-11.8,0.5-16.5,2.4
		c-4.8,1.9-8.6,5.3-11,6.7S-0.2,191.5,0,187.4z M33.4,138c-1,0.2-1.9,0.7-0.2,2.9c1.7,2.2,6,6,11,12s10.8,14.2,14.6,19.9
		s5.8,9.1,7.2,10.5s2.4,1,3.1-0.2s1.2-3.1,0.5-5.8c-0.7-2.6-2.6-6-5.3-9.8c-2.6-3.8-6-8.2-9.8-12.2s-8.1-7.9-11.3-10.8
		s-5-4.8-6.5-5.8C35.3,137.8,34.3,137.8,33.4,138L33.4,138z"/>
</g>
</svg>
