<svg width="40" height="40" fill="none" xmlns="http://www.w3.org/2000/svg"><g clip-path="url(#clip0)" fill="#fff"><path d="M32.212 26.863H18.252c-2.016 0-4.173-1.469-4.912-3.344L7.697 9.197c-.298-.756-1.347-1.47-2.16-1.47H1.479a1.478 1.478 0 1 1 0-2.958h4.058c2.016 0 4.173 1.469 4.912 3.345l5.642 14.321c.298.757 1.348 1.471 2.16 1.471h13.961c.793 0 1.793-.706 2.057-1.453l2.72-7.686c.076-.215.057-.347.036-.377-.021-.03-.138-.09-.366-.09H17.403a1.479 1.479 0 0 1 0-2.958H36.66c1.165 0 2.178.489 2.781 1.341.603.853.726 1.972.337 3.07l-2.72 7.686c-.68 1.92-2.807 3.424-4.845 3.424zM14.45 35.231a3.286 3.286 0 1 0 0-6.572 3.286 3.286 0 0 0 0 6.572zM35.52 35.231a3.286 3.286 0 1 0 0-6.572 3.286 3.286 0 0 0 0 6.572z"/><path d="M32.16 17.845H19.1a.74.74 0 1 1 0-1.478H32.16a.739.739 0 1 1 0 1.478zM31.161 21.542h-10.73a.74.74 0 0 1 0-1.479h10.73a.74.74 0 1 1 0 1.479z"/></g><defs><clipPath id="clip0"><path fill="#fff" d="M0 0h40v40H0z"/></clipPath></defs></svg>