<svg width="30" height="31" fill="none" xmlns="http://www.w3.org/2000/svg"><path d="M14.589 7.327c-4.144 0-7.488 3.449-7.488 7.722 0 4.273 3.344 7.721 7.488 7.721 4.143 0 7.487-3.448 7.487-7.721s-3.344-7.722-7.487-7.722zm0 12.74c-2.68 0-4.866-2.255-4.866-5.018 0-2.764 2.186-5.019 4.866-5.019 2.68 0 4.866 2.255 4.866 5.019 0 2.763-2.187 5.018-4.866 5.018zm7.794-14.856c-.968 0-1.749.806-1.749 1.804 0 .997.781 1.803 1.749 1.803.967 0 1.748-.802 1.748-1.803a1.85 1.85 0 0 0-.132-.69 1.807 1.807 0 0 0-.38-.586 1.743 1.743 0 0 0-.567-.39 1.7 1.7 0 0 0-.67-.138zm6.8 9.838c0-2.078.019-4.138-.094-6.212-.113-2.41-.646-4.548-2.355-6.31C25.022.762 22.952.216 20.616.1 18.6-.018 16.604.001 14.592.001 12.577.001 10.58-.018 8.57.1c-2.336.117-4.41.666-6.118 2.428C.739 4.293.209 6.427.096 8.837c-.113 2.078-.095 4.137-.095 6.212 0 2.074-.018 4.137.095 6.212.113 2.409.646 4.547 2.355 6.31 1.712 1.765 3.782 2.31 6.118 2.427 2.015.117 4.012.098 6.023.098 2.016 0 4.012.02 6.024-.098 2.336-.116 4.41-.666 6.118-2.428 1.712-1.765 2.242-3.9 2.355-6.31.117-2.074.095-4.133.095-6.211zm-3.212 8.877a4.797 4.797 0 0 1-1.102 1.724 4.662 4.662 0 0 1-1.672 1.137c-1.92.787-6.48.61-8.608.61-2.129 0-6.692.177-8.612-.606a4.63 4.63 0 0 1-1.672-1.137 4.831 4.831 0 0 1-1.102-1.724c-.76-1.984-.588-6.686-.588-8.881 0-2.195-.172-6.901.588-8.881a4.799 4.799 0 0 1 1.102-1.725 4.71 4.71 0 0 1 1.672-1.136c1.92-.784 6.483-.607 8.612-.607 2.128 0 6.691-.177 8.611.607a4.63 4.63 0 0 1 1.672 1.136c.515.531.836 1.04 1.103 1.725.76 1.98.588 6.686.588 8.88 0 2.196.171 6.898-.592 8.878z" fill="#ED3F5E"/></svg>