<svg width="128" height="128" fill="none" xmlns="http://www.w3.org/2000/svg"><path d="M19.67 26l8.069 90.493 36.206 10.05 36.307-10.063L108.33 26H19.67zm69.21 50.488L86.53 98.38l.009 1.875-22.54 6.295v.001l-.017.015-22.72-6.225L39.727 83h11.14l.79 8.766 12.348 3.295-.004.015v-.032l12.394-3.495L77.702 77H51.795l-.222-2.355-.506-5.647L50.802 66h27.886l1.014-11H37.229l-.223-2.589-.506-6.03L36.235 43h55.597l-.267 3.334-2.685 30.154zM89 14.374L81.851 6H89V1H73v4.363L81.39 13H73v5h16v-3.626zm-19 0L63.193 6H70V1H55v4.363L62.733 13H55v5h15v-3.626zM52 13h-8V6h8V1H38v17h14v-5z" fill="#1572B6"/></svg>