<svg width="109" height="109" fill="none" xmlns="http://www.w3.org/2000/svg"><path d="M0 3.648v4.815a3.663 3.663 0 0 1 3.648 3.648A3.663 3.663 0 0 1 0 15.76v4.815a3.663 3.663 0 0 1 3.648 3.648A3.663 3.663 0 0 1 0 27.87v4.815a3.663 3.663 0 0 1 3.648 3.648A3.663 3.663 0 0 1 0 39.982v4.814a3.663 3.663 0 0 1 3.648 3.648A3.663 3.663 0 0 1 0 52.093v4.814a3.663 3.663 0 0 1 3.648 3.649A3.663 3.663 0 0 1 0 64.204v4.814a3.663 3.663 0 0 1 3.648 3.649A3.663 3.663 0 0 1 0 76.315v4.814a3.663 3.663 0 0 1 3.648 3.649A3.663 3.663 0 0 1 0 88.426v4.815a3.663 3.663 0 0 1 3.648 3.648A3.663 3.663 0 0 1 0 100.537v4.815c.957 0 1.914.388 2.572 1.076A3.648 3.648 0 0 1 3.648 109h4.815a3.662 3.662 0 0 1 3.648-3.648A3.662 3.662 0 0 1 15.76 109h4.815a3.662 3.662 0 0 1 3.648-3.648A3.662 3.662 0 0 1 27.87 109h4.815a3.662 3.662 0 0 1 3.648-3.648A3.662 3.662 0 0 1 39.982 109h4.814a3.662 3.662 0 0 1 3.648-3.648A3.662 3.662 0 0 1 52.093 109h4.814a3.662 3.662 0 0 1 3.649-3.648A3.662 3.662 0 0 1 64.204 109h4.814a3.662 3.662 0 0 1 3.649-3.648A3.662 3.662 0 0 1 76.315 109h4.814a3.662 3.662 0 0 1 3.649-3.648A3.662 3.662 0 0 1 88.426 109h4.815a3.662 3.662 0 0 1 3.648-3.648 3.662 3.662 0 0 1 3.648 3.648h4.815c0-.957.388-1.914 1.076-2.572a3.647 3.647 0 0 1 2.572-1.076v-4.815a3.662 3.662 0 0 1-3.648-3.648A3.662 3.662 0 0 1 109 93.24v-4.815a3.662 3.662 0 0 1-3.648-3.648A3.662 3.662 0 0 1 109 81.129v-4.814a3.662 3.662 0 0 1-3.648-3.648A3.662 3.662 0 0 1 109 69.018v-4.814a3.662 3.662 0 0 1-3.648-3.648A3.662 3.662 0 0 1 109 56.907v-4.725a3.662 3.662 0 0 1-3.648-3.648A3.662 3.662 0 0 1 109 44.886V40.07a3.662 3.662 0 0 1-3.648-3.648A3.662 3.662 0 0 1 109 32.775V27.96a3.662 3.662 0 0 1-3.648-3.648A3.662 3.662 0 0 1 109 20.664v-4.815a3.662 3.662 0 0 1-3.648-3.648A3.662 3.662 0 0 1 109 8.553V3.648c-.957 0-1.914-.388-2.572-1.076A3.646 3.646 0 0 1 105.352 0h-4.815a3.663 3.663 0 0 1-3.648 3.648A3.663 3.663 0 0 1 93.24 0h-4.815a3.663 3.663 0 0 1-3.648 3.648A3.663 3.663 0 0 1 81.129 0h-4.814a3.663 3.663 0 0 1-3.648 3.648A3.663 3.663 0 0 1 69.018 0h-4.814a3.663 3.663 0 0 1-3.648 3.648A3.663 3.663 0 0 1 56.907 0h-4.814a3.663 3.663 0 0 1-3.649 3.648A3.663 3.663 0 0 1 44.796 0h-4.814a3.663 3.663 0 0 1-3.649 3.648A3.663 3.663 0 0 1 32.685 0H27.87a3.663 3.663 0 0 1-3.648 3.648A3.663 3.663 0 0 1 20.574 0h-4.815a3.663 3.663 0 0 1-3.648 3.648A3.663 3.663 0 0 1 8.463 0H3.648c0 .957-.388 1.914-1.076 2.572C1.914 3.26.957 3.648 0 3.648z" fill="url(#paint0_linear)"/><path d="M92.972 43.66H38.516l2.841-13.307h33.194l3.05-14.324H29.874L14.862 86.9h14.414l6.609-30.95h34.569L40.4 85.704l5.293 9.33c2.422-1.615 6.4-1.824 9.15-1.824 4.875 0 9.66 1.615 14.624 1.615 4.545 0 9.24-.3 16.836-3.948l2.661-12.5c-5.173 2.123-12.828 4.157-19.497 4.157-2.751 0-5.263-.598-7.925-1.017L90.67 53.2l2.303-9.54z" fill="#fff"/><defs><linearGradient id="paint0_linear" x1="54.579" y1="13.181" x2="54.579" y2="97.497" gradientUnits="userSpaceOnUse"><stop stop-color="#BF0000"/><stop offset="1" stop-color="#8F0000"/></linearGradient></defs></svg>