<svg width="128" height="128" fill="none" xmlns="http://www.w3.org/2000/svg"><path d="M76.004 50.588c-7.655 0-11.46 3.996-11.46 9.75 0 3.704 1.853 6.328 4.305 7.529-1.201 1.1-2.201 2.064-3.102 3.014-.902.952-1.452 1.957-1.452 3.059 0 1.352.55 2.605 2.202 3.303-1.751 1.654-2.753 2.854-2.753 5.107 0 3.953 3.453 6.256 12.51 6.256 8.709 0 13.762-3.251 13.762-9.007 0-6.653-5.103-6.904-13.761-7.456l-4.904-.3 1.652-2.652c.899.25 2.352.45 3.955.45 6.304 0 10.658-3.252 10.658-8.808 0-2.302-1.137-3.903-2.037-5.055l4.42-.35V51h-9.39c-1.15 0-2.453-.412-4.605-.412zm2.252 28.51c2.404.15 4.306.25 4.306 1.855 0 2.699-3.955 2.902-6.856 2.902-3.504 0-6.056-.602-6.056-2.603 0-1.002.65-1.852 1.302-2.652l7.304.499zm-1.95-14.711c-3.303 0-4.654-1.703-4.654-4.154 0-3.253 2.05-4.605 4.804-4.605 2.852 0 4.554 1.552 4.554 4.504 0 2.604-1.902 4.255-4.703 4.255zm22.867-17.702c2.902 0 4.554-1.652 4.554-4.506 0-2.85-1.652-4.403-4.554-4.403-2.853 0-4.505 1.553-4.505 4.403 0 2.853 1.652 4.506 4.505 4.506zM103 71.455V51h-9.733l-.55 3.896 2.667.874c.502.149.616.423.616.973v14.712c0 .752-.422.902-1.123 1.003l-2.877.35V77h15v-4.192l-2.876-.35c-.753-.101-1.124-.2-1.124-1.003zm22.418-1.04c-1.202.45-2.632.799-4.035.799-2.701 0-3.383-1.15-3.383-4.103V55h7v-5h-6.638c-.401 0-.362-.003-.362-.353V43h-4.793c-.55 5-3.207 7.196-7.207 7.698V55h4.003c.401 0-.003.353-.003.652v13.11c0 5.658 2.454 8.059 8.408 8.059 2.854 0 6.107-.951 8.26-2.001l-1.25-4.405zm-95.68-31.61a3.375 3.375 0 0 0-4.773 0l-4.751 4.752 6.027 6.027a4.007 4.007 0 0 1 5.076 5.11l5.809 5.809a4.012 4.012 0 0 1 4.149 6.632 4.014 4.014 0 0 1-5.68 0c-1.18-1.181-1.624-2.914-1.025-4.368L29 57.35v14.257c0 .189.895.44 1.214.759 1.568 1.568 1.644 4.11.075 5.68a3.972 3.972 0 0 1-5.642 0c-1.568-1.57-1.55-4.111.02-5.68.388-.387.333-.68 1.333-.876V57.1c-1-.195-.927-.486-1.314-.875a4.016 4.016 0 0 1-.865-4.39l-5.942-5.943L2.189 61.58a3.374 3.374 0 0 0 0 4.774l22.883 22.88a3.377 3.377 0 0 0 4.773 0L52.62 66.46a3.378 3.378 0 0 0 0-4.774l-22.882-22.88z" fill="#F34F29"/></svg>