<svg width="128" height="128" fill="none" xmlns="http://www.w3.org/2000/svg"><path d="M19.57 27l8.086 89.919 36.29 9.682 36.389-9.499L108.431 27H19.569zm72.04 20.471l-.507 5.834L90.88 56H48.311l1.017 12h40.54l-.27 2.231-2.616 28.909-.192 1.69L64 106.964v-.005l-.027.012-22.777-5.916L39.65 84h11.168l.791 8.46 12.385 3.139.006-.234v.012l12.412-2.649L77.708 79H39.153L36.42 48.164 36.152 45h55.724l-.266 2.471zM27.956 1.627h5.622v5.556h5.144V1.627h5.623v16.822h-5.623v-5.633H33.58v5.633h-5.623V1.627zm23.782 5.579h-4.95v-5.58h15.525v5.58h-4.952v11.243h-5.623V7.206zm13.04-5.58h5.861l3.607 5.912 3.603-5.911h5.865v16.822h-5.6v-8.338l-3.868 5.981h-.098l-3.87-5.981v8.338h-5.502V1.627h.001zm21.735.001h5.624v11.262h7.907v5.561h-13.53V1.627z" fill="#E44D26"/></svg>