<svg width="80" height="57" fill="none" xmlns="http://www.w3.org/2000/svg"><path d="M74.483 57H5.517C2.483 57 0 55.425 0 53.5S2.483 50 5.517 50h68.966C77.517 50 80 51.575 80 53.5S77.517 57 74.483 57z" fill="url(#paint0_linear)"/><path d="M74.483 7H5.517C2.483 7 0 5.425 0 3.5S2.483 0 5.517 0h68.966C77.517 0 80 1.575 80 3.5S77.517 7 74.483 7z" fill="url(#paint1_linear)"/><path d="M74.483 32H5.517C2.483 32 0 30.425 0 28.5S2.483 25 5.517 25h68.966C77.517 25 80 26.575 80 28.5S77.517 32 74.483 32z" fill="url(#paint2_linear)"/><defs><linearGradient id="paint0_linear" x1="97" y1="60.467" x2="10.107" y2="35.631" gradientUnits="userSpaceOnUse"><stop stop-color="#FF8830"/><stop offset="1" stop-color="#30FFE6"/></linearGradient><linearGradient id="paint1_linear" x1="97" y1="10.467" x2="10.107" y2="-14.369" gradientUnits="userSpaceOnUse"><stop stop-color="#FF8830"/><stop offset="1" stop-color="#30FFE6"/></linearGradient><linearGradient id="paint2_linear" x1="97" y1="35.467" x2="10.107" y2="10.631" gradientUnits="userSpaceOnUse"><stop stop-color="#FF8830"/><stop offset="1" stop-color="#30FFE6"/></linearGradient></defs></svg>