<svg width="18" height="19" fill="none" xmlns="http://www.w3.org/2000/svg"><g clip-path="url(#clip0_666_638)" fill="#968E8E"><path d="M4.518 1.018c.69 0 1.367.204 1.941.586a3.481 3.481 0 0 1 1.287 1.56 3.462 3.462 0 0 1-.757 3.79 3.5 3.5 0 0 1-3.809.754 3.491 3.491 0 0 1-1.568-1.28 3.466 3.466 0 0 1 .434-4.392 3.504 3.504 0 0 1 2.472-1.018m0-1.018c-.894 0-1.767.264-2.51.758A4.5 4.5 0 0 0 .344 2.775a4.475 4.475 0 0 0 .98 4.9 4.538 4.538 0 0 0 4.923.975 4.513 4.513 0 0 0 2.027-1.657 4.48 4.48 0 0 0-.562-5.676A4.529 4.529 0 0 0 4.518 0zM4.518 11.027c.69 0 1.367.204 1.941.586a3.482 3.482 0 0 1 1.287 1.56 3.462 3.462 0 0 1-.757 3.79 3.5 3.5 0 0 1-3.809.754 3.491 3.491 0 0 1-1.568-1.28 3.466 3.466 0 0 1 .434-4.392 3.504 3.504 0 0 1 2.472-1.018zm0-1.018c-.894 0-1.767.263-2.51.757a4.5 4.5 0 0 0-1.664 2.018 4.475 4.475 0 0 0 .98 4.9 4.54 4.54 0 0 0 4.923.975A4.513 4.513 0 0 0 8.274 17a4.48 4.48 0 0 0-.562-5.676 4.529 4.529 0 0 0-3.194-1.317zM17.496.933h-5.755c-.27 0-.49.218-.49.486v1.232c0 .269.22.487.49.487h5.755c.27 0 .49-.218.49-.487V1.42a.488.488 0 0 0-.49-.486zM17.482 5.599h-5.727a.503.503 0 0 0-.503.5v1.204c0 .277.225.501.503.501h5.727a.503.503 0 0 0 .503-.501V6.1a.503.503 0 0 0-.503-.501zM17.507 10.685H11.76a.491.491 0 0 0-.493.49V12.4c0 .27.22.49.493.49h5.748c.272 0 .493-.22.493-.49v-1.225c0-.27-.22-.49-.493-.49zM17.495 15.435h-5.724a.503.503 0 0 0-.505.502v1.2c0 .278.226.503.505.503h5.724a.503.503 0 0 0 .505-.502v-1.201a.503.503 0 0 0-.505-.502z"/></g><defs><clipPath id="clip0_666_638"><path fill="#fff" d="M0 0h18v19H0z"/></clipPath></defs></svg>