<svg xmlns="http://www.w3.org/2000/svg" version="1.1" xmlns:xlink="http://www.w3.org/1999/xlink" xmlns:svgjs="http://svgjs.com/svgjs" width="512" height="512" x="0" y="0" viewBox="0 0 24 24" style="enable-background:new 0 0 512 512" xml:space="preserve" class=""><g><path d="m20.571 14.381h-3.234l.794-4.762h2.441a1.429 1.429 0 1 0 0-2.857h-1.965l.516-3.1a1.428 1.428 0 0 0 -2.818-.47l-.594 3.57h-5.676l.516-3.1a1.428 1.428 0 0 0 -2.818-.47l-.594 3.57h-3.71a1.429 1.429 0 1 0 0 2.857h3.234l-.794 4.762h-2.44a1.429 1.429 0 1 0 0 2.857h1.964l-.516 3.1a1.428 1.428 0 0 0 1.174 1.642 1.414 1.414 0 0 0 .237.02 1.428 1.428 0 0 0 1.407-1.194l.595-3.568h5.675l-.516 3.1a1.428 1.428 0 0 0 1.174 1.644 1.414 1.414 0 0 0 .237.02 1.428 1.428 0 0 0 1.407-1.194l.595-3.568h3.711a1.429 1.429 0 1 0 -.002-2.859zm-11.806 0 .794-4.762h5.675l-.794 4.762h-5.674z" data-original="#000000" class=""></path></g></svg>