<svg width="25" height="26" fill="none" xmlns="http://www.w3.org/2000/svg"><g clip-path="url(#clip0_858_324)" stroke="#fff" stroke-width="2" stroke-miterlimit="10"><path d="M15.205 1.164S25.732 0 23.783 10.478M9.818 24.708s-10.527 1.164-8.577-9.314M7.213 13.388c3.445 0 6.238-2.78 6.238-6.209S10.658.97 7.213.97C3.768.97.975 3.75.975 7.18c0 3.428 2.793 6.208 6.238 6.208zM17.74 25.03c3.446 0 6.239-2.78 6.239-6.21 0-3.428-2.793-6.208-6.239-6.208-3.445 0-6.238 2.78-6.238 6.209s2.793 6.209 6.238 6.209z"/></g><defs><clipPath id="clip0_858_324"><path fill="#fff" d="M0 0h25v26H0z"/></clipPath></defs></svg>