<svg width="21" height="23" fill="none" xmlns="http://www.w3.org/2000/svg"><g clip-path="url(#clip0_666_658)" fill="#968E8E"><path d="M5.22 12.444H3.5c-.008-.127-.02-.237-.02-.353V2.776c0-1.651 1.103-2.77 2.731-2.77 3.992-.004 7.986-.004 11.982 0 1.633 0 2.789 1.104 2.795 2.768.017 5.277.017 10.554 0 15.83 0 1.584-1.166 2.726-2.722 2.727-2.736.003-5.472.003-8.209 0h-.631c.608-.61 1.13-1.15 1.676-1.664.094-.09.286-.097.434-.098 2.177-.005 4.354-.005 6.532 0 .845 0 1.152-.31 1.152-1.16V2.896c0-.79-.294-1.09-1.078-1.09H6.32c-.821 0-1.1.281-1.1 1.104v9.535z"/><path d="M13.985 10.646H6.999c-.04-.92.29-1.688.87-2.36.581-.671 1.337-1.011 2.225-1.184-1.045-.451-1.534-1.237-1.348-2.111.08-.415.301-.787.626-1.051a1.74 1.74 0 0 1 2.27.062c.31.281.512.665.569 1.084.126.884-.37 1.637-1.367 1.999 1.91.433 2.988 1.566 3.14 3.56zM5.227 19.56H.002v-1.774h5.206v-3.409l4.265 4.334c-1.364 1.38-2.8 2.83-4.247 4.292l.001-3.442zM6.982 12.476h10.494V14.2c-.141.008-.266.02-.39.021h-8.95a1.124 1.124 0 0 1-.82-.337 1.157 1.157 0 0 1-.334-.832v-.577zM9.43 16.035h8.04v1.737h-.481c-1.826 0-3.655.006-5.48-.006a.827.827 0 0 1-.51-.195c-.515-.473-1.004-.978-1.568-1.536zM17.479 5.371v1.716H15.75V5.371h1.729zM15.74 10.646V8.923h1.729v1.72l-1.728.003z"/></g><defs><clipPath id="clip0_666_658"><path fill="#fff" d="M0 0h21v23H0z"/></clipPath></defs></svg>