<svg width="21" height="21" fill="none" xmlns="http://www.w3.org/2000/svg"><g clip-path="url(#clip0_666_647)" fill="#968E8E"><path d="M15.75 21H.002V.19.09c0-.026.006-.052.01-.088H11.98a.253.253 0 0 1 .197.081c1.163 1.166 2.329 2.33 3.495 3.493a.264.264 0 0 1 .085.205c-.003 1.767-.003 3.533 0 5.3v.135l.088.018c.238.044.48.074.714.136 1.713.459 2.983 1.475 3.809 3.047.374.71.585 1.493.617 2.294a.494.494 0 0 0 .016.078v.594a.22.22 0 0 0-.015.048c-.004.088 0 .176-.011.264a5.955 5.955 0 0 1-.22 1.1 5.905 5.905 0 0 1-4.25 4.02c-.22.052-.448.083-.673.124-.04.01-.08.008-.082.062zM1.323 1.314v18.357h10.05c-.034-.032-.054-.053-.076-.072a5.795 5.795 0 0 1-1.052-1.156.145.145 0 0 0-.151-.077.746.746 0 0 1-.082 0H2.724c-.03 0-.059-.005-.093-.009v-.132-3.71c0-.1.005-.198.016-.297.05-.438.269-.759.669-.95.22-.103.461-.154.704-.151h5.515a5.894 5.894 0 0 1 1.893-2.65 5.844 5.844 0 0 1 3.007-1.249V5.243h-3.798c-.044 0-.084-.004-.122-.007a.13.13 0 0 1-.006-.023c0-1.284-.001-2.569-.003-3.853l-.004-.03a.024.024 0 0 0-.004-.01c0-.003-.006-.004-.01-.007l-9.165.001zm9.182 13.772a4.606 4.606 0 0 0 4.595 4.592 4.6 4.6 0 0 0 4.59-4.592 4.594 4.594 0 0 0-4.592-4.59 4.602 4.602 0 0 0-4.593 4.59zM14.14 3.93l.008-.02-2.26-2.26-.045-.04a.013.013 0 0 0-.009 0 .033.033 0 0 0-.009.004V3.93l2.315-.001z"/><path d="M7.877 11.806a2.625 2.625 0 1 1 .007-5.25 2.625 2.625 0 0 1-.007 5.25zM17.17 14.432h.546v3.264c-.081.021-5.142.022-5.237 0v-3.263h.548v-.117c-.01-.389.018-.772.138-1.145.234-.722.719-1.173 1.465-1.323a2.262 2.262 0 0 1 1.28.096c.564.22.922.63 1.111 1.197.109.343.159.701.148 1.06v.23zm-1.322-.007a2.516 2.516 0 0 0-.005-.535 2.054 2.054 0 0 0-.097-.405.502.502 0 0 0-.42-.345 1.573 1.573 0 0 0-.468.002.51.51 0 0 0-.39.298.945.945 0 0 0-.069.192 2.17 2.17 0 0 0-.06.67c0 .04.009.08.013.123h1.496z"/></g><defs><clipPath id="clip0_666_647"><path fill="#fff" d="M0 0h21v21H0z"/></clipPath></defs></svg>