<svg width="21" height="21" fill="none" xmlns="http://www.w3.org/2000/svg"><g clip-path="url(#clip0_666_633)" fill="#968E8E"><path d="M11.111 21h-1.23c-.352-.044-.705-.076-1.054-.134-2.194-.367-4.106-1.31-5.68-2.882C.788 15.627-.25 12.762.052 9.444c.203-2.227 1.074-4.196 2.564-5.868C4.594 1.355 7.083.158 10.055.013c2.08-.101 4.035.386 5.812 1.474 2.717 1.662 4.384 4.068 4.97 7.206.074.393.11.794.165 1.191v1.23l-.05.443c-.252 2.26-1.115 4.253-2.638 5.943-1.618 1.794-3.622 2.915-6.007 3.336-.397.07-.797.11-1.196.164zm-9.73-10.495c.006 5.033 4.1 9.118 9.126 9.107 5.027-.012 9.098-4.082 9.104-9.107.006-5.026-4.083-9.117-9.115-9.117s-9.12 4.09-9.115 9.117z"/><path d="M10.082 4.45V3.34h.726v1.044c.467.1.916.157 1.341.292 1.395.442 2.09 1.587 2.067 3.04h-2.034c-.05-.482-.062-.989-.493-1.33-.247-.193-.54-.246-.87-.279v.21c0 .875.003 1.75-.004 2.625 0 .146.04.211.185.256.71.221 1.414.458 2.055.85 1.037.632 1.434 1.578 1.405 2.752-.048 1.986-1.524 3.108-3.263 3.283l-.377.04v1.54h-.726V16.17c-.479-.103-.94-.168-1.38-.303-1.289-.393-2.055-1.376-2.154-2.72-.018-.243-.003-.49-.003-.748h2.165c-.021.964.2 1.775 1.352 1.966.004-.075.011-.14.011-.203 0-.986-.003-1.97.004-2.954 0-.15-.052-.205-.184-.259-.543-.222-1.098-.423-1.611-.702-1.216-.66-1.694-1.696-1.475-3.07.23-1.448 1.257-2.444 2.748-2.661.162-.026.324-.044.515-.068zm.747 9.901c.793.013 1.429-.613 1.47-1.438.042-.803-.633-1.552-1.47-1.63v3.068zm-.752-5.475V6.134c-.953.092-1.532 1-1.162 1.833.22.494.682.695 1.162.91z"/></g><defs><clipPath id="clip0_666_633"><path fill="#fff" d="M0 0h21v21H0z"/></clipPath></defs></svg>