<svg width="42" height="42" fill="none" xmlns="http://www.w3.org/2000/svg"><g clip-path="url(#clip0_666_620)"><path fill-rule="evenodd" clip-rule="evenodd" d="M42 21c0 11.598-9.402 21-21 21S0 32.598 0 21 9.402 0 21 0s21 9.402 21 21zm-20.247-5.497c-2.043.85-6.125 2.608-12.247 5.275-.994.396-1.515.782-1.562 1.16-.08.64.72.891 1.81 1.234l.459.146c1.072.349 2.514.756 3.264.773.68.014 1.44-.266 2.278-.842 5.72-3.86 8.672-5.812 8.857-5.854.131-.03.313-.067.435.042.123.109.111.316.098.371-.08.338-3.22 3.259-4.847 4.77-.506.471-.866.806-.94.882-.164.17-.332.333-.493.488-.996.96-1.743 1.68.041 2.856.858.566 1.544 1.033 2.229 1.499.747.51 1.493 1.017 2.458 1.65.246.16.48.328.709.49.87.621 1.652 1.178 2.617 1.09.562-.052 1.141-.58 1.436-2.153.695-3.72 2.063-11.778 2.379-15.098a3.708 3.708 0 0 0-.035-.827c-.028-.163-.087-.396-.3-.569-.25-.204-.64-.247-.813-.244-.79.014-2.002.435-7.833 2.861z" fill="#968E8E"/></g><defs><clipPath id="clip0_666_620"><path fill="#fff" d="M0 0h42v42H0z"/></clipPath></defs></svg>