<svg width="28" height="28" fill="none" xmlns="http://www.w3.org/2000/svg"><g clip-path="url(#clip0_858_332)" fill="#fff"><path d="M13.372 0h1.257c.061.009.122.022.182.025 1.146.059 2.28.265 3.372.614 3.079.989 5.537 2.814 7.376 5.475a13.648 13.648 0 0 1 2.36 6.394c.03.287.055.576.082.864v1.257c-.009.06-.022.12-.025.182a13.398 13.398 0 0 1-.731 3.724c-1.1 3.129-3.053 5.58-5.86 7.35a13.59 13.59 0 0 1-5.891 2.033c-.288.03-.577.055-.865.082h-1.257c-.06-.008-.12-.021-.181-.025a13.546 13.546 0 0 1-4.019-.836c-2.797-1.048-5.042-2.803-6.737-5.265a13.624 13.624 0 0 1-2.351-6.382c-.03-.286-.055-.576-.082-.863V13.37c.008-.055.021-.11.024-.166.044-.913.184-1.819.42-2.702C1.447 6.8 3.59 3.951 6.874 1.961 8.607.91 10.494.297 12.51.083c.286-.032.574-.054.862-.083zM1.65 14.006c.008 6.822 5.543 12.345 12.366 12.343 6.807-.002 12.345-5.55 12.334-12.356C26.34 7.174 20.806 1.645 14 1.65 7.181 1.65 1.641 7.195 1.65 14.006z"/><path d="M9.13 17.51c.073.052.109.079.147.103.566.36 1.124.733 1.701 1.074.514.304.652.892.262 1.418-.261.352-.7.43-1.09.183-1.237-.785-2.473-1.57-3.709-2.358-.245-.156-.484-.322-.736-.465-.413-.233-.511-.714-.41-1.075.105-.38.466-.636.896-.643h15.595c.462 0 .803.23.923.62a.885.885 0 0 1-.421 1.037.884.884 0 0 1-.386.106c-.057.003-.114.002-.171.002H9.129v-.001zM18.832 11.057l-1.558-.976c-.137-.086-.276-.17-.41-.257-.325-.214-.48-.585-.367-.943.134-.429.388-.694.802-.726.192-.015.361.056.523.157 1.41.886 2.82 1.77 4.232 2.654.08.05.16.104.242.151.375.217.492.57.434 1.007-.052.396-.4.686-.8.71a2.883 2.883 0 0 1-.171.005c-5.176 0-10.352 0-15.528.002-.373 0-.673-.116-.864-.446-.326-.56.068-1.272.718-1.305.057-.003.114 0 .171 0h12.568c.004-.012.006-.023.008-.033z"/></g><defs><clipPath id="clip0_858_332"><path fill="#fff" d="M0 0h28v28H0z"/></clipPath></defs></svg>