<svg width="31" height="25" fill="none" xmlns="http://www.w3.org/2000/svg"><g clip-path="url(#clip0_858_337)" fill="#42E8E0"><path d="M13.694 3.434c.255-1.349-.449-3.184 1.745-3.419 1.18-.127 1.53.538 1.907 3.48.382.02.79.062 1.195.064 2.418 0 4.841-.033 7.257.018a5.19 5.19 0 0 1 3.614 1.498 5.18 5.18 0 0 1 1.539 3.594c.066 3.733.066 7.467 0 11.201a5.104 5.104 0 0 1-3.177 4.711 5.12 5.12 0 0 1-1.96.38c-6.876.052-13.751.052-20.626 0a5.127 5.127 0 0 1-3.624-1.483A5.117 5.117 0 0 1 .048 19.87a315.664 315.664 0 0 1 0-11.201C.1 5.779 2.39 3.608 5.325 3.577c2.673-.038 5.352-.018 8.022-.028.12-.025.236-.063.347-.115zm1.83 3.682H5.72c-1.57 0-2.17.578-2.184 2.14-.029 3.351-.029 6.7 0 10.05.016 1.544.638 2.148 2.2 2.15 6.493.016 12.986.016 19.479 0 1.63 0 2.24-.6 2.252-2.23.026-3.306.026-6.616 0-9.929-.012-1.629-.611-2.186-2.267-2.194-3.224.003-6.45.013-9.676.013z"/><path d="M23.806 13.633a2.941 2.941 0 0 1-2.908 2.981 2.95 2.95 0 0 1-2.745-1.781 2.94 2.94 0 0 1 .597-3.216 2.947 2.947 0 0 1 5.056 2.016zM13.08 13.763a2.913 2.913 0 0 1-1.951 2.673 2.92 2.92 0 0 1-1.155.158 2.89 2.89 0 0 1-2.605-1.898 2.882 2.882 0 0 1-.17-1.12 2.938 2.938 0 0 1 1.884-2.73 2.946 2.946 0 0 1 3.833 1.761c.131.37.187.764.164 1.156z"/></g><defs><clipPath id="clip0_858_337"><path fill="#fff" d="M0 0h31v25H0z"/></clipPath></defs></svg>