<svg width="30" height="21" fill="none" xmlns="http://www.w3.org/2000/svg"><g clip-path="url(#clip0_214_1545)" fill="#fff"><path d="M30 12.862c-.197.306-.485.389-.843.384-1.172-.015-2.343 0-3.516 0a2.5 2.5 0 0 1-.263 0 .565.565 0 0 1-.405-.174.548.548 0 0 1-.15-.41.53.53 0 0 1 .167-.407.545.545 0 0 1 .418-.148c.859-.014 1.718 0 2.577 0h.828v-1.432H1.19v1.421H19.91c.136-.003.273.002.409.016a.576.576 0 0 1 .36.183.561.561 0 0 1-.348.937c-.107.014-.214.02-.322.017h-3.98c.073.129.122.218.173.306.832 1.412 1.674 2.82 2.485 4.239.127.243.202.51.218.784.036.409.01.823.01 1.274h1.326c.126-.004.252.012.373.046a.51.51 0 0 1 .27.19.497.497 0 0 1 .093.313.509.509 0 0 1-.346.546.997.997 0 0 1-.343.055H9.714a.967.967 0 0 1-.466-.12.52.52 0 0 1-.205-.638.531.531 0 0 1 .207-.292.545.545 0 0 1 .348-.097h1.482c0-.392.017-.766 0-1.15a1.701 1.701 0 0 1 .272-1.008c.822-1.362 1.623-2.736 2.432-4.106.058-.097.11-.195.193-.339H.812a1.065 1.065 0 0 1-.594-.153.664.664 0 0 1-.2-.476c-.02-.818-.012-1.635-.009-2.45 0-.438.22-.657.665-.664.484-.01.967 0 1.532 0-.155-.132-.253-.207-.343-.287C.168 7.734-.37 5.88.273 3.768.918 1.657 2.384.41 4.624.077c.067-.011.13-.034.196-.05h.996c.065.016.13.039.196.05 2.237.326 3.705 1.587 4.35 3.674.655 2.133.102 4-1.62 5.491l-.277.233h13.111c-.093-.077-.142-.12-.194-.153a5.035 5.035 0 0 1-1.327-1.536 4.964 4.964 0 0 1-.605-1.926 5.2 5.2 0 0 1 .895-3.58 5.334 5.334 0 0 1 3.06-2.12c.264-.065.533-.108.8-.152h.996c.054.02.11.036.166.047 2.131.297 3.547 1.475 4.288 3.44.177.47.236.982.35 1.475v.692a1.832 1.832 0 0 0-.052.22 4.933 4.933 0 0 1-1.734 3.262c-.113.1-.23.195-.407.345.504 0 .932.015 1.352 0 .36-.017.646.08.84.39L30 12.862zm-9.363-8.236c.606.087.808.226.802.578a.507.507 0 0 1-.123.366 4.357 4.357 0 0 1-.67.324c.146 1.81 2.071 3.311 3.443 3.3.058-.583.188-.805.54-.822.603-.029.656.41.664.85 1.84-.17 3.359-1.877 3.452-3.387-.583-.088-.777-.216-.79-.55 0-.128.012-.307.094-.373.224-.138.46-.259.704-.36-.11-1.566-2.057-3.459-3.455-3.306-.067.613-.195.809-.558.832-.395.023-.528-.144-.671-.85-1.597.075-3.385 1.834-3.432 3.402v-.004zM5.312 9.29c1.084 0 2.126-.42 2.898-1.17a4.039 4.039 0 0 0 1.23-2.84c0-2.341-1.769-4.1-4.133-4.097-2.364.003-4.139 1.764-4.13 4.102.012 2.198 1.876 4.011 4.135 4.01V9.29zm9.703 4.534c-.082.13-.138.216-.191.306-.766 1.294-1.5 2.603-2.307 3.874-.385.613-.19 1.214-.256 1.82h5.493V18.54a.324.324 0 0 0-.052-.153c-.891-1.51-1.778-3.013-2.687-4.561z"/><path d="M22.863 12.096a.58.58 0 0 1 .515.374.558.558 0 0 1-.154.611.579.579 0 0 1-.88-.128.56.56 0 0 1 .105-.712.57.57 0 0 1 .414-.145zM25.277 4.44c.015.336.011.673-.01 1.008a1.081 1.081 0 0 1-.237.557c-.27.306-.58.594-.882.882-.278.265-.622.28-.86.05a.536.536 0 0 1-.195-.44.529.529 0 0 1 .24-.417c.687-.502.894-1.15.776-1.949a4.28 4.28 0 0 1 0-.72c.01-.407.231-.65.582-.652.352-.001.578.237.586.645.005.346 0 .692 0 1.036zM6.64 3.787c-.1.144-.218.275-.353.389-.19.13-.402.062-.602-.054a1 1 0 0 0-.446-.135c-.066 0-.184.124-.196.205a.303.303 0 0 0 .141.244c.22.101.446.19.676.266.604.22.985.63 1.028 1.271.028.295-.032.59-.173.852a1.524 1.524 0 0 1-.62.616c-.126.077-.233.13-.238.314a.558.558 0 0 1-.16.36.574.574 0 0 1-.965-.265.375.375 0 0 0-.31-.315 1.83 1.83 0 0 1-.439-.228.563.563 0 0 1-.17-.785c.163-.256.466-.32.776-.198.211.09.433.15.66.182a.408.408 0 0 0 .418-.199.392.392 0 0 0 .049-.153c.05-.257-.146-.322-.333-.394a6.55 6.55 0 0 1-.777-.321 1.39 1.39 0 0 1-.526-.475 1.364 1.364 0 0 1 .394-1.888.447.447 0 0 0 .244-.377.539.539 0 0 1 .186-.381.555.555 0 0 1 .406-.136c.302 0 .503.205.57.517a.46.46 0 0 0 .194.267c.266.178.538.344.566.82z"/></g><defs><clipPath id="clip0_214_1545"><path fill="#fff" d="M0 0h30v21H0z"/></clipPath></defs></svg>