<svg width="42" height="42" fill="none" xmlns="http://www.w3.org/2000/svg"><path fill-rule="evenodd" clip-rule="evenodd" d="M42 21c0 11.598-9.402 21-21 21S0 32.598 0 21 9.402 0 21 0s21 9.402 21 21zm-17.396-8.999c1.8.311 3.523.854 5.129 1.59a.064.064 0 0 1 .033.03c2.845 4.185 4.25 8.905 3.726 14.338a.08.08 0 0 1-.033.058 20.83 20.83 0 0 1-6.303 3.18.08.08 0 0 1-.088-.03 16.784 16.784 0 0 1-1.287-2.093.08.08 0 0 1 .043-.112 12.919 12.919 0 0 0 1.967-.935.08.08 0 0 0 .007-.134 9.986 9.986 0 0 1-.391-.307.078.078 0 0 0-.083-.01c-4.075 1.882-8.54 1.882-12.664 0a.078.078 0 0 0-.082.011c-.126.104-.258.207-.39.306a.08.08 0 0 0 .008.134c.627.36 1.28.677 1.966.936a.08.08 0 0 1 .043.111 14.94 14.94 0 0 1-1.287 2.093.082.082 0 0 1-.089.03 20.903 20.903 0 0 1-6.292-3.18.087.087 0 0 1-.033-.059c-.439-4.7.456-9.459 3.723-14.337a.074.074 0 0 1 .034-.03 20.728 20.728 0 0 1 5.13-1.59.08.08 0 0 1 .082.04c.222.393.476.898.648 1.31a19.19 19.19 0 0 1 5.761 0c.172-.403.417-.917.639-1.31a.078.078 0 0 1 .082-.04zM14.556 22.558c0 1.399 1.023 2.538 2.265 2.538 1.261 0 2.265-1.14 2.265-2.538.02-1.39-.994-2.54-2.265-2.54-1.262 0-2.265 1.14-2.265 2.54zm8.374 0c0 1.399 1.023 2.538 2.265 2.538 1.27 0 2.264-1.14 2.264-2.538.02-1.39-.993-2.54-2.264-2.54-1.262 0-2.265 1.14-2.265 2.54z" fill="#968E8E"/></svg>