<svg width="42" height="39" fill="none" xmlns="http://www.w3.org/2000/svg"><path d="M42 4.626a15.613 15.613 0 0 1-4.948 1.549c1.8-1.23 3.146-3.166 3.788-5.447a15.968 15.968 0 0 1-5.471 2.387C34.07 1.533 32.352.484 30.479.131c-1.874-.353-3.796.011-5.47 1.035-1.674 1.023-3.005 2.65-3.787 4.626a11.141 11.141 0 0 0-.537 6.303c-3.426-.197-6.778-1.214-9.837-2.986-3.06-1.772-5.76-4.259-7.924-7.3A10.93 10.93 0 0 0 1.76 6.759c0 1.62.349 3.216 1.017 4.646.669 1.429 1.636 2.648 2.816 3.548a7.797 7.797 0 0 1-3.903-1.232v.127c0 2.272.688 4.475 1.948 6.235 1.26 1.759 3.014 2.966 4.964 3.416-1.27.392-2.6.45-3.892.17.55 1.955 1.623 3.665 3.066 4.89 1.444 1.225 3.186 1.904 4.984 1.942-3.052 2.737-6.822 4.222-10.702 4.215-.687 0-1.374-.046-2.057-.137C3.939 37.47 8.524 39.006 13.207 39c15.852 0 24.518-14.997 24.518-28.004 0-.422-.009-.849-.026-1.272 1.686-1.392 3.141-3.116 4.297-5.092L42 4.626z" fill="#968E8E"/></svg>