<svg width="23" height="19" fill="none" xmlns="http://www.w3.org/2000/svg"><g clip-path="url(#clip0_214_1537)" fill="#42E8E0"><path d="M0 12.077c.137-.337.357-.637.64-.874a806.908 806.908 0 0 0 4.437-4.307c.619-.6 1.258-.6 1.878 0 1.114 1.08 2.225 2.163 3.335 3.246.05.055.092.116.129.18l8.163-7.914c-.198-.187-.409-.38-.615-.576a19.138 19.138 0 0 1-.456-.452.631.631 0 0 1-.191-.734.677.677 0 0 1 .254-.325.706.706 0 0 1 .401-.123c.905-.048 1.81-.09 2.712-.134.456-.023.911-.04 1.367-.059.678-.026.968.24.94.89a199.61 199.61 0 0 1-.187 3.775 1.125 1.125 0 0 1-.204.562.621.621 0 0 1-.482.303.646.646 0 0 1-.534-.204c-.377-.353-.72-.74-1.095-1.13-.115.108-.18.164-.24.223l-8.864 8.621c-.474.46-1.017.558-1.525.258a1.953 1.953 0 0 1-.34-.279c-1.112-1.08-2.224-2.16-3.336-3.244a2.63 2.63 0 0 0-.186-.165c-.068.063-.13.116-.185.165-1.156 1.123-2.334 2.223-3.457 3.374-.93.957-1.998.297-2.32-.544-.014-.031-.032-.061-.05-.092l.01-.44z"/><path d="M20.448 6.152c.095.051.172.128.223.221.05.093.07.199.06.304-.007 3.901-.007 7.804 0 11.708.005.101 0 .203-.017.303a.386.386 0 0 1-.153.237.407.407 0 0 1-.276.075h-2.717c-.403 0-.544-.134-.544-.521V9.635c0-.091.034-.18.095-.249 1.08-1.06 2.164-2.117 3.25-3.168a.695.695 0 0 1 .079-.066zM15.58 10.885v7.511c0 .485-.123.606-.621.606h-2.517c-.446 0-.58-.13-.58-.556V14.6a.3.3 0 0 1 .145-.29c.139-.099.268-.209.388-.33l2.97-2.889.216-.206zM6.72 12.175l1.26 1.228c.234.226.465.454.7.68.417.415.975.67 1.57.715a.877.877 0 0 1 .111.015c.02.006.038.014.054.025V18.449c0 .416-.133.55-.562.55H7.257c-.397 0-.548-.142-.548-.523V12.36c-.001-.041.004-.082.01-.186zM1.564 14.963c.773-.06 1.346-.427 1.85-.935.594-.597 1.202-1.176 1.84-1.799.001.114.018.18.018.248v5.966c0 .43-.13.555-.578.555h-2.56c-.443 0-.57-.127-.57-.562v-3.473z"/></g><defs><clipPath id="clip0_214_1537"><path fill="#fff" d="M0 0h23v19H0z"/></clipPath></defs></svg>