<svg width="29" height="18" fill="none" xmlns="http://www.w3.org/2000/svg"><path d="M16.89 17h-.684a.383.383 0 0 0-.086-.041 3.95 3.95 0 0 1-1.688-.738c-.684-.522-1.376-1.037-2.044-1.581-1.123-.911-2.283-1.772-3.282-2.831-.275-.291-.582-.55-.865-.818a.81.81 0 0 0-.036.093c-.167.52-.246.579-.788.579-.903 0-1.806-.01-2.71.005-.314.006-.55-.084-.707-.368V1.4l.39-.4h.538c.094.016.188.04.283.05 1.2.106 2.399.226 3.561.561.402.116.788.304 1.165.491.262.129.349.38.3.676-.018.111-.024.224-.036.346.066.007.105.014.146.014 1.286 0 2.571.004 3.858-.004.11-.01.216-.051.305-.12.447-.322.907-.616 1.443-.763.891-.245 1.74-.069 2.569.28.984.413 1.966.831 2.95 1.246.084.036.173.063.272.1-.037-.429.062-.6.416-.75.158-.066.318-.127.48-.181 1.838-.632 3.738-.843 5.666-.881.318-.006.55.092.694.388v9.9c-.12.224-.28.386-.549.386-1.025 0-2.05.004-3.076 0-.285 0-.44-.142-.531-.428-.045-.139-.09-.277-.14-.438-.257.177-.489.329-.713.495a.233.233 0 0 0-.077.182c.118.96-.639 1.86-1.625 1.946a.351.351 0 0 0-.231.159c-.442.719-1.09 1.022-1.9.984-.146-.007-.226.008-.308.147-.457.77-1.35 1.147-2.066.9a.214.214 0 0 0-.138 0c-.255.096-.506.206-.757.314zM10.086 4.21c-.478 1.804-.947 3.569-1.41 5.336-.023.09-.028.235.023.289.615.653 1.196 1.353 1.878 1.926 1.487 1.254 3.018 2.454 4.555 3.644.307.237.714.344 1.084.485.141.053.31.031.465.043l.05-.094c-.531-.526-1.065-1.05-1.591-1.579-.204-.204-.4-.416-.586-.636a.53.53 0 0 1 .025-.742c.206-.201.506-.194.725.014.072.067.135.144.204.215l2.373 2.41c.195.195.416.2.652.09a.965.965 0 0 0 .495-.52c-.753-.795-1.49-1.571-2.225-2.35a1.86 1.86 0 0 1-.223-.265.51.51 0 0 1 .046-.625c.158-.178.359-.24.575-.144.114.05.211.15.302.244.777.794 1.541 1.6 2.329 2.384.339.337.837.3 1.178-.038.143-.14.181-.25.007-.427-.93-.942-1.848-1.9-2.765-2.857-.25-.26-.254-.576-.032-.797.222-.221.523-.204.778.059.254.261.496.528.748.787.713.731 1.423 1.465 2.149 2.181a.583.583 0 0 0 .431.141c.435-.065.66-.523.472-.93a1.963 1.963 0 0 0-.334-.518c-.434-.46-.864-.93-1.338-1.346-1.367-1.195-2.752-2.367-4.136-3.542-.055-.046-.177-.05-.253-.024-.246.081-.48.208-.729.274a.859.859 0 0 0-.454.297c-.715.833-1.594 1.178-2.668.9-.871-.224-1.27-.876-1.093-1.785.138-.721.492-1.333.914-1.911.143-.196.302-.38.471-.592l-3.092.003zm13.353 7.24c.277-.19.545-.364.8-.557.054-.043.1-.171.079-.234a678.239 678.239 0 0 0-1.867-5.25.348.348 0 0 0-.179-.178 723.294 723.294 0 0 0-4.247-1.753c-.83-.342-1.664-.423-2.456.094-.914.596-1.713 1.33-2.295 2.276-.207.338-.334.734-.467 1.115-.061.174-.044.391.184.45.241.06.495.12.739.104.537-.037.886-.403 1.203-.811.102-.132.228-.278.374-.335.46-.182.94-.306 1.4-.488.31-.122.536-.064.77.163.385.372.785.726 1.188 1.076 1.62 1.399 3.365 2.652 4.774 4.328zm4.502.214V3.142c-1.699.046-3.348.269-4.942.8.33.853.672 1.671.967 2.508.583 1.658 1.138 3.327 1.711 4.99.029.084.115.209.177.21.69.018 1.381.011 2.087.011v.003zM5.057 2.104v8.482h2.214c.188-.638.38-1.265.558-1.896.52-1.845 1.03-3.694 1.321-5.597.037-.239-.063-.288-.23-.34-1.25-.39-2.544-.519-3.863-.649z" fill="#968E8E"/></svg>