<svg width="21" height="21" fill="none" xmlns="http://www.w3.org/2000/svg"><g clip-path="url(#clip0_666_684)" fill="#968E8E"><path d="M11.82 0l.863.017c.618.013 1.24-.005 1.855.047 1.11.091 2.134.463 3.07 1.06 1.861 1.187 2.94 2.9 3.336 5.049.067.363.055.743.056 1.115 0 .882-.005 1.763-.022 2.645-.01.434-.13.852-.27 1.26-.957 2.826-2.935 4.507-5.838 5.108-.555.115-1.139.111-1.71.118-.31.004-.524.09-.738.325-1.062 1.162-2.143 2.307-3.221 3.455-.17.18-.363.34-.538.518-.449.459-1.52.368-1.894-.324-.12-.222-.197-.44-.194-.702.014-1.053.005-2.106.005-3.158v-.144c-.115-.023-.227-.05-.34-.07-1.752-.301-3.225-1.11-4.408-2.431C.874 12.818.298 11.562.07 10.146c-.03-.183-.032-.37-.047-.556L0 9.254V7.086c.01-.163.016-.325.033-.486a7.037 7.037 0 0 1 .558-2.073C1.3 2.895 2.446 1.66 4.027.839A7.164 7.164 0 0 1 7.49.02c.245.003.49-.012.734-.019h3.597zM7.884 19.653l.059.032a.491.491 0 0 1 .053-.09c.178-.194.359-.387.539-.581 1.174-1.26 2.347-2.521 3.52-3.783a.253.253 0 0 1 .2-.089c.316-.003.631-.012.946-.023.631-.021 1.265-.027 1.878-.19 1.92-.513 3.313-1.664 4.144-3.471.304-.662.481-1.36.475-2.096-.005-.668.007-1.337.002-2.005-.002-.306.003-.617-.047-.918-.251-1.524-.97-2.795-2.166-3.776-.985-.808-2.106-1.304-3.406-1.308-2.191-.007-4.383-.009-6.574-.007-.33 0-.668-.021-.99.035-2.186.379-3.748 1.59-4.69 3.584-.3.633-.498 1.305-.498 2.021 0 .602-.008 1.204 0 1.806.007.438-.015.886.066 1.312.325 1.708 1.217 3.056 2.684 4.01.94.611 1.979.928 3.099.986.228.011.456.03.705.046l.001 4.505z"/><path d="M9.891 9.862c0-.29-.014-.57.003-.847.05-.807.51-1.343 1.186-1.726.246-.14.5-.27.744-.415.436-.256.577-.717.364-1.177-.101-.219-.29-.34-.504-.425-.354-.14-.723-.173-1.1-.156-.706.031-1.298.323-1.82.778-.12.104-.242.207-.374.32l-1.148-1.36c.265-.308.573-.578.914-.8.564-.362 1.169-.64 1.837-.7.493-.045.994-.011 1.492.002.43.011.832.141 1.22.326.86.41 1.313 1.1 1.403 2.037.06.622-.047 1.208-.41 1.73-.22.317-.525.538-.854.729-.285.166-.579.32-.862.49-.138.086-.27.184-.39.293-.218.19-.349.434-.401.72-.034.181-.036.18-.226.18H9.892zM11.466 12.16c.056.591-.527.974-.963.962-.544-.014-.925-.428-.942-.987-.02-.628.546-.963.948-.96a.954.954 0 0 1 .957.985z"/></g><defs><clipPath id="clip0_666_684"><path fill="#fff" d="M0 0h21v21H0z"/></clipPath></defs></svg>