<svg width="21" height="10" fill="none" xmlns="http://www.w3.org/2000/svg"><g clip-path="url(#clip0_216_1551)" fill="#fff"><path d="M15.232 5V.951c0-.595.373-.952.995-.952h3.779a.974.974 0 0 1 .39.05.93.93 0 0 1 .332.197.864.864 0 0 1 .215.31.822.822 0 0 1 .057.367v8.153a.824.824 0 0 1-.058.367.866.866 0 0 1-.215.31.932.932 0 0 1-.332.198.975.975 0 0 1-.389.05h-3.784c-.622 0-.996-.36-.996-.952L15.231 5zM7.616 6.06V3.1a.825.825 0 0 1 .058-.367.868.868 0 0 1 .214-.31.934.934 0 0 1 .332-.2.977.977 0 0 1 .39-.05h3.806c.13-.008.26.01.383.054a.92.92 0 0 1 .324.2.854.854 0 0 1 .208.307.814.814 0 0 1 .053.362v5.976c0 .569-.383.926-.994.926H8.613c-.62 0-.995-.359-.997-.95V6.061zM2.88 9.998H.976a.964.964 0 0 1-.384-.052.92.92 0 0 1-.325-.197.855.855 0 0 1-.21-.307.813.813 0 0 1-.055-.361V6.332A.814.814 0 0 1 .06 5.98a.856.856 0 0 1 .207-.3.92.92 0 0 1 .318-.195.963.963 0 0 1 .375-.055h3.864a.962.962 0 0 1 .366.059.919.919 0 0 1 .31.192.856.856 0 0 1 .204.292c.046.11.068.227.063.345v2.77a.814.814 0 0 1-.059.354.856.856 0 0 1-.206.3.92.92 0 0 1-.319.195.963.963 0 0 1-.375.055l-1.93.007z"/></g><defs><clipPath id="clip0_216_1551"><path fill="#fff" d="M0 0h21v10H0z"/></clipPath></defs></svg>