<svg width="46" height="32" fill="none" xmlns="http://www.w3.org/2000/svg"><path d="M44.074 5.158a5.599 5.599 0 0 0-1.437-2.522 5.64 5.64 0 0 0-2.509-1.473C36.606.181 22.495.181 22.495.181c-5.883-.071-11.764.24-17.61.933a5.852 5.852 0 0 0-2.51 1.509A5.818 5.818 0 0 0 .916 5.156a61.04 61.04 0 0 0-.915 10.907A60.93 60.93 0 0 0 .916 26.97c.257.95.758 1.818 1.454 2.519a5.724 5.724 0 0 0 2.515 1.475c3.569.98 17.61.98 17.61.98 5.89.071 11.779-.24 17.633-.933a5.64 5.64 0 0 0 2.51-1.473 5.588 5.588 0 0 0 1.434-2.52c.647-3.596.962-7.25.94-10.91a55.764 55.764 0 0 0-.938-10.952v.002zM18.009 22.86V9.267l11.74 6.798-11.74 6.795z" fill="#968E8E"/></svg>