<svg xmlns="http://www.w3.org/2000/svg" width="512" height="512" viewBox="0 0 260.666 260.666"><path d="M236.666 40.882H24c-13.233 0-24 10.767-24 24v130.902c0 13.233 10.767 24 24 24h212.666c13.233 0 24-10.767 24-24V64.882c0-13.234-10.767-24-24-24zm9 154.902c0 4.962-4.037 9-9 9H24c-4.963 0-9-4.038-9-9V64.882c0-4.962 4.037-9 9-9h212.666c4.963 0 9 4.038 9 9v130.902z" data-original="#000000"/><path d="M216.04 83.703h-68.933a6 6 0 0 0 0 12h68.933a6 6 0 0 0 0-12zM216.04 164.963h-68.933a6 6 0 1 0 0 12h68.933a6 6 0 0 0 0-12zM216.04 118.411h-41.718a6 6 0 0 0 0 12h41.718a6 6 0 0 0 0-12zM216.04 141.686h-41.718a6 6 0 0 0 0 12h41.718a6 6 0 1 0 0-12zM85.163 133.136c17.004 0 30.838-13.839 30.838-30.849 0-17.011-13.834-30.85-30.838-30.85-17.009 0-30.847 13.839-30.847 30.85 0 17.01 13.838 30.849 30.847 30.849zm0-46.698c8.733 0 15.838 7.11 15.838 15.85 0 8.739-7.104 15.849-15.838 15.849-8.738 0-15.847-7.11-15.847-15.849 0-8.74 7.109-15.85 15.847-15.85z" data-original="#000000"/><path d="M97.097 138.68H73.415c-16.592 0-30.09 13.497-30.09 30.088v12.961c0 4.142 3.357 7.5 7.5 7.5s7.5-3.358 7.5-7.5v-12.961c0-8.319 6.77-15.088 15.09-15.088h23.682c8.32 0 15.09 6.768 15.09 15.088v12.961c0 4.142 3.357 7.5 7.5 7.5s7.5-3.358 7.5-7.5v-12.961c0-16.591-13.499-30.088-30.09-30.088z"/></svg>