<svg width="20" height="24" fill="none" xmlns="http://www.w3.org/2000/svg"><g clip-path="url(#clip0_666_653)" fill="#968E8E"><path d="M9.95 24c-.71-.37-1.433-.726-2.13-1.116-1.824-1.016-3.519-2.203-4.998-3.67-.996-.988-1.83-2.088-2.36-3.39A6.155 6.155 0 0 1 0 13.482c.002-3.418.002-6.835 0-10.253v-.194c.463.026.904.072 1.346.071 2.01-.006 3.969-.281 5.813-1.118.98-.445 1.873-1.02 2.636-1.777A1.64 1.64 0 0 0 9.948 0c2.84 2.716 6.303 3.268 10.048 3.05v.227c0 3.378-.006 6.757.003 10.136.004 1.46-.489 2.753-1.29 3.955-.935 1.402-2.163 2.527-3.502 3.544-1.572 1.196-3.275 2.185-5.068 3.027a.717.717 0 0 0-.093.061h-.095zM1.534 4.616v.306c0 2.817.013 5.633-.006 8.45-.008 1.125.36 2.12.96 3.046.764 1.185 1.77 2.157 2.876 3.035 1.38 1.096 2.875 2.016 4.456 2.806.14.07.244.056.375-.01 1.693-.853 3.29-1.846 4.746-3.054.877-.728 1.677-1.524 2.341-2.447.812-1.125 1.223-2.349 1.2-3.75-.045-2.7-.013-5.4-.013-8.099v-.284c-3.09-.07-5.973-.697-8.47-2.57-2.49 1.874-5.375 2.502-8.465 2.571z"/><path d="M5.853 12.619l3.313 2.304 5.363-7.735 1.265.844-6.237 9-4.587-3.191.883-1.222z"/></g><defs><clipPath id="clip0_666_653"><path fill="#fff" d="M0 0h20v24H0z"/></clipPath></defs></svg>