<svg width="27" height="25" fill="none" xmlns="http://www.w3.org/2000/svg"><g clip-path="url(#clip0_666_677)" fill="#968E8E"><path d="M0 7.941c.062-.293.11-.59.187-.88.626-2.369 2.636-4.027 5-4.052 2.962-.03 5.923-.011 8.885-.007a1.09 1.09 0 0 1 1.107 1.112c-.007.627-.475 1.084-1.125 1.084-2.9.003-5.801 0-8.701.003-1.667 0-2.958 1.162-3.213 2.878a3.562 3.562 0 0 0-.03.522c0 4.317-.002 8.634-.005 12.95 0 .528.166.943.64 1.155.462.21.868.07 1.23-.281.51-.491 1.038-.962 1.548-1.453.26-.253.603-.388.958-.376 3.656.005 7.312.005 10.968 0 1.551 0 2.776-1.006 3.137-2.567a3.64 3.64 0 0 0 .082-.761c.01-.788 0-1.577.004-2.365.003-.668.448-1.163 1.046-1.169.598-.006 1.065.49 1.06 1.155-.007 1.045.033 2.093-.058 3.13-.207 2.35-2.154 4.404-4.393 4.713-.331.044-.664.066-.998.065-3.41.004-6.82.004-10.23 0-.253 0-.445.06-.633.247-.413.412-.838.811-1.279 1.19-.425.37-.936.617-1.481.717-.546.1-1.107.05-1.628-.149a3.163 3.163 0 0 1-1.338-.976 3.36 3.36 0 0 1-.693-1.543A1.157 1.157 0 0 0 0 22.13V7.941z"/><path d="M27 3.706c-.074.27-.106.565-.232.807-.206.399-.422.817-.72 1.134-2.552 2.69-5.116 5.37-7.693 8.035-1.58 1.635-3.494 2.475-5.724 2.516-.739.013-1.18-.462-1.16-1.232.057-2.364.901-4.374 2.504-6.043a8152.33 8152.33 0 0 0 7.51-7.836c.918-.96 2.008-1.32 3.25-.935 1.257.385 1.993 1.31 2.226 2.661.005.024.027.045.04.067L27 3.706zM13.693 13.88c.084-.015.125-.02.166-.029 1.19-.275 2.203-.88 3.059-1.778A11838.942 11838.942 0 0 1 24.5 4.167c.22-.228.371-.486.384-.816a1.14 1.14 0 0 0-.16-.628 1.072 1.072 0 0 0-.473-.424c-.421-.192-.859-.09-1.225.29-2.566 2.677-5.129 5.353-7.688 8.03-.328.356-.62.746-.874 1.164-.385.623-.634 1.316-.772 2.097zM6.835 11.799c-.508 0-1.017.005-1.526 0-.627-.008-1.087-.47-1.09-1.088-.003-.617.457-1.1 1.077-1.107a146.23 146.23 0 0 1 3.106 0c.636.005 1.1.495 1.09 1.122-.01.616-.47 1.068-1.103 1.074-.518.002-1.036-.001-1.554-.001zM6.85 16.198c-.518 0-1.036.005-1.554 0a1.066 1.066 0 0 1-1.077-1.072 1.138 1.138 0 0 1 .304-.795 1.016 1.016 0 0 1 .76-.326c1.043-.013 2.087-.013 3.131 0 .622.006 1.08.492 1.078 1.107-.003.614-.462 1.08-1.09 1.088-.517.003-1.035-.002-1.552-.002z"/></g><defs><clipPath id="clip0_666_677"><path fill="#fff" d="M0 0h27v25H0z"/></clipPath></defs></svg>