<svg width="187" height="36" fill="none" xmlns="http://www.w3.org/2000/svg"><g clip-path="url(#clip0_1_2184)"><path d="M37.05 9.352h9.562a15.198 15.198 0 0 1 5.897 1.067 8.941 8.941 0 0 1 3.984 3.02 8.147 8.147 0 0 1 1.424 4.586 8.147 8.147 0 0 1-1.424 4.586 9.036 9.036 0 0 1-3.984 3.02 15.197 15.197 0 0 1-5.897 1.067h-9.563V9.352zm9.339 13.44a6.47 6.47 0 0 0 4.175-1.269 4.844 4.844 0 0 0 1.163-1.594 4.625 4.625 0 0 0 0-3.797 4.845 4.845 0 0 0-1.163-1.595 6.47 6.47 0 0 0-4.175-1.269h-3.613v9.524h3.613zM77.116 22.913v3.795H60.871V9.352h15.863v3.755h-10.2v2.92h8.988V19.7h-8.988v3.171l10.582.04zM93.84 23.335h-8.553l-1.583 3.373H77.86l8.936-17.356h5.63l8.958 17.356h-5.897l-1.647-3.372zm-1.668-3.624l-2.603-5.547-2.582 5.547h5.185zM102.999 9.352h5.727v13.46h9.647v3.896h-15.374V9.352zM139.867 9.352v17.356h-4.706l-8.925-9.252v9.252h-5.61V9.352h4.706l8.936 9.242V9.352h5.599zM148.346 25.893a9.838 9.838 0 0 1-4.016-3.232 8.162 8.162 0 0 1-1.456-4.636c0-1.646.506-3.257 1.456-4.636a9.818 9.818 0 0 1 4.016-3.221A14.768 14.768 0 0 1 154.11 9c1.987 0 3.951.398 5.764 1.168a9.684 9.684 0 0 1 4.017 3.221 8.112 8.112 0 0 1 1.467 4.636c0 1.648-.51 3.26-1.467 4.636a9.698 9.698 0 0 1-4.017 3.232 14.874 14.874 0 0 1-5.764 1.157c-1.985 0-3.949-.394-5.764-1.157zm8.5-3.524a4.82 4.82 0 0 0 1.966-1.752c.49-.782.74-1.678.722-2.587a4.745 4.745 0 0 0-.722-2.597 4.865 4.865 0 0 0-1.966-1.742 6.442 6.442 0 0 0-2.773-.624c-.963 0-1.913.214-2.773.624-.812.398-1.492 1-1.966 1.742a4.762 4.762 0 0 0-.722 2.597c-.018.91.232 1.805.722 2.587a4.827 4.827 0 0 0 1.966 1.752 6.543 6.543 0 0 0 2.773.614c.962 0 1.911-.21 2.773-.614zM180.412 26.708l-4.175-5.386-4.133 5.386h-6.492l7.363-8.778-7.044-8.578h6.438l4.048 5.034 3.985-5.034h6.184l-7.045 8.376 7.512 8.98h-6.641z" fill="#fff"/><path d="M.128 21.554V5.386L7.363 0l24.044 12.493v9.302L.127 36 0 26.326l21.452-9.303L8.787 9.916v7.59l-8.66 4.048z" fill="#019CFE"/></g><defs><clipPath id="clip0_1_2184"><path fill="#fff" d="M0 0h187v36H0z"/></clipPath></defs></svg>