<svg width="24" height="24" viewBox="0 0 24 24" fill="none" xmlns="http://www.w3.org/2000/svg">
<path d="M23.498 6.18687C23.222 5.14787 22.409 4.32888 21.376 4.05088C19.505 3.54688 12 3.54688 12 3.54688C12 3.54688 4.495 3.54688 2.623 4.05088C1.591 4.32888 0.778 5.14687 0.502 6.18687C0 8.07087 0 12.0009 0 12.0009C0 12.0009 0 15.9309 0.502 17.8149C0.778 18.8539 1.591 19.6729 2.624 19.9509C4.495 20.4549 12 20.4549 12 20.4549C12 20.4549 19.505 20.4549 21.377 19.9509C22.409 19.6729 23.222 18.8549 23.499 17.8149C24 15.9309 24 12.0009 24 12.0009C24 12.0009 24 8.07087 23.498 6.18687ZM9.546 15.5699V8.43187L15.818 12.0009L9.546 15.5699Z" fill="#BD0318"/>
</svg>
