<svg width="24" height="24" viewBox="0 0 24 24" fill="none" xmlns="http://www.w3.org/2000/svg">
<path d="M19.4825 4.2848V18.077C19.4825 18.3352 19.6919 18.5445 19.9501 18.5445C20.1796 18.5445 20.3705 18.3792 20.4101 18.161L20.4176 18.077V5.45363H21.5864C22.445 5.45363 23.1491 6.11483 23.2174 6.95579L23.2228 7.09V18.3108C23.2228 19.9313 21.9544 21.2555 20.3563 21.3449L20.1838 21.3497H3.82021C2.19971 21.3497 0.875462 20.0814 0.786061 18.4832L0.78125 18.3108V4.2848C0.78125 3.42625 1.44244 2.72213 2.28341 2.65386L2.41761 2.64844H17.8462C18.7047 2.64844 19.4089 3.30963 19.4771 4.15059L19.4825 4.2848ZM8.02476 11.0673H5.69034C4.83179 11.0673 4.12767 11.7285 4.0594 12.5694L4.05398 12.7036V15.038C4.05398 15.8966 4.71517 16.6007 5.55613 16.669L5.69034 16.6744H8.02476C8.88331 16.6744 9.58743 16.0132 9.65569 15.1723L9.66112 15.038V12.7036C9.66112 11.8451 8.99993 11.141 8.15896 11.0727L8.02476 11.0673ZM15.5085 15.2718H12.2358L12.1406 15.2782C11.7983 15.3247 11.5345 15.6181 11.5345 15.9731C11.5345 16.3282 11.7983 16.6216 12.1406 16.668L12.2358 16.6744H15.5085L15.6037 16.668C15.946 16.6216 16.2098 16.3282 16.2098 15.9731C16.2098 15.6181 15.946 15.3247 15.6037 15.2782L15.5085 15.2718ZM5.69034 12.4699H8.02476C8.13542 12.4699 8.22812 12.5468 8.25235 12.65L8.25852 12.7036V15.038C8.25852 15.1487 8.18163 15.2414 8.07836 15.2656L8.02476 15.2718H5.69034C5.57968 15.2718 5.48698 15.1949 5.46275 15.0916L5.45657 15.038V12.7036C5.45657 12.593 5.53347 12.5003 5.63674 12.476L5.69034 12.4699ZM15.5085 11.0673H12.2358L12.1406 11.0737C11.7983 11.1201 11.5345 11.4135 11.5345 11.7686C11.5345 12.1236 11.7983 12.417 12.1406 12.4635L12.2358 12.4699H15.5085L15.6037 12.4635C15.946 12.417 16.2098 12.1236 16.2098 11.7686C16.2098 11.4135 15.946 11.1201 15.6037 11.0737L15.5085 11.0673ZM15.5085 6.85311H4.75528L4.66011 6.85951C4.31781 6.90594 4.05398 7.19936 4.05398 7.5544C4.05398 7.90944 4.31781 8.20286 4.66011 8.2493L4.75528 8.2557H15.5085L15.6037 8.2493C15.946 8.20286 16.2098 7.90944 16.2098 7.5544C16.2098 7.19936 15.946 6.90594 15.6037 6.85951L15.5085 6.85311Z" fill="#BD0318"/>
</svg>
