<svg width="24" height="35" viewBox="0 0 24 35" fill="none" xmlns="http://www.w3.org/2000/svg">
<path d="M19.9211 17.5724C19.9211 20.1268 16.9941 20.5719 14.6054 21.3526C12.9501 21.8936 11.5573 22.5305 10.447 23.4756C7.75553 25.7902 6.16754 28.9952 5.84456 32.7685C5.784 33.3917 5.79073 34.0149 5.74363 34.6381C3.26744 32.5151 1.30264 29.5567 0.43463 26.4819C-0.783277 22.1812 0.64995 17.9285 3.59042 14.5729C3.59042 14.5729 2.41962 12.8677 2.06972 11.6898C2.06972 11.6898 3.89322 11.2516 5.12458 11.8679C5.12458 11.8679 0.77107 3.78704 10.8239 0C8.01796 2.17772 6.10698 5.95107 8.30729 9.14232C9.5252 10.9091 11.638 12.7513 13.7912 13.395C15.8435 14.0045 19.9211 15.0112 19.9211 17.5724Z" fill="#BD0318"/>
<path d="M17.404 13.5167C16.5225 13.0578 15.493 12.7634 14.625 12.5579C17.6462 10.0994 14.7663 6.92188 14.7663 6.92188C18.8238 9.32558 18.0163 12.284 17.404 13.5167Z" fill="#BD0318"/>
<path d="M23.326 23.3254C22.9694 22.2845 22.1822 21.4833 21.1257 21.2025C21.6439 21.0381 22.0678 20.7437 22.3975 20.2917C22.8752 19.6754 23.104 18.8056 23.104 17.7031C23.104 15.2035 21.4689 14.142 18.4746 13.9023C18.6495 13.9777 18.8245 14.0667 18.9927 14.1557C20.6547 15.0391 21.4958 16.2033 21.4958 17.6004C21.4958 18.9289 20.6884 20.1616 19.383 20.8258C18.0911 21.4833 16.5704 21.5928 15.2179 22.0928C13.7443 22.6201 12.3985 23.3871 11.2681 24.3595C9.76757 25.6333 8.26706 27.7904 7.62109 29.7011H18.0103C19.9213 29.7011 21.294 29.3655 22.162 28.6876C23.104 27.9343 23.5817 26.7016 23.5817 24.9622C23.5683 24.3458 23.4943 23.798 23.326 23.3254ZM21.1123 27.3316C20.5605 27.8315 19.7396 28.0849 18.6563 28.0849H10.1848C12.1496 24.8594 15.6822 22.7091 19.7194 22.7091C19.8809 22.7091 20.0222 22.7091 20.1837 22.7228C21.0248 22.7502 21.7313 23.3871 21.8794 24.2225C21.9197 24.4554 21.9399 24.7088 21.9399 24.9758C21.9332 26.051 21.6573 26.8454 21.1123 27.3316Z" fill="#BD0318"/>
</svg>
