<svg width="59" height="59" viewBox="0 0 59 59" fill="none" xmlns="http://www.w3.org/2000/svg">
<g clip-path="url(#clip0_2157_618)">
<path fill-rule="evenodd" clip-rule="evenodd" d="M58.7661 29.5002C58.7661 45.6632 45.6632 58.7661 29.5002 58.7661C13.3371 58.7661 0.234375 45.6632 0.234375 29.5002C0.234375 13.3371 13.3371 0.234375 29.5002 0.234375C45.6632 0.234375 58.7661 13.3371 58.7661 29.5002ZM32.4268 17.7939C32.4268 19.4102 31.1166 20.7205 29.5002 20.7205C27.8839 20.7205 26.5737 19.4102 26.5737 17.7939C26.5737 16.1776 27.8839 14.8673 29.5002 14.8673C31.1166 14.8673 32.4268 16.1776 32.4268 17.7939ZM29.5002 23.6471C27.8839 23.6471 26.5737 24.9573 26.5737 26.5737V41.2066C26.5737 42.823 27.8839 44.1332 29.5002 44.1332C31.1166 44.1332 32.4268 42.823 32.4268 41.2066V26.5737C32.4268 24.9573 31.1166 23.6471 29.5002 23.6471Z" fill="#BD0318"/>
</g>
<defs>
<clipPath id="clip0_2157_618">
<rect width="59" height="59" fill="white"/>
</clipPath>
</defs>
</svg>
