<svg width="1664" height="416" viewBox="0 0 1664 416" fill="none" xmlns="http://www.w3.org/2000/svg">
<rect width="320" height="128" rx="24" fill="white" fill-opacity="0.08"/>
<path d="M186.577 61.9279C185.912 62.1452 185.003 62.3295 183.873 62.4716C183.335 62.5425 182.736 62.5781 182.035 62.5781C180.857 62.5781 179.582 62.4836 178.347 62.3864L178.304 62.3849C177.16 62.2977 176.077 62.216 175.039 62.216C174.297 62.216 173.617 62.2602 172.965 62.3442C171.024 62.587 169.494 63.2007 169.494 63.2007L169.511 63.042C169.886 59.1217 173.156 55.775 177.113 55.2456C177.484 55.2014 177.856 55.1789 178.23 55.1783C181.957 55.1783 185.573 58.0251 186.647 61.8067L186.674 61.9047L186.577 61.9279ZM191.132 63.5922L191.131 63.5388C191.114 63.2867 191.066 62.879 191.014 62.4406C190.912 61.6489 190.741 60.868 190.501 60.1072C188.701 54.3895 183.885 50.6996 178.23 50.6996C177.665 50.6996 177.082 50.7356 176.507 50.8146C169.255 51.7548 164.329 58.3759 165.288 65.8881C166.161 72.6889 171.592 77.3479 178.203 77.3479C178.76 77.3479 179.341 77.3092 179.928 77.238C183.451 76.7872 186.546 75.3007 188.865 72.4101C188.996 72.2455 189.06 72.0352 189.036 71.8467C189.015 71.6794 188.918 71.5202 188.743 71.3924C188.354 71.1105 186.965 70.4321 186.209 70.0693C185.987 69.957 185.808 69.8707 185.709 69.8207C185.48 69.7018 185.315 69.6484 185.166 69.6484C184.983 69.6484 184.808 69.7429 184.639 69.9504C183.144 71.7007 181.252 72.6207 179.319 72.8763C178.936 72.9235 178.564 72.9487 178.203 72.9487C174.68 72.9487 171.124 70.5723 170.092 67.3107L170.066 67.2255L170.142 67.1884C170.325 67.097 171.974 66.3237 174.417 66.3237C174.72 66.3237 175.028 66.3361 175.33 66.3632C176.031 66.419 176.734 66.5103 177.477 66.6052C178.847 66.7876 180.267 66.9769 181.925 66.9769C182.946 66.9757 183.966 66.9027 184.977 66.7586C189.009 65.9756 190.609 64.8364 190.622 64.8263C191.191 64.455 191.17 64.1475 191.132 63.5922M254.303 52.1966C254.303 51.8555 254.026 51.581 253.69 51.581H250.353C250.021 51.581 249.745 51.8555 249.745 52.1966V76.1022C249.745 76.4399 250.021 76.7191 250.353 76.7191H253.69C254.026 76.7191 254.303 76.4399 254.303 76.1022V52.1966ZM252.024 43.0547C250.365 43.0547 249.012 44.4193 249.012 46.0932C249.012 47.7633 250.365 49.1248 252.024 49.1248C253.688 49.1248 255.037 47.7633 255.037 46.0932C255.037 44.4193 253.688 43.0547 252.024 43.0547ZM207.844 55.2398C212.574 55.2398 216.28 59.1612 216.28 64.1703C216.28 69.2093 212.763 73.0056 208.098 73.0056C205.743 73.0056 203.559 72.1545 201.962 70.613C200.313 69.0281 199.409 66.7899 199.409 64.3206C199.409 59.313 203.193 55.2398 207.844 55.2398ZM207.696 77.3561C207.906 77.365 208.125 77.3735 208.338 77.3735C211.766 77.3735 214.953 76.0399 217.321 73.6364C219.722 71.1861 221.041 67.8261 221.041 64.1703C221.041 56.6172 215.268 50.6996 207.897 50.6996C201.899 50.6996 196.836 54.6784 195.288 60.5971C195.025 61.6019 194.752 64.1645 194.752 66.7202V85.4773C194.752 85.8192 195.025 86.0976 195.364 86.0976H198.674C199.017 86.0976 199.294 85.8157 199.294 85.4723L199.291 73.6565L199.465 73.8269C201.091 75.418 204.106 77.1865 207.696 77.3561ZM148.366 55.2398C153.091 55.2398 156.799 59.1612 156.799 64.1703C156.799 69.2093 153.284 73.0056 148.615 73.0056C146.254 73.0056 144.08 72.1545 142.484 70.613C140.833 69.0281 139.925 66.7899 139.925 64.3206C139.925 59.313 143.711 55.2398 148.366 55.2398ZM148.219 77.3561C148.43 77.365 148.647 77.3735 148.856 77.3735C152.288 77.3735 155.477 76.0399 157.841 73.6364C160.242 71.1861 161.565 67.8261 161.565 64.1703C161.565 56.6172 155.787 50.6996 148.415 50.6996C142.42 50.6996 137.351 54.6784 135.807 60.5971C135.538 61.6019 135.27 64.1645 135.27 66.7202V85.4773C135.27 85.8192 135.545 86.0976 135.876 86.0976H139.197C139.537 86.0976 139.814 85.8157 139.814 85.4723L139.809 73.6565L139.976 73.8269C141.603 75.418 144.619 77.1865 148.219 77.3561ZM224.23 73.1686C227.112 75.8258 230.261 77.3437 234.349 77.3437H234.478C241.534 77.2976 244.686 73.4126 244.686 69.5849C244.686 64.2904 239.728 62.8433 238.209 62.5223C237.721 62.4267 237.214 62.3307 236.694 62.2265C235.466 61.9883 234.191 61.7425 233.033 61.4199C232.221 61.1953 229.573 60.3066 229.573 58.3121C229.573 56.1165 231.992 54.9328 234.264 54.9328C236.173 54.9328 237.764 55.2565 239.8 56.8584C239.96 56.9847 240.183 57.1295 240.455 57.1295C240.657 57.1295 240.85 57.059 241.057 56.9095C241.621 56.4909 242.653 55.6143 243.335 54.9277C243.495 54.7639 243.57 54.5846 243.561 54.3972C243.545 54.106 243.33 53.8679 243.22 53.7761C240.497 51.5999 237.876 50.7093 234.18 50.6996H234.153C228.867 50.6996 224.877 54.1227 224.877 58.6609C224.877 62.2571 227.811 64.8112 233.131 65.8637L236.462 66.5069C238.652 66.9119 239.882 68.0829 239.84 69.7231C239.8 71.3216 237.854 72.977 234.657 72.977C232.047 72.977 229.748 71.9504 227.822 70.1893L227.794 70.1615C227.658 70.0376 227.495 69.8858 227.276 69.8858C227.123 69.8858 226.961 69.9574 226.786 70.0949C226.586 70.259 224.361 72.031 224.124 72.2815C224.015 72.3992 223.964 72.5235 223.966 72.654C223.971 72.8612 224.107 73.0544 224.23 73.1686Z" fill="#2151A1"/>
<path d="M116.766 85.6158C104.919 97.5523 85.7048 97.5508 73.8591 85.6158C62.0073 73.6777 62.0073 54.3231 73.8591 42.3889C85.7075 30.4535 104.919 30.4535 116.763 42.39C128.615 54.3227 128.615 73.6773 116.766 85.6158Z" fill="white"/>
<path d="M118.927 48.5781C119.51 50.4775 119.807 52.4544 119.807 54.4426C119.807 61.0277 116.593 66.8183 111.704 70.4465C103.204 76.7532 90.8149 76.7618 73.7085 82.1918C78.8716 88.4083 86.6301 92.3649 95.3065 92.3649C110.857 92.3649 123.462 79.6667 123.462 64.0024C123.462 58.316 121.791 53.0219 118.927 48.5781Z" fill="#2151A1"/>
<path d="M112.191 41.3064C107.487 37.744 101.642 35.6367 95.3068 35.6367C79.7572 35.6367 67.1523 48.3376 67.1523 64C67.1523 70.3048 69.1942 76.1279 72.6476 80.8365C91.5837 75.2818 106.536 60.3183 112.191 41.3064Z" fill="#EB1933"/>
<rect x="336" width="320" height="128" rx="24" fill="white" fill-opacity="0.08"/>
<rect x="463.998" y="32" width="64" height="64" rx="16" fill="#999999"/>
<path d="M480.521 75V52.6H484.201V75H480.521ZM482.409 65.56V62.04H493.865V65.56H482.409ZM482.409 56.12V52.6H494.825V56.12H482.409ZM504.845 75.48C503.203 75.48 501.752 75.1173 500.493 74.392C499.256 73.6667 498.285 72.664 497.581 71.384C496.877 70.104 496.525 68.6107 496.525 66.904C496.525 65.2187 496.867 63.736 497.549 62.456C498.253 61.1547 499.213 60.152 500.429 59.448C501.667 58.7227 503.085 58.36 504.685 58.36C506.285 58.36 507.672 58.7333 508.845 59.48C510.04 60.2053 510.968 61.2293 511.629 62.552C512.312 63.8747 512.653 65.4213 512.653 67.192V67.8L512.173 68.28H498.253V65.208H510.989L509.037 65.944C509.016 65.048 508.803 64.28 508.397 63.64C508.013 62.9787 507.501 62.4773 506.861 62.136C506.243 61.7733 505.539 61.592 504.749 61.592C503.896 61.592 503.117 61.7947 502.413 62.2C501.709 62.584 501.165 63.128 500.781 63.832C500.397 64.5147 500.205 65.3147 500.205 66.232V67.512C500.205 68.3867 500.408 69.1867 500.813 69.912C501.24 70.616 501.805 71.1813 502.509 71.608C503.213 72.0347 503.992 72.248 504.845 72.248C505.656 72.248 506.392 72.0347 507.053 71.608C507.736 71.16 508.269 70.5627 508.653 69.816H509.037L512.013 71.096C511.373 72.4827 510.424 73.56 509.165 74.328C507.928 75.096 506.488 75.48 504.845 75.48Z" fill="white"/>
<rect x="672" width="320" height="128" rx="24" fill="white" fill-opacity="0.08"/>
<rect x="799.998" y="32" width="64" height="64" rx="16" fill="#131B2C"/>
<path d="M829.184 75.48C827.094 75.48 825.248 74.9893 823.648 74.008C822.048 73.0267 820.8 71.6613 819.904 69.912C819.03 68.1627 818.592 66.1253 818.592 63.8C818.592 61.4533 819.03 59.416 819.904 57.688C820.8 55.9387 822.048 54.5733 823.648 53.592C825.248 52.6107 827.094 52.12 829.184 52.12C831.382 52.12 833.323 52.696 835.008 53.848C836.694 55 837.91 56.6 838.656 58.648L835.424 59.576L835.072 59.512C834.582 58.2747 833.814 57.3253 832.768 56.664C831.723 55.9813 830.539 55.64 829.216 55.64C827.83 55.64 826.614 55.9813 825.568 56.664C824.544 57.3253 823.744 58.264 823.168 59.48C822.592 60.696 822.304 62.136 822.304 63.8C822.304 65.464 822.592 66.904 823.168 68.12C823.744 69.336 824.544 70.2853 825.568 70.968C826.614 71.6293 827.83 71.96 829.216 71.96C830.539 71.96 831.723 71.6187 832.768 70.936C833.814 70.2533 834.582 69.304 835.072 68.088L835.424 68.024L838.656 68.952C837.91 71 836.694 72.6 835.008 73.752C833.323 74.904 831.382 75.48 829.184 75.48ZM841.892 75V51.96L845.476 51.512L845.572 51.768V75H841.892Z" fill="white"/>
<rect x="1008" width="320" height="128" rx="24" fill="white" fill-opacity="0.08"/>
<rect x="1136" y="32" width="64" height="64" rx="16" fill="#E1C21D"/>
<path d="M1164.92 75L1156.83 53.272L1156.64 52.6H1160.32L1168.83 74.744V75H1164.92ZM1148.12 75V74.744L1156.64 52.6H1160.32L1160.03 53.272L1151.93 75H1148.12ZM1151.9 69.688L1152.86 66.168H1164.41L1165.37 69.688H1151.9ZM1185.9 58.84V75H1182.47V70.872L1183.4 70.936C1183.06 71.8747 1182.57 72.6853 1181.93 73.368C1181.29 74.0293 1180.54 74.552 1179.69 74.936C1178.84 75.2987 1177.91 75.48 1176.9 75.48C1175.75 75.48 1174.71 75.2347 1173.77 74.744C1172.85 74.232 1172.12 73.4853 1171.56 72.504C1171.01 71.5227 1170.73 70.3067 1170.73 68.856V58.84H1174.41V67.768C1174.41 68.7707 1174.55 69.592 1174.82 70.232C1175.12 70.872 1175.53 71.352 1176.04 71.672C1176.57 71.9707 1177.18 72.12 1177.86 72.12C1178.5 72.12 1179.16 71.96 1179.82 71.64C1180.5 71.2987 1181.06 70.7547 1181.51 70.008C1181.98 69.2613 1182.22 68.248 1182.22 66.968V58.84H1185.9Z" fill="white"/>
<rect x="1344" width="320" height="128" rx="24" fill="white" fill-opacity="0.08"/>
<path d="M1526.82 99.9634V104.943H1528.45V101.627H1534.36V104.943H1535.98V99.9721L1526.82 99.9634ZM1528.27 98.3528H1534.51C1535.38 98.1833 1536.03 97.4306 1536.21 96.7026H1526.57C1526.75 97.4309 1527.41 98.1833 1528.27 98.3528ZM1521.91 104.946C1522.72 104.605 1523.16 104.014 1523.33 103.323H1516.05L1516.05 96.7067L1514.42 96.7112V104.946H1521.91ZM1502.28 98.3305H1508.04C1508.91 98.0821 1509.64 97.4309 1509.82 96.7089H1500.66V101.575H1508.16V103.283L1502.28 103.287C1501.35 103.54 1500.57 104.149 1500.18 104.952L1500.66 104.944H1509.77V99.9573H1502.28V98.3305ZM1488.03 98.3462H1494.28C1495.15 98.176 1495.79 97.4241 1495.97 96.6953H1486.34C1486.52 97.4241 1487.17 98.176 1488.03 98.3462ZM1488.03 101.601H1494.28C1495.15 101.432 1495.79 100.68 1495.97 99.9505H1486.34C1486.52 100.68 1487.17 101.432 1488.03 101.601ZM1488.03 104.945H1494.28C1495.15 104.775 1495.79 104.023 1495.97 103.294H1486.34C1486.52 104.023 1487.17 104.775 1488.03 104.945ZM1471.79 96.7153C1471.98 97.435 1472.61 98.1705 1473.48 98.3548H1476.11L1476.24 98.4069V104.927H1477.89V98.4069L1478.04 98.3548H1480.67C1481.54 98.1321 1482.17 97.435 1482.35 96.7153V96.6994H1471.79V96.7153Z" fill="#E82127"/>
<path d="M1504 80.4248L1512.2 35.0867C1520.02 35.0867 1522.48 35.9293 1522.84 39.3686C1522.84 39.3686 1528.08 37.4466 1530.73 33.5431C1520.41 28.8421 1510.04 28.63 1510.04 28.63L1503.99 35.8748L1504 35.8739L1497.95 28.6289C1497.95 28.6289 1487.58 28.8411 1477.26 33.5422C1479.9 37.4457 1485.15 39.3677 1485.15 39.3677C1485.51 35.9282 1487.97 35.0856 1495.73 35.0802L1504 80.4248Z" fill="#E82127"/>
<path d="M1504 26.5372C1512.34 26.4745 1521.89 27.8059 1531.66 31.9941C1532.97 29.6824 1533.3 28.6608 1533.3 28.6608C1522.62 24.5048 1512.61 23.0826 1503.99 23.0469C1495.38 23.0826 1485.37 24.5051 1474.69 28.6608C1474.69 28.6608 1475.16 29.9192 1476.33 31.9941C1486.1 27.8059 1495.65 26.4745 1503.99 26.5372H1504Z" fill="#E82127"/>
<rect x="1472" y="32" width="64" height="64" rx="16" fill="#D9D9D9"/>
<rect x="168" y="144" width="320" height="128" rx="24" fill="white" fill-opacity="0.08"/>
<rect x="295.998" y="176" width="64" height="64" rx="16" fill="#C0C0C0"/>
<path d="M326.018 219L317.922 197.272L317.73 196.6H321.41L329.922 218.744V219H326.018ZM309.218 219V218.744L317.73 196.6H321.41L321.122 197.272L313.026 219H309.218ZM312.994 213.688L313.954 210.168H325.506L326.466 213.688H312.994ZM337.678 225.4C335.502 225.4 333.796 224.973 332.558 224.12C331.321 223.288 330.702 222.125 330.702 220.632C330.702 219.672 330.958 218.829 331.47 218.104C332.004 217.379 332.761 216.813 333.742 216.408L335.534 217.944C335.086 218.136 334.734 218.424 334.478 218.808C334.244 219.192 334.126 219.608 334.126 220.056C334.126 220.675 334.361 221.219 334.83 221.688C335.321 222.157 336.11 222.392 337.198 222.392H339.438C340.59 222.392 341.454 222.221 342.03 221.88C342.606 221.56 342.894 221.08 342.894 220.44C342.894 219.928 342.681 219.533 342.254 219.256C341.849 218.979 341.284 218.84 340.558 218.84H336.558C335.62 218.84 334.777 218.68 334.03 218.36C333.305 218.04 332.729 217.603 332.302 217.048C331.876 216.472 331.662 215.821 331.662 215.096C331.662 214.285 331.908 213.571 332.398 212.952C332.91 212.312 333.636 211.8 334.574 211.416L336.558 213.016C336.046 213.059 335.652 213.24 335.374 213.56C335.097 213.859 334.958 214.179 334.958 214.52C334.958 214.947 335.129 215.288 335.47 215.544C335.812 215.779 336.334 215.896 337.038 215.896H340.942C342.564 215.896 343.854 216.301 344.814 217.112C345.796 217.923 346.286 219 346.286 220.344C346.286 221.88 345.668 223.107 344.43 224.024C343.193 224.941 341.518 225.4 339.406 225.4H337.678ZM338.638 213.848C337.316 213.848 336.153 213.603 335.15 213.112C334.148 212.621 333.358 211.949 332.782 211.096C332.228 210.221 331.95 209.219 331.95 208.088C331.95 206.957 332.228 205.965 332.782 205.112C333.358 204.259 334.148 203.587 335.15 203.096C336.153 202.605 337.316 202.36 338.638 202.36C339.961 202.36 341.113 202.605 342.094 203.096C343.097 203.587 343.876 204.259 344.43 205.112C345.006 205.965 345.294 206.957 345.294 208.088C345.294 209.219 345.006 210.221 344.43 211.096C343.876 211.949 343.097 212.621 342.094 213.112C341.113 213.603 339.961 213.848 338.638 213.848ZM338.638 210.904C339.598 210.904 340.377 210.648 340.974 210.136C341.572 209.603 341.87 208.92 341.87 208.088C341.87 207.256 341.572 206.584 340.974 206.072C340.377 205.56 339.598 205.304 338.638 205.304C337.657 205.304 336.868 205.56 336.27 206.072C335.694 206.584 335.406 207.256 335.406 208.088C335.406 208.92 335.694 209.603 336.27 210.136C336.868 210.648 337.657 210.904 338.638 210.904ZM343.31 205.208L341.006 204.088C341.006 203.149 341.188 202.317 341.55 201.592C341.913 200.867 342.404 200.301 343.022 199.896C343.662 199.469 344.377 199.256 345.166 199.256C345.401 199.256 345.625 199.267 345.838 199.288C346.052 199.288 346.212 199.309 346.318 199.352V202.456L346.158 202.776C345.945 202.712 345.678 202.68 345.358 202.68C344.676 202.68 344.164 202.915 343.822 203.384C343.481 203.853 343.31 204.461 343.31 205.208Z" fill="white"/>
<rect x="504" y="144" width="320" height="128" rx="24" fill="white" fill-opacity="0.08"/>
<rect x="631.998" y="176" width="64" height="64" rx="16" fill="#B87333"/>
<path d="M655.184 219.48C653.094 219.48 651.248 218.989 649.648 218.008C648.048 217.027 646.8 215.661 645.904 213.912C645.03 212.163 644.592 210.125 644.592 207.8C644.592 205.453 645.03 203.416 645.904 201.688C646.8 199.939 648.048 198.573 649.648 197.592C651.248 196.611 653.094 196.12 655.184 196.12C657.382 196.12 659.323 196.696 661.008 197.848C662.694 199 663.91 200.6 664.656 202.648L661.424 203.576L661.072 203.512C660.582 202.275 659.814 201.325 658.768 200.664C657.723 199.981 656.539 199.64 655.216 199.64C653.83 199.64 652.614 199.981 651.568 200.664C650.544 201.325 649.744 202.264 649.168 203.48C648.592 204.696 648.304 206.136 648.304 207.8C648.304 209.464 648.592 210.904 649.168 212.12C649.744 213.336 650.544 214.285 651.568 214.968C652.614 215.629 653.83 215.96 655.216 215.96C656.539 215.96 657.723 215.619 658.768 214.936C659.814 214.253 660.582 213.304 661.072 212.088L661.424 212.024L664.656 212.952C663.91 215 662.694 216.6 661.008 217.752C659.323 218.904 657.382 219.48 655.184 219.48ZM682.74 202.84V219H679.316V214.872L680.244 214.936C679.903 215.875 679.412 216.685 678.772 217.368C678.132 218.029 677.386 218.552 676.532 218.936C675.679 219.299 674.751 219.48 673.748 219.48C672.596 219.48 671.551 219.235 670.612 218.744C669.695 218.232 668.959 217.485 668.404 216.504C667.85 215.523 667.572 214.307 667.572 212.856V202.84H671.252V211.768C671.252 212.771 671.391 213.592 671.668 214.232C671.967 214.872 672.372 215.352 672.884 215.672C673.418 215.971 674.026 216.12 674.708 216.12C675.348 216.12 675.999 215.96 676.66 215.64C677.343 215.299 677.908 214.755 678.356 214.008C678.826 213.261 679.06 212.248 679.06 210.968V202.84H682.74Z" fill="white"/>
<rect x="840" y="144" width="320" height="128" rx="24" fill="white" fill-opacity="0.08"/>
<rect x="967.998" y="176" width="64" height="64" rx="16" fill="#ACACAC"/>
<path d="M989.771 219V196.6H993.451V219H989.771ZM991.659 219V215.48H1004.27V219H991.659ZM1006.83 219V202.84H1010.51V219H1006.83ZM1008.68 200.408C1008.04 200.408 1007.5 200.184 1007.05 199.736C1006.6 199.288 1006.38 198.733 1006.38 198.072C1006.38 197.453 1006.6 196.92 1007.05 196.472C1007.5 196.003 1008.05 195.768 1008.71 195.768C1009.33 195.768 1009.87 196.003 1010.31 196.472C1010.78 196.92 1011.02 197.464 1011.02 198.104C1011.02 198.744 1010.78 199.288 1010.31 199.736C1009.87 200.184 1009.32 200.408 1008.68 200.408Z" fill="white"/>
<rect x="1176" y="144" width="320" height="128" rx="24" fill="white" fill-opacity="0.08"/>
<rect x="1304" y="176" width="64" height="64" rx="16" fill="#51A81B"/>
<path d="M1336.01 219.48C1334.24 219.48 1332.72 219.128 1331.44 218.424C1330.16 217.72 1329.16 216.728 1328.46 215.448C1327.78 214.147 1327.44 212.611 1327.44 210.84V196.6H1331.12V210.904C1331.12 212.525 1331.53 213.773 1332.36 214.648C1333.22 215.523 1334.43 215.96 1336.01 215.96C1337.59 215.96 1338.8 215.523 1339.63 214.648C1340.46 213.773 1340.88 212.525 1340.88 210.904V196.6H1344.56V210.84C1344.56 212.611 1344.2 214.147 1343.5 215.448C1342.82 216.728 1341.84 217.72 1340.56 218.424C1339.28 219.128 1337.76 219.48 1336.01 219.48Z" fill="white"/>
<rect y="288" width="320" height="128" rx="24" fill="white" fill-opacity="0.08"/>
<g clip-path="url(#clip0_2216_6269)">
<path d="M109.7 389.669H210.304V314.328H109.7V389.669Z" fill="#C0311A"/>
<mask id="mask0_2216_6269" style="mask-type:luminance" maskUnits="userSpaceOnUse" x="109" y="314" width="102" height="76">
<path d="M109.699 389.672H210.303V314.331H109.699V389.672Z" fill="white"/>
</mask>
<g mask="url(#mask0_2216_6269)">
<path d="M170.205 327.602H185.6V342.008H170.205V327.602ZM179.905 329.607C179.837 329.596 179.769 329.585 179.697 329.573L179.613 329.562C179.495 329.546 179.376 329.533 179.257 329.52C179.173 329.513 179.091 329.508 179.012 329.502C178.864 329.494 178.72 329.49 178.583 329.49C178.518 329.49 178.483 329.491 178.42 329.493C178.305 329.494 178.193 329.5 178.078 329.505C178.016 329.509 177.953 329.516 177.891 329.52C177.801 329.529 177.71 329.539 177.62 329.551L177.547 329.561L177.463 329.572L177.362 329.587C177.317 329.596 177.273 329.603 177.228 329.611C177.168 329.622 177.108 329.634 177.049 329.647C176.703 329.719 176.363 329.819 176.034 329.947C175.877 330.006 175.723 330.073 175.573 330.148C175.452 330.205 175.333 330.267 175.218 330.335C175.111 330.395 175.005 330.46 174.903 330.528C174.844 330.566 174.787 330.605 174.73 330.645C174.683 330.68 174.635 330.715 174.59 330.749C174.492 330.825 174.398 330.901 174.308 330.979C174.227 331.05 174.148 331.123 174.071 331.199C174.006 331.262 173.943 331.328 173.882 331.395C173.82 331.464 173.759 331.534 173.7 331.606C173.638 331.684 173.574 331.765 173.513 331.847C173.469 331.91 173.427 331.972 173.385 332.037C173.355 332.078 173.327 332.123 173.298 332.168C173.135 332.435 172.997 332.715 172.883 333.005C172.734 333.391 172.631 333.793 172.577 334.203C172.559 334.338 172.546 334.475 172.538 334.611C172.525 334.8 172.523 334.99 172.532 335.179C172.538 335.262 172.545 335.346 172.555 335.427L172.56 335.485C172.573 335.582 172.588 335.678 172.606 335.773C172.615 335.81 172.621 335.846 172.629 335.883C172.647 335.962 172.664 336.039 172.686 336.117C172.713 336.214 172.741 336.312 172.773 336.407C172.814 336.525 172.856 336.638 172.901 336.75C172.977 336.925 173.058 337.095 173.145 337.254C173.198 337.348 173.25 337.44 173.306 337.526C173.349 337.596 173.393 337.664 173.439 337.73C173.499 337.816 173.563 337.898 173.623 337.978C173.687 338.061 173.756 338.141 173.82 338.215C173.903 338.31 173.986 338.395 174.066 338.474L174.109 338.516C174.175 338.579 174.247 338.648 174.329 338.717C174.387 338.764 174.443 338.814 174.507 338.864C174.565 338.91 174.628 338.958 174.692 339.005C174.77 339.06 174.852 339.115 174.939 339.172C175.03 339.231 175.128 339.29 175.231 339.345C175.448 339.467 175.674 339.574 175.905 339.667C175.996 339.704 176.092 339.738 176.192 339.772C176.289 339.805 176.389 339.836 176.494 339.867C176.67 339.917 176.856 339.961 177.052 339.999C177.21 340.03 177.374 340.055 177.544 340.076C177.712 340.095 177.884 340.111 178.065 340.12C178.155 340.125 178.243 340.127 178.334 340.13H178.459C178.783 340.13 179.083 340.119 179.361 340.095L179.414 340.091C179.525 340.081 179.631 340.07 179.735 340.056C179.893 340.038 180.046 340.014 180.188 339.988C180.28 339.973 180.367 339.954 180.453 339.936C180.584 339.908 180.712 339.878 180.831 339.846C180.921 339.823 181.006 339.798 181.088 339.772C181.187 339.743 181.283 339.712 181.374 339.681L181.461 339.651C181.504 339.635 181.563 339.613 181.634 339.586C181.727 339.55 181.839 339.507 181.967 339.453C182.042 339.421 182.125 339.384 182.209 339.345C182.285 339.312 182.362 339.273 182.442 339.234C182.476 339.218 182.508 339.202 182.543 339.185V337.221C182.522 337.236 182.497 337.25 182.474 337.264L182.337 337.346C182.207 337.425 182.075 337.501 181.941 337.574C181.579 337.771 181.203 337.94 180.814 338.08C180.384 338.234 179.987 338.332 179.638 338.392C179.598 338.399 179.557 338.406 179.516 338.411C179.421 338.427 179.328 338.439 179.24 338.448C179.113 338.462 178.986 338.471 178.859 338.475C178.789 338.479 178.72 338.481 178.65 338.481C178.508 338.481 178.364 338.477 178.218 338.467C178.046 338.453 177.872 338.435 177.694 338.407C177.408 338.358 177.12 338.286 176.841 338.184C176.801 338.17 176.757 338.153 176.72 338.138C176.69 338.127 176.663 338.116 176.637 338.105C176.591 338.085 176.544 338.066 176.499 338.045C176.401 338 176.306 337.95 176.213 337.897C176.167 337.87 176.121 337.844 176.075 337.815C176.027 337.785 175.979 337.755 175.935 337.723C175.876 337.682 175.82 337.642 175.763 337.599C175.71 337.555 175.656 337.511 175.608 337.472L175.543 337.413L175.511 337.383L175.492 337.366L175.468 337.341C175.379 337.254 175.298 337.165 175.224 337.077C175.182 337.027 175.144 336.977 175.106 336.927C175.07 336.879 175.036 336.829 175.004 336.782C174.932 336.67 174.866 336.555 174.806 336.436C174.777 336.378 174.749 336.319 174.725 336.26C174.683 336.161 174.646 336.061 174.617 335.966C174.592 335.892 174.572 335.82 174.555 335.749C174.5 335.544 174.475 335.356 174.46 335.197C174.456 335.135 174.451 335.078 174.449 335.027C174.443 334.947 174.443 334.879 174.443 334.825C174.443 334.788 174.443 334.748 174.444 334.701C174.45 334.588 174.458 334.445 174.484 334.284C174.498 334.185 174.517 334.08 174.542 333.969C174.562 333.896 174.582 333.821 174.606 333.744C174.628 333.675 174.653 333.605 174.68 333.532C174.699 333.482 174.719 333.435 174.742 333.386C174.77 333.319 174.802 333.254 174.837 333.185C174.862 333.135 174.892 333.085 174.921 333.033C174.987 332.922 175.058 332.81 175.144 332.7C175.173 332.66 175.204 332.621 175.238 332.582C175.278 332.531 175.322 332.48 175.37 332.431C175.392 332.406 175.416 332.381 175.441 332.356C175.801 331.996 176.209 331.727 176.631 331.536C176.696 331.506 176.763 331.479 176.83 331.454C176.896 331.426 176.962 331.404 177.031 331.38C177.102 331.356 177.178 331.334 177.251 331.313C177.32 331.294 177.39 331.277 177.46 331.26C177.528 331.245 177.6 331.231 177.669 331.217C177.744 331.204 177.821 331.192 177.896 331.182C177.973 331.172 178.05 331.164 178.123 331.158C178.267 331.146 178.409 331.14 178.548 331.14C178.592 331.14 178.637 331.139 178.684 331.14C178.786 331.143 178.887 331.146 178.984 331.153C179.054 331.157 179.118 331.161 179.183 331.168C179.309 331.179 179.428 331.193 179.54 331.213C179.644 331.227 179.741 331.245 179.834 331.262C179.976 331.291 180.106 331.323 180.221 331.352C180.297 331.372 180.367 331.393 180.429 331.411C180.526 331.439 180.608 331.464 180.671 331.486C180.781 331.525 180.841 331.546 180.841 331.546C180.938 331.581 181.033 331.618 181.127 331.655C181.253 331.705 181.372 331.761 181.487 331.812C181.583 331.854 181.674 331.899 181.759 331.942C181.829 331.975 181.895 332.009 181.957 332.041C182.065 332.097 182.156 332.147 182.232 332.187L182.432 332.296V330.367C182.432 330.367 182.312 330.318 182.103 330.238C182.01 330.205 181.901 330.163 181.777 330.12C181.707 330.095 181.636 330.07 181.559 330.042C181.497 330.022 181.434 330 181.368 329.979C181.294 329.955 181.217 329.93 181.138 329.907C181.082 329.89 181.023 329.872 180.963 329.855L180.911 329.84C180.854 329.824 180.795 329.808 180.736 329.792C180.664 329.773 180.593 329.755 180.52 329.737C180.474 329.725 180.429 329.714 180.38 329.703C180.304 329.686 180.227 329.668 180.148 329.653C180.069 329.636 179.986 329.622 179.905 329.607ZM158.375 335.546V338.378H160.224C160.224 338.378 160.26 338.376 160.321 338.375C160.384 338.373 160.472 338.369 160.577 338.359C160.779 338.341 161.043 338.305 161.299 338.219C161.532 338.141 161.758 338.025 161.929 337.852C161.996 337.787 162.052 337.718 162.096 337.649C162.241 337.421 162.278 337.19 162.283 337.059C162.29 337.003 162.289 336.97 162.289 336.97C162.289 336.97 162.29 336.945 162.289 336.9C162.286 336.807 162.274 336.715 162.251 336.625C162.216 336.492 162.152 336.335 162.035 336.193C162.013 336.167 161.989 336.14 161.965 336.114C161.913 336.062 161.856 336.014 161.797 335.97C161.697 335.896 161.581 335.832 161.455 335.779C161.289 335.707 161.104 335.654 160.9 335.616C160.795 335.597 160.684 335.58 160.57 335.569C160.502 335.563 160.43 335.558 160.357 335.555C160.294 335.551 160.227 335.548 160.161 335.548C159.506 335.548 158.375 335.546 158.375 335.546ZM158.375 331.243V333.926H159.271C159.271 333.926 159.33 333.926 159.408 333.925C159.471 333.921 159.544 333.918 159.61 333.915C159.795 333.901 160.049 333.876 160.303 333.805C160.353 333.791 160.403 333.776 160.453 333.758C160.653 333.688 160.844 333.585 160.992 333.438C161.111 333.323 161.189 333.193 161.24 333.069C161.303 332.914 161.327 332.768 161.336 332.665C161.343 332.571 161.343 332.511 161.343 332.511C161.343 332.511 161.344 332.467 161.341 332.397C161.336 332.281 161.312 332.09 161.218 331.908C161.169 331.813 161.105 331.728 161.029 331.654C160.928 331.555 160.806 331.48 160.675 331.423C160.423 331.311 160.134 331.267 159.89 331.251C159.787 331.244 159.69 331.243 159.607 331.243H158.375Z" fill="white"/>
<path d="M152.467 327.602H167.863V342.008H152.467V327.602ZM156.508 329.622V339.998H160.434C160.434 339.998 162.349 340.051 163.407 338.998C164.267 338.144 164.207 337.153 164.207 337.153C164.207 337.153 164.267 336.118 163.471 335.326C162.792 334.65 161.926 334.471 161.926 334.471C161.926 334.471 162.315 334.288 162.617 333.99C162.758 333.849 163.26 333.399 163.26 332.306C163.26 331.204 162.523 330.572 162.523 330.572C162.523 330.572 161.715 329.622 159.893 329.622H156.508ZM140.637 335.546V338.378H142.484C142.484 338.378 142.522 338.376 142.583 338.375C142.646 338.373 142.733 338.369 142.839 338.359C143.041 338.341 143.305 338.305 143.561 338.219C143.794 338.141 144.018 338.025 144.192 337.852C144.258 337.787 144.313 337.718 144.357 337.649C144.503 337.421 144.538 337.19 144.547 337.059C144.551 337.003 144.551 336.97 144.551 336.97V336.9C144.548 336.846 144.541 336.74 144.513 336.625C144.474 336.467 144.4 336.32 144.297 336.193C144.275 336.165 144.25 336.138 144.224 336.114C144.173 336.062 144.118 336.014 144.06 335.97C143.958 335.896 143.841 335.832 143.718 335.779C143.551 335.707 143.363 335.654 143.16 335.616C143.056 335.597 142.944 335.58 142.832 335.569C142.762 335.563 142.691 335.558 142.619 335.555C142.554 335.55 142.489 335.548 142.424 335.548C141.767 335.548 140.637 335.546 140.637 335.546ZM140.637 331.243V333.926H141.531C141.531 333.926 141.592 333.926 141.67 333.925C141.733 333.921 141.806 333.918 141.872 333.915C142.056 333.901 142.311 333.876 142.566 333.805C142.615 333.791 142.665 333.776 142.713 333.758C142.913 333.688 143.106 333.585 143.254 333.438C143.372 333.323 143.45 333.193 143.504 333.069C143.565 332.914 143.588 332.768 143.598 332.665C143.606 332.571 143.605 332.511 143.605 332.511C143.605 332.511 143.607 332.467 143.603 332.397C143.598 332.281 143.572 332.09 143.48 331.908C143.435 331.82 143.373 331.736 143.291 331.654C143.19 331.555 143.068 331.48 142.937 331.423C142.685 331.311 142.396 331.267 142.154 331.251C142.059 331.245 141.965 331.243 141.87 331.243H140.637Z" fill="white"/>
<path d="M134.729 327.602H150.124V342.008H134.729V327.602ZM138.768 329.622V339.998H142.694C142.694 339.998 144.611 340.051 145.668 338.998C146.529 338.144 146.467 337.152 146.467 337.152C146.467 337.152 146.529 336.118 145.732 335.326C145.052 334.65 144.185 334.47 144.185 334.47C144.185 334.47 144.577 334.288 144.879 333.989C145.019 333.849 145.521 333.398 145.521 332.306C145.521 331.204 144.783 330.571 144.783 330.571C144.783 330.571 143.976 329.622 142.153 329.622H138.768ZM140.244 359.809H139.882L135.624 349.258L131.326 359.809H130.964L125.715 346.799H127.58L131.155 355.687L134.749 346.799H136.517L140.131 355.687L143.667 346.799H145.512L140.244 359.809ZM152.589 358.163C155.498 358.163 157.647 356.065 157.647 353.246C157.647 350.411 155.498 348.331 152.589 348.331C149.699 348.331 147.55 350.411 147.55 353.246C147.55 356.065 149.699 358.163 152.589 358.163ZM152.589 346.629C156.868 346.629 159.568 349.654 159.568 353.246C159.568 356.727 156.943 359.865 152.551 359.865C148.311 359.865 145.629 356.745 145.629 353.246C145.629 349.673 148.387 346.629 152.589 346.629ZM163.752 352.434H164.95C166.946 352.434 167.517 351.413 167.499 350.335C167.479 349.125 166.756 348.387 164.95 348.387H163.752V352.434ZM165.159 346.799C167.783 346.799 169.419 348.179 169.419 350.411C169.419 351.904 168.638 353.021 167.251 353.569C168.43 354.344 169.152 355.535 170.141 357.143C170.692 358.031 171.016 358.466 171.91 359.695H169.684L167.973 357.048C166.262 354.401 165.483 354.098 164.531 354.098H163.752V359.695H161.889V346.799H165.159ZM175.181 358.031H181.038V359.695H173.316V346.798H175.181V358.031ZM184.536 358.031H187.502C191.723 358.031 192.693 354.836 192.693 353.247C192.693 350.657 191.039 348.463 187.407 348.463H184.536V358.031ZM182.671 346.798H187.711C192.504 346.798 194.614 350.202 194.614 353.247C194.614 356.556 192.009 359.695 187.731 359.695H182.671V346.798ZM134.302 366.012C133.198 364.972 132.134 364.669 131.26 364.669C130.061 364.669 129.206 365.292 129.206 366.201C129.206 368.678 134.815 368.641 134.815 372.743C134.815 374.767 133.275 376.242 131.182 376.242C129.776 376.242 128.635 375.863 127.55 375.05V372.706C128.502 373.916 129.699 374.578 130.974 374.578C132.419 374.578 133.085 373.67 133.085 372.952C133.085 370.286 127.475 369.983 127.475 366.447C127.475 364.347 129.033 363.005 131.411 363.005C132.399 363.005 133.389 363.307 134.302 363.912V366.012ZM144.209 364.839H138.713V368.735H144.018V370.398H138.713V374.407H144.38V376.072H136.849V363.175H144.209V364.839ZM148.259 368.81H149.458C151.454 368.81 152.025 367.789 152.005 366.712C151.987 365.501 151.263 364.763 149.458 364.763H148.259V368.81ZM149.667 363.175C152.291 363.175 153.925 364.555 153.925 366.787C153.925 368.28 153.146 369.397 151.758 369.945C152.937 370.721 153.659 371.911 154.649 373.519C155.2 374.407 155.524 374.843 156.417 376.071H154.192L152.48 373.424C150.77 370.777 149.989 370.474 149.039 370.474H148.259V376.071H146.396V363.175H149.667ZM160.889 376.185H160.508L154.899 363.175H156.762L160.66 372.233L164.539 363.175H166.384L160.889 376.185ZM169.693 376.071H167.83V363.174H169.693V376.071ZM183.613 366.05C182.016 365.123 180.646 364.708 179.144 364.708C176.177 364.708 173.972 366.805 173.972 369.642C173.972 372.536 176.102 374.539 179.219 374.539C180.684 374.539 182.282 374.029 183.746 373.084V375.108C182.472 375.77 181.084 376.241 179.05 376.241C174.181 376.241 172.052 372.517 172.052 369.812C172.052 365.88 175.036 363.005 179.163 363.005C180.494 363.005 181.844 363.326 183.613 364.063V366.05ZM193.387 364.839H187.892V368.735H193.196V370.398H187.892V374.407H193.558V376.072H186.027V363.175H193.387V364.839Z" fill="white"/>
</g>
</g>
<rect x="336" y="288" width="320" height="128" rx="24" fill="white" fill-opacity="0.08"/>
<rect x="463.998" y="320" width="64" height="64" rx="16" fill="#013FA0"/>
<path d="M487.262 361.48C485.172 361.48 483.326 360.989 481.726 360.008C480.126 359.027 478.878 357.661 477.982 355.912C477.108 354.163 476.67 352.125 476.67 349.8C476.67 347.453 477.108 345.416 477.982 343.688C478.878 341.939 480.126 340.573 481.726 339.592C483.326 338.611 485.172 338.12 487.262 338.12C489.46 338.12 491.401 338.696 493.086 339.848C494.772 341 495.988 342.6 496.734 344.648L493.502 345.576L493.15 345.512C492.66 344.275 491.892 343.325 490.846 342.664C489.801 341.981 488.617 341.64 487.294 341.64C485.908 341.64 484.692 341.981 483.646 342.664C482.622 343.325 481.822 344.264 481.246 345.48C480.67 346.696 480.382 348.136 480.382 349.8C480.382 351.464 480.67 352.904 481.246 354.12C481.822 355.336 482.622 356.285 483.646 356.968C484.692 357.629 485.908 357.96 487.294 357.96C488.617 357.96 489.801 357.619 490.846 356.936C491.892 356.253 492.66 355.304 493.15 354.088L493.502 354.024L496.734 354.952C495.988 357 494.772 358.6 493.086 359.752C491.401 360.904 489.46 361.48 487.262 361.48ZM507.234 361.48C505.613 361.48 504.184 361.117 502.946 360.392C501.709 359.667 500.738 358.664 500.034 357.384C499.33 356.083 498.978 354.589 498.978 352.904C498.978 351.24 499.33 349.768 500.034 348.488C500.738 347.187 501.709 346.173 502.946 345.448C504.184 344.723 505.613 344.36 507.234 344.36C508.877 344.36 510.317 344.723 511.554 345.448C512.792 346.173 513.762 347.187 514.466 348.488C515.17 349.768 515.522 351.24 515.522 352.904C515.522 354.589 515.17 356.083 514.466 357.384C513.762 358.664 512.792 359.667 511.554 360.392C510.317 361.117 508.877 361.48 507.234 361.48ZM507.234 358.152C508.173 358.152 508.984 357.939 509.666 357.512C510.349 357.085 510.882 356.477 511.266 355.688C511.65 354.899 511.842 353.981 511.842 352.936C511.842 351.848 511.65 350.92 511.266 350.152C510.882 349.363 510.349 348.755 509.666 348.328C508.984 347.901 508.173 347.688 507.234 347.688C506.317 347.688 505.517 347.901 504.834 348.328C504.152 348.755 503.618 349.363 503.234 350.152C502.85 350.92 502.658 351.837 502.658 352.904C502.658 353.971 502.85 354.899 503.234 355.688C503.618 356.477 504.152 357.085 504.834 357.512C505.517 357.939 506.317 358.152 507.234 358.152Z" fill="white"/>
<rect x="672" y="288" width="320" height="128" rx="24" fill="white" fill-opacity="0.08"/>
<rect x="799.998" y="320" width="64" height="64" rx="16" fill="#332D25"/>
<path d="M817.245 361.48C815.197 361.48 813.373 361 811.773 360.04C810.195 359.059 808.957 357.693 808.061 355.944C807.165 354.173 806.717 352.125 806.717 349.8C806.717 347.453 807.165 345.405 808.061 343.656C808.979 341.907 810.237 340.552 811.837 339.592C813.459 338.611 815.315 338.12 817.405 338.12C819.581 338.12 821.491 338.675 823.133 339.784C824.776 340.893 825.992 342.419 826.781 344.36L823.581 345.288L823.229 345.224C822.653 344.072 821.864 343.187 820.861 342.568C819.859 341.949 818.717 341.64 817.437 341.64C816.093 341.64 814.888 341.971 813.821 342.632C812.755 343.293 811.923 344.232 811.325 345.448C810.728 346.664 810.429 348.104 810.429 349.768C810.429 351.432 810.739 352.883 811.357 354.12C811.976 355.336 812.829 356.285 813.917 356.968C815.005 357.629 816.243 357.96 817.629 357.96C818.696 357.96 819.709 357.715 820.669 357.224C821.651 356.712 822.44 355.997 823.037 355.08C823.635 354.141 823.933 353.053 823.933 351.816V351.208L825.213 351.944H817.789V348.456H827.005L827.453 348.904V361H824.093V356.2H825.341C824.787 357.395 824.083 358.387 823.229 359.176C822.397 359.965 821.459 360.552 820.413 360.936C819.389 361.299 818.333 361.48 817.245 361.48ZM831.482 361V344.84H834.938V348.968L834.01 348.904C834.458 347.645 835.205 346.653 836.25 345.928C837.296 345.203 838.49 344.84 839.834 344.84H841.402V348.136H839.29C838.458 348.136 837.733 348.328 837.114 348.712C836.496 349.075 836.016 349.597 835.674 350.28C835.333 350.963 835.162 351.773 835.162 352.712V361H831.482ZM847.974 361.48C846.865 361.48 845.873 361.267 844.998 360.84C844.145 360.413 843.473 359.816 842.982 359.048C842.492 358.28 842.246 357.405 842.246 356.424C842.246 354.909 842.769 353.704 843.814 352.808C844.86 351.891 846.364 351.357 848.326 351.208L854.598 350.696V353.736L848.87 354.216C847.846 354.301 847.11 354.515 846.662 354.856C846.214 355.197 845.99 355.656 845.99 356.232C845.99 356.808 846.246 357.277 846.758 357.64C847.27 358.003 847.921 358.184 848.71 358.184C849.542 358.184 850.289 357.981 850.95 357.576C851.633 357.149 852.177 356.605 852.582 355.944C852.988 355.283 853.19 354.568 853.19 353.8V351.144C853.19 350.12 852.849 349.277 852.166 348.616C851.484 347.933 850.588 347.592 849.478 347.592C848.54 347.592 847.761 347.827 847.142 348.296C846.545 348.744 846.161 349.309 845.99 349.992H845.638L842.502 349.224C842.886 347.773 843.686 346.6 844.902 345.704C846.14 344.808 847.676 344.36 849.51 344.36C851.793 344.36 853.574 345.021 854.854 346.344C856.134 347.645 856.774 349.491 856.774 351.88V361H853.51V356.296L854.822 356.488C854.566 357.405 854.108 358.248 853.446 359.016C852.785 359.763 851.985 360.36 851.046 360.808C850.129 361.256 849.105 361.48 847.974 361.48Z" fill="white"/>
<rect x="1008" y="288" width="320" height="128" rx="24" fill="white" fill-opacity="0.08"/>
<rect x="1136" y="320" width="64" height="64" rx="16" fill="#55D095"/>
<path d="M1173.83 361V338.6H1177.51V361H1173.83ZM1159.46 361V338.6H1163.14V361H1159.46ZM1161.35 351.24V347.72H1175.91V351.24H1161.35Z" fill="white"/>
<rect x="1344" y="288" width="320" height="128" rx="24" fill="white" fill-opacity="0.08"/>
<path d="M1412.56 358.321C1412.56 360.6 1413.05 362.349 1413.7 363.408C1414.56 364.794 1415.83 365.382 1417.12 365.382C1418.8 365.382 1420.33 364.964 1423.27 360.866C1425.64 357.58 1428.42 352.969 1430.29 350.078L1433.46 345.18C1435.66 341.778 1438.21 337.997 1441.14 335.434C1443.52 333.342 1446.1 332.18 1448.69 332.18C1453.04 332.18 1457.18 334.714 1460.35 339.466C1463.82 344.671 1465.51 351.227 1465.51 357.993C1465.51 362.015 1464.72 364.971 1463.38 367.305C1462.08 369.563 1459.55 371.819 1455.3 371.819V365.382C1458.94 365.382 1459.85 362.019 1459.85 358.172C1459.85 352.689 1458.58 346.604 1455.78 342.256C1453.79 339.172 1451.21 337.287 1448.38 337.287C1445.31 337.287 1442.85 339.612 1440.07 343.756C1438.6 345.958 1437.09 348.642 1435.39 351.67L1433.52 355.001C1429.76 361.698 1428.81 363.223 1426.93 365.741C1423.64 370.149 1420.83 371.819 1417.12 371.819C1412.73 371.819 1409.96 369.908 1408.24 367.027C1406.83 364.68 1406.14 361.6 1406.14 358.091L1412.56 358.321Z" fill="#0081FB"/>
<path d="M1411.2 339.921C1414.14 335.365 1418.38 332.18 1423.25 332.18C1426.07 332.18 1428.87 333.018 1431.79 335.419C1434.99 338.045 1438.4 342.368 1442.66 349.492L1444.18 352.049C1447.87 358.217 1449.96 361.391 1451.19 362.887C1452.77 364.809 1453.87 365.382 1455.3 365.382C1458.94 365.382 1459.85 362.019 1459.85 358.172L1465.51 357.993C1465.51 362.015 1464.72 364.971 1463.38 367.305C1462.08 369.563 1459.56 371.819 1455.3 371.819C1452.66 371.819 1450.32 371.242 1447.73 368.787C1445.74 366.903 1443.42 363.555 1441.63 360.546L1436.3 351.605C1433.63 347.118 1431.18 343.773 1429.76 342.258C1428.24 340.629 1426.28 338.661 1423.15 338.661C1420.61 338.661 1418.46 340.448 1416.66 343.181L1411.2 339.921Z" fill="url(#paint0_linear_2216_6269)"/>
<path d="M1423.14 338.661C1420.61 338.661 1418.46 340.448 1416.66 343.181C1414.11 347.044 1412.56 352.796 1412.56 358.321C1412.56 360.6 1413.05 362.349 1413.7 363.408L1408.24 367.027C1406.83 364.68 1406.14 361.6 1406.14 358.091C1406.14 351.709 1407.89 345.057 1411.2 339.921C1414.14 335.365 1418.38 332.18 1423.25 332.18L1423.14 338.661Z" fill="url(#paint1_linear_2216_6269)"/>
<path d="M1477.97 333.434H1485.39L1498 356.371L1510.62 333.434H1517.87V371.122H1511.82V342.237L1500.76 362.24H1495.08L1484.02 342.237V371.122H1477.97V333.434ZM1536.83 347.486C1532.49 347.486 1529.88 350.769 1529.25 354.835H1543.98C1543.68 350.647 1541.28 347.486 1536.83 347.486ZM1523.25 357.151C1523.25 348.596 1528.75 342.37 1536.94 342.37C1544.99 342.37 1549.79 348.517 1549.79 357.608V359.278H1529.25C1529.98 363.701 1532.9 366.681 1537.61 366.681C1541.36 366.681 1543.71 365.529 1545.94 363.423L1549.15 367.381C1546.12 370.18 1542.27 371.795 1537.39 371.795C1528.54 371.795 1523.25 365.301 1523.25 357.151ZM1557.13 348.026H1551.56V343.045H1557.13V334.807H1562.97V343.045H1571.43V348.026H1562.97V360.65C1562.97 364.961 1564.34 366.492 1567.71 366.492C1569.25 366.492 1570.13 366.359 1571.43 366.142V371.068C1569.81 371.529 1568.26 371.741 1566.58 371.741C1560.28 371.741 1557.13 368.279 1557.13 361.349V348.026ZM1596.01 352.869C1594.84 349.893 1592.22 347.702 1588.38 347.702C1583.38 347.702 1580.19 351.265 1580.19 357.07C1580.19 362.73 1583.13 366.465 1588.14 366.465C1592.08 366.465 1594.89 364.162 1596.01 361.296V352.869ZM1601.85 371.122H1596.12V367.192C1594.52 369.506 1591.6 371.795 1586.88 371.795C1579.29 371.795 1574.21 365.405 1574.21 357.07C1574.21 348.656 1579.41 342.37 1587.2 342.37C1591.06 342.37 1594.08 343.918 1596.12 346.652V343.045H1601.85V371.122Z" fill="#192830"/>
<defs>
<linearGradient id="paint0_linear_2216_6269" x1="1418.74" y1="356.462" x2="1459.61" y2="358.515" gradientUnits="userSpaceOnUse">
<stop stop-color="#0064E1"/>
<stop offset="0.4" stop-color="#0064E1"/>
<stop offset="0.83" stop-color="#0073EE"/>
<stop offset="1" stop-color="#0082FB"/>
</linearGradient>
<linearGradient id="paint1_linear_2216_6269" x1="1415.43" y1="361.027" x2="1415.43" y2="345.877" gradientUnits="userSpaceOnUse">
<stop stop-color="#0082FB"/>
<stop offset="1" stop-color="#0064E0"/>
</linearGradient>
<clipPath id="clip0_2216_6269">
<rect width="102" height="76" fill="white" transform="translate(109 314)"/>
</clipPath>
</defs>
</svg>
