<svg width="1664" height="416" viewBox="0 0 1664 416" fill="none" xmlns="http://www.w3.org/2000/svg">
<rect width="320" height="128" rx="24" fill="white" fill-opacity="0.08"/>
<path d="M186.577 61.9279C185.912 62.1452 185.003 62.3295 183.873 62.4716C183.335 62.5425 182.736 62.5781 182.035 62.5781C180.857 62.5781 179.582 62.4836 178.347 62.3864L178.304 62.3849C177.16 62.2977 176.077 62.216 175.039 62.216C174.297 62.216 173.617 62.2602 172.965 62.3442C171.024 62.587 169.494 63.2007 169.494 63.2007L169.511 63.042C169.886 59.1217 173.156 55.775 177.113 55.2456C177.484 55.2014 177.856 55.1789 178.23 55.1783C181.957 55.1783 185.573 58.0251 186.647 61.8067L186.674 61.9047L186.577 61.9279ZM191.132 63.5922L191.131 63.5388C191.114 63.2867 191.066 62.879 191.014 62.4406C190.912 61.6489 190.741 60.868 190.501 60.1072C188.701 54.3895 183.885 50.6996 178.23 50.6996C177.665 50.6996 177.082 50.7356 176.507 50.8146C169.255 51.7548 164.329 58.3759 165.288 65.8881C166.161 72.6889 171.592 77.3479 178.203 77.3479C178.76 77.3479 179.341 77.3092 179.928 77.238C183.451 76.7872 186.546 75.3007 188.865 72.4101C188.996 72.2455 189.06 72.0352 189.036 71.8467C189.015 71.6794 188.918 71.5202 188.743 71.3924C188.354 71.1105 186.965 70.4321 186.209 70.0693C185.987 69.957 185.808 69.8707 185.709 69.8207C185.48 69.7018 185.315 69.6484 185.166 69.6484C184.983 69.6484 184.808 69.7429 184.639 69.9504C183.144 71.7007 181.252 72.6207 179.319 72.8763C178.936 72.9235 178.564 72.9487 178.203 72.9487C174.68 72.9487 171.124 70.5723 170.092 67.3107L170.066 67.2255L170.142 67.1884C170.325 67.097 171.974 66.3237 174.417 66.3237C174.72 66.3237 175.028 66.3361 175.33 66.3632C176.031 66.419 176.734 66.5103 177.477 66.6052C178.847 66.7876 180.267 66.9769 181.925 66.9769C182.946 66.9757 183.966 66.9027 184.977 66.7586C189.009 65.9756 190.609 64.8364 190.622 64.8263C191.191 64.455 191.17 64.1475 191.132 63.5922M254.303 52.1966C254.303 51.8555 254.026 51.581 253.69 51.581H250.353C250.021 51.581 249.745 51.8555 249.745 52.1966V76.1022C249.745 76.4399 250.021 76.7191 250.353 76.7191H253.69C254.026 76.7191 254.303 76.4399 254.303 76.1022V52.1966ZM252.024 43.0547C250.365 43.0547 249.012 44.4193 249.012 46.0932C249.012 47.7633 250.365 49.1248 252.024 49.1248C253.688 49.1248 255.037 47.7633 255.037 46.0932C255.037 44.4193 253.688 43.0547 252.024 43.0547ZM207.844 55.2398C212.574 55.2398 216.28 59.1612 216.28 64.1703C216.28 69.2093 212.763 73.0056 208.098 73.0056C205.743 73.0056 203.559 72.1545 201.962 70.613C200.313 69.0281 199.409 66.7899 199.409 64.3206C199.409 59.313 203.193 55.2398 207.844 55.2398ZM207.696 77.3561C207.906 77.365 208.125 77.3735 208.338 77.3735C211.766 77.3735 214.953 76.0399 217.321 73.6364C219.722 71.1861 221.041 67.8261 221.041 64.1703C221.041 56.6172 215.268 50.6996 207.897 50.6996C201.899 50.6996 196.836 54.6784 195.288 60.5971C195.025 61.6019 194.752 64.1645 194.752 66.7202V85.4773C194.752 85.8192 195.025 86.0976 195.364 86.0976H198.674C199.017 86.0976 199.294 85.8157 199.294 85.4723L199.291 73.6565L199.465 73.8269C201.091 75.418 204.106 77.1865 207.696 77.3561ZM148.366 55.2398C153.091 55.2398 156.799 59.1612 156.799 64.1703C156.799 69.2093 153.284 73.0056 148.615 73.0056C146.254 73.0056 144.08 72.1545 142.484 70.613C140.833 69.0281 139.925 66.7899 139.925 64.3206C139.925 59.313 143.711 55.2398 148.366 55.2398ZM148.219 77.3561C148.43 77.365 148.647 77.3735 148.856 77.3735C152.288 77.3735 155.477 76.0399 157.841 73.6364C160.242 71.1861 161.565 67.8261 161.565 64.1703C161.565 56.6172 155.787 50.6996 148.415 50.6996C142.42 50.6996 137.351 54.6784 135.807 60.5971C135.538 61.6019 135.27 64.1645 135.27 66.7202V85.4773C135.27 85.8192 135.545 86.0976 135.876 86.0976H139.197C139.537 86.0976 139.814 85.8157 139.814 85.4723L139.809 73.6565L139.976 73.8269C141.603 75.418 144.619 77.1865 148.219 77.3561ZM224.23 73.1686C227.112 75.8258 230.261 77.3437 234.349 77.3437H234.478C241.534 77.2976 244.686 73.4126 244.686 69.5849C244.686 64.2904 239.728 62.8433 238.209 62.5223C237.721 62.4267 237.214 62.3307 236.694 62.2265C235.466 61.9883 234.191 61.7425 233.033 61.4199C232.221 61.1953 229.573 60.3066 229.573 58.3121C229.573 56.1165 231.992 54.9328 234.264 54.9328C236.173 54.9328 237.764 55.2565 239.8 56.8584C239.96 56.9847 240.183 57.1295 240.455 57.1295C240.657 57.1295 240.85 57.059 241.057 56.9095C241.621 56.4909 242.653 55.6143 243.335 54.9277C243.495 54.7639 243.57 54.5846 243.561 54.3972C243.545 54.106 243.33 53.8679 243.22 53.7761C240.497 51.5999 237.876 50.7093 234.18 50.6996H234.153C228.867 50.6996 224.877 54.1227 224.877 58.6609C224.877 62.2571 227.811 64.8112 233.131 65.8637L236.462 66.5069C238.652 66.9119 239.882 68.0829 239.84 69.7231C239.8 71.3216 237.854 72.977 234.657 72.977C232.047 72.977 229.748 71.9504 227.822 70.1893L227.794 70.1615C227.658 70.0376 227.495 69.8858 227.276 69.8858C227.123 69.8858 226.961 69.9574 226.786 70.0949C226.586 70.259 224.361 72.031 224.124 72.2815C224.015 72.3992 223.964 72.5235 223.966 72.654C223.971 72.8612 224.107 73.0544 224.23 73.1686Z" fill="#2151A1"/>
<path d="M116.766 85.6158C104.919 97.5523 85.7048 97.5508 73.8591 85.6158C62.0073 73.6777 62.0073 54.3231 73.8591 42.3889C85.7075 30.4535 104.919 30.4535 116.763 42.39C128.615 54.3227 128.615 73.6773 116.766 85.6158Z" fill="white"/>
<path d="M118.927 48.5781C119.51 50.4775 119.807 52.4544 119.807 54.4426C119.807 61.0277 116.593 66.8183 111.704 70.4465C103.204 76.7532 90.8149 76.7618 73.7085 82.1918C78.8716 88.4083 86.6301 92.3649 95.3065 92.3649C110.857 92.3649 123.462 79.6667 123.462 64.0024C123.462 58.316 121.791 53.0219 118.927 48.5781Z" fill="#2151A1"/>
<path d="M112.191 41.3064C107.487 37.744 101.642 35.6367 95.3068 35.6367C79.7572 35.6367 67.1523 48.3376 67.1523 64C67.1523 70.3048 69.1942 76.1279 72.6476 80.8365C91.5837 75.2818 106.536 60.3183 112.191 41.3064Z" fill="#EB1933"/>
<rect x="336" width="320" height="128" rx="24" fill="white" fill-opacity="0.08"/>
<g clip-path="url(#clip0_2216_6347)">
<path d="M534.801 73.6818C529.458 95.113 507.751 108.156 486.318 102.811C464.893 97.4684 451.85 75.7607 457.196 54.3313C462.536 32.8978 484.242 19.8542 505.67 25.1971C527.102 30.54 540.144 52.25 534.8 73.6822L534.8 73.6818H534.801Z" fill="#F7931A"/>
<path d="M513.638 58.3054C514.434 52.9816 510.381 50.1199 504.839 48.2109L506.637 40.9994L502.247 39.9056L500.496 46.9272C499.342 46.6393 498.157 46.3681 496.979 46.0993L498.742 39.0313L494.355 37.9375L492.556 45.1466C491.601 44.9292 490.663 44.7143 489.753 44.4878L489.758 44.4652L483.705 42.9534L482.537 47.6421C482.537 47.6421 485.794 48.3886 485.725 48.4346C487.503 48.8783 487.824 50.055 487.771 50.9877L485.723 59.2033C485.845 59.2344 486.004 59.2793 486.179 59.3497C486.033 59.3134 485.877 59.2737 485.715 59.2349L482.844 70.7437C482.627 71.2838 482.076 72.0943 480.833 71.7866C480.877 71.8503 477.642 70.9903 477.642 70.9903L475.463 76.0153L481.175 77.4394C482.238 77.7059 483.28 77.9847 484.305 78.2469L482.489 85.5411L486.873 86.6349L488.672 79.4182C489.87 79.7434 491.033 80.0434 492.171 80.3261L490.378 87.5088L494.768 88.6026L496.584 81.3222C504.07 82.7388 509.698 82.1677 512.068 75.397C513.977 69.9458 511.973 66.8015 508.034 64.7511C510.903 64.0896 513.063 62.203 513.639 58.3059L513.638 58.305L513.638 58.3054ZM503.608 72.3696C502.251 77.8209 493.073 74.8741 490.098 74.1352L492.508 64.4717C495.484 65.2145 505.026 66.6846 503.608 72.3696H503.608ZM504.966 58.2264C503.728 63.1848 496.089 60.6657 493.611 60.048L495.796 51.2838C498.275 51.9015 506.255 53.0544 504.966 58.2264H504.966Z" fill="white"/>
</g>
<rect x="672" width="320" height="128" rx="24" fill="white" fill-opacity="0.08"/>
<g clip-path="url(#clip1_2216_6347)">
<path d="M831.99 24L831.452 25.8271V78.84L831.99 79.3767L856.598 64.831L831.99 24Z" fill="#343434"/>
<path d="M831.99 24L807.382 64.831L831.99 79.3767V53.6457V24Z" fill="#8C8C8C"/>
<path d="M831.99 84.0362L831.687 84.4059V103.29L831.99 104.175L856.613 69.498L831.99 84.0362Z" fill="#3C3C3B"/>
<path d="M831.99 104.175V84.0362L807.382 69.498L831.99 104.175Z" fill="#8C8C8C"/>
<path d="M831.99 79.3756L856.598 64.8298L831.99 53.6445V79.3756Z" fill="#141414"/>
<path d="M807.382 64.8298L831.99 79.3756V53.6445L807.382 64.8298Z" fill="#393939"/>
</g>
<rect x="1008" width="320" height="128" rx="24" fill="white" fill-opacity="0.08"/>
<g clip-path="url(#clip2_2216_6347)">
<path fill-rule="evenodd" clip-rule="evenodd" d="M1142.66 28.9946L1128.06 59.673C1128 59.7871 1127.99 59.916 1128.01 60.0409C1128.03 60.1657 1128.09 60.2799 1128.19 60.3668L1167.63 98.1651C1167.74 98.2725 1167.89 98.3325 1168.05 98.3325C1168.2 98.3325 1168.35 98.2725 1168.46 98.1651L1207.91 60.3692C1208 60.2823 1208.07 60.1681 1208.09 60.0432C1208.11 59.9184 1208.09 59.7895 1208.04 59.6754L1193.43 28.9969C1193.39 28.8939 1193.31 28.8066 1193.21 28.7455C1193.12 28.6844 1193.01 28.6521 1192.89 28.6524H1143.21C1143.09 28.651 1142.98 28.6825 1142.89 28.7432C1142.79 28.804 1142.71 28.8912 1142.66 28.9946Z" fill="#50AF95"/>
<path fill-rule="evenodd" clip-rule="evenodd" d="M1173.12 62.8238C1172.83 62.845 1171.37 62.9323 1168.11 62.9323C1165.51 62.9323 1163.67 62.8545 1163.02 62.8238C1152.99 62.3825 1145.5 60.6362 1145.5 58.5453C1145.5 56.4545 1152.99 54.7105 1163.02 54.2621V61.0845C1163.68 61.1317 1165.56 61.2427 1168.15 61.2427C1171.27 61.2427 1172.83 61.1129 1173.11 61.0869V54.2668C1183.12 54.7129 1190.59 56.4592 1190.59 58.5453C1190.59 60.6314 1183.12 62.3778 1173.11 62.8214L1173.12 62.8238ZM1173.12 53.5612V47.4562H1187.09V38.1465H1149.05V47.4562H1163.02V53.5589C1151.67 54.0804 1143.13 56.3294 1143.13 59.0244C1143.13 61.7193 1151.67 63.966 1163.02 64.4898V84.0533H1173.11V64.4828C1184.44 63.9612 1192.97 61.7146 1192.97 59.022C1192.97 56.3294 1184.45 54.0828 1173.11 53.5589L1173.12 53.5612Z" fill="white"/>
</g>
<rect x="1344" width="320" height="128" rx="24" fill="white" fill-opacity="0.08"/>
<path d="M1526.82 99.9634V104.943H1528.45V101.627H1534.36V104.943H1535.98V99.9721L1526.82 99.9634ZM1528.27 98.3528H1534.51C1535.38 98.1833 1536.03 97.4306 1536.21 96.7026H1526.57C1526.75 97.4309 1527.41 98.1833 1528.27 98.3528ZM1521.91 104.946C1522.72 104.605 1523.16 104.014 1523.33 103.323H1516.05L1516.05 96.7067L1514.42 96.7112V104.946H1521.91ZM1502.28 98.3305H1508.04C1508.91 98.0821 1509.64 97.4309 1509.82 96.7089H1500.66V101.575H1508.16V103.283L1502.28 103.287C1501.35 103.54 1500.57 104.149 1500.18 104.952L1500.66 104.944H1509.77V99.9573H1502.28V98.3305ZM1488.03 98.3462H1494.28C1495.15 98.176 1495.79 97.4241 1495.97 96.6953H1486.34C1486.52 97.4241 1487.17 98.176 1488.03 98.3462ZM1488.03 101.601H1494.28C1495.15 101.432 1495.79 100.68 1495.97 99.9505H1486.34C1486.52 100.68 1487.17 101.432 1488.03 101.601ZM1488.03 104.945H1494.28C1495.15 104.775 1495.79 104.023 1495.97 103.294H1486.34C1486.52 104.023 1487.17 104.775 1488.03 104.945ZM1471.79 96.7153C1471.98 97.435 1472.61 98.1705 1473.48 98.3548H1476.11L1476.24 98.4069V104.927H1477.89V98.4069L1478.04 98.3548H1480.67C1481.54 98.1321 1482.17 97.435 1482.35 96.7153V96.6994H1471.79V96.7153Z" fill="#E82127"/>
<path d="M1504 80.4248L1512.2 35.0867C1520.02 35.0867 1522.48 35.9293 1522.84 39.3686C1522.84 39.3686 1528.08 37.4466 1530.73 33.5431C1520.41 28.8421 1510.04 28.63 1510.04 28.63L1503.99 35.8748L1504 35.8739L1497.95 28.6289C1497.95 28.6289 1487.58 28.8411 1477.26 33.5422C1479.9 37.4457 1485.15 39.3677 1485.15 39.3677C1485.51 35.9282 1487.97 35.0856 1495.73 35.0802L1504 80.4248Z" fill="#E82127"/>
<path d="M1504 26.5372C1512.34 26.4745 1521.89 27.8059 1531.66 31.9941C1532.97 29.6824 1533.3 28.6608 1533.3 28.6608C1522.62 24.5048 1512.61 23.0826 1503.99 23.0469C1495.38 23.0826 1485.37 24.5051 1474.69 28.6608C1474.69 28.6608 1475.16 29.9192 1476.33 31.9941C1486.1 27.8059 1495.65 26.4745 1503.99 26.5372H1504Z" fill="#E82127"/>
<rect x="168" y="144" width="320" height="128" rx="24" fill="white" fill-opacity="0.08"/>
<g clip-path="url(#clip3_2216_6347)">
<path d="M300.983 224.463C301.465 223.981 302.128 223.699 302.832 223.699H366.631C367.797 223.699 368.379 225.106 367.555 225.93L354.952 238.533C354.47 239.016 353.807 239.297 353.103 239.297H289.304C288.138 239.297 287.555 237.89 288.379 237.066L300.983 224.463Z" fill="url(#paint0_linear_2216_6347)"/>
<path d="M300.983 177.406C301.485 176.924 302.148 176.643 302.832 176.643H366.631C367.797 176.643 368.379 178.05 367.555 178.874L354.952 191.477C354.47 191.959 353.807 192.241 353.103 192.241H289.304C288.138 192.241 287.555 190.834 288.379 190.009L300.983 177.406Z" fill="url(#paint1_linear_2216_6347)"/>
<path d="M354.952 200.783C354.47 200.301 353.807 200.02 353.103 200.02H289.304C288.138 200.02 287.555 201.427 288.379 202.251L300.983 214.854C301.465 215.336 302.128 215.618 302.832 215.618H366.631C367.797 215.618 368.379 214.21 367.555 213.386L354.952 200.783Z" fill="url(#paint2_linear_2216_6347)"/>
</g>
<rect x="504" y="144" width="320" height="128" rx="24" fill="white" fill-opacity="0.08"/>
<g clip-path="url(#clip4_2216_6347)">
<path fill-rule="evenodd" clip-rule="evenodd" d="M663.998 168C686.091 168 703.998 185.907 703.998 208C703.998 230.093 686.091 248 663.998 248C641.905 248 623.998 230.093 623.998 208C623.998 185.907 641.905 168 663.998 168Z" fill="#F0B90B"/>
<path d="M645.982 208L646.01 218.577L654.998 223.865V230.057L640.751 221.702V204.907L645.982 208ZM645.982 197.423V203.586L640.748 200.49V194.327L645.982 191.23L651.241 194.327L645.982 197.423ZM658.751 194.327L663.985 191.23L669.244 194.327L663.985 197.423L658.751 194.327Z" fill="white"/>
<path d="M649.764 216.384V210.192L654.998 213.288V219.452L649.764 216.384ZM658.751 226.083L663.985 229.179L669.244 226.083V232.246L663.985 235.343L658.751 232.246V226.083ZM676.751 194.327L681.985 191.23L687.244 194.327V200.49L681.985 203.586V197.423L676.751 194.327ZM681.985 218.577L682.014 208L687.248 204.904V221.698L673.001 230.054V223.862L681.985 218.577Z" fill="white"/>
<path d="M678.232 216.384L672.998 219.451V213.288L678.232 210.191V216.384Z" fill="white"/>
<path d="M678.232 199.615L678.26 205.807L669.248 211.095V221.698L664.014 224.765L658.78 221.698V211.095L649.767 205.807V199.615L655.023 196.518L663.982 201.833L672.994 196.518L678.254 199.615H678.232ZM649.764 189.041L663.985 180.656L678.232 189.041L672.998 192.137L663.985 186.823L654.998 192.137L649.764 189.041Z" fill="white"/>
</g>
<rect x="840" y="144" width="320" height="128" rx="24" fill="white" fill-opacity="0.08"/>
<g clip-path="url(#clip5_2216_6347)">
<path d="M981.928 207.693C981.757 210.658 984.04 213.197 987.005 213.367C987.112 213.367 987.219 213.367 987.325 213.367C990.312 213.367 992.723 210.957 992.701 207.97C992.701 204.983 990.291 202.573 987.304 202.594C984.445 202.594 982.077 204.834 981.928 207.693Z" fill="#0033AD"/>
<path d="M961.832 206.307C960.872 206.243 960.04 206.989 959.997 207.949C959.955 208.909 960.68 209.741 961.64 209.784C962.6 209.848 963.411 209.101 963.475 208.141C963.539 207.181 962.792 206.371 961.832 206.307Z" fill="#0033AD"/>
<path d="M981.587 176.417C982.44 175.991 982.781 174.924 982.355 174.071C981.928 173.217 980.861 172.876 980.008 173.303C979.155 173.729 978.813 174.775 979.24 175.628C979.667 176.503 980.712 176.865 981.587 176.417Z" fill="#0033AD"/>
<path d="M987.048 185.953C988.371 185.292 988.904 183.67 988.243 182.348C987.581 181.025 985.96 180.492 984.637 181.153C983.315 181.814 982.781 183.436 983.443 184.758C984.104 186.081 985.725 186.614 987.048 185.953Z" fill="#0033AD"/>
<path d="M968.659 192.504C969.683 193.165 971.048 192.888 971.731 191.864C972.392 190.84 972.115 189.475 971.091 188.792C970.067 188.131 968.701 188.408 968.019 189.432C967.336 190.456 967.635 191.843 968.659 192.504Z" fill="#0033AD"/>
<path d="M971.923 205.346C970.43 205.261 969.171 206.392 969.086 207.885C969 209.378 970.131 210.637 971.624 210.722C973.118 210.808 974.376 209.677 974.462 208.184C974.547 206.712 973.416 205.432 971.923 205.346Z" fill="#0033AD"/>
<path d="M968.958 223.416C967.87 223.971 967.422 225.294 967.976 226.403C968.531 227.491 969.854 227.939 970.963 227.384C972.051 226.83 972.499 225.507 971.944 224.398C971.39 223.31 970.046 222.862 968.958 223.416Z" fill="#0033AD"/>
<path d="M979.411 199.778C980.883 200.738 982.845 200.332 983.784 198.86C984.744 197.388 984.339 195.426 982.867 194.487C981.395 193.527 979.432 193.932 978.493 195.404C977.533 196.855 977.939 198.818 979.411 199.778Z" fill="#0033AD"/>
<path d="M1012.58 185.74C1013.82 186.551 1015.51 186.209 1016.32 184.972C1017.13 183.735 1016.79 182.049 1015.55 181.239C1014.31 180.428 1012.63 180.769 1011.82 182.007C1010.98 183.265 1011.33 184.929 1012.58 185.74Z" fill="#0033AD"/>
<path d="M1018.09 176.247C1018.9 176.781 1019.97 176.546 1020.5 175.735C1021.03 174.925 1020.8 173.858 1019.99 173.325C1019.18 172.791 1018.11 173.026 1017.58 173.815C1017.06 174.626 1017.3 175.714 1018.09 176.247Z" fill="#0033AD"/>
<path d="M1012.99 202.552C1010.02 202.381 1007.46 204.664 1007.31 207.629C1007.14 210.595 1009.43 213.155 1012.39 213.304C1012.5 213.304 1012.61 213.304 1012.69 213.304C1015.66 213.304 1018.07 210.893 1018.07 207.907C1018.09 205.069 1015.85 202.701 1012.99 202.552Z" fill="#0033AD"/>
<path d="M988.819 199.395C989.736 201.208 991.592 202.36 993.64 202.36C996.605 202.36 999.016 199.949 999.016 196.963C999.016 196.131 998.824 195.299 998.44 194.531C997.096 191.864 993.853 190.797 991.208 192.141C988.541 193.507 987.475 196.749 988.819 199.395Z" fill="#0033AD"/>
<path d="M1031.04 192.504C1032.13 191.949 1032.55 190.605 1032 189.517C1031.44 188.429 1030.1 188.003 1029.01 188.557C1027.92 189.112 1027.5 190.435 1028.03 191.523C1028.61 192.611 1029.93 193.059 1031.04 192.504Z" fill="#0033AD"/>
<path d="M1017.38 194.21C1015.83 194.999 1015.19 196.898 1015.98 198.455C1016.77 200.013 1018.66 200.653 1020.22 199.863C1021.78 199.074 1022.42 197.175 1021.63 195.618C1020.84 194.061 1018.94 193.442 1017.38 194.21Z" fill="#0033AD"/>
<path d="M999.784 175.437C1001 175.501 1002.05 174.562 1002.13 173.346C1002.22 172.13 1001.26 171.085 1000.04 170.999C998.824 170.935 997.779 171.853 997.693 173.069C997.629 174.306 998.568 175.351 999.784 175.437Z" fill="#0033AD"/>
<path d="M999.763 189.367C1001.51 189.474 1003.01 188.13 1003.09 186.381C1003.2 184.631 1001.85 183.138 1000.1 183.053C998.355 182.946 996.861 184.29 996.776 186.039C996.691 187.789 998.013 189.282 999.763 189.367Z" fill="#0033AD"/>
<path d="M982.611 221.709C984.168 220.919 984.808 219.021 984.019 217.463C983.229 215.906 981.331 215.266 979.773 216.055C978.216 216.845 977.576 218.743 978.365 220.301C979.155 221.858 981.053 222.498 982.611 221.709Z" fill="#0033AD"/>
<path d="M1001.81 193.996C1000.19 196.492 1000.87 199.82 1003.37 201.442C1005.86 203.063 1009.19 202.38 1010.81 199.884C1012.43 197.388 1011.75 194.06 1009.26 192.439C1008.38 191.863 1007.36 191.564 1006.31 191.564C1004.5 191.564 1002.81 192.482 1001.81 193.996Z" fill="#0033AD"/>
<path d="M1011.18 216.525C1009.83 213.858 1006.59 212.792 1003.94 214.136C1001.28 215.48 1000.21 218.722 1001.55 221.368C1002.9 224.034 1006.14 225.101 1008.79 223.757C1011.43 222.434 1012.52 219.234 1011.2 216.568C1011.2 216.546 1011.2 216.546 1011.18 216.525Z" fill="#0033AD"/>
<path d="M1020.58 216.141C1019.11 215.181 1017.15 215.586 1016.21 217.058C1015.25 218.53 1015.66 220.493 1017.13 221.432C1018.6 222.392 1020.56 221.986 1021.5 220.514C1022.46 219.064 1022.06 217.101 1020.58 216.141Z" fill="#0033AD"/>
<path d="M1030.91 208.055C1030.99 206.561 1029.86 205.303 1028.37 205.217C1026.88 205.132 1025.62 206.263 1025.53 207.756C1025.45 209.249 1026.58 210.508 1028.07 210.593C1029.54 210.679 1030.82 209.527 1030.91 208.055Z" fill="#0033AD"/>
<path d="M1038.35 206.135C1037.39 206.071 1036.56 206.817 1036.52 207.777C1036.48 208.737 1037.2 209.569 1038.16 209.612C1039.12 209.676 1039.93 208.929 1040 207.969C1040.04 207.009 1039.31 206.199 1038.35 206.135Z" fill="#0033AD"/>
<path d="M1031.34 223.415C1030.31 222.754 1028.95 223.031 1028.26 224.055C1027.6 225.079 1027.88 226.444 1028.9 227.127C1029.93 227.788 1031.29 227.511 1031.98 226.487C1032.66 225.463 1032.36 224.076 1031.34 223.415Z" fill="#0033AD"/>
<path d="M981.886 239.672C981.075 239.139 980.008 239.374 979.475 240.163C978.942 240.974 979.176 242.04 979.966 242.574C980.776 243.107 981.843 242.872 982.376 242.083C982.931 241.294 982.696 240.206 981.886 239.672Z" fill="#0033AD"/>
<path d="M1018.41 239.501C1017.55 239.928 1017.21 240.994 1017.64 241.848C1018.07 242.701 1019.13 243.042 1019.99 242.616C1020.84 242.189 1021.18 241.144 1020.75 240.29C1020.33 239.416 1019.28 239.053 1018.41 239.501Z" fill="#0033AD"/>
<path d="M998.184 221.921C999.806 219.425 999.123 216.097 996.627 214.455C994.131 212.833 990.803 213.516 989.16 216.012C987.518 218.508 988.222 221.836 990.718 223.479C991.592 224.055 992.616 224.353 993.662 224.353C995.496 224.375 997.182 223.457 998.184 221.921Z" fill="#0033AD"/>
<path d="M987.411 230.178C986.173 229.367 984.488 229.709 983.677 230.946C982.867 232.183 983.208 233.869 984.445 234.679C985.683 235.49 987.368 235.149 988.179 233.911C989.011 232.674 988.669 230.989 987.411 230.178Z" fill="#0033AD"/>
<path d="M999.976 240.482C998.76 240.418 997.715 241.356 997.629 242.572C997.544 243.788 998.504 244.834 999.72 244.919C1000.94 244.983 1001.98 244.066 1002.07 242.85C1002.13 241.612 1001.19 240.567 999.976 240.482Z" fill="#0033AD"/>
<path d="M999.998 226.551C998.248 226.444 996.755 227.788 996.67 229.538C996.563 231.287 997.907 232.78 999.656 232.866C1001.41 232.951 1002.9 231.628 1002.98 229.879C1003.09 228.151 1001.75 226.636 999.998 226.551Z" fill="#0033AD"/>
<path d="M1012.95 229.965C1011.62 230.648 1011.09 232.269 1011.77 233.592C1012.46 234.914 1014.08 235.448 1015.4 234.765C1016.72 234.104 1017.26 232.482 1016.59 231.16C1015.91 229.837 1014.29 229.282 1012.95 229.965Z" fill="#0033AD"/>
</g>
<rect x="1176" y="144" width="320" height="128" rx="24" fill="white" fill-opacity="0.08"/>
<g clip-path="url(#clip6_2216_6347)">
<path d="M1372.94 192.099C1369.19 188.637 1364 183.349 1359.77 179.599L1359.52 179.424C1359.11 179.09 1358.64 178.828 1358.14 178.649C1347.95 176.749 1300.54 167.887 1299.61 167.999C1299.35 168.035 1299.1 168.129 1298.89 168.274L1298.65 168.462C1298.36 168.759 1298.13 169.117 1298 169.512L1297.94 169.674V170.562V170.699C1303.27 185.562 1324.35 234.249 1328.5 245.674C1328.75 246.449 1329.22 247.924 1330.11 247.999H1330.31C1330.79 247.999 1332.81 245.324 1332.81 245.324C1332.81 245.324 1369.01 201.424 1372.67 196.749C1373.15 196.173 1373.57 195.554 1373.92 194.899C1374.01 194.387 1373.97 193.86 1373.8 193.369C1373.62 192.878 1373.33 192.441 1372.94 192.099ZM1342.1 197.212L1357.55 184.399L1366.61 192.749L1342.1 197.212ZM1336.1 196.374L1309.5 174.574L1352.54 182.512L1336.1 196.374ZM1338.5 202.087L1365.72 197.699L1334.6 235.199L1338.5 202.087ZM1305.89 176.749L1333.87 200.499L1329.82 235.224L1305.89 176.749Z" fill="#FF060A"/>
</g>
<rect y="288" width="320" height="128" rx="24" fill="white" fill-opacity="0.08"/>
<g clip-path="url(#clip7_2216_6347)">
<path d="M109.7 389.669H210.304V314.328H109.7V389.669Z" fill="#C0311A"/>
<mask id="mask0_2216_6347" style="mask-type:luminance" maskUnits="userSpaceOnUse" x="109" y="314" width="102" height="76">
<path d="M109.699 389.672H210.303V314.331H109.699V389.672Z" fill="white"/>
</mask>
<g mask="url(#mask0_2216_6347)">
<path d="M170.205 327.602H185.6V342.008H170.205V327.602ZM179.905 329.607C179.837 329.596 179.769 329.585 179.697 329.573L179.613 329.562C179.495 329.546 179.376 329.533 179.257 329.52C179.173 329.513 179.091 329.508 179.012 329.502C178.864 329.494 178.72 329.49 178.583 329.49C178.518 329.49 178.483 329.491 178.42 329.493C178.305 329.494 178.193 329.5 178.078 329.505C178.016 329.509 177.953 329.516 177.891 329.52C177.801 329.529 177.71 329.539 177.62 329.551L177.547 329.561L177.463 329.572L177.362 329.587C177.317 329.596 177.273 329.603 177.228 329.611C177.168 329.622 177.108 329.634 177.049 329.647C176.703 329.719 176.363 329.819 176.034 329.947C175.877 330.006 175.723 330.073 175.573 330.148C175.452 330.205 175.333 330.267 175.218 330.335C175.111 330.395 175.005 330.46 174.903 330.528C174.844 330.566 174.787 330.605 174.73 330.645C174.683 330.68 174.635 330.715 174.59 330.749C174.492 330.825 174.398 330.901 174.308 330.979C174.227 331.05 174.148 331.123 174.071 331.199C174.006 331.262 173.943 331.328 173.882 331.395C173.82 331.464 173.759 331.534 173.7 331.606C173.638 331.684 173.574 331.765 173.513 331.847C173.469 331.91 173.427 331.972 173.385 332.037C173.355 332.078 173.327 332.123 173.298 332.168C173.135 332.435 172.997 332.715 172.883 333.005C172.734 333.391 172.631 333.793 172.577 334.203C172.559 334.338 172.546 334.475 172.538 334.611C172.525 334.8 172.523 334.99 172.532 335.179C172.538 335.262 172.545 335.346 172.555 335.427L172.56 335.485C172.573 335.582 172.588 335.678 172.606 335.773C172.615 335.81 172.621 335.846 172.629 335.883C172.647 335.962 172.664 336.039 172.686 336.117C172.713 336.214 172.741 336.312 172.773 336.407C172.814 336.525 172.856 336.638 172.901 336.75C172.977 336.925 173.058 337.095 173.145 337.254C173.198 337.348 173.25 337.44 173.306 337.526C173.349 337.596 173.393 337.664 173.439 337.73C173.499 337.816 173.563 337.898 173.623 337.978C173.687 338.061 173.756 338.141 173.82 338.215C173.903 338.31 173.986 338.395 174.066 338.474L174.109 338.516C174.175 338.579 174.247 338.648 174.329 338.717C174.387 338.764 174.443 338.814 174.507 338.864C174.565 338.91 174.628 338.958 174.692 339.005C174.77 339.06 174.852 339.115 174.939 339.172C175.03 339.231 175.128 339.29 175.231 339.345C175.448 339.467 175.674 339.574 175.905 339.667C175.996 339.704 176.092 339.738 176.192 339.772C176.289 339.805 176.389 339.836 176.494 339.867C176.67 339.917 176.856 339.961 177.052 339.999C177.21 340.03 177.374 340.055 177.544 340.076C177.712 340.095 177.884 340.111 178.065 340.12C178.155 340.125 178.243 340.127 178.334 340.13H178.459C178.783 340.13 179.083 340.119 179.361 340.095L179.414 340.091C179.525 340.081 179.631 340.07 179.735 340.056C179.893 340.038 180.046 340.014 180.188 339.988C180.28 339.973 180.367 339.954 180.453 339.936C180.584 339.908 180.712 339.878 180.831 339.846C180.921 339.823 181.006 339.798 181.088 339.772C181.187 339.743 181.283 339.712 181.374 339.681L181.461 339.651C181.504 339.635 181.563 339.613 181.634 339.586C181.727 339.55 181.839 339.507 181.967 339.453C182.042 339.421 182.125 339.384 182.209 339.345C182.285 339.312 182.362 339.273 182.442 339.234C182.476 339.218 182.508 339.202 182.543 339.185V337.221C182.522 337.236 182.497 337.25 182.474 337.264L182.337 337.346C182.207 337.425 182.075 337.501 181.941 337.574C181.579 337.771 181.203 337.94 180.814 338.08C180.384 338.234 179.987 338.332 179.638 338.392C179.598 338.399 179.557 338.406 179.516 338.411C179.421 338.427 179.328 338.439 179.24 338.448C179.113 338.462 178.986 338.471 178.859 338.475C178.789 338.479 178.72 338.481 178.65 338.481C178.508 338.481 178.364 338.477 178.218 338.467C178.046 338.453 177.872 338.435 177.694 338.407C177.408 338.358 177.12 338.286 176.841 338.184C176.801 338.17 176.757 338.153 176.72 338.138C176.69 338.127 176.663 338.116 176.637 338.105C176.591 338.085 176.544 338.066 176.499 338.045C176.401 338 176.306 337.95 176.213 337.897C176.167 337.87 176.121 337.844 176.075 337.815C176.027 337.785 175.979 337.755 175.935 337.723C175.876 337.682 175.82 337.642 175.763 337.599C175.71 337.555 175.656 337.511 175.608 337.472L175.543 337.413L175.511 337.383L175.492 337.366L175.468 337.341C175.379 337.254 175.298 337.165 175.224 337.077C175.182 337.027 175.144 336.977 175.106 336.927C175.07 336.879 175.036 336.829 175.004 336.782C174.932 336.67 174.866 336.555 174.806 336.436C174.777 336.378 174.749 336.319 174.725 336.26C174.683 336.161 174.646 336.061 174.617 335.966C174.592 335.892 174.572 335.82 174.555 335.749C174.5 335.544 174.475 335.356 174.46 335.197C174.456 335.135 174.451 335.078 174.449 335.027C174.443 334.947 174.443 334.879 174.443 334.825C174.443 334.788 174.443 334.748 174.444 334.701C174.45 334.588 174.458 334.445 174.484 334.284C174.498 334.185 174.517 334.08 174.542 333.969C174.562 333.896 174.582 333.821 174.606 333.744C174.628 333.675 174.653 333.605 174.68 333.532C174.699 333.482 174.719 333.435 174.742 333.386C174.77 333.319 174.802 333.254 174.837 333.185C174.862 333.135 174.892 333.085 174.921 333.033C174.987 332.922 175.058 332.81 175.144 332.7C175.173 332.66 175.204 332.621 175.238 332.582C175.278 332.531 175.322 332.48 175.37 332.431C175.392 332.406 175.416 332.381 175.441 332.356C175.801 331.996 176.209 331.727 176.631 331.536C176.696 331.506 176.763 331.479 176.83 331.454C176.896 331.426 176.962 331.404 177.031 331.38C177.102 331.356 177.178 331.334 177.251 331.313C177.32 331.294 177.39 331.277 177.46 331.26C177.528 331.245 177.6 331.231 177.669 331.217C177.744 331.204 177.821 331.192 177.896 331.182C177.973 331.172 178.05 331.164 178.123 331.158C178.267 331.146 178.409 331.14 178.548 331.14C178.592 331.14 178.637 331.139 178.684 331.14C178.786 331.143 178.887 331.146 178.984 331.153C179.054 331.157 179.118 331.161 179.183 331.168C179.309 331.179 179.428 331.193 179.54 331.213C179.644 331.227 179.741 331.245 179.834 331.262C179.976 331.291 180.106 331.323 180.221 331.352C180.297 331.372 180.367 331.393 180.429 331.411C180.526 331.439 180.608 331.464 180.671 331.486C180.781 331.525 180.841 331.546 180.841 331.546C180.938 331.581 181.033 331.618 181.127 331.655C181.253 331.705 181.372 331.761 181.487 331.812C181.583 331.854 181.674 331.899 181.759 331.942C181.829 331.975 181.895 332.009 181.957 332.041C182.065 332.097 182.156 332.147 182.232 332.187L182.432 332.296V330.367C182.432 330.367 182.312 330.318 182.103 330.238C182.01 330.205 181.901 330.163 181.777 330.12C181.707 330.095 181.636 330.07 181.559 330.042C181.497 330.022 181.434 330 181.368 329.979C181.294 329.955 181.217 329.93 181.138 329.907C181.082 329.89 181.023 329.872 180.963 329.855L180.911 329.84C180.854 329.824 180.795 329.808 180.736 329.792C180.664 329.773 180.593 329.755 180.52 329.737C180.474 329.725 180.429 329.714 180.38 329.703C180.304 329.686 180.227 329.668 180.148 329.653C180.069 329.636 179.986 329.622 179.905 329.607ZM158.375 335.546V338.378H160.224C160.224 338.378 160.26 338.376 160.321 338.375C160.384 338.373 160.472 338.369 160.577 338.359C160.779 338.341 161.043 338.305 161.299 338.219C161.532 338.141 161.758 338.025 161.929 337.852C161.996 337.787 162.052 337.718 162.096 337.649C162.241 337.421 162.278 337.19 162.283 337.059C162.29 337.003 162.289 336.97 162.289 336.97C162.289 336.97 162.29 336.945 162.289 336.9C162.286 336.807 162.274 336.715 162.251 336.625C162.216 336.492 162.152 336.335 162.035 336.193C162.013 336.167 161.989 336.14 161.965 336.114C161.913 336.062 161.856 336.014 161.797 335.97C161.697 335.896 161.581 335.832 161.455 335.779C161.289 335.707 161.104 335.654 160.9 335.616C160.795 335.597 160.684 335.58 160.57 335.569C160.502 335.563 160.43 335.558 160.357 335.555C160.294 335.551 160.227 335.548 160.161 335.548C159.506 335.548 158.375 335.546 158.375 335.546ZM158.375 331.243V333.926H159.271C159.271 333.926 159.33 333.926 159.408 333.925C159.471 333.921 159.544 333.918 159.61 333.915C159.795 333.901 160.049 333.876 160.303 333.805C160.353 333.791 160.403 333.776 160.453 333.758C160.653 333.688 160.844 333.585 160.992 333.438C161.111 333.323 161.189 333.193 161.24 333.069C161.303 332.914 161.327 332.768 161.336 332.665C161.343 332.571 161.343 332.511 161.343 332.511C161.343 332.511 161.344 332.467 161.341 332.397C161.336 332.281 161.312 332.09 161.218 331.908C161.169 331.813 161.105 331.728 161.029 331.654C160.928 331.555 160.806 331.48 160.675 331.423C160.423 331.311 160.134 331.267 159.89 331.251C159.787 331.244 159.69 331.243 159.607 331.243H158.375Z" fill="white"/>
<path d="M152.467 327.602H167.863V342.008H152.467V327.602ZM156.508 329.622V339.998H160.434C160.434 339.998 162.349 340.051 163.407 338.998C164.267 338.144 164.207 337.153 164.207 337.153C164.207 337.153 164.267 336.118 163.471 335.326C162.792 334.65 161.926 334.471 161.926 334.471C161.926 334.471 162.315 334.288 162.617 333.99C162.758 333.849 163.26 333.399 163.26 332.306C163.26 331.204 162.523 330.572 162.523 330.572C162.523 330.572 161.715 329.622 159.893 329.622H156.508ZM140.637 335.546V338.378H142.484C142.484 338.378 142.522 338.376 142.583 338.375C142.646 338.373 142.733 338.369 142.839 338.359C143.041 338.341 143.305 338.305 143.561 338.219C143.794 338.141 144.018 338.025 144.192 337.852C144.258 337.787 144.313 337.718 144.357 337.649C144.503 337.421 144.538 337.19 144.547 337.059C144.551 337.003 144.551 336.97 144.551 336.97V336.9C144.548 336.846 144.541 336.74 144.513 336.625C144.474 336.467 144.4 336.32 144.297 336.193C144.275 336.165 144.25 336.138 144.224 336.114C144.173 336.062 144.118 336.014 144.06 335.97C143.958 335.896 143.841 335.832 143.718 335.779C143.551 335.707 143.363 335.654 143.16 335.616C143.056 335.597 142.944 335.58 142.832 335.569C142.762 335.563 142.691 335.558 142.619 335.555C142.554 335.55 142.489 335.548 142.424 335.548C141.767 335.548 140.637 335.546 140.637 335.546ZM140.637 331.243V333.926H141.531C141.531 333.926 141.592 333.926 141.67 333.925C141.733 333.921 141.806 333.918 141.872 333.915C142.056 333.901 142.311 333.876 142.566 333.805C142.615 333.791 142.665 333.776 142.713 333.758C142.913 333.688 143.106 333.585 143.254 333.438C143.372 333.323 143.45 333.193 143.504 333.069C143.565 332.914 143.588 332.768 143.598 332.665C143.606 332.571 143.605 332.511 143.605 332.511C143.605 332.511 143.607 332.467 143.603 332.397C143.598 332.281 143.572 332.09 143.48 331.908C143.435 331.82 143.373 331.736 143.291 331.654C143.19 331.555 143.068 331.48 142.937 331.423C142.685 331.311 142.396 331.267 142.154 331.251C142.059 331.245 141.965 331.243 141.87 331.243H140.637Z" fill="white"/>
<path d="M134.729 327.602H150.124V342.008H134.729V327.602ZM138.768 329.622V339.998H142.694C142.694 339.998 144.611 340.051 145.668 338.998C146.529 338.144 146.467 337.152 146.467 337.152C146.467 337.152 146.529 336.118 145.732 335.326C145.052 334.65 144.185 334.47 144.185 334.47C144.185 334.47 144.577 334.288 144.879 333.989C145.019 333.849 145.521 333.398 145.521 332.306C145.521 331.204 144.783 330.571 144.783 330.571C144.783 330.571 143.976 329.622 142.153 329.622H138.768ZM140.244 359.809H139.882L135.624 349.258L131.326 359.809H130.964L125.715 346.799H127.58L131.155 355.687L134.749 346.799H136.517L140.131 355.687L143.667 346.799H145.512L140.244 359.809ZM152.589 358.163C155.498 358.163 157.647 356.065 157.647 353.246C157.647 350.411 155.498 348.331 152.589 348.331C149.699 348.331 147.55 350.411 147.55 353.246C147.55 356.065 149.699 358.163 152.589 358.163ZM152.589 346.629C156.868 346.629 159.568 349.654 159.568 353.246C159.568 356.727 156.943 359.865 152.551 359.865C148.311 359.865 145.629 356.745 145.629 353.246C145.629 349.673 148.387 346.629 152.589 346.629ZM163.752 352.434H164.95C166.946 352.434 167.517 351.413 167.499 350.335C167.479 349.125 166.756 348.387 164.95 348.387H163.752V352.434ZM165.159 346.799C167.783 346.799 169.419 348.179 169.419 350.411C169.419 351.904 168.638 353.021 167.251 353.569C168.43 354.344 169.152 355.535 170.141 357.143C170.692 358.031 171.016 358.466 171.91 359.695H169.684L167.973 357.048C166.262 354.401 165.483 354.098 164.531 354.098H163.752V359.695H161.889V346.799H165.159ZM175.181 358.031H181.038V359.695H173.316V346.798H175.181V358.031ZM184.536 358.031H187.502C191.723 358.031 192.693 354.836 192.693 353.247C192.693 350.657 191.039 348.463 187.407 348.463H184.536V358.031ZM182.671 346.798H187.711C192.504 346.798 194.614 350.202 194.614 353.247C194.614 356.556 192.009 359.695 187.731 359.695H182.671V346.798ZM134.302 366.012C133.198 364.972 132.134 364.669 131.26 364.669C130.061 364.669 129.206 365.292 129.206 366.201C129.206 368.678 134.815 368.641 134.815 372.743C134.815 374.767 133.275 376.242 131.182 376.242C129.776 376.242 128.635 375.863 127.55 375.05V372.706C128.502 373.916 129.699 374.578 130.974 374.578C132.419 374.578 133.085 373.67 133.085 372.952C133.085 370.286 127.475 369.983 127.475 366.447C127.475 364.347 129.033 363.005 131.411 363.005C132.399 363.005 133.389 363.307 134.302 363.912V366.012ZM144.209 364.839H138.713V368.735H144.018V370.398H138.713V374.407H144.38V376.072H136.849V363.175H144.209V364.839ZM148.259 368.81H149.458C151.454 368.81 152.025 367.789 152.005 366.712C151.987 365.501 151.263 364.763 149.458 364.763H148.259V368.81ZM149.667 363.175C152.291 363.175 153.925 364.555 153.925 366.787C153.925 368.28 153.146 369.397 151.758 369.945C152.937 370.721 153.659 371.911 154.649 373.519C155.2 374.407 155.524 374.843 156.417 376.071H154.192L152.48 373.424C150.77 370.777 149.989 370.474 149.039 370.474H148.259V376.071H146.396V363.175H149.667ZM160.889 376.185H160.508L154.899 363.175H156.762L160.66 372.233L164.539 363.175H166.384L160.889 376.185ZM169.693 376.071H167.83V363.174H169.693V376.071ZM183.613 366.05C182.016 365.123 180.646 364.708 179.144 364.708C176.177 364.708 173.972 366.805 173.972 369.642C173.972 372.536 176.102 374.539 179.219 374.539C180.684 374.539 182.282 374.029 183.746 373.084V375.108C182.472 375.77 181.084 376.241 179.05 376.241C174.181 376.241 172.052 372.517 172.052 369.812C172.052 365.88 175.036 363.005 179.163 363.005C180.494 363.005 181.844 363.326 183.613 364.063V366.05ZM193.387 364.839H187.892V368.735H193.196V370.398H187.892V374.407H193.558V376.072H186.027V363.175H193.387V364.839Z" fill="white"/>
</g>
</g>
<rect x="336" y="288" width="320" height="128" rx="24" fill="white" fill-opacity="0.08"/>
<path d="M513.911 319.927C511.908 321.93 510.073 324.101 508.442 326.416L507.926 326.248C504.951 325.277 501.869 324.677 498.762 324.473C497.827 324.401 494.337 324.401 493.197 324.473C489.755 324.701 487.116 325.217 484.118 326.26C483.998 326.308 483.89 326.344 483.782 326.38C482.091 324.077 480.208 321.918 478.133 319.939C488.088 314.842 499.734 314.23 510.157 318.248C511.272 318.668 512.364 319.16 513.431 319.688L513.911 319.927Z" fill="#F00500"/>
<path d="M532.478 365.421C530.966 369.727 528.699 373.721 525.761 377.199C524.166 379.07 522.403 380.785 520.507 382.344C516.07 385.918 510.888 388.473 505.359 389.816C499.242 391.292 492.861 391.292 486.744 389.816C481.203 388.473 476.034 385.918 471.596 382.344C469.701 380.785 467.938 379.07 466.343 377.199C457.887 367.208 455.32 353.487 459.626 341.121C460.442 338.83 461.461 336.623 462.684 334.524C463.248 333.565 463.944 332.485 464.28 332.041C465.431 336.995 466.846 341.349 467.374 342.92C467.338 343.004 467.29 343.1 467.242 343.184C464.448 348.845 462.936 354.302 462.576 360.107C462.576 360.179 462.564 360.263 462.564 360.335C462.469 362.074 462.517 362.902 462.804 363.993C463.704 367.412 466.475 371.178 470.816 374.872C477.929 380.917 487.572 385.283 494.876 385.786C502.493 386.302 513.731 381.852 521.215 375.352C522.391 374.308 523.494 373.205 524.525 372.029C525.269 371.166 526.373 369.679 526.289 369.679C526.265 369.679 526.289 369.655 526.337 369.631C526.373 369.607 526.409 369.571 526.385 369.547C526.373 369.535 526.397 369.499 526.433 369.487C526.469 369.475 526.493 369.451 526.481 369.427C526.469 369.403 526.481 369.379 526.528 369.367C526.564 369.355 526.576 369.319 526.564 369.295C526.552 369.271 526.564 369.247 526.588 369.247C526.612 369.247 526.636 369.211 526.636 369.187C526.636 369.163 526.66 369.127 526.684 369.127C526.708 369.127 526.732 369.103 526.732 369.079C526.768 368.983 526.828 368.887 526.888 368.803C527.068 368.527 527.788 367.244 527.884 367.028C528.567 365.481 528.999 364.101 529.203 362.722C529.299 362.062 529.359 360.851 529.311 360.563C529.299 360.515 529.299 360.431 529.287 360.299C529.263 360.059 529.251 359.7 529.227 359.34C529.203 358.8 529.155 358.044 529.119 357.673C528.603 352.227 527.212 347.777 524.573 343.064C524.466 342.884 524.37 342.704 524.31 342.56C524.286 342.524 524.274 342.488 524.262 342.464C524.633 341.349 526.157 336.683 527.368 331.346L527.392 331.37L527.572 331.61C527.884 332.029 528.711 333.277 529.083 333.876C530.774 336.635 532.094 339.598 533.029 342.692C535.2 350.14 535.02 358.08 532.478 365.421Z" fill="#F00500"/>
<path d="M516.909 351.088C516.873 351.28 516.31 351.856 515.746 352.275C514.091 353.487 511.128 354.614 508.118 355.154C506.403 355.466 504.687 355.514 504.172 355.262C503.836 355.094 503.788 354.962 503.908 354.53C504.16 353.631 504.975 352.647 506.247 351.724C506.894 351.256 509.521 349.661 510.744 348.989C512.759 347.885 514.391 347.226 515.494 347.07C515.842 347.022 516.262 347.01 516.394 347.07C516.609 347.154 516.849 347.79 516.945 348.557C516.993 348.965 516.969 350.764 516.909 351.088Z" fill="black"/>
<path d="M488.651 355.058C488.579 355.202 488.22 355.358 487.812 355.418C487.404 355.478 486.157 355.442 485.449 355.358C482.906 355.022 480.208 354.243 478.241 353.283C477.137 352.744 476.346 352.204 475.758 351.616L475.422 351.268L475.386 350.812C475.326 350.021 475.338 348.773 475.434 348.33C475.494 347.958 475.626 347.598 475.806 347.274C475.902 347.154 475.902 347.154 476.334 347.154C476.861 347.154 477.305 347.238 478.025 347.466C479.5 347.922 481.695 349.025 484.37 350.633C486.576 351.952 487.404 352.6 488.04 353.487C488.472 354.039 488.759 354.818 488.651 355.058Z" fill="black"/>
<path d="M505.635 371.753C505.635 371.789 505.491 372.364 505.311 373.048C505.131 373.732 504.987 374.283 504.987 374.307C504.855 374.319 504.735 374.331 504.603 374.319H504.22L503.692 375.567C503.404 376.25 503.14 376.886 503.104 376.982L503.032 377.15L502.78 376.742L502.528 376.334V373.012L502.433 373.036C502.229 373.084 500.777 373.276 500.142 373.336C497.515 373.6 494.876 373.54 492.262 373.168C491.842 373.108 491.482 373.06 491.47 373.072C491.458 373.084 491.47 373.852 491.494 374.799L491.53 376.502L491.326 376.814C491.218 376.982 491.11 377.126 491.11 377.138C491.074 377.174 490.954 376.982 490.678 376.43C490.379 375.855 490.163 375.243 490.007 374.607L489.923 374.259L489.551 374.283L489.179 374.319L489.083 373.876C489.035 373.636 488.975 373.264 488.951 373.06L488.915 372.676L488.603 372.4C488.424 372.244 488.244 372.088 488.208 372.064C488.148 372.016 488.124 371.933 488.124 371.861V371.717L489.623 371.729L491.122 371.741L491.17 371.897L491.218 372.052L491.734 372.076C492.022 372.088 492.933 372.112 493.749 372.136L495.248 372.172L495.632 371.573L496.028 370.973H496.531L496.519 369.726L496.507 368.478L495.848 368.19C493.725 367.255 492.477 366.187 492.01 364.892C491.914 364.628 491.914 364.532 491.89 363.333C491.878 362.145 491.878 362.037 491.962 361.774C492.13 361.174 492.597 360.706 493.197 360.55C493.401 360.49 493.941 360.49 496.771 360.49L500.106 360.502L500.477 360.682C500.921 360.898 501.125 361.054 501.377 361.39C501.665 361.774 501.749 362.073 501.749 362.805C501.749 363.849 501.677 364.748 501.569 365.108C501.413 365.6 501.173 366.067 500.873 366.487C500.274 367.255 499.182 368.022 498.187 368.37L497.899 368.478L497.911 369.738L497.923 370.997L498.187 371.021L498.451 371.045L498.81 371.585L499.158 372.124H500.765C501.653 372.124 502.433 372.136 502.504 372.148C502.624 372.172 502.648 372.16 502.768 371.957L502.912 371.741H504.292C505.323 371.693 505.635 371.717 505.635 371.753Z" fill="black"/>
<path d="M499.302 375.195C499.074 375.327 498.918 375.387 498.882 375.363C498.846 375.351 498.678 375.207 498.498 375.075L498.175 374.811L497.839 375.171C497.107 375.963 497.083 375.999 496.867 376.011C496.531 376.047 496.46 375.987 496.052 375.375C495.836 375.063 495.668 374.799 495.668 374.799C495.668 374.799 495.512 374.775 495.332 374.763L494.996 374.728L494.84 375.051L494.684 375.375L494.409 375.291C494.193 375.219 493.977 375.135 493.773 375.039L493.413 374.859V374.176L496.603 374.188L499.794 374.2L499.806 374.524C499.818 374.907 499.83 374.895 499.302 375.195Z" fill="black"/>
<path d="M529.287 360.563C529.275 360.516 529.275 360.432 529.263 360.3C526.385 359.988 518.169 359.796 510.541 366.093C510.541 366.093 508.082 354.818 496.568 354.818C485.053 354.818 480.783 366.093 480.783 366.093C474.331 359.148 465.695 359.652 462.577 360.108C462.577 360.18 462.565 360.264 462.565 360.336C462.469 362.075 462.517 362.902 462.804 363.994C463.704 367.412 466.475 371.178 470.816 374.872C477.929 380.917 487.572 385.283 494.876 385.787C502.493 386.303 513.731 381.853 521.215 375.352C522.391 374.309 523.494 373.205 524.526 372.03C525.269 371.166 526.373 369.679 526.289 369.679C526.265 369.679 526.289 369.655 526.337 369.631C526.373 369.607 526.409 369.571 526.385 369.547C526.373 369.535 526.397 369.499 526.433 369.487C526.469 369.475 526.493 369.451 526.481 369.427C526.469 369.403 526.481 369.379 526.529 369.367C526.565 369.355 526.576 369.319 526.565 369.295C526.553 369.271 526.565 369.247 526.589 369.247C526.612 369.247 526.636 369.211 526.636 369.187C526.636 369.163 526.66 369.127 526.684 369.127C526.708 369.127 526.732 369.103 526.732 369.079C526.768 368.983 526.828 368.887 526.888 368.803C527.068 368.528 527.788 367.244 527.884 367.028C528.568 365.481 528.999 364.102 529.203 362.722C529.275 362.063 529.335 360.851 529.287 360.563ZM499.302 375.196C499.074 375.328 498.918 375.388 498.882 375.364C498.846 375.352 498.678 375.208 498.499 375.076L498.175 374.812L497.839 375.172C497.107 375.964 497.083 376 496.867 376.012C496.532 376.048 496.46 375.988 496.052 375.376C495.836 375.064 495.668 374.8 495.668 374.8C495.668 374.8 495.512 374.776 495.332 374.764L494.996 374.728L494.84 375.052L494.684 375.376L494.409 375.292C494.193 375.22 493.977 375.136 493.773 375.04L493.413 374.86V374.177L496.603 374.189L499.794 374.201L499.806 374.525C499.818 374.908 499.83 374.896 499.302 375.196ZM505.299 373.037C505.119 373.721 504.975 374.273 504.975 374.297C504.843 374.309 504.723 374.321 504.591 374.309H504.208L503.692 375.568C503.404 376.252 503.14 376.887 503.104 376.983L503.032 377.151L502.78 376.743L502.529 376.336V373.013L502.433 373.037C502.229 373.085 500.777 373.277 500.142 373.337C497.515 373.601 494.876 373.541 492.262 373.169C491.842 373.109 491.482 373.061 491.47 373.073C491.458 373.085 491.47 373.853 491.494 374.8L491.53 376.504L491.326 376.815C491.218 376.983 491.11 377.127 491.11 377.139C491.074 377.175 490.954 376.983 490.678 376.432C490.379 375.856 490.163 375.244 490.007 374.608L489.923 374.261L489.551 374.285L489.179 374.321L489.083 373.877C489.035 373.637 488.975 373.265 488.951 373.061L488.915 372.677L488.603 372.402C488.424 372.246 488.244 372.09 488.208 372.066C488.148 372.018 488.124 371.934 488.124 371.862V371.718L489.623 371.73L491.122 371.742L491.17 371.898L491.218 372.054L491.734 372.078C492.022 372.09 492.933 372.114 493.749 372.138L495.248 372.174L495.632 371.574L496.028 370.974H496.532L496.52 369.727L496.508 368.48L495.848 368.192C493.725 367.256 492.478 366.189 492.01 364.893C491.914 364.629 491.914 364.534 491.89 363.334C491.878 362.147 491.878 362.039 491.962 361.775C492.13 361.175 492.597 360.707 493.197 360.551C493.401 360.492 493.941 360.492 496.771 360.492L500.106 360.504L500.478 360.683C500.921 360.899 501.125 361.055 501.377 361.391C501.665 361.775 501.749 362.075 501.749 362.806C501.749 363.85 501.677 364.749 501.569 365.109C501.413 365.601 501.173 366.069 500.873 366.489C500.274 367.256 499.182 368.024 498.187 368.372L497.899 368.48L497.911 369.739L497.923 370.998L498.187 371.022L498.451 371.046L498.81 371.586L499.158 372.126H500.765C501.653 372.126 502.433 372.138 502.505 372.15C502.624 372.174 502.648 372.162 502.768 371.958L502.912 371.742H504.292C505.359 371.742 505.671 371.754 505.671 371.79C505.635 371.778 505.479 372.366 505.299 373.037Z" fill="white"/>
<path d="M529.191 359.34C529.167 358.8 529.119 358.044 529.083 357.672C528.567 352.227 527.176 347.777 524.538 343.064C524.43 342.884 524.334 342.704 524.274 342.56C524.25 342.524 524.238 342.488 524.226 342.464C524.597 341.349 526.121 336.683 527.332 331.346C528.975 324.101 530.019 315.633 526.828 313.091C526.828 313.091 521.311 312.683 513.923 319.927C511.92 321.93 510.085 324.101 508.454 326.416L507.938 326.248C504.963 325.277 501.881 324.677 498.774 324.473C497.839 324.401 494.349 324.401 493.209 324.473C489.767 324.701 487.128 325.217 484.13 326.26C484.01 326.308 483.902 326.344 483.794 326.38C482.103 324.077 480.22 321.918 478.145 319.939C470.457 312.659 464.735 313.079 464.735 313.079C461.353 315.705 462.505 324.557 464.256 332.041C465.407 336.995 466.822 341.349 467.35 342.92C467.314 343.004 467.266 343.1 467.218 343.184C464.424 348.845 462.912 354.302 462.552 360.107C465.683 359.651 474.307 359.136 480.771 366.092C480.771 366.092 485.041 354.818 496.555 354.818C508.07 354.818 510.528 366.092 510.528 366.092C518.157 359.795 526.373 359.999 529.251 360.299C529.239 360.059 529.215 359.699 529.191 359.34ZM469.617 338.398C469.617 338.398 465.131 327.184 466.283 320.779C466.475 319.699 466.834 318.752 467.398 318.032C467.398 318.032 472.484 318.536 480.687 327.651C480.687 327.651 479.128 328.407 477.041 330.014C477.041 330.014 477.029 330.026 477.017 330.026C474.75 331.765 471.848 334.524 469.617 338.398ZM488.651 355.058C488.579 355.202 488.22 355.358 487.812 355.418C487.404 355.478 486.157 355.442 485.449 355.358C482.906 355.022 480.208 354.242 478.241 353.283C477.137 352.743 476.346 352.203 475.758 351.615L475.422 351.268L475.386 350.812C475.326 350.02 475.338 348.773 475.434 348.329C475.494 347.957 475.626 347.597 475.806 347.274C475.902 347.154 475.902 347.154 476.334 347.154C476.861 347.154 477.305 347.238 478.025 347.466C479.5 347.921 481.695 349.025 484.37 350.632C486.576 351.951 487.404 352.599 488.04 353.487C488.472 354.038 488.759 354.818 488.651 355.058ZM516.909 351.088C516.873 351.28 516.31 351.855 515.746 352.275C514.091 353.487 511.128 354.614 508.118 355.154C506.403 355.466 504.687 355.513 504.172 355.262C503.836 355.094 503.788 354.962 503.908 354.53C504.16 353.63 504.975 352.647 506.247 351.723C506.894 351.256 509.521 349.66 510.744 348.989C512.759 347.885 514.391 347.226 515.494 347.07C515.842 347.022 516.262 347.01 516.394 347.07C516.609 347.154 516.849 347.789 516.945 348.557C516.993 348.965 516.969 350.764 516.909 351.088ZM514.918 330.014L514.894 330.002C512.879 328.395 511.368 327.639 511.368 327.639C519.296 318.524 524.202 318.02 524.202 318.02C524.741 318.752 525.089 319.687 525.281 320.767C526.397 327.172 522.067 338.398 522.067 338.398C520.256 335.172 517.821 332.317 514.918 330.014Z" fill="#FFA409"/>
<path d="M525.293 320.766C524.358 320.646 519.932 320.622 514.918 330.014L514.894 330.002C512.879 328.394 511.368 327.639 511.368 327.639C519.296 318.523 524.202 318.02 524.202 318.02C524.753 318.751 525.101 319.687 525.293 320.766Z" fill="#FF9300"/>
<path d="M522.079 338.397C520.256 335.159 517.833 332.316 514.918 330.013C519.932 320.622 524.346 320.646 525.293 320.766C526.409 327.183 522.079 338.397 522.079 338.397Z" fill="#FF8300"/>
<path d="M525.473 320.802C525.413 320.79 525.353 320.778 525.293 320.766L525.473 320.802Z" fill="#FF8300"/>
<path d="M480.687 327.639C480.687 327.639 479.128 328.394 477.041 330.002C477.041 330.002 477.029 330.014 477.017 330.014C471.824 320.61 467.254 320.646 466.271 320.766C466.463 319.687 466.822 318.739 467.386 318.02C467.398 318.02 472.484 318.523 480.687 327.639Z" fill="#FF9300"/>
<path d="M477.029 330.013C474.75 331.765 471.848 334.511 469.617 338.397C469.617 338.397 465.131 327.183 466.283 320.766C467.254 320.646 471.836 320.622 477.029 330.013Z" fill="#FF8300"/>
<path d="M466.283 320.766C466.223 320.778 466.151 320.79 466.091 320.802L466.283 320.766Z" fill="#FF8300"/>
<path d="M509.941 344.624C509.941 344.624 506.103 344.864 506.582 341.865C507.062 338.867 510.061 338.507 510.9 338.627C511.74 338.747 515.098 339.946 514.498 342.465C513.899 344.984 513.059 344.504 512.579 344.624C512.1 344.744 509.941 344.624 509.941 344.624Z" fill="white"/>
<path d="M481.635 344.624C481.635 344.624 477.797 344.864 478.277 341.865C478.756 338.867 481.755 338.507 482.594 338.627C483.434 338.747 486.792 339.946 486.193 342.465C485.593 344.984 484.753 344.504 484.274 344.624C483.794 344.744 481.635 344.624 481.635 344.624Z" fill="white"/>
<rect x="672" y="288" width="320" height="128" rx="24" fill="white" fill-opacity="0.08"/>
<g clip-path="url(#clip8_2216_6347)">
<path d="M831.998 392C854.14 392 871.998 374.143 871.998 352C871.998 329.857 854.14 312 831.998 312C809.855 312 791.998 329.857 791.998 352C791.998 374.143 809.855 392 831.998 392Z" fill="#0098EA"/>
<path d="M845.712 334.285H818.283C813.283 334.285 810.14 339.714 812.569 344.142L829.426 373.428C830.569 375.285 833.283 375.285 834.426 373.428L851.283 344.142C853.855 339.714 850.712 334.285 845.712 334.285ZM829.569 364.571L825.855 357.428L816.998 341.571C816.426 340.571 817.14 339.285 818.426 339.285H829.569V364.571ZM846.998 341.571L838.14 357.428L834.426 364.571V339.285H845.569C846.855 339.285 847.569 340.571 846.998 341.571Z" fill="white"/>
</g>
<rect x="1008" y="288" width="320" height="128" rx="24" fill="white" fill-opacity="0.08"/>
<g clip-path="url(#clip9_2216_6347)">
<path d="M1168 392C1190.09 392 1208 374.091 1208 352C1208 329.909 1190.09 312 1168 312C1145.91 312 1128 329.909 1128 352C1128 374.091 1145.91 392 1168 392Z" fill="#0AC18E"/>
<path d="M1180.47 338.568C1178.46 334.01 1173.85 333.035 1168.19 333.979L1166.37 326.934L1162.09 328.04L1163.88 335.066C1162.75 335.35 1161.59 335.593 1160.44 335.918L1158.66 328.934L1154.37 330.04L1156.19 337.086C1155.27 337.35 1147.54 339.33 1147.54 339.33L1148.72 343.918C1148.72 343.918 1151.87 343.035 1151.84 343.106C1153.58 342.649 1154.4 343.522 1154.79 344.345L1159.78 363.654C1159.85 364.213 1159.74 365.167 1158.55 365.492C1158.62 365.533 1155.43 366.294 1155.43 366.294L1155.9 371.644C1155.9 371.644 1163.55 369.685 1164.56 369.431L1166.39 376.558L1170.68 375.451L1168.84 368.274C1170.02 368 1171.17 367.715 1172.28 367.421L1174.11 374.558L1178.39 373.451L1176.56 366.335C1183.15 364.731 1187.81 360.568 1186.86 354.203C1186.25 350.365 1182.06 347.218 1178.58 346.863C1180.72 344.964 1181.8 342.192 1180.47 338.568ZM1178.41 355.37C1179.27 361.675 1170.51 362.446 1167.61 363.208L1165.09 353.776C1168 353.015 1176.97 349.817 1178.41 355.37ZM1173.13 342.528C1174.04 348.132 1166.55 348.781 1164.13 349.401L1161.84 340.842C1164.26 340.243 1171.3 337.34 1173.13 342.528Z" fill="white"/>
</g>
<rect x="1344" y="288" width="320" height="128" rx="24" fill="white" fill-opacity="0.08"/>
<path d="M1412.56 358.321C1412.56 360.6 1413.05 362.349 1413.7 363.408C1414.56 364.794 1415.83 365.382 1417.12 365.382C1418.8 365.382 1420.33 364.964 1423.27 360.866C1425.64 357.58 1428.42 352.969 1430.29 350.078L1433.46 345.18C1435.66 341.778 1438.21 337.997 1441.14 335.434C1443.52 333.342 1446.1 332.18 1448.69 332.18C1453.04 332.18 1457.18 334.714 1460.35 339.466C1463.82 344.671 1465.51 351.227 1465.51 357.993C1465.51 362.015 1464.72 364.971 1463.38 367.305C1462.08 369.563 1459.55 371.819 1455.3 371.819V365.382C1458.94 365.382 1459.85 362.019 1459.85 358.172C1459.85 352.689 1458.58 346.604 1455.78 342.256C1453.79 339.172 1451.21 337.287 1448.38 337.287C1445.31 337.287 1442.85 339.612 1440.07 343.756C1438.6 345.958 1437.09 348.642 1435.39 351.67L1433.52 355.001C1429.76 361.698 1428.81 363.223 1426.93 365.741C1423.64 370.149 1420.83 371.819 1417.12 371.819C1412.73 371.819 1409.96 369.908 1408.24 367.027C1406.83 364.68 1406.14 361.6 1406.14 358.091L1412.56 358.321Z" fill="#0081FB"/>
<path d="M1411.2 339.921C1414.14 335.365 1418.38 332.18 1423.25 332.18C1426.07 332.18 1428.87 333.018 1431.79 335.419C1434.99 338.045 1438.4 342.368 1442.66 349.492L1444.18 352.049C1447.87 358.217 1449.96 361.391 1451.19 362.887C1452.77 364.809 1453.87 365.382 1455.3 365.382C1458.94 365.382 1459.85 362.019 1459.85 358.172L1465.51 357.993C1465.51 362.015 1464.72 364.971 1463.38 367.305C1462.08 369.563 1459.56 371.819 1455.3 371.819C1452.66 371.819 1450.32 371.242 1447.73 368.787C1445.74 366.903 1443.42 363.555 1441.63 360.546L1436.3 351.605C1433.63 347.118 1431.18 343.773 1429.76 342.258C1428.24 340.629 1426.28 338.661 1423.15 338.661C1420.61 338.661 1418.46 340.448 1416.66 343.181L1411.2 339.921Z" fill="url(#paint3_linear_2216_6347)"/>
<path d="M1423.14 338.661C1420.61 338.661 1418.46 340.448 1416.66 343.181C1414.11 347.044 1412.56 352.796 1412.56 358.321C1412.56 360.6 1413.05 362.349 1413.7 363.408L1408.24 367.027C1406.83 364.68 1406.14 361.6 1406.14 358.091C1406.14 351.709 1407.89 345.057 1411.2 339.921C1414.14 335.365 1418.38 332.18 1423.25 332.18L1423.14 338.661Z" fill="url(#paint4_linear_2216_6347)"/>
<path d="M1477.97 333.434H1485.39L1498 356.371L1510.62 333.434H1517.87V371.122H1511.82V342.237L1500.76 362.24H1495.08L1484.02 342.237V371.122H1477.97V333.434ZM1536.83 347.486C1532.49 347.486 1529.88 350.769 1529.25 354.835H1543.98C1543.68 350.647 1541.28 347.486 1536.83 347.486ZM1523.25 357.151C1523.25 348.596 1528.75 342.37 1536.94 342.37C1544.99 342.37 1549.79 348.517 1549.79 357.608V359.278H1529.25C1529.98 363.701 1532.9 366.681 1537.61 366.681C1541.36 366.681 1543.71 365.529 1545.94 363.423L1549.15 367.381C1546.12 370.18 1542.27 371.795 1537.39 371.795C1528.54 371.795 1523.25 365.301 1523.25 357.151ZM1557.13 348.026H1551.56V343.045H1557.13V334.807H1562.97V343.045H1571.43V348.026H1562.97V360.65C1562.97 364.961 1564.34 366.492 1567.71 366.492C1569.25 366.492 1570.13 366.359 1571.43 366.142V371.068C1569.81 371.529 1568.26 371.741 1566.58 371.741C1560.28 371.741 1557.13 368.279 1557.13 361.349V348.026ZM1596.01 352.869C1594.84 349.893 1592.22 347.702 1588.38 347.702C1583.38 347.702 1580.19 351.265 1580.19 357.07C1580.19 362.73 1583.13 366.465 1588.14 366.465C1592.08 366.465 1594.89 364.162 1596.01 361.296V352.869ZM1601.85 371.122H1596.12V367.192C1594.52 369.506 1591.6 371.795 1586.88 371.795C1579.29 371.795 1574.21 365.405 1574.21 357.07C1574.21 348.656 1579.41 342.37 1587.2 342.37C1591.06 342.37 1594.08 343.918 1596.12 346.652V343.045H1601.85V371.122Z" fill="#192830"/>
<defs>
<linearGradient id="paint0_linear_2216_6347" x1="360.536" y1="169.115" x2="316.382" y2="253.688" gradientUnits="userSpaceOnUse">
<stop stop-color="#00FFA3"/>
<stop offset="1" stop-color="#DC1FFF"/>
</linearGradient>
<linearGradient id="paint1_linear_2216_6347" x1="341.23" y1="159.034" x2="297.076" y2="243.607" gradientUnits="userSpaceOnUse">
<stop stop-color="#00FFA3"/>
<stop offset="1" stop-color="#DC1FFF"/>
</linearGradient>
<linearGradient id="paint2_linear_2216_6347" x1="350.821" y1="164.042" x2="306.667" y2="248.615" gradientUnits="userSpaceOnUse">
<stop stop-color="#00FFA3"/>
<stop offset="1" stop-color="#DC1FFF"/>
</linearGradient>
<linearGradient id="paint3_linear_2216_6347" x1="1418.74" y1="356.462" x2="1459.61" y2="358.515" gradientUnits="userSpaceOnUse">
<stop stop-color="#0064E1"/>
<stop offset="0.4" stop-color="#0064E1"/>
<stop offset="0.83" stop-color="#0073EE"/>
<stop offset="1" stop-color="#0082FB"/>
</linearGradient>
<linearGradient id="paint4_linear_2216_6347" x1="1415.43" y1="361.027" x2="1415.43" y2="345.877" gradientUnits="userSpaceOnUse">
<stop stop-color="#0082FB"/>
<stop offset="1" stop-color="#0064E0"/>
</linearGradient>
<clipPath id="clip0_2216_6347">
<rect width="80" height="80.009" fill="white" transform="translate(455.998 24)"/>
</clipPath>
<clipPath id="clip1_2216_6347">
<rect width="80" height="80" fill="white" transform="translate(791.998 24)"/>
</clipPath>
<clipPath id="clip2_2216_6347">
<rect width="80" height="80" fill="white" transform="translate(1128 24)"/>
</clipPath>
<clipPath id="clip3_2216_6347">
<rect width="80" height="80" fill="white" transform="translate(287.998 168)"/>
</clipPath>
<clipPath id="clip4_2216_6347">
<rect width="80" height="80" fill="white" transform="translate(623.998 168)"/>
</clipPath>
<clipPath id="clip5_2216_6347">
<rect width="80" height="80" fill="white" transform="translate(959.998 168)"/>
</clipPath>
<clipPath id="clip6_2216_6347">
<rect width="80" height="80" fill="white" transform="translate(1296 168)"/>
</clipPath>
<clipPath id="clip7_2216_6347">
<rect width="102" height="76" fill="white" transform="translate(109 314)"/>
</clipPath>
<clipPath id="clip8_2216_6347">
<rect width="80" height="80" fill="white" transform="translate(791.998 312)"/>
</clipPath>
<clipPath id="clip9_2216_6347">
<rect width="80" height="80" fill="white" transform="translate(1128 312)"/>
</clipPath>
</defs>
</svg>
