<svg width="1664" height="416" viewBox="0 0 1664 416" fill="none" xmlns="http://www.w3.org/2000/svg">
<rect width="320" height="128" rx="16" fill="white" fill-opacity="0.08"/>
<path d="M186.577 61.9299C185.911 62.1471 185.002 62.3314 183.872 62.4736C183.334 62.5444 182.735 62.58 182.034 62.58C180.857 62.58 179.581 62.4856 178.346 62.3884L178.304 62.3868C177.159 62.2997 176.077 62.218 175.038 62.218C174.296 62.218 173.616 62.2621 172.964 62.3462C171.024 62.589 169.494 63.2027 169.494 63.2027L169.51 63.0439C169.886 59.1237 173.156 55.7769 177.112 55.2476C177.483 55.2033 177.856 55.1809 178.229 55.1802C181.957 55.1802 185.572 58.0271 186.646 61.8087L186.673 61.9067L186.577 61.9299ZM191.132 63.5942L191.13 63.5407C191.113 63.2887 191.066 62.8809 191.013 62.4426C190.912 61.6509 190.74 60.87 190.5 60.1092C188.701 54.3914 183.884 50.7016 178.229 50.7016C177.665 50.7016 177.082 50.7376 176.507 50.8166C169.254 51.7568 164.329 58.3779 165.288 65.89C166.16 72.6908 171.592 77.3499 178.202 77.3499C178.76 77.3499 179.341 77.3112 179.927 77.2399C183.45 76.7892 186.546 75.3026 188.865 72.412C188.995 72.2475 189.06 72.0372 189.036 71.8486C189.015 71.6813 188.917 71.5222 188.742 71.3944C188.353 71.1125 186.964 70.4341 186.209 70.0713C185.987 69.959 185.807 69.8726 185.708 69.8227C185.479 69.7038 185.315 69.6504 185.165 69.6504C184.982 69.6504 184.808 69.7448 184.639 69.9524C183.144 71.7026 181.252 72.6227 179.319 72.8782C178.935 72.9255 178.564 72.9507 178.202 72.9507C174.679 72.9507 171.124 70.5743 170.092 67.3127L170.066 67.2275L170.142 67.1903C170.325 67.0989 171.973 66.3257 174.416 66.3257C174.719 66.3257 175.028 66.338 175.329 66.3652C176.03 66.4209 176.734 66.5123 177.476 66.6072C178.846 66.7895 180.267 66.9789 181.925 66.9789C182.946 66.9776 183.965 66.9047 184.976 66.7605C189.009 65.9775 190.609 64.8383 190.621 64.8283C191.191 64.4569 191.17 64.1495 191.131 63.5942M254.303 52.1986C254.303 51.8574 254.025 51.5829 253.69 51.5829H250.352C250.02 51.5829 249.745 51.8574 249.745 52.1986V76.1042C249.745 76.4419 250.02 76.721 250.352 76.721H253.69C254.025 76.721 254.303 76.4419 254.303 76.1042V52.1986ZM252.024 43.0566C250.365 43.0566 249.011 44.4212 249.011 46.0952C249.011 47.7653 250.365 49.1268 252.024 49.1268C253.687 49.1268 255.036 47.7653 255.036 46.0952C255.036 44.4212 253.687 43.0566 252.024 43.0566ZM207.843 55.2418C212.573 55.2418 216.279 59.1632 216.279 64.1723C216.279 69.2112 212.763 73.0076 208.098 73.0076C205.742 73.0076 203.559 72.1565 201.961 70.6149C200.313 69.03 199.409 66.7919 199.409 64.3225C199.409 59.315 203.192 55.2418 207.843 55.2418ZM207.695 77.358C207.906 77.3669 208.124 77.3755 208.337 77.3755C211.766 77.3755 214.952 76.0419 217.321 73.6384C219.722 71.188 221.04 67.8281 221.04 64.1723C221.04 56.6191 215.268 50.7016 207.897 50.7016C201.899 50.7016 196.836 54.6803 195.287 60.599C195.024 61.6039 194.752 64.1665 194.752 66.7222V85.4793C194.752 85.8212 195.024 86.0996 195.364 86.0996H198.674C199.016 86.0996 199.293 85.8177 199.293 85.4742L199.291 73.6585L199.464 73.8289C201.09 75.42 204.106 77.1884 207.695 77.358ZM148.365 55.2418C153.091 55.2418 156.799 59.1632 156.799 64.1723C156.799 69.2112 153.283 73.0076 148.614 73.0076C146.253 73.0076 144.08 72.1565 142.483 70.6149C140.832 69.03 139.924 66.7919 139.924 64.3225C139.924 59.315 143.71 55.2418 148.365 55.2418ZM148.218 77.358C148.429 77.3669 148.647 77.3755 148.855 77.3755C152.288 77.3755 155.476 76.0419 157.84 73.6384C160.242 71.188 161.564 67.8281 161.564 64.1723C161.564 56.6191 155.787 50.7016 148.415 50.7016C142.419 50.7016 137.351 54.6803 135.806 60.599C135.538 61.6039 135.27 64.1665 135.27 66.7222V85.4793C135.27 85.8212 135.545 86.0996 135.876 86.0996H139.196C139.537 86.0996 139.814 85.8177 139.814 85.4742L139.808 73.6585L139.976 73.8289C141.603 75.42 144.618 77.1884 148.218 77.358ZM224.23 73.1706C227.112 75.8277 230.261 77.3456 234.348 77.3456H234.478C241.534 77.2996 244.686 73.4145 244.686 69.5868C244.686 64.2923 239.727 62.8453 238.208 62.5243C237.721 62.4286 237.214 62.3326 236.694 62.2284C235.466 61.9903 234.191 61.7444 233.032 61.4219C232.22 61.1973 229.572 60.3086 229.572 58.314C229.572 56.1185 231.991 54.9347 234.263 54.9347C236.172 54.9347 237.764 55.2584 239.8 56.8604C239.959 56.9866 240.182 57.1314 240.455 57.1314C240.656 57.1314 240.849 57.061 241.057 56.9115C241.621 56.4929 242.653 55.6162 243.334 54.9297C243.495 54.7659 243.57 54.5866 243.56 54.3992C243.544 54.108 243.329 53.8698 243.22 53.7781C240.496 51.6019 237.875 50.7113 234.18 50.7016H234.153C228.867 50.7016 224.876 54.1246 224.876 58.6629C224.876 62.259 227.811 64.8132 233.13 65.8656L236.462 66.5088C238.651 66.9138 239.882 68.0848 239.839 69.7251C239.8 71.3235 237.854 72.9789 234.656 72.9789C232.046 72.9789 229.747 71.9524 227.821 70.1913L227.793 70.1634C227.657 70.0395 227.495 69.8877 227.276 69.8877C227.123 69.8877 226.961 69.9594 226.786 70.0968C226.585 70.261 224.36 72.0329 224.123 72.2835C224.014 72.4012 223.963 72.5255 223.966 72.656C223.971 72.8631 224.107 73.0564 224.23 73.1706Z" fill="#2151A1"/>
<path d="M116.764 85.6138C104.918 97.5504 85.7033 97.5488 73.8576 85.6138C62.0058 73.6757 62.0058 54.3212 73.8576 42.3869C85.706 30.4516 104.918 30.4516 116.762 42.3881C128.614 54.3208 128.614 73.6753 116.764 85.6138Z" fill="white"/>
<path d="M118.925 48.5762C119.509 50.4756 119.805 52.4525 119.806 54.4407C119.806 61.0258 116.591 66.8163 111.703 70.4446C103.203 76.7513 90.8134 76.7598 73.707 82.1898C78.8701 88.4063 86.6286 92.363 95.305 92.363C110.855 92.363 123.461 79.6648 123.461 64.0004C123.461 58.3141 121.79 53.0199 118.925 48.5762Z" fill="#2151A1"/>
<path d="M112.191 41.3064C107.487 37.744 101.642 35.6367 95.3068 35.6367C79.7572 35.6367 67.1523 48.3376 67.1523 64C67.1523 70.3048 69.1942 76.1279 72.6476 80.8365C91.5837 75.2818 106.536 60.3183 112.191 41.3064Z" fill="#EB1933"/>
<rect x="336" width="320" height="128" rx="16" fill="white" fill-opacity="0.08"/>
<g clip-path="url(#clip0_2220_3009)">
<path d="M585.293 62.2313L595.992 89.949C592.839 89.5084 589.688 88.9564 586.479 88.4591L580.452 73.144L574.259 87.1949C571.219 86.6976 568.234 86.532 565.194 86.1459L576.061 61.9018L566.205 37.0527H575.327L580.844 50.9363L586.758 37.0527L595.99 37.0527L585.293 62.2313ZM559.001 37.0527H550.724V85.1002C553.427 85.2661 556.241 85.3753 559.001 85.705V37.0527ZM543.572 84.5485C536.028 84.0529 528.482 83.614 520.769 83.4464V37.0529H529.214V75.6229C534.057 75.7323 538.899 76.1168 543.572 76.3371V84.5485ZM511.758 55.8432V64.1074H500.216V82.8961H491.884V37.0527H515.533V45.3169H500.218V55.8434H511.76L511.758 55.8432ZM477.693 45.3169V83.337C474.877 83.337 472.007 83.337 469.246 83.4464V45.3169H460.519V37.0527H486.475V45.3169H477.693ZM451.398 64.5465C447.683 64.5465 443.29 64.5465 440.137 64.7141V77C445.092 76.6686 450.046 76.2841 455.057 76.1185V84.0529L431.692 85.8725V37.0527H455.056V45.3169H440.136V56.448C443.403 56.448 448.414 56.2824 451.398 56.2824V64.5482L451.398 64.5465ZM404.605 59.918V88.7906C401.567 89.122 398.863 89.5082 395.992 89.949V37.0527H404.045L415.023 67.084V37.0527H423.47V86.532C420.486 87.0293 417.445 87.1949 414.236 87.6341L404.605 59.918Z" fill="#E50914"/>
</g>
<rect x="672" width="320" height="128" rx="16" fill="white" fill-opacity="0.08"/>
<path d="M731.81 67.4543H715.435V63.3092H736.551C735.997 61.5507 734.211 59.9177 731.072 59.9177H715.743C712.234 59.9177 710.202 61.2366 710.202 64.1257V67.2031C710.202 69.7153 712.296 71.1598 715.374 71.1598H731.934V75.5562H709.648C710.202 77.9428 711.988 79.1989 715.189 79.1989H731.872C735.381 79.1989 737.105 77.8172 737.105 74.8653V71.7879C737.105 69.0873 735.073 67.6428 731.81 67.4543ZM765.238 59.9805H745.046V79.2617H750.771V71.8507H765.669C769.794 71.8507 772.071 70.4062 772.071 67.0147V64.8793C772.01 61.7391 769.424 59.9805 765.238 59.9805ZM767.085 66.1354C767.085 67.5171 766.839 68.2708 764.622 68.2708H750.771L750.833 63.2464H764.376C766.839 63.2464 767.146 64.0001 767.146 65.319V66.1354H767.085ZM791.094 71.7251H778.905L775.888 74.991H793.495L796.511 79.2617H803.283L788.693 59.1641L785.245 63.4976L791.094 71.7251ZM814.241 63.3092H835.664C835.11 61.0482 832.955 59.9177 829.877 59.9177H813.871C811.101 59.9177 808.454 61.0482 808.454 64.1257V74.9281C808.454 78.0056 811.101 79.1361 813.871 79.1361H830.062C833.755 79.1361 835.048 78.0684 835.664 75.4934H814.241V63.3092ZM860.781 69.7153V66.4495L843.482 66.4495V79.2617H869.03V75.619H849.269V69.7153L860.781 69.7153ZM844.098 59.9805H869.892V63.372H844.098V59.9805ZM885.774 59.9805H876.787L887.375 67.894C888.914 66.8263 890.699 65.6958 892.3 64.7537L885.774 59.9805ZM898.825 69.8409C897.286 70.9086 895.747 72.1019 894.27 73.2324L902.273 79.1989H911.322L898.825 69.8409Z" fill="black"/>
<path d="M954.35 48.7383C905.102 51.6273 882.324 73.1067 877.215 78.1939L876.168 79.1988H885.279C909.903 54.0139 945.301 49.5547 954.35 48.7383Z" fill="black"/>
<rect x="1008" width="320" height="128" rx="16" fill="#F9F9F9" fill-opacity="0.08"/>
<g clip-path="url(#clip1_2220_3009)">
<path d="M1168.58 33.8123C1169.86 33.8716 1171.08 34.3559 1172.04 35.1872C1173.36 36.4246 1173.7 38.488 1173.08 40.1389C1170.66 45.0895 1164.9 48.3962 1160.97 49.4901C1158.62 50.0401 1155.64 50.0401 1153.5 49.2152C1152.46 49.8339 1151.58 51.8334 1150.31 51.0025C1148.48 49.5778 1150.07 47.3481 1149.01 45.766C1148.79 45.4402 1148.24 45.4163 1147.96 44.8832C1146.51 41.72 1148.31 38.6942 1150.31 36.2882C1153.66 32.5799 1163.25 28.4483 1168.58 33.8123ZM1157.44 36.2872C1155.57 36.6309 1153.46 37.4389 1152.32 38.763C1151.18 40.0861 1150.45 41.3763 1151.14 42.7512C1153.57 40.9638 1154.74 38.488 1157.44 36.9756C1157.44 36.6996 1157.85 36.4934 1157.44 36.2872ZM1168.72 36.9756C1163.95 36.5621 1160.35 40.1389 1156.96 43.5761C1156.75 44.1261 1155.5 44.7448 1156.47 45.3635C1161.04 45.7759 1165.4 44.4708 1168.72 41.444C1169.69 40.5503 1170.38 39.3817 1169.9 38.1433C1169.69 37.663 1169.2 37.1818 1168.72 36.9756ZM1210.1 57.4665C1212.32 62.8306 1214.19 71.2872 1210.1 76.4451C1209 77.6825 1207.06 78.8232 1205.81 77.8887C1201.24 74.2452 1199.31 69.0186 1196.47 64.342C1196.06 64.1358 1196.06 64.6867 1195.85 64.893C1194.81 69.6373 1196.75 75.8264 1193.5 79.5386C1192.25 79.7448 1191.09 79.1082 1190.66 77.8887C1189.07 73.0068 1190.73 67.9177 1191.14 63.0359C1192.11 60.56 1192.53 57.6728 1194.67 55.8157C1198.13 57.1906 1199.79 61.0423 1201.8 63.8618C1203.25 65.9929 1204.43 68.3999 1206.09 70.3248C1207.54 69.7061 1206.83 67.8191 1206.78 66.6803C1206.22 62.2109 1204.98 58.0852 1203.8 53.8221C1203.74 52.7221 1203.11 50.865 1204.29 50.1776C1207.41 51.5535 1208.72 54.7845 1210.1 57.4665ZM1189.2 55.8157C1189.2 56.8478 1188.37 58.137 1187.68 58.2915C1181.04 59.3226 1173.63 58.7039 1167.4 60.7663C1167.2 61.5225 1168.1 61.66 1168.58 61.8662C1173.91 62.6911 1179.51 62.8974 1184.71 64.2045C1187.45 64.8969 1188.44 68.125 1188.65 70.806C1188.78 72.9202 1187.96 75.4816 1185.88 76.9263C1180.76 80.1583 1172.94 80.0198 1167.75 77.0648C1165.77 75.9589 1163.88 74.1775 1163.74 71.9767C1163.75 70.2291 1164.5 68.8533 1165.75 68.1947C1170.73 66.2001 1176.89 67.302 1181.18 69.8446C1181.45 71.2205 1179.95 71.1457 1179.24 71.6329C1174.46 74.3837 1170.86 68.5404 1166.44 70.6695C1165.81 71.082 1165.36 72.2327 1166.09 72.5954C1171.56 75.0024 1177.65 73.2828 1183.04 71.7704C1183.67 71.5642 1184.43 70.9455 1184.5 70.3268C1184.29 68.126 1181.8 67.6457 1180.21 67.027C1175.5 65.8584 1170.31 65.8584 1165.26 65.3772C1164.29 65.1709 1163.06 64.5004 1162.77 63.7273C1162.21 62.0774 1162.21 59.8078 1163.46 58.4329C1169.9 52.7939 1179.65 53.2761 1187.82 54.7885C1188.37 54.9907 1188.99 55.197 1189.2 55.8157ZM1158.96 58.429C1159.59 65.0295 1159.93 71.1507 1159.79 78.0949C1159.65 78.9876 1158.62 79.1949 1157.93 79.5386C1156.82 79.7448 1155.39 79.5107 1154.95 78.9199C1153.36 76.3743 1153.91 72.9381 1153.77 69.8436C1153.98 64.9627 1153.91 59.6674 1155.3 55.1282C1155.56 54.4687 1156.33 53.8908 1156.96 54.3023C1158.62 55.1282 1158.89 56.7791 1158.96 58.429ZM1235.85 57.4665C1236.18 58.0225 1236.53 58.8813 1235.85 59.2539C1232.73 60.6288 1228.51 60.0101 1224.91 60.4226C1223.95 61.2475 1223.18 62.6224 1223.53 63.8608C1223.88 64.067 1224.19 64.3809 1224.57 64.341C1226.78 64.4795 1230.1 63.3098 1231.56 65.3722C1231.91 65.9859 1231.51 68.2774 1230.52 68.3292C1227.82 68.6749 1223.38 67.9924 1222.08 68.6749C1220.42 69.7748 1220.55 71.9059 1219.93 73.6265C1221.11 74.3827 1222.34 73.6086 1223.74 73.4193C1226.3 73.0068 1229.14 72.2506 1231.69 72.8006C1232.18 73.6943 1232.87 74.6577 1232.39 75.7576C1228.02 79.1959 1222.4 82.7198 1216.4 80.227C1214.15 79.2248 1213.15 75.8264 1213.91 72.9401C1214.39 70.8767 1216.54 68.8831 1215.23 66.6823C1215.02 65.7189 1215.57 64.8949 1216.4 64.6887C1218.69 64.6887 1218.2 61.8692 1219.38 60.562C1218.06 59.1184 1214.74 59.1871 1215.09 56.2989C1216.68 55.4739 1218.62 55.7489 1220.42 55.4739C1224.5 54.648 1229.07 54.1668 1233.22 54.648C1234.05 54.8134 1235.16 56.4354 1235.85 57.4665ZM1137.03 41.7887C1143.41 46.9755 1151.7 55.8167 1150.66 65.9929C1149.41 74.039 1140.83 80.0895 1133.57 82.0154C1126.51 84.0777 1117.65 83.8715 1110.45 82.2216C1109.97 83.5288 1109.48 85.1089 1107.96 85.6599C1106.99 86.0036 1105.75 85.7974 1104.98 85.1786C1102.84 83.1841 1104.57 79.3333 1101.45 78.0969C1095.36 75.5524 1088.79 70.532 1085.68 64.344C1085.26 63.1066 1085.75 61.8692 1086.51 60.9068C1091.28 57.1248 1097.3 55.6124 1103.32 54.4428C1103.67 54.5802 1103.53 54.099 1103.81 53.9615C1104.15 49.8359 1104.29 45.6404 1105.61 41.9272C1105.91 41.4062 1106.64 41.2398 1107.13 41.5835C1110.94 44.4708 1109.14 49.9046 1110.8 53.8231C1118.06 54.1668 1125.33 54.5105 1131.07 58.5684C1133.01 60.1496 1133.48 63.1694 1132.87 64.8949C1132.26 66.6176 1130.24 67.852 1128.37 67.9875C1127.13 67.9875 1124.78 68.108 1124.91 67.1635C1125.05 66.218 1129.15 64.6708 1127.89 63.3806C1126.08 61.5265 1117.04 60.4236 1111.43 59.7361C1110.74 59.5986 1110.1 59.8048 1110.1 60.561C1109.97 65.7866 1109.55 71.5622 1110.45 76.5836C1110.52 76.9283 1110.93 77.3408 1111.28 77.4075C1121.18 78.9896 1131.63 78.095 1139.38 72.4569C1142.98 69.5706 1144.15 65.5107 1143.53 61.0423C1140.42 48.5965 1127.34 41.1003 1116.61 36.2872C1106.16 31.749 1094.6 29.4107 1082.22 30.0304C1080.24 30.1739 1077.12 30.8503 1077.1 31.5438C1077.07 32.2372 1080.64 32.019 1080.21 33.3311C1079.78 34.6423 1076.16 33.8641 1075.09 33.5374C1074.02 33.2106 1074.12 31.6803 1074.4 30.7178C1077.1 25.9734 1084.63 25.5899 1088.03 25.4235C1106.85 24.9413 1125.05 32.0638 1137.03 41.7887ZM1103.12 60.2173C1098.34 60.2861 1093.29 60.7673 1088.86 62.4171C1087.96 62.7609 1086.85 63.7233 1087.54 64.893C1089.34 67.299 1091.92 69.2747 1094.33 70.6685C1096.74 72.0604 1099.93 73.8318 1102.84 74.2452C1103.53 69.7748 1103.53 65.3742 1103.46 60.7673C1103.18 60.6298 1103.46 60.3548 1103.12 60.2173ZM1246.16 53.9595C1245.95 59.9413 1240.34 63.6556 1240.34 69.6373C1240.55 69.8436 1240.69 70.1186 1240.97 69.9831C1245.47 65.1002 1249.89 58.155 1256.47 56.0926C1258.2 55.9551 1259.77 57.4506 1260.41 58.5684C1262.7 63.1066 1262.15 69.5018 1258.96 73.6275C1255.68 77.6775 1249.96 81.7414 1243.46 81.053C1240.76 87.6545 1238.89 94.5997 1237.85 101.82C1237.3 103.264 1235.99 101.957 1235.16 101.682C1229.55 97.2817 1234.15 85.632 1234.53 84.1455C1234.91 82.663 1236.41 79.166 1237.51 76.2378C1234.88 71.5632 1236.54 65.9231 1238.69 61.5912C1240.35 58.7029 1242.63 55.8147 1245.33 53.6148C1245.67 53.6158 1245.95 53.6846 1246.16 53.9595ZM1257.3 61.386C1256.47 61.2485 1256.12 62.3494 1255.43 62.5556C1252.25 66.1314 1249.07 69.7071 1247.47 73.9703C1249.62 74.2452 1251.42 72.8703 1253.29 72.1141C1256.47 70.1196 1258.48 66.8208 1258.27 63.0378C1258.13 62.4171 1257.58 61.9359 1257.3 61.386Z" fill="black"/>
</g>
<rect x="1344" width="320" height="128" rx="16" fill="#F9F9F9" fill-opacity="0.08"/>
<path d="M1526.83 99.9634V104.943H1528.45V101.627H1534.36V104.943H1535.99V99.9721L1526.83 99.9634ZM1528.27 98.3528H1534.52C1535.38 98.1833 1536.03 97.4306 1536.21 96.7026H1526.58C1526.76 97.4309 1527.41 98.1833 1528.27 98.3528ZM1521.91 104.946C1522.73 104.605 1523.17 104.014 1523.34 103.323H1516.05L1516.05 96.7067L1514.42 96.7112V104.946H1521.91ZM1502.28 98.3305H1508.05C1508.91 98.0821 1509.65 97.4309 1509.82 96.7089H1500.66V101.575H1508.16V103.283L1502.28 103.287C1501.35 103.54 1500.57 104.149 1500.18 104.952L1500.66 104.944H1509.77V99.9573H1502.28V98.3305ZM1488.04 98.3462H1494.28C1495.15 98.176 1495.79 97.4241 1495.98 96.6953H1486.34C1486.52 97.4241 1487.18 98.176 1488.04 98.3462ZM1488.04 101.601H1494.28C1495.15 101.432 1495.79 100.68 1495.98 99.9505H1486.34C1486.52 100.68 1487.18 101.432 1488.04 101.601ZM1488.04 104.945H1494.28C1495.15 104.775 1495.79 104.023 1495.98 103.294H1486.34C1486.52 104.023 1487.18 104.775 1488.04 104.945ZM1471.79 96.7153C1471.98 97.435 1472.61 98.1705 1473.48 98.3548H1476.11L1476.25 98.4069V104.927H1477.89V98.4069L1478.04 98.3548H1480.67C1481.55 98.1321 1482.17 97.435 1482.35 96.7153V96.6994H1471.79V96.7153Z" fill="#E82127"/>
<path d="M1504 80.4248L1512.2 35.0867C1520.02 35.0867 1522.48 35.9293 1522.84 39.3686C1522.84 39.3686 1528.08 37.4466 1530.73 33.5431C1520.41 28.8421 1510.04 28.63 1510.04 28.63L1503.99 35.8748L1504 35.8739L1497.95 28.6289C1497.95 28.6289 1487.58 28.8411 1477.26 33.5422C1479.9 37.4457 1485.15 39.3677 1485.15 39.3677C1485.51 35.9282 1487.97 35.0856 1495.73 35.0802L1504 80.4248Z" fill="#E82127"/>
<path d="M1504 26.5372C1512.34 26.4745 1521.89 27.8059 1531.66 31.9941C1532.97 29.6824 1533.31 28.6608 1533.31 28.6608C1522.62 24.5048 1512.61 23.0826 1504 23.0469C1495.38 23.0826 1485.37 24.5051 1474.69 28.6608C1474.69 28.6608 1475.16 29.9192 1476.33 31.9941C1486.1 27.8059 1495.65 26.4745 1504 26.5372H1504Z" fill="#E82127"/>
<rect x="168" y="144" width="320" height="128" rx="16" fill="white" fill-opacity="0.08"/>
<path d="M229.819 228.987H221.346V207.967H215.574V201.123H221.346V196.253C221.346 190.482 223.898 186.344 232.348 186.344C234.135 186.344 236.941 186.702 236.941 186.702V193.057H233.994C230.991 193.057 229.819 193.966 229.819 196.479V201.123H236.829L236.204 207.967H229.819L229.819 228.987ZM249.259 200.576C249.136 200.576 249.009 200.581 248.883 200.584C241.027 200.584 237.432 206.465 237.432 214.814C237.432 225.331 242.095 229.54 248.945 229.54C252.863 229.54 255.438 227.898 257.003 224.835V228.99H265.062V201.126H257.003V205.411C255.725 202.654 253.079 200.609 249.259 200.576ZM251.308 207.16C254.608 207.16 256.589 209.451 256.589 213.347L256.596 217.326C256.596 219.952 254.96 223.025 251.308 223.025C245.694 223.025 245.844 216.991 245.844 214.982C245.844 208.222 248.835 207.16 251.308 207.16ZM268.316 215.059C268.316 211.673 268.154 200.594 282.657 200.594C288.48 200.594 290.911 202.437 290.911 202.437L288.957 208.468C288.957 208.468 286.529 207.137 283.365 207.137C279.313 207.137 276.727 209.475 276.727 213.589L276.732 216.538C276.732 220.49 279.227 223.129 283.373 223.129C286.256 223.129 288.912 221.785 288.912 221.785L290.861 227.691C290.861 227.691 288.638 229.545 282.698 229.545C268.888 229.545 268.317 219.605 268.317 215.059H268.316ZM338.162 200.584C346.018 200.584 349.669 206.465 349.669 214.814C349.669 225.331 345.007 229.54 338.157 229.54C334.238 229.54 331.341 227.899 329.776 224.835V228.99L321.819 228.987V187.191L330.267 186.458V205.034C331.487 201.784 335.494 200.584 338.162 200.584ZM335.793 207.16C332.493 207.16 330.267 209.451 330.267 213.347L330.26 217.326C330.255 219.952 331.801 223.025 335.793 223.025C341.408 223.025 341.258 216.991 341.258 214.982C341.258 208.222 338.267 207.16 335.793 207.16ZM305.57 200.607C296.659 200.607 291.954 205.442 291.954 214.034V215.631C291.954 226.783 298.561 229.655 306.437 229.655C314.092 229.655 317.558 227.524 317.558 227.524L315.977 221.849C315.977 221.849 311.901 223.575 307.45 223.575C302.836 223.575 300.852 222.404 300.343 217.991H318.233V213.439C318.233 204.118 312.953 200.607 305.569 200.607L305.57 200.607ZM305.784 206.289C308.869 206.289 310.868 208.172 310.758 212.537H300.359C300.539 207.943 302.694 206.289 305.784 206.289ZM366.516 200.569C357.365 200.569 352.547 205.701 352.547 214.898C352.547 227.516 360.852 229.548 366.531 229.548C374.845 229.548 380.376 225.093 380.376 215.012C380.376 204.52 374.157 200.569 366.516 200.569ZM366.401 207.183C370.424 207.183 372.019 210.18 372.019 213.592V216.525C372.019 220.657 369.788 223.048 366.385 223.048C363.203 223.048 360.967 220.812 360.967 216.525V213.592C360.967 209.019 363.628 207.183 366.401 207.183ZM397.207 200.569C388.057 200.569 383.239 205.701 383.239 214.898C383.239 227.516 391.543 229.548 397.223 229.548C405.537 229.548 411.068 225.093 411.068 215.012C411.068 204.52 404.849 200.569 397.207 200.569ZM397.092 207.183C401.116 207.183 402.71 210.18 402.71 213.592V216.525C402.71 220.657 400.479 223.048 397.077 223.048C393.895 223.048 391.659 220.812 391.659 216.525V213.592C391.659 209.019 394.32 207.183 397.092 207.183ZM414.261 228.987V187.191L422.734 186.458V214.472L431.14 201.123H440.089L431.319 214.949L440.426 228.987H431.453L422.734 215.356V228.987H414.261Z" fill="#1877F2"/>
<rect x="504" y="144" width="320" height="128" rx="16" fill="white" fill-opacity="0.08"/>
<g clip-path="url(#clip2_2220_3009)">
<path d="M649.658 209.783C649.658 219.287 642.285 226.289 633.237 226.289C624.189 226.289 616.816 219.287 616.816 209.783C616.816 200.213 624.189 193.277 633.237 193.277C642.285 193.277 649.658 200.213 649.658 209.783ZM642.47 209.783C642.47 203.845 638.197 199.782 633.237 199.782C628.278 199.782 624.005 203.845 624.005 209.783C624.005 215.662 628.278 219.785 633.237 219.785C638.197 219.785 642.47 215.655 642.47 209.783Z" fill="#EA4335"/>
<path d="M685.08 209.783C685.08 219.287 677.707 226.289 668.659 226.289C659.611 226.289 652.238 219.287 652.238 209.783C652.238 200.221 659.611 193.277 668.659 193.277C677.707 193.277 685.08 200.213 685.08 209.783ZM677.891 209.783C677.891 203.845 673.618 199.782 668.659 199.782C663.7 199.782 659.426 203.845 659.426 209.783C659.426 215.662 663.7 219.785 668.659 219.785C673.618 219.785 677.891 215.655 677.891 209.783Z" fill="#FBBC05"/>
<path d="M719.029 194.275V223.908C719.029 236.098 711.899 241.076 703.471 241.076C695.538 241.076 690.763 235.726 688.962 231.35L695.22 228.723C696.335 231.409 699.065 234.58 703.464 234.58C708.859 234.58 712.202 231.223 712.202 224.905V222.531H711.951C710.342 224.533 707.243 226.282 703.331 226.282C695.147 226.282 687.648 219.093 687.648 209.843C687.648 200.526 695.147 193.277 703.331 193.277C707.235 193.277 710.335 195.026 711.951 196.969H712.202V194.282H719.029V194.275ZM712.711 209.843C712.711 204.031 708.866 199.782 703.973 199.782C699.014 199.782 694.859 204.031 694.859 209.843C694.859 215.595 699.014 219.785 703.973 219.785C708.866 219.785 712.711 215.595 712.711 209.843Z" fill="#4285F4"/>
<path d="M730.288 176.906V225.278H723.277V176.906H730.288Z" fill="#34A853"/>
<path d="M757.603 215.216L763.183 218.966C761.382 221.653 757.043 226.282 749.544 226.282C740.245 226.282 733.301 219.033 733.301 209.776C733.301 199.96 740.304 193.27 748.74 193.27C757.234 193.27 761.389 200.086 762.747 203.77L763.493 205.645L741.611 214.784C743.286 218.096 745.891 219.785 749.544 219.785C753.205 219.785 755.744 217.969 757.603 215.216ZM740.43 209.277L755.057 203.152C754.253 201.091 751.832 199.655 748.983 199.655C745.33 199.655 740.245 202.907 740.43 209.277Z" fill="#EA4335"/>
<path d="M590.275 205.488V198.486H613.677C613.906 199.706 614.024 201.15 614.024 202.713C614.024 207.967 612.6 214.463 608.009 219.092C603.544 223.78 597.839 226.281 590.282 226.281C576.275 226.281 564.496 214.776 564.496 200.651C564.496 186.527 576.275 175.021 590.282 175.021C598.031 175.021 603.552 178.088 607.699 182.084L602.799 187.025C599.825 184.212 595.795 182.024 590.275 182.024C580.046 182.024 572.046 190.337 572.046 200.651C572.046 210.966 580.046 219.278 590.275 219.278C596.909 219.278 600.688 216.592 603.109 214.151C605.072 212.171 606.363 209.343 606.873 205.481L590.275 205.488Z" fill="#4285F4"/>
</g>
<rect x="840" y="144" width="320" height="128" rx="16" fill="#F9F9F9" fill-opacity="0.08"/>
<path fill-rule="evenodd" clip-rule="evenodd" d="M1023.65 224.85C1012.23 233.342 995.687 237.872 981.441 237.872C961.466 237.872 943.483 230.416 929.879 218.016C928.81 217.04 929.768 215.711 931.05 216.471C945.732 225.092 963.886 230.278 982.638 230.278C995.285 230.278 1009.2 227.637 1021.99 222.158C1023.92 221.329 1025.54 223.435 1023.65 224.85Z" fill="#FF9900"/>
<path fill-rule="evenodd" clip-rule="evenodd" d="M1028.39 219.368C1026.93 217.487 1018.74 218.479 1015.07 218.919C1013.95 219.058 1013.77 218.074 1014.78 217.366C1021.31 212.732 1032.01 214.07 1033.26 215.623C1034.51 217.185 1032.94 228.015 1026.81 233.184C1025.87 233.978 1024.97 233.555 1025.39 232.502C1026.76 229.033 1029.85 221.258 1028.39 219.368Z" fill="#FF9900"/>
<path fill-rule="evenodd" clip-rule="evenodd" d="M1015.33 184.653V180.148C1015.33 179.466 1015.84 179.009 1016.46 179.009H1036.44C1037.08 179.009 1037.6 179.475 1037.6 180.148V184.005C1037.59 184.653 1037.05 185.498 1036.09 186.836L1025.74 201.756C1029.58 201.662 1033.64 202.24 1037.13 204.224C1037.92 204.673 1038.13 205.329 1038.19 205.976V210.783C1038.19 211.439 1037.48 212.207 1036.72 211.81C1030.57 208.556 1022.41 208.203 1015.61 211.844C1014.92 212.224 1014.19 211.465 1014.19 210.809V206.244C1014.19 205.51 1014.2 204.259 1014.93 203.146L1026.92 185.783H1016.48C1015.84 185.783 1015.33 185.326 1015.33 184.653ZM942.432 212.759H936.353C935.771 212.716 935.309 212.276 935.267 211.715V180.226C935.267 179.596 935.788 179.095 936.438 179.095H942.107C942.697 179.121 943.168 179.579 943.21 180.148V184.265H943.322C944.801 180.286 947.58 178.431 951.325 178.431C955.13 178.431 957.508 180.286 959.218 184.265C960.688 180.286 964.032 178.431 967.615 178.431C970.163 178.431 972.95 179.493 974.652 181.874C976.576 184.523 976.183 188.372 976.183 191.746L976.174 211.62C976.174 212.25 975.652 212.759 975.003 212.759H968.931C968.324 212.716 967.837 212.224 967.837 211.62V194.931C967.837 193.602 967.957 190.288 967.666 189.028C967.213 186.914 965.853 186.318 964.092 186.318C962.621 186.318 961.082 187.311 960.457 188.899C959.833 190.486 959.893 193.144 959.893 194.931V211.62C959.893 212.25 959.372 212.759 958.722 212.759H952.651C952.035 212.716 951.556 212.224 951.556 211.62L951.548 194.931C951.548 191.418 952.12 186.249 947.802 186.249C943.433 186.249 943.604 191.289 943.604 194.931V211.62C943.604 212.25 943.082 212.759 942.432 212.759ZM1054.8 178.431C1063.82 178.431 1068.7 186.249 1068.7 196.19C1068.7 205.795 1063.31 213.415 1054.8 213.415C1045.94 213.415 1041.12 205.597 1041.12 195.854C1041.12 186.051 1046 178.431 1054.8 178.431ZM1054.85 184.86C1050.37 184.86 1050.09 191.021 1050.09 194.861C1050.09 198.71 1050.03 206.925 1054.8 206.925C1059.51 206.925 1059.73 200.298 1059.73 196.259C1059.73 193.602 1059.62 190.426 1058.83 187.906C1058.14 185.714 1056.78 184.86 1054.85 184.86ZM1080.4 212.759H1074.35C1073.74 212.716 1073.25 212.224 1073.25 211.62L1073.24 180.122C1073.3 179.544 1073.8 179.095 1074.42 179.095H1080.05C1080.58 179.121 1081.02 179.484 1081.14 179.976V184.791H1081.25C1082.95 180.485 1085.33 178.431 1089.53 178.431C1092.26 178.431 1094.92 179.423 1096.63 182.142C1098.22 184.661 1098.22 188.899 1098.22 191.945V211.766C1098.15 212.319 1097.65 212.759 1097.05 212.759H1090.95C1090.4 212.716 1089.94 212.302 1089.88 211.766V194.663C1089.88 191.22 1090.27 186.18 1086.07 186.18C1084.59 186.18 1083.23 187.181 1082.56 188.7C1081.7 190.624 1081.59 192.54 1081.59 194.663V211.62C1081.58 212.25 1081.05 212.759 1080.4 212.759ZM999.398 197.718C999.398 200.108 999.458 202.102 998.261 204.224C997.295 205.95 995.756 207.012 994.054 207.012C991.72 207.012 990.351 205.217 990.351 202.568C990.351 197.338 994.995 196.389 999.398 196.389V197.718ZM1005.53 212.673C1005.13 213.035 1004.55 213.061 1004.09 212.819C1002.07 211.128 1001.71 210.343 1000.6 208.729C997.269 212.164 994.901 213.19 990.582 213.19C985.46 213.19 981.484 210.006 981.484 203.629C981.484 198.65 984.152 195.258 987.966 193.602C991.267 192.134 995.875 191.876 999.399 191.47V190.676C999.399 189.218 999.51 187.492 998.654 186.232C997.919 185.102 996.499 184.635 995.243 184.635C992.925 184.635 990.865 185.835 990.36 188.32C990.257 188.873 989.855 189.416 989.3 189.442L983.408 188.804C982.912 188.691 982.356 188.286 982.502 187.518C983.853 180.304 990.317 178.129 996.098 178.129C999.057 178.129 1002.92 178.923 1005.26 181.184C1008.21 183.971 1007.93 187.69 1007.93 191.738V201.299C1007.93 204.173 1009.11 205.432 1010.22 206.986C1010.61 207.538 1010.69 208.203 1010.2 208.617C1008.96 209.661 1006.75 211.603 1005.54 212.69L1005.53 212.673M919.695 197.718C919.695 200.108 919.755 202.102 918.558 204.224C917.592 205.95 916.061 207.012 914.351 207.012C912.017 207.012 910.657 205.217 910.657 202.568C910.657 197.338 915.3 196.389 919.695 196.389V197.718ZM925.826 212.673C925.425 213.035 924.843 213.061 924.39 212.819C922.372 211.128 922.013 210.343 920.901 208.729C917.566 212.164 915.206 213.19 910.879 213.19C905.766 213.19 901.781 210.006 901.781 203.629C901.781 198.65 904.458 195.258 908.263 193.602C911.564 192.134 916.172 191.876 919.695 191.47V190.676C919.695 189.218 919.807 187.492 918.96 186.232C918.216 185.102 916.797 184.635 915.548 184.635C913.231 184.635 911.162 185.835 910.657 188.32C910.554 188.873 910.153 189.416 909.605 189.442L903.705 188.804C903.209 188.691 902.662 188.286 902.799 187.518C904.158 180.304 910.614 178.129 916.395 178.129C919.353 178.129 923.218 178.923 925.553 181.184C928.511 183.971 928.229 187.69 928.229 191.738V201.299C928.229 204.173 929.409 205.432 930.521 206.986C930.914 207.538 931 208.203 930.504 208.617C929.264 209.661 927.058 211.603 925.844 212.69L925.826 212.673Z" fill="black"/>
<rect x="1176" y="144" width="320" height="128" rx="16" fill="#F9F9F9" fill-opacity="0.08"/>
<path d="M1336 173.387C1286.07 173.387 1246.04 188.744 1246.04 207.999C1246.04 227.137 1286.4 242.613 1336 242.613C1385.61 242.613 1425.96 227.085 1425.96 207.999C1425.96 188.913 1385.61 173.387 1336 173.387Z" fill="#003478"/>
<path d="M1371.44 215.332C1371.46 215.491 1371.66 215.643 1371.86 215.714C1371.93 215.739 1371.97 215.789 1371.89 215.957C1371.33 217.189 1370.82 217.899 1370.11 218.97C1369.47 219.959 1368.74 220.731 1367.86 221.473C1366.53 222.601 1364.69 223.829 1363.16 223.004C1362.48 222.643 1362.19 221.67 1362.2 220.882C1362.23 218.667 1363.19 216.392 1364.97 214.157C1367.13 211.426 1369.52 210.009 1371.09 210.784C1372.71 211.578 1372.19 213.506 1371.47 215.019C1371.41 215.137 1371.41 215.236 1371.44 215.332ZM1388.85 198.071C1388.97 197.859 1388.85 197.705 1388.58 197.705C1387.23 197.705 1385.45 197.708 1384.04 197.708C1383.7 197.708 1383.53 197.749 1383.37 198.072C1382.85 199.096 1376.49 208.866 1375.31 210.764C1375.11 211.053 1374.87 211.012 1374.84 210.681C1374.72 209.554 1373.77 208.259 1372.28 207.639C1371.14 207.165 1370.03 207.079 1368.87 207.237C1366.78 207.525 1364.92 208.656 1363.28 209.932C1360.81 211.856 1358.69 214.35 1355.94 216.193C1354.44 217.196 1352.38 218.071 1351.01 216.765C1349.77 215.582 1349.91 212.954 1351.81 210.921C1352.01 210.708 1352.25 210.888 1352.21 211.077C1352.03 211.996 1352.25 212.91 1352.93 213.551C1353.76 214.315 1354.95 214.401 1355.97 213.892C1357.17 213.281 1357.88 212.103 1358.08 210.766C1358.4 208.692 1356.84 206.863 1354.9 206.716C1353.31 206.602 1351.8 207.167 1350.32 208.418C1349.58 209.049 1349.16 209.515 1348.52 210.45C1348.36 210.681 1348.12 210.704 1348.13 210.363C1348.2 207.708 1347.13 206.214 1344.99 206.165C1343.33 206.124 1341.56 207.049 1340.17 208.18C1338.66 209.43 1337.33 211.085 1335.91 212.641C1335.73 212.832 1335.58 212.823 1335.53 212.452C1335.49 210.692 1335.05 208.988 1334.26 207.778C1333.98 207.357 1333.39 207.149 1332.89 207.433C1332.66 207.561 1331.87 207.938 1331.28 208.418C1331 208.661 1330.88 209.014 1331.01 209.466C1331.78 212.094 1331.61 215.083 1330.57 217.608C1329.62 219.92 1327.76 222.005 1325.58 222.711C1324.14 223.178 1322.65 222.949 1321.73 221.643C1320.46 219.84 1320.97 216.704 1322.86 214.1C1324.53 211.807 1326.95 210.351 1329.35 209.413C1329.64 209.301 1329.7 209.114 1329.62 208.867C1329.49 208.461 1329.28 207.908 1329.19 207.655C1328.97 207.052 1328.35 206.954 1327.6 207.039C1325.85 207.247 1324.27 207.863 1322.71 208.719C1318.63 210.963 1316.58 215.305 1315.68 217.628C1315.25 218.744 1314.88 219.44 1314.4 220.057C1313.76 220.887 1312.95 221.643 1311.47 222.974C1311.34 223.097 1311.24 223.351 1311.35 223.588C1311.5 223.908 1312.27 225.022 1312.49 225.121C1312.73 225.242 1313.01 225.072 1313.12 224.991C1314.15 224.271 1315.39 223.132 1316 222.359C1316.21 222.094 1316.43 222.205 1316.54 222.607C1317.11 224.675 1318.58 226.363 1320.63 227.07C1324.37 228.365 1328.26 226.49 1331.19 223.226C1333.05 221.151 1333.72 219.816 1334.44 218.909C1335.65 217.371 1338.03 213.929 1340.88 211.72C1341.92 210.905 1343.15 210.283 1343.77 210.696C1344.27 211.027 1344.43 211.797 1343.63 213.288C1340.73 218.719 1336.47 225.1 1335.69 226.647C1335.54 226.916 1335.67 227.127 1335.94 227.127C1337.46 227.119 1338.96 227.123 1340.34 227.123C1340.57 227.115 1340.67 227.004 1340.79 226.838C1343.01 223.265 1345.11 219.865 1347.35 216.349C1347.47 216.142 1347.59 216.3 1347.6 216.39C1347.64 217.206 1347.84 218.322 1348.31 219.054C1349.16 220.409 1350.36 220.991 1351.69 221C1352.75 221.016 1353.29 220.847 1354.43 220.409C1355.36 220.054 1356.11 219.59 1356.69 219.169C1357.02 218.929 1357.08 219.33 1357.07 219.391C1356.56 222.227 1357.19 225.588 1359.94 226.982C1363.23 228.645 1366.84 226.307 1368.92 224.196C1369.12 223.993 1369.34 224.015 1369.36 224.453C1369.41 225.259 1369.76 226.215 1370.41 226.885C1372.15 228.678 1375.66 227.967 1379.19 225.166C1381.46 223.373 1383.83 220.839 1385.97 218.156C1386.05 218.051 1386.1 217.885 1385.95 217.715C1385.62 217.365 1385.15 216.965 1384.83 216.657C1384.68 216.528 1384.47 216.565 1384.34 216.661C1382.15 218.802 1380.17 221.244 1377.32 223.263C1376.36 223.952 1374.82 224.508 1374.13 223.551C1373.86 223.179 1373.89 222.666 1374.16 221.991C1374.99 219.862 1388.17 199.285 1388.85 198.071Z" fill="white"/>
<path d="M1326.86 200.553C1326.92 200.859 1327.03 200.918 1327.17 200.892C1327.84 200.755 1328.57 200.188 1329.01 199.532C1329.4 198.936 1329.59 198.077 1329.2 197.733C1328.84 197.423 1328.27 197.511 1327.85 197.895C1327.01 198.659 1326.75 199.744 1326.86 200.553ZM1293.28 227.049C1288.37 227.082 1284.04 223.969 1283.54 218.576C1283.26 215.588 1284.09 212.924 1285.74 210.73C1287.2 208.775 1289.67 207.151 1291.77 206.754C1292.45 206.626 1293.36 206.704 1293.74 207.17C1294.34 207.879 1294.17 208.658 1293.57 208.969C1291.97 209.806 1290.05 211.24 1289.1 213.197C1288.33 214.794 1288.17 216.719 1289.35 218.553C1291.32 221.609 1296.82 221.693 1301.94 216.819C1303.2 215.626 1304.34 214.48 1305.49 213.122C1307.74 210.48 1308.49 209.517 1311.48 205.257C1311.52 205.207 1311.53 205.143 1311.52 205.111C1311.49 205.054 1311.45 205.045 1311.36 205.037C1309.36 205.095 1307.62 205.705 1305.93 207.004C1305.44 207.369 1304.74 207.317 1304.43 206.837C1304.09 206.294 1304.33 205.586 1304.9 205.187C1307.62 203.243 1310.6 202.89 1313.64 202.364C1313.63 202.364 1313.85 202.372 1314.02 202.138C1315.27 200.495 1316.21 199.013 1317.54 197.351C1318.88 195.666 1320.61 194.118 1321.93 192.955C1323.78 191.326 1324.96 190.778 1326.17 190.106C1326.48 189.936 1326.13 189.733 1326.03 189.733C1319.31 188.438 1312.33 186.761 1305.66 189.295C1301.04 191.065 1299.01 194.824 1299.99 197.336C1300.68 199.118 1302.96 199.408 1305.1 198.334C1306.88 197.441 1308.52 196.002 1309.69 194.15C1310.34 193.121 1311.71 193.863 1310.97 195.65C1309.02 200.358 1305.29 204.092 1300.75 204.25C1296.88 204.379 1294.39 201.46 1294.39 197.86C1294.41 190.758 1302.11 186.08 1310.21 185.381C1319.96 184.554 1329.2 187.219 1338.88 188.424C1346.3 189.346 1353.41 189.365 1360.87 187.608C1361.75 187.411 1362.37 187.988 1362.31 188.902C1362.24 190.222 1361.24 191.494 1358.79 192.868C1355.99 194.44 1353.07 194.917 1350.02 194.943C1342.64 195.009 1335.77 192.054 1328.65 190.469C1328.66 190.788 1328.74 191.169 1328.48 191.37C1324.54 194.352 1320.98 197.38 1318.6 201.633C1318.52 201.732 1318.56 201.825 1318.7 201.815C1320.77 201.702 1322.63 201.647 1324.57 201.489C1324.9 201.456 1324.92 201.373 1324.89 201.121C1324.72 199.655 1325.13 197.983 1326.39 196.833C1327.68 195.65 1329.29 195.515 1330.35 196.367C1331.57 197.338 1331.46 199.083 1330.8 200.392C1330.12 201.72 1329 202.431 1327.93 202.775C1327.93 202.775 1327.71 202.825 1327.74 203.035C1327.78 203.37 1329.24 204.2 1329.37 204.421C1329.49 204.632 1329.42 204.958 1329.2 205.208C1329.05 205.39 1328.81 205.56 1328.5 205.554C1328.25 205.549 1328.1 205.46 1327.78 205.282C1327.12 204.918 1326.3 204.32 1325.76 203.614C1325.57 203.375 1325.48 203.37 1325.01 203.397C1322.92 203.521 1319.66 203.844 1317.45 204.127C1316.91 204.193 1316.83 204.298 1316.72 204.489C1313.2 210.452 1309.44 216.881 1305.3 221.186C1300.87 225.802 1297.19 227.017 1293.28 227.049Z" fill="white"/>
<path d="M1336 179.047C1290.06 179.047 1252.82 192.072 1252.82 208.011C1252.82 223.95 1290.06 236.977 1336 236.977C1381.93 236.977 1419.17 223.95 1419.17 208.011C1419.17 192.072 1381.93 179.047 1336 179.047ZM1336 239.601C1288.39 239.601 1249.79 225.458 1249.79 208.011C1249.79 190.561 1288.39 176.42 1336 176.42C1383.6 176.42 1422.19 190.561 1422.19 208.011C1422.19 225.458 1383.6 239.601 1336 239.601Z" fill="white"/>
<rect y="288" width="320" height="128" rx="16" fill="white" fill-opacity="0.08"/>
<path d="M109.699 389.671H210.303V314.33H109.699V389.671Z" fill="#C0311A"/>
<mask id="mask0_2220_3009" style="mask-type:luminance" maskUnits="userSpaceOnUse" x="109" y="314" width="102" height="76">
<path d="M109.699 389.67H210.303V314.329H109.699V389.67Z" fill="white"/>
</mask>
<g mask="url(#mask0_2220_3009)">
<path d="M170.205 327.602H185.6V342.008H170.205V327.602ZM179.905 329.607C179.837 329.596 179.769 329.585 179.697 329.573L179.613 329.562C179.495 329.546 179.376 329.533 179.257 329.52C179.173 329.513 179.091 329.508 179.012 329.502C178.864 329.494 178.72 329.49 178.583 329.49C178.518 329.49 178.483 329.491 178.42 329.493C178.305 329.494 178.193 329.5 178.078 329.505C178.016 329.509 177.953 329.516 177.891 329.52C177.801 329.529 177.71 329.539 177.62 329.551L177.547 329.561L177.463 329.572L177.362 329.587C177.317 329.596 177.273 329.603 177.228 329.611C177.168 329.622 177.108 329.634 177.049 329.647C176.703 329.719 176.363 329.819 176.034 329.947C175.877 330.006 175.723 330.073 175.573 330.148C175.452 330.205 175.333 330.267 175.218 330.335C175.111 330.395 175.005 330.46 174.903 330.528C174.844 330.566 174.787 330.605 174.73 330.645C174.683 330.68 174.635 330.715 174.59 330.749C174.492 330.825 174.398 330.901 174.308 330.979C174.227 331.05 174.148 331.123 174.071 331.199C174.006 331.262 173.943 331.328 173.882 331.395C173.82 331.464 173.759 331.534 173.7 331.606C173.638 331.684 173.574 331.765 173.513 331.847C173.469 331.91 173.427 331.972 173.385 332.037C173.355 332.078 173.327 332.123 173.298 332.168C173.135 332.435 172.997 332.715 172.883 333.005C172.734 333.391 172.631 333.793 172.577 334.203C172.559 334.338 172.546 334.475 172.538 334.611C172.525 334.8 172.523 334.99 172.532 335.179C172.538 335.262 172.545 335.346 172.555 335.427L172.56 335.485C172.573 335.582 172.588 335.678 172.606 335.773C172.615 335.81 172.621 335.846 172.629 335.883C172.647 335.962 172.664 336.039 172.686 336.117C172.713 336.214 172.741 336.312 172.773 336.407C172.814 336.525 172.856 336.638 172.901 336.75C172.977 336.925 173.058 337.095 173.145 337.254C173.198 337.348 173.25 337.44 173.306 337.526C173.349 337.596 173.393 337.664 173.439 337.73C173.499 337.816 173.563 337.898 173.623 337.978C173.687 338.061 173.756 338.141 173.821 338.215C173.903 338.31 173.986 338.395 174.066 338.474L174.109 338.516C174.175 338.579 174.247 338.648 174.329 338.717C174.387 338.764 174.443 338.814 174.507 338.864C174.565 338.91 174.628 338.958 174.692 339.005C174.77 339.06 174.852 339.115 174.939 339.172C175.03 339.231 175.128 339.29 175.231 339.345C175.448 339.467 175.674 339.574 175.905 339.667C175.996 339.704 176.092 339.738 176.192 339.772C176.289 339.805 176.389 339.836 176.494 339.867C176.67 339.917 176.856 339.961 177.052 339.999C177.21 340.03 177.374 340.055 177.544 340.076C177.712 340.095 177.884 340.111 178.065 340.12C178.155 340.125 178.243 340.127 178.334 340.13H178.459C178.783 340.13 179.083 340.119 179.361 340.095L179.414 340.091C179.525 340.081 179.631 340.07 179.735 340.056C179.893 340.038 180.046 340.014 180.188 339.988C180.28 339.973 180.367 339.954 180.453 339.936C180.584 339.908 180.712 339.878 180.831 339.846C180.921 339.823 181.006 339.798 181.088 339.772C181.187 339.743 181.283 339.712 181.374 339.681L181.461 339.651C181.504 339.635 181.563 339.613 181.634 339.586C181.727 339.55 181.839 339.507 181.967 339.453C182.042 339.421 182.125 339.384 182.209 339.345C182.285 339.312 182.362 339.273 182.442 339.234C182.476 339.218 182.508 339.202 182.543 339.185V337.221C182.522 337.236 182.497 337.25 182.474 337.264L182.337 337.346C182.207 337.425 182.075 337.501 181.941 337.574C181.579 337.771 181.203 337.94 180.814 338.08C180.384 338.234 179.987 338.332 179.638 338.392C179.598 338.399 179.557 338.406 179.516 338.411C179.421 338.427 179.328 338.439 179.24 338.448C179.113 338.462 178.986 338.471 178.859 338.475C178.789 338.479 178.72 338.481 178.65 338.481C178.508 338.481 178.364 338.477 178.218 338.467C178.046 338.453 177.872 338.435 177.694 338.407C177.408 338.358 177.12 338.286 176.841 338.184C176.801 338.17 176.757 338.153 176.72 338.138C176.69 338.127 176.663 338.116 176.637 338.105C176.591 338.085 176.544 338.066 176.499 338.045C176.401 338 176.306 337.95 176.213 337.897C176.167 337.87 176.121 337.844 176.075 337.815C176.027 337.785 175.979 337.755 175.935 337.723C175.876 337.682 175.82 337.642 175.763 337.599C175.71 337.555 175.656 337.511 175.608 337.472L175.543 337.413L175.511 337.383L175.492 337.366L175.468 337.341C175.379 337.254 175.298 337.165 175.224 337.077C175.182 337.027 175.144 336.977 175.106 336.927C175.07 336.879 175.036 336.829 175.004 336.782C174.932 336.67 174.866 336.555 174.806 336.436C174.777 336.378 174.749 336.319 174.725 336.26C174.683 336.161 174.646 336.061 174.617 335.966C174.592 335.892 174.572 335.82 174.555 335.749C174.5 335.544 174.475 335.356 174.46 335.197C174.456 335.135 174.451 335.078 174.449 335.027C174.443 334.947 174.443 334.879 174.443 334.825C174.443 334.788 174.443 334.748 174.444 334.701C174.45 334.588 174.458 334.445 174.484 334.284C174.498 334.185 174.517 334.08 174.542 333.969C174.562 333.896 174.582 333.821 174.606 333.744C174.628 333.675 174.653 333.605 174.68 333.532C174.699 333.482 174.719 333.435 174.742 333.386C174.77 333.319 174.802 333.254 174.837 333.185C174.862 333.135 174.892 333.085 174.921 333.033C174.987 332.922 175.058 332.81 175.144 332.7C175.173 332.66 175.204 332.621 175.238 332.582C175.278 332.531 175.322 332.48 175.37 332.431C175.392 332.406 175.416 332.381 175.441 332.356C175.801 331.996 176.209 331.727 176.631 331.536C176.696 331.506 176.763 331.479 176.83 331.454C176.896 331.426 176.962 331.404 177.031 331.38C177.102 331.356 177.178 331.334 177.251 331.313C177.32 331.294 177.39 331.277 177.46 331.26C177.528 331.245 177.6 331.231 177.669 331.217C177.744 331.204 177.821 331.192 177.896 331.182C177.973 331.172 178.05 331.164 178.123 331.158C178.267 331.146 178.409 331.14 178.548 331.14C178.592 331.14 178.637 331.139 178.684 331.14C178.786 331.143 178.887 331.146 178.984 331.153C179.054 331.157 179.118 331.161 179.183 331.168C179.309 331.179 179.428 331.193 179.54 331.213C179.644 331.227 179.741 331.245 179.834 331.262C179.976 331.291 180.106 331.323 180.221 331.352C180.297 331.372 180.367 331.393 180.429 331.411C180.526 331.439 180.608 331.464 180.671 331.486C180.781 331.525 180.841 331.546 180.841 331.546C180.938 331.581 181.033 331.618 181.127 331.655C181.253 331.705 181.372 331.761 181.487 331.812C181.583 331.854 181.674 331.899 181.759 331.942C181.829 331.975 181.895 332.009 181.957 332.041C182.065 332.097 182.156 332.147 182.232 332.187L182.432 332.296V330.367C182.432 330.367 182.312 330.318 182.103 330.238C182.01 330.205 181.901 330.163 181.777 330.12C181.707 330.095 181.636 330.07 181.559 330.042C181.497 330.022 181.434 330 181.368 329.979C181.294 329.955 181.217 329.93 181.138 329.907C181.082 329.89 181.023 329.872 180.963 329.855L180.911 329.84C180.854 329.824 180.795 329.808 180.736 329.792C180.664 329.773 180.593 329.755 180.52 329.737C180.474 329.725 180.429 329.714 180.38 329.703C180.304 329.686 180.227 329.668 180.148 329.653C180.069 329.636 179.986 329.622 179.905 329.607ZM158.375 335.546V338.378H160.224C160.224 338.378 160.26 338.376 160.321 338.375C160.384 338.373 160.472 338.369 160.577 338.359C160.779 338.341 161.043 338.305 161.299 338.219C161.532 338.141 161.758 338.025 161.929 337.852C161.996 337.787 162.052 337.718 162.096 337.649C162.241 337.421 162.278 337.19 162.283 337.059C162.29 337.003 162.289 336.97 162.289 336.97C162.289 336.97 162.29 336.945 162.289 336.9C162.286 336.807 162.274 336.715 162.251 336.625C162.216 336.492 162.152 336.335 162.035 336.193C162.013 336.167 161.989 336.14 161.965 336.114C161.913 336.062 161.856 336.014 161.797 335.97C161.697 335.896 161.581 335.832 161.455 335.779C161.289 335.707 161.104 335.654 160.9 335.616C160.795 335.597 160.684 335.58 160.57 335.569C160.502 335.563 160.43 335.558 160.357 335.555C160.294 335.551 160.227 335.548 160.161 335.548C159.506 335.548 158.375 335.546 158.375 335.546ZM158.375 331.243V333.926H159.271C159.271 333.926 159.33 333.926 159.408 333.925C159.471 333.921 159.544 333.918 159.61 333.915C159.795 333.901 160.049 333.876 160.303 333.805C160.353 333.791 160.403 333.776 160.453 333.758C160.653 333.688 160.844 333.585 160.992 333.438C161.111 333.323 161.189 333.193 161.24 333.069C161.303 332.914 161.327 332.768 161.336 332.665C161.343 332.571 161.343 332.511 161.343 332.511C161.343 332.511 161.344 332.467 161.341 332.397C161.336 332.281 161.312 332.09 161.218 331.908C161.169 331.813 161.105 331.728 161.029 331.654C160.928 331.555 160.806 331.48 160.675 331.423C160.423 331.311 160.134 331.267 159.89 331.251C159.787 331.244 159.69 331.243 159.607 331.243H158.375Z" fill="white"/>
<path d="M152.467 327.602H167.862V342.008H152.467V327.602ZM156.507 329.622V339.998H160.434C160.434 339.998 162.349 340.051 163.407 338.998C164.267 338.144 164.206 337.153 164.206 337.153C164.206 337.153 164.267 336.118 163.47 335.326C162.792 334.65 161.926 334.471 161.926 334.471C161.926 334.471 162.315 334.288 162.617 333.99C162.758 333.849 163.26 333.399 163.26 332.306C163.26 331.204 162.523 330.572 162.523 330.572C162.523 330.572 161.715 329.622 159.893 329.622H156.507ZM140.637 335.546V338.378H142.484C142.484 338.378 142.522 338.376 142.582 338.375C142.646 338.373 142.732 338.369 142.839 338.359C143.041 338.341 143.304 338.305 143.561 338.219C143.794 338.141 144.018 338.025 144.192 337.852C144.258 337.787 144.312 337.718 144.357 337.649C144.503 337.421 144.538 337.19 144.546 337.059C144.551 337.003 144.551 336.97 144.551 336.97V336.9C144.548 336.846 144.541 336.74 144.513 336.625C144.473 336.467 144.4 336.32 144.297 336.193C144.275 336.165 144.25 336.138 144.224 336.114C144.173 336.062 144.118 336.014 144.06 335.97C143.958 335.896 143.841 335.832 143.718 335.779C143.551 335.707 143.363 335.654 143.16 335.616C143.056 335.597 142.944 335.58 142.832 335.569C142.762 335.563 142.69 335.558 142.619 335.555C142.554 335.55 142.489 335.548 142.424 335.548C141.767 335.548 140.637 335.546 140.637 335.546ZM140.637 331.243V333.926H141.531C141.531 333.926 141.591 333.926 141.67 333.925C141.733 333.921 141.806 333.918 141.872 333.915C142.055 333.901 142.311 333.876 142.566 333.805C142.615 333.791 142.665 333.776 142.713 333.758C142.913 333.688 143.105 333.585 143.254 333.438C143.372 333.323 143.45 333.193 143.504 333.069C143.565 332.914 143.588 332.768 143.597 332.665C143.606 332.571 143.604 332.511 143.604 332.511C143.604 332.511 143.607 332.467 143.603 332.397C143.597 332.281 143.572 332.09 143.48 331.908C143.435 331.82 143.373 331.736 143.29 331.654C143.19 331.555 143.068 331.48 142.937 331.423C142.685 331.311 142.396 331.267 142.154 331.251C142.059 331.245 141.965 331.243 141.87 331.243H140.637Z" fill="white"/>
<path d="M134.729 327.602H150.124V342.008H134.729V327.602ZM138.767 329.622V339.998H142.694C142.694 339.998 144.61 340.051 145.667 338.998C146.528 338.144 146.466 337.152 146.466 337.152C146.466 337.152 146.528 336.118 145.732 335.326C145.052 334.65 144.184 334.47 144.184 334.47C144.184 334.47 144.577 334.288 144.878 333.989C145.018 333.849 145.52 333.398 145.52 332.306C145.52 331.204 144.783 330.571 144.783 330.571C144.783 330.571 143.975 329.622 142.153 329.622H138.767ZM140.244 359.809H139.882L135.623 349.258L131.325 359.809H130.963L125.715 346.799H127.579L131.154 355.687L134.748 346.799H136.516L140.13 355.687L143.667 346.799H145.512L140.244 359.809ZM152.589 358.163C155.498 358.163 157.647 356.065 157.647 353.246C157.647 350.411 155.498 348.331 152.589 348.331C149.698 348.331 147.549 350.411 147.549 353.246C147.549 356.065 149.698 358.163 152.589 358.163ZM152.589 346.629C156.867 346.629 159.567 349.654 159.567 353.246C159.567 356.727 156.943 359.865 152.551 359.865C148.31 359.865 145.629 356.745 145.629 353.246C145.629 349.673 148.386 346.629 152.589 346.629ZM163.751 352.434H164.95C166.946 352.434 167.516 351.413 167.498 350.335C167.479 349.125 166.755 348.387 164.95 348.387H163.751V352.434ZM165.159 346.799C167.783 346.799 169.419 348.179 169.419 350.411C169.419 351.904 168.638 353.021 167.25 353.569C168.429 354.344 169.151 355.535 170.141 357.143C170.692 358.031 171.016 358.466 171.91 359.695H169.684L167.972 357.048C166.262 354.401 165.482 354.098 164.531 354.098H163.751V359.695H161.888V346.799H165.159ZM175.18 358.031H181.037V359.695H173.316V346.798H175.18V358.031ZM184.535 358.031H187.502C191.723 358.031 192.693 354.836 192.693 353.247C192.693 350.657 191.039 348.463 187.406 348.463H184.535V358.031ZM182.671 346.798H187.711C192.504 346.798 194.613 350.202 194.613 353.247C194.613 356.556 192.009 359.695 187.73 359.695H182.671V346.798ZM134.301 366.012C133.198 364.972 132.134 364.669 131.259 364.669C130.06 364.669 129.205 365.292 129.205 366.201C129.205 368.678 134.814 368.641 134.814 372.743C134.814 374.767 133.275 376.242 131.182 376.242C129.776 376.242 128.635 375.863 127.55 375.05V372.706C128.502 373.916 129.699 374.578 130.973 374.578C132.418 374.578 133.084 373.67 133.084 372.952C133.084 370.286 127.474 369.983 127.474 366.447C127.474 364.347 129.033 363.005 131.41 363.005C132.399 363.005 133.388 363.307 134.301 363.912V366.012ZM144.208 364.839H138.713V368.735H144.017V370.398H138.713V374.407H144.379V376.072H136.848V363.175H144.208V364.839ZM148.259 368.81H149.457C151.453 368.81 152.024 367.789 152.004 366.712C151.986 365.501 151.263 364.763 149.457 364.763H148.259V368.81ZM149.666 363.175C152.29 363.175 153.925 364.555 153.925 366.787C153.925 368.28 153.146 369.397 151.758 369.945C152.937 370.721 153.659 371.911 154.648 373.519C155.199 374.407 155.523 374.843 156.416 376.071H154.191L152.48 373.424C150.769 370.777 149.989 370.474 149.038 370.474H148.259V376.071H146.396V363.175H149.666ZM160.889 376.185H160.507L154.898 363.175H156.761L160.66 372.233L164.539 363.175H166.384L160.889 376.185ZM169.692 376.071H167.829V363.174H169.692V376.071ZM183.612 366.05C182.015 365.123 180.646 364.707 179.143 364.707C176.177 364.707 173.972 366.805 173.972 369.642C173.972 372.536 176.101 374.539 179.219 374.539C180.684 374.539 182.282 374.029 183.745 373.084V375.108C182.471 375.77 181.083 376.241 179.049 376.241C174.18 376.241 172.051 372.517 172.051 369.812C172.051 365.88 175.036 363.005 179.163 363.005C180.493 363.005 181.843 363.326 183.612 364.063V366.05ZM193.386 364.839H187.891V368.735H193.196V370.398H187.891V374.407H193.557V376.072H186.027V363.175H193.386V364.839Z" fill="white"/>
</g>
<rect x="336" y="288" width="320" height="128" rx="16" fill="white" fill-opacity="0.08"/>
<path d="M458.11 336.671C457.369 333.941 455.199 331.789 452.448 331.054C447.421 329.689 427.312 329.689 427.312 329.689C427.312 329.689 407.204 329.689 402.176 331.002C399.478 331.737 397.255 333.941 396.514 336.671C395.191 341.658 395.191 351.999 395.191 351.999C395.191 351.999 395.191 362.393 396.514 367.327C397.255 370.057 399.425 372.209 402.176 372.944C407.257 374.309 427.312 374.309 427.312 374.309C427.312 374.309 447.421 374.309 452.448 372.997C455.199 372.262 457.369 370.109 458.11 367.38C459.433 362.393 459.433 352.052 459.433 352.052C459.433 352.052 459.486 341.658 458.11 336.671Z" fill="#FF0000"/>
<path d="M420.91 342.445V361.553L437.632 351.999L420.91 342.445Z" fill="white"/>
<path d="M488.489 370.32C487.219 369.48 486.319 368.168 485.79 366.331C485.261 364.546 484.996 362.131 484.996 359.192V355.15C484.996 352.158 485.314 349.743 485.896 347.906C486.531 346.068 487.483 344.756 488.753 343.916C490.076 343.076 491.769 342.656 493.886 342.656C495.95 342.656 497.643 343.076 498.913 343.916C500.183 344.756 501.083 346.121 501.665 347.906C502.247 349.69 502.565 352.105 502.565 355.15V359.192C502.565 362.184 502.3 364.546 501.718 366.383C501.136 368.168 500.236 369.533 498.966 370.373C497.696 371.213 495.95 371.633 493.78 371.633C491.558 371.58 489.759 371.16 488.489 370.32ZM495.632 365.911C496.003 365.018 496.162 363.496 496.162 361.449V352.735C496.162 350.74 496.003 349.27 495.632 348.326C495.262 347.381 494.68 346.961 493.78 346.961C492.934 346.961 492.299 347.433 491.981 348.326C491.611 349.27 491.452 350.74 491.452 352.735V361.449C491.452 363.496 491.611 365.018 491.981 365.911C492.299 366.803 492.934 367.276 493.833 367.276C494.68 367.276 495.262 366.856 495.632 365.911Z" fill="white"/>
<path d="M586.174 359.244V360.661C586.174 362.446 586.226 363.811 586.332 364.703C586.438 365.595 586.65 366.278 587.02 366.645C587.338 367.065 587.867 367.275 588.608 367.275C589.56 367.275 590.195 366.908 590.566 366.173C590.936 365.438 591.095 364.231 591.148 362.498L596.598 362.813C596.651 363.076 596.651 363.391 596.651 363.811C596.651 366.383 595.963 368.325 594.534 369.585C593.106 370.845 591.095 371.475 588.502 371.475C585.38 371.475 583.21 370.477 581.94 368.535C580.67 366.593 580.035 363.601 580.035 359.506V354.624C580.035 350.425 580.67 347.38 581.993 345.438C583.316 343.496 585.539 342.551 588.661 342.551C590.83 342.551 592.524 342.971 593.688 343.758C594.852 344.546 595.646 345.805 596.122 347.433C596.598 349.112 596.81 351.422 596.81 354.362V359.139H586.174V359.244ZM586.967 347.485C586.65 347.905 586.438 348.535 586.332 349.427C586.226 350.32 586.174 351.685 586.174 353.522V355.517H590.83V353.522C590.83 351.737 590.777 350.372 590.672 349.427C590.566 348.483 590.301 347.853 589.984 347.485C589.666 347.118 589.137 346.908 588.502 346.908C587.761 346.855 587.285 347.065 586.967 347.485Z" fill="white"/>
<path d="M473.037 358.719L465.84 332.84H472.137L474.677 344.546C475.312 347.433 475.788 349.9 476.106 351.947H476.265C476.476 350.478 476.952 348.063 477.693 344.598L480.339 332.84H486.636L479.334 358.719V371.108H473.089V358.719H473.037Z" fill="white"/>
<path d="M523.042 343.18V371.159H518.068L517.538 367.747H517.38C516.057 370.319 513.993 371.631 511.294 371.631C509.442 371.631 508.066 371.001 507.167 369.794C506.267 368.587 505.844 366.697 505.844 364.072V343.18H512.194V363.705C512.194 364.964 512.353 365.857 512.617 366.382C512.882 366.907 513.358 367.169 513.993 367.169C514.522 367.169 515.051 367.012 515.58 366.644C516.11 366.329 516.48 365.909 516.692 365.384V343.18H523.042Z" fill="white"/>
<path d="M555.589 343.18V371.159H550.614L550.085 367.747H549.927C548.604 370.319 546.54 371.631 543.841 371.631C541.989 371.631 540.613 371.001 539.714 369.794C538.814 368.587 538.391 366.697 538.391 364.072V343.18H544.741V363.705C544.741 364.964 544.899 365.857 545.164 366.382C545.429 366.907 545.905 367.169 546.54 367.169C547.069 367.169 547.598 367.012 548.127 366.644C548.657 366.329 549.027 365.909 549.239 365.384V343.18H555.589Z" fill="white"/>
<path d="M540.293 337.932H533.996V371.108H527.805L527.805 337.932H521.508V332.84H540.293V337.932Z" fill="white"/>
<path d="M576.597 347.642C576.226 345.858 575.591 344.598 574.744 343.81C573.898 343.023 572.681 342.603 571.199 342.603C570.035 342.603 568.924 342.918 567.918 343.6C566.913 344.23 566.119 345.123 565.59 346.173H565.537V331.422H559.398V371.107H564.637L565.272 368.482H565.431C565.907 369.427 566.648 370.162 567.654 370.739C568.659 371.264 569.717 371.579 570.934 371.579C573.104 371.579 574.639 370.582 575.644 368.64C576.649 366.697 577.179 363.6 577.179 359.453V355.044C577.126 351.842 576.967 349.375 576.597 347.642ZM570.776 359.033C570.776 361.081 570.67 362.655 570.511 363.81C570.352 364.965 570.035 365.805 569.664 366.278C569.241 366.75 568.712 367.012 568.077 367.012C567.548 367.012 567.071 366.907 566.648 366.645C566.225 366.383 565.854 366.015 565.59 365.543V349.69C565.801 348.955 566.172 348.325 566.701 347.8C567.23 347.327 567.812 347.065 568.394 347.065C569.029 347.065 569.559 347.327 569.876 347.8C570.246 348.325 570.458 349.165 570.617 350.32C570.776 351.527 570.829 353.207 570.829 355.359V359.033H570.776Z" fill="white"/>
<rect x="672" y="288" width="320" height="128" rx="16" fill="white" fill-opacity="0.08"/>
<path d="M873.129 351.499C873.129 374.188 854.693 392.553 831.994 392.553C809.261 392.553 790.859 374.153 790.859 351.499C790.859 328.811 809.296 310.445 831.994 310.445C854.693 310.445 873.129 328.811 873.129 351.499Z" fill="white"/>
<path d="M836.12 328.188C835.773 328.119 834.04 327.842 831.996 327.842C829.951 327.842 828.218 328.119 827.872 328.188C827.664 328.223 827.595 328.015 827.733 327.911C827.872 327.808 831.996 324.66 831.996 324.66C831.996 324.66 836.12 327.808 836.258 327.911C836.397 328.015 836.328 328.223 836.12 328.188ZM828.981 348.525C828.981 348.525 828.773 348.594 828.704 348.802C829.57 349.459 830.159 350.981 831.961 350.981C833.763 350.981 834.352 349.459 835.219 348.802C835.149 348.594 834.941 348.525 834.941 348.525C834.941 348.525 833.798 348.802 831.961 348.802C830.124 348.802 828.981 348.525 828.981 348.525ZM831.961 346C831.476 346 831.337 345.827 831.025 345.827C830.714 345.827 830.055 346.104 829.917 346.311C829.917 346.415 829.986 346.519 830.055 346.623C830.783 346.726 831.129 347.141 831.961 347.141C832.793 347.141 833.139 346.726 833.867 346.623C833.971 346.519 834.006 346.415 834.006 346.311C833.867 346.069 833.243 345.827 832.897 345.827C832.585 345.793 832.481 346 831.961 346ZM873.061 353.747C872.992 354.716 872.923 355.719 872.819 356.653C868.175 357.414 866.512 353.298 861.729 353.471C862.007 354.474 862.249 355.511 862.423 356.549C866.373 356.549 867.933 360.215 872.334 359.662C872.091 360.769 871.814 361.875 871.502 362.982C868.037 363.328 866.824 359.904 862.804 359.973C862.838 360.561 862.838 361.114 862.838 361.702C862.838 362.014 862.838 362.359 862.804 362.671C866.234 362.636 867.343 365.784 870.601 365.645C870.185 366.752 869.735 367.824 869.249 368.896C866.893 368.758 866.096 365.784 862.561 366.026C862.457 366.787 862.319 367.547 862.145 368.308C865.23 368.101 865.888 370.937 868.106 371.144C867.551 372.182 866.928 373.185 866.304 374.153C864.987 373.462 863.843 371.352 861.383 371.214C861.625 370.418 861.868 369.623 862.041 368.827C859.823 368.827 857.328 367.962 855.214 366.06C855.907 362.152 849.843 358.209 849.843 355.338C849.843 352.26 851.402 350.531 851.402 346.346C851.402 343.233 849.878 339.878 847.625 337.596C847.175 337.146 846.724 336.8 846.204 336.454C848.283 339.048 849.912 342.092 849.912 345.654C849.912 349.597 848.076 351.672 848.076 355.304C848.076 358.935 853.412 362.083 853.412 365.818C853.412 367.305 852.927 368.723 851.402 371.559C853.794 373.946 856.912 375.226 858.922 375.226C859.581 375.226 859.927 375.018 860.17 374.534C860.378 374.084 860.551 373.635 860.724 373.185C862.873 373.254 863.878 375.226 865.056 376.021C864.398 376.886 863.705 377.75 862.977 378.581C862.18 377.681 861.106 376.194 859.512 375.779C859.234 376.332 858.922 376.851 858.611 377.405C859.962 377.785 860.898 379.134 861.625 380.033C860.863 380.829 860.031 381.59 859.2 382.35C858.68 381.555 857.848 380.517 856.947 379.929L855.907 381.278C856.704 381.797 857.363 382.765 857.813 383.526C856.843 384.322 855.838 385.048 854.799 385.74C854.279 381.555 848.595 378.719 850.12 373.877C849.6 374.741 849.011 375.814 849.011 377.093C849.011 380.587 852.754 383.388 853.031 386.847C852.269 387.296 851.472 387.746 850.64 388.161C850.501 384.322 846.551 380.137 846.551 377.024C846.551 373.531 851.16 370.003 851.16 365.853C851.16 361.702 845.858 358.832 845.858 355.2C845.858 351.569 848.11 349.493 848.11 344.824C848.11 341.4 846.481 337.976 843.986 335.763C843.536 335.382 843.12 335.071 842.565 334.794C844.922 337.63 846.308 340.19 846.308 344.098C846.308 348.49 843.709 350.911 843.709 355.2C843.709 359.489 848.907 361.875 848.907 365.853C848.907 369.83 844.056 373.22 844.056 377.335C844.056 381.071 848.318 384.806 848.387 389.233C847.452 389.648 846.516 390.029 845.546 390.34C846.1 385.878 841.283 381.244 841.283 377.578C841.283 373.6 846.308 370.141 846.308 365.853C846.308 361.564 841.214 359.558 841.214 355.131C841.214 350.704 844.367 348.248 844.367 343.372C844.367 339.567 842.496 336.143 839.724 334.033C839.654 333.999 839.62 333.929 839.551 333.895C839.308 333.687 839.065 333.929 839.273 334.172C841.214 336.593 842.254 339.048 842.254 342.68C842.254 347.141 838.649 350.773 838.649 355.096C838.649 360.215 843.501 361.668 843.501 365.853C843.501 370.038 838.303 373.393 838.303 377.854C838.303 381.97 843.224 386.57 842.358 391.308C841.387 391.55 840.382 391.793 839.377 391.965C840.313 386.051 835.496 381.762 835.496 377.889C835.496 373.704 840.867 369.934 840.867 365.853C840.867 361.979 837.021 360.734 836.501 356.757C836.432 356.203 835.981 355.823 835.392 355.926C834.595 356.065 833.59 356.584 832.03 356.584C830.436 356.584 829.466 356.065 828.669 355.926C828.08 355.823 827.629 356.238 827.56 356.757C827.04 360.734 823.194 361.979 823.194 365.853C823.194 369.969 828.565 373.704 828.565 377.889C828.565 381.762 823.748 386.017 824.684 391.965C823.679 391.793 822.674 391.55 821.703 391.308C820.872 386.535 825.758 381.97 825.758 377.854C825.758 373.393 820.56 370.038 820.56 365.853C820.56 361.668 825.411 360.215 825.411 355.096C825.411 350.773 821.807 347.141 821.807 342.68C821.807 339.048 822.847 336.593 824.788 334.172C824.961 333.929 824.753 333.722 824.51 333.895C824.441 333.929 824.406 333.999 824.337 334.033C821.599 336.143 819.693 339.567 819.693 343.372C819.693 348.248 822.847 350.704 822.847 355.131C822.847 359.558 817.753 361.564 817.753 365.853C817.753 370.141 822.778 373.6 822.778 377.578C822.778 381.244 817.961 385.844 818.515 390.34C817.545 389.994 816.609 389.648 815.674 389.233C815.743 384.806 820.005 381.071 820.005 377.335C820.005 373.22 815.154 369.865 815.154 365.853C815.154 361.841 820.352 359.489 820.352 355.2C820.352 350.911 817.753 348.49 817.753 344.098C817.753 340.19 819.139 337.63 821.495 334.794C820.976 335.071 820.525 335.382 820.075 335.763C817.58 337.976 815.951 341.435 815.951 344.824C815.951 349.493 818.203 351.569 818.203 355.2C818.203 358.832 812.901 361.702 812.901 365.853C812.901 370.003 817.51 373.496 817.51 377.024C817.51 380.171 813.56 384.356 813.421 388.161C812.624 387.746 811.827 387.331 811.03 386.847C811.342 383.353 815.084 380.587 815.084 377.093C815.084 375.814 814.495 374.741 813.975 373.877C815.5 378.719 809.817 381.59 809.297 385.74C808.257 385.048 807.252 384.322 806.282 383.526C806.733 382.765 807.426 381.797 808.188 381.278C807.842 380.829 807.46 380.414 807.149 379.929C806.213 380.483 805.416 381.52 804.896 382.35C804.064 381.624 803.233 380.829 802.47 380.033C803.198 379.134 804.134 377.75 805.485 377.405C805.173 376.886 804.861 376.332 804.584 375.779C802.99 376.194 801.916 377.681 801.119 378.581C800.391 377.75 799.698 376.92 799.039 376.021C800.252 375.226 801.223 373.289 803.406 373.185C803.579 373.635 803.787 374.084 803.96 374.534C804.203 375.053 804.549 375.226 805.208 375.226C807.218 375.226 810.337 373.911 812.728 371.559C811.168 368.723 810.718 367.305 810.718 365.818C810.718 362.083 816.055 358.935 816.055 355.304C816.055 351.672 814.218 349.597 814.218 345.654C814.218 342.092 815.812 339.048 817.926 336.454C817.406 336.766 816.956 337.146 816.505 337.596C814.218 339.878 812.728 343.268 812.728 346.346C812.728 350.531 814.287 352.226 814.287 355.338C814.287 358.209 808.223 362.152 808.916 366.06C806.802 367.997 804.272 368.827 802.054 368.827C802.262 369.623 802.47 370.418 802.713 371.214C800.218 371.352 799.074 373.462 797.792 374.153C797.133 373.185 796.544 372.182 795.99 371.144C798.208 370.902 798.866 368.066 801.95 368.308C801.777 367.547 801.638 366.787 801.534 366.026C797.965 365.784 797.168 368.793 794.846 368.896C794.361 367.824 793.91 366.752 793.495 365.645C796.752 365.784 797.861 362.636 801.257 362.671V361.702C801.257 361.114 801.292 360.561 801.292 359.973C797.272 359.869 796.059 363.328 792.594 362.982C792.282 361.91 792.004 360.803 791.762 359.662C796.128 360.215 797.722 356.514 801.673 356.549C801.846 355.511 802.089 354.474 802.366 353.471C797.584 353.263 795.92 357.414 791.277 356.653C791.138 355.684 791.069 354.716 790.999 353.747C796.406 354.335 798.45 349.908 803.371 350.462C803.822 349.286 804.376 348.144 805 347.038C798.831 345.966 796.717 351.119 790.965 350.323C791.45 328.188 809.644 310.445 831.961 310.445C854.313 310.445 872.472 328.188 873.096 350.358C867.343 351.154 865.23 346 859.061 347.072C859.685 348.179 860.205 349.32 860.69 350.496C865.611 349.908 867.621 354.37 873.061 353.747ZM814.287 336.523C811.272 335.278 807.599 335.59 804.445 337.596C803.96 334.69 802.366 332.096 800.114 330.54C799.802 330.332 799.49 330.54 799.49 330.886C799.975 337.042 796.371 342.369 791.935 347.072C796.51 348.456 800.391 342.576 806.282 344.617C808.465 341.469 811.168 338.702 814.287 336.523ZM831.961 332.823C828.149 332.823 824.926 334.967 824.095 337.769C824.025 337.976 824.129 338.114 824.372 338.011C825.065 337.699 825.827 337.561 826.694 337.561C828.253 337.561 829.639 338.149 830.436 339.117C830.783 340.293 830.818 342.023 830.402 342.991C829.778 342.853 829.535 342.369 828.912 342.369C828.288 342.369 827.803 342.818 826.728 342.818C825.654 342.818 825.55 342.299 824.857 342.299C824.025 342.299 823.887 343.129 823.887 344.098C823.887 348.352 827.803 354.197 831.961 354.197C836.12 354.197 840.036 348.352 840.036 344.098C840.036 343.129 839.828 342.334 838.996 342.23C838.58 342.541 838.164 342.818 837.194 342.818C836.12 342.818 835.842 342.369 835.219 342.369C834.456 342.369 834.526 343.96 833.625 344.063C833.035 342.645 833.001 340.778 833.486 339.152C834.283 338.149 835.669 337.596 837.229 337.596C838.06 337.596 838.857 337.734 839.551 338.045C839.793 338.149 839.897 338.011 839.828 337.803C838.996 334.967 835.773 332.823 831.961 332.823ZM838.06 338.91C837.125 338.91 836.085 339.187 835.392 339.948C835.323 340.155 835.323 340.466 835.427 340.639C837.09 340.086 838.546 340.051 839.273 340.847C839.654 340.501 839.758 340.19 839.758 339.844C839.758 339.29 839.169 338.91 838.06 338.91ZM824.684 340.847C825.481 340.051 827.179 340.086 828.912 340.708C828.981 339.844 827.421 338.875 825.862 338.875C824.718 338.875 824.164 339.256 824.164 339.809C824.199 340.19 824.303 340.501 824.684 340.847ZM851.021 326.459C848.006 326.666 845.372 327.704 843.259 329.433C844.16 326.874 845.303 324.66 846.759 322.516C842.912 322.931 839.724 324.314 837.367 326.736L835.531 321.928L839.585 318.331L834.144 317.951L831.961 312.901L829.778 317.951L824.337 318.331L828.392 321.928L826.555 326.736C824.199 324.349 821.01 322.931 817.164 322.516C818.619 324.66 819.763 326.908 820.664 329.433C818.55 327.704 815.916 326.666 812.901 326.459C814.703 328.776 816.297 331.266 817.51 333.929C817.649 334.241 817.926 334.345 818.238 334.172C822.362 332.131 827.006 330.955 831.961 330.955C836.882 330.955 841.526 332.096 845.684 334.172C845.996 334.345 846.273 334.241 846.412 333.929C847.59 331.266 849.219 328.776 851.021 326.459ZM857.606 344.617C863.531 342.576 867.413 348.421 871.987 347.072C867.551 342.369 863.947 337.042 864.432 330.886C864.467 330.54 864.121 330.332 863.843 330.54C861.591 332.096 859.997 334.69 859.512 337.596C856.393 335.59 852.719 335.313 849.67 336.523C852.789 338.702 855.457 341.469 857.606 344.617Z" fill="#00643C"/>
<path d="M856.217 389.614H854.762V389.061H858.331V389.614H856.841V393.557H856.217V389.614Z" fill="#00643C"/>
<path d="M862.665 389.061H863.635V393.557H863.011V389.787H862.976L861.486 393.557H861.07L859.546 389.787V393.557H858.922V389.061H859.927L861.278 392.519H861.313L862.665 389.061Z" fill="#00643C"/>
<rect x="1008" y="288" width="320" height="128" rx="16" fill="#F9F9F9" fill-opacity="0.08"/>
<path d="M1194.65 367.659C1193.65 369.994 1192.47 372.142 1191.1 374.117C1189.23 376.81 1187.7 378.674 1186.53 379.709C1184.7 381.408 1182.74 382.278 1180.65 382.327C1179.14 382.327 1177.33 381.894 1175.22 381.016C1173.1 380.142 1171.15 379.709 1169.37 379.709C1167.5 379.709 1165.5 380.142 1163.36 381.016C1161.22 381.894 1159.49 382.352 1158.17 382.398C1156.16 382.484 1154.15 381.589 1152.15 379.709C1150.88 378.583 1149.28 376.653 1147.37 373.919C1145.32 371 1143.63 367.614 1142.31 363.754C1140.9 359.585 1140.19 355.548 1140.19 351.64C1140.19 347.163 1141.14 343.301 1143.06 340.066C1144.56 337.466 1146.57 335.416 1149.07 333.911C1151.58 332.406 1154.29 331.639 1157.21 331.59C1158.8 331.59 1160.9 332.089 1163.5 333.071C1166.09 334.055 1167.75 334.555 1168.49 334.555C1169.03 334.555 1170.88 333.971 1174.02 332.807C1176.98 331.727 1179.49 331.28 1181.54 331.456C1187.09 331.91 1191.27 334.125 1194.04 338.117C1189.07 341.163 1186.62 345.429 1186.66 350.901C1186.71 355.164 1188.24 358.711 1191.24 361.528C1192.6 362.835 1194.12 363.845 1195.82 364.563C1195.45 365.639 1195.06 366.67 1194.65 367.659ZM1181.91 316.934C1181.91 320.275 1180.7 323.395 1178.3 326.282C1175.39 329.715 1171.88 331.698 1168.07 331.385C1168.02 330.965 1168 330.542 1168 330.119C1168 326.912 1169.38 323.479 1171.83 320.673C1173.05 319.252 1174.61 318.07 1176.5 317.128C1178.38 316.199 1180.16 315.686 1181.84 315.598C1181.89 316.044 1181.91 316.491 1181.91 316.934Z" fill="black"/>
<rect x="1344" y="288" width="320" height="128" rx="16" fill="#F9F9F9" fill-opacity="0.08"/>
<path d="M1412.56 358.321C1412.56 360.6 1413.05 362.349 1413.7 363.408C1414.56 364.794 1415.83 365.382 1417.13 365.382C1418.8 365.382 1420.33 364.964 1423.27 360.866C1425.64 357.58 1428.42 352.969 1430.29 350.078L1433.46 345.18C1435.67 341.778 1438.22 337.997 1441.14 335.434C1443.52 333.342 1446.1 332.18 1448.69 332.18C1453.04 332.18 1457.18 334.714 1460.35 339.466C1463.82 344.671 1465.51 351.227 1465.51 357.993C1465.51 362.015 1464.72 364.971 1463.38 367.305C1462.08 369.563 1459.55 371.819 1455.3 371.819V365.382C1458.94 365.382 1459.85 362.019 1459.85 358.172C1459.85 352.689 1458.58 346.604 1455.78 342.256C1453.79 339.172 1451.21 337.287 1448.38 337.287C1445.31 337.287 1442.85 339.612 1440.08 343.756C1438.6 345.958 1437.09 348.642 1435.39 351.67L1433.52 355.001C1429.76 361.698 1428.81 363.223 1426.93 365.741C1423.64 370.149 1420.83 371.819 1417.13 371.819C1412.73 371.819 1409.96 369.908 1408.24 367.027C1406.83 364.68 1406.14 361.6 1406.14 358.091L1412.56 358.321Z" fill="#0081FB"/>
<path d="M1411.2 339.921C1414.14 335.365 1418.39 332.18 1423.25 332.18C1426.07 332.18 1428.87 333.018 1431.8 335.419C1435 338.045 1438.41 342.368 1442.66 349.492L1444.19 352.049C1447.87 358.217 1449.96 361.391 1451.19 362.887C1452.77 364.809 1453.87 365.382 1455.31 365.382C1458.95 365.382 1459.86 362.019 1459.86 358.172L1465.51 357.993C1465.51 362.015 1464.72 364.971 1463.38 367.305C1462.08 369.563 1459.56 371.819 1455.31 371.819C1452.66 371.819 1450.32 371.242 1447.73 368.787C1445.74 366.903 1443.42 363.555 1441.63 360.546L1436.3 351.605C1433.63 347.118 1431.18 343.773 1429.76 342.258C1428.24 340.629 1426.28 338.661 1423.15 338.661C1420.61 338.661 1418.46 340.448 1416.66 343.181L1411.2 339.921Z" fill="url(#paint0_linear_2220_3009)"/>
<path d="M1423.14 338.661C1420.61 338.661 1418.46 340.448 1416.66 343.181C1414.12 347.044 1412.56 352.796 1412.56 358.321C1412.56 360.6 1413.05 362.349 1413.7 363.408L1408.24 367.027C1406.83 364.68 1406.14 361.6 1406.14 358.091C1406.14 351.709 1407.89 345.057 1411.2 339.921C1414.14 335.365 1418.38 332.18 1423.25 332.18L1423.14 338.661Z" fill="url(#paint1_linear_2220_3009)"/>
<path d="M1477.98 333.434H1485.39L1498.01 356.371L1510.62 333.434H1517.88V371.122H1511.82V342.237L1500.76 362.24H1495.09L1484.03 342.237V371.122H1477.98V333.434ZM1536.83 347.486C1532.5 347.486 1529.88 350.769 1529.26 354.835H1543.98C1543.68 350.647 1541.28 347.486 1536.83 347.486ZM1523.26 357.151C1523.26 348.596 1528.76 342.37 1536.94 342.37C1544.99 342.37 1549.8 348.517 1549.8 357.608V359.278H1529.26C1529.99 363.701 1532.9 366.681 1537.61 366.681C1541.37 366.681 1543.71 365.529 1545.94 363.423L1549.15 367.381C1546.12 370.18 1542.27 371.795 1537.4 371.795C1528.54 371.795 1523.26 365.301 1523.26 357.151ZM1557.13 348.026H1551.56V343.045H1557.13V334.807H1562.97V343.045H1571.43V348.026H1562.97V360.65C1562.97 364.961 1564.34 366.492 1567.71 366.492C1569.25 366.492 1570.13 366.359 1571.43 366.142V371.068C1569.81 371.529 1568.26 371.741 1566.59 371.741C1560.28 371.741 1557.13 368.279 1557.13 361.349V348.026ZM1596.02 352.869C1594.84 349.893 1592.23 347.702 1588.38 347.702C1583.39 347.702 1580.19 351.265 1580.19 357.07C1580.19 362.73 1583.13 366.465 1588.14 366.465C1592.08 366.465 1594.89 364.162 1596.02 361.296V352.869ZM1601.85 371.122H1596.12V367.192C1594.52 369.506 1591.61 371.795 1586.88 371.795C1579.29 371.795 1574.22 365.405 1574.22 357.07C1574.22 348.656 1579.41 342.37 1587.21 342.37C1591.06 342.37 1594.08 343.918 1596.12 346.652V343.045H1601.85V371.122Z" fill="#192830"/>
<defs>
<linearGradient id="paint0_linear_2220_3009" x1="1418.74" y1="356.462" x2="1459.62" y2="358.515" gradientUnits="userSpaceOnUse">
<stop stop-color="#0064E1"/>
<stop offset="0.4" stop-color="#0064E1"/>
<stop offset="0.83" stop-color="#0073EE"/>
<stop offset="1" stop-color="#0082FB"/>
</linearGradient>
<linearGradient id="paint1_linear_2220_3009" x1="1415.43" y1="361.027" x2="1415.43" y2="345.877" gradientUnits="userSpaceOnUse">
<stop stop-color="#0082FB"/>
<stop offset="1" stop-color="#0064E0"/>
</linearGradient>
<clipPath id="clip0_2220_3009">
<rect width="200" height="53" fill="white" transform="translate(395.996 37)"/>
</clipPath>
<clipPath id="clip1_2220_3009">
<rect width="188" height="78" fill="white" transform="translate(1074 25)"/>
</clipPath>
<clipPath id="clip2_2220_3009">
<rect width="200" height="67" fill="white" transform="translate(563.996 174)"/>
</clipPath>
</defs>
</svg>
