<svg width="32" height="32" viewBox="0 0 32 32" fill="none" xmlns="http://www.w3.org/2000/svg">
<path d="M24.7627 2.83467L16.4174 0.068C16.1467 -0.0226667 15.8494 -0.0226667 15.5787 0.068L7.2334 2.83467C4.50006 3.74133 2.66406 6.284 2.66406 9.16267V16.0573C2.66406 24.808 12.0041 30.16 14.8667 31.5907C14.8667 31.5907 15.4894 32 16.0001 32C16.5107 32 17.0547 31.68 17.0547 31.68C19.9347 30.5213 29.3307 25.972 29.3307 16.0573V9.16267C29.3307 6.284 27.4961 3.74133 24.7627 2.83467ZM17.3321 15.7213V20C17.3321 20.7373 16.7361 21.3333 15.9987 21.3333C15.2614 21.3333 14.6654 20.7373 14.6654 20V15.7213C13.4881 15.2067 12.6654 14.0333 12.6654 12.6667C12.6654 10.8253 14.1574 9.33333 15.9987 9.33333C17.8401 9.33333 19.3321 10.8253 19.3321 12.6667C19.3321 14.0333 18.5094 15.208 17.3321 15.7213Z" fill="black"/>
</svg>
