<svg width="32" height="32" viewBox="0 0 32 32" fill="none" xmlns="http://www.w3.org/2000/svg">
<g clip-path="url(#clip0_267_1837)">
<path d="M17.268 25.3787L14.8173 22.772C14.5813 22.5187 14.3733 22.2467 14.1907 21.9627C13.824 22.3933 13.2773 22.668 12.6667 22.668C11.5627 22.668 10.6667 21.772 10.6667 20.668C10.6667 19.564 11.5627 18.668 12.6667 18.668C12.892 18.668 13.108 18.7053 13.3107 18.7747C13.3173 18.568 13.3347 18.3613 13.364 18.1533C13.6013 16.472 14.5787 14.9987 16.0467 14.1133C17.2427 13.392 18.656 13.18 20.0013 13.4493V12.0013C20.0013 8.32534 17.0107 5.33468 13.3347 5.33468H2.66667C2.66667 3.86801 3.86667 2.66801 5.33333 2.66801H11.2533C10.3333 1.08134 8.62667 0.00134333 6.66667 0.00134333H5.33333C2.38667 9.99856e-06 0 2.38668 0 5.33334V26.6667C0 29.6133 2.38667 32 5.33333 32H6.66667C8.62667 32 10.3333 30.92 11.2533 29.3333H5.33333C3.86667 29.3333 2.66667 28.1333 2.66667 26.6667H13.3333C14.804 26.6667 16.164 26.188 17.268 25.3787ZM12.6667 9.33334C13.7707 9.33334 14.6667 10.2293 14.6667 11.3333C14.6667 12.4373 13.7707 13.3333 12.6667 13.3333C11.5627 13.3333 10.6667 12.4373 10.6667 11.3333C10.6667 10.2293 11.5627 9.33334 12.6667 9.33334ZM4.34933 21.0613C3.52 21.3373 2.66667 20.676 2.66667 19.8013C2.66667 19.2467 2.98267 18.7053 3.50933 18.5307C4.568 18.1773 5.33333 17.176 5.33333 16C5.33333 14.824 4.568 13.8227 3.50933 13.4693C2.984 13.2933 2.66667 12.7533 2.66667 12.1987C2.66667 11.324 3.52 10.6613 4.34933 10.9387C6.468 11.6453 8 13.6467 8 16C8 18.3533 6.468 20.3547 4.34933 21.0613ZM32.0253 15.3613V25.3333C32.0253 26.0693 31.428 26.6667 30.692 26.6667H25.5987C23.392 26.6667 21.2827 25.7547 19.7707 24.1467L16.76 20.944C15.5147 19.6013 15.7627 17.3973 17.424 16.3947C18.504 15.744 19.8973 15.928 20.876 16.7213L23.948 19.1053C24.5293 19.5573 25.3667 19.452 25.8187 18.8693C26.2707 18.288 26.1653 17.4507 25.5827 16.9987L22.6667 14.7347V11.9973C22.6667 10.5707 22.344 9.21734 21.7693 8.00534C24.4707 8.10668 27.0387 9.22934 28.948 11.156L31.3147 13.5453C31.772 14.0387 32.0253 14.6853 32.0253 15.3587V15.3613Z" fill="black"/>
</g>
<defs>
<clipPath id="clip0_267_1837">
<rect width="32" height="32" fill="white"/>
</clipPath>
</defs>
</svg>
