<svg width="32" height="32" viewBox="0 0 32 32" fill="none" xmlns="http://www.w3.org/2000/svg">
<g clip-path="url(#clip0_267_1853)">
<path d="M16.0466 0.809326C13.0753 0.809326 10.3019 1.66266 7.9705 3.12552L18.4239 13.5942L18.4391 9.41885C18.4391 8.79409 18.9572 8.27599 19.582 8.27599C20.222 8.27599 20.7249 8.79409 20.7249 9.41885L20.7096 16.3521C20.7096 16.8246 20.4199 17.2361 19.9934 17.4037C19.8561 17.4646 19.7039 17.495 19.5668 17.495C19.262 17.495 18.9725 17.3732 18.7591 17.1599L6.27907 4.66456C6.21812 4.60361 6.1724 4.54266 6.12669 4.48171C2.86574 7.28552 0.808594 11.4303 0.808594 16.0473C0.808594 24.4589 7.63526 31.2854 16.0466 31.2854C19.018 31.2854 21.7915 30.4321 24.123 28.9692L13.6696 18.5008L13.6544 22.6759C13.6544 23.3007 13.1363 23.8188 12.5115 23.8188C11.8715 23.8188 11.3686 23.3007 11.3686 22.6759L11.3838 15.7427C11.3838 15.2702 11.6734 14.8589 12.1 14.6913C12.5114 14.5084 13.0144 14.5999 13.3344 14.9351L25.8142 27.4302C25.8753 27.4913 25.9209 27.5521 25.9668 27.6132C29.2276 24.8092 31.2847 20.6645 31.2847 16.0473C31.2847 7.63599 24.4582 0.809326 16.0466 0.809326Z" fill="black"/>
</g>
<defs>
<clipPath id="clip0_267_1853">
<rect width="32" height="32" fill="white"/>
</clipPath>
</defs>
</svg>
