<svg width="48" height="48" viewBox="0 0 48 48" fill="none" xmlns="http://www.w3.org/2000/svg">
<g clip-path="url(#clip0_2121_12698)">
<mask id="mask0_2121_12698" style="mask-type:luminance" maskUnits="userSpaceOnUse" x="0" y="0" width="48" height="48">
<path d="M0 0H48V48H0V0Z" fill="white"/>
</mask>
<g mask="url(#mask0_2121_12698)">
<path d="M0 14.4004H48C48 12.9509 47.1175 11.6474 45.7716 11.1091L25.337 2.93521C24.4788 2.59191 23.5213 2.59191 22.663 2.93521L2.22834 11.1091C0.882502 11.6474 0 12.9509 0 14.4004Z" fill="#BD0318"/>
<path fill-rule="evenodd" clip-rule="evenodd" d="M0 19.2012L4.1832e-05 21.6012C4.1832e-05 22.9267 1.07465 24.0012 2.40005 24.0012V40.8012C1.07465 40.8012 4.1832e-05 41.8757 4.1832e-05 43.2012C4.1832e-05 44.5267 1.07465 45.6012 2.40005 45.6012H45.6C46.9255 45.6012 48 44.5267 48 43.2012C48 41.8757 46.9255 40.8012 45.6 40.8012V24.0012C46.9255 24.0012 48 22.9267 48 21.6012V19.2012H0ZM9.6 24.0012H14.4V40.8012H9.6V24.0012ZM26.4 24.0012H21.6V40.8012H26.4V24.0012ZM33.6 24.0012H38.4V40.8012H33.6V24.0012Z" fill="#BD0318"/>
</g>
</g>
<defs>
<clipPath id="clip0_2121_12698">
<rect width="48" height="48" fill="white"/>
</clipPath>
</defs>
</svg>
