<svg width="48" height="48" viewBox="0 0 48 48" fill="none" xmlns="http://www.w3.org/2000/svg">
<g clip-path="url(#clip0_2121_12705)">
<path d="M33.9375 0H14.0625C6.3 0 0 6.3 0 14.0625V33.9375C0 41.7 6.3 48 14.0625 48H33.9375C41.7 48 48 41.7 48 33.9375V14.0625C48 6.3 41.7 0 33.9375 0ZM26.1281 38.85L14.4562 27.1781L11.2781 30.3562V19.7531H21.8812L18.7031 22.9313L30.375 34.6031L26.1281 38.85ZM36.7312 28.2375H26.1281L29.3063 25.0594L17.6344 13.3969L21.8812 9.15L33.5531 20.8125L36.7312 17.6344V28.2375Z" fill="#BD0318"/>
</g>
<defs>
<clipPath id="clip0_2121_12705">
<rect width="48" height="48" fill="white"/>
</clipPath>
</defs>
</svg>
