<svg width="32" height="32" viewBox="0 0 32 32" fill="none" xmlns="http://www.w3.org/2000/svg">
<path d="M10 4H22V28H10V4Z" fill="white"/>
<path d="M5 4H11V28H5C2.792 28 1 26.208 1 24V8C1 5.792 2.792 4 5 4Z" fill="#2C6748"/>
<path d="M27 28H21L21 4H27C29.208 4 31 5.792 31 8L31 24C31 26.208 29.208 28 27 28Z" fill="#BE2A2C"/>
<path opacity="0.15" d="M27 4H5C2.791 4 1 5.791 1 8V24C1 26.209 2.791 28 5 28H27C29.209 28 31 26.209 31 24V8C31 5.791 29.209 4 27 4ZM30 24C30 25.654 28.654 27 27 27H5C3.346 27 2 25.654 2 24V8C2 6.346 3.346 5 5 5H27C28.654 5 30 6.346 30 8V24Z" fill="black"/>
<path opacity="0.2" d="M27 5H5C3.343 5 2 6.343 2 8V9C2 7.343 3.343 6 5 6H27C28.657 6 30 7.343 30 9V8C30 6.343 28.657 5 27 5Z" fill="white"/>
<path d="M18.701 18.6113C18.239 17.9213 17.961 18.9303 17.486 18.8633C17.611 18.0533 16.708 18.3633 16.29 18.5513L16.455 18.3103C15.83 18.6013 15.087 17.5983 14.639 18.3383C14.544 18.1333 13.757 17.6493 13.438 18.0103C13.463 16.9933 11.715 17.0533 12.631 18.0913C13.261 18.2703 13.606 19.0553 14.546 18.6453C14.675 19.1753 15.571 19.2283 15.959 18.9423C15.907 19.1033 15.932 19.5643 15.918 19.6573C16.397 20.0413 16.403 19.4343 16.74 19.2433C17.229 18.9933 19.015 19.7453 18.7 18.6123L18.701 18.6113Z" fill="#3B8288"/>
<path d="M14.625 17.2637C14.625 17.2637 14.63 17.2674 14.64 17.2724C14.6313 17.2674 14.625 17.2637 14.625 17.2637Z" fill="#A27037"/>
<path d="M18.215 13.0185C18.217 12.5215 14.595 11.4645 15.689 13.0865C15.431 13.1235 14.998 12.9365 14.977 12.7345C14.992 12.7745 14.867 12.9825 14.826 13.0015C14.82 12.9015 14.796 12.8095 14.796 12.8095V12.8135C14.671 12.5035 14.768 13.2465 14.547 13.1835C14.623 13.1545 14.553 12.8195 14.495 12.8635C14.532 12.8875 14.448 13.2735 14.374 13.2905C14.419 13.2255 14.332 12.9665 14.312 13.0185C14.375 13.2815 13.862 13.5895 13.936 13.7195C13.6 13.8385 13.455 14.6655 14.056 14.4765C13.8 14.3425 13.921 14.0075 14.228 14.0425C14.214 14.0395 14.271 14.0635 14.255 14.0745C14.334 14.4455 14.74 14.0025 14.9 13.9465C14.731 14.8885 14.298 15.7825 15.188 16.7195C14.893 16.4085 14.839 16.7735 15.172 16.8825C14.971 16.8925 14.741 17.0875 15.087 17.1955C15.016 17.2675 14.742 17.0585 14.892 17.2045C14.889 17.2035 14.886 17.2015 14.883 17.2005C14.883 17.2005 14.885 17.2025 14.889 17.2055C14.317 17.1805 14.864 17.4055 15.103 17.4275C14.909 17.7325 15.585 17.4505 15.651 17.4435C15.784 17.7785 15.889 17.4755 15.859 17.2265C15.954 17.3355 16.049 17.4435 16.146 17.5505C16.298 17.5915 16.464 18.2685 16.578 17.9155C16.582 17.9015 16.584 17.8875 16.586 17.8735C16.812 18.1275 16.92 18.2235 16.821 17.8205C16.944 18.0225 17.054 18.0805 17.022 17.8165C17.208 18.0115 17.159 17.7465 17.14 17.6105C17.319 18.3215 19.125 18.1715 18.939 17.6935C18.627 17.3895 16.645 16.2785 17.157 15.5845C17.351 15.6835 18.313 16.8885 17.895 16.1835C17.524 15.2185 18.211 16.1835 18.313 16.5415C18.543 16.9565 18.185 15.8175 18.109 15.7775C18.744 16.5705 18.685 17.2685 18.484 15.8045C18.509 15.8525 18.55 15.8905 18.6 15.9095C18.563 15.8355 18.52 15.8065 18.496 15.7955C18.535 15.8045 18.583 15.8635 18.603 15.9105C18.602 15.9105 18.601 15.9105 18.6 15.9095C18.939 17.7125 19.062 17.4035 18.849 15.7775C19.361 17.7975 19.289 17.7855 19.233 15.7405C19.6 16.2665 19.336 17.3645 19.493 17.8655C19.767 17.2815 19.669 15.5645 19.848 15.1045C19.511 14.7845 18.735 13.0925 18.217 13.0195L18.215 13.0185ZM15.326 17.2575C15.326 17.2575 15.326 17.2565 15.326 17.2555H15.328C15.328 17.2555 15.327 17.2565 15.326 17.2575Z" fill="#A27037"/>
<path d="M14.713 16.5856C14.792 15.9446 14.214 16.0326 13.799 16.0316C12.988 15.3516 15.322 14.7776 14.231 14.0386H14.235C14.235 14.0386 14.227 14.0366 14.228 14.0366L14.235 14.0386C14.235 14.0386 14.212 14.0156 14.213 14.0156C14.119 14.0306 13.978 14.0346 13.931 14.1516C13.931 14.1516 13.934 14.1536 13.937 14.1566L13.811 14.3046C13.811 14.3106 14.021 14.4516 14.012 14.4616C14.02 14.4596 14.031 14.4706 14.037 14.4746C14.147 14.8216 13.452 14.9606 13.313 15.2766C12.868 16.1906 13.686 16.4876 14.336 16.4936C13.461 17.4396 13.542 16.6316 12.954 16.0776C13.037 15.7236 13.191 15.2766 12.703 15.1296C12.706 15.0506 12.573 14.9686 12.538 15.0886C12.571 15.0546 12.452 14.9526 12.403 15.0196C12.213 14.7766 11.99 15.3886 12.325 15.3266C12.333 15.4016 12.458 15.3666 12.477 15.3496C12.474 15.4446 12.619 15.4346 12.638 15.3746C12.968 15.5656 12.492 15.9226 12.639 16.2216C12.834 16.5816 13.187 16.7266 13.198 17.1996C13.488 17.6736 14.674 17.0466 14.704 16.7126C14.709 16.6736 14.711 16.6316 14.714 16.5896L14.713 16.5856ZM14.459 14.6346C14.459 14.6346 14.463 14.6386 14.464 14.6396C14.464 14.6396 14.46 14.6366 14.458 14.6346H14.459Z" fill="#A9AC78"/>
<path d="M13.7478 13.9367C13.7528 13.9577 13.2888 14.0617 13.3558 13.8557C13.4438 13.8837 13.8538 13.5847 13.6878 13.6187C13.2298 13.9317 13.3808 13.5457 13.5318 13.2797C13.5768 13.2947 13.5838 13.5157 13.5598 13.5297C13.6928 13.4407 13.6368 12.9567 13.4508 13.2087C13.2688 13.1357 12.7808 13.6097 13.0538 13.8037C12.9578 14.2227 13.2868 14.3997 13.6388 14.3107L13.6408 14.3047H13.6718C13.6198 14.2977 13.7488 13.9607 13.7478 13.9377V13.9367Z" fill="#A9AC78"/>
</svg>
