<svg width="32" height="32" viewBox="0 0 32 32" fill="none" xmlns="http://www.w3.org/2000/svg">
<path d="M27 4H5C2.79086 4 1 5.79086 1 8V24C1 26.2091 2.79086 28 5 28H27C29.2091 28 31 26.2091 31 24V8C31 5.79086 29.2091 4 27 4Z" fill="white"/>
<path d="M1 8H31V12H1V8Z" fill="#1433B3"/>
<path d="M1 20H31V24H1V20Z" fill="#1433B3"/>
<path opacity="0.15" d="M27 4H5C2.791 4 1 5.791 1 8V24C1 26.209 2.791 28 5 28H27C29.209 28 31 26.209 31 24V8C31 5.791 29.209 4 27 4ZM30 24C30 25.654 28.654 27 27 27H5C3.346 27 2 25.654 2 24V8C2 6.346 3.346 5 5 5H27C28.654 5 30 6.346 30 8V24Z" fill="black"/>
<path d="M16 19.4632L15 17.7312H13L14 15.9992L13 14.2672H15L16 12.5352L17 14.2672H19L18 15.9992L19 17.7312H17L16 19.4632ZM15.635 17.7312L16 18.3632L16.365 17.7312H15.635ZM17.317 17.1812H18.047L17.682 16.5492L17.317 17.1812ZM15.317 17.1812H16.682L17.364 15.9992L16.682 14.8172H15.317L14.635 15.9992L15.317 17.1812ZM13.952 17.1812H14.682L14.317 16.5492L13.952 17.1812ZM17.317 14.8172L17.682 15.4492L18.047 14.8172H17.317ZM13.952 14.8172L14.317 15.4492L14.682 14.8172H13.952ZM15.634 14.2672H16.364L15.999 13.6352L15.634 14.2672Z" fill="#1437B0"/>
<path opacity="0.2" d="M27 5H5C3.343 5 2 6.343 2 8V9C2 7.343 3.343 6 5 6H27C28.657 6 30 7.343 30 9V8C30 6.343 28.657 5 27 5Z" fill="white"/>
</svg>
