<svg width="32" height="32" viewBox="0 0 32 32" fill="none" xmlns="http://www.w3.org/2000/svg">
<path d="M27 4H5C2.79086 4 1 5.79086 1 8V24C1 26.2091 2.79086 28 5 28H27C29.2091 28 31 26.2091 31 24V8C31 5.79086 29.2091 4 27 4Z" fill="white"/>
<path d="M1.63672 5.846H30.3607C29.6497 4.738 28.4137 4 26.9987 4H4.99872C3.58472 4 2.34872 4.738 1.63672 5.846Z" fill="#A62842"/>
<path d="M2.03 7.69141C2.022 7.79441 2 7.89341 2 7.99941V9.53841H31V7.99941C31 7.89441 30.978 7.79541 30.97 7.69141H2.03Z" fill="#A62842"/>
<path d="M2 11.3848H31V13.2308H2V11.3848Z" fill="#A62842"/>
<path d="M2 15.0762H31V16.9222H2V15.0762Z" fill="#A62842"/>
<path d="M1 18.7695H31V20.6155H1V18.7695Z" fill="#A62842"/>
<path d="M1 23.9999C1 24.1049 1.023 24.2039 1.031 24.3079H30.969C30.977 24.2049 31 24.1059 31 23.9999V22.4609H1V23.9999Z" fill="#A62842"/>
<path d="M30.3607 26.1543H1.63672C2.34772 27.2623 3.58372 28.0003 4.99872 28.0003H26.9987C28.4127 28.0003 29.6487 27.2623 30.3607 26.1543Z" fill="#A62842"/>
<path d="M5 4H16V16.923H1V8C1 5.792 2.792 4 5 4Z" fill="#102D5E"/>
<path opacity="0.15" d="M27 4H5C2.791 4 1 5.791 1 8V24C1 26.209 2.791 28 5 28H27C29.209 28 31 26.209 31 24V8C31 5.791 29.209 4 27 4ZM30 24C30 25.654 28.654 27 27 27H5C3.346 27 2 25.654 2 24V8C2 6.346 3.346 5 5 5H27C28.654 5 30 6.346 30 8V24Z" fill="black"/>
<path opacity="0.2" d="M27 5H5C3.343 5 2 6.343 2 8V9C2 7.343 3.343 6 5 6H27C28.657 6 30 7.343 30 9V8C30 6.343 28.657 5 27 5Z" fill="white"/>
<path d="M4.59934 7.46289L5.19134 7.03289H4.46034L4.23434 6.33789L4.00834 7.03289H3.27734L3.86834 7.46289L3.64234 8.15789L4.23434 7.72889L4.82534 8.15789L4.59934 7.46289Z" fill="white"/>
<path d="M7.58177 7.46289L8.17377 7.03289H7.44277L7.21677 6.33789L6.99077 7.03289H6.25977L6.85077 7.46289L6.62477 8.15789L7.21677 7.72889L7.80777 8.15789L7.58177 7.46289Z" fill="white"/>
<path d="M10.5613 7.46289L11.1523 7.03289H10.4213L10.1953 6.33789L9.96928 7.03289H9.23828L9.82928 7.46289L9.60428 8.15789L10.1953 7.72889L10.7863 8.15789L10.5613 7.46289Z" fill="white"/>
<path d="M6.06614 9.2832L6.65814 8.8542H5.92714L5.70114 8.1582L5.47514 8.8542H4.74414L5.33514 9.2832L5.10914 9.9792L5.70114 9.5492L6.29214 9.9792L6.06614 9.2832Z" fill="white"/>
<path d="M9.04566 9.2832L9.63666 8.8542H8.90566L8.67966 8.1582L8.45366 8.8542H7.72266L8.31366 9.2832L8.08866 9.9792L8.67966 9.5492L9.27066 9.9792L9.04566 9.2832Z" fill="white"/>
<path d="M12.0261 9.2832L12.6171 8.8542H11.8861L11.6601 8.1582L11.4341 8.8542H10.7031L11.2951 9.2832L11.0691 9.9792L11.6601 9.5492L12.2521 9.9792L12.0261 9.2832Z" fill="white"/>
<path d="M6.06614 12.9238L6.65814 12.4938H5.92714L5.70114 11.7988L5.47514 12.4938H4.74414L5.33514 12.9238L5.10914 13.6188L5.70114 13.1898L6.29214 13.6188L6.06614 12.9238Z" fill="white"/>
<path d="M9.04566 12.9238L9.63666 12.4938H8.90566L8.67966 11.7988L8.45366 12.4938H7.72266L8.31366 12.9238L8.08866 13.6188L8.67966 13.1898L9.27066 13.6188L9.04566 12.9238Z" fill="white"/>
<path d="M12.0261 12.9238L12.6171 12.4938H11.8861L11.6601 11.7988L11.4341 12.4938H10.7031L11.2951 12.9238L11.0691 13.6188L11.6601 13.1898L12.2521 13.6188L12.0261 12.9238Z" fill="white"/>
<path d="M13.5378 7.46289L14.1288 7.03289H13.3978L13.1718 6.33789L12.9458 7.03289H12.2148L12.8068 7.46289L12.5808 8.15789L13.1718 7.72889L13.7638 8.15789L13.5378 7.46289Z" fill="white"/>
<path d="M4.59934 11.1035L5.19134 10.6735H4.46034L4.23434 9.97852L4.00834 10.6735H3.27734L3.86834 11.1035L3.64234 11.7985L4.23434 11.3685L4.82534 11.7985L4.59934 11.1035Z" fill="white"/>
<path d="M7.58177 11.1035L8.17377 10.6735H7.44277L7.21677 9.97852L6.99077 10.6735H6.25977L6.85077 11.1035L6.62477 11.7985L7.21677 11.3685L7.80777 11.7985L7.58177 11.1035Z" fill="white"/>
<path d="M10.5613 11.1035L11.1523 10.6735H10.4213L10.1953 9.97852L9.96928 10.6735H9.23828L9.82928 11.1035L9.60428 11.7985L10.1953 11.3685L10.7863 11.7985L10.5613 11.1035Z" fill="white"/>
<path d="M13.5378 11.1035L14.1288 10.6735H13.3978L13.1718 9.97852L12.9458 10.6735H12.2148L12.8068 11.1035L12.5808 11.7985L13.1718 11.3685L13.7638 11.7985L13.5378 11.1035Z" fill="white"/>
<path d="M4.59934 14.7441L5.19134 14.3151H4.46034L4.23434 13.6191L4.00834 14.3151H3.27734L3.86834 14.7441L3.64234 15.4401L4.23434 15.0101L4.82534 15.4401L4.59934 14.7441Z" fill="white"/>
<path d="M7.58177 14.7441L8.17377 14.3151H7.44277L7.21677 13.6191L6.99077 14.3151H6.25977L6.85077 14.7441L6.62477 15.4401L7.21677 15.0101L7.80777 15.4401L7.58177 14.7441Z" fill="white"/>
<path d="M10.5613 14.7441L11.1523 14.3151H10.4213L10.1953 13.6191L9.96928 14.3151H9.23828L9.82928 14.7441L9.60428 15.4401L10.1953 15.0101L10.7863 15.4401L10.5613 14.7441Z" fill="white"/>
<path d="M13.5378 14.7441L14.1288 14.3151H13.3978L13.1718 13.6191L12.9458 14.3151H12.2148L12.8068 14.7441L12.5808 15.4401L13.1718 15.0101L13.7638 15.4401L13.5378 14.7441Z" fill="white"/>
</svg>
