<svg width="32" height="32" viewBox="0 0 32 32" fill="none" xmlns="http://www.w3.org/2000/svg">
<path d="M27 4H5C2.79086 4 1 5.79086 1 8V24C1 26.2091 2.79086 28 5 28H27C29.2091 28 31 26.2091 31 24V8C31 5.79086 29.2091 4 27 4Z" fill="#071B65"/>
<path d="M5.10041 4H4.99941C3.01841 4 1.38441 5.444 1.06641 7.334L26.8984 28H26.9994C28.9804 28 30.6144 26.556 30.9324 24.666L5.10041 4Z" fill="white"/>
<path d="M22.25 18.999H19.75L29.684 26.946C30.071 26.593 30.388 26.169 30.613 25.689L22.25 18.999Z" fill="#B92932"/>
<path d="M1.38672 6.30873L9.74972 12.9997H12.2497L2.31572 5.05273C1.92872 5.40573 1.61172 5.82873 1.38672 6.30873Z" fill="#B92932"/>
<path d="M4.99941 28H5.10041L30.9324 7.334C30.6144 5.443 28.9804 4 26.9994 4H26.8984L1.06641 24.666C1.38441 26.557 3.01841 28 4.99941 28Z" fill="white"/>
<path d="M19 4H13V28H19V4Z" fill="white"/>
<path d="M31 13H1V19H31V13Z" fill="white"/>
<path d="M18 4H14V28H18V4Z" fill="#B92932"/>
<path d="M31 18V14L1 14V18H31Z" fill="#B92932"/>
<path d="M28.222 4.21094L19 11.5869V13.0009H19.75L29.693 5.06094C29.274 4.67694 28.775 4.38994 28.222 4.21094Z" fill="#B92932"/>
<path d="M2.32812 26.958C2.74213 27.332 3.23213 27.614 3.77513 27.79L13.0001 20.41V19.002H12.2501L2.32812 26.958Z" fill="#B92932"/>
<path opacity="0.15" d="M27 4H5C2.791 4 1 5.791 1 8V24C1 26.209 2.791 28 5 28H27C29.209 28 31 26.209 31 24V8C31 5.791 29.209 4 27 4ZM30 24C30 25.654 28.654 27 27 27H5C3.346 27 2 25.654 2 24V8C2 6.346 3.346 5 5 5H27C28.654 5 30 6.346 30 8V24Z" fill="black"/>
<path opacity="0.2" d="M27 5H5C3.343 5 2 6.343 2 8V9C2 7.343 3.343 6 5 6H27C28.657 6 30 7.343 30 9V8C30 6.343 28.657 5 27 5Z" fill="white"/>
</svg>
