<svg width="32" height="32" viewBox="0 0 32 32" fill="none" xmlns="http://www.w3.org/2000/svg">
<path d="M1 10H31V22H1V10Z" fill="#F1C142"/>
<path d="M5 4H27C29.208 4 31 5.792 31 8V11H1V8C1 5.792 2.792 4 5 4Z" fill="#A0251E"/>
<path d="M27 28L5 28C2.792 28 1 26.208 1 24V21L31 21V24C31 26.208 29.208 28 27 28Z" fill="#A0251E"/>
<path opacity="0.15" d="M27 4H5C2.791 4 1 5.791 1 8V24C1 26.209 2.791 28 5 28H27C29.209 28 31 26.209 31 24V8C31 5.791 29.209 4 27 4ZM30 24C30 25.654 28.654 27 27 27H5C3.346 27 2 25.654 2 24V8C2 6.346 3.346 5 5 5H27C28.654 5 30 6.346 30 8V24Z" fill="black"/>
<path opacity="0.2" d="M27 5H5C3.343 5 2 6.343 2 8V9C2 7.343 3.343 6 5 6H27C28.657 6 30 7.343 30 9V8C30 6.343 28.657 5 27 5Z" fill="white"/>
<path d="M12.6126 13.0907C12.6786 13.0597 12.6676 12.9508 12.5966 12.9338C12.6536 12.8868 12.6166 12.7838 12.5416 12.7858C12.5816 12.7288 12.5296 12.6418 12.4596 12.6558C12.4806 12.5938 12.4176 12.5287 12.3556 12.5507C12.3656 12.4827 12.2846 12.4318 12.2286 12.4698C12.2326 12.4018 12.1476 12.3578 12.0946 12.4008C12.0846 12.3298 11.9846 12.3058 11.9446 12.3658C11.9306 12.2978 11.8336 12.2788 11.7956 12.3378C11.7686 12.2828 11.6816 12.2807 11.6516 12.3337C11.6216 12.2867 11.5446 12.2888 11.5156 12.3358C11.4976 12.3078 11.4586 12.2918 11.4256 12.3018C11.4346 12.2368 11.3596 12.1868 11.3036 12.2198C11.3056 12.1498 11.2166 12.1088 11.1656 12.1558C11.1526 12.0918 11.0626 12.0687 11.0216 12.1197C11.0016 12.0567 10.9076 12.0447 10.8736 12.1027C10.8376 12.0467 10.7446 12.0608 10.7266 12.1248C10.6856 12.0698 10.5916 12.0938 10.5806 12.1608C10.5696 12.1528 10.5576 12.1468 10.5436 12.1448C10.5496 12.1368 10.5536 12.1287 10.5586 12.1197H10.5606C10.6186 12.0127 10.5646 11.8637 10.4546 11.8217V11.7238H10.5536V11.5697H10.4546V11.4688H10.3036V11.5697H10.2046V11.7238H10.3036V11.8197C10.1906 11.8597 10.1346 12.0108 10.1936 12.1188H10.1956C10.1996 12.1268 10.2046 12.1357 10.2096 12.1427C10.1946 12.1447 10.1806 12.1507 10.1696 12.1597C10.1586 12.0927 10.0636 12.0687 10.0236 12.1237C10.0056 12.0597 9.91262 12.0458 9.87662 12.1018C9.84262 12.0448 9.74862 12.0558 9.72862 12.1188C9.68762 12.0668 9.59762 12.0907 9.58462 12.1547C9.53362 12.1077 9.44562 12.1487 9.44662 12.2187C9.39062 12.1857 9.31562 12.2357 9.32462 12.3007C9.29062 12.2907 9.25262 12.3068 9.23362 12.3348C9.20462 12.2878 9.12762 12.2858 9.09762 12.3328C9.06762 12.2788 8.98062 12.2817 8.95462 12.3367C8.91762 12.2777 8.81962 12.2967 8.80562 12.3647C8.76662 12.3047 8.66562 12.3277 8.65562 12.3997C8.60262 12.3567 8.51762 12.3997 8.52162 12.4687C8.46562 12.4307 8.38462 12.4818 8.39462 12.5498C8.33262 12.5288 8.26962 12.5937 8.29062 12.6547C8.24062 12.6457 8.19462 12.6878 8.19462 12.7388C8.19462 12.7558 8.19962 12.7718 8.20862 12.7858C8.13362 12.7838 8.09762 12.8868 8.15362 12.9338C8.08262 12.9508 8.07162 13.0587 8.13762 13.0907C8.07662 13.1257 8.09062 13.2287 8.15962 13.2447C8.14662 13.2597 8.13862 13.2788 8.13862 13.2998C8.13862 13.3418 8.16862 13.3767 8.20762 13.3837C8.18462 13.4317 8.21662 13.4937 8.26762 13.5017C8.25462 13.5317 8.25562 13.5747 8.25562 13.6077C8.34562 13.5887 8.45562 13.6138 8.49462 13.7178C8.47962 13.7858 8.55962 13.8738 8.63262 13.8638C8.69262 13.9488 8.76562 14.0287 8.88362 14.0607C8.86262 14.1537 8.94762 14.1537 9.00662 14.1787C8.99362 14.1947 8.96362 14.2418 8.95162 14.2598C8.97562 14.2728 9.03862 14.3007 9.06462 14.3107C9.06962 14.3297 9.06862 14.3387 9.06862 14.3417C9.15962 14.8427 11.6026 14.8437 11.6846 14.3407V14.3387C11.6846 14.3387 11.6886 14.3418 11.6886 14.3428C11.6886 14.3398 11.6876 14.3318 11.6926 14.3118L11.8106 14.2698L11.7486 14.1798C11.8046 14.1518 11.8936 14.1547 11.8716 14.0607C11.9906 14.0287 12.0646 13.9488 12.1246 13.8627C12.1976 13.8727 12.2776 13.7847 12.2626 13.7167C12.3016 13.6128 12.4126 13.5878 12.5016 13.6068C12.5016 13.5718 12.5036 13.5288 12.4886 13.4978C12.5326 13.4838 12.5586 13.4268 12.5376 13.3828C12.5996 13.3738 12.6286 13.2898 12.5856 13.2438C12.6546 13.2278 12.6686 13.1238 12.6076 13.0898L12.6126 13.0907ZM12.3166 12.9768C12.3166 13.0258 12.3046 13.0748 12.2826 13.1178C12.0846 12.9808 11.8056 12.8798 11.5886 12.9038C11.5866 12.8948 11.5826 12.8868 11.5776 12.8798C11.5776 12.8798 11.5776 12.8788 11.5776 12.8778C11.6416 12.8568 11.6516 12.7578 11.5926 12.7248C11.6406 12.6928 11.6376 12.6117 11.5876 12.5837C11.9156 12.5447 12.3166 12.6738 12.3166 12.9768ZM11.3606 12.7017C11.3606 12.7647 11.3406 12.8257 11.3066 12.8767C11.0326 12.8177 10.8946 12.7078 10.5896 12.6918C10.5826 12.6098 10.5846 12.5207 10.5786 12.4377C10.8246 12.2477 11.3876 12.3757 11.3606 12.7017ZM10.1696 12.5378C10.1676 12.5878 10.1666 12.6398 10.1626 12.6888C9.86062 12.7018 9.71362 12.8107 9.44362 12.8737C9.18362 12.4677 9.85862 12.1977 10.1736 12.4377C10.1716 12.4707 10.1686 12.5038 10.1696 12.5378ZM9.12362 12.6547C9.12362 12.6827 9.13762 12.7078 9.15762 12.7237C9.09962 12.7567 9.10862 12.8558 9.17262 12.8758C9.17262 12.8758 9.17262 12.8768 9.17262 12.8778C9.16762 12.8848 9.16462 12.8928 9.16162 12.9018C8.94262 12.8778 8.66662 12.9687 8.46362 13.1077C8.30862 12.7307 8.78662 12.5318 9.16162 12.5828C9.13862 12.5978 9.12262 12.6237 9.12262 12.6547H9.12362ZM9.07562 14.3378V14.3398C9.07562 14.3398 9.07362 14.3398 9.07262 14.3417C9.07262 14.3407 9.07462 14.3378 9.07562 14.3378Z" fill="#9B8028"/>
<path d="M14.131 16.8551C14.406 16.2051 14.332 16.3471 13.812 16.0681V15.1951C13.961 15.0961 13.718 15.0741 13.862 14.9601H13.934V14.6211H12.944V14.9601H13.019C13.155 15.0621 12.928 15.1061 13.069 15.1951V15.9551C12.545 15.9481 12.298 16.0211 12.39 16.5311H12.429L12.445 16.5671C12.585 16.5041 12.817 16.4601 13.069 16.4481V16.6721C12.685 16.7011 12.649 17.2801 13.069 17.4721V18.7631C13.016 18.7801 13 18.8521 13.045 18.8861C13.052 18.9511 12.987 18.9781 12.932 18.9691C12.932 18.9951 12.932 19.2061 12.932 19.2381C12.888 19.2621 12.819 19.2681 12.762 19.2661V19.3741V19.4811V19.5881V19.6961V19.8821C13.221 19.8141 13.657 19.8141 14.115 19.8821V19.2661C14.058 19.2681 13.991 19.2621 13.945 19.2381C13.945 19.2051 13.945 18.9971 13.945 18.9701C13.891 18.9781 13.827 18.9531 13.832 18.8891C13.88 18.8561 13.866 18.7811 13.811 18.7631V17.8311C13.849 17.8481 13.884 17.8661 13.916 17.8841C13.811 18.0031 13.824 18.2101 13.947 18.3131L14.004 18.2601C14.226 17.9311 14.4 17.5171 13.811 17.3641V17.0141C13.988 16.9951 14.1 16.9401 14.13 16.8561L14.131 16.8551Z" fill="#9B8028"/>
<path d="M8.36185 16.0572C8.20885 15.9952 7.97185 15.9592 7.70885 15.9552V15.1952C7.80285 15.1542 7.74285 15.0802 7.69585 15.0362C7.71585 14.9982 7.78785 14.9792 7.75185 14.9212H7.79485V14.6602H6.88285V14.9212H6.92185C6.88485 14.9802 6.96085 14.9992 6.97885 15.0362C6.93185 15.0782 6.87085 15.1542 6.96485 15.1952V16.0682C6.32085 16.2012 6.35385 16.8162 6.96485 17.0132V17.3632C6.37485 17.5172 6.54985 17.9302 6.77185 18.2592L6.82885 18.3122C6.95185 18.2092 6.96485 18.0022 6.85985 17.8832C6.89185 17.8652 6.92685 17.8472 6.96485 17.8302V18.7622C6.90985 18.7802 6.89585 18.8552 6.94385 18.8882C6.94885 18.9522 6.88485 18.9772 6.83085 18.9692C6.83085 18.9952 6.83085 19.2052 6.83085 19.2372C6.78585 19.2612 6.71785 19.2682 6.66085 19.2652V19.6662V19.8812C7.11985 19.8132 7.55585 19.8132 8.01285 19.8812V19.6952V19.5872V19.4802V19.3732V19.2652C7.95685 19.2672 7.88885 19.2612 7.84385 19.2372C7.84385 19.2042 7.84385 18.9962 7.84385 18.9682C7.78885 18.9762 7.72485 18.9502 7.73085 18.8852C7.77585 18.8512 7.76085 18.7782 7.70685 18.7612V17.4712C8.12785 17.2792 8.08985 16.6992 7.70685 16.6712V16.4472C8.28185 16.4822 8.50285 16.7612 8.35985 16.0552L8.36185 16.0572Z" fill="#9B8028"/>
<path d="M12.53 14.5332H8.25L8.253 17.1052V18.5902C8.253 19.0222 8.479 19.4122 8.844 19.6092C9.317 19.8612 9.868 20.0002 10.396 20.0002C10.924 20.0002 11.46 19.8652 11.94 19.6092C12.304 19.4122 12.531 19.0222 12.531 18.5902L12.53 14.5332Z" fill="#A0251E"/>
</svg>
