<svg width="32" height="32" viewBox="0 0 32 32" fill="none" xmlns="http://www.w3.org/2000/svg">
<path d="M27 4H5C2.79086 4 1 5.79086 1 8V24C1 26.2091 2.79086 28 5 28H27C29.2091 28 31 26.2091 31 24V8C31 5.79086 29.2091 4 27 4Z" fill="#061B65"/>
<path d="M6.5 13.774V16H10.5V13.773L13.537 16H16V14.759L12.238 12H16V8H13.26L16 5.991V4H14.559L10.5 6.977V4H6.5V6.794L3.243 4.405C2.476 4.779 1.854 5.388 1.457 6.143L3.989 8.001H1V12.001H4.763L1 14.761V16.001H3.464L6.5 13.774Z" fill="white"/>
<path d="M1.80664 5.59009L5.09164 8.00109H6.45564L2.36064 4.99609C2.15664 5.17609 1.97064 5.37309 1.80664 5.59009Z" fill="#D22D32"/>
<path d="M1 16L6.454 12V13L2.363 16H1Z" fill="#D22D32"/>
<path d="M6.83786 18.7422L7.37386 20.4082L9.00986 19.7882L8.04186 21.2452L9.54686 22.1382L7.80386 22.2902L8.04386 24.0232L6.83886 22.7552L5.63386 24.0232L5.87386 22.2902L4.13086 22.1382L5.63586 21.2452L4.66786 19.7882L6.30386 20.4082L6.83986 18.7422H6.83786Z" fill="white"/>
<path d="M23.1136 21.7559L23.4046 22.6619L24.2946 22.3249L23.7676 23.1179L24.5866 23.6039L23.6386 23.6859L23.7696 24.6289L23.1136 23.9389L22.4576 24.6289L22.5886 23.6859L21.6406 23.6039L22.4596 23.1179L21.9326 22.3249L22.8226 22.6619L23.1136 21.7559Z" fill="white"/>
<path d="M20.1664 13.127L20.4574 14.033L21.3474 13.696L20.8204 14.489L21.6394 14.975L20.6914 15.057L20.8224 16L20.1664 15.31L19.5104 16L19.6414 15.057L18.6934 14.975L19.5124 14.489L18.9854 13.696L19.8754 14.033L20.1664 13.127Z" fill="white"/>
<path d="M23.43 7.12695L23.721 8.03295L24.611 7.69595L24.084 8.48895L24.903 8.97495L23.955 9.05695L24.086 9.99995L23.43 9.30995L22.774 9.99995L22.905 9.05695L21.957 8.97495L22.776 8.48895L22.249 7.69595L23.139 8.03295L23.43 7.12695Z" fill="white"/>
<path d="M28.1332 10.8164L28.4242 11.7224L29.3142 11.3854L28.7872 12.1784L29.6062 12.6644L28.6582 12.7464L28.7892 13.6894L28.1332 12.9994L27.4772 13.6894L27.6082 12.7464L26.6602 12.6644L27.4792 12.1784L26.9522 11.3854L27.8422 11.7224L28.1332 10.8164Z" fill="white"/>
<path d="M25.7403 16L25.9703 16.565L26.5783 16.61L26.1123 17.003L26.2583 17.595L25.7403 17.274L25.2223 17.595L25.3683 17.003L24.9023 16.61L25.5103 16.565L25.7403 16Z" fill="white"/>
<path d="M9.5 16H7.5V11H1V9H7.5V4H9.5V9H16V11H9.5V16Z" fill="#D22D32"/>
<path d="M16 15.667L11 12V13L15.091 16H16V15.667Z" fill="#D22D32"/>
<path d="M16 4H15.752L10.291 8.004H11.655L16 4.818V4Z" fill="#D22D32"/>
<path opacity="0.15" d="M27 4H5C2.791 4 1 5.791 1 8V24C1 26.209 2.791 28 5 28H27C29.209 28 31 26.209 31 24V8C31 5.791 29.209 4 27 4ZM30 24C30 25.654 28.654 27 27 27H5C3.346 27 2 25.654 2 24V8C2 6.346 3.346 5 5 5H27C28.654 5 30 6.346 30 8V24Z" fill="black"/>
<path opacity="0.2" d="M27 5H5C3.343 5 2 6.343 2 8V9C2 7.343 3.343 6 5 6H27C28.657 6 30 7.343 30 9V8C30 6.343 28.657 5 27 5Z" fill="white"/>
</svg>
