<svg width="56" height="56" viewBox="0 0 56 56" fill="none" xmlns="http://www.w3.org/2000/svg">
<g clip-path="url(#clip0_2220_3353)">
<path d="M28 0C22.4621 0 17.0486 1.64217 12.444 4.71885C7.83947 7.79553 4.25064 12.1685 2.13139 17.2849C0.012132 22.4012 -0.542361 28.0311 0.538025 33.4625C1.61841 38.894 4.28515 43.8831 8.20102 47.799C12.1169 51.7149 17.106 54.3816 22.5375 55.462C27.969 56.5424 33.5988 55.9879 38.7151 53.8686C43.8315 51.7494 48.2045 48.1605 51.2812 43.556C54.3578 38.9514 56 33.5379 56 28C55.992 20.5764 53.0394 13.4592 47.7901 8.20988C42.5409 2.9606 35.4236 0.00802919 28 0ZM28 46.6667C27.5385 46.6667 27.0874 46.5298 26.7037 46.2734C26.32 46.017 26.0209 45.6526 25.8443 45.2263C25.6677 44.7999 25.6215 44.3307 25.7115 43.8781C25.8015 43.4255 26.0238 43.0097 26.3501 42.6834C26.6764 42.3571 27.0922 42.1349 27.5448 42.0448C27.9974 41.9548 28.4666 42.001 28.8929 42.1776C29.3193 42.3542 29.6837 42.6533 29.9401 43.037C30.1965 43.4207 30.3333 43.8718 30.3333 44.3333C30.3333 44.9522 30.0875 45.5457 29.6499 45.9833C29.2123 46.4208 28.6189 46.6667 28 46.6667ZM32.5033 29.1807C31.8148 29.6112 31.2517 30.2155 30.8708 30.9327C30.4898 31.6499 30.3045 32.4548 30.3333 33.2663V35C30.3333 35.6188 30.0875 36.2123 29.6499 36.6499C29.2123 37.0875 28.6189 37.3333 28 37.3333C27.3812 37.3333 26.7877 37.0875 26.3501 36.6499C25.9125 36.2123 25.6667 35.6188 25.6667 35V33.2663C25.6322 31.62 26.039 29.9944 26.8448 28.5584C27.6507 27.1223 28.8262 25.9281 30.2493 25.0997C31.1115 24.6248 31.8014 23.8896 32.2204 22.9991C32.6395 22.1085 32.7663 21.1083 32.5827 20.1413C32.4009 19.2201 31.9486 18.3741 31.2836 17.7111C30.6186 17.0482 29.7711 16.5986 28.8493 16.4197C28.1767 16.2952 27.4849 16.3201 26.8229 16.4926C26.161 16.6652 25.545 16.9811 25.0188 17.4181C24.4925 17.8552 24.0687 18.4025 23.7774 19.0215C23.4862 19.6405 23.3346 20.3159 23.3333 21C23.3333 21.6188 23.0875 22.2123 22.6499 22.6499C22.2123 23.0875 21.6189 23.3333 21 23.3333C20.3812 23.3333 19.7877 23.0875 19.3501 22.6499C18.9125 22.2123 18.6667 21.6188 18.6667 21C18.6673 19.3538 19.1032 17.7371 19.9303 16.3139C20.7574 14.8906 21.9462 13.7114 23.3762 12.8958C24.8061 12.0803 26.4263 11.6575 28.0724 11.6703C29.7185 11.683 31.3319 12.1309 32.7491 12.9685C34.1662 13.8061 35.3366 15.0036 36.1415 16.4396C36.9464 17.8755 37.3572 19.4988 37.3323 21.1448C37.3073 22.7907 36.8475 24.4008 35.9994 25.8117C35.1513 27.2226 33.9452 28.3864 32.5033 29.1807Z" fill="#BD0318"/>
</g>
<defs>
<clipPath id="clip0_2220_3353">
<rect width="56" height="56" fill="white"/>
</clipPath>
</defs>
</svg>
