<svg width="94" height="116" viewBox="0 0 94 116" fill="none" xmlns="http://www.w3.org/2000/svg">
<path d="M31.4865 31.7176L33.9963 32.628C36.2301 33.4381 38.8185 33.5916 41.186 33.1362C43.696 32.6939 46.1933 31.5561 47.6079 29.3975C48.0059 28.7904 47.4099 29.6401 48.5354 28.0319C48.6155 27.9173 48.5902 27.7579 48.4772 27.6751L46.5246 26.2458C44.1881 24.5332 41.4713 23.6519 38.6857 24.1662C36.7686 24.5031 34.9704 25.5511 33.5509 27.3413C32.6397 28.5628 32.2494 29.7604 31.963 30.4723C31.8054 30.8878 31.6312 31.2972 31.4865 31.7176Z" fill="#FEA713"/>
<path d="M31.492 31.7342L28.9848 30.8247C25.4712 29.5505 23.092 26.5176 22.8281 22.2882C22.7235 19.5205 23.5277 16.9045 24.9506 14.7202C25.5756 13.7667 24.8649 14.7649 26.7317 12.1091C26.8141 11.992 26.9767 11.9651 27.0926 12.0501L29.0355 13.4725C31.3853 15.1946 32.7907 17.9694 33.3264 20.7941C34.1519 25.3777 32.9312 28.0971 31.9682 30.4901C31.8105 30.9053 31.6366 31.3143 31.492 31.7342Z" fill="#FDB441"/>
<path d="M28.8852 52.0805L31.5401 51.8381C33.6212 51.6469 35.7057 50.8788 37.4576 49.7855C40.4189 47.936 41.7261 45.9356 42.321 43.9286C42.478 43.3848 42.4018 43.5154 42.7494 41.5194C42.7734 41.3818 42.6827 41.2491 42.5457 41.2218L40.1756 40.7506C38.1079 40.3384 35.8961 40.398 33.9446 41.207C31.3661 42.2849 29.5494 44.3911 28.8952 47.2347C28.7604 47.9349 28.6946 48.6678 28.7047 49.4157C28.8028 51.0182 28.7755 50.5752 28.8281 51.4153C28.8393 51.6377 28.8564 51.8595 28.8852 52.0805Z" fill="#FEA713"/>
<path d="M28.8761 52.0947L26.224 52.3369C22.9379 52.6389 20.1241 51.2545 18.3857 49.1702C16.3635 46.7919 15.4879 43.5783 15.6346 40.8388C15.7082 39.3515 16.018 37.6866 16.2762 36.2938C16.3021 36.1534 16.4373 36.063 16.5773 36.0908L18.9376 36.5599C21.1105 36.9931 22.9585 38.1676 24.5117 39.7412C26.4556 41.6989 27.9559 44.5066 28.4472 47.2486C28.6007 47.9583 28.686 48.6855 28.6961 49.4327C28.7941 51.0334 28.7668 50.5909 28.8194 51.4301C28.8303 51.6523 28.8474 51.8739 28.8761 52.0947Z" fill="#FDB441"/>
<path d="M35.1814 71.6162L37.4805 70.2726C39.2893 69.2141 40.8397 67.6495 41.9529 65.9104C43.1814 64.0301 43.7805 62.1549 43.9146 60.8966C44.1833 58.9411 43.7396 58.0286 43.223 56.1323C43.1861 55.9967 43.0482 55.9139 42.9122 55.9477L40.5726 56.5318C38.5041 57.0471 36.604 58.02 35.1394 59.6035C34.4807 60.3307 33.9363 61.1928 33.5417 62.1362C33.477 62.2922 33.4134 62.4514 33.3594 62.611C33.0998 63.4243 32.9584 64.2706 32.9248 65.1209C32.9122 65.9832 33.0538 66.9152 33.2755 67.7414C33.4409 68.2557 33.6515 68.7715 33.9013 69.2709L34.2001 69.8685C34.3016 70.0667 34.4167 70.2575 34.5245 70.4524L35.1814 71.6162Z" fill="#FEA713"/>
<path d="M35.1671 71.6318L32.8685 72.975C30.9273 74.1108 28.7848 74.5112 26.5768 74.1122C25.2789 73.8621 24.0024 73.3063 22.8797 72.5715C22.0205 71.9772 21.242 71.2694 20.5539 70.4987C18.9706 68.6864 18.0333 66.4066 17.4479 64.0904L17.0711 62.6843C17.034 62.5456 17.1173 62.4039 17.256 62.3692L19.5875 61.787C21.7017 61.2602 23.9498 61.5185 25.9782 62.2911C27.0154 62.6727 27.9682 63.1517 28.8561 63.7439C29.0043 63.8422 29.1473 63.9441 29.2932 64.0471C30.0644 64.5721 30.7468 65.153 31.3363 65.7744C31.9937 66.4338 32.5357 67.074 33.0358 67.8638C33.3558 68.3187 33.6379 68.7898 33.887 69.2874L34.1856 69.8849C34.2871 70.0831 34.4022 70.2738 34.51 70.4686L35.1671 71.6318Z" fill="#FDB441"/>
<path d="M49.1573 86.6387L50.6616 84.4413C51.5035 83.21 52.0762 81.8736 52.4433 80.551C53.2022 77.8292 53.2772 74.1673 51.867 71.7441C51.3761 70.7983 50.3958 69.8574 49.8685 69.2186C49.7785 69.1094 49.6195 69.0938 49.51 69.1829L47.6465 70.698C45.9837 72.0486 44.6814 73.726 44.0386 75.7729C43.2403 78.312 43.6234 81.1187 45.4507 83.5186C45.6729 83.7993 45.9003 84.0861 46.1653 84.3371C47.0536 85.1873 48.2639 86.0064 49.1573 86.6387Z" fill="#FEA713"/>
<path d="M49.1398 86.6501L47.6345 88.849C45.772 91.5729 42.7795 93.1357 39.0262 92.8199C35.8842 92.4932 33.2128 90.9387 31.03 88.6282C30.3984 87.9035 29.4126 86.7808 28.95 86.2157C28.8598 86.1055 28.877 85.9443 28.9872 85.8547L30.8565 84.3348C32.6655 82.8655 35.3007 81.8681 39.0132 82.0693C41.0281 82.1971 43.3794 82.8568 45.147 83.8626C45.4649 84.0356 45.7637 84.239 46.0759 84.4335C46.9495 84.9836 46.5494 84.8169 49.1398 86.6501Z" fill="#FDB441"/>
<path d="M68.179 94.3246L68.6129 91.694C68.9552 89.6105 68.7362 87.4111 68.1164 85.4504C67.4551 83.3171 66.1383 80.8843 64.3331 79.6539C63.3975 78.9608 62.573 78.7537 61.4449 78.2089C61.3166 78.1468 61.162 78.1983 61.1004 78.3267L60.0582 80.4944C58.9691 82.7592 58.5384 85.2041 59.1425 87.629C60.0093 90.8808 62.5522 93.1352 65.5653 93.8026L66.2138 93.9561C67.0382 94.1122 66.6037 94.0306 68.179 94.3246Z" fill="#FEA713"/>
<path d="M68.1621 94.3233L67.7277 96.9569C67.243 99.905 65.524 102.344 62.6974 103.737C60.0291 105.081 56.4653 105.314 52.6263 103.792C52.2122 103.626 50.458 102.837 49.7337 102.497C49.6042 102.436 49.5499 102.281 49.6118 102.152L50.6555 99.9813C51.7459 97.7139 53.7705 95.9621 56.0768 94.8871C58.773 93.5745 62.1179 93.041 65.5456 93.8011C65.5459 93.8005 66.585 94.0289 68.1621 94.3233Z" fill="#FDB441"/>
<path d="M38.5992 18.7864L38.7778 15.472C39.1781 8.04459 45.5161 2.3677 52.9342 2.79232L55.988 2.96711C56.1296 2.97519 56.2382 3.0966 56.2306 3.23844L56.0658 6.2961C55.6655 13.7235 49.3275 19.4004 41.9094 18.9758L38.5992 18.7864Z" fill="#FDB441"/>
<path d="M87.5781 95.3875C87.4925 95.4224 87.4031 95.4514 87.3102 95.4737C76.0401 98.1807 64.0985 96.7585 53.6858 91.4692C43.1688 86.1267 34.9277 77.1748 30.4804 66.2622C26.4373 56.3417 25.7293 45.6382 28.4328 35.3089C31.0464 25.3236 36.8571 16.2493 44.795 9.75791C45.5836 9.11327 46.7463 9.23008 47.3914 10.0198C48.0367 10.8091 47.9206 11.972 47.1319 12.617C31.6409 25.2851 26.3225 46.2845 33.8973 64.8709C42.285 85.4519 64.876 97.0648 86.446 91.8839C87.4368 91.646 88.4334 92.2568 88.6719 93.2479C88.8881 94.1466 88.4076 95.0492 87.5781 95.3875Z" fill="#FECE85"/>
</svg>
