<svg width="40" height="40" viewBox="0 0 40 40" fill="none" xmlns="http://www.w3.org/2000/svg">
<g clip-path="url(#clip0_2220_4388)">
<path d="M22.1309 19.1742C22.5918 18.9385 23.1051 18.8139 23.6377 18.8139C24.5203 18.8139 25.3501 19.1566 25.9757 19.7788L27.3222 18.4324C30.6546 19.6005 34.5087 18.8527 37.1727 16.1889C39.4141 13.9474 40.2981 10.8634 39.8262 7.95644C39.7742 7.6363 39.5476 7.37226 39.239 7.27264C38.9305 7.17289 38.5918 7.25395 38.3626 7.48333L36.3632 9.48273C34.735 11.111 32.0949 11.111 30.4667 9.48273C28.8383 7.8545 28.8383 5.21443 30.4667 3.58621L32.4661 1.58682C32.6954 1.35743 32.7772 1.01874 32.6773 0.710069C32.5775 0.401263 32.3131 0.175151 31.9928 0.12316C29.086 -0.348714 26.0019 0.535266 23.7605 2.77674C21.057 5.48026 20.3294 9.40917 21.5728 12.7749L18.6523 15.6954L22.1309 19.1742Z" fill="#BD0318"/>
<path d="M16.8088 24.464L13.3448 21L1.23204 33.1126C-0.34297 34.6876 -0.34297 37.2412 1.23204 38.8162C2.80704 40.3912 5.36059 40.3912 6.9356 38.8162L17.3776 28.3744C16.3244 27.3156 16.1346 25.7171 16.8088 24.464Z" fill="#BD0318"/>
<path d="M24.5342 21.2332C24.2865 20.9855 23.9617 20.8616 23.6371 20.8616C23.3124 20.8616 22.9877 20.9855 22.74 21.2332L22.0169 21.9563L9.1363 9.07568L9.73835 8.47362C10.2869 7.92519 10.2188 7.01542 9.59357 6.55501L4.33827 2.68464C3.83324 2.31279 3.13239 2.36559 2.6889 2.80909L0.457523 5.04059C0.0140321 5.48408 -0.0387774 6.18507 0.333073 6.68997L4.20331 11.9453C4.66373 12.5704 5.57295 12.6392 6.12192 12.09L6.72398 11.4879L19.6046 24.3685L18.8306 25.1425C18.3351 25.6379 18.3351 26.4411 18.8306 26.9366L30.7133 38.8193C32.2883 40.3943 34.8418 40.3943 36.4168 38.8193C37.9919 37.2443 37.9919 34.6907 36.4168 33.1157L24.5342 21.2332Z" fill="#BD0318"/>
</g>
<defs>
<clipPath id="clip0_2220_4388">
<rect width="40" height="40" fill="white"/>
</clipPath>
</defs>
</svg>
