<svg width="40" height="40" viewBox="0 0 40 40" fill="none" xmlns="http://www.w3.org/2000/svg">
<path d="M36.218 21.8671C34.7534 21.4913 33.334 20.9576 31.9846 20.2754C31.568 20.0671 31.1846 19.8671 30.8346 19.6754C30.143 19.2921 29.593 18.9504 29.2346 18.7171C29.2142 18.7027 29.1917 18.6915 29.168 18.6838C28.9038 18.5298 28.6024 18.4515 28.2966 18.4573C27.9909 18.4632 27.6927 18.5531 27.4346 18.7171C25.2845 20.1232 22.9285 21.1859 20.4513 21.8671C20.0866 21.9557 19.7621 22.1639 19.5295 22.4584C19.2969 22.7529 19.1696 23.1168 19.168 23.4921V24.9171C19.1671 26.9751 19.6748 29.0014 20.646 30.8158C21.6172 32.6302 23.0217 34.1765 24.7346 35.3171L25.5096 35.8338L27.4096 37.1004C27.5603 37.1997 27.7264 37.2729 27.9013 37.3171H27.9096C28.0463 37.3642 28.1901 37.3868 28.3346 37.3838C28.6639 37.381 28.9853 37.2825 29.2596 37.1004L31.9346 35.3171C33.6476 34.1765 35.0521 32.6302 36.0233 30.8158C36.9945 29.0014 37.5022 26.9751 37.5013 24.9171V23.4921C37.4996 23.1168 37.3723 22.7529 37.1398 22.4584C36.9072 22.1639 36.5826 21.9557 36.218 21.8671ZM31.4263 26.4254L28.093 29.7588C27.935 29.9137 27.7226 30.0005 27.5013 30.0005C27.28 30.0005 27.0676 29.9137 26.9096 29.7588L25.243 28.0921C25.0861 27.9352 24.9979 27.7224 24.9979 27.5004C24.9979 27.2785 25.0861 27.0657 25.243 26.9088C25.3999 26.7519 25.6127 26.6637 25.8346 26.6637C26.0566 26.6637 26.2694 26.7519 26.4263 26.9088L27.5013 27.9921L30.243 25.2421C30.3207 25.1644 30.4129 25.1028 30.5144 25.0607C30.6159 25.0187 30.7248 24.997 30.8346 24.997C30.9445 24.997 31.0533 25.0187 31.1548 25.0607C31.2564 25.1028 31.3486 25.1644 31.4263 25.2421C31.504 25.3198 31.5656 25.4121 31.6077 25.5136C31.6497 25.6151 31.6714 25.7239 31.6714 25.8338C31.6714 25.9437 31.6497 26.0525 31.6077 26.154C31.5656 26.2555 31.504 26.3477 31.4263 26.4254Z" fill="#BD0318"/>
<path d="M29.65 11.0334L22.525 3.75011C22.2693 3.49132 21.9807 3.26719 21.6667 3.08344V9.16678C21.6686 9.82921 21.9327 10.4639 22.4011 10.9324C22.8695 11.4008 23.5042 11.6648 24.1667 11.6668H30.1583C30.008 11.441 29.8379 11.2291 29.65 11.0334ZM30.7833 13.3334H24.1667C23.0616 13.3334 22.0018 12.8945 21.2204 12.1131C20.439 11.3317 20 10.2718 20 9.16678V2.53344C19.8512 2.50992 19.7007 2.49877 19.55 2.50011H6.66667C5.5616 2.50011 4.50179 2.93909 3.72039 3.7205C2.93899 4.5019 2.5 5.56171 2.5 6.66678V33.3334C2.5 34.4385 2.93899 35.4983 3.72039 36.2797C4.50179 37.0611 5.5616 37.5001 6.66667 37.5001H25.0083L23.8083 36.7001C21.8667 35.4086 20.2746 33.6568 19.1739 31.6009C18.0733 29.545 17.4982 27.2488 17.5 24.9168V23.4918C17.5003 22.9764 17.6201 22.4681 17.85 22.0069C18.0799 21.5456 18.4137 21.144 18.825 20.8334H8.33333C8.11232 20.8334 7.90036 20.7456 7.74408 20.5894C7.5878 20.4331 7.5 20.2211 7.5 20.0001C7.5 19.7791 7.5878 19.5671 7.74408 19.4109C7.90036 19.2546 8.11232 19.1668 8.33333 19.1668H23.1167C24.2967 18.6347 25.4359 18.0163 26.525 17.3168C27.0136 17.0064 27.574 16.8272 28.1521 16.7965C28.7301 16.7659 29.3063 16.8848 29.825 17.1418L29.8833 17.1668L30.1333 17.3168C30.3083 17.4334 30.5417 17.5751 30.8333 17.7501V13.9501C30.8336 13.7435 30.8169 13.5373 30.7833 13.3334ZM17.5 30.0001C17.5 30.2211 17.4122 30.4331 17.2559 30.5894C17.0996 30.7456 16.8877 30.8334 16.6667 30.8334H8.33333C8.11232 30.8334 7.90036 30.7456 7.74408 30.5894C7.5878 30.4331 7.5 30.2211 7.5 30.0001C7.5 29.7791 7.5878 29.5671 7.74408 29.4109C7.90036 29.2546 8.11232 29.1668 8.33333 29.1668H16.6667C16.8877 29.1668 17.0996 29.2546 17.2559 29.4109C17.4122 29.5671 17.5 29.7791 17.5 30.0001ZM8.33333 24.1668H15C15.221 24.1668 15.433 24.2546 15.5893 24.4109C15.7455 24.5671 15.8333 24.7791 15.8333 25.0001C15.8333 25.2211 15.7455 25.4331 15.5893 25.5894C15.433 25.7456 15.221 25.8334 15 25.8334H8.33333C8.11232 25.8334 7.90036 25.7456 7.74408 25.5894C7.5878 25.4331 7.5 25.2211 7.5 25.0001C7.5 24.7791 7.5878 24.5671 7.74408 24.4109C7.90036 24.2546 8.11232 24.1668 8.33333 24.1668ZM8.33333 9.16678H15C15.221 9.16678 15.433 9.25457 15.5893 9.41085C15.7455 9.56713 15.8333 9.7791 15.8333 10.0001C15.8333 10.2211 15.7455 10.4331 15.5893 10.5894C15.433 10.7456 15.221 10.8334 15 10.8334H8.33333C8.11232 10.8334 7.90036 10.7456 7.74408 10.5894C7.5878 10.4331 7.5 10.2211 7.5 10.0001C7.5 9.7791 7.5878 9.56713 7.74408 9.41085C7.90036 9.25457 8.11232 9.16678 8.33333 9.16678ZM20 15.8334H8.33333C8.11232 15.8334 7.90036 15.7456 7.74408 15.5894C7.5878 15.4331 7.5 15.2211 7.5 15.0001C7.5 14.7791 7.5878 14.5671 7.74408 14.4109C7.90036 14.2546 8.11232 14.1668 8.33333 14.1668H20C20.221 14.1668 20.433 14.2546 20.5893 14.4109C20.7455 14.5671 20.8333 14.7791 20.8333 15.0001C20.8333 15.2211 20.7455 15.4331 20.5893 15.5894C20.433 15.7456 20.221 15.8334 20 15.8334Z" fill="#BD0318"/>
</svg>
