<svg width="40" height="40" viewBox="0 0 40 40" fill="none" xmlns="http://www.w3.org/2000/svg">
<g clip-path="url(#clip0_2220_2916)">
<path d="M7.83817 16.7272H6.62185V14.3133C6.62185 14.123 6.54624 13.9405 6.41167 13.8059C6.27709 13.6713 6.09457 13.5957 5.90425 13.5957C5.71394 13.5957 5.53141 13.6713 5.39684 13.8059C5.26226 13.9405 5.18666 14.123 5.18666 14.3133V16.7272H3.97034C3.59005 16.7283 3.22565 16.8798 2.95674 17.1487C2.68783 17.4176 2.53627 17.782 2.53516 18.1623V35.5209C2.53511 35.7094 2.57219 35.896 2.6443 36.0702C2.71641 36.2443 2.82212 36.4026 2.9554 36.5358C3.08868 36.6691 3.24691 36.7748 3.42106 36.8469C3.59521 36.9191 3.78186 36.9561 3.97034 36.9561H5.18666V39.3744C5.18946 39.5629 5.2663 39.7427 5.40057 39.875C5.53485 40.0072 5.71578 40.0814 5.90427 40.0814C6.09277 40.0814 6.27369 40.0072 6.40796 39.8749C6.54223 39.7426 6.61905 39.5628 6.62185 39.3743V36.9561H7.83817C8.02665 36.9561 8.2133 36.9191 8.38745 36.847C8.5616 36.7748 8.71983 36.6691 8.85311 36.5359C8.98639 36.4026 9.09211 36.2443 9.16421 36.0702C9.23632 35.896 9.2734 35.7094 9.27335 35.5209V18.1623C9.27224 17.782 9.12068 17.4176 8.85177 17.1487C8.58286 16.8798 8.21846 16.7283 7.83817 16.7272Z" fill="#BD0318"/>
<path d="M17.2333 7.82898H16.0218V5.41486C16.0218 5.22454 15.9462 5.04202 15.8116 4.90744C15.677 4.77287 15.4945 4.69727 15.3042 4.69727C15.1139 4.69727 14.9314 4.77287 14.7968 4.90744C14.6622 5.04202 14.5866 5.22454 14.5866 5.41486V7.82898H13.3727C12.9924 7.83009 12.628 7.98166 12.3591 8.25057C12.0902 8.51948 11.9386 8.88388 11.9375 9.26417V26.6227C11.9374 26.8112 11.9745 26.9979 12.0466 27.172C12.1187 27.3462 12.2245 27.5044 12.3577 27.6377C12.491 27.771 12.6493 27.8767 12.8234 27.9488C12.9975 28.0209 13.1842 28.058 13.3727 28.0579H14.5866V30.4759C14.5894 30.6644 14.6662 30.8442 14.8005 30.9765C14.9348 31.1088 15.1157 31.183 15.3042 31.183C15.4927 31.1829 15.6736 31.1088 15.8079 30.9765C15.9422 30.8442 16.019 30.6644 16.0218 30.4759V28.0579H17.2333C17.422 28.0586 17.6089 28.0219 17.7833 27.95C17.9577 27.8781 18.1162 27.7724 18.2496 27.639C18.383 27.5056 18.4887 27.3472 18.5606 27.1727C18.6325 26.9983 18.6692 26.8114 18.6685 26.6227V9.26417C18.6686 9.07568 18.6315 8.88903 18.5594 8.71489C18.4873 8.54074 18.3816 8.38251 18.2483 8.24923C18.115 8.11595 17.9568 8.01023 17.7826 7.93813C17.6085 7.86602 17.4218 7.82893 17.2333 7.82898Z" fill="#BD0318"/>
<path d="M26.6318 12.8293H25.4178V10.4129C25.4178 10.2226 25.3422 10.0401 25.2077 9.90549C25.0731 9.77092 24.8906 9.69531 24.7003 9.69531C24.5099 9.69531 24.3274 9.77092 24.1928 9.90549C24.0583 10.0401 23.9827 10.2226 23.9827 10.4129V12.8293H22.7711C22.5826 12.8293 22.396 12.8664 22.2218 12.9385C22.0477 13.0106 21.8895 13.1163 21.7562 13.2496C21.6229 13.3829 21.5172 13.5411 21.4451 13.7152C21.373 13.8894 21.3359 14.076 21.3359 14.2645V31.6231C21.3359 31.8116 21.373 31.9982 21.4451 32.1724C21.5172 32.3465 21.6229 32.5048 21.7562 32.638C21.8895 32.7713 22.0477 32.877 22.2218 32.9491C22.396 33.0212 22.5826 33.0583 22.7711 33.0583H23.9827V35.474C23.9855 35.6625 24.0623 35.8423 24.1966 35.9746C24.3309 36.1068 24.5118 36.181 24.7003 36.181C24.8888 36.181 25.0697 36.1068 25.204 35.9745C25.3382 35.8422 25.4151 35.6624 25.4179 35.4739V33.0583H26.6318C27.0121 33.0572 27.3765 32.9056 27.6454 32.6367C27.9143 32.3678 28.0658 32.0034 28.067 31.6231V14.2645C28.0659 13.8842 27.9143 13.5198 27.6454 13.2509C27.3765 12.982 27.0121 12.8304 26.6318 12.8293Z" fill="#BD0318"/>
<path d="M36.0296 3.04213H34.8133V0.623843C34.8133 0.433525 34.7376 0.251003 34.6031 0.116428C34.4685 -0.0181466 34.286 -0.09375 34.0957 -0.09375C33.9053 -0.09375 33.7228 -0.0181466 33.5882 0.116428C33.4537 0.251003 33.3781 0.433525 33.3781 0.623843V3.04213H32.1617C31.9733 3.04208 31.7866 3.07916 31.6125 3.15127C31.4383 3.22337 31.2801 3.32909 31.1468 3.46237C31.0135 3.59565 30.9078 3.75388 30.8357 3.92803C30.7636 4.10218 30.7265 4.28883 30.7266 4.47731V21.8359C30.7277 22.2162 30.8792 22.5806 31.1481 22.8495C31.4171 23.1184 31.7815 23.27 32.1617 23.2711H33.3781V25.6849C33.3809 25.8734 33.4577 26.0532 33.592 26.1855C33.7263 26.3178 33.9072 26.3919 34.0957 26.3919C34.2842 26.3919 34.4651 26.3178 34.5994 26.1855C34.7336 26.0532 34.8105 25.8734 34.8133 25.6849V23.2711H36.0296C36.4099 23.2699 36.7743 23.1184 37.0432 22.8495C37.3121 22.5806 37.4636 22.2162 37.4648 21.8359V4.47731C37.4648 4.28883 37.4277 4.10218 37.3556 3.92803C37.2835 3.75389 37.1778 3.59565 37.0445 3.46237C36.9112 3.3291 36.753 3.22338 36.5789 3.15128C36.4047 3.07917 36.2181 3.04208 36.0296 3.04213Z" fill="#BD0318"/>
</g>
<defs>
<clipPath id="clip0_2220_2916">
<rect width="40" height="40" fill="white"/>
</clipPath>
</defs>
</svg>
