<svg width="40" height="40" viewBox="0 0 40 40" fill="none" xmlns="http://www.w3.org/2000/svg">
<path d="M22.5 22.5H17.5C16.1193 22.5 15 23.6193 15 25V35C15 36.3807 16.1193 37.5 17.5 37.5H22.5C23.8807 37.5 25 36.3807 25 35V25C25 23.6193 23.8807 22.5 22.5 22.5Z" fill="#BD0318"/>
<path d="M10 26.25H5C3.61929 26.25 2.5 27.3693 2.5 28.75V35C2.5 36.3807 3.61929 37.5 5 37.5H10C11.3807 37.5 12.5 36.3807 12.5 35V28.75C12.5 27.3693 11.3807 26.25 10 26.25Z" fill="#BD0318"/>
<path d="M35 16.25H30C28.6193 16.25 27.5 17.3693 27.5 18.75V35C27.5 36.3807 28.6193 37.5 30 37.5H35C36.3807 37.5 37.5 36.3807 37.5 35V18.75C37.5 17.3693 36.3807 16.25 35 16.25Z" fill="#BD0318"/>
<path d="M7.4998 21.25C7.60392 21.2499 7.70763 21.2369 7.80855 21.2113C12.2826 20.0715 16.5874 18.3484 20.6123 16.0863C24.9939 13.6102 28.9973 10.5178 32.4998 6.90375V10C32.4998 10.3315 32.6315 10.6495 32.8659 10.8839C33.1003 11.1183 33.4183 11.25 33.7498 11.25C34.0813 11.25 34.3993 11.1183 34.6337 10.8839C34.8681 10.6495 34.9998 10.3315 34.9998 10V3.75C34.9998 3.41848 34.8681 3.10054 34.6337 2.86612C34.3993 2.6317 34.0813 2.5 33.7498 2.5H27.4998C27.1683 2.5 26.8503 2.6317 26.6159 2.86612C26.3815 3.10054 26.2498 3.41848 26.2498 3.75C26.2498 4.08152 26.3815 4.39946 26.6159 4.63388C26.8503 4.8683 27.1683 5 27.4998 5H30.8448C27.479 8.51112 23.6192 11.5127 19.3873 13.91C15.5532 16.0627 11.4526 17.7018 7.19105 18.785C6.89235 18.8571 6.63069 19.0367 6.45601 19.2895C6.28133 19.5423 6.20588 19.8506 6.24407 20.1554C6.28226 20.4603 6.43141 20.7405 6.66304 20.9424C6.89467 21.1443 7.19255 21.2538 7.4998 21.25Z" fill="#BD0318"/>
</svg>
