<svg width="40" height="40" viewBox="0 0 40 40" fill="none" xmlns="http://www.w3.org/2000/svg">
<path d="M11.0723 9.25692L14.1941 10.9655C14.5949 11.1834 14.7426 11.6826 14.5246 12.0834C14.4473 12.224 14.3348 12.3365 14.1941 12.4139L11.0723 14.1154C10.9317 14.1927 10.8192 14.3052 10.7419 14.4459L9.03332 17.5677C8.81536 17.9684 8.31615 18.1161 7.91538 17.8981C7.77475 17.8208 7.66226 17.7083 7.58491 17.5677L5.88339 14.4459C5.80605 14.3052 5.69355 14.1927 5.55293 14.1154L2.43112 12.4139C2.03035 12.1959 1.8827 11.6967 2.10066 11.2959C2.178 11.1553 2.2905 11.0428 2.43112 10.9655L5.55293 9.25692C5.69355 9.17957 5.80605 9.06708 5.88339 8.92646L7.59195 5.81168C7.80991 5.41091 8.31615 5.26326 8.71692 5.48825C8.85051 5.56559 8.96301 5.67809 9.04035 5.81168L10.7489 8.92646C10.8192 9.06708 10.9317 9.17957 11.0723 9.25692Z" fill="#BD0318"/>
<path d="M34.3106 25.9217L37.4324 27.6302C37.8332 27.8482 37.9808 28.3474 37.7629 28.7482C37.6855 28.8888 37.573 29.0013 37.4324 29.0786L34.3106 30.7872C34.17 30.8645 34.0575 30.977 33.9802 31.1177L32.2716 34.2395C32.0536 34.6402 31.5474 34.7879 31.1466 34.5699C31.006 34.4926 30.8935 34.3801 30.8162 34.2395L29.1217 31.1106C29.0443 30.97 28.9318 30.8575 28.7912 30.7802L25.6694 29.0716C25.2686 28.8536 25.121 28.3474 25.3389 27.9466C25.4163 27.806 25.5288 27.6935 25.6694 27.6162L28.7912 25.9076C28.9318 25.8303 29.0443 25.7178 29.1217 25.5771L30.8302 22.4624C31.0482 22.0616 31.5544 21.9139 31.9552 22.1319C32.0958 22.2093 32.2083 22.3218 32.2857 22.4624L33.9942 25.5842C34.0575 25.7318 34.17 25.8443 34.3106 25.9217Z" fill="#BD0318"/>
<path d="M20.7961 5.68481L22.8421 6.80275C23.1023 6.95041 23.2007 7.28087 23.0601 7.54102C23.0109 7.63242 22.9335 7.70273 22.8421 7.75898L20.7961 8.87693C20.7047 8.92614 20.6273 9.00349 20.5781 9.09489L19.4602 11.1409C19.3125 11.4011 18.982 11.4995 18.7219 11.3589C18.6305 11.3097 18.5602 11.2323 18.5039 11.1409L17.386 9.09489C17.3368 9.00349 17.2594 8.92614 17.168 8.87693L15.122 7.75898C14.8618 7.61836 14.7634 7.2879 14.904 7.02072C14.9532 6.92931 15.0306 6.85197 15.122 6.80275L17.168 5.68481C17.2594 5.63559 17.3368 5.55825 17.386 5.46685L18.5039 3.4208C18.6516 3.16065 18.982 3.06221 19.2422 3.20283C19.3336 3.25205 19.4039 3.32939 19.4602 3.4208L20.5781 5.46685C20.6273 5.55825 20.7047 5.63559 20.7961 5.68481Z" fill="#BD0318"/>
<path d="M37.1996 6.62063L34.3098 3.73085C33.2411 2.66212 31.5044 2.65509 30.4286 3.72382C30.4286 3.72382 30.4286 3.72382 30.4216 3.73085L4.65965 29.4998C3.59093 30.5685 3.58389 32.3052 4.65965 33.381L7.54943 36.2708C8.61816 37.3395 10.3548 37.3465 11.4306 36.2708L37.1996 10.5018C38.2683 9.43307 38.2683 7.69639 37.1996 6.62063ZM27.1521 16.3657L24.5647 13.7783L32.1934 6.14252L34.7809 8.72996L27.1521 16.3657Z" fill="#BD0318"/>
</svg>
