<svg width="40" height="40" viewBox="0 0 40 40" fill="none" xmlns="http://www.w3.org/2000/svg">
<path d="M15.8755 2H4.62509C3.17754 2 2 3.17754 2 4.62509V11.3753C2 12.8229 3.17754 14.0004 4.62509 14.0004H15.8755C17.323 14.0004 18.5006 12.8229 18.5006 11.3753V4.62509C18.5006 3.17754 17.323 2 15.8755 2Z" fill="#BD0318"/>
<path d="M15.8755 17H4.62509C3.17754 17 2 18.1775 2 19.6251V35.3756C2 36.8232 3.17754 38.0007 4.62509 38.0007H15.8755C17.323 38.0007 18.5006 36.8232 18.5006 35.3756V19.6251C18.5006 18.1775 17.323 17 15.8755 17Z" fill="#BD0318"/>
<path d="M35.3755 26H24.1251C22.6775 26 21.5 27.1775 21.5 28.6251V35.3753C21.5 36.8229 22.6775 38.0004 24.1251 38.0004H35.3755C36.823 38.0004 38.0006 36.8229 38.0006 35.3753V28.6251C38.0006 27.1775 36.823 26 35.3755 26Z" fill="#BD0318"/>
<path d="M35.3755 2H24.1251C22.6775 2 21.5 3.17754 21.5 4.62509V20.3756C21.5 21.8232 22.6775 23.0007 24.1251 23.0007H35.3755C36.823 23.0007 38.0006 21.8232 38.0006 20.3756V4.62509C38.0006 3.17754 36.823 2 35.3755 2Z" fill="#BD0318"/>
</svg>
