<svg width="40" height="40" viewBox="0 0 40 40" fill="none" xmlns="http://www.w3.org/2000/svg">
<path d="M36.7902 10.296C36.7424 9.24365 36.7424 8.23916 36.7424 7.23468C36.7424 6.42152 36.1206 5.7997 35.3074 5.7997C29.3283 5.7997 24.7842 4.07773 21.0055 0.394619C20.4315 -0.13154 19.5705 -0.13154 18.9965 0.394619C15.2177 4.07773 10.6736 5.7997 4.69454 5.7997C3.88139 5.7997 3.25957 6.42152 3.25957 7.23468C3.25957 8.23916 3.25957 9.24365 3.21173 10.296C3.0204 20.3408 2.73341 34.1166 19.5226 39.9043L20.001 40L20.4793 39.9043C37.2207 34.1166 36.9815 20.3886 36.7902 10.296ZM18.853 24.2152C18.566 24.4544 18.2312 24.5979 17.8485 24.5979H17.8007C17.418 24.5979 17.0353 24.4066 16.7962 24.1196L12.3478 19.1928L14.5002 17.2795L17.992 21.154L25.7409 13.7877L27.702 15.8924L18.853 24.2152Z" fill="#BD0318"/>
</svg>
