<svg width="40" height="40" viewBox="0 0 40 40" fill="none" xmlns="http://www.w3.org/2000/svg">
<path d="M38.75 16.875V23.125C38.75 24.8486 37.3486 26.25 35.625 26.25H34.7742C33.5791 33.3325 27.4182 38.75 20 38.75C19.3091 38.75 18.75 38.1909 18.75 37.5C18.75 36.8091 19.3091 36.25 20 36.25C26.8921 36.25 32.5 30.6421 32.5 23.75V16.25C32.5 9.35791 26.8921 3.75 20 3.75C13.1079 3.75 7.5 9.35791 7.5 16.25V25C7.5 25.6909 6.94092 26.25 6.25 26.25H4.375C2.65137 26.25 1.25 24.8486 1.25 23.125V16.875C1.25 15.1514 2.65137 13.75 4.375 13.75H5.22583C6.4209 6.66748 12.5818 1.25 20 1.25C27.4182 1.25 33.5791 6.66748 34.7742 13.75H35.625C37.3486 13.75 38.75 15.1514 38.75 16.875ZM20 6.25C14.4861 6.25 10 10.7361 10 16.25V22.5C10 28.0139 14.4861 32.5 20 32.5C25.5139 32.5 30 28.0139 30 22.5V16.25C30 10.7361 25.5139 6.25 20 6.25Z" fill="#BD0318"/>
</svg>
