<svg width="40" height="40" viewBox="0 0 40 40" fill="none" xmlns="http://www.w3.org/2000/svg">
<path d="M30.5887 16.4699V11.764C30.5887 5.88166 25.8828 1.17578 20.0005 1.17578C14.1181 1.17578 9.41222 5.88166 9.41222 11.764V16.4699C7.41222 16.4699 5.88281 17.9993 5.88281 19.9993V35.2934C5.88281 37.1758 7.41222 38.8228 9.41222 38.8228H30.5887C32.5887 38.8228 34.1181 37.1758 34.1181 35.2934V19.9993C34.1181 17.9993 32.5887 16.4699 30.5887 16.4699ZM11.7652 11.764C11.7652 7.17578 15.4122 3.52872 20.0005 3.52872C24.5887 3.52872 28.2358 7.17578 28.2358 11.764V16.4699H11.7652V11.764ZM21.1769 29.1758V31.764C21.1769 32.4699 20.7063 32.9405 20.0005 32.9405C19.2946 32.9405 18.824 32.4699 18.824 31.764V29.1758C17.4122 28.7052 16.471 27.4111 16.471 25.8817C16.471 23.8817 18.0005 22.3523 20.0005 22.3523C22.0005 22.3523 23.5299 23.8817 23.5299 25.8817C23.5299 27.4111 22.5887 28.7052 21.1769 29.1758Z" fill="#BD0318"/>
</svg>
