<svg width="200" height="64" viewBox="0 0 200 64" fill="none" xmlns="http://www.w3.org/2000/svg">
<path d="M64.6373 54.4165H56.4955C53.3868 54.4165 51.1169 53.7016 49.6489 52.2963C48.181 50.8911 47.4531 48.8818 47.4531 46.2316V33.6953H50.4755V46.4658C50.4755 48.2408 51.0059 49.5968 52.0668 50.5213C53.1277 51.4458 54.6081 51.9019 56.5201 51.9019H64.6866C66.3027 51.9019 67.709 51.4828 68.8562 50.6076C70.1268 49.6584 70.7436 48.3518 70.7436 46.737V33.72H73.6673V54.4165H70.7436V51.8156C70.2132 52.3949 69.7321 52.8264 69.288 53.1099C67.931 53.9974 66.389 54.4165 64.6373 54.4165Z" fill="#BD0318"/>
<path d="M81.4012 25.2637H78.3789V54.3424H81.4012V25.2637Z" fill="#BD0318"/>
<path d="M90.9247 25.2637H87.9023V54.3424H90.9247V25.2637Z" fill="#BD0318"/>
<path d="M119.84 36.0247C118.323 34.4099 115.967 33.584 112.759 33.584H104.457C101.324 33.584 98.9921 34.3482 97.4501 35.8891C96.0685 37.2697 95.4023 39.205 95.4023 41.695V46.1942C95.4023 48.8938 96.1425 50.94 97.6352 52.3206C99.1155 53.7012 101.398 54.3915 104.42 54.3915H112.722C115.856 54.3915 118.187 53.5656 119.754 51.9261C121.111 50.4962 121.765 48.5856 121.765 46.2065V41.7073C121.802 39.3036 121.135 37.4053 119.84 36.0247ZM118.779 46.2312C118.779 48.1665 118.224 49.5964 117.139 50.5209C116.028 51.4454 114.511 51.9261 112.549 51.9261H104.667C100.497 51.9261 98.437 50.0155 98.437 46.2312V41.7196C98.437 39.7597 98.9428 38.3544 99.979 37.4546C101.015 36.5547 102.582 36.0986 104.679 36.0986H112.562C114.573 36.0986 116.115 36.5794 117.176 37.5285C118.236 38.4777 118.792 39.8829 118.792 41.695V46.2312H118.779Z" fill="white"/>
<path d="M169.385 40.894V54.3301H166.362V41.4857C166.362 39.8216 165.782 38.5149 164.61 37.6151C163.439 36.6906 161.773 36.2345 159.602 36.2345H156.493C154.187 36.2345 152.41 36.7152 151.164 37.6397C149.918 38.5642 149.314 39.9941 149.314 41.9048V54.3301H146.291V41.8062C146.291 41.1405 146.217 40.5612 146.057 40.0065C146.057 39.9818 146.032 39.9325 146.032 39.8955C145.761 38.971 145.268 38.1698 144.466 37.5658C143.701 36.9864 142.739 36.555 141.579 36.3701C141.394 36.3454 141.209 36.2961 140.999 36.2961C140.543 36.2468 140.099 36.2222 139.593 36.2222H136.275C136.139 36.2222 136.003 36.2222 135.88 36.2222C133.783 36.2715 132.167 36.7522 130.995 37.6274C129.749 38.5519 129.132 39.9818 129.132 41.8925V54.3178H126.184V33.6952H129.206V35.4209C130.612 34.2869 132.709 33.6952 135.497 33.6952H140.197C143.035 33.6952 145.268 34.4101 146.908 35.8154C147.389 36.2098 147.784 36.6659 148.105 37.1097C148.376 36.5057 148.685 36.0496 149.03 35.7044C150.436 34.3485 152.632 33.6582 155.667 33.6582H160.367C163.204 33.6582 165.437 34.3732 167.078 35.7784C168.583 37.1836 169.385 38.8601 169.385 40.894Z" fill="white"/>
<path d="M139.561 36.2344C140.043 36.2344 140.511 36.259 140.968 36.3083C140.487 36.259 139.956 36.2344 139.426 36.2344H139.561Z" fill="white"/>
<path d="M140.977 36.3203C141.186 36.345 141.371 36.3696 141.556 36.3943C141.371 36.3696 141.162 36.345 140.977 36.3203Z" fill="white"/>
<path d="M146.276 41.8063V54.3426H146.227V41.4858C146.227 40.9558 146.177 40.475 146.066 40.0312C146.202 40.5613 146.276 41.1653 146.276 41.8063Z" fill="white"/>
<path d="M198.051 36.0247C196.534 34.4099 194.178 33.584 190.97 33.584H182.668C179.535 33.584 177.203 34.3482 175.661 35.8891C174.279 37.2697 173.613 39.205 173.613 41.695V46.1942C173.613 48.8938 174.353 50.94 175.846 52.3206C177.339 53.7012 179.609 54.3915 182.631 54.3915H190.958C194.091 54.3915 196.423 53.5656 197.989 51.9261C199.346 50.4962 200 48.5856 200 46.2065V41.7073C200.012 39.3036 199.346 37.4053 198.051 36.0247ZM196.99 46.2312C196.99 48.1665 196.435 49.5964 195.349 50.5209C194.239 51.4454 192.722 51.9261 190.76 51.9261H182.878C178.708 51.9261 176.648 50.0155 176.648 46.2312V41.7196C176.648 39.7597 177.154 38.3544 178.19 37.4546C179.226 36.5547 180.793 36.0986 182.89 36.0986H190.773C192.784 36.0986 194.326 36.5794 195.386 37.5285C196.447 38.4777 197.002 39.8829 197.002 41.695V46.2312H196.99Z" fill="white"/>
<path d="M36.5221 32.4507C36.5221 37.0485 31.1559 37.8498 26.7766 39.255C23.7419 40.2288 21.1884 41.3752 19.1529 43.0763C14.2185 47.2427 11.3072 53.0116 10.715 59.8037C10.604 60.9254 10.6163 62.0471 10.53 63.1689C5.99031 59.3476 2.38818 54.0224 0.796822 48.4877C-1.43601 40.7466 1.19158 33.0917 6.58244 27.0516C6.58244 27.0516 4.43597 23.9822 3.79449 21.862C3.79449 21.862 7.13757 21.0731 9.39507 22.1825C9.39507 22.1825 1.41363 7.63699 19.8437 0.820312C14.6996 4.74021 11.1961 11.5322 15.23 17.2765C17.4629 20.4568 21.3364 23.7727 25.2839 24.9314C29.0464 26.0285 36.5221 27.8405 36.5221 32.4507Z" fill="#BD0318"/>
<path d="M31.9073 25.1519C30.2913 24.326 28.4039 23.7959 26.8125 23.4261C32.3514 19.0008 27.0716 13.2812 27.0716 13.2812C34.5102 17.6079 33.0299 22.9331 31.9073 25.1519Z" fill="#BD0318"/>
<path d="M42.7651 42.8053C42.1113 40.9317 40.6679 39.4894 38.7312 38.984C39.681 38.6882 40.4582 38.1581 41.0627 37.3446C41.9385 36.2352 42.358 34.6697 42.358 32.6851C42.358 28.1858 39.3603 26.2752 33.8708 25.8438C34.1915 25.9793 34.5122 26.1396 34.8206 26.2998C37.8676 27.89 39.4096 29.9855 39.4096 32.5002C39.4096 34.8916 37.9293 37.1104 35.5361 38.3061C33.1676 39.4894 30.3796 39.6867 27.9001 40.5865C25.1985 41.5357 22.7313 42.9163 20.6588 44.6667C17.9079 46.9594 15.1569 50.8423 13.9727 54.2815H33.0196C36.523 54.2815 39.0396 53.6775 40.6309 52.4571C42.358 51.1012 43.2338 48.8824 43.2338 45.7514C43.2092 44.642 43.0735 43.6559 42.7651 42.8053ZM38.7065 50.0164C37.6949 50.9163 36.1899 51.3724 34.2038 51.3724H18.6727C22.2748 45.5665 28.7513 41.6959 36.1529 41.6959C36.449 41.6959 36.708 41.6959 37.0041 41.7206C38.5461 41.7699 39.8414 42.9163 40.1128 44.4201C40.1868 44.8392 40.2238 45.2953 40.2238 45.7761C40.2115 47.7114 39.7057 49.1412 38.7065 50.0164Z" fill="#BD0318"/>
</svg>
