<?xml version="1.0" encoding="utf-8"?>
<!-- Generator: Adobe Illustrator 26.0.1, SVG Export Plug-In . SVG Version: 6.00 Build 0)  -->
<svg version="1.1" id="Слой_1" xmlns="http://www.w3.org/2000/svg" xmlns:xlink="http://www.w3.org/1999/xlink" x="0px" y="0px"
	 viewBox="0 0 188 78" style="enable-background:new 0 0 188 78;" xml:space="preserve">
<style type="text/css">
	.st0{clip-path:url(#SVGID_00000065074539538039463180000000320059130486717106_);}
	.st1{fill:#FFFFFF;}
</style>
<g>
	<defs>
		<rect id="SVGID_1_" width="188" height="78"/>
	</defs>
	<clipPath id="SVGID_00000107550262969689847630000017175759919957186972_">
		<use xlink:href="#SVGID_1_"  style="overflow:visible;"/>
	</clipPath>
	<g style="clip-path:url(#SVGID_00000107550262969689847630000017175759919957186972_);">
		<path class="st1" d="M94.6,8.8c1.3,0.1,2.5,0.5,3.5,1.4c1.3,1.2,1.7,3.3,1,5c-2.4,5-8.2,8.3-12.1,9.4c-2.4,0.5-5.3,0.5-7.5-0.3
			c-1,0.6-1.9,2.6-3.2,1.8c-1.8-1.4-0.2-3.7-1.3-5.2c-0.2-0.3-0.8-0.3-1-0.9c-1.5-3.2,0.3-6.2,2.4-8.6C79.7,7.6,89.2,3.4,94.6,8.8z
			 M83.4,11.3c-1.9,0.3-4,1.2-5.1,2.5c-1.1,1.3-1.9,2.6-1.2,4c2.4-1.8,3.6-4.3,6.3-5.8C83.4,11.7,83.9,11.5,83.4,11.3z M94.7,12
			c-4.8-0.4-8.4,3.2-11.8,6.6c-0.2,0.5-1.5,1.2-0.5,1.8c4.6,0.4,8.9-0.9,12.2-3.9c1-0.9,1.7-2.1,1.2-3.3
			C95.7,12.7,95.2,12.2,94.7,12z M136.1,32.5c2.2,5.4,4.1,13.8,0,19c-1.1,1.2-3,2.4-4.3,1.4c-4.6-3.6-6.5-8.9-9.3-13.5
			c-0.4-0.2-0.4,0.3-0.6,0.6c-1,4.7,0.9,10.9-2.4,14.6c-1.2,0.2-2.4-0.4-2.8-1.6c-1.6-4.9,0.1-10,0.5-14.9c1-2.5,1.4-5.4,3.5-7.2
			c3.5,1.4,5.1,5.2,7.1,8c1.5,2.1,2.6,4.5,4.3,6.5c1.5-0.6,0.7-2.5,0.7-3.6c-0.6-4.5-1.8-8.6-3-12.9c-0.1-1.1-0.7-3,0.5-3.6
			C133.4,26.6,134.7,29.8,136.1,32.5z M115.2,30.8c0,1-0.8,2.3-1.5,2.5c-6.6,1-14,0.4-20.3,2.5c-0.2,0.8,0.7,0.9,1.2,1.1
			c5.3,0.8,10.9,1,16.1,2.3c2.7,0.7,3.7,3.9,3.9,6.6c0.1,2.1-0.7,4.7-2.8,6.1c-5.1,3.2-12.9,3.1-18.1,0.1c-2-1.1-3.9-2.9-4-5.1
			c0-1.7,0.8-3.1,2-3.8c5-2,11.1-0.9,15.4,1.6c0.3,1.4-1.2,1.3-1.9,1.8c-4.8,2.8-8.4-3.1-12.8-1c-0.6,0.4-1.1,1.6-0.3,1.9
			c5.5,2.4,11.6,0.7,17-0.8c0.6-0.2,1.4-0.8,1.5-1.4c-0.2-2.2-2.7-2.7-4.3-3.3c-4.7-1.2-9.9-1.2-14.9-1.6c-1-0.2-2.2-0.9-2.5-1.6
			c-0.6-1.6-0.6-3.9,0.7-5.3c6.4-5.6,16.2-5.2,24.4-3.6C114.4,30,115,30.2,115.2,30.8z M85,33.4c0.6,6.6,1,12.7,0.8,19.7
			c-0.1,0.9-1.2,1.1-1.9,1.4c-1.1,0.2-2.5,0-3-0.6c-1.6-2.5-1-6-1.2-9.1c0.2-4.9,0.1-10.2,1.5-14.7c0.3-0.7,1-1.2,1.7-0.8
			C84.6,30.1,84.9,31.8,85,33.4z M161.8,32.5c0.3,0.6,0.7,1.4,0,1.8c-3.1,1.4-7.3,0.8-10.9,1.2c-1,0.8-1.7,2.2-1.4,3.4
			c0.3,0.2,0.7,0.5,1,0.5c2.2,0.1,5.5-1,7,1c0.4,0.6,0,2.9-1,3c-2.7,0.3-7.1-0.3-8.4,0.3c-1.7,1.1-1.5,3.2-2.1,5
			c1.2,0.8,2.4,0,3.8-0.2c2.6-0.4,5.4-1.2,8-0.6c0.5,0.9,1.2,1.9,0.7,3c-4.4,3.4-10,7-16,4.5c-2.2-1-3.3-4.4-2.5-7.3
			c0.5-2.1,2.6-4.1,1.3-6.3c-0.2-1,0.3-1.8,1.2-2c2.3,0,1.8-2.8,3-4.1c-1.3-1.4-4.6-1.4-4.3-4.3c1.6-0.8,3.5-0.5,5.3-0.8
			c4.1-0.8,8.6-1.3,12.8-0.8C160,29.8,161.2,31.4,161.8,32.5z M63,16.8c6.4,5.2,14.7,14,13.6,24.2c-1.2,8-9.8,14.1-17.1,16
			c-7.1,2.1-15.9,1.9-23.1,0.2c-0.5,1.3-1,2.9-2.5,3.4c-1,0.3-2.2,0.1-3-0.5c-2.1-2-0.4-5.8-3.5-7.1c-6.1-2.5-12.7-7.6-15.8-13.8
			c-0.4-1.2,0.1-2.5,0.8-3.4c4.8-3.8,10.8-5.3,16.8-6.5c0.3,0.1,0.2-0.3,0.5-0.5c0.3-4.1,0.5-8.3,1.8-12c0.3-0.5,1-0.7,1.5-0.3
			c3.8,2.9,2,8.3,3.7,12.2c7.3,0.3,14.5,0.7,20.3,4.7c1.9,1.6,2.4,4.6,1.8,6.3c-0.6,1.7-2.6,3-4.5,3.1c-1.2,0-3.6,0.1-3.5-0.8
			c0.1-0.9,4.2-2.5,3-3.8c-1.8-1.9-10.9-3-16.5-3.6c-0.7-0.1-1.3,0.1-1.3,0.8c-0.1,5.2-0.6,11,0.3,16c0.1,0.3,0.5,0.8,0.8,0.8
			c9.9,1.6,20.3,0.7,28.1-5c3.6-2.9,4.8-6.9,4.2-11.4c-3.1-12.4-16.2-19.9-26.9-24.8C32.2,6.7,20.6,4.4,8.2,5
			c-2,0.1-5.1,0.8-5.1,1.5c0,0.7,3.5,0.5,3.1,1.8c-0.4,1.3-4,0.5-5.1,0.2C0,8.2,0.1,6.7,0.4,5.7C3.1,1,10.6,0.6,14,0.4
			C32.8-0.1,51,7.1,63,16.8z M29.1,35.2c-4.8,0.1-9.8,0.5-14.3,2.2c-0.9,0.3-2,1.3-1.3,2.5c1.8,2.4,4.4,4.4,6.8,5.8
			c2.4,1.4,5.6,3.2,8.5,3.6c0.7-4.5,0.7-8.9,0.6-13.5C29.2,35.6,29.5,35.4,29.1,35.2z M172.2,29c-0.2,6-5.8,9.7-5.8,15.7
			c0.2,0.2,0.3,0.5,0.6,0.3c4.5-4.9,8.9-11.8,15.5-13.9c1.7-0.1,3.3,1.4,3.9,2.5c2.3,4.5,1.7,10.9-1.5,15.1c-3.3,4-9,8.1-15.5,7.4
			c-2.7,6.6-4.6,13.5-5.6,20.8c-0.6,1.4-1.9,0.1-2.7-0.1c-5.6-4.4-1-16.1-0.6-17.5c0.4-1.5,1.9-5,3-7.9c-2.6-4.7-1-10.3,1.2-14.6
			c1.7-2.9,3.9-5.8,6.6-8C171.7,28.6,171.9,28.7,172.2,29z M183.3,36.4c-0.8-0.1-1.2,1-1.9,1.2c-3.2,3.6-6.4,7.2-8,11.4
			c2.1,0.3,3.9-1.1,5.8-1.9c3.2-2,5.2-5.3,5-9.1C184.1,37.4,183.6,36.9,183.3,36.4z"/>
	</g>
</g>
</svg>
