<svg width="48" height="48" viewBox="0 0 48 48" fill="none" xmlns="http://www.w3.org/2000/svg">
<path d="M24.0077 43.6938L29.5411 12.5733C34.8155 12.5733 36.4792 13.1517 36.7194 15.5124C36.7194 15.5124 40.2576 14.1932 42.0421 11.5138C35.0783 8.28693 28.0814 8.14141 28.0814 8.14141L23.9985 13.1143L24.0077 13.1137L19.9248 8.14062C19.9248 8.14062 12.9277 8.28631 5.96484 11.5132C7.74782 14.1926 11.2874 15.5118 11.2874 15.5118C11.529 13.1509 13.1907 12.5726 18.4296 12.5688L24.0077 43.6938Z" fill="#E82127"/>
<path d="M24.0033 6.70441C29.6325 6.66136 36.0758 7.57523 42.6717 10.45C43.5533 8.86329 43.7799 8.16202 43.7799 8.16202C36.5696 5.30935 29.8172 4.33308 24.0025 4.30859C18.1881 4.33308 11.436 5.3095 4.22656 8.16202C4.22656 8.16202 4.54819 9.02582 5.334 10.45C11.9287 7.57523 18.3731 6.66136 24.0025 6.70441H24.0033Z" fill="#E82127"/>
</svg>
