<svg width="3344" height="128" viewBox="0 0 3344 128" fill="none" xmlns="http://www.w3.org/2000/svg">
<rect width="320" height="128" rx="16" fill="white" fill-opacity="0.08"/>
<path d="M109.699 101.671H210.303V26.3301L109.699 26.3301V101.671Z" fill="#C0311A"/>
<mask id="mask0_2277_22226" style="mask-type:luminance" maskUnits="userSpaceOnUse" x="109" y="26" width="102" height="76">
<path d="M109.699 101.67H210.303V26.3291H109.699V101.67Z" fill="white"/>
</mask>
<g mask="url(#mask0_2277_22226)">
<path d="M170.205 39.6023H185.6V54.0078H170.205V39.6023ZM179.905 41.6069C179.837 41.5957 179.769 41.5846 179.697 41.5734L179.613 41.5623C179.495 41.5456 179.376 41.533 179.257 41.5205C179.173 41.5135 179.091 41.5079 179.012 41.5023C178.864 41.494 178.72 41.4898 178.583 41.4898C178.518 41.4898 178.483 41.4912 178.42 41.4926C178.305 41.494 178.193 41.4996 178.078 41.5051C178.016 41.5093 177.953 41.5163 177.891 41.5205C177.801 41.5286 177.71 41.5389 177.62 41.5511L177.547 41.5609L177.463 41.572L177.362 41.5874C177.317 41.5957 177.273 41.6027 177.228 41.6111C177.168 41.6217 177.108 41.6338 177.049 41.6473C176.703 41.7191 176.363 41.8194 176.034 41.947C175.877 42.0064 175.723 42.0734 175.573 42.1478C175.452 42.2047 175.333 42.267 175.218 42.3346C175.111 42.3952 175.005 42.4599 174.903 42.5283C174.844 42.5657 174.787 42.6048 174.73 42.6454C174.683 42.6803 174.635 42.7151 174.59 42.7486C174.492 42.8252 174.398 42.9005 174.308 42.9786C174.227 43.0499 174.148 43.1233 174.071 43.1988C174.006 43.2619 173.943 43.3275 173.882 43.3954C173.82 43.464 173.759 43.5341 173.7 43.6059C173.638 43.6839 173.574 43.7648 173.513 43.847C173.469 43.9098 173.427 43.9725 173.385 44.0366C173.355 44.0784 173.327 44.123 173.298 44.1677C173.135 44.4346 172.997 44.7149 172.883 45.0054C172.734 45.3913 172.631 45.7932 172.577 46.2029C172.559 46.3385 172.546 46.4747 172.538 46.6113C172.525 46.8002 172.523 46.9896 172.532 47.1787C172.538 47.2623 172.545 47.3459 172.555 47.4268L172.56 47.4853C172.573 47.5815 172.588 47.6777 172.606 47.7725C172.615 47.8101 172.621 47.8464 172.629 47.8826C172.647 47.9621 172.664 48.0388 172.686 48.1168C172.713 48.2144 172.741 48.312 172.773 48.4068C172.814 48.5253 172.856 48.6382 172.901 48.7497C172.977 48.9253 173.058 49.0954 173.145 49.2543C173.198 49.3477 173.25 49.4397 173.306 49.5261C173.349 49.5958 173.393 49.6641 173.439 49.7297C173.499 49.8161 173.563 49.8983 173.623 49.9778C173.687 50.0614 173.756 50.1409 173.821 50.2148C173.903 50.3096 173.986 50.3946 174.066 50.4741L174.109 50.5159C174.175 50.5786 174.247 50.6483 174.329 50.7166C174.387 50.764 174.443 50.8142 174.507 50.8644C174.565 50.9104 174.628 50.9578 174.692 51.0052C174.77 51.0595 174.852 51.1153 174.939 51.1724C175.03 51.231 175.128 51.2895 175.231 51.3453C175.448 51.4666 175.674 51.5742 175.905 51.6673C175.996 51.7035 176.092 51.7384 176.192 51.7719C176.289 51.8053 176.389 51.836 176.494 51.8666C176.67 51.9168 176.856 51.9614 177.052 51.9991C177.21 52.0297 177.374 52.0548 177.544 52.0757C177.712 52.0953 177.884 52.1106 178.065 52.1204C178.155 52.1245 178.243 52.1273 178.334 52.1301H178.459C178.783 52.1301 179.083 52.119 179.361 52.0953L179.414 52.0911C179.525 52.0813 179.631 52.0702 179.735 52.0562C179.893 52.0381 180.046 52.0144 180.188 51.9879C180.28 51.9726 180.367 51.9545 180.453 51.9363C180.584 51.9085 180.712 51.8778 180.831 51.8457C180.921 51.8234 181.006 51.7983 181.088 51.7719C181.187 51.7426 181.283 51.7119 181.374 51.6812L181.461 51.6506C181.504 51.6352 181.563 51.6129 181.634 51.5865C181.727 51.5502 181.839 51.507 181.967 51.4526C182.042 51.4206 182.125 51.3843 182.209 51.3453C182.285 51.3118 182.362 51.2728 182.442 51.2338C182.476 51.2184 182.508 51.2017 182.543 51.185V49.2209C182.522 49.2362 182.497 49.2501 182.474 49.2641L182.337 49.3463C182.207 49.4253 182.075 49.5011 181.941 49.5735C181.579 49.7707 181.203 49.9399 180.814 50.0795C180.384 50.2343 179.987 50.3319 179.638 50.3918C179.598 50.3988 179.557 50.4058 179.516 50.4113C179.421 50.4267 179.328 50.4392 179.24 50.4476C179.113 50.4616 178.986 50.4709 178.859 50.4754C178.789 50.4792 178.72 50.4811 178.65 50.481C178.508 50.481 178.364 50.4768 178.218 50.4671C178.046 50.4531 177.872 50.435 177.694 50.4071C177.408 50.3583 177.12 50.2859 176.841 50.1841C176.801 50.1702 176.757 50.1534 176.72 50.1381C176.69 50.1269 176.663 50.1158 176.637 50.1046C176.591 50.0851 176.544 50.0656 176.499 50.0447C176.401 50.0001 176.306 49.9499 176.213 49.8969C176.167 49.8705 176.121 49.844 176.075 49.8147C176.027 49.7854 175.979 49.7548 175.935 49.7227C175.876 49.6823 175.82 49.6418 175.763 49.5986C175.71 49.5554 175.656 49.5108 175.608 49.4718L175.543 49.4132L175.511 49.3826L175.492 49.3658L175.468 49.3407C175.379 49.2543 175.298 49.1651 175.224 49.0773C175.182 49.0271 175.144 48.9769 175.106 48.9267C175.07 48.8793 175.036 48.8291 175.004 48.7817C174.932 48.6701 174.866 48.5547 174.806 48.436C174.777 48.3775 174.749 48.3189 174.725 48.2604C174.683 48.1614 174.646 48.0611 174.617 47.9663C174.592 47.8924 174.572 47.8199 174.555 47.7488C174.5 47.5439 174.475 47.3557 174.46 47.1968C174.456 47.1355 174.451 47.0783 174.449 47.0267C174.443 46.9473 174.443 46.879 174.443 46.8246C174.443 46.7883 174.443 46.7479 174.444 46.7005C174.45 46.5876 174.458 46.4454 174.484 46.2837C174.498 46.1847 174.517 46.0802 174.542 45.9687C174.562 45.8962 174.582 45.8209 174.606 45.7443C174.628 45.6746 174.653 45.6049 174.68 45.5324C174.699 45.4822 174.719 45.4348 174.742 45.386C174.77 45.3191 174.802 45.2536 174.837 45.1853C174.862 45.1351 174.892 45.0849 174.921 45.0333C174.987 44.9218 175.058 44.8103 175.144 44.7002C175.173 44.6597 175.204 44.6207 175.238 44.5817C175.278 44.5315 175.322 44.4799 175.37 44.4311C175.392 44.406 175.416 44.3809 175.441 44.3558C175.801 43.9962 176.209 43.7271 176.631 43.5362C176.696 43.5055 176.763 43.479 176.83 43.4539C176.896 43.426 176.962 43.4037 177.031 43.38C177.102 43.3563 177.178 43.334 177.251 43.3131C177.32 43.2936 177.39 43.2769 177.46 43.2602C177.528 43.2448 177.6 43.2309 177.669 43.217C177.744 43.2044 177.821 43.1919 177.896 43.1821C177.973 43.1723 178.05 43.164 178.123 43.1584C178.267 43.1459 178.409 43.1403 178.548 43.1403C178.592 43.1403 178.637 43.1389 178.684 43.1403C178.786 43.1431 178.887 43.1459 178.984 43.1528C179.054 43.157 179.118 43.1612 179.183 43.1682C179.309 43.1793 179.428 43.1933 179.54 43.2128C179.644 43.2267 179.741 43.2448 179.834 43.2616C179.976 43.2908 180.106 43.3229 180.221 43.3522C180.297 43.3717 180.367 43.3926 180.429 43.4107C180.526 43.4386 180.608 43.4637 180.671 43.486C180.781 43.525 180.841 43.5459 180.841 43.5459C180.938 43.5808 181.033 43.6184 181.127 43.6547C181.253 43.7049 181.372 43.7606 181.487 43.8122C181.583 43.854 181.674 43.8986 181.759 43.9418C181.829 43.9753 181.895 44.0087 181.957 44.0408C182.065 44.0966 182.156 44.1467 182.232 44.1872L182.432 44.2959V42.3666C182.432 42.3666 182.312 42.3178 182.103 42.2384C182.01 42.2049 181.901 42.1631 181.777 42.1199C181.707 42.0948 181.636 42.0697 181.559 42.0418C181.497 42.0223 181.434 42 181.368 41.9791C181.294 41.9554 181.217 41.9303 181.138 41.9066C181.082 41.8899 181.023 41.8718 180.963 41.855L180.911 41.8397C180.854 41.8244 180.795 41.8076 180.736 41.7923C180.664 41.7728 180.593 41.7547 180.52 41.7365C180.474 41.7254 180.429 41.7142 180.38 41.7031C180.304 41.6864 180.227 41.6682 180.148 41.6529C180.069 41.6362 179.986 41.6222 179.905 41.6069ZM158.375 47.5464V50.3776H160.224C160.224 50.3776 160.26 50.3762 160.321 50.3748C160.384 50.3734 160.472 50.3692 160.577 50.3595C160.779 50.3413 161.043 50.3051 161.299 50.2187C161.532 50.1406 161.758 50.0249 161.929 49.8521C161.996 49.7865 162.052 49.7182 162.096 49.6485C162.241 49.4213 162.278 49.1899 162.283 49.0589C162.29 49.0031 162.289 48.9697 162.289 48.9697C162.289 48.9697 162.29 48.9446 162.289 48.9C162.286 48.8073 162.274 48.7153 162.251 48.6253C162.216 48.4915 162.152 48.3354 162.035 48.1932C162.013 48.1667 161.989 48.1402 161.965 48.1138C161.913 48.0619 161.856 48.014 161.797 47.9702C161.697 47.8963 161.581 47.8322 161.455 47.7792C161.289 47.7067 161.104 47.6537 160.9 47.6161C160.795 47.5966 160.684 47.5799 160.57 47.5687C160.502 47.5631 160.43 47.5576 160.357 47.5548C160.294 47.5506 160.227 47.5478 160.161 47.5478C159.506 47.5478 158.375 47.5464 158.375 47.5464ZM158.375 43.2429V45.9263H159.271C159.271 45.9263 159.33 45.9263 159.408 45.9249C159.471 45.9207 159.544 45.9179 159.61 45.9152C159.795 45.9012 160.049 45.8761 160.303 45.805C160.353 45.7911 160.403 45.7758 160.453 45.7576C160.653 45.6879 160.844 45.5848 160.992 45.4384C161.111 45.3227 161.189 45.1931 161.24 45.069C161.303 44.9143 161.327 44.7679 161.336 44.6647C161.343 44.5713 161.343 44.5114 161.343 44.5114C161.343 44.5114 161.344 44.4668 161.341 44.3971C161.336 44.2814 161.312 44.0904 161.218 43.9078C161.169 43.8135 161.105 43.7278 161.029 43.6541C160.928 43.5551 160.806 43.4799 160.675 43.4227C160.423 43.3112 160.134 43.2666 159.89 43.2512C159.787 43.2443 159.69 43.2429 159.607 43.2429H158.375Z" fill="white"/>
<path d="M152.467 39.6023H167.862V54.0078H152.467V39.6023ZM156.507 41.6222V51.9977H160.434C160.434 51.9977 162.349 52.0507 163.407 50.9982C164.267 50.1437 164.206 49.1526 164.206 49.1526C164.206 49.1526 164.267 48.1182 163.47 47.3264C162.792 46.6503 161.926 46.4705 161.926 46.4705C161.926 46.4705 162.315 46.2879 162.617 45.9896C162.758 45.8488 163.26 45.3985 163.26 44.3057C163.26 43.2044 162.523 42.5715 162.523 42.5715C162.523 42.5715 161.715 41.6222 159.893 41.6222H156.507ZM140.637 47.5464V50.3776H142.484C142.484 50.3776 142.522 50.3762 142.582 50.3748C142.646 50.3734 142.732 50.3692 142.839 50.3595C143.041 50.3413 143.304 50.3051 143.561 50.2187C143.794 50.1406 144.018 50.0249 144.192 49.8521C144.258 49.7865 144.312 49.7182 144.357 49.6485C144.503 49.4213 144.538 49.1899 144.546 49.0589C144.551 49.0031 144.551 48.9697 144.551 48.9697V48.9C144.548 48.8456 144.541 48.7397 144.513 48.6253C144.473 48.4674 144.4 48.3199 144.297 48.1932C144.275 48.165 144.25 48.1385 144.224 48.1138C144.173 48.062 144.118 48.014 144.06 47.9702C143.958 47.8963 143.841 47.8322 143.718 47.7792C143.551 47.7067 143.363 47.6537 143.16 47.6161C143.056 47.5966 142.944 47.5799 142.832 47.5687C142.762 47.5631 142.69 47.5576 142.619 47.5548C142.554 47.5503 142.489 47.548 142.424 47.5478C141.767 47.5478 140.637 47.5464 140.637 47.5464ZM140.637 43.2429V45.9263H141.531C141.531 45.9263 141.591 45.9263 141.67 45.9249C141.733 45.9207 141.806 45.9179 141.872 45.9152C142.055 45.9012 142.311 45.8761 142.566 45.805C142.615 45.7911 142.665 45.7758 142.713 45.7576C142.913 45.6879 143.105 45.5848 143.254 45.4384C143.372 45.3227 143.45 45.1931 143.504 45.069C143.565 44.9143 143.588 44.7679 143.597 44.6647C143.606 44.5713 143.604 44.5114 143.604 44.5114C143.604 44.5114 143.607 44.4668 143.603 44.3971C143.597 44.2814 143.572 44.0904 143.48 43.9078C143.435 43.82 143.373 43.7364 143.29 43.6541C143.19 43.5551 143.068 43.4799 142.937 43.4227C142.685 43.3112 142.396 43.2666 142.154 43.2512C142.059 43.2453 141.965 43.2425 141.87 43.2429H140.637Z" fill="white"/>
<path d="M134.729 39.6022H150.124V54.0077H134.729V39.6022ZM138.767 41.6221V51.9975H142.694C142.694 51.9975 144.61 52.0505 145.667 50.9981C146.528 50.1435 146.466 49.1524 146.466 49.1524C146.466 49.1524 146.528 48.1181 145.732 47.3263C145.052 46.6502 144.184 46.4704 144.184 46.4704C144.184 46.4704 144.577 46.2878 144.878 45.9895C145.018 45.8487 145.52 45.3984 145.52 44.3055C145.52 43.2043 144.783 42.5714 144.783 42.5714C144.783 42.5714 143.975 41.6221 142.153 41.6221H138.767ZM140.244 71.8086H139.882L135.623 61.2575L131.325 71.8086H130.963L125.715 58.7985H127.579L131.154 67.6866L134.748 58.7985H136.516L140.13 67.6866L143.667 58.7985H145.512L140.244 71.8086ZM152.589 70.1629C155.498 70.1629 157.647 68.0649 157.647 65.2463C157.647 62.4109 155.498 60.3311 152.589 60.3311C149.698 60.3311 147.549 62.4109 147.549 65.2463C147.549 68.0649 149.698 70.1629 152.589 70.1629ZM152.589 58.629C156.867 58.629 159.567 61.654 159.567 65.2463C159.567 68.7271 156.943 71.8649 152.551 71.8649C148.31 71.8649 145.629 68.7452 145.629 65.2463C145.629 61.6735 148.386 58.629 152.589 58.629ZM163.751 64.4339H164.95C166.946 64.4339 167.516 63.4135 167.498 62.3345C167.479 61.1245 166.755 60.3871 164.95 60.3871H163.751V64.4339ZM165.159 58.7994C167.783 58.7994 169.419 60.1794 169.419 62.4112C169.419 63.9041 168.638 65.0207 167.25 65.5686C168.429 66.3436 169.151 67.5355 170.141 69.1427C170.692 70.0307 171.016 70.4656 171.91 71.6951H169.684L167.972 69.048C166.262 66.4008 165.482 66.0983 164.531 66.0983H163.751V71.6951H161.888V58.7994H165.159ZM175.18 70.031H181.037V71.6954H173.316V58.7982H175.18V70.031ZM184.535 70.031H187.502C191.723 70.031 192.693 66.836 192.693 65.2468C192.693 62.6568 191.039 60.4627 187.406 60.4627H184.535V70.031ZM182.671 58.7982H187.711C192.504 58.7982 194.613 62.2024 194.613 65.2468C194.613 68.5562 192.009 71.6954 187.73 71.6954H182.671V58.7982ZM134.301 78.0117C133.198 76.9718 132.134 76.6693 131.259 76.6693C130.06 76.6693 129.205 77.2924 129.205 78.2013C129.205 80.6784 134.814 80.6408 134.814 84.7433C134.814 86.7673 133.275 88.2422 131.182 88.2422C129.776 88.2422 128.635 87.863 127.55 87.0503V84.7056C128.502 85.9156 129.699 86.5778 130.973 86.5778C132.418 86.5778 133.084 85.6703 133.084 84.9524C133.084 82.2857 127.474 81.9832 127.474 78.4466C127.474 76.3473 129.033 75.0049 131.41 75.0049C132.399 75.0049 133.388 75.3074 134.301 75.9124V78.0117ZM144.208 76.839H138.713V80.7351H144.017V82.3982H138.713V86.4073H144.379V88.0717H136.848V75.1745H144.208V76.839ZM148.259 80.8099H149.457C151.453 80.8099 152.024 79.7895 152.004 78.7119C151.986 77.5005 151.263 76.7631 149.457 76.7631H148.259V80.8099ZM149.666 75.1754C152.29 75.1754 153.925 76.5554 153.925 78.7872C153.925 80.2801 153.146 81.3967 151.758 81.9446C152.937 82.721 153.659 83.9115 154.648 85.5188C155.199 86.4067 155.523 86.843 156.416 88.0711H154.191L152.48 85.424C150.769 82.7768 149.989 82.4743 149.038 82.4743H148.259V88.0711H146.396V75.1754H149.666ZM160.889 88.185H160.507L154.898 75.175H156.761L160.66 84.2331L164.539 75.175H166.384L160.889 88.185ZM169.692 88.0711H167.829V75.174H169.692V88.0711ZM183.612 78.0499C182.015 77.1229 180.646 76.7075 179.143 76.7075C176.177 76.7075 173.972 78.8055 173.972 81.6422C173.972 84.5361 176.101 86.5393 179.219 86.5393C180.684 86.5393 182.282 86.0291 183.745 85.084V87.108C182.471 87.7702 181.083 88.2413 179.049 88.2413C174.18 88.2413 172.051 84.5166 172.051 81.8123C172.051 77.8798 175.036 75.0054 179.163 75.0054C180.493 75.0054 181.843 75.3261 183.612 76.0635V78.0499ZM193.386 76.839H187.891V80.7351H193.196V82.3982H187.891V86.4073H193.557V88.0717L186.027 88.0717V75.1745H193.386V76.839Z" fill="white"/>
</g>
<rect x="336" width="320" height="128" rx="16" fill="white" fill-opacity="0.08"/>
<path d="M458.11 48.6711C457.369 45.9414 455.199 43.7892 452.448 43.0543C447.421 41.6895 427.312 41.6895 427.312 41.6895C427.312 41.6895 407.204 41.6895 402.176 43.0018C399.478 43.7367 397.255 45.9414 396.514 48.6711C395.191 53.658 395.191 63.9992 395.191 63.9992C395.191 63.9992 395.191 74.3929 396.514 79.3273C397.255 82.0569 399.425 84.2091 402.176 84.9441C407.257 86.3089 427.312 86.3089 427.312 86.3089C427.312 86.3089 447.421 86.3089 452.448 84.9965C455.199 84.2616 457.369 82.1094 458.11 79.3797C459.433 74.3929 459.433 64.0517 459.433 64.0517C459.433 64.0517 459.486 53.658 458.11 48.6711Z" fill="#FF0000"/>
<path d="M420.91 54.4453V73.5529L437.632 63.9991L420.91 54.4453Z" fill="white"/>
<path d="M488.489 82.3203C487.219 81.4804 486.319 80.1681 485.79 78.3308C485.261 76.546 484.996 74.1313 484.996 71.1917V67.1497C484.996 64.1576 485.314 61.7429 485.896 59.9056C486.531 58.0683 487.483 56.756 488.753 55.9161C490.076 55.0762 491.769 54.6562 493.886 54.6562C495.95 54.6562 497.643 55.0762 498.913 55.9161C500.183 56.756 501.083 58.1208 501.665 59.9056C502.247 61.6904 502.565 64.1051 502.565 67.1497V71.1917C502.565 74.1838 502.3 76.546 501.718 78.3833C501.136 80.1681 500.236 81.5329 498.966 82.3728C497.696 83.2127 495.95 83.6326 493.78 83.6326C491.558 83.5801 489.759 83.1602 488.489 82.3203ZM495.632 77.9108C496.003 77.0185 496.162 75.4961 496.162 73.4489V64.735C496.162 62.7402 496.003 61.2704 495.632 60.3255C495.262 59.3807 494.68 58.9607 493.78 58.9607C492.934 58.9607 492.299 59.4332 491.981 60.3255C491.611 61.2704 491.452 62.7402 491.452 64.735V73.4489C491.452 75.4961 491.611 77.0185 491.981 77.9108C492.299 78.8032 492.934 79.2757 493.833 79.2757C494.68 79.2757 495.262 78.8557 495.632 77.9108Z" fill="white"/>
<path d="M586.174 71.2437V72.661C586.174 74.4458 586.226 75.8106 586.332 76.703C586.438 77.5954 586.65 78.2778 587.02 78.6453C587.338 79.0652 587.867 79.2752 588.608 79.2752C589.56 79.2752 590.195 78.9077 590.566 78.1728C590.936 77.4379 591.095 76.2306 591.148 74.4983L596.598 74.8132C596.651 75.0757 596.651 75.3907 596.651 75.8106C596.651 78.3828 595.963 80.3251 594.534 81.5849C593.106 82.8447 591.095 83.4747 588.502 83.4747C585.38 83.4747 583.21 82.4773 581.94 80.535C580.67 78.5928 580.035 75.6007 580.035 71.5062V66.6243C580.035 62.4248 580.67 59.3802 581.993 57.4379C583.316 55.4957 585.539 54.5508 588.661 54.5508C590.83 54.5508 592.524 54.9707 593.688 55.7581C594.852 56.5455 595.646 57.8054 596.122 59.4327C596.598 61.1125 596.81 63.4222 596.81 66.3618V71.1387H586.174V71.2437ZM586.967 59.4852C586.65 59.9051 586.438 60.535 586.332 61.4274C586.226 62.3198 586.174 63.6846 586.174 65.5219V67.5167H590.83V65.5219C590.83 63.7371 590.777 62.3723 590.672 61.4274C590.566 60.4825 590.301 59.8526 589.984 59.4852C589.666 59.1177 589.137 58.9077 588.502 58.9077C587.761 58.8552 587.285 59.0652 586.967 59.4852Z" fill="white"/>
<path d="M473.037 70.7191L465.84 44.8398H472.137L474.677 56.5459C475.312 59.433 475.788 61.9002 476.106 63.9475H476.265C476.476 62.4776 476.952 60.0629 477.693 56.5984L480.339 44.8398H486.636L479.334 70.7191V83.1076H473.089V70.7191H473.037Z" fill="white"/>
<path d="M523.042 55.1797V83.1587H518.068L517.538 79.7466H517.38C516.057 82.3188 513.993 83.6311 511.294 83.6311C509.442 83.6311 508.066 83.0012 507.167 81.7939C506.267 80.5865 505.844 78.6968 505.844 76.0721V55.1797H512.194V75.7046C512.194 76.9645 512.353 77.8569 512.617 78.3818C512.882 78.9067 513.358 79.1692 513.993 79.1692C514.522 79.1692 515.051 79.0117 515.58 78.6443C516.11 78.3293 516.48 77.9094 516.692 77.3844V55.1797H523.042Z" fill="white"/>
<path d="M555.589 55.1797V83.1587H550.614L550.085 79.7466H549.927C548.604 82.3188 546.54 83.6311 543.841 83.6311C541.989 83.6311 540.613 83.0012 539.714 81.7939C538.814 80.5865 538.391 78.6968 538.391 76.0721V55.1797H544.741V75.7046C544.741 76.9645 544.899 77.8569 545.164 78.3818C545.429 78.9067 545.905 79.1692 546.54 79.1692C547.069 79.1692 547.598 79.0117 548.127 78.6443C548.657 78.3293 549.027 77.9094 549.239 77.3844V55.1797H555.589Z" fill="white"/>
<path d="M540.293 49.9317H533.996V83.1076H527.805L527.805 49.9317H521.508V44.8398H540.293V49.9317Z" fill="white"/>
<path d="M576.597 59.6424C576.226 57.8576 575.591 56.5977 574.744 55.8103C573.898 55.0229 572.681 54.603 571.199 54.603C570.035 54.603 568.924 54.9179 567.918 55.6004C566.913 56.2303 566.119 57.1227 565.59 58.1725H565.537V43.4219H559.398V83.1069H564.637L565.272 80.4822H565.431C565.907 81.4271 566.648 82.162 567.654 82.7395C568.659 83.2644 569.717 83.5794 570.934 83.5794C573.104 83.5794 574.639 82.582 575.644 80.6397C576.649 78.6975 577.179 75.6004 577.179 71.4534V67.0439C577.126 63.8418 576.967 61.3746 576.597 59.6424ZM570.776 71.0334C570.776 73.0807 570.67 74.6555 570.511 75.8103C570.352 76.9652 570.035 77.8051 569.664 78.2775C569.241 78.75 568.712 79.0124 568.077 79.0124C567.548 79.0124 567.071 78.9074 566.648 78.645C566.225 78.3825 565.854 78.0151 565.59 77.5426V61.6896C565.801 60.9547 566.172 60.3248 566.701 59.7998C567.23 59.3274 567.812 59.0649 568.394 59.0649C569.029 59.0649 569.559 59.3274 569.876 59.7998C570.246 60.3248 570.458 61.1647 570.617 62.3195C570.776 63.5269 570.829 65.2067 570.829 67.3589V71.0334H570.776Z" fill="white"/>
<rect x="672" width="320" height="128" rx="16" fill="white" fill-opacity="0.08"/>
<path d="M873.129 63.4994C873.129 86.188 854.693 104.553 831.994 104.553C809.261 104.553 790.859 86.1535 790.859 63.4994C790.859 40.8107 809.296 22.4453 831.994 22.4453C854.693 22.4453 873.129 40.8107 873.129 63.4994Z" fill="white"/>
<path d="M836.12 40.1881C835.773 40.119 834.04 39.8423 831.996 39.8423C829.951 39.8423 828.218 40.119 827.872 40.1881C827.664 40.2227 827.595 40.0152 827.733 39.9114C827.872 39.8077 831.996 36.6603 831.996 36.6603C831.996 36.6603 836.12 39.8077 836.258 39.9114C836.397 40.0152 836.328 40.2227 836.12 40.1881ZM828.981 60.5249C828.981 60.5249 828.773 60.5941 828.704 60.8016C829.57 61.4588 830.159 62.9806 831.961 62.9806C833.763 62.9806 834.352 61.4588 835.219 60.8016C835.149 60.5941 834.941 60.5249 834.941 60.5249C834.941 60.5249 833.798 60.8016 831.961 60.8016C830.124 60.8016 828.981 60.5249 828.981 60.5249ZM831.961 58.0001C831.476 58.0001 831.337 57.8272 831.025 57.8272C830.714 57.8272 830.055 58.1039 829.917 58.3114C829.917 58.4152 829.986 58.5189 830.055 58.6227C830.783 58.7264 831.129 59.1415 831.961 59.1415C832.793 59.1415 833.139 58.7264 833.867 58.6227C833.971 58.5189 834.006 58.4152 834.006 58.3114C833.867 58.0693 833.243 57.8272 832.897 57.8272C832.585 57.7926 832.481 58.0001 831.961 58.0001ZM873.061 65.7475C872.992 66.7159 872.923 67.7189 872.819 68.6527C868.175 69.4136 866.512 65.2979 861.729 65.4708C862.007 66.4738 862.249 67.5114 862.423 68.549C866.373 68.549 867.933 72.2151 872.334 71.6618C872.091 72.7685 871.814 73.8753 871.502 74.9821C868.037 75.3279 866.824 71.9039 862.804 71.973C862.838 72.561 862.838 73.1144 862.838 73.7024C862.838 74.0136 862.838 74.3595 862.804 74.6708C866.234 74.6362 867.343 77.7836 870.601 77.6452C870.185 78.752 869.735 79.8242 869.249 80.8963C866.893 80.758 866.096 77.7836 862.561 78.0257C862.457 78.7866 862.319 79.5475 862.145 80.3084C865.23 80.1008 865.888 82.9369 868.106 83.1444C867.551 84.182 866.928 85.185 866.304 86.1535C864.987 85.4617 863.843 83.352 861.383 83.2136C861.625 82.4181 861.868 81.6226 862.041 80.8272C859.823 80.8272 857.328 79.9625 855.214 78.0602C855.907 74.152 849.843 70.2091 849.843 67.3385C849.843 64.2603 851.402 62.531 851.402 58.346C851.402 55.2332 849.878 51.8783 847.625 49.5956C847.175 49.146 846.724 48.8001 846.204 48.4543C848.283 51.0483 849.912 54.0919 849.912 57.6543C849.912 61.5971 848.076 63.6723 848.076 67.3039C848.076 70.9354 853.412 74.0828 853.412 77.8181C853.412 79.3054 852.927 80.7234 851.402 83.5595C853.794 85.9459 856.912 87.2256 858.922 87.2256C859.581 87.2256 859.927 87.0181 860.17 86.5339C860.378 86.0843 860.551 85.6347 860.724 85.185C862.873 85.2542 863.878 87.2256 865.056 88.0211C864.398 88.8858 863.705 89.7505 862.977 90.5805C862.18 89.6813 861.106 88.1941 859.512 87.779C859.234 88.3324 858.922 88.8512 858.611 89.4046C859.962 89.785 860.898 91.1339 861.625 92.0332C860.863 92.8286 860.031 93.5895 859.2 94.3504C858.68 93.5549 857.848 92.5174 856.947 91.9294L855.907 93.2783C856.704 93.7971 857.363 94.7655 857.813 95.5264C856.843 96.3219 855.838 97.0482 854.799 97.7399C854.279 93.555 848.595 90.7189 850.12 85.8768C849.6 86.7414 849.011 87.8136 849.011 89.0933C849.011 92.5865 852.754 95.388 853.031 98.8467C852.269 99.2963 851.472 99.7459 850.64 100.161C850.501 96.3219 846.551 92.1369 846.551 89.0241C846.551 85.5309 851.16 82.0031 851.16 77.8527C851.16 73.7024 845.858 70.8317 845.858 67.2001C845.858 63.5685 848.11 61.4934 848.11 56.8242C848.11 53.4001 846.481 49.9761 843.986 47.7626C843.536 47.3821 843.12 47.0708 842.565 46.7941C844.922 49.6302 846.308 52.1896 846.308 56.0979C846.308 60.4904 843.709 62.9114 843.709 67.2001C843.709 71.4888 848.907 73.8753 848.907 77.8527C848.907 81.8302 844.056 85.2196 844.056 89.3354C844.056 93.0707 848.318 96.8061 848.387 101.233C847.452 101.648 846.516 102.029 845.546 102.34C846.1 97.8783 841.283 93.2437 841.283 89.5775C841.283 85.6001 846.308 82.1414 846.308 77.8527C846.308 73.564 841.214 71.558 841.214 67.1309C841.214 62.7039 844.367 60.2482 844.367 55.3716C844.367 51.5671 842.496 48.143 839.724 46.0332C839.654 45.9987 839.62 45.9295 839.551 45.8949C839.308 45.6874 839.065 45.9295 839.273 46.1716C841.214 48.5926 842.254 51.0483 842.254 54.6798C842.254 59.1415 838.649 62.7731 838.649 67.0964C838.649 72.2151 843.501 73.6678 843.501 77.8527C843.501 82.0377 838.303 85.3926 838.303 89.8542C838.303 93.97 843.224 98.57 842.358 103.308C841.387 103.55 840.382 103.793 839.377 103.965C840.313 98.0512 835.496 93.7625 835.496 89.8888C835.496 85.7038 840.867 81.9339 840.867 77.8527C840.867 73.979 837.021 72.7339 836.501 68.7565C836.432 68.2031 835.981 67.8227 835.392 67.9264C834.595 68.0648 833.59 68.5836 832.03 68.5836C830.436 68.5836 829.466 68.0648 828.669 67.9264C828.08 67.8227 827.629 68.2377 827.56 68.7565C827.04 72.7339 823.194 73.979 823.194 77.8527C823.194 81.9685 828.565 85.7038 828.565 89.8888C828.565 93.7625 823.748 98.0166 824.684 103.965C823.679 103.793 822.674 103.55 821.703 103.308C820.872 98.5354 825.758 93.97 825.758 89.8542C825.758 85.3926 820.56 82.0377 820.56 77.8527C820.56 73.6678 825.411 72.2151 825.411 67.0964C825.411 62.7731 821.807 59.1415 821.807 54.6798C821.807 51.0483 822.847 48.5926 824.788 46.1716C824.961 45.9295 824.753 45.722 824.51 45.8949C824.441 45.9295 824.406 45.9987 824.337 46.0332C821.599 48.143 819.693 51.5671 819.693 55.3716C819.693 60.2482 822.847 62.7039 822.847 67.1309C822.847 71.558 817.753 73.564 817.753 77.8527C817.753 82.1414 822.778 85.6001 822.778 89.5775C822.778 93.2437 817.961 97.8437 818.515 102.34C817.545 101.994 816.609 101.648 815.674 101.233C815.743 96.8061 820.005 93.0707 820.005 89.3354C820.005 85.2196 815.154 81.8647 815.154 77.8527C815.154 73.8407 820.352 71.4888 820.352 67.2001C820.352 62.9114 817.753 60.4904 817.753 56.0979C817.753 52.1896 819.139 49.6302 821.495 46.7941C820.976 47.0708 820.525 47.3821 820.075 47.7626C817.58 49.9761 815.951 53.4347 815.951 56.8242C815.951 61.4934 818.203 63.5685 818.203 67.2001C818.203 70.8317 812.901 73.7024 812.901 77.8527C812.901 82.0031 817.51 85.4963 817.51 89.0241C817.51 92.1715 813.56 96.3564 813.421 100.161C812.624 99.7459 811.827 99.3309 811.03 98.8467C811.342 95.3534 815.084 92.5865 815.084 89.0933C815.084 87.8136 814.495 86.7414 813.975 85.8768C815.5 90.7189 809.817 93.5895 809.297 97.7399C808.257 97.0482 807.252 96.3219 806.282 95.5264C806.733 94.7655 807.426 93.7971 808.188 93.2783C807.842 92.8286 807.46 92.4136 807.149 91.9294C806.213 92.4828 805.416 93.5204 804.896 94.3504C804.064 93.6241 803.233 92.8286 802.47 92.0332C803.198 91.1339 804.134 89.7505 805.485 89.4046C805.173 88.8858 804.861 88.3324 804.584 87.779C802.99 88.1941 801.916 89.6813 801.119 90.5805C800.391 89.7505 799.698 88.9204 799.039 88.0211C800.252 87.2256 801.223 85.2888 803.406 85.185C803.579 85.6347 803.787 86.0843 803.96 86.5339C804.203 87.0527 804.549 87.2256 805.208 87.2256C807.218 87.2256 810.337 85.9114 812.728 83.5595C811.168 80.7234 810.718 79.3054 810.718 77.8181C810.718 74.0828 816.055 70.9354 816.055 67.3039C816.055 63.6723 814.218 61.5971 814.218 57.6543C814.218 54.0919 815.812 51.0483 817.926 48.4543C817.406 48.7656 816.956 49.146 816.505 49.5956C814.218 51.8783 812.728 55.2678 812.728 58.346C812.728 62.531 814.287 64.2257 814.287 67.3385C814.287 70.2091 808.223 74.152 808.916 78.0602C806.802 79.9971 804.272 80.8272 802.054 80.8272C802.262 81.6226 802.47 82.4181 802.713 83.2136C800.218 83.352 799.074 85.4617 797.792 86.1535C797.133 85.185 796.544 84.182 795.99 83.1444C798.208 82.9023 798.866 80.0663 801.95 80.3084C801.777 79.5475 801.638 78.7866 801.534 78.0257C797.965 77.7836 797.168 80.7926 794.846 80.8963C794.361 79.8242 793.91 78.752 793.495 77.6452C796.752 77.7836 797.861 74.6362 801.257 74.6708V73.7024C801.257 73.1144 801.292 72.561 801.292 71.973C797.272 71.8693 796.059 75.3279 792.594 74.9821C792.282 73.9099 792.004 72.8031 791.762 71.6618C796.128 72.2151 797.722 68.5144 801.673 68.549C801.846 67.5114 802.089 66.4738 802.366 65.4708C797.584 65.2633 795.92 69.4136 791.277 68.6527C791.138 67.6843 791.069 66.7159 790.999 65.7475C796.406 66.3355 798.45 61.9084 803.371 62.4618C803.822 61.2858 804.376 60.1445 805 59.0377C798.831 57.9655 796.717 63.1189 790.965 62.3234C791.45 40.1881 809.644 22.4453 831.961 22.4453C854.313 22.4453 872.472 40.1881 873.096 62.358C867.343 63.1535 865.23 58.0001 859.061 59.0723C859.685 60.1791 860.205 61.3204 860.69 62.4964C865.611 61.9084 867.621 66.37 873.061 65.7475ZM814.287 48.5235C811.272 47.2783 807.599 47.5896 804.445 49.5956C803.96 46.6904 802.366 44.0964 800.114 42.54C799.802 42.3325 799.49 42.54 799.49 42.8859C799.975 49.0423 796.371 54.3686 791.935 59.0723C796.51 60.4558 800.391 54.5761 806.282 56.6167C808.465 53.4693 811.168 50.7024 814.287 48.5235ZM831.961 44.8227C828.149 44.8227 824.926 46.9671 824.095 49.7686C824.025 49.9761 824.129 50.1144 824.372 50.0107C825.065 49.6994 825.827 49.5611 826.694 49.5611C828.253 49.5611 829.639 50.149 830.436 51.1174C830.783 52.2934 830.818 54.0227 830.402 54.9911C829.778 54.8528 829.535 54.3686 828.912 54.3686C828.288 54.3686 827.803 54.8182 826.728 54.8182C825.654 54.8182 825.55 54.2994 824.857 54.2994C824.025 54.2994 823.887 55.1295 823.887 56.0979C823.887 60.352 827.803 66.1971 831.961 66.1971C836.12 66.1971 840.036 60.352 840.036 56.0979C840.036 55.1295 839.828 54.334 838.996 54.2302C838.58 54.5415 838.164 54.8182 837.194 54.8182C836.12 54.8182 835.842 54.3686 835.219 54.3686C834.456 54.3686 834.526 55.9595 833.625 56.0633C833.035 54.6453 833.001 52.7776 833.486 51.152C834.283 50.149 835.669 49.5956 837.229 49.5956C838.06 49.5956 838.857 49.734 839.551 50.0453C839.793 50.149 839.897 50.0107 839.828 49.8032C838.996 46.9671 835.773 44.8227 831.961 44.8227ZM838.06 50.9099C837.125 50.9099 836.085 51.1866 835.392 51.9475C835.323 52.155 835.323 52.4663 835.427 52.6392C837.09 52.0859 838.546 52.0513 839.273 52.8468C839.654 52.5009 839.758 52.1896 839.758 51.8438C839.758 51.2904 839.169 50.9099 838.06 50.9099ZM824.684 52.8468C825.481 52.0513 827.179 52.0859 828.912 52.7084C828.981 51.8438 827.421 50.8753 825.862 50.8753C824.718 50.8753 824.164 51.2558 824.164 51.8092C824.199 52.1896 824.303 52.5009 824.684 52.8468ZM851.021 38.4588C848.006 38.6663 845.372 39.7039 843.259 41.4332C844.16 38.8739 845.303 36.6603 846.759 34.516C842.912 34.931 839.724 36.3145 837.367 38.7355L835.531 33.928L839.585 30.331L834.144 29.9506L831.961 24.9009L829.778 29.9506L824.337 30.331L828.392 33.928L826.555 38.7355C824.199 36.349 821.01 34.931 817.164 34.516C818.619 36.6603 819.763 38.9084 820.664 41.4332C818.55 39.7039 815.916 38.6663 812.901 38.4588C814.703 40.7761 816.297 43.2663 817.51 45.9295C817.649 46.2408 817.926 46.3445 818.238 46.1716C822.362 44.131 827.006 42.955 831.961 42.955C836.882 42.955 841.526 44.0964 845.684 46.1716C845.996 46.3445 846.273 46.2408 846.412 45.9295C847.59 43.2663 849.219 40.7761 851.021 38.4588ZM857.606 56.6167C863.531 54.5761 867.413 60.4212 871.987 59.0723C867.551 54.3686 863.947 49.0423 864.432 42.8859C864.467 42.54 864.121 42.3325 863.843 42.54C861.591 44.0964 859.997 46.6904 859.512 49.5956C856.393 47.5896 852.719 47.3129 849.67 48.5235C852.789 50.7024 855.457 53.4693 857.606 56.6167Z" fill="#00643C"/>
<path d="M856.217 101.614H854.762V101.061H858.331V101.614H856.841V105.557H856.217V101.614Z" fill="#00643C"/>
<path d="M862.665 101.061H863.635V105.557H863.011V101.787H862.976L861.486 105.557H861.07L859.546 101.787V105.557H858.922V101.061H859.927L861.278 104.519H861.313L862.665 101.061Z" fill="#00643C"/>
<rect x="1008" width="320" height="128" rx="16" fill="white" fill-opacity="0.08"/>
<path d="M1194.65 79.6595C1193.65 81.9935 1192.47 84.1419 1191.1 86.1172C1189.23 88.8099 1187.7 90.6738 1186.53 91.7089C1184.7 93.4078 1182.74 94.278 1180.65 94.3274C1179.14 94.3274 1177.33 93.8944 1175.22 93.0161C1173.1 92.1419 1171.15 91.7089 1169.37 91.7089C1167.5 91.7089 1165.5 92.1419 1163.36 93.0161C1161.22 93.8945 1159.49 94.3522 1158.17 94.3975C1156.16 94.4841 1154.15 93.5893 1152.15 91.7089C1150.88 90.5831 1149.28 88.6532 1147.37 85.9193C1145.32 82.9997 1143.63 79.6141 1142.31 75.7543C1140.9 71.5854 1140.19 67.5483 1140.19 63.6399C1140.19 59.1628 1141.14 55.3014 1143.06 52.0655C1144.56 49.4664 1146.57 47.4161 1149.07 45.911C1151.58 44.4058 1154.29 43.6388 1157.21 43.5898C1158.8 43.5898 1160.9 44.0891 1163.5 45.0706C1166.09 46.0553 1167.75 46.5547 1168.49 46.5547C1169.03 46.5547 1170.88 45.9708 1174.02 44.8067C1176.98 43.7271 1179.49 43.28 1181.54 43.4561C1187.09 43.9097 1191.27 46.1254 1194.04 50.1171C1189.07 53.1629 1186.62 57.4288 1186.66 62.9013C1186.71 67.164 1188.24 70.7112 1191.24 73.5277C1192.6 74.8349 1194.12 75.8452 1195.82 76.5627C1195.45 77.6389 1195.06 78.6698 1194.65 79.6595ZM1181.91 28.9342C1181.91 32.2752 1180.7 35.3947 1178.3 38.2821C1175.39 41.7147 1171.88 43.6982 1168.07 43.3852C1168.02 42.9652 1168 42.5424 1168 42.1192C1168 38.9118 1169.38 35.4792 1171.83 32.6727C1173.05 31.2517 1174.61 30.0701 1176.5 29.1276C1178.38 28.1991 1180.16 27.6856 1181.84 27.5977C1181.89 28.0443 1181.91 28.491 1181.91 28.9342Z" fill="white"/>
<rect x="1344" width="320" height="128" rx="16" fill="white" fill-opacity="0.08"/>
<path d="M1412.56 70.3211C1412.56 72.5999 1413.05 74.3494 1413.7 75.4079C1414.56 76.7942 1415.83 77.3815 1417.13 77.3815C1418.8 77.3815 1420.33 76.9644 1423.27 72.8655C1425.64 69.5802 1428.42 64.9687 1430.29 62.0777L1433.46 57.1798C1435.67 53.7783 1438.22 49.997 1441.14 47.4339C1443.52 45.3419 1446.1 44.1797 1448.69 44.1797C1453.04 44.1797 1457.18 46.7137 1460.35 51.4663C1463.82 56.6714 1465.51 63.2275 1465.51 69.9932C1465.51 74.0153 1464.72 76.9706 1463.38 79.3054C1462.08 81.5634 1459.55 83.8194 1455.3 83.8194V77.3815C1458.94 77.3815 1459.85 74.0194 1459.85 70.1717C1459.85 64.6885 1458.58 58.6035 1455.78 54.2556C1453.79 51.1716 1451.21 49.2872 1448.38 49.2872C1445.31 49.2872 1442.85 51.6116 1440.08 55.7561C1438.6 57.9581 1437.09 60.6416 1435.39 63.6695L1433.52 67.0005C1429.76 73.6977 1428.81 75.2232 1426.93 77.7406C1423.64 82.1487 1420.83 83.8194 1417.13 83.8194C1412.73 83.8194 1409.96 81.9079 1408.24 79.0273C1406.83 76.6801 1406.14 73.6002 1406.14 70.0907L1412.56 70.3211Z" fill="#0081FB"/>
<path d="M1411.2 51.9208C1414.14 47.3654 1418.39 44.1797 1423.25 44.1797C1426.07 44.1797 1428.87 45.0181 1431.8 47.4193C1435 50.0447 1438.41 54.3677 1442.66 61.4925L1444.19 64.0493C1447.87 70.2173 1449.96 73.3906 1451.19 74.8869C1452.77 76.8087 1453.87 77.3815 1455.31 77.3815C1458.95 77.3815 1459.86 74.0194 1459.86 70.1717L1465.51 69.9932C1465.51 74.0153 1464.72 76.9706 1463.38 79.3054C1462.08 81.5634 1459.56 83.8194 1455.31 83.8194C1452.66 83.8194 1450.32 83.2424 1447.73 80.7872C1445.74 78.9028 1443.42 75.5552 1441.63 72.5459L1436.3 63.6052C1433.63 59.1182 1431.18 55.7727 1429.76 54.2577C1428.24 52.6285 1426.28 50.6611 1423.15 50.6611C1420.61 50.6611 1418.46 52.448 1416.66 55.1813L1411.2 51.9208Z" fill="url(#paint0_linear_2277_22226)"/>
<path d="M1423.14 50.6611C1420.61 50.6611 1418.46 52.448 1416.66 55.1813C1414.12 59.0435 1412.56 64.7965 1412.56 70.3211C1412.56 72.5999 1413.05 74.3494 1413.7 75.4079L1408.24 79.0273C1406.83 76.6801 1406.14 73.6002 1406.14 70.0907C1406.14 63.709 1407.89 57.0574 1411.2 51.9208C1414.14 47.3654 1418.38 44.1797 1423.25 44.1797L1423.14 50.6611Z" fill="url(#paint1_linear_2277_22226)"/>
<path d="M1477.98 45.4336H1485.39L1498.01 68.3706L1510.62 45.4336H1517.88V83.1224H1511.82V54.2373L1500.76 74.2398H1495.09L1484.03 54.2373V83.1224H1477.98V45.4336ZM1536.83 59.486C1532.5 59.486 1529.88 62.7692 1529.26 66.8349H1543.98C1543.68 62.6468 1541.28 59.486 1536.83 59.486ZM1523.26 69.151C1523.26 60.5963 1528.76 54.3702 1536.94 54.3702C1544.99 54.3702 1549.8 60.5174 1549.8 69.6076V71.2782H1529.26C1529.99 75.7009 1532.9 78.6811 1537.61 78.6811C1541.37 78.6811 1543.71 77.5293 1545.94 75.4228L1549.15 79.3805C1546.12 82.1802 1542.27 83.7948 1537.4 83.7948C1528.54 83.7948 1523.26 77.301 1523.26 69.151ZM1557.13 60.0256H1551.56V55.0447H1557.13V46.8075H1562.97V55.0447H1571.43V60.0256H1562.97V72.6501C1562.97 76.9606 1564.34 78.4922 1567.71 78.4922C1569.25 78.4922 1570.13 78.3594 1571.43 78.1415V83.0684C1569.81 83.5292 1568.26 83.7409 1566.59 83.7409C1560.28 83.7409 1557.13 80.2791 1557.13 73.3495V60.0256ZM1596.02 64.8695C1594.84 61.8934 1592.23 59.7018 1588.38 59.7018C1583.39 59.7018 1580.19 63.2652 1580.19 69.07C1580.19 74.7296 1583.13 78.4653 1588.14 78.4653C1592.08 78.4653 1594.89 76.1616 1596.02 73.2955V64.8695ZM1601.85 83.1224H1596.12V79.1916C1594.52 81.5057 1591.61 83.7948 1586.88 83.7948C1579.29 83.7948 1574.22 77.4047 1574.22 69.07C1574.22 60.6565 1579.41 54.3702 1587.21 54.3702C1591.06 54.3702 1594.08 55.9184 1596.12 58.6517V55.0447H1601.85V83.1224Z" fill="url(#paint2_linear_2277_22226)"/>
<rect x="1680" width="320" height="128" rx="16" fill="white" fill-opacity="0.08"/>
<path d="M1789.7 101.671H1890.3V26.3301L1789.7 26.3301V101.671Z" fill="#C0311A"/>
<mask id="mask1_2277_22226" style="mask-type:luminance" maskUnits="userSpaceOnUse" x="1789" y="26" width="102" height="76">
<path d="M1789.7 101.67H1890.3V26.3291H1789.7V101.67Z" fill="white"/>
</mask>
<g mask="url(#mask1_2277_22226)">
<path d="M1850.21 39.6023H1865.6V54.0078H1850.21V39.6023ZM1859.9 41.6069C1859.84 41.5957 1859.77 41.5846 1859.7 41.5734L1859.61 41.5623C1859.5 41.5456 1859.38 41.533 1859.26 41.5205C1859.17 41.5135 1859.09 41.5079 1859.01 41.5023C1858.86 41.494 1858.72 41.4898 1858.58 41.4898C1858.52 41.4898 1858.48 41.4912 1858.42 41.4926C1858.31 41.494 1858.19 41.4996 1858.08 41.5051C1858.02 41.5093 1857.95 41.5163 1857.89 41.5205C1857.8 41.5286 1857.71 41.5389 1857.62 41.5511L1857.55 41.5609L1857.46 41.572L1857.36 41.5874C1857.32 41.5957 1857.27 41.6027 1857.23 41.6111C1857.17 41.6217 1857.11 41.6338 1857.05 41.6473C1856.7 41.7191 1856.36 41.8194 1856.03 41.947C1855.88 42.0064 1855.72 42.0734 1855.57 42.1478C1855.45 42.2047 1855.33 42.267 1855.22 42.3346C1855.11 42.3952 1855.01 42.4599 1854.9 42.5283C1854.84 42.5657 1854.79 42.6048 1854.73 42.6454C1854.68 42.6803 1854.63 42.7151 1854.59 42.7486C1854.49 42.8252 1854.4 42.9005 1854.31 42.9786C1854.23 43.0499 1854.15 43.1233 1854.07 43.1988C1854.01 43.2619 1853.94 43.3275 1853.88 43.3954C1853.82 43.464 1853.76 43.5341 1853.7 43.6059C1853.64 43.6839 1853.57 43.7648 1853.51 43.847C1853.47 43.9098 1853.43 43.9725 1853.38 44.0366C1853.36 44.0784 1853.33 44.123 1853.3 44.1677C1853.14 44.4346 1853 44.7149 1852.88 45.0054C1852.73 45.3913 1852.63 45.7932 1852.58 46.2029C1852.56 46.3385 1852.55 46.4747 1852.54 46.6113C1852.53 46.8002 1852.52 46.9896 1852.53 47.1787C1852.54 47.2623 1852.54 47.3459 1852.55 47.4268L1852.56 47.4853C1852.57 47.5815 1852.59 47.6777 1852.61 47.7725C1852.61 47.8101 1852.62 47.8464 1852.63 47.8826C1852.65 47.9621 1852.66 48.0388 1852.69 48.1168C1852.71 48.2144 1852.74 48.312 1852.77 48.4068C1852.81 48.5253 1852.86 48.6382 1852.9 48.7497C1852.98 48.9253 1853.06 49.0954 1853.14 49.2543C1853.2 49.3477 1853.25 49.4397 1853.31 49.5261C1853.35 49.5958 1853.39 49.6641 1853.44 49.7297C1853.5 49.8161 1853.56 49.8983 1853.62 49.9778C1853.69 50.0614 1853.76 50.1409 1853.82 50.2148C1853.9 50.3096 1853.99 50.3946 1854.07 50.4741L1854.11 50.5159C1854.18 50.5786 1854.25 50.6483 1854.33 50.7166C1854.39 50.764 1854.44 50.8142 1854.51 50.8644C1854.56 50.9104 1854.63 50.9578 1854.69 51.0052C1854.77 51.0595 1854.85 51.1153 1854.94 51.1724C1855.03 51.231 1855.13 51.2895 1855.23 51.3453C1855.45 51.4666 1855.67 51.5742 1855.91 51.6673C1856 51.7035 1856.09 51.7384 1856.19 51.7719C1856.29 51.8053 1856.39 51.836 1856.49 51.8666C1856.67 51.9168 1856.86 51.9614 1857.05 51.9991C1857.21 52.0297 1857.37 52.0548 1857.54 52.0757C1857.71 52.0953 1857.88 52.1106 1858.07 52.1204C1858.16 52.1245 1858.24 52.1273 1858.33 52.1301H1858.46C1858.78 52.1301 1859.08 52.119 1859.36 52.0953L1859.41 52.0911C1859.52 52.0813 1859.63 52.0702 1859.73 52.0562C1859.89 52.0381 1860.05 52.0144 1860.19 51.9879C1860.28 51.9726 1860.37 51.9545 1860.45 51.9363C1860.58 51.9085 1860.71 51.8778 1860.83 51.8457C1860.92 51.8234 1861.01 51.7983 1861.09 51.7719C1861.19 51.7426 1861.28 51.7119 1861.37 51.6812L1861.46 51.6506C1861.5 51.6352 1861.56 51.6129 1861.63 51.5865C1861.73 51.5502 1861.84 51.507 1861.97 51.4526C1862.04 51.4206 1862.13 51.3843 1862.21 51.3453C1862.28 51.3118 1862.36 51.2728 1862.44 51.2338C1862.48 51.2184 1862.51 51.2017 1862.54 51.185V49.2209C1862.52 49.2362 1862.5 49.2501 1862.47 49.2641L1862.34 49.3463C1862.21 49.4253 1862.08 49.5011 1861.94 49.5735C1861.58 49.7707 1861.2 49.9399 1860.81 50.0795C1860.38 50.2343 1859.99 50.3319 1859.64 50.3918C1859.6 50.3988 1859.56 50.4058 1859.52 50.4113C1859.42 50.4267 1859.33 50.4392 1859.24 50.4476C1859.11 50.4616 1858.99 50.4709 1858.86 50.4754C1858.79 50.4792 1858.72 50.4811 1858.65 50.481C1858.51 50.481 1858.36 50.4768 1858.22 50.4671C1858.05 50.4531 1857.87 50.435 1857.69 50.4071C1857.41 50.3583 1857.12 50.2859 1856.84 50.1841C1856.8 50.1702 1856.76 50.1534 1856.72 50.1381C1856.69 50.1269 1856.66 50.1158 1856.64 50.1046C1856.59 50.0851 1856.54 50.0656 1856.5 50.0447C1856.4 50.0001 1856.31 49.9499 1856.21 49.8969C1856.17 49.8705 1856.12 49.844 1856.07 49.8147C1856.03 49.7854 1855.98 49.7548 1855.93 49.7227C1855.88 49.6823 1855.82 49.6418 1855.76 49.5986C1855.71 49.5554 1855.66 49.5108 1855.61 49.4718L1855.54 49.4132L1855.51 49.3826L1855.49 49.3658L1855.47 49.3407C1855.38 49.2543 1855.3 49.1651 1855.22 49.0773C1855.18 49.0271 1855.14 48.9769 1855.11 48.9267C1855.07 48.8793 1855.04 48.8291 1855 48.7817C1854.93 48.6701 1854.87 48.5547 1854.81 48.436C1854.78 48.3775 1854.75 48.3189 1854.72 48.2604C1854.68 48.1614 1854.65 48.0611 1854.62 47.9663C1854.59 47.8924 1854.57 47.8199 1854.56 47.7488C1854.5 47.5439 1854.48 47.3557 1854.46 47.1968C1854.46 47.1355 1854.45 47.0783 1854.45 47.0267C1854.44 46.9473 1854.44 46.879 1854.44 46.8246C1854.44 46.7883 1854.44 46.7479 1854.44 46.7005C1854.45 46.5876 1854.46 46.4454 1854.48 46.2837C1854.5 46.1847 1854.52 46.0802 1854.54 45.9687C1854.56 45.8962 1854.58 45.8209 1854.61 45.7443C1854.63 45.6746 1854.65 45.6049 1854.68 45.5324C1854.7 45.4822 1854.72 45.4348 1854.74 45.386C1854.77 45.3191 1854.8 45.2536 1854.84 45.1853C1854.86 45.1351 1854.89 45.0849 1854.92 45.0333C1854.99 44.9218 1855.06 44.8103 1855.14 44.7002C1855.17 44.6597 1855.2 44.6207 1855.24 44.5817C1855.28 44.5315 1855.32 44.4799 1855.37 44.4311C1855.39 44.406 1855.42 44.3809 1855.44 44.3558C1855.8 43.9962 1856.21 43.7271 1856.63 43.5362C1856.7 43.5055 1856.76 43.479 1856.83 43.4539C1856.9 43.426 1856.96 43.4037 1857.03 43.38C1857.1 43.3563 1857.18 43.334 1857.25 43.3131C1857.32 43.2936 1857.39 43.2769 1857.46 43.2602C1857.53 43.2448 1857.6 43.2309 1857.67 43.217C1857.74 43.2044 1857.82 43.1919 1857.9 43.1821C1857.97 43.1723 1858.05 43.164 1858.12 43.1584C1858.27 43.1459 1858.41 43.1403 1858.55 43.1403C1858.59 43.1403 1858.64 43.1389 1858.68 43.1403C1858.79 43.1431 1858.89 43.1459 1858.98 43.1528C1859.05 43.157 1859.12 43.1612 1859.18 43.1682C1859.31 43.1793 1859.43 43.1933 1859.54 43.2128C1859.64 43.2267 1859.74 43.2448 1859.83 43.2616C1859.98 43.2908 1860.11 43.3229 1860.22 43.3522C1860.3 43.3717 1860.37 43.3926 1860.43 43.4107C1860.53 43.4386 1860.61 43.4637 1860.67 43.486C1860.78 43.525 1860.84 43.5459 1860.84 43.5459C1860.94 43.5808 1861.03 43.6184 1861.13 43.6547C1861.25 43.7049 1861.37 43.7606 1861.49 43.8122C1861.58 43.854 1861.67 43.8986 1861.76 43.9418C1861.83 43.9753 1861.9 44.0087 1861.96 44.0408C1862.06 44.0966 1862.16 44.1467 1862.23 44.1872L1862.43 44.2959V42.3666C1862.43 42.3666 1862.31 42.3178 1862.1 42.2384C1862.01 42.2049 1861.9 42.1631 1861.78 42.1199C1861.71 42.0948 1861.64 42.0697 1861.56 42.0418C1861.5 42.0223 1861.43 42 1861.37 41.9791C1861.29 41.9554 1861.22 41.9303 1861.14 41.9066C1861.08 41.8899 1861.02 41.8718 1860.96 41.855L1860.91 41.8397C1860.85 41.8244 1860.79 41.8076 1860.74 41.7923C1860.66 41.7728 1860.59 41.7547 1860.52 41.7365C1860.47 41.7254 1860.43 41.7142 1860.38 41.7031C1860.3 41.6864 1860.23 41.6682 1860.15 41.6529C1860.07 41.6362 1859.99 41.6222 1859.9 41.6069ZM1838.38 47.5464V50.3776H1840.22C1840.22 50.3776 1840.26 50.3762 1840.32 50.3748C1840.38 50.3734 1840.47 50.3692 1840.58 50.3595C1840.78 50.3413 1841.04 50.3051 1841.3 50.2187C1841.53 50.1406 1841.76 50.0249 1841.93 49.8521C1842 49.7865 1842.05 49.7182 1842.1 49.6485C1842.24 49.4213 1842.28 49.1899 1842.28 49.0589C1842.29 49.0031 1842.29 48.9697 1842.29 48.9697C1842.29 48.9697 1842.29 48.9446 1842.29 48.9C1842.29 48.8073 1842.27 48.7153 1842.25 48.6253C1842.22 48.4915 1842.15 48.3354 1842.04 48.1932C1842.01 48.1667 1841.99 48.1402 1841.97 48.1138C1841.91 48.0619 1841.86 48.014 1841.8 47.9702C1841.7 47.8963 1841.58 47.8322 1841.45 47.7792C1841.29 47.7067 1841.1 47.6537 1840.9 47.6161C1840.79 47.5966 1840.68 47.5799 1840.57 47.5687C1840.5 47.5631 1840.43 47.5576 1840.36 47.5548C1840.29 47.5506 1840.23 47.5478 1840.16 47.5478C1839.51 47.5478 1838.38 47.5464 1838.38 47.5464ZM1838.38 43.2429V45.9263H1839.27C1839.27 45.9263 1839.33 45.9263 1839.41 45.9249C1839.47 45.9207 1839.54 45.9179 1839.61 45.9152C1839.8 45.9012 1840.05 45.8761 1840.3 45.805C1840.35 45.7911 1840.4 45.7758 1840.45 45.7576C1840.65 45.6879 1840.84 45.5848 1840.99 45.4384C1841.11 45.3227 1841.19 45.1931 1841.24 45.069C1841.3 44.9143 1841.33 44.7679 1841.34 44.6647C1841.34 44.5713 1841.34 44.5114 1841.34 44.5114C1841.34 44.5114 1841.34 44.4668 1841.34 44.3971C1841.34 44.2814 1841.31 44.0904 1841.22 43.9078C1841.17 43.8135 1841.11 43.7278 1841.03 43.6541C1840.93 43.5551 1840.81 43.4799 1840.68 43.4227C1840.42 43.3112 1840.13 43.2666 1839.89 43.2512C1839.79 43.2443 1839.69 43.2429 1839.61 43.2429H1838.38Z" fill="white"/>
<path d="M1832.47 39.6023H1847.86V54.0078H1832.47V39.6023ZM1836.51 41.6222V51.9977H1840.43C1840.43 51.9977 1842.35 52.0507 1843.41 50.9982C1844.27 50.1437 1844.21 49.1526 1844.21 49.1526C1844.21 49.1526 1844.27 48.1182 1843.47 47.3264C1842.79 46.6503 1841.93 46.4705 1841.93 46.4705C1841.93 46.4705 1842.32 46.2879 1842.62 45.9896C1842.76 45.8488 1843.26 45.3985 1843.26 44.3057C1843.26 43.2044 1842.52 42.5715 1842.52 42.5715C1842.52 42.5715 1841.72 41.6222 1839.89 41.6222H1836.51ZM1820.64 47.5464V50.3776H1822.48C1822.48 50.3776 1822.52 50.3762 1822.58 50.3748C1822.65 50.3734 1822.73 50.3692 1822.84 50.3595C1823.04 50.3413 1823.3 50.3051 1823.56 50.2187C1823.79 50.1406 1824.02 50.0249 1824.19 49.8521C1824.26 49.7865 1824.31 49.7182 1824.36 49.6485C1824.5 49.4213 1824.54 49.1899 1824.55 49.0589C1824.55 49.0031 1824.55 48.9697 1824.55 48.9697V48.9C1824.55 48.8456 1824.54 48.7397 1824.51 48.6253C1824.47 48.4674 1824.4 48.3199 1824.3 48.1932C1824.27 48.165 1824.25 48.1385 1824.22 48.1138C1824.17 48.062 1824.12 48.014 1824.06 47.9702C1823.96 47.8963 1823.84 47.8322 1823.72 47.7792C1823.55 47.7067 1823.36 47.6537 1823.16 47.6161C1823.06 47.5966 1822.94 47.5799 1822.83 47.5687C1822.76 47.5631 1822.69 47.5576 1822.62 47.5548C1822.55 47.5503 1822.49 47.548 1822.42 47.5478C1821.77 47.5478 1820.64 47.5464 1820.64 47.5464ZM1820.64 43.2429V45.9263H1821.53C1821.53 45.9263 1821.59 45.9263 1821.67 45.9249C1821.73 45.9207 1821.81 45.9179 1821.87 45.9152C1822.06 45.9012 1822.31 45.8761 1822.57 45.805C1822.61 45.7911 1822.67 45.7758 1822.71 45.7576C1822.91 45.6879 1823.11 45.5848 1823.25 45.4384C1823.37 45.3227 1823.45 45.1931 1823.5 45.069C1823.57 44.9143 1823.59 44.7679 1823.6 44.6647C1823.61 44.5713 1823.6 44.5114 1823.6 44.5114C1823.6 44.5114 1823.61 44.4668 1823.6 44.3971C1823.6 44.2814 1823.57 44.0904 1823.48 43.9078C1823.43 43.82 1823.37 43.7364 1823.29 43.6541C1823.19 43.5551 1823.07 43.4799 1822.94 43.4227C1822.68 43.3112 1822.4 43.2666 1822.15 43.2512C1822.06 43.2453 1821.96 43.2425 1821.87 43.2429H1820.64Z" fill="white"/>
<path d="M1814.73 39.6022H1830.12V54.0077H1814.73V39.6022ZM1818.77 41.6221V51.9975H1822.69C1822.69 51.9975 1824.61 52.0505 1825.67 50.9981C1826.53 50.1435 1826.47 49.1524 1826.47 49.1524C1826.47 49.1524 1826.53 48.1181 1825.73 47.3263C1825.05 46.6502 1824.18 46.4704 1824.18 46.4704C1824.18 46.4704 1824.58 46.2878 1824.88 45.9895C1825.02 45.8487 1825.52 45.3984 1825.52 44.3055C1825.52 43.2043 1824.78 42.5714 1824.78 42.5714C1824.78 42.5714 1823.98 41.6221 1822.15 41.6221H1818.77ZM1820.24 71.8086H1819.88L1815.62 61.2575L1811.33 71.8086H1810.96L1805.71 58.7985H1807.58L1811.15 67.6866L1814.75 58.7985H1816.52L1820.13 67.6866L1823.67 58.7985H1825.51L1820.24 71.8086ZM1832.59 70.1629C1835.5 70.1629 1837.65 68.0649 1837.65 65.2463C1837.65 62.4109 1835.5 60.3311 1832.59 60.3311C1829.7 60.3311 1827.55 62.4109 1827.55 65.2463C1827.55 68.0649 1829.7 70.1629 1832.59 70.1629ZM1832.59 58.629C1836.87 58.629 1839.57 61.654 1839.57 65.2463C1839.57 68.7271 1836.94 71.8649 1832.55 71.8649C1828.31 71.8649 1825.63 68.7452 1825.63 65.2463C1825.63 61.6735 1828.39 58.629 1832.59 58.629ZM1843.75 64.4339H1844.95C1846.95 64.4339 1847.52 63.4135 1847.5 62.3345C1847.48 61.1245 1846.76 60.3871 1844.95 60.3871H1843.75V64.4339ZM1845.16 58.7994C1847.78 58.7994 1849.42 60.1794 1849.42 62.4112C1849.42 63.9041 1848.64 65.0207 1847.25 65.5686C1848.43 66.3436 1849.15 67.5355 1850.14 69.1427C1850.69 70.0307 1851.02 70.4656 1851.91 71.6951H1849.68L1847.97 69.048C1846.26 66.4008 1845.48 66.0983 1844.53 66.0983H1843.75V71.6951H1841.89V58.7994H1845.16ZM1855.18 70.031H1861.04V71.6954H1853.32V58.7982H1855.18V70.031ZM1864.54 70.031H1867.5C1871.72 70.031 1872.69 66.836 1872.69 65.2468C1872.69 62.6568 1871.04 60.4627 1867.41 60.4627H1864.54V70.031ZM1862.67 58.7982H1867.71C1872.5 58.7982 1874.61 62.2024 1874.61 65.2468C1874.61 68.5562 1872.01 71.6954 1867.73 71.6954H1862.67V58.7982ZM1814.3 78.0117C1813.2 76.9718 1812.13 76.6693 1811.26 76.6693C1810.06 76.6693 1809.21 77.2924 1809.21 78.2013C1809.21 80.6784 1814.81 80.6408 1814.81 84.7433C1814.81 86.7673 1813.27 88.2422 1811.18 88.2422C1809.78 88.2422 1808.63 87.863 1807.55 87.0503V84.7056C1808.5 85.9156 1809.7 86.5778 1810.97 86.5778C1812.42 86.5778 1813.08 85.6703 1813.08 84.9524C1813.08 82.2857 1807.47 81.9832 1807.47 78.4466C1807.47 76.3473 1809.03 75.0049 1811.41 75.0049C1812.4 75.0049 1813.39 75.3074 1814.3 75.9124V78.0117ZM1824.21 76.839H1818.71V80.7351H1824.02V82.3982H1818.71V86.4073H1824.38V88.0717H1816.85V75.1745H1824.21V76.839ZM1828.26 80.8099H1829.46C1831.45 80.8099 1832.02 79.7895 1832 78.7119C1831.99 77.5005 1831.26 76.7631 1829.46 76.7631H1828.26V80.8099ZM1829.67 75.1754C1832.29 75.1754 1833.92 76.5554 1833.92 78.7872C1833.92 80.2801 1833.15 81.3967 1831.76 81.9446C1832.94 82.721 1833.66 83.9115 1834.65 85.5188C1835.2 86.4067 1835.52 86.843 1836.42 88.0711H1834.19L1832.48 85.424C1830.77 82.7768 1829.99 82.4743 1829.04 82.4743H1828.26V88.0711H1826.4V75.1754H1829.67ZM1840.89 88.185H1840.51L1834.9 75.175H1836.76L1840.66 84.2331L1844.54 75.175H1846.38L1840.89 88.185ZM1849.69 88.0711H1847.83V75.174H1849.69V88.0711ZM1863.61 78.0499C1862.02 77.1229 1860.65 76.7075 1859.14 76.7075C1856.18 76.7075 1853.97 78.8055 1853.97 81.6422C1853.97 84.5361 1856.1 86.5393 1859.22 86.5393C1860.68 86.5393 1862.28 86.0291 1863.75 85.084V87.108C1862.47 87.7702 1861.08 88.2413 1859.05 88.2413C1854.18 88.2413 1852.05 84.5166 1852.05 81.8123C1852.05 77.8798 1855.04 75.0054 1859.16 75.0054C1860.49 75.0054 1861.84 75.3261 1863.61 76.0635V78.0499ZM1873.39 76.839H1867.89V80.7351H1873.2V82.3982H1867.89V86.4073H1873.56V88.0717L1866.03 88.0717V75.1745H1873.39V76.839Z" fill="white"/>
</g>
<rect x="2016" width="320" height="128" rx="16" fill="white" fill-opacity="0.08"/>
<path d="M2138.11 48.6711C2137.37 45.9414 2135.2 43.7892 2132.45 43.0543C2127.42 41.6895 2107.31 41.6895 2107.31 41.6895C2107.31 41.6895 2087.2 41.6895 2082.18 43.0018C2079.48 43.7367 2077.26 45.9414 2076.51 48.6711C2075.19 53.658 2075.19 63.9992 2075.19 63.9992C2075.19 63.9992 2075.19 74.3929 2076.51 79.3273C2077.26 82.0569 2079.42 84.2091 2082.18 84.9441C2087.26 86.3089 2107.31 86.3089 2107.31 86.3089C2107.31 86.3089 2127.42 86.3089 2132.45 84.9965C2135.2 84.2616 2137.37 82.1094 2138.11 79.3797C2139.43 74.3929 2139.43 64.0517 2139.43 64.0517C2139.43 64.0517 2139.49 53.658 2138.11 48.6711Z" fill="#FF0000"/>
<path d="M2100.91 54.4453V73.5529L2117.63 63.9991L2100.91 54.4453Z" fill="white"/>
<path d="M2168.49 82.3203C2167.22 81.4804 2166.32 80.1681 2165.79 78.3308C2165.26 76.546 2165 74.1313 2165 71.1917V67.1497C2165 64.1576 2165.31 61.7429 2165.9 59.9056C2166.53 58.0683 2167.48 56.756 2168.75 55.9161C2170.08 55.0762 2171.77 54.6562 2173.89 54.6562C2175.95 54.6562 2177.64 55.0762 2178.91 55.9161C2180.18 56.756 2181.08 58.1208 2181.66 59.9056C2182.25 61.6904 2182.56 64.1051 2182.56 67.1497V71.1917C2182.56 74.1838 2182.3 76.546 2181.72 78.3833C2181.14 80.1681 2180.24 81.5329 2178.97 82.3728C2177.7 83.2127 2175.95 83.6326 2173.78 83.6326C2171.56 83.5801 2169.76 83.1602 2168.49 82.3203ZM2175.63 77.9108C2176 77.0185 2176.16 75.4961 2176.16 73.4489V64.735C2176.16 62.7402 2176 61.2704 2175.63 60.3255C2175.26 59.3807 2174.68 58.9607 2173.78 58.9607C2172.93 58.9607 2172.3 59.4332 2171.98 60.3255C2171.61 61.2704 2171.45 62.7402 2171.45 64.735V73.4489C2171.45 75.4961 2171.61 77.0185 2171.98 77.9108C2172.3 78.8032 2172.93 79.2757 2173.83 79.2757C2174.68 79.2757 2175.26 78.8557 2175.63 77.9108Z" fill="white"/>
<path d="M2266.17 71.2437V72.661C2266.17 74.4458 2266.23 75.8106 2266.33 76.703C2266.44 77.5954 2266.65 78.2778 2267.02 78.6453C2267.34 79.0652 2267.87 79.2752 2268.61 79.2752C2269.56 79.2752 2270.2 78.9077 2270.57 78.1728C2270.94 77.4379 2271.09 76.2306 2271.15 74.4983L2276.6 74.8132C2276.65 75.0757 2276.65 75.3907 2276.65 75.8106C2276.65 78.3828 2275.96 80.3251 2274.53 81.5849C2273.11 82.8447 2271.09 83.4747 2268.5 83.4747C2265.38 83.4747 2263.21 82.4773 2261.94 80.535C2260.67 78.5928 2260.04 75.6007 2260.04 71.5062V66.6243C2260.04 62.4248 2260.67 59.3802 2261.99 57.4379C2263.32 55.4957 2265.54 54.5508 2268.66 54.5508C2270.83 54.5508 2272.52 54.9707 2273.69 55.7581C2274.85 56.5455 2275.65 57.8054 2276.12 59.4327C2276.6 61.1125 2276.81 63.4222 2276.81 66.3618V71.1387H2266.17V71.2437ZM2266.97 59.4852C2266.65 59.9051 2266.44 60.535 2266.33 61.4274C2266.23 62.3198 2266.17 63.6846 2266.17 65.5219V67.5167H2270.83V65.5219C2270.83 63.7371 2270.78 62.3723 2270.67 61.4274C2270.57 60.4825 2270.3 59.8526 2269.98 59.4852C2269.67 59.1177 2269.14 58.9077 2268.5 58.9077C2267.76 58.8552 2267.28 59.0652 2266.97 59.4852Z" fill="white"/>
<path d="M2153.04 70.7191L2145.84 44.8398H2152.14L2154.68 56.5459C2155.31 59.433 2155.79 61.9002 2156.11 63.9475H2156.26C2156.48 62.4776 2156.95 60.0629 2157.69 56.5984L2160.34 44.8398H2166.64L2159.33 70.7191V83.1076H2153.09V70.7191H2153.04Z" fill="white"/>
<path d="M2203.04 55.1797V83.1587H2198.07L2197.54 79.7466H2197.38C2196.06 82.3188 2193.99 83.6311 2191.29 83.6311C2189.44 83.6311 2188.07 83.0012 2187.17 81.7939C2186.27 80.5865 2185.84 78.6968 2185.84 76.0721V55.1797H2192.19V75.7046C2192.19 76.9645 2192.35 77.8569 2192.62 78.3818C2192.88 78.9067 2193.36 79.1692 2193.99 79.1692C2194.52 79.1692 2195.05 79.0117 2195.58 78.6443C2196.11 78.3293 2196.48 77.9094 2196.69 77.3844V55.1797H2203.04Z" fill="white"/>
<path d="M2235.59 55.1797V83.1587H2230.61L2230.09 79.7466H2229.93C2228.6 82.3188 2226.54 83.6311 2223.84 83.6311C2221.99 83.6311 2220.61 83.0012 2219.71 81.7939C2218.81 80.5865 2218.39 78.6968 2218.39 76.0721V55.1797H2224.74V75.7046C2224.74 76.9645 2224.9 77.8569 2225.16 78.3818C2225.43 78.9067 2225.9 79.1692 2226.54 79.1692C2227.07 79.1692 2227.6 79.0117 2228.13 78.6443C2228.66 78.3293 2229.03 77.9094 2229.24 77.3844V55.1797H2235.59Z" fill="white"/>
<path d="M2220.29 49.9317H2214V83.1076H2207.8V49.9317H2201.51V44.8398H2220.29V49.9317Z" fill="white"/>
<path d="M2256.6 59.6424C2256.23 57.8576 2255.59 56.5977 2254.74 55.8103C2253.9 55.0229 2252.68 54.603 2251.2 54.603C2250.03 54.603 2248.92 54.9179 2247.92 55.6004C2246.91 56.2303 2246.12 57.1227 2245.59 58.1725H2245.54V43.4219H2239.4V83.1069H2244.64L2245.27 80.4822H2245.43C2245.91 81.4271 2246.65 82.162 2247.65 82.7395C2248.66 83.2644 2249.72 83.5794 2250.93 83.5794C2253.1 83.5794 2254.64 82.582 2255.64 80.6397C2256.65 78.6975 2257.18 75.6004 2257.18 71.4534V67.0439C2257.13 63.8418 2256.97 61.3746 2256.6 59.6424ZM2250.78 71.0334C2250.78 73.0807 2250.67 74.6555 2250.51 75.8103C2250.35 76.9652 2250.03 77.8051 2249.66 78.2775C2249.24 78.75 2248.71 79.0124 2248.08 79.0124C2247.55 79.0124 2247.07 78.9074 2246.65 78.645C2246.22 78.3825 2245.85 78.0151 2245.59 77.5426V61.6896C2245.8 60.9547 2246.17 60.3248 2246.7 59.7998C2247.23 59.3274 2247.81 59.0649 2248.39 59.0649C2249.03 59.0649 2249.56 59.3274 2249.88 59.7998C2250.25 60.3248 2250.46 61.1647 2250.62 62.3195C2250.78 63.5269 2250.83 65.2067 2250.83 67.3589V71.0334H2250.78Z" fill="white"/>
<rect x="2352" width="320" height="128" rx="16" fill="white" fill-opacity="0.08"/>
<path d="M2553.13 63.4994C2553.13 86.188 2534.69 104.553 2511.99 104.553C2489.26 104.553 2470.86 86.1535 2470.86 63.4994C2470.86 40.8107 2489.3 22.4453 2511.99 22.4453C2534.69 22.4453 2553.13 40.8107 2553.13 63.4994Z" fill="white"/>
<path d="M2516.12 40.1881C2515.77 40.119 2514.04 39.8423 2512 39.8423C2509.95 39.8423 2508.22 40.119 2507.87 40.1881C2507.66 40.2227 2507.59 40.0152 2507.73 39.9114C2507.87 39.8077 2512 36.6603 2512 36.6603C2512 36.6603 2516.12 39.8077 2516.26 39.9114C2516.4 40.0152 2516.33 40.2227 2516.12 40.1881ZM2508.98 60.5249C2508.98 60.5249 2508.77 60.5941 2508.7 60.8016C2509.57 61.4588 2510.16 62.9806 2511.96 62.9806C2513.76 62.9806 2514.35 61.4588 2515.22 60.8016C2515.15 60.5941 2514.94 60.5249 2514.94 60.5249C2514.94 60.5249 2513.8 60.8016 2511.96 60.8016C2510.12 60.8016 2508.98 60.5249 2508.98 60.5249ZM2511.96 58.0001C2511.48 58.0001 2511.34 57.8272 2511.03 57.8272C2510.71 57.8272 2510.06 58.1039 2509.92 58.3114C2509.92 58.4152 2509.99 58.5189 2510.06 58.6227C2510.78 58.7264 2511.13 59.1415 2511.96 59.1415C2512.79 59.1415 2513.14 58.7264 2513.87 58.6227C2513.97 58.5189 2514.01 58.4152 2514.01 58.3114C2513.87 58.0693 2513.24 57.8272 2512.9 57.8272C2512.58 57.7926 2512.48 58.0001 2511.96 58.0001ZM2553.06 65.7475C2552.99 66.7159 2552.92 67.7189 2552.82 68.6527C2548.18 69.4136 2546.51 65.2979 2541.73 65.4708C2542.01 66.4738 2542.25 67.5114 2542.42 68.549C2546.37 68.549 2547.93 72.2151 2552.33 71.6618C2552.09 72.7685 2551.81 73.8753 2551.5 74.9821C2548.04 75.3279 2546.82 71.9039 2542.8 71.973C2542.84 72.561 2542.84 73.1144 2542.84 73.7024C2542.84 74.0136 2542.84 74.3595 2542.8 74.6708C2546.23 74.6362 2547.34 77.7836 2550.6 77.6452C2550.19 78.752 2549.73 79.8242 2549.25 80.8963C2546.89 80.758 2546.1 77.7836 2542.56 78.0257C2542.46 78.7866 2542.32 79.5475 2542.15 80.3084C2545.23 80.1008 2545.89 82.9369 2548.11 83.1444C2547.55 84.182 2546.93 85.185 2546.3 86.1535C2544.99 85.4617 2543.84 83.352 2541.38 83.2136C2541.63 82.4181 2541.87 81.6226 2542.04 80.8272C2539.82 80.8272 2537.33 79.9625 2535.21 78.0602C2535.91 74.152 2529.84 70.2091 2529.84 67.3385C2529.84 64.2603 2531.4 62.531 2531.4 58.346C2531.4 55.2332 2529.88 51.8783 2527.63 49.5956C2527.17 49.146 2526.72 48.8001 2526.2 48.4543C2528.28 51.0483 2529.91 54.0919 2529.91 57.6543C2529.91 61.5971 2528.08 63.6723 2528.08 67.3039C2528.08 70.9354 2533.41 74.0828 2533.41 77.8181C2533.41 79.3054 2532.93 80.7234 2531.4 83.5595C2533.79 85.9459 2536.91 87.2256 2538.92 87.2256C2539.58 87.2256 2539.93 87.0181 2540.17 86.5339C2540.38 86.0843 2540.55 85.6347 2540.72 85.185C2542.87 85.2542 2543.88 87.2256 2545.06 88.0211C2544.4 88.8858 2543.7 89.7505 2542.98 90.5805C2542.18 89.6813 2541.11 88.1941 2539.51 87.779C2539.23 88.3324 2538.92 88.8512 2538.61 89.4046C2539.96 89.785 2540.9 91.1339 2541.63 92.0332C2540.86 92.8286 2540.03 93.5895 2539.2 94.3504C2538.68 93.5549 2537.85 92.5174 2536.95 91.9294L2535.91 93.2783C2536.7 93.7971 2537.36 94.7655 2537.81 95.5264C2536.84 96.3219 2535.84 97.0482 2534.8 97.7399C2534.28 93.555 2528.6 90.7189 2530.12 85.8768C2529.6 86.7414 2529.01 87.8136 2529.01 89.0933C2529.01 92.5865 2532.75 95.388 2533.03 98.8467C2532.27 99.2963 2531.47 99.7459 2530.64 100.161C2530.5 96.3219 2526.55 92.1369 2526.55 89.0241C2526.55 85.5309 2531.16 82.0031 2531.16 77.8527C2531.16 73.7024 2525.86 70.8317 2525.86 67.2001C2525.86 63.5685 2528.11 61.4934 2528.11 56.8242C2528.11 53.4001 2526.48 49.9761 2523.99 47.7626C2523.54 47.3821 2523.12 47.0708 2522.57 46.7941C2524.92 49.6302 2526.31 52.1896 2526.31 56.0979C2526.31 60.4904 2523.71 62.9114 2523.71 67.2001C2523.71 71.4888 2528.91 73.8753 2528.91 77.8527C2528.91 81.8302 2524.06 85.2196 2524.06 89.3354C2524.06 93.0707 2528.32 96.8061 2528.39 101.233C2527.45 101.648 2526.52 102.029 2525.55 102.34C2526.1 97.8783 2521.28 93.2437 2521.28 89.5775C2521.28 85.6001 2526.31 82.1414 2526.31 77.8527C2526.31 73.564 2521.21 71.558 2521.21 67.1309C2521.21 62.7039 2524.37 60.2482 2524.37 55.3716C2524.37 51.5671 2522.5 48.143 2519.72 46.0332C2519.65 45.9987 2519.62 45.9295 2519.55 45.8949C2519.31 45.6874 2519.07 45.9295 2519.27 46.1716C2521.21 48.5926 2522.25 51.0483 2522.25 54.6798C2522.25 59.1415 2518.65 62.7731 2518.65 67.0964C2518.65 72.2151 2523.5 73.6678 2523.5 77.8527C2523.5 82.0377 2518.3 85.3926 2518.3 89.8542C2518.3 93.97 2523.22 98.57 2522.36 103.308C2521.39 103.55 2520.38 103.793 2519.38 103.965C2520.31 98.0512 2515.5 93.7625 2515.5 89.8888C2515.5 85.7038 2520.87 81.9339 2520.87 77.8527C2520.87 73.979 2517.02 72.7339 2516.5 68.7565C2516.43 68.2031 2515.98 67.8227 2515.39 67.9264C2514.59 68.0648 2513.59 68.5836 2512.03 68.5836C2510.44 68.5836 2509.47 68.0648 2508.67 67.9264C2508.08 67.8227 2507.63 68.2377 2507.56 68.7565C2507.04 72.7339 2503.19 73.979 2503.19 77.8527C2503.19 81.9685 2508.57 85.7038 2508.57 89.8888C2508.57 93.7625 2503.75 98.0166 2504.68 103.965C2503.68 103.793 2502.67 103.55 2501.7 103.308C2500.87 98.5354 2505.76 93.97 2505.76 89.8542C2505.76 85.3926 2500.56 82.0377 2500.56 77.8527C2500.56 73.6678 2505.41 72.2151 2505.41 67.0964C2505.41 62.7731 2501.81 59.1415 2501.81 54.6798C2501.81 51.0483 2502.85 48.5926 2504.79 46.1716C2504.96 45.9295 2504.75 45.722 2504.51 45.8949C2504.44 45.9295 2504.41 45.9987 2504.34 46.0332C2501.6 48.143 2499.69 51.5671 2499.69 55.3716C2499.69 60.2482 2502.85 62.7039 2502.85 67.1309C2502.85 71.558 2497.75 73.564 2497.75 77.8527C2497.75 82.1414 2502.78 85.6001 2502.78 89.5775C2502.78 93.2437 2497.96 97.8437 2498.52 102.34C2497.54 101.994 2496.61 101.648 2495.67 101.233C2495.74 96.8061 2500.01 93.0707 2500.01 89.3354C2500.01 85.2196 2495.15 81.8647 2495.15 77.8527C2495.15 73.8407 2500.35 71.4888 2500.35 67.2001C2500.35 62.9114 2497.75 60.4904 2497.75 56.0979C2497.75 52.1896 2499.14 49.6302 2501.5 46.7941C2500.98 47.0708 2500.53 47.3821 2500.07 47.7626C2497.58 49.9761 2495.95 53.4347 2495.95 56.8242C2495.95 61.4934 2498.2 63.5685 2498.2 67.2001C2498.2 70.8317 2492.9 73.7024 2492.9 77.8527C2492.9 82.0031 2497.51 85.4963 2497.51 89.0241C2497.51 92.1715 2493.56 96.3564 2493.42 100.161C2492.62 99.7459 2491.83 99.3309 2491.03 98.8467C2491.34 95.3534 2495.08 92.5865 2495.08 89.0933C2495.08 87.8136 2494.5 86.7414 2493.98 85.8768C2495.5 90.7189 2489.82 93.5895 2489.3 97.7399C2488.26 97.0482 2487.25 96.3219 2486.28 95.5264C2486.73 94.7655 2487.43 93.7971 2488.19 93.2783C2487.84 92.8286 2487.46 92.4136 2487.15 91.9294C2486.21 92.4828 2485.42 93.5204 2484.9 94.3504C2484.06 93.6241 2483.23 92.8286 2482.47 92.0332C2483.2 91.1339 2484.13 89.7505 2485.49 89.4046C2485.17 88.8858 2484.86 88.3324 2484.58 87.779C2482.99 88.1941 2481.92 89.6813 2481.12 90.5805C2480.39 89.7505 2479.7 88.9204 2479.04 88.0211C2480.25 87.2256 2481.22 85.2888 2483.41 85.185C2483.58 85.6347 2483.79 86.0843 2483.96 86.5339C2484.2 87.0527 2484.55 87.2256 2485.21 87.2256C2487.22 87.2256 2490.34 85.9114 2492.73 83.5595C2491.17 80.7234 2490.72 79.3054 2490.72 77.8181C2490.72 74.0828 2496.05 70.9354 2496.05 67.3039C2496.05 63.6723 2494.22 61.5971 2494.22 57.6543C2494.22 54.0919 2495.81 51.0483 2497.93 48.4543C2497.41 48.7656 2496.96 49.146 2496.51 49.5956C2494.22 51.8783 2492.73 55.2678 2492.73 58.346C2492.73 62.531 2494.29 64.2257 2494.29 67.3385C2494.29 70.2091 2488.22 74.152 2488.92 78.0602C2486.8 79.9971 2484.27 80.8272 2482.05 80.8272C2482.26 81.6226 2482.47 82.4181 2482.71 83.2136C2480.22 83.352 2479.07 85.4617 2477.79 86.1535C2477.13 85.185 2476.54 84.182 2475.99 83.1444C2478.21 82.9023 2478.87 80.0663 2481.95 80.3084C2481.78 79.5475 2481.64 78.7866 2481.53 78.0257C2477.97 77.7836 2477.17 80.7926 2474.85 80.8963C2474.36 79.8242 2473.91 78.752 2473.49 77.6452C2476.75 77.7836 2477.86 74.6362 2481.26 74.6708V73.7024C2481.26 73.1144 2481.29 72.561 2481.29 71.973C2477.27 71.8693 2476.06 75.3279 2472.59 74.9821C2472.28 73.9099 2472 72.8031 2471.76 71.6618C2476.13 72.2151 2477.72 68.5144 2481.67 68.549C2481.85 67.5114 2482.09 66.4738 2482.37 65.4708C2477.58 65.2633 2475.92 69.4136 2471.28 68.6527C2471.14 67.6843 2471.07 66.7159 2471 65.7475C2476.41 66.3355 2478.45 61.9084 2483.37 62.4618C2483.82 61.2858 2484.38 60.1445 2485 59.0377C2478.83 57.9655 2476.72 63.1189 2470.96 62.3234C2471.45 40.1881 2489.64 22.4453 2511.96 22.4453C2534.31 22.4453 2552.47 40.1881 2553.1 62.358C2547.34 63.1535 2545.23 58.0001 2539.06 59.0723C2539.68 60.1791 2540.2 61.3204 2540.69 62.4964C2545.61 61.9084 2547.62 66.37 2553.06 65.7475ZM2494.29 48.5235C2491.27 47.2783 2487.6 47.5896 2484.45 49.5956C2483.96 46.6904 2482.37 44.0964 2480.11 42.54C2479.8 42.3325 2479.49 42.54 2479.49 42.8859C2479.98 49.0423 2476.37 54.3686 2471.94 59.0723C2476.51 60.4558 2480.39 54.5761 2486.28 56.6167C2488.47 53.4693 2491.17 50.7024 2494.29 48.5235ZM2511.96 44.8227C2508.15 44.8227 2504.93 46.9671 2504.09 49.7686C2504.03 49.9761 2504.13 50.1144 2504.37 50.0107C2505.06 49.6994 2505.83 49.5611 2506.69 49.5611C2508.25 49.5611 2509.64 50.149 2510.44 51.1174C2510.78 52.2934 2510.82 54.0227 2510.4 54.9911C2509.78 54.8528 2509.54 54.3686 2508.91 54.3686C2508.29 54.3686 2507.8 54.8182 2506.73 54.8182C2505.65 54.8182 2505.55 54.2994 2504.86 54.2994C2504.03 54.2994 2503.89 55.1295 2503.89 56.0979C2503.89 60.352 2507.8 66.1971 2511.96 66.1971C2516.12 66.1971 2520.04 60.352 2520.04 56.0979C2520.04 55.1295 2519.83 54.334 2519 54.2302C2518.58 54.5415 2518.16 54.8182 2517.19 54.8182C2516.12 54.8182 2515.84 54.3686 2515.22 54.3686C2514.46 54.3686 2514.53 55.9595 2513.62 56.0633C2513.04 54.6453 2513 52.7776 2513.49 51.152C2514.28 50.149 2515.67 49.5956 2517.23 49.5956C2518.06 49.5956 2518.86 49.734 2519.55 50.0453C2519.79 50.149 2519.9 50.0107 2519.83 49.8032C2519 46.9671 2515.77 44.8227 2511.96 44.8227ZM2518.06 50.9099C2517.12 50.9099 2516.09 51.1866 2515.39 51.9475C2515.32 52.155 2515.32 52.4663 2515.43 52.6392C2517.09 52.0859 2518.55 52.0513 2519.27 52.8468C2519.65 52.5009 2519.76 52.1896 2519.76 51.8438C2519.76 51.2904 2519.17 50.9099 2518.06 50.9099ZM2504.68 52.8468C2505.48 52.0513 2507.18 52.0859 2508.91 52.7084C2508.98 51.8438 2507.42 50.8753 2505.86 50.8753C2504.72 50.8753 2504.16 51.2558 2504.16 51.8092C2504.2 52.1896 2504.3 52.5009 2504.68 52.8468ZM2531.02 38.4588C2528.01 38.6663 2525.37 39.7039 2523.26 41.4332C2524.16 38.8739 2525.3 36.6603 2526.76 34.516C2522.91 34.931 2519.72 36.3145 2517.37 38.7355L2515.53 33.928L2519.59 30.331L2514.14 29.9506L2511.96 24.9009L2509.78 29.9506L2504.34 30.331L2508.39 33.928L2506.56 38.7355C2504.2 36.349 2501.01 34.931 2497.16 34.516C2498.62 36.6603 2499.76 38.9084 2500.66 41.4332C2498.55 39.7039 2495.92 38.6663 2492.9 38.4588C2494.7 40.7761 2496.3 43.2663 2497.51 45.9295C2497.65 46.2408 2497.93 46.3445 2498.24 46.1716C2502.36 44.131 2507.01 42.955 2511.96 42.955C2516.88 42.955 2521.53 44.0964 2525.68 46.1716C2526 46.3445 2526.27 46.2408 2526.41 45.9295C2527.59 43.2663 2529.22 40.7761 2531.02 38.4588ZM2537.61 56.6167C2543.53 54.5761 2547.41 60.4212 2551.99 59.0723C2547.55 54.3686 2543.95 49.0423 2544.43 42.8859C2544.47 42.54 2544.12 42.3325 2543.84 42.54C2541.59 44.0964 2540 46.6904 2539.51 49.5956C2536.39 47.5896 2532.72 47.3129 2529.67 48.5235C2532.79 50.7024 2535.46 53.4693 2537.61 56.6167Z" fill="#00643C"/>
<path d="M2536.22 101.614H2534.76V101.061H2538.33V101.614H2536.84V105.557H2536.22V101.614Z" fill="#00643C"/>
<path d="M2542.66 101.061H2543.63V105.557H2543.01V101.787H2542.98L2541.49 105.557H2541.07L2539.55 101.787V105.557H2538.92V101.061H2539.93L2541.28 104.519H2541.31L2542.66 101.061Z" fill="#00643C"/>
<rect x="2688" width="320" height="128" rx="16" fill="white" fill-opacity="0.08"/>
<path d="M2874.65 79.6595C2873.65 81.9935 2872.47 84.1419 2871.1 86.1172C2869.23 88.8099 2867.7 90.6738 2866.53 91.7089C2864.7 93.4078 2862.74 94.278 2860.65 94.3274C2859.14 94.3274 2857.33 93.8944 2855.22 93.0161C2853.1 92.1419 2851.15 91.7089 2849.37 91.7089C2847.5 91.7089 2845.5 92.1419 2843.36 93.0161C2841.22 93.8945 2839.49 94.3522 2838.17 94.3975C2836.16 94.4841 2834.15 93.5893 2832.15 91.7089C2830.88 90.5831 2829.28 88.6532 2827.37 85.9193C2825.32 82.9997 2823.63 79.6141 2822.31 75.7543C2820.9 71.5854 2820.19 67.5483 2820.19 63.6399C2820.19 59.1628 2821.14 55.3014 2823.06 52.0655C2824.56 49.4664 2826.57 47.4161 2829.07 45.911C2831.58 44.4058 2834.29 43.6388 2837.21 43.5898C2838.8 43.5898 2840.9 44.0891 2843.5 45.0706C2846.09 46.0553 2847.75 46.5547 2848.49 46.5547C2849.03 46.5547 2850.88 45.9708 2854.02 44.8067C2856.98 43.7271 2859.49 43.28 2861.54 43.4561C2867.09 43.9097 2871.27 46.1254 2874.04 50.1171C2869.07 53.1629 2866.62 57.4288 2866.66 62.9013C2866.71 67.164 2868.24 70.7112 2871.24 73.5277C2872.6 74.8349 2874.12 75.8452 2875.82 76.5627C2875.45 77.6389 2875.06 78.6698 2874.65 79.6595ZM2861.91 28.9342C2861.91 32.2752 2860.7 35.3947 2858.3 38.2821C2855.39 41.7147 2851.88 43.6982 2848.07 43.3852C2848.02 42.9652 2848 42.5424 2848 42.1192C2848 38.9118 2849.38 35.4792 2851.83 32.6727C2853.05 31.2517 2854.61 30.0701 2856.5 29.1276C2858.38 28.1991 2860.16 27.6856 2861.84 27.5977C2861.89 28.0443 2861.91 28.491 2861.91 28.9342Z" fill="white"/>
<rect x="3024" width="320" height="128" rx="16" fill="white" fill-opacity="0.08"/>
<path d="M3092.56 70.3211C3092.56 72.5999 3093.05 74.3494 3093.7 75.4079C3094.56 76.7942 3095.83 77.3815 3097.13 77.3815C3098.8 77.3815 3100.33 76.9644 3103.27 72.8655C3105.64 69.5802 3108.42 64.9687 3110.29 62.0777L3113.46 57.1798C3115.67 53.7783 3118.22 49.997 3121.14 47.4339C3123.52 45.3419 3126.1 44.1797 3128.69 44.1797C3133.04 44.1797 3137.18 46.7137 3140.35 51.4663C3143.82 56.6714 3145.51 63.2275 3145.51 69.9932C3145.51 74.0153 3144.72 76.9706 3143.38 79.3054C3142.08 81.5634 3139.55 83.8194 3135.3 83.8194V77.3815C3138.94 77.3815 3139.85 74.0194 3139.85 70.1717C3139.85 64.6885 3138.58 58.6035 3135.78 54.2556C3133.79 51.1716 3131.21 49.2872 3128.38 49.2872C3125.31 49.2872 3122.85 51.6116 3120.08 55.7561C3118.6 57.9581 3117.09 60.6416 3115.39 63.6695L3113.52 67.0005C3109.76 73.6977 3108.81 75.2232 3106.93 77.7406C3103.64 82.1487 3100.83 83.8194 3097.13 83.8194C3092.73 83.8194 3089.96 81.9079 3088.24 79.0273C3086.83 76.6801 3086.14 73.6002 3086.14 70.0907L3092.56 70.3211Z" fill="#0081FB"/>
<path d="M3091.2 51.9208C3094.14 47.3654 3098.39 44.1797 3103.25 44.1797C3106.07 44.1797 3108.87 45.0181 3111.8 47.4193C3115 50.0447 3118.41 54.3677 3122.66 61.4925L3124.19 64.0493C3127.87 70.2173 3129.96 73.3906 3131.19 74.8869C3132.77 76.8087 3133.87 77.3815 3135.31 77.3815C3138.95 77.3815 3139.86 74.0194 3139.86 70.1717L3145.51 69.9932C3145.51 74.0153 3144.72 76.9706 3143.38 79.3054C3142.08 81.5634 3139.56 83.8194 3135.31 83.8194C3132.66 83.8194 3130.32 83.2424 3127.73 80.7872C3125.74 78.9028 3123.42 75.5552 3121.63 72.5459L3116.3 63.6052C3113.63 59.1182 3111.18 55.7727 3109.76 54.2577C3108.24 52.6285 3106.28 50.6611 3103.15 50.6611C3100.61 50.6611 3098.46 52.448 3096.66 55.1813L3091.2 51.9208Z" fill="url(#paint3_linear_2277_22226)"/>
<path d="M3103.14 50.6611C3100.61 50.6611 3098.46 52.448 3096.66 55.1813C3094.12 59.0435 3092.56 64.7965 3092.56 70.3211C3092.56 72.5999 3093.05 74.3494 3093.7 75.4079L3088.24 79.0273C3086.83 76.6801 3086.14 73.6002 3086.14 70.0907C3086.14 63.709 3087.89 57.0574 3091.2 51.9208C3094.14 47.3654 3098.38 44.1797 3103.25 44.1797L3103.14 50.6611Z" fill="url(#paint4_linear_2277_22226)"/>
<path d="M3157.98 45.4336H3165.39L3178.01 68.3706L3190.62 45.4336H3197.88V83.1224H3191.82V54.2373L3180.76 74.2398H3175.09L3164.03 54.2373V83.1224H3157.98V45.4336ZM3216.83 59.486C3212.5 59.486 3209.88 62.7692 3209.26 66.8349H3223.98C3223.68 62.6468 3221.28 59.486 3216.83 59.486ZM3203.26 69.151C3203.26 60.5963 3208.76 54.3702 3216.94 54.3702C3224.99 54.3702 3229.8 60.5174 3229.8 69.6076V71.2782H3209.26C3209.99 75.7009 3212.9 78.6811 3217.61 78.6811C3221.37 78.6811 3223.71 77.5293 3225.94 75.4228L3229.15 79.3805C3226.12 82.1802 3222.27 83.7948 3217.4 83.7948C3208.54 83.7948 3203.26 77.301 3203.26 69.151ZM3237.13 60.0256H3231.56V55.0447H3237.13V46.8075H3242.97V55.0447H3251.43V60.0256H3242.97V72.6501C3242.97 76.9606 3244.34 78.4922 3247.71 78.4922C3249.25 78.4922 3250.13 78.3594 3251.43 78.1415V83.0684C3249.81 83.5292 3248.26 83.7409 3246.59 83.7409C3240.28 83.7409 3237.13 80.2791 3237.13 73.3495V60.0256ZM3276.02 64.8695C3274.84 61.8934 3272.23 59.7018 3268.38 59.7018C3263.39 59.7018 3260.19 63.2652 3260.19 69.07C3260.19 74.7296 3263.13 78.4653 3268.14 78.4653C3272.08 78.4653 3274.89 76.1616 3276.02 73.2955V64.8695ZM3281.85 83.1224H3276.12V79.1916C3274.52 81.5057 3271.61 83.7948 3266.88 83.7948C3259.29 83.7948 3254.22 77.4047 3254.22 69.07C3254.22 60.6565 3259.41 54.3702 3267.21 54.3702C3271.06 54.3702 3274.08 55.9184 3276.12 58.6517V55.0447H3281.85V83.1224Z" fill="url(#paint5_linear_2277_22226)"/>
<defs>
<linearGradient id="paint0_linear_2277_22226" x1="1418.74" y1="68.4616" x2="1459.62" y2="70.5151" gradientUnits="userSpaceOnUse">
<stop stop-color="#0064E1"/>
<stop offset="0.4" stop-color="#0064E1"/>
<stop offset="0.83" stop-color="#0073EE"/>
<stop offset="1" stop-color="#0082FB"/>
</linearGradient>
<linearGradient id="paint1_linear_2277_22226" x1="1415.43" y1="73.0274" x2="1415.43" y2="57.8772" gradientUnits="userSpaceOnUse">
<stop stop-color="#0082FB"/>
<stop offset="1" stop-color="#0064E0"/>
</linearGradient>
<linearGradient id="paint2_linear_2277_22226" x1="1495.17" y1="68.9324" x2="1587.35" y2="79.8477" gradientUnits="userSpaceOnUse">
<stop stop-color="#0064E1"/>
<stop offset="0.4" stop-color="#0064E1"/>
<stop offset="0.83" stop-color="#0073EE"/>
<stop offset="1" stop-color="#0082FB"/>
</linearGradient>
<linearGradient id="paint3_linear_2277_22226" x1="3098.74" y1="68.4616" x2="3139.62" y2="70.5151" gradientUnits="userSpaceOnUse">
<stop stop-color="#0064E1"/>
<stop offset="0.4" stop-color="#0064E1"/>
<stop offset="0.83" stop-color="#0073EE"/>
<stop offset="1" stop-color="#0082FB"/>
</linearGradient>
<linearGradient id="paint4_linear_2277_22226" x1="3095.43" y1="73.0274" x2="3095.43" y2="57.8772" gradientUnits="userSpaceOnUse">
<stop stop-color="#0082FB"/>
<stop offset="1" stop-color="#0064E0"/>
</linearGradient>
<linearGradient id="paint5_linear_2277_22226" x1="3175.17" y1="68.9324" x2="3267.35" y2="79.8477" gradientUnits="userSpaceOnUse">
<stop stop-color="#0064E1"/>
<stop offset="0.4" stop-color="#0064E1"/>
<stop offset="0.83" stop-color="#0073EE"/>
<stop offset="1" stop-color="#0082FB"/>
</linearGradient>
</defs>
</svg>
