<svg width="3344" height="128" viewBox="0 0 3344 128" fill="none" xmlns="http://www.w3.org/2000/svg">
<rect width="320" height="128" rx="16" fill="white" fill-opacity="0.08"/>
<path d="M186.577 61.9299C185.911 62.1471 185.002 62.3314 183.872 62.4736C183.334 62.5444 182.735 62.58 182.034 62.58C180.857 62.58 179.581 62.4856 178.346 62.3884L178.304 62.3868C177.159 62.2997 176.077 62.218 175.038 62.218C174.296 62.218 173.616 62.2621 172.964 62.3462C171.024 62.589 169.494 63.2027 169.494 63.2027L169.51 63.0439C169.886 59.1237 173.156 55.7769 177.112 55.2476C177.483 55.2033 177.856 55.1809 178.229 55.1802C181.957 55.1802 185.572 58.0271 186.646 61.8087L186.673 61.9067L186.577 61.9299ZM191.132 63.5942L191.13 63.5407C191.113 63.2887 191.066 62.8809 191.013 62.4426C190.912 61.6509 190.74 60.87 190.5 60.1092C188.701 54.3914 183.884 50.7016 178.229 50.7016C177.665 50.7016 177.082 50.7376 176.507 50.8166C169.254 51.7568 164.329 58.3779 165.288 65.89C166.16 72.6908 171.592 77.3499 178.202 77.3499C178.76 77.3499 179.341 77.3112 179.927 77.2399C183.45 76.7892 186.546 75.3026 188.865 72.412C188.995 72.2475 189.06 72.0372 189.036 71.8486C189.015 71.6813 188.917 71.5222 188.742 71.3944C188.353 71.1125 186.964 70.4341 186.209 70.0713C185.987 69.959 185.807 69.8726 185.708 69.8227C185.479 69.7038 185.315 69.6504 185.165 69.6504C184.982 69.6504 184.808 69.7448 184.639 69.9524C183.144 71.7026 181.252 72.6227 179.319 72.8782C178.935 72.9255 178.564 72.9507 178.202 72.9507C174.679 72.9507 171.124 70.5743 170.092 67.3127L170.066 67.2275L170.142 67.1903C170.325 67.0989 171.973 66.3257 174.416 66.3257C174.719 66.3257 175.028 66.338 175.329 66.3652C176.03 66.4209 176.734 66.5123 177.476 66.6072C178.846 66.7895 180.267 66.9789 181.925 66.9789C182.946 66.9776 183.965 66.9047 184.976 66.7605C189.009 65.9775 190.609 64.8383 190.621 64.8283C191.191 64.4569 191.17 64.1495 191.131 63.5942M254.303 52.1986C254.303 51.8574 254.025 51.5829 253.69 51.5829H250.352C250.02 51.5829 249.745 51.8574 249.745 52.1986V76.1042C249.745 76.4419 250.02 76.721 250.352 76.721H253.69C254.025 76.721 254.303 76.4419 254.303 76.1042V52.1986ZM252.024 43.0566C250.365 43.0566 249.011 44.4212 249.011 46.0952C249.011 47.7653 250.365 49.1268 252.024 49.1268C253.687 49.1268 255.036 47.7653 255.036 46.0952C255.036 44.4212 253.687 43.0566 252.024 43.0566ZM207.843 55.2418C212.573 55.2418 216.279 59.1632 216.279 64.1723C216.279 69.2112 212.763 73.0076 208.098 73.0076C205.742 73.0076 203.559 72.1565 201.961 70.6149C200.313 69.03 199.409 66.7919 199.409 64.3225C199.409 59.315 203.192 55.2418 207.843 55.2418ZM207.695 77.358C207.906 77.3669 208.124 77.3755 208.337 77.3755C211.766 77.3755 214.952 76.0419 217.321 73.6384C219.722 71.188 221.04 67.8281 221.04 64.1723C221.04 56.6191 215.268 50.7016 207.897 50.7016C201.899 50.7016 196.836 54.6803 195.287 60.599C195.024 61.6039 194.752 64.1665 194.752 66.7222V85.4793C194.752 85.8212 195.024 86.0996 195.364 86.0996H198.674C199.016 86.0996 199.293 85.8177 199.293 85.4742L199.291 73.6585L199.464 73.8289C201.09 75.42 204.106 77.1884 207.695 77.358ZM148.365 55.2418C153.091 55.2418 156.799 59.1632 156.799 64.1723C156.799 69.2112 153.283 73.0076 148.614 73.0076C146.253 73.0076 144.08 72.1565 142.483 70.6149C140.832 69.03 139.924 66.7919 139.924 64.3225C139.924 59.315 143.71 55.2418 148.365 55.2418ZM148.218 77.358C148.429 77.3669 148.647 77.3755 148.855 77.3755C152.288 77.3755 155.476 76.0419 157.84 73.6384C160.242 71.188 161.564 67.8281 161.564 64.1723C161.564 56.6191 155.787 50.7016 148.415 50.7016C142.419 50.7016 137.351 54.6803 135.806 60.599C135.538 61.6039 135.27 64.1665 135.27 66.7222V85.4793C135.27 85.8212 135.545 86.0996 135.876 86.0996H139.196C139.537 86.0996 139.814 85.8177 139.814 85.4742L139.808 73.6585L139.976 73.8289C141.603 75.42 144.618 77.1884 148.218 77.358ZM224.23 73.1706C227.112 75.8277 230.261 77.3456 234.348 77.3456H234.478C241.534 77.2996 244.686 73.4145 244.686 69.5868C244.686 64.2923 239.727 62.8453 238.208 62.5243C237.721 62.4286 237.214 62.3326 236.694 62.2284C235.466 61.9903 234.191 61.7444 233.032 61.4219C232.22 61.1973 229.572 60.3086 229.572 58.314C229.572 56.1185 231.991 54.9347 234.263 54.9347C236.172 54.9347 237.764 55.2584 239.8 56.8604C239.959 56.9866 240.182 57.1314 240.455 57.1314C240.656 57.1314 240.849 57.061 241.057 56.9115C241.621 56.4929 242.653 55.6162 243.334 54.9297C243.495 54.7659 243.57 54.5866 243.56 54.3992C243.544 54.108 243.329 53.8698 243.22 53.7781C240.496 51.6019 237.875 50.7113 234.18 50.7016H234.153C228.867 50.7016 224.876 54.1246 224.876 58.6629C224.876 62.259 227.811 64.8132 233.13 65.8656L236.462 66.5088C238.651 66.9138 239.882 68.0848 239.839 69.7251C239.8 71.3235 237.854 72.9789 234.656 72.9789C232.046 72.9789 229.747 71.9524 227.821 70.1913L227.793 70.1634C227.657 70.0395 227.495 69.8877 227.276 69.8877C227.123 69.8877 226.961 69.9594 226.786 70.0968C226.585 70.261 224.36 72.0329 224.123 72.2835C224.014 72.4012 223.963 72.5255 223.966 72.656C223.971 72.8631 224.107 73.0564 224.23 73.1706Z" fill="#2151A1"/>
<path d="M116.764 85.6138C104.918 97.5504 85.7033 97.5488 73.8576 85.6138C62.0058 73.6757 62.0058 54.3212 73.8576 42.3869C85.706 30.4516 104.918 30.4516 116.762 42.3881C128.614 54.3208 128.614 73.6753 116.764 85.6138Z" fill="white"/>
<path d="M118.925 48.5762C119.509 50.4756 119.805 52.4525 119.806 54.4407C119.806 61.0258 116.591 66.8163 111.703 70.4446C103.203 76.7513 90.8134 76.7598 73.707 82.1898C78.8701 88.4063 86.6286 92.363 95.305 92.363C110.855 92.363 123.461 79.6648 123.461 64.0004C123.461 58.3141 121.79 53.0199 118.925 48.5762Z" fill="#2151A1"/>
<path d="M112.191 41.3064C107.487 37.744 101.642 35.6367 95.3068 35.6367C79.7572 35.6367 67.1523 48.3376 67.1523 64C67.1523 70.3048 69.1942 76.1279 72.6476 80.8365C91.5837 75.2818 106.536 60.3183 112.191 41.3064Z" fill="#EB1933"/>
<rect x="336" width="320" height="128" rx="16" fill="white" fill-opacity="0.08"/>
<g clip-path="url(#clip0_2277_22171)">
<path d="M585.293 62.2313L595.992 89.949C592.839 89.5084 589.688 88.9564 586.479 88.4591L580.452 73.144L574.259 87.1949C571.219 86.6976 568.234 86.532 565.194 86.1459L576.061 61.9018L566.205 37.0527H575.327L580.844 50.9363L586.758 37.0527L595.99 37.0527L585.293 62.2313ZM559.001 37.0527H550.724V85.1002C553.427 85.2661 556.241 85.3753 559.001 85.705V37.0527ZM543.572 84.5485C536.028 84.0529 528.482 83.614 520.769 83.4464V37.0529H529.214V75.6229C534.057 75.7323 538.899 76.1168 543.572 76.3371V84.5485ZM511.758 55.8432V64.1074H500.216V82.8961H491.884V37.0527H515.533V45.3169H500.218V55.8434H511.76L511.758 55.8432ZM477.693 45.3169V83.337C474.877 83.337 472.007 83.337 469.246 83.4464V45.3169H460.519V37.0527H486.475V45.3169H477.693ZM451.398 64.5465C447.683 64.5465 443.29 64.5465 440.137 64.7141V77C445.092 76.6686 450.046 76.2841 455.057 76.1185V84.0529L431.692 85.8725V37.0527H455.056V45.3169H440.136V56.448C443.403 56.448 448.414 56.2824 451.398 56.2824V64.5482L451.398 64.5465ZM404.605 59.918V88.7906C401.567 89.122 398.863 89.5082 395.992 89.949V37.0527H404.045L415.023 67.084V37.0527H423.47V86.532C420.486 87.0293 417.445 87.1949 414.236 87.6341L404.605 59.918Z" fill="#E50914"/>
</g>
<rect x="672" width="320" height="128" rx="16" fill="white" fill-opacity="0.08"/>
<path d="M731.81 67.4543H715.435V63.3092H736.551C735.997 61.5507 734.211 59.9177 731.072 59.9177H715.743C712.234 59.9177 710.202 61.2366 710.202 64.1257V67.2031C710.202 69.7153 712.296 71.1598 715.374 71.1598H731.934V75.5562H709.648C710.202 77.9428 711.988 79.1989 715.189 79.1989H731.872C735.381 79.1989 737.105 77.8172 737.105 74.8653V71.7879C737.105 69.0873 735.073 67.6428 731.81 67.4543ZM765.238 59.9805H745.046V79.2617H750.771V71.8507H765.669C769.794 71.8507 772.071 70.4062 772.071 67.0147V64.8793C772.01 61.7391 769.424 59.9805 765.238 59.9805ZM767.085 66.1354C767.085 67.5171 766.839 68.2708 764.622 68.2708H750.771L750.833 63.2464H764.376C766.839 63.2464 767.146 64.0001 767.146 65.319V66.1354H767.085ZM791.094 71.7251H778.905L775.888 74.991H793.495L796.511 79.2617H803.283L788.693 59.1641L785.245 63.4976L791.094 71.7251ZM814.241 63.3092H835.664C835.11 61.0482 832.955 59.9177 829.877 59.9177H813.871C811.101 59.9177 808.454 61.0482 808.454 64.1257V74.9281C808.454 78.0056 811.101 79.1361 813.871 79.1361H830.062C833.755 79.1361 835.048 78.0684 835.664 75.4934H814.241V63.3092ZM860.781 69.7153V66.4495L843.482 66.4495V79.2617H869.03V75.619H849.269V69.7153L860.781 69.7153ZM844.098 59.9805H869.892V63.372H844.098V59.9805ZM885.774 59.9805H876.787L887.375 67.894C888.914 66.8263 890.699 65.6958 892.3 64.7537L885.774 59.9805ZM898.825 69.8409C897.286 70.9086 895.747 72.1019 894.27 73.2324L902.273 79.1989H911.322L898.825 69.8409Z" fill="white"/>
<path d="M954.35 48.7383C905.102 51.6273 882.324 73.1067 877.215 78.1939L876.168 79.1988H885.279C909.903 54.0139 945.301 49.5547 954.35 48.7383Z" fill="white"/>
<rect x="1008" width="320" height="128" rx="16" fill="white" fill-opacity="0.08"/>
<g clip-path="url(#clip1_2277_22171)">
<path d="M1168.58 33.8123C1169.86 33.8716 1171.08 34.3559 1172.04 35.1872C1173.36 36.4246 1173.7 38.488 1173.08 40.1389C1170.66 45.0895 1164.9 48.3962 1160.97 49.4901C1158.62 50.0401 1155.64 50.0401 1153.5 49.2152C1152.46 49.8339 1151.58 51.8334 1150.31 51.0025C1148.48 49.5778 1150.07 47.3481 1149.01 45.766C1148.79 45.4402 1148.24 45.4163 1147.96 44.8832C1146.51 41.72 1148.31 38.6942 1150.31 36.2882C1153.66 32.5799 1163.25 28.4483 1168.58 33.8123ZM1157.44 36.2872C1155.57 36.6309 1153.46 37.4389 1152.32 38.763C1151.18 40.0861 1150.45 41.3763 1151.14 42.7512C1153.57 40.9638 1154.74 38.488 1157.44 36.9756C1157.44 36.6996 1157.85 36.4934 1157.44 36.2872ZM1168.72 36.9756C1163.95 36.5621 1160.35 40.1389 1156.96 43.5761C1156.75 44.1261 1155.5 44.7448 1156.47 45.3635C1161.04 45.7759 1165.4 44.4708 1168.72 41.444C1169.69 40.5503 1170.38 39.3817 1169.9 38.1433C1169.69 37.663 1169.2 37.1818 1168.72 36.9756ZM1210.1 57.4665C1212.32 62.8306 1214.19 71.2872 1210.1 76.4451C1209 77.6825 1207.06 78.8232 1205.81 77.8887C1201.24 74.2452 1199.31 69.0186 1196.47 64.342C1196.06 64.1358 1196.06 64.6867 1195.85 64.893C1194.81 69.6373 1196.75 75.8264 1193.5 79.5386C1192.25 79.7448 1191.09 79.1082 1190.66 77.8887C1189.07 73.0068 1190.73 67.9177 1191.14 63.0359C1192.11 60.56 1192.53 57.6728 1194.67 55.8157C1198.13 57.1906 1199.79 61.0423 1201.8 63.8618C1203.25 65.9929 1204.43 68.3999 1206.09 70.3248C1207.54 69.7061 1206.83 67.8191 1206.78 66.6803C1206.22 62.2109 1204.98 58.0852 1203.8 53.8221C1203.74 52.7221 1203.11 50.865 1204.29 50.1776C1207.41 51.5535 1208.72 54.7845 1210.1 57.4665ZM1189.2 55.8157C1189.2 56.8478 1188.37 58.137 1187.68 58.2915C1181.04 59.3226 1173.63 58.7039 1167.4 60.7663C1167.2 61.5225 1168.1 61.66 1168.58 61.8662C1173.91 62.6911 1179.51 62.8974 1184.71 64.2045C1187.45 64.8969 1188.44 68.125 1188.65 70.806C1188.78 72.9202 1187.96 75.4816 1185.88 76.9263C1180.76 80.1583 1172.94 80.0198 1167.75 77.0648C1165.77 75.9589 1163.88 74.1775 1163.74 71.9767C1163.75 70.2291 1164.5 68.8533 1165.75 68.1947C1170.73 66.2001 1176.89 67.302 1181.18 69.8446C1181.45 71.2205 1179.95 71.1457 1179.24 71.6329C1174.46 74.3837 1170.86 68.5404 1166.44 70.6695C1165.81 71.082 1165.36 72.2327 1166.09 72.5954C1171.56 75.0024 1177.65 73.2828 1183.04 71.7704C1183.67 71.5642 1184.43 70.9455 1184.5 70.3268C1184.29 68.126 1181.8 67.6457 1180.21 67.027C1175.5 65.8584 1170.31 65.8584 1165.26 65.3772C1164.29 65.1709 1163.06 64.5004 1162.77 63.7273C1162.21 62.0774 1162.21 59.8078 1163.46 58.4329C1169.9 52.7939 1179.65 53.2761 1187.82 54.7885C1188.37 54.9907 1188.99 55.197 1189.2 55.8157ZM1158.96 58.429C1159.59 65.0295 1159.93 71.1507 1159.79 78.0949C1159.65 78.9876 1158.62 79.1949 1157.93 79.5386C1156.82 79.7448 1155.39 79.5107 1154.95 78.9199C1153.36 76.3743 1153.91 72.9381 1153.77 69.8436C1153.98 64.9627 1153.91 59.6674 1155.3 55.1282C1155.56 54.4687 1156.33 53.8908 1156.96 54.3023C1158.62 55.1282 1158.89 56.7791 1158.96 58.429ZM1235.85 57.4665C1236.18 58.0225 1236.53 58.8813 1235.85 59.2539C1232.73 60.6288 1228.51 60.0101 1224.91 60.4226C1223.95 61.2475 1223.18 62.6224 1223.53 63.8608C1223.88 64.067 1224.19 64.3809 1224.57 64.341C1226.78 64.4795 1230.1 63.3098 1231.56 65.3722C1231.91 65.9859 1231.51 68.2774 1230.52 68.3292C1227.82 68.6749 1223.38 67.9924 1222.08 68.6749C1220.42 69.7748 1220.55 71.9059 1219.93 73.6265C1221.11 74.3827 1222.34 73.6086 1223.74 73.4193C1226.3 73.0068 1229.14 72.2506 1231.69 72.8006C1232.18 73.6943 1232.87 74.6577 1232.39 75.7576C1228.02 79.1959 1222.4 82.7198 1216.4 80.227C1214.15 79.2248 1213.15 75.8264 1213.91 72.9401C1214.39 70.8767 1216.54 68.8831 1215.23 66.6823C1215.02 65.7189 1215.57 64.8949 1216.4 64.6887C1218.69 64.6887 1218.2 61.8692 1219.38 60.562C1218.06 59.1184 1214.74 59.1871 1215.09 56.2989C1216.68 55.4739 1218.62 55.7489 1220.42 55.4739C1224.5 54.648 1229.07 54.1668 1233.22 54.648C1234.05 54.8134 1235.16 56.4354 1235.85 57.4665ZM1137.03 41.7887C1143.41 46.9755 1151.7 55.8167 1150.66 65.9929C1149.41 74.039 1140.83 80.0895 1133.57 82.0154C1126.51 84.0777 1117.65 83.8715 1110.45 82.2216C1109.97 83.5288 1109.48 85.1089 1107.96 85.6599C1106.99 86.0036 1105.75 85.7974 1104.98 85.1786C1102.84 83.1841 1104.57 79.3333 1101.45 78.0969C1095.36 75.5524 1088.79 70.532 1085.68 64.344C1085.26 63.1066 1085.75 61.8692 1086.51 60.9068C1091.28 57.1248 1097.3 55.6124 1103.32 54.4428C1103.67 54.5802 1103.53 54.099 1103.81 53.9615C1104.15 49.8359 1104.29 45.6404 1105.61 41.9272C1105.91 41.4062 1106.64 41.2398 1107.13 41.5835C1110.94 44.4708 1109.14 49.9046 1110.8 53.8231C1118.06 54.1668 1125.33 54.5105 1131.07 58.5684C1133.01 60.1496 1133.48 63.1694 1132.87 64.8949C1132.26 66.6176 1130.24 67.852 1128.37 67.9875C1127.13 67.9875 1124.78 68.108 1124.91 67.1635C1125.05 66.218 1129.15 64.6708 1127.89 63.3806C1126.08 61.5265 1117.04 60.4236 1111.43 59.7361C1110.74 59.5986 1110.1 59.8048 1110.1 60.561C1109.97 65.7866 1109.55 71.5622 1110.45 76.5836C1110.52 76.9283 1110.93 77.3408 1111.28 77.4075C1121.18 78.9896 1131.63 78.095 1139.38 72.4569C1142.98 69.5706 1144.15 65.5107 1143.53 61.0423C1140.42 48.5965 1127.34 41.1003 1116.61 36.2872C1106.16 31.749 1094.6 29.4107 1082.22 30.0304C1080.24 30.1739 1077.12 30.8503 1077.1 31.5438C1077.07 32.2372 1080.64 32.019 1080.21 33.3311C1079.78 34.6423 1076.16 33.8641 1075.09 33.5374C1074.02 33.2106 1074.12 31.6803 1074.4 30.7178C1077.1 25.9734 1084.63 25.5899 1088.03 25.4235C1106.85 24.9413 1125.05 32.0638 1137.03 41.7887ZM1103.12 60.2173C1098.34 60.2861 1093.29 60.7673 1088.86 62.4171C1087.96 62.7609 1086.85 63.7233 1087.54 64.893C1089.34 67.299 1091.92 69.2747 1094.33 70.6685C1096.74 72.0604 1099.93 73.8318 1102.84 74.2452C1103.53 69.7748 1103.53 65.3742 1103.46 60.7673C1103.18 60.6298 1103.46 60.3548 1103.12 60.2173ZM1246.16 53.9595C1245.95 59.9413 1240.34 63.6556 1240.34 69.6373C1240.55 69.8436 1240.69 70.1186 1240.97 69.9831C1245.47 65.1002 1249.89 58.155 1256.47 56.0926C1258.2 55.9551 1259.77 57.4506 1260.41 58.5684C1262.7 63.1066 1262.15 69.5018 1258.96 73.6275C1255.68 77.6775 1249.96 81.7414 1243.46 81.053C1240.76 87.6545 1238.89 94.5997 1237.85 101.82C1237.3 103.264 1235.99 101.957 1235.16 101.682C1229.55 97.2817 1234.15 85.632 1234.53 84.1455C1234.91 82.663 1236.41 79.166 1237.51 76.2378C1234.88 71.5632 1236.54 65.9231 1238.69 61.5912C1240.35 58.7029 1242.63 55.8147 1245.33 53.6148C1245.67 53.6158 1245.95 53.6846 1246.16 53.9595ZM1257.3 61.386C1256.47 61.2485 1256.12 62.3494 1255.43 62.5556C1252.25 66.1314 1249.07 69.7071 1247.47 73.9703C1249.62 74.2452 1251.42 72.8703 1253.29 72.1141C1256.47 70.1196 1258.48 66.8208 1258.27 63.0378C1258.13 62.4171 1257.58 61.9359 1257.3 61.386Z" fill="white"/>
</g>
<rect x="1344" width="320" height="128" rx="16" fill="white" fill-opacity="0.08"/>
<path d="M1526.83 99.9634V104.943H1528.45V101.627H1534.36V104.943H1535.99V99.9721L1526.83 99.9634ZM1528.27 98.3528H1534.52C1535.38 98.1833 1536.03 97.4306 1536.21 96.7026H1526.58C1526.76 97.4309 1527.41 98.1833 1528.27 98.3528ZM1521.91 104.946C1522.73 104.605 1523.17 104.014 1523.34 103.323H1516.05L1516.05 96.7067L1514.42 96.7112V104.946H1521.91ZM1502.28 98.3305H1508.05C1508.91 98.0821 1509.65 97.4309 1509.82 96.7089H1500.66V101.575H1508.16V103.283L1502.28 103.287C1501.35 103.54 1500.57 104.149 1500.18 104.952L1500.66 104.944H1509.77V99.9573H1502.28V98.3305ZM1488.04 98.3462H1494.28C1495.15 98.176 1495.79 97.4241 1495.98 96.6953H1486.34C1486.52 97.4241 1487.18 98.176 1488.04 98.3462ZM1488.04 101.601H1494.28C1495.15 101.432 1495.79 100.68 1495.98 99.9505H1486.34C1486.52 100.68 1487.18 101.432 1488.04 101.601ZM1488.04 104.945H1494.28C1495.15 104.775 1495.79 104.023 1495.98 103.294H1486.34C1486.52 104.023 1487.18 104.775 1488.04 104.945ZM1471.79 96.7153C1471.98 97.435 1472.61 98.1705 1473.48 98.3548H1476.11L1476.25 98.4069V104.927H1477.89V98.4069L1478.04 98.3548H1480.67C1481.55 98.1321 1482.17 97.435 1482.35 96.7153V96.6994H1471.79V96.7153Z" fill="#E82127"/>
<path d="M1504 80.4248L1512.2 35.0867C1520.02 35.0867 1522.48 35.9293 1522.84 39.3686C1522.84 39.3686 1528.08 37.4466 1530.73 33.5431C1520.41 28.8421 1510.04 28.63 1510.04 28.63L1503.99 35.8748L1504 35.8739L1497.95 28.6289C1497.95 28.6289 1487.58 28.8411 1477.26 33.5422C1479.9 37.4457 1485.15 39.3677 1485.15 39.3677C1485.51 35.9282 1487.97 35.0856 1495.73 35.0802L1504 80.4248Z" fill="#E82127"/>
<path d="M1504 26.5372C1512.34 26.4745 1521.89 27.8059 1531.66 31.9941C1532.97 29.6824 1533.31 28.6608 1533.31 28.6608C1522.62 24.5048 1512.61 23.0826 1504 23.0469C1495.38 23.0826 1485.37 24.5051 1474.69 28.6608C1474.69 28.6608 1475.16 29.9192 1476.33 31.9941C1486.1 27.8059 1495.65 26.4745 1504 26.5372H1504Z" fill="#E82127"/>
<rect x="1680" width="320" height="128" rx="16" fill="white" fill-opacity="0.08"/>
<path d="M1866.58 61.9299C1865.91 62.1471 1865 62.3314 1863.87 62.4736C1863.33 62.5444 1862.74 62.58 1862.03 62.58C1860.86 62.58 1859.58 62.4856 1858.35 62.3884L1858.3 62.3868C1857.16 62.2997 1856.08 62.218 1855.04 62.218C1854.3 62.218 1853.62 62.2621 1852.96 62.3462C1851.02 62.589 1849.49 63.2027 1849.49 63.2027L1849.51 63.0439C1849.89 59.1237 1853.16 55.7769 1857.11 55.2476C1857.48 55.2033 1857.86 55.1809 1858.23 55.1802C1861.96 55.1802 1865.57 58.0271 1866.65 61.8087L1866.67 61.9067L1866.58 61.9299ZM1871.13 63.5942L1871.13 63.5407C1871.11 63.2887 1871.07 62.8809 1871.01 62.4426C1870.91 61.6509 1870.74 60.87 1870.5 60.1092C1868.7 54.3914 1863.88 50.7016 1858.23 50.7016C1857.66 50.7016 1857.08 50.7376 1856.51 50.8166C1849.25 51.7568 1844.33 58.3779 1845.29 65.89C1846.16 72.6908 1851.59 77.3499 1858.2 77.3499C1858.76 77.3499 1859.34 77.3112 1859.93 77.2399C1863.45 76.7892 1866.55 75.3026 1868.86 72.412C1869 72.2475 1869.06 72.0372 1869.04 71.8486C1869.01 71.6813 1868.92 71.5222 1868.74 71.3944C1868.35 71.1125 1866.96 70.4341 1866.21 70.0713C1865.99 69.959 1865.81 69.8726 1865.71 69.8227C1865.48 69.7038 1865.31 69.6504 1865.17 69.6504C1864.98 69.6504 1864.81 69.7448 1864.64 69.9524C1863.14 71.7026 1861.25 72.6227 1859.32 72.8782C1858.94 72.9255 1858.56 72.9507 1858.2 72.9507C1854.68 72.9507 1851.12 70.5743 1850.09 67.3127L1850.07 67.2275L1850.14 67.1903C1850.32 67.0989 1851.97 66.3257 1854.42 66.3257C1854.72 66.3257 1855.03 66.338 1855.33 66.3652C1856.03 66.4209 1856.73 66.5123 1857.48 66.6072C1858.85 66.7895 1860.27 66.9789 1861.93 66.9789C1862.95 66.9776 1863.97 66.9047 1864.98 66.7605C1869.01 65.9775 1870.61 64.8383 1870.62 64.8283C1871.19 64.4569 1871.17 64.1495 1871.13 63.5942M1934.3 52.1986C1934.3 51.8574 1934.03 51.5829 1933.69 51.5829H1930.35C1930.02 51.5829 1929.74 51.8574 1929.74 52.1986V76.1042C1929.74 76.4419 1930.02 76.721 1930.35 76.721H1933.69C1934.03 76.721 1934.3 76.4419 1934.3 76.1042V52.1986ZM1932.02 43.0566C1930.36 43.0566 1929.01 44.4212 1929.01 46.0952C1929.01 47.7653 1930.36 49.1268 1932.02 49.1268C1933.69 49.1268 1935.04 47.7653 1935.04 46.0952C1935.04 44.4212 1933.69 43.0566 1932.02 43.0566ZM1887.84 55.2418C1892.57 55.2418 1896.28 59.1632 1896.28 64.1723C1896.28 69.2112 1892.76 73.0076 1888.1 73.0076C1885.74 73.0076 1883.56 72.1565 1881.96 70.6149C1880.31 69.03 1879.41 66.7919 1879.41 64.3225C1879.41 59.315 1883.19 55.2418 1887.84 55.2418ZM1887.7 77.358C1887.91 77.3669 1888.12 77.3755 1888.34 77.3755C1891.77 77.3755 1894.95 76.0419 1897.32 73.6384C1899.72 71.188 1901.04 67.8281 1901.04 64.1723C1901.04 56.6191 1895.27 50.7016 1887.9 50.7016C1881.9 50.7016 1876.84 54.6803 1875.29 60.599C1875.02 61.6039 1874.75 64.1665 1874.75 66.7222V85.4793C1874.75 85.8212 1875.02 86.0996 1875.36 86.0996H1878.67C1879.02 86.0996 1879.29 85.8177 1879.29 85.4742L1879.29 73.6585L1879.46 73.8289C1881.09 75.42 1884.11 77.1884 1887.7 77.358ZM1828.37 55.2418C1833.09 55.2418 1836.8 59.1632 1836.8 64.1723C1836.8 69.2112 1833.28 73.0076 1828.61 73.0076C1826.25 73.0076 1824.08 72.1565 1822.48 70.6149C1820.83 69.03 1819.92 66.7919 1819.92 64.3225C1819.92 59.315 1823.71 55.2418 1828.37 55.2418ZM1828.22 77.358C1828.43 77.3669 1828.65 77.3755 1828.86 77.3755C1832.29 77.3755 1835.48 76.0419 1837.84 73.6384C1840.24 71.188 1841.56 67.8281 1841.56 64.1723C1841.56 56.6191 1835.79 50.7016 1828.41 50.7016C1822.42 50.7016 1817.35 54.6803 1815.81 60.599C1815.54 61.6039 1815.27 64.1665 1815.27 66.7222V85.4793C1815.27 85.8212 1815.54 86.0996 1815.88 86.0996H1819.2C1819.54 86.0996 1819.81 85.8177 1819.81 85.4742L1819.81 73.6585L1819.98 73.8289C1821.6 75.42 1824.62 77.1884 1828.22 77.358ZM1904.23 73.1706C1907.11 75.8277 1910.26 77.3456 1914.35 77.3456H1914.48C1921.53 77.2996 1924.69 73.4145 1924.69 69.5868C1924.69 64.2923 1919.73 62.8453 1918.21 62.5243C1917.72 62.4286 1917.21 62.3326 1916.69 62.2284C1915.47 61.9903 1914.19 61.7444 1913.03 61.4219C1912.22 61.1973 1909.57 60.3086 1909.57 58.314C1909.57 56.1185 1911.99 54.9347 1914.26 54.9347C1916.17 54.9347 1917.76 55.2584 1919.8 56.8604C1919.96 56.9866 1920.18 57.1314 1920.45 57.1314C1920.66 57.1314 1920.85 57.061 1921.06 56.9115C1921.62 56.4929 1922.65 55.6162 1923.33 54.9297C1923.49 54.7659 1923.57 54.5866 1923.56 54.3992C1923.54 54.108 1923.33 53.8698 1923.22 53.7781C1920.5 51.6019 1917.88 50.7113 1914.18 50.7016H1914.15C1908.87 50.7016 1904.88 54.1246 1904.88 58.6629C1904.88 62.259 1907.81 64.8132 1913.13 65.8656L1916.46 66.5088C1918.65 66.9138 1919.88 68.0848 1919.84 69.7251C1919.8 71.3235 1917.85 72.9789 1914.66 72.9789C1912.05 72.9789 1909.75 71.9524 1907.82 70.1913L1907.79 70.1634C1907.66 70.0395 1907.49 69.8877 1907.28 69.8877C1907.12 69.8877 1906.96 69.9594 1906.79 70.0968C1906.59 70.261 1904.36 72.0329 1904.12 72.2835C1904.01 72.4012 1903.96 72.5255 1903.97 72.656C1903.97 72.8631 1904.11 73.0564 1904.23 73.1706Z" fill="#2151A1"/>
<path d="M1796.76 85.6138C1784.92 97.5504 1765.7 97.5488 1753.86 85.6138C1742.01 73.6757 1742.01 54.3212 1753.86 42.3869C1765.71 30.4516 1784.92 30.4516 1796.76 42.3881C1808.61 54.3208 1808.61 73.6753 1796.76 85.6138Z" fill="white"/>
<path d="M1798.93 48.5762C1799.51 50.4756 1799.81 52.4525 1799.81 54.4407C1799.81 61.0258 1796.59 66.8163 1791.7 70.4446C1783.2 76.7513 1770.81 76.7598 1753.71 82.1898C1758.87 88.4063 1766.63 92.363 1775.31 92.363C1790.86 92.363 1803.46 79.6648 1803.46 64.0004C1803.46 58.3141 1801.79 53.0199 1798.93 48.5762Z" fill="#2151A1"/>
<path d="M1792.19 41.3064C1787.49 37.744 1781.64 35.6367 1775.31 35.6367C1759.76 35.6367 1747.15 48.3376 1747.15 64C1747.15 70.3048 1749.19 76.1279 1752.65 80.8365C1771.58 75.2818 1786.54 60.3183 1792.19 41.3064Z" fill="#EB1933"/>
<rect x="2016" width="320" height="128" rx="16" fill="white" fill-opacity="0.08"/>
<g clip-path="url(#clip2_2277_22171)">
<path d="M2265.29 62.2313L2275.99 89.949C2272.84 89.5084 2269.69 88.9564 2266.48 88.4591L2260.45 73.144L2254.26 87.1949C2251.22 86.6976 2248.23 86.532 2245.19 86.1459L2256.06 61.9018L2246.2 37.0527H2255.33L2260.84 50.9363L2266.76 37.0527L2275.99 37.0527L2265.29 62.2313ZM2239 37.0527H2230.72V85.1002C2233.43 85.2661 2236.24 85.3753 2239 85.705V37.0527ZM2223.57 84.5485C2216.03 84.0529 2208.48 83.614 2200.77 83.4464V37.0529H2209.21V75.6229C2214.06 75.7323 2218.9 76.1168 2223.57 76.3371V84.5485ZM2191.76 55.8432V64.1074H2180.22V82.8961H2171.88V37.0527H2195.53V45.3169H2180.22V55.8434H2191.76L2191.76 55.8432ZM2157.69 45.3169V83.337C2154.88 83.337 2152.01 83.337 2149.25 83.4464V45.3169H2140.52V37.0527H2166.47V45.3169H2157.69ZM2131.4 64.5465C2127.68 64.5465 2123.29 64.5465 2120.14 64.7141V77C2125.09 76.6686 2130.05 76.2841 2135.06 76.1185V84.0529L2111.69 85.8725V37.0527H2135.06V45.3169H2120.14V56.448C2123.4 56.448 2128.41 56.2824 2131.4 56.2824V64.5482L2131.4 64.5465ZM2084.6 59.918V88.7906C2081.57 89.122 2078.86 89.5082 2075.99 89.949V37.0527H2084.04L2095.02 67.084V37.0527H2103.47V86.532C2100.49 87.0293 2097.44 87.1949 2094.24 87.6341L2084.6 59.918Z" fill="#E50914"/>
</g>
<rect x="2352" width="320" height="128" rx="16" fill="white" fill-opacity="0.08"/>
<path d="M2411.81 67.4543H2395.44V63.3092H2416.55C2416 61.5507 2414.21 59.9177 2411.07 59.9177H2395.74C2392.23 59.9177 2390.2 61.2366 2390.2 64.1257V67.2031C2390.2 69.7153 2392.3 71.1598 2395.37 71.1598H2411.93V75.5562H2389.65C2390.2 77.9428 2391.99 79.1989 2395.19 79.1989H2411.87C2415.38 79.1989 2417.1 77.8172 2417.1 74.8653V71.7879C2417.1 69.0873 2415.07 67.6428 2411.81 67.4543ZM2445.24 59.9805H2425.05V79.2617H2430.77V71.8507H2445.67C2449.79 71.8507 2452.07 70.4062 2452.07 67.0147V64.8793C2452.01 61.7391 2449.42 59.9805 2445.24 59.9805ZM2447.08 66.1354C2447.08 67.5171 2446.84 68.2708 2444.62 68.2708H2430.77L2430.83 63.2464H2444.38C2446.84 63.2464 2447.15 64.0001 2447.15 65.319V66.1354H2447.08ZM2471.09 71.7251H2458.9L2455.89 74.991H2473.49L2476.51 79.2617H2483.28L2468.69 59.1641L2465.25 63.4976L2471.09 71.7251ZM2494.24 63.3092H2515.66C2515.11 61.0482 2512.96 59.9177 2509.88 59.9177H2493.87C2491.1 59.9177 2488.45 61.0482 2488.45 64.1257V74.9281C2488.45 78.0056 2491.1 79.1361 2493.87 79.1361H2510.06C2513.76 79.1361 2515.05 78.0684 2515.66 75.4934H2494.24V63.3092ZM2540.78 69.7153V66.4495L2523.48 66.4495V79.2617H2549.03V75.619H2529.27V69.7153L2540.78 69.7153ZM2524.1 59.9805H2549.89V63.372H2524.1V59.9805ZM2565.77 59.9805H2556.79L2567.38 67.894C2568.91 66.8263 2570.7 65.6958 2572.3 64.7537L2565.77 59.9805ZM2578.83 69.8409C2577.29 70.9086 2575.75 72.1019 2574.27 73.2324L2582.27 79.1989H2591.32L2578.83 69.8409Z" fill="white"/>
<path d="M2634.35 48.7383C2585.1 51.6273 2562.32 73.1067 2557.21 78.1939L2556.17 79.1988H2565.28C2589.9 54.0139 2625.3 49.5547 2634.35 48.7383Z" fill="white"/>
<rect x="2688" width="320" height="128" rx="16" fill="white" fill-opacity="0.08"/>
<g clip-path="url(#clip3_2277_22171)">
<path d="M2848.58 33.8123C2849.86 33.8716 2851.08 34.3559 2852.04 35.1872C2853.36 36.4246 2853.7 38.488 2853.08 40.1389C2850.66 45.0895 2844.9 48.3962 2840.97 49.4901C2838.62 50.0401 2835.64 50.0401 2833.5 49.2152C2832.46 49.8339 2831.58 51.8334 2830.31 51.0025C2828.48 49.5778 2830.07 47.3481 2829.01 45.766C2828.79 45.4402 2828.24 45.4163 2827.96 44.8832C2826.51 41.72 2828.31 38.6942 2830.31 36.2882C2833.66 32.5799 2843.25 28.4483 2848.58 33.8123ZM2837.44 36.2872C2835.57 36.6309 2833.46 37.4389 2832.32 38.763C2831.18 40.0861 2830.45 41.3763 2831.14 42.7512C2833.57 40.9638 2834.74 38.488 2837.44 36.9756C2837.44 36.6996 2837.85 36.4934 2837.44 36.2872ZM2848.72 36.9756C2843.95 36.5621 2840.35 40.1389 2836.96 43.5761C2836.75 44.1261 2835.5 44.7448 2836.47 45.3635C2841.04 45.7759 2845.4 44.4708 2848.72 41.444C2849.69 40.5503 2850.38 39.3817 2849.9 38.1433C2849.69 37.663 2849.2 37.1818 2848.72 36.9756ZM2890.1 57.4665C2892.32 62.8306 2894.19 71.2872 2890.1 76.4451C2889 77.6825 2887.06 78.8232 2885.81 77.8887C2881.24 74.2452 2879.31 69.0186 2876.47 64.342C2876.06 64.1358 2876.06 64.6867 2875.85 64.893C2874.81 69.6373 2876.75 75.8264 2873.5 79.5386C2872.25 79.7448 2871.09 79.1082 2870.66 77.8887C2869.07 73.0068 2870.73 67.9177 2871.14 63.0359C2872.11 60.56 2872.53 57.6728 2874.67 55.8157C2878.13 57.1906 2879.79 61.0423 2881.8 63.8618C2883.25 65.9929 2884.43 68.3999 2886.09 70.3248C2887.54 69.7061 2886.83 67.8191 2886.78 66.6803C2886.22 62.2109 2884.98 58.0852 2883.8 53.8221C2883.74 52.7221 2883.11 50.865 2884.29 50.1776C2887.41 51.5535 2888.72 54.7845 2890.1 57.4665ZM2869.2 55.8157C2869.2 56.8478 2868.37 58.137 2867.68 58.2915C2861.04 59.3226 2853.63 58.7039 2847.4 60.7663C2847.2 61.5225 2848.1 61.66 2848.58 61.8662C2853.91 62.6911 2859.51 62.8974 2864.71 64.2045C2867.45 64.8969 2868.44 68.125 2868.65 70.806C2868.78 72.9202 2867.96 75.4816 2865.88 76.9263C2860.76 80.1583 2852.94 80.0198 2847.75 77.0648C2845.77 75.9589 2843.88 74.1775 2843.74 71.9767C2843.75 70.2291 2844.5 68.8533 2845.75 68.1947C2850.73 66.2001 2856.89 67.302 2861.18 69.8446C2861.45 71.2205 2859.95 71.1457 2859.24 71.6329C2854.46 74.3837 2850.86 68.5404 2846.44 70.6695C2845.81 71.082 2845.36 72.2327 2846.09 72.5954C2851.56 75.0024 2857.65 73.2828 2863.04 71.7704C2863.67 71.5642 2864.43 70.9455 2864.5 70.3268C2864.29 68.126 2861.8 67.6457 2860.21 67.027C2855.5 65.8584 2850.31 65.8584 2845.26 65.3772C2844.29 65.1709 2843.06 64.5004 2842.77 63.7273C2842.21 62.0774 2842.21 59.8078 2843.46 58.4329C2849.9 52.7939 2859.65 53.2761 2867.82 54.7885C2868.37 54.9907 2868.99 55.197 2869.2 55.8157ZM2838.96 58.429C2839.59 65.0295 2839.93 71.1507 2839.79 78.0949C2839.65 78.9876 2838.62 79.1949 2837.93 79.5386C2836.82 79.7448 2835.39 79.5107 2834.95 78.9199C2833.36 76.3743 2833.91 72.9381 2833.77 69.8436C2833.98 64.9627 2833.91 59.6674 2835.3 55.1282C2835.56 54.4687 2836.33 53.8908 2836.96 54.3023C2838.62 55.1282 2838.89 56.7791 2838.96 58.429ZM2915.85 57.4665C2916.18 58.0225 2916.53 58.8813 2915.85 59.2539C2912.73 60.6288 2908.51 60.0101 2904.91 60.4226C2903.95 61.2475 2903.18 62.6224 2903.53 63.8608C2903.88 64.067 2904.19 64.3809 2904.57 64.341C2906.78 64.4795 2910.1 63.3098 2911.56 65.3722C2911.91 65.9859 2911.51 68.2774 2910.52 68.3292C2907.82 68.6749 2903.38 67.9924 2902.08 68.6749C2900.42 69.7748 2900.55 71.9059 2899.93 73.6265C2901.11 74.3827 2902.34 73.6086 2903.74 73.4193C2906.3 73.0068 2909.14 72.2506 2911.69 72.8006C2912.18 73.6943 2912.87 74.6577 2912.39 75.7576C2908.02 79.1959 2902.4 82.7198 2896.4 80.227C2894.15 79.2248 2893.15 75.8264 2893.91 72.9401C2894.39 70.8767 2896.54 68.8831 2895.23 66.6823C2895.02 65.7189 2895.57 64.8949 2896.4 64.6887C2898.69 64.6887 2898.2 61.8692 2899.38 60.562C2898.06 59.1184 2894.74 59.1871 2895.09 56.2989C2896.68 55.4739 2898.62 55.7489 2900.42 55.4739C2904.5 54.648 2909.07 54.1668 2913.22 54.648C2914.05 54.8134 2915.16 56.4354 2915.85 57.4665ZM2817.03 41.7887C2823.41 46.9755 2831.7 55.8167 2830.66 65.9929C2829.41 74.039 2820.83 80.0895 2813.57 82.0154C2806.51 84.0777 2797.65 83.8715 2790.45 82.2216C2789.97 83.5288 2789.48 85.1089 2787.96 85.6599C2786.99 86.0036 2785.75 85.7974 2784.98 85.1786C2782.84 83.1841 2784.57 79.3333 2781.45 78.0969C2775.36 75.5524 2768.79 70.532 2765.68 64.344C2765.26 63.1066 2765.75 61.8692 2766.51 60.9068C2771.28 57.1248 2777.3 55.6124 2783.32 54.4428C2783.67 54.5802 2783.53 54.099 2783.81 53.9615C2784.15 49.8359 2784.29 45.6404 2785.61 41.9272C2785.91 41.4062 2786.64 41.2398 2787.13 41.5835C2790.94 44.4708 2789.14 49.9046 2790.8 53.8231C2798.06 54.1668 2805.33 54.5105 2811.07 58.5684C2813.01 60.1496 2813.48 63.1694 2812.87 64.8949C2812.26 66.6176 2810.24 67.852 2808.37 67.9875C2807.13 67.9875 2804.78 68.108 2804.91 67.1635C2805.05 66.218 2809.15 64.6708 2807.89 63.3806C2806.08 61.5265 2797.04 60.4236 2791.43 59.7361C2790.74 59.5986 2790.1 59.8048 2790.1 60.561C2789.97 65.7866 2789.55 71.5622 2790.45 76.5836C2790.52 76.9283 2790.93 77.3408 2791.28 77.4075C2801.18 78.9896 2811.63 78.095 2819.38 72.4569C2822.98 69.5706 2824.15 65.5107 2823.53 61.0423C2820.42 48.5965 2807.34 41.1003 2796.61 36.2872C2786.16 31.749 2774.6 29.4107 2762.22 30.0304C2760.24 30.1739 2757.12 30.8503 2757.1 31.5438C2757.07 32.2372 2760.64 32.019 2760.21 33.3311C2759.78 34.6423 2756.16 33.8641 2755.09 33.5374C2754.02 33.2106 2754.12 31.6803 2754.4 30.7178C2757.1 25.9734 2764.63 25.5899 2768.03 25.4235C2786.85 24.9413 2805.05 32.0638 2817.03 41.7887ZM2783.12 60.2173C2778.34 60.2861 2773.29 60.7673 2768.86 62.4171C2767.96 62.7609 2766.85 63.7233 2767.54 64.893C2769.34 67.299 2771.92 69.2747 2774.33 70.6685C2776.74 72.0604 2779.93 73.8318 2782.84 74.2452C2783.53 69.7748 2783.53 65.3742 2783.46 60.7673C2783.18 60.6298 2783.46 60.3548 2783.12 60.2173ZM2926.16 53.9595C2925.95 59.9413 2920.34 63.6556 2920.34 69.6373C2920.55 69.8436 2920.69 70.1186 2920.97 69.9831C2925.47 65.1002 2929.89 58.155 2936.47 56.0926C2938.2 55.9551 2939.77 57.4506 2940.41 58.5684C2942.7 63.1066 2942.15 69.5018 2938.96 73.6275C2935.68 77.6775 2929.96 81.7414 2923.46 81.053C2920.76 87.6545 2918.89 94.5997 2917.85 101.82C2917.3 103.264 2915.99 101.957 2915.16 101.682C2909.55 97.2817 2914.15 85.632 2914.53 84.1455C2914.91 82.663 2916.41 79.166 2917.51 76.2378C2914.88 71.5632 2916.54 65.9231 2918.69 61.5912C2920.35 58.7029 2922.63 55.8147 2925.33 53.6148C2925.67 53.6158 2925.95 53.6846 2926.16 53.9595ZM2937.3 61.386C2936.47 61.2485 2936.12 62.3494 2935.43 62.5556C2932.25 66.1314 2929.07 69.7071 2927.47 73.9703C2929.62 74.2452 2931.42 72.8703 2933.29 72.1141C2936.47 70.1196 2938.48 66.8208 2938.27 63.0378C2938.13 62.4171 2937.58 61.9359 2937.3 61.386Z" fill="white"/>
</g>
<rect x="3024" width="320" height="128" rx="16" fill="white" fill-opacity="0.08"/>
<path d="M3206.83 99.9634V104.943H3208.45V101.627H3214.36V104.943H3215.99V99.9721L3206.83 99.9634ZM3208.27 98.3528H3214.52C3215.38 98.1833 3216.03 97.4306 3216.21 96.7026H3206.58C3206.76 97.4309 3207.41 98.1833 3208.27 98.3528ZM3201.91 104.946C3202.73 104.605 3203.17 104.014 3203.34 103.323H3196.05L3196.05 96.7067L3194.42 96.7112V104.946H3201.91ZM3182.28 98.3305H3188.05C3188.91 98.0821 3189.65 97.4309 3189.82 96.7089H3180.66V101.575H3188.16V103.283L3182.28 103.287C3181.35 103.54 3180.57 104.149 3180.18 104.952L3180.66 104.944H3189.77V99.9573H3182.28V98.3305ZM3168.04 98.3462H3174.28C3175.15 98.176 3175.79 97.4241 3175.98 96.6953H3166.34C3166.52 97.4241 3167.18 98.176 3168.04 98.3462ZM3168.04 101.601H3174.28C3175.15 101.432 3175.79 100.68 3175.98 99.9505H3166.34C3166.52 100.68 3167.18 101.432 3168.04 101.601ZM3168.04 104.945H3174.28C3175.15 104.775 3175.79 104.023 3175.98 103.294H3166.34C3166.52 104.023 3167.18 104.775 3168.04 104.945ZM3151.79 96.7153C3151.98 97.435 3152.61 98.1705 3153.48 98.3548H3156.11L3156.25 98.4069V104.927H3157.89V98.4069L3158.04 98.3548H3160.67C3161.55 98.1321 3162.17 97.435 3162.35 96.7153V96.6994H3151.79V96.7153Z" fill="#E82127"/>
<path d="M3184 80.4248L3192.2 35.0867C3200.02 35.0867 3202.48 35.9293 3202.84 39.3686C3202.84 39.3686 3208.08 37.4466 3210.73 33.5431C3200.41 28.8421 3190.04 28.63 3190.04 28.63L3183.99 35.8748L3184 35.8739L3177.95 28.6289C3177.95 28.6289 3167.58 28.8411 3157.26 33.5422C3159.9 37.4457 3165.15 39.3677 3165.15 39.3677C3165.51 35.9282 3167.97 35.0856 3175.73 35.0802L3184 80.4248Z" fill="#E82127"/>
<path d="M3184 26.5372C3192.34 26.4745 3201.89 27.8059 3211.66 31.9941C3212.97 29.6824 3213.31 28.6608 3213.31 28.6608C3202.62 24.5048 3192.61 23.0826 3184 23.0469C3175.38 23.0826 3165.37 24.5051 3154.69 28.6608C3154.69 28.6608 3155.16 29.9192 3156.33 31.9941C3166.1 27.8059 3175.65 26.4745 3184 26.5372H3184Z" fill="#E82127"/>
<defs>
<clipPath id="clip0_2277_22171">
<rect width="200" height="53" fill="white" transform="translate(395.996 37)"/>
</clipPath>
<clipPath id="clip1_2277_22171">
<rect width="188" height="78" fill="white" transform="translate(1074 25)"/>
</clipPath>
<clipPath id="clip2_2277_22171">
<rect width="200" height="53" fill="white" transform="translate(2076 37)"/>
</clipPath>
<clipPath id="clip3_2277_22171">
<rect width="188" height="78" fill="white" transform="translate(2754 25)"/>
</clipPath>
</defs>
</svg>
