<svg width="200" height="67" viewBox="0 0 200 67" fill="none" xmlns="http://www.w3.org/2000/svg">
<g clip-path="url(#clip0_454_9398)">
<path d="M85.6617 35.7831C85.6617 45.2864 78.289 52.2892 69.241 52.2892C60.193 52.2892 52.8203 45.2864 52.8203 35.7831C52.8203 26.2129 60.193 19.2771 69.241 19.2771C78.289 19.2771 85.6617 26.2129 85.6617 35.7831ZM78.4735 35.7831C78.4735 29.8445 74.2004 25.7813 69.241 25.7813C64.2816 25.7813 60.0085 29.8445 60.0085 35.7831C60.0085 41.6622 64.2816 45.785 69.241 45.785C74.2004 45.785 78.4735 41.6547 78.4735 35.7831Z" fill="#EA4335"/>
<path d="M121.084 35.7831C121.084 45.2864 113.711 52.2892 104.663 52.2892C95.6149 52.2892 88.2422 45.2864 88.2422 35.7831C88.2422 26.2203 95.6149 19.2771 104.663 19.2771C113.711 19.2771 121.084 26.2129 121.084 35.7831ZM113.895 35.7831C113.895 29.8445 109.622 25.7813 104.663 25.7813C99.7035 25.7813 95.4304 29.8445 95.4304 35.7831C95.4304 41.6622 99.7035 45.785 104.663 45.785C109.622 45.785 113.895 41.6547 113.895 35.7831Z" fill="#FBBC05"/>
<path d="M155.032 20.2743V49.9078C155.032 62.0975 147.903 67.0761 139.475 67.0761C131.542 67.0761 126.767 61.7254 124.966 57.3496L131.224 54.7226C132.339 57.4091 135.069 60.5794 139.468 60.5794C144.863 60.5794 148.206 57.2231 148.206 50.905V48.531H147.955C146.346 50.5329 143.246 52.2817 139.335 52.2817C131.151 52.2817 123.652 45.0929 123.652 35.8427C123.652 26.5255 131.151 19.2771 139.335 19.2771C143.239 19.2771 146.339 21.0259 147.955 22.9683H148.206V20.2817H155.032V20.2743ZM148.715 35.8427C148.715 30.0306 144.87 25.7813 139.977 25.7813C135.018 25.7813 130.863 30.0306 130.863 35.8427C130.863 41.5952 135.018 45.785 139.977 45.785C144.87 45.785 148.715 41.5952 148.715 35.8427Z" fill="#4285F4"/>
<path d="M166.288 2.90491V51.2769H159.277V2.90491H166.288Z" fill="#34A853"/>
<path d="M193.607 41.2155L199.187 44.9662C197.386 47.6527 193.046 52.2816 185.548 52.2816C176.249 52.2816 169.305 45.0332 169.305 35.7756C169.305 25.9598 176.308 19.2695 184.744 19.2695C193.238 19.2695 197.393 26.0863 198.751 29.77L199.497 31.6453L177.615 40.7839C179.29 44.0955 181.895 45.7848 185.548 45.7848C189.209 45.7848 191.748 43.969 193.607 41.2155ZM176.434 35.277L191.061 29.1523C190.257 27.0909 187.836 25.6546 184.987 25.6546C181.334 25.6546 176.249 28.9067 176.434 35.277Z" fill="#EA4335"/>
<path d="M26.2786 31.4891V24.4864H49.6809C49.9097 25.7068 50.0278 27.1506 50.0278 28.7133C50.0278 33.9673 48.6034 40.464 44.013 45.0929C39.548 49.7812 33.8432 52.2817 26.286 52.2817C12.2786 52.2817 0.5 40.7766 0.5 26.6519C0.5 12.5273 12.2786 1.02222 26.286 1.02222C34.0351 1.02222 39.5554 4.08826 43.703 8.08453L38.8027 13.0259C35.8285 10.2129 31.799 8.025 26.2786 8.025C16.0498 8.025 8.04983 16.3375 8.04983 26.6519C8.04983 36.9664 16.0498 45.2789 26.2786 45.2789C32.9133 45.2789 36.6919 42.5924 39.1126 40.1515C41.0757 38.1719 42.3672 35.344 42.8765 31.4817L26.2786 31.4891Z" fill="#4285F4"/>
</g>
<defs>
<clipPath id="clip0_454_9398">
<rect width="200" height="67" fill="white"/>
</clipPath>
</defs>
</svg>
