<svg width="3344" height="128" viewBox="0 0 3344 128" fill="none" xmlns="http://www.w3.org/2000/svg">
<rect width="320" height="128" rx="16" fill="white" fill-opacity="0.08"/>
<g clip-path="url(#clip0_2277_22199)">
<path d="M145.658 65.7834C145.658 75.2866 138.285 82.2894 129.237 82.2894C120.189 82.2894 112.816 75.2866 112.816 65.7834C112.816 56.2131 120.189 49.2773 129.237 49.2773C138.285 49.2773 145.658 56.2131 145.658 65.7834ZM138.47 65.7834C138.47 59.8448 134.197 55.7815 129.237 55.7815C124.278 55.7815 120.005 59.8448 120.005 65.7834C120.005 71.6624 124.278 75.7852 129.237 75.7852C134.197 75.7852 138.47 71.655 138.47 65.7834Z" fill="#EA4335"/>
<path d="M181.08 65.7834C181.08 75.2866 173.707 82.2894 164.659 82.2894C155.611 82.2894 148.238 75.2866 148.238 65.7834C148.238 56.2206 155.611 49.2773 164.659 49.2773C173.707 49.2773 181.08 56.2131 181.08 65.7834ZM173.891 65.7834C173.891 59.8448 169.618 55.7815 164.659 55.7815C159.7 55.7815 155.426 59.8448 155.426 65.7834C155.426 71.6624 159.7 75.7852 164.659 75.7852C169.618 75.7852 173.891 71.655 173.891 65.7834Z" fill="#FBBC05"/>
<path d="M215.029 50.2746V79.908C215.029 92.0978 207.899 97.0764 199.471 97.0764C191.538 97.0764 186.763 91.7257 184.962 87.3499L191.22 84.7229C192.335 87.4094 195.065 90.5796 199.464 90.5796C204.859 90.5796 208.202 87.2233 208.202 80.9052V78.5313H207.951C206.342 80.5331 203.243 82.2819 199.331 82.2819C191.147 82.2819 183.648 75.0931 183.648 65.8429C183.648 56.5257 191.147 49.2773 199.331 49.2773C203.235 49.2773 206.335 51.0262 207.951 52.9685H208.202V50.282H215.029V50.2746ZM208.711 65.8429C208.711 60.0308 204.866 55.7815 199.973 55.7815C195.014 55.7815 190.859 60.0308 190.859 65.8429C190.859 71.5955 195.014 75.7852 199.973 75.7852C204.866 75.7852 208.711 71.5955 208.711 65.8429Z" fill="#4285F4"/>
<path d="M226.288 32.9062V81.2783H219.277V32.9062H226.288Z" fill="#34A853"/>
<path d="M253.603 71.2155L259.183 74.9662C257.382 77.6528 253.043 82.2816 245.544 82.2816C236.245 82.2816 229.301 75.0332 229.301 65.7756C229.301 55.9598 236.304 49.2695 244.74 49.2695C253.234 49.2695 257.389 56.0863 258.747 59.77L259.493 61.6453L237.611 70.7839C239.286 74.0955 241.891 75.7848 245.544 75.7848C249.205 75.7848 251.744 73.969 253.603 71.2155ZM236.43 65.277L251.057 59.1523C250.253 57.0909 247.832 55.6546 244.983 55.6546C241.33 55.6546 236.245 58.9067 236.43 65.277Z" fill="#EA4335"/>
<path d="M86.2747 61.4884V54.4856H109.677C109.906 55.7061 110.024 57.1498 110.024 58.7126C110.024 63.9666 108.6 70.4633 104.009 75.0921C99.5441 79.7805 93.8393 82.281 86.2821 82.281C72.2747 82.281 60.4961 70.7758 60.4961 56.6512C60.4961 42.5266 72.2747 31.0215 86.2821 31.0215C94.0312 31.0215 99.5515 34.0875 103.699 38.0838L98.7988 43.0252C95.8246 40.2122 91.795 38.0243 86.2747 38.0243C76.0459 38.0243 68.0459 46.3368 68.0459 56.6512C68.0459 66.9656 76.0459 75.2782 86.2747 75.2782C92.9094 75.2782 96.688 72.5917 99.1087 70.1507C101.072 68.1712 102.363 65.3433 102.873 61.481L86.2747 61.4884Z" fill="#4285F4"/>
</g>
<rect x="336" width="320" height="128" rx="16" fill="white" fill-opacity="0.08"/>
<path d="M397.819 84.987H389.346V63.9668H383.574V57.1231H389.346V52.2532C389.346 46.4825 391.898 42.3438 400.348 42.3438C402.135 42.3438 404.941 42.7022 404.941 42.7022V49.057H401.994C398.991 49.057 397.819 49.966 397.819 52.479V57.1231H404.829L404.204 63.9668H397.819L397.819 84.987ZM417.259 56.5761C417.136 56.5761 417.009 56.5806 416.883 56.5838C409.027 56.5838 405.432 62.465 405.432 70.8137C405.432 81.3307 410.095 85.54 416.945 85.54C420.863 85.54 423.438 83.8983 425.003 80.8348V84.9899H433.062V57.126H425.003V61.4111C423.725 58.6541 421.079 56.6088 417.259 56.5761ZM419.308 63.1603C422.608 63.1603 424.589 65.4509 424.589 69.3471L424.596 73.3265C424.596 75.9525 422.96 79.0247 419.308 79.0247C413.694 79.0247 413.844 72.9912 413.844 70.9817C413.844 64.2221 416.835 63.1603 419.308 63.1603ZM436.316 71.0594C436.316 67.6734 436.154 56.5943 450.657 56.5943C456.48 56.5943 458.911 58.4366 458.911 58.4366L456.957 64.4681C456.957 64.4681 454.529 63.1375 451.365 63.1375C447.313 63.1375 444.727 65.4753 444.727 69.5885L444.732 72.5379C444.732 76.4902 447.227 79.1285 451.373 79.1285C454.256 79.1285 456.912 77.7854 456.912 77.7854L458.861 83.6909C458.861 83.6909 456.638 85.5449 450.698 85.5449C436.888 85.5449 436.317 75.6047 436.317 71.0594H436.316ZM506.162 56.5838C514.018 56.5838 517.669 62.465 517.669 70.8137C517.669 81.3307 513.007 85.54 506.157 85.54C502.238 85.54 499.341 83.8986 497.776 80.8348V84.9899L489.819 84.9868V43.191L498.267 42.4577V61.0335C499.487 57.7836 503.494 56.5838 506.162 56.5838ZM503.793 63.1603C500.493 63.1603 498.267 65.4509 498.267 69.3471L498.26 73.3265C498.255 75.9525 499.801 79.0247 503.793 79.0247C509.408 79.0247 509.258 72.9912 509.258 70.9817C509.258 64.2221 506.267 63.1603 503.793 63.1603ZM473.57 56.6068C464.659 56.6068 459.954 61.4419 459.954 70.0345V71.6309C459.954 82.7832 466.561 85.6545 474.437 85.6545C482.092 85.6545 485.558 83.5235 485.558 83.5235L483.977 77.8485C483.977 77.8485 479.901 79.5745 475.45 79.5745C470.836 79.5745 468.852 78.4042 468.343 73.9913H486.233V69.4386C486.233 60.1178 480.953 56.6066 473.569 56.6066L473.57 56.6068ZM473.784 62.2894C476.869 62.2894 478.868 64.1718 478.758 68.5374H468.359C468.539 63.9426 470.694 62.2894 473.784 62.2894ZM534.516 56.5685C525.365 56.5685 520.547 61.7006 520.547 70.8976C520.547 83.5163 528.852 85.5476 534.531 85.5476C542.845 85.5476 548.376 81.0928 548.376 71.0122C548.376 60.52 542.157 56.5685 534.516 56.5685ZM534.401 63.1831C538.424 63.1831 540.019 66.1802 540.019 69.5916V72.5247C540.019 76.6574 537.788 79.0478 534.385 79.0478C531.203 79.0478 528.967 76.8118 528.967 72.5247V69.5916C528.967 65.0194 531.628 63.1831 534.401 63.1831ZM565.207 56.5685C556.057 56.5685 551.239 61.7006 551.239 70.8976C551.239 83.5163 559.543 85.5476 565.223 85.5476C573.537 85.5476 579.068 81.0928 579.068 71.0122C579.068 60.52 572.849 56.5685 565.207 56.5685ZM565.092 63.1831C569.116 63.1831 570.71 66.1802 570.71 69.5916V72.5247C570.71 76.6574 568.479 79.0478 565.077 79.0478C561.895 79.0478 559.659 76.8118 559.659 72.5247V69.5916C559.659 65.0194 562.32 63.1831 565.092 63.1831ZM582.261 84.987V43.191L590.734 42.4579V70.4722L599.14 57.1233H608.089L599.319 70.9488L608.426 84.987H599.453L590.734 71.3559V84.987H582.261Z" fill="#1877F2"/>
<rect x="672" width="320" height="128" rx="16" fill="white" fill-opacity="0.08"/>
<g clip-path="url(#clip1_2277_22199)">
<path d="M817.658 65.7834C817.658 75.2866 810.285 82.2894 801.237 82.2894C792.189 82.2894 784.816 75.2866 784.816 65.7834C784.816 56.2131 792.189 49.2773 801.237 49.2773C810.285 49.2773 817.658 56.2131 817.658 65.7834ZM810.47 65.7834C810.47 59.8448 806.197 55.7815 801.237 55.7815C796.278 55.7815 792.005 59.8448 792.005 65.7834C792.005 71.6624 796.278 75.7852 801.237 75.7852C806.197 75.7852 810.47 71.655 810.47 65.7834Z" fill="#EA4335"/>
<path d="M853.08 65.7834C853.08 75.2866 845.707 82.2894 836.659 82.2894C827.611 82.2894 820.238 75.2866 820.238 65.7834C820.238 56.2206 827.611 49.2773 836.659 49.2773C845.707 49.2773 853.08 56.2131 853.08 65.7834ZM845.891 65.7834C845.891 59.8448 841.618 55.7815 836.659 55.7815C831.7 55.7815 827.426 59.8448 827.426 65.7834C827.426 71.6624 831.7 75.7852 836.659 75.7852C841.618 75.7852 845.891 71.655 845.891 65.7834Z" fill="#FBBC05"/>
<path d="M887.029 50.2746V79.908C887.029 92.0978 879.899 97.0764 871.471 97.0764C863.538 97.0764 858.763 91.7257 856.962 87.3499L863.22 84.7229C864.335 87.4094 867.065 90.5796 871.464 90.5796C876.859 90.5796 880.202 87.2233 880.202 80.9052V78.5313H879.951C878.342 80.5331 875.243 82.2819 871.331 82.2819C863.147 82.2819 855.648 75.0931 855.648 65.8429C855.648 56.5257 863.147 49.2773 871.331 49.2773C875.235 49.2773 878.335 51.0262 879.951 52.9685H880.202V50.282H887.029V50.2746ZM880.711 65.8429C880.711 60.0308 876.866 55.7815 871.973 55.7815C867.014 55.7815 862.859 60.0308 862.859 65.8429C862.859 71.5955 867.014 75.7852 871.973 75.7852C876.866 75.7852 880.711 71.5955 880.711 65.8429Z" fill="#4285F4"/>
<path d="M898.288 32.9062V81.2783H891.277V32.9062H898.288Z" fill="#34A853"/>
<path d="M925.603 71.2155L931.183 74.9662C929.382 77.6528 925.043 82.2816 917.544 82.2816C908.245 82.2816 901.301 75.0332 901.301 65.7756C901.301 55.9598 908.304 49.2695 916.74 49.2695C925.234 49.2695 929.389 56.0863 930.747 59.77L931.493 61.6453L909.611 70.7839C911.286 74.0955 913.891 75.7848 917.544 75.7848C921.205 75.7848 923.744 73.969 925.603 71.2155ZM908.43 65.277L923.057 59.1523C922.253 57.0909 919.832 55.6546 916.983 55.6546C913.33 55.6546 908.245 58.9067 908.43 65.277Z" fill="#EA4335"/>
<path d="M758.275 61.4884V54.4856H781.677C781.906 55.7061 782.024 57.1498 782.024 58.7126C782.024 63.9666 780.6 70.4633 776.009 75.0921C771.544 79.7805 765.839 82.281 758.282 82.281C744.275 82.281 732.496 70.7758 732.496 56.6512C732.496 42.5266 744.275 31.0215 758.282 31.0215C766.031 31.0215 771.552 34.0875 775.699 38.0838L770.799 43.0252C767.825 40.2122 763.795 38.0243 758.275 38.0243C748.046 38.0243 740.046 46.3368 740.046 56.6512C740.046 66.9656 748.046 75.2782 758.275 75.2782C764.909 75.2782 768.688 72.5917 771.109 70.1507C773.072 68.1712 774.363 65.3433 774.873 61.481L758.275 61.4884Z" fill="#4285F4"/>
</g>
<rect x="1008" width="320" height="128" rx="16" fill="white" fill-opacity="0.08"/>
<path fill-rule="evenodd" clip-rule="evenodd" d="M1191.65 80.8502C1180.23 89.3416 1163.69 93.8721 1149.44 93.8721C1129.47 93.8721 1111.48 86.4161 1097.88 74.0157C1096.81 73.0403 1097.77 71.7115 1099.05 72.4709C1113.73 81.0918 1131.89 86.2781 1150.64 86.2781C1163.28 86.2781 1177.2 83.6375 1189.99 78.1578C1191.92 77.3293 1193.54 79.4349 1191.65 80.8502Z" fill="#FF9900"/>
<path fill-rule="evenodd" clip-rule="evenodd" d="M1196.39 75.3683C1194.93 73.4869 1186.74 74.4793 1183.07 74.9194C1181.95 75.0576 1181.77 74.0737 1182.78 73.3662C1189.31 68.7322 1200.01 70.0698 1201.26 71.623C1202.51 73.185 1200.94 84.0149 1194.81 89.1839C1193.87 89.9779 1192.97 89.5551 1193.39 88.5022C1194.76 85.0333 1197.85 77.2581 1196.39 75.3683Z" fill="#FF9900"/>
<path fill-rule="evenodd" clip-rule="evenodd" d="M1183.33 40.6527V36.1482C1183.33 35.4665 1183.84 35.0091 1184.46 35.0091H1204.44C1205.08 35.0091 1205.6 35.475 1205.6 36.1482V40.0055C1205.59 40.6527 1205.05 41.4985 1204.09 42.836L1193.74 57.7563C1197.58 57.6615 1201.64 58.2396 1205.13 60.2245C1205.92 60.6731 1206.13 61.3291 1206.19 61.9761V66.7828C1206.19 67.4386 1205.48 68.2066 1204.72 67.8097C1198.57 64.5565 1190.41 64.2026 1183.61 67.8442C1182.92 68.224 1182.19 67.4646 1182.19 66.8088V62.2438C1182.19 61.5103 1182.2 60.2589 1182.93 59.1458L1194.92 41.7833H1184.48C1183.84 41.7833 1183.33 41.326 1183.33 40.6527ZM1110.43 68.7589H1104.35C1103.77 68.7159 1103.31 68.2758 1103.27 67.7147V36.2259C1103.27 35.5959 1103.79 35.0953 1104.44 35.0953H1110.11C1110.7 35.1211 1111.17 35.5787 1111.21 36.148V40.2646H1111.32C1112.8 36.2864 1115.58 34.4312 1119.33 34.4312C1123.13 34.4312 1125.51 36.2864 1127.22 40.2646C1128.69 36.2864 1132.03 34.4312 1135.61 34.4312C1138.16 34.4312 1140.95 35.4926 1142.65 37.8743C1144.58 40.5235 1144.18 44.3722 1144.18 47.7463L1144.17 67.62C1144.17 68.25 1143.65 68.7591 1143 68.7591H1136.93C1136.32 68.7161 1135.84 68.2242 1135.84 67.62V50.9305C1135.84 49.6015 1135.96 46.2877 1135.67 45.028C1135.21 42.9137 1133.85 42.3182 1132.09 42.3182C1130.62 42.3182 1129.08 43.3106 1128.46 44.8986C1127.83 46.4865 1127.89 49.1442 1127.89 50.9305V67.6198C1127.89 68.2498 1127.37 68.7589 1126.72 68.7589H1120.65C1120.03 68.7159 1119.56 68.224 1119.56 67.6198L1119.55 50.9305C1119.55 47.4182 1120.12 42.2494 1115.8 42.2494C1111.43 42.2494 1111.6 47.2888 1111.6 50.9305V67.6198C1111.6 68.2498 1111.08 68.7589 1110.43 68.7589ZM1222.8 34.431C1231.82 34.431 1236.7 42.2492 1236.7 52.1904C1236.7 61.7949 1231.31 69.4149 1222.8 69.4149C1213.94 69.4149 1209.12 61.5965 1209.12 51.8538C1209.12 42.0508 1214 34.431 1222.8 34.431ZM1222.85 40.8599C1218.37 40.8599 1218.09 47.0214 1218.09 50.8614C1218.09 54.7103 1218.03 62.9253 1222.8 62.9253C1227.51 62.9253 1227.73 56.298 1227.73 52.2594C1227.73 49.6015 1227.62 46.4258 1226.83 43.9061C1226.14 41.7141 1224.78 40.8599 1222.85 40.8599ZM1248.4 68.7589H1242.35C1241.74 68.7159 1241.25 68.224 1241.25 67.6198L1241.24 36.1223C1241.3 35.5442 1241.8 35.0953 1242.42 35.0953H1248.05C1248.58 35.1211 1249.02 35.4839 1249.14 35.9756V40.7909H1249.25C1250.95 36.4848 1253.33 34.431 1257.53 34.431C1260.26 34.431 1262.92 35.4232 1264.63 38.1416C1266.22 40.6613 1266.22 44.8986 1266.22 47.9448V67.7665C1266.15 68.3188 1265.65 68.7589 1265.05 68.7589L1258.95 68.7589C1258.4 68.7159 1257.94 68.3015 1257.88 67.7665V50.6629C1257.88 47.2198 1258.27 42.18 1254.07 42.18C1252.59 42.18 1251.23 43.1812 1250.56 44.6999C1249.7 46.6245 1249.59 48.5401 1249.59 50.6631V67.6198C1249.58 68.2498 1249.05 68.7589 1248.4 68.7589ZM1167.4 53.7179C1167.4 56.1081 1167.46 58.1017 1166.26 60.2243C1165.29 61.9504 1163.76 63.0116 1162.05 63.0116C1159.72 63.0116 1158.35 61.2169 1158.35 58.5675C1158.35 53.338 1162.99 52.3888 1167.4 52.3888V53.7179ZM1173.53 68.6727C1173.13 69.035 1172.55 69.061 1172.09 68.8194C1170.07 67.1279 1169.71 66.3427 1168.6 64.729C1165.27 68.1636 1162.9 69.1905 1158.58 69.1905C1153.46 69.1905 1149.48 66.0061 1149.48 59.6291C1149.48 54.6498 1152.15 51.2584 1155.97 49.6015C1159.27 48.1345 1163.88 47.8756 1167.4 47.47V46.6762C1167.4 45.2177 1167.51 43.4918 1166.65 42.232C1165.92 41.1016 1164.5 40.6355 1163.24 40.6355C1160.93 40.6355 1158.86 41.8349 1158.36 44.3203C1158.26 44.8726 1157.86 45.4162 1157.3 45.4421L1151.41 44.8036C1150.91 44.6914 1150.36 44.2858 1150.5 43.5178C1151.85 36.3037 1158.32 34.1289 1164.1 34.1289C1167.06 34.1289 1170.92 34.9229 1173.26 37.1839C1176.21 39.9712 1175.93 43.6903 1175.93 47.7376V57.299C1175.93 60.1727 1177.11 61.4324 1178.22 62.9858C1178.61 63.5381 1178.69 64.2026 1178.2 64.6168C1176.96 65.6609 1174.75 67.6025 1173.54 68.6899L1173.53 68.6727M1087.7 53.7179C1087.7 56.1081 1087.76 58.1017 1086.56 60.2243C1085.59 61.9504 1084.06 63.0116 1082.35 63.0116C1080.02 63.0116 1078.66 61.2169 1078.66 58.5675C1078.66 53.338 1083.3 52.3888 1087.7 52.3888V53.7179ZM1093.83 68.6727C1093.42 69.035 1092.84 69.061 1092.39 68.8194C1090.37 67.1279 1090.01 66.3427 1088.9 64.729C1085.57 68.1636 1083.21 69.1905 1078.88 69.1905C1073.77 69.1905 1069.78 66.0061 1069.78 59.6291C1069.78 54.6498 1072.46 51.2584 1076.26 49.6015C1079.56 48.1345 1084.17 47.8756 1087.7 47.47V46.6762C1087.7 45.2177 1087.81 43.4918 1086.96 42.232C1086.22 41.1016 1084.8 40.6355 1083.55 40.6355C1081.23 40.6355 1079.16 41.8349 1078.66 44.3203C1078.55 44.8726 1078.15 45.4162 1077.61 45.4421L1071.71 44.8036C1071.21 44.6914 1070.66 44.2858 1070.8 43.5178C1072.16 36.3037 1078.61 34.1289 1084.39 34.1289C1087.35 34.1289 1091.22 34.9229 1093.55 37.1839C1096.51 39.9712 1096.23 43.6903 1096.23 47.7376V57.299C1096.23 60.1727 1097.41 61.4324 1098.52 62.9858C1098.91 63.5381 1099 64.2026 1098.5 64.6168C1097.26 65.6609 1095.06 67.6025 1093.84 68.6899L1093.83 68.6727Z" fill="white"/>
<rect x="1344" width="320" height="128" rx="16" fill="white" fill-opacity="0.08"/>
<path d="M1504 29.3867C1454.07 29.3867 1414.04 44.7443 1414.04 63.9991C1414.04 83.1367 1454.4 98.6128 1504 98.6128C1553.61 98.6128 1593.96 83.0847 1593.96 63.9991C1593.96 44.9135 1553.61 29.3867 1504 29.3867Z" fill="#003478"/>
<path d="M1539.44 71.3322C1539.46 71.4907 1539.66 71.6426 1539.86 71.7145C1539.93 71.7392 1539.97 71.7888 1539.89 71.9572C1539.33 73.1892 1538.82 73.8994 1538.11 74.9699C1537.47 75.9589 1536.74 76.7307 1535.86 77.473C1534.53 78.6011 1532.69 79.8292 1531.16 79.0037C1530.48 78.6428 1530.19 77.6697 1530.2 76.882C1530.23 74.6667 1531.19 72.3924 1532.97 70.1572C1535.13 67.426 1537.52 66.0094 1539.09 66.7838C1540.71 67.578 1540.19 69.5061 1539.47 71.0194C1539.41 71.1367 1539.41 71.2364 1539.44 71.3322ZM1556.85 54.0708C1556.97 53.8595 1556.85 53.7051 1556.58 53.7051C1555.23 53.7051 1553.45 53.7082 1552.04 53.7082C1551.7 53.7082 1551.53 53.7495 1551.37 54.0715C1550.85 55.0964 1544.49 64.8665 1543.31 66.7638C1543.11 67.0528 1542.87 67.0123 1542.84 66.6812C1542.72 65.5543 1541.77 64.2589 1540.28 63.6391C1539.14 63.1651 1538.03 63.0792 1536.87 63.237C1534.78 63.5251 1532.92 64.6561 1531.28 65.9318C1528.81 67.856 1526.69 70.3501 1523.94 72.1929C1522.44 73.1961 1520.38 74.0711 1519.01 72.7651C1517.77 71.5819 1517.91 68.9538 1519.81 66.9211C1520.01 66.7081 1520.25 66.8881 1520.21 67.0772C1520.03 67.9964 1520.25 68.9105 1520.93 69.5515C1521.76 70.3152 1522.95 70.4014 1523.97 69.8916C1525.17 69.2815 1525.88 68.1033 1526.08 66.7662C1526.4 64.6919 1524.84 62.8625 1522.9 62.7157C1521.31 62.6018 1519.8 63.1665 1518.32 64.4182C1517.58 65.049 1517.16 65.515 1516.52 66.4502C1516.36 66.6805 1516.12 66.7037 1516.13 66.3635C1516.2 63.7078 1515.13 62.2137 1512.99 62.165C1511.33 62.1237 1509.56 63.0489 1508.17 64.1803C1506.66 65.4296 1505.33 67.0852 1503.91 68.6409C1503.73 68.8325 1503.58 68.8234 1503.53 68.4518C1503.49 66.6923 1503.05 64.9879 1502.26 63.7777C1501.98 63.3566 1501.39 63.1485 1500.89 63.4326C1500.66 63.5614 1499.87 63.9379 1499.28 64.4177C1499 64.6613 1498.88 65.0139 1499.01 65.4657C1499.78 68.0945 1499.61 71.0834 1498.57 73.6077C1497.62 75.9197 1495.76 78.0049 1493.58 78.7106C1492.14 79.178 1490.65 78.9492 1489.73 77.6427C1488.46 75.8396 1488.97 72.7038 1490.86 70.1001C1492.53 67.8073 1494.95 66.3509 1497.35 65.4132C1497.64 65.3009 1497.7 65.1143 1497.62 64.8674C1497.49 64.4612 1497.28 63.9078 1497.19 63.6553C1496.97 63.0518 1496.35 62.9543 1495.6 63.0385C1493.85 63.2474 1492.27 63.8626 1490.71 64.7193C1486.63 66.9628 1484.58 71.3048 1483.68 73.6278C1483.25 74.7437 1482.88 75.4398 1482.4 76.0571C1481.76 76.8872 1480.95 77.643 1479.47 78.9743C1479.34 79.0965 1479.24 79.3508 1479.35 79.5878C1479.5 79.9082 1480.27 81.0217 1480.49 81.1211C1480.73 81.2424 1481.01 81.0715 1481.12 80.9906C1482.15 80.2715 1483.39 79.1317 1484 78.3586C1484.21 78.0936 1484.43 78.2051 1484.54 78.6072C1485.11 80.6751 1486.58 82.3634 1488.63 83.0698C1492.37 84.3653 1496.26 82.4902 1499.19 79.2258C1501.05 77.1509 1501.72 75.8163 1502.44 74.9093C1503.65 73.3709 1506.03 69.9295 1508.88 67.7199C1509.92 66.905 1511.15 66.2834 1511.77 66.6962C1512.27 67.0273 1512.43 67.7968 1511.63 69.2877C1508.73 74.719 1504.47 81.1 1503.69 82.6474C1503.54 82.9157 1503.67 83.1271 1503.94 83.1271C1505.46 83.1194 1506.96 83.1232 1508.34 83.1232C1508.57 83.115 1508.67 83.0043 1508.79 82.8384C1511.01 79.2655 1513.11 75.865 1515.35 72.3491C1515.47 72.1419 1515.59 72.2996 1515.6 72.3904C1515.64 73.2062 1515.84 74.3217 1516.31 75.0544C1517.16 76.4088 1518.36 76.9909 1519.69 76.9998C1520.75 77.0163 1521.29 76.847 1522.43 76.4086C1523.36 76.0544 1524.11 75.5895 1524.69 75.1689C1525.02 74.9294 1525.08 75.3299 1525.07 75.391C1524.56 78.2274 1525.19 81.5882 1527.94 82.9816C1531.23 84.645 1534.84 82.3071 1536.92 80.1965C1537.12 79.9934 1537.34 80.0148 1537.36 80.4533C1537.41 81.2591 1537.76 82.2153 1538.41 82.8845C1540.15 84.678 1543.66 83.9672 1547.19 81.1661C1549.46 79.3726 1551.83 76.8387 1553.97 74.1555C1554.05 74.0515 1554.1 73.8847 1553.95 73.7154C1553.62 73.3654 1553.15 72.9649 1552.83 72.6565C1552.68 72.5277 1552.47 72.5649 1552.34 72.661C1550.15 74.8019 1548.17 77.2435 1545.32 79.2626C1544.36 79.952 1542.82 80.5081 1542.13 79.5507C1541.86 79.1792 1541.89 78.6655 1542.16 77.9911C1542.99 75.8618 1556.17 55.2848 1556.85 54.0708Z" fill="white"/>
<path d="M1494.86 56.5531C1494.92 56.8586 1495.03 56.918 1495.17 56.8924C1495.84 56.7545 1496.57 56.1881 1497.01 55.5316C1497.4 54.9363 1497.59 54.0772 1497.2 53.7329C1496.84 53.4233 1496.27 53.5108 1495.85 53.8948C1495.01 54.6593 1494.75 55.7435 1494.86 56.5531ZM1461.28 83.0485C1456.37 83.0816 1452.04 79.9686 1451.54 74.5758C1451.26 71.5875 1452.09 68.9242 1453.74 66.7301C1455.2 64.775 1457.67 63.1508 1459.77 62.754C1460.45 62.626 1461.36 62.7044 1461.74 63.1701C1462.34 63.8794 1462.17 64.6585 1461.57 64.9693C1459.97 65.8065 1458.05 67.2397 1457.1 69.1967C1456.33 70.794 1456.17 72.719 1457.35 74.5529C1459.32 77.6092 1464.82 77.6931 1469.94 72.819C1471.2 71.6261 1472.34 70.48 1473.49 69.1223C1475.74 66.4802 1476.49 65.5174 1479.48 61.2567C1479.52 61.2072 1479.53 61.1428 1479.52 61.1114C1479.49 61.0536 1479.45 61.0453 1479.36 61.0371C1477.36 61.0949 1475.62 61.7051 1473.93 63.0037C1473.44 63.3686 1472.74 63.3174 1472.43 62.8369C1472.09 62.2936 1472.33 61.5863 1472.9 61.187C1475.62 59.2428 1478.6 58.8903 1481.64 58.364C1481.63 58.364 1481.85 58.3723 1482.02 58.1378C1483.27 56.4949 1484.21 55.0129 1485.54 53.3514C1486.88 51.6656 1488.61 50.1176 1489.93 48.9548C1491.78 47.3261 1492.96 46.778 1494.17 46.1063C1494.48 45.9362 1494.13 45.7331 1494.03 45.7331C1487.31 44.4376 1480.33 42.7614 1473.66 45.2955C1469.04 47.0646 1467.01 50.824 1467.99 53.3361C1468.68 55.1181 1470.96 55.4078 1473.1 54.3341C1474.88 53.4412 1476.52 52.0022 1477.69 50.1497C1478.34 49.121 1479.71 49.8632 1478.97 51.6496C1477.02 56.3577 1473.29 60.0922 1468.75 60.2499C1464.88 60.3787 1462.39 57.4602 1462.39 53.8598C1462.41 46.7582 1470.11 42.0803 1478.21 41.3809C1487.96 40.554 1497.2 43.2193 1506.88 44.4243C1514.3 45.3461 1521.41 45.3653 1528.87 43.6077C1529.75 43.4112 1530.37 43.9884 1530.31 44.9019C1530.24 46.2224 1529.24 47.4941 1526.79 48.8684C1523.99 50.4401 1521.07 50.917 1518.02 50.9426C1510.64 51.0087 1503.77 48.0544 1496.65 46.4685C1496.66 46.788 1496.74 47.1687 1496.48 47.3704C1492.54 50.3523 1488.98 53.3803 1486.6 57.6334C1486.52 57.7316 1486.56 57.8249 1486.7 57.815C1488.77 57.7019 1490.63 57.6474 1492.57 57.4889C1492.9 57.4559 1492.92 57.3733 1492.89 57.1206C1492.72 55.6547 1493.13 53.983 1494.39 52.8331C1495.68 51.6497 1497.29 51.5151 1498.35 52.3674C1499.57 53.3379 1499.46 55.0833 1498.8 56.3922C1498.12 57.7203 1497 58.4306 1495.93 58.7754C1495.93 58.7754 1495.71 58.825 1495.74 59.0347C1495.78 59.3699 1497.24 60.2 1497.37 60.4211C1497.49 60.6317 1497.42 60.9578 1497.2 61.208C1497.05 61.3897 1496.81 61.5597 1496.5 61.554C1496.25 61.5488 1496.1 61.4598 1495.78 61.2823C1495.12 60.9182 1494.3 60.3196 1493.76 59.6138C1493.57 59.3752 1493.48 59.3702 1493.01 59.3967C1490.92 59.5205 1487.66 59.8442 1485.45 60.1274C1484.91 60.1934 1484.83 60.2983 1484.72 60.489C1481.2 66.4515 1477.44 72.8814 1473.3 77.1863C1468.87 81.8021 1465.19 83.0171 1461.28 83.0485Z" fill="white"/>
<path d="M1504 35.0473C1458.06 35.0473 1420.82 48.0724 1420.82 64.0107C1420.82 79.9503 1458.06 92.9766 1504 92.9766C1549.93 92.9766 1587.17 79.9503 1587.17 64.0107C1587.17 48.0724 1549.93 35.0473 1504 35.0473ZM1504 95.6014C1456.39 95.6014 1417.79 81.4579 1417.79 64.0107C1417.79 46.5609 1456.39 32.4199 1504 32.4199C1551.6 32.4199 1590.19 46.5609 1590.19 64.0107C1590.19 81.4579 1551.6 95.6014 1504 95.6014Z" fill="white"/>
<rect x="1680" width="320" height="128" rx="16" fill="white" fill-opacity="0.08"/>
<path d="M1741.82 84.987H1733.35V63.9668H1727.57V57.1231H1733.35V52.2532C1733.35 46.4825 1735.9 42.3438 1744.35 42.3438C1746.14 42.3438 1748.94 42.7022 1748.94 42.7022V49.057H1745.99C1742.99 49.057 1741.82 49.966 1741.82 52.479V57.1231H1748.83L1748.2 63.9668H1741.82L1741.82 84.987ZM1761.26 56.5761C1761.14 56.5761 1761.01 56.5806 1760.88 56.5838C1753.03 56.5838 1749.43 62.465 1749.43 70.8137C1749.43 81.3307 1754.09 85.54 1760.94 85.54C1764.86 85.54 1767.44 83.8983 1769 80.8348V84.9899H1777.06V57.126H1769V61.4111C1767.73 58.6541 1765.08 56.6088 1761.26 56.5761ZM1763.31 63.1603C1766.61 63.1603 1768.59 65.4509 1768.59 69.3471L1768.6 73.3265C1768.6 75.9525 1766.96 79.0247 1763.31 79.0247C1757.69 79.0247 1757.84 72.9912 1757.84 70.9817C1757.84 64.2221 1760.84 63.1603 1763.31 63.1603ZM1780.32 71.0594C1780.32 67.6734 1780.15 56.5943 1794.66 56.5943C1800.48 56.5943 1802.91 58.4366 1802.91 58.4366L1800.96 64.4681C1800.96 64.4681 1798.53 63.1375 1795.37 63.1375C1791.31 63.1375 1788.73 65.4753 1788.73 69.5885L1788.73 72.5379C1788.73 76.4902 1791.23 79.1285 1795.37 79.1285C1798.26 79.1285 1800.91 77.7854 1800.91 77.7854L1802.86 83.6909C1802.86 83.6909 1800.64 85.5449 1794.7 85.5449C1780.89 85.5449 1780.32 75.6047 1780.32 71.0594H1780.32ZM1850.16 56.5838C1858.02 56.5838 1861.67 62.465 1861.67 70.8137C1861.67 81.3307 1857.01 85.54 1850.16 85.54C1846.24 85.54 1843.34 83.8986 1841.78 80.8348V84.9899L1833.82 84.9868V43.191L1842.27 42.4577V61.0335C1843.49 57.7836 1847.49 56.5838 1850.16 56.5838ZM1847.79 63.1603C1844.49 63.1603 1842.27 65.4509 1842.27 69.3471L1842.26 73.3265C1842.25 75.9525 1843.8 79.0247 1847.79 79.0247C1853.41 79.0247 1853.26 72.9912 1853.26 70.9817C1853.26 64.2221 1850.27 63.1603 1847.79 63.1603ZM1817.57 56.6068C1808.66 56.6068 1803.95 61.4419 1803.95 70.0345V71.6309C1803.95 82.7832 1810.56 85.6545 1818.44 85.6545C1826.09 85.6545 1829.56 83.5235 1829.56 83.5235L1827.98 77.8485C1827.98 77.8485 1823.9 79.5745 1819.45 79.5745C1814.84 79.5745 1812.85 78.4042 1812.34 73.9913H1830.23V69.4386C1830.23 60.1178 1824.95 56.6066 1817.57 56.6066L1817.57 56.6068ZM1817.78 62.2894C1820.87 62.2894 1822.87 64.1718 1822.76 68.5374H1812.36C1812.54 63.9426 1814.69 62.2894 1817.78 62.2894ZM1878.52 56.5685C1869.36 56.5685 1864.55 61.7006 1864.55 70.8976C1864.55 83.5163 1872.85 85.5476 1878.53 85.5476C1886.85 85.5476 1892.38 81.0928 1892.38 71.0122C1892.38 60.52 1886.16 56.5685 1878.52 56.5685ZM1878.4 63.1831C1882.42 63.1831 1884.02 66.1802 1884.02 69.5916V72.5247C1884.02 76.6574 1881.79 79.0478 1878.39 79.0478C1875.2 79.0478 1872.97 76.8118 1872.97 72.5247V69.5916C1872.97 65.0194 1875.63 63.1831 1878.4 63.1831ZM1909.21 56.5685C1900.06 56.5685 1895.24 61.7006 1895.24 70.8976C1895.24 83.5163 1903.54 85.5476 1909.22 85.5476C1917.54 85.5476 1923.07 81.0928 1923.07 71.0122C1923.07 60.52 1916.85 56.5685 1909.21 56.5685ZM1909.09 63.1831C1913.12 63.1831 1914.71 66.1802 1914.71 69.5916V72.5247C1914.71 76.6574 1912.48 79.0478 1909.08 79.0478C1905.89 79.0478 1903.66 76.8118 1903.66 72.5247V69.5916C1903.66 65.0194 1906.32 63.1831 1909.09 63.1831ZM1926.26 84.987V43.191L1934.73 42.4579V70.4722L1943.14 57.1233H1952.09L1943.32 70.9488L1952.43 84.987H1943.45L1934.73 71.3559V84.987H1926.26Z" fill="#1877F2"/>
<rect x="2016" width="320" height="128" rx="16" fill="white" fill-opacity="0.08"/>
<g clip-path="url(#clip2_2277_22199)">
<path d="M2161.66 65.7834C2161.66 75.2866 2154.29 82.2894 2145.24 82.2894C2136.19 82.2894 2128.82 75.2866 2128.82 65.7834C2128.82 56.2131 2136.19 49.2773 2145.24 49.2773C2154.29 49.2773 2161.66 56.2131 2161.66 65.7834ZM2154.47 65.7834C2154.47 59.8448 2150.2 55.7815 2145.24 55.7815C2140.28 55.7815 2136 59.8448 2136 65.7834C2136 71.6624 2140.28 75.7852 2145.24 75.7852C2150.2 75.7852 2154.47 71.655 2154.47 65.7834Z" fill="#EA4335"/>
<path d="M2197.08 65.7834C2197.08 75.2866 2189.71 82.2894 2180.66 82.2894C2171.61 82.2894 2164.24 75.2866 2164.24 65.7834C2164.24 56.2206 2171.61 49.2773 2180.66 49.2773C2189.71 49.2773 2197.08 56.2131 2197.08 65.7834ZM2189.89 65.7834C2189.89 59.8448 2185.62 55.7815 2180.66 55.7815C2175.7 55.7815 2171.43 59.8448 2171.43 65.7834C2171.43 71.6624 2175.7 75.7852 2180.66 75.7852C2185.62 75.7852 2189.89 71.655 2189.89 65.7834Z" fill="#FBBC05"/>
<path d="M2231.03 50.2746V79.908C2231.03 92.0978 2223.9 97.0764 2215.47 97.0764C2207.54 97.0764 2202.76 91.7257 2200.96 87.3499L2207.22 84.7229C2208.33 87.4094 2211.07 90.5796 2215.46 90.5796C2220.86 90.5796 2224.2 87.2233 2224.2 80.9052V78.5313H2223.95C2222.34 80.5331 2219.24 82.2819 2215.33 82.2819C2207.15 82.2819 2199.65 75.0931 2199.65 65.8429C2199.65 56.5257 2207.15 49.2773 2215.33 49.2773C2219.24 49.2773 2222.33 51.0262 2223.95 52.9685H2224.2V50.282H2231.03V50.2746ZM2224.71 65.8429C2224.71 60.0308 2220.87 55.7815 2215.97 55.7815C2211.01 55.7815 2206.86 60.0308 2206.86 65.8429C2206.86 71.5955 2211.01 75.7852 2215.97 75.7852C2220.87 75.7852 2224.71 71.5955 2224.71 65.8429Z" fill="#4285F4"/>
<path d="M2242.29 32.9062V81.2783H2235.28V32.9062H2242.29Z" fill="#34A853"/>
<path d="M2269.6 71.2155L2275.18 74.9662C2273.38 77.6528 2269.04 82.2816 2261.54 82.2816C2252.25 82.2816 2245.3 75.0332 2245.3 65.7756C2245.3 55.9598 2252.3 49.2695 2260.74 49.2695C2269.23 49.2695 2273.39 56.0863 2274.75 59.77L2275.49 61.6453L2253.61 70.7839C2255.29 74.0955 2257.89 75.7848 2261.54 75.7848C2265.2 75.7848 2267.74 73.969 2269.6 71.2155ZM2252.43 65.277L2267.06 59.1523C2266.25 57.0909 2263.83 55.6546 2260.98 55.6546C2257.33 55.6546 2252.25 58.9067 2252.43 65.277Z" fill="#EA4335"/>
<path d="M2102.27 61.4884V54.4856H2125.68C2125.91 55.7061 2126.02 57.1498 2126.02 58.7126C2126.02 63.9666 2124.6 70.4633 2120.01 75.0921C2115.54 79.7805 2109.84 82.281 2102.28 82.281C2088.27 82.281 2076.5 70.7758 2076.5 56.6512C2076.5 42.5266 2088.27 31.0215 2102.28 31.0215C2110.03 31.0215 2115.55 34.0875 2119.7 38.0838L2114.8 43.0252C2111.82 40.2122 2107.8 38.0243 2102.27 38.0243C2092.05 38.0243 2084.05 46.3368 2084.05 56.6512C2084.05 66.9656 2092.05 75.2782 2102.27 75.2782C2108.91 75.2782 2112.69 72.5917 2115.11 70.1507C2117.07 68.1712 2118.36 65.3433 2118.87 61.481L2102.27 61.4884Z" fill="#4285F4"/>
</g>
<rect x="2352" width="320" height="128" rx="16" fill="white" fill-opacity="0.08"/>
<path fill-rule="evenodd" clip-rule="evenodd" d="M2535.65 80.8502C2524.23 89.3416 2507.69 93.8721 2493.44 93.8721C2473.47 93.8721 2455.48 86.4161 2441.88 74.0157C2440.81 73.0403 2441.77 71.7115 2443.05 72.4709C2457.73 81.0918 2475.89 86.2781 2494.64 86.2781C2507.28 86.2781 2521.2 83.6375 2533.99 78.1578C2535.92 77.3293 2537.54 79.4349 2535.65 80.8502Z" fill="#FF9900"/>
<path fill-rule="evenodd" clip-rule="evenodd" d="M2540.39 75.3683C2538.93 73.4869 2530.74 74.4793 2527.07 74.9194C2525.95 75.0576 2525.77 74.0737 2526.78 73.3662C2533.31 68.7322 2544.01 70.0698 2545.26 71.623C2546.51 73.185 2544.94 84.0149 2538.81 89.1839C2537.87 89.9779 2536.97 89.5551 2537.39 88.5022C2538.76 85.0333 2541.85 77.2581 2540.39 75.3683Z" fill="#FF9900"/>
<path fill-rule="evenodd" clip-rule="evenodd" d="M2527.33 40.6527V36.1482C2527.33 35.4665 2527.84 35.0091 2528.46 35.0091H2548.44C2549.08 35.0091 2549.6 35.475 2549.6 36.1482V40.0055C2549.59 40.6527 2549.05 41.4985 2548.09 42.836L2537.74 57.7563C2541.58 57.6615 2545.64 58.2396 2549.13 60.2245C2549.92 60.6731 2550.13 61.3291 2550.19 61.9761V66.7828C2550.19 67.4386 2549.48 68.2066 2548.72 67.8097C2542.57 64.5565 2534.41 64.2026 2527.61 67.8442C2526.92 68.224 2526.19 67.4646 2526.19 66.8088V62.2438C2526.19 61.5103 2526.2 60.2589 2526.93 59.1458L2538.92 41.7833H2528.48C2527.84 41.7833 2527.33 41.326 2527.33 40.6527ZM2454.43 68.7589H2448.35C2447.77 68.7159 2447.31 68.2758 2447.27 67.7147V36.2259C2447.27 35.5959 2447.79 35.0953 2448.44 35.0953H2454.11C2454.7 35.1211 2455.17 35.5787 2455.21 36.148V40.2646H2455.32C2456.8 36.2864 2459.58 34.4312 2463.33 34.4312C2467.13 34.4312 2469.51 36.2864 2471.22 40.2646C2472.69 36.2864 2476.03 34.4312 2479.61 34.4312C2482.16 34.4312 2484.95 35.4926 2486.65 37.8743C2488.58 40.5235 2488.18 44.3722 2488.18 47.7463L2488.17 67.62C2488.17 68.25 2487.65 68.7591 2487 68.7591H2480.93C2480.32 68.7161 2479.84 68.2242 2479.84 67.62V50.9305C2479.84 49.6015 2479.96 46.2877 2479.67 45.028C2479.21 42.9137 2477.85 42.3182 2476.09 42.3182C2474.62 42.3182 2473.08 43.3106 2472.46 44.8986C2471.83 46.4865 2471.89 49.1442 2471.89 50.9305V67.6198C2471.89 68.2498 2471.37 68.7589 2470.72 68.7589H2464.65C2464.03 68.7159 2463.56 68.224 2463.56 67.6198L2463.55 50.9305C2463.55 47.4182 2464.12 42.2494 2459.8 42.2494C2455.43 42.2494 2455.6 47.2888 2455.6 50.9305V67.6198C2455.6 68.2498 2455.08 68.7589 2454.43 68.7589ZM2566.8 34.431C2575.82 34.431 2580.7 42.2492 2580.7 52.1904C2580.7 61.7949 2575.31 69.4149 2566.8 69.4149C2557.94 69.4149 2553.12 61.5965 2553.12 51.8538C2553.12 42.0508 2558 34.431 2566.8 34.431ZM2566.85 40.8599C2562.37 40.8599 2562.09 47.0214 2562.09 50.8614C2562.09 54.7103 2562.03 62.9253 2566.8 62.9253C2571.51 62.9253 2571.73 56.298 2571.73 52.2594C2571.73 49.6015 2571.62 46.4258 2570.83 43.9061C2570.14 41.7141 2568.78 40.8599 2566.85 40.8599ZM2592.4 68.7589H2586.35C2585.74 68.7159 2585.25 68.224 2585.25 67.6198L2585.24 36.1223C2585.3 35.5442 2585.8 35.0953 2586.42 35.0953H2592.05C2592.58 35.1211 2593.02 35.4839 2593.14 35.9756V40.7909H2593.25C2594.95 36.4848 2597.33 34.431 2601.53 34.431C2604.26 34.431 2606.92 35.4232 2608.63 38.1416C2610.22 40.6613 2610.22 44.8986 2610.22 47.9448V67.7665C2610.15 68.3188 2609.65 68.7589 2609.05 68.7589L2602.95 68.7589C2602.4 68.7159 2601.94 68.3015 2601.88 67.7665V50.6629C2601.88 47.2198 2602.27 42.18 2598.07 42.18C2596.59 42.18 2595.23 43.1812 2594.56 44.6999C2593.7 46.6245 2593.59 48.5401 2593.59 50.6631V67.6198C2593.58 68.2498 2593.05 68.7589 2592.4 68.7589ZM2511.4 53.7179C2511.4 56.1081 2511.46 58.1017 2510.26 60.2243C2509.29 61.9504 2507.76 63.0116 2506.05 63.0116C2503.72 63.0116 2502.35 61.2169 2502.35 58.5675C2502.35 53.338 2506.99 52.3888 2511.4 52.3888V53.7179ZM2517.53 68.6727C2517.13 69.035 2516.55 69.061 2516.09 68.8194C2514.07 67.1279 2513.71 66.3427 2512.6 64.729C2509.27 68.1636 2506.9 69.1905 2502.58 69.1905C2497.46 69.1905 2493.48 66.0061 2493.48 59.6291C2493.48 54.6498 2496.15 51.2584 2499.97 49.6015C2503.27 48.1345 2507.88 47.8756 2511.4 47.47V46.6762C2511.4 45.2177 2511.51 43.4918 2510.65 42.232C2509.92 41.1016 2508.5 40.6355 2507.24 40.6355C2504.93 40.6355 2502.86 41.8349 2502.36 44.3203C2502.26 44.8726 2501.86 45.4162 2501.3 45.4421L2495.41 44.8036C2494.91 44.6914 2494.36 44.2858 2494.5 43.5178C2495.85 36.3037 2502.32 34.1289 2508.1 34.1289C2511.06 34.1289 2514.92 34.9229 2517.26 37.1839C2520.21 39.9712 2519.93 43.6903 2519.93 47.7376V57.299C2519.93 60.1727 2521.11 61.4324 2522.22 62.9858C2522.61 63.5381 2522.69 64.2026 2522.2 64.6168C2520.96 65.6609 2518.75 67.6025 2517.54 68.6899L2517.53 68.6727M2431.7 53.7179C2431.7 56.1081 2431.76 58.1017 2430.56 60.2243C2429.59 61.9504 2428.06 63.0116 2426.35 63.0116C2424.02 63.0116 2422.66 61.2169 2422.66 58.5675C2422.66 53.338 2427.3 52.3888 2431.7 52.3888V53.7179ZM2437.83 68.6727C2437.42 69.035 2436.84 69.061 2436.39 68.8194C2434.37 67.1279 2434.01 66.3427 2432.9 64.729C2429.57 68.1636 2427.21 69.1905 2422.88 69.1905C2417.77 69.1905 2413.78 66.0061 2413.78 59.6291C2413.78 54.6498 2416.46 51.2584 2420.26 49.6015C2423.56 48.1345 2428.17 47.8756 2431.7 47.47V46.6762C2431.7 45.2177 2431.81 43.4918 2430.96 42.232C2430.22 41.1016 2428.8 40.6355 2427.55 40.6355C2425.23 40.6355 2423.16 41.8349 2422.66 44.3203C2422.55 44.8726 2422.15 45.4162 2421.61 45.4421L2415.71 44.8036C2415.21 44.6914 2414.66 44.2858 2414.8 43.5178C2416.16 36.3037 2422.61 34.1289 2428.39 34.1289C2431.35 34.1289 2435.22 34.9229 2437.55 37.1839C2440.51 39.9712 2440.23 43.6903 2440.23 47.7376V57.299C2440.23 60.1727 2441.41 61.4324 2442.52 62.9858C2442.91 63.5381 2443 64.2026 2442.5 64.6168C2441.26 65.6609 2439.06 67.6025 2437.84 68.6899L2437.83 68.6727Z" fill="white"/>
<rect x="2688" width="320" height="128" rx="16" fill="white" fill-opacity="0.08"/>
<path d="M2848 29.3867C2798.07 29.3867 2758.04 44.7443 2758.04 63.9991C2758.04 83.1367 2798.4 98.6128 2848 98.6128C2897.61 98.6128 2937.96 83.0847 2937.96 63.9991C2937.96 44.9135 2897.61 29.3867 2848 29.3867Z" fill="#003478"/>
<path d="M2883.44 71.3322C2883.46 71.4907 2883.66 71.6426 2883.86 71.7145C2883.93 71.7392 2883.97 71.7888 2883.89 71.9572C2883.33 73.1892 2882.82 73.8994 2882.11 74.9699C2881.47 75.9589 2880.74 76.7307 2879.86 77.473C2878.53 78.6011 2876.69 79.8292 2875.16 79.0037C2874.48 78.6428 2874.19 77.6697 2874.2 76.882C2874.23 74.6667 2875.19 72.3924 2876.97 70.1572C2879.13 67.426 2881.52 66.0094 2883.09 66.7838C2884.71 67.578 2884.19 69.5061 2883.47 71.0194C2883.41 71.1367 2883.41 71.2364 2883.44 71.3322ZM2900.85 54.0708C2900.97 53.8595 2900.85 53.7051 2900.58 53.7051C2899.23 53.7051 2897.45 53.7082 2896.04 53.7082C2895.7 53.7082 2895.53 53.7495 2895.37 54.0715C2894.85 55.0964 2888.49 64.8665 2887.31 66.7638C2887.11 67.0528 2886.87 67.0123 2886.84 66.6812C2886.72 65.5543 2885.77 64.2589 2884.28 63.6391C2883.14 63.1651 2882.03 63.0792 2880.87 63.237C2878.78 63.5251 2876.92 64.6561 2875.28 65.9318C2872.81 67.856 2870.69 70.3501 2867.94 72.1929C2866.44 73.1961 2864.38 74.0711 2863.01 72.7651C2861.77 71.5819 2861.91 68.9538 2863.81 66.9211C2864.01 66.7081 2864.25 66.8881 2864.21 67.0772C2864.03 67.9964 2864.25 68.9105 2864.93 69.5515C2865.76 70.3152 2866.95 70.4014 2867.97 69.8916C2869.17 69.2815 2869.88 68.1033 2870.08 66.7662C2870.4 64.6919 2868.84 62.8625 2866.9 62.7157C2865.31 62.6018 2863.8 63.1665 2862.32 64.4182C2861.58 65.049 2861.16 65.515 2860.52 66.4502C2860.36 66.6805 2860.12 66.7037 2860.13 66.3635C2860.2 63.7078 2859.13 62.2137 2856.99 62.165C2855.33 62.1237 2853.56 63.0489 2852.17 64.1803C2850.66 65.4296 2849.33 67.0852 2847.91 68.6409C2847.73 68.8325 2847.58 68.8234 2847.53 68.4518C2847.49 66.6923 2847.05 64.9879 2846.26 63.7777C2845.98 63.3566 2845.39 63.1485 2844.89 63.4326C2844.66 63.5614 2843.87 63.9379 2843.28 64.4177C2843 64.6613 2842.88 65.0139 2843.01 65.4657C2843.78 68.0945 2843.61 71.0834 2842.57 73.6077C2841.62 75.9197 2839.76 78.0049 2837.58 78.7106C2836.14 79.178 2834.65 78.9492 2833.73 77.6427C2832.46 75.8396 2832.97 72.7038 2834.86 70.1001C2836.53 67.8073 2838.95 66.3509 2841.35 65.4132C2841.64 65.3009 2841.7 65.1143 2841.62 64.8674C2841.49 64.4612 2841.28 63.9078 2841.19 63.6553C2840.97 63.0518 2840.35 62.9543 2839.6 63.0385C2837.85 63.2474 2836.27 63.8626 2834.71 64.7193C2830.63 66.9628 2828.58 71.3048 2827.68 73.6278C2827.25 74.7437 2826.88 75.4398 2826.4 76.0571C2825.76 76.8872 2824.95 77.643 2823.47 78.9743C2823.34 79.0965 2823.24 79.3508 2823.35 79.5878C2823.5 79.9082 2824.27 81.0217 2824.49 81.1211C2824.73 81.2424 2825.01 81.0715 2825.12 80.9906C2826.15 80.2715 2827.39 79.1317 2828 78.3586C2828.21 78.0936 2828.43 78.2051 2828.54 78.6072C2829.11 80.6751 2830.58 82.3634 2832.63 83.0698C2836.37 84.3653 2840.26 82.4902 2843.19 79.2258C2845.05 77.1509 2845.72 75.8163 2846.44 74.9093C2847.65 73.3709 2850.03 69.9295 2852.88 67.7199C2853.92 66.905 2855.15 66.2834 2855.77 66.6962C2856.27 67.0273 2856.43 67.7968 2855.63 69.2877C2852.73 74.719 2848.47 81.1 2847.69 82.6474C2847.54 82.9157 2847.67 83.1271 2847.94 83.1271C2849.46 83.1194 2850.96 83.1232 2852.34 83.1232C2852.57 83.115 2852.67 83.0043 2852.79 82.8384C2855.01 79.2655 2857.11 75.865 2859.35 72.3491C2859.47 72.1419 2859.59 72.2996 2859.6 72.3904C2859.64 73.2062 2859.84 74.3217 2860.31 75.0544C2861.16 76.4088 2862.36 76.9909 2863.69 76.9998C2864.75 77.0163 2865.29 76.847 2866.43 76.4086C2867.36 76.0544 2868.11 75.5895 2868.69 75.1689C2869.02 74.9294 2869.08 75.3299 2869.07 75.391C2868.56 78.2274 2869.19 81.5882 2871.94 82.9816C2875.23 84.645 2878.84 82.3071 2880.92 80.1965C2881.12 79.9934 2881.34 80.0148 2881.36 80.4533C2881.41 81.2591 2881.76 82.2153 2882.41 82.8845C2884.15 84.678 2887.66 83.9672 2891.19 81.1661C2893.46 79.3726 2895.83 76.8387 2897.97 74.1555C2898.05 74.0515 2898.1 73.8847 2897.95 73.7154C2897.62 73.3654 2897.15 72.9649 2896.83 72.6565C2896.68 72.5277 2896.47 72.5649 2896.34 72.661C2894.15 74.8019 2892.17 77.2435 2889.32 79.2626C2888.36 79.952 2886.82 80.5081 2886.13 79.5507C2885.86 79.1792 2885.89 78.6655 2886.16 77.9911C2886.99 75.8618 2900.17 55.2848 2900.85 54.0708Z" fill="white"/>
<path d="M2838.86 56.5531C2838.92 56.8586 2839.03 56.918 2839.17 56.8924C2839.84 56.7545 2840.57 56.1881 2841.01 55.5316C2841.4 54.9363 2841.59 54.0772 2841.2 53.7329C2840.84 53.4233 2840.27 53.5108 2839.85 53.8948C2839.01 54.6593 2838.75 55.7435 2838.86 56.5531ZM2805.28 83.0485C2800.37 83.0816 2796.04 79.9686 2795.54 74.5758C2795.26 71.5875 2796.09 68.9242 2797.74 66.7301C2799.2 64.775 2801.67 63.1508 2803.77 62.754C2804.45 62.626 2805.36 62.7044 2805.74 63.1701C2806.34 63.8794 2806.17 64.6585 2805.57 64.9693C2803.97 65.8065 2802.05 67.2397 2801.1 69.1967C2800.33 70.794 2800.17 72.719 2801.35 74.5529C2803.32 77.6092 2808.82 77.6931 2813.94 72.819C2815.2 71.6261 2816.34 70.48 2817.49 69.1223C2819.74 66.4802 2820.49 65.5174 2823.48 61.2567C2823.52 61.2072 2823.53 61.1428 2823.52 61.1114C2823.49 61.0536 2823.45 61.0453 2823.36 61.0371C2821.36 61.0949 2819.62 61.7051 2817.93 63.0037C2817.44 63.3686 2816.74 63.3174 2816.43 62.8369C2816.09 62.2936 2816.33 61.5863 2816.9 61.187C2819.62 59.2428 2822.6 58.8903 2825.64 58.364C2825.63 58.364 2825.85 58.3723 2826.02 58.1378C2827.27 56.4949 2828.21 55.0129 2829.54 53.3514C2830.88 51.6656 2832.61 50.1176 2833.93 48.9548C2835.78 47.3261 2836.96 46.778 2838.17 46.1063C2838.48 45.9362 2838.13 45.7331 2838.03 45.7331C2831.31 44.4376 2824.33 42.7614 2817.66 45.2955C2813.04 47.0646 2811.01 50.824 2811.99 53.3361C2812.68 55.1181 2814.96 55.4078 2817.1 54.3341C2818.88 53.4412 2820.52 52.0022 2821.69 50.1497C2822.34 49.121 2823.71 49.8632 2822.97 51.6496C2821.02 56.3577 2817.29 60.0922 2812.75 60.2499C2808.88 60.3787 2806.39 57.4602 2806.39 53.8598C2806.41 46.7582 2814.11 42.0803 2822.21 41.3809C2831.96 40.554 2841.2 43.2193 2850.88 44.4243C2858.3 45.3461 2865.41 45.3653 2872.87 43.6077C2873.75 43.4112 2874.37 43.9884 2874.31 44.9019C2874.24 46.2224 2873.24 47.4941 2870.79 48.8684C2867.99 50.4401 2865.07 50.917 2862.02 50.9426C2854.64 51.0087 2847.77 48.0544 2840.65 46.4685C2840.66 46.788 2840.74 47.1687 2840.48 47.3704C2836.54 50.3523 2832.98 53.3803 2830.6 57.6334C2830.52 57.7316 2830.56 57.8249 2830.7 57.815C2832.77 57.7019 2834.63 57.6474 2836.57 57.4889C2836.9 57.4559 2836.92 57.3733 2836.89 57.1206C2836.72 55.6547 2837.13 53.983 2838.39 52.8331C2839.68 51.6497 2841.29 51.5151 2842.35 52.3674C2843.57 53.3379 2843.46 55.0833 2842.8 56.3922C2842.12 57.7203 2841 58.4306 2839.93 58.7754C2839.93 58.7754 2839.71 58.825 2839.74 59.0347C2839.78 59.3699 2841.24 60.2 2841.37 60.4211C2841.49 60.6317 2841.42 60.9578 2841.2 61.208C2841.05 61.3897 2840.81 61.5597 2840.5 61.554C2840.25 61.5488 2840.1 61.4598 2839.78 61.2823C2839.12 60.9182 2838.3 60.3196 2837.76 59.6138C2837.57 59.3752 2837.48 59.3702 2837.01 59.3967C2834.92 59.5205 2831.66 59.8442 2829.45 60.1274C2828.91 60.1934 2828.83 60.2983 2828.72 60.489C2825.2 66.4515 2821.44 72.8814 2817.3 77.1863C2812.87 81.8021 2809.19 83.0171 2805.28 83.0485Z" fill="white"/>
<path d="M2848 35.0473C2802.06 35.0473 2764.82 48.0724 2764.82 64.0107C2764.82 79.9503 2802.06 92.9766 2848 92.9766C2893.93 92.9766 2931.17 79.9503 2931.17 64.0107C2931.17 48.0724 2893.93 35.0473 2848 35.0473ZM2848 95.6014C2800.39 95.6014 2761.79 81.4579 2761.79 64.0107C2761.79 46.5609 2800.39 32.4199 2848 32.4199C2895.6 32.4199 2934.19 46.5609 2934.19 64.0107C2934.19 81.4579 2895.6 95.6014 2848 95.6014Z" fill="white"/>
<rect x="3024" width="320" height="128" rx="16" fill="white" fill-opacity="0.08"/>
<path d="M3085.82 84.987H3077.35V63.9668H3071.57V57.1231H3077.35V52.2532C3077.35 46.4825 3079.9 42.3438 3088.35 42.3438C3090.14 42.3438 3092.94 42.7022 3092.94 42.7022V49.057H3089.99C3086.99 49.057 3085.82 49.966 3085.82 52.479V57.1231H3092.83L3092.2 63.9668H3085.82L3085.82 84.987ZM3105.26 56.5761C3105.14 56.5761 3105.01 56.5806 3104.88 56.5838C3097.03 56.5838 3093.43 62.465 3093.43 70.8137C3093.43 81.3307 3098.09 85.54 3104.94 85.54C3108.86 85.54 3111.44 83.8983 3113 80.8348V84.9899H3121.06V57.126H3113V61.4111C3111.73 58.6541 3109.08 56.6088 3105.26 56.5761ZM3107.31 63.1603C3110.61 63.1603 3112.59 65.4509 3112.59 69.3471L3112.6 73.3265C3112.6 75.9525 3110.96 79.0247 3107.31 79.0247C3101.69 79.0247 3101.84 72.9912 3101.84 70.9817C3101.84 64.2221 3104.84 63.1603 3107.31 63.1603ZM3124.32 71.0594C3124.32 67.6734 3124.15 56.5943 3138.66 56.5943C3144.48 56.5943 3146.91 58.4366 3146.91 58.4366L3144.96 64.4681C3144.96 64.4681 3142.53 63.1375 3139.37 63.1375C3135.31 63.1375 3132.73 65.4753 3132.73 69.5885L3132.73 72.5379C3132.73 76.4902 3135.23 79.1285 3139.37 79.1285C3142.26 79.1285 3144.91 77.7854 3144.91 77.7854L3146.86 83.6909C3146.86 83.6909 3144.64 85.5449 3138.7 85.5449C3124.89 85.5449 3124.32 75.6047 3124.32 71.0594H3124.32ZM3194.16 56.5838C3202.02 56.5838 3205.67 62.465 3205.67 70.8137C3205.67 81.3307 3201.01 85.54 3194.16 85.54C3190.24 85.54 3187.34 83.8986 3185.78 80.8348V84.9899L3177.82 84.9868V43.191L3186.27 42.4577V61.0335C3187.49 57.7836 3191.49 56.5838 3194.16 56.5838ZM3191.79 63.1603C3188.49 63.1603 3186.27 65.4509 3186.27 69.3471L3186.26 73.3265C3186.25 75.9525 3187.8 79.0247 3191.79 79.0247C3197.41 79.0247 3197.26 72.9912 3197.26 70.9817C3197.26 64.2221 3194.27 63.1603 3191.79 63.1603ZM3161.57 56.6068C3152.66 56.6068 3147.95 61.4419 3147.95 70.0345V71.6309C3147.95 82.7832 3154.56 85.6545 3162.44 85.6545C3170.09 85.6545 3173.56 83.5235 3173.56 83.5235L3171.98 77.8485C3171.98 77.8485 3167.9 79.5745 3163.45 79.5745C3158.84 79.5745 3156.85 78.4042 3156.34 73.9913H3174.23V69.4386C3174.23 60.1178 3168.95 56.6066 3161.57 56.6066L3161.57 56.6068ZM3161.78 62.2894C3164.87 62.2894 3166.87 64.1718 3166.76 68.5374H3156.36C3156.54 63.9426 3158.69 62.2894 3161.78 62.2894ZM3222.52 56.5685C3213.36 56.5685 3208.55 61.7006 3208.55 70.8976C3208.55 83.5163 3216.85 85.5476 3222.53 85.5476C3230.85 85.5476 3236.38 81.0928 3236.38 71.0122C3236.38 60.52 3230.16 56.5685 3222.52 56.5685ZM3222.4 63.1831C3226.42 63.1831 3228.02 66.1802 3228.02 69.5916V72.5247C3228.02 76.6574 3225.79 79.0478 3222.39 79.0478C3219.2 79.0478 3216.97 76.8118 3216.97 72.5247V69.5916C3216.97 65.0194 3219.63 63.1831 3222.4 63.1831ZM3253.21 56.5685C3244.06 56.5685 3239.24 61.7006 3239.24 70.8976C3239.24 83.5163 3247.54 85.5476 3253.22 85.5476C3261.54 85.5476 3267.07 81.0928 3267.07 71.0122C3267.07 60.52 3260.85 56.5685 3253.21 56.5685ZM3253.09 63.1831C3257.12 63.1831 3258.71 66.1802 3258.71 69.5916V72.5247C3258.71 76.6574 3256.48 79.0478 3253.08 79.0478C3249.89 79.0478 3247.66 76.8118 3247.66 72.5247V69.5916C3247.66 65.0194 3250.32 63.1831 3253.09 63.1831ZM3270.26 84.987V43.191L3278.73 42.4579V70.4722L3287.14 57.1233H3296.09L3287.32 70.9488L3296.43 84.987H3287.45L3278.73 71.3559V84.987H3270.26Z" fill="#1877F2"/>
<defs>
<clipPath id="clip0_2277_22199">
<rect width="200" height="67" fill="white" transform="translate(59.9961 30)"/>
</clipPath>
<clipPath id="clip1_2277_22199">
<rect width="200" height="67" fill="white" transform="translate(731.996 30)"/>
</clipPath>
<clipPath id="clip2_2277_22199">
<rect width="200" height="67" fill="white" transform="translate(2076 30)"/>
</clipPath>
</defs>
</svg>
