<svg width="20" height="21" viewBox="0 0 20 21" fill="none" xmlns="http://www.w3.org/2000/svg">
<g opacity="0.4">
<path d="M8.3173 15.9108C8.0645 15.6775 7.69503 15.6192 7.36445 15.7553C7.345 15.7553 7.345 15.7553 7.32555 15.7553C7.32555 15.7553 7.32555 15.7553 7.32555 15.7358C7.345 15.2691 6.97552 14.8608 6.50882 14.8219C6.39214 14.8219 6.27547 14.8413 6.15879 14.8802C6.02267 14.8996 6.06156 14.783 6.06156 14.783C6.23658 14.3357 6.04212 13.8496 5.59486 13.6551C5.36151 13.5579 5.08926 13.5773 4.85591 13.694C4.75868 13.7134 4.77812 13.6162 4.77812 13.6162C5.01148 13.2078 4.87535 12.7022 4.48643 12.4689C4.09751 12.255 3.63081 12.3522 3.35857 12.7022L2.67795 13.5384C2.38626 13.9079 2.4446 14.4524 2.79463 14.7441C2.79463 14.7441 2.79463 14.7441 2.81408 14.7635L2.91131 14.8413C3.18355 15.0552 3.57247 15.0747 3.86416 14.8996C3.88361 14.8802 3.90305 14.8996 3.9225 14.9191V14.958C3.86416 15.2691 3.98084 15.5997 4.23364 15.7942L4.31142 15.8525C4.58366 16.0664 4.93369 16.0859 5.24483 15.9497C5.26428 15.9303 5.28372 15.9497 5.30317 15.9692V15.9886C5.26428 16.2803 5.38095 16.572 5.6143 16.7665L5.67264 16.8054C5.94489 17.0193 6.29491 17.0387 6.60605 16.9026C6.6255 16.8831 6.66439 16.9026 6.66439 16.922V16.9415C6.70328 17.1554 6.81996 17.3498 6.99497 17.486L7.03386 17.5249C7.42278 17.8166 7.96727 17.7582 8.25896 17.3693C8.27841 17.3304 8.29786 17.311 8.33675 17.2721L8.45342 17.0582C8.68678 16.6692 8.62844 16.2025 8.3173 15.9108ZM16.154 13.7912C16.1152 13.7329 16.0763 13.6746 16.0374 13.6357L15.4151 12.8773L10.398 6.77121C10.3397 6.71287 10.2619 6.69343 10.1841 6.73232L7.77281 8.07409C6.99497 8.50191 6.08101 8.57969 5.24483 8.26855C4.79757 8.11299 4.4281 7.74351 4.25308 7.29625C4.11696 6.82955 4.1753 6.3434 4.40865 5.91559C4.46699 5.79891 4.4281 5.66279 4.33087 5.60445C4.29197 5.585 4.25308 5.585 4.21419 5.56556H0.966705C0.713906 5.56556 0.5 5.77946 0.5 6.03226V12.5078C0.5 12.7606 0.713906 12.955 0.966705 12.955H1.95845L2.65851 12.0994C3.28078 11.341 4.40865 11.2438 5.16705 11.8661C5.43929 12.0994 5.6532 12.4106 5.75043 12.7606C6.35325 12.9162 6.81996 13.3829 6.97553 13.9857C7.40334 14.1218 7.79226 14.3941 8.00617 14.8024C8.37564 14.8608 8.72567 15.0358 8.99791 15.308C9.56185 15.8914 9.67852 16.8054 9.25071 17.5054L9.15348 17.6804C9.60074 18.011 10.2425 17.8943 10.573 17.4471C10.7286 17.2137 10.7869 16.9415 10.7481 16.6692C10.7481 16.6692 10.7481 16.6498 10.7481 16.6303H10.7675L10.8453 16.7081C11.1953 17.0582 11.7398 17.1165 12.1676 16.8443C12.4982 16.6109 12.6538 16.2025 12.576 15.8136V15.7942H12.5954L12.6732 15.872C13.0232 16.222 13.5677 16.2803 13.9955 16.0081C14.3261 15.7747 14.4817 15.3664 14.4234 14.9774C14.4234 14.958 14.4234 14.958 14.4234 14.9385H14.4428L14.5206 15.0163C14.8512 15.3469 15.3568 15.4052 15.7651 15.1719C16.2902 14.9191 16.4457 14.2774 16.154 13.7912ZM19.0515 5.56556H18.1764C17.807 5.56556 17.4375 5.50722 17.1069 5.3711L11.8176 3.34871C10.7481 2.94034 9.5424 3.11536 8.64788 3.79597L5.32261 6.32395C5.26428 6.38229 5.20594 6.46007 5.16705 6.53786C5.03092 6.84899 5.16705 7.21847 5.49763 7.37404C6.10046 7.62684 6.78107 7.60739 7.345 7.27681L10.1647 5.68223C10.3786 5.56556 10.6508 5.62389 10.8064 5.79891L16.9708 13.2856C17.0291 13.344 17.1264 13.3634 17.1847 13.3051L17.4375 13.0912C17.5736 12.9939 17.7292 12.9356 17.8847 12.9356H19.0321C19.2849 12.9356 19.4793 12.7411 19.4988 12.4883V6.03226C19.5182 5.77946 19.3043 5.56556 19.0515 5.56556Z" fill="white"/>
</g>
</svg>
