<svg width="20" height="21" viewBox="0 0 20 21" fill="none" xmlns="http://www.w3.org/2000/svg">
<g opacity="0.4">
<path d="M15.0026 19.6673H5.0026C4.78159 19.6673 4.56963 19.5795 4.41335 19.4232C4.25707 19.267 4.16927 19.055 4.16927 18.834C4.16927 18.613 4.25707 18.401 4.41335 18.2447C4.56963 18.0884 4.78159 18.0007 5.0026 18.0007H15.0026C15.2236 18.0007 15.4356 18.0884 15.5919 18.2447C15.7481 18.401 15.8359 18.613 15.8359 18.834C15.8359 19.055 15.7481 19.267 15.5919 19.4232C15.4356 19.5795 15.2236 19.6673 15.0026 19.6673ZM19.1693 5.50065V12.1673C19.1693 12.7145 19.0615 13.2563 18.8521 13.7618C18.6427 14.2674 18.3358 14.7267 17.9489 15.1136C17.562 15.5005 17.1026 15.8074 16.5971 16.0168C16.0916 16.2262 15.5498 16.334 15.0026 16.334H5.0026C4.45543 16.334 3.91361 16.2262 3.40809 16.0168C2.90257 15.8074 2.44324 15.5005 2.05633 15.1136C1.27492 14.3322 0.835938 13.2724 0.835938 12.1673V5.50065C0.835938 4.39558 1.27492 3.33577 2.05633 2.55437C2.83773 1.77297 3.89754 1.33398 5.0026 1.33398H15.0026C15.5498 1.33398 16.0916 1.44176 16.5971 1.65115C17.1026 1.86055 17.562 2.16746 17.9489 2.55437C18.3358 2.94128 18.6427 3.40061 18.8521 3.90614C19.0615 4.41166 19.1693 4.95348 19.1693 5.50065ZM4.16927 7.16732C4.16927 7.38833 4.25707 7.60029 4.41335 7.75657C4.56963 7.91285 4.78159 8.00065 5.0026 8.00065H10.0026C10.2236 8.00065 10.4356 7.91285 10.5919 7.75657C10.7481 7.60029 10.8359 7.38833 10.8359 7.16732C10.8359 6.9463 10.7481 6.73434 10.5919 6.57806C10.4356 6.42178 10.2236 6.33398 10.0026 6.33398H5.0026C4.78159 6.33398 4.56963 6.42178 4.41335 6.57806C4.25707 6.73434 4.16927 6.9463 4.16927 7.16732ZM15.8359 10.5007C15.8359 10.2796 15.7481 10.0677 15.5919 9.9114C15.4356 9.75512 15.2236 9.66732 15.0026 9.66732H5.0026C4.78159 9.66732 4.56963 9.75512 4.41335 9.9114C4.25707 10.0677 4.16927 10.2796 4.16927 10.5007C4.16927 10.7217 4.25707 10.9336 4.41335 11.0899C4.56963 11.2462 4.78159 11.334 5.0026 11.334H15.0026C15.2236 11.334 15.4356 11.2462 15.5919 11.0899C15.7481 10.9336 15.8359 10.7217 15.8359 10.5007Z" fill="white"/>
</g>
</svg>
