<svg width="20" height="29" viewBox="0 0 20 29" fill="none" xmlns="http://www.w3.org/2000/svg">
<g opacity="0.4">
<path d="M16.6667 14.7079C16.6667 16.7973 14.2178 17.1615 12.2194 17.8C10.8345 18.2426 9.66919 18.7635 8.74033 19.5366C6.48852 21.4299 5.15996 24.0515 4.88975 27.1381C4.83908 27.6478 4.84471 28.1576 4.8053 28.6673C2.73365 26.9308 1.08983 24.5109 0.363625 21.9957C-0.655315 18.4778 0.543769 14.9992 3.00386 12.2544C3.00386 12.2544 2.02433 10.8596 1.73159 9.89606C1.73159 9.89606 3.25719 9.53756 4.28739 10.0417C4.28739 10.0417 0.645102 3.43172 9.05558 0.333984C6.70808 2.11532 5.1093 5.20185 6.95014 7.81224C7.96908 9.25747 9.73675 10.7643 11.5382 11.2909C13.2552 11.7894 16.6667 12.6129 16.6667 14.7079Z" fill="white"/>
<path d="M14.6154 11.166C13.9444 10.8181 13.1607 10.5949 12.5 10.4391C14.7998 8.57515 12.6076 6.16602 12.6076 6.16602C15.6961 7.98845 15.0815 10.2314 14.6154 11.166Z" fill="white"/>
<path d="M19.7838 19.4556C19.4859 18.632 18.8282 17.998 17.9457 17.7759C18.3785 17.6459 18.7326 17.4129 19.0081 17.0553C19.4072 16.5676 19.5983 15.8795 19.5983 15.0072C19.5983 13.0295 18.2324 12.1896 15.731 12C15.8771 12.0596 16.0233 12.13 16.1638 12.2005C17.5522 12.8994 18.2548 13.8205 18.2548 14.9259C18.2548 15.977 17.5803 16.9523 16.4898 17.4779C15.4105 17.998 14.1402 18.0847 13.0103 18.4803C11.7793 18.8975 10.6551 19.5043 9.71072 20.2737C8.4572 21.2815 7.20369 22.9883 6.66406 24.5H15.3431C16.9395 24.5 18.0862 24.2345 18.8113 23.6981C19.5983 23.1021 19.9974 22.1268 19.9974 20.7505C19.9862 20.2629 19.9243 19.8294 19.7838 19.4556ZM17.9344 22.6253C17.4735 23.0208 16.7877 23.2213 15.8827 23.2213H8.80572C10.4471 20.6693 13.3982 18.9679 16.7709 18.9679C16.9058 18.9679 17.0238 18.9679 17.1587 18.9788C17.8614 19.0004 18.4516 19.5043 18.5752 20.1654C18.609 20.3496 18.6258 20.5501 18.6258 20.7614C18.6202 21.6121 18.3898 22.2406 17.9344 22.6253Z" fill="white"/>
</g>
</svg>
