<svg width="20" height="21" viewBox="0 0 20 21" fill="none" xmlns="http://www.w3.org/2000/svg">
<g opacity="0.4" clip-path="url(#clip0_2245_5053)">
<path d="M20 10.5C20 4.97715 15.5228 0.5 10 0.5C4.47715 0.5 0 4.97715 0 10.5C0 16.0228 4.47715 20.5 10 20.5C15.5228 20.5 20 16.0228 20 10.5Z" fill="white"/>
<path d="M6.54688 8.15996C6.54688 7.72293 6.68719 7.28013 6.96781 6.83156C7.24844 6.383 7.65789 6.01148 8.19617 5.71703C8.73451 5.42276 9.36247 5.27555 10.0801 5.27539C10.747 5.27539 11.3359 5.39846 11.8467 5.64461C12.3575 5.89076 12.752 6.22546 13.0303 6.64871C13.304 7.05681 13.4494 7.53744 13.4478 8.02883C13.4478 8.41987 13.3683 8.76262 13.2095 9.05707C13.0606 9.33842 12.8698 9.59552 12.6436 9.81957C12.4251 10.0336 12.033 10.3936 11.4671 10.8996C11.3349 11.0179 11.2093 11.1434 11.091 11.2757C11.0093 11.3659 10.9386 11.4655 10.8806 11.5725C10.836 11.6584 10.8002 11.7486 10.7736 11.8417C10.7483 11.9314 10.7103 12.089 10.6597 12.3143C10.5723 12.7929 10.2986 13.0321 9.83859 13.032C9.72741 13.0349 9.61677 13.0156 9.51311 12.9753C9.40944 12.935 9.31481 12.8746 9.23473 12.7974C9.07137 12.6411 8.98971 12.4088 8.98977 12.1004C8.98977 11.714 9.04956 11.3794 9.16914 11.0965C9.28322 10.8221 9.44437 10.5698 9.64531 10.3509C9.89907 10.0833 10.1662 9.8288 10.4458 9.58832C10.7402 9.33074 10.953 9.13637 11.0842 9.0052C11.2144 8.87525 11.3259 8.72776 11.4154 8.56699C11.5048 8.40677 11.5512 8.22606 11.5499 8.04254C11.5526 7.86685 11.5173 7.69265 11.4465 7.53186C11.3756 7.37107 11.2708 7.22749 11.1393 7.11094C10.8655 6.85802 10.5124 6.73151 10.0801 6.73141C9.57398 6.73141 9.20135 6.85901 8.96219 7.11422C8.72302 7.36943 8.52057 7.74551 8.35484 8.24246C8.19841 8.76264 7.90169 9.02273 7.46469 9.02273C7.343 9.02517 7.22215 9.00218 7.10986 8.95525C6.99756 8.90831 6.8963 8.83846 6.81254 8.75016C6.63543 8.56836 6.54688 8.37163 6.54688 8.15996ZM9.91449 15.7232C9.64412 15.727 9.38205 15.6298 9.17957 15.4506C8.97014 15.269 8.86547 15.0148 8.86555 14.6881C8.86262 14.5518 8.8881 14.4163 8.94037 14.2904C8.99264 14.1645 9.07055 14.0508 9.16914 13.9566C9.26706 13.8596 9.38353 13.7833 9.51159 13.7323C9.63965 13.6813 9.77668 13.6566 9.91449 13.6597C10.0501 13.6578 10.1847 13.683 10.3103 13.734C10.4359 13.785 10.5501 13.8607 10.6459 13.9566C10.7418 14.0525 10.8174 14.1666 10.8684 14.2923C10.9194 14.4179 10.9446 14.5525 10.9426 14.6881C10.9426 15.0102 10.839 15.2632 10.632 15.4471C10.4364 15.6267 10.18 15.7254 9.91449 15.7232Z" fill="black"/>
</g>
<defs>
<clipPath id="clip0_2245_5053">
<rect width="20" height="20" fill="white" transform="translate(0 0.5)"/>
</clipPath>
</defs>
</svg>
