<svg width="20" height="21" viewBox="0 0 20 21" fill="none" xmlns="http://www.w3.org/2000/svg">
<g opacity="0.4">
<path fill-rule="evenodd" clip-rule="evenodd" d="M7.39732 4.68278H18.5002L11.9057 9.2036L7.41997 6.12849C7.59075 5.67118 7.5922 5.15427 7.39732 4.68278ZM4.49353 7.30669L6.11189 6.3213C6.59216 6.02888 6.75157 5.40497 6.4704 4.91798L5.00935 2.38735C4.85947 2.1277 4.63259 1.96067 4.34017 1.89466C4.04771 1.8286 3.77115 1.88192 3.52419 2.05196L0.859661 3.88649C-0.408659 8.3554 5.29091 18.0304 9.66216 19.1328L12.5832 17.7425C12.8539 17.6137 13.0384 17.4008 13.1274 17.1145C13.2164 16.8283 13.1852 16.5483 13.0353 16.2886L11.5742 13.758C11.2931 13.271 10.6731 13.0971 10.1797 13.3668L8.51712 14.2757C6.87298 12.8134 4.93783 9.46169 4.49353 7.30669ZM19.3067 5.26419L12.1693 10.1571C12.0024 10.2711 11.7878 10.2622 11.6326 10.1506L6.89431 6.90239C6.80454 6.98329 6.70622 7.05704 6.59943 7.12208L5.57583 7.74528C6.11361 9.48083 7.44427 11.7856 8.67841 13.1191L9.72993 12.5442C10.6695 12.0306 11.8507 12.362 12.3861 13.2893L13.2922 14.8586H18.5698C18.9865 14.8586 19.3275 14.5177 19.3275 14.101V5.44044C19.3275 5.37981 19.3202 5.32079 19.3067 5.26419Z" fill="white"/>
</g>
</svg>
