<svg width="20" height="21" viewBox="0 0 20 21" fill="none" xmlns="http://www.w3.org/2000/svg">
<g opacity="0.4" clip-path="url(#clip0_2245_5044)">
<path d="M18.005 5.03721H13.6976V3.30151C13.6976 2.47506 13.0252 1.80273 12.1988 1.80273H7.80093C6.97448 1.80273 6.30211 2.47506 6.30211 3.30151V5.03721H1.99466C0.897366 5.03721 0.0046214 5.92996 0.0046214 7.02725C0.0046214 8.02397 -0.0974552 8.9191 0.657864 9.92574C1.08521 10.4953 1.67248 10.9016 2.35615 11.1006L8.99506 13.0335C9.65231 13.2249 10.3472 13.225 11.0045 13.0335L17.6435 11.1006C18.3271 10.9015 18.9144 10.4953 19.3417 9.92574C20.1005 8.91458 19.995 8.01025 19.995 7.02725C19.995 5.92996 19.1023 5.03721 18.005 5.03721ZM7.57162 3.30151C7.57162 3.17508 7.67449 3.07225 7.80093 3.07225H12.1988C12.3252 3.07225 12.4281 3.17512 12.4281 3.30151V5.03721H7.57162V3.30151Z" fill="white"/>
<path d="M18.0016 12.3209C10.8407 14.4058 10.9334 14.448 10.003 14.448C9.07927 14.448 9.29841 14.4446 2.00448 12.321C1.23543 12.097 0.554337 11.6843 0.0078125 11.1152V17.2071C0.0078125 18.3044 0.900517 19.1971 1.99785 19.1971H18.0082C19.1055 19.1971 19.9982 18.3044 19.9982 17.2071V11.1152C19.4517 11.6842 18.7706 12.097 18.0016 12.3209Z" fill="white"/>
</g>
<defs>
<clipPath id="clip0_2245_5044">
<rect width="20" height="20" fill="white" transform="translate(0 0.5)"/>
</clipPath>
</defs>
</svg>
