<svg width="20" height="21" viewBox="0 0 20 21" fill="none" xmlns="http://www.w3.org/2000/svg">
<g opacity="0.4">
<path d="M15.0052 19.6667H5.00521C4.78419 19.6667 4.57223 19.5789 4.41595 19.4226C4.25967 19.2663 4.17188 19.0543 4.17188 18.8333C4.17188 18.6123 4.25967 18.4004 4.41595 18.2441C4.57223 18.0878 4.78419 18 5.00521 18H15.0052C15.2262 18 15.4382 18.0878 15.5945 18.2441C15.7507 18.4004 15.8385 18.6123 15.8385 18.8333C15.8385 19.0543 15.7507 19.2663 15.5945 19.4226C15.4382 19.5789 15.2262 19.6667 15.0052 19.6667Z" fill="white"/>
<path d="M15.0026 1.33398H5.0026C4.45543 1.33398 3.91361 1.44176 3.40809 1.65115C2.90257 1.86055 2.44324 2.16746 2.05633 2.55437C1.27492 3.33577 0.835938 4.39558 0.835938 5.50065V12.1673C0.835938 13.2724 1.27492 14.3322 2.05633 15.1136C2.44324 15.5005 2.90257 15.8074 3.40809 16.0168C3.91361 16.2262 4.45543 16.334 5.0026 16.334H15.0026C15.5498 16.334 16.0916 16.2262 16.5971 16.0168C17.1026 15.8074 17.562 15.5005 17.9489 15.1136C18.3358 14.7267 18.6427 14.2674 18.8521 13.7618C19.0615 13.2563 19.1693 12.7145 19.1693 12.1673V5.50065C19.1693 4.95348 19.0615 4.41166 18.8521 3.90614C18.6427 3.40061 18.3358 2.94128 17.9489 2.55437C17.562 2.16746 17.1026 1.86055 16.5971 1.65115C16.0916 1.44176 15.5498 1.33398 15.0026 1.33398ZM11.6693 9.55898L9.16927 11.0007C9.04235 11.0739 8.89834 11.1124 8.75178 11.1123C8.60521 11.1122 8.46128 11.0734 8.3345 10.9998C8.20772 10.9263 8.10257 10.8206 8.02967 10.6935C7.95677 10.5663 7.91869 10.4222 7.91927 10.2757V7.39232C7.91869 7.24576 7.95677 7.10163 8.02967 6.97449C8.10257 6.84734 8.20772 6.74168 8.3345 6.66814C8.46128 6.59461 8.60521 6.55581 8.75178 6.55567C8.89834 6.55552 9.04235 6.59404 9.16927 6.66732L11.6693 8.10898C11.7975 8.18167 11.9042 8.28707 11.9784 8.41443C12.0526 8.5418 12.0917 8.68657 12.0917 8.83398C12.0917 8.9814 12.0526 9.12617 11.9784 9.25354C11.9042 9.3809 11.7975 9.4863 11.6693 9.55898Z" fill="white"/>
</g>
</svg>
