<svg width="32" height="32" viewBox="0 0 32 32" fill="none" xmlns="http://www.w3.org/2000/svg">
<g clip-path="url(#clip0_2220_4311)">
<path d="M32 16C32 24.8267 24.8267 32 16 32C7.17333 32 0 24.8267 0 16C0 7.17333 7.17333 0 16 0C16.9733 0 17.96 0.0933333 18.9067 0.266667C19.6267 0.4 20.1067 1.09333 19.9733 1.81333C19.84 2.53333 19.1467 3.01333 18.4267 2.88C17.64 2.73333 16.8133 2.66667 16 2.66667C8.65333 2.66667 2.66667 8.65333 2.66667 16C2.66667 23.3467 8.65333 29.3333 16 29.3333C23.3467 29.3333 29.3333 23.3467 29.3333 16C29.3333 15.1867 29.2533 14.3733 29.12 13.5733C28.9867 12.8533 29.4667 12.16 30.1867 12.0267C30.92 11.8933 31.6 12.3733 31.7333 13.0933C31.9067 14.04 32 15.0267 32 16ZM17.1467 8.08C17.88 8.18667 18.5467 7.68 18.6533 6.94667C18.76 6.21333 18.2533 5.54667 17.52 5.44C17.0133 5.37333 16.5067 5.33333 16 5.33333C10.12 5.33333 5.33333 10.12 5.33333 16C5.33333 21.88 10.12 26.6667 16 26.6667C21.88 26.6667 26.6667 21.88 26.6667 16C26.6667 15.4933 26.6267 14.9867 26.56 14.48C26.4533 13.7467 25.7867 13.24 25.0533 13.3467C24.32 13.4533 23.8133 14.12 23.92 14.8533C23.9733 15.2267 24 15.6133 24 16C24 20.4133 20.4133 24 16 24C11.5867 24 8 20.4133 8 16C8 11.5867 11.5867 8 16 8C16.3867 8 16.7733 8.02667 17.1467 8.08ZM14.3333 12.1333C13.84 11.5867 13 11.5333 12.4533 12.0267C11.32 13.04 10.68 14.4933 10.68 16C10.68 18.9467 13.0667 21.3333 16.0133 21.3333C17.5333 21.3333 18.9733 20.68 19.9867 19.56C20.48 19.0133 20.4267 18.1733 19.88 17.68C19.3333 17.1867 18.4933 17.24 18 17.7867C17.4933 18.3467 16.7733 18.68 16.0133 18.68C14.5467 18.68 13.3467 17.48 13.3467 16.0133C13.3467 15.2533 13.6667 14.5333 14.24 14.0267C14.7867 13.5333 14.84 12.6933 14.3467 12.1467L14.3333 12.1333ZM16.4 13.7333C15.88 14.2533 15.88 15.0933 16.4 15.6133C16.6667 15.88 17 16 17.3467 16C17.6933 16 18.0267 15.8667 18.2933 15.6133L24.5733 9.33333H28.0267C28.3867 9.33333 28.72 9.18667 28.9733 8.94667L31.64 6.28C32.0267 5.89333 32.1333 5.32 31.9333 4.82667C31.7333 4.33333 31.24 4 30.7067 4H28.04V1.33333C28.04 0.8 27.72 0.306667 27.2133 0.106667C26.7067 -0.106667 26.1467 0.0133334 25.76 0.4L23.0933 3.06667C22.84 3.32 22.7067 3.65333 22.7067 4.01333V7.46667L16.4267 13.7467L16.4 13.7333Z" fill="#BD0318"/>
</g>
<defs>
<clipPath id="clip0_2220_4311">
<rect width="32" height="32" fill="white"/>
</clipPath>
</defs>
</svg>
