<svg width="32" height="32" viewBox="0 0 32 32" fill="none" xmlns="http://www.w3.org/2000/svg">
<g clip-path="url(#clip0_2220_4304)">
<path d="M31.0261 12.5577C28.9581 9.18973 24.2541 3.53906 15.9981 3.53906C7.74212 3.53906 3.03812 9.18973 0.970115 12.5577C0.330819 13.5917 -0.0078125 14.7834 -0.0078125 15.9991C-0.0078125 17.2147 0.330819 18.4064 0.970115 19.4404C3.03812 22.8084 7.74212 28.4591 15.9981 28.4591C24.2541 28.4591 28.9581 22.8084 31.0261 19.4404C31.6654 18.4064 32.004 17.2147 32.004 15.9991C32.004 14.7834 31.6654 13.5917 31.0261 12.5577ZM28.7528 18.0444C26.9768 20.9324 22.9568 25.7924 15.9981 25.7924C9.03945 25.7924 5.01945 20.9324 3.24345 18.0444C2.86363 17.4298 2.66245 16.7216 2.66245 15.9991C2.66245 15.2766 2.86363 14.5683 3.24345 13.9537C5.01945 11.0657 9.03945 6.20573 15.9981 6.20573C22.9568 6.20573 26.9768 11.0604 28.7528 13.9537C29.1326 14.5683 29.3338 15.2766 29.3338 15.9991C29.3338 16.7216 29.1326 17.4298 28.7528 18.0444Z" fill="#BD0318"/>
<path d="M16.0026 9.33594C14.6841 9.33594 13.3951 9.72693 12.2988 10.4595C11.2025 11.192 10.348 12.2332 9.84341 13.4514C9.33883 14.6696 9.2068 16.01 9.46404 17.3032C9.72127 18.5964 10.3562 19.7843 11.2886 20.7167C12.2209 21.649 13.4088 22.2839 14.702 22.5412C15.9952 22.7984 17.3357 22.6664 18.5538 22.1618C19.772 21.6572 20.8132 20.8027 21.5457 19.7064C22.2783 18.6101 22.6693 17.3211 22.6693 16.0026C22.6672 14.2351 21.9641 12.5407 20.7143 11.2909C19.4645 10.0411 17.7701 9.33805 16.0026 9.33594ZM16.0026 20.0026C15.2115 20.0026 14.4381 19.768 13.7803 19.3285C13.1225 18.889 12.6098 18.2642 12.3071 17.5333C12.0043 16.8024 11.9251 15.9982 12.0795 15.2222C12.2338 14.4463 12.6148 13.7336 13.1742 13.1742C13.7336 12.6148 14.4463 12.2338 15.2222 12.0795C15.9982 11.9251 16.8024 12.0043 17.5333 12.3071C18.2642 12.6098 18.889 13.1225 19.3285 13.7803C19.768 14.4381 20.0026 15.2115 20.0026 16.0026C20.0026 17.0635 19.5812 18.0809 18.831 18.831C18.0809 19.5812 17.0635 20.0026 16.0026 20.0026Z" fill="#BD0318"/>
</g>
<defs>
<clipPath id="clip0_2220_4304">
<rect width="32" height="32" fill="white"/>
</clipPath>
</defs>
</svg>
