<svg width="120" height="120" viewBox="0 0 120 120" fill="none" xmlns="http://www.w3.org/2000/svg">
<path d="M83.6998 59.7511C83.6857 50.948 83.1561 44.4933 82.556 39.7706C81.4943 31.8558 75.0256 25.3987 67.5162 24.6159C63.7615 24.2151 55.2279 23.9386 47.585 23.9714L83.6998 59.7511Z" fill="#BD0318"/>
<path d="M110.571 102.121L43.3148 35.5772L32.107 24.4725C32.107 24.4725 32.0977 24.4725 32.093 24.4725L17.3414 9.87801C15.1336 7.69363 11.5711 7.71238 9.38672 9.9202C7.20234 12.128 7.22109 15.6905 9.42891 17.8749L17.4305 25.7921C10.118 27.1889 3.31875 33.4304 1.8 40.7264C0.892969 45.2804 0.0140625 51.4983 0 59.9991C0.0140625 68.4999 0.892969 74.7179 1.8 79.2694C3.37031 86.8069 10.5727 93.2194 18.157 94.328C22.7578 94.9936 34.3805 95.7999 42.8789 95.9616C51.3773 96.1725 62.9648 95.8679 67.5188 95.3827C72.5133 94.86 77.0438 91.8296 79.8328 87.5311L102.661 110.118C103.758 111.203 105.188 111.744 106.617 111.744C108.047 111.744 109.516 111.187 110.616 110.076C112.8 107.868 112.781 104.305 110.573 102.121H110.571Z" fill="#BD0318"/>
<path d="M91.5465 67.5231L112.453 88.2348C115.303 86.9106 117.611 83.6035 118.455 79.0332C119.203 74.7066 119.965 68.7066 120 60.4449C120.009 52.1832 119.275 46.1856 118.551 41.8613C117.276 34.7715 112.45 30.7543 107.522 32.5004C104.524 33.6113 100.413 35.4113 94.6169 38.3246C93.0348 39.1215 91.5606 39.8738 90.1848 40.5887C90.1614 40.591 91.7669 48.9488 91.7575 60.4965C91.7528 63.002 91.6708 65.3598 91.5465 67.5231Z" fill="#BD0318"/>
</svg>
