<svg width="40" height="40" viewBox="0 0 40 40" fill="none" xmlns="http://www.w3.org/2000/svg">
<path d="M6.11889 4.7207C6.11781 4.7207 6.1166 4.7207 6.11552 4.7207C5.7372 4.7207 5.38137 4.86818 5.11269 5.13619C4.84104 5.40717 4.69141 5.76798 4.69141 6.15209V27.6155C4.69141 28.4025 5.33424 29.0444 6.12454 29.0464C9.45627 29.0544 15.0382 29.7488 18.889 33.7786V11.3165C18.889 11.0497 18.8209 10.7991 18.6923 10.5917C15.5317 5.50185 9.45816 4.72851 6.11889 4.7207Z" fill="#BD0318"/>
<path d="M35.3069 27.6156V6.15209C35.3069 5.76798 35.1572 5.40717 34.8856 5.13619C34.6169 4.86818 34.2608 4.7207 33.8829 4.7207C33.8817 4.7207 33.8805 4.7207 33.8794 4.7207C30.5402 4.72865 24.4667 5.50198 21.306 10.5918C21.1774 10.7992 21.1094 11.0499 21.1094 11.3167V33.7786C24.9602 29.7488 30.5421 29.0544 33.8739 29.0464C34.664 29.0444 35.3069 28.4025 35.3069 27.6156Z" fill="#BD0318"/>
<path d="M38.5673 9.66992H37.5295V27.6149C37.5295 29.6245 35.8922 31.2631 33.8795 31.2681C31.0535 31.2748 26.3938 31.8274 23.0938 34.9508C28.8012 33.5534 34.818 34.4618 38.2469 35.2432C38.6751 35.3407 39.1175 35.24 39.4605 34.9666C39.8024 34.6938 39.9985 34.2862 39.9985 33.8486V11.101C39.9986 10.3119 39.3564 9.66992 38.5673 9.66992Z" fill="#BD0318"/>
<path d="M2.46896 27.6149V9.66992H1.43112C0.642157 9.66992 0 10.3119 0 11.101V33.8482C0 34.2859 0.196095 34.6934 0.537914 34.9662C0.880676 35.2394 1.3227 35.3406 1.75152 35.2428C5.18049 34.4613 11.1973 33.553 16.9046 34.9504C13.6046 31.8272 8.94495 31.2747 6.11894 31.268C4.10641 31.2631 2.46896 29.6245 2.46896 27.6149Z" fill="#BD0318"/>
</svg>
