<svg width="40" height="40" viewBox="0 0 40 40" fill="none" xmlns="http://www.w3.org/2000/svg">
<g clip-path="url(#clip0_2220_2992)">
<path d="M29.3749 14.1406C23.5591 14.1406 18.8281 18.8716 18.8281 24.6873C18.8281 30.5031 23.5591 35.2341 29.3748 35.2341C35.1906 35.2341 39.9997 30.5031 39.9997 24.6873C39.9997 18.8716 35.1907 14.1406 29.3749 14.1406ZM30.5776 30.3349C30.5674 30.3387 30.5568 30.337 30.5466 30.3405V31.7185C30.5466 32.3663 30.0225 32.8904 29.3748 32.8904C28.727 32.8904 28.2029 32.3663 28.2029 31.7185V30.3325C27.4311 30.0717 26.6916 29.5769 26.0594 28.8232C25.6428 28.3277 25.7069 27.5884 26.2036 27.173C26.6991 26.7564 27.4407 26.8205 27.8538 27.3172C28.4741 28.0553 29.1756 28.3483 29.7753 28.1331C30.2365 27.9649 30.5466 27.522 30.5466 27.0311C30.5466 26.3845 30.0213 25.8592 29.3748 25.8592C27.4362 25.8592 25.8592 24.2822 25.8592 22.3437C25.8592 20.928 26.7015 19.6566 28.005 19.1051C28.0695 19.0777 28.1379 19.0793 28.203 19.056V17.6563C28.203 17.0085 28.7271 16.4844 29.3748 16.4844C30.0226 16.4844 30.5467 17.0085 30.5467 17.6563V19.0581C31.1535 19.2631 31.7452 19.589 32.2736 20.1007C32.7382 20.5505 32.7497 21.292 32.2988 21.7578C31.849 22.2224 31.1063 22.2327 30.6416 21.783C30.0717 21.2302 29.4412 21.0402 28.9193 21.2634C28.4845 21.4477 28.2029 21.8711 28.2029 22.3438C28.2029 22.9903 28.7282 23.5156 29.3748 23.5156C31.3134 23.5156 32.8903 25.0927 32.8903 27.0312C32.8905 28.5039 31.9612 29.8314 30.5776 30.3349Z" fill="#BD0318"/>
<path d="M1.17188 25.8594C0.524141 25.8594 0 26.3835 0 27.0313V38.828C0 39.4757 0.524141 39.9998 1.17188 39.9998H4.68742V25.8594H1.17188Z" fill="#BD0318"/>
<path d="M27.7931 7.31442L19.5901 0.283242C19.1529 -0.0944141 18.5029 -0.0944141 18.0657 0.283242L9.86272 7.31442C9.48967 7.63254 9.35576 8.14981 9.52623 8.60989C9.69561 9.06996 10.1339 9.37551 10.6249 9.37551H14.1405C14.1405 19.5067 14.1405 29.8683 14.1405 40.0001C17.1594 40.0001 19.2465 40.0001 22.3435 40.0001C22.9912 40.0001 23.5154 39.476 23.5154 38.8283V36.1553C19.348 34.0171 16.4842 29.685 16.4842 24.6879C16.4842 19.6907 19.3481 15.3586 23.5154 13.2204V9.37559H27.0309C27.5219 9.37559 27.9602 9.07004 28.1296 8.60996C28.3001 8.14981 28.1662 7.63254 27.7931 7.31442Z" fill="#BD0318"/>
<path d="M8.28125 16.4844C7.63352 16.4844 7.10938 17.0085 7.10938 17.6563V25.8593V39.9996C8.82109 39.9996 10.1348 39.9996 11.7968 39.9996V16.4844H8.28125Z" fill="#BD0318"/>
</g>
<defs>
<clipPath id="clip0_2220_2992">
<rect width="40" height="40" fill="white"/>
</clipPath>
</defs>
</svg>
