<svg width="40" height="40" viewBox="0 0 40 40" fill="none" xmlns="http://www.w3.org/2000/svg">
<g clip-path="url(#clip0_2220_2958)">
<path d="M7.83817 16.7291H6.62185V14.3152C6.62185 14.1249 6.54624 13.9424 6.41167 13.8078C6.27709 13.6733 6.09457 13.5977 5.90425 13.5977C5.71394 13.5977 5.53141 13.6733 5.39684 13.8078C5.26226 13.9424 5.18666 14.1249 5.18666 14.3152V16.7291H3.97034C3.59005 16.7302 3.22565 16.8818 2.95674 17.1507C2.68783 17.4196 2.53627 17.784 2.53516 18.1643V35.5229C2.53511 35.7113 2.57219 35.898 2.6443 36.0721C2.71641 36.2463 2.82212 36.4045 2.9554 36.5378C3.08868 36.6711 3.24691 36.7768 3.42106 36.8489C3.59521 36.921 3.78186 36.9581 3.97034 36.958H5.18666V39.3763C5.18946 39.5648 5.2663 39.7446 5.40057 39.8769C5.53485 40.0092 5.71578 40.0833 5.90427 40.0833C6.09277 40.0833 6.27369 40.0092 6.40796 39.8769C6.54223 39.7446 6.61905 39.5648 6.62185 39.3763V36.958H7.83817C8.02665 36.9581 8.2133 36.921 8.38745 36.8489C8.5616 36.7768 8.71983 36.6711 8.85311 36.5378C8.98639 36.4045 9.09211 36.2463 9.16421 36.0721C9.23632 35.898 9.2734 35.7113 9.27335 35.5229V18.1643C9.27224 17.784 9.12068 17.4196 8.85177 17.1507C8.58286 16.8818 8.21846 16.7302 7.83817 16.7291Z" fill="#BD0318"/>
<path d="M17.2333 7.83094H16.0218V5.41681C16.0218 5.22649 15.9462 5.04397 15.8116 4.9094C15.677 4.77482 15.4945 4.69922 15.3042 4.69922C15.1139 4.69922 14.9314 4.77482 14.7968 4.9094C14.6622 5.04397 14.5866 5.22649 14.5866 5.41681V7.83094H13.3727C12.9924 7.83205 12.628 7.98361 12.3591 8.25252C12.0902 8.52143 11.9386 8.88583 11.9375 9.26612V26.6247C11.9374 26.8132 11.9745 26.9998 12.0466 27.174C12.1187 27.3481 12.2245 27.5064 12.3577 27.6396C12.491 27.7729 12.6493 27.8786 12.8234 27.9507C12.9975 28.0228 13.1842 28.0599 13.3727 28.0599H14.5866V30.4779C14.5894 30.6664 14.6662 30.8462 14.8005 30.9785C14.9348 31.1108 15.1157 31.1849 15.3042 31.1849C15.4927 31.1849 15.6736 31.1107 15.8079 30.9784C15.9422 30.8461 16.019 30.6663 16.0218 30.4779V28.0599H17.2333C17.422 28.0605 17.6089 28.0239 17.7833 27.952C17.9577 27.8801 18.1162 27.7744 18.2496 27.641C18.383 27.5076 18.4887 27.3491 18.5606 27.1747C18.6325 27.0003 18.6692 26.8133 18.6685 26.6247V9.26612C18.6686 9.07764 18.6315 8.89099 18.5594 8.71684C18.4873 8.54269 18.3816 8.38446 18.2483 8.25118C18.115 8.1179 17.9568 8.01219 17.7826 7.94008C17.6085 7.86797 17.4218 7.83089 17.2333 7.83094Z" fill="#BD0318"/>
<path d="M26.6318 12.8313H25.4178V10.4149C25.4178 10.2245 25.3422 10.042 25.2077 9.90744C25.0731 9.77287 24.8906 9.69727 24.7003 9.69727C24.5099 9.69727 24.3274 9.77287 24.1928 9.90744C24.0583 10.042 23.9827 10.2245 23.9827 10.4149V12.8313H22.7711C22.5826 12.8312 22.396 12.8683 22.2218 12.9404C22.0477 13.0125 21.8895 13.1182 21.7562 13.2515C21.6229 13.3848 21.5172 13.543 21.4451 13.7172C21.373 13.8913 21.3359 14.078 21.3359 14.2665V31.625C21.3359 31.8135 21.373 32.0002 21.4451 32.1743C21.5172 32.3485 21.6229 32.5067 21.7562 32.64C21.8895 32.7733 22.0477 32.879 22.2218 32.9511C22.396 33.0232 22.5826 33.0603 22.7711 33.0602H23.9827V35.4759C23.9855 35.6644 24.0623 35.8442 24.1966 35.9765C24.3309 36.1088 24.5118 36.1829 24.7003 36.1829C24.8888 36.1829 25.0697 36.1088 25.204 35.9765C25.3382 35.8442 25.4151 35.6644 25.4179 35.4759V33.0602H26.6318C27.0121 33.0591 27.3765 32.9076 27.6454 32.6386C27.9143 32.3697 28.0658 32.0053 28.067 31.625V14.2665C28.0659 13.8862 27.9143 13.5218 27.6454 13.2529C27.3765 12.984 27.0121 12.8324 26.6318 12.8313Z" fill="#BD0318"/>
<path d="M36.0296 3.04408H34.8133V0.625796C34.8133 0.435478 34.7376 0.252956 34.6031 0.118381C34.4685 -0.0161934 34.286 -0.0917969 34.0957 -0.0917969C33.9053 -0.0917969 33.7228 -0.0161934 33.5882 0.118381C33.4537 0.252956 33.3781 0.435478 33.3781 0.625796V3.04408H32.1617C31.9733 3.04403 31.7866 3.08111 31.6125 3.15322C31.4383 3.22533 31.2801 3.33104 31.1468 3.46432C31.0135 3.5976 30.9078 3.75583 30.8357 3.92998C30.7636 4.10413 30.7265 4.29078 30.7266 4.47927V21.8378C30.7277 22.2181 30.8792 22.5825 31.1481 22.8514C31.4171 23.1203 31.7815 23.2719 32.1617 23.273H33.3781V25.6869C33.3809 25.8754 33.4577 26.0552 33.592 26.1875C33.7263 26.3197 33.9072 26.3939 34.0957 26.3939C34.2842 26.3939 34.4651 26.3197 34.5994 26.1874C34.7336 26.0551 34.8105 25.8753 34.8133 25.6868V23.273H36.0296C36.4099 23.2719 36.7743 23.1203 37.0432 22.8514C37.3121 22.5825 37.4636 22.2181 37.4648 21.8378V4.47927C37.4648 4.29078 37.4277 4.10413 37.3556 3.92999C37.2835 3.75584 37.1778 3.59761 37.0445 3.46433C36.9112 3.33105 36.753 3.22534 36.5789 3.15323C36.4047 3.08112 36.2181 3.04403 36.0296 3.04408Z" fill="#BD0318"/>
</g>
<defs>
<clipPath id="clip0_2220_2958">
<rect width="40" height="40" fill="white"/>
</clipPath>
</defs>
</svg>
