<svg width="124" height="29" viewBox="0 0 124 29" fill="none" xmlns="http://www.w3.org/2000/svg">
<path d="M39.8901 0.601562C36.3143 0.601562 34.2737 2.0701 34.2737 4.65068C34.2737 6.25043 34.9334 7.40861 36.8144 7.97594L40.2467 8.99388C40.7049 9.13141 41.0713 9.38929 41.0713 9.85347C41.0713 10.4045 40.6024 10.8714 39.8901 10.8714C39.4327 10.8714 39.1412 10.7049 38.954 10.4642C38.7677 10.2064 38.6866 9.85799 38.6866 9.51416H34.0508C34.0508 12.748 36.7627 13.6764 39.7118 13.6764C43.169 13.6764 45.5957 12.4006 45.5957 9.35581C45.5957 7.85922 44.9306 6.7517 43.3892 6.09842C42.1518 5.56547 40.4437 5.21982 39.5112 4.94476C39.0022 4.79003 38.7089 4.60001 38.7089 4.15303C38.7089 3.7739 39.0432 3.42916 39.8232 3.42916C40.4499 3.42916 40.8761 3.69518 40.893 4.46972H45.2391C45.2391 1.57969 42.9408 0.601562 39.8901 0.601562ZM106.708 0.692046V28.2668H108.246V0.692046H106.708ZM122.197 0.782529C121.293 0.782529 120.548 1.5254 120.548 2.43385C120.548 3.35135 121.293 4.08516 122.197 4.08516C123.097 4.08516 123.824 3.35135 123.824 2.43385C123.824 1.5254 123.097 0.782529 122.197 0.782529ZM0.441406 0.940874L3.09361 13.3597H8.35343L9.49009 5.30669H9.51237L10.649 13.3597H15.9089L18.5611 0.940874H14.215L13.1898 8.74505H13.1452L12.0086 0.940874H6.9939L5.85724 8.74505H5.83495L4.78745 0.940874H0.441406ZM21.5253 0.940874V13.3597H30.9751V10.1249H26.1611V8.72243H30.4625V5.48765H26.1611V4.17565H30.8191V0.940874H21.5253ZM48.3593 0.940874V4.26613H51.3904V13.3597H56.2267V4.26613H59.2578V0.940874H48.3593ZM62.5341 0.940874V13.3597H72.0062V10.1249H67.1921V8.72243H71.4936V5.48765H67.1921V4.17565H71.8502V0.940874H62.5341ZM75.5945 0.940874V13.3597H80.3417V8.92601H80.8989C81.678 8.92601 81.9785 9.1667 82.0801 9.78561C82.2495 10.8524 82.3939 12.4304 82.6819 13.3597H87.4291C86.8701 11.484 86.92 9.72046 86.649 8.65457C86.4119 7.70811 85.762 7.17426 84.5763 7.07111V7.04849C86.4065 6.6006 87.0056 5.51299 87.0056 4.08516C87.0056 1.74527 85.4651 0.940874 82.8379 0.940874H75.5945ZM90.8168 0.940874V13.3597H94.7393V5.78172H94.7839L97.3693 13.3597H103.186V0.940874H99.2414V8.45098H99.2192L96.6338 0.940874H90.8168ZM117.673 0.940874V28.2216H119.211V0.940874H117.673ZM122.197 0.986116C122.989 0.986116 123.557 1.63036 123.557 2.43385C123.557 3.24639 122.989 3.85896 122.197 3.85896C121.401 3.85896 120.816 3.24639 120.816 2.43385C120.816 1.63036 121.401 0.986116 122.197 0.986116ZM121.596 1.50639V3.3613H121.819V2.50171H122.22L122.732 3.3613H123L122.465 2.50171C122.788 2.49266 123.022 2.36689 123.022 2.00405C123.022 1.69912 122.858 1.50639 122.376 1.50639H121.596ZM121.819 1.66474H122.331C122.555 1.66474 122.777 1.69369 122.777 1.98143C122.777 2.35784 122.41 2.32074 122.153 2.32074H121.819V1.66474ZM80.3417 3.76847H80.7874C81.7369 3.76847 82.3475 3.94311 82.3476 4.85427C82.3476 5.78353 81.6754 6.12104 80.7429 6.12104H80.3417V3.76847ZM80.832 15.4634C76.6117 15.4634 74.5024 18.1309 74.5024 22.0008C74.5024 25.8717 76.6117 28.5382 80.832 28.5382C85.0524 28.5382 87.1394 25.8717 87.1393 22.0008C87.1393 18.1309 85.0523 15.4634 80.832 15.4634ZM33.8725 15.7801V24.0367C33.8725 27.0299 35.9943 28.5382 39.6895 28.5382C43.3839 28.5382 45.5065 27.0299 45.5065 24.0367V15.7801H40.6479V23.8331C40.6479 24.813 40.1977 25.1904 39.6895 25.1904C39.1813 25.1904 38.7311 24.813 38.7311 23.8331V15.7801H33.8725ZM49.5182 15.7801V28.1989H53.4631V20.6436H53.4854L56.0707 28.1989H61.8877V15.7801H57.9652V23.3128H57.9206L55.3352 15.7801H49.5182ZM65.9886 15.7801V28.1989H70.8473V15.7801H65.9886ZM90.8168 15.7801V28.1989H94.7393V20.6436H94.7839L97.3693 28.1989H103.186V15.7801H99.2414V23.3128H99.2192L96.6338 15.7801H90.8168ZM80.832 18.6982C81.6121 18.6982 82.1247 19.1977 82.1247 22.0008C82.1247 24.8737 81.5773 25.3035 80.832 25.3035C80.0867 25.3035 79.5171 24.8737 79.5171 22.0008C79.5171 19.1977 80.0528 18.6982 80.832 18.6982Z" fill="#FFDE38"/>
</svg>
