<svg width="88" height="37" viewBox="0 0 88 37" fill="none" xmlns="http://www.w3.org/2000/svg">
<path fill-rule="evenodd" clip-rule="evenodd" d="M87.5241 19.4658C87.5241 13.4173 84.5384 8.64331 78.8289 8.64331C73.0984 8.64331 69.6287 13.4163 69.6287 19.4175C69.6287 26.5297 73.7228 30.1208 79.5989 30.1208C82.4652 30.1208 84.6327 29.4836 86.2701 28.5853V23.8596C84.6327 24.6633 82.7543 25.1587 80.3699 25.1587C78.0337 25.1587 75.9626 24.3549 75.6976 21.5676H87.4728C87.4728 21.2593 87.521 20.0321 87.521 19.4648L87.5241 19.4658ZM75.6368 17.2222C75.6368 14.552 77.2983 13.442 78.8163 13.442C80.2851 13.442 81.8513 14.552 81.8513 17.2222H75.6368ZM60.3447 8.64536C57.9844 8.64536 56.4685 9.73172 55.6241 10.4882L55.3098 9.02359H50.0016V36.5732L56.0222 35.3213L56.0463 28.6346C56.9137 29.2492 58.1897 30.1228 60.3101 30.1228C64.6211 30.1228 68.5465 26.7312 68.5465 19.2304C68.5224 12.3783 64.5488 8.64433 60.3332 8.64433L60.3447 8.64536ZM58.899 24.9254C57.4784 24.9254 56.6361 24.4289 56.0568 23.8154L56.0327 15.0484C56.6592 14.3629 57.5256 13.8911 58.899 13.8911C61.0906 13.8911 62.6076 16.3013 62.6076 19.3959C62.6076 22.5615 61.1147 24.9254 58.899 24.9254ZM41.718 7.2517L47.7628 5.97725V1.18164L41.718 2.43347V7.2517ZM41.718 9.04722H47.7628V29.721H41.718V9.04722ZM35.2385 10.7944L34.853 9.04722H29.6505V29.723H35.6712V15.7103C37.0917 13.8911 39.5002 14.2221 40.2472 14.4821V9.04825C39.4761 8.76459 36.6591 8.24453 35.2375 10.7955L35.2385 10.7944ZM23.1972 3.90834L17.3211 5.13859L17.297 24.0641C17.297 27.5606 19.9705 30.1362 23.5345 30.1362C25.5093 30.1362 26.9539 29.7816 27.7491 29.3551V24.5584C26.978 24.8668 23.1731 25.9521 23.1731 22.4556V14.0803H27.7491V9.04722H23.171L23.1972 3.90834ZM6.91717 15.0371C6.91717 14.1152 7.68822 13.7627 8.96422 13.7627C11.047 13.8062 13.0911 14.3234 14.9356 15.2735V9.73275C12.9368 8.95164 10.962 8.64639 8.96422 8.64639C4.07498 8.64639 0.824219 11.1511 0.824219 15.3331C0.824219 21.8544 9.97622 20.8143 9.97622 23.6273C9.97622 24.7136 9.01241 25.0682 7.66412 25.0682C5.66527 25.0682 3.11222 24.2645 1.08927 23.1771V28.7991C3.32908 29.7446 5.59403 30.1352 7.66412 30.1352C12.6738 30.1352 16.1184 27.7014 16.1184 23.4721C16.0943 16.4318 6.91717 17.6836 6.91717 15.0371Z" fill="#6772E5"/>
</svg>
