<svg width="59" height="59" viewBox="0 0 59 59" fill="none" xmlns="http://www.w3.org/2000/svg">
<path d="M10.6943 52.1739V49.1307C10.6943 47.9666 9.98574 47.2043 8.76937 47.2043C8.16118 47.2043 7.49985 47.4053 7.04519 48.0671C6.69091 47.5116 6.1831 47.2043 5.42139 47.2043C4.91358 47.2043 4.40578 47.358 4.00426 47.9134V47.3048H2.94141V52.1739H4.00426V49.4853C4.00426 48.6225 4.45892 48.2148 5.16749 48.2148C5.87605 48.2148 6.23034 48.6698 6.23034 49.4853V52.1739H7.29319V49.4853C7.29319 48.6225 7.80099 48.2148 8.45642 48.2148C9.16498 48.2148 9.51927 48.6698 9.51927 49.4853V52.1739H10.6943ZM26.4599 47.3048H24.7357V45.8334H23.6729V47.3048H22.7104V48.268H23.6729V50.5016C23.6729 51.6185 24.1276 52.2744 25.3439 52.2744C25.7986 52.2744 26.3064 52.1207 26.6607 51.9198L26.3536 51.0039C26.0466 51.2048 25.6923 51.258 25.4384 51.258C24.9306 51.258 24.7298 50.9507 24.7298 50.4485V48.268H26.454V47.3048H26.4599ZM35.4823 47.1984C34.8742 47.1984 34.4667 47.5057 34.2128 47.9075V47.2989H33.15V52.168H34.2128V49.4262C34.2128 48.6166 34.5671 48.1557 35.2284 48.1557C35.4292 48.1557 35.6831 48.2089 35.8898 48.2562L36.1968 47.2398C35.9842 47.1984 35.6831 47.1984 35.4823 47.1984ZM21.8483 47.7066C21.3405 47.3521 20.632 47.1984 19.8703 47.1984C18.6539 47.1984 17.8449 47.8071 17.8449 48.7703C17.8449 49.5798 18.4531 50.0407 19.516 50.1885L20.0238 50.2416C20.5788 50.3421 20.8859 50.4957 20.8859 50.7498C20.8859 51.1044 20.4784 51.3585 19.7699 51.3585C19.0613 51.3585 18.5004 51.1044 18.1461 50.8503L17.6383 51.6598C18.1933 52.0676 18.955 52.2685 19.7167 52.2685C21.1339 52.2685 21.9487 51.6067 21.9487 50.6966C21.9487 49.8339 21.2874 49.3789 20.2777 49.2253L19.7699 49.1721C19.3152 49.1189 18.9609 49.0184 18.9609 48.7171C18.9609 48.3625 19.3152 48.1616 19.8762 48.1616C20.4843 48.1616 21.0925 48.4157 21.3996 48.5694L21.8483 47.7066ZM50.1261 47.1984C49.5179 47.1984 49.1104 47.5057 48.8565 47.9075V47.2989H47.7937V52.168H48.8565V49.4262C48.8565 48.6166 49.2108 48.1557 49.8722 48.1557C50.0729 48.1557 50.3268 48.2089 50.5335 48.2562L50.8405 47.2516C50.6339 47.1984 50.3327 47.1984 50.1261 47.1984ZM36.5452 49.7394C36.5452 51.2107 37.5608 52.2744 39.1315 52.2744C39.84 52.2744 40.3478 52.1207 40.8556 51.7189L40.3478 50.8562C39.9404 51.1635 39.5389 51.3112 39.0783 51.3112C38.2162 51.3112 37.608 50.7026 37.608 49.7394C37.608 48.8234 38.2162 48.2148 39.0783 48.1675C39.533 48.1675 39.9404 48.3212 40.3478 48.6225L40.8556 47.7598C40.3478 47.3521 39.84 47.2043 39.1315 47.2043C37.5608 47.1984 36.5452 48.268 36.5452 49.7394ZM46.3766 49.7394V47.3048H45.3137V47.9134C44.9594 47.4584 44.4516 47.2043 43.7903 47.2043C42.4204 47.2043 41.3575 48.268 41.3575 49.7394C41.3575 51.2107 42.4204 52.2744 43.7903 52.2744C44.4989 52.2744 45.0067 52.0203 45.3137 51.5653V52.1739H46.3766V49.7394ZM42.4735 49.7394C42.4735 48.8766 43.0286 48.1675 43.9438 48.1675C44.8059 48.1675 45.4141 48.8294 45.4141 49.7394C45.4141 50.6021 44.8059 51.3112 43.9438 51.3112C43.0345 51.258 42.4735 50.5962 42.4735 49.7394ZM29.7548 47.1984C28.3376 47.1984 27.322 48.2148 27.322 49.7335C27.322 51.258 28.3376 52.2685 29.8079 52.2685C30.5165 52.2685 31.225 52.0676 31.786 51.6067L31.2782 50.8444C30.8708 51.1516 30.3629 51.3526 29.861 51.3526C29.1997 51.3526 28.5443 51.0453 28.3908 50.1885H31.9867C31.9867 50.0348 31.9867 49.9344 31.9867 49.7807C32.034 48.2148 31.1187 47.1984 29.7548 47.1984ZM29.7548 48.1143C30.4161 48.1143 30.8708 48.5221 30.9711 49.2785H28.438C28.5384 48.6225 28.993 48.1143 29.7548 48.1143ZM56.1607 49.7394V45.3784H55.0978V47.9134C54.7435 47.4584 54.2357 47.2043 53.5744 47.2043C52.2045 47.2043 51.1417 48.268 51.1417 49.7394C51.1417 51.2107 52.2045 52.2744 53.5744 52.2744C54.283 52.2744 54.7908 52.0203 55.0978 51.5653V52.1739H56.1607V49.7394ZM52.2577 49.7394C52.2577 48.8766 52.8127 48.1675 53.7279 48.1675C54.59 48.1675 55.1982 48.8294 55.1982 49.7394C55.1982 50.6021 54.59 51.3112 53.7279 51.3112C52.8127 51.258 52.2577 50.5962 52.2577 49.7394ZM16.6758 49.7394V47.3048H15.6129V47.9134C15.2587 47.4584 14.7509 47.2043 14.0895 47.2043C12.7196 47.2043 11.6568 48.268 11.6568 49.7394C11.6568 51.2107 12.7196 52.2744 14.0895 52.2744C14.7981 52.2744 15.3059 52.0203 15.6129 51.5653V52.1739H16.6758V49.7394ZM12.7255 49.7394C12.7255 48.8766 13.2806 48.1675 14.1958 48.1675C15.0579 48.1675 15.6661 48.8294 15.6661 49.7394C15.6661 50.6021 15.0579 51.3112 14.1958 51.3112C13.2806 51.258 12.7255 50.5962 12.7255 49.7394Z" fill="black"/>
<path d="M37.4605 10.3257H21.4941V39.0323H37.4605V10.3257Z" fill="#FF5A00"/>
<path d="M22.556 24.6792C22.556 18.8468 25.2958 13.6704 29.5 10.3259C26.4059 7.8913 22.5029 6.41992 18.2456 6.41992C8.16033 6.41992 0 14.5864 0 24.6792C0 34.772 8.16033 42.9384 18.2456 42.9384C22.5029 42.9384 26.4059 41.467 29.5 39.0325C25.2899 35.7352 22.556 30.5115 22.556 24.6792Z" fill="#EB001B"/>
<path d="M59 24.6792C59 34.772 50.8397 42.9384 40.7544 42.9384C36.4971 42.9384 32.5941 41.467 29.5 39.0325C33.7573 35.682 36.444 30.5115 36.444 24.6792C36.444 18.8468 33.7042 13.6704 29.5 10.3259C32.5882 7.8913 36.4912 6.41992 40.7485 6.41992C50.8397 6.41992 59 14.6395 59 24.6792Z" fill="#F79E1B"/>
</svg>
