<svg width="27" height="26" viewBox="0 0 27 26" fill="none" xmlns="http://www.w3.org/2000/svg">
<g clip-path="url(#clip0_2220_2832)">
<path d="M16.9641 2.17425L17.2484 1.74769L17.5328 1.33129L18.1625 0.386754C18.2437 0.275035 18.2133 0.112534 18.0914 0.0414402C17.9797 -0.0398098 17.8172 -0.00933986 17.7461 0.112535L17.0758 1.118L16.7914 1.54457L16.507 1.97113C15.593 1.61566 14.5875 1.42269 13.5109 1.42269C12.4445 1.42269 11.4289 1.61566 10.5148 1.97113L10.2305 1.54457L9.94609 1.118L9.27578 0.112535C9.19453 0.000816391 9.04219 -0.0296536 8.93047 0.0414402C8.81875 0.12269 8.78828 0.275035 8.85938 0.386754L9.48906 1.33129L9.77344 1.74769L10.0578 2.17425C7.925 3.16957 6.47266 5.04847 6.47266 7.21175H20.5594C20.5492 5.04847 19.107 3.16957 16.9641 2.17425ZM10.4844 5.19066C10.068 5.19066 9.73281 4.8555 9.73281 4.4391C9.73281 4.02269 10.068 3.68753 10.4844 3.68753C10.9008 3.68753 11.2359 4.02269 11.2359 4.4391C11.2359 4.8555 10.9008 5.19066 10.4844 5.19066ZM16.5172 5.19066C16.1008 5.19066 15.7656 4.8555 15.7656 4.4391C15.7656 4.02269 16.1008 3.68753 16.5172 3.68753C16.9336 3.68753 17.2687 4.02269 17.2687 4.4391C17.2789 4.8555 16.9437 5.19066 16.5172 5.19066Z" fill="#BD0318"/>
<path d="M6.56484 8.20703L6.45312 8.21719V9.46641V10.4922V19.2875C6.45312 20.1711 7.16406 20.882 8.04766 20.882H9.19531C9.15469 21.0141 9.13438 21.1562 9.13438 21.2984V21.3797V21.8875V24.4875C9.13438 25.3203 9.81484 26.0008 10.6477 26.0008C11.4805 26.0008 12.1609 25.3203 12.1609 24.4875V21.8875V21.3797V21.2984C12.1609 21.1562 12.1406 21.0141 12.1 20.882H14.9031C14.8625 21.0141 14.8422 21.1562 14.8422 21.2984V21.3797V21.8875V24.4875C14.8422 25.3203 15.5227 26.0008 16.3555 26.0008C17.1883 26.0008 17.8688 25.3203 17.8688 24.4875V21.8875V21.3797V21.2984C17.8688 21.1562 17.8484 21.0141 17.8078 20.882H18.9555C19.8391 20.882 20.55 20.1711 20.55 19.2875V10.4922V9.46641V8.20703H20.4383H6.56484Z" fill="#BD0318"/>
<path d="M3.94297 8.2168C3.11016 8.2168 2.42969 8.89727 2.42969 9.73008V16.1895C2.42969 17.0223 3.11016 17.7027 3.94297 17.7027C4.77578 17.7027 5.45625 17.0223 5.45625 16.1895V9.73008C5.44609 8.88711 4.77578 8.2168 3.94297 8.2168Z" fill="#BD0318"/>
<path d="M23.068 8.2168C22.2352 8.2168 21.5547 8.89727 21.5547 9.73008V16.1895C21.5547 17.0223 22.2352 17.7027 23.068 17.7027C23.9008 17.7027 24.5812 17.0223 24.5812 16.1895V9.73008C24.5711 8.88711 23.9008 8.2168 23.068 8.2168Z" fill="#BD0318"/>
</g>
<defs>
<clipPath id="clip0_2220_2832">
<rect width="26" height="26" fill="white" transform="translate(0.5)"/>
</clipPath>
</defs>
</svg>
