<svg width="27" height="26" viewBox="0 0 27 26" fill="none" xmlns="http://www.w3.org/2000/svg">
<g clip-path="url(#clip0_2220_2819)">
<path fill-rule="evenodd" clip-rule="evenodd" d="M23.25 2.4375C25.0449 2.4375 26.5 3.89257 26.5 5.6875V17.0625C26.5 18.8574 25.0449 20.3125 23.25 20.3125H16.75V22.75H19.1875C19.6362 22.75 20 23.1138 20 23.5625C20 24.0112 19.6362 24.375 19.1875 24.375H7.8125C7.36377 24.375 7 24.0112 7 23.5625C7 23.1138 7.36377 22.75 7.8125 22.75H10.25V20.3125H3.75C1.95507 20.3125 0.5 18.8574 0.5 17.0625V5.6875C0.5 3.89257 1.95507 2.4375 3.75 2.4375H23.25ZM15.125 22.75V20.3125H11.875V22.75H15.125Z" fill="#BD0318"/>
</g>
<defs>
<clipPath id="clip0_2220_2819">
<rect width="26" height="26" fill="white" transform="translate(0.5)"/>
</clipPath>
</defs>
</svg>
