<svg width="27" height="26" viewBox="0 0 27 26" fill="none" xmlns="http://www.w3.org/2000/svg">
<g clip-path="url(#clip0_2220_2825)">
<path d="M20.59 13.8264C20.616 11.8005 21.6777 9.9296 23.4034 8.86902C22.3104 7.30685 20.5434 6.35244 18.6379 6.29285C16.6326 6.08269 14.6891 7.4921 13.6675 7.4921C12.6264 7.4921 11.0534 6.31344 9.3591 6.3481C7.13069 6.42069 5.10269 7.65677 4.01827 9.60568C1.70969 13.6032 3.4311 19.4792 5.64327 22.7108C6.75044 24.2935 8.04285 26.0604 9.7361 25.9987C11.3925 25.9304 12.0111 24.9424 14.0099 24.9424C15.9902 24.9424 16.5709 25.9987 18.2977 25.9586C20.0744 25.9293 21.1945 24.3694 22.2627 22.7714C23.0579 21.6437 23.6699 20.3979 24.0751 19.0794C21.9648 18.1868 20.5922 16.1187 20.59 13.8264Z" fill="#BD0318"/>
<path d="M17.3262 4.16758C18.2947 3.00408 18.7725 1.50908 18.6566 0C17.1767 0.156 15.8085 0.863417 14.827 1.98142C13.8574 3.08533 13.3656 4.52833 13.4609 5.99517C14.9613 6.01033 16.3859 5.3365 17.3262 4.16758Z" fill="#BD0318"/>
</g>
<defs>
<clipPath id="clip0_2220_2825">
<rect width="26" height="26" fill="white" transform="translate(0.5)"/>
</clipPath>
</defs>
</svg>
