<svg width="24" height="24" viewBox="0 0 24 24" fill="none" xmlns="http://www.w3.org/2000/svg">
<circle cx="12" cy="12" r="12" fill="#BD0318"/>
<g clip-path="url(#clip0_2136_9363)">
<path d="M9.94662 14.0526C9.65363 13.7601 9.65363 13.2846 9.94662 12.9921C10.2396 12.6991 10.7141 12.6991 11.0071 12.9921C11.6701 13.6551 12.8271 13.6556 13.4901 12.9921L15.9846 10.4976C16.6691 9.81308 16.6691 8.69908 15.9846 8.01458C15.3001 7.33008 14.1861 7.33008 13.5016 8.01458C13.2086 8.30758 12.7341 8.30758 12.4411 8.01458C12.1481 7.72208 12.1481 7.24658 12.4411 6.95408C13.7101 5.68458 15.7761 5.68458 17.0451 6.95408C18.3146 8.22358 18.3146 10.2886 17.0451 11.5581L14.5506 14.0526C13.9156 14.6876 13.0821 15.0046 12.2486 15.0046C11.4151 15.0046 10.5811 14.6871 9.94662 14.0526ZM9.25463 17.9991C10.0881 17.9991 10.9216 17.6816 11.5566 17.0471C11.8496 16.7546 11.8496 16.2791 11.5566 15.9866C11.2636 15.6936 10.7891 15.6936 10.4961 15.9866C9.81113 16.6716 8.69712 16.6711 8.01312 15.9866C7.32862 15.3021 7.32862 14.1881 8.01312 13.5036L10.4936 11.0231C11.1786 10.3381 12.2926 10.3381 12.9766 11.0231C13.2696 11.3161 13.7441 11.3161 14.0371 11.0231C14.3301 10.7306 14.3301 10.2551 14.0371 9.96258C12.7676 8.69308 10.7026 8.69308 9.43313 9.96258L6.95213 12.4431C5.68262 13.7126 5.68262 15.7776 6.95213 17.0471C7.58713 17.6821 8.42112 17.9991 9.25463 17.9991Z" fill="white"/>
</g>
<defs>
<clipPath id="clip0_2136_9363">
<rect width="12" height="12" fill="white" transform="translate(6 6)"/>
</clipPath>
</defs>
</svg>
