<svg width="24" height="24" viewBox="0 0 24 24" fill="none" xmlns="http://www.w3.org/2000/svg">
<g clip-path="url(#clip0_2136_9347)">
<circle cx="12" cy="12" r="12" fill="white"/>
<path d="M24 12.0723C24 18.0613 19.606 23.0263 13.87 23.9273V15.5643H16.659L17.19 12.1043H13.87V9.85927C13.87 8.91227 14.334 7.99027 15.82 7.99027H17.329V5.04427C17.329 5.04427 15.959 4.81027 14.65 4.81027C11.916 4.81027 10.13 6.46727 10.13 9.46627V12.1033H7.091V15.5633H10.13V23.9263C4.395 23.0243 0 18.0603 0 12.0723C0 5.44527 5.373 0.0722656 12 0.0722656C18.627 0.0722656 24 5.44427 24 12.0723Z" fill="#BD0318"/>
</g>
<defs>
<clipPath id="clip0_2136_9347">
<rect width="24" height="24" fill="white"/>
</clipPath>
</defs>
</svg>
