<svg width="24" height="24" viewBox="0 0 24 24" fill="none" xmlns="http://www.w3.org/2000/svg">
<circle cx="12" cy="12" r="12" fill="#BD0318"/>
<path d="M16.0806 7.13114C16.0806 7.13114 17.2138 6.68926 17.1194 7.76239C17.0879 8.20427 16.8046 9.75083 16.5843 11.4237L15.8288 16.379C15.8288 16.379 15.7659 17.1049 15.1992 17.2312C14.6326 17.3574 13.7827 16.7893 13.6253 16.663C13.4994 16.5684 11.2645 15.148 10.4775 14.4537C10.2572 14.2643 10.0053 13.8855 10.509 13.4437L13.8142 10.2874C14.1919 9.90865 14.5697 9.0249 12.9958 10.098L8.58882 13.0965C8.58882 13.0965 8.08517 13.4121 7.14084 13.128L5.09475 12.4968C5.09475 12.4968 4.33927 12.0234 5.62988 11.5499C8.7777 10.0664 12.6495 8.55144 16.0806 7.13114Z" fill="white"/>
</svg>
