<svg width="24" height="24" viewBox="0 0 24 24" fill="none" xmlns="http://www.w3.org/2000/svg">
<circle cx="12" cy="12" r="12" fill="#BD0318"/>
<g clip-path="url(#clip0_2136_9354)">
<path fill-rule="evenodd" clip-rule="evenodd" d="M8.73056 17.7232V9.999H6.16348V17.7232H8.73056V17.7232ZM7.44729 8.94478C8.3422 8.94478 8.89966 8.35116 8.89966 7.60995C8.88274 6.85226 8.3422 6.27539 7.46407 6.27539C6.5858 6.27541 6.01172 6.85228 6.01172 7.60997C6.01172 8.35118 6.56887 8.9448 7.43039 8.9448L7.44729 8.94478ZM10.1513 17.7232C10.1513 17.7232 10.185 10.7237 10.1513 9.99902H12.7188V11.1192H12.7018C13.0394 10.5921 13.6476 9.81764 15.0324 9.81764C16.7219 9.81764 17.9883 10.9216 17.9883 13.2942V17.7232H15.4212V13.591C15.4212 12.5527 15.0498 11.8442 14.1205 11.8442C13.4114 11.8442 12.9888 12.3218 12.8033 12.7835C12.7354 12.9479 12.7188 13.1787 12.7188 13.4096V17.7232H10.1513Z" fill="white"/>
</g>
<defs>
<clipPath id="clip0_2136_9354">
<rect width="12" height="12" fill="white" transform="translate(6 6)"/>
</clipPath>
</defs>
</svg>
