<svg width="24" height="24" viewBox="0 0 24 24" fill="none" xmlns="http://www.w3.org/2000/svg">
<circle cx="12" cy="12" r="12" fill="#BD0318"/>
<g clip-path="url(#clip0_2136_9350)">
<path d="M16.7715 10.3022C16.7785 10.4077 16.7785 10.5137 16.7785 10.6202C16.7785 13.8737 14.3015 17.6252 9.7735 17.6252V17.6232C8.436 17.6252 7.126 17.2422 6 16.5197C6.1945 16.5432 6.39 16.5547 6.586 16.5552C7.695 16.5562 8.772 16.1842 9.6435 15.4992C8.59 15.4792 7.666 14.7922 7.3435 13.7892C7.7125 13.8602 8.0925 13.8457 8.455 13.7472C7.306 13.5152 6.48 12.5057 6.48 11.3337C6.48 11.3232 6.48 11.3127 6.48 11.3027C6.8225 11.4937 7.2055 11.5992 7.5975 11.6107C6.5155 10.8882 6.1815 9.44917 6.835 8.32417C8.085 9.86217 9.9295 10.7972 11.909 10.8967C11.7105 10.0417 11.982 9.14567 12.621 8.54417C13.6125 7.61167 15.172 7.65967 16.1045 8.65117C16.656 8.54267 17.1845 8.34017 17.668 8.05367C17.484 8.62367 17.0995 9.10767 16.5855 9.41567C17.074 9.35717 17.5505 9.22667 18 9.02767C17.6695 9.52217 17.2535 9.95367 16.7715 10.3022Z" fill="white"/>
</g>
<defs>
<clipPath id="clip0_2136_9350">
<rect width="12" height="12" fill="white" transform="translate(6 6.75)"/>
</clipPath>
</defs>
</svg>
