<?xml version="1.0" encoding="UTF-8" standalone="no"?>
<!-- Created with Inkscape (http://www.inkscape.org/) -->

<svg
   version="1.1"
   id="svg2"
   width="18.666668"
   height="18.666668"
   viewBox="0 0 18.666668 18.666668"
   xmlns="http://www.w3.org/2000/svg"
   xmlns:svg="http://www.w3.org/2000/svg">
  <defs
     id="defs6">
    <clipPath
       clipPathUnits="userSpaceOnUse"
       id="clipPath16">
      <path
         d="m 8.90866,6.999772 c 0,-1.053459 -0.853996,-1.907455 -1.907455,-1.907455 -1.053458,0 -1.907455,0.853996 -1.907455,1.907455 0,1.053458 0.853997,1.907455 1.907455,1.907455 1.053459,0 1.907455,-0.853997 1.907455,-1.907455 z"
         clip-rule="evenodd"
         id="path14" />
    </clipPath>
    <clipPath
       clipPathUnits="userSpaceOnUse"
       id="clipPath28">
      <path
         d="M 0,0 H 14 V 14 H 0 Z"
         id="path26" />
    </clipPath>
    <clipPath
       clipPathUnits="userSpaceOnUse"
       id="clipPath32">
      <path
         d="m 10.359343,7.000016 c 0,-1.855323 -1.504036,-3.359359 -3.359359,-3.359359 -1.855323,0 -3.359359,1.504036 -3.359359,3.359359 0,1.855323 1.504036,3.359359 3.359359,3.359359 1.855323,0 3.359359,-1.504036 3.359359,-3.359359 z"
         clip-rule="evenodd"
         id="path30" />
    </clipPath>
    <clipPath
       clipPathUnits="userSpaceOnUse"
       id="clipPath52">
      <path
         d="M 0,0 H 14 V 14 H 0 Z"
         id="path50" />
    </clipPath>
    <clipPath
       clipPathUnits="userSpaceOnUse"
       id="clipPath56">
      <path
         d="m 12.181444,7.000098 c 0,-2.862226 -2.320292,-5.182519 -5.182519,-5.182519 -2.862226,0 -5.182519,2.320293 -5.182519,5.182519 0,2.862227 2.320293,5.182519 5.182519,5.182519 2.862227,0 5.182519,-2.320292 5.182519,-5.182519 z"
         clip-rule="evenodd"
         id="path54" />
    </clipPath>
    <clipPath
       clipPathUnits="userSpaceOnUse"
       id="clipPath76">
      <path
         d="M 0,0 H 14 V 14 H 0 Z"
         id="path74" />
    </clipPath>
    <clipPath
       clipPathUnits="userSpaceOnUse"
       id="clipPath80">
      <path
         d="M 14,7 C 14,3.134007 10.865993,0 7,0 3.134007,0 0,3.134007 0,7 c 0,3.865993 3.134007,7 7,7 3.865993,0 7,-3.134007 7,-7 z"
         clip-rule="evenodd"
         id="path78" />
    </clipPath>
  </defs>
  <g
     id="g8"
     transform="matrix(1.3333333,0,0,-1.3333333,0,18.666667)">
    <g
       id="g10">
      <g
         id="g12"
         clip-path="url(#clipPath16)">
        <g
           id="g18"
           transform="translate(5.09375,5.092285)">
          <path
             d="m 4.31491,1.907486 c 0,0.32551 -0.064877,0.637127 -0.182876,0.921678 L 3.208308,2.44611 C 3.276837,2.280854 3.31491,2.099247 3.31491,1.907486 Z M 2.829133,4.132066 C 2.544581,4.250064 2.232964,4.314941 1.907455,4.314941 v -1 c 0.191761,0 0.373368,-0.038072 0.538624,-0.106601 z M 1.907455,4.314941 c -0.325509,0 -0.637126,-0.064877 -0.921678,-0.182875 L 1.368831,3.20834 C 1.534088,3.276869 1.715695,3.314941 1.907455,3.314941 Z M -0.317124,2.829164 C -0.435123,2.544613 -0.5,2.232996 -0.5,1.907486 h 1 c 0,0.191761 0.038073,0.373368 0.106602,0.538624 z M -0.5,1.907486 c 0,-0.325509 0.064877,-0.637126 0.182876,-0.921677 L 0.606602,1.368863 C 0.538073,1.534119 0.5,1.715726 0.5,1.907486 Z m 1.485778,-2.224579 c 0.284551,-0.117999 0.596168,-0.182876 0.921677,-0.182876 v 1 c -0.19176,0 -0.373367,0.038073 -0.538623,0.106602 z m 0.921677,-0.182876 c 0.325509,0 0.637127,0.064878 0.921678,0.182876 L 2.446079,0.606633 C 2.280823,0.538104 2.099216,0.500031 1.907455,0.500031 Z m 2.22458,1.485778 C 4.250033,1.27036 4.31491,1.581977 4.31491,1.907486 h -1 c 0,-0.19176 -0.038072,-0.373367 -0.106602,-0.538623 z M 4.81491,1.907486 c 0,0.392384 -0.078279,0.769006 -0.221013,1.113205 L 2.746445,2.254583 C 2.79024,2.148974 2.81491,2.032372 2.81491,1.907486 Z M 3.020659,4.593929 C 2.676461,4.736662 2.299839,4.814941 1.907455,4.814941 v -2 c 0.124886,0 0.241488,-0.02467 0.347097,-0.068464 z M 1.907455,4.814941 c -0.392383,0 -0.769006,-0.078279 -1.113205,-0.221012 L 1.560358,2.746477 C 1.665967,2.790271 1.782569,2.814941 1.907455,2.814941 Z M -0.778987,3.020691 C -0.921721,2.676492 -1,2.29987 -1,1.907486 H 1 C 1,2.032372 1.02467,2.148974 1.068465,2.254583 Z M -1,1.907486 C -1,1.515103 -0.921721,1.13848 -0.778987,0.794282 L 1.068465,1.56039 C 1.024671,1.665998 1,1.7826 1,1.907486 Z M 0.794251,-0.778956 C 1.138449,-0.92169 1.515072,-0.999969 1.907455,-0.999969 v 2 c -0.124886,0 -0.241488,0.024671 -0.347097,0.068465 z m 1.113204,-0.221013 c 0.392384,0 0.769006,0.078279 1.113205,0.221013 L 2.254552,1.068496 C 2.148943,1.024702 2.032341,1.000031 1.907455,1.000031 Z M 4.593897,0.794282 C 4.736631,1.138481 4.81491,1.515103 4.81491,1.907486 h -2 C 2.81491,1.7826 2.79024,1.665998 2.746445,1.56039 Z"
             style="fill:#bd0318;fill-opacity:1;fill-rule:nonzero;stroke:none"
             id="path20" />
        </g>
      </g>
    </g>
    <g
       id="g22">
      <g
         id="g24" />
      <g
         id="g44">
        <g
           clip-path="url(#clipPath28)"
           opacity="0.6"
           id="g42">
          <g
             id="g40">
            <g
               clip-path="url(#clipPath32)"
               id="g38">
              <g
                 transform="translate(3.640625,3.640625)"
                 id="g36">
                <path
                   d="m 7.218718,3.359391 c 0,0.522375 -0.104059,1.021707 -0.293047,1.477449 L 6.001945,4.453786 C 6.141464,4.117339 6.218718,3.748018 6.218718,3.359391 Z M 4.836807,6.925703 C 4.381065,7.114692 3.881734,7.21875 3.359359,7.21875 v -1 c 0.388626,0 0.757948,-0.077254 1.094394,-0.216773 z M 3.359359,7.21875 C 2.836984,7.21875 2.337652,7.114692 1.88191,6.925703 L 2.264964,6.001977 C 2.601411,6.141496 2.970732,6.21875 3.359359,6.21875 Z M -0.206953,4.83684 C -0.395942,4.381098 -0.5,3.881766 -0.5,3.359391 h 1 c 0,0.388627 0.077254,0.757948 0.216773,1.094395 z M -0.5,3.359391 c 0,-0.522375 0.104058,-1.021707 0.293047,-1.477449 L 0.716773,2.264996 C 0.577254,2.601443 0.5,2.970765 0.5,3.359391 Z m 2.38191,-3.566312 c 0.455742,-0.188988 0.955074,-0.293047 1.477449,-0.293047 v 1 c -0.388627,0 -0.757948,0.077254 -1.094395,0.216773 z m 1.477449,-0.293047 c 0.522375,0 1.021707,0.104059 1.477449,0.293047 L 4.453754,0.716805 C 4.117307,0.577286 3.747985,0.500032 3.359359,0.500032 Z m 3.566312,2.381911 c 0.188988,0.455742 0.293047,0.955073 0.293047,1.477448 h -1 c 0,-0.388626 -0.077254,-0.757948 -0.216773,-1.094394 z m 0.793047,1.477448 c 0,0.58925 -0.117461,1.153587 -0.331184,1.668976 L 5.540082,4.262259 C 5.654866,3.98546 5.718718,3.681143 5.718718,3.359391 Z M 5.028334,7.387566 C 4.512945,7.60129 3.948608,7.71875 3.359359,7.71875 v -2 c 0.321752,0 0.626068,-0.063852 0.902868,-0.178636 z M 3.359359,7.71875 c -0.58925,0 -1.153587,-0.117461 -1.668976,-0.331184 L 2.456491,5.540114 C 2.73329,5.654898 3.037607,5.71875 3.359359,5.71875 Z M -0.668816,5.028367 C -0.88254,4.512978 -1,3.94864 -1,3.359391 H 1 C 1,3.681143 1.063852,3.98546 1.178636,4.262259 Z M -1,3.359391 C -1,2.770142 -0.882539,2.205805 -0.668816,1.690415 L 1.178636,2.456523 C 1.063852,2.733323 1,3.037639 1,3.359391 Z M 1.690384,-0.668784 C 2.205773,-0.882507 2.77011,-0.999968 3.359359,-0.999968 v 2 c -0.321752,0 -0.626069,0.063852 -0.902868,0.178636 z m 1.668975,-0.331184 c 0.589249,0 1.153586,0.117461 1.668976,0.331184 L 4.262227,1.178668 C 3.985427,1.063884 3.681111,1.000032 3.359359,1.000032 Z m 4.028175,2.690384 c 0.213723,0.515389 0.331184,1.079726 0.331184,1.668975 h -2 c 0,-0.321752 -0.063852,-0.626068 -0.178636,-0.902868 z"
                   style="fill:#bd0318;fill-opacity:1;fill-rule:nonzero;stroke:none"
                   id="path34" />
              </g>
            </g>
          </g>
        </g>
      </g>
    </g>
    <g
       id="g46">
      <g
         id="g48" />
      <g
         id="g68">
        <g
           clip-path="url(#clipPath52)"
           opacity="0.4"
           id="g66">
          <g
             id="g64">
            <g
               clip-path="url(#clipPath56)"
               id="g62">
              <g
                 transform="translate(1.816406,1.817383)"
                 id="g60">
                <path
                   d="m 10.865038,5.182715 c 0,0.76958 -0.153258,1.504626 -0.431389,2.175332 L 9.509923,6.974994 C 9.738584,6.423582 9.865038,5.818547 9.865038,5.182715 Z m -3.507186,5.25113 c -0.670707,0.278131 -1.405753,0.431389 -2.175333,0.431389 v -1 c 0.635832,0 1.240867,-0.126454 1.792279,-0.355116 z m -2.175333,0.431389 c -0.76958,0 -1.504626,-0.153258 -2.175332,-0.431388 L 3.390241,9.510119 C 3.941652,9.73878 4.546688,9.865234 5.182519,9.865234 Z M -0.06861,7.358048 C -0.346741,6.687342 -0.5,5.952296 -0.5,5.182715 h 1 c 0,0.635832 0.126454,1.240868 0.355115,1.792279 z M -0.5,5.182715 c 0,-0.769579 0.153258,-1.504625 0.431389,-2.175332 L 0.855115,3.390437 C 0.626454,3.941849 0.5,4.546884 0.5,5.182715 Z m 3.507186,-5.251129 c 0.670707,-0.278131 1.405753,-0.43139 2.175333,-0.43139 v 1 c -0.635832,0 -1.240867,0.126455 -1.792279,0.355116 z m 2.175333,-0.43139 c 0.76958,0 1.504626,0.153259 2.175332,0.431389 L 6.974797,0.855311 C 6.423386,0.626651 5.81835,0.500196 5.182519,0.500196 Z m 5.251129,3.507187 c 0.278132,0.670706 0.43139,1.405752 0.43139,2.175332 h -1 c 0,-0.635831 -0.126454,-1.240867 -0.355116,-1.792278 z m 0.93139,2.175332 c 0,0.836455 -0.16666,1.636506 -0.469526,2.366859 L 9.048059,6.783467 C 9.251986,6.291703 9.365038,5.751672 9.365038,5.182715 Z m -3.815659,5.712993 c -0.730354,0.302866 -1.530405,0.469526 -2.36686,0.469526 v -2 c 0.568957,0 1.108988,-0.113052 1.600752,-0.316978 z m -2.36686,0.469526 c -0.836454,0 -1.636505,-0.16666 -2.366859,-0.469526 L 3.581768,9.048256 C 4.073532,9.252182 4.613562,9.365234 5.182519,9.365234 Z M -0.530473,7.549575 C -0.833339,6.819221 -1,6.01917 -1,5.182715 H 1 C 1,5.751673 1.113052,6.291703 1.316978,6.783467 Z M -1,5.182715 C -1,4.346261 -0.833339,3.54621 -0.530474,2.815856 L 1.316978,3.581964 C 1.113052,4.073728 1,4.613759 1,5.182715 Z m 3.815659,-5.712992 c 0.730354,-0.302866 1.530405,-0.469527 2.36686,-0.469527 v 2 c -0.568957,0 -1.108988,0.113053 -1.600752,0.316979 z m 2.36686,-0.469527 c 0.836454,0 1.636505,0.166661 2.366859,0.469527 L 6.78327,1.317175 C 6.291506,1.113249 5.751476,1.000196 5.182519,1.000196 Z m 5.712993,3.81566 c 0.302866,0.730354 0.469526,1.530405 0.469526,2.366859 h -2 c 0,-0.568957 -0.113052,-1.108987 -0.316979,-1.600751 z"
                   style="fill:#bd0318;fill-opacity:1;fill-rule:nonzero;stroke:none"
                   id="path58" />
              </g>
            </g>
          </g>
        </g>
      </g>
    </g>
    <g
       id="g70">
      <g
         id="g72" />
      <g
         id="g92">
        <g
           clip-path="url(#clipPath76)"
           opacity="0.1"
           id="g90">
          <g
             id="g88">
            <g
               clip-path="url(#clipPath80)"
               id="g86">
              <g
                 id="g84">
                <path
                   d="m 14.5,7 c 0,1.016015 -0.202305,1.98604 -0.569301,2.871042 L 13.006973,9.487988 C 13.324499,8.722281 13.5,7.882267 13.5,7 Z M 9.871041,13.930699 C 8.98604,14.297695 8.016015,14.5 7,14.5 v -1 c 0.882267,0 1.722281,-0.175501 2.487988,-0.493027 z M 7,14.5 C 5.983985,14.5 5.013959,14.297695 4.128958,13.930699 L 4.512012,13.006973 C 5.277719,13.324499 6.117733,13.5 7,13.5 Z M 0.0693,9.871041 C -0.297695,8.98604 -0.5,8.016015 -0.5,7 h 1 c 0,0.882267 0.175501,1.722281 0.493026,2.487988 z M -0.5,7 c 0,-1.016015 0.202305,-1.98604 0.569301,-2.871042 L 0.993027,4.512012 C 0.675501,5.277719 0.5,6.117733 0.5,7 Z M 4.128959,0.069301 C 5.01396,-0.297695 5.983985,-0.5 7,-0.5 v 1 C 6.117733,0.5 5.277719,0.675501 4.512012,0.993027 Z M 7,-0.5 c 1.016015,0 1.98604,0.202305 2.871042,0.569301 L 9.487988,0.993027 C 8.722281,0.675501 7.882267,0.5 7,0.5 Z m 6.930699,4.628959 C 14.297695,5.01396 14.5,5.983985 14.5,7 h -1 C 13.5,6.117733 13.324499,5.277719 13.006973,4.512012 Z M 15,7 c 0,1.08289 -0.215708,2.11792 -0.607438,3.062569 L 12.545111,9.296461 C 12.837901,8.590403 13,7.815392 13,7 Z m -4.937432,7.392563 C 9.117919,14.784292 8.08289,15 7,15 v -2 c 0.815392,0 1.590402,-0.162099 2.29646,-0.454889 z M 7,15 C 5.91711,15 4.88208,14.784292 3.937431,14.392562 L 4.703539,12.545111 C 5.409598,12.837901 6.184608,13 7,13 Z M -0.392563,10.062569 C -0.784293,9.11792 -1,8.08289 -1,7 H 1 C 1,7.815392 1.162099,8.590402 1.45489,9.296461 Z M -1,7 C -1,5.91711 -0.784293,4.88208 -0.392562,3.937431 L 1.45489,4.703539 C 1.162099,5.409597 1,6.184608 1,7 Z M 3.937432,-0.392563 C 4.882081,-0.784292 5.917111,-1 7,-1 V 1 C 6.184608,1 5.409598,1.162099 4.703539,1.454889 Z M 7,-1 c 1.08289,0 2.11792,0.215708 3.062569,0.607438 L 9.296461,1.454889 C 8.590403,1.162099 7.815392,1 7,1 Z m 7.392563,4.937432 C 14.784292,4.882081 15,5.91711 15,7 H 13 C 13,6.184608 12.837901,5.409598 12.545111,4.70354 Z"
                   style="fill:#bd0318;fill-opacity:1;fill-rule:nonzero;stroke:none"
                   id="path82" />
              </g>
            </g>
          </g>
        </g>
      </g>
    </g>
  </g>
</svg>
