<?xml version="1.0" encoding="UTF-8" standalone="no"?>
<!-- Created with Inkscape (http://www.inkscape.org/) -->

<svg
   version="1.1"
   id="svg2"
   width="72"
   height="72"
   viewBox="0 0 72 72"
   xmlns="http://www.w3.org/2000/svg"
   xmlns:svg="http://www.w3.org/2000/svg">
  <defs
     id="defs6">
    <clipPath
       clipPathUnits="userSpaceOnUse"
       id="clipPath16">
      <path
         d="m 34.359184,26.999851 c 0,-4.063339 -3.293987,-7.357326 -7.357326,-7.357326 -4.063339,0 -7.357327,3.293987 -7.357327,7.357326 0,4.063339 3.293988,7.357327 7.357327,7.357327 4.063339,0 7.357326,-3.293988 7.357326,-7.357327 z"
         clip-rule="evenodd"
         id="path14" />
    </clipPath>
    <clipPath
       clipPathUnits="userSpaceOnUse"
       id="clipPath28">
      <path
         d="M 0,0 H 54 V 54 H 0 Z"
         id="path26" />
    </clipPath>
    <clipPath
       clipPathUnits="userSpaceOnUse"
       id="clipPath32">
      <path
         d="m 39.958023,26.999992 c 0,-7.156242 -5.801285,-12.957527 -12.957527,-12.957527 -7.156246,0 -12.957527,5.801285 -12.957527,12.957527 0,7.156247 5.801281,12.957528 12.957527,12.957528 7.156242,0 12.957527,-5.801281 12.957527,-12.957528 z"
         clip-rule="evenodd"
         id="path30" />
    </clipPath>
    <clipPath
       clipPathUnits="userSpaceOnUse"
       id="clipPath52">
      <path
         d="M 0,0 H 54 V 54 H 0 Z"
         id="path50" />
    </clipPath>
    <clipPath
       clipPathUnits="userSpaceOnUse"
       id="clipPath56">
      <path
         d="m 46.99115,27.000275 c 0,-11.040017 -8.949699,-19.989716 -19.989716,-19.989716 -11.040015,0 -19.989715,8.949699 -19.989715,19.989716 0,11.040016 8.9497,19.989715 19.989715,19.989715 11.040017,0 19.989716,-8.949699 19.989716,-19.989715 z"
         clip-rule="evenodd"
         id="path54" />
    </clipPath>
    <clipPath
       clipPathUnits="userSpaceOnUse"
       id="clipPath76">
      <path
         d="M 0,0 H 54 V 54 H 0 Z"
         id="path74" />
    </clipPath>
    <clipPath
       clipPathUnits="userSpaceOnUse"
       id="clipPath80">
      <path
         d="M 54,27 C 54,12.08831 41.91169,0 27,0 12.088312,0 0,12.08831 0,27 0,41.91169 12.088312,54 27,54 41.91169,54 54,41.91169 54,27 Z"
         clip-rule="evenodd"
         id="path78" />
    </clipPath>
  </defs>
  <g
     id="g8"
     transform="matrix(1.3333333,0,0,-1.3333333,0,72)">
    <g
       id="g10">
      <g
         id="g12"
         clip-path="url(#clipPath16)">
        <g
           id="g18"
           transform="translate(19.644531,19.642578)">
          <path
             d="m 15.214653,7.357273 c 0,1.064466 -0.211948,2.080689 -0.596415,3.007822 L 13.694512,9.982041 c 0.334998,-0.807837 0.520141,-1.69405 0.520141,-2.624768 z m -4.849504,7.260912 C 9.438016,15.002651 8.421792,15.2146 7.357327,15.2146 v -1 c 0.930716,0 1.816929,-0.185144 2.624768,-0.520141 z M 7.357327,15.2146 c -1.064466,0 -2.080689,-0.211949 -3.007823,-0.596415 L 4.732558,13.694459 C 5.540396,14.029456 6.42661,14.2146 7.357327,14.2146 Z M 0.096415,10.365095 C -0.288052,9.437962 -0.5,8.421739 -0.5,7.357273 h 1 c 0,0.930718 0.185144,1.816931 0.520141,2.624768 z M -0.5,7.357273 c 0,-1.064465 0.211948,-2.080689 0.596415,-3.007822 L 1.020141,4.732505 C 0.685144,5.540343 0.5,6.426557 0.5,7.357273 Z M 4.349504,0.096361 c 0.927134,-0.384466 1.943357,-0.596414 3.007823,-0.596414 v 1 c -0.930717,0 -1.816931,0.185143 -2.624769,0.52014 z m 3.007823,-0.596414 c 1.064465,0 2.080689,0.211948 3.007822,0.596414 L 9.982095,1.020087 C 9.174256,0.68509 8.288043,0.499947 7.357327,0.499947 Z m 7.260911,4.849504 c 0.384467,0.927133 0.596415,1.943357 0.596415,3.007822 h -1 c 0,-0.930716 -0.185143,-1.81693 -0.520141,-2.624768 z m 1.096415,3.007822 c 0,1.13134 -0.22535,2.212568 -0.634552,3.199349 L 13.232649,9.790514 c 0.310263,-0.74819 0.482004,-1.569399 0.482004,-2.433241 z m -5.157977,7.722775 C 9.569895,15.489249 8.488667,15.7146 7.357327,15.7146 v -2 c 0.863842,0 1.68505,-0.171742 2.43324,-0.482005 z M 7.357327,15.7146 c -1.131341,0 -2.212569,-0.225351 -3.199349,-0.634552 L 4.924085,13.232595 C 5.672276,13.542858 6.493484,13.7146 7.357327,13.7146 Z M -0.365448,10.556622 C -0.77465,9.569841 -1,8.488613 -1,7.357273 H 1 C 1,8.221115 1.171742,9.042324 1.482004,9.790514 Z M -1,7.357273 c 0,-1.13134 0.22535,-2.212568 0.634552,-3.199348 L 1.482004,4.924032 C 1.171742,5.672222 1,6.49343 1,7.357273 Z m 5.157978,-7.722774 c 0.98678,-0.409202 2.068008,-0.634552 3.199349,-0.634552 v 2 c -0.863843,0 -1.685051,0.171741 -2.433242,0.482004 z m 3.199349,-0.634552 c 1.13134,0 2.212568,0.22535 3.199348,0.634552 L 9.790567,1.481951 C 9.042377,1.171688 8.221169,0.999947 7.357327,0.999947 Z m 7.722774,5.157977 c 0.409202,0.986781 0.634552,2.068009 0.634552,3.199349 h -2 c 0,-0.863843 -0.171741,-1.685051 -0.482004,-2.433241 z"
             style="fill:#bd0318;fill-opacity:1;fill-rule:nonzero;stroke:none"
             id="path20" />
        </g>
      </g>
    </g>
    <g
       id="g22">
      <g
         id="g24" />
      <g
         id="g44">
        <g
           clip-path="url(#clipPath28)"
           opacity="0.6"
           id="g42">
          <g
             id="g40">
            <g
               clip-path="url(#clipPath32)"
               id="g38">
              <g
                 transform="translate(14.042969,14.04248)"
                 id="g36">
                <path
                   d="m 26.415052,12.957513 c 0,1.823805 -0.363075,3.564071 -1.02136,5.151511 l -0.923727,-0.383055 c 0.608816,-1.468145 0.945087,-3.078399 0.945087,-4.768456 z m -8.306015,12.436164 c -1.587438,0.658287 -3.327705,1.021362 -5.151511,1.021362 v -1 c 1.690057,0 3.300313,-0.336271 4.768459,-0.945087 z m -5.151511,1.021362 c -1.823805,0 -3.56407,-0.363075 -5.15151,-1.02136 L 8.18907,24.469952 c 1.468144,0.608816 3.078399,0.945087 4.768456,0.945087 z M 0.521361,18.109024 C -0.136924,16.521584 -0.5,14.781319 -0.5,12.957513 h 1 c 0,1.690057 0.336272,3.300313 0.945087,4.768458 z M -0.5,12.957513 c 0,-1.823805 0.363076,-3.564071 1.021361,-5.151511 L 1.445087,8.189056 C 0.836272,9.657202 0.5,11.267456 0.5,12.957513 Z M 7.806015,0.521349 c 1.58744,-0.658287 3.327705,-1.021362 5.151511,-1.021362 v 1 c -1.690057,0 -3.300313,0.336271 -4.768457,0.945087 z m 5.151511,-1.021362 c 1.823805,0 3.564071,0.363075 5.151511,1.02136 L 17.725983,1.445074 C 16.257837,0.836258 14.647583,0.499987 12.957526,0.499987 Z M 25.39369,7.806002 c 0.658287,1.587438 1.021362,3.327705 1.021362,5.151511 h -1 c 0,-1.690057 -0.336271,-3.300313 -0.945087,-4.768459 z m 1.521362,5.151511 c 0,1.890679 -0.376478,3.69595 -1.059497,5.343037 l -1.847453,-0.766107 c 0.58408,-1.408497 0.90695,-2.953748 0.90695,-4.57693 z m -8.614486,12.898028 c -1.647089,0.68302 -3.452359,1.059498 -5.34304,1.059498 v -2 c 1.623183,0 3.168433,-0.32287 4.57693,-0.90695 z m -5.34304,1.059498 c -1.890679,0 -3.69595,-0.376478 -5.343037,-1.059498 l 0.766108,-1.847452 c 1.408497,0.58408 2.953747,0.90695 4.576929,0.90695 z M 0.059499,18.300552 C -0.623522,16.653465 -1,14.848193 -1,12.957513 h 2 c 0,1.623183 0.32287,3.168433 0.90695,4.57693 z M -1,12.957513 c 0,-1.89068 0.376478,-3.695951 1.059498,-5.343038 L 1.90695,8.380583 C 1.322869,9.78908 1,11.334331 1,12.957513 Z M 7.614488,0.059484 c 1.647087,-0.683019 3.452358,-1.059497 5.343038,-1.059497 v 2 c -1.623183,0 -3.168433,0.32287 -4.576931,0.90695 z m 5.343038,-1.059497 c 1.89068,0 3.695951,0.376478 5.343038,1.059497 l -0.766108,1.847453 c -1.408497,-0.58408 -2.953747,-0.90695 -4.57693,-0.90695 z m 12.898029,8.614486 c 0.683019,1.647089 1.059497,3.45236 1.059497,5.34304 h -2 c 0,-1.623183 -0.32287,-3.168433 -0.90695,-4.57693 z"
                   style="fill:#bd0318;fill-opacity:1;fill-rule:nonzero;stroke:none"
                   id="path34" />
              </g>
            </g>
          </g>
        </g>
      </g>
    </g>
    <g
       id="g46">
      <g
         id="g48" />
      <g
         id="g68">
        <g
           clip-path="url(#clipPath52)"
           opacity="0.4"
           id="g66">
          <g
             id="g64">
            <g
               clip-path="url(#clipPath56)"
               id="g62">
              <g
                 transform="translate(7.011719,7.010498)"
                 id="g60">
                <path
                   d="m 40.479431,19.989777 c 0,1.367773 -0.13409,2.704723 -0.389992,3.998268 l -0.980987,-0.194069 c 0.243324,-1.229973 0.370979,-2.50193 0.370979,-3.804199 z m -3.451477,11.384761 c -1.495769,2.234215 -3.419266,4.157711 -5.653482,5.653481 l -0.556319,-0.830967 c 2.125595,-1.423054 3.95578,-3.253239 5.378834,-5.378834 z M 23.98798,40.0895 c -1.293543,0.255902 -2.630491,0.389992 -3.998264,0.389992 v -1 c 1.302267,0 2.574224,-0.127655 3.804195,-0.370979 z m -3.998264,0.389992 c -1.367773,0 -2.704724,-0.13409 -3.998268,-0.389992 l 0.194068,-0.980987 c 1.229973,0.243324 2.501931,0.370979 3.8042,0.370979 z M 8.604955,37.028015 C 6.370738,35.532246 4.447244,33.608749 2.951473,31.374533 l 0.830969,-0.556319 c 1.423051,2.125596 3.253236,3.95578 5.378832,5.378834 z M -0.110009,23.988041 C -0.365911,22.694498 -0.5,21.35755 -0.5,19.989777 h 1 c 0,1.302267 0.127653,2.574224 0.370979,3.804195 z M -0.5,19.989777 c 0,-1.367773 0.134089,-2.704724 0.389991,-3.998269 l 0.980988,0.194069 C 0.627654,17.41555 0.5,18.687508 0.5,19.989777 Z M 2.951477,8.605015 C 4.447248,6.3708 6.370742,4.447304 8.604959,2.951534 l 0.55632,0.830967 C 7.035682,5.205555 5.205497,7.03574 3.782445,9.161335 Z m 13.039974,-8.714962 c 1.293543,-0.255902 2.630492,-0.389992 3.998265,-0.389992 v 1 c -1.302267,0 -2.574225,0.127655 -3.804196,0.370979 z m 3.998265,-0.389992 c 1.367773,0 2.704723,0.13409 3.998268,0.389992 L 23.793915,0.87104 C 22.563942,0.627716 21.291985,0.500061 19.989716,0.500061 Z m 11.384761,3.451477 c 2.234215,1.49577 4.157711,3.419266 5.653481,5.653483 L 36.196991,9.161339 C 34.773937,7.035744 32.943752,5.205559 30.818157,3.782505 Z m 8.714962,13.039974 c 0.255902,1.293543 0.389992,2.630492 0.389992,3.998265 h -1 c 0,-1.302267 -0.127655,-2.574225 -0.370979,-3.804196 z m 0.889992,3.998265 c 0,1.400526 -0.137306,2.769973 -0.399498,4.095302 l -1.961975,-0.388138 c 0.237038,-1.198188 0.361473,-2.437648 0.361473,-3.707164 z m -3.535992,11.662922 c -1.532131,2.288524 -3.502281,4.258674 -5.790807,5.790805 l -1.112639,-1.661937 c 2.071286,-1.386692 3.854817,-3.170224 5.241509,-5.241509 z m -13.358425,8.927295 c -1.325327,0.262192 -2.694774,0.399498 -4.095298,0.399498 v -2 c 1.269514,0 2.508974,-0.124435 3.707161,-0.361473 z m -4.095298,0.399498 c -1.400526,0 -2.769974,-0.137306 -4.095302,-0.399498 l 0.388137,-1.961975 c 1.198189,0.237038 2.437649,0.361473 3.707165,0.361473 z M 8.326795,37.443501 C 6.038268,35.911369 4.06812,33.941219 2.535989,31.652693 l 1.661937,-1.112639 c 1.386692,2.071286 3.170222,3.854817 5.241508,5.241509 z M -0.600503,24.085075 C -0.862693,22.759748 -1,21.390301 -1,19.989777 h 2 c 0,1.269514 0.124435,2.508974 0.361473,3.707161 z M -1,19.989777 c 0,-1.400526 0.137307,-2.769974 0.399497,-4.095303 l 1.961976,0.388138 C 1.124436,17.480801 1,18.720261 1,19.989777 Z M 2.535992,8.326855 C 4.068123,6.03833 6.038272,4.06818 8.326799,2.536049 L 9.439438,4.197987 C 7.368152,5.584679 5.584621,7.36821 4.197929,9.439495 Z m 13.358425,-8.927296 c 1.325327,-0.262192 2.694774,-0.399498 4.095299,-0.399498 v 2 c -1.269515,0 -2.508974,0.124435 -3.707161,0.361473 z m 4.095299,-0.399498 c 1.400526,0 2.769973,0.137306 4.095302,0.399498 L 23.69688,1.361534 C 22.498692,1.124496 21.259232,1.000061 19.989716,1.000061 Z m 11.662921,3.535992 c 2.288525,1.532131 4.258675,3.502281 5.790806,5.790807 L 35.781506,9.439499 C 34.394814,7.368214 32.611282,5.584682 30.539997,4.19799 Z m 8.927296,13.358425 c 0.262192,1.325327 0.399498,2.694774 0.399498,4.095299 h -2 c 0,-1.269514 -0.124435,-2.508974 -0.361473,-3.707161 z"
                   style="fill:#bd0318;fill-opacity:1;fill-rule:nonzero;stroke:none"
                   id="path58" />
              </g>
            </g>
          </g>
        </g>
      </g>
    </g>
    <g
       id="g70">
      <g
         id="g72" />
      <g
         id="g92">
        <g
           clip-path="url(#clipPath76)"
           opacity="0.1"
           id="g90">
          <g
             id="g88">
            <g
               clip-path="url(#clipPath80)"
               id="g86">
              <g
                 id="g84">
                <path
                   d="m 54.5,27 c 0,1.216894 -0.07907,2.415571 -0.23241,3.591124 l -0.9916,-0.129345 C 53.423748,29.329002 53.5,28.173531 53.5,27 Z m -2.08691,10.526798 c -0.927216,2.235955 -2.140793,4.322872 -3.594845,6.215039 l -0.792919,-0.60933 c 1.401417,-1.823669 2.570762,-3.834648 3.464039,-5.988762 z m -8.671253,11.291443 c -1.892167,1.454056 -3.979084,2.667633 -6.215039,3.594849 l -0.383053,-0.923725 c 2.154114,-0.893277 4.165093,-2.062622 5.988766,-3.464043 z M 30.591122,54.26759 C 29.415569,54.420929 28.216894,54.5 27,54.5 v -1 c 1.173531,0 2.329,-0.07625 3.461777,-0.22401 z M 27,54.5 c -1.216894,0 -2.415571,-0.07907 -3.591124,-0.23241 l 0.129345,-0.9916 C 24.670998,53.423748 25.826469,53.5 27,53.5 Z M 16.473202,52.41309 c -2.235955,-0.927216 -4.322871,-2.140793 -6.215037,-3.594845 l 0.609327,-0.792919 c 1.82367,1.401417 3.83465,2.570762 5.988764,3.464039 z M 5.181757,43.741837 C 3.727703,41.84967 2.514125,39.762756 1.586911,37.526798 l 0.923726,-0.383053 c 0.893276,2.154114 2.062622,4.165093 3.46404,5.988766 z M -0.267588,30.591122 C -0.420929,29.415569 -0.5,28.216894 -0.5,27 h 1 c 0,1.173531 0.07625,2.329 0.224011,3.461777 z M -0.5,27 c 0,-1.216894 0.079071,-2.415571 0.232412,-3.591124 l 0.9916,0.129345 C 0.576251,24.670998 0.5,25.826469 0.5,27 Z M 1.586911,16.473202 c 0.927214,-2.235955 2.140791,-4.322869 3.594845,-6.215035 l 0.792919,0.609326 C 4.573258,12.691162 3.403912,14.702141 2.510637,16.856255 Z M 10.258163,5.181759 C 12.150331,3.727703 14.237246,2.514126 16.473202,1.58691 l 0.383053,0.923729 C 14.702141,3.403912 12.69116,4.573257 10.86749,5.974678 Z M 23.408878,-0.26759 C 24.584431,-0.420929 25.783106,-0.5 27,-0.5 v 1 c -1.173531,0 -2.329,0.076252 -3.461777,0.22401 z M 27,-0.5 c 1.216894,0 2.415571,0.079071 3.591124,0.23241 l -0.129345,0.9916 C 29.329002,0.576252 28.173531,0.5 27,0.5 Z m 10.526798,2.08691 c 2.235955,0.927216 4.322869,2.140793 6.215035,3.594845 L 43.132507,5.974674 C 41.308838,4.573257 39.297859,3.403912 37.143745,2.510635 Z m 11.291443,8.671253 c 1.454056,1.892167 2.667633,3.979084 3.594849,6.215039 l -0.923729,0.383053 C 50.596088,14.702141 49.426743,12.691162 48.025322,10.867489 Z M 54.26759,23.408878 C 54.420929,24.584431 54.5,25.783106 54.5,27 h -1 c 0,-1.173531 -0.07625,-2.329 -0.22401,-3.461777 z M 55,27 c 0,1.238577 -0.08048,2.458857 -0.23661,3.655796 l -1.9832,-0.258692 C 52.925159,29.285717 53,28.151848 53,27 Z m -2.12505,10.718323 c -0.944179,2.276878 -2.179874,4.40176 -3.660247,6.328174 l -1.585839,-1.218654 c 1.375099,-1.789421 2.522332,-3.762432 3.398636,-5.875626 z m -8.828449,11.49638 c -1.926414,1.480373 -4.0513,2.716064 -6.328174,3.660247 l -0.76611,-1.84745 c 2.113194,-0.876308 4.086208,-2.023537 5.87563,-3.398636 z M 30.655794,54.76339 C 29.458855,54.919518 28.238577,55 27,55 v -2 c 1.151848,0 2.285715,-0.07484 3.397104,-0.21981 z M 27,55 c -1.238577,0 -2.458857,-0.08048 -3.655796,-0.23661 l 0.258692,-1.9832 C 24.714283,52.925159 25.848152,53 27,53 Z M 16.281675,52.87495 C 14.004799,51.930771 11.879917,50.695076 9.953502,49.214703 l 1.218653,-1.585839 c 1.789422,1.375099 3.762434,2.522332 5.875628,3.398636 z M 4.785298,44.046501 C 3.304925,42.120087 2.069231,39.995201 1.125048,37.718327 L 2.9725,36.952217 c 0.876307,2.113194 2.023537,4.086208 3.398636,5.87563 z M -0.763388,30.655794 C -0.919519,29.458855 -1,28.238577 -1,27 h 2 c 0,1.151848 0.07484,2.285715 0.219811,3.397104 z M -1,27 c 0,-1.238577 0.080482,-2.458857 0.236612,-3.655796 l 1.983199,0.258692 C 1.07484,24.714283 1,25.848152 1,27 Z M 1.125048,16.281673 c 0.944183,-2.276874 2.179876,-4.401756 3.660248,-6.32817 l 1.585839,1.218654 C 4.996036,12.961578 3.848806,14.934589 2.9725,17.047783 Z M 9.9535,4.785297 C 11.879915,3.304924 14.004798,2.069233 16.281673,1.12505 L 17.047781,2.9725 C 14.934588,3.848808 12.961576,4.996037 11.172153,6.371136 Z M 23.344206,-0.76339 C 24.541145,-0.919518 25.761423,-1 27,-1 V 1 C 25.848152,1 24.714285,1.074841 23.602896,1.21981 Z M 27,-1 c 1.238577,0 2.458857,0.080482 3.655796,0.23661 l -0.258692,1.9832 C 29.285717,1.074841 28.151848,1 27,1 Z m 10.718327,2.12505 c 2.276874,0.944179 4.401756,2.179874 6.32817,3.660247 L 42.827843,6.371136 C 41.038422,4.996037 39.065411,3.848804 36.952217,2.9725 Z m 11.496376,8.828449 c 1.480373,1.926414 2.716064,4.0513 3.660247,6.328174 l -1.84745,0.76611 c -0.876308,-2.113194 -2.023537,-4.086208 -3.398636,-5.87563 z M 54.76339,23.344206 C 54.919518,24.541145 55,25.761423 55,27 h -2 c 0,-1.151848 -0.07484,-2.285715 -0.21981,-3.397104 z"
                   style="fill:#bd0318;fill-opacity:1;fill-rule:nonzero;stroke:none"
                   id="path82" />
              </g>
            </g>
          </g>
        </g>
      </g>
    </g>
  </g>
</svg>
