<svg width="24" height="25" viewBox="0 0 24 25" fill="none" xmlns="http://www.w3.org/2000/svg">
<g clip-path="url(#clip0_2220_3456)">
<path d="M3.99976 0.501953H6.99959C9.20859 0.501953 10.9993 2.29271 10.9993 4.50171V7.50154C10.9993 9.71054 9.20859 11.5013 6.99959 11.5013H3.99976C1.79076 11.5013 0 9.71054 0 7.50154V4.50171C0 2.29271 1.79076 0.501953 3.99976 0.501953Z" fill="#BD0318"/>
<path d="M3.99976 13.5H6.99959C9.20859 13.5 10.9993 15.2908 10.9993 17.4998V20.4996C10.9993 22.7086 9.20859 24.4993 6.99959 24.4993H3.99976C1.79076 24.4993 0 22.7086 0 20.4996V17.4998C0 15.2908 1.79076 13.5 3.99976 13.5Z" fill="#BD0318"/>
<path d="M22.2931 19.6263L20.0002 21.9162V3.08524L22.2931 5.3751C22.6838 5.76555 23.3171 5.76531 23.7075 5.37458C24.0979 4.98386 24.0977 4.35061 23.707 3.96016L21.1201 1.37731C19.9489 0.207563 18.0516 0.207563 16.8804 1.37731L14.2936 3.96016C13.9028 4.35061 13.9026 4.98386 14.2931 5.37458C14.6835 5.76531 15.3167 5.76555 15.7075 5.3751L18.0003 3.08524V21.9162L15.7075 19.6263C15.3165 19.2359 14.683 19.2363 14.2925 19.6273C13.9021 20.0183 13.9026 20.6518 14.2935 21.0422L16.8804 23.6251C18.0529 24.7915 19.9475 24.7915 21.1201 23.6251L23.7069 21.0422C24.0979 20.6518 24.0984 20.0183 23.7079 19.6273C23.3175 19.2363 22.684 19.2359 22.2931 19.6263Z" fill="#BD0318"/>
</g>
<defs>
<clipPath id="clip0_2220_3456">
<rect width="24" height="24" fill="white" transform="translate(0 0.5)"/>
</clipPath>
</defs>
</svg>
