<svg width="24" height="25" viewBox="0 0 24 25" fill="none" xmlns="http://www.w3.org/2000/svg">
<g clip-path="url(#clip0_2220_3446)">
<path d="M12 24.4995C6.486 24.4995 2 20.0135 2 14.4995C2 11.1415 3.505 9.04051 5.765 6.91952L8.213 4.62051L7.421 7.88351C7.146 9.01952 7.074 12.4895 8.533 14.3445C9.144 15.1215 9.951 15.4995 11 15.4995C12.107 15.4995 12.986 14.6155 13 13.4865C13.014 12.3695 12.542 11.4445 12.042 10.4665C11.53 9.46451 11 8.42951 11 7.17151C11 4.46052 12.412 2.00352 12.472 1.90052L13.3 0.478516L14.181 1.86952C15.03 3.20852 16.175 4.45652 17.284 5.66352C19.603 8.18752 22.001 10.7995 22.001 14.5005C22.001 20.0145 17.515 24.5005 12.001 24.5005L12 24.4995Z" fill="#BD0318"/>
</g>
<defs>
<clipPath id="clip0_2220_3446">
<rect width="24" height="24" fill="white" transform="translate(0 0.5)"/>
</clipPath>
</defs>
</svg>
