<svg width="24" height="25" viewBox="0 0 24 25" fill="none" xmlns="http://www.w3.org/2000/svg">
<g clip-path="url(#clip0_2220_3463)">
<path d="M18.581 2.64024L12.316 0.551241C12.1109 0.48292 11.8891 0.48292 11.684 0.551241L5.419 2.64024C4.42291 2.97112 3.55642 3.6075 2.94265 4.45895C2.32887 5.3104 1.99904 6.33363 2 7.38324V12.5002C2 20.0632 11.2 24.2402 11.594 24.4142C11.7218 24.471 11.8601 24.5004 12 24.5004C12.1399 24.5004 12.2782 24.471 12.406 24.4142C12.8 24.2402 22 20.0632 22 12.5002V7.38324C22.001 6.33363 21.6711 5.3104 21.0574 4.45895C20.4436 3.6075 19.5771 2.97112 18.581 2.64024ZM16.718 10.2172L12.446 14.4892C12.2712 14.6652 12.0631 14.8047 11.834 14.8997C11.6048 14.9946 11.3591 15.0431 11.111 15.0422H11.078C10.8249 15.0384 10.5752 14.9832 10.344 14.8801C10.1128 14.7769 9.90498 14.628 9.733 14.4422L7.427 12.0422C7.32713 11.9496 7.24725 11.8375 7.19225 11.7129C7.13726 11.5882 7.10831 11.4537 7.10718 11.3174C7.10606 11.1812 7.13278 11.0462 7.1857 10.9207C7.23863 10.7951 7.31665 10.6817 7.41497 10.5874C7.51329 10.4931 7.62985 10.4199 7.75748 10.3723C7.88511 10.3247 8.02113 10.3036 8.15719 10.3104C8.29325 10.3172 8.42648 10.3518 8.54871 10.4119C8.67095 10.4721 8.7796 10.5566 8.868 10.6602L11.112 13.0002L15.3 8.80024C15.4886 8.61808 15.7412 8.51729 16.0034 8.51957C16.2656 8.52185 16.5164 8.62702 16.7018 8.81242C16.8872 8.99783 16.9924 9.24864 16.9947 9.51084C16.997 9.77304 16.8962 10.0256 16.714 10.2142L16.718 10.2172Z" fill="#BD0318"/>
</g>
<defs>
<clipPath id="clip0_2220_3463">
<rect width="24" height="24" fill="white" transform="translate(0 0.5)"/>
</clipPath>
</defs>
</svg>
