<svg width="24" height="25" viewBox="0 0 24 25" fill="none" xmlns="http://www.w3.org/2000/svg">
<g clip-path="url(#clip0_2220_3450)">
<path d="M9 12.5C12.3137 12.5 15 9.81371 15 6.5C15 3.18629 12.3137 0.5 9 0.5C5.68629 0.5 3 3.18629 3 6.5C3 9.81371 5.68629 12.5 9 12.5Z" fill="#BD0318"/>
<path d="M13.043 14.5H4.957C3.64281 14.5016 2.3829 15.0244 1.45363 15.9536C0.524352 16.8829 0.00158783 18.1428 0 19.457C0 22.2422 2.25783 24.5 5.043 24.5H12.957C15.7422 24.5 18 22.2422 18 19.457C17.9984 18.1428 17.4756 16.8829 16.5464 15.9536C15.6171 15.0244 14.3572 14.5016 13.043 14.5Z" fill="#BD0318"/>
<path d="M21.9983 8.375C21.4417 8.40272 20.9189 8.64977 20.544 9.06207C20.1692 9.47437 19.973 10.0184 19.9983 10.575C20.0236 10.0184 19.8273 9.47437 19.4525 9.06207C19.0777 8.64977 18.5548 8.40272 17.9983 8.375C17.4417 8.40272 16.9189 8.64977 16.544 9.06207C16.1692 9.47437 15.973 10.0184 15.9983 10.575C15.9983 12.875 19.9983 15.708 19.9983 15.708C19.9983 15.708 23.9983 12.879 23.9983 10.575C24.0236 10.0184 23.8273 9.47437 23.4525 9.06207C23.0777 8.64977 22.5548 8.40272 21.9983 8.375Z" fill="#BD0318"/>
</g>
<defs>
<clipPath id="clip0_2220_3450">
<rect width="24" height="24" fill="white" transform="translate(0 0.5)"/>
</clipPath>
</defs>
</svg>
