<svg width="20" height="19" fill="none" xmlns="http://www.w3.org/2000/svg"><path d="M18.201 2.587h-2.29v-.809a.81.81 0 0 0-1.617 0v.81h-8.09v-.81a.809.809 0 1 0-1.619 0v.81h-2.29A1.756 1.756 0 0 0 .54 4.342v12.67a1.756 1.756 0 0 0 1.756 1.755H18.2a1.755 1.755 0 0 0 1.756-1.756V4.342A1.756 1.756 0 0 0 18.2 2.588zM2.296 4.205h2.29v.81a.809.809 0 1 0 1.617 0v-.81h8.09v.81a.809.809 0 1 0 1.619 0v-.81h2.29a.146.146 0 0 1 .137.138v2.29H2.159v-2.29a.146.146 0 0 1 .137-.138zM18.2 17.15H2.296a.146.146 0 0 1-.138-.138V8.25h16.18v8.762a.145.145 0 0 1-.137.138zM7.012 10.677a.809.809 0 0 1-.809.81H4.585a.81.81 0 0 1 0-1.619h1.618a.809.809 0 0 1 .81.81zm4.854 0a.809.809 0 0 1-.809.81H9.44a.81.81 0 0 1 0-1.619h1.618a.81.81 0 0 1 .81.81zm4.855 0a.809.809 0 0 1-.81.81h-1.617a.81.81 0 0 1 0-1.619h1.618a.809.809 0 0 1 .809.81zm-9.709 3.237a.809.809 0 0 1-.809.809H4.585a.809.809 0 1 1 0-1.619h1.618a.81.81 0 0 1 .81.81zm4.854 0a.809.809 0 0 1-.809.809H9.44a.809.809 0 1 1 0-1.619h1.618a.81.81 0 0 1 .81.81zm4.855 0a.809.809 0 0 1-.81.809h-1.617a.809.809 0 1 1 0-1.619h1.618a.81.81 0 0 1 .809.81z" fill="#000"/></svg>