<svg width="140" height="85" fill="none" xmlns="http://www.w3.org/2000/svg"><path d="M139.341 35.007a3.048 3.048 0 0 0-1.106-2.35l-19.08-15.826-.02-.014-8.64-7.17a7.926 7.926 0 0 0-5.054-1.819H94.809a7.812 7.812 0 0 0-2.31-5.532A7.914 7.914 0 0 0 86.93 0H8.537A7.912 7.912 0 0 0 2.97 2.294 7.81 7.81 0 0 0 .659 7.825v54.377a7.81 7.81 0 0 0 2.31 5.533 7.912 7.912 0 0 0 5.568 2.295h8.966a17.317 17.317 0 0 0 5.976 10.25 17.52 17.52 0 0 0 11.205 4.045 17.52 17.52 0 0 0 11.205-4.046 17.316 17.316 0 0 0 5.976-10.25h45.579a17.318 17.318 0 0 0 5.978 10.246 17.523 17.523 0 0 0 11.203 4.043c4.096 0 8.062-1.431 11.203-4.043a17.317 17.317 0 0 0 5.978-10.245h4.454c.817 0 1.601-.323 2.179-.897a3.051 3.051 0 0 0 .902-2.165V38.394v-3.387zm-7.584.258h-25.425V22.24h9.729l15.696 13.023zM6.822 62.201V7.825a1.7 1.7 0 0 1 .503-1.204c.322-.32.758-.5 1.212-.5H86.93c.455 0 .891.18 1.213.5a1.7 1.7 0 0 1 .503 1.204v56.08H51.867a17.319 17.319 0 0 0-5.98-10.244 17.522 17.522 0 0 0-11.202-4.044 17.522 17.522 0 0 0-11.202 4.044 17.319 17.319 0 0 0-5.979 10.245H8.537c-.454 0-.89-.18-1.212-.5a1.7 1.7 0 0 1-.503-1.204zm27.862 15.993a11.36 11.36 0 0 1-6.28-1.891 11.25 11.25 0 0 1-4.166-5.039 11.168 11.168 0 0 1-.647-6.489 11.213 11.213 0 0 1 3.088-5.752 11.33 11.33 0 0 1 5.784-3.08 11.375 11.375 0 0 1 6.532.63 11.292 11.292 0 0 1 5.079 4.13 11.183 11.183 0 0 1 1.915 6.236v.049a11.209 11.209 0 0 1-3.324 7.922 11.355 11.355 0 0 1-7.981 3.284zm79.941 0c-2.235 0-4.42-.66-6.279-1.893a11.253 11.253 0 0 1-4.163-5.039 11.166 11.166 0 0 1-.646-6.488 11.207 11.207 0 0 1 3.088-5.752 11.332 11.332 0 0 1 5.783-3.079 11.375 11.375 0 0 1 6.531.63 11.292 11.292 0 0 1 5.079 4.127 11.179 11.179 0 0 1 1.917 6.235v.059a11.21 11.21 0 0 1-3.328 7.92 11.357 11.357 0 0 1-7.982 3.28zm17.184-14.29a17.317 17.317 0 0 0-5.978-10.244 17.523 17.523 0 0 0-11.203-4.044 17.52 17.52 0 0 0-11.202 4.044 17.32 17.32 0 0 0-5.98 10.245H94.81V13.952h10.632c.402 0 .792.14 1.1.397l2.136 1.768h-5.429c-.817 0-1.601.323-2.179.897a3.051 3.051 0 0 0-.902 2.165v19.148c0 .812.324 1.59.902 2.165a3.092 3.092 0 0 0 2.179.897h29.93v22.517h-1.369z" fill="#000"/></svg>