<svg xmlns="http://www.w3.org/2000/svg" viewBox="0 0 50 50"><path d="M25 2c-3.345 0-6.265 1.9-7.74 4.676a8.787 8.787 0 0 0-2.233-.287 8.62 8.62 0 0 0-6.119 2.52c-2.253 2.252-2.99 5.462-2.232 8.35C3.902 18.736 2 21.656 2 25c0 3.345 1.9 6.265 4.676 7.74-.758 2.888-.019 6.099 2.234 8.352a8.62 8.62 0 0 0 6.12 2.52c.75 0 1.502-.096 2.232-.288C18.736 46.1 21.655 48 25 48c3.345 0 6.265-1.9 7.74-4.676a8.787 8.787 0 0 0 2.233.287 8.62 8.62 0 0 0 6.119-2.52c2.253-2.252 2.99-5.462 2.232-8.35C46.098 31.264 48 28.344 48 25c0-3.345-1.9-6.265-4.676-7.74.758-2.888.019-6.099-2.234-8.352a8.62 8.62 0 0 0-6.12-2.52c-.75 0-1.502.096-2.232.288C31.264 3.9 28.345 2 25 2zm0 2.19a6.576 6.576 0 0 1 5.807 3.513l.812 1.531 1.678-.44a6.607 6.607 0 0 1 1.676-.216c1.735 0 3.358.668 4.57 1.879 1.614 1.614 2.252 4.007 1.664 6.246l-.44 1.678 1.53.812A6.578 6.578 0 0 1 45.81 25a6.576 6.576 0 0 1-3.514 5.807l-1.53.812.44 1.678c.587 2.239-.05 4.632-1.664 6.246a6.416 6.416 0 0 1-4.57 1.879c-.566 0-1.13-.073-1.676-.217l-1.678-.44-.812 1.532A6.578 6.578 0 0 1 25 45.81a6.576 6.576 0 0 1-5.807-3.514l-.812-1.531-1.678.44a6.607 6.607 0 0 1-1.676.216 6.419 6.419 0 0 1-4.57-1.879c-1.614-1.614-2.252-4.007-1.664-6.246l.44-1.678-1.53-.812A6.58 6.58 0 0 1 4.19 25a6.576 6.576 0 0 1 3.514-5.807l1.531-.812-.44-1.678c-.586-2.239.049-4.632 1.663-6.246a6.416 6.416 0 0 1 4.57-1.879c.566 0 1.13.073 1.676.217l1.678.44.814-1.532A6.573 6.573 0 0 1 25 4.19zm9.15 13.533L21.715 30.156l-5.865-5.863-1.414 1.414 7.279 7.277 13.85-13.847-1.415-1.414z" fill="#F52929"/></svg>