<svg xmlns="http://www.w3.org/2000/svg" viewBox="0 0 50 50"><path d="M22.934 4.992c-.407.016-.82.137-1.243.352-.093.047-.875.406-1.699.968-.816.563-1.754 1.368-2.41 2.489-.45.703-.684 1.398-.52 2.086.168.691.723 1.125 1.176 1.328.164.074.164.012.325.055-2.04 4.097-1.735 7.53-.372 9.843a8.915 8.915 0 0 0 1.122 1.492c-3.063 2.813-5.2 6.93-5.2 6.93l-.425.813.773.496a7.242 7.242 0 0 0 5.152 1.062c.508-.082.98-.218 1.438-.375-.723 1.407-1.735 2.235-2.84 2.762-1.832.871-3.504.809-4.32.746-.043-1.371-.356-7.984-4.11-12.664l-1.465-1.828-.308 2.324c-.2 1.496-.656 2.238-1.117 2.633-.465.394-1.02.516-1.672.484-1.301-.062-2.711-.847-2.711-.847l-1.57-.934L1 27.031c.227 6.696 2.348 10.074 4.586 11.66 1.887 1.332 3.52 1.313 4.086 1.282.246.25.906.988 2.621 1.906C14.277 42.949 17.262 44 21.25 44c3.254 0 7.848-.762 11.738-3.281C36.878 38.195 40 33.809 40 27.023c0-.375-.027-.718-.04-1.082 4.774.27 8.685-3.18 8.685-3.18l.796-.671-.707-.77c-2.527-2.734-6.949-4.98-10.785-5.285-4.031-8.265-11.734-9.629-13.18-9.824-.085-.215-.023-.27-.238-.516-.254-.3-.68-.597-1.203-.68a2.208 2.208 0 0 0-.394-.023zm.086 2c.011.004-.024-.02-.004.008.047.05.117.258.117.258l.117.781.793.066s7.379.645 11.52 7.832c-.543-.058-.93-.273-1.485-.69C33.406 14.733 32.43 14 31 14c-.953 0-1.684.617-2.14 1.266-.458.652-.747 1.402-.97 2.136a17.047 17.047 0 0 0-.593 2.864s-.129.98-.668 1.941c-.54.961-1.317 1.805-3.004 1.805-.105 0-.863-.196-1.602-.688a6.997 6.997 0 0 1-2.109-2.226c-1.156-1.957-1.61-4.828.941-9.047l.961-1.594-1.855.074s-.648-.027-.902-.14c-.032-.012-.024-.008-.04-.016.008-.035.028-.168.25-.512l.012-.02.016-.023c.43-.75 1.152-1.394 1.828-1.855.672-.461 1.203-.703 1.469-.84.3-.148.418-.133.426-.133zM31 16c.8 0 1.188.32 1.875.84.688.52 1.695 1.23 3.129 1.16h.027l.024-.004c.175-.02.34-.035.508-.047.523 1.54 1.437 4.817 1.437 9.074 0 6.192-2.664 9.793-6.098 12.016C28.47 41.262 24.184 42 21.25 42c-3.637 0-6.277-.95-8.012-1.879-1.73-.934-2.5-1.793-2.5-1.793l-.347-.39-.524.07s-1.476.215-3.125-.95c-1.492-1.054-3.105-3.449-3.57-8.527.586.2 1.195.418 1.953.453.988.051 2.129-.164 3.059-.953.437-.375.796-.875 1.093-1.468C11.633 30.995 12 37.023 12 37.023l.02.832.82.13s3.191.562 6.23-.887a8.143 8.143 0 0 0 3.946-4.016c.812-1.773 1.195-4.09.933-7.098 2.242-.125 3.7-1.507 4.426-2.797.758-1.351.906-2.687.906-2.687v-.008s.145-1.277.52-2.508c.191-.617.445-1.207.699-1.566.25-.363.39-.418.5-.418zm-8 1c-.55 0-1 .672-1 1.5s.45 1.5 1 1.5 1-.672 1-1.5-.45-1.5-1-1.5zm15.727 1.184c2.566.492 5.59 1.992 7.59 3.695-1.118.785-3.544 2.3-6.489 2.027-.242-2.394-.7-4.37-1.101-5.722zm-17.903 6.738c.028.02.059.047.09.066.336.223.656.403.977.559.199 1.765.168 3.226-.032 4.433-.757.43-1.64.801-2.566.954-.914.148-1.863-.004-2.836-.403.64-1.11 2.195-3.691 4.367-5.61z"/></svg>