<svg xmlns="http://www.w3.org/2000/svg" viewBox="0 0 50 50"><path d="M22.688 10.031c-3.458 0-6.887 1.98-8.875 5.063-1.247 1.93-2.223 4.898-1.876 8.844-1.753.511-3.39 1.347-4.687 2.656-2.281 2.308-3.133 5.554-2.719 8.75C1.938 36.94 0 39.789 0 43.656c0 1.348.238 2.586.625 3.688a1 1 0 0 0 .766.691.995.995 0 0 0 .968-.355.994.994 0 0 0 .141-1.024 8.926 8.926 0 0 1-.5-3c0-3.488 1.703-5.73 4.031-6.937.39-.2.606-.63.532-1.063-.54-2.855.152-5.691 2.093-7.656 1.215-1.23 2.805-2.055 4.5-2.406a1 1 0 0 0 .781-1.125c-.53-3.946.458-6.57 1.563-8.282 1.629-2.523 4.516-4.156 7.188-4.156 3.265 0 5.886 1.336 7.593 3.781.942 1.348 1.5 2.887 1.782 4.438a.999.999 0 0 0 1.062.813c1.863-.11 3.55.34 4.813 1.25 3 2.164 3.738 4.695 3.874 6.468a8.56 8.56 0 0 1-.062 1.813c-.055.43.172.843.563 1.031a7.825 7.825 0 0 1 3.187 2.656c1.457 2.102 1.61 4.54.938 6.719a.993.993 0 0 0 .187.969c.824.976 1.375 2.176 1.375 3.656 0 .406-.059.813-.125 1.219-.086.55.293 1.07.844 1.156.55.086 1.07-.293 1.156-.844.074-.465.125-.976.125-1.531 0-1.797-.664-3.324-1.594-4.563.653-2.566.438-5.457-1.281-7.937-.879-1.27-2.059-2.219-3.375-2.938.04-.523.07-1.042.031-1.562-.168-2.203-1.164-5.418-4.656-7.938-1.488-1.074-3.363-1.503-5.313-1.53-.359-1.544-.894-3.095-1.874-4.5-2.075-2.973-5.422-4.626-9.25-4.626zm.218 7.406c-1.781 0-4.09 1.067-5.375 3.532-1.054 2.02-1.226 4.941 0 8.781-1.992-.555-4.36-.129-6.031 1.563-1.27 1.28-1.68 3.027-1.5 4.718.11 1.024.496 2.004 1 2.938-.645.07-1.313.199-2 .5-1.547.676-3 2.265-3 4.718 0 2.083.883 3.59 1.906 4.5C8.93 49.597 9.922 50 10.813 50c.359.004.695-.184.878-.496a1.01 1.01 0 0 0 0-1.008c-.183-.312-.52-.5-.879-.496.012 0-.902-.191-1.562-.781C8.59 46.629 8 45.73 8 44.187c0-1.75.758-2.425 1.781-2.874 1.024-.45 2.426-.422 2.813-.313.422.105.867-.074 1.097-.445a1.006 1.006 0 0 0-.097-1.18c-.91-1.008-1.496-2.34-1.625-3.563-.13-1.222.18-2.296.969-3.093 1.722-1.739 4.562-1.496 5.656-.125a1 1 0 0 0 1.375.343 1 1 0 0 0 .343-1.374c-2.195-4.864-1.93-7.907-1-9.688.93-1.781 2.66-2.438 3.594-2.438 2.774 0 3.942 1.399 4.563 3.313.62 1.914.386 4.367-.032 5.5a1 1 0 0 0 1.782.906c.398-.597 1.41-1.218 2.5-1.468s2.191-.114 2.781.312c1.707 1.23 2.05 2.52 1.906 3.844-.144 1.324-.949 2.68-1.812 3.531a1 1 0 0 0 1.187 1.594c2.176-1.13 3.77-.36 4.625.875.547.789.649 1.726.438 2.625-.211.898-.762 1.73-1.344 2.125l.063.062c-.133.09-.274.078-.376.25-.23.383-.18.871.126 1.2.304.324.789.41 1.187.206.14.036.367.11.594.25.504.317.906.793.906 1.407 0 1.515-.914 1.992-1.344 2.031-.55.043-.965.527-.922 1.078.043.55.528.965 1.078.922C42.392 49.855 44 48.348 44 45.969c0-1.469-.941-2.528-1.844-3.094-.062-.04-.125-.027-.187-.063a5.928 5.928 0 0 0 .812-1.874c.32-1.356.188-2.91-.718-4.22h-.032c-.926-1.335-2.547-2.202-4.406-2.187.383-.761.684-1.601.781-2.5.207-1.93-.562-4.078-2.75-5.656-1.27-.914-2.89-.996-4.375-.656-.523.12-1.02.367-1.5.593.094-1.32.055-2.738-.406-4.156-.797-2.457-2.922-4.718-6.469-4.718zM23.75 28a1.019 1.019 0 0 0-.219.031c-.426.078-.75.418-.812.844l-1.344 10.219-4.25-3.407a1.004 1.004 0 0 0-1.219-.066 1.004 1.004 0 0 0-.375 1.16l2.625 7.688-4.218.187a1 1 0 1 0-.531 1.813l4.905 3.343A.998.998 0 1 0 20 49.117a.997.997 0 0 0-.563-.93l-2.406-1.656 2.532-.125a1 1 0 0 0 .906-1.344l-1.938-5.687 3 2.406a1.001 1.001 0 0 0 1.625-.656L24 34.656l1.063 4.594c.085.355.355.637.707.734.347.094.726-.004.98-.265l3.094-3.375-1.438 5.156a.998.998 0 0 0 1.094 1.25l4.406-.625-2.5 3a1.009 1.009 0 0 0-.172.984c.125.332.414.578.766.641l1.906.344-2.531.968c-.52.2-.777.778-.578 1.297.2.52.777.778 1.297.578l5.843-2.28a1 1 0 1 0-.188-1.906l-3.718-.657 3.063-3.688a1 1 0 0 0-.907-1.625l-5.468.782 2.156-7.688a.999.999 0 0 0-1.688-.969l-4.625 5.032-1.875-8.157A.999.999 0 0 0 23.75 28z"/></svg>