<svg xmlns="http://www.w3.org/2000/svg" viewBox="0 0 50 50"><path d="M25 0c-2.063 0-3.91.328-5.344.938-.718.304-1.332.695-1.812 1.187C17.364 2.617 17 3.27 17 4v2.813A.753.753 0 0 0 17 7v7c0 3.516-2.043 6.172-4.313 9.438C10.418 26.703 8 30.558 8 36.188c0 6.082 5.102 10.953 9.594 13.562.148.094.324.148.5.156h13.718c.165-.004.325-.047.47-.125 4.6-2.613 9.624-7.523 9.624-13.593 0-5.68-2.418-9.543-4.687-12.813-2.27-3.27-4.313-5.914-4.313-9.375v-2.531A.971.971 0 0 0 33 11V4c0-.73-.363-1.383-.844-1.875-.48-.492-1.093-.883-1.812-1.188C28.91.329 27.062 0 25 0zm0 2c.344 0 .676.012 1 .031V3c-.004.36.184.695.496.879.313.18.695.18 1.008 0 .312-.184.5-.52.496-.879v-.688c.59.13 1.125.282 1.563.47.542.23.964.491 1.187.718.223.227.25.379.25.5v2.531a.971.971 0 0 0-.094.469v3H19V7a.753.753 0 0 0 0-.188V4c0-.121.027-.273.25-.5.223-.227.645-.488 1.188-.719.437-.187.972-.34 1.562-.469V3c-.004.36.184.695.496.879.313.18.695.18 1.008 0 .312-.184.5-.52.496-.879v-.969c.324-.02.656-.031 1-.031zm-6 10h11.906v2c0 4.238 2.457 7.293 4.688 10.5 2.23 3.207 4.312 6.566 4.312 11.688 0 4.855-4.265 9.308-8.406 11.718H18.406C14.348 45.492 10 41.031 10 36.188c0-5.07 2.082-8.387 4.313-11.594C16.543 21.387 19 18.285 19 14zm5.688 13.906c-.7 0-1.399.082-2 .282-.602.199-1.188.414-1.688.812-.5.398-.887.805-1.188 1.406-.3.602-.5 1.2-.5 2 0 .7.075 1.188.375 1.688.301.398.625.793 1.125 1.093.399.301.899.52 1.5.72.5.198 1.086.398 1.688.5.5.1 1.086.304 1.688.406.5.101 1 .3 1.5.5.5.199.824.48 1.125.78.3.4.375.813.375 1.313s-.083.98-.282 1.282a2.4 2.4 0 0 1-.906.812c-.3.2-.688.305-1.188.406-.398.102-.914.094-1.312.094-.5 0-1.094-.086-1.594-.188A3.577 3.577 0 0 1 22 39.188c-.398-.301-.8-.594-1-1.094-.3-.399-.406-.992-.406-1.594h-1.907c0 1 .2 1.707.5 2.406.301.602.711 1.196 1.313 1.594.602.5 1.3.8 2 1 .8.2 1.605.313 2.406.313.7 0 1.395-.02 2.094-.22.7-.198 1.305-.382 1.906-.78a4.643 4.643 0 0 0 1.407-1.407c.3-.5.5-1.199.5-2 0-.699-.106-1.312-.407-1.812-.3-.5-.593-.887-1.093-1.188-.399-.398-.899-.613-1.5-.812a8.76 8.76 0 0 0-1.72-.5c-.5-.2-1.085-.305-1.687-.407-.5-.199-1-.3-1.5-.5-.5-.199-.793-.386-1.093-.687-.301-.3-.407-.594-.407-1.094 0-.5.082-.918.282-1.218.199-.301.511-.583.812-.782.3-.199.695-.304 1.094-.406.398-.102.82-.094 1.218-.094 1 0 1.801.188 2.5.688.7.5 1.102 1.195 1 2.093h1.875c-.101-.8-.199-1.492-.5-2.093a4.374 4.374 0 0 0-1.187-1.5c-.5-.399-.988-.707-1.688-.907-.601-.199-1.324-.28-2.125-.28z"/></svg>