<svg width="83" height="176" fill="none" xmlns="http://www.w3.org/2000/svg"><g filter="url(#filter0_d)" fill="#fff"><path d="M43.69 28.488c-.63 1.357-6.173 3.127-11.973 1.558-5.958-1.61-11.79-8.107-11.79-8.107s8.311-2.674 14.269-1.063c.709.192 1.385.429 2.033.694a17.512 17.512 0 0 1-.836-2.016c-1.99-5.844.146-14.307.146-14.307s6.855 5.402 8.847 11.244c1.89 5.56.588 11.076-.696 11.997z"/><path d="M14.956 12.124C9.356 8.549 5.464 0 5.464 0s9.394-.068 14.993 3.507c5.599 3.576 8.21 9.497 7.389 10.78-.82 1.285-7.29 1.41-12.89-2.163zM59.032 50.583c-.938 1.37-7.325 2.293-13.388-.481-6.227-2.851-11.422-11.026-11.422-11.026s9.582-1.41 15.81 1.442c.743.34 1.439.724 2.1 1.131a19.856 19.856 0 0 1-.548-2.358c-1.11-6.76 2.772-15.632 2.772-15.632s6.519 7.164 7.628 13.923c1.057 6.426-1.376 12.226-2.952 13z"/><path d="M67.852 77.51c-1.516 1.277-9.157.298-15.241-4.83-6.25-5.269-9.612-16.327-9.612-16.327s11.47 1.442 17.718 6.71c.742.624 1.42 1.285 2.048 1.96-.015-.936.022-1.898.13-2.876.881-8.127 8.183-17.089 8.183-17.089s5.205 10.321 4.32 18.447c-.837 7.729-5.487 13.62-7.546 14.006z"/><path d="M66.213 103.529c-.24-.11-.47-.372-.678-.735-2.658-.331-8.303-3.569-11.837-9.271-4.195-6.768-3.772-17.894-3.772-17.894s10.373 4.934 14.568 11.702a22.443 22.443 0 0 1 1.459 2.792c.254-.692.534-1.383.87-2.072 3.48-7.116 13.3-12.966 13.3-12.966s1.562 11.034-1.92 18.151c-3.478 7.116-10.292 11.065-11.99 10.293z"/><path d="M55.653 129.118c-.178-.182-.291-.501-.35-.908-2.265-1.193-6.193-6.081-7.37-12.553-1.398-7.682 2.855-17.872 2.855-17.872s7.571 8.039 8.967 15.721c.19 1.046.293 2.075.335 3.079.468-.556.96-1.105 1.5-1.632 5.596-5.449 16.424-7.608 16.424-7.608s-2.446 10.767-8.039 16.215c-5.594 5.446-13.07 6.842-14.322 5.558zM40.848 147.996c-1.794-1.358-4.304-5.971-3.971-11.349.393-6.363 6.446-13.647 6.446-13.647s5.115 7.816 4.721 14.179a16.073 16.073 0 0 1-.378 2.536c.553-.361 1.111-.72 1.726-1.042 6.243-3.264 16.513-2.927 16.513-2.927s-4.54 8.084-10.782 11.349c-6.243 3.264-13.312 2.956-14.168 1.7-.122-.177-.142-.462-.107-.799zM20.153 162.717c-.033-.183.042-.431.175-.702-.89-1.645-1.271-6.227.69-10.66 2.319-5.243 9.106-9.68 9.106-9.68s1.282 8.006-1.04 13.249a16.14 16.14 0 0 1-1.087 2.028c.523-.149 1.05-.296 1.606-.394 5.645-1.002 13.115 2.153 13.115 2.153s-5.927 5.531-11.572 6.533c-5.645 1.003-10.763-1.231-10.993-2.527zM.371 167.725c-.376-1.702.565-5.883 3.69-9.305 3.697-4.048 11.41-6.188 11.41-6.188s-1.061 7.468-4.759 11.518a15.758 15.758 0 0 1-1.61 1.516c.538.007 1.08.018 1.639.079 5.651.612 11.85 5.413 11.85 5.413s-7.21 3.345-12.86 2.731c-5.65-.613-9.878-3.969-9.727-5.184.022-.175.164-.374.367-.58z"/></g><defs><filter id="filter0_d" x="0" y="0" width="82.472" height="175.564" filterUnits="userSpaceOnUse" color-interpolation-filters="sRGB"><feFlood flood-opacity="0" result="BackgroundImageFix"/><feColorMatrix in="SourceAlpha" values="0 0 0 0 0 0 0 0 0 0 0 0 0 0 0 0 0 0 127 0" result="hardAlpha"/><feOffset dx="2" dy="2"/><feComposite in2="hardAlpha" operator="out"/><feColorMatrix values="0 0 0 0 0 0 0 0 0 0 0 0 0 0 0 0 0 0 1 0"/><feBlend in2="BackgroundImageFix" result="effect1_dropShadow"/><feBlend in="SourceGraphic" in2="effect1_dropShadow" result="shape"/></filter></defs></svg>