<svg width="83" height="176" fill="none" xmlns="http://www.w3.org/2000/svg"><g filter="url(#filter0_d)" fill="#fff"><path d="M36.782 28.488c.63 1.357 6.173 3.127 11.973 1.558 5.958-1.61 11.79-8.107 11.79-8.107s-8.31-2.674-14.269-1.063a17.48 17.48 0 0 0-2.033.694c.311-.64.596-1.309.836-2.016 1.99-5.844-.146-14.307-.146-14.307s-6.855 5.402-8.846 11.244c-1.89 5.56-.59 11.076.695 11.997z"/><path d="M65.516 12.124C71.116 8.549 75.008 0 75.008 0s-9.393-.068-14.993 3.507c-5.599 3.576-8.21 9.497-7.389 10.78.821 1.285 7.291 1.41 12.89-2.163zM21.44 50.583c.939 1.37 7.325 2.293 13.388-.481C41.056 47.25 46.25 39.076 46.25 39.076s-9.581-1.41-15.81 1.442c-.742.34-1.438.724-2.1 1.131.224-.757.412-1.542.548-2.358 1.11-6.76-2.772-15.632-2.772-15.632s-6.518 7.164-7.628 13.923c-1.057 6.426 1.377 12.226 2.952 13z"/><path d="M12.62 77.51c1.516 1.277 9.157.298 15.242-4.83 6.249-5.269 9.612-16.327 9.612-16.327s-11.47 1.442-17.72 6.71a23.007 23.007 0 0 0-2.047 1.96c.015-.936-.022-1.898-.13-2.876-.881-8.127-8.182-17.089-8.182-17.089S4.189 55.38 5.073 63.505c.838 7.729 5.488 13.62 7.547 14.006z"/><path d="M14.259 103.529c.24-.11.47-.372.678-.735 2.659-.331 8.304-3.569 11.837-9.271 4.195-6.768 3.773-17.894 3.773-17.894s-10.374 4.934-14.568 11.702a22.43 22.43 0 0 0-1.46 2.792 21.762 21.762 0 0 0-.87-2.072c-3.48-7.116-13.3-12.966-13.3-12.966s-1.562 11.034 1.92 18.151c3.478 7.116 10.292 11.065 11.99 10.293z"/><path d="M24.82 129.118c.177-.182.29-.501.35-.908 2.264-1.193 6.192-6.081 7.369-12.553 1.398-7.682-2.855-17.872-2.855-17.872s-7.57 8.039-8.967 15.721a22.322 22.322 0 0 0-.335 3.079 22.508 22.508 0 0 0-1.5-1.632c-5.595-5.449-16.424-7.608-16.424-7.608s2.446 10.767 8.039 16.215c5.595 5.446 13.071 6.842 14.323 5.558zM39.624 147.996c1.794-1.358 4.304-5.971 3.971-11.349C43.203 130.284 37.15 123 37.15 123s-5.116 7.816-4.722 14.179c.055.877.195 1.719.378 2.536a20.84 20.84 0 0 0-1.726-1.042c-6.242-3.264-16.513-2.927-16.513-2.927s4.54 8.084 10.782 11.349c6.243 3.264 13.312 2.956 14.168 1.7.122-.177.142-.462.107-.799zM60.319 162.717c.033-.183-.041-.431-.175-.702.89-1.645 1.271-6.227-.69-10.66-2.319-5.243-9.106-9.68-9.106-9.68s-1.282 8.006 1.04 13.249c.319.724.69 1.393 1.087 2.028a15.906 15.906 0 0 0-1.606-.394c-5.645-1.002-13.115 2.153-13.115 2.153s5.927 5.531 11.572 6.533c5.645 1.003 10.763-1.231 10.993-2.527zM80.1 167.725c.377-1.702-.564-5.883-3.688-9.305-3.698-4.048-11.41-6.188-11.41-6.188s1.06 7.468 4.758 11.518c.51.558 1.055 1.057 1.61 1.516-.538.007-1.08.018-1.638.079-5.652.612-11.85 5.413-11.85 5.413s7.209 3.345 12.858 2.731c5.652-.613 9.88-3.969 9.728-5.184-.022-.175-.164-.374-.367-.58z"/></g><defs><filter id="filter0_d" x="0" y="0" width="82.472" height="175.564" filterUnits="userSpaceOnUse" color-interpolation-filters="sRGB"><feFlood flood-opacity="0" result="BackgroundImageFix"/><feColorMatrix in="SourceAlpha" values="0 0 0 0 0 0 0 0 0 0 0 0 0 0 0 0 0 0 127 0" result="hardAlpha"/><feOffset dx="2" dy="2"/><feComposite in2="hardAlpha" operator="out"/><feColorMatrix values="0 0 0 0 0 0 0 0 0 0 0 0 0 0 0 0 0 0 1 0"/><feBlend in2="BackgroundImageFix" result="effect1_dropShadow"/><feBlend in="SourceGraphic" in2="effect1_dropShadow" result="shape"/></filter></defs></svg>