<svg width="30" height="30" fill="none" xmlns="http://www.w3.org/2000/svg"><path fill-rule="evenodd" clip-rule="evenodd" d="M15.09 3.18a8.293 8.293 0 0 1 8.293 8.293c0 1.416-.806 3.356-1.883 5.395a76.731 76.731 0 0 1-6.41 9.691 76.734 76.734 0 0 1-6.408-9.69c-1.077-2.04-1.884-3.98-1.884-5.396a8.293 8.293 0 0 1 8.293-8.292zm0-1.842A10.14 10.14 0 0 0 4.957 11.473c0 1.636.852 3.901 2.097 6.256a83.183 83.183 0 0 0 7.32 10.905.921.921 0 0 0 1.437 0 83.193 83.193 0 0 0 7.32-10.905c1.244-2.354 2.096-4.62 2.096-6.256A10.14 10.14 0 0 0 15.091 1.338z" fill="#000"/><path fill-rule="evenodd" clip-rule="evenodd" d="M15.091 9.324a2.15 2.15 0 1 1 0 4.299 2.15 2.15 0 0 1 0-4.3zm0-1.843a3.992 3.992 0 1 0 0 7.984 3.992 3.992 0 0 0 0-7.984z" fill="#000"/></svg>