<svg width="135" height="41" fill="none" xmlns="http://www.w3.org/2000/svg"><g clip-path="url(#clip0)"><path d="M34.333.719L0 40.863 13.383 41l4.928-5.692 10.92.133-2.115 5.422L38.914 41 50.887.725 34.333.72zm-3.34 26.717l-6.162-.266 10.205-12.751-4.042 13.017zM86.805.719l-11.622 40.28 23.592-.266 2.82-9.362-10.04-.137 1.238-4.473h8.621l2.467-10.578h-8.099l.882-4.883 10.913-.133L110.748.719H86.805zM114.621.719l-11.969 40.014 21.832.267 9.168-10.715h-13.221L128.886.72h-14.265zM71.487.719c-3.171-.13-16.373.136-16.373.136L43.31 40.863h19.903s6.86-.126 10.206-6.78c3.346-6.653 2.82-9.762-5.103-13.833 0 0 10.569-1.088 11.62-9.356C80.985 2.626 74.656.859 71.485.719zm-7.746 27.4c-.353 3.661-4.93 3.661-4.93 3.661l1.76-7.186s3.52-.137 3.17 3.525zm3.521-14.785c-1.053 4.07-4.416 3.388-4.416 3.388l1.764-6.777s3.706-.675 2.652 3.389z" fill="#fff"/><path d="M35.69.04L1.357 40.181l13.38.143 4.928-5.698 10.92.137-2.118 5.418 11.801.143L52.241.05 35.69.04zm-3.345 26.718l-6.16-.27L36.394 13.74l-4.05 13.018zM88.16.04L76.532 40.321l23.596-.27 2.82-9.366-10.04-.13 1.232-4.476h8.633l2.464-10.578h-8.105l.885-4.883 10.919-.133L112.098.04H88.159zM115.979.04l-11.973 40.011 21.832.27L135 29.607h-13.214L130.237.04h-14.258zM72.84.04c-3.17-.136-16.375.137-16.375.137L44.681 40.18h19.883s6.866-.13 10.209-6.78c3.342-6.65 2.817-9.762-5.103-13.83 0 0 10.569-1.091 11.62-9.36C82.34 1.945 76.004.194 72.84.042zM65.09 27.437c-.35 3.661-4.928 3.661-4.928 3.661l1.764-7.19s3.52-.136 3.164 3.529zm3.524-14.782c-1.057 4.067-4.403 3.388-4.403 3.388l1.76-6.776s3.7-.68 2.643 3.388z" fill="#ED1C24"/></g><defs><clipPath id="clip0"><path fill="#fff" d="M0 0h135v41H0z"/></clipPath></defs></svg>