<svg xmlns="http://www.w3.org/2000/svg" width="512" height="512" viewBox="0 0 152 152"><g xmlns="http://www.w3.org/2000/svg" id="Layer_2" data-name="Layer 2"><g id="Color_Icon" data-name="Color Icon"><g id="_21.Odnoklassniki" data-name="21.Odnoklassniki"><rect id="Background" fill="#ff9800" height="152" rx="12" width="152" data-original="#ff9800"/><g id="Icon" fill="#fff"><path d="M76 36a20.18 20.18 0 1 0 20.18 20.18A20.17 20.17 0 0 0 76 36zm0 30.24a10.06 10.06 0 1 1 10.06-10.06A10.05 10.05 0 0 1 76 66.24z" data-original="#ffffff"/><path d="M105.74 79.45a6.84 6.84 0 0 0-9.32-2.62c-13.74 7.7-27.1 7.7-40.84 0a6.85 6.85 0 0 0-6.7 12 60.93 60.93 0 0 0 14.33 5.87l-9.72 9.72a6.81 6.81 0 0 0 0 9.63 6.81 6.81 0 0 0 9.63 0L76 101.12 88.88 114a6.81 6.81 0 0 0 9.63 0 6.81 6.81 0 0 0 0-9.63l-9.72-9.72a60.93 60.93 0 0 0 14.33-5.87 6.84 6.84 0 0 0 2.62-9.33z" data-original="#ffffff"/></g></g></g></g><script/></svg>