<svg width="24" height="32" fill="none" xmlns="http://www.w3.org/2000/svg"><path d="M7.046 20.848c.28-.164.586-.324.918-.476-.28.418-.58.823-.9 1.212-.56.674-.996 1.032-1.27 1.144a.539.539 0 0 1-.07.024.565.565 0 0 1-.052-.088c-.112-.22-.108-.432.08-.72.212-.33.638-.708 1.294-1.096zm4.91-3.294c-.238.05-.474.1-.712.156.353-.69.687-1.391 1-2.1a23.96 23.96 0 0 0 1.02 1.716c-.434.064-.872.14-1.308.228zm5.05 1.878a7.78 7.78 0 0 1-.87-.82c.456.01.868.044 1.224.108.634.114.932.294 1.036.418a.19.19 0 0 1 .052.128.872.872 0 0 1-.12.4.615.615 0 0 1-.188.248.214.214 0 0 1-.138.03c-.18-.006-.516-.132-.996-.512zm-4.45-9.492c-.08.488-.216 1.048-.4 1.658a9.708 9.708 0 0 1-.178-.692c-.152-.706-.174-1.26-.092-1.644.076-.354.22-.496.392-.566.093-.04.19-.068.29-.08.026.06.056.184.064.396a4.71 4.71 0 0 1-.076.93V9.94z" fill="#fff"/><path fill-rule="evenodd" clip-rule="evenodd" d="M4 0h16a4 4 0 0 1 4 4v24a4 4 0 0 1-4 4H4a4 4 0 0 1-4-4V4a4 4 0 0 1 4-4zm.33 23.336c.18.36.46.686.876.838.414.15.824.08 1.16-.06.636-.26 1.27-.872 1.852-1.572.666-.802 1.366-1.854 2.042-3.02a23.282 23.282 0 0 1 3.994-.812c.6.766 1.22 1.426 1.82 1.9.56.44 1.206.806 1.868.834.36.018.718-.079 1.02-.276.31-.202.54-.494.708-.832.18-.362.29-.74.276-1.126a1.688 1.688 0 0 0-.4-1.036c-.452-.54-1.192-.8-1.92-.93-.883-.137-1.78-.17-2.67-.1a21.91 21.91 0 0 1-1.96-3.372c.5-1.32.874-2.568 1.04-3.588.072-.436.11-.852.096-1.228a2.476 2.476 0 0 0-.254-1.076 1.4 1.4 0 0 0-.954-.73c-.404-.086-.82 0-1.202.154-.754.3-1.152.94-1.302 1.646-.146.68-.08 1.472.092 2.272.176.812.476 1.696.86 2.59a39.418 39.418 0 0 1-2.124 4.454c-1.03.324-2.024.757-2.964 1.29-.74.44-1.398.96-1.794 1.574-.42.652-.55 1.428-.16 2.206z" fill="#fff"/></svg>