<svg version="1.1" id="Слой_1" xmlns="http://www.w3.org/2000/svg" x="0" y="0" viewBox="0 0 173.6 63.8" xml:space="preserve"><style>.st0{fill:#fff}</style><path class="st0" d="M52.3 16.4c.5.3 1 .6 1.5.7.5.2 1 .2 1.4.2.7 0 1.3-.2 1.7-.5.4-.3.7-.7.7-1.2 0-.7-.2-1.2-.7-1.5-.5-.4-1.2-.5-2.1-.5-.3 0-.7 0-1.1.1s-.8.2-1.3.3l1.3-8.9h7.8v3.5h-4.9l-.4 2.3c.2-.1.5-.1.7-.1h.6c1.3 0 2.4.5 3.3 1.4.9.9 1.3 2 1.3 3.4 0 1.7-.6 3.1-1.7 4.1-1.2 1.1-2.7 1.6-4.6 1.6-.7 0-1.4-.1-2.2-.3-.7-.2-1.4-.4-2.2-.8l.9-3.8zM67 12.9c0 1.6.1 2.7.2 3.3.2.6.4.9.8.9s.6-.3.8-.9c.2-.6.2-1.7.2-3.4s-.1-2.8-.2-3.4c-.2-.6-.4-.9-.8-.9s-.6.3-.8.9c-.1.7-.2 1.8-.2 3.5zm-4 .1c0-2.6.4-4.6 1.3-6 .9-1.4 2.1-2.2 3.7-2.2s2.8.7 3.7 2.2c.9 1.4 1.3 3.4 1.3 6s-.4 4.6-1.3 6c-.9 1.4-2.1 2.2-3.7 2.2s-2.8-.7-3.7-2.2c-.8-1.4-1.3-3.4-1.3-6zm15.7-7.9h4.6l1.2 4.8 1.2-4.8h4.6l-3.6 9.4v6.3h-4.4v-6.3l-3.6-9.4zM91 20.8V5.1h7.8v3.8h-3.4v2h3.1v3.7h-3.1v2.2h3.4v4.1H91zm8.2 0l3.4-15.7h4.9l3.4 15.7h-4.3l-.3-2.3h-2.6l-.3 2.3h-4.2zm5-5.5h1.7l-.9-5.8-.8 5.8zm11.9-6.9v3.7c.6 0 1-.2 1.3-.5.3-.3.4-.8.4-1.4 0-.6-.1-1.1-.4-1.4-.3-.3-.6-.5-1.2-.5h-.1zm-4.4 12.4V5.1h5c1.7 0 3.1.4 4 1.3 1 .9 1.5 2 1.5 3.5 0 .9-.2 1.7-.7 2.4-.4.6-1.1 1.2-2 1.6l3.1 7h-4.7l-2-6.1v6.1h-4.2zM27 41.8l3.4-15.7h4.9l3.4 15.7h-4.3l-.3-2.3h-2.6l-.3 2.3H27zm5.1-5.5h1.7l-.8-5.8-.9 5.8zm7.5 5.5V26.1H44l2.4 8.3v-8.3h4v15.7h-4.3L43.6 34v7.9h-4zm12.6 0V26.1h4.4l2.4 8.3v-8.3h4v15.7h-4.3L56.2 34v7.9h-4zm12.8 0V26.1h4.4v15.7H65zm5.3-15.7h4.4l1.6 10.3 1.6-10.3h4.4l-3.6 15.7h-4.9l-3.5-15.7zM83 41.8V26.1h7.8v3.8h-3.4v2h3.1v3.7h-3.1v2.2h3.4v4.1H83zm13.8-12.4v3.7c.6 0 1-.2 1.3-.5.3-.3.4-.8.4-1.4 0-.6-.1-1.1-.4-1.4-.3-.3-.6-.5-1.2-.5h-.1zm-4.4 12.4V26.1h5c1.7 0 3.1.4 4 1.3 1 .9 1.5 2 1.5 3.5 0 .9-.2 1.7-.7 2.4-.4.6-1.1 1.2-2 1.6l3.1 7h-4.7l-2-6.1v6.1h-4.2zm11.5-5.2c.6.5 1.2.9 1.7 1.1.5.3 1 .4 1.4.4.4 0 .6-.1.9-.3.2-.2.3-.5.3-.8 0-.4-.4-.9-1.1-1.6-1.3-1.2-2.2-2.2-2.5-2.8-.4-.7-.6-1.4-.6-2.2 0-1.3.4-2.4 1.3-3.3.9-.9 2.1-1.3 3.5-1.3.6 0 1.1.1 1.7.2.6.2 1.2.4 1.8.7v4.1c-.5-.4-1-.7-1.5-.9-.5-.2-.9-.3-1.3-.3-.3 0-.6.1-.8.3-.2.2-.3.4-.3.7 0 .4.4.9 1.1 1.5l.1.1c1.3 1 2.2 1.9 2.5 2.6.4.7.6 1.5.6 2.4 0 1.5-.5 2.8-1.5 3.7-1 .9-2.3 1.4-3.9 1.4-.6 0-1.2-.1-1.8-.3-.6-.2-1.2-.5-1.8-.9v-4.5zm8.9 5.2l3.4-15.7h4.9l3.4 15.7h-4.3l-.3-2.3h-2.6l-.3 2.3h-4.2zm5.1-5.5h1.7l-.9-5.8-.8 5.8zm11.8-6.9v3.7c.6 0 1-.2 1.3-.5.3-.3.4-.8.4-1.4 0-.6-.1-1.1-.4-1.4-.3-.3-.6-.5-1.2-.5h-.1zm-4.3 12.4V26.1h5c1.7 0 3.1.4 4 1.3 1 .9 1.5 2 1.5 3.5 0 .9-.2 1.7-.7 2.4-.4.6-1.1 1.2-2 1.6l3.1 7h-4.7l-2-6.1v6.1h-4.2zm10.5-15.7h4.6l1.2 4.8 1.2-4.8h4.6l-3.6 9.4v6.3h-4.4v-6.3l-3.6-9.4zM60.1 48.8L58 53.9 56.4 50l-1.5 3.9-2.1-5.1h.6l1.5 3.8 1.6-3.9 1.5 3.9 1.5-3.8h.6zm2.8 5h-2.5v-5h2.5v.5h-2v1.5h2v.5h-2v1.9h2v.6zm1.8-4.9l-.8 1.7-.3-.1.6-1.8.5.2zm4.3-.1l-2.1 5.1-2.1-5.1h.6l1.5 3.8 1.5-3.8h.6zm2.9 5h-2.5v-5h2.5v.5h-2v1.5h2v.5h-2v1.9h2v.6zm5.4-1.4c0 .4-.1.8-.4 1-.3.3-.7.4-1.1.4-.3 0-.6-.1-.9-.2-.2-.2-.4-.4-.5-.6l.4-.3c.1.2.2.4.4.5.2.1.4.2.6.2.3 0 .5-.1.7-.2.2-.2.3-.4.3-.7 0-.2-.1-.4-.2-.6-.2-.2-.4-.3-.8-.5s-.7-.4-.9-.6c-.2-.2-.3-.5-.3-.8 0-.4.1-.7.4-.9.2-.2.6-.3 1-.3.2 0 .5 0 .7.1.2.1.3.2.5.4l-.4.4-.3-.3c-.1-.1-.3-.1-.5-.1s-.4.1-.6.2c-.1.1-.2.3-.2.5s.1.3.2.5c.1.1.3.3.6.4.8.4 1.3 1 1.3 1.5zm3.2 1.4H78v-5h2.5v.5h-2v1.5h2v.5h-2v1.9h2v.6zm3-3.7c0-.3-.1-.5-.3-.6-.2-.1-.5-.2-.9-.2h-.4v1.6h.4c.4 0 .7-.1.9-.2.2-.1.3-.3.3-.6zm.8 3.7h-.7l-1.5-2.4h-.2v2.4h-.6v-5h1c.5 0 .9.1 1.2.3.3.2.4.6.4 1s-.1.7-.4.9c-.2.2-.6.3-1 .4l1.8 2.4zm3.9-5l-2.1 5.1-2.1-5.1h.6l1.5 3.8 1.5-3.8h.6zm.8 5h-.6v-5h.6v5zm4.8-.4c-.2.1-.4.2-.7.3-.3.1-.6.1-.8.1-.8 0-1.4-.2-1.9-.7-.5-.5-.8-1.1-.8-1.9 0-.7.3-1.3.8-1.8s1.1-.7 1.9-.7c.3 0 .6 0 .9.1.3.1.5.2.7.3v.6c-.2-.2-.4-.3-.7-.4-.3-.1-.5-.1-.8-.1-.6 0-1.1.2-1.5.6-.4.4-.6.9-.6 1.5s.2 1.1.6 1.5c.4.4.9.6 1.5.6.3 0 .6 0 .9-.1.3-.1.5-.2.7-.4v.5zm3.1.4h-2.5v-5h2.5v.5h-2v1.5h2v.5h-2v1.9h2v.6zm4-2.5c0-.6-.2-1.1-.5-1.5-.4-.3-.9-.5-1.6-.5h-.5v3.9h.4c.8 0 1.3-.2 1.7-.5.3-.3.5-.8.5-1.4zm.6 0c0 .8-.2 1.4-.7 1.9-.5.4-1.2.6-2.1.6h-.9v-5h1c.9 0 1.6.2 2 .7.4.4.7 1 .7 1.8zm6.8 0c0-.6-.2-1.1-.6-1.5s-.9-.6-1.5-.6-1.1.2-1.5.6-.6.9-.6 1.5.2 1.1.6 1.5c.4.4.9.6 1.5.6s1.1-.2 1.5-.6c.4-.5.6-.9.6-1.5zm.5 0c0 .7-.3 1.3-.8 1.8s-1.1.7-1.9.7c-.7 0-1.4-.2-1.9-.7-.5-.5-.8-1.1-.8-1.8s.2-1.4.7-1.9c.5-.5 1.1-.7 1.9-.7.7 0 1.4.2 1.9.7.7.5.9 1.1.9 1.9zm4-2.5l-2.1 5.1-2.1-5.1h.6l1.5 3.8 1.5-3.8h.6zm2.8 5h-2.5v-5h2.5v.5h-2v1.5h2v.5h-2v1.9h2v.6zm3-3.7c0-.3-.1-.5-.3-.6-.2-.1-.5-.2-.9-.2h-.4v1.6h.4c.4 0 .7-.1.9-.2.2-.1.3-.3.3-.6zm.8 3.7h-.7l-1.5-2.4h-.2v2.4h-.6v-5h1c.5 0 .9.1 1.2.3.3.2.4.6.4 1s-.1.7-.4.9c-.2.2-.6.3-1 .4l1.8 2.4zm-59.7 8h-.5v-4.5h-.9l.2-.5h1.2v5zm2.8-.3c0 .1 0 .2-.1.3-.1.1-.2.1-.3.1-.1 0-.2 0-.3-.1-.1-.1-.1-.2-.1-.3 0-.1 0-.2.1-.3.1-.1.2-.1.3-.1.1 0 .2 0 .3.1 0 .1.1.2.1.3zm3.8-1.4c0 .5-.2.9-.5 1.3-.3.3-.8.5-1.3.5-.3 0-.6-.1-.8-.2-.2-.1-.4-.3-.6-.5l.3-.3c.2.2.3.4.5.4.2.1.4.1.6.1.4 0 .7-.1.9-.3.2-.2.4-.5.4-.9s-.1-.6-.3-.9c-.2-.2-.5-.3-.9-.3-.2 0-.4 0-.6.1-.2.1-.4.2-.5.3v-.2c.1-.5.3-1.2.5-2.3h2.1v.5h-1.7l-.4 1.2c.1 0 .2-.1.3-.1h.3c.5 0 .9.2 1.2.5.3.2.5.6.5 1.1zm7.8 1.7h-.6l-.5-3.4-1.6 3.5-1.6-3.5-.5 3.4h-.6l.8-5.1 1.9 4.1 1.9-4.1.8 5.1zm5-2l-.8-1.9-.8 1.9h1.6zm1.5 2H80l-.6-1.5h-2.1l-.6 1.5H76l2.3-5.1 2.3 5.1zm3.6-1.9c0 .7-.1 1.2-.4 1.5-.3.3-.7.5-1.3.5-.6 0-1-.2-1.3-.5-.3-.3-.4-.8-.4-1.5v-3.1h.6V60c0 .4.1.8.3 1 .2.2.5.3.9.3s.7-.1.9-.3c.2-.2.3-.6.3-1v-3.2h.6v3.1zm3.5.5c0 .4-.1.8-.4 1-.3.3-.7.4-1.1.4-.3 0-.6-.1-.9-.2-.2-.2-.4-.4-.5-.6l.4-.3c.1.2.2.4.4.5.2.1.4.2.6.2.3 0 .5-.1.7-.2.2-.2.3-.4.3-.7 0-.2-.1-.4-.2-.6-.2-.2-.4-.3-.8-.5s-.7-.4-.9-.6c-.2-.2-.3-.5-.3-.8 0-.4.1-.7.4-.9.2-.2.6-.3 1-.3.2 0 .5 0 .7.1.2.1.3.2.5.4l-.6.3-.3-.3c-.1-.1-.3-.1-.5-.1s-.4.1-.6.2c-.1.1-.2.3-.2.5s.1.3.2.5c.1.1.3.3.6.4 1 .5 1.5 1.1 1.5 1.6zm3-3.1h-1.2v4.5h-.6v-4.5h-1.2v-.5h2.9v.5zm2.5.8c0-.3-.1-.5-.3-.6-.2-.1-.5-.2-.9-.2h-.4v1.6h.4c.4 0 .7-.1.9-.2.2-.1.3-.3.3-.6zm.8 3.7h-.7l-1.5-2.4h-.2v2.4H91v-5h1c.5 0 .9.1 1.2.3.3.2.4.6.4 1s-.1.7-.4.9c-.2.2-.6.3-1 .4l1.8 2.4zm3.2-2l-.8-1.9-.8 1.9h1.6zm1.4 2H98l-.6-1.5h-2.1l-.6 1.5H94l2.3-5.1 2.3 5.1zm2.3 0H99v-5h.6v4.5h1.3v.5zm.9 0h-.6v-5h.6v5zm3.5-2l-.8-1.9-.8 1.9h1.6zm1.4 2h-.6l-.6-1.5h-2.1l-.6 1.5h-.6l2.3-5.1 2.2 5.1zm4.8.1l-3.9-3.9v3.8h-.6v-5.1l3.9 3.9v-3.8h.6v5.1zm3.6-1.5c0 .4-.1.8-.4 1-.3.3-.7.4-1.1.4-.3 0-.6-.1-.9-.2-.2-.2-.4-.4-.5-.6l.4-.3c.1.2.2.4.4.5.2.1.4.2.6.2.3 0 .5-.1.7-.2.2-.2.3-.4.3-.7 0-.2-.1-.4-.2-.6-.2-.2-.4-.3-.8-.5s-.7-.4-.9-.6c-.2-.2-.3-.5-.3-.8 0-.4.1-.7.4-.9s.6-.3 1-.3c.2 0 .5 0 .7.1.2.1.4.2.5.4l-.4.4-.3-.3c-.1-.1-.3-.1-.5-.1s-.4.1-.6.2-.2.3-.2.5.1.3.2.5c.1.1.3.3.6.4.8.4 1.3 1 1.3 1.5zm1.5 1.1c0 .1 0 .2-.1.3-.1.1-.2.1-.3.1-.1 0-.2 0-.3-.1-.1-.1-.1-.2-.1-.3 0-.1 0-.2.1-.3.1-.1.2-.1.3-.1.1 0 .2 0 .3.1 0 .1.1.2.1.3zM13.5 10.5c.2.5 2.3 1.1 4.4.6 2.2-.6 4.3-3 4.3-3s-3.1-1-5.2-.4c-.3.1-.5.2-.7.3.1-.2.2-.5.3-.7.7-2.1-.1-5.3-.1-5.3S14 4 13.2 6.1c-.6 2-.2 4 .3 4.4z"/><path class="st0" d="M24.1 4.5c2-1.4 3.5-4.5 3.5-4.5s-3.5 0-5.5 1.3-3 3.5-2.7 4c.2.4 2.6.5 4.7-.8zM7.9 18.6c.3.5 2.7.8 4.9-.2 2.3-1 4.2-4.1 4.2-4.1s-3.5-.5-5.8.5c-.3.1-.5.3-.8.4.1-.3.2-.6.2-.9.4-2.5-1-5.7-1-5.7s-2.4 2.6-2.8 5.1c-.4 2.5.5 4.6 1.1 4.9z"/><path class="st0" d="M4.6 28.5c.6.5 3.4.1 5.6-1.8 2.3-1.9 3.5-6 3.5-6s-4.2.5-6.5 2.5c-.3.2-.5.5-.8.7v-1.1c-.3-3-3-6.3-3-6.3s-1.9 3.8-1.6 6.8c.4 2.9 2.1 5 2.8 5.2z"/><path class="st0" d="M5.2 38c.1 0 .2-.1.2-.3 1-.1 3.1-1.3 4.3-3.4 1.5-2.5 1.4-6.6 1.4-6.6S7.3 29.5 5.7 32c-.2.3-.4.7-.5 1-.1-.3-.2-.5-.3-.8C3.6 29.6 0 27.4 0 27.4s-.6 4.1.7 6.7c1.4 2.8 3.9 4.2 4.5 3.9z"/><path class="st0" d="M9.1 47.4c.1-.1.1-.2.1-.3.8-.4 2.3-2.2 2.7-4.6.5-2.8-1-6.6-1-6.6s-2.8 3-3.3 5.8c-.1.4-.1.8-.1 1.1l-.6-.6c-2.1-2-6-2.8-6-2.8s.9 4 3 6c2 2 4.8 2.5 5.2 2zM14.6 54.4c.7-.5 1.6-2.2 1.5-4.2-.1-2.3-2.4-5-2.4-5s-1.9 2.9-1.7 5.2c0 .3.1.6.1.9-.2-.1-.4-.3-.6-.4-2.3-1.2-6.1-1.1-6.1-1.1s1.7 3 4 4.2c2.3 1.2 4.9 1.1 5.2.6v-.2zM22.2 59.8c0-.1 0-.2-.1-.3.3-.6.5-2.3-.3-3.9-.9-1.9-3.3-3.6-3.3-3.6s-.5 3 .4 4.9c.1.3.3.5.4.7-.2-.1-.4-.1-.6-.1-2.1-.4-4.8.8-4.8.8s2.2 2 4.3 2.4c2 .4 3.9-.4 4-.9zM29.4 61.6c.1-.6-.2-2.2-1.4-3.4-1.4-1.5-4.2-2.3-4.2-2.3s.4 2.7 1.7 4.2l.6.6h-.6c-2.1.2-4.4 2-4.4 2s2.6 1.2 4.7 1c2.1-.2 3.6-1.5 3.6-1.9.2 0 .1-.1 0-.2z"/><g><path class="st0" d="M160.1 10.5c-.2.5-2.3 1.1-4.4.6-2.2-.6-4.3-3-4.3-3s3.1-1 5.2-.4c.3.1.5.2.7.3-.1-.2-.2-.5-.3-.7-.7-2.1.1-5.3.1-5.3s2.5 2 3.3 4.1c.7 2 .2 4-.3 4.4z"/><path class="st0" d="M149.5 4.5C147.4 3.2 146 0 146 0s3.5 0 5.5 1.3c2.1 1.3 3 3.5 2.7 4-.2.4-2.6.5-4.7-.8zM165.7 18.6c-.3.5-2.7.8-4.9-.2-2.3-1-4.2-4.1-4.2-4.1s3.5-.5 5.8.5c.3.1.5.3.8.4-.1-.3-.2-.6-.2-.9-.4-2.5 1-5.7 1-5.7s2.4 2.6 2.8 5.1c.4 2.5-.5 4.6-1.1 4.9z"/><path class="st0" d="M169 28.5c-.6.5-3.4.1-5.6-1.8-2.3-1.9-3.5-6-3.5-6s4.2.5 6.5 2.5c.3.2.5.5.8.7v-1.1c.3-3 3-6.3 3-6.3s1.9 3.8 1.6 6.8c-.4 2.9-2.1 5-2.8 5.2z"/><path class="st0" d="M168.4 38c-.1 0-.2-.1-.3-.3-1-.1-3.1-1.3-4.3-3.4-1.5-2.5-1.4-6.6-1.4-6.6s3.8 1.8 5.4 4.3c.2.3.4.7.5 1 .1-.3.2-.5.3-.8 1.3-2.6 4.9-4.8 4.9-4.8s.6 4.1-.7 6.7c-1.3 2.8-3.8 4.2-4.4 3.9z"/><path class="st0" d="M164.5 47.4c-.1-.1-.1-.2-.1-.3-.8-.4-2.3-2.2-2.7-4.6-.5-2.8 1-6.6 1-6.6s2.8 3 3.3 5.8c.1.4.1.8.1 1.1l.6-.6c2.1-2 6-2.8 6-2.8s-.9 4-3 6c-2 2-4.7 2.5-5.2 2zM159.1 54.4c-.7-.5-1.6-2.2-1.5-4.2.1-2.3 2.4-5 2.4-5s1.9 2.9 1.7 5.2c0 .3-.1.6-.1.9.2-.1.4-.3.6-.4 2.3-1.2 6.1-1.1 6.1-1.1s-1.7 3-4 4.2c-2.3 1.2-4.9 1.1-5.2.6 0 0-.1-.1 0-.2zM151.5 59.8c0-.1 0-.2.1-.3-.3-.6-.5-2.3.3-3.9.9-1.9 3.3-3.6 3.3-3.6s.5 2.9-.4 4.9c-.1.3-.3.5-.4.7.2-.1.4-.1.6-.1 2.1-.4 4.8.8 4.8.8s-2.2 2-4.3 2.4c-2.1.4-4-.4-4-.9zM144.2 61.6c-.1-.6.2-2.2 1.4-3.4 1.4-1.5 4.2-2.3 4.2-2.3s-.4 2.7-1.7 4.2l-.6.6h.6c2.1.2 4.4 2 4.4 2s-2.6 1.2-4.7 1c-2.1-.2-3.6-1.5-3.6-1.9-.1 0-.1-.1 0-.2z"/></g></svg>