<svg xmlns="http://www.w3.org/2000/svg"><defs><clipPath id="clip0"><path fill="#fff" d="M0 0h40.235v40.235H0z"/></clipPath></defs><symbol id="facebook"><g clip-path="url(#clip0)"><path fill-rule="evenodd" clip-rule="evenodd" d="M0 20.23c0 10.002 7.264 18.319 16.765 20.005v-14.53h-5.03v-5.587h5.03v-4.471c0-5.03 3.24-7.823 7.824-7.823 1.452 0 3.017.223 4.47.446v5.142h-2.57c-2.46 0-3.018 1.229-3.018 2.794v3.912h5.364l-.893 5.587H23.47v14.53c9.5-1.686 16.764-10.002 16.764-20.005C40.235 9.103 31.182 0 20.118 0 9.053 0 0 9.103 0 20.23z" fill="#fff"/></g></symbol><symbol id="mail"><path d="M2.229.909A5.143 5.143 0 0 1 5.143 0h37.714c1.041 0 2.057.318 2.914.909L24 11.794 2.229.91zm45.548 2.828c.145.455.22.929.223 1.406v24a5.143 5.143 0 0 1-5.143 5.143H5.143A5.143 5.143 0 0 1 0 29.143v-24c.003-.477.078-.951.223-1.406L23.229 15.24a1.714 1.714 0 0 0 1.542 0L47.777 3.737zM15.43 24H6.857v3.429h8.572V24z" fill="#fff"/></symbol><symbol id="instagram" viewBox="0 0 42.8 42.8"><style>.st0{fill:#fff}</style><path class="st0" d="M42.6 12.6c0-1.8-.4-3.6-1-5.3-.6-1.4-1.4-2.7-2.5-3.8C38 2.4 36.7 1.6 35.3 1c-1.7-.6-3.4-1-5.2-1h-8.7c-5.8 0-6.5 0-8.8.1-1.8 0-3.5.4-5.2 1-1.4.6-2.7 1.4-3.8 2.5C2.5 4.7 1.7 6 1.1 7.4c-.6 1.7-1 3.4-1 5.2-.1 2.3-.1 3-.1 8.8 0 5.8 0 6.5.1 8.8 0 1.8.4 3.5 1 5.2.6 1.4 1.4 2.7 2.5 3.8 1.1 1.1 2.4 1.9 3.8 2.5 1.7.6 3.4 1 5.2 1.1 2.3.1 3 .1 8.8.1 5.8 0 6.5 0 8.8-.1 1.8 0 3.5-.4 5.2-1 1.4-.6 2.7-1.4 3.8-2.5 1.1-1.1 1.9-2.4 2.5-3.8.6-1.7 1-3.4 1-5.2.1-2.3.1-3 .1-8.8 0-5.8 0-6.6-.2-8.9zM21.4 32.3c-6.1 0-11-4.9-11-11s4.9-11 11-11c2.9 0 5.7 1.2 7.8 3.2 2.1 2.1 3.2 4.9 3.2 7.8 0 2.9-1.2 5.7-3.2 7.8-2.1 2.1-4.9 3.2-7.8 3.2zm11.4-19.8c-1.4 0-2.6-1.1-2.6-2.6 0-.3.1-.7.2-1 .1-.3.3-.6.6-.8.2-.2.5-.4.8-.6s.6-.2 1-.2c.3 0 .7.1 1 .2s.6.3.8.6c.2.3.4.6.5.9.1.3.2.6.2 1 0 1.4-1.1 2.5-2.5 2.5z"/><path class="st0" d="M21.4 28.5c3.9 0 7.1-3.2 7.1-7.1s-3.2-7.1-7.1-7.1c-3.9 0-7.1 3.2-7.1 7.1s3.1 7.1 7.1 7.1z"/></symbol><symbol id="facebook-black"><g clip-path="url(#clip0)"><path fill-rule="evenodd" clip-rule="evenodd" d="M0 12.991c0 6.375 4.63 11.675 10.684 12.75v-9.26H7.48V12.92h3.205v-2.85c0-3.205 2.066-4.985 4.987-4.985.925 0 1.923.142 2.848.284v3.277h-1.638c-1.567 0-1.923.783-1.923 1.781v2.493h3.419l-.57 3.56h-2.85v9.26c6.056-1.074 10.685-6.373 10.685-12.749C25.642 5.901 19.872.1 12.822.1 5.768.099 0 5.9 0 12.99z"/></g></symbol><symbol id="insta-black"><path d="M27.237 8.57a9.885 9.885 0 0 0-.634-3.354 6.976 6.976 0 0 0-3.986-3.985A9.999 9.999 0 0 0 19.31.595C17.853.53 17.39.512 13.695.512c-3.696 0-4.17 0-5.616.083a9.999 9.999 0 0 0-3.307.636A6.973 6.973 0 0 0 .787 5.216a9.92 9.92 0 0 0-.634 3.308C.088 9.98.068 10.443.068 14.139s0 4.169.085 5.616a9.982 9.982 0 0 0 .634 3.31 6.978 6.978 0 0 0 3.987 3.984 9.964 9.964 0 0 0 3.307.68c1.457.066 1.92.085 5.615.085 3.696 0 4.17 0 5.616-.084a9.975 9.975 0 0 0 3.308-.634 6.988 6.988 0 0 0 3.986-3.986 9.967 9.967 0 0 0 .634-3.31c.065-1.456.085-1.918.085-5.616-.003-3.696-.003-4.165-.088-5.613zM13.686 21.13a6.996 6.996 0 0 1-6.998-6.997 6.996 6.996 0 0 1 11.946-4.948 6.997 6.997 0 0 1-4.948 11.945zm7.276-12.622a1.63 1.63 0 0 1-1.154-2.785 1.632 1.632 0 1 1 1.154 2.785z"/><path d="M13.685 18.677a4.545 4.545 0 1 0 0-9.09 4.545 4.545 0 0 0 0 9.09z"/></symbol><symbol id="mail-black"><path d="M1.83 1.226A3.278 3.278 0 0 1 3.686.647h24.035a3.28 3.28 0 0 1 1.858.58L15.705 8.164 1.829 1.226zM30.857 3.03c.092.29.14.592.142.896V19.22a3.278 3.278 0 0 1-3.278 3.278H3.687A3.278 3.278 0 0 1 .409 19.22V3.925c.002-.304.05-.606.142-.896l14.662 7.331a1.093 1.093 0 0 0 .983 0l14.662-7.33zM10.242 15.943H4.779v2.185h5.463v-2.185z"/></symbol></svg>