<svg width="32" height="32" viewBox="0 0 32 32" fill="none" xmlns="http://www.w3.org/2000/svg">
<path d="M11.798 15.8384C11.798 18.0606 13.6162 19.8788 15.8384 19.8788C18.0606 19.8788 19.8788 18.0606 19.8788 15.8384C19.8788 13.6161 18.0606 11.7979 15.8384 11.7979C13.6162 11.7979 11.798 13.6161 11.798 15.8384Z" fill="white"/>
<path d="M11.798 15.8384C11.798 18.0606 13.6162 19.8788 15.8384 19.8788C18.0606 19.8788 19.8788 18.0606 19.8788 15.8384C19.8788 13.6161 18.0606 11.7979 15.8384 11.7979C13.6162 11.7979 11.798 13.6161 11.798 15.8384Z" fill="white"/>
<path d="M19.4747 11.3939C19.4747 11.8384 19.8384 12.2021 20.2828 12.2021C20.7273 12.2021 21.0909 11.8384 21.0909 11.3939C21.0909 10.9495 20.7273 10.5858 20.2828 10.5858C19.8384 10.5858 19.4747 10.9495 19.4747 11.3939Z" fill="white"/>
<path d="M19.4747 11.3939C19.4747 11.8384 19.8384 12.2021 20.2828 12.2021C20.7273 12.2021 21.0909 11.8384 21.0909 11.3939C21.0909 10.9495 20.7273 10.5858 20.2828 10.5858C19.8384 10.5858 19.4747 10.9495 19.4747 11.3939Z" fill="white"/>
<path fill-rule="evenodd" clip-rule="evenodd" d="M16 32C24.8365 32 32 24.8365 32 16C32 7.16347 24.8365 0 16 0C7.16347 0 0 7.16347 0 16C0 24.8365 7.16347 32 16 32ZM10.9899 7.75758H20.6868C22.4647 7.75758 23.9192 9.21212 23.9192 10.9899V20.6869C23.9192 22.4646 22.4647 23.9192 20.6868 23.9192H10.9899C9.21212 23.9192 7.75758 22.4646 7.75758 20.6869V10.9899C7.75758 9.21212 9.21212 7.75758 10.9899 7.75758Z" fill="white"/>
<path fill-rule="evenodd" clip-rule="evenodd" d="M16 32C24.8365 32 32 24.8365 32 16C32 7.16347 24.8365 0 16 0C7.16347 0 0 7.16347 0 16C0 24.8365 7.16347 32 16 32ZM10.9899 7.75758H20.6868C22.4647 7.75758 23.9192 9.21212 23.9192 10.9899V20.6869C23.9192 22.4646 22.4647 23.9192 20.6868 23.9192H10.9899C9.21212 23.9192 7.75758 22.4646 7.75758 20.6869V10.9899C7.75758 9.21212 9.21212 7.75758 10.9899 7.75758Z" fill="white"/>
</svg>
