<svg width="32" height="32" viewBox="0 0 32 32" fill="none" xmlns="http://www.w3.org/2000/svg">
<g clip-path="url(#clip0_2026_2387)">
<path d="M32 16.0977C32 24.083 26.1413 30.703 18.4933 31.9043V20.7537H22.212L22.92 16.1403H18.4933V13.147C18.4933 11.8843 19.112 10.655 21.0933 10.655H23.1053V6.72699C23.1053 6.72699 21.2787 6.41499 19.5333 6.41499C15.888 6.41499 13.5067 8.62432 13.5067 12.623V16.139H9.45467V20.7523H13.5067V31.903C5.86 30.7003 0 24.0817 0 16.0977C0 7.26166 7.164 0.0976562 16 0.0976562C24.836 0.0976562 32 7.26032 32 16.0977Z" fill="white"/>
<path d="M32 16.0977C32 24.083 26.1413 30.703 18.4933 31.9043V20.7537H22.212L22.92 16.1403H18.4933V13.147C18.4933 11.8843 19.112 10.655 21.0933 10.655H23.1053V6.72699C23.1053 6.72699 21.2787 6.41499 19.5333 6.41499C15.888 6.41499 13.5067 8.62432 13.5067 12.623V16.139H9.45467V20.7523H13.5067V31.903C5.86 30.7003 0 24.0817 0 16.0977C0 7.26166 7.164 0.0976562 16 0.0976562C24.836 0.0976562 32 7.26032 32 16.0977Z" fill="white"/>
</g>
<defs>
<clipPath id="clip0_2026_2387">
<rect width="32" height="32" fill="white"/>
</clipPath>
</defs>
</svg>
