<svg width="32" height="32" viewBox="0 0 32 32" fill="none" xmlns="http://www.w3.org/2000/svg">
<path d="M19.2395 16L13.9178 12.9718V19.0283L19.2395 16Z" fill="white"/>
<path d="M19.2395 16L13.9178 12.9718V19.0283L19.2395 16Z" fill="white"/>
<path fill-rule="evenodd" clip-rule="evenodd" d="M16 32C24.8365 32 32 24.8365 32 16C32 7.16347 24.8365 0 16 0C7.16347 0 0 7.16347 0 16C0 24.8365 7.16347 32 16 32ZM23.9554 9.25462C24.8319 9.49041 25.5217 10.1854 25.7559 11.067C26.1818 12.6655 26.1818 16 26.1818 16C26.1818 16 26.1818 19.3346 25.7567 20.9331C25.5217 21.8156 24.8319 22.5096 23.9563 22.7455C22.3679 23.1732 16 23.1732 16 23.1732C16 23.1732 9.6321 23.1732 8.04463 22.7455C7.16815 22.5096 6.47828 21.8147 6.24414 20.9331C5.81818 19.3346 5.81818 16 5.81818 16C5.81818 16 5.81818 12.6655 6.24414 11.067C6.47828 10.1845 7.16815 9.49041 8.04374 9.25462C9.6321 8.82694 16 8.82694 16 8.82694C16 8.82694 22.3679 8.82694 23.9554 9.25462Z" fill="white"/>
<path fill-rule="evenodd" clip-rule="evenodd" d="M16 32C24.8365 32 32 24.8365 32 16C32 7.16347 24.8365 0 16 0C7.16347 0 0 7.16347 0 16C0 24.8365 7.16347 32 16 32ZM23.9554 9.25462C24.8319 9.49041 25.5217 10.1854 25.7559 11.067C26.1818 12.6655 26.1818 16 26.1818 16C26.1818 16 26.1818 19.3346 25.7567 20.9331C25.5217 21.8156 24.8319 22.5096 23.9563 22.7455C22.3679 23.1732 16 23.1732 16 23.1732C16 23.1732 9.6321 23.1732 8.04463 22.7455C7.16815 22.5096 6.47828 21.8147 6.24414 20.9331C5.81818 19.3346 5.81818 16 5.81818 16C5.81818 16 5.81818 12.6655 6.24414 11.067C6.47828 10.1845 7.16815 9.49041 8.04374 9.25462C9.6321 8.82694 16 8.82694 16 8.82694C16 8.82694 22.3679 8.82694 23.9554 9.25462Z" fill="white"/>
</svg>
