<svg width="198" height="214" viewBox="0 0 198 214" fill="none" xmlns="http://www.w3.org/2000/svg">
<path d="M44.3411 28.4284C44.4617 27.5814 44.4014 27.7629 44.1602 28.8519C44.2808 28.4889 44.3411 28.3679 44.3411 28.4284Z" fill="white"/>
<path d="M54.5302 91.7744C38.3093 65.8187 42.9525 34.5388 44.1585 28.791C43.3746 30.6061 40.4198 38.29 38.4902 50.8745C40.1786 55.4122 41.6861 58.7399 42.2288 59.7684C42.4097 60.9785 42.8319 64.1247 43.0731 65.2742C41.1434 61.523 39.2741 56.8643 37.8872 52.8711C37.8269 53.0526 37.3445 56.1383 37.043 58.7399C39.6359 63.8221 41.5656 66.9078 44.2188 70.659C44.2791 70.8405 44.7615 72.7766 44.8218 72.9581C42.2892 69.6909 39.6962 65.5767 37.2842 61.039C37.1636 63.0961 37.1033 65.0927 37.1033 67.2708C39.7565 71.022 42.4701 74.4101 46.5102 78.4033C46.6308 78.7058 46.6911 78.8873 46.9926 79.7344C43.5555 76.8907 40.2992 73.6841 37.7063 70.659C37.7666 72.474 37.8872 73.9261 37.9475 75.1362C41.5052 79.2504 45.2439 82.7595 49.4649 85.9057C49.8268 86.6922 49.6459 86.3292 50.3092 87.6602C46.1484 84.9376 42.5907 81.973 39.1535 78.4638C39.5756 80.9444 39.9374 82.5175 40.1183 83.425C44.0379 86.8737 48.1383 89.7778 52.7212 92.1979C52.7815 92.319 53.6257 93.7105 53.686 93.8315C49.284 91.7139 45.3042 89.2333 41.3846 86.0267C41.5052 86.6922 42.4701 90.3829 42.7716 91.2299C48.6207 95.5256 52.7212 97.5827 57.5453 99.4583C57.7262 99.7608 57.9071 99.8818 58.4498 100.608C53.2036 98.7927 49.0428 96.5542 44.3394 93.408C44.7012 94.3761 45.3042 96.0096 46.3896 98.4297C51.9373 101.818 57.485 104.117 62.5503 105.327L63.6357 106.416C58.6307 105.448 53.686 104.056 47.3544 100.91C48.7413 103.633 49.465 104.843 50.2489 106.235C56.0981 108.776 62.49 110.228 68.2788 110.772L69.2437 111.559C62.5503 111.377 57.7865 110.349 52.5403 108.776C52.6609 108.957 54.4096 111.801 55.6157 113.555C62.9724 115.371 68.6406 115.734 74.4898 115.431C76.1783 116.52 75.7562 116.278 76.4195 116.702C69.4246 117.186 63.4548 116.46 57.8468 115.25C58.8116 116.581 59.897 118.154 62.0076 120.634C67.7965 121.542 76.8416 122.268 84.8013 121.3C90.5902 124.083 96.4394 126.019 102.409 127.592C103.676 126.745 105.062 125.716 106.208 124.869C85.4646 120.513 66.5301 111.075 54.5302 91.7744Z" fill="white"/>
<path d="M147.451 28.4284C147.33 27.5814 147.391 27.7629 147.632 28.8519C147.511 28.4889 147.391 28.3679 147.451 28.4284Z" fill="white"/>
<path d="M137.262 91.7744C153.483 65.8187 148.839 34.5388 147.633 28.791C148.417 30.6061 151.372 38.29 153.302 50.8745C151.613 55.4122 150.106 58.7399 149.563 59.7684C149.382 60.9785 148.96 64.1247 148.719 65.2742C150.648 61.523 152.518 56.8643 153.905 52.8711C153.965 53.0526 154.447 56.1383 154.749 58.7399C152.156 63.8221 150.226 66.9078 147.573 70.659C147.513 70.8405 147.03 72.7766 146.97 72.9581C149.503 69.6909 152.096 65.5767 154.508 61.039C154.628 63.0961 154.689 65.0927 154.689 67.2708C152.035 71.022 149.322 74.4101 145.282 78.4033C145.161 78.7058 145.101 78.8873 144.799 79.7344C148.236 76.8907 151.493 73.6841 154.086 70.659C154.025 72.474 153.905 73.9261 153.844 75.1362C150.287 79.2504 146.548 82.7595 142.327 85.9057C141.965 86.6922 142.146 86.3292 141.483 87.6602C145.643 84.9376 149.201 81.973 152.638 78.4638C152.216 80.9444 151.854 82.5175 151.674 83.425C147.754 86.8737 143.654 89.7778 139.071 92.1979C139.01 92.319 138.166 93.7105 138.106 93.8315C142.508 91.7139 146.488 89.2333 150.407 86.0267C150.287 86.6922 149.322 90.3829 149.02 91.2299C143.171 95.5256 139.071 97.5827 134.247 99.4583C134.066 99.7608 133.885 99.8818 133.342 100.608C138.588 98.7927 142.749 96.5542 147.452 93.408C147.091 94.3761 146.488 96.0096 145.402 98.4297C139.855 101.818 134.307 104.117 129.242 105.327L128.156 106.416C133.161 105.448 138.106 104.056 144.437 100.91C143.051 103.633 142.327 104.843 141.543 106.235C135.694 108.776 129.302 110.228 123.513 110.772L122.548 111.559C129.242 111.377 134.005 110.349 139.252 108.776C139.131 108.957 137.382 111.801 136.176 113.555C128.819 115.371 123.151 115.734 117.242 115.431C115.553 116.52 115.975 116.278 115.312 116.702C122.307 117.186 128.277 116.46 133.885 115.25C132.92 116.581 131.835 118.154 129.724 120.634C123.935 121.542 114.89 122.268 106.93 121.3C101.141 124.083 95.2922 126.019 89.3224 127.592C88.0561 126.745 86.6692 125.716 85.5234 124.869C106.327 120.513 125.262 111.075 137.262 91.7744Z" fill="white"/>
<path d="M95.6968 116.453C135.829 100.292 141.216 69.1167 141.216 69.1167L143.214 24.5544C136.495 21.4188 130.987 15.5093 127.597 8.03199C123.965 10.6852 119.667 12.1927 115.067 12.1927C107.077 12.1927 100.055 7.60988 95.6362 0.554688C91.278 7.60988 84.1958 12.1927 76.2057 12.1927C71.6053 12.1927 67.3681 10.6852 63.6757 8.03199C60.2859 15.5093 54.7776 21.4188 48.0586 24.5544L50.0561 69.1167C50.1167 69.177 55.5645 100.353 95.6968 116.453Z" fill="white"/>
<path d="M108.616 23.2487C107.391 24.9682 106.167 26.6876 104.943 28.4071C102.801 29.5739 100.169 30.3109 97.3536 30.4951C96.8027 30.4951 96.1906 30.4951 95.6398 30.4951C95.0889 30.4951 94.5993 30.4951 94.0484 30.4951C91.1105 30.2494 88.4174 29.4511 86.214 28.2229C85.0511 26.5648 83.8882 24.9067 82.6641 23.1873C83.6434 23.9242 85.4184 23.9856 85.4796 25.398C86.0304 25.0296 86.5813 24.6611 87.2545 24.7839C87.683 24.8453 88.0502 25.091 88.4175 25.2752C88.4175 25.3366 88.3562 25.3366 88.3562 25.398C88.2338 25.398 88.0502 25.3366 87.9278 25.3366C87.1933 25.2752 86.7037 25.6437 86.8261 26.2578C86.8873 26.5034 86.8873 26.8105 86.9485 27.1789C87.3769 27.3018 87.8666 27.5474 88.4175 27.7316C89.2131 27.9159 89.7028 27.7316 89.9476 27.1175C90.07 26.8105 90.1312 26.5034 90.1312 26.1964C90.1312 26.0735 90.0088 25.8893 89.8864 25.8279C89.4579 25.5209 89.3355 25.2138 89.5804 24.9067C89.8864 24.6611 90.3761 24.5997 90.6821 24.8453C91.0493 25.091 90.9881 25.4594 90.5597 25.7665C90.4985 25.8279 90.4373 25.8279 90.3761 25.8893C90.9269 26.5648 91.4778 27.3018 92.7019 27.1789C93.1303 27.1175 93.6812 26.9947 93.926 26.7491C94.7829 25.9507 95.2726 24.9682 94.8441 23.9242C94.7829 23.74 94.4769 23.6171 94.2932 23.4943C94.1096 23.6785 93.8648 23.8628 93.8036 24.047C93.62 24.6611 93.4364 24.9682 92.5183 25.2752C92.9467 24.6611 92.8243 24.1084 92.5795 23.5557C92.151 22.5732 92.8243 22.0205 94.1708 22.2047C94.2932 22.2047 94.4157 22.2661 94.5993 22.2661C94.1708 21.2221 95.3949 20.7308 95.701 19.8711C95.9458 20.6694 97.2312 21.2221 96.8027 22.2661C96.9251 22.2661 97.0475 22.2661 97.1088 22.2047C98.2105 21.959 99.4346 22.5117 98.8225 23.6171C98.5165 24.1084 98.4553 24.6611 98.8225 25.1524C98.2105 25.091 97.782 24.7225 97.6596 24.1698C97.5984 24.047 97.6596 23.8628 97.5372 23.7399C97.4148 23.6171 97.2311 23.4943 97.0475 23.4943C96.9251 23.4943 96.6803 23.6171 96.6191 23.7399C96.1294 24.5383 96.6803 26.2578 97.5372 26.8105C98.2716 27.3018 99.3122 27.3632 100.047 26.8719C100.414 26.6262 100.72 26.2578 101.026 26.0121C100.781 25.7665 100.597 25.5823 100.536 25.398C100.414 25.091 100.597 24.8453 101.026 24.7225C101.393 24.5997 101.76 24.7225 101.944 24.9682C102.128 25.2138 102.128 25.5823 101.699 25.7051C101.21 25.8893 101.332 26.135 101.332 26.3806C101.516 27.8544 102.372 28.1615 104.025 27.4246C104.392 27.2403 104.698 27.1175 104.515 26.7491C104.453 26.6876 104.515 26.5648 104.515 26.5034C104.698 25.6437 104.27 25.3366 103.107 25.4594C103.046 25.4594 102.985 25.4594 102.923 25.4594C103.658 24.6611 104.515 24.5997 105.8 25.4594C105.861 24.047 107.636 23.9856 108.616 23.2487Z" fill="#0F1F31"/>
<path d="M90.1604 37.2311C90.2236 37.2311 90.2868 37.2311 90.3499 37.2311C89.5918 36.8721 88.9601 36.1539 88.7074 35.4358C86.6859 35.4358 84.7275 35.4358 82.7059 35.4358C82.011 35.4358 80.8738 34.957 80.7475 35.9744C80.6211 37.1713 81.8214 37.1114 82.7691 37.1713C83.1481 37.1713 83.464 37.1713 83.843 37.1114C84.0325 36.9319 84.1589 36.9319 84.3484 37.1114C85.2328 37.7697 84.7906 38.7272 84.7906 39.5052C84.7906 58.4161 84.7906 77.2672 84.7906 96.1781V97.1356H89.9709V95.7592C89.9709 76.4294 89.9709 57.1594 89.9077 37.8296C89.8445 37.5902 89.9077 37.4107 90.1604 37.2311Z" fill="#0F1F31"/>
<path d="M107.458 35.4292C106.209 35.4292 104.959 35.4292 103.709 35.4292C103.841 35.9078 103.775 36.3863 103.709 36.805C103.512 37.5228 102.986 38.0612 102.328 38.4201C101.671 38.779 100.75 38.8986 100.027 38.7192C99.9609 38.9584 99.9609 39.1379 99.9609 39.3173C99.9609 41.3511 99.9609 43.3251 99.9609 45.3588C99.9609 61.33 100.027 77.3012 100.027 93.2723C100.092 93.2723 100.092 93.2125 100.158 93.2125C102.065 91.7171 103.512 89.9824 104.564 87.8888C104.959 87.1112 105.288 86.2737 105.551 85.3765C105.551 72.0373 105.551 58.6981 105.551 45.3588C105.551 43.4447 105.551 41.5306 105.551 39.6164C105.551 38.0612 105.485 36.9246 107.853 37.1639C108.51 37.2237 109.694 36.9845 109.562 36.0274C109.299 34.9507 108.116 35.4292 107.458 35.4292Z" fill="#0F1F31"/>
<path d="M115.221 32.4268H76.047L74.9688 30.4951H116.299L115.221 32.4268Z" fill="#0F1F31"/>
<path d="M112.457 34.3574H79.7773V37.2549H112.457V34.3574Z" fill="#0F1F31"/>
<path d="M78.1622 94.5858C75.9294 93.7057 74.3534 92.4149 73.5653 90.5961C75.0101 90.5961 76.1921 90.3028 77.2429 89.6574C78.2936 89.012 78.8189 88.1906 78.8189 87.1345C78.8189 86.0784 78.2936 85.1984 77.1772 84.553C76.0608 83.9076 74.8131 83.6143 73.4997 83.6143C72.1206 83.6143 70.9386 83.9663 69.8878 84.6703C68.8371 85.3744 68.2461 86.2545 68.2461 87.4279C68.2461 89.2467 68.7715 90.8308 69.8878 92.1216C71.0042 93.4123 72.449 94.5271 74.2877 95.3485C74.9444 95.6418 75.6011 95.9352 76.2578 96.1699C76.5862 95.4072 77.2428 94.8205 78.1622 94.5858Z" fill="#0F1F31"/>
<path d="M99.8696 35.3232V82.2562C99.8696 84.1239 99.5707 85.9314 98.9728 87.6183C98.5543 88.763 98.0163 89.7872 97.3586 90.7512C96.9999 91.2332 96.6412 91.6549 96.2825 92.1369C95.2063 93.2816 93.9509 94.1853 92.4562 94.9083C92.2171 95.0288 92.0377 95.089 91.7986 95.2095C91.1409 95.5107 90.4833 95.6915 89.7659 95.8722C88.5104 96.1735 87.0755 96.3542 85.5809 96.3542C85.3418 96.3542 85.0429 96.3542 84.8037 96.3542C83.4286 96.294 82.0536 96.1132 80.7383 95.812C81.1568 96.3542 81.2764 97.0772 81.2764 97.7399C82.8906 97.9809 84.5048 98.1014 86.1788 98.1014C88.5104 98.1014 90.6626 97.8002 92.6953 97.2579C93.1736 97.1374 93.6519 96.9567 94.0704 96.8362C95.2661 96.4145 96.402 95.9325 97.4184 95.33C98.375 94.7878 99.3315 94.1251 100.169 93.4021C100.228 93.4021 100.228 93.3418 100.288 93.3418C102.022 91.8356 103.337 90.0885 104.294 87.9798C104.652 87.1966 104.951 86.3531 105.19 85.4494C105.549 84.0637 105.729 82.678 105.729 81.1718V36.2872C103.636 36.1065 101.723 35.8052 99.8696 35.3232Z" fill="#0F1F31"/>
<path d="M79.7764 78.7861H67.2812V98.1025H79.7764V78.7861Z" fill="white"/>
<path d="M85.3624 96.2743C86.3532 96.8616 82.9406 98.1016 81.8398 98.1016C80.7389 98.1016 78.8125 96.4048 78.8125 95.0997C78.8125 93.7945 79.6932 93.2725 80.849 93.2725C82.0049 93.2725 84.3717 95.6217 85.3624 96.2743Z" fill="#0F1F31"/>
<path fill-rule="evenodd" clip-rule="evenodd" d="M95.6354 5.38281L96.1801 6.27003C100.08 12.6224 106.304 16.6629 113.24 16.6629C117.211 16.6629 120.953 15.3732 124.177 13.0172L124.816 12.5504L125.138 13.275C128.108 19.9605 133.028 25.2478 138.985 28.0921L139.368 28.2752L137.533 69.59L137.526 69.63L136.895 69.5208C137.526 69.63 137.526 69.6305 137.526 69.6311L137.525 69.6328L137.524 69.6381L137.521 69.6566C137.518 69.6723 137.514 69.6949 137.509 69.7241C137.497 69.7826 137.481 69.8677 137.457 69.9782C137.411 70.1993 137.338 70.5219 137.234 70.9358C137.024 71.7634 136.685 72.9561 136.163 74.4308C135.121 77.3798 133.35 81.4586 130.43 86.0006C124.587 95.0908 114.157 106.018 95.8145 113.457L95.5749 113.554L95.3354 113.457C76.9927 106.018 66.5623 95.0908 60.7344 86C57.8225 81.4577 56.0621 77.3782 55.0363 74.4276C54.5234 72.9523 54.1936 71.7579 53.9951 70.9273C53.896 70.5124 53.8291 70.1861 53.7884 69.9592C53.7683 69.8468 53.7536 69.7535 53.7449 69.6836C53.7408 69.651 53.7364 69.6112 53.7345 69.5726C53.734 69.5616 53.7328 69.5352 53.7342 69.5016L51.9023 28.2732L52.2885 28.0909C58.1809 25.3083 63.1019 20.0227 66.134 13.2727L66.4565 12.5548L67.092 13.0159C70.26 15.3148 74.0027 16.6629 78.0304 16.6629C84.9666 16.6629 91.191 12.6224 95.0907 6.27003L95.6354 5.38281ZM136.258 69.4487L138.052 29.0666C132.175 26.1411 127.335 20.9655 124.292 14.5057C121.008 16.7286 117.236 17.9489 113.24 17.9489C106.101 17.9489 99.7499 13.9693 95.6354 7.79642C91.5209 13.9693 85.1698 17.9489 78.0304 17.9489C73.9779 17.9489 70.2066 16.6751 66.9771 14.5019C63.884 21.0153 59.045 26.1948 53.2189 29.0684L55.0171 69.5409C55.0227 69.5817 55.0326 69.6449 55.0481 69.7313C55.0837 69.9301 55.1453 70.232 55.2397 70.6271C55.4283 71.4166 55.746 72.5696 56.2446 74.0035C57.2416 76.8712 58.9599 80.8572 61.8104 85.3036C67.4822 94.1509 77.6468 104.838 95.5749 112.167C113.503 104.838 123.668 94.1509 129.355 85.303C132.213 80.8563 133.943 76.8696 134.957 74.0003C135.465 72.5658 135.793 71.4111 135.993 70.6187C136.094 70.2225 136.162 69.9169 136.205 69.7123C136.217 69.6564 136.227 69.608 136.235 69.5674C136.242 69.5337 136.247 69.5053 136.251 69.4823C136.254 69.4694 136.256 69.4582 136.258 69.4487Z" fill="#0F1F31"/>
<path d="M106.544 31.4609H83.8365L82.6641 30.4951H107.654L106.544 31.4609Z" fill="white"/>
<path d="M125.271 72.1461L118.082 61.0392C118.199 60.8581 118.257 60.677 118.257 60.4355C118.257 59.8923 117.848 59.4697 117.322 59.4697C116.796 59.4697 116.387 59.8923 116.387 60.4355C116.387 60.677 116.445 60.8581 116.562 61.0392L109.373 72.1461C109.022 71.965 108.73 71.7235 108.613 71.4821C109.198 78.1824 117.264 78.7861 117.264 78.7861C117.264 78.7861 125.33 78.1824 125.914 71.4821C125.914 71.7235 125.622 71.965 125.271 72.1461ZM111.01 72.6894L111.477 72.5686C111.477 72.5686 111.01 71.2406 113.289 67.6792L113.231 67.7395L116.972 61.9446V71.8443C115.569 73.0515 112.939 73.1119 111.01 72.6894ZM117.731 71.8443V61.9446L121.472 67.7395L121.414 67.6792C123.752 71.2406 123.226 72.5686 123.226 72.5686L123.693 72.6894C121.823 73.1119 119.193 73.0515 117.731 71.8443Z" fill="#0F1F31"/>
<path d="M80.0916 60.2242L72.9024 48.562C73.0193 48.3718 73.0777 48.1817 73.0777 47.9282C73.0777 47.3577 72.6686 46.9141 72.1425 46.9141C71.6165 46.9141 71.2074 47.3577 71.2074 47.9282C71.2074 48.1817 71.2658 48.3718 71.3827 48.562L64.1935 60.2242C63.8428 60.0341 63.5505 59.7806 63.4336 59.527C64.0181 66.5624 72.0841 67.1962 72.0841 67.1962C72.0841 67.1962 80.1501 66.5624 80.7346 59.527C80.7346 59.7806 80.4423 59.9707 80.0916 60.2242ZM65.7716 60.7947L66.2392 60.6679C66.2392 60.6679 65.7716 59.2735 68.0511 55.534L67.9927 55.5974L71.7334 49.5127V59.9073C70.3306 61.1116 67.7004 61.2384 65.7716 60.7947ZM72.5517 59.9073V49.5127L76.2924 55.5974L76.234 55.534C78.5719 59.2735 78.0459 60.6679 78.0459 60.6679L78.5135 60.7947C76.5847 61.2384 73.9545 61.1116 72.5517 59.9073Z" fill="#0F1F31"/>
<path fill-rule="evenodd" clip-rule="evenodd" d="M117.913 61.4004L72.0898 49.0117L72.4023 47.8789L118.226 60.2676L117.913 61.4004Z" fill="#0F1F31"/>
<path fill-rule="evenodd" clip-rule="evenodd" d="M117.503 60.4345L72.0898 47.721L72.8126 44.9814L118.226 57.695L117.503 60.4345Z" fill="white"/>
<path d="M97.8686 36.6422C97.5886 36.3425 97.3647 35.9228 97.2527 35.5031V35.3232C96.9727 35.3232 96.6368 35.3232 96.3568 35.3232C96.0769 35.8628 95.405 36.4624 94.8451 36.5223C93.9493 36.6422 93.1094 36.882 92.2695 37.2418C92.7175 37.4816 92.7174 38.0811 92.7174 39.52V46.8344C92.7174 62.842 92.7174 78.7897 92.7174 94.7974V97.1356H92.8854C93.3334 97.0157 93.7813 96.8358 94.1732 96.7159C95.293 96.2962 96.3568 95.8166 97.3087 95.2171V90.6606C97.3087 76.3316 97.3087 62.0626 97.3087 47.7936C97.3087 46.9543 97.3087 46.1149 97.3087 45.3355C97.3087 43.357 97.3087 41.3786 97.3087 39.4001C97.3087 38.6207 96.8607 37.6614 97.8126 37.0619C97.8686 37.0019 97.9805 37.0019 98.0365 36.942C97.9805 36.882 97.9245 36.7621 97.8686 36.6422Z" fill="#0F1F31"/>
<path d="M107.65 28.5625H83.6211V30.4941H107.65V28.5625Z" fill="white"/>
<path d="M2.93643 156.127V155.453H13.3398V156.127H12.4589C11.4521 156.127 10.7389 156.421 10.2775 157.01C9.98386 157.389 9.85802 158.273 9.85802 159.788V171.7C9.85802 173.594 9.64827 175.067 9.22878 176.203C9.01904 176.75 8.76733 177.298 8.43174 177.803C8.09615 178.308 7.67666 178.771 7.17327 179.149C6.71183 179.528 6.16651 179.865 5.53727 180.075C4.90804 180.286 4.27879 180.412 3.6076 180.412C3.02032 180.412 2.51694 180.328 2.09745 180.202C1.63601 180.033 1.25847 179.823 0.964822 179.57C0.671179 179.318 0.41948 179.023 0.251684 178.687C0.0838878 178.35 0 178.013 0 177.634C0 176.961 0.209755 176.456 0.587296 176.203C0.964838 175.909 1.38431 175.782 1.8038 175.782C1.9716 175.782 2.1394 175.782 2.3072 175.824C2.47499 175.867 2.64279 175.951 2.81059 176.119C2.97838 176.287 3.14618 176.54 3.35592 176.835C3.56567 177.129 3.73346 177.592 3.98516 178.139C4.23685 178.771 4.61438 179.107 5.07582 179.107C5.41141 179.107 5.70507 178.897 5.95677 178.518C6.25041 178.139 6.37626 177.424 6.37626 176.414V159.746C6.37626 159.157 6.37624 158.694 6.33429 158.357C6.33429 157.979 6.29235 157.684 6.20845 157.473C6.12455 157.221 6.04065 157.053 5.9148 156.926C5.78895 156.8 5.62118 156.674 5.41143 156.547C4.8661 156.253 4.32074 156.127 3.81735 156.127H2.93643Z" fill="white"/>
<path d="M33.3513 156.127V155.453H41.9508V156.127H41.0279C40.1051 156.127 39.35 156.547 38.8466 157.347C38.5949 157.726 38.4691 158.568 38.4691 159.957V169.848C38.4691 172.247 38.2174 174.141 37.714 175.572C37.4623 176.245 37.1267 176.877 36.6233 177.466C36.1619 178.055 35.5746 178.56 34.8614 179.023C34.1483 179.444 33.3093 179.823 32.3445 180.075C31.3797 180.328 30.289 180.454 29.0725 180.454C27.7301 180.454 26.5555 180.328 25.5488 180.118C24.542 179.865 23.703 179.528 22.9899 179.107C22.2767 178.644 21.6894 178.139 21.228 177.508C20.7666 176.877 20.389 176.161 20.0954 175.404C19.7179 174.309 19.5081 172.289 19.5081 169.385V159.873C19.5081 159.115 19.4661 158.526 19.3403 158.021C19.2564 157.558 19.0886 157.179 18.8789 156.926C18.6691 156.674 18.3755 156.463 18.0818 156.379C17.7462 156.295 17.3687 156.211 16.9073 156.211H15.9844V155.537H26.5136V156.211H25.5907C25.1712 156.211 24.7937 156.253 24.4581 156.337C24.1225 156.421 23.8708 156.59 23.6611 156.842C23.4513 157.095 23.2835 157.473 23.1577 157.936C23.0318 158.399 22.9899 159.031 22.9899 159.83V170.479C22.9899 171.573 23.0738 172.584 23.1996 173.636C23.3255 174.646 23.6191 175.572 24.0806 176.372C24.542 177.171 25.1712 177.803 26.0102 178.266C26.8492 178.729 27.9399 178.981 29.3242 178.981C30.1212 178.981 30.8763 178.897 31.5894 178.687C32.3025 178.518 32.9737 178.224 33.603 177.929C34.1902 177.592 34.7356 177.213 35.1551 176.75C35.6165 176.287 35.9102 175.782 36.1619 175.277C36.6233 174.225 36.875 172.373 36.875 169.764V159.873C36.875 158.357 36.7072 157.431 36.3716 157.01C35.9102 156.463 35.239 156.211 34.3161 156.211H33.3513V156.127Z" fill="white"/>
<path d="M61.4128 154.906V163.324H60.7416C60.448 161.052 59.6929 159.326 58.5183 158.105C57.3437 156.927 55.8336 156.295 54.0298 156.295C53.4005 156.295 52.8552 156.422 52.3099 156.632C51.8065 156.843 51.345 157.137 50.9256 157.474C50.548 157.811 50.2124 158.232 50.0027 158.652C49.7929 159.115 49.6671 159.578 49.6671 160.041C49.6671 160.504 49.751 160.925 49.9188 161.304C50.0866 161.725 50.6319 162.356 51.5967 163.198C53.1488 164.166 54.5332 165.008 55.7497 165.639C56.8823 166.271 58.4344 167.197 60.3641 168.501C61.2031 169.133 61.8323 169.89 62.2937 170.816C62.7552 171.7 62.9649 172.626 62.9649 173.594C62.9649 174.52 62.7971 175.362 62.4196 176.204C62.042 177.045 61.5386 177.761 60.8675 178.35C60.1963 178.982 59.3992 179.445 58.4344 179.823C57.4696 180.202 56.4628 180.371 55.3302 180.371C54.6171 180.371 53.9459 180.328 53.3586 180.202C53.2327 180.202 52.9811 180.118 52.5196 179.992C52.0582 179.865 51.5967 179.739 51.0514 179.571C50.548 179.445 50.0446 179.276 49.6251 179.15C49.1637 179.024 48.912 178.982 48.87 178.982C48.5764 178.982 48.3247 179.066 48.1569 179.234C47.9891 179.403 47.8633 179.781 47.7794 180.371H47.1082V171.995H47.7794C48.115 173.72 48.5345 175.025 49.0379 175.951C49.2895 176.372 49.6251 176.793 50.0446 177.13C50.4641 177.508 50.9256 177.803 51.4709 178.098C52.0162 178.392 52.5616 178.603 53.1908 178.729C53.7781 178.897 54.4073 178.94 55.0366 178.94C55.7916 178.94 56.4628 178.813 57.0501 178.603C57.6374 178.392 58.1408 178.098 58.5603 177.719C58.9797 177.34 59.3154 176.919 59.5251 176.456C59.7349 175.993 59.8607 175.446 59.8607 174.941C59.8607 174.352 59.6929 173.72 59.3573 173.131C59.0217 172.542 58.4764 171.911 57.6793 171.321C56.9243 170.858 56.0014 170.311 54.9527 169.68C52.9391 168.501 51.1353 167.407 49.5832 166.313C48.7023 165.597 48.0311 164.84 47.5696 163.998C47.1082 163.156 46.8984 162.23 46.8984 161.22C46.8984 160.378 47.0662 159.536 47.4438 158.779C47.7794 158.021 48.2827 157.306 48.912 156.716C49.5412 156.127 50.2963 155.664 51.1772 155.327C52.0582 154.991 52.981 154.822 54.0298 154.822C55.3302 154.822 56.6726 155.117 58.1408 155.748C58.4764 155.875 58.77 156.001 58.9797 156.085C59.2314 156.169 59.3993 156.211 59.5251 156.211C59.8607 156.211 60.1124 156.127 60.2802 155.959C60.4899 155.79 60.6158 155.412 60.7416 154.822H61.4128V154.906Z" fill="white"/>
<path d="M88.4705 155.453V161.219H88.051C87.8412 159.662 87.4217 158.61 86.7086 157.936C85.9955 157.305 84.9467 156.968 83.6044 156.968H80.1645V175.614C80.1645 176.456 80.2065 177.087 80.3323 177.55C80.4582 178.013 80.626 178.392 80.8357 178.602C81.0455 178.855 81.2972 178.981 81.6327 179.065C81.9683 179.107 82.3459 179.15 82.7654 179.15H83.6044V179.823H73.2849V179.15H74.1239C74.5434 179.15 74.9209 179.107 75.2565 179.023C75.5921 178.939 75.8438 178.813 76.0535 178.56C76.2633 178.308 76.4311 177.971 76.5569 177.508C76.6828 177.045 76.7247 176.414 76.7247 175.614V156.968H73.7883C73.0752 156.968 72.404 157.011 71.8586 157.137C71.3133 157.263 70.8099 157.474 70.3904 157.768C69.9709 158.063 69.6353 158.526 69.4256 159.073C69.1739 159.62 69.0481 160.336 68.9642 161.177H68.293V155.411H88.4705V155.453Z" fill="white"/>
<path d="M103.234 179.192V179.866H92.831V179.192H93.67C94.0895 179.192 94.467 179.15 94.8026 179.108C95.1382 179.066 95.3899 178.898 95.5997 178.645C95.8094 178.393 95.9772 178.056 96.103 177.551C96.2289 177.046 96.2708 176.372 96.2708 175.531V159.789C96.2708 159.242 96.2708 158.779 96.2289 158.4C96.1869 158.021 96.145 157.727 96.103 157.516C96.0611 157.264 95.9352 157.095 95.8094 156.969C95.6835 156.843 95.5157 156.717 95.306 156.59C94.7607 156.296 94.2153 156.17 93.628 156.17H92.7891V155.496H103.192V156.17H102.353C101.934 156.17 101.556 156.212 101.221 156.296C100.885 156.38 100.634 156.506 100.424 156.759C100.214 157.011 100.046 157.348 99.9204 157.853C99.7945 158.358 99.7526 158.99 99.7526 159.831V175.531C99.7526 176.12 99.7526 176.583 99.7946 176.92C99.7946 177.298 99.8365 177.593 99.9204 177.803C100.004 178.056 100.088 178.224 100.214 178.351C100.34 178.477 100.508 178.603 100.717 178.729C101.221 179.024 101.766 179.15 102.353 179.15H103.234V179.192Z" fill="white"/>
<path d="M128.486 154.906L129.032 163.198H128.486C127.731 160.715 126.683 158.905 125.298 157.81C123.914 156.716 122.278 156.169 120.348 156.169C119.09 156.169 117.957 156.421 116.908 156.884C115.86 157.347 114.937 158.105 114.182 159.073C113.427 160.041 112.839 161.304 112.42 162.777C112 164.25 111.791 166.018 111.791 168.038C111.791 169.68 112 171.153 112.378 172.458C112.797 173.762 113.385 174.899 114.14 175.867C114.895 176.835 115.86 177.55 116.992 178.055C118.125 178.561 119.425 178.813 120.852 178.813C122.404 178.813 123.788 178.476 125.047 177.803C126.221 177.172 127.564 175.825 129.032 173.762L129.577 174.099C128.361 176.246 126.934 177.845 125.298 178.855C123.704 179.865 121.733 180.37 119.509 180.37C117.789 180.37 116.195 180.076 114.727 179.444C113.301 178.855 112.042 177.971 110.994 176.877C109.945 175.783 109.148 174.478 108.561 172.963C107.973 171.447 107.68 169.806 107.68 167.996C107.68 165.555 108.225 163.324 109.316 161.304C110.406 159.284 111.875 157.684 113.804 156.59C115.734 155.453 117.831 154.906 120.055 154.906C121.817 154.906 123.536 155.327 125.256 156.211C125.76 156.464 126.095 156.632 126.347 156.632C126.725 156.632 127.06 156.464 127.312 156.169C127.564 155.832 127.773 155.453 127.857 154.948H128.486V154.906Z" fill="white"/>
<path d="M150.64 156.127V155.453H159.24V156.127H158.317C157.394 156.127 156.639 156.547 156.136 157.347C155.884 157.726 155.758 158.568 155.758 159.957V169.848C155.758 172.247 155.506 174.141 155.003 175.572C154.751 176.245 154.416 176.877 153.912 177.466C153.451 178.055 152.864 178.56 152.15 179.023C151.437 179.444 150.598 179.823 149.634 180.075C148.669 180.328 147.578 180.454 146.362 180.454C145.019 180.454 143.845 180.328 142.838 180.118C141.831 179.907 140.992 179.528 140.279 179.107C139.566 178.644 138.979 178.139 138.517 177.508C138.056 176.877 137.678 176.161 137.384 175.404C137.007 174.309 136.797 172.289 136.797 169.385V159.873C136.797 159.115 136.755 158.526 136.629 158.021C136.545 157.558 136.378 157.179 136.168 156.926C135.958 156.674 135.665 156.463 135.371 156.379C135.035 156.295 134.658 156.211 134.196 156.211H133.273V155.537H143.803V156.211H142.88C142.46 156.211 142.083 156.253 141.747 156.337C141.412 156.421 141.16 156.59 140.95 156.842C140.74 157.095 140.573 157.473 140.447 157.936C140.321 158.399 140.279 159.031 140.279 159.83V170.479C140.279 171.573 140.363 172.584 140.489 173.636C140.615 174.646 140.908 175.572 141.37 176.372C141.831 177.171 142.46 177.803 143.299 178.266C144.138 178.729 145.229 178.981 146.613 178.981C147.41 178.981 148.165 178.897 148.878 178.687C149.592 178.518 150.263 178.224 150.892 177.929C151.479 177.592 152.025 177.213 152.444 176.75C152.906 176.287 153.199 175.782 153.451 175.277C153.912 174.225 154.164 172.373 154.164 169.764V159.873C154.164 158.357 153.996 157.431 153.661 157.01C153.199 156.463 152.528 156.211 151.605 156.211H150.64V156.127Z" fill="white"/>
<path d="M176.901 179.865L167.504 159.368V175.656C167.504 176.498 167.546 177.171 167.672 177.634C167.798 178.097 167.966 178.476 168.176 178.687C168.385 178.939 168.679 179.065 168.973 179.107C169.266 179.15 169.644 179.192 170.063 179.192H170.902V179.865H162.429V179.192H163.268C163.687 179.192 164.065 179.15 164.4 179.107C164.736 179.065 164.988 178.897 165.197 178.644C165.407 178.392 165.575 178.055 165.659 177.55C165.785 177.087 165.827 176.456 165.827 175.614V159.662C165.827 159.073 165.785 158.568 165.743 158.147C165.701 157.726 165.533 157.347 165.323 157.053C165.113 156.758 164.778 156.505 164.316 156.337C163.855 156.169 163.226 156.085 162.387 156.085V155.411H169.266L178.118 174.52L186.801 155.411H193.681V156.085H192.842C192.38 156.085 192.003 156.127 191.709 156.211C191.373 156.295 191.122 156.421 190.912 156.674C190.702 156.926 190.535 157.263 190.451 157.768C190.325 158.231 190.283 158.862 190.283 159.704V175.656C190.283 176.498 190.325 177.171 190.451 177.634C190.576 178.097 190.744 178.476 190.954 178.687C191.164 178.939 191.457 179.065 191.751 179.107C192.087 179.15 192.422 179.192 192.842 179.192H193.681V179.865H183.361V179.192H184.2C184.62 179.192 184.997 179.15 185.333 179.065C185.668 178.981 185.92 178.855 186.13 178.602C186.34 178.35 186.507 178.013 186.633 177.55C186.759 177.087 186.801 176.456 186.801 175.656V159.368L177.446 179.865H176.901Z" fill="white"/>
<path d="M57.2213 211.264L57.8086 211.349C57.5569 212.359 57.3471 213.201 57.0955 213.79H48.3281V213.369C49.1252 213.327 49.6285 213.201 49.8383 213.074C50.0061 212.906 50.1319 212.527 50.1319 211.854V205.624C50.1319 204.951 50.048 204.572 49.8802 204.446C49.7124 204.32 49.2091 204.193 48.412 204.151V203.73H53.4878V204.151C52.7328 204.193 52.2294 204.32 52.0616 204.446C51.8938 204.572 51.8099 204.993 51.8099 205.624V211.77C51.8099 212.19 51.8518 212.485 51.8938 212.696C51.9777 212.864 52.0616 213.032 52.2294 213.074C52.523 213.201 53.1523 213.285 54.0751 213.285C55.1658 213.285 55.8789 213.116 56.2565 212.822C56.5921 212.443 56.9277 211.938 57.2213 211.264Z" fill="white"/>
<path d="M73.2038 213.79H68.4635V213.369C69.0508 213.327 69.4284 213.242 69.5962 213.116C69.722 213.032 69.764 212.821 69.5962 212.527C69.5123 212.316 69.1347 211.517 68.5474 210.128H64.3945C63.975 211.054 63.6813 211.727 63.5555 212.106C63.3457 212.611 63.3038 212.906 63.4716 213.074C63.5974 213.2 64.0589 213.327 64.772 213.369V213.79H60.5352V213.369C61.1644 213.284 61.6258 213.158 61.8775 212.99C62.1292 212.821 62.3809 212.401 62.7165 211.727L66.7436 203.562L67.3309 203.436C67.5826 203.941 68.1279 205.203 69.0089 207.182C69.8898 209.202 70.6029 210.717 71.0644 211.727C71.358 212.401 71.6097 212.779 71.8614 212.99C72.1131 213.158 72.5326 213.284 73.2038 213.327V213.79ZM68.2538 209.454L66.5339 205.498H66.4919C66.2822 205.919 65.9885 206.592 65.569 207.476C65.1495 208.36 64.8559 209.033 64.6462 209.454H68.2538Z" fill="white"/>
<path d="M92.1668 203.688V204.108C91.4956 204.193 91.0342 204.319 90.8244 204.445C90.6147 204.613 90.363 204.992 90.0694 205.666C89.3143 207.476 88.2236 210.253 86.8812 213.957H86.294C86.0842 213.452 84.9516 210.843 82.8961 206.213H82.8541C82.4766 207.139 81.9732 208.444 81.2601 210.169C80.5469 211.895 80.0435 213.158 79.708 213.999H79.1207C78.827 213.158 77.7364 210.38 75.9325 205.666C75.6809 205.034 75.4711 204.656 75.2194 204.487C74.9677 204.319 74.5482 204.193 73.9609 204.15V203.73H78.6592V204.15C77.988 204.235 77.5685 204.319 77.4427 204.445C77.3169 204.571 77.3169 204.824 77.4847 205.203C78.4914 208.023 79.2885 210.127 79.8338 211.6H79.8758C80.2114 210.801 80.7147 209.538 81.4279 207.77C82.141 206.045 82.6863 204.74 83.0219 203.814H83.5673C83.9868 204.824 85.1194 207.433 86.9651 211.6H87.0071C88.1397 208.738 88.8528 206.634 89.1884 205.371C89.3562 204.908 89.3562 204.613 89.1884 204.445C89.0206 204.319 88.6012 204.193 87.8461 204.108V203.688H92.1668Z" fill="white"/>
<path d="M110.287 205.96L109.742 206.003C109.574 205.413 109.406 205.034 109.196 204.74C109.028 204.529 108.819 204.361 108.525 204.277C108.231 204.193 107.728 204.151 107.015 204.151H105.547C105.253 204.151 105.085 204.193 105.001 204.235C104.917 204.277 104.875 204.445 104.875 204.656V208.36H106.889C107.728 208.36 108.273 208.317 108.483 208.191C108.693 208.065 108.861 207.728 108.986 207.223H109.532V210.211H108.986C108.861 209.664 108.693 209.285 108.483 209.159C108.273 209.033 107.728 208.949 106.889 208.949H104.875V211.769C104.875 212.442 104.959 212.821 105.169 212.989C105.379 213.158 105.924 213.242 106.805 213.284V213.705H101.52V213.284C102.317 213.242 102.778 213.116 102.946 212.989C103.114 212.821 103.197 212.442 103.197 211.769V205.582C103.197 204.908 103.114 204.529 102.946 204.361C102.778 204.235 102.317 204.108 101.561 204.066V203.646H110.077C110.119 204.108 110.203 204.866 110.287 205.96Z" fill="white"/>
<path d="M118.804 213.79H113.645V213.369C114.442 213.327 114.945 213.201 115.113 213.074C115.281 212.906 115.364 212.527 115.364 211.854V205.625C115.364 204.951 115.281 204.572 115.113 204.404C114.945 204.236 114.442 204.151 113.645 204.109V203.688H118.804V204.109C118.007 204.151 117.504 204.278 117.336 204.404C117.168 204.572 117.084 204.951 117.084 205.625V211.854C117.084 212.527 117.168 212.906 117.336 213.074C117.504 213.201 118.007 213.327 118.804 213.369V213.79Z" fill="white"/>
<path d="M133.735 213.537L133.651 213.958C133.358 213.958 133.106 213.958 132.98 213.958C132.225 213.916 131.638 213.79 131.176 213.579C130.715 213.369 130.253 213.032 129.834 212.527C129.582 212.232 128.911 211.391 127.862 210.044C127.695 209.833 127.485 209.665 127.275 209.581C127.065 209.497 126.688 209.455 126.226 209.455H125.597V211.938C125.597 212.569 125.681 212.99 125.849 213.116C126.017 213.285 126.52 213.369 127.275 213.411V213.832H122.199V213.411C122.996 213.369 123.5 213.243 123.667 213.116C123.835 212.948 123.919 212.569 123.919 211.896V205.666C123.919 204.993 123.835 204.614 123.667 204.488C123.5 204.362 123.038 204.235 122.241 204.193V203.772H127.065C128.492 203.772 129.498 203.941 130.17 204.32C131.05 204.741 131.47 205.414 131.47 206.34C131.47 207.518 130.631 208.444 128.995 209.034C129.331 209.581 129.918 210.338 130.715 211.264C131.344 211.98 131.889 212.527 132.267 212.864C132.728 213.158 133.19 213.411 133.735 213.537ZM125.597 208.907H126.52C127.485 208.907 128.156 208.739 128.617 208.444C129.331 208.023 129.666 207.35 129.666 206.508C129.666 205.709 129.414 205.119 128.869 204.783C128.324 204.404 127.653 204.235 126.856 204.235C126.31 204.235 125.975 204.278 125.807 204.404C125.681 204.488 125.597 204.698 125.597 205.077V208.907Z" fill="white"/>
<path d="M152.197 213.789H147.079V213.368C147.877 213.326 148.338 213.2 148.506 212.989C148.674 212.821 148.757 212.316 148.757 211.474L148.674 205.119H148.632L143.891 213.663H143.472L139.109 205.329H139.067L138.816 209.749C138.732 210.759 138.732 211.643 138.774 212.316C138.774 212.653 138.899 212.905 139.151 213.032C139.403 213.158 139.864 213.242 140.577 213.284V213.705H136.047V213.284C136.634 213.242 137.054 213.158 137.263 213.032C137.473 212.905 137.641 212.695 137.683 212.358C137.809 211.685 137.935 210.717 138.06 209.496L138.312 206.255C138.354 205.876 138.354 205.582 138.396 205.413C138.396 205.203 138.396 205.035 138.354 204.824C138.312 204.614 138.27 204.487 138.228 204.445C138.186 204.361 138.06 204.319 137.893 204.235C137.725 204.151 137.557 204.109 137.389 204.109C137.221 204.109 136.97 204.066 136.634 204.024V203.604H139.822L144.227 211.39L148.715 203.604H152.029V204.024C151.82 204.024 151.652 204.024 151.568 204.066C151.484 204.066 151.358 204.109 151.19 204.109C151.023 204.109 150.939 204.151 150.897 204.151C150.855 204.151 150.771 204.193 150.687 204.235C150.603 204.277 150.519 204.319 150.519 204.361C150.477 204.403 150.435 204.445 150.393 204.529C150.351 204.614 150.31 204.656 150.31 204.74C150.31 204.824 150.31 204.908 150.268 205.035C150.268 205.161 150.268 205.287 150.268 205.371C150.268 205.498 150.268 205.624 150.268 205.792L150.477 211.432C150.519 212.274 150.603 212.779 150.771 212.947C150.939 213.116 151.442 213.242 152.281 213.326V213.789H152.197Z" fill="white"/>
<path fill-rule="evenodd" clip-rule="evenodd" d="M198.001 208.133H158.191V207.072H198.001V208.133Z" fill="white"/>
<path fill-rule="evenodd" clip-rule="evenodd" d="M42.2852 208.133H2.43359V207.072H42.2852V208.133Z" fill="white"/>
</svg>
