<svg width="32" height="32" viewBox="0 0 32 32" fill="none" xmlns="http://www.w3.org/2000/svg">
<path d="M1 24C1 26.209 2.791 28 5 28H27C29.209 28 31 26.209 31 24V15H1V24Z" fill="white"/>
<path d="M27 4H5C2.791 4 1 5.791 1 8V16H31V8C31 5.791 29.209 4 27 4Z" fill="#DB3C3F"/>
<path opacity="0.15" d="M5 28H27C29.209 28 31 26.209 31 24V8C31 5.791 29.209 4 27 4H5C2.791 4 1 5.791 1 8V24C1 26.209 2.791 28 5 28ZM2 8C2 6.346 3.346 5 5 5H27C28.654 5 30 6.346 30 8V24C30 25.654 28.654 27 27 27H5C3.346 27 2 25.654 2 24V8Z" fill="black"/>
<path opacity="0.2" d="M27 5H5C3.343 5 2 6.343 2 8V9C2 7.343 3.343 6 5 6H27C28.657 6 30 7.343 30 9V8C30 6.343 28.657 5 27 5Z" fill="white"/>
<path d="M6.812 10.5C6.812 8.602 8.133 7.013 9.906 6.603C9.615 6.536 9.312 6.5 9 6.5C6.791 6.5 5 8.291 5 10.5C5 12.709 6.791 14.5 9 14.5C9.311 14.5 9.615 14.464 9.906 14.397C8.133 13.987 6.812 12.398 6.812 10.5Z" fill="white"/>
<path d="M10.8073 8.32906L10.5733 9.04806L11.1863 8.60306L11.7983 9.04806L11.5643 8.32906L12.1763 7.88406H11.4203L11.1863 7.16406L10.9523 7.88406H10.1953L10.8073 8.32906Z" fill="white"/>
<path d="M14.3638 9.46902H13.6078L13.3738 8.74902L13.1398 9.46902H12.3828L12.9948 9.91402L12.7618 10.634L13.3738 10.189L13.9858 10.634L13.7518 9.91402L14.3638 9.46902Z" fill="white"/>
<path d="M10.0756 12.0344L9.84156 11.3154L9.60756 12.0344H8.85156L9.46356 12.4794L9.22956 13.1994L9.84156 12.7544L10.4536 13.1994L10.2196 12.4794L10.8326 12.0344H10.0756Z" fill="white"/>
<path d="M12.7709 12.0344L12.5369 11.3154L12.3029 12.0344H11.5469L12.1589 12.4794L11.9249 13.1994L12.5369 12.7544L13.1489 13.1994L12.9159 12.4794L13.5279 12.0344H12.7709Z" fill="white"/>
<path d="M9.23962 9.469L9.00663 8.75L8.77262 9.469H8.01562L8.62763 9.914L8.39363 10.634L9.00663 10.189L9.61863 10.634L9.38463 9.914L9.99662 9.469H9.23962Z" fill="white"/>
</svg>
