<svg width="32" height="32" viewBox="0 0 32 32" fill="none" xmlns="http://www.w3.org/2000/svg">
<path d="M1 8H31V24H1V8Z" fill="#0F0E91"/>
<path d="M5 4H27C29.208 4 31 5.792 31 8V9H1V8C1 5.792 2.792 4 5 4Z" fill="#C82C24"/>
<path d="M27 28L5 28C2.792 28 1 26.208 1 24V23L31 23V24C31 26.208 29.208 28 27 28Z" fill="#C82C24"/>
<path opacity="0.15" d="M27 4H5C2.791 4 1 5.791 1 8V24C1 26.209 2.791 28 5 28H27C29.209 28 31 26.209 31 24V8C31 5.791 29.209 4 27 4ZM30 24C30 25.654 28.654 27 27 27H5C3.346 27 2 25.654 2 24V8C2 6.346 3.346 5 5 5H27C28.654 5 30 6.346 30 8V24Z" fill="black"/>
<path d="M16 21C18.7614 21 21 18.7614 21 16C21 13.2386 18.7614 11 16 11C13.2386 11 11 13.2386 11 16C11 18.7614 13.2386 21 16 21Z" fill="white"/>
<path d="M16 13C16.2761 13 16.5 12.7761 16.5 12.5C16.5 12.2239 16.2761 12 16 12C15.7239 12 15.5 12.2239 15.5 12.5C15.5 12.7761 15.7239 13 16 13Z" fill="#4B8A26"/>
<path d="M14.25 13.4688C14.5261 13.4688 14.75 13.2449 14.75 12.9688C14.75 12.6926 14.5261 12.4688 14.25 12.4688C13.9739 12.4688 13.75 12.6926 13.75 12.9688C13.75 13.2449 13.9739 13.4688 14.25 13.4688Z" fill="#4B8A26"/>
<path d="M12.9688 14.75C13.2449 14.75 13.4688 14.5261 13.4688 14.25C13.4688 13.9739 13.2449 13.75 12.9688 13.75C12.6926 13.75 12.4688 13.9739 12.4688 14.25C12.4688 14.5261 12.6926 14.75 12.9688 14.75Z" fill="#4B8A26"/>
<path d="M12.5 16.5C12.7761 16.5 13 16.2761 13 16C13 15.7239 12.7761 15.5 12.5 15.5C12.2239 15.5 12 15.7239 12 16C12 16.2761 12.2239 16.5 12.5 16.5Z" fill="#4B8A26"/>
<path d="M12.9688 18.25C13.2449 18.25 13.4688 18.0261 13.4688 17.75C13.4688 17.4739 13.2449 17.25 12.9688 17.25C12.6926 17.25 12.4688 17.4739 12.4688 17.75C12.4688 18.0261 12.6926 18.25 12.9688 18.25Z" fill="#4B8A26"/>
<path d="M14.25 19.5312C14.5261 19.5312 14.75 19.3074 14.75 19.0312C14.75 18.7551 14.5261 18.5312 14.25 18.5312C13.9739 18.5312 13.75 18.7551 13.75 19.0312C13.75 19.3074 13.9739 19.5312 14.25 19.5312Z" fill="#4B8A26"/>
<path d="M16 20C16.2761 20 16.5 19.7761 16.5 19.5C16.5 19.2239 16.2761 19 16 19C15.7239 19 15.5 19.2239 15.5 19.5C15.5 19.7761 15.7239 20 16 20Z" fill="#4B8A26"/>
<path d="M17.75 19.5312C18.0261 19.5312 18.25 19.3074 18.25 19.0312C18.25 18.7551 18.0261 18.5312 17.75 18.5312C17.4739 18.5312 17.25 18.7551 17.25 19.0312C17.25 19.3074 17.4739 19.5312 17.75 19.5312Z" fill="#4B8A26"/>
<path d="M19.0312 18.25C19.3074 18.25 19.5312 18.0261 19.5312 17.75C19.5312 17.4739 19.3074 17.25 19.0312 17.25C18.7551 17.25 18.5312 17.4739 18.5312 17.75C18.5312 18.0261 18.7551 18.25 19.0312 18.25Z" fill="#4B8A26"/>
<path d="M19.5 16.5C19.7761 16.5 20 16.2761 20 16C20 15.7239 19.7761 15.5 19.5 15.5C19.2239 15.5 19 15.7239 19 16C19 16.2761 19.2239 16.5 19.5 16.5Z" fill="#4B8A26"/>
<path d="M19.0312 14.75C19.3074 14.75 19.5312 14.5261 19.5312 14.25C19.5312 13.9739 19.3074 13.75 19.0312 13.75C18.7551 13.75 18.5312 13.9739 18.5312 14.25C18.5312 14.5261 18.7551 14.75 19.0312 14.75Z" fill="#4B8A26"/>
<path d="M17.75 13.4688C18.0261 13.4688 18.25 13.2449 18.25 12.9688C18.25 12.6926 18.0261 12.4688 17.75 12.4688C17.4739 12.4688 17.25 12.6926 17.25 12.9688C17.25 13.2449 17.4739 13.4688 17.75 13.4688Z" fill="#4B8A26"/>
<path opacity="0.2" d="M27 5H5C3.343 5 2 6.343 2 8V9C2 7.343 3.343 6 5 6H27C28.657 6 30 7.343 30 9V8C30 6.343 28.657 5 27 5Z" fill="white"/>
</svg>
