<svg width="40" height="40" viewBox="0 0 40 40" fill="none" xmlns="http://www.w3.org/2000/svg">
<path d="M33.75 5H6.25C3.48858 5 1.25 7.23858 1.25 10V30C1.25 32.7614 3.48858 35 6.25 35H33.75C36.5114 35 38.75 32.7614 38.75 30V10C38.75 7.23858 36.5114 5 33.75 5Z" fill="white"/>
<path opacity="0.15" d="M33.75 5H6.25C3.48875 5 1.25 7.23875 1.25 10V30C1.25 32.7612 3.48875 35 6.25 35H33.75C36.5112 35 38.75 32.7612 38.75 30V10C38.75 7.23875 36.5112 5 33.75 5ZM37.5 30C37.5 32.0675 35.8175 33.75 33.75 33.75H6.25C4.1825 33.75 2.5 32.0675 2.5 30V10C2.5 7.9325 4.1825 6.25 6.25 6.25H33.75C35.8175 6.25 37.5 7.9325 37.5 10V30Z" fill="black"/>
<path d="M12.6184 24.8597C12.5972 24.8597 12.5759 24.8634 12.5547 24.8671C12.5959 25.3309 12.9309 25.6296 13.2059 25.7984C13.3909 25.9109 13.5897 25.9984 13.7972 26.0572C13.5847 25.5759 13.3459 25.2334 13.0872 25.0359C12.8847 24.8821 12.7159 24.8584 12.6347 24.8584C12.6284 24.8584 12.6234 24.8584 12.6184 24.8584V24.8597Z" fill="#4E5B31"/>
<path d="M11.7459 24.3536C11.9721 24.4836 12.1771 24.5724 12.2934 24.5924C12.2971 24.5924 12.3021 24.5924 12.3059 24.5924C12.3134 24.5924 12.3209 24.5911 12.3271 24.5886C12.3359 24.5836 12.3421 24.5761 12.3459 24.5661C12.3546 24.5374 12.3546 24.5061 12.3459 24.4786C12.3234 24.3799 12.2896 24.2849 12.2459 24.1949C12.1584 23.9974 12.0459 23.7949 12.0321 23.7711V23.7686C11.9184 23.6311 11.7996 23.4986 11.6746 23.3736C11.5759 23.2736 11.4684 23.1824 11.3534 23.1011C11.2271 23.0149 11.1346 22.9749 11.0471 22.9736C11.0246 22.9736 11.0034 22.9761 10.9821 22.9836C10.9709 23.1011 10.9696 23.2199 10.9784 23.3386C10.9971 23.5999 11.0621 23.7949 11.1709 23.9186C11.2896 24.0549 11.4946 24.2099 11.7459 24.3536Z" fill="#4E5B31"/>
<path d="M14.5098 26.033C14.3336 25.473 14.1286 25.063 13.8973 24.813C13.6961 24.5955 13.5136 24.5455 13.3948 24.543C13.3873 24.543 13.3798 24.543 13.3723 24.543C13.3673 24.543 13.3623 24.543 13.3573 24.543C13.3073 24.5455 13.2598 24.558 13.2148 24.578C13.3948 25.023 13.6786 25.4192 14.0423 25.733C14.1836 25.8555 14.3411 25.9567 14.5111 26.0342L14.5098 26.033Z" fill="#4E5B31"/>
<path d="M12.365 25.3021C12.3512 25.1733 12.2962 25.0533 12.2062 24.9596C12.0612 24.8021 11.7513 24.6096 11.0938 24.5908C11.11 24.6971 11.14 24.8008 11.1825 24.9008C11.2462 25.0458 11.3662 25.2258 11.5787 25.2646C11.7612 25.2958 11.945 25.3121 12.13 25.3121C12.2712 25.3121 12.3637 25.3021 12.365 25.3021Z" fill="#4E5B31"/>
<path d="M12.8172 26.1221C12.8047 26.1221 12.7935 26.1221 12.781 26.1221C12.606 26.1233 12.4322 26.1458 12.2635 26.1883C12.2622 26.2071 12.2622 26.2246 12.2635 26.2421C12.271 26.2871 12.2885 26.3296 12.3147 26.3671C12.3747 26.4583 12.516 26.5833 12.8435 26.6646C13.0372 26.7121 13.236 26.7358 13.4347 26.7358C13.6372 26.7358 13.8385 26.7133 14.0347 26.6658C13.8385 26.4083 13.5572 26.2296 13.241 26.1633C13.101 26.1358 12.9597 26.1221 12.8172 26.1221Z" fill="#4E5B31"/>
<path d="M16.6528 27.0375C16.3603 26.1588 15.7878 26.0163 15.4728 26.0088C15.4641 26.0088 15.4541 26.0088 15.4453 26.0088C15.4366 26.0088 15.4278 26.0088 15.4191 26.0088C15.3541 26.0088 15.2891 26.0175 15.2266 26.0325C15.2803 26.1938 15.3691 26.3413 15.4841 26.465C15.6716 26.6738 16.0266 26.9425 16.6528 27.0388V27.0375Z" fill="#4E5B31"/>
<path d="M19.1141 28.1214C18.5516 27.0564 17.9666 26.9414 17.7391 26.9414C17.6953 26.9414 17.6503 26.9464 17.6078 26.9564C17.5941 27.1314 17.6403 27.3052 17.7378 27.4502C17.8916 27.6889 18.2553 27.9989 19.1153 28.1227L19.1141 28.1214Z" fill="#4E5B31"/>
<path d="M14.3792 26.2676H14.3605C14.2955 26.2676 14.2305 26.2776 14.168 26.2963C14.178 26.3388 14.193 26.3788 14.213 26.4176C14.2655 26.5201 14.3367 26.6113 14.423 26.6876C14.6255 26.8688 15.0292 27.0901 15.808 27.1176C15.178 26.3788 14.643 26.2688 14.3805 26.2688L14.3792 26.2676Z" fill="#4E5B31"/>
<path d="M17.7147 28.1553C17.4347 28.1553 17.2609 28.2403 17.1659 28.3115C17.1084 28.3528 17.0597 28.404 17.0234 28.4653C17.3209 28.6428 17.6609 28.7378 18.0084 28.7403C18.3322 28.7415 18.6497 28.6553 18.9272 28.4903C18.4584 28.2678 18.0522 28.1553 17.7209 28.1553H17.7147Z" fill="#4E5B31"/>
<path d="M15.1655 27.3301C15.1405 27.3301 15.1167 27.3301 15.093 27.3301C14.8342 27.3388 14.5767 27.3726 14.3242 27.4326C14.6555 27.7651 15.188 27.8826 15.5742 27.8826H15.6042C15.8142 27.8788 15.963 27.8451 16.0467 27.7826C16.083 27.7601 16.103 27.7188 16.0992 27.6763C16.0817 27.6188 16.043 27.5701 15.9917 27.5388C15.8067 27.4001 15.528 27.3301 15.1655 27.3301Z" fill="#4E5B31"/>
<path d="M16.5198 27.7635C16.7036 27.8885 16.9836 27.951 17.3498 27.951C17.5411 27.9497 17.7311 27.936 17.9198 27.9097C17.4648 27.4685 17.0336 27.376 16.7498 27.376C16.7298 27.376 16.7111 27.376 16.6923 27.3772C16.5598 27.3822 16.4298 27.4097 16.3086 27.4585C16.3136 27.4935 16.3223 27.5272 16.3373 27.5585C16.3786 27.6422 16.4411 27.7122 16.5198 27.7622V27.7635Z" fill="#4E5B31"/>
<path d="M24.5164 26.465C24.6327 26.3413 24.7202 26.1938 24.7739 26.0325C24.7102 26.0175 24.6464 26.01 24.5814 26.0088C24.5727 26.0088 24.5639 26.0088 24.5552 26.0088C24.5464 26.0088 24.5377 26.0088 24.5277 26.0088C24.2127 26.0163 23.6402 26.1588 23.3477 27.0375C23.9739 26.9425 24.3289 26.6738 24.5164 26.465Z" fill="#4E5B31"/>
<path d="M24.1953 27.1166C24.9741 27.0891 25.3778 26.8679 25.5803 26.6866C25.6666 26.6104 25.7378 26.5191 25.7903 26.4166C25.8103 26.3779 25.8253 26.3379 25.8353 26.2954C25.7728 26.2766 25.7078 26.2666 25.6428 26.2666H25.6241C25.3616 26.2666 24.8266 26.3766 24.1966 27.1154L24.1953 27.1166Z" fill="#4E5B31"/>
<path d="M26.7944 25.8001C27.0681 25.6313 27.4044 25.3326 27.4456 24.8688C27.4244 24.8638 27.4031 24.8613 27.3819 24.8613C27.3769 24.8613 27.3706 24.8613 27.3656 24.8613C27.2831 24.8613 27.1156 24.8838 26.9131 25.0388C26.6556 25.2351 26.4169 25.5788 26.2031 26.0588C26.4106 26.0001 26.6106 25.9126 26.7944 25.8001Z" fill="#4E5B31"/>
<path d="M27.695 24.5924C27.695 24.5924 27.7037 24.5924 27.7075 24.5924C27.8237 24.5724 28.0287 24.4836 28.255 24.3536C28.5062 24.2099 28.7112 24.0549 28.83 23.9186C28.9387 23.7949 29.0037 23.5986 29.0225 23.3386C29.0312 23.2211 29.0287 23.1024 29.0187 22.9836C28.9975 22.9774 28.9762 22.9736 28.9537 22.9736C28.8662 22.9749 28.7737 23.0149 28.6475 23.1011C28.5325 23.1824 28.425 23.2736 28.3262 23.3736C28.2 23.4986 28.0812 23.6299 27.97 23.7686V23.7711C27.955 23.7949 27.8425 23.9974 27.755 24.1949C27.7112 24.2861 27.6775 24.3811 27.655 24.4786C27.6463 24.5074 27.6463 24.5374 27.655 24.5661C27.6588 24.5749 27.665 24.5836 27.6737 24.5886C27.68 24.5911 27.6875 24.5924 27.695 24.5924Z" fill="#4E5B31"/>
<path d="M24.9078 27.3311C24.884 27.3311 24.859 27.3311 24.8353 27.3311C24.4728 27.3311 24.1953 27.4011 24.0103 27.5398C23.959 27.5711 23.9203 27.6198 23.9028 27.6773C23.899 27.7198 23.919 27.7611 23.9553 27.7836C24.039 27.8461 24.1878 27.8798 24.3978 27.8836H24.4278C24.8153 27.8836 25.3465 27.7648 25.6778 27.4336C25.4253 27.3736 25.169 27.3398 24.909 27.3311H24.9078Z" fill="#4E5B31"/>
<path d="M23.2481 27.376C22.9644 27.376 22.5331 27.4685 22.0781 27.9097C22.2669 27.936 22.4581 27.9497 22.6481 27.951C23.0156 27.951 23.2944 27.8872 23.4781 27.7635C23.5569 27.7135 23.6194 27.6422 23.6606 27.5597C23.6756 27.5285 23.6856 27.4947 23.6894 27.4597C23.5669 27.4097 23.4369 27.3822 23.3056 27.3785C23.2869 27.3785 23.2681 27.3772 23.2469 27.3772L23.2481 27.376Z" fill="#4E5B31"/>
<path d="M20.4136 28.5939L20.6936 28.4627L20.5436 28.2939L20.0286 28.5139L19.9986 28.5202L19.9686 28.5139L19.4536 28.2939L19.3036 28.4627L19.5836 28.5939L19.6261 28.6064L18.9336 29.1164C18.9336 29.1164 19.0373 29.2027 19.1386 29.2952C19.1836 29.3364 19.2411 29.3889 19.2811 29.4327C19.2973 29.4502 19.3136 29.4689 19.3273 29.4889C19.3361 29.5027 19.3436 29.5177 19.3498 29.5327C19.3561 29.5302 19.3623 29.5252 19.3673 29.5202L19.3736 29.5139C19.4011 29.4877 19.4273 29.4614 19.4523 29.4327C19.5186 29.3577 19.6061 29.2477 19.6848 29.1514C19.8386 28.9589 19.9661 28.7939 19.9898 28.7627L19.9986 28.7514L20.0073 28.7627C20.0311 28.7939 20.1586 28.9589 20.3123 29.1514C20.3898 29.2477 20.4786 29.3577 20.5448 29.4327C20.5698 29.4614 20.5961 29.4877 20.6236 29.5139L20.6298 29.5202C20.6298 29.5202 20.6411 29.5302 20.6473 29.5327C20.6548 29.5177 20.6623 29.5027 20.6698 29.4889C20.6836 29.4689 20.6998 29.4502 20.7161 29.4327C20.7561 29.3889 20.8136 29.3364 20.8586 29.2952C20.9598 29.2027 21.0623 29.1177 21.0636 29.1164L20.3711 28.6064L20.4136 28.5939Z" fill="#4E5B31"/>
<path d="M22.2828 28.1553H22.2766C21.9453 28.1553 21.5391 28.2678 21.0703 28.4903C21.3478 28.6553 21.6653 28.7415 21.9891 28.7403C22.3353 28.7365 22.6753 28.6415 22.9741 28.4653C22.9378 28.404 22.8891 28.3515 22.8316 28.3115C22.7353 28.2415 22.5628 28.1565 22.2828 28.1553Z" fill="#4E5B31"/>
<path d="M22.2642 27.4499C22.3617 27.3049 22.408 27.1311 22.3942 26.9574C22.3505 26.9474 22.3067 26.9424 22.263 26.9424C22.0342 26.9424 21.4505 27.0574 20.8867 28.1224C21.7455 27.9999 22.1092 27.6899 22.2642 27.4499Z" fill="#4E5B31"/>
<path d="M27.7916 24.9598C27.7016 25.0536 27.6466 25.1736 27.6328 25.3023C27.6328 25.3023 27.7266 25.3111 27.8678 25.3111C28.0528 25.3111 28.2366 25.2961 28.4191 25.2636C28.6316 25.2248 28.7516 25.0448 28.8153 24.8998C28.8578 24.8011 28.8878 24.6973 28.9041 24.5898C28.2466 24.6086 27.9366 24.8011 27.7916 24.9586V24.9598Z" fill="#4E5B31"/>
<path d="M27.2186 26.124C27.2073 26.124 27.1948 26.124 27.1823 26.124C27.0398 26.124 26.8986 26.1378 26.7586 26.1653C26.4423 26.2315 26.1598 26.409 25.9648 26.6665C26.1611 26.714 26.3623 26.7378 26.5648 26.7365C26.7636 26.7365 26.9636 26.714 27.1561 26.6665C27.4836 26.584 27.6248 26.459 27.6848 26.369C27.7111 26.3315 27.7286 26.289 27.7361 26.244C27.7386 26.2265 27.7398 26.209 27.7373 26.1915C27.5686 26.149 27.3923 26.1253 27.2186 26.124Z" fill="#4E5B31"/>
<path d="M26.642 24.5413C26.642 24.5413 26.632 24.5413 26.627 24.5413C26.6195 24.5413 26.612 24.5413 26.6045 24.5413C26.4858 24.545 26.3033 24.5938 26.102 24.8113C25.8708 25.0613 25.6645 25.4713 25.4883 26.0313C25.6583 25.9538 25.817 25.8525 25.9583 25.73C26.322 25.4163 26.6058 25.0213 26.7858 24.575C26.7408 24.5538 26.692 24.5425 26.6433 24.54L26.642 24.5413Z" fill="#4E5B31"/>
<path d="M33.7977 9.60281C32.9765 9.91531 32.3252 10.1941 31.5177 10.5091C30.9765 10.8166 30.389 11.3591 29.6902 11.3416C28.9377 11.6653 27.9052 12.7266 26.7802 12.8878C24.8302 13.2241 23.3527 13.9878 21.3215 13.9653C19.609 13.6503 17.8115 13.8928 16.2952 13.1416C16.6602 14.1528 16.644 16.7003 14.989 16.2316C14.174 15.6228 13.1027 15.7303 12.399 16.0453C10.8802 19.6941 8.57398 14.9541 9.86023 18.0953C10.039 18.7191 9.77523 19.5803 10.5415 19.8641C10.9827 20.0928 10.6165 20.9741 11.109 21.0541C11.8415 21.6791 12.9365 21.8691 13.914 22.3078C15.4777 22.1128 16.1202 21.5941 16.6102 23.2266C18.6515 23.4216 15.784 22.4178 18.524 21.5591C20.4652 21.9053 21.8302 20.5578 23.5165 20.2416C24.009 19.7216 23.6252 18.7616 24.334 18.4003C25.0052 18.2216 25.6852 18.4016 26.2215 18.7741C26.759 18.3741 27.3827 18.0791 28.0402 18.3816C28.6315 18.6628 28.5415 18.6291 28.4227 18.1466C27.789 17.1791 26.644 16.5403 26.5777 15.5628C26.7077 14.2303 27.3602 14.3153 28.3365 14.0728C28.8677 12.4753 31.2215 12.3566 32.0377 11.0528C32.5365 10.3616 33.6965 10.5178 33.7965 9.60156L33.7977 9.60281Z" fill="#D57800"/>
<path opacity="0.2" d="M33.75 6.25H6.25C4.17875 6.25 2.5 7.92875 2.5 10V11.25C2.5 9.17875 4.17875 7.5 6.25 7.5H33.75C35.8213 7.5 37.5 9.17875 37.5 11.25V10C37.5 7.92875 35.8213 6.25 33.75 6.25Z" fill="white"/>
</svg>
