<svg width="40" height="40" viewBox="0 0 40 40" fill="none" xmlns="http://www.w3.org/2000/svg">
<path d="M6.25 5H13.75V35H6.25C3.49 35 1.25 32.76 1.25 30V10C1.25 7.24 3.49 5 6.25 5Z" fill="#EA3323"/>
<path d="M12.5 25V35H33.75C36.5112 35 38.75 32.7613 38.75 30V25H12.5Z" fill="black"/>
<path d="M12.5 13.75H38.75V26.25H12.5V13.75Z" fill="white"/>
<path d="M33.75 5H12.5V15H38.75V10C38.75 7.23875 36.5112 5 33.75 5Z" fill="#317234"/>
<path opacity="0.15" d="M33.75 5H6.25C3.48875 5 1.25 7.23875 1.25 10V30C1.25 32.7612 3.48875 35 6.25 35H33.75C36.5112 35 38.75 32.7612 38.75 30V10C38.75 7.23875 36.5112 5 33.75 5ZM37.5 30C37.5 32.0675 35.8175 33.75 33.75 33.75H6.25C4.1825 33.75 2.5 32.0675 2.5 30V10C2.5 7.9325 4.1825 6.25 6.25 6.25H33.75C35.8175 6.25 37.5 7.9325 37.5 10V30Z" fill="black"/>
<path opacity="0.2" d="M33.75 6.25H6.25C4.17875 6.25 2.5 7.92875 2.5 10V11.25C2.5 9.17875 4.17875 7.5 6.25 7.5H33.75C35.8213 7.5 37.5 9.17875 37.5 11.25V10C37.5 7.92875 35.8213 6.25 33.75 6.25Z" fill="white"/>
</svg>
