<svg width="161" height="27" viewBox="0 0 161 27" fill="none" xmlns="http://www.w3.org/2000/svg">
<path d="M3.128 4.208L0.376 3.824V2.224H17.496L17.816 7.664H15.736L14.776 4.112L6.552 3.888V13.168L12.344 13.072L12.888 10.416H14.584V17.904H12.92L12.344 15.12L6.552 14.992V24.112L11.544 24.432V26H0.568V24.432L3.128 24.112V4.208ZM24.0285 5.04C23.3458 5.04 22.8338 4.848 22.4925 4.464C22.1512 4.08 21.9805 3.58933 21.9805 2.992C21.9805 2.30933 22.1832 1.744 22.5885 1.296C23.0152 0.847999 23.5912 0.623999 24.3165 0.623999C25.0418 0.623999 25.5752 0.815999 25.9165 1.2C26.2578 1.584 26.4285 2.07467 26.4285 2.672C26.4285 3.39733 26.2152 3.97333 25.7885 4.4C25.3832 4.82667 24.8072 5.04 24.0605 5.04H24.0285ZM22.7485 10.704L20.3165 10.128V8.432L25.2765 7.824H25.3405L26.0765 8.4V24.176L28.6365 24.432V26H20.1565V24.432L22.7485 24.144V10.704ZM32.8288 10.704L30.5247 10.128V8.4L35.1008 7.824H35.1968L35.8688 8.4V9.744L35.8368 10.512C36.6048 9.82933 37.6181 9.21067 38.8767 8.656C40.1354 8.10133 41.3408 7.824 42.4928 7.824C43.8368 7.824 44.8714 8.08 45.5968 8.592C46.3434 9.104 46.8661 9.89333 47.1648 10.96C47.4634 12.0053 47.6128 13.424 47.6128 15.216V24.176L49.8528 24.4V26H42.2688V24.432L44.2528 24.176V15.184C44.2528 13.9253 44.1674 12.944 43.9968 12.24C43.8261 11.5147 43.5061 10.9813 43.0368 10.64C42.5674 10.2773 41.8848 10.096 40.9888 10.096C40.2208 10.096 39.3994 10.288 38.5248 10.672C37.6501 11.056 36.8714 11.504 36.1888 12.016V24.144L38.3648 24.432V26H30.8128V24.432L32.8288 24.144V10.704Z" fill="#172F50"/>
<path d="M55.9668 4.208L52.4788 3.824V2.224H60.9588L65.4708 16.624L66.5268 20.688L67.4868 16.624L71.9668 2.224H80.3828V3.824L76.8628 4.208L79.4228 24.08L82.2068 24.432V26H72.9908V24.432L75.9028 24.112L74.4628 9.744L73.7908 3.568L72.4468 8.176L67.1028 24.912H65.0228L59.8388 9.584L57.9508 3.536L57.3748 9.744L56.0948 24.112L59.2628 24.432V26H50.9108V24.432L53.6308 24.112L55.9668 4.208ZM83.8463 21.2C83.8463 19.1947 84.8489 17.7227 86.8543 16.784C88.8596 15.824 91.3983 15.312 94.4703 15.248V14.352C94.4703 13.3493 94.3636 12.56 94.1503 11.984C93.9369 11.408 93.5636 10.992 93.0303 10.736C92.5183 10.4587 91.7823 10.32 90.8223 10.32C89.7343 10.32 88.7529 10.48 87.8783 10.8C87.0249 11.0987 86.1716 11.472 85.3183 11.92L84.5182 10.256C84.7956 10.0213 85.3076 9.712 86.0543 9.328C86.8009 8.944 87.6649 8.60267 88.6463 8.304C89.6276 8.00533 90.6089 7.856 91.5903 7.856C93.1049 7.856 94.2996 8.06933 95.1743 8.496C96.0703 8.90133 96.7103 9.56267 97.0943 10.48C97.4783 11.3973 97.6703 12.624 97.6703 14.16V24.432H99.5583V25.84C99.1316 25.9467 98.5876 26.0533 97.9263 26.16C97.2863 26.2667 96.7209 26.32 96.2303 26.32C95.6329 26.32 95.2276 26.224 95.0143 26.032C94.8009 25.8613 94.6943 25.4667 94.6943 24.848V23.792C94.0543 24.432 93.2649 25.0187 92.3263 25.552C91.4089 26.0853 90.3636 26.352 89.1903 26.352C87.6543 26.352 86.3743 25.9147 85.3503 25.04C84.3476 24.144 83.8463 22.864 83.8463 21.2ZM90.5663 24.176C91.1209 24.176 91.7609 24.0053 92.4863 23.664C93.2116 23.3227 93.8729 22.9173 94.4703 22.448V16.944C92.1449 16.944 90.3849 17.3067 89.1903 18.032C88.0169 18.736 87.4303 19.664 87.4303 20.816C87.4303 21.968 87.7076 22.8213 88.2623 23.376C88.8383 23.9093 89.6063 24.176 90.5663 24.176ZM104.76 23.44C104.973 23.76 105.421 24.048 106.104 24.304C106.808 24.56 107.544 24.688 108.312 24.688C109.528 24.688 110.424 24.4533 111 23.984C111.576 23.5147 111.864 22.864 111.864 22.032C111.864 21.456 111.682 20.9547 111.32 20.528C110.957 20.1013 110.445 19.728 109.784 19.408C109.144 19.0667 108.216 18.6613 107 18.192C105.357 17.5733 104.152 16.8373 103.384 15.984C102.637 15.1093 102.264 13.968 102.264 12.56C102.264 11.6213 102.541 10.8 103.096 10.096C103.672 9.392 104.45 8.848 105.432 8.464C106.434 8.05867 107.544 7.856 108.76 7.856C109.741 7.856 110.594 7.93067 111.32 8.08C112.066 8.22933 112.664 8.37867 113.112 8.528C113.56 8.67733 113.858 8.77333 114.008 8.816V12.784H112.056L111.416 10.416C111.288 10.16 110.946 9.94667 110.392 9.776C109.837 9.584 109.218 9.488 108.536 9.488C107.576 9.488 106.797 9.70133 106.2 10.128C105.624 10.5547 105.336 11.1307 105.336 11.856C105.336 12.496 105.485 13.0293 105.784 13.456C106.104 13.8613 106.498 14.192 106.968 14.448C107.437 14.704 108.077 15.0027 108.888 15.344L109.528 15.6C110.722 16.0693 111.693 16.5173 112.44 16.944C113.186 17.3707 113.805 17.936 114.296 18.64C114.808 19.3227 115.064 20.1653 115.064 21.168C115.064 22.7467 114.445 24.0053 113.208 24.944C111.992 25.8827 110.317 26.352 108.184 26.352C107.138 26.352 106.04 26.2133 104.888 25.936C103.757 25.6373 102.829 25.3387 102.104 25.04V20.944H104.184L104.76 23.44ZM123.412 26.32C122.196 26.32 121.289 26.0427 120.692 25.488C120.095 24.9333 119.796 23.984 119.796 22.64V10.352H117.492V8.912C117.599 8.89067 117.897 8.816 118.388 8.688C118.879 8.56 119.209 8.44267 119.38 8.336C119.721 8.144 119.988 7.76 120.18 7.184C120.351 6.77867 120.553 6.128 120.788 5.232C121.023 4.336 121.161 3.80267 121.204 3.632H123.092L123.156 8.24H128.5V10.352H123.156V20.176C123.156 21.392 123.188 22.2453 123.252 22.736C123.337 23.2267 123.497 23.5467 123.732 23.696C123.988 23.8453 124.415 23.92 125.012 23.92C125.588 23.92 126.217 23.8453 126.9 23.696C127.604 23.5467 128.148 23.3867 128.532 23.216L129.012 24.656C128.5 25.04 127.668 25.4133 126.516 25.776C125.385 26.1387 124.351 26.32 123.412 26.32ZM138.843 26.352C136.262 26.352 134.289 25.5093 132.923 23.824C131.579 22.1387 130.907 19.888 130.907 17.072C130.907 15.216 131.259 13.584 131.963 12.176C132.667 10.768 133.649 9.68 134.907 8.912C136.187 8.144 137.638 7.76 139.259 7.76C141.243 7.76 142.779 8.31467 143.867 9.424C144.977 10.512 145.563 12.08 145.627 14.128C145.627 15.4293 145.553 16.4213 145.403 17.104H134.395C134.438 19.216 134.929 20.9227 135.867 22.224C136.806 23.504 138.139 24.144 139.867 24.144C140.721 24.144 141.606 23.9947 142.523 23.696C143.462 23.376 144.187 23.0027 144.699 22.576L145.307 23.984C144.689 24.624 143.771 25.1787 142.555 25.648C141.339 26.1173 140.102 26.352 138.843 26.352ZM142.107 15.408C142.171 14.96 142.203 14.5013 142.203 14.032C142.182 12.6453 141.883 11.5573 141.307 10.768C140.753 9.95733 139.867 9.552 138.651 9.552C137.414 9.552 136.422 10 135.675 10.896C134.95 11.792 134.534 13.296 134.427 15.408H142.107ZM148.442 24.432L150.842 24.24V10.704L148.538 10.128V8.4L152.954 7.824H153.018L153.722 8.4V8.976L153.626 11.472H153.722C153.935 11.1093 154.319 10.64 154.874 10.064C155.428 9.488 156.143 8.96533 157.018 8.496C157.892 8.00533 158.842 7.76 159.866 7.76C160.292 7.76 160.644 7.81333 160.922 7.92V11.504C160.772 11.3973 160.527 11.3013 160.186 11.216C159.866 11.1093 159.503 11.056 159.098 11.056C157.327 11.056 155.684 11.6 154.17 12.688V24.208L158.234 24.464V26H148.442V24.432Z" fill="black"/>
</svg>
