<svg width="215" height="59" viewBox="0 0 215 59" fill="none" xmlns="http://www.w3.org/2000/svg">
<path d="M3.48282 12.9958C3.57111 12.6055 3.48282 12.6922 3.39453 13.1693C3.48282 13.0392 3.48282 12.9524 3.48282 12.9958Z" fill="#172F50"/>
<path d="M8.33391 42.4955C0.617324 30.4097 2.82206 15.8547 3.39529 13.1689C3.04254 13.992 1.6315 17.5874 0.705512 23.4354C1.49922 25.558 2.20473 27.1175 2.4693 27.594C2.55749 28.1571 2.73387 29.63 2.86616 30.1498C1.94017 28.417 1.05827 26.2511 0.39685 24.3884C0.39685 24.4751 0.132284 25.9046 0 27.1175C1.23465 29.5 2.16064 30.9295 3.39529 32.6622C3.39529 32.7489 3.65986 33.6586 3.65986 33.7019C2.4693 32.1858 1.23465 30.2797 0.0881882 28.1571C0.0440934 29.1101 0 30.0198 0 31.0595C1.27875 32.8355 2.55749 34.395 4.45357 36.2577C4.49766 36.3877 4.54176 36.4743 4.67404 36.8641C3.04253 35.5646 1.49922 34.0484 0.264564 32.6189C0.308659 33.4853 0.352755 34.1351 0.39685 34.6982C2.07245 36.6042 3.88033 38.2503 5.8646 39.6798C6.04098 40.0697 5.95279 39.8965 6.26145 40.5029C4.27719 39.2467 2.60159 37.8605 0.970083 36.2144C1.14646 37.3406 1.32284 38.0771 1.41103 38.5102C3.26301 40.113 5.20318 41.4559 7.40791 42.5822C7.45201 42.6255 7.84886 43.3186 7.89296 43.3619C5.77641 42.3656 3.92443 41.2393 2.02835 39.7232C2.07245 40.0264 2.55749 41.7591 2.68978 42.149C5.46775 44.1417 7.45201 45.0947 9.70085 46.0044C9.78903 46.1343 9.87722 46.2209 10.1418 46.5242C7.62839 45.6578 5.64412 44.6615 3.43939 43.1453C3.61576 43.6218 3.88034 44.3583 4.40948 45.4845C7.05516 47.044 9.70084 48.1269 12.082 48.6901L12.6111 49.2099C10.23 48.7767 7.89296 48.127 4.89451 46.6541C5.55593 47.9104 5.8646 48.4735 6.26145 49.1233C9.03942 50.2929 12.082 50.986 14.8599 51.2026L15.345 51.5924C12.1701 51.5058 9.92131 51.0293 7.40791 50.2929C7.45201 50.3795 8.28981 51.7224 8.86304 52.5021C12.3465 53.3252 15.0804 53.5418 17.8584 53.3685C18.6521 53.8883 18.4316 53.7584 18.7844 53.9316C15.4773 54.1482 12.6111 53.8017 9.96541 53.2385C10.4064 53.845 10.9355 54.5814 11.9497 55.751C14.6835 56.1842 19.0048 56.5307 22.797 56.0542C25.5309 57.3538 28.3088 58.2635 31.175 58.9999C31.7923 58.61 32.4096 58.1335 32.9829 57.7437C23.0616 55.8376 14.0221 51.4625 8.33391 42.4955Z" fill="#172F50"/>
<path d="M52.4702 12.9958C52.3819 12.6055 52.4702 12.6922 52.5585 13.1693C52.5143 13.0392 52.4702 12.9524 52.4702 12.9958Z" fill="#172F50"/>
<path d="M47.6646 42.4955C55.3812 30.4097 53.1764 15.8547 52.6032 13.1689C52.956 13.992 54.367 17.5874 55.293 23.4354C54.4993 25.558 53.7938 27.1175 53.5292 27.594C53.441 28.1571 53.2646 29.63 53.1324 30.1498C54.0583 28.417 54.9402 26.2511 55.6017 24.3884C55.6017 24.4751 55.8662 25.9046 55.9985 27.1175C54.7639 29.5 53.8379 30.9295 52.6032 32.6622C52.6032 32.7489 52.3386 33.6586 52.3386 33.7019C53.5292 32.1858 54.7639 30.2797 55.9103 28.1571C55.9544 29.1101 55.9985 30.0198 55.9985 31.0595C54.7198 32.8355 53.441 34.395 51.5449 36.2577C51.5008 36.3877 51.4567 36.4743 51.3245 36.8641C52.956 35.5646 54.4993 34.0484 55.7339 32.6189C55.6898 33.4853 55.6458 34.1351 55.6017 34.6982C53.9261 36.6042 52.1182 38.2503 50.1339 39.6798C49.9575 40.0697 50.0457 39.8965 49.737 40.5029C51.7213 39.2467 53.3969 37.8605 55.0284 36.2144C54.852 37.3406 54.6757 38.0771 54.5875 38.5102C52.7355 40.113 50.7953 41.4559 48.5906 42.5822C48.5465 42.6255 48.1496 43.3186 48.1056 43.3619C50.2221 42.3656 52.0741 41.2393 53.9701 39.7232C53.9261 40.0264 53.441 41.7591 53.3087 42.149C50.5308 44.1417 48.5465 45.0947 46.2977 46.0044C46.2095 46.1343 46.1213 46.2209 45.8567 46.5242C48.3701 45.6578 50.3544 44.6615 52.5591 43.1453C52.3827 43.6218 52.1182 44.3583 51.589 45.4845C48.9433 47.044 46.2977 48.1269 43.9165 48.6901L43.3874 49.2099C45.7685 48.7767 48.1055 48.127 51.104 46.6541C50.4426 47.9104 50.1339 48.4735 49.737 49.1233C46.9591 50.2929 43.9165 50.986 41.1386 51.2026L40.6535 51.5924C43.8284 51.5058 46.0772 51.0293 48.5906 50.2929C48.5465 50.3795 47.7087 51.7224 47.1355 52.5021C43.652 53.3252 40.9181 53.5418 38.1401 53.3685C37.3464 53.8883 37.5669 53.7584 37.2141 53.9316C40.5212 54.1482 43.3874 53.8017 46.0331 53.2385C45.5921 53.845 45.063 54.5814 44.0488 55.751C41.315 56.1842 36.9937 56.5307 33.2015 56.0542C30.4235 57.3538 27.6897 58.2635 24.8235 58.9999C24.2062 58.61 23.5889 58.1335 23.0156 57.7437C32.9369 55.8376 41.9323 51.4625 47.6646 42.4955Z" fill="#172F50"/>
<path d="M27.87 54.1481C46.8749 46.6107 49.4324 32.0557 49.4324 32.0557L50.4024 11.2195C47.2276 9.74666 44.5819 6.97427 42.9945 3.50879C41.2748 4.7217 39.2465 5.45812 37.0858 5.45812C33.2937 5.45812 29.9866 3.33552 27.9141 0C25.8417 3.2922 22.4905 5.45812 18.7424 5.45812C16.5818 5.45812 14.5534 4.76502 12.8337 3.50879C11.2463 7.01758 8.6006 9.74666 5.42578 11.2195L6.39587 32.0557C6.30768 32.0557 8.86517 46.6107 27.87 54.1481Z" fill="#172F50"/>
<path d="M33.9073 10.7867C33.3341 11.5664 32.7608 12.3461 32.1876 13.1259C31.1734 13.6457 29.9829 13.9922 28.66 14.0789C28.3955 14.0789 28.1309 14.0789 27.8663 14.0789C27.6018 14.0789 27.3813 14.0789 27.1167 14.0789C25.7498 13.9922 24.471 13.6023 23.4568 13.0392C22.9277 12.3028 22.3545 11.5231 21.7812 10.7433C22.2663 11.0899 23.06 11.1332 23.1041 11.783C23.3687 11.6097 23.6332 11.4364 23.9419 11.5231C24.1183 11.5664 24.2947 11.653 24.471 11.7397L24.4269 11.783C24.3387 11.783 24.2947 11.783 24.2065 11.7397C23.8537 11.7397 23.6332 11.9129 23.6773 12.1728C23.6773 12.3028 23.7214 12.4327 23.7214 12.606C23.8978 12.6927 24.1624 12.7793 24.4269 12.8659C24.7797 12.9526 25.0443 12.8659 25.1325 12.606C25.1765 12.4761 25.2206 12.3028 25.2206 12.1728C25.2206 12.1295 25.1765 12.0429 25.0884 11.9996C24.8679 11.8696 24.8238 11.7397 24.9561 11.5664C25.0884 11.4364 25.3088 11.4364 25.4852 11.5231C25.6616 11.653 25.6175 11.8263 25.4411 11.9562C25.397 11.9562 25.397 11.9996 25.3529 11.9996C25.6175 12.3028 25.8821 12.6493 26.4553 12.606C26.6758 12.606 26.9403 12.5194 27.0285 12.3894C27.4254 11.9996 27.6459 11.5664 27.4695 11.0899C27.4254 11.0032 27.2931 10.9599 27.2049 10.8733C27.1167 10.9599 26.9844 11.0466 26.9844 11.1332C26.8962 11.4364 26.808 11.5664 26.3671 11.6963C26.5876 11.3931 26.4994 11.1765 26.4112 10.9166C26.2348 10.4834 26.5435 10.2235 27.1608 10.3101C27.2049 10.3101 27.249 10.3102 27.3813 10.3535C27.1608 9.87697 27.7781 9.66037 27.9104 9.27051C28.0427 9.66037 28.6159 9.87697 28.3955 10.3535C28.4837 10.3535 28.4836 10.3535 28.5277 10.3535C29.0569 10.2235 29.6301 10.4834 29.3215 11.0032C29.1892 11.2198 29.1451 11.4798 29.3215 11.6963C29.0128 11.653 28.8364 11.5231 28.7482 11.2632C28.7482 11.1765 28.7482 11.1332 28.7041 11.0466C28.66 11.0032 28.5278 10.9166 28.4837 10.9166C28.4396 10.9166 28.3073 11.0032 28.3073 11.0466C28.0868 11.3931 28.3514 12.2162 28.7482 12.4761C29.101 12.6927 29.586 12.736 29.9388 12.4761C30.1152 12.3461 30.2474 12.1728 30.3797 12.0862C30.2915 11.9563 30.2033 11.9129 30.1593 11.8263C30.1152 11.6963 30.2033 11.5664 30.3797 11.5231C30.5561 11.4797 30.7325 11.5231 30.8207 11.653C30.9089 11.783 30.9089 11.9129 30.7325 11.9996C30.512 12.0862 30.5561 12.1728 30.5561 12.3028C30.6443 12.9959 31.0411 13.1259 31.8348 12.7793C32.0112 12.6927 32.1435 12.606 32.0553 12.4761C32.0553 12.4328 32.0553 12.3894 32.0553 12.3461C32.1435 11.9563 31.9671 11.8263 31.3939 11.8696C31.3498 11.8696 31.3498 11.8696 31.3057 11.8696C31.6585 11.4798 32.0553 11.4798 32.6286 11.8696C32.6286 11.1332 33.4223 11.0899 33.9073 10.7867Z" fill="white"/>
<path d="M25.1313 16.9381C25.1754 16.9381 25.1754 16.9381 25.2195 16.9381C24.8668 16.7648 24.6022 16.4183 24.4699 16.115C23.5439 16.115 22.662 16.115 21.736 16.115C21.4274 16.115 20.8982 15.8984 20.8541 16.3749C20.8101 16.9381 21.3392 16.9381 21.7801 16.9381C21.9565 16.9381 22.0888 16.9381 22.2652 16.9381C22.3534 16.8514 22.3975 16.8514 22.4857 16.9381C22.8825 17.2413 22.7061 17.6745 22.7061 18.0644C22.7061 26.9447 22.7061 35.8249 22.7061 44.7485V45.1817H25.0872V44.532C25.0872 35.4351 25.0872 26.3382 25.0872 17.2846C25.0431 17.1114 25.0432 17.0247 25.1313 16.9381Z" fill="white"/>
<path d="M33.3384 16.0721C32.8092 16.0721 32.236 16.0721 31.7068 16.0721C31.7509 16.2887 31.7509 16.5053 31.7068 16.7219C31.6187 17.0684 31.3982 17.3283 31.0895 17.5016C30.825 17.6749 30.384 17.7182 30.0753 17.6316C30.0753 17.7182 30.0312 17.8481 30.0312 17.9348C30.0312 18.8878 30.0312 19.8408 30.0312 20.7938C30.0312 28.2879 30.0312 35.8253 30.0312 43.3627L30.0753 43.3194C30.9131 42.6263 31.5305 41.8033 32.0155 40.807C32.1919 40.4171 32.3242 40.0272 32.4565 39.6374C32.4565 33.3562 32.4565 27.075 32.4565 20.7938C32.4565 19.8841 32.4565 18.9744 32.4565 18.0648C32.4565 17.3283 32.4565 16.8085 33.4706 16.8952C33.7793 16.9385 34.2643 16.8085 34.2203 16.3753C34.1321 15.8555 33.647 16.0721 33.3384 16.0721Z" fill="white"/>
<path d="M37.3503 14.9887H18.6541L18.125 13.9058H37.8794L37.3503 14.9887Z" fill="white"/>
<path d="M35.629 15.9414H20.3281V17.0244H35.629V15.9414Z" fill="white"/>
<path d="M19.4044 43.9688C18.4344 43.5356 17.7729 42.9291 17.3761 42.0628C17.9934 42.0628 18.5226 41.8895 19.0076 41.5863C19.4485 41.283 19.7131 40.8932 19.7131 40.3734C19.7131 39.8535 19.4485 39.4203 18.9635 39.1171C18.4785 38.8139 17.9493 38.6406 17.332 38.6406C16.7147 38.6406 16.2296 38.8139 15.7446 39.1171C15.2595 39.4637 15.0391 39.8969 15.0391 40.4167C15.0391 41.283 15.3036 42.0195 15.7887 42.6692C16.2737 43.2757 16.9351 43.7955 17.7288 44.2287C17.9934 44.3586 18.3021 44.4886 18.6107 44.6186C18.6989 44.3587 19.0076 44.0554 19.4044 43.9688Z" fill="white"/>
<path d="M29.9842 16.1582V38.0773C29.9842 38.9437 29.8519 39.8101 29.5433 40.5898C29.3669 41.1097 29.1023 41.6295 28.7496 42.0627C28.5732 42.2792 28.3968 42.4958 28.2204 42.7124C27.7354 43.2323 27.1181 43.6654 26.3684 44.012C26.2803 44.0553 26.148 44.0986 26.0598 44.1419C25.7511 44.2719 25.3984 44.3585 25.0897 44.4452C24.4724 44.5751 23.8109 44.6618 23.1054 44.6618C22.9731 44.6618 22.8409 44.6618 22.7527 44.6618C22.0913 44.6184 21.4298 44.5318 20.8125 44.4019C20.9889 44.6618 21.0771 45.0083 21.0771 45.3115C21.8708 45.4415 22.6204 45.4848 23.4141 45.4848C24.5165 45.4848 25.5747 45.3549 26.5448 45.0949C26.7653 45.0516 26.9858 44.965 27.2062 44.8784C27.7795 44.7051 28.3086 44.4452 28.7937 44.1853C29.2787 43.9254 29.7196 43.6221 30.1165 43.3189L30.1606 43.2756C30.9984 42.5825 31.6157 41.7594 32.1008 40.7631C32.2771 40.3732 32.4094 39.9834 32.5417 39.5935C32.7181 38.9437 32.8063 38.2939 32.8063 37.6009V16.6347C31.7921 16.5481 30.8661 16.3748 29.9842 16.1582Z" fill="white"/>
<path d="M20.3283 36.5605H14.5078V45.3542H20.3283V36.5605Z" fill="#172F50"/>
<path d="M23.2363 44.5749C23.7654 44.8349 21.9575 45.3547 21.3843 45.3547C20.8111 45.3547 19.7969 44.6183 19.7969 44.0551C19.7969 43.492 20.2819 43.2754 20.8551 43.2754C21.4284 43.3187 22.7071 44.3584 23.2363 44.5749Z" fill="white"/>
<path fill-rule="evenodd" clip-rule="evenodd" d="M27.9137 2.45703L28.1567 2.84009C30.0119 5.76459 32.9268 7.64588 36.2476 7.64588C38.1646 7.64588 39.9148 7.01905 41.4595 5.92307L41.7437 5.72147L41.8881 6.03524C43.3192 9.14544 45.6557 11.6043 48.4528 12.9148L48.6243 12.9951L47.7329 32.1294L47.7298 32.1469L47.4477 32.0989C47.7298 32.1469 47.7298 32.1466 47.7298 32.1469L47.7291 32.1505L47.7276 32.159L47.7216 32.1902C47.7163 32.2172 47.7084 32.2566 47.6973 32.3078C47.6752 32.4101 47.6408 32.5596 47.591 32.7513C47.4915 33.1348 47.3303 33.6876 47.0829 34.3712C46.5881 35.7383 45.748 37.6292 44.3646 39.7347C41.5961 43.9484 36.6569 49.0137 27.9769 52.4594L27.8696 52.502L27.7623 52.4594C19.0824 49.0137 14.143 43.9484 11.3854 39.7342C10.0074 37.6285 9.17534 35.7371 8.69275 34.3691C8.45148 33.6851 8.29729 33.1311 8.20586 32.7456C8.16021 32.5532 8.12984 32.4012 8.11211 32.2949C8.10337 32.2425 8.09707 32.1976 8.09382 32.1628C8.09235 32.1471 8.09065 32.1248 8.09117 32.1022C8.09125 32.0984 8.09143 32.091 8.09228 32.0812L7.20312 12.9951L7.37458 12.9148C10.1717 11.6043 12.5082 9.14544 13.9393 6.03524L14.0837 5.72147L14.3679 5.92307C15.9126 7.01905 17.6628 7.64588 19.5798 7.64588C22.8572 7.64588 25.816 5.76391 27.6707 2.84009L27.9137 2.45703ZM47.1625 32.0669L48.0349 13.3407C45.2701 11.9924 42.9712 9.58246 41.5113 6.5738C39.9495 7.61085 38.1812 8.20844 36.2476 8.20844C32.8348 8.20844 29.8601 6.35242 27.9136 3.50632C25.9635 6.35301 22.9496 8.20844 19.5798 8.20844C17.6462 8.20844 15.8779 7.61085 14.3161 6.5738C12.8562 9.58246 10.5573 11.9924 7.79246 13.3407L8.66868 32.149C8.67077 32.1639 8.67356 32.1821 8.6772 32.2039C8.69243 32.2952 8.72007 32.4346 8.76356 32.618C8.8504 32.9841 8.99902 33.5192 9.23382 34.1849C9.70341 35.5161 10.5166 37.3663 11.867 39.43C14.5549 43.5375 19.3752 48.4976 27.8696 51.8951C36.3639 48.4976 41.1845 43.5375 43.8835 39.4296C45.2395 37.3657 46.0612 35.515 46.5434 34.1827C46.7844 33.5167 46.9406 32.9804 47.0361 32.6123C47.0839 32.4282 47.1166 32.2862 47.1371 32.191C47.1474 32.1434 47.1547 32.1076 47.1593 32.084L47.1625 32.0669Z" fill="white"/>
<path d="M32.9818 14.2952H22.4432L21.9141 13.7754H33.511L32.9818 14.2952Z" fill="#172F50"/>
<path d="M42.0247 33.3981L38.4971 28.1999C38.5412 28.1133 38.5853 28.0267 38.5853 27.94C38.5853 27.6801 38.3649 27.5068 38.1444 27.5068C37.8798 27.5068 37.7034 27.7234 37.7034 27.94C37.7034 28.0267 37.7475 28.1566 37.7916 28.1999L34.264 33.3981C34.0877 33.3115 33.9554 33.1815 33.8672 33.0949C34.1318 36.2138 38.1003 36.5171 38.1003 36.5171C38.1003 36.5171 42.0688 36.2572 42.3334 33.0949C42.3334 33.2249 42.2011 33.3115 42.0247 33.3981ZM35.0578 33.6581L35.2782 33.6147C35.2782 33.6147 35.0578 33.0083 36.1601 31.3189V31.3622L38.0121 28.6764V33.3115C37.2625 33.8313 35.9837 33.8747 35.0578 33.6581ZM38.3649 33.2682V28.6331L40.2168 31.3189V31.2755C41.3633 32.965 41.0987 33.5714 41.0987 33.5714L41.3192 33.6147C40.3491 33.8746 39.0704 33.8313 38.3649 33.2682Z" fill="white"/>
<path d="M20.6771 27.7238L17.1495 22.5256C17.1936 22.439 17.2377 22.3523 17.2377 22.2657C17.2377 22.0058 17.0172 21.8325 16.7967 21.8325C16.5322 21.8325 16.3558 22.0491 16.3558 22.2657C16.3558 22.3523 16.3999 22.4823 16.444 22.5256L12.9164 27.7238C12.74 27.6372 12.6077 27.5073 12.5195 27.4206C12.7841 30.5395 16.7526 30.8428 16.7526 30.8428C16.7526 30.8428 20.7212 30.5829 20.9857 27.4206C20.9857 27.5073 20.8534 27.5939 20.6771 27.7238ZM13.666 27.9404L13.8865 27.8971C13.8865 27.8971 13.666 27.2907 14.7684 25.6012V25.6446L16.6203 22.9588V27.5939C15.9148 28.1137 14.6361 28.157 13.666 27.9404ZM16.9731 27.5506V22.9155L18.8251 25.6012V25.5579C19.9715 27.2473 19.707 27.8538 19.707 27.8538L19.9274 27.8971C18.9574 28.157 17.6786 28.1137 16.9731 27.5506Z" fill="white"/>
<path fill-rule="evenodd" clip-rule="evenodd" d="M38.2114 28.9363L16.4727 23.1317L16.9515 21.4009L38.6902 27.2056L38.2114 28.9363Z" fill="white"/>
<path fill-rule="evenodd" clip-rule="evenodd" d="M38.2621 27.7092L16.5234 21.9045L16.8989 20.5474L38.6376 26.352L38.2621 27.7092Z" fill="#172F50"/>
<path d="M29.0615 16.6782C28.9292 16.505 28.7969 16.3317 28.7528 16.1584V16.0718C28.5764 16.0718 28.4442 16.0718 28.2678 16.0718C28.0914 16.3317 27.7827 16.5916 27.5182 16.6349C27.0772 16.7216 26.6363 16.8082 26.1953 16.9815C26.4158 17.1114 26.4158 17.3713 26.4158 18.0644V21.5299C26.4158 29.024 26.4158 36.5614 26.4158 44.0555V45.1385H26.504C26.7245 45.0952 26.9449 45.0085 27.1654 44.9219C27.7386 44.7486 28.2678 44.4887 28.7528 44.2288V42.1062C28.7528 35.3918 28.7528 28.6775 28.7528 21.9631C28.7528 21.5732 28.7528 21.1834 28.7528 20.7935C28.7528 19.8838 28.7528 18.9308 28.7528 18.0211C28.7528 17.6746 28.5323 17.1981 29.0174 16.9381C29.0615 16.9381 29.1056 16.8948 29.1056 16.8948C29.1056 16.7649 29.1056 16.7216 29.0615 16.6782Z" fill="white"/>
<path d="M33.512 12.9956H22.1797V13.7753H33.512V12.9956Z" fill="#172F50"/>
<path d="M74.1561 21.8424V21.3496H81.7948V21.8424H81.1479C80.4087 21.8424 79.8851 22.058 79.5463 22.4893C79.3307 22.7665 79.2383 23.4133 79.2383 24.5221V33.2389C79.2383 34.6249 79.0843 35.7029 78.7763 36.5346C78.6222 36.935 78.4374 37.3354 78.191 37.705C77.9446 38.0746 77.6366 38.4134 77.267 38.6907C76.9282 38.9679 76.5278 39.2143 76.0658 39.3683C75.6345 39.5531 75.1417 39.6147 74.6489 39.6147C74.2177 39.6147 73.8481 39.5531 73.5401 39.4607C73.2012 39.3375 72.924 39.1835 72.7084 38.9987C72.4928 38.8139 72.308 38.5983 72.1848 38.3518C72.0616 38.1054 72 37.859 72 37.5818C72 37.089 72.154 36.7194 72.4312 36.5346C72.7084 36.319 73.0164 36.2266 73.3244 36.2266C73.4477 36.2266 73.5709 36.2266 73.6941 36.2574C73.8173 36.2882 73.9405 36.3498 74.0637 36.473C74.1869 36.5962 74.3101 36.781 74.4641 36.9966C74.5873 37.243 74.7413 37.551 74.9261 37.9514C75.1109 38.4135 75.3881 38.6599 75.7269 38.6599C75.9733 38.6599 76.189 38.5058 76.3738 38.2286C76.5894 37.9514 76.6818 37.4278 76.6818 36.6886V24.4913C76.6818 24.0601 76.6818 23.7213 76.651 23.4749C76.651 23.1977 76.6202 22.9821 76.5586 22.8281C76.497 22.6433 76.4354 22.5201 76.343 22.4276C76.2506 22.3352 76.1274 22.2428 75.9733 22.1504C75.5729 21.9348 75.1725 21.8424 74.8029 21.8424H74.1561Z" fill="#172F50"/>
<path d="M96.486 21.8424V21.3496H102.8V21.8424H102.123C101.445 21.8424 100.891 22.1504 100.521 22.7357C100.336 23.0129 100.244 23.6289 100.244 24.6453V31.8836C100.244 33.6393 100.059 35.0253 99.6894 36.0726C99.5046 36.5654 99.2581 37.0274 98.8885 37.4586C98.5497 37.8898 98.1185 38.2594 97.5949 38.5982C97.0713 38.9063 96.4552 39.1835 95.7468 39.3683C95.0384 39.5531 94.2376 39.6455 93.3443 39.6455C92.3587 39.6455 91.4963 39.5531 90.757 39.3991C90.0178 39.2143 89.4018 38.9679 88.8782 38.6599C88.3545 38.321 87.9233 37.9514 87.5845 37.4894C87.2457 37.0274 86.9685 36.5038 86.7529 35.9494C86.4757 35.1485 86.3217 33.6701 86.3217 31.5448V24.5837C86.3217 24.0293 86.2909 23.5981 86.1985 23.2285C86.1369 22.8897 86.0137 22.6125 85.8597 22.4276C85.7056 22.2428 85.49 22.0888 85.2744 22.0272C85.028 21.9656 84.7508 21.904 84.412 21.904H83.7344V21.4112H91.4655V21.904H90.7878C90.4798 21.904 90.2026 21.9348 89.9562 21.9964C89.7098 22.058 89.525 22.1812 89.371 22.3661C89.217 22.5509 89.0938 22.8281 89.0014 23.1669C88.909 23.5057 88.8782 23.9677 88.8782 24.5529V32.3456C88.8782 33.1465 88.9398 33.8857 89.0322 34.6557C89.1246 35.3949 89.3402 36.0726 89.679 36.6578C90.0178 37.243 90.4798 37.705 91.0958 38.0438C91.7119 38.3826 92.5127 38.5675 93.5291 38.5675C94.1144 38.5675 94.6688 38.5058 95.1924 38.3518C95.716 38.2286 96.2088 38.013 96.6709 37.7974C97.1021 37.551 97.5025 37.2738 97.8105 36.935C98.1493 36.5962 98.3649 36.2266 98.5497 35.857C98.8885 35.0869 99.0733 33.7317 99.0733 31.822V24.5837C99.0733 23.4749 98.9501 22.7973 98.7037 22.4893C98.3649 22.0888 97.8721 21.904 97.1945 21.904H96.486V21.8424Z" fill="#172F50"/>
<path d="M117.091 20.9493V27.1095H116.598C116.382 25.4463 115.828 24.1834 114.966 23.2902C114.103 22.4278 112.994 21.9657 111.67 21.9657C111.208 21.9657 110.807 22.0581 110.407 22.2122C110.037 22.3662 109.699 22.5818 109.391 22.8282C109.113 23.0746 108.867 23.3826 108.713 23.6906C108.559 24.0294 108.466 24.3682 108.466 24.707C108.466 25.0459 108.528 25.3539 108.651 25.6311C108.774 25.9391 109.175 26.4011 109.883 27.0171C111.023 27.7256 112.039 28.3416 112.933 28.8036C113.764 29.2656 114.904 29.9432 116.321 30.8981C116.937 31.3601 117.399 31.9145 117.738 32.5921C118.076 33.239 118.23 33.9166 118.23 34.625C118.23 35.3026 118.107 35.9187 117.83 36.5347C117.553 37.1507 117.183 37.6743 116.69 38.1055C116.198 38.5676 115.612 38.9064 114.904 39.1836C114.195 39.4608 113.456 39.584 112.625 39.584C112.101 39.584 111.608 39.5532 111.177 39.4608C111.085 39.4608 110.9 39.3992 110.561 39.3068C110.222 39.2144 109.883 39.122 109.483 38.9988C109.113 38.9064 108.744 38.7832 108.436 38.6908C108.097 38.5984 107.912 38.5676 107.881 38.5676C107.666 38.5676 107.481 38.6292 107.358 38.7524C107.234 38.8756 107.142 39.1528 107.08 39.584H106.588V33.4546H107.08C107.327 34.7174 107.635 35.6722 108.004 36.3499C108.189 36.6579 108.436 36.9659 108.744 37.2123C109.052 37.4895 109.391 37.7051 109.791 37.9207C110.191 38.1363 110.592 38.2903 111.054 38.3827C111.485 38.5059 111.947 38.5367 112.409 38.5367C112.963 38.5367 113.456 38.4443 113.887 38.2903C114.319 38.1363 114.688 37.9207 114.996 37.6435C115.304 37.3663 115.551 37.0583 115.705 36.7195C115.859 36.3807 115.951 35.9803 115.951 35.6106C115.951 35.1794 115.828 34.7174 115.582 34.2862C115.335 33.855 114.935 33.393 114.349 32.9617C113.795 32.6229 113.117 32.2225 112.347 31.7605C110.869 30.8981 109.545 30.0972 108.405 29.2964C107.758 28.7728 107.265 28.2184 106.926 27.6023C106.588 26.9863 106.434 26.3087 106.434 25.5695C106.434 24.9535 106.557 24.3374 106.834 23.783C107.08 23.2286 107.45 22.705 107.912 22.2737C108.374 21.8425 108.928 21.5037 109.575 21.2573C110.222 21.0109 110.9 20.8877 111.67 20.8877C112.625 20.8877 113.61 21.1033 114.688 21.5653C114.935 21.6577 115.15 21.7501 115.304 21.8117C115.489 21.8733 115.612 21.9041 115.705 21.9041C115.951 21.9041 116.136 21.8425 116.259 21.7193C116.413 21.5961 116.506 21.3189 116.598 20.8877H117.091V20.9493Z" fill="#172F50"/>
<path d="M136.96 21.3492V25.5689H136.652C136.498 24.4293 136.19 23.6592 135.666 23.1664C135.143 22.7044 134.373 22.458 133.387 22.458H130.861V36.1029C130.861 36.7189 130.892 37.1809 130.984 37.5198C131.077 37.8586 131.2 38.1358 131.354 38.2898C131.508 38.4746 131.693 38.567 131.939 38.6286C132.186 38.6594 132.463 38.6902 132.771 38.6902H133.387V39.183H125.81V38.6902H126.426C126.734 38.6902 127.011 38.6594 127.258 38.5978C127.504 38.5362 127.689 38.4438 127.843 38.259C127.997 38.0742 128.12 37.8278 128.212 37.489C128.305 37.1501 128.336 36.6881 128.336 36.1029V22.458H126.179C125.656 22.458 125.163 22.4888 124.763 22.5812C124.362 22.6736 123.993 22.8276 123.685 23.0432C123.377 23.2588 123.13 23.5976 122.976 23.9981C122.791 24.3985 122.699 24.9221 122.637 25.5381H122.145V21.3184H136.96V21.3492Z" fill="#172F50"/>
<path d="M147.798 38.7214V39.2142H140.16V38.7214H140.776C141.084 38.7214 141.361 38.6906 141.607 38.6598C141.854 38.629 142.039 38.5058 142.193 38.321C142.347 38.1362 142.47 37.8898 142.562 37.5202C142.655 37.1506 142.685 36.6577 142.685 36.0417V24.5221C142.685 24.1217 142.685 23.7829 142.655 23.5056C142.624 23.2284 142.593 23.0128 142.562 22.8588C142.531 22.674 142.439 22.5508 142.347 22.4584C142.254 22.366 142.131 22.2736 141.977 22.1812C141.577 21.9656 141.176 21.8732 140.745 21.8732H140.129V21.3804H147.768V21.8732H147.152C146.844 21.8732 146.566 21.904 146.32 21.9656C146.074 22.0272 145.889 22.1196 145.735 22.3044C145.581 22.4892 145.458 22.7356 145.365 23.1052C145.273 23.4749 145.242 23.9369 145.242 24.5529V36.0417C145.242 36.4729 145.242 36.8117 145.273 37.0582C145.273 37.3354 145.303 37.551 145.365 37.705C145.427 37.8898 145.488 38.013 145.581 38.1054C145.673 38.1978 145.796 38.2902 145.95 38.3826C146.32 38.5982 146.72 38.6906 147.152 38.6906H147.798V38.7214Z" fill="#172F50"/>
<path d="M166.344 20.9492L166.744 27.017H166.344C165.789 25.1998 165.019 23.8753 164.003 23.0745C162.986 22.2737 161.785 21.8733 160.368 21.8733C159.444 21.8733 158.613 22.0581 157.843 22.3969C157.073 22.7357 156.395 23.2901 155.841 23.9985C155.286 24.707 154.855 25.631 154.547 26.709C154.239 27.7871 154.085 29.0807 154.085 30.5592C154.085 31.7604 154.239 32.8385 154.516 33.7933C154.824 34.7481 155.255 35.5798 155.81 36.2882C156.364 36.9966 157.073 37.5202 157.904 37.8898C158.736 38.2595 159.691 38.4443 160.738 38.4443C161.878 38.4443 162.894 38.1979 163.818 37.705C164.681 37.243 165.666 36.2574 166.744 34.7481L167.145 34.9945C166.251 36.5654 165.204 37.7358 164.003 38.4751C162.832 39.2143 161.385 39.5839 159.752 39.5839C158.489 39.5839 157.319 39.3683 156.241 38.9063C155.194 38.4751 154.27 37.8282 153.5 37.0274C152.73 36.2266 152.144 35.2718 151.713 34.1629C151.282 33.0541 151.066 31.8528 151.066 30.5284C151.066 28.7419 151.467 27.1095 152.268 25.631C153.068 24.1525 154.147 22.9821 155.563 22.1813C156.98 21.3496 158.52 20.9492 160.153 20.9492C161.446 20.9492 162.709 21.2572 163.972 21.9041C164.342 22.0889 164.588 22.2121 164.773 22.2121C165.05 22.2121 165.297 22.0889 165.481 21.8733C165.666 21.6268 165.82 21.3496 165.882 20.98H166.344V20.9492Z" fill="#172F50"/>
<path d="M182.603 21.8424V21.3496H188.917V21.8424H188.24C187.562 21.8424 187.008 22.1504 186.638 22.7357C186.453 23.0129 186.361 23.6289 186.361 24.6453V31.8836C186.361 33.6393 186.176 35.0253 185.807 36.0726C185.622 36.5654 185.375 37.0274 185.006 37.4586C184.667 37.8898 184.236 38.2594 183.712 38.5982C183.188 38.9063 182.572 39.1835 181.864 39.3683C181.156 39.5531 180.355 39.6455 179.462 39.6455C178.476 39.6455 177.613 39.5531 176.874 39.3991C176.135 39.2143 175.519 38.9679 174.995 38.6599C174.472 38.321 174.041 37.9514 173.702 37.4894C173.363 37.0274 173.086 36.5038 172.87 35.9494C172.593 35.1485 172.439 33.6701 172.439 31.5448V24.5837C172.439 24.0293 172.408 23.5981 172.316 23.2285C172.254 22.8897 172.131 22.6125 171.977 22.4276C171.823 22.2428 171.607 22.0888 171.392 22.0272C171.145 21.9656 170.868 21.904 170.529 21.904H169.852V21.4112H177.583V21.904H176.905C176.597 21.904 176.32 21.9348 176.073 21.9964C175.827 22.058 175.642 22.1812 175.488 22.3661C175.334 22.5509 175.211 22.8281 175.119 23.1669C175.026 23.5057 174.995 23.9677 174.995 24.5529V32.3456C174.995 33.1465 175.057 33.8857 175.149 34.6557C175.242 35.3949 175.457 36.0726 175.796 36.6578C176.135 37.243 176.597 37.705 177.213 38.0438C177.829 38.3826 178.63 38.5675 179.646 38.5675C180.232 38.5675 180.786 38.5058 181.31 38.3518C181.833 38.2286 182.326 38.013 182.788 37.7974C183.219 37.551 183.62 37.2738 183.928 36.935C184.267 36.5962 184.482 36.2266 184.667 35.857C185.006 35.0869 185.191 33.7317 185.191 31.822V24.5837C185.191 23.4749 185.067 22.7973 184.821 22.4893C184.482 22.0888 183.989 21.904 183.312 21.904H182.603V21.8424Z" fill="#172F50"/>
<path d="M201.888 39.2138L194.988 24.2137V36.1337C194.988 36.7497 195.019 37.2425 195.111 37.5814C195.204 37.9202 195.327 38.1974 195.481 38.3514C195.635 38.5362 195.851 38.6286 196.066 38.6594C196.313 38.6902 196.559 38.721 196.867 38.721H197.483V39.2138H191.261V38.721H191.877C192.185 38.721 192.463 38.6902 192.709 38.6594C192.955 38.6286 193.14 38.5054 193.294 38.3206C193.448 38.1358 193.571 37.8894 193.633 37.5198C193.725 37.1809 193.756 36.7189 193.756 36.1029V24.4293C193.756 23.9981 193.725 23.6284 193.695 23.3204C193.664 23.0124 193.541 22.7352 193.387 22.5196C193.233 22.304 192.986 22.1192 192.647 21.996C192.309 21.8728 191.846 21.8112 191.23 21.8112V21.3184H196.282L202.781 35.3021L209.157 21.3184H214.208V21.8112H213.592C213.253 21.8112 212.976 21.842 212.76 21.9036C212.514 21.9652 212.329 22.0576 212.175 22.2424C212.021 22.4272 211.898 22.6736 211.836 23.0432C211.744 23.382 211.713 23.8441 211.713 24.4601V36.1337C211.713 36.7497 211.744 37.2425 211.836 37.5814C211.929 37.9202 212.052 38.1974 212.206 38.3514C212.36 38.5362 212.576 38.6286 212.791 38.6594C213.038 38.6902 213.284 38.721 213.592 38.721H214.208V39.2138H206.631V38.721H207.247C207.555 38.721 207.832 38.6902 208.079 38.6286C208.325 38.567 208.51 38.4746 208.664 38.2898C208.818 38.105 208.941 37.8586 209.034 37.5198C209.126 37.1809 209.157 36.7189 209.157 36.1337V24.2137L202.288 39.2138H201.888Z" fill="#172F50"/>
</svg>
