<svg width="233" height="59" viewBox="0 0 233 59" fill="none" xmlns="http://www.w3.org/2000/svg">
<path d="M50.4386 36.0496C50.3843 36.2119 50.3301 36.2661 50.2216 36.645C51.8487 35.3459 53.3674 33.8303 54.5606 32.423C54.5064 33.289 54.4521 33.9386 54.4521 34.4799C52.7708 36.3743 51.0352 37.9982 49.0826 39.4597C48.9199 39.8386 48.9742 39.6762 48.703 40.2716C50.6555 39.0266 52.2826 37.6193 53.9098 35.9954C53.6928 37.1321 53.5301 37.8899 53.4759 38.2688C51.6318 39.8927 49.7335 41.1918 47.6182 42.3285C47.564 42.3826 47.1843 43.0321 47.1843 43.0863C49.2454 42.1119 51.0894 40.9753 52.9335 39.4597C52.8793 39.7844 52.4454 41.4624 52.2826 41.8955C49.5708 43.8982 47.6182 44.8184 45.3945 45.6844C45.286 45.8468 45.2318 45.901 44.9606 46.2257C47.4013 45.3597 49.3538 44.3312 51.5233 42.8698C51.3606 43.3028 51.0894 44.0606 50.5471 45.1973C47.9437 46.767 45.3945 47.8496 43.0081 48.3909L42.5199 48.878C44.8521 48.445 47.1843 47.7954 50.1131 46.334C49.4623 47.5789 49.1369 48.1744 48.7572 48.8239C46.0454 50.0147 43.0623 50.6642 40.3504 50.9349L39.9165 51.3138C43.0623 51.2055 45.2318 50.7725 47.7267 50.0147C47.6725 50.123 46.8589 51.4221 46.3165 52.234C42.8996 53.1 40.242 53.2624 37.4759 53.1C36.7165 53.5872 36.8792 53.4789 36.5538 53.6954C39.8081 53.912 42.5742 53.5872 45.2318 53.0459C44.7979 53.6413 44.2555 54.3991 43.2792 55.5358C40.5674 55.9688 36.3369 56.2936 32.6488 55.8606C31.781 56.2936 30.9131 56.6725 30.0454 56.9973C30.8047 57.2138 31.564 57.3762 32.3233 57.5386C31.781 57.9175 31.1301 58.4046 30.5335 58.7835C29.503 58.5129 28.4725 58.2422 27.4962 57.9175C26.4657 58.2422 25.4894 58.5129 24.4589 58.7835C23.8623 58.4046 23.2115 57.9175 22.6691 57.5386C23.4284 57.3762 24.1877 57.2138 24.9471 56.9973C24.0793 56.6725 23.2115 56.2936 22.3437 55.8606C18.6555 56.2936 14.425 55.9688 11.7132 55.5358C10.7369 54.3991 10.2487 53.6413 9.76061 53.0459C12.364 53.5872 15.1843 53.9661 18.4386 53.6954C18.1132 53.4789 18.3301 53.5872 17.5165 53.1C14.8047 53.2624 12.1471 53.0459 8.7301 52.234C8.18773 51.4221 7.37417 50.123 7.31993 50.0147C9.76061 50.7184 11.9843 51.2055 15.1301 51.3138L14.6962 50.9349C11.9843 50.6642 9.00129 50.0147 6.28943 48.8239C5.90977 48.1744 5.58434 47.633 4.93349 46.334C7.86231 47.7954 10.1945 48.445 12.5267 48.878L12.0386 48.3909C9.65214 47.8496 7.10298 46.767 4.49959 45.1973C4.01145 44.0606 3.74027 43.3028 3.52332 42.8698C5.69281 44.3312 7.64536 45.3597 10.086 46.2257C9.81485 45.901 9.7606 45.8468 9.65213 45.6844C7.4284 44.8184 5.47587 43.8441 2.764 41.8955C2.60129 41.5166 2.16739 39.7844 2.11315 39.4597C3.95722 40.9753 5.80129 42.1119 7.8623 43.0863C7.80807 43.0321 7.42841 42.3826 7.42841 42.3285C5.31316 41.1918 3.36061 39.8386 1.57078 38.2688C1.4623 37.8358 1.2996 37.1321 1.13688 35.9954C2.764 37.6193 4.39112 38.9725 6.34367 40.2716C6.01824 39.6762 6.12671 39.8386 5.964 39.4597C4.01146 37.9982 2.27587 36.3743 0.594511 34.4799C0.540274 33.9386 0.48603 33.2349 0.48603 32.423C1.67925 33.8303 3.19789 35.2918 4.82501 36.645C4.6623 36.2661 4.6623 36.1578 4.60807 36.0496C2.70976 34.2092 1.4623 32.6395 0.214844 30.9074C0.214844 29.8789 0.269088 28.9587 0.323325 28.0386C1.46231 30.1496 2.65553 32.0441 3.84875 33.5597C3.79451 33.4514 3.57756 32.5854 3.57756 32.4771C2.3301 30.745 1.4623 29.2835 0.214844 26.956C0.377556 25.7652 0.594511 24.3037 0.594511 24.2496C1.24536 26.0899 2.11316 28.2551 3.03519 29.9872C2.92671 29.4459 2.70976 27.9844 2.65552 27.4432C2.38434 26.956 1.67926 25.4404 0.919938 23.3294C1.84197 17.4835 3.1979 13.911 3.57756 13.0991C3.03519 15.7514 0.865695 30.2578 8.40468 42.3285C13.0691 49.7441 19.9572 54.0743 27.7132 56.456C35.4691 54.0743 42.3572 49.7982 47.0216 42.3285C54.5606 30.312 52.4454 15.8055 51.8487 13.0991C52.2284 13.9652 53.5843 17.4835 54.5064 23.3294C53.6928 25.4404 52.9877 26.956 52.7708 27.4432C52.6623 27.9844 52.4996 29.4459 52.3911 29.9872C53.3132 28.2551 54.181 26.0899 54.8318 24.2496C54.886 24.3578 55.103 25.7652 55.2115 26.956C54.0182 29.3376 53.0962 30.745 51.8487 32.4771C51.7945 32.5854 51.5776 33.4514 51.5776 33.5597C52.7708 32.0441 53.964 30.1496 55.103 28.0386C55.1572 29.0129 55.2115 29.933 55.2115 30.9074C53.5843 32.5853 52.3369 34.1551 50.4386 36.0496Z" fill="#172F50"/>
<path d="M27.3363 53.9119C45.9939 46.3881 48.4888 31.8817 48.4888 31.8817L49.4109 11.1504C46.2651 9.68898 43.716 6.92845 42.1431 3.46423C40.4617 4.70919 38.4549 5.41284 36.3397 5.41284C32.6515 5.41284 29.3431 3.30184 27.3363 0C25.3295 3.30184 22.021 5.41284 18.3329 5.41284C16.2176 5.41284 14.2109 4.70919 12.5295 3.46423C10.9566 6.92845 8.40748 9.68898 5.26172 11.1504L6.18374 31.8817C6.18374 31.8817 8.7329 46.3881 27.3363 53.9119Z" fill="#172F50"/>
<path d="M33.0303 10.6631C32.4879 11.4209 31.9456 12.1246 31.4574 12.8824H22.7252C22.1828 12.1246 21.6947 11.4209 21.1523 10.6631C21.5862 10.9879 22.3998 11.042 22.454 11.6916C22.7252 11.5292 22.9422 11.3668 23.2676 11.4209C23.4845 11.475 23.6473 11.5833 23.81 11.6374C23.81 11.6916 23.7557 11.6916 23.7557 11.6916C23.7015 11.6916 23.593 11.6374 23.5388 11.6374C23.2134 11.5833 22.9964 11.7998 23.0506 12.0705C23.1049 12.1787 23.1049 12.3411 23.1049 12.5035C23.3218 12.5576 23.5388 12.6659 23.7557 12.7741C24.1354 12.8824 24.3523 12.7741 24.4608 12.5035C24.5151 12.3411 24.5693 12.2328 24.5693 12.0705C24.5693 12.0163 24.5151 11.9081 24.4608 11.9081C24.2439 11.7457 24.1896 11.6374 24.2981 11.4751C24.4608 11.3668 24.6778 11.3127 24.7862 11.4209C24.949 11.5292 24.949 11.6916 24.732 11.854C24.6778 11.9081 24.6778 11.9081 24.6235 11.9081C24.8947 12.2329 25.1117 12.5576 25.7083 12.5035C25.9252 12.4494 26.1422 12.3952 26.2506 12.287C26.6303 11.9081 26.8473 11.475 26.6846 10.9879C26.6303 10.8796 26.5218 10.8255 26.4134 10.7714C26.3049 10.8797 26.1964 10.9338 26.1964 11.042C26.0879 11.3127 26.0337 11.4751 25.5998 11.5833C25.8168 11.3127 25.7625 11.042 25.654 10.8255C25.4371 10.3925 25.7625 10.1219 26.4134 10.2301C26.4676 10.2301 26.5218 10.2842 26.6303 10.2842C26.4134 9.79707 27.01 9.58056 27.1184 9.20166C27.2269 9.58056 27.8235 9.79707 27.6066 10.2842C27.6608 10.2842 27.7151 10.2842 27.7693 10.2301C28.2574 10.1219 28.854 10.3925 28.5829 10.8796C28.4201 11.0961 28.4201 11.3668 28.5829 11.5833C28.3117 11.5292 28.0947 11.3668 28.0405 11.1503C27.9862 11.0961 28.0405 10.9879 27.9862 10.9338C27.932 10.8796 27.8235 10.8255 27.7693 10.8255C27.7151 10.8255 27.6066 10.8796 27.5523 10.9338C27.3354 11.3127 27.6066 12.0705 27.9862 12.3411C28.3117 12.5576 28.7998 12.6118 29.1252 12.3953C29.2879 12.287 29.4506 12.1246 29.5591 12.0163C29.4506 11.9081 29.3422 11.7998 29.3422 11.7457C29.2879 11.5833 29.3964 11.475 29.5591 11.4209C29.7218 11.3668 29.8845 11.4209 29.993 11.5292C30.1015 11.6374 30.1015 11.7998 29.8845 11.854C29.6676 11.9622 29.7218 12.0705 29.7218 12.1787C29.8303 12.8283 30.21 12.9907 30.9693 12.6659C31.132 12.5576 31.2947 12.5035 31.1862 12.3411C31.132 12.287 31.1862 12.2328 31.1862 12.2328C31.2947 11.8539 31.0778 11.6916 30.5354 11.7457H30.3727C30.6981 11.3668 31.0778 11.3668 31.6744 11.7457C31.7286 10.9879 32.5422 10.9879 33.0303 10.6631Z" fill="white"/>
<path d="M32.3269 25.8193V37.3487C32.3269 38.0523 32.2184 38.7019 32.0557 39.3514C31.9472 39.7844 31.7845 40.1633 31.6218 40.5422C31.1879 41.5166 30.5371 42.3285 29.7235 43.0321C29.6693 43.0321 29.6693 43.0863 29.6693 43.0863C29.2896 43.411 28.8015 43.7358 28.3676 44.0064C27.8794 44.2771 27.3371 44.4936 26.7947 44.7101C26.5777 44.7642 26.3608 44.8725 26.1439 44.9266C25.1676 45.1973 24.1913 45.3055 23.0523 45.3055C22.4015 45.3055 21.7506 45.2514 21.154 45.1973C21.0998 45.1973 21.0455 45.1973 21.0455 45.1973C20.1777 45.0349 19.4727 44.4936 19.4727 43.8982C19.4727 43.3028 19.9066 43.0863 20.5032 43.0863C20.9371 43.0863 21.7506 43.6817 22.3472 44.0606V23.167L24.6252 23.7624V44.2771C24.6794 44.2771 24.6794 44.2771 24.7337 44.2771C25.0591 44.1688 25.3845 44.1147 25.7099 43.9523C25.8184 43.8982 25.8727 43.8982 25.9269 43.8441V24.1413L28.2049 24.7367V42.0037L28.2591 41.9496C28.2591 41.9496 28.2591 41.9496 28.3133 41.8955C28.6388 41.4624 28.8557 40.9753 29.0727 40.434C29.3438 39.6221 29.5066 38.8101 29.5066 37.9441V25.1698L32.3269 25.8193Z" fill="white"/>
<path d="M35.0909 15.6973V16.8339H32.3248V24.6285L29.5587 23.9248V16.8339H28.3112V23.5459L26.0333 22.9505V16.8339H24.7316V22.6257L22.4536 21.9762V16.8339H19.6875V15.6973H35.0909Z" fill="white"/>
<path d="M36.9365 13.8027L36.3941 14.8312H18.0077L17.5195 13.8027H21.967L22.3467 14.1275H32.1094L32.489 13.8027H36.9365Z" fill="white"/>
<path d="M36.7186 13.8027L36.2305 14.8312L36.7186 13.8027Z" fill="white"/>
<path d="M28.3674 41.8955V43.9524C27.8792 44.223 27.3368 44.4395 26.7945 44.656C26.5775 44.7102 26.3606 44.8184 26.1436 44.8726H26.0352V43.79C26.0352 43.79 26.0352 43.79 26.0894 43.79C26.7945 43.4652 27.3911 43.0322 27.8792 42.4909C28.0419 42.2744 28.2046 42.112 28.3674 41.8955Z" fill="white"/>
<path d="M27.389 51.909C44.311 45.0889 46.589 31.8815 46.589 31.8815L47.4568 13.0448C44.6365 11.6916 42.3043 9.20169 40.8941 6.06224C39.3212 7.19894 37.5314 7.79436 35.6331 7.79436C32.2704 7.79436 29.2873 5.84572 27.4432 2.86865C25.5992 5.84572 22.6161 7.79436 19.2534 7.79436C17.3009 7.79436 15.511 7.14481 13.9924 6.06224C12.5822 9.25582 10.25 11.7457 7.42969 13.0448L8.29747 31.8815C8.189 31.8815 10.467 45.0889 27.389 51.909Z" stroke="white" stroke-width="1.0967" stroke-miterlimit="10"/>
<path d="M41.7072 33.0724L38.2361 27.9302C38.2903 27.822 38.3445 27.7678 38.3445 27.6596C38.3445 27.3889 38.1276 27.2266 37.9106 27.2266C37.6394 27.2266 37.4767 27.4431 37.4767 27.6596C37.4767 27.7678 37.531 27.8761 37.5852 27.9302L34.114 33.0724C33.9513 32.9642 33.7886 32.8559 33.7344 32.7477C34.0056 35.8871 37.9106 36.1578 37.9106 36.1578C37.9106 36.1578 41.8157 35.8871 42.0869 32.7477C42.0327 32.9101 41.9242 33.0183 41.7072 33.0724ZM34.8733 33.3431L35.0903 33.289C35.0903 33.289 34.8733 32.6935 35.9581 31.0156L35.9039 31.0697L37.6937 28.3633V32.9642C37.0428 33.5055 35.7954 33.5596 34.8733 33.3431ZM38.1276 32.9642V28.3633L39.9174 31.0697L39.8632 31.0156C41.0022 32.6935 40.731 33.289 40.731 33.289L40.9479 33.3431C40.0801 33.5596 38.8327 33.5055 38.1276 32.9642Z" fill="white"/>
<path d="M20.719 27.3888L17.2478 22.2466C17.302 22.1384 17.3563 22.0842 17.3563 21.976C17.3563 21.7053 17.1393 21.543 16.9224 21.543C16.6512 21.543 16.4885 21.7595 16.4885 21.976C16.4885 22.0842 16.5427 22.1925 16.5969 22.2466L13.1258 27.3888C12.963 27.2806 12.8003 27.1723 12.7461 27.0641C13.0173 30.2035 16.9224 30.4742 16.9224 30.4742C16.9224 30.4742 20.8274 30.2035 21.0986 27.0641C21.0444 27.2265 20.8817 27.2806 20.719 27.3888ZM13.8308 27.6595L14.0478 27.6054C14.0478 27.6054 13.8308 27.0099 14.9156 25.332L14.8613 25.3861L16.6512 22.6797V27.2806C16.0546 27.8219 14.7529 27.876 13.8308 27.6595ZM17.0851 27.2806V22.6797L18.8749 25.3861L18.8207 25.332C19.9597 27.0099 19.6885 27.6054 19.6885 27.6054L19.9054 27.6595C19.0376 27.876 17.7902 27.8219 17.0851 27.2806Z" fill="white"/>
<path d="M16.8672 21.8135L37.7485 27.497" stroke="white" stroke-width="1.0171" stroke-miterlimit="10"/>
<path d="M77.4695 20.1929V19.6201H85.9626V20.1929H85.2508C84.4442 20.1929 83.8274 20.4315 83.4953 20.9088C83.258 21.1951 83.1632 21.9588 83.1632 23.1997V32.936C83.1632 34.4633 82.9734 35.7042 82.6412 36.611C82.4514 37.0406 82.2617 37.5178 81.977 37.8997C81.6923 38.3292 81.3602 38.711 80.9331 38.9974C80.5535 39.2838 80.1265 39.5701 79.6046 39.761C79.0827 39.9519 78.5608 40.0474 78.0388 40.0474C77.5644 40.0474 77.1373 39.9997 76.8052 39.8565C76.4256 39.7133 76.1409 39.5701 75.9037 39.3315C75.6665 39.1406 75.4767 38.9019 75.3343 38.6156C75.192 38.3292 75.1445 38.0428 75.1445 37.7565C75.1445 37.1838 75.3343 36.802 75.619 36.611C75.9037 36.3724 76.2833 36.2769 76.6154 36.2769C76.7577 36.2769 76.9001 36.2769 77.0424 36.3247C77.1848 36.3724 77.3271 36.4201 77.4695 36.5633C77.6118 36.7065 77.7541 36.8974 77.8965 37.136C78.0863 37.3747 78.1812 37.7565 78.4184 38.186C78.6082 38.711 78.9403 38.9974 79.3199 38.9974C79.6046 38.9974 79.8418 38.8065 80.0316 38.5201C80.2689 38.2338 80.3638 37.6133 80.3638 36.8019V23.1997C80.3638 22.7224 80.3638 22.3406 80.3163 22.0542C80.3163 21.7679 80.2689 21.4815 80.2214 21.3383C80.174 21.1474 80.0791 21.0042 79.9842 20.9088C79.8893 20.8133 79.7469 20.7179 79.5572 20.6224C79.1301 20.3838 78.6556 20.2883 78.2761 20.2883H77.4695V20.1929Z" fill="#172F50"/>
<path d="M102.236 20.1929V19.6201H109.258V20.1929H108.499C107.74 20.1929 107.123 20.5269 106.743 21.1951C106.554 21.4815 106.459 22.1974 106.459 23.3428V31.4088C106.459 33.3656 106.269 34.8928 105.842 36.086C105.652 36.6588 105.367 37.136 104.94 37.6133C104.561 38.0906 104.086 38.5201 103.517 38.9019C102.948 39.236 102.236 39.5701 101.477 39.761C100.67 39.9519 99.816 40.0474 98.8196 40.0474C97.7284 40.0474 96.7794 39.9519 95.9728 39.761C95.1662 39.5701 94.4545 39.2838 93.8851 38.9497C93.3157 38.5678 92.8413 38.1383 92.4617 37.661C92.0821 37.136 91.7974 36.5633 91.5602 35.9429C91.2755 35.036 91.0857 33.4133 91.0857 31.0269V23.2474C91.0857 22.627 91.0383 22.1497 90.9434 21.7201C90.8959 21.3383 90.7536 21.0519 90.5638 20.8133C90.374 20.6224 90.1368 20.4315 89.8995 20.3838C89.6148 20.336 89.3301 20.2406 88.9506 20.2406H88.1914V19.6679H96.7794V20.2406H96.0202C95.6881 20.2406 95.356 20.2883 95.1187 20.336C94.8815 20.3838 94.6443 20.5269 94.4545 20.7656C94.2647 20.9565 94.1698 21.2906 94.0275 21.6724C93.9326 22.0542 93.8851 22.5792 93.8851 23.1997V31.886C93.8851 32.7929 93.9326 33.6042 94.0749 34.4633C94.1698 35.2747 94.407 36.0383 94.7866 36.7065C95.1662 37.3747 95.6881 37.8519 96.3524 38.2338C97.0166 38.6156 97.9181 38.8065 99.0569 38.8065C99.7211 38.8065 100.338 38.7588 100.907 38.5679C101.477 38.4247 102.046 38.186 102.568 37.9474C103.042 37.661 103.469 37.3747 103.849 36.9929C104.229 36.611 104.466 36.1815 104.656 35.7997C105.035 34.9406 105.225 33.4133 105.225 31.3133V23.2474C105.225 22.0065 105.083 21.2429 104.798 20.9088C104.418 20.4792 103.897 20.2406 103.137 20.2406H102.331V20.1929H102.236Z" fill="#172F50"/>
<path d="M125.103 19.1912V26.0639H124.534C124.297 24.2025 123.68 22.8184 122.731 21.8162C121.782 20.8616 120.549 20.3366 119.078 20.3366C118.556 20.3366 118.129 20.4321 117.654 20.623C117.227 20.8139 116.848 21.0525 116.515 21.2911C116.231 21.5775 115.946 21.9116 115.756 22.2457C115.567 22.6275 115.472 23.0093 115.472 23.3912C115.472 23.773 115.519 24.1071 115.661 24.4412C115.804 24.7753 116.231 25.3002 117.037 25.9684C118.318 26.7798 119.41 27.448 120.406 27.973C121.308 28.498 122.589 29.2616 124.155 30.3116C124.819 30.8366 125.341 31.4571 125.72 32.2207C126.1 32.9366 126.29 33.7002 126.29 34.5116C126.29 35.2752 126.147 35.9434 125.863 36.6593C125.578 37.3752 125.151 37.948 124.582 38.4252C124.012 38.9502 123.395 39.3321 122.589 39.6184C121.782 39.9048 120.976 40.048 120.074 40.048C119.505 40.048 118.935 40.0002 118.461 39.9048C118.366 39.9048 118.176 39.8571 117.797 39.7139C117.417 39.5707 117.037 39.523 116.61 39.3798C116.183 39.2843 115.804 39.1412 115.472 39.0457C115.092 38.9502 114.902 38.9025 114.855 38.9025C114.618 38.9025 114.428 38.9502 114.285 39.0934C114.143 39.2366 114.048 39.523 114.001 40.0002H113.431V33.1752H114.001C114.285 34.6071 114.618 35.6571 115.045 36.4207C115.234 36.7548 115.519 37.0889 115.851 37.3752C116.183 37.6616 116.563 37.948 116.99 38.1866C117.417 38.4252 117.891 38.6161 118.413 38.7116C118.888 38.8548 119.41 38.9025 119.932 38.9025C120.549 38.9025 121.07 38.807 121.592 38.6161C122.067 38.4252 122.494 38.1866 122.826 37.9002C123.158 37.6139 123.443 37.2321 123.633 36.8503C123.822 36.4684 123.917 36.0389 123.917 35.6093C123.917 35.1321 123.775 34.6071 123.49 34.1298C123.206 33.6525 122.779 33.1275 122.114 32.6502C121.497 32.2684 120.738 31.8389 119.884 31.3139C118.224 30.3593 116.753 29.4525 115.519 28.5457C114.807 27.973 114.238 27.3525 113.858 26.6366C113.479 25.9207 113.289 25.2048 113.289 24.3457C113.289 23.6775 113.431 22.9616 113.716 22.3412C114.001 21.7207 114.38 21.148 114.902 20.6707C115.424 20.1934 116.041 19.8116 116.753 19.5252C117.464 19.2389 118.224 19.0957 119.078 19.0957C120.122 19.0957 121.213 19.3343 122.446 19.8593C122.731 19.9548 122.968 20.0503 123.111 20.1457C123.3 20.1934 123.443 20.2411 123.538 20.2411C123.822 20.2411 124.012 20.1934 124.155 20.0502C124.344 19.9071 124.439 19.6207 124.534 19.1434H125.103V19.1912Z" fill="#172F50"/>
<path d="M147.12 19.6205V24.3455H146.788C146.598 23.0568 146.266 22.1977 145.697 21.6727C145.127 21.1477 144.273 20.8614 143.182 20.8614H140.382V36.0864C140.382 36.7546 140.43 37.2796 140.525 37.6614C140.62 38.0432 140.762 38.3296 140.952 38.5205C141.142 38.7114 141.331 38.8068 141.616 38.9023C141.901 38.95 142.185 38.95 142.518 38.95H143.182V39.5227H134.784V38.95H135.448C135.78 38.95 136.112 38.9023 136.349 38.8546C136.634 38.8068 136.824 38.6637 137.014 38.4727C137.203 38.2818 137.298 37.9955 137.441 37.6137C137.536 37.2318 137.583 36.7068 137.583 36.0864V20.8614H135.211C134.641 20.8614 134.072 20.9091 133.645 21.0046C133.218 21.1 132.791 21.2909 132.459 21.5296C132.127 21.7682 131.842 22.15 131.652 22.5796C131.462 23.0091 131.367 23.6296 131.272 24.2977H130.703V19.5728L147.12 19.6205Z" fill="#172F50"/>
<path d="M159.126 38.998V39.5707H150.633V38.998H151.298C151.63 38.998 151.962 38.9503 152.199 38.9503C152.484 38.9025 152.674 38.7594 152.863 38.5684C153.053 38.3775 153.148 38.0912 153.29 37.6616C153.385 37.2321 153.433 36.7071 153.433 35.9912V23.1525C153.433 22.723 153.433 22.3412 153.385 22.0071C153.338 21.673 153.338 21.4343 153.29 21.2912C153.243 21.1003 153.148 20.9571 153.053 20.8616C152.958 20.7662 152.816 20.6707 152.626 20.5753C152.199 20.3366 151.725 20.2412 151.25 20.2412H150.586V19.6685H159.079V20.2412H158.415C158.083 20.2412 157.751 20.2889 157.513 20.3366C157.276 20.3843 157.039 20.5275 156.849 20.7184C156.659 20.9093 156.564 21.1957 156.422 21.6253C156.28 22.0548 156.28 22.5321 156.28 23.248V36.0866C156.28 36.5639 156.28 36.9457 156.327 37.2321C156.327 37.5185 156.375 37.8048 156.422 37.948C156.469 38.1389 156.564 38.2821 156.659 38.3775C156.754 38.473 156.896 38.5685 157.086 38.6639C157.513 38.9025 157.94 38.998 158.415 38.998H159.126Z" fill="#172F50"/>
<path d="M179.717 19.1908L180.144 25.9681H179.717C179.1 23.9635 178.246 22.484 177.107 21.5772C175.968 20.6704 174.64 20.2408 173.074 20.2408C172.03 20.2408 171.129 20.4317 170.275 20.8135C169.421 21.1953 168.661 21.8158 168.045 22.5794C167.428 23.3908 166.953 24.3931 166.621 25.5862C166.289 26.7794 166.099 28.2112 166.099 29.8817C166.099 31.2181 166.289 32.4113 166.574 33.509C166.906 34.559 167.38 35.5135 167.997 36.2772C168.614 37.0408 169.421 37.6613 170.322 38.0431C171.224 38.4249 172.315 38.6635 173.454 38.6635C174.735 38.6635 175.826 38.3772 176.87 37.8522C177.819 37.3272 178.91 36.2294 180.096 34.559L180.523 34.8454C179.527 36.6113 178.388 37.8999 177.06 38.7112C175.778 39.5226 174.165 39.9522 172.362 39.9522C170.939 39.9522 169.658 39.7135 168.472 39.1885C167.333 38.7112 166.289 37.9954 165.435 37.0885C164.581 36.1817 163.917 35.1317 163.442 33.8908C162.968 32.6499 162.73 31.3135 162.73 29.834C162.73 27.8294 163.157 26.0158 164.059 24.3931C164.96 22.7703 166.147 21.434 167.712 20.5272C169.278 19.6204 170.986 19.1431 172.789 19.1431C174.213 19.1431 175.636 19.4772 177.012 20.1931C177.439 20.384 177.676 20.5272 177.914 20.5272C178.198 20.5272 178.483 20.384 178.72 20.1454C178.91 19.859 179.1 19.5726 179.147 19.1431L179.717 19.1908Z" fill="#172F50"/>
<path d="M197.748 20.1929V19.6201H204.77V20.1929H204.011C203.251 20.1929 202.635 20.5269 202.255 21.1951C202.065 21.4815 201.97 22.1974 201.97 23.3428V31.4088C201.97 33.3656 201.781 34.8928 201.354 36.086C201.164 36.6588 200.879 37.136 200.452 37.6133C200.073 38.0906 199.598 38.5201 199.029 38.9019C198.459 39.236 197.748 39.5701 196.988 39.761C196.182 39.9519 195.328 40.0474 194.331 40.0474C193.24 40.0474 192.291 39.9519 191.485 39.761C190.678 39.5701 189.966 39.2838 189.397 38.9497C188.827 38.5678 188.353 38.1383 187.973 37.661C187.594 37.136 187.309 36.5633 187.072 35.9429C186.787 35.036 186.597 33.4133 186.597 31.0269V23.2474C186.597 22.627 186.55 22.1497 186.455 21.7201C186.408 21.3383 186.265 21.0519 186.075 20.8133C185.886 20.6224 185.648 20.4315 185.411 20.3838C185.127 20.336 184.842 20.2406 184.462 20.2406H183.703V19.6679H192.196V20.2406H191.437C191.105 20.2406 190.773 20.2883 190.536 20.336C190.251 20.3838 190.061 20.5269 189.871 20.7656C189.682 20.9565 189.587 21.2906 189.444 21.6724C189.349 22.0542 189.302 22.5792 189.302 23.1997V31.886C189.302 32.7929 189.349 33.6042 189.492 34.4633C189.587 35.2747 189.824 36.0383 190.203 36.7065C190.583 37.3747 191.105 37.8519 191.769 38.2338C192.433 38.6156 193.335 38.8065 194.474 38.8065C195.138 38.8065 195.755 38.7588 196.324 38.5679C196.894 38.4247 197.463 38.186 197.985 37.9474C198.459 37.661 198.886 37.3747 199.266 36.9929C199.645 36.611 199.883 36.1815 200.072 35.7997C200.452 34.9406 200.642 33.4133 200.642 31.3133V23.2474C200.642 22.0065 200.5 21.2429 200.215 20.9088C199.835 20.4792 199.313 20.2406 198.554 20.2406H197.748V20.1929Z" fill="#172F50"/>
<path d="M219.145 39.5705L211.506 22.8182V36.1341C211.506 36.8023 211.554 37.375 211.649 37.7568C211.744 38.1387 211.886 38.425 212.076 38.6159C212.265 38.8068 212.503 38.9023 212.74 38.95C212.977 38.9977 213.309 38.9978 213.641 38.9978H214.306V39.5705H207.426V38.9978H208.09C208.422 38.9978 208.754 38.95 208.992 38.95C209.276 38.9023 209.466 38.7591 209.656 38.5682C209.846 38.3773 209.94 38.0909 210.035 37.6614C210.13 37.2796 210.178 36.7546 210.178 36.0864V23.0568C210.178 22.5796 210.13 22.15 210.13 21.8159C210.083 21.4819 209.94 21.1477 209.798 20.9091C209.608 20.6705 209.371 20.4796 208.992 20.3364C208.612 20.1932 208.09 20.1455 207.426 20.1455V19.5728H213.025L220.237 35.1796L227.306 19.5728H232.905V20.1455H232.241C231.861 20.1455 231.577 20.1932 231.339 20.2409C231.055 20.2886 230.865 20.4319 230.675 20.6228C230.485 20.8137 230.39 21.1 230.295 21.5296C230.201 21.9114 230.153 22.4364 230.153 23.1046V36.1341C230.153 36.8023 230.201 37.375 230.295 37.7568C230.39 38.1387 230.533 38.425 230.722 38.6159C230.912 38.8068 231.15 38.9023 231.387 38.95C231.671 38.9977 231.956 38.9978 232.288 38.9978H232.953V39.5705H224.554V38.9978H225.219C225.551 38.9978 225.883 38.95 226.12 38.9023C226.405 38.8546 226.595 38.7114 226.784 38.5205C226.974 38.3296 227.069 38.0432 227.211 37.6614C227.306 37.2796 227.354 36.7546 227.354 36.1341V22.8182L219.715 39.5705H219.145Z" fill="#172F50"/>
</svg>
