<svg width="168" height="180" viewBox="0 0 168 180" fill="none" xmlns="http://www.w3.org/2000/svg">
<path d="M10.5139 39.6238C10.7263 38.4584 10.5139 38.6703 10.1953 40.1535C10.4077 39.7297 10.5139 39.5178 10.5139 39.6238Z" fill="white"/>
<path d="M24.9558 129.465C1.80531 92.7018 8.38935 48.3111 10.1947 40.1533C9.13272 42.696 4.88496 53.6083 2.12389 71.513C4.56637 77.8696 6.69027 82.6371 7.43363 84.1203C7.64602 85.8154 8.28316 90.2651 8.60174 91.9602C5.84068 86.663 3.18581 79.9885 1.16812 74.3734C1.16812 74.6912 0.424779 79.035 0 82.7431C3.71681 89.9473 6.47785 94.291 10.1947 99.6942C10.1947 99.9061 10.938 102.767 11.0442 102.873C7.43359 98.211 3.7168 92.49 0.318571 85.9214C0.106182 88.8878 -2.5928e-05 91.6424 0.106169 94.8208C3.92918 100.224 7.75222 104.885 13.4867 110.606C13.5929 111.03 13.6991 111.348 14.1239 112.513C9.23892 108.488 4.56636 103.932 0.849545 99.5883C0.955739 102.237 1.06192 104.25 1.16812 105.945C6.26546 111.772 11.5752 116.751 17.6283 121.201C18.1593 122.366 17.8407 121.837 18.7965 123.638C12.8496 119.824 7.85842 115.586 2.86727 110.606C3.50444 114.103 3.9292 116.328 4.24779 117.599C9.76991 122.472 15.7168 126.604 22.1947 130.1C22.3008 130.206 23.469 132.325 23.5752 132.431C17.3097 129.359 11.6814 125.863 6.05311 121.413C6.2655 122.366 7.64602 127.664 7.9646 128.723C16.2478 134.868 22.1947 137.728 29.0973 140.377C29.4159 140.801 29.6283 141.013 30.3717 141.966C22.8318 139.317 16.8849 136.245 10.1947 131.689C10.7256 133.067 11.5752 135.398 13.0619 138.788C20.9203 143.555 28.885 146.84 36.1062 148.641L37.5929 150.23C30.4778 148.852 23.3628 146.945 14.3363 142.39C16.2478 146.31 17.3097 147.899 18.4778 149.912C26.8672 153.514 35.8938 155.633 44.2832 156.269L45.6637 157.434C36.1062 157.222 29.3097 155.739 21.7699 153.408C21.9823 153.726 24.4248 157.752 26.2301 160.189C36.7434 162.731 44.8141 163.367 53.2035 162.837C55.5398 164.426 55.0089 164.003 55.9646 164.638C45.9823 165.38 37.4867 164.32 29.5221 162.519C30.9026 164.426 32.4955 166.651 35.469 170.147C43.646 171.419 56.6018 172.478 67.9646 171.101C76.2478 175.021 84.531 177.775 93.1328 180C94.9381 178.729 96.8495 177.352 98.5487 176.08C69.1327 170.147 42.1593 156.798 24.9558 129.465Z" fill="white"/>
<path d="M157.488 39.6238C157.275 38.4584 157.488 38.6703 157.806 40.1535C157.594 39.7297 157.488 39.5178 157.488 39.6238Z" fill="white"/>
<path d="M143.046 129.465C166.197 92.7018 159.612 48.3111 157.807 40.1533C158.869 42.696 163.117 53.6083 165.878 71.513C163.435 77.8696 161.312 82.6371 160.568 84.1203C160.356 85.8154 159.719 90.2651 159.4 91.9602C162.161 86.663 164.816 79.9885 166.834 74.3734C166.834 74.6912 167.577 79.035 168.002 82.7431C164.285 89.9473 161.524 94.291 157.807 99.6942C157.807 99.9061 157.064 102.767 156.958 102.873C160.568 98.211 164.285 92.49 167.683 85.9214C167.896 88.8878 168.002 91.6424 167.896 94.8208C164.073 100.224 160.25 104.885 154.515 110.606C154.409 111.03 154.303 111.348 153.878 112.513C158.763 108.488 163.435 103.932 167.152 99.5883C167.046 102.237 166.94 104.25 166.834 105.945C161.736 111.772 156.427 116.751 150.373 121.201C149.843 122.366 150.161 121.837 149.205 123.638C155.152 119.824 160.25 115.586 165.135 110.606C164.497 114.103 164.073 116.328 163.754 117.599C158.232 122.472 152.285 126.604 145.807 130.1C145.701 130.206 144.533 132.325 144.427 132.431C150.692 129.359 156.32 125.863 161.949 121.413C161.736 122.366 160.356 127.664 160.037 128.723C151.754 134.868 145.807 137.728 138.904 140.377C138.586 140.801 138.373 141.013 137.63 141.966C145.17 139.317 151.117 136.245 157.807 131.689C157.276 133.067 156.427 135.398 154.94 138.788C147.081 143.555 139.117 146.84 131.896 148.641L130.409 150.23C137.524 148.852 144.639 146.945 153.666 142.39C151.754 146.31 150.692 147.899 149.524 149.912C141.135 153.514 132.108 155.633 123.719 156.269L122.338 157.434C131.896 157.222 138.692 155.739 146.232 153.408C146.02 153.726 143.577 157.752 141.772 160.189C131.258 162.731 123.188 163.367 114.798 162.837C112.462 164.426 112.993 164.003 112.037 164.638C122.02 165.38 130.515 164.32 138.48 162.519C137.099 164.426 135.506 166.651 132.533 170.147C124.356 171.419 111.4 172.478 100.037 171.101C91.7541 175.021 83.4709 177.775 74.8691 180C73.0638 178.729 71.1522 177.352 69.4531 176.08C98.8691 170.147 125.843 156.798 143.046 129.465Z" fill="white"/>
<path d="M83.6804 164.956C140.707 141.966 148.353 97.5749 148.353 97.5749L151.22 34.1141C141.663 29.5585 133.804 21.1889 129.026 10.5945C123.822 14.3025 117.769 16.5273 111.291 16.5273C99.9282 16.5273 89.9459 9.95879 83.6804 0C77.4149 10.0647 67.4326 16.5273 56.0698 16.5273C49.5919 16.5273 43.4326 14.4085 38.3353 10.5945C33.5565 21.1889 25.6981 29.6644 16.1406 34.1141L19.0078 97.5749C18.9016 97.6809 26.6539 142.072 83.6804 164.956Z" fill="white"/>
<path d="M101.733 32.8432C100.034 35.28 98.3351 37.6107 96.636 40.0474C93.5564 41.6366 89.9458 42.6961 86.0166 43.0139C85.167 43.0139 84.4237 43.0139 83.5741 43.0139C82.8307 43.0139 82.0873 43.0139 81.344 43.0139C77.2024 42.6961 73.4856 41.5307 70.2998 39.8355C68.6006 37.5048 67.0077 35.174 65.3086 32.8432C66.6891 33.9027 69.2378 34.0086 69.344 35.9156C70.1935 35.3859 70.8307 34.8562 71.8927 35.068C72.4237 35.174 72.9546 35.4918 73.4856 35.8097C73.4856 35.9156 73.3794 35.9156 73.3794 36.0216C73.167 36.0216 72.9546 35.9156 72.7422 35.9156C71.6803 35.8096 71.0431 36.3394 71.1493 37.1869C71.2555 37.6107 71.2555 37.9286 71.2555 38.4583C71.7864 38.6702 72.5298 38.988 73.3794 39.1999C74.4413 39.5177 75.1847 39.1999 75.5033 38.3523C75.7156 37.9285 75.7156 37.5048 75.8218 37.081C75.8218 36.8691 75.6095 36.6572 75.5033 36.5513C74.8661 36.1275 74.6537 35.7037 75.0785 35.2799C75.5033 34.8562 76.1405 34.8561 76.6714 35.174C77.0962 35.4918 77.0962 36.0215 76.459 36.4453C76.3528 36.4453 76.2467 36.5513 76.1405 36.6572C76.8838 37.6107 77.7334 38.5642 79.4325 38.4583C80.0696 38.4583 80.813 38.1404 81.2378 37.8226C82.4059 36.6572 83.1493 35.3859 82.5121 33.9027C82.406 33.6908 81.9812 33.4789 81.7688 33.267C81.5564 33.4789 81.1316 33.7967 81.0254 34.0086C80.813 34.8562 80.4944 35.2799 79.2201 35.7037C79.8572 34.8561 79.6449 34.1145 79.3263 33.267C78.7953 31.8897 79.7511 31.1481 81.5564 31.36C81.7688 31.36 81.8749 31.36 82.1935 31.4659C81.5563 30.0886 83.3617 29.347 83.6803 28.1816C83.9988 29.347 85.8042 30.0886 85.167 31.4659C85.3794 31.4659 85.4856 31.4659 85.5918 31.4659C87.1847 31.0421 88.8838 31.8897 88.0342 33.373C87.6094 34.1146 87.5032 34.8562 88.0342 35.4918C87.1847 35.3859 86.5475 34.9621 86.3351 34.1145C86.3351 33.9026 86.3351 33.6908 86.1227 33.4789C85.9103 33.267 85.6979 33.161 85.3794 33.161C85.167 33.161 84.8484 33.3729 84.8484 33.5848C84.2112 34.6442 84.9546 37.081 86.1227 37.9286C87.1847 38.6702 88.5652 38.6701 89.6271 38.0345C90.1581 37.7166 90.5829 37.1869 91.0077 36.7631C90.6891 36.4453 90.3705 36.2334 90.3705 35.9156C90.1581 35.4918 90.4767 35.174 91.0077 34.9621C91.5387 34.8562 92.0696 34.9621 92.282 35.3859C92.4944 35.8096 92.4944 36.2334 91.9634 36.3394C91.3263 36.5513 91.4325 36.8691 91.4325 37.2929C91.6448 39.4117 92.813 39.8355 95.2555 38.7761C95.7865 38.5642 96.2112 38.3523 95.8927 37.8226C95.8927 37.7166 95.8927 37.6107 95.8927 37.3988C96.105 36.2334 95.5741 35.8096 93.9812 35.9156C93.875 35.9156 93.7688 35.9156 93.7688 35.9156C94.8307 34.7502 95.9988 34.7502 97.8041 35.9156C97.9103 34.0086 100.353 33.7967 101.733 32.8432Z" fill="#0F1F31"/>
<path d="M75.5044 51.5944C75.6106 51.5944 75.7168 51.5944 75.7168 51.5944C74.6548 51.0646 73.8053 50.0052 73.4867 49.0517C70.7256 49.0517 68.0708 49.0517 65.3097 49.0517C64.354 49.0517 62.761 48.4161 62.6548 49.7934C62.4425 51.4885 64.1415 51.4884 65.4159 51.4884C65.9468 51.4884 66.3717 51.4884 66.9026 51.4884C67.115 51.2765 67.3274 51.2765 67.5398 51.4884C68.7079 52.4419 68.177 53.8192 68.177 54.9846C68.177 82.1064 68.177 109.122 68.177 136.244V137.621H75.292V135.608C75.292 107.957 75.292 80.1994 75.292 52.5479C75.0796 52.1241 75.1858 51.8062 75.5044 51.5944Z" fill="#0F1F31"/>
<path d="M100.142 49.0527C98.5488 49.0527 96.8497 49.0527 95.2568 49.0527C95.363 49.6884 95.363 50.43 95.2568 51.0656C95.0444 52.1251 94.301 52.8667 93.4515 53.3964C92.6019 53.9262 91.3275 54.0321 90.3718 53.8202C90.2656 54.1381 90.2656 54.4559 90.2656 54.6678C90.2656 57.5283 90.2656 60.4947 90.2656 63.3552C90.2656 86.2393 90.2656 109.229 90.2656 132.113L90.3718 132.007C92.8143 129.888 94.7258 127.346 96.1063 124.379C96.6373 123.214 97.0621 122.049 97.3807 120.777C97.3807 101.601 97.3807 82.5312 97.3807 63.3552C97.3807 60.6007 97.3807 57.8461 97.3807 55.0916C97.3807 52.8667 97.2745 51.2775 100.354 51.5954C101.204 51.7013 102.797 51.3835 102.584 49.9003C102.478 48.3111 100.991 49.0527 100.142 49.0527Z" fill="white"/>
<path d="M112.141 45.7681H55.964L54.3711 42.3779H113.734L112.141 45.7681Z" fill="#0F1F31"/>
<path d="M106.939 48.5225H61.0625V51.8067H106.939V48.5225Z" fill="#0F1F31"/>
<path d="M90.0552 49.2646V116.116C90.0552 118.764 89.6304 121.307 88.7809 123.744C88.1437 125.333 87.4003 126.922 86.4446 128.193C86.0198 128.829 85.4888 129.571 84.8517 130.1C83.3649 131.69 81.4535 133.067 79.3296 134.02C79.011 134.126 78.6924 134.338 78.3738 134.444C77.4181 134.868 76.4623 135.186 75.4004 135.398C73.5951 135.821 71.5773 136.033 69.4534 136.033C69.1349 136.033 68.7101 136.033 68.3915 136.033C66.3738 135.927 64.4623 135.715 62.5508 135.186C63.0818 135.927 63.4004 136.987 63.2942 137.94C65.6304 138.258 67.9668 138.47 70.303 138.47C73.7013 138.47 76.7809 138.046 79.6482 137.305C80.2853 137.093 81.0287 136.881 81.6658 136.669C83.3649 136.033 84.9579 135.398 86.4446 134.55C87.8251 133.702 89.2057 132.855 90.3738 131.795L90.48 131.69C92.9225 129.571 94.834 127.028 96.2145 124.062C96.7455 122.896 97.1703 121.731 97.4889 120.459C98.0198 118.552 98.2322 116.433 98.2322 114.315V50.43C95.4712 50.43 92.7101 49.9003 90.0552 49.2646Z" fill="#0F1F31"/>
<path d="M69.6681 135.927C71.261 136.668 65.8451 138.258 64.1459 138.258C62.4468 138.258 59.3672 136.033 59.3672 134.338C59.3672 132.643 60.7477 132.007 62.553 132.007C64.3583 132.007 68.0752 135.185 69.6681 135.927Z" fill="#0F1F31"/>
<path fill-rule="evenodd" clip-rule="evenodd" d="M83.5776 7.47559L84.3098 8.66102C89.8116 17.5674 98.6903 23.2972 108.639 23.2972C114.386 23.2972 119.733 21.3534 124.275 18.0582L125.131 17.4374L125.565 18.3997C129.845 27.8762 136.93 35.3445 145.331 39.3798L145.842 39.6254L143.266 97.8794L143.257 97.9333L142.409 97.7869C143.257 97.9333 143.257 97.934 143.257 97.9348L143.255 97.9445L143.25 97.9704C143.246 97.9925 143.24 98.0242 143.232 98.0653C143.217 98.1476 143.193 98.2676 143.159 98.4234C143.093 98.7351 142.99 99.1902 142.841 99.7742C142.542 100.942 142.059 102.626 141.317 104.708C139.833 108.871 137.313 114.63 133.163 121.044C124.859 133.879 110.043 149.311 84.0063 159.818L83.6841 159.948L83.3617 159.819C57.2719 149.311 42.4562 133.906 34.1386 121.084C29.9824 114.677 27.4528 108.922 25.9475 104.756C25.1948 102.672 24.6983 100.986 24.3829 99.8152C24.2252 99.2299 24.113 98.7743 24.0376 98.4664L24.0276 98.4253C24.024 98.4107 24.0205 98.3966 24.0172 98.3829L23.9086 98.3288L21.3125 39.6224L21.8275 39.378C30.3282 35.3446 37.3083 27.88 41.5897 18.3997L42.0309 17.4228L42.8901 18.0657C47.418 21.4536 52.7601 23.2972 58.5156 23.2972C68.4648 23.2972 77.3435 17.5674 82.8453 8.66102L83.5776 7.47559ZM141.553 97.6906L144.074 40.6759C135.779 36.5351 128.81 29.2195 124.433 20.0445C119.814 23.1683 114.427 25.0135 108.639 25.0135C98.4274 25.0135 89.3785 19.3745 83.5776 10.7005C77.7766 19.3745 68.7277 25.0135 58.5156 25.0135C52.738 25.0135 47.3467 23.2679 42.7162 20.0571C38.3461 29.2238 31.4721 36.5384 23.0812 40.6788L25.5995 97.6251C25.6065 97.6497 25.6129 97.674 25.6187 97.6963C25.6393 97.7751 25.6661 97.8846 25.6976 98.0132L25.7088 98.0591C25.7832 98.3628 25.8917 98.8034 26.0443 99.3697C26.3494 100.502 26.832 102.142 27.566 104.174C29.0342 108.238 31.5089 113.872 35.5829 120.152C43.6913 132.651 58.151 147.737 83.6834 158.097C109.163 147.737 123.622 132.625 131.718 120.113C135.785 113.826 138.249 108.19 139.696 104.132C140.419 102.104 140.887 100.471 141.174 99.3499C141.317 98.7894 141.415 98.357 141.477 98.0672C141.492 97.9966 141.504 97.9345 141.515 97.881C141.527 97.8248 141.536 97.7781 141.543 97.7413C141.546 97.7273 141.548 97.7147 141.55 97.7036C141.551 97.699 141.552 97.6947 141.553 97.6906Z" fill="#0F1F31"/>
<path d="M98.9773 43.5433H67.3312L65.7383 41.9541H100.57L98.9773 43.5433Z" fill="white"/>
<path d="M126.16 101.813L115.54 86.0275C115.753 85.8157 115.859 85.4978 115.859 85.18C115.859 84.4384 115.222 83.8027 114.478 83.8027C113.735 83.8027 113.098 84.4384 113.098 85.18C113.098 85.4978 113.204 85.8157 113.416 86.0275L102.797 101.813C102.266 101.495 101.841 101.178 101.629 100.86C102.478 110.395 114.372 111.242 114.372 111.242C114.372 111.242 126.266 110.395 127.116 100.86C127.116 101.178 126.691 101.495 126.16 101.813ZM105.133 102.555L105.77 102.449C105.77 102.449 105.027 100.542 108.425 95.4566V95.5626L113.947 87.2989V101.39C111.824 103.085 108.001 103.191 105.133 102.555ZM115.116 101.39V87.2989L120.638 95.5626V95.4566C124.036 100.542 123.293 102.449 123.293 102.449L123.93 102.555C121.063 103.191 117.133 103.085 115.116 101.39Z" fill="#0F1F31"/>
<path d="M62.0192 84.4383L51.3998 68.6526C51.6121 68.4407 51.7184 68.1229 51.7184 67.8051C51.7184 67.0635 51.0812 66.4277 50.3378 66.4277C49.5944 66.4277 48.9573 67.0635 48.9573 67.8051C48.9573 68.1229 49.0635 68.4407 49.2759 68.6526L38.6564 84.4383C38.1254 84.1205 37.7007 83.8027 37.4883 83.4849C38.3378 93.0199 50.2316 93.8674 50.2316 93.8674C50.2316 93.8674 62.1254 93.0199 62.975 83.4849C62.975 83.8027 62.5502 84.1205 62.0192 84.4383ZM40.9927 85.1799L41.6299 85.074C41.6299 85.074 40.8865 83.167 44.2848 78.0816V78.1876L49.8068 69.924V84.0146C47.7891 85.7097 43.8599 85.8156 40.9927 85.1799ZM50.975 84.0146V69.924L56.4972 78.1876V78.0816C59.8954 83.167 59.152 85.074 59.152 85.074L59.7892 85.1799C56.9219 85.8156 53.0989 85.7097 50.975 84.0146Z" fill="#0F1F31"/>
<path fill-rule="evenodd" clip-rule="evenodd" d="M115.102 86.4309L49.8984 68.7382L50.3499 67.082L115.553 84.7748L115.102 86.4309Z" fill="#0F1F31"/>
<path fill-rule="evenodd" clip-rule="evenodd" d="M113.42 83.8175L53.4945 67.5947L54.3667 63.8225L114.292 80.0453L113.42 83.8175Z" fill="white"/>
<path d="M87.1877 50.8538C86.7629 50.43 86.4444 49.9003 86.232 49.2646V49.0527C85.8072 49.0527 85.2762 49.0527 84.8514 49.0527C84.4266 49.7943 83.4709 50.6419 82.5152 50.7478C81.1346 50.9597 79.8603 51.2775 78.5859 51.8073C79.3293 52.1251 79.2231 53.0786 79.2231 55.0916V65.5801C79.2231 88.4641 79.2231 111.348 79.2231 134.232V137.622H79.5417C80.1788 137.41 80.9222 137.199 81.5594 136.987C83.2585 136.351 84.8514 135.715 86.3381 134.868V128.299C86.3381 107.852 86.3381 87.4047 86.3381 66.8514C86.3381 65.686 86.3381 64.5206 86.3381 63.2493C86.3381 60.3888 86.3381 57.5283 86.3381 54.7737C86.3381 53.6083 85.701 52.2311 87.0815 51.3835C87.1877 51.2776 87.2939 51.2775 87.4001 51.2775C87.4001 51.1716 87.2939 51.0657 87.1877 50.8538Z" fill="#0F1F31"/>
<path d="M100.463 39.623H66.4805V41.9538H100.463V39.623Z" fill="white"/>
</svg>
