<svg width="282" height="85" viewBox="0 0 282 85" fill="none" xmlns="http://www.w3.org/2000/svg">
<path d="M4.18221 1.85337V0.896484H18.9992V1.85337H17.7445C16.3106 1.85337 15.2949 2.27201 14.6377 3.10928C14.2195 3.64753 14.0403 4.90344 14.0403 7.05643V23.9813C14.0403 26.6725 13.7415 28.7657 13.1441 30.3804C12.8453 31.1579 12.4869 31.9354 12.0089 32.653C11.5309 33.3707 10.9335 34.0286 10.2165 34.5668C9.55932 35.1051 8.78264 35.5835 7.88645 35.8825C6.99027 36.1815 6.09406 36.361 5.13813 36.361C4.30168 36.361 3.58475 36.2414 2.98729 36.0619C2.33009 35.8227 1.79237 35.5237 1.37415 35.1649C0.955926 34.806 0.597444 34.3874 0.35846 33.909C0.119477 33.4305 0 32.9521 0 32.4138C0 31.4569 0.298744 30.7393 0.836456 30.3804C1.37417 29.9618 1.9716 29.7824 2.56906 29.7824C2.80805 29.7824 3.04704 29.7824 3.28602 29.8422C3.525 29.902 3.76399 30.0216 4.00298 30.2608C4.24196 30.5001 4.48094 30.8589 4.77966 31.2775C5.07839 31.6962 5.31738 32.354 5.67585 33.1315C6.03433 34.0286 6.57202 34.507 7.22923 34.507C7.7072 34.507 8.12544 34.208 8.48391 33.6697C8.90213 33.1315 9.08137 32.1148 9.08137 30.6795V6.99662C9.08137 6.15935 9.08135 5.5015 9.0216 5.02306C9.0216 4.48481 8.96186 4.06617 8.84237 3.76714C8.72288 3.40831 8.60338 3.16908 8.42414 2.98967C8.24491 2.81025 8.00595 2.63084 7.70722 2.45142C6.93053 2.03279 6.1538 1.85337 5.43685 1.85337H4.18221Z" fill="white"/>
<path d="M47.4965 1.85337V0.896484H59.7444V1.85337H58.43C57.1156 1.85337 56.0401 2.45142 55.3232 3.58772C54.9647 4.12596 54.7855 5.32207 54.7855 7.29565V21.3499C54.7855 24.7588 54.427 27.45 53.7101 29.4834C53.3516 30.4403 52.8736 31.3373 52.1567 32.1746C51.4995 33.0119 50.663 33.7295 49.6473 34.3874C48.6317 34.9854 47.4367 35.5237 46.0626 35.8825C44.6884 36.2413 43.135 36.4208 41.4024 36.4208C39.4906 36.4208 37.8177 36.2413 36.3838 35.9423C34.9499 35.5835 33.755 35.105 32.7393 34.507C31.7236 33.8491 30.8871 33.1315 30.2299 32.2344C29.5727 31.3373 29.0351 30.3206 28.6168 29.2442C28.0791 27.6892 27.7804 24.8186 27.7804 20.692V7.17603C27.7804 6.09953 27.7206 5.26227 27.5414 4.5446C27.4219 3.88675 27.1829 3.3485 26.8842 2.98967C26.5855 2.63083 26.1672 2.33182 25.749 2.21221C25.271 2.0926 24.7333 1.97299 24.0761 1.97299H22.7617V1.0161H37.7579V1.97299H36.4435C35.8461 1.97299 35.3083 2.03279 34.8304 2.1524C34.3524 2.27201 33.994 2.51123 33.6952 2.87007C33.3965 3.2289 33.1575 3.76715 32.9783 4.425C32.799 5.08286 32.7393 5.97994 32.7393 7.11624V22.2469C32.7393 23.8019 32.8588 25.2372 33.038 26.7323C33.2172 28.1677 33.6355 29.4834 34.2927 30.6197C34.9499 31.756 35.8461 32.653 37.041 33.3109C38.2359 33.9688 39.7893 34.3276 41.7609 34.3276C42.8961 34.3276 43.9715 34.208 44.9872 33.9089C46.0028 33.6697 46.9588 33.2511 47.855 32.8325C48.6914 32.354 49.4681 31.8158 50.0656 31.1579C50.7228 30.5 51.141 29.7824 51.4995 29.0647C52.1567 27.5696 52.5152 24.9382 52.5152 21.2302V7.17603C52.5152 5.02304 52.2762 3.70733 51.7982 3.10928C51.141 2.33182 50.1851 1.97299 48.8706 1.97299H47.4965V1.85337Z" fill="white"/>
<path d="M87.4689 0.119618V12.0807H86.513C86.0948 8.85117 85.0194 6.39917 83.3465 4.66481C81.6736 2.99027 79.5227 2.09318 76.9537 2.09318C76.0575 2.09318 75.2808 2.27261 74.5041 2.57163C73.7871 2.87066 73.13 3.2893 72.5325 3.76774C71.9948 4.24618 71.5168 4.84422 71.2181 5.44228C70.9194 6.10013 70.7401 6.758 70.7401 7.41586C70.7401 8.07371 70.8596 8.67177 71.0986 9.21001C71.3376 9.80806 72.1143 10.7051 73.4884 11.9012C75.699 13.2768 77.6706 14.4729 79.4033 15.3699C81.0164 16.267 83.227 17.5827 85.9753 19.4367C87.1702 20.3338 88.0664 21.4103 88.7236 22.726C89.3808 23.9819 89.6795 25.2976 89.6795 26.6731C89.6795 27.9888 89.4405 29.1849 88.9028 30.381C88.3651 31.5771 87.6482 32.5938 86.6922 33.4311C85.7363 34.3282 84.6011 34.986 83.227 35.5243C81.8528 36.0625 80.4189 36.3018 78.8058 36.3018C77.7901 36.3018 76.8342 36.242 75.9977 36.0625C75.8185 36.0625 75.46 35.9429 74.8028 35.7635C74.1456 35.5841 73.4884 35.4047 72.7117 35.1655C71.9948 34.986 71.2778 34.7468 70.6804 34.5674C70.0231 34.388 69.6647 34.3282 69.6049 34.3282C69.1867 34.3282 68.8282 34.4478 68.5892 34.687C68.3503 34.9262 68.1711 35.4645 68.0516 36.3018H67.0956V24.4005H68.0516C68.5295 26.8525 69.127 28.7065 69.8439 30.0222C70.2024 30.6203 70.6804 31.2183 71.2778 31.6967C71.8753 32.235 72.5325 32.6536 73.3092 33.0723C74.0859 33.4909 74.8626 33.7899 75.7587 33.9694C76.5952 34.2086 77.4914 34.2684 78.3876 34.2684C79.463 34.2684 80.4189 34.089 81.2554 33.7899C82.0918 33.4909 82.8087 33.0723 83.4062 32.534C84.0037 31.9958 84.4817 31.3977 84.7804 30.7399C85.0791 30.082 85.2583 29.3045 85.2583 28.5869C85.2583 27.7496 85.0194 26.8525 84.5414 26.0153C84.0634 25.178 83.2867 24.2809 82.1516 23.4436C81.0761 22.7858 79.7617 22.0083 78.2681 21.1112C75.4003 19.4367 72.8312 17.8818 70.6206 16.3268C69.366 15.3101 68.41 14.2336 67.7528 13.0375C67.0956 11.8414 66.7969 10.5257 66.7969 9.09039C66.7969 7.89429 67.0359 6.69819 67.5736 5.6217C68.0515 4.54521 68.7685 3.52851 69.6647 2.69123C70.5609 1.85396 71.6363 1.19611 72.891 0.717669C74.1456 0.239228 75.46 0 76.9537 0C78.8058 0 80.7176 0.418644 82.8087 1.31572C83.2867 1.49514 83.7049 1.67455 84.0037 1.79416C84.3621 1.91377 84.6011 1.97358 84.7804 1.97358C85.2584 1.97358 85.6168 1.85397 85.8558 1.61475C86.1545 1.37553 86.3338 0.837272 86.513 0H87.4689V0.119618Z" fill="white"/>
<path d="M126.003 0.895728V9.08904H125.406C125.107 6.87625 124.51 5.38113 123.494 4.42425C122.478 3.52717 120.985 3.04872 119.073 3.04872H114.174V29.5424C114.174 30.7385 114.233 31.6356 114.413 32.2934C114.592 32.9513 114.831 33.4895 115.13 33.7886C115.428 34.1474 115.787 34.3268 116.265 34.4464C116.743 34.5062 117.28 34.5661 117.878 34.5661H119.073V35.5229H104.375V34.5661H105.57C106.168 34.5661 106.705 34.5062 107.183 34.3866C107.661 34.267 108.02 34.0876 108.319 33.7288C108.617 33.37 108.856 32.8915 109.036 32.2337C109.215 31.5758 109.275 30.6787 109.275 29.5424V3.04872H105.092C104.077 3.04872 103.121 3.10852 102.344 3.28794C101.567 3.46735 100.85 3.76638 100.253 4.18501C99.6555 4.60365 99.1775 5.26151 98.8788 6.03898C98.5203 6.81644 98.3411 7.83313 98.2216 9.02923H97.2656V0.835938H126.003V0.895728Z" fill="white"/>
<path d="M147.033 34.6274V35.5842H132.216V34.6274H133.411C134.008 34.6274 134.546 34.5675 135.024 34.5077C135.502 34.4479 135.86 34.2087 136.159 33.8499C136.458 33.491 136.697 33.0126 136.876 32.2949C137.055 31.5773 137.115 30.6204 137.115 29.4243V7.05717C137.115 6.2797 137.115 5.62183 137.055 5.08358C136.996 4.54534 136.936 4.12672 136.876 3.82769C136.816 3.46886 136.637 3.22963 136.458 3.05021C136.279 2.8708 136.04 2.69139 135.741 2.51197C134.964 2.09333 134.188 1.91392 133.351 1.91392H132.156V0.957031H146.973V1.91392H145.778C145.181 1.91392 144.643 1.97372 144.165 2.09333C143.687 2.21294 143.329 2.39236 143.03 2.75119C142.731 3.11002 142.492 3.58846 142.313 4.30612C142.134 5.02379 142.074 5.92087 142.074 7.11698V29.4243C142.074 30.2616 142.074 30.9194 142.134 31.3979C142.134 31.9361 142.194 32.3547 142.313 32.6538C142.433 33.0126 142.552 33.2518 142.731 33.4313C142.911 33.6107 143.149 33.7901 143.448 33.9695C144.165 34.3881 144.942 34.5676 145.778 34.5676H147.033V34.6274Z" fill="white"/>
<path d="M183.001 0.119141L183.778 11.9008H183.001C181.926 8.37226 180.432 5.80063 178.46 4.24569C176.489 2.69076 174.159 1.9133 171.41 1.9133C169.618 1.9133 168.005 2.27213 166.511 2.92999C165.018 3.58785 163.703 4.66433 162.628 6.03985C161.552 7.41537 160.716 9.20953 160.118 11.3027C159.521 13.3959 159.222 15.9077 159.222 18.7784C159.222 21.1108 159.521 23.2039 160.059 25.0579C160.656 26.9119 161.493 28.5266 162.568 29.9021C163.643 31.2776 165.018 32.2943 166.631 33.012C168.244 33.7297 170.096 34.0885 172.127 34.0885C174.338 34.0885 176.31 33.61 178.102 32.6532C179.775 31.7561 181.687 29.8423 183.778 26.9119L184.554 27.3903C182.822 30.4404 180.791 32.713 178.46 34.1483C176.19 35.5836 173.382 36.3013 170.216 36.3013C167.766 36.3013 165.496 35.8826 163.404 34.9856C161.373 34.1483 159.581 32.8924 158.087 31.3375C156.593 29.7825 155.458 27.9285 154.622 25.7756C153.785 23.6226 153.367 21.2902 153.367 18.7186C153.367 15.2499 154.144 12.0802 155.697 9.20953C157.251 6.33889 159.342 4.06628 162.09 2.51135C164.838 0.896608 167.826 0.119141 170.992 0.119141C173.502 0.119141 175.951 0.717196 178.401 1.9731C179.118 2.33194 179.596 2.57116 179.954 2.57116C180.492 2.57116 180.97 2.33193 181.328 1.9133C181.687 1.43485 181.985 0.896612 182.105 0.178949H183.001V0.119141Z" fill="white"/>
<path d="M214.547 1.85337V0.896484H226.795V1.85337H225.481C224.166 1.85337 223.091 2.45142 222.374 3.58772C222.015 4.12596 221.836 5.32207 221.836 7.29565V21.3499C221.836 24.7588 221.478 27.45 220.761 29.4834C220.402 30.4403 219.924 31.3373 219.207 32.1746C218.55 33.0119 217.714 33.7295 216.698 34.3874C215.682 34.9854 214.488 35.5237 213.113 35.8825C211.739 36.2413 210.186 36.4208 208.453 36.4208C206.541 36.4208 204.868 36.2413 203.435 35.9423C202.001 35.6433 200.806 35.105 199.79 34.507C198.774 33.8491 197.938 33.1315 197.281 32.2344C196.624 31.3373 196.086 30.3206 195.668 29.2442C195.13 27.6892 194.831 24.8186 194.831 20.692V7.17603C194.831 6.09953 194.771 5.26227 194.592 4.5446C194.473 3.88675 194.234 3.3485 193.935 2.98967C193.636 2.63083 193.218 2.33182 192.8 2.21221C192.322 2.0926 191.784 1.97299 191.127 1.97299H189.812V1.0161H204.809V1.97299H203.494C202.897 1.97299 202.359 2.03279 201.881 2.1524C201.403 2.27201 201.045 2.51123 200.746 2.87007C200.447 3.2289 200.208 3.76715 200.029 4.425C199.85 5.08286 199.79 5.97994 199.79 7.11624V22.2469C199.79 23.8019 199.91 25.2372 200.089 26.7323C200.268 28.1677 200.686 29.4834 201.343 30.6197C202.001 31.756 202.897 32.653 204.092 33.3109C205.287 33.9688 206.84 34.3276 208.812 34.3276C209.947 34.3276 211.022 34.208 212.038 33.9089C213.054 33.6697 214.01 33.2511 214.906 32.8325C215.742 32.354 216.519 31.8158 217.116 31.1579C217.774 30.5 218.192 29.7824 218.55 29.0647C219.207 27.5696 219.566 24.9382 219.566 21.2302V7.17603C219.566 5.02304 219.327 3.70733 218.849 3.10928C218.192 2.33182 217.236 1.97299 215.921 1.97299H214.547V1.85337Z" fill="white"/>
<path d="M251.949 35.5827L238.566 6.45762V29.6022C238.566 30.7983 238.626 31.7552 238.805 32.4131C238.985 33.0709 239.224 33.6092 239.522 33.9082C239.821 34.267 240.239 34.4464 240.657 34.5062C241.076 34.566 241.613 34.6259 242.211 34.6259H243.406V35.5827H231.337V34.6259H232.532C233.129 34.6259 233.667 34.566 234.145 34.5062C234.623 34.4464 234.982 34.2072 235.28 33.8484C235.579 33.4896 235.818 33.0111 235.938 32.2934C236.117 31.6356 236.176 30.7385 236.176 29.5424V6.87625C236.176 6.03897 236.117 5.32133 236.057 4.72327C235.997 4.12522 235.758 3.58697 235.46 3.16834C235.161 2.7497 234.683 2.39086 234.026 2.15164C233.368 1.91242 232.472 1.79281 231.277 1.79281V0.835938H241.076L253.682 27.9875L266.049 0.835938H275.848V1.79281H274.653C273.996 1.79281 273.458 1.85262 273.04 1.97223C272.562 2.09184 272.203 2.27126 271.904 2.63009C271.606 2.98892 271.367 3.46735 271.247 4.18501C271.068 4.84287 271.008 5.73995 271.008 6.93605V29.6022C271.008 30.7983 271.068 31.7552 271.247 32.4131C271.427 33.0709 271.666 33.6092 271.964 33.9082C272.263 34.267 272.681 34.4464 273.099 34.5062C273.577 34.566 274.055 34.6259 274.653 34.6259H275.848V35.5827H261.15V34.6259H262.345C262.943 34.6259 263.48 34.566 263.958 34.4464C264.436 34.3268 264.795 34.1474 265.093 33.7886C265.392 33.4297 265.631 32.9513 265.81 32.2934C265.99 31.6356 266.049 30.7385 266.049 29.6022V6.45762L252.726 35.5827H251.949Z" fill="white"/>
<path d="M81.4942 80.1973L82.3307 80.3169C81.9722 81.7523 81.6735 82.9483 81.315 83.7856H68.8281V83.1876C69.9633 83.1278 70.6802 82.9484 70.979 82.7689C71.2179 82.5297 71.3972 81.9915 71.3972 81.0346V72.1834C71.3972 71.2265 71.2777 70.6883 71.0387 70.5089C70.7997 70.3295 70.0828 70.15 68.9476 70.0902V69.4922H76.1769V70.0902C75.1014 70.15 74.3845 70.3295 74.1455 70.5089C73.9065 70.6883 73.787 71.2863 73.787 72.1834V80.915C73.787 81.513 73.8468 81.9317 73.9065 82.2307C74.026 82.4699 74.1455 82.7091 74.3845 82.7689C74.8027 82.9484 75.6989 83.068 77.0133 83.068C78.5667 83.068 79.5823 82.8287 80.1201 82.4101C80.598 81.8719 81.076 81.1542 81.4942 80.1973Z" fill="white"/>
<path d="M104.258 83.7863H97.5068V83.1882C98.3433 83.1284 98.881 83.0088 99.12 82.8294C99.2992 82.7098 99.3589 82.4108 99.12 81.9921C99.0005 81.6931 98.4628 80.5568 97.6263 78.5833H91.7115C91.114 79.899 90.6958 80.8558 90.5165 81.3941C90.2178 82.1118 90.1581 82.5304 90.3971 82.7696C90.5763 82.949 91.2335 83.1284 92.2492 83.1882V83.7863H86.2148V83.1882C87.111 83.0686 87.7682 82.8892 88.1267 82.65C88.4852 82.4108 88.8437 81.8127 89.3216 80.8558L95.0572 69.2536L95.8937 69.0742C96.2521 69.7919 97.0288 71.5861 98.2835 74.3969C99.5382 77.2675 100.554 79.4205 101.211 80.8558C101.629 81.8127 101.988 82.351 102.346 82.65C102.705 82.8892 103.302 83.0686 104.258 83.1284V83.7863ZM97.2081 77.6264L94.7585 72.0047H94.6988C94.4 72.6027 93.9818 73.5596 93.3843 74.8155C92.7869 76.0714 92.3687 77.0283 92.0699 77.6264H97.2081Z" fill="white"/>
<path d="M131.262 69.4326V70.0307C130.306 70.1503 129.649 70.3297 129.35 70.5091C129.051 70.7483 128.693 71.2866 128.274 72.2435C127.199 74.8151 125.646 78.7622 123.734 84.0251H122.897C122.599 83.3074 120.985 79.5995 118.058 73.0209H117.998C117.46 74.3366 116.743 76.1906 115.728 78.6426C114.712 81.0946 113.995 82.8888 113.517 84.0849H112.681C112.263 82.8888 110.709 78.9416 108.14 72.2435C107.782 71.3464 107.483 70.8081 107.124 70.5689C106.766 70.3297 106.168 70.1503 105.332 70.0905V69.4924H112.024V70.0905C111.068 70.2101 110.47 70.3297 110.291 70.5091C110.112 70.6885 110.112 71.0474 110.351 71.5856C111.785 75.5926 112.92 78.5828 113.696 80.676H113.756C114.234 79.5397 114.951 77.7455 115.967 75.2337C116.982 72.7817 117.759 70.9278 118.237 69.612H119.014C119.611 71.0474 121.224 74.7553 123.853 80.676H123.913C125.526 76.6092 126.542 73.619 127.02 71.8248C127.259 71.167 127.259 70.7483 127.02 70.5091C126.781 70.3297 126.183 70.1503 125.108 70.0307V69.4326H131.262Z" fill="white"/>
<path d="M157.073 72.6623L156.296 72.7221C156.057 71.8849 155.818 71.3466 155.519 70.928C155.28 70.629 154.982 70.3897 154.563 70.2701C154.145 70.1505 153.428 70.0907 152.413 70.0907H150.322C149.903 70.0907 149.664 70.1505 149.545 70.2103C149.425 70.2701 149.366 70.5094 149.366 70.8084V76.0712H152.233C153.428 76.0712 154.205 76.0114 154.504 75.832C154.802 75.6526 155.041 75.1741 155.221 74.4565H155.997V78.7027H155.221C155.041 77.9252 154.802 77.3869 154.504 77.2075C154.205 77.0281 153.428 76.9085 152.233 76.9085H149.366V80.9155C149.366 81.8723 149.485 82.4106 149.784 82.6498C150.083 82.889 150.859 83.0086 152.114 83.0684V83.6665H144.586V83.0684C145.721 83.0086 146.378 82.8292 146.617 82.6498C146.856 82.4106 146.976 81.8723 146.976 80.9155V72.1241C146.976 71.1672 146.856 70.629 146.617 70.3897C146.378 70.2103 145.721 70.0309 144.646 69.9711V69.373H156.774C156.834 70.0309 156.953 71.1074 157.073 72.6623Z" fill="white"/>
<path d="M169.2 83.7859H161.852V83.1878C162.987 83.128 163.704 82.9486 163.943 82.7692C164.182 82.53 164.301 81.9917 164.301 81.0348V72.1837C164.301 71.2268 164.182 70.6885 163.943 70.4493C163.704 70.2101 162.987 70.0905 161.852 70.0307V69.4326H169.2V70.0307C168.065 70.0905 167.348 70.2699 167.109 70.4493C166.87 70.6885 166.751 71.2268 166.751 72.1837V81.0348C166.751 81.9917 166.87 82.53 167.109 82.7692C167.348 82.9486 168.065 83.128 169.2 83.1878V83.7859Z" fill="white"/>
<path d="M190.469 83.4275L190.35 84.0256C189.931 84.0256 189.573 84.0256 189.394 84.0256C188.318 83.9658 187.482 83.7864 186.825 83.4873C186.167 83.1883 185.51 82.7099 184.913 81.9922C184.554 81.5736 183.598 80.3775 182.105 78.4637C181.866 78.1647 181.567 77.9255 181.268 77.8058C180.97 77.6862 180.432 77.6264 179.775 77.6264H178.878V81.1549C178.878 82.052 178.998 82.6501 179.237 82.8295C179.476 83.0687 180.193 83.1883 181.268 83.2481V83.8462H174.039V83.2481C175.174 83.1883 175.891 83.0089 176.13 82.8295C176.369 82.5903 176.489 82.052 176.489 81.0951V72.244C176.489 71.2871 176.369 70.7488 176.13 70.5694C175.891 70.39 175.234 70.2106 174.099 70.1508V69.5527H180.97C183.001 69.5527 184.435 69.7919 185.391 70.3302C186.645 70.9282 187.243 71.8851 187.243 73.2009C187.243 74.8754 186.048 76.1911 183.718 77.0284C184.196 77.8058 185.032 78.8823 186.167 80.198C187.064 81.2147 187.84 81.9922 188.378 82.4707C189.035 82.8893 189.692 83.2481 190.469 83.4275ZM178.878 76.849H180.193C181.567 76.849 182.523 76.6097 183.18 76.1911C184.196 75.5931 184.674 74.6362 184.674 73.4401C184.674 72.3038 184.315 71.4665 183.539 70.9881C182.762 70.4498 181.806 70.2106 180.671 70.2106C179.894 70.2106 179.416 70.2704 179.177 70.4498C178.998 70.5694 178.878 70.8685 178.878 71.4067V76.849Z" fill="white"/>
<path d="M216.76 83.7863H209.471V83.1883C210.606 83.1285 211.263 82.949 211.502 82.65C211.741 82.4108 211.861 81.6931 211.861 80.497L211.741 71.4664H211.682L204.93 83.6069H204.333L198.119 71.7655H198.06L197.701 78.045C197.582 79.4803 197.582 80.7363 197.641 81.6931C197.641 82.1716 197.821 82.5304 198.179 82.7098C198.537 82.8892 199.195 83.0089 200.21 83.0687V83.6667H193.758V83.0687C194.594 83.0089 195.192 82.8892 195.49 82.7098C195.789 82.5304 196.028 82.2314 196.088 81.7529C196.267 80.7961 196.446 79.4206 196.626 77.6862L196.984 73.0812C197.044 72.5429 197.044 72.1243 197.104 71.8851C197.104 71.5861 197.104 71.3468 197.044 71.0478C196.984 70.7488 196.924 70.5694 196.865 70.5096C196.805 70.39 196.626 70.3302 196.387 70.2106C196.148 70.0909 195.909 70.0311 195.67 70.0311C195.431 70.0311 195.072 69.9713 194.594 69.9115V69.3135H199.135L205.408 80.3774L211.801 69.3135H216.521V69.9115C216.222 69.9115 215.983 69.9115 215.864 69.9713C215.744 69.9713 215.565 70.0311 215.326 70.0311C215.087 70.0311 214.968 70.0909 214.908 70.0909C214.848 70.0909 214.729 70.1507 214.609 70.2106C214.49 70.2704 214.37 70.3302 214.37 70.39C214.31 70.4498 214.251 70.5096 214.191 70.6292C214.131 70.7488 214.071 70.8086 214.071 70.9282C214.071 71.0478 214.071 71.1674 214.012 71.3468C214.012 71.5263 214.012 71.7057 214.012 71.8253C214.012 72.0047 214.012 72.1841 214.012 72.4233L214.31 80.4372C214.37 81.6333 214.49 82.351 214.729 82.5902C214.968 82.8294 215.685 83.0088 216.879 83.1285V83.7863H216.76Z" fill="white"/>
<path d="M225.301 74.9941H282" stroke="white" stroke-width="2.52" stroke-miterlimit="10"/>
<path d="M3.46484 74.9941H60.2234" stroke="white" stroke-width="2.52" stroke-miterlimit="10"/>
</svg>
