<svg width="31" height="37" fill="none" xmlns="http://www.w3.org/2000/svg"><g clip-path="url(#clip0_306_1083)" fill="#000"><path d="M7.8.751C2.96 2.373.974 5.711.429 8.902c-.532 4.067 2.237 6.914 5.398 7.216 2.81.01 5.832-2.478 5.764-5.525.068-2.273-1.214-3.383-3.862-4.033C5.369 5.568 5.574 3.364 7.8.751z"/><path d="M10.229.21c.801.736 7.488 2.638 8.233 8.21.503 7.698-9.37 13.187-13.301 18.15 9.112-.528 24.607-6.69 24.298-15.01C29.106 3.416 20.581-1.048 10.23.21zM1.256 36.78c-1.625-.42-1.452-3.105-.72-4.345.87-1.629 2.208-3.67 3.759-4.105-1.759 1.593-.982 2.335-1.036 5.296-.046 2.306-.723 3.365-2.003 3.154zM5.414 28.33c6.972 6.377 11.494 8.612 16.542 8.662 6.468.229 9.654-4.577 8.048-13.83-1.531 2.666-8.977 4.219-24.59 5.167z"/></g><defs><clipPath id="clip0_306_1083"><path fill="#fff" d="M0 0h30.415v37H0z"/></clipPath></defs></svg>