<svg width="110" height="30" fill="none" xmlns="http://www.w3.org/2000/svg"><path d="M11.39 10.326l-3.926 9.37H4.9L2.97 12.22c-.12-.461-.221-.629-.577-.825-.584-.316-1.545-.612-2.393-.796l.06-.272h4.123c.526 0 .999.35 1.118.955l1.02 5.424 2.523-6.379h2.547zm10.04 6.31c.012-2.472-3.42-2.607-3.395-3.712.007-.338.327-.695 1.027-.785.348-.047 1.306-.08 2.39.418l.426-1.987a6.516 6.516 0 0 0-2.267-.415c-2.396 0-4.083 1.275-4.097 3.098-.015 1.349 1.204 2.101 2.123 2.55.944.46 1.26.753 1.257 1.165-.006.629-.754.904-1.45.916-1.22.02-1.927-.33-2.491-.592l-.44 2.054c.566.26 1.614.485 2.697.499 2.547 0 4.213-1.261 4.22-3.21zm6.328 3.06H30l-1.957-9.37h-2.07c-.465 0-.857.271-1.032.687l-3.635 8.684h2.544l.505-1.4h3.11l.293 1.4zm-2.705-3.32l1.276-3.518.734 3.518h-2.01zm-10.198-6.05l-2.006 9.37h-2.424l2.006-9.37h2.424z" fill="#000"/><g style="mix-blend-mode:luminosity" clip-path="url(#clip0_306_430)"><path d="M58.092 9.429h-6.2v11.142h6.2V9.43z" fill="#FF5F00"/><path d="M52.285 15a7.075 7.075 0 0 1 2.707-5.571 7.087 7.087 0 1 0 0 11.142 7.073 7.073 0 0 1-2.707-5.57z" fill="#EB001B"/><path d="M66.457 15a7.087 7.087 0 0 1-11.465 5.571 7.087 7.087 0 0 0 0-11.142A7.086 7.086 0 0 1 66.457 15zM65.78 19.391v-.228h.093v-.046h-.235v.046h.093v.228h.05zm.456 0v-.275h-.072l-.083.19-.082-.19h-.072v.275h.05v-.207l.078.179h.052l.078-.18v.208h.05z" fill="#F79E1B"/></g><g clip-path="url(#clip1_306_430)" fill="#000"><path d="M85.67 10.278c.353-.442.593-1.035.53-1.641-.517.026-1.148.341-1.514.783-.328.379-.618.997-.542 1.578.58.05 1.16-.29 1.526-.72zM86.193 11.11c-.843-.05-1.56.48-1.962.48-.403 0-1.02-.454-1.686-.442-.868.013-1.673.504-2.113 1.284-.906 1.561-.24 3.876.642 5.148.427.629.943 1.321 1.622 1.296.642-.025.893-.415 1.673-.415s1.006.415 1.686.403c.704-.013 1.144-.63 1.572-1.26.49-.716.692-1.408.704-1.446-.012-.013-1.358-.53-1.37-2.077-.013-1.296 1.056-1.913 1.106-1.951-.603-.893-1.547-.994-1.874-1.02zM93.532 9.357c1.832 0 3.108 1.263 3.108 3.101 0 1.845-1.302 3.114-3.154 3.114h-2.028v3.226h-1.466V9.357h3.54zm-2.074 4.985h1.681c1.276 0 2.002-.687 2.002-1.877 0-1.191-.726-1.872-1.995-1.872h-1.688v3.75zM97.023 16.842c0-1.204.922-1.943 2.558-2.035l1.884-.111v-.53c0-.766-.517-1.224-1.38-1.224-.818 0-1.328.393-1.453 1.008h-1.334c.078-1.243 1.138-2.16 2.839-2.16 1.669 0 2.735.884 2.735 2.265v4.743h-1.354v-1.132h-.033c-.399.766-1.269 1.25-2.172 1.25-1.348 0-2.29-.838-2.29-2.074zm4.442-.622v-.543l-1.694.105c-.844.059-1.322.432-1.322 1.02 0 .603.497.995 1.256.995.988 0 1.76-.68 1.76-1.577zM104.151 21.33v-1.145c.104.027.34.027.458.027.654 0 1.007-.275 1.223-.982 0-.013.124-.419.124-.425l-2.486-6.89h1.531l1.741 5.6h.026l1.74-5.6H110l-2.578 7.243c-.589 1.669-1.269 2.205-2.696 2.205-.117 0-.471-.013-.575-.033z"/></g><defs><clipPath id="clip0_306_430"><path fill="#fff" transform="translate(40 4.37)" d="M0 0h30v21.259H0z"/></clipPath><clipPath id="clip1_306_430"><path fill="#fff" transform="translate(80)" d="M0 0h30v30H0z"/></clipPath></defs></svg>