<svg data-name=".btn-inst" xmlns="http://www.w3.org/2000/svg" width="34" height="34"><path data-name=".ic-hoverzone" fill="none" d="M0 0h34v34H0z"/><g data-name=".ic-inst/icon" fill="#8d8d8d"><path data-name="Контур 792" d="M17 7A10 10 0 1 1 7 17 10.011 10.011 0 0 1 17 7zm0-2a12 12 0 1 0 12 12A12 12 0 0 0 17 5z"/><path data-name="Контур 1712" d="M11 13.493v7.014A2.493 2.493 0 0 0 13.493 23h7.014A2.493 2.493 0 0 0 23 20.507v-7.014A2.493 2.493 0 0 0 20.507 11h-7.014A2.493 2.493 0 0 0 11 13.493zm7.271 6.907a3.639 3.639 0 0 1-4.671-4.671 3.443 3.443 0 0 1 2.129-2.129 3.639 3.639 0 0 1 4.671 4.671 3.443 3.443 0 0 1-2.129 2.129zm2.893-7.029a.469.469 0 0 1-.822.222.285.285 0 0 1-.024-.032.47.47 0 0 1-.019-.5.466.466 0 0 1 .637-.171.47.47 0 0 1 .233.441.288.288 0 0 1 0 .039zm0 0"/><path data-name="Пересечение 1" d="M14.999 17a2 2 0 0 1 2-2 2 2 0 0 1 2 2 2 2 0 0 1-2 2 2 2 0 0 1-2-2z"/></g></svg>