<svg data-name=".btn-vk" xmlns="http://www.w3.org/2000/svg" width="34" height="34"><path data-name=".ic-hoverzone" fill="none" d="M0 0h34v34H0z"/><g data-name=".ic-vk/icon"><path data-name="Контур 791" d="M17 7A10 10 0 1 1 7 17 10.011 10.011 0 0 1 17 7zm0-2a12 12 0 1 0 12 12A12 12 0 0 0 17 5zm.581 16a.4.4 0 0 0 .425-.458c-.016-.958.356-1.474 1.03-.8.744.744.9 1.26 1.8 1.26h1.6c.4 0 .562-.13.562-.334 0-.432-.711-1.194-1.312-1.752-.844-.783-.882-.8-.156-1.744.902-1.172 2.081-2.672 1.039-2.672h-1.991c-.387 0-.414.217-.551.542-.5 1.173-1.443 2.693-1.8 2.461-.377-.243-.2-1.2-.175-2.63.008-.377.006-.636-.571-.77a4 4 0 0 0-.9-.1c-1.137 0-1.922.477-1.477.56.785.146.711 1.846.527 2.58-.319 1.278-1.518-1.012-2.018-2.152-.12-.275-.155-.488-.586-.488h-1.633c-.247-.003-.394.077-.394.255a17.264 17.264 0 0 0 2.892 4.885A4.249 4.249 0 0 0 17.581 21z" fill="#8d8d8d"/></g></svg>