<svg data-name=".btn-dzen" xmlns="http://www.w3.org/2000/svg" width="34" height="34"><path data-name=".ic-hoverzone" fill="none" d="M0 0h34v34H0z"/><g data-name=".ic-icon/odnk" fill="#8d8d8d"><path data-name="Контур 795" d="M17 7A10 10 0 1 1 7 17 10.011 10.011 0 0 1 17 7zm0-2a12 12 0 1 0 12 12A12 12 0 0 0 17 5z"/><path data-name=".ic-dzen" d="M16.877 22.995A6 6 0 0 1 11 17.232c2.506.029 3.859.2 4.766 1.109a3.371 3.371 0 0 1 .884 1.768 15.109 15.109 0 0 1 .227 2.886zm.361 0a15.088 15.088 0 0 1 .227-2.883 3.369 3.369 0 0 1 .881-1.767 3.37 3.37 0 0 1 1.767-.881A15.092 15.092 0 0 1 23 17.233a6 6 0 0 1-5.761 5.762zM11 16.873a6 6 0 0 1 5.879-5.878c-.029 2.508-.2 3.862-1.109 4.769s-2.261 1.081-4.77 1.109zm12 0a15.113 15.113 0 0 1-2.886-.228 3.371 3.371 0 0 1-1.768-.881c-.907-.907-1.08-2.259-1.109-4.769A6 6 0 0 1 23 16.872z"/></g></svg>