<svg data-name=".btn-odnk" xmlns="http://www.w3.org/2000/svg" width="34" height="34"><path data-name=".ic-hoverzone" fill="none" d="M0 0h34v34H0z"/><g data-name=".ic-icon/odnk" fill="#8d8d8d"><path data-name="Контур 795" d="M17 7A10 10 0 1 1 7 17 10.011 10.011 0 0 1 17 7zm0-2a12 12 0 1 0 12 12A12 12 0 0 0 17 5z"/><path data-name="Контур 796" d="M17.299 10.999a2.891 2.891 0 0 0-2.891 2.891 2.891 2.891 0 0 0 2.891 2.891 2.891 2.891 0 0 0 2.891-2.891 2.891 2.891 0 0 0-2.891-2.891zm0 4.086a1.2 1.2 0 0 1-1.2-1.2 1.2 1.2 0 0 1 1.2-1.2 1.2 1.2 0 0 1 1.2 1.2 1.2 1.2 0 0 1-1.2 1.201z"/><path data-name="Контур 797" d="M18.318 19.084a4.7 4.7 0 0 0 1.888-.813.786.786 0 0 0 .121-1.105.786.786 0 0 0-1.105-.122 3.414 3.414 0 0 1-1.964.574 3.5 3.5 0 0 1-1.98-.574.786.786 0 0 0-1.105.122.786.786 0 0 0 .121 1.105 4.808 4.808 0 0 0 1.949.822l-1.658 1.733a.786.786 0 0 0 .02 1.112.783.783 0 0 0 .546.22.784.784 0 0 0 .566-.24l1.541-1.641 1.7 1.652a.786.786 0 0 0 1.112 0 .786.786 0 0 0 0-1.112z"/><path data-name="Контур 798" d="M17.258 17.617s.002 0 0 0z"/></g></svg>