<svg id="_.btn-ytb" data-name=".btn-ytb" xmlns="http://www.w3.org/2000/svg" width="34" height="34" viewBox="0 0 34 34">
  <rect id="_.ic-hoverzone" data-name=".ic-hoverzone" width="34" height="34" fill="none"/>
  <g id="_.ic-ytb_icon" data-name=".ic-ytb/icon" transform="translate(-679 -3530)">
    <path id="Контур_794" data-name="Контур 794" d="M16.23,7.1c-2-.136-6.462-.135-8.461,0C5.6,7.25,5.35,8.558,5.333,12c.017,3.436.27,4.75,2.437,4.9,2,.135,6.459.136,8.461,0,2.165-.148,2.42-1.457,2.437-4.9C18.65,8.564,18.4,7.25,16.23,7.1ZM10,14.222V9.778L14.778,12ZM12,2A10,10,0,1,1,2,12,10.011,10.011,0,0,1,12,2Zm0-2A12,12,0,1,0,24,12,12,12,0,0,0,12,0Z" transform="translate(684 3535)" fill="#8d8d8d"/>
  </g>
</svg>
