<svg id="_.btn-vk" data-name=".btn-vk" xmlns="http://www.w3.org/2000/svg" width="34" height="34" viewBox="0 0 34 34">
  <rect id="_.ic-hoverzone" data-name=".ic-hoverzone" width="34" height="34" fill="none"/>
  <g id="_.ic-vk_icon" data-name=".ic-vk/icon" transform="translate(-781 -3530)">
    <path id="Контур_791" data-name="Контур 791" d="M12,2A10,10,0,1,1,2,12,10.011,10.011,0,0,1,12,2Zm0-2A12,12,0,1,0,24,12,12,12,0,0,0,12,0Zm.581,16a.4.4,0,0,0,.425-.458c-.016-.958.356-1.474,1.03-.8.744.744.9,1.26,1.8,1.26h1.6c.4,0,.562-.13.562-.334,0-.432-.711-1.194-1.312-1.752-.844-.783-.882-.8-.156-1.744C17.432,11,18.611,9.5,17.569,9.5H15.578c-.387,0-.414.217-.551.542-.5,1.173-1.443,2.693-1.8,2.461-.377-.243-.2-1.2-.175-2.63.008-.377.006-.636-.571-.77a4,4,0,0,0-.9-.1c-1.137,0-1.922.477-1.477.56.785.146.711,1.846.527,2.58-.319,1.278-1.518-1.012-2.018-2.152-.12-.275-.155-.488-.586-.488H6.394C6.147,9.5,6,9.58,6,9.758a17.264,17.264,0,0,0,2.892,4.885A4.249,4.249,0,0,0,12.581,16Z" transform="translate(786 3535)" fill="#8d8d8d"/>
  </g>
</svg>
