<svg id="_.btn-inst" data-name=".btn-inst" xmlns="http://www.w3.org/2000/svg" width="34" height="34" viewBox="0 0 34 34">
  <rect id="_.ic-hoverzone" data-name=".ic-hoverzone" width="34" height="34" fill="none"/>
  <g id="_.ic-inst_icon" data-name=".ic-inst/icon" transform="translate(-747 -3530)">
    <path id="Контур_792" data-name="Контур 792" d="M12,2A10,10,0,1,1,2,12,10.011,10.011,0,0,1,12,2Zm0-2A12,12,0,1,0,24,12,12,12,0,0,0,12,0Z" transform="translate(752 3535)" fill="#8d8d8d"/>
    <path id="Контур_1712" data-name="Контур 1712" d="M0,2.493V9.507A2.493,2.493,0,0,0,2.493,12H9.507A2.493,2.493,0,0,0,12,9.507V2.493A2.493,2.493,0,0,0,9.507,0H2.493A2.493,2.493,0,0,0,0,2.493ZM7.271,9.4A3.639,3.639,0,0,1,2.6,4.729,3.443,3.443,0,0,1,4.729,2.6,3.639,3.639,0,0,1,9.4,7.271,3.443,3.443,0,0,1,7.271,9.4Zm2.893-7.029a.469.469,0,0,1-.822.222.285.285,0,0,1-.024-.032.47.47,0,0,1-.019-.5.466.466,0,0,1,.637-.171.47.47,0,0,1,.233.441.288.288,0,0,1,0,.039Zm0,0" transform="translate(758 3541)" fill="#8d8d8d"/>
    <path id="Пересечение_1" data-name="Пересечение 1" d="M-788.088,1617.913a2,2,0,0,1,2-2,2,2,0,0,1,2,2,2,2,0,0,1-2,2A2,2,0,0,1-788.088,1617.913Z" transform="translate(1550.087 1929.087)" fill="#8d8d8d"/>
  </g>
</svg>
