<svg data-name=".btn-ytb" xmlns="http://www.w3.org/2000/svg" width="34" height="34"><path data-name=".ic-hoverzone" fill="none" d="M0 0h34v34H0z"/><g data-name=".ic-ytb/icon"><path data-name="Контур 794" d="M21.23 12.1c-2-.136-6.462-.135-8.461 0-2.169.15-2.419 1.458-2.436 4.9.017 3.436.27 4.75 2.437 4.9 2 .135 6.459.136 8.461 0 2.165-.148 2.42-1.457 2.437-4.9-.018-3.436-.268-4.75-2.438-4.9zM15 19.222v-4.444L19.778 17zM17 7A10 10 0 1 1 7 17 10.011 10.011 0 0 1 17 7zm0-2a12 12 0 1 0 12 12A12 12 0 0 0 17 5z" fill="#151515"/></g></svg>