<svg id="_.btn-dzen" data-name=".btn-dzen" xmlns="http://www.w3.org/2000/svg" width="34" height="34" viewBox="0 0 34 34">
  <rect id="_.ic-hoverzone" data-name=".ic-hoverzone" width="34" height="34" fill="none"/>
  <g id="_.ic-icon_odnk" data-name=".ic-icon/odnk" transform="translate(-645 -3530)">
    <path id="Контур_795" data-name="Контур 795" d="M12,2A10,10,0,1,1,2,12,10.011,10.011,0,0,1,12,2Zm0-2A12,12,0,1,0,24,12,12,12,0,0,0,12,0Z" transform="translate(650 3535)" fill="#8d8d8d"/>
    <path id="_.ic-dzen" data-name=".ic-dzen" d="M5.877,12h0A6,6,0,0,1,0,6.237c2.506.029,3.859.2,4.766,1.109A3.371,3.371,0,0,1,5.65,9.114,15.109,15.109,0,0,1,5.877,12Zm.361,0h0a15.088,15.088,0,0,1,.227-2.883,3.369,3.369,0,0,1,.881-1.767,3.37,3.37,0,0,1,1.767-.881A15.092,15.092,0,0,1,12,6.238,6,6,0,0,1,6.239,12ZM0,5.878H0A6,6,0,0,1,5.879,0c-.029,2.508-.2,3.862-1.109,4.769S2.509,5.85,0,5.878H0Zm12,0h0A15.113,15.113,0,0,1,9.114,5.65a3.371,3.371,0,0,1-1.768-.881C6.439,3.862,6.266,2.51,6.237,0A6,6,0,0,1,12,5.877Z" transform="translate(656 3540.995)" fill="#8d8d8d"/>
  </g>
</svg>
