<svg id="_.btn-odnk" data-name=".btn-odnk" xmlns="http://www.w3.org/2000/svg" width="34" height="34" viewBox="0 0 34 34">
  <rect id="_.ic-hoverzone" data-name=".ic-hoverzone" width="34" height="34" fill="none"/>
  <g id="_.ic-icon_odnk" data-name=".ic-icon/odnk" transform="translate(-645 -3530)">
    <path id="Контур_795" data-name="Контур 795" d="M12,2A10,10,0,1,1,2,12,10.011,10.011,0,0,1,12,2Zm0-2A12,12,0,1,0,24,12,12,12,0,0,0,12,0Z" transform="translate(650 3535)" fill="#8d8d8d"/>
    <path id="Контур_796" data-name="Контур 796" d="M-292.5,57.9a2.891,2.891,0,0,0-2.891,2.891,2.891,2.891,0,0,0,2.891,2.891,2.891,2.891,0,0,0,2.891-2.891A2.891,2.891,0,0,0-292.5,57.9Zm0,4.086a1.2,1.2,0,0,1-1.2-1.2,1.2,1.2,0,0,1,1.2-1.2,1.2,1.2,0,0,1,1.2,1.2A1.2,1.2,0,0,1-292.5,61.987Z" transform="translate(954.799 3483.099)" fill="#8d8d8d"/>
    <path id="Контур_797" data-name="Контур 797" d="M-300.882,201.993a4.7,4.7,0,0,0,1.888-.813.786.786,0,0,0,.121-1.105.786.786,0,0,0-1.105-.122,3.414,3.414,0,0,1-1.964.574,3.5,3.5,0,0,1-1.98-.574.786.786,0,0,0-1.105.122.786.786,0,0,0,.121,1.105,4.808,4.808,0,0,0,1.949.822l-1.658,1.733a.786.786,0,0,0,.02,1.112.783.783,0,0,0,.546.22.784.784,0,0,0,.566-.24l1.541-1.641,1.7,1.652a.786.786,0,0,0,1.112,0,.786.786,0,0,0,0-1.112Z" transform="translate(964.2 3347.091)" fill="#8d8d8d"/>
    <path id="Контур_798" data-name="Контур 798" d="M-226.477,217.832s0,0,0,0S-226.475,217.832-226.477,217.832Z" transform="translate(888.735 3329.785)" fill="#8d8d8d"/>
  </g>
</svg>
