<svg id="_.ic-icon_appl" data-name=".ic-icon/appl" xmlns="http://www.w3.org/2000/svg" width="19.567" height="24.031" viewBox="0 0 19.567 24.031">
  <g id="g186" transform="translate(0 5.792)">
    <path id="path188" d="M16.491,217.106a5.435,5.435,0,0,1,2.6-4.572,5.618,5.618,0,0,0-4.4-2.384c-1.87-.189-3.651,1.1-4.6,1.1s-2.414-1.074-3.965-1.043a5.88,5.88,0,0,0-4.972,3.012c-2.119,3.676-.541,9.123,1.522,12.107,1.01,1.458,2.213,3.1,3.794,3.041,1.524-.061,2.1-.984,3.938-.984s2.357.984,3.966.956c1.637-.032,2.676-1.49,3.679-2.953a13.214,13.214,0,0,0,1.663-3.418,5.307,5.307,0,0,1-3.226-4.861" transform="translate(-0.15 -210.131)" fill="#fff"/>
  </g>
  <path id="path190" d="M355.86,4.187A5.285,5.285,0,0,0,357.11.349a5.384,5.384,0,0,0-3.539,1.822A5.024,5.024,0,0,0,352.3,5.887a4.459,4.459,0,0,0,3.564-1.7" transform="translate(-342.544 -0.349)" fill="#fff"/>
</svg>
