<svg data-name=".ic-icon/appl" xmlns="http://www.w3.org/2000/svg" width="19.567" height="24.031"><path d="M16.341 12.767a5.435 5.435 0 0 1 2.6-4.572 5.618 5.618 0 0 0-4.4-2.384c-1.87-.189-3.651 1.1-4.6 1.1S7.527 5.837 5.976 5.868A5.88 5.88 0 0 0 1.004 8.88c-2.119 3.676-.541 9.123 1.522 12.107 1.01 1.458 2.213 3.1 3.794 3.041 1.524-.061 2.1-.984 3.938-.984s2.357.984 3.966.956c1.637-.032 2.676-1.49 3.679-2.953a13.214 13.214 0 0 0 1.663-3.418 5.307 5.307 0 0 1-3.226-4.861M13.316 3.838A5.285 5.285 0 0 0 14.566 0a5.384 5.384 0 0 0-3.539 1.822 5.024 5.024 0 0 0-1.271 3.716 4.459 4.459 0 0 0 3.564-1.7" fill="#fff"/></svg>