<svg xmlns="http://www.w3.org/2000/svg" width="22.64" height="24.703"><g data-name=".ic-plstr/icon" fill="#fff"><path data-name="Контур 759" d="M1.936 0l13.343 7.361-3.886 3.918L.563.367 1.216 0z"/><path data-name="Контур 760" d="M1.216 24.703l-.529-.273 10.7-10.782 3.747 3.774-13.2 7.281z"/><path data-name="Контур 761" d="M0 22.686V2.306l10.1 10.192z"/><path data-name="Контур 762" d="M16.667 16.569l-4.16-4.194c.494-.469 1.02-.953 1.53-1.454q1.247-1.225 2.473-2.47a.4.4 0 0 1 .567-.091c1.55.875 3.119 1.716 4.663 2.6a1.493 1.493 0 0 1 .178 2.646c-1.725 1.045-3.512 1.988-5.251 2.963z"/></g></svg>