<svg xmlns="http://www.w3.org/2000/svg" width="22.64" height="24.703" viewBox="0 0 22.64 24.703">
  <g id="_.ic-plstr_icon" data-name=".ic-plstr/icon" transform="translate(0)">
    <path id="Контур_759" data-name="Контур 759" d="M-963.971,292.89l13.343,7.361-3.886,3.918-10.83-10.912.653-.367Z" transform="translate(965.907 -292.89)" fill="#fff"/>
    <path id="Контур_760" data-name="Контур 760" d="M-963.611,436.539l-.529-.273,10.7-10.782,3.747,3.774-13.2,7.281Z" transform="translate(964.827 -411.836)" fill="#fff"/>
    <path id="Контур_761" data-name="Контур 761" d="M-970.81,335.674v-20.38l10.1,10.192Z" transform="translate(970.81 -312.988)" fill="#fff"/>
    <path id="Контур_762" data-name="Контур 762" d="M-845.139,381.606l-4.16-4.194c.494-.469,1.02-.953,1.53-1.454q1.247-1.225,2.473-2.47a.4.4,0,0,1,.567-.091c1.55.875,3.119,1.716,4.663,2.6a1.493,1.493,0,0,1,.178,2.646C-841.613,379.688-843.4,380.631-845.139,381.606Z" transform="translate(861.806 -365.037)" fill="#fff"/>
  </g>
</svg>
