<svg xmlns="http://www.w3.org/2000/svg" width="134" height="44"><g data-name=".grp-logotype"><path data-name=".el-zone/placement" fill="none" d="M0 0h134v44H0z"/><g data-name=".el-text/logo" fill="#fff"><path data-name="Контур 1" d="M66.813 12.719a4.694 4.694 0 0 1-4.78 4.683h-2.048v4.294H56.86V8.036h5.172a4.7 4.7 0 0 1 4.781 4.683zm-3.123 0a1.669 1.669 0 0 0-1.657-1.756h-2.048v3.513h2.048a1.668 1.668 0 0 0 1.656-1.757z"/><path data-name="Контур 2" d="M78.023 11.938l-3.336 9.463c-1.093 3.1-3.024 4.334-5.561 4.2v-2.732c1.308 0 1.931-.312 2.379-1.347l-3.823-9.581H70.8l2.263 5.991 1.833-5.991z"/><path data-name="Контур 3" d="M78.698 16.817a5.162 5.162 0 0 1 9.583-2.655l-2.558 1.485a2.021 2.021 0 0 0-1.892-1.093 2.264 2.264 0 0 0 0 4.527 2 2 0 0 0 1.892-1.093l2.558 1.464a4.983 4.983 0 0 1-4.411 2.515 5.055 5.055 0 0 1-5.172-5.15z"/><path data-name="Контур 4" d="M89.247 16.817a5.161 5.161 0 0 1 9.581-2.655l-2.555 1.485a2.022 2.022 0 0 0-1.894-1.093 2.264 2.264 0 0 0 0 4.527 2.007 2.007 0 0 0 1.894-1.093l2.555 1.464a4.98 4.98 0 0 1-4.409 2.515 5.053 5.053 0 0 1-5.172-5.15z"/><path data-name="Контур 5" d="M106.625 21.695l-3.123-4.312v4.312h-2.926v-9.757h2.926v4.275l2.927-4.275h3.415l-3.551 4.88 3.648 4.877z"/><path data-name="Контур 6" d="M120.664 11.938v9.757h-2.85v-4.877l-4.173 4.877h-2.148v-9.757h2.849v4.88l4.176-4.88z"/><path data-name="Контур 7" d="M132.461 11.938v9.757h-2.85v-4.878l-4.174 4.878h-2.148v-9.757h2.85v4.88l4.176-4.88zm-7.512-3.687h5.855v2.537h-5.855z"/><path data-name="Контур 8" d="M62.814 37.538l-3.121-4.312v4.312h-2.929v-9.757h2.929v4.275l2.926-4.275h3.415l-3.553 4.88 3.648 4.877z"/><path data-name="Контур 9" d="M66.609 32.661a5.172 5.172 0 1 1 5.174 5.149 5.115 5.115 0 0 1-5.174-5.149zm7.417 0a2.246 2.246 0 1 0-2.243 2.3 2.189 2.189 0 0 0 2.243-2.3z"/><path data-name="Контур 10" d="M88.26 27.781v9.757h-2.926v-3.513h-3.318v3.513h-2.927v-9.757h2.927v3.513h3.318v-3.513z"/><path data-name="Контур 11" d="M98.787 30.592h-2.906v6.946h-2.926v-6.946h-2.947v-2.811h8.779z"/><path data-name="Контур 12" d="M109.999 27.781l-3.336 9.463c-1.093 3.1-3.024 4.334-5.561 4.2v-2.732c1.308 0 1.931-.312 2.379-1.347l-3.823-9.581h3.121l2.263 5.991 1.833-5.991z"/><path data-name="Контур 13" d="M122.052 32.661a4.9 4.9 0 0 1-4.665 5.149 3.662 3.662 0 0 1-2.906-1.188v4.819h-2.929V27.782h2.929v.919a3.656 3.656 0 0 1 2.906-1.191 4.9 4.9 0 0 1 4.665 5.151zm-2.927 0a2.323 2.323 0 1 0-2.324 2.379 2.23 2.23 0 0 0 2.324-2.379z"/></g><path data-name=".ic-icon/logo" d="M29.881 3l-7.329 14.095L15.223 3H0l22.552 38.451L45.104 3z" fill="#fff"/></g></svg>