<svg xmlns="http://www.w3.org/2000/svg" width="134" height="44" viewBox="0 0 134 44">
  <g id="_.grp-logotype" data-name=".grp-logotype" transform="translate(-60.5 -18)">
    <rect id="_.el-zone_placement" data-name=".el-zone/placement" width="134" height="44" transform="translate(60.5 18)" fill="none"/>
    <g id="_.el-text_logo" data-name=".el-text/logo" transform="translate(117.264 26.036)">
      <path id="Контур_1" data-name="Контур 1" d="M333.253,182.57a4.694,4.694,0,0,1-4.78,4.683h-2.048v4.294H323.3V177.887h5.172A4.7,4.7,0,0,1,333.253,182.57Zm-3.123,0a1.669,1.669,0,0,0-1.657-1.756h-2.048v3.513h2.048A1.668,1.668,0,0,0,330.129,182.57Z" transform="translate(-323.204 -177.887)" fill="#fff"/>
      <path id="Контур_2" data-name="Контур 2" d="M338.423,179.611l-3.336,9.463c-1.093,3.1-3.024,4.334-5.561,4.2v-2.732c1.308,0,1.931-.312,2.379-1.347l-3.823-9.581H331.2l2.263,5.991,1.833-5.991Z" transform="translate(-317.164 -175.709)" fill="#fff"/>
      <path id="Контур_3" data-name="Контур 3" d="M332.949,184.642a5.162,5.162,0,0,1,9.583-2.655l-2.558,1.485a2.021,2.021,0,0,0-1.892-1.093,2.264,2.264,0,0,0,0,4.527,2,2,0,0,0,1.892-1.093l2.558,1.464a4.983,4.983,0,0,1-4.411,2.515A5.055,5.055,0,0,1,332.949,184.642Z" transform="translate(-311.015 -175.861)" fill="#fff"/>
      <path id="Контур_4" data-name="Контур 4" d="M337.61,184.642a5.161,5.161,0,0,1,9.581-2.655l-2.555,1.485a2.022,2.022,0,0,0-1.894-1.093,2.264,2.264,0,0,0,0,4.527,2.007,2.007,0,0,0,1.894-1.093l2.555,1.464a4.98,4.98,0,0,1-4.409,2.515A5.053,5.053,0,0,1,337.61,184.642Z" transform="translate(-305.127 -175.861)" fill="#fff"/>
      <path id="Контур_5" data-name="Контур 5" d="M348.665,189.368l-3.123-4.312v4.312h-2.926v-9.757h2.926v4.275l2.927-4.275h3.415l-3.551,4.88,3.648,4.877Z" transform="translate(-298.804 -175.709)" fill="#fff"/>
      <path id="Контур_6" data-name="Контур 6" d="M356.61,179.611v9.757h-2.85v-4.877l-4.173,4.877h-2.148v-9.757h2.849v4.88l4.176-4.88Z" transform="translate(-292.71 -175.709)" fill="#fff"/>
      <path id="Контур_7" data-name="Контур 7" d="M361.822,181.669v9.757h-2.85v-4.878l-4.174,4.878h-2.148v-9.757h2.85v4.88l4.176-4.88Zm-7.512-3.687h5.855v2.537H354.31Z" transform="translate(-286.125 -177.767)" fill="#fff"/>
      <path id="Контур_8" data-name="Контур 8" d="M329.308,196.368l-3.121-4.312v4.312h-2.929v-9.757h2.929v4.275l2.926-4.275h3.415l-3.553,4.88,3.648,4.877Z" transform="translate(-323.258 -166.866)" fill="#fff"/>
      <path id="Контур_9" data-name="Контур 9" d="M327.608,191.642a5.172,5.172,0,1,1,5.174,5.149A5.115,5.115,0,0,1,327.608,191.642Zm7.417,0a2.246,2.246,0,1,0-2.243,2.3A2.189,2.189,0,0,0,335.025,191.642Z" transform="translate(-317.763 -167.017)" fill="#fff"/>
      <path id="Контур_10" data-name="Контур 10" d="M342.293,186.611v9.757h-2.926v-3.513h-3.318v3.513h-2.927v-9.757h2.927v3.513h3.318v-3.513Z" transform="translate(-310.797 -166.866)" fill="#fff"/>
      <path id="Контур_11" data-name="Контур 11" d="M346.725,189.422h-2.906v6.946h-2.926v-6.946h-2.947v-2.811h8.779Z" transform="translate(-304.702 -166.866)" fill="#fff"/>
      <path id="Контур_12" data-name="Контур 12" d="M352.551,186.611l-3.336,9.463c-1.093,3.1-3.024,4.334-5.561,4.2v-2.732c1.308,0,1.931-.312,2.379-1.347l-3.823-9.581h3.121l2.263,5.991,1.833-5.991Z" transform="translate(-299.316 -166.866)" fill="#fff"/>
      <path id="Контур_13" data-name="Контур 13" d="M357.965,191.642a4.9,4.9,0,0,1-4.665,5.149,3.662,3.662,0,0,1-2.906-1.188v4.819h-2.929V186.763h2.929v.919a3.656,3.656,0,0,1,2.906-1.191A4.9,4.9,0,0,1,357.965,191.642Zm-2.927,0a2.323,2.323,0,1,0-2.324,2.379A2.23,2.23,0,0,0,355.038,191.642Z" transform="translate(-292.677 -167.017)" fill="#fff"/>
    </g>
    <path id="_.ic-icon_logo" data-name=".ic-icon/logo" d="M333.518,177.856l-7.329,14.095-7.329-14.095H303.637l22.552,38.451,22.552-38.451Z" transform="translate(-243.137 -156.856)" fill="#fff"/>
  </g>
</svg>
