<svg width="106" height="106" viewBox="0 0 106 106" fill="none" xmlns="http://www.w3.org/2000/svg">
<path d="M53.1304 88.5537C54.8994 88.5537 56.6685 89.1265 58.1185 90.3007C58.8435 90.8735 59.4815 91.5895 59.9745 92.42C60.4675 93.2506 60.8445 94.1957 60.9895 95.2267C61.1345 96.2291 61.1055 97.3174 60.8155 98.3484C60.5255 99.3795 60.0035 100.41 59.2785 101.27C58.5535 102.129 57.6255 102.845 56.5525 103.332C55.5085 103.819 54.3194 104.076 53.1594 104.076C52.8694 104.076 52.5794 104.048 52.2894 104.019C51.9994 103.99 51.7094 103.933 51.4194 103.876C51.1294 103.819 50.8684 103.733 50.5784 103.647C50.3174 103.561 50.0274 103.446 49.7664 103.332C48.7223 102.845 47.7653 102.129 47.0403 101.27C46.3153 100.41 45.7933 99.4081 45.5033 98.3771C45.2133 97.346 45.1843 96.2577 45.3293 95.2554C45.4743 94.253 45.8223 93.2792 46.3443 92.4487C46.8373 91.6181 47.4753 90.9022 48.2003 90.3294C49.6214 89.1265 51.3904 88.5537 53.1304 88.5537ZM53.1304 88.8115C51.4194 88.8115 49.7664 89.5275 48.5773 90.7017C47.3883 91.8759 46.7213 93.537 46.7213 95.1981C46.7213 96.8592 47.4173 98.4916 48.6353 99.6372C49.8244 100.811 51.4774 101.47 53.1304 101.442C54.7834 101.47 56.4655 100.783 57.6255 99.6372C58.8145 98.4916 59.5105 96.8592 59.5395 95.1981C59.5685 93.537 58.8725 91.8759 57.6835 90.7017C56.5235 89.4988 54.8414 88.8115 53.1304 88.8115Z" fill="white"/>
<path d="M17.2265 13.9761C12.4124 19.2458 9.62836 25.2314 10.0924 32.4772C10.5564 39.6944 14.0654 45.3077 19.4885 49.9474C17.6905 49.661 15.9505 49.1741 14.2974 48.5154C6.1483 45.2791 1.56623 39.2648 0.261212 30.7589C-0.608801 25.0023 1.33423 20.1622 5.36529 16.0381C5.48129 15.9236 5.7423 15.8376 5.8873 15.8949C9.94736 17.2123 13.6594 16.6109 17.0815 14.0906C17.1105 14.062 17.1685 14.0047 17.2265 13.9761Z" fill="white"/>
<path d="M19.9257 0.114502C21.7528 2.80662 21.7528 7.76126 19.2007 10.883C16.0397 14.778 11.0226 15.6371 7.31055 14.2338C8.03556 13.6037 8.73157 13.0309 9.39858 12.4295C10.9356 11.0834 12.5306 9.79467 14.0097 8.41997C15.7497 6.81615 17.2867 5.06914 18.4757 3.0071C19.0557 2.09063 19.4617 1.08825 19.9257 0.114502Z" fill="white"/>
<path d="M43.0101 88.9833C42.9811 88.7828 42.8941 88.5537 42.8941 88.3532C42.8361 85.9188 42.285 83.599 41.038 81.5083C40.4 80.4487 39.559 79.4749 38.747 78.5298C38.457 78.1861 38.283 77.8997 38.254 77.4702C37.993 73.031 36.804 68.8497 34.6869 64.926C34.0199 63.6945 33.2369 62.549 32.5119 61.3747C32.4249 61.2602 32.3669 61.117 32.3379 60.9165C32.5119 61.0597 32.6859 61.2029 32.8599 61.3461C38.341 66.3007 41.966 72.2864 43.3871 79.5322C43.9671 82.5107 43.9381 85.5179 43.3291 88.4964C43.3001 88.6682 43.2131 88.8114 43.1841 88.9833C43.1551 88.9546 43.0681 88.9833 43.0101 88.9833Z" fill="white"/>
<path d="M89.7565 44.1905C88.3355 46.2526 86.4505 47.9137 84.5945 49.6034C81.6364 52.2669 78.2724 54.1857 74.6183 55.6464C73.9803 55.9041 73.3423 56.1332 72.7623 56.4483C70.1812 57.9375 67.6292 59.4554 65.0482 60.9447C64.0331 61.5461 62.9891 62.1475 61.9741 62.749C62.0611 62.8062 62.1191 62.7776 62.1771 62.7776C65.8892 61.718 69.5722 60.6296 73.2843 59.57C73.5163 59.5127 73.7773 59.4554 74.0093 59.3982C74.0383 59.4554 74.0383 59.4841 74.0673 59.5413C73.9223 59.6559 73.7773 59.7705 73.6323 59.885C70.9643 61.9471 68.6152 64.3242 66.6432 67.0735C62.0031 73.5461 59.5091 80.62 60.6111 88.6678C60.7271 89.5269 60.6401 90.3575 60.0021 90.9303C59.3931 91.5031 58.6971 92.0186 57.9431 92.3909C56.348 93.1355 54.637 93.3074 52.897 93.2501C51.157 93.3074 49.4459 93.1642 47.8509 92.3909C47.0969 92.0472 46.4009 91.5031 45.7919 90.9303C45.1829 90.3288 45.0669 89.5269 45.1829 88.6678C46.2849 80.62 43.7908 73.5461 39.1508 67.0735C37.1787 64.3242 34.8297 61.9471 32.1617 59.885C32.0167 59.7705 31.8717 59.6559 31.7267 59.5413C31.7557 59.4841 31.7557 59.4554 31.7847 59.3982C32.0167 59.4554 32.2777 59.4841 32.5097 59.57C36.2217 60.6296 39.9048 61.6893 43.6168 62.7776C43.6748 62.8063 43.7328 62.8062 43.8198 62.749C42.8048 62.1475 41.7608 61.5461 40.7458 60.9447C38.1648 59.4268 35.6127 57.9089 33.0317 56.4483C32.4517 56.1046 31.8137 55.9041 31.1756 55.6464C27.5216 54.1857 24.1285 52.2669 21.1995 49.6034C19.3435 47.9137 17.4584 46.2526 16.0374 44.1905C13.7754 40.9256 12.4704 37.3457 12.6444 33.3075C12.6734 32.4197 12.8184 31.5605 12.9344 30.644C13.0794 30.7013 13.1374 30.7013 13.1374 30.73C14.5004 33.8517 17.0524 35.656 20.1555 36.7729C23.2875 37.9185 26.5646 38.6058 29.8706 39.1213C37.4977 40.3242 45.1829 40.7252 52.897 40.7824C60.6111 40.7252 68.2962 40.3242 75.9233 39.1213C79.2294 38.6058 82.4774 37.9185 85.6385 36.7729C88.7415 35.656 91.2936 33.823 92.6566 30.73C92.6566 30.7013 92.7146 30.7013 92.8596 30.644C92.9466 31.5605 93.0916 32.4197 93.1496 33.3075C93.3236 37.3457 92.0186 40.9256 89.7565 44.1905Z" fill="white"/>
<path d="M88.6253 13.9761C93.4394 19.2458 96.2234 25.2314 95.7594 32.4772C95.2954 39.6944 91.7864 45.3077 86.3633 49.9474C88.1613 49.661 89.9013 49.1741 91.5544 48.5154C99.7035 45.2791 104.286 39.2648 105.591 30.7589C106.461 25.0023 104.518 20.1622 100.487 16.0381C100.371 15.9236 100.109 15.8376 99.9645 15.8949C95.9044 17.2123 92.1924 16.6109 88.7703 14.0906C88.7413 14.062 88.6833 14.0047 88.6253 13.9761Z" fill="white"/>
<path d="M85.9257 0.114502C84.0987 2.80662 84.0987 7.76126 86.6507 10.883C89.8118 14.778 94.8289 15.6371 98.5409 14.2338C97.8159 13.6037 97.1199 13.0309 96.4529 12.4295C94.9158 11.0834 93.3208 9.79467 91.8418 8.41997C90.1018 6.81615 88.5648 5.06914 87.3757 3.0071C86.7957 2.09063 86.3897 1.08825 85.9257 0.114502Z" fill="white"/>
<path d="M62.8433 88.9833C62.8723 88.7828 62.9593 88.5537 62.9593 88.3532C63.0173 85.9188 63.5683 83.599 64.8153 81.5083C65.4534 80.4487 66.2944 79.4749 67.1064 78.5298C67.3964 78.1861 67.5704 77.8997 67.5994 77.4702C67.8604 73.031 69.0494 68.8497 71.1664 64.926C71.8334 63.6945 72.6165 62.549 73.3415 61.3747C73.4285 61.2602 73.4865 61.117 73.5155 60.9165C73.3415 61.0597 73.1675 61.2029 72.9935 61.3461C67.5124 66.3007 63.8873 72.2864 62.4663 79.5322C61.8863 82.5107 61.9153 85.5179 62.5243 88.4964C62.5533 88.6682 62.6403 88.8114 62.6693 88.9833C62.6983 88.9546 62.7563 88.9833 62.8433 88.9833Z" fill="white"/>
</svg>
