<svg width="96" height="96" viewBox="0 0 96 96" fill="none" xmlns="http://www.w3.org/2000/svg">
<path d="M48.1189 80.1995C49.721 80.1995 51.3231 80.7182 52.6363 81.7817C53.293 82.3004 53.8708 82.9489 54.3173 83.7011C54.7638 84.4532 55.1052 85.3092 55.2365 86.2429C55.3679 87.1508 55.3416 88.1364 55.079 89.0702C54.8163 90.0039 54.3435 90.9377 53.6869 91.7158C53.0303 92.4939 52.1899 93.1424 51.2181 93.5833C50.2725 94.0242 49.1957 94.2577 48.1451 94.2577C47.8825 94.2577 47.6198 94.2318 47.3572 94.2058C47.0945 94.1799 46.8319 94.128 46.5692 94.0761C46.3066 94.0243 46.0702 93.9464 45.8076 93.8686C45.5712 93.7908 45.3085 93.6871 45.0722 93.5833C44.1266 93.1424 43.2599 92.4939 42.6033 91.7158C41.9467 90.9377 41.4739 90.0298 41.2113 89.0961C40.9486 88.1623 40.9224 87.1767 41.0537 86.2689C41.185 85.3611 41.5002 84.4792 41.9729 83.727C42.4194 82.9748 42.9973 82.3264 43.6539 81.8076C44.9408 80.7182 46.543 80.1995 48.1189 80.1995ZM48.1189 80.4329C46.5692 80.4329 45.0722 81.0813 43.9953 82.1448C42.9185 83.2082 42.3144 84.7126 42.3144 86.217C42.3144 87.7214 42.9447 89.1998 44.0478 90.2374C45.1247 91.3008 46.6218 91.8974 48.1189 91.8714C49.6159 91.8974 51.1393 91.2749 52.1899 90.2374C53.2667 89.1998 53.897 87.7214 53.9233 86.217C53.9496 84.7126 53.3192 83.2082 52.2424 82.1448C51.1918 81.0554 49.6685 80.4329 48.1189 80.4329Z" fill="#254EF5"/>
<path d="M15.6008 12.6576C11.2409 17.4301 8.71951 22.8511 9.13974 29.4133C9.55997 35.9496 12.738 41.0334 17.6494 45.2354C16.021 44.976 14.4452 44.535 12.9481 43.9385C5.56776 41.0075 1.41796 35.5606 0.236054 27.8571C-0.551883 22.6436 1.20784 18.2601 4.85862 14.5251C4.96367 14.4214 5.20006 14.3435 5.33138 14.3954C9.00842 15.5886 12.3703 15.0439 15.4695 12.7613C15.4958 12.7354 15.5483 12.6835 15.6008 12.6576Z" fill="#254EF5"/>
<path d="M18.0462 0.103638C19.7008 2.54178 19.7008 7.029 17.3896 9.85621C14.5267 13.3837 9.98296 14.1619 6.62109 12.8909C7.27771 12.3203 7.90806 11.8015 8.51214 11.2568C9.90416 10.0378 11.3487 8.87058 12.6882 7.62557C14.2641 6.17306 15.6561 4.59086 16.7329 2.72335C17.2582 1.89334 17.6259 0.985519 18.0462 0.103638Z" fill="#254EF5"/>
<path d="M38.9505 80.5886C38.9242 80.4071 38.8455 80.1995 38.8455 80.018C38.7929 77.8133 38.2939 75.7123 37.1645 73.8189C36.5867 72.8592 35.825 71.9773 35.0896 71.1214C34.827 70.8101 34.6694 70.5507 34.6431 70.1617C34.4067 66.1413 33.3299 62.3544 31.4126 58.801C30.8085 57.6856 30.0994 56.6481 29.4427 55.5847C29.364 55.4809 29.3114 55.3512 29.2852 55.1697C29.4427 55.2994 29.6003 55.4291 29.7579 55.5587C34.7219 60.046 38.005 65.4669 39.292 72.0292C39.8172 74.7267 39.791 77.4502 39.2394 80.1477C39.2132 80.3033 39.1344 80.433 39.1081 80.5886C39.0818 80.5627 39.003 80.5886 38.9505 80.5886Z" fill="#254EF5"/>
<path d="M81.2889 40.0217C80.002 41.8892 78.2948 43.3936 76.6139 44.9239C73.9349 47.3361 70.8882 49.074 67.5788 50.3968C67.001 50.6302 66.4232 50.8377 65.8979 51.123C63.5604 52.4718 61.2491 53.8465 58.9115 55.1953C57.9923 55.7399 57.0468 56.2846 56.1275 56.8293C56.2063 56.8812 56.2588 56.8553 56.3114 56.8553C59.6732 55.8956 63.0088 54.9099 66.3707 53.9502C66.5808 53.8984 66.8172 53.8465 67.0273 53.7946C67.0536 53.8465 67.0536 53.8724 67.0798 53.9243C66.9485 54.0281 66.8172 54.1318 66.6859 54.2356C64.2695 56.1031 62.1421 58.2559 60.3561 60.7459C56.1538 66.6078 53.895 73.0145 54.8931 80.3029C54.9981 81.0811 54.9193 81.8333 54.3415 82.352C53.79 82.8708 53.1596 83.3377 52.4767 83.6748C51.0322 84.3492 49.4826 84.5048 47.9067 84.453C46.3308 84.5048 44.7812 84.3752 43.3367 83.6748C42.6538 83.3636 42.0234 82.8708 41.4719 82.352C40.9203 81.8073 40.8153 81.0811 40.9203 80.3029C41.9184 73.0145 39.6596 66.6078 35.4573 60.7459C33.6713 58.2559 31.5439 56.1031 29.1275 54.2356C28.9962 54.1318 28.8649 54.0281 28.7336 53.9243C28.7598 53.8724 28.7598 53.8465 28.7861 53.7946C28.9962 53.8465 29.2326 53.8724 29.4427 53.9502C32.8046 54.9099 36.1402 55.8696 39.502 56.8553C39.5546 56.8812 39.6071 56.8812 39.6859 56.8293C38.7666 56.2846 37.8211 55.7399 36.9019 55.1953C34.5643 53.8206 32.253 52.4459 29.9155 51.123C29.3902 50.8118 28.8124 50.6302 28.2345 50.3968C24.9252 49.074 21.8523 47.3361 19.1995 44.9239C17.5186 43.3936 15.8114 41.8892 14.5245 40.0217C12.4758 37.0648 11.2939 33.8226 11.4515 30.1654C11.4778 29.3613 11.6091 28.5832 11.7141 27.7532C11.8455 27.805 11.898 27.805 11.898 27.831C13.1324 30.6582 15.4437 32.2923 18.254 33.3038C21.0906 34.3413 24.0585 34.9639 27.0526 35.4307C33.9602 36.5201 40.9203 36.8832 47.9067 36.9351C54.8931 36.8832 61.8532 36.5201 68.7607 35.4307C71.7549 34.9639 74.6965 34.3413 77.5594 33.3038C80.3697 32.2923 82.681 30.6323 83.9154 27.831C83.9154 27.805 83.9679 27.805 84.0993 27.7532C84.178 28.5832 84.3094 29.3613 84.3619 30.1654C84.5195 33.8226 83.3376 37.0648 81.2889 40.0217Z" fill="#254EF5"/>
<path d="M80.2674 12.6576C84.6273 17.4301 87.1487 22.8511 86.7285 29.4133C86.3082 35.9496 83.1302 41.0334 78.2188 45.2354C79.8472 44.976 81.423 44.535 82.9201 43.9385C90.3005 41.0075 94.4502 35.5606 95.6321 27.8571C96.4201 22.6436 94.6604 18.2601 91.0096 14.5251C90.9045 14.4214 90.6682 14.3435 90.5368 14.3954C86.8598 15.5886 83.4979 15.0439 80.3987 12.7613C80.3724 12.7354 80.3199 12.6835 80.2674 12.6576Z" fill="#254EF5"/>
<path d="M77.8215 0.103638C76.1668 2.54178 76.1668 7.029 78.4781 9.85621C81.341 13.3837 85.8847 14.1619 89.2466 12.8909C88.59 12.3203 87.9596 11.8015 87.3555 11.2568C85.9635 10.0378 84.519 8.87058 83.1795 7.62557C81.6036 6.17306 80.2116 4.59086 79.1347 2.72335C78.6094 1.89334 78.2417 0.985519 77.8215 0.103638Z" fill="#254EF5"/>
<path d="M56.9148 80.5886C56.9411 80.4071 57.0199 80.1995 57.0199 80.018C57.0724 77.8133 57.5715 75.7123 58.7008 73.8189C59.2787 72.8592 60.0403 71.9773 60.7757 71.1214C61.0384 70.8101 61.196 70.5507 61.2222 70.1617C61.4586 66.1413 62.5355 62.3544 64.4528 58.801C65.0569 57.6856 65.766 56.6481 66.4226 55.5847C66.5014 55.4809 66.5539 55.3512 66.5802 55.1697C66.4226 55.2994 66.265 55.4291 66.1074 55.5587C61.1434 60.046 57.8604 65.4669 56.5734 72.0292C56.0481 74.7267 56.0744 77.4502 56.6259 80.1477C56.6522 80.3033 56.731 80.433 56.7573 80.5886C56.7835 80.5627 56.8361 80.5886 56.9148 80.5886Z" fill="#254EF5"/>
</svg>
