<svg width="32" height="32" viewBox="0 0 32 32" fill="none" xmlns="http://www.w3.org/2000/svg">
<g clip-path="url(#clip0_248_2545)">
<path d="M31.0261 12.5587C28.9581 9.19071 24.2541 3.54004 15.9981 3.54004C7.74212 3.54004 3.03812 9.19071 0.970115 12.5587C0.330819 13.5927 -0.0078125 14.7844 -0.0078125 16C-0.0078125 17.2157 0.330819 18.4074 0.970115 19.4414C3.03812 22.8094 7.74212 28.46 15.9981 28.46C24.2541 28.46 28.9581 22.8094 31.0261 19.4414C31.6654 18.4074 32.004 17.2157 32.004 16C32.004 14.7844 31.6654 13.5927 31.0261 12.5587ZM28.7528 18.0454C26.9768 20.9334 22.9568 25.7934 15.9981 25.7934C9.03945 25.7934 5.01945 20.9334 3.24345 18.0454C2.86363 17.4308 2.66245 16.7225 2.66245 16C2.66245 15.2775 2.86363 14.5693 3.24345 13.9547C5.01945 11.0667 9.03945 6.20671 15.9981 6.20671C22.9568 6.20671 26.9768 11.0614 28.7528 13.9547C29.1326 14.5693 29.3338 15.2775 29.3338 16C29.3338 16.7225 29.1326 17.4308 28.7528 18.0454Z" fill="#254EF5"/>
<path d="M16.0026 9.33337C14.6841 9.33337 13.3951 9.72437 12.2988 10.4569C11.2025 11.1895 10.348 12.2306 9.84341 13.4488C9.33883 14.667 9.2068 16.0074 9.46404 17.3006C9.72127 18.5938 10.3562 19.7817 11.2886 20.7141C12.2209 21.6464 13.4088 22.2814 14.702 22.5386C15.9952 22.7958 17.3357 22.6638 18.5538 22.1592C19.772 21.6547 20.8132 20.8002 21.5457 19.7038C22.2783 18.6075 22.6693 17.3186 22.6693 16C22.6672 14.2326 21.9641 12.5381 20.7143 11.2883C19.4645 10.0386 17.7701 9.33549 16.0026 9.33337ZM16.0026 20C15.2115 20 14.4381 19.7654 13.7803 19.3259C13.1225 18.8864 12.6098 18.2617 12.3071 17.5308C12.0043 16.7999 11.9251 15.9956 12.0795 15.2197C12.2338 14.4438 12.6148 13.731 13.1742 13.1716C13.7336 12.6122 14.4463 12.2312 15.2222 12.0769C15.9982 11.9226 16.8024 12.0018 17.5333 12.3045C18.2642 12.6073 18.889 13.12 19.3285 13.7778C19.768 14.4356 20.0026 15.2089 20.0026 16C20.0026 17.0609 19.5812 18.0783 18.831 18.8285C18.0809 19.5786 17.0635 20 16.0026 20Z" fill="#254EF5"/>
</g>
<defs>
<clipPath id="clip0_248_2545">
<rect width="32" height="32" fill="white"/>
</clipPath>
</defs>
</svg>
