<svg width="1711" height="699" viewBox="0 0 1711 699" fill="none" xmlns="http://www.w3.org/2000/svg">
<rect y="288.951" width="320" height="128" rx="24" transform="rotate(-10 0 288.951)" fill="#F3F6FF"/>
<g clip-path="url(#clip0_2155_7687)">
<path d="M194.497 317.541C193.879 317.87 193.015 318.21 191.928 318.546C191.41 318.709 190.826 318.848 190.136 318.97C188.976 319.174 187.704 319.303 186.471 319.422L186.428 319.427C185.286 319.54 184.206 319.648 183.183 319.828C182.453 319.957 181.791 320.119 181.163 320.315C179.294 320.891 177.894 321.761 177.894 321.761L177.882 321.602C177.572 317.676 180.211 313.812 184.016 312.604C184.373 312.496 184.736 312.409 185.104 312.343C188.775 311.696 192.829 313.872 194.544 317.409L194.588 317.501L194.497 317.541ZM199.271 318.389L199.261 318.337C199.2 318.091 199.082 317.698 198.954 317.275C198.717 316.513 198.413 315.774 198.044 315.067C195.279 309.748 189.895 306.951 184.326 307.933C183.77 308.031 183.202 308.167 182.65 308.345C175.671 310.53 171.97 317.906 174.219 325.138C176.259 331.684 182.417 335.329 188.927 334.181C189.476 334.084 190.041 333.945 190.607 333.773C193.998 332.717 196.788 330.716 198.57 327.466C198.67 327.282 198.697 327.063 198.641 326.882C198.591 326.721 198.467 326.581 198.272 326.486C197.84 326.276 196.355 325.849 195.548 325.622C195.31 325.55 195.118 325.497 195.012 325.465C194.765 325.387 194.594 325.363 194.447 325.389C194.267 325.421 194.112 325.544 193.981 325.778C192.812 327.761 191.109 328.996 189.25 329.583C188.88 329.696 188.519 329.786 188.163 329.848C184.693 330.46 180.779 328.737 179.196 325.705L179.156 325.625L179.224 325.575C179.389 325.454 180.878 324.406 183.284 323.981C183.582 323.929 183.889 323.888 184.19 323.862C184.89 323.795 185.599 323.763 186.346 323.727C187.727 323.669 189.159 323.609 190.792 323.321C191.797 323.142 192.789 322.894 193.759 322.576C197.595 321.105 198.972 319.705 198.983 319.693C199.479 319.228 199.405 318.929 199.271 318.389M259.504 296.197C259.445 295.861 259.123 295.639 258.793 295.697L255.506 296.277C255.179 296.334 254.956 296.652 255.015 296.988L259.166 320.531C259.225 320.863 259.544 321.091 259.871 321.033L263.158 320.453C263.488 320.395 263.714 320.072 263.655 319.739L259.504 296.197ZM255.672 287.59C254.038 287.878 252.942 289.457 253.233 291.105C253.523 292.75 255.092 293.856 256.726 293.567C258.364 293.279 259.456 291.704 259.166 290.059C258.876 288.41 257.31 287.301 255.672 287.59ZM214.278 307.262C218.936 306.44 223.267 309.658 224.137 314.591C225.012 319.554 222.208 323.903 217.614 324.713C215.294 325.122 212.996 324.663 211.155 323.422C209.257 322.148 207.978 320.101 207.549 317.669C206.68 312.737 209.698 308.069 214.278 307.262ZM217.973 329.067C218.182 329.04 218.399 329.01 218.608 328.973C221.985 328.378 224.892 326.511 226.806 323.733C228.746 320.903 229.461 317.365 228.826 313.765C227.514 306.326 220.802 301.501 213.543 302.781C207.636 303.822 203.341 308.62 202.844 314.718C202.759 315.753 202.936 318.324 203.379 320.841L206.636 339.313C206.696 339.65 207.013 339.877 207.347 339.818L210.607 339.243C210.944 339.183 211.168 338.858 211.108 338.519L209.054 326.884L209.254 327.021C211.132 328.306 214.409 329.524 217.973 329.067ZM155.704 317.59C160.358 316.769 164.69 319.987 165.56 324.92C166.435 329.883 163.632 334.232 159.034 335.042C156.709 335.452 154.421 334.992 152.581 333.751C150.68 332.477 149.397 330.43 148.968 327.998C148.098 323.067 151.12 318.398 155.704 317.59ZM159.4 339.395C159.609 339.368 159.825 339.338 160.03 339.302C163.411 338.706 166.319 336.839 168.229 334.062C170.169 331.231 170.888 327.693 170.253 324.093C168.942 316.654 162.225 311.83 154.965 313.11C149.06 314.151 144.759 318.949 144.266 325.046C144.176 326.083 144.357 328.653 144.801 331.17L148.058 349.642C148.117 349.979 148.437 350.205 148.763 350.148L152.033 349.571C152.368 349.512 152.592 349.186 152.532 348.848L150.475 337.213L150.67 337.351C152.548 338.636 155.825 339.854 159.4 339.395ZM233.529 322.072C236.829 324.189 240.194 325.137 244.219 324.427L244.347 324.405C251.287 323.134 253.717 318.761 253.052 314.991C252.133 309.777 246.999 309.213 245.447 309.161C244.95 309.151 244.434 309.144 243.904 309.132C242.653 309.111 241.355 309.09 240.158 308.974C239.319 308.893 236.557 308.478 236.211 306.514C235.83 304.352 238.006 302.766 240.244 302.371C242.124 302.04 243.747 302.082 246.031 303.306C246.209 303.403 246.455 303.507 246.723 303.459C246.921 303.424 247.099 303.322 247.278 303.138C247.76 302.628 248.624 301.586 249.176 300.791C249.306 300.602 249.348 300.412 249.306 300.23C249.24 299.946 248.987 299.748 248.863 299.677C245.803 298.007 243.068 297.585 239.427 298.217L239.4 298.222C234.194 299.14 230.859 303.204 231.647 307.673C232.271 311.214 235.605 313.22 241.026 313.333L244.419 313.388C246.645 313.407 248.061 314.346 248.303 315.969C248.542 317.55 246.913 319.518 243.764 320.073C241.194 320.526 238.752 319.915 236.549 318.515L236.517 318.492C236.361 318.394 236.175 318.273 235.959 318.31C235.808 318.337 235.661 318.436 235.513 318.602C235.344 318.798 233.46 320.929 233.27 321.217C233.184 321.352 233.155 321.483 233.18 321.612C233.221 321.815 233.388 321.981 233.529 322.072Z" fill="#2151A1"/>
<path d="M129.858 352.988C120.265 366.8 101.342 370.135 87.6036 360.438C73.8588 350.74 70.4979 331.679 80.0973 317.868C89.6931 304.057 108.613 300.72 122.35 310.419C136.094 320.112 139.455 339.173 129.858 352.988Z" fill="white"/>
<path d="M125.555 316.137C126.459 317.906 127.094 319.802 127.44 321.76C128.583 328.245 126.424 334.506 122.239 338.928C114.964 346.614 102.764 348.774 86.8604 357.092C93.0245 362.318 101.352 364.867 109.897 363.36C125.211 360.66 135.42 345.966 132.7 330.54C131.712 324.94 129.147 320.016 125.555 316.137Z" fill="#2151A1"/>
<path d="M117.66 310.147C112.408 307.456 106.286 306.396 100.047 307.496C84.7337 310.196 74.5258 324.893 77.2456 340.317C78.3404 346.526 81.3624 351.906 85.5809 355.944C103.265 347.185 115.391 329.853 117.66 310.147Z" fill="#EB1933"/>
</g>
<rect x="330.895" y="230.605" width="320" height="128" rx="24" transform="rotate(-10 330.895 230.605)" fill="#F3F6FF"/>
<g clip-path="url(#clip1_2155_7687)">
<path d="M587.211 248.6L602.561 274.038C599.379 274.152 596.18 274.156 592.933 274.223L584.338 260.187L580.68 275.1C577.6 275.138 574.631 275.493 571.57 275.641L578.062 249.878L564.041 227.118L573.025 225.534L580.869 238.249L584.282 223.549L593.374 221.946L587.211 248.6ZM556.947 228.369L548.795 229.806L557.138 277.124C559.829 276.818 562.619 276.437 565.395 276.282L556.947 228.369ZM550 277.822C542.484 278.644 534.977 279.522 527.351 280.697L519.295 235.008L527.612 233.542L534.31 271.526C539.098 270.793 543.933 270.33 548.574 269.736L550 277.822ZM513.684 255.078L515.119 263.216L503.752 265.221L507.015 283.724L498.81 285.171L490.849 240.024L514.139 235.917L515.574 244.056L500.491 246.715L502.319 257.082L513.686 255.078L513.684 255.078ZM478.309 250.627L484.911 288.069C482.138 288.558 479.311 289.057 476.612 289.644L469.99 252.093L461.395 253.609L459.96 245.47L485.522 240.963L486.957 249.102L478.309 250.627ZM455.752 274.13C452.093 274.775 447.767 275.538 444.691 276.251L446.825 288.35C451.647 287.163 456.46 285.924 461.365 284.891L462.743 292.705L440.049 298.554L431.571 250.476L454.58 246.419L456.015 254.558L441.323 257.148L443.256 268.11C446.473 267.543 451.379 266.51 454.317 265.992L455.752 274.132L455.752 274.13ZM408.866 277.698L413.88 306.132C410.946 306.985 408.35 307.835 405.599 308.768L396.414 256.675L404.344 255.277L420.371 282.946L415.156 253.371L423.474 251.904L432.066 300.631C429.214 301.639 426.248 302.33 423.164 303.32L408.866 277.698Z" fill="#E50914"/>
</g>
<rect x="661.789" y="172.259" width="320" height="128" rx="24" transform="rotate(-10 661.789 172.259)" fill="#F3F6FF"/>
<g clip-path="url(#clip2_2155_7687)">
<path d="M732.405 228.302L716.279 231.146L715.559 227.064L736.354 223.397C735.503 221.761 733.461 220.463 730.369 221.008L715.273 223.67C711.818 224.28 710.046 225.931 710.548 228.776L711.082 231.807C711.518 234.281 713.831 235.34 716.862 234.806L733.17 231.93L733.934 236.26L711.987 240.129C712.947 242.384 714.923 243.311 718.076 242.755L734.506 239.858C737.961 239.248 739.419 237.588 738.906 234.681L738.372 231.651C737.903 228.991 735.651 227.921 732.405 228.302ZM764.027 215.137L744.142 218.644L747.49 237.632L753.129 236.638L751.842 229.339L766.513 226.752C770.575 226.036 772.567 224.218 771.978 220.878L771.608 218.775C771.002 215.693 768.15 214.41 764.027 215.137ZM766.915 220.878C767.155 222.239 767.043 223.024 764.861 223.409L751.22 225.814L750.408 220.855L763.746 218.503C766.171 218.076 766.605 218.764 766.834 220.063L766.976 220.867L766.915 220.878ZM791.53 222.214L779.526 224.33L777.122 228.07L794.461 225.013L798.173 228.695L804.842 227.519L786.984 210.26L784.342 215.127L791.53 222.214ZM812.864 209.906L833.961 206.186C833.023 204.056 830.705 203.317 827.674 203.851L811.911 206.63C809.183 207.111 806.772 208.684 807.307 211.715L809.182 222.354C809.717 225.384 812.52 226.038 815.248 225.557L831.193 222.745C834.83 222.104 835.918 220.828 836.077 218.185L814.979 221.905L812.864 209.906ZM859.809 208.133L859.242 204.917L842.206 207.921L844.431 220.539L869.591 216.102L868.958 212.515L849.497 215.946L848.472 210.132L859.809 208.133ZM841.689 201.444L867.091 196.964L867.68 200.304L842.278 204.783L841.689 201.444ZM882.733 194.206L873.881 195.767L885.683 201.722C887.013 200.403 888.575 198.98 889.988 197.774L882.733 194.206ZM897.298 201.651C895.967 202.969 894.659 204.412 893.4 205.782L902.318 210.268L911.23 208.696L897.298 201.651Z" fill="black"/>
<path d="M948.315 171.227C900.316 182.625 881.614 207.733 877.466 213.63L876.61 214.801L885.582 213.219C905.459 184.141 939.545 173.603 948.315 171.227Z" fill="black"/>
</g>
<rect x="992.688" y="113.913" width="320" height="128" rx="24" transform="rotate(-10 992.688 113.913)" fill="#F3F6FF"/>
<g clip-path="url(#clip3_2155_7687)">
<path d="M1156.7 119.327C1157.97 119.164 1159.25 119.429 1160.34 120.08C1161.86 121.07 1162.55 123.042 1162.23 124.776C1160.7 130.072 1155.61 134.328 1151.92 136.089C1149.7 137.039 1146.77 137.555 1144.52 137.116C1143.6 137.905 1143.08 140.027 1141.69 139.429C1139.64 138.344 1140.81 135.872 1139.5 134.498C1139.22 134.216 1138.68 134.288 1138.31 133.811C1136.33 130.948 1137.58 127.656 1139.14 124.938C1141.79 120.705 1150.52 114.97 1156.7 119.327ZM1146.16 123.699C1144.37 124.362 1142.44 125.524 1141.54 127.026C1140.65 128.528 1140.16 129.924 1141.08 131.158C1143.15 128.977 1143.88 126.335 1146.28 124.377C1146.23 124.105 1146.6 123.83 1146.16 123.699ZM1157.38 122.418C1152.61 122.84 1149.69 126.987 1146.94 130.961C1146.84 131.539 1145.72 132.364 1146.78 132.806C1151.35 132.419 1155.42 130.376 1158.16 126.819C1158.96 125.77 1159.44 124.499 1158.75 123.364C1158.46 122.927 1157.89 122.538 1157.38 122.418ZM1201.7 135.412C1204.81 140.31 1208.12 148.314 1204.99 154.102C1204.12 155.513 1202.41 156.973 1201.02 156.269C1195.89 153.474 1193.07 148.663 1189.47 144.55C1189.02 144.419 1189.12 144.962 1188.95 145.201C1188.75 150.053 1191.73 155.812 1189.17 160.032C1187.98 160.452 1186.73 160.027 1186.09 158.9C1183.68 154.369 1184.43 149.069 1183.99 144.189C1184.51 141.583 1184.42 138.667 1186.21 136.466C1189.86 137.219 1192.16 140.724 1194.63 143.152C1196.43 144.998 1198.01 147.165 1199.97 148.772C1201.3 147.91 1200.27 146.176 1200.02 145.063C1198.7 140.757 1196.76 136.911 1194.86 132.917C1194.6 131.845 1193.67 130.124 1194.7 129.244C1198.01 130.057 1199.87 133.011 1201.7 135.412ZM1180.83 137.415C1181.01 138.432 1180.41 139.845 1179.76 140.118C1173.39 142.287 1165.99 142.963 1160.22 146.076C1160.15 146.857 1161.06 146.836 1161.57 146.955C1166.96 146.842 1172.52 146.072 1177.85 146.458C1180.68 146.663 1182.22 149.669 1182.89 152.274C1183.38 154.334 1183.02 156.998 1181.22 158.782C1176.74 162.854 1169.02 164.075 1163.39 162.067C1161.25 161.322 1159.07 159.896 1158.56 157.753C1158.26 156.03 1158.76 154.544 1159.88 153.68C1164.44 150.85 1170.69 150.866 1175.36 152.624C1175.87 153.932 1174.38 154.118 1173.76 154.723C1169.53 158.261 1164.98 153.131 1160.99 155.997C1160.44 156.511 1160.2 157.723 1160.98 157.954C1166.78 159.375 1172.48 156.624 1177.53 154.197C1178.11 153.886 1178.75 153.144 1178.71 152.523C1178.13 150.392 1175.59 150.351 1173.91 150.018C1169.08 149.685 1163.97 150.586 1158.91 150.989C1157.92 150.954 1156.59 150.508 1156.17 149.797C1155.34 148.268 1154.94 146.033 1155.93 144.463C1161.29 137.792 1170.98 136.573 1179.28 136.644C1179.87 136.747 1180.52 136.842 1180.83 137.415ZM1151.5 145.24C1153.26 151.632 1154.66 157.6 1155.73 164.463C1155.75 165.366 1154.77 165.75 1154.14 166.209C1153.09 166.604 1151.64 166.622 1151.11 166.117C1149.1 163.886 1149.05 160.406 1148.37 157.382C1147.73 152.54 1146.74 147.337 1147.32 142.626C1147.46 141.931 1148.12 141.227 1148.81 141.524C1150.59 142.049 1151.15 143.627 1151.5 145.24ZM1227.05 130.941C1227.47 131.431 1227.97 132.216 1227.36 132.701C1224.53 134.596 1220.27 134.72 1216.8 135.751C1215.98 136.732 1215.47 138.218 1216.03 139.378C1216.41 139.52 1216.77 139.776 1217.14 139.67C1219.34 139.422 1222.41 137.693 1224.2 139.472C1224.65 140.014 1224.66 142.341 1223.69 142.564C1221.09 143.373 1216.6 143.472 1215.43 144.371C1213.99 145.742 1214.5 147.817 1214.18 149.62C1215.47 150.16 1216.55 149.184 1217.89 148.755C1220.34 147.904 1223.01 146.666 1225.62 146.763C1226.26 147.56 1227.1 148.388 1226.82 149.555C1223.12 153.699 1218.19 158.147 1211.85 156.733C1209.46 156.136 1207.88 152.964 1208.13 149.989C1208.25 147.873 1210.02 145.537 1208.34 143.598C1207.97 142.685 1208.37 141.777 1209.15 141.43C1211.4 141.034 1210.44 138.341 1211.37 136.85C1209.82 135.656 1206.56 136.301 1206.4 133.396C1207.83 132.307 1209.78 132.241 1211.51 131.659C1215.38 130.136 1219.8 128.869 1223.97 128.622C1224.82 128.641 1226.19 130.046 1227.05 130.941ZM1127.01 132.662C1134.2 136.661 1143.89 143.929 1144.64 154.131C1144.81 162.271 1137.41 169.72 1130.58 172.878C1123.99 176.135 1115.23 177.47 1107.86 177.095C1107.61 178.467 1107.4 180.107 1106 180.914C1105.11 181.42 1103.84 181.434 1102.99 180.957C1100.53 179.365 1101.56 175.272 1098.28 174.595C1091.84 173.147 1084.5 169.345 1080.35 163.791C1079.73 162.645 1079.99 161.342 1080.58 160.262C1084.62 155.708 1090.29 153.173 1096.01 150.976C1096.38 151.051 1096.16 150.601 1096.41 150.418C1096.03 146.295 1095.44 142.139 1096.09 138.254C1096.29 137.689 1096.99 137.397 1097.53 137.651C1101.78 139.834 1100.95 145.497 1103.27 149.068C1110.48 148.145 1117.7 147.221 1124.06 150.22C1126.24 151.441 1127.23 154.333 1126.93 156.138C1126.63 157.941 1124.85 159.507 1123.04 159.965C1121.81 160.181 1119.51 160.708 1119.49 159.754C1119.46 158.799 1123.22 156.564 1121.76 155.512C1119.66 154 1110.56 154.485 1104.92 154.781C1104.21 154.766 1103.62 155.079 1103.75 155.824C1104.53 160.994 1105.12 166.754 1106.88 171.543C1107.01 171.87 1107.49 172.204 1107.84 172.21C1117.86 172.05 1127.99 169.354 1134.65 162.456C1137.69 158.988 1138.15 154.786 1136.76 150.493C1131.53 138.778 1117.35 133.666 1105.95 130.789C1094.87 128.134 1083.08 127.838 1070.99 130.6C1069.07 131.083 1066.11 132.292 1066.21 132.979C1066.31 133.666 1069.78 132.832 1069.58 134.199C1069.39 135.564 1065.69 135.427 1064.58 135.291C1063.46 135.156 1063.3 133.63 1063.41 132.635C1065.24 127.494 1072.59 125.808 1075.91 125.053C1094.37 121.31 1113.53 125.164 1127.01 132.662ZM1096.81 156.699C1092.12 157.596 1087.23 158.947 1083.16 161.341C1082.33 161.835 1081.41 162.976 1082.29 164.007C1084.48 166.065 1087.36 167.563 1089.97 168.518C1092.59 169.47 1096.04 170.659 1098.98 170.562C1098.88 166.039 1098.12 161.705 1097.25 157.18C1096.95 157.093 1097.18 156.774 1096.81 156.699ZM1236.59 125.697C1237.43 131.624 1232.55 136.256 1233.59 142.147C1233.83 142.314 1234.02 142.56 1234.26 142.379C1237.85 136.789 1241 129.18 1247.12 126.008C1248.8 125.571 1250.6 126.772 1251.43 127.761C1254.47 131.833 1255.04 138.227 1252.62 142.843C1250.09 147.402 1245.17 152.396 1238.64 152.847C1237.13 159.817 1236.5 166.982 1236.73 174.272C1236.43 175.79 1234.91 174.732 1234.05 174.605C1227.76 171.245 1230.27 158.973 1230.39 157.443C1230.51 155.917 1231.38 152.213 1231.95 149.139C1228.55 144.992 1229.2 139.149 1230.56 134.51C1231.69 131.378 1233.44 128.136 1235.72 125.501C1236.06 125.443 1236.34 125.463 1236.59 125.697ZM1248.86 131.076C1248.02 131.085 1247.87 132.229 1247.22 132.552C1244.71 136.626 1242.19 140.7 1241.37 145.175C1243.53 145.073 1245.06 143.407 1246.77 142.338C1249.56 139.821 1250.96 136.224 1250.1 132.534C1249.85 131.947 1249.23 131.569 1248.86 131.076Z" fill="black"/>
</g>
<rect x="1323.58" y="55.5674" width="320" height="128" rx="24" transform="rotate(-10 1323.58 55.5674)" fill="#F3F6FF"/>
<g clip-path="url(#clip4_2155_7687)">
<path d="M1520.99 122.265L1521.85 127.168L1523.45 126.886L1522.88 123.621L1528.7 122.595L1529.27 125.859L1530.87 125.578L1530.01 120.682L1520.99 122.265ZM1522.13 120.428L1528.28 119.343C1529.11 119.026 1529.61 118.172 1529.66 117.424L1520.17 119.097C1520.48 119.783 1521.25 120.41 1522.13 120.428ZM1517.01 128.025C1517.76 127.547 1518.09 126.889 1518.13 126.18L1510.96 127.445L1509.81 120.928L1508.21 121.216L1509.64 129.325L1517.01 128.025ZM1496.53 124.919L1502.21 123.918C1503.02 123.522 1503.63 122.754 1503.68 122.012L1494.65 123.603L1495.5 128.396L1502.88 127.093L1503.18 128.775L1497.39 129.801C1496.52 130.21 1495.86 130.945 1495.62 131.804L1496.08 131.713L1505.06 130.131L1504.19 125.22L1496.81 126.521L1496.53 124.919ZM1482.51 127.408L1488.66 126.323C1489.48 126.005 1489.99 125.152 1490.04 124.403L1480.55 126.076C1480.85 126.763 1481.63 127.389 1482.51 127.408ZM1483.07 130.613L1489.22 129.528C1490.05 129.212 1490.55 128.358 1490.6 127.609L1481.12 129.282C1481.42 129.969 1482.19 130.596 1483.07 130.613ZM1483.65 133.906L1489.8 132.822C1490.63 132.504 1491.13 131.651 1491.18 130.902L1481.7 132.575C1482 133.261 1482.78 133.888 1483.65 133.906ZM1466.23 128.622C1466.54 129.298 1467.29 129.913 1468.18 129.943L1470.76 129.487L1470.91 129.515L1472.04 135.935L1473.65 135.65L1472.52 129.23L1472.66 129.153L1475.25 128.696C1476.08 128.324 1476.57 127.53 1476.62 126.789L1476.62 126.773L1466.22 128.607L1466.23 128.622Z" fill="#E82127"/>
<path d="M1495.12 106.987L1495.32 60.9135C1503.02 59.5562 1505.59 59.9578 1506.54 63.283C1506.54 63.283 1511.37 60.4797 1513.3 56.1763C1502.32 53.3387 1492.07 54.9306 1492.07 54.9306L1487.37 63.116L1487.38 63.1127L1480.16 57.0285C1480.16 57.0285 1469.99 59.0382 1460.64 65.4598C1463.92 68.8451 1469.42 69.827 1469.42 69.827C1469.18 66.3776 1471.46 65.1202 1479.1 63.7666L1495.12 106.987Z" fill="#E82127"/>
<path d="M1485.76 53.9187C1493.96 52.4082 1503.6 52.0612 1513.95 54.4883C1514.83 51.9849 1514.99 50.9204 1514.99 50.9204C1503.74 48.6832 1493.64 49.0203 1485.15 50.4815C1476.67 52.013 1467.06 55.1515 1457.26 61.0994C1457.26 61.0994 1457.95 62.2559 1459.46 64.0971C1468.35 58.2754 1477.53 55.3058 1485.75 53.9189L1485.76 53.9187Z" fill="#E82127"/>
</g>
<rect x="190.453" y="401.59" width="320" height="128" rx="24" transform="rotate(-10 190.453 401.59)" fill="#F3F6FF"/>
<g clip-path="url(#clip5_2155_7687)">
<path d="M266.089 474.552L257.745 476.023L254.095 455.323L248.411 456.325L247.223 449.585L252.906 448.583L252.061 443.787C251.059 438.104 252.854 433.585 261.175 432.118C262.935 431.807 265.761 431.673 265.761 431.673L266.864 437.931L263.962 438.443C261.005 438.964 260.008 440.063 260.445 442.538L261.251 447.111L268.154 445.894L268.728 452.742L262.439 453.851L266.089 474.552ZM280.301 443.197C280.179 443.219 280.055 443.245 279.932 443.27C272.195 444.634 269.676 451.05 271.126 459.272C272.952 469.629 278.275 472.965 285.021 471.776C288.88 471.095 291.131 469.031 292.14 465.743L292.861 469.834L300.798 468.435L295.959 440.994L288.023 442.394L288.767 446.614C287.03 444.121 284.068 442.566 280.301 443.197ZM283.462 449.325C286.712 448.752 289.06 450.664 289.737 454.501L290.435 458.419C290.891 461.005 289.814 464.315 286.217 464.949C280.688 465.924 279.788 459.956 279.439 457.977C278.265 451.32 281.027 449.755 283.462 449.325ZM301.584 454.151C300.996 450.817 298.911 439.934 313.195 437.415C318.929 436.404 321.643 437.797 321.643 437.797L320.766 444.076C320.766 444.076 318.144 443.187 315.028 443.736C311.038 444.44 308.897 447.191 309.611 451.242L310.128 454.146C310.814 458.038 313.729 460.203 317.813 459.483C320.651 458.983 323.034 457.199 323.034 457.199L325.979 462.676C325.979 462.676 324.112 464.888 318.262 465.919C304.662 468.317 302.373 458.627 301.584 454.151L301.584 454.151ZM367.854 427.767C375.591 426.403 380.208 431.56 381.658 439.782C383.484 450.14 379.623 455.095 372.878 456.284C369.018 456.964 365.88 455.851 363.807 453.106L364.529 457.198L356.692 458.576L349.434 417.415L357.627 415.226L360.852 433.52C361.489 430.108 365.227 428.23 367.854 427.767ZM366.664 434.655C363.414 435.228 361.62 437.87 362.296 441.707L362.979 445.627C363.431 448.214 365.487 450.971 369.418 450.278C374.948 449.303 373.752 443.387 373.403 441.408C372.23 434.752 369.099 434.225 366.664 434.655ZM335.761 433.449C326.986 434.996 323.192 440.575 324.685 449.037L324.962 450.609C326.898 461.592 333.903 463.273 341.659 461.905C349.199 460.576 352.241 457.875 352.241 457.875L349.699 452.561C349.699 452.561 345.984 454.969 341.601 455.741C337.057 456.543 334.9 455.735 333.633 451.477L351.251 448.37L350.461 443.887C348.842 434.708 343.033 432.167 335.761 433.449L335.761 433.449ZM336.959 439.008C339.997 438.472 342.292 439.979 342.942 444.298L332.701 446.103C332.081 441.547 333.916 439.545 336.959 439.008ZM395.775 422.828C386.763 424.417 382.91 430.308 384.507 439.365C386.698 451.792 395.229 452.351 400.822 451.364C409.01 449.921 413.683 444.573 411.933 434.646C410.111 424.313 403.3 421.501 395.775 422.828ZM396.81 429.362C400.772 428.664 402.863 431.338 403.455 434.698L403.965 437.586C404.682 441.656 402.9 444.398 399.55 444.989C396.416 445.541 393.825 443.728 393.081 439.506L392.571 436.617C391.778 432.114 394.079 429.844 396.81 429.362ZM426 417.499C416.988 419.088 413.135 424.978 414.732 434.036C416.924 446.463 425.454 447.021 431.047 446.035C439.235 444.591 443.909 439.243 442.159 429.316C440.337 418.983 433.525 416.172 426 417.499ZM427.035 424.033C430.998 423.334 433.088 426.009 433.681 429.368L434.19 432.257C434.908 436.327 433.126 439.068 429.775 439.659C426.642 440.212 424.051 438.398 423.306 434.176L422.797 431.287C422.003 426.785 424.305 424.514 427.035 424.033ZM447.729 442.524L440.472 401.363L448.689 399.17L453.553 426.758L459.514 412.153L468.326 410.599L462.091 425.737L473.497 437.981L464.66 439.539L453.707 427.629L456.074 441.053L447.729 442.524Z" fill="#1877F2"/>
</g>
<rect x="521.348" y="343.245" width="320" height="128" rx="24" transform="rotate(-10 521.348 343.245)" fill="#F3F6FF"/>
<g clip-path="url(#clip6_2155_7687)">
<path d="M676.22 382.735C677.871 392.093 671.826 400.27 662.915 401.841C654.005 403.412 645.528 397.796 643.878 388.437C642.216 379.013 648.272 370.902 657.183 369.331C666.093 367.76 674.559 373.31 676.22 382.735ZM669.141 383.983C668.11 378.134 663.196 374.875 658.312 375.736C653.428 376.597 649.926 381.341 650.957 387.189C651.978 392.979 656.902 396.297 661.786 395.436C666.67 394.575 670.161 389.765 669.141 383.983Z" fill="#EA4335"/>
<path d="M711.103 376.584C712.753 385.943 706.709 394.119 697.798 395.69C688.888 397.262 680.411 391.645 678.761 382.287C677.1 372.869 683.155 364.751 692.066 363.18C700.976 361.609 709.441 367.159 711.103 376.584ZM704.024 377.832C702.993 371.984 698.079 368.724 693.195 369.585C688.311 370.446 684.809 375.19 685.84 381.038C686.861 386.828 691.785 390.146 696.669 389.285C701.553 388.424 705.044 383.614 704.024 377.832Z" fill="#FBBC05"/>
<path d="M741.842 355.415L746.988 384.599C749.105 396.603 742.948 402.744 734.648 404.208C726.835 405.585 721.204 401.145 718.671 397.148L724.378 393.475C725.942 395.927 729.181 398.575 733.513 397.811C738.826 396.874 741.535 392.988 740.438 386.766L740.026 384.428L739.779 384.472C738.542 386.723 735.793 388.983 731.941 389.662C723.881 391.083 715.248 385.306 713.642 376.196C712.024 367.021 718.15 358.58 726.21 357.159C730.055 356.481 733.411 357.665 735.34 359.297L735.587 359.254L735.121 356.608L741.843 355.423L741.842 355.415ZM738.324 371.844C737.315 366.12 732.79 362.603 727.972 363.453C723.088 364.314 719.734 369.22 720.743 374.944C721.742 380.609 726.561 384.014 731.445 383.153C736.264 382.303 739.323 377.509 738.324 371.844Z" fill="#4285F4"/>
<path d="M749.912 336.355L758.312 383.992L751.408 385.21L743.008 337.573L749.912 336.355Z" fill="#34A853"/>
<path d="M783.467 369.34L789.613 372.065C788.306 375.023 784.836 380.335 777.452 381.637C768.294 383.252 760.196 377.32 758.589 368.203C756.884 358.536 762.62 350.731 770.927 349.266C779.293 347.791 784.568 353.783 786.545 357.175L787.605 358.892L767.642 371.692C769.867 374.662 772.726 375.873 776.324 375.239C779.929 374.603 782.114 372.374 783.467 369.34ZM765.523 366.474L778.865 357.902C777.715 356.012 775.081 355.017 772.276 355.512C768.678 356.146 764.235 360.232 765.523 366.474Z" fill="#EA4335"/>
<path d="M616.99 388.817L615.774 381.921L638.821 377.857C639.258 379.019 639.625 380.421 639.896 381.96C640.809 387.134 640.534 393.779 636.817 399.135C633.234 404.527 628.05 407.98 620.608 409.293C606.813 411.725 593.216 402.44 590.763 388.53C588.31 374.62 597.912 361.244 611.707 358.812C619.338 357.466 625.307 359.527 630.086 362.742L626.118 368.46C622.7 366.206 618.352 364.751 612.916 365.71C602.842 367.486 596.407 377.061 598.198 387.219C599.989 397.377 609.311 404.174 619.385 402.397C625.919 401.245 629.173 397.944 631.133 395.119C632.723 392.829 633.504 389.82 633.334 385.928L616.99 388.817Z" fill="#4285F4"/>
</g>
<rect x="852.242" y="284.899" width="320" height="128" rx="24" transform="rotate(-10 852.242 284.899)" fill="#F3F6FF"/>
<g clip-path="url(#clip7_2155_7687)">
<path fill-rule="evenodd" clip-rule="evenodd" d="M1047.14 332.63C1037.37 342.974 1021.86 350.309 1007.84 352.783C988.164 356.251 969.16 352.031 953.609 342.182C952.387 341.407 953.099 339.932 954.494 340.457C970.45 346.397 989.228 348.353 1007.7 345.096C1020.15 342.9 1033.39 337.884 1045.04 330.266C1046.8 329.115 1048.76 330.908 1047.14 332.63Z" fill="#FF9900"/>
<path fill-rule="evenodd" clip-rule="evenodd" d="M1050.86 326.409C1049.1 324.809 1041.21 327.208 1037.66 328.28C1036.58 328.611 1036.24 327.672 1037.11 326.8C1042.73 321.103 1053.51 320.561 1055.01 321.874C1056.51 323.196 1056.84 334.134 1051.7 340.289C1050.91 341.235 1049.95 340.974 1050.18 339.864C1050.94 336.209 1052.63 328.016 1050.86 326.409Z" fill="#FF9900"/>
<path fill-rule="evenodd" clip-rule="evenodd" d="M1031.97 294.488L1031.18 290.052C1031.07 289.381 1031.49 288.841 1032.1 288.734L1051.78 285.264C1052.41 285.153 1053 285.523 1053.11 286.186L1053.78 289.984C1053.89 290.623 1053.5 291.55 1052.79 293.033L1045.19 309.525C1048.96 308.763 1053.06 308.627 1056.84 309.976C1057.69 310.281 1058.02 310.89 1058.19 311.517L1059.02 316.251C1059.14 316.897 1058.56 317.778 1057.75 317.517C1051.13 315.381 1043.03 316.451 1036.97 321.218C1036.35 321.712 1035.5 321.09 1035.39 320.444L1034.6 315.949C1034.47 315.226 1034.26 313.993 1034.78 312.77L1043.58 293.588L1033.3 295.401C1032.67 295.513 1032.08 295.151 1031.97 294.488ZM965.059 334.826L959.071 335.881C958.491 335.94 957.96 335.587 957.82 335.042L952.352 304.031C952.243 303.411 952.67 302.827 953.31 302.714L958.893 301.73C959.478 301.653 960.021 302.022 960.162 302.575L960.877 306.629L960.986 306.61C961.752 302.435 964.167 300.126 967.855 299.475C971.603 298.815 974.266 300.229 976.641 303.849C977.399 299.676 980.369 297.269 983.898 296.647C986.407 296.204 989.337 296.765 991.426 298.815C993.781 301.09 994.062 304.949 994.647 308.272L998.09 327.845C998.199 328.465 997.774 329.057 997.134 329.17L991.155 330.224C990.55 330.287 989.984 329.888 989.88 329.293L986.981 312.857C986.751 311.548 986.293 308.264 985.788 307.074C984.975 305.07 983.532 304.72 981.797 305.026C980.349 305.281 979.006 306.526 978.667 308.198C978.328 309.87 978.848 312.477 979.158 314.236L982.057 330.672C982.166 331.292 981.741 331.884 981.101 331.997L975.122 333.051C974.508 333.116 973.951 332.715 973.846 332.12L970.94 315.685C970.33 312.226 969.996 307.037 965.744 307.786C961.441 308.545 962.484 313.478 963.116 317.065L966.014 333.5C966.124 334.121 965.699 334.713 965.059 334.826ZM1069.76 281.507C1078.64 279.94 1084.81 286.792 1086.53 296.582C1088.2 306.041 1084.21 314.482 1075.83 315.959C1067.11 317.498 1061 310.635 1059.31 301.041C1057.61 291.387 1061.09 283.035 1069.76 281.507ZM1070.92 287.829C1066.51 288.607 1067.3 294.724 1067.97 298.506C1068.64 302.296 1070.01 310.397 1074.71 309.568C1079.35 308.75 1078.41 302.185 1077.71 298.208C1077.25 295.59 1076.59 292.482 1075.37 290.139C1074.32 288.099 1072.83 287.494 1070.92 287.829ZM1100.93 310.868L1094.97 311.919C1094.36 311.982 1093.8 311.582 1093.69 310.987L1088.22 279.97C1088.17 279.391 1088.58 278.862 1089.19 278.755L1094.74 277.776C1095.27 277.71 1095.76 277.991 1095.96 278.455L1096.8 283.197L1096.91 283.178C1097.84 278.641 1099.83 276.205 1103.96 275.475C1106.65 275.002 1109.44 275.517 1111.6 277.897C1113.6 280.102 1114.34 284.275 1114.87 287.275L1118.31 306.796C1118.34 307.352 1117.92 307.873 1117.33 307.977L1111.32 309.035C1110.77 309.089 1110.24 308.762 1110.09 308.245L1107.12 291.401C1106.52 288.011 1106.03 282.979 1101.9 283.708C1100.44 283.965 1099.28 285.187 1098.88 286.8C1098.37 288.844 1098.59 290.75 1098.96 292.84L1101.9 309.539C1102.01 310.161 1101.57 310.755 1100.93 310.868ZM1018.55 310.121C1018.96 312.475 1019.37 314.428 1018.56 316.726C1017.91 318.594 1016.57 319.906 1014.9 320.202C1012.6 320.607 1010.94 319.077 1010.48 316.468C1009.57 311.318 1013.98 309.577 1018.32 308.812L1018.55 310.121ZM1027.18 323.784C1026.85 324.211 1026.28 324.337 1025.79 324.178C1023.51 322.863 1023.01 322.153 1021.65 320.756C1018.96 324.717 1016.8 326.14 1012.55 326.89C1007.51 327.779 1003.04 325.333 1001.93 319.053C1001.07 314.15 1003.11 310.347 1006.57 308.053C1009.57 306.035 1014.06 304.979 1017.46 303.968L1017.32 303.186C1017.07 301.75 1016.88 300.031 1015.82 298.939C1014.9 297.953 1013.42 297.741 1012.18 297.959C1009.9 298.362 1008.08 299.901 1008.01 302.436C1008.01 302.997 1007.71 303.603 1007.17 303.725L1001.25 304.119C1000.74 304.095 1000.13 303.792 1000.14 303.01C1000.21 295.671 1006.2 292.407 1011.9 291.403C1014.81 290.889 1018.75 291 1021.44 292.821C1024.84 295.052 1025.21 298.764 1025.91 302.75L1027.57 312.166C1028.07 314.996 1029.45 316.032 1030.82 317.368C1031.29 317.845 1031.49 318.485 1031.08 318.979C1030.04 320.223 1028.2 322.518 1027.19 323.8L1027.18 323.784M940.055 323.961C940.47 326.315 940.876 328.268 940.065 330.566C939.413 332.434 938.09 333.745 936.406 334.042C934.107 334.447 932.456 332.916 931.996 330.307C931.088 325.157 935.496 323.416 939.825 322.653L940.055 323.961ZM948.69 337.624C948.357 338.051 947.789 338.178 947.301 338.018C945.02 336.703 944.53 335.992 943.155 334.596C940.467 338.557 938.321 339.978 934.06 340.73C929.024 341.618 924.547 339.174 923.44 332.894C922.575 327.99 924.622 324.185 928.082 321.893C931.077 319.875 935.571 318.82 938.97 317.808L938.833 317.027C938.579 315.59 938.389 313.871 937.336 312.778C936.408 311.794 934.929 311.581 933.699 311.798C931.417 312.2 929.588 313.741 929.522 316.276C929.517 316.838 929.216 317.443 928.681 317.563L922.76 317.959C922.252 317.935 921.643 317.63 921.644 316.85C921.73 309.51 927.711 306.247 933.403 305.243C936.317 304.729 940.261 304.84 942.953 306.661C946.35 308.893 946.718 312.604 947.421 316.59L949.081 326.006C949.58 328.836 950.961 329.872 952.326 331.209C952.809 331.684 953.009 332.324 952.592 332.818C951.552 334.061 949.717 336.357 948.71 337.638L948.69 337.624Z" fill="black"/>
</g>
<rect x="1183.14" y="226.553" width="320" height="128" rx="24" transform="rotate(-10 1183.14 226.553)" fill="#F3F6FF"/>
<g clip-path="url(#clip8_2155_7687)">
<path d="M1345.81 227.71C1296.64 236.38 1259.89 258.455 1263.23 277.418C1266.55 296.264 1308.98 304.498 1357.83 295.884C1406.68 287.27 1443.73 264.97 1440.42 246.175C1437.1 227.379 1394.66 219.096 1345.81 227.71Z" fill="#003478"/>
<path d="M1387.99 262.863C1388.04 263.015 1388.27 263.13 1388.48 263.166C1388.55 263.178 1388.6 263.221 1388.55 263.4C1388.21 264.71 1387.83 265.499 1387.32 266.675C1386.86 267.762 1386.28 268.648 1385.54 269.532C1384.43 270.874 1382.82 272.404 1381.18 271.855C1380.45 271.618 1379.99 270.71 1379.86 269.932C1379.51 267.745 1380.06 265.339 1381.42 262.829C1383.08 259.764 1385.18 257.954 1386.86 258.444C1388.6 258.945 1388.42 260.933 1387.97 262.55C1387.94 262.675 1387.95 262.773 1387.99 262.863ZM1402.15 242.84C1402.22 242.612 1402.08 242.481 1401.82 242.526C1400.49 242.762 1398.73 243.074 1397.34 243.319C1397.01 243.377 1396.85 243.448 1396.75 243.793C1396.41 244.893 1391.85 255.617 1391.02 257.691C1390.87 258.011 1390.62 258.013 1390.54 257.692C1390.23 256.603 1389.07 255.492 1387.49 255.141C1386.28 254.872 1385.17 254.981 1384.06 255.337C1382.05 255.983 1380.42 257.421 1379.03 258.961C1376.93 261.284 1375.27 264.11 1372.88 266.402C1371.58 267.651 1369.71 268.869 1368.13 267.821C1366.7 266.872 1366.38 264.26 1367.9 261.927C1368.06 261.683 1368.33 261.818 1368.32 262.011C1368.31 262.947 1368.68 263.809 1369.46 264.322C1370.41 264.93 1371.6 264.809 1372.51 264.13C1373.59 263.321 1374.08 262.038 1374.05 260.686C1374 258.588 1372.15 257.057 1370.21 257.25C1368.63 257.413 1367.23 258.232 1366 259.721C1365.38 260.471 1365.04 261.003 1364.57 262.036C1364.46 262.29 1364.23 262.354 1364.18 262.018C1363.79 259.39 1362.47 258.104 1360.36 258.428C1358.72 258.675 1357.13 259.895 1355.96 261.249C1354.69 262.743 1353.67 264.603 1352.54 266.382C1352.4 266.602 1352.25 266.619 1352.13 266.262C1351.79 264.536 1351.06 262.933 1350.07 261.879C1349.72 261.513 1349.1 261.411 1348.66 261.777C1348.46 261.943 1347.74 262.453 1347.25 263.026C1347.01 263.316 1346.96 263.683 1347.16 264.106C1348.38 266.561 1348.73 269.534 1348.14 272.201C1347.61 274.643 1346.14 277.019 1344.12 278.092C1342.78 278.802 1341.27 278.836 1340.14 277.71C1338.57 276.154 1338.53 272.977 1339.94 270.085C1341.19 267.537 1343.31 265.683 1345.52 264.342C1345.78 264.182 1345.81 263.988 1345.69 263.759C1345.49 263.381 1345.19 262.873 1345.06 262.639C1344.74 262.083 1344.11 262.094 1343.38 262.308C1341.69 262.818 1340.25 263.698 1338.86 264.812C1335.23 267.731 1333.97 272.362 1333.49 274.806C1333.25 275.98 1333.01 276.729 1332.65 277.42C1332.16 278.349 1331.49 279.234 1330.27 280.802C1330.16 280.945 1330.11 281.213 1330.26 281.427C1330.46 281.716 1331.41 282.679 1331.64 282.74C1331.9 282.817 1332.15 282.601 1332.24 282.501C1333.13 281.614 1334.16 280.276 1334.62 279.41C1334.78 279.112 1335.01 279.184 1335.19 279.56C1336.11 281.499 1337.86 282.905 1340 283.245C1343.91 283.871 1347.41 281.35 1349.73 277.626C1351.2 275.259 1351.63 273.828 1352.18 272.811C1353.1 271.086 1354.86 267.282 1357.27 264.613C1358.16 263.629 1359.26 262.803 1359.95 263.101C1360.49 263.341 1360.79 264.071 1360.26 265.678C1358.35 271.53 1355.25 278.555 1354.75 280.214C1354.66 280.503 1354.82 280.69 1355.09 280.642C1356.58 280.371 1358.06 280.114 1359.42 279.875C1359.64 279.827 1359.72 279.7 1359.81 279.517C1361.38 275.612 1362.85 271.9 1364.45 268.048C1364.54 267.822 1364.68 267.957 1364.7 268.045C1364.89 268.84 1365.27 269.905 1365.86 270.545C1366.94 271.732 1368.22 272.096 1369.53 271.873C1370.58 271.705 1371.08 271.446 1372.13 270.815C1372.99 270.305 1373.64 269.717 1374.13 269.203C1374.42 268.909 1374.55 269.293 1374.55 269.355C1374.54 272.238 1375.75 275.437 1378.69 276.332C1382.22 277.4 1385.37 274.47 1387.05 272.031C1387.22 271.795 1387.44 271.778 1387.53 272.207C1387.72 272.992 1388.23 273.873 1388.99 274.419C1391.01 275.883 1394.35 274.572 1397.34 271.201C1399.26 269.042 1401.15 266.135 1402.79 263.121C1402.85 263.004 1402.88 262.83 1402.7 262.69C1402.32 262.402 1401.78 262.09 1401.41 261.842C1401.25 261.741 1401.04 261.815 1400.93 261.931C1399.14 264.42 1397.62 267.168 1395.16 269.652C1394.34 270.498 1392.92 271.312 1392.08 270.489C1391.75 270.17 1391.69 269.659 1391.83 268.949C1392.28 266.707 1401.68 244.155 1402.15 242.84Z" fill="white"/>
<path d="M1341.53 256.051C1341.63 256.342 1341.76 256.38 1341.89 256.331C1342.52 256.079 1343.15 255.394 1343.46 254.672C1343.75 254.017 1343.78 253.138 1343.34 252.868C1342.94 252.624 1342.39 252.809 1342.04 253.261C1341.34 254.16 1341.28 255.272 1341.53 256.051ZM1313.06 287.975C1308.22 288.86 1303.42 286.546 1302 281.322C1301.2 278.427 1301.55 275.661 1302.79 273.214C1303.9 271.035 1306.05 269.005 1308.04 268.251C1308.69 268.007 1309.61 267.925 1310.06 268.318C1310.77 268.913 1310.74 269.71 1310.21 270.119C1308.78 271.221 1307.13 272.966 1306.54 275.059C1306.05 276.766 1306.23 278.689 1307.71 280.29C1310.19 282.957 1315.62 282.085 1319.81 276.397C1320.85 275.002 1321.76 273.677 1322.66 272.14C1324.42 269.147 1324.99 268.069 1327.2 263.353C1327.22 263.299 1327.23 263.232 1327.21 263.204C1327.17 263.151 1327.13 263.15 1327.04 263.158C1325.08 263.562 1323.47 264.465 1322.03 266.038C1321.62 266.482 1320.92 266.554 1320.53 266.134C1320.1 265.658 1320.22 264.919 1320.7 264.428C1323.05 262.04 1325.92 261.176 1328.82 260.13C1328.82 260.131 1329.03 260.102 1329.16 259.841C1330.1 258.006 1330.77 256.383 1331.79 254.516C1332.82 252.623 1334.26 250.798 1335.36 249.423C1336.89 247.499 1337.96 246.753 1339.03 245.883C1339.31 245.66 1338.93 245.522 1338.83 245.539C1331.99 245.43 1324.82 244.991 1318.69 248.645C1314.45 251.19 1313.11 255.244 1314.5 257.549C1315.5 259.183 1317.8 259.072 1319.71 257.643C1321.31 256.456 1322.68 254.753 1323.5 252.726C1323.97 251.6 1325.45 252.093 1325.03 253.981C1323.92 258.956 1320.9 263.282 1316.45 264.226C1312.67 265.024 1309.7 262.583 1309.09 259.036C1307.87 252.039 1314.64 246.095 1322.5 244C1331.96 241.492 1341.52 242.513 1351.26 242.019C1358.73 241.638 1365.73 240.422 1372.77 237.396C1373.6 237.05 1374.31 237.511 1374.42 238.42C1374.57 239.733 1373.81 241.159 1371.63 242.939C1369.16 244.972 1366.36 245.949 1363.36 246.504C1356.1 247.85 1348.82 246.134 1341.54 245.808C1341.61 246.121 1341.75 246.481 1341.53 246.725C1338.17 250.346 1335.19 253.947 1333.58 258.549C1333.51 258.66 1333.57 258.745 1333.71 258.71C1335.73 258.239 1337.55 257.862 1339.43 257.371C1339.76 257.279 1339.76 257.196 1339.68 256.952C1339.26 255.538 1339.38 253.819 1340.42 252.469C1341.48 251.08 1343.04 250.668 1344.24 251.322C1345.6 252.067 1345.8 253.804 1345.38 255.209C1344.94 256.634 1343.96 257.527 1342.97 258.053C1342.97 258.053 1342.76 258.141 1342.83 258.341C1342.92 258.664 1344.51 259.228 1344.67 259.424C1344.82 259.611 1344.82 259.943 1344.64 260.228C1344.52 260.433 1344.31 260.643 1344.01 260.691C1343.76 260.729 1343.6 260.668 1343.25 260.549C1342.54 260.304 1341.63 259.857 1340.97 259.256C1340.75 259.054 1340.65 259.065 1340.2 259.172C1338.16 259.657 1335 260.542 1332.88 261.205C1332.36 261.363 1332.3 261.48 1332.23 261.687C1329.79 268.171 1327.2 275.157 1323.88 280.113C1320.32 285.429 1316.9 287.265 1313.06 287.975Z" fill="white"/>
<path d="M1346.79 233.284C1301.55 241.261 1267.14 260.554 1269.91 276.25C1272.68 291.947 1311.61 298.31 1356.85 290.333C1402.09 282.356 1436.5 263.062 1433.73 247.365C1430.96 231.669 1392.03 225.307 1346.79 233.284ZM1357.31 292.918C1310.42 301.185 1269.96 293.959 1266.93 276.776C1263.9 259.592 1299.45 238.964 1346.34 230.696C1393.22 222.43 1433.68 229.655 1436.71 246.839C1439.74 264.021 1404.19 284.651 1357.31 292.918Z" fill="white"/>
</g>
<rect x="50.0117" y="572.575" width="320" height="128" rx="24" transform="rotate(-10 50.0117 572.575)" fill="#F3F6FF"/>
<g clip-path="url(#clip9_2155_7687)">
<path d="M175.7 653.652L274.776 636.182L261.693 561.986L162.617 579.456L175.7 653.652Z" fill="#C0311A"/>
<mask id="mask0_2155_7687" style="mask-type:luminance" maskUnits="userSpaceOnUse" x="162" y="561" width="113" height="93">
<path d="M175.699 653.652L274.775 636.182L261.692 561.986L162.616 579.456L175.699 653.652Z" fill="white"/>
</mask>
<g mask="url(#mask0_2155_7687)">
<path d="M224.508 582.021L239.67 579.347L242.171 593.534L227.01 596.207L224.508 582.021ZM234.408 582.311C234.34 582.311 234.271 582.312 234.198 582.314L234.114 582.317C233.995 582.321 233.875 582.33 233.756 582.338C233.672 582.346 233.591 582.354 233.511 582.363C233.364 582.38 233.222 582.401 233.086 582.425C233.023 582.436 232.988 582.444 232.927 582.456C232.814 582.477 232.704 582.502 232.592 582.528C232.532 582.542 232.471 582.56 232.411 582.575C232.323 582.599 232.235 582.625 232.148 582.653L232.078 582.675L231.997 582.7L231.901 582.733C231.858 582.749 231.816 582.763 231.774 582.779C231.716 582.8 231.66 582.823 231.603 582.846C231.275 582.977 230.958 583.135 230.656 583.318C230.512 583.403 230.372 583.496 230.236 583.595C230.127 583.673 230.021 583.754 229.92 583.841C229.824 583.919 229.732 584.001 229.643 584.087C229.591 584.134 229.542 584.182 229.493 584.232C229.452 584.274 229.411 584.317 229.373 584.358C229.29 584.45 229.21 584.541 229.135 584.633C229.068 584.718 229.003 584.804 228.94 584.891C228.887 584.965 228.836 585.04 228.788 585.118C228.738 585.196 228.691 585.276 228.645 585.357C228.598 585.444 228.549 585.535 228.503 585.627C228.47 585.696 228.44 585.765 228.409 585.836C228.388 585.882 228.368 585.931 228.347 585.98C228.233 586.271 228.145 586.571 228.083 586.877C228.004 587.283 227.973 587.696 227.99 588.109C227.996 588.246 228.007 588.382 228.023 588.518C228.043 588.706 228.074 588.893 228.116 589.078C228.136 589.159 228.157 589.24 228.181 589.318L228.196 589.375C228.226 589.468 228.258 589.56 228.292 589.65C228.307 589.685 228.319 589.72 228.333 589.754C228.365 589.83 228.395 589.902 228.43 589.975C228.474 590.067 228.518 590.158 228.566 590.246C228.627 590.355 228.688 590.459 228.752 590.561C228.857 590.721 228.966 590.874 229.079 591.016C229.148 591.098 229.215 591.18 229.285 591.255C229.34 591.316 229.395 591.376 229.452 591.433C229.526 591.507 229.603 591.577 229.676 591.645C229.754 591.716 229.835 591.783 229.912 591.844C230.009 591.923 230.106 591.993 230.198 592.057L230.248 592.091C230.324 592.141 230.407 592.197 230.5 592.25C230.565 592.287 230.629 592.326 230.701 592.365C230.765 592.4 230.836 592.436 230.908 592.471C230.993 592.511 231.084 592.552 231.18 592.593C231.279 592.635 231.386 592.676 231.497 592.713C231.732 592.794 231.973 592.861 232.217 592.913C232.313 592.933 232.413 592.95 232.518 592.966C232.619 592.982 232.722 592.995 232.831 593.007C233.014 593.026 233.204 593.037 233.404 593.04C233.565 593.043 233.731 593.039 233.901 593.03C234.071 593.02 234.243 593.006 234.423 592.984C234.512 592.972 234.599 592.96 234.69 592.947L234.812 592.925C235.131 592.869 235.425 592.806 235.694 592.734L235.746 592.721C235.853 592.692 235.956 592.662 236.056 592.631C236.209 592.585 236.355 592.535 236.49 592.485C236.578 592.454 236.661 592.421 236.742 592.388C236.867 592.338 236.987 592.285 237.099 592.233C237.183 592.195 237.263 592.156 237.339 592.116C237.432 592.07 237.52 592.023 237.605 591.977L237.685 591.932C237.725 591.909 237.779 591.877 237.845 591.838C237.93 591.786 238.033 591.724 238.149 591.649C238.218 591.604 238.293 591.554 238.369 591.501C238.438 591.455 238.507 591.403 238.579 591.351C238.609 591.33 238.638 591.308 238.67 591.285L238.329 589.351C238.311 589.37 238.288 589.388 238.269 589.405L238.148 589.51C238.033 589.61 237.917 589.708 237.798 589.803C237.475 590.06 237.134 590.292 236.776 590.497C236.379 590.724 236.005 590.889 235.672 591.008C235.633 591.022 235.594 591.036 235.555 591.049C235.464 591.08 235.375 591.109 235.289 591.132C235.167 591.168 235.043 591.199 234.919 591.226C234.851 591.242 234.782 591.256 234.714 591.268C234.574 591.292 234.431 591.313 234.286 591.329C234.114 591.345 233.94 591.358 233.759 591.361C233.469 591.363 233.174 591.341 232.881 591.289C232.839 591.283 232.793 591.274 232.753 591.265C232.722 591.259 232.694 591.253 232.666 591.247C232.617 591.236 232.568 591.224 232.52 591.212C232.416 591.185 232.313 591.152 232.213 591.116C232.163 591.098 232.113 591.08 232.062 591.059C232.01 591.038 231.958 591.016 231.908 590.993C231.843 590.963 231.781 590.933 231.718 590.9C231.658 590.867 231.596 590.832 231.543 590.802L231.469 590.756L231.432 590.731L231.41 590.718L231.382 590.697C231.28 590.628 231.184 590.554 231.096 590.48C231.046 590.438 231 590.395 230.954 590.353C230.91 590.312 230.868 590.269 230.828 590.228C230.738 590.13 230.653 590.028 230.573 589.921C230.534 589.869 230.496 589.816 230.463 589.763C230.404 589.672 230.351 589.58 230.305 589.492C230.268 589.423 230.236 589.355 230.207 589.288C230.117 589.096 230.06 588.915 230.017 588.761C230.002 588.701 229.988 588.646 229.976 588.596C229.957 588.518 229.945 588.451 229.936 588.397C229.93 588.362 229.923 588.322 229.916 588.275C229.902 588.163 229.885 588.021 229.882 587.858C229.879 587.758 229.88 587.651 229.885 587.537C229.892 587.462 229.898 587.385 229.908 587.305C229.918 587.233 229.931 587.16 229.945 587.084C229.955 587.031 229.966 586.981 229.98 586.929C229.996 586.858 230.016 586.788 230.039 586.715C230.055 586.661 230.076 586.606 230.096 586.55C230.141 586.429 230.192 586.307 230.257 586.184C230.279 586.139 230.303 586.095 230.329 586.051C230.36 585.994 230.394 585.936 230.433 585.879C230.451 585.851 230.47 585.822 230.49 585.793C230.782 585.376 231.137 585.04 231.52 584.779C231.578 584.738 231.64 584.7 231.702 584.663C231.762 584.625 231.823 584.591 231.886 584.556C231.953 584.52 232.023 584.485 232.091 584.452C232.156 584.421 232.222 584.392 232.288 584.363C232.353 584.336 232.421 584.31 232.486 584.285C232.558 584.259 232.632 584.233 232.704 584.211C232.778 584.188 232.852 584.166 232.923 584.148C233.063 584.111 233.202 584.08 233.338 584.056C233.383 584.049 233.426 584.039 233.472 584.033C233.574 584.018 233.673 584.003 233.77 583.993C233.84 583.985 233.904 583.978 233.969 583.974C234.095 583.963 234.215 583.956 234.328 583.955C234.433 583.951 234.531 583.952 234.627 583.952C234.771 583.957 234.905 583.966 235.024 583.974C235.101 583.98 235.174 583.989 235.238 583.996C235.338 584.007 235.424 584.017 235.49 584.028C235.604 584.047 235.667 584.058 235.667 584.058C235.769 584.075 235.869 584.096 235.968 584.115C236.101 584.143 236.228 584.177 236.35 584.208C236.451 584.232 236.549 584.26 236.64 584.288C236.715 584.309 236.786 584.33 236.852 584.351C236.968 584.387 237.067 584.421 237.148 584.448L237.365 584.52L237.03 582.62C237.03 582.62 236.902 582.593 236.683 582.551C236.586 582.534 236.471 582.512 236.342 582.491C236.269 582.478 236.194 582.466 236.113 582.452C236.049 582.443 235.983 582.432 235.914 582.423C235.837 582.413 235.757 582.401 235.675 582.392C235.617 582.385 235.556 582.377 235.494 582.371L235.44 582.365C235.381 582.36 235.32 582.354 235.259 582.349C235.186 582.342 235.112 582.337 235.037 582.331C234.99 582.328 234.943 582.325 234.893 582.323C234.816 582.32 234.737 582.315 234.657 582.314C234.575 582.311 234.491 582.312 234.408 582.311ZM214.237 591.898L214.729 594.687L216.55 594.366C216.55 594.366 216.586 594.358 216.645 594.346C216.707 594.334 216.793 594.314 216.895 594.286C217.09 594.233 217.344 594.152 217.581 594.022C217.797 593.905 217.999 593.752 218.137 593.552C218.192 593.476 218.236 593.399 218.266 593.323C218.371 593.074 218.366 592.839 218.349 592.709C218.346 592.653 218.339 592.62 218.339 592.62C218.339 592.62 218.336 592.595 218.327 592.552C218.308 592.461 218.28 592.373 218.242 592.288C218.184 592.162 218.094 592.02 217.954 591.9C217.928 591.878 217.9 591.856 217.871 591.834C217.811 591.792 217.747 591.754 217.681 591.722C217.57 591.666 217.444 591.623 217.311 591.593C217.135 591.55 216.944 591.53 216.736 591.529C216.629 591.528 216.517 591.53 216.403 591.539C216.335 591.546 216.263 591.553 216.191 591.562C216.128 591.569 216.061 591.578 215.996 591.59C215.352 591.703 214.237 591.898 214.237 591.898ZM213.49 587.66L213.956 590.303L214.838 590.147C214.838 590.147 214.896 590.137 214.973 590.122C215.035 590.107 215.106 590.092 215.17 590.078C215.35 590.032 215.596 589.963 215.833 589.849C215.881 589.826 215.928 589.802 215.973 589.776C216.158 589.673 216.328 589.538 216.449 589.368C216.546 589.233 216.599 589.092 216.629 588.961C216.664 588.798 216.662 588.65 216.653 588.546C216.643 588.453 216.633 588.394 216.633 588.394C216.633 588.394 216.627 588.35 216.612 588.282C216.586 588.169 216.53 587.985 216.405 587.821C216.341 587.737 216.263 587.664 216.175 587.604C216.058 587.525 215.925 587.472 215.787 587.438C215.519 587.372 215.227 587.378 214.984 587.405C214.881 587.417 214.785 587.432 214.704 587.446L213.49 587.66Z" fill="white"/>
<path d="M207.04 585.101L222.201 582.427L224.703 596.614L209.541 599.287L207.04 585.101ZM211.369 586.388L213.171 596.606L217.038 595.924C217.038 595.924 218.933 595.644 219.793 594.424C220.491 593.433 220.259 592.467 220.259 592.467C220.259 592.467 220.139 591.438 219.217 590.797C218.432 590.249 217.547 590.222 217.547 590.222C217.547 590.222 217.899 589.975 218.144 589.629C218.259 589.465 218.675 588.935 218.486 587.859C218.294 586.774 217.458 586.279 217.458 586.279C217.458 586.279 216.498 585.484 214.704 585.801L211.369 586.388ZM196.769 594.979L197.26 597.767L199.08 597.446C199.08 597.446 199.117 597.438 199.176 597.426C199.238 597.414 199.323 597.395 199.426 597.366C199.622 597.314 199.875 597.232 200.112 597.102C200.328 596.985 200.529 596.832 200.67 596.632C200.724 596.556 200.766 596.479 200.798 596.403C200.902 596.154 200.896 595.92 200.882 595.789C200.876 595.733 200.87 595.701 200.87 595.701L200.858 595.632C200.846 595.579 200.821 595.476 200.773 595.368C200.707 595.219 200.609 595.087 200.486 594.98C200.459 594.956 200.43 594.934 200.4 594.914C200.341 594.872 200.278 594.834 200.214 594.801C200.1 594.746 199.974 594.703 199.844 594.673C199.667 594.63 199.472 594.611 199.266 594.609C199.16 594.608 199.047 594.611 198.934 594.619C198.864 594.626 198.793 594.633 198.722 594.643C198.658 594.649 198.593 594.658 198.529 594.67C197.882 594.784 196.769 594.979 196.769 594.979ZM196.021 590.74L196.487 593.383L197.368 593.228C197.368 593.228 197.427 593.217 197.505 593.202C197.566 593.187 197.637 593.172 197.702 593.158C197.88 593.112 198.127 593.043 198.366 592.929C198.412 592.906 198.459 592.883 198.503 592.856C198.688 592.753 198.859 592.618 198.98 592.448C199.076 592.314 199.131 592.172 199.162 592.041C199.196 591.878 199.192 591.73 199.184 591.627C199.176 591.533 199.164 591.474 199.164 591.474C199.164 591.474 199.159 591.43 199.143 591.362C199.117 591.249 199.059 591.065 198.937 590.902C198.877 590.823 198.802 590.751 198.706 590.685C198.59 590.605 198.456 590.552 198.318 590.518C198.05 590.452 197.758 590.458 197.517 590.485C197.423 590.496 197.329 590.509 197.236 590.526L196.021 590.74Z" fill="white"/>
<path d="M189.571 588.181L204.733 585.508L207.234 599.694L192.073 602.368L189.571 588.181ZM193.899 589.469L195.701 599.687L199.568 599.005C199.568 599.005 201.464 598.724 202.323 597.504C203.022 596.513 202.789 595.548 202.789 595.548C202.789 595.548 202.67 594.519 201.749 593.877C200.962 593.33 200.076 593.303 200.076 593.303C200.076 593.303 200.431 593.055 200.676 592.709C200.789 592.546 201.205 592.015 201.015 590.939C200.824 589.855 199.988 589.359 199.988 589.359C199.988 589.359 199.028 588.565 197.233 588.881L193.899 589.469ZM200.595 618.941L200.239 619.003L194.213 609.352L191.812 620.489L191.456 620.552L184.028 608.651L185.864 608.327L190.928 616.46L192.924 607.082L194.665 606.775L199.767 614.901L201.707 605.534L203.524 605.213L200.595 618.941ZM212.467 615.176C215.332 614.671 217.084 612.232 216.594 609.456C216.102 606.664 213.624 604.989 210.76 605.494C207.913 605.996 206.158 608.417 206.65 611.209C207.139 613.985 209.62 615.678 212.467 615.176ZM210.464 603.818C214.678 603.075 217.862 605.585 218.486 609.122C219.09 612.55 217.05 616.096 212.725 616.859C208.549 617.595 205.366 614.989 204.759 611.543C204.138 608.024 206.325 604.547 210.464 603.818ZM222.465 607.596L223.645 607.388C225.611 607.041 225.996 605.937 225.79 604.878C225.561 603.69 224.721 603.089 222.942 603.403L221.762 603.611L222.465 607.596ZM222.872 601.803C225.457 601.347 227.308 602.422 227.695 604.62C227.954 606.09 227.379 607.325 226.108 608.106C227.403 608.664 228.321 609.713 229.575 611.124C230.272 611.903 230.666 612.275 231.761 613.33L229.568 613.717L227.423 611.407C225.279 609.097 224.459 608.934 223.521 609.1L222.754 609.235L223.726 614.747L221.891 615.07L219.652 602.371L222.872 601.803ZM234.692 611.123L240.46 610.106L240.749 611.745L233.145 613.086L230.905 600.385L232.742 600.061L234.692 611.123ZM243.905 609.499L246.827 608.984C250.983 608.251 251.384 604.936 251.108 603.371C250.658 600.82 248.648 598.947 245.071 599.577L242.244 600.076L243.905 609.499ZM240.119 598.761L245.082 597.885C249.802 597.053 252.471 600.039 252.999 603.037C253.574 606.296 251.554 609.84 247.341 610.583L242.358 611.462L240.119 598.761ZM195.82 626.081C194.553 625.249 193.452 625.136 192.591 625.288C191.411 625.496 190.677 626.258 190.834 627.153C191.265 629.592 196.782 628.581 197.494 632.622C197.846 634.615 196.586 636.335 194.525 636.698C193.14 636.942 191.95 636.767 190.741 636.155L190.334 633.846C191.481 634.872 192.775 635.317 194.03 635.095C195.453 634.844 195.951 633.835 195.827 633.128C195.364 630.502 189.786 631.178 189.172 627.695C188.808 625.628 190.11 624.035 192.451 623.622C193.424 623.451 194.452 623.577 195.455 624.014L195.82 626.081ZM205.373 623.206L199.961 624.16L200.638 627.997L205.862 627.076L206.15 628.714L200.926 629.635L201.623 633.583L207.203 632.599L207.492 634.239L200.075 635.546L197.836 622.845L205.084 621.567L205.373 623.206ZM210.051 626.413L211.232 626.205C213.198 625.859 213.582 624.755 213.376 623.697C213.148 622.507 212.307 621.906 210.529 622.22L209.349 622.428L210.051 626.413ZM210.459 620.62C213.043 620.164 214.893 621.24 215.28 623.437C215.54 624.908 214.966 626.143 213.694 626.923C214.99 627.483 215.908 628.53 217.162 629.941C217.858 630.72 218.253 631.093 219.346 632.148L217.155 632.534L215.009 630.224C212.865 627.914 212.044 627.752 211.108 627.917L210.34 628.052L211.312 633.564L209.477 633.888L207.238 621.188L210.459 620.62ZM223.77 631.483L223.394 631.55L215.612 619.711L217.446 619.388L222.859 627.631L225.106 618.037L226.923 617.717L223.77 631.483ZM232.42 629.842L230.586 630.166L228.346 617.465L230.181 617.141L232.42 629.842ZM244.388 617.556C242.655 616.921 241.234 616.749 239.754 617.01C236.833 617.525 235.026 619.974 235.518 622.768C236.021 625.618 238.466 627.221 241.536 626.68C242.979 626.425 244.464 625.645 245.741 624.46L246.093 626.454C244.953 627.327 243.668 628.032 241.664 628.385C236.87 629.231 234.126 625.932 233.656 623.269C232.974 619.396 235.414 616.047 239.478 615.331C240.788 615.1 242.173 615.181 244.044 615.6L244.388 617.556ZM253.804 614.666L248.392 615.621L249.069 619.458L254.293 618.537L254.581 620.174L249.357 621.095L250.054 625.044L255.634 624.06L255.923 625.699L248.506 627.007L246.267 614.305L253.515 613.027L253.804 614.666Z" fill="white"/>
</g>
</g>
<rect x="380.906" y="514.229" width="320" height="128" rx="24" transform="rotate(-10 380.906 514.229)" fill="#F3F6FF"/>
<g clip-path="url(#clip10_2155_7687)">
<path d="M509.612 540.958C508.409 538.398 505.898 536.655 503.061 536.409C497.873 535.938 478.07 539.43 478.07 539.43C478.07 539.43 458.267 542.922 453.544 545.087C451.014 546.28 449.208 548.837 448.953 551.654C448.516 556.794 450.312 566.979 450.312 566.979C450.312 566.979 452.116 577.214 454.276 581.844C455.48 584.404 457.99 586.146 460.828 586.392C466.067 586.854 485.818 583.372 485.818 583.372C485.818 583.372 505.621 579.88 510.344 577.715C512.926 576.513 514.689 574.017 514.945 571.2C515.382 566.059 513.586 555.875 513.586 555.875C513.586 555.875 511.833 545.63 509.612 540.958Z" fill="#FF0000"/>
<path d="M473.98 553.104L477.298 571.921L492.107 559.609L473.98 553.104Z" fill="white"/>
<path d="M545.372 568.82C543.976 568.213 542.862 567.077 542.022 565.36C541.191 563.694 540.511 561.362 540 558.467L539.298 554.486C538.779 551.54 538.672 549.106 538.926 547.196C539.233 545.276 539.943 543.819 541.048 542.771C542.205 541.714 543.799 541.006 545.884 540.639C547.916 540.281 549.657 540.4 551.053 541.007C552.45 541.613 553.573 542.801 554.456 544.458C555.339 546.114 556.071 548.437 556.6 551.436L557.302 555.416C557.821 558.363 557.971 560.735 557.717 562.645C557.454 564.504 556.805 566.005 555.7 567.052C554.595 568.1 552.948 568.817 550.811 569.193C548.614 569.528 546.769 569.427 545.372 568.82ZM551.642 563.237C551.852 562.294 551.744 560.767 551.388 558.751L549.875 550.169C549.529 548.205 549.117 546.785 548.588 545.919C548.059 545.053 547.413 544.74 546.527 544.896C545.693 545.043 545.15 545.619 544.992 546.553C544.792 547.548 544.89 549.023 545.237 550.987L546.75 559.569C547.106 561.585 547.526 563.056 548.046 563.871C548.514 564.695 549.221 565.05 550.107 564.893C550.941 564.746 551.441 564.232 551.642 563.237Z" fill="#282828"/>
<path d="M639.651 540.95L639.897 542.345C640.207 544.103 640.496 545.438 640.755 546.298C641.014 547.159 641.341 547.794 641.77 548.092C642.156 548.45 642.713 548.565 643.443 548.436C644.381 548.271 644.942 547.799 645.179 547.011C645.417 546.223 645.363 545.006 645.115 543.291L650.537 542.655C650.635 542.904 650.689 543.214 650.762 543.628C651.209 546.161 650.869 548.193 649.68 549.682C648.492 551.171 646.621 552.14 644.068 552.59C640.993 553.133 638.683 552.527 637.095 550.835C635.507 549.143 634.362 546.306 633.651 542.274L632.804 537.466C632.074 533.331 632.171 530.222 633.137 528.079C634.102 525.937 636.127 524.621 639.201 524.078C641.338 523.702 643.079 523.821 644.362 524.394C645.645 524.968 646.646 526.071 647.397 527.59C648.158 529.162 648.767 531.4 649.278 534.295L650.107 538.999L639.633 540.846L639.651 540.95ZM638.391 529.232C638.151 529.701 638.052 530.358 638.103 531.255C638.153 532.152 638.338 533.505 638.657 535.315L639.004 537.279L643.59 536.471L643.243 534.506C642.933 532.748 642.644 531.414 642.376 530.501C642.108 529.589 641.738 529.015 641.361 528.708C640.985 528.401 640.427 528.286 639.802 528.397C639.063 528.474 638.63 528.763 638.391 529.232Z" fill="#282828"/>
<path d="M528.14 560.079L516.559 535.842L522.76 534.749L527.294 545.836C528.421 548.569 529.318 550.916 529.987 552.877L530.143 552.849C530.096 551.365 530.146 548.904 530.274 545.364L530.838 533.325L537.039 532.231L534.341 558.985L536.493 571.185L530.343 572.27L528.192 560.07L528.14 560.079Z" fill="#282828"/>
<path d="M574.687 536.093L579.545 563.647L574.647 564.511L573.533 561.243L573.377 561.27C572.52 564.033 570.716 565.684 568.058 566.152C566.234 566.474 564.77 566.093 563.674 565.06C562.579 564.027 561.834 562.239 561.378 559.655L557.75 539.08L564.004 537.977L567.568 558.19C567.786 559.431 568.098 560.282 568.449 560.753C568.801 561.224 569.316 561.4 569.941 561.29C570.462 561.198 570.956 560.951 571.413 560.497C571.88 560.095 572.172 559.617 572.289 559.063L568.433 537.196L574.687 536.093Z" fill="#282828"/>
<path d="M606.741 530.441L611.6 557.995L606.701 558.859L605.588 555.591L605.431 555.618C604.575 558.381 602.771 560.032 600.113 560.5C598.289 560.822 596.825 560.441 595.729 559.408C594.633 558.375 593.888 556.588 593.433 554.003L589.805 533.428L596.058 532.325L599.622 552.538C599.841 553.779 600.152 554.63 600.504 555.101C600.856 555.572 601.37 555.748 601.996 555.638C602.517 555.546 603.011 555.299 603.468 554.845C603.935 554.443 604.226 553.965 604.344 553.411L600.488 531.544L606.741 530.441Z" fill="#282828"/>
<path d="M590.767 527.928L584.566 529.022L590.327 561.694L584.229 562.769L578.468 530.097L572.267 531.19L571.383 526.176L589.883 522.914L590.767 527.928Z" fill="#282828"/>
<path d="M628.203 531.188C627.528 529.494 626.684 528.364 625.713 527.736C624.743 527.107 623.471 526.905 622.012 527.162C620.866 527.364 619.826 527.868 618.954 528.714C618.073 529.509 617.447 530.526 617.108 531.652L617.056 531.661L614.494 517.134L608.449 518.2L615.34 557.282L620.5 556.373L620.669 553.678L620.826 553.65C621.459 554.498 622.316 555.093 623.406 555.487C624.488 555.829 625.585 555.956 626.783 555.744C628.92 555.368 630.258 554.119 630.911 552.032C631.564 549.944 631.547 546.802 630.827 542.718L630.061 538.376C629.453 535.232 628.868 532.829 628.203 531.188ZM624.448 543.417C624.804 545.433 624.973 547.002 625.017 548.167C625.061 549.332 624.895 550.214 624.612 550.744C624.277 551.282 623.801 551.633 623.176 551.743C622.655 551.835 622.168 551.814 621.705 551.629C621.243 551.444 620.814 551.147 620.471 550.727L617.719 535.115C617.799 534.355 618.055 533.67 618.485 533.061C618.924 532.504 619.452 532.145 620.025 532.043C620.65 531.933 621.217 532.1 621.612 532.51C622.068 532.963 622.422 533.753 622.779 534.863C623.145 536.024 623.489 537.669 623.862 539.789L624.5 543.407L624.448 543.417Z" fill="#282828"/>
</g>
<rect x="711.801" y="455.884" width="320" height="128" rx="24" transform="rotate(-10 711.801 455.884)" fill="#F3F6FF"/>
<g clip-path="url(#clip11_2155_7687)">
<path d="M920.903 483.491C924.843 505.835 909.876 527.123 887.522 531.064C865.134 535.012 843.817 520.087 839.883 497.777C835.943 475.433 850.91 454.145 873.264 450.204C895.618 446.262 916.963 461.147 920.903 483.491Z" fill="white"/>
<path d="M880.409 466.96C880.056 466.952 878.301 466.981 876.288 467.336C874.274 467.691 872.616 468.264 872.287 468.393C872.088 468.463 871.984 468.27 872.102 468.144C872.221 468.018 875.735 464.202 875.735 464.202C875.735 464.202 880.343 466.586 880.498 466.664C880.652 466.742 880.62 466.958 880.409 466.96ZM876.91 488.228C876.91 488.228 876.718 488.332 876.685 488.548C877.653 489.045 878.497 490.442 880.272 490.129C882.046 489.816 882.362 488.215 883.101 487.417C882.997 487.225 882.78 487.193 882.78 487.193C882.78 487.193 881.702 487.664 879.893 487.983C878.085 488.302 876.91 488.228 876.91 488.228ZM879.407 485.224C878.929 485.308 878.763 485.162 878.455 485.216C878.148 485.27 877.548 485.657 877.447 485.885C877.465 485.988 877.552 486.078 877.638 486.168C878.373 486.144 878.786 486.492 879.605 486.348C880.424 486.203 880.693 485.735 881.392 485.506C881.476 485.386 881.493 485.278 881.475 485.175C881.296 484.961 880.64 484.831 880.298 484.891C879.985 484.911 879.919 485.134 879.407 485.224ZM921.228 485.717C921.328 486.682 921.434 487.682 921.494 488.62C917.053 490.175 914.7 486.411 910.02 487.412C910.467 488.351 910.886 489.331 911.237 490.323C915.128 489.637 917.3 492.977 921.538 491.667C921.492 492.799 921.411 493.937 921.296 495.082C917.943 496.024 916.154 492.863 912.207 493.629C912.343 494.202 912.44 494.747 912.542 495.326C912.596 495.632 912.656 495.973 912.676 496.285C916.048 495.656 917.687 498.563 920.871 497.861C920.654 499.023 920.396 500.157 920.105 501.297C917.76 501.57 916.458 498.779 913.019 499.632C913.049 500.399 913.045 501.172 913.006 501.952C916.008 501.212 917.148 503.89 919.369 503.71C919.003 504.828 918.563 505.924 918.117 506.986C916.7 506.533 915.207 504.654 912.76 504.945C912.861 504.12 912.961 503.294 912.994 502.481C910.81 502.866 908.202 502.448 905.79 500.941C905.794 496.972 899.137 494.142 898.639 491.315C898.104 488.284 899.339 486.31 898.613 482.189C898.072 479.123 895.988 476.084 893.373 474.227C892.852 473.862 892.348 473.6 891.776 473.35C894.274 475.543 896.407 478.258 897.025 481.766C897.71 485.649 896.261 488.012 896.892 491.588C897.523 495.164 903.325 497.337 903.974 501.016C904.232 502.48 904 503.961 902.991 507.019C905.76 508.954 909.054 509.673 911.033 509.324C911.682 509.209 911.987 508.945 912.142 508.426C912.269 507.947 912.361 507.474 912.454 507.001C914.582 506.696 915.914 508.463 917.212 509.042C916.714 510.008 916.182 510.98 915.609 511.923C914.668 511.176 913.352 509.898 911.71 509.766C911.533 510.359 911.316 510.924 911.105 511.524C912.502 511.664 913.657 512.829 914.53 513.589C913.918 514.504 913.231 515.398 912.544 516.292C911.894 515.599 910.894 514.721 909.905 514.299L909.115 515.808C909.99 516.18 910.807 517.02 911.383 517.691C910.565 518.643 909.702 519.532 908.798 520.394C907.559 516.363 901.47 514.557 902.131 509.524C901.769 510.465 901.375 511.624 901.597 512.884C902.204 516.324 906.376 518.433 907.25 521.791C906.577 522.366 905.87 522.947 905.123 523.501C904.32 519.744 899.703 516.309 899.162 513.243C898.555 509.803 902.482 505.528 901.761 501.441C901.04 497.354 895.32 495.447 894.69 491.871C894.059 488.295 895.917 485.86 895.106 481.262C894.512 477.889 892.313 474.8 889.472 473.054C888.962 472.757 888.498 472.523 887.904 472.347C890.717 474.73 892.527 477.01 893.206 480.859C893.968 485.185 891.829 488.021 892.574 492.244C893.319 496.468 898.852 497.915 899.543 501.832C900.234 505.749 896.044 509.93 896.759 513.983C897.408 517.661 902.254 520.6 903.091 524.948C902.242 525.519 901.386 526.056 900.485 526.531C900.256 522.041 894.707 518.313 894.071 514.703C893.38 510.786 897.728 506.507 896.983 502.284C896.239 498.06 890.873 496.969 890.105 492.609C889.336 488.249 892.015 485.283 891.168 480.481C890.508 476.734 888.07 473.687 884.974 472.091C884.899 472.069 884.853 472.007 884.779 471.985C884.504 471.822 884.307 472.103 884.554 472.305C886.885 474.353 888.336 476.59 888.966 480.167C889.741 484.561 886.822 488.763 887.573 493.02C888.462 498.061 893.492 498.65 894.219 502.771C894.946 506.892 890.409 511.099 891.184 515.493C891.898 519.546 897.543 523.222 897.513 528.038C896.599 528.445 895.652 528.858 894.692 529.203C894.587 523.216 889.098 519.829 888.425 516.014C887.699 511.893 892.334 507.247 891.625 503.228C890.953 499.413 886.948 498.855 885.745 495.028C885.581 494.496 885.071 494.199 884.509 494.404C883.748 494.678 882.849 495.364 881.313 495.634C879.743 495.911 878.697 495.569 877.888 495.571C877.29 495.571 876.919 496.058 876.94 496.581C877.119 500.588 873.547 502.482 874.22 506.297C874.935 510.351 880.873 513.096 881.6 517.218C882.272 521.033 878.267 526.059 880.222 531.755C879.202 531.759 878.17 531.695 877.173 531.625C875.525 527.069 879.544 521.724 878.829 517.671C878.055 513.277 872.353 510.876 871.626 506.755C870.899 502.633 875.425 500.36 874.536 495.319C873.785 491.062 869.606 488.111 868.831 483.717C868.2 480.141 868.798 477.542 870.288 474.821C870.417 474.552 870.176 474.384 869.967 474.596C869.905 474.642 869.883 474.717 869.821 474.763C867.491 477.316 866.208 481.019 866.869 484.765C867.716 489.568 871.248 491.439 872.017 495.799C872.786 500.158 868.117 503.019 868.862 507.242C869.606 511.466 875.156 513.999 875.846 517.916C876.483 521.527 872.538 526.893 873.865 531.225C872.849 531.053 871.868 530.875 870.874 530.628C870.174 526.257 873.723 521.838 873.074 518.159C872.359 514.106 866.999 511.644 866.302 507.693C865.605 503.742 870.316 500.524 869.572 496.3C868.827 492.076 865.847 490.143 865.084 485.818C864.405 481.969 865.326 479.208 867.154 476.005C866.69 476.368 866.301 476.753 865.923 477.206C863.85 479.819 862.847 483.508 863.436 486.846C864.246 491.444 866.825 493.097 867.456 496.673C868.086 500.249 863.363 503.997 864.084 508.085C864.805 512.172 869.95 514.812 870.563 518.286C871.109 521.385 867.945 526.193 868.47 529.964C867.613 529.693 866.756 529.423 865.886 529.085C865.587 525.59 868.792 522.215 868.186 518.775C867.964 517.515 867.197 516.561 866.535 515.8C868.878 520.304 863.779 524.118 863.988 528.295C862.844 527.795 861.728 527.254 860.634 526.639C860.946 525.812 861.46 524.737 862.121 524.094C861.702 523.712 861.254 523.369 860.863 522.946C860.038 523.654 859.433 524.814 859.065 525.722C858.12 525.151 857.163 524.512 856.274 523.861C856.834 522.849 857.515 521.324 858.786 520.749C858.389 520.292 857.986 519.801 857.617 519.304C856.119 519.99 855.319 521.641 854.69 522.665C853.83 521.974 853.003 521.277 852.198 520.506C853.255 519.512 853.874 517.436 856.006 516.954C856.255 517.367 856.538 517.774 856.786 518.186C857.115 518.655 857.487 518.765 858.135 518.651C860.114 518.302 862.958 516.466 864.904 513.735C862.876 511.213 862.186 509.894 861.928 508.43C861.279 504.751 865.988 500.725 865.358 497.148C864.727 493.572 862.558 491.847 861.873 487.964C861.255 484.456 862.296 481.182 863.927 478.26C863.47 478.657 863.092 479.11 862.726 479.631C860.87 482.276 859.991 485.873 860.526 488.904C861.253 493.026 863.083 494.424 863.623 497.489C864.122 500.316 858.834 505.252 860.195 508.981C858.45 511.255 856.102 512.512 853.918 512.897C854.261 513.645 854.604 514.392 854.981 515.133C852.548 515.703 851.788 517.979 850.645 518.883C849.829 518.044 849.074 517.158 848.348 516.233C850.49 515.609 850.646 512.702 853.726 512.404C853.423 511.685 853.154 510.96 852.92 510.229C849.363 510.61 849.1 513.712 846.832 514.217C846.168 513.246 845.538 512.268 844.936 511.25C848.168 510.821 848.714 507.529 852.064 506.973L851.896 506.019C851.794 505.44 851.732 504.889 851.63 504.31C847.653 504.906 847.059 508.523 843.586 508.784C843.093 507.782 842.628 506.74 842.191 505.658C846.587 505.445 847.514 501.524 851.411 500.872C851.401 499.82 851.46 498.756 851.559 497.72C846.813 498.346 845.896 502.722 841.19 502.779C840.886 501.85 840.649 500.908 840.413 499.966C845.839 499.607 847.084 494.892 852.026 494.582C852.265 493.346 852.613 492.126 853.035 490.927C846.774 490.943 845.588 496.385 839.784 496.6C836.418 474.717 851.254 454.085 873.233 450.209C895.245 446.328 916.21 460.648 920.674 482.373C915.147 484.155 912.17 479.447 906.281 481.574C907.088 482.556 907.798 483.589 908.48 484.663C913.224 483.23 915.978 487.274 921.228 485.717ZM860.356 478.96C857.171 478.258 853.607 479.202 850.85 481.725C849.868 478.948 847.847 476.67 845.359 475.529C845.015 475.379 844.744 475.637 844.804 475.978C846.351 481.956 843.727 487.828 840.175 493.23C844.92 493.798 847.722 487.334 853.878 488.321C855.481 484.842 857.663 481.648 860.356 478.96ZM877.119 472.247C873.365 472.909 870.563 475.58 870.23 478.483C870.198 478.7 870.325 478.818 870.545 478.674C871.174 478.247 871.901 477.978 872.754 477.828C874.29 477.557 875.757 477.895 876.71 478.71C877.256 479.808 877.59 481.505 877.349 482.531C876.71 482.503 876.387 482.069 875.773 482.177C875.159 482.285 874.759 482.812 873.701 482.999C872.643 483.185 872.451 482.693 871.768 482.813C870.949 482.957 870.957 483.799 871.125 484.753C871.863 488.942 876.735 494.018 880.83 493.296C884.926 492.574 887.767 486.138 887.028 481.948C886.86 480.995 886.517 480.247 885.68 480.29C885.325 480.668 884.963 481.013 884.008 481.182C882.95 481.368 882.599 480.973 881.984 481.082C881.233 481.214 881.578 482.769 880.709 483.028C879.882 481.733 879.524 479.9 879.719 478.215C880.33 477.089 881.599 476.303 883.135 476.032C883.954 475.888 884.763 475.886 885.5 476.072C885.756 476.132 885.835 475.978 885.731 475.785C884.419 473.137 880.873 471.585 877.119 472.247ZM884.182 477.182C883.261 477.345 882.285 477.798 881.735 478.667C881.702 478.884 881.756 479.19 881.889 479.343C883.431 478.509 884.858 478.222 885.713 478.879C886.028 478.472 886.077 478.148 886.017 477.807C885.921 477.262 885.274 476.99 884.182 477.182ZM871.345 481.412C871.992 480.491 873.67 480.23 875.485 480.542C875.403 479.679 873.699 478.996 872.163 479.266C871.037 479.465 870.557 479.936 870.653 480.481C870.753 480.85 870.91 481.138 871.345 481.412ZM894.784 462.67C891.851 463.398 889.437 464.877 887.656 466.947C888.099 464.27 888.841 461.891 889.902 459.527C886.185 460.604 883.286 462.52 881.386 465.313L878.742 460.898L882.11 456.651L876.686 457.221L873.659 452.628L872.386 457.98L867.094 459.299L871.712 462.137L870.738 467.191C868.003 465.25 864.617 464.407 860.756 464.666C862.562 466.525 864.079 468.54 865.404 470.87C863.022 469.534 860.248 468.97 857.243 469.289C859.42 471.258 861.423 473.434 863.079 475.846C863.27 476.128 863.561 476.182 863.838 475.958C867.545 473.232 871.914 471.268 876.794 470.407C881.641 469.553 886.412 469.87 890.868 471.192C891.205 471.308 891.46 471.158 891.542 470.827C892.24 468 893.412 465.265 894.784 462.67ZM904.421 479.408C909.903 476.37 914.74 481.452 919.011 479.329C913.826 475.467 909.352 470.848 908.76 464.701C908.734 464.354 908.357 464.21 908.12 464.462C906.172 466.386 905.053 469.218 905.079 472.163C901.659 470.729 897.994 471.094 895.201 472.816C898.651 474.42 901.759 476.682 904.421 479.408Z" fill="#00643C"/>
<path d="M910.865 523.963L909.432 524.216L909.336 523.671L912.851 523.051L912.947 523.596L911.48 523.855L912.164 527.738L911.55 527.846L910.865 523.963Z" fill="#00643C"/>
<path d="M917.119 522.298L918.075 522.13L918.856 526.558L918.241 526.666L917.587 522.953L917.553 522.959L916.74 526.931L916.33 527.003L914.174 523.555L914.829 527.268L914.214 527.376L913.434 522.948L914.423 522.774L916.355 525.945L916.389 525.939L917.119 522.298Z" fill="#00643C"/>
</g>
<rect x="1042.7" y="397.538" width="320" height="128" rx="24" transform="rotate(-10 1042.7 397.538)" fill="#F3F6FF"/>
<g clip-path="url(#clip12_2155_7687)">
<path d="M1240.35 443.575C1239.77 446.047 1238.98 448.368 1237.97 450.551C1236.6 453.527 1235.42 455.628 1234.44 456.852C1232.94 458.842 1231.16 460.039 1229.1 460.451C1227.62 460.713 1225.76 460.601 1223.53 460.103C1221.29 459.61 1219.3 459.522 1217.55 459.831C1215.71 460.155 1213.81 460.929 1211.85 462.162C1209.89 463.399 1208.27 464.15 1206.98 464.424C1205.01 464.859 1202.89 464.325 1200.59 462.82C1199.14 461.933 1197.23 460.31 1194.87 457.949C1192.35 455.43 1190.1 452.389 1188.13 448.817C1186.01 444.958 1184.61 441.105 1183.93 437.256C1183.15 432.847 1183.42 428.878 1184.75 425.359C1185.78 422.538 1187.4 420.171 1189.6 418.253C1191.81 416.336 1194.35 415.11 1197.21 414.555C1198.78 414.278 1200.93 414.406 1203.66 414.921C1206.39 415.441 1208.11 415.643 1208.83 415.516C1209.37 415.422 1211.09 414.525 1213.98 412.834C1216.71 411.256 1219.1 410.381 1221.15 410.199C1226.7 409.681 1231.19 411.138 1234.62 414.587C1230.25 418.449 1228.57 423.077 1229.57 428.458C1230.36 432.648 1232.48 435.876 1235.93 438.128C1237.49 439.179 1239.17 439.91 1240.96 440.322C1240.78 441.446 1240.58 442.529 1240.35 443.575ZM1218.99 395.833C1219.57 399.123 1218.92 402.405 1217.06 405.666C1214.79 409.55 1211.68 412.113 1207.88 412.466C1207.75 412.062 1207.66 411.65 1207.58 411.233C1207.02 408.074 1207.79 404.454 1209.71 401.265C1210.67 399.653 1212 398.219 1213.7 396.963C1215.39 395.721 1217.05 394.906 1218.69 394.529C1218.82 394.96 1218.91 395.396 1218.99 395.833Z" fill="black"/>
</g>
<rect x="1373.59" y="339.192" width="320" height="128" rx="24" transform="rotate(-10 1373.59 339.192)" fill="#F3F6FF"/>
<g clip-path="url(#clip13_2155_7687)">
<path d="M1453.32 396.541C1453.71 398.785 1454.51 400.421 1455.33 401.351C1456.41 402.568 1457.77 402.925 1459.04 402.7C1460.69 402.41 1462.12 401.734 1464.32 397.185C1466.07 393.54 1468.01 388.515 1469.35 385.343L1471.63 379.969C1473.2 376.236 1475.06 372.07 1477.49 369.038C1479.48 366.563 1481.81 364.972 1484.36 364.522C1488.65 363.766 1493.17 365.542 1497.12 369.672C1501.44 374.196 1504.23 380.36 1505.41 387.023C1506.11 390.984 1505.84 394.031 1504.93 396.563C1504.04 399.012 1501.95 401.673 1497.76 402.411L1496.64 396.071C1500.23 395.439 1500.54 391.97 1499.87 388.181C1498.92 382.781 1496.61 377.009 1493.1 373.214C1490.6 370.522 1487.74 369.113 1484.95 369.605C1481.93 370.138 1479.9 372.855 1477.89 377.418C1476.82 379.843 1475.8 382.748 1474.65 386.025L1473.39 389.63C1470.85 396.878 1470.18 398.546 1468.76 401.351C1466.29 406.264 1463.81 408.398 1460.16 409.04C1455.84 409.803 1452.77 408.403 1450.58 405.864C1448.79 403.797 1447.57 400.883 1446.96 397.427L1453.32 396.541Z" fill="#0081FB"/>
<path d="M1448.79 378.655C1450.89 373.658 1454.52 369.784 1459.31 368.939C1462.09 368.45 1464.99 368.789 1468.29 370.646C1471.89 372.676 1476 376.341 1481.43 382.618L1483.38 384.872C1488.08 390.306 1490.69 393.068 1492.16 394.328C1494.04 395.947 1495.23 396.319 1496.64 396.07C1500.23 395.438 1500.54 391.969 1499.87 388.18L1505.41 387.022C1506.11 390.983 1505.85 394.03 1504.93 396.563C1504.05 399.012 1501.95 401.672 1497.76 402.41C1495.16 402.869 1492.75 402.707 1489.78 400.739C1487.49 399.229 1484.62 396.336 1482.33 393.683L1475.54 385.803C1472.13 381.848 1469.13 378.979 1467.47 377.733C1465.69 376.394 1463.42 374.797 1460.33 375.34C1457.84 375.78 1456.03 377.913 1454.73 380.917L1448.79 378.655Z" fill="url(#paint0_linear_2155_7687)"/>
<path d="M1460.33 375.341C1457.84 375.78 1456.03 377.914 1454.73 380.918C1452.9 385.164 1452.36 391.1 1453.32 396.541C1453.71 398.785 1454.51 400.421 1455.33 401.351L1450.58 405.864C1448.79 403.797 1447.57 400.883 1446.96 397.427C1445.86 391.142 1446.42 384.289 1448.79 378.655C1450.89 373.659 1454.52 369.785 1459.31 368.94L1460.33 375.341Z" fill="url(#paint1_linear_2155_7687)"/>
<path d="M1513.42 360.67L1520.73 359.382L1537.13 379.781L1545.57 355.002L1552.71 353.742L1559.26 390.858L1553.3 391.909L1548.28 363.463L1540.86 385.082L1535.27 386.068L1520.91 368.29L1525.93 396.736L1519.97 397.787L1513.42 360.67ZM1573.83 364.289C1569.55 365.042 1567.55 368.729 1567.64 372.842L1582.14 370.284C1581.12 366.213 1578.2 363.517 1573.83 364.289ZM1562.13 376.165C1560.65 367.74 1564.98 360.653 1573.04 359.232C1580.97 357.835 1586.77 363.054 1588.35 372.006L1588.64 373.651L1568.41 377.218C1569.9 381.447 1573.29 383.875 1577.92 383.057C1581.62 382.405 1583.73 380.863 1585.56 378.402L1589.41 381.742C1586.92 385.025 1583.4 387.284 1578.6 388.131C1569.88 389.669 1563.55 384.191 1562.13 376.165ZM1593.91 361.295L1588.42 362.263L1587.56 357.357L1593.04 356.39L1591.61 348.278L1597.36 347.264L1598.79 355.376L1607.13 353.907L1607.99 358.812L1599.66 360.282L1601.85 372.714C1602.6 376.959 1604.21 378.23 1607.53 377.645C1609.05 377.378 1609.89 377.094 1611.14 376.653L1611.99 381.505C1610.48 382.241 1608.99 382.718 1607.34 383.009C1601.13 384.103 1597.43 381.241 1596.22 374.417L1593.91 361.295ZM1633.04 359.314C1631.37 356.587 1628.41 354.882 1624.63 355.55C1619.71 356.417 1617.18 360.482 1618.19 366.199C1619.17 371.772 1622.72 374.94 1627.65 374.07C1631.53 373.386 1633.9 370.629 1634.51 367.612L1633.04 359.314ZM1641.96 376.276L1636.32 377.271L1635.64 373.4C1634.46 375.957 1631.99 378.717 1627.34 379.537C1619.86 380.856 1613.75 375.444 1612.3 367.236C1610.84 358.95 1614.87 351.857 1622.54 350.504C1626.34 349.835 1629.58 350.835 1632.07 353.172L1631.44 349.62L1637.09 348.624L1641.96 376.276Z" fill="#192830"/>
</g>
<defs>
<linearGradient id="paint0_linear_2155_7687" x1="1459.08" y1="393.635" x2="1499.7" y2="388.56" gradientUnits="userSpaceOnUse">
<stop stop-color="#0064E1"/>
<stop offset="0.4" stop-color="#0064E1"/>
<stop offset="0.83" stop-color="#0073EE"/>
<stop offset="1" stop-color="#0082FB"/>
</linearGradient>
<linearGradient id="paint1_linear_2155_7687" x1="1456.62" y1="398.706" x2="1453.99" y2="383.786" gradientUnits="userSpaceOnUse">
<stop stop-color="#0082FB"/>
<stop offset="1" stop-color="#0064E0"/>
</linearGradient>
<clipPath id="clip0_2155_7687">
<rect width="202" height="62" fill="white" transform="translate(63.8359 311.204) rotate(-10)"/>
</clipPath>
<clipPath id="clip1_2155_7687">
<rect width="200" height="53" fill="white" transform="translate(396.406 256.624) rotate(-10)"/>
</clipPath>
<clipPath id="clip2_2155_7687">
<rect width="258" height="56" fill="white" transform="translate(698.57 202.329) rotate(-10)"/>
</clipPath>
<clipPath id="clip3_2155_7687">
<rect width="188" height="78" fill="white" transform="translate(1062.03 127.072) rotate(-10)"/>
</clipPath>
<clipPath id="clip4_2155_7687">
<rect width="74" height="86" fill="white" transform="translate(1448.36 54.8896) rotate(-10)"/>
</clipPath>
<clipPath id="clip5_2155_7687">
<rect width="228" height="48" fill="white" transform="translate(242.699 432.995) rotate(-10)"/>
</clipPath>
<clipPath id="clip6_2155_7687">
<rect width="200" height="67" fill="white" transform="translate(585.645 362.37) rotate(-10)"/>
</clipPath>
<clipPath id="clip7_2155_7687">
<rect width="206" height="64" fill="white" transform="translate(913.934 306.515) rotate(-10)"/>
</clipPath>
<clipPath id="clip8_2155_7687">
<rect width="184" height="72" fill="white" transform="translate(1254.97 242.319) rotate(-10)"/>
</clipPath>
<clipPath id="clip9_2155_7687">
<rect width="102" height="76" fill="white" transform="translate(161.871 579.252) rotate(-10)"/>
</clipPath>
<clipPath id="clip10_2155_7687">
<rect width="204" height="52" fill="white" transform="translate(444.625 541.581) rotate(-10)"/>
</clipPath>
<clipPath id="clip11_2155_7687">
<rect width="100" height="88" fill="white" transform="translate(823.602 456.479) rotate(-10)"/>
</clipPath>
<clipPath id="clip12_2155_7687">
<rect width="72" height="74" fill="white" transform="translate(1168.98 399.641) rotate(-10)"/>
</clipPath>
<clipPath id="clip13_2155_7687">
<rect width="202" height="50" fill="white" transform="translate(1438.47 367.354) rotate(-10)"/>
</clipPath>
</defs>
</svg>
