<svg width="32" height="32" viewBox="0 0 32 32" fill="none" xmlns="http://www.w3.org/2000/svg">
<g clip-path="url(#clip0_267_1825)">
<path d="M4 8C4 3.588 7.588 0 12 0C16.412 0 20 3.588 20 8C20 12.412 16.412 16 12 16C7.588 16 4 12.412 4 8ZM28.9653 24.756L31.42 26.1693L30.0893 28.48L27.636 27.0667C26.6947 28.128 25.4413 28.904 24.0013 29.1973V31.9987H21.3347V29.1973C19.8947 28.904 18.64 28.128 17.7 27.0667L15.2467 28.48L13.916 26.1693L16.3707 24.756C16.1507 24.0947 16.0027 23.4013 16.0027 22.6667C16.0027 21.932 16.1507 21.2387 16.3707 20.5773L13.916 19.164L15.2467 16.8533L17.7 18.2667C18.6413 17.2053 19.8947 16.4293 21.3347 16.136V13.3347H24.0013V16.136C25.4413 16.4293 26.696 17.2053 27.636 18.2667L30.0893 16.8533L31.42 19.164L28.9653 20.5773C29.1853 21.2387 29.3333 21.932 29.3333 22.6667C29.3333 23.4013 29.1853 24.0947 28.9653 24.756ZM24.6667 22.6667C24.6667 21.564 23.7693 20.6667 22.6667 20.6667C21.564 20.6667 20.6667 21.564 20.6667 22.6667C20.6667 23.7693 21.564 24.6667 22.6667 24.6667C23.7693 24.6667 24.6667 23.7693 24.6667 22.6667ZM10.6667 22.6667C10.6667 21.2613 10.92 19.92 11.364 18.6667H6.66667C2.99067 18.6667 0 21.6573 0 25.3333V32H15.132C12.4107 29.8 10.6667 26.4387 10.6667 22.6667Z" fill="black"/>
</g>
<defs>
<clipPath id="clip0_267_1825">
<rect width="32" height="32" fill="white"/>
</clipPath>
</defs>
</svg>
