<svg width="32" height="32" viewBox="0 0 32 32" fill="none" xmlns="http://www.w3.org/2000/svg">
<path fill-rule="evenodd" clip-rule="evenodd" d="M3.80859 5.3335V26.6668C3.80859 29.1916 5.8553 31.2383 8.38002 31.2383H23.6181C26.1429 31.2383 28.1895 29.1916 28.1895 26.6668V11.4287C28.1895 8.90401 26.1429 6.85731 23.6181 6.85731H5.3324C4.49083 6.85731 3.80859 6.17507 3.80859 5.3335ZM8.76097 16.0002C8.76097 15.369 9.27265 14.8573 9.90383 14.8573H22.0943C22.7255 14.8573 23.2372 15.369 23.2372 16.0002C23.2372 16.6313 22.7255 17.143 22.0943 17.143H9.90383C9.27265 17.143 8.76097 16.6313 8.76097 16.0002ZM8.76097 21.3335C8.76097 20.7023 9.27265 20.1906 9.90383 20.1906H18.2848C18.9159 20.1906 19.4276 20.7023 19.4276 21.3335C19.4276 21.9647 18.9159 22.4764 18.2848 22.4764H9.90383C9.27265 22.4764 8.76097 21.9647 8.76097 21.3335Z" fill="black"/>
<path d="M4.43359 3.94235C4.96461 4.18049 5.33448 4.71377 5.33448 5.33344H23.6202C24.1464 5.33344 24.657 5.4001 25.144 5.52547V4.27597C25.144 2.42135 23.5013 0.996707 21.6655 1.25898L5.21196 3.60948C4.91867 3.65138 4.6529 3.76961 4.43359 3.94235Z" fill="black"/>
</svg>
