<svg width="32" height="32" viewBox="0 0 32 32" fill="none" xmlns="http://www.w3.org/2000/svg">
<g clip-path="url(#clip0_267_1833)">
<path d="M28 7.99996H6.66667C5.52133 7.99996 4.43733 7.50396 3.68667 6.66796C4.42 5.84929 5.48533 5.33329 6.66667 5.33329H30.6667C32.4107 5.32529 32.4093 2.67329 30.6667 2.66663H6.66667C2.98533 2.66663 0 5.65196 0 9.33329V22.6666C0 26.348 2.98533 29.3333 6.66667 29.3333H28C30.2093 29.3333 32 27.5426 32 25.3333V12C32 9.79063 30.2093 7.99996 28 7.99996ZM26.6667 20C24.9227 19.992 24.9227 17.3413 26.6667 17.3333C28.4107 17.3413 28.4107 19.992 26.6667 20Z" fill="black"/>
</g>
<defs>
<clipPath id="clip0_267_1833">
<rect width="32" height="32" fill="white"/>
</clipPath>
</defs>
</svg>
