<svg width="32" height="32" viewBox="0 0 32 32" fill="none" xmlns="http://www.w3.org/2000/svg">
<g clip-path="url(#clip0_267_1849)">
<path d="M16 0C7.17733 0 0 7.17733 0 16C0.804 37.1973 31.2 37.192 32 16C32 7.17733 24.8227 0 16 0ZM17.3333 22.6667V24C17.3267 25.744 14.6733 25.7427 14.6667 24V22.6667H14.3093C12.8867 22.6667 11.5587 21.9013 10.8453 20.668C10.476 20.0293 10.6947 19.2147 11.3307 18.8467C11.9693 18.4747 12.7853 18.696 13.152 19.332C13.3907 19.7453 13.8333 20 14.308 20H17.332C18.6613 20.0867 19.256 17.9333 17.8067 17.6533L13.752 16.9773C9.08267 16.112 10.088 9.30667 14.6653 9.33333V8C14.6733 6.256 17.3253 6.25733 17.332 8V9.33333H17.6893C19.112 9.33333 20.44 10.1 21.1533 11.3333C21.5227 11.9707 21.304 12.7853 20.668 13.1547C20.028 13.524 19.2133 13.3053 18.8467 12.668C18.608 12.256 18.1653 12.0013 17.6907 12.0013H14.6667C13.3373 11.9147 12.744 14.068 14.192 14.348L18.2467 15.024C22.916 15.8893 21.9107 22.6933 17.3333 22.6667Z" fill="black"/>
</g>
<defs>
<clipPath id="clip0_267_1849">
<rect width="32" height="32" fill="white"/>
</clipPath>
</defs>
</svg>
