<svg width="32" height="32" viewBox="0 0 32 32" fill="none" xmlns="http://www.w3.org/2000/svg">
<g clip-path="url(#clip0_267_1861)">
<path d="M8.00133 8C8.00133 7.26533 8.59867 6.66667 9.33467 6.66667H20.0013C20.7373 6.66667 21.3347 7.26533 21.3347 8C21.3347 8.73467 20.7373 9.33333 20.0013 9.33333H9.33467C8.59867 9.33333 8.00133 8.73467 8.00133 8ZM23.9587 30.6347C24.124 31.2 23.8 31.792 23.2347 31.9587C23.1347 31.9867 23.0347 32.0013 22.9347 32.0013C22.472 32.0013 22.0467 31.6987 21.9107 31.2333L21.5893 30.1333H17.632L17.292 31.2333C17.128 31.7987 16.54 32.1227 15.9693 31.9573C15.404 31.792 15.08 31.2 15.2453 30.6333L17.4907 22.9547C17.7747 21.984 18.6227 21.3333 19.6013 21.3333C20.58 21.3333 21.4293 21.9853 21.7133 22.9547L23.376 28.6373C23.3867 28.66 23.388 28.6853 23.3973 28.7093L23.96 30.6333L23.9587 30.6347ZM20.9667 28L19.6667 23.5547L18.292 28H20.9667ZM29.584 26.66L31.8467 22.9413C32.152 22.4387 31.992 21.7813 31.4893 21.4747C30.984 21.1667 30.328 21.328 30.0227 21.832L28.3333 24.608L26.644 21.832C26.3387 21.3293 25.6813 21.1667 25.1773 21.4747C24.6747 21.7813 24.5147 22.4373 24.82 22.9413L27.0827 26.66L24.82 30.3787C24.5147 30.8813 24.6747 31.5387 25.1773 31.8453C25.3507 31.9507 25.5413 32.0013 25.7307 32.0013C26.092 32.0013 26.4427 31.8187 26.644 31.4893L28.3333 28.7133L30.0227 31.4893C30.2227 31.82 30.5747 32.0013 30.936 32.0013C31.1253 32.0013 31.316 31.9507 31.4893 31.8453C31.992 31.5387 32.152 30.8827 31.8467 30.3787L29.584 26.66ZM16.0013 22.4C16.0013 21.8107 15.524 21.3333 14.9347 21.3333H9.068C8.48 21.3333 8.00133 21.8107 8.00133 22.4C8.00133 22.9893 8.47867 23.4667 9.068 23.4667H10.9347V30.9347C10.9347 31.524 11.412 32.0013 12.0013 32.0013C12.5907 32.0013 13.068 31.524 13.068 30.9347V23.4667H14.9347C15.5227 23.4667 16.0013 22.9893 16.0013 22.4ZM8.268 30.9333C8.268 31.3067 8.34 31.66 8.44133 32H6.66667C2.99067 32 0 29.0093 0 25.3333V6.66667C0.00133333 2.99067 2.992 0 6.668 0H22.668C26.344 0 29.3347 2.99067 29.3347 6.66667V19.012C28.96 19.1893 28.628 19.4347 28.3347 19.7227C27.86 19.2573 27.276 18.916 26.612 18.7547C25.6413 18.52 24.6387 18.676 23.7907 19.1973C23.44 19.4107 23.152 19.684 22.9 19.9813C22.0253 19.1587 20.8667 18.6653 19.6 18.6653C18.6893 18.6653 17.8387 18.9267 17.104 19.372C16.4907 18.932 15.7453 18.6653 14.9347 18.6653H9.068C7.00933 18.6653 5.33467 20.34 5.33467 22.3987C5.33467 24.1827 6.59333 25.6733 8.268 26.0413V30.9333ZM16.0013 16C16.0013 15.264 15.4053 14.6667 14.668 14.6667H13.3347C12.5973 14.6667 12.0013 15.264 12.0013 16C12.0013 16.736 12.5973 17.3333 13.3347 17.3333H14.668C15.4053 17.3333 16.0013 16.736 16.0013 16ZM24.0013 16C24.0013 15.264 23.4053 14.6667 22.668 14.6667H20.0013C19.264 14.6667 18.668 15.264 18.668 16C18.668 16.736 19.264 17.3333 20.0013 17.3333H22.668C23.4053 17.3333 24.0013 16.736 24.0013 16ZM5.33467 8C5.33467 10.2053 7.12933 12 9.33467 12H20.0013C22.2067 12 24.0013 10.2053 24.0013 8C24.0013 5.79467 22.2067 4 20.0013 4H9.33467C7.12933 4 5.33467 5.79467 5.33467 8ZM5.33467 16C5.33467 16.736 5.93067 17.3333 6.668 17.3333H8.00133C8.73867 17.3333 9.33467 16.736 9.33467 16C9.33467 15.264 8.73867 14.6667 8.00133 14.6667H6.668C5.93067 14.6667 5.33467 15.264 5.33467 16Z" fill="black"/>
</g>
<defs>
<clipPath id="clip0_267_1861">
<rect width="32" height="32" fill="white"/>
</clipPath>
</defs>
</svg>
