<svg width="32" height="32" viewBox="0 0 32 32" fill="none" xmlns="http://www.w3.org/2000/svg">
<g clip-path="url(#clip0_267_1845)">
<path d="M22.876 -0.410156H9.1242C3.15087 -0.410156 -0.410156 3.15087 -0.410156 9.1242V22.8596C-0.410156 28.8493 3.15087 32.4104 9.1242 32.4104H22.8596C28.8329 32.4104 32.3939 28.8493 32.3939 22.876V9.1242C32.4104 3.15087 28.8493 -0.410156 22.876 -0.410156ZM24.0083 15.2288C24.0083 15.8688 23.4996 16.3775 22.8596 16.3775C22.2196 16.3775 21.7109 15.8688 21.7109 15.2288V14.9334L17.2473 19.397C17.0011 19.6432 16.6729 19.758 16.3283 19.7252C15.9837 19.6924 15.6719 19.5119 15.4914 19.2165L13.8175 16.7221L9.9119 20.6278C9.68215 20.8575 9.40318 20.956 9.10779 20.956C8.81241 20.956 8.51702 20.8411 8.30369 20.6278C7.86061 20.1847 7.86061 19.4627 8.30369 19.0032L13.1939 14.1129C13.4401 13.8668 13.7683 13.7519 14.1129 13.7847C14.4575 13.8175 14.7693 13.998 14.9498 14.2934L16.6237 16.7878L20.0863 13.3252H19.7909C19.1509 13.3252 18.6422 12.8165 18.6422 12.1765C18.6422 11.5365 19.1509 11.0278 19.7909 11.0278H22.8432C22.9909 11.0278 23.1386 11.0606 23.2863 11.1098C23.5652 11.2247 23.795 11.4545 23.9098 11.7334C23.9755 11.8811 23.9919 12.0288 23.9919 12.1765V15.2288H24.0083Z" fill="black"/>
</g>
<defs>
<clipPath id="clip0_267_1845">
<rect width="32" height="32" fill="white"/>
</clipPath>
</defs>
</svg>
