<svg width="32" height="32" viewBox="0 0 32 32" fill="none" xmlns="http://www.w3.org/2000/svg">
<g clip-path="url(#clip0_267_1841)">
<path d="M16 17.3333C16 19.5427 12.4187 21.3333 8 21.3333C3.58133 21.3333 0 19.5427 0 17.3333C0 15.124 3.58133 13.3333 8 13.3333C12.4187 13.3333 16 15.124 16 17.3333ZM16 24.6667V27.3333C16 29.9933 12.5613 32 8 32C3.43867 32 0 29.9933 0 27.3333V24.6667C0 27.2947 3.33333 29.3333 8 29.3333C12.6667 29.3333 16 27.2947 16 24.6667ZM16 19.3333V22C16 24.66 12.5613 26.6667 8 26.6667C3.43867 26.6667 0 24.66 0 22V19.3333C0 21.9613 3.33333 24 8 24C12.6667 24 16 21.9613 16 19.3333ZM14.6667 8C12.6547 8 10.9 9.12 9.992 10.768C14.8933 11.2787 18.348 13.6733 18.6453 16.8813C19.488 15.9373 20 14.6947 20 13.3333C20 10.392 17.608 8 14.6667 8ZM28 8C28 7.264 28.5973 6.66667 29.3333 6.66667H32C32 2.99067 29.0093 0 25.3333 0H6.66667C2.99067 0 0 2.99067 0 6.66667V12.7813C1.73467 11.5787 4.212 10.816 7.11733 10.6867C8.212 7.572 11.1827 5.33333 14.6667 5.33333C19.0787 5.33333 22.6667 8.92133 22.6667 13.3333C22.6667 16.288 21.056 18.8747 18.6667 20.26V26.6667H25.3333C25.7893 26.6667 26.236 26.62 26.6667 26.532V28C26.6667 28.736 27.264 29.3333 28 29.3333C28.736 29.3333 29.3333 28.736 29.3333 28V25.3293C30.952 24.112 32 22.176 32 20H29.3333C28.5973 20 28 19.4027 28 18.6667C28 17.9307 28.5973 17.3333 29.3333 17.3333H32V9.33333H29.3333C28.5973 9.33333 28 8.736 28 8Z" fill="black"/>
</g>
<defs>
<clipPath id="clip0_267_1841">
<rect width="32" height="32" fill="white"/>
</clipPath>
</defs>
</svg>
