<svg width="32" height="32" viewBox="0 0 32 32" fill="none" xmlns="http://www.w3.org/2000/svg">
<g clip-path="url(#clip0_267_1857)">
<path d="M22.1122 12.8214L20.2788 8.00007H23.5082C24.736 8.00302 25.9461 8.2941 27.041 8.84988C28.1359 9.40566 29.085 10.2106 29.8122 11.2001L30.8615 12.6334C31.3087 13.2435 31.6346 13.9338 31.8215 14.6667H22.6015C22.5068 14.0355 22.3427 13.4166 22.1122 12.8214ZM15.9988 5.3334C16.3524 5.3334 16.6916 5.19293 16.9416 4.94288C17.1917 4.69283 17.3322 4.35369 17.3322 4.00007V1.3334C17.3322 0.97978 17.1917 0.640642 16.9416 0.390593C16.6916 0.140545 16.3524 6.87729e-05 15.9988 6.87729e-05C15.6452 6.87729e-05 15.3061 0.140545 15.056 0.390593C14.806 0.640642 14.6655 0.97978 14.6655 1.3334V4.00007C14.6655 4.35369 14.806 4.69283 15.056 4.94288C15.3061 5.19293 15.6452 5.3334 15.9988 5.3334ZM19.6282 13.7907L17.4268 8.00007H14.5828L12.3455 13.9361C12.2597 14.1751 12.1884 14.4191 12.1322 14.6667H19.8935C19.8269 14.3686 19.7382 14.0758 19.6282 13.7907ZM22.0695 5.20007C22.2269 5.27922 22.3985 5.32638 22.5742 5.33883C22.75 5.35129 22.9264 5.32878 23.0935 5.27262C23.2605 5.21645 23.4147 5.12774 23.5472 5.01162C23.6797 4.89549 23.7879 4.75426 23.8655 4.59607L25.1988 1.9294C25.3569 1.61291 25.3828 1.24659 25.2707 0.911024C25.1587 0.575459 24.918 0.298138 24.6015 0.140069C24.285 -0.0180003 23.9187 -0.0438694 23.5831 0.0681524C23.2475 0.180174 22.9702 0.42091 22.8122 0.737402L21.4788 3.40407C21.3992 3.56069 21.3513 3.73149 21.3379 3.90668C21.3245 4.08186 21.3459 4.25796 21.4008 4.42486C21.4557 4.59176 21.543 4.74617 21.6578 4.8792C21.7725 5.01224 21.9125 5.12128 22.0695 5.20007ZM15.9828 25.1827L19.6975 18.1787C19.7918 17.9026 19.8662 17.6201 19.9202 17.3334H11.9988C12.0588 17.6768 12.148 18.0145 12.2655 18.3427L15.9828 25.1827ZM9.86549 12.9721L11.7322 8.00007H8.50949C7.30685 8.00321 6.12099 8.28242 5.04329 8.81618C3.96559 9.34995 3.02483 10.124 2.29349 11.0787L1.19882 12.5107C0.716509 13.152 0.371965 13.886 0.186823 14.6667H9.38682C9.48932 14.0873 9.64967 13.5195 9.86549 12.9721ZM22.6242 17.3334C22.5402 17.9706 22.3864 18.5965 22.1655 19.2001C22.1455 19.2534 17.1575 28.6321 17.1535 28.6334C17.0449 28.8444 16.8804 29.0215 16.6781 29.1456C16.4758 29.2696 16.2434 29.3358 16.0061 29.3369C15.7688 29.338 15.5357 29.274 15.3322 29.1518C15.1288 29.0297 14.9627 28.854 14.8522 28.6441C14.8522 28.6441 9.82016 19.4281 9.79882 19.3707C9.55999 18.713 9.40064 18.029 9.32416 17.3334H0.160156C0.406741 18.5264 1.02694 19.6099 1.93082 20.4267L12.5842 30.7027C13.5199 31.5372 14.7304 31.9972 15.9842 31.9947C17.2645 31.9922 18.4988 31.5175 19.4508 30.6614L30.0322 20.4841C30.9594 19.6549 31.5971 18.5509 31.8522 17.3334H22.6242ZM8.13882 4.59607C8.29689 4.91344 8.57456 5.15503 8.91076 5.26768C9.24695 5.38032 9.61411 5.3548 9.93149 5.19674C10.2489 5.03867 10.4904 4.76099 10.6031 4.4248C10.7157 4.08861 10.6902 3.72144 10.5322 3.40407L9.19882 0.737402C9.12056 0.580691 9.01219 0.440931 8.87991 0.326101C8.74763 0.211271 8.59402 0.12362 8.42787 0.0681524C8.0923 -0.0438694 7.72598 -0.0180003 7.40949 0.140069C7.093 0.298138 6.85226 0.575459 6.74024 0.911024C6.62822 1.24659 6.65409 1.61291 6.81216 1.9294L8.13882 4.59607Z" fill="black"/>
</g>
<defs>
<clipPath id="clip0_267_1857">
<rect width="32" height="32" fill="white"/>
</clipPath>
</defs>
</svg>
