<svg width="32" height="32" viewBox="0 0 32 32" fill="none" xmlns="http://www.w3.org/2000/svg">
<g clip-path="url(#clip0_267_1829)">
<path d="M3.19333 21.4147C2.03333 21.5533 0.932 21.9973 0 22.7V6.66667C0 3.49867 2.22933 0.766667 5.33333 0.133333V21.3333H4C3.72933 21.3333 3.45867 21.36 3.19333 21.4147ZM24 13.3333C24.9227 13.3333 25.812 13.4627 26.6667 13.684V6.66667C26.6667 2.98533 23.6813 0 20 0H8V21.3333H13.684C14.8733 16.74 19.04 13.3333 24 13.3333ZM13.3333 24H4C1.79067 24 0 25.7907 0 28C0 30.2093 1.79067 32 4 32H16.968C14.7453 30.044 13.3333 27.1867 13.3333 24ZM32 24C32 28.4187 28.4187 32 24 32C19.5813 32 16 28.4187 16 24C16 19.5813 19.5813 16 24 16C28.4187 16 32 19.5813 32 24ZM25.3333 25.3333C25.3333 24.5973 24.736 24 24 24C23.264 24 22.6667 24.5973 22.6667 25.3333V28C22.6667 28.736 23.264 29.3333 24 29.3333C24.736 29.3333 25.3333 28.736 25.3333 28V25.3333ZM26 20.6667C26 19.5627 25.104 18.6667 24 18.6667C22.896 18.6667 22 19.5627 22 20.6667C22 21.7707 22.896 22.6667 24 22.6667C25.104 22.6667 26 21.7707 26 20.6667Z" fill="black"/>
</g>
<defs>
<clipPath id="clip0_267_1829">
<rect width="32" height="32" fill="white"/>
</clipPath>
</defs>
</svg>
