<svg width="40" height="40" viewBox="0 0 40 40" fill="none" xmlns="http://www.w3.org/2000/svg">
<path d="M33.75 5H6.25C3.48858 5 1.25 7.23858 1.25 10V30C1.25 32.7614 3.48858 35 6.25 35H33.75C36.5114 35 38.75 32.7614 38.75 30V10C38.75 7.23858 36.5114 5 33.75 5Z" fill="#071B65"/>
<path d="M6.37453 5H6.24828C3.77203 5 1.72953 6.805 1.33203 9.1675L33.622 35H33.7483C36.2245 35 38.267 33.195 38.6645 30.8325L6.37453 5Z" fill="white"/>
<path d="M27.8125 23.75H24.6875L37.105 33.6838C37.5887 33.2425 37.985 32.7125 38.2663 32.1125L27.8125 23.75Z" fill="#B92932"/>
<path d="M1.73438 7.88616L12.1881 16.2499H15.3131L2.89562 6.31616C2.41188 6.75741 2.01562 7.28616 1.73438 7.88616Z" fill="#B92932"/>
<path d="M6.24828 35H6.37453L38.6645 9.1675C38.267 6.80375 36.2245 5 33.7483 5H33.622L1.33203 30.8325C1.72953 33.1963 3.77203 35 6.24828 35Z" fill="white"/>
<path d="M23.75 5H16.25V35H23.75V5Z" fill="white"/>
<path d="M38.75 16.25H1.25V23.75H38.75V16.25Z" fill="white"/>
<path d="M22.5 5H17.5V35H22.5V5Z" fill="#B92932"/>
<path d="M38.75 22.5V17.5L1.25 17.5V22.5L38.75 22.5Z" fill="#B92932"/>
<path d="M35.2775 5.26245L23.75 14.4825V16.25H24.6875L37.1163 6.32495C36.5925 5.84495 35.9688 5.4862 35.2775 5.26245Z" fill="#B92932"/>
<path d="M2.91016 33.6962C3.42766 34.1637 4.04016 34.5162 4.71891 34.7362L16.2502 25.5112V23.7512H15.3127L2.91016 33.6962Z" fill="#B92932"/>
<path opacity="0.15" d="M33.75 5H6.25C3.48875 5 1.25 7.23875 1.25 10V30C1.25 32.7612 3.48875 35 6.25 35H33.75C36.5112 35 38.75 32.7612 38.75 30V10C38.75 7.23875 36.5112 5 33.75 5ZM37.5 30C37.5 32.0675 35.8175 33.75 33.75 33.75H6.25C4.1825 33.75 2.5 32.0675 2.5 30V10C2.5 7.9325 4.1825 6.25 6.25 6.25H33.75C35.8175 6.25 37.5 7.9325 37.5 10V30Z" fill="black"/>
<path opacity="0.2" d="M33.75 6.25H6.25C4.17875 6.25 2.5 7.92875 2.5 10V11.25C2.5 9.17875 4.17875 7.5 6.25 7.5H33.75C35.8213 7.5 37.5 9.17875 37.5 11.25V10C37.5 7.92875 35.8213 6.25 33.75 6.25Z" fill="white"/>
</svg>
