<svg width="40" height="40" viewBox="0 0 40 40" fill="none" xmlns="http://www.w3.org/2000/svg">
<path d="M33.75 5H6.25C3.48858 5 1.25 7.23858 1.25 10V30C1.25 32.7614 3.48858 35 6.25 35H33.75C36.5114 35 38.75 32.7614 38.75 30V10C38.75 7.23858 36.5114 5 33.75 5Z" fill="white"/>
<path d="M2.04688 7.3075H37.9519C37.0631 5.9225 35.5181 5 33.7494 5H6.24937C4.48187 5 2.93687 5.9225 2.04688 7.3075Z" fill="#A62842"/>
<path d="M2.5375 9.61499C2.5275 9.74374 2.5 9.86749 2.5 9.99999V11.9237H38.75V9.99999C38.75 9.86874 38.7225 9.74499 38.7125 9.61499H2.5375Z" fill="#A62842"/>
<path d="M2.5 14.2312H38.75V16.5387H2.5V14.2312Z" fill="#A62842"/>
<path d="M2.5 18.8462H38.75V21.1537H2.5V18.8462Z" fill="#A62842"/>
<path d="M1.25 23.4613H38.75V25.7688H1.25V23.4613Z" fill="#A62842"/>
<path d="M1.25 30C1.25 30.1313 1.27875 30.255 1.28875 30.385H38.7113C38.7212 30.2563 38.75 30.1325 38.75 30V28.0763H1.25V30Z" fill="#A62842"/>
<path d="M37.9519 32.6924H2.04688C2.93563 34.0774 4.48063 34.9999 6.24937 34.9999H33.7494C35.5169 34.9999 37.0619 34.0774 37.9519 32.6924Z" fill="#A62842"/>
<path d="M6.25 5H20V21.1538H1.25V10C1.25 7.24 3.49 5 6.25 5Z" fill="#102D5E"/>
<path opacity="0.15" d="M33.75 5H6.25C3.48875 5 1.25 7.23875 1.25 10V30C1.25 32.7612 3.48875 35 6.25 35H33.75C36.5112 35 38.75 32.7612 38.75 30V10C38.75 7.23875 36.5112 5 33.75 5ZM37.5 30C37.5 32.0675 35.8175 33.75 33.75 33.75H6.25C4.1825 33.75 2.5 32.0675 2.5 30V10C2.5 7.9325 4.1825 6.25 6.25 6.25H33.75C35.8175 6.25 37.5 7.9325 37.5 10V30Z" fill="black"/>
<path opacity="0.2" d="M33.75 6.25H6.25C4.17875 6.25 2.5 7.92875 2.5 10V11.25C2.5 9.17875 4.17875 7.5 6.25 7.5H33.75C35.8213 7.5 37.5 9.17875 37.5 11.25V10C37.5 7.92875 35.8213 6.25 33.75 6.25Z" fill="white"/>
<path d="M5.75016 9.32886L6.49016 8.79136H5.57641L5.29391 7.92261L5.01141 8.79136H4.09766L4.83641 9.32886L4.55391 10.1976L5.29391 9.66136L6.03266 10.1976L5.75016 9.32886Z" fill="white"/>
<path d="M9.47672 9.32886L10.2167 8.79136H9.30297L9.02047 7.92261L8.73797 8.79136H7.82422L8.56297 9.32886L8.28047 10.1976L9.02047 9.66136L9.75922 10.1976L9.47672 9.32886Z" fill="white"/>
<path d="M13.2006 9.32886L13.9394 8.79136H13.0256L12.7431 7.92261L12.4606 8.79136H11.5469L12.2856 9.32886L12.0044 10.1976L12.7431 9.66136L13.4819 10.1976L13.2006 9.32886Z" fill="white"/>
<path d="M7.58219 11.6038L8.32219 11.0675H7.40844L7.12594 10.1975L6.84344 11.0675H5.92969L6.66844 11.6038L6.38594 12.4738L7.12594 11.9363L7.86469 12.4738L7.58219 11.6038Z" fill="white"/>
<path d="M11.3061 11.6038L12.0448 11.0675H11.1311L10.8486 10.1975L10.5661 11.0675H9.65234L10.3911 11.6038L10.1098 12.4738L10.8486 11.9363L11.5873 12.4738L11.3061 11.6038Z" fill="white"/>
<path d="M15.0327 11.6038L15.7714 11.0675H14.8577L14.5752 10.1975L14.2927 11.0675H13.3789L14.1189 11.6038L13.8364 12.4738L14.5752 11.9363L15.3152 12.4738L15.0327 11.6038Z" fill="white"/>
<path d="M7.58219 16.155L8.32219 15.6175H7.40844L7.12594 14.7488L6.84344 15.6175H5.92969L6.66844 16.155L6.38594 17.0238L7.12594 16.4875L7.86469 17.0238L7.58219 16.155Z" fill="white"/>
<path d="M11.3061 16.155L12.0448 15.6175H11.1311L10.8486 14.7488L10.5661 15.6175H9.65234L10.3911 16.155L10.1098 17.0238L10.8486 16.4875L11.5873 17.0238L11.3061 16.155Z" fill="white"/>
<path d="M15.0327 16.155L15.7714 15.6175H14.8577L14.5752 14.7488L14.2927 15.6175H13.3789L14.1189 16.155L13.8364 17.0238L14.5752 16.4875L15.3152 17.0238L15.0327 16.155Z" fill="white"/>
<path d="M16.9233 9.32886L17.662 8.79136H16.7483L16.4658 7.92261L16.1833 8.79136H15.2695L16.0095 9.32886L15.727 10.1976L16.4658 9.66136L17.2058 10.1976L16.9233 9.32886Z" fill="white"/>
<path d="M5.75016 13.8799L6.49016 13.3424H5.57641L5.29391 12.4736L5.01141 13.3424H4.09766L4.83641 13.8799L4.55391 14.7486L5.29391 14.2111L6.03266 14.7486L5.75016 13.8799Z" fill="white"/>
<path d="M9.47672 13.8799L10.2167 13.3424H9.30297L9.02047 12.4736L8.73797 13.3424H7.82422L8.56297 13.8799L8.28047 14.7486L9.02047 14.2111L9.75922 14.7486L9.47672 13.8799Z" fill="white"/>
<path d="M13.2006 13.8799L13.9394 13.3424H13.0256L12.7431 12.4736L12.4606 13.3424H11.5469L12.2856 13.8799L12.0044 14.7486L12.7431 14.2111L13.4819 14.7486L13.2006 13.8799Z" fill="white"/>
<path d="M16.9233 13.8799L17.662 13.3424H16.7483L16.4658 12.4736L16.1833 13.3424H15.2695L16.0095 13.8799L15.727 14.7486L16.4658 14.2111L17.2058 14.7486L16.9233 13.8799Z" fill="white"/>
<path d="M5.75016 18.4299L6.49016 17.8937H5.57641L5.29391 17.0237L5.01141 17.8937H4.09766L4.83641 18.4299L4.55391 19.2999L5.29391 18.7624L6.03266 19.2999L5.75016 18.4299Z" fill="white"/>
<path d="M9.47672 18.4299L10.2167 17.8937H9.30297L9.02047 17.0237L8.73797 17.8937H7.82422L8.56297 18.4299L8.28047 19.2999L9.02047 18.7624L9.75922 19.2999L9.47672 18.4299Z" fill="white"/>
<path d="M13.2006 18.4299L13.9394 17.8937H13.0256L12.7431 17.0237L12.4606 17.8937H11.5469L12.2856 18.4299L12.0044 19.2999L12.7431 18.7624L13.4819 19.2999L13.2006 18.4299Z" fill="white"/>
<path d="M16.9233 18.4299L17.662 17.8937H16.7483L16.4658 17.0237L16.1833 17.8937H15.2695L16.0095 18.4299L15.727 19.2999L16.4658 18.7624L17.2058 19.2999L16.9233 18.4299Z" fill="white"/>
</svg>
