<svg width="40" height="40" viewBox="0 0 40 40" fill="none" xmlns="http://www.w3.org/2000/svg">
<path d="M33.75 5H6.25C3.48858 5 1.25 7.23858 1.25 10V30C1.25 32.7614 3.48858 35 6.25 35H33.75C36.5114 35 38.75 32.7614 38.75 30V10C38.75 7.23858 36.5114 5 33.75 5Z" fill="white"/>
<path d="M1.25 10H38.75V15H1.25V10Z" fill="#1433B3"/>
<path d="M1.25 25H38.75V30H1.25V25Z" fill="#1433B3"/>
<path opacity="0.15" d="M33.75 5H6.25C3.48875 5 1.25 7.23875 1.25 10V30C1.25 32.7612 3.48875 35 6.25 35H33.75C36.5112 35 38.75 32.7612 38.75 30V10C38.75 7.23875 36.5112 5 33.75 5ZM37.5 30C37.5 32.0675 35.8175 33.75 33.75 33.75H6.25C4.1825 33.75 2.5 32.0675 2.5 30V10C2.5 7.9325 4.1825 6.25 6.25 6.25H33.75C35.8175 6.25 37.5 7.9325 37.5 10V30Z" fill="black"/>
<path d="M20 24.33L18.75 22.165H16.25L17.5 20L16.25 17.835H18.75L20 15.67L21.25 17.835H23.75L22.5 20L23.75 22.165H21.25L20 24.33ZM19.5438 22.165L20 22.955L20.4562 22.165H19.5438ZM21.6462 21.4775H22.5588L22.1025 20.6875L21.6462 21.4775ZM19.1463 21.4775H20.8525L21.705 20L20.8525 18.5225H19.1463L18.2938 20L19.1463 21.4775ZM17.44 21.4775H18.3525L17.8963 20.6875L17.44 21.4775ZM21.6462 18.5225L22.1025 19.3125L22.5588 18.5225H21.6462ZM17.44 18.5225L17.8963 19.3125L18.3525 18.5225H17.44ZM19.5425 17.835H20.455L19.9987 17.045L19.5425 17.835Z" fill="#1437B0"/>
<path opacity="0.2" d="M33.75 6.25H6.25C4.17875 6.25 2.5 7.92875 2.5 10V11.25C2.5 9.17875 4.17875 7.5 6.25 7.5H33.75C35.8213 7.5 37.5 9.17875 37.5 11.25V10C37.5 7.92875 35.8213 6.25 33.75 6.25Z" fill="white"/>
</svg>
