<svg width="40" height="40" viewBox="0 0 40 40" fill="none" xmlns="http://www.w3.org/2000/svg">
<path d="M1.25 12.5H38.75V27.5H1.25V12.5Z" fill="#F1C142"/>
<path d="M6.25 5H33.75C36.51 5 38.75 7.24 38.75 10V13.75H1.25V10C1.25 7.24 3.49 5 6.25 5Z" fill="#A0251E"/>
<path d="M33.75 35L6.25 35C3.49 35 1.25 32.76 1.25 30V26.25L38.75 26.25V30C38.75 32.76 36.51 35 33.75 35Z" fill="#A0251E"/>
<path opacity="0.15" d="M33.75 5H6.25C3.48875 5 1.25 7.23875 1.25 10V30C1.25 32.7612 3.48875 35 6.25 35H33.75C36.5112 35 38.75 32.7612 38.75 30V10C38.75 7.23875 36.5112 5 33.75 5ZM37.5 30C37.5 32.0675 35.8175 33.75 33.75 33.75H6.25C4.1825 33.75 2.5 32.0675 2.5 30V10C2.5 7.9325 4.1825 6.25 6.25 6.25H33.75C35.8175 6.25 37.5 7.9325 37.5 10V30Z" fill="black"/>
<path opacity="0.2" d="M33.75 6.25H6.25C4.17875 6.25 2.5 7.92875 2.5 10V11.25C2.5 9.17875 4.17875 7.5 6.25 7.5H33.75C35.8213 7.5 37.5 9.17875 37.5 11.25V10C37.5 7.92875 35.8213 6.25 33.75 6.25Z" fill="white"/>
<path d="M15.7658 16.3637C15.8483 16.3249 15.8345 16.1887 15.7458 16.1674C15.817 16.1087 15.7708 15.9799 15.677 15.9824C15.727 15.9112 15.662 15.8024 15.5745 15.8199C15.6008 15.7424 15.522 15.6612 15.4445 15.6887C15.457 15.6037 15.3558 15.5399 15.2858 15.5874C15.2908 15.5024 15.1845 15.4474 15.1183 15.5012C15.1058 15.4124 14.9808 15.3824 14.9308 15.4574C14.9133 15.3724 14.792 15.3487 14.7445 15.4224C14.7108 15.3537 14.602 15.3512 14.5645 15.4174C14.527 15.3587 14.4308 15.3612 14.3945 15.4199C14.372 15.3849 14.3233 15.3649 14.282 15.3774C14.2933 15.2962 14.1995 15.2337 14.1295 15.2749C14.132 15.1874 14.0208 15.1362 13.957 15.1949C13.9408 15.1149 13.8283 15.0862 13.777 15.1499C13.752 15.0712 13.6345 15.0562 13.592 15.1287C13.547 15.0587 13.4308 15.0762 13.4083 15.1562C13.357 15.0874 13.2395 15.1174 13.2258 15.2012C13.212 15.1912 13.197 15.1837 13.1795 15.1812C13.187 15.1712 13.192 15.1612 13.1983 15.1499H13.2008C13.2733 15.0162 13.2058 14.8299 13.0683 14.7774V14.6549H13.192V14.4624H13.0683V14.3362H12.8795V14.4624H12.7558V14.6549H12.8795V14.7749C12.7383 14.8249 12.6683 15.0137 12.742 15.1487H12.7445C12.7495 15.1587 12.7558 15.1699 12.762 15.1787C12.7433 15.1812 12.7258 15.1887 12.712 15.1999C12.6983 15.1162 12.5795 15.0862 12.5295 15.1549C12.507 15.0749 12.3908 15.0574 12.3458 15.1274C12.3033 15.0562 12.1858 15.0699 12.1608 15.1487C12.1095 15.0837 11.997 15.1137 11.9808 15.1937C11.917 15.1349 11.807 15.1862 11.8083 15.2737C11.7383 15.2324 11.6445 15.2949 11.6558 15.3762C11.6133 15.3637 11.5658 15.3837 11.542 15.4187C11.5058 15.3599 11.4095 15.3574 11.372 15.4162C11.3345 15.3487 11.2258 15.3524 11.1933 15.4212C11.147 15.3474 11.0245 15.3712 11.007 15.4562C10.9583 15.3812 10.832 15.4099 10.8195 15.4999C10.7533 15.4462 10.647 15.4999 10.652 15.5862C10.582 15.5387 10.4808 15.6024 10.4933 15.6874C10.4158 15.6612 10.337 15.7424 10.3633 15.8187C10.3008 15.8074 10.2433 15.8599 10.2433 15.9237C10.2433 15.9449 10.2495 15.9649 10.2608 15.9824C10.167 15.9799 10.122 16.1087 10.192 16.1674C10.1033 16.1887 10.0895 16.3237 10.172 16.3637C10.0958 16.4074 10.1133 16.5362 10.1995 16.5562C10.1833 16.5749 10.1733 16.5987 10.1733 16.6249C10.1733 16.6774 10.2108 16.7212 10.2595 16.7299C10.2308 16.7899 10.2708 16.8674 10.3345 16.8774C10.3183 16.9149 10.3195 16.9687 10.3195 17.0099C10.432 16.9862 10.5695 17.0174 10.6183 17.1474C10.5995 17.2324 10.6995 17.3424 10.7908 17.3299C10.8658 17.4362 10.957 17.5362 11.1045 17.5762C11.0783 17.6924 11.1845 17.6924 11.2583 17.7237C11.242 17.7437 11.2045 17.8024 11.1895 17.8249C11.2195 17.8412 11.2983 17.8762 11.3308 17.8887C11.337 17.9124 11.3358 17.9237 11.3358 17.9274C11.4495 18.5537 14.5033 18.5549 14.6058 17.9262V17.9237C14.6058 17.9237 14.6108 17.9274 14.6108 17.9287C14.6108 17.9249 14.6095 17.9149 14.6158 17.8899L14.7633 17.8374L14.6858 17.7249C14.7558 17.6899 14.867 17.6937 14.8395 17.5762C14.9883 17.5362 15.0808 17.4362 15.1558 17.3287C15.247 17.3412 15.347 17.2312 15.3283 17.1462C15.377 17.0162 15.5158 16.9849 15.627 17.0087C15.627 16.9649 15.6295 16.9112 15.6108 16.8724C15.6658 16.8549 15.6983 16.7837 15.672 16.7287C15.7495 16.7174 15.7858 16.6124 15.732 16.5549C15.8183 16.5349 15.8358 16.4049 15.7595 16.3624L15.7658 16.3637ZM15.3958 16.2212C15.3958 16.2824 15.3808 16.3437 15.3533 16.3974C15.1058 16.2262 14.757 16.0999 14.4858 16.1299C14.4833 16.1187 14.4783 16.1087 14.472 16.0999C14.472 16.0999 14.472 16.0987 14.472 16.0974C14.552 16.0712 14.5645 15.9474 14.4908 15.9062C14.5508 15.8662 14.547 15.7649 14.4845 15.7299C14.8945 15.6812 15.3958 15.8424 15.3958 16.2212ZM14.2008 15.8774C14.2008 15.9562 14.1758 16.0324 14.1333 16.0962C13.7908 16.0224 13.6183 15.8849 13.237 15.8649C13.2283 15.7624 13.2308 15.6512 13.2233 15.5474C13.5308 15.3099 14.2345 15.4699 14.2008 15.8774ZM12.712 15.6724C12.7095 15.7349 12.7083 15.7999 12.7033 15.8612C12.3258 15.8774 12.142 16.0137 11.8045 16.0924C11.4795 15.5849 12.3233 15.2474 12.717 15.5474C12.7145 15.5887 12.7108 15.6299 12.712 15.6724ZM11.4045 15.8187C11.4045 15.8537 11.422 15.8849 11.447 15.9049C11.3745 15.9462 11.3858 16.0699 11.4658 16.0949C11.4658 16.0949 11.4658 16.0962 11.4658 16.0974C11.4595 16.1062 11.4558 16.1162 11.452 16.1274C11.1783 16.0974 10.8333 16.2112 10.5795 16.3849C10.3858 15.9137 10.9833 15.6649 11.452 15.7287C11.4233 15.7474 11.4033 15.7799 11.4033 15.8187H11.4045ZM11.3445 17.9224V17.9249C11.3445 17.9249 11.342 17.9249 11.3408 17.9274C11.3408 17.9262 11.3433 17.9224 11.3445 17.9224Z" fill="#9B8028"/>
<path d="M17.6647 21.0701C18.0084 20.2576 17.9159 20.4351 17.2659 20.0863V18.9951C17.4522 18.8713 17.1484 18.8438 17.3284 18.7013H17.4184V18.2776H16.1809V18.7013H16.2747C16.4447 18.8288 16.1609 18.8838 16.3372 18.9951V19.9451C15.6822 19.9363 15.3734 20.0276 15.4884 20.6651H15.5372L15.5572 20.7101C15.7322 20.6313 16.0222 20.5763 16.3372 20.5613V20.8413C15.8572 20.8776 15.8122 21.6013 16.3372 21.8413V23.4551C16.2709 23.4763 16.2509 23.5663 16.3072 23.6088C16.3159 23.6901 16.2347 23.7238 16.1659 23.7126C16.1659 23.7451 16.1659 24.0088 16.1659 24.0488C16.1109 24.0788 16.0247 24.0863 15.9534 24.0838V24.2188V24.3526V24.4863V24.6213V24.8538C16.5272 24.7688 17.0722 24.7688 17.6447 24.8538V24.0838C17.5734 24.0863 17.4897 24.0788 17.4322 24.0488C17.4322 24.0076 17.4322 23.7476 17.4322 23.7138C17.3647 23.7238 17.2847 23.6926 17.2909 23.6126C17.3509 23.5713 17.3334 23.4776 17.2647 23.4551V22.2901C17.3122 22.3113 17.3559 22.3338 17.3959 22.3563C17.2647 22.5051 17.2809 22.7638 17.4347 22.8926L17.5059 22.8263C17.7834 22.4151 18.0009 21.8976 17.2647 21.7063V21.2688C17.4859 21.2451 17.6259 21.1763 17.6634 21.0713L17.6647 21.0701Z" fill="#9B8028"/>
<path d="M10.4518 20.0724C10.2606 19.9949 9.96432 19.9499 9.63557 19.9449V18.9949C9.75307 18.9437 9.67807 18.8512 9.61932 18.7962C9.64432 18.7487 9.73432 18.7249 9.68932 18.6524H9.74307V18.3262H8.60307V18.6524H8.65182C8.60557 18.7262 8.70057 18.7499 8.72307 18.7962C8.66432 18.8487 8.58807 18.9437 8.70557 18.9949V20.0862C7.90057 20.2524 7.94182 21.0212 8.70557 21.2674V21.7049C7.96807 21.8974 8.18682 22.4137 8.46432 22.8249L8.53557 22.8912C8.68932 22.7624 8.70557 22.5037 8.57432 22.3549C8.61432 22.3324 8.65807 22.3099 8.70557 22.2887V23.4537C8.63682 23.4762 8.61932 23.5699 8.67932 23.6112C8.68557 23.6912 8.60557 23.7224 8.53807 23.7124C8.53807 23.7449 8.53807 24.0074 8.53807 24.0474C8.48182 24.0774 8.39682 24.0862 8.32557 24.0824V24.5837V24.8524C8.89932 24.7674 9.44432 24.7674 10.0156 24.8524V24.6199V24.4849V24.3512V24.2174V24.0824C9.94557 24.0849 9.86057 24.0774 9.80432 24.0474C9.80432 24.0062 9.80432 23.7462 9.80432 23.7112C9.73557 23.7212 9.65557 23.6887 9.66307 23.6074C9.71932 23.5649 9.70057 23.4737 9.63307 23.4524V21.8399C10.1593 21.5999 10.1118 20.8749 9.63307 20.8399V20.5599C10.3518 20.6037 10.6281 20.9524 10.4493 20.0699L10.4518 20.0724Z" fill="#9B8028"/>
<path d="M15.6625 18.1663H10.3125L10.3162 21.3813V23.2375C10.3162 23.7775 10.5987 24.265 11.055 24.5113C11.6462 24.8263 12.335 25 12.995 25C13.655 25 14.325 24.8313 14.925 24.5113C15.38 24.265 15.6637 23.7775 15.6637 23.2375L15.6625 18.1663Z" fill="#A0251E"/>
</svg>
