<svg width="40" height="40" viewBox="0 0 40 40" fill="none" xmlns="http://www.w3.org/2000/svg">
<path d="M33.75 5H6.25C3.48858 5 1.25 7.23858 1.25 10V30C1.25 32.7614 3.48858 35 6.25 35H33.75C36.5114 35 38.75 32.7614 38.75 30V10C38.75 7.23858 36.5114 5 33.75 5Z" fill="#061B65"/>
<path d="M8.125 17.2175V20H13.125V17.2162L16.9212 20H20V18.4487L15.2975 15H20V10H16.575L20 7.48875V5H18.1987L13.125 8.72125V5H8.125V8.4925L4.05375 5.50625C3.095 5.97375 2.3175 6.735 1.82125 7.67875L4.98625 10.0013H1.25V15.0013H5.95375L1.25 18.4513V20.0012H4.33L8.125 17.2175Z" fill="white"/>
<path d="M2.25781 6.98615L6.36406 9.9999H8.06906L2.95031 6.24365C2.69531 6.46865 2.46281 6.7149 2.25781 6.98615Z" fill="#D22D32"/>
<path d="M1.25 20L8.0675 15V16.25L2.95375 20H1.25Z" fill="#D22D32"/>
<path d="M8.54781 23.4263L9.21781 25.5088L11.2628 24.7338L10.0528 26.555L11.9341 27.6713L9.75531 27.8613L10.0553 30.0275L8.54906 28.4425L7.04281 30.0275L7.34281 27.8613L5.16406 27.6713L7.04531 26.555L5.83531 24.7338L7.88031 25.5088L8.55031 23.4263H8.54781Z" fill="white"/>
<path d="M28.892 27.1938L29.2558 28.3263L30.3683 27.9051L29.7095 28.8963L30.7333 29.5038L29.5483 29.6063L29.712 30.7851L28.892 29.9226L28.072 30.7851L28.2358 29.6063L27.0508 29.5038L28.0745 28.8963L27.4158 27.9051L28.5283 28.3263L28.892 27.1938Z" fill="white"/>
<path d="M25.2084 16.4087L25.5722 17.5412L26.6847 17.1199L26.0259 18.1112L27.0497 18.7187L25.8647 18.8212L26.0284 19.9999L25.2084 19.1374L24.3884 19.9999L24.5522 18.8212L23.3672 18.7187L24.3909 18.1112L23.7322 17.1199L24.8447 17.5412L25.2084 16.4087Z" fill="white"/>
<path d="M29.2866 8.90869L29.6503 10.0412L30.7628 9.61994L30.1041 10.6112L31.1278 11.2187L29.9428 11.3212L30.1066 12.4999L29.2866 11.6374L28.4666 12.4999L28.6303 11.3212L27.4453 11.2187L28.4691 10.6112L27.8103 9.61994L28.9228 10.0412L29.2866 8.90869Z" fill="white"/>
<path d="M35.1655 13.5212L35.5292 14.6537L36.6417 14.2325L35.983 15.2237L37.0067 15.8312L35.8217 15.9337L35.9855 17.1125L35.1655 16.25L34.3455 17.1125L34.5092 15.9337L33.3242 15.8312L34.348 15.2237L33.6892 14.2325L34.8017 14.6537L35.1655 13.5212Z" fill="white"/>
<path d="M32.1764 20L32.4639 20.7063L33.2239 20.7625L32.6414 21.2538L32.8239 21.9937L32.1764 21.5925L31.5289 21.9937L31.7114 21.2538L31.1289 20.7625L31.8889 20.7063L32.1764 20Z" fill="white"/>
<path d="M11.875 20H9.375V13.75H1.25V11.25H9.375V5H11.875V11.25H20V13.75H11.875V20Z" fill="#D22D32"/>
<path d="M20 19.5837L13.75 15V16.25L18.8637 20H20V19.5837Z" fill="#D22D32"/>
<path d="M19.9995 5H19.6895L12.8633 10.005H14.5683L19.9995 6.0225V5Z" fill="#D22D32"/>
<path opacity="0.15" d="M33.75 5H6.25C3.48875 5 1.25 7.23875 1.25 10V30C1.25 32.7612 3.48875 35 6.25 35H33.75C36.5112 35 38.75 32.7612 38.75 30V10C38.75 7.23875 36.5112 5 33.75 5ZM37.5 30C37.5 32.0675 35.8175 33.75 33.75 33.75H6.25C4.1825 33.75 2.5 32.0675 2.5 30V10C2.5 7.9325 4.1825 6.25 6.25 6.25H33.75C35.8175 6.25 37.5 7.9325 37.5 10V30Z" fill="black"/>
<path opacity="0.2" d="M33.75 6.25H6.25C4.17875 6.25 2.5 7.92875 2.5 10V11.25C2.5 9.17875 4.17875 7.5 6.25 7.5H33.75C35.8213 7.5 37.5 9.17875 37.5 11.25V10C37.5 7.92875 35.8213 6.25 33.75 6.25Z" fill="white"/>
</svg>
