<svg width="40" height="40" viewBox="0 0 40 40" fill="none" xmlns="http://www.w3.org/2000/svg">
<path d="M12.5 5H27.5V35H12.5V5Z" fill="white"/>
<path d="M6.25 5H13.75V35H6.25C3.49 35 1.25 32.76 1.25 30V10C1.25 7.24 3.49 5 6.25 5Z" fill="#2C6748"/>
<path d="M33.75 35H26.25L26.25 5H33.75C36.51 5 38.75 7.24 38.75 10V30C38.75 32.76 36.51 35 33.75 35Z" fill="#BE2A2C"/>
<path opacity="0.15" d="M33.75 5H6.25C3.48875 5 1.25 7.23875 1.25 10V30C1.25 32.7612 3.48875 35 6.25 35H33.75C36.5112 35 38.75 32.7612 38.75 30V10C38.75 7.23875 36.5112 5 33.75 5ZM37.5 30C37.5 32.0675 35.8175 33.75 33.75 33.75H6.25C4.1825 33.75 2.5 32.0675 2.5 30V10C2.5 7.9325 4.1825 6.25 6.25 6.25H33.75C35.8175 6.25 37.5 7.9325 37.5 10V30Z" fill="black"/>
<path opacity="0.2" d="M33.75 6.25H6.25C4.17875 6.25 2.5 7.92875 2.5 10V11.25C2.5 9.17875 4.17875 7.5 6.25 7.5H33.75C35.8213 7.5 37.5 9.17875 37.5 11.25V10C37.5 7.92875 35.8213 6.25 33.75 6.25Z" fill="white"/>
<path d="M23.3767 23.2637C22.7992 22.4012 22.4517 23.6624 21.858 23.5787C22.0142 22.5662 20.8855 22.9537 20.363 23.1887L20.5692 22.8874C19.788 23.2512 18.8592 21.9974 18.2992 22.9224C18.1805 22.6662 17.1967 22.0612 16.798 22.5124C16.8292 21.2412 14.6442 21.3162 15.7892 22.6137C16.5767 22.8374 17.008 23.8187 18.183 23.3062C18.3442 23.9687 19.4642 24.0349 19.9492 23.6774C19.8842 23.8787 19.9155 24.4549 19.898 24.5712C20.4967 25.0512 20.5042 24.2924 20.9255 24.0537C21.5367 23.7412 23.7692 24.6812 23.3755 23.2649L23.3767 23.2637Z" fill="#3B8288"/>
<path d="M18.2812 21.5801C18.2812 21.5801 18.2863 21.5838 18.2963 21.5888C18.2875 21.5838 18.2812 21.5801 18.2812 21.5801Z" fill="#A27037"/>
<path d="M22.7677 16.2737C22.7702 15.6524 18.2427 14.3312 19.6102 16.3587C19.2877 16.4049 18.7465 16.1712 18.7202 15.9187C18.739 15.9687 18.5827 16.2287 18.5315 16.2524C18.524 16.1274 18.494 16.0124 18.494 16.0124V16.0174C18.3377 15.6299 18.459 16.5587 18.1827 16.4799C18.2777 16.4437 18.1902 16.0249 18.1177 16.0799C18.164 16.1099 18.059 16.5924 17.9665 16.6137C18.0227 16.5324 17.914 16.2087 17.889 16.2737C17.9677 16.6024 17.3265 16.9874 17.419 17.1499C16.999 17.2987 16.8177 18.3324 17.569 18.0962C17.249 17.9287 17.4002 17.5099 17.784 17.5537C17.7665 17.5499 17.8377 17.5799 17.8177 17.5937C17.9165 18.0574 18.424 17.5037 18.624 17.4337C18.4127 18.6112 17.8715 19.7287 18.984 20.8999C18.6152 20.5112 18.5477 20.9674 18.964 21.1037C18.7127 21.1162 18.4252 21.3599 18.8577 21.4949C18.769 21.5849 18.4265 21.3237 18.614 21.5062C18.6102 21.5049 18.6065 21.5024 18.6027 21.5012C18.6027 21.5012 18.6052 21.5037 18.6102 21.5074C17.8952 21.4762 18.579 21.7574 18.8777 21.7849C18.6352 22.1662 19.4802 21.8137 19.5627 21.8049C19.729 22.2237 19.8602 21.8449 19.8227 21.5337C19.9415 21.6699 20.0602 21.8049 20.1815 21.9387C20.3715 21.9899 20.579 22.8362 20.7215 22.3949C20.7265 22.3774 20.729 22.3599 20.7315 22.3424C21.014 22.6599 21.149 22.7799 21.0252 22.2762C21.179 22.5287 21.3165 22.6012 21.2765 22.2712C21.509 22.5149 21.4477 22.1837 21.424 22.0137C21.6477 22.9024 23.9052 22.7149 23.6727 22.1174C23.2827 21.7374 20.8052 20.3487 21.4452 19.4812C21.6877 19.6049 22.8902 21.1112 22.3677 20.2299C21.904 19.0237 22.7627 20.2299 22.8902 20.6774C23.1777 21.1962 22.7302 19.7724 22.6352 19.7224C23.429 20.7137 23.3552 21.5862 23.104 19.7562C23.1352 19.8162 23.1865 19.8637 23.249 19.8874C23.2027 19.7949 23.149 19.7587 23.119 19.7449C23.1677 19.7562 23.2277 19.8299 23.2527 19.8887C23.2515 19.8887 23.2502 19.8887 23.249 19.8874C23.6727 22.1412 23.8265 21.7549 23.5602 19.7224C24.2002 22.2474 24.1102 22.2324 24.0402 19.6762C24.499 20.3337 24.169 21.7062 24.3652 22.3324C24.7077 21.6024 24.5852 19.4562 24.809 18.8812C24.3877 18.4812 23.4177 16.3662 22.7702 16.2749L22.7677 16.2737ZM19.1565 21.5724C19.1565 21.5724 19.1565 21.5712 19.1565 21.5699H19.159C19.159 21.5699 19.1577 21.5712 19.1565 21.5724Z" fill="#A27037"/>
<path d="M18.3922 20.7337C18.491 19.9325 17.7685 20.0425 17.2497 20.0412C16.236 19.1912 19.1535 18.4737 17.7897 17.55H17.7947C17.7947 17.55 17.7847 17.5475 17.7859 17.5475L17.7947 17.55C17.7947 17.55 17.766 17.5212 17.7672 17.5212C17.6497 17.54 17.4734 17.545 17.4147 17.6912C17.4147 17.6912 17.4185 17.6937 17.4222 17.6975L17.2647 17.8825C17.2647 17.89 17.5272 18.0662 17.516 18.0787C17.526 18.0762 17.5397 18.09 17.5472 18.095C17.6847 18.5287 16.816 18.7025 16.6422 19.0975C16.086 20.24 17.1085 20.6112 17.921 20.6187C16.8272 21.8012 16.9285 20.7912 16.1935 20.0987C16.2972 19.6562 16.4897 19.0975 15.8797 18.9137C15.8835 18.815 15.7172 18.7125 15.6735 18.8625C15.7147 18.82 15.566 18.6925 15.5047 18.7762C15.2672 18.4725 14.9885 19.2375 15.4072 19.16C15.4172 19.2537 15.5735 19.21 15.5972 19.1887C15.5935 19.3075 15.7747 19.295 15.7985 19.22C16.211 19.4587 15.616 19.905 15.7997 20.2787C16.0435 20.7287 16.4847 20.91 16.4985 21.5012C16.861 22.0937 18.3435 21.31 18.381 20.8925C18.3872 20.8437 18.3897 20.7912 18.3935 20.7387L18.3922 20.7337ZM18.0747 18.295C18.0747 18.295 18.0797 18.3 18.081 18.3012C18.081 18.3012 18.076 18.2975 18.0735 18.295H18.0747Z" fill="#A9AC78"/>
<path d="M17.1838 17.4201C17.1901 17.4463 16.6101 17.5763 16.6938 17.3188C16.8038 17.3538 17.3163 16.9801 17.1088 17.0226C16.5363 17.4138 16.7251 16.9313 16.9138 16.5988C16.9701 16.6176 16.9788 16.8938 16.9488 16.9113C17.1151 16.8001 17.0451 16.1951 16.8126 16.5101C16.5851 16.4188 15.9751 17.0113 16.3163 17.2538C16.1963 17.7776 16.6076 17.9988 17.0476 17.8876L17.0501 17.8801H17.0888C17.0238 17.8713 17.1851 17.4501 17.1838 17.4213V17.4201Z" fill="#A9AC78"/>
</svg>
