<svg width="56" height="56" viewBox="0 0 56 56" fill="none" xmlns="http://www.w3.org/2000/svg">
<path d="M8.48838 20.9998C7.04638 20.9998 5.92638 19.6978 6.18071 18.2791C7.01838 13.6101 9.34471 9.27012 12.8424 5.99179C17.3574 1.75679 23.2537 -0.354876 29.4697 0.0487905C41.1854 0.80479 50.3367 11.0038 50.164 23.1885C50.0707 29.7638 44.5897 35.0021 38.012 35.0021H31.1707C30.3307 35.8095 29.1967 36.3111 27.9414 36.3111C25.363 36.3111 23.2747 34.2228 23.2747 31.6445C23.2747 29.0661 25.363 26.9778 27.9414 26.9778C30.06 26.9778 31.8287 28.3988 32.398 30.3355H38.012C42.0627 30.3355 45.453 27.1085 45.4974 23.0601C45.6047 13.3861 38.3924 5.30579 29.1687 4.70846C24.271 4.40512 19.5997 6.05712 16.032 9.40079C13.211 12.0445 11.3934 15.4301 10.7564 19.1495C10.5697 20.2368 9.58971 21.0045 8.48838 21.0045V20.9998ZM27.9997 39.6665C19.378 39.6665 11.9184 45.0145 9.43805 52.9711C9.21638 53.6805 9.34471 54.4528 9.78571 55.0501C10.2267 55.6475 10.9244 55.9998 11.6664 55.9998H44.333C45.075 55.9998 45.7727 55.6475 46.2137 55.0501C46.6547 54.4528 46.783 53.6805 46.5614 52.9711C44.081 45.0145 36.6214 39.6665 27.9997 39.6665ZM34.8457 25.6665H40.3384C40.6534 24.5535 40.833 23.3821 40.833 22.1665C40.833 15.0778 35.0884 9.33312 27.9997 9.33312C20.911 9.33312 15.1664 15.0778 15.1664 22.1665C15.1664 25.6455 16.557 28.7955 18.804 31.1078C19.0864 26.2871 23.0484 22.4535 27.9414 22.4535C30.7204 22.4535 33.1704 23.7158 34.848 25.6665H34.8457Z" fill="#254EF5"/>
</svg>
