<svg width="24" height="24" viewBox="0 0 24 24" fill="none" xmlns="http://www.w3.org/2000/svg">
<path d="M19.4825 4.28553V18.0777C19.4825 18.336 19.6919 18.5453 19.9501 18.5453C20.1796 18.5453 20.3705 18.3799 20.4101 18.1618L20.4176 18.0777V5.45436H21.5864C22.445 5.45436 23.1491 6.11556 23.2174 6.95652L23.2228 7.09073V18.3115C23.2228 19.932 21.9544 21.2563 20.3563 21.3457L20.1838 21.3505H3.82021C2.19971 21.3505 0.875462 20.0821 0.786061 18.484L0.78125 18.3115V4.28553C0.78125 3.42698 1.44244 2.72286 2.28341 2.65459L2.41761 2.64917H17.8462C18.7047 2.64917 19.4089 3.31036 19.4771 4.15133L19.4825 4.28553ZM8.02476 11.068H5.69034C4.83179 11.068 4.12767 11.7292 4.0594 12.5702L4.05398 12.7044V15.0388C4.05398 15.8973 4.71517 16.6015 5.55613 16.6697L5.69034 16.6751H8.02476C8.88331 16.6751 9.58743 16.014 9.65569 15.173L9.66112 15.0388V12.7044C9.66112 11.8458 8.99993 11.1417 8.15896 11.0734L8.02476 11.068ZM15.5085 15.2725H12.2358L12.1406 15.2789C11.7983 15.3254 11.5345 15.6188 11.5345 15.9738C11.5345 16.3289 11.7983 16.6223 12.1406 16.6687L12.2358 16.6751H15.5085L15.6037 16.6687C15.946 16.6223 16.2098 16.3289 16.2098 15.9738C16.2098 15.6188 15.946 15.3254 15.6037 15.2789L15.5085 15.2725ZM5.69034 12.4706H8.02476C8.13542 12.4706 8.22812 12.5475 8.25235 12.6508L8.25852 12.7044V15.0388C8.25852 15.1494 8.18163 15.2421 8.07836 15.2664L8.02476 15.2725H5.69034C5.57968 15.2725 5.48698 15.1957 5.46275 15.0924L5.45657 15.0388V12.7044C5.45657 12.5937 5.53347 12.501 5.63674 12.4768L5.69034 12.4706ZM15.5085 11.068H12.2358L12.1406 11.0744C11.7983 11.1208 11.5345 11.4143 11.5345 11.7693C11.5345 12.1243 11.7983 12.4178 12.1406 12.4642L12.2358 12.4706H15.5085L15.6037 12.4642C15.946 12.4178 16.2098 12.1243 16.2098 11.7693C16.2098 11.4143 15.946 11.1208 15.6037 11.0744L15.5085 11.068ZM15.5085 6.85384H4.75528L4.66011 6.86024C4.31781 6.90668 4.05398 7.2001 4.05398 7.55514C4.05398 7.91018 4.31781 8.20359 4.66011 8.25003L4.75528 8.25643H15.5085L15.6037 8.25003C15.946 8.20359 16.2098 7.91018 16.2098 7.55514C16.2098 7.2001 15.946 6.90668 15.6037 6.86024L15.5085 6.85384Z" fill="white"/>
</svg>
