<svg width="1400" height="1516" viewBox="0 0 1400 1516" fill="none" xmlns="http://www.w3.org/2000/svg">
<g opacity="0.5">
<path d="M551.906 153.676C612.415 232.353 694.175 457.704 537.14 729.697C340.846 1069.69 681.441 794.801 642.554 1035.43C603.667 1276.05 290.113 820.643 327.18 1215" stroke="url(#paint0_linear_2062_7690)"/>
<path d="M344.102 310.09C445.476 309.502 657.549 379.368 694.85 663.528C741.476 1018.73 859.313 589.404 977.856 762.618C1096.4 935.831 540.987 910.553 821.458 1115.66" stroke="url(#paint1_linear_2062_7690)"/>
<path d="M542 160.796C605.53 236.42 695.339 456.769 546.335 733.175C360.079 1078.68 693.756 791.902 662.633 1032.34C631.51 1272.78 300.711 833.545 351.167 1223.48" stroke="url(#paint2_linear_2062_7690)"/>
<path d="M532.094 168.266C598.523 240.714 696.189 455.722 555.417 736.167C379.452 1086.72 705.698 788.402 682.347 1028.31C658.996 1268.23 311.595 845.865 375.281 1230.8" stroke="url(#paint3_linear_2062_7690)"/>
<path d="M522.203 175.721C591.444 244.898 696.838 454.281 564.484 738.397C399.041 1093.54 717.427 784.071 701.879 1023.14C686.33 1262.21 322.784 857.278 399.616 1236.71" stroke="url(#paint4_linear_2062_7690)"/>
<path d="M512.32 183.193C584.282 249.008 697.266 452.493 573.503 739.906C418.799 1099.17 728.907 778.96 721.182 1016.87C713.457 1254.78 334.243 867.815 424.12 1241.24" stroke="url(#paint5_linear_2062_7690)"/>
<path d="M502.422 190.648C577.01 253.016 697.435 450.334 582.426 740.667C438.664 1103.58 740.087 773.049 740.196 1009.49C740.304 1245.93 345.919 877.435 448.725 1244.36" stroke="url(#paint6_linear_2062_7690)"/>
<path d="M492.516 198.119C569.633 256.956 697.341 447.849 591.236 740.722C458.605 1106.81 750.948 766.389 758.889 1001.05C766.831 1235.71 357.794 886.169 473.392 1246.12" stroke="url(#paint7_linear_2062_7690)"/>
<path d="M482.633 205.587C562.177 260.817 697.001 445.034 599.94 740.061C478.614 1108.85 761.493 758.98 777.257 991.55C793.021 1224.12 369.869 893.997 498.108 1246.5" stroke="url(#paint8_linear_2062_7690)"/>
<path d="M472.727 213.054C554.594 264.604 696.356 441.903 608.467 738.697C498.605 1109.69 771.648 750.843 795.214 981.018C818.78 1211.19 382.068 900.92 522.78 1245.51" stroke="url(#paint9_linear_2062_7690)"/>
<path d="M462.844 220.515C546.926 268.317 695.441 438.466 616.838 736.637C518.586 1109.35 781.433 741.995 812.771 969.473C844.109 1196.95 394.41 906.934 547.409 1243.16" stroke="url(#paint10_linear_2062_7690)"/>
<path d="M452.945 227.977C539.133 271.97 694.204 434.744 624.992 733.901C538.477 1107.85 790.786 732.462 829.853 956.946C868.92 1181.43 406.826 912.048 571.912 1239.47" stroke="url(#paint11_linear_2062_7690)"/>
<path d="M443.055 235.443C531.234 275.567 692.659 430.753 632.928 730.504C558.264 1105.19 799.702 722.271 846.448 943.464C893.194 1164.66 419.311 916.267 596.267 1234.45" stroke="url(#paint12_linear_2062_7690)"/>
<path d="M433.164 242.912C523.219 279.116 690.786 426.51 640.615 726.46C577.9 1101.4 808.15 711.444 862.513 929.057C916.876 1146.67 431.827 919.595 620.42 1228.13" stroke="url(#paint13_linear_2062_7690)"/>
<path d="M423.266 250.367C515.078 282.603 688.567 422.012 648.021 721.768C597.338 1096.46 816.097 699.988 878.006 913.734C939.916 1127.48 444.336 922.021 644.32 1220.49" stroke="url(#paint14_linear_2062_7690)"/>
<path d="M413.359 257.838C506.809 286.063 685.992 417.304 655.124 716.471C616.54 1090.43 823.521 687.957 892.895 897.556C962.269 1107.15 456.811 923.58 667.921 1211.6" stroke="url(#paint15_linear_2062_7690)"/>
<path d="M403.469 265.31C498.433 289.487 683.074 412.387 661.926 710.574C635.49 1083.31 830.422 675.362 907.17 880.539C983.917 1085.72 469.243 924.266 691.204 1201.46" stroke="url(#paint16_linear_2062_7690)"/>
<path d="M393.57 272.773C489.924 292.87 679.782 407.269 668.38 704.084C654.128 1075.1 836.755 662.22 920.775 862.705C1004.8 1063.19 481.582 924.079 714.102 1190.08" stroke="url(#paint17_linear_2062_7690)"/>
<path d="M383.688 280.245C481.305 296.236 676.129 401.983 674.489 697.035C672.439 1065.85 842.521 648.575 933.704 844.105C1024.89 1039.64 493.821 923.044 736.594 1177.5" stroke="url(#paint18_linear_2062_7690)"/>
<path d="M373.789 287.699C472.541 299.564 672.077 396.52 680.201 689.423C690.356 1055.55 847.669 634.43 945.894 824.748C1044.12 1015.07 505.899 921.149 758.607 1163.73" stroke="url(#paint19_linear_2062_7690)"/>
<path d="M363.891 295.162C463.648 302.885 667.633 390.922 685.51 681.29C707.857 1044.25 852.195 619.837 957.334 804.694C1062.47 989.551 517.804 918.43 780.114 1148.81" stroke="url(#paint20_linear_2062_7690)"/>
<path d="M354 302.635C454.632 306.205 662.798 385.208 690.405 672.661C724.914 1031.98 856.088 604.828 968.002 783.981C1079.92 963.133 529.514 914.902 801.084 1132.79" stroke="url(#paint21_linear_2062_7690)"/>
</g>
<defs>
<linearGradient id="paint0_linear_2062_7690" x1="525.061" y1="148.607" x2="509.82" y2="1253.68" gradientUnits="userSpaceOnUse">
<stop stop-color="#254EF5" stop-opacity="0"/>
<stop offset="0.427119" stop-color="#254EF5" stop-opacity="0.49"/>
<stop offset="1" stop-color="#254EF5" stop-opacity="0"/>
</linearGradient>
<linearGradient id="paint1_linear_2062_7690" x1="317.948" y1="328.059" x2="954.157" y2="1038.75" gradientUnits="userSpaceOnUse">
<stop stop-color="#254EF5" stop-opacity="0"/>
<stop offset="0.427119" stop-color="#254EF5" stop-opacity="0.49"/>
<stop offset="1" stop-color="#254EF5" stop-opacity="0"/>
</linearGradient>
<linearGradient id="paint2_linear_2062_7690" x1="514.809" y1="156.86" x2="544.42" y2="1254.19" gradientUnits="userSpaceOnUse">
<stop stop-color="#254EF5" stop-opacity="0"/>
<stop offset="0.427119" stop-color="#254EF5" stop-opacity="0.49"/>
<stop offset="1" stop-color="#254EF5" stop-opacity="0"/>
</linearGradient>
<linearGradient id="paint3_linear_2062_7690" x1="504.604" y1="165.476" x2="577.968" y2="1252.86" gradientUnits="userSpaceOnUse">
<stop stop-color="#254EF5" stop-opacity="0"/>
<stop offset="0.427119" stop-color="#254EF5" stop-opacity="0.49"/>
<stop offset="1" stop-color="#254EF5" stop-opacity="0"/>
</linearGradient>
<linearGradient id="paint4_linear_2062_7690" x1="494.451" y1="174.08" x2="610.16" y2="1249.65" gradientUnits="userSpaceOnUse">
<stop stop-color="#254EF5" stop-opacity="0"/>
<stop offset="0.427119" stop-color="#254EF5" stop-opacity="0.49"/>
<stop offset="1" stop-color="#254EF5" stop-opacity="0"/>
</linearGradient>
<linearGradient id="paint5_linear_2062_7690" x1="484.341" y1="182.704" x2="640.92" y2="1244.78" gradientUnits="userSpaceOnUse">
<stop stop-color="#254EF5" stop-opacity="0"/>
<stop offset="0.427119" stop-color="#254EF5" stop-opacity="0.49"/>
<stop offset="1" stop-color="#254EF5" stop-opacity="0"/>
</linearGradient>
<linearGradient id="paint6_linear_2062_7690" x1="474.253" y1="191.311" x2="670.179" y2="1238.38" gradientUnits="userSpaceOnUse">
<stop stop-color="#254EF5" stop-opacity="0"/>
<stop offset="0.427119" stop-color="#254EF5" stop-opacity="0.49"/>
<stop offset="1" stop-color="#254EF5" stop-opacity="0"/>
</linearGradient>
<linearGradient id="paint7_linear_2062_7690" x1="464.194" y1="199.933" x2="697.919" y2="1230.67" gradientUnits="userSpaceOnUse">
<stop stop-color="#254EF5" stop-opacity="0"/>
<stop offset="0.427119" stop-color="#254EF5" stop-opacity="0.49"/>
<stop offset="1" stop-color="#254EF5" stop-opacity="0"/>
</linearGradient>
<linearGradient id="paint8_linear_2062_7690" x1="454.196" y1="208.55" x2="724.165" y2="1221.77" gradientUnits="userSpaceOnUse">
<stop stop-color="#254EF5" stop-opacity="0"/>
<stop offset="0.427119" stop-color="#254EF5" stop-opacity="0.49"/>
<stop offset="1" stop-color="#254EF5" stop-opacity="0"/>
</linearGradient>
<linearGradient id="paint9_linear_2062_7690" x1="444.212" y1="217.161" x2="748.879" y2="1211.85" gradientUnits="userSpaceOnUse">
<stop stop-color="#254EF5" stop-opacity="0"/>
<stop offset="0.427119" stop-color="#254EF5" stop-opacity="0.49"/>
<stop offset="1" stop-color="#254EF5" stop-opacity="0"/>
</linearGradient>
<linearGradient id="paint10_linear_2062_7690" x1="434.288" y1="225.762" x2="772.132" y2="1201.05" gradientUnits="userSpaceOnUse">
<stop stop-color="#254EF5" stop-opacity="0"/>
<stop offset="0.427119" stop-color="#254EF5" stop-opacity="0.49"/>
<stop offset="1" stop-color="#254EF5" stop-opacity="0"/>
</linearGradient>
<linearGradient id="paint11_linear_2062_7690" x1="424.386" y1="234.357" x2="793.919" y2="1189.5" gradientUnits="userSpaceOnUse">
<stop stop-color="#254EF5" stop-opacity="0"/>
<stop offset="0.427119" stop-color="#254EF5" stop-opacity="0.49"/>
<stop offset="1" stop-color="#254EF5" stop-opacity="0"/>
</linearGradient>
<linearGradient id="paint12_linear_2062_7690" x1="414.53" y1="242.947" x2="814.309" y2="1177.33" gradientUnits="userSpaceOnUse">
<stop stop-color="#254EF5" stop-opacity="0"/>
<stop offset="0.427119" stop-color="#254EF5" stop-opacity="0.49"/>
<stop offset="1" stop-color="#254EF5" stop-opacity="0"/>
</linearGradient>
<linearGradient id="paint13_linear_2062_7690" x1="404.711" y1="251.531" x2="833.345" y2="1164.63" gradientUnits="userSpaceOnUse">
<stop stop-color="#254EF5" stop-opacity="0"/>
<stop offset="0.427119" stop-color="#254EF5" stop-opacity="0.49"/>
<stop offset="1" stop-color="#254EF5" stop-opacity="0"/>
</linearGradient>
<linearGradient id="paint14_linear_2062_7690" x1="394.922" y1="260.089" x2="851.078" y2="1151.49" gradientUnits="userSpaceOnUse">
<stop stop-color="#254EF5" stop-opacity="0"/>
<stop offset="0.427119" stop-color="#254EF5" stop-opacity="0.49"/>
<stop offset="1" stop-color="#254EF5" stop-opacity="0"/>
</linearGradient>
<linearGradient id="paint15_linear_2062_7690" x1="385.162" y1="268.65" x2="867.57" y2="1138.02" gradientUnits="userSpaceOnUse">
<stop stop-color="#254EF5" stop-opacity="0"/>
<stop offset="0.427119" stop-color="#254EF5" stop-opacity="0.49"/>
<stop offset="1" stop-color="#254EF5" stop-opacity="0"/>
</linearGradient>
<linearGradient id="paint16_linear_2062_7690" x1="375.455" y1="277.198" x2="882.911" y2="1124.27" gradientUnits="userSpaceOnUse">
<stop stop-color="#254EF5" stop-opacity="0"/>
<stop offset="0.427119" stop-color="#254EF5" stop-opacity="0.49"/>
<stop offset="1" stop-color="#254EF5" stop-opacity="0"/>
</linearGradient>
<linearGradient id="paint17_linear_2062_7690" x1="365.776" y1="285.722" x2="897.142" y2="1110.31" gradientUnits="userSpaceOnUse">
<stop stop-color="#254EF5" stop-opacity="0"/>
<stop offset="0.427119" stop-color="#254EF5" stop-opacity="0.49"/>
<stop offset="1" stop-color="#254EF5" stop-opacity="0"/>
</linearGradient>
<linearGradient id="paint18_linear_2062_7690" x1="356.15" y1="294.237" x2="910.357" y2="1096.19" gradientUnits="userSpaceOnUse">
<stop stop-color="#254EF5" stop-opacity="0"/>
<stop offset="0.427119" stop-color="#254EF5" stop-opacity="0.49"/>
<stop offset="1" stop-color="#254EF5" stop-opacity="0"/>
</linearGradient>
<linearGradient id="paint19_linear_2062_7690" x1="346.544" y1="302.717" x2="922.59" y2="1081.93" gradientUnits="userSpaceOnUse">
<stop stop-color="#254EF5" stop-opacity="0"/>
<stop offset="0.427119" stop-color="#254EF5" stop-opacity="0.49"/>
<stop offset="1" stop-color="#254EF5" stop-opacity="0"/>
</linearGradient>
<linearGradient id="paint20_linear_2062_7690" x1="336.975" y1="311.185" x2="933.924" y2="1067.59" gradientUnits="userSpaceOnUse">
<stop stop-color="#254EF5" stop-opacity="0"/>
<stop offset="0.427119" stop-color="#254EF5" stop-opacity="0.49"/>
<stop offset="1" stop-color="#254EF5" stop-opacity="0"/>
</linearGradient>
<linearGradient id="paint21_linear_2062_7690" x1="327.448" y1="319.642" x2="944.431" y2="1053.2" gradientUnits="userSpaceOnUse">
<stop stop-color="#254EF5" stop-opacity="0"/>
<stop offset="0.427119" stop-color="#254EF5" stop-opacity="0.49"/>
<stop offset="1" stop-color="#254EF5" stop-opacity="0"/>
</linearGradient>
</defs>
</svg>
