<svg width="826" height="553" viewBox="0 0 826 553" fill="none" xmlns="http://www.w3.org/2000/svg">
<g opacity="0.5">
<path d="M689.062 -40.3311C664.884 32.4034 566.411 177.872 365.947 177.872C115.368 177.872 376.012 302.758 230.593 371.445C85.1737 440.133 236.84 44.3138 30.6848 226.092" stroke="url(#paint0_linear_466_8324)"/>
<path d="M536.285 -121C568.962 -51.6285 598.024 121.678 452.855 259.934C271.393 432.754 546.314 343.472 488.4 493.529C430.486 643.585 267.205 252.215 243.34 526.094" stroke="url(#paint1_linear_466_8324)"/>
<path d="M681.967 -44.3125C660.44 29.2861 567.3 178.299 366.96 185.562C116.536 194.641 381.546 310.063 238.706 384.008C95.8664 457.953 233.091 56.7036 33.6525 245.922" stroke="url(#paint2_linear_466_8324)"/>
<path d="M674.684 -48.147C655.837 26.1833 568.158 178.473 368.212 192.99C118.281 211.136 387.299 316.881 247.232 395.952C107.165 475.024 229.763 69.0658 37.3104 265.386" stroke="url(#paint3_linear_466_8324)"/>
<path d="M667.4 -51.981C651.259 22.9833 569.155 178.35 369.867 200.101C120.757 227.291 393.43 323.219 256.32 407.313C119.21 491.408 227.018 81.2747 41.8051 284.438" stroke="url(#paint4_linear_466_8324)"/>
<path d="M660.115 -55.8159C646.701 19.684 570.279 177.923 371.91 206.881C123.949 243.078 399.918 329.064 265.945 418.071C131.972 507.077 224.85 93.3076 47.1194 303.048" stroke="url(#paint5_linear_466_8324)"/>
<path d="M652.832 -59.6504C642.162 16.2859 571.524 177.19 374.334 213.316C127.847 258.473 406.75 334.404 276.09 428.206C145.429 522.008 223.256 105.145 53.2405 321.187" stroke="url(#paint6_linear_466_8324)"/>
<path d="M645.547 -63.4844C637.635 12.7887 572.873 176.146 377.121 219.393C132.433 273.45 413.904 339.227 286.727 437.701C159.551 536.176 222.223 116.767 60.1471 338.827" stroke="url(#paint7_linear_466_8324)"/>
<path d="M638.264 -67.3188C633.12 9.19081 574.319 174.788 380.263 225.098C137.694 287.985 421.363 343.521 297.838 446.538C174.313 549.556 221.749 128.151 67.8242 355.938" stroke="url(#paint8_linear_466_8324)"/>
<path d="M630.98 -71.1528C628.612 5.49294 575.85 173.111 383.744 230.419C143.612 302.054 429.107 347.275 309.396 454.701C189.684 562.126 221.821 139.28 76.2504 372.493" stroke="url(#paint9_linear_466_8324)"/>
<path d="M623.695 -74.9878C624.106 1.69346 577.451 171.114 387.547 235.344C150.168 315.632 437.115 350.48 321.374 462.172C205.633 573.864 222.428 150.131 85.4031 388.465" stroke="url(#paint10_linear_466_8324)"/>
<path d="M616.412 -78.8223C619.6 -2.20623 579.114 168.793 391.663 239.861C157.348 328.697 445.369 353.126 333.751 468.938C222.133 584.75 223.565 160.687 95.2645 403.829" stroke="url(#paint11_linear_466_8324)"/>
<path d="M609.127 -82.6558C615.089 -6.20554 580.825 166.148 396.071 243.961C165.129 341.228 453.846 355.206 346.497 474.986C239.148 594.766 225.215 170.929 105.808 418.56" stroke="url(#paint12_linear_466_8324)"/>
<path d="M601.844 -86.4907C610.572 -10.3067 582.574 163.175 400.761 247.631C173.495 353.201 462.529 356.709 359.59 480.3C256.651 603.891 227.372 180.837 117.015 432.632" stroke="url(#paint13_linear_466_8324)"/>
<path d="M594.559 -90.3247C606.041 -14.5069 584.348 159.876 405.714 250.863C182.422 364.598 471.392 357.632 372.999 484.871C274.606 612.11 230.018 190.395 128.856 446.023" stroke="url(#paint14_linear_466_8324)"/>
<path d="M587.273 -94.1597C601.495 -18.8077 586.134 156.246 410.914 253.646C191.889 375.396 480.418 357.965 386.699 488.686C292.98 619.406 233.143 199.583 141.309 458.708" stroke="url(#paint15_linear_466_8324)"/>
<path d="M579.99 -97.9932C596.933 -23.2059 587.924 152.29 416.348 255.974C201.878 385.579 489.586 357.706 400.665 491.736C311.743 625.766 236.734 208.387 154.35 470.67" stroke="url(#paint16_linear_466_8324)"/>
<path d="M572.707 -101.828C592.348 -27.7033 589.703 148.003 421.997 257.836C212.363 395.127 498.872 356.848 414.865 494.012C330.859 631.176 240.777 216.788 167.949 481.883" stroke="url(#paint17_linear_466_8324)"/>
<path d="M565.422 -105.662C587.736 -32.2981 591.459 143.389 427.841 259.226C223.32 404.022 508.254 355.387 429.272 495.505C350.289 635.622 245.253 224.77 182.078 492.33" stroke="url(#paint18_linear_466_8324)"/>
<path d="M558.139 -109.497C583.096 -36.9897 593.182 138.447 433.869 260.136C234.727 412.247 517.712 353.321 443.858 496.208C370.005 639.095 250.152 232.318 196.712 501.991" stroke="url(#paint19_linear_466_8324)"/>
<path d="M550.854 -113.331C578.421 -41.7755 594.857 133.181 440.057 260.562C246.558 419.787 527.222 350.648 458.593 496.117C389.965 641.586 255.454 239.418 211.819 510.85" stroke="url(#paint20_linear_466_8324)"/>
<path d="M543.57 -117.166C573.712 -46.6557 596.476 127.59 446.393 260.496C258.789 426.628 536.764 347.365 473.451 495.225C410.139 643.085 261.145 246.055 227.373 518.89" stroke="url(#paint21_linear_466_8324)"/>
</g>
<defs>
<linearGradient id="paint0_linear_466_8324" x1="566.206" y1="-99.7053" x2="11.2951" y2="241.759" gradientUnits="userSpaceOnUse">
<stop stop-color="white"/>
<stop offset="1" stop-color="white" stop-opacity="0"/>
</linearGradient>
<linearGradient id="paint1_linear_466_8324" x1="406.349" y1="-79.2848" x2="239.853" y2="550.75" gradientUnits="userSpaceOnUse">
<stop stop-color="white"/>
<stop offset="1" stop-color="white" stop-opacity="0"/>
</linearGradient>
<linearGradient id="paint2_linear_466_8324" x1="557.034" y1="-99.2257" x2="14.6964" y2="262.069" gradientUnits="userSpaceOnUse">
<stop stop-color="white"/>
<stop offset="1" stop-color="white" stop-opacity="0"/>
</linearGradient>
<linearGradient id="paint3_linear_466_8324" x1="547.843" y1="-98.4978" x2="18.9517" y2="282.209" gradientUnits="userSpaceOnUse">
<stop stop-color="white"/>
<stop offset="1" stop-color="white" stop-opacity="0"/>
</linearGradient>
<linearGradient id="paint4_linear_466_8324" x1="538.819" y1="-97.7032" x2="24.0681" y2="301.916" gradientUnits="userSpaceOnUse">
<stop stop-color="white"/>
<stop offset="1" stop-color="white" stop-opacity="0"/>
</linearGradient>
<linearGradient id="paint5_linear_466_8324" x1="529.962" y1="-96.8495" x2="30.0272" y2="321.157" gradientUnits="userSpaceOnUse">
<stop stop-color="white"/>
<stop offset="1" stop-color="white" stop-opacity="0"/>
</linearGradient>
<linearGradient id="paint6_linear_466_8324" x1="521.277" y1="-95.9415" x2="36.8157" y2="339.904" gradientUnits="userSpaceOnUse">
<stop stop-color="white"/>
<stop offset="1" stop-color="white" stop-opacity="0"/>
</linearGradient>
<linearGradient id="paint7_linear_466_8324" x1="512.764" y1="-94.9854" x2="44.4111" y2="358.126" gradientUnits="userSpaceOnUse">
<stop stop-color="white"/>
<stop offset="1" stop-color="white" stop-opacity="0"/>
</linearGradient>
<linearGradient id="paint8_linear_466_8324" x1="504.427" y1="-93.9883" x2="52.7978" y2="375.794" gradientUnits="userSpaceOnUse">
<stop stop-color="white"/>
<stop offset="1" stop-color="white" stop-opacity="0"/>
</linearGradient>
<linearGradient id="paint9_linear_466_8324" x1="496.265" y1="-92.9558" x2="61.9533" y2="392.881" gradientUnits="userSpaceOnUse">
<stop stop-color="white"/>
<stop offset="1" stop-color="white" stop-opacity="0"/>
</linearGradient>
<linearGradient id="paint10_linear_466_8324" x1="488.278" y1="-91.8956" x2="71.854" y2="409.358" gradientUnits="userSpaceOnUse">
<stop stop-color="white"/>
<stop offset="1" stop-color="white" stop-opacity="0"/>
</linearGradient>
<linearGradient id="paint11_linear_466_8324" x1="480.471" y1="-90.8127" x2="82.4813" y2="425.199" gradientUnits="userSpaceOnUse">
<stop stop-color="white"/>
<stop offset="1" stop-color="white" stop-opacity="0"/>
</linearGradient>
<linearGradient id="paint12_linear_466_8324" x1="472.841" y1="-89.7131" x2="93.8077" y2="440.379" gradientUnits="userSpaceOnUse">
<stop stop-color="white"/>
<stop offset="1" stop-color="white" stop-opacity="0"/>
</linearGradient>
<linearGradient id="paint13_linear_466_8324" x1="465.392" y1="-88.6057" x2="105.813" y2="454.871" gradientUnits="userSpaceOnUse">
<stop stop-color="white"/>
<stop offset="1" stop-color="white" stop-opacity="0"/>
</linearGradient>
<linearGradient id="paint14_linear_466_8324" x1="458.119" y1="-87.4946" x2="118.467" y2="468.653" gradientUnits="userSpaceOnUse">
<stop stop-color="white"/>
<stop offset="1" stop-color="white" stop-opacity="0"/>
</linearGradient>
<linearGradient id="paint15_linear_466_8324" x1="451.026" y1="-86.3881" x2="131.747" y2="481.701" gradientUnits="userSpaceOnUse">
<stop stop-color="white"/>
<stop offset="1" stop-color="white" stop-opacity="0"/>
</linearGradient>
<linearGradient id="paint16_linear_466_8324" x1="444.114" y1="-85.2904" x2="145.626" y2="493.993" gradientUnits="userSpaceOnUse">
<stop stop-color="white"/>
<stop offset="1" stop-color="white" stop-opacity="0"/>
</linearGradient>
<linearGradient id="paint17_linear_466_8324" x1="437.38" y1="-84.2103" x2="160.077" y2="505.507" gradientUnits="userSpaceOnUse">
<stop stop-color="white"/>
<stop offset="1" stop-color="white" stop-opacity="0"/>
</linearGradient>
<linearGradient id="paint18_linear_466_8324" x1="430.822" y1="-83.1534" x2="175.066" y2="516.224" gradientUnits="userSpaceOnUse">
<stop stop-color="white"/>
<stop offset="1" stop-color="white" stop-opacity="0"/>
</linearGradient>
<linearGradient id="paint19_linear_466_8324" x1="424.443" y1="-82.1265" x2="190.571" y2="526.123" gradientUnits="userSpaceOnUse">
<stop stop-color="white"/>
<stop offset="1" stop-color="white" stop-opacity="0"/>
</linearGradient>
<linearGradient id="paint20_linear_466_8324" x1="418.237" y1="-81.1345" x2="206.556" y2="535.189" gradientUnits="userSpaceOnUse">
<stop stop-color="white"/>
<stop offset="1" stop-color="white" stop-opacity="0"/>
</linearGradient>
<linearGradient id="paint21_linear_466_8324" x1="412.208" y1="-80.1854" x2="222.995" y2="543.403" gradientUnits="userSpaceOnUse">
<stop stop-color="white"/>
<stop offset="1" stop-color="white" stop-opacity="0"/>
</linearGradient>
</defs>
</svg>
