<svg width="586" height="539" viewBox="0 0 586 539" fill="none" xmlns="http://www.w3.org/2000/svg">
<g opacity="0.5">
<path d="M97.1484 58.23C114.302 109.831 184.163 213.033 326.38 213.033C504.152 213.033 319.24 301.632 422.406 350.362C525.573 399.092 417.974 118.281 564.23 247.242" stroke="url(#paint0_linear_260_1761)"/>
<path d="M205.535 1C182.353 50.2151 161.735 173.166 264.724 271.251C393.461 393.857 198.42 330.516 239.507 436.973C280.594 543.429 396.432 265.774 413.363 460.076" stroke="url(#paint1_linear_260_1761)"/>
<path d="M102.184 55.4053C117.456 107.619 183.533 213.336 325.663 218.488C503.325 224.929 315.315 306.815 416.652 359.274C517.988 411.734 420.635 127.07 562.125 261.31" stroke="url(#paint2_linear_260_1761)"/>
<path d="M107.352 52.6851C120.722 105.418 182.926 213.459 324.775 223.758C502.087 236.632 311.234 311.651 410.604 367.748C509.973 423.845 422.997 135.841 559.531 275.118" stroke="url(#paint3_linear_260_1761)"/>
<path d="M112.52 49.9648C123.971 103.148 182.219 213.371 323.602 228.803C500.331 248.092 306.886 316.148 404.158 375.808C501.429 435.468 424.945 144.502 556.344 288.635" stroke="url(#paint4_linear_260_1761)"/>
<path d="M117.688 47.2446C127.204 100.807 181.421 213.069 322.152 233.613C498.067 259.292 302.282 320.295 397.329 383.44C492.375 446.585 426.483 153.039 552.573 301.838" stroke="url(#paint5_linear_260_1761)"/>
<path d="M122.852 44.5242C130.422 98.3966 180.535 212.549 320.43 238.178C495.298 270.214 297.432 324.083 390.129 390.63C482.825 457.178 427.611 161.437 548.227 314.707" stroke="url(#paint6_linear_260_1761)"/>
<path d="M128.02 41.8037C133.633 95.9151 179.578 211.808 318.452 242.489C492.045 280.84 292.357 327.504 382.581 397.366C472.806 467.228 428.343 169.682 543.327 327.22" stroke="url(#paint7_linear_260_1761)"/>
<path d="M133.188 39.0837C136.837 93.363 178.552 210.844 316.224 246.536C488.313 291.152 287.066 330.551 374.7 403.636C462.334 476.721 428.681 177.759 537.882 339.36" stroke="url(#paint8_linear_260_1761)"/>
<path d="M138.355 36.3638C140.036 90.7396 177.468 209.655 313.756 250.312C484.116 301.133 281.573 333.215 366.501 409.427C451.43 485.639 428.631 185.654 531.905 351.105" stroke="url(#paint9_linear_260_1761)"/>
<path d="M143.523 33.6431C143.232 88.044 176.331 208.238 311.057 253.806C479.464 310.765 275.892 335.488 358.003 414.727C440.115 493.966 428.199 193.352 525.411 362.436" stroke="url(#paint10_linear_260_1761)"/>
<path d="M148.691 30.9229C146.429 85.2775 175.152 206.592 308.138 257.011C474.371 320.034 270.037 337.365 349.223 419.527C428.41 501.689 427.394 200.841 518.416 373.336" stroke="url(#paint11_linear_260_1761)"/>
<path d="M153.859 28.2031C149.63 82.4402 173.938 204.715 305.01 259.919C468.85 328.924 264.022 338.841 340.18 423.818C416.338 508.795 426.223 208.107 510.935 383.787" stroke="url(#paint12_linear_260_1761)"/>
<path d="M159.027 25.4824C152.835 79.5306 172.698 202.606 301.684 262.523C462.916 337.419 257.863 339.907 330.893 427.588C403.922 515.268 424.694 215.136 502.986 393.77" stroke="url(#paint13_linear_260_1761)"/>
<path d="M164.195 22.7622C156.049 76.5506 171.439 200.265 298.17 264.815C456.583 345.504 251.575 340.562 321.379 430.831C391.183 521.099 422.816 221.917 494.584 403.27" stroke="url(#paint14_linear_260_1761)"/>
<path d="M169.363 20.0415C159.274 73.4994 170.172 197.69 294.48 266.79C449.866 353.164 245.171 340.798 311.659 433.537C378.147 526.275 420.599 228.435 485.749 412.27" stroke="url(#paint15_linear_260_1761)"/>
<path d="M174.531 17.3218C162.511 70.379 168.903 194.883 290.626 268.441C442.78 360.389 238.668 340.614 301.753 435.701C364.837 530.788 418.052 234.681 476.499 420.755" stroke="url(#paint16_linear_260_1761)"/>
<path d="M179.695 14.6016C165.761 67.1885 167.637 191.842 286.616 269.762C435.339 367.162 232.077 340.006 291.675 437.315C351.273 534.625 415.181 240.641 466.848 428.711" stroke="url(#paint17_linear_260_1761)"/>
<path d="M184.867 11.8813C169.037 63.9289 166.396 188.569 282.473 270.748C427.569 373.473 225.425 338.97 281.458 438.375C337.491 537.78 412.008 246.304 456.828 436.122" stroke="url(#paint18_linear_260_1761)"/>
<path d="M190.031 9.16089C172.326 60.6007 165.17 185.063 278.194 271.394C419.473 379.308 218.712 337.504 271.107 438.874C323.501 540.244 408.53 251.659 446.443 442.977" stroke="url(#paint19_linear_260_1761)"/>
<path d="M195.199 6.44043C175.642 57.205 163.981 181.327 273.803 271.696C411.08 384.657 211.965 335.607 260.652 438.809C309.34 542.011 404.769 256.696 435.725 449.261" stroke="url(#paint20_linear_260_1761)"/>
<path d="M200.367 3.72046C178.983 53.7431 162.834 177.361 269.309 271.65C402.403 389.511 205.196 333.278 250.112 438.176C295.029 543.074 400.732 261.405 424.691 454.965" stroke="url(#paint21_linear_260_1761)"/>
</g>
<defs>
<linearGradient id="paint0_linear_260_1761" x1="184.308" y1="16.1073" x2="577.986" y2="258.357" gradientUnits="userSpaceOnUse">
<stop stop-color="white"/>
<stop offset="1" stop-color="white" stop-opacity="0"/>
</linearGradient>
<linearGradient id="paint1_linear_260_1761" x1="297.718" y1="30.5946" x2="415.836" y2="477.568" gradientUnits="userSpaceOnUse">
<stop stop-color="white"/>
<stop offset="1" stop-color="white" stop-opacity="0"/>
</linearGradient>
<linearGradient id="paint2_linear_260_1761" x1="190.816" y1="16.4475" x2="575.574" y2="272.765" gradientUnits="userSpaceOnUse">
<stop stop-color="white"/>
<stop offset="1" stop-color="white" stop-opacity="0"/>
</linearGradient>
<linearGradient id="paint3_linear_260_1761" x1="197.337" y1="16.9641" x2="572.556" y2="287.054" gradientUnits="userSpaceOnUse">
<stop stop-color="white"/>
<stop offset="1" stop-color="white" stop-opacity="0"/>
</linearGradient>
<linearGradient id="paint4_linear_260_1761" x1="203.741" y1="17.5275" x2="568.927" y2="301.034" gradientUnits="userSpaceOnUse">
<stop stop-color="white"/>
<stop offset="1" stop-color="white" stop-opacity="0"/>
</linearGradient>
<linearGradient id="paint5_linear_260_1761" x1="210.024" y1="18.1336" x2="564.699" y2="314.685" gradientUnits="userSpaceOnUse">
<stop stop-color="white"/>
<stop offset="1" stop-color="white" stop-opacity="0"/>
</linearGradient>
<linearGradient id="paint6_linear_260_1761" x1="216.182" y1="18.7777" x2="559.88" y2="327.985" gradientUnits="userSpaceOnUse">
<stop stop-color="white"/>
<stop offset="1" stop-color="white" stop-opacity="0"/>
</linearGradient>
<linearGradient id="paint7_linear_260_1761" x1="222.221" y1="19.4556" x2="554.491" y2="340.912" gradientUnits="userSpaceOnUse">
<stop stop-color="white"/>
<stop offset="1" stop-color="white" stop-opacity="0"/>
</linearGradient>
<linearGradient id="paint8_linear_260_1761" x1="228.137" y1="20.1633" x2="548.542" y2="353.447" gradientUnits="userSpaceOnUse">
<stop stop-color="white"/>
<stop offset="1" stop-color="white" stop-opacity="0"/>
</linearGradient>
<linearGradient id="paint9_linear_260_1761" x1="233.928" y1="20.8958" x2="542.048" y2="365.569" gradientUnits="userSpaceOnUse">
<stop stop-color="white"/>
<stop offset="1" stop-color="white" stop-opacity="0"/>
</linearGradient>
<linearGradient id="paint10_linear_260_1761" x1="239.594" y1="21.6479" x2="535.023" y2="377.259" gradientUnits="userSpaceOnUse">
<stop stop-color="white"/>
<stop offset="1" stop-color="white" stop-opacity="0"/>
</linearGradient>
<linearGradient id="paint11_linear_260_1761" x1="245.134" y1="22.4163" x2="527.485" y2="388.497" gradientUnits="userSpaceOnUse">
<stop stop-color="white"/>
<stop offset="1" stop-color="white" stop-opacity="0"/>
</linearGradient>
<linearGradient id="paint12_linear_260_1761" x1="250.546" y1="23.1963" x2="519.449" y2="399.266" gradientUnits="userSpaceOnUse">
<stop stop-color="white"/>
<stop offset="1" stop-color="white" stop-opacity="0"/>
</linearGradient>
<linearGradient id="paint13_linear_260_1761" x1="255.832" y1="23.982" x2="510.933" y2="409.548" gradientUnits="userSpaceOnUse">
<stop stop-color="white"/>
<stop offset="1" stop-color="white" stop-opacity="0"/>
</linearGradient>
<linearGradient id="paint14_linear_260_1761" x1="260.991" y1="24.77" x2="501.955" y2="419.325" gradientUnits="userSpaceOnUse">
<stop stop-color="white"/>
<stop offset="1" stop-color="white" stop-opacity="0"/>
</linearGradient>
<linearGradient id="paint15_linear_260_1761" x1="266.023" y1="25.555" x2="492.533" y2="428.581" gradientUnits="userSpaceOnUse">
<stop stop-color="white"/>
<stop offset="1" stop-color="white" stop-opacity="0"/>
</linearGradient>
<linearGradient id="paint16_linear_260_1761" x1="270.927" y1="26.3337" x2="482.687" y2="437.302" gradientUnits="userSpaceOnUse">
<stop stop-color="white"/>
<stop offset="1" stop-color="white" stop-opacity="0"/>
</linearGradient>
<linearGradient id="paint17_linear_260_1761" x1="275.702" y1="27.1001" x2="472.433" y2="445.471" gradientUnits="userSpaceOnUse">
<stop stop-color="white"/>
<stop offset="1" stop-color="white" stop-opacity="0"/>
</linearGradient>
<linearGradient id="paint18_linear_260_1761" x1="280.358" y1="27.85" x2="461.802" y2="453.074" gradientUnits="userSpaceOnUse">
<stop stop-color="white"/>
<stop offset="1" stop-color="white" stop-opacity="0"/>
</linearGradient>
<linearGradient id="paint19_linear_260_1761" x1="284.881" y1="28.5788" x2="450.8" y2="460.097" gradientUnits="userSpaceOnUse">
<stop stop-color="white"/>
<stop offset="1" stop-color="white" stop-opacity="0"/>
</linearGradient>
<linearGradient id="paint20_linear_260_1761" x1="289.283" y1="29.282" x2="439.459" y2="466.528" gradientUnits="userSpaceOnUse">
<stop stop-color="white"/>
<stop offset="1" stop-color="white" stop-opacity="0"/>
</linearGradient>
<linearGradient id="paint21_linear_260_1761" x1="293.561" y1="29.9558" x2="427.797" y2="472.356" gradientUnits="userSpaceOnUse">
<stop stop-color="white"/>
<stop offset="1" stop-color="white" stop-opacity="0"/>
</linearGradient>
</defs>
</svg>
