<svg width="1189" height="1295" viewBox="0 0 1189 1295" fill="none" xmlns="http://www.w3.org/2000/svg">
<g opacity="0.5">
<path d="M1061.62 214.548C947.663 252.429 719.753 406.709 719.753 720.78C719.753 1113.37 524.092 705.011 416.478 932.842C308.865 1160.67 929.002 923.055 644.206 1246.04" stroke="url(#paint0_linear_333_1099)"/>
<path d="M1188 453.901C1079.31 402.705 807.791 357.174 591.182 584.613C320.422 868.913 460.302 438.189 225.205 528.924C-9.8918 619.659 603.277 875.475 174.185 912.865" stroke="url(#paint1_linear_333_1099)"/>
<path d="M1067.84 225.662C952.535 259.389 719.073 405.313 707.694 719.189C693.47 1111.53 512.636 696.338 396.785 920.128C280.934 1143.92 909.58 928.924 613.128 1241.39" stroke="url(#paint2_linear_333_1099)"/>
<path d="M1073.86 237.084C957.405 266.612 718.809 403.981 696.065 717.239C667.635 1108.81 501.963 687.335 378.08 906.781C254.197 1126.23 890.22 934.151 582.642 1235.67" stroke="url(#paint3_linear_333_1099)"/>
<path d="M1079.88 248.489C962.427 273.777 719.011 402.412 684.933 714.64C642.334 1104.93 492.041 677.724 360.289 892.537C228.537 1107.35 871.101 938.444 552.8 1228.62" stroke="url(#paint4_linear_333_1099)"/>
<path d="M1085.87 259.902C967.58 280.919 719.663 400.65 674.295 711.438C617.584 1099.92 482.868 667.558 343.419 877.456C203.971 1087.36 852.232 941.841 523.628 1220.3" stroke="url(#paint5_linear_333_1099)"/>
<path d="M1091.88 271.306C972.912 288.024 720.82 398.694 664.221 707.635C593.473 1093.81 474.51 656.847 327.548 861.556C180.586 1066.26 833.694 944.332 495.217 1210.7" stroke="url(#paint6_linear_333_1099)"/>
<path d="M1097.9 282.729C978.4 295.125 722.464 396.589 654.709 703.276C570.016 1086.64 466.962 645.649 312.68 844.898C158.398 1044.15 815.495 945.959 467.589 1199.89" stroke="url(#paint7_linear_333_1099)"/>
<path d="M1103.9 294.142C984.029 302.2 724.585 394.325 645.764 698.356C547.236 1078.4 460.228 633.964 298.828 827.493C137.428 1021.02 797.651 946.705 440.774 1187.86" stroke="url(#paint8_linear_333_1099)"/>
<path d="M1109.91 305.555C989.824 309.265 727.212 391.93 637.427 692.906C525.196 1069.13 454.346 621.834 286.041 809.388C117.735 996.943 780.217 946.594 414.837 1174.66" stroke="url(#paint9_linear_333_1099)"/>
<path d="M1115.91 316.959C995.768 316.316 730.334 389.412 629.703 686.937C503.915 1058.84 449.318 609.279 274.327 790.612C99.3371 971.946 763.209 945.632 389.805 1160.31" stroke="url(#paint10_linear_333_1099)"/>
<path d="M1121.92 328.372C1001.89 323.377 733.978 386.808 622.634 680.492C483.453 1047.6 445.18 596.349 263.735 771.224C82.2895 946.098 746.678 943.854 365.742 1144.87" stroke="url(#paint11_linear_333_1099)"/>
<path d="M1127.93 339.786C1008.15 330.445 738.123 384.128 616.212 673.585C463.822 1035.41 441.923 583.068 254.261 751.254C66.5992 919.439 730.633 941.268 342.664 1128.35" stroke="url(#paint12_linear_333_1099)"/>
<path d="M1133.93 351.199C1014.57 337.525 742.773 381.389 610.454 666.239C445.055 1022.3 439.559 569.467 245.927 730.743C52.2948 892.019 715.102 937.892 320.609 1110.79" stroke="url(#paint13_linear_333_1099)"/>
<path d="M1139.95 362.603C1021.16 344.614 747.951 378.601 605.399 658.471C427.209 1008.31 438.123 555.571 238.774 709.725C39.4262 863.88 700.136 933.737 299.638 1092.23" stroke="url(#paint14_linear_333_1099)"/>
<path d="M1145.96 374.026C1027.91 351.744 753.645 375.811 601.046 650.332C410.298 993.483 437.608 541.439 232.805 688.27C28.0028 835.101 685.748 928.85 279.771 1072.73" stroke="url(#paint15_linear_333_1099)"/>
<path d="M1151.95 385.439C1034.78 358.895 759.83 373.009 597.385 641.821C394.33 977.835 437.999 527.078 228.012 666.392C18.024 805.707 671.941 923.225 261.017 1052.3" stroke="url(#paint16_linear_333_1099)"/>
<path d="M1157.97 396.852C1041.84 366.08 766.553 370.224 594.476 632.973C379.38 961.411 439.352 512.531 224.455 644.146C9.55752 775.761 658.787 916.894 243.457 1031" stroke="url(#paint17_linear_333_1099)"/>
<path d="M1163.96 408.266C1049.02 373.306 773.767 367.473 592.284 623.816C365.429 944.244 441.625 497.833 222.1 621.575C2.57556 745.318 646.266 909.88 227.074 1008.86" stroke="url(#paint18_linear_333_1099)"/>
<path d="M1169.98 419.67C1056.38 380.569 781.517 364.767 590.865 614.366C352.55 926.365 444.87 483.007 221.006 598.715C-2.85793 714.423 634.447 902.199 211.945 985.925" stroke="url(#paint19_linear_333_1099)"/>
<path d="M1175.99 431.083C1063.88 387.892 789.777 362.143 590.207 604.67C340.744 907.83 449.067 468.108 221.158 575.629C-6.75141 683.151 623.332 893.893 198.074 962.256" stroke="url(#paint20_linear_333_1099)"/>
<path d="M1181.98 442.497C1071.52 395.272 798.52 359.608 590.294 594.746C330.012 888.669 454.195 453.16 222.54 552.353C-9.11529 651.547 612.919 884.979 185.464 937.89" stroke="url(#paint21_linear_333_1099)"/>
</g>
<defs>
<linearGradient id="paint0_linear_333_1099" x1="1093.64" y1="223.58" x2="619.729" y2="1276.45" gradientUnits="userSpaceOnUse">
<stop stop-color="#254EF5" stop-opacity="0"/>
<stop offset="0.427119" stop-color="#254EF5" stop-opacity="0.49"/>
<stop offset="1" stop-color="#254EF5" stop-opacity="0"/>
</linearGradient>
<linearGradient id="paint1_linear_333_1099" x1="1204.97" y1="482.539" x2="135.627" y2="918.36" gradientUnits="userSpaceOnUse">
<stop stop-color="#254EF5" stop-opacity="0"/>
<stop offset="0.427119" stop-color="#254EF5" stop-opacity="0.49"/>
<stop offset="1" stop-color="#254EF5" stop-opacity="0"/>
</linearGradient>
<linearGradient id="paint2_linear_333_1099" x1="1099.54" y1="235.849" x2="587.904" y2="1271.07" gradientUnits="userSpaceOnUse">
<stop stop-color="#254EF5" stop-opacity="0"/>
<stop offset="0.427119" stop-color="#254EF5" stop-opacity="0.49"/>
<stop offset="1" stop-color="#254EF5" stop-opacity="0"/>
</linearGradient>
<linearGradient id="paint3_linear_333_1099" x1="1105.16" y1="248.413" x2="556.359" y2="1264.41" gradientUnits="userSpaceOnUse">
<stop stop-color="#254EF5" stop-opacity="0"/>
<stop offset="0.427119" stop-color="#254EF5" stop-opacity="0.49"/>
<stop offset="1" stop-color="#254EF5" stop-opacity="0"/>
</linearGradient>
<linearGradient id="paint4_linear_333_1099" x1="1110.75" y1="260.944" x2="525.494" y2="1256.39" gradientUnits="userSpaceOnUse">
<stop stop-color="#254EF5" stop-opacity="0"/>
<stop offset="0.427119" stop-color="#254EF5" stop-opacity="0.49"/>
<stop offset="1" stop-color="#254EF5" stop-opacity="0"/>
</linearGradient>
<linearGradient id="paint5_linear_333_1099" x1="1116.27" y1="273.468" x2="495.333" y2="1247.06" gradientUnits="userSpaceOnUse">
<stop stop-color="#254EF5" stop-opacity="0"/>
<stop offset="0.427119" stop-color="#254EF5" stop-opacity="0.49"/>
<stop offset="1" stop-color="#254EF5" stop-opacity="0"/>
</linearGradient>
<linearGradient id="paint6_linear_333_1099" x1="1121.77" y1="285.965" x2="465.971" y2="1236.42" gradientUnits="userSpaceOnUse">
<stop stop-color="#254EF5" stop-opacity="0"/>
<stop offset="0.427119" stop-color="#254EF5" stop-opacity="0.49"/>
<stop offset="1" stop-color="#254EF5" stop-opacity="0"/>
</linearGradient>
<linearGradient id="paint7_linear_333_1099" x1="1127.24" y1="298.46" x2="437.431" y2="1224.53" gradientUnits="userSpaceOnUse">
<stop stop-color="#254EF5" stop-opacity="0"/>
<stop offset="0.427119" stop-color="#254EF5" stop-opacity="0.49"/>
<stop offset="1" stop-color="#254EF5" stop-opacity="0"/>
</linearGradient>
<linearGradient id="paint8_linear_333_1099" x1="1132.65" y1="310.926" x2="409.742" y2="1211.4" gradientUnits="userSpaceOnUse">
<stop stop-color="#254EF5" stop-opacity="0"/>
<stop offset="0.427119" stop-color="#254EF5" stop-opacity="0.49"/>
<stop offset="1" stop-color="#254EF5" stop-opacity="0"/>
</linearGradient>
<linearGradient id="paint9_linear_333_1099" x1="1138.03" y1="323.37" x2="382.973" y2="1197.06" gradientUnits="userSpaceOnUse">
<stop stop-color="#254EF5" stop-opacity="0"/>
<stop offset="0.427119" stop-color="#254EF5" stop-opacity="0.49"/>
<stop offset="1" stop-color="#254EF5" stop-opacity="0"/>
</linearGradient>
<linearGradient id="paint10_linear_333_1099" x1="1143.37" y1="335.781" x2="357.15" y2="1181.54" gradientUnits="userSpaceOnUse">
<stop stop-color="#254EF5" stop-opacity="0"/>
<stop offset="0.427119" stop-color="#254EF5" stop-opacity="0.49"/>
<stop offset="1" stop-color="#254EF5" stop-opacity="0"/>
</linearGradient>
<linearGradient id="paint11_linear_333_1099" x1="1148.68" y1="348.177" x2="332.34" y2="1164.9" gradientUnits="userSpaceOnUse">
<stop stop-color="#254EF5" stop-opacity="0"/>
<stop offset="0.427119" stop-color="#254EF5" stop-opacity="0.49"/>
<stop offset="1" stop-color="#254EF5" stop-opacity="0"/>
</linearGradient>
<linearGradient id="paint12_linear_333_1099" x1="1153.95" y1="360.547" x2="308.558" y2="1147.15" gradientUnits="userSpaceOnUse">
<stop stop-color="#254EF5" stop-opacity="0"/>
<stop offset="0.427119" stop-color="#254EF5" stop-opacity="0.49"/>
<stop offset="1" stop-color="#254EF5" stop-opacity="0"/>
</linearGradient>
<linearGradient id="paint13_linear_333_1099" x1="1159.18" y1="372.89" x2="285.844" y2="1128.35" gradientUnits="userSpaceOnUse">
<stop stop-color="#254EF5" stop-opacity="0"/>
<stop offset="0.427119" stop-color="#254EF5" stop-opacity="0.49"/>
<stop offset="1" stop-color="#254EF5" stop-opacity="0"/>
</linearGradient>
<linearGradient id="paint14_linear_333_1099" x1="1164.4" y1="385.195" x2="264.26" y2="1108.52" gradientUnits="userSpaceOnUse">
<stop stop-color="#254EF5" stop-opacity="0"/>
<stop offset="0.427119" stop-color="#254EF5" stop-opacity="0.49"/>
<stop offset="1" stop-color="#254EF5" stop-opacity="0"/>
</linearGradient>
<linearGradient id="paint15_linear_333_1099" x1="1169.58" y1="397.488" x2="243.826" y2="1087.72" gradientUnits="userSpaceOnUse">
<stop stop-color="#254EF5" stop-opacity="0"/>
<stop offset="0.427119" stop-color="#254EF5" stop-opacity="0.49"/>
<stop offset="1" stop-color="#254EF5" stop-opacity="0"/>
</linearGradient>
<linearGradient id="paint16_linear_333_1099" x1="1174.71" y1="409.742" x2="224.552" y2="1065.98" gradientUnits="userSpaceOnUse">
<stop stop-color="#254EF5" stop-opacity="0"/>
<stop offset="0.427119" stop-color="#254EF5" stop-opacity="0.49"/>
<stop offset="1" stop-color="#254EF5" stop-opacity="0"/>
</linearGradient>
<linearGradient id="paint17_linear_333_1099" x1="1179.83" y1="421.963" x2="206.52" y2="1043.35" gradientUnits="userSpaceOnUse">
<stop stop-color="#254EF5" stop-opacity="0"/>
<stop offset="0.427119" stop-color="#254EF5" stop-opacity="0.49"/>
<stop offset="1" stop-color="#254EF5" stop-opacity="0"/>
</linearGradient>
<linearGradient id="paint18_linear_333_1099" x1="1184.89" y1="434.152" x2="189.714" y2="1019.87" gradientUnits="userSpaceOnUse">
<stop stop-color="#254EF5" stop-opacity="0"/>
<stop offset="0.427119" stop-color="#254EF5" stop-opacity="0.49"/>
<stop offset="1" stop-color="#254EF5" stop-opacity="0"/>
</linearGradient>
<linearGradient id="paint19_linear_333_1099" x1="1189.96" y1="446.298" x2="174.211" y2="995.571" gradientUnits="userSpaceOnUse">
<stop stop-color="#254EF5" stop-opacity="0"/>
<stop offset="0.427119" stop-color="#254EF5" stop-opacity="0.49"/>
<stop offset="1" stop-color="#254EF5" stop-opacity="0"/>
</linearGradient>
<linearGradient id="paint20_linear_333_1099" x1="1195" y1="458.418" x2="160.015" y2="970.529" gradientUnits="userSpaceOnUse">
<stop stop-color="#254EF5" stop-opacity="0"/>
<stop offset="0.427119" stop-color="#254EF5" stop-opacity="0.49"/>
<stop offset="1" stop-color="#254EF5" stop-opacity="0"/>
</linearGradient>
<linearGradient id="paint21_linear_333_1099" x1="1199.98" y1="470.501" x2="147.13" y2="944.779" gradientUnits="userSpaceOnUse">
<stop stop-color="#254EF5" stop-opacity="0"/>
<stop offset="0.427119" stop-color="#254EF5" stop-opacity="0.49"/>
<stop offset="1" stop-color="#254EF5" stop-opacity="0"/>
</linearGradient>
</defs>
</svg>
