<svg width="1644" height="1510" viewBox="0 0 1644 1510" fill="none" xmlns="http://www.w3.org/2000/svg">
<g opacity="0.5">
<path d="M1371.26 161.534C1323.14 306.277 1127.17 595.765 728.247 595.765C229.587 595.765 748.276 844.292 458.887 980.981C169.499 1117.67 471.319 329.979 61.0643 691.724" stroke="url(#paint0_linear_466_7810)"/>
<path d="M1067.23 1C1132.25 139.051 1190.09 483.937 901.197 759.071C540.084 1102.99 1087.18 925.314 971.933 1223.93C856.682 1522.55 531.748 743.708 484.256 1288.74" stroke="url(#paint1_linear_466_7810)"/>
<path d="M1357.14 153.61C1314.3 300.074 1128.95 596.614 730.265 611.068C231.913 629.136 759.291 858.829 475.036 1005.98C190.78 1153.13 463.862 354.635 66.9726 731.185" stroke="url(#paint2_linear_466_7810)"/>
<path d="M1342.64 145.979C1305.14 293.899 1130.65 596.96 732.755 625.849C235.384 661.961 770.738 872.395 492.001 1029.75C213.263 1187.1 457.236 379.237 74.2495 769.919" stroke="url(#paint3_linear_466_7810)"/>
<path d="M1328.15 138.35C1296.03 287.531 1132.63 596.715 736.046 640.001C240.31 694.109 782.937 885.009 510.084 1052.36C237.23 1219.71 451.773 403.532 83.1928 807.834" stroke="url(#paint4_linear_466_7810)"/>
<path d="M1313.65 130.719C1286.95 280.966 1134.87 595.866 740.113 653.493C246.663 725.526 795.85 896.641 529.239 1073.77C262.628 1250.89 447.459 427.479 93.769 844.869" stroke="url(#paint5_linear_466_7810)"/>
<path d="M1299.16 123.088C1277.92 274.203 1137.35 594.407 744.937 666.298C254.42 756.162 809.446 907.268 549.428 1093.94C289.409 1280.61 444.286 451.036 105.951 880.966" stroke="url(#paint6_linear_466_7810)"/>
<path d="M1284.66 115.458C1268.91 267.243 1140.03 592.33 750.484 678.391C263.545 785.968 823.681 916.865 570.597 1112.83C317.512 1308.8 442.231 474.163 119.695 916.069" stroke="url(#paint7_linear_466_7810)"/>
<path d="M1270.16 107.827C1259.93 260.083 1142.91 589.626 756.735 689.745C274.013 814.893 838.524 925.41 592.706 1130.42C346.888 1335.43 441.285 496.818 134.971 950.12" stroke="url(#paint8_linear_466_7810)"/>
<path d="M1255.67 100.197C1250.96 252.724 1145.96 586.29 763.66 700.334C285.79 842.889 853.934 932.881 615.705 1146.66C377.475 1360.44 441.428 518.964 151.738 983.066" stroke="url(#paint9_linear_466_7810)"/>
<path d="M1241.17 92.5657C1241.99 245.164 1149.14 582.315 771.231 710.135C298.84 869.91 869.872 939.259 639.544 1161.53C409.216 1383.8 442.64 540.558 169.955 1014.85" stroke="url(#paint10_linear_466_7810)"/>
<path d="M1226.68 84.9351C1233.02 237.403 1152.45 577.697 779.419 719.125C313.126 895.911 886.296 944.525 664.172 1174.99C442.049 1405.46 444.899 561.565 189.577 1045.43" stroke="url(#paint11_linear_466_7810)"/>
<path d="M1212.18 77.3057C1224.05 229.444 1155.86 572.433 788.194 727.284C328.613 920.847 903.168 948.663 689.54 1187.03C475.913 1425.4 448.186 581.947 210.562 1074.74" stroke="url(#paint12_linear_466_7810)"/>
<path d="M1197.69 69.6748C1215.06 221.283 1159.34 566.518 797.527 734.588C345.26 944.675 920.445 951.656 715.594 1197.61C510.743 1443.55 452.476 601.665 232.863 1102.74" stroke="url(#paint13_linear_466_7810)"/>
<path d="M1183.19 62.0444C1206.04 212.924 1162.87 559.951 807.385 741.019C363.026 967.354 938.087 953.491 742.281 1206.7C546.476 1459.91 457.744 620.685 256.43 1129.39" stroke="url(#paint14_linear_466_7810)"/>
<path d="M1168.69 54.4131C1197 204.366 1166.43 552.728 817.733 746.557C381.867 988.843 956.048 954.155 769.544 1214.29C583.041 1474.43 463.962 638.97 281.211 1154.64" stroke="url(#paint15_linear_466_7810)"/>
<path d="M1154.2 46.7834C1187.91 195.612 1169.99 544.854 828.545 751.189C401.743 1009.11 974.29 953.639 797.335 1220.36C620.379 1487.09 471.109 656.49 307.16 1178.44" stroke="url(#paint16_linear_466_7810)"/>
<path d="M1139.7 39.1528C1178.79 186.662 1173.53 536.324 839.785 754.894C422.608 1028.11 992.769 951.931 825.593 1224.89C658.417 1497.85 479.152 673.207 334.222 1200.75" stroke="url(#paint17_linear_466_7810)"/>
<path d="M1125.21 31.5225C1169.61 177.519 1177.02 527.142 851.419 757.66C444.414 1045.81 1011.44 949.025 854.265 1227.86C697.088 1506.7 488.063 689.093 362.341 1221.54" stroke="url(#paint18_linear_466_7810)"/>
<path d="M1110.71 23.8914C1160.38 168.183 1180.45 517.308 863.412 759.472C467.114 1062.18 1030.26 944.913 883.292 1229.26C736.321 1513.61 497.811 704.114 391.462 1240.77" stroke="url(#paint19_linear_466_7810)"/>
<path d="M1096.22 16.2612C1151.08 158.659 1183.78 506.828 875.729 760.319C490.659 1077.18 1049.19 939.593 912.616 1229.08C776.044 1518.57 508.362 718.243 421.527 1258.4" stroke="url(#paint20_linear_466_7810)"/>
<path d="M1081.72 8.6311C1141.71 148.948 1187.01 495.703 888.336 760.189C514.999 1090.8 1068.18 933.061 942.183 1227.31C816.189 1521.55 519.686 731.451 452.478 1274.4" stroke="url(#paint21_linear_466_7810)"/>
</g>
<defs>
<linearGradient id="paint0_linear_466_7810" x1="1359.78" y1="120.854" x2="22.4389" y2="722.814" gradientUnits="userSpaceOnUse">
<stop stop-color="#254EF5" stop-opacity="0"/>
<stop offset="0.427119" stop-color="#254EF5" stop-opacity="0.49"/>
<stop offset="1" stop-color="#254EF5" stop-opacity="0"/>
</linearGradient>
<linearGradient id="paint1_linear_466_7810" x1="1030.85" y1="-20.5599" x2="477.276" y2="1337.71" gradientUnits="userSpaceOnUse">
<stop stop-color="#254EF5" stop-opacity="0"/>
<stop offset="0.427119" stop-color="#254EF5" stop-opacity="0.49"/>
<stop offset="1" stop-color="#254EF5" stop-opacity="0"/>
</linearGradient>
<linearGradient id="paint2_linear_466_7810" x1="1344.2" y1="113.353" x2="29.2773" y2="763.224" gradientUnits="userSpaceOnUse">
<stop stop-color="#254EF5" stop-opacity="0"/>
<stop offset="0.427119" stop-color="#254EF5" stop-opacity="0.49"/>
<stop offset="1" stop-color="#254EF5" stop-opacity="0"/>
</linearGradient>
<linearGradient id="paint3_linear_466_7810" x1="1328.25" y1="106.218" x2="37.7398" y2="803.302" gradientUnits="userSpaceOnUse">
<stop stop-color="#254EF5" stop-opacity="0"/>
<stop offset="0.427119" stop-color="#254EF5" stop-opacity="0.49"/>
<stop offset="1" stop-color="#254EF5" stop-opacity="0"/>
</linearGradient>
<linearGradient id="paint4_linear_466_7810" x1="1312.33" y1="99.1353" x2="47.9166" y2="842.518" gradientUnits="userSpaceOnUse">
<stop stop-color="#254EF5" stop-opacity="0"/>
<stop offset="0.427119" stop-color="#254EF5" stop-opacity="0.49"/>
<stop offset="1" stop-color="#254EF5" stop-opacity="0"/>
</linearGradient>
<linearGradient id="paint5_linear_466_7810" x1="1296.42" y1="92.1031" x2="59.7726" y2="880.808" gradientUnits="userSpaceOnUse">
<stop stop-color="#254EF5" stop-opacity="0"/>
<stop offset="0.427119" stop-color="#254EF5" stop-opacity="0.49"/>
<stop offset="1" stop-color="#254EF5" stop-opacity="0"/>
</linearGradient>
<linearGradient id="paint6_linear_466_7810" x1="1280.54" y1="85.1222" x2="73.2789" y2="918.114" gradientUnits="userSpaceOnUse">
<stop stop-color="#254EF5" stop-opacity="0"/>
<stop offset="0.427119" stop-color="#254EF5" stop-opacity="0.49"/>
<stop offset="1" stop-color="#254EF5" stop-opacity="0"/>
</linearGradient>
<linearGradient id="paint7_linear_466_7810" x1="1264.68" y1="78.1913" x2="88.3901" y2="954.376" gradientUnits="userSpaceOnUse">
<stop stop-color="#254EF5" stop-opacity="0"/>
<stop offset="0.427119" stop-color="#254EF5" stop-opacity="0.49"/>
<stop offset="1" stop-color="#254EF5" stop-opacity="0"/>
</linearGradient>
<linearGradient id="paint8_linear_466_7810" x1="1248.84" y1="71.3091" x2="105.075" y2="989.536" gradientUnits="userSpaceOnUse">
<stop stop-color="#254EF5" stop-opacity="0"/>
<stop offset="0.427119" stop-color="#254EF5" stop-opacity="0.49"/>
<stop offset="1" stop-color="#254EF5" stop-opacity="0"/>
</linearGradient>
<linearGradient id="paint9_linear_466_7810" x1="1233.04" y1="64.4754" x2="123.29" y2="1023.54" gradientUnits="userSpaceOnUse">
<stop stop-color="#254EF5" stop-opacity="0"/>
<stop offset="0.427119" stop-color="#254EF5" stop-opacity="0.49"/>
<stop offset="1" stop-color="#254EF5" stop-opacity="0"/>
</linearGradient>
<linearGradient id="paint10_linear_466_7810" x1="1217.27" y1="57.6876" x2="142.991" y2="1056.33" gradientUnits="userSpaceOnUse">
<stop stop-color="#254EF5" stop-opacity="0"/>
<stop offset="0.427119" stop-color="#254EF5" stop-opacity="0.49"/>
<stop offset="1" stop-color="#254EF5" stop-opacity="0"/>
</linearGradient>
<linearGradient id="paint11_linear_466_7810" x1="1201.52" y1="50.9461" x2="164.134" y2="1087.85" gradientUnits="userSpaceOnUse">
<stop stop-color="#254EF5" stop-opacity="0"/>
<stop offset="0.427119" stop-color="#254EF5" stop-opacity="0.49"/>
<stop offset="1" stop-color="#254EF5" stop-opacity="0"/>
</linearGradient>
<linearGradient id="paint12_linear_466_7810" x1="1185.81" y1="44.2504" x2="186.673" y2="1118.06" gradientUnits="userSpaceOnUse">
<stop stop-color="#254EF5" stop-opacity="0"/>
<stop offset="0.427119" stop-color="#254EF5" stop-opacity="0.49"/>
<stop offset="1" stop-color="#254EF5" stop-opacity="0"/>
</linearGradient>
<linearGradient id="paint13_linear_466_7810" x1="1170.14" y1="37.5967" x2="210.559" y2="1146.9" gradientUnits="userSpaceOnUse">
<stop stop-color="#254EF5" stop-opacity="0"/>
<stop offset="0.427119" stop-color="#254EF5" stop-opacity="0.49"/>
<stop offset="1" stop-color="#254EF5" stop-opacity="0"/>
</linearGradient>
<linearGradient id="paint14_linear_466_7810" x1="1154.5" y1="30.9856" x2="235.74" y2="1174.33" gradientUnits="userSpaceOnUse">
<stop stop-color="#254EF5" stop-opacity="0"/>
<stop offset="0.427119" stop-color="#254EF5" stop-opacity="0.49"/>
<stop offset="1" stop-color="#254EF5" stop-opacity="0"/>
</linearGradient>
<linearGradient id="paint15_linear_466_7810" x1="1138.89" y1="24.4142" x2="262.163" y2="1200.29" gradientUnits="userSpaceOnUse">
<stop stop-color="#254EF5" stop-opacity="0"/>
<stop offset="0.427119" stop-color="#254EF5" stop-opacity="0.49"/>
<stop offset="1" stop-color="#254EF5" stop-opacity="0"/>
</linearGradient>
<linearGradient id="paint16_linear_466_7810" x1="1123.33" y1="17.884" x2="289.779" y2="1224.76" gradientUnits="userSpaceOnUse">
<stop stop-color="#254EF5" stop-opacity="0"/>
<stop offset="0.427119" stop-color="#254EF5" stop-opacity="0.49"/>
<stop offset="1" stop-color="#254EF5" stop-opacity="0"/>
</linearGradient>
<linearGradient id="paint17_linear_466_7810" x1="1107.81" y1="11.3908" x2="318.53" y2="1247.67" gradientUnits="userSpaceOnUse">
<stop stop-color="#254EF5" stop-opacity="0"/>
<stop offset="0.427119" stop-color="#254EF5" stop-opacity="0.49"/>
<stop offset="1" stop-color="#254EF5" stop-opacity="0"/>
</linearGradient>
<linearGradient id="paint18_linear_466_7810" x1="1092.33" y1="4.93424" x2="348.36" y2="1269" gradientUnits="userSpaceOnUse">
<stop stop-color="#254EF5" stop-opacity="0"/>
<stop offset="0.427119" stop-color="#254EF5" stop-opacity="0.49"/>
<stop offset="1" stop-color="#254EF5" stop-opacity="0"/>
</linearGradient>
<linearGradient id="paint19_linear_466_7810" x1="1076.89" y1="-1.48812" x2="379.21" y2="1288.7" gradientUnits="userSpaceOnUse">
<stop stop-color="#254EF5" stop-opacity="0"/>
<stop offset="0.427119" stop-color="#254EF5" stop-opacity="0.49"/>
<stop offset="1" stop-color="#254EF5" stop-opacity="0"/>
</linearGradient>
<linearGradient id="paint20_linear_466_7810" x1="1061.5" y1="-7.87618" x2="411.019" y2="1306.74" gradientUnits="userSpaceOnUse">
<stop stop-color="#254EF5" stop-opacity="0"/>
<stop offset="0.427119" stop-color="#254EF5" stop-opacity="0.49"/>
<stop offset="1" stop-color="#254EF5" stop-opacity="0"/>
</linearGradient>
<linearGradient id="paint21_linear_466_7810" x1="1046.15" y1="-14.2325" x2="443.729" y2="1323.09" gradientUnits="userSpaceOnUse">
<stop stop-color="#254EF5" stop-opacity="0"/>
<stop offset="0.427119" stop-color="#254EF5" stop-opacity="0.49"/>
<stop offset="1" stop-color="#254EF5" stop-opacity="0"/>
</linearGradient>
</defs>
</svg>
