<svg width="32" height="33" viewBox="0 0 32 33" fill="none" xmlns="http://www.w3.org/2000/svg">
<g clip-path="url(#clip0_316_2672)">
<path d="M0 0.5V32.5H32V0.5H0ZM22.3875 14.0125C22.3938 14.15 22.3937 14.2937 22.3937 14.4375C22.3937 18.7812 19.0875 23.7938 13.0375 23.7938C11.1813 23.7938 9.45 23.25 8 22.3188C8.25625 22.35 8.51875 22.3625 8.7875 22.3625C10.325 22.3625 11.7437 21.8375 12.8687 20.9562C11.4312 20.9312 10.2125 19.9812 9.8 18.675C10 18.7125 10.2063 18.7313 10.4187 18.7313C10.7188 18.7313 11.0125 18.6937 11.2875 18.6125C9.78125 18.3125 8.65 16.9813 8.65 15.3875V15.35C9.09375 15.5938 9.6 15.7438 10.1375 15.7625C9.25625 15.175 8.675 14.1625 8.675 13.025C8.675 12.425 8.8375 11.8562 9.11875 11.3687C10.7437 13.3625 13.1625 14.6687 15.8938 14.8062C15.8375 14.5687 15.8062 14.3187 15.8062 14.0562C15.8062 12.2437 17.2812 10.7687 19.0938 10.7687C20.0375 10.7687 20.8937 11.1687 21.4937 11.8062C22.2437 11.6562 22.9437 11.3875 23.5812 11.0063C23.3375 11.775 22.8125 12.4188 22.1375 12.825C22.8 12.7438 23.4375 12.5687 24.025 12.3062C23.5875 12.9688 23.0312 13.5438 22.3875 14.0125Z" fill="black"/>
</g>
<defs>
<clipPath id="clip0_316_2672">
<rect y="0.5" width="32" height="32" rx="4" fill="white"/>
</clipPath>
</defs>
</svg>
