<svg width="200" height="53" viewBox="0 0 200 53" fill="none" xmlns="http://www.w3.org/2000/svg">
<g clip-path="url(#clip0_454_9384)">
<path d="M189.301 25.2305L200 52.9482C196.847 52.5075 193.696 51.9556 190.487 51.4583L184.46 36.1432L178.267 50.194C175.227 49.6968 172.242 49.5312 169.202 49.145L180.069 24.9009L170.213 0.0518799H179.335L184.852 13.9354L190.766 0.0518799H199.998L189.301 25.2305ZM163.009 0.0518799H154.732V48.0994C157.434 48.2652 160.249 48.3744 163.009 48.7041V0.0518799ZM147.58 47.5476C140.036 47.052 132.49 46.6131 124.777 46.4456V0.0520928H133.222V38.6221C138.065 38.7315 142.906 39.1159 147.58 39.3363V47.5476ZM115.766 18.8424V27.1065H104.224V45.8953H95.8921V0.0518799H119.541V8.31602H104.225V18.8426H115.768L115.766 18.8424ZM81.701 8.31602V46.3361C78.8848 46.3361 76.0147 46.3361 73.2542 46.4456V8.31602H64.5264V0.0518799H90.4828V8.31602H81.701ZM55.4058 27.5457C51.6903 27.5457 47.2975 27.5457 44.1444 27.7132V39.9991C49.0993 39.6677 54.0542 39.2832 59.0649 39.1176V47.052L35.6994 48.8717V0.0518799H59.0634V8.31602H44.1442V19.4471C47.4108 19.4471 52.4217 19.2815 55.4053 19.2815V27.5474L55.4058 27.5457ZM8.61274 22.9172V51.7897C5.5749 52.1212 2.87033 52.5073 0 52.9482V0.0518799H8.05237L19.031 30.0831V0.0518799H27.4777V49.5312C24.4939 50.0284 21.4525 50.194 18.2435 50.6332L8.61274 22.9172Z" fill="#E50914"/>
</g>
<defs>
<clipPath id="clip0_454_9384">
<rect width="200" height="53" fill="white"/>
</clipPath>
</defs>
</svg>
