<svg width="172" height="51" viewBox="0 0 172 51" fill="none" xmlns="http://www.w3.org/2000/svg">
<g clip-path="url(#clip0_2005_6331)">
<path d="M72.3994 35.9645H64.8735C63.9488 35.9645 63.209 35.2339 63.209 34.3207V18.5008C63.209 17.124 64.3471 16 65.7413 16H72.7266C76.5251 16 79.0575 17.5033 79.0575 21.0438C79.0575 23.1512 78.1896 24.4157 76.6247 25.1884C78.6164 25.9471 79.783 27.2397 79.783 29.881C79.783 34.0256 76.767 35.9645 72.3994 35.9645ZM71.873 19.4562H68.1741C67.6904 19.4562 67.292 19.8496 67.292 20.3273V22.6174C67.292 23.2355 67.8042 23.7413 68.4302 23.7413H71.9299C73.566 23.7413 74.9033 23.2355 74.9033 21.5636C74.9033 19.9058 73.7367 19.4562 71.873 19.4562ZM72.0437 27.1273H68.6578C67.9038 27.1273 67.2778 27.7314 67.2778 28.4901V31.2298C67.2778 31.8479 67.79 32.3678 68.4302 32.3678H72.1006C74.1493 32.3678 75.4012 31.7777 75.4012 29.7826C75.4012 27.7033 74.192 27.1273 72.0437 27.1273Z" fill="#254EF5"/>
<path d="M96.3987 20.4255V29.7685C96.3987 30.0074 96.3987 30.2462 96.3845 30.485C96.3845 30.5553 96.3703 30.6255 96.3703 30.6958C96.3703 30.7098 96.3703 30.7239 96.3703 30.7239C96.228 32.8594 95.5451 34.3065 94.3217 35.0512C93.6957 35.4164 93.027 35.6834 92.3299 35.8941C91.5475 36.133 90.7508 36.2594 89.8829 36.2594C89.8545 36.2594 89.8118 36.2594 89.7834 36.2594C88.9013 36.2454 88.0477 36.133 87.2368 35.8941C86.5397 35.6693 85.871 35.3602 85.2166 34.9388C83.9789 34.166 83.296 32.6908 83.1822 30.485C83.168 30.2602 83.168 30.0214 83.168 29.7685V20.4255C85.3446 20.4255 87.123 22.1677 87.123 24.3313V30.5553C87.123 32.2272 87.9623 33.0842 89.6411 33.1404C89.6838 33.1404 89.7264 33.1404 89.7834 33.1404C89.8403 33.1404 89.8972 33.1404 89.9541 33.1404C91.6328 33.0842 92.4722 32.2412 92.4722 30.5553V24.3313C92.4437 22.1817 94.2078 20.4255 96.3987 20.4255Z" fill="#254EF5"/>
<path d="M103.84 19.9058V33.8851C103.84 35.0372 102.901 35.9645 101.734 35.9645H99.8848V16C102.061 16 103.84 17.7562 103.84 19.9058Z" fill="#254EF5"/>
<path d="M111.253 19.9058V33.9273C111.253 35.0512 110.329 35.9645 109.19 35.9645H107.312V16C109.475 16 111.253 17.7562 111.253 19.9058Z" fill="#254EF5"/>
<path d="M118.637 19.9058V26.5091L122.365 22.2802C123.09 21.4653 124.143 20.9876 125.238 20.9876H128.254L122.82 26.7479L128.326 35.9645H124.883C124.072 35.9645 123.332 35.5289 122.934 34.8264L120.771 30.8645C120.259 29.9793 119.761 29.5438 119.249 29.5438C118.836 29.6281 118.623 29.895 118.623 30.3025V34.1661C118.623 35.1636 117.812 35.9645 116.802 35.9645H114.668V16C116.859 16 118.637 17.7562 118.637 19.9058Z" fill="black"/>
<path d="M136.818 36.3156C132.066 36.1751 129.676 33.4354 129.676 28.1527C129.676 22.8701 132.08 20.2288 136.874 20.2007C140.915 20.2007 143.22 22.1817 143.803 26.1437C144.045 27.8156 142.722 29.3048 141.014 29.3048H134.669C134.157 29.3048 133.773 29.7684 133.873 30.2602C134.214 32.0023 135.224 32.8875 136.874 32.8875C137.799 32.8875 138.653 32.5081 139.435 31.7775C139.791 31.3982 140.232 31.2156 140.773 31.2156H143.689C142.821 34.4891 140.687 36.3156 136.818 36.3156ZM134.584 26.5089H139.108C139.449 26.5089 139.706 26.1999 139.634 25.8767C139.279 24.247 138.34 23.404 136.832 23.404C135.366 23.404 134.413 24.1908 133.986 25.7362C133.873 26.1156 134.171 26.5089 134.584 26.5089Z" fill="black"/>
<path d="M146.977 27.9421C147.09 22.9264 149.808 20.4255 155.057 20.4255H155.626V23.1652C155.626 23.8958 155.029 24.4859 154.289 24.4859C152.084 24.4859 150.988 25.6379 150.988 27.8859V33.7586C150.988 34.9809 149.993 35.9644 148.755 35.9644H146.977V27.9421Z" fill="black"/>
<path d="M171.999 28.2653C171.999 33.6041 169.595 36.3157 164.829 36.3157C160.078 36.3157 157.688 33.6182 157.688 28.2653C157.688 22.8562 160.063 20.1868 164.829 20.1868C169.581 20.1868 171.999 22.8702 171.999 28.2653ZM161.714 28.2653C161.742 31.2859 162.781 32.8174 164.801 32.8174C166.821 32.8174 167.831 31.2297 167.86 28.1529C167.86 25.1322 166.849 23.6289 164.829 23.6289C162.752 23.6289 161.714 25.1884 161.714 28.2653Z" fill="black"/>
<path d="M26.0641 43.4414C26.9319 43.4414 27.7997 43.7224 28.511 44.2984C28.8667 44.5794 29.1797 44.9307 29.4215 45.3381C29.6634 45.7455 29.8483 46.2092 29.9195 46.715C29.9906 47.2067 29.9764 47.7406 29.8341 48.2464C29.6918 48.7522 29.4358 49.2579 29.0801 49.6794C28.7244 50.1009 28.2692 50.4521 27.7428 50.691C27.2306 50.9298 26.6473 51.0563 26.0783 51.0563C25.936 51.0563 25.7937 51.0422 25.6515 51.0282C25.5092 51.0141 25.3669 50.986 25.2247 50.9579C25.0824 50.9298 24.9544 50.8877 24.8121 50.8455C24.6841 50.8034 24.5418 50.7472 24.4138 50.691C23.9016 50.4521 23.4321 50.1009 23.0765 49.6794C22.7208 49.2579 22.4647 48.7662 22.3224 48.2604C22.1802 47.7546 22.166 47.2207 22.2371 46.729C22.3082 46.2373 22.4789 45.7596 22.735 45.3521C22.9769 44.9447 23.2899 44.5935 23.6455 44.3125C24.3426 43.7224 25.2105 43.4414 26.0641 43.4414ZM26.0641 43.5678C25.2247 43.5678 24.4138 43.9191 23.8305 44.4951C23.2472 45.0712 22.92 45.886 22.92 46.7009C22.92 47.5158 23.2614 48.3166 23.8589 48.8786C24.4422 49.4546 25.2531 49.7778 26.0641 49.7637C26.875 49.7778 27.7001 49.4406 28.2692 48.8786C28.8525 48.3166 29.1939 47.5158 29.2081 46.7009C29.2224 45.886 28.8809 45.0712 28.2976 44.4951C27.7286 43.905 26.9034 43.5678 26.0641 43.5678Z" fill="#254EF5"/>
<path d="M8.45028 6.8562C6.08866 9.44132 4.7229 12.3777 4.95053 15.9322C5.17816 19.4727 6.89958 22.2265 9.55996 24.5025C8.67791 24.362 7.82431 24.1231 7.01339 23.8C3.01571 22.2124 0.767898 19.262 0.1277 15.0893C-0.299099 12.2653 0.654086 9.89091 2.63159 7.86777C2.68849 7.81157 2.81653 7.76943 2.88767 7.79753C4.8794 8.44381 6.7004 8.14877 8.37915 6.9124C8.39337 6.89835 8.42183 6.87025 8.45028 6.8562Z" fill="#254EF5"/>
<path d="M9.77452 0.0561523C10.6708 1.37681 10.6708 3.80739 9.41886 5.3388C7.86815 7.24954 5.40695 7.67103 3.58594 6.9826C3.9416 6.67351 4.28304 6.39252 4.61025 6.09747C5.36427 5.43714 6.14673 4.80491 6.87229 4.13053C7.72589 3.34376 8.4799 2.48673 9.06319 1.47516C9.34772 1.02557 9.5469 0.533838 9.77452 0.0561523Z" fill="#254EF5"/>
<path d="M21.0987 43.6521C21.0845 43.5538 21.0418 43.4414 21.0418 43.343C21.0133 42.1488 20.743 41.0108 20.1313 39.9852C19.8183 39.4654 19.4057 38.9877 19.0074 38.524C18.8651 38.3554 18.7797 38.2149 18.7655 38.0042C18.6375 35.8265 18.0542 33.7753 17.0156 31.8505C16.6884 31.2464 16.3043 30.6844 15.9486 30.1083C15.906 30.0521 15.8775 29.9819 15.8633 29.8835C15.9486 29.9538 16.034 30.024 16.1194 30.0943C18.8082 32.5249 20.5865 35.4612 21.2836 39.0158C21.5682 40.4769 21.5539 41.9521 21.2552 43.4133C21.2409 43.4976 21.1983 43.5678 21.184 43.6521C21.1698 43.6381 21.1271 43.6521 21.0987 43.6521Z" fill="#254EF5"/>
<path d="M44.0315 21.6784C43.3344 22.69 42.4097 23.5049 41.4992 24.3338C40.0481 25.6404 38.3978 26.5817 36.6052 27.2982C36.2922 27.4247 35.9792 27.5371 35.6947 27.6916C34.4285 28.4222 33.1766 29.1668 31.9104 29.8974C31.4125 30.1925 30.9003 30.4875 30.4024 30.7825C30.4451 30.8106 30.4735 30.7966 30.502 30.7966C32.323 30.2768 34.1298 29.7429 35.9508 29.223C36.0646 29.1949 36.1926 29.1668 36.3065 29.1387C36.3207 29.1668 36.3207 29.1809 36.3349 29.209C36.2638 29.2652 36.1926 29.3214 36.1215 29.3776C34.8127 30.3892 33.6603 31.5553 32.6929 32.904C30.4166 36.0792 29.1931 39.5495 29.7337 43.4974C29.7907 43.9189 29.748 44.3263 29.435 44.6073C29.1362 44.8883 28.7948 45.1412 28.4249 45.3239C27.6424 45.6892 26.8031 45.7735 25.9495 45.7454C25.0959 45.7735 24.2565 45.7032 23.474 45.3239C23.1041 45.1553 22.7627 44.8883 22.4639 44.6073C22.1652 44.3123 22.1083 43.9189 22.1652 43.4974C22.7058 39.5495 21.4823 36.0792 19.206 32.904C18.2386 31.5553 17.0863 30.3892 15.7774 29.3776C15.7063 29.3214 15.6352 29.2652 15.564 29.209C15.5782 29.1809 15.5782 29.1668 15.5925 29.1387C15.7063 29.1668 15.8343 29.1809 15.9481 29.223C17.7691 29.7429 19.5759 30.2627 21.3969 30.7966C21.4254 30.8106 21.4538 30.8106 21.4965 30.7825C20.9986 30.4875 20.4864 30.1925 19.9885 29.8974C18.7223 29.1528 17.4704 28.4082 16.2042 27.6916C15.9197 27.523 15.6067 27.4247 15.2937 27.2982C13.5012 26.5817 11.8366 25.6404 10.3998 24.3338C9.48925 23.5049 8.56452 22.69 7.86741 21.6784C6.75774 20.0768 6.11754 18.3206 6.2029 16.3396C6.21712 15.904 6.28826 15.4825 6.34516 15.033C6.4163 15.0611 6.44475 15.0611 6.44475 15.0751C7.1134 16.6065 8.36534 17.4916 9.88759 18.0396C11.4241 18.6016 13.0317 18.9387 14.6535 19.1916C18.3951 19.7817 22.1652 19.9784 25.9495 20.0065C29.7337 19.9784 33.5038 19.7817 37.2454 19.1916C38.8672 18.9387 40.4606 18.6016 42.0113 18.0396C43.5336 17.4916 44.7855 16.5925 45.4542 15.0751C45.4542 15.0611 45.4826 15.0611 45.5538 15.033C45.5964 15.4825 45.6676 15.904 45.696 16.3396C45.7814 18.3206 45.1412 20.0768 44.0315 21.6784Z" fill="#254EF5"/>
<path d="M43.4769 6.8562C45.8385 9.44132 47.2042 12.3777 46.9766 15.9322C46.749 19.4727 45.0276 22.2265 42.3672 24.5025C43.2492 24.362 44.1028 24.1231 44.9138 23.8C48.9114 22.2124 51.1592 19.262 51.7994 15.0893C52.2262 12.2653 51.2731 9.89091 49.2956 7.86777C49.2387 7.81157 49.1106 7.76943 49.0395 7.79753C47.0478 8.44381 45.2267 8.14877 43.548 6.9124C43.5338 6.89835 43.5053 6.87025 43.4769 6.8562Z" fill="#254EF5"/>
<path d="M42.1528 0.0561523C41.2565 1.37681 41.2565 3.80739 42.5085 5.3388C44.0592 7.24954 46.5204 7.67103 48.3414 6.9826C47.9857 6.67351 47.6443 6.39252 47.3171 6.09747C46.5631 5.43714 45.7806 4.80491 45.0551 4.13053C44.2015 3.34376 43.4475 2.48673 42.8642 1.47516C42.5796 1.02557 42.3805 0.533838 42.1528 0.0561523Z" fill="#254EF5"/>
<path d="M30.8292 43.6521C30.8434 43.5538 30.8861 43.4414 30.8861 43.343C30.9146 42.1488 31.1849 41.0108 31.7966 39.9852C32.1096 39.4654 32.5222 38.9877 32.9205 38.524C33.0628 38.3554 33.1481 38.2149 33.1624 38.0042C33.2904 35.8265 33.8737 33.7753 34.9122 31.8505C35.2395 31.2464 35.6236 30.6844 35.9792 30.1083C36.0219 30.0521 36.0504 29.9819 36.0646 29.8835C35.9792 29.9538 35.8939 30.024 35.8085 30.0943C33.1197 32.5249 31.3414 35.4612 30.6443 39.0158C30.3597 40.4769 30.3739 41.9521 30.6727 43.4133C30.6869 43.4976 30.7296 43.5678 30.7438 43.6521C30.7581 43.6381 30.7865 43.6521 30.8292 43.6521Z" fill="#254EF5"/>
</g>
<defs>
<clipPath id="clip0_2005_6331">
<rect width="172" height="51" fill="white"/>
</clipPath>
</defs>
</svg>
