<svg width="137" height="114" viewBox="0 0 137 114" fill="none" xmlns="http://www.w3.org/2000/svg">
<path d="M69.0961 64.3267C70.3978 64.3267 71.6995 64.7427 72.7665 65.5957C73.3 66.0118 73.7695 66.5319 74.1323 67.1352C74.4951 67.7385 74.7725 68.4251 74.8792 69.174C74.9859 69.9022 74.9646 70.6927 74.7512 71.4417C74.5378 72.1906 74.1536 72.9396 73.6201 73.5637C73.0866 74.1878 72.4038 74.7079 71.6142 75.0616C70.846 75.4153 69.971 75.6025 69.1174 75.6025C68.904 75.6025 68.6906 75.5817 68.4772 75.5609C68.2638 75.5401 68.0504 75.4985 67.837 75.4569C67.6236 75.4153 67.4316 75.3529 67.2182 75.2905C67.0261 75.2281 66.8127 75.1448 66.6206 75.0616C65.8524 74.7079 65.1482 74.1878 64.6147 73.5637C64.0812 72.9396 63.6971 72.2114 63.4837 71.4625C63.2703 70.7135 63.2489 69.923 63.3556 69.1948C63.4623 68.4667 63.7184 67.7593 64.1025 67.156C64.4653 66.5527 64.9348 66.0326 65.4683 65.6165C66.5139 64.7427 67.8157 64.3267 69.0961 64.3267ZM69.0961 64.5139C67.837 64.5139 66.6206 65.034 65.7457 65.887C64.8708 66.7399 64.3799 67.9466 64.3799 69.1532C64.3799 70.3599 64.8921 71.5457 65.7884 72.3779C66.6633 73.2309 67.8797 73.7094 69.0961 73.6885C70.3125 73.7094 71.5502 73.2101 72.4038 72.3779C73.2787 71.5457 73.7909 70.3599 73.8122 69.1532C73.8335 67.9466 73.3214 66.7399 72.4464 65.887C71.5928 65.0132 70.3551 64.5139 69.0961 64.5139Z" fill="white"/>
<path d="M42.6754 10.1523C39.133 13.9803 37.0844 18.3284 37.4258 23.5919C37.7672 28.8345 40.3494 32.9121 44.3399 36.2824C43.0169 36.0744 41.7365 35.7207 40.5201 35.2422C34.5236 32.8913 31.1518 28.5224 30.1915 22.3436C29.5514 18.162 30.9811 14.6461 33.9474 11.6502C34.0327 11.567 34.2248 11.5046 34.3315 11.5462C37.3191 12.5032 40.0506 12.0663 42.5687 10.2356C42.5901 10.2148 42.6327 10.1731 42.6754 10.1523Z" fill="white"/>
<path d="M44.6618 0.083252C46.0062 2.03885 46.0062 5.63797 44.1283 7.90563C41.8022 10.735 38.1104 11.3591 35.3789 10.3397C35.9124 9.88203 36.4246 9.46595 36.9154 9.02906C38.0464 8.05126 39.2201 7.11507 40.3084 6.11647C41.5888 4.95143 42.7198 3.68238 43.5948 2.18448C44.0216 1.51874 44.3203 0.790595 44.6618 0.083252Z" fill="white"/>
<path d="M61.648 64.6388C61.6267 64.4932 61.5627 64.3268 61.5627 64.1811C61.52 62.4128 61.1145 60.7276 60.1969 59.2089C59.7274 58.4392 59.1086 57.7319 58.5111 57.0453C58.2977 56.7957 58.1696 56.5876 58.1483 56.2756C57.9562 53.0509 57.0813 50.0135 55.5235 47.1633C55.0326 46.2687 54.4565 45.4366 53.923 44.5836C53.8589 44.5004 53.8163 44.3964 53.7949 44.2507C53.923 44.3548 54.051 44.4588 54.179 44.5628C58.2123 48.1619 60.8798 52.51 61.9254 57.7735C62.3522 59.9371 62.3309 62.1215 61.8828 64.2852C61.8614 64.41 61.7974 64.514 61.7761 64.6388C61.7547 64.618 61.6907 64.6388 61.648 64.6388Z" fill="white"/>
<path d="M96.0473 32.1006C95.0016 33.5985 93.6145 34.8052 92.2488 36.0326C90.0721 37.9674 87.5966 39.3613 84.9078 40.4223C84.4383 40.6096 83.9689 40.776 83.5421 41.0048C81.6428 42.0866 79.7649 43.1893 77.8656 44.2711C77.1187 44.708 76.3505 45.1449 75.6036 45.5818C75.6676 45.6234 75.7103 45.6026 75.753 45.6026C78.4845 44.8328 81.1947 44.0422 83.9262 43.2725C84.0969 43.2309 84.289 43.1893 84.4597 43.1477C84.481 43.1893 84.481 43.2101 84.5024 43.2517C84.3957 43.3349 84.289 43.4181 84.1823 43.5013C82.219 44.9992 80.4904 46.726 79.0393 48.7232C75.6249 53.4249 73.7897 58.5636 74.6006 64.4095C74.686 65.0337 74.622 65.637 74.1525 66.0531C73.7043 66.4692 73.1922 66.8436 72.6373 67.1141C71.4636 67.655 70.2046 67.7798 68.9242 67.7382C67.6438 67.7798 66.3847 67.6758 65.211 67.1141C64.6562 66.8644 64.144 66.4692 63.6959 66.0531C63.2478 65.6162 63.1624 65.0337 63.2478 64.4095C64.0587 58.5636 62.2235 53.4249 58.8091 48.7232C57.3579 46.726 55.6294 44.9992 53.6661 43.5013C53.5594 43.4181 53.4527 43.3349 53.346 43.2517C53.3674 43.2101 53.3674 43.1893 53.3887 43.1477C53.5594 43.1893 53.7515 43.2101 53.9222 43.2725C56.6537 44.0422 59.3639 44.812 62.0954 45.6026C62.1381 45.6234 62.1808 45.6234 62.2448 45.5818C61.4979 45.1449 60.7297 44.708 59.9828 44.2711C58.0835 43.1685 56.2056 42.0658 54.3063 41.0048C53.8795 40.7552 53.4101 40.6096 52.9406 40.4223C50.2517 39.3613 47.755 37.9674 45.5996 36.0326C44.2339 34.8052 42.8468 33.5985 41.8011 32.1006C40.1366 29.729 39.1763 27.1284 39.3043 24.195C39.3257 23.5501 39.4324 22.926 39.5177 22.2603C39.6244 22.3019 39.6671 22.3019 39.6671 22.3227C40.6701 24.5903 42.548 25.901 44.8314 26.7124C47.1361 27.5445 49.5475 28.0438 51.9803 28.4183C57.5927 29.2921 63.2478 29.5833 68.9242 29.6249C74.6006 29.5833 80.2557 29.2921 85.8681 28.4183C88.3009 28.0438 90.6909 27.5445 93.017 26.7124C95.3004 25.901 97.1783 24.5695 98.1813 22.3227C98.1813 22.3019 98.2239 22.3019 98.3307 22.2603C98.3947 22.926 98.5014 23.5501 98.544 24.195C98.6721 27.1284 97.7118 29.729 96.0473 32.1006Z" fill="white"/>
<path d="M95.2153 10.1523C98.7577 13.9803 100.806 18.3284 100.465 23.5919C100.123 28.8345 97.5414 32.9121 93.5508 36.2824C94.8739 36.0744 96.1543 35.7207 97.3706 35.2422C103.367 32.8913 106.739 28.5224 107.699 22.3436C108.339 18.162 106.91 14.6461 103.943 11.6502C103.858 11.567 103.666 11.5046 103.559 11.5462C100.572 12.5032 97.8401 12.0663 95.322 10.2356C95.3007 10.2148 95.258 10.1731 95.2153 10.1523Z" fill="white"/>
<path d="M93.2292 0.083252C91.8848 2.03885 91.8848 5.63797 93.7627 7.90563C96.0888 10.735 99.7806 11.3591 102.512 10.3397C101.979 9.88203 101.466 9.46595 100.976 9.02906C99.8446 8.05126 98.6709 7.11507 97.5826 6.11647C96.3022 4.95143 95.1712 3.68238 94.2962 2.18448C93.8694 1.51874 93.5707 0.790595 93.2292 0.083252Z" fill="white"/>
<path d="M76.2428 64.6386C76.2642 64.493 76.3282 64.3265 76.3282 64.1809C76.3709 62.4125 76.7763 60.7274 77.6939 59.2087C78.1634 58.4389 78.7823 57.7316 79.3798 57.0451C79.5932 56.7954 79.7212 56.5874 79.7426 56.2753C79.9346 53.0507 80.8096 50.0133 82.3674 47.1631C82.8582 46.2685 83.4344 45.4363 83.9679 44.5834C84.0319 44.5001 84.0746 44.3961 84.0959 44.2505C83.9679 44.3545 83.8398 44.4585 83.7118 44.5626C79.6786 48.1617 77.0111 52.5098 75.9654 57.7732C75.5386 59.9369 75.5599 62.1213 76.0081 64.2849C76.0294 64.4097 76.0934 64.5138 76.1148 64.6386C76.1361 64.6178 76.1788 64.6386 76.2428 64.6386Z" fill="white"/>
<path d="M11.5734 113.568H2.09612C0.93161 113.568 0 112.669 0 111.545V92.0775C0 90.3831 1.43324 89 3.18896 89H11.9855C16.7689 89 19.9579 90.8499 19.9579 95.2068C19.9579 97.8001 18.8651 99.3562 16.8943 100.307C19.4025 101.241 20.8716 102.831 20.8716 106.082C20.8716 111.182 17.0735 113.568 11.5734 113.568ZM10.9106 93.2531H6.25252C5.6434 93.2531 5.14176 93.7372 5.14176 94.325V97.1432C5.14176 97.9039 5.78672 98.5263 6.575 98.5263H10.9822C13.0425 98.5263 14.7266 97.9039 14.7266 95.8465C14.7266 93.8064 13.2575 93.2531 10.9106 93.2531ZM11.1256 102.693H6.86165C5.91212 102.693 5.12385 103.436 5.12385 104.37V107.741C5.12385 108.502 5.7688 109.142 6.575 109.142H11.1972C13.777 109.142 15.3536 108.416 15.3536 105.961C15.3536 103.402 13.8308 102.693 11.1256 102.693Z" fill="white"/>
<path d="M41.7962 94.446V105.943C41.7962 106.237 41.7962 106.531 41.7783 106.825C41.7783 106.911 41.7604 106.998 41.7604 107.084C41.7604 107.102 41.7604 107.119 41.7604 107.119C41.5812 109.747 40.7213 111.528 39.1805 112.444C38.3923 112.893 37.5502 113.222 36.6724 113.481C35.687 113.775 34.6837 113.931 33.5909 113.931C33.5551 113.931 33.5013 113.931 33.4655 113.931C32.3547 113.914 31.2798 113.775 30.2586 113.481C29.3808 113.205 28.5387 112.824 27.7146 112.306C26.156 111.355 25.296 109.539 25.1527 106.825C25.1348 106.548 25.1348 106.254 25.1348 105.943V94.446C27.8758 94.446 30.1153 96.5899 30.1153 99.2524V106.911C30.1153 108.969 31.1723 110.024 33.2863 110.093C33.3401 110.093 33.3938 110.093 33.4655 110.093C33.5372 110.093 33.6088 110.093 33.6805 110.093C35.7945 110.024 36.8515 108.986 36.8515 106.911V99.2524C36.8157 96.6072 39.0372 94.446 41.7962 94.446Z" fill="white"/>
<path d="M51.1661 93.8064V111.009C51.1661 112.427 49.9836 113.568 48.5146 113.568H46.1855V89C48.9266 89 51.1661 91.1611 51.1661 93.8064Z" fill="white"/>
<path d="M60.5017 93.8064V111.061C60.5017 112.444 59.3372 113.568 57.9039 113.568H55.5391V89C58.2622 89 60.5017 91.1611 60.5017 93.8064Z" fill="white"/>
<path d="M69.7992 93.8064V101.932L74.4931 96.7282C75.4068 95.7255 76.7325 95.1376 78.112 95.1376H81.9101L75.0664 102.226L81.9997 113.568H77.6641C76.643 113.568 75.7113 113.032 75.2097 112.167L72.4866 107.292C71.8416 106.203 71.2145 105.667 70.5696 105.667C70.05 105.77 69.7813 106.099 69.7813 106.6V111.355C69.7813 112.582 68.7601 113.568 67.4881 113.568H64.8008V89C67.5598 89 69.7992 91.1611 69.7992 93.8064Z" fill="white"/>
<path d="M92.6948 114C86.711 113.827 83.7012 110.455 83.7012 103.955C83.7012 97.4541 86.7289 94.2038 92.7664 94.1692C97.8544 94.1692 100.757 96.6069 101.491 101.482C101.796 103.54 100.13 105.373 97.9798 105.373H89.9895C89.3446 105.373 88.8608 105.943 88.9863 106.548C89.4162 108.692 90.6882 109.781 92.7664 109.781C93.9309 109.781 95.0059 109.314 95.9912 108.415C96.4391 107.949 96.9945 107.724 97.6753 107.724H101.348C100.255 111.752 97.5678 114 92.6948 114ZM89.882 101.932H95.5792C96.0092 101.932 96.3316 101.552 96.242 101.154C95.7942 99.1484 94.6117 98.1111 92.7127 98.1111C90.8674 98.1111 89.6671 99.0793 89.1296 100.981C88.9863 101.448 89.3625 101.932 89.882 101.932Z" fill="white"/>
<path d="M105.488 103.695C105.632 97.5233 109.053 94.4458 115.664 94.4458H116.381V97.8172C116.381 98.7162 115.628 99.4424 114.697 99.4424C111.92 99.4424 110.54 100.86 110.54 103.626V110.853C110.54 112.357 109.286 113.568 107.728 113.568H105.488V103.695Z" fill="white"/>
<path d="M137 104.093C137 110.663 133.972 114 127.97 114C121.986 114 118.977 110.68 118.977 104.093C118.977 97.437 121.968 94.1521 127.97 94.1521C133.954 94.1521 137 97.4543 137 104.093ZM124.047 104.093C124.082 107.81 125.39 109.695 127.934 109.695C130.478 109.695 131.75 107.741 131.786 103.955C131.786 100.238 130.514 98.3879 127.97 98.3879C125.354 98.3879 124.047 100.307 124.047 104.093Z" fill="white"/>
</svg>
