<svg width="32" height="33" viewBox="0 0 32 33" fill="none" xmlns="http://www.w3.org/2000/svg">
<g clip-path="url(#clip0_316_2670)">
<path d="M15.9996 13.3181C14.2456 13.3181 12.8174 14.7456 12.8174 16.4996C12.8174 18.2544 14.2456 19.6826 15.9996 19.6826C17.7544 19.6826 19.1819 18.2544 19.1819 16.4996C19.1819 14.7456 17.7544 13.3181 15.9996 13.3181ZM15.9996 13.3181C14.2456 13.3181 12.8174 14.7456 12.8174 16.4996C12.8174 18.2544 14.2456 19.6826 15.9996 19.6826C17.7544 19.6826 19.1819 18.2544 19.1819 16.4996C19.1819 14.7456 17.7544 13.3181 15.9996 13.3181ZM21.301 8.12978H10.699C9.00674 8.12978 7.62978 9.50674 7.62978 11.199V21.801C7.62978 23.4933 9.00674 24.8702 10.699 24.8702H21.301C22.9933 24.8702 24.3702 23.4933 24.3702 21.801V11.199C24.3702 9.50674 22.9933 8.12978 21.301 8.12978ZM15.9996 22.011C12.9614 22.011 10.489 19.5386 10.489 16.4996C10.489 13.4614 12.9614 10.989 15.9996 10.989C19.0386 10.989 21.511 13.4614 21.511 16.4996C21.511 19.5386 19.0386 22.011 15.9996 22.011ZM21.6879 12.1286C20.9689 12.1286 20.384 11.5437 20.384 10.8247C20.384 10.1057 20.9689 9.52078 21.6879 9.52078C22.4069 9.52078 22.9919 10.1057 22.9919 10.8247C22.9919 11.5437 22.4069 12.1286 21.6879 12.1286ZM15.9996 13.3181C14.2456 13.3181 12.8174 14.7456 12.8174 16.4996C12.8174 18.2544 14.2456 19.6826 15.9996 19.6826C17.7544 19.6826 19.1819 18.2544 19.1819 16.4996C19.1819 14.7456 17.7544 13.3181 15.9996 13.3181ZM21.301 8.12978H10.699C9.00674 8.12978 7.62978 9.50674 7.62978 11.199V21.801C7.62978 23.4933 9.00674 24.8702 10.699 24.8702H21.301C22.9933 24.8702 24.3702 23.4933 24.3702 21.801V11.199C24.3702 9.50674 22.9933 8.12978 21.301 8.12978ZM15.9996 22.011C12.9614 22.011 10.489 19.5386 10.489 16.4996C10.489 13.4614 12.9614 10.989 15.9996 10.989C19.0386 10.989 21.511 13.4614 21.511 16.4996C21.511 19.5386 19.0386 22.011 15.9996 22.011ZM21.6879 12.1286C20.9689 12.1286 20.384 11.5437 20.384 10.8247C20.384 10.1057 20.9689 9.52078 21.6879 9.52078C22.4069 9.52078 22.9919 10.1057 22.9919 10.8247C22.9919 11.5437 22.4069 12.1286 21.6879 12.1286ZM15.9996 13.3181C14.2456 13.3181 12.8174 14.7456 12.8174 16.4996C12.8174 18.2544 14.2456 19.6826 15.9996 19.6826C17.7544 19.6826 19.1819 18.2544 19.1819 16.4996C19.1819 14.7456 17.7544 13.3181 15.9996 13.3181ZM0 0.5V32.5H32V0.5H0ZM26.6986 21.801C26.6986 24.7775 24.2775 27.1986 21.301 27.1986H10.699C7.72247 27.1986 5.30138 24.7775 5.30138 21.801V11.199C5.30138 8.22247 7.72247 5.80138 10.699 5.80138H21.301C24.2775 5.80138 26.6986 8.22247 26.6986 11.199V21.801ZM21.301 8.12978H10.699C9.00674 8.12978 7.62978 9.50674 7.62978 11.199V21.801C7.62978 23.4933 9.00674 24.8702 10.699 24.8702H21.301C22.9933 24.8702 24.3702 23.4933 24.3702 21.801V11.199C24.3702 9.50674 22.9933 8.12978 21.301 8.12978ZM15.9996 22.011C12.9614 22.011 10.489 19.5386 10.489 16.4996C10.489 13.4614 12.9614 10.989 15.9996 10.989C19.0386 10.989 21.511 13.4614 21.511 16.4996C21.511 19.5386 19.0386 22.011 15.9996 22.011ZM21.6879 12.1286C20.9689 12.1286 20.384 11.5437 20.384 10.8247C20.384 10.1057 20.9689 9.52078 21.6879 9.52078C22.4069 9.52078 22.9919 10.1057 22.9919 10.8247C22.9919 11.5437 22.4069 12.1286 21.6879 12.1286ZM15.9996 13.3181C14.2456 13.3181 12.8174 14.7456 12.8174 16.4996C12.8174 18.2544 14.2456 19.6826 15.9996 19.6826C17.7544 19.6826 19.1819 18.2544 19.1819 16.4996C19.1819 14.7456 17.7544 13.3181 15.9996 13.3181ZM15.9996 13.3181C14.2456 13.3181 12.8174 14.7456 12.8174 16.4996C12.8174 18.2544 14.2456 19.6826 15.9996 19.6826C17.7544 19.6826 19.1819 18.2544 19.1819 16.4996C19.1819 14.7456 17.7544 13.3181 15.9996 13.3181ZM15.9996 13.3181C14.2456 13.3181 12.8174 14.7456 12.8174 16.4996C12.8174 18.2544 14.2456 19.6826 15.9996 19.6826C17.7544 19.6826 19.1819 18.2544 19.1819 16.4996C19.1819 14.7456 17.7544 13.3181 15.9996 13.3181ZM21.301 8.12978H10.699C9.00674 8.12978 7.62978 9.50674 7.62978 11.199V21.801C7.62978 23.4933 9.00674 24.8702 10.699 24.8702H21.301C22.9933 24.8702 24.3702 23.4933 24.3702 21.801V11.199C24.3702 9.50674 22.9933 8.12978 21.301 8.12978ZM15.9996 22.011C12.9614 22.011 10.489 19.5386 10.489 16.4996C10.489 13.4614 12.9614 10.989 15.9996 10.989C19.0386 10.989 21.511 13.4614 21.511 16.4996C21.511 19.5386 19.0386 22.011 15.9996 22.011ZM21.6879 12.1286C20.9689 12.1286 20.384 11.5437 20.384 10.8247C20.384 10.1057 20.9689 9.52078 21.6879 9.52078C22.4069 9.52078 22.9919 10.1057 22.9919 10.8247C22.9919 11.5437 22.4069 12.1286 21.6879 12.1286ZM15.9996 13.3181C14.2456 13.3181 12.8174 14.7456 12.8174 16.4996C12.8174 18.2544 14.2456 19.6826 15.9996 19.6826C17.7544 19.6826 19.1819 18.2544 19.1819 16.4996C19.1819 14.7456 17.7544 13.3181 15.9996 13.3181ZM15.9996 13.3181C14.2456 13.3181 12.8174 14.7456 12.8174 16.4996C12.8174 18.2544 14.2456 19.6826 15.9996 19.6826C17.7544 19.6826 19.1819 18.2544 19.1819 16.4996C19.1819 14.7456 17.7544 13.3181 15.9996 13.3181ZM15.9996 13.3181C14.2456 13.3181 12.8174 14.7456 12.8174 16.4996C12.8174 18.2544 14.2456 19.6826 15.9996 19.6826C17.7544 19.6826 19.1819 18.2544 19.1819 16.4996C19.1819 14.7456 17.7544 13.3181 15.9996 13.3181ZM21.301 8.12978H10.699C9.00674 8.12978 7.62978 9.50674 7.62978 11.199V21.801C7.62978 23.4933 9.00674 24.8702 10.699 24.8702H21.301C22.9933 24.8702 24.3702 23.4933 24.3702 21.801V11.199C24.3702 9.50674 22.9933 8.12978 21.301 8.12978ZM15.9996 22.011C12.9614 22.011 10.489 19.5386 10.489 16.4996C10.489 13.4614 12.9614 10.989 15.9996 10.989C19.0386 10.989 21.511 13.4614 21.511 16.4996C21.511 19.5386 19.0386 22.011 15.9996 22.011ZM21.6879 12.1286C20.9689 12.1286 20.384 11.5437 20.384 10.8247C20.384 10.1057 20.9689 9.52078 21.6879 9.52078C22.4069 9.52078 22.9919 10.1057 22.9919 10.8247C22.9919 11.5437 22.4069 12.1286 21.6879 12.1286ZM15.9996 13.3181C14.2456 13.3181 12.8174 14.7456 12.8174 16.4996C12.8174 18.2544 14.2456 19.6826 15.9996 19.6826C17.7544 19.6826 19.1819 18.2544 19.1819 16.4996C19.1819 14.7456 17.7544 13.3181 15.9996 13.3181Z" fill="black"/>
</g>
<defs>
<clipPath id="clip0_316_2670">
<rect y="0.5" width="32" height="32" rx="4" fill="white"/>
</clipPath>
</defs>
</svg>
