<svg width="48" height="48" viewBox="0 0 48 48" fill="none" xmlns="http://www.w3.org/2000/svg">
<path d="M24.0077 43.6923L29.5411 12.5719C34.8155 12.5719 36.4792 13.1502 36.7194 15.511C36.7194 15.511 40.2576 14.1917 42.0421 11.5123C35.0783 8.28547 28.0814 8.13994 28.0814 8.13994L23.9985 13.1128L24.0077 13.1122L19.9248 8.13916C19.9248 8.13916 12.9277 8.28484 5.96484 11.5117C7.74782 14.1911 11.2874 15.5103 11.2874 15.5103C11.529 13.1495 13.1907 12.5711 18.4296 12.5674L24.0077 43.6923Z" fill="#E82127"/>
<path d="M24.0033 6.70343C29.6325 6.66038 36.0758 7.57425 42.6717 10.4491C43.5533 8.86231 43.7799 8.16104 43.7799 8.16104C36.5696 5.30837 29.8172 4.33211 24.0025 4.30762C18.1881 4.33211 11.436 5.30852 4.22656 8.16104C4.22656 8.16104 4.54819 9.02484 5.334 10.4491C11.9287 7.57425 18.3731 6.66038 24.0025 6.70343H24.0033Z" fill="#E82127"/>
</svg>
