<svg width="32" height="33" viewBox="0 0 32 33" fill="none" xmlns="http://www.w3.org/2000/svg">
<rect y="0.5" width="32" height="32" rx="4" fill="black"/>
<path d="M25.1026 11.8973C24.8841 11.0747 24.2405 10.4263 23.4227 10.2063C21.9415 9.80725 16 9.80725 16 9.80725C16 9.80725 10.0585 9.80725 8.57654 10.2063C7.75954 10.4263 7.11592 11.0739 6.89742 11.8973C6.5 13.3888 6.5 16.5 6.5 16.5C6.5 16.5 6.5 19.6113 6.89742 21.1028C7.11592 21.9253 7.75954 22.5737 8.57733 22.7938C10.0585 23.1928 16 23.1928 16 23.1928C16 23.1928 21.9415 23.1928 23.4235 22.7938C24.2405 22.5737 24.8841 21.9261 25.1034 21.1028C25.5 19.6113 25.5 16.5 25.5 16.5C25.5 16.5 25.5 13.3888 25.1026 11.8973ZM14.0573 19.3255V13.6745L19.0226 16.5L14.0573 19.3255Z" fill="white"/>
</svg>
