<svg width="48" height="49" viewBox="0 0 48 49" fill="none" xmlns="http://www.w3.org/2000/svg">
<g clip-path="url(#clip0_260_1791)">
<path d="M2.45 17.434C2.662 17.188 16.96 3.39799 16.96 3.39799C18.8446 1.54898 21.381 0.51565 24.0211 0.521263C26.6613 0.526876 29.1933 1.57098 31.07 3.42799C31.07 3.42799 45.338 17.188 45.548 17.428L28.242 34.736C27.0986 35.8259 25.5796 36.4339 24 36.4339C22.4204 36.4339 20.9014 35.8259 19.758 34.736L2.45 17.434ZM31.07 37.572C29.1886 39.435 26.6478 40.4801 24 40.4801C21.3522 40.4801 18.8114 39.435 16.93 37.572L0.458 21.1C0.1705 22.0117 0.0162392 22.9602 0 23.916L0 38.5C0.00317572 41.1512 1.05776 43.6929 2.93244 45.5676C4.80712 47.4422 7.34881 48.4968 10 48.5H38C40.6512 48.4968 43.1929 47.4422 45.0676 45.5676C46.9422 43.6929 47.9968 41.1512 48 38.5V23.916C47.9838 22.9602 47.8295 22.0117 47.542 21.1L31.07 37.572Z" fill="white"/>
</g>
<defs>
<clipPath id="clip0_260_1791">
<rect width="48" height="48" fill="white" transform="translate(0 0.5)"/>
</clipPath>
</defs>
</svg>
