<svg width="188" height="78" viewBox="0 0 188 78" fill="none" xmlns="http://www.w3.org/2000/svg">
<g clip-path="url(#clip0_454_9413)">
<path d="M94.5777 8.8121C95.8537 8.87139 97.0725 9.35568 98.0379 10.187C99.3534 11.4244 99.6983 13.4877 99.0756 15.1386C96.6552 20.0892 90.8989 23.396 86.9654 24.4899C84.6121 25.0399 81.6372 25.0399 79.4915 24.2149C78.4527 24.8336 77.5764 26.8332 76.308 26.0023C74.4721 24.5776 76.0613 22.3478 75.0015 20.7657C74.7829 20.4399 74.2324 20.416 73.9557 19.883C72.5018 16.7197 74.3016 13.694 76.308 11.2879C79.6529 7.57967 89.2495 3.44801 94.5777 8.8121ZM83.436 11.2869C81.567 11.6306 79.4564 12.4386 78.3153 13.7627C77.1733 15.0858 76.4473 16.376 77.1392 17.7509C79.5616 15.9635 80.7378 13.4877 83.437 11.9754C83.436 11.6994 83.8511 11.4931 83.436 11.2869ZM94.717 11.9754C89.9413 11.5619 86.3427 15.1386 82.9517 18.5759C82.7441 19.1258 81.4988 19.7445 82.4674 20.3632C87.0356 20.7757 91.3952 19.4705 94.717 16.4438C95.6866 15.5501 96.3764 14.3814 95.8942 13.143C95.6866 12.6628 95.1983 12.1816 94.717 11.9754ZM136.098 32.4663C138.313 37.8304 140.181 46.287 136.098 51.4448C134.991 52.6822 133.054 53.823 131.809 52.8885C127.241 49.245 125.305 44.0184 122.467 39.3418C122.052 39.1355 122.052 39.6865 121.844 39.8927C120.807 44.6371 122.744 50.8261 119.492 54.5383C118.247 54.7446 117.082 54.1079 116.654 52.8885C115.062 48.0066 116.722 42.9175 117.137 38.0356C118.106 35.5598 118.521 32.6725 120.667 30.8154C124.127 32.1903 125.788 36.042 127.793 38.8615C129.248 40.9926 130.423 43.3997 132.084 45.3245C133.536 44.7058 132.822 42.8188 132.776 41.6801C132.221 37.2107 130.976 33.085 129.799 28.8218C129.731 27.7219 129.109 25.8648 130.283 25.1773C133.401 26.5532 134.714 29.7842 136.098 32.4663ZM115.2 30.8154C115.2 31.8476 114.369 33.1368 113.676 33.2912C107.033 34.3224 99.6281 33.7037 93.4005 35.766C93.193 36.5222 94.0924 36.6597 94.5767 36.8659C99.9039 37.6909 105.511 37.8971 110.702 39.2043C113.446 39.8967 114.44 43.1247 114.647 45.8058C114.774 47.9199 113.956 50.4814 111.879 51.926C106.759 55.158 98.9393 55.0196 93.7474 52.0645C91.7632 50.9586 89.8721 49.1772 89.7337 46.9764C89.7458 45.2289 90.4958 43.853 91.7411 43.1945C96.7244 41.1999 102.883 42.3018 107.174 44.8443C107.449 46.2202 105.951 46.1455 105.234 46.6327C100.458 49.3835 96.8607 43.5402 92.4319 45.6693C91.8093 46.0817 91.3591 47.2325 92.086 47.5951C97.5526 50.0022 103.643 48.2826 109.04 46.7702C109.663 46.5639 110.425 45.9452 110.493 45.3265C110.286 43.1257 107.795 42.6455 106.203 42.0268C101.497 40.8581 96.3073 40.8581 91.2548 40.3769C90.2862 40.1707 89.0519 39.5002 88.7642 38.727C88.2107 37.0772 88.2107 34.8076 89.456 33.4327C95.8912 27.7936 105.648 28.2758 113.814 29.7882C114.368 29.9905 114.991 30.1967 115.2 30.8154ZM84.959 33.4287C85.5817 40.0292 85.9276 46.1505 85.7892 53.0947C85.6509 53.9874 84.6131 54.1946 83.9213 54.5383C82.8143 54.7446 81.3835 54.5104 80.9453 53.9196C79.3541 51.3741 79.9076 47.9378 79.7692 44.8433C79.9767 39.9625 79.9076 34.6671 81.2923 30.128C81.557 29.4684 82.33 28.8906 82.9527 29.302C84.6131 30.128 84.8898 31.7788 84.959 33.4287ZM161.844 32.4663C162.177 33.0222 162.525 33.881 161.844 34.2536C158.73 35.6285 154.509 35.0098 150.91 35.4223C149.941 36.2472 149.179 37.6221 149.524 38.8605C149.872 39.0668 150.182 39.3806 150.564 39.3408C152.777 39.4792 156.1 38.3096 157.554 40.3719C157.909 40.9857 157.506 43.2771 156.517 43.329C153.817 43.6747 149.377 42.9922 148.072 43.6747C146.412 44.7746 146.549 46.9057 145.926 48.6263C147.104 49.3825 148.336 48.6083 149.732 48.4191C152.294 48.0066 155.132 47.2504 157.691 47.8004C158.175 48.694 158.868 49.6575 158.383 50.7574C154.02 54.1956 148.393 57.7195 142.398 55.2268C140.148 54.2245 139.145 50.8261 139.907 47.9398C140.391 45.8765 142.535 43.8829 141.222 41.6821C141.014 40.7186 141.569 39.8947 142.399 39.6885C144.682 39.6885 144.197 36.8689 145.374 35.5618C144.06 34.1181 140.739 34.1869 141.085 31.2986C142.677 30.4737 144.615 30.7487 146.412 30.4737C150.495 29.6477 155.062 29.1665 159.217 29.6477C160.044 29.8131 161.152 31.4351 161.844 32.4663ZM63.0216 16.7885C69.4076 21.9752 77.6927 30.8164 76.6549 40.9926C75.4086 49.0388 66.8277 55.0893 59.5613 57.0151C52.5025 59.0775 43.6449 58.8713 36.4468 57.2214C35.9625 58.5285 35.4782 60.1087 33.9561 60.6596C32.9875 61.0033 31.7412 60.7971 30.9802 60.1784C28.8355 58.1838 30.5651 54.3331 27.4508 53.0967C21.3605 50.5521 14.786 45.5318 11.6727 39.3438C11.2576 38.1063 11.7419 36.8689 12.5029 35.9065C17.2787 32.1245 23.2987 30.6122 29.3198 29.4425C29.6657 29.58 29.5273 29.0988 29.8041 28.9613C30.15 24.8356 30.2883 20.6402 31.6028 16.927C31.9026 16.4059 32.6406 16.2395 33.1259 16.5832C36.932 19.4705 35.1323 24.9044 36.7937 28.8228C44.06 29.1665 51.3264 29.5103 57.0697 33.5682C59.0079 35.1493 59.4801 38.1691 58.8685 39.8947C58.2579 41.6173 56.2395 42.8517 54.3705 42.9872C53.1242 42.9872 50.7719 43.1078 50.9103 42.1633C51.0487 41.2178 55.1436 39.6705 53.8862 38.3803C52.0784 36.5262 43.0333 35.4233 37.4274 34.7359C36.7355 34.5984 36.1008 34.8046 36.1008 35.5608C35.9625 40.7864 35.5474 46.562 36.4468 51.5833C36.5159 51.928 36.931 52.3405 37.278 52.4073C47.1733 53.9894 57.6232 53.0947 65.3738 47.4566C68.9724 44.5703 70.1496 40.5104 69.5259 36.042C66.4116 23.5962 53.3328 16.1 42.6062 11.2869C32.1573 6.74876 20.5995 4.41044 8.21251 5.03014C6.24026 5.17361 3.11493 5.85009 3.09187 6.54352C3.06881 7.23694 6.6323 7.01875 6.20516 8.33088C5.77903 9.64201 2.15738 8.8639 1.08452 8.53712C0.0116589 8.21033 0.115937 6.68001 0.392674 5.71759C3.09187 0.973198 10.6239 0.589623 14.026 0.423241C32.8482 -0.0589691 51.0497 7.06359 63.0216 16.7885ZM29.1122 35.2171C24.3365 35.2858 19.285 35.767 14.8562 37.4169C13.9568 37.7606 12.8489 38.723 13.5407 39.8927C15.3395 42.2988 17.9124 44.2744 20.3228 45.6683C22.7332 47.0601 25.9287 48.8315 28.8355 49.245C29.5273 44.7746 29.5273 40.3739 29.4581 35.767C29.1804 35.6295 29.4571 35.3546 29.1122 35.2171ZM172.153 28.9593C171.946 34.9411 166.339 38.6553 166.339 44.6371C166.546 44.8433 166.687 45.1183 166.962 44.9828C171.462 40.0999 175.889 33.1547 182.464 31.0924C184.196 30.9549 185.762 32.4503 186.409 33.5682C188.693 38.1063 188.142 44.5016 184.958 48.6273C181.672 52.6772 175.96 56.7412 169.457 56.0527C166.759 62.6542 164.887 69.5994 163.849 76.8196C163.296 78.2633 161.982 76.9571 161.152 76.6821C155.547 72.2815 160.149 60.6317 160.529 59.1452C160.909 57.6627 162.409 54.1657 163.506 51.2376C160.876 46.5629 162.537 40.9229 164.681 36.591C166.342 33.7027 168.628 30.8144 171.326 28.6146C171.669 28.6156 171.946 28.6843 172.153 28.9593ZM183.297 36.3857C182.467 36.2482 182.12 37.3492 181.429 37.5554C178.247 41.1311 175.062 44.7068 173.47 48.97C175.617 49.245 177.414 47.8701 179.284 47.1139C182.467 45.1193 184.474 41.8206 184.267 38.0376C184.127 37.4169 183.574 36.9357 183.297 36.3857Z" fill="black"/>
</g>
<defs>
<clipPath id="clip0_454_9413">
<rect width="188" height="78" fill="white"/>
</clipPath>
</defs>
</svg>
