<svg width="45" height="45" viewBox="0 0 45 45" fill="none" xmlns="http://www.w3.org/2000/svg">
<circle cx="23" cy="22" r="21" fill="white"/>
<path fill-rule="evenodd" clip-rule="evenodd" d="M22.5 0C10.0744 0 0 10.0744 0 22.5C0 34.9256 10.0744 45 22.5 45C34.9256 45 45 34.9256 45 22.5C45 10.0744 34.9256 0 22.5 0ZM32.9288 15.3019C32.5913 18.8588 31.125 27.4931 30.3806 31.4775C30.0656 33.165 29.4431 33.7294 28.8431 33.7837C27.5363 33.9037 26.5444 32.9194 25.2788 32.0906C23.2988 30.7931 22.1794 29.985 20.2575 28.7175C18.0356 27.2531 19.4756 26.4487 20.7413 25.1344C21.0731 24.7894 26.8294 19.5525 26.9419 19.0781C26.955 19.0181 26.97 18.7969 26.8369 18.6806C26.7037 18.5644 26.5106 18.6038 26.3719 18.6356C26.1731 18.6806 23.01 20.7713 16.8806 24.9075C15.9825 25.5244 15.1688 25.8244 14.4394 25.8094C13.6369 25.7925 12.0919 25.3556 10.9425 24.9806C9.53437 24.5231 8.41313 24.2794 8.51063 23.5031C8.56125 23.0981 9.11813 22.6837 10.1831 22.26C16.7419 19.4025 21.1162 17.5181 23.3044 16.6069C29.5537 14.0081 30.8513 13.5563 31.6988 13.5413C32.76 13.5263 33.015 14.4019 32.9288 15.3019Z" fill="#254EF5"/>
</svg>
