<svg width="32" height="33" viewBox="0 0 32 33" fill="none" xmlns="http://www.w3.org/2000/svg">
<g clip-path="url(#clip0_316_2677)">
<path d="M0 0.5V32.5H32V0.5H0ZM11.525 23.1938H8.40625V13.2125H11.525V23.1938ZM9.88125 11.9625H9.85625C8.725 11.9625 7.99375 11.2 7.99375 10.2313C7.99375 9.24375 8.75 8.5 9.9 8.5C11.05 8.5 11.7563 9.24375 11.7812 10.2313C11.7875 11.1938 11.0563 11.9625 9.88125 11.9625ZM24 23.1938H20.4625V18.0312C20.4625 16.6812 19.9125 15.7563 18.6938 15.7563C17.7625 15.7563 17.2437 16.3813 17.0063 16.9813C16.9188 17.1938 16.9312 17.4937 16.9312 17.8V23.1938H13.425C13.425 23.1938 13.4688 14.0437 13.425 13.2125H16.9312V14.7812C17.1375 14.0938 18.2563 13.1187 20.0438 13.1187C22.2625 13.1187 24 14.5562 24 17.6437V23.1938Z" fill="black"/>
</g>
<defs>
<clipPath id="clip0_316_2677">
<rect y="0.5" width="32" height="32" rx="4" fill="white"/>
</clipPath>
</defs>
</svg>
