<svg width="159" height="47" viewBox="0 0 159 47" fill="none" xmlns="http://www.w3.org/2000/svg">
<g clip-path="url(#clip0_316_2629)">
<path d="M157.985 41.3839C157.985 41.9732 157.868 42.5567 157.641 43.1011C157.414 43.6455 157.081 44.14 156.661 44.5565C156.241 44.973 155.743 45.3032 155.195 45.5283C154.647 45.7534 154.059 45.8689 153.466 45.8683H5.57201C4.37333 45.8696 3.22322 45.3978 2.37463 44.5569C1.52603 43.7159 1.04844 42.5746 1.04688 41.3839V5.62167C1.04844 4.43043 1.52584 3.28849 2.37427 2.44659C3.22269 1.60469 4.37278 1.13166 5.57201 1.13135H153.465C154.058 1.13135 154.646 1.2475 155.194 1.47318C155.743 1.69885 156.241 2.02962 156.661 2.4466C157.08 2.86358 157.413 3.3586 157.64 3.90339C157.867 4.44817 157.984 5.03205 157.984 5.62167L157.985 41.3839Z" fill="white"/>
<path d="M153.468 46.9117H5.57421C4.09756 46.9114 2.68135 46.3292 1.63632 45.2929C0.591293 44.2565 0.00280965 42.8508 0 41.3839L0 5.62293C0.00218448 4.1554 0.590279 2.74864 1.63527 1.71126C2.68027 0.67388 4.09683 0.0905941 5.57421 0.0893555L153.467 0.0893555C154.944 0.0912122 156.36 0.674697 157.405 1.71194C158.45 2.74919 159.038 4.15559 159.041 5.62293V41.3839C159.043 44.4329 156.539 46.9117 153.468 46.9117Z" fill="#A6A6A6"/>
<path d="M157.985 41.3839C157.985 41.9732 157.868 42.5567 157.641 43.1011C157.414 43.6455 157.081 44.14 156.661 44.5565C156.241 44.973 155.743 45.3032 155.195 45.5283C154.647 45.7534 154.059 45.8689 153.466 45.8683H5.57201C4.37333 45.8696 3.22322 45.3978 2.37463 44.5569C1.52603 43.7159 1.04844 42.5746 1.04688 41.3839V5.62167C1.04844 4.43043 1.52584 3.28849 2.37427 2.44659C3.22269 1.60469 4.37278 1.13166 5.57201 1.13135H153.465C154.058 1.13135 154.646 1.2475 155.194 1.47318C155.743 1.69885 156.241 2.02962 156.661 2.4466C157.08 2.86358 157.413 3.3586 157.64 3.90339C157.867 4.44817 157.984 5.03205 157.984 5.62167L157.985 41.3839Z" fill="black"/>
<path d="M35.5127 23.254C35.4785 19.4802 38.6233 17.6443 38.7671 17.5588C36.9861 14.9794 34.2255 14.6269 33.2554 14.5988C30.9368 14.3565 28.6878 15.977 27.5067 15.977C26.3021 15.977 24.4833 14.6223 22.5231 14.6621C20.0006 14.7007 17.6408 16.1514 16.3465 18.4042C13.6756 22.9976 15.6676 29.7477 18.2266 33.4605C19.5067 35.2801 21.0025 37.3092 22.9604 37.2378C24.8758 37.1605 25.5913 36.0259 27.9028 36.0259C30.1931 36.0259 30.8649 37.2378 32.8617 37.1921C34.9174 37.1605 36.2117 35.3656 37.447 33.5308C38.9263 31.4478 39.5203 29.3941 39.5439 29.2887C39.4968 29.2723 35.5527 27.7759 35.5127 23.254ZM31.7407 12.1564C32.7709 10.8766 33.4758 9.13551 33.2802 7.36865C31.7891 7.43422 29.9243 8.39317 28.8505 9.64484C27.9004 10.7478 27.0518 12.5556 27.271 14.2558C28.946 14.3799 30.6657 13.4162 31.7407 12.1564Z" fill="white"/>
<path d="M153.466 0.0893555H74.25L105.278 46.9117H153.466C154.943 46.9104 156.36 46.3275 157.405 45.2906C158.449 44.2537 159.038 42.8476 159.041 41.3804V5.62293C159.038 4.15549 158.45 2.74891 157.405 1.7116C156.36 0.674289 154.944 0.0909033 153.466 0.0893555Z" fill="url(#paint0_linear_316_2629)"/>
<path d="M63.2586 36.9768H60.5817L59.1154 32.3998H54.0186L52.6218 36.9768H50.0156L55.0665 21.3947H58.1854L63.2586 36.9768ZM58.6734 30.4796L57.3473 26.4108C57.207 25.9951 56.943 25.0163 56.5564 23.4754H56.5092C56.3536 24.1381 56.1049 25.117 55.7643 26.4108L54.4606 30.4796H58.6734ZM76.2223 31.2207C76.2223 33.1316 75.7001 34.6421 74.6546 35.7509C73.7187 36.7379 72.5553 37.2309 71.1679 37.2309C69.6697 37.2309 68.5924 36.7005 67.9382 35.6373V41.5327H65.4251V29.434C65.4251 28.2338 65.3933 27.0032 65.332 25.741H67.5421L67.6824 27.5219H67.7295C68.5676 26.1801 69.8395 25.5092 71.5463 25.5092C72.8806 25.5092 73.9945 26.0326 74.8856 27.0805C75.7755 28.1308 76.2223 29.5101 76.2223 31.2207ZM73.6621 31.3121C73.6621 30.2185 73.4146 29.3169 72.9171 28.6062C72.3737 27.8673 71.6441 27.4974 70.7294 27.4974C70.1094 27.4974 69.546 27.7034 69.0427 28.1097C68.5382 28.5195 68.2081 29.0546 68.0537 29.7173C67.9848 29.9652 67.9456 30.2203 67.937 30.4772V32.3518C67.937 33.1679 68.1893 33.8576 68.6938 34.4219C69.1982 34.984 69.8536 35.2661 70.6599 35.2661C71.6064 35.2661 72.3431 34.902 72.87 34.1796C73.3981 33.4548 73.6621 32.4994 73.6621 31.3121ZM89.2319 31.2207C89.2319 33.1316 88.7097 34.6421 87.6642 35.7509C86.7271 36.7379 85.5649 37.2309 84.1763 37.2309C82.6782 37.2309 81.6008 36.7005 80.9466 35.6373V41.5327H78.4336V29.434C78.4336 28.2338 78.4018 27.0032 78.3405 25.741H80.5506L80.6908 27.5219H80.738C81.5749 26.1801 82.8467 25.5092 84.5547 25.5092C85.8879 25.5092 87.0018 26.0326 87.8952 27.0805C88.784 28.1308 89.2319 29.5101 89.2319 31.2207ZM86.6705 31.3121C86.6705 30.2185 86.4218 29.3169 85.9244 28.6062C85.381 27.8673 84.6537 27.4974 83.739 27.4974C83.119 27.4974 82.5556 27.7034 82.0499 28.1097C81.5454 28.5195 81.2166 29.0546 81.0621 29.7173C80.9855 30.0265 80.9443 30.2782 80.9443 30.4772V32.3518C80.9443 33.1679 81.1977 33.8576 81.6998 34.4219C82.2043 34.9828 82.8597 35.2661 83.6683 35.2661C84.616 35.2661 85.3527 34.902 85.8784 34.1796C86.4065 33.4548 86.6705 32.4994 86.6705 31.3121ZM103.777 32.6059C103.777 33.9325 103.311 35.0109 102.383 35.8434C101.362 36.752 99.9371 37.2075 98.1101 37.2075C96.4221 37.2075 95.069 36.8843 94.0482 36.2368L94.6293 34.1561C95.7314 34.8048 96.942 35.128 98.2598 35.128C99.2075 35.128 99.9442 34.9149 100.47 34.4922C100.997 34.0683 101.263 33.5016 101.263 32.7944C101.263 32.161 101.043 31.6306 100.61 31.1985C100.175 30.7676 99.4562 30.366 98.446 29.9972C95.6996 28.9797 94.3252 27.4915 94.3252 25.5338C94.3252 24.2552 94.8108 23.2084 95.7797 22.39C96.7486 21.5727 98.0335 21.1641 99.6318 21.1641C101.059 21.1641 102.249 21.4111 103.193 21.9041L102.562 23.939C101.673 23.4613 100.67 23.2225 99.5481 23.2225C98.6617 23.2225 97.9663 23.4391 97.4689 23.87C97.0504 24.2552 96.8382 24.7247 96.8382 25.282C96.8382 25.8968 97.0799 26.4073 97.5608 26.8077C97.9781 27.1765 98.7395 27.5781 99.8405 28.009C101.191 28.55 102.184 29.1799 102.819 29.9035C103.459 30.6271 103.777 31.5299 103.777 32.6059ZM112.107 27.6144H109.337V33.0696C109.337 34.4571 109.825 35.1491 110.804 35.1491C111.253 35.1491 111.625 35.1116 111.92 35.0331L111.99 36.9288C111.495 37.1126 110.843 37.2051 110.035 37.2051C109.043 37.2051 108.267 36.9042 107.707 36.3024C107.15 35.7005 106.869 34.6924 106.869 33.2733V27.6098H105.219V25.7363H106.869V23.6791L109.337 22.9391V25.7363H112.107V27.6144ZM124.581 31.2664C124.581 32.9935 124.083 34.4114 123.091 35.5202C122.052 36.6618 120.671 37.2309 118.949 37.2309C117.287 37.2309 115.965 36.6841 114.98 35.5916C113.995 34.4969 113.502 33.1176 113.502 31.4538C113.502 29.7127 114.011 28.2865 115.026 27.1777C116.043 26.0677 117.413 25.5127 119.135 25.5127C120.795 25.5127 122.128 26.0607 123.137 27.1543C124.101 28.2151 124.581 29.585 124.581 31.2664ZM121.976 31.3238C121.976 30.2946 121.752 29.4117 121.303 28.6729C120.776 27.7807 120.021 27.3346 119.044 27.3346C118.038 27.3346 117.266 27.7807 116.74 28.6729C116.29 29.4117 116.066 30.3098 116.066 31.3706C116.066 32.401 116.29 33.2862 116.74 34.0227C117.283 34.9149 118.041 35.361 119.023 35.361C119.984 35.361 120.737 34.9055 121.282 34.0004C121.744 33.244 121.976 32.3553 121.976 31.3238ZM132.753 27.9364C132.492 27.8896 132.226 27.8664 131.961 27.8674C131.077 27.8674 130.393 28.1975 129.912 28.8626C129.495 29.448 129.285 30.188 129.285 31.0814V36.9768H126.772V29.2794C126.774 28.1 126.75 26.9206 126.699 25.7422H128.888L128.98 27.8919H129.049C129.316 27.1531 129.733 26.5571 130.306 26.111C130.83 25.7212 131.467 25.5101 132.122 25.5092C132.354 25.5092 132.564 25.5256 132.751 25.5549L132.753 27.9364ZM143.992 30.8273C143.998 31.2068 143.968 31.586 143.9 31.9596H136.361C136.389 33.0696 136.755 33.9196 137.455 34.5051C138.09 35.0273 138.912 35.2896 139.921 35.2896C141.037 35.2896 142.055 35.1139 142.971 34.7591L143.365 36.4909C142.295 36.9545 141.031 37.1852 139.573 37.1852C137.819 37.1852 136.442 36.6724 135.44 35.649C134.441 34.6245 133.94 33.2475 133.94 31.5228C133.94 29.8297 134.405 28.4188 135.338 27.2936C136.314 26.0923 137.633 25.4916 139.292 25.4916C140.923 25.4916 142.157 26.0923 142.995 27.2936C143.658 28.2455 143.992 29.4258 143.992 30.8273ZM141.596 30.1798C141.613 29.4387 141.448 28.8005 141.108 28.2608C140.673 27.5653 140.003 27.2187 139.106 27.2187C138.285 27.2187 137.615 27.5571 137.106 28.2362C136.688 28.776 136.439 29.4246 136.362 30.1775L141.596 30.1798Z" fill="white"/>
<path d="M53.2914 15.8858C52.5924 15.8858 51.9877 15.8518 51.4844 15.7944V8.261C52.1883 8.15298 52.8997 8.09974 53.612 8.10176C56.494 8.10176 57.8212 9.51033 57.8212 11.8064C57.8212 14.455 56.2535 15.8858 53.2914 15.8858ZM53.7133 9.06774C53.3244 9.06774 52.9931 9.09116 52.7185 9.14736V14.8741C52.867 14.8975 53.1523 14.9081 53.553 14.9081C55.4414 14.9081 56.5164 13.8402 56.5164 11.8404C56.5164 10.0571 55.5439 9.06774 53.7133 9.06774ZM61.9574 15.9431C60.3331 15.9431 59.2805 14.7383 59.2805 13.1026C59.2805 11.3978 60.3555 10.1824 62.0493 10.1824C63.65 10.1824 64.7262 11.3299 64.7262 13.0124C64.7262 14.7383 63.617 15.9431 61.9574 15.9431ZM62.0045 11.0793C61.1122 11.0793 60.5405 11.9083 60.5405 13.0675C60.5405 14.2044 61.124 15.0334 61.9927 15.0334C62.8615 15.0334 63.4449 14.147 63.4449 13.044C63.4449 11.92 62.8732 11.0793 62.0045 11.0793ZM73.9887 10.296L72.25 15.8179H71.1173L70.3971 13.4199C70.218 12.8333 70.0689 12.2382 69.9503 11.6366H69.9268C69.836 12.2385 69.6639 12.8415 69.4812 13.4199L68.715 15.8179H67.5705L65.9344 10.296H67.2039L67.8333 12.9211C67.9819 13.5464 68.1068 14.1365 68.2105 14.6938H68.2341C68.3249 14.229 68.4734 13.6482 68.6914 12.9328L69.4812 10.2972H70.4878L71.2434 12.8766C71.4261 13.5019 71.5746 14.1154 71.6901 14.695H71.7231C71.8033 14.1271 71.9294 13.5241 72.1003 12.8766L72.7757 10.2972L73.9887 10.296ZM80.3891 15.8179H79.1538V12.6471C79.1538 11.6706 78.7766 11.1812 78.0329 11.1812C77.3009 11.1812 76.7976 11.8064 76.7976 12.5335V15.8179H75.5623V11.8743C75.5623 11.3861 75.5505 10.8627 75.5163 10.2948H76.6031L76.6608 11.1472H76.695C77.0274 10.5571 77.7016 10.1824 78.4572 10.1824C79.6241 10.1824 80.3903 11.0688 80.3903 12.5113L80.3891 15.8179ZM83.7957 15.8179H82.5592V7.76221H83.7957V15.8179ZM88.2996 15.9431C86.6765 15.9431 85.6227 14.7383 85.6227 13.1026C85.6227 11.3978 86.6977 10.1824 88.3904 10.1824C89.9922 10.1824 91.0672 11.3299 91.0672 13.0124C91.0684 14.7383 89.9581 15.9431 88.2996 15.9431ZM88.3456 11.0793C87.4533 11.0793 86.8816 11.9083 86.8816 13.0675C86.8816 14.2044 87.4662 15.0334 88.3326 15.0334C89.2025 15.0334 89.7848 14.147 89.7848 13.044C89.786 11.92 89.2155 11.0793 88.3456 11.0793ZM95.9377 15.8179L95.8482 15.1821H95.8152C95.438 15.6937 94.8875 15.9431 94.1897 15.9431C93.1937 15.9431 92.4864 15.25 92.4864 14.318C92.4864 12.9551 93.6758 12.2502 95.735 12.2502V12.1483C95.735 11.4212 95.3472 11.0571 94.581 11.0571C94.0329 11.0571 93.552 11.1941 93.1288 11.4669L92.8778 10.6601C93.3917 10.3417 94.0329 10.1824 94.7861 10.1824C96.2383 10.1824 96.9715 10.9435 96.9715 12.4668V14.5006C96.9715 15.058 96.9962 15.49 97.0516 15.819L95.9377 15.8179ZM95.768 13.0675C94.396 13.0675 93.7076 13.3977 93.7076 14.181C93.7076 14.7606 94.0624 15.0439 94.5551 15.0439C95.1834 15.0439 95.768 14.5674 95.768 13.9199V13.0675ZM102.97 15.8179L102.912 14.9315H102.878C102.523 15.6012 101.927 15.9431 101.094 15.9431C99.7533 15.9431 98.7608 14.7723 98.7608 13.1248C98.7608 11.3978 99.7898 10.1812 101.195 10.1812C101.939 10.1812 102.466 10.4306 102.763 10.9318H102.787V7.76221H104.024V14.3297C104.024 14.8636 104.037 15.3636 104.07 15.8179H102.97ZM102.787 12.5687C102.787 11.7959 102.272 11.1367 101.486 11.1367C100.57 11.1367 100.01 11.9434 100.01 13.0792C100.01 14.1927 100.591 14.9549 101.461 14.9549C102.238 14.9549 102.787 14.284 102.787 13.489V12.5687ZM111.864 15.9431C110.24 15.9431 109.188 14.7383 109.188 13.1026C109.188 11.3978 110.263 10.1824 111.955 10.1824C113.557 10.1824 114.632 11.3299 114.632 13.0124C114.634 14.7383 113.524 15.9431 111.864 15.9431ZM111.91 11.0793C111.018 11.0793 110.447 11.9083 110.447 13.0675C110.447 14.2044 111.03 15.0334 111.898 15.0334C112.768 15.0334 113.35 14.147 113.35 13.044C113.352 11.92 112.781 11.0793 111.91 11.0793ZM121.276 15.8179H120.039V12.6471C120.039 11.6706 119.662 11.1812 118.918 11.1812C118.186 11.1812 117.684 11.8064 117.684 12.5335V15.8179H116.448V11.8743C116.448 11.3861 116.436 10.8627 116.402 10.2948H117.488L117.546 11.1472H117.58C117.912 10.5571 118.587 10.1812 119.341 10.1812C120.508 10.1812 121.276 11.0676 121.276 12.5101V15.8179ZM129.587 11.2163H128.228V13.8976C128.228 14.5802 128.466 14.921 128.947 14.921C129.165 14.921 129.348 14.8975 129.495 14.8636L129.529 15.7956C129.29 15.8869 128.969 15.9326 128.571 15.9326C127.597 15.9326 127.015 15.3987 127.015 14.0007V11.2163H126.204V10.296H127.015V9.28435L128.228 8.92021V10.2948H129.587V11.2163ZM136.126 15.8179H134.892V12.6705C134.892 11.6823 134.516 11.1823 133.771 11.1823C133.131 11.1823 132.535 11.6144 132.535 12.489V15.8179H131.301V7.76221H132.535V11.0793H132.56C132.949 10.4775 133.512 10.1812 134.231 10.1812C135.407 10.1812 136.126 11.0898 136.126 12.5335V15.8179ZM142.826 13.352H139.119C139.143 14.3976 139.839 14.9877 140.871 14.9877C141.419 14.9877 141.923 14.8964 142.369 14.7266L142.561 15.579C142.035 15.8062 141.417 15.9197 140.696 15.9197C138.958 15.9197 137.929 14.8285 137.929 13.1365C137.929 11.4435 138.983 10.1707 140.557 10.1707C141.978 10.1707 142.869 11.2163 142.869 12.7958C142.877 12.9822 142.863 13.1689 142.826 13.352ZM141.694 12.4773C141.694 11.6249 141.261 11.0231 140.471 11.0231C139.762 11.0231 139.201 11.6366 139.12 12.4773H141.694Z" fill="white"/>
</g>
<defs>
<linearGradient id="paint0_linear_316_2629" x1="116.644" y1="47.036" x2="116.644" y2="-121.828" gradientUnits="userSpaceOnUse">
<stop stop-color="#1A1A1A" stop-opacity="0.1"/>
<stop offset="0.123" stop-color="#212121" stop-opacity="0.151"/>
<stop offset="0.308" stop-color="#353535" stop-opacity="0.227"/>
<stop offset="0.532" stop-color="#575757" stop-opacity="0.318"/>
<stop offset="0.783" stop-color="#858585" stop-opacity="0.421"/>
<stop offset="1" stop-color="#B3B3B3" stop-opacity="0.51"/>
</linearGradient>
<clipPath id="clip0_316_2629">
<rect width="159" height="47" fill="white"/>
</clipPath>
</defs>
</svg>
