<svg width="157" height="47" viewBox="0 0 157 47" fill="none" xmlns="http://www.w3.org/2000/svg">
<g clip-path="url(#clip0_316_2653)">
<path d="M151.185 46.9049H5.81481C2.55852 46.9049 0 44.3304 0 41.0537V5.94632C0 2.66963 2.55852 0.0950928 5.81481 0.0950928H151.185C154.441 0.0950928 157 2.66963 157 5.94632V41.0537C157 44.3304 154.441 46.9049 151.185 46.9049Z" fill="black"/>
<path d="M151.185 1.03129C153.86 1.03129 156.07 3.25476 156.07 5.94632V41.0537C156.07 43.7453 153.86 45.9687 151.185 45.9687H5.81481C3.14 45.9687 0.93037 43.7453 0.93037 41.0537V5.94632C0.93037 3.25476 3.14 1.03129 5.81481 1.03129H151.185ZM151.185 0.0950928H5.81481C2.55852 0.0950928 0 2.78666 0 5.94632V41.0537C0 44.3304 2.55852 46.9049 5.81481 46.9049H151.185C154.441 46.9049 157 44.3304 157 41.0537V5.94632C157 2.78666 154.441 0.0950928 151.185 0.0950928Z" fill="#A6A6A6"/>
<path d="M55.1262 12.0315C55.1262 12.9677 54.8936 13.7869 54.3121 14.372C53.6144 15.0741 52.8003 15.4252 51.7536 15.4252C50.707 15.4252 49.8929 15.0741 49.1951 14.372C48.4973 13.6698 48.1484 12.8507 48.1484 11.7974C48.1484 10.7442 48.4973 9.92505 49.1951 9.2229C49.8929 8.52075 50.707 8.16968 51.7536 8.16968C52.2188 8.16968 52.684 8.2867 53.1492 8.52075C53.6144 8.7548 53.9632 8.98885 54.1958 9.33992L53.6144 9.92505C53.1492 9.33992 52.5677 9.10587 51.7536 9.10587C51.0558 9.10587 50.3581 9.33992 49.8929 9.92505C49.3114 10.3931 49.0788 11.0953 49.0788 11.9145C49.0788 12.7336 49.3114 13.4358 49.8929 13.9039C50.4744 14.372 51.0558 14.7231 51.7536 14.7231C52.5677 14.7231 53.1492 14.489 53.7307 13.9039C54.0795 13.5528 54.3121 13.0847 54.3121 12.4996H51.7536V11.5634H55.1262V12.0315ZM60.4758 9.10587H57.3358V11.3293H60.2432V12.1485H57.3358V14.372H60.4758V15.3082H56.4055V8.2867H60.4758V9.10587ZM64.3136 15.3082H63.3833V9.10587H61.4062V8.2867H66.2907V9.10587H64.3136V15.3082ZM69.6633 15.3082V8.2867H70.5936V15.3082H69.6633ZM74.5477 15.3082H73.6173V9.10587H71.6403V8.2867H76.4084V9.10587H74.4314V15.3082H74.5477ZM85.5958 14.372C84.8981 15.0741 84.084 15.4252 83.0373 15.4252C81.9907 15.4252 81.1766 15.0741 80.4788 14.372C79.781 13.6698 79.4321 12.8507 79.4321 11.7974C79.4321 10.7442 79.781 9.92505 80.4788 9.2229C81.1766 8.52075 81.9907 8.16968 83.0373 8.16968C84.084 8.16968 84.8981 8.52075 85.5958 9.2229C86.2936 9.92505 86.6425 10.7442 86.6425 11.7974C86.6425 12.8507 86.2936 13.6698 85.5958 14.372ZM81.1766 13.7869C81.6418 14.255 82.3395 14.606 83.0373 14.606C83.7351 14.606 84.4329 14.372 84.8981 13.7869C85.3633 13.3188 85.7121 12.6166 85.7121 11.7974C85.7121 10.9783 85.4795 10.2761 84.8981 9.80802C84.4329 9.33992 83.7351 8.98885 83.0373 8.98885C82.3395 8.98885 81.6418 9.2229 81.1766 9.80802C80.7114 10.2761 80.3625 10.9783 80.3625 11.7974C80.3625 12.6166 80.5951 13.3188 81.1766 13.7869ZM87.9218 15.3082V8.2867H88.9684L92.341 13.7869V8.2867H93.2714V15.3082H92.341L88.7358 9.57397V15.3082H87.9218Z" fill="white" stroke="white" stroke-width="1.18519" stroke-miterlimit="10"/>
<path d="M79.1969 25.6064C76.4058 25.6064 74.1961 27.7128 74.1961 30.6384C74.1961 33.447 76.4058 35.6705 79.1969 35.6705C81.988 35.6705 84.1976 33.564 84.1976 30.6384C84.1976 27.5958 81.988 25.6064 79.1969 25.6064ZM79.1969 33.564C77.685 33.564 76.4058 32.2768 76.4058 30.5214C76.4058 28.766 77.685 27.4787 79.1969 27.4787C80.7087 27.4787 81.988 28.649 81.988 30.5214C81.988 32.2768 80.7087 33.564 79.1969 33.564ZM68.3813 25.6064C65.5902 25.6064 63.3806 27.7128 63.3806 30.6384C63.3806 33.447 65.5902 35.6705 68.3813 35.6705C71.1724 35.6705 73.3821 33.564 73.3821 30.6384C73.3821 27.5958 71.1724 25.6064 68.3813 25.6064ZM68.3813 33.564C66.8695 33.564 65.5902 32.2768 65.5902 30.5214C65.5902 28.766 66.8695 27.4787 68.3813 27.4787C69.8932 27.4787 71.1724 28.649 71.1724 30.5214C71.1724 32.2768 69.8932 33.564 68.3813 33.564ZM55.4724 27.1277V29.2341H60.4732C60.3569 30.4044 59.8917 31.3406 59.3102 31.9257C58.6124 32.6278 57.4495 33.447 55.4724 33.447C52.3324 33.447 50.0065 30.9895 50.0065 27.8298C50.0065 24.6702 52.4487 22.2126 55.4724 22.2126C57.1006 22.2126 58.3798 22.9148 59.3102 23.734L60.8221 22.2126C59.5428 21.0424 57.9147 20.1062 55.5887 20.1062C51.4021 20.1062 47.7969 23.6169 47.7969 27.8298C47.7969 32.0427 51.4021 35.5534 55.5887 35.5534C57.9147 35.5534 59.5428 34.8513 60.9384 33.33C62.3339 31.9257 62.7991 29.9363 62.7991 28.4149C62.7991 27.9468 62.7991 27.4787 62.6828 27.1277H55.4724ZM108.271 28.766C107.806 27.5958 106.643 25.6064 104.084 25.6064C101.526 25.6064 99.4324 27.5958 99.4324 30.6384C99.4324 33.447 101.526 35.6705 104.317 35.6705C106.527 35.6705 107.922 34.2662 108.387 33.447L106.759 32.2768C106.178 33.0959 105.48 33.6811 104.317 33.6811C103.154 33.6811 102.456 33.213 101.875 32.1597L108.504 29.3511L108.271 28.766ZM101.526 30.4044C101.526 28.532 103.038 27.4787 104.084 27.4787C104.898 27.4787 105.712 27.9468 105.945 28.532L101.526 30.4044ZM96.0598 35.2024H98.2695V20.5743H96.0598V35.2024ZM92.5709 26.6596C91.9895 26.0745 91.0591 25.4893 89.8961 25.4893C87.4539 25.4893 85.128 27.7128 85.128 30.5214C85.128 33.33 87.3376 35.4364 89.8961 35.4364C91.0591 35.4364 91.9895 34.8513 92.4547 34.2662H92.5709V34.9683C92.5709 36.8407 91.5243 37.8939 89.8961 37.8939C88.6169 37.8939 87.6865 36.9577 87.4539 36.1386L85.5932 36.9577C86.1747 38.245 87.5702 39.8834 90.0124 39.8834C92.5709 39.8834 94.6643 38.362 94.6643 34.7343V25.8404H92.5709V26.6596ZM90.0124 33.564C88.5006 33.564 87.2213 32.2768 87.2213 30.5214C87.2213 28.766 88.5006 27.4787 90.0124 27.4787C91.5243 27.4787 92.6872 28.766 92.6872 30.5214C92.6872 32.2768 91.5243 33.564 90.0124 33.564ZM118.389 20.5743H113.155V35.2024H115.365V29.7022H118.389C120.831 29.7022 123.157 27.9468 123.157 25.1383C123.157 22.3297 120.831 20.5743 118.389 20.5743ZM118.505 27.5958H115.365V22.5637H118.505C120.133 22.5637 121.064 23.968 121.064 25.0212C120.947 26.3085 120.017 27.5958 118.505 27.5958ZM131.879 25.4893C130.251 25.4893 128.623 26.1915 128.041 27.7128L130.018 28.532C130.484 27.7128 131.181 27.4787 131.995 27.4787C133.158 27.4787 134.205 28.1809 134.321 29.3511V29.4682C133.972 29.2341 133.042 28.883 132.112 28.883C130.018 28.883 127.925 30.0533 127.925 32.1597C127.925 34.1491 129.669 35.4364 131.53 35.4364C133.042 35.4364 133.74 34.7343 134.321 34.0321H134.438V35.2024H136.531V29.5852C136.298 27.0107 134.321 25.4893 131.879 25.4893ZM131.646 33.564C130.949 33.564 129.902 33.213 129.902 32.2768C129.902 31.1065 131.181 30.7554 132.228 30.7554C133.158 30.7554 133.624 30.9895 134.205 31.2235C133.972 32.6278 132.809 33.564 131.646 33.564ZM143.858 25.8404L141.415 32.1597H141.299L138.741 25.8404H136.415L140.252 34.7343L138.043 39.6493H140.252L146.184 25.8404H143.858ZM124.32 35.2024H126.529V20.5743H124.32V35.2024Z" fill="white"/>
<path d="M12.098 8.87183C11.7491 9.2229 11.6328 9.80802 11.6328 10.5102V36.3726C11.6328 37.0748 11.8654 37.6599 12.2143 38.011L12.3306 38.128L26.7513 23.6169V23.3829L12.098 8.87183Z" fill="url(#paint0_linear_316_2653)"/>
<path d="M31.401 28.532L26.6328 23.734V23.383L31.401 18.585L31.5173 18.702L37.2158 21.9787C38.8439 22.9149 38.8439 24.4362 37.2158 25.3724L31.401 28.532Z" fill="url(#paint1_linear_316_2653)"/>
<path d="M31.5152 28.415L26.6308 23.5L12.0938 38.1281C12.6752 38.7132 13.4893 38.7132 14.536 38.2451L31.5152 28.415Z" fill="url(#paint2_linear_316_2653)"/>
<path d="M31.5152 18.5848L14.536 8.87175C13.4893 8.28663 12.6752 8.40365 12.0938 8.98877L26.6308 23.4998L31.5152 18.5848Z" fill="url(#paint3_linear_316_2653)"/>
<path opacity="0.2" d="M31.3989 28.2979L14.536 37.8939C13.6056 38.479 12.7915 38.362 12.21 37.8939L12.0938 38.0109L12.21 38.1279C12.7915 38.596 13.6056 38.713 14.536 38.1279L31.3989 28.2979Z" fill="black"/>
<path opacity="0.12" d="M12.098 37.894C11.7491 37.543 11.6328 36.9578 11.6328 36.2557V36.3727C11.6328 37.0749 11.8654 37.66 12.2143 38.0111V37.894H12.098ZM37.218 25.0213L31.4032 28.298L31.5195 28.415L37.218 25.1383C38.0321 24.6702 38.381 24.0851 38.381 23.5C38.381 24.0851 37.9158 24.5532 37.218 25.0213Z" fill="black"/>
<path opacity="0.25" d="M14.5402 8.98888L37.218 21.9786C37.9158 22.4467 38.381 22.9148 38.381 23.4999C38.381 22.9148 38.0321 22.3297 37.218 21.8616L14.5402 8.87186C12.9121 7.93566 11.6328 8.63781 11.6328 10.5102V10.6272C11.6328 8.87186 12.9121 8.05269 14.5402 8.98888Z" fill="white"/>
</g>
<defs>
<linearGradient id="paint0_linear_316_2653" x1="25.3558" y1="10.2878" x2="5.71593" y2="29.8043" gradientUnits="userSpaceOnUse">
<stop stop-color="#00A0FF"/>
<stop offset="0.007" stop-color="#00A1FF"/>
<stop offset="0.26" stop-color="#00BEFF"/>
<stop offset="0.512" stop-color="#00D2FF"/>
<stop offset="0.76" stop-color="#00DFFF"/>
<stop offset="1" stop-color="#00E3FF"/>
</linearGradient>
<linearGradient id="paint1_linear_316_2653" x1="39.3486" y1="23.5012" x2="11.2084" y2="23.5012" gradientUnits="userSpaceOnUse">
<stop stop-color="#FFE000"/>
<stop offset="0.409" stop-color="#FFBD00"/>
<stop offset="0.775" stop-color="#FFA500"/>
<stop offset="1" stop-color="#FF9C00"/>
</linearGradient>
<linearGradient id="paint2_linear_316_2653" x1="28.8718" y1="26.1869" x2="2.23988" y2="52.6531" gradientUnits="userSpaceOnUse">
<stop stop-color="#FF3A44"/>
<stop offset="1" stop-color="#C31162"/>
</linearGradient>
<linearGradient id="paint3_linear_316_2653" x1="8.48508" y1="0.30087" x2="20.3781" y2="12.1198" gradientUnits="userSpaceOnUse">
<stop stop-color="#32A071"/>
<stop offset="0.069" stop-color="#2DA771"/>
<stop offset="0.476" stop-color="#15CF74"/>
<stop offset="0.801" stop-color="#06E775"/>
<stop offset="1" stop-color="#00F076"/>
</linearGradient>
<clipPath id="clip0_316_2653">
<rect width="157" height="47" fill="white"/>
</clipPath>
</defs>
</svg>
