<svg width="44" height="44" viewBox="0 0 44 44" fill="none" xmlns="http://www.w3.org/2000/svg">
<g clip-path="url(#clip0_466_8474)">
<path d="M43.3417 27.3219C40.4031 39.1077 28.4647 46.2804 16.6761 43.3413C4.89249 40.4031 -2.28094 28.4652 0.658942 16.6803C3.59624 4.89322 15.5347 -2.27994 27.3196 0.658315C39.1073 3.59657 46.2803 15.5357 43.3414 27.3221L43.3416 27.3219H43.3417Z" fill="#F7931A"/>
<path d="M31.7013 18.8656C32.1392 15.9379 29.91 14.3641 26.8617 13.3143L27.8506 9.34843L25.4362 8.74688L24.4736 12.6083C23.8388 12.45 23.187 12.3009 22.5391 12.153L23.5088 8.2661L21.0959 7.66455L20.1064 11.6291C19.5812 11.5095 19.0653 11.3914 18.5648 11.2668L18.5676 11.2544L15.238 10.423L14.5958 13.0015C14.5958 13.0015 16.3871 13.412 16.3493 13.4373C17.327 13.6813 17.5038 14.3284 17.4745 14.8414L16.348 19.3594C16.4153 19.3765 16.5027 19.4012 16.599 19.44C16.5185 19.42 16.4328 19.3981 16.3438 19.3768L14.7649 25.706C14.6455 26.003 14.3422 26.4487 13.6586 26.2794C13.6828 26.3145 11.9038 25.8416 11.9038 25.8416L10.7051 28.605L13.847 29.3881C14.4315 29.5347 15.0043 29.688 15.5684 29.8323L14.5693 33.8436L16.9809 34.4451L17.9704 30.4764C18.6292 30.6552 19.2685 30.8202 19.8945 30.9757L18.9084 34.9257L21.3229 35.5273L22.3219 31.5234C26.439 32.3025 29.5347 31.9884 30.8377 28.2649C31.8877 25.2671 30.7854 23.538 28.6195 22.4104C30.197 22.0466 31.3853 21.0091 31.7022 18.8659L31.7014 18.8654L31.7013 18.8656ZM26.1849 26.6001C25.4388 29.5979 20.3908 27.9774 18.7541 27.571L20.08 22.2567C21.7165 22.6652 26.9648 23.4737 26.185 26.6001H26.1849ZM26.9316 18.8222C26.251 21.549 22.0495 20.1637 20.6865 19.824L21.8886 15.0042C23.2515 15.3439 27.6407 15.9779 26.9318 18.8222H26.9316Z" fill="white"/>
</g>
<defs>
<clipPath id="clip0_466_8474">
<rect width="44" height="44" fill="white"/>
</clipPath>
</defs>
</svg>
