<svg width="101" height="27" viewBox="0 0 101 27" fill="none" xmlns="http://www.w3.org/2000/svg">
<g clip-path="url(#clip0_466_8499)">
<path d="M23.4952 9.35031H16.8437C16.8437 8.28563 16.7157 7.57122 16.4597 7.20708C16.064 6.66903 14.9721 6.39987 13.1838 6.39958C11.4475 6.39958 10.2979 6.55458 9.73498 6.86458C9.17339 7.17608 8.89245 7.85295 8.89216 8.89521C8.89216 9.83848 9.14139 10.4593 9.63986 10.7578C9.99752 10.969 10.4702 11.0932 11.058 11.1303L12.3992 11.2226C15.2743 11.4082 17.0697 11.5388 17.7852 11.6144C20.0589 11.838 21.707 12.4277 22.7296 13.3835C23.534 14.1293 24.0131 15.1038 24.1669 16.3071C24.2617 17.1172 24.3065 17.9321 24.301 18.7474C24.301 20.8344 24.0969 22.3619 23.6888 23.33C22.9487 25.1069 21.2845 26.2305 18.6963 26.7008C17.6116 26.8995 15.9532 26.999 13.7211 26.9995C9.996 26.9995 7.40062 26.7824 5.93497 26.3484C4.13645 25.8158 2.95025 24.7373 2.37637 23.1129C2.05637 22.2081 1.89706 20.7012 1.89845 18.5924H8.54929V19.1319C8.54929 20.2573 8.88049 20.981 9.54288 21.3031C10.0636 21.5387 10.6313 21.6592 11.2053 21.656H13.6508C14.8985 21.656 15.6943 21.5935 16.0383 21.4685C16.6499 21.2343 17.0514 20.8563 17.2428 20.3342C17.3556 19.9277 17.407 19.5074 17.3956 19.0864C17.3956 17.9458 16.9692 17.2511 16.1166 17.0025C15.7966 16.9043 14.3136 16.7679 11.6675 16.5933C9.54164 16.4452 8.0653 16.3022 7.23847 16.1643C5.06098 15.767 3.61009 14.9484 2.88581 13.7087C2.24866 12.6545 1.93045 11.0601 1.93117 8.92533C1.93117 7.30089 2.10317 5.99844 2.44717 5.01798C2.79116 4.03753 3.34555 3.293 4.11034 2.78439C5.23243 2.00254 6.66656 1.5435 8.41271 1.40726C9.86672 1.28366 11.4796 1.22133 13.2513 1.22026C16.0424 1.22026 18.0315 1.37608 19.2184 1.68771C22.1129 2.44636 23.5602 4.57146 23.5602 8.06301C23.5602 8.34932 23.5386 8.77859 23.4954 9.35084M52.7423 26.9998V1.0835H66.0621C67.889 1.0835 69.282 1.22895 70.241 1.51987C72.4317 2.18919 73.9027 3.56007 74.6541 5.63252C75.0427 6.7204 75.2371 8.35783 75.2374 10.5448C75.2374 13.1737 75.0232 15.063 74.5949 16.2128C73.7405 18.4869 71.9844 19.795 69.3265 20.1369C69.0144 20.1882 67.6855 20.2326 65.3398 20.2702L64.1535 20.3087H59.8915V26.9998H52.7423ZM59.8919 14.2971H64.3491C65.7622 14.2474 66.6227 14.1403 66.9308 13.9758C67.3532 13.7492 67.637 13.2946 67.7782 12.6144C67.8688 12.1618 67.9139 11.488 67.9138 10.5931C67.9138 9.49687 67.8237 8.68376 67.6436 8.1538C67.3866 7.40998 66.7705 6.95636 65.7955 6.79296C65.6023 6.76826 65.14 6.7556 64.4088 6.75496H59.8925L59.8919 14.2971ZM90.498 22.5209H80.9393L79.6548 26.9998H72.2585L80.2401 1.0835H91.0244L99.1034 26.9998H91.8621L90.498 22.5209ZM89.0784 17.4724L85.7283 6.23812L82.4774 17.4724H89.0784Z" fill="#10298E"/>
<path d="M42.8737 4.73022C44.275 4.72957 45.6587 5.03463 46.9235 5.62307C48.1883 6.21152 49.3022 7.06845 50.1838 8.13116L51.7248 4.90743C49.2083 2.59046 45.8765 1.30405 42.4164 1.31353C36.783 1.31353 31.9641 4.63347 29.987 9.33257H26.9818L25.207 13.0439H29.0727C29.042 13.3898 29.026 13.7365 29.0246 14.0839C29.0247 14.5051 29.0466 14.926 29.0901 15.345H27.1477L25.3735 19.0574H30.0785C32.1123 23.6375 36.871 26.8528 42.4159 26.8528C45.0968 26.8591 47.7193 26.089 49.9513 24.64V20.0905C48.9947 21.1574 47.7977 21.9935 46.4543 22.5333C45.1109 23.0732 43.6576 23.302 42.2083 23.2019C40.7591 23.1018 39.3533 22.6755 38.1012 21.9565C36.8492 21.2374 35.7849 20.2451 34.9918 19.0574H44.8435L46.6175 15.345H33.5425C33.4269 14.583 33.4082 13.8099 33.4869 13.0434H47.7179L49.4917 9.33257H34.7163C35.5422 7.93422 36.7309 6.77265 38.1629 5.96468C39.5949 5.15671 41.2196 4.73081 42.8738 4.72979" fill="#FFBE00"/>
</g>
<defs>
<clipPath id="clip0_466_8499">
<rect width="101" height="27" fill="white"/>
</clipPath>
</defs>
</svg>
