<svg width="32" height="32" viewBox="0 0 32 32" fill="none" xmlns="http://www.w3.org/2000/svg">
<g clip-path="url(#clip0_466_7957)">
<path d="M16.0516 32.1032C24.9167 32.1032 32.1032 24.9167 32.1032 16.0516C32.1032 7.18655 24.9167 0 16.0516 0C7.18655 0 0 7.18655 0 16.0516C0 24.9167 7.18655 32.1032 16.0516 32.1032Z" fill="#26A17B"/>
<path d="M17.7567 17.5228C17.6535 17.5228 17.06 17.5744 15.7954 17.5744C14.7632 17.5744 14.0664 17.5486 13.8083 17.5228C9.91157 17.3679 6.96963 16.6712 6.96963 15.8712C6.96963 15.0454 9.88576 14.3744 13.8083 14.1937V16.8518C14.0664 16.8776 14.789 16.9034 15.8212 16.9034C17.0341 16.9034 17.6535 16.8518 17.7567 16.8518V14.1937C21.6793 14.3744 24.5954 15.0454 24.5954 15.8712C24.5954 16.6712 21.6793 17.3679 17.7567 17.5228ZM17.7567 13.9099V11.5357H23.2277V7.89697H8.36318V11.5357H13.8341V13.9099C9.39544 14.1163 6.06641 14.9937 6.06641 16.0518C6.06641 17.1099 9.39544 17.9873 13.8341 18.1937V25.8325H17.7825V18.1937C22.2212 17.9873 25.5503 17.1099 25.5503 16.0518C25.5245 14.9937 22.1954 14.1163 17.7567 13.9099Z" fill="white"/>
</g>
<defs>
<clipPath id="clip0_466_7957">
<rect width="32" height="32" fill="white"/>
</clipPath>
</defs>
</svg>
