<svg width="27" height="22" viewBox="0 0 27 22" fill="none" xmlns="http://www.w3.org/2000/svg">
<path d="M17.1426 4.81274H9.83594V18.1929H17.1426V4.81274Z" fill="#FF5A00"/>
<path d="M10.3223 11.5029C10.3223 8.7844 11.5761 6.37166 13.5 4.81275C12.0841 3.678 10.2979 2.99219 8.34968 2.99219C3.73439 2.99219 0 6.79857 0 11.5029C0 16.2071 3.73439 20.0135 8.34968 20.0135C10.2979 20.0135 12.0841 19.3277 13.5 18.1929C11.5734 16.6561 10.3223 14.2213 10.3223 11.5029Z" fill="#EB001B"/>
<path d="M27 11.5029C27 16.2071 23.2656 20.0135 18.6503 20.0135C16.7021 20.0135 14.9159 19.3277 13.5 18.1929C15.4483 16.6313 16.6777 14.2213 16.6777 11.5029C16.6777 8.7844 15.4239 6.37166 13.5 4.81275C14.9132 3.678 16.6994 2.99219 18.6476 2.99219C23.2656 2.99219 27 6.82336 27 11.5029Z" fill="#F79E1B"/>
</svg>
