<svg width="102" height="32" viewBox="0 0 102 32" fill="none" xmlns="http://www.w3.org/2000/svg">
<g clip-path="url(#clip0_466_8491)">
<path d="M32.0885 8.86297C32.0873 8.54116 32.0825 8.21937 32.0743 7.89767C32.0548 7.1968 32.014 6.48947 31.8888 5.79636C31.7695 5.10112 31.5468 4.42753 31.2281 3.79786C30.5825 2.53281 29.5514 1.50428 28.2831 0.859918C27.6517 0.54244 26.9765 0.320604 26.2795 0.201725C25.5832 0.07694 24.8738 0.0355605 24.1709 0.0168104C23.8474 0.00775866 23.5251 0.00387933 23.2022 0.00193966C22.819 0 22.4358 0 22.052 0H10.0385C9.65463 0 9.27208 0 8.88887 0.00193966C8.56597 0.00452588 8.24307 0.00840521 7.92017 0.0168104C7.74445 0.0213363 7.56809 0.0278019 7.39173 0.0362071C6.86328 0.0614227 6.33354 0.107975 5.81158 0.201725C5.29114 0.292021 4.782 0.438128 4.29304 0.637503C3.47382 0.975652 2.72936 1.47128 2.1021 2.09613C1.60181 2.5947 1.18343 3.16877 0.862368 3.79722C0.535576 4.4373 0.328737 5.09162 0.2023 5.79572C0.0771592 6.48947 0.0356618 7.1968 0.0168583 7.89702C0.00778076 8.2203 0.00389038 8.54163 0.00194519 8.86297C0 9.24573 0 9.62785 0 10.01V21.9893C0 22.3721 0 22.7542 0.00194519 23.1363C0.00453878 23.4583 0.00842916 23.7803 0.0168583 24.1016C0.0363102 24.8031 0.0771592 25.5105 0.2023 26.2029C0.32133 26.8986 0.543803 27.5726 0.862368 28.2027C1.50812 29.4681 2.53967 30.4967 3.80868 31.1407C4.44995 31.4659 5.10613 31.6721 5.81223 31.7989C6.50731 31.9236 7.21731 31.965 7.92017 31.9838C8.24307 31.9922 8.56597 31.9961 8.88887 31.998C9.27143 32.0006 9.65463 31.9999 10.0385 31.9999H22.052C22.4345 31.9999 22.8184 32.0006 23.2016 31.998C23.5245 31.9961 23.8467 31.9922 24.1696 31.9838C24.8732 31.9644 25.5832 31.9236 26.2782 31.7989C26.9752 31.68 27.6504 31.4581 28.2818 31.1407C29.5505 30.4965 30.5818 29.4679 31.2274 28.2027C31.5542 27.5626 31.7611 26.9077 31.8882 26.2042C32.0133 25.5111 32.0548 24.8038 32.0736 24.1023C32.082 23.7809 32.0859 23.4589 32.0879 23.137C32.0905 22.7548 32.0898 22.3727 32.0898 21.99V10.01C32.0898 9.62785 32.0905 9.24573 32.0885 8.86297Z" fill="url(#paint0_linear_466_8491)"/>
<path d="M26.0858 25.1291C25.9771 24.9611 25.8564 24.7931 25.7235 24.6371C25.4216 24.277 25.0714 23.965 24.6849 23.701C24.2018 23.377 23.6342 23.173 23.0545 23.149C22.6439 23.125 22.2333 23.197 21.8469 23.341C21.4604 23.473 21.086 23.665 20.7237 23.857C20.301 24.073 19.8784 24.289 19.4315 24.469C18.9001 24.6851 18.3446 24.8531 17.777 24.9731C17.0645 25.1051 16.3399 25.1531 15.6273 25.1411C14.3351 25.1171 13.0429 24.9251 11.8111 24.5651C10.7242 24.241 9.68556 23.797 8.70735 23.233C7.8499 22.741 7.05283 22.177 6.30407 21.5409C5.68816 21.0129 5.12055 20.4489 4.58917 19.8489C4.22687 19.4288 3.87664 18.9848 3.55057 18.5288C3.41772 18.3488 3.29696 18.1568 3.18827 17.9648L0 14.5446V6.80429C0 3.04813 3.05542 0 6.83545 0H12.9342L17.4509 4.5602C27.6437 11.4485 24.3468 19.0448 24.3468 19.0448C24.3468 19.0448 27.2452 22.285 26.0858 25.1291Z" fill="url(#paint1_linear_466_8491)"/>
<path d="M25.0523 19.7436L25.0504 19.7417C25.0844 19.6229 25.1196 19.5053 25.1505 19.384C26.4437 14.1835 23.2868 8.03484 17.9457 4.79785C20.2866 8.00052 21.3211 11.8793 20.4012 15.2713C20.3194 15.5745 20.2212 15.8649 20.1122 16.147C19.9601 16.0481 19.8042 15.955 19.6451 15.868C19.6451 15.868 14.331 12.5573 8.5725 6.70039C8.42139 6.54661 11.6432 11.3481 15.3 15.2472C13.5774 14.2718 8.77586 10.7457 5.73667 7.93825C6.11004 8.56734 6.55455 9.17229 7.04251 9.755C9.58052 13.0034 12.8911 17.0118 16.8565 20.09C14.0704 21.8108 10.1333 21.9442 6.21329 20.0919C5.25358 19.637 4.3408 19.0874 3.48828 18.4511C5.24113 21.2608 7.79443 23.4703 10.8133 24.7898C14.5231 26.3987 18.2114 26.2894 20.9585 24.8164L20.9566 24.8196C20.9692 24.8114 20.9849 24.8031 20.9981 24.7942C21.1108 24.7338 21.2229 24.6709 21.3318 24.6055C22.6521 23.9141 25.2594 23.2126 26.6584 25.9603C27.0016 26.6332 27.7301 23.069 25.0529 19.7443L25.0523 19.7436Z" fill="white"/>
</g>
<path d="M43.3481 20.7414C43.5917 22.9229 45.6537 24.3533 48.5173 24.3533C51.2379 24.3533 53.1998 22.9236 53.1998 20.9435C53.1998 19.2386 52.0111 18.1977 49.276 17.5044L46.6271 16.8245C42.8185 15.8713 41.1003 14.1366 41.1003 11.2758C41.1003 7.74965 44.1502 5.30762 48.4889 5.30762C52.698 5.30762 55.6906 7.76427 55.7913 11.305H52.9989C52.7842 9.13684 51.037 7.80748 48.4172 7.80748C45.825 7.80748 44.0211 9.15146 44.0211 11.1163C44.0211 12.6477 45.1381 13.5589 47.887 14.2668L50.0926 14.8451C54.3596 15.8999 56.1061 17.5763 56.1061 20.5966C56.1061 24.441 53.0846 26.8538 48.2736 26.8538C43.8064 26.8538 40.7565 24.455 40.5273 20.7408L43.3481 20.7414ZM73.842 26.5069H71.0358L67.7567 14.9754H67.7L64.4348 26.5069H61.6292L57.4768 11.4054H60.1968L63.0893 23.5298H63.1466L66.4112 11.4054H69.0462L72.3391 23.5298H72.3964L75.2889 11.4054H77.9805L73.842 26.5069ZM79.792 7.34487C79.792 6.43491 80.5374 5.69778 81.439 5.69778C82.3558 5.69778 83.1 6.43491 83.1 7.34487C83.1 8.25547 82.3558 9.00657 81.439 9.00657C81.0031 9.00407 80.5858 8.8282 80.2776 8.51711C79.9693 8.20602 79.7944 7.78481 79.792 7.34487ZM80.0791 11.4054H82.8135V26.5069H80.0791V11.4054ZM100.673 13.6314V11.4054H97.7809V7.79286H95.0597V11.4054H89.8326V10.076C89.8464 8.73206 90.3615 8.16841 91.5936 8.16841C91.9941 8.16841 92.3951 8.21226 92.7244 8.27009V6.10129C92.2462 6.0258 91.7629 5.98714 91.2788 5.98564C88.3574 5.98564 87.1258 7.2146 87.1258 10.0322V11.4048H85.0355V13.6307H87.1258V26.5062H89.8464V13.6314H95.0603V22.5467C95.0603 25.466 96.1622 26.5927 99.0263 26.5927C99.6421 26.5927 100.344 26.5494 100.659 26.4776V24.2231C100.317 24.2658 99.9724 24.2899 99.6276 24.2955C98.3533 24.2955 97.7809 23.6887 97.7809 22.3301V13.6314H100.673Z" fill="black"/>
<defs>
<linearGradient id="paint0_linear_466_8491" x1="19.0628" y1="-1.14187" x2="13.0392" y2="33.1538" gradientUnits="userSpaceOnUse">
<stop stop-color="#FAAE42"/>
<stop offset="1" stop-color="#EF3E31"/>
</linearGradient>
<linearGradient id="paint1_linear_466_8491" x1="15.7737" y1="0.496342" x2="11.5509" y2="24.5974" gradientUnits="userSpaceOnUse">
<stop stop-color="#E39F3A"/>
<stop offset="1" stop-color="#D33929"/>
</linearGradient>
<clipPath id="clip0_466_8491">
<rect width="32.0899" height="32" rx="7" fill="white"/>
</clipPath>
</defs>
</svg>
