<svg width="97" height="35" viewBox="0 0 97 35" fill="none" xmlns="http://www.w3.org/2000/svg">
<path d="M14.6301 4.84702L6.95605 4.77882V9.69404H19.6741L6.45703 26.0499V30.2093H14.6301V35H19.534V30.2093H27.8705C27.9405 30.0177 27.9652 29.501 27.5215 29.0276C26.7859 28.2385 26.201 27.4138 25.6639 26.3768C25.4187 25.9147 25.2325 25.3611 25.1624 25.316C23.5208 25.2434 14.0763 25.2621 14.0815 25.2045L27.3102 8.74842V4.84702H19.5341V0H14.6302V4.84702H14.6301ZM50.0429 2.55878C49.9261 2.60386 49.8911 5.09501 49.8911 14.5298C49.8911 27.2786 49.8794 27.0644 50.4632 28.1578C50.9886 29.1385 52.273 30.0177 53.7091 30.3784C54.503 30.5813 56.8382 30.6039 57.7372 30.4235C58.8931 30.1868 59.115 29.8486 58.6596 28.9807C58.3677 28.4396 57.9824 27.256 57.889 26.6023C57.7606 25.8245 57.5971 25.7005 56.6164 25.723C56.1493 25.7343 55.7056 25.7005 55.6239 25.6554C55.1452 25.3623 55.1452 25.2834 55.1452 13.8647C55.1452 6.52657 55.1102 2.84058 55.0284 2.69404C54.9117 2.49114 54.7599 2.47987 52.5415 2.49114C51.2455 2.49114 50.1129 2.52496 50.0429 2.55878ZM60.7496 2.59259C60.5978 2.68277 60.5745 4.12561 60.5745 14.4509C60.5745 25.5765 60.5861 26.2528 60.7963 27.0306C61.1933 28.5636 62.0923 29.4992 63.797 30.1868C64.4508 30.4461 64.7427 30.4911 66.0621 30.525C67.8251 30.57 68.7242 30.4461 69.6232 30.0064C70.5106 29.5894 70.5339 29.2963 69.775 28.2254C69.4714 27.7971 69.0044 27.0644 68.7475 26.6023L68.2805 25.7568L67.4282 25.7456C66.3657 25.723 66.2606 25.6779 66.0621 25.1932C65.9103 24.8663 65.887 23.1868 65.887 13.8647C65.887 6.52657 65.8519 2.84058 65.7702 2.69404C65.6534 2.49114 65.5017 2.47987 63.2833 2.47987C61.9872 2.47987 60.843 2.53623 60.7496 2.59259ZM91.8073 5.0161C90.8615 5.43317 90.3712 6.15459 90.3595 7.15781C90.3478 8.01449 90.7098 8.66828 91.4453 9.13043C92.356 9.72786 93.8155 9.55877 94.5744 8.76972C95.5435 7.7665 95.3451 6.0306 94.1541 5.25282C93.5353 4.84702 92.4495 4.74557 91.8073 5.0161ZM93.6754 5.43317C94.9948 6.07569 95.1933 7.72142 94.0724 8.67955C93.5937 9.08535 93.2551 9.17552 92.5195 9.10789C90.4879 8.91626 90.0909 6.16586 91.9824 5.34299C92.4962 5.11755 93.0916 5.15137 93.6754 5.43317Z" fill="#6C1CD3"/>
<path d="M91.8896 5.94023C91.8078 6.0755 91.7962 8.17212 91.8779 8.38629C91.9129 8.48774 92.018 8.56664 92.1114 8.56664C92.2282 8.56664 92.2749 8.40883 92.2749 8.00304C92.2749 7.49579 92.2982 7.43943 92.5434 7.43943C92.7302 7.43943 92.8937 7.59724 93.1506 8.00304C93.3607 8.3412 93.5709 8.56664 93.6993 8.56664C93.9795 8.56664 93.9679 8.52155 93.5359 7.91286C93.279 7.55215 93.2089 7.38307 93.314 7.34925C93.6176 7.2478 93.9095 6.87582 93.9095 6.59402C93.9095 6.08677 93.5359 5.86133 92.6952 5.86133C92.2749 5.86133 91.9129 5.89515 91.8896 5.94023ZM93.3023 6.30094C93.3957 6.34603 93.4425 6.51511 93.4191 6.66165C93.3841 6.89837 93.314 6.93218 92.8353 6.966L92.2749 6.99982V6.60529C92.2749 6.21077 92.2865 6.19949 92.7186 6.19949C92.9521 6.19949 93.2206 6.24458 93.3023 6.30094ZM35.3552 9.6375C35.2968 9.66004 34.8415 9.76149 34.3628 9.86294C31.3621 10.528 28.7117 12.7486 27.5908 15.5666C26.972 17.1222 26.7501 18.3283 26.7385 20.1206C26.7268 22.6343 27.2522 24.4829 28.4548 26.2414C29.8092 28.214 31.7941 29.5554 34.3628 30.2317C35.2385 30.4571 35.6238 30.491 37.632 30.491C39.6169 30.491 40.0256 30.4571 40.8545 30.243C42.9095 29.6906 44.6609 28.7776 46.0736 27.4813C46.9727 26.6697 46.961 26.4443 46.0503 25.7679C45.6767 25.4861 44.9995 24.8774 44.5558 24.404C43.9953 23.8291 43.6567 23.5586 43.4816 23.5586C43.3181 23.5586 42.9445 23.784 42.5826 24.1222C41.3333 25.2156 39.757 25.7341 37.6904 25.7228C35.7989 25.7116 34.4212 25.2381 33.5455 24.2687C33.1018 23.784 32.5414 22.6794 32.4246 22.0594L32.3545 21.6423H39.6286C43.6334 21.6423 46.9843 21.5972 47.0661 21.5409C47.4514 21.3042 47.5448 19.6697 47.2646 17.8887C46.599 13.6278 43.9603 10.7647 39.8154 9.80658C39.0798 9.6375 38.4727 9.58114 37.165 9.59241C36.2309 9.59241 35.4253 9.61495 35.3552 9.6375ZM38.4727 13.9885C39.325 14.1576 40.3758 14.7212 40.8662 15.2623C41.3216 15.7583 41.7886 16.6488 41.9054 17.2236L41.9871 17.5844H32.4713L32.553 17.2236C32.9033 15.7019 34.2577 14.4282 35.939 14.0224C36.6863 13.842 37.6904 13.8307 38.4727 13.9885ZM77.7968 9.73894C73.6519 10.6294 70.8497 13.4475 69.974 17.6069C69.4486 20.0642 69.7405 22.9274 70.733 24.9789C72.0874 27.8195 74.551 29.6568 77.9136 30.3219C78.9761 30.536 79.3964 30.5586 81.0661 30.5135C82.4788 30.4684 83.2378 30.3895 83.8916 30.2204C85.8882 29.7132 87.6396 28.7889 88.9823 27.5489C90.0098 26.5908 90.0098 26.5457 88.9005 25.6552C88.3868 25.2494 87.6979 24.6069 87.371 24.2349C86.6121 23.3895 86.4136 23.3782 85.5613 24.1222C84.2886 25.2381 82.7707 25.7341 80.6574 25.7228C77.6918 25.7116 75.9637 24.4829 75.4033 22.003L75.3216 21.7105H90.1148C90.6169 21.3611 90.4301 17.6633 89.8229 15.9499C89.7062 15.6117 89.3909 14.9354 89.1341 14.462C87.768 11.937 85.5846 10.3702 82.5489 9.75022C81.5798 9.54732 78.7192 9.54732 77.7968 9.73894ZM81.4397 13.9885C82.2337 14.1576 83.051 14.5522 83.6348 15.0594C84.1251 15.499 84.9191 16.8855 84.9191 17.3138V17.5844H75.4383L75.5201 17.2687C76.1272 14.8565 78.6959 13.4249 81.4397 13.9885Z" fill="#6C1CD3"/>
</svg>
