<svg width="86" height="36" viewBox="0 0 86 36" fill="none" xmlns="http://www.w3.org/2000/svg">
<g clip-path="url(#clip0_466_8459)">
<path d="M37.2914 31.5744H30.2869L34.6647 4.44425H41.6699L37.2914 31.5744ZM24.3943 4.44425L17.7165 23.1046L16.9263 19.0863L16.927 19.0877L14.5701 6.88701C14.5701 6.88701 14.2851 4.44425 11.2474 4.44425H0.207665L0.078125 4.90363C0.078125 4.90363 3.45409 5.61193 7.40507 8.00461L13.4906 31.5751H20.7887L31.9328 4.44425H24.3943ZM79.4885 31.5744H85.9201L80.3125 4.44352H74.6818C72.0816 4.44352 71.4483 6.46537 71.4483 6.46537L61.0016 31.5744H68.3034L69.7636 27.5445H78.668L79.4885 31.5744ZM71.7808 21.9775L75.4612 11.8248L77.5317 21.9775H71.7808ZM61.5493 10.9684L62.5489 5.14239C62.5489 5.14239 59.4644 3.95947 56.2489 3.95947C52.7729 3.95947 44.5183 5.49146 44.5183 12.9409C44.5183 19.9499 54.2065 20.037 54.2065 23.7185C54.2065 27.4001 45.5165 26.7404 42.6487 24.4188L41.6073 30.5105C41.6073 30.5105 44.735 32.0425 49.5136 32.0425C54.2936 32.0425 61.5047 29.5468 61.5047 22.7541C61.5047 15.7001 51.7294 15.0433 51.7294 11.9765C51.7301 8.90885 58.5519 9.30292 61.5493 10.9684Z" fill="#0C31CC"/>
<path d="M16.927 19.0868L14.5701 6.88612C14.5701 6.88612 14.2851 4.44336 11.2474 4.44336H0.207665L0.078125 4.90274C0.078125 4.90274 5.38424 6.01163 10.4737 10.1664C15.3401 14.1375 16.927 19.0868 16.927 19.0868Z" fill="#E6A540"/>
</g>
<defs>
<clipPath id="clip0_466_8459">
<rect width="86" height="36" fill="white"/>
</clipPath>
</defs>
</svg>
