<svg width="26" height="27" viewBox="0 0 26 27" fill="none" xmlns="http://www.w3.org/2000/svg">
<g clip-path="url(#clip0_466_8234)">
<path d="M20.092 14.3264C20.118 12.3005 21.1796 10.4296 22.9054 9.36902C21.8123 7.80685 20.0454 6.85244 18.1398 6.79285C16.1346 6.58269 14.1911 7.9921 13.1695 7.9921C12.1284 7.9921 10.5554 6.81344 8.86106 6.8481C6.63264 6.92069 4.60464 8.15677 3.52022 10.1057C1.21164 14.1032 2.93306 19.9792 5.14522 23.2108C6.25239 24.7935 7.54481 26.5604 9.23806 26.4987C10.8945 26.4304 11.5131 25.4424 13.5118 25.4424C15.4921 25.4424 16.0728 26.4987 17.7996 26.4586C19.5763 26.4293 20.6965 24.8694 21.7646 23.2714C22.5598 22.1437 23.1719 20.8979 23.5771 19.5794C21.4667 18.6868 20.0941 16.6187 20.092 14.3264Z" fill="#254EF5"/>
<path d="M16.8301 4.66758C17.7986 3.50408 18.2764 2.00908 18.1605 0.5C16.6806 0.656 15.3124 1.36342 14.3309 2.48142C13.3613 3.58533 12.8695 5.02833 12.9648 6.49517C14.4652 6.51033 15.8898 5.8365 16.8301 4.66758Z" fill="#254EF5"/>
</g>
<defs>
<clipPath id="clip0_466_8234">
<rect width="26" height="26" fill="white" transform="translate(0 0.5)"/>
</clipPath>
</defs>
</svg>
