<svg width="26" height="27" viewBox="0 0 26 27" fill="none" xmlns="http://www.w3.org/2000/svg">
<g clip-path="url(#clip0_466_8241)">
<path d="M16.4641 2.67328L16.7484 2.24671L17.0328 1.83031L17.6625 0.885777C17.7437 0.774058 17.7133 0.611557 17.5914 0.540464C17.4797 0.459214 17.3172 0.489684 17.2461 0.611559L16.5758 1.61703L16.2914 2.04359L16.007 2.47015C15.093 2.11468 14.0875 1.92171 13.0109 1.92171C11.9445 1.92171 10.9289 2.11468 10.0148 2.47015L9.73047 2.04359L9.44609 1.61703L8.77578 0.611559C8.69453 0.49984 8.54219 0.46937 8.43047 0.540464C8.31875 0.621714 8.28828 0.774058 8.35938 0.885777L8.98906 1.83031L9.27344 2.24671L9.55781 2.67328C7.425 3.66859 5.97266 5.5475 5.97266 7.71078H20.0594C20.0492 5.5475 18.607 3.66859 16.4641 2.67328ZM9.98438 5.68968C9.56797 5.68968 9.23281 5.35453 9.23281 4.93812C9.23281 4.52171 9.56797 4.18656 9.98438 4.18656C10.4008 4.18656 10.7359 4.52171 10.7359 4.93812C10.7359 5.35453 10.4008 5.68968 9.98438 5.68968ZM16.0172 5.68968C15.6008 5.68968 15.2656 5.35453 15.2656 4.93812C15.2656 4.52171 15.6008 4.18656 16.0172 4.18656C16.4336 4.18656 16.7687 4.52171 16.7687 4.93812C16.7789 5.35453 16.4437 5.68968 16.0172 5.68968Z" fill="#254EF5"/>
<path d="M6.06289 8.70605L5.95117 8.71621V9.96543V10.9912V19.7865C5.95117 20.6701 6.66211 21.3811 7.5457 21.3811H8.69336C8.65273 21.5131 8.63242 21.6553 8.63242 21.7975V21.8787V22.3865V24.9865C8.63242 25.8193 9.31289 26.4998 10.1457 26.4998C10.9785 26.4998 11.659 25.8193 11.659 24.9865V22.3865V21.8787V21.7975C11.659 21.6553 11.6387 21.5131 11.598 21.3811H14.4012C14.3605 21.5131 14.3402 21.6553 14.3402 21.7975V21.8787V22.3865V24.9865C14.3402 25.8193 15.0207 26.4998 15.8535 26.4998C16.6863 26.4998 17.3668 25.8193 17.3668 24.9865V22.3865V21.8787V21.7975C17.3668 21.6553 17.3465 21.5131 17.3059 21.3811H18.4535C19.3371 21.3811 20.048 20.6701 20.048 19.7865V10.9912V9.96543V8.70605H19.9363H6.06289Z" fill="#254EF5"/>
<path d="M3.44297 8.71631C2.61016 8.71631 1.92969 9.39678 1.92969 10.2296V16.689C1.92969 17.5218 2.61016 18.2022 3.44297 18.2022C4.27578 18.2022 4.95625 17.5218 4.95625 16.689V10.2296C4.94609 9.38662 4.27578 8.71631 3.44297 8.71631Z" fill="#254EF5"/>
<path d="M22.568 8.71631C21.7352 8.71631 21.0547 9.39678 21.0547 10.2296V16.689C21.0547 17.5218 21.7352 18.2022 22.568 18.2022C23.4008 18.2022 24.0812 17.5218 24.0812 16.689V10.2296C24.0711 9.38662 23.4008 8.71631 22.568 8.71631Z" fill="#254EF5"/>
</g>
<defs>
<clipPath id="clip0_466_8241">
<rect width="26" height="26" fill="white" transform="translate(0 0.5)"/>
</clipPath>
</defs>
</svg>
