<svg width="26" height="27" viewBox="0 0 26 27" fill="none" xmlns="http://www.w3.org/2000/svg">
<g clip-path="url(#clip0_466_8228)">
<path fill-rule="evenodd" clip-rule="evenodd" d="M22.75 2.9375C24.5449 2.9375 26 4.39257 26 6.1875V17.5625C26 19.3574 24.5449 20.8125 22.75 20.8125H16.25V23.25H18.6875C19.1362 23.25 19.5 23.6138 19.5 24.0625C19.5 24.5112 19.1362 24.875 18.6875 24.875H7.3125C6.86377 24.875 6.5 24.5112 6.5 24.0625C6.5 23.6138 6.86377 23.25 7.3125 23.25H9.75V20.8125H3.25C1.45507 20.8125 0 19.3574 0 17.5625V6.1875C0 4.39257 1.45507 2.9375 3.25 2.9375H22.75ZM14.625 23.25V20.8125H11.375V23.25H14.625Z" fill="#254EF5"/>
</g>
<defs>
<clipPath id="clip0_466_8228">
<rect width="26" height="26" fill="white" transform="translate(0 0.5)"/>
</clipPath>
</defs>
</svg>
