<svg width="24" height="24" viewBox="0 0 24 24" fill="none" xmlns="http://www.w3.org/2000/svg">
<circle cx="12" cy="12" r="12" fill="#254EF5"/>
<g clip-path="url(#clip0_202_2017)">
<path d="M16.7715 10.302C16.7785 10.4075 16.7785 10.5135 16.7785 10.62C16.7785 13.8735 14.3015 17.625 9.7735 17.625V17.623C8.436 17.625 7.126 17.242 6 16.5195C6.1945 16.543 6.39 16.5545 6.586 16.555C7.695 16.556 8.772 16.184 9.6435 15.499C8.59 15.479 7.666 14.792 7.3435 13.789C7.7125 13.86 8.0925 13.8455 8.455 13.747C7.306 13.515 6.48 12.5055 6.48 11.3335C6.48 11.323 6.48 11.3125 6.48 11.3025C6.8225 11.4935 7.2055 11.599 7.5975 11.6105C6.5155 10.888 6.1815 9.44905 6.835 8.32405C8.085 9.86205 9.9295 10.797 11.909 10.8965C11.7105 10.0415 11.982 9.14555 12.621 8.54405C13.6125 7.61155 15.172 7.65955 16.1045 8.65105C16.656 8.54255 17.1845 8.34005 17.668 8.05355C17.484 8.62355 17.0995 9.10755 16.5855 9.41555C17.074 9.35705 17.5505 9.22655 18 9.02755C17.6695 9.52205 17.2535 9.95355 16.7715 10.302Z" fill="white"/>
</g>
<defs>
<clipPath id="clip0_202_2017">
<rect width="12" height="12" fill="white" transform="translate(6 6.75)"/>
</clipPath>
</defs>
</svg>
