<svg width="24" height="24" viewBox="0 0 24 24" fill="none" xmlns="http://www.w3.org/2000/svg">
<circle cx="12" cy="12" r="12" fill="#254EF5"/>
<path d="M16.0806 7.13175C16.0806 7.13175 17.2138 6.68987 17.1194 7.763C17.0879 8.20488 16.8046 9.75144 16.5843 11.4243L15.8288 16.3796C15.8288 16.3796 15.7659 17.1055 15.1992 17.2318C14.6326 17.358 13.7827 16.7899 13.6253 16.6637C13.4994 16.569 11.2645 15.1486 10.4775 14.4543C10.2572 14.2649 10.0053 13.8861 10.509 13.4443L13.8142 10.288C14.1919 9.90926 14.5697 9.02551 12.9958 10.0986L8.58882 13.0971C8.58882 13.0971 8.08517 13.4127 7.14084 13.1287L5.09475 12.4974C5.09475 12.4974 4.33927 12.024 5.62988 11.5505C8.7777 10.0671 12.6495 8.55205 16.0806 7.13175Z" fill="white"/>
</svg>
