<svg width="24" height="24" viewBox="0 0 24 24" fill="none" xmlns="http://www.w3.org/2000/svg">
<circle cx="12" cy="12" r="12" fill="#254EF5"/>
<g clip-path="url(#clip0_202_2021)">
<path d="M9.94809 14.052C9.65509 13.7595 9.65509 13.284 9.94809 12.9915C10.2411 12.6985 10.7156 12.6985 11.0086 12.9915C11.6716 13.6545 12.8286 13.655 13.4916 12.9915L15.9861 10.497C16.6706 9.81247 16.6706 8.69847 15.9861 8.01397C15.3016 7.32947 14.1876 7.32947 13.5031 8.01397C13.2101 8.30697 12.7356 8.30697 12.4426 8.01397C12.1496 7.72147 12.1496 7.24597 12.4426 6.95347C13.7116 5.68397 15.7776 5.68397 17.0466 6.95347C18.3161 8.22297 18.3161 10.288 17.0466 11.5575L14.5521 14.052C13.9171 14.687 13.0836 15.004 12.2501 15.004C11.4166 15.004 10.5826 14.6865 9.94809 14.052ZM9.25609 17.9985C10.0896 17.9985 10.9231 17.681 11.5581 17.0465C11.8511 16.754 11.8511 16.2785 11.5581 15.986C11.2651 15.693 10.7906 15.693 10.4976 15.986C9.81259 16.671 8.69859 16.6705 8.01459 15.986C7.33009 15.3015 7.33009 14.1875 8.01459 13.503L10.4951 11.0225C11.1801 10.3375 12.2941 10.3375 12.9781 11.0225C13.2711 11.3155 13.7456 11.3155 14.0386 11.0225C14.3316 10.73 14.3316 10.2545 14.0386 9.96197C12.7691 8.69247 10.7041 8.69247 9.43459 9.96197L6.95359 12.4425C5.68409 13.712 5.68409 15.777 6.95359 17.0465C7.58859 17.6815 8.42259 17.9985 9.25609 17.9985Z" fill="white"/>
</g>
<defs>
<clipPath id="clip0_202_2021">
<rect width="12" height="12" fill="white" transform="translate(6 6)"/>
</clipPath>
</defs>
</svg>
