<svg width="24" height="24" viewBox="0 0 24 24" fill="none" xmlns="http://www.w3.org/2000/svg">
<circle cx="12" cy="12" r="12" fill="#254EF5"/>
<g clip-path="url(#clip0_202_2027)">
<path fill-rule="evenodd" clip-rule="evenodd" d="M8.73056 17.7239V9.99973H6.16348V17.7239H8.73056V17.7239ZM7.44729 8.94551C8.3422 8.94551 8.89966 8.35189 8.89966 7.61068C8.88274 6.85299 8.3422 6.27612 7.46407 6.27612C6.5858 6.27615 6.01172 6.85301 6.01172 7.6107C6.01172 8.35191 6.56887 8.94554 7.43039 8.94554L7.44729 8.94551ZM10.1513 17.7239C10.1513 17.7239 10.185 10.7245 10.1513 9.99976H12.7188V11.1199H12.7018C13.0394 10.5928 13.6476 9.81837 15.0324 9.81837C16.7219 9.81837 17.9883 10.9223 17.9883 13.2949V17.7239H15.4212V13.5917C15.4212 12.5534 15.0498 11.8449 14.1205 11.8449C13.4114 11.8449 12.9888 12.3226 12.8033 12.7843C12.7354 12.9486 12.7188 13.1795 12.7188 13.4103V17.7239H10.1513Z" fill="white"/>
</g>
<defs>
<clipPath id="clip0_202_2027">
<rect width="12" height="12" fill="white" transform="translate(6 6)"/>
</clipPath>
</defs>
</svg>
