<svg width="24" height="24" viewBox="0 0 24 24" fill="none" xmlns="http://www.w3.org/2000/svg">
<g clip-path="url(#clip0_466_8405)">
<path d="M18.581 2.14024L12.316 0.0512408C12.1109 -0.0170803 11.8891 -0.0170803 11.684 0.0512408L5.419 2.14024C4.42291 2.47112 3.55642 3.1075 2.94265 3.95895C2.32887 4.8104 1.99904 5.83363 2 6.88324V12.0002C2 19.5632 11.2 23.7402 11.594 23.9142C11.7218 23.971 11.8601 24.0004 12 24.0004C12.1399 24.0004 12.2782 23.971 12.406 23.9142C12.8 23.7402 22 19.5632 22 12.0002V6.88324C22.001 5.83363 21.6711 4.8104 21.0574 3.95895C20.4436 3.1075 19.5771 2.47112 18.581 2.14024ZM16.718 9.71724L12.446 13.9892C12.2712 14.1652 12.0631 14.3047 11.834 14.3997C11.6048 14.4946 11.3591 14.5431 11.111 14.5422H11.078C10.8249 14.5384 10.5752 14.4832 10.344 14.3801C10.1128 14.2769 9.90498 14.128 9.733 13.9422L7.427 11.5422C7.32713 11.4496 7.24725 11.3375 7.19225 11.2129C7.13726 11.0882 7.10831 10.9537 7.10718 10.8174C7.10606 10.6812 7.13278 10.5462 7.1857 10.4207C7.23863 10.2951 7.31665 10.1817 7.41497 10.0874C7.51329 9.99314 7.62985 9.91993 7.75748 9.87229C7.88511 9.82466 8.02113 9.8036 8.15719 9.81042C8.29325 9.81724 8.42648 9.85178 8.54871 9.91194C8.67095 9.97209 8.7796 10.0566 8.868 10.1602L11.112 12.5002L15.3 8.30024C15.4886 8.11808 15.7412 8.01729 16.0034 8.01957C16.2656 8.02185 16.5164 8.12702 16.7018 8.31242C16.8872 8.49783 16.9924 8.74864 16.9947 9.01084C16.997 9.27304 16.8962 9.52564 16.714 9.71424L16.718 9.71724Z" fill="#254EF5"/>
</g>
<defs>
<clipPath id="clip0_466_8405">
<rect width="24" height="24" fill="white"/>
</clipPath>
</defs>
</svg>
