<svg width="24" height="24" viewBox="0 0 24 24" fill="none" xmlns="http://www.w3.org/2000/svg">
<g clip-path="url(#clip0_466_8398)">
<path d="M3.99976 0.00195312H6.99959C9.20859 0.00195312 10.9993 1.79271 10.9993 4.00171V7.00154C10.9993 9.21054 9.20859 11.0013 6.99959 11.0013H3.99976C1.79076 11.0013 0 9.21054 0 7.00154V4.00171C0 1.79271 1.79076 0.00195312 3.99976 0.00195312Z" fill="#254EF5"/>
<path d="M3.99976 13.0005H6.99959C9.20859 13.0005 10.9993 14.7912 10.9993 17.0002V20.0001C10.9993 22.2091 9.20859 23.9998 6.99959 23.9998H3.99976C1.79076 23.9998 0 22.2091 0 20.0001V17.0002C0 14.7912 1.79076 13.0005 3.99976 13.0005Z" fill="#254EF5"/>
<path d="M22.2911 19.1263L19.9983 21.4162V2.58524L22.2911 4.8751C22.6819 5.26555 23.3151 5.26531 23.7055 4.87458C24.096 4.48386 24.0958 3.85061 23.705 3.46016L21.1182 0.87731C19.947 -0.292437 18.0497 -0.292437 16.8785 0.87731L14.2916 3.46016C13.9009 3.85061 13.9007 4.48386 14.2911 4.87458C14.6815 5.26531 15.3148 5.26555 15.7055 4.8751L17.9984 2.58524V21.4162L15.7055 19.1263C15.3145 18.7359 14.681 18.7363 14.2906 19.1273C13.9001 19.5183 13.9006 20.1518 14.2916 20.5422L16.8784 23.1251C18.051 24.2915 19.9456 24.2915 21.1181 23.1251L23.705 20.5422C24.096 20.1518 24.0964 19.5183 23.706 19.1273C23.3156 18.7363 22.6821 18.7359 22.2911 19.1263Z" fill="#254EF5"/>
</g>
<defs>
<clipPath id="clip0_466_8398">
<rect width="24" height="24" fill="white"/>
</clipPath>
</defs>
</svg>
