<svg width="24" height="24" viewBox="0 0 24 24" fill="none" xmlns="http://www.w3.org/2000/svg">
<g clip-path="url(#clip0_466_8388)">
<path d="M12 24C6.486 24 2 19.514 2 14C2 10.642 3.505 8.541 5.765 6.42L8.213 4.121L7.421 7.384C7.146 8.52 7.074 11.99 8.533 13.845C9.144 14.622 9.951 15 11 15C12.107 15 12.986 14.116 13 12.987C13.014 11.87 12.542 10.945 12.042 9.967C11.53 8.965 11 7.93 11 6.672C11 3.961 12.412 1.504 12.472 1.401L13.3 -0.0209961L14.181 1.37C15.03 2.709 16.175 3.957 17.284 5.164C19.603 7.688 22.001 10.3 22.001 14.001C22.001 19.515 17.515 24.001 12.001 24.001L12 24Z" fill="#254EF5"/>
</g>
<defs>
<clipPath id="clip0_466_8388">
<rect width="24" height="24" fill="white"/>
</clipPath>
</defs>
</svg>
