<svg width="24" height="24" viewBox="0 0 24 24" fill="none" xmlns="http://www.w3.org/2000/svg">
<g clip-path="url(#clip0_466_8392)">
<path d="M9 12C12.3137 12 15 9.31371 15 6C15 2.68629 12.3137 0 9 0C5.68629 0 3 2.68629 3 6C3 9.31371 5.68629 12 9 12Z" fill="#254EF5"/>
<path d="M13.043 14H4.957C3.64281 14.0016 2.3829 14.5244 1.45363 15.4536C0.524352 16.3829 0.00158783 17.6428 0 18.957C0 21.7422 2.25783 24 5.043 24H12.957C15.7422 24 18 21.7422 18 18.957C17.9984 17.6428 17.4756 16.3829 16.5464 15.4536C15.6171 14.5244 14.3572 14.0016 13.043 14Z" fill="#254EF5"/>
<path d="M22.0002 7.875C21.4437 7.90272 20.9208 8.14977 20.546 8.56207C20.1712 8.97437 19.9749 9.51836 20.0002 10.075C20.0255 9.51836 19.8293 8.97437 19.4544 8.56207C19.0796 8.14977 18.5567 7.90272 18.0002 7.875C17.4437 7.90272 16.9208 8.14977 16.546 8.56207C16.1712 8.97437 15.9749 9.51836 16.0002 10.075C16.0002 12.375 20.0002 15.208 20.0002 15.208C20.0002 15.208 24.0002 12.379 24.0002 10.075C24.0255 9.51836 23.8293 8.97437 23.4544 8.56207C23.0796 8.14977 22.5567 7.90272 22.0002 7.875Z" fill="#254EF5"/>
</g>
<defs>
<clipPath id="clip0_466_8392">
<rect width="24" height="24" fill="white"/>
</clipPath>
</defs>
</svg>
