<svg width="1039" height="457" viewBox="0 0 1039 457" fill="none" xmlns="http://www.w3.org/2000/svg">
<g opacity="0.5">
<path d="M150.561 -332.99C181.735 -239.21 308.701 -51.6503 567.168 -51.6503C890.251 -51.6503 554.191 109.371 741.687 197.932C929.182 286.494 733.632 -223.853 999.437 10.5217" stroke="url(#paint0_linear_466_7870)"/>
<path d="M347.541 -437C305.409 -347.556 267.939 -124.104 455.112 54.156C689.078 276.981 334.611 161.865 409.282 355.34C483.953 548.815 694.479 44.2026 725.249 397.328" stroke="url(#paint1_linear_466_7870)"/>
<path d="M159.707 -338.124C187.463 -243.229 307.552 -51.1 565.859 -41.7352C888.743 -30.0292 547.054 118.789 731.223 214.13C915.393 309.47 738.463 -207.879 995.608 36.0887" stroke="url(#paint2_linear_466_7870)"/>
<path d="M169.1 -343.067C193.399 -247.23 306.449 -50.8758 564.247 -32.1585C886.495 -8.76187 539.637 127.579 720.232 229.53C900.827 331.48 742.756 -191.94 990.894 61.1845" stroke="url(#paint3_linear_466_7870)"/>
<path d="M178.49 -348.011C199.302 -251.356 305.163 -51.035 562.114 -22.9897C883.302 12.0668 531.733 135.752 708.515 244.178C885.298 352.605 746.295 -176.198 985.099 85.7497" stroke="url(#paint4_linear_466_7870)"/>
<path d="M187.883 -352.955C205.179 -255.61 303.712 -51.5846 559.479 -14.2483C879.186 32.4221 523.367 143.288 696.105 258.049C868.842 372.809 749.09 -160.683 978.247 109.745" stroke="url(#paint5_linear_466_7870)"/>
<path d="M197.273 -357.899C211.031 -259.991 302.108 -52.5297 556.354 -5.95134C874.161 52.2717 514.558 150.173 683.024 271.117C851.491 392.06 751.146 -145.42 970.354 133.133" stroke="url(#paint6_linear_466_7870)"/>
<path d="M206.666 -362.843C216.867 -264.5 300.368 -53.8759 552.759 1.88345C868.248 71.5826 505.334 156.391 669.308 283.359C833.283 410.327 752.477 -130.437 961.449 155.876" stroke="url(#paint7_linear_466_7870)"/>
<path d="M216.059 -367.786C222.69 -269.139 298.505 -55.6274 548.71 9.2396C861.467 90.3234 495.718 161.928 654.985 294.753C814.251 427.578 753.091 -115.758 951.552 177.938" stroke="url(#paint8_linear_466_7870)"/>
<path d="M225.449 -372.73C228.503 -273.907 296.532 -57.7889 544.223 16.1007C853.836 108.463 485.734 166.769 640.083 305.277C794.432 443.786 752.997 -101.41 940.688 199.283" stroke="url(#paint9_linear_466_7870)"/>
<path d="M234.842 -377.674C234.313 -278.806 294.467 -60.3646 539.318 22.4504C845.382 125.969 475.409 170.9 624.639 314.91C773.869 458.92 752.214 -87.4188 928.887 219.877" stroke="url(#paint10_linear_466_7870)"/>
<path d="M244.232 -382.618C240.122 -283.834 292.322 -63.3565 534.012 28.2753C836.124 142.815 464.766 174.312 608.681 323.634C752.595 472.956 750.748 -73.8084 916.172 239.687" stroke="url(#paint11_linear_466_7870)"/>
<path d="M253.625 -387.561C245.938 -288.991 290.116 -66.7669 528.328 33.5613C826.092 158.972 453.836 176.994 592.246 331.432C730.656 485.869 748.62 -60.6029 902.577 258.68" stroke="url(#paint12_linear_466_7870)"/>
<path d="M263.016 -392.505C251.762 -294.278 287.86 -70.5995 522.28 38.2934C815.305 174.409 442.641 178.933 575.365 338.284C708.088 497.635 745.84 -47.8276 888.128 276.823" stroke="url(#paint13_linear_466_7870)"/>
<path d="M272.408 -397.449C257.603 -299.694 285.574 -74.8545 515.894 42.46C803.795 189.103 431.212 180.122 558.075 344.177C684.938 508.232 742.427 -35.5047 872.86 294.088" stroke="url(#paint14_linear_466_7870)"/>
<path d="M281.801 -402.394C263.464 -305.239 283.27 -79.5337 509.189 46.0486C791.588 203.026 419.575 180.552 540.41 349.096C661.246 517.639 738.398 -23.6575 856.803 310.445" stroke="url(#paint15_linear_466_7870)"/>
<path d="M291.191 -407.337C269.347 -310.91 280.962 -84.6355 502.183 49.0495C778.709 216.156 407.754 180.217 522.404 353.029C637.054 525.84 733.767 -12.3065 839.989 325.866" stroke="url(#paint16_linear_466_7870)"/>
<path d="M300.584 -412.281C275.26 -316.709 278.67 -90.1619 494.902 51.4503C765.192 228.466 395.783 179.111 504.097 355.963C612.41 532.814 728.557 -1.47488 822.457 340.324" stroke="url(#paint17_linear_466_7870)"/>
<path d="M309.975 -417.224C281.205 -322.633 276.404 -96.1112 487.364 53.2423C751.063 239.934 383.684 177.228 485.52 357.888C587.355 538.547 722.782 8.81731 804.238 353.794" stroke="url(#paint18_linear_466_7870)"/>
<path d="M319.367 -422.168C287.189 -328.681 274.185 -102.482 479.594 54.4162C736.356 250.54 371.491 174.564 466.714 358.795C561.937 543.026 716.468 18.5498 785.371 366.251" stroke="url(#paint19_linear_466_7870)"/>
<path d="M328.758 -427.112C293.214 -334.852 272.022 -109.273 471.613 54.9646C721.101 260.262 359.228 171.117 447.713 358.677C536.199 546.236 709.631 27.7039 765.891 377.674" stroke="url(#paint20_linear_466_7870)"/>
<path d="M338.15 -432.056C299.287 -341.144 269.937 -116.481 463.446 54.8803C705.332 269.082 346.926 166.885 428.558 357.527C510.19 548.17 702.295 36.2609 745.839 388.039" stroke="url(#paint21_linear_466_7870)"/>
</g>
<defs>
<linearGradient id="paint0_linear_466_7870" x1="157.993" y1="-359.346" x2="1024.46" y2="30.6653" gradientUnits="userSpaceOnUse">
<stop stop-color="#254EF5" stop-opacity="0"/>
<stop offset="0.427119" stop-color="#254EF5" stop-opacity="0.49"/>
<stop offset="1" stop-color="#254EF5" stop-opacity="0"/>
</linearGradient>
<linearGradient id="paint1_linear_466_7870" x1="371.109" y1="-450.969" x2="729.771" y2="429.059" gradientUnits="userSpaceOnUse">
<stop stop-color="#254EF5" stop-opacity="0"/>
<stop offset="0.427119" stop-color="#254EF5" stop-opacity="0.49"/>
<stop offset="1" stop-color="#254EF5" stop-opacity="0"/>
</linearGradient>
<linearGradient id="paint2_linear_466_7870" x1="168.091" y1="-364.206" x2="1020.03" y2="56.8465" gradientUnits="userSpaceOnUse">
<stop stop-color="#254EF5" stop-opacity="0"/>
<stop offset="0.427119" stop-color="#254EF5" stop-opacity="0.49"/>
<stop offset="1" stop-color="#254EF5" stop-opacity="0"/>
</linearGradient>
<linearGradient id="paint3_linear_466_7870" x1="178.423" y1="-368.829" x2="1014.55" y2="82.8135" gradientUnits="userSpaceOnUse">
<stop stop-color="#254EF5" stop-opacity="0"/>
<stop offset="0.427119" stop-color="#254EF5" stop-opacity="0.49"/>
<stop offset="1" stop-color="#254EF5" stop-opacity="0"/>
</linearGradient>
<linearGradient id="paint4_linear_466_7870" x1="188.741" y1="-373.418" x2="1007.95" y2="108.222" gradientUnits="userSpaceOnUse">
<stop stop-color="#254EF5" stop-opacity="0"/>
<stop offset="0.427119" stop-color="#254EF5" stop-opacity="0.49"/>
<stop offset="1" stop-color="#254EF5" stop-opacity="0"/>
</linearGradient>
<linearGradient id="paint5_linear_466_7870" x1="199.047" y1="-377.974" x2="1000.27" y2="133.03" gradientUnits="userSpaceOnUse">
<stop stop-color="#254EF5" stop-opacity="0"/>
<stop offset="0.427119" stop-color="#254EF5" stop-opacity="0.49"/>
<stop offset="1" stop-color="#254EF5" stop-opacity="0"/>
</linearGradient>
<linearGradient id="paint6_linear_466_7870" x1="209.337" y1="-382.497" x2="991.523" y2="157.201" gradientUnits="userSpaceOnUse">
<stop stop-color="#254EF5" stop-opacity="0"/>
<stop offset="0.427119" stop-color="#254EF5" stop-opacity="0.49"/>
<stop offset="1" stop-color="#254EF5" stop-opacity="0"/>
</linearGradient>
<linearGradient id="paint7_linear_466_7870" x1="219.613" y1="-386.988" x2="981.731" y2="180.695" gradientUnits="userSpaceOnUse">
<stop stop-color="#254EF5" stop-opacity="0"/>
<stop offset="0.427119" stop-color="#254EF5" stop-opacity="0.49"/>
<stop offset="1" stop-color="#254EF5" stop-opacity="0"/>
</linearGradient>
<linearGradient id="paint8_linear_466_7870" x1="229.871" y1="-391.446" x2="970.922" y2="203.475" gradientUnits="userSpaceOnUse">
<stop stop-color="#254EF5" stop-opacity="0"/>
<stop offset="0.427119" stop-color="#254EF5" stop-opacity="0.49"/>
<stop offset="1" stop-color="#254EF5" stop-opacity="0"/>
</linearGradient>
<linearGradient id="paint9_linear_466_7870" x1="240.11" y1="-395.874" x2="959.12" y2="225.506" gradientUnits="userSpaceOnUse">
<stop stop-color="#254EF5" stop-opacity="0"/>
<stop offset="0.427119" stop-color="#254EF5" stop-opacity="0.49"/>
<stop offset="1" stop-color="#254EF5" stop-opacity="0"/>
</linearGradient>
<linearGradient id="paint10_linear_466_7870" x1="250.332" y1="-400.272" x2="946.356" y2="246.75" gradientUnits="userSpaceOnUse">
<stop stop-color="#254EF5" stop-opacity="0"/>
<stop offset="0.427119" stop-color="#254EF5" stop-opacity="0.49"/>
<stop offset="1" stop-color="#254EF5" stop-opacity="0"/>
</linearGradient>
<linearGradient id="paint11_linear_466_7870" x1="260.531" y1="-404.64" x2="932.657" y2="267.175" gradientUnits="userSpaceOnUse">
<stop stop-color="#254EF5" stop-opacity="0"/>
<stop offset="0.427119" stop-color="#254EF5" stop-opacity="0.49"/>
<stop offset="1" stop-color="#254EF5" stop-opacity="0"/>
</linearGradient>
<linearGradient id="paint12_linear_466_7870" x1="270.711" y1="-408.978" x2="918.055" y2="286.747" gradientUnits="userSpaceOnUse">
<stop stop-color="#254EF5" stop-opacity="0"/>
<stop offset="0.427119" stop-color="#254EF5" stop-opacity="0.49"/>
<stop offset="1" stop-color="#254EF5" stop-opacity="0"/>
</linearGradient>
<linearGradient id="paint13_linear_466_7870" x1="280.866" y1="-413.289" x2="902.578" y2="305.433" gradientUnits="userSpaceOnUse">
<stop stop-color="#254EF5" stop-opacity="0"/>
<stop offset="0.427119" stop-color="#254EF5" stop-opacity="0.49"/>
<stop offset="1" stop-color="#254EF5" stop-opacity="0"/>
</linearGradient>
<linearGradient id="paint14_linear_466_7870" x1="291" y1="-417.572" x2="886.264" y2="323.203" gradientUnits="userSpaceOnUse">
<stop stop-color="#254EF5" stop-opacity="0"/>
<stop offset="0.427119" stop-color="#254EF5" stop-opacity="0.49"/>
<stop offset="1" stop-color="#254EF5" stop-opacity="0"/>
</linearGradient>
<linearGradient id="paint15_linear_466_7870" x1="301.109" y1="-421.83" x2="869.144" y2="340.026" gradientUnits="userSpaceOnUse">
<stop stop-color="#254EF5" stop-opacity="0"/>
<stop offset="0.427119" stop-color="#254EF5" stop-opacity="0.49"/>
<stop offset="1" stop-color="#254EF5" stop-opacity="0"/>
</linearGradient>
<linearGradient id="paint16_linear_466_7870" x1="311.191" y1="-426.061" x2="851.251" y2="355.875" gradientUnits="userSpaceOnUse">
<stop stop-color="#254EF5" stop-opacity="0"/>
<stop offset="0.427119" stop-color="#254EF5" stop-opacity="0.49"/>
<stop offset="1" stop-color="#254EF5" stop-opacity="0"/>
</linearGradient>
<linearGradient id="paint17_linear_466_7870" x1="321.249" y1="-430.268" x2="832.624" y2="370.722" gradientUnits="userSpaceOnUse">
<stop stop-color="#254EF5" stop-opacity="0"/>
<stop offset="0.427119" stop-color="#254EF5" stop-opacity="0.49"/>
<stop offset="1" stop-color="#254EF5" stop-opacity="0"/>
</linearGradient>
<linearGradient id="paint18_linear_466_7870" x1="331.278" y1="-434.451" x2="813.296" y2="384.54" gradientUnits="userSpaceOnUse">
<stop stop-color="#254EF5" stop-opacity="0"/>
<stop offset="0.427119" stop-color="#254EF5" stop-opacity="0.49"/>
<stop offset="1" stop-color="#254EF5" stop-opacity="0"/>
</linearGradient>
<linearGradient id="paint19_linear_466_7870" x1="341.281" y1="-438.612" x2="793.31" y2="397.305" gradientUnits="userSpaceOnUse">
<stop stop-color="#254EF5" stop-opacity="0"/>
<stop offset="0.427119" stop-color="#254EF5" stop-opacity="0.49"/>
<stop offset="1" stop-color="#254EF5" stop-opacity="0"/>
</linearGradient>
<linearGradient id="paint20_linear_466_7870" x1="351.253" y1="-442.751" x2="772.699" y2="408.995" gradientUnits="userSpaceOnUse">
<stop stop-color="#254EF5" stop-opacity="0"/>
<stop offset="0.427119" stop-color="#254EF5" stop-opacity="0.49"/>
<stop offset="1" stop-color="#254EF5" stop-opacity="0"/>
</linearGradient>
<linearGradient id="paint21_linear_466_7870" x1="361.197" y1="-446.869" x2="751.508" y2="419.586" gradientUnits="userSpaceOnUse">
<stop stop-color="#254EF5" stop-opacity="0"/>
<stop offset="0.427119" stop-color="#254EF5" stop-opacity="0.49"/>
<stop offset="1" stop-color="#254EF5" stop-opacity="0"/>
</linearGradient>
</defs>
</svg>
