<svg width="56" height="56" viewBox="0 0 56 56" fill="none" xmlns="http://www.w3.org/2000/svg">
<path d="M28.0519 4.66698C41.3052 4.66698 51.3385 15.5333 51.3385 27.9653C51.3385 42.3836 39.5785 51.3336 28.0052 51.3336C24.1785 51.3336 19.9319 50.3054 16.5252 48.2958C15.3352 47.5713 14.3319 47.0339 13.0485 47.4545L8.33521 48.8566C7.14521 49.2305 6.07188 48.2958 6.42188 47.0339L7.98521 41.7993C8.24188 41.0749 8.19521 40.3038 7.82188 39.6962C5.81521 36.004 4.67188 31.9613 4.67188 28.0354C4.67188 15.7436 14.4952 4.66698 28.0519 4.66698ZM38.7152 25.0676C37.0585 25.0676 35.7285 26.3996 35.7285 28.0587C35.7285 29.6945 37.0585 31.0499 38.7152 31.0499C40.3719 31.0499 41.7019 29.6945 41.7019 28.0587C41.7019 26.3996 40.3719 25.0676 38.7152 25.0676ZM27.9585 25.0676C26.3252 25.0442 24.9719 26.3996 24.9719 28.0354C24.9719 29.6945 26.3019 31.0265 27.9585 31.0499C29.6152 31.0499 30.9452 29.6945 30.9452 28.0587C30.9452 26.3996 29.6152 25.0676 27.9585 25.0676ZM17.2019 25.0676C15.5452 25.0676 14.2152 26.3996 14.2152 28.0587C14.2152 29.6945 15.5685 31.0499 17.2019 31.0499C18.8585 31.0265 20.1885 29.6945 20.1885 28.0587C20.1885 26.3996 18.8585 25.0676 17.2019 25.0676Z" fill="#3345E4"/>
</svg>
