<svg width="56" height="56" viewBox="0 0 56 56" fill="none" xmlns="http://www.w3.org/2000/svg">
<path d="M41.6692 7.00096C46.9985 7.00096 51.3362 11.299 51.3362 16.5796L51.3385 22.8267C51.3385 23.2845 51.1542 23.7284 50.8275 24.052C50.4985 24.378 50.0552 24.5607 49.5885 24.5607C47.6729 24.5607 46.1142 26.1051 46.1142 28.0033C46.1142 29.9014 47.6729 31.4459 49.5885 31.4459C50.5545 31.4459 51.3385 32.2227 51.3385 33.1799V39.4246C51.3385 44.7052 47.0032 49.001 41.6739 49.001H14.3389C9.00954 49.001 4.67188 44.7052 4.67188 39.4246V33.1799C4.67188 32.2227 5.45588 31.4459 6.42188 31.4459C8.33988 31.4459 9.89854 29.9014 9.89854 28.0033C9.89854 26.1537 8.40288 24.7618 6.42188 24.7618C5.95754 24.7618 5.51421 24.5792 5.18521 24.2532C4.85621 23.9272 4.67188 23.4856 4.67188 23.0278L4.67654 16.5796C4.67654 11.299 9.01188 7.00096 14.3412 7.00096H41.6692ZM28.0099 19.0257C27.3472 19.0257 26.7545 19.391 26.4582 19.9783L24.7572 23.3931L20.9632 23.9411C20.3075 24.0335 19.7709 24.4775 19.5632 25.1017C19.3579 25.7259 19.5235 26.401 19.9995 26.8588L22.7505 29.513L22.1019 33.2654C21.9899 33.9128 22.2535 34.5555 22.7902 34.9416C23.0935 35.1566 23.4459 35.2676 23.8029 35.2676C24.0759 35.2676 24.3512 35.2006 24.6032 35.0688L28.0052 33.2978L31.4002 35.0642C31.9882 35.3763 32.6859 35.3277 33.2202 34.9393C33.7592 34.5555 34.0229 33.9128 33.9109 33.2654L33.2599 29.513L36.0109 26.8588C36.4892 26.401 36.6549 25.7259 36.4472 25.1017C36.2419 24.4775 35.7052 24.0335 35.0565 23.9434L31.2555 23.3931L29.5545 19.9806C29.2629 19.3933 28.6702 19.028 28.0099 19.0257Z" fill="#3345E4"/>
</svg>
