<svg width="24" height="24" viewBox="0 0 24 24" fill="none" xmlns="http://www.w3.org/2000/svg">
<g clip-path="url(#clip0_805_71)">
<circle cx="12" cy="12" r="12" fill="#3345E4"/>
<path d="M20.1212 18.8969C19.679 17.8496 19.0374 16.8984 18.2321 16.0961C17.4292 15.2915 16.4781 14.65 15.4313 14.207C15.4219 14.2023 15.4126 14.2 15.4032 14.1953C16.8633 13.1406 17.8126 11.4227 17.8126 9.48438C17.8126 6.27344 15.211 3.67188 12.0001 3.67188C8.78912 3.67188 6.18756 6.27344 6.18756 9.48438C6.18756 11.4227 7.13678 13.1406 8.59693 14.1977C8.58756 14.2023 8.57818 14.2047 8.56881 14.2094C7.51881 14.6523 6.57662 15.2875 5.76803 16.0984C4.96344 16.9013 4.32194 17.8524 3.87896 18.8992C3.44378 19.924 3.20908 21.0228 3.18756 22.1359C3.18693 22.161 3.19132 22.1858 3.20046 22.2091C3.20961 22.2324 3.22332 22.2537 3.24079 22.2716C3.25826 22.2895 3.27915 22.3037 3.30221 22.3134C3.32527 22.3231 3.35004 22.3281 3.37506 22.3281H4.78131C4.88443 22.3281 4.96646 22.2461 4.96881 22.1453C5.01568 20.3359 5.74225 18.6414 7.02662 17.357C8.35553 16.0281 10.1204 15.2969 12.0001 15.2969C13.8797 15.2969 15.6446 16.0281 16.9735 17.357C18.2579 18.6414 18.9844 20.3359 19.0313 22.1453C19.0337 22.2484 19.1157 22.3281 19.2188 22.3281H20.6251C20.6501 22.3281 20.6749 22.3231 20.6979 22.3134C20.721 22.3037 20.7419 22.2895 20.7593 22.2716C20.7768 22.2537 20.7905 22.2324 20.7997 22.2091C20.8088 22.1858 20.8132 22.161 20.8126 22.1359C20.7891 21.0156 20.5571 19.9258 20.1212 18.8969ZM12.0001 13.5156C10.9243 13.5156 9.91178 13.0961 9.15006 12.3344C8.38834 11.5727 7.96881 10.5602 7.96881 9.48438C7.96881 8.40859 8.38834 7.39609 9.15006 6.63437C9.91178 5.87266 10.9243 5.45312 12.0001 5.45312C13.0758 5.45312 14.0883 5.87266 14.8501 6.63437C15.6118 7.39609 16.0313 8.40859 16.0313 9.48438C16.0313 10.5602 15.6118 11.5727 14.8501 12.3344C14.0883 13.0961 13.0758 13.5156 12.0001 13.5156Z" fill="white"/>
</g>
<defs>
<clipPath id="clip0_805_71">
<rect width="24" height="24" rx="12" fill="white"/>
</clipPath>
</defs>
</svg>
