<svg width="40" height="40" viewBox="0 0 40 40" fill="none" xmlns="http://www.w3.org/2000/svg">
<rect width="40" height="40" rx="8" fill="#3345E4"/>
<path fill-rule="evenodd" clip-rule="evenodd" d="M26.0037 7.66975C22.008 6.77659 17.8645 6.77659 13.8688 7.66975L13.4383 7.765C12.3144 8.01629 11.2821 8.57423 10.4562 9.37684C9.63024 10.1795 9.04298 11.1953 8.75962 12.3116C7.74679 16.3026 7.74679 20.4834 8.75962 24.4744C9.02985 25.539 9.57675 26.5132 10.3449 27.2983C11.113 28.0834 12.0751 28.6514 13.1335 28.9448L13.7241 32.4703C13.7429 32.5823 13.7914 32.6871 13.8646 32.774C13.9377 32.8608 14.0328 32.9264 14.1399 32.964C14.247 33.0016 14.3622 33.0098 14.4736 32.9878C14.585 32.9657 14.6884 32.9142 14.7731 32.8386L18.2414 29.736C20.8451 29.8949 23.4581 29.6867 26.0037 29.1175L26.4355 29.0223C27.5594 28.771 28.5917 28.213 29.4176 27.4104C30.2436 26.6078 30.8308 25.5919 31.1142 24.4757C32.1269 20.4846 32.1269 16.3039 31.1142 12.3129C30.8307 11.1964 30.2433 10.1805 29.4171 9.37782C28.5909 8.57519 27.5584 8.01735 26.4342 7.76627L26.0037 7.66975ZM14.9407 12.2087C14.7047 12.1744 14.464 12.2219 14.2587 12.3434H14.2409C13.7647 12.6228 13.3354 12.9745 12.9697 13.3886C12.6649 13.7404 12.4998 14.096 12.4566 14.4389C12.4312 14.6421 12.449 14.8478 12.5087 15.0421L12.5315 15.0548C12.8744 16.0619 13.3215 17.0309 13.8676 17.9428C14.5717 19.2236 15.4382 20.4081 16.4457 21.467L16.4761 21.5102L16.5244 21.5458L16.5536 21.5801L16.5892 21.6105C17.6518 22.621 18.8391 23.4916 20.1223 24.2013C21.5892 25.0002 22.4794 25.3774 23.0141 25.5348V25.5425C23.1703 25.5907 23.3126 25.6123 23.4561 25.6123C23.9114 25.5787 24.3424 25.3936 24.6803 25.0865C25.0931 24.7208 25.4423 24.2902 25.7141 23.8115V23.8026C25.9694 23.32 25.883 22.8653 25.5147 22.5567C24.775 21.9103 23.975 21.3362 23.1259 20.8422C22.5569 20.5336 21.9791 20.7203 21.7454 21.0327L21.2463 21.6626C20.9897 21.975 20.5249 21.9319 20.5249 21.9319L20.5122 21.9395C17.0438 21.0543 16.118 17.5427 16.118 17.5427C16.118 17.5427 16.0748 17.0652 16.3961 16.8214L17.021 16.3185C17.3207 16.0746 17.529 15.498 17.2077 14.9291C16.7169 14.0791 16.144 13.2794 15.497 12.5415C15.3559 12.3678 15.158 12.2495 14.9382 12.2075L14.9407 12.2087ZM20.8005 10.6822C20.6321 10.6822 20.4706 10.7491 20.3515 10.8682C20.2324 10.9873 20.1655 11.1488 20.1655 11.3172C20.1655 11.4856 20.2324 11.6471 20.3515 11.7662C20.4706 11.8853 20.6321 11.9522 20.8005 11.9522C22.407 11.9522 23.7405 12.4767 24.7959 13.4825C25.3382 14.0325 25.7611 14.684 26.038 15.3977C26.3161 16.1127 26.4431 16.876 26.4101 17.6405C26.4066 17.7239 26.4195 17.8072 26.4482 17.8856C26.4769 17.9639 26.5207 18.0359 26.5772 18.0974C26.6913 18.2214 26.85 18.2951 27.0184 18.3022C27.1868 18.3093 27.3512 18.2492 27.4752 18.1351C27.5993 18.021 27.673 17.8623 27.6801 17.6939C27.7195 16.7534 27.5634 15.815 27.2216 14.938C26.8784 14.0568 26.358 13.2554 25.6925 12.5834L25.6798 12.5707C24.3705 11.3197 22.7131 10.6822 20.8005 10.6822ZM20.7573 12.7701C20.5889 12.7701 20.4274 12.837 20.3083 12.9561C20.1892 13.0751 20.1223 13.2367 20.1223 13.4051C20.1223 13.5735 20.1892 13.735 20.3083 13.8541C20.4274 13.9732 20.5889 14.0401 20.7573 14.0401H20.7789C21.9371 14.1226 22.7804 14.5087 23.371 15.1424C23.9768 15.7952 24.2905 16.6067 24.2663 17.61C24.2625 17.7785 24.3256 17.9415 24.442 18.0633C24.5583 18.1852 24.7183 18.2558 24.8867 18.2597C25.0551 18.2635 25.2182 18.2003 25.34 18.084C25.4618 17.9676 25.5325 17.8077 25.5363 17.6393C25.5668 16.3223 25.1426 15.1856 24.3019 14.2788V14.2763C23.4421 13.3543 22.2623 12.8666 20.8424 12.7713L20.8208 12.7688L20.7573 12.7701ZM20.7332 14.8973C20.6482 14.8898 20.5626 14.8995 20.4814 14.9259C20.4003 14.9522 20.3253 14.9946 20.2609 15.0505C20.1965 15.1065 20.144 15.1748 20.1066 15.2515C20.0692 15.3282 20.0477 15.4116 20.0432 15.4968C20.0388 15.582 20.0516 15.6672 20.0808 15.7474C20.11 15.8275 20.1551 15.901 20.2133 15.9633C20.2716 16.0257 20.3418 16.0756 20.4197 16.1102C20.4977 16.1449 20.5818 16.1634 20.6671 16.1648C21.198 16.1927 21.5371 16.3527 21.7505 16.5674C21.9651 16.7833 22.1251 17.13 22.1543 17.6723C22.1559 17.7575 22.1746 17.8415 22.2094 17.9193C22.2441 17.9972 22.2942 18.0672 22.3566 18.1253C22.419 18.1833 22.4924 18.2283 22.5725 18.2573C22.6526 18.2864 22.7378 18.2991 22.8229 18.2946C22.908 18.2901 22.9913 18.2684 23.0679 18.231C23.1445 18.1936 23.2128 18.1412 23.2686 18.0768C23.3245 18.0125 23.3669 17.9375 23.3932 17.8565C23.4195 17.7754 23.4292 17.6899 23.4218 17.605C23.3811 16.843 23.1424 16.1699 22.6534 15.6746C22.1619 15.1793 21.4926 14.938 20.7332 14.8973Z" fill="white"/>
</svg>
