<svg width="40" height="40" viewBox="0 0 40 40" fill="none" xmlns="http://www.w3.org/2000/svg">
<rect width="40" height="40" rx="8" fill="#3345E4"/>
<path fill-rule="evenodd" clip-rule="evenodd" d="M29.0468 30.3451V30.3424L29.0704 30.2861L33 10.4743V10.4114C33 9.91745 32.8166 9.48636 32.4208 9.22823C32.0736 9.00155 31.674 8.98582 31.3936 9.00679C31.1326 9.03039 30.875 9.08313 30.6257 9.16402C30.5194 9.19829 30.4145 9.23676 30.3113 9.27933L30.2942 9.28588L8.38597 17.8802L8.37941 17.8828C8.31281 17.9055 8.24761 17.9322 8.18418 17.9627C8.02837 18.0327 7.87888 18.116 7.73737 18.2117C7.45565 18.4056 6.91974 18.8616 7.01015 19.5849C7.08483 20.185 7.49758 20.565 7.77667 20.7628C7.94141 20.8783 8.11853 20.975 8.30473 21.0511L8.34666 21.0694L8.35976 21.0734L8.36893 21.0773L12.2029 22.3679C12.1898 22.6077 12.2134 22.8528 12.2776 23.0952L14.1972 30.3791C14.302 30.7762 14.5286 31.1304 14.8451 31.3921C15.1616 31.6537 15.5522 31.8097 15.9618 31.838C16.3715 31.8663 16.7798 31.7656 17.1293 31.55C17.4788 31.3344 17.752 31.0148 17.9106 30.636L20.9085 27.431L26.0567 31.3776L26.1301 31.409C26.5979 31.6134 27.0342 31.6776 27.4338 31.6239C27.8335 31.5689 28.1506 31.4012 28.389 31.2112C28.6649 30.9875 28.8847 30.7026 29.0311 30.3791L29.0416 30.3569L29.0455 30.349L29.0468 30.3451ZM14.1775 22.5946C14.1562 22.5138 14.1613 22.4283 14.1919 22.3506C14.2226 22.2728 14.2772 22.2068 14.3478 22.1622L27.3474 13.9073C27.3474 13.9073 28.1126 13.4422 28.0851 13.9073C28.0851 13.9073 28.2213 13.9886 27.8112 14.3699C27.4234 14.7328 18.5461 23.3035 17.6472 24.1709C17.5972 24.2194 17.5622 24.2813 17.5463 24.3491L16.0971 29.8786L14.1775 22.5946Z" fill="white"/>
</svg>
