<svg width="40" height="40" viewBox="0 0 40 40" fill="none" xmlns="http://www.w3.org/2000/svg">
<path d="M16.9002 3.34326C18.0785 3.34326 18.7502 4.5166 18.7502 5.69493V12.9166H17.2585C16.9684 12.1995 16.4379 11.6056 15.758 11.2367C15.0781 10.8678 14.291 10.7469 13.5317 10.8946C12.7724 11.0424 12.0881 11.4497 11.5961 12.0466C11.1041 12.6436 10.8351 13.393 10.8351 14.1666C10.8351 14.9402 11.1041 15.6896 11.5961 16.2866C12.0881 16.8835 12.7724 17.2908 13.5317 17.4385C14.291 17.5863 15.0781 17.4654 15.758 17.0965C16.4379 16.7276 16.9684 16.1337 17.2585 15.4166H18.7502V33.5799C18.7502 34.5733 18.3302 35.5616 17.4452 36.0133C16.6427 36.4336 15.7511 36.6554 14.8452 36.6599C12.3285 36.6599 10.4568 35.3866 9.25183 33.8799C8.4173 32.8402 7.83538 31.621 7.55183 30.3183C6.77352 30.0886 6.0527 29.6967 5.43683 29.1683C4.2535 28.1499 3.3335 26.5166 3.3335 24.1099C3.3335 22.8516 3.4235 21.7549 3.65016 20.8333H10.6668C11.7968 20.8333 12.7335 21.6666 12.8918 22.7516C12.1775 23.0471 11.5881 23.5817 11.2245 24.2639C10.8609 24.946 10.7457 25.7334 10.8986 26.4911C11.0515 27.2488 11.4631 27.9299 12.0627 28.4177C12.6624 28.9054 13.413 29.1696 14.186 29.165C14.959 29.1604 15.7064 28.8873 16.3002 28.3924C16.894 27.8975 17.2974 27.2115 17.4412 26.452C17.5851 25.6925 17.4605 24.9066 17.0887 24.2288C16.717 23.5511 16.1213 23.0236 15.4035 22.7366C15.3159 21.5401 14.7789 20.4211 13.9003 19.6043C13.0216 18.7875 11.8665 18.3334 10.6668 18.3333H5.06683C5.31641 18.127 5.59422 17.9575 5.89183 17.8299C5.72003 17.2175 5.62046 16.5871 5.59516 15.9516C5.54016 14.7266 5.7235 13.4516 6.08683 12.3166C6.44683 11.1999 7.01683 10.1116 7.81683 9.35993C8.31866 8.87093 8.95444 8.54202 9.6435 8.41493C9.97516 7.01493 10.8202 5.85826 11.8985 5.01993C13.2835 3.93993 15.0985 3.34326 16.8985 3.34326H16.9002ZM21.2502 28.3333H24.0002C25.2599 28.3333 26.4681 27.8328 27.3589 26.942C28.2497 26.0512 28.7502 24.843 28.7502 23.5833V20.5916C29.4673 20.3015 30.0612 19.771 30.4301 19.0911C30.799 18.4112 30.9199 17.6241 30.7721 16.8648C30.6244 16.1055 30.2171 15.4212 29.6202 14.9292C29.0232 14.4372 28.2737 14.1682 27.5002 14.1682C26.7266 14.1682 25.9771 14.4372 25.3802 14.9292C24.7832 15.4212 24.376 16.1055 24.2282 16.8648C24.0804 17.6241 24.2014 18.4112 24.5703 19.0911C24.9392 19.771 25.5331 20.3015 26.2502 20.5916V23.5833C26.2502 24.18 26.0131 24.7523 25.5912 25.1743C25.1692 25.5962 24.5969 25.8333 24.0002 25.8333H21.2502V5.69493C21.2502 4.5166 21.9218 3.34326 23.1002 3.34326C24.9035 3.34326 26.7168 3.93993 28.1018 5.01993C29.1802 5.85826 30.0252 7.01659 30.3568 8.41493C31.0568 8.53159 31.6802 8.88826 32.1835 9.35993C32.9835 10.1116 33.5535 11.1983 33.9135 12.3166C34.2768 13.4516 34.4602 14.7266 34.4052 15.9516C34.3768 16.5783 34.2852 17.2183 34.1085 17.8299L34.2185 17.8799C34.8352 18.1699 35.3352 18.6249 35.7085 19.2299C36.4168 20.3716 36.6668 22.0149 36.6668 24.1099C36.6668 26.5183 35.7468 28.1533 34.5635 29.1683C33.9471 29.6969 33.2257 30.0888 32.4468 30.3183C32.1637 31.6208 31.5824 32.84 30.7485 33.8799C29.5435 35.3866 27.6718 36.6599 25.1535 36.6599C24.2477 36.6559 23.3561 36.4347 22.5535 36.0149C21.6702 35.5616 21.2502 34.5733 21.2502 33.5799V28.3333ZM13.3335 14.1666C13.3335 13.9456 13.4213 13.7336 13.5776 13.5773C13.7339 13.4211 13.9458 13.3333 14.1668 13.3333C14.3878 13.3333 14.5998 13.4211 14.7561 13.5773C14.9124 13.7336 15.0002 13.9456 15.0002 14.1666C15.0002 14.3876 14.9124 14.5996 14.7561 14.7559C14.5998 14.9121 14.3878 14.9999 14.1668 14.9999C13.9458 14.9999 13.7339 14.9121 13.5776 14.7559C13.4213 14.5996 13.3335 14.3876 13.3335 14.1666ZM14.1668 24.9999C13.9458 24.9999 13.7339 25.0877 13.5776 25.244C13.4213 25.4003 13.3335 25.6122 13.3335 25.8333C13.3335 26.0543 13.4213 26.2662 13.5776 26.4225C13.7339 26.5788 13.9458 26.6666 14.1668 26.6666C14.3878 26.6666 14.5998 26.5788 14.7561 26.4225C14.9124 26.2662 15.0002 26.0543 15.0002 25.8333C15.0002 25.6122 14.9124 25.4003 14.7561 25.244C14.5998 25.0877 14.3878 24.9999 14.1668 24.9999ZM26.6668 17.4999C26.6668 17.7209 26.7546 17.9329 26.9109 18.0892C27.0672 18.2455 27.2791 18.3333 27.5002 18.3333C27.7212 18.3333 27.9331 18.2455 28.0894 18.0892C28.2457 17.9329 28.3335 17.7209 28.3335 17.4999C28.3335 17.2789 28.2457 17.067 28.0894 16.9107C27.9331 16.7544 27.7212 16.6666 27.5002 16.6666C27.2791 16.6666 27.0672 16.7544 26.9109 16.9107C26.7546 17.067 26.6668 17.2789 26.6668 17.4999Z" fill="white"/>
</svg>
