<svg width="40" height="40" viewBox="0 0 40 40" fill="none" xmlns="http://www.w3.org/2000/svg">
<path d="M35.0002 6.66659H30.0002V4.99992C30.0002 4.55789 29.8246 4.13397 29.512 3.82141C29.1994 3.50885 28.7755 3.33325 28.3335 3.33325H11.6668C11.2248 3.33325 10.8009 3.50885 10.4883 3.82141C10.1758 4.13397 10.0002 4.55789 10.0002 4.99992V6.66659H5.00016C4.55814 6.66659 4.13421 6.84218 3.82165 7.15474C3.50909 7.4673 3.3335 7.89122 3.3335 8.33325V13.3333C3.3335 20.5166 6.3335 24.8499 11.3668 24.9999C12.1012 26.2698 13.106 27.3626 14.31 28.2008C15.514 29.039 16.8876 29.602 18.3335 29.8499V33.3333H15.0002V36.6666H25.0002V33.3333H21.6668V29.8499C23.1127 29.602 24.4864 29.039 25.6903 28.2008C26.8943 27.3626 27.8991 26.2698 28.6335 24.9999C33.6335 24.8333 36.6668 20.4999 36.6668 13.3333V8.33325C36.6668 7.89122 36.4912 7.4673 36.1787 7.15474C35.8661 6.84218 35.4422 6.66659 35.0002 6.66659ZM6.66683 13.3333V9.99992H10.0002V21.3833C7.0335 20.1333 6.66683 15.4999 6.66683 13.3333ZM30.0002 21.3833V9.99992H33.3335V13.3333C33.3335 15.4999 32.9668 20.1333 30.0002 21.3833Z" fill="white"/>
</svg>
