<svg width="40" height="40" viewBox="0 0 40 40" fill="none" xmlns="http://www.w3.org/2000/svg">
<path d="M20.0002 3.33325C10.8002 3.33325 3.3335 10.7999 3.3335 19.9999C3.3335 29.1999 10.8002 36.6666 20.0002 36.6666C29.2002 36.6666 36.6668 29.1999 36.6668 19.9999C36.6668 10.7999 29.2002 3.33325 20.0002 3.33325ZM32.4335 15.1999L27.8002 17.1166C27.3827 15.9935 26.7271 14.974 25.8784 14.1282C25.0297 13.2823 24.008 12.6302 22.8835 12.2166L24.8002 7.58325C28.3002 8.91659 31.0835 11.6999 32.4335 15.1999ZM20.0002 24.9999C17.2335 24.9999 15.0002 22.7666 15.0002 19.9999C15.0002 17.2333 17.2335 14.9999 20.0002 14.9999C22.7668 14.9999 25.0002 17.2333 25.0002 19.9999C25.0002 22.7666 22.7668 24.9999 20.0002 24.9999ZM15.2168 7.56659L17.1668 12.1999C16.029 12.6146 14.9953 13.2722 14.1375 14.1271C13.2798 14.982 12.6186 16.0135 12.2002 17.1499L7.56683 15.2166C8.23514 13.4768 9.26145 11.8969 10.5793 10.579C11.8971 9.26121 13.4771 8.2349 15.2168 7.56659ZM7.56683 24.7833L12.2002 22.8666C12.6157 24 13.2741 25.0289 14.1292 25.8811C14.9842 26.7333 16.0153 27.3882 17.1502 27.7999L15.2002 32.4333C13.4641 31.7619 11.888 30.7343 10.5733 29.4167C9.25853 28.0991 8.2344 26.5208 7.56683 24.7833ZM24.8002 32.4333L22.8835 27.7999C24.0133 27.3813 25.0384 26.7217 25.8874 25.8668C26.7365 25.012 27.3892 23.9825 27.8002 22.8499L32.4335 24.7999C31.763 26.5338 30.7376 28.1084 29.4231 29.4229C28.1086 30.7374 26.534 31.7627 24.8002 32.4333Z" fill="white"/>
</svg>
