<svg width="40" height="40" viewBox="0 0 40 40" fill="none" xmlns="http://www.w3.org/2000/svg">
<path d="M26.875 21.875L33.75 15M18.125 16.875L23.125 21.875M6.25 25L14.375 16.875" stroke="white" stroke-width="2.5" stroke-linecap="round" stroke-linejoin="round"/>
<path d="M35.625 15C36.6605 15 37.5 14.1605 37.5 13.125C37.5 12.0895 36.6605 11.25 35.625 11.25C34.5895 11.25 33.75 12.0895 33.75 13.125C33.75 14.1605 34.5895 15 35.625 15Z" stroke="white" stroke-width="2.5" stroke-linecap="round" stroke-linejoin="round"/>
<path d="M25 25.625C26.0355 25.625 26.875 24.7855 26.875 23.75C26.875 22.7145 26.0355 21.875 25 21.875C23.9645 21.875 23.125 22.7145 23.125 23.75C23.125 24.7855 23.9645 25.625 25 25.625Z" stroke="white" stroke-width="2.5" stroke-linecap="round" stroke-linejoin="round"/>
<path d="M16.25 16.875C17.2855 16.875 18.125 16.0355 18.125 15C18.125 13.9645 17.2855 13.125 16.25 13.125C15.2145 13.125 14.375 13.9645 14.375 15C14.375 16.0355 15.2145 16.875 16.25 16.875Z" stroke="white" stroke-width="2.5" stroke-linecap="round" stroke-linejoin="round"/>
<path d="M4.375 28.75C5.41053 28.75 6.25 27.9105 6.25 26.875C6.25 25.8395 5.41053 25 4.375 25C3.33947 25 2.5 25.8395 2.5 26.875C2.5 27.9105 3.33947 28.75 4.375 28.75Z" stroke="white" stroke-width="2.5" stroke-linecap="round" stroke-linejoin="round"/>
</svg>
