<svg width="64" height="64" viewBox="0 0 64 64" fill="none" xmlns="http://www.w3.org/2000/svg">
<path d="M10.6875 50.6667V13.3333C10.6875 11.9188 11.2494 10.5623 12.2496 9.5621C13.2498 8.5619 14.6063 8 16.0208 8H51.7542C52.1785 8 52.5855 8.16857 52.8855 8.46863C53.1856 8.76869 53.3542 9.17565 53.3542 9.6V44.5707M16.0208 45.3333H53.3542M16.0208 56H53.3542" stroke="white" stroke-width="3" stroke-linecap="round"/>
<path d="M16.0208 56.0007C14.6063 56.0007 13.2498 55.4387 12.2496 54.4386C11.2494 53.4384 10.6875 52.0818 10.6875 50.6673C10.6875 49.2528 11.2494 47.8963 12.2496 46.8961C13.2498 45.8959 14.6063 45.334 16.0208 45.334" stroke="white" stroke-width="3" stroke-linecap="round" stroke-linejoin="round"/>
<path d="M24.0234 18.666H40.0234" stroke="white" stroke-width="3" stroke-linecap="round"/>
</svg>
