<svg width="40" height="40" viewBox="0 0 40 40" fill="none" xmlns="http://www.w3.org/2000/svg">
<path d="M30.8984 20.8008C31.4323 21.7383 31.8294 22.7148 32.0898 23.7305C32.3503 24.7461 32.487 25.7943 32.5 26.875V28.8867L20 35.1562L7.5 28.8867C7.5 28.1055 7.50651 27.3763 7.51953 26.6992C7.53255 26.0221 7.59115 25.3646 7.69531 24.7266C7.79948 24.0885 7.95573 23.4505 8.16406 22.8125C8.3724 22.1745 8.6849 21.5039 9.10156 20.8008L5 18.75V30.2148C5.3776 30.3451 5.71615 30.5273 6.01562 30.7617C6.3151 30.9961 6.58203 31.2695 6.81641 31.582C7.05078 31.8945 7.22005 32.2331 7.32422 32.5977C7.42839 32.9622 7.48698 33.3464 7.5 33.75V40H0V33.75C0 33.3594 0.0585938 32.9818 0.175781 32.6172C0.292969 32.2526 0.46224 31.9076 0.683594 31.582C0.904948 31.2565 1.16536 30.9831 1.46484 30.7617C1.76432 30.5404 2.10938 30.3581 2.5 30.2148V17.5L0 16.25L20 6.25L40 16.25L30.8984 20.8008ZM5 33.75C5 33.4115 4.8763 33.1185 4.62891 32.8711C4.38151 32.6237 4.08854 32.5 3.75 32.5C3.41146 32.5 3.11849 32.6237 2.87109 32.8711C2.6237 33.1185 2.5 33.4115 2.5 33.75V37.5H5V33.75ZM5.58594 16.25L20 23.457L34.4141 16.25L20 9.04297L5.58594 16.25ZM30 27.3438C30 26.3411 29.9023 25.4102 29.707 24.5508C29.5117 23.6914 29.1667 22.8125 28.6719 21.9141L20 26.25L11.3281 21.9141C10.8984 22.6693 10.5729 23.4635 10.3516 24.2969C10.1302 25.1302 10.013 25.9896 10 26.875V27.3438L20 32.3438L30 27.3438Z" fill="#20283D"/>
</svg>
