<svg width="40" height="40" viewBox="0 0 40 40" fill="none" xmlns="http://www.w3.org/2000/svg">
<g clip-path="url(#clip0_1372_14972)">
<path d="M35.0011 5.17145V1.42859M35.0011 5.17145C32.944 5.17145 31.4297 5.17145 31.4297 7.68573C31.4297 11.4286 38.5725 11.4286 38.5725 15.1714C38.5725 17.6857 37.0583 17.6857 35.0011 17.6857M35.0011 5.17145C37.0583 5.17145 38.5725 6.1143 38.5725 7.68573M31.4297 15.1714C31.4297 17.0572 32.944 17.6857 35.0011 17.6857M35.0011 17.6857V21.4286M5.7154 28.5714V32.8572M5.7154 10V1.42859M21.4297 31.4286V38.5714M21.4297 21.4286V11.4286M7.14397 10H4.28683C3.52907 10 2.80234 10.301 2.26653 10.8369C1.73071 11.3727 1.42969 12.0994 1.42969 12.8572V25.7143C1.42969 26.4721 1.73071 27.1988 2.26653 27.7346C2.80234 28.2704 3.52907 28.5714 4.28683 28.5714H7.14397C7.90173 28.5714 8.62846 28.2704 9.16428 27.7346C9.7001 27.1988 10.0011 26.4721 10.0011 25.7143V12.8572C10.0011 12.0994 9.7001 11.3727 9.16428 10.8369C8.62846 10.301 7.90173 10 7.14397 10ZM22.8583 21.4286H20.0011C19.2434 21.4286 18.5166 21.7296 17.9808 22.2654C17.445 22.8012 17.144 23.528 17.144 24.2857V28.5714C17.144 29.3292 17.445 30.0559 17.9808 30.5918C18.5166 31.1276 19.2434 31.4286 20.0011 31.4286H22.8583C23.616 31.4286 24.3427 31.1276 24.8786 30.5918C25.4144 30.0559 25.7154 29.3292 25.7154 28.5714V24.2857C25.7154 23.528 25.4144 22.8012 24.8786 22.2654C24.3427 21.7296 23.616 21.4286 22.8583 21.4286Z" stroke="#20283D" stroke-width="2.85714" stroke-linecap="round" stroke-linejoin="round"/>
</g>
<defs>
<clipPath id="clip0_1372_14972">
<rect width="40" height="40" fill="white"/>
</clipPath>
</defs>
</svg>
