<svg width="64" height="64" viewBox="0 0 64 64" fill="none" xmlns="http://www.w3.org/2000/svg">
<path d="M14.3813 21.5992C14.3813 19.6897 15.1398 17.8583 16.4901 16.5081C17.8403 15.1578 19.6717 14.3992 21.5813 14.3992C23.4908 14.3992 25.3222 15.1578 26.6724 16.5081C28.0227 17.8583 28.7812 19.6897 28.7812 21.5992C28.7812 23.5088 28.0227 25.3401 26.6724 26.6904C25.3222 28.0406 23.4908 28.7992 21.5813 28.7992C19.6717 28.7992 17.8403 28.0406 16.4901 26.6904C15.1398 25.3401 14.3813 23.5088 14.3813 21.5992ZM21.5813 11.1992C18.823 11.1992 16.1777 12.2949 14.2273 14.2453C12.277 16.1957 11.1813 18.841 11.1813 21.5992C11.1813 24.3575 12.277 27.0027 14.2273 28.9531C16.1777 30.9035 18.823 31.9992 21.5813 31.9992C24.3395 31.9992 26.9848 30.9035 28.9352 28.9531C30.8855 27.0027 31.9813 24.3575 31.9813 21.5992C31.9813 18.841 30.8855 16.1957 28.9352 14.2453C26.9848 12.2949 24.3395 11.1992 21.5813 11.1992ZM39.7797 48.4632C41.5013 49.1672 43.6677 49.5992 46.3813 49.5992C52.4005 49.5992 55.7285 47.4616 57.4821 45.0104C58.3969 43.7241 58.9706 42.2267 59.1493 40.6584C59.1653 40.5127 59.1759 40.3665 59.1813 40.22V39.9992C59.1813 39.3689 59.0571 38.7447 58.8159 38.1623C58.5746 37.58 58.2211 37.0508 57.7754 36.6051C57.3296 36.1594 56.8005 35.8058 56.2181 35.5646C55.6358 35.3234 55.0116 35.1992 54.3813 35.1992H39.5653C40.3333 36.1272 40.9093 37.212 41.2453 38.3992H54.3813C54.8056 38.3992 55.2126 38.5678 55.5126 38.8678C55.8127 39.1679 55.9813 39.5749 55.9813 39.9992V40.172L55.9653 40.332C55.8427 41.3466 55.4687 42.3146 54.8773 43.148C53.8309 44.6168 51.5588 46.3992 46.3813 46.3992C44.0388 46.3992 42.2916 46.0344 40.9828 45.5C40.7205 46.396 40.3397 47.4072 39.7797 48.4632ZM4.78125 41.5992C4.78125 39.9018 5.45553 38.274 6.65577 37.0737C7.856 35.8735 9.48386 35.1992 11.1813 35.1992H31.9813C33.6786 35.1992 35.3065 35.8735 36.5067 37.0737C37.707 38.274 38.3813 39.9018 38.3813 41.5992V41.868C38.3813 41.9 38.3813 41.9416 38.3749 41.996C38.3359 42.6296 38.2449 43.2589 38.1029 43.8776C37.8309 45.0552 37.2901 46.6296 36.1989 48.2104C33.9557 51.4552 29.6229 54.3992 21.5813 54.3992C13.5396 54.3992 9.20685 51.4552 6.96365 48.2104C5.78229 46.4897 5.04567 44.503 4.81965 42.428C4.80053 42.2418 4.78772 42.0551 4.78125 41.868V41.7976V41.5992ZM7.98125 41.7912V41.8488L8.00365 42.1144C8.17704 43.6484 8.72424 45.1164 9.59725 46.3896C11.1557 48.6424 14.4229 51.1992 21.5813 51.1992C28.7397 51.1992 32.0068 48.6424 33.5653 46.3896C34.4385 45.1165 34.9857 43.6485 35.1588 42.1144C35.1693 42.0262 35.1758 41.9376 35.178 41.8488L35.1812 41.7944V41.5992C35.1812 40.7505 34.8441 39.9366 34.244 39.3365C33.6439 38.7364 32.8299 38.3992 31.9813 38.3992H11.1813C10.3326 38.3992 9.51862 38.7364 8.91851 39.3365C8.31839 39.9366 7.98125 40.7505 7.98125 41.5992V41.7912ZM41.5812 23.9992C41.5812 22.7262 42.087 21.5053 42.9871 20.6051C43.8873 19.7049 45.1082 19.1992 46.3813 19.1992C47.6543 19.1992 48.8752 19.7049 49.7754 20.6051C50.6755 21.5053 51.1813 22.7262 51.1813 23.9992C51.1813 25.2723 50.6755 26.4932 49.7754 27.3933C48.8752 28.2935 47.6543 28.7992 46.3813 28.7992C45.1082 28.7992 43.8873 28.2935 42.9871 27.3933C42.087 26.4932 41.5812 25.2723 41.5812 23.9992ZM46.3813 15.9992C44.2595 15.9992 42.2247 16.8421 40.7244 18.3424C39.2241 19.8427 38.3813 21.8775 38.3813 23.9992C38.3813 26.121 39.2241 28.1558 40.7244 29.6561C42.2247 31.1564 44.2595 31.9992 46.3813 31.9992C48.503 31.9992 50.5378 31.1564 52.0381 29.6561C53.5384 28.1558 54.3813 26.121 54.3813 23.9992C54.3813 21.8775 53.5384 19.8427 52.0381 18.3424C50.5378 16.8421 48.503 15.9992 46.3813 15.9992Z" fill="white"/>
</svg>
