<svg width="40" height="40" viewBox="0 0 40 40" fill="none" xmlns="http://www.w3.org/2000/svg">
<path d="M10 12.5H20V15H10V12.5ZM10 7.5H25V10H10V7.5ZM10 2.5H25V5H10V2.5Z" fill="#20283D"/>
<path d="M5.88875 35L12.9275 22.505L22.22 30.6175C22.5009 30.8675 22.8346 31.0508 23.1962 31.154C23.5577 31.2571 23.9379 31.2774 24.3084 31.2132C24.6789 31.1491 25.0302 31.0022 25.336 30.7834C25.6419 30.5647 25.8945 30.2799 26.075 29.95L34.7875 16.9462L32.7113 15.5538L23.9613 28.6138L23.8738 28.7425L14.58 20.63C14.2992 20.3815 13.9661 20.1992 13.6054 20.0966C13.2447 19.9941 12.8656 19.9738 12.496 20.0374C12.1265 20.101 11.7759 20.2468 11.4702 20.464C11.1646 20.6813 10.9116 20.9644 10.73 21.2925L5 31.4788V2.5H2.5V35C2.50066 35.6628 2.76427 36.2983 3.23296 36.767C3.70166 37.2357 4.33716 37.4993 5 37.5H37.5V35H5.88875Z" fill="#20283D"/>
</svg>
