<svg width="40" height="40" viewBox="0 0 40 40" fill="none" xmlns="http://www.w3.org/2000/svg">
<path d="M11.6641 23.3327L15.4857 19.511C15.7983 19.1986 16.2221 19.023 16.6641 19.023C17.106 19.023 17.5298 19.1986 17.8424 19.511L20.4857 22.1543C20.7983 22.4668 21.2221 22.6423 21.6641 22.6423C22.106 22.6423 22.5298 22.4668 22.8424 22.1543L28.3307 16.666M28.3307 16.666V20.8327M28.3307 16.666H24.1641" stroke="#20283D" stroke-width="2.5" stroke-linecap="round" stroke-linejoin="round"/>
<path d="M36.6615 19.9994C36.6615 27.856 36.6615 31.7844 34.2198 34.2244C31.7815 36.666 27.8515 36.666 19.9948 36.666C12.1381 36.666 8.20979 36.666 5.76812 34.2244C3.32812 31.786 3.32812 27.856 3.32812 19.9994C3.32812 12.1427 3.32812 8.21437 5.76812 5.7727C8.21146 3.3327 12.1381 3.3327 19.9948 3.3327C27.8515 3.3327 31.7798 3.3327 34.2198 5.7727C35.8431 7.39604 36.3865 9.6777 36.5698 13.3327" stroke="#20283D" stroke-width="2.5" stroke-linecap="round"/>
</svg>
