<svg width="56" height="56" viewBox="0 0 56 56" fill="none" xmlns="http://www.w3.org/2000/svg">
<path d="M47.7339 5.99951L33.7924 11.2347L38.7958 14.389C29.8577 25.6444 16.9282 32.5773 6.00391 35.2162L9.09866 40.8533C21.3736 36.8525 34.3693 29.6358 42.7399 16.886L46.5516 19.2884L47.7339 5.99951ZM48.4622 17.0373L48.0082 22.2205L43.1561 19.156C42.9859 19.4114 42.8061 19.6573 42.6264 19.9127V50.1414H50.0039V17.0373H48.4622ZM34.218 29.144C33.0168 30.1844 31.7778 31.168 30.5198 32.095V50.1414H37.8973V29.144H34.218ZM22.5181 37.0889C21.1561 37.8078 19.7941 38.4698 18.4132 39.0941V50.1414H25.7907V37.0889H22.5181ZM6.30657 41.2506V50.1414H13.684V41.2506H13.1468C11.7451 41.7708 10.3443 42.2532 8.95206 42.6977L8.2843 42.9058L7.37631 41.2506H6.30657Z" fill="black"/>
</svg>
