<svg width="56" height="56" viewBox="0 0 56 56" fill="none" xmlns="http://www.w3.org/2000/svg">
<path fill-rule="evenodd" clip-rule="evenodd" d="M28.7938 7.21057C28.3019 6.92949 27.6981 6.92949 27.2062 7.21057L4.80618 20.0106C4.30766 20.2954 4 20.8256 4 21.3998C4 21.9739 4.30766 22.5041 4.80618 22.7889L12 26.8997V38.9998C12 39.5808 12.315 40.1162 12.823 40.3984L27.223 48.3984C27.7062 48.6669 28.2938 48.6669 28.777 48.3984L43.177 40.3984C43.685 40.1162 44 39.5808 44 38.9998V26.8997L48.8 24.1568V38.9998C48.8 39.8834 49.5163 40.5998 50.4 40.5998C51.2837 40.5998 52 39.8834 52 38.9998V21.3998C52 20.9995 51.853 20.6335 51.6101 20.3529C51.5552 20.2895 51.4952 20.2302 51.4304 20.1757C51.3491 20.1071 51.2608 20.0466 51.1669 19.9952L28.7938 7.21057ZM40.8 28.7283L29.6 35.1283V44.2805L40.8 38.0583V28.7283ZM26.4 35.1283L15.2 28.7283V38.0583L26.4 44.2805V35.1283ZM28 32.357L8.8249 21.3998L28 10.4426L47.1751 21.3998L28 32.357Z" fill="black"/>
</svg>
