<svg width="56" height="56" viewBox="0 0 56 56" fill="none" xmlns="http://www.w3.org/2000/svg">
<path d="M21.507 13.993C21.507 12.1383 22.2438 10.3596 23.5552 9.0482C24.8666 7.73676 26.6453 7 28.5 7C30.3547 7 32.1334 7.73676 33.4448 9.0482C34.7562 10.3596 35.493 12.1383 35.493 13.993C35.493 15.8477 34.7562 17.6264 33.4448 18.9378C32.1334 20.2492 30.3547 20.986 28.5 20.986C26.6453 20.986 24.8666 20.2492 23.5552 18.9378C22.2438 17.6264 21.507 15.8477 21.507 13.993ZM28.5 10.5C28.0413 10.5 27.5871 10.5903 27.1633 10.7659C26.7395 10.9414 26.3544 11.1987 26.0301 11.5231C25.7057 11.8474 25.4484 12.2325 25.2729 12.6563C25.0973 13.0801 25.007 13.5343 25.007 13.993C25.007 14.4517 25.0973 14.9059 25.2729 15.3297C25.4484 15.7535 25.7057 16.1386 26.0301 16.4629C26.3544 16.7873 26.7395 17.0446 27.1633 17.2201C27.5871 17.3957 28.0413 17.486 28.5 17.486C29.4264 17.486 30.3149 17.118 30.9699 16.4629C31.625 15.8079 31.993 14.9194 31.993 13.993C31.993 13.0666 31.625 12.1781 30.9699 11.5231C30.3149 10.868 29.4264 10.5 28.5 10.5ZM39 15.743C39 15.0536 39.1358 14.3709 39.3996 13.7339C39.6635 13.097 40.0502 12.5182 40.5377 12.0307C41.0252 11.5432 41.604 11.1565 42.2409 10.8926C42.8779 10.6288 43.5606 10.493 44.25 10.493C44.9394 10.493 45.6221 10.6288 46.2591 10.8926C46.896 11.1565 47.4748 11.5432 47.9623 12.0307C48.4498 12.5182 48.8365 13.097 49.1004 13.7339C49.3642 14.3709 49.5 15.0536 49.5 15.743C49.5 17.1354 48.9469 18.4707 47.9623 19.4553C46.9777 20.4399 45.6424 20.993 44.25 20.993C42.8576 20.993 41.5223 20.4399 40.5377 19.4553C39.5531 18.4707 39 17.1354 39 15.743ZM44.25 13.993C43.7859 13.993 43.3408 14.1774 43.0126 14.5056C42.6844 14.8338 42.5 15.2789 42.5 15.743C42.5 16.2071 42.6844 16.6522 43.0126 16.9804C43.3408 17.3086 43.7859 17.493 44.25 17.493C44.7141 17.493 45.1592 17.3086 45.4874 16.9804C45.8156 16.6522 46 16.2071 46 15.743C46 15.2789 45.8156 14.8338 45.4874 14.5056C45.1592 14.1774 44.7141 13.993 44.25 13.993ZM12.75 10.493C11.3576 10.493 10.0223 11.0461 9.03769 12.0307C8.05312 13.0153 7.5 14.3506 7.5 15.743C7.5 17.1354 8.05312 18.4707 9.03769 19.4553C10.0223 20.4399 11.3576 20.993 12.75 20.993C14.1424 20.993 15.4777 20.4399 16.4623 19.4553C17.4469 18.4707 18 17.1354 18 15.743C18 14.3506 17.4469 13.0153 16.4623 12.0307C15.4777 11.0461 14.1424 10.493 12.75 10.493ZM11 15.743C11 15.2789 11.1844 14.8338 11.5126 14.5056C11.8408 14.1774 12.2859 13.993 12.75 13.993C13.2141 13.993 13.6592 14.1774 13.9874 14.5056C14.3156 14.8338 14.5 15.2789 14.5 15.743C14.5 16.2071 14.3156 16.6522 13.9874 16.9804C13.6592 17.3086 13.2141 17.493 12.75 17.493C12.2859 17.493 11.8408 17.3086 11.5126 16.9804C11.1844 16.6522 11 16.2071 11 15.743ZM15.438 24.493C14.822 25.5565 14.4984 26.764 14.5 27.993H7.5V36.743C7.49972 37.6136 7.71593 38.4706 8.12919 39.2368C8.54244 40.0031 9.13975 40.6545 9.86736 41.1325C10.595 41.6105 11.43 41.9001 12.2974 41.9752C13.1647 42.0502 14.0371 41.9084 14.836 41.5625C15.095 42.721 15.501 43.827 16.026 44.8595C14.6976 45.3959 13.2579 45.5979 11.8332 45.4478C10.4085 45.2976 9.04248 44.8 7.85505 43.9986C6.66762 43.1972 5.69512 42.1165 5.02295 40.8514C4.35079 39.5863 3.99952 38.1756 4 36.743V27.993C4 27.0647 4.36875 26.1745 5.02513 25.5181C5.6815 24.8617 6.57174 24.493 7.5 24.493H15.438ZM40.974 44.8595C42.3024 45.3959 43.7421 45.5979 45.1668 45.4478C46.5915 45.2976 47.9575 44.8 49.145 43.9986C50.3324 43.1972 51.3049 42.1165 51.977 40.8514C52.6492 39.5863 53.0005 38.1756 53 36.743V27.993C53 27.0647 52.6312 26.1745 51.9749 25.5181C51.3185 24.8617 50.4283 24.493 49.5 24.493H41.562C42.157 25.522 42.5 26.7155 42.5 27.993H49.5V36.743C49.5003 37.6136 49.2841 38.4706 48.8708 39.2368C48.4576 40.0031 47.8602 40.6545 47.1326 41.1325C46.405 41.6105 45.57 41.9001 44.7026 41.9752C43.8353 42.0502 42.9629 41.9084 42.164 41.5625C41.9015 42.721 41.499 43.827 40.974 44.8595ZM21.5 24.4895C20.5717 24.4895 19.6815 24.8582 19.0251 25.5146C18.3687 26.171 18 27.0612 18 27.9895V38.493C18 41.2778 19.1062 43.9485 21.0754 45.9176C23.0445 47.8868 25.7152 48.993 28.5 48.993C31.2848 48.993 33.9555 47.8868 35.9246 45.9176C37.8938 43.9485 39 41.2778 39 38.493V27.993C39 27.0647 38.6312 26.1745 37.9749 25.5181C37.3185 24.8617 36.4283 24.493 35.5 24.493L21.5 24.4895ZM21.5 27.9895H35.5V38.493C35.5 40.3495 34.7625 42.13 33.4497 43.4427C32.137 44.7555 30.3565 45.493 28.5 45.493C26.6435 45.493 24.863 44.7555 23.5503 43.4427C22.2375 42.13 21.5 40.3495 21.5 38.493V27.9895Z" fill="black"/>
</svg>
