<svg width="56" height="56" viewBox="0 0 56 56" fill="none" xmlns="http://www.w3.org/2000/svg">
<path d="M11.9228 4.21094L9.45875 6.67144L13.125 10.3359L15.5855 7.87544L11.9228 4.21094ZM44.079 4.21094L40.4128 7.87544L42.875 10.3359L46.5395 6.67319L44.079 4.21094ZM28 5.30294C27.4225 5.30994 26.838 5.34319 26.25 5.41494C26.2325 5.41494 26.215 5.41144 26.1975 5.41494C19.0995 6.22869 13.4505 11.9634 12.4688 19.0299C11.6847 24.7174 14.0297 29.8747 17.9375 33.1962C19.536 34.5604 20.6172 36.4324 21 38.4987V48.9987H24.99C25.599 50.0434 26.7103 50.7487 28 50.7487C29.2897 50.7487 30.401 50.0434 31.01 48.9987H35V41.9987H35.1645V39.9197C35.1645 37.3542 36.498 34.7677 38.6645 32.7569C41.5625 29.8554 43.75 25.7342 43.75 21.0004C43.75 12.3554 36.6345 5.22244 28 5.30294ZM28 8.80294C34.7638 8.70844 40.25 14.2454 40.25 21.0004C40.25 24.6649 38.5525 27.8919 36.2023 30.2404L36.2583 30.2964C33.9227 32.4502 32.4124 35.3518 31.9882 38.5004H24.3337C23.9487 35.5009 22.6625 32.5977 20.2318 30.5152C17.1395 27.8902 15.2968 23.9352 15.9128 19.4692C16.6775 13.9567 21.1505 9.52394 26.6315 8.91669C27.084 8.8536 27.5397 8.8162 27.9965 8.80469L28 8.80294ZM3.5 21.0004V24.5004H8.75V21.0004H3.5ZM47.25 21.0004V24.5004H52.5V21.0004H47.25ZM13.125 35.1649L9.4605 38.8277L11.9228 41.2899L15.5837 37.6254L13.125 35.1649ZM42.875 35.1649L40.4145 37.6254L44.0773 41.2899L46.5395 38.8277L42.875 35.1649ZM24.5 42.0004H31.5V45.5004H24.5V42.0004Z" fill="black"/>
</svg>
