<svg width="56" height="56" viewBox="0 0 56 56" fill="none" xmlns="http://www.w3.org/2000/svg">
<path d="M52 14.9998C52 14.3598 51.68 13.8798 51.2 13.5598L40 7.15982C39.68 6.99982 39.52 6.99982 39.2 6.99982C38.88 6.99982 38.72 6.99982 38.4 7.15982L28 13.0798L17.6 7.15982C17.28 6.99982 17.12 6.99982 16.8 6.99982C16.48 6.99982 16.32 6.99982 16 7.15982L4.8 13.5598C4.32 13.8798 4 14.3598 4 14.9998V46.9998C4 47.9598 4.64 48.5998 5.6 48.5998C5.92 48.5998 6.08 48.4398 6.4 48.4398L16.8 42.5198L27.2 48.4398C27.52 48.5998 27.68 48.5998 28 48.5998C28.32 48.5998 28.48 48.5998 28.8 48.4398L39.2 42.5198L49.6 48.4398C49.76 48.5998 50.08 48.5998 50.4 48.5998C51.36 48.5998 52 47.9598 52 46.9998V14.9998ZM7.2 15.9598L15.2 11.3198V39.6398L7.2 44.2798V15.9598ZM26.4 44.2798L18.4 39.6398V11.3198L26.4 15.9598V44.2798ZM37.6 39.6398L29.6 44.2798V15.9598L37.6 11.3198V39.6398ZM40.8 39.6398V11.3198L48.8 15.9598V44.2798L40.8 39.6398Z" fill="black"/>
</svg>
