<svg width="14" height="12" viewBox="0 0 14 12" fill="none" xmlns="http://www.w3.org/2000/svg">
<path d="M13.4 5.35958C13.3996 5.03218 13.3054 4.71176 13.1283 4.43637C12.9513 4.16099 12.6989 3.9422 12.4012 3.806C12.1034 3.66981 11.7729 3.62192 11.4488 3.66804C11.1246 3.71416 10.8206 3.85233 10.5726 4.06616C9.67473 3.59049 8.60579 3.30187 7.48876 3.23774L7.76668 1.5702L8.93182 1.75191C8.98648 2.05243 9.14573 2.3239 9.38136 2.51826C9.61699 2.71261 9.9138 2.8173 10.2192 2.81379C10.5246 2.81028 10.819 2.69879 11.0501 2.49908C11.2812 2.29936 11.4341 2.02429 11.4819 1.7226C11.5296 1.42091 11.469 1.11206 11.3109 0.850753C11.1527 0.589443 10.9072 0.392535 10.6178 0.294904C10.3284 0.197272 10.0137 0.205217 9.7296 0.317332C9.44548 0.429446 9.2102 0.638495 9.06544 0.907455L7.47807 0.661599C7.3669 0.644622 7.25352 0.672125 7.16248 0.73815C7.07145 0.804175 7.01009 0.903406 6.9917 1.01435L6.62292 3.23239C5.45778 3.28049 4.33539 3.56911 3.40007 4.06616C3.05918 3.78432 2.62236 3.64551 2.1813 3.67886C1.74025 3.71222 1.32927 3.91514 1.03464 4.24504C0.740013 4.57495 0.58465 5.00616 0.60117 5.44817C0.61769 5.89017 0.804807 6.30859 1.12324 6.61558C1.04239 6.90258 1.00103 7.19927 1.00031 7.49745C1.00031 8.66793 1.64167 9.7636 2.81216 10.5706C3.98264 11.3777 5.41502 11.7732 6.98636 11.7732C8.55769 11.7732 10.0382 11.3456 11.1606 10.5706C12.2829 9.79566 12.9724 8.66793 12.9724 7.49745C12.9721 7.201 12.9307 6.90603 12.8495 6.62092C13.0226 6.45946 13.1607 6.26423 13.2554 6.04729C13.3501 5.83034 13.3993 5.59628 13.4 5.35958V5.35958ZM3.99333 6.85609C3.99333 6.68696 4.04349 6.52162 4.13745 6.38099C4.23142 6.24036 4.36497 6.13076 4.52123 6.06603C4.67749 6.00131 4.84943 5.98437 5.01531 6.01737C5.1812 6.05037 5.33357 6.13181 5.45316 6.25141C5.57276 6.371 5.6542 6.52337 5.6872 6.68926C5.7202 6.85514 5.70326 7.02708 5.63854 7.18334C5.57381 7.3396 5.46421 7.47315 5.32358 7.56712C5.18295 7.66108 5.01762 7.71124 4.84848 7.71124C4.62168 7.71124 4.40417 7.62114 4.2438 7.46077C4.08343 7.3004 3.99333 7.08289 3.99333 6.85609ZM8.94785 9.58722C8.34129 9.89989 7.66877 10.063 6.98636 10.063C6.30395 10.063 5.63142 9.89989 5.02486 9.58722C4.93167 9.53142 4.86322 9.44225 4.83339 9.33781C4.80356 9.23337 4.8146 9.12149 4.86426 9.0249C4.91391 8.9283 4.99847 8.85422 5.10077 8.8177C5.20306 8.78118 5.31541 8.78496 5.41502 8.82828C5.90098 9.07861 6.43971 9.20921 6.98636 9.20921C7.533 9.20921 8.07174 9.07861 8.55769 8.82828C8.6573 8.78496 8.76965 8.78118 8.87195 8.8177C8.97424 8.85422 9.0588 8.9283 9.10846 9.0249C9.15812 9.12149 9.16915 9.23337 9.13932 9.33781C9.1095 9.44225 9.04104 9.53142 8.94785 9.58722ZM9.12423 7.71124C8.9551 7.71124 8.78976 7.66108 8.64913 7.56712C8.50851 7.47315 8.3989 7.3396 8.33417 7.18334C8.26945 7.02708 8.25252 6.85514 8.28551 6.68926C8.31851 6.52337 8.39995 6.371 8.51955 6.25141C8.63914 6.13181 8.79152 6.05037 8.9574 6.01737C9.12328 5.98437 9.29522 6.00131 9.45148 6.06603C9.60774 6.13076 9.7413 6.24036 9.83526 6.38099C9.92923 6.52162 9.97938 6.68696 9.97938 6.85609C9.97938 7.08289 9.88928 7.3004 9.72891 7.46077C9.56854 7.62114 9.35103 7.71124 9.12423 7.71124Z" fill="black"/>
</svg>
