<svg width="40" height="40" viewBox="0 0 40 40" fill="none" xmlns="http://www.w3.org/2000/svg">
<path d="M20 34.6244C19.6622 34.6244 19.3294 34.5572 19.0017 34.4227C18.6739 34.2883 18.375 34.0894 18.105 33.8261L6.17167 21.8927C5.90944 21.6238 5.71111 21.3255 5.57667 20.9977C5.44222 20.6699 5.375 20.3372 5.375 19.9994C5.375 19.6616 5.44222 19.3272 5.57667 18.9961C5.71111 18.6649 5.91 18.3677 6.17333 18.1044L18.1067 6.17106C18.3756 5.90328 18.6739 5.70328 19.0017 5.57106C19.3294 5.43995 19.6622 5.37439 20 5.37439C20.3378 5.37439 20.6722 5.43995 21.0033 5.57106C21.3344 5.70328 21.6317 5.90328 21.895 6.17106L33.8283 18.1044C34.0961 18.3677 34.2961 18.6649 34.4283 18.9961C34.5594 19.3272 34.625 19.6616 34.625 19.9994C34.625 20.3372 34.5594 20.6699 34.4283 20.9977C34.2961 21.3255 34.0961 21.6244 33.8283 21.8944L21.895 33.8277C21.6317 34.0899 21.3344 34.2883 21.0033 34.4227C20.6722 34.5572 20.3378 34.6244 20 34.6244ZM20.7367 32.6377L32.6367 20.7377C32.8089 20.5655 32.895 20.3194 32.895 19.9994C32.895 19.6794 32.8094 19.4338 32.6383 19.2627L20.7383 7.36272C20.5661 7.1905 20.32 7.10439 20 7.10439C19.68 7.10439 19.4344 7.18994 19.2633 7.36106L7.36333 19.2611C7.19111 19.4333 7.105 19.6794 7.105 19.9994C7.105 20.3194 7.19056 20.5649 7.36167 20.7361L19.2617 32.6361C19.4339 32.8083 19.68 32.8944 20 32.8944C20.32 32.8944 20.5656 32.8088 20.7367 32.6377ZM19.1667 21.9544H20.8333V13.2377H19.1667V21.9544ZM20 25.6711C20.28 25.6711 20.5211 25.5711 20.7233 25.3711C20.9244 25.1677 21.025 24.9261 21.025 24.6461C21.025 24.3672 20.9244 24.1266 20.7233 23.9244C20.5211 23.7222 20.28 23.6211 20 23.6211C19.72 23.6211 19.4789 23.7222 19.2767 23.9244C19.0756 24.1266 18.975 24.3672 18.975 24.6461C18.975 24.9261 19.0756 25.1672 19.2767 25.3694C19.4789 25.5716 19.72 25.6727 20 25.6727" fill="white"/>
</svg>
