<svg width="40" height="40" viewBox="0 0 40 40" fill="none" xmlns="http://www.w3.org/2000/svg">
<path d="M13.3333 30.8334V28.3334H11.3467C10.9644 28.3334 10.6444 28.2045 10.3867 27.9467C10.1289 27.6889 10 27.3689 10 26.9867V13.0267C10 12.6312 10.1289 12.3056 10.3867 12.05C10.6444 11.7945 10.9644 11.6667 11.3467 11.6667H13.3333V9.16671C13.3333 8.93004 13.4133 8.73226 13.5733 8.57337C13.7333 8.41337 13.9311 8.33337 14.1667 8.33337C14.4022 8.33337 14.6 8.41337 14.76 8.57337C14.92 8.73337 15 8.93115 15 9.16671V11.6667H16.9867C17.3689 11.6667 17.6889 11.7956 17.9467 12.0534C18.2044 12.3112 18.3333 12.6312 18.3333 13.0134V26.9734C18.3333 27.3689 18.2044 27.6945 17.9467 27.95C17.6889 28.2056 17.3689 28.3334 16.9867 28.3334H15V30.8334C15 31.07 14.92 31.2678 14.76 31.4267C14.6 31.5856 14.4022 31.6656 14.1667 31.6667C13.9311 31.6667 13.7333 31.5867 13.5733 31.4267C13.4133 31.2678 13.3333 31.07 13.3333 30.8334ZM11.6667 26.6667H16.6667V13.3334H11.6667V26.6667ZM25 30.8334V23.975H23.0133C22.6311 23.975 22.3111 23.8456 22.0533 23.5867C21.7956 23.3289 21.6667 23.0095 21.6667 22.6284V16.025C21.6667 15.6439 21.7956 15.3245 22.0533 15.0667C22.3111 14.8089 22.6311 14.68 23.0133 14.68H25V9.16671C25 8.93004 25.08 8.73226 25.24 8.57337C25.4 8.41449 25.5978 8.33449 25.8333 8.33337C26.0689 8.33337 26.2667 8.41337 26.4267 8.57337C26.5856 8.73337 26.665 8.93115 26.665 9.16671V14.68H28.6517C29.0339 14.68 29.3539 14.8089 29.6117 15.0667C29.8694 15.3245 29.9983 15.6439 29.9983 16.025V22.6284C29.9983 23.0095 29.8694 23.3289 29.6117 23.5867C29.3539 23.8456 29.0339 23.975 28.6517 23.975H26.6667V30.8334C26.6667 31.07 26.5867 31.2678 26.4267 31.4267C26.2667 31.5867 26.0683 31.6667 25.8317 31.6667C25.5961 31.6667 25.3983 31.5867 25.2383 31.4267C25.0794 31.2678 25 31.07 25 30.8334ZM23.3333 22.3084H28.3333V16.3467H23.3333V22.3084Z" fill="white"/>
<path d="M2.5 30L4.98163 24.6231C5.24842 24.0451 5.98027 23.8602 6.48959 24.2422L7.5 25" stroke="white" stroke-width="1.5" stroke-linecap="round"/>
<path d="M28.5 26L30.5406 27.3604C31.047 27.698 31.7349 27.5088 31.9975 26.9598L37 16.5" stroke="white" stroke-width="1.5" stroke-linecap="round"/>
</svg>
