<svg width="40" height="40" viewBox="0 0 40 40" fill="none" xmlns="http://www.w3.org/2000/svg">
<path d="M11.6641 35V28.73C10.0807 27.2856 8.85184 25.6622 7.9774 23.86C7.10295 22.0578 6.66517 20.2078 6.66406 18.31C6.66406 14.6144 7.96017 11.4722 10.5524 8.88333C13.1457 6.29444 16.2941 5 19.9974 5C22.9996 5 25.713 5.91389 28.1374 7.74167C30.5607 9.56944 32.133 11.9306 32.8541 14.825L34.5807 21.6633C34.6918 22.0856 34.613 22.4694 34.3441 22.815C34.0752 23.1606 33.7163 23.3333 33.2674 23.3333H29.9974V28.975C29.9974 29.715 29.7335 30.3483 29.2057 30.875C28.6791 31.4028 28.0457 31.6667 27.3057 31.6667H23.3307V35H21.6641V30H27.3057C27.6046 30 27.8502 29.9039 28.0424 29.7117C28.2346 29.5194 28.3307 29.2739 28.3307 28.975V21.6667H32.8307L31.2474 15.2083C30.6085 12.6594 29.2363 10.5983 27.1307 9.025C25.0285 7.45278 22.6507 6.66667 19.9974 6.66667C16.7752 6.66667 14.0252 7.79444 11.7474 10.05C9.46962 12.3056 8.33073 15.05 8.33073 18.2833C8.33073 19.9433 8.67128 21.5211 9.3524 23.0167C10.0324 24.5111 10.9974 25.84 12.2474 27.0033L13.3307 28V35H11.6641ZM19.0674 24.295H20.9274L21.0491 22.7567C21.4846 22.6733 21.8996 22.5278 22.2941 22.32C22.6885 22.1133 23.0191 21.8444 23.2857 21.5133L24.6257 22.1867L25.5557 20.6033L24.3374 19.705C24.5207 19.2483 24.6124 18.7911 24.6124 18.3333C24.6124 17.8756 24.5207 17.4183 24.3374 16.9617L25.5541 16.0633L24.6257 14.48L23.2857 15.1533C23.0191 14.8222 22.6885 14.5533 22.2941 14.3467C21.8996 14.1389 21.4846 13.9933 21.0491 13.91L20.9274 12.3717H19.0674L18.9457 13.91C18.5102 13.9933 18.0952 14.1389 17.7007 14.3467C17.3063 14.5533 16.9757 14.8222 16.7091 15.1533L15.3691 14.48L14.4391 16.0633L15.6574 16.9617C15.4741 17.4183 15.3824 17.8756 15.3824 18.3333C15.3824 18.7911 15.4741 19.2483 15.6574 19.705L14.4407 20.6033L15.3691 22.1867L16.7091 21.5133C16.9757 21.8444 17.3063 22.1133 17.7007 22.32C18.0952 22.5278 18.5102 22.6733 18.9457 22.7567L19.0674 24.295ZM19.9974 21.4417C19.133 21.4417 18.3991 21.1394 17.7957 20.535C17.1924 19.9306 16.8907 19.1961 16.8907 18.3317C16.8907 17.4672 17.193 16.7333 17.7974 16.13C18.4018 15.5267 19.1363 15.225 20.0007 15.225C20.8652 15.225 21.5991 15.5272 22.2024 16.1317C22.8057 16.7361 23.1074 17.4706 23.1074 18.335C23.1074 19.1994 22.8052 19.9333 22.2007 20.5367C21.5963 21.14 20.8618 21.4417 19.9974 21.4417Z" fill="white"/>
</svg>
