<svg width="40" height="40" viewBox="0 0 40 40" fill="none" xmlns="http://www.w3.org/2000/svg">
<path d="M10.6257 23.75C9.51318 23.75 8.42564 24.0799 7.50061 24.698C6.57559 25.3161 5.85462 26.1946 5.42887 27.2224C5.00313 28.2502 4.89174 29.3812 5.10878 30.4724C5.32582 31.5635 5.86155 32.5658 6.64822 33.3525C7.43489 34.1391 8.43717 34.6749 9.52831 34.8919C10.6195 35.109 11.7505 34.9976 12.7783 34.5718C13.8061 34.1461 14.6846 33.4251 15.3027 32.5001C15.9208 31.5751 16.2507 30.4875 16.2507 29.375C16.2507 27.8832 15.6581 26.4524 14.6032 25.3975C13.5483 24.3426 12.1175 23.75 10.6257 23.75ZM10.6257 32.5C10.0076 32.5 9.40344 32.3167 8.88954 31.9733C8.37563 31.63 7.9751 31.1419 7.73857 30.5709C7.50205 29.9999 7.44016 29.3715 7.56074 28.7653C7.68132 28.1592 7.97895 27.6023 8.41599 27.1653C8.85303 26.7283 9.40985 26.4306 10.016 26.31C10.6222 26.1895 11.2506 26.2514 11.8216 26.4879C12.3926 26.7244 12.8807 27.1249 13.224 27.6388C13.5674 28.1527 13.7507 28.7569 13.7507 29.375C13.7507 30.2038 13.4215 30.9987 12.8354 31.5847C12.2494 32.1708 11.4545 32.5 10.6257 32.5ZM5.36632 16.6156L7.60851 14.375L5.36632 12.1344C5.13177 11.8998 5 11.5817 5 11.25C5 10.9183 5.13177 10.6002 5.36632 10.3656C5.60087 10.1311 5.91899 9.99931 6.25069 9.9993C6.5824 9.9993 6.90052 10.1311 7.13507 10.3656L9.3757 12.6078L11.6163 10.3656C11.8509 10.1311 12.169 9.9993 12.5007 9.9993C12.8324 9.99931 13.1505 10.1311 13.3851 10.3656C13.6196 10.6002 13.7514 10.9183 13.7514 11.25C13.7514 11.5817 13.6196 11.8998 13.3851 12.1344L11.1429 14.375L13.3851 16.6156C13.6196 16.8502 13.7514 17.1683 13.7514 17.5C13.7514 17.8317 13.6196 18.1498 13.3851 18.3844C13.1505 18.6189 12.8324 18.7507 12.5007 18.7507C12.169 18.7507 11.8509 18.6189 11.6163 18.3844L9.3757 16.1422L7.13507 18.3844C6.90052 18.6189 6.5824 18.7507 6.25069 18.7507C5.91899 18.7507 5.60087 18.6189 5.36632 18.3844C5.13177 18.1498 5 17.8317 5 17.5C5 17.1683 5.13177 16.8502 5.36632 16.6156ZM34.6351 31.6156C34.7512 31.7318 34.8433 31.8696 34.9062 32.0214C34.969 32.1731 35.0014 32.3358 35.0014 32.5C35.0014 32.6642 34.969 32.8269 34.9062 32.9786C34.8433 33.1304 34.7512 33.2682 34.6351 33.3844C34.5189 33.5005 34.3811 33.5926 34.2293 33.6555C34.0776 33.7183 33.9149 33.7507 33.7507 33.7507C33.5865 33.7507 33.4238 33.7183 33.2721 33.6555C33.1203 33.5926 32.9825 33.5005 32.8663 33.3844L30.6257 31.1422L28.3851 33.3844C28.1505 33.6189 27.8324 33.7507 27.5007 33.7507C27.169 33.7507 26.8509 33.6189 26.6163 33.3844C26.3818 33.1498 26.25 32.8317 26.25 32.5C26.25 32.1683 26.3818 31.8502 26.6163 31.6156L28.8585 29.375L26.6163 27.1344C26.3818 26.8998 26.25 26.5817 26.25 26.25C26.25 25.9183 26.3818 25.6002 26.6163 25.3656C26.8509 25.1311 27.169 24.9993 27.5007 24.9993C27.8324 24.9993 28.1505 25.1311 28.3851 25.3656L30.6257 27.6078L32.8663 25.3656C33.1009 25.1311 33.419 24.9993 33.7507 24.9993C34.0824 24.9993 34.4005 25.1311 34.6351 25.3656C34.8696 25.6002 35.0014 25.9183 35.0014 26.25C35.0014 26.5817 34.8696 26.8998 34.6351 27.1344L32.3929 29.375L34.6351 31.6156ZM27.5741 17.6297C26.6085 21.1187 23.6179 24.1344 20.3038 24.9625C20.2016 24.9879 20.0966 25.0005 19.9913 25C19.6865 24.9994 19.3924 24.8875 19.1643 24.6853C18.9363 24.4831 18.79 24.2045 18.7529 23.9019C18.7158 23.5994 18.7906 23.2937 18.9632 23.0425C19.1357 22.7912 19.3941 22.6116 19.6898 22.5375C22.1319 21.9266 24.4319 19.5828 25.1585 16.9625C25.6569 15.1656 25.6616 12.4313 22.8601 9.63438L22.5007 9.26719V12.5C22.5007 12.8315 22.369 13.1495 22.1346 13.3839C21.9002 13.6183 21.5822 13.75 21.2507 13.75C20.9192 13.75 20.6012 13.6183 20.3668 13.3839C20.1324 13.1495 20.0007 12.8315 20.0007 12.5V6.25C20.0007 5.91848 20.1324 5.60054 20.3668 5.36612C20.6012 5.1317 20.9192 5 21.2507 5H27.5007C27.8322 5 28.1502 5.1317 28.3846 5.36612C28.619 5.60054 28.7507 5.91848 28.7507 6.25C28.7507 6.58152 28.619 6.89946 28.3846 7.13388C28.1502 7.3683 27.8322 7.5 27.5007 7.5H24.2679L24.6351 7.86562C27.4851 10.7172 28.5288 14.1844 27.5741 17.6297Z" fill="white"/>
</svg>
