<svg width="40" height="40" viewBox="0 0 40 40" fill="none" xmlns="http://www.w3.org/2000/svg">
<path d="M8.33333 26.6667V23.3333M20 35V31.6667M31.6667 21.6667V18.3333M8.33333 13.3333V10M20 21.6667V18.3333M31.6667 8.33333V5M11.6667 14.3333V22.3333C11.6667 22.5985 11.5613 22.8529 11.3738 23.0404C11.1862 23.228 10.9319 23.3333 10.6667 23.3333H6C5.73478 23.3333 5.48043 23.228 5.29289 23.0404C5.10536 22.8529 5 22.5985 5 22.3333V14.3333C5 14.0681 5.10536 13.8138 5.29289 13.6262C5.48043 13.4387 5.73478 13.3333 6 13.3333H10.6667C10.9319 13.3333 11.1862 13.4387 11.3738 13.6262C11.5613 13.8138 11.6667 14.0681 11.6667 14.3333ZM23.3333 22.6667V30.6667C23.3333 30.9319 23.228 31.1862 23.0404 31.3738C22.8529 31.5613 22.5985 31.6667 22.3333 31.6667H17.6667C17.4015 31.6667 17.1471 31.5613 16.9596 31.3738C16.772 31.1862 16.6667 30.9319 16.6667 30.6667V22.6667C16.6667 22.4015 16.772 22.1471 16.9596 21.9596C17.1471 21.772 17.4015 21.6667 17.6667 21.6667H22.3333C22.5985 21.6667 22.8529 21.772 23.0404 21.9596C23.228 22.1471 23.3333 22.4015 23.3333 22.6667ZM35 9.33333V17.3333C35 17.5985 34.8946 17.8529 34.7071 18.0404C34.5196 18.228 34.2652 18.3333 34 18.3333H29.3333C29.202 18.3333 29.072 18.3075 28.9506 18.2572C28.8293 18.207 28.7191 18.1333 28.6262 18.0404C28.5334 17.9476 28.4597 17.8373 28.4095 17.716C28.3592 17.5947 28.3333 17.4647 28.3333 17.3333V9.33333C28.3333 9.20201 28.3592 9.07198 28.4095 8.95065C28.4597 8.82932 28.5334 8.71909 28.6262 8.62623C28.7191 8.53337 28.8293 8.45971 28.9506 8.40945C29.072 8.3592 29.202 8.33333 29.3333 8.33333H34C34.2652 8.33333 34.5196 8.43869 34.7071 8.62623C34.8946 8.81376 35 9.06812 35 9.33333Z" stroke="white" stroke-width="2.5" stroke-linecap="round" stroke-linejoin="round"/>
</svg>
