<svg width="40" height="40" viewBox="0 0 40 40" fill="none" xmlns="http://www.w3.org/2000/svg">
<path d="M25.985 30L30.315 37.5H27.43L23.1 30H16.915L12.585 37.5H9.7L14.03 30H6.25C5.91848 30 5.60054 29.8683 5.36612 29.6339C5.1317 29.3995 5 29.0815 5 28.75V7.5H2.5C2.16848 7.5 1.85054 7.3683 1.61612 7.13388C1.3817 6.89946 1.25 6.58152 1.25 6.25C1.25 5.91848 1.3817 5.60054 1.61612 5.36612C1.85054 5.1317 2.16848 5 2.5 5H37.5C37.8315 5 38.1495 5.1317 38.3839 5.36612C38.6183 5.60054 38.75 5.91848 38.75 6.25C38.75 6.58152 38.6183 6.89946 38.3839 7.13388C38.1495 7.3683 37.8315 7.5 37.5 7.5H35V28.75C35 29.0815 34.8683 29.3995 34.6339 29.6339C34.3995 29.8683 34.0815 30 33.75 30H25.985ZM32.5 7.5H7.5V27.5H32.5V7.5ZM13.75 17.5C14.0815 17.5 14.3995 17.6317 14.6339 17.8661C14.8683 18.1005 15 18.4185 15 18.75V21.25C15 21.5815 14.8683 21.8995 14.6339 22.1339C14.3995 22.3683 14.0815 22.5 13.75 22.5C13.4185 22.5 13.1005 22.3683 12.8661 22.1339C12.6317 21.8995 12.5 21.5815 12.5 21.25V18.75C12.5 18.4185 12.6317 18.1005 12.8661 17.8661C13.1005 17.6317 13.4185 17.5 13.75 17.5ZM20 15C20.3315 15 20.6495 15.1317 20.8839 15.3661C21.1183 15.6005 21.25 15.9185 21.25 16.25V21.25C21.25 21.5815 21.1183 21.8995 20.8839 22.1339C20.6495 22.3683 20.3315 22.5 20 22.5C19.6685 22.5 19.3505 22.3683 19.1161 22.1339C18.8817 21.8995 18.75 21.5815 18.75 21.25V16.25C18.75 15.9185 18.8817 15.6005 19.1161 15.3661C19.3505 15.1317 19.6685 15 20 15ZM26.25 12.5C26.5815 12.5 26.8995 12.6317 27.1339 12.8661C27.3683 13.1005 27.5 13.4185 27.5 13.75V21.25C27.5 21.5815 27.3683 21.8995 27.1339 22.1339C26.8995 22.3683 26.5815 22.5 26.25 22.5C25.9185 22.5 25.6005 22.3683 25.3661 22.1339C25.1317 21.8995 25 21.5815 25 21.25V13.75C25 13.4185 25.1317 13.1005 25.3661 12.8661C25.6005 12.6317 25.9185 12.5 26.25 12.5Z" fill="white"/>
</svg>
