<svg width="40" height="40" viewBox="0 0 40 40" fill="none" xmlns="http://www.w3.org/2000/svg">
<path d="M24 11C23.4696 11 22.9609 11.2107 22.5858 11.5858C22.2107 11.9609 22 12.4696 22 13C22 13.5304 22.2107 14.0391 22.5858 14.4142C22.9609 14.7893 23.4696 15 24 15C24.5304 15 25.0391 14.7893 25.4142 14.4142C25.7893 14.0391 26 13.5304 26 13C26 12.4696 25.7893 11.9609 25.4142 11.5858C25.0391 11.2107 24.5304 11 24 11ZM14 13C14 12.4696 14.2107 11.9609 14.5858 11.5858C14.9609 11.2107 15.4696 11 16 11C16.5304 11 17.0391 11.2107 17.4142 11.5858C17.7893 11.9609 18 12.4696 18 13C18 13.5304 17.7893 14.0391 17.4142 14.4142C17.0391 14.7893 16.5304 15 16 15C15.4696 15 14.9609 14.7893 14.5858 14.4142C14.2107 14.0391 14 13.5304 14 13ZM21 5C21 4.73478 20.8946 4.48043 20.7071 4.29289C20.5196 4.10536 20.2652 4 20 4C19.7348 4 19.4804 4.10536 19.2929 4.29289C19.1054 4.48043 19 4.73478 19 5V6H13C12.2044 6 11.4413 6.31607 10.8787 6.87868C10.3161 7.44129 10 8.20435 10 9V17C10 17.7956 10.3161 18.5587 10.8787 19.1213C11.4413 19.6839 12.2044 20 13 20H27C27.7956 20 28.5587 19.6839 29.1213 19.1213C29.6839 18.5587 30 17.7956 30 17V9C30 8.20435 29.6839 7.44129 29.1213 6.87868C28.5587 6.31607 27.7956 6 27 6H21V5ZM13 8H27C27.2652 8 27.5196 8.10536 27.7071 8.29289C27.8946 8.48043 28 8.73478 28 9V17C28 17.2652 27.8946 17.5196 27.7071 17.7071C27.5196 17.8946 27.2652 18 27 18H13C12.7348 18 12.4804 17.8946 12.2929 17.7071C12.1054 17.5196 12 17.2652 12 17V9C12 8.73478 12.1054 8.48043 12.2929 8.29289C12.4804 8.10536 12.7348 8 13 8ZM20.5 35.996C25.732 35.93 28.89 34.806 30.744 33.116C32.494 31.516 32.922 29.562 32.99 28.004H33V26.624C32.9995 25.6643 32.6178 24.744 31.939 24.0656C31.2602 23.3871 30.3397 23.006 29.38 23.006H23V23H17V23.006H10.62C8.62 23.006 7 24.626 7 26.626V28.004H7.01C7.078 29.564 7.506 31.518 9.256 33.114C11.11 34.806 14.268 35.93 19.5 35.996V36H20.5V35.996ZM10.62 25.006H29.38C29.8097 25.006 30.2217 25.1767 30.5255 25.4805C30.8293 25.7843 31 26.1963 31 26.626V27.5C31 28.88 30.738 30.412 29.396 31.638C28.02 32.892 25.32 34 20 34C14.68 34 11.98 32.892 10.604 31.638C9.264 30.412 9 28.878 9 27.5V26.624C9.00053 26.1947 9.17144 25.7832 9.47519 25.4798C9.77895 25.1764 10.1907 25.006 10.62 25.006Z" fill="white"/>
</svg>
