<svg width="117" height="32" viewBox="0 0 117 32" fill="none" xmlns="http://www.w3.org/2000/svg">
<path d="M3.05589 24.0099C7.54192 26.673 12.0279 29.337 16.514 32C20.9981 29.332 25.4822 26.663 29.9653 23.995C29.9769 18.6899 29.9884 13.3837 30 8.07858C29.0479 7.46082 28.0948 6.84307 27.1426 6.22531C26.9277 12.0836 22.2509 16.7799 16.6335 16.8525C10.9284 16.9261 6.09348 12.2059 5.85834 6.25615C4.90524 6.88087 3.9531 7.50559 3 8.13031C3.01831 13.4235 3.03662 18.7177 3.05493 24.0109L3.05589 24.0099ZM6.00385 14.9197C6.55124 15.5762 10.2779 19.8965 16.5024 19.9562C22.6691 20.0149 26.4536 15.6449 27.0231 14.9953C27.0463 17.4195 27.0703 19.9423 27.0935 22.3666C24.0626 24.0796 21.0328 25.8921 18.0019 27.6061V21.8811H15.0125V27.609C12.0096 25.8622 9.00675 24.1144 6.00385 22.3676V14.9207V14.9197Z" fill="white"/>
<path d="M17.9914 4.33226V14.8291H15.0752C15.08 11.2818 15.0839 7.73439 15.0887 4.18702C12.7498 5.61452 10.4109 7.04203 8.07199 8.46953V4.97289C10.8147 3.31559 13.5583 1.65829 16.301 0C19.2692 1.74583 22.2384 3.49167 25.2066 5.2375V8.46755C22.8012 7.08978 20.3958 5.71201 17.9904 4.33325L17.9914 4.33226Z" fill="white"/>
<path d="M104.239 24.6223V10.566H96.117V7.33121H116.806V10.566H108.684V24.6223H104.239Z" fill="white"/>
<path d="M66.9653 24.6223V7.33121H72.2247L80.0674 18.2457L80.2768 18.5948L80.4863 18.2457L88.3056 7.33121H93.5884V24.6223H89.3761V12.4743L89.3994 12.1718L89.2598 12.4045L82.1851 21.946H78.3685L71.2938 12.4045L71.1542 12.1718L71.1775 12.4743V24.6223H66.9653Z" fill="white"/>
<path d="M52.1014 25.0412C44.8406 25.0412 40 21.8529 40 16.1047V15.9884C40 10.1937 44.794 6.95886 52.1014 6.95886C58.2219 6.95886 63.3185 9.86785 63.5977 13.8008V13.8706H59.2226V13.8008C58.7804 11.7063 55.6155 10.0773 52.0781 10.0773C47.5866 10.0773 44.4915 12.1252 44.4915 15.9651V16.0815C44.4915 19.7817 47.6099 21.8529 52.1014 21.8529C55.2897 21.8529 58.6641 20.6195 59.4321 18.1294L59.4553 18.0828H50.9611V15.4531H63.5977V15.9186C63.5977 21.9925 58.6175 25.0412 52.1014 25.0412Z" fill="white"/>
</svg>
