<svg width="66" height="81" viewBox="0 0 66 81" fill="none" xmlns="http://www.w3.org/2000/svg">
<path d="M35.4081 78.435C34.1023 79.825 31.8946 79.825 30.5888 78.435L11.8309 58.4678C9.84808 56.3571 11.3446 52.898 14.2405 52.898L51.7564 52.898C54.6523 52.898 56.1488 56.3571 54.166 58.4678L35.4081 78.435Z" fill="#20283D"/>
<rect width="66" height="66.1225" rx="33" fill="#20283D"/>
<path d="M13.2792 45.1983C19.8587 49.1113 26.4383 53.0257 33.0178 56.9387C39.5944 53.0184 46.1711 49.0966 52.7464 45.1763C52.7633 37.381 52.7803 29.5842 52.7973 21.7889C51.4008 20.8812 50.0029 19.9735 48.6064 19.0657C48.2913 27.6738 41.4319 34.5745 33.193 34.6812C24.8255 34.7894 17.7344 27.8536 17.3895 19.111C15.9916 20.029 14.5951 20.947 13.1973 21.8649C13.2241 29.6427 13.251 37.4219 13.2778 45.1997L13.2792 45.1983ZM17.6029 31.8411C18.4057 32.8058 23.8715 39.1541 33.0008 39.2418C42.0453 39.328 47.5958 32.9067 48.4312 31.9522C48.4651 35.5144 48.5004 39.2213 48.5344 42.7835C44.0891 45.3006 39.6453 47.9638 35.2001 50.4823V42.0702H30.8156V50.4867C26.4114 47.92 22.0072 45.3517 17.6029 42.785V31.8426V31.8411Z" fill="#3345E4"/>
<path d="M35.1832 16.2842V31.7082H30.9061C30.9132 26.4957 30.9189 21.2832 30.9259 16.0707C27.4955 18.1683 24.0652 20.2659 20.6348 22.3634V17.2255C24.6574 14.7903 28.6814 12.3551 32.704 9.9184C37.0574 12.4837 41.4122 15.049 45.7655 17.6143V22.3605C42.2376 20.336 38.7097 18.3116 35.1818 16.2856L35.1832 16.2842Z" fill="#3345E4"/>
</svg>
