<svg width="48" height="48" viewBox="0 0 48 48" fill="none" xmlns="http://www.w3.org/2000/svg">
<path d="M30.9 7.5606C30.82 8.0606 30.78 8.5606 30.78 9.0606C30.78 13.5606 34.42 17.1986 38.9 17.1986C39.4 17.1986 39.88 17.1406 40.38 17.0606V33.1986C40.38 39.9806 36.38 44.0006 29.58 44.0006H14.802C8 44.0006 4 39.9806 4 33.1986V18.4006C4 11.6006 8 7.5606 14.802 7.5606H30.9ZM31.302 19.7206C30.76 19.6606 30.222 19.9006 29.9 20.3406L25.062 26.6006L19.52 22.2406C19.18 21.9806 18.78 21.8786 18.38 21.9206C17.982 21.9806 17.622 22.1986 17.38 22.5186L11.462 30.2206L11.34 30.4006C11 31.0386 11.16 31.8586 11.76 32.3006C12.04 32.4806 12.34 32.6006 12.68 32.6006C13.142 32.6206 13.58 32.3786 13.86 32.0006L18.88 25.5386L24.58 29.8206L24.76 29.9386C25.4 30.2786 26.2 30.1206 26.66 29.5186L32.44 22.0606L32.36 22.1006C32.68 21.6606 32.74 21.1006 32.52 20.6006C32.302 20.1006 31.82 19.7606 31.302 19.7206ZM39.1802 4C41.8402 4 44.0002 6.16 44.0002 8.82C44.0002 11.48 41.8402 13.64 39.1802 13.64C36.5202 13.64 34.3602 11.48 34.3602 8.82C34.3602 6.16 36.5202 4 39.1802 4Z" fill="white"/>
</svg>
