<svg width="48" height="48" viewBox="0 0 48 48" fill="none" xmlns="http://www.w3.org/2000/svg">
<path d="M13.7143 41.6333C17.7721 41.6333 21.0617 38.3438 21.0617 34.2859C21.0617 30.228 17.7721 26.9385 13.7143 26.9385C9.65638 26.9385 6.36682 30.228 6.36682 34.2859C6.36682 38.3438 9.65638 41.6333 13.7143 41.6333Z" fill="#FFE100"/>
<path d="M13.7143 24C11.68 24 9.69135 24.6032 7.99987 25.7335C6.30839 26.8637 4.99005 28.4701 4.21155 30.3495C3.43305 32.229 3.22935 34.2971 3.62623 36.2924C4.02311 38.2876 5.00273 40.1203 6.44121 41.5588C7.87969 42.9973 9.71243 43.9769 11.7077 44.3738C13.7029 44.7707 15.771 44.567 17.6505 43.7885C19.5299 43.01 21.1364 41.6916 22.2666 40.0002C23.3968 38.3087 24 36.32 24 34.2857C24 31.5578 22.9164 28.9416 20.9874 27.0126C19.0585 25.0837 16.4422 24 13.7143 24ZM13.7143 41.6331C12.2611 41.6331 10.8406 41.2022 9.6323 40.3949C8.42402 39.5875 7.48228 38.44 6.92617 37.0975C6.37006 35.7549 6.22456 34.2776 6.50806 32.8523C6.79156 31.427 7.49134 30.1179 8.51889 29.0903C9.54645 28.0627 10.8556 27.363 12.2809 27.0795C13.7062 26.796 15.1835 26.9415 16.526 27.4976C17.8686 28.0537 19.0161 28.9954 19.8235 30.2037C20.6308 31.412 21.0617 32.8325 21.0617 34.2857C21.0617 35.2506 20.8717 36.206 20.5024 37.0975C20.1332 37.9889 19.592 38.7989 18.9097 39.4811C18.2275 40.1634 17.4175 40.7046 16.526 41.0739C15.6346 41.4431 14.6792 41.6331 13.7143 41.6331Z" fill="#99C754"/>
<path d="M18.9086 29.0914L20.988 27.012C20.0336 26.0558 18.8998 25.2975 17.6516 24.7806C16.4033 24.2637 15.0653 23.9984 13.7143 24V26.9383C14.6793 26.9371 15.635 27.1267 16.5264 27.4962C17.4179 27.8657 18.2275 28.4079 18.9086 29.0914ZM8.52002 29.0914L6.4406 27.012C5.48438 27.9664 4.72606 29.1003 4.20918 30.3485C3.6923 31.5967 3.42703 32.9347 3.4286 34.2857H6.36688C6.36568 33.3207 6.55529 32.365 6.92481 31.4736C7.29433 30.5822 7.83647 29.7726 8.52002 29.0914ZM8.52002 39.48L6.4406 41.5594C7.39499 42.5157 8.52884 43.274 9.77706 43.7908C11.0253 44.3077 12.3633 44.573 13.7143 44.5714V41.6332C12.7493 41.6343 11.7936 41.4447 10.9022 41.0752C10.0107 40.7057 9.20117 40.1636 8.52002 39.48ZM21.0617 34.2857C21.0629 35.2507 20.8733 36.2064 20.5038 37.0979C20.1343 37.9893 19.5922 38.7989 18.9086 39.48L20.988 41.5594C21.9442 40.605 22.7026 39.4712 23.2194 38.223C23.7363 36.9747 24.0016 35.6367 24 34.2857H21.0617Z" fill="#C4F27E"/>
<path d="M37.7144 17.1431H44.5715V44.5716H37.7144V17.1431Z" fill="#FF9225"/>
<path d="M37.7144 20.707H44.5715V24.6276H37.7144V20.707ZM37.7144 28.5482H44.5715V32.4687H37.7144V28.5482ZM37.7144 36.3876H44.5715V40.3082H37.7144V36.3876Z" fill="#FFE100"/>
<path d="M27.4286 24.6343H34.2857V44.2286H27.4286V24.6343Z" fill="#FF9225"/>
<path d="M27.4286 28.1982H34.2857V32.1188H27.4286V28.1982ZM27.4286 36.0394H34.2857V39.96H27.4286V36.0394Z" fill="#FFE100"/>
<path d="M18.3892 11.6571C19.336 11.6571 20.1035 10.8896 20.1035 9.9428C20.1035 8.99603 19.336 8.22852 18.3892 8.22852C17.4424 8.22852 16.6749 8.99603 16.6749 9.9428C16.6749 10.8896 17.4424 11.6571 18.3892 11.6571Z" fill="#A6E4FF"/>
<path d="M7.16912 17.8011C8.11589 17.8011 8.88341 17.0336 8.88341 16.0868C8.88341 15.1401 8.11589 14.3726 7.16912 14.3726C6.22235 14.3726 5.45483 15.1401 5.45483 16.0868C5.45483 17.0336 6.22235 17.8011 7.16912 17.8011Z" fill="#A6E4FF"/>
<path d="M29.1429 15.0858C30.0896 15.0858 30.8572 14.3183 30.8572 13.3715C30.8572 12.4247 30.0896 11.6572 29.1429 11.6572C28.1961 11.6572 27.4286 12.4247 27.4286 13.3715C27.4286 14.3183 28.1961 15.0858 29.1429 15.0858Z" fill="#A6E4FF"/>
<path d="M13.7143 32.1018C13.8767 32.1018 14.0323 32.1663 14.1471 32.281C14.2619 32.3958 14.3263 32.5515 14.3263 32.7138H16.0406C16.0398 32.2484 15.8993 31.7939 15.6374 31.4091C15.3755 31.0244 15.0042 30.727 14.5715 30.5555V29.6572H12.8572V30.5607C12.3576 30.7617 11.9434 31.1301 11.6854 31.6029C11.4275 32.0756 11.3418 32.6233 11.443 33.1523C11.5443 33.6812 11.8262 34.1585 12.2405 34.5026C12.6548 34.8466 13.1758 35.036 13.7143 35.0384C13.8358 35.038 13.9546 35.0737 14.0558 35.141C14.1569 35.2082 14.2359 35.3039 14.2826 35.416C14.3293 35.5281 14.3417 35.6516 14.3182 35.7708C14.2947 35.8899 14.2364 35.9994 14.1506 36.0854C14.0649 36.1714 13.9555 36.2301 13.8364 36.2539C13.7173 36.2777 13.5938 36.2656 13.4816 36.2192C13.3694 36.1728 13.2734 36.0942 13.2059 35.9932C13.1384 35.8923 13.1023 35.7735 13.1023 35.6521H11.3881C11.3892 36.1175 11.5297 36.5718 11.7916 36.9566C12.0535 37.3413 12.4246 37.6387 12.8572 37.8104V38.7138H14.5715V37.8104C15.0748 37.6114 15.4929 37.243 15.7537 36.7687C16.0145 36.2944 16.1016 35.744 16 35.2124C15.8984 34.6808 15.6145 34.2013 15.1973 33.8566C14.78 33.5119 14.2556 33.3235 13.7143 33.3241C13.6314 33.3285 13.5484 33.3159 13.4704 33.2872C13.3924 33.2585 13.3211 33.2142 13.2608 33.157C13.2005 33.0998 13.1525 33.0309 13.1197 32.9546C13.0869 32.8783 13.07 32.796 13.07 32.7129C13.07 32.6298 13.0869 32.5476 13.1197 32.4713C13.1525 32.3949 13.2005 32.3261 13.2608 32.2689C13.3211 32.2117 13.3924 32.1674 13.4704 32.1387C13.5484 32.11 13.6314 32.0974 13.7143 32.1018Z" fill="#1E1F1F"/>
<path d="M13.7143 23.0384C11.5105 23.0384 9.35609 23.6919 7.52366 24.9163C5.69123 26.1407 4.26302 27.881 3.41964 29.9171C2.57626 31.9531 2.3556 34.1936 2.78555 36.3551C3.2155 38.5166 4.27675 40.5021 5.83511 42.0604C7.39347 43.6188 9.37893 44.68 11.5404 45.11C13.7019 45.5399 15.9424 45.3193 17.9785 44.4759C20.0146 43.6325 21.7549 42.2043 22.9792 40.3719C24.2036 38.5394 24.8572 36.3851 24.8572 34.1812C24.8535 31.2271 23.6784 28.395 21.5895 26.3061C19.5006 24.2172 16.6685 23.042 13.7143 23.0384ZM13.7143 40.6732C12.4307 40.6732 11.176 40.2926 10.1087 39.5795C9.04138 38.8665 8.20951 37.8529 7.71822 36.6671C7.22694 35.4812 7.09831 34.1763 7.3486 32.9174C7.59889 31.6584 8.21686 30.502 9.12437 29.5942C10.0319 28.6865 11.1882 28.0682 12.4471 27.8176C13.7059 27.567 15.0109 27.6952 16.1968 28.1862C17.3828 28.6772 18.3966 29.5088 19.1099 30.5759C19.8233 31.643 20.2042 32.8977 20.2046 34.1812C20.2028 35.9022 19.5184 37.5521 18.3017 38.7692C17.085 39.9862 15.4352 40.671 13.7143 40.6732ZM18.8572 27.835C17.6317 26.8384 16.1424 26.2207 14.5714 26.0572V24.7904C16.4737 24.9616 18.2782 25.7099 19.7434 26.935L18.8572 27.835ZM12.8572 26.0572C11.2896 26.2202 9.80336 26.8362 8.58001 27.8298L7.68516 26.935C9.15126 25.7124 10.9557 24.9665 12.8572 24.7972V26.0572ZM7.37144 29.0487C6.37864 30.2717 5.76332 31.7573 5.60058 33.3241H4.33201C4.50447 31.4227 5.25259 29.6191 6.47659 28.1538L7.37144 29.0487ZM5.59716 35.0384C5.75824 36.6087 6.37363 38.0981 7.36801 39.3241L6.47316 40.219C5.24918 38.7524 4.50111 36.9477 4.32859 35.0452L5.59716 35.0384ZM8.58001 40.5241C9.80584 41.5188 11.2953 42.1343 12.8657 42.295V43.5618C10.9639 43.3904 9.15954 42.6428 7.69373 41.419L8.58001 40.5241ZM14.58 42.295C16.1469 42.1341 17.6331 41.5206 18.8572 40.5292L19.752 41.4241C18.2839 42.6496 16.4763 43.3972 14.5714 43.567L14.58 42.295ZM20.0657 39.3121C21.0601 38.0861 21.6755 36.5967 21.8366 35.0264H23.1052C22.9326 36.9288 22.1846 38.7335 20.9606 40.2001L20.0657 39.3121ZM21.8366 33.3121C21.6755 31.7417 21.0601 30.2524 20.0657 29.0264L20.9606 28.1332C22.1846 29.5985 22.9327 31.4021 23.1052 33.3035L21.8366 33.3121ZM34.2857 23.7704H27.4286C27.2013 23.7704 26.9832 23.8607 26.8225 24.0214C26.6618 24.1822 26.5714 24.4002 26.5714 24.6275V44.2287C26.5714 44.456 26.6618 44.674 26.8225 44.8348C26.9832 44.9955 27.2013 45.0858 27.4286 45.0858H34.2857C34.5131 45.0858 34.7311 44.9955 34.8918 44.8348C35.0526 44.674 35.1429 44.456 35.1429 44.2287V24.6275C35.1429 24.4002 35.0526 24.1822 34.8918 24.0214C34.7311 23.8607 34.5131 23.7704 34.2857 23.7704ZM33.4286 31.6098H28.2857V29.4052H33.4286V31.6098ZM33.4286 35.5321H28.2857V33.3241H33.4286V35.5321ZM28.2857 37.2464H33.4286V39.451H28.2857V37.2464ZM28.2857 25.4847H33.4286V27.691H28.2857V25.4847ZM33.4286 43.3715H28.2857V41.1652H33.4286V43.3715ZM44.5714 15.9292H37.7143C37.487 15.9292 37.269 16.0195 37.1082 16.1803C36.9475 16.341 36.8572 16.5591 36.8572 16.7864V44.2287C36.8572 44.456 36.9475 44.674 37.1082 44.8348C37.269 44.9955 37.487 45.0858 37.7143 45.0858H44.5714C44.7988 45.0858 45.0168 44.9955 45.1775 44.8348C45.3383 44.674 45.4286 44.456 45.4286 44.2287V16.7864C45.4286 16.5591 45.3383 16.341 45.1775 16.1803C45.0168 16.0195 44.7988 15.9292 44.5714 15.9292ZM43.7143 23.7704H38.5714V21.5658H43.7143V23.7704ZM43.7143 27.691H38.5714V25.4847H43.7143V27.691ZM43.7143 31.6098H38.5714V29.4052H43.7143V31.6098ZM43.7143 35.5321H38.5714V33.3241H43.7143V35.5321ZM38.5714 37.2464H43.7143V39.451H38.5714V37.2464ZM38.5714 17.6435H43.7143V19.8515H38.5714V17.6435ZM43.7143 43.3715H38.5714V41.1652H43.7143V43.3715ZM3.16116 19.6972L5.63316 18.1355C6.07702 18.4717 6.61921 18.6524 7.17601 18.6498C7.56274 18.6529 7.94512 18.5681 8.29423 18.4017C8.64334 18.2353 8.95005 17.9917 9.19116 17.6894C9.43227 17.387 9.60147 17.0337 9.68596 16.6563C9.77046 16.2789 9.76803 15.8873 9.67887 15.511L16.2514 11.3692C16.4865 11.7203 16.8044 12.0081 17.1771 12.2071C17.5498 12.4061 17.9658 12.5103 18.3883 12.5103C18.8108 12.5103 19.2268 12.4061 19.5995 12.2071C19.9722 12.0081 20.2901 11.7203 20.5252 11.3692L26.5852 13.5018C26.5917 13.8723 26.6782 14.2371 26.8387 14.5711C26.9993 14.905 27.2302 15.2004 27.5156 15.4368C27.8009 15.6732 28.134 15.8452 28.492 15.9409C28.85 16.0367 29.2245 16.0539 29.5898 15.9914C29.955 15.9289 30.3025 15.7882 30.6083 15.5789C30.9142 15.3697 31.1712 15.0967 31.3617 14.7789C31.5522 14.4611 31.6718 14.1058 31.7123 13.7374C31.7527 13.369 31.7131 12.9963 31.596 12.6447L41.5097 6.62581L40.548 10.4092L42.2092 10.831L43.6869 5.01609C43.743 4.79581 43.7094 4.56225 43.5933 4.36678C43.4772 4.17132 43.2883 4.02996 43.068 3.97381L37.2532 2.49609L36.8314 4.15724L40.6663 5.13267L30.588 11.2458C30.0378 10.8698 29.3626 10.7235 28.7061 10.8382C28.0496 10.9528 27.4639 11.3193 27.0737 11.8595L20.9366 9.69952C20.879 9.07296 20.5925 8.48962 20.1318 8.06103C19.6712 7.63244 19.0687 7.38869 18.4396 7.37638C17.8106 7.36407 17.199 7.58408 16.7219 7.99433C16.2449 8.40457 15.9358 8.97627 15.8537 9.60009L8.75144 14.0744C8.33328 13.7365 7.81903 13.5393 7.28213 13.5111C6.74524 13.4828 6.21315 13.625 5.76184 13.9171C5.31054 14.2093 4.96309 14.6367 4.76911 15.1381C4.57514 15.6395 4.54455 16.1894 4.68173 16.7092L2.24573 18.2521L3.16116 19.6972ZM29.1429 12.5144C29.3124 12.5144 29.4781 12.5647 29.6191 12.6588C29.76 12.753 29.8699 12.8869 29.9348 13.0435C29.9996 13.2001 30.0166 13.3725 29.9835 13.5387C29.9505 13.705 29.8688 13.8577 29.749 13.9776C29.6291 14.0975 29.4764 14.1791 29.3101 14.2122C29.1438 14.2453 28.9715 14.2283 28.8149 14.1634C28.6582 14.0985 28.5244 13.9887 28.4302 13.8477C28.336 13.7068 28.2857 13.5411 28.2857 13.3715C28.2857 13.1442 28.376 12.9262 28.5368 12.7654C28.6975 12.6047 28.9155 12.5144 29.1429 12.5144ZM18.3892 9.08581C18.5587 9.08581 18.7244 9.13608 18.8654 9.23026C19.0063 9.32445 19.1162 9.45831 19.1811 9.61494C19.2459 9.77156 19.2629 9.9439 19.2298 10.1102C19.1968 10.2764 19.1151 10.4292 18.9952 10.549C18.8754 10.6689 18.7226 10.7506 18.5564 10.7836C18.3901 10.8167 18.2178 10.7997 18.0611 10.7348C17.9045 10.67 17.7707 10.5601 17.6765 10.4192C17.5823 10.2782 17.532 10.1125 17.532 9.94295C17.532 9.71562 17.6223 9.49761 17.7831 9.33686C17.9438 9.17611 18.1618 9.08581 18.3892 9.08581ZM7.16916 15.2298C7.33868 15.2298 7.5044 15.2801 7.64536 15.3743C7.78632 15.4684 7.89618 15.6023 7.96105 15.7589C8.02593 15.9156 8.0429 16.0879 8.00983 16.2542C7.97676 16.4204 7.89512 16.5732 7.77525 16.693C7.65537 16.8129 7.50265 16.8946 7.33638 16.9276C7.17011 16.9607 6.99776 16.9437 6.84114 16.8788C6.68452 16.814 6.55065 16.7041 6.45647 16.5632C6.36228 16.4222 6.31201 16.2565 6.31201 16.087C6.31201 15.8596 6.40232 15.6416 6.56307 15.4809C6.72381 15.3201 6.94183 15.2298 7.16916 15.2298Z" fill="#1E1F1F"/>
</svg>
