<svg width="40" height="48" viewBox="0 0 40 48" fill="none" xmlns="http://www.w3.org/2000/svg">
<path d="M1.25 34V7.75C1.25 7.08696 1.51339 6.45107 1.98223 5.98223C2.45107 5.51339 3.08696 5.25 3.75 5.25H27.5C27.8315 5.25 28.1495 5.3817 28.3839 5.61612C28.6183 5.85054 28.75 6.16848 28.75 6.5V32.75C28.75 33.0815 28.6183 33.3995 28.3839 33.6339C28.1495 33.8683 27.8315 34 27.5 34" fill="#5E87CA"/>
<path d="M26.25 29V5.25H3.75C3.08696 5.25 2.45107 5.51339 1.98223 5.98223C1.51339 6.45107 1.25 7.08696 1.25 7.75V30.25H25C25.3315 30.25 25.6495 30.1183 25.8839 29.8839C26.1183 29.6495 26.25 29.3315 26.25 29Z" fill="#739DD8"/>
<path d="M1.25 35.25V7.75C1.25 7.08696 1.51339 6.45107 1.98223 5.98223C2.45107 5.51339 3.08696 5.25 3.75 5.25H6.25V35.25" fill="#3B5892"/>
<path d="M27.5 32.75H3.75C3.08696 32.75 2.45107 33.0134 1.98223 33.4822C1.51339 33.9511 1.25 34.587 1.25 35.25C1.25 35.913 1.51339 36.5489 1.98223 37.0178C2.45107 37.4866 3.08696 37.75 3.75 37.75H27.5V32.75Z" fill="#CCCCCC"/>
<path d="M4.375 34.625H25.625V35.875H4.375V34.625Z" fill="#B5B5B5"/>
<path d="M34.375 30.875H23.125C22.4346 30.875 21.875 31.4346 21.875 32.125V35.875C21.875 36.5654 22.4346 37.125 23.125 37.125H34.375C35.0654 37.125 35.625 36.5654 35.625 35.875V32.125C35.625 31.4346 35.0654 30.875 34.375 30.875Z" fill="#474747"/>
<path d="M33.75 34.625V30.875H23.125C22.7935 30.875 22.4755 31.0067 22.2411 31.2411C22.0067 31.4755 21.875 31.7935 21.875 32.125V34.625H33.75Z" fill="#686868"/>
<path d="M38.75 18.375C38.7503 16.7723 38.3653 15.193 37.6275 13.7702C36.8898 12.3474 35.8209 11.1228 34.5108 10.1995C33.2008 9.27622 31.688 8.68133 30.1 8.46496C28.512 8.24859 26.8952 8.41709 25.3859 8.95624C23.8767 9.4954 22.5191 10.3894 21.4276 11.563C20.3361 12.7366 19.5426 14.1553 19.1141 15.6996C18.6856 17.244 18.6345 18.8687 18.9652 20.4369C19.2959 22.0051 19.9987 23.4708 21.0144 24.7106C22.3511 26.2902 23.0972 28.2853 23.125 30.3544V30.875H34.375V30.3512C34.3848 28.3102 35.112 26.3377 36.4294 24.7787C37.9319 22.9835 38.7536 20.7161 38.75 18.375Z" fill="#F9D266"/>
<path d="M23.125 37.125V38.375C23.125 38.7065 23.2567 39.0245 23.4911 39.2589C23.7255 39.4933 24.0435 39.625 24.375 39.625H33.125C33.4565 39.625 33.7745 39.4933 34.0089 39.2589C34.2433 39.0245 34.375 38.7065 34.375 38.375V37.125" fill="#939393"/>
<path d="M26.25 39.625V40.25C26.25 40.913 26.5134 41.5489 26.9822 42.0178C27.4511 42.4866 28.087 42.75 28.75 42.75C29.413 42.75 30.0489 42.4866 30.5178 42.0178C30.9866 41.5489 31.25 40.913 31.25 40.25V39.625" fill="#CCCCCC"/>
<path d="M23.75 33.375H33.75V34.625H23.75V33.375Z" fill="#939393"/>
<path d="M21.4331 8.81689L22.3169 7.93314L19.6338 5.25001H17.8663L21.4331 8.81689ZM35.1788 7.93689L38.3038 4.81189L39.1869 5.69626L36.0625 8.82064L35.1788 7.93689ZM16.4288 29.1825L19.5538 26.0575L20.4369 26.9419L17.3125 30.0663L16.4288 29.1825ZM11.875 17.125H16.875V18.375H11.875V17.125Z" fill="#E2E7F6"/>
<path d="M36.25 18.375H35C34.9982 16.718 34.3391 15.1293 33.1674 13.9576C31.9957 12.7859 30.407 12.1268 28.75 12.125V10.875C30.7385 10.8772 32.6449 11.668 34.0509 13.0741C35.457 14.4801 36.2478 16.3865 36.25 18.375Z" fill="#FCE797"/>
<path d="M36.9088 25.1794C38.1677 23.6691 38.9828 21.8391 39.2634 19.893C39.5441 17.9469 39.2792 15.9612 38.4983 14.1567C37.7175 12.3523 36.4512 10.7998 34.8405 9.67227C33.2298 8.54469 31.3377 7.88617 29.375 7.77V6.5C29.375 6.00272 29.1775 5.52581 28.8258 5.17417C28.4742 4.82254 27.9973 4.625 27.5 4.625H3.75C2.9215 4.62599 2.12722 4.95555 1.54139 5.54139C0.955551 6.12722 0.625992 6.9215 0.625 7.75V35.25C0.625992 36.0785 0.955551 36.8728 1.54139 37.4586C2.12722 38.0444 2.9215 38.374 3.75 38.375H22.5C22.5 38.8723 22.6975 39.3492 23.0492 39.7008C23.4008 40.0525 23.8777 40.25 24.375 40.25H25.625C25.625 41.0788 25.9542 41.8737 26.5403 42.4597C27.1263 43.0458 27.9212 43.375 28.75 43.375C29.5788 43.375 30.3737 43.0458 30.9597 42.4597C31.5458 41.8737 31.875 41.0788 31.875 40.25H33.125C33.6223 40.25 34.0992 40.0525 34.4508 39.7008C34.8025 39.3492 35 38.8723 35 38.375V37.635C35.3643 37.5062 35.6799 37.268 35.9037 36.9529C36.1274 36.6379 36.2484 36.2614 36.25 35.875V32.125C36.2484 31.7386 36.1274 31.3621 35.9037 31.0471C35.6799 30.732 35.3643 30.4938 35 30.365V30.3512C35.0119 28.4571 35.6873 26.6271 36.9088 25.1794ZM38.125 18.375C38.1238 20.5679 37.354 22.691 35.9494 24.375C34.5622 26.022 33.7854 28.097 33.75 30.25H23.75C23.6932 28.0733 22.9 25.9802 21.5 24.3125C20.0835 22.5852 19.3299 20.409 19.375 18.1756C19.4562 15.812 20.4153 13.5634 22.0651 11.8688C23.7148 10.1742 25.9369 9.15519 28.2975 9.01062C29.5653 8.94936 30.8323 9.14618 32.0218 9.58914C33.2112 10.0321 34.2984 10.712 35.2173 11.5876C36.1362 12.4632 36.8677 13.5162 37.3675 14.683C37.8673 15.8497 38.125 17.1057 38.125 18.375ZM28.125 6.5V7.7725C26.1698 7.88664 24.2842 8.53929 22.6767 9.65827C21.0693 10.7773 19.8026 12.319 19.0168 14.113C18.231 15.907 17.9566 17.8834 18.2239 19.8236C18.4913 21.7638 19.2901 23.5923 20.5319 25.1069C21.7807 26.5725 22.477 28.429 22.5 30.3544V30.365C22.1357 30.4938 21.8201 30.732 21.5963 31.0471C21.3726 31.3621 21.2516 31.7386 21.25 32.125H6.875V5.875H18.4913L21.4331 8.81687L22.3169 7.93313L20.2588 5.875H27.5C27.6658 5.875 27.8247 5.94085 27.9419 6.05806C28.0592 6.17527 28.125 6.33424 28.125 6.5ZM3.75 5.875H5.625V32.125H3.75C3.07158 32.1273 2.41274 32.3526 1.875 32.7663V7.75C1.875 7.25272 2.07254 6.77581 2.42417 6.42417C2.77581 6.07254 3.25272 5.875 3.75 5.875ZM1.875 35.25C1.875 34.7527 2.07254 34.2758 2.42417 33.9242C2.77581 33.5725 3.25272 33.375 3.75 33.375H21.25V34.625H4.375V35.875H21.25C21.2516 36.3377 21.4254 36.7833 21.7375 37.125H3.75C3.25272 37.125 2.77581 36.9275 2.42417 36.5758C2.07254 36.2242 1.875 35.7473 1.875 35.25ZM28.75 42.125C28.2527 42.125 27.7758 41.9275 27.4242 41.5758C27.0725 41.2242 26.875 40.7473 26.875 40.25H30.625C30.625 40.7473 30.4275 41.2242 30.0758 41.5758C29.7242 41.9275 29.2473 42.125 28.75 42.125ZM33.125 39H24.375C24.2092 39 24.0503 38.9342 23.9331 38.8169C23.8158 38.6997 23.75 38.5408 23.75 38.375V37.75H33.75V38.375C33.75 38.5408 33.6842 38.6997 33.5669 38.8169C33.4497 38.9342 33.2908 39 33.125 39ZM35 35.875C35 36.0408 34.9342 36.1997 34.8169 36.3169C34.6997 36.4342 34.5408 36.5 34.375 36.5H23.125C22.9592 36.5 22.8003 36.4342 22.6831 36.3169C22.5658 36.1997 22.5 36.0408 22.5 35.875V32.125C22.5 31.9592 22.5658 31.8003 22.6831 31.6831C22.8003 31.5658 22.9592 31.5 23.125 31.5H34.375C34.5408 31.5 34.6997 31.5658 34.8169 31.6831C34.9342 31.8003 35 31.9592 35 32.125V35.875Z" fill="black"/>
<path d="M23.75 33.375H33.75V34.625H23.75V33.375ZM35.1788 7.93689L38.3038 4.81189L39.1869 5.69626L36.0625 8.82064L35.1788 7.93689ZM16.4288 29.1825L19.5538 26.0575L20.4369 26.9419L17.3125 30.0663L16.4288 29.1825ZM11.875 17.125H16.875V18.375H11.875V17.125ZM35 18.375H36.25C36.2479 16.3865 35.457 14.4801 34.0509 13.0741C32.6449 11.668 30.7385 10.8772 28.75 10.875V12.125C30.407 12.1268 31.9957 12.7859 33.1674 13.9576C34.3391 15.1293 34.9982 16.718 35 18.375Z" fill="black"/>
</svg>
