<svg width="48" height="48" viewBox="0 0 48 48" fill="none" xmlns="http://www.w3.org/2000/svg">
<path d="M43.5 3.75H4.5C2.84315 3.75 1.5 5.09315 1.5 6.75V41.25C1.5 42.9069 2.84315 44.25 4.5 44.25H43.5C45.1569 44.25 46.5 42.9069 46.5 41.25V6.75C46.5 5.09315 45.1569 3.75 43.5 3.75Z" fill="#CCCCCC"/>
<path d="M4.5 18.75H43.5V41.25H4.5V18.75Z" fill="white"/>
<path d="M43.5 3.75H4.5C3.70435 3.75 2.94129 4.06607 2.37868 4.62868C1.81607 5.19129 1.5 5.95435 1.5 6.75V12.75H46.5V6.75C46.5 5.95435 46.1839 5.19129 45.6213 4.62868C45.0587 4.06607 44.2957 3.75 43.5 3.75Z" fill="#AA2B24"/>
<path d="M42 10.5C42.5967 10.5 43.169 10.2629 43.591 9.84099C44.0129 9.41903 44.25 8.84674 44.25 8.25V3.85575C44.0055 3.78877 43.7535 3.75324 43.5 3.75H4.5C3.70435 3.75 2.94129 4.06607 2.37868 4.62868C1.81607 5.19129 1.5 5.95435 1.5 6.75V10.5H42Z" fill="#D24034"/>
<path d="M38.25 27.75L35.25 27.7972V23.25H38.25V27.75Z" fill="#559B38"/>
<path d="M35.25 23.25V27H36C36.3978 27 36.7794 26.842 37.0607 26.5607C37.342 26.2794 37.5 25.8978 37.5 25.5V23.25H35.25Z" fill="#6BC148"/>
<path d="M30.75 30L27.75 30.0472V25.5H30.75V30Z" fill="#559B38"/>
<path d="M27.75 25.5V29.25H28.5C28.8978 29.25 29.2794 29.092 29.5607 28.8107C29.842 28.5294 30 28.1478 30 27.75V25.5H27.75Z" fill="#6BC148"/>
<path d="M23.25 32.25L20.25 32.2972V27.75H23.25V32.25Z" fill="#AA2B24"/>
<path d="M20.25 27.75V31.5H21C21.3978 31.5 21.7794 31.342 22.0607 31.0607C22.342 30.7794 22.5 30.3978 22.5 30V27.75H20.25Z" fill="#D24034"/>
<path d="M15.75 30L12.75 30.0472V25.5H15.75V30Z" fill="#559B38"/>
<path d="M12.75 25.5V29.25H13.5C13.8978 29.25 14.2794 29.092 14.5607 28.8107C14.842 28.5294 15 28.1478 15 27.75V25.5H12.75Z" fill="#6BC148"/>
<path d="M36 9.75C36.8284 9.75 37.5 9.07843 37.5 8.25C37.5 7.42157 36.8284 6.75 36 6.75C35.1716 6.75 34.5 7.42157 34.5 8.25C34.5 9.07843 35.1716 9.75 36 9.75Z" fill="white"/>
<path d="M42 9.75C42.8284 9.75 43.5 9.07843 43.5 8.25C43.5 7.42157 42.8284 6.75 42 6.75C41.1716 6.75 40.5 7.42157 40.5 8.25C40.5 9.07843 41.1716 9.75 42 9.75Z" fill="white"/>
<path d="M1.5 15.75H30C30.3978 15.75 30.7794 15.592 31.0607 15.3107C31.342 15.0294 31.5 14.6478 31.5 14.25V12.75H1.5V15.75Z" fill="#D24034"/>
<path d="M43.5 3H4.5C3.5058 3.00119 2.55267 3.39666 1.84966 4.09966C1.14666 4.80267 0.751191 5.7558 0.75 6.75V41.25C0.751191 42.2442 1.14666 43.1973 1.84966 43.9003C2.55267 44.6033 3.5058 44.9988 4.5 45H43.5C44.4942 44.9988 45.4473 44.6033 46.1503 43.9003C46.8533 43.1973 47.2488 42.2442 47.25 41.25V6.75C47.2488 5.7558 46.8533 4.80267 46.1503 4.09966C45.4473 3.39666 44.4942 3.00119 43.5 3ZM4.5 4.5H43.5C44.0967 4.5 44.669 4.73705 45.091 5.15901C45.5129 5.58097 45.75 6.15326 45.75 6.75V12H2.25V6.75C2.25 6.15326 2.48705 5.58097 2.90901 5.15901C3.33097 4.73705 3.90326 4.5 4.5 4.5ZM2.25 15V13.5H8.25V15H2.25ZM9.75 13.5H15.75V15H9.75V13.5ZM17.25 13.5H23.25V15H17.25V13.5ZM24.75 13.5H30.75V14.25C30.75 14.4489 30.671 14.6397 30.5303 14.7803C30.3897 14.921 30.1989 15 30 15H24.75V13.5ZM43.5 43.5H4.5C3.90326 43.5 3.33097 43.2629 2.90901 42.841C2.48705 42.419 2.25 41.8467 2.25 41.25V16.5H30C30.5967 16.5 31.169 16.2629 31.591 15.841C32.0129 15.419 32.25 14.8467 32.25 14.25V13.5H45.75V41.25C45.75 41.8467 45.5129 42.419 45.091 42.841C44.669 43.2629 44.0967 43.5 43.5 43.5Z" fill="black"/>
<path d="M36 10.5C36.445 10.5 36.88 10.368 37.25 10.1208C37.62 9.87357 37.9084 9.52217 38.0787 9.11104C38.249 8.69991 38.2936 8.24751 38.2068 7.81105C38.1199 7.37459 37.9057 6.97368 37.591 6.65901C37.2763 6.34434 36.8754 6.13005 36.439 6.04323C36.0025 5.95642 35.5501 6.00097 35.139 6.17127C34.7278 6.34157 34.3764 6.62996 34.1292 6.99997C33.882 7.36998 33.75 7.80499 33.75 8.25C33.75 8.84674 33.9871 9.41903 34.409 9.84099C34.831 10.2629 35.4033 10.5 36 10.5ZM36 7.5C36.1483 7.5 36.2933 7.54399 36.4167 7.6264C36.54 7.70881 36.6361 7.82594 36.6929 7.96299C36.7497 8.10003 36.7645 8.25083 36.7356 8.39632C36.7066 8.5418 36.6352 8.67544 36.5303 8.78033C36.4254 8.88522 36.2918 8.95665 36.1463 8.98559C36.0008 9.01453 35.85 8.99968 35.713 8.94291C35.5759 8.88615 35.4588 8.79002 35.3764 8.66668C35.294 8.54334 35.25 8.39834 35.25 8.25C35.25 8.05109 35.329 7.86032 35.4697 7.71967C35.6103 7.57902 35.8011 7.5 36 7.5ZM42 10.5C42.445 10.5 42.88 10.368 43.25 10.1208C43.62 9.87357 43.9084 9.52217 44.0787 9.11104C44.249 8.69991 44.2936 8.24751 44.2068 7.81105C44.1199 7.37459 43.9057 6.97368 43.591 6.65901C43.2763 6.34434 42.8754 6.13005 42.439 6.04323C42.0025 5.95642 41.5501 6.00097 41.139 6.17127C40.7278 6.34157 40.3764 6.62996 40.1292 6.99997C39.882 7.36998 39.75 7.80499 39.75 8.25C39.75 8.84674 39.9871 9.41903 40.409 9.84099C40.831 10.2629 41.4033 10.5 42 10.5ZM42 7.5C42.1483 7.5 42.2933 7.54399 42.4167 7.6264C42.54 7.70881 42.6361 7.82594 42.6929 7.96299C42.7497 8.10003 42.7645 8.25083 42.7356 8.39632C42.7066 8.5418 42.6352 8.67544 42.5303 8.78033C42.4254 8.88522 42.2918 8.95665 42.1463 8.98559C42.0008 9.01453 41.85 8.99968 41.713 8.94291C41.5759 8.88615 41.4588 8.79002 41.3764 8.66668C41.294 8.54334 41.25 8.39834 41.25 8.25C41.25 8.05109 41.329 7.86032 41.4697 7.71967C41.6103 7.57902 41.8011 7.5 42 7.5ZM43.5 18H4.5C4.30109 18 4.11032 18.079 3.96967 18.2197C3.82902 18.3603 3.75 18.5511 3.75 18.75V41.25C3.75 41.4489 3.82902 41.6397 3.96967 41.7803C4.11032 41.921 4.30109 42 4.5 42H43.5C43.6989 42 43.8897 41.921 44.0303 41.7803C44.171 41.6397 44.25 41.4489 44.25 41.25V18.75C44.25 18.5511 44.171 18.3603 44.0303 18.2197C43.8897 18.079 43.6989 18 43.5 18ZM42.75 40.5H5.25V19.5H42.75V40.5Z" fill="black"/>
<path d="M7.5 39H41.25V37.5H8.25V21H6.75V38.25C6.75 38.4489 6.82902 38.6397 6.96967 38.7803C7.11032 38.921 7.30109 39 7.5 39Z" fill="black"/>
<path d="M12.75 30.75H13.5V32.25H15V30.75H15.75C15.9489 30.75 16.1397 30.671 16.2803 30.5303C16.421 30.3897 16.5 30.1989 16.5 30V25.5C16.5 25.3011 16.421 25.1103 16.2803 24.9697C16.1397 24.829 15.9489 24.75 15.75 24.75H15V23.25H13.5V24.75H12.75C12.5511 24.75 12.3603 24.829 12.2197 24.9697C12.079 25.1103 12 25.3011 12 25.5V30C12 30.1989 12.079 30.3897 12.2197 30.5303C12.3603 30.671 12.5511 30.75 12.75 30.75ZM13.5 26.25H15V29.25H13.5V26.25ZM20.25 33H21V36H22.5V33H23.25C23.4489 33 23.6397 32.921 23.7803 32.7803C23.921 32.6397 24 32.4489 24 32.25V27.75C24 27.5511 23.921 27.3603 23.7803 27.2197C23.6397 27.079 23.4489 27 23.25 27H22.5V25.5H21V27H20.25C20.0511 27 19.8603 27.079 19.7197 27.2197C19.579 27.3603 19.5 27.5511 19.5 27.75V32.25C19.5 32.4489 19.579 32.6397 19.7197 32.7803C19.8603 32.921 20.0511 33 20.25 33ZM21 28.5H22.5V31.5H21V28.5ZM27.75 30.75H28.5V32.25H30V30.75H30.75C30.9489 30.75 31.1397 30.671 31.2803 30.5303C31.421 30.3897 31.5 30.1989 31.5 30V25.5C31.5 25.3011 31.421 25.1103 31.2803 24.9697C31.1397 24.829 30.9489 24.75 30.75 24.75H30V23.25H28.5V24.75H27.75C27.5511 24.75 27.3603 24.829 27.2197 24.9697C27.079 25.1103 27 25.3011 27 25.5V30C27 30.1989 27.079 30.3897 27.2197 30.5303C27.3603 30.671 27.5511 30.75 27.75 30.75ZM28.5 26.25H30V29.25H28.5V26.25ZM35.25 28.5H36V33.75H37.5V28.5H38.25C38.4489 28.5 38.6397 28.421 38.7803 28.2803C38.921 28.1397 39 27.9489 39 27.75V23.25C39 23.0511 38.921 22.8603 38.7803 22.7197C38.6397 22.579 38.4489 22.5 38.25 22.5H37.5V21H36V22.5H35.25C35.0511 22.5 34.8603 22.579 34.7197 22.7197C34.579 22.8603 34.5 23.0511 34.5 23.25V27.75C34.5 27.9489 34.579 28.1397 34.7197 28.2803C34.8603 28.421 35.0511 28.5 35.25 28.5ZM36 24H37.5V27H36V24Z" fill="black"/>
</svg>
