<svg width="48" height="48" viewBox="0 0 48 48" fill="none" xmlns="http://www.w3.org/2000/svg">
<g clip-path="url(#clip0_1462_5950)">
<path d="M21.5996 37.5H26.4019V40.5H21.5996V37.5Z" fill="#939393"/>
<path d="M40.5004 39.15C41.4161 38.6236 42.1166 37.791 42.4787 36.7988C42.8408 35.8065 42.8411 34.7184 42.4797 33.726C43.4935 33.6153 44.4396 33.1635 45.163 32.4446C45.8864 31.7258 46.3442 30.7826 46.4613 29.7695C46.5785 28.7564 46.348 27.7336 45.8077 26.8686C45.2675 26.0037 44.4494 25.3479 43.4877 25.0087C43.9425 24.3314 44.2047 23.5431 44.2461 22.7283C44.2875 21.9134 44.1065 21.1026 43.7226 20.3827C43.3387 19.6627 42.7663 19.0607 42.0666 18.641C41.367 18.2213 40.5663 17.9997 39.7504 18H39.6837C39.5065 16.9521 38.9642 16.0006 38.1528 15.3143C37.3414 14.6279 36.3132 14.2509 35.2504 14.25H35.1837C35.0649 13.5373 34.776 12.8637 34.3414 12.2865C33.9068 11.7093 33.3394 11.2454 32.6873 10.9342C32.0352 10.6231 31.3176 10.4739 30.5955 10.4992C29.8735 10.5245 29.1681 10.7237 28.5394 11.0797C27.9775 10.4266 27.2812 9.90247 26.4981 9.54317C25.715 9.18387 24.8635 8.99786 24.0019 8.99786C23.1403 8.99786 22.2889 9.18387 21.5058 9.54317C20.7227 9.90247 20.0264 10.4266 19.4644 11.0797C18.8357 10.7237 18.1304 10.5245 17.4083 10.4992C16.6862 10.4739 15.9687 10.6231 15.3165 10.9342C14.6644 11.2454 14.097 11.7093 13.6624 12.2865C13.2278 12.8637 12.9389 13.5373 12.8202 14.25H12.7534C11.6906 14.2509 10.6625 14.6279 9.85104 15.3143C9.03961 16.0006 8.4973 16.9521 8.32017 18H8.25342C7.43787 18 6.63765 18.2216 5.93832 18.6412C5.23898 19.0608 4.66682 19.6626 4.28299 20.3821C3.89917 21.1017 3.71811 21.9121 3.75919 22.7266C3.80026 23.5411 4.06191 24.3292 4.51617 25.0065C3.516 25.3594 2.67265 26.0543 2.13492 26.9685C1.59719 27.8827 1.39964 28.9575 1.57715 30.0031C1.75466 31.0488 2.2958 31.9981 3.10509 32.6837C3.91438 33.3692 4.93981 33.7469 6.00042 33.75C5.99987 34.3623 6.14952 34.9655 6.43627 35.5066C6.72303 36.0477 7.13812 36.5101 7.64517 36.8535L7.78317 36.9532C8.24023 35.3358 9.22731 33.9188 10.5861 32.9296C11.9448 31.9403 13.5965 31.4361 15.2761 31.4978C16.9557 31.5596 18.5659 32.1837 19.8483 33.2701C21.1308 34.3565 22.0111 35.8421 22.3482 37.4887V37.5H25.6482C26.0159 35.6748 27.0494 34.0516 28.5476 32.9462C30.0458 31.8407 31.9016 31.3321 33.7541 31.5192C35.6065 31.7063 37.3232 32.5757 38.5701 33.9584C39.817 35.3411 40.5051 37.1381 40.5004 39V39.15Z" fill="#F2B9A1"/>
<path d="M15 46.5C19.1421 46.5 22.5 43.1421 22.5 39C22.5 34.8579 19.1421 31.5 15 31.5C10.8579 31.5 7.5 34.8579 7.5 39C7.5 43.1421 10.8579 46.5 15 46.5Z" fill="#B5B5B5"/>
<path d="M33 46.5C37.1421 46.5 40.5 43.1421 40.5 39C40.5 34.8579 37.1421 31.5 33 31.5C28.8579 31.5 25.5 34.8579 25.5 39C25.5 43.1421 28.8579 46.5 33 46.5Z" fill="#B5B5B5"/>
<path d="M15 43.5C17.4853 43.5 19.5 41.4853 19.5 39C19.5 36.5147 17.4853 34.5 15 34.5C12.5147 34.5 10.5 36.5147 10.5 39C10.5 41.4853 12.5147 43.5 15 43.5Z" fill="#F2F2F2"/>
<path d="M10.5 39C10.4999 39.6931 10.6604 40.3769 10.969 40.9976C11.2775 41.6183 11.7256 42.1591 12.2783 42.5775C13.2862 42.8635 14.3623 42.7884 15.3207 42.3652C16.2791 41.9421 17.0596 41.1974 17.5273 40.2599C17.995 39.3224 18.1205 38.251 17.8821 37.2308C17.6437 36.2106 17.0564 35.3057 16.2218 34.6725C15.5528 34.4815 14.8486 34.4487 14.1648 34.5765C13.481 34.7043 12.8362 34.9892 12.2813 35.4089C11.7265 35.8285 11.2767 36.3714 10.9676 36.9946C10.6585 37.6178 10.4984 38.3043 10.5 39Z" fill="white"/>
<path d="M33 43.5C35.4853 43.5 37.5 41.4853 37.5 39C37.5 36.5147 35.4853 34.5 33 34.5C30.5147 34.5 28.5 36.5147 28.5 39C28.5 41.4853 30.5147 43.5 33 43.5Z" fill="#F2F2F2"/>
<path d="M24 28.5V27C25.1931 26.9988 26.337 26.5243 27.1807 25.6807C28.0243 24.837 28.4988 23.6931 28.5 22.5H30C29.9982 24.0908 29.3655 25.6158 28.2407 26.7407C27.1158 27.8655 25.5908 28.4982 24 28.5ZM17.25 29.25C15.6592 29.2482 14.1342 28.6155 13.0093 27.4907C11.8845 26.3658 11.2518 24.8408 11.25 23.25H12.75C12.7512 24.4431 13.2257 25.587 14.0693 26.4307C14.913 27.2743 16.0569 27.7488 17.25 27.75V29.25Z" fill="#FBE1CA"/>
<path d="M24 6.75L21.75 1.5H26.25L24 6.75ZM37.5 10.5L39.75 4.5L43.5 8.25L37.5 10.5ZM10.5 10.5L8.25 4.5L4.5 8.25L10.5 10.5Z" fill="#E2E7F6"/>
<path d="M28.5 39C28.4999 39.6931 28.6604 40.3769 28.969 40.9976C29.2775 41.6183 29.7256 42.1591 30.2783 42.5775C31.2862 42.8635 32.3623 42.7884 33.3207 42.3652C34.2791 41.9421 35.0596 41.1974 35.5273 40.2599C35.995 39.3224 36.1205 38.251 35.8821 37.2308C35.6437 36.2106 35.0565 35.3057 34.2218 34.6725C33.5528 34.4815 32.8486 34.4487 32.1648 34.5765C31.481 34.7043 30.8362 34.9892 30.2813 35.4089C29.7265 35.8285 29.2767 36.3714 28.9676 36.9946C28.6585 37.6178 28.4984 38.3043 28.5 39Z" fill="white"/>
<path d="M47.2502 29.25C47.2489 28.3122 46.9966 27.3917 46.5196 26.5842C46.0426 25.7767 45.3582 25.1116 44.5375 24.6578C44.8794 23.8995 45.0362 23.0708 44.9951 22.2399C44.9539 21.4091 44.7159 20.6 44.3007 19.8792C43.8855 19.1584 43.3049 18.5466 42.6068 18.0942C41.9088 17.6417 41.1132 17.3617 40.2857 17.277C39.9964 16.2738 39.413 15.3802 38.6109 14.7118C37.8088 14.0434 36.8247 13.6307 35.7857 13.527C35.5788 12.816 35.2236 12.1569 34.7435 11.5931C34.2634 11.0293 33.6693 10.5737 33.0002 10.2562C32.3312 9.93873 31.6025 9.76664 30.8622 9.75127C30.1218 9.7359 29.3866 9.8776 28.705 10.167C27.4473 8.93813 25.7586 8.25012 24.0002 8.25012C22.2418 8.25012 20.5532 8.93813 19.2955 10.167C18.6139 9.8776 17.8786 9.7359 17.1383 9.75127C16.3979 9.76664 15.6692 9.93873 15.0002 10.2562C14.3312 10.5737 13.737 11.0293 13.2569 11.5931C12.7768 12.1569 12.4216 12.816 12.2147 13.527C11.1757 13.6307 10.1917 14.0434 9.38954 14.7118C8.58741 15.3802 8.00403 16.2738 7.71472 17.277C6.8872 17.3617 6.09164 17.6417 5.39359 18.0942C4.69554 18.5466 4.11499 19.1584 3.69977 19.8792C3.28455 20.6 3.04655 21.4091 3.00538 22.2399C2.96421 23.0708 3.12105 23.8995 3.46297 24.6578C2.49722 25.1923 1.72452 26.0177 1.25469 27.0165C0.784863 28.0153 0.641809 29.1368 0.845861 30.2216C1.04991 31.3064 1.59069 32.2993 2.39133 33.0591C3.19198 33.819 4.21175 34.3072 5.30572 34.4543C5.48199 35.5598 6.06449 36.5598 6.93922 37.2585C6.4825 39.3532 6.85969 41.5435 7.9908 43.3647C9.12191 45.186 10.918 46.495 12.9981 47.0142C15.0782 47.5334 17.2787 47.222 19.133 46.1458C20.9873 45.0697 22.3495 43.3137 22.9307 41.25H25.0697C25.5973 43.1191 26.7681 44.7417 28.3755 45.8316C29.9829 46.9216 31.9236 47.4087 33.8552 47.2072C35.7868 47.0057 37.5851 46.1284 38.9329 44.7301C40.2807 43.3318 41.0913 41.5025 41.2217 39.5648C41.9218 39.0831 42.4947 38.439 42.8915 37.6876C43.2883 36.9361 43.4972 36.0998 43.5002 35.25C43.5001 34.9338 43.471 34.6182 43.4132 34.3073C44.5184 34.0009 45.4924 33.3401 46.1856 32.4265C46.8788 31.5128 47.2528 30.3969 47.2502 29.25ZM15.0002 45.75C13.6652 45.75 12.3602 45.3541 11.2501 44.6124C10.1401 43.8707 9.27493 42.8165 8.76403 41.5831C8.25314 40.3497 8.11947 38.9925 8.37992 37.6832C8.64037 36.3738 9.28325 35.1711 10.2272 34.2271C11.1713 33.283 12.374 32.6402 13.6834 32.3797C14.9927 32.1193 16.3499 32.2529 17.5833 32.7638C18.8167 33.2747 19.8709 34.1399 20.6126 35.2499C21.3543 36.36 21.7502 37.665 21.7502 39C21.7482 40.7896 21.0364 42.5054 19.771 43.7708C18.5056 45.0362 16.7898 45.748 15.0002 45.75ZM23.212 39.75C23.2345 39.5025 23.2502 39.2535 23.2502 39C23.2502 38.7465 23.2345 38.4975 23.212 38.25H24.787C24.7645 38.4975 24.7487 38.7465 24.7487 39C24.7487 39.2535 24.7645 39.5025 24.787 39.75H23.212ZM33.0002 45.75C31.6652 45.75 30.3602 45.3541 29.2501 44.6124C28.1401 43.8707 27.2749 42.8165 26.764 41.5831C26.2531 40.3497 26.1195 38.9925 26.3799 37.6832C26.6404 36.3738 27.2832 35.1711 28.2273 34.2271C29.1713 33.283 30.374 32.6402 31.6834 32.3797C32.9927 32.1193 34.3499 32.2529 35.5833 32.7638C36.8167 33.2747 37.8709 34.1399 38.6126 35.2499C39.3543 36.36 39.7502 37.665 39.7502 39C39.7482 40.7896 39.0364 42.5054 37.771 43.7708C36.5056 45.0362 34.7898 45.748 33.0002 45.75ZM42.4007 32.9783C42.2882 32.9905 42.1799 33.0281 42.0839 33.0882C41.9879 33.1483 41.9068 33.2293 41.8466 33.3252C41.7865 33.4211 41.7488 33.5294 41.7364 33.6419C41.724 33.7545 41.7373 33.8683 41.7752 33.975C42.0001 34.5883 42.0588 35.25 41.9456 35.8933C41.8323 36.5366 41.551 37.1385 41.1302 37.638C40.8238 35.7896 39.8966 34.1007 38.5015 32.85C37.1063 31.5993 35.3266 30.8614 33.4558 30.7579C31.585 30.6545 29.7348 31.1917 28.2103 32.281C26.6858 33.3703 25.5781 34.9466 25.0697 36.75H22.9307C22.4692 35.1166 21.5145 33.6655 20.1972 32.595C18.8798 31.5246 17.2641 30.887 15.5707 30.7695C13.8774 30.652 12.1891 31.0602 10.7365 31.9384C9.28393 32.8166 8.13796 34.122 7.45522 35.676C7.00125 35.1368 6.75165 34.4549 6.75022 33.75C6.75022 33.5511 6.6712 33.3603 6.53055 33.2197C6.3899 33.079 6.19913 33 6.00022 33C5.11657 32.9974 4.26222 32.6828 3.58787 32.1118C2.91353 31.5407 2.4625 30.7499 2.31435 29.8788C2.1662 29.0076 2.33044 28.1121 2.77811 27.3503C3.22578 26.5884 3.92811 26.0091 4.76122 25.7145C4.86923 25.6766 4.96714 25.6145 5.04745 25.533C5.12775 25.4514 5.18833 25.3525 5.22452 25.244C5.26072 25.1354 5.27158 25.0199 5.25627 24.9065C5.24097 24.7931 5.1999 24.6846 5.13622 24.5895C4.75856 24.0267 4.54049 23.3721 4.50518 22.6953C4.46988 22.0185 4.61866 21.3447 4.93571 20.7457C5.25276 20.1467 5.72623 19.6448 6.30576 19.2934C6.8853 18.942 7.54923 18.7542 8.22697 18.75L8.30197 18.7538C8.48119 18.7562 8.65536 18.6944 8.79294 18.5795C8.93052 18.4647 9.02241 18.3043 9.05197 18.1275C9.17663 17.368 9.53292 16.6656 10.0721 16.1164C10.6112 15.5672 11.3069 15.198 12.064 15.0593C12.257 16.2963 12.8856 17.4236 13.8366 18.2379C14.7876 19.0522 15.9983 19.4998 17.2502 19.5V18C16.297 17.9973 15.3806 17.6311 14.688 16.9761C13.9954 16.3211 13.5787 15.4266 13.5227 14.475C13.5367 14.4442 13.5482 14.4124 13.5572 14.3798C13.6561 13.7861 13.8968 13.225 14.2589 12.7441C14.6209 12.2633 15.0936 11.8769 15.6369 11.6177C16.1801 11.3585 16.7779 11.2342 17.3794 11.2553C17.9809 11.2764 18.5685 11.4424 19.0922 11.739C19.2431 11.8243 19.4189 11.8547 19.5897 11.8251C19.7605 11.7954 19.9157 11.7075 20.029 11.5763C20.9276 10.5276 22.2052 9.87779 23.582 9.76913C24.9587 9.66047 26.3224 10.1018 27.3745 10.9965C26.79 11.4876 26.3195 12.1002 25.9959 12.7916C25.6722 13.483 25.503 14.2366 25.5002 15H27.0002C27.0012 14.338 27.177 13.6879 27.5098 13.1156C27.8426 12.5432 28.3206 12.0689 28.8955 11.7405L28.9082 11.736C29.4319 11.4394 30.0195 11.2734 30.621 11.2523C31.2226 11.2312 31.8203 11.3555 32.3636 11.6147C32.9068 11.8739 33.3795 12.2603 33.7416 12.7411C34.1036 13.222 34.3443 13.7831 34.4432 14.3768C34.4884 14.5561 34.5926 14.715 34.7389 14.828C34.8853 14.941 35.0653 15.0016 35.2502 15C36.1368 14.9977 36.9953 15.311 37.672 15.884C38.3486 16.4569 38.7993 17.2519 38.9432 18.1268C38.9884 18.3061 39.0926 18.465 39.2389 18.578C39.3853 18.691 39.5653 18.7516 39.7502 18.75C40.3856 18.7499 41.0106 18.9113 41.5665 19.2189C42.1224 19.5265 42.591 19.9704 42.9284 20.5088C43.2658 21.0471 43.4609 21.6624 43.4953 22.2968C43.5297 22.9313 43.4024 23.564 43.1252 24.1358C42.3586 23.9564 41.5611 23.9537 40.7933 24.1279C40.0254 24.3021 39.3072 24.6487 38.6931 25.1414C38.0789 25.6341 37.5848 26.26 37.2482 26.9718C36.9116 27.6837 36.7413 28.4627 36.7502 29.25H38.2502C38.2502 28.6523 38.393 28.0633 38.6668 27.532C38.9406 27.0008 39.3374 26.5426 39.8242 26.1958C40.311 25.849 40.8736 25.6235 41.4651 25.5383C42.0567 25.453 42.6601 25.5103 43.225 25.7055C43.2302 25.7055 43.234 25.713 43.2392 25.7145C44.0403 25.9973 44.7217 26.5437 45.1717 27.2642C45.6217 27.9848 45.8138 28.8368 45.7163 29.6807C45.6189 30.5247 45.2378 31.3105 44.6355 31.9096C44.0331 32.5087 43.2452 32.8855 42.4007 32.9783Z" fill="black"/>
<path d="M15.0002 33.75C13.9619 33.75 12.9468 34.0579 12.0835 34.6348C11.2201 35.2117 10.5472 36.0316 10.1499 36.9909C9.7525 37.9502 9.64853 39.0058 9.8511 40.0242C10.0537 41.0426 10.5537 41.9781 11.2879 42.7123C12.0221 43.4465 12.9576 43.9466 13.976 44.1491C14.9944 44.3517 16.05 44.2477 17.0093 43.8504C17.9686 43.453 18.7886 42.7801 19.3654 41.9167C19.9423 41.0534 20.2502 40.0384 20.2502 39C20.2486 37.6081 19.695 36.2737 18.7108 35.2894C17.7266 34.3052 16.3921 33.7516 15.0002 33.75ZM15.0002 42.75C14.2585 42.75 13.5335 42.5301 12.9168 42.118C12.3002 41.706 11.8195 41.1203 11.5357 40.4351C11.2518 39.7498 11.1776 38.9958 11.3223 38.2684C11.467 37.541 11.8241 36.8728 12.3486 36.3484C12.873 35.8239 13.5412 35.4668 14.2686 35.3221C14.9961 35.1774 15.7501 35.2516 16.4353 35.5355C17.1205 35.8193 17.7062 36.2999 18.1182 36.9166C18.5303 37.5333 18.7502 38.2583 18.7502 39C18.749 39.9942 18.3536 40.9473 17.6506 41.6503C16.9476 42.3533 15.9944 42.7488 15.0002 42.75ZM33.0002 33.75C31.9619 33.75 30.9468 34.0579 30.0835 34.6348C29.2201 35.2117 28.5472 36.0316 28.1499 36.9909C27.7525 37.9502 27.6485 39.0058 27.8511 40.0242C28.0537 41.0426 28.5537 41.9781 29.2879 42.7123C30.0221 43.4465 30.9576 43.9466 31.976 44.1491C32.9944 44.3517 34.05 44.2477 35.0093 43.8504C35.9686 43.453 36.7886 42.7801 37.3654 41.9167C37.9423 41.0534 38.2502 40.0384 38.2502 39C38.2486 37.6081 37.695 36.2737 36.7108 35.2894C35.7266 34.3052 34.3921 33.7516 33.0002 33.75ZM33.0002 42.75C32.2585 42.75 31.5335 42.5301 30.9168 42.118C30.3001 41.706 29.8195 41.1203 29.5357 40.4351C29.2518 39.7498 29.1776 38.9958 29.3223 38.2684C29.467 37.541 29.8241 36.8728 30.3486 36.3484C30.873 35.8239 31.5412 35.4668 32.2686 35.3221C32.9961 35.1774 33.7501 35.2516 34.4353 35.5355C35.1205 35.8193 35.7062 36.2999 36.1182 36.9166C36.5303 37.5333 36.7502 38.2583 36.7502 39C36.749 39.9942 36.3536 40.9473 35.6506 41.6503C34.9476 42.3533 33.9944 42.7488 33.0002 42.75ZM24.0002 27V28.5C25.591 28.4982 27.1161 27.8655 28.2409 26.7407C29.3657 25.6158 29.9984 24.0907 30.0002 22.5H28.5002C28.499 23.6931 28.0245 24.837 27.1809 25.6807C26.3372 26.5243 25.1933 26.9988 24.0002 27ZM12.7502 23.25H11.2502C11.252 24.8407 11.8847 26.3658 13.0096 27.4907C14.1344 28.6155 15.6595 29.2482 17.2502 29.25V27.75C16.0571 27.7488 14.9132 27.2743 14.0696 26.4307C13.2259 25.587 12.7514 24.4431 12.7502 23.25ZM23.311 7.0455C23.3688 7.18035 23.465 7.29526 23.5875 7.37601C23.71 7.45677 23.8535 7.49981 24.0002 7.49981C24.147 7.49981 24.2905 7.45677 24.413 7.37601C24.5355 7.29526 24.6316 7.18035 24.6895 7.0455L26.9395 1.7955C26.9884 1.68143 27.0082 1.55701 26.9972 1.43339C26.9862 1.30977 26.9446 1.19081 26.8763 1.08719C26.808 0.983574 26.715 0.898527 26.6058 0.839677C26.4965 0.780827 26.3743 0.750014 26.2502 0.75H21.7502C21.6261 0.750014 21.5039 0.780827 21.3947 0.839677C21.2854 0.898527 21.1924 0.983574 21.1241 1.08719C21.0558 1.19081 21.0143 1.30977 21.0033 1.43339C20.9922 1.55701 21.0121 1.68143 21.061 1.7955L23.311 7.0455ZM25.1125 2.25L24.0002 4.84575L22.888 2.25H25.1125ZM37.5002 11.25C37.5901 11.2499 37.6792 11.2339 37.7635 11.2028L43.7635 8.95275C43.8811 8.90872 43.9857 8.83587 44.0678 8.74089C44.1499 8.6459 44.2069 8.53183 44.2335 8.40911C44.26 8.2864 44.2554 8.15898 44.2199 8.03854C44.1844 7.91809 44.1193 7.80848 44.0305 7.71975L40.2805 3.96975C40.1917 3.88092 40.0821 3.81578 39.9617 3.78032C39.8412 3.74485 39.7138 3.74019 39.5911 3.76676C39.4684 3.79334 39.3543 3.85029 39.2593 3.93241C39.1644 4.01452 39.0915 4.11917 39.0475 4.23675L36.7975 10.2367C36.7549 10.3503 36.7405 10.4724 36.7555 10.5927C36.7705 10.713 36.8144 10.8278 36.8835 10.9274C36.9526 11.027 37.0448 11.1084 37.1522 11.1646C37.2596 11.2208 37.379 11.2501 37.5002 11.25ZM40.0435 5.85375L42.1435 7.95375L38.779 9.21525L40.0435 5.85375ZM4.23697 8.95275L10.237 11.2028C10.3213 11.2339 10.4104 11.2499 10.5002 11.25C10.6214 11.2501 10.7409 11.2208 10.8483 11.1646C10.9557 11.1084 11.0479 11.027 11.117 10.9274C11.1861 10.8278 11.23 10.713 11.2449 10.5927C11.2599 10.4724 11.2455 10.3503 11.203 10.2367L8.95297 4.23675C8.90894 4.11917 8.83609 4.01452 8.74111 3.93241C8.64613 3.85029 8.53205 3.79334 8.40934 3.76676C8.28663 3.74019 8.15921 3.74485 8.03876 3.78032C7.91832 3.81578 7.80871 3.88092 7.71997 3.96975L3.96997 7.71975C3.88114 7.80848 3.81601 7.91809 3.78054 8.03854C3.74508 8.15898 3.74042 8.2864 3.76699 8.40911C3.79356 8.53183 3.85052 8.6459 3.93263 8.74089C4.01475 8.83587 4.11939 8.90872 4.23697 8.95275ZM7.95697 5.85375L9.21847 9.21825L5.85397 7.95675L7.95697 5.85375Z" fill="black"/>
</g>
<defs>
<clipPath id="clip0_1462_5950">
<rect width="48" height="48" fill="white"/>
</clipPath>
</defs>
</svg>
