<svg width="40" height="48" viewBox="0 0 40 48" fill="none" xmlns="http://www.w3.org/2000/svg">
<path d="M20 43.4305C30.7312 43.4305 39.4305 34.7312 39.4305 24C39.4305 13.2689 30.7312 4.56958 20 4.56958C9.26885 4.56958 0.569534 13.2689 0.569534 24C0.569534 34.7312 9.26885 43.4305 20 43.4305Z" fill="#FFB125"/>
<path d="M20 4.56995C19.393 4.56995 18.7928 4.59924 18.2 4.6537C28.0869 5.56213 35.83 13.8761 35.83 24C35.83 34.1239 28.0869 42.4379 18.2 43.3464C18.7928 43.4008 19.393 43.4301 20 43.4301C30.7309 43.4301 39.43 34.731 39.43 24.0001C39.43 13.2692 30.7309 4.56995 20 4.56995Z" fill="#FF901D"/>
<path d="M20 39.1749C28.3809 39.1749 35.175 32.3809 35.175 24C35.175 15.619 28.3809 8.82495 20 8.82495C11.6191 8.82495 4.825 15.619 4.825 24C4.825 32.3809 11.6191 39.1749 20 39.1749Z" fill="#FEE570"/>
<path d="M30.7302 34.7303C36.6563 28.8042 36.6563 19.196 30.7302 13.2699L9.26977 34.7303C15.1959 40.6564 24.8041 40.6564 30.7302 34.7303Z" fill="#F4D451"/>
<path d="M31.1332 35.1333C37.272 28.9944 37.272 19.0057 31.1332 12.8668C28.1595 9.89298 24.2055 8.25525 20 8.25525C15.7945 8.25525 11.8405 9.89298 8.8668 12.8667C2.72789 19.0056 2.72789 28.9943 8.8668 35.1332C11.8405 38.107 15.7945 39.7447 20 39.7447C24.2055 39.7448 28.1595 38.107 31.1332 35.1333ZM9.67281 13.6728C12.4313 10.9143 16.0989 9.39509 20 9.39509C23.9011 9.39509 27.5688 10.9143 30.3272 13.6728C33.0857 16.4313 34.6049 20.0989 34.6049 24C34.6049 27.9011 33.0857 31.5688 30.3272 34.3272C27.5688 37.0857 23.9011 38.6049 20 38.6049C16.0989 38.6049 12.4313 37.0857 9.67281 34.3272C3.97836 28.6327 3.97836 19.3673 9.67281 13.6728Z" fill="black"/>
<path d="M32.5527 8.42906C32.4351 8.33411 32.2846 8.28978 32.1343 8.3058C31.984 8.32183 31.8462 8.39691 31.7512 8.51453C31.6563 8.63215 31.612 8.78267 31.628 8.93297C31.644 9.08328 31.7191 9.22107 31.8367 9.31602C36.3002 12.9187 38.8602 18.2708 38.8602 24C38.8602 29.0377 36.8984 33.7739 33.3362 37.3362C29.7738 40.8984 25.0377 42.8602 20 42.8602C16.8417 42.8602 13.7171 42.0644 10.9641 40.5589C10.8985 40.523 10.8264 40.5004 10.752 40.4923C10.6776 40.4843 10.6023 40.4909 10.5305 40.512C10.3854 40.5545 10.2632 40.6529 10.1906 40.7855C10.1181 40.9181 10.1012 41.0741 10.1437 41.2192C10.1862 41.3642 10.2846 41.4865 10.4172 41.559C13.3374 43.1559 16.6511 44 20 44C25.3422 44 30.3646 41.9196 34.1421 38.1421C37.9196 34.3646 40 29.3422 40 24C40 17.9246 37.2855 12.2492 32.5527 8.42906ZM8.04273 38.586C3.65586 34.9853 1.13984 29.6689 1.13984 24C1.13984 18.9623 3.10164 14.2261 6.66383 10.6638C10.2261 7.10164 14.9623 5.13984 20 5.13984C23.108 5.13984 26.1884 5.91172 28.9083 7.37195C28.9742 7.40739 29.0465 7.42948 29.121 7.43698C29.1954 7.44447 29.2707 7.43721 29.3423 7.41562C29.414 7.39403 29.4807 7.35853 29.5386 7.31114C29.5966 7.26375 29.6446 7.20541 29.68 7.13945C29.7154 7.07352 29.7375 7.00125 29.745 6.92678C29.7525 6.85231 29.7452 6.7771 29.7236 6.70543C29.702 6.63377 29.6665 6.56706 29.6191 6.50912C29.5718 6.45118 29.5134 6.40313 29.4475 6.36773C26.5624 4.81875 23.2955 4 20 4C14.6578 4 9.63539 6.08039 5.85789 9.85789C2.08039 13.6354 0 18.6578 0 24C0 30.0116 2.66789 35.649 7.31953 39.467C7.42126 39.5508 7.54898 39.5966 7.68078 39.5965C7.7983 39.5966 7.91298 39.5603 8.00909 39.4927C8.10521 39.4251 8.17808 39.3294 8.21771 39.2188C8.25734 39.1081 8.2618 38.9879 8.23048 38.8747C8.19915 38.7614 8.13358 38.6606 8.04273 38.586Z" fill="black"/>
<path d="M19.4301 6.2562V7.17097C19.4301 7.32212 19.4901 7.46708 19.597 7.57396C19.7039 7.68084 19.8488 7.74089 20 7.74089C20.1512 7.74089 20.2961 7.68084 20.403 7.57396C20.5099 7.46708 20.5699 7.32212 20.5699 7.17097V6.2562C20.5699 6.10505 20.5099 5.96009 20.403 5.85321C20.2961 5.74632 20.1512 5.68628 20 5.68628C19.8488 5.68628 19.7039 5.74632 19.597 5.85321C19.4901 5.96009 19.4301 6.10505 19.4301 6.2562ZM19.4301 40.8289V41.7437C19.4301 41.8949 19.4901 42.0398 19.597 42.1467C19.7039 42.2536 19.8488 42.3136 20 42.3136C20.1512 42.3136 20.2961 42.2536 20.403 42.1467C20.5099 42.0398 20.5699 41.8949 20.5699 41.7437V40.8289C20.5699 40.6778 20.5099 40.5328 20.403 40.4259C20.2961 40.3191 20.1512 40.259 20 40.259C19.8488 40.259 19.7039 40.3191 19.597 40.4259C19.4901 40.5328 19.4301 40.6778 19.4301 40.8289ZM37.7437 24.5699C37.8949 24.5699 38.0399 24.5098 38.1467 24.4029C38.2536 24.2961 38.3137 24.1511 38.3137 24C38.3137 23.8488 38.2536 23.7038 38.1467 23.597C38.0399 23.4901 37.8949 23.43 37.7437 23.43H36.8289C36.6778 23.43 36.5328 23.4901 36.4259 23.597C36.319 23.7038 36.259 23.8488 36.259 24C36.259 24.1511 36.319 24.2961 36.4259 24.4029C36.5328 24.5098 36.6778 24.5699 36.8289 24.5699H37.7437ZM3.74093 24C3.74093 23.8488 3.68089 23.7038 3.57401 23.597C3.46713 23.4901 3.32217 23.43 3.17101 23.43H2.25625C2.10509 23.43 1.96013 23.4901 1.85325 23.597C1.74637 23.7038 1.68633 23.8488 1.68633 24C1.68633 24.1511 1.74637 24.2961 1.85325 24.4029C1.96013 24.5098 2.10509 24.5699 2.25625 24.5699H3.17101C3.32216 24.5699 3.46711 24.5098 3.57399 24.4029C3.68086 24.296 3.74091 24.1511 3.74093 24ZM31.8999 12.67C31.9748 12.67 32.0489 12.6554 32.1181 12.6267C32.1873 12.5981 32.2501 12.5561 32.303 12.5031L32.9498 11.8563C33.0559 11.7492 33.1153 11.6045 33.1149 11.4538C33.1146 11.303 33.0546 11.1586 32.948 11.052C32.8414 10.9454 32.6969 10.8854 32.5462 10.885C32.3955 10.8847 32.2507 10.9441 32.1437 11.0502L31.4969 11.697C31.4172 11.7767 31.3629 11.8783 31.3409 11.9888C31.319 12.0994 31.3303 12.214 31.3734 12.3181C31.4165 12.4222 31.4896 12.5112 31.5833 12.5739C31.677 12.6365 31.7872 12.6699 31.8999 12.67ZM7.69711 35.4968L7.05031 36.1436C6.94598 36.251 6.88811 36.3952 6.88918 36.5449C6.89026 36.6946 6.95021 36.8379 7.05608 36.9438C7.16194 37.0497 7.30522 37.1097 7.45495 37.1108C7.60468 37.1119 7.74883 37.054 7.85625 36.9497L8.50304 36.3029C8.60737 36.1955 8.66525 36.0514 8.66417 35.9017C8.66309 35.7519 8.60314 35.6086 8.49727 35.5028C8.39141 35.3969 8.24813 35.3369 8.0984 35.3358C7.94868 35.3347 7.80453 35.3925 7.69711 35.4968ZM31.4969 35.4968C31.39 35.6037 31.3299 35.7487 31.3299 35.8999C31.3299 36.051 31.39 36.196 31.4969 36.3029L32.1437 36.9497C32.255 37.061 32.4009 37.1166 32.5467 37.1166C32.6926 37.1166 32.8384 37.061 32.9498 36.9497C33.0567 36.8428 33.1167 36.6978 33.1167 36.5467C33.1167 36.3955 33.0567 36.2505 32.9498 36.1436L32.303 35.4968C32.1961 35.39 32.0511 35.3299 31.8999 35.3299C31.7488 35.3299 31.6038 35.39 31.4969 35.4968ZM7.05023 11.0502C6.94334 11.1571 6.88329 11.3021 6.88329 11.4532C6.88329 11.6044 6.94334 11.7494 7.05023 11.8563L7.69703 12.5031C7.80828 12.6143 7.95414 12.67 8.1 12.67C8.24586 12.67 8.39172 12.6143 8.50297 12.5031C8.60986 12.3962 8.66991 12.2512 8.66991 12.1C8.66991 11.9489 8.60986 11.8039 8.50297 11.697L7.85617 11.0502C7.74926 10.9434 7.60432 10.8834 7.4532 10.8834C7.30208 10.8834 7.15714 10.9434 7.05023 11.0502ZM26.6066 7.52206L26.239 8.35972C26.1809 8.49769 26.1794 8.65298 26.2348 8.79204C26.2903 8.9311 26.3982 9.04276 26.5353 9.10291C26.6724 9.16306 26.8276 9.16686 26.9675 9.11349C27.1074 9.06012 27.2206 8.95387 27.2828 8.81769L27.6504 7.98003C27.7111 7.84161 27.7144 7.68473 27.6594 7.54391C27.6045 7.40308 27.4959 7.28984 27.3575 7.22909C27.2191 7.16845 27.0622 7.16525 26.9214 7.22018C26.7806 7.27512 26.6674 7.38369 26.6066 7.52206ZM12.7171 39.1822L12.3496 40.0199C12.3115 40.1066 12.2957 40.2014 12.3035 40.2958C12.3113 40.3902 12.3425 40.4812 12.3943 40.5605C12.446 40.6398 12.5168 40.705 12.6 40.7501C12.6833 40.7952 12.7765 40.8188 12.8712 40.8189C12.982 40.8189 13.0904 40.7866 13.1832 40.7261C13.2759 40.6655 13.349 40.5792 13.3934 40.4777L13.7609 39.64C13.7917 39.5714 13.8085 39.4973 13.8105 39.4222C13.8125 39.347 13.7995 39.2722 13.7725 39.202C13.7454 39.1318 13.7047 39.0677 13.6527 39.0134C13.6008 38.959 13.5385 38.9155 13.4697 38.8852C13.4008 38.855 13.3266 38.8388 13.2514 38.8374C13.1762 38.8359 13.1015 38.8494 13.0316 38.877C12.9616 38.9046 12.8978 38.9458 12.8438 38.9982C12.7899 39.0506 12.7468 39.1131 12.7171 39.1822ZM35.6402 30.2389C35.5021 30.1805 35.3466 30.1787 35.2073 30.2341C35.068 30.2895 34.9561 30.3975 34.8959 30.5348C34.8357 30.672 34.8319 30.8275 34.8855 30.9675C34.9391 31.1075 35.0456 31.2208 35.1821 31.2828L36.0198 31.6503C36.1577 31.708 36.3127 31.7091 36.4514 31.6536C36.5901 31.598 36.7015 31.4902 36.7616 31.3534C36.8216 31.2165 36.8255 31.0616 36.7724 30.9219C36.7194 30.7822 36.6136 30.6689 36.4778 30.6064L35.6402 30.2389ZM4.58851 17.8091C4.71937 17.8091 4.84625 17.7641 4.94785 17.6816C5.04945 17.5991 5.11958 17.4842 5.14647 17.3562C5.17337 17.2281 5.15538 17.0947 5.09553 16.9783C5.03568 16.8619 4.93762 16.7697 4.81781 16.7171L3.98015 16.3495C3.84212 16.291 3.68662 16.2893 3.54732 16.3447C3.40802 16.4 3.29613 16.508 3.2359 16.6453C3.17567 16.7826 3.17193 16.938 3.2255 17.078C3.27907 17.218 3.38563 17.3313 3.52211 17.3933L4.35976 17.7609C4.43184 17.7927 4.50974 17.8091 4.58851 17.8091ZM36.3231 17.0199L35.4709 17.3523C35.3313 17.4081 35.2194 17.5168 35.1596 17.6547C35.0997 17.7926 35.0968 17.9486 35.1515 18.0886C35.2061 18.2287 35.3139 18.3415 35.4513 18.4025C35.5887 18.4634 35.7446 18.4676 35.8852 18.4142L36.7373 18.0817C36.8769 18.026 36.9889 17.9173 37.0487 17.7794C37.1085 17.6414 37.1115 17.4855 37.0568 17.3454C37.0022 17.2053 36.8944 17.0925 36.757 17.0316C36.6196 16.9706 36.4636 16.9664 36.3231 17.0199ZM3.46984 31.0191C3.54066 31.0191 3.61085 31.0058 3.67679 30.98L4.52898 30.6475C4.66859 30.5917 4.7805 30.4831 4.84033 30.3451C4.90017 30.2072 4.90309 30.0512 4.84846 29.9112C4.79382 29.7711 4.68606 29.6583 4.54864 29.5974C4.41121 29.5364 4.25527 29.5322 4.11476 29.5857L3.26258 29.9181C3.13877 29.9664 3.03573 30.0564 2.97128 30.1726C2.90683 30.2889 2.88501 30.4239 2.90959 30.5545C2.93418 30.6851 3.00362 30.803 3.10592 30.8879C3.20822 30.9727 3.33695 31.0191 3.46984 31.0191ZM25.9095 39.1471C25.7686 39.202 25.6554 39.3106 25.5947 39.4491C25.534 39.5875 25.5307 39.7444 25.5856 39.8852L25.918 40.7374C25.9598 40.8443 26.0328 40.9362 26.1275 41.0009C26.2223 41.0657 26.3344 41.1003 26.4491 41.1003C26.5419 41.1003 26.6332 41.0777 26.7152 41.0343C26.7972 40.991 26.8674 40.9284 26.9197 40.8518C26.9719 40.7752 27.0048 40.687 27.0153 40.5949C27.0258 40.5028 27.0136 40.4095 26.9799 40.3231L26.6475 39.4709C26.6203 39.4012 26.5796 39.3375 26.5278 39.2835C26.476 39.2294 26.4141 39.1862 26.3456 39.1561C26.277 39.126 26.2032 39.1098 26.1284 39.1082C26.0536 39.1067 25.9792 39.1199 25.9095 39.1471ZM13.3437 6.9387C13.2029 6.99365 13.0897 7.10227 13.029 7.24068C12.9682 7.37909 12.965 7.53594 13.0199 7.67675L13.3524 8.52894C13.3941 8.63587 13.4671 8.72772 13.5619 8.79249C13.6566 8.85725 13.7687 8.8919 13.8835 8.8919C13.9762 8.89189 14.0676 8.86924 14.1496 8.82594C14.2315 8.78263 14.3017 8.71998 14.354 8.6434C14.4063 8.56683 14.4392 8.47866 14.4497 8.38653C14.4602 8.2944 14.448 8.20109 14.4143 8.11472L14.0818 7.26253C13.9674 6.96933 13.6369 6.82464 13.3437 6.9387Z" fill="black"/>
<path d="M23.7617 23.7149C25.2029 23.0775 26.1176 21.5255 26.1176 19.2251C26.1176 16.3178 24.6598 15.0831 22.6922 14.6413H22.7626V13.3482C22.7626 12.6341 22.1837 12.0552 21.4695 12.0552C20.7555 12.0552 20.1765 12.6341 20.1765 13.3482V14.4304H18.7628V13.3482C18.7628 12.6341 18.1838 12.0552 17.4698 12.0552C16.7556 12.0552 16.1767 12.6341 16.1767 13.3482V14.4304H14.2081C13.4532 14.4304 12.8413 15.0424 12.8413 15.7971C12.8413 16.5399 13.4341 17.1429 14.1723 17.1621V31.9585C13.4341 31.9776 12.8413 32.5806 12.8413 33.3234C12.8413 34.0782 13.4532 34.6901 14.2081 34.6901H16.1767V35.8402C16.1767 36.5543 16.7556 37.1332 17.4698 37.1332C18.1838 37.1332 18.7628 36.5543 18.7628 35.8402V34.6901H20.1765V35.8402C20.1765 36.5543 20.7555 37.1332 21.4695 37.1332C22.1837 37.1332 22.7626 36.5543 22.7626 35.8402V34.5471H22.632C24.9626 34.0824 26.6163 32.4268 26.6163 28.8699V28.3432C26.6163 25.5165 25.4802 24.3801 23.7617 23.7149ZM17.0823 17.0355H20.325C22.071 17.0355 23.1796 17.8393 23.1796 19.6962C23.1796 21.5808 22.265 22.551 20.3806 22.551H17.0823V17.0355ZM23.6786 28.6482C23.6786 31.0317 22.5145 32.0849 20.5467 32.0849H17.0823V24.8789H20.5467C22.5145 24.8789 23.6786 25.7658 23.6786 28.2048V28.6482Z" fill="#FF901D"/>
<path d="M21.4695 37.7191C20.4334 37.7191 19.5906 36.8761 19.5906 35.8401V35.2759H19.3488V35.8401C19.3488 36.8761 18.5058 37.7191 17.4698 37.7191C16.4338 37.7191 15.5908 36.8761 15.5908 35.8401V35.2759H14.2081C13.1313 35.2759 12.2554 34.4 12.2554 33.3233C12.2554 32.4567 12.8072 31.7285 13.5863 31.4713V17.649C12.8072 17.3918 12.2554 16.6636 12.2554 15.797C12.2554 14.7203 13.1313 13.8444 14.2081 13.8444H15.5908V13.3481C15.5908 12.312 16.4337 11.4691 17.4698 11.4691C18.5059 11.4691 19.3488 12.3121 19.3488 13.3481V13.8444H19.5906V13.3481C19.5906 12.312 20.4334 11.4691 21.4695 11.4691C22.5056 11.4691 23.3486 12.3121 23.3486 13.3481V14.2097C25.5754 14.8992 26.7035 16.5839 26.7035 19.225C26.7035 21.1577 26.0816 22.7109 24.9647 23.6492C26.5036 24.5808 27.2023 26.0697 27.2022 28.3431V28.8697C27.2022 32.8711 25.2279 34.4125 23.3486 34.9728V35.8401C23.3485 36.8761 22.5055 37.7191 21.4695 37.7191ZM18.7628 34.1041H20.1765C20.5002 34.1041 20.7624 34.3664 20.7624 34.6901V35.8401C20.7624 36.2301 21.0797 36.5473 21.4695 36.5473C21.8595 36.5473 22.1767 36.2301 22.1767 35.8401V34.9159C22.1132 34.8375 22.0711 34.7441 22.0543 34.6446C22.0375 34.5451 22.0467 34.443 22.081 34.3481C22.1153 34.2532 22.1734 34.1688 22.2499 34.103C22.3263 34.0372 22.4185 33.9922 22.5174 33.9725C24.8484 33.5076 26.0303 31.7908 26.0303 28.8699V28.3433C26.0305 25.7523 25.0391 24.8377 23.5503 24.2615C23.4422 24.2196 23.349 24.1467 23.2824 24.0519C23.2157 23.9571 23.1787 23.8447 23.176 23.7288C23.1732 23.613 23.2049 23.4989 23.267 23.4011C23.3291 23.3032 23.4188 23.226 23.5248 23.1791C24.8189 22.6067 25.5316 21.2025 25.5316 19.2251C25.5316 16.9426 24.5886 15.6677 22.5638 15.213C22.4755 15.1932 22.3929 15.1532 22.3227 15.0961C22.2524 15.039 22.1963 14.9665 22.1588 14.8841C22.1213 14.8017 22.1033 14.7117 22.1064 14.6212C22.1095 14.5307 22.1336 14.4422 22.1766 14.3626V13.3483C22.1766 12.9583 21.8594 12.6411 21.4695 12.6411C21.0796 12.6411 20.7623 12.9584 20.7623 13.3483V14.4304C20.7623 14.5858 20.7006 14.7349 20.5907 14.8448C20.4808 14.9546 20.3318 15.0164 20.1764 15.0164H18.7627C18.6073 15.0164 18.4583 14.9546 18.3484 14.8448C18.2385 14.7349 18.1768 14.5858 18.1768 14.4304V13.3483C18.1768 12.9583 17.8595 12.6411 17.4697 12.6411C17.0798 12.6411 16.7626 12.9584 16.7626 13.3483V14.4304C16.7626 14.5858 16.7008 14.7349 16.591 14.8448C16.4811 14.9546 16.332 15.0164 16.1766 15.0164H14.208C13.7775 15.0164 13.4272 15.3666 13.4272 15.7972C13.4272 16.223 13.7611 16.5653 14.1873 16.5764C14.3401 16.5803 14.4852 16.6438 14.5918 16.7532C14.6985 16.8626 14.7581 17.0094 14.7581 17.1622V31.9586C14.7581 32.1113 14.6984 32.2581 14.5918 32.3675C14.4852 32.4769 14.3401 32.5403 14.1873 32.5443C13.7611 32.5554 13.4272 32.8976 13.4272 33.3235C13.4272 33.754 13.7774 34.1043 14.208 34.1043H16.1766C16.332 34.1043 16.4811 34.166 16.591 34.2759C16.7008 34.3858 16.7626 34.5348 16.7626 34.6902V35.8403C16.7626 36.2302 17.0798 36.5475 17.4697 36.5475C17.8596 36.5475 18.1768 36.2302 18.1768 35.8403V34.6902C18.1768 34.6132 18.1919 34.537 18.2214 34.4659C18.2508 34.3948 18.294 34.3302 18.3484 34.2758C18.4028 34.2214 18.4674 34.1782 18.5385 34.1487C18.6096 34.1193 18.6859 34.1041 18.7628 34.1041ZM20.5467 32.6708H17.0823C16.9269 32.6708 16.7778 32.6091 16.6679 32.4992C16.5581 32.3893 16.4963 32.2403 16.4963 32.0849V24.8789C16.4963 24.7235 16.5581 24.5744 16.6679 24.4646C16.7778 24.3547 16.9269 24.2929 17.0823 24.2929H20.5467C23.0137 24.2929 24.2645 25.6091 24.2645 28.2047V28.6482C24.2645 31.2422 22.9442 32.6708 20.5467 32.6708ZM17.6682 31.499H20.5467C22.2836 31.499 23.0927 30.5931 23.0927 28.6482V28.2047C23.0927 26.2586 22.3551 25.4648 20.5467 25.4648H17.6682V31.499ZM20.3806 23.1368H17.0823C17.0053 23.1368 16.9291 23.1217 16.858 23.0922C16.787 23.0628 16.7224 23.0196 16.6679 22.9652C16.6135 22.9108 16.5704 22.8462 16.5409 22.7751C16.5115 22.7041 16.4963 22.6279 16.4963 22.5509V17.0354C16.4963 16.88 16.5581 16.731 16.6679 16.6211C16.7778 16.5112 16.9269 16.4495 17.0823 16.4495H20.325C22.5115 16.4495 23.7656 17.6329 23.7656 19.6961C23.7656 21.915 22.5634 23.1368 20.3806 23.1368ZM17.6682 21.965H20.3806C21.9318 21.965 22.5937 21.2865 22.5937 19.6961C22.5937 18.8055 22.3584 17.6214 20.325 17.6214H17.6682V21.965Z" fill="#1A1A1A"/>
</svg>
