<svg width="48" height="48" viewBox="0 0 48 48" fill="none" xmlns="http://www.w3.org/2000/svg">
<path d="M42 41.25V36H37.5V41.25L36 43.5V45.75H45.75V42L42 41.25Z" fill="#E0B999"/>
<path d="M36 44.25V45.75H45.75V42L43 41.45L36 44.25Z" fill="#EB423F"/>
<path d="M21.75 39.75V36H26.25V39.75L33 42.75V45.75H14.25V42.75L21.75 39.75Z" fill="#E9EEF2"/>
<path d="M21 39L20.25 42.75L24 42L27.75 42.75L27 39H21Z" fill="#D0D2D4"/>
<path d="M6 40.5V36H10.5V40.5L11.25 42.75V45.75H2.25V44.25L6 40.5Z" fill="#E0B999"/>
<path d="M11.25 42.75V45.75H2.25V44.25L6 40.5L11.25 42.75Z" fill="#2D85CC"/>
<path d="M18 27.75V33.75C18 35.3413 18.6321 36.8674 19.7574 37.9926C20.8826 39.1179 22.4087 39.75 24 39.75C25.5913 39.75 27.1174 39.1179 28.2426 37.9926C29.3679 36.8674 30 35.3413 30 33.75V27.75H18ZM8.25 27.75C8.25 27.75 12.0234 27.75 12.75 30C13.4766 32.25 15 33.8672 15 34.5C15 35.1328 12.75 35.25 12.75 35.25C12.75 35.25 13.3594 39 8.25 39C3.14062 39 3 33 3 33C3 33 2.27344 27.75 8.25 27.75ZM39.7219 27.75C39.7219 27.75 35.9484 27.75 35.2219 30C34.4953 32.25 32.9719 33.8672 32.9719 34.5C32.9719 35.1328 35.2219 35.25 35.2219 35.25C35.2219 35.25 34.6125 39 39.7219 39C44.8312 39 44.9719 33 44.9719 33C44.9719 33 45.6988 27.75 39.7219 27.75Z" fill="#F0C6A4"/>
<path d="M12.75 29.25H7.5L5.25 33H3L2.25 27.75C2.25 27.75 2.28122 24.75 4.5 24.75H15.75L12.75 29.25ZM35.25 29.25H40.5L42 42.75H45.75V27.75C45.75 27.75 45.7188 24.75 43.5 24.75H38.25C37.4543 24.75 36.6913 25.0661 36.1287 25.6287C35.5661 26.1913 35.25 26.9544 35.25 27.75V29.25ZM19.5 29.25H28.5L30 33.75V26.25L28.5 24.75H19.5L18 26.25V33L19.5 29.25Z" fill="#95573A"/>
<path d="M12 3.75H36V20.25H12V3.75Z" fill="#E9EEF2"/>
<path d="M16.5 16.5C17.3284 16.5 18 15.8284 18 15C18 14.1716 17.3284 13.5 16.5 13.5C15.6716 13.5 15 14.1716 15 15C15 15.8284 15.6716 16.5 16.5 16.5Z" fill="#35A872"/>
<path d="M24.75 11.25C25.5784 11.25 26.25 10.5784 26.25 9.75C26.25 8.92157 25.5784 8.25 24.75 8.25C23.9216 8.25 23.25 8.92157 23.25 9.75C23.25 10.5784 23.9216 11.25 24.75 11.25Z" fill="#35A872"/>
<path d="M30 12.75H33V20.25H30V12.75ZM24 15H27V20.25H24V15ZM18 17.25H21V20.25H18V17.25Z" fill="#2D85CC"/>
<path d="M10.5 2.25H37.5V5.25H10.5V2.25Z" fill="#EB423F"/>
<path d="M9.75 33C10.1642 33 10.5 32.6642 10.5 32.25C10.5 31.8358 10.1642 31.5 9.75 31.5C9.33579 31.5 9 31.8358 9 32.25C9 32.6642 9.33579 33 9.75 33Z" fill="black"/>
<path d="M37.5 33C37.9142 33 38.25 32.6642 38.25 32.25C38.25 31.8358 37.9142 31.5 37.5 31.5C37.0858 31.5 36.75 31.8358 36.75 32.25C36.75 32.6642 37.0858 33 37.5 33Z" fill="black"/>
<path d="M21.75 33C22.1642 33 22.5 32.6642 22.5 32.25C22.5 31.8358 22.1642 31.5 21.75 31.5C21.3358 31.5 21 31.8358 21 32.25C21 32.6642 21.3358 33 21.75 33Z" fill="black"/>
<path d="M26.25 33C26.6642 33 27 32.6642 27 32.25C27 31.8358 26.6642 31.5 26.25 31.5C25.8358 31.5 25.5 31.8358 25.5 32.25C25.5 32.6642 25.8358 33 26.25 33Z" fill="black"/>
<path d="M43.5 24H41.25V9.75C41.25 9.55109 41.171 9.36032 41.0303 9.21967C40.8897 9.07902 40.6989 9 40.5 9H36.75V6H37.5C37.6989 6 37.8897 5.92098 38.0303 5.78033C38.171 5.63968 38.25 5.44891 38.25 5.25V2.25C38.25 2.05109 38.171 1.86032 38.0303 1.71967C37.8897 1.57902 37.6989 1.5 37.5 1.5H10.5C10.3011 1.5 10.1103 1.57902 9.96967 1.71967C9.82902 1.86032 9.75 2.05109 9.75 2.25V5.25C9.75 5.44891 9.82902 5.63968 9.96967 5.78033C10.1103 5.92098 10.3011 6 10.5 6H11.25V9H7.5C7.30109 9 7.11033 9.07902 6.96967 9.21967C6.82902 9.36032 6.75 9.55109 6.75 9.75V24H4.5C2.15785 24 1.5136 26.4478 1.5 27.7422C1.4996 27.7803 1.50211 27.8184 1.5075 27.8561L2.25197 33.0674C2.31646 34.1845 2.57812 35.2814 3.02485 36.3073C3.55641 37.4906 4.30782 38.3804 5.25 38.9588V40.1894L1.71966 43.7197C1.65002 43.7893 1.59477 43.872 1.55709 43.963C1.5194 44.054 1.5 44.1515 1.5 44.25V45.75C1.5 45.9489 1.57902 46.1397 1.71967 46.2803C1.86033 46.421 2.05109 46.5 2.25 46.5H11.25C11.4489 46.5 11.6397 46.421 11.7803 46.2803C11.921 46.1397 12 45.9489 12 45.75V42.75C12 42.6694 11.987 42.5893 11.9616 42.5128L11.25 40.3781V39.1808C11.7763 38.9422 12.2444 38.5921 12.6221 38.1548C13.1458 37.5257 13.4562 36.7467 13.5088 35.93C13.6682 35.9091 13.8422 35.8824 14.0169 35.8488C14.4456 35.7662 15.75 35.5148 15.75 34.5C15.75 34.0114 15.4388 33.5118 14.9677 32.7557C14.4684 31.9544 13.8472 30.9572 13.4637 29.7696C13.4468 29.7172 13.4281 29.6656 13.4085 29.6143L16.374 25.1661C16.4493 25.0531 16.4926 24.9218 16.4991 24.7862C16.5057 24.6507 16.4753 24.5158 16.4113 24.3961C16.3472 24.2764 16.2519 24.1764 16.1354 24.1066C16.019 24.0368 15.8858 24 15.75 24H8.25V10.5H11.25V20.25C11.25 20.4489 11.329 20.6397 11.4697 20.7803C11.6103 20.921 11.8011 21 12 21H23.25V24H19.5C19.4015 24 19.304 24.0194 19.213 24.0571C19.122 24.0948 19.0393 24.15 18.9697 24.2197L17.4697 25.7197C17.4 25.7893 17.3448 25.872 17.3071 25.963C17.2694 26.054 17.25 26.1515 17.25 26.25V33.75C17.2504 34.8438 17.5167 35.9212 18.0261 36.8892C18.5354 37.8572 19.2725 38.6868 20.1738 39.3067L20.1159 39.5959L13.9715 42.0536C13.8323 42.1093 13.713 42.2054 13.629 42.3295C13.5449 42.4536 13.5 42.6001 13.5 42.75V45.75C13.5 45.9489 13.579 46.1397 13.7197 46.2803C13.8603 46.421 14.0511 46.5 14.25 46.5H33C33.1989 46.5 33.3897 46.421 33.5303 46.2803C33.671 46.1397 33.75 45.9489 33.75 45.75V42.75C33.75 42.6049 33.7079 42.4629 33.6289 42.3413C33.5498 42.2196 33.4372 42.1235 33.3046 42.0646L27.8971 39.6613L27.8262 39.3067C28.7275 38.6868 29.4646 37.8572 29.9739 36.8892C30.4833 35.9212 30.7496 34.8438 30.75 33.75V26.25C30.75 26.1515 30.7306 26.054 30.6929 25.963C30.6552 25.872 30.6 25.7893 30.5303 25.7197L29.0303 24.2197C28.9607 24.15 28.878 24.0948 28.787 24.0571C28.696 24.0194 28.5985 24 28.5 24H24.75V21H36C36.1989 21 36.3897 20.921 36.5303 20.7803C36.671 20.6397 36.75 20.4489 36.75 20.25V10.5H39.75V24H38.25C37.2558 24.0011 36.3026 24.3965 35.5995 25.0995C34.8965 25.8026 34.5011 26.7558 34.5 27.75V29.1281C34.1301 30.2335 33.5513 31.3845 33.0828 32.3156C32.5015 33.4703 32.2222 34.0455 32.2222 34.5006C32.2222 35.5153 33.5266 35.7668 33.9552 35.8493C34.13 35.883 34.3038 35.9096 34.4633 35.9305C34.516 36.7473 34.8264 37.5263 35.35 38.1553C35.7347 38.6001 36.2127 38.9547 36.75 39.1938V41.0229L35.376 43.0839C35.2939 43.2072 35.25 43.3519 35.25 43.5V45.75C35.25 45.9489 35.329 46.1397 35.4697 46.2803C35.6103 46.421 35.8011 46.5 36 46.5H45.75C45.9489 46.5 46.1397 46.421 46.2803 46.2803C46.421 46.1397 46.5 45.9489 46.5 45.75V27.7422C46.4864 26.4478 45.8422 24 43.5 24ZM3 45V44.5606L6.17129 41.3894L10.5 43.2445V45H3ZM9.78844 40.7372L10.0103 41.4028L6.75 40.0055V39.5782C7.24138 39.6949 7.74495 39.7526 8.25 39.75C8.75242 39.7524 9.25416 39.713 9.75 39.632V40.5C9.75003 40.5806 9.76301 40.6607 9.78844 40.7372ZM13.6945 33.5488C13.8454 33.7909 14.0198 34.071 14.134 34.2807C13.6687 34.4037 13.1917 34.4775 12.711 34.501C12.6058 34.5065 12.5029 34.5341 12.409 34.582C12.3152 34.6299 12.2325 34.6971 12.1663 34.7791C12.1002 34.8611 12.052 34.9561 12.025 35.058C11.9981 35.1599 11.9929 35.2663 12.0098 35.3703C12.0321 35.5799 12.0273 35.7916 11.9953 36C11.9686 36.0001 11.942 36.0015 11.9154 36.0044C11.8972 36.0064 10.1098 36.1929 8.62022 35.3474C8.53457 35.2988 8.44018 35.2675 8.34244 35.2553C8.2447 35.2432 8.14552 35.2504 8.05057 35.2766C7.85881 35.3295 7.6959 35.4563 7.59769 35.6293C7.54906 35.715 7.51778 35.8094 7.50563 35.9071C7.49347 36.0048 7.50069 36.104 7.52687 36.199C7.57974 36.3907 7.70662 36.5536 7.8796 36.6518C9.03619 37.3081 10.2877 37.4841 11.1233 37.5174C10.4872 38.0035 9.52444 38.25 8.25 38.25C4.9125 38.25 4.04907 35.2156 3.8265 33.75H5.25C5.37952 33.75 5.50683 33.7165 5.61953 33.6527C5.73223 33.5888 5.82649 33.4969 5.89313 33.3859L7.9246 30H11.9395C11.9779 30.0741 12.0103 30.1511 12.0363 30.2304C12.4765 31.5938 13.1805 32.7237 13.6945 33.5488ZM12.3487 28.5H7.5C7.37049 28.5 7.24318 28.5335 7.13048 28.5973C7.01777 28.6612 6.92351 28.7531 6.85688 28.8641L4.82541 32.25H3.65044L3.00169 27.708C3.0166 27.3618 3.15938 25.5 4.5 25.5H14.3486L12.3487 28.5ZM23.25 41.3851L21.2063 41.7937L21.557 40.0406C22.1007 40.2528 22.6699 40.3929 23.25 40.4573V41.3851ZM15 43.2577L19.7648 41.3518L19.5145 42.6029C19.4903 42.724 19.4964 42.8492 19.5321 42.9674C19.5679 43.0855 19.6323 43.1931 19.7196 43.2804C19.8069 43.3677 19.9145 43.4321 20.0326 43.4679C20.1508 43.5037 20.276 43.5097 20.3971 43.4855L23.25 42.9148V45H15V43.2577ZM32.25 43.2374V45H24.75V42.9148L27.6029 43.4855C27.724 43.5097 27.8492 43.5037 27.9674 43.4679C28.0855 43.4321 28.1931 43.3677 28.2804 43.2804C28.3677 43.1931 28.4321 43.0855 28.4679 42.9674C28.5037 42.8492 28.5097 42.724 28.4855 42.6029L28.2575 41.4629L32.25 43.2374ZM26.7938 41.7937L24.75 41.3851V40.457C25.3302 40.3925 25.8994 40.2523 26.4432 40.0401L26.7938 41.7937ZM24 39C22.6279 38.9983 21.3109 38.46 20.3304 37.5001C19.3499 36.5403 18.7838 35.235 18.7529 33.8633L20.0406 30H27.9594L29.2471 33.8633C29.2162 35.235 28.6501 36.5403 27.6696 37.5001C26.6891 38.46 25.3721 38.9983 24 39ZM29.25 26.5606V29.1281L29.2116 29.0126C29.1618 28.8633 29.0662 28.7335 28.9385 28.6415C28.8108 28.5495 28.6574 28.5 28.5 28.5H19.5C19.3426 28.5 19.1892 28.5495 19.0614 28.6415C18.9337 28.7336 18.8382 28.8635 18.7884 29.0128L18.75 29.1281V26.5606L19.8106 25.5H28.1894L29.25 26.5606ZM11.25 3H36.75V4.5H11.25V3ZM33.75 6L29.75 9H26.871C26.7659 8.702 26.5991 8.42949 26.3816 8.20024C26.1641 7.97099 25.9008 7.79013 25.6087 7.66945C25.3166 7.54878 25.0024 7.49099 24.6866 7.49985C24.3707 7.50871 24.0602 7.58403 23.7754 7.7209C23.4905 7.85776 23.2377 8.0531 23.0334 8.29419C22.8291 8.53528 22.6779 8.81671 22.5897 9.12014C22.5014 9.42357 22.478 9.74219 22.5211 10.0552C22.5642 10.3683 22.6728 10.6688 22.8398 10.9371L21.3223 12.8338L18.259 13.5997C17.9323 13.1892 17.4725 12.9059 16.959 12.7987C16.4455 12.6915 15.9106 12.7671 15.447 13.0125C14.9834 13.2579 14.6201 13.6576 14.42 14.1425C14.2199 14.6274 14.1955 15.167 14.3512 15.668L12.75 17.9097V6H33.75ZM24 9.75C24 9.60166 24.044 9.45666 24.1264 9.33332C24.2088 9.20999 24.3259 9.11386 24.463 9.05709C24.6 9.00032 24.7508 8.98547 24.8963 9.01441C25.0418 9.04335 25.1754 9.11478 25.2803 9.21967C25.3852 9.32456 25.4567 9.4582 25.4856 9.60368C25.5145 9.74917 25.4997 9.89997 25.4429 10.037C25.3861 10.1741 25.29 10.2912 25.1667 10.3736C25.0433 10.456 24.8983 10.5 24.75 10.5C24.5512 10.4998 24.3605 10.4207 24.2199 10.2801C24.0793 10.1395 24.0002 9.94884 24 9.75ZM15.75 15C15.75 14.8517 15.794 14.7067 15.8764 14.5833C15.9588 14.46 16.0759 14.3639 16.213 14.3071C16.35 14.2503 16.5008 14.2355 16.6463 14.2644C16.7918 14.2934 16.9254 14.3648 17.0303 14.4697C17.1352 14.5746 17.2067 14.7082 17.2356 14.8537C17.2645 14.9992 17.2497 15.15 17.1929 15.287C17.1361 15.4241 17.04 15.5412 16.9167 15.6236C16.7933 15.706 16.6483 15.75 16.5 15.75C16.3012 15.7498 16.1105 15.6707 15.9699 15.5301C15.8293 15.3895 15.7502 15.1988 15.75 15ZM15.3094 16.9076C15.5978 17.0883 15.9236 17.201 16.262 17.2372C16.6004 17.2735 16.9427 17.2323 17.2628 17.1168C17.2546 17.1607 17.2503 17.2053 17.25 17.25V19.5H13.4573L15.3094 16.9076ZM18.75 19.5V18H20.25V19.5H18.75ZM24.75 19.5V15.75H26.25V19.5H24.75ZM30.75 19.5V13.5H32.25V19.5H30.75ZM33.75 19.5V12.75C33.75 12.5511 33.671 12.3603 33.5303 12.2197C33.3897 12.079 33.1989 12 33 12H30C29.8011 12 29.6103 12.079 29.4697 12.2197C29.329 12.3603 29.25 12.5511 29.25 12.75V19.5H27.75V15C27.75 14.8011 27.671 14.6103 27.5303 14.4697C27.3897 14.329 27.1989 14.25 27 14.25H24C23.8011 14.25 23.6103 14.329 23.4697 14.4697C23.329 14.6103 23.25 14.8011 23.25 15V19.5H21.75V17.25C21.75 17.0511 21.671 16.8603 21.5303 16.7197C21.3897 16.579 21.1989 16.5 21 16.5H18.1752C18.5401 16.0941 18.7443 15.569 18.7494 15.0233L21.9319 14.2276C22.0912 14.1878 22.233 14.0969 22.3357 13.9688L24.0108 11.8749C24.5724 12.0707 25.1888 12.036 25.7249 11.7783C26.261 11.5206 26.6731 11.0609 26.871 10.5H30C30.1623 10.5 30.3202 10.4474 30.45 10.35L35.25 6.75V19.5H33.75ZM36 27.75C36.0006 27.1535 36.2379 26.5815 36.6597 26.1597C37.0815 25.7379 37.6535 25.5006 38.25 25.5H43.5C44.9306 25.5 44.9973 27.6215 45 27.7563V42H42.6713L41.2454 29.1671C41.225 28.9837 41.1377 28.8142 41.0002 28.6911C40.8627 28.5681 40.6846 28.5 40.5 28.5H36V27.75ZM35.2616 34.501C34.77 34.4778 34.2823 34.4008 33.8074 34.2713C33.9413 33.9458 34.2018 33.4276 34.4226 32.9895C34.8592 32.1221 35.3874 31.072 35.7833 30H39.8288L40.7342 38.149C40.4011 38.2176 40.0619 38.2514 39.7219 38.25C38.4656 38.25 37.512 38.0108 36.8759 37.5388C37.2546 37.4994 37.6219 37.3856 37.9565 37.204C38.2911 37.0223 38.5866 36.7763 38.8259 36.4801C38.9519 36.3271 39.0122 36.1305 38.9937 35.9332C38.9752 35.7359 38.8794 35.5539 38.7271 35.4271C38.5749 35.3002 38.3786 35.2388 38.1812 35.2561C37.9838 35.2735 37.8013 35.3684 37.6735 35.5199C37.4993 35.7339 37.2686 35.8947 37.0077 35.9842C36.7467 36.0737 36.4658 36.0882 36.197 36.0262L36.2058 36.0287L36.0848 36.4518C35.9691 36.1037 35.9273 35.7353 35.9622 35.3701C35.9791 35.2661 35.9739 35.1597 35.947 35.0579C35.92 34.9561 35.8719 34.8611 35.8058 34.779C35.7397 34.697 35.657 34.6299 35.5632 34.5819C35.4694 34.534 35.3665 34.5064 35.2613 34.5008L35.2616 34.501ZM39.7219 39.75C40.117 39.7509 40.5114 39.7157 40.9001 39.6448L41.0792 41.2573L37.3233 42.8671L38.1237 41.6663C38.206 41.5431 38.2499 41.3982 38.25 41.25V39.6369C38.7368 39.7145 39.229 39.7523 39.7219 39.75ZM36.75 45V44.7445L41.2526 42.8149L41.2546 42.8329C41.275 43.0163 41.3623 43.1858 41.4998 43.3089C41.6374 43.4319 41.8154 43.5 42 43.5H45V45H36.75Z" fill="black"/>
<path d="M21.334 36.6242C22.1229 37.1522 23.0508 37.434 24 37.434C24.9493 37.434 25.8772 37.1522 26.6661 36.6242C26.7491 36.57 26.8205 36.5 26.8763 36.418C26.932 36.3361 26.971 36.2439 26.9909 36.1468C27.0108 36.0497 27.0113 35.9496 26.9923 35.8523C26.9733 35.7551 26.9352 35.6625 26.8803 35.5801C26.8253 35.4976 26.7545 35.4268 26.672 35.3719C26.5895 35.3169 26.4969 35.2789 26.3997 35.2599C26.3024 35.241 26.2023 35.2415 26.1052 35.2615C26.0081 35.2814 25.916 35.3204 25.834 35.3762C25.2913 35.7394 24.653 35.9332 24 35.9332C23.3471 35.9332 22.7088 35.7394 22.1661 35.3762C22.0006 35.2682 21.7991 35.2299 21.6055 35.2696C21.4119 35.3093 21.2418 35.4239 21.1322 35.5883C21.0226 35.7527 20.9823 35.9538 21.0201 36.1478C21.0579 36.3417 21.1707 36.513 21.334 36.6242Z" fill="black"/>
</svg>
