<svg width="48" height="48" viewBox="0 0 48 48" fill="none" xmlns="http://www.w3.org/2000/svg">
<path d="M40.7617 26.9163H38.4367C38.3123 26.9163 38.1931 26.8669 38.1052 26.779C38.0173 26.6911 37.9679 26.5719 37.9679 26.4476V24.1225C37.9679 23.9982 38.0173 23.8789 38.1052 23.791C38.1931 23.7031 38.3123 23.6537 38.4367 23.6537H40.7617C40.8861 23.6537 41.0053 23.7031 41.0932 23.791C41.1811 23.8789 41.2305 23.9982 41.2305 24.1225V26.4476C41.2305 26.5719 41.1811 26.6911 41.0932 26.779C41.0053 26.8669 40.8861 26.9163 40.7617 26.9163ZM7.23825 26.9163H9.56334C9.68766 26.9163 9.80689 26.8669 9.8948 26.779C9.98271 26.6911 10.0321 26.5719 10.0321 26.4476V24.1225C10.0321 23.9982 9.98271 23.8789 9.8948 23.791C9.80689 23.7031 9.68766 23.6537 9.56334 23.6537H7.23825C7.11393 23.6537 6.9947 23.7031 6.90679 23.791C6.81889 23.8789 6.7695 23.9982 6.7695 24.1225V26.4476C6.7695 26.5719 6.81889 26.6911 6.90679 26.779C6.9947 26.8669 7.11393 26.9163 7.23825 26.9163ZM40.7617 10.8073H38.4367C38.3123 10.8073 38.1931 10.7579 38.1052 10.67C38.0173 10.5821 37.9679 10.4628 37.9679 10.3385V8.01343C37.9679 7.88911 38.0173 7.76988 38.1052 7.68197C38.1931 7.59406 38.3123 7.54468 38.4367 7.54468H40.7617C40.8861 7.54468 41.0053 7.59406 41.0932 7.68197C41.1811 7.76988 41.2305 7.88911 41.2305 8.01343V10.3385C41.2305 10.4628 41.1811 10.5821 41.0932 10.67C41.0053 10.7579 40.8861 10.8073 40.7617 10.8073ZM7.23825 10.8073H9.56334C9.68766 10.8073 9.80689 10.7579 9.8948 10.67C9.98271 10.5821 10.0321 10.4628 10.0321 10.3385V8.01343C10.0321 7.88911 9.98271 7.76988 9.8948 7.68197C9.80689 7.59406 9.68766 7.54468 9.56334 7.54468H7.23825C7.11393 7.54468 6.9947 7.59406 6.90679 7.68197C6.81889 7.76988 6.7695 7.88911 6.7695 8.01343V10.3385C6.7695 10.4628 6.81889 10.5821 6.90679 10.67C6.9947 10.7579 7.11393 10.8073 7.23825 10.8073ZM40.7617 18.8618H38.4367C38.3123 18.8618 38.1931 18.8124 38.1052 18.7245C38.0173 18.6366 37.9679 18.5174 37.9679 18.3931V16.068C37.9679 15.9436 38.0173 15.8244 38.1052 15.7365C38.1931 15.6486 38.3123 15.5992 38.4367 15.5992H40.7617C40.8861 15.5992 41.0053 15.6486 41.0932 15.7365C41.1811 15.8244 41.2305 15.9436 41.2305 16.068V18.3931C41.2305 18.5174 41.1811 18.6366 41.0932 18.7245C41.0053 18.8124 40.8861 18.8618 40.7617 18.8618ZM7.23825 18.8618H9.56334C9.68766 18.8618 9.80689 18.8124 9.8948 18.7245C9.98271 18.6366 10.0321 18.5174 10.0321 18.3931V16.068C10.0321 15.9436 9.98271 15.8244 9.8948 15.7365C9.80689 15.6486 9.68766 15.5992 9.56334 15.5992H7.23825C7.11393 15.5992 6.9947 15.6486 6.90679 15.7365C6.81889 15.8244 6.7695 15.9436 6.7695 16.068V18.3931C6.7695 18.5174 6.81889 18.6366 6.90679 18.7245C6.9947 18.8124 7.11393 18.8618 7.23825 18.8618ZM46.8281 32.0141H44.503C44.3787 32.0141 44.2595 31.9647 44.1716 31.8768C44.0837 31.7889 44.0343 31.6697 44.0343 31.5453V29.2202C44.0343 29.0959 44.0837 28.9767 44.1716 28.8888C44.2595 28.8009 44.3787 28.7515 44.503 28.7515H46.8281C46.9524 28.7515 47.0717 28.8009 47.1596 28.8888C47.2475 28.9767 47.2969 29.0959 47.2969 29.2202V31.5453C47.2969 31.6697 47.2475 31.7889 47.1596 31.8768C47.0717 31.9647 46.9524 32.0141 46.8281 32.0141ZM1.17188 32.0141H3.49697C3.62129 32.0141 3.74052 31.9647 3.82842 31.8768C3.91633 31.7889 3.96572 31.6697 3.96572 31.5453V29.2202C3.96572 29.0959 3.91633 28.9767 3.82842 28.8888C3.74052 28.8009 3.62129 28.7515 3.49697 28.7515H1.17188C1.04755 28.7515 0.928326 28.8009 0.840419 28.8888C0.752511 28.9767 0.703125 29.0959 0.703125 29.2202V31.5453C0.703125 31.6697 0.752511 31.7889 0.840419 31.8768C0.928326 31.9647 1.04755 32.0141 1.17188 32.0141Z" fill="#00F2A6"/>
<path d="M15.5084 20.5303V7.30347C15.5084 6.2679 16.3478 5.42847 17.3834 5.42847H30.6103C31.6459 5.42847 32.4853 6.2679 32.4853 7.30347V20.5303C32.4853 21.5658 31.6459 22.4053 30.6103 22.4053H17.3834C16.3479 22.4053 15.5084 21.5658 15.5084 20.5303Z" fill="#B9ACAC"/>
<path d="M30.6103 5.42847H29.7188V17.7186C29.7188 18.7542 28.8793 19.5936 27.8438 19.5936H15.5084V20.5303C15.5084 21.5658 16.3478 22.4053 17.3834 22.4053H30.6103C31.6459 22.4053 32.4853 21.5658 32.4853 20.5303V7.30347C32.4853 6.2679 31.6459 5.42847 30.6103 5.42847Z" fill="#9E9797"/>
<path d="M34.7874 44.8392H13.2126C12.6948 44.8392 12.2751 44.4195 12.2751 43.9017V37.2368C12.2751 32.5059 16.1103 28.6707 20.8412 28.6707H27.1587C31.8896 28.6707 35.7248 32.5059 35.7248 37.2368V43.9017C35.7249 44.4195 35.3052 44.8392 34.7874 44.8392Z" fill="#E1D3CE"/>
<path d="M34.7874 44.8392H13.2126C12.6948 44.8392 12.2751 44.4195 12.2751 43.9017V37.2368C12.2751 32.5059 16.1103 28.6707 20.8412 28.6707H27.1587C31.8896 28.6707 35.7248 32.5059 35.7248 37.2368V43.9017C35.7249 44.4195 35.3052 44.8392 34.7874 44.8392Z" fill="#E1D3CE"/>
<path d="M32.9185 30.896V41.1059C32.9185 41.6237 32.4988 42.0434 31.981 42.0434H12.2751V43.9017C12.2751 44.4194 12.6948 44.8392 13.2126 44.8392H34.7873C35.3051 44.8392 35.7248 44.4194 35.7248 43.9017V37.2367C35.7249 34.7234 34.6426 32.463 32.9185 30.896Z" fill="#CDBFBA"/>
<path d="M12.2751 38.6738V43.9018C12.2751 44.4196 12.6948 44.8393 13.2126 44.8393H18.3976C17.6317 41.8318 15.2743 39.4604 12.2751 38.6738Z" fill="#CDBFBA"/>
<path d="M12.2751 42.0435V43.9017C12.2751 44.4195 12.6948 44.8392 13.2126 44.8392H18.3976C18.1418 43.8369 17.7058 42.8896 17.1108 42.0435H12.2751Z" fill="#B9ACAC"/>
<path d="M35.7249 38.6738C32.7257 39.4604 30.3684 41.8318 29.6024 44.8393H34.7874C35.3052 44.8393 35.7249 44.4196 35.7249 43.9018V38.6738Z" fill="#CDBFBA"/>
<path d="M32.9185 39.994V41.1061C32.9185 41.6239 32.4988 42.0436 31.981 42.0436H30.8892C30.2942 42.8897 29.8582 43.837 29.6024 44.8393H34.7874C35.3052 44.8393 35.7249 44.4196 35.7249 43.9018V38.6738C34.7167 38.9387 33.7655 39.3862 32.9185 39.994Z" fill="#B9ACAC"/>
<path d="M20.0536 38.7186H27.9465C29.7587 38.7186 31.2278 37.2495 31.2278 35.4373V29.697C30.0173 29.0425 28.6315 28.6707 27.1588 28.6707H20.8413C19.3686 28.6707 17.9828 29.0425 16.7723 29.697V35.4373C16.7723 37.2495 18.2414 38.7186 20.0536 38.7186Z" fill="#7A6D79"/>
<path d="M28.6875 28.8076V34.8068C28.6875 35.5834 28.0579 36.213 27.2812 36.213H16.8653C17.214 37.6507 18.5087 38.7186 20.0536 38.7186H27.9465C29.7587 38.7186 31.2277 37.2495 31.2277 35.4373V29.697C30.4335 29.2677 29.5761 28.9675 28.6875 28.8076Z" fill="#685E68"/>
<path d="M22.1174 35.0417H20.378C20.2536 35.0417 20.1344 34.9923 20.0465 34.9044C19.9586 34.8165 19.9092 34.6973 19.9092 34.5729V32.8335C19.9092 32.7092 19.9586 32.5899 20.0465 32.502C20.1344 32.4141 20.2536 32.3647 20.378 32.3647H22.1174C22.2417 32.3647 22.361 32.4141 22.4489 32.502C22.5368 32.5899 22.5862 32.7092 22.5862 32.8335V34.5729C22.5862 34.6973 22.5368 34.8165 22.4489 34.9044C22.361 34.9923 22.2417 35.0417 22.1174 35.0417ZM27.622 35.0417H25.8826C25.7583 35.0417 25.639 34.9923 25.5511 34.9044C25.4632 34.8165 25.4138 34.6973 25.4138 34.5729V32.8335C25.4138 32.7092 25.4632 32.5899 25.5511 32.502C25.639 32.4141 25.7583 32.3647 25.8826 32.3647H27.622C27.7464 32.3647 27.8656 32.4141 27.9535 32.502C28.0414 32.5899 28.0908 32.7092 28.0908 32.8335V34.5729C28.0908 34.6973 28.0414 34.8165 27.9535 34.9044C27.8656 34.9923 27.7464 35.0417 27.622 35.0417Z" fill="#00F2A6"/>
<path d="M34.3763 32.6258H38.6617C39.1794 32.6258 39.5992 32.2061 39.5992 31.6883V26.9163M8.40076 26.9164V31.6884C8.40076 32.2062 8.82048 32.6259 9.33826 32.6259H13.6237" stroke="black" stroke-width="1.40625" stroke-miterlimit="10" stroke-linecap="round" stroke-linejoin="round"/>
<path d="M42.9375 39.151H44.7281C45.2459 39.151 45.6656 38.7313 45.6656 38.2135V32.0141M35.7249 39.151H39.6563M2.33438 32.0141V38.2135C2.33438 38.7313 2.7541 39.151 3.27188 39.151H12.2751M17.4524 5.42855V3.16064M30.5414 5.42855V3.16064M21.8154 5.42855V3.16064M26.1784 5.42855V3.16064M17.4524 24.6733V22.4054M30.5414 24.6733V22.4054M21.8154 24.6733V22.4054M26.1784 24.6733V22.4054M32.4853 7.37246H34.7532M32.4853 20.4615H34.7532M32.4853 11.7354H34.7532M32.4853 16.0984H34.7532M13.2406 7.37246H15.5084M13.2406 20.4615H15.5084M13.2406 11.7354H15.5084M13.2406 16.0984H15.5084M16.7724 29.6971V32.0625M16.7724 35.3437V35.4375C16.7724 37.2496 18.2414 38.7187 20.0536 38.7187H27.9465C29.7587 38.7187 31.2278 37.2496 31.2278 35.4375V29.6971M40.7618 26.9163H38.4367C38.3123 26.9163 38.1931 26.8669 38.1052 26.779C38.0173 26.6911 37.9679 26.5719 37.9679 26.4476V24.1225C37.9679 23.9982 38.0173 23.8789 38.1052 23.791C38.1931 23.7031 38.3123 23.6537 38.4367 23.6537H40.7618C40.8861 23.6537 41.0053 23.7031 41.0932 23.791C41.1811 23.8789 41.2305 23.9982 41.2305 24.1225V26.4476C41.2305 26.5719 41.1811 26.6911 41.0932 26.779C41.0053 26.8669 40.8861 26.9163 40.7618 26.9163ZM7.23826 26.9163H9.56335C9.68767 26.9163 9.8069 26.8669 9.89481 26.779C9.98271 26.6911 10.0321 26.5719 10.0321 26.4476V24.1225C10.0321 23.9982 9.98271 23.8789 9.89481 23.791C9.8069 23.7031 9.68767 23.6537 9.56335 23.6537H7.23826C7.11394 23.6537 6.99471 23.7031 6.9068 23.791C6.81889 23.8789 6.76951 23.9982 6.76951 24.1225V26.4476C6.76951 26.5719 6.81889 26.6911 6.9068 26.779C6.99471 26.8669 7.11394 26.9163 7.23826 26.9163Z" stroke="black" stroke-width="1.40625" stroke-miterlimit="10" stroke-linecap="round" stroke-linejoin="round"/>
<path d="M19.442 17.725L22.3017 10.2165C22.3601 10.0736 22.5624 10.0734 22.6211 10.2162L25.4549 17.7251M20.3338 15.855H24.5774M28.0313 10.1091V17.725M22.1174 35.0418H20.378C20.2537 35.0418 20.1344 34.9925 20.0465 34.9046C19.9586 34.8167 19.9092 34.6974 19.9092 34.5731V32.8337C19.9092 32.7093 19.9586 32.5901 20.0465 32.5022C20.1344 32.4143 20.2537 32.3649 20.378 32.3649H22.1174C22.2417 32.3649 22.361 32.4143 22.4489 32.5022C22.5368 32.5901 22.5862 32.7093 22.5862 32.8337V34.5731C22.5862 34.6974 22.5368 34.8167 22.4489 34.9046C22.361 34.9925 22.2417 35.0418 22.1174 35.0418ZM27.622 35.0418H25.8826C25.7583 35.0418 25.639 34.9925 25.5511 34.9046C25.4632 34.8167 25.4138 34.6974 25.4138 34.5731V32.8337C25.4138 32.7093 25.4632 32.5901 25.5511 32.5022C25.639 32.4143 25.7583 32.3649 25.8826 32.3649H27.622C27.7464 32.3649 27.8656 32.4143 27.9535 32.5022C28.0414 32.5901 28.0908 32.7093 28.0908 32.8337V34.5731C28.0908 34.6974 28.0414 34.8167 27.9535 34.9046C27.8656 34.9925 27.7464 35.0418 27.622 35.0418Z" stroke="black" stroke-width="1.40625" stroke-miterlimit="10" stroke-linecap="round" stroke-linejoin="round"/>
<path d="M15.5084 11.1561V20.5303C15.5084 21.5658 16.3478 22.4053 17.3834 22.4053H30.6103C31.6459 22.4053 32.4853 21.5658 32.4853 20.5303V7.30347C32.4853 6.2679 31.6459 5.42847 30.6103 5.42847H17.3834C16.3478 5.42847 15.5084 6.2679 15.5084 7.30347V7.87487M34.7874 44.8392H13.2126C12.6948 44.8392 12.2751 44.4195 12.2751 43.9017V37.2367C12.2751 32.5058 16.1103 28.6706 20.8412 28.6706H27.1587C31.8896 28.6706 35.7248 32.5058 35.7248 37.2367V43.9017C35.7249 44.4195 35.3052 44.8392 34.7874 44.8392ZM40.7617 10.8072H38.4367C38.3123 10.8072 38.1931 10.7578 38.1052 10.6699C38.0173 10.582 37.9679 10.4628 37.9679 10.3384V8.01334C37.9679 7.88902 38.0173 7.76979 38.1052 7.68189C38.1931 7.59398 38.3123 7.54459 38.4367 7.54459H40.7617C40.8861 7.54459 41.0053 7.59398 41.0932 7.68189C41.1811 7.76979 41.2305 7.88902 41.2305 8.01334V10.3384C41.2305 10.4628 41.1811 10.582 41.0932 10.6699C41.0053 10.7578 40.8861 10.8072 40.7617 10.8072ZM7.23825 10.8072H9.56334C9.68766 10.8072 9.80689 10.7578 9.8948 10.6699C9.98271 10.582 10.0321 10.4628 10.0321 10.3384V8.01334C10.0321 7.88902 9.98271 7.76979 9.8948 7.68189C9.80689 7.59398 9.68766 7.54459 9.56334 7.54459H7.23825C7.11393 7.54459 6.9947 7.59398 6.90679 7.68189C6.81889 7.76979 6.7695 7.88902 6.7695 8.01334V10.3384C6.7695 10.4628 6.81889 10.582 6.90679 10.6699C6.9947 10.7578 7.11393 10.8072 7.23825 10.8072ZM40.7617 18.8617H38.4367C38.3123 18.8617 38.1931 18.8123 38.1052 18.7244C38.0173 18.6365 37.9679 18.5173 37.9679 18.393V16.0679C37.9679 15.9436 38.0173 15.8243 38.1052 15.7364C38.1931 15.6485 38.3123 15.5991 38.4367 15.5991H40.7617C40.8861 15.5991 41.0053 15.6485 41.0932 15.7364C41.1811 15.8243 41.2305 15.9436 41.2305 16.0679V18.393C41.2305 18.5173 41.1811 18.6365 41.0932 18.7244C41.0053 18.8123 40.8861 18.8617 40.7617 18.8617ZM7.23825 18.8617H9.56334C9.68766 18.8617 9.80689 18.8123 9.8948 18.7244C9.98271 18.6365 10.0321 18.5173 10.0321 18.393V16.0679C10.0321 15.9436 9.98271 15.8243 9.8948 15.7364C9.80689 15.6485 9.68766 15.5991 9.56334 15.5991H7.23825C7.11393 15.5991 6.9947 15.6485 6.90679 15.7364C6.81889 15.8243 6.7695 15.9436 6.7695 16.0679V18.393C6.7695 18.5173 6.81889 18.6365 6.90679 18.7244C6.9947 18.8123 7.11393 18.8617 7.23825 18.8617ZM46.8281 32.014H44.503C44.3787 32.014 44.2595 31.9646 44.1716 31.8767C44.0837 31.7888 44.0343 31.6696 44.0343 31.5452V29.2202C44.0343 29.0958 44.0837 28.9766 44.1716 28.8887C44.2595 28.8008 44.3787 28.7514 44.503 28.7514H46.8281C46.9524 28.7514 47.0717 28.8008 47.1596 28.8887C47.2475 28.9766 47.2969 29.0958 47.2969 29.2202V31.5452C47.2969 31.6696 47.2475 31.7888 47.1596 31.8767C47.0717 31.9646 46.9524 32.014 46.8281 32.014ZM1.17188 32.014H3.49697C3.62129 32.014 3.74052 31.9646 3.82842 31.8767C3.91633 31.7888 3.96572 31.6696 3.96572 31.5452V29.2202C3.96572 29.0958 3.91633 28.9766 3.82842 28.8887C3.74052 28.8008 3.62129 28.7514 3.49697 28.7514H1.17188C1.04755 28.7514 0.928326 28.8008 0.840419 28.8887C0.752511 28.9766 0.703125 29.0958 0.703125 29.2202V31.5452C0.703125 31.6696 0.752511 31.7888 0.840419 31.8767C0.928326 31.9646 1.04755 32.014 1.17188 32.014Z" stroke="black" stroke-width="1.40625" stroke-miterlimit="10" stroke-linecap="round" stroke-linejoin="round"/>
<path d="M18.3976 44.8393C17.6316 41.8318 15.2743 39.4604 12.2751 38.6738M35.7249 38.6738C32.7257 39.4604 30.3684 41.8318 29.6024 44.8393" stroke="black" stroke-width="1.40625" stroke-miterlimit="10" stroke-linecap="round" stroke-linejoin="round"/>
</svg>
