<svg width="48" height="48" viewBox="0 0 48 48" fill="none" xmlns="http://www.w3.org/2000/svg">
<g clip-path="url(#clip0_1422_15426)">
<path d="M24.0004 47.1432C36.7817 47.1432 47.143 36.7819 47.143 24.0006C47.143 11.2192 36.7817 0.85791 24.0004 0.85791C11.219 0.85791 0.857719 11.2192 0.857719 24.0006C0.857719 36.7819 11.219 47.1432 24.0004 47.1432Z" fill="#F7B239"/>
<path d="M11.8412 36.1588C3.51609 27.8336 2.86013 14.7439 9.87263 5.66748C9.08591 6.27541 8.33883 6.93297 7.63594 7.63614C-1.40166 16.6737 -1.40166 31.3266 7.63594 40.3642C16.6735 49.4018 31.3264 49.4018 40.364 40.3642C41.0671 39.6612 41.7246 38.9142 42.3326 38.1275C33.2562 45.1399 20.1664 44.4839 11.8412 36.1588Z" fill="#E09B2D"/>
<path d="M27.8888 32.7293H19.8823C19.4085 32.7293 19.0245 32.3452 19.0245 31.8715C19.0245 31.3978 19.4084 31.0137 19.8823 31.0137H27.8888C28.1163 31.0137 28.3345 31.104 28.4954 31.2649C28.6562 31.4258 28.7466 31.644 28.7466 31.8715C28.7466 32.099 28.6562 32.3172 28.4954 32.478C28.3345 32.6389 28.1163 32.7293 27.8888 32.7293Z" fill="#E09B2D"/>
<path d="M24 0C10.7663 0 0 10.7663 0 24C0 37.2338 10.7663 48.0001 24 48.0001C37.2338 48.0001 48 37.2337 48 24C48 10.7664 37.2337 0 24 0ZM24 46.2844C11.7124 46.2844 1.71553 36.2877 1.71553 24C1.71553 11.7124 11.7124 1.71553 24 1.71553C36.2877 1.71553 46.2846 11.7123 46.2846 24C46.2846 36.2878 36.2876 46.2844 24 46.2844Z" fill="black"/>
<path d="M34.8079 27.8114H12.9633C12.4894 27.8114 12.1055 28.1955 12.1055 28.6692C12.1055 29.143 12.4894 29.527 12.9633 29.527H34.8078C35.0353 29.527 35.2535 29.4367 35.4143 29.2758C35.5752 29.1149 35.6656 28.8967 35.6656 28.6692C35.6656 28.5566 35.6434 28.445 35.6003 28.341C35.5572 28.2369 35.494 28.1423 35.4144 28.0627C35.3347 27.983 35.2402 27.9198 35.1361 27.8767C35.032 27.8336 34.9205 27.8114 34.8079 27.8114ZM16.9291 21.2654C16.9291 19.5155 15.5054 18.0918 13.7555 18.0918C12.0055 18.0918 10.5818 19.5155 10.5818 21.2654C10.5818 23.0154 12.0055 24.439 13.7555 24.439C15.5054 24.439 16.9291 23.0155 16.9291 21.2654ZM34.2445 18.0918C32.4946 18.0918 31.0709 19.5155 31.0709 21.2654C31.0709 23.0154 32.4946 24.439 34.2445 24.439C35.9944 24.439 37.4181 23.0154 37.4181 21.2654C37.4181 19.5155 35.9945 18.0918 34.2445 18.0918Z" fill="black"/>
<path d="M14.6221 21.4578C15.0958 21.4578 15.4799 21.0738 15.4799 20.6C15.4799 20.1262 15.0958 19.7422 14.6221 19.7422C14.1483 19.7422 13.7643 20.1262 13.7643 20.6C13.7643 21.0738 14.1483 21.4578 14.6221 21.4578Z" fill="white"/>
<path d="M35.0941 21.4578C35.5679 21.4578 35.9519 21.0738 35.9519 20.6C35.9519 20.1262 35.5679 19.7422 35.0941 19.7422C34.6204 19.7422 34.2363 20.1262 34.2363 20.6C34.2363 21.0738 34.6204 21.4578 35.0941 21.4578Z" fill="white"/>
</g>
<defs>
<clipPath id="clip0_1422_15426">
<rect width="48" height="48" fill="white"/>
</clipPath>
</defs>
</svg>
