<svg width="48" height="48" viewBox="0 0 48 48" fill="none" xmlns="http://www.w3.org/2000/svg">
<g clip-path="url(#clip0_1422_14612)">
<path d="M34.5 23.25L31.5 23.2972V18.75H34.5V23.25Z" fill="#559B38"/>
<path d="M31.5 18.75V22.5H32.25C32.6478 22.5 33.0294 22.342 33.3107 22.0607C33.592 21.7794 33.75 21.3978 33.75 21V18.75H31.5Z" fill="#6BC148"/>
<path d="M28.5 29.25L25.5 29.2972V24.75H28.5V29.25Z" fill="#AA2B24"/>
<path d="M25.5 24.75V28.5H26.25C26.6478 28.5 27.0294 28.342 27.3107 28.0607C27.592 27.7794 27.75 27.3978 27.75 27V24.75H25.5Z" fill="#D24034"/>
<path d="M22.5 26.25L19.5 26.2972V21.75H22.5V26.25Z" fill="#AA2B24"/>
<path d="M19.5 21.75V25.5H20.25C20.6478 25.5 21.0294 25.342 21.3107 25.0607C21.592 24.7794 21.75 24.3978 21.75 24V21.75H19.5Z" fill="#D24034"/>
<path d="M16.5 24.75L13.5 24.7972V20.25H16.5V24.75Z" fill="#559B38"/>
<path d="M13.5 20.25V24H14.25C14.6478 24 15.0294 23.842 15.3107 23.5607C15.592 23.2794 15.75 22.8978 15.75 22.5V20.25H13.5Z" fill="#6BC148"/>
<path d="M43.7423 19.5C43.2174 17.1892 42.2886 14.9891 40.9987 13.0012L42 10.5L37.5 6L34.9987 7.00125C33.0109 5.71139 30.8108 4.78264 28.5 4.25775L27.75 1.5H20.25L19.5 4.25775C17.1892 4.78264 14.9891 5.71139 13.0012 7.00125L10.5 6L6 10.5L7.00125 13.0012C5.71139 14.9891 4.78264 17.1892 4.25775 19.5L1.5 20.25V27.75L4.25775 28.5C4.78264 30.8108 5.71139 33.0109 7.00125 34.9987L6 37.5L10.5 42L13.0012 40.9987C14.9891 42.2886 17.1892 43.2174 19.5 43.7423L20.25 46.5H27.75L28.5 43.7423C30.8108 43.2174 33.0109 42.2886 34.9987 40.9987L37.5 42L42 37.5L40.9987 34.9987C42.2886 33.0109 43.2174 30.8108 43.7423 28.5L46.5 27.75V20.25L43.7423 19.5ZM24 39.75C20.8849 39.75 17.8398 38.8263 15.2498 37.0956C12.6597 35.365 10.641 32.9052 9.4489 30.0273C8.25682 27.1493 7.94491 23.9825 8.55263 20.9273C9.16035 17.8721 10.6604 15.0657 12.8631 12.8631C15.0657 10.6604 17.8721 9.16035 20.9273 8.55263C23.9825 7.94491 27.1493 8.25682 30.0273 9.4489C32.9052 10.641 35.365 12.6597 37.0956 15.2498C38.8263 17.8398 39.75 20.8849 39.75 24C39.75 28.1772 38.0906 32.1832 35.1369 35.1369C32.1832 38.0906 28.1772 39.75 24 39.75Z" fill="#686868"/>
<path d="M46.6973 19.5262L44.3678 18.8932C43.8416 16.7833 42.988 14.7689 41.838 12.9233L42.6968 10.779C42.7513 10.6426 42.7646 10.4932 42.735 10.3494C42.7054 10.2055 42.6342 10.0735 42.5303 9.96975L38.0303 5.46975C37.9264 5.36593 37.7944 5.29489 37.6505 5.26542C37.5066 5.23596 37.3573 5.24937 37.221 5.304L35.0768 6.162C33.2313 5.01199 31.2172 4.15814 29.1075 3.6315L28.4738 1.3065C28.4312 1.14703 28.3372 1.00605 28.2063 0.90544C28.0755 0.804826 27.9151 0.750189 27.75 0.75H20.25C20.0853 0.750011 19.9252 0.804216 19.7944 0.904249C19.6636 1.00428 19.5694 1.14458 19.5262 1.3035L18.8925 3.6285C16.7828 4.15514 14.7687 5.00899 12.9233 6.159L10.779 5.304C10.6427 5.24937 10.4934 5.23596 10.3495 5.26542C10.2056 5.29489 10.0736 5.36593 9.96975 5.46975L5.46975 9.96975C5.36581 10.0735 5.29462 10.2055 5.26502 10.3494C5.23542 10.4932 5.24872 10.6426 5.30325 10.779L6.162 12.9233C5.01204 14.7689 4.15844 16.7833 3.63225 18.8932L1.30275 19.5262C1.14397 19.5695 1.00384 19.6638 0.903951 19.7946C0.804063 19.9254 0.749966 20.0854 0.75 20.25V27.75C0.750131 27.9144 0.804303 28.0743 0.904179 28.2049C1.00405 28.3356 1.1441 28.4298 1.30275 28.473L3.63225 29.1067C4.15844 31.2167 5.01204 33.2311 6.162 35.0768L5.30325 37.221C5.24872 37.3574 5.23542 37.5068 5.26502 37.6506C5.29462 37.7945 5.36581 37.9265 5.46975 38.0303L9.96975 42.5303C10.0736 42.6341 10.2056 42.7051 10.3495 42.7346C10.4934 42.764 10.6427 42.7506 10.779 42.696L12.9233 41.838C14.7687 42.988 16.7828 43.8419 18.8925 44.3685L19.5262 46.6935C19.5688 46.853 19.6628 46.9939 19.7937 47.0946C19.9245 47.1952 20.0849 47.2498 20.25 47.25H27.75C27.9147 47.25 28.0748 47.1958 28.2056 47.0957C28.3364 46.9957 28.4306 46.8554 28.4738 46.6965L29.1075 44.3715C31.2172 43.8449 33.2313 42.991 35.0768 41.841L37.221 42.699C37.3573 42.7536 37.5066 42.767 37.6505 42.7376C37.7944 42.7081 37.9264 42.6371 38.0303 42.5332L42.5303 38.0332C42.6342 37.9295 42.7054 37.7975 42.735 37.6536C42.7646 37.5098 42.7513 37.3604 42.6968 37.224L41.838 35.0798C42.988 33.2341 43.8416 31.2197 44.3678 29.1097L46.6973 28.476C46.8564 28.4326 46.9968 28.338 47.0967 28.2067C47.1967 28.0755 47.2505 27.915 47.25 27.75V20.25C47.25 20.0854 47.1959 19.9254 47.096 19.7946C46.9962 19.6638 46.856 19.5695 46.6973 19.5262ZM45.75 27.1763L43.545 27.7762C43.4136 27.812 43.2944 27.8828 43.2002 27.9811C43.106 28.0794 43.0403 28.2015 43.0103 28.3342C42.5063 30.5593 41.6123 32.6775 40.3695 34.5907C40.3041 34.6915 40.2638 34.8065 40.252 34.926C40.2403 35.0456 40.2574 35.1662 40.302 35.2777L41.1195 37.3192L37.32 41.1203L35.2777 40.3027C35.1664 40.2576 35.0457 40.2401 34.926 40.2517C34.8064 40.2634 34.6914 40.3038 34.5907 40.3695C32.6771 41.612 30.5587 42.5063 28.3335 43.011C28.2008 43.0412 28.0789 43.1069 27.9808 43.2011C27.8826 43.2953 27.8119 43.4145 27.7762 43.5457L27.1763 45.75H20.8237L20.2238 43.5457C20.1881 43.4145 20.1174 43.2953 20.0192 43.2011C19.9211 43.1069 19.7992 43.0412 19.6665 43.011C17.4413 42.5063 15.3229 41.612 13.4093 40.3695C13.3085 40.3042 13.1934 40.264 13.0739 40.2524C12.9543 40.2408 12.8337 40.258 12.7222 40.3027L10.68 41.1203L6.8805 37.3192L7.698 35.2777C7.74259 35.1662 7.75973 35.0456 7.74799 34.926C7.73624 34.8065 7.69595 34.6915 7.6305 34.5907C6.38772 32.6775 5.49366 30.5593 4.98975 28.3342C4.95966 28.2015 4.89399 28.0794 4.79978 27.9811C4.70558 27.8828 4.58639 27.812 4.455 27.7762L2.25 27.1763V20.823L4.455 20.223C4.58639 20.1873 4.70558 20.1165 4.79978 20.0182C4.89399 19.9199 4.95966 19.7978 4.98975 19.665C5.49366 17.4399 6.38772 15.3217 7.6305 13.4085C7.69595 13.3078 7.73624 13.1928 7.74799 13.0732C7.75973 12.9537 7.74259 12.833 7.698 12.7215L6.8805 10.68L10.68 6.87975L12.7222 7.69725C12.8337 7.74195 12.9543 7.75922 13.0739 7.7476C13.1934 7.73599 13.3085 7.69583 13.4093 7.6305C15.3229 6.38797 17.4413 5.4937 19.6665 4.989C19.7992 4.95879 19.9211 4.89307 20.0192 4.79887C20.1174 4.70467 20.1881 4.58554 20.2238 4.45425L20.8237 2.25H27.1763L27.7762 4.45425C27.8119 4.58554 27.8826 4.70467 27.9808 4.79887C28.0789 4.89307 28.2008 4.95879 28.3335 4.989C30.5587 5.4937 32.6771 6.38797 34.5907 7.6305C34.6914 7.69618 34.8064 7.73655 34.9261 7.74817C35.0457 7.75979 35.1663 7.74232 35.2777 7.69725L37.32 6.87975L41.1195 10.6807L40.302 12.7222C40.2574 12.8338 40.2403 12.9544 40.252 13.074C40.2638 13.1935 40.3041 13.3085 40.3695 13.4093C41.6123 15.3225 42.5063 17.4407 43.0103 19.6658C43.0403 19.7985 43.106 19.9206 43.2002 20.0189C43.2944 20.1172 43.4136 20.188 43.545 20.2238L45.75 20.8237V27.1763Z" fill="black"/>
<path d="M24 7.5C20.7366 7.5 17.5465 8.46771 14.8331 10.2808C12.1197 12.0938 10.0048 14.6707 8.75599 17.6857C7.50714 20.7007 7.18039 24.0183 7.81704 27.219C8.4537 30.4197 10.0252 33.3597 12.3327 35.6673C14.6403 37.9748 17.5803 39.5463 20.781 40.183C23.9817 40.8196 27.2993 40.4929 30.3143 39.244C33.3293 37.9952 35.9062 35.8803 37.7192 33.1669C39.5323 30.4535 40.5 27.2634 40.5 24C40.495 19.6255 38.7551 15.4315 35.6618 12.3382C32.5685 9.24494 28.3745 7.50496 24 7.5ZM24 39C21.0333 39 18.1332 38.1203 15.6664 36.472C13.1997 34.8238 11.2771 32.4811 10.1418 29.7403C9.00649 26.9994 8.70944 23.9834 9.28822 21.0736C9.867 18.1639 11.2956 15.4912 13.3934 13.3934C15.4912 11.2956 18.1639 9.867 21.0736 9.28822C23.9834 8.70944 26.9994 9.00649 29.7402 10.1418C32.4811 11.2771 34.8238 13.1997 36.472 15.6664C38.1203 18.1332 39 21.0333 39 24C38.9954 27.9768 37.4136 31.7895 34.6016 34.6016C31.7895 37.4136 27.9768 38.9954 24 39Z" fill="black"/>
<path d="M22.5 21H21.75V18H20.25V21H19.5C19.3011 21 19.1103 21.079 18.9697 21.2197C18.829 21.3603 18.75 21.5511 18.75 21.75V26.25C18.75 26.4489 18.829 26.6397 18.9697 26.7803C19.1103 26.921 19.3011 27 19.5 27H20.25V30H21.75V27H22.5C22.6989 27 22.8897 26.921 23.0303 26.7803C23.171 26.6397 23.25 26.4489 23.25 26.25V21.75C23.25 21.5511 23.171 21.3603 23.0303 21.2197C22.8897 21.079 22.6989 21 22.5 21ZM21.75 25.5H20.25V22.5H21.75V25.5ZM28.5 24H27.75V21H26.25V24H25.5C25.3011 24 25.1103 24.079 24.9697 24.2197C24.829 24.3603 24.75 24.5511 24.75 24.75V29.25C24.75 29.4489 24.829 29.6397 24.9697 29.7803C25.1103 29.921 25.3011 30 25.5 30H26.25V33H27.75V30H28.5C28.6989 30 28.8897 29.921 29.0303 29.7803C29.171 29.6397 29.25 29.4489 29.25 29.25V24.75C29.25 24.5511 29.171 24.3603 29.0303 24.2197C28.8897 24.079 28.6989 24 28.5 24ZM27.75 28.5H26.25V25.5H27.75V28.5ZM33.75 18V15H32.25V18H31.5C31.3011 18 31.1103 18.079 30.9697 18.2197C30.829 18.3603 30.75 18.5511 30.75 18.75V23.25C30.75 23.4489 30.829 23.6397 30.9697 23.7803C31.1103 23.921 31.3011 24 31.5 24H32.25V27H33.75V24H34.5C34.6989 24 34.8897 23.921 35.0303 23.7803C35.171 23.6397 35.25 23.4489 35.25 23.25V18.75C35.25 18.5511 35.171 18.3603 35.0303 18.2197C34.8897 18.079 34.6989 18 34.5 18H33.75ZM33.75 22.5H32.25V19.5H33.75V22.5ZM16.5 19.5H15.75V16.5H14.25V19.5H13.5C13.3011 19.5 13.1103 19.579 12.9697 19.7197C12.829 19.8603 12.75 20.0511 12.75 20.25V24.75C12.75 24.9489 12.829 25.1397 12.9697 25.2803C13.1103 25.421 13.3011 25.5 13.5 25.5H14.25V28.5H15.75V25.5H16.5C16.6989 25.5 16.8897 25.421 17.0303 25.2803C17.171 25.1397 17.25 24.9489 17.25 24.75V20.25C17.25 20.0511 17.171 19.8603 17.0303 19.7197C16.8897 19.579 16.6989 19.5 16.5 19.5ZM15.75 24H14.25V21H15.75V24Z" fill="black"/>
</g>
<defs>
<clipPath id="clip0_1422_14612">
<rect width="48" height="48" fill="white"/>
</clipPath>
</defs>
</svg>
