<svg width="88" height="88" viewBox="0 0 88 88" fill="none" xmlns="http://www.w3.org/2000/svg">
<path d="M53.625 46.75L52.3298 48.9087C51.4668 50.3472 50.246 51.5377 48.7862 52.3642C47.3264 53.1907 45.6775 53.6251 44 53.625C42.3225 53.6251 40.6736 53.1907 39.2138 52.3642C37.754 51.5377 36.5332 50.3472 35.6702 48.9087L34.375 46.75H28.875C25.2283 46.75 21.7309 48.1986 19.1523 50.7773C16.5737 53.3559 15.125 56.8533 15.125 60.5V85.25H72.875V60.5C72.875 58.6943 72.5193 56.9063 71.8283 55.2381C71.1373 53.5699 70.1245 52.0541 68.8477 50.7773C67.5709 49.5005 66.0551 48.4876 64.3869 47.7966C62.7187 47.1056 60.9307 46.75 59.125 46.75H53.625Z" fill="#FBE1CA"/>
<path d="M26.1245 85.25V61.875L22.1191 48.521C24.18 47.3568 26.5075 46.7466 28.8745 46.75H34.3745L35.6698 48.9087C36.5327 50.3472 37.7536 51.5377 39.2133 52.3642C40.6731 53.1907 42.322 53.6251 43.9995 53.625C45.677 53.6251 47.326 53.1907 48.7857 52.3642C50.2455 51.5377 51.4663 50.3472 52.3293 48.9087L53.6245 46.75H59.1245C61.492 46.7464 63.82 47.3566 65.8813 48.521L61.8745 61.875V85.25H26.1245Z" fill="#B52F28"/>
<path d="M50.8749 80.5599C51.6043 80.5599 52.3037 80.2701 52.8195 79.7544C53.3352 79.2387 53.6249 78.5392 53.6249 77.8099V46.75L52.4575 48.697C51.2595 50.7696 49.3563 52.3425 47.095 53.1286C44.9951 53.8289 42.7191 53.7925 40.6426 53.0253C38.5662 52.2582 36.8132 50.8061 35.6729 48.9087L34.3749 46.75H28.8749C26.5074 46.7464 24.1795 47.3566 22.1182 48.521L26.1249 61.875V80.5599H50.8749Z" fill="#D23F34"/>
<path d="M53.625 46.75C52.8957 46.75 52.1962 46.4603 51.6805 45.9445C51.1647 45.4288 50.875 44.7293 50.875 44V39.1655L50.919 39.1366C48.8761 40.5176 46.4659 41.2538 44 41.25C41.5521 41.2542 39.1584 40.5284 37.125 39.1655V44C37.125 44.7293 36.8353 45.4288 36.3195 45.9445C35.8038 46.4603 35.1043 46.75 34.375 46.75L35.6702 48.9087C36.5332 50.3472 37.754 51.5377 39.2138 52.3642C40.6736 53.1907 42.3225 53.6251 44 53.625C45.6775 53.6251 47.3264 53.1907 48.7862 52.3642C50.246 51.5377 51.4668 50.3472 52.3297 48.9087L53.625 46.75Z" fill="#F2B9A1"/>
<path d="M56.375 19.25V28.875C56.375 32.157 55.0712 35.3047 52.7504 37.6254C50.4297 39.9462 47.2821 41.25 44 41.25C40.7179 41.25 37.5703 39.9462 35.2496 37.6254C32.9288 35.3047 31.625 32.157 31.625 28.875V19.25" fill="#FBE1CA"/>
<path d="M31.625 28.875H29.5625C28.6508 28.875 27.7765 28.5128 27.1318 27.8682C26.4872 27.2235 26.125 26.3492 26.125 25.4375C26.125 24.5258 26.4872 23.6515 27.1318 23.0068C27.7765 22.3622 28.6508 22 29.5625 22H31.625M56.375 28.875H58.4375C59.3492 28.875 60.2235 28.5128 60.8682 27.8682C61.5128 27.2235 61.875 26.3492 61.875 25.4375C61.875 24.5258 61.5128 23.6515 60.8682 23.0068C60.2235 22.3622 59.3492 22 58.4375 22H56.375" fill="#F2B9A1"/>
<path d="M56.375 19.25H26.125C25.3957 19.25 24.6962 18.9603 24.1805 18.4445C23.6647 17.9288 23.375 17.2293 23.375 16.5C23.375 15.7706 23.6647 15.0712 24.1805 14.5554C24.6962 14.0397 25.3957 13.75 26.125 13.75H56.375V19.25Z" fill="#F0AE42"/>
<path d="M56.375 13.75V8.24999C56.375 6.7913 55.7955 5.39235 54.7641 4.3609C53.7326 3.32945 52.3337 2.74999 50.875 2.74999H37.125C35.6663 2.74999 34.2674 3.32945 33.2359 4.3609C32.2045 5.39235 31.625 6.7913 31.625 8.24999V13.75" fill="#B52F28"/>
<path d="M34.375 61.875H53.625V72.875H34.375V61.875Z" fill="#F0AE42"/>
<path d="M49.5 67.375V61.875H34.375V68.75H48.125C48.4897 68.75 48.8394 68.6051 49.0973 68.3473C49.3551 68.0894 49.5 67.7397 49.5 67.375Z" fill="#F9D266"/>
<path d="M50.875 9.62499C51.2397 9.62499 51.5894 9.48012 51.8473 9.22226C52.1051 8.9644 52.25 8.61466 52.25 8.24999V2.94386C51.8018 2.82107 51.3397 2.75592 50.875 2.74999H37.125C35.6663 2.74999 34.2674 3.32945 33.2359 4.3609C32.2045 5.39235 31.625 6.7913 31.625 8.24999V9.62499H50.875Z" fill="#D23F34"/>
<path d="M52.25 13.75H26.125C25.3957 13.75 24.6962 14.0397 24.1805 14.5554C23.6647 15.0712 23.375 15.7706 23.375 16.5H50.875C51.2397 16.5 51.5894 16.3551 51.8473 16.0973C52.1051 15.8394 52.25 15.4897 52.25 15.125V13.75Z" fill="#F9D266"/>
<path d="M59.125 45.375H53.625C53.2603 45.375 52.9106 45.2301 52.6527 44.9723C52.3949 44.7144 52.25 44.3647 52.25 44V39.8489C53.7693 38.711 55.0362 37.2705 55.9708 35.6184C56.9053 33.9663 57.4873 32.1383 57.6799 30.25H58.4375C59.7139 30.25 60.9379 29.743 61.8405 28.8404C62.743 27.9379 63.25 26.7138 63.25 25.4375C63.25 24.1611 62.743 22.9371 61.8405 22.0345C60.9379 21.132 59.7139 20.625 58.4375 20.625H57.75V8.24999C57.7478 6.4273 57.0228 4.67989 55.7339 3.39105C54.4451 2.10221 52.6977 1.37718 50.875 1.37499H37.125C35.3023 1.37718 33.5549 2.10221 32.2661 3.39105C30.9772 4.67989 30.2522 6.4273 30.25 8.24999V12.375H26.125C25.031 12.375 23.9818 12.8096 23.2082 13.5832C22.4346 14.3568 22 15.406 22 16.5C22 17.594 22.4346 18.6432 23.2082 19.4168C23.9818 20.1904 25.031 20.625 26.125 20.625H29.5625C28.2861 20.625 27.0621 21.132 26.1595 22.0345C25.257 22.9371 24.75 24.1611 24.75 25.4375C24.75 26.7138 25.257 27.9379 26.1595 28.8404C27.0621 29.743 28.2861 30.25 29.5625 30.25H30.3201C30.5127 32.1383 31.0947 33.9663 32.0292 35.6184C32.9638 37.2705 34.2307 38.711 35.75 39.8489V44C35.75 44.3647 35.6051 44.7144 35.3473 44.9723C35.0894 45.2301 34.7397 45.375 34.375 45.375H28.875C24.8651 45.3797 21.0207 46.9748 18.1852 49.8102C15.3498 52.6457 13.7547 56.49 13.75 60.5V85.25C13.75 85.6147 13.8949 85.9644 14.1527 86.2223C14.4106 86.4801 14.7603 86.625 15.125 86.625H72.875C73.2397 86.625 73.5894 86.4801 73.8473 86.2223C74.1051 85.9644 74.25 85.6147 74.25 85.25V60.5C74.2453 56.49 72.6502 52.6457 69.8148 49.8102C66.9793 46.9748 63.1349 45.3797 59.125 45.375ZM58.4375 23.375C58.9845 23.375 59.5091 23.5923 59.8959 23.9791C60.2827 24.3659 60.5 24.8905 60.5 25.4375C60.5 25.9845 60.2827 26.5091 59.8959 26.8959C59.5091 27.2827 58.9845 27.5 58.4375 27.5H57.75V23.375H58.4375ZM33 8.24999C33 7.15598 33.4346 6.10677 34.2082 5.33318C34.9818 4.55959 36.031 4.12499 37.125 4.12499H50.875C51.969 4.12499 53.0182 4.55959 53.7918 5.33318C54.5654 6.10677 55 7.15598 55 8.24999V12.375H33V8.24999ZM26.125 17.875C25.7603 17.875 25.4106 17.7301 25.1527 17.4723C24.8949 17.2144 24.75 16.8647 24.75 16.5C24.75 16.1353 24.8949 15.7856 25.1527 15.5277C25.4106 15.2699 25.7603 15.125 26.125 15.125H55V17.875H26.125ZM27.5 25.4375C27.5 24.8905 27.7173 24.3659 28.1041 23.9791C28.4909 23.5923 29.0155 23.375 29.5625 23.375H30.25V27.5H29.5625C29.0155 27.5 28.4909 27.2827 28.1041 26.8959C27.7173 26.5091 27.5 25.9845 27.5 25.4375ZM33 28.875V20.625H55V28.875C55 31.7924 53.8411 34.5903 51.7782 36.6532C49.7153 38.7161 46.9174 39.875 44 39.875C41.0826 39.875 38.2847 38.7161 36.2218 36.6532C34.1589 34.5903 33 31.7924 33 28.875ZM44 42.625C45.8937 42.6252 47.7667 42.2314 49.5 41.4686V44C49.5021 44.7176 49.6921 45.4222 50.051 46.0436C50.41 46.665 50.9254 47.1816 51.546 47.542L51.1514 48.202C50.4101 49.4361 49.362 50.4573 48.1091 51.1663C46.8561 51.8753 45.441 52.2479 44.0014 52.2479C42.5618 52.2479 41.1466 51.8753 39.8937 51.1663C38.6408 50.4573 37.5927 49.4361 36.8514 48.202L36.4567 47.542C37.0768 47.1813 37.5917 46.6645 37.9501 46.0431C38.3086 45.4218 38.4982 44.7174 38.5 44V41.4686C40.2333 42.2314 42.1063 42.6252 44 42.625ZM33.5968 48.125L34.4905 49.6169C35.476 51.2588 36.8698 52.6176 38.5362 53.561C40.2027 54.5044 42.085 55.0002 44 55.0002C45.915 55.0002 47.7973 54.5044 49.4638 53.561C51.1302 52.6176 52.524 51.2588 53.5095 49.6169L54.4033 48.125H59.125C60.8871 48.1264 62.6282 48.5067 64.2304 49.2401L60.5578 61.4776C60.519 61.6065 60.4995 61.7404 60.5 61.875V83.875H27.5V61.875C27.5002 61.7413 27.4807 61.6084 27.4423 61.4804L23.7696 49.2429C25.3716 48.5085 27.1127 48.1272 28.875 48.125H33.5968ZM16.5 60.5C16.5016 58.606 16.9388 56.7377 17.7779 55.0396C18.6169 53.3416 19.8352 51.8592 21.3386 50.7072L24.75 62.0757V83.875H16.5V60.5ZM71.5 83.875H63.25V62.0757L66.6614 50.7072C68.1648 51.8592 69.3831 53.3416 70.2221 55.0396C71.0612 56.7377 71.4984 58.606 71.5 60.5V83.875Z" fill="black"/>
<path d="M34.375 74.25H53.625C53.9897 74.25 54.3394 74.1051 54.5973 73.8473C54.8551 73.5894 55 73.2397 55 72.875V61.875C55 61.5103 54.8551 61.1606 54.5973 60.9027C54.3394 60.6449 53.9897 60.5 53.625 60.5H34.375C34.0103 60.5 33.6606 60.6449 33.4027 60.9027C33.1449 61.1606 33 61.5103 33 61.875V72.875C33 73.2397 33.1449 73.5894 33.4027 73.8473C33.6606 74.1051 34.0103 74.25 34.375 74.25ZM35.75 63.25H52.25V71.5H35.75V63.25Z" fill="black"/>
</svg>
