<svg width="48" height="48" viewBox="0 0 48 48" fill="none" xmlns="http://www.w3.org/2000/svg">
<g clip-path="url(#clip0_1462_5932)">
<path d="M45 12H3C2.17157 12 1.5 12.6716 1.5 13.5V45C1.5 45.8284 2.17157 46.5 3 46.5H45C45.8284 46.5 46.5 45.8284 46.5 45V13.5C46.5 12.6716 45.8284 12 45 12Z" fill="#78A0D4"/>
<path d="M42 41.25V12H3C2.60218 12 2.22064 12.158 1.93934 12.4393C1.65804 12.7206 1.5 13.1022 1.5 13.5V41.25H42Z" fill="#8CB3DD"/>
<path d="M6 16.5H42V31.5H6V16.5Z" fill="#C8CDED"/>
<path d="M38.25 26.25V16.5H6V27.75H36.75C37.1478 27.75 37.5294 27.592 37.8107 27.3107C38.092 27.0294 38.25 26.6478 38.25 26.25Z" fill="#E2E7F6"/>
<path d="M24 21L17.25 27.75V22.5H12L16.776 17.724C16.8686 17.8768 16.9794 18.0179 17.106 18.144C17.3477 18.3848 17.6414 18.567 17.9644 18.6767C18.2875 18.7864 18.6314 18.8207 18.9697 18.777C19.0587 19.1063 19.2219 19.4109 19.4468 19.6674C19.6717 19.9239 19.9524 20.1255 20.2673 20.2567C20.6105 20.3999 20.9844 20.4535 21.354 20.4127C21.901 20.3534 22.453 20.4631 22.9357 20.727C23.2616 20.9067 23.6279 21.0006 24 21ZM24 21L30.75 27.75V22.5H36L31.224 17.724C31.1314 17.8768 31.0206 18.0179 30.894 18.144C30.6523 18.3848 30.3586 18.567 30.0356 18.6767C29.7125 18.7864 29.3686 18.8207 29.0303 18.777C28.9413 19.1063 28.7781 19.4109 28.5532 19.6674C28.3283 19.9239 28.0476 20.1255 27.7328 20.2567C27.3895 20.3999 27.0156 20.4535 26.646 20.4127C26.099 20.3534 25.547 20.4631 25.0642 20.727C24.7383 20.9067 24.3721 21.0006 24 21Z" fill="#3B5892"/>
<path d="M33.7499 11.25C33.7505 10.8784 33.6569 10.5128 33.4777 10.1872C33.2142 9.70488 33.1045 9.15347 33.1634 8.60699C33.2045 8.23769 33.1511 7.86399 33.0082 7.52099C32.8765 7.20628 32.6746 6.92587 32.4178 6.70123C32.1611 6.47659 31.8564 6.31369 31.5269 6.22499C31.5717 5.8865 31.538 5.54225 31.4285 5.21886C31.3189 4.89548 31.1364 4.60163 30.8951 4.36005C30.6538 4.11847 30.3602 3.93564 30.037 3.82569C29.7137 3.71574 29.3695 3.68163 29.0309 3.72599C28.9417 3.39668 28.7783 3.09213 28.5533 2.83566C28.3283 2.57918 28.0476 2.37757 27.7327 2.24624C27.3895 2.10313 27.0156 2.04946 26.6459 2.09024C26.099 2.14961 25.5469 2.03994 25.0642 1.77599C24.7382 1.59717 24.3725 1.50342 24.0007 1.50342C23.6289 1.50342 23.2631 1.59717 22.9372 1.77599C22.4548 2.0395 21.9034 2.14915 21.3569 2.09024C20.9876 2.04915 20.6139 2.10257 20.2709 2.24549C19.9566 2.37678 19.6765 2.57814 19.4519 2.8342C19.2273 3.09027 19.0641 3.39427 18.9749 3.72299C18.6364 3.67822 18.2922 3.71192 17.9688 3.82148C17.6454 3.93104 17.3516 4.11352 17.11 4.35481C16.8684 4.5961 16.6856 4.88973 16.5756 5.21298C16.4657 5.53623 16.4316 5.88045 16.4759 6.21899C16.1466 6.30823 15.8421 6.4716 15.5856 6.69662C15.3291 6.92164 15.1275 7.20234 14.9962 7.51724C14.8531 7.86046 14.7994 8.23438 14.8402 8.60399C14.8997 9.15106 14.7897 9.7032 14.5252 10.1857C14.3466 10.5118 14.2529 10.8775 14.2529 11.2492C14.2529 11.621 14.3466 11.9867 14.5252 12.3127C14.7887 12.7951 14.8983 13.3465 14.8394 13.893C14.7983 14.2623 14.8518 14.636 14.9947 14.979C15.126 15.2934 15.3275 15.5736 15.5837 15.7982C15.8399 16.0228 16.1441 16.1859 16.4729 16.275C16.4281 16.6136 16.4619 16.9579 16.5715 17.2813C16.6811 17.6048 16.8636 17.8987 17.105 18.1403C17.3464 18.3819 17.6401 18.5647 17.9634 18.6746C18.2868 18.7845 18.6311 18.8185 18.9697 18.774C19.0586 19.1033 19.2218 19.4079 19.4467 19.6644C19.6716 19.9209 19.9523 20.1225 20.2672 20.2537C20.6104 20.3969 20.9843 20.4505 21.3539 20.4097C21.9009 20.3504 22.4529 20.4601 22.9357 20.724C23.2616 20.9028 23.6274 20.9966 23.9992 20.9966C24.371 20.9966 24.7367 20.9028 25.0627 20.724C25.545 20.4605 26.0965 20.3508 26.6429 20.4097C27.0122 20.4508 27.3859 20.3974 27.7289 20.2545C28.0432 20.1232 28.3234 19.9218 28.548 19.6658C28.7726 19.4097 28.9357 19.1057 29.0249 18.777C29.3635 18.8218 29.7078 18.7881 30.0313 18.6785C30.3547 18.5689 30.6486 18.3863 30.8902 18.145C31.1318 17.9036 31.3146 17.6098 31.4245 17.2865C31.5344 16.9631 31.5684 16.6188 31.5239 16.2802C31.8533 16.1913 32.1579 16.0281 32.4144 15.8032C32.6709 15.5783 32.8725 15.2976 33.0037 14.9827C33.1468 14.6393 33.2005 14.2651 33.1597 13.8952C33.1004 13.3485 33.2101 12.7967 33.4739 12.3142C33.6547 11.9886 33.7496 11.6224 33.7499 11.25Z" fill="#F0AE42"/>
<path d="M24 17.25C27.3137 17.25 30 14.5637 30 11.25C30 7.93629 27.3137 5.25 24 5.25C20.6863 5.25 18 7.93629 18 11.25C18 14.5637 20.6863 17.25 24 17.25Z" fill="#F9D266"/>
<path d="M23.9999 5.25C22.9039 5.24933 21.8286 5.54909 20.891 6.11669C19.9534 6.6843 19.1893 7.49804 18.6817 8.46948C18.1741 9.44092 17.9425 10.5329 18.0121 11.6267C18.0816 12.7206 18.4497 13.7744 19.0762 14.6738C20.2309 15.478 21.6316 15.8506 23.0333 15.7262C24.435 15.6019 25.7483 14.9885 26.7434 13.9935C27.7384 12.9984 28.3518 11.6851 28.4762 10.2834C28.6005 8.88173 28.228 7.48094 27.4237 6.32625C26.4198 5.62484 25.2245 5.2491 23.9999 5.25Z" fill="#FCE797"/>
<path d="M5.25 33.75H23.25V35.25H5.25V33.75ZM5.25 36.75H23.25V38.25H5.25V36.75ZM5.25 39.75H23.25V41.25H5.25V39.75ZM24.75 33.75H42.75V35.25H24.75V33.75ZM24.75 36.75H42.75V38.25H24.75V36.75ZM24.75 39.75H42.75V41.25H24.75V39.75Z" fill="#E2E7F6"/>
<path d="M45 11.25H34.5C34.5002 10.7519 34.3748 10.2619 34.1355 9.82502C33.9472 9.47726 33.8687 9.08055 33.9105 8.68727C33.9766 8.08509 33.8565 7.47714 33.5664 6.9453C33.2764 6.41346 32.8303 5.9833 32.2882 5.71277C32.2373 5.00039 31.9314 4.33022 31.4266 3.82499C30.9218 3.31977 30.2518 3.01332 29.5395 2.96177C29.2684 2.4203 28.838 1.97474 28.3063 1.6849C27.7747 1.39505 27.167 1.2748 26.565 1.34027C26.1711 1.38441 25.7733 1.30583 25.4258 1.11527C24.9876 0.880056 24.498 0.756958 24.0007 0.756958C23.5035 0.756958 23.0139 0.880056 22.5758 1.11527C22.2281 1.30393 21.8313 1.3824 21.438 1.34027C20.8358 1.27421 20.2279 1.39429 19.696 1.68435C19.1642 1.9744 18.734 2.42049 18.4635 2.96252C17.7511 3.01349 17.0809 3.31939 16.5757 3.8242C16.0705 4.32901 15.7641 4.99893 15.7125 5.71127C15.171 5.98242 14.7255 6.41273 14.4356 6.94442C14.1458 7.47612 14.0255 8.08376 14.091 8.68577C14.1338 9.07958 14.0553 9.47707 13.866 9.82502C13.6265 10.2618 13.5006 10.7519 13.5 11.25H3C2.40326 11.25 1.83097 11.4871 1.40901 11.909C0.987053 12.331 0.75 12.9033 0.75 13.5V45C0.75 45.5968 0.987053 46.1691 1.40901 46.591C1.83097 47.013 2.40326 47.25 3 47.25H45C45.5967 47.25 46.169 47.013 46.591 46.591C47.0129 46.1691 47.25 45.5968 47.25 45V13.5C47.25 12.9033 47.0129 12.331 46.591 11.909C46.169 11.4871 45.5967 11.25 45 11.25ZM31.2555 18.816L34.1895 21.75H30.75C30.5511 21.75 30.3603 21.829 30.2197 21.9697C30.079 22.1103 30 22.3011 30 22.5V25.9395L25.4392 21.3788C25.7838 21.1945 26.1757 21.1179 26.5642 21.159C27.1664 21.2246 27.7742 21.1044 28.3059 20.8144C28.8377 20.5244 29.2679 20.0785 29.5387 19.5368C30.1737 19.4875 30.7757 19.2348 31.2555 18.816ZM17.25 21.75H13.8105L16.7445 18.816C17.2242 19.2353 17.8267 19.4881 18.462 19.5368C18.7331 20.0781 19.1633 20.5236 19.6948 20.8134C20.2264 21.1033 20.8339 21.2236 21.4357 21.1583C21.8244 21.1174 22.2163 21.1942 22.5607 21.3788L18 25.9395V22.5C18 22.3011 17.921 22.1103 17.7803 21.9697C17.6397 21.829 17.4489 21.75 17.25 21.75ZM15.7882 17.25C15.815 17.3533 15.8471 17.4552 15.8843 17.5553L11.4698 21.9698C11.3649 22.0747 11.2935 22.2083 11.2646 22.3537C11.2356 22.4992 11.2505 22.65 11.3072 22.787C11.364 22.924 11.4601 23.0412 11.5834 23.1236C11.7067 23.206 11.8517 23.25 12 23.25H16.5V27.75C16.5 27.8983 16.5439 28.0434 16.6263 28.1667C16.7086 28.2901 16.8257 28.3862 16.9627 28.443C17.0537 28.481 17.1514 28.5003 17.25 28.5C17.4489 28.5 17.6396 28.4209 17.7803 28.2803L24 22.0605L30.2197 28.2803C30.3604 28.4209 30.5511 28.5 30.75 28.5C30.8486 28.5003 30.9463 28.481 31.0373 28.443C31.1743 28.3862 31.2914 28.2901 31.3737 28.1667C31.4561 28.0434 31.5 27.8983 31.5 27.75V23.25H36C36.1483 23.25 36.2933 23.206 36.4166 23.1236C36.5399 23.0412 36.636 22.924 36.6928 22.787C36.7495 22.65 36.7644 22.4992 36.7354 22.3537C36.7065 22.2083 36.6351 22.0747 36.5303 21.9698L32.1157 17.5553C32.1529 17.4552 32.185 17.3533 32.2118 17.25H41.25V30.75H6.75V17.25H15.7882ZM15.18 10.5465C15.5174 9.9283 15.6579 9.22179 15.5828 8.52152C15.5556 8.27687 15.5913 8.02935 15.6863 7.80227C15.774 7.59263 15.9086 7.40591 16.0799 7.25651C16.2511 7.10711 16.4544 6.999 16.674 6.94052C16.8471 6.89246 16.9971 6.78389 17.0969 6.63456C17.1967 6.48523 17.2396 6.30504 17.2178 6.12677C17.1871 5.9013 17.2089 5.67178 17.2817 5.45617C17.3544 5.24056 17.4761 5.0447 17.6371 4.8839C17.7981 4.72311 17.9941 4.60174 18.2098 4.52929C18.4255 4.45684 18.6551 4.43527 18.8805 4.46627C19.059 4.48824 19.2394 4.44534 19.3889 4.3454C19.5385 4.24545 19.6471 4.09511 19.695 3.92177C19.7534 3.70205 19.8615 3.49868 20.0109 3.3273C20.1603 3.15592 20.3471 3.02112 20.5568 2.93327C20.7838 2.83817 21.0314 2.8028 21.276 2.83052C21.9763 2.90565 22.6828 2.76513 23.301 2.42777C23.5168 2.3104 23.7585 2.24891 24.0041 2.24891C24.2498 2.24891 24.4915 2.3104 24.7073 2.42777C25.3256 2.76472 26.032 2.90521 26.7323 2.83052C26.9769 2.80353 27.2244 2.83915 27.4515 2.93402C27.6611 3.02175 27.8479 3.15642 27.9973 3.32767C28.1467 3.49891 28.2548 3.70217 28.3132 3.92177C28.3613 4.09482 28.4699 4.24489 28.6192 4.34467C28.7685 4.44445 28.9487 4.48734 29.127 4.46552C29.3525 4.43483 29.582 4.4567 29.7976 4.52945C30.0132 4.60219 30.2091 4.72382 30.3699 4.88483C30.5307 5.04585 30.652 5.24187 30.7245 5.45758C30.7969 5.67329 30.8185 5.90284 30.7875 6.12827C30.7657 6.30664 30.8087 6.48691 30.9086 6.63626C31.0086 6.7856 31.1588 6.89411 31.332 6.94202C31.5517 7.00074 31.755 7.10901 31.9264 7.25852C32.0977 7.40803 32.2326 7.59481 32.3205 7.80452C32.4153 8.03165 32.4507 8.27919 32.4232 8.52377C32.3484 9.22402 32.4889 9.93045 32.826 10.5488C32.9438 10.7644 33.0056 11.0062 33.0056 11.2519C33.0056 11.4976 32.9438 11.7394 32.826 11.955C32.4886 12.5732 32.3481 13.2798 32.4232 13.98C32.4504 14.2247 32.4147 14.4722 32.3197 14.6993C32.232 14.9089 32.0974 15.0956 31.9261 15.245C31.7549 15.3944 31.5516 15.5025 31.332 15.561C31.1589 15.6091 31.0089 15.7176 30.9091 15.867C30.8093 16.0163 30.7664 16.1965 30.7882 16.3748C30.8189 16.6002 30.7971 16.8298 30.7243 17.0454C30.6516 17.261 30.5299 17.4568 30.3689 17.6176C30.2079 17.7784 30.0119 17.8998 29.7962 17.9723C29.5805 18.0447 29.3509 18.0663 29.1255 18.0353C28.947 18.0133 28.7666 18.0562 28.6171 18.1561C28.4675 18.2561 28.3589 18.4064 28.311 18.5798C28.2526 18.7996 28.1445 19.0031 27.995 19.1745C27.8454 19.3459 27.6584 19.4807 27.4485 19.5683C27.2215 19.6627 26.9743 19.698 26.73 19.671C26.031 19.5966 25.3259 19.7371 24.7087 20.0738C24.493 20.1911 24.2513 20.2526 24.0056 20.2526C23.76 20.2526 23.5183 20.1911 23.3025 20.0738C22.7938 19.7971 22.2241 19.652 21.645 19.6515C21.5225 19.6515 21.4 19.6583 21.2782 19.6718C21.0338 19.699 20.7865 19.6634 20.5597 19.5683C20.3501 19.4805 20.1634 19.3459 20.014 19.1746C19.8646 19.0034 19.7565 18.8001 19.698 18.5805C19.6499 18.4075 19.5414 18.2574 19.392 18.1576C19.2427 18.0578 19.0625 18.015 18.8843 18.0368C18.6588 18.0675 18.4293 18.0456 18.2136 17.9728C17.998 17.9001 17.8022 17.7785 17.6414 17.6175C17.4806 17.4564 17.3592 17.2604 17.2868 17.0447C17.2143 16.829 17.1927 16.5995 17.2238 16.374C17.2457 16.1955 17.2028 16.0151 17.1029 15.8656C17.0029 15.7161 16.8526 15.6075 16.6793 15.5595C16.4594 15.501 16.2559 15.3928 16.0844 15.2432C15.9129 15.0937 15.778 14.9068 15.69 14.697C15.5957 14.47 15.5606 14.2228 15.588 13.9785C15.6628 13.2783 15.5223 12.5718 15.1852 11.9535C15.0674 11.7379 15.0057 11.4961 15.0057 11.2504C15.0057 11.0047 15.0674 10.7629 15.1852 10.5473L15.18 10.5465ZM45.75 45C45.75 45.1989 45.671 45.3897 45.5303 45.5304C45.3897 45.671 45.1989 45.75 45 45.75H3C2.80109 45.75 2.61032 45.671 2.46967 45.5304C2.32902 45.3897 2.25 45.1989 2.25 45V13.5C2.25 13.3011 2.32902 13.1103 2.46967 12.9697C2.61032 12.829 2.80109 12.75 3 12.75H13.899C14.0615 13.0787 14.128 13.4465 14.091 13.8113C14.0374 14.3057 14.1085 14.8057 14.298 15.2655C14.3687 15.4343 14.4543 15.5965 14.5538 15.75H6C5.80109 15.75 5.61032 15.829 5.46967 15.9697C5.32902 16.1103 5.25 16.3011 5.25 16.5V31.5C5.25 31.6989 5.32902 31.8897 5.46967 32.0304C5.61032 32.171 5.80109 32.25 6 32.25H42C42.1989 32.25 42.3897 32.171 42.5303 32.0304C42.671 31.8897 42.75 31.6989 42.75 31.5V16.5C42.75 16.3011 42.671 16.1103 42.5303 15.9697C42.3897 15.829 42.1989 15.75 42 15.75H33.45C33.8224 15.177 33.9853 14.4929 33.9113 13.8135C33.8731 13.4482 33.9389 13.0796 34.101 12.75H45C45.1989 12.75 45.3897 12.829 45.5303 12.9697C45.671 13.1103 45.75 13.3011 45.75 13.5V45Z" fill="black"/>
<path d="M24 18C25.335 18 26.6401 17.6041 27.7501 16.8624C28.8601 16.1207 29.7253 15.0665 30.2362 13.8331C30.7471 12.5997 30.8808 11.2425 30.6203 9.93314C30.3599 8.62377 29.717 7.42104 28.773 6.47703C27.829 5.53303 26.6262 4.89015 25.3169 4.6297C24.0075 4.36925 22.6503 4.50292 21.4169 5.01382C20.1835 5.52471 19.1293 6.38987 18.3876 7.4999C17.6459 8.60994 17.25 9.91498 17.25 11.25C17.2522 13.0395 17.964 14.7552 19.2294 16.0206C20.4948 17.286 22.2105 17.9978 24 18ZM24 6C25.0384 6 26.0534 6.30791 26.9167 6.88479C27.7801 7.46166 28.453 8.2816 28.8504 9.24091C29.2477 10.2002 29.3517 11.2558 29.1491 12.2742C28.9466 13.2926 28.4465 14.2281 27.7123 14.9623C26.9781 15.6965 26.0426 16.1966 25.0242 16.3991C24.0058 16.6017 22.9502 16.4977 21.9909 16.1004C21.0316 15.703 20.2117 15.0301 19.6348 14.1667C19.0579 13.3034 18.75 12.2884 18.75 11.25C18.7516 9.8581 19.3052 8.52367 20.2894 7.53945C21.2737 6.55522 22.6081 6.00159 24 6ZM5.25 33.75H23.25V35.25H5.25V33.75ZM5.25 36.75H23.25V38.25H5.25V36.75ZM5.25 39.75H23.25V41.25H5.25V39.75ZM24.75 33.75H42.75V35.25H24.75V33.75ZM24.75 36.75H42.75V38.25H24.75V36.75ZM24.75 39.75H42.75V41.25H24.75V39.75Z" fill="black"/>
</g>
<defs>
<clipPath id="clip0_1462_5932">
<rect width="48" height="48" fill="white"/>
</clipPath>
</defs>
</svg>
