<svg width="48" height="48" viewBox="0 0 48 48" fill="none" xmlns="http://www.w3.org/2000/svg">
<g clip-path="url(#clip0_1422_15417)">
<path d="M24.0004 47.1432C36.7817 47.1432 47.143 36.7819 47.143 24.0006C47.143 11.2192 36.7817 0.85791 24.0004 0.85791C11.219 0.85791 0.857719 11.2192 0.857719 24.0006C0.857719 36.7819 11.219 47.1432 24.0004 47.1432Z" fill="#F7B239"/>
<path d="M11.8412 36.1588C3.51609 27.8336 2.86013 14.7439 9.87263 5.66748C9.08591 6.27541 8.33883 6.93297 7.63594 7.63614C-1.40166 16.6737 -1.40166 31.3266 7.63594 40.3642C16.6735 49.4018 31.3264 49.4018 40.364 40.3642C41.0671 39.6612 41.7246 38.9142 42.3326 38.1275C33.2562 45.1399 20.1664 44.4839 11.8412 36.1588Z" fill="#E09B2D"/>
<path d="M26.8487 34.2943C26.7442 34.2942 26.6405 34.275 26.5429 34.2376C24.8792 33.6023 23.1204 33.6024 21.4572 34.2376C21.0151 34.4065 20.519 34.1849 20.3499 33.7422C20.1809 33.2996 20.4028 32.8039 20.8454 32.6349C22.9091 31.847 25.0908 31.8469 27.1547 32.6349C27.5973 32.8039 27.8192 33.2996 27.6502 33.7422C27.5882 33.9045 27.4784 34.0442 27.3353 34.1428C27.1922 34.2414 27.0225 34.2942 26.8487 34.2943Z" fill="#E09B2D"/>
<path d="M24 0C10.7663 0 0 10.7663 0 24C0 37.2338 10.7663 48.0001 24 48.0001C37.2338 48.0001 48 37.2337 48 24C48 10.7664 37.2337 0 24 0ZM24 46.2844C11.7124 46.2844 1.71553 36.2877 1.71553 24C1.71553 11.7124 11.7124 1.71553 24 1.71553C36.2877 1.71553 46.2846 11.7123 46.2846 24C46.2846 36.2878 36.2876 46.2844 24 46.2844Z" fill="black"/>
<path d="M34.1283 31.2791C31.1323 29.2637 27.6301 28.1986 24.0002 28.1986C20.3703 28.1986 16.8682 29.2638 13.8721 31.2791C13.7786 31.3419 13.6984 31.4226 13.6361 31.5164C13.5738 31.6103 13.5306 31.7155 13.5089 31.826C13.4873 31.9366 13.4876 32.0503 13.5099 32.1607C13.5323 32.2711 13.5761 32.3761 13.639 32.4695C13.7019 32.563 13.7825 32.6432 13.8764 32.7055C13.9702 32.7678 14.0754 32.811 14.186 32.8326C14.2965 32.8542 14.4102 32.8539 14.5207 32.8316C14.6311 32.8092 14.736 32.7654 14.8295 32.7025C17.5415 30.8783 20.7126 29.9141 24.0002 29.9141C27.2877 29.9141 30.4588 30.8783 33.1709 32.7025C33.312 32.7978 33.4785 32.8487 33.6488 32.8487C33.7896 32.8488 33.9282 32.8143 34.0525 32.7482C34.1768 32.6821 34.2828 32.5864 34.3613 32.4695C34.4242 32.3761 34.4681 32.2711 34.4904 32.1607C34.5127 32.0503 34.5131 31.9366 34.4914 31.826C34.4698 31.7155 34.4266 31.6103 34.3643 31.5164C34.3019 31.4226 34.2218 31.3419 34.1283 31.2791ZM16.9291 19.2298C16.9291 17.4798 15.5054 16.0562 13.7555 16.0562C12.0055 16.0562 10.5818 17.4798 10.5818 19.2298C10.5818 20.9797 12.0055 22.4034 13.7555 22.4034C15.5054 22.4034 16.9291 20.9796 16.9291 19.2298ZM34.2445 16.0562C32.4946 16.0562 31.0709 17.4798 31.0709 19.2298C31.0709 20.9797 32.4946 22.4034 34.2445 22.4034C35.9944 22.4034 37.4181 20.9797 37.4181 19.2298C37.4181 17.4798 35.9945 16.0562 34.2445 16.0562Z" fill="black"/>
<path d="M14.8131 19.3992C15.2869 19.3992 15.6709 19.0152 15.6709 18.5414C15.6709 18.0676 15.2869 17.6836 14.8131 17.6836C14.3394 17.6836 13.9553 18.0676 13.9553 18.5414C13.9553 19.0152 14.3394 19.3992 14.8131 19.3992Z" fill="white"/>
<path d="M35.2852 19.3992C35.7589 19.3992 36.143 19.0152 36.143 18.5414C36.143 18.0676 35.7589 17.6836 35.2852 17.6836C34.8114 17.6836 34.4274 18.0676 34.4274 18.5414C34.4274 19.0152 34.8114 19.3992 35.2852 19.3992Z" fill="white"/>
</g>
<defs>
<clipPath id="clip0_1422_15417">
<rect width="48" height="48" fill="white"/>
</clipPath>
</defs>
</svg>
