<svg width="48" height="48" viewBox="0 0 48 48" fill="none" xmlns="http://www.w3.org/2000/svg">
<path d="M28.942 40.4385L27.8363 35.8628H18.9726L17.8669 40.4385H28.942Z" fill="#FF4C4C"/>
<path d="M27.8363 35.8628H23.7062L24.8119 40.4385H28.942L27.8363 35.8628Z" fill="#F33939"/>
<path d="M44.1214 36.3064H2.68739C1.57111 36.3064 0.666138 35.4015 0.666138 34.2852V6.54176C0.666138 5.42548 1.57111 4.52051 2.68739 4.52051H44.1214C45.2377 4.52051 46.1427 5.42548 46.1427 6.54176V34.2852C46.1427 35.4016 45.2377 36.3064 44.1214 36.3064Z" fill="#4D4D4D"/>
<path d="M44.1215 4.52051H41.9682V32.2424C41.9682 33.3587 41.0632 34.2636 39.9469 34.2636H0.666138V34.2853C0.666138 35.4016 1.57111 36.3065 2.68739 36.3065H44.1214C45.2377 36.3065 46.1427 35.4016 46.1427 34.2853V6.54176C46.1428 5.42548 45.2378 4.52051 44.1215 4.52051Z" fill="#6A7073"/>
<path d="M32.908 43.1492H13.9009C13.7802 43.1492 13.6645 43.1013 13.5792 43.0159C13.4939 42.9306 13.4459 42.8149 13.4459 42.6942V41.4734C13.4459 40.6565 14.1082 39.9941 14.9252 39.9941H31.8835C32.7005 39.9941 33.3628 40.6564 33.3628 41.4734V42.6942C33.3628 42.754 33.3511 42.8131 33.3282 42.8683C33.3054 42.9235 33.2719 42.9737 33.2296 43.0159C33.1874 43.0582 33.1372 43.0917 33.082 43.1146C33.0269 43.1374 32.9677 43.1492 32.908 43.1492Z" fill="#927266"/>
<path d="M43.2116 29.5536V8.32288C43.2116 8.09182 43.1198 7.87022 42.9565 7.70683C42.7931 7.54345 42.5715 7.45166 42.3404 7.45166H4.46851C4.23745 7.45166 4.01585 7.54345 3.85246 7.70683C3.68908 7.87022 3.59729 8.09182 3.59729 8.32288V29.5536C3.59729 30.0866 4.02938 30.5187 4.56235 30.5187H42.2466C42.7795 30.5187 43.2116 30.0867 43.2116 29.5536Z" fill="#FFFCFD"/>
<path d="M42.3405 7.45166H38.1363C38.2507 7.45166 38.364 7.4742 38.4697 7.51798C38.5754 7.56176 38.6715 7.62593 38.7524 7.70683C38.8333 7.78773 38.8974 7.88378 38.9412 7.98948C38.985 8.09518 39.0075 8.20847 39.0075 8.32288V29.5536C39.0075 30.0866 38.5754 30.5187 38.0425 30.5187H42.2467C42.7797 30.5187 43.2118 30.0866 43.2118 29.5536V8.32288C43.2118 8.09182 43.12 7.87022 42.9566 7.70683C42.7932 7.54345 42.5716 7.45166 42.3405 7.45166Z" fill="#E6E6E6"/>
<path d="M39.3427 11.6601L36.3529 11.434C36.2657 11.4274 36.178 11.4381 36.0949 11.4654C36.0118 11.4927 35.9349 11.5361 35.8685 11.5931C35.8022 11.6501 35.7477 11.7196 35.7082 11.7977C35.6688 11.8758 35.6451 11.9609 35.6385 12.0481C35.6319 12.1353 35.6425 12.223 35.6698 12.3061C35.6971 12.3892 35.7405 12.4662 35.7975 12.5325C35.8545 12.5988 35.9241 12.6533 36.0021 12.6928C36.0802 12.7323 36.1653 12.756 36.2525 12.7626L37.6653 12.8694L27.9782 20.5197L24.7966 18.0071C24.6791 17.9143 24.5336 17.8637 24.3838 17.8637C24.2339 17.8637 24.0885 17.9143 23.9709 18.0071L17.1371 23.4039L13.4363 20.4814C13.3187 20.3885 13.1733 20.338 13.0234 20.338C12.8736 20.338 12.7281 20.3885 12.6106 20.4814L5.64652 25.9812C5.53779 26.067 5.45849 26.1845 5.41966 26.3174C5.38083 26.4503 5.3844 26.5921 5.42988 26.7229C5.47535 26.8537 5.56047 26.967 5.67338 27.0472C5.78629 27.1274 5.92139 27.1703 6.05987 27.1701C6.20957 27.1702 6.3549 27.1197 6.47227 27.0268L13.0234 21.853L16.7242 24.7756C16.8418 24.8684 16.9873 24.919 17.1371 24.919C17.2869 24.919 17.4324 24.8684 17.55 24.7756L24.3838 19.3788L27.5654 21.8914C27.683 21.9842 27.8284 22.0347 27.9782 22.0347C28.1281 22.0347 28.2735 21.9842 28.3911 21.8914L38.5629 13.8584L38.5012 15.3624C38.4976 15.4522 38.5121 15.5417 38.5439 15.6257C38.5757 15.7097 38.6242 15.7864 38.6864 15.8511C38.7487 15.9159 38.8233 15.9674 38.906 16.0026C38.9886 16.0378 39.0775 16.0559 39.1673 16.0559C39.3392 16.0558 39.5044 15.9892 39.6283 15.8701C39.7523 15.7511 39.8255 15.5887 39.8326 15.417L39.9582 12.3518C39.9653 12.1793 39.905 12.0107 39.7902 11.8816C39.6754 11.7526 39.5149 11.6732 39.3427 11.6601Z" fill="#FF4C4C"/>
<path d="M30.8616 36.4544C36.0796 36.4544 40.3097 32.2243 40.3097 27.0062C40.3097 21.7882 36.0796 17.5581 30.8616 17.5581C25.6435 17.5581 21.4135 21.7882 21.4135 27.0062C21.4135 32.2243 25.6435 36.4544 30.8616 36.4544Z" fill="#F6BB00"/>
<path d="M30.8617 33.6869C34.5513 33.6869 37.5423 30.6959 37.5423 27.0063C37.5423 23.3167 34.5513 20.3257 30.8617 20.3257C27.172 20.3257 24.181 23.3167 24.181 27.0063C24.181 30.6959 27.172 33.6869 30.8617 33.6869Z" fill="#FFFCFD"/>
<path d="M47.0731 42.3646L46.2193 43.2184C45.8717 43.566 45.3081 43.566 44.9604 43.2184L40.1604 38.4184C39.8128 38.0708 39.8128 37.5071 40.1604 37.1594L41.0142 36.3056C41.3618 35.958 41.9254 35.958 42.2731 36.3056L47.0731 41.1056C47.4208 41.4534 47.4208 42.017 47.0731 42.3646Z" fill="#927266"/>
<path d="M47.0731 41.1056L42.2731 36.3056C41.9255 35.958 41.3618 35.958 41.0142 36.3056L40.1604 37.1594C40.1274 37.1929 40.0971 37.2289 40.0698 37.2671C40.4179 37.0144 40.9072 37.0439 41.2211 37.3577L46.0211 42.1577C46.3349 42.4715 46.3644 42.9609 46.1116 43.309C46.1491 43.2817 46.1855 43.2522 46.2194 43.2184L47.0731 42.3646C47.4209 42.0169 47.4209 41.4533 47.0731 41.1056Z" fill="#736357"/>
<path d="M42.3404 7.45166H4.46851C4.23745 7.45166 4.01585 7.54345 3.85246 7.70683C3.68908 7.87022 3.59729 8.09182 3.59729 8.32288V10.1168H43.2116V8.32288C43.2116 8.09182 43.1198 7.87022 42.9565 7.70683C42.7931 7.54345 42.5715 7.45166 42.3404 7.45166Z" fill="#F6BB00"/>
<path d="M42.3404 7.45166H38.1362C38.2506 7.45166 38.3639 7.4742 38.4696 7.51798C38.5753 7.56176 38.6714 7.62593 38.7523 7.70683C38.8332 7.78773 38.8973 7.88378 38.9411 7.98948C38.9849 8.09518 39.0074 8.20847 39.0074 8.32288V10.1168H43.2117V8.32288C43.2117 8.09182 43.1199 7.87022 42.9565 7.70683C42.7931 7.54345 42.5715 7.45166 42.3404 7.45166Z" fill="#FFD33A"/>
<path d="M33.3578 41.3729C33.306 40.603 32.6667 39.9941 31.8836 39.9941H29.174L29.1655 43.1492H32.9079C33.0133 43.1492 33.1154 43.1125 33.1967 43.0456C33.2781 42.9786 33.3337 42.8855 33.354 42.7821L33.3578 41.3729Z" fill="#736357"/>
<path d="M30.8614 33.6876C34.5511 33.6876 37.5422 30.6965 37.5422 27.0068C37.5422 25.162 36.7945 23.4917 35.5855 22.2827L26.1373 31.7308C27.3463 32.9398 29.0166 33.6877 30.8614 33.6876Z" fill="#E6E6E6"/>
<path d="M47.5442 40.6346L43.8825 36.9729H44.1215C45.6034 36.9729 46.8089 35.7673 46.8089 34.2855V6.54193C46.8089 5.06002 45.6033 3.85449 44.1215 3.85449H2.68734C1.20553 3.85449 0 5.06012 0 6.54193V9.30493C0 9.6729 0.298219 9.97112 0.666188 9.97112C1.03416 9.97112 1.33238 9.6729 1.33238 9.30493V6.54193C1.33238 5.79465 1.94025 5.18677 2.68744 5.18677H44.1215C44.8688 5.18677 45.4766 5.79465 45.4766 6.54193V34.2854C45.4766 35.0326 44.8688 35.6405 44.1215 35.6405H42.5083C42.5103 35.6418 42.5122 35.6435 42.5141 35.6448C42.2573 35.4708 41.9539 35.378 41.6437 35.3788C41.3318 35.3781 41.027 35.4718 40.7694 35.6476C40.7727 35.6454 40.7757 35.6428 40.779 35.6405H40.4375L38.4687 33.6718C40.0898 31.8268 40.9757 29.485 40.9757 27.0066C40.9757 24.305 39.9235 21.7651 38.0133 19.8548C37.7761 19.6175 37.5275 19.392 37.2682 19.1791C35.4653 17.6979 33.2253 16.8924 30.8613 16.8924C29.3416 16.8924 27.8732 17.2253 26.539 17.8566C25.5014 18.3476 24.5451 19.0191 23.7093 19.8548C23.6816 19.8826 23.6548 19.9108 23.6274 19.9387C23.5952 19.9717 23.5625 20.0045 23.5307 20.0379C23.5121 20.0575 23.4941 20.0774 23.4757 20.0971C23.4347 20.1407 23.3937 20.1844 23.3537 20.2287C23.3449 20.2384 23.3364 20.2484 23.3276 20.2581C21.6596 22.1156 20.7469 24.4908 20.7469 27.0066C20.7469 29.4461 21.605 31.7536 23.1778 33.5849L23.1811 33.5888C23.2256 33.6406 23.271 33.6918 23.3167 33.7428C23.3295 33.7572 23.342 33.7718 23.3549 33.7861C23.3875 33.8221 23.421 33.8576 23.4543 33.8933C23.4802 33.9212 23.5057 33.9494 23.5322 33.977C23.5401 33.9854 23.5483 33.9934 23.5562 34.0017C23.6066 34.0544 23.6574 34.1068 23.7092 34.1586C23.777 34.2264 23.8457 34.2928 23.9151 34.3583C23.9303 34.3726 23.9456 34.3867 23.9609 34.401C24.0154 34.4519 24.0702 34.5022 24.1256 34.5518C24.1441 34.5683 24.1627 34.5847 24.1813 34.601C24.2368 34.6501 24.2928 34.6983 24.3492 34.746L24.3956 34.7851C24.4645 34.8425 24.534 34.8991 24.6041 34.9546L24.6108 34.9599C24.9224 35.2058 25.2483 35.4331 25.5866 35.6406H2.68734C1.94016 35.6406 1.33228 35.0327 1.33228 34.2855V13.5258C1.33228 13.3492 1.2621 13.1797 1.13717 13.0548C1.01225 12.9299 0.842812 12.8597 0.666141 12.8597C0.489469 12.8597 0.320034 12.9299 0.195108 13.0548C0.0701825 13.1797 0 13.3492 0 13.5258L0 34.2854C0 35.7673 1.20553 36.9728 2.68734 36.9728H18.0189L17.4498 39.328H14.9251C13.7422 39.328 12.7797 40.2904 12.7797 41.4735V42.6943C12.7797 43.3125 13.2826 43.8154 13.9009 43.8154H32.9078C33.526 43.8154 34.029 43.3126 34.029 42.6943V41.4735C34.029 40.2904 33.0666 39.328 31.8836 39.328H29.3589L28.7898 36.9728H29.1218C29.6908 37.0709 30.2722 37.1209 30.8614 37.1209C31.4505 37.1209 32.0319 37.0709 32.6009 36.9728H39.4658C39.3137 37.2178 39.2332 37.5004 39.2334 37.7888C39.2328 37.9933 39.2728 38.1959 39.3511 38.3848C39.4293 38.5737 39.5443 38.7452 39.6892 38.8894L44.4893 43.6893C44.7832 43.9833 45.1741 44.1451 45.5898 44.1451C46.0055 44.1451 46.3964 43.9833 46.6903 43.6893L47.5441 42.8356C47.8381 42.5416 47.9999 42.1507 47.9999 41.735C47.9999 41.3193 47.8382 40.9285 47.5442 40.6346ZM19.3897 36.9728H27.4192L27.9883 39.328H18.8206L19.3897 36.9728ZM28.8346 40.6604L28.8361 40.6603H31.8835C32.3319 40.6603 32.6966 41.0252 32.6966 41.4735V42.4831H14.1121V41.4735C14.1121 41.0252 14.4769 40.6603 14.9252 40.6603H17.9726L17.9741 40.6604H28.8346ZM35.6737 34.3532C35.562 34.4266 35.4486 34.4974 35.3336 34.5656L35.3197 34.5739C33.9494 35.381 32.4056 35.7847 30.8614 35.7845C29.3154 35.7844 27.7692 35.3798 26.3975 34.5706H26.3974C26.2774 34.4997 26.1592 34.426 26.0428 34.3494L26.0189 34.3338C25.7869 34.1802 25.5624 34.0156 25.3462 33.8405C25.3202 33.8195 25.2946 33.798 25.2689 33.7767C25.1895 33.7109 25.1113 33.6438 25.0343 33.5753C25.0045 33.5489 24.9746 33.5226 24.9452 33.4958C24.8499 33.4091 24.7564 33.3203 24.665 33.2295C24.6606 33.2251 24.656 33.2209 24.6516 33.2166C21.2274 29.7926 21.2274 24.2212 24.6516 20.7972C28.0756 17.3731 33.6472 17.3732 37.071 20.7972C38.4188 22.1448 39.2745 23.8534 39.5481 25.7049C39.6116 26.136 39.6434 26.5712 39.6433 27.0069C39.6433 29.3527 38.7298 31.5581 37.071 33.2167C36.9747 33.3126 36.8761 33.4062 36.7755 33.4976C36.7474 33.5233 36.7189 33.5483 36.6905 33.5735C36.6125 33.6429 36.5332 33.7109 36.4528 33.7774C36.4273 33.7985 36.4019 33.82 36.3762 33.8408C36.161 34.015 35.9376 34.1789 35.7068 34.3319C35.696 34.3389 35.6848 34.3459 35.6737 34.3532ZM36.1358 35.6405C36.4732 35.4336 36.7982 35.2071 37.109 34.9621C37.1152 34.9571 37.1213 34.952 37.1276 34.9471C37.2634 34.8394 37.3964 34.7283 37.5266 34.614L38.5532 35.6405H36.1358ZM46.602 41.8935L45.7482 42.7472C45.6911 42.8044 45.6246 42.8129 45.5899 42.8129C45.5552 42.8129 45.4885 42.8043 45.4315 42.7472L40.6315 37.9473C40.5743 37.8902 40.5659 37.8236 40.5659 37.7889C40.5659 37.7543 40.5744 37.6876 40.6315 37.6306L41.4853 36.7768C41.5424 36.7196 41.609 36.7112 41.6437 36.7112C41.6783 36.7112 41.745 36.7197 41.802 36.7768L46.602 41.5768C46.6592 41.6339 46.6676 41.7004 46.6676 41.7351C46.6676 41.7698 46.6592 41.8364 46.602 41.8935Z" fill="black"/>
<path d="M42.2466 29.8526H41.8161C41.4482 29.8526 41.1499 30.1509 41.1499 30.5188C41.1499 30.8868 41.4482 31.185 41.8161 31.185H42.2466C43.1462 31.185 43.8779 30.4533 43.8779 29.5538V8.32305C43.8779 7.47536 43.1882 6.78564 42.3405 6.78564H4.46856C3.62087 6.78564 2.93115 7.47527 2.93115 8.32305V29.5538C2.93115 30.4533 3.66287 31.185 4.5624 31.185H19.7367C20.1047 31.185 20.4029 30.8868 20.4029 30.5188C20.4029 30.1509 20.1047 29.8526 19.7367 29.8526H4.5624C4.48316 29.8526 4.40718 29.8211 4.35115 29.765C4.29511 29.709 4.2636 29.633 4.26353 29.5538V10.7831H42.5456V29.5538C42.5455 29.633 42.5139 29.709 42.4579 29.765C42.4018 29.821 42.3259 29.8525 42.2466 29.8526ZM4.26353 9.45086V8.32305C4.2636 8.2687 4.28523 8.21659 4.32366 8.17815C4.3621 8.13972 4.4142 8.11809 4.46856 8.11802H42.3405C42.3948 8.11809 42.4469 8.13972 42.4854 8.17815C42.5238 8.21659 42.5454 8.2687 42.5455 8.32305V9.45086H4.26353Z" fill="black"/>
<path d="M30.8614 34.3536C26.8102 34.3536 23.5144 31.0577 23.5144 27.0066C23.5144 22.9554 26.8103 19.6597 30.8614 19.6597C34.9125 19.6597 38.2084 22.9555 38.2084 27.0066C38.2084 31.0577 34.9125 34.3536 30.8614 34.3536ZM30.8614 20.9919C27.5449 20.9919 24.8467 23.6901 24.8467 27.0066C24.8467 30.3231 27.5449 33.0213 30.8614 33.0213C34.1779 33.0213 36.8761 30.3231 36.8761 27.0066C36.8761 23.6901 34.1779 20.9919 30.8614 20.9919Z" fill="black"/>
<path d="M30.5484 30.969C29.1683 30.9467 28.2335 30.201 28.2335 29.6558C28.2335 29.3887 28.4672 29.0213 28.7455 29.0213C29.1128 29.0213 29.4133 29.8004 30.5485 29.8895V27.274C29.5469 26.9179 28.4339 26.5172 28.4339 25.0927C28.4339 23.6903 29.4912 23.1338 30.5485 23.0226V22.6998C30.5485 22.5662 30.6821 22.4438 30.8713 22.4438C31.0382 22.4438 31.2051 22.5663 31.2051 22.6998V23.0003C31.962 23.0225 33.0303 23.2562 33.0303 23.8016C33.0303 24.0131 32.8745 24.436 32.5406 24.436C32.2735 24.436 31.9842 24.0799 31.205 24.0243V26.2836C32.1733 26.6397 33.2306 27.1294 33.2306 28.6431C33.2306 30.012 32.407 30.7688 31.205 30.9357V31.3141C31.205 31.4477 31.038 31.57 30.8712 31.57C30.682 31.57 30.5484 31.4476 30.5484 31.3141V30.969ZM30.6151 26.072V24.0464C29.9919 24.1243 29.5467 24.4026 29.5467 24.9813C29.5468 25.6157 30.0253 25.8494 30.6151 26.072ZM31.1383 27.5188V29.8672C31.7393 29.7559 32.1177 29.3997 32.1177 28.7653C32.1177 28.0642 31.6836 27.7525 31.1383 27.5188Z" fill="#6A7073"/>
</svg>
