<svg width="48" height="48" viewBox="0 0 48 48" fill="none" xmlns="http://www.w3.org/2000/svg">
<g clip-path="url(#clip0_1422_16731)">
<path d="M46.8816 28.2253L44.3813 29.475L43.1316 31.9753L41.8819 29.475L39.3816 28.2253L41.8819 26.9757L43.1316 24.4753L44.3813 26.9757L46.8816 28.2253Z" fill="#FFDA8F"/>
<path d="M29.625 6.5625H25.875V18.9375H22.125V6.5625H18.375L24 0.9375L29.625 6.5625Z" fill="#A0E5A5"/>
<path d="M18.1941 15.1003L15.6938 16.35L14.4441 18.8503L13.1944 16.35L10.6941 15.1003L13.1944 13.8507L14.4441 11.3503L15.6938 13.8507L18.1941 15.1003Z" fill="#FFDA8F"/>
<path d="M20.25 28.3125H27.75L24 37.6875L20.25 28.3125ZM43.3125 37.6875H39.375L35.625 28.3125H31.6875L27.9375 18.9375H20.0625L16.3125 28.3125H12.375L8.625 37.6875H4.6875L0.9375 47.0625H16.3125L12.5625 37.6875H20.0625L16.3125 47.0625H31.6875L27.9375 37.6875H35.4375L31.6875 47.0625H47.0625L43.3125 37.6875Z" fill="#FFDA8F"/>
<path d="M12.1875 22.6875L7.96875 24.0938L6.5625 28.3125L5.15625 24.0938L0.9375 22.6875L5.15625 21.2812L6.5625 17.0625L7.96875 21.2812L12.1875 22.6875Z" fill="#FFDA8F"/>
<mask id="mask0_1422_16731" style="mask-type:luminance" maskUnits="userSpaceOnUse" x="0" y="0" width="48" height="48">
<path d="M48 0H0V48H48V0Z" fill="white"/>
</mask>
<g mask="url(#mask0_1422_16731)">
<path d="M8.625 37.6875H4.6875L0.9375 47.0625H16.3125L12.5625 37.6875H8.625Z" stroke="black" stroke-width="1.875" stroke-linecap="round" stroke-linejoin="round"/>
<path d="M16.3125 47.0625H31.6875L27.9375 37.6875H20.0625L16.3125 47.0625Z" stroke="black" stroke-width="1.875" stroke-linecap="round" stroke-linejoin="round"/>
<path d="M31.6875 47.0625H47.0625L43.3125 37.6875H35.4375L31.6875 47.0625Z" stroke="black" stroke-width="1.875" stroke-linecap="round" stroke-linejoin="round"/>
</g>
<path d="M29.7262 33.9375L30.4762 32.0625H32.8987" stroke="black" stroke-width="1.875" stroke-linecap="round" stroke-linejoin="round"/>
<path d="M14.3512 33.9375L15.1012 32.0625H17.5237" stroke="black" stroke-width="1.875" stroke-linecap="round" stroke-linejoin="round"/>
<path d="M22.0387 43.3125L22.7887 41.4375H25.2112" stroke="black" stroke-width="1.875" stroke-linecap="round" stroke-linejoin="round"/>
<path d="M37.4137 43.3125L38.1637 41.4375H40.5862" stroke="black" stroke-width="1.875" stroke-linecap="round" stroke-linejoin="round"/>
<path d="M6.6637 43.3125L7.4137 41.4375H9.8362" stroke="black" stroke-width="1.875" stroke-linecap="round" stroke-linejoin="round"/>
<path d="M22.0387 24.5625L22.7887 22.6875H25.2112" stroke="black" stroke-width="1.875" stroke-linecap="round" stroke-linejoin="round"/>
<path d="M20.25 28.3125H12.375L8.625 37.6875" stroke="black" stroke-width="1.875" stroke-linecap="round" stroke-linejoin="round"/>
<path d="M27.75 28.3125H31.6875L27.9375 18.9375H20.0625L16.3125 28.3125" stroke="black" stroke-width="1.875" stroke-linecap="round" stroke-linejoin="round"/>
<path d="M39.375 37.6875L35.625 28.3125H31.6875" stroke="black" stroke-width="1.875" stroke-linecap="round" stroke-linejoin="round"/>
<path d="M12.5625 37.6875H20.0625" stroke="black" stroke-width="1.875" stroke-linecap="round" stroke-linejoin="round"/>
<path d="M27.9375 37.6875H35.4375" stroke="black" stroke-width="1.875" stroke-linecap="round" stroke-linejoin="round"/>
<path d="M24 37.6875L20.25 28.3125H27.75L24 37.6875Z" stroke="black" stroke-width="1.875" stroke-linecap="round" stroke-linejoin="round"/>
<mask id="mask1_1422_16731" style="mask-type:luminance" maskUnits="userSpaceOnUse" x="0" y="0" width="48" height="48">
<path d="M48 0H0V48H48V0Z" fill="white"/>
</mask>
<g mask="url(#mask1_1422_16731)">
<path d="M44.3813 29.475L46.8816 28.2253L44.3813 26.9757L43.1316 24.4753L41.8819 26.9757L39.3816 28.2253L41.8819 29.475L43.1316 31.9753L44.3813 29.475Z" stroke="black" stroke-width="1.875" stroke-linecap="round" stroke-linejoin="round"/>
</g>
<path d="M15.6938 16.35L18.1941 15.1003L15.6938 13.8507L14.4441 11.3503L13.1944 13.8507L10.6941 15.1003L13.1944 16.35L14.4441 18.8503L15.6938 16.35Z" stroke="black" stroke-width="1.875" stroke-linecap="round" stroke-linejoin="round"/>
<mask id="mask2_1422_16731" style="mask-type:luminance" maskUnits="userSpaceOnUse" x="0" y="0" width="48" height="48">
<path d="M48 0H0V48H48V0Z" fill="white"/>
</mask>
<g mask="url(#mask2_1422_16731)">
<path d="M7.96875 24.0938L12.1875 22.6875L7.96875 21.2812L6.5625 17.0625L5.15625 21.2812L0.9375 22.6875L5.15625 24.0938L6.5625 28.3125L7.96875 24.0938Z" stroke="black" stroke-width="1.875" stroke-linecap="round" stroke-linejoin="round"/>
<path d="M26.8125 12.75C26.8125 13.2675 26.3925 13.6875 25.875 13.6875C25.3575 13.6875 24.9375 13.2675 24.9375 12.75C24.9375 12.2325 25.3575 11.8125 25.875 11.8125C26.3925 11.8125 26.8125 12.2325 26.8125 12.75Z" fill="black"/>
<path d="M22.125 18.9375V6.5625H18.375L24 0.9375L29.625 6.5625H25.875V8.53125" stroke="black" stroke-width="1.875" stroke-linecap="round" stroke-linejoin="round"/>
<path d="M25.875 16.9688V18.9375" stroke="black" stroke-width="1.875" stroke-linecap="round" stroke-linejoin="round"/>
</g>
</g>
<defs>
<clipPath id="clip0_1422_16731">
<rect width="48" height="48" fill="white"/>
</clipPath>
</defs>
</svg>
