<svg width="48" height="48" viewBox="0 0 48 48" fill="none" xmlns="http://www.w3.org/2000/svg">
<g clip-path="url(#clip0_1422_16162)">
<mask id="mask0_1422_16162" style="mask-type:luminance" maskUnits="userSpaceOnUse" x="0" y="0" width="48" height="48">
<path d="M48 0H0V48H48V0Z" fill="white"/>
</mask>
<g mask="url(#mask0_1422_16162)">
<path d="M47.0625 25.875V24C47.0625 23.37 47.0353 22.7447 46.9809 22.125H1.01906C0.964687 22.7447 0.9375 23.37 0.9375 24V25.875H5.34469C5.54906 27.9347 6.09937 29.8894 6.91594 31.6987L3.57656 33.6262L5.45156 36.8738L8.79562 34.9434C9.97875 36.5831 11.4169 38.0212 13.0566 39.2044L11.1263 42.5484L14.3738 44.4234L16.3013 41.0841C18.1106 41.9006 20.0653 42.4509 22.125 42.6553V47.0625H25.875V42.6553C27.9347 42.4509 29.8894 41.9006 31.6987 41.0841L33.6263 44.4234L36.8737 42.5484L34.9434 39.2044C36.5831 38.0212 38.0212 36.5831 39.2044 34.9434L42.5484 36.8738L44.4234 33.6262L41.0841 31.6987C41.9006 29.8894 42.4509 27.9347 42.6553 25.875H47.0625Z" fill="#FFDA8F"/>
<path d="M24 0.9375C12.2034 0.9375 2.02029 10.5225 1.01904 22.125H46.9809C45.9797 10.5225 35.7965 0.9375 24 0.9375Z" fill="#A0E5A5"/>
<path d="M24 9C15.7031 9 9 15.7266 9 24C9 32.2734 15.7153 39 24 39C32.2847 39 39 32.2847 39 24C39 15.7153 32.2819 9 24 9Z" fill="#EEFAFF"/>
<path d="M34.6069 13.3931L27.6 22.9471C27.6994 23.2893 27.75 23.6437 27.75 23.9999C27.75 26.0709 26.0709 27.7499 24 27.7499C21.9291 27.7499 20.25 26.0709 20.25 23.9999C20.25 21.929 21.9291 20.2499 24 20.2499C24.3562 20.2499 24.7106 20.3006 25.0528 20.3999L34.6069 13.3931Z" fill="#FF7D95"/>
<path d="M27.75 32.4375C28.2675 32.4375 28.6875 32.8575 28.6875 33.375C28.6875 33.8925 28.2675 34.3125 27.75 34.3125C27.2325 34.3125 26.8125 33.8925 26.8125 33.375C26.8125 32.8575 27.2325 32.4375 27.75 32.4375Z" fill="black"/>
<path d="M24 23.0625C24.5175 23.0625 24.9375 23.4825 24.9375 24C24.9375 24.5175 24.5175 24.9375 24 24.9375C23.4825 24.9375 23.0625 24.5175 23.0625 24C23.0625 23.4825 23.4825 23.0625 24 23.0625Z" fill="black"/>
<path d="M24 32.4375C24.5175 32.4375 24.9375 32.8575 24.9375 33.375C24.9375 33.8925 24.5175 34.3125 24 34.3125C23.4825 34.3125 23.0625 33.8925 23.0625 33.375C23.0625 32.8575 23.4825 32.4375 24 32.4375Z" fill="black"/>
<path d="M20.25 32.4375C20.7675 32.4375 21.1875 32.8575 21.1875 33.375C21.1875 33.8925 20.7675 34.3125 20.25 34.3125C19.7325 34.3125 19.3125 33.8925 19.3125 33.375C19.3125 32.8575 19.7325 32.4375 20.25 32.4375Z" fill="black"/>
<path d="M38.8838 22.125H46.9857" stroke="black" stroke-width="1.875" stroke-linecap="round" stroke-linejoin="round"/>
<path d="M1.01906 22.125C0.964687 22.7447 0.9375 23.37 0.9375 24V25.875H5.34469C5.54906 27.9347 6.09937 29.8894 6.91594 31.6987L3.57656 33.6262L5.45156 36.8738L8.79562 34.9434C9.97875 36.5831 11.4169 38.0212 13.0566 39.2044L11.1263 42.5484L14.3738 44.4234L16.3013 41.0841C18.1106 41.9006 20.0653 42.4509 22.125 42.6553V47.0625H25.875V42.6553C27.9347 42.4509 29.8894 41.9006 31.6987 41.0841L33.6262 44.4234L36.8738 42.5484L34.9434 39.2044C36.5831 38.0212 38.0212 36.5831 39.2044 34.9434L42.5484 36.8738L44.4234 33.6262L41.0841 31.6987C41.9006 29.8894 42.4509 27.9347 42.6553 25.875H47.0625V24C47.0625 23.37 47.0353 22.7447 46.9809 22.125C45.9797 10.5225 35.7966 0.9375 24 0.9375C12.2034 0.9375 2.02031 10.5225 1.01906 22.125Z" stroke="black" stroke-width="1.875" stroke-linecap="round" stroke-linejoin="round"/>
<path d="M1.0144 22.125H9.11628" stroke="black" stroke-width="1.875" stroke-linecap="round" stroke-linejoin="round"/>
<path d="M24 0.9375V5.25" stroke="black" stroke-width="1.875" stroke-linecap="round" stroke-linejoin="round"/>
<path d="M12.75 4.51404L14.625 7.76154" stroke="black" stroke-width="1.875" stroke-linecap="round" stroke-linejoin="round"/>
<path d="M4.51404 12.75L7.76154 14.625" stroke="black" stroke-width="1.875" stroke-linecap="round" stroke-linejoin="round"/>
<path d="M40.2384 14.625L43.4859 12.75" stroke="black" stroke-width="1.875" stroke-linecap="round" stroke-linejoin="round"/>
<path d="M33.375 7.76154L35.25 4.51404" stroke="black" stroke-width="1.875" stroke-linecap="round" stroke-linejoin="round"/>
<path d="M25.0528 20.3999L34.6069 13.3931L27.6 22.9471C27.6994 23.2893 27.75 23.6437 27.75 23.9999C27.75 26.0709 26.0709 27.7499 24 27.7499C21.9291 27.7499 20.25 26.0709 20.25 23.9999C20.25 21.929 21.9291 20.2499 24 20.2499C24.3562 20.2499 24.7106 20.3006 25.0528 20.3999Z" stroke="black" stroke-width="1.875" stroke-linecap="round" stroke-linejoin="round"/>
<path d="M35.5312 34.5938C35.5312 35.1113 35.1113 35.5312 34.5938 35.5312C34.0763 35.5312 33.6562 35.1113 33.6562 34.5938C33.6562 34.0763 34.0763 33.6562 34.5938 33.6562C35.1113 33.6562 35.5312 34.0763 35.5312 34.5938Z" fill="black"/>
<path d="M31.2347 37.1438C29.0897 38.3269 26.6231 39 24 39C15.7153 39 9 32.2847 9 24C9 23.3653 9.03937 22.7391 9.11625 22.125C10.0387 14.7253 16.35 9 24 9C28.1419 9 31.8919 10.6791 34.6069 13.3931C36.9047 15.6919 38.4609 18.7331 38.8838 22.125C38.9616 22.7466 39 23.3728 39 24C39 26.6231 38.3269 29.0897 37.1428 31.2347" stroke="black" stroke-width="1.875" stroke-linecap="round" stroke-linejoin="round"/>
</g>
</g>
<defs>
<clipPath id="clip0_1422_16162">
<rect width="48" height="48" fill="white"/>
</clipPath>
</defs>
</svg>
