<svg width="48" height="48" viewBox="0 0 48 48" fill="none" xmlns="http://www.w3.org/2000/svg">
<path d="M28.942 40.4384L27.8363 35.8627H18.9726L17.8669 40.4384H28.942Z" fill="#FF4C4C"/>
<path d="M27.8363 35.8627H23.7061L24.8118 40.4384H28.942L27.8363 35.8627Z" fill="#F33939"/>
<path d="M44.1215 36.3067H2.68744C1.57116 36.3067 0.666191 35.4017 0.666191 34.2854V6.542C0.666191 5.42572 1.57116 4.52075 2.68744 4.52075H44.1215C45.2378 4.52075 46.1427 5.42572 46.1427 6.542V34.2854C46.1427 35.4018 45.2378 36.3067 44.1215 36.3067Z" fill="#FFB125"/>
<path d="M44.1215 4.52075H41.9681V32.2426C41.9681 33.3589 41.0632 34.2639 39.9469 34.2639H0.666092V34.2855C0.666092 35.4018 1.57106 36.3068 2.68734 36.3068H44.1214C45.2377 36.3068 46.1426 35.4018 46.1426 34.2855V6.542C46.1427 5.42572 45.2377 4.52075 44.1215 4.52075Z" fill="#FF901D"/>
<path d="M32.908 43.1494H13.9009C13.7802 43.1494 13.6645 43.1015 13.5792 43.0162C13.4939 42.9309 13.4459 42.8151 13.4459 42.6945V41.4737C13.4459 40.6567 14.1082 39.9944 14.9252 39.9944H31.8836C32.7005 39.9944 33.3628 40.6566 33.3628 41.4737V42.6945C33.3629 42.7542 33.3511 42.8134 33.3282 42.8686C33.3054 42.9238 33.2719 42.9739 33.2296 43.0162C33.1874 43.0584 33.1373 43.0919 33.0821 43.1148C33.0269 43.1377 32.9677 43.1494 32.908 43.1494Z" fill="#927266"/>
<path d="M43.2116 29.5538V8.32312C43.2116 8.09206 43.1198 7.87046 42.9565 7.70708C42.7931 7.54369 42.5715 7.4519 42.3404 7.4519H4.4685C4.23744 7.4519 4.01584 7.54369 3.85246 7.70708C3.68907 7.87046 3.59728 8.09206 3.59728 8.32312V29.5538C3.59728 30.0868 4.02938 30.5189 4.56235 30.5189H42.2466C42.7795 30.5189 43.2116 30.0869 43.2116 29.5538Z" fill="#FFFCFD"/>
<path d="M42.3405 7.4519H38.1363C38.2507 7.4519 38.364 7.47444 38.4697 7.51822C38.5754 7.562 38.6714 7.62618 38.7523 7.70708C38.8332 7.78798 38.8974 7.88402 38.9412 7.98972C38.9849 8.09542 39.0075 8.20871 39.0075 8.32312V29.5538C39.0075 30.0868 38.5754 30.5189 38.0424 30.5189H42.2466C42.7796 30.5189 43.2117 30.0868 43.2117 29.5538V8.32312C43.2117 8.09206 43.1199 7.87046 42.9565 7.70708C42.7931 7.54369 42.5715 7.4519 42.3405 7.4519Z" fill="#E6E6E6"/>
<path d="M39.3427 11.6601L36.3529 11.434C36.2656 11.4274 36.178 11.4381 36.0949 11.4654C36.0117 11.4927 35.9348 11.5361 35.8685 11.5931C35.8021 11.6501 35.7477 11.7196 35.7082 11.7977C35.6687 11.8758 35.645 11.9609 35.6384 12.0481C35.6318 12.1353 35.6425 12.223 35.6698 12.3061C35.6971 12.3892 35.7405 12.4662 35.7975 12.5325C35.8545 12.5988 35.924 12.6533 36.0021 12.6928C36.0802 12.7323 36.1652 12.756 36.2525 12.7626L37.6653 12.8694L27.9782 20.5197L24.7966 18.0071C24.679 17.9143 24.5336 17.8637 24.3837 17.8637C24.2339 17.8637 24.0884 17.9143 23.9709 18.0071L17.137 23.4039L13.4363 20.4814C13.3187 20.3885 13.1732 20.338 13.0234 20.338C12.8736 20.338 12.7281 20.3885 12.6105 20.4814L5.64648 25.9812C5.53774 26.067 5.45845 26.1845 5.41962 26.3174C5.38079 26.4503 5.38436 26.5921 5.42983 26.7229C5.4753 26.8537 5.56042 26.967 5.67333 27.0472C5.78625 27.1274 5.92134 27.1703 6.05982 27.1701C6.20952 27.1702 6.35486 27.1197 6.47223 27.0268L13.0234 21.853L16.7242 24.7756C16.8418 24.8684 16.9872 24.919 17.137 24.919C17.2869 24.919 17.4323 24.8684 17.5499 24.7756L24.3837 19.3788L27.5653 21.8914C27.6829 21.9842 27.8284 22.0347 27.9782 22.0347C28.128 22.0347 28.2735 21.9842 28.3911 21.8914L38.5629 13.8584L38.5012 15.3624C38.4975 15.4522 38.512 15.5417 38.5439 15.6257C38.5757 15.7097 38.6242 15.7864 38.6864 15.8511C38.7486 15.9159 38.8233 15.9674 38.9059 16.0026C38.9886 16.0378 39.0774 16.0559 39.1673 16.0559C39.3391 16.0558 39.5043 15.9892 39.6283 15.8701C39.7523 15.7511 39.8254 15.5887 39.8325 15.417L39.9581 12.3518C39.9652 12.1793 39.905 12.0107 39.7902 11.8816C39.6753 11.7526 39.5149 11.6732 39.3427 11.6601Z" fill="#FF4C4C"/>
<path d="M30.8616 36.4547C36.0797 36.4547 40.3097 32.2247 40.3097 27.0066C40.3097 21.7885 36.0797 17.5585 30.8616 17.5585C25.6436 17.5585 21.4135 21.7885 21.4135 27.0066C21.4135 32.2247 25.6436 36.4547 30.8616 36.4547Z" fill="#21D8DE"/>
<path d="M30.8616 33.6872C34.5512 33.6872 37.5422 30.6962 37.5422 27.0066C37.5422 23.3169 34.5512 20.3259 30.8616 20.3259C27.172 20.3259 24.181 23.3169 24.181 27.0066C24.181 30.6962 27.172 33.6872 30.8616 33.6872Z" fill="#FFFCFD"/>
<path d="M47.0732 42.3647L46.2194 43.2185C45.8718 43.5661 45.3081 43.5661 44.9604 43.2185L40.1604 38.4185C39.8128 38.0709 39.8128 37.5073 40.1604 37.1595L41.0142 36.3058C41.3618 35.9581 41.9255 35.9581 42.2732 36.3058L47.0732 41.1058C47.4209 41.4535 47.4209 42.0171 47.0732 42.3647Z" fill="#927266"/>
<path d="M47.0732 41.1059L42.2732 36.3059C41.9255 35.9583 41.3618 35.9583 41.0142 36.3059L40.1604 37.1597C40.1275 37.1931 40.0972 37.2292 40.0699 37.2674C40.4179 37.0146 40.9072 37.0442 41.2211 37.3579L46.0211 42.1579C46.3349 42.4717 46.3644 42.9611 46.1117 43.3092C46.1492 43.2819 46.1855 43.2525 46.2194 43.2186L47.0732 42.3649C47.4209 42.0171 47.4209 41.4535 47.0732 41.1059Z" fill="#736357"/>
<path d="M42.3404 7.4519H4.4685C4.23744 7.4519 4.01584 7.54369 3.85246 7.70708C3.68907 7.87046 3.59728 8.09206 3.59728 8.32312V10.117H43.2116V8.32312C43.2116 8.09206 43.1198 7.87046 42.9565 7.70708C42.7931 7.54369 42.5715 7.4519 42.3404 7.4519Z" fill="#21D8DE"/>
<path d="M42.3405 7.4519H38.1363C38.2507 7.4519 38.364 7.47444 38.4697 7.51822C38.5754 7.562 38.6714 7.62618 38.7523 7.70708C38.8332 7.78798 38.8974 7.88402 38.9412 7.98972C38.9849 8.09542 39.0075 8.20871 39.0075 8.32312V10.117H43.2117V8.32312C43.2117 8.09206 43.1199 7.87046 42.9565 7.70708C42.7931 7.54369 42.5715 7.4519 42.3405 7.4519Z" fill="#0FB9C1"/>
<path d="M33.3579 41.3732C33.3061 40.6033 32.6668 39.9944 31.8837 39.9944H29.174L29.1656 43.1494H32.908C33.0134 43.1494 33.1154 43.1128 33.1968 43.0458C33.2782 42.9789 33.3337 42.8857 33.3541 42.7823L33.3579 41.3732Z" fill="#736357"/>
<path d="M30.8614 33.6876C34.5511 33.6876 37.5422 30.6965 37.5422 27.0068C37.5422 25.162 36.7945 23.4917 35.5855 22.2827L26.1374 31.7308C27.3464 32.9398 29.0166 33.6877 30.8614 33.6876Z" fill="#E6E6E6"/>
<path d="M47.5442 40.6347L43.8825 36.973H44.1215C45.6034 36.973 46.8089 35.7674 46.8089 34.2856V6.54205C46.8089 5.06015 45.6033 3.85461 44.1215 3.85461H2.68734C1.20553 3.85461 0 5.06024 0 6.54205V9.30505C0 9.67302 0.298219 9.97124 0.666188 9.97124C1.03416 9.97124 1.33238 9.67302 1.33238 9.30505V6.54205C1.33238 5.79477 1.94025 5.1869 2.68744 5.1869H44.1215C44.8688 5.1869 45.4766 5.79477 45.4766 6.54205V34.2855C45.4766 35.0328 44.8688 35.6406 44.1215 35.6406H42.5083C42.5103 35.642 42.5122 35.6436 42.5141 35.645C42.2573 35.4709 41.9539 35.3782 41.6437 35.3789C41.3318 35.3782 41.027 35.472 40.7694 35.6478C40.7727 35.6455 40.7757 35.6429 40.779 35.6406H40.4375L38.4687 33.6719C40.0898 31.8269 40.9757 29.4851 40.9757 27.0067C40.9757 24.3051 39.9235 21.7653 38.0133 19.8549C37.7761 19.6177 37.5275 19.3921 37.2682 19.1792C35.4653 17.698 33.2253 16.8925 30.8613 16.8925C29.3416 16.8925 27.8732 17.2254 26.539 17.8567C25.5014 18.3477 24.5451 19.0192 23.7093 19.8549C23.6816 19.8827 23.6548 19.9109 23.6274 19.9388C23.5952 19.9718 23.5625 20.0046 23.5307 20.038C23.5121 20.0576 23.4941 20.0775 23.4757 20.0972C23.4347 20.1409 23.3937 20.1846 23.3537 20.2288C23.3449 20.2386 23.3364 20.2485 23.3276 20.2582C21.6596 22.1157 20.7469 24.491 20.7469 27.0067C20.7469 29.4462 21.605 31.7537 23.1778 33.585L23.1811 33.5889C23.2256 33.6407 23.271 33.692 23.3167 33.743C23.3295 33.7573 23.342 33.7719 23.3549 33.7862C23.3875 33.8223 23.421 33.8577 23.4543 33.8934C23.4802 33.9214 23.5057 33.9495 23.5322 33.9771C23.5401 33.9855 23.5483 33.9936 23.5562 34.0018C23.6066 34.0545 23.6574 34.1069 23.7092 34.1587C23.777 34.2265 23.8457 34.2929 23.9151 34.3584C23.9303 34.3728 23.9456 34.3868 23.9609 34.4011C24.0154 34.452 24.0702 34.5023 24.1256 34.5519C24.1441 34.5684 24.1627 34.5848 24.1813 34.6011C24.2368 34.6502 24.2928 34.6985 24.3492 34.7461L24.3956 34.7852C24.4645 34.8426 24.534 34.8992 24.6041 34.9547L24.6108 34.96C24.9224 35.2059 25.2483 35.4332 25.5866 35.6407H2.68734C1.94016 35.6407 1.33228 35.0329 1.33228 34.2856V13.526C1.33228 13.3493 1.2621 13.1799 1.13717 13.0549C1.01225 12.93 0.842812 12.8598 0.666141 12.8598C0.489469 12.8598 0.320034 12.93 0.195108 13.0549C0.0701825 13.1799 0 13.3493 0 13.526L0 34.2855C0 35.7674 1.20553 36.9729 2.68734 36.9729H18.0189L17.4498 39.3281H14.9251C13.7422 39.3281 12.7797 40.2906 12.7797 41.4736V42.6944C12.7797 43.3126 13.2826 43.8156 13.9009 43.8156H32.9078C33.526 43.8156 34.029 43.3127 34.029 42.6944V41.4736C34.029 40.2906 33.0666 39.3281 31.8836 39.3281H29.3589L28.7898 36.9729H29.1218C29.6908 37.071 30.2722 37.1211 30.8614 37.1211C31.4505 37.1211 32.0319 37.071 32.6009 36.9729H39.4658C39.3137 37.2179 39.2332 37.5005 39.2334 37.7889C39.2328 37.9934 39.2728 38.196 39.3511 38.3849C39.4293 38.5738 39.5443 38.7454 39.6892 38.8895L44.4893 43.6895C44.7832 43.9835 45.1741 44.1453 45.5898 44.1453C46.0055 44.1453 46.3964 43.9835 46.6903 43.6895L47.5441 42.8357C47.8381 42.5417 47.9999 42.1508 47.9999 41.7351C47.9999 41.3195 47.8382 40.9286 47.5442 40.6347ZM19.3897 36.9729H27.4192L27.9883 39.3281H18.8206L19.3897 36.9729ZM28.8346 40.6605L28.8361 40.6604H31.8835C32.3319 40.6604 32.6966 41.0253 32.6966 41.4736V42.4832H14.1121V41.4736C14.1121 41.0253 14.4769 40.6604 14.9252 40.6604H17.9726L17.9741 40.6605H28.8346ZM35.6737 34.3534C35.562 34.4268 35.4486 34.4975 35.3336 34.5657L35.3197 34.5741C33.9494 35.3811 32.4056 35.7848 30.8614 35.7846C29.3154 35.7846 27.7692 35.3799 26.3975 34.5708H26.3974C26.2774 34.4999 26.1592 34.4261 26.0428 34.3495L26.0189 34.334C25.7869 34.1803 25.5624 34.0157 25.3462 33.8406C25.3202 33.8196 25.2946 33.7981 25.2689 33.7768C25.1895 33.7111 25.1113 33.6439 25.0343 33.5754C25.0045 33.549 24.9746 33.5227 24.9452 33.4959C24.8499 33.4092 24.7564 33.3204 24.665 33.2296C24.6606 33.2252 24.656 33.2211 24.6516 33.2167C21.2274 29.7927 21.2274 24.2213 24.6516 20.7973C28.0756 17.3732 33.6472 17.3734 37.071 20.7973C38.4188 22.145 39.2745 23.8536 39.5481 25.705C39.6116 26.1361 39.6434 26.5713 39.6433 27.007C39.6433 29.3528 38.7298 31.5582 37.071 33.2168C36.9747 33.3127 36.8761 33.4064 36.7755 33.4977C36.7474 33.5234 36.7189 33.5484 36.6905 33.5736C36.6125 33.643 36.5332 33.711 36.4528 33.7776C36.4273 33.7986 36.4019 33.8201 36.3762 33.8409C36.161 34.0151 35.9376 34.179 35.7068 34.332C35.696 34.339 35.6848 34.3461 35.6737 34.3534ZM36.1358 35.6406C36.4732 35.4337 36.7982 35.2072 37.109 34.9622C37.1152 34.9572 37.1213 34.9521 37.1276 34.9473C37.2634 34.8396 37.3964 34.7285 37.5266 34.6141L38.5532 35.6406H36.1358ZM46.602 41.8936L45.7482 42.7474C45.6911 42.8046 45.6246 42.813 45.5899 42.813C45.5552 42.813 45.4885 42.8045 45.4315 42.7474L40.6315 37.9475C40.5743 37.8904 40.5659 37.8237 40.5659 37.789C40.5659 37.7544 40.5744 37.6877 40.6315 37.6307L41.4853 36.7769C41.5424 36.7197 41.609 36.7113 41.6437 36.7113C41.6783 36.7113 41.745 36.7198 41.802 36.7769L46.602 41.5769C46.6592 41.634 46.6676 41.7006 46.6676 41.7352C46.6676 41.7699 46.6592 41.8365 46.602 41.8936Z" fill="black"/>
<path d="M42.2466 29.8528H41.8161C41.4481 29.8528 41.1499 30.151 41.1499 30.519C41.1499 30.8869 41.4481 31.1851 41.8161 31.1851H42.2466C43.1461 31.1851 43.8778 30.4534 43.8778 29.5539V8.32317C43.8778 7.47549 43.1882 6.78577 42.3404 6.78577H4.4685C3.62081 6.78577 2.93109 7.47539 2.93109 8.32317V29.5539C2.93109 30.4534 3.66281 31.1851 4.56234 31.1851H19.7366C20.1046 31.1851 20.4028 30.8869 20.4028 30.519C20.4028 30.151 20.1046 29.8528 19.7366 29.8528H4.56234C4.4831 29.8527 4.40712 29.8212 4.35109 29.7651C4.29505 29.7091 4.26354 29.6331 4.26347 29.5539V10.7833H42.5455V29.5539C42.5454 29.6331 42.5139 29.7091 42.4578 29.7651C42.4018 29.8211 42.3258 29.8527 42.2466 29.8528ZM4.26347 9.45099V8.32317C4.26354 8.26882 4.28517 8.21671 4.3236 8.17828C4.36204 8.13984 4.41414 8.11822 4.4685 8.11814H42.3404C42.3948 8.11822 42.4469 8.13984 42.4853 8.17828C42.5237 8.21671 42.5454 8.26882 42.5454 8.32317V9.45099H4.26347Z" fill="black"/>
<path d="M30.8614 34.3538C26.8102 34.3538 23.5144 31.0579 23.5144 27.0068C23.5144 22.9557 26.8103 19.6599 30.8614 19.6599C34.9125 19.6599 38.2084 22.9558 38.2084 27.0068C38.2084 31.0579 34.9125 34.3538 30.8614 34.3538ZM30.8614 20.9922C27.5449 20.9922 24.8467 23.6903 24.8467 27.0068C24.8467 30.3233 27.5449 33.0215 30.8614 33.0215C34.1779 33.0215 36.8761 30.3233 36.8761 27.0068C36.8761 23.6903 34.1779 20.9922 30.8614 20.9922Z" fill="black"/>
<path d="M30.5484 30.9689C29.1683 30.9466 28.2335 30.2009 28.2335 29.6556C28.2335 29.3885 28.4672 29.0212 28.7455 29.0212C29.1128 29.0212 29.4133 29.8003 30.5485 29.8894V27.2739C29.5469 26.9178 28.4339 26.5171 28.4339 25.0925C28.4339 23.6902 29.4912 23.1337 30.5485 23.0224V22.6997C30.5485 22.5661 30.6821 22.4437 30.8713 22.4437C31.0382 22.4437 31.2051 22.5662 31.2051 22.6997V23.0001C31.962 23.0224 33.0303 23.2561 33.0303 23.8015C33.0303 24.013 32.8745 24.4359 32.5406 24.4359C32.2735 24.4359 31.9842 24.0798 31.205 24.0242V26.2834C32.1733 26.6396 33.2306 27.1293 33.2306 28.6429C33.2306 30.0119 32.407 30.7687 31.205 30.9356V31.314C31.205 31.4476 31.038 31.5699 30.8712 31.5699C30.682 31.5699 30.5484 31.4475 30.5484 31.314V30.9689ZM30.6151 26.0719V24.0463C29.9919 24.1242 29.5467 24.4024 29.5467 24.9812C29.5468 25.6156 30.0253 25.8493 30.6151 26.0719ZM31.1383 27.5187V29.867C31.7393 29.7558 32.1177 29.3996 32.1177 28.7652C32.1177 28.064 31.6836 27.7524 31.1383 27.5187Z" fill="#FF901D"/>
</svg>
