<svg width="48" height="48" viewBox="0 0 48 48" fill="none" xmlns="http://www.w3.org/2000/svg">
<path d="M24.0481 44.5712L7.82239 21.9032L13.9064 11.7632H34.1881L40.2721 21.9032L24.0481 44.5712Z" fill="#FFDE17"/>
<path d="M40.2721 21.9033H7.82239L24.0481 44.5713L40.2721 21.9033Z" fill="#99C754"/>
<path d="M40.2721 21.9032H7.82239L13.9064 11.7632L17.9641 21.9032L24.0481 11.7632L30.1321 21.9032L34.1881 11.7632L40.2721 21.9032Z" fill="#FF9225"/>
<path d="M24.0481 44.3347L30.1321 21.9033H17.9641L24.0481 44.3347Z" fill="#C4F27E"/>
<path d="M34.9235 11.3228C34.8473 11.1957 34.7396 11.0905 34.6107 11.0175C34.4818 10.9445 34.3362 10.9061 34.188 10.9062H13.9063C13.7585 10.9064 13.6132 10.9449 13.4847 11.0179C13.3561 11.0909 13.2486 11.1959 13.1726 11.3228L7.0869 21.4645C7.00133 21.6075 6.95933 21.7724 6.96603 21.9389C6.97272 22.1055 7.02784 22.2665 7.12462 22.4022L23.3503 45.0702C23.4296 45.1813 23.5343 45.2719 23.6557 45.3343C23.777 45.3968 23.9115 45.4294 24.048 45.4294C24.1845 45.4294 24.3191 45.3968 24.4404 45.3343C24.5618 45.2719 24.6665 45.1813 24.7458 45.0702L40.9715 22.4022C41.0683 22.2665 41.1234 22.1055 41.1301 21.9389C41.1368 21.7724 41.0948 21.6075 41.0092 21.4645L34.9235 11.3228ZM19.476 21.0462L24.048 13.4296L28.6183 21.0462H19.476ZM29.0126 22.7605L24.0412 41.0622L19.0698 22.7605H29.0126ZM25.5618 12.6205H32.9143L29.9692 19.9816L25.5618 12.6205ZM18.1166 19.9816L15.1732 12.6205H22.5343L18.1166 19.9816ZM16.6972 21.0462H9.33605L13.752 13.6868L16.6972 21.0462ZM17.3075 22.7605L22.0783 40.3456L9.49033 22.7605H17.3075ZM30.7869 22.7605H38.6058L26.0178 40.3456L30.7869 22.7605ZM31.3989 21.0462L34.3423 13.6868L38.76 21.0462H31.3989ZM14.2355 8.75304L15.5623 3.78504L17.2183 4.22732L15.8915 9.19532L14.2355 8.75304ZM8.15148 3.57761L9.63605 2.72046L12.9172 8.40332L11.4326 9.26046L8.15148 3.57761ZM5.66919 10.8925L6.11148 9.23646L11.0795 10.5633L10.6372 12.2193L5.66919 10.8925ZM30.7835 4.21189L32.4395 3.76618L33.7715 8.73589L32.1155 9.17989L30.7835 4.21189ZM35.0829 8.40161L38.364 2.71875L39.8486 3.57589L36.5675 9.25704L35.0829 8.40161ZM36.9103 10.5856L41.8783 9.25875L42.3206 10.9165L37.3526 12.2433L36.9103 10.5856Z" fill="#1E1F1F"/>
</svg>
