<svg width="48" height="48" viewBox="0 0 48 48" fill="none" xmlns="http://www.w3.org/2000/svg">
<path d="M15.75 35.25L18 37.5H30L32.25 35.25H45V9.75C45 8.95435 44.6839 8.19129 44.1213 7.62868C43.5587 7.06607 42.7957 6.75 42 6.75H6C5.20435 6.75 4.44129 7.06607 3.87868 7.62868C3.31607 8.19129 3 8.95435 3 9.75V35.25H15.75Z" fill="#686868"/>
<path d="M6 9.75H42V32.25H6V9.75Z" fill="#BCE4F8"/>
<path d="M6 9.75V29.25H35.25C36.2446 29.25 37.1984 28.8549 37.9016 28.1516C38.6049 27.4484 39 26.4946 39 25.5V9.75H6Z" fill="#E4F5FD"/>
<path d="M31.5 14.25H14.25C13.4216 14.25 12.75 14.9216 12.75 15.75V24C12.75 24.8284 13.4216 25.5 14.25 25.5H31.5C32.3284 25.5 33 24.8284 33 24V15.75C33 14.9216 32.3284 14.25 31.5 14.25Z" fill="white"/>
<path d="M22.5 21.75H25.5V26.25H22.5V21.75Z" fill="#AA2B24"/>
<path d="M22.5 21.75V25.5H23.25C23.6478 25.5 24.0294 25.342 24.3107 25.0607C24.592 24.7794 24.75 24.3978 24.75 24V21.75H22.5Z" fill="#D24034"/>
<path d="M16.5 18.75H19.5V23.25H16.5V18.75Z" fill="#559B38"/>
<path d="M16.5 18.75V22.5H17.25C17.6478 22.5 18.0294 22.342 18.3107 22.0607C18.592 21.7794 18.75 21.3978 18.75 21V18.75H16.5Z" fill="#6BC148"/>
<path d="M46.5 35.25V38.25C46.5 39.0456 46.1839 39.8087 45.6213 40.3713C45.0587 40.9339 44.2957 41.25 43.5 41.25H4.5C3.70435 41.25 2.94129 40.9339 2.37868 40.3713C1.81607 39.8087 1.5 39.0456 1.5 38.25V35.25H15.75L18 37.5H30L32.25 35.25H46.5Z" fill="#939393"/>
<path d="M42.75 37.5H44.25V39H42.75V37.5ZM39.75 37.5H41.25V39H39.75V37.5Z" fill="white"/>
<path d="M28.5 15.75H31.5V20.25H28.5V15.75Z" fill="#559B38"/>
<path d="M28.5 15.75V19.5H29.25C29.6478 19.5 30.0294 19.342 30.3107 19.0607C30.592 18.7794 30.75 18.3978 30.75 18V15.75H28.5Z" fill="#6BC148"/>
<path d="M46.5 34.5H45.75V9.75C45.7488 8.7558 45.3533 7.80267 44.6503 7.09966C43.9473 6.39666 42.9942 6.00119 42 6H6C5.0058 6.00119 4.05267 6.39666 3.34966 7.09966C2.64666 7.80267 2.25119 8.7558 2.25 9.75V34.5H1.5C1.30109 34.5 1.11032 34.579 0.96967 34.7197C0.829018 34.8603 0.75 35.0511 0.75 35.25V38.25C0.751191 39.2442 1.14666 40.1973 1.84966 40.9003C2.55267 41.6033 3.5058 41.9988 4.5 42H43.5C44.4942 41.9988 45.4473 41.6033 46.1503 40.9003C46.8533 40.1973 47.2488 39.2442 47.25 38.25V35.25C47.25 35.0511 47.171 34.8603 47.0303 34.7197C46.8897 34.579 46.6989 34.5 46.5 34.5ZM3.75 9.75C3.75 9.15326 3.98705 8.58097 4.40901 8.15901C4.83097 7.73705 5.40326 7.5 6 7.5H42C42.5967 7.5 43.169 7.73705 43.591 8.15901C44.0129 8.58097 44.25 9.15326 44.25 9.75V34.5H32.25C32.0511 34.5 31.8604 34.5791 31.7197 34.7197L29.6895 36.75H18.3105L16.2803 34.7197C16.1396 34.5791 15.9489 34.5 15.75 34.5H3.75V9.75ZM45.75 38.25C45.75 38.8467 45.5129 39.419 45.091 39.841C44.669 40.2629 44.0967 40.5 43.5 40.5H4.5C3.90326 40.5 3.33097 40.2629 2.90901 39.841C2.48705 39.419 2.25 38.8467 2.25 38.25V36H15.4395L17.4697 38.0303C17.6104 38.1709 17.8011 38.25 18 38.25H30C30.1989 38.25 30.3896 38.1709 30.5303 38.0303L32.5605 36H45.75V38.25Z" fill="black"/>
<path d="M42.75 37.5H44.25V39H42.75V37.5ZM39.75 37.5H41.25V39H39.75V37.5ZM42.75 32.25V9.75C42.75 9.55109 42.671 9.36032 42.5303 9.21967C42.3897 9.07902 42.1989 9 42 9H6C5.80109 9 5.61032 9.07902 5.46967 9.21967C5.32902 9.36032 5.25 9.55109 5.25 9.75V32.25C5.25 32.4489 5.32902 32.6397 5.46967 32.7803C5.61032 32.921 5.80109 33 6 33H42C42.1989 33 42.3897 32.921 42.5303 32.7803C42.671 32.6397 42.75 32.4489 42.75 32.25ZM41.25 31.5H6.75V10.5H41.25V31.5Z" fill="black"/>
<path d="M38.25 15.75H39.75V12.75C39.75 12.5511 39.671 12.3603 39.5303 12.2197C39.3897 12.079 39.1989 12 39 12H36V13.5H38.25V15.75ZM9.75 13.5H12V12H9C8.80109 12 8.61032 12.079 8.46967 12.2197C8.32902 12.3603 8.25 12.5511 8.25 12.75V15.75H9.75V13.5ZM39.75 29.25V26.25H38.25V28.5H36V30H39C39.1989 30 39.3897 29.921 39.5303 29.7803C39.671 29.6397 39.75 29.4489 39.75 29.25ZM9 30H12V28.5H9.75V26.25H8.25V29.25C8.25 29.4489 8.32902 29.6397 8.46967 29.7803C8.61032 29.921 8.80109 30 9 30ZM33 12H34.5V13.5H33V12ZM16.5 24H17.25V27H18.75V24H19.5C19.6989 24 19.8897 23.921 20.0303 23.7803C20.171 23.6397 20.25 23.4489 20.25 23.25V18.75C20.25 18.5511 20.171 18.3603 20.0303 18.2197C19.8897 18.079 19.6989 18 19.5 18H18.75V15H17.25V18H16.5C16.3011 18 16.1103 18.079 15.9697 18.2197C15.829 18.3603 15.75 18.5511 15.75 18.75V23.25C15.75 23.4489 15.829 23.6397 15.9697 23.7803C16.1103 23.921 16.3011 24 16.5 24ZM17.25 19.5H18.75V22.5H17.25V19.5ZM22.5 27H23.25V30H24.75V27H25.5C25.6989 27 25.8897 26.921 26.0303 26.7803C26.171 26.6397 26.25 26.4489 26.25 26.25V21.75C26.25 21.5511 26.171 21.3603 26.0303 21.2197C25.8897 21.079 25.6989 21 25.5 21H24.75V18H23.25V21H22.5C22.3011 21 22.1103 21.079 21.9697 21.2197C21.829 21.3603 21.75 21.5511 21.75 21.75V26.25C21.75 26.4489 21.829 26.6397 21.9697 26.7803C22.1103 26.921 22.3011 27 22.5 27ZM23.25 22.5H24.75V25.5H23.25V22.5ZM28.5 21H29.25V24H30.75V21H31.5C31.6989 21 31.8897 20.921 32.0303 20.7803C32.171 20.6397 32.25 20.4489 32.25 20.25V15.75C32.25 15.5511 32.171 15.3603 32.0303 15.2197C31.8897 15.079 31.6989 15 31.5 15H30.75V12H29.25V15H28.5C28.3011 15 28.1103 15.079 27.9697 15.2197C27.829 15.3603 27.75 15.5511 27.75 15.75V20.25C27.75 20.4489 27.829 20.6397 27.9697 20.7803C28.1103 20.921 28.3011 21 28.5 21ZM29.25 16.5H30.75V19.5H29.25V16.5Z" fill="black"/>
</svg>
