<svg width="48" height="48" viewBox="0 0 48 48" fill="none" xmlns="http://www.w3.org/2000/svg">
<path d="M34.5 13.524V10.5L37.5 2.25H18L21 10.5V13.524C17.9533 13.7148 15.0938 15.0596 13.0038 17.2845C10.9137 19.5095 9.75014 22.4473 9.75 25.5V39.75C9.75 41.3413 10.3821 42.8674 11.5074 43.9926C12.6326 45.1179 14.1587 45.75 15.75 45.75H39.75C41.3413 45.75 42.8674 45.1179 43.9926 43.9926C45.1179 42.8674 45.75 41.3413 45.75 39.75V25.5C45.7499 22.4473 44.5863 19.5095 42.4962 17.2845C40.4062 15.0596 37.5467 13.7148 34.5 13.524Z" fill="#AD6643"/>
<path d="M30.75 30.75H39.75V33.75H30.75V30.75Z" fill="#FFB632"/>
<path d="M33.75 27.75H42.75V30.75H33.75V27.75Z" fill="#FFD33A"/>
<path d="M2.25 42.75H30.75V45.75H2.25V42.75Z" fill="#3DC285"/>
<path d="M2.25 39.75H30.75V42.75H2.25V39.75Z" fill="#35A872"/>
<path d="M2.25 36.75H30.75V39.75H2.25V36.75Z" fill="#3DC285"/>
<path d="M14.25 36.75H18.75V45.75H14.25V36.75Z" fill="#E1E3E6"/>
<path d="M34.5 27.75C37.3995 27.75 39.75 25.3995 39.75 22.5C39.75 19.6005 37.3995 17.25 34.5 17.25C31.6005 17.25 29.25 19.6005 29.25 22.5C29.25 25.3995 31.6005 27.75 34.5 27.75Z" fill="#FFD33A"/>
<path d="M2.25 23.25H30.75V36.75H2.25V23.25Z" fill="#35A872"/>
<path d="M2.25 27C3.24456 27 4.19839 26.6049 4.90165 25.9017C5.60491 25.1984 6 24.2446 6 23.25H2.25V27ZM30.75 27C29.7554 27 28.8016 26.6049 28.0984 25.9017C27.3951 25.1984 27 24.2446 27 23.25H30.75V27ZM2.25 33C3.24456 33 4.19839 33.3951 4.90165 34.0983C5.60491 34.8016 6 35.7554 6 36.75H2.25V33ZM30.75 33C29.7554 33 28.8016 33.3951 28.0984 34.0983C27.3951 34.8016 27 35.7554 27 36.75H30.75V33Z" fill="#3DC285"/>
<path d="M16.5 36.75C20.2279 36.75 23.25 33.7279 23.25 30C23.25 26.2721 20.2279 23.25 16.5 23.25C12.7721 23.25 9.75 26.2721 9.75 30C9.75 33.7279 12.7721 36.75 16.5 36.75Z" fill="#3DC285"/>
<path d="M30.75 42.75H39.75V45.75H30.75V42.75Z" fill="#FFB632"/>
<path d="M30.75 39.75H39.75V42.75H30.75V39.75Z" fill="#FFD33A"/>
<path d="M30.75 36.75H39.75V39.75H30.75V36.75Z" fill="#FFB632"/>
<path d="M30.75 33.75H39.75V36.75H30.75V33.75Z" fill="#FFD33A"/>
<path d="M40.5 45.75C43.3995 45.75 45.75 43.3995 45.75 40.5C45.75 37.6005 43.3995 35.25 40.5 35.25C37.6005 35.25 35.25 37.6005 35.25 40.5C35.25 43.3995 37.6005 45.75 40.5 45.75Z" fill="#FFD33A"/>
<path d="M20.25 10.5H35.25V13.5H20.25V10.5Z" fill="#FFD33A"/>
<path d="M2.25 46.5H40.5C42.0743 46.498 43.5849 45.878 44.7066 44.7734C45.8284 43.6687 46.4715 42.1678 46.4977 40.5938H46.5V25.5C46.5 19.2375 41.9611 14.0146 36 12.9488V10.5C36 10.3538 35.9572 10.2107 35.8769 10.0885C35.7967 9.96623 35.6824 9.87012 35.5482 9.81197L38.2049 2.50631C38.2461 2.39301 38.2594 2.27145 38.2436 2.15193C38.2279 2.03241 38.1835 1.91845 38.1143 1.8197C38.0452 1.72096 37.9532 1.64035 37.8463 1.5847C37.7393 1.52904 37.6206 1.49999 37.5 1.5H18C17.8794 1.49999 17.7607 1.52904 17.6537 1.5847C17.5468 1.64035 17.4548 1.72096 17.3857 1.8197C17.3165 1.91845 17.2721 2.03241 17.2564 2.15193C17.2406 2.27145 17.2539 2.39301 17.2951 2.50631L19.9518 9.81197C19.8176 9.87012 19.7033 9.96623 19.6231 10.0885C19.5428 10.2107 19.5 10.3538 19.5 10.5V12.9492C17.0652 13.3863 14.81 14.5218 13.0089 16.2175C11.2078 17.9132 9.93848 20.0959 9.3555 22.5H2.25C2.05109 22.5 1.86032 22.579 1.71967 22.7197C1.57902 22.8603 1.5 23.0511 1.5 23.25V45.75C1.5 45.9489 1.57902 46.1397 1.71967 46.2803C1.86032 46.421 2.05109 46.5 2.25 46.5ZM3 33.845C3.51846 33.98 3.99151 34.2508 4.37033 34.6297C4.74916 35.0085 5.02004 35.4815 5.15503 36H3V33.845ZM6.68634 24H12.0052C11.0723 24.6977 10.315 25.6032 9.7933 26.6447C9.27164 27.6863 9.00002 28.8351 9.00002 30C9.00002 31.1649 9.27164 32.3137 9.7933 33.3553C10.315 34.3968 11.0723 35.3023 12.0052 36H6.68634C6.52909 35.0795 6.09001 34.2306 5.42972 33.5703C4.76942 32.91 3.92046 32.4709 3 32.3137V27.6863C3.92046 27.5291 4.76942 27.09 5.42972 26.4297C6.09001 25.7694 6.52909 24.9205 6.68634 24ZM34.5 27C33.3926 27.0026 32.3236 26.5941 31.5 25.8537V23.25C31.5 23.0511 31.421 22.8603 31.2803 22.7197C31.1397 22.579 30.9489 22.5 30.75 22.5H30C30 21.61 30.2639 20.74 30.7584 19.9999C31.2529 19.2599 31.9557 18.6831 32.7779 18.3425C33.6002 18.0019 34.505 17.9128 35.3779 18.0865C36.2508 18.2601 37.0526 18.6887 37.682 19.318C38.3113 19.9474 38.7399 20.7492 38.9135 21.6221C39.0872 22.495 38.9981 23.3998 38.6575 24.2221C38.3169 25.0443 37.7401 25.7471 37.0001 26.2416C36.26 26.7361 35.39 27 34.5 27ZM36.5378 36H31.5V34.5H39V34.6898C38.0876 34.9268 37.244 35.3756 36.5378 36ZM3 40.5H13.5V42H3V40.5ZM15 37.5H18V45H15V37.5ZM31.5 30V27.6975C31.9696 27.9695 32.4743 28.1757 33 28.3105V30H31.5ZM30 36H27.845C27.98 35.4815 28.2508 35.0085 28.6297 34.6297C29.0085 34.2508 29.4815 33.98 30 33.845V36ZM30 37.5V39H19.5V37.5H30ZM19.5 40.5H30V42H19.5V40.5ZM31.5 40.5H34.5C34.4997 41.006 34.5635 41.51 34.6898 42H31.5V40.5ZM34.6898 39H31.5V37.5H35.3072C35.034 37.9696 34.8264 38.4742 34.6898 39ZM39 33H31.5V31.5H39V33ZM39.75 30H34.5V28.5H42V30H39.75ZM30 24V26.155C29.4815 26.02 29.0085 25.7492 28.6297 25.3703C28.2508 24.9915 27.98 24.5185 27.845 24H30ZM26.3137 24C26.4709 24.9205 26.91 25.7694 27.5703 26.4297C28.2306 27.09 29.0795 27.5291 30 27.6863V32.3137C29.0795 32.4709 28.2306 32.91 27.5703 33.5703C26.91 34.2306 26.4709 35.0795 26.3137 36H20.9948C21.9277 35.3023 22.685 34.3968 23.2067 33.3553C23.7284 32.3137 24 31.1649 24 30C24 28.8351 23.7284 27.6863 23.2067 26.6447C22.685 25.6032 21.9277 24.6977 20.9948 24H26.3137ZM22.5 30C22.5 31.1867 22.1481 32.3467 21.4888 33.3334C20.8295 34.3201 19.8925 35.0892 18.7961 35.5433C17.6997 35.9974 16.4933 36.1162 15.3295 35.8847C14.1656 35.6532 13.0965 35.0818 12.2574 34.2426C11.4182 33.4035 10.8468 32.3344 10.6153 31.1705C10.3838 30.0067 10.5026 28.8003 10.9567 27.7039C11.4108 26.6075 12.1799 25.6705 13.1666 25.0112C14.1533 24.3519 15.3133 24 16.5 24C18.0907 24.0018 19.6158 24.6345 20.7407 25.7593C21.8655 26.8842 22.4982 28.4093 22.5 30ZM13.5 37.5V39H3V37.5H13.5ZM3 43.5H13.5V45H3V43.5ZM19.5 45V43.5H30V45H19.5ZM31.5 45V43.5H35.3072C35.6339 44.063 36.0494 44.5696 36.5378 45H31.5ZM40.5 45C39.61 45 38.74 44.7361 37.9999 44.2416C37.2599 43.7471 36.6831 43.0443 36.3425 42.2221C36.0019 41.3998 35.9128 40.495 36.0865 39.6221C36.2601 38.7492 36.6887 37.9474 37.318 37.318C37.9474 36.6887 38.7492 36.2601 39.6221 36.0865C40.495 35.9128 41.3998 36.0019 42.2221 36.3425C43.0443 36.6831 43.7471 37.2599 44.2416 37.9999C44.7361 38.74 45 39.61 45 40.5C44.9986 41.6931 44.5241 42.8369 43.6805 43.6805C42.8369 44.5241 41.6931 44.9986 40.5 45ZM36.4293 3L33.975 9.75H21.525L19.0707 3H36.4293ZM21 11.25H34.5V12.7727C34.2503 12.7578 34.0002 12.7502 33.75 12.75H21.75C21.4985 12.75 21.2484 12.7581 21 12.7726V11.25ZM21.75 14.25H33.75C36.7327 14.2534 39.5922 15.4397 41.7012 17.5488C43.8103 19.6578 44.9966 22.5174 45 25.5V36.5378C44.4381 35.8974 43.746 35.3844 42.97 35.033C42.194 34.6816 41.3519 34.4999 40.5 34.5V31.5H42.75C42.9489 31.5 43.1397 31.421 43.2803 31.2803C43.421 31.1397 43.5 30.9489 43.5 30.75V27.75C43.5 27.5511 43.421 27.3603 43.2803 27.2197C43.1397 27.079 42.9489 27 42.75 27H38.4622C39.2147 26.3374 39.789 25.4968 40.1328 24.555C40.4766 23.6132 40.5788 22.6003 40.4301 21.6088C40.2814 20.6173 39.8866 19.6789 39.2817 18.8793C38.6768 18.0798 37.8811 17.4446 36.9674 17.0319C36.0537 16.6192 35.0512 16.4421 34.0514 16.5168C33.0516 16.5915 32.0865 16.9156 31.2442 17.4595C30.402 18.0034 29.7095 18.7497 29.2301 19.6302C28.7508 20.5108 28.4997 21.4974 28.5 22.5H10.9045C11.5619 20.1284 12.9784 18.0375 14.9371 16.5475C16.8959 15.0575 19.2889 14.2505 21.75 14.25ZM5.15503 24C5.02004 24.5185 4.74916 24.9915 4.37033 25.3703C3.99151 25.7492 3.51846 26.02 3 26.155V24H5.15503Z" fill="black"/>
<path d="M36 21C36 20.8011 35.921 20.6103 35.7803 20.4697C35.6397 20.329 35.4489 20.25 35.25 20.25C35.25 20.0511 35.171 19.8603 35.0303 19.7197C34.8897 19.579 34.6989 19.5 34.5 19.5C34.3011 19.5 34.1103 19.579 33.9697 19.7197C33.829 19.8603 33.75 20.0511 33.75 20.25V20.453C33.464 20.6179 33.2405 20.8725 33.1141 21.1775C32.9877 21.4825 32.9655 21.8206 33.051 22.1395C33.1365 22.4583 33.3249 22.74 33.5869 22.9408C33.8489 23.1416 34.1699 23.2503 34.5 23.25H33.75C33.5511 23.25 33.3603 23.329 33.2197 23.4697C33.079 23.6103 33 23.8011 33 24C33 24.1989 33.079 24.3897 33.2197 24.5303C33.3603 24.671 33.5511 24.75 33.75 24.75C33.75 24.9489 33.829 25.1397 33.9697 25.2803C34.1103 25.421 34.3011 25.5 34.5 25.5C34.6989 25.5 34.8897 25.421 35.0303 25.2803C35.171 25.1397 35.25 24.9489 35.25 24.75V24.547C35.536 24.3821 35.7595 24.1275 35.8859 23.8225C36.0123 23.5175 36.0345 23.1794 35.949 22.8605C35.8635 22.5417 35.6751 22.26 35.4131 22.0592C35.1511 21.8584 34.8301 21.7497 34.5 21.75H35.25C35.4489 21.75 35.6397 21.671 35.7803 21.5303C35.921 21.3897 36 21.1989 36 21ZM16.5 32.25H15C14.8011 32.25 14.6103 32.329 14.4697 32.4697C14.329 32.6103 14.25 32.8011 14.25 33C14.25 33.1989 14.329 33.3897 14.4697 33.5303C14.6103 33.671 14.8011 33.75 15 33.75H15.75C15.75 33.9489 15.829 34.1397 15.9697 34.2803C16.1103 34.421 16.3011 34.5 16.5 34.5C16.6989 34.5 16.8897 34.421 17.0303 34.2803C17.171 34.1397 17.25 33.9489 17.25 33.75V33.621C17.7502 33.4439 18.1717 33.0958 18.4401 32.638C18.7084 32.1803 18.8064 31.6425 18.7167 31.1195C18.627 30.5965 18.3553 30.1221 17.9497 29.78C17.5441 29.4379 17.0306 29.2502 16.5 29.25C16.3011 29.25 16.1103 29.171 15.9697 29.0303C15.829 28.8897 15.75 28.6989 15.75 28.5C15.75 28.3011 15.829 28.1103 15.9697 27.9697C16.1103 27.829 16.3011 27.75 16.5 27.75H18C18.1989 27.75 18.3897 27.671 18.5303 27.5303C18.671 27.3897 18.75 27.1989 18.75 27C18.75 26.8011 18.671 26.6103 18.5303 26.4697C18.3897 26.329 18.1989 26.25 18 26.25H17.25C17.25 26.0511 17.171 25.8603 17.0303 25.7197C16.8897 25.579 16.6989 25.5 16.5 25.5C16.3011 25.5 16.1103 25.579 15.9697 25.7197C15.829 25.8603 15.75 26.0511 15.75 26.25V26.379C15.2498 26.5561 14.8283 26.9042 14.5599 27.362C14.2916 27.8197 14.1936 28.3575 14.2833 28.8805C14.373 29.4035 14.6447 29.8779 15.0503 30.22C15.4559 30.5621 15.9694 30.7498 16.5 30.75C16.6989 30.75 16.8897 30.829 17.0303 30.9697C17.171 31.1103 17.25 31.3011 17.25 31.5C17.25 31.6989 17.171 31.8897 17.0303 32.0303C16.8897 32.171 16.6989 32.25 16.5 32.25ZM42 39C42 38.8011 41.921 38.6103 41.7803 38.4697C41.6397 38.329 41.4489 38.25 41.25 38.25C41.25 38.0511 41.171 37.8603 41.0303 37.7197C40.8897 37.579 40.6989 37.5 40.5 37.5C40.3011 37.5 40.1103 37.579 39.9697 37.7197C39.829 37.8603 39.75 38.0511 39.75 38.25V38.453C39.464 38.6179 39.2405 38.8726 39.1141 39.1775C38.9877 39.4825 38.9655 39.8206 39.051 40.1395C39.1365 40.4583 39.3249 40.74 39.5869 40.9408C39.8489 41.1416 40.1699 41.2503 40.5 41.25H39.75C39.5511 41.25 39.3603 41.329 39.2197 41.4697C39.079 41.6103 39 41.8011 39 42C39 42.1989 39.079 42.3897 39.2197 42.5303C39.3603 42.671 39.5511 42.75 39.75 42.75C39.75 42.9489 39.829 43.1397 39.9697 43.2803C40.1103 43.421 40.3011 43.5 40.5 43.5C40.6989 43.5 40.8897 43.421 41.0303 43.2803C41.171 43.1397 41.25 42.9489 41.25 42.75V42.547C41.536 42.3821 41.7595 42.1274 41.8859 41.8225C42.0123 41.5175 42.0345 41.1794 41.949 40.8605C41.8635 40.5417 41.6751 40.26 41.4131 40.0592C41.1511 39.8584 40.8301 39.7497 40.5 39.75H41.25C41.4489 39.75 41.6397 39.671 41.7803 39.5303C41.921 39.3897 42 39.1989 42 39Z" fill="black"/>
</svg>
