<svg width="64" height="64" viewBox="0 0 64 64" fill="none" xmlns="http://www.w3.org/2000/svg">
<g clip-path="url(#clip0_1463_13422)">
<mask id="mask0_1463_13422" style="mask-type:luminance" maskUnits="userSpaceOnUse" x="0" y="0" width="64" height="64">
<path d="M64 0H0V64H64V0Z" fill="white"/>
</mask>
<g mask="url(#mask0_1463_13422)">
<path d="M61.2605 26.9242H56.313C56.078 26.9242 55.8755 26.7604 55.823 26.5304C55.2155 23.8742 54.1642 21.3379 52.7142 19.0304C52.5892 18.8304 52.6155 18.5717 52.7817 18.4054L56.2817 14.9054C56.988 14.1992 56.988 13.0529 56.2817 12.3454L51.663 7.72668C50.9555 7.02043 49.8105 7.02043 49.103 7.72668L45.603 11.2267C45.4367 11.3929 45.178 11.4192 44.978 11.2942C42.6705 9.84418 40.1342 8.79293 37.478 8.18543C37.248 8.13293 37.0842 7.93168 37.0842 7.69543V2.75043C37.0842 1.75043 36.2742 0.94043 35.2742 0.94043H28.743C27.743 0.94043 26.933 1.75043 26.933 2.75043V7.69793C26.933 7.93293 26.7692 8.13543 26.5392 8.18793C23.883 8.79543 21.3467 9.84668 19.0392 11.2967C18.8392 11.4217 18.5805 11.3954 18.4142 11.2292L14.9142 7.72918C14.208 7.02293 13.0617 7.02293 12.3542 7.72918L7.73547 12.3479C7.02922 13.0542 7.02922 14.2004 7.73547 14.9079L11.2355 18.4079C11.4017 18.5742 11.4292 18.8329 11.303 19.0329C9.85297 21.3404 8.80172 23.8767 8.19422 26.5329C8.14172 26.7629 7.94047 26.9267 7.70422 26.9267H2.75922C1.75922 26.9267 0.949219 27.7367 0.949219 28.7367V35.2679C0.949219 36.2679 1.75922 37.0779 2.75922 37.0779H7.70672C7.94172 37.0779 8.14422 37.2417 8.19672 37.4717C8.80547 40.1279 9.85547 42.6642 11.3055 44.9717C11.4305 45.1717 11.4042 45.4304 11.238 45.5967L7.73797 49.0967C7.03172 49.8029 7.03172 50.9492 7.73797 51.6567L12.7117 56.6304C13.223 57.1417 14.0505 57.1417 14.5617 56.6304L18.4167 52.7754C18.583 52.6092 18.8417 52.5829 19.0417 52.7079C21.3492 54.1579 23.8855 55.2092 26.5417 55.8167C26.7717 55.8692 26.9355 56.0704 26.9355 56.3067V61.2542C26.9355 62.2542 27.7455 63.0642 28.7455 63.0642H35.2767C36.2767 63.0642 37.0867 62.2542 37.0867 61.2542V56.3067C37.0867 56.0717 37.2505 55.8692 37.4805 55.8167C40.1367 55.2092 42.673 54.1579 44.9805 52.7079C45.1805 52.5829 45.4392 52.6092 45.6055 52.7754L49.4605 56.6304C49.9717 57.1417 50.7992 57.1417 51.3105 56.6304L56.2842 51.6567C56.9905 50.9504 56.9905 49.8042 56.2842 49.0967L52.7842 45.5967C52.618 45.4304 52.5917 45.1717 52.7167 44.9717C54.1667 42.6642 55.218 40.1279 55.8255 37.4717C55.878 37.2417 56.0792 37.0779 56.3155 37.0779H61.263C62.263 37.0779 63.073 36.2679 63.073 35.2679V28.7367C63.073 27.7367 62.263 26.9267 61.263 26.9267" fill="#E4EAF8"/>
<path d="M11.2377 18.4067C11.4039 18.5729 11.4302 18.8317 11.3052 19.0317C9.8552 21.3392 8.80395 23.8754 8.19645 26.5317C8.14395 26.7604 7.9427 26.9254 7.70645 26.9254H11.4564C11.6914 26.9254 11.8939 26.7617 11.9464 26.5317C12.5539 23.8754 13.6052 21.3392 15.0552 19.0317C15.1802 18.8317 15.1539 18.5729 14.9877 18.4067L11.4877 14.9067C10.7814 14.2004 10.7814 13.0542 11.4877 12.3467L15.5114 8.32293L14.9164 7.72793C14.2089 7.02168 13.0639 7.02168 12.3564 7.72793L7.7377 12.3467C7.03145 13.0529 7.03145 14.1992 7.7377 14.9067L11.2377 18.4067Z" fill="#D8DCE5"/>
<path d="M11.4877 51.6539C10.7814 50.9464 10.7814 49.8014 11.4877 49.0939L14.9877 45.5939C15.1539 45.4277 15.1814 45.1689 15.0552 44.9689C13.6052 42.6614 12.5539 40.1252 11.9464 37.4689C11.8939 37.2402 11.6927 37.0752 11.4564 37.0752H7.70645C7.94145 37.0752 8.14395 37.2389 8.19645 37.4689C8.80395 40.1252 9.8552 42.6614 11.3052 44.9689C11.4302 45.1689 11.4039 45.4277 11.2377 45.5939L7.7377 49.0939C7.03145 49.8014 7.03145 50.9464 7.7377 51.6539L12.7114 56.6277C13.2227 57.1389 14.0502 57.1389 14.5614 56.6277L15.5114 55.6777L11.4877 51.6552V51.6539Z" fill="#D8DCE5"/>
<path d="M4.69922 35.2651V28.7338C4.69922 27.7338 5.50922 26.9238 6.50922 26.9238H2.75922C1.75922 26.9238 0.949219 27.7338 0.949219 28.7338V35.2651C0.949219 36.2651 1.75922 37.0751 2.75922 37.0751H6.50922C5.50922 37.0751 4.69922 36.2651 4.69922 35.2651Z" fill="#D8DCE5"/>
<path d="M28.7438 0.940215C27.7438 0.940215 26.9338 1.75021 26.9338 2.75021V7.69771C26.9338 7.93271 26.77 8.13521 26.54 8.18771L29.8213 7.80021C30.3138 7.74271 30.685 7.32522 30.685 6.82897V2.74896C30.685 1.74896 31.495 0.938965 32.495 0.938965H28.745L28.7438 0.940215Z" fill="#D8DCE5"/>
<path d="M52.273 32.0491C52.273 43.4866 43.0017 52.7578 31.5642 52.7578C20.1267 52.7578 10.8555 43.4866 10.8555 32.0491C10.8555 20.6116 20.1267 11.3403 31.5642 11.3403C43.0017 11.3403 52.273 20.6116 52.273 32.0491Z" fill="#576574"/>
<path d="M14.6055 32.0488C14.6055 21.2438 22.8805 12.3738 33.4392 11.4263C32.8217 11.3713 32.1967 11.3413 31.5642 11.3413C20.1267 11.3413 10.8555 20.6126 10.8555 32.0501C10.8555 43.4876 20.1267 52.7588 31.5642 52.7588C32.1967 52.7588 32.8217 52.7288 33.4392 52.6738C22.8805 51.7263 14.6055 42.8563 14.6055 32.0513" fill="#3E4B5A"/>
<path d="M44.3332 19.6778C41.057 16.4028 36.6457 14.5728 32.0107 14.5728V19.3128C35.407 19.3128 38.612 20.659 40.982 23.029L42.7995 21.2115L44.3332 19.6778Z" fill="#15BA8B"/>
<path d="M19.6865 19.6778L23.0378 23.029C25.4203 20.6453 28.634 19.3128 32.009 19.3128V14.5728C27.619 14.5728 23.3503 16.1428 19.6865 19.6765" fill="#11AA7B"/>
<path d="M19.322 32.0002C19.322 28.7427 20.5733 25.494 23.0383 23.029L19.687 19.6777C16.4508 22.914 14.582 27.3102 14.582 32.0002H19.322Z" fill="#8AC2FF"/>
<path d="M19.322 32H14.582C14.582 36.3025 16.167 40.525 19.1883 43.8037C19.4545 44.0937 19.912 44.0988 20.1908 43.82L22.5595 41.4512C22.822 41.1887 22.832 40.765 22.582 40.49C21.5858 39.3913 19.322 36.4763 19.322 32.0013" fill="#54A0FF"/>
<path d="M23.559 19.2039C26.0178 16.8326 28.744 15.3289 31.5965 14.5776C27.3528 14.6739 23.2365 16.2551 19.6865 19.6776L21.5753 21.5664C22.1678 20.7239 22.8315 19.9339 23.559 19.2051" fill="#0E9B6C"/>
<path d="M18.3551 31.7663C18.3551 28.0463 19.5088 24.5075 21.5738 21.565L19.6851 19.6763C16.4488 22.9125 14.5801 27.3088 14.5801 31.9988H18.3563C18.3563 31.9213 18.3538 31.8425 18.3538 31.765" fill="#6FB1FF"/>
<path d="M18.3583 32H14.582C14.582 36.3025 16.167 40.525 19.1883 43.8037C19.4558 44.0937 19.912 44.0988 20.1908 43.82L21.7708 42.24C19.5733 39.2338 18.407 35.65 18.3583 32Z" fill="#338DEF"/>
<path d="M44.3327 19.6777L40.9814 23.029C43.2852 25.3327 44.6977 28.5152 44.6977 32.0002H49.4364C49.4364 27.4302 47.6477 22.9915 44.3327 19.6777Z" fill="#FECA57"/>
<path d="M44.6979 32C44.6979 35.1525 43.5342 38.1688 41.4317 40.4975C41.1854 40.7713 41.2004 41.1912 41.4604 41.4512L43.8292 43.82C44.1079 44.0988 44.5642 44.0937 44.8304 43.8037C47.7242 40.6625 49.4367 36.4963 49.4367 32H44.6967H44.6979Z" fill="#FF6B6B"/>
<path d="M33.9739 33.9626C32.8901 35.0464 31.1339 35.0464 30.0501 33.9626C28.9664 32.8789 28.9664 31.1226 30.0501 30.0389C31.1339 28.9551 32.8901 28.9551 33.9739 30.0389C35.0576 31.1226 35.0576 32.8789 33.9739 33.9626Z" fill="#FF6B6B"/>
<path d="M33.8566 29.9328C32.7666 28.9591 31.0954 28.9928 30.0491 30.0391C28.9654 31.1228 28.9654 32.8791 30.0491 33.9628C31.0954 35.0091 32.7666 35.0416 33.8566 34.0691C32.7154 33.0566 32.6104 31.3103 33.6229 30.1678C33.6966 30.0853 33.7741 30.0066 33.8566 29.9341" fill="#EE5253"/>
<path d="M30.6838 61.25V57.4487C30.6838 56.795 30.195 56.2437 29.545 56.1675L26.54 55.8125C26.77 55.865 26.9338 56.0663 26.9338 56.3025V61.25C26.9338 62.25 27.7438 63.06 28.7438 63.06H32.4938C31.4938 63.06 30.6838 62.25 30.6838 61.25Z" fill="#D8DCE5"/>
<path d="M31.7178 19.3154H31.6953" stroke="black" stroke-width="1.875" stroke-linecap="round" stroke-linejoin="round"/>
<path d="M31.6966 19.3164C31.5303 19.3202 31.4141 19.3264 31.4141 19.3264C31.5078 19.3227 31.6028 19.3189 31.6966 19.3164Z" stroke="black" stroke-width="1.875" stroke-linecap="round" stroke-linejoin="round"/>
<path d="M44.3225 19.6778C41.0462 16.4028 36.635 14.5728 32 14.5728V19.3128C35.3963 19.3128 38.6012 20.659 40.9712 23.029L42.7887 21.2115L44.3225 19.6778Z" stroke="black" stroke-width="1.875" stroke-linecap="round" stroke-linejoin="round"/>
<path d="M19.6768 19.6778L23.028 23.029C25.4105 20.6453 28.6243 19.3128 31.9993 19.3128V14.5728C27.6093 14.5728 23.3405 16.1428 19.6768 19.6765V19.6778Z" stroke="black" stroke-width="1.875" stroke-linecap="round" stroke-linejoin="round"/>
<path d="M19.3132 32.0002C19.3132 28.7427 20.5645 25.494 23.0295 23.029L19.6782 19.6777C16.442 22.914 14.5745 27.3102 14.5745 32.0002H19.3145H19.3132ZM19.3132 32.0002H14.5732C14.5732 36.3027 16.1582 40.5252 19.1782 43.804C19.4445 44.094 19.902 44.099 20.1807 43.8202L22.5495 41.4515C22.812 41.189 22.822 40.7652 22.572 40.4902C21.5757 39.3915 19.312 36.4765 19.312 32.0015L19.3132 32.0002Z" stroke="black" stroke-width="1.875" stroke-linecap="round" stroke-linejoin="round"/>
<path d="M44.3229 19.6777L40.9717 23.029C43.2754 25.3327 44.6879 28.5152 44.6879 32.0002H49.4267C49.4267 27.4302 47.6379 22.9915 44.3229 19.6777Z" stroke="black" stroke-width="1.875" stroke-linecap="round" stroke-linejoin="round"/>
<path d="M44.6879 32C44.6879 35.1525 43.5241 38.1688 41.4229 40.4975C41.1766 40.7713 41.1916 41.1912 41.4516 41.4512L43.8204 43.82C44.0991 44.0987 44.5554 44.0937 44.8216 43.8037C47.7154 40.6625 49.4279 36.4963 49.4279 32H44.6879Z" stroke="black" stroke-width="1.875" stroke-linecap="round" stroke-linejoin="round"/>
<path d="M30.2471 39.4629H33.7583" stroke="black" stroke-width="1.875" stroke-linecap="round" stroke-linejoin="round"/>
<path d="M33.9641 33.9626C32.8803 35.0464 31.1241 35.0464 30.0404 33.9626C28.9566 32.8789 28.9566 31.1226 30.0404 30.0389C31.1241 28.9551 32.8803 28.9551 33.9641 30.0389C35.0478 31.1226 35.0478 32.8789 33.9641 33.9626Z" stroke="black" stroke-width="1.875" stroke-linecap="round" stroke-linejoin="round"/>
<path d="M35 33.0606L40.5264 36.4658" stroke="black" stroke-width="1.875" stroke-linecap="round" stroke-linejoin="round"/>
<path d="M34.1875 63.0601H35.265C36.265 63.0601 37.075 62.2501 37.075 61.2501V56.3026C37.075 56.0676 37.2387 55.8651 37.4688 55.8126C40.125 55.2051 42.6613 54.1539 44.9688 52.7039C45.1688 52.5789 45.4275 52.6051 45.5938 52.7714L49.4487 56.6264C49.96 57.1376 50.7875 57.1376 51.2988 56.6264L56.2725 51.6526C56.9787 50.9464 56.9787 49.8001 56.2725 49.0926L52.7725 45.5926C52.6062 45.4264 52.5788 45.1676 52.705 44.9676C54.155 42.6601 55.2063 40.1239 55.8138 37.4676C55.8663 37.2376 56.0675 37.0739 56.3037 37.0739H61.2513C62.2513 37.0739 63.0612 36.2639 63.0612 35.2639V34.2339" stroke="black" stroke-width="1.875" stroke-linecap="round" stroke-linejoin="round"/>
<path d="M63.0604 29.8617V28.7342C63.0604 27.7342 62.2504 26.9242 61.2504 26.9242H56.3029C56.0679 26.9242 55.8654 26.7604 55.8129 26.5304C55.2042 23.8742 54.1542 21.3379 52.7042 19.0304C52.5792 18.8304 52.6054 18.5717 52.7717 18.4054L56.2717 14.9054C56.9779 14.1992 56.9779 13.0529 56.2717 12.3454L51.6529 7.72668C50.9467 7.02043 49.8004 7.02043 49.0929 7.72668L45.5929 11.2267C45.4267 11.3929 45.1679 11.4192 44.9679 11.2942C42.6604 9.84418 40.1242 8.79293 37.4679 8.18543C37.2379 8.13293 37.0742 7.93168 37.0742 7.69543V2.75043C37.0742 1.75043 36.2642 0.94043 35.2642 0.94043H28.7329C27.7329 0.94043 26.9229 1.75043 26.9229 2.75043V7.69793C26.9229 7.93293 26.7592 8.13543 26.5292 8.18793C23.8729 8.79668 21.3367 9.84668 19.0292 11.2967C18.8292 11.4217 18.5704 11.3954 18.4042 11.2292L14.9042 7.72918C14.1979 7.02293 13.0517 7.02293 12.3442 7.72918L7.72543 12.3479C7.01918 13.0542 7.01918 14.2004 7.72543 14.9079L11.2254 18.4079C11.3917 18.5742 11.4192 18.8329 11.2929 19.0329C9.84293 21.3404 8.79168 23.8767 8.18418 26.5329C8.13168 26.7629 7.93043 26.9267 7.69418 26.9267H2.75043C1.75043 26.9267 0.94043 27.7367 0.94043 28.7367V35.2679C0.94043 36.2679 1.75043 37.0779 2.75043 37.0779H7.69793C7.93293 37.0779 8.13543 37.2417 8.18793 37.4717C8.79543 40.1279 9.84668 42.6642 11.2967 44.9717C11.4217 45.1717 11.3954 45.4304 11.2292 45.5967L7.72918 49.0967C7.02293 49.8029 7.02293 50.9492 7.72918 51.6567L12.7029 56.6304C13.2142 57.1417 14.0417 57.1417 14.5529 56.6304L18.4079 52.7754C18.5742 52.6092 18.8329 52.5829 19.0329 52.7079C21.3404 54.1579 23.8767 55.2092 26.5329 55.8167C26.7629 55.8692 26.9267 56.0704 26.9267 56.3067V61.2542C26.9267 62.2542 27.7367 63.0642 28.7367 63.0642H29.8142" stroke="black" stroke-width="1.875" stroke-linecap="round" stroke-linejoin="round"/>
<path d="M52.7105 32.0491C52.7105 43.4866 43.4392 52.7578 32.0017 52.7578C20.5642 52.7578 11.293 43.4866 11.293 32.0491C11.293 20.6116 20.5642 11.3403 32.0017 11.3403C43.4392 11.3403 52.7105 20.6116 52.7105 32.0491Z" stroke="black" stroke-width="1.875" stroke-linecap="round" stroke-linejoin="round"/>
</g>
</g>
<defs>
<clipPath id="clip0_1463_13422">
<rect width="64" height="64" fill="white"/>
</clipPath>
</defs>
</svg>
