<svg width="64" height="64" viewBox="0 0 64 64" fill="none" xmlns="http://www.w3.org/2000/svg">
<g clip-path="url(#clip0_1422_17127)">
<mask id="mask0_1422_17127" style="mask-type:luminance" maskUnits="userSpaceOnUse" x="0" y="0" width="64" height="64">
<path d="M64 0H0V64H64V0Z" fill="white"/>
</mask>
<g mask="url(#mask0_1422_17127)">
<path d="M61.26 26.9237H56.3125C56.0775 26.9237 55.875 26.7599 55.8225 26.5299C55.215 23.8737 54.1637 21.3374 52.7137 19.0299C52.5887 18.8299 52.615 18.5712 52.7812 18.4049L56.2812 14.9049C56.9875 14.1987 56.9875 13.0524 56.2812 12.3449L51.6625 7.72619C50.955 7.01994 49.81 7.01994 49.1025 7.72619L45.6025 11.2262C45.4362 11.3924 45.1775 11.4187 44.9775 11.2937C42.67 9.84369 40.1337 8.79244 37.4775 8.18494C37.2475 8.13244 37.0837 7.93119 37.0837 7.69494V2.74994C37.0837 1.74994 36.2737 0.939941 35.2737 0.939941H28.7425C27.7425 0.939941 26.9325 1.74994 26.9325 2.74994V7.69744C26.9325 7.93244 26.7687 8.13494 26.5387 8.18744C23.8825 8.79494 21.3462 9.84619 19.0387 11.2962C18.8387 11.4212 18.58 11.3949 18.4137 11.2287L14.9137 7.72869C14.2075 7.02244 13.0612 7.02244 12.3537 7.72869L7.73498 12.3474C7.02873 13.0537 7.02873 14.1999 7.73498 14.9074L11.235 18.4074C11.4012 18.5737 11.4287 18.8324 11.3025 19.0324C9.85248 21.3399 8.80123 23.8762 8.19373 26.5324C8.14123 26.7624 7.93998 26.9262 7.70373 26.9262H2.75873C1.75873 26.9262 0.94873 27.7362 0.94873 28.7362V35.2674C0.94873 36.2674 1.75873 37.0774 2.75873 37.0774H7.70623C7.94123 37.0774 8.14373 37.2412 8.19623 37.4712C8.80498 40.1274 9.85498 42.6637 11.305 44.9712C11.43 45.1712 11.4037 45.4299 11.2375 45.5962L7.73748 49.0962C7.03123 49.8024 7.03123 50.9487 7.73748 51.6562L12.7112 56.6299C13.2225 57.1412 14.05 57.1412 14.5612 56.6299L18.4162 52.7749C18.5825 52.6087 18.8412 52.5824 19.0412 52.7074C21.3487 54.1574 23.885 55.2087 26.5412 55.8162C26.7712 55.8687 26.935 56.0699 26.935 56.3062V61.2537C26.935 62.2537 27.745 63.0637 28.745 63.0637H35.2762C36.2762 63.0637 37.0862 62.2537 37.0862 61.2537V56.3062C37.0862 56.0712 37.25 55.8687 37.48 55.8162C40.1362 55.2087 42.6725 54.1574 44.98 52.7074C45.18 52.5824 45.4387 52.6087 45.605 52.7749L49.46 56.6299C49.9712 57.1412 50.7987 57.1412 51.31 56.6299L56.2837 51.6562C56.99 50.9499 56.99 49.8037 56.2837 49.0962L52.7837 45.5962C52.6175 45.4299 52.5912 45.1712 52.7162 44.9712C54.1662 42.6637 55.2175 40.1274 55.825 37.4712C55.8775 37.2412 56.0787 37.0774 56.315 37.0774H61.2625C62.2625 37.0774 63.0725 36.2674 63.0725 35.2674V28.7362C63.0725 27.7362 62.2625 26.9262 61.2625 26.9262" fill="#E4EAF8"/>
<path d="M11.2375 18.4062C11.4037 18.5724 11.43 18.8312 11.305 19.0312C9.85495 21.3387 8.8037 23.8749 8.1962 26.5312C8.1437 26.7599 7.94245 26.9249 7.7062 26.9249H11.4562C11.6912 26.9249 11.8937 26.7612 11.9462 26.5312C12.5537 23.8749 13.605 21.3387 15.055 19.0312C15.18 18.8312 15.1537 18.5724 14.9875 18.4062L11.4875 14.9062C10.7812 14.1999 10.7812 13.0537 11.4875 12.3462L15.5112 8.32244L14.9162 7.72744C14.2087 7.02119 13.0637 7.02119 12.3562 7.72744L7.73745 12.3462C7.0312 13.0524 7.0312 14.1987 7.73745 14.9062L11.2375 18.4062Z" fill="#D8DCE5"/>
<path d="M11.4875 51.6537C10.7812 50.9462 10.7812 49.8012 11.4875 49.0937L14.9875 45.5937C15.1537 45.4275 15.1812 45.1687 15.055 44.9687C13.605 42.6612 12.5537 40.125 11.9462 37.4687C11.8937 37.24 11.6925 37.075 11.4562 37.075H7.7062C7.9412 37.075 8.1437 37.2387 8.1962 37.4687C8.8037 40.125 9.85495 42.6612 11.305 44.9687C11.43 45.1687 11.4037 45.4275 11.2375 45.5937L7.73745 49.0937C7.0312 49.8012 7.0312 50.9462 7.73745 51.6537L12.7112 56.6274C13.2225 57.1387 14.05 57.1387 14.5612 56.6274L15.5112 55.6775L11.4875 51.6549V51.6537Z" fill="#D8DCE5"/>
<path d="M4.69873 35.2651V28.7338C4.69873 27.7338 5.50873 26.9238 6.50873 26.9238H2.75873C1.75873 26.9238 0.94873 27.7338 0.94873 28.7338V35.2651C0.94873 36.2651 1.75873 37.0751 2.75873 37.0751H6.50873C5.50873 37.0751 4.69873 36.2651 4.69873 35.2651Z" fill="#D8DCE5"/>
<path d="M28.7437 0.939971C27.7437 0.939971 26.9337 1.74997 26.9337 2.74997V7.69747C26.9337 7.93247 26.7699 8.13497 26.5399 8.18747L29.8212 7.79997C30.3137 7.74247 30.6849 7.32497 30.6849 6.82872V2.74872C30.6849 1.74872 31.4949 0.938721 32.4949 0.938721H28.7449L28.7437 0.939971Z" fill="#D8DCE5"/>
<path d="M52.2725 32.0488C52.2725 43.4863 43.0012 52.7576 31.5637 52.7576C20.1262 52.7576 10.855 43.4863 10.855 32.0488C10.855 20.6113 20.1262 11.3401 31.5637 11.3401C43.0012 11.3401 52.2725 20.6113 52.2725 32.0488Z" fill="#576574"/>
<path d="M14.605 32.0488C14.605 21.2438 22.88 12.3738 33.4387 11.4263C32.8212 11.3713 32.1962 11.3413 31.5637 11.3413C20.1262 11.3413 10.855 20.6126 10.855 32.0501C10.855 43.4876 20.1262 52.7588 31.5637 52.7588C32.1962 52.7588 32.8212 52.7288 33.4387 52.6738C22.88 51.7263 14.605 42.8563 14.605 32.0513" fill="#3E4B5A"/>
<path d="M44.3324 19.6775C41.0561 16.4025 36.6449 14.5725 32.0099 14.5725V19.3125C35.4061 19.3125 38.6111 20.6588 40.9811 23.0288L42.7986 21.2113L44.3324 19.6775Z" fill="#15BA8B"/>
<path d="M19.6862 19.6775L23.0374 23.0288C25.4199 20.645 28.6337 19.3125 32.0087 19.3125V14.5725C27.6187 14.5725 23.3499 16.1425 19.6862 19.6763" fill="#11AA7B"/>
<path d="M19.3212 32C19.3212 28.7425 20.5724 25.4937 23.0374 23.0287L19.6862 19.6775C16.4499 22.9137 14.5812 27.31 14.5812 32H19.3212Z" fill="#8AC2FF"/>
<path d="M19.3212 32H14.5812C14.5812 36.3025 16.1662 40.525 19.1874 43.8037C19.4537 44.0937 19.9112 44.0988 20.1899 43.82L22.5587 41.4512C22.8212 41.1887 22.8312 40.765 22.5812 40.49C21.5849 39.3913 19.3212 36.4763 19.3212 32.0013" fill="#54A0FF"/>
<path d="M23.5587 19.2036C26.0174 16.8324 28.7437 15.3286 31.5962 14.5774C27.3524 14.6736 23.2362 16.2549 19.6862 19.6774L21.5749 21.5661C22.1674 20.7236 22.8312 19.9336 23.5587 19.2049" fill="#0E9B6C"/>
<path d="M18.355 31.7663C18.355 28.0463 19.5087 24.5075 21.5737 21.565L19.685 19.6763C16.4487 22.9125 14.58 27.3088 14.58 31.9988H18.3562C18.3562 31.9213 18.3537 31.8425 18.3537 31.765" fill="#6FB1FF"/>
<path d="M18.3574 32H14.5812C14.5812 36.3025 16.1662 40.525 19.1874 43.8037C19.4549 44.0937 19.9112 44.0988 20.1899 43.82L21.7699 42.24C19.5724 39.2338 18.4062 35.65 18.3574 32Z" fill="#338DEF"/>
<path d="M44.3325 19.6775L40.9812 23.0287C43.285 25.3325 44.6974 28.515 44.6974 32H49.4362C49.4362 27.43 47.6475 22.9912 44.3325 19.6775Z" fill="#FECA57"/>
<path d="M44.6974 32C44.6974 35.1525 43.5337 38.1688 41.4312 40.4975C41.1849 40.7713 41.1999 41.1912 41.4599 41.4512L43.8287 43.82C44.1074 44.0988 44.5637 44.0937 44.8299 43.8037C47.7237 40.6625 49.4362 36.4963 49.4362 32H44.6962H44.6974Z" fill="#FF6B6B"/>
<path d="M33.9737 33.9624C32.89 35.0461 31.1337 35.0461 30.05 33.9624C28.9662 32.8786 28.9662 31.1224 30.05 30.0386C31.1337 28.9549 32.89 28.9549 33.9737 30.0386C35.0575 31.1224 35.0575 32.8786 33.9737 33.9624Z" fill="#FF6B6B"/>
<path d="M33.8562 29.9326C32.7662 28.9588 31.0949 28.9926 30.0487 30.0388C28.9649 31.1226 28.9649 32.8788 30.0487 33.9626C31.0949 35.0088 32.7662 35.0413 33.8562 34.0688C32.7149 33.0563 32.6099 31.3101 33.6224 30.1676C33.6962 30.0851 33.7737 30.0063 33.8562 29.9338" fill="#EE5253"/>
<path d="M30.6837 61.25V57.4487C30.6837 56.795 30.1949 56.2437 29.5449 56.1675L26.5399 55.8125C26.7699 55.865 26.9337 56.0663 26.9337 56.3025V61.25C26.9337 62.25 27.7437 63.06 28.7437 63.06H32.4937C31.4937 63.06 30.6837 62.25 30.6837 61.25Z" fill="#D8DCE5"/>
<path d="M31.7174 19.3149H31.6949" stroke="black" stroke-width="1.875" stroke-linecap="round" stroke-linejoin="round"/>
<path d="M31.6962 19.3162C31.5299 19.3199 31.4137 19.3262 31.4137 19.3262C31.5074 19.3224 31.6024 19.3187 31.6962 19.3162Z" stroke="black" stroke-width="1.875" stroke-linecap="round" stroke-linejoin="round"/>
<path d="M44.3225 19.6775C41.0462 16.4025 36.635 14.5725 32 14.5725V19.3125C35.3963 19.3125 38.6012 20.6588 40.9712 23.0288L42.7887 21.2113L44.3225 19.6775Z" stroke="black" stroke-width="1.875" stroke-linecap="round" stroke-linejoin="round"/>
<path d="M19.6761 19.6775L23.0274 23.0288C25.4099 20.645 28.6236 19.3125 31.9986 19.3125V14.5725C27.6086 14.5725 23.3399 16.1425 19.6761 19.6763V19.6775Z" stroke="black" stroke-width="1.875" stroke-linecap="round" stroke-linejoin="round"/>
<path d="M19.3124 32C19.3124 28.7425 20.5636 25.4937 23.0286 23.0287L19.6774 19.6775C16.4411 22.9137 14.5736 27.31 14.5736 32H19.3136H19.3124ZM19.3124 32H14.5724C14.5724 36.3025 16.1574 40.525 19.1774 43.8037C19.4436 44.0937 19.9011 44.0987 20.1799 43.82L22.5486 41.4512C22.8111 41.1887 22.8211 40.765 22.5711 40.49C21.5749 39.3912 19.3111 36.4762 19.3111 32.0012L19.3124 32Z" stroke="black" stroke-width="1.875" stroke-linecap="round" stroke-linejoin="round"/>
<path d="M44.3224 19.6775L40.9712 23.0287C43.2749 25.3325 44.6874 28.515 44.6874 32H49.4262C49.4262 27.43 47.6374 22.9912 44.3224 19.6775Z" stroke="black" stroke-width="1.875" stroke-linecap="round" stroke-linejoin="round"/>
<path d="M44.6874 32C44.6874 35.1525 43.5237 38.1688 41.4224 40.4975C41.1762 40.7713 41.1912 41.1912 41.4512 41.4512L43.8199 43.82C44.0987 44.0987 44.5549 44.0937 44.8212 43.8037C47.7149 40.6625 49.4274 36.4963 49.4274 32H44.6874Z" stroke="black" stroke-width="1.875" stroke-linecap="round" stroke-linejoin="round"/>
<path d="M30.2462 39.4624H33.7575" stroke="black" stroke-width="1.875" stroke-linecap="round" stroke-linejoin="round"/>
<path d="M33.9637 33.9624C32.88 35.0461 31.1237 35.0461 30.04 33.9624C28.9562 32.8786 28.9562 31.1224 30.04 30.0386C31.1237 28.9549 32.88 28.9549 33.9637 30.0386C35.0475 31.1224 35.0475 32.8786 33.9637 33.9624Z" stroke="black" stroke-width="1.875" stroke-linecap="round" stroke-linejoin="round"/>
<path d="M33.9637 30.0375L38.5537 25.4475" stroke="black" stroke-width="1.875" stroke-linecap="round" stroke-linejoin="round"/>
<path d="M34.1875 63.0599H35.265C36.265 63.0599 37.075 62.2499 37.075 61.2499V56.3024C37.075 56.0674 37.2387 55.8649 37.4688 55.8124C40.125 55.2049 42.6613 54.1536 44.9688 52.7036C45.1688 52.5786 45.4275 52.6049 45.5938 52.7711L49.4487 56.6261C49.96 57.1374 50.7875 57.1374 51.2988 56.6261L56.2725 51.6524C56.9787 50.9461 56.9787 49.7999 56.2725 49.0924L52.7725 45.5924C52.6062 45.4261 52.5788 45.1674 52.705 44.9674C54.155 42.6599 55.2063 40.1236 55.8138 37.4674C55.8663 37.2374 56.0675 37.0736 56.3037 37.0736H61.2513C62.2513 37.0736 63.0612 36.2636 63.0612 35.2636V34.2336" stroke="black" stroke-width="1.875" stroke-linecap="round" stroke-linejoin="round"/>
<path d="M63.0599 29.8612V28.7337C63.0599 27.7337 62.2499 26.9237 61.2499 26.9237H56.3024C56.0674 26.9237 55.8649 26.7599 55.8124 26.5299C55.2037 23.8737 54.1537 21.3374 52.7037 19.0299C52.5787 18.8299 52.6049 18.5712 52.7712 18.4049L56.2712 14.9049C56.9774 14.1987 56.9774 13.0524 56.2712 12.3449L51.6524 7.72619C50.9462 7.01994 49.7999 7.01994 49.0924 7.72619L45.5924 11.2262C45.4262 11.3924 45.1674 11.4187 44.9674 11.2937C42.6599 9.84369 40.1237 8.79244 37.4674 8.18494C37.2374 8.13244 37.0737 7.93119 37.0737 7.69494V2.74994C37.0737 1.74994 36.2637 0.939941 35.2637 0.939941H28.7324C27.7324 0.939941 26.9224 1.74994 26.9224 2.74994V7.69744C26.9224 7.93244 26.7587 8.13494 26.5287 8.18744C23.8724 8.79619 21.3362 9.84619 19.0287 11.2962C18.8287 11.4212 18.5699 11.3949 18.4037 11.2287L14.9037 7.72869C14.1974 7.02244 13.0512 7.02244 12.3437 7.72869L7.72494 12.3474C7.01869 13.0537 7.01869 14.1999 7.72494 14.9074L11.2249 18.4074C11.3912 18.5737 11.4187 18.8324 11.2924 19.0324C9.84244 21.3399 8.79119 23.8762 8.18369 26.5324C8.13119 26.7624 7.92994 26.9262 7.69369 26.9262H2.74994C1.74994 26.9262 0.939941 27.7362 0.939941 28.7362V35.2674C0.939941 36.2674 1.74994 37.0774 2.74994 37.0774H7.69744C7.93244 37.0774 8.13494 37.2412 8.18744 37.4712C8.79494 40.1274 9.84619 42.6637 11.2962 44.9712C11.4212 45.1712 11.3949 45.4299 11.2287 45.5962L7.72869 49.0962C7.02244 49.8024 7.02244 50.9487 7.72869 51.6562L12.7024 56.6299C13.2137 57.1412 14.0412 57.1412 14.5524 56.6299L18.4074 52.7749C18.5737 52.6087 18.8324 52.5824 19.0324 52.7074C21.3399 54.1574 23.8762 55.2087 26.5324 55.8162C26.7624 55.8687 26.9262 56.0699 26.9262 56.3062V61.2537C26.9262 62.2537 27.7362 63.0637 28.7362 63.0637H29.8137" stroke="black" stroke-width="1.875" stroke-linecap="round" stroke-linejoin="round"/>
<path d="M52.71 32.0488C52.71 43.4863 43.4387 52.7576 32.0012 52.7576C20.5637 52.7576 11.2925 43.4863 11.2925 32.0488C11.2925 20.6113 20.5637 11.3401 32.0012 11.3401C43.4387 11.3401 52.71 20.6113 52.71 32.0488Z" stroke="black" stroke-width="1.875" stroke-linecap="round" stroke-linejoin="round"/>
</g>
</g>
<defs>
<clipPath id="clip0_1422_17127">
<rect width="64" height="64" fill="white"/>
</clipPath>
</defs>
</svg>
