<svg width="48" height="48" viewBox="0 0 48 48" fill="none" xmlns="http://www.w3.org/2000/svg">
<g clip-path="url(#clip0_1422_15408)">
<path d="M24.5903 46.5738C37.0573 46.5738 47.1638 36.4673 47.1638 24.0003C47.1638 11.5333 37.0573 1.42676 24.5903 1.42676C12.1233 1.42676 2.01685 11.5333 2.01685 24.0003C2.01685 36.4673 12.1233 46.5738 24.5903 46.5738Z" fill="#F7B239"/>
<path d="M12.7302 35.8596C4.60978 27.7393 3.96994 14.9714 10.81 6.11816C10.0427 6.71117 9.31395 7.35253 8.62828 8.03835C-0.187028 16.8537 -0.187028 31.1461 8.62828 39.9614C17.4436 48.7768 31.7361 48.7768 40.5514 39.9614C41.2372 39.2758 41.8786 38.5471 42.4716 37.7797C33.6186 44.62 20.8506 43.98 12.7302 35.8596Z" fill="#E09B2D"/>
<path d="M26.6124 38.629C26.487 38.629 26.3632 38.6007 26.2502 38.5461C25.0451 37.9663 23.7715 37.9663 22.5665 38.5461C22.3665 38.6423 22.1366 38.6551 21.9271 38.5818C21.7177 38.5084 21.546 38.3549 21.4498 38.155C21.3536 37.955 21.3408 37.725 21.4141 37.5156C21.4875 37.3062 21.641 37.1345 21.8409 37.0383C23.5206 36.2301 25.2962 36.2301 26.9756 37.0383C27.0746 37.0859 27.1633 37.1526 27.2365 37.2345C27.3098 37.3164 27.3661 37.4119 27.4025 37.5156C27.4388 37.6193 27.4543 37.7291 27.4482 37.8388C27.4421 37.9485 27.4144 38.0559 27.3667 38.155C27.2985 38.297 27.1914 38.4169 27.058 38.5008C26.9245 38.5846 26.7701 38.6291 26.6124 38.629Z" fill="#E09B2D"/>
<path d="M2.39316 19.1488C0.313406 17.0691 0.313406 13.6973 2.39316 11.6176L6.15872 7.85205L9.92428 11.6176C12.0039 13.6973 12.0039 17.0692 9.92428 19.1488C7.84472 21.2285 4.47281 21.2285 2.39316 19.1488Z" fill="#2BA5F7"/>
<path d="M5.07047 19.1489C2.99082 17.0693 2.99082 13.6974 5.07047 11.6177L7.49747 9.19071L6.15882 7.85205L2.39325 11.6176C0.313597 13.6974 0.313597 17.0692 2.39325 19.1488C3.77653 20.5321 5.73122 20.9941 7.49757 20.5372C6.57879 20.3002 5.74054 19.8207 5.07047 19.1489Z" fill="#2197D8"/>
<path d="M24.5898 0.589844C18.0971 0.589844 11.9191 3.28338 7.49728 8.00744L6.75028 7.26044C6.59339 7.10355 6.3806 7.01542 6.15872 7.01542C5.93684 7.01542 5.72405 7.10355 5.56716 7.26044L1.8016 11.026C-0.534092 13.3617 -0.598405 17.1207 1.60697 19.5357C1.32322 21.0069 1.18016 22.5017 1.17975 24C1.17975 36.9084 11.6814 47.4101 24.5899 47.4101C37.4983 47.4101 48 36.9084 48 24C48 11.0915 37.4982 0.589844 24.5898 0.589844ZM2.98481 12.2092L6.15881 9.03522L9.33281 12.2092C11.0829 13.9593 11.0829 16.8071 9.33281 18.5572C7.58269 20.3073 4.73503 20.3073 2.98481 18.5572C2.13694 17.7093 1.67016 16.5822 1.67016 15.3832C1.67006 14.1843 2.13703 13.0572 2.98481 12.2092ZM24.5898 45.7368C12.6042 45.7368 2.853 35.9857 2.853 24C2.853 22.9046 2.93653 21.81 3.0991 20.7311C4.03098 21.2632 5.08562 21.5428 6.15872 21.5423C7.73672 21.5423 9.31463 20.9417 10.516 19.7403C11.6799 18.5764 12.3209 17.0291 12.3209 15.3831C12.3209 13.7372 11.6799 12.1898 10.516 11.0258L8.68106 9.19103C12.7895 4.77944 18.5428 2.26319 24.5898 2.26319C36.5755 2.26319 46.3266 12.0142 46.3266 24C46.3266 35.9857 36.5755 45.7368 24.5898 45.7368Z" fill="black"/>
<path d="M31.5515 27.9899C31.1093 28.1243 30.8597 28.5915 30.994 29.0336C31.1284 29.4759 31.5961 29.7253 32.0378 29.5911C34.2048 28.9328 36.4992 29.4489 38.1757 30.9715C38.3294 31.1115 38.5299 31.189 38.7379 31.1888C38.8546 31.1889 38.9701 31.1646 39.0768 31.1174C39.1836 31.0702 39.2792 31.0011 39.3576 30.9146C39.6683 30.5726 39.6427 30.0433 39.3007 29.7326C37.1843 27.8105 34.2871 27.1592 31.5515 27.9899ZM18.1857 29.0336C18.2177 28.9285 18.2286 28.8181 18.2178 28.7088C18.2071 28.5994 18.1749 28.4932 18.1232 28.3963C18.0714 28.2994 18.0011 28.2136 17.9162 28.1439C17.8312 28.0742 17.7334 28.0219 17.6283 27.9899C14.8927 27.1589 11.9956 27.8103 9.879 29.7326C9.75399 29.8462 9.66628 29.995 9.62741 30.1594C9.58855 30.3238 9.60033 30.4961 9.66123 30.6536C9.72212 30.8112 9.82927 30.9466 9.96859 31.0421C10.1079 31.1377 10.2729 31.1888 10.4418 31.1888C10.6497 31.189 10.8503 31.1115 11.004 30.9715C12.6803 29.449 14.9749 28.9329 17.142 29.5911C17.3543 29.6555 17.5836 29.633 17.7793 29.5285C17.975 29.4239 18.1212 29.246 18.1857 29.0336ZM24.59 33.0331C24.5898 33.0331 24.5901 33.0331 24.59 33.0331C21.8556 33.0331 19.2923 34.2678 17.3729 36.5095C17.3014 36.5929 17.2471 36.6896 17.213 36.7941C17.1789 36.8986 17.1658 37.0087 17.1742 37.1183C17.1827 37.2278 17.2127 37.3346 17.2625 37.4326C17.3123 37.5306 17.3808 37.6178 17.4643 37.6892C17.5478 37.7607 17.6445 37.815 17.749 37.8491C17.8534 37.8832 17.9636 37.8964 18.0731 37.8879C18.1827 37.8794 18.2895 37.8494 18.3874 37.7996C18.4854 37.7499 18.5726 37.6813 18.6441 37.5978C20.2405 35.7334 22.3522 34.7065 24.5902 34.7065C26.828 34.7065 28.9396 35.7333 30.5362 37.5978C30.6147 37.6897 30.7122 37.7634 30.822 37.8139C30.9318 37.8644 31.0512 37.8905 31.1721 37.8903C31.332 37.8902 31.4885 37.8443 31.6232 37.7579C31.7578 37.6716 31.8649 37.5485 31.9317 37.4032C31.9985 37.2579 32.0223 37.0965 32.0003 36.9381C31.9783 36.7797 31.9113 36.631 31.8073 36.5095C29.8874 34.2677 27.3244 33.0331 24.59 33.0331Z" fill="black"/>
</g>
<defs>
<clipPath id="clip0_1422_15408">
<rect width="48" height="48" fill="white"/>
</clipPath>
</defs>
</svg>
