<svg width="48" height="48" viewBox="0 0 48 48" fill="none" xmlns="http://www.w3.org/2000/svg">
<g clip-path="url(#clip0_1422_16808)">
<path d="M45.1875 32.0625V28.3125H32.2022L24 47.0625H45.1875V43.3125H47.0625V32.0625H45.1875Z" fill="#FFDA8F"/>
<path d="M15.7978 28.3125H10.5938V24.5625H14.3438L8.71875 17.0625L3.09375 24.5625H6.84375V28.3125H0.9375V47.0625H24L15.7978 28.3125Z" fill="#A0E5A5"/>
<path d="M39.2812 13.3125L45 20.8125H41.25V28.3125H37.3125V20.8125H33.5625L39.2812 13.3125Z" fill="#A0E5A5"/>
<path d="M24 0.9375L31.5 10.3125H27.75V17.0625H20.25V10.3125H16.5L24 0.9375Z" fill="#A0E5A5"/>
<mask id="mask0_1422_16808" style="mask-type:luminance" maskUnits="userSpaceOnUse" x="0" y="0" width="48" height="48">
<path d="M48 0H0V48H48V0Z" fill="white"/>
</mask>
<g mask="url(#mask0_1422_16808)">
<path d="M27.5606 22.6875L31.5 17.0625H16.5L20.3419 22.7822C16.44 26.9887 12.75 31.9069 12.75 37.6875V39.5625C12.75 45.5672 18.015 47.0625 24 47.0625C29.985 47.0625 35.25 45.5681 35.25 39.5625V37.6875C35.25 29.4891 27.5681 22.6969 27.5606 22.6875Z" fill="#FF7D95"/>
<path d="M22.0809 38.4798C22.6978 39.2157 23.3831 39.5176 24 39.5232C25.0425 39.5326 25.8909 38.6889 25.8909 37.6482C25.8909 36.6076 25.0509 35.7732 24.0159 35.7732C22.9809 35.7732 22.1409 34.9342 22.1409 33.8982C22.1409 32.8623 22.9716 32.0317 24 32.0232C24.5372 32.0195 25.1278 32.2407 25.6819 32.777" stroke="black" stroke-width="1.875" stroke-linecap="round" stroke-linejoin="round"/>
<path d="M24 30.1875V32.0231" stroke="black" stroke-width="1.875" stroke-linecap="round" stroke-linejoin="round"/>
<path d="M24 39.5232V41.4376" stroke="black" stroke-width="1.875" stroke-linecap="round" stroke-linejoin="round"/>
<path d="M34.3097 43.3125C32.88 45.66 29.7009 47.0625 24 47.0625C18.2991 47.0625 15.12 45.66 13.6903 43.3125" stroke="black" stroke-width="1.875" stroke-linecap="round" stroke-linejoin="round"/>
<path d="M13.6894 43.3125C13.0388 42.2438 12.75 40.98 12.75 39.5625V37.6875C12.75 35.8866 13.2066 33.9478 13.9434 32.0625C14.4487 30.7669 15.0862 29.4956 15.7978 28.3125C16.8778 26.5172 18.1284 24.9225 19.3491 23.7413L20.3419 22.7822L20.4394 22.6875H27.5606L28.6509 23.7413C29.8716 24.9225 31.1222 26.5172 32.2022 28.3125C32.9137 29.4956 33.5512 30.7669 34.0566 32.0625C34.5431 33.3075 34.9078 34.5759 35.0981 35.8125C35.1975 36.4481 35.25 37.0763 35.25 37.6875V39.5625C35.25 40.98 34.9613 42.2438 34.3106 43.3125" stroke="black" stroke-width="1.875" stroke-linecap="round" stroke-linejoin="round"/>
<path d="M20.25 17.0625V10.3125H16.5L24 0.9375L31.5 10.3125H27.75V17.0625" stroke="black" stroke-width="1.875" stroke-linecap="round" stroke-linejoin="round"/>
<path d="M20.25 22.6875L16.5 17.0625H31.5L27.5606 22.6875" stroke="black" stroke-width="1.875" stroke-linecap="round" stroke-linejoin="round"/>
<path d="M34.3097 43.3125H45.1875V47.0625H24" stroke="black" stroke-width="1.875" stroke-linecap="round" stroke-linejoin="round"/>
<path d="M37.3125 43.3125V47.0625" stroke="black" stroke-width="1.875" stroke-linecap="round" stroke-linejoin="round"/>
<path d="M39.1875 39.5625V43.3125" stroke="black" stroke-width="1.875" stroke-linecap="round" stroke-linejoin="round"/>
<path d="M39.1875 32.0625V39.5625" stroke="black" stroke-width="1.875" stroke-linecap="round" stroke-linejoin="round"/>
<path d="M37.3125 28.3125V20.8125H33.5625L39.2812 13.3125L45 20.8125H41.25V28.3125" stroke="black" stroke-width="1.875" stroke-linecap="round" stroke-linejoin="round"/>
<path d="M6.84375 28.3125V24.5625H3.09375L8.71875 17.0625L14.3438 24.5625H10.5938V28.3125" stroke="black" stroke-width="1.875" stroke-linecap="round" stroke-linejoin="round"/>
<path d="M41.25 43.3125V47.0625" stroke="black" stroke-width="1.875" stroke-linecap="round" stroke-linejoin="round"/>
<path d="M43.125 39.5625V43.3125" stroke="black" stroke-width="1.875" stroke-linecap="round" stroke-linejoin="round"/>
<path d="M43.125 35.8125V39.5625" stroke="black" stroke-width="1.875" stroke-linecap="round" stroke-linejoin="round"/>
<path d="M43.125 32.0625V35.8125" stroke="black" stroke-width="1.875" stroke-linecap="round" stroke-linejoin="round"/>
<path d="M41.25 28.3125V32.0625" stroke="black" stroke-width="1.875" stroke-linecap="round" stroke-linejoin="round"/>
<path d="M37.3125 28.3125V32.0625" stroke="black" stroke-width="1.875" stroke-linecap="round" stroke-linejoin="round"/>
<path d="M45.1875 43.3125H47.0625V39.5625H35.25" stroke="black" stroke-width="1.875" stroke-linecap="round" stroke-linejoin="round"/>
<path d="M35.0991 35.8125H47.0626V39.5625" stroke="black" stroke-width="1.875" stroke-linecap="round" stroke-linejoin="round"/>
<path d="M34.0575 32.0625H47.0625V35.8125" stroke="black" stroke-width="1.875" stroke-linecap="round" stroke-linejoin="round"/>
<path d="M32.2021 28.3125H45.1875V32.0625" stroke="black" stroke-width="1.875" stroke-linecap="round" stroke-linejoin="round"/>
<path d="M13.6903 43.3125H0.9375V28.3125H15.7978" stroke="black" stroke-width="1.875" stroke-linecap="round" stroke-linejoin="round"/>
<path d="M12.75 39.5625H6.5625C6.5625 38.5266 5.72344 37.6875 4.6875 37.6875V33.9375C5.72344 33.9375 6.5625 33.0984 6.5625 32.0625H13.9425" stroke="black" stroke-width="1.875" stroke-linecap="round" stroke-linejoin="round"/>
<path d="M9.1875 47.0625C9.1875 47.58 8.7675 48 8.25 48C7.7325 48 7.3125 47.58 7.3125 47.0625C7.3125 46.545 7.7325 46.125 8.25 46.125C8.7675 46.125 9.1875 46.545 9.1875 47.0625Z" fill="black"/>
<path d="M0.9375 43.3125V47.0625H4.03125" stroke="black" stroke-width="1.875" stroke-linecap="round" stroke-linejoin="round"/>
<path d="M12.4688 47.0625H24" stroke="black" stroke-width="1.875" stroke-linecap="round" stroke-linejoin="round"/>
</g>
</g>
<defs>
<clipPath id="clip0_1422_16808">
<rect width="48" height="48" fill="white"/>
</clipPath>
</defs>
</svg>
