<svg width="88" height="88" viewBox="0 0 88 88" fill="none" xmlns="http://www.w3.org/2000/svg">
<path d="M19.25 48.125C14.8739 48.125 10.6771 49.8634 7.58274 52.9577C4.48839 56.0521 2.75 60.2489 2.75 64.625V85.25H66V64.625C66 60.2489 64.2616 56.0521 61.1673 52.9577C58.0729 49.8634 53.8761 48.125 49.5 48.125H19.25Z" fill="#E2E7F6"/>
<path d="M46.75 66H85.25V85.25H46.75V66Z" fill="#559B2D"/>
<path d="M52.25 71.5H79.75V79.75H52.25V71.5Z" fill="#7BDF45"/>
<path d="M77 75.625V71.5H52.25V77H75.625C75.9897 77 76.3394 76.8551 76.5973 76.5973C76.8551 76.3394 77 75.9897 77 75.625Z" fill="#8BEA54"/>
<path d="M41.25 13.75V17.875C41.25 18.6043 41.5397 19.3038 42.0555 19.8195C42.5712 20.3353 43.2707 20.625 44 20.625H46.75V28.875C46.75 32.1571 45.4462 35.3047 43.1254 37.6254C40.8047 39.9462 37.6571 41.25 34.375 41.25C31.0929 41.25 27.9453 39.9462 25.6246 37.6254C23.3038 35.3047 22 32.1571 22 28.875V20.625H24.75C25.4793 20.625 26.1788 20.3353 26.6945 19.8195C27.2103 19.3038 27.5 18.6043 27.5 17.875V13.75H35.75L37.125 15.125L41.25 13.75Z" fill="#FBE1CA"/>
<path d="M20.625 20.625V6.875C20.625 5.78098 21.0596 4.73177 21.8332 3.95818C22.6068 3.1846 23.656 2.75 24.75 2.75H44C45.094 2.75 46.1432 3.1846 46.9168 3.95818C47.6904 4.73177 48.125 5.78098 48.125 6.875V20.625H44C43.2707 20.625 42.5712 20.3353 42.0555 19.8195C41.5397 19.3038 41.25 18.6043 41.25 17.875V13.75L37.125 15.125L35.75 13.75H27.5V17.875C27.5 18.6043 27.2103 19.3038 26.6945 19.8195C26.1788 20.3353 25.4793 20.625 24.75 20.625H20.625Z" fill="#C18E59"/>
<path d="M41.294 39.1365C39.2511 40.5175 36.8409 41.2537 34.375 41.2499C31.9271 41.254 29.5334 40.5283 27.5 39.1653V45.3749C27.5 46.1042 27.2103 46.8037 26.6945 47.3194C26.1788 47.8351 25.4793 48.1249 24.75 48.1249L34.375 59.1249L44 48.1249C43.2707 48.1249 42.5712 47.8351 42.0555 47.3194C41.5397 46.8037 41.25 46.1042 41.25 45.3749V39.164L41.294 39.1365Z" fill="#F2B9A1"/>
<path d="M30.5539 54.7566L23.375 60.5L22 48.125H24.75L30.5539 54.7566ZM38.3213 54.615L44 48.125H46.75L45.375 60.5L38.3213 54.615Z" fill="#C8CDED"/>
<path d="M38.5 85.25L39.875 79.75L37.125 66H31.625L28.875 79.75L30.25 85.25H38.5Z" fill="#78A0D4"/>
<path d="M37.048 56.0685L38.5 61.8751L37.125 66.0001H31.625L30.25 61.8751L31.702 56.0685L34.375 59.1238L37.048 56.0685Z" fill="#5E87CA"/>
<path d="M22 27.5H19.9375C19.0258 27.5 18.1515 27.1378 17.5068 26.4932C16.8622 25.8485 16.5 24.9742 16.5 24.0625C16.5 23.1508 16.8622 22.2765 17.5068 21.6318C18.1515 20.9872 19.0258 20.625 19.9375 20.625H22M46.75 27.5H48.8125C49.7242 27.5 50.5985 27.1378 51.2432 26.4932C51.8878 25.8485 52.25 24.9742 52.25 24.0625C52.25 23.1508 51.8878 22.2765 51.2432 21.6318C50.5985 20.9872 49.7242 20.625 48.8125 20.625H46.75" fill="#F2B9A1"/>
<path d="M66 81.125C69.0376 81.125 71.5 78.6626 71.5 75.625C71.5 72.5874 69.0376 70.125 66 70.125C62.9624 70.125 60.5 72.5874 60.5 75.625C60.5 78.6626 62.9624 81.125 66 81.125Z" fill="#4D8C28"/>
<path d="M85.25 64.625H67.375C67.3695 59.8859 65.4845 55.3425 62.1335 51.9915C58.7825 48.6405 54.2391 46.7555 49.5 46.75H44C43.6353 46.75 43.2856 46.6051 43.0277 46.3473C42.7699 46.0894 42.625 45.7397 42.625 45.375V39.8489C44.3305 38.572 45.7154 36.9157 46.67 35.011C47.6246 33.1063 48.1228 31.0055 48.125 28.875H48.8125C50.0279 28.8774 51.199 28.4188 52.0896 27.5916C52.9801 26.7645 53.5239 25.6304 53.6111 24.4181C53.6983 23.2058 53.3225 22.0056 52.5596 21.0594C51.7966 20.1133 50.7032 19.4918 49.5 19.3201V6.875C49.5 5.41631 48.9205 4.01736 47.8891 2.98591C46.8576 1.95446 45.4587 1.375 44 1.375H24.75C23.2913 1.375 21.8924 1.95446 20.8609 2.98591C19.8295 4.01736 19.25 5.41631 19.25 6.875V19.3201C18.0468 19.4918 16.9534 20.1133 16.1904 21.0594C15.4275 22.0056 15.0517 23.2058 15.1389 24.4181C15.2261 25.6304 15.7699 26.7645 16.6604 27.5916C17.551 28.4188 18.7221 28.8774 19.9375 28.875H20.625C20.6272 31.0055 21.1254 33.1063 22.08 35.011C23.0346 36.9157 24.4195 38.572 26.125 39.8489V45.375C26.125 45.7397 25.9801 46.0894 25.7223 46.3473C25.4644 46.6051 25.1147 46.75 24.75 46.75H19.25C14.5109 46.7555 9.96753 48.6405 6.6165 51.9915C3.26547 55.3425 1.38046 59.8859 1.375 64.625V85.25C1.375 85.6147 1.51987 85.9644 1.77773 86.2223C2.03559 86.4801 2.38533 86.625 2.75 86.625H85.25C85.6147 86.625 85.9644 86.4801 86.2223 86.2223C86.4801 85.9644 86.625 85.6147 86.625 85.25V66C86.625 65.6353 86.4801 65.2856 86.2223 65.0277C85.9644 64.7699 85.6147 64.625 85.25 64.625ZM37.4261 83.875H31.3239L30.2844 79.717L32.7525 67.375H35.9975L38.4725 79.717L37.4261 83.875ZM28.5725 54.5875L24.4654 57.8737L23.5359 49.5H24.1271L28.5725 54.5875ZM36.3522 58.9586L37.0686 61.8269L36.1336 64.625H32.6164L31.6814 61.82L32.3978 58.9518L33.341 60.0284C33.47 60.1747 33.6287 60.2919 33.8065 60.3721C33.9843 60.4524 34.1772 60.4939 34.3722 60.4939C34.5673 60.4939 34.7602 60.4524 34.938 60.3721C35.1158 60.2919 35.2745 60.1747 35.4035 60.0284L36.3522 58.9586ZM44.6229 49.5H45.2141L44.2846 57.8669L40.1775 54.5875L44.6229 49.5ZM50.875 24.0625C50.875 24.6095 50.6577 25.1341 50.2709 25.5209C49.8841 25.9077 49.3595 26.125 48.8125 26.125H48.125V22H48.8125C49.3595 22 49.8841 22.2173 50.2709 22.6041C50.6577 22.9909 50.875 23.5155 50.875 24.0625ZM19.9375 26.125C19.3905 26.125 18.8659 25.9077 18.4791 25.5209C18.0923 25.1341 17.875 24.6095 17.875 24.0625C17.875 23.5155 18.0923 22.9909 18.4791 22.6041C18.8659 22.2173 19.3905 22 19.9375 22H20.625V26.125H19.9375ZM22 6.875C22 6.14565 22.2897 5.44618 22.8055 4.93046C23.3212 4.41473 24.0207 4.125 24.75 4.125H44C44.7293 4.125 45.4288 4.41473 45.9445 4.93046C46.4603 5.44618 46.75 6.14565 46.75 6.875V19.25H44C43.6353 19.25 43.2856 19.1051 43.0277 18.8473C42.7699 18.5894 42.625 18.2397 42.625 17.875V13.75C42.6248 13.5322 42.573 13.3176 42.4736 13.1239C42.3743 12.9301 42.2304 12.7627 42.0537 12.6354C41.877 12.5081 41.6726 12.4246 41.4573 12.3918C41.2421 12.3589 41.0221 12.3777 40.8155 12.4465L37.4963 13.5465L36.7221 12.7738C36.4636 12.5174 36.1141 12.374 35.75 12.375H27.5C27.1353 12.375 26.7856 12.5199 26.5277 12.7777C26.2699 13.0356 26.125 13.3853 26.125 13.75V17.875C26.125 18.2397 25.9801 18.5894 25.7223 18.8473C25.4644 19.1051 25.1147 19.25 24.75 19.25H22V6.875ZM23.375 28.875V22H24.75C25.844 22 26.8932 21.5654 27.6668 20.7918C28.4404 20.0182 28.875 18.969 28.875 17.875V15.125H35.1808L36.1529 16.0971C36.3335 16.2775 36.5607 16.404 36.8091 16.4625C37.0576 16.521 37.3174 16.5093 37.5595 16.4285L39.875 15.6585V17.875C39.875 18.969 40.3096 20.0182 41.0832 20.7918C41.8568 21.5654 42.906 22 44 22H45.375V28.875C45.375 31.7924 44.2161 34.5903 42.1532 36.6532C40.0903 38.7161 37.2924 39.875 34.375 39.875C31.4576 39.875 28.6597 38.7161 26.5968 36.6532C24.5339 34.5903 23.375 31.7924 23.375 28.875ZM34.375 42.625C36.2687 42.6252 38.1417 42.2314 39.875 41.4686V45.375C39.876 46.0361 40.0362 46.6873 40.3421 47.2735C40.6479 47.8596 41.0905 48.3634 41.6322 48.7424L34.375 57.035L27.1178 48.7424C27.6595 48.3634 28.1021 47.8596 28.4079 47.2735C28.7138 46.6873 28.874 46.0361 28.875 45.375V41.4686C30.6083 42.2314 32.4813 42.6252 34.375 42.625ZM4.125 64.625C4.12973 60.6151 5.72477 56.7707 8.56024 53.9352C11.3957 51.0998 15.2401 49.5047 19.25 49.5H20.7694L22.0069 60.6513C22.0339 60.896 22.1261 61.129 22.2739 61.3259C22.4217 61.5229 22.6197 61.6765 22.8471 61.7708C23.0746 61.865 23.3232 61.8965 23.567 61.8619C23.8108 61.8272 24.0408 61.7278 24.233 61.5739L30.0754 56.8989L28.9149 61.5409C28.8514 61.7942 28.8615 62.0603 28.9437 62.3081L30.2032 66.088L27.5275 79.475C27.4866 79.6742 27.4913 79.8801 27.5413 80.0772L28.4886 83.875H4.125V64.625ZM45.375 66V83.875H40.2614L41.2087 80.0827C41.2587 79.8856 41.2634 79.6797 41.2225 79.4805L38.5454 66.0894L39.8049 62.3095C39.8872 62.0617 39.8972 61.7956 39.8337 61.5422L38.6732 56.9002L44.5156 61.5753C44.7078 61.7292 44.9378 61.8286 45.1816 61.8632C45.4254 61.8979 45.674 61.8664 45.9015 61.7721C46.129 61.6779 46.3269 61.5242 46.4747 61.3273C46.6225 61.1304 46.7148 60.8974 46.7417 60.6526L47.9875 49.5H49.5C53.5099 49.5047 57.3543 51.0998 60.1898 53.9352C63.0252 56.7707 64.6203 60.6151 64.625 64.625H46.75C46.3853 64.625 46.0356 64.7699 45.7777 65.0277C45.5199 65.2856 45.375 65.6353 45.375 66ZM83.875 83.875H48.125V67.375H83.875V83.875Z" fill="black"/>
<path d="M52.25 81.125H61.875V81.0892C63.0557 82.0035 64.5067 82.4996 66 82.4996C67.4933 82.4996 68.9443 82.0035 70.125 81.0892V81.125H79.75C80.1147 81.125 80.4644 80.9801 80.7223 80.7222C80.9801 80.4644 81.125 80.1146 81.125 79.75V71.5C81.125 71.1353 80.9801 70.7855 80.7223 70.5277C80.4644 70.2698 80.1147 70.125 79.75 70.125H70.125V70.1607C68.9443 69.2464 67.4933 68.7503 66 68.7503C64.5067 68.7503 63.0557 69.2464 61.875 70.1607V70.125H52.25C51.8853 70.125 51.5356 70.2698 51.2777 70.5277C51.0199 70.7855 50.875 71.1353 50.875 71.5V79.75C50.875 80.1146 51.0199 80.4644 51.2777 80.7222C51.5356 80.9801 51.8853 81.125 52.25 81.125ZM78.375 78.375H72.292C72.6764 77.5091 72.875 76.5723 72.875 75.625C72.875 74.6776 72.6764 73.7408 72.292 72.875H78.375V78.375ZM66 71.5C66.8158 71.5 67.6134 71.7419 68.2917 72.1951C68.9701 72.6484 69.4988 73.2926 69.811 74.0464C70.1232 74.8001 70.2049 75.6295 70.0457 76.4297C69.8866 77.2299 69.4937 77.9649 68.9168 78.5418C68.3399 79.1187 67.6049 79.5115 66.8047 79.6707C66.0046 79.8299 65.1752 79.7482 64.4214 79.436C63.6677 79.1237 63.0234 78.595 62.5702 77.9167C62.1169 77.2383 61.875 76.4408 61.875 75.625C61.875 74.5309 62.3096 73.4817 63.0832 72.7081C63.8568 71.9346 64.906 71.5 66 71.5ZM53.625 72.875H59.708C59.3236 73.7408 59.125 74.6776 59.125 75.625C59.125 76.5723 59.3236 77.5091 59.708 78.375H53.625V72.875Z" fill="black"/>
</svg>
