<svg width="48" height="48" viewBox="0 0 48 48" fill="none" xmlns="http://www.w3.org/2000/svg">
<path d="M28.5 43.5C35.5416 43.5 41.25 37.7916 41.25 30.75C41.25 23.7084 35.5416 18 28.5 18C21.4584 18 15.75 23.7084 15.75 30.75C15.75 37.7916 21.4584 43.5 28.5 43.5Z" fill="#E1E3E6"/>
<path d="M39.75 40.5L42 45.75H38.25L36 42.75L39.75 40.5Z" fill="#7E8589"/>
<path d="M28.5 15.75C25.5333 15.75 22.6332 16.6297 20.1664 18.278C17.6997 19.9262 15.7771 22.2689 14.6418 25.0097C13.5065 27.7506 13.2094 30.7666 13.7882 33.6764C14.367 36.5861 15.7956 39.2588 17.8934 41.3566C19.9912 43.4544 22.6639 44.883 25.5736 45.4618C28.4834 46.0406 31.4994 45.7435 34.2402 44.6082C36.9811 43.4729 39.3238 41.5503 40.972 39.0836C42.6203 36.6168 43.5 33.7167 43.5 30.75C43.5 28.7802 43.112 26.8296 42.3582 25.0097C41.6044 23.1899 40.4995 21.5363 39.1066 20.1434C37.7137 18.7505 36.0601 17.6456 34.2402 16.8918C32.4204 16.138 30.4698 15.75 28.5 15.75ZM28.5 42.75C26.1266 42.75 23.8065 42.0462 21.8332 40.7276C19.8598 39.4091 18.3217 37.5349 17.4134 35.3422C16.5052 33.1495 16.2676 30.7367 16.7306 28.4089C17.1936 26.0811 18.3365 23.9429 20.0147 22.2647C21.6929 20.5865 23.8311 19.4436 26.1589 18.9806C28.4867 18.5176 30.8995 18.7552 33.0922 19.6634C35.2849 20.5717 37.1591 22.1098 38.4776 24.0832C39.7962 26.0565 40.5 28.3766 40.5 30.75C40.5 33.9326 39.2357 36.9848 36.9853 39.2353C34.7348 41.4857 31.6826 42.75 28.5 42.75Z" fill="#6A7073"/>
<path d="M28.5 32.25C29.3284 32.25 30 31.5784 30 30.75C30 29.9216 29.3284 29.25 28.5 29.25C27.6716 29.25 27 29.9216 27 30.75C27 31.5784 27.6716 32.25 28.5 32.25Z" fill="#7E8589"/>
<path d="M3 33.75H12V36.75H3V33.75Z" fill="#FFD33A"/>
<path d="M3 30.75H12V33.75H3V30.75Z" fill="#FFB632"/>
<path d="M3 27.75H12V30.75H3V27.75Z" fill="#FFD33A"/>
<path d="M3 42.75H31.5V45.75H3V42.75Z" fill="#35A872"/>
<path d="M3 39.75H31.5V42.75H3V39.75Z" fill="#3DC285"/>
<path d="M3 36.75H31.5V39.75H3V36.75Z" fill="#35A872"/>
<path d="M15 37.5H19.5V46.5H15V37.5Z" fill="#E1E3E6"/>
<path d="M11.25 36.75C14.1495 36.75 16.5 34.3995 16.5 31.5C16.5 28.6005 14.1495 26.25 11.25 26.25C8.35051 26.25 6 28.6005 6 31.5C6 34.3995 8.35051 36.75 11.25 36.75Z" fill="#FFD33A"/>
<path d="M12 14.25C12.8284 14.25 13.5 13.5784 13.5 12.75C13.5 11.9216 12.8284 11.25 12 11.25C11.1716 11.25 10.5 11.9216 10.5 12.75C10.5 13.5784 11.1716 14.25 12 14.25Z" fill="#35A872"/>
<path d="M27 6.75C27.8284 6.75 28.5 6.07843 28.5 5.25C28.5 4.42157 27.8284 3.75 27 3.75C26.1716 3.75 25.5 4.42157 25.5 5.25C25.5 6.07843 26.1716 6.75 27 6.75Z" fill="#35A872"/>
<path d="M22.1512 14.116C18.9139 15.3405 16.0967 17.4697 14.0353 20.2501L11.8941 18.1089C13.9963 15.3956 16.7296 13.2371 19.8562 11.821L22.1512 14.116ZM45.1059 18.1089L42.9647 20.2501C40.9619 17.5489 38.2445 15.4608 35.1187 14.221L37.4006 11.9392C40.4213 13.3567 43.0622 15.4713 45.1059 18.1089Z" fill="#7E8589"/>
<path d="M44.25 30.75C44.25 22.0654 37.1846 15 28.5 15C25.1629 14.9977 21.9113 16.0561 19.215 18.0223C16.5186 19.9886 14.5169 22.7609 13.4989 25.9389C12.4674 25.5204 11.3396 25.398 10.2423 25.5854C9.14501 25.7729 8.1218 26.2628 7.28775 27H3C2.80109 27 2.61032 27.079 2.46967 27.2197C2.32902 27.3603 2.25 27.5511 2.25 27.75V45.75C2.25 45.9489 2.32902 46.1397 2.46967 46.2803C2.61032 46.421 2.80109 46.5 3 46.5H31.5C31.6427 46.4999 31.7824 46.459 31.9027 46.3823C32.023 46.3056 32.1189 46.1961 32.1791 46.0668C33.6693 45.7083 35.099 45.1334 36.4225 44.3605L37.626 46.1658C37.6945 46.2686 37.7872 46.3528 37.8961 46.4111C38.0049 46.4694 38.1265 46.5 38.25 46.5H42C42.1278 46.5 42.2536 46.4673 42.3652 46.4051C42.4769 46.3428 42.5708 46.253 42.638 46.1443C42.7052 46.0355 42.7435 45.9114 42.7492 45.7837C42.755 45.656 42.728 45.5289 42.6708 45.4146L40.4615 40.996C40.526 40.921 40.5899 40.8453 40.6532 40.7688C42.9768 37.9468 44.2481 34.4055 44.25 30.75ZM28.5 16.5C36.3575 16.5 42.75 22.8925 42.75 30.75C42.7496 33.8762 41.7216 36.9157 39.8244 39.4004C37.9271 41.8851 35.2657 43.6773 32.25 44.5012V42.9391C34.8555 42.1354 37.1352 40.5183 38.7548 38.3248C40.3744 36.1313 41.2489 33.4767 41.25 30.75C41.25 23.7196 35.5304 18 28.5 18C22.44 18 17.3544 22.2499 16.0658 27.9256C15.7176 27.4575 15.3034 27.0422 14.8362 26.6926C15.7095 23.7471 17.512 21.163 19.9746 19.326C22.4371 17.489 25.4278 16.4977 28.5 16.5ZM3.75 40.5H14.25V42H3.75V40.5ZM14.25 39H3.75V37.5H14.25V39ZM3.75 34.5H6.05719C6.38388 35.063 6.79942 35.5696 7.28775 36H3.75V34.5ZM5.43984 33H3.75V31.5H5.25C5.2497 32.006 5.31349 32.51 5.43984 33ZM28.5 21.75C28.6989 21.75 28.8897 21.671 29.0303 21.5303C29.171 21.3897 29.25 21.1989 29.25 21V19.5256C31.967 19.7107 34.525 20.8736 36.4507 22.7993C38.3764 24.725 39.5393 27.283 39.7244 30H38.25C38.0511 30 37.8603 30.079 37.7197 30.2197C37.579 30.3603 37.5 30.5511 37.5 30.75C37.5 30.9489 37.579 31.1397 37.7197 31.2803C37.8603 31.421 38.0511 31.5 38.25 31.5H39.7227C39.5756 33.6935 38.7895 35.7958 37.4616 37.5479C36.1337 39.2999 34.322 40.6249 32.25 41.3594V36.75C32.25 36.5511 32.171 36.3603 32.0303 36.2197C31.8897 36.079 31.6989 36 31.5 36H18.5484C17.8133 34.6058 17.3795 33.0727 17.2751 31.5H18.75C18.9489 31.5 19.1397 31.421 19.2803 31.2803C19.421 31.1397 19.5 30.9489 19.5 30.75C19.5 30.5511 19.421 30.3603 19.2803 30.2197C19.1397 30.079 18.9489 30 18.75 30H17.2756C17.4607 27.283 18.6236 24.725 20.5493 22.7993C22.475 20.8736 25.033 19.7107 27.75 19.5256V21C27.75 21.1989 27.829 21.3897 27.9697 21.5303C28.1103 21.671 28.3011 21.75 28.5 21.75ZM16.3587 34.6422C16.506 35.1044 16.6796 35.5577 16.8787 36H15.2123C15.6592 35.6064 16.0455 35.1488 16.3587 34.6422ZM30.75 37.5V39H20.25V37.5H30.75ZM20.25 40.5H30.75V42H20.25V40.5ZM11.25 27C12.14 27 13.01 27.2639 13.7501 27.7584C14.4901 28.2529 15.0669 28.9557 15.4075 29.7779C15.7481 30.6002 15.8372 31.505 15.6635 32.3779C15.4899 33.2508 15.0613 34.0526 14.432 34.682C13.8026 35.3113 13.0008 35.7399 12.1279 35.9135C11.255 36.0872 10.3502 35.9981 9.52792 35.6575C8.70566 35.3169 8.00285 34.7401 7.50839 34.0001C7.01392 33.26 6.75 32.39 6.75 31.5C6.75136 30.3069 7.22591 29.1631 8.06953 28.3195C8.91314 27.4759 10.0569 27.0014 11.25 27ZM6.05719 28.5C5.78405 28.9696 5.57635 29.4742 5.43984 30H3.75V28.5H6.05719ZM3.75 43.5H14.25V45H3.75V43.5ZM15.75 45V37.5H18.75V45H15.75ZM20.25 45V43.5H30.75V45H20.25ZM38.6513 45L37.6812 43.5448C38.2731 43.1199 38.8349 42.6547 39.3626 42.1523L40.7865 45H38.6513Z" fill="black"/>
<path d="M3 22.5C3.09851 22.5001 3.19608 22.4808 3.28709 22.4431C3.37811 22.4054 3.46077 22.3501 3.53035 22.2803L11.0303 14.7803C11.333 14.9251 11.6643 15.0002 11.9998 15.0002C12.3353 15.0002 12.6666 14.9251 12.9693 14.7803L13.3443 15.1553C12.6107 15.8664 11.928 16.6282 11.3013 17.4351C11.1894 17.5794 11.134 17.7595 11.1455 17.9418C11.157 18.124 11.2346 18.2958 11.3637 18.4249L13.505 20.5661C13.6456 20.7068 13.8363 20.7858 14.0352 20.7858C14.0536 20.7858 14.072 20.7851 14.0903 20.7837C14.1978 20.7758 14.3024 20.7448 14.3968 20.6929C14.4913 20.6409 14.5734 20.5692 14.6377 20.4827C16.611 17.8157 19.3115 15.7742 22.4156 14.6031C22.5329 14.5588 22.6373 14.4859 22.7191 14.3909C22.801 14.2959 22.8577 14.182 22.8841 14.0594C22.9105 13.9369 22.9058 13.8096 22.8704 13.6894C22.835 13.5691 22.77 13.4597 22.6813 13.371L21.3106 12L26.0305 7.28016C26.3332 7.42488 26.6645 7.5 27 7.5C27.3355 7.5 27.6668 7.42488 27.9695 7.28016L29.4695 8.78016C29.5391 8.8498 29.6218 8.90505 29.7128 8.94275C29.8038 8.98044 29.9013 8.99984 29.9998 8.99984C30.0983 8.99984 30.1958 8.98044 30.2868 8.94275C30.3778 8.90505 30.4605 8.8498 30.5302 8.78016L35.25 4.06059V5.25C35.25 5.44891 35.329 5.63968 35.4697 5.78033C35.6103 5.92098 35.8011 6 36 6C36.1989 6 36.3897 5.92098 36.5303 5.78033C36.671 5.63968 36.75 5.44891 36.75 5.25V2.25C36.75 2.05109 36.671 1.86032 36.5303 1.71967C36.3897 1.57902 36.1989 1.5 36 1.5H33C32.8011 1.5 32.6103 1.57902 32.4697 1.71967C32.329 1.86032 32.25 2.05109 32.25 2.25C32.25 2.44891 32.329 2.63968 32.4697 2.78033C32.6103 2.92098 32.8011 3 33 3H34.1894L30 7.18941L29.0302 6.21947C29.194 5.87649 29.2684 5.49759 29.2462 5.11812C29.224 4.73866 29.106 4.37099 28.9033 4.04945C28.7006 3.72791 28.4197 3.46297 28.0869 3.27935C27.754 3.09574 27.3801 2.99943 27 2.99943C26.6199 2.99943 26.246 3.09574 25.9131 3.27935C25.5803 3.46297 25.2994 3.72791 25.0967 4.04945C24.894 4.37099 24.776 4.73866 24.7538 5.11812C24.7317 5.49759 24.806 5.87649 24.9698 6.21947L20.2313 10.9585C20.1284 10.8987 20.0127 10.8642 19.8938 10.858C19.7749 10.8518 19.6563 10.874 19.5477 10.9228C17.7095 11.7559 15.9959 12.8404 14.4563 14.1453L14.0305 13.7195C14.1944 13.3765 14.2687 12.9976 14.2465 12.6181C14.2244 12.2387 14.1064 11.871 13.9037 11.5495C13.701 11.2279 13.4201 10.963 13.0872 10.7794C12.7544 10.5957 12.3805 10.4994 12.0004 10.4994C11.6203 10.4994 11.2463 10.5957 10.9135 10.7794C10.5807 10.963 10.2998 11.2279 10.0971 11.5495C9.89436 11.871 9.7764 12.2387 9.75421 12.6181C9.73203 12.9976 9.80634 13.3765 9.97022 13.7195L2.47022 21.2195C2.3653 21.3243 2.29382 21.4579 2.26482 21.6034C2.23582 21.7489 2.25061 21.8997 2.30732 22.0367C2.36403 22.1738 2.4601 22.291 2.5834 22.3734C2.70669 22.4559 2.85167 22.4999 3 22.5ZM27 4.5C27.1483 4.5 27.2933 4.54399 27.4167 4.6264C27.54 4.70881 27.6361 4.82594 27.6929 4.96299C27.7497 5.10003 27.7645 5.25083 27.7356 5.39632C27.7067 5.5418 27.6352 5.67544 27.5303 5.78033C27.4254 5.88522 27.2918 5.95665 27.1463 5.98559C27.0008 6.01453 26.85 5.99968 26.713 5.94291C26.5759 5.88614 26.4588 5.79001 26.3764 5.66668C26.294 5.54334 26.25 5.39834 26.25 5.25C26.2502 5.05116 26.3293 4.86052 26.4699 4.71992C26.6105 4.57931 26.8012 4.50022 27 4.5ZM19.6976 12.5083L20.8262 13.6368C18.1596 14.8335 15.81 16.6375 13.9651 18.9044L12.9 17.8388C14.7591 15.5969 17.077 13.7792 19.6976 12.5083ZM12 12C12.1483 12 12.2933 12.044 12.4167 12.1264C12.54 12.2088 12.6361 12.3259 12.6929 12.463C12.7497 12.6 12.7645 12.7508 12.7356 12.8963C12.7067 13.0418 12.6352 13.1754 12.5303 13.2803C12.4254 13.3852 12.2918 13.4566 12.1463 13.4856C12.0008 13.5145 11.85 13.4997 11.713 13.4429C11.5759 13.3861 11.4588 13.29 11.3764 13.1667C11.294 13.0433 11.25 12.8983 11.25 12.75C11.2502 12.5512 11.3293 12.3605 11.4699 12.2199C11.6105 12.0793 11.8012 12.0002 12 12ZM9.75 33C9.75 33.1989 9.82902 33.3897 9.96967 33.5303C10.1103 33.671 10.3011 33.75 10.5 33.75C10.5 33.9489 10.579 34.1397 10.7197 34.2803C10.8603 34.421 11.0511 34.5 11.25 34.5C11.4489 34.5 11.6397 34.421 11.7803 34.2803C11.921 34.1397 12 33.9489 12 33.75V33.547C12.286 33.3821 12.5095 33.1274 12.6359 32.8225C12.7623 32.5175 12.7845 32.1794 12.699 31.8605C12.6135 31.5417 12.4251 31.26 12.1631 31.0592C11.9011 30.8584 11.5801 30.7497 11.25 30.75H12C12.1989 30.75 12.3897 30.671 12.5303 30.5303C12.671 30.3897 12.75 30.1989 12.75 30C12.75 29.8011 12.671 29.6103 12.5303 29.4697C12.3897 29.329 12.1989 29.25 12 29.25C12 29.0511 11.921 28.8603 11.7803 28.7197C11.6397 28.579 11.4489 28.5 11.25 28.5C11.0511 28.5 10.8603 28.579 10.7197 28.7197C10.579 28.8603 10.5 29.0511 10.5 29.25V29.453C10.214 29.6179 9.99048 29.8726 9.86409 30.1775C9.7377 30.4825 9.71553 30.8206 9.80103 31.1395C9.88653 31.4583 10.0749 31.74 10.3369 31.9408C10.5989 32.1416 10.9199 32.2503 11.25 32.25H10.5C10.3011 32.25 10.1103 32.329 9.96967 32.4697C9.82902 32.6103 9.75 32.8011 9.75 33ZM26.4697 26.7803C26.5393 26.85 26.622 26.9052 26.713 26.9429C26.804 26.9806 26.9015 27 27 27C27.0985 27 27.196 26.9806 27.287 26.9429C27.378 26.9052 27.4607 26.85 27.5303 26.7803L27.75 26.5606V28.629C27.3916 28.7556 27.0711 28.971 26.8184 29.255C26.5658 29.539 26.3892 29.8824 26.3052 30.2531C26.2211 30.6238 26.2324 31.0098 26.3379 31.375C26.4434 31.7402 26.6397 32.0727 26.9085 32.3415C27.1773 32.6103 27.5098 32.8066 27.875 32.9121C28.2402 33.0176 28.6262 33.0289 28.9969 32.9448C29.3676 32.8608 29.711 32.6842 29.995 32.4316C30.279 32.1789 30.4944 31.8584 30.621 31.5H33.4394L33.2197 31.7197C33.079 31.8603 33 32.0511 33 32.25C33 32.4489 33.079 32.6397 33.2197 32.7803C33.3603 32.921 33.5511 33 33.75 33C33.9489 33 34.1397 32.921 34.2803 32.7803L35.7803 31.2803C35.798 31.2627 35.8147 31.2442 35.8305 31.2248C35.8372 31.2167 35.843 31.2081 35.8493 31.1997C35.8577 31.1886 35.8664 31.1776 35.8742 31.1659C35.882 31.1542 35.887 31.1448 35.8929 31.1342C35.8988 31.1236 35.9056 31.1137 35.9117 31.1031C35.9178 31.0924 35.9227 31.0806 35.928 31.0692C35.9333 31.0579 35.9385 31.0478 35.9432 31.0367C35.9479 31.0256 35.9514 31.0141 35.9556 31.0028C35.9597 30.9916 35.9643 30.9794 35.9679 30.9674C35.9716 30.9554 35.9739 30.9444 35.9773 30.9329C35.9807 30.9214 35.9838 30.9086 35.9867 30.8962C35.9896 30.8839 35.991 30.8691 35.9929 30.8555C35.9944 30.8449 35.9964 30.8345 35.9975 30.8238C36.0023 30.7745 36.0023 30.7248 35.9975 30.6755C35.9964 30.6648 35.9944 30.6544 35.9929 30.6438C35.991 30.6302 35.9894 30.6165 35.9867 30.603C35.984 30.5895 35.9808 30.5785 35.9773 30.5663C35.9738 30.5542 35.9719 30.5433 35.9679 30.5318L35.9556 30.4964C35.9513 30.4846 35.9478 30.4737 35.9432 30.4626C35.9386 30.4514 35.9332 30.4409 35.928 30.43C35.9228 30.4192 35.9177 30.4073 35.9117 30.3962C35.9057 30.3851 35.8995 30.3754 35.8929 30.3651C35.8864 30.3548 35.8807 30.3437 35.8742 30.3334C35.8677 30.3231 35.8577 30.3107 35.8493 30.2995C35.843 30.2912 35.8372 30.2826 35.8305 30.2744C35.8146 30.2552 35.7979 30.2367 35.7803 30.2189L34.2803 28.7189C34.1397 28.5782 33.9489 28.4992 33.75 28.4992C33.5511 28.4992 33.3603 28.5782 33.2197 28.7189C33.079 28.8596 33 29.0503 33 29.2493C33 29.4482 33.079 29.6389 33.2197 29.7796L33.4394 30H30.621C30.5085 29.6841 30.3271 29.3972 30.0899 29.1601C29.8528 28.9229 29.5659 28.7415 29.25 28.629V26.5606L29.4697 26.7803C29.5393 26.85 29.622 26.9052 29.713 26.9429C29.804 26.9806 29.9015 27 30 27C30.0985 27 30.196 26.9806 30.287 26.9429C30.378 26.9052 30.4607 26.85 30.5303 26.7803C30.6 26.7107 30.6552 26.628 30.6929 26.537C30.7306 26.446 30.75 26.3485 30.75 26.25C30.75 26.1515 30.7306 26.054 30.6929 25.963C30.6552 25.872 30.6 25.7893 30.5303 25.7197L29.0303 24.2197C28.9607 24.15 28.878 24.0948 28.787 24.0571C28.696 24.0194 28.5985 24 28.5 24C28.4015 24 28.304 24.0194 28.213 24.0571C28.122 24.0948 28.0393 24.15 27.9697 24.2197L26.4697 25.7197C26.4 25.7893 26.3448 25.872 26.3071 25.963C26.2694 26.054 26.25 26.1515 26.25 26.25C26.25 26.3485 26.2694 26.446 26.3071 26.537C26.3448 26.628 26.4 26.7107 26.4697 26.7803ZM28.5 31.5C28.3517 31.5 28.2067 31.456 28.0833 31.3736C27.96 31.2912 27.8639 31.1741 27.8071 31.037C27.7503 30.9 27.7355 30.7492 27.7644 30.6037C27.7934 30.4582 27.8648 30.3246 27.9697 30.2197C28.0746 30.1148 28.2082 30.0434 28.3537 30.0144C28.4992 29.9855 28.65 30.0003 28.787 30.0571C28.9241 30.1139 29.0412 30.21 29.1236 30.3333C29.206 30.4567 29.25 30.6017 29.25 30.75C29.2498 30.9488 29.1707 31.1395 29.0301 31.2801C28.8895 31.4207 28.6988 31.4998 28.5 31.5ZM45.6987 17.4346C43.5799 14.7053 40.8455 12.5159 37.7189 11.0452C37.5793 10.9798 37.423 10.959 37.2711 10.9856C37.1193 11.0122 36.9793 11.085 36.8703 11.194L34.5884 13.4759C34.5004 13.5638 34.4356 13.6723 34.4 13.7915C34.3643 13.9106 34.3588 14.0368 34.3841 14.1587C34.4093 14.2805 34.4645 14.3941 34.5445 14.4893C34.6246 14.5845 34.7271 14.6583 34.8428 14.704C37.8395 15.8908 40.4442 17.8925 42.3623 20.4826C42.4266 20.5691 42.5087 20.6408 42.6031 20.6928C42.6976 20.7447 42.8021 20.7757 42.9096 20.7836C42.9283 20.7851 42.9467 20.7858 42.9648 20.7857C43.1637 20.7857 43.3544 20.7067 43.495 20.566L45.6363 18.4248C45.7655 18.2957 45.8431 18.1238 45.8546 17.9415C45.8661 17.7592 45.8107 17.5789 45.6987 17.4346ZM43.0349 18.9044C41.2494 16.7125 38.9917 14.9522 36.4305 13.7551L37.5536 12.632C40.0719 13.8971 42.301 15.6699 44.1005 17.8388L43.0349 18.9044Z" fill="black"/>
</svg>
