<svg width="64" height="64" viewBox="0 0 64 64" fill="none" xmlns="http://www.w3.org/2000/svg">
<g clip-path="url(#clip0_1422_17201)">
<mask id="mask0_1422_17201" style="mask-type:luminance" maskUnits="userSpaceOnUse" x="0" y="0" width="64" height="64">
<path d="M64 0H0V64H64V0Z" fill="white"/>
</mask>
<g mask="url(#mask0_1422_17201)">
<path d="M61.26 26.9242H56.3125C56.0775 26.9242 55.875 26.7604 55.8225 26.5304C55.215 23.8742 54.1637 21.3379 52.7137 19.0304C52.5887 18.8304 52.615 18.5717 52.7812 18.4054L56.2812 14.9054C56.9875 14.1992 56.9875 13.0529 56.2812 12.3454L51.6625 7.72668C50.955 7.02043 49.81 7.02043 49.1025 7.72668L45.6025 11.2267C45.4362 11.3929 45.1775 11.4192 44.9775 11.2942C42.67 9.84418 40.1337 8.79293 37.4775 8.18543C37.2475 8.13293 37.0837 7.93168 37.0837 7.69543V2.75043C37.0837 1.75043 36.2737 0.94043 35.2737 0.94043H28.7425C27.7425 0.94043 26.9325 1.75043 26.9325 2.75043V7.69793C26.9325 7.93293 26.7687 8.13543 26.5387 8.18793C23.8825 8.79543 21.3462 9.84668 19.0387 11.2967C18.8387 11.4217 18.58 11.3954 18.4137 11.2292L14.9137 7.72918C14.2075 7.02293 13.0612 7.02293 12.3537 7.72918L7.73498 12.3479C7.02873 13.0542 7.02873 14.2004 7.73498 14.9079L11.235 18.4079C11.4012 18.5742 11.4287 18.8329 11.3025 19.0329C9.85248 21.3404 8.80123 23.8767 8.19373 26.5329C8.14123 26.7629 7.93998 26.9267 7.70373 26.9267H2.75873C1.75873 26.9267 0.94873 27.7367 0.94873 28.7367V35.2679C0.94873 36.2679 1.75873 37.0779 2.75873 37.0779H7.70623C7.94123 37.0779 8.14373 37.2417 8.19623 37.4717C8.80498 40.1279 9.85498 42.6642 11.305 44.9717C11.43 45.1717 11.4037 45.4304 11.2375 45.5967L7.73748 49.0967C7.03123 49.8029 7.03123 50.9492 7.73748 51.6567L12.7112 56.6304C13.2225 57.1417 14.05 57.1417 14.5612 56.6304L18.4162 52.7754C18.5825 52.6092 18.8412 52.5829 19.0412 52.7079C21.3487 54.1579 23.885 55.2092 26.5412 55.8167C26.7712 55.8692 26.935 56.0704 26.935 56.3067V61.2542C26.935 62.2542 27.745 63.0642 28.745 63.0642H35.2762C36.2762 63.0642 37.0862 62.2542 37.0862 61.2542V56.3067C37.0862 56.0717 37.25 55.8692 37.48 55.8167C40.1362 55.2092 42.6725 54.1579 44.98 52.7079C45.18 52.5829 45.4387 52.6092 45.605 52.7754L49.46 56.6304C49.9712 57.1417 50.7987 57.1417 51.31 56.6304L56.2837 51.6567C56.99 50.9504 56.99 49.8042 56.2837 49.0967L52.7837 45.5967C52.6175 45.4304 52.5912 45.1717 52.7162 44.9717C54.1662 42.6642 55.2175 40.1279 55.825 37.4717C55.8775 37.2417 56.0787 37.0779 56.315 37.0779H61.2625C62.2625 37.0779 63.0725 36.2679 63.0725 35.2679V28.7367C63.0725 27.7367 62.2625 26.9267 61.2625 26.9267" fill="#E4EAF8"/>
<path d="M11.2375 18.4067C11.4037 18.5729 11.43 18.8317 11.305 19.0317C9.85495 21.3392 8.8037 23.8754 8.1962 26.5317C8.1437 26.7604 7.94245 26.9254 7.7062 26.9254H11.4562C11.6912 26.9254 11.8937 26.7617 11.9462 26.5317C12.5537 23.8754 13.605 21.3392 15.055 19.0317C15.18 18.8317 15.1537 18.5729 14.9875 18.4067L11.4875 14.9067C10.7812 14.2004 10.7812 13.0542 11.4875 12.3467L15.5112 8.32293L14.9162 7.72793C14.2087 7.02168 13.0637 7.02168 12.3562 7.72793L7.73745 12.3467C7.0312 13.0529 7.0312 14.1992 7.73745 14.9067L11.2375 18.4067Z" fill="#D8DCE5"/>
<path d="M11.4875 51.6539C10.7812 50.9464 10.7812 49.8014 11.4875 49.0939L14.9875 45.5939C15.1537 45.4277 15.1812 45.1689 15.055 44.9689C13.605 42.6614 12.5537 40.1252 11.9462 37.4689C11.8937 37.2402 11.6925 37.0752 11.4562 37.0752H7.7062C7.9412 37.0752 8.1437 37.2389 8.1962 37.4689C8.8037 40.1252 9.85495 42.6614 11.305 44.9689C11.43 45.1689 11.4037 45.4277 11.2375 45.5939L7.73745 49.0939C7.0312 49.8014 7.0312 50.9464 7.73745 51.6539L12.7112 56.6277C13.2225 57.1389 14.05 57.1389 14.5612 56.6277L15.5112 55.6777L11.4875 51.6552V51.6539Z" fill="#D8DCE5"/>
<path d="M4.69873 35.2651V28.7338C4.69873 27.7338 5.50873 26.9238 6.50873 26.9238H2.75873C1.75873 26.9238 0.94873 27.7338 0.94873 28.7338V35.2651C0.94873 36.2651 1.75873 37.0751 2.75873 37.0751H6.50873C5.50873 37.0751 4.69873 36.2651 4.69873 35.2651Z" fill="#D8DCE5"/>
<path d="M28.7437 0.940215C27.7437 0.940215 26.9337 1.75021 26.9337 2.75021V7.69771C26.9337 7.93271 26.7699 8.13521 26.5399 8.18771L29.8212 7.80021C30.3137 7.74271 30.6849 7.32522 30.6849 6.82897V2.74896C30.6849 1.74896 31.4949 0.938965 32.4949 0.938965H28.7449L28.7437 0.940215Z" fill="#D8DCE5"/>
<path d="M52.2725 32.0491C52.2725 43.4866 43.0012 52.7578 31.5637 52.7578C20.1262 52.7578 10.855 43.4866 10.855 32.0491C10.855 20.6116 20.1262 11.3403 31.5637 11.3403C43.0012 11.3403 52.2725 20.6116 52.2725 32.0491Z" fill="#576574"/>
<path d="M14.605 32.0488C14.605 21.2438 22.88 12.3738 33.4387 11.4263C32.8212 11.3713 32.1962 11.3413 31.5637 11.3413C20.1262 11.3413 10.855 20.6126 10.855 32.0501C10.855 43.4876 20.1262 52.7588 31.5637 52.7588C32.1962 52.7588 32.8212 52.7288 33.4387 52.6738C22.88 51.7263 14.605 42.8563 14.605 32.0513" fill="#3E4B5A"/>
<path d="M44.3324 19.6778C41.0561 16.4028 36.6449 14.5728 32.0099 14.5728V19.3128C35.4061 19.3128 38.6111 20.659 40.9811 23.029L42.7986 21.2115L44.3324 19.6778Z" fill="#15BA8B"/>
<path d="M19.6862 19.6778L23.0374 23.029C25.4199 20.6453 28.6337 19.3128 32.0087 19.3128V14.5728C27.6187 14.5728 23.3499 16.1428 19.6862 19.6765" fill="#11AA7B"/>
<path d="M19.3212 32.0002C19.3212 28.7427 20.5724 25.494 23.0374 23.029L19.6862 19.6777C16.4499 22.914 14.5812 27.3102 14.5812 32.0002H19.3212Z" fill="#8AC2FF"/>
<path d="M19.3212 32H14.5812C14.5812 36.3025 16.1662 40.525 19.1874 43.8037C19.4537 44.0937 19.9112 44.0988 20.1899 43.82L22.5587 41.4512C22.8212 41.1887 22.8312 40.765 22.5812 40.49C21.5849 39.3913 19.3212 36.4763 19.3212 32.0013" fill="#54A0FF"/>
<path d="M23.5587 19.2039C26.0174 16.8326 28.7437 15.3289 31.5962 14.5776C27.3524 14.6739 23.2362 16.2551 19.6862 19.6776L21.5749 21.5664C22.1674 20.7239 22.8312 19.9339 23.5587 19.2051" fill="#0E9B6C"/>
<path d="M18.355 31.7663C18.355 28.0463 19.5087 24.5075 21.5737 21.565L19.685 19.6763C16.4487 22.9125 14.58 27.3088 14.58 31.9988H18.3562C18.3562 31.9213 18.3537 31.8425 18.3537 31.765" fill="#6FB1FF"/>
<path d="M18.3574 32H14.5812C14.5812 36.3025 16.1662 40.525 19.1874 43.8037C19.4549 44.0937 19.9112 44.0988 20.1899 43.82L21.7699 42.24C19.5724 39.2338 18.4062 35.65 18.3574 32Z" fill="#338DEF"/>
<path d="M44.3325 19.6777L40.9812 23.029C43.285 25.3327 44.6974 28.5152 44.6974 32.0002H49.4362C49.4362 27.4302 47.6475 22.9915 44.3325 19.6777Z" fill="#FECA57"/>
<path d="M44.6974 32C44.6974 35.1525 43.5337 38.1688 41.4312 40.4975C41.1849 40.7713 41.1999 41.1912 41.4599 41.4512L43.8287 43.82C44.1074 44.0988 44.5637 44.0937 44.8299 43.8037C47.7237 40.6625 49.4362 36.4963 49.4362 32H44.6962H44.6974Z" fill="#FF6B6B"/>
<path d="M33.9737 33.9626C32.89 35.0464 31.1337 35.0464 30.05 33.9626C28.9662 32.8789 28.9662 31.1226 30.05 30.0389C31.1337 28.9551 32.89 28.9551 33.9737 30.0389C35.0575 31.1226 35.0575 32.8789 33.9737 33.9626Z" fill="#FF6B6B"/>
<path d="M33.8562 29.9328C32.7662 28.9591 31.0949 28.9928 30.0487 30.0391C28.9649 31.1228 28.9649 32.8791 30.0487 33.9628C31.0949 35.0091 32.7662 35.0416 33.8562 34.0691C32.7149 33.0566 32.6099 31.3103 33.6224 30.1678C33.6962 30.0853 33.7737 30.0066 33.8562 29.9341" fill="#EE5253"/>
<path d="M30.6837 61.25V57.4487C30.6837 56.795 30.1949 56.2437 29.5449 56.1675L26.5399 55.8125C26.7699 55.865 26.9337 56.0663 26.9337 56.3025V61.25C26.9337 62.25 27.7437 63.06 28.7437 63.06H32.4937C31.4937 63.06 30.6837 62.25 30.6837 61.25Z" fill="#D8DCE5"/>
<path d="M31.7174 19.3154H31.6949" stroke="black" stroke-width="1.875" stroke-linecap="round" stroke-linejoin="round"/>
<path d="M31.6962 19.3164C31.5299 19.3202 31.4137 19.3264 31.4137 19.3264C31.5074 19.3227 31.6024 19.3189 31.6962 19.3164Z" stroke="black" stroke-width="1.875" stroke-linecap="round" stroke-linejoin="round"/>
<path d="M44.3225 19.6778C41.0462 16.4028 36.635 14.5728 32 14.5728V19.3128C35.3963 19.3128 38.6012 20.659 40.9712 23.029L42.7887 21.2115L44.3225 19.6778Z" stroke="black" stroke-width="1.875" stroke-linecap="round" stroke-linejoin="round"/>
<path d="M19.6761 19.6778L23.0274 23.029C25.4099 20.6453 28.6236 19.3128 31.9986 19.3128V14.5728C27.6086 14.5728 23.3399 16.1428 19.6761 19.6765V19.6778Z" stroke="black" stroke-width="1.875" stroke-linecap="round" stroke-linejoin="round"/>
<path d="M19.3124 32.0002C19.3124 28.7427 20.5636 25.494 23.0286 23.029L19.6774 19.6777C16.4411 22.914 14.5736 27.3102 14.5736 32.0002H19.3136H19.3124ZM19.3124 32.0002H14.5724C14.5724 36.3027 16.1574 40.5252 19.1774 43.804C19.4436 44.094 19.9011 44.099 20.1799 43.8202L22.5486 41.4515C22.8111 41.189 22.8211 40.7652 22.5711 40.4902C21.5749 39.3915 19.3111 36.4765 19.3111 32.0015L19.3124 32.0002Z" stroke="black" stroke-width="1.875" stroke-linecap="round" stroke-linejoin="round"/>
<path d="M44.3224 19.6777L40.9712 23.029C43.2749 25.3327 44.6874 28.5152 44.6874 32.0002H49.4262C49.4262 27.4302 47.6374 22.9915 44.3224 19.6777Z" stroke="black" stroke-width="1.875" stroke-linecap="round" stroke-linejoin="round"/>
<path d="M44.6874 32C44.6874 35.1525 43.5237 38.1688 41.4224 40.4975C41.1762 40.7713 41.1912 41.1912 41.4512 41.4512L43.8199 43.82C44.0987 44.0987 44.5549 44.0937 44.8212 43.8037C47.7149 40.6625 49.4274 36.4963 49.4274 32H44.6874Z" stroke="black" stroke-width="1.875" stroke-linecap="round" stroke-linejoin="round"/>
<path d="M30.2462 39.4629H33.7575" stroke="black" stroke-width="1.875" stroke-linecap="round" stroke-linejoin="round"/>
<path d="M33.9637 33.9626C32.88 35.0464 31.1237 35.0464 30.04 33.9626C28.9562 32.8789 28.9562 31.1226 30.04 30.0389C31.1237 28.9551 32.88 28.9551 33.9637 30.0389C35.0475 31.1226 35.0475 32.8789 33.9637 33.9626Z" stroke="black" stroke-width="1.875" stroke-linecap="round" stroke-linejoin="round"/>
<path d="M28.9529 33.6826L23 36.2707" stroke="black" stroke-width="1.875" stroke-linecap="round" stroke-linejoin="round"/>
<path d="M34.1875 63.0601H35.265C36.265 63.0601 37.075 62.2501 37.075 61.2501V56.3026C37.075 56.0676 37.2387 55.8651 37.4688 55.8126C40.125 55.2051 42.6613 54.1539 44.9688 52.7039C45.1688 52.5789 45.4275 52.6051 45.5938 52.7714L49.4487 56.6264C49.96 57.1376 50.7875 57.1376 51.2988 56.6264L56.2725 51.6526C56.9787 50.9464 56.9787 49.8001 56.2725 49.0926L52.7725 45.5926C52.6062 45.4264 52.5788 45.1676 52.705 44.9676C54.155 42.6601 55.2063 40.1239 55.8138 37.4676C55.8663 37.2376 56.0675 37.0739 56.3037 37.0739H61.2513C62.2513 37.0739 63.0612 36.2639 63.0612 35.2639V34.2339" stroke="black" stroke-width="1.875" stroke-linecap="round" stroke-linejoin="round"/>
<path d="M63.0599 29.8617V28.7342C63.0599 27.7342 62.2499 26.9242 61.2499 26.9242H56.3024C56.0674 26.9242 55.8649 26.7604 55.8124 26.5304C55.2037 23.8742 54.1537 21.3379 52.7037 19.0304C52.5787 18.8304 52.6049 18.5717 52.7712 18.4054L56.2712 14.9054C56.9774 14.1992 56.9774 13.0529 56.2712 12.3454L51.6524 7.72668C50.9462 7.02043 49.7999 7.02043 49.0924 7.72668L45.5924 11.2267C45.4262 11.3929 45.1674 11.4192 44.9674 11.2942C42.6599 9.84418 40.1237 8.79293 37.4674 8.18543C37.2374 8.13293 37.0737 7.93168 37.0737 7.69543V2.75043C37.0737 1.75043 36.2637 0.94043 35.2637 0.94043H28.7324C27.7324 0.94043 26.9224 1.75043 26.9224 2.75043V7.69793C26.9224 7.93293 26.7587 8.13543 26.5287 8.18793C23.8724 8.79668 21.3362 9.84668 19.0287 11.2967C18.8287 11.4217 18.5699 11.3954 18.4037 11.2292L14.9037 7.72918C14.1974 7.02293 13.0512 7.02293 12.3437 7.72918L7.72494 12.3479C7.01869 13.0542 7.01869 14.2004 7.72494 14.9079L11.2249 18.4079C11.3912 18.5742 11.4187 18.8329 11.2924 19.0329C9.84244 21.3404 8.79119 23.8767 8.18369 26.5329C8.13119 26.7629 7.92994 26.9267 7.69369 26.9267H2.74994C1.74994 26.9267 0.939941 27.7367 0.939941 28.7367V35.2679C0.939941 36.2679 1.74994 37.0779 2.74994 37.0779H7.69744C7.93244 37.0779 8.13494 37.2417 8.18744 37.4717C8.79494 40.1279 9.84619 42.6642 11.2962 44.9717C11.4212 45.1717 11.3949 45.4304 11.2287 45.5967L7.72869 49.0967C7.02244 49.8029 7.02244 50.9492 7.72869 51.6567L12.7024 56.6304C13.2137 57.1417 14.0412 57.1417 14.5524 56.6304L18.4074 52.7754C18.5737 52.6092 18.8324 52.5829 19.0324 52.7079C21.3399 54.1579 23.8762 55.2092 26.5324 55.8167C26.7624 55.8692 26.9262 56.0704 26.9262 56.3067V61.2542C26.9262 62.2542 27.7362 63.0642 28.7362 63.0642H29.8137" stroke="black" stroke-width="1.875" stroke-linecap="round" stroke-linejoin="round"/>
<path d="M52.71 32.0491C52.71 43.4866 43.4387 52.7578 32.0012 52.7578C20.5637 52.7578 11.2925 43.4866 11.2925 32.0491C11.2925 20.6116 20.5637 11.3403 32.0012 11.3403C43.4387 11.3403 52.71 20.6116 52.71 32.0491Z" stroke="black" stroke-width="1.875" stroke-linecap="round" stroke-linejoin="round"/>
</g>
</g>
<defs>
<clipPath id="clip0_1422_17201">
<rect width="64" height="64" fill="white"/>
</clipPath>
</defs>
</svg>
