<svg width="88" height="88" viewBox="0 0 88 88" fill="none" xmlns="http://www.w3.org/2000/svg">
<path d="M29.25 48.125C24.8739 48.125 20.6771 49.8634 17.5827 52.9577C14.4884 56.0521 12.75 60.2489 12.75 64.625V85.25H76V64.625C76 60.2489 74.2616 56.0521 71.1673 52.9577C68.0729 49.8634 63.8761 48.125 59.5 48.125H29.25Z" fill="#474747"/>
<path d="M55.3748 85.25L62.2085 48.3464C61.3132 48.1986 60.4072 48.1246 59.4998 48.125H29.2498C28.3423 48.1246 27.4364 48.1986 26.541 48.3464L33.3748 85.25H55.3748Z" fill="#F2F2F2"/>
<path d="M48.5 85.25L49.875 79.75L47.125 66H41.625L38.875 79.75L40.25 85.25H48.5Z" fill="#78A0D4"/>
<path d="M47.048 56.0685L48.5 61.8751L47.125 66.0001H41.625L40.25 61.8751L41.702 56.0685L44.375 59.1238L47.048 56.0685Z" fill="#5E87CA"/>
<path d="M40.5539 54.7566L33.375 60.5L32 48.125H34.75L40.5539 54.7566ZM56.75 48.125L55.375 60.5L48.1961 54.7566L54 48.125H56.75Z" fill="#CCCCCC"/>
<path d="M51.294 39.1365C49.2511 40.5175 46.8409 41.2537 44.375 41.2499C41.9271 41.254 39.5334 40.5283 37.5 39.1653V45.3749C37.5 46.1042 37.2103 46.8037 36.6945 47.3194C36.1788 47.8351 35.4793 48.1249 34.75 48.1249L44.375 59.1249L54 48.1249C53.2707 48.1249 52.5712 47.8351 52.0555 47.3194C51.5397 46.8037 51.25 46.1042 51.25 45.3749V39.1653L51.294 39.1365Z" fill="#F2B9A1"/>
<path d="M51.25 13.75V17.875C51.25 18.6043 51.5397 19.3038 52.0555 19.8195C52.5712 20.3353 53.2707 20.625 54 20.625H56.75V28.875C56.75 32.1571 55.4462 35.3047 53.1254 37.6254C50.8047 39.9462 47.6571 41.25 44.375 41.25C41.0929 41.25 37.9453 39.9462 35.6246 37.6254C33.3038 35.3047 32 32.1571 32 28.875V20.625H34.75C35.4793 20.625 36.1788 20.3353 36.6945 19.8195C37.2103 19.3038 37.5 18.6043 37.5 17.875V13.75H45.75L47.125 15.125L51.25 13.75Z" fill="#FBE1CA"/>
<path d="M30.625 20.625V6.875C30.625 5.78098 31.0596 4.73177 31.8332 3.95818C32.6068 3.1846 33.656 2.75 34.75 2.75H54C55.094 2.75 56.1432 3.1846 56.9168 3.95818C57.6904 4.73177 58.125 5.78098 58.125 6.875V20.625H54C53.2707 20.625 52.5712 20.3353 52.0555 19.8195C51.5397 19.3038 51.25 18.6043 51.25 17.875V13.75L47.125 15.125L45.75 13.75H37.5V17.875C37.5 18.6043 37.2103 19.3038 36.6945 19.8195C36.1788 20.3353 35.4793 20.625 34.75 20.625H30.625Z" fill="#C18E59"/>
<path d="M32 27.5H29.9375C29.0258 27.5 28.1515 27.1378 27.5068 26.4932C26.8622 25.8485 26.5 24.9742 26.5 24.0625C26.5 23.1508 26.8622 22.2765 27.5068 21.6318C28.1515 20.9872 29.0258 20.625 29.9375 20.625H32M56.75 27.5H58.8125C59.7242 27.5 60.5985 27.1378 61.2432 26.4932C61.8878 25.8485 62.25 24.9742 62.25 24.0625C62.25 23.1508 61.8878 22.2765 61.2432 21.6318C60.5985 20.9872 59.7242 20.625 58.8125 20.625H56.75" fill="#F2B9A1"/>
<path d="M59.5 46.75H54C53.6353 46.75 53.2856 46.6051 53.0277 46.3473C52.7699 46.0894 52.625 45.7397 52.625 45.375V39.8489C54.3307 38.5722 55.7157 36.9159 56.6703 35.0111C57.6249 33.1064 58.123 31.0056 58.125 28.875H58.8125C60.0279 28.8774 61.199 28.4188 62.0896 27.5916C62.9801 26.7645 63.5239 25.6304 63.6111 24.4181C63.6983 23.2058 63.3225 22.0056 62.5596 21.0594C61.7966 20.1133 60.7032 19.4918 59.5 19.3201V6.875C59.5 5.41631 58.9205 4.01736 57.8891 2.98591C56.8576 1.95446 55.4587 1.375 54 1.375H34.75C33.2913 1.375 31.8924 1.95446 30.8609 2.98591C29.8295 4.01736 29.25 5.41631 29.25 6.875V19.3201C28.0468 19.4918 26.9534 20.1133 26.1904 21.0594C25.4275 22.0056 25.0517 23.2058 25.1389 24.4181C25.2261 25.6304 25.7699 26.7645 26.6604 27.5916C27.551 28.4188 28.7221 28.8774 29.9375 28.875H30.625C30.627 31.0056 31.1251 33.1064 32.0797 35.0111C33.0343 36.9159 34.4193 38.5722 36.125 39.8489V45.375C36.125 45.7397 35.9801 46.0894 35.7223 46.3473C35.4644 46.6051 35.1147 46.75 34.75 46.75H29.25C24.5109 46.7555 19.9675 48.6405 16.6165 51.9915C13.2655 55.3425 11.3805 59.8859 11.375 64.625V85.25C11.375 85.6147 11.5199 85.9644 11.7777 86.2223C12.0356 86.4801 12.3853 86.625 12.75 86.625H76C76.3647 86.625 76.7144 86.4801 76.9723 86.2223C77.2301 85.9644 77.375 85.6147 77.375 85.25V64.625C77.3695 59.8859 75.4845 55.3425 72.1335 51.9915C68.7825 48.6405 64.2391 46.7555 59.5 46.75ZM60.5863 49.555L54.231 83.875H50.26L51.2087 80.0841C51.2586 79.8865 51.2633 79.6802 51.2225 79.4805L48.544 66.088L49.8035 62.3095C49.8877 62.0616 49.8982 61.7946 49.8337 61.5409L48.6732 56.8989L54.5156 61.5739C54.7078 61.7278 54.9378 61.8272 55.1816 61.8619C55.4254 61.8965 55.674 61.865 55.9015 61.7708C56.129 61.6765 56.3269 61.5229 56.4747 61.3259C56.6225 61.129 56.7148 60.896 56.7417 60.6513L57.9875 49.5H59.5C59.8671 49.5 60.226 49.5289 60.5863 49.555ZM40.283 79.717L42.7525 67.375H45.9975L48.4725 79.717L47.4275 83.875H41.3225L40.283 79.717ZM38.5725 54.5875L34.4654 57.8724L33.5359 49.5H34.1257L38.5725 54.5875ZM54.6242 49.5H55.2141L54.2846 57.8655L50.1775 54.5875L54.6242 49.5ZM46.3522 58.9531L47.0686 61.82L46.1336 64.625H42.6164L41.6814 61.82L42.3978 58.9531L43.3396 60.0298C43.4687 60.1774 43.6278 60.2958 43.8064 60.3769C43.985 60.458 44.1789 60.5 44.375 60.5C44.5711 60.5 44.765 60.458 44.9436 60.3769C45.1222 60.2958 45.2813 60.1774 45.4104 60.0298L46.3522 58.9531ZM60.875 24.0625C60.875 24.6095 60.6577 25.1341 60.2709 25.5209C59.8841 25.9077 59.3595 26.125 58.8125 26.125H58.125V22H58.8125C59.3595 22 59.8841 22.2173 60.2709 22.6041C60.6577 22.9909 60.875 23.5155 60.875 24.0625ZM29.9375 26.125C29.3905 26.125 28.8659 25.9077 28.4791 25.5209C28.0923 25.1341 27.875 24.6095 27.875 24.0625C27.875 23.5155 28.0923 22.9909 28.4791 22.6041C28.8659 22.2173 29.3905 22 29.9375 22H30.625V26.125H29.9375ZM32 6.875C32 6.14565 32.2897 5.44618 32.8055 4.93046C33.3212 4.41473 34.0207 4.125 34.75 4.125H54C54.7293 4.125 55.4288 4.41473 55.9445 4.93046C56.4603 5.44618 56.75 6.14565 56.75 6.875V19.25H54C53.6353 19.25 53.2856 19.1051 53.0277 18.8473C52.7699 18.5894 52.625 18.2397 52.625 17.875V13.75C52.6251 13.5321 52.5733 13.3174 52.4741 13.1234C52.3749 12.9294 52.231 12.7618 52.0542 12.6344C51.8775 12.507 51.6731 12.4234 51.4577 12.3904C51.2423 12.3575 51.0222 12.3763 50.8155 12.4451L47.4976 13.5451L46.7221 12.771C46.4632 12.5156 46.1137 12.3733 45.75 12.375H37.5C37.1353 12.375 36.7856 12.5199 36.5277 12.7777C36.2699 13.0356 36.125 13.3853 36.125 13.75V17.875C36.125 18.2397 35.9801 18.5894 35.7223 18.8473C35.4644 19.1051 35.1147 19.25 34.75 19.25H32V6.875ZM33.375 28.875V22H34.75C35.844 22 36.8932 21.5654 37.6668 20.7918C38.4404 20.0182 38.875 18.969 38.875 17.875V15.125H45.1808L46.1529 16.0971C46.3333 16.2777 46.5605 16.4045 46.8089 16.4632C47.0574 16.522 47.3173 16.5105 47.5595 16.4299L49.875 15.6571V17.875C49.875 18.969 50.3096 20.0182 51.0832 20.7918C51.8568 21.5654 52.906 22 54 22H55.375V28.875C55.375 31.7924 54.2161 34.5903 52.1532 36.6532C50.0903 38.7161 47.2924 39.875 44.375 39.875C41.4576 39.875 38.6597 38.7161 36.5968 36.6532C34.5339 34.5903 33.375 31.7924 33.375 28.875ZM44.375 42.625C46.2687 42.6252 48.1417 42.2314 49.875 41.4686V45.375C49.8756 46.0362 50.0357 46.6875 50.3416 47.2737C50.6475 47.8599 51.0902 48.3637 51.6322 48.7424L44.375 57.035L37.1178 48.7424C37.6598 48.3637 38.1025 47.8599 38.4084 47.2737C38.7143 46.6875 38.8744 46.0362 38.875 45.375V41.4686C40.6083 42.2314 42.4813 42.6252 44.375 42.625ZM30.7694 49.5L32.0069 60.6513C32.0339 60.896 32.1261 61.129 32.2739 61.3259C32.4217 61.5229 32.6197 61.6765 32.8471 61.7708C33.0746 61.865 33.3232 61.8965 33.567 61.8619C33.8108 61.8272 34.0408 61.7278 34.233 61.5739L40.0754 56.8989L38.9149 61.5409C38.8505 61.7946 38.861 62.0616 38.9451 62.3095L40.2046 66.088L37.5275 79.475C37.4867 79.6747 37.4914 79.881 37.5413 80.0786L38.49 83.875H34.519L28.1637 49.555C28.524 49.5289 28.8829 49.5 29.25 49.5H30.7694ZM14.125 64.625C14.1311 61.2789 15.2457 58.0291 17.2946 55.3836C19.3435 52.7381 22.2113 50.8461 25.4495 50.0033L31.725 83.875H14.125V64.625ZM74.625 83.875H57.025L63.2978 50.0033C66.5365 50.8456 69.4048 52.7374 71.4543 55.3829C73.5037 58.0284 74.6187 61.2785 74.625 64.625V83.875Z" fill="black"/>
</svg>
