<svg width="48" height="48" viewBox="0 0 48 48" fill="none" xmlns="http://www.w3.org/2000/svg">
<path d="M24 25.7141V6.85693C20.6825 6.85698 17.4364 7.81958 14.6552 9.628C11.874 11.4364 9.67724 14.013 8.3314 17.0451C6.98555 20.0773 6.54841 23.4349 7.07299 26.7106C7.59757 29.9863 9.06133 33.0394 11.2868 35.4996C13.5122 37.9599 16.4036 39.7216 19.6105 40.5711C22.8173 41.4206 26.2017 41.3213 29.3533 40.2854C32.5048 39.2495 35.2881 37.3214 37.3656 34.735C39.443 32.1485 40.7254 29.0149 41.0571 25.7141H24Z" fill="#A6E4FF"/>
<path d="M6.85718 34.2856H11.4292V44.5714H6.85718V34.2856Z" fill="#FF9225"/>
<path d="M11.4291 30.8569H16.0011V44.5712H11.4291V30.8569Z" fill="#FFE100"/>
<path d="M15.9994 27.4287H20.5714V44.5716H15.9994V27.4287Z" fill="#99C754"/>
<path d="M44.4857 22.2584C44.5406 21.703 44.5714 21.1407 44.5714 20.5716C44.5714 18.3203 44.128 16.0911 43.2665 14.0113C42.405 11.9314 41.1423 10.0416 39.5504 8.44974C37.9586 6.85788 36.0687 5.59514 33.9889 4.73363C31.909 3.87212 29.6798 3.42871 27.4286 3.42871V22.1299L44.4857 22.2584Z" fill="#C4F27E"/>
<path d="M21.4286 27.4284C21.4286 27.2011 21.3383 26.9831 21.1775 26.8223C21.0168 26.6616 20.7987 26.5713 20.5714 26.5713H15.9994C15.7721 26.5713 15.5541 26.6616 15.3933 26.8223C15.2326 26.9831 15.1423 27.2011 15.1423 27.4284V29.9999H11.4291C11.2018 29.9999 10.9838 30.0902 10.823 30.2509C10.6623 30.4117 10.572 30.6297 10.572 30.857V33.4284H6.85713C6.6298 33.4284 6.41178 33.5187 6.25103 33.6795C6.09029 33.8402 5.99998 34.0582 5.99998 34.2856V43.7141H4.2857V23.9999H2.57141V44.5713C2.57141 44.7986 2.66172 45.0166 2.82246 45.1774C2.98321 45.3381 3.20123 45.4284 3.42855 45.4284H24V43.7141H21.4286V27.4284ZM7.71427 35.1427H10.572V43.7141H7.71427V35.1427ZM12.2863 34.2856V31.7141H15.1423V43.7141H12.2863V34.2856ZM16.8566 43.7141V28.2856H19.7143V43.7141H16.8566ZM27.4286 2.57129C27.2012 2.57129 26.9832 2.66159 26.8225 2.82234C26.6617 2.98309 26.5714 3.2011 26.5714 3.42843V22.1296C26.5714 22.3569 26.6617 22.5749 26.8225 22.7357C26.9832 22.8964 27.2012 22.9867 27.4286 22.9867L44.4857 23.1153C44.6989 23.1164 44.9049 23.0379 45.0634 22.8953C45.2219 22.7526 45.3215 22.556 45.3428 22.3439C45.4011 21.7593 45.4337 21.1696 45.4337 20.5713C45.4283 15.7982 43.5294 11.2222 40.1538 7.84757C36.7782 4.47294 32.2017 2.57537 27.4286 2.57129ZM43.692 21.3941L28.2857 21.2793V4.30786C32.4491 4.53228 36.3683 6.34301 39.2379 9.36786C42.1075 12.3927 43.7094 16.4019 43.7143 20.5713C43.7143 20.8473 43.7143 21.1216 43.692 21.3941Z" fill="#231F20"/>
<path d="M41.0554 24.8572H24.8571L24.7697 6.85717C24.7695 6.74429 24.7469 6.63257 24.7034 6.52843C24.6598 6.42429 24.5962 6.32977 24.516 6.25031C24.438 6.16861 24.3436 6.10436 24.239 6.06181C24.1344 6.01926 24.022 5.99937 23.9091 6.00345C20.9281 6.018 17.9974 6.77269 15.3801 8.19976C12.7628 9.62682 10.541 11.6816 8.91402 14.1795C7.28708 16.6775 6.30601 19.5404 6.0589 22.5112C5.81179 25.482 6.30639 28.4676 7.49828 31.2L7.84113 31.9852L9.41142 31.2994L9.06856 30.5143C8.01973 28.1087 7.56779 25.4852 7.75124 22.8672C7.93469 20.2493 8.74808 17.7145 10.1222 15.4786C11.4962 13.2428 13.3903 11.3721 15.6431 10.0259C17.8958 8.67965 20.4406 7.8978 23.0606 7.74688L23.1429 25.7143C23.1429 25.9416 23.2332 26.1597 23.3939 26.3204C23.5546 26.4811 23.7727 26.5715 24 26.5715H40.0817C39.483 30.4023 37.5317 33.8919 34.5815 36.4078C31.6312 38.9237 27.8773 40.2995 24 40.2857H23.1429V42H24C28.4665 42.0157 32.778 40.3636 36.0902 37.3671C39.4025 34.3707 41.4769 30.2457 41.9074 25.8C41.9194 25.6805 41.9062 25.5597 41.8685 25.4456C41.8309 25.3315 41.7696 25.2266 41.6888 25.1377C41.608 25.0488 41.5094 24.9779 41.3994 24.9296C41.2894 24.8812 41.1704 24.8566 41.0503 24.8572H41.0554Z" fill="#231F20"/>
<path d="M30.8572 12.8569H36V14.5712H30.8572V12.8569ZM30.8572 16.2855H39.4286V17.9998H30.8572V16.2855Z" fill="#231F20"/>
</svg>
