<svg width="40" height="48" viewBox="0 0 40 48" fill="none" xmlns="http://www.w3.org/2000/svg">
<path d="M5.19781 6.57557V41.4243C5.19781 42.5196 6.08578 43.4076 7.1811 43.4076H32.8189C33.9142 43.4076 34.8022 42.5196 34.8022 41.4243V14.8317L24.5627 4.59229H7.1811C6.08578 4.59229 5.19781 5.48025 5.19781 6.57557Z" fill="#E1EFFB"/>
<path d="M26.9234 6.953V15.4051C26.9234 16.0918 27.4801 16.6483 28.1666 16.6483H31.0902V41.4243C31.0902 42.5196 30.2022 43.4076 29.1069 43.4076H32.8189C33.9142 43.4076 34.8022 42.5196 34.8022 41.4243V14.8318L26.9234 6.953Z" fill="#CCDFED"/>
<path d="M24.5627 4.59229L34.8022 14.8317H25.8059C25.1193 14.8317 24.5627 14.2751 24.5627 13.5885V4.59229Z" fill="#FF4C4C"/>
<path d="M25.7343 7.14392L32.1037 13.5133H26.5077C26.0806 13.5133 25.7343 13.167 25.7343 12.7399V7.14392Z" fill="#F96B6B"/>
<path d="M8.52164 39.151C8.52164 39.3081 8.58404 39.4588 8.69513 39.5699C8.80622 39.6809 8.95688 39.7434 9.11398 39.7434H30.886C31.0431 39.7434 31.1938 39.6809 31.3049 39.5699C31.4159 39.4588 31.4784 39.3081 31.4784 39.151C31.4784 38.9939 31.4159 38.8432 31.3049 38.7322C31.1938 38.6211 31.0431 38.5587 30.886 38.5587H9.11398C9.03619 38.5587 8.95916 38.574 8.88729 38.6037C8.81542 38.6335 8.75011 38.6771 8.69511 38.7321C8.6401 38.7871 8.59647 38.8524 8.56671 38.9243C8.53694 38.9962 8.52163 39.0732 8.52164 39.151ZM21.6586 18.5673H30.886C30.9638 18.5673 31.0408 18.5519 31.1127 18.5222C31.1846 18.4924 31.2499 18.4488 31.3049 18.3938C31.3599 18.3388 31.4035 18.2735 31.4333 18.2016C31.463 18.1297 31.4784 18.0527 31.4784 17.9749C31.4784 17.8971 31.463 17.8201 31.4333 17.7482C31.4035 17.6764 31.3599 17.6111 31.3049 17.5561C31.2499 17.5011 31.1846 17.4574 31.1127 17.4277C31.0408 17.3979 30.9638 17.3826 30.886 17.3826H21.6586C21.5808 17.3826 21.5038 17.3979 21.4319 17.4277C21.36 17.4574 21.2947 17.5011 21.2397 17.5561C21.1847 17.6111 21.1411 17.6764 21.1113 17.7482C21.0816 17.8201 21.0662 17.8971 21.0662 17.9749C21.0662 18.0527 21.0816 18.1297 21.1113 18.2016C21.1411 18.2735 21.1847 18.3388 21.2397 18.3938C21.2947 18.4488 21.36 18.4924 21.4319 18.5222C21.5038 18.5519 21.5808 18.5673 21.6586 18.5673ZM21.6586 25.8629H30.886C31.0431 25.8629 31.1938 25.8005 31.3049 25.6894C31.4159 25.5783 31.4784 25.4276 31.4784 25.2705C31.4784 25.1134 31.4159 24.9628 31.3049 24.8517C31.1938 24.7406 31.0431 24.6782 30.886 24.6782H21.6586C21.5015 24.6782 21.3508 24.7406 21.2397 24.8517C21.1287 24.9628 21.0662 25.1134 21.0662 25.2705C21.0662 25.4276 21.1287 25.5783 21.2397 25.6894C21.3508 25.8005 21.5015 25.8629 21.6586 25.8629ZM21.6586 33.1585H30.886C31.0431 33.1585 31.1938 33.0961 31.3049 32.985C31.4159 32.8739 31.4784 32.7233 31.4784 32.5662C31.4784 32.4091 31.4159 32.2584 31.3049 32.1473C31.1938 32.0362 31.0431 31.9738 30.886 31.9738H21.6586C21.5015 31.9738 21.3508 32.0362 21.2397 32.1473C21.1287 32.2584 21.0662 32.4091 21.0662 32.5662C21.0662 32.7233 21.1287 32.8739 21.2397 32.985C21.3508 33.0961 21.5015 33.1585 21.6586 33.1585Z" fill="black"/>
<path d="M35.3935 14.8118C35.3926 14.7798 35.3892 14.748 35.3831 14.7166L35.383 14.7162C35.3779 14.6911 35.3711 14.6664 35.3627 14.6423C35.3606 14.6362 35.3584 14.6303 35.3562 14.6243C35.3477 14.6011 35.3378 14.5784 35.3264 14.5565L35.3251 14.5537C35.3128 14.5309 35.299 14.509 35.2838 14.4881C35.2802 14.483 35.2765 14.478 35.2727 14.473C35.2568 14.4518 35.2396 14.4317 35.221 14.4129L24.9816 4.17352C24.9628 4.15505 24.9429 4.13787 24.9218 4.12211C24.8963 4.10241 24.8693 4.08483 24.841 4.06953C24.8395 4.06875 24.838 4.0682 24.8365 4.06742C24.8091 4.05329 24.7808 4.0413 24.7516 4.03156C24.7278 4.02334 24.7035 4.01666 24.6789 4.01156L24.6752 4.01102C24.6443 4.00522 24.6131 4.00187 24.5817 4.00102C24.5754 4.0007 24.5691 4 24.5627 4H7.18109C5.76086 4 4.60547 5.15539 4.60547 6.57562V33.3541C4.60547 33.5112 4.66788 33.6619 4.77896 33.773C4.89005 33.8841 5.04071 33.9465 5.19781 33.9465C5.35491 33.9465 5.50558 33.8841 5.61666 33.773C5.72775 33.6619 5.79016 33.5112 5.79016 33.3541V6.57562C5.79016 5.80867 6.41414 5.18469 7.18109 5.18469H23.9703V13.5886C23.9703 14.6008 24.7937 15.4242 25.8059 15.4242H34.2098V18.6904C34.2098 18.8475 34.2723 18.9982 34.3833 19.1092C34.4944 19.2203 34.6451 19.2827 34.8022 19.2827C34.9593 19.2827 35.11 19.2203 35.221 19.1092C35.3321 18.9982 35.3945 18.8475 35.3945 18.6904V14.8318C35.3945 14.8251 35.3937 14.8185 35.3935 14.8118ZM25.8059 14.2395C25.447 14.2395 25.1551 13.9475 25.1551 13.5886V6.02242L33.3721 14.2395H25.8059ZM34.8022 21.8198C34.6451 21.8198 34.4944 21.8822 34.3833 21.9933C34.2723 22.1043 34.2098 22.255 34.2098 22.4121V41.4244C34.2098 42.1913 33.5859 42.8153 32.8189 42.8153H7.18109C6.41414 42.8153 5.79016 42.1913 5.79016 41.4244V37.1551C5.79016 36.998 5.72775 36.8473 5.61666 36.7362C5.50558 36.6251 5.35491 36.5627 5.19781 36.5627C5.04071 36.5627 4.89005 36.6251 4.77896 36.7362C4.66788 36.8473 4.60547 36.998 4.60547 37.1551V41.4244C4.60547 42.8446 5.76086 44 7.18109 44H32.8188C34.2391 44 35.3945 42.8446 35.3945 41.4244V22.4121C35.3945 22.3343 35.3792 22.2573 35.3494 22.1854C35.3197 22.1136 35.276 22.0482 35.221 21.9932C35.166 21.9382 35.1007 21.8946 35.0289 21.8648C34.957 21.8351 34.88 21.8198 34.8022 21.8198Z" fill="black"/>
<path d="M18.9477 28.9894C18.9477 25.68 16.6957 24.5516 14.5703 23.7566V18.6378C16.1926 18.7999 16.8192 19.5475 17.399 19.5475C18.1484 19.5475 18.498 18.5983 18.498 18.1237C18.498 16.9397 16.2544 16.4103 14.5703 16.3317V15.9022C14.5703 15.4461 14.2005 15.0763 13.7445 15.0763C13.7298 15.0763 13.7155 15.0777 13.701 15.0785C13.6848 15.0775 13.6685 15.0763 13.6522 15.0763C13.2275 15.0763 12.9277 15.3511 12.9277 15.6508V15.7855C12.9219 15.8241 12.9188 15.8631 12.9185 15.9022V16.3762C10.5486 16.6283 8.1818 17.8779 8.1818 21.0212C8.1818 24.2142 10.6729 25.1153 12.9185 25.9138V31.7861C10.3784 31.5828 9.70445 29.8387 8.88117 29.8387C8.25664 29.8387 7.73211 30.663 7.73211 31.2625C7.73211 32.4852 9.82617 34.1566 12.9184 34.2097V34.7329C12.9184 34.7726 12.9222 34.8114 12.9277 34.8496V34.9843C12.9277 35.284 13.2274 35.5588 13.6521 35.5588C13.6684 35.5588 13.6847 35.5576 13.7009 35.5566C13.7154 35.5574 13.7298 35.5588 13.7444 35.5588C14.2005 35.5588 14.5702 35.189 14.5702 34.7329V34.1087C17.1758 33.6874 18.9477 31.9971 18.9477 28.9894ZM10.6797 20.7715C10.6797 19.5224 11.6037 18.8972 12.9185 18.6957V23.1586C11.6689 22.6758 10.6797 22.1376 10.6797 20.7715ZM14.5703 31.6648V26.6106C15.6404 27.1219 16.4498 27.8298 16.4498 29.2642C16.4498 30.5722 15.7327 31.3528 14.5703 31.6648Z" fill="#F4D451"/>
<path d="M13.7445 36.1448C13.7295 36.1448 13.7146 36.1443 13.6999 36.1436C13.6835 36.1444 13.6679 36.1448 13.6523 36.1448C12.9175 36.1448 12.342 35.6351 12.342 34.9843V34.8868C12.3373 34.8471 12.3344 34.8073 12.3332 34.7675C11.034 34.6625 9.81485 34.2802 8.85203 33.6695C7.78399 32.992 7.14641 32.0922 7.14641 31.2625C7.14641 30.3522 7.92024 29.2528 8.88133 29.2528C9.40492 29.2528 9.80485 29.5929 10.2283 29.9532C10.727 30.3774 11.3277 30.8884 12.3327 31.1092V26.3268C10.128 25.532 7.59602 24.4397 7.59602 21.0213C7.59602 19.3929 8.16508 18.095 9.28742 17.1637C10.0724 16.5122 11.1177 16.0679 12.3333 15.8649C12.3345 15.8275 12.3373 15.7889 12.3419 15.7484V15.6508C12.3419 15.0001 12.9174 14.4904 13.6522 14.4904C13.6682 14.4904 13.6842 14.4908 13.7002 14.4916C13.7155 14.4908 13.7299 14.4904 13.7444 14.4904C14.4838 14.4904 15.0923 15.0618 15.1515 15.7862C15.9716 15.8659 16.759 16.0342 17.372 16.2647C18.787 16.797 19.084 17.5694 19.084 18.1236C19.084 18.945 18.4839 20.1333 17.399 20.1333C17.0284 20.1333 16.702 19.97 16.3565 19.7972C16.0399 19.6389 15.6673 19.4524 15.1563 19.329V23.3536C16.1507 23.7448 17.1529 24.2312 17.9617 25.0073C19.0195 26.0223 19.5336 27.3248 19.5336 28.9894C19.5336 31.9404 17.9461 33.958 15.1563 34.5918V34.7329C15.1563 35.5115 14.523 36.1448 13.7445 36.1448ZM13.5138 34.9398C13.5357 34.9541 13.5807 34.9729 13.6522 34.9729L13.659 34.9722C13.6816 34.9707 13.7092 34.9704 13.732 34.9715L13.7521 34.9728C13.8144 34.9707 13.8734 34.9446 13.9167 34.8998C13.9601 34.8551 13.9843 34.7953 13.9845 34.733V34.1088C13.9845 33.9696 14.034 33.835 14.1242 33.729C14.2145 33.623 14.3395 33.5526 14.4769 33.5304C16.9821 33.1252 18.3619 31.5125 18.3619 28.9894C18.3619 26.0467 16.3875 25.0618 14.3652 24.3054C14.2534 24.2635 14.157 24.1886 14.089 24.0905C14.021 23.9925 13.9845 23.876 13.9845 23.7566V18.6378C13.9845 18.5559 14.0016 18.4749 14.0348 18.4001C14.068 18.3253 14.1165 18.2582 14.1772 18.2033C14.2379 18.1483 14.3095 18.1067 14.3873 18.0811C14.465 18.0556 14.5473 18.0466 14.6288 18.0547C15.7084 18.1626 16.3862 18.5017 16.8809 18.7493C17.0895 18.8536 17.3052 18.9615 17.3991 18.9615C17.6905 18.9615 17.9123 18.4032 17.9123 18.1237C17.9123 17.5647 16.338 17.0007 14.5431 16.917C14.3926 16.91 14.2506 16.8452 14.1466 16.7362C14.0426 16.6272 13.9845 16.4824 13.9845 16.3317V15.9022C13.9845 15.8399 13.9602 15.78 13.9169 15.7353C13.8736 15.6905 13.8145 15.6644 13.7523 15.6623L13.7321 15.6636C13.7095 15.6648 13.6868 15.6647 13.6642 15.6633L13.6455 15.6622C13.5792 15.6622 13.5355 15.6811 13.5138 15.6954V15.7855C13.5139 15.813 13.5119 15.8405 13.508 15.8677C13.5049 15.8896 13.5046 15.8991 13.5046 15.9022V16.3762C13.5046 16.5209 13.4511 16.6604 13.3543 16.768C13.2576 16.8756 13.1245 16.9436 12.9806 16.9589C11.4073 17.1262 8.76789 17.8765 8.76789 21.0212C8.76789 22.2762 9.18313 23.1936 10.0747 23.9082C10.9097 24.5775 12.0813 24.9942 13.115 25.3617C13.229 25.4022 13.3276 25.477 13.3974 25.5759C13.4671 25.6747 13.5046 25.7927 13.5046 25.9137V31.7861C13.5046 31.8669 13.4878 31.947 13.4554 32.021C13.4229 32.0951 13.3755 32.1617 13.3161 32.2166C13.2566 32.2714 13.1865 32.3134 13.11 32.3398C13.0336 32.3663 12.9525 32.3766 12.8719 32.3701C11.0938 32.2278 10.1161 31.3961 9.46899 30.8457C9.27281 30.6788 8.97633 30.4267 8.88133 30.4246C8.67242 30.4246 8.31828 30.9008 8.31828 31.2625C8.31828 32.067 10.0687 33.5747 12.9288 33.6238C13.0824 33.6264 13.2288 33.6893 13.3365 33.7989C13.4443 33.9085 13.5046 34.056 13.5046 34.2097V34.7329C13.5046 34.7361 13.5049 34.7455 13.508 34.7674C13.512 34.7947 13.5138 34.8221 13.5138 34.8496V34.9398H13.5138ZM14.5703 32.2508C14.4934 32.2508 14.4172 32.2357 14.3461 32.2062C14.275 32.1768 14.2104 32.1336 14.156 32.0792C14.1016 32.0248 14.0584 31.9602 14.029 31.8891C13.9995 31.818 13.9844 31.7418 13.9844 31.6649V26.6107C13.9843 26.5117 14.0094 26.4143 14.0572 26.3276C14.105 26.2409 14.174 26.1677 14.2577 26.1149C14.3415 26.0621 14.4372 26.0314 14.5361 26.0257C14.6349 26.0199 14.7336 26.0393 14.8229 26.082C16.8063 27.0297 17.0357 28.352 17.0357 29.2642C17.0357 30.7767 16.2141 31.8303 14.7222 32.2307C14.6727 32.2441 14.6216 32.2509 14.5703 32.2508ZM15.1563 27.6558V30.7739C15.6312 30.4466 15.8639 29.9473 15.8639 29.2643C15.8639 28.5724 15.6553 28.0738 15.1563 27.6558ZM12.9184 23.7445C12.8463 23.7445 12.7747 23.7312 12.7074 23.7051C11.4428 23.2168 10.0938 22.5469 10.0938 20.7714C10.0938 19.9365 10.4492 18.4815 12.8298 18.1165C12.9132 18.1037 12.9985 18.1091 13.0797 18.1323C13.1609 18.1555 13.2361 18.196 13.3002 18.251C13.3643 18.3061 13.4157 18.3743 13.451 18.451C13.4862 18.5278 13.5045 18.6112 13.5045 18.6957V23.1586C13.5045 23.2355 13.4893 23.3117 13.4598 23.3828C13.4304 23.4539 13.3872 23.5185 13.3328 23.5729C13.2784 23.6273 13.2138 23.6705 13.1427 23.6999C13.0716 23.7294 12.9954 23.7445 12.9184 23.7445ZM12.3326 19.4361C11.2655 19.8068 11.2656 20.5132 11.2656 20.7715C11.2656 21.4954 11.6123 21.9 12.3326 22.2665V19.4361Z" fill="black"/>
</svg>
