<svg width="48" height="48" viewBox="0 0 48 48" fill="none" xmlns="http://www.w3.org/2000/svg">
<g clip-path="url(#clip0_1422_16220)">
<mask id="mask0_1422_16220" style="mask-type:luminance" maskUnits="userSpaceOnUse" x="0" y="0" width="48" height="48">
<path d="M48 0H0V48H48V0Z" fill="white"/>
</mask>
<g mask="url(#mask0_1422_16220)">
<path d="M45.1875 8.4375C46.2234 8.4375 47.0625 9.27656 47.0625 10.3125C47.0625 11.3484 46.2234 12.1875 45.1875 12.1875C44.1516 12.1875 43.3125 11.3475 43.3125 10.3125C43.3125 9.2775 44.1516 8.4375 45.1875 8.4375Z" fill="#FF7D95"/>
<path d="M24 5.25V12.75C30.2137 12.75 35.25 17.7872 35.25 24C35.25 27.1069 33.9909 29.9194 31.9547 31.9547L37.2581 37.2581C40.6519 33.8653 42.75 29.1778 42.75 24C42.75 13.6875 34.3969 5.25 24 5.25Z" fill="#FF7D95"/>
<path d="M31.9546 31.9546L37.2581 37.258C33.8653 40.6518 29.1778 42.7499 23.9999 42.7499C18.8221 42.7499 14.1346 40.6518 10.7418 37.258L16.0453 31.9546C18.0806 33.9908 20.8931 35.2499 23.9999 35.2499C27.1068 35.2499 29.9193 33.9908 31.9546 31.9546Z" fill="#A0E5A5"/>
<path d="M29.625 27.75C29.625 28.7859 28.7859 29.625 27.75 29.625C26.7141 29.625 25.875 28.7859 25.875 27.75C25.875 26.7141 26.715 25.875 27.75 25.875C28.785 25.875 29.625 26.715 29.625 27.75Z" fill="#FF7D95"/>
<path d="M24 5.25V12.75C17.7872 12.75 12.75 17.7872 12.75 24H5.25C5.25 13.6444 13.6444 5.25 24 5.25Z" fill="#A0E5A5"/>
<path d="M20.25 18.375C21.2859 18.375 22.125 19.2141 22.125 20.25C22.125 21.2859 21.285 22.125 20.25 22.125C19.215 22.125 18.375 21.285 18.375 20.25C18.375 19.215 19.2141 18.375 20.25 18.375Z" fill="#FF7D95"/>
<path d="M12.75 24H5.25C5.25 29.1656 7.34063 33.8569 10.7419 37.2581L16.0453 31.9547C13.9875 29.8969 12.75 27.0778 12.75 24Z" fill="#FFDA8F"/>
<path d="M4.6875 37.6875C4.6875 38.7234 3.84844 39.5625 2.8125 39.5625C1.77656 39.5625 0.9375 38.7234 0.9375 37.6875C0.9375 36.6516 1.77656 35.8125 2.8125 35.8125C3.84844 35.8125 4.6875 36.6525 4.6875 37.6875Z" fill="#FF7D95"/>
<path d="M34.7681 20.7319C35.0813 21.7659 35.25 22.8638 35.25 24C35.25 27.1069 33.9909 29.9194 31.9547 31.9547C29.9194 33.9909 27.1069 35.25 24 35.25C20.8931 35.25 18.0806 33.9909 16.0453 31.9547C14.7544 30.6638 13.7756 29.0606 13.2319 27.2681C12.9113 26.2087 12.7491 25.1072 12.75 24C12.75 17.7872 17.7872 12.75 24 12.75C29.0766 12.75 33.3675 16.1128 34.7681 20.7319Z" stroke="black" stroke-width="1.875" stroke-linecap="round" stroke-linejoin="round"/>
<path d="M18.9244 21.5756C18.5719 21.2241 18.3741 20.7478 18.375 20.25C18.375 19.2141 19.2141 18.375 20.25 18.375C21.2859 18.375 22.125 19.2141 22.125 20.25C22.125 20.7675 21.915 21.2362 21.5756 21.5756C21.2241 21.9281 20.7478 22.1259 20.25 22.125C19.7325 22.125 19.2638 21.915 18.9244 21.5756Z" stroke="black" stroke-width="1.875" stroke-linecap="round" stroke-linejoin="round"/>
<path d="M29.0756 26.4244C29.415 26.7637 29.625 27.2325 29.625 27.75C29.625 28.7859 28.7859 29.625 27.75 29.625C26.7141 29.625 25.875 28.7859 25.875 27.75C25.875 27.2325 26.085 26.7637 26.4244 26.4244C26.7637 26.085 27.2325 25.875 27.75 25.875C28.2675 25.875 28.7363 26.085 29.0756 26.4244Z" stroke="black" stroke-width="1.875" stroke-linecap="round" stroke-linejoin="round"/>
<path d="M47.0625 10.3125C47.0625 11.3484 46.2234 12.1875 45.1875 12.1875C44.67 12.1875 44.2013 11.9775 43.8619 11.6381C43.5094 11.2866 43.3116 10.8103 43.3125 10.3125C43.3125 9.27656 44.1516 8.4375 45.1875 8.4375C46.2234 8.4375 47.0625 9.27656 47.0625 10.3125Z" stroke="black" stroke-width="1.875" stroke-linecap="round" stroke-linejoin="round"/>
<path d="M4.6875 37.6875C4.6875 38.7234 3.84844 39.5625 2.8125 39.5625C1.77656 39.5625 0.9375 38.7234 0.9375 37.6875C0.9375 36.6516 1.77656 35.8125 2.8125 35.8125C3.33 35.8125 3.79875 36.0225 4.13812 36.3619C4.4775 36.7012 4.6875 37.17 4.6875 37.6875Z" stroke="black" stroke-width="1.875" stroke-linecap="round" stroke-linejoin="round"/>
<path d="M4.13818 36.3619L7.531 32.9691L13.2319 27.2682L18.9244 21.5757" stroke="black" stroke-width="1.875" stroke-linecap="round" stroke-linejoin="round"/>
<path d="M21.5757 21.5757L26.4244 26.4244" stroke="black" stroke-width="1.875" stroke-linecap="round" stroke-linejoin="round"/>
<path d="M29.0757 26.4244L34.7682 20.7319L40.4691 15.031L43.8619 11.6382" stroke="black" stroke-width="1.875" stroke-linecap="round" stroke-linejoin="round"/>
<path d="M24 5.25V12.75" stroke="black" stroke-width="1.875" stroke-linecap="round" stroke-linejoin="round"/>
<path d="M12.75 24H5.25" stroke="black" stroke-width="1.875" stroke-linecap="round" stroke-linejoin="round"/>
<path d="M10.7418 37.258L16.0453 31.9546" stroke="black" stroke-width="1.875" stroke-linecap="round" stroke-linejoin="round"/>
<path d="M37.2582 37.258L31.9547 31.9546" stroke="black" stroke-width="1.875" stroke-linecap="round" stroke-linejoin="round"/>
<path d="M11.625 10.6875C11.625 11.205 11.205 11.625 10.6875 11.625C10.17 11.625 9.75 11.205 9.75 10.6875C9.75 10.17 10.17 9.75 10.6875 9.75C11.205 9.75 11.625 10.17 11.625 10.6875Z" fill="black"/>
<path d="M14.0306 8.11688C16.9181 6.3 20.3362 5.25 24 5.25C31.1063 5.25 37.2891 9.20344 40.4691 15.0309C41.9241 17.6953 42.75 20.7506 42.75 24C42.75 29.1778 40.6519 33.8653 37.2581 37.2581C33.8653 40.6519 29.1778 42.75 24 42.75C18.8222 42.75 14.1347 40.6519 10.7419 37.2581C9.4725 35.9888 8.39063 34.545 7.53094 32.9691C6.07594 30.3047 5.25 27.2494 5.25 24C5.25 20.3362 6.30094 16.9181 8.11688 14.0306" stroke="black" stroke-width="1.875" stroke-linecap="round" stroke-linejoin="round"/>
</g>
</g>
<defs>
<clipPath id="clip0_1422_16220">
<rect width="48" height="48" fill="white"/>
</clipPath>
</defs>
</svg>
