<svg width="48" height="48" viewBox="0 0 48 48" fill="none" xmlns="http://www.w3.org/2000/svg">
<path d="M19.5 29.25C26.9558 29.25 33 23.2058 33 15.75C33 8.29416 26.9558 2.25 19.5 2.25C12.0442 2.25 6 8.29416 6 15.75C6 23.2058 12.0442 29.25 19.5 29.25Z" fill="#EB423F"/>
<path d="M19.5 25.5C17.5716 25.5 15.6866 24.9282 14.0832 23.8568C12.4798 22.7855 11.2301 21.2627 10.4922 19.4812C9.75422 17.6996 9.56114 15.7392 9.93735 13.8479C10.3136 11.9566 11.2422 10.2193 12.6057 8.85571C13.9693 7.49215 15.7066 6.56355 17.5979 6.18735C19.4892 5.81114 21.4496 6.00422 23.2312 6.74218C25.0127 7.48013 26.5355 8.72982 27.6068 10.3332C28.6782 11.9366 29.25 13.8216 29.25 15.75C29.2471 18.335 28.2189 20.8132 26.3911 22.6411C24.5632 24.4689 22.085 25.4971 19.5 25.5Z" fill="#D0D2D4"/>
<path d="M19.5 21C22.3995 21 24.75 18.6495 24.75 15.75C24.75 12.8505 22.3995 10.5 19.5 10.5C16.6005 10.5 14.25 12.8505 14.25 15.75C14.25 18.6495 16.6005 21 19.5 21Z" fill="#EB423F"/>
<path d="M15 21.75H34.5V45.75H15V21.75Z" fill="#E9EEF2"/>
<path d="M18 36.75H29.25V42.75H18V36.75Z" fill="#D0D2D4"/>
<path d="M9.75 24L2.25 26.25V33L5.25 29.25L9.75 24ZM2.25 33H9L11.25 25.5L2.25 33Z" fill="#FFB632"/>
<path d="M17.25 18V20.25L12 25.5L2.25 33L9.75 23.25L15 18H17.25Z" fill="#FFD33A"/>
<path d="M26.25 42H45.75V45.75H26.25V42Z" fill="#7E8589"/>
<path d="M27.75 39H44.25V42H27.75V39Z" fill="#6A7073"/>
<path d="M42.75 39C42.75 39 39.75 36.1875 39.75 28.5V21H32.25V28.5C32.25 36 29.25 39 29.25 39H42.75Z" fill="#7E8589"/>
<path d="M30 18H42V21H30V18Z" fill="#6A7073"/>
<path d="M43.5 12.75V18H28.5V12.75H31.5V15H34.5V12.75H37.5V15H40.5V12.75H43.5Z" fill="#7E8589"/>
<path d="M46.5 41.25H45.75V39C45.75 38.8011 45.671 38.6103 45.5303 38.4697C45.3897 38.329 45.1989 38.25 45 38.25H43.8301C43.2135 37.5094 41.25 34.6671 41.25 28.5V21.75H42.75C42.9489 21.75 43.1397 21.671 43.2803 21.5303C43.421 21.3897 43.5 21.1989 43.5 21V18.75H44.25C44.4489 18.75 44.6397 18.671 44.7803 18.5303C44.921 18.3897 45 18.1989 45 18V12.75C45 12.5511 44.921 12.3603 44.7803 12.2197C44.6397 12.079 44.4489 12 44.25 12H41.25C41.0511 12 40.8603 12.079 40.7197 12.2197C40.579 12.3603 40.5 12.5511 40.5 12.75V14.25H39V12.75C39 12.5511 38.921 12.3603 38.7803 12.2197C38.6397 12.079 38.4489 12 38.25 12H35.25C35.0511 12 34.8603 12.079 34.7197 12.2197C34.579 12.3603 34.5 12.5511 34.5 12.75V14.25H33.6719C33.3018 10.7496 31.649 7.51009 29.0323 5.15587C26.4155 2.80165 23.0199 1.49936 19.5 1.5C11.6425 1.5 5.25 7.89253 5.25 15.75C5.25284 18.7305 6.18747 21.6356 7.92309 24.0586L2.06812 25.5224C1.90585 25.563 1.7618 25.6566 1.65886 25.7884C1.55592 25.9203 1.5 26.0827 1.5 26.25V33H1.50056C1.50043 33.0985 1.51971 33.196 1.55732 33.287C1.59493 33.3781 1.65012 33.4608 1.71973 33.5304C1.78934 33.6001 1.87201 33.6553 1.963 33.693C2.05399 33.7307 2.15152 33.7501 2.25 33.75H9C9.16726 33.75 9.32972 33.6941 9.46156 33.5911C9.59339 33.4882 9.68703 33.3441 9.72759 33.1819L11.1913 27.3269C12.1382 28.0085 13.1655 28.5708 14.25 29.0009V45.75C14.25 45.9489 14.329 46.1397 14.4697 46.2803C14.6103 46.421 14.8011 46.5 15 46.5H46.5C46.6989 46.5 46.8897 46.421 47.0303 46.2803C47.171 46.1397 47.25 45.9489 47.25 45.75V42C47.25 41.8011 47.171 41.6103 47.0303 41.4697C46.8897 41.329 46.6989 41.25 46.5 41.25ZM44.25 41.25H29.25V39.75H44.25V41.25ZM42.0029 38.25H31.471C32.4224 36.672 33.75 33.5625 33.75 28.5V21.75H39.75V28.5C39.75 33.6249 41.0496 36.6906 42.0029 38.25ZM11.5041 24.9353L6.35025 28.8997L10.3148 23.7459L15.3106 18.75H16.5V19.9393L11.5041 24.9353ZM17.829 20.7266C17.9395 20.5924 18 20.4239 18 20.25V18.3107L19.1131 17.1976C19.4337 17.2844 19.7739 17.2629 20.081 17.1365C20.3881 17.01 20.6448 16.7856 20.8113 16.4982C20.9777 16.2108 21.0446 15.8765 21.0015 15.5472C20.9584 15.2179 20.8077 14.912 20.5728 14.6772C20.338 14.4423 20.0321 14.2916 19.7028 14.2485C19.3735 14.2054 19.0392 14.2723 18.7518 14.4387C18.4644 14.6052 18.24 14.8619 18.1135 15.169C17.9871 15.4761 17.9656 15.8163 18.0524 16.1369L16.9393 17.25H15C14.8261 17.25 14.6576 17.3105 14.5234 17.421C14.1463 16.2986 14.1597 15.0818 14.5612 13.968C14.9627 12.8541 15.7288 11.9087 16.7353 11.2851C17.7417 10.6614 18.9294 10.3962 20.1055 10.5324C21.2816 10.6687 22.3772 11.1984 23.2144 12.0356C24.0516 12.8728 24.5813 13.9684 24.7176 15.1445C24.8538 16.3206 24.5886 17.5083 23.9649 18.5147C23.3413 19.5212 22.3959 20.2873 21.282 20.6888C20.1682 21.0903 18.9514 21.1037 17.829 20.7266ZM26.25 15.75C26.2498 14.741 26.0235 13.7449 25.5876 12.835C25.1517 11.925 24.5173 11.1244 23.7312 10.4919C22.945 9.85944 22.0271 9.41126 21.0449 9.18033C20.0627 8.9494 19.0413 8.94159 18.0557 9.15749C17.0701 9.37338 16.1454 9.80749 15.3497 10.4279C14.554 11.0482 13.9075 11.8391 13.4577 12.7423C13.008 13.6455 12.7664 14.638 12.7508 15.6469C12.7352 16.6557 12.946 17.6552 13.3676 18.5719L11.6994 20.2401C10.8929 18.8385 10.4788 17.2454 10.5008 15.6285C10.5228 14.0115 10.9801 12.4304 11.8246 11.0512C12.669 9.67214 13.8694 8.54602 15.2996 7.79131C16.7298 7.03659 18.3369 6.68116 19.952 6.76238C21.5671 6.8436 23.1304 7.35847 24.4777 8.25286C25.825 9.14726 26.9064 10.3881 27.6082 11.845C28.31 13.3019 28.6064 14.9209 28.466 16.5319C28.3257 18.143 27.7539 19.6864 26.8108 21H23.7358C24.5206 20.3685 25.1539 19.569 25.589 18.6605C26.0241 17.7519 26.25 16.7574 26.25 15.75ZM29.5687 18.75H30V21H28.5948C29.0076 20.2913 29.3346 19.536 29.5687 18.75ZM42 20.25H31.5V18.75H42V20.25ZM35.25 15.75C35.4489 15.75 35.6397 15.671 35.7803 15.5303C35.921 15.3897 36 15.1989 36 15V13.5H37.5V15C37.5 15.1989 37.579 15.3897 37.7197 15.5303C37.8603 15.671 38.0511 15.75 38.25 15.75H41.25C41.4489 15.75 41.6397 15.671 41.7803 15.5303C41.921 15.3897 42 15.1989 42 15V13.5H43.5V17.25H30V13.5H31.5V15C31.5 15.1989 31.579 15.3897 31.7197 15.5303C31.8603 15.671 32.0511 15.75 32.25 15.75H35.25ZM19.5 3C22.2272 2.99985 24.8827 3.87379 27.0767 5.49356C29.2708 7.11334 30.888 9.39369 31.691 12H29.3072C28.784 10.6313 27.9801 9.38716 26.9473 8.34776C25.9144 7.30835 24.6754 6.49664 23.31 5.96483C21.9445 5.43303 20.4829 5.19291 19.0191 5.25991C17.5553 5.32692 16.1218 5.69956 14.8106 6.35389C13.4995 7.00821 12.3399 7.92971 11.4063 9.05913C10.4727 10.1886 9.7858 11.5009 9.38985 12.9117C8.9939 14.3225 8.89763 15.8006 9.10723 17.2509C9.31683 18.7011 9.82767 20.0915 10.6069 21.3324L9.21937 22.7199C9.19645 22.7429 9.17503 22.7673 9.15525 22.7931L9.00422 22.9894C7.53831 20.8596 6.75235 18.3355 6.75 15.75C6.75 8.71959 12.4697 3 19.5 3ZM6.77081 25.8929L3 30.7949V26.8356L6.77081 25.8929ZM8.41444 32.25H4.45509L9.35719 28.4792L8.41444 32.25ZM12.2617 26.2449L12.4573 26.0945C12.483 26.0747 12.5074 26.0532 12.5303 26.0303L14.25 24.3107V27.3715C13.5547 27.0565 12.8892 26.6795 12.2617 26.2449ZM15.75 45V22.8107L16.0607 22.5H32.25V28.5C32.25 32.1866 31.4912 34.7043 30.8546 36.1671C30.5442 36.9091 30.1413 37.609 29.6555 38.25H29.25V36.75C29.25 36.5511 29.171 36.3603 29.0303 36.2197C28.8897 36.079 28.6989 36 28.5 36H18.75C18.5511 36 18.3603 36.079 18.2197 36.2197C18.079 36.3603 18 36.5511 18 36.75V42.75C18 42.9489 18.079 43.1397 18.2197 43.2803C18.3603 43.421 18.5511 43.5 18.75 43.5H26.25V45H15.75ZM26.25 42H19.5V37.5H27.75V41.25H27C26.8011 41.25 26.6103 41.329 26.4697 41.4697C26.329 41.6103 26.25 41.8011 26.25 42ZM45.75 45H27.75V42.75H45.75V45Z" fill="black"/>
<path d="M18.75 25.5H29.25C29.4489 25.5 29.6397 25.421 29.7803 25.2803C29.921 25.1397 30 24.9489 30 24.75C30 24.5511 29.921 24.3603 29.7803 24.2197C29.6397 24.079 29.4489 24 29.25 24H18.75C18.5511 24 18.3603 24.079 18.2197 24.2197C18.079 24.3603 18 24.5511 18 24.75C18 24.9489 18.079 25.1397 18.2197 25.2803C18.3603 25.421 18.5511 25.5 18.75 25.5ZM18.75 28.5H29.25C29.4489 28.5 29.6397 28.421 29.7803 28.2803C29.921 28.1397 30 27.9489 30 27.75C30 27.5511 29.921 27.3603 29.7803 27.2197C29.6397 27.079 29.4489 27 29.25 27H18.75C18.5511 27 18.3603 27.079 18.2197 27.2197C18.079 27.3603 18 27.5511 18 27.75C18 27.9489 18.079 28.1397 18.2197 28.2803C18.3603 28.421 18.5511 28.5 18.75 28.5ZM18.75 31.5H29.25C29.4489 31.5 29.6397 31.421 29.7803 31.2803C29.921 31.1397 30 30.9489 30 30.75C30 30.5511 29.921 30.3603 29.7803 30.2197C29.6397 30.079 29.4489 30 29.25 30H18.75C18.5511 30 18.3603 30.079 18.2197 30.2197C18.079 30.3603 18 30.5511 18 30.75C18 30.9489 18.079 31.1397 18.2197 31.2803C18.3603 31.421 18.5511 31.5 18.75 31.5ZM18.75 34.5H29.25C29.4489 34.5 29.6397 34.421 29.7803 34.2803C29.921 34.1397 30 33.9489 30 33.75C30 33.5511 29.921 33.3603 29.7803 33.2197C29.6397 33.079 29.4489 33 29.25 33H18.75C18.5511 33 18.3603 33.079 18.2197 33.2197C18.079 33.3603 18 33.5511 18 33.75C18 33.9489 18.079 34.1397 18.2197 34.2803C18.3603 34.421 18.5511 34.5 18.75 34.5Z" fill="black"/>
</svg>
