<svg width="48" height="48" viewBox="0 0 48 48" fill="none" xmlns="http://www.w3.org/2000/svg">
<g clip-path="url(#clip0_1422_14643)">
<path d="M24 42C33.9411 42 42 33.9411 42 24C42 14.0589 33.9411 6 24 6C14.0589 6 6 14.0589 6 24C6 33.9411 14.0589 42 24 42Z" fill="#BCE4F8"/>
<path d="M28.5 20.25H31.5V24.75H28.5V20.25Z" fill="#559B38"/>
<path d="M28.5 20.25V24H29.25C29.6478 24 30.0294 23.842 30.3107 23.5607C30.592 23.2794 30.75 22.8978 30.75 22.5V20.25H28.5Z" fill="#6BC148"/>
<path d="M34.5 21.75H37.602V26.25H34.5V21.75Z" fill="#AA2B24"/>
<path d="M34.5 21.75V25.5H35.25C35.6478 25.5 36.0294 25.342 36.3107 25.0607C36.592 24.7794 36.75 24.3978 36.75 24V21.75H34.5Z" fill="#D24034"/>
<path d="M22.5 26.25H25.5V30.75H22.5V26.25Z" fill="#AA2B24"/>
<path d="M22.5 26.25V30H23.25C23.6478 30 24.0294 29.842 24.3107 29.5607C24.592 29.2794 24.75 28.8978 24.75 28.5V26.25H22.5Z" fill="#D24034"/>
<path d="M16.5 23.25H19.5V27.75H16.5V23.25Z" fill="#AA2B24"/>
<path d="M16.5 23.25V27H17.25C17.6478 27 18.0294 26.842 18.3107 26.5607C18.592 26.2794 18.75 25.8978 18.75 25.5V23.25H16.5Z" fill="#D24034"/>
<path d="M10.5 21.75H13.5V26.25H10.5V21.75Z" fill="#559B38"/>
<path d="M10.5 21.75V25.5H11.25C11.6478 25.5 12.0294 25.342 12.3107 25.0607C12.592 24.7794 12.75 24.3978 12.75 24V21.75H10.5Z" fill="#6BC148"/>
<path d="M43.1588 10.8247L41.925 11.6752C44.9159 16.0275 46.2211 21.3193 45.5972 26.5632C44.9732 31.8071 42.4627 36.6449 38.5341 40.1739C34.6055 43.7029 29.5272 45.682 24.2466 45.742C18.966 45.802 13.844 43.9388 9.83625 40.4999H12V38.9999H8.25C8.05109 38.9999 7.86032 39.0789 7.71967 39.2196C7.57902 39.3602 7.5 39.551 7.5 39.7499V43.4999H9V41.7569C13.3014 45.3863 18.7732 47.3323 24.4004 47.2338C30.0275 47.1353 35.4279 44.9991 39.5997 41.2214C43.7714 37.4437 46.4313 32.281 47.0858 26.6912C47.7403 21.1014 46.345 15.4639 43.1588 10.8247ZM24 2.24992C29.5806 2.2597 34.9454 4.40681 38.9918 8.24992H36.75V9.74992H40.5C40.6989 9.74992 40.8897 9.6709 41.0303 9.53025C41.171 9.3896 41.25 9.19883 41.25 8.99992V5.24992H39.75V6.90892C36.4295 3.84559 32.2881 1.81645 27.8326 1.0697C23.377 0.322957 18.8003 0.890991 14.6625 2.70432C10.5247 4.51764 7.00505 7.49764 4.53416 11.2798C2.06328 15.0619 0.748271 19.4822 0.750002 23.9999C0.735641 29.0328 2.36876 33.9322 5.4 37.9499L6.6 37.0499C4.17646 33.8185 2.70063 29.9761 2.33789 25.9532C1.97514 21.9303 2.73981 17.8858 4.54621 14.273C6.35261 10.6602 9.12937 7.62182 12.5654 5.49826C16.0013 3.37471 19.9608 2.24992 24 2.24992Z" fill="black"/>
<path d="M24 5.25C20.2916 5.25 16.6665 6.34967 13.5831 8.40994C10.4996 10.4702 8.0964 13.3986 6.67726 16.8247C5.25812 20.2508 4.8868 24.0208 5.61028 27.6579C6.33375 31.2951 8.11951 34.636 10.7417 37.2583C13.364 39.8805 16.7049 41.6662 20.3421 42.3897C23.9792 43.1132 27.7492 42.7419 31.1753 41.3227C34.6014 39.9036 37.5298 37.5004 39.5901 34.4169C41.6503 31.3335 42.75 27.7084 42.75 24C42.7444 19.0289 40.7672 14.263 37.2521 10.7479C33.737 7.23278 28.9711 5.25556 24 5.25ZM24 41.25C20.5883 41.25 17.2532 40.2383 14.4164 38.3428C11.5797 36.4474 9.36869 33.7533 8.06308 30.6013C6.75747 27.4493 6.41586 23.9809 7.08145 20.6347C7.74705 17.2885 9.38995 14.2149 11.8024 11.8024C14.2149 9.38995 17.2885 7.74705 20.6347 7.08145C23.9809 6.41586 27.4493 6.75747 30.6013 8.06308C33.7533 9.36869 36.4474 11.5797 38.3429 14.4164C40.2383 17.2532 41.25 20.5883 41.25 24C41.2448 28.5734 39.4258 32.958 36.1919 36.1919C32.958 39.4258 28.5734 41.2448 24 41.25Z" fill="black"/>
<path d="M19.5 22.5H18.75V19.5H17.25V22.5H16.5C16.3011 22.5 16.1103 22.579 15.9697 22.7197C15.829 22.8603 15.75 23.0511 15.75 23.25V27.75C15.75 27.9489 15.829 28.1397 15.9697 28.2803C16.1103 28.421 16.3011 28.5 16.5 28.5H17.25V31.5H18.75V28.5H19.5C19.6989 28.5 19.8897 28.421 20.0303 28.2803C20.171 28.1397 20.25 27.9489 20.25 27.75V23.25C20.25 23.0511 20.171 22.8603 20.0303 22.7197C19.8897 22.579 19.6989 22.5 19.5 22.5ZM18.75 27H17.25V24H18.75V27ZM25.5 25.5H24.75V22.5H23.25V25.5H22.5C22.3011 25.5 22.1103 25.579 21.9697 25.7197C21.829 25.8603 21.75 26.0511 21.75 26.25V30.75C21.75 30.9489 21.829 31.1397 21.9697 31.2803C22.1103 31.421 22.3011 31.5 22.5 31.5H23.25V34.5H24.75V31.5H25.5C25.6989 31.5 25.8897 31.421 26.0303 31.2803C26.171 31.1397 26.25 30.9489 26.25 30.75V26.25C26.25 26.0511 26.171 25.8603 26.0303 25.7197C25.8897 25.579 25.6989 25.5 25.5 25.5ZM24.75 30H23.25V27H24.75V30ZM31.5 19.5H30.75V16.5H29.25V19.5H28.5C28.3011 19.5 28.1103 19.579 27.9697 19.7197C27.829 19.8603 27.75 20.0511 27.75 20.25V24.75C27.75 24.9489 27.829 25.1397 27.9697 25.2803C28.1103 25.421 28.3011 25.5 28.5 25.5H29.25V28.5H30.75V25.5H31.5C31.6989 25.5 31.8897 25.421 32.0303 25.2803C32.171 25.1397 32.25 24.9489 32.25 24.75V20.25C32.25 20.0511 32.171 19.8603 32.0303 19.7197C31.8897 19.579 31.6989 19.5 31.5 19.5ZM30.75 24H29.25V21H30.75V24ZM35.25 18V21H34.5C34.3011 21 34.1103 21.079 33.9697 21.2197C33.829 21.3603 33.75 21.5511 33.75 21.75V26.25C33.75 26.4489 33.829 26.6397 33.9697 26.7803C34.1103 26.921 34.3011 27 34.5 27H35.25V30H36.75V27H37.5C37.6989 27 37.8897 26.921 38.0303 26.7803C38.171 26.6397 38.25 26.4489 38.25 26.25V21.75C38.25 21.5511 38.171 21.3603 38.0303 21.2197C37.8897 21.079 37.6989 21 37.5 21H36.75V18H35.25ZM36.75 25.5H35.25V22.5H36.75V25.5ZM13.5 21H12.75V18H11.25V21H10.5C10.3011 21 10.1103 21.079 9.96967 21.2197C9.82902 21.3603 9.75 21.5511 9.75 21.75V26.25C9.75 26.4489 9.82902 26.6397 9.96967 26.7803C10.1103 26.921 10.3011 27 10.5 27H11.25V30H12.75V27H13.5C13.6989 27 13.8897 26.921 14.0303 26.7803C14.171 26.6397 14.25 26.4489 14.25 26.25V21.75C14.25 21.5511 14.171 21.3603 14.0303 21.2197C13.8897 21.079 13.6989 21 13.5 21ZM12.75 25.5H11.25V22.5H12.75V25.5Z" fill="black"/>
</g>
<defs>
<clipPath id="clip0_1422_14643">
<rect width="48" height="48" fill="white"/>
</clipPath>
</defs>
</svg>
