<svg width="48" height="48" viewBox="0 0 48 48" fill="none" xmlns="http://www.w3.org/2000/svg">
<path d="M30.7503 21C30.7573 19.5565 31.2694 18.1611 32.1978 17.0558C33.0262 16.0566 33.5491 14.8398 33.7036 13.5511C33.8582 12.2624 33.638 10.9565 33.0693 9.7898C32.5006 8.62309 31.6076 7.64506 30.4973 6.97291C29.387 6.30075 28.1064 5.96296 26.809 6C25.0668 6.06776 23.4165 6.79972 22.1969 8.04571C20.9773 9.2917 20.2808 10.9572 20.2503 12.7005C20.2362 14.2933 20.7886 15.8393 21.8088 17.0625C22.7348 18.1661 23.2448 19.5594 23.2503 21" fill="#F9D266"/>
<path d="M22.5 21H31.5V25.5H22.5V21Z" fill="#686868"/>
<path d="M30 22.5V21H22.5V23.25H29.25C29.4489 23.25 29.6397 23.171 29.7803 23.0303C29.921 22.8897 30 22.6989 30 22.5Z" fill="#939393"/>
<path d="M24 25.5C24 26.2956 24.3161 27.0587 24.8787 27.6213C25.4413 28.1839 26.2044 28.5 27 28.5C27.7956 28.5 28.5587 28.1839 29.1213 27.6213C29.6839 27.0587 30 26.2956 30 25.5" fill="#B5B5B5"/>
<path d="M31.5 12.75H30C30 11.9544 29.6839 11.1913 29.1213 10.6287C28.5587 10.0661 27.7956 9.75 27 9.75V8.25C28.1931 8.25119 29.337 8.72568 30.1807 9.56933C31.0243 10.413 31.4988 11.5569 31.5 12.75Z" fill="#FCE797"/>
<path d="M32.0612 31.8L34.1994 30.09C34.8796 29.546 35.7247 29.2498 36.5957 29.25C37.1906 29.2499 37.7773 29.3883 38.3094 29.6543L39.0002 30L40.0037 29.4983C40.3299 29.3357 40.6893 29.251 41.0537 29.2507C41.5475 29.2508 42.0288 29.4061 42.4294 29.6949C42.83 29.9836 43.1295 30.391 43.2857 30.8595L43.5002 31.5L33.9369 38.25C31.8633 39.7136 29.3876 40.4996 26.8494 40.5C25.9527 40.4999 25.0586 40.4019 24.1832 40.2075L22.8182 39.9038C20.1959 39.321 17.4512 39.709 15.0932 40.9957L14.6252 41.25L10.9502 33.9L12.7502 33L15.1502 31.4025C16.5209 30.4888 18.1312 30.0009 19.7784 30C21.0751 29.9997 22.3539 30.3017 23.5134 30.882L24.7502 31.5H30.7502C31.2043 31.4991 31.6527 31.6017 32.0612 31.8Z" fill="#FBE1CA"/>
<path d="M34.7955 29.7L33.3922 29.3497C33.1318 29.284 32.8643 29.2505 32.5957 29.25C31.8848 29.2502 31.193 29.4807 30.624 29.907L28.5 31.5H30.75C31.2041 31.4991 31.6525 31.6017 32.061 31.8L34.1992 30.09C34.3865 29.9407 34.5874 29.8094 34.7992 29.6978L34.7955 29.7Z" fill="#E8AB95"/>
<path d="M39 30L33.75 34.5C33.7503 33.9368 33.5921 33.3849 33.2934 32.9074C32.9947 32.4299 32.5676 32.0461 32.061 31.8L34.1993 30.09C34.8795 29.546 35.7246 29.2498 36.5955 29.25C37.1904 29.2499 37.7772 29.3883 38.3093 29.6543L39 30Z" fill="#F2B9A1"/>
<path d="M10.5 46.5L15.75 43.5L9.75 31.5L4.5 33.75L10.5 46.5Z" fill="#3B5892"/>
<path d="M4.5 33.75L9.15 43.629L10.7685 42.7043C11.1019 42.5145 11.3498 42.2042 11.4614 41.8371C11.573 41.4701 11.5398 41.0743 11.3685 40.731L7.2825 32.556L4.5 33.75Z" fill="#4C6CB5"/>
<path d="M26.25 0.75H27.75V3.75H26.25V0.75ZM33.2152 5.47275L35.4652 3.22275L36.5257 4.28325L34.2757 6.53325L33.2152 5.47275ZM17.4675 4.2825L18.528 3.22125L20.778 5.47125L19.7175 6.5325L17.4675 4.2825ZM33.9637 17.7825L35.0243 16.7213L37.2743 18.9713L36.2137 20.0317L33.9637 17.7825ZM17.466 19.7197L19.716 17.4697L20.7765 18.5303L18.5265 20.7803L17.466 19.7197ZM36 11.25H39V12.75H36V11.25ZM15 11.25H18V12.75H15V11.25Z" fill="#FCE797"/>
<path d="M44.2111 31.263L43.9974 30.621C43.857 30.1995 43.6276 29.8131 43.3249 29.488C43.0221 29.1628 42.653 28.9065 42.2426 28.7364C41.8322 28.5663 41.39 28.4863 40.946 28.502C40.502 28.5176 40.0666 28.6285 39.6691 28.827L39.0001 29.1608L38.6439 28.9838C38.0363 28.69 37.3724 28.5312 36.6976 28.5182C36.0228 28.5053 35.3533 28.6385 34.7349 28.9088L33.5746 28.6185C32.992 28.4764 32.3851 28.4642 31.7972 28.5828C31.2093 28.7014 30.6547 28.9479 30.1726 29.3048L28.2496 30.75H24.9271L23.8501 30.2108C22.4151 29.4933 20.8158 29.1679 19.2145 29.2676C17.6131 29.3673 16.0666 29.8885 14.7316 30.7785L12.3736 32.3535L11.2861 32.8965L10.4221 31.1715C10.3366 31.0003 10.1888 30.8683 10.0091 30.8024C9.82936 30.7366 9.63127 30.742 9.45538 30.8175L4.20538 33.0675C4.11393 33.1075 4.03138 33.1653 3.96257 33.2376C3.89375 33.31 3.84007 33.3953 3.80465 33.4886C3.76924 33.5819 3.75281 33.6814 3.75633 33.7811C3.75984 33.8809 3.78324 33.9789 3.82513 34.0695L9.82513 46.8195C9.86924 46.913 9.93221 46.9964 10.0101 47.0644C10.088 47.1325 10.1791 47.1836 10.2777 47.2148C10.3763 47.2459 10.4803 47.2563 10.5831 47.2453C10.6859 47.2344 10.7853 47.2023 10.8751 47.151L16.1251 44.151C16.2917 44.0561 16.4156 43.901 16.4714 43.7176C16.5272 43.5342 16.5107 43.3364 16.4251 43.1648L15.6271 41.5695C17.7883 40.4397 20.2789 40.1093 22.6599 40.6365L24.0241 40.9365C25.7987 41.3309 27.6362 41.3499 29.4186 40.9924C31.2009 40.6349 32.8889 39.9087 34.3741 38.8605L43.9374 32.1105C44.0676 32.017 44.1644 31.8843 44.2137 31.7318C44.2629 31.5793 44.2621 31.415 44.2111 31.263ZM37.6314 30.1853L34.2249 33.1058C34.0188 32.598 33.7039 32.1415 33.3024 31.7685L34.6681 30.675C35.0822 30.3531 35.5702 30.1398 36.0876 30.0542C36.6051 29.9687 37.1357 30.0137 37.6314 30.1853ZM31.0734 30.5078C31.3544 30.3037 31.6739 30.1586 32.0125 30.0812C32.3511 30.0039 32.7019 29.9959 33.0436 30.0578L31.9186 30.9578C31.5429 30.8261 31.1483 30.7559 30.7501 30.75L31.0734 30.5078ZM10.8324 45.45L5.50738 34.137L9.39313 32.472L14.7624 43.2L10.8324 45.45ZM33.5049 37.6418C32.1907 38.5696 30.6969 39.2122 29.1196 39.5286C27.5423 39.8449 25.9162 39.8278 24.3459 39.4785L22.9816 39.1785C20.2654 38.5782 17.4246 38.9525 14.9566 40.236L11.9566 34.242L13.0816 33.678C13.1095 33.6639 13.1366 33.6481 13.1626 33.6308L15.5626 32.0333C16.6766 31.2895 17.9674 30.8533 19.3042 30.7689C20.641 30.6845 21.9764 30.9548 23.1751 31.5525L24.4119 32.1713C24.5169 32.2236 24.6328 32.2506 24.7501 32.25H30.7501C31.2153 32.2506 31.669 32.395 32.0488 32.6636C32.4287 32.9321 32.7162 33.3116 32.8719 33.75H26.2501V35.25H33.7501C33.9291 35.2504 34.1022 35.1862 34.2376 35.0693L39.4164 30.63L40.3389 30.1688C40.5443 30.0662 40.7693 30.009 40.9987 30.0009C41.2281 29.9929 41.4565 30.0342 41.6686 30.1221C41.8807 30.21 42.0714 30.3424 42.2278 30.5104C42.3843 30.6784 42.5028 30.878 42.5754 31.0958L42.6121 31.2083L33.5049 37.6418Z" fill="black"/>
<path d="M21.2321 17.5425C21.8765 18.3208 22.292 19.2628 22.4321 20.2635C22.2469 20.2787 22.0742 20.3628 21.9479 20.4991C21.8217 20.6355 21.7512 20.8142 21.7503 21V25.5C21.7503 25.6989 21.8294 25.8897 21.97 26.0303C22.1107 26.171 22.3014 26.25 22.5003 26.25H23.3253C23.4975 27.0977 23.9574 27.8599 24.6272 28.4073C25.2969 28.9547 26.1353 29.2538 27.0003 29.2538C27.8654 29.2538 28.7038 28.9547 29.3735 28.4073C30.0433 27.8599 30.5032 27.0977 30.6753 26.25H31.5003C31.6993 26.25 31.89 26.171 32.0307 26.0303C32.1713 25.8897 32.2503 25.6989 32.2503 25.5V21C32.2494 20.814 32.1787 20.635 32.0522 20.4987C31.9257 20.3623 31.7525 20.2783 31.5671 20.2635C31.7102 19.2599 32.1284 18.3155 32.7753 17.535C33.6842 16.4385 34.2621 15.1058 34.4413 13.6929C34.6206 12.28 34.3939 10.8453 33.7876 9.55653C33.1814 8.26777 32.2208 7.17826 31.0181 6.41543C29.8154 5.65259 28.4203 5.24798 26.9961 5.2489C25.5719 5.24983 24.1774 5.65626 22.9757 6.42065C21.7739 7.18505 20.8147 8.27581 20.2102 9.56536C19.6056 10.8549 19.3808 12.2899 19.5619 13.7026C19.743 15.1153 20.3218 16.4472 21.2321 17.5425ZM27.0003 27.75C26.5366 27.7481 26.0849 27.6029 25.7068 27.3344C25.3288 27.0659 25.0429 26.6872 24.8883 26.25H29.1123C28.9578 26.6872 28.6719 27.0659 28.2939 27.3344C27.9158 27.6029 27.464 27.7481 27.0003 27.75ZM30.7503 24.75H23.2503V21.75H30.7503V24.75ZM26.8293 6.75C27.6326 6.71987 28.4335 6.85488 29.1825 7.14669C29.9315 7.43849 30.6127 7.88089 31.1838 8.4465C32.2651 9.49841 32.9105 10.919 32.9914 12.4254C33.0723 13.9318 32.5828 15.4133 31.6203 16.575C30.7491 17.6208 30.2018 18.8979 30.0453 20.25H23.9531C23.7997 18.9006 23.2545 17.6256 22.3848 16.5825C21.6656 15.7171 21.2043 14.6669 21.0535 13.5517C20.9026 12.4366 21.0685 11.3016 21.5319 10.2762C21.9954 9.25084 22.7379 8.37647 23.6746 7.75295C24.6114 7.12942 25.7045 6.78188 26.8293 6.75Z" fill="black"/>
<path d="M30 12.75H31.5C31.4988 11.5569 31.0243 10.413 30.1807 9.56933C29.337 8.72568 28.1931 8.25119 27 8.25V9.75C27.7956 9.75 28.5587 10.0661 29.1213 10.6287C29.6839 11.1913 30 11.9544 30 12.75ZM26.25 0.75H27.75V3.75H26.25V0.75ZM33.2152 5.47275L35.4652 3.22275L36.5257 4.28325L34.2757 6.53325L33.2152 5.47275ZM17.4675 4.2825L18.528 3.22125L20.778 5.47125L19.7175 6.5325L17.4675 4.2825ZM33.9637 17.7825L35.0243 16.7213L37.2743 18.9713L36.2137 20.0317L33.9637 17.7825ZM17.466 19.7197L19.716 17.4697L20.7765 18.5303L18.5265 20.7803L17.466 19.7197ZM36 11.25H39V12.75H36V11.25ZM15 11.25H18V12.75H15V11.25Z" fill="black"/>
</svg>
