<svg width="48" height="48" viewBox="0 0 48 48" fill="none" xmlns="http://www.w3.org/2000/svg">
<g clip-path="url(#clip0_1422_15435)">
<path d="M24.0004 47.1432C36.7817 47.1432 47.143 36.7819 47.143 24.0006C47.143 11.2192 36.7817 0.85791 24.0004 0.85791C11.219 0.85791 0.857719 11.2192 0.857719 24.0006C0.857719 36.7819 11.219 47.1432 24.0004 47.1432Z" fill="#F7B239"/>
<path d="M11.8414 36.1589C3.51619 27.8337 2.86022 14.744 9.87272 5.66748C9.08599 6.2754 8.33888 6.93293 7.63594 7.63604C-1.40166 16.6736 -1.40166 31.3265 7.63594 40.3641C16.6735 49.4017 31.3264 49.4017 40.364 40.3641C41.0671 39.6611 41.7246 38.9141 42.3326 38.1274C33.2562 45.14 20.1664 44.4839 11.8414 36.1589Z" fill="#E09B2D"/>
<path d="M24.0001 48C10.7663 48 0 37.2337 0 24.0001C0 10.7663 10.7663 0 24.0001 0C37.2337 0 48 10.7663 48 24.0001C48 37.2337 37.2337 48 24.0001 48ZM24.0001 1.71553C11.7124 1.71553 1.71553 11.7123 1.71553 24.0001C1.71553 36.2879 11.7123 46.2845 24.0001 46.2845C36.2877 46.2845 46.2845 36.2877 46.2845 24.0001C46.2845 11.7124 36.2876 1.71553 24.0001 1.71553Z" fill="black"/>
<path d="M23.9999 29.4799C20.1085 29.4799 16.2171 27.9985 13.2546 25.036C13.0937 24.8752 13.0034 24.657 13.0034 24.4295C13.0034 24.202 13.0937 23.9839 13.2546 23.823C13.5895 23.488 14.1327 23.488 14.4676 23.823C19.7238 29.0792 28.2761 29.0791 33.5323 23.823C33.8673 23.488 34.4105 23.488 34.7453 23.823C34.9062 23.9839 34.9965 24.202 34.9965 24.4295C34.9965 24.657 34.9062 24.8752 34.7453 25.036C31.7828 27.9986 27.8915 29.4799 23.9999 29.4799Z" fill="black"/>
<path d="M24.0004 33.1991C22.6107 33.1991 21.2276 33.0089 19.8895 32.6337C19.6705 32.5723 19.4848 32.4264 19.3733 32.228C19.2619 32.0297 19.2337 31.7953 19.2952 31.5762C19.423 31.1201 19.8969 30.854 20.3527 30.9818C22.7385 31.6509 25.2625 31.6509 27.6484 30.9818C28.1046 30.8538 28.578 31.1201 28.7059 31.5762C28.7673 31.7953 28.7392 32.0297 28.6277 32.228C28.5162 32.4264 28.3305 32.5723 28.1115 32.6337C26.7733 33.0089 25.3901 33.1991 24.0004 33.1991Z" fill="#E09B2D"/>
<path d="M18.1062 18.9985C17.8787 18.9985 17.6605 18.9081 17.4997 18.7473C17.3388 18.5864 17.2484 18.3682 17.2484 18.1407C17.2484 15.8386 15.3755 13.9655 13.0732 13.9655C10.771 13.9655 8.89809 15.8385 8.89809 18.1407C8.89809 18.3682 8.80771 18.5864 8.64684 18.7473C8.48597 18.9081 8.26778 18.9985 8.04028 18.9985C7.81277 18.9985 7.59458 18.9081 7.43371 18.7473C7.27284 18.5864 7.18246 18.3682 7.18246 18.1407C7.18246 14.8926 9.825 12.25 13.0732 12.25C16.3213 12.25 18.9638 14.8925 18.9638 18.1407C18.964 18.6145 18.5799 18.9985 18.1062 18.9985ZM39.9596 18.9985C39.7321 18.9985 39.5139 18.9081 39.3531 18.7473C39.1922 18.5864 39.1018 18.3682 39.1018 18.1407C39.1018 15.8386 37.2289 13.9655 34.9267 13.9655C32.6244 13.9655 30.7515 15.8385 30.7515 18.1407C30.7515 18.3682 30.6611 18.5864 30.5002 18.7473C30.3394 18.9081 30.1212 18.9985 29.8937 18.9985C29.6662 18.9985 29.448 18.9081 29.2871 18.7473C29.1262 18.5864 29.0359 18.3682 29.0359 18.1407C29.0359 14.8926 31.6784 12.25 34.9266 12.25C38.1747 12.25 40.8172 14.8925 40.8172 18.1407C40.8173 18.2533 40.7951 18.3649 40.752 18.4689C40.7089 18.573 40.6458 18.6676 40.5661 18.7472C40.4865 18.8269 40.3919 18.8901 40.2879 18.9332C40.1838 18.9763 40.0723 18.9985 39.9596 18.9985Z" fill="black"/>
<path d="M9.42862 25.1146C10.6774 25.1146 11.6898 24.1022 11.6898 22.8534C11.6898 21.6046 10.6774 20.5923 9.42862 20.5923C8.17982 20.5923 7.16747 21.6046 7.16747 22.8534C7.16747 24.1022 8.17982 25.1146 9.42862 25.1146Z" fill="#F95428"/>
<path d="M38.5711 25.1146C39.8199 25.1146 40.8322 24.1022 40.8322 22.8534C40.8322 21.6046 39.8199 20.5923 38.5711 20.5923C37.3223 20.5923 36.3099 21.6046 36.3099 22.8534C36.3099 24.1022 37.3223 25.1146 38.5711 25.1146Z" fill="#F95428"/>
</g>
<defs>
<clipPath id="clip0_1422_15435">
<rect width="48" height="48" fill="white"/>
</clipPath>
</defs>
</svg>
