<svg width="40" height="48" viewBox="0 0 40 48" fill="none" xmlns="http://www.w3.org/2000/svg">
<path d="M11.8449 38.5076V28.5619C11.8449 28.3753 11.7708 28.1962 11.6388 28.0642C11.5067 27.9322 11.3277 27.858 11.141 27.858H6.62906C6.44237 27.858 6.26333 27.9322 6.13132 28.0642C5.99932 28.1962 5.92516 28.3753 5.92516 28.5619V38.5076C5.92516 38.6943 5.99932 38.8733 6.13132 39.0053C6.26333 39.1373 6.44237 39.2115 6.62906 39.2115H11.1409C11.3276 39.2115 11.5067 39.1373 11.6387 39.0053C11.7707 38.8733 11.8449 38.6943 11.8449 38.5076Z" fill="#21D8DE"/>
<path d="M11.1409 27.858H7.5868C7.77349 27.858 7.95253 27.9322 8.08454 28.0642C8.21654 28.1962 8.29071 28.3753 8.29071 28.5619V38.5076C8.29071 38.6943 8.21654 38.8733 8.08454 39.0053C7.95253 39.1373 7.77349 39.2115 7.5868 39.2115H11.1409C11.3276 39.2115 11.5067 39.1373 11.6387 39.0053C11.7707 38.8733 11.8448 38.6943 11.8448 38.5076V28.5619C11.8449 28.1732 11.5297 27.858 11.1409 27.858Z" fill="#10C4C4"/>
<path d="M22.5797 38.5076V23.8716C22.5797 23.7791 22.5615 23.6876 22.5261 23.6022C22.4907 23.5168 22.4389 23.4391 22.3735 23.3738C22.3081 23.3084 22.2305 23.2565 22.1451 23.2212C22.0597 23.1858 21.9682 23.1676 21.8757 23.1676H17.3639C17.1772 23.1676 16.9982 23.2418 16.8662 23.3738C16.7342 23.5058 16.66 23.6848 16.66 23.8715V38.5075C16.66 38.6942 16.7342 38.8733 16.8662 39.0053C16.9982 39.1373 17.1772 39.2114 17.3639 39.2114H21.8758C21.9682 39.2114 22.0598 39.1932 22.1452 39.1579C22.2306 39.1225 22.3082 39.0707 22.3735 39.0053C22.4389 38.94 22.4907 38.8624 22.5261 38.777C22.5615 38.6916 22.5797 38.6 22.5797 38.5076Z" fill="#FF6D3A"/>
<path d="M21.8758 23.1676H18.3026C18.395 23.1676 18.4866 23.1858 18.572 23.2212C18.6574 23.2565 18.735 23.3084 18.8004 23.3738C18.8658 23.4391 18.9176 23.5168 18.953 23.6022C18.9884 23.6876 19.0066 23.7791 19.0066 23.8716V38.5076C19.0066 38.6943 18.9324 38.8733 18.8004 39.0053C18.6684 39.1373 18.4893 39.2115 18.3027 39.2115H21.8759C22.0625 39.2115 22.2416 39.1373 22.3736 39.0053C22.5056 38.8733 22.5798 38.6943 22.5798 38.5076V23.8716C22.5797 23.4828 22.2645 23.1676 21.8758 23.1676Z" fill="#ED5729"/>
<path d="M33.3146 38.5075V18.6979C33.3146 18.5112 33.2404 18.3322 33.1084 18.2002C32.9764 18.0682 32.7974 17.994 32.6107 17.994H28.0988C27.9121 17.994 27.7331 18.0682 27.6011 18.2002C27.4691 18.3322 27.3949 18.5112 27.3949 18.6979V38.5075C27.3949 38.6941 27.4691 38.8732 27.6011 39.0052C27.7331 39.1372 27.9121 39.2114 28.0988 39.2114H32.6107C32.7031 39.2114 32.7947 39.1932 32.8801 39.1578C32.9655 39.1224 33.0431 39.0706 33.1085 39.0052C33.1738 38.9398 33.2257 38.8622 33.261 38.7768C33.2964 38.6914 33.3146 38.5999 33.3146 38.5075Z" fill="#FF4C4C"/>
<path d="M32.6107 17.994H29.0011C29.1878 17.994 29.3668 18.0682 29.4988 18.2002C29.6308 18.3322 29.705 18.5112 29.705 18.6979V38.5075C29.705 38.5999 29.6868 38.6915 29.6514 38.7769C29.6161 38.8623 29.5642 38.9399 29.4988 39.0053C29.4335 39.0706 29.3558 39.1225 29.2704 39.1579C29.185 39.1932 29.0935 39.2115 29.001 39.2114H32.6106C32.7031 39.2115 32.7946 39.1932 32.88 39.1579C32.9655 39.1225 33.0431 39.0706 33.1084 39.0053C33.1738 38.9399 33.2257 38.8623 33.261 38.7769C33.2964 38.6915 33.3146 38.5999 33.3146 38.5075V18.6979C33.3146 18.5112 33.2404 18.3322 33.1084 18.2002C32.9764 18.0682 32.7974 17.994 32.6107 17.994Z" fill="#F33939"/>
<path d="M38.9479 38.3783H2.91797C2.79016 38.3783 2.66758 38.3275 2.5772 38.2371C2.48682 38.1467 2.43604 38.0241 2.43602 37.8963V8.48501C2.436 8.35719 2.38521 8.23461 2.29484 8.14424C2.20446 8.05386 2.08188 8.00307 1.95407 8.00305H1.05211C0.924297 8.00307 0.801723 8.05386 0.711344 8.14424C0.620964 8.23461 0.570181 8.35719 0.57016 8.48501V39.8948C0.570181 40.0226 0.620964 40.1452 0.711344 40.2355C0.801723 40.3259 0.924297 40.3767 1.05211 40.3767H38.9479C39.0757 40.3767 39.1983 40.3259 39.2887 40.2355C39.379 40.1452 39.4298 40.0226 39.4298 39.8948V38.8602C39.4298 38.7324 39.379 38.6098 39.2887 38.5195C39.1983 38.4291 39.0757 38.3783 38.9479 38.3783Z" fill="#2D5871"/>
<path d="M30.5453 38.3781C34.0269 38.3781 36.8492 35.5557 36.8492 32.0742C36.8492 28.5926 34.0269 25.7703 30.5453 25.7703C27.0638 25.7703 24.2414 28.5926 24.2414 32.0742C24.2414 35.5557 27.0638 38.3781 30.5453 38.3781Z" fill="#FFB125"/>
<path d="M35.0029 36.5319C37.4648 34.07 37.4648 30.0786 35.0029 27.6168L26.0877 36.5319C28.5496 38.9938 32.541 38.9938 35.0029 36.5319Z" fill="#FF901D"/>
<path d="M6.47945 23.7005C6.49805 23.7013 6.57586 23.7047 6.7093 23.7047C7.53086 23.7047 10.4537 23.5786 14.5284 21.9843C17.2916 20.9032 20.0184 19.3648 22.6332 17.4119C25.638 15.1676 28.5021 12.3652 31.1588 9.0743L31.3866 10.7018C31.4103 10.8492 31.4908 10.9814 31.6109 11.07C31.731 11.1587 31.881 11.1968 32.0288 11.1761C32.1766 11.1554 32.3104 11.0776 32.4015 10.9593C32.4926 10.8411 32.5337 10.6919 32.516 10.5437L32.0961 7.5443C32.0856 7.46955 32.0604 7.39762 32.0219 7.33269C31.9834 7.26776 31.9324 7.21112 31.8718 7.16605C31.8113 7.12098 31.7424 7.08838 31.6692 7.07013C31.5959 7.05189 31.5198 7.04836 31.4452 7.05977L28.1408 7.56586C28.0668 7.57719 27.9957 7.60298 27.9316 7.64178C27.8676 7.68057 27.8118 7.7316 27.7675 7.79195C27.7232 7.8523 27.6912 7.9208 27.6733 7.99352C27.6555 8.06624 27.6521 8.14177 27.6634 8.21578C27.6748 8.2898 27.7006 8.36087 27.7394 8.42492C27.7781 8.48897 27.8292 8.54475 27.8895 8.58907C27.9499 8.6334 28.0184 8.6654 28.0911 8.68326C28.1638 8.70111 28.2393 8.70446 28.3134 8.69313L30.2389 8.39821C27.6639 11.5817 24.8945 14.2934 21.9937 16.4662C19.4697 18.3568 16.8413 19.847 14.1817 20.8954C9.65523 22.6797 6.5643 22.5625 6.5339 22.5614C6.21875 22.5455 5.95289 22.7891 5.93765 23.1033C5.93402 23.1781 5.94514 23.2528 5.9704 23.3233C5.99566 23.3938 6.03456 23.4586 6.08487 23.5141C6.13518 23.5695 6.19592 23.6145 6.26362 23.6465C6.33133 23.6785 6.40466 23.6968 6.47945 23.7005Z" fill="black"/>
<path d="M38.9479 37.8081H34.3402C34.7235 37.5532 35.0806 37.2607 35.406 36.935C36.7044 35.6367 37.4194 33.9104 37.4194 32.0743C37.4194 30.2382 36.7044 28.5119 35.406 27.2136C34.9548 26.7626 34.4427 26.3768 33.8848 26.0675V23.7656C33.8848 23.6144 33.8247 23.4694 33.7178 23.3624C33.6108 23.2555 33.4658 23.1954 33.3146 23.1954C33.1634 23.1954 33.0184 23.2555 32.9114 23.3624C32.8045 23.4694 32.7445 23.6144 32.7445 23.7656V25.5611C31.1861 25.0329 29.4897 25.0828 27.9651 25.7016V18.6979C27.9651 18.6241 28.0251 18.5641 28.0988 18.5641H32.6107C32.6845 18.5641 32.7445 18.6241 32.7445 18.6979V20.1131C32.7445 20.2643 32.8045 20.4093 32.9114 20.5163C33.0184 20.6232 33.1634 20.6833 33.3146 20.6833C33.4658 20.6833 33.6108 20.6232 33.7178 20.5163C33.8247 20.4093 33.8848 20.2643 33.8848 20.1131V18.6979C33.8848 17.9953 33.3132 17.4237 32.6106 17.4237H28.0988C27.3962 17.4237 26.8246 17.9953 26.8246 18.6979V26.2949C26.4129 26.5596 26.0308 26.8675 25.6846 27.2135C24.3862 28.5118 23.6712 30.2381 23.6712 32.0742C23.6712 33.9104 24.3862 35.6366 25.6846 36.9349C26.0101 37.2605 26.3671 37.553 26.7505 37.8079H23.1499V23.8715C23.1499 23.169 22.5784 22.5974 21.8758 22.5974H17.364C16.6614 22.5974 16.0898 23.169 16.0898 23.8715V37.8081H12.4151V28.5619C12.4151 27.8593 11.8435 27.2878 11.1409 27.2878H6.62906C5.92648 27.2878 5.35492 27.8593 5.35492 28.5619V37.8081H3.00625V8.48497C3.00625 7.90481 2.5343 7.43286 1.95414 7.43286H1.05211C0.471953 7.43286 0 7.90481 0 8.48497V12.5329C2.25328e-09 12.6842 0.0600699 12.8292 0.166995 12.9361C0.27392 13.043 0.418941 13.1031 0.570156 13.1031C0.721371 13.1031 0.866393 13.043 0.973318 12.9361C1.08024 12.8292 1.14031 12.6842 1.14031 12.5329V8.57325H1.86578V37.8964C1.86578 38.4765 2.33781 38.9485 2.91789 38.9485H38.8595V39.8065H1.14039V16.1361C1.13863 15.986 1.07779 15.8427 0.971045 15.7372C0.864304 15.6317 0.720275 15.5725 0.570195 15.5725C0.420116 15.5725 0.276087 15.6317 0.169345 15.7372C0.062604 15.8427 0.00175664 15.986 0 16.1361L0 39.8947C0 40.4749 0.471953 40.9468 1.05211 40.9468H38.9479C39.528 40.9468 40 40.4749 40 39.8947V38.8601C40 38.28 39.528 37.8081 38.9479 37.8081ZM11.2747 37.8081H6.49531V28.5619C6.49531 28.4882 6.55531 28.4282 6.62906 28.4282H11.1409C11.2147 28.4282 11.2747 28.4882 11.2747 28.5619V37.8081ZM22.0095 37.8081H17.2302V23.8715C17.2302 23.7978 17.2902 23.7378 17.3639 23.7378H21.8757C21.9495 23.7378 22.0095 23.7978 22.0095 23.8715L22.0095 37.8081ZM33.0849 37.2165C33.078 37.2196 33.0709 37.2218 33.0641 37.2251C32.4866 37.5075 31.8591 37.6911 31.22 37.7675C31.2092 37.7687 31.1985 37.7702 31.1877 37.7715C31.1441 37.7765 31.1004 37.7807 31.0566 37.7847C30.9899 37.7905 30.9231 37.7958 30.856 37.7993C30.8348 37.8005 30.8137 37.8011 30.7925 37.8021C30.7102 37.8058 30.6277 37.8078 30.5453 37.8081C30.4623 37.8081 30.3798 37.8055 30.2975 37.8021C30.2094 37.7983 30.1215 37.7924 30.0337 37.7847C29.9824 37.78 29.9313 37.7747 29.8802 37.7686C29.8437 37.7645 29.8072 37.76 29.7708 37.7552C29.7189 37.7482 29.667 37.7405 29.6153 37.7321L29.5952 37.7286C28.9209 37.6156 28.2722 37.3829 27.68 37.0412C27.6769 37.0394 27.6736 37.0383 27.6705 37.0365C27.2397 36.7862 26.8432 36.481 26.4909 36.1286C25.408 35.0457 24.8116 33.6058 24.8116 32.0743C24.8116 30.5427 25.408 29.1029 26.4909 28.0199C26.8948 27.6156 27.3569 27.2742 27.862 27.007C27.8759 26.9996 27.89 26.9925 27.904 26.9853C28.7203 26.5629 29.6262 26.3428 30.5453 26.3433C31.2768 26.3431 32.0016 26.4824 32.6809 26.7537C32.6927 26.7585 32.7047 26.763 32.7165 26.7679C32.7875 26.7968 32.8579 26.8276 32.9279 26.8595C32.9558 26.8722 32.9836 26.8855 33.0113 26.8987C33.601 27.1788 34.1382 27.558 34.5996 28.0198C36.8352 30.2554 36.8352 33.8929 34.5996 36.1286C34.1574 36.5714 33.6458 36.9389 33.0849 37.2165Z" fill="black"/>
<path d="M30.1896 35.9944C28.9491 35.9744 28.1087 35.3041 28.1087 34.8138C28.1087 34.5737 28.3188 34.2436 28.5689 34.2436C28.8991 34.2436 29.1691 34.9439 30.1896 35.0239V32.6729C29.2892 32.3527 28.2888 31.9926 28.2888 30.712C28.2888 29.4515 29.2391 28.9512 30.1896 28.8512V28.561C30.1896 28.4409 30.3097 28.3309 30.4798 28.3309C30.6298 28.3309 30.7799 28.4409 30.7799 28.561V28.8312C31.4602 28.8512 32.4206 29.0612 32.4206 29.5515C32.4206 29.7416 32.2805 30.1217 31.9804 30.1217C31.7403 30.1217 31.4802 29.8016 30.7798 29.7516V31.7824C31.6502 32.1026 32.6006 32.5427 32.6006 33.9034C32.6006 35.1339 31.8603 35.8142 30.7798 35.9643V36.3044C30.7798 36.4245 30.6298 36.5345 30.4797 36.5345C30.3096 36.5345 30.1895 36.4245 30.1895 36.3044V35.9944H30.1896ZM30.2497 31.5924V29.7716C29.6895 29.8416 29.2893 30.0917 29.2893 30.612C29.2892 31.1823 29.7195 31.3923 30.2497 31.5924ZM30.7198 32.893V35.004C31.2601 34.904 31.6002 34.5838 31.6002 34.0135C31.6002 33.3832 31.2101 33.1031 30.7198 32.893Z" fill="#DD7219"/>
</svg>
