<svg width="88" height="88" viewBox="0 0 88 88" fill="none" xmlns="http://www.w3.org/2000/svg">
<path d="M28.875 45.375C24.4989 45.375 20.3021 47.1134 17.2077 50.2077C14.1134 53.3021 12.375 57.4989 12.375 61.875V85.25H75.625V61.875C75.625 57.4989 73.8866 53.3021 70.7923 50.2077C67.6979 47.1134 63.5011 45.375 59.125 45.375H28.875Z" fill="#3B5892"/>
<path d="M22 63.25H66V85.25H22V63.25ZM31.625 45.375L34.375 56.375L41.0135 51.0648L34.375 45.375H31.625ZM56.375 45.375L53.625 56.375L46.9865 51.0648L53.625 45.375H56.375Z" fill="#78A0D4"/>
<path d="M50.875 39.1653C48.8416 40.5283 46.4479 41.254 44 41.2498C41.5521 41.2535 39.1587 40.5278 37.125 39.1653V42.6248C37.125 43.3542 36.8353 44.0537 36.3195 44.5694C35.8038 45.0851 35.1043 45.3748 34.375 45.3748L44 53.6248L53.625 45.3748C52.8957 45.3748 52.1962 45.0851 51.6805 44.5694C51.1647 44.0537 50.875 43.3542 50.875 42.6248V39.1653Z" fill="#F2B9A1"/>
<path d="M57.75 20.625V16.5C57.75 14.6943 57.3943 12.9063 56.7033 11.2381C56.0123 9.56988 54.9995 8.05409 53.7227 6.77728C52.4459 5.50048 50.9301 4.48766 49.2619 3.79666C47.5937 3.10565 45.8057 2.75 44 2.75C40.3533 2.75 36.8559 4.19866 34.2773 6.77728C31.6987 9.35591 30.25 12.8533 30.25 16.5V20.625H34.375C35.1043 20.625 35.8038 20.3353 36.3195 19.8195C36.8353 19.3038 37.125 18.6043 37.125 17.875C37.125 17.5103 37.2699 17.1606 37.5277 16.9027C37.7856 16.6449 38.1353 16.5 38.5 16.5H45.375L50.875 13.75V17.875C50.875 18.6043 51.1647 19.3038 51.6805 19.8195C52.1962 20.3353 52.8957 20.625 53.625 20.625H57.75Z" fill="#C18E59"/>
<path d="M45.375 16.5L50.875 13.75V17.875C50.875 18.6043 51.1647 19.3038 51.6805 19.8195C52.1962 20.3353 52.8957 20.625 53.625 20.625H56.375V28.875C56.375 32.1571 55.0712 35.3047 52.7504 37.6254C50.4297 39.9462 47.2821 41.25 44 41.25C40.7179 41.25 37.5703 39.9462 35.2496 37.6254C32.9288 35.3047 31.625 32.1571 31.625 28.875V20.625H34.375C35.1043 20.625 35.8038 20.3353 36.3195 19.8195C36.8353 19.3038 37.125 18.6043 37.125 17.875C37.125 17.5103 37.2699 17.1606 37.5277 16.9027C37.7856 16.6449 38.1353 16.5 38.5 16.5H45.375Z" fill="#FBE1CA"/>
<path d="M31.625 27.5H29.5625C28.6508 27.5 27.7765 27.1378 27.1318 26.4932C26.4872 25.8485 26.125 24.9742 26.125 24.0625C26.125 23.1508 26.4872 22.2765 27.1318 21.6318C27.7765 20.9872 28.6508 20.625 29.5625 20.625H31.625M56.375 27.5H58.4375C59.3492 27.5 60.2235 27.1378 60.8682 26.4932C61.5128 25.8485 61.875 24.9742 61.875 24.0625C61.875 23.1508 61.5128 22.2765 60.8682 21.6318C60.2235 20.9872 59.3492 20.625 58.4375 20.625H56.375" fill="#F2B9A1"/>
<path d="M27.5 60.5H39.875C40.969 60.5 42.0182 60.9346 42.7918 61.7082C43.5654 62.4818 44 63.531 44 64.625V85.25H27.5V60.5Z" fill="#C8CDED"/>
<path d="M60.5 85.25H44V64.625C44 63.531 44.4346 62.4818 45.2082 61.7082C45.9818 60.9346 47.031 60.5 48.125 60.5H60.5V85.25Z" fill="#E2E7F6"/>
<path d="M59.125 44H53.625C53.2603 44 52.9106 43.8551 52.6527 43.5973C52.3949 43.3394 52.25 42.9897 52.25 42.625V39.8489C53.9557 38.5722 55.3407 36.9159 56.2953 35.0111C57.2499 33.1064 57.748 31.0056 57.75 28.875H58.4375C59.6529 28.8774 60.824 28.4188 61.7146 27.5916C62.6051 26.7645 63.1489 25.6304 63.2361 24.4181C63.3233 23.2058 62.9475 22.0056 62.1846 21.0594C61.4216 20.1133 60.3282 19.4918 59.125 19.3201V16.5C59.125 12.4886 57.5315 8.6415 54.695 5.80501C51.8585 2.96852 48.0114 1.375 44 1.375C39.9886 1.375 36.1415 2.96852 33.305 5.80501C30.4685 8.6415 28.875 12.4886 28.875 16.5V19.3201C27.6718 19.4918 26.5784 20.1133 25.8154 21.0594C25.0525 22.0056 24.6767 23.2058 24.7639 24.4181C24.8512 25.6304 25.3949 26.7645 26.2854 27.5916C27.176 28.4188 28.3471 28.8774 29.5625 28.875H30.25C30.252 31.0056 30.7501 33.1064 31.7047 35.0111C32.6593 36.9159 34.0443 38.5722 35.75 39.8489V42.625C35.75 42.9897 35.6051 43.3394 35.3473 43.5973C35.0894 43.8551 34.7397 44 34.375 44H28.875C24.1359 44.0055 19.5925 45.8905 16.2415 49.2415C12.8905 52.5925 11.0055 57.1359 11 61.875V85.25C11 85.6147 11.1449 85.9644 11.4027 86.2223C11.6606 86.4801 12.0103 86.625 12.375 86.625H75.625C75.9897 86.625 76.3394 86.4801 76.5973 86.2223C76.8551 85.9644 77 85.6147 77 85.25V61.875C76.9945 57.1359 75.1095 52.5925 71.7585 49.2415C68.4075 45.8905 63.8641 44.0055 59.125 44ZM54.1337 46.75H54.615L52.811 53.9619L49.1425 51.0276L54.1337 46.75ZM60.5 24.0625C60.5 24.6095 60.2827 25.1341 59.8959 25.5209C59.5091 25.9077 58.9845 26.125 58.4375 26.125H57.75V22H58.4375C58.9845 22 59.5091 22.2173 59.8959 22.6041C60.2827 22.9909 60.5 23.5155 60.5 24.0625ZM29.5625 26.125C29.0155 26.125 28.4909 25.9077 28.1041 25.5209C27.7173 25.1341 27.5 24.6095 27.5 24.0625C27.5 23.5155 27.7173 22.9909 28.1041 22.6041C28.4909 22.2173 29.0155 22 29.5625 22H30.25V26.125H29.5625ZM31.625 16.5C31.625 13.2179 32.9288 10.0703 35.2496 7.74955C37.5703 5.42879 40.7179 4.125 44 4.125C47.2821 4.125 50.4297 5.42879 52.7504 7.74955C55.0712 10.0703 56.375 13.2179 56.375 16.5V19.25H53.625C53.2603 19.25 52.9106 19.1051 52.6527 18.8473C52.3949 18.5894 52.25 18.2397 52.25 17.875V13.75C52.2501 13.5156 52.1903 13.2851 52.0762 13.0803C51.9622 12.8755 51.7976 12.7033 51.5983 12.58C51.3989 12.4567 51.1714 12.3864 50.9372 12.3758C50.703 12.3652 50.4701 12.4146 50.2604 12.5194L45.0491 15.125H38.5C37.7707 15.125 37.0712 15.4147 36.5555 15.9305C36.0397 16.4462 35.75 17.1457 35.75 17.875C35.75 18.2397 35.6051 18.5894 35.3473 18.8473C35.0894 19.1051 34.7397 19.25 34.375 19.25H31.625V16.5ZM33 28.875V22H34.375C35.469 22 36.5182 21.5654 37.2918 20.7918C38.0654 20.0182 38.5 18.969 38.5 17.875H45.375C45.5883 17.8752 45.7987 17.8258 45.9896 17.7306L49.5 15.9748V17.875C49.5 18.969 49.9346 20.0182 50.7082 20.7918C51.4818 21.5654 52.531 22 53.625 22H55V28.875C55 31.7924 53.8411 34.5903 51.7782 36.6532C49.7153 38.7161 46.9174 39.875 44 39.875C41.0826 39.875 38.2847 38.7161 36.2218 36.6532C34.1589 34.5903 33 31.7924 33 28.875ZM44 42.625C45.8937 42.6252 47.7667 42.2314 49.5 41.4686V42.625C49.5021 43.2335 49.6397 43.8338 49.9028 44.3825C50.1658 44.9312 50.5477 45.4144 51.0207 45.7971L44 51.8141L36.9792 45.7971C37.4523 45.4144 37.8342 44.9312 38.0972 44.3825C38.3603 43.8338 38.4979 43.2335 38.5 42.625V41.4686C40.2333 42.2314 42.1063 42.6252 44 42.625ZM38.8575 51.0276L35.189 53.9632L33.385 46.75H33.8662L38.8575 51.0276ZM26.125 83.875H23.375V64.625H26.125V83.875ZM42.625 83.875H28.875V61.875H39.875C40.6043 61.875 41.3038 62.1647 41.8195 62.6805C42.3353 63.1962 42.625 63.8957 42.625 64.625V83.875ZM45.375 83.875V64.625C45.375 63.8957 45.6647 63.1962 46.1805 62.6805C46.6962 62.1647 47.3957 61.875 48.125 61.875H59.125V83.875H45.375ZM61.875 64.625H64.625V83.875H61.875V64.625ZM74.25 83.875H67.375V63.25C67.375 62.8853 67.2301 62.5356 66.9723 62.2777C66.7144 62.0199 66.3647 61.875 66 61.875H61.875V60.5C61.875 60.1353 61.7301 59.7856 61.4723 59.5277C61.2144 59.2699 60.8647 59.125 60.5 59.125H48.125C47.3414 59.1274 46.5675 59.2984 45.8557 59.6263C45.144 59.9541 44.5111 60.4313 44 61.0252C43.4889 60.4313 42.856 59.9541 42.1443 59.6263C41.4325 59.2984 40.6586 59.1274 39.875 59.125H27.5C27.1353 59.125 26.7856 59.2699 26.5277 59.5277C26.2699 59.7856 26.125 60.1353 26.125 60.5V61.875H22C21.6353 61.875 21.2856 62.0199 21.0277 62.2777C20.7699 62.5356 20.625 62.8853 20.625 63.25V83.875H13.75V61.875C13.7547 57.8651 15.3498 54.0207 18.1852 51.1852C21.0207 48.3498 24.8651 46.7547 28.875 46.75H30.5525L33.0413 56.7091C33.0982 56.9315 33.21 57.1361 33.3664 57.3043C33.5227 57.4724 33.7187 57.5987 33.9364 57.6716C34.0772 57.722 34.2254 57.7485 34.375 57.75C34.6873 57.7501 34.9904 57.6439 35.2344 57.4489L40.9832 52.8495L43.1063 54.6686C43.3553 54.8817 43.6723 54.9987 44 54.9987C44.3277 54.9987 44.6447 54.8817 44.8938 54.6686L47.0168 52.8495L52.7656 57.4475C52.9455 57.5915 53.1587 57.688 53.3857 57.7281C53.6126 57.7682 53.846 57.7506 54.0643 57.6769C54.2827 57.6033 54.479 57.4759 54.6353 57.3066C54.7916 57.1372 54.9028 56.9313 54.9588 56.7078L57.4475 46.75H59.125C63.1349 46.7547 66.9793 48.3498 69.8148 51.1852C72.6502 54.0207 74.2453 57.8651 74.25 61.875V83.875Z" fill="black"/>
</svg>
