<svg width="42" height="48" viewBox="0 0 42 48" fill="none" xmlns="http://www.w3.org/2000/svg">
<g clip-path="url(#clip0_1422_16621)">
<path d="M40.919 25.5083L37.4653 19.2562C37.4653 19.2383 37.4653 19.2215 37.4653 19.2037C37.4653 18.7396 37.4475 16.139 37.4137 15.6833L37.2693 14.383C36.0656 6.19585 29.4375 1.63866 21.1481 1.01147C14.565 4.14554 9.94871 10.8262 9.85027 18.5671C9.73965 27.2399 15.2325 34.6443 22.9359 37.393L21.0196 46.4127L25.9172 47.0615L28.0621 39.0918C28.0903 39.1265 35.9259 39.7846 36.0768 39.7846C37.0162 39.7846 37.7109 39.0608 37.6743 38.1871V27.6637L40.0584 27.2577C40.8759 27.133 41.3193 26.2312 40.92 25.5074L40.919 25.5083Z" fill="#FFDAAE"/>
<path d="M24.1322 39.4968C24.0094 39.4968 23.8875 39.4734 23.7741 39.4256C23.6025 39.3553 23.4553 39.2343 23.3531 39.0797C23.3194 39.029 23.2903 38.9747 23.2669 38.9184C23.2435 38.8612 23.2256 38.8031 23.2135 38.7431C23.2013 38.6822 23.1947 38.6212 23.1947 38.5593C23.1947 38.4975 23.2013 38.4365 23.2135 38.3765C23.2378 38.2556 23.2847 38.1412 23.3531 38.039C23.3869 37.9875 23.4263 37.9397 23.4694 37.8965C23.5125 37.8534 23.5603 37.814 23.6119 37.7803C23.7141 37.7128 23.8285 37.665 23.9494 37.6406C24.0703 37.6162 24.195 37.6162 24.316 37.6406C24.375 37.6528 24.4341 37.6706 24.4913 37.694C24.5475 37.7175 24.6019 37.7465 24.6525 37.7803C24.7041 37.814 24.7519 37.8534 24.795 37.8965C24.9703 38.0728 25.0688 38.3109 25.0697 38.5593C25.0697 38.8068 24.9694 39.0478 24.795 39.2222C24.7519 39.2662 24.7041 39.3047 24.6525 39.3393C24.6019 39.3731 24.5475 39.4022 24.4913 39.4256C24.4341 39.449 24.375 39.4668 24.316 39.479C24.255 39.4912 24.1931 39.4968 24.1322 39.4968Z" fill="black"/>
<path d="M20.8219 7.33029C20.5097 6.96373 20.1853 6.60842 19.8497 6.26342C19.2403 5.63811 18.2372 5.63811 17.6269 6.26342C15.9253 8.00811 12.8691 11.7459 12.8672 16.0744C12.8653 21.3572 17.4197 25.7578 18.5063 26.7328H18.9694C19.3181 26.4197 20.0241 25.754 20.8209 24.8203C19.1325 22.8431 17.0325 19.6622 17.0334 16.0744C17.0344 12.4875 19.1325 9.30842 20.82 7.33029H20.8219Z" fill="white"/>
<path d="M20.8219 7.33032C19.1344 9.30845 17.0363 12.4875 17.0344 16.0744C17.0335 19.6622 19.1335 22.8422 20.8219 24.8203C22.5104 22.8431 24.6104 19.6622 24.6094 16.0744C24.6075 12.4884 22.5094 9.30845 20.8219 7.33032Z" fill="#EF4635"/>
<path d="M11.4272 9.47255C11.4881 9.24098 11.6016 9.02723 11.7591 8.84817C11.3288 8.67848 10.8928 8.5238 10.4522 8.38598C9.60752 8.12161 8.71408 8.61661 8.49002 9.47348C8.29689 10.2122 8.09158 11.1788 7.98096 12.2607C9.41439 12.435 11.3494 12.8297 13.1597 13.7194C13.2403 13.3904 13.336 13.0641 13.4447 12.7435C12.5269 12.4997 11.655 12.3507 10.9181 12.2607C11.0288 11.1788 11.2341 10.2122 11.4272 9.47348V9.47255Z" fill="white"/>
<path d="M11.759 8.84805C11.6015 9.02805 11.4881 9.2418 11.4272 9.47243C11.234 10.2112 11.0287 11.1777 10.9181 12.2596C11.6559 12.3496 12.5268 12.4987 13.4447 12.7424C13.7428 11.8631 14.1337 11.0324 14.5706 10.2674C13.6134 9.65618 12.63 9.19305 11.7581 8.84805H11.759ZM29.4956 12.2596C29.385 11.1777 29.1797 10.2112 28.9865 9.47243C28.7625 8.61649 27.869 8.12055 27.0243 8.38493C25.9303 8.72712 24.3853 9.32149 22.905 10.2665C23.5003 11.3099 24.014 12.4734 24.3168 13.7174C26.1272 12.8287 28.0622 12.4331 29.4956 12.2587V12.2596Z" fill="#F4BA64"/>
<path d="M11.6615 23.0099C9.14998 20.1356 8.95216 15.914 9.05623 13.6659C9.07779 13.2046 9.2981 12.8015 9.62904 12.5324C8.8706 12.3731 8.10279 12.2587 7.33029 12.1912C6.45279 12.1134 5.6906 12.7865 5.64935 13.6659C5.54623 15.914 5.7431 20.1356 8.25466 23.0099C10.4372 25.5074 13.8609 26.4084 16.1915 26.7318H18.5062C18.435 26.6681 18.3478 26.5884 18.2484 26.4946C16.0762 26.0315 13.4512 25.0574 11.6606 23.009L11.6615 23.0099Z" fill="white"/>
<path d="M12.8681 16.0744C12.8681 15.2653 12.9759 14.4778 13.1606 13.7194C11.9784 13.1391 10.7437 12.7688 9.62902 12.5334C9.29809 12.8025 9.07684 13.2056 9.05621 13.6669C8.95309 15.915 9.14996 20.1366 11.6615 23.0109C13.4521 25.0594 16.0771 26.0334 18.2493 26.4966C16.8412 25.1756 12.8681 21.0103 12.8681 16.0753V16.0744Z" fill="#FF8C5A"/>
<path d="M27.9225 15.8849C27.9225 15.0309 27.809 14.1993 27.614 13.3987C28.6706 12.8793 29.7665 12.5212 30.7922 12.2727C30.585 12.1996 30.3647 12.1715 30.1462 12.1912C28.6894 12.3196 26.4178 12.6862 24.3159 13.7184C24.5006 14.4768 24.6084 15.2652 24.6084 16.0734C24.6084 21.3571 20.054 25.7577 18.9694 26.7318H21.284C21.7425 26.668 22.199 26.5884 22.6519 26.4909C24.3787 24.7762 27.9234 20.6737 27.9234 15.884L27.9225 15.8849Z" fill="white"/>
<path d="M29.2218 23.0099C31.7343 20.1355 31.9312 15.914 31.8271 13.6658C31.7971 13.0133 31.3696 12.4752 30.7921 12.2727C29.7665 12.5211 28.6706 12.8802 27.614 13.3986C27.809 14.1993 27.9224 15.0318 27.9224 15.8849C27.9224 20.6736 24.3787 24.7761 22.6509 26.4908C24.8193 26.0268 27.4349 25.0518 29.2209 23.009L29.2218 23.0099Z" fill="#FF8C5A"/>
<path d="M41.7393 25.0556L38.4028 19.0153C38.3999 18.2822 38.3831 16.0706 38.3493 15.615C38.3484 15.6038 38.3474 15.5925 38.3465 15.5813L38.2021 14.2809C38.2012 14.2697 38.1993 14.2594 38.1974 14.2481C37.5459 9.81844 35.3306 6.14906 31.7887 3.63469C28.4924 1.29469 24.1959 0.0384375 19.3621 0C19.3115 0 19.2618 0 19.2112 0C8.73838 0 0.134946 8.47219 0.00182123 18.9544C-0.0994288 26.8903 4.68276 34.0406 11.9803 37.0003L10.2984 44.9184C10.1906 45.4247 10.514 45.9225 11.0203 46.0303C11.0437 46.035 11.0681 46.0397 11.0915 46.0425L25.7943 47.9916C26.2603 48.0534 26.7009 47.76 26.8228 47.3063L28.7596 40.1081C28.8993 40.1213 29.054 40.1353 29.2209 40.1503C30.0862 40.2281 31.1793 40.3219 31.9434 40.3875C32.6034 40.4438 35.9034 40.7241 36.0768 40.7241C36.7949 40.7241 37.454 40.4484 37.934 39.9488C38.3934 39.4697 38.6343 38.8388 38.6118 38.1722V28.4569L40.2093 28.185C40.8928 28.0772 41.4815 27.6441 41.7871 27.0234C42.0937 26.3991 42.0768 25.665 41.7403 25.0566L41.7393 25.0556ZM40.1043 26.1947C40.0781 26.2481 40.0237 26.3156 39.9168 26.3325C39.9112 26.3325 39.9065 26.3344 39.9009 26.3353L37.5168 26.7413C37.0659 26.8181 36.7368 27.2081 36.7368 27.6656V38.1891C36.7368 38.2022 36.7368 38.2153 36.7368 38.2284C36.7453 38.4328 36.6562 38.5706 36.5803 38.6503C36.4612 38.7741 36.2896 38.8444 36.0956 38.8481C35.5612 38.8144 28.8609 38.2509 28.2431 38.1731C27.7593 38.0784 27.2849 38.3738 27.1574 38.8491L25.2262 46.0247L12.3421 44.3166L13.7887 37.5066L20.2631 38.7703C20.3221 38.7816 20.3831 38.7881 20.444 38.7881C20.8837 38.7881 21.2756 38.4778 21.3628 38.0306C21.4621 37.5225 21.1303 37.0303 20.6221 36.9309L13.3162 35.5041C6.37588 32.9991 1.7812 26.3663 1.87495 18.9778C1.99682 9.51937 9.75932 1.875 19.2112 1.875C19.2562 1.875 19.3021 1.875 19.3481 1.875C28.6884 1.94813 35.1974 6.78656 36.3403 14.5041L36.4809 15.7688C36.4996 16.0538 36.5146 17.1863 36.5221 18.0938H34.5121C33.9946 18.0938 33.5746 18.5138 33.5746 19.0313C33.5746 19.5488 33.9946 19.9688 34.5121 19.9688H36.7884L40.0996 25.9622C40.1521 26.0569 40.1315 26.1413 40.1053 26.1947H40.1043Z" fill="black"/>
<path d="M31.9143 11.8612C31.4625 11.4665 30.9009 11.2528 30.3103 11.2481C30.2062 10.5703 30.0675 9.89901 29.894 9.23526C29.7206 8.57808 29.2865 8.01933 28.6922 7.68839C28.0922 7.35558 27.4003 7.28526 26.745 7.49058C25.8318 7.77651 24.5447 8.25464 23.2256 8.98683C22.3172 7.57401 21.3075 6.41526 20.5209 5.60808C20.0484 5.12339 19.4156 4.8562 18.7387 4.8562C18.0618 4.8562 17.429 5.12339 16.9565 5.60808C16.17 6.41526 15.1603 7.57308 14.2518 8.98589C12.9337 8.2537 11.6456 7.77558 10.7325 7.48964C10.0772 7.28433 9.38528 7.35464 8.78528 7.68745C8.1909 8.01839 7.75684 8.5762 7.5834 9.23433C7.40997 9.89714 7.27028 10.5693 7.16715 11.2471C6.57653 11.2528 6.01403 11.4656 5.56309 11.8603C5.05309 12.3084 4.74653 12.944 4.71372 13.6218C4.60309 16.02 4.82528 20.5078 7.54965 23.6259C9.89434 26.3081 13.4737 27.3 16.064 27.66C16.1072 27.6656 16.1493 27.6693 16.1934 27.6693H21.2859C21.329 27.6693 21.3722 27.6665 21.4153 27.66C24.0056 27.3 27.585 26.3081 29.9297 23.6259C32.655 20.5078 32.8762 16.02 32.7656 13.6218C32.7347 12.9468 32.4253 12.3046 31.9162 11.8603L31.9143 11.8612ZM27.3047 9.28026C27.464 9.22964 27.6375 9.24745 27.7837 9.32901C27.9309 9.40964 28.0378 9.54745 28.08 9.71058C28.2318 10.289 28.3547 10.875 28.4475 11.4656C27.5118 11.6231 26.4665 11.8687 25.4081 12.2465C25.3893 12.2531 25.3715 12.2596 25.3528 12.2662C25.2272 12.3112 25.1025 12.359 24.9768 12.4078C24.9572 12.4153 24.9365 12.4228 24.9159 12.4303C24.7012 11.7984 24.4425 11.1928 24.1537 10.6153C25.3293 9.96464 26.4834 9.53714 27.3037 9.28026H27.3047ZM18.2981 6.91776C18.4153 6.79776 18.5709 6.73214 18.7378 6.73214C18.9047 6.73214 19.0612 6.79776 19.1775 6.91776C20.0147 7.77651 21.135 9.07308 22.0481 10.649C22.0603 10.6771 22.0743 10.7053 22.0903 10.7325C22.7072 11.8134 23.1497 12.8915 23.4047 13.9378V13.9415C23.4497 14.1225 23.4881 14.3025 23.5209 14.4825C23.5359 14.5668 23.55 14.6493 23.5631 14.7328C23.5668 14.7553 23.5697 14.7778 23.5734 14.7993C23.5875 14.8959 23.6006 14.9915 23.6118 15.0871C23.6203 15.1574 23.6278 15.2287 23.6343 15.299C23.6381 15.3412 23.6409 15.3834 23.6447 15.4256C23.6503 15.4987 23.655 15.5709 23.6587 15.645C23.6606 15.6796 23.6625 15.7143 23.6634 15.75C23.6681 15.8587 23.67 15.9675 23.6709 16.0762C23.6709 16.2 23.6672 16.3237 23.6615 16.4475C23.6606 16.4681 23.6597 16.4887 23.6587 16.5093C23.6531 16.6228 23.6447 16.7362 23.6334 16.8487C23.6212 16.9856 23.6053 17.1225 23.5865 17.2593C23.5818 17.2912 23.5772 17.3231 23.5725 17.354C23.5565 17.46 23.5397 17.5659 23.52 17.6718C23.5143 17.7009 23.5087 17.7299 23.5031 17.759C23.4853 17.8509 23.4665 17.9418 23.4459 18.0318C23.4384 18.0665 23.43 18.1012 23.4225 18.135C23.4 18.2287 23.3765 18.3215 23.3522 18.4153C23.3428 18.4509 23.3334 18.4865 23.324 18.5221C23.2865 18.6562 23.2462 18.7903 23.204 18.9225C23.174 19.0162 23.1431 19.109 23.1112 19.2009C23.0981 19.2384 23.085 19.275 23.0709 19.3125C23.04 19.3968 23.009 19.4812 22.9772 19.5646C22.9612 19.605 22.9453 19.6453 22.9293 19.6856C22.8993 19.7615 22.8684 19.8365 22.8365 19.9115C22.8215 19.9471 22.8065 19.9837 22.7906 20.0193C22.7531 20.1056 22.7147 20.1918 22.6753 20.2762C22.6584 20.3118 22.6425 20.3484 22.6256 20.384C22.5684 20.5059 22.5093 20.6278 22.4484 20.7478C22.4053 20.8331 22.3612 20.9184 22.3172 21.0028C22.3003 21.0346 22.2834 21.0656 22.2665 21.0975C22.2075 21.2071 22.1465 21.3159 22.0847 21.4246C22.0425 21.4987 21.9993 21.5728 21.9553 21.6459C21.9393 21.6731 21.9234 21.7003 21.9065 21.7275C21.8568 21.8109 21.8062 21.8925 21.7547 21.974L21.7022 22.0575C21.6506 22.1381 21.599 22.2187 21.5475 22.2975C21.5306 22.3228 21.5137 22.3481 21.4968 22.3734C21.4434 22.454 21.389 22.5337 21.3347 22.6124L21.2934 22.6715C21.2409 22.7465 21.1893 22.8206 21.1368 22.8937C21.1265 22.9087 21.1162 22.9237 21.105 22.9378C21.0478 23.0165 20.9906 23.0943 20.9334 23.1712C20.9203 23.1881 20.9081 23.2059 20.895 23.2228C20.8378 23.2996 20.7806 23.3746 20.7234 23.4478L20.6831 23.4993C20.5575 23.6606 20.43 23.82 20.2987 23.9775L20.2818 23.9971C20.16 24.1434 20.0372 24.2887 19.9115 24.4312L19.89 24.4556C19.8318 24.5212 19.7747 24.585 19.7184 24.6478L19.6968 24.6721C19.6397 24.735 19.5834 24.7968 19.5281 24.8568L19.5178 24.8681C19.4072 24.9881 19.2947 25.1062 19.1803 25.2234C19.1268 25.2778 19.0762 25.3303 19.0256 25.3809L19.0181 25.3884C18.9693 25.4371 18.9225 25.484 18.8765 25.529L18.87 25.5356C18.824 25.5806 18.78 25.6237 18.7378 25.665C18.6956 25.6246 18.6515 25.5815 18.6056 25.5365L18.5981 25.529C18.5522 25.484 18.5053 25.4371 18.4565 25.3884L18.449 25.3809C18.3975 25.3284 18.3459 25.2768 18.2943 25.2234C18.18 25.1053 18.0675 24.9871 17.9559 24.8662L17.9475 24.8568C17.8903 24.795 17.8331 24.7321 17.7759 24.6693L17.7581 24.6496C17.699 24.5849 17.6409 24.5193 17.5837 24.4537L17.5659 24.434C17.504 24.3637 17.4431 24.2934 17.3822 24.2221L17.3775 24.2165C17.3147 24.1425 17.2509 24.0674 17.1872 23.9906L17.1787 23.9803C17.1168 23.9053 17.055 23.8303 16.994 23.7543L16.9678 23.7215C16.9087 23.6475 16.8487 23.5715 16.7887 23.4946L16.7559 23.4525C16.6968 23.3756 16.6368 23.2978 16.5778 23.2181L16.5478 23.1778C16.4859 23.0953 16.425 23.0118 16.364 22.9275L16.3481 22.905C16.29 22.8243 16.2328 22.7437 16.1765 22.6612C16.1662 22.6462 16.1559 22.6312 16.1447 22.6162C16.0884 22.5337 16.0312 22.4503 15.975 22.3659C15.9609 22.3443 15.9468 22.3228 15.9318 22.3012C15.8775 22.2178 15.8231 22.1343 15.7697 22.0499C15.7547 22.0265 15.7406 22.0031 15.7256 21.9796C15.6712 21.8934 15.6187 21.8071 15.5662 21.7199C15.5531 21.6984 15.5409 21.6768 15.5278 21.6553C15.479 21.5737 15.4303 21.4903 15.3834 21.4068C15.3703 21.3843 15.3581 21.3618 15.345 21.3393C15.2972 21.2549 15.2512 21.1706 15.2053 21.0853C15.1912 21.059 15.1772 21.0328 15.1631 21.0065C15.1003 20.8875 15.0384 20.7675 14.9784 20.6475C14.9343 20.5584 14.8903 20.4675 14.8481 20.3765C14.834 20.3456 14.819 20.3146 14.805 20.2837C14.7618 20.1909 14.7206 20.0971 14.6793 20.0034C14.6681 19.9762 14.6568 19.949 14.6447 19.9218C14.609 19.8384 14.5753 19.755 14.5415 19.6706C14.5293 19.6406 14.5181 19.6115 14.5059 19.5815C14.4703 19.4887 14.4356 19.3959 14.4018 19.3012C14.3906 19.2684 14.3784 19.2356 14.3672 19.2037C14.2875 18.9768 14.2162 18.7471 14.1515 18.5146C14.1431 18.4828 14.1347 18.4509 14.1262 18.419C14.099 18.3187 14.0737 18.2193 14.0503 18.1181C14.0437 18.0909 14.0381 18.0646 14.0325 18.0375C14.0109 17.9418 13.9903 17.8453 13.9715 17.7487C13.9668 17.7225 13.9612 17.6971 13.9565 17.6709C13.9368 17.5631 13.919 17.4553 13.9031 17.3465C13.8984 17.3165 13.8937 17.2875 13.89 17.2584C13.875 17.1496 13.8618 17.04 13.8506 16.9303C13.8478 16.9031 13.845 16.875 13.8431 16.8478C13.8328 16.7334 13.8243 16.62 13.8178 16.5056C13.8168 16.4859 13.8159 16.4662 13.815 16.4465C13.8093 16.3228 13.8065 16.1981 13.8056 16.0743C13.8056 15.9646 13.8084 15.8568 13.8131 15.7481C13.814 15.7125 13.8168 15.6768 13.8178 15.6403C13.8215 15.569 13.8262 15.4987 13.8318 15.4275C13.8356 15.3834 13.8384 15.3393 13.8422 15.2953C13.8468 15.239 13.8543 15.1837 13.86 15.1275C13.8731 15.014 13.8872 14.8996 13.904 14.7853L13.9115 14.7356C13.9537 14.4684 14.0062 14.2031 14.0709 13.9396V13.9359C14.3268 12.8896 14.7684 11.8115 15.3853 10.7306C15.4003 10.7034 15.4143 10.6771 15.4265 10.649C16.3397 9.07308 17.46 7.77558 18.2981 6.91683V6.91776ZM9.69278 9.32901C9.83903 9.24745 10.0125 9.22964 10.1718 9.28026C10.9931 9.53714 12.1472 9.96464 13.3218 10.6143C13.0331 11.1918 12.7743 11.7984 12.5597 12.4293C12.5381 12.4209 12.5175 12.4134 12.4959 12.405C12.3731 12.3571 12.2503 12.3103 12.1265 12.2662L12.0656 12.2446C11.0081 11.8678 9.96372 11.6221 9.02903 11.4646C9.12184 10.874 9.24465 10.2881 9.39653 9.70964C9.43872 9.54745 9.54559 9.40964 9.69278 9.32808V9.32901ZM8.96059 22.3931C6.66747 19.769 6.4884 15.8259 6.5859 13.709C6.5934 13.5412 6.66934 13.3828 6.7959 13.2721C6.91965 13.1625 7.08278 13.109 7.24778 13.125C7.4484 13.1428 7.66497 13.1653 7.88997 13.1934C8.99809 13.3303 10.5618 13.6246 12.089 14.2621C12.0881 14.2696 12.0872 14.2771 12.0853 14.2846C12.0637 14.4103 12.045 14.5378 12.0272 14.6653C12.0243 14.6878 12.0206 14.7112 12.0178 14.7337C12.0018 14.8603 11.9878 14.9878 11.9756 15.1162C11.9737 15.1387 11.9709 15.1612 11.969 15.1828C11.9587 15.3075 11.9503 15.4321 11.9447 15.5568C11.9437 15.5812 11.9409 15.6056 11.94 15.6309C11.9334 15.7781 11.9306 15.9253 11.9306 16.0725C11.9306 16.1887 11.9334 16.304 11.9372 16.4193C11.9372 16.4446 11.939 16.47 11.94 16.4962C11.9503 16.7456 11.969 16.995 11.9972 17.2434C12.0234 17.4768 12.0572 17.7093 12.0975 17.9381L12.104 17.9756C12.1462 18.209 12.195 18.4406 12.2512 18.6693L12.2568 18.6909C12.314 18.9253 12.3787 19.1587 12.45 19.3893C12.4856 19.5046 12.5231 19.619 12.5615 19.7334C12.6375 19.9556 12.7181 20.1768 12.8053 20.3943L12.8128 20.4131C12.8981 20.6268 12.989 20.8378 13.0837 21.0468L13.095 21.0712C13.1887 21.2756 13.2862 21.4771 13.3884 21.6768L13.4043 21.7087C13.5037 21.9028 13.6078 22.095 13.7147 22.2853L13.7353 22.3218C13.8393 22.5056 13.9472 22.6875 14.0587 22.8675L14.0859 22.9106C14.1393 22.9968 14.1928 23.0821 14.2472 23.1665L14.25 23.1703C14.3053 23.2565 14.3606 23.3409 14.4168 23.4253L14.4487 23.4731C14.4984 23.5471 14.5481 23.6203 14.5987 23.6934L14.6175 23.7206C14.6728 23.8003 14.7272 23.8781 14.7825 23.955L14.82 24.0065C14.8668 24.0712 14.9128 24.135 14.9597 24.1987C14.97 24.2128 14.9812 24.2278 14.9915 24.2418C15.0459 24.3149 15.0993 24.3871 15.1537 24.4575C15.1678 24.4753 15.1809 24.4931 15.194 24.5109C15.2372 24.5681 15.2812 24.6243 15.3243 24.6796C15.3384 24.6975 15.3525 24.7153 15.3665 24.7331C15.419 24.7996 15.4715 24.8653 15.5231 24.93L15.5672 24.9843C15.6075 25.035 15.6487 25.0846 15.689 25.1334L15.7378 25.1925C15.7884 25.2534 15.8381 25.3134 15.8887 25.3715C15.9037 25.3893 15.9187 25.4071 15.9347 25.425C15.9731 25.47 16.0106 25.514 16.049 25.5571L16.1025 25.619C16.1503 25.6743 16.1981 25.7287 16.2459 25.7812L16.2553 25.7924C13.9875 25.469 10.9059 24.6159 8.96059 22.3903V22.3931ZM28.5159 22.3931C26.5706 24.6187 23.489 25.4718 21.2212 25.7943L21.2278 25.7868C21.2775 25.7306 21.3281 25.6734 21.3797 25.6153L21.4218 25.5675C21.4659 25.5168 21.5109 25.4653 21.555 25.4128L21.584 25.379C21.6375 25.3162 21.6909 25.2525 21.7453 25.1878L21.779 25.1465C21.8268 25.0884 21.8747 25.0303 21.9234 24.9703C21.9318 24.96 21.9403 24.9496 21.9487 24.9393C22.005 24.8699 22.0612 24.7987 22.1175 24.7275L22.1409 24.6975C22.2009 24.6215 22.26 24.5446 22.3181 24.4678C22.3762 24.3909 22.4343 24.314 22.4934 24.2353L22.5037 24.2212C22.6884 23.9709 22.8675 23.7168 23.0409 23.459L23.055 23.4384C23.174 23.2603 23.2893 23.0803 23.4028 22.8984L23.4131 22.8825C23.5293 22.694 23.6428 22.5028 23.7515 22.3106L23.7572 22.3012C23.8697 22.1025 23.9775 21.9018 24.0815 21.6984L24.0834 21.6937C24.5597 20.7628 24.9637 19.7531 25.2253 18.6825V18.6778C25.2834 18.4443 25.3331 18.209 25.3762 17.9709L25.3809 17.9456C25.4222 17.7131 25.4559 17.4787 25.4822 17.2415L25.4878 17.1937C25.515 16.9378 25.5328 16.6809 25.5422 16.4231C25.5459 16.3078 25.5487 16.1925 25.5487 16.0762C25.5487 15.9281 25.545 15.7809 25.5384 15.6346C25.5375 15.6056 25.5347 15.5765 25.5328 15.5484C25.5262 15.4275 25.5197 15.3075 25.5084 15.1875C25.5065 15.1603 25.5028 15.1331 25.5 15.1059C25.4887 14.9831 25.4756 14.8603 25.4597 14.7384C25.4559 14.7103 25.4512 14.6831 25.4475 14.655C25.4306 14.5331 25.4128 14.4112 25.3922 14.2912C25.3903 14.2818 25.3893 14.2725 25.3884 14.264C26.9165 13.6265 28.4793 13.3312 29.5875 13.1953C29.8134 13.1681 30.029 13.1446 30.2297 13.1268C30.3937 13.1118 30.5578 13.1653 30.6815 13.274C30.809 13.3846 30.885 13.5421 30.8915 13.7109C30.989 15.8278 30.81 19.77 28.5168 22.394L28.5159 22.3931Z" fill="black"/>
</g>
<defs>
<clipPath id="clip0_1422_16621">
<rect width="42.0047" height="48" fill="white"/>
</clipPath>
</defs>
</svg>
