<svg width="48" height="48" viewBox="0 0 48 48" fill="none" xmlns="http://www.w3.org/2000/svg">
<path d="M24 44C21.2333 44 18.6333 43.4747 16.2 42.424C13.7667 41.3733 11.65 39.9487 9.85 38.15C8.05 36.35 6.62533 34.2333 5.576 31.8C4.52667 29.3667 4.00133 26.7667 4 24C4 21.2333 4.52533 18.6333 5.576 16.2C6.62667 13.7667 8.05133 11.65 9.85 9.85C11.65 8.05 13.7667 6.62533 16.2 5.576C18.6333 4.52667 21.2333 4.00133 24 4C26.7667 4 29.3667 4.52533 31.8 5.576C34.2333 6.62667 36.35 8.05133 38.15 9.85C39.95 11.65 41.3753 13.7667 42.426 16.2C43.4767 18.6333 44.0013 21.2333 44 24C44 26.7667 43.4747 29.3667 42.424 31.8C41.3733 34.2333 39.9487 36.35 38.15 38.15C36.35 39.95 34.2333 41.3753 31.8 42.426C29.3667 43.4767 26.7667 44.0013 24 44ZM18.2 38.9L20.6 33.4C19.2 32.9 17.992 32.1253 16.976 31.076C15.96 30.0267 15.168 28.8013 14.6 27.4L9.1 29.7C9.86667 31.8333 11.05 33.7 12.65 35.3C14.25 36.9 16.1 38.1 18.2 38.9ZM14.6 20.6C15.1667 19.2 15.9587 17.9753 16.976 16.926C17.9933 15.8767 19.2013 15.1013 20.6 14.6L18.3 9.1C16.1667 9.9 14.3 11.1 12.7 12.7C11.1 14.3 9.9 16.1667 9.1 18.3L14.6 20.6ZM24 30C25.6667 30 27.0833 29.4167 28.25 28.25C29.4167 27.0833 30 25.6667 30 24C30 22.3333 29.4167 20.9167 28.25 19.75C27.0833 18.5833 25.6667 18 24 18C22.3333 18 20.9167 18.5833 19.75 19.75C18.5833 20.9167 18 22.3333 18 24C18 25.6667 18.5833 27.0833 19.75 28.25C20.9167 29.4167 22.3333 30 24 30ZM29.8 38.9C31.9 38.1 33.742 36.9087 35.326 35.326C36.91 33.7433 38.1013 31.9013 38.9 29.8L33.4 27.4C32.9 28.8 32.1333 30.0087 31.1 31.026C30.0667 32.0433 28.8667 32.8347 27.5 33.4L29.8 38.9ZM33.4 20.5L38.9 18.2C38.1 16.1 36.9087 14.2587 35.326 12.676C33.7433 11.0933 31.9013 9.90133 29.8 9.1L27.5 14.7C28.8667 15.2 30.05 15.9587 31.05 16.976C32.05 17.9933 32.8333 19.168 33.4 20.5Z" fill="white"/>
</svg>
