<svg width="33" height="33" viewBox="0 0 33 33" fill="none" xmlns="http://www.w3.org/2000/svg">
<path d="M9.94406 0.5H23.3841C28.5041 0.5 32.6641 4.66 32.6641 9.78V23.22C32.6641 25.6812 31.6864 28.0416 29.946 29.782C28.2057 31.5223 25.8453 32.5 23.3841 32.5H9.94406C4.82406 32.5 0.664062 28.34 0.664062 23.22V9.78C0.664063 7.31879 1.64177 4.95839 3.38211 3.21805C5.12245 1.47771 7.48285 0.5 9.94406 0.5ZM9.62406 3.7C8.09642 3.7 6.63134 4.30686 5.55113 5.38707C4.47092 6.46727 3.86406 7.93235 3.86406 9.46V23.54C3.86406 26.724 6.44006 29.3 9.62406 29.3H23.7041C25.2317 29.3 26.6968 28.6931 27.777 27.6129C28.8572 26.5327 29.4641 25.0676 29.4641 23.54V9.46C29.4641 6.276 26.8881 3.7 23.7041 3.7H9.62406ZM25.0641 6.1C25.5945 6.1 26.1032 6.31071 26.4783 6.68579C26.8534 7.06086 27.0641 7.56957 27.0641 8.1C27.0641 8.63043 26.8534 9.13914 26.4783 9.51421C26.1032 9.88929 25.5945 10.1 25.0641 10.1C24.5336 10.1 24.0249 9.88929 23.6498 9.51421C23.2748 9.13914 23.0641 8.63043 23.0641 8.1C23.0641 7.56957 23.2748 7.06086 23.6498 6.68579C24.0249 6.31071 24.5336 6.1 25.0641 6.1ZM16.6641 8.5C18.7858 8.5 20.8206 9.34285 22.3209 10.8431C23.8212 12.3434 24.6641 14.3783 24.6641 16.5C24.6641 18.6217 23.8212 20.6566 22.3209 22.1569C20.8206 23.6571 18.7858 24.5 16.6641 24.5C14.5423 24.5 12.5075 23.6571 11.0072 22.1569C9.50692 20.6566 8.66406 18.6217 8.66406 16.5C8.66406 14.3783 9.50692 12.3434 11.0072 10.8431C12.5075 9.34285 14.5423 8.5 16.6641 8.5ZM16.6641 11.7C15.391 11.7 14.1701 12.2057 13.2699 13.1059C12.3698 14.0061 11.8641 15.227 11.8641 16.5C11.8641 17.773 12.3698 18.9939 13.2699 19.8941C14.1701 20.7943 15.391 21.3 16.6641 21.3C17.9371 21.3 19.158 20.7943 20.0582 19.8941C20.9584 18.9939 21.4641 17.773 21.4641 16.5C21.4641 15.227 20.9584 14.0061 20.0582 13.1059C19.158 12.2057 17.9371 11.7 16.6641 11.7Z" fill="#3345E4"/>
</svg>
