<svg width="40" height="40" viewBox="0 0 40 40" fill="none" xmlns="http://www.w3.org/2000/svg">
<g clip-path="url(#clip0_614_27188)">
<path d="M27.7556 11.7188H12.2444L14.5881 7.03125H25.4119L27.7556 11.7188ZM12.4835 14.0625H27.5165L20 21.579L12.4835 14.0625ZM21.1719 0H18.8281V4.6875H21.1719V0ZM30.4473 1.75898L28.7906 0.102109L24.7904 4.10234L26.4472 5.75922L30.4473 1.75898ZM15.2146 4.10406L11.2144 0.103906L9.55758 1.76078L13.5578 5.76094L15.2146 4.10406ZM30.625 24.7656H9.375V28.2812H30.625V24.7656ZM40 36.4844H0V40H40V36.4844ZM35.3125 30.625H4.6875V34.1406H35.3125V30.625Z" fill="white"/>
</g>
<defs>
<clipPath id="clip0_614_27188">
<rect width="40" height="40" fill="white" transform="matrix(-1 0 0 1 40 0)"/>
</clipPath>
</defs>
</svg>
