<svg width="40" height="40" viewBox="0 0 40 40" fill="none" xmlns="http://www.w3.org/2000/svg">
<g clip-path="url(#clip0_614_27206)">
<path d="M18.8281 2.48125V0H21.1719V2.48125C29.9291 3.06273 36.9373 10.0709 37.5187 18.8281H40V21.1719H37.5187C36.9373 29.9291 29.9291 36.9373 21.1719 37.5187V40H18.8281V37.5187C10.0709 36.9373 3.06274 29.9291 2.48125 21.1719H0V18.8281H2.48125C3.06274 10.0709 10.0709 3.06273 18.8281 2.48125ZM18.8281 35.175V32.8906H21.1719V35.175C28.6366 34.6025 34.6025 28.6366 35.175 21.1719H32.8906V18.8281H35.175C34.6025 11.3634 28.6366 5.3975 21.1719 4.825V7.10938H18.8281V4.825C11.3634 5.3975 5.3975 11.3634 4.825 18.8281H7.10938V21.1719H4.825C5.3975 28.6366 11.3634 34.6025 18.8281 35.175ZM32.9688 2.34375V0H40V7.03125H37.6562V2.34375H32.9688ZM2.34375 37.6562H7.03125V40H0V32.9688H2.34375V37.6562ZM7.03125 2.34375H2.34375V7.03125H0V0H7.03125V2.34375ZM40 32.9688V40H32.9688V37.6562H37.6562V32.9688H40Z" fill="white"/>
<path d="M20 13.9805L22.8015 18.5112L28.4171 15.9935L25.5687 25.8595H14.4553L11.338 16.0679L17.187 18.5306L20 13.9805Z" fill="white"/>
</g>
<defs>
<clipPath id="clip0_614_27206">
<rect width="40" height="40" fill="white" transform="matrix(-1 0 0 1 40 0)"/>
</clipPath>
</defs>
</svg>
