<svg width="40" height="40" viewBox="0 0 40 40" fill="none" xmlns="http://www.w3.org/2000/svg">
<path d="M20.1584 30.0083C18.9417 30.0083 8.2417 30.1083 8.2417 33.3333C8.0917 37.7917 32.2 37.8083 32.0834 33.3333C32.0834 30.1083 21.3834 30.0083 20.1584 30.0083ZM16.625 33.2917C16.575 32.2583 23.7417 32.2583 23.7 33.2917C23.75 34.3167 16.5834 34.3167 16.625 33.2917ZM37.3084 9.56665C36.9502 9.21586 36.5073 8.96381 36.0228 8.83505C35.5383 8.7063 35.0288 8.70522 34.5437 8.83194C34.0587 8.95865 33.6147 9.20883 33.2551 9.55811C32.8955 9.90738 32.6325 10.3438 32.4917 10.825H30.8167V4.14998C30.816 3.92917 30.728 3.71759 30.5719 3.56146C30.4158 3.40532 30.2042 3.31731 29.9834 3.31665H9.98337C9.76256 3.31731 9.55098 3.40532 9.39484 3.56146C9.23871 3.71759 9.1507 3.92917 9.15004 4.14998V10.8417H7.48337C5.72504 6.39165 -0.433296 10.1333 2.6917 13.7583C3.04865 14.1106 3.49093 14.3642 3.97527 14.4943C4.45962 14.6245 4.96945 14.6266 5.45488 14.5007C5.94032 14.3747 6.38475 14.1249 6.7447 13.7756C7.10464 13.4264 7.36778 12.9897 7.50837 12.5083H9.15004V19.1917C9.15093 19.3209 9.18144 19.4482 9.23923 19.5637C9.29701 19.6793 9.38054 19.7801 9.48337 19.8583L13.025 22.5167L11.9917 23.55C11.3768 23.2304 10.6674 23.1426 9.99305 23.3027C9.31874 23.4628 8.72451 23.8601 8.31886 24.422C7.91321 24.9839 7.7232 25.673 7.78352 26.3634C7.84385 27.0539 8.15049 27.6996 8.64746 28.1826C9.14442 28.6657 9.79855 28.9539 10.4904 28.9946C11.1823 29.0353 11.8657 28.8258 12.4159 28.4044C12.9661 27.983 13.3463 27.3777 13.4873 26.6992C13.6282 26.0206 13.5203 25.314 13.1834 24.7083L14.3667 23.525L19.4834 27.375C19.6276 27.4832 19.8031 27.5417 19.9834 27.5417C20.1637 27.5417 20.3391 27.4832 20.4834 27.375L25.8084 23.375L27.1417 24.7083C26.8051 25.3136 26.6974 26.0198 26.8383 26.6979C26.9792 27.3761 27.3593 27.9809 27.9092 28.402C28.4591 28.8231 29.1421 29.0324 29.8335 28.9917C30.5249 28.951 31.1786 28.6629 31.6752 28.1802C32.1719 27.6974 32.4783 27.0521 32.5387 26.3622C32.599 25.6722 32.4091 24.9835 32.0038 24.4219C31.5985 23.8603 31.0046 23.4632 30.3308 23.3031C29.6569 23.1431 28.948 23.2307 28.3334 23.55L27.15 22.3667L30.4834 19.8583C30.5862 19.7801 30.6697 19.6793 30.7275 19.5637C30.7853 19.4482 30.8158 19.3209 30.8167 19.1917V12.4917H32.5167C34.275 16.9417 40.4417 13.1917 37.3084 9.56665ZM24.7417 16.75C24.7417 17.3917 24.4874 18.0072 24.0344 18.4618C23.5814 18.9163 22.9667 19.1728 22.325 19.175H21.4084V20.0083C21.4084 20.2293 21.3206 20.4413 21.1643 20.5976C21.008 20.7539 20.7961 20.8417 20.575 20.8417C20.354 20.8417 20.1421 20.7539 19.9858 20.5976C19.8295 20.4413 19.7417 20.2293 19.7417 20.0083V19.175H18.9084V20.0083C18.9084 20.2293 18.8206 20.4413 18.6643 20.5976C18.508 20.7539 18.2961 20.8417 18.075 20.8417C17.854 20.8417 17.6421 20.7539 17.4858 20.5976C17.3295 20.4413 17.2417 20.2293 17.2417 20.0083V19.175H16.4084C16.1874 19.175 15.9754 19.0872 15.8191 18.9309C15.6628 18.7746 15.575 18.5627 15.575 18.3417C15.575 18.1206 15.6628 17.9087 15.8191 17.7524C15.9754 17.5961 16.1874 17.5083 16.4084 17.5083H17.2417V10.8417H16.4084C16.1874 10.8417 15.9754 10.7539 15.8191 10.5976C15.6628 10.4413 15.575 10.2293 15.575 10.0083C15.575 9.7873 15.6628 9.57534 15.8191 9.41906C15.9754 9.26278 16.1874 9.17498 16.4084 9.17498H17.2417V8.34165C17.2417 8.12064 17.3295 7.90868 17.4858 7.7524C17.6421 7.59612 17.854 7.50832 18.075 7.50832C18.2961 7.50832 18.508 7.59612 18.6643 7.7524C18.8206 7.90868 18.9084 8.12064 18.9084 8.34165V9.17498H19.7417V8.34165C19.7417 8.12064 19.8295 7.90868 19.9858 7.7524C20.1421 7.59612 20.354 7.50832 20.575 7.50832C20.7961 7.50832 21.008 7.59612 21.1643 7.7524C21.3206 7.90868 21.4084 8.12064 21.4084 8.34165V9.17498H22.325C22.9658 9.17543 23.5803 9.43018 24.0334 9.8833C24.4865 10.3364 24.7413 10.9508 24.7417 11.5917C24.775 12.45 24.7834 13.5417 24.1417 14.175C24.7834 14.8 24.775 15.8917 24.7417 16.75Z" fill="white"/>
<path d="M22.325 10.8416H18.9083V13.3416H22.325C22.424 13.341 22.522 13.321 22.6133 13.2826C22.7046 13.2442 22.7874 13.1881 22.8571 13.1177C22.9267 13.0473 22.9818 12.9639 23.0192 12.8722C23.0566 12.7804 23.0755 12.6823 23.075 12.5832V11.5916C23.0754 11.4929 23.0563 11.3952 23.0188 11.304C22.9813 11.2128 22.926 11.13 22.8563 11.0602C22.7866 10.9905 22.7037 10.9353 22.6125 10.8978C22.5213 10.8602 22.4236 10.8411 22.325 10.8416ZM22.325 15.0082H18.9083V17.5082H22.325C22.424 17.5077 22.522 17.4876 22.6133 17.4492C22.7046 17.4108 22.7874 17.3548 22.8571 17.2844C22.9267 17.214 22.9818 17.1305 23.0192 17.0388C23.0566 16.9471 23.0755 16.8489 23.075 16.7499V15.7582C23.0754 15.6596 23.0563 15.5619 23.0188 15.4707C22.9813 15.3795 22.926 15.2966 22.8563 15.2269C22.7866 15.1572 22.7037 15.102 22.6125 15.0644C22.5213 15.0269 22.4236 15.0078 22.325 15.0082Z" fill="white"/>
</svg>
