<svg width="40" height="40" viewBox="0 0 40 40" fill="none" xmlns="http://www.w3.org/2000/svg">
<path d="M13.7656 26.8963C13.9236 26.8597 14.0895 26.8858 14.2285 26.9692C14.3676 27.0525 14.4688 27.1866 14.511 27.3431C14.5531 27.4997 14.5328 27.6665 14.4544 27.8083C14.376 27.9502 14.2456 28.0561 14.0906 28.1038L5.83875 30.325C6.03875 30.92 6.24 31.5144 6.4425 32.1069L16.9356 29.335C16.67 28.3669 16.4206 27.5081 16.2494 26.8756C15.2869 23.2506 17.8806 21.3256 16.8806 15.1256C16.0931 10.1881 12.5119 5.93815 8.28063 7.0569C4.05563 8.17565 1.10563 14.1256 3.18063 21.9819C3.55563 23.395 4.4425 26.15 5.43875 29.1381L13.765 26.8969L13.7656 26.8963ZM8.125 25.625C8.125 25.7908 8.05915 25.9498 7.94194 26.067C7.82473 26.1842 7.66576 26.25 7.5 26.25C7.33424 26.25 7.17527 26.1842 7.05806 26.067C6.94085 25.9498 6.875 25.7908 6.875 25.625C6.875 25.4593 6.94085 25.3003 7.05806 25.1831C7.17527 25.0659 7.33424 25 7.5 25C7.66576 25 7.82473 25.0659 7.94194 25.1831C8.05915 25.3003 8.125 25.4593 8.125 25.625ZM5.625 16.25H5.63125C5.71333 16.2508 5.79444 16.2678 5.86996 16.3C5.94548 16.3321 6.01392 16.3789 6.07137 16.4375C6.12883 16.4961 6.17418 16.5655 6.20483 16.6416C6.23548 16.7178 6.25083 16.7992 6.25 16.8813C6.2375 18.1769 6.42375 19.5706 6.80438 21.0225C6.95563 21.5756 7.18688 22.3525 7.47125 23.2638C7.57438 23.5925 7.39813 23.9731 7.06125 24.0463C6.60438 24.1456 6.36188 23.9038 6.27813 23.6363C6.03822 22.8768 5.81111 22.1134 5.59688 21.3463C5.18625 19.78 4.98563 18.2763 4.99938 16.8694C5.00102 16.7047 5.0676 16.5473 5.18463 16.4315C5.30166 16.3156 5.45969 16.2506 5.62438 16.2506L5.625 16.25ZM17.9875 34.0313C17.8281 32.8856 17.555 31.6775 17.2588 30.5419L6.84438 33.2931C7.20122 34.3424 7.56143 35.3906 7.925 36.4375C8.35202 37.6788 9.2337 38.7121 10.3923 39.3291C11.551 39.9461 12.9004 40.101 14.1688 39.7625C16.7063 39.0938 18.3438 36.6375 17.9875 34.0313ZM25.3556 24.3544C25.1953 24.312 25.0585 24.2076 24.9751 24.0642C24.8918 23.9209 24.8688 23.7503 24.9113 23.59C24.9537 23.4297 25.0581 23.2929 25.2014 23.2095C25.3448 23.1262 25.5153 23.1032 25.6756 23.1456L33.5563 25.2313L34.1563 23.4494L23.5813 20.6019C23.3863 21.2881 23.14 22.135 22.8931 23.0563C22.5431 24.3563 22.1994 25.8063 22.0119 27.1563C21.8384 28.4132 22.131 29.6901 22.8346 30.746C23.5381 31.8019 24.6039 32.5636 25.8306 32.8875C27.0989 33.2252 28.448 33.07 29.6065 32.4531C30.765 31.8362 31.6467 30.8034 32.0744 29.5625C32.4088 28.5969 32.775 27.5256 33.1531 26.4181L25.3556 24.3544ZM31.7125 0.18127C27.4875 -0.93748 23.9063 3.31252 23.1125 8.25002C22.1763 14.0913 24.4219 16.1388 23.88 19.3875L34.5544 22.2619C35.5506 19.2744 36.4431 16.5194 36.8181 15.1063C38.8931 7.25002 35.9431 1.30002 31.7119 0.18127H31.7125ZM34.015 6.87502C34.1808 6.87502 34.3397 6.94087 34.4569 7.05808C34.5742 7.17529 34.64 7.33426 34.64 7.50002C34.64 7.66578 34.5742 7.82475 34.4569 7.94196C34.3397 8.05917 34.1808 8.12502 34.015 8.12502C33.8492 8.12502 33.6903 8.05917 33.5731 7.94196C33.4559 7.82475 33.39 7.66578 33.39 7.50002C33.39 7.33426 33.4559 7.17529 33.5731 7.05808C33.6903 6.94087 33.8492 6.87502 34.015 6.87502ZM34.3981 14.4656C34.2163 15.1744 33.8781 16.2675 33.4269 17.6894C33.3425 17.9556 33.1731 18.2463 32.6419 18.0956C32.5637 18.0708 32.4911 18.0307 32.4284 17.9778C32.3656 17.9249 32.3139 17.8602 32.2762 17.7873C32.2384 17.7144 32.2155 17.6348 32.2085 17.553C32.2015 17.4712 32.2108 17.3889 32.2356 17.3106C32.6206 16.0981 33.0025 14.8756 33.1881 14.1506C33.5688 12.7063 33.7556 11.3131 33.7438 10.005C33.743 9.92294 33.7584 9.84152 33.7892 9.76541C33.8199 9.6893 33.8653 9.61998 33.9228 9.56142C33.9803 9.50286 34.0488 9.45621 34.1244 9.42412C34.1999 9.39203 34.281 9.37513 34.3631 9.3744H34.3688C34.5335 9.37439 34.6917 9.43946 34.8087 9.55546C34.9258 9.67146 34.9923 9.82899 34.9938 9.99377C35.0069 11.4131 34.8063 12.9175 34.3975 14.4644L34.3981 14.4656Z" fill="white"/>
</svg>
