<svg width="40" height="40" viewBox="0 0 40 40" fill="none" xmlns="http://www.w3.org/2000/svg">
<g clip-path="url(#clip0_614_27200)">
<path d="M21.3804 12.4557L20.0609 11.7621L18.7414 12.4557L18.9931 10.9862L17.9266 9.94706L19.4017 9.7319L20.0609 8.39526L20.7213 9.7319L22.1964 9.94597L21.1286 10.9862L21.3804 12.4557Z" fill="white"/>
<path d="M21.1985 32.2806C23.1329 29.8628 26.0714 28.2811 29.4016 28.2811H32.9172V29.453C32.9172 32.7832 31.3355 35.7217 28.9177 37.6561H32.9172V39.9998H7.13599V37.6561H18.8547V32.9686H17.6829C11.867 32.9686 7.13599 28.2376 7.13599 22.4217V21.2498H10.6516C13.9818 21.2498 16.9204 22.8316 18.8547 25.2494V20.9751C13.5958 20.3834 9.47974 15.9612 9.47974 10.5466C9.47974 4.73077 14.2108 -0.000244141 20.0266 -0.000244141C25.8425 -0.000244141 30.5735 4.73077 30.5735 10.5466C30.5735 15.9612 26.4575 20.3834 21.1985 20.9751V32.2806ZM27.2318 8.31171L22.2777 7.5896L20.061 3.10124L17.8454 7.5896L12.889 8.31062L16.4756 11.8056L15.6287 16.7403L20.061 14.4103L24.4933 16.7403L23.6464 11.8056L27.2318 8.31171Z" fill="white"/>
</g>
<defs>
<clipPath id="clip0_614_27200">
<rect width="40" height="40" fill="white" transform="matrix(-1 0 0 1 40 0)"/>
</clipPath>
</defs>
</svg>
