<svg xmlns="http://www.w3.org/2000/svg" xmlns:xlink="http://www.w3.org/1999/xlink"><symbol id="crop" viewBox="0 0 48 48"><path d="M0 0h48v48H0z" fill="none"/><path d="M34 30h4V14a4 4 0 0 0-4-4H18v4h16zm-20 4V2h-4v8H2v4h8v20a4 4 0 0 0 4 4h20v8h4v-8h8v-4z"/></symbol><symbol id="fill" viewBox="0 0 48 48"><path d="M0 0h48v48H0z" fill="none"/><path d="M33.12 17.88L15.24 0l-2.83 2.83 4.76 4.76L6.88 17.88a3 3 0 0 0 0 4.24l11 11a3 3 0 0 0 4.24 0l11-11a3 3 0 0 0 0-4.24zM10.41 20L20 10.42 29.59 20zM38 23s-4 4.33-4 7a4 4 0 0 0 8 0c0-2.67-4-7-4-7zM0 40h48v3H0z"/></symbol><symbol id="icon-components" viewBox="0 0 518 518"><path fill="currentColor" d="M440 78a255.91 255.91 0 0 0-362 0 255.91 255.91 0 0 0 0 362 255.91 255.91 0 0 0 362 0 255.91 255.91 0 0 0 0-362zm-10.7 351.3A240.84 240.84 0 0 1 88.7 88.7a240.84 240.84 0 0 1 340.6 340.6z" stroke="currentColor" stroke-miterlimit="10" stroke-width="6"/><path fill="currentColor" d="M453.8 176l-13.8 6.4a208.58 208.58 0 0 1 19.6 88.9h15.2a222.76 222.76 0 0 0-21-95.3zm-42.3-65.9A224.22 224.22 0 0 0 252 44v15.2a209.32 209.32 0 0 1 148.8 61.6 213.15 213.15 0 0 1 33.1 42.8l13.1-7.7a230.42 230.42 0 0 0-35.5-45.8z" stroke="currentColor" stroke-miterlimit="10" stroke-width="6"/><path fill="currentColor" d="M342.6 312.2h-8.7c-15 0-43 2.8-61.2 21a53.12 53.12 0 0 0-6.4 7.8v-41.4h.9c15 0 43-2.7 61.2-21 25-25 20.8-68.1 20.7-69.9a7.43 7.43 0 0 0-6.5-6.5h-8.7c-15 0-43 2.8-61.2 21a53.12 53.12 0 0 0-6.4 7.8v-19c8.2-7.3 32.1-31.8 32.1-61.7 0-35.3-33.4-62.9-34.8-64a7.24 7.24 0 0 0-9.2 0c-1.5 1.2-34.8 28.8-34.8 64 0 29.9 24 54.3 32.1 61.7v18.6a59.79 59.79 0 0 0-6.4-7.9c-18.3-18.3-46.2-21-61.2-21h-8.7a7.43 7.43 0 0 0-6.5 6.5c0 1.8-4.3 44.9 20.7 69.9 18.3 18.3 46.2 21 61.2 21h.9v41a50.67 50.67 0 0 0-6.5-7.4c-18.3-18.3-46.2-21-61.2-21h-8.7a7.43 7.43 0 0 0-6.5 6.5c0 1.8-4.3 44.9 20.7 69.9 18.3 18.3 46.2 21 61.2 21h.9v59.6a7.3 7.3 0 0 0 14.6 0v-59.1h.8c15 0 43-2.7 61.2-21 25-25 20.8-68.1 20.7-69.9a7 7 0 0 0-6.3-6.5zM200 268.4c-15.1-15.1-16.8-40.3-16.8-51.9h.9c10.3 0 35.8 1.6 51 16.8s16.8 40.3 16.8 51.9c-9.9.2-36.3-1.2-51.9-16.8zM251.9 395c-9.9.2-36.3-1.2-51.9-16.8-15.1-15.1-16.8-40.3-16.8-51.9 10 0 36.4 1.2 51.9 16.8s16.9 40.4 16.8 51.9zm7.4-196h0c-8.4-8.2-24.9-27.2-24.9-48.6s16.6-40.3 24.8-48.5c8.3 8.2 24.8 27.2 24.8 48.5s-16.4 40.4-24.7 48.6zm24 34.2l-.4.1c15.1-15.1 40.7-16.8 51-16.8h.9c0 11.6-1.5 36.4-16.8 51.9s-41.9 17-51.9 16.8c.3-11.9 2-36.8 17.2-52zm35.1 145.1c-15.2 15.5-40.6 16.8-51 16.8h-.9c0-11.7 1.7-36.8 16.8-51.9l-.1-.1c15.1-15.1 40.7-16.8 51-16.8h.9c0 11.6-1.5 36.5-16.7 52z" stroke="currentColor" stroke-miterlimit="10" stroke-width="5"/></symbol><symbol id="icon-delivery" viewBox="0 0 55 54.03"><path d="M52.07 24.91h-1.35v26.21a2.92 2.92 0 0 1-2.93 2.91H7.21a2.92 2.92 0 0 1-2.93-2.91V24.91H2.93A2.92 2.92 0 0 1 0 22.03v-6.94a2.93 2.93 0 0 1 2.93-2.92h7.63a7.46 7.46 0 0 1-2-5.09V6.7A6.82 6.82 0 0 1 12.12.92a7.11 7.11 0 0 1 7 0l3.47 1.94a12.13 12.13 0 0 1 4.91 5.17 12.13 12.13 0 0 1 4.93-5.21L35.9.92a7.11 7.11 0 0 1 7 0 6.82 6.82 0 0 1 3.56 5.78v.38a7.46 7.46 0 0 1-2 5.09h7.63A2.93 2.93 0 0 1 55 15.09v6.94a2.92 2.92 0 0 1-2.93 2.88zM33 28.6h4.66a1.22 1.22 0 1 1 0 2.43H33V51.6h14.79a.48.48 0 0 0 .49-.48V24.91H33zM6.72 51.12a.48.48 0 0 0 .49.48H22V31.03h-5a1.22 1.22 0 1 1 0-2.43h5v-3.69H6.72zM2.93 14.6a.49.49 0 0 0-.49.49v6.94a.49.49 0 0 0 .49.49H22V14.6zm18.44-9.57l-3.47-2a4.67 4.67 0 0 0-4.58 0A4.46 4.46 0 0 0 11 6.78v.3a5.11 5.11 0 0 0 5.13 5.09h10.08a9.58 9.58 0 0 0-4.84-7.14zm3.07 9.62v37h6.12v-37zM44 6.78a4.46 4.46 0 0 0-2.32-3.75 4.67 4.67 0 0 0-4.58 0l-3.47 2a9.58 9.58 0 0 0-4.84 7.19h10.08A5.11 5.11 0 0 0 44 7.08zm8.56 8.31a.49.49 0 0 0-.49-.49H33v7.89h19.07a.49.49 0 0 0 .49-.49zm-41.4 15.94H11a1.22 1.22 0 1 1 0-2.43h.12a1.22 1.22 0 1 1 0 2.43zm32.42 0h-.12a1.22 1.22 0 1 1 0-2.43h.12a1.22 1.22 0 1 1 0 2.43z" fill="currentColor" fill-rule="evenodd"/></symbol><symbol id="icon-instagram" viewBox="0 0 512.15 512.25"><path fill="currentColor" d="M373.83.13h-235.4C62.23.13.13 62.23.13 138.43v235.3c0 76.3 62.1 138.4 138.3 138.4h235.3c76.3 0 138.3-62.1 138.3-138.3v-235.4c.1-76.2-62-138.3-138.2-138.3zm96.9 373.7a97.09 97.09 0 0 1-97 97h-235.3a97.09 97.09 0 0 1-97-97v-235.4a97.09 97.09 0 0 1 97-97h235.3a97.09 97.09 0 0 1 97 97z" stroke="#000" stroke-miterlimit="10" stroke-width=".25"/><path fill="currentColor" d="M370.73 238.23a113.34 113.34 0 0 0-32.4-64.3 114.58 114.58 0 0 0-64.3-32.4 112 112 0 0 0-33.7 0 114.82 114.82 0 0 0 16.6 228.4 109.41 109.41 0 0 0 17.1-1.3 114.75 114.75 0 0 0 96.7-130.4zm-102.8 89.5a73.441 73.441 0 0 1-21.5-145.3 73.3 73.3 0 0 1 21.6 0 73.43 73.43 0 0 1-.1 145.3zm132.2-215.6a20.7 20.7 0 0 0-35.3 14.6 20.42 20.42 0 0 0 6.1 14.6 20.7 20.7 0 0 0 35.3-14.6 20.42 20.42 0 0 0-6.1-14.6z"/></symbol><symbol id="icon-twitter" viewBox="0 0 44.05 36.86"><path d="M42.87 4.22a2.85 2.85 0 0 0-1-3 2.79 2.79 0 0 0-1.72-.64A2.9 2.9 0 0 0 38.7 1a13 13 0 0 1-2.78 1.24 10.71 10.71 0 0 0-17.13 7.02A19.64 19.64 0 0 1 7.7 2.49a2.82 2.82 0 0 0-2.19-1.05h-.22a2.84 2.84 0 0 0-2.23 1.4 10.69 10.69 0 0 0-1.45 5.39 10.84 10.84 0 0 0 .64 3.69 2.88 2.88 0 0 0-.71 1.89 10.86 10.86 0 0 0 2.83 7.33 2.77 2.77 0 0 0 .06 1.48 10.64 10.64 0 0 0 3.18 4.82 13.29 13.29 0 0 1-2.9.32 13.56 13.56 0 0 1-1.55-.09h-.33a2.84 2.84 0 0 0-1.53 5.2 25.17 25.17 0 0 0 13.6 4C30.56 36.86 40 24.26 40.14 12a18.58 18.58 0 0 0 3.34-3.73 2.79 2.79 0 0 0 .57-1.71 2.83 2.83 0 0 0-1.18-2.34zm-5.59 6.38v1C37.3 22 29.38 34 14.9 34a22.27 22.27 0 0 1-12.07-3.52 16.79 16.79 0 0 0 1.88.11 15.82 15.82 0 0 0 9.78-3.37 7.89 7.89 0 0 1-7.36-5.47 7.29 7.29 0 0 0 1.48.15 7.91 7.91 0 0 0 2.08-.28 7.88 7.88 0 0 1-6.32-7.72v-.1a7.84 7.84 0 0 0 3.57 1A7.89 7.89 0 0 1 5.5 4.27a22.33 22.33 0 0 0 16.23 8.22 7.5 7.5 0 0 1-.2-1.79 7.88 7.88 0 0 1 13.62-5.39 15.62 15.62 0 0 0 5-1.91 7.92 7.92 0 0 1-3.47 4.36 15.52 15.52 0 0 0 4.52-1.24 15.84 15.84 0 0 1-3.92 4.08z" fill="currentColor"/></symbol><symbol id="icon-vk" viewBox="0 0 520.03 306.6"><path fill="currentColor" d="M493.25 233.2c-11.1-13.3-23.7-25.3-35.9-36.8-4.3-4.1-8.7-8.2-13-12.4h0c-5.7-5.6-8.5-9.6-8.8-12.5s1.7-7.2 6.2-13.5c6.8-9.5 14-19 21-28.2 6.2-8.2 12.6-16.6 18.8-25.1l1.4-1.9c12-16.6 24.4-33.8 31-54.7 1.9-6 3.9-14.9-.9-22.7s-13.6-10.1-19.8-11.2a51.88 51.88 0 0 0-8.6-.6l-77.8-.1c-13.5-.2-22.8 6.2-27.9 19-4.1 10.2-8.9 22.1-14.4 33.3-10.7 21.7-24.2 46.7-43.8 67.5l-.9.9c-1.3 1.4-3.5 3.8-4.6 4.3-2.1-1.3-4.6-9-4.5-13v-.3l-.1-89.9a6.6 6.6 0 0 0-.1-1.4c-1.7-12.8-5.1-25.7-25.4-29.7a13.55 13.55 0 0 0-2-.2h-80.9c-15.2 0-23.3 7-29.7 14.5-1.9 2.2-6.8 8.1-4.3 15.2s10.2 8.7 12.7 9.2c8.8 1.7 13.4 6.7 14.8 16.2 2.8 18.5 3.1 38.3 1.1 62.3-.6 6.4-1.6 11.3-3.4 15.4a12.55 12.55 0 0 1-1.2 2.2 10.1 10.1 0 0 1-2.2-1.2c-6.2-4.2-10.9-10.8-15.4-17.2-18-25.5-33.2-53.6-46.4-86-5.4-13.3-15.6-20.7-28.7-20.9-24.9-.4-48-.4-70.5 0-10.6.2-18 3.5-22.1 9.9s-3.9 14.6.4 24.3c31.2 69.4 59.5 119.8 91.8 163.6 22.8 30.8 45.7 52.2 72.1 67.4 27.8 15.9 59.1 23.7 95.4 23.7q6.15 0 12.6-.3c22.4-1 31.5-9.9 32.5-31.8.6-11.5 1.8-20.9 6.3-29 1.2-2.3 2.7-3.8 3.8-4.1s3.3.4 5.6 1.9a61.17 61.17 0 0 1 10.9 9.8c3 3.3 6.1 6.8 9.1 10.1 6.3 7.1 12.9 14.4 19.8 21.4 15.5 15.8 33.5 23.1 53.3 21.6h71.9A23.94 23.94 0 0 0 512 289.7c5-8.9 4.9-20.2-.2-30.1-5.35-10.1-12.35-19-18.55-26.4zm1 46.8c-1 1.7-2.2 2.1-2.8 2.1h-72c-14 1.2-25.9-3.8-37.5-15.5-6.5-6.7-12.9-13.8-19.1-20.7-3-3.4-6.1-6.9-9.3-10.3a78.65 78.65 0 0 0-14.9-13.1c-9.2-6-16.9-5.8-21.7-4.6s-11.5 4.6-16.7 14c-6.7 12.2-8.2 25.4-8.8 37.9-.3 7.6-1.6 9.6-2.2 10.1-.7.7-3.1 1.8-10.9 2.2-37.8 1.8-69.5-5-96.9-20.7-23.9-13.7-44.8-33.3-65.8-61.8-31.4-42.5-59-91.8-89.6-159.8a14.33 14.33 0 0 1-1.5-4.8 15 15 0 0 1 5-.6c22.2-.4 45.1-.4 69.8 0 3.4.1 7.2 1.1 10.1 8.2 13.8 33.9 29.7 63.3 48.6 90.1 5 7.1 11.3 15.9 20.5 22.2 8.4 5.8 15.3 5.5 19.5 4.3s10.2-4.7 14.2-14.1c2.6-6.1 4.1-12.9 4.9-21.6 2.2-25.7 1.8-47-1.2-67.1-2.1-14.4-9.6-24.8-21.3-30.1a15.78 15.78 0 0 1 7.7-1.5h79.9c4.5 1 5.4 2.2 5.7 2.6 1.3 1.7 2 5.8 2.5 9l.1 89.1c-.2 8.5 4 27.5 18.1 32.7.1 0 .2.1.4.1 12.9 4.2 21.4-4.9 25.9-9.8l.8-.9c21.5-22.8 36-49.5 47.3-72.5 5.9-11.9 10.9-24.2 15.1-34.8 2.1-5.3 4-6.2 8.6-6.1h.2l77.9.1a28.56 28.56 0 0 1 5.2.3 16 16 0 0 1 5.7 1.7c.1.6 0 2.3-1.1 5.8C489 59.9 478.05 75 466.55 91l-1.4 1.9c-6 8.3-12.4 16.7-18.5 24.8-7.1 9.3-14.4 19-21.3 28.7-14.8 20.7-13.5 34.4 5 52.4q6.6 6.45 13.2 12.6c12.3 11.6 23.9 22.6 34.2 35 5.4 6.5 11.6 14.4 16 23 2.3 4.4 1.7 8.5.5 10.6z" stroke="currentColor" stroke-miterlimit="10" stroke-width="8"/></symbol><symbol id="logotype-blue-tablet" viewBox="0 0 146.3 40.38"><path d="M71.87 18.66a1.29 1.29 0 0 1 1.26-1.29h7.18c5.09 0 8.44 2.71 8.44 7.15v.06c0 4.86-4.06 7.38-8.86 7.38h-5.47v6.82a1.28 1.28 0 1 1-2.55 0V18.66zm8.12 11c3.73 0 6.18-2 6.18-5v-.06c0-3.22-2.41-4.89-6-4.89h-5.7v9.91zM93.6 18.5a1.28 1.28 0 1 1 2.55 0v20.28a1.28 1.28 0 1 1-2.55 0zm9.14.03a1.28 1.28 0 0 1 1.26-1.25h.35a1.55 1.55 0 0 1 1.29.74l13.69 17.45v-17a1.24 1.24 0 1 1 2.48 0v20.35a1.14 1.14 0 0 1-1.16 1.18h-.13a1.71 1.71 0 0 1-1.32-.78l-14-17.86v17.46a1.26 1.26 0 0 1-1.2 1.25 1.24 1.24 0 0 1-1.22-1.25V18.53zm25.43-.03a1.28 1.28 0 1 1 2.55 0v12.33l12.84-13.17a1.48 1.48 0 0 1 1-.45 1.28 1.28 0 0 1 1.23 1.26 1.29 1.29 0 0 1-.42.9l-8 7.92L146 37.85a1.44 1.44 0 0 1 .35.94 1.31 1.31 0 0 1-1.35 1.28 1.21 1.21 0 0 1-1-.58L135.59 29l-4.87 4.86v4.9a1.27 1.27 0 1 1-2.54 0V18.5z" fill="#283645"/><path d="M60.46 28L55.29 6.65C54.93 4.3 52.69 0 46.69 0a1.5 1.5 0 0 0 0 3c4.85 0 5.57 3.73 5.64 4.14l4.76 19.7H55a12 12 0 0 0-23.85 0h-1.8a12 12 0 0 0-23.86 0H3.42l4.77-19.7C8.25 6.73 9 3 13.83 3a1.5 1.5 0 0 0 0-3c-6 0-8.24 4.3-8.6 6.65L.05 28a1.42 1.42 0 0 0 1.43 1.82h4a12 12 0 0 0 23.85 0h1.81a12 12 0 0 0 23.86 0h4A1.41 1.41 0 0 0 60.46 28zm-34.15 1.84a9 9 0 0 1-17.92-1.5 9.29 9.29 0 0 1 .13-1.5 9 9 0 0 1 17.79 0 8.29 8.29 0 0 1 .14 1.5 8.12 8.12 0 0 1-.14 1.5zm25.68 0a9 9 0 0 1-17.93-1.5 9.3 9.3 0 0 1 .14-1.5 9 9 0 0 1 17.79 0 9.3 9.3 0 0 1 .14 1.5 9.09 9.09 0 0 1-.13 1.5z" fill="#d22856"/></symbol><symbol id="youtube" viewBox="0 0 14.64 13.96"><path d="M1.78 13.78A1.14 1.14 0 0 1 0 12.67V1.29A1.14 1.14 0 0 1 1.78.18l12.13 5.93c1 .48 1 1.26 0 1.74z"/></symbol></svg>