<svg xmlns="http://www.w3.org/2000/svg" height="338.947" width="338.947"><defs><clipPath id="a" clipPathUnits="userSpaceOnUse"><path d="M0 254.21h254.21V0H0z"/></clipPath></defs><g clip-path="url(#a)" transform="matrix(1.33333 0 0 -1.33333 0 338.947)"><path d="M0 127.105C0 197.303 56.907 254.21 127.105 254.21c70.199 0 127.106-56.907 127.106-127.105C254.21 56.907 197.304 0 127.105 0 56.907 0 0 56.907 0 127.105" fill="#f4dddf"/><path d="M86.116 62.093c0-.721-5.539-1.305-12.371-1.305-6.832 0-12.37.584-12.37 1.305s5.538 1.305 12.37 1.305c6.832 0 12.371-.584 12.371-1.305" fill="#fbafa7"/><path d="M71.358 61.733s-10.995 11.98-14.096 19.17c-3.1 7.19 1.973 8.458 4.511 4.652 2.537-3.805 7.19-12.405 8.457-2.114 1.27 10.29-.423 12.545 1.128 13.814 1.551 1.269 3.524.423 4.934-4.511 1.41-4.933 6.343-5.92 7.612-1.268 1.268 4.652 4.511 14.942 9.162 14.378 4.652-.564-.14-8.035 0-12.264.142-4.23 3.947-3.524 6.907.282s13.11 15.55 17.62 12.004c4.511-3.546-1.832-8.198 0-12.71 1.833-4.51 1.551-11.863-7.047-9.032-8.599 2.83-8.036-5.204-8.459-6.613-.422-1.41-2.537-6.203-7.893-3.807-5.357 2.397-8.316 1.269-6.344-.704 1.974-1.974 5.498-4.088 3.665-5.216-1.832-1.127-8.88 2.538-11.84.564-2.96-1.974-4.088-6.625-4.088-6.625z" fill="#9673d0"/><path d="M113.647 95.563c-3.618-3.114-7.473-5.97-11.626-8.376-1.036-.603-2.099-1.175-3.22-1.645-1.113-.47-2.244-.87-3.377-1.257l-6.789-2.254c-2.253-.756-4.49-1.558-6.62-2.57-2.115-1.014-4.192-2.23-5.678-3.992-.74-.883-1.232-1.922-1.374-3.08a100.058 100.058 0 0 1-.495-3.535c-.29-2.36-.522-4.737-.43-7.122-.285 2.377-.134 4.78.017 7.164.102 1.191.231 2.38.38 3.567.063.595.215 1.227.442 1.805.258.568.561 1.121.95 1.604 1.534 1.976 3.715 3.21 5.853 4.281 2.17 1.06 4.422 1.896 6.684 2.68l6.816 2.181c1.13.372 2.252.757 3.341 1.202 1.08.45 2.14.976 3.186 1.537 2.094 1.112 4.112 2.376 6.093 3.694 1.995 1.301 3.932 2.692 5.847 4.116" fill="#310382"/><path d="M197.977 49.166c0-4.21-32.359-7.625-72.276-7.625-39.917 0-72.276 3.414-72.276 7.625s32.36 7.625 72.276 7.625c39.917 0 72.276-3.414 72.276-7.625m-20.84-10.726c0-.72-5.539-1.305-12.37-1.305-6.832 0-12.37.584-12.37 1.305s5.538 1.305 12.37 1.305c6.831 0 12.37-.584 12.37-1.305" fill="#fbafa7"/><path d="M175.758 100.909h-45.97l-17.63 9.795h37.32z" fill="#dd4412"/><path d="M175.758 160.077V100.91h-6.13v2.284l-20.15 7.51v57.298s12.393 14.46 26.28-7.924" fill="#fa5c17"/><path d="M169.629 161.112v-57.918l-26.28 8.544v57.298s12.393 14.46 26.28-7.924" fill="#dd4412"/><path d="M175.758 100.909h-45.97v-7.727h45.97z" fill="#fa5c17"/><path d="M112.158 110.704v-6.312l17.63-11.21v7.727z" fill="#dd4412"/><path d="M114.104 71.27h-1.946v33.012h1.946z" fill="#19114c"/><path d="M145.996 132.614s-18.167-10.302-28.18-11.318c-10.011-1.016-7.94-19.735-8.25-23.072-.31-3.338-2.487-24.813-2.487-24.813s2.612-2.032 5.079-.87c0 0 12.995 32.537 15.236 45.418 0 0 20.266 8.1 28.997 16.602 0 0-5.58-2.092-10.395-1.947" fill="#ffd63f"/><path d="M159.027 135.807s12.914-15.236 0-26.845c-9.69-7.255-32.939-8.126-32.939-8.126s3.047-23.797-1.16-38.743c0 0-2.467-2.322-6.53-.725 0 0-1.059 10.556-3.432 18.99 0 0 10.541 28.604 12.428 37.6 0 0 17.982 7.462 28.996 16.603 0 0 1.186.666 2.637 1.246" fill="#e6c13b"/><path d="M130.877 208.796s-17.703-5.224-5.66-26.845c2.322-5.078-1.44-8.271.73-15.236 2.173-6.965 10.444-22.346 31.629-13.495 21.186 8.85 20.025 22.782 16.688 28.73-3.338 5.95-3.773 6.966-3.193 17.414.58 10.448-8.007 27.425-24.9 25.103-16.891-2.321-15.294-15.671-15.294-15.671" fill="#9673d0"/><path d="M129.716 198.058s-1.161-23.798 14.946-22.637c16.107 1.16 16.397 12.915 15.67 13.93 0 0 5.065 4.063.21 8.707-2.386 2.467-4.852-2.467-4.852-2.467s-12.624-4.788-23.362 6.384c0 0-.725-2.611-2.612-3.917" fill="#f89b5b"/><path d="M146.172 175.567s.93-4.063 0-6.385 1.973-5.66 5.02-2.322c3.047 3.337 2.612 5.514 2.612 5.514s-.79 1.873-.612 5.145c0 0-3.282-1.306-7.02-1.952" fill="#f89b5b"/><path d="M109.836 130.148s22.057.146 25.539 19.735c3.482 19.589 10.797 19.299 10.797 19.299s-.141-3.275 3.165-3.596c0 0-8.448-30.36-14.688-33.551-6.24-3.193-18.428-6.24-23.652-6.24 0 0-2.177 2.177-1.161 4.353" fill="#19114c"/><path d="M145.996 132.614s.005 11.505-1.915 14.874c-1.92 3.368-4.353 7.473-2.176 13.277 2.176 5.804 4.267 8.416 4.267 8.416l7.632 3.192s4.788 1.124 8.126-.889l-2.903-35.678s-6.62-3.772-13.031-3.192" fill="#34227a"/><path d="M64.418 121.659v-3.86c0-1.372 16.469-2.483 36.784-2.483 20.316 0 36.785 1.112 36.785 2.483v3.86z" fill="#fff"/><path d="M137.987 121.659c0-1.372-16.47-2.483-36.785-2.483-20.316 0-36.784 1.112-36.784 2.483 0 1.37 16.468 2.481 36.784 2.481 20.315 0 36.785-1.11 36.785-2.481" fill="#310382"/><path d="M109.836 130.148s-4.86.87-6.312.726c-1.451-.145-4.063-2.757-6.312-3.556-2.25-.797.87-2.466 4.426-1.886 3.555.58 5.73-.435 9.359.363 0 0-1.887 1.814-1.161 4.353" fill="#f89b5b"/><path d="M72.143 51.936v-2.8c0-.995 11.947-1.801 26.684-1.801 14.737 0 26.683.806 26.683 1.8v2.8zm-1.558 97.311l9.795-26.88h31.866l-9.883 26.88z" fill="#19114c"/><path d="M125.51 51.936c0-.995-11.947-1.801-26.684-1.801-14.735 0-26.682.806-26.682 1.8 0 .995 11.946 1.8 26.682 1.8 14.737 0 26.684-.805 26.684-1.8" fill="#310382"/><path d="M96.452 52.951h4.75v62.365h-4.75z" fill="#fff"/><path d="M107.079 73.411s-4.823-7.328-8.252-9.722c-3.43-2.394-2.27-6.965 2.375-4.136 4.644 2.83 7.256 5.998 8.997 6.482 1.74.483 1.959 6.505 1.959 6.505s-3.302-.29-5.08.871m12.49-12.403s1.84-1.78-2.078-3.74c-3.917-1.959-10.659-3.674-9.468-5.332 1.192-1.659 9.795.725 12.406 1.015 2.613.29 5.375 1.49 5.082 3.23-.293 1.74-.583 5.912-.583 5.912s-1.43-1.807-5.359-1.085" fill="#464195"/><path d="M112.246 122.367h20.876v1.341h-21.37z" fill="#19114c"/><path d="M137.094 190.04s.312-3.047-.45-4.897c-.761-1.85.762-3.265 1.85-3.047 1.089.217 1.373.761 1.373.761z" fill="#d07e4d"/><path d="M132.038 122.457s26.795 10.962 27.425 18.701c.629 7.74-2.613 22.654-.871 26.427 1.74 3.773 3.338 3.9 3.338 3.9s5.659.018 6.529-7.092c.87-7.11.58-28.006-7.836-33.229-8.416-5.225-27.28-11.464-27.28-11.464s-2.322.435-1.305 2.757" fill="#464195"/><path d="M132.038 122.457s-4.426.218-6.095 0c-1.67-.218-4.643-2.757-6.384-3.773-1.742-1.016-1.306-2.467-.436-2.467 0 0 2.358-.943 6.076 0 3.719.944 8.145 3.483 8.145 3.483s-2.177.653-1.306 2.757" fill="#f89b5b"/><path d="M131.78 188.678c.423-.208.763-.416 1.08-.584.316-.161.595-.278.786-.274.18-.021.383.02.683.192.14.085.294.197.463.303.162.12.327.248.547.363a2.074 2.074 0 0 0-.334-1.331c-.246-.414-.823-.784-1.453-.738a1.886 1.886 0 0 0-1.329.787c-.278.376-.444.805-.443 1.282m9.268 1.798c1.21-.08 2.163-.001 2.92.45.385.223.728.543 1.092.906.17.19.342.396.532.6.175.215.35.439.58.656.025-.304-.007-.602-.038-.906-.076-.29-.151-.59-.282-.871a3.381 3.381 0 0 0-1.28-1.437 2.874 2.874 0 0 0-1.941-.318c-.631.12-1.2.436-1.583.92m0-9.904c.827.614 1.523 1.062 1.914 1.618.206.265.347.564.433.95.106.383.123.824.216 1.35.379-.352.66-.817.732-1.367.112-.543-.056-1.175-.402-1.65a2.578 2.578 0 0 0-1.361-.923c-.506-.143-1.032-.162-1.532.022" fill="#d07e4d"/><path d="M131.735 47.335h-1.947v45.847h1.947zm44.023 0h-1.946v45.847h1.946zm-30.827 23.647h-1.947v22.2h1.947z" fill="#19114c"/></g></svg>