<svg xmlns="http://www.w3.org/2000/svg" height="340.28" width="340.28"><defs><clipPath id="a" clipPathUnits="userSpaceOnUse"><path d="M0 255.21h255.21V0H0z"/></clipPath></defs><g clip-path="url(#a)" transform="matrix(1.33333 0 0 -1.33333 0 340.28)"><path d="M.5 127.605c0 70.198 56.907 127.105 127.105 127.105 70.199 0 127.105-56.907 127.105-127.105C254.71 57.407 197.804.5 127.605.5 57.407.5.5 57.407.5 127.605" fill="#c44d58"/><path d="M.5 127.605c0 70.198 56.907 127.105 127.105 127.105 70.199 0 127.105-56.907 127.105-127.105C254.71 57.407 197.804.5 127.605.5 57.407.5.5 57.407.5 127.605z" fill="none" stroke="#ff6b6b" stroke-miterlimit="10"/><path d="M195.767 40.858c0-4.21-27.802-7.625-62.097-7.625-34.296 0-62.097 3.414-62.097 7.625s27.8 7.625 62.097 7.625c34.295 0 62.097-3.414 62.097-7.625" fill="#fbafa7"/><path d="M77.22 170.412l-10.217-8.106a1.213 1.213 0 0 0-1.745.25l-18.263 25.815a1.214 1.214 0 0 0 .23 1.646l13.542 10.925a1.214 1.214 0 0 0 1.757-.249L80.69 174.73a1.214 1.214 0 0 0-.221-1.63z" fill="#34227a"/><path d="M76.144 171.315l-9.395-7.454a1.116 1.116 0 0 0-1.605.23L48.35 187.83a1.116 1.116 0 0 0 .21 1.513l12.454 10.046a1.116 1.116 0 0 0 1.615-.23l16.704-23.873a1.116 1.116 0 0 0-.203-1.5z" fill="#19114c"/><path d="M123.066 232.054s-20.28-5.44-20.033-18.548c.248-13.108 5.812-12.366 5.812-12.366s5.812-25.473 1.608-41.795c-4.204-16.323 42.29-18.3 45.01 0 2.72 18.3-7.667 28.44-6.677 36.602.989 8.161 3.525 26.214-4.42 33.386-7.946 7.173-21.3 2.721-21.3 2.721" fill="#310382"/><path d="M122.015 178.945s-7.481.68-12.181-7.605c-4.698-8.285-5.688-8.903-5.688-8.903s5.317-5.441 9.645-4.947c0 0-.371-4.596 1.855-11.14 2.226-6.542 2.72-4.811 2.72-4.811s9.46-3.462 16.323.247c0 0 .989 7.667 6.554 17.065 0 0 1.607-4.947 1.113-7.42 0 0 6.064-.8 9.15 2.103 0 0-1.483 26.709-20.96 26.524z" fill="#ffd63f"/><path d="M152.125 42.986s10.294-4.003 15.823-4.194c0 0 6.482.572-10.295 8.197 0 0-2.669-2.478-5.719-1.334zm-21.769 0s-10.294-4.003-15.823-4.194c0 0-6.483.572 10.294 8.197 0 0 2.67-2.478 5.719-1.334z" fill="#19114c"/><path d="M109.216 209.92s-3.34-14.097 10.017-20.032c4.822-2.597 13.725-1.113 19.29 5.564 0 0 8.16 2.411 5.193 8.532-2.04 3.524-6.863-.185-6.863-.185s-10.016.557-13.911 14.097c0 0-9.09-7.049-13.726-7.976" fill="#f89b5b"/><path d="M122.015 178.945s1.483 2.9 0 9.982c0 0 3.099-.351 6.975.376 0 0-.298-7.391 1.556-9.245 0 0-2.596-11.315-8.531-10.387-2.782 1.298 0 9.274 0 9.274" fill="#f89b5b"/><path d="M118.366 141.539s-12.365-17.56-6.925-44.763c5.442-27.204 12.366-51.441 12.366-51.441s3.338-1.236 6.74 0c0 0-2.412 27.204 0 51.44 0 0-8.63 23.1-5.75 43.296 0 0-2.968.23-6.43 1.468" fill="#34227a"/><path d="M134.689 141.786s12.86-12.3 13.603-37.558c.742-25.26 10.88-57.656 10.88-57.656s-3.71-2.336-7.666-1.786c0 0-13.725 35.42-20.96 51.99 0 0-9.706 25.504-5.75 43.295 0 0 5.935-.758 9.892 1.715" fill="#464195"/><path d="M106.947 160.065s-7.87-11.107-14.3-1.71c-6.43 9.399-10.883 16.324-10.883 16.324s.186 7.326-5.47 6.399c-5.659-.928-5.287-4.638-3.71-4.73 1.575-.093 3.616.927 4.543.556s-1.205-2.69.092-6.491l-2.782-2.041s1.485-1.948 5.843-2.69c0 0 8.161-16.414 13.077-18.733 4.915-2.32 12.211-1.638 20.434 10.54 0 0-4.043.204-6.844 2.576m36.773-8.726s1.356-28.472 1.48-34.531c.124-6.06 6.43-7.42 8.532-5.564 2.102 1.854-1.608 3.462-2.72 3.586-1.113.123 2.349.37 1.483 3.957-.865 3.586-2.967 3.956-2.472 7.295.494 3.339 2.1 14.839 1.483 27.452 0 0-2.62-2.143-7.785-2.195" fill="#f89b5b"/><path d="M117.445 204.765s-1.233-2.568-2.877-3.596c-1.644-1.027-.102-3.287 1.027-3.082l1.13.205zm2.858 1.13c1.078-.58 2.094-.974 3.129-.934a5.154 5.154 0 0 1 1.552.283c.266.071.516.205.793.297.266.116.526.251.829.354a5.686 5.686 0 0 0-.564-.739c-.236-.196-.458-.432-.74-.582-.533-.357-1.193-.53-1.854-.563-1.35-.03-2.613.768-3.145 1.884m-7.995 2.055c.477-.695.863-1.262 1.343-1.472.233-.116.512-.171.852-.186l.537.002c.19.013.385.03.608.012a2.15 2.15 0 0 0-1.02-.745 1.852 1.852 0 0 0-1.393.064 1.826 1.826 0 0 0-.91 1.058c-.141.42-.163.858-.017 1.267m3.802-11.453c1.388-.4 2.693-.723 3.99-.702.65-.014 1.277.123 1.897.319.636.184 1.202.548 1.851.897-.36-.62-.865-1.217-1.542-1.572a4.446 4.446 0 0 0-2.19-.594 5.67 5.67 0 0 0-2.195.436c-.68.284-1.316.675-1.812 1.216" fill="#d07e4d"/><path d="M175.32 25.07c0-.86-6.61-1.558-14.764-1.558-8.153 0-14.762.698-14.762 1.558 0 .86 6.61 1.557 14.762 1.557 8.154 0 14.763-.697 14.763-1.557M100.52 51.59c0-.86-6.61-1.557-14.764-1.557-8.153 0-14.762.698-14.762 1.558 0 .86 6.609 1.558 14.762 1.558 8.154 0 14.764-.698 14.764-1.558" fill="#fbafa7"/><path d="M92.379 51.19s6.033 9.743.502 14.991c-4.067 2.93-8.705-2.197-11.269.732-2.562 2.93 9.155 12.571 5.371 17.454-3.784 4.882-11.351 5.248-15.745 1.098-4.393-4.15 2.685-27.419 8.178-34.275 0 0 7.251-.833 12.963 0" fill="#9673d0"/><path d="M86.238 50.82c-2.305 2.48-4.285 5.261-5.95 8.223-1.67 2.957-2.949 6.177-3.5 9.57-.3 1.693-.247 3.431-.065 5.141.285 1.675.562 3.358 1.054 4.99.472 1.634 1.044 3.244 1.793 4.774.775 1.503 1.667 3.006 2.97 4.102-1.194-1.2-2.008-2.707-2.677-4.239-.68-1.535-1.19-3.14-1.596-4.768-.409-1.628-.7-3.284-.95-4.944-.153-1.648-.187-3.317.12-4.958.482-3.299 1.74-6.458 3.293-9.429.756-1.5 1.64-2.937 2.557-4.35a49.802 49.802 0 0 1 2.951-4.112" fill="#310382"/></g></svg>