<svg xmlns="http://www.w3.org/2000/svg" height="338.947" width="338.947"><defs><clipPath id="a" clipPathUnits="userSpaceOnUse"><path d="M0 254.21h254.21V0H0z"/></clipPath></defs><g clip-path="url(#a)" transform="matrix(1.33333 0 0 -1.33333 0 338.947)"><path d="M0 127.105C0 197.303 56.907 254.21 127.105 254.21c70.198 0 127.105-56.907 127.105-127.105C254.21 56.907 197.303 0 127.105 0 56.907 0 0 56.907 0 127.105" fill="#f4dddf"/><path d="M210.849 62.297c0-4.211-32.36-7.625-72.276-7.625-39.917 0-72.276 3.414-72.276 7.625 0 4.21 32.359 7.625 72.276 7.625 39.917 0 72.276-3.414 72.276-7.625m-144.553 6.56c0-.588-4.518-1.064-10.09-1.064-5.574 0-10.09.476-10.09 1.064 0 .588 4.516 1.064 10.09 1.064 5.572 0 10.09-.476 10.09-1.064m23.78-16.486c0-.588-4.518-1.064-10.09-1.064-5.574 0-10.091.476-10.091 1.064 0 .588 4.517 1.064 10.09 1.064 5.573 0 10.09-.476 10.09-1.064" fill="#fbafa7"/><path d="M195.465 73.334s11.518-4.479 17.703-4.692c0 0 7.252.64-11.517 9.171 0 0-2-1.898-6.4-1.493zm-32.831-9.429s12.208-1.916 18.296-.803c0 0 7.917 1.534-12.24 5.86 0 0-3.005-.322-7.736.96z" fill="#310382"/><path d="M160.954 108.727s11.69-13.21 8.917-22.809c-2.773-9.598-8.917-15.997-8.917-15.997s4.437-2.132 8.49-1.279c0 0 12.837 10.54 11.431 35.13 0 0-6.66 6.422-14.805 7.508l-1.745-2.754z" fill="#df8551"/><path d="M164.325 108.527s-5.972 1.493-18.982-3.413c-13.01-4.905-43.925-13.437-47.237 12.37 0 0 .954 11.732-1.179 18.77l16.422-11.304s17.276-4.265 31.14 0c13.864 4.266 18.77 4.053 22.396 2.773 0 0 4.48-9.811-2.56-19.196" fill="#464195"/><path d="M124.649 209.412s3.622-12.584 0-20.05c0 0 1.071-17.062-16.418-14.29 0 0 1.919-8.104 4.905-8.531 0 0-23.888-7.252-34.126 11.09 0 0-2.986 6.4 0 10.879 2.986 4.479 6.826 3.839 6.826 3.839s-1.92 9.384 3.199 15.57c5.118 6.185 29.851 15.57 35.614 1.493" fill="#9673d0"/><path d="M121.454 204.933s8.672-22.708-2.559-28.154c-7.039-3.413-10.665-1.706-10.665-1.706s-1.493-7.04 1.494-12.798c0 0-4.693-5.118-9.812 3.2 0 0 2.773 7.89 1.92 13.65 0 0-1.493 2.133-1.92 5.119 0 0-2.986 4.906-1.28 7.678 1.707 2.773 4.906 1.493 5.333-.64 0 0 11.73-1.706 17.49 13.65" fill="#f89b5b"/><path d="M119.946 123.772l33.325 3.578 10.841 33.367h-3.158l-9.64-30.014-31.368-3.62z" fill="#19114c"/><path d="M99.912 165.474s-8.318-.853-7.892-9.17c.427-8.319 2.773-13.012 2.773-13.012s5.12 4.053 12.158 4.053c0 0 2.56-16.637 6.4-22.395 0 0-.855 11.09 0 16.85 0 0 6.61 3.198 4.69 9.171-1.919 5.972-8.317 11.304-8.317 11.304s-4.746-4.698-9.812 3.2" fill="#464195"/><path d="M118.391 114.712s-13.787-7.678-23.598 28.581c0 0 4.48 4.48 12.158 4.052 0 0 3.412-17.916 6.398-22.395 2.986-4.479 13.224-2.346 14.504 1.066 1.28 3.413-1.066 8.745 2.772 10.665 3.84 1.92 7.68 2.346 8.532.213.853-2.133-1.919-5.13-4.053-6.19-2.132-1.062-1.279-6.18-2.985-7.887-1.707-1.707-9.365-7.51-13.728-8.105m47.679-3.432s10.413-1.139 18.518-11.544c8.105-10.405 10.664-23.415 10.664-23.415s4.479-.64 6.399 1.492c0 0 .213 37.658-34.126 48.05 0 0 2.21-6.498-1.455-14.583" fill="#f89b5b"/><path d="M67.28 129.002s-6.02 27.908 11.73 31.715c17.75 3.806 19.096-31.447 19.096-31.447s-5.247-37.822 43.923-25.337c0 0 12.698 3.527 15.257-7.35 2.56-10.878-3.412-16.85-10.878-18.77-7.464-1.919-40.736-4.692-49.482-2.772 0 0-16.21.64-29.647 53.961" fill="#fff"/><path d="M92.005 61.795h7.48l6.397 12.6h-6.94zm61.188 0h-7.481l-7.455 14.686 6.447.73z" fill="#34227a"/><path d="M122.784 191.922s1.28-2.666 2.986-3.732c1.706-1.067.107-3.413-1.067-3.2l-1.172.213zm-6.209 2.133c.676-.616 1.23-1.063 1.877-1.293.32-.12.657-.208 1.035-.255.38-.056.781-.064 1.247-.132a2.408 2.408 0 0 0-1.205-.636c-.459-.117-.965-.058-1.43.103-.94.357-1.579 1.288-1.524 2.213m1.12-9.078c.24-.712.422-1.218.721-1.446.141-.133.348-.232.607-.35.268-.101.57-.192.923-.356a1.802 1.802 0 0 0-1.018-.408 1.657 1.657 0 0 0-1.167.377 1.485 1.485 0 0 0-.487 1.155c.014.392.147.755.421 1.028" fill="#d07e4d"/><path d="M62.178 69.227s6.034 9.743.502 14.991c-4.066 2.93-8.705-2.197-11.268.732-2.563 2.93 9.154 12.571 5.37 17.454-3.783 4.882-11.35 5.248-15.744 1.098s2.685-27.419 8.178-34.275c0 0 7.25-.833 12.962 0" fill="#9673d0"/><path d="M56.038 68.857c-2.305 2.48-4.285 5.261-5.951 8.223-1.67 2.957-2.948 6.177-3.5 9.57-.3 1.693-.246 3.431-.064 5.141.285 1.675.562 3.358 1.055 4.99.47 1.634 1.043 3.244 1.793 4.774.774 1.503 1.667 3.006 2.969 4.102-1.194-1.2-2.008-2.707-2.677-4.239-.68-1.535-1.19-3.14-1.596-4.768-.41-1.628-.7-3.284-.951-4.944-.153-1.648-.186-3.318.122-4.958.48-3.299 1.738-6.458 3.293-9.429.755-1.5 1.639-2.937 2.555-4.35a50.05 50.05 0 0 1 2.952-4.112" fill="#310382"/></g></svg>