<?xml version="1.0" encoding="UTF-8" standalone="no"?>
<svg
   xmlns:dc="http://purl.org/dc/elements/1.1/"
   xmlns:cc="http://creativecommons.org/ns#"
   xmlns:rdf="http://www.w3.org/1999/02/22-rdf-syntax-ns#"
   xmlns:svg="http://www.w3.org/2000/svg"
   xmlns="http://www.w3.org/2000/svg"
   viewBox="0 0 338.94666 338.94666"
   height="338.94666"
   width="338.94666"
   xml:space="preserve"
   id="svg2"
   version="1.1"><metadata
     id="metadata8"><rdf:RDF><cc:Work
         rdf:about=""><dc:format>image/svg+xml</dc:format><dc:type
           rdf:resource="http://purl.org/dc/dcmitype/StillImage" /></cc:Work></rdf:RDF></metadata><defs
     id="defs6"><clipPath
       id="clipPath18"
       clipPathUnits="userSpaceOnUse"><path
         id="path16"
         d="M 0,254.21 H 254.21 V 0 H 0 Z" /></clipPath></defs><g
     transform="matrix(1.3333333,0,0,-1.3333333,0,338.94667)"
     id="g10"><g
       id="g12"><g
         clip-path="url(#clipPath18)"
         id="g14"><g
           transform="translate(-2e-4,127.1053)"
           id="g20"><path
             id="path22"
             style="fill:#f4dddf;fill-opacity:1;fill-rule:nonzero;stroke:none"
             d="m 0,0 c 0,70.198 56.907,127.105 127.105,127.105 70.199,0 127.106,-56.907 127.106,-127.105 0,-70.198 -56.907,-127.105 -127.106,-127.105 C 56.907,-127.105 0,-70.198 0,0" /></g><g
           transform="translate(86.116,62.093)"
           id="g24"><path
             id="path26"
             style="fill:#fbafa7;fill-opacity:1;fill-rule:nonzero;stroke:none"
             d="m 0,0 c 0,-0.721 -5.539,-1.305 -12.371,-1.305 -6.832,0 -12.37,0.584 -12.37,1.305 0,0.721 5.538,1.305 12.37,1.305 C -5.539,1.305 0,0.721 0,0" /></g><g
           transform="translate(71.3582,61.7327)"
           id="g28"><path
             id="path30"
             style="fill:#9673d0;fill-opacity:1;fill-rule:nonzero;stroke:none"
             d="m 0,0 c 0,0 -10.995,11.981 -14.096,19.17 -3.101,7.19 1.973,8.458 4.511,4.652 2.537,-3.805 7.189,-12.405 8.457,-2.114 1.269,10.29 -0.423,12.545 1.128,13.814 1.551,1.269 3.524,0.423 4.934,-4.511 1.41,-4.933 6.343,-5.92 7.612,-1.268 1.268,4.652 4.511,14.942 9.162,14.378 4.652,-0.564 -0.141,-8.035 0,-12.264 0.142,-4.229 3.947,-3.524 6.907,0.282 2.96,3.806 13.11,15.55 17.62,12.004 4.511,-3.546 -1.832,-8.198 0,-12.709 1.833,-4.51 1.551,-11.864 -7.047,-9.033 -8.599,2.831 -8.036,-5.204 -8.459,-6.613 C 30.307,14.378 28.192,9.585 22.836,11.981 17.479,14.378 14.52,13.25 16.492,11.277 18.466,9.303 21.99,7.189 20.157,6.061 18.325,4.934 11.277,8.599 8.316,6.625 5.356,4.651 4.229,0 4.229,0 Z" /></g><g
           transform="translate(113.6473,95.5633)"
           id="g32"><path
             id="path34"
             style="fill:#310382;fill-opacity:1;fill-rule:nonzero;stroke:none"
             d="m 0,0 c -3.618,-3.114 -7.473,-5.97 -11.626,-8.376 -1.036,-0.603 -2.099,-1.175 -3.22,-1.645 -1.113,-0.47 -2.244,-0.87 -3.377,-1.257 l -6.789,-2.254 c -2.253,-0.756 -4.49,-1.558 -6.621,-2.571 -2.114,-1.013 -4.191,-2.23 -5.677,-3.991 -0.741,-0.883 -1.232,-1.922 -1.374,-3.081 -0.188,-1.175 -0.349,-2.353 -0.495,-3.534 -0.291,-2.36 -0.522,-4.737 -0.431,-7.122 -0.284,2.377 -0.133,4.78 0.018,7.164 0.102,1.191 0.231,2.38 0.38,3.567 0.063,0.595 0.215,1.227 0.442,1.805 0.258,0.568 0.561,1.121 0.95,1.604 1.534,1.976 3.715,3.209 5.853,4.281 2.169,1.059 4.422,1.896 6.684,2.679 l 6.816,2.182 c 1.129,0.372 2.252,0.757 3.341,1.202 1.08,0.45 2.14,0.976 3.186,1.537 2.094,1.112 4.112,2.376 6.093,3.694 C -3.852,-2.815 -1.915,-1.424 0,0" /></g><g
           transform="translate(197.9773,49.1663)"
           id="g36"><path
             id="path38"
             style="fill:#fbafa7;fill-opacity:1;fill-rule:nonzero;stroke:none"
             d="m 0,0 c 0,-4.211 -32.359,-7.625 -72.276,-7.625 -39.917,0 -72.276,3.414 -72.276,7.625 0,4.211 32.359,7.625 72.276,7.625 C -32.359,7.625 0,4.211 0,0" /></g><g
           transform="translate(177.1375,38.4402)"
           id="g40"><path
             id="path42"
             style="fill:#fbafa7;fill-opacity:1;fill-rule:nonzero;stroke:none"
             d="m 0,0 c 0,-0.721 -5.539,-1.305 -12.37,-1.305 -6.832,0 -12.371,0.584 -12.371,1.305 0,0.721 5.539,1.305 12.371,1.305 C -5.539,1.305 0,0.721 0,0" /></g><g
           transform="translate(175.7576,100.909)"
           id="g44"><path
             id="path46"
             style="fill:#dd4412;fill-opacity:1;fill-rule:nonzero;stroke:none"
             d="M 0,0 H -45.97 L -63.6,9.795 h 37.321 z" /></g><g
           transform="translate(175.7576,160.0774)"
           id="g48"><path
             id="path50"
             style="fill:#fa5c17;fill-opacity:1;fill-rule:nonzero;stroke:none"
             d="m 0,0 v -59.168 h -6.129 v 2.284 l -20.15,7.51 V 7.924 c 0,0 12.392,14.46 26.279,-7.924" /></g><g
           transform="translate(169.6287,161.1116)"
           id="g52"><path
             id="path54"
             style="fill:#dd4412;fill-opacity:1;fill-rule:nonzero;stroke:none"
             d="m 0,0 v -57.918 l -26.279,8.544 V 7.924 c 0,0 12.392,14.46 26.279,-7.924" /></g><path
           id="path56"
           style="fill:#fa5c17;fill-opacity:1;fill-rule:nonzero;stroke:none"
           d="m 175.758,100.909 h -45.97 v -7.727 h 45.97 z" /><g
           transform="translate(112.158,110.7039)"
           id="g58"><path
             id="path60"
             style="fill:#dd4412;fill-opacity:1;fill-rule:nonzero;stroke:none"
             d="m 0,0 v -6.312 l 17.63,-11.21 v 7.727 z" /></g><path
           id="path62"
           style="fill:#19114c;fill-opacity:1;fill-rule:nonzero;stroke:none"
           d="m 114.104,71.27 h -1.946 v 33.012 h 1.946 z" /><g
           transform="translate(145.9959,132.6145)"
           id="g64"><path
             id="path66"
             style="fill:#ffd63f;fill-opacity:1;fill-rule:nonzero;stroke:none"
             d="m 0,0 c 0,0 -18.167,-10.302 -28.179,-11.318 -10.012,-1.016 -7.94,-19.735 -8.251,-23.072 -0.31,-3.338 -2.487,-24.813 -2.487,-24.813 0,0 2.612,-2.032 5.079,-0.871 0,0 12.995,32.538 15.236,45.419 0,0 20.266,8.1 28.997,16.602 C 10.395,1.947 4.816,-0.145 0,0" /></g><g
           transform="translate(159.0271,135.8069)"
           id="g68"><path
             id="path70"
             style="fill:#e6c13b;fill-opacity:1;fill-rule:nonzero;stroke:none"
             d="m 0,0 c 0,0 12.914,-15.236 0,-26.845 -9.69,-7.255 -32.939,-8.126 -32.939,-8.126 0,0 3.047,-23.797 -1.161,-38.743 0,0 -2.466,-2.322 -6.53,-0.725 0,0 -1.058,10.556 -3.431,18.99 0,0 10.541,28.604 12.428,37.601 0,0 17.982,7.461 28.996,16.602 0,0 1.186,0.666 2.637,1.246" /></g><g
           transform="translate(130.8768,208.7957)"
           id="g72"><path
             id="path74"
             style="fill:#9673d0;fill-opacity:1;fill-rule:nonzero;stroke:none"
             d="m 0,0 c 0,0 -17.703,-5.224 -5.659,-26.845 2.321,-5.078 -1.441,-8.271 0.73,-15.236 2.172,-6.965 10.443,-22.346 31.628,-13.495 21.186,8.851 20.025,22.782 16.688,28.731 -3.338,5.949 -3.773,6.965 -3.193,17.413 C 40.774,1.016 32.187,17.993 15.295,15.671 -1.597,13.35 0,0 0,0" /></g><g
           transform="translate(129.7156,198.0579)"
           id="g76"><path
             id="path78"
             style="fill:#f89b5b;fill-opacity:1;fill-rule:nonzero;stroke:none"
             d="m 0,0 c 0,0 -1.161,-23.798 14.946,-22.637 16.107,1.161 16.397,12.915 15.671,13.93 0,0 5.064,4.063 0.21,8.707 -2.387,2.467 -4.853,-2.467 -4.853,-2.467 0,0 -12.624,-4.788 -23.362,6.384 C 2.612,3.917 1.887,1.306 0,0" /></g><g
           transform="translate(146.1717,175.5667)"
           id="g80"><path
             id="path82"
             style="fill:#f89b5b;fill-opacity:1;fill-rule:nonzero;stroke:none"
             d="m 0,0 c 0,0 0.931,-4.063 0,-6.385 -0.93,-2.322 1.973,-5.659 5.02,-2.322 3.047,3.337 2.612,5.514 2.612,5.514 0,0 -0.789,1.873 -0.612,5.145 C 7.02,1.952 3.738,0.646 0,0" /></g><g
           transform="translate(109.8357,130.1477)"
           id="g84"><path
             id="path86"
             style="fill:#19114c;fill-opacity:1;fill-rule:nonzero;stroke:none"
             d="m 0,0 c 0,0 22.057,0.146 25.539,19.735 3.482,19.589 10.797,19.299 10.797,19.299 0,0 -0.141,-3.275 3.165,-3.596 0,0 -8.448,-30.359 -14.688,-33.551 -6.239,-3.193 -18.428,-6.24 -23.652,-6.24 0,0 -2.177,2.177 -1.161,4.353" /></g><g
           transform="translate(145.9959,132.6145)"
           id="g88"><path
             id="path90"
             style="fill:#34227a;fill-opacity:1;fill-rule:nonzero;stroke:none"
             d="m 0,0 c 0,0 0.005,11.505 -1.915,14.874 -1.919,3.368 -4.353,7.473 -2.176,13.277 2.176,5.804 4.267,8.416 4.267,8.416 l 7.632,3.192 c 0,0 4.788,1.124 8.126,-0.889 L 13.031,3.192 C 13.031,3.192 6.412,-0.58 0,0" /></g><g
           transform="translate(64.4178,121.6585)"
           id="g92"><path
             id="path94"
             style="fill:#ffffff;fill-opacity:1;fill-rule:nonzero;stroke:none"
             d="m 0,0 v -3.86 c 0,-1.371 16.469,-2.482 36.784,-2.482 20.316,0 36.785,1.111 36.785,2.482 l 0,3.86 z" /></g><g
           transform="translate(137.9871,121.6585)"
           id="g96"><path
             id="path98"
             style="fill:#310382;fill-opacity:1;fill-rule:nonzero;stroke:none"
             d="m 0,0 c 0,-1.371 -16.47,-2.482 -36.785,-2.482 -20.316,0 -36.784,1.111 -36.784,2.482 0,1.371 16.468,2.482 36.784,2.482 C -16.47,2.482 0,1.371 0,0" /></g><g
           transform="translate(109.8357,130.1477)"
           id="g100"><path
             id="path102"
             style="fill:#f89b5b;fill-opacity:1;fill-rule:nonzero;stroke:none"
             d="m 0,0 c 0,0 -4.86,0.871 -6.312,0.726 -1.451,-0.145 -4.063,-2.757 -6.312,-3.556 -2.249,-0.797 0.871,-2.466 4.426,-1.886 3.555,0.581 5.731,-0.435 9.359,0.363 0,0 -1.887,1.814 -1.161,4.353" /></g><g
           transform="translate(72.1434,51.9358)"
           id="g104"><path
             id="path106"
             style="fill:#19114c;fill-opacity:1;fill-rule:nonzero;stroke:none"
             d="m 0,0 v -2.8 c 0,-0.995 11.947,-1.801 26.684,-1.801 14.737,0 26.683,0.806 26.683,1.801 V 0 Z" /></g><g
           transform="translate(70.5848,149.2473)"
           id="g108"><path
             id="path110"
             style="fill:#19114c;fill-opacity:1;fill-rule:nonzero;stroke:none"
             d="M 0,0 9.795,-26.881 H 41.661 L 31.778,0 Z" /></g><g
           transform="translate(125.5105,51.9358)"
           id="g112"><path
             id="path114"
             style="fill:#310382;fill-opacity:1;fill-rule:nonzero;stroke:none"
             d="m 0,0 c 0,-0.995 -11.947,-1.801 -26.684,-1.801 -14.736,0 -26.683,0.806 -26.683,1.801 0,0.994 11.947,1.8 26.683,1.8 C -11.947,1.8 0,0.994 0,0" /></g><path
           id="path116"
           style="fill:#ffffff;fill-opacity:1;fill-rule:nonzero;stroke:none"
           d="m 96.452,52.951 h 4.75 v 62.365 h -4.75 z" /><g
           transform="translate(107.0789,73.4114)"
           id="g118"><path
             id="path120"
             style="fill:#464195;fill-opacity:1;fill-rule:nonzero;stroke:none"
             d="m 0,0 c 0,0 -4.823,-7.328 -8.252,-9.722 -3.429,-2.394 -2.269,-6.965 2.375,-4.136 4.644,2.83 7.256,5.998 8.997,6.482 1.741,0.483 1.959,6.505 1.959,6.505 0,0 -3.302,-0.29 -5.079,0.871" /></g><g
           transform="translate(119.5682,61.0081)"
           id="g122"><path
             id="path124"
             style="fill:#464195;fill-opacity:1;fill-rule:nonzero;stroke:none"
             d="m 0,0 c 0,0 1.84,-1.781 -2.078,-3.74 -3.917,-1.959 -10.659,-3.674 -9.468,-5.332 1.192,-1.659 9.795,0.725 12.406,1.015 2.613,0.29 5.375,1.489 5.082,3.23 C 5.649,-3.087 5.359,1.085 5.359,1.085 5.359,1.085 3.928,-0.722 0,0" /></g><g
           transform="translate(112.2459,122.3665)"
           id="g126"><path
             id="path128"
             style="fill:#19114c;fill-opacity:1;fill-rule:nonzero;stroke:none"
             d="M 0,0 H 20.876 V 1.342 H -0.494 Z" /></g><g
           transform="translate(137.0936,190.0403)"
           id="g130"><path
             id="path132"
             style="fill:#d07e4d;fill-opacity:1;fill-rule:nonzero;stroke:none"
             d="m 0,0 c 0,0 0.312,-3.047 -0.449,-4.897 -0.762,-1.85 0.761,-3.265 1.85,-3.047 1.088,0.217 1.372,0.761 1.372,0.761 z" /></g><g
           transform="translate(132.0379,122.4573)"
           id="g134"><path
             id="path136"
             style="fill:#464195;fill-opacity:1;fill-rule:nonzero;stroke:none"
             d="m 0,0 c 0,0 26.795,10.962 27.425,18.701 0.629,7.74 -2.613,22.654 -0.871,26.427 1.741,3.773 3.338,3.899 3.338,3.899 0,0 5.659,0.019 6.529,-7.091 C 37.292,34.826 37.002,13.93 28.585,8.707 20.169,3.482 1.306,-2.757 1.306,-2.757 1.306,-2.757 -1.017,-2.322 0,0" /></g><g
           transform="translate(132.0379,122.4573)"
           id="g138"><path
             id="path140"
             style="fill:#f89b5b;fill-opacity:1;fill-rule:nonzero;stroke:none"
             d="m 0,0 c 0,0 -4.426,0.218 -6.095,0 -1.669,-0.218 -4.643,-2.757 -6.384,-3.773 -1.742,-1.016 -1.306,-2.467 -0.436,-2.467 0,0 2.358,-0.943 6.076,0 3.719,0.944 8.145,3.483 8.145,3.483 0,0 -2.177,0.653 -1.306,2.757" /></g><g
           transform="translate(131.7801,188.6775)"
           id="g142"><path
             id="path144"
             style="fill:#d07e4d;fill-opacity:1;fill-rule:nonzero;stroke:none"
             d="m 0,0 c 0.423,-0.208 0.763,-0.416 1.079,-0.584 0.317,-0.161 0.596,-0.278 0.787,-0.274 0.18,-0.021 0.383,0.021 0.683,0.192 0.14,0.085 0.294,0.197 0.463,0.303 C 3.174,-0.243 3.339,-0.115 3.559,0 3.596,-0.467 3.495,-0.92 3.225,-1.331 2.979,-1.745 2.402,-2.115 1.772,-2.069 1.154,-2.002 0.716,-1.655 0.443,-1.282 0.165,-0.906 -0.001,-0.477 0,0" /></g><g
           transform="translate(141.0477,190.4759)"
           id="g146"><path
             id="path148"
             style="fill:#d07e4d;fill-opacity:1;fill-rule:nonzero;stroke:none"
             d="m 0,0 c 1.211,-0.08 2.163,-0.001 2.92,0.451 0.385,0.222 0.728,0.542 1.092,0.905 0.17,0.191 0.342,0.396 0.532,0.6 0.175,0.215 0.35,0.439 0.58,0.656 C 5.149,2.308 5.117,2.01 5.086,1.706 5.01,1.417 4.935,1.116 4.804,0.835 4.54,0.271 4.105,-0.243 3.525,-0.602 2.93,-0.934 2.216,-1.051 1.583,-0.92 0.952,-0.799 0.384,-0.484 0,0" /></g><g
           transform="translate(141.0477,180.5725)"
           id="g150"><path
             id="path152"
             style="fill:#d07e4d;fill-opacity:1;fill-rule:nonzero;stroke:none"
             d="M 0,0 C 0.827,0.614 1.523,1.062 1.914,1.618 2.12,1.883 2.261,2.182 2.347,2.567 2.453,2.95 2.47,3.391 2.563,3.917 2.942,3.566 3.224,3.101 3.295,2.551 3.407,2.008 3.239,1.376 2.893,0.9 2.533,0.43 2.041,0.116 1.532,-0.022 1.026,-0.165 0.5,-0.184 0,0" /></g><path
           id="path154"
           style="fill:#19114c;fill-opacity:1;fill-rule:nonzero;stroke:none"
           d="m 131.735,47.335 h -1.947 v 45.847 h 1.947 z" /><path
           id="path156"
           style="fill:#19114c;fill-opacity:1;fill-rule:nonzero;stroke:none"
           d="m 175.758,47.335 h -1.946 v 45.847 h 1.946 z" /><path
           id="path158"
           style="fill:#19114c;fill-opacity:1;fill-rule:nonzero;stroke:none"
           d="m 144.931,70.982 h -1.947 v 22.2 h 1.947 z" /></g></g></g></svg>