<svg width="166" height="230" fill="none" xmlns="http://www.w3.org/2000/svg"><path d="M39.21 229.879h-2.904v-19.237h2.904v7.622h.484c1.573 0 2.057-1.694 2.057-3.025v-4.597h3.026v4.355c0 2.057-.726 3.509-2.179 4.598 1.574 1.089 2.179 2.54 2.179 4.597V230h-2.905v-6.05c0-1.21-.605-2.782-2.057-2.782h-.484v8.711h-.121zm50.101 0v-19.237h2.663v11.251l3.025-11.251h3.268v19.237h-2.662v-13.43l-3.631 13.43H89.31zm11.013 0v-19.237h2.663v11.251l3.025-11.251h3.268v19.237h-2.663v-13.43l-3.63 13.43h-2.663zm7.745-23.835v2.299h-6.535v-2.299h6.535zm-26.26 23.835h-2.905v-19.237h2.904v7.622h.484c1.574 0 2.058-1.694 2.058-3.025v-4.597h2.904v4.355c0 2.057-.726 3.509-2.178 4.598 1.573 1.089 2.178 2.54 2.178 4.597V230H84.35v-6.05c0-1.21-.605-2.782-2.058-2.782h-.484v8.711zm-53.49 0h-2.905v-19.237h8.713v7.743h-3.025v-4.961h-2.784v13.793h2.784v-4.961h3.025V230H28.318v-.121zm42.598 0h-2.905v-19.237H76.726v7.743H73.7v-4.961h-2.783v13.793H73.7v-4.961h3.026V230H70.917v-.121zM20.33 213.303h-2.783v13.793h2.783v-13.793zm-2.783 16.576h-3.026v-19.237h8.713v19.237H17.548zm35.095-16.576h-2.784v13.793h2.784v-13.793zm-2.784 16.576h-2.904v-19.237h8.713v19.237H49.86zm10.771-16.576v5.203c1.09 0 2.42 0 2.42-1.936v-3.267h-2.42zm0 7.986v5.807h2.42v-3.751c0-1.935-1.33-2.177-2.42-2.056zm5.446-7.26v2.42c0 1.573-.605 2.662-1.694 3.388 1.089.847 1.694 2.177 1.694 3.871V230h-8.229v-19.358h8.229v3.387zm-59.783 9.437c.726-4.113 1.815-8.711 2.3-12.945h3.993v19.237H9.924v-7.623l.363-6.896c-.364 2.178-1.816 10.405-3.631 14.277h-.605c-1.815-3.872-3.268-12.099-3.63-14.277l.362 6.896v7.623H0v-19.116h3.994c.484 4.113 1.452 8.711 2.299 12.824zM150.547 213.424v8.591c1.089.121 2.42-.121 2.42-2.057V213.424h-2.42zm5.446 3.872v2.42c0 3.024-1.574 5.081-4.357 5.081h-.968V230h-3.026v-19.358h8.351v6.654zm.726-6.654h9.076v2.782h-3.025V230h-2.905v-16.576h-3.025v-2.782h-.121zm-14.159 2.782h-2.784v13.793h2.784v-13.793zm-2.784 16.455h-2.904v-19.237h8.713v19.237H139.776zm-21.662 0h-2.905v-19.237H123.923v7.743h-3.026v-4.961h-2.783v13.793h2.783v-4.96h3.026V230H118.114v-.121zm10.892 0h-2.905v-19.237h8.713v19.237h-3.025v-16.576h-2.783v16.576zM89.917 142.526c3.267 3.993 6.777 7.743 10.528 11.373 17.548 16.696 40.178 28.795 65.35 33.877v-15.003c-20.936-4.839-39.694-15.123-54.458-29.158-4.841-4.598-9.319-9.679-13.191-15.003l-8.23 13.914z" fill="#fff"/><path d="M35.336 126.796c16.459-15.607 26.745-37.264 26.745-60.978V0h15.37v65.818c0 11.615 1.936 25.166 5.445 35.692 3.51-10.526 5.446-24.077 5.446-35.692V0h15.37v65.818c0 23.714 10.286 45.371 26.745 60.978 9.802 9.316 21.904 16.576 35.337 20.931v15.366a107.234 107.234 0 0 1-46.229-25.892c-9.439-9.074-17.185-19.842-22.51-31.82-3.993 10.284-8.47 20.084-14.038 27.586-5.566-7.381-10.044-17.181-14.038-27.586-5.446 11.978-13.07 22.625-22.63 31.699-12.707 12.099-28.56 21.052-46.23 25.892v-15.245a92.554 92.554 0 0 0 35.217-20.931z" fill="#fff"/><path d="M128.521 64.366c0 17.302 7.504 33.03 19.484 44.524 5.204 4.96 11.255 9.074 17.911 12.22v15.97c-10.892-3.992-20.694-10.042-28.802-17.785-14.886-14.156-23.962-33.514-23.962-54.929v-14.76h15.369v14.76zM37.395 49.605h15.369v14.882c0 21.294-9.197 40.773-23.962 54.808-8.108 7.743-17.91 13.793-28.802 17.785v-15.97c6.656-3.146 12.707-7.26 17.91-12.22 11.982-11.373 19.485-27.102 19.485-44.524v-14.76zM67.77 128.491c-3.993 5.324-8.35 10.405-13.19 15.003C39.814 157.529 21.056 167.813.12 172.652v15.003c25.172-5.082 47.681-17.181 65.35-33.877 3.751-3.63 7.261-7.38 10.528-11.373l-8.229-13.914z" fill="#fff"/></svg>