<svg width="1104" height="732" fill="none" xmlns="http://www.w3.org/2000/svg"><g opacity=".4"><mask id="a" style="mask-type:alpha" maskUnits="userSpaceOnUse" x="0" y="0" width="1104" height="732"><path fill="#E5E5E5" d="M0 .75h1104v731H0z"/></mask><g mask="url(#a)" fill="#EB3333" stroke="#EB3333"><path d="M1025.6 44.1h2.4c.39 0 .7.313.7.7 0 .386-.31.7-.7.7h-2.4c-.39 0-.7-.314-.7-.7 0-.387.31-.7.7-.7zM1032.8 44.1h28.8c.39 0 .7.313.7.7 0 .386-.31.7-.7.7h-28.8c-.39 0-.7-.314-.7-.7 0-.387.31-.7.7-.7zM1025.6 36.9h2.4c.39 0 .7.314.7.7 0 .387-.31.7-.7.7h-2.4c-.39 0-.7-.313-.7-.7 0-.386.31-.7.7-.7zM1032.8 36.9h28.8c.39 0 .7.314.7.7 0 .387-.31.7-.7.7h-28.8c-.39 0-.7-.313-.7-.7 0-.386.31-.7.7-.7zM1025.6 29.7h2.4c.39 0 .7.314.7.7 0 .387-.31.7-.7.7h-2.4c-.39 0-.7-.313-.7-.7 0-.386.31-.7.7-.7zM1032.8 29.7h28.8c.39 0 .7.314.7.7 0 .387-.31.7-.7.7h-28.8c-.39 0-.7-.313-.7-.7 0-.386.31-.7.7-.7zM1025.6 22.5h2.4c.39 0 .7.313.7.7 0 .387-.31.7-.7.7h-2.4c-.39 0-.7-.313-.7-.7 0-.387.31-.7.7-.7zM1032.8 22.5h28.8c.39 0 .7.313.7.7 0 .387-.31.7-.7.7h-28.8c-.39 0-.7-.313-.7-.7 0-.387.31-.7.7-.7zM1025.6 15.3h2.4c.39 0 .7.313.7.7 0 .386-.31.7-.7.7h-2.4c-.39 0-.7-.314-.7-.7 0-.387.31-.7.7-.7zM1032.8 15.3h28.8c.39 0 .7.313.7.7 0 .386-.31.7-.7.7h-28.8c-.39 0-.7-.314-.7-.7 0-.387.31-.7.7-.7z"/><path d="M1069.48 9.953l.01.008v.009c0 .034 0 .062.01.083V55.6c0 .387-.31.7-.7.7h-6.5v6.5c0 .387-.31.7-.7.7h-50.4c-.39 0-.7-.313-.7-.7V-2c0-.387.31-.7.7-.7h6.5v-4.1c0-.387.31-.7.7-.7h33.56a.546.546 0 0 0 .1.01c.05.005.1.017.16.034.01.005.02.01.03.013l.03.008c0 .002.01.003.01.003.07.034.14.081.2.139v.001l16.8 16.794v.002c.06.059.1.127.14.202v.009l.01.024c0 .01 0 .024.01.04v.002c.02.055.03.113.03.172zm-15.93-14.21l-.85-.853V9.3h14.41l-.85-.854-12.71-12.703zm6.85 66.357h.5v-5.8h-42.5c-.39 0-.7-.313-.7-.7V-1.3h-5.8v63.4h48.5zm7.2-7.2h.5V10.7H1052c-.39 0-.7-.313-.7-.7V-6.1h-32.2v61h48.5z"/><path d="M1031.6 10.5h.5V4.7h-5.8v5.8h5.3zm-6-7.2h7.2c.39 0 .7.313.7.7v7.2c0 .386-.31.7-.7.7h-7.2c-.39 0-.7-.314-.7-.7V4c0-.387.31-.7.7-.7zM886.171 44.1h2.4a.7.7 0 1 1 0 1.4h-2.4a.7.7 0 0 1 0-1.4zM893.371 44.1h28.8a.7.7 0 1 1 0 1.4h-28.8a.7.7 0 0 1 0-1.4zM886.171 36.9h2.4a.7.7 0 1 1 0 1.4h-2.4a.7.7 0 0 1 0-1.4zM893.371 36.9h28.8a.7.7 0 1 1 0 1.4h-28.8a.7.7 0 0 1 0-1.4zM886.171 29.7h2.4a.7.7 0 1 1 0 1.4h-2.4a.7.7 0 0 1 0-1.4zM893.371 29.7h28.8a.7.7 0 1 1 0 1.4h-28.8a.7.7 0 0 1 0-1.4zM886.171 22.5h2.4a.7.7 0 1 1 0 1.4h-2.4a.7.7 0 0 1 0-1.4zM893.371 22.5h28.8a.7.7 0 1 1 0 1.4h-28.8a.7.7 0 0 1 0-1.4zM886.171 15.3h2.4a.7.7 0 1 1 0 1.4h-2.4a.7.7 0 0 1 0-1.4zM893.371 15.3h28.8a.7.7 0 1 1 0 1.4h-28.8a.7.7 0 0 1 0-1.4z"/><path d="M930.057 9.953v.008l.001.009a.605.605 0 0 0 .013.083V55.6a.7.7 0 0 1-.7.7h-6.5v6.5a.7.7 0 0 1-.7.7h-50.4a.7.7 0 0 1-.7-.7V-2a.7.7 0 0 1 .7-.7h6.5v-4.1a.7.7 0 0 1 .7-.7h33.556a.563.563 0 0 0 .102.01.687.687 0 0 1 .196.047l.026.008a.701.701 0 0 1 .212.142l.001.001 16.794 16.794.002.002a.7.7 0 0 1 .141.211l.008.024.013.04v.002c.02.055.031.113.035.172zm-15.932-14.21l-.854-.853V9.3h14.411l-.854-.854-12.703-12.703zm6.846 66.357h.5v-5.8h-42.5a.7.7 0 0 1-.7-.7V-1.3h-5.8v63.4h48.5zm7.2-7.2h.5V10.7h-16.1a.7.7 0 0 1-.7-.7V-6.1h-32.2v61h48.5z"/><path d="M892.171 10.5h.5V4.7h-5.8v5.8h5.3zm-6-7.2h7.2a.7.7 0 0 1 .7.7v7.2a.7.7 0 0 1-.7.7h-7.2a.7.7 0 0 1-.7-.7V4a.7.7 0 0 1 .7-.7zM746.743 44.1h2.4a.7.7 0 0 1 0 1.4h-2.4a.7.7 0 1 1 0-1.4zM753.943 44.1h28.8a.7.7 0 0 1 0 1.4h-28.8a.7.7 0 1 1 0-1.4zM746.743 36.9h2.4a.7.7 0 0 1 0 1.4h-2.4a.7.7 0 1 1 0-1.4zM753.943 36.9h28.8a.7.7 0 0 1 0 1.4h-28.8a.7.7 0 1 1 0-1.4zM746.743 29.7h2.4a.7.7 0 0 1 0 1.4h-2.4a.7.7 0 1 1 0-1.4zM753.943 29.7h28.8a.7.7 0 0 1 0 1.4h-28.8a.7.7 0 1 1 0-1.4zM746.743 22.5h2.4a.7.7 0 0 1 0 1.4h-2.4a.7.7 0 1 1 0-1.4zM753.943 22.5h28.8a.7.7 0 0 1 0 1.4h-28.8a.7.7 0 1 1 0-1.4zM746.743 15.3h2.4a.7.7 0 0 1 0 1.4h-2.4a.7.7 0 1 1 0-1.4zM753.943 15.3h28.8a.7.7 0 0 1 0 1.4h-28.8a.7.7 0 1 1 0-1.4z"/><path d="M790.628 9.953l.001.008v.009a.586.586 0 0 0 .014.083V55.6a.7.7 0 0 1-.7.7h-6.5v6.5a.7.7 0 0 1-.7.7h-50.4a.7.7 0 0 1-.7-.7V-2a.7.7 0 0 1 .7-.7h6.5v-4.1a.7.7 0 0 1 .7-.7h33.555l.032.005a.699.699 0 0 1 .229.04l.038.012.025.008.01.003c.075.034.144.081.203.139l.001.001L790.43 9.502l.001.002a.703.703 0 0 1 .139.202l.002.009.008.024.013.04.001.002a.63.63 0 0 1 .034.172zm-15.932-14.21l-.853-.853V9.3h14.41l-.853-.854-12.704-12.703zm6.847 66.357h.5v-5.8h-42.5a.7.7 0 0 1-.7-.7V-1.3h-5.8v63.4h48.5zm7.2-7.2h.5V10.7h-16.1a.7.7 0 0 1-.7-.7V-6.1h-32.2v61h48.5z"/><path d="M752.743 10.5h.5V4.7h-5.8v5.8h5.3zm-6-7.2h7.2a.7.7 0 0 1 .7.7v7.2a.7.7 0 0 1-.7.7h-7.2a.7.7 0 0 1-.7-.7V4a.7.7 0 0 1 .7-.7zM607.314 44.1h2.4a.7.7 0 1 1 0 1.4h-2.4a.7.7 0 0 1 0-1.4zM614.514 44.1h28.8a.7.7 0 1 1 0 1.4h-28.8a.7.7 0 0 1 0-1.4zM607.314 36.9h2.4a.7.7 0 1 1 0 1.4h-2.4a.7.7 0 0 1 0-1.4zM614.514 36.9h28.8a.7.7 0 1 1 0 1.4h-28.8a.7.7 0 0 1 0-1.4zM607.314 29.7h2.4a.7.7 0 1 1 0 1.4h-2.4a.7.7 0 0 1 0-1.4zM614.514 29.7h28.8a.7.7 0 1 1 0 1.4h-28.8a.7.7 0 0 1 0-1.4zM607.314 22.5h2.4a.7.7 0 1 1 0 1.4h-2.4a.7.7 0 0 1 0-1.4zM614.514 22.5h28.8a.7.7 0 1 1 0 1.4h-28.8a.7.7 0 0 1 0-1.4zM607.314 15.3h2.4a.7.7 0 1 1 0 1.4h-2.4a.7.7 0 0 1 0-1.4zM614.514 15.3h28.8a.7.7 0 1 1 0 1.4h-28.8a.7.7 0 0 1 0-1.4z"/><path d="M651.2 9.953v.008l.001.009a.605.605 0 0 0 .013.083V55.6a.7.7 0 0 1-.7.7h-6.5v6.5a.7.7 0 0 1-.7.7h-50.4a.7.7 0 0 1-.7-.7V-2a.7.7 0 0 1 .7-.7h6.5v-4.1a.7.7 0 0 1 .7-.7h33.556a.563.563 0 0 0 .102.01.687.687 0 0 1 .196.047l.026.008a.701.701 0 0 1 .213.143l16.795 16.794.001.002a.7.7 0 0 1 .138.202l.003.009.008.024.013.04v.002c.02.055.031.113.035.172zm-15.932-14.21l-.854-.853V9.3H648.825l-.854-.854-12.703-12.703zm6.846 66.357h.5v-5.8h-42.5a.7.7 0 0 1-.7-.7V-1.3h-5.8v63.4h48.5zm7.2-7.2h.5V10.7h-16.1a.7.7 0 0 1-.7-.7V-6.1h-32.2v61h48.5z"/><path d="M613.314 10.5h.5V4.7h-5.8v5.8h5.3zm-6-7.2h7.2a.7.7 0 0 1 .7.7v7.2a.7.7 0 0 1-.7.7h-7.2a.7.7 0 0 1-.7-.7V4a.7.7 0 0 1 .7-.7zM467.886 44.1h2.4a.7.7 0 0 1 0 1.4h-2.4a.7.7 0 1 1 0-1.4zM475.086 44.1h28.8a.7.7 0 0 1 0 1.4h-28.8a.7.7 0 1 1 0-1.4zM467.886 36.9h2.4a.7.7 0 0 1 0 1.4h-2.4a.7.7 0 1 1 0-1.4zM475.086 36.9h28.8a.7.7 0 0 1 0 1.4h-28.8a.7.7 0 1 1 0-1.4zM467.886 29.7h2.4a.7.7 0 0 1 0 1.4h-2.4a.7.7 0 1 1 0-1.4zM475.086 29.7h28.8a.7.7 0 0 1 0 1.4h-28.8a.7.7 0 1 1 0-1.4zM467.886 22.5h2.4a.7.7 0 0 1 0 1.4h-2.4a.7.7 0 1 1 0-1.4zM475.086 22.5h28.8a.7.7 0 0 1 0 1.4h-28.8a.7.7 0 1 1 0-1.4zM467.886 15.3h2.4a.7.7 0 0 1 0 1.4h-2.4a.7.7 0 1 1 0-1.4zM475.086 15.3h28.8a.7.7 0 0 1 0 1.4h-28.8a.7.7 0 1 1 0-1.4z"/><path d="M511.771 9.953v.008l.001.009a.586.586 0 0 0 .014.083V55.6a.7.7 0 0 1-.7.7h-6.5v6.5a.7.7 0 0 1-.7.7h-50.4a.7.7 0 0 1-.7-.7V-2a.7.7 0 0 1 .7-.7h6.5v-4.1a.7.7 0 0 1 .7-.7h33.555l.032.005a.707.707 0 0 1 .229.04l.038.012.025.008a.688.688 0 0 1 .212.142l.002.001 16.794 16.794.001.002a.68.68 0 0 1 .141.211l.008.024.013.04.001.002a.67.67 0 0 1 .034.172zm-15.932-14.21l-.853-.853V9.3h14.41l-.854-.854-12.703-12.703zm6.847 66.357h.5v-5.8h-42.5a.7.7 0 0 1-.7-.7V-1.3h-5.8v63.4h48.5zm7.2-7.2h.5V10.7h-16.1a.7.7 0 0 1-.7-.7V-6.1h-32.2v61h48.5z"/><path d="M473.886 10.5h.5V4.7h-5.8v5.8h5.3zm-6-7.2h7.2a.7.7 0 0 1 .7.7v7.2a.7.7 0 0 1-.7.7h-7.2a.7.7 0 0 1-.7-.7V4a.7.7 0 0 1 .7-.7zM328.457 44.1h2.4a.7.7 0 1 1 0 1.4h-2.4a.7.7 0 0 1 0-1.4zM335.657 44.1h28.8a.7.7 0 1 1 0 1.4h-28.8a.7.7 0 0 1 0-1.4zM328.457 36.9h2.4a.7.7 0 1 1 0 1.4h-2.4a.7.7 0 0 1 0-1.4zM335.657 36.9h28.8a.7.7 0 1 1 0 1.4h-28.8a.7.7 0 0 1 0-1.4zM328.457 29.7h2.4a.7.7 0 1 1 0 1.4h-2.4a.7.7 0 0 1 0-1.4zM335.657 29.7h28.8a.7.7 0 1 1 0 1.4h-28.8a.7.7 0 0 1 0-1.4zM328.457 22.5h2.4a.7.7 0 1 1 0 1.4h-2.4a.7.7 0 0 1 0-1.4zM335.657 22.5h28.8a.7.7 0 1 1 0 1.4h-28.8a.7.7 0 0 1 0-1.4zM328.457 15.3h2.4a.7.7 0 1 1 0 1.4h-2.4a.7.7 0 0 1 0-1.4zM335.657 15.3h28.8a.7.7 0 1 1 0 1.4h-28.8a.7.7 0 0 1 0-1.4z"/><path d="M372.342 9.953l.001.008.001.009a.605.605 0 0 0 .013.083V55.6a.7.7 0 0 1-.7.7h-6.5v6.5a.7.7 0 0 1-.7.7h-50.4a.7.7 0 0 1-.7-.7V-2a.7.7 0 0 1 .7-.7h6.5v-4.1a.7.7 0 0 1 .7-.7h33.556a.563.563 0 0 0 .102.01.687.687 0 0 1 .196.047l.025.008a.701.701 0 0 1 .213.142l.001.001 16.794 16.794.002.002a.72.72 0 0 1 .141.211l.008.024.013.04v.002c.02.055.031.113.034.172zm-15.931-14.21l-.854-.853V9.3h14.41l-.853-.854-12.703-12.703zm6.846 66.357h.5v-5.8h-42.5a.7.7 0 0 1-.7-.7V-1.3h-5.8v63.4h48.5zm7.2-7.2h.5V10.7h-16.1a.7.7 0 0 1-.7-.7V-6.1h-32.2v61h48.5z"/><path d="M334.457 10.5h.5V4.7h-5.8v5.8h5.3zm-6-7.2h7.2a.7.7 0 0 1 .7.7v7.2a.7.7 0 0 1-.7.7h-7.2a.7.7 0 0 1-.7-.7V4a.7.7 0 0 1 .7-.7zM189.029 44.1h2.4a.7.7 0 0 1 0 1.4h-2.4a.7.7 0 1 1 0-1.4zM196.229 44.1h28.8a.7.7 0 0 1 0 1.4h-28.8a.7.7 0 1 1 0-1.4zM189.029 36.9h2.4a.7.7 0 0 1 0 1.4h-2.4a.7.7 0 1 1 0-1.4zM196.229 36.9h28.8a.7.7 0 0 1 0 1.4h-28.8a.7.7 0 1 1 0-1.4zM189.029 29.7h2.4a.7.7 0 0 1 0 1.4h-2.4a.7.7 0 1 1 0-1.4zM196.229 29.7h28.8a.7.7 0 0 1 0 1.4h-28.8a.7.7 0 1 1 0-1.4zM189.029 22.5h2.4a.7.7 0 0 1 0 1.4h-2.4a.7.7 0 1 1 0-1.4zM196.229 22.5h28.8a.7.7 0 0 1 0 1.4h-28.8a.7.7 0 1 1 0-1.4zM189.029 15.3h2.4a.7.7 0 0 1 0 1.4h-2.4a.7.7 0 1 1 0-1.4zM196.229 15.3h28.8a.7.7 0 0 1 0 1.4h-28.8a.7.7 0 1 1 0-1.4z"/><path d="M232.914 9.953v.008l.001.009a.586.586 0 0 0 .014.083V55.6a.7.7 0 0 1-.7.7h-6.5v6.5a.7.7 0 0 1-.7.7h-50.4a.7.7 0 0 1-.7-.7V-2a.7.7 0 0 1 .7-.7h6.5v-4.1a.7.7 0 0 1 .7-.7h33.555l.032.005a.696.696 0 0 1 .229.04l.038.012.025.008.01.003c.075.034.143.081.202.139l.002.001 16.794 16.794.001.002a.68.68 0 0 1 .141.211l.008.024.013.04.001.002a.63.63 0 0 1 .034.172zm-15.932-14.21l-.853-.853V9.3h14.41l-.854-.854-12.703-12.703zm6.847 66.357h.5v-5.8h-42.5a.7.7 0 0 1-.7-.7V-1.3h-5.8v63.4h48.5zm7.2-7.2h.5V10.7h-16.1a.7.7 0 0 1-.7-.7V-6.1h-32.2v61h48.5z"/><path d="M195.029 10.5h.5V4.7h-5.8v5.8h5.3zm-6-7.2h7.2a.7.7 0 0 1 .7.7v7.2a.7.7 0 0 1-.7.7h-7.2a.7.7 0 0 1-.7-.7V4a.7.7 0 0 1 .7-.7zM49.6 44.1H52a.7.7 0 0 1 0 1.4h-2.4a.7.7 0 1 1 0-1.4zM56.8 44.1h28.8a.7.7 0 0 1 0 1.4H56.8a.7.7 0 1 1 0-1.4zM49.6 36.9H52a.7.7 0 1 1 0 1.4h-2.4a.7.7 0 0 1 0-1.4zM56.8 36.9h28.8a.7.7 0 1 1 0 1.4H56.8a.7.7 0 0 1 0-1.4zM49.6 29.7H52a.7.7 0 1 1 0 1.4h-2.4a.7.7 0 1 1 0-1.4zM56.8 29.7h28.8a.7.7 0 1 1 0 1.4H56.8a.7.7 0 1 1 0-1.4zM49.6 22.5H52a.7.7 0 1 1 0 1.4h-2.4a.7.7 0 1 1 0-1.4zM56.8 22.5h28.8a.7.7 0 1 1 0 1.4H56.8a.7.7 0 1 1 0-1.4zM49.6 15.3H52a.7.7 0 1 1 0 1.4h-2.4a.7.7 0 1 1 0-1.4zM56.8 15.3h28.8a.7.7 0 1 1 0 1.4H56.8a.7.7 0 1 1 0-1.4z"/><path d="M93.485 9.953v.008l.002.009a.61.61 0 0 0 .013.083V55.6a.7.7 0 0 1-.7.7h-6.5v6.5a.7.7 0 0 1-.7.7H35.2a.7.7 0 0 1-.7-.7V-2a.7.7 0 0 1 .7-.7h6.5v-4.1a.7.7 0 0 1 .7-.7h33.556a.621.621 0 0 0 .102.01.695.695 0 0 1 .196.047l.025.008.01.003c.075.034.144.081.203.139v.001L93.288 9.502l.002.002a.702.702 0 0 1 .138.202l.003.009.007.024.013.04.001.002c.02.055.03.113.034.172zM77.554-4.257L76.7-5.11V9.3h14.41l-.853-.854L77.554-4.257zM84.4 62.1h.5v-5.8H42.4a.7.7 0 0 1-.7-.7V-1.3h-5.8v63.4h48.5zm7.2-7.2h.5V10.7H76a.7.7 0 0 1-.7-.7V-6.1H43.1v61h48.5z"/><path d="M55.6 10.5h.5V4.7h-5.8v5.8h5.3zm-6-7.2h7.2a.7.7 0 0 1 .7.7v7.2a.7.7 0 0 1-.7.7h-7.2a.7.7 0 0 1-.7-.7V4a.7.7 0 0 1 .7-.7zM950.85 156.933h2.4a.7.7 0 0 1 0 1.4h-2.4a.7.7 0 0 1 0-1.4zM958.05 156.933h28.8a.7.7 0 1 1 0 1.4h-28.8a.7.7 0 0 1 0-1.4zM950.85 149.733h2.4a.7.7 0 0 1 0 1.4h-2.4a.7.7 0 1 1 0-1.4zM958.05 149.733h28.8a.7.7 0 0 1 0 1.4h-28.8a.7.7 0 0 1 0-1.4zM950.85 142.533h2.4a.7.7 0 0 1 0 1.4h-2.4a.7.7 0 1 1 0-1.4zM958.05 142.533h28.8a.7.7 0 0 1 0 1.4h-28.8a.7.7 0 0 1 0-1.4zM950.85 135.333h2.4a.7.7 0 0 1 0 1.4h-2.4a.7.7 0 1 1 0-1.4zM958.05 135.333h28.8a.7.7 0 1 1 0 1.4h-28.8a.7.7 0 0 1 0-1.4zM950.85 128.133h2.4a.7.7 0 0 1 0 1.4h-2.4a.7.7 0 0 1 0-1.4zM958.05 128.133h28.8a.7.7 0 1 1 0 1.4h-28.8a.7.7 0 0 1 0-1.4z"/><path d="M994.735 122.786l.001.008v.009a.741.741 0 0 0 .014.083v45.547a.7.7 0 0 1-.7.7h-6.5v6.5a.7.7 0 0 1-.7.7h-50.4a.7.7 0 0 1-.7-.7v-64.8a.7.7 0 0 1 .7-.7h6.5v-4.1a.7.7 0 0 1 .7-.7h33.556l.031.005a.707.707 0 0 1 .229.039l.038.013.025.008a.705.705 0 0 1 .213.142l.001.001 16.794 16.794.002.002a.717.717 0 0 1 .138.202l.003.009.007.024.013.04.001.002a.625.625 0 0 1 .034.172zm-15.931-14.21l-.854-.853v14.41h14.41l-.853-.854-12.703-12.703zm6.846 66.357h.5v-5.8h-42.5a.7.7 0 0 1-.7-.7v-56.9h-5.8v63.4h48.5zm7.2-7.2h.5v-44.2h-16.1a.7.7 0 0 1-.7-.7v-16.1h-32.2v61h48.5z"/><path d="M956.85 123.333h.5v-5.8h-5.8v5.8h5.3zm-6-7.2h7.2a.7.7 0 0 1 .7.7v7.2a.7.7 0 0 1-.7.7h-7.2a.7.7 0 0 1-.7-.7v-7.2a.7.7 0 0 1 .7-.7zM1088.6 156.933h2.4c.39 0 .7.313.7.7 0 .386-.31.7-.7.7h-2.4c-.39 0-.7-.314-.7-.7 0-.387.31-.7.7-.7zM1095.8 156.933h28.8c.39 0 .7.313.7.7 0 .386-.31.7-.7.7h-28.8c-.39 0-.7-.314-.7-.7 0-.387.31-.7.7-.7zM1088.6 149.733h2.4c.39 0 .7.314.7.7 0 .387-.31.7-.7.7h-2.4c-.39 0-.7-.313-.7-.7 0-.386.31-.7.7-.7zM1095.8 149.733h28.8c.39 0 .7.314.7.7 0 .387-.31.7-.7.7h-28.8c-.39 0-.7-.313-.7-.7 0-.386.31-.7.7-.7zM1088.6 142.533h2.4c.39 0 .7.314.7.7 0 .387-.31.7-.7.7h-2.4c-.39 0-.7-.313-.7-.7 0-.386.31-.7.7-.7zM1095.8 142.533h28.8c.39 0 .7.314.7.7 0 .387-.31.7-.7.7h-28.8c-.39 0-.7-.313-.7-.7 0-.386.31-.7.7-.7zM1088.6 135.333h2.4c.39 0 .7.313.7.7 0 .387-.31.7-.7.7h-2.4c-.39 0-.7-.313-.7-.7 0-.387.31-.7.7-.7zM1095.8 135.333h28.8c.39 0 .7.313.7.7 0 .387-.31.7-.7.7h-28.8c-.39 0-.7-.313-.7-.7 0-.387.31-.7.7-.7zM1088.6 128.133h2.4c.39 0 .7.313.7.7 0 .386-.31.7-.7.7h-2.4c-.39 0-.7-.314-.7-.7 0-.387.31-.7.7-.7zM1095.8 128.133h28.8c.39 0 .7.313.7.7 0 .386-.31.7-.7.7h-28.8c-.39 0-.7-.314-.7-.7 0-.387.31-.7.7-.7z"/><path d="M1132.49 122.786v.017c0 .034.01.062.01.083v45.547c0 .387-.31.7-.7.7h-6.5v6.5c0 .387-.31.7-.7.7h-50.4c-.39 0-.7-.313-.7-.7v-64.8c0-.387.31-.7.7-.7h6.5v-4.1c0-.387.31-.7.7-.7h33.56a.439.439 0 0 0 .1.01c.05.005.1.017.16.034.01.005.02.01.03.013l.03.008c0 .002.01.003.01.003.07.034.14.081.2.139v.001l16.8 16.794v.002c.06.059.1.127.14.202v.009l.01.024c0 .011.01.024.01.04v.002c.02.055.03.113.04.172zm-15.94-14.21l-.85-.853v14.41h14.41l-.85-.854-12.71-12.703zm6.85 66.357h.5v-5.8h-42.5c-.39 0-.7-.313-.7-.7v-56.9h-5.8v63.4h48.5zm7.2-7.2h.5v-44.2H1115c-.39 0-.7-.313-.7-.7v-16.1h-32.2v61h48.5z"/><path d="M1094.6 123.333h.5v-5.8h-5.8v5.8h5.3zm-6-7.2h7.2c.39 0 .7.313.7.7v7.2c0 .386-.31.7-.7.7h-7.2c-.39 0-.7-.314-.7-.7v-7.2c0-.387.31-.7.7-.7zM813.1 156.933h2.4a.7.7 0 0 1 0 1.4h-2.4a.7.7 0 0 1 0-1.4zM820.3 156.933h28.8a.7.7 0 1 1 0 1.4h-28.8a.7.7 0 0 1 0-1.4zM813.1 149.733h2.4a.7.7 0 0 1 0 1.4h-2.4a.7.7 0 1 1 0-1.4zM820.3 149.733h28.8a.7.7 0 0 1 0 1.4h-28.8a.7.7 0 0 1 0-1.4zM813.1 142.533h2.4a.7.7 0 0 1 0 1.4h-2.4a.7.7 0 1 1 0-1.4zM820.3 142.533h28.8a.7.7 0 0 1 0 1.4h-28.8a.7.7 0 0 1 0-1.4zM813.1 135.333h2.4a.7.7 0 0 1 0 1.4h-2.4a.7.7 0 1 1 0-1.4zM820.3 135.333h28.8a.7.7 0 1 1 0 1.4h-28.8a.7.7 0 0 1 0-1.4zM813.1 128.133h2.4a.7.7 0 0 1 0 1.4h-2.4a.7.7 0 0 1 0-1.4zM820.3 128.133h28.8a.7.7 0 1 1 0 1.4h-28.8a.7.7 0 0 1 0-1.4z"/><path d="M856.985 122.786l.001.008v.009a.741.741 0 0 0 .014.083v45.547a.7.7 0 0 1-.7.7h-6.5v6.5a.7.7 0 0 1-.7.7h-50.4a.7.7 0 0 1-.7-.7v-64.8a.7.7 0 0 1 .7-.7h6.5v-4.1a.7.7 0 0 1 .7-.7h33.556l.031.005a.707.707 0 0 1 .229.039l.038.013.025.008a.705.705 0 0 1 .213.142l.001.001 16.794 16.794.002.002a.717.717 0 0 1 .138.202l.003.009.007.024.013.04.001.002a.625.625 0 0 1 .034.172zm-15.931-14.21l-.854-.853v14.41h14.41l-.853-.854-12.703-12.703zm6.846 66.357h.5v-5.8h-42.5a.7.7 0 0 1-.7-.7v-56.9h-5.8v63.4h48.5zm7.2-7.2h.5v-44.2h-16.1a.7.7 0 0 1-.7-.7v-16.1h-32.2v61h48.5z"/><path d="M819.1 123.333h.5v-5.8h-5.8v5.8h5.3zm-6-7.2h7.2a.7.7 0 0 1 .7.7v7.2a.7.7 0 0 1-.7.7h-7.2a.7.7 0 0 1-.7-.7v-7.2a.7.7 0 0 1 .7-.7zM675.35 156.933h2.4a.7.7 0 0 1 0 1.4h-2.4a.7.7 0 0 1 0-1.4zM682.55 156.933h28.8a.7.7 0 1 1 0 1.4h-28.8a.7.7 0 0 1 0-1.4zM675.35 149.733h2.4a.7.7 0 0 1 0 1.4h-2.4a.7.7 0 1 1 0-1.4zM682.55 149.733h28.8a.7.7 0 0 1 0 1.4h-28.8a.7.7 0 0 1 0-1.4zM675.35 142.533h2.4a.7.7 0 0 1 0 1.4h-2.4a.7.7 0 1 1 0-1.4zM682.55 142.533h28.8a.7.7 0 0 1 0 1.4h-28.8a.7.7 0 0 1 0-1.4zM675.35 135.333h2.4a.7.7 0 0 1 0 1.4h-2.4a.7.7 0 1 1 0-1.4zM682.55 135.333h28.8a.7.7 0 1 1 0 1.4h-28.8a.7.7 0 0 1 0-1.4zM675.35 128.133h2.4a.7.7 0 0 1 0 1.4h-2.4a.7.7 0 0 1 0-1.4zM682.55 128.133h28.8a.7.7 0 1 1 0 1.4h-28.8a.7.7 0 0 1 0-1.4z"/><path d="M719.235 122.786l.001.008v.009a.741.741 0 0 0 .014.083v45.547a.7.7 0 0 1-.7.7h-6.5v6.5a.7.7 0 0 1-.7.7h-50.4a.7.7 0 0 1-.7-.7v-64.8a.7.7 0 0 1 .7-.7h6.5v-4.1a.7.7 0 0 1 .7-.7h33.556l.031.005a.707.707 0 0 1 .229.039l.038.013.025.008a.705.705 0 0 1 .213.142l.001.001 16.794 16.794.002.002a.717.717 0 0 1 .138.202l.003.009.007.024.013.04.001.002a.625.625 0 0 1 .034.172zm-15.931-14.21l-.854-.853v14.41h14.41l-.853-.854-12.703-12.703zm6.846 66.357h.5v-5.8h-42.5a.7.7 0 0 1-.7-.7v-56.9h-5.8v63.4h48.5zm7.2-7.2h.5v-44.2h-16.1a.7.7 0 0 1-.7-.7v-16.1h-32.2v61h48.5z"/><path d="M681.35 123.333h.5v-5.8h-5.8v5.8h5.3zm-6-7.2h7.2a.7.7 0 0 1 .7.7v7.2a.7.7 0 0 1-.7.7h-7.2a.7.7 0 0 1-.7-.7v-7.2a.7.7 0 0 1 .7-.7zM537.6 156.933h2.4a.7.7 0 0 1 0 1.4h-2.4a.7.7 0 0 1 0-1.4zM544.8 156.933h28.8a.7.7 0 1 1 0 1.4h-28.8a.7.7 0 0 1 0-1.4zM537.6 149.733h2.4a.7.7 0 0 1 0 1.4h-2.4a.7.7 0 1 1 0-1.4zM544.8 149.733h28.8a.7.7 0 0 1 0 1.4h-28.8a.7.7 0 0 1 0-1.4zM537.6 142.533h2.4a.7.7 0 0 1 0 1.4h-2.4a.7.7 0 1 1 0-1.4zM544.8 142.533h28.8a.7.7 0 0 1 0 1.4h-28.8a.7.7 0 0 1 0-1.4zM537.6 135.333h2.4a.7.7 0 0 1 0 1.4h-2.4a.7.7 0 1 1 0-1.4zM544.8 135.333h28.8a.7.7 0 1 1 0 1.4h-28.8a.7.7 0 0 1 0-1.4zM537.6 128.133h2.4a.7.7 0 0 1 0 1.4h-2.4a.7.7 0 0 1 0-1.4zM544.8 128.133h28.8a.7.7 0 1 1 0 1.4h-28.8a.7.7 0 0 1 0-1.4z"/><path d="M581.485 122.786l.001.008v.009a.741.741 0 0 0 .014.083v45.547a.7.7 0 0 1-.7.7h-6.5v6.5a.7.7 0 0 1-.7.7h-50.4a.7.7 0 0 1-.7-.7v-64.8a.7.7 0 0 1 .7-.7h6.5v-4.1a.7.7 0 0 1 .7-.7h33.556l.031.005a.707.707 0 0 1 .229.039l.038.013.025.008a.705.705 0 0 1 .213.142l.001.001 16.794 16.794.002.002a.717.717 0 0 1 .138.202l.003.009.007.024.013.04.001.002a.625.625 0 0 1 .034.172zm-15.931-14.21l-.854-.853v14.41h14.41l-.853-.854-12.703-12.703zm6.846 66.357h.5v-5.8h-42.5a.7.7 0 0 1-.7-.7v-56.9h-5.8v63.4h48.5zm7.2-7.2h.5v-44.2H564a.7.7 0 0 1-.7-.7v-16.1h-32.2v61h48.5z"/><path d="M543.6 123.333h.5v-5.8h-5.8v5.8h5.3zm-6-7.2h7.2a.7.7 0 0 1 .7.7v7.2a.7.7 0 0 1-.7.7h-7.2a.7.7 0 0 1-.7-.7v-7.2a.7.7 0 0 1 .7-.7zM399.85 156.933h2.4a.7.7 0 0 1 0 1.4h-2.4a.7.7 0 0 1 0-1.4zM407.05 156.933h28.8a.7.7 0 1 1 0 1.4h-28.8a.7.7 0 0 1 0-1.4zM399.85 149.733h2.4a.7.7 0 0 1 0 1.4h-2.4a.7.7 0 1 1 0-1.4zM407.05 149.733h28.8a.7.7 0 0 1 0 1.4h-28.8a.7.7 0 0 1 0-1.4zM399.85 142.533h2.4a.7.7 0 0 1 0 1.4h-2.4a.7.7 0 1 1 0-1.4zM407.05 142.533h28.8a.7.7 0 0 1 0 1.4h-28.8a.7.7 0 0 1 0-1.4zM399.85 135.333h2.4a.7.7 0 0 1 0 1.4h-2.4a.7.7 0 1 1 0-1.4zM407.05 135.333h28.8a.7.7 0 1 1 0 1.4h-28.8a.7.7 0 0 1 0-1.4zM399.85 128.133h2.4a.7.7 0 0 1 0 1.4h-2.4a.7.7 0 0 1 0-1.4zM407.05 128.133h28.8a.7.7 0 1 1 0 1.4h-28.8a.7.7 0 0 1 0-1.4z"/><path d="M443.735 122.786l.001.008v.009a.741.741 0 0 0 .014.083v45.547a.7.7 0 0 1-.7.7h-6.5v6.5a.7.7 0 0 1-.7.7h-50.4a.7.7 0 0 1-.7-.7v-64.8a.7.7 0 0 1 .7-.7h6.5v-4.1a.7.7 0 0 1 .7-.7h33.556l.031.005a.707.707 0 0 1 .229.039l.038.013.025.008a.705.705 0 0 1 .213.142l.001.001 16.794 16.794.002.002a.717.717 0 0 1 .138.202l.003.009.007.024.013.04.001.002a.625.625 0 0 1 .034.172zm-15.931-14.21l-.854-.853v14.41h14.41l-.853-.854-12.703-12.703zm6.846 66.357h.5v-5.8h-42.5a.7.7 0 0 1-.7-.7v-56.9h-5.8v63.4h48.5zm7.2-7.2h.5v-44.2h-16.1a.7.7 0 0 1-.7-.7v-16.1h-32.2v61h48.5z"/><path d="M405.85 123.333h.5v-5.8h-5.8v5.8h5.3zm-6-7.2h7.2a.7.7 0 0 1 .7.7v7.2a.7.7 0 0 1-.7.7h-7.2a.7.7 0 0 1-.7-.7v-7.2a.7.7 0 0 1 .7-.7zM262.1 156.933h2.4a.7.7 0 0 1 0 1.4h-2.4a.7.7 0 0 1 0-1.4zM269.3 156.933h28.8a.7.7 0 1 1 0 1.4h-28.8a.7.7 0 0 1 0-1.4zM262.1 149.733h2.4a.7.7 0 0 1 0 1.4h-2.4a.7.7 0 1 1 0-1.4zM269.3 149.733h28.8a.7.7 0 0 1 0 1.4h-28.8a.7.7 0 0 1 0-1.4zM262.1 142.533h2.4a.7.7 0 0 1 0 1.4h-2.4a.7.7 0 1 1 0-1.4zM269.3 142.533h28.8a.7.7 0 0 1 0 1.4h-28.8a.7.7 0 0 1 0-1.4zM262.1 135.333h2.4a.7.7 0 0 1 0 1.4h-2.4a.7.7 0 1 1 0-1.4zM269.3 135.333h28.8a.7.7 0 1 1 0 1.4h-28.8a.7.7 0 0 1 0-1.4zM262.1 128.133h2.4a.7.7 0 0 1 0 1.4h-2.4a.7.7 0 0 1 0-1.4zM269.3 128.133h28.8a.7.7 0 1 1 0 1.4h-28.8a.7.7 0 0 1 0-1.4z"/><path d="M305.985 122.786l.001.008v.009a.741.741 0 0 0 .014.083v45.547a.7.7 0 0 1-.7.7h-6.5v6.5a.7.7 0 0 1-.7.7h-50.4a.7.7 0 0 1-.7-.7v-64.8a.7.7 0 0 1 .7-.7h6.5v-4.1a.7.7 0 0 1 .7-.7h33.556l.031.005a.707.707 0 0 1 .229.039l.038.013.025.008a.705.705 0 0 1 .213.142l.001.001 16.794 16.794.002.002a.717.717 0 0 1 .138.202l.003.009.007.024.013.04.001.002a.625.625 0 0 1 .034.172zm-15.931-14.21l-.854-.853v14.41h14.41l-.853-.854-12.703-12.703zm6.846 66.357h.5v-5.8h-42.5a.7.7 0 0 1-.7-.7v-56.9h-5.8v63.4h48.5zm7.2-7.2h.5v-44.2h-16.1a.7.7 0 0 1-.7-.7v-16.1h-32.2v61h48.5z"/><path d="M268.1 123.333h.5v-5.8h-5.8v5.8h5.3zm-6-7.2h7.2a.7.7 0 0 1 .7.7v7.2a.7.7 0 0 1-.7.7h-7.2a.7.7 0 0 1-.7-.7v-7.2a.7.7 0 0 1 .7-.7zM124.35 156.933h2.4a.7.7 0 0 1 0 1.4h-2.4a.7.7 0 0 1 0-1.4zM131.55 156.933h28.8a.7.7 0 1 1 0 1.4h-28.8a.7.7 0 0 1 0-1.4zM124.35 149.733h2.4a.7.7 0 0 1 0 1.4h-2.4a.7.7 0 1 1 0-1.4zM131.55 149.733h28.8a.7.7 0 0 1 0 1.4h-28.8a.7.7 0 0 1 0-1.4zM124.35 142.533h2.4a.7.7 0 0 1 0 1.4h-2.4a.7.7 0 1 1 0-1.4zM131.55 142.533h28.8a.7.7 0 0 1 0 1.4h-28.8a.7.7 0 0 1 0-1.4zM124.35 135.333h2.4a.7.7 0 0 1 0 1.4h-2.4a.7.7 0 1 1 0-1.4zM131.55 135.333h28.8a.7.7 0 1 1 0 1.4h-28.8a.7.7 0 0 1 0-1.4zM124.35 128.133h2.4a.7.7 0 0 1 0 1.4h-2.4a.7.7 0 0 1 0-1.4zM131.55 128.133h28.8a.7.7 0 1 1 0 1.4h-28.8a.7.7 0 0 1 0-1.4z"/><path d="M168.235 122.786l.001.008v.009a.741.741 0 0 0 .014.083v45.547a.7.7 0 0 1-.7.7h-6.5v6.5a.7.7 0 0 1-.7.7h-50.4a.7.7 0 0 1-.7-.7v-64.8a.7.7 0 0 1 .7-.7h6.5v-4.1a.7.7 0 0 1 .7-.7h33.556l.031.005a.707.707 0 0 1 .229.039l.038.013.025.008a.705.705 0 0 1 .213.142l.001.001 16.794 16.794.002.002a.717.717 0 0 1 .138.202l.003.009.007.024.013.04.001.002a.625.625 0 0 1 .034.172zm-15.931-14.21l-.854-.853v14.41h14.41l-.853-.854-12.703-12.703zm6.846 66.357h.5v-5.8h-42.5a.7.7 0 0 1-.7-.7v-56.9h-5.8v63.4h48.5zm7.2-7.2h.5v-44.2h-16.1a.7.7 0 0 1-.7-.7v-16.1h-32.2v61h48.5z"/><path d="M130.35 123.333h.5v-5.8h-5.8v5.8h5.3zm-6-7.2h7.2a.7.7 0 0 1 .7.7v7.2a.7.7 0 0 1-.7.7h-7.2a.7.7 0 0 1-.7-.7v-7.2a.7.7 0 0 1 .7-.7zM-6.2 156.933h28.8a.7.7 0 1 1 0 1.4H-6.2a.7.7 0 0 1 0-1.4zM-6.2 149.733h28.8a.7.7 0 0 1 0 1.4H-6.2a.7.7 0 1 1 0-1.4zM-6.2 142.533h28.8a.7.7 0 0 1 0 1.4H-6.2a.7.7 0 1 1 0-1.4zM-6.2 135.333h28.8a.7.7 0 1 1 0 1.4H-6.2a.7.7 0 1 1 0-1.4zM-6.2 128.133h28.8a.7.7 0 1 1 0 1.4H-6.2a.7.7 0 0 1 0-1.4z"/><path d="M30.485 122.786v.008l.002.009a.588.588 0 0 0 .013.083v45.547a.7.7 0 0 1-.7.7h-6.5v6.5a.7.7 0 0 1-.7.7h-50.4a.7.7 0 0 1-.7-.7v-64.8a.7.7 0 0 1 .7-.7h6.5v-4.1a.7.7 0 0 1 .7-.7h33.556l.031.005a.715.715 0 0 1 .23.039l.037.013.025.008a.702.702 0 0 1 .213.142v.001l16.795 16.794.002.002a.7.7 0 0 1 .138.202l.003.009.007.024.013.04.001.002a.63.63 0 0 1 .034.172zm-15.931-14.21l-.854-.853v14.41h14.41l-.853-.854-12.703-12.703zm6.846 66.357h.5v-5.8h-42.5a.7.7 0 0 1-.7-.7v-56.9h-5.8v63.4h48.5zm7.2-7.2h.5v-44.2H13a.7.7 0 0 1-.7-.7v-16.1h-32.2v61h48.5zM1025.6 269.766h2.4c.39 0 .7.313.7.7 0 .386-.31.7-.7.7h-2.4c-.39 0-.7-.314-.7-.7 0-.387.31-.7.7-.7zM1032.8 269.766h28.8c.39 0 .7.313.7.7 0 .386-.31.7-.7.7h-28.8c-.39 0-.7-.314-.7-.7 0-.387.31-.7.7-.7zM1025.6 262.566h2.4c.39 0 .7.314.7.7 0 .387-.31.7-.7.7h-2.4c-.39 0-.7-.313-.7-.7 0-.386.31-.7.7-.7zM1032.8 262.566h28.8c.39 0 .7.314.7.7 0 .387-.31.7-.7.7h-28.8c-.39 0-.7-.313-.7-.7 0-.386.31-.7.7-.7zM1025.6 255.366h2.4c.39 0 .7.314.7.7 0 .387-.31.7-.7.7h-2.4c-.39 0-.7-.313-.7-.7 0-.386.31-.7.7-.7zM1032.8 255.366h28.8c.39 0 .7.314.7.7 0 .387-.31.7-.7.7h-28.8c-.39 0-.7-.313-.7-.7 0-.386.31-.7.7-.7zM1025.6 248.166h2.4c.39 0 .7.313.7.7 0 .387-.31.7-.7.7h-2.4c-.39 0-.7-.313-.7-.7 0-.387.31-.7.7-.7zM1032.8 248.166h28.8c.39 0 .7.313.7.7 0 .387-.31.7-.7.7h-28.8c-.39 0-.7-.313-.7-.7 0-.387.31-.7.7-.7zM1025.6 240.966h2.4c.39 0 .7.313.7.7 0 .386-.31.7-.7.7h-2.4c-.39 0-.7-.314-.7-.7 0-.387.31-.7.7-.7zM1032.8 240.966h28.8c.39 0 .7.313.7.7 0 .386-.31.7-.7.7h-28.8c-.39 0-.7-.314-.7-.7 0-.387.31-.7.7-.7z"/><path d="M1069.48 235.619l.01.008v.009c0 .034 0 .062.01.083v45.547c0 .387-.31.7-.7.7h-6.5v6.5c0 .387-.31.7-.7.7h-50.4c-.39 0-.7-.313-.7-.7v-64.8c0-.387.31-.7.7-.7h6.5v-4.1c0-.387.31-.7.7-.7h33.56a.439.439 0 0 0 .1.01c.05.005.1.017.16.034.01.005.02.01.03.013l.03.008c0 .002.01.003.01.003.07.034.14.081.2.139v.001l16.8 16.794v.002c.06.059.1.127.14.202v.009l.01.024c0 .011 0 .024.01.04v.002c.02.055.03.113.03.172zm-15.93-14.21l-.85-.853v14.41h14.41l-.85-.854-12.71-12.703zm6.85 66.357h.5v-5.8h-42.5c-.39 0-.7-.313-.7-.7v-56.9h-5.8v63.4h48.5zm7.2-7.2h.5v-44.2H1052c-.39 0-.7-.313-.7-.7v-16.1h-32.2v61h48.5z"/><path d="M1031.6 236.166h.5v-5.8h-5.8v5.8h5.3zm-6-7.2h7.2c.39 0 .7.313.7.7v7.2c0 .386-.31.7-.7.7h-7.2c-.39 0-.7-.314-.7-.7v-7.2c0-.387.31-.7.7-.7zM886.171 269.766h2.4a.7.7 0 1 1 0 1.4h-2.4a.7.7 0 0 1 0-1.4zM893.371 269.766h28.8a.7.7 0 1 1 0 1.4h-28.8a.7.7 0 0 1 0-1.4zM886.171 262.566h2.4a.7.7 0 0 1 0 1.4h-2.4a.7.7 0 0 1 0-1.4zM893.371 262.566h28.8a.7.7 0 0 1 0 1.4h-28.8a.7.7 0 0 1 0-1.4zM886.171 255.366h2.4a.7.7 0 0 1 0 1.4h-2.4a.7.7 0 0 1 0-1.4zM893.371 255.366h28.8a.7.7 0 0 1 0 1.4h-28.8a.7.7 0 0 1 0-1.4zM886.171 248.166h2.4a.7.7 0 1 1 0 1.4h-2.4a.7.7 0 0 1 0-1.4zM893.371 248.166h28.8a.7.7 0 1 1 0 1.4h-28.8a.7.7 0 0 1 0-1.4zM886.171 240.966h2.4a.7.7 0 1 1 0 1.4h-2.4a.7.7 0 0 1 0-1.4zM893.371 240.966h28.8a.7.7 0 1 1 0 1.4h-28.8a.7.7 0 0 1 0-1.4z"/><path d="M930.057 235.619v.008l.001.009a.583.583 0 0 0 .013.083v45.547a.7.7 0 0 1-.7.7h-6.5v6.5a.7.7 0 0 1-.7.7h-50.4a.7.7 0 0 1-.7-.7v-64.8a.7.7 0 0 1 .7-.7h6.5v-4.1a.7.7 0 0 1 .7-.7h33.556l.031.005a.707.707 0 0 1 .229.039l.038.013.026.008a.705.705 0 0 1 .212.142l.001.001 16.794 16.794.002.002a.697.697 0 0 1 .138.202l.003.009.008.024a.447.447 0 0 0 .013.04v.002c.02.055.031.113.035.172zm-15.932-14.21l-.854-.853v14.41h14.411l-.854-.854-12.703-12.703zm6.846 66.357h.5v-5.8h-42.5a.7.7 0 0 1-.7-.7v-56.9h-5.8v63.4h48.5zm7.2-7.2h.5v-44.2h-16.1a.7.7 0 0 1-.7-.7v-16.1h-32.2v61h48.5z"/><path d="M892.171 236.166h.5v-5.8h-5.8v5.8h5.3zm-6-7.2h7.2a.7.7 0 0 1 .7.7v7.2a.7.7 0 0 1-.7.7h-7.2a.7.7 0 0 1-.7-.7v-7.2a.7.7 0 0 1 .7-.7zM746.743 269.766h2.4a.7.7 0 0 1 0 1.4h-2.4a.7.7 0 0 1 0-1.4zM753.943 269.766h28.8a.7.7 0 0 1 0 1.4h-28.8a.7.7 0 0 1 0-1.4zM746.743 262.566h2.4a.7.7 0 0 1 0 1.4h-2.4a.7.7 0 1 1 0-1.4zM753.943 262.566h28.8a.7.7 0 0 1 0 1.4h-28.8a.7.7 0 1 1 0-1.4zM746.743 255.366h2.4a.7.7 0 0 1 0 1.4h-2.4a.7.7 0 1 1 0-1.4zM753.943 255.366h28.8a.7.7 0 0 1 0 1.4h-28.8a.7.7 0 1 1 0-1.4zM746.743 248.166h2.4a.7.7 0 0 1 0 1.4h-2.4a.7.7 0 1 1 0-1.4zM753.943 248.166h28.8a.7.7 0 0 1 0 1.4h-28.8a.7.7 0 1 1 0-1.4zM746.743 240.966h2.4a.7.7 0 0 1 0 1.4h-2.4a.7.7 0 0 1 0-1.4zM753.943 240.966h28.8a.7.7 0 0 1 0 1.4h-28.8a.7.7 0 0 1 0-1.4z"/><path d="M790.628 235.619l.001.008v.009a.565.565 0 0 0 .014.083v45.547a.7.7 0 0 1-.7.7h-6.5v6.5a.7.7 0 0 1-.7.7h-50.4a.7.7 0 0 1-.7-.7v-64.8a.7.7 0 0 1 .7-.7h6.5v-4.1a.7.7 0 0 1 .7-.7h33.555a.443.443 0 0 0 .103.01.719.719 0 0 1 .158.034l.038.013.025.008a.705.705 0 0 1 .214.143l16.794 16.794.001.002a.7.7 0 0 1 .139.202l.002.009.008.024.013.04.001.002a.625.625 0 0 1 .034.172zm-15.932-14.21l-.853-.853v14.41h14.41l-.853-.854-12.704-12.703zm6.847 66.357h.5v-5.8h-42.5a.7.7 0 0 1-.7-.7v-56.9h-5.8v63.4h48.5zm7.2-7.2h.5v-44.2h-16.1a.7.7 0 0 1-.7-.7v-16.1h-32.2v61h48.5z"/><path d="M752.743 236.166h.5v-5.8h-5.8v5.8h5.3zm-6-7.2h7.2a.7.7 0 0 1 .7.7v7.2a.7.7 0 0 1-.7.7h-7.2a.7.7 0 0 1-.7-.7v-7.2a.7.7 0 0 1 .7-.7zM607.314 269.766h2.4a.7.7 0 1 1 0 1.4h-2.4a.7.7 0 0 1 0-1.4zM614.514 269.766h28.8a.7.7 0 1 1 0 1.4h-28.8a.7.7 0 0 1 0-1.4zM607.314 262.566h2.4a.7.7 0 0 1 0 1.4h-2.4a.7.7 0 0 1 0-1.4zM614.514 262.566h28.8a.7.7 0 0 1 0 1.4h-28.8a.7.7 0 0 1 0-1.4zM607.314 255.366h2.4a.7.7 0 0 1 0 1.4h-2.4a.7.7 0 0 1 0-1.4zM614.514 255.366h28.8a.7.7 0 0 1 0 1.4h-28.8a.7.7 0 0 1 0-1.4zM607.314 248.166h2.4a.7.7 0 1 1 0 1.4h-2.4a.7.7 0 0 1 0-1.4zM614.514 248.166h28.8a.7.7 0 1 1 0 1.4h-28.8a.7.7 0 0 1 0-1.4zM607.314 240.966h2.4a.7.7 0 1 1 0 1.4h-2.4a.7.7 0 0 1 0-1.4zM614.514 240.966h28.8a.7.7 0 1 1 0 1.4h-28.8a.7.7 0 0 1 0-1.4z"/><path d="M651.2 235.619v.008l.001.009a.583.583 0 0 0 .013.083v45.547a.7.7 0 0 1-.7.7h-6.5v6.5a.7.7 0 0 1-.7.7h-50.4a.7.7 0 0 1-.7-.7v-64.8a.7.7 0 0 1 .7-.7h6.5v-4.1a.7.7 0 0 1 .7-.7h33.556l.031.005a.707.707 0 0 1 .229.039l.038.013.026.008a.705.705 0 0 1 .213.143l16.795 16.794.001.002a.697.697 0 0 1 .138.202l.003.009.008.024.013.04v.002c.02.055.031.113.035.172zm-15.932-14.21l-.854-.853v14.41H648.825l-.854-.854-12.703-12.703zm6.846 66.357h.5v-5.8h-42.5a.7.7 0 0 1-.7-.7v-56.9h-5.8v63.4h48.5zm7.2-7.2h.5v-44.2h-16.1a.7.7 0 0 1-.7-.7v-16.1h-32.2v61h48.5z"/><path d="M613.314 236.166h.5v-5.8h-5.8v5.8h5.3zm-6-7.2h7.2a.7.7 0 0 1 .7.7v7.2a.7.7 0 0 1-.7.7h-7.2a.7.7 0 0 1-.7-.7v-7.2a.7.7 0 0 1 .7-.7zM467.886 269.766h2.4a.7.7 0 0 1 0 1.4h-2.4a.7.7 0 0 1 0-1.4zM475.086 269.766h28.8a.7.7 0 0 1 0 1.4h-28.8a.7.7 0 0 1 0-1.4zM467.886 262.566h2.4a.7.7 0 0 1 0 1.4h-2.4a.7.7 0 1 1 0-1.4zM475.086 262.566h28.8a.7.7 0 0 1 0 1.4h-28.8a.7.7 0 1 1 0-1.4zM467.886 255.366h2.4a.7.7 0 0 1 0 1.4h-2.4a.7.7 0 1 1 0-1.4zM475.086 255.366h28.8a.7.7 0 0 1 0 1.4h-28.8a.7.7 0 1 1 0-1.4zM467.886 248.166h2.4a.7.7 0 0 1 0 1.4h-2.4a.7.7 0 1 1 0-1.4zM475.086 248.166h28.8a.7.7 0 0 1 0 1.4h-28.8a.7.7 0 1 1 0-1.4zM467.886 240.966h2.4a.7.7 0 0 1 0 1.4h-2.4a.7.7 0 0 1 0-1.4zM475.086 240.966h28.8a.7.7 0 0 1 0 1.4h-28.8a.7.7 0 0 1 0-1.4z"/><path d="M511.771 235.619v.008l.001.009a.565.565 0 0 0 .014.083v45.547a.7.7 0 0 1-.7.7h-6.5v6.5a.7.7 0 0 1-.7.7h-50.4a.7.7 0 0 1-.7-.7v-64.8a.7.7 0 0 1 .7-.7h6.5v-4.1a.7.7 0 0 1 .7-.7h33.555a.439.439 0 0 0 .102.01.727.727 0 0 1 .159.034l.038.013.025.008a.692.692 0 0 1 .212.142l.002.001 16.794 16.794.001.002a.678.678 0 0 1 .141.211l.008.024.013.04.001.002c.019.055.03.113.034.172zm-15.932-14.21l-.853-.853v14.41h14.41l-.854-.854-12.703-12.703zm6.847 66.357h.5v-5.8h-42.5a.7.7 0 0 1-.7-.7v-56.9h-5.8v63.4h48.5zm7.2-7.2h.5v-44.2h-16.1a.7.7 0 0 1-.7-.7v-16.1h-32.2v61h48.5z"/><path d="M473.886 236.166h.5v-5.8h-5.8v5.8h5.3zm-6-7.2h7.2a.7.7 0 0 1 .7.7v7.2a.7.7 0 0 1-.7.7h-7.2a.7.7 0 0 1-.7-.7v-7.2a.7.7 0 0 1 .7-.7zM328.457 269.766h2.4a.7.7 0 1 1 0 1.4h-2.4a.7.7 0 0 1 0-1.4zM335.657 269.766h28.8a.7.7 0 1 1 0 1.4h-28.8a.7.7 0 0 1 0-1.4zM328.457 262.566h2.4a.7.7 0 0 1 0 1.4h-2.4a.7.7 0 0 1 0-1.4zM335.657 262.566h28.8a.7.7 0 0 1 0 1.4h-28.8a.7.7 0 0 1 0-1.4zM328.457 255.366h2.4a.7.7 0 0 1 0 1.4h-2.4a.7.7 0 0 1 0-1.4zM335.657 255.366h28.8a.7.7 0 0 1 0 1.4h-28.8a.7.7 0 0 1 0-1.4zM328.457 248.166h2.4a.7.7 0 1 1 0 1.4h-2.4a.7.7 0 0 1 0-1.4zM335.657 248.166h28.8a.7.7 0 1 1 0 1.4h-28.8a.7.7 0 0 1 0-1.4zM328.457 240.966h2.4a.7.7 0 1 1 0 1.4h-2.4a.7.7 0 0 1 0-1.4zM335.657 240.966h28.8a.7.7 0 1 1 0 1.4h-28.8a.7.7 0 0 1 0-1.4z"/><path d="M372.342 235.619l.001.008.001.009a.583.583 0 0 0 .013.083v45.547a.7.7 0 0 1-.7.7h-6.5v6.5a.7.7 0 0 1-.7.7h-50.4a.7.7 0 0 1-.7-.7v-64.8a.7.7 0 0 1 .7-.7h6.5v-4.1a.7.7 0 0 1 .7-.7h33.556l.031.005a.707.707 0 0 1 .229.039l.038.013.025.008a.705.705 0 0 1 .213.142l.001.001 16.794 16.794.002.002a.717.717 0 0 1 .138.202l.003.009.008.024a.447.447 0 0 0 .013.04v.002a.59.59 0 0 1 .034.172zm-15.931-14.21l-.854-.853v14.41h14.41l-.853-.854-12.703-12.703zm6.846 66.357h.5v-5.8h-42.5a.7.7 0 0 1-.7-.7v-56.9h-5.8v63.4h48.5zm7.2-7.2h.5v-44.2h-16.1a.7.7 0 0 1-.7-.7v-16.1h-32.2v61h48.5z"/><path d="M334.457 236.166h.5v-5.8h-5.8v5.8h5.3zm-6-7.2h7.2a.7.7 0 0 1 .7.7v7.2a.7.7 0 0 1-.7.7h-7.2a.7.7 0 0 1-.7-.7v-7.2a.7.7 0 0 1 .7-.7zM189.029 269.766h2.4a.7.7 0 0 1 0 1.4h-2.4a.7.7 0 0 1 0-1.4zM196.229 269.766h28.8a.7.7 0 0 1 0 1.4h-28.8a.7.7 0 0 1 0-1.4zM189.029 262.566h2.4a.7.7 0 0 1 0 1.4h-2.4a.7.7 0 1 1 0-1.4zM196.229 262.566h28.8a.7.7 0 0 1 0 1.4h-28.8a.7.7 0 1 1 0-1.4zM189.029 255.366h2.4a.7.7 0 0 1 0 1.4h-2.4a.7.7 0 1 1 0-1.4zM196.229 255.366h28.8a.7.7 0 0 1 0 1.4h-28.8a.7.7 0 1 1 0-1.4zM189.029 248.166h2.4a.7.7 0 0 1 0 1.4h-2.4a.7.7 0 1 1 0-1.4zM196.229 248.166h28.8a.7.7 0 0 1 0 1.4h-28.8a.7.7 0 1 1 0-1.4zM189.029 240.966h2.4a.7.7 0 0 1 0 1.4h-2.4a.7.7 0 0 1 0-1.4zM196.229 240.966h28.8a.7.7 0 0 1 0 1.4h-28.8a.7.7 0 0 1 0-1.4z"/><path d="M232.914 235.619v.008l.001.009a.565.565 0 0 0 .014.083v45.547a.7.7 0 0 1-.7.7h-6.5v6.5a.7.7 0 0 1-.7.7h-50.4a.7.7 0 0 1-.7-.7v-64.8a.7.7 0 0 1 .7-.7h6.5v-4.1a.7.7 0 0 1 .7-.7h33.555a.439.439 0 0 0 .102.01.715.715 0 0 1 .197.047l.025.008a.7.7 0 0 1 .212.142l.002.001 16.794 16.794.001.002a.678.678 0 0 1 .141.211l.008.024.013.04.001.002a.625.625 0 0 1 .034.172zm-15.932-14.21l-.853-.853v14.41h14.41l-.854-.854-12.703-12.703zm6.847 66.357h.5v-5.8h-42.5a.7.7 0 0 1-.7-.7v-56.9h-5.8v63.4h48.5zm7.2-7.2h.5v-44.2h-16.1a.7.7 0 0 1-.7-.7v-16.1h-32.2v61h48.5z"/><path d="M195.029 236.166h.5v-5.8h-5.8v5.8h5.3zm-6-7.2h7.2a.7.7 0 0 1 .7.7v7.2a.7.7 0 0 1-.7.7h-7.2a.7.7 0 0 1-.7-.7v-7.2a.7.7 0 0 1 .7-.7zM49.6 269.766H52a.7.7 0 1 1 0 1.4h-2.4a.7.7 0 0 1 0-1.4zM56.8 269.766h28.8a.7.7 0 1 1 0 1.4H56.8a.7.7 0 0 1 0-1.4zM49.6 262.566H52a.7.7 0 0 1 0 1.4h-2.4a.7.7 0 1 1 0-1.4zM56.8 262.566h28.8a.7.7 0 0 1 0 1.4H56.8a.7.7 0 1 1 0-1.4zM49.6 255.366H52a.7.7 0 0 1 0 1.4h-2.4a.7.7 0 1 1 0-1.4zM56.8 255.366h28.8a.7.7 0 0 1 0 1.4H56.8a.7.7 0 1 1 0-1.4zM49.6 248.166H52a.7.7 0 1 1 0 1.4h-2.4a.7.7 0 1 1 0-1.4zM56.8 248.166h28.8a.7.7 0 1 1 0 1.4H56.8a.7.7 0 1 1 0-1.4zM49.6 240.966H52a.7.7 0 1 1 0 1.4h-2.4a.7.7 0 0 1 0-1.4zM56.8 240.966h28.8a.7.7 0 1 1 0 1.4H56.8a.7.7 0 0 1 0-1.4z"/><path d="M93.485 235.619v.008l.002.009a.588.588 0 0 0 .013.083v45.547a.7.7 0 0 1-.7.7h-6.5v6.5a.7.7 0 0 1-.7.7H35.2a.7.7 0 0 1-.7-.7v-64.8a.7.7 0 0 1 .7-.7h6.5v-4.1a.7.7 0 0 1 .7-.7h33.556l.031.005a.715.715 0 0 1 .23.039l.037.013.025.008a.702.702 0 0 1 .212.142l.002.001 16.794 16.794.002.002a.7.7 0 0 1 .138.202l.003.009.007.024.013.04.001.002a.63.63 0 0 1 .034.172zm-15.931-14.21l-.854-.853v14.41h14.41l-.853-.854-12.703-12.703zm6.846 66.357h.5v-5.8H42.4a.7.7 0 0 1-.7-.7v-56.9h-5.8v63.4h48.5zm7.2-7.2h.5v-44.2H76a.7.7 0 0 1-.7-.7v-16.1H43.1v61h48.5z"/><path d="M55.6 236.166h.5v-5.8h-5.8v5.8h5.3zm-6-7.2h7.2a.7.7 0 0 1 .7.7v7.2a.7.7 0 0 1-.7.7h-7.2a.7.7 0 0 1-.7-.7v-7.2a.7.7 0 0 1 .7-.7zM950.85 382.599h2.4a.7.7 0 0 1 0 1.4h-2.4a.7.7 0 0 1 0-1.4zM958.05 382.599h28.8a.7.7 0 1 1 0 1.4h-28.8a.7.7 0 0 1 0-1.4zM950.85 375.399h2.4a.7.7 0 0 1 0 1.4h-2.4a.7.7 0 1 1 0-1.4zM958.05 375.399h28.8a.7.7 0 0 1 0 1.4h-28.8a.7.7 0 0 1 0-1.4zM950.85 368.199h2.4a.7.7 0 0 1 0 1.4h-2.4a.7.7 0 1 1 0-1.4zM958.05 368.199h28.8a.7.7 0 0 1 0 1.4h-28.8a.7.7 0 0 1 0-1.4zM950.85 360.999h2.4a.7.7 0 0 1 0 1.4h-2.4a.7.7 0 1 1 0-1.4zM958.05 360.999h28.8a.7.7 0 1 1 0 1.4h-28.8a.7.7 0 0 1 0-1.4zM950.85 353.799h2.4a.7.7 0 0 1 0 1.4h-2.4a.7.7 0 0 1 0-1.4zM958.05 353.799h28.8a.7.7 0 1 1 0 1.4h-28.8a.7.7 0 0 1 0-1.4z"/><path d="M994.735 348.452l.001.008v.009a.741.741 0 0 0 .014.083v45.547a.7.7 0 0 1-.7.7h-6.5v6.5a.7.7 0 0 1-.7.7h-50.4a.7.7 0 0 1-.7-.7v-64.8a.7.7 0 0 1 .7-.7h6.5v-4.1a.7.7 0 0 1 .7-.7h33.556l.031.005a.707.707 0 0 1 .229.039l.038.013.025.008.01.003a.705.705 0 0 1 .203.139l.001.001 16.794 16.794.002.002a.717.717 0 0 1 .138.202l.003.009.007.024.013.04.001.002a.625.625 0 0 1 .034.172zm-15.931-14.21l-.854-.853v14.41h14.41l-.853-.854-12.703-12.703zm6.846 66.357h.5v-5.8h-42.5a.7.7 0 0 1-.7-.7v-56.9h-5.8v63.4h48.5zm7.2-7.2h.5v-44.2h-16.1a.7.7 0 0 1-.7-.7v-16.1h-32.2v61h48.5z"/><path d="M956.85 348.999h.5v-5.8h-5.8v5.8h5.3zm-6-7.2h7.2a.7.7 0 0 1 .7.7v7.2a.7.7 0 0 1-.7.7h-7.2a.7.7 0 0 1-.7-.7v-7.2a.7.7 0 0 1 .7-.7zM1088.6 382.599h2.4c.39 0 .7.313.7.7 0 .386-.31.7-.7.7h-2.4c-.39 0-.7-.314-.7-.7 0-.387.31-.7.7-.7zM1095.8 382.599h28.8c.39 0 .7.313.7.7 0 .386-.31.7-.7.7h-28.8c-.39 0-.7-.314-.7-.7 0-.387.31-.7.7-.7zM1088.6 375.399h2.4c.39 0 .7.314.7.7 0 .387-.31.7-.7.7h-2.4c-.39 0-.7-.313-.7-.7 0-.386.31-.7.7-.7zM1095.8 375.399h28.8c.39 0 .7.314.7.7 0 .387-.31.7-.7.7h-28.8c-.39 0-.7-.313-.7-.7 0-.386.31-.7.7-.7zM1088.6 368.199h2.4c.39 0 .7.314.7.7 0 .387-.31.7-.7.7h-2.4c-.39 0-.7-.313-.7-.7 0-.386.31-.7.7-.7zM1095.8 368.199h28.8c.39 0 .7.314.7.7 0 .387-.31.7-.7.7h-28.8c-.39 0-.7-.313-.7-.7 0-.386.31-.7.7-.7zM1088.6 360.999h2.4c.39 0 .7.313.7.7 0 .387-.31.7-.7.7h-2.4c-.39 0-.7-.313-.7-.7 0-.387.31-.7.7-.7zM1095.8 360.999h28.8c.39 0 .7.313.7.7 0 .387-.31.7-.7.7h-28.8c-.39 0-.7-.313-.7-.7 0-.387.31-.7.7-.7zM1088.6 353.799h2.4c.39 0 .7.313.7.7 0 .386-.31.7-.7.7h-2.4c-.39 0-.7-.314-.7-.7 0-.387.31-.7.7-.7zM1095.8 353.799h28.8c.39 0 .7.313.7.7 0 .386-.31.7-.7.7h-28.8c-.39 0-.7-.314-.7-.7 0-.387.31-.7.7-.7z"/><path d="M1132.49 348.452v.017c0 .034.01.062.01.083v45.547c0 .387-.31.7-.7.7h-6.5v6.5c0 .387-.31.7-.7.7h-50.4c-.39 0-.7-.313-.7-.7v-64.8c0-.387.31-.7.7-.7h6.5v-4.1c0-.387.31-.7.7-.7h33.56a.439.439 0 0 0 .1.01c.05.005.1.017.16.034.01.005.02.01.03.013l.03.008c0 .002.01.003.01.003.07.034.14.081.2.139v.001l16.8 16.794v.002c.06.059.1.127.14.202v.009l.01.024c0 .011.01.024.01.04v.002c.02.055.03.113.04.172zm-15.94-14.21l-.85-.853v14.41h14.41l-.85-.854-12.71-12.703zm6.85 66.357h.5v-5.8h-42.5c-.39 0-.7-.313-.7-.7v-56.9h-5.8v63.4h48.5zm7.2-7.2h.5v-44.2H1115c-.39 0-.7-.313-.7-.7v-16.1h-32.2v61h48.5z"/><path d="M1094.6 348.999h.5v-5.8h-5.8v5.8h5.3zm-6-7.2h7.2c.39 0 .7.313.7.7v7.2c0 .386-.31.7-.7.7h-7.2c-.39 0-.7-.314-.7-.7v-7.2c0-.387.31-.7.7-.7zM813.1 382.599h2.4a.7.7 0 0 1 0 1.4h-2.4a.7.7 0 0 1 0-1.4zM820.3 382.599h28.8a.7.7 0 1 1 0 1.4h-28.8a.7.7 0 0 1 0-1.4zM813.1 375.399h2.4a.7.7 0 0 1 0 1.4h-2.4a.7.7 0 1 1 0-1.4zM820.3 375.399h28.8a.7.7 0 0 1 0 1.4h-28.8a.7.7 0 0 1 0-1.4zM813.1 368.199h2.4a.7.7 0 0 1 0 1.4h-2.4a.7.7 0 1 1 0-1.4zM820.3 368.199h28.8a.7.7 0 0 1 0 1.4h-28.8a.7.7 0 0 1 0-1.4zM813.1 360.999h2.4a.7.7 0 0 1 0 1.4h-2.4a.7.7 0 1 1 0-1.4zM820.3 360.999h28.8a.7.7 0 1 1 0 1.4h-28.8a.7.7 0 0 1 0-1.4zM813.1 353.799h2.4a.7.7 0 0 1 0 1.4h-2.4a.7.7 0 0 1 0-1.4zM820.3 353.799h28.8a.7.7 0 1 1 0 1.4h-28.8a.7.7 0 0 1 0-1.4z"/><path d="M856.985 348.452l.001.008v.009a.741.741 0 0 0 .014.083v45.547a.7.7 0 0 1-.7.7h-6.5v6.5a.7.7 0 0 1-.7.7h-50.4a.7.7 0 0 1-.7-.7v-64.8a.7.7 0 0 1 .7-.7h6.5v-4.1a.7.7 0 0 1 .7-.7h33.556l.031.005a.707.707 0 0 1 .229.039l.038.013.025.008.01.003a.705.705 0 0 1 .203.139l.001.001 16.794 16.794.002.002a.717.717 0 0 1 .138.202l.003.009.007.024.013.04.001.002a.625.625 0 0 1 .034.172zm-15.931-14.21l-.854-.853v14.41h14.41l-.853-.854-12.703-12.703zm6.846 66.357h.5v-5.8h-42.5a.7.7 0 0 1-.7-.7v-56.9h-5.8v63.4h48.5zm7.2-7.2h.5v-44.2h-16.1a.7.7 0 0 1-.7-.7v-16.1h-32.2v61h48.5z"/><path d="M819.1 348.999h.5v-5.8h-5.8v5.8h5.3zm-6-7.2h7.2a.7.7 0 0 1 .7.7v7.2a.7.7 0 0 1-.7.7h-7.2a.7.7 0 0 1-.7-.7v-7.2a.7.7 0 0 1 .7-.7zM675.35 382.599h2.4a.7.7 0 0 1 0 1.4h-2.4a.7.7 0 0 1 0-1.4zM682.55 382.599h28.8a.7.7 0 1 1 0 1.4h-28.8a.7.7 0 0 1 0-1.4zM675.35 375.399h2.4a.7.7 0 0 1 0 1.4h-2.4a.7.7 0 1 1 0-1.4zM682.55 375.399h28.8a.7.7 0 0 1 0 1.4h-28.8a.7.7 0 0 1 0-1.4zM675.35 368.199h2.4a.7.7 0 0 1 0 1.4h-2.4a.7.7 0 1 1 0-1.4zM682.55 368.199h28.8a.7.7 0 0 1 0 1.4h-28.8a.7.7 0 0 1 0-1.4zM675.35 360.999h2.4a.7.7 0 0 1 0 1.4h-2.4a.7.7 0 1 1 0-1.4zM682.55 360.999h28.8a.7.7 0 1 1 0 1.4h-28.8a.7.7 0 0 1 0-1.4zM675.35 353.799h2.4a.7.7 0 0 1 0 1.4h-2.4a.7.7 0 0 1 0-1.4zM682.55 353.799h28.8a.7.7 0 1 1 0 1.4h-28.8a.7.7 0 0 1 0-1.4z"/><path d="M719.235 348.452l.001.008v.009a.741.741 0 0 0 .014.083v45.547a.7.7 0 0 1-.7.7h-6.5v6.5a.7.7 0 0 1-.7.7h-50.4a.7.7 0 0 1-.7-.7v-64.8a.7.7 0 0 1 .7-.7h6.5v-4.1a.7.7 0 0 1 .7-.7h33.556l.031.005a.707.707 0 0 1 .229.039l.038.013.025.008.01.003a.705.705 0 0 1 .203.139l.001.001 16.794 16.794.002.002a.717.717 0 0 1 .138.202l.003.009.007.024.013.04.001.002a.625.625 0 0 1 .034.172zm-15.931-14.21l-.854-.853v14.41h14.41l-.853-.854-12.703-12.703zm6.846 66.357h.5v-5.8h-42.5a.7.7 0 0 1-.7-.7v-56.9h-5.8v63.4h48.5zm7.2-7.2h.5v-44.2h-16.1a.7.7 0 0 1-.7-.7v-16.1h-32.2v61h48.5z"/><path d="M681.35 348.999h.5v-5.8h-5.8v5.8h5.3zm-6-7.2h7.2a.7.7 0 0 1 .7.7v7.2a.7.7 0 0 1-.7.7h-7.2a.7.7 0 0 1-.7-.7v-7.2a.7.7 0 0 1 .7-.7zM537.6 382.599h2.4a.7.7 0 0 1 0 1.4h-2.4a.7.7 0 0 1 0-1.4zM544.8 382.599h28.8a.7.7 0 1 1 0 1.4h-28.8a.7.7 0 0 1 0-1.4zM537.6 375.399h2.4a.7.7 0 0 1 0 1.4h-2.4a.7.7 0 1 1 0-1.4zM544.8 375.399h28.8a.7.7 0 0 1 0 1.4h-28.8a.7.7 0 0 1 0-1.4zM537.6 368.199h2.4a.7.7 0 0 1 0 1.4h-2.4a.7.7 0 1 1 0-1.4zM544.8 368.199h28.8a.7.7 0 0 1 0 1.4h-28.8a.7.7 0 0 1 0-1.4zM537.6 360.999h2.4a.7.7 0 0 1 0 1.4h-2.4a.7.7 0 1 1 0-1.4zM544.8 360.999h28.8a.7.7 0 1 1 0 1.4h-28.8a.7.7 0 0 1 0-1.4zM537.6 353.799h2.4a.7.7 0 0 1 0 1.4h-2.4a.7.7 0 0 1 0-1.4zM544.8 353.799h28.8a.7.7 0 1 1 0 1.4h-28.8a.7.7 0 0 1 0-1.4z"/><path d="M581.485 348.452l.001.008v.009a.741.741 0 0 0 .014.083v45.547a.7.7 0 0 1-.7.7h-6.5v6.5a.7.7 0 0 1-.7.7h-50.4a.7.7 0 0 1-.7-.7v-64.8a.7.7 0 0 1 .7-.7h6.5v-4.1a.7.7 0 0 1 .7-.7h33.556l.031.005a.707.707 0 0 1 .229.039l.038.013.025.008.01.003a.705.705 0 0 1 .203.139l.001.001 16.794 16.794.002.002a.717.717 0 0 1 .138.202l.003.009.007.024.013.04.001.002a.625.625 0 0 1 .034.172zm-15.931-14.21l-.854-.853v14.41h14.41l-.853-.854-12.703-12.703zm6.846 66.357h.5v-5.8h-42.5a.7.7 0 0 1-.7-.7v-56.9h-5.8v63.4h48.5zm7.2-7.2h.5v-44.2H564a.7.7 0 0 1-.7-.7v-16.1h-32.2v61h48.5z"/><path d="M543.6 348.999h.5v-5.8h-5.8v5.8h5.3zm-6-7.2h7.2a.7.7 0 0 1 .7.7v7.2a.7.7 0 0 1-.7.7h-7.2a.7.7 0 0 1-.7-.7v-7.2a.7.7 0 0 1 .7-.7zM399.85 382.599h2.4a.7.7 0 0 1 0 1.4h-2.4a.7.7 0 0 1 0-1.4zM407.05 382.599h28.8a.7.7 0 1 1 0 1.4h-28.8a.7.7 0 0 1 0-1.4zM399.85 375.399h2.4a.7.7 0 0 1 0 1.4h-2.4a.7.7 0 1 1 0-1.4zM407.05 375.399h28.8a.7.7 0 0 1 0 1.4h-28.8a.7.7 0 0 1 0-1.4zM399.85 368.199h2.4a.7.7 0 0 1 0 1.4h-2.4a.7.7 0 1 1 0-1.4zM407.05 368.199h28.8a.7.7 0 0 1 0 1.4h-28.8a.7.7 0 0 1 0-1.4zM399.85 360.999h2.4a.7.7 0 0 1 0 1.4h-2.4a.7.7 0 1 1 0-1.4zM407.05 360.999h28.8a.7.7 0 1 1 0 1.4h-28.8a.7.7 0 0 1 0-1.4zM399.85 353.799h2.4a.7.7 0 0 1 0 1.4h-2.4a.7.7 0 0 1 0-1.4zM407.05 353.799h28.8a.7.7 0 1 1 0 1.4h-28.8a.7.7 0 0 1 0-1.4z"/><path d="M443.735 348.452l.001.008v.009a.741.741 0 0 0 .014.083v45.547a.7.7 0 0 1-.7.7h-6.5v6.5a.7.7 0 0 1-.7.7h-50.4a.7.7 0 0 1-.7-.7v-64.8a.7.7 0 0 1 .7-.7h6.5v-4.1a.7.7 0 0 1 .7-.7h33.556l.031.005a.707.707 0 0 1 .229.039l.038.013.025.008.01.003a.705.705 0 0 1 .203.139l.001.001 16.794 16.794.002.002a.717.717 0 0 1 .138.202l.003.009.007.024.013.04.001.002a.625.625 0 0 1 .034.172zm-15.931-14.21l-.854-.853v14.41h14.41l-.853-.854-12.703-12.703zm6.846 66.357h.5v-5.8h-42.5a.7.7 0 0 1-.7-.7v-56.9h-5.8v63.4h48.5zm7.2-7.2h.5v-44.2h-16.1a.7.7 0 0 1-.7-.7v-16.1h-32.2v61h48.5z"/><path d="M405.85 348.999h.5v-5.8h-5.8v5.8h5.3zm-6-7.2h7.2a.7.7 0 0 1 .7.7v7.2a.7.7 0 0 1-.7.7h-7.2a.7.7 0 0 1-.7-.7v-7.2a.7.7 0 0 1 .7-.7zM262.1 382.599h2.4a.7.7 0 0 1 0 1.4h-2.4a.7.7 0 0 1 0-1.4zM269.3 382.599h28.8a.7.7 0 1 1 0 1.4h-28.8a.7.7 0 0 1 0-1.4zM262.1 375.399h2.4a.7.7 0 0 1 0 1.4h-2.4a.7.7 0 1 1 0-1.4zM269.3 375.399h28.8a.7.7 0 0 1 0 1.4h-28.8a.7.7 0 0 1 0-1.4zM262.1 368.199h2.4a.7.7 0 0 1 0 1.4h-2.4a.7.7 0 1 1 0-1.4zM269.3 368.199h28.8a.7.7 0 0 1 0 1.4h-28.8a.7.7 0 0 1 0-1.4zM262.1 360.999h2.4a.7.7 0 0 1 0 1.4h-2.4a.7.7 0 1 1 0-1.4zM269.3 360.999h28.8a.7.7 0 1 1 0 1.4h-28.8a.7.7 0 0 1 0-1.4zM262.1 353.799h2.4a.7.7 0 0 1 0 1.4h-2.4a.7.7 0 0 1 0-1.4zM269.3 353.799h28.8a.7.7 0 1 1 0 1.4h-28.8a.7.7 0 0 1 0-1.4z"/><path d="M305.985 348.452l.001.008v.009a.741.741 0 0 0 .014.083v45.547a.7.7 0 0 1-.7.7h-6.5v6.5a.7.7 0 0 1-.7.7h-50.4a.7.7 0 0 1-.7-.7v-64.8a.7.7 0 0 1 .7-.7h6.5v-4.1a.7.7 0 0 1 .7-.7h33.556l.031.005a.707.707 0 0 1 .229.039l.038.013.025.008.01.003a.705.705 0 0 1 .203.139l.001.001 16.794 16.794.002.002a.717.717 0 0 1 .138.202l.003.009.007.024.013.04.001.002a.625.625 0 0 1 .034.172zm-15.931-14.21l-.854-.853v14.41h14.41l-.853-.854-12.703-12.703zm6.846 66.357h.5v-5.8h-42.5a.7.7 0 0 1-.7-.7v-56.9h-5.8v63.4h48.5zm7.2-7.2h.5v-44.2h-16.1a.7.7 0 0 1-.7-.7v-16.1h-32.2v61h48.5z"/><path d="M268.1 348.999h.5v-5.8h-5.8v5.8h5.3zm-6-7.2h7.2a.7.7 0 0 1 .7.7v7.2a.7.7 0 0 1-.7.7h-7.2a.7.7 0 0 1-.7-.7v-7.2a.7.7 0 0 1 .7-.7zM124.35 382.599h2.4a.7.7 0 0 1 0 1.4h-2.4a.7.7 0 0 1 0-1.4zM131.55 382.599h28.8a.7.7 0 1 1 0 1.4h-28.8a.7.7 0 0 1 0-1.4zM124.35 375.399h2.4a.7.7 0 0 1 0 1.4h-2.4a.7.7 0 1 1 0-1.4zM131.55 375.399h28.8a.7.7 0 0 1 0 1.4h-28.8a.7.7 0 0 1 0-1.4zM124.35 368.199h2.4a.7.7 0 0 1 0 1.4h-2.4a.7.7 0 1 1 0-1.4zM131.55 368.199h28.8a.7.7 0 0 1 0 1.4h-28.8a.7.7 0 0 1 0-1.4zM124.35 360.999h2.4a.7.7 0 0 1 0 1.4h-2.4a.7.7 0 1 1 0-1.4zM131.55 360.999h28.8a.7.7 0 1 1 0 1.4h-28.8a.7.7 0 0 1 0-1.4zM124.35 353.799h2.4a.7.7 0 0 1 0 1.4h-2.4a.7.7 0 0 1 0-1.4zM131.55 353.799h28.8a.7.7 0 1 1 0 1.4h-28.8a.7.7 0 0 1 0-1.4z"/><path d="M168.235 348.452l.001.008v.009a.741.741 0 0 0 .014.083v45.547a.7.7 0 0 1-.7.7h-6.5v6.5a.7.7 0 0 1-.7.7h-50.4a.7.7 0 0 1-.7-.7v-64.8a.7.7 0 0 1 .7-.7h6.5v-4.1a.7.7 0 0 1 .7-.7h33.556l.031.005a.707.707 0 0 1 .229.039l.038.013.025.008.01.003a.705.705 0 0 1 .203.139l.001.001 16.794 16.794.002.002a.717.717 0 0 1 .138.202l.003.009.007.024.013.04.001.002a.625.625 0 0 1 .034.172zm-15.931-14.21l-.854-.853v14.41h14.41l-.853-.854-12.703-12.703zm6.846 66.357h.5v-5.8h-42.5a.7.7 0 0 1-.7-.7v-56.9h-5.8v63.4h48.5zm7.2-7.2h.5v-44.2h-16.1a.7.7 0 0 1-.7-.7v-16.1h-32.2v61h48.5z"/><path d="M130.35 348.999h.5v-5.8h-5.8v5.8h5.3zm-6-7.2h7.2a.7.7 0 0 1 .7.7v7.2a.7.7 0 0 1-.7.7h-7.2a.7.7 0 0 1-.7-.7v-7.2a.7.7 0 0 1 .7-.7zM-6.2 382.599h28.8a.7.7 0 1 1 0 1.4H-6.2a.7.7 0 0 1 0-1.4zM-6.2 375.399h28.8a.7.7 0 0 1 0 1.4H-6.2a.7.7 0 1 1 0-1.4zM-6.2 368.199h28.8a.7.7 0 0 1 0 1.4H-6.2a.7.7 0 1 1 0-1.4zM-6.2 360.999h28.8a.7.7 0 1 1 0 1.4H-6.2a.7.7 0 1 1 0-1.4zM-6.2 353.799h28.8a.7.7 0 1 1 0 1.4H-6.2a.7.7 0 0 1 0-1.4z"/><path d="M30.485 348.452v.008l.002.009a.588.588 0 0 0 .013.083v45.547a.7.7 0 0 1-.7.7h-6.5v6.5a.7.7 0 0 1-.7.7h-50.4a.7.7 0 0 1-.7-.7v-64.8a.7.7 0 0 1 .7-.7h6.5v-4.1a.7.7 0 0 1 .7-.7h33.556l.031.005a.715.715 0 0 1 .23.039l.037.013.025.008a.702.702 0 0 1 .213.142v.001l16.795 16.794.002.002a.7.7 0 0 1 .138.202l.003.009.007.024.013.04.001.002a.63.63 0 0 1 .034.172zm-15.931-14.21l-.854-.853v14.41h14.41l-.853-.854-12.703-12.703zm6.846 66.357h.5v-5.8h-42.5a.7.7 0 0 1-.7-.7v-56.9h-5.8v63.4h48.5zm7.2-7.2h.5v-44.2H13a.7.7 0 0 1-.7-.7v-16.1h-32.2v61h48.5zM1025.6 495.432h2.4c.39 0 .7.313.7.7 0 .386-.31.7-.7.7h-2.4c-.39 0-.7-.314-.7-.7 0-.387.31-.7.7-.7zM1032.8 495.432h28.8c.39 0 .7.313.7.7 0 .386-.31.7-.7.7h-28.8c-.39 0-.7-.314-.7-.7 0-.387.31-.7.7-.7zM1025.6 488.232h2.4c.39 0 .7.314.7.7 0 .387-.31.7-.7.7h-2.4c-.39 0-.7-.313-.7-.7 0-.386.31-.7.7-.7zM1032.8 488.232h28.8c.39 0 .7.314.7.7 0 .387-.31.7-.7.7h-28.8c-.39 0-.7-.313-.7-.7 0-.386.31-.7.7-.7zM1025.6 481.032h2.4c.39 0 .7.314.7.7 0 .387-.31.7-.7.7h-2.4c-.39 0-.7-.313-.7-.7 0-.386.31-.7.7-.7zM1032.8 481.032h28.8c.39 0 .7.314.7.7 0 .387-.31.7-.7.7h-28.8c-.39 0-.7-.313-.7-.7 0-.386.31-.7.7-.7zM1025.6 473.832h2.4c.39 0 .7.313.7.7 0 .387-.31.7-.7.7h-2.4c-.39 0-.7-.313-.7-.7 0-.387.31-.7.7-.7zM1032.8 473.832h28.8c.39 0 .7.313.7.7 0 .387-.31.7-.7.7h-28.8c-.39 0-.7-.313-.7-.7 0-.387.31-.7.7-.7zM1025.6 466.632h2.4c.39 0 .7.313.7.7 0 .386-.31.7-.7.7h-2.4c-.39 0-.7-.314-.7-.7 0-.387.31-.7.7-.7zM1032.8 466.632h28.8c.39 0 .7.313.7.7 0 .386-.31.7-.7.7h-28.8c-.39 0-.7-.314-.7-.7 0-.387.31-.7.7-.7z"/><path d="M1069.48 461.285l.01.008v.009c0 .034 0 .062.01.083v45.547c0 .387-.31.7-.7.7h-6.5v6.5c0 .387-.31.7-.7.7h-50.4c-.39 0-.7-.313-.7-.7v-64.8c0-.387.31-.7.7-.7h6.5v-4.1c0-.387.31-.7.7-.7h33.56a.439.439 0 0 0 .1.01c.05.005.1.017.16.034.01.005.02.01.03.013l.03.008c0 .002.01.003.01.003.07.034.14.081.2.139v.001l16.8 16.794v.002c.06.059.1.127.14.202v.009l.01.024c0 .011 0 .024.01.04v.002c.02.055.03.113.03.172zm-15.93-14.21l-.85-.853v14.41h14.41l-.85-.854-12.71-12.703zm6.85 66.357h.5v-5.8h-42.5c-.39 0-.7-.313-.7-.7v-56.9h-5.8v63.4h48.5zm7.2-7.2h.5v-44.2H1052c-.39 0-.7-.313-.7-.7v-16.1h-32.2v61h48.5z"/><path d="M1031.6 461.832h.5v-5.8h-5.8v5.8h5.3zm-6-7.2h7.2c.39 0 .7.313.7.7v7.2c0 .386-.31.7-.7.7h-7.2c-.39 0-.7-.314-.7-.7v-7.2c0-.387.31-.7.7-.7zM886.171 495.432h2.4a.7.7 0 1 1 0 1.4h-2.4a.7.7 0 0 1 0-1.4zM893.371 495.432h28.8a.7.7 0 1 1 0 1.4h-28.8a.7.7 0 0 1 0-1.4zM886.171 488.232h2.4a.7.7 0 0 1 0 1.4h-2.4a.7.7 0 0 1 0-1.4zM893.371 488.232h28.8a.7.7 0 0 1 0 1.4h-28.8a.7.7 0 0 1 0-1.4zM886.171 481.032h2.4a.7.7 0 0 1 0 1.4h-2.4a.7.7 0 0 1 0-1.4zM893.371 481.032h28.8a.7.7 0 0 1 0 1.4h-28.8a.7.7 0 0 1 0-1.4zM886.171 473.832h2.4a.7.7 0 1 1 0 1.4h-2.4a.7.7 0 0 1 0-1.4zM893.371 473.832h28.8a.7.7 0 1 1 0 1.4h-28.8a.7.7 0 0 1 0-1.4zM886.171 466.632h2.4a.7.7 0 1 1 0 1.4h-2.4a.7.7 0 0 1 0-1.4zM893.371 466.632h28.8a.7.7 0 1 1 0 1.4h-28.8a.7.7 0 0 1 0-1.4z"/><path d="M930.057 461.285v.008l.001.009a.583.583 0 0 0 .013.083v45.547a.7.7 0 0 1-.7.7h-6.5v6.5a.7.7 0 0 1-.7.7h-50.4a.7.7 0 0 1-.7-.7v-64.8a.7.7 0 0 1 .7-.7h6.5v-4.1a.7.7 0 0 1 .7-.7h33.556l.031.005a.707.707 0 0 1 .229.039l.038.013.026.008a.705.705 0 0 1 .212.142l.001.001 16.794 16.794.002.002a.697.697 0 0 1 .138.202l.003.009.008.024a.447.447 0 0 0 .013.04v.002c.02.055.031.113.035.172zm-15.932-14.21l-.854-.853v14.41h14.411l-.854-.854-12.703-12.703zm6.846 66.357h.5v-5.8h-42.5a.7.7 0 0 1-.7-.7v-56.9h-5.8v63.4h48.5zm7.2-7.2h.5v-44.2h-16.1a.7.7 0 0 1-.7-.7v-16.1h-32.2v61h48.5z"/><path d="M892.171 461.832h.5v-5.8h-5.8v5.8h5.3zm-6-7.2h7.2a.7.7 0 0 1 .7.7v7.2a.7.7 0 0 1-.7.7h-7.2a.7.7 0 0 1-.7-.7v-7.2a.7.7 0 0 1 .7-.7zM746.743 495.432h2.4a.7.7 0 0 1 0 1.4h-2.4a.7.7 0 0 1 0-1.4zM753.943 495.432h28.8a.7.7 0 0 1 0 1.4h-28.8a.7.7 0 0 1 0-1.4zM746.743 488.232h2.4a.7.7 0 0 1 0 1.4h-2.4a.7.7 0 1 1 0-1.4zM753.943 488.232h28.8a.7.7 0 0 1 0 1.4h-28.8a.7.7 0 1 1 0-1.4zM746.743 481.032h2.4a.7.7 0 0 1 0 1.4h-2.4a.7.7 0 1 1 0-1.4zM753.943 481.032h28.8a.7.7 0 0 1 0 1.4h-28.8a.7.7 0 1 1 0-1.4zM746.743 473.832h2.4a.7.7 0 0 1 0 1.4h-2.4a.7.7 0 1 1 0-1.4zM753.943 473.832h28.8a.7.7 0 0 1 0 1.4h-28.8a.7.7 0 1 1 0-1.4zM746.743 466.632h2.4a.7.7 0 0 1 0 1.4h-2.4a.7.7 0 0 1 0-1.4zM753.943 466.632h28.8a.7.7 0 0 1 0 1.4h-28.8a.7.7 0 0 1 0-1.4z"/><path d="M790.628 461.285l.001.008v.009a.565.565 0 0 0 .014.083v45.547a.7.7 0 0 1-.7.7h-6.5v6.5a.7.7 0 0 1-.7.7h-50.4a.7.7 0 0 1-.7-.7v-64.8a.7.7 0 0 1 .7-.7h6.5v-4.1a.7.7 0 0 1 .7-.7h33.555a.443.443 0 0 0 .103.01.719.719 0 0 1 .158.034l.038.013.025.008a.705.705 0 0 1 .214.143l16.794 16.794.001.002a.7.7 0 0 1 .139.202l.002.009.008.024.013.04.001.002a.625.625 0 0 1 .034.172zm-15.932-14.21l-.853-.853v14.41h14.41l-.853-.854-12.704-12.703zm6.847 66.357h.5v-5.8h-42.5a.7.7 0 0 1-.7-.7v-56.9h-5.8v63.4h48.5zm7.2-7.2h.5v-44.2h-16.1a.7.7 0 0 1-.7-.7v-16.1h-32.2v61h48.5z"/><path d="M752.743 461.832h.5v-5.8h-5.8v5.8h5.3zm-6-7.2h7.2a.7.7 0 0 1 .7.7v7.2a.7.7 0 0 1-.7.7h-7.2a.7.7 0 0 1-.7-.7v-7.2a.7.7 0 0 1 .7-.7zM607.314 495.432h2.4a.7.7 0 1 1 0 1.4h-2.4a.7.7 0 0 1 0-1.4zM614.514 495.432h28.8a.7.7 0 1 1 0 1.4h-28.8a.7.7 0 0 1 0-1.4zM607.314 488.232h2.4a.7.7 0 0 1 0 1.4h-2.4a.7.7 0 0 1 0-1.4zM614.514 488.232h28.8a.7.7 0 0 1 0 1.4h-28.8a.7.7 0 0 1 0-1.4zM607.314 481.032h2.4a.7.7 0 0 1 0 1.4h-2.4a.7.7 0 0 1 0-1.4zM614.514 481.032h28.8a.7.7 0 0 1 0 1.4h-28.8a.7.7 0 0 1 0-1.4zM607.314 473.832h2.4a.7.7 0 1 1 0 1.4h-2.4a.7.7 0 0 1 0-1.4zM614.514 473.832h28.8a.7.7 0 1 1 0 1.4h-28.8a.7.7 0 0 1 0-1.4zM607.314 466.632h2.4a.7.7 0 1 1 0 1.4h-2.4a.7.7 0 0 1 0-1.4zM614.514 466.632h28.8a.7.7 0 1 1 0 1.4h-28.8a.7.7 0 0 1 0-1.4z"/><path d="M651.2 461.285v.008l.001.009a.583.583 0 0 0 .013.083v45.547a.7.7 0 0 1-.7.7h-6.5v6.5a.7.7 0 0 1-.7.7h-50.4a.7.7 0 0 1-.7-.7v-64.8a.7.7 0 0 1 .7-.7h6.5v-4.1a.7.7 0 0 1 .7-.7h33.556l.031.005a.707.707 0 0 1 .229.039l.038.013.026.008a.705.705 0 0 1 .213.143l16.795 16.794.001.002a.697.697 0 0 1 .138.202l.003.009.008.024.013.04v.002c.02.055.031.113.035.172zm-15.932-14.21l-.854-.853v14.41H648.825l-.854-.854-12.703-12.703zm6.846 66.357h.5v-5.8h-42.5a.7.7 0 0 1-.7-.7v-56.9h-5.8v63.4h48.5zm7.2-7.2h.5v-44.2h-16.1a.7.7 0 0 1-.7-.7v-16.1h-32.2v61h48.5z"/><path d="M613.314 461.832h.5v-5.8h-5.8v5.8h5.3zm-6-7.2h7.2a.7.7 0 0 1 .7.7v7.2a.7.7 0 0 1-.7.7h-7.2a.7.7 0 0 1-.7-.7v-7.2a.7.7 0 0 1 .7-.7zM467.886 495.432h2.4a.7.7 0 0 1 0 1.4h-2.4a.7.7 0 0 1 0-1.4zM475.086 495.432h28.8a.7.7 0 0 1 0 1.4h-28.8a.7.7 0 0 1 0-1.4zM467.886 488.232h2.4a.7.7 0 0 1 0 1.4h-2.4a.7.7 0 1 1 0-1.4zM475.086 488.232h28.8a.7.7 0 0 1 0 1.4h-28.8a.7.7 0 1 1 0-1.4zM467.886 481.032h2.4a.7.7 0 0 1 0 1.4h-2.4a.7.7 0 1 1 0-1.4zM475.086 481.032h28.8a.7.7 0 0 1 0 1.4h-28.8a.7.7 0 1 1 0-1.4zM467.886 473.832h2.4a.7.7 0 0 1 0 1.4h-2.4a.7.7 0 1 1 0-1.4zM475.086 473.832h28.8a.7.7 0 0 1 0 1.4h-28.8a.7.7 0 1 1 0-1.4zM467.886 466.632h2.4a.7.7 0 0 1 0 1.4h-2.4a.7.7 0 0 1 0-1.4zM475.086 466.632h28.8a.7.7 0 0 1 0 1.4h-28.8a.7.7 0 0 1 0-1.4z"/><path d="M511.771 461.285v.008l.001.009a.565.565 0 0 0 .014.083v45.547a.7.7 0 0 1-.7.7h-6.5v6.5a.7.7 0 0 1-.7.7h-50.4a.7.7 0 0 1-.7-.7v-64.8a.7.7 0 0 1 .7-.7h6.5v-4.1a.7.7 0 0 1 .7-.7h33.555a.439.439 0 0 0 .102.01.727.727 0 0 1 .159.034l.038.013.025.008a.692.692 0 0 1 .212.142l.002.001 16.794 16.794.001.002a.678.678 0 0 1 .141.211l.008.024.013.04.001.002c.019.055.03.113.034.172zm-15.932-14.21l-.853-.853v14.41h14.41l-.854-.854-12.703-12.703zm6.847 66.357h.5v-5.8h-42.5a.7.7 0 0 1-.7-.7v-56.9h-5.8v63.4h48.5zm7.2-7.2h.5v-44.2h-16.1a.7.7 0 0 1-.7-.7v-16.1h-32.2v61h48.5z"/><path d="M473.886 461.832h.5v-5.8h-5.8v5.8h5.3zm-6-7.2h7.2a.7.7 0 0 1 .7.7v7.2a.7.7 0 0 1-.7.7h-7.2a.7.7 0 0 1-.7-.7v-7.2a.7.7 0 0 1 .7-.7zM328.457 495.432h2.4a.7.7 0 1 1 0 1.4h-2.4a.7.7 0 0 1 0-1.4zM335.657 495.432h28.8a.7.7 0 1 1 0 1.4h-28.8a.7.7 0 0 1 0-1.4zM328.457 488.232h2.4a.7.7 0 0 1 0 1.4h-2.4a.7.7 0 0 1 0-1.4zM335.657 488.232h28.8a.7.7 0 0 1 0 1.4h-28.8a.7.7 0 0 1 0-1.4zM328.457 481.032h2.4a.7.7 0 0 1 0 1.4h-2.4a.7.7 0 0 1 0-1.4zM335.657 481.032h28.8a.7.7 0 0 1 0 1.4h-28.8a.7.7 0 0 1 0-1.4zM328.457 473.832h2.4a.7.7 0 1 1 0 1.4h-2.4a.7.7 0 0 1 0-1.4zM335.657 473.832h28.8a.7.7 0 1 1 0 1.4h-28.8a.7.7 0 0 1 0-1.4zM328.457 466.632h2.4a.7.7 0 1 1 0 1.4h-2.4a.7.7 0 0 1 0-1.4zM335.657 466.632h28.8a.7.7 0 1 1 0 1.4h-28.8a.7.7 0 0 1 0-1.4z"/><path d="M372.342 461.285l.001.008.001.009a.583.583 0 0 0 .013.083v45.547a.7.7 0 0 1-.7.7h-6.5v6.5a.7.7 0 0 1-.7.7h-50.4a.7.7 0 0 1-.7-.7v-64.8a.7.7 0 0 1 .7-.7h6.5v-4.1a.7.7 0 0 1 .7-.7h33.556l.031.005a.707.707 0 0 1 .229.039l.038.013.025.008a.705.705 0 0 1 .213.142l.001.001 16.794 16.794.002.002a.717.717 0 0 1 .138.202l.003.009.008.024a.447.447 0 0 0 .013.04v.002a.59.59 0 0 1 .034.172zm-15.931-14.21l-.854-.853v14.41h14.41l-.853-.854-12.703-12.703zm6.846 66.357h.5v-5.8h-42.5a.7.7 0 0 1-.7-.7v-56.9h-5.8v63.4h48.5zm7.2-7.2h.5v-44.2h-16.1a.7.7 0 0 1-.7-.7v-16.1h-32.2v61h48.5z"/><path d="M334.457 461.832h.5v-5.8h-5.8v5.8h5.3zm-6-7.2h7.2a.7.7 0 0 1 .7.7v7.2a.7.7 0 0 1-.7.7h-7.2a.7.7 0 0 1-.7-.7v-7.2a.7.7 0 0 1 .7-.7zM189.029 495.432h2.4a.7.7 0 0 1 0 1.4h-2.4a.7.7 0 0 1 0-1.4zM196.229 495.432h28.8a.7.7 0 0 1 0 1.4h-28.8a.7.7 0 0 1 0-1.4zM189.029 488.232h2.4a.7.7 0 0 1 0 1.4h-2.4a.7.7 0 1 1 0-1.4zM196.229 488.232h28.8a.7.7 0 0 1 0 1.4h-28.8a.7.7 0 1 1 0-1.4zM189.029 481.032h2.4a.7.7 0 0 1 0 1.4h-2.4a.7.7 0 1 1 0-1.4zM196.229 481.032h28.8a.7.7 0 0 1 0 1.4h-28.8a.7.7 0 1 1 0-1.4zM189.029 473.832h2.4a.7.7 0 0 1 0 1.4h-2.4a.7.7 0 1 1 0-1.4zM196.229 473.832h28.8a.7.7 0 0 1 0 1.4h-28.8a.7.7 0 1 1 0-1.4zM189.029 466.632h2.4a.7.7 0 0 1 0 1.4h-2.4a.7.7 0 0 1 0-1.4zM196.229 466.632h28.8a.7.7 0 0 1 0 1.4h-28.8a.7.7 0 0 1 0-1.4z"/><path d="M232.914 461.285v.008l.001.009a.565.565 0 0 0 .014.083v45.547a.7.7 0 0 1-.7.7h-6.5v6.5a.7.7 0 0 1-.7.7h-50.4a.7.7 0 0 1-.7-.7v-64.8a.7.7 0 0 1 .7-.7h6.5v-4.1a.7.7 0 0 1 .7-.7h33.555l.032.005a.715.715 0 0 1 .229.039l.038.013.025.008a.7.7 0 0 1 .212.142l.002.001 16.794 16.794.001.002a.678.678 0 0 1 .138.202l.003.009.008.024.013.04.001.002a.625.625 0 0 1 .034.172zm-15.932-14.21l-.853-.853v14.41h14.41l-.854-.854-12.703-12.703zm6.847 66.357h.5v-5.8h-42.5a.7.7 0 0 1-.7-.7v-56.9h-5.8v63.4h48.5zm7.2-7.2h.5v-44.2h-16.1a.7.7 0 0 1-.7-.7v-16.1h-32.2v61h48.5z"/><path d="M195.029 461.832h.5v-5.8h-5.8v5.8h5.3zm-6-7.2h7.2a.7.7 0 0 1 .7.7v7.2a.7.7 0 0 1-.7.7h-7.2a.7.7 0 0 1-.7-.7v-7.2a.7.7 0 0 1 .7-.7zM49.6 495.432H52a.7.7 0 1 1 0 1.4h-2.4a.7.7 0 0 1 0-1.4zM56.8 495.432h28.8a.7.7 0 1 1 0 1.4H56.8a.7.7 0 0 1 0-1.4zM49.6 488.232H52a.7.7 0 0 1 0 1.4h-2.4a.7.7 0 1 1 0-1.4zM56.8 488.232h28.8a.7.7 0 0 1 0 1.4H56.8a.7.7 0 1 1 0-1.4zM49.6 481.032H52a.7.7 0 0 1 0 1.4h-2.4a.7.7 0 1 1 0-1.4zM56.8 481.032h28.8a.7.7 0 0 1 0 1.4H56.8a.7.7 0 1 1 0-1.4zM49.6 473.832H52a.7.7 0 1 1 0 1.4h-2.4a.7.7 0 1 1 0-1.4zM56.8 473.832h28.8a.7.7 0 1 1 0 1.4H56.8a.7.7 0 1 1 0-1.4zM49.6 466.632H52a.7.7 0 1 1 0 1.4h-2.4a.7.7 0 0 1 0-1.4zM56.8 466.632h28.8a.7.7 0 1 1 0 1.4H56.8a.7.7 0 0 1 0-1.4z"/><path d="M93.485 461.285v.008l.002.009a.588.588 0 0 0 .013.083v45.547a.7.7 0 0 1-.7.7h-6.5v6.5a.7.7 0 0 1-.7.7H35.2a.7.7 0 0 1-.7-.7v-64.8a.7.7 0 0 1 .7-.7h6.5v-4.1a.7.7 0 0 1 .7-.7h33.556l.031.005a.715.715 0 0 1 .23.039l.037.013.025.008a.702.702 0 0 1 .212.142l.002.001 16.794 16.794.002.002a.7.7 0 0 1 .138.202l.003.009.007.024.013.04.001.002a.63.63 0 0 1 .034.172zm-15.931-14.21l-.854-.853v14.41h14.41l-.853-.854-12.703-12.703zm6.846 66.357h.5v-5.8H42.4a.7.7 0 0 1-.7-.7v-56.9h-5.8v63.4h48.5zm7.2-7.2h.5v-44.2H76a.7.7 0 0 1-.7-.7v-16.1H43.1v61h48.5z"/><path d="M55.6 461.832h.5v-5.8h-5.8v5.8h5.3zm-6-7.2h7.2a.7.7 0 0 1 .7.7v7.2a.7.7 0 0 1-.7.7h-7.2a.7.7 0 0 1-.7-.7v-7.2a.7.7 0 0 1 .7-.7zM950.85 608.265h2.4a.7.7 0 0 1 0 1.4h-2.4a.7.7 0 0 1 0-1.4zM958.05 608.265h28.8a.7.7 0 1 1 0 1.4h-28.8a.7.7 0 0 1 0-1.4zM950.85 601.065h2.4a.7.7 0 0 1 0 1.4h-2.4a.7.7 0 1 1 0-1.4zM958.05 601.065h28.8a.7.7 0 0 1 0 1.4h-28.8a.7.7 0 0 1 0-1.4zM950.85 593.865h2.4a.7.7 0 0 1 0 1.4h-2.4a.7.7 0 1 1 0-1.4zM958.05 593.865h28.8a.7.7 0 0 1 0 1.4h-28.8a.7.7 0 0 1 0-1.4zM950.85 586.665h2.4a.7.7 0 0 1 0 1.4h-2.4a.7.7 0 1 1 0-1.4zM958.05 586.665h28.8a.7.7 0 1 1 0 1.4h-28.8a.7.7 0 0 1 0-1.4zM950.85 579.465h2.4a.7.7 0 0 1 0 1.4h-2.4a.7.7 0 0 1 0-1.4zM958.05 579.465h28.8a.7.7 0 1 1 0 1.4h-28.8a.7.7 0 0 1 0-1.4z"/><path d="M994.735 574.118l.001.008v.009a.741.741 0 0 0 .014.083v45.547a.7.7 0 0 1-.7.7h-6.5v6.5a.7.7 0 0 1-.7.7h-50.4a.7.7 0 0 1-.7-.7v-64.8a.7.7 0 0 1 .7-.7h6.5v-4.1a.7.7 0 0 1 .7-.7h33.556l.031.005a.707.707 0 0 1 .229.039l.038.013.025.008a.705.705 0 0 1 .213.142l.001.001 16.794 16.794.002.002a.717.717 0 0 1 .138.202l.003.009.007.024.013.04.001.002a.625.625 0 0 1 .034.172zm-15.931-14.21l-.854-.853v14.41h14.41l-.853-.854-12.703-12.703zm6.846 66.357h.5v-5.8h-42.5a.7.7 0 0 1-.7-.7v-56.9h-5.8v63.4h48.5zm7.2-7.2h.5v-44.2h-16.1a.7.7 0 0 1-.7-.7v-16.1h-32.2v61h48.5z"/><path d="M956.85 574.665h.5v-5.8h-5.8v5.8h5.3zm-6-7.2h7.2a.7.7 0 0 1 .7.7v7.2a.7.7 0 0 1-.7.7h-7.2a.7.7 0 0 1-.7-.7v-7.2a.7.7 0 0 1 .7-.7zM1088.6 608.265h2.4c.39 0 .7.313.7.7 0 .386-.31.7-.7.7h-2.4c-.39 0-.7-.314-.7-.7 0-.387.31-.7.7-.7zM1095.8 608.265h28.8c.39 0 .7.313.7.7 0 .386-.31.7-.7.7h-28.8c-.39 0-.7-.314-.7-.7 0-.387.31-.7.7-.7zM1088.6 601.065h2.4c.39 0 .7.314.7.7 0 .387-.31.7-.7.7h-2.4c-.39 0-.7-.313-.7-.7 0-.386.31-.7.7-.7zM1095.8 601.065h28.8c.39 0 .7.314.7.7 0 .387-.31.7-.7.7h-28.8c-.39 0-.7-.313-.7-.7 0-.386.31-.7.7-.7zM1088.6 593.865h2.4c.39 0 .7.314.7.7 0 .387-.31.7-.7.7h-2.4c-.39 0-.7-.313-.7-.7 0-.386.31-.7.7-.7zM1095.8 593.865h28.8c.39 0 .7.314.7.7 0 .387-.31.7-.7.7h-28.8c-.39 0-.7-.313-.7-.7 0-.386.31-.7.7-.7zM1088.6 586.665h2.4c.39 0 .7.313.7.7 0 .387-.31.7-.7.7h-2.4c-.39 0-.7-.313-.7-.7 0-.387.31-.7.7-.7zM1095.8 586.665h28.8c.39 0 .7.313.7.7 0 .387-.31.7-.7.7h-28.8c-.39 0-.7-.313-.7-.7 0-.387.31-.7.7-.7zM1088.6 579.465h2.4c.39 0 .7.313.7.7 0 .386-.31.7-.7.7h-2.4c-.39 0-.7-.314-.7-.7 0-.387.31-.7.7-.7zM1095.8 579.465h28.8c.39 0 .7.313.7.7 0 .386-.31.7-.7.7h-28.8c-.39 0-.7-.314-.7-.7 0-.387.31-.7.7-.7z"/><path d="M1132.49 574.118v.017c0 .034.01.062.01.083v45.547c0 .387-.31.7-.7.7h-6.5v6.5c0 .387-.31.7-.7.7h-50.4c-.39 0-.7-.313-.7-.7v-64.8c0-.387.31-.7.7-.7h6.5v-4.1c0-.387.31-.7.7-.7h33.56a.439.439 0 0 0 .1.01c.05.005.1.017.16.034.01.005.02.01.03.013l.03.008c0 .002.01.003.01.003.07.034.14.081.2.139v.001l16.8 16.794v.002c.06.059.1.127.14.202v.009l.01.024c0 .011.01.024.01.04v.002c.02.055.03.113.04.172zm-15.94-14.21l-.85-.853v14.41h14.41l-.85-.854-12.71-12.703zm6.85 66.357h.5v-5.8h-42.5c-.39 0-.7-.313-.7-.7v-56.9h-5.8v63.4h48.5zm7.2-7.2h.5v-44.2H1115c-.39 0-.7-.313-.7-.7v-16.1h-32.2v61h48.5z"/><path d="M1094.6 574.665h.5v-5.8h-5.8v5.8h5.3zm-6-7.2h7.2c.39 0 .7.313.7.7v7.2c0 .386-.31.7-.7.7h-7.2c-.39 0-.7-.314-.7-.7v-7.2c0-.387.31-.7.7-.7zM813.1 608.265h2.4a.7.7 0 0 1 0 1.4h-2.4a.7.7 0 0 1 0-1.4zM820.3 608.265h28.8a.7.7 0 1 1 0 1.4h-28.8a.7.7 0 0 1 0-1.4zM813.1 601.065h2.4a.7.7 0 0 1 0 1.4h-2.4a.7.7 0 1 1 0-1.4zM820.3 601.065h28.8a.7.7 0 0 1 0 1.4h-28.8a.7.7 0 0 1 0-1.4zM813.1 593.865h2.4a.7.7 0 0 1 0 1.4h-2.4a.7.7 0 1 1 0-1.4zM820.3 593.865h28.8a.7.7 0 0 1 0 1.4h-28.8a.7.7 0 0 1 0-1.4zM813.1 586.665h2.4a.7.7 0 0 1 0 1.4h-2.4a.7.7 0 1 1 0-1.4zM820.3 586.665h28.8a.7.7 0 1 1 0 1.4h-28.8a.7.7 0 0 1 0-1.4zM813.1 579.465h2.4a.7.7 0 0 1 0 1.4h-2.4a.7.7 0 0 1 0-1.4zM820.3 579.465h28.8a.7.7 0 1 1 0 1.4h-28.8a.7.7 0 0 1 0-1.4z"/><path d="M856.985 574.118l.001.008v.009a.741.741 0 0 0 .014.083v45.547a.7.7 0 0 1-.7.7h-6.5v6.5a.7.7 0 0 1-.7.7h-50.4a.7.7 0 0 1-.7-.7v-64.8a.7.7 0 0 1 .7-.7h6.5v-4.1a.7.7 0 0 1 .7-.7h33.556l.031.005a.707.707 0 0 1 .229.039l.038.013.025.008a.705.705 0 0 1 .213.142l.001.001 16.794 16.794.002.002a.717.717 0 0 1 .138.202l.003.009.007.024.013.04.001.002a.625.625 0 0 1 .034.172zm-15.931-14.21l-.854-.853v14.41h14.41l-.853-.854-12.703-12.703zm6.846 66.357h.5v-5.8h-42.5a.7.7 0 0 1-.7-.7v-56.9h-5.8v63.4h48.5zm7.2-7.2h.5v-44.2h-16.1a.7.7 0 0 1-.7-.7v-16.1h-32.2v61h48.5z"/><path d="M819.1 574.665h.5v-5.8h-5.8v5.8h5.3zm-6-7.2h7.2a.7.7 0 0 1 .7.7v7.2a.7.7 0 0 1-.7.7h-7.2a.7.7 0 0 1-.7-.7v-7.2a.7.7 0 0 1 .7-.7zM675.35 608.265h2.4a.7.7 0 0 1 0 1.4h-2.4a.7.7 0 0 1 0-1.4zM682.55 608.265h28.8a.7.7 0 1 1 0 1.4h-28.8a.7.7 0 0 1 0-1.4zM675.35 601.065h2.4a.7.7 0 0 1 0 1.4h-2.4a.7.7 0 1 1 0-1.4zM682.55 601.065h28.8a.7.7 0 0 1 0 1.4h-28.8a.7.7 0 0 1 0-1.4zM675.35 593.865h2.4a.7.7 0 0 1 0 1.4h-2.4a.7.7 0 1 1 0-1.4zM682.55 593.865h28.8a.7.7 0 0 1 0 1.4h-28.8a.7.7 0 0 1 0-1.4zM675.35 586.665h2.4a.7.7 0 0 1 0 1.4h-2.4a.7.7 0 1 1 0-1.4zM682.55 586.665h28.8a.7.7 0 1 1 0 1.4h-28.8a.7.7 0 0 1 0-1.4zM675.35 579.465h2.4a.7.7 0 0 1 0 1.4h-2.4a.7.7 0 0 1 0-1.4zM682.55 579.465h28.8a.7.7 0 1 1 0 1.4h-28.8a.7.7 0 0 1 0-1.4z"/><path d="M719.235 574.118l.001.008v.009a.741.741 0 0 0 .014.083v45.547a.7.7 0 0 1-.7.7h-6.5v6.5a.7.7 0 0 1-.7.7h-50.4a.7.7 0 0 1-.7-.7v-64.8a.7.7 0 0 1 .7-.7h6.5v-4.1a.7.7 0 0 1 .7-.7h33.556l.031.005a.707.707 0 0 1 .229.039l.038.013.025.008a.705.705 0 0 1 .213.142l.001.001 16.794 16.794.002.002a.717.717 0 0 1 .138.202l.003.009.007.024.013.04.001.002a.625.625 0 0 1 .034.172zm-15.931-14.21l-.854-.853v14.41h14.41l-.853-.854-12.703-12.703zm6.846 66.357h.5v-5.8h-42.5a.7.7 0 0 1-.7-.7v-56.9h-5.8v63.4h48.5zm7.2-7.2h.5v-44.2h-16.1a.7.7 0 0 1-.7-.7v-16.1h-32.2v61h48.5z"/><path d="M681.35 574.665h.5v-5.8h-5.8v5.8h5.3zm-6-7.2h7.2a.7.7 0 0 1 .7.7v7.2a.7.7 0 0 1-.7.7h-7.2a.7.7 0 0 1-.7-.7v-7.2a.7.7 0 0 1 .7-.7zM537.6 608.265h2.4a.7.7 0 0 1 0 1.4h-2.4a.7.7 0 0 1 0-1.4zM544.8 608.265h28.8a.7.7 0 1 1 0 1.4h-28.8a.7.7 0 0 1 0-1.4zM537.6 601.065h2.4a.7.7 0 0 1 0 1.4h-2.4a.7.7 0 1 1 0-1.4zM544.8 601.065h28.8a.7.7 0 0 1 0 1.4h-28.8a.7.7 0 0 1 0-1.4zM537.6 593.865h2.4a.7.7 0 0 1 0 1.4h-2.4a.7.7 0 1 1 0-1.4zM544.8 593.865h28.8a.7.7 0 0 1 0 1.4h-28.8a.7.7 0 0 1 0-1.4zM537.6 586.665h2.4a.7.7 0 0 1 0 1.4h-2.4a.7.7 0 1 1 0-1.4zM544.8 586.665h28.8a.7.7 0 1 1 0 1.4h-28.8a.7.7 0 0 1 0-1.4zM537.6 579.465h2.4a.7.7 0 0 1 0 1.4h-2.4a.7.7 0 0 1 0-1.4zM544.8 579.465h28.8a.7.7 0 1 1 0 1.4h-28.8a.7.7 0 0 1 0-1.4z"/><path d="M581.485 574.118l.001.008v.009a.741.741 0 0 0 .014.083v45.547a.7.7 0 0 1-.7.7h-6.5v6.5a.7.7 0 0 1-.7.7h-50.4a.7.7 0 0 1-.7-.7v-64.8a.7.7 0 0 1 .7-.7h6.5v-4.1a.7.7 0 0 1 .7-.7h33.556l.031.005a.707.707 0 0 1 .229.039l.038.013.025.008a.705.705 0 0 1 .213.142l.001.001 16.794 16.794.002.002a.717.717 0 0 1 .138.202l.003.009.007.024.013.04.001.002a.625.625 0 0 1 .034.172zm-15.931-14.21l-.854-.853v14.41h14.41l-.853-.854-12.703-12.703zm6.846 66.357h.5v-5.8h-42.5a.7.7 0 0 1-.7-.7v-56.9h-5.8v63.4h48.5zm7.2-7.2h.5v-44.2H564a.7.7 0 0 1-.7-.7v-16.1h-32.2v61h48.5z"/><path d="M543.6 574.665h.5v-5.8h-5.8v5.8h5.3zm-6-7.2h7.2a.7.7 0 0 1 .7.7v7.2a.7.7 0 0 1-.7.7h-7.2a.7.7 0 0 1-.7-.7v-7.2a.7.7 0 0 1 .7-.7zM399.85 608.265h2.4a.7.7 0 0 1 0 1.4h-2.4a.7.7 0 0 1 0-1.4zM407.05 608.265h28.8a.7.7 0 1 1 0 1.4h-28.8a.7.7 0 0 1 0-1.4zM399.85 601.065h2.4a.7.7 0 0 1 0 1.4h-2.4a.7.7 0 1 1 0-1.4zM407.05 601.065h28.8a.7.7 0 0 1 0 1.4h-28.8a.7.7 0 0 1 0-1.4zM399.85 593.865h2.4a.7.7 0 0 1 0 1.4h-2.4a.7.7 0 1 1 0-1.4zM407.05 593.865h28.8a.7.7 0 0 1 0 1.4h-28.8a.7.7 0 0 1 0-1.4zM399.85 586.665h2.4a.7.7 0 0 1 0 1.4h-2.4a.7.7 0 1 1 0-1.4zM407.05 586.665h28.8a.7.7 0 1 1 0 1.4h-28.8a.7.7 0 0 1 0-1.4zM399.85 579.465h2.4a.7.7 0 0 1 0 1.4h-2.4a.7.7 0 0 1 0-1.4zM407.05 579.465h28.8a.7.7 0 1 1 0 1.4h-28.8a.7.7 0 0 1 0-1.4z"/><path d="M443.735 574.118l.001.008v.009a.741.741 0 0 0 .014.083v45.547a.7.7 0 0 1-.7.7h-6.5v6.5a.7.7 0 0 1-.7.7h-50.4a.7.7 0 0 1-.7-.7v-64.8a.7.7 0 0 1 .7-.7h6.5v-4.1a.7.7 0 0 1 .7-.7h33.556l.031.005a.707.707 0 0 1 .229.039l.038.013.025.008.01.003a.705.705 0 0 1 .203.139l.001.001 16.794 16.794.002.002a.717.717 0 0 1 .138.202l.003.009.007.024.013.04.001.002a.625.625 0 0 1 .034.172zm-15.931-14.21l-.854-.853v14.41h14.41l-.853-.854-12.703-12.703zm6.846 66.357h.5v-5.8h-42.5a.7.7 0 0 1-.7-.7v-56.9h-5.8v63.4h48.5zm7.2-7.2h.5v-44.2h-16.1a.7.7 0 0 1-.7-.7v-16.1h-32.2v61h48.5z"/><path d="M405.85 574.665h.5v-5.8h-5.8v5.8h5.3zm-6-7.2h7.2a.7.7 0 0 1 .7.7v7.2a.7.7 0 0 1-.7.7h-7.2a.7.7 0 0 1-.7-.7v-7.2a.7.7 0 0 1 .7-.7zM262.1 608.265h2.4a.7.7 0 0 1 0 1.4h-2.4a.7.7 0 0 1 0-1.4zM269.3 608.265h28.8a.7.7 0 1 1 0 1.4h-28.8a.7.7 0 0 1 0-1.4zM262.1 601.065h2.4a.7.7 0 0 1 0 1.4h-2.4a.7.7 0 1 1 0-1.4zM269.3 601.065h28.8a.7.7 0 0 1 0 1.4h-28.8a.7.7 0 0 1 0-1.4zM262.1 593.865h2.4a.7.7 0 0 1 0 1.4h-2.4a.7.7 0 1 1 0-1.4zM269.3 593.865h28.8a.7.7 0 0 1 0 1.4h-28.8a.7.7 0 0 1 0-1.4zM262.1 586.665h2.4a.7.7 0 0 1 0 1.4h-2.4a.7.7 0 1 1 0-1.4zM269.3 586.665h28.8a.7.7 0 1 1 0 1.4h-28.8a.7.7 0 0 1 0-1.4zM262.1 579.465h2.4a.7.7 0 0 1 0 1.4h-2.4a.7.7 0 0 1 0-1.4zM269.3 579.465h28.8a.7.7 0 1 1 0 1.4h-28.8a.7.7 0 0 1 0-1.4z"/><path d="M305.985 574.118l.001.008v.009a.741.741 0 0 0 .014.083v45.547a.7.7 0 0 1-.7.7h-6.5v6.5a.7.7 0 0 1-.7.7h-50.4a.7.7 0 0 1-.7-.7v-64.8a.7.7 0 0 1 .7-.7h6.5v-4.1a.7.7 0 0 1 .7-.7h33.556l.031.005a.707.707 0 0 1 .229.039l.038.013.025.008.01.003a.705.705 0 0 1 .203.139l.001.001 16.794 16.794.002.002a.717.717 0 0 1 .138.202l.003.009.007.024.013.04.001.002a.625.625 0 0 1 .034.172zm-15.931-14.21l-.854-.853v14.41h14.41l-.853-.854-12.703-12.703zm6.846 66.357h.5v-5.8h-42.5a.7.7 0 0 1-.7-.7v-56.9h-5.8v63.4h48.5zm7.2-7.2h.5v-44.2h-16.1a.7.7 0 0 1-.7-.7v-16.1h-32.2v61h48.5z"/><path d="M268.1 574.665h.5v-5.8h-5.8v5.8h5.3zm-6-7.2h7.2a.7.7 0 0 1 .7.7v7.2a.7.7 0 0 1-.7.7h-7.2a.7.7 0 0 1-.7-.7v-7.2a.7.7 0 0 1 .7-.7zM124.35 608.265h2.4a.7.7 0 0 1 0 1.4h-2.4a.7.7 0 0 1 0-1.4zM131.55 608.265h28.8a.7.7 0 1 1 0 1.4h-28.8a.7.7 0 0 1 0-1.4zM124.35 601.065h2.4a.7.7 0 0 1 0 1.4h-2.4a.7.7 0 1 1 0-1.4zM131.55 601.065h28.8a.7.7 0 0 1 0 1.4h-28.8a.7.7 0 0 1 0-1.4zM124.35 593.865h2.4a.7.7 0 0 1 0 1.4h-2.4a.7.7 0 1 1 0-1.4zM131.55 593.865h28.8a.7.7 0 0 1 0 1.4h-28.8a.7.7 0 0 1 0-1.4zM124.35 586.665h2.4a.7.7 0 0 1 0 1.4h-2.4a.7.7 0 1 1 0-1.4zM131.55 586.665h28.8a.7.7 0 1 1 0 1.4h-28.8a.7.7 0 0 1 0-1.4zM124.35 579.465h2.4a.7.7 0 0 1 0 1.4h-2.4a.7.7 0 0 1 0-1.4zM131.55 579.465h28.8a.7.7 0 1 1 0 1.4h-28.8a.7.7 0 0 1 0-1.4z"/><path d="M168.235 574.118l.001.008v.009a.741.741 0 0 0 .014.083v45.547a.7.7 0 0 1-.7.7h-6.5v6.5a.7.7 0 0 1-.7.7h-50.4a.7.7 0 0 1-.7-.7v-64.8a.7.7 0 0 1 .7-.7h6.5v-4.1a.7.7 0 0 1 .7-.7h33.556l.031.005a.707.707 0 0 1 .229.039l.038.013.025.008a.705.705 0 0 1 .213.142l.001.001 16.794 16.794.002.002a.717.717 0 0 1 .138.202l.003.009.007.024.013.04.001.002a.625.625 0 0 1 .034.172zm-15.931-14.21l-.854-.853v14.41h14.41l-.853-.854-12.703-12.703zm6.846 66.357h.5v-5.8h-42.5a.7.7 0 0 1-.7-.7v-56.9h-5.8v63.4h48.5zm7.2-7.2h.5v-44.2h-16.1a.7.7 0 0 1-.7-.7v-16.1h-32.2v61h48.5z"/><path d="M130.35 574.665h.5v-5.8h-5.8v5.8h5.3zm-6-7.2h7.2a.7.7 0 0 1 .7.7v7.2a.7.7 0 0 1-.7.7h-7.2a.7.7 0 0 1-.7-.7v-7.2a.7.7 0 0 1 .7-.7zM-6.2 608.265h28.8a.7.7 0 1 1 0 1.4H-6.2a.7.7 0 0 1 0-1.4zM-6.2 601.065h28.8a.7.7 0 0 1 0 1.4H-6.2a.7.7 0 1 1 0-1.4zM-6.2 593.865h28.8a.7.7 0 0 1 0 1.4H-6.2a.7.7 0 1 1 0-1.4zM-6.2 586.665h28.8a.7.7 0 1 1 0 1.4H-6.2a.7.7 0 1 1 0-1.4zM-6.2 579.465h28.8a.7.7 0 1 1 0 1.4H-6.2a.7.7 0 0 1 0-1.4z"/><path d="M30.485 574.118v.008l.002.009a.588.588 0 0 0 .013.083v45.547a.7.7 0 0 1-.7.7h-6.5v6.5a.7.7 0 0 1-.7.7h-50.4a.7.7 0 0 1-.7-.7v-64.8a.7.7 0 0 1 .7-.7h6.5v-4.1a.7.7 0 0 1 .7-.7h33.556l.031.005a.715.715 0 0 1 .23.039l.037.013.025.008a.702.702 0 0 1 .213.142v.001l16.795 16.794.002.002a.7.7 0 0 1 .138.202l.003.009.007.024.013.04.001.002a.63.63 0 0 1 .034.172zm-15.931-14.21l-.854-.853v14.41h14.41l-.853-.854-12.703-12.703zm6.846 66.357h.5v-5.8h-42.5a.7.7 0 0 1-.7-.7v-56.9h-5.8v63.4h48.5zm7.2-7.2h.5v-44.2H13a.7.7 0 0 1-.7-.7v-16.1h-32.2v61h48.5zM1025.6 721.098h2.4c.39 0 .7.313.7.7 0 .386-.31.7-.7.7h-2.4c-.39 0-.7-.314-.7-.7 0-.387.31-.7.7-.7zM1032.8 721.098h28.8c.39 0 .7.313.7.7 0 .386-.31.7-.7.7h-28.8c-.39 0-.7-.314-.7-.7 0-.387.31-.7.7-.7zM1025.6 713.898h2.4c.39 0 .7.314.7.7 0 .387-.31.7-.7.7h-2.4c-.39 0-.7-.313-.7-.7 0-.386.31-.7.7-.7zM1032.8 713.898h28.8c.39 0 .7.314.7.7 0 .387-.31.7-.7.7h-28.8c-.39 0-.7-.313-.7-.7 0-.386.31-.7.7-.7zM1025.6 706.698h2.4c.39 0 .7.314.7.7 0 .387-.31.7-.7.7h-2.4c-.39 0-.7-.313-.7-.7 0-.386.31-.7.7-.7zM1032.8 706.698h28.8c.39 0 .7.314.7.7 0 .387-.31.7-.7.7h-28.8c-.39 0-.7-.313-.7-.7 0-.386.31-.7.7-.7zM1025.6 699.498h2.4c.39 0 .7.313.7.7 0 .387-.31.7-.7.7h-2.4c-.39 0-.7-.313-.7-.7 0-.387.31-.7.7-.7zM1032.8 699.498h28.8c.39 0 .7.313.7.7 0 .387-.31.7-.7.7h-28.8c-.39 0-.7-.313-.7-.7 0-.387.31-.7.7-.7zM1025.6 692.298h2.4c.39 0 .7.313.7.7 0 .386-.31.7-.7.7h-2.4c-.39 0-.7-.314-.7-.7 0-.387.31-.7.7-.7zM1032.8 692.298h28.8c.39 0 .7.313.7.7 0 .386-.31.7-.7.7h-28.8c-.39 0-.7-.314-.7-.7 0-.387.31-.7.7-.7z"/><path d="M1069.48 686.951l.01.008v.009c0 .034 0 .062.01.083v45.547c0 .387-.31.7-.7.7h-6.5v6.5c0 .387-.31.7-.7.7h-50.4c-.39 0-.7-.313-.7-.7v-64.8c0-.387.31-.7.7-.7h6.5v-4.1c0-.387.31-.7.7-.7h33.56a.439.439 0 0 0 .1.01c.05.005.1.017.16.034.01.005.02.01.03.013l.03.008c0 .002.01.003.01.004.07.033.14.08.2.138v.001l16.8 16.794v.002c.06.059.1.127.14.202v.009l.01.024c0 .011 0 .024.01.04v.002c.02.055.03.113.03.172zm-15.93-14.21l-.85-.853v14.41h14.41l-.85-.854-12.71-12.703zm6.85 66.357h.5v-5.8h-42.5c-.39 0-.7-.313-.7-.7v-56.9h-5.8v63.4h48.5zm7.2-7.2h.5v-44.2H1052c-.39 0-.7-.313-.7-.7v-16.1h-32.2v61h48.5z"/><path d="M1031.6 687.498h.5v-5.8h-5.8v5.8h5.3zm-6-7.2h7.2c.39 0 .7.313.7.7v7.2c0 .386-.31.7-.7.7h-7.2c-.39 0-.7-.314-.7-.7v-7.2c0-.387.31-.7.7-.7zM886.171 721.098h2.4a.7.7 0 1 1 0 1.4h-2.4a.7.7 0 0 1 0-1.4zM893.371 721.098h28.8a.7.7 0 1 1 0 1.4h-28.8a.7.7 0 0 1 0-1.4zM886.171 713.898h2.4a.7.7 0 0 1 0 1.4h-2.4a.7.7 0 0 1 0-1.4zM893.371 713.898h28.8a.7.7 0 0 1 0 1.4h-28.8a.7.7 0 0 1 0-1.4zM886.171 706.698h2.4a.7.7 0 0 1 0 1.4h-2.4a.7.7 0 0 1 0-1.4zM893.371 706.698h28.8a.7.7 0 0 1 0 1.4h-28.8a.7.7 0 0 1 0-1.4zM886.171 699.498h2.4a.7.7 0 1 1 0 1.4h-2.4a.7.7 0 0 1 0-1.4zM893.371 699.498h28.8a.7.7 0 1 1 0 1.4h-28.8a.7.7 0 0 1 0-1.4zM886.171 692.298h2.4a.7.7 0 1 1 0 1.4h-2.4a.7.7 0 0 1 0-1.4zM893.371 692.298h28.8a.7.7 0 1 1 0 1.4h-28.8a.7.7 0 0 1 0-1.4z"/><path d="M930.057 686.951v.008l.001.009a.583.583 0 0 0 .013.083v45.547a.7.7 0 0 1-.7.7h-6.5v6.5a.7.7 0 0 1-.7.7h-50.4a.7.7 0 0 1-.7-.7v-64.8a.7.7 0 0 1 .7-.7h6.5v-4.1a.7.7 0 0 1 .7-.7h33.556l.031.005a.707.707 0 0 1 .229.039l.038.013.026.008.009.004c.075.033.144.08.203.138l.001.001 16.794 16.794.002.002a.697.697 0 0 1 .138.202l.003.009.008.024a.447.447 0 0 0 .013.04v.002c.02.055.031.113.035.172zm-15.932-14.21l-.854-.853v14.41h14.411l-.854-.854-12.703-12.703zm6.846 66.357h.5v-5.8h-42.5a.7.7 0 0 1-.7-.7v-56.9h-5.8v63.4h48.5zm7.2-7.2h.5v-44.2h-16.1a.7.7 0 0 1-.7-.7v-16.1h-32.2v61h48.5z"/><path d="M892.171 687.498h.5v-5.8h-5.8v5.8h5.3zm-6-7.2h7.2a.7.7 0 0 1 .7.7v7.2a.7.7 0 0 1-.7.7h-7.2a.7.7 0 0 1-.7-.7v-7.2a.7.7 0 0 1 .7-.7zM746.743 721.098h2.4a.7.7 0 0 1 0 1.4h-2.4a.7.7 0 0 1 0-1.4zM753.943 721.098h28.8a.7.7 0 0 1 0 1.4h-28.8a.7.7 0 0 1 0-1.4zM746.743 713.898h2.4a.7.7 0 0 1 0 1.4h-2.4a.7.7 0 1 1 0-1.4zM753.943 713.898h28.8a.7.7 0 0 1 0 1.4h-28.8a.7.7 0 1 1 0-1.4zM746.743 706.698h2.4a.7.7 0 0 1 0 1.4h-2.4a.7.7 0 1 1 0-1.4zM753.943 706.698h28.8a.7.7 0 0 1 0 1.4h-28.8a.7.7 0 1 1 0-1.4zM746.743 699.498h2.4a.7.7 0 0 1 0 1.4h-2.4a.7.7 0 1 1 0-1.4zM753.943 699.498h28.8a.7.7 0 0 1 0 1.4h-28.8a.7.7 0 1 1 0-1.4zM746.743 692.298h2.4a.7.7 0 0 1 0 1.4h-2.4a.7.7 0 0 1 0-1.4zM753.943 692.298h28.8a.7.7 0 0 1 0 1.4h-28.8a.7.7 0 0 1 0-1.4z"/><path d="M790.628 686.951l.001.008v.009a.565.565 0 0 0 .014.083v45.547a.7.7 0 0 1-.7.7h-6.5v6.5a.7.7 0 0 1-.7.7h-50.4a.7.7 0 0 1-.7-.7v-64.8a.7.7 0 0 1 .7-.7h6.5v-4.1a.7.7 0 0 1 .7-.7h33.555a.443.443 0 0 0 .103.01.719.719 0 0 1 .158.034l.038.013.025.008.01.004a.682.682 0 0 1 .204.139L790.43 686.5l.001.002a.7.7 0 0 1 .139.202l.002.009.008.024.013.04.001.002a.625.625 0 0 1 .034.172zm-15.932-14.21l-.853-.853v14.41h14.41l-.853-.854-12.704-12.703zm6.847 66.357h.5v-5.8h-42.5a.7.7 0 0 1-.7-.7v-56.9h-5.8v63.4h48.5zm7.2-7.2h.5v-44.2h-16.1a.7.7 0 0 1-.7-.7v-16.1h-32.2v61h48.5z"/><path d="M752.743 687.498h.5v-5.8h-5.8v5.8h5.3zm-6-7.2h7.2a.7.7 0 0 1 .7.7v7.2a.7.7 0 0 1-.7.7h-7.2a.7.7 0 0 1-.7-.7v-7.2a.7.7 0 0 1 .7-.7zM607.314 721.098h2.4a.7.7 0 1 1 0 1.4h-2.4a.7.7 0 0 1 0-1.4zM614.514 721.098h28.8a.7.7 0 1 1 0 1.4h-28.8a.7.7 0 0 1 0-1.4zM607.314 713.898h2.4a.7.7 0 0 1 0 1.4h-2.4a.7.7 0 0 1 0-1.4zM614.514 713.898h28.8a.7.7 0 0 1 0 1.4h-28.8a.7.7 0 0 1 0-1.4zM607.314 706.698h2.4a.7.7 0 0 1 0 1.4h-2.4a.7.7 0 0 1 0-1.4zM614.514 706.698h28.8a.7.7 0 0 1 0 1.4h-28.8a.7.7 0 0 1 0-1.4zM607.314 699.498h2.4a.7.7 0 1 1 0 1.4h-2.4a.7.7 0 0 1 0-1.4zM614.514 699.498h28.8a.7.7 0 1 1 0 1.4h-28.8a.7.7 0 0 1 0-1.4zM607.314 692.298h2.4a.7.7 0 1 1 0 1.4h-2.4a.7.7 0 0 1 0-1.4zM614.514 692.298h28.8a.7.7 0 1 1 0 1.4h-28.8a.7.7 0 0 1 0-1.4z"/><path d="M651.2 686.951v.008l.001.009a.583.583 0 0 0 .013.083v45.547a.7.7 0 0 1-.7.7h-6.5v6.5a.7.7 0 0 1-.7.7h-50.4a.7.7 0 0 1-.7-.7v-64.8a.7.7 0 0 1 .7-.7h6.5v-4.1a.7.7 0 0 1 .7-.7h33.556l.031.005a.707.707 0 0 1 .229.039l.038.013.026.008.009.004a.682.682 0 0 1 .204.139l16.795 16.794.001.002a.697.697 0 0 1 .138.202l.003.009.008.024.013.04v.002c.02.055.031.113.035.172zm-15.932-14.21l-.854-.853v14.41H648.825l-.854-.854-12.703-12.703zm6.846 66.357h.5v-5.8h-42.5a.7.7 0 0 1-.7-.7v-56.9h-5.8v63.4h48.5zm7.2-7.2h.5v-44.2h-16.1a.7.7 0 0 1-.7-.7v-16.1h-32.2v61h48.5z"/><path d="M613.314 687.498h.5v-5.8h-5.8v5.8h5.3zm-6-7.2h7.2a.7.7 0 0 1 .7.7v7.2a.7.7 0 0 1-.7.7h-7.2a.7.7 0 0 1-.7-.7v-7.2a.7.7 0 0 1 .7-.7zM467.886 721.098h2.4a.7.7 0 0 1 0 1.4h-2.4a.7.7 0 0 1 0-1.4zM475.086 721.098h28.8a.7.7 0 0 1 0 1.4h-28.8a.7.7 0 0 1 0-1.4zM467.886 713.898h2.4a.7.7 0 0 1 0 1.4h-2.4a.7.7 0 1 1 0-1.4zM475.086 713.898h28.8a.7.7 0 0 1 0 1.4h-28.8a.7.7 0 1 1 0-1.4zM467.886 706.698h2.4a.7.7 0 0 1 0 1.4h-2.4a.7.7 0 1 1 0-1.4zM475.086 706.698h28.8a.7.7 0 0 1 0 1.4h-28.8a.7.7 0 1 1 0-1.4zM467.886 699.498h2.4a.7.7 0 0 1 0 1.4h-2.4a.7.7 0 1 1 0-1.4zM475.086 699.498h28.8a.7.7 0 0 1 0 1.4h-28.8a.7.7 0 1 1 0-1.4zM467.886 692.298h2.4a.7.7 0 0 1 0 1.4h-2.4a.7.7 0 0 1 0-1.4zM475.086 692.298h28.8a.7.7 0 0 1 0 1.4h-28.8a.7.7 0 0 1 0-1.4z"/><path d="M511.771 686.951v.008l.001.009a.565.565 0 0 0 .014.083v45.547a.7.7 0 0 1-.7.7h-6.5v6.5a.7.7 0 0 1-.7.7h-50.4a.7.7 0 0 1-.7-.7v-64.8a.7.7 0 0 1 .7-.7h6.5v-4.1a.7.7 0 0 1 .7-.7h33.555a.439.439 0 0 0 .102.01.727.727 0 0 1 .159.034l.038.013.025.008.009.004a.67.67 0 0 1 .203.138l.002.001 16.794 16.794.001.002a.678.678 0 0 1 .141.211l.008.024.013.04.001.002c.019.055.03.113.034.172zm-15.932-14.21l-.853-.853v14.41h14.41l-.854-.854-12.703-12.703zm6.847 66.357h.5v-5.8h-42.5a.7.7 0 0 1-.7-.7v-56.9h-5.8v63.4h48.5zm7.2-7.2h.5v-44.2h-16.1a.7.7 0 0 1-.7-.7v-16.1h-32.2v61h48.5z"/><path d="M473.886 687.498h.5v-5.8h-5.8v5.8h5.3zm-6-7.2h7.2a.7.7 0 0 1 .7.7v7.2a.7.7 0 0 1-.7.7h-7.2a.7.7 0 0 1-.7-.7v-7.2a.7.7 0 0 1 .7-.7zM328.457 721.098h2.4a.7.7 0 1 1 0 1.4h-2.4a.7.7 0 0 1 0-1.4zM335.657 721.098h28.8a.7.7 0 1 1 0 1.4h-28.8a.7.7 0 0 1 0-1.4zM328.457 713.898h2.4a.7.7 0 0 1 0 1.4h-2.4a.7.7 0 0 1 0-1.4zM335.657 713.898h28.8a.7.7 0 0 1 0 1.4h-28.8a.7.7 0 0 1 0-1.4zM328.457 706.698h2.4a.7.7 0 0 1 0 1.4h-2.4a.7.7 0 0 1 0-1.4zM335.657 706.698h28.8a.7.7 0 0 1 0 1.4h-28.8a.7.7 0 0 1 0-1.4zM328.457 699.498h2.4a.7.7 0 1 1 0 1.4h-2.4a.7.7 0 0 1 0-1.4zM335.657 699.498h28.8a.7.7 0 1 1 0 1.4h-28.8a.7.7 0 0 1 0-1.4zM328.457 692.298h2.4a.7.7 0 1 1 0 1.4h-2.4a.7.7 0 0 1 0-1.4zM335.657 692.298h28.8a.7.7 0 1 1 0 1.4h-28.8a.7.7 0 0 1 0-1.4z"/><path d="M372.342 686.951l.001.008.001.009a.583.583 0 0 0 .013.083v45.547a.7.7 0 0 1-.7.7h-6.5v6.5a.7.7 0 0 1-.7.7h-50.4a.7.7 0 0 1-.7-.7v-64.8a.7.7 0 0 1 .7-.7h6.5v-4.1a.7.7 0 0 1 .7-.7h33.556l.031.005a.707.707 0 0 1 .229.039l.038.013.025.008.01.004c.075.033.144.08.203.138l.001.001 16.794 16.794.002.002a.717.717 0 0 1 .138.202l.003.009.008.024a.447.447 0 0 0 .013.04v.002a.59.59 0 0 1 .034.172zm-15.931-14.21l-.854-.853v14.41h14.41l-.853-.854-12.703-12.703zm6.846 66.357h.5v-5.8h-42.5a.7.7 0 0 1-.7-.7v-56.9h-5.8v63.4h48.5zm7.2-7.2h.5v-44.2h-16.1a.7.7 0 0 1-.7-.7v-16.1h-32.2v61h48.5z"/><path d="M334.457 687.498h.5v-5.8h-5.8v5.8h5.3zm-6-7.2h7.2a.7.7 0 0 1 .7.7v7.2a.7.7 0 0 1-.7.7h-7.2a.7.7 0 0 1-.7-.7v-7.2a.7.7 0 0 1 .7-.7zM189.029 721.098h2.4a.7.7 0 0 1 0 1.4h-2.4a.7.7 0 0 1 0-1.4zM196.229 721.098h28.8a.7.7 0 0 1 0 1.4h-28.8a.7.7 0 0 1 0-1.4zM189.029 713.898h2.4a.7.7 0 0 1 0 1.4h-2.4a.7.7 0 1 1 0-1.4zM196.229 713.898h28.8a.7.7 0 0 1 0 1.4h-28.8a.7.7 0 1 1 0-1.4zM189.029 706.698h2.4a.7.7 0 0 1 0 1.4h-2.4a.7.7 0 1 1 0-1.4zM196.229 706.698h28.8a.7.7 0 0 1 0 1.4h-28.8a.7.7 0 1 1 0-1.4zM189.029 699.498h2.4a.7.7 0 0 1 0 1.4h-2.4a.7.7 0 1 1 0-1.4zM196.229 699.498h28.8a.7.7 0 0 1 0 1.4h-28.8a.7.7 0 1 1 0-1.4zM189.029 692.298h2.4a.7.7 0 0 1 0 1.4h-2.4a.7.7 0 0 1 0-1.4zM196.229 692.298h28.8a.7.7 0 0 1 0 1.4h-28.8a.7.7 0 0 1 0-1.4z"/><path d="M232.914 686.951v.008l.001.009a.565.565 0 0 0 .014.083v45.547a.7.7 0 0 1-.7.7h-6.5v6.5a.7.7 0 0 1-.7.7h-50.4a.7.7 0 0 1-.7-.7v-64.8a.7.7 0 0 1 .7-.7h6.5v-4.1a.7.7 0 0 1 .7-.7h33.555l.032.005a.715.715 0 0 1 .267.052l.025.008.01.004c.075.033.143.08.202.138l.002.001 16.794 16.794.001.002a.678.678 0 0 1 .138.202l.003.009.008.024.013.04.001.002a.625.625 0 0 1 .034.172zm-15.932-14.21l-.853-.853v14.41h14.41l-.854-.854-12.703-12.703zm6.847 66.357h.5v-5.8h-42.5a.7.7 0 0 1-.7-.7v-56.9h-5.8v63.4h48.5zm7.2-7.2h.5v-44.2h-16.1a.7.7 0 0 1-.7-.7v-16.1h-32.2v61h48.5z"/><path d="M195.029 687.498h.5v-5.8h-5.8v5.8h5.3zm-6-7.2h7.2a.7.7 0 0 1 .7.7v7.2a.7.7 0 0 1-.7.7h-7.2a.7.7 0 0 1-.7-.7v-7.2a.7.7 0 0 1 .7-.7zM49.6 721.098H52a.7.7 0 1 1 0 1.4h-2.4a.7.7 0 0 1 0-1.4zM56.8 721.098h28.8a.7.7 0 1 1 0 1.4H56.8a.7.7 0 0 1 0-1.4zM49.6 713.898H52a.7.7 0 0 1 0 1.4h-2.4a.7.7 0 1 1 0-1.4zM56.8 713.898h28.8a.7.7 0 0 1 0 1.4H56.8a.7.7 0 1 1 0-1.4zM49.6 706.698H52a.7.7 0 0 1 0 1.4h-2.4a.7.7 0 1 1 0-1.4zM56.8 706.698h28.8a.7.7 0 0 1 0 1.4H56.8a.7.7 0 1 1 0-1.4zM49.6 699.498H52a.7.7 0 1 1 0 1.4h-2.4a.7.7 0 1 1 0-1.4zM56.8 699.498h28.8a.7.7 0 1 1 0 1.4H56.8a.7.7 0 1 1 0-1.4zM49.6 692.298H52a.7.7 0 1 1 0 1.4h-2.4a.7.7 0 0 1 0-1.4zM56.8 692.298h28.8a.7.7 0 1 1 0 1.4H56.8a.7.7 0 0 1 0-1.4z"/><path d="M93.485 686.951v.008l.002.009a.588.588 0 0 0 .013.083v45.547a.7.7 0 0 1-.7.7h-6.5v6.5a.7.7 0 0 1-.7.7H35.2a.7.7 0 0 1-.7-.7v-64.8a.7.7 0 0 1 .7-.7h6.5v-4.1a.7.7 0 0 1 .7-.7h33.556l.031.005a.715.715 0 0 1 .23.039l.037.013.025.008.01.004a.68.68 0 0 1 .203.138v.001L93.288 686.5l.002.002a.7.7 0 0 1 .138.202l.003.009.007.024.013.04.001.002a.63.63 0 0 1 .034.172zm-15.931-14.21l-.854-.853v14.41h14.41l-.853-.854-12.703-12.703zm6.846 66.357h.5v-5.8H42.4a.7.7 0 0 1-.7-.7v-56.9h-5.8v63.4h48.5zm7.2-7.2h.5v-44.2H76a.7.7 0 0 1-.7-.7v-16.1H43.1v61h48.5z"/><path d="M55.6 687.498h.5v-5.8h-5.8v5.8h5.3zm-6-7.2h7.2a.7.7 0 0 1 .7.7v7.2a.7.7 0 0 1-.7.7h-7.2a.7.7 0 0 1-.7-.7v-7.2a.7.7 0 0 1 .7-.7z"/></g></g></svg>