<svg width="1104" height="731" fill="none" xmlns="http://www.w3.org/2000/svg"><g opacity=".4" clip-path="url(#clip0)" fill="#EB3333"><path d="M426.227 154.632c1.213 1.616 2.83 3.233 4.448 4.85 7.683 7.276 16.985 12.126 27.903 14.552v-6.468c-8.896-2.021-16.984-6.467-23.05-12.53-2.022-2.021-4.044-4.042-5.662-6.468l-3.639 6.064z"/><path d="M402.772 147.76c6.874-6.871 11.323-15.764 11.323-25.869V94h6.47v27.891c0 4.85.809 10.913 2.426 15.36 1.618-4.447 2.427-10.106 2.427-15.36V94h6.47v27.891c0 10.105 4.449 19.402 11.323 25.869 4.044 4.042 9.301 6.872 14.963 8.893v6.467c-7.684-2.021-14.154-6.063-19.815-10.913-4.044-4.043-7.28-8.489-9.706-13.339-1.618 4.446-3.64 8.488-6.066 11.722-2.426-3.234-4.448-7.276-6.066-11.722-2.426 5.254-5.662 9.701-9.706 13.339-5.257 5.254-12.131 8.892-19.815 10.913v-6.467c6.47-1.617 11.728-4.851 15.772-8.893z"/><path d="M442.403 121.486c0 7.276 3.235 14.147 8.492 18.998 2.022 2.021 4.853 4.042 7.684 5.255v6.871c-4.853-1.617-8.897-4.446-12.132-7.68-6.471-6.063-10.11-14.147-10.11-23.444v-6.467h6.47v6.467h-.404zM403.58 115.019h6.471v6.467c0 9.297-4.044 17.381-10.11 23.444-3.64 3.234-7.684 6.063-12.132 7.68v-6.871c2.831-1.213 5.257-3.234 7.683-5.255 5.258-4.851 8.493-11.722 8.493-18.998v-6.467h-.405zM416.521 148.568c-1.617 2.426-3.639 4.447-5.661 6.468-6.471 6.063-14.154 10.509-23.051 12.53v6.468c10.919-2.021 20.22-7.276 27.903-14.552 1.618-1.617 3.235-3.234 4.449-4.85l-3.64-6.064zM488.227 266.632c1.213 1.616 2.83 3.233 4.448 4.85 7.683 7.276 16.985 12.126 27.903 14.552v-6.468c-8.896-2.021-16.984-6.467-23.05-12.53-2.022-2.021-4.044-4.042-5.662-6.468l-3.639 6.064z"/><path d="M464.772 259.76c6.874-6.871 11.323-15.764 11.323-25.869V206h6.47v27.891c0 4.85.809 10.913 2.426 15.36 1.618-4.447 2.427-10.106 2.427-15.36V206h6.47v27.891c0 10.105 4.449 19.402 11.323 25.869 4.044 4.042 9.301 6.872 14.963 8.893v6.467c-7.684-2.021-14.154-6.063-19.815-10.913-4.044-4.043-7.28-8.489-9.706-13.339-1.618 4.446-3.64 8.488-6.066 11.722-2.426-3.234-4.448-7.276-6.066-11.722-2.426 5.254-5.662 9.701-9.706 13.339-5.257 5.254-12.131 8.892-19.815 10.913v-6.467c6.47-1.617 11.728-4.851 15.772-8.893z"/><path d="M504.403 233.486c0 7.276 3.235 14.147 8.492 18.998 2.022 2.021 4.853 4.042 7.684 5.255v6.871c-4.853-1.617-8.897-4.446-12.132-7.68-6.471-6.063-10.11-14.147-10.11-23.444v-6.467h6.47v6.467h-.404zM465.58 227.019h6.471v6.467c0 9.297-4.044 17.381-10.11 23.444-3.64 3.234-7.684 6.063-12.132 7.68v-6.871c2.831-1.213 5.257-3.234 7.683-5.255 5.258-4.851 8.493-11.722 8.493-18.998v-6.467h-.405zM478.521 260.568c-1.617 2.426-3.639 4.447-5.661 6.468-6.471 6.063-14.154 10.509-23.051 12.53v6.468c10.919-2.021 20.22-7.276 27.903-14.552 1.618-1.617 3.235-3.234 4.449-4.85l-3.64-6.064zM1097.23 597.632c1.21 1.616 2.83 3.233 4.44 4.85 7.69 7.276 16.99 12.126 27.91 14.552v-6.468c-8.9-2.021-16.99-6.467-23.05-12.53-2.02-2.021-4.05-4.042-5.66-6.468l-3.64 6.064z"/><path d="M1073.77 590.76c6.88-6.871 11.32-15.764 11.32-25.869V537h6.48v27.891c0 4.85.8 10.913 2.42 15.36 1.62-4.447 2.43-10.106 2.43-15.36V537h6.47v27.891c0 10.105 4.45 19.402 11.32 25.869 4.05 4.042 9.3 6.872 14.96 8.893v6.467c-7.68-2.021-14.15-6.063-19.81-10.913-4.05-4.043-7.28-8.489-9.71-13.339-1.61 4.446-3.64 8.488-6.06 11.722-2.43-3.234-4.45-7.276-6.07-11.722-2.43 5.254-5.66 9.701-9.7 13.339-5.26 5.254-12.14 8.892-19.82 10.913v-6.467c6.47-1.617 11.73-4.851 15.77-8.893z"/><path d="M1074.58 558.019h6.47v6.467c0 9.297-4.04 17.381-10.11 23.444-3.64 3.234-7.68 6.063-12.13 7.68v-6.871c2.83-1.213 5.26-3.234 7.68-5.255 5.26-4.851 8.49-11.722 8.49-18.998v-6.467h-.4zM1087.52 591.568c-1.62 2.426-3.64 4.447-5.66 6.468-6.47 6.063-14.15 10.509-23.05 12.53v6.468c10.92-2.021 20.22-7.276 27.9-14.552 1.62-1.617 3.24-3.234 4.45-4.85l-3.64-6.064zM427.227 378.632c1.213 1.616 2.83 3.233 4.448 4.85 7.683 7.276 16.985 12.126 27.903 14.552v-6.468c-8.896-2.021-16.984-6.467-23.05-12.53-2.022-2.021-4.044-4.042-5.662-6.468l-3.639 6.064z"/><path d="M403.772 371.76c6.874-6.871 11.323-15.764 11.323-25.869V318h6.47v27.891c0 4.85.809 10.913 2.426 15.36 1.618-4.447 2.427-10.106 2.427-15.36V318h6.47v27.891c0 10.105 4.449 19.402 11.323 25.869 4.044 4.042 9.301 6.872 14.963 8.893v6.467c-7.684-2.021-14.154-6.063-19.815-10.913-4.044-4.043-7.28-8.489-9.706-13.339-1.618 4.446-3.64 8.488-6.066 11.722-2.426-3.234-4.448-7.276-6.066-11.722-2.426 5.254-5.662 9.701-9.706 13.339-5.257 5.254-12.131 8.892-19.815 10.913v-6.467c6.47-1.617 11.728-4.851 15.772-8.893z"/><path d="M443.403 345.486c0 7.276 3.235 14.147 8.492 18.998 2.022 2.021 4.853 4.042 7.684 5.255v6.871c-4.853-1.617-8.897-4.446-12.132-7.68-6.471-6.063-10.11-14.147-10.11-23.444v-6.467h6.47v6.467h-.404zM404.58 339.019h6.471v6.467c0 9.297-4.044 17.381-10.11 23.444-3.64 3.234-7.684 6.063-12.132 7.68v-6.871c2.831-1.213 5.257-3.234 7.683-5.255 5.258-4.851 8.493-11.722 8.493-18.998v-6.467h-.405zM417.521 372.568c-1.617 2.426-3.639 4.447-5.661 6.468-6.471 6.063-14.154 10.509-23.051 12.53v6.468c10.919-2.021 20.22-7.276 27.903-14.552 1.618-1.617 3.235-3.234 4.449-4.85l-3.64-6.064zM487.227 490.632c1.213 1.616 2.83 3.233 4.448 4.85 7.683 7.276 16.985 12.126 27.903 14.552v-6.468c-8.896-2.021-16.984-6.467-23.05-12.53-2.022-2.021-4.044-4.042-5.662-6.468l-3.639 6.064z"/><path d="M463.772 483.76c6.874-6.871 11.323-15.764 11.323-25.869V430h6.47v27.891c0 4.85.809 10.913 2.426 15.36 1.618-4.447 2.427-10.106 2.427-15.36V430h6.47v27.891c0 10.105 4.449 19.402 11.323 25.869 4.044 4.042 9.301 6.872 14.963 8.893v6.467c-7.684-2.021-14.154-6.063-19.815-10.913-4.044-4.043-7.28-8.489-9.706-13.339-1.618 4.446-3.64 8.488-6.066 11.722-2.426-3.234-4.448-7.276-6.066-11.722-2.426 5.254-5.662 9.701-9.706 13.339-5.257 5.254-12.131 8.892-19.815 10.913v-6.467c6.47-1.617 11.728-4.851 15.772-8.893z"/><path d="M503.403 457.486c0 7.276 3.235 14.147 8.492 18.998 2.022 2.021 4.853 4.042 7.684 5.255v6.871c-4.853-1.617-8.897-4.446-12.132-7.68-6.471-6.063-10.11-14.147-10.11-23.444v-6.467h6.47v6.467h-.404zM464.58 451.019h6.471v6.467c0 9.297-4.044 17.381-10.11 23.444-3.64 3.234-7.684 6.063-12.132 7.68v-6.871c2.831-1.213 5.257-3.234 7.683-5.255 5.258-4.851 8.493-11.722 8.493-18.998v-6.467h-.405zM477.521 484.568c-1.617 2.426-3.639 4.447-5.661 6.468-6.471 6.063-14.154 10.509-23.051 12.53v6.468c10.919-2.021 20.22-7.276 27.903-14.552 1.618-1.617 3.235-3.234 4.449-4.85l-3.64-6.064zM426.227 597.632c1.213 1.616 2.83 3.233 4.448 4.85 7.683 7.276 16.985 12.126 27.903 14.552v-6.468c-8.896-2.021-16.984-6.467-23.05-12.53-2.022-2.021-4.044-4.042-5.662-6.468l-3.639 6.064z"/><path d="M402.772 590.76c6.874-6.871 11.323-15.764 11.323-25.869V537h6.47v27.891c0 4.85.809 10.913 2.426 15.36 1.618-4.447 2.427-10.106 2.427-15.36V537h6.47v27.891c0 10.105 4.449 19.402 11.323 25.869 4.044 4.042 9.301 6.872 14.963 8.893v6.467c-7.684-2.021-14.154-6.063-19.815-10.913-4.044-4.043-7.28-8.489-9.706-13.339-1.618 4.446-3.64 8.488-6.066 11.722-2.426-3.234-4.448-7.276-6.066-11.722-2.426 5.254-5.662 9.701-9.706 13.339-5.257 5.254-12.131 8.892-19.815 10.913v-6.467c6.47-1.617 11.728-4.851 15.772-8.893z"/><path d="M442.403 564.486c0 7.276 3.235 14.147 8.492 18.998 2.022 2.021 4.853 4.042 7.684 5.255v6.871c-4.853-1.617-8.897-4.446-12.132-7.68-6.471-6.063-10.11-14.147-10.11-23.444v-6.467h6.47v6.467h-.404zM403.58 558.019h6.471v6.467c0 9.297-4.044 17.381-10.11 23.444-3.64 3.234-7.684 6.063-12.132 7.68v-6.871c2.831-1.213 5.257-3.234 7.683-5.255 5.258-4.851 8.493-11.722 8.493-18.998v-6.467h-.405zM416.521 591.568c-1.617 2.426-3.639 4.447-5.661 6.468-6.471 6.063-14.154 10.509-23.051 12.53v6.468c10.919-2.021 20.22-7.276 27.903-14.552 1.618-1.617 3.235-3.234 4.449-4.85l-3.64-6.064zM486.227 709.632c1.213 1.616 2.83 3.233 4.448 4.85 7.683 7.276 16.985 12.126 27.903 14.552v-6.468c-8.896-2.021-16.984-6.467-23.05-12.53-2.022-2.021-4.044-4.042-5.662-6.468l-3.639 6.064z"/><path d="M462.772 702.76c6.874-6.871 11.323-15.764 11.323-25.869V649h6.47v27.891c0 4.85.809 10.913 2.426 15.36 1.618-4.447 2.427-10.106 2.427-15.36V649h6.47v27.891c0 10.105 4.449 19.402 11.323 25.869 4.044 4.042 9.301 6.872 14.963 8.893v6.467c-7.684-2.021-14.154-6.063-19.815-10.913-4.044-4.043-7.28-8.489-9.706-13.339-1.618 4.446-3.64 8.488-6.066 11.722-2.426-3.234-4.448-7.276-6.066-11.722-2.426 5.254-5.662 9.701-9.706 13.339-5.257 5.254-12.131 8.892-19.815 10.913v-6.467c6.47-1.617 11.728-4.851 15.772-8.893z"/><path d="M502.403 676.486c0 7.276 3.235 14.147 8.492 18.998 2.022 2.021 4.853 4.042 7.684 5.255v6.871c-4.853-1.617-8.897-4.446-12.132-7.68-6.471-6.063-10.11-14.147-10.11-23.444v-6.467h6.47v6.467h-.404zM463.58 670.019h6.471v6.467c0 9.297-4.044 17.381-10.11 23.444-3.64 3.234-7.684 6.063-12.132 7.68v-6.871c2.831-1.213 5.257-3.234 7.683-5.255 5.258-4.851 8.493-11.722 8.493-18.998v-6.467h-.405zM476.521 703.568c-1.617 2.426-3.639 4.447-5.661 6.468-6.471 6.063-14.154 10.509-23.051 12.53v6.468c10.919-2.021 20.22-7.276 27.903-14.552 1.618-1.617 3.235-3.234 4.449-4.85l-3.64-6.064zM289.227 154.632c1.213 1.616 2.83 3.233 4.448 4.85 7.683 7.276 16.985 12.126 27.903 14.552v-6.468c-8.896-2.021-16.984-6.467-23.05-12.53-2.022-2.021-4.044-4.042-5.662-6.468l-3.639 6.064z"/><path d="M265.772 147.76c6.874-6.871 11.323-15.764 11.323-25.869V94h6.47v27.891c0 4.85.809 10.913 2.426 15.36 1.618-4.447 2.427-10.106 2.427-15.36V94h6.47v27.891c0 10.105 4.449 19.402 11.323 25.869 4.044 4.042 9.301 6.872 14.963 8.893v6.467c-7.684-2.021-14.154-6.063-19.815-10.913-4.044-4.043-7.28-8.489-9.706-13.339-1.618 4.446-3.64 8.488-6.066 11.722-2.426-3.234-4.448-7.276-6.066-11.722-2.426 5.254-5.662 9.701-9.706 13.339-5.257 5.254-12.131 8.892-19.815 10.913v-6.467c6.47-1.617 11.728-4.851 15.772-8.893z"/><path d="M305.403 121.486c0 7.276 3.235 14.147 8.492 18.998 2.022 2.021 4.853 4.042 7.684 5.255v6.871c-4.853-1.617-8.897-4.446-12.132-7.68-6.471-6.063-10.11-14.147-10.11-23.444v-6.467h6.47v6.467h-.404zM266.58 115.019h6.471v6.467c0 9.297-4.044 17.381-10.11 23.444-3.64 3.234-7.684 6.063-12.132 7.68v-6.871c2.831-1.213 5.257-3.234 7.683-5.255 5.258-4.851 8.493-11.722 8.493-18.998v-6.467h-.405zM279.521 148.568c-1.617 2.426-3.639 4.447-5.661 6.468-6.471 6.063-14.154 10.509-23.051 12.53v6.468c10.919-2.021 20.22-7.276 27.903-14.552 1.618-1.617 3.235-3.234 4.449-4.85l-3.64-6.064zM351.227 266.632c1.213 1.616 2.83 3.233 4.448 4.85 7.683 7.276 16.985 12.126 27.903 14.552v-6.468c-8.896-2.021-16.984-6.467-23.05-12.53-2.022-2.021-4.044-4.042-5.662-6.468l-3.639 6.064z"/><path d="M327.772 259.76c6.874-6.871 11.323-15.764 11.323-25.869V206h6.47v27.891c0 4.85.809 10.913 2.426 15.36 1.618-4.447 2.427-10.106 2.427-15.36V206h6.47v27.891c0 10.105 4.449 19.402 11.323 25.869 4.044 4.042 9.301 6.872 14.963 8.893v6.467c-7.684-2.021-14.154-6.063-19.815-10.913-4.044-4.043-7.28-8.489-9.706-13.339-1.618 4.446-3.64 8.488-6.066 11.722-2.426-3.234-4.448-7.276-6.066-11.722-2.426 5.254-5.662 9.701-9.706 13.339-5.257 5.254-12.131 8.892-19.815 10.913v-6.467c6.47-1.617 11.728-4.851 15.772-8.893z"/><path d="M367.403 233.486c0 7.276 3.235 14.147 8.492 18.998 2.022 2.021 4.853 4.042 7.684 5.255v6.871c-4.853-1.617-8.897-4.446-12.132-7.68-6.471-6.063-10.11-14.147-10.11-23.444v-6.467h6.47v6.467h-.404zM328.58 227.019h6.471v6.467c0 9.297-4.044 17.381-10.11 23.444-3.64 3.234-7.684 6.063-12.132 7.68v-6.871c2.831-1.213 5.257-3.234 7.683-5.255 5.258-4.851 8.493-11.722 8.493-18.998v-6.467h-.405zM341.521 260.568c-1.617 2.426-3.639 4.447-5.661 6.468-6.471 6.063-14.154 10.509-23.051 12.53v6.468c10.919-2.021 20.22-7.276 27.903-14.552 1.618-1.617 3.235-3.234 4.449-4.85l-3.64-6.064zM290.227 378.632c1.213 1.616 2.83 3.233 4.448 4.85 7.683 7.276 16.985 12.126 27.903 14.552v-6.468c-8.896-2.021-16.984-6.467-23.05-12.53-2.022-2.021-4.044-4.042-5.662-6.468l-3.639 6.064z"/><path d="M266.772 371.76c6.874-6.871 11.323-15.764 11.323-25.869V318h6.47v27.891c0 4.85.809 10.913 2.426 15.36 1.618-4.447 2.427-10.106 2.427-15.36V318h6.47v27.891c0 10.105 4.449 19.402 11.323 25.869 4.044 4.042 9.301 6.872 14.963 8.893v6.467c-7.684-2.021-14.154-6.063-19.815-10.913-4.044-4.043-7.28-8.489-9.706-13.339-1.618 4.446-3.64 8.488-6.066 11.722-2.426-3.234-4.448-7.276-6.066-11.722-2.426 5.254-5.662 9.701-9.706 13.339-5.257 5.254-12.131 8.892-19.815 10.913v-6.467c6.47-1.617 11.728-4.851 15.772-8.893z"/><path d="M306.403 345.486c0 7.276 3.235 14.147 8.492 18.998 2.022 2.021 4.853 4.042 7.684 5.255v6.871c-4.853-1.617-8.897-4.446-12.132-7.68-6.471-6.063-10.11-14.147-10.11-23.444v-6.467h6.47v6.467h-.404zM267.58 339.019h6.471v6.467c0 9.297-4.044 17.381-10.11 23.444-3.64 3.234-7.684 6.063-12.132 7.68v-6.871c2.831-1.213 5.257-3.234 7.683-5.255 5.258-4.851 8.493-11.722 8.493-18.998v-6.467h-.405zM280.521 372.568c-1.617 2.426-3.639 4.447-5.661 6.468-6.471 6.063-14.154 10.509-23.051 12.53v6.468c10.919-2.021 20.22-7.276 27.903-14.552 1.618-1.617 3.235-3.234 4.449-4.85l-3.64-6.064zM350.227 490.632c1.213 1.616 2.83 3.233 4.448 4.85 7.683 7.276 16.985 12.126 27.903 14.552v-6.468c-8.896-2.021-16.984-6.467-23.05-12.53-2.022-2.021-4.044-4.042-5.662-6.468l-3.639 6.064z"/><path d="M326.772 483.76c6.874-6.871 11.323-15.764 11.323-25.869V430h6.47v27.891c0 4.85.809 10.913 2.426 15.36 1.618-4.447 2.427-10.106 2.427-15.36V430h6.47v27.891c0 10.105 4.449 19.402 11.323 25.869 4.044 4.042 9.301 6.872 14.963 8.893v6.467c-7.684-2.021-14.154-6.063-19.815-10.913-4.044-4.043-7.28-8.489-9.706-13.339-1.618 4.446-3.64 8.488-6.066 11.722-2.426-3.234-4.448-7.276-6.066-11.722-2.426 5.254-5.662 9.701-9.706 13.339-5.257 5.254-12.131 8.892-19.815 10.913v-6.467c6.47-1.617 11.728-4.851 15.772-8.893z"/><path d="M366.403 457.486c0 7.276 3.235 14.147 8.492 18.998 2.022 2.021 4.853 4.042 7.684 5.255v6.871c-4.853-1.617-8.897-4.446-12.132-7.68-6.471-6.063-10.11-14.147-10.11-23.444v-6.467h6.47v6.467h-.404zM327.58 451.019h6.471v6.467c0 9.297-4.044 17.381-10.11 23.444-3.64 3.234-7.684 6.063-12.132 7.68v-6.871c2.831-1.213 5.257-3.234 7.683-5.255 5.258-4.851 8.493-11.722 8.493-18.998v-6.467h-.405zM340.521 484.568c-1.617 2.426-3.639 4.447-5.661 6.468-6.471 6.063-14.154 10.509-23.051 12.53v6.468c10.919-2.021 20.22-7.276 27.903-14.552 1.618-1.617 3.235-3.234 4.449-4.85l-3.64-6.064zM289.227 597.632c1.213 1.616 2.83 3.233 4.448 4.85 7.683 7.276 16.985 12.126 27.903 14.552v-6.468c-8.896-2.021-16.984-6.467-23.05-12.53-2.022-2.021-4.044-4.042-5.662-6.468l-3.639 6.064z"/><path d="M265.772 590.76c6.874-6.871 11.323-15.764 11.323-25.869V537h6.47v27.891c0 4.85.809 10.913 2.426 15.36 1.618-4.447 2.427-10.106 2.427-15.36V537h6.47v27.891c0 10.105 4.449 19.402 11.323 25.869 4.044 4.042 9.301 6.872 14.963 8.893v6.467c-7.684-2.021-14.154-6.063-19.815-10.913-4.044-4.043-7.28-8.489-9.706-13.339-1.618 4.446-3.64 8.488-6.066 11.722-2.426-3.234-4.448-7.276-6.066-11.722-2.426 5.254-5.662 9.701-9.706 13.339-5.257 5.254-12.131 8.892-19.815 10.913v-6.467c6.47-1.617 11.728-4.851 15.772-8.893z"/><path d="M305.403 564.486c0 7.276 3.235 14.147 8.492 18.998 2.022 2.021 4.853 4.042 7.684 5.255v6.871c-4.853-1.617-8.897-4.446-12.132-7.68-6.471-6.063-10.11-14.147-10.11-23.444v-6.467h6.47v6.467h-.404zM266.58 558.019h6.471v6.467c0 9.297-4.044 17.381-10.11 23.444-3.64 3.234-7.684 6.063-12.132 7.68v-6.871c2.831-1.213 5.257-3.234 7.683-5.255 5.258-4.851 8.493-11.722 8.493-18.998v-6.467h-.405zM279.521 591.568c-1.617 2.426-3.639 4.447-5.661 6.468-6.471 6.063-14.154 10.509-23.051 12.53v6.468c10.919-2.021 20.22-7.276 27.903-14.552 1.618-1.617 3.235-3.234 4.449-4.85l-3.64-6.064zM349.227 709.632c1.213 1.616 2.83 3.233 4.448 4.85 7.683 7.276 16.985 12.126 27.903 14.552v-6.468c-8.896-2.021-16.984-6.467-23.05-12.53-2.022-2.021-4.044-4.042-5.662-6.468l-3.639 6.064z"/><path d="M325.772 702.76c6.874-6.871 11.323-15.764 11.323-25.869V649h6.47v27.891c0 4.85.809 10.913 2.426 15.36 1.618-4.447 2.427-10.106 2.427-15.36V649h6.47v27.891c0 10.105 4.449 19.402 11.323 25.869 4.044 4.042 9.301 6.872 14.963 8.893v6.467c-7.684-2.021-14.154-6.063-19.815-10.913-4.044-4.043-7.28-8.489-9.706-13.339-1.618 4.446-3.64 8.488-6.066 11.722-2.426-3.234-4.448-7.276-6.066-11.722-2.426 5.254-5.662 9.701-9.706 13.339-5.257 5.254-12.131 8.892-19.815 10.913v-6.467c6.47-1.617 11.728-4.851 15.772-8.893z"/><path d="M365.403 676.486c0 7.276 3.235 14.147 8.492 18.998 2.022 2.021 4.853 4.042 7.684 5.255v6.871c-4.853-1.617-8.897-4.446-12.132-7.68-6.471-6.063-10.11-14.147-10.11-23.444v-6.467h6.47v6.467h-.404zM326.58 670.019h6.471v6.467c0 9.297-4.044 17.381-10.11 23.444-3.64 3.234-7.684 6.063-12.132 7.68v-6.871c2.831-1.213 5.257-3.234 7.683-5.255 5.258-4.851 8.493-11.722 8.493-18.998v-6.467h-.405zM339.521 703.568c-1.617 2.426-3.639 4.447-5.661 6.468-6.471 6.063-14.154 10.509-23.051 12.53v6.468c10.919-2.021 20.22-7.276 27.903-14.552 1.618-1.617 3.235-3.234 4.449-4.85l-3.64-6.064zM974.227 154.632c1.213 1.616 2.83 3.233 4.448 4.85 7.683 7.276 16.985 12.126 27.905 14.552v-6.468c-8.898-2.021-16.986-6.467-23.052-12.53-2.022-2.021-4.044-4.042-5.662-6.468l-3.639 6.064z"/><path d="M950.772 147.76c6.874-6.871 11.323-15.764 11.323-25.869V94h6.47v27.891c0 4.85.809 10.913 2.426 15.36 1.618-4.447 2.427-10.106 2.427-15.36V94h6.47v27.891c0 10.105 4.449 19.402 11.323 25.869 4.044 4.042 9.299 6.872 14.959 8.893v6.467c-7.68-2.021-14.15-6.063-19.811-10.913-4.044-4.043-7.28-8.489-9.706-13.339-1.618 4.446-3.64 8.488-6.066 11.722-2.426-3.234-4.448-7.276-6.066-11.722-2.426 5.254-5.662 9.701-9.706 13.339-5.257 5.254-12.131 8.892-19.815 10.913v-6.467c6.47-1.617 11.728-4.851 15.772-8.893z"/><path d="M990.403 121.486c0 7.276 3.235 14.147 8.492 18.998 2.025 2.021 4.855 4.042 7.685 5.255v6.871c-4.85-1.617-8.898-4.446-12.133-7.68-6.471-6.063-10.11-14.147-10.11-23.444v-6.467h6.47v6.467h-.404zM951.58 115.019h6.471v6.467c0 9.297-4.044 17.381-10.11 23.444-3.64 3.234-7.684 6.063-12.132 7.68v-6.871c2.831-1.213 5.257-3.234 7.683-5.255 5.258-4.851 8.493-11.722 8.493-18.998v-6.467h-.405zM964.521 148.568c-1.617 2.426-3.639 4.447-5.661 6.468-6.471 6.063-14.154 10.509-23.051 12.53v6.468c10.919-2.021 20.22-7.276 27.903-14.552 1.618-1.617 3.235-3.234 4.449-4.85l-3.64-6.064zM1036.23 266.632c1.21 1.616 2.83 3.233 4.44 4.85 7.69 7.276 16.99 12.126 27.91 14.552v-6.468c-8.9-2.021-16.99-6.467-23.05-12.53-2.02-2.021-4.05-4.042-5.66-6.468l-3.64 6.064z"/><path d="M1012.77 259.76c6.88-6.871 11.32-15.764 11.32-25.869V206h6.48v27.891c0 4.85.8 10.913 2.42 15.36 1.62-4.447 2.43-10.106 2.43-15.36V206h6.47v27.891c0 10.105 4.45 19.402 11.32 25.869 4.05 4.042 9.3 6.872 14.96 8.893v6.467c-7.68-2.021-14.15-6.063-19.81-10.913-4.05-4.043-7.28-8.489-9.71-13.339-1.61 4.446-3.64 8.488-6.06 11.722-2.43-3.234-4.45-7.276-6.07-11.722-2.43 5.254-5.66 9.701-9.7 13.339-5.26 5.254-12.14 8.892-19.82 10.913v-6.467c6.47-1.617 11.73-4.851 15.77-8.893z"/><path d="M1052.4 233.486c0 7.276 3.24 14.147 8.49 18.998 2.03 2.021 4.86 4.042 7.69 5.255v6.871c-4.85-1.617-8.9-4.446-12.13-7.68-6.47-6.063-10.11-14.147-10.11-23.444v-6.467h6.47v6.467h-.41zM1013.58 227.019h6.47v6.467c0 9.297-4.04 17.381-10.11 23.444-3.64 3.234-7.68 6.063-12.131 7.68v-6.871c2.831-1.213 5.261-3.234 7.681-5.255 5.26-4.851 8.49-11.722 8.49-18.998v-6.467h-.4zM1026.52 260.568c-1.62 2.426-3.64 4.447-5.66 6.468-6.47 6.063-14.15 10.509-23.051 12.53v6.468c10.921-2.021 20.221-7.276 27.901-14.552 1.62-1.617 3.24-3.234 4.45-4.85l-3.64-6.064zM975.227 378.632c1.213 1.616 2.83 3.233 4.448 4.85 7.683 7.276 16.985 12.126 27.905 14.552v-6.468c-8.898-2.021-16.986-6.467-23.052-12.53-2.022-2.021-4.044-4.042-5.662-6.468l-3.639 6.064z"/><path d="M951.772 371.76c6.874-6.871 11.323-15.764 11.323-25.869V318h6.47v27.891c0 4.85.809 10.913 2.426 15.36 1.618-4.447 2.427-10.106 2.427-15.36V318h6.47v27.891c0 10.105 4.449 19.402 11.323 25.869 4.044 4.042 9.299 6.872 14.959 8.893v6.467c-7.68-2.021-14.15-6.063-19.811-10.913-4.044-4.043-7.28-8.489-9.706-13.339-1.618 4.446-3.64 8.488-6.066 11.722-2.426-3.234-4.448-7.276-6.066-11.722-2.426 5.254-5.662 9.701-9.706 13.339-5.257 5.254-12.131 8.892-19.815 10.913v-6.467c6.47-1.617 11.728-4.851 15.772-8.893z"/><path d="M991.403 345.486c0 7.276 3.235 14.147 8.492 18.998 2.025 2.021 4.855 4.042 7.685 5.255v6.871c-4.85-1.617-8.898-4.446-12.133-7.68-6.471-6.063-10.11-14.147-10.11-23.444v-6.467h6.47v6.467h-.404zM952.58 339.019h6.471v6.467c0 9.297-4.044 17.381-10.11 23.444-3.64 3.234-7.684 6.063-12.132 7.68v-6.871c2.831-1.213 5.257-3.234 7.683-5.255 5.258-4.851 8.493-11.722 8.493-18.998v-6.467h-.405zM965.521 372.568c-1.617 2.426-3.639 4.447-5.661 6.468-6.471 6.063-14.154 10.509-23.051 12.53v6.468c10.919-2.021 20.22-7.276 27.903-14.552 1.618-1.617 3.235-3.234 4.449-4.85l-3.64-6.064zM1035.23 490.632c1.21 1.616 2.83 3.233 4.44 4.85 7.69 7.276 16.99 12.126 27.91 14.552v-6.468c-8.9-2.021-16.99-6.467-23.05-12.53-2.02-2.021-4.05-4.042-5.66-6.468l-3.64 6.064z"/><path d="M1011.77 483.76c6.88-6.871 11.32-15.764 11.32-25.869V430h6.48v27.891c0 4.85.8 10.913 2.42 15.36 1.62-4.447 2.43-10.106 2.43-15.36V430h6.47v27.891c0 10.105 4.45 19.402 11.32 25.869 4.05 4.042 9.3 6.872 14.96 8.893v6.467c-7.68-2.021-14.15-6.063-19.81-10.913-4.05-4.043-7.28-8.489-9.71-13.339-1.61 4.446-3.64 8.488-6.06 11.722-2.43-3.234-4.45-7.276-6.07-11.722-2.43 5.254-5.66 9.701-9.7 13.339-5.26 5.254-12.14 8.892-19.82 10.913v-6.467c6.47-1.617 11.73-4.851 15.77-8.893z"/><path d="M1051.4 457.486c0 7.276 3.24 14.147 8.49 18.998 2.03 2.021 4.86 4.042 7.69 5.255v6.871c-4.85-1.617-8.9-4.446-12.13-7.68-6.47-6.063-10.11-14.147-10.11-23.444v-6.467h6.47v6.467h-.41zM1012.58 451.019h6.47v6.467c0 9.297-4.04 17.381-10.11 23.444-3.64 3.234-7.68 6.063-12.131 7.68v-6.871c2.831-1.213 5.261-3.234 7.681-5.255 5.26-4.851 8.49-11.722 8.49-18.998v-6.467h-.4zM1025.52 484.568c-1.62 2.426-3.64 4.447-5.66 6.468-6.47 6.063-14.15 10.509-23.051 12.53v6.468c10.921-2.021 20.221-7.276 27.901-14.552 1.62-1.617 3.24-3.234 4.45-4.85l-3.64-6.064zM974.227 597.632c1.213 1.616 2.83 3.233 4.448 4.85 7.683 7.276 16.985 12.126 27.905 14.552v-6.468c-8.898-2.021-16.986-6.467-23.052-12.53-2.022-2.021-4.044-4.042-5.662-6.468l-3.639 6.064z"/><path d="M950.772 590.76c6.874-6.871 11.323-15.764 11.323-25.869V537h6.47v27.891c0 4.85.809 10.913 2.426 15.36 1.618-4.447 2.427-10.106 2.427-15.36V537h6.47v27.891c0 10.105 4.449 19.402 11.323 25.869 4.044 4.042 9.299 6.872 14.959 8.893v6.467c-7.68-2.021-14.15-6.063-19.811-10.913-4.044-4.043-7.28-8.489-9.706-13.339-1.618 4.446-3.64 8.488-6.066 11.722-2.426-3.234-4.448-7.276-6.066-11.722-2.426 5.254-5.662 9.701-9.706 13.339-5.257 5.254-12.131 8.892-19.815 10.913v-6.467c6.47-1.617 11.728-4.851 15.772-8.893z"/><path d="M990.403 564.486c0 7.276 3.235 14.147 8.492 18.998 2.025 2.021 4.855 4.042 7.685 5.255v6.871c-4.85-1.617-8.898-4.446-12.133-7.68-6.471-6.063-10.11-14.147-10.11-23.444v-6.467h6.47v6.467h-.404zM951.58 558.019h6.471v6.467c0 9.297-4.044 17.381-10.11 23.444-3.64 3.234-7.684 6.063-12.132 7.68v-6.871c2.831-1.213 5.257-3.234 7.683-5.255 5.258-4.851 8.493-11.722 8.493-18.998v-6.467h-.405zM964.521 591.568c-1.617 2.426-3.639 4.447-5.661 6.468-6.471 6.063-14.154 10.509-23.051 12.53v6.468c10.919-2.021 20.22-7.276 27.903-14.552 1.618-1.617 3.235-3.234 4.449-4.85l-3.64-6.064zM1034.23 709.632c1.21 1.616 2.83 3.233 4.44 4.85 7.69 7.276 16.99 12.126 27.91 14.552v-6.468c-8.9-2.021-16.99-6.467-23.05-12.53-2.02-2.021-4.05-4.042-5.66-6.468l-3.64 6.064z"/><path d="M1010.77 702.76c6.88-6.871 11.32-15.764 11.32-25.869V649h6.48v27.891c0 4.85.8 10.913 2.42 15.36 1.62-4.447 2.43-10.106 2.43-15.36V649h6.47v27.891c0 10.105 4.45 19.402 11.32 25.869 4.05 4.042 9.3 6.872 14.96 8.893v6.467c-7.68-2.021-14.15-6.063-19.81-10.913-4.05-4.043-7.28-8.489-9.71-13.339-1.61 4.446-3.64 8.488-6.06 11.722-2.43-3.234-4.45-7.276-6.07-11.722-2.43 5.254-5.66 9.701-9.7 13.339-5.26 5.254-12.14 8.892-19.82 10.913v-6.467c6.47-1.617 11.73-4.851 15.77-8.893z"/><path d="M1050.4 676.486c0 7.276 3.24 14.147 8.49 18.998 2.03 2.021 4.86 4.042 7.69 5.255v6.871c-4.85-1.617-8.9-4.446-12.13-7.68-6.47-6.063-10.11-14.147-10.11-23.444v-6.467h6.47v6.467h-.41zM1011.58 670.019h6.47v6.467c0 9.297-4.04 17.381-10.11 23.444-3.64 3.234-7.68 6.063-12.131 7.68v-6.871c2.831-1.213 5.261-3.234 7.681-5.255 5.26-4.851 8.49-11.722 8.49-18.998v-6.467h-.4zM1024.52 703.568c-1.62 2.426-3.64 4.447-5.66 6.468-6.47 6.063-14.15 10.509-23.051 12.53v6.468c10.921-2.021 20.221-7.276 27.901-14.552 1.62-1.617 3.24-3.234 4.45-4.85l-3.64-6.064zM837.227 154.632c1.213 1.616 2.83 3.233 4.448 4.85 7.683 7.276 16.985 12.126 27.903 14.552v-6.468c-8.896-2.021-16.984-6.467-23.05-12.53-2.022-2.021-4.044-4.042-5.662-6.468l-3.639 6.064z"/><path d="M813.772 147.76c6.874-6.871 11.323-15.764 11.323-25.869V94h6.47v27.891c0 4.85.809 10.913 2.426 15.36 1.618-4.447 2.427-10.106 2.427-15.36V94h6.47v27.891c0 10.105 4.449 19.402 11.323 25.869 4.044 4.042 9.301 6.872 14.963 8.893v6.467c-7.684-2.021-14.154-6.063-19.815-10.913-4.044-4.043-7.28-8.489-9.706-13.339-1.618 4.446-3.64 8.488-6.066 11.722-2.426-3.234-4.448-7.276-6.066-11.722-2.426 5.254-5.662 9.701-9.706 13.339-5.257 5.254-12.131 8.892-19.815 10.913v-6.467c6.47-1.617 11.728-4.851 15.772-8.893z"/><path d="M853.403 121.486c0 7.276 3.235 14.147 8.492 18.998 2.022 2.021 4.853 4.042 7.684 5.255v6.871c-4.853-1.617-8.897-4.446-12.132-7.68-6.471-6.063-10.11-14.147-10.11-23.444v-6.467h6.47v6.467h-.404zM814.58 115.019h6.471v6.467c0 9.297-4.044 17.381-10.11 23.444-3.64 3.234-7.684 6.063-12.132 7.68v-6.871c2.831-1.213 5.257-3.234 7.683-5.255 5.258-4.851 8.493-11.722 8.493-18.998v-6.467h-.405zM827.521 148.568c-1.617 2.426-3.639 4.447-5.661 6.468-6.471 6.063-14.154 10.509-23.051 12.53v6.468c10.919-2.021 20.22-7.276 27.903-14.552 1.618-1.617 3.235-3.234 4.449-4.85l-3.64-6.064zM899.227 266.632c1.213 1.616 2.83 3.233 4.448 4.85 7.683 7.276 16.985 12.126 27.903 14.552v-6.468c-8.896-2.021-16.984-6.467-23.05-12.53-2.022-2.021-4.044-4.042-5.662-6.468l-3.639 6.064z"/><path d="M875.772 259.76c6.874-6.871 11.323-15.764 11.323-25.869V206h6.47v27.891c0 4.85.809 10.913 2.426 15.36 1.618-4.447 2.427-10.106 2.427-15.36V206h6.47v27.891c0 10.105 4.449 19.402 11.323 25.869 4.044 4.042 9.301 6.872 14.963 8.893v6.467c-7.684-2.021-14.154-6.063-19.815-10.913-4.044-4.043-7.28-8.489-9.706-13.339-1.618 4.446-3.64 8.488-6.066 11.722-2.426-3.234-4.448-7.276-6.066-11.722-2.426 5.254-5.662 9.701-9.706 13.339-5.257 5.254-12.131 8.892-19.815 10.913v-6.467c6.47-1.617 11.728-4.851 15.772-8.893z"/><path d="M915.403 233.486c0 7.276 3.235 14.147 8.492 18.998 2.022 2.021 4.853 4.042 7.684 5.255v6.871c-4.853-1.617-8.897-4.446-12.132-7.68-6.471-6.063-10.11-14.147-10.11-23.444v-6.467h6.47v6.467h-.404zM876.58 227.019h6.471v6.467c0 9.297-4.044 17.381-10.11 23.444-3.64 3.234-7.684 6.063-12.132 7.68v-6.871c2.831-1.213 5.257-3.234 7.683-5.255 5.258-4.851 8.493-11.722 8.493-18.998v-6.467h-.405zM889.521 260.568c-1.617 2.426-3.639 4.447-5.661 6.468-6.471 6.063-14.154 10.509-23.051 12.53v6.468c10.919-2.021 20.22-7.276 27.903-14.552 1.618-1.617 3.235-3.234 4.449-4.85l-3.64-6.064zM838.227 378.632c1.213 1.616 2.83 3.233 4.448 4.85 7.683 7.276 16.985 12.126 27.903 14.552v-6.468c-8.896-2.021-16.984-6.467-23.05-12.53-2.022-2.021-4.044-4.042-5.662-6.468l-3.639 6.064z"/><path d="M814.772 371.76c6.874-6.871 11.323-15.764 11.323-25.869V318h6.47v27.891c0 4.85.809 10.913 2.426 15.36 1.618-4.447 2.427-10.106 2.427-15.36V318h6.47v27.891c0 10.105 4.449 19.402 11.323 25.869 4.044 4.042 9.301 6.872 14.963 8.893v6.467c-7.684-2.021-14.154-6.063-19.815-10.913-4.044-4.043-7.28-8.489-9.706-13.339-1.618 4.446-3.64 8.488-6.066 11.722-2.426-3.234-4.448-7.276-6.066-11.722-2.426 5.254-5.662 9.701-9.706 13.339-5.257 5.254-12.131 8.892-19.815 10.913v-6.467c6.47-1.617 11.728-4.851 15.772-8.893z"/><path d="M854.403 345.486c0 7.276 3.235 14.147 8.492 18.998 2.022 2.021 4.853 4.042 7.684 5.255v6.871c-4.853-1.617-8.897-4.446-12.132-7.68-6.471-6.063-10.11-14.147-10.11-23.444v-6.467h6.47v6.467h-.404zM815.58 339.019h6.471v6.467c0 9.297-4.044 17.381-10.11 23.444-3.64 3.234-7.684 6.063-12.132 7.68v-6.871c2.831-1.213 5.257-3.234 7.683-5.255 5.258-4.851 8.493-11.722 8.493-18.998v-6.467h-.405zM828.521 372.568c-1.617 2.426-3.639 4.447-5.661 6.468-6.471 6.063-14.154 10.509-23.051 12.53v6.468c10.919-2.021 20.22-7.276 27.903-14.552 1.618-1.617 3.235-3.234 4.449-4.85l-3.64-6.064zM898.227 490.632c1.213 1.616 2.83 3.233 4.448 4.85 7.683 7.276 16.985 12.126 27.903 14.552v-6.468c-8.896-2.021-16.984-6.467-23.05-12.53-2.022-2.021-4.044-4.042-5.662-6.468l-3.639 6.064z"/><path d="M874.772 483.76c6.874-6.871 11.323-15.764 11.323-25.869V430h6.47v27.891c0 4.85.809 10.913 2.426 15.36 1.618-4.447 2.427-10.106 2.427-15.36V430h6.47v27.891c0 10.105 4.449 19.402 11.323 25.869 4.044 4.042 9.301 6.872 14.963 8.893v6.467c-7.684-2.021-14.154-6.063-19.815-10.913-4.044-4.043-7.28-8.489-9.706-13.339-1.618 4.446-3.64 8.488-6.066 11.722-2.426-3.234-4.448-7.276-6.066-11.722-2.426 5.254-5.662 9.701-9.706 13.339-5.257 5.254-12.131 8.892-19.815 10.913v-6.467c6.47-1.617 11.728-4.851 15.772-8.893z"/><path d="M914.403 457.486c0 7.276 3.235 14.147 8.492 18.998 2.022 2.021 4.853 4.042 7.684 5.255v6.871c-4.853-1.617-8.897-4.446-12.132-7.68-6.471-6.063-10.11-14.147-10.11-23.444v-6.467h6.47v6.467h-.404zM875.58 451.019h6.471v6.467c0 9.297-4.044 17.381-10.11 23.444-3.64 3.234-7.684 6.063-12.132 7.68v-6.871c2.831-1.213 5.257-3.234 7.683-5.255 5.258-4.851 8.493-11.722 8.493-18.998v-6.467h-.405zM888.521 484.568c-1.617 2.426-3.639 4.447-5.661 6.468-6.471 6.063-14.154 10.509-23.051 12.53v6.468c10.919-2.021 20.22-7.276 27.903-14.552 1.618-1.617 3.235-3.234 4.449-4.85l-3.64-6.064zM837.227 597.632c1.213 1.616 2.83 3.233 4.448 4.85 7.683 7.276 16.985 12.126 27.903 14.552v-6.468c-8.896-2.021-16.984-6.467-23.05-12.53-2.022-2.021-4.044-4.042-5.662-6.468l-3.639 6.064z"/><path d="M813.772 590.76c6.874-6.871 11.323-15.764 11.323-25.869V537h6.47v27.891c0 4.85.809 10.913 2.426 15.36 1.618-4.447 2.427-10.106 2.427-15.36V537h6.47v27.891c0 10.105 4.449 19.402 11.323 25.869 4.044 4.042 9.301 6.872 14.963 8.893v6.467c-7.684-2.021-14.154-6.063-19.815-10.913-4.044-4.043-7.28-8.489-9.706-13.339-1.618 4.446-3.64 8.488-6.066 11.722-2.426-3.234-4.448-7.276-6.066-11.722-2.426 5.254-5.662 9.701-9.706 13.339-5.257 5.254-12.131 8.892-19.815 10.913v-6.467c6.47-1.617 11.728-4.851 15.772-8.893z"/><path d="M853.403 564.486c0 7.276 3.235 14.147 8.492 18.998 2.022 2.021 4.853 4.042 7.684 5.255v6.871c-4.853-1.617-8.897-4.446-12.132-7.68-6.471-6.063-10.11-14.147-10.11-23.444v-6.467h6.47v6.467h-.404zM814.58 558.019h6.471v6.467c0 9.297-4.044 17.381-10.11 23.444-3.64 3.234-7.684 6.063-12.132 7.68v-6.871c2.831-1.213 5.257-3.234 7.683-5.255 5.258-4.851 8.493-11.722 8.493-18.998v-6.467h-.405zM827.521 591.568c-1.617 2.426-3.639 4.447-5.661 6.468-6.471 6.063-14.154 10.509-23.051 12.53v6.468c10.919-2.021 20.22-7.276 27.903-14.552 1.618-1.617 3.235-3.234 4.449-4.85l-3.64-6.064zM897.227 709.632c1.213 1.616 2.83 3.233 4.448 4.85 7.683 7.276 16.985 12.126 27.903 14.552v-6.468c-8.896-2.021-16.984-6.467-23.05-12.53-2.022-2.021-4.044-4.042-5.662-6.468l-3.639 6.064z"/><path d="M873.772 702.76c6.874-6.871 11.323-15.764 11.323-25.869V649h6.47v27.891c0 4.85.809 10.913 2.426 15.36 1.618-4.447 2.427-10.106 2.427-15.36V649h6.47v27.891c0 10.105 4.449 19.402 11.323 25.869 4.044 4.042 9.301 6.872 14.963 8.893v6.467c-7.684-2.021-14.154-6.063-19.815-10.913-4.044-4.043-7.28-8.489-9.706-13.339-1.618 4.446-3.64 8.488-6.066 11.722-2.426-3.234-4.448-7.276-6.066-11.722-2.426 5.254-5.662 9.701-9.706 13.339-5.257 5.254-12.131 8.892-19.815 10.913v-6.467c6.47-1.617 11.728-4.851 15.772-8.893z"/><path d="M913.403 676.486c0 7.276 3.235 14.147 8.492 18.998 2.022 2.021 4.853 4.042 7.684 5.255v6.871c-4.853-1.617-8.897-4.446-12.132-7.68-6.471-6.063-10.11-14.147-10.11-23.444v-6.467h6.47v6.467h-.404zM874.58 670.019h6.471v6.467c0 9.297-4.044 17.381-10.11 23.444-3.64 3.234-7.684 6.063-12.132 7.68v-6.871c2.831-1.213 5.257-3.234 7.683-5.255 5.258-4.851 8.493-11.722 8.493-18.998v-6.467h-.405zM887.521 703.568c-1.617 2.426-3.639 4.447-5.661 6.468-6.471 6.063-14.154 10.509-23.051 12.53v6.468c10.919-2.021 20.22-7.276 27.903-14.552 1.618-1.617 3.235-3.234 4.449-4.85l-3.64-6.064zM151.227 154.632c1.213 1.616 2.83 3.233 4.448 4.85 7.683 7.276 16.985 12.126 27.903 14.552v-6.468c-8.896-2.021-16.984-6.467-23.05-12.53-2.022-2.021-4.044-4.042-5.662-6.468l-3.639 6.064z"/><path d="M127.772 147.76c6.874-6.871 11.323-15.764 11.323-25.869V94h6.47v27.891c0 4.85.809 10.913 2.426 15.36 1.618-4.447 2.427-10.106 2.427-15.36V94h6.47v27.891c0 10.105 4.449 19.402 11.323 25.869 4.044 4.042 9.301 6.872 14.963 8.893v6.467c-7.684-2.021-14.154-6.063-19.815-10.913-4.044-4.043-7.28-8.489-9.706-13.339-1.618 4.446-3.64 8.488-6.066 11.722-2.426-3.234-4.448-7.276-6.066-11.722-2.426 5.254-5.662 9.701-9.706 13.339-5.257 5.254-12.131 8.892-19.815 10.913v-6.467c6.47-1.617 11.728-4.851 15.772-8.893z"/><path d="M167.403 121.486c0 7.276 3.235 14.147 8.492 18.998 2.022 2.021 4.853 4.042 7.684 5.255v6.871c-4.853-1.617-8.897-4.446-12.132-7.68-6.471-6.063-10.11-14.147-10.11-23.444v-6.467h6.47v6.467h-.404zM128.58 115.019h6.471v6.467c0 9.297-4.044 17.381-10.11 23.444-3.64 3.234-7.684 6.063-12.132 7.68v-6.871c2.831-1.213 5.257-3.234 7.683-5.255 5.258-4.851 8.493-11.722 8.493-18.998v-6.467h-.405zM141.521 148.568c-1.617 2.426-3.639 4.447-5.661 6.468-6.471 6.063-14.154 10.509-23.051 12.53v6.468c10.919-2.021 20.22-7.276 27.903-14.552 1.618-1.617 3.235-3.234 4.449-4.85l-3.64-6.064zM1097.23 377.632c1.21 1.616 2.83 3.233 4.44 4.85 7.69 7.276 16.99 12.126 27.91 14.552v-6.468c-8.9-2.021-16.99-6.467-23.05-12.53-2.02-2.021-4.05-4.042-5.66-6.468l-3.64 6.064z"/><path d="M1073.77 370.76c6.88-6.871 11.32-15.764 11.32-25.869V317h6.48v27.891c0 4.85.8 10.913 2.42 15.36 1.62-4.447 2.43-10.106 2.43-15.36V317h6.47v27.891c0 10.105 4.45 19.402 11.32 25.869 4.05 4.042 9.3 6.872 14.96 8.893v6.467c-7.68-2.021-14.15-6.063-19.81-10.913-4.05-4.043-7.28-8.489-9.71-13.339-1.61 4.446-3.64 8.488-6.06 11.722-2.43-3.234-4.45-7.276-6.07-11.722-2.43 5.254-5.66 9.701-9.7 13.339-5.26 5.254-12.14 8.892-19.82 10.913v-6.467c6.47-1.617 11.73-4.851 15.77-8.893z"/><path d="M1074.58 338.019h6.47v6.467c0 9.297-4.04 17.381-10.11 23.444-3.64 3.234-7.68 6.063-12.13 7.68v-6.871c2.83-1.213 5.26-3.234 7.68-5.255 5.26-4.851 8.49-11.722 8.49-18.998v-6.467h-.4zM1087.52 371.568c-1.62 2.426-3.64 4.447-5.66 6.468-6.47 6.063-14.15 10.509-23.05 12.53v6.468c10.92-2.021 20.22-7.276 27.9-14.552 1.62-1.617 3.24-3.234 4.45-4.85l-3.64-6.064zM1097.23 154.632c1.21 1.616 2.83 3.233 4.44 4.85 7.69 7.276 16.99 12.126 27.91 14.552v-6.468c-8.9-2.021-16.99-6.467-23.05-12.53-2.02-2.021-4.05-4.042-5.66-6.468l-3.64 6.064z"/><path d="M1073.77 147.76c6.88-6.871 11.32-15.764 11.32-25.869V94h6.48v27.891c0 4.85.8 10.913 2.42 15.36 1.62-4.447 2.43-10.106 2.43-15.36V94h6.47v27.891c0 10.105 4.45 19.402 11.32 25.869 4.05 4.042 9.3 6.872 14.96 8.893v6.467c-7.68-2.021-14.15-6.063-19.81-10.913-4.05-4.043-7.28-8.489-9.71-13.339-1.61 4.446-3.64 8.488-6.06 11.722-2.43-3.234-4.45-7.276-6.07-11.722-2.43 5.254-5.66 9.701-9.7 13.339-5.26 5.254-12.14 8.892-19.82 10.913v-6.467c6.47-1.617 11.73-4.851 15.77-8.893z"/><path d="M1074.58 115.019h6.47v6.467c0 9.297-4.04 17.381-10.11 23.444-3.64 3.234-7.68 6.063-12.13 7.68v-6.871c2.83-1.213 5.26-3.234 7.68-5.255 5.26-4.851 8.49-11.722 8.49-18.998v-6.467h-.4zM1087.52 148.568c-1.62 2.426-3.64 4.447-5.66 6.468-6.47 6.063-14.15 10.509-23.05 12.53v6.468c10.92-2.021 20.22-7.276 27.9-14.552 1.62-1.617 3.24-3.234 4.45-4.85l-3.64-6.064zM213.227 266.632c1.213 1.616 2.83 3.233 4.448 4.85 7.683 7.276 16.985 12.126 27.903 14.552v-6.468c-8.896-2.021-16.984-6.467-23.05-12.53-2.022-2.021-4.044-4.042-5.662-6.468l-3.639 6.064z"/><path d="M189.772 259.76c6.874-6.871 11.323-15.764 11.323-25.869V206h6.47v27.891c0 4.85.809 10.913 2.426 15.36 1.618-4.447 2.427-10.106 2.427-15.36V206h6.47v27.891c0 10.105 4.449 19.402 11.323 25.869 4.044 4.042 9.301 6.872 14.963 8.893v6.467c-7.684-2.021-14.154-6.063-19.815-10.913-4.044-4.043-7.28-8.489-9.706-13.339-1.618 4.446-3.64 8.488-6.066 11.722-2.426-3.234-4.448-7.276-6.066-11.722-2.426 5.254-5.662 9.701-9.706 13.339-5.257 5.254-12.131 8.892-19.815 10.913v-6.467c6.47-1.617 11.728-4.851 15.772-8.893z"/><path d="M229.403 233.486c0 7.276 3.235 14.147 8.492 18.998 2.022 2.021 4.853 4.042 7.684 5.255v6.871c-4.853-1.617-8.897-4.446-12.132-7.68-6.471-6.063-10.11-14.147-10.11-23.444v-6.467h6.47v6.467h-.404zM190.58 227.019h6.471v6.467c0 9.297-4.044 17.381-10.11 23.444-3.64 3.234-7.684 6.063-12.132 7.68v-6.871c2.831-1.213 5.257-3.234 7.683-5.255 5.258-4.851 8.493-11.722 8.493-18.998v-6.467h-.405zM203.521 260.568c-1.617 2.426-3.639 4.447-5.661 6.468-6.471 6.063-14.154 10.509-23.051 12.53v6.468c10.919-2.021 20.22-7.276 27.903-14.552 1.618-1.617 3.235-3.234 4.449-4.85l-3.64-6.064zM152.227 378.632c1.213 1.616 2.83 3.233 4.448 4.85 7.683 7.276 16.985 12.126 27.903 14.552v-6.468c-8.896-2.021-16.984-6.467-23.05-12.53-2.022-2.021-4.044-4.042-5.662-6.468l-3.639 6.064z"/><path d="M128.772 371.76c6.874-6.871 11.323-15.764 11.323-25.869V318h6.47v27.891c0 4.85.809 10.913 2.426 15.36 1.618-4.447 2.427-10.106 2.427-15.36V318h6.47v27.891c0 10.105 4.449 19.402 11.323 25.869 4.044 4.042 9.301 6.872 14.963 8.893v6.467c-7.684-2.021-14.154-6.063-19.815-10.913-4.044-4.043-7.28-8.489-9.706-13.339-1.618 4.446-3.64 8.488-6.066 11.722-2.426-3.234-4.448-7.276-6.066-11.722-2.426 5.254-5.662 9.701-9.706 13.339-5.257 5.254-12.131 8.892-19.815 10.913v-6.467c6.47-1.617 11.728-4.851 15.772-8.893z"/><path d="M168.403 345.486c0 7.276 3.235 14.147 8.492 18.998 2.022 2.021 4.853 4.042 7.684 5.255v6.871c-4.853-1.617-8.897-4.446-12.132-7.68-6.471-6.063-10.11-14.147-10.11-23.444v-6.467h6.47v6.467h-.404zM129.58 339.019h6.471v6.467c0 9.297-4.044 17.381-10.11 23.444-3.64 3.234-7.684 6.063-12.132 7.68v-6.871c2.831-1.213 5.257-3.234 7.683-5.255 5.258-4.851 8.493-11.722 8.493-18.998v-6.467h-.405zM142.521 372.568c-1.617 2.426-3.639 4.447-5.661 6.468-6.471 6.063-14.154 10.509-23.051 12.53v6.468c10.919-2.021 20.22-7.276 27.903-14.552 1.618-1.617 3.235-3.234 4.449-4.85l-3.64-6.064zM212.227 490.632c1.213 1.616 2.83 3.233 4.448 4.85 7.683 7.276 16.985 12.126 27.903 14.552v-6.468c-8.896-2.021-16.984-6.467-23.05-12.53-2.022-2.021-4.044-4.042-5.662-6.468l-3.639 6.064z"/><path d="M188.772 483.76c6.874-6.871 11.323-15.764 11.323-25.869V430h6.47v27.891c0 4.85.809 10.913 2.426 15.36 1.618-4.447 2.427-10.106 2.427-15.36V430h6.47v27.891c0 10.105 4.449 19.402 11.323 25.869 4.044 4.042 9.301 6.872 14.963 8.893v6.467c-7.684-2.021-14.154-6.063-19.815-10.913-4.044-4.043-7.28-8.489-9.706-13.339-1.618 4.446-3.64 8.488-6.066 11.722-2.426-3.234-4.448-7.276-6.066-11.722-2.426 5.254-5.662 9.701-9.706 13.339-5.257 5.254-12.131 8.892-19.815 10.913v-6.467c6.47-1.617 11.728-4.851 15.772-8.893z"/><path d="M228.403 457.486c0 7.276 3.235 14.147 8.492 18.998 2.022 2.021 4.853 4.042 7.684 5.255v6.871c-4.853-1.617-8.897-4.446-12.132-7.68-6.471-6.063-10.11-14.147-10.11-23.444v-6.467h6.47v6.467h-.404zM189.58 451.019h6.471v6.467c0 9.297-4.044 17.381-10.11 23.444-3.64 3.234-7.684 6.063-12.132 7.68v-6.871c2.831-1.213 5.257-3.234 7.683-5.255 5.258-4.851 8.493-11.722 8.493-18.998v-6.467h-.405zM202.521 484.568c-1.617 2.426-3.639 4.447-5.661 6.468-6.471 6.063-14.154 10.509-23.051 12.53v6.468c10.919-2.021 20.22-7.276 27.903-14.552 1.618-1.617 3.235-3.234 4.449-4.85l-3.64-6.064zM151.227 597.632c1.213 1.616 2.83 3.233 4.448 4.85 7.683 7.276 16.985 12.126 27.903 14.552v-6.468c-8.896-2.021-16.984-6.467-23.05-12.53-2.022-2.021-4.044-4.042-5.662-6.468l-3.639 6.064z"/><path d="M127.772 590.76c6.874-6.871 11.323-15.764 11.323-25.869V537h6.47v27.891c0 4.85.809 10.913 2.426 15.36 1.618-4.447 2.427-10.106 2.427-15.36V537h6.47v27.891c0 10.105 4.449 19.402 11.323 25.869 4.044 4.042 9.301 6.872 14.963 8.893v6.467c-7.684-2.021-14.154-6.063-19.815-10.913-4.044-4.043-7.28-8.489-9.706-13.339-1.618 4.446-3.64 8.488-6.066 11.722-2.426-3.234-4.448-7.276-6.066-11.722-2.426 5.254-5.662 9.701-9.706 13.339-5.257 5.254-12.131 8.892-19.815 10.913v-6.467c6.47-1.617 11.728-4.851 15.772-8.893z"/><path d="M167.403 564.486c0 7.276 3.235 14.147 8.492 18.998 2.022 2.021 4.853 4.042 7.684 5.255v6.871c-4.853-1.617-8.897-4.446-12.132-7.68-6.471-6.063-10.11-14.147-10.11-23.444v-6.467h6.47v6.467h-.404zM128.58 558.019h6.471v6.467c0 9.297-4.044 17.381-10.11 23.444-3.64 3.234-7.684 6.063-12.132 7.68v-6.871c2.831-1.213 5.257-3.234 7.683-5.255 5.258-4.851 8.493-11.722 8.493-18.998v-6.467h-.405zM141.521 591.568c-1.617 2.426-3.639 4.447-5.661 6.468-6.471 6.063-14.154 10.509-23.051 12.53v6.468c10.919-2.021 20.22-7.276 27.903-14.552 1.618-1.617 3.235-3.234 4.449-4.85l-3.64-6.064zM211.227 709.632c1.213 1.616 2.83 3.233 4.448 4.85 7.683 7.276 16.985 12.126 27.903 14.552v-6.468c-8.896-2.021-16.984-6.467-23.05-12.53-2.022-2.021-4.044-4.042-5.662-6.468l-3.639 6.064z"/><path d="M187.772 702.76c6.874-6.871 11.323-15.764 11.323-25.869V649h6.47v27.891c0 4.85.809 10.913 2.426 15.36 1.618-4.447 2.427-10.106 2.427-15.36V649h6.47v27.891c0 10.105 4.449 19.402 11.323 25.869 4.044 4.042 9.301 6.872 14.963 8.893v6.467c-7.684-2.021-14.154-6.063-19.815-10.913-4.044-4.043-7.28-8.489-9.706-13.339-1.618 4.446-3.64 8.488-6.066 11.722-2.426-3.234-4.448-7.276-6.066-11.722-2.426 5.254-5.662 9.701-9.706 13.339-5.257 5.254-12.131 8.892-19.815 10.913v-6.467c6.47-1.617 11.728-4.851 15.772-8.893z"/><path d="M227.403 676.486c0 7.276 3.235 14.147 8.492 18.998 2.022 2.021 4.853 4.042 7.684 5.255v6.871c-4.853-1.617-8.897-4.446-12.132-7.68-6.471-6.063-10.11-14.147-10.11-23.444v-6.467h6.47v6.467h-.404zM188.58 670.019h6.471v6.467c0 9.297-4.044 17.381-10.11 23.444-3.64 3.234-7.684 6.063-12.132 7.68v-6.871c2.831-1.213 5.257-3.234 7.683-5.255 5.258-4.851 8.493-11.722 8.493-18.998v-6.467h-.405zM201.521 703.568c-1.617 2.426-3.639 4.447-5.661 6.468-6.471 6.063-14.154 10.509-23.051 12.53v6.468c10.919-2.021 20.22-7.276 27.903-14.552 1.618-1.617 3.235-3.234 4.449-4.85l-3.64-6.064zM701.227 154.632c1.213 1.616 2.83 3.233 4.448 4.85 7.683 7.276 16.985 12.126 27.903 14.552v-6.468c-8.896-2.021-16.984-6.467-23.05-12.53-2.022-2.021-4.044-4.042-5.662-6.468l-3.639 6.064z"/><path d="M677.772 147.76c6.874-6.871 11.323-15.764 11.323-25.869V94h6.47v27.891c0 4.85.809 10.913 2.426 15.36 1.618-4.447 2.427-10.106 2.427-15.36V94h6.47v27.891c0 10.105 4.449 19.402 11.323 25.869 4.044 4.042 9.301 6.872 14.963 8.893v6.467c-7.684-2.021-14.154-6.063-19.815-10.913-4.044-4.043-7.28-8.489-9.706-13.339-1.618 4.446-3.64 8.488-6.066 11.722-2.426-3.234-4.448-7.276-6.066-11.722-2.426 5.254-5.662 9.701-9.706 13.339-5.257 5.254-12.131 8.892-19.815 10.913v-6.467c6.47-1.617 11.728-4.851 15.772-8.893z"/><path d="M717.403 121.486c0 7.276 3.235 14.147 8.492 18.998 2.022 2.021 4.853 4.042 7.684 5.255v6.871c-4.853-1.617-8.897-4.446-12.132-7.68-6.471-6.063-10.11-14.147-10.11-23.444v-6.467h6.47v6.467h-.404zM678.58 115.019h6.471v6.467c0 9.297-4.044 17.381-10.11 23.444-3.64 3.234-7.684 6.063-12.132 7.68v-6.871c2.831-1.213 5.257-3.234 7.683-5.255 5.258-4.851 8.493-11.722 8.493-18.998v-6.467h-.405zM691.521 148.568c-1.617 2.426-3.639 4.447-5.661 6.468-6.471 6.063-14.154 10.509-23.051 12.53v6.468c10.919-2.021 20.22-7.276 27.903-14.552 1.618-1.617 3.235-3.234 4.449-4.85l-3.64-6.064zM763.227 266.632c1.213 1.616 2.83 3.233 4.448 4.85 7.683 7.276 16.985 12.126 27.903 14.552v-6.468c-8.896-2.021-16.984-6.467-23.05-12.53-2.022-2.021-4.044-4.042-5.662-6.468l-3.639 6.064z"/><path d="M739.772 259.76c6.874-6.871 11.323-15.764 11.323-25.869V206h6.47v27.891c0 4.85.809 10.913 2.426 15.36 1.618-4.447 2.427-10.106 2.427-15.36V206h6.47v27.891c0 10.105 4.449 19.402 11.323 25.869 4.044 4.042 9.301 6.872 14.963 8.893v6.467c-7.684-2.021-14.154-6.063-19.815-10.913-4.044-4.043-7.28-8.489-9.706-13.339-1.618 4.446-3.64 8.488-6.066 11.722-2.426-3.234-4.448-7.276-6.066-11.722-2.426 5.254-5.662 9.701-9.706 13.339-5.257 5.254-12.131 8.892-19.815 10.913v-6.467c6.47-1.617 11.728-4.851 15.772-8.893z"/><path d="M779.403 233.486c0 7.276 3.235 14.147 8.492 18.998 2.022 2.021 4.853 4.042 7.684 5.255v6.871c-4.853-1.617-8.897-4.446-12.132-7.68-6.471-6.063-10.11-14.147-10.11-23.444v-6.467h6.47v6.467h-.404zM740.58 227.019h6.471v6.467c0 9.297-4.044 17.381-10.11 23.444-3.64 3.234-7.684 6.063-12.132 7.68v-6.871c2.831-1.213 5.257-3.234 7.683-5.255 5.258-4.851 8.493-11.722 8.493-18.998v-6.467h-.405zM753.521 260.568c-1.617 2.426-3.639 4.447-5.661 6.468-6.471 6.063-14.154 10.509-23.051 12.53v6.468c10.919-2.021 20.22-7.276 27.903-14.552 1.618-1.617 3.235-3.234 4.449-4.85l-3.64-6.064zM702.227 378.632c1.213 1.616 2.83 3.233 4.448 4.85 7.683 7.276 16.985 12.126 27.903 14.552v-6.468c-8.896-2.021-16.984-6.467-23.05-12.53-2.022-2.021-4.044-4.042-5.662-6.468l-3.639 6.064z"/><path d="M678.772 371.76c6.874-6.871 11.323-15.764 11.323-25.869V318h6.47v27.891c0 4.85.809 10.913 2.426 15.36 1.618-4.447 2.427-10.106 2.427-15.36V318h6.47v27.891c0 10.105 4.449 19.402 11.323 25.869 4.044 4.042 9.301 6.872 14.963 8.893v6.467c-7.684-2.021-14.154-6.063-19.815-10.913-4.044-4.043-7.28-8.489-9.706-13.339-1.618 4.446-3.64 8.488-6.066 11.722-2.426-3.234-4.448-7.276-6.066-11.722-2.426 5.254-5.662 9.701-9.706 13.339-5.257 5.254-12.131 8.892-19.815 10.913v-6.467c6.47-1.617 11.728-4.851 15.772-8.893z"/><path d="M718.403 345.486c0 7.276 3.235 14.147 8.492 18.998 2.022 2.021 4.853 4.042 7.684 5.255v6.871c-4.853-1.617-8.897-4.446-12.132-7.68-6.471-6.063-10.11-14.147-10.11-23.444v-6.467h6.47v6.467h-.404zM679.58 339.019h6.471v6.467c0 9.297-4.044 17.381-10.11 23.444-3.64 3.234-7.684 6.063-12.132 7.68v-6.871c2.831-1.213 5.257-3.234 7.683-5.255 5.258-4.851 8.493-11.722 8.493-18.998v-6.467h-.405zM692.521 372.568c-1.617 2.426-3.639 4.447-5.661 6.468-6.471 6.063-14.154 10.509-23.051 12.53v6.468c10.919-2.021 20.22-7.276 27.903-14.552 1.618-1.617 3.235-3.234 4.449-4.85l-3.64-6.064zM762.227 490.632c1.213 1.616 2.83 3.233 4.448 4.85 7.683 7.276 16.985 12.126 27.903 14.552v-6.468c-8.896-2.021-16.984-6.467-23.05-12.53-2.022-2.021-4.044-4.042-5.662-6.468l-3.639 6.064z"/><path d="M738.772 483.76c6.874-6.871 11.323-15.764 11.323-25.869V430h6.47v27.891c0 4.85.809 10.913 2.426 15.36 1.618-4.447 2.427-10.106 2.427-15.36V430h6.47v27.891c0 10.105 4.449 19.402 11.323 25.869 4.044 4.042 9.301 6.872 14.963 8.893v6.467c-7.684-2.021-14.154-6.063-19.815-10.913-4.044-4.043-7.28-8.489-9.706-13.339-1.618 4.446-3.64 8.488-6.066 11.722-2.426-3.234-4.448-7.276-6.066-11.722-2.426 5.254-5.662 9.701-9.706 13.339-5.257 5.254-12.131 8.892-19.815 10.913v-6.467c6.47-1.617 11.728-4.851 15.772-8.893z"/><path d="M778.403 457.486c0 7.276 3.235 14.147 8.492 18.998 2.022 2.021 4.853 4.042 7.684 5.255v6.871c-4.853-1.617-8.897-4.446-12.132-7.68-6.471-6.063-10.11-14.147-10.11-23.444v-6.467h6.47v6.467h-.404zM739.58 451.019h6.471v6.467c0 9.297-4.044 17.381-10.11 23.444-3.64 3.234-7.684 6.063-12.132 7.68v-6.871c2.831-1.213 5.257-3.234 7.683-5.255 5.258-4.851 8.493-11.722 8.493-18.998v-6.467h-.405zM752.521 484.568c-1.617 2.426-3.639 4.447-5.661 6.468-6.471 6.063-14.154 10.509-23.051 12.53v6.468c10.919-2.021 20.22-7.276 27.903-14.552 1.618-1.617 3.235-3.234 4.449-4.85l-3.64-6.064zM701.227 597.632c1.213 1.616 2.83 3.233 4.448 4.85 7.683 7.276 16.985 12.126 27.903 14.552v-6.468c-8.896-2.021-16.984-6.467-23.05-12.53-2.022-2.021-4.044-4.042-5.662-6.468l-3.639 6.064z"/><path d="M677.772 590.76c6.874-6.871 11.323-15.764 11.323-25.869V537h6.47v27.891c0 4.85.809 10.913 2.426 15.36 1.618-4.447 2.427-10.106 2.427-15.36V537h6.47v27.891c0 10.105 4.449 19.402 11.323 25.869 4.044 4.042 9.301 6.872 14.963 8.893v6.467c-7.684-2.021-14.154-6.063-19.815-10.913-4.044-4.043-7.28-8.489-9.706-13.339-1.618 4.446-3.64 8.488-6.066 11.722-2.426-3.234-4.448-7.276-6.066-11.722-2.426 5.254-5.662 9.701-9.706 13.339-5.257 5.254-12.131 8.892-19.815 10.913v-6.467c6.47-1.617 11.728-4.851 15.772-8.893z"/><path d="M717.403 564.486c0 7.276 3.235 14.147 8.492 18.998 2.022 2.021 4.853 4.042 7.684 5.255v6.871c-4.853-1.617-8.897-4.446-12.132-7.68-6.471-6.063-10.11-14.147-10.11-23.444v-6.467h6.47v6.467h-.404zM678.58 558.019h6.471v6.467c0 9.297-4.044 17.381-10.11 23.444-3.64 3.234-7.684 6.063-12.132 7.68v-6.871c2.831-1.213 5.257-3.234 7.683-5.255 5.258-4.851 8.493-11.722 8.493-18.998v-6.467h-.405zM691.521 591.568c-1.617 2.426-3.639 4.447-5.661 6.468-6.471 6.063-14.154 10.509-23.051 12.53v6.468c10.919-2.021 20.22-7.276 27.903-14.552 1.618-1.617 3.235-3.234 4.449-4.85l-3.64-6.064zM761.227 709.632c1.213 1.616 2.83 3.233 4.448 4.85 7.683 7.276 16.985 12.126 27.903 14.552v-6.468c-8.896-2.021-16.984-6.467-23.05-12.53-2.022-2.021-4.044-4.042-5.662-6.468l-3.639 6.064z"/><path d="M737.772 702.76c6.874-6.871 11.323-15.764 11.323-25.869V649h6.47v27.891c0 4.85.809 10.913 2.426 15.36 1.618-4.447 2.427-10.106 2.427-15.36V649h6.47v27.891c0 10.105 4.449 19.402 11.323 25.869 4.044 4.042 9.301 6.872 14.963 8.893v6.467c-7.684-2.021-14.154-6.063-19.815-10.913-4.044-4.043-7.28-8.489-9.706-13.339-1.618 4.446-3.64 8.488-6.066 11.722-2.426-3.234-4.448-7.276-6.066-11.722-2.426 5.254-5.662 9.701-9.706 13.339-5.257 5.254-12.131 8.892-19.815 10.913v-6.467c6.47-1.617 11.728-4.851 15.772-8.893z"/><path d="M777.403 676.486c0 7.276 3.235 14.147 8.492 18.998 2.022 2.021 4.853 4.042 7.684 5.255v6.871c-4.853-1.617-8.897-4.446-12.132-7.68-6.471-6.063-10.11-14.147-10.11-23.444v-6.467h6.47v6.467h-.404zM738.58 670.019h6.471v6.467c0 9.297-4.044 17.381-10.11 23.444-3.64 3.234-7.684 6.063-12.132 7.68v-6.871c2.831-1.213 5.257-3.234 7.683-5.255 5.258-4.851 8.493-11.722 8.493-18.998v-6.467h-.405zM751.521 703.568c-1.617 2.426-3.639 4.447-5.661 6.468-6.471 6.063-14.154 10.509-23.051 12.53v6.468c10.919-2.021 20.22-7.276 27.903-14.552 1.618-1.617 3.235-3.234 4.449-4.85l-3.64-6.064zM564.227 154.632c1.213 1.616 2.83 3.233 4.448 4.85 7.683 7.276 16.985 12.126 27.903 14.552v-6.468c-8.896-2.021-16.984-6.467-23.05-12.53-2.022-2.021-4.044-4.042-5.662-6.468l-3.639 6.064z"/><path d="M540.772 147.76c6.874-6.871 11.323-15.764 11.323-25.869V94h6.47v27.891c0 4.85.809 10.913 2.426 15.36 1.618-4.447 2.427-10.106 2.427-15.36V94h6.47v27.891c0 10.105 4.449 19.402 11.323 25.869 4.044 4.042 9.301 6.872 14.963 8.893v6.467c-7.684-2.021-14.154-6.063-19.815-10.913-4.044-4.043-7.28-8.489-9.706-13.339-1.618 4.446-3.64 8.488-6.066 11.722-2.426-3.234-4.448-7.276-6.066-11.722-2.426 5.254-5.662 9.701-9.706 13.339-5.257 5.254-12.131 8.892-19.815 10.913v-6.467c6.47-1.617 11.728-4.851 15.772-8.893z"/><path d="M580.403 121.486c0 7.276 3.235 14.147 8.492 18.998 2.022 2.021 4.853 4.042 7.684 5.255v6.871c-4.853-1.617-8.897-4.446-12.132-7.68-6.471-6.063-10.11-14.147-10.11-23.444v-6.467h6.47v6.467h-.404zM541.58 115.019h6.471v6.467c0 9.297-4.044 17.381-10.11 23.444-3.64 3.234-7.684 6.063-12.132 7.68v-6.871c2.831-1.213 5.257-3.234 7.683-5.255 5.258-4.851 8.493-11.722 8.493-18.998v-6.467h-.405zM554.521 148.568c-1.617 2.426-3.639 4.447-5.661 6.468-6.471 6.063-14.154 10.509-23.051 12.53v6.468c10.919-2.021 20.22-7.276 27.903-14.552 1.618-1.617 3.235-3.234 4.449-4.85l-3.64-6.064zM626.227 266.632c1.213 1.616 2.83 3.233 4.448 4.85 7.683 7.276 16.985 12.126 27.903 14.552v-6.468c-8.896-2.021-16.984-6.467-23.05-12.53-2.022-2.021-4.044-4.042-5.662-6.468l-3.639 6.064z"/><path d="M602.772 259.76c6.874-6.871 11.323-15.764 11.323-25.869V206h6.47v27.891c0 4.85.809 10.913 2.426 15.36 1.618-4.447 2.427-10.106 2.427-15.36V206h6.47v27.891c0 10.105 4.449 19.402 11.323 25.869 4.044 4.042 9.301 6.872 14.963 8.893v6.467c-7.684-2.021-14.154-6.063-19.815-10.913-4.044-4.043-7.28-8.489-9.706-13.339-1.618 4.446-3.64 8.488-6.066 11.722-2.426-3.234-4.448-7.276-6.066-11.722-2.426 5.254-5.662 9.701-9.706 13.339-5.257 5.254-12.131 8.892-19.815 10.913v-6.467c6.47-1.617 11.728-4.851 15.772-8.893z"/><path d="M642.403 233.486c0 7.276 3.235 14.147 8.492 18.998 2.022 2.021 4.853 4.042 7.684 5.255v6.871c-4.853-1.617-8.897-4.446-12.132-7.68-6.471-6.063-10.11-14.147-10.11-23.444v-6.467h6.47v6.467h-.404zM603.58 227.019h6.471v6.467c0 9.297-4.044 17.381-10.11 23.444-3.64 3.234-7.684 6.063-12.132 7.68v-6.871c2.831-1.213 5.257-3.234 7.683-5.255 5.258-4.851 8.493-11.722 8.493-18.998v-6.467h-.405zM616.521 260.568c-1.617 2.426-3.639 4.447-5.661 6.468-6.471 6.063-14.154 10.509-23.051 12.53v6.468c10.919-2.021 20.22-7.276 27.903-14.552 1.618-1.617 3.235-3.234 4.449-4.85l-3.64-6.064zM565.227 378.632c1.213 1.616 2.83 3.233 4.448 4.85 7.683 7.276 16.985 12.126 27.903 14.552v-6.468c-8.896-2.021-16.984-6.467-23.05-12.53-2.022-2.021-4.044-4.042-5.662-6.468l-3.639 6.064z"/><path d="M541.772 371.76c6.874-6.871 11.323-15.764 11.323-25.869V318h6.47v27.891c0 4.85.809 10.913 2.426 15.36 1.618-4.447 2.427-10.106 2.427-15.36V318h6.47v27.891c0 10.105 4.449 19.402 11.323 25.869 4.044 4.042 9.301 6.872 14.963 8.893v6.467c-7.684-2.021-14.154-6.063-19.815-10.913-4.044-4.043-7.28-8.489-9.706-13.339-1.618 4.446-3.64 8.488-6.066 11.722-2.426-3.234-4.448-7.276-6.066-11.722-2.426 5.254-5.662 9.701-9.706 13.339-5.257 5.254-12.131 8.892-19.815 10.913v-6.467c6.47-1.617 11.728-4.851 15.772-8.893z"/><path d="M581.403 345.486c0 7.276 3.235 14.147 8.492 18.998 2.022 2.021 4.853 4.042 7.684 5.255v6.871c-4.853-1.617-8.897-4.446-12.132-7.68-6.471-6.063-10.11-14.147-10.11-23.444v-6.467h6.47v6.467h-.404zM542.58 339.019h6.471v6.467c0 9.297-4.044 17.381-10.11 23.444-3.64 3.234-7.684 6.063-12.132 7.68v-6.871c2.831-1.213 5.257-3.234 7.683-5.255 5.258-4.851 8.493-11.722 8.493-18.998v-6.467h-.405zM555.521 372.568c-1.617 2.426-3.639 4.447-5.661 6.468-6.471 6.063-14.154 10.509-23.051 12.53v6.468c10.919-2.021 20.22-7.276 27.903-14.552 1.618-1.617 3.235-3.234 4.449-4.85l-3.64-6.064zM625.227 490.632c1.213 1.616 2.83 3.233 4.448 4.85 7.683 7.276 16.985 12.126 27.903 14.552v-6.468c-8.896-2.021-16.984-6.467-23.05-12.53-2.022-2.021-4.044-4.042-5.662-6.468l-3.639 6.064z"/><path d="M601.772 483.76c6.874-6.871 11.323-15.764 11.323-25.869V430h6.47v27.891c0 4.85.809 10.913 2.426 15.36 1.618-4.447 2.427-10.106 2.427-15.36V430h6.47v27.891c0 10.105 4.449 19.402 11.323 25.869 4.044 4.042 9.301 6.872 14.963 8.893v6.467c-7.684-2.021-14.154-6.063-19.815-10.913-4.044-4.043-7.28-8.489-9.706-13.339-1.618 4.446-3.64 8.488-6.066 11.722-2.426-3.234-4.448-7.276-6.066-11.722-2.426 5.254-5.662 9.701-9.706 13.339-5.257 5.254-12.131 8.892-19.815 10.913v-6.467c6.47-1.617 11.728-4.851 15.772-8.893z"/><path d="M641.403 457.486c0 7.276 3.235 14.147 8.492 18.998 2.022 2.021 4.853 4.042 7.684 5.255v6.871c-4.853-1.617-8.897-4.446-12.132-7.68-6.471-6.063-10.11-14.147-10.11-23.444v-6.467h6.47v6.467h-.404zM602.58 451.019h6.471v6.467c0 9.297-4.044 17.381-10.11 23.444-3.64 3.234-7.684 6.063-12.132 7.68v-6.871c2.831-1.213 5.257-3.234 7.683-5.255 5.258-4.851 8.493-11.722 8.493-18.998v-6.467h-.405zM615.521 484.568c-1.617 2.426-3.639 4.447-5.661 6.468-6.471 6.063-14.154 10.509-23.051 12.53v6.468c10.919-2.021 20.22-7.276 27.903-14.552 1.618-1.617 3.235-3.234 4.449-4.85l-3.64-6.064zM564.227 597.632c1.213 1.616 2.83 3.233 4.448 4.85 7.683 7.276 16.985 12.126 27.903 14.552v-6.468c-8.896-2.021-16.984-6.467-23.05-12.53-2.022-2.021-4.044-4.042-5.662-6.468l-3.639 6.064z"/><path d="M540.772 590.76c6.874-6.871 11.323-15.764 11.323-25.869V537h6.47v27.891c0 4.85.809 10.913 2.426 15.36 1.618-4.447 2.427-10.106 2.427-15.36V537h6.47v27.891c0 10.105 4.449 19.402 11.323 25.869 4.044 4.042 9.301 6.872 14.963 8.893v6.467c-7.684-2.021-14.154-6.063-19.815-10.913-4.044-4.043-7.28-8.489-9.706-13.339-1.618 4.446-3.64 8.488-6.066 11.722-2.426-3.234-4.448-7.276-6.066-11.722-2.426 5.254-5.662 9.701-9.706 13.339-5.257 5.254-12.131 8.892-19.815 10.913v-6.467c6.47-1.617 11.728-4.851 15.772-8.893z"/><path d="M580.403 564.486c0 7.276 3.235 14.147 8.492 18.998 2.022 2.021 4.853 4.042 7.684 5.255v6.871c-4.853-1.617-8.897-4.446-12.132-7.68-6.471-6.063-10.11-14.147-10.11-23.444v-6.467h6.47v6.467h-.404zM541.58 558.019h6.471v6.467c0 9.297-4.044 17.381-10.11 23.444-3.64 3.234-7.684 6.063-12.132 7.68v-6.871c2.831-1.213 5.257-3.234 7.683-5.255 5.258-4.851 8.493-11.722 8.493-18.998v-6.467h-.405zM554.521 591.568c-1.617 2.426-3.639 4.447-5.661 6.468-6.471 6.063-14.154 10.509-23.051 12.53v6.468c10.919-2.021 20.22-7.276 27.903-14.552 1.618-1.617 3.235-3.234 4.449-4.85l-3.64-6.064zM624.227 709.632c1.213 1.616 2.83 3.233 4.448 4.85 7.683 7.276 16.985 12.126 27.903 14.552v-6.468c-8.896-2.021-16.984-6.467-23.05-12.53-2.022-2.021-4.044-4.042-5.662-6.468l-3.639 6.064z"/><path d="M600.772 702.76c6.874-6.871 11.323-15.764 11.323-25.869V649h6.47v27.891c0 4.85.809 10.913 2.426 15.36 1.618-4.447 2.427-10.106 2.427-15.36V649h6.47v27.891c0 10.105 4.449 19.402 11.323 25.869 4.044 4.042 9.301 6.872 14.963 8.893v6.467c-7.684-2.021-14.154-6.063-19.815-10.913-4.044-4.043-7.28-8.489-9.706-13.339-1.618 4.446-3.64 8.488-6.066 11.722-2.426-3.234-4.448-7.276-6.066-11.722-2.426 5.254-5.662 9.701-9.706 13.339-5.257 5.254-12.131 8.892-19.815 10.913v-6.467c6.47-1.617 11.728-4.851 15.772-8.893z"/><path d="M640.403 676.486c0 7.276 3.235 14.147 8.492 18.998 2.022 2.021 4.853 4.042 7.684 5.255v6.871c-4.853-1.617-8.897-4.446-12.132-7.68-6.471-6.063-10.11-14.147-10.11-23.444v-6.467h6.47v6.467h-.404zM601.58 670.019h6.471v6.467c0 9.297-4.044 17.381-10.11 23.444-3.64 3.234-7.684 6.063-12.132 7.68v-6.871c2.831-1.213 5.257-3.234 7.683-5.255 5.258-4.851 8.493-11.722 8.493-18.998v-6.467h-.405zM614.521 703.568c-1.617 2.426-3.639 4.447-5.661 6.468-6.471 6.063-14.154 10.509-23.051 12.53v6.468c10.919-2.021 20.22-7.276 27.903-14.552 1.618-1.617 3.235-3.234 4.449-4.85l-3.64-6.064zM14.227 154.632c1.213 1.616 2.83 3.233 4.448 4.85 7.683 7.276 16.985 12.126 27.903 14.552v-6.468c-8.896-2.021-16.984-6.467-23.05-12.53-2.022-2.021-4.044-4.042-5.662-6.468l-3.64 6.064z"/><path d="M-9.228 147.76c6.874-6.871 11.323-15.764 11.323-25.869V94h6.47v27.891c0 4.85.809 10.913 2.426 15.36 1.618-4.447 2.427-10.106 2.427-15.36V94h6.47v27.891c0 10.105 4.448 19.402 11.323 25.869 4.044 4.042 9.301 6.872 14.963 8.893v6.467c-7.684-2.021-14.154-6.063-19.816-10.913-4.044-4.043-7.279-8.489-9.705-13.339-1.618 4.446-3.64 8.488-6.066 11.722-2.426-3.234-4.448-7.276-6.066-11.722-2.426 5.254-5.662 9.701-9.706 13.339-5.257 5.254-12.131 8.892-19.815 10.913v-6.467c6.47-1.617 11.727-4.851 15.772-8.893z"/><path d="M30.403 121.486c0 7.276 3.235 14.147 8.492 18.998 2.022 2.021 4.853 4.042 7.684 5.255v6.871c-4.853-1.617-8.897-4.446-12.132-7.68-6.47-6.063-10.11-14.147-10.11-23.444v-6.467h6.47v6.467h-.404zM4.521 148.568c-1.617 2.426-3.64 4.447-5.661 6.468-6.47 6.063-14.154 10.509-23.051 12.53v6.468c10.919-2.021 20.22-7.276 27.903-14.552 1.618-1.617 3.235-3.234 4.449-4.85l-3.64-6.064zM76.227 266.632c1.213 1.616 2.83 3.233 4.448 4.85 7.684 7.276 16.985 12.126 27.903 14.552v-6.468c-8.896-2.021-16.984-6.467-23.05-12.53-2.022-2.021-4.044-4.042-5.662-6.468l-3.64 6.064z"/><path d="M52.772 259.76c6.874-6.871 11.323-15.764 11.323-25.869V206h6.47v27.891c0 4.85.809 10.913 2.426 15.36 1.618-4.447 2.427-10.106 2.427-15.36V206h6.47v27.891c0 10.105 4.448 19.402 11.323 25.869 4.044 4.042 9.301 6.872 14.963 8.893v6.467c-7.684-2.021-14.154-6.063-19.816-10.913-4.044-4.043-7.279-8.489-9.705-13.339-1.618 4.446-3.64 8.488-6.066 11.722-2.426-3.234-4.448-7.276-6.066-11.722-2.426 5.254-5.662 9.701-9.706 13.339-5.257 5.254-12.131 8.892-19.815 10.913v-6.467c6.47-1.617 11.727-4.851 15.772-8.893z"/><path d="M92.403 233.486c0 7.276 3.235 14.147 8.492 18.998 2.022 2.021 4.853 4.042 7.684 5.255v6.871c-4.853-1.617-8.897-4.446-12.132-7.68-6.47-6.063-10.11-14.147-10.11-23.444v-6.467h6.47v6.467h-.404zM53.58 227.019h6.47v6.467c0 9.297-4.043 17.381-10.11 23.444-3.639 3.234-7.683 6.063-12.131 7.68v-6.871c2.83-1.213 5.257-3.234 7.683-5.255 5.258-4.851 8.493-11.722 8.493-18.998v-6.467h-.405zM66.521 260.568c-1.618 2.426-3.64 4.447-5.662 6.468-6.47 6.063-14.153 10.509-23.05 12.53v6.468c10.919-2.021 20.22-7.276 27.903-14.552 1.618-1.617 3.236-3.234 4.449-4.85l-3.64-6.064zM15.227 378.632c1.213 1.616 2.83 3.233 4.448 4.85 7.683 7.276 16.985 12.126 27.903 14.552v-6.468c-8.896-2.021-16.984-6.467-23.05-12.53-2.022-2.021-4.044-4.042-5.662-6.468l-3.64 6.064z"/><path d="M-8.228 371.76c6.874-6.871 11.323-15.764 11.323-25.869V318h6.47v27.891c0 4.85.809 10.913 2.426 15.36 1.618-4.447 2.427-10.106 2.427-15.36V318h6.47v27.891c0 10.105 4.448 19.402 11.323 25.869 4.044 4.042 9.301 6.872 14.963 8.893v6.467c-7.684-2.021-14.154-6.063-19.816-10.913-4.044-4.043-7.279-8.489-9.705-13.339-1.618 4.446-3.64 8.488-6.066 11.722-2.426-3.234-4.448-7.276-6.066-11.722-2.426 5.254-5.662 9.701-9.706 13.339-5.257 5.254-12.131 8.892-19.815 10.913v-6.467c6.47-1.617 11.727-4.851 15.772-8.893z"/><path d="M31.403 345.486c0 7.276 3.235 14.147 8.492 18.998 2.022 2.021 4.853 4.042 7.684 5.255v6.871c-4.853-1.617-8.897-4.446-12.132-7.68-6.47-6.063-10.11-14.147-10.11-23.444v-6.467h6.47v6.467h-.404zM5.521 372.568c-1.617 2.426-3.64 4.447-5.661 6.468-6.47 6.063-14.154 10.509-23.051 12.53v6.468c10.919-2.021 20.22-7.276 27.903-14.552 1.618-1.617 3.235-3.234 4.449-4.85l-3.64-6.064zM75.227 490.632c1.213 1.616 2.83 3.233 4.448 4.85 7.684 7.276 16.985 12.126 27.903 14.552v-6.468c-8.896-2.021-16.984-6.467-23.05-12.53-2.022-2.021-4.044-4.042-5.662-6.468l-3.64 6.064z"/><path d="M51.772 483.76c6.874-6.871 11.323-15.764 11.323-25.869V430h6.47v27.891c0 4.85.809 10.913 2.426 15.36 1.618-4.447 2.427-10.106 2.427-15.36V430h6.47v27.891c0 10.105 4.448 19.402 11.323 25.869 4.044 4.042 9.301 6.872 14.963 8.893v6.467c-7.684-2.021-14.154-6.063-19.816-10.913-4.044-4.043-7.279-8.489-9.705-13.339-1.618 4.446-3.64 8.488-6.066 11.722-2.426-3.234-4.448-7.276-6.066-11.722-2.426 5.254-5.662 9.701-9.706 13.339-5.257 5.254-12.131 8.892-19.815 10.913v-6.467c6.47-1.617 11.727-4.851 15.772-8.893z"/><path d="M91.403 457.486c0 7.276 3.235 14.147 8.492 18.998 2.022 2.021 4.853 4.042 7.684 5.255v6.871c-4.853-1.617-8.897-4.446-12.132-7.68-6.47-6.063-10.11-14.147-10.11-23.444v-6.467h6.47v6.467h-.404zM52.58 451.019h6.47v6.467c0 9.297-4.043 17.381-10.11 23.444-3.639 3.234-7.683 6.063-12.131 7.68v-6.871c2.83-1.213 5.257-3.234 7.683-5.255 5.258-4.851 8.493-11.722 8.493-18.998v-6.467h-.405zM65.521 484.568c-1.617 2.426-3.64 4.447-5.662 6.468-6.47 6.063-14.153 10.509-23.05 12.53v6.468c10.919-2.021 20.22-7.276 27.903-14.552 1.618-1.617 3.236-3.234 4.449-4.85l-3.64-6.064zM14.227 597.632c1.213 1.616 2.83 3.233 4.448 4.85 7.683 7.276 16.985 12.126 27.903 14.552v-6.468c-8.896-2.021-16.984-6.467-23.05-12.53-2.022-2.021-4.044-4.042-5.662-6.468l-3.64 6.064z"/><path d="M-9.228 590.76c6.874-6.871 11.323-15.764 11.323-25.869V537h6.47v27.891c0 4.85.809 10.913 2.426 15.36 1.618-4.447 2.427-10.106 2.427-15.36V537h6.47v27.891c0 10.105 4.448 19.402 11.323 25.869 4.044 4.042 9.301 6.872 14.963 8.893v6.467c-7.684-2.021-14.154-6.063-19.816-10.913-4.044-4.043-7.279-8.489-9.705-13.339-1.618 4.446-3.64 8.488-6.066 11.722-2.426-3.234-4.448-7.276-6.066-11.722-2.426 5.254-5.662 9.701-9.706 13.339-5.257 5.254-12.131 8.892-19.815 10.913v-6.467c6.47-1.617 11.727-4.851 15.772-8.893z"/><path d="M30.403 564.486c0 7.276 3.235 14.147 8.492 18.998 2.022 2.021 4.853 4.042 7.684 5.255v6.871c-4.853-1.617-8.897-4.446-12.132-7.68-6.47-6.063-10.11-14.147-10.11-23.444v-6.467h6.47v6.467h-.404zM4.521 591.568c-1.617 2.426-3.64 4.447-5.661 6.468-6.47 6.063-14.154 10.509-23.051 12.53v6.468c10.919-2.021 20.22-7.276 27.903-14.552 1.618-1.617 3.235-3.234 4.449-4.85l-3.64-6.064zM74.227 709.632c1.213 1.616 2.83 3.233 4.448 4.85 7.684 7.276 16.985 12.126 27.903 14.552v-6.468c-8.896-2.021-16.984-6.467-23.05-12.53-2.022-2.021-4.044-4.042-5.662-6.468l-3.64 6.064z"/><path d="M50.772 702.76c6.874-6.871 11.323-15.764 11.323-25.869V649h6.47v27.891c0 4.85.809 10.913 2.426 15.36 1.618-4.447 2.427-10.106 2.427-15.36V649h6.47v27.891c0 10.105 4.448 19.402 11.323 25.869 4.044 4.042 9.301 6.872 14.963 8.893v6.467c-7.684-2.021-14.154-6.063-19.816-10.913-4.044-4.043-7.279-8.489-9.705-13.339-1.618 4.446-3.64 8.488-6.066 11.722-2.426-3.234-4.448-7.276-6.066-11.722-2.426 5.254-5.662 9.701-9.706 13.339-5.257 5.254-12.131 8.892-19.815 10.913v-6.467c6.47-1.617 11.727-4.851 15.772-8.893z"/><path d="M90.403 676.486c0 7.276 3.235 14.147 8.492 18.998 2.022 2.021 4.853 4.042 7.684 5.255v6.871c-4.853-1.617-8.897-4.446-12.132-7.68-6.47-6.063-10.11-14.147-10.11-23.444v-6.467h6.47v6.467h-.404zM51.58 670.019h6.47v6.467c0 9.297-4.043 17.381-10.11 23.444-3.639 3.234-7.683 6.063-12.131 7.68v-6.871c2.83-1.213 5.257-3.234 7.683-5.255 5.258-4.851 8.493-11.722 8.493-18.998v-6.467h-.405zM64.521 703.568c-1.617 2.426-3.64 4.447-5.662 6.468-6.47 6.063-14.153 10.509-23.05 12.53v6.468c10.919-2.021 20.22-7.276 27.903-14.552 1.618-1.617 3.236-3.234 4.449-4.85l-3.64-6.064zM487.227 42.632c1.213 1.616 2.83 3.233 4.448 4.85 7.683 7.276 16.985 12.127 27.903 14.552v-6.468c-8.896-2.02-16.984-6.467-23.05-12.53-2.022-2.021-4.044-4.042-5.662-6.468l-3.639 6.064z"/><path d="M463.772 35.76c6.874-6.871 11.323-15.764 11.323-25.87V-18h6.47V9.89c0 4.851.809 10.914 2.426 15.36 1.618-4.446 2.427-10.105 2.427-15.36V-18h6.47V9.89c0 10.106 4.449 19.403 11.323 25.87 4.044 4.042 9.301 6.872 14.963 8.893v6.467c-7.684-2.02-14.154-6.063-19.815-10.913-4.044-4.043-7.28-8.489-9.706-13.34-1.618 4.447-3.64 8.49-6.066 11.723-2.426-3.234-4.448-7.276-6.066-11.722-2.426 5.254-5.662 9.7-9.706 13.339-5.257 5.254-12.131 8.892-19.815 10.913v-6.467c6.47-1.617 11.728-4.85 15.772-8.893z"/><path d="M503.403 9.486c0 7.276 3.235 14.147 8.492 18.998 2.022 2.021 4.853 4.042 7.684 5.255v6.871c-4.853-1.617-8.897-4.446-12.132-7.68-6.471-6.063-10.11-14.147-10.11-23.444V3.019h6.47v6.467h-.404zM464.58 3.019h6.471v6.467c0 9.297-4.044 17.381-10.11 23.444-3.64 3.234-7.684 6.063-12.132 7.68V33.74c2.831-1.213 5.257-3.234 7.683-5.255 5.258-4.85 8.493-11.722 8.493-18.998V3.019h-.405zM477.521 36.568c-1.617 2.426-3.639 4.447-5.661 6.468-6.471 6.063-14.154 10.51-23.051 12.53v6.468c10.919-2.021 20.22-7.276 27.903-14.552 1.618-1.617 3.235-3.234 4.449-4.85l-3.64-6.064zM350.227 42.632c1.213 1.616 2.83 3.233 4.448 4.85 7.683 7.276 16.985 12.127 27.903 14.552v-6.468c-8.896-2.02-16.984-6.467-23.05-12.53-2.022-2.021-4.044-4.042-5.662-6.468l-3.639 6.064z"/><path d="M326.772 35.76c6.874-6.871 11.323-15.764 11.323-25.87V-18h6.47V9.89c0 4.851.809 10.914 2.426 15.36 1.618-4.446 2.427-10.105 2.427-15.36V-18h6.47V9.89c0 10.106 4.449 19.403 11.323 25.87 4.044 4.042 9.301 6.872 14.963 8.893v6.467c-7.684-2.02-14.154-6.063-19.815-10.913-4.044-4.043-7.28-8.489-9.706-13.34-1.618 4.447-3.64 8.49-6.066 11.723-2.426-3.234-4.448-7.276-6.066-11.722-2.426 5.254-5.662 9.7-9.706 13.339-5.257 5.254-12.131 8.892-19.815 10.913v-6.467c6.47-1.617 11.728-4.85 15.772-8.893z"/><path d="M366.403 9.486c0 7.276 3.235 14.147 8.492 18.998 2.022 2.021 4.853 4.042 7.684 5.255v6.871c-4.853-1.617-8.897-4.446-12.132-7.68-6.471-6.063-10.11-14.147-10.11-23.444V3.019h6.47v6.467h-.404zM327.58 3.019h6.471v6.467c0 9.297-4.044 17.381-10.11 23.444-3.64 3.234-7.684 6.063-12.132 7.68V33.74c2.831-1.213 5.257-3.234 7.683-5.255 5.258-4.85 8.493-11.722 8.493-18.998V3.019h-.405zM340.521 36.568c-1.617 2.426-3.639 4.447-5.661 6.468-6.471 6.063-14.154 10.51-23.051 12.53v6.468c10.919-2.021 20.22-7.276 27.903-14.552 1.618-1.617 3.235-3.234 4.449-4.85l-3.64-6.064zM1035.23 42.632c1.21 1.616 2.83 3.233 4.44 4.85 7.69 7.276 16.99 12.127 27.91 14.552v-6.468c-8.9-2.02-16.99-6.467-23.05-12.53-2.02-2.021-4.05-4.042-5.66-6.468l-3.64 6.064z"/><path d="M1011.77 35.76c6.88-6.871 11.32-15.764 11.32-25.87V-18h6.48V9.89c0 4.851.8 10.914 2.42 15.36 1.62-4.446 2.43-10.105 2.43-15.36V-18h6.47V9.89c0 10.106 4.45 19.403 11.32 25.87 4.05 4.042 9.3 6.872 14.96 8.893v6.467c-7.68-2.02-14.15-6.063-19.81-10.913-4.05-4.043-7.28-8.489-9.71-13.34-1.61 4.447-3.64 8.49-6.06 11.723-2.43-3.234-4.45-7.276-6.07-11.722-2.43 5.254-5.66 9.7-9.7 13.339-5.26 5.254-12.14 8.892-19.82 10.913v-6.467c6.47-1.617 11.73-4.85 15.77-8.893z"/><path d="M1051.4 9.486c0 7.276 3.24 14.147 8.49 18.998 2.03 2.021 4.86 4.042 7.69 5.255v6.871c-4.85-1.617-8.9-4.446-12.13-7.68-6.47-6.063-10.11-14.147-10.11-23.444V3.019h6.47v6.467h-.41zM1012.58 3.019h6.47v6.467c0 9.297-4.04 17.381-10.11 23.444-3.64 3.234-7.68 6.063-12.131 7.68V33.74c2.831-1.213 5.261-3.234 7.681-5.255 5.26-4.85 8.49-11.722 8.49-18.998V3.019h-.4zM1025.52 36.568c-1.62 2.426-3.64 4.447-5.66 6.468-6.47 6.063-14.15 10.51-23.051 12.53v6.468c10.921-2.021 20.221-7.276 27.901-14.552 1.62-1.617 3.24-3.234 4.45-4.85l-3.64-6.064zM898.227 42.632c1.213 1.616 2.83 3.233 4.448 4.85 7.683 7.276 16.985 12.127 27.903 14.552v-6.468c-8.896-2.02-16.984-6.467-23.05-12.53-2.022-2.021-4.044-4.042-5.662-6.468l-3.639 6.064z"/><path d="M874.772 35.76c6.874-6.871 11.323-15.764 11.323-25.87V-18h6.47V9.89c0 4.851.809 10.914 2.426 15.36 1.618-4.446 2.427-10.105 2.427-15.36V-18h6.47V9.89c0 10.106 4.449 19.403 11.323 25.87 4.044 4.042 9.301 6.872 14.963 8.893v6.467c-7.684-2.02-14.154-6.063-19.815-10.913-4.044-4.043-7.28-8.489-9.706-13.34-1.618 4.447-3.64 8.49-6.066 11.723-2.426-3.234-4.448-7.276-6.066-11.722-2.426 5.254-5.662 9.7-9.706 13.339-5.257 5.254-12.131 8.892-19.815 10.913v-6.467c6.47-1.617 11.728-4.85 15.772-8.893z"/><path d="M914.403 9.486c0 7.276 3.235 14.147 8.492 18.998 2.022 2.021 4.853 4.042 7.684 5.255v6.871c-4.853-1.617-8.897-4.446-12.132-7.68-6.471-6.063-10.11-14.147-10.11-23.444V3.019h6.47v6.467h-.404zM875.58 3.019h6.471v6.467c0 9.297-4.044 17.381-10.11 23.444-3.64 3.234-7.684 6.063-12.132 7.68V33.74c2.831-1.213 5.257-3.234 7.683-5.255 5.258-4.85 8.493-11.722 8.493-18.998V3.019h-.405zM888.521 36.568c-1.617 2.426-3.639 4.447-5.661 6.468-6.471 6.063-14.154 10.51-23.051 12.53v6.468c10.919-2.021 20.22-7.276 27.903-14.552 1.618-1.617 3.235-3.234 4.449-4.85l-3.64-6.064zM212.227 42.632c1.213 1.616 2.83 3.233 4.448 4.85 7.683 7.276 16.985 12.127 27.903 14.552v-6.468c-8.896-2.02-16.984-6.467-23.05-12.53-2.022-2.021-4.044-4.042-5.662-6.468l-3.639 6.064z"/><path d="M188.772 35.76c6.874-6.871 11.323-15.764 11.323-25.87V-18h6.47V9.89c0 4.851.809 10.914 2.426 15.36 1.618-4.446 2.427-10.105 2.427-15.36V-18h6.47V9.89c0 10.106 4.449 19.403 11.323 25.87 4.044 4.042 9.301 6.872 14.963 8.893v6.467c-7.684-2.02-14.154-6.063-19.815-10.913-4.044-4.043-7.28-8.489-9.706-13.34-1.618 4.447-3.64 8.49-6.066 11.723-2.426-3.234-4.448-7.276-6.066-11.722-2.426 5.254-5.662 9.7-9.706 13.339-5.257 5.254-12.131 8.892-19.815 10.913v-6.467c6.47-1.617 11.728-4.85 15.772-8.893z"/><path d="M228.403 9.486c0 7.276 3.235 14.147 8.492 18.998 2.022 2.021 4.853 4.042 7.684 5.255v6.871c-4.853-1.617-8.897-4.446-12.132-7.68-6.471-6.063-10.11-14.147-10.11-23.444V3.019h6.47v6.467h-.404zM189.58 3.019h6.471v6.467c0 9.297-4.044 17.381-10.11 23.444-3.64 3.234-7.684 6.063-12.132 7.68V33.74c2.831-1.213 5.257-3.234 7.683-5.255 5.258-4.85 8.493-11.722 8.493-18.998V3.019h-.405zM202.521 36.568c-1.617 2.426-3.639 4.447-5.661 6.468-6.471 6.063-14.154 10.51-23.051 12.53v6.468c10.919-2.021 20.22-7.276 27.903-14.552 1.618-1.617 3.235-3.234 4.449-4.85l-3.64-6.064zM762.227 42.632c1.213 1.616 2.83 3.233 4.448 4.85 7.683 7.276 16.985 12.127 27.903 14.552v-6.468c-8.896-2.02-16.984-6.467-23.05-12.53-2.022-2.021-4.044-4.042-5.662-6.468l-3.639 6.064z"/><path d="M738.772 35.76c6.874-6.871 11.323-15.764 11.323-25.87V-18h6.47V9.89c0 4.851.809 10.914 2.426 15.36 1.618-4.446 2.427-10.105 2.427-15.36V-18h6.47V9.89c0 10.106 4.449 19.403 11.323 25.87 4.044 4.042 9.301 6.872 14.963 8.893v6.467c-7.684-2.02-14.154-6.063-19.815-10.913-4.044-4.043-7.28-8.489-9.706-13.34-1.618 4.447-3.64 8.49-6.066 11.723-2.426-3.234-4.448-7.276-6.066-11.722-2.426 5.254-5.662 9.7-9.706 13.339-5.257 5.254-12.131 8.892-19.815 10.913v-6.467c6.47-1.617 11.728-4.85 15.772-8.893z"/><path d="M778.403 9.486c0 7.276 3.235 14.147 8.492 18.998 2.022 2.021 4.853 4.042 7.684 5.255v6.871c-4.853-1.617-8.897-4.446-12.132-7.68-6.471-6.063-10.11-14.147-10.11-23.444V3.019h6.47v6.467h-.404zM739.58 3.019h6.471v6.467c0 9.297-4.044 17.381-10.11 23.444-3.64 3.234-7.684 6.063-12.132 7.68V33.74c2.831-1.213 5.257-3.234 7.683-5.255 5.258-4.85 8.493-11.722 8.493-18.998V3.019h-.405zM752.521 36.568c-1.617 2.426-3.639 4.447-5.661 6.468-6.471 6.063-14.154 10.51-23.051 12.53v6.468c10.919-2.021 20.22-7.276 27.903-14.552 1.618-1.617 3.235-3.234 4.449-4.85l-3.64-6.064zM625.227 42.632c1.213 1.616 2.83 3.233 4.448 4.85 7.683 7.276 16.985 12.127 27.903 14.552v-6.468c-8.896-2.02-16.984-6.467-23.05-12.53-2.022-2.021-4.044-4.042-5.662-6.468l-3.639 6.064z"/><path d="M601.772 35.76c6.874-6.871 11.323-15.764 11.323-25.87V-18h6.47V9.89c0 4.851.809 10.914 2.426 15.36 1.618-4.446 2.427-10.105 2.427-15.36V-18h6.47V9.89c0 10.106 4.449 19.403 11.323 25.87 4.044 4.042 9.301 6.872 14.963 8.893v6.467c-7.684-2.02-14.154-6.063-19.815-10.913-4.044-4.043-7.28-8.489-9.706-13.34-1.618 4.447-3.64 8.49-6.066 11.723-2.426-3.234-4.448-7.276-6.066-11.722-2.426 5.254-5.662 9.7-9.706 13.339-5.257 5.254-12.131 8.892-19.815 10.913v-6.467c6.47-1.617 11.728-4.85 15.772-8.893z"/><path d="M641.403 9.486c0 7.276 3.235 14.147 8.492 18.998 2.022 2.021 4.853 4.042 7.684 5.255v6.871c-4.853-1.617-8.897-4.446-12.132-7.68-6.471-6.063-10.11-14.147-10.11-23.444V3.019h6.47v6.467h-.404zM602.58 3.019h6.471v6.467c0 9.297-4.044 17.381-10.11 23.444-3.64 3.234-7.684 6.063-12.132 7.68V33.74c2.831-1.213 5.257-3.234 7.683-5.255 5.258-4.85 8.493-11.722 8.493-18.998V3.019h-.405zM615.521 36.568c-1.617 2.426-3.639 4.447-5.661 6.468-6.471 6.063-14.154 10.51-23.051 12.53v6.468c10.919-2.021 20.22-7.276 27.903-14.552 1.618-1.617 3.235-3.234 4.449-4.85l-3.64-6.064zM75.227 42.632c1.213 1.616 2.83 3.233 4.448 4.85 7.684 7.276 16.985 12.127 27.903 14.552v-6.468c-8.896-2.02-16.984-6.467-23.05-12.53-2.022-2.021-4.044-4.042-5.662-6.468l-3.64 6.064z"/><path d="M51.772 35.76c6.874-6.871 11.323-15.764 11.323-25.87V-18h6.47V9.89c0 4.851.809 10.914 2.426 15.36 1.618-4.446 2.427-10.105 2.427-15.36V-18h6.47V9.89c0 10.106 4.448 19.403 11.323 25.87 4.044 4.042 9.301 6.872 14.963 8.893v6.467C99.49 49.1 93.02 45.057 87.358 40.207c-4.044-4.043-7.279-8.489-9.705-13.34-1.618 4.447-3.64 8.49-6.066 11.723-2.426-3.234-4.448-7.276-6.066-11.722-2.426 5.254-5.662 9.7-9.706 13.339C50.559 45.46 43.684 49.099 36 51.12v-6.467c6.47-1.617 11.727-4.85 15.772-8.893z"/><path d="M91.403 9.486c0 7.276 3.235 14.147 8.492 18.998 2.022 2.021 4.853 4.042 7.684 5.255v6.871c-4.853-1.617-8.897-4.446-12.132-7.68-6.47-6.063-10.11-14.147-10.11-23.444V3.019h6.47v6.467h-.404zM52.58 3.019h6.47v6.467c0 9.297-4.043 17.381-10.11 23.444-3.639 3.234-7.683 6.063-12.131 7.68V33.74c2.83-1.213 5.257-3.234 7.683-5.255 5.258-4.85 8.493-11.722 8.493-18.998V3.019h-.405zM65.521 36.568c-1.617 2.426-3.64 4.447-5.662 6.468-6.47 6.063-14.153 10.51-23.05 12.53v6.468c10.919-2.021 20.22-7.276 27.903-14.552 1.618-1.617 3.236-3.234 4.449-4.85l-3.64-6.064z"/></g><defs><clipPath id="clip0"><path fill="#fff" d="M0 0h1104v731H0z"/></clipPath></defs></svg>