<svg fill="white" height="512pt" viewBox="0 -52 512 512" width="512pt" xmlns="http://www.w3.org/2000/svg"><g fill-rule="evenodd"><path d="m471.347656 0h-430.695312c-22.414063 0-40.652344 18.238281-40.652344 40.652344v137.207031c0 5.523437 4.476562 10 10 10s10-4.476563 10-10v-137.207031c0-11.386719 9.265625-20.652344 20.652344-20.652344h430.691406c11.390625 0 20.65625 9.265625 20.65625 20.652344v15.003906c0 5.519531 4.476562 10 10 10 5.519531 0 10-4.480469 10-10v-15.003906c0-22.414063-18.238281-40.652344-40.652344-40.652344zm0 0"/><path d="m502 125.65625c-5.523438 0-10 4.476562-10 10v137.203125c0 11.390625-9.265625 20.65625-20.652344 20.65625h-277.730468c-2.648438 0-5.191407 1.054687-7.070313 2.929687l-76.847656 76.84375v-69.773437c0-5.523437-4.476563-10-10-10h-59.046875c-11.386719 0-20.652344-9.265625-20.652344-20.652344v-15.003906c0-5.519531-4.476562-10-10-10s-10 4.480469-10 10v15.003906c0 22.414063 18.238281 40.652344 40.652344 40.652344h49.046875v83.917969c0 4.042968 2.4375 7.691406 6.175781 9.238281 1.238281.511719 2.535156.761719 3.824219.761719 2.601562 0 5.160156-1.019532 7.074219-2.929688l90.988281-90.988281h273.582031c22.417969 0 40.65625-18.238281 40.65625-40.652344v-137.207031c0-5.523438-4.476562-10-10-10zm0 0"/><path d="m156.613281 92.171875h11.050781c4.273438 13.785156 17.144532 23.824219 32.3125 23.824219 15.171876 0 28.039063-10.039063 32.316407-23.824219h123.09375c5.523437 0 10-4.476563 10-10 0-5.519531-4.476563-10-10-10h-123.09375c-4.273438-13.78125-17.144531-23.824219-32.316407-23.824219-15.171874 0-28.039062 10.042969-32.3125 23.824219h-11.050781c-5.523437 0-10 4.480469-10 10 0 5.523437 4.476563 10 10 10zm43.363281-23.824219c7.625 0 13.824219 6.203125 13.824219 13.824219 0 7.625-6.199219 13.824219-13.824219 13.824219-7.621093 0-13.824218-6.199219-13.824218-13.824219 0-7.621094 6.203125-13.824219 13.824218-13.824219zm0 0"/><path d="m156.613281 166.757812h126.371094c4.273437 13.78125 17.144531 23.824219 32.316406 23.824219 15.167969 0 28.039063-10.042969 32.3125-23.824219h7.773438c5.523437 0 10-4.476562 10-10 0-5.523437-4.476563-10-10-10h-7.773438c-4.273437-13.785156-17.144531-23.824218-32.3125-23.824218-15.171875 0-28.039062 10.039062-32.316406 23.824218h-126.371094c-5.523437 0-10 4.476563-10 10 0 5.523438 4.476563 10 10 10zm158.6875-23.824218c7.621094 0 13.816407 6.195312 13.820313 13.8125v.011718.007813c-.003906 7.621094-6.199219 13.816406-13.820313 13.816406-7.625 0-13.824219-6.199219-13.824219-13.824219 0-7.621093 6.199219-13.824218 13.824219-13.824218zm0 0"/><path d="m156.613281 241.34375h67.070313c4.277344 13.78125 17.144531 23.820312 32.316406 23.820312s28.039062-10.039062 32.3125-23.820312h67.074219c5.523437 0 10-4.480469 10-10 0-5.523438-4.476563-10-10-10h-67.074219c-4.273438-13.785156-17.140625-23.824219-32.3125-23.824219s-28.039062 10.039063-32.316406 23.824219h-67.070313c-5.523437 0-10 4.476562-10 10 0 5.519531 4.476563 10 10 10zm99.386719-23.824219c7.621094 0 13.816406 6.195313 13.824219 13.8125v.011719.007812c-.007813 7.617188-6.207031 13.8125-13.824219 13.8125s-13.816406-6.195312-13.824219-13.8125c0-.003906 0-.007812 0-.007812 0-.003906 0-.007812 0-.011719.007813-7.617187 6.203125-13.8125 13.824219-13.8125zm0 0"/><path d="m10 227.859375c5.507812 0 10-4.492187 10-10s-4.492188-10-10-10-10 4.492187-10 10 4.492188 10 10 10zm0 0"/><path d="m502 85.65625c-5.507812 0-10 4.492188-10 10s4.492188 10 10 10 10-4.492188 10-10-4.492188-10-10-10zm0 0"/></g></svg>