<svg fill="#fff" height="512pt" viewBox="0 -52 512 512" width="512pt" xmlns="http://www.w3.org/2000/svg"><g fill-rule="evenodd"><path d="M471.348 0H40.652C18.238 0 0 18.238 0 40.652V177.86c0 5.524 4.477 10 10 10s10-4.476 10-10V40.652C20 29.266 29.266 20 40.652 20h430.692C482.734 20 492 29.266 492 40.652v15.004c0 5.52 4.477 10 10 10 5.52 0 10-4.48 10-10V40.652C512 18.238 493.762 0 471.348 0zm0 0M502 125.656c-5.523 0-10 4.477-10 10V272.86c0 11.391-9.266 20.657-20.652 20.657h-277.73a10.013 10.013 0 0 0-7.071 2.93l-76.848 76.843v-69.773c0-5.524-4.476-10-10-10H40.652C29.266 293.516 20 284.25 20 272.863V257.86c0-5.52-4.477-10-10-10s-10 4.48-10 10v15.004c0 22.414 18.238 40.653 40.652 40.653H89.7v83.918a10 10 0 0 0 10 10c2.602 0 5.16-1.02 7.074-2.93l90.989-90.988h273.582c22.418 0 40.656-18.239 40.656-40.653V135.656c0-5.523-4.477-10-10-10zm0 0"/><path d="M156.613 92.172h11.051c4.274 13.785 17.145 23.824 32.313 23.824 15.171 0 28.039-10.039 32.316-23.824h123.094c5.523 0 10-4.477 10-10 0-5.52-4.477-10-10-10H232.293c-4.273-13.781-17.145-23.824-32.316-23.824-15.172 0-28.04 10.043-32.313 23.824h-11.05c-5.524 0-10 4.48-10 10 0 5.523 4.476 10 10 10zm43.364-23.824c7.625 0 13.824 6.203 13.824 13.824 0 7.625-6.2 13.824-13.824 13.824-7.622 0-13.825-6.2-13.825-13.824 0-7.621 6.203-13.824 13.825-13.824zm0 0M156.613 166.758h126.371c4.274 13.781 17.145 23.824 32.317 23.824 15.168 0 28.039-10.043 32.312-23.824h7.774c5.523 0 10-4.477 10-10 0-5.524-4.477-10-10-10h-7.774c-4.273-13.785-17.144-23.824-32.312-23.824-15.172 0-28.04 10.039-32.317 23.824h-126.37c-5.524 0-10 4.476-10 10 0 5.523 4.476 10 10 10zm158.688-23.824c7.62 0 13.816 6.195 13.82 13.812v.02c-.004 7.62-6.2 13.816-13.82 13.816-7.625 0-13.824-6.2-13.824-13.824 0-7.621 6.199-13.824 13.824-13.824zm0 0M156.613 241.344h67.07c4.278 13.781 17.145 23.82 32.317 23.82s28.04-10.039 32.313-23.82h67.074c5.523 0 10-4.48 10-10 0-5.524-4.477-10-10-10h-67.075c-4.273-13.785-17.14-23.824-32.312-23.824s-28.04 10.039-32.316 23.824h-67.07c-5.524 0-10 4.476-10 10 0 5.52 4.476 10 10 10zM256 217.52c7.621 0 13.816 6.195 13.824 13.812v.02c-.008 7.617-6.207 13.812-13.824 13.812s-13.816-6.195-13.824-13.812v-.008-.012c.008-7.617 6.203-13.812 13.824-13.812zm0 0M10 227.86c5.508 0 10-4.493 10-10s-4.492-10-10-10-10 4.492-10 10 4.492 10 10 10zm0 0M502 85.656c-5.508 0-10 4.492-10 10s4.492 10 10 10 10-4.492 10-10-4.492-10-10-10zm0 0"/></g></svg>