<svg fill="#fff" height="512pt" viewBox="0 0 512 512" width="512pt" xmlns="http://www.w3.org/2000/svg"><path d="M256 512c-68.379 0-132.668-26.629-181.02-74.98C26.63 388.668 0 324.379 0 256S26.629 123.332 74.98 74.98C123.332 26.63 187.621 0 256 0s132.668 26.629 181.02 74.98C485.37 123.332 512 187.621 512 256s-26.629 132.668-74.98 181.02C388.668 485.37 324.379 512 256 512zm0-492c-63.04 0-122.305 24.547-166.879 69.121C44.547 133.695 20 192.961 20 256s24.547 122.305 69.121 166.879C133.695 467.453 192.961 492 256 492s122.305-24.547 166.879-69.121C467.453 378.305 492 319.039 492 256s-24.547-122.305-69.121-166.879C378.305 44.547 319.039 20 256 20zm0 0"/><path d="M256 462c-47.59 0-94.012-16.613-130.715-46.777-36.2-29.75-61.387-71.254-70.926-116.864-1.129-5.406 2.336-10.703 7.743-11.836 5.406-1.128 10.707 2.336 11.836 7.743 8.605 41.168 31.351 78.636 64.046 105.504C171.117 427.004 213.031 442 256 442c102.563 0 186-83.438 186-186S358.562 70 256 70c-42.914 0-84.785 14.96-117.898 42.133-32.668 26.805-55.434 64.195-64.098 105.289-1.14 5.402-6.442 8.863-11.848 7.723-5.402-1.141-8.86-6.446-7.722-11.848 9.601-45.527 34.808-86.95 70.984-116.629C162.098 66.574 208.473 50 256 50c113.59 0 206 92.41 206 206s-92.41 206-206 206zm0 0"/><path d="M207.68 340.98a22.166 22.166 0 0 1-11.29-3.078c-6.507-3.855-10.39-10.582-10.39-18V192.098c0-7.418 3.883-14.145 10.39-18 6.696-3.97 15.098-4.11 21.93-.368l116.649 63.907C341.773 241.363 346 248.398 346 256s-4.227 14.637-11.031 18.363L218.32 338.27a22.16 22.16 0 0 1-10.64 2.71zm.004-149.98c-.504 0-.907.188-1.102.305-.582.343-.582.668-.582.793v127.808c0 .121 0 .446.582.79a2.115 2.115 0 0 0 2.129.034l116.648-63.906c.575-.312.641-.62.641-.824s-.066-.508-.64-.824l-116.65-63.903a2.101 2.101 0 0 0-1.026-.273zm0 0M59.898 266c-5.523 0-10.007-4.477-10.007-10s4.472-10 9.996-10h.011c5.524 0 10 4.477 10 10s-4.476 10-10 10zm0 0"/></svg>