<svg fill="white"  height="512pt" viewBox="0 0 512 512" width="512pt" xmlns="http://www.w3.org/2000/svg"><path d="m256 512c-68.378906 0-132.667969-26.628906-181.019531-74.980469-48.351563-48.351562-74.980469-112.640625-74.980469-181.019531s26.628906-132.667969 74.980469-181.019531c48.351562-48.351563 112.640625-74.980469 181.019531-74.980469s132.667969 26.628906 181.019531 74.980469c48.351563 48.351562 74.980469 112.640625 74.980469 181.019531s-26.628906 132.667969-74.980469 181.019531c-48.351562 48.351563-112.640625 74.980469-181.019531 74.980469zm0-492c-63.039062 0-122.304688 24.546875-166.878906 69.121094-44.574219 44.574218-69.121094 103.839844-69.121094 166.878906s24.546875 122.304688 69.121094 166.878906c44.574218 44.574219 103.839844 69.121094 166.878906 69.121094s122.304688-24.546875 166.878906-69.121094c44.574219-44.574218 69.121094-103.839844 69.121094-166.878906s-24.546875-122.304688-69.121094-166.878906c-44.574218-44.574219-103.839844-69.121094-166.878906-69.121094zm0 0"/><path d="m256 462c-47.589844 0-94.011719-16.613281-130.714844-46.777344-36.199218-29.75-61.386718-71.253906-70.925781-116.863281-1.128906-5.40625 2.335937-10.703125 7.742187-11.835937 5.40625-1.128907 10.707032 2.335937 11.835938 7.742187 8.605469 41.167969 31.351562 78.636719 64.046875 105.503906 33.132813 27.234375 75.046875 42.230469 118.015625 42.230469 102.5625 0 186-83.4375 186-186s-83.4375-186-186-186c-42.914062 0-84.785156 14.960938-117.898438 42.132812-32.667968 26.804688-55.433593 64.195313-64.097656 105.289063-1.140625 5.402344-6.441406 8.863281-11.847656 7.722656-5.402344-1.140625-8.859375-6.445312-7.722656-11.847656 9.601562-45.527344 34.808594-86.949219 70.984375-116.628906 36.679687-30.09375 83.054687-46.667969 130.582031-46.667969 113.589844 0 206 92.410156 206 206s-92.410156 206-206 206zm0 0"/><path d="m207.679688 340.980469c-3.917969 0-7.832032-1.03125-11.289063-3.078125-6.507813-3.855469-10.390625-10.582032-10.390625-18v-127.804688c0-7.417968 3.882812-14.144531 10.390625-18 6.695313-3.96875 15.097656-4.109375 21.929687-.367187l116.648438 63.90625c6.804688 3.726562 11.03125 10.761719 11.03125 18.363281s-4.226562 14.636719-11.03125 18.363281l-116.648438 63.90625c-3.304687 1.808594-6.972656 2.710938-10.640624 2.710938zm.003906-149.980469c-.503906 0-.90625.1875-1.101563.304688-.582031.34375-.582031.667968-.582031.792968v127.808594c0 .121094 0 .445312.582031.789062.316407.1875 1.15625.566407 2.128907.035157l116.648437-63.90625c.574219-.3125.640625-.621094.640625-.824219s-.066406-.507812-.640625-.824219l-116.648437-63.902343c-.367188-.203126-.71875-.273438-1.027344-.273438zm0 0"/><path d="m59.898438 266c-5.523438 0-10.007813-4.476562-10.007813-10s4.472656-10 9.996094-10h.011719c5.523437 0 10 4.476562 10 10s-4.476563 10-10 10zm0 0"/></svg>