<svg fill="#fff" height="512" width="512" xmlns="http://www.w3.org/2000/svg"><path d="M65.202 230.367h17.134c8.547 0 15.5-6.953 15.5-15.5v-17.133c0-8.547-6.953-15.5-15.5-15.5H65.202c-8.547 0-15.5 6.953-15.5 15.5v17.133c0 8.547 6.953 15.5 15.5 15.5zm-.5-32.634a.5.5 0 0 1 .5-.5h17.134a.5.5 0 0 1 .5.5v17.133a.5.5 0 0 1-.5.5H65.202a.5.5 0 0 1-.5-.5zM131.47 230.367h17.133c8.547 0 15.5-6.953 15.5-15.5v-17.133c0-8.547-6.953-15.5-15.5-15.5H131.47c-8.547 0-15.5 6.953-15.5 15.5v17.133c0 8.547 6.953 15.5 15.5 15.5zm-.5-32.634a.5.5 0 0 1 .5-.5h17.133a.5.5 0 0 1 .5.5v17.133a.5.5 0 0 1-.5.5H131.47a.5.5 0 0 1-.5-.5zM197.736 230.367h17.133c8.547 0 15.5-6.953 15.5-15.5v-17.133c0-8.547-6.953-15.5-15.5-15.5h-17.133c-8.547 0-15.5 6.953-15.5 15.5v17.133c0 8.547 6.953 15.5 15.5 15.5zm-.5-32.634a.5.5 0 0 1 .5-.5h17.133a.5.5 0 0 1 .5.5v17.133a.5.5 0 0 1-.5.5h-17.133a.5.5 0 0 1-.5-.5zM281.136 230.367c8.547 0 15.5-6.953 15.5-15.5v-17.133c0-8.547-6.953-15.5-15.5-15.5h-17.133c-8.547 0-15.5 6.953-15.5 15.5v17.133c0 8.547 6.953 15.5 15.5 15.5zm-17.633-15.5v-17.133a.5.5 0 0 1 .5-.5h17.133a.5.5 0 0 1 .5.5v17.133a.5.5 0 0 1-.5.5h-17.133a.5.5 0 0 1-.5-.5zM347.392 230.367c8.547 0 15.5-6.953 15.5-15.5v-17.133c0-8.547-6.953-15.5-15.5-15.5h-17.133c-8.547 0-15.5 6.953-15.5 15.5v17.133c0 8.547 6.953 15.5 15.5 15.5zm-17.633-15.5v-17.133a.5.5 0 0 1 .5-.5h17.133a.5.5 0 0 1 .5.5v17.133a.5.5 0 0 1-.5.5h-17.133a.5.5 0 0 1-.5-.5zM413.658 230.367c8.547 0 15.5-6.953 15.5-15.5v-17.133c0-8.547-6.953-15.5-15.5-15.5h-17.133c-8.547 0-15.5 6.953-15.5 15.5v17.133c0 8.547 6.953 15.5 15.5 15.5zm-17.633-15.5v-17.133a.5.5 0 0 1 .5-.5h17.133a.5.5 0 0 1 .5.5v17.133a.5.5 0 0 1-.5.5h-17.133a.5.5 0 0 1-.5-.5zM49.702 281.133c0 8.547 6.953 15.5 15.5 15.5h17.134c8.547 0 15.5-6.953 15.5-15.5V264c0-8.547-6.953-15.5-15.5-15.5H65.202c-8.547 0-15.5 6.953-15.5 15.5zm15-17.133a.5.5 0 0 1 .5-.5h17.134a.5.5 0 0 1 .5.5v17.133a.5.5 0 0 1-.5.5H65.202a.5.5 0 0 1-.5-.5zM115.97 281.133c0 8.547 6.953 15.5 15.5 15.5h17.133c8.547 0 15.5-6.953 15.5-15.5V264c0-8.547-6.953-15.5-15.5-15.5H131.47c-8.547 0-15.5 6.953-15.5 15.5zm15-17.133a.5.5 0 0 1 .5-.5h17.133a.5.5 0 0 1 .5.5v17.133a.5.5 0 0 1-.5.5H131.47a.5.5 0 0 1-.5-.5zM182.236 281.133c0 8.547 6.953 15.5 15.5 15.5h17.133c8.547 0 15.5-6.953 15.5-15.5V264c0-8.547-6.953-15.5-15.5-15.5h-17.133c-8.547 0-15.5 6.953-15.5 15.5zm15-17.133a.5.5 0 0 1 .5-.5h17.133a.5.5 0 0 1 .5.5v17.133a.5.5 0 0 1-.5.5h-17.133a.5.5 0 0 1-.5-.5zM49.702 347.4c0 8.547 6.953 15.5 15.5 15.5h17.134c8.547 0 15.5-6.953 15.5-15.5v-17.133c0-8.547-6.953-15.5-15.5-15.5H65.202c-8.547 0-15.5 6.953-15.5 15.5zm15-17.133a.5.5 0 0 1 .5-.5h17.134a.5.5 0 0 1 .5.5V347.4a.5.5 0 0 1-.5.5H65.202a.5.5 0 0 1-.5-.5zM115.97 347.4c0 8.547 6.953 15.5 15.5 15.5h17.133c8.547 0 15.5-6.953 15.5-15.5v-17.133c0-8.547-6.953-15.5-15.5-15.5H131.47c-8.547 0-15.5 6.953-15.5 15.5zm15-17.133a.5.5 0 0 1 .5-.5h17.133a.5.5 0 0 1 .5.5V347.4a.5.5 0 0 1-.5.5H131.47a.5.5 0 0 1-.5-.5zM182.236 347.4c0 8.547 6.953 15.5 15.5 15.5h17.133c8.547 0 15.5-6.953 15.5-15.5v-17.133c0-8.547-6.953-15.5-15.5-15.5h-17.133c-8.547 0-15.5 6.953-15.5 15.5zm15-17.133a.5.5 0 0 1 .5-.5h17.133a.5.5 0 0 1 .5.5V347.4a.5.5 0 0 1-.5.5h-17.133a.5.5 0 0 1-.5-.5z"/><path d="M462.324 293.006V73.766c0-22.405-18.227-40.632-40.633-40.632h-58.789v-4.925C362.902 12.654 350.248 0 334.694 0s-28.208 12.654-28.208 28.208v4.925H172.375v-4.925C172.375 12.654 159.721 0 144.167 0c-15.555 0-28.209 12.654-28.209 28.208v4.925H57.191c-22.405 0-40.633 18.228-40.633 40.632V191.3c0 4.142 3.357 7.5 7.5 7.5s7.5-3.358 7.5-7.5v-27.2h415.766v114.423c-22.765-18.749-51.907-30.023-83.633-30.023-24.471 0-47.4 6.714-67.056 18.385v-2.602c0-8.703-7.08-15.783-15.783-15.783h-16.566c-8.703 0-15.783 7.08-15.783 15.783v16.567c0 7.956 5.923 14.538 13.587 15.612-18.826 22.788-30.149 51.99-30.149 83.788 0 .262.008.521.01.783H57.191c-14.134 0-25.633-11.499-25.633-25.632V221.3c0-4.142-3.357-7.5-7.5-7.5s-7.5 3.358-7.5 7.5v167.234c0 22.405 18.227 40.632 40.633 40.632h18.145c4.143 0 7.5-3.358 7.5-7.5s-3.357-7.5-7.5-7.5H57.191c-14.134 0-25.633-11.499-25.633-25.632v-1.635c6.997 5.705 15.921 9.134 25.633 9.134H232.89a130.924 130.924 0 0 0 3.485 18.134h-131.04c-4.143 0-7.5 3.358-7.5 7.5s3.357 7.5 7.5 7.5h136.027C260.825 477.663 308.321 512 363.691 512c72.647 0 131.75-59.103 131.75-131.75 0-33.432-12.523-63.989-33.117-87.244zM321.486 28.208c0-7.283 5.925-13.208 13.208-13.208s13.208 5.925 13.208 13.208v41.417c0 7.283-5.925 13.209-13.208 13.209s-13.208-5.925-13.208-13.209zm-190.528 0c0-7.283 5.926-13.208 13.209-13.208s13.208 5.925 13.208 13.208v41.417c0 7.283-5.925 13.209-13.208 13.209s-13.209-5.925-13.209-13.209zM57.191 48.133h58.767v18.133h-9.066c-4.143 0-7.5 3.358-7.5 7.5s3.357 7.5 7.5 7.5h11.591c4.442 9.76 14.28 16.567 25.684 16.567s21.242-6.806 25.683-16.567h11.591c4.143 0 7.5-3.358 7.5-7.5s-3.357-7.5-7.5-7.5h-9.066V48.133h134.111v18.133h-9.067c-4.143 0-7.5 3.358-7.5 7.5s3.357 7.5 7.5 7.5h11.592c4.442 9.76 14.28 16.567 25.683 16.567s21.242-6.806 25.683-16.567h11.592c4.143 0 7.5-3.358 7.5-7.5s-3.357-7.5-7.5-7.5h-9.067V48.133h58.789c14.134 0 25.633 11.499 25.633 25.632v42.201H31.559v-42.2c0-14.134 11.499-25.633 25.632-25.633zM31.559 149.1v-18.133h415.766V149.1zm231.944 115.183c0-.432.352-.783.783-.783h16.566c.432 0 .783.352.783.783v12.969a132.78 132.78 0 0 0-5.207 4.381h-12.143a.784.784 0 0 1-.783-.783v-16.567zM363.691 497c-64.376 0-116.75-52.374-116.75-116.75s52.374-116.75 116.75-116.75 116.75 52.374 116.75 116.75S428.067 497 363.691 497z"/><path d="M363.691 281.633c-54.377 0-98.616 44.239-98.616 98.617s44.239 98.617 98.616 98.617c54.378 0 98.617-44.239 98.617-98.617s-44.239-98.617-98.617-98.617zm0 182.234c-46.107 0-83.616-37.51-83.616-83.617s37.51-83.617 83.616-83.617 83.617 37.51 83.617 83.617-37.51 83.617-83.617 83.617z"/><path d="M405.108 372.75h-18.553a24.17 24.17 0 0 0-15.363-15.364v-35.119c0-4.142-3.357-7.5-7.5-7.5s-7.5 3.358-7.5 7.5v35.119c-9.608 3.16-16.566 12.212-16.566 22.864 0 13.271 10.796 24.067 24.066 24.067 10.652 0 19.704-6.959 22.863-16.567h18.553c4.143 0 7.5-3.358 7.5-7.5s-3.357-7.5-7.5-7.5zm-41.417 16.567c-4.999 0-9.066-4.067-9.066-9.067s4.067-9.067 9.066-9.067 9.066 4.067 9.066 9.067-4.067 9.067-9.066 9.067z"/></svg>