<svg version="1.1" id="Capa_1" xmlns="http://www.w3.org/2000/svg" x="0" y="0" viewBox="0 0 487.6 288" xml:space="preserve"><style>.st0{fill:#000}</style><g id="XMLID_1992_"><path id="XMLID_2003_" class="st0" d="M244.6 71.6c-40 0-72.4 32.4-72.4 72.4s32.4 72.4 72.4 72.4S317 184 317 144c-.1-40-32.5-72.4-72.4-72.4zm0 48.8c-13 0-23.6 10.6-23.6 23.6 0 6-4.8 10.8-10.8 10.8s-10.8-4.8-10.8-10.8c0-24.9 20.3-45.2 45.2-45.2 6 0 10.8 4.8 10.8 10.8 0 6-4.9 10.8-10.8 10.8z"/><path id="XMLID_2012_" class="st0" d="M481.3 127.7c-224.8-258.6-428-53.9-476.4 2.8-6.5 7.6-6.6 18.8-.1 26.4 221.9 259 423.4 64.6 476.5 3.7 8.3-9.4 8.3-23.4 0-32.9zM244.6 246.8c-56.8 0-102.8-46-102.8-102.8s46-102.8 102.8-102.8 102.8 46 102.8 102.8-46.1 102.8-102.8 102.8z"/></g></svg>