<?xml version="1.0" encoding="utf-8"?>
<!-- Generator: Adobe Illustrator 24.1.2, SVG Export Plug-In . SVG Version: 6.00 Build 0)  -->
<svg version="1.1" id="Capa_1" xmlns="http://www.w3.org/2000/svg" xmlns:xlink="http://www.w3.org/1999/xlink" x="0px" y="0px"
	 viewBox="0 0 487.6 288" style="enable-background:new 0 0 487.6 288;" xml:space="preserve">
<style type="text/css">
	.st0{fill:#000000;}
</style>
<g>
	<g id="XMLID_1992_">
		<path id="XMLID_2003_" class="st0" d="M244.6,71.6c-40,0-72.4,32.4-72.4,72.4s32.4,72.4,72.4,72.4S317,184,317,144
			C316.9,104,284.5,71.6,244.6,71.6z M244.6,120.4c-13,0-23.6,10.6-23.6,23.6c0,6-4.8,10.8-10.8,10.8s-10.8-4.8-10.8-10.8
			c0-24.9,20.3-45.2,45.2-45.2c6,0,10.8,4.8,10.8,10.8C255.4,115.6,250.5,120.4,244.6,120.4z"/>
		<path id="XMLID_2012_" class="st0" d="M481.3,127.7c-224.8-258.6-428-53.9-476.4,2.8c-6.5,7.6-6.6,18.8-0.1,26.4
			c221.9,259,423.4,64.6,476.5,3.7C489.6,151.2,489.6,137.2,481.3,127.7z M244.6,246.8c-56.8,0-102.8-46-102.8-102.8
			s46-102.8,102.8-102.8s102.8,46,102.8,102.8S301.3,246.8,244.6,246.8z"/>
	</g>
</g>
<path class="st0" d="M-38.3,278c-13,24-2.1,33.6,17.3,36.9L528.8,3.5c4-17.9,3.4-30.3-24.6-29.2"/>
</svg>
