<svg version="1.1" id="Слой_1" xmlns="http://www.w3.org/2000/svg" x="0" y="0" viewBox="0 0 600 238.1" xml:space="preserve"><style>.st0{fill-rule:evenodd;clip-rule:evenodd;fill:#fff}</style><g id="Слой_x0020_1"><path class="st0" d="M317.4 5.2c16.4-6.8 31.8-7 34.5-.4s-8.3 17.3-24.7 24.1c-16.4 6.8-31.8 7-34.5.4-2.7-6.5 8.4-17.3 24.7-24.1zM2.9 210.9c-4.3.2-4.3.2 3.6-2.6 7.9-2.9 23.8-8.6 51.1-12.5s66.2-5.8 101.7-5.5c35.5.2 67.7 2.6 85.2 3.8s20.4 1.2 21.8 1.2 1.4 0 1.9 1.7 1.4 5 1.9 6.7.5 1.7 1.9.5 4.3-3.6 5.8-4.8c1.4-1.2 1.4-1.2 7-1 5.5.2 16.6.7 28.5 1.7 12 1 25 2.4 34.3 4.8s15.1 5.8 19.7 9.1c4.6 3.4 7.9 6.7 9.6 8.4s1.7 1.7 1.7-.5v-8.6c0-2.1 0-2.2 17.3.5s51.8 7.9 81.8 10.1c30 2.2 55.4 1.2 74.6 0s32.2-2.6 39.6-3.8c7.4-1.2 9.4-2.2 7.4-1.2s-7.7 3.8-20.2 7.7c-12.5 3.8-31.7 8.6-64.5 10.6-32.9 1.9-79.4 1-115.4-1-36-1.9-61.4-4.8-91.9-8.1-30.5-3.4-66-7.2-101.5-11.5s-71-9.1-101.2-10.3-55.2 1.2-72 2.6-25.4 1.8-29.7 2zM1.9 192.9c-1-.5-1.4-1.9-1.7-3.4-.2-1.4-.2-2.8-.2-28V62.7 37c0-1.6 1.3-2.9 2.9-2.9h74.8c1.6 0 2.9 1.3 2.9 2.9V152.4c0 21.8 0 22.3-.5 22.8s-2.6 1.2-6.6 2.2c-3.1.7-20.2 5.3-20.2 2.2 0-3-.3-3.9 0-15.9.6-32.1 0-65.3 0-97.6 0-8.9.1-10 0-11.8s.2-3.6-1.4-4.3c-.2-.1-20.1 0-21.6 0-2.9 0-1.9 4.2-2.2 8.9-.2 4.6.2 12.2.5 33.4s.2 55.7.2 73.4 0 18.7-.5 19.4-1.4 1.2-3.8 1.9c-3.2.9-21.5 6.5-22.6 5.9zM440.5 35.6H416c-1.6 0-2.9 1.3-2.9 2.9 0 29 1.4 58.3 1.4 87.6 0 0 0 3.1-2.9 3.1h-17.3c-2.9 0-2.9-2.9-2.9-2.9V109c0-14.4 0-41.7-.2-55.9-.1-6.8-.3-10.5-.5-12.7.5-.5.8-1.2.8-2 0-1.6-1.3-2.9-2.9-2.9-.6 0-1.3.2-1.7.6-.7-.1-1.4-.3-2.4-.3-2.6-.2-6.5-.2-9.6-.2s-5.5 0-7.2.2c-.3 0-.5.1-.7.1-.4-.2-.9-.4-1.4-.4-1.6 0-2.9 1.3-2.9 2.9 0 .5.1 1 .4 1.4-.1.3-.1.6-.2.9-.2 1.9-.2 4.8-.2 18s0 36.7.2 49.9c.4 21.3 3.4 33.4 27.8 36.2 4.1.5 10.3 1 14.6 1.2 4.3.2 6.7.2 7.9.2s1.2 0 1.2 1.4V174c0 3.8 0 3.8-2.4 3.8s-7.2 0-10.5-.2-5.3-.7-6.7-1.7c-1.4-1-2.4-2.4-2.9-4.8s-.5-5.8-.5-9.1 0-6.7-.5-8.9-1.4-3.1-4.6-3.8c-3.1-.7-8.4-1.2-12-1.4s-5.5-.2-7.2.2c-1.7.5-3.1 1.4-3.8 3.1-.7 1.7-.7 4.1-.5 7s.7 6.2 1.9 9.8 3.1 7.4 5.5 10.8c2.4 3.4 5.3 6.2 7.9 8.4s5 3.6 7.9 4.8 6.2 2.2 11.8 2.6c5.5.5 13.2.5 18.5.2 5.3-.2 8.2-.7 11-1.7s5.8-2.4 8.4-4.8c2.6-2.4 5-5.8 6.5-8.9 1.4-3.1 1.9-6 2.2-12s.2-15.1 0-31.9-.7-41.3-1-58.5c-.2-13-.2-25.9-.2-38.9.2-1.2-1.1-2.5-2.7-2.5zM480.8 204c-13.9 0-17.5-4.9-18.2-17.5-.5-8.4-.5-22.8-.2-41.5.2-18.7.7-41.8 1-57.8.2-11.1-2.8-33.7 5.5-42 1.9-1.9 4.8-4.3 7.7-6.2s5.8-3.4 10.3-4.1c22.6-3.6 25.3-1.1 42.5 11 1 .7 1.4.2 2.6-1 11-11 17.5-10.8 32.6-10.8 3.1 0 5 0 7.4.7 12.6 3.8 23.1 12.4 23.5 26.1.8 24.4.5 112.8.5 135.8 0 7.4-7 9.5-13 9.8-3.8.2-9.1.2-11.8.2h-2.6c-.1 0-.1-1.2-.1-2.9 0-48.2 0-99.3-.1-146.7 0 0 .1-3-2.8-3h-17.3c-2.4 0-2.8 2.8-2.8 2.8s-.1 93.1-.1 137.8v12s-19.2.1-21.6 0c-8.3-.4-10.1-10.8-10.1-17.3v-131s0-2.9-3.3-2.9h-13.9c-2.9 0-2.9 2.9-2.9 2.9-.1 12.6 0 145.4 0 145.4-4.2.2-8.5.2-12.8.2zM305.7 65.3c1 0 2.4-.5 4.8-1.9s5.8-3.8 9.4-6.5c3.6-2.6 7.4-5.5 9.6-7.2 2.1-1.7 2.6-2.2 2.6-4.1 0-1.9-.5-5.3-1.2-7.4-.7-2.2-1.7-3.1-2.9-3.8-1.2-.7-2.6-1.2-4.6-1-1.9.2-4.3 1.2-6.5 2.2s-4.1 1.9-5.3 3.4-1.7 3.4-2.4 6.5-1.7 7.4-2.6 10.8c-1 3.4-1.9 5.8-2.2 7.2-.2 1.3.3 1.8 1.3 1.8zm42.7 52.1c-1.4-.7-4.3-3.1-6.5-5.3s-3.6-4.1-4.6-5.5-1.4-2.4-1.2-3.6c.2-1.2 1.2-2.6 1.7-3.8.5-1.2.5-2.2-.7-2.6-1.2-.5-3.6-.5-5.5-.7s-3.4-.7-5.8-2.9-5.8-6-8.2-9.1-3.8-5.5-4.6-7.2-.7-2.6 1-4.8c1.7-2.1 5-5.5 8.2-8.4 3.1-2.9 6-5.3 8.2-6.5s3.6-1.2 4.5-.2c1 1 1.4 2.9 2.6 7.7s3.1 12.5 5 20.1 3.8 15.4 5 20.6 1.7 8.2 1.9 10.1c.4 1.8.4 2.8-1 2.1zm-50.7 7.6c2.2-1.7 5.5-4.5 9.4-7.7 3.8-3.1 8.2-6.5 10.6-8.9s2.9-3.8 2.4-5.8c-.5-1.9-1.9-4.3-4.8-7.4s-7.2-6.9-9.8-8.9c-2.6-1.9-3.6-1.9-4.6-.2-2.9 5-11.2 41-7 41 .7.1 1.7-.4 3.8-2.1zm-15.8 62.4c.2-4.1 1.7-11.8 2.9-18.5s2.2-12.5 3.4-16.1c1.2-3.6 2.6-5 5.5-7.9l11.5-11.5c4.3-4.3 8.6-8.6 11.5-12s4.3-5.8 6.5-7 5-1.2 7.9-.5 5.8 2.2 8.4 4.6 5 5.8 7.4 8.9c2.4 3.1 4.8 6 6 9.1s1.2 6.5 1.7 11.5 1.4 11.8 3.6 19.2 5.5 15.6 7 21.4 1 9.1-.2 10.6c-1.2 1.4-3.1 1-5.8-.7s-6-4.6-10.8-7.4c-4.8-2.9-11-5.8-17.3-7.4-6.2-1.7-12.5-2.2-18.5-2.2s-11.8.5-16.5 2.4c-4.8 1.9-8.6 5.3-11 6.7s-3.4.9-3.2-3.2zm33.4-49.4c-1 .2-1.9.7-.2 2.9s6 6 11 12 10.8 14.2 14.6 19.9 5.8 9.1 7.2 10.5 2.4 1 3.1-.2 1.2-3.1.5-5.8c-.7-2.6-2.6-6-5.3-9.8-2.6-3.8-6-8.2-9.8-12.2s-8.1-7.9-11.3-10.8-5-4.8-6.5-5.8c-1.4-.9-2.4-.9-3.3-.7zm-111.9 17.4c-3.3-.3-5.3-.2-6.8.8-1.7 1.2-2.7 3.6-2.9 5.5s.2 3.4 1.4 4.6 3.1 2.2 6.2 2.9c3.1.7 7.4 1.2 13.4 1.9s13.7 1.7 22.8 2.4 19.7 1.2 26.1 1c6.5-.2 8.9-1.2 10.8-2.6 1.9-1.4 3.4-3.4 4.1-5 2.9-6.8 3.1-66.7 3.1-75.9 0-16.3-.5-24.5-.7-30s-1.2-8.1-1.7-11C276.4 31.2 249 32.1 226 34.1c-19.1 1.7-22.6 18.7-22.8 34.7-.2 15.4-.2 45.7-.2 63.2 0 14.1 0 19.9.4 23.4zm47.9 3.4c-3.7.4-7.1.9-10.9.9-2.9 0-5.9-.3-9.2-.6-2.3-1.5-3.8-4.2-3.8-7.1V58.3c0-4.8 3.9-8.6 8.6-8.6h10.1c4.8 0 8.6 3.9 8.6 8.6v93.6c.1 2.8-1.3 5.3-3.4 6.9zm-144.5 4.4c-1.7-1.4-3.1-3.4-3.8-6.7-.7-3.4-.7-8.1-.7-25.7 0-17.5 0-47.7.2-63.1s.7-15.8 1.4-17c10.7-17.8 27.6-18.1 45.8-16.1 4.3.5 8.6 1.4 12.2 2.6s6.5 2.6 9.4 4.6c2.9 1.9 5.8 4.3 7.2 6.9s1.4 5.5 1.7 11c.2 5.5.7 13.7.7 30s-.5 40.8-1.2 53.7c-.7 13-1.7 14.4-4.1 16.5-2.4 2.2-6.2 5-12.7 7.2s-15.6 3.6-23 3.8-13.2-.7-17.5-1.7-7.2-1.9-9.6-2.9c-2.4-.7-4.3-1.7-6-3.1zm28.5-114.7h10.1c4.8 0 8.6 3.9 8.6 8.6v93.6c0 4.8-3.9 8.6-8.6 8.6h-10.1c-4.8 0-8.6-3.9-8.6-8.6V57.2c0-4.8 3.9-8.7 8.6-8.7z"/></g></svg>