<?xml version="1.0" encoding="utf-8"?>
<!-- Generator: Adobe Illustrator 24.1.2, SVG Export Plug-In . SVG Version: 6.00 Build 0)  -->
<svg version="1.1" id="Слой_1" xmlns:xodm="http://www.corel.com/coreldraw/odm/2003"
	 xmlns="http://www.w3.org/2000/svg" xmlns:xlink="http://www.w3.org/1999/xlink" x="0px" y="0px" viewBox="0 0 600 238.1"
	 style="enable-background:new 0 0 600 238.1;" xml:space="preserve">
<style type="text/css">
	.st0{fill-rule:evenodd;clip-rule:evenodd;fill:#FF0000;}
	.st1{fill-rule:evenodd;clip-rule:evenodd;}
</style>
<g id="Слой_x0020_1">
	<path class="st0" d="M317.4,5.2c16.4-6.8,31.8-7,34.5-0.4s-8.3,17.3-24.7,24.1c-16.4,6.8-31.8,7-34.5,0.4
		C290,22.8,301.1,12,317.4,5.2z M2.9,210.9c-4.3,0.2-4.3,0.2,3.6-2.6c7.9-2.9,23.8-8.6,51.1-12.5s66.2-5.8,101.7-5.5
		c35.5,0.2,67.7,2.6,85.2,3.8c17.5,1.2,20.4,1.2,21.8,1.2c1.4,0,1.4,0,1.9,1.7s1.4,5,1.9,6.7s0.5,1.7,1.9,0.5
		c1.4-1.2,4.3-3.6,5.8-4.8c1.4-1.2,1.4-1.2,7-1c5.5,0.2,16.6,0.7,28.5,1.7c12,1,25,2.4,34.3,4.8s15.1,5.8,19.7,9.1
		c4.6,3.4,7.9,6.7,9.6,8.4s1.7,1.7,1.7-0.5s0-6.5,0-8.6s0-2.2,17.3,0.5s51.8,7.9,81.8,10.1c30,2.2,55.4,1.2,74.6,0
		s32.2-2.6,39.6-3.8c7.4-1.2,9.4-2.2,7.4-1.2s-7.7,3.8-20.2,7.7c-12.5,3.8-31.7,8.6-64.5,10.6c-32.9,1.9-79.4,1-115.4-1
		c-36-1.9-61.4-4.8-91.9-8.1c-30.5-3.4-66-7.2-101.5-11.5c-35.5-4.3-71-9.1-101.2-10.3c-30.2-1.2-55.2,1.2-72,2.6
		S7.2,210.7,2.9,210.9L2.9,210.9z"/>
	<path class="st1" d="M1.9,192.9c-1-0.5-1.4-1.9-1.7-3.4C0,188.1,0,186.7,0,161.5s0-74.1,0-98.8C0,54.1,0,45.4,0,37
		c0-1.6,1.3-2.9,2.9-2.9c19.9,0,39.8,0,59.7,0c5,0,10.2,0,15.1,0c1.6,0,2.9,1.3,2.9,2.9c0,9,0,18.6,0,27.8c0,22.6,0,65.7,0,87.6
		c0,21.8,0,22.3-0.5,22.8c-0.5,0.5-2.6,1.2-6.6,2.2c-3.1,0.7-20.2,5.3-20.2,2.2c0-3-0.3-3.9,0-15.9c0.6-32.1,0-65.3,0-97.6
		c0-8.9,0.1-10,0-11.8s0.2-3.6-1.4-4.3c-0.2-0.1-20.1,0-21.6,0c-2.9,0-1.9,4.2-2.2,8.9c-0.2,4.6,0.2,12.2,0.5,33.4
		s0.2,55.7,0.2,73.4s0,18.7-0.5,19.4s-1.4,1.2-3.8,1.9C21.3,187.9,3,193.5,1.9,192.9L1.9,192.9z M440.5,35.6c-8.1,0-16.3,0-24.5,0
		c-1.6,0-2.9,1.3-2.9,2.9c0,29,1.4,58.3,1.4,87.6c0,0,0,3.1-2.9,3.1s-8.6,0-12,0s-2.4,0-5.3,0s-2.9-2.9-2.9-2.9s0-2.9,0-17.3
		c0-14.4,0-41.7-0.2-55.9c-0.1-6.8-0.3-10.5-0.5-12.7c0.5-0.5,0.8-1.2,0.8-2c0-1.6-1.3-2.9-2.9-2.9c-0.6,0-1.3,0.2-1.7,0.6
		c-0.7-0.1-1.4-0.3-2.4-0.3c-2.6-0.2-6.5-0.2-9.6-0.2s-5.5,0-7.2,0.2c-0.3,0-0.5,0.1-0.7,0.1c-0.4-0.2-0.9-0.4-1.4-0.4
		c-1.6,0-2.9,1.3-2.9,2.9c0,0.5,0.1,1,0.4,1.4c-0.1,0.3-0.1,0.6-0.2,0.9c-0.2,1.9-0.2,4.8-0.2,18s0,36.7,0.2,49.9
		c0.4,21.3,3.4,33.4,27.8,36.2c4.1,0.5,10.3,1,14.6,1.2c4.3,0.2,6.7,0.2,7.9,0.2s1.2,0,1.2,1.4s0,4.3,0,9.6c0,5.3,0,13,0,16.8
		c0,3.8,0,3.8-2.4,3.8c-2.4,0-7.2,0-10.5-0.2s-5.3-0.7-6.7-1.7c-1.4-1-2.4-2.4-2.9-4.8s-0.5-5.8-0.5-9.1s0-6.7-0.5-8.9
		s-1.4-3.1-4.6-3.8c-3.1-0.7-8.4-1.2-12-1.4c-3.6-0.2-5.5-0.2-7.2,0.2c-1.7,0.5-3.1,1.4-3.8,3.1c-0.7,1.7-0.7,4.1-0.5,7
		s0.7,6.2,1.9,9.8s3.1,7.4,5.5,10.8c2.4,3.4,5.3,6.2,7.9,8.4s5,3.6,7.9,4.8c2.9,1.2,6.2,2.2,11.8,2.6c5.5,0.5,13.2,0.5,18.5,0.2
		c5.3-0.2,8.2-0.7,11-1.7s5.8-2.4,8.4-4.8c2.6-2.4,5-5.8,6.5-8.9c1.4-3.1,1.9-6,2.2-12s0.2-15.1,0-31.9s-0.7-41.3-1-58.5
		c-0.2-13-0.2-25.9-0.2-38.9C443.4,36.9,442.1,35.6,440.5,35.6L440.5,35.6z M480.8,204c-13.9,0-17.5-4.9-18.2-17.5
		c-0.5-8.4-0.5-22.8-0.2-41.5c0.2-18.7,0.7-41.8,1-57.8c0.2-11.1-2.8-33.7,5.5-42c1.9-1.9,4.8-4.3,7.7-6.2s5.8-3.4,10.3-4.1
		c22.6-3.6,25.3-1.1,42.5,11c1,0.7,1.4,0.2,2.6-1c11-11,17.5-10.8,32.6-10.8c3.1,0,5,0,7.4,0.7c12.6,3.8,23.1,12.4,23.5,26.1
		c0.8,24.4,0.5,112.8,0.5,135.8c0,7.4-7,9.5-13,9.8c-3.8,0.2-9.1,0.2-11.8,0.2s-2.3,0-2.6,0c-0.1,0-0.1-1.2-0.1-2.9
		c0-48.2,0-99.3-0.1-146.7c0,0,0.1-3-2.8-3c-5.8,0-11.5,0-17.3,0c-2.4,0-2.8,2.8-2.8,2.8s-0.1,93.1-0.1,137.8c0,11,0,11.8,0,12
		c0,0-19.2,0.1-21.6,0c-8.3-0.4-10.1-10.8-10.1-17.3c0-43.2,0-87.8,0-131c0,0,0-2.9-3.3-2.9c-3.4,0-10.6,0-13.9,0
		c-2.9,0-2.9,2.9-2.9,2.9c-0.1,12.6,0,145.4,0,145.4C489.4,204,485.1,204,480.8,204L480.8,204z M305.7,65.3c1,0,2.4-0.5,4.8-1.9
		c2.4-1.4,5.8-3.8,9.4-6.5c3.6-2.6,7.4-5.5,9.6-7.2c2.1-1.7,2.6-2.2,2.6-4.1c0-1.9-0.5-5.3-1.2-7.4c-0.7-2.2-1.7-3.1-2.9-3.8
		c-1.2-0.7-2.6-1.2-4.6-1c-1.9,0.2-4.3,1.2-6.5,2.2s-4.1,1.9-5.3,3.4s-1.7,3.4-2.4,6.5c-0.7,3.1-1.7,7.4-2.6,10.8
		c-1,3.4-1.9,5.8-2.2,7.2C304.2,64.8,304.7,65.3,305.7,65.3L305.7,65.3z M348.4,117.4c-1.4-0.7-4.3-3.1-6.5-5.3s-3.6-4.1-4.6-5.5
		c-1-1.4-1.4-2.4-1.2-3.6c0.2-1.2,1.2-2.6,1.7-3.8c0.5-1.2,0.5-2.2-0.7-2.6c-1.2-0.5-3.6-0.5-5.5-0.7c-1.9-0.2-3.4-0.7-5.8-2.9
		s-5.8-6-8.2-9.1s-3.8-5.5-4.6-7.2s-0.7-2.6,1-4.8c1.7-2.1,5-5.5,8.2-8.4c3.1-2.9,6-5.3,8.2-6.5s3.6-1.2,4.5-0.2
		c1,1,1.4,2.9,2.6,7.7c1.2,4.8,3.1,12.5,5,20.1s3.8,15.4,5,20.6s1.7,8.2,1.9,10.1C349.8,117.1,349.8,118.1,348.4,117.4L348.4,117.4z
		 M297.7,125c2.2-1.7,5.5-4.5,9.4-7.7c3.8-3.1,8.2-6.5,10.6-8.9s2.9-3.8,2.4-5.8c-0.5-1.9-1.9-4.3-4.8-7.4c-2.9-3.1-7.2-6.9-9.8-8.9
		c-2.6-1.9-3.6-1.9-4.6-0.2c-2.9,5-11.2,41-7,41C294.6,127.2,295.6,126.7,297.7,125L297.7,125z M281.9,187.4
		c0.2-4.1,1.7-11.8,2.9-18.5s2.2-12.5,3.4-16.1c1.2-3.6,2.6-5,5.5-7.9c2.9-2.9,7.2-7.2,11.5-11.5c4.3-4.3,8.6-8.6,11.5-12
		s4.3-5.8,6.5-7c2.2-1.2,5-1.2,7.9-0.5c2.9,0.7,5.8,2.2,8.4,4.6s5,5.8,7.4,8.9c2.4,3.1,4.8,6,6,9.1s1.2,6.5,1.7,11.5
		c0.5,5,1.4,11.8,3.6,19.2c2.2,7.4,5.5,15.6,7,21.4s1,9.1-0.2,10.6c-1.2,1.4-3.1,1-5.8-0.7s-6-4.6-10.8-7.4
		c-4.8-2.9-11-5.8-17.3-7.4c-6.2-1.7-12.5-2.2-18.5-2.2s-11.8,0.5-16.5,2.4c-4.8,1.9-8.6,5.3-11,6.7S281.7,191.5,281.9,187.4z
		 M315.3,138c-1,0.2-1.9,0.7-0.2,2.9c1.7,2.2,6,6,11,12c5,6,10.8,14.2,14.6,19.9s5.8,9.1,7.2,10.5s2.4,1,3.1-0.2
		c0.7-1.2,1.2-3.1,0.5-5.8c-0.7-2.6-2.6-6-5.3-9.8c-2.6-3.8-6-8.2-9.8-12.2s-8.1-7.9-11.3-10.8s-5-4.8-6.5-5.8
		C317.2,137.8,316.2,137.8,315.3,138L315.3,138z M203.4,155.4c-3.3-0.3-5.3-0.2-6.8,0.8c-1.7,1.2-2.7,3.6-2.9,5.5
		c-0.2,1.9,0.2,3.4,1.4,4.6s3.1,2.2,6.2,2.9c3.1,0.7,7.4,1.2,13.4,1.9s13.7,1.7,22.8,2.4c9.1,0.7,19.7,1.2,26.1,1
		c6.5-0.2,8.9-1.2,10.8-2.6c1.9-1.4,3.4-3.4,4.1-5c2.9-6.8,3.1-66.7,3.1-75.9c0-16.3-0.5-24.5-0.7-30s-1.2-8.1-1.7-11
		C276.4,31.2,249,32.1,226,34.1c-19.1,1.7-22.6,18.7-22.8,34.7C203,84.2,203,114.5,203,132C203,146.1,203,151.9,203.4,155.4
		L203.4,155.4z M251.3,158.8c-3.7,0.4-7.1,0.9-10.9,0.9c-2.9,0-5.9-0.3-9.2-0.6c-2.3-1.5-3.8-4.2-3.8-7.1V58.3
		c0-4.8,3.9-8.6,8.6-8.6h10.1c4.8,0,8.6,3.9,8.6,8.6v93.6C254.8,154.7,253.4,157.2,251.3,158.8L251.3,158.8z M106.8,163.2
		c-1.7-1.4-3.1-3.4-3.8-6.7c-0.7-3.4-0.7-8.1-0.7-25.7c0-17.5,0-47.7,0.2-63.1c0.2-15.4,0.7-15.8,1.4-17
		c10.7-17.8,27.6-18.1,45.8-16.1c4.3,0.5,8.6,1.4,12.2,2.6s6.5,2.6,9.4,4.6c2.9,1.9,5.8,4.3,7.2,6.9s1.4,5.5,1.7,11
		c0.2,5.5,0.7,13.7,0.7,30c0,16.3-0.5,40.8-1.2,53.7c-0.7,13-1.7,14.4-4.1,16.5c-2.4,2.2-6.2,5-12.7,7.2c-6.5,2.2-15.6,3.6-23,3.8
		c-7.4,0.2-13.2-0.7-17.5-1.7c-4.3-1-7.2-1.9-9.6-2.9C110.4,165.6,108.5,164.6,106.8,163.2L106.8,163.2z M135.3,48.5h10.1
		c4.8,0,8.6,3.9,8.6,8.6v93.6c0,4.8-3.9,8.6-8.6,8.6h-10.1c-4.8,0-8.6-3.9-8.6-8.6V57.2C126.7,52.4,130.6,48.5,135.3,48.5
		L135.3,48.5z"/>
</g>
</svg>
