<?xml version="1.0" encoding="utf-8"?>
<!-- Generator: Adobe Illustrator 24.1.2, SVG Export Plug-In . SVG Version: 6.00 Build 0)  -->
<svg version="1.1" id="Layer_1" xmlns="http://www.w3.org/2000/svg" xmlns:xlink="http://www.w3.org/1999/xlink" x="0px" y="0px"
	 viewBox="0 0 512 512" style="enable-background:new 0 0 512 512;" xml:space="preserve">
<style type="text/css">
	.st0{fill:#000000;}
</style>
<g>
	<g>
		<path class="st0" d="M270.7,117.1c-20.5-20.5-47.8-31.8-76.8-31.8c-12.9,0-23.3,10.4-23.3,23.3c0,12.9,10.4,23.3,23.3,23.3
			c16.6,0,32.2,6.5,43.9,18.2c11.7,11.7,18.2,27.3,18.2,43.9c0,12.9,10.4,23.3,23.3,23.3c0,0,0,0,0,0c12.9,0,23.3-10.4,23.3-23.3
			C302.6,164.9,291.3,137.7,270.7,117.1z"/>
	</g>
</g>
<g>
	<g>
		<path class="st0" d="M505.2,472.3L346.5,313.6c25.9-33,41.4-74.5,41.4-119.6C387.9,87,300.9,0,193.9,0c0,0,0,0,0,0
			C142.1,0,93.4,20.2,56.8,56.8C20.2,93.4,0,142.1,0,193.9c0,106.9,87,193.9,193.9,193.9c45.1,0,86.7-15.5,119.6-41.4l158.7,158.7
			c4.5,4.5,10.5,6.8,16.5,6.8s11.9-2.3,16.5-6.8C514.3,496.1,514.3,481.4,505.2,472.3z M193.9,341.3c-81.3,0-147.4-66.1-147.4-147.4
			c0-39.4,15.3-76.4,43.2-104.2c27.8-27.8,64.9-43.2,104.2-43.2c81.3,0,147.4,66.1,147.4,147.4S275.2,341.3,193.9,341.3z"/>
	</g>
</g>
</svg>
