<svg version="1.1" id="Layer_1" xmlns="http://www.w3.org/2000/svg" x="0" y="0" viewBox="0 0 512 512" xml:space="preserve"><style>.st0{fill:#000}</style><path class="st0" d="M270.7 117.1c-20.5-20.5-47.8-31.8-76.8-31.8-12.9 0-23.3 10.4-23.3 23.3s10.4 23.3 23.3 23.3c16.6 0 32.2 6.5 43.9 18.2 11.7 11.7 18.2 27.3 18.2 43.9 0 12.9 10.4 23.3 23.3 23.3s23.3-10.4 23.3-23.3c0-29.1-11.3-56.3-31.9-76.9z"/><path class="st0" d="M505.2 472.3L346.5 313.6c25.9-33 41.4-74.5 41.4-119.6 0-107-87-194-194-194C142.1 0 93.4 20.2 56.8 56.8 20.2 93.4 0 142.1 0 193.9c0 106.9 87 193.9 193.9 193.9 45.1 0 86.7-15.5 119.6-41.4l158.7 158.7c4.5 4.5 10.5 6.8 16.5 6.8s11.9-2.3 16.5-6.8c9.1-9 9.1-23.7 0-32.8zm-311.3-131c-81.3 0-147.4-66.1-147.4-147.4 0-39.4 15.3-76.4 43.2-104.2 27.8-27.8 64.9-43.2 104.2-43.2 81.3 0 147.4 66.1 147.4 147.4s-66.1 147.4-147.4 147.4z"/></svg>