<?xml version="1.0" encoding="utf-8"?>
<!-- Generator: Adobe Illustrator 24.1.2, SVG Export Plug-In . SVG Version: 6.00 Build 0)  -->
<svg version="1.1" id="Слой_1" xmlns="http://www.w3.org/2000/svg" xmlns:xlink="http://www.w3.org/1999/xlink" x="0px" y="0px"
	 viewBox="0 0 2500 2500" style="enable-background:new 0 0 2500 2500;" xml:space="preserve">
<style type="text/css">
	.st0{fill-rule:evenodd;clip-rule:evenodd;fill:transparent;}
	.st1{fill-rule:evenodd;clip-rule:evenodd;fill:#FFFFFF;}
	.st2{fill-rule:evenodd;clip-rule:evenodd;fill:#353535;}
	.st3{fill-rule:evenodd;clip-rule:evenodd;fill:#353535;}
	.st4{fill-rule:evenodd;clip-rule:evenodd;fill:#353535;}
</style>
<g>
	<path class="st0" d="M0,0h2500v2500H0V0z"/>
	<path class="st1" d="M2432.1,1544.8c14,0,25,11,25,25.6c0,14.9-11,25.8-25,25.8c-14.1,0-25.1-10.9-25.1-25.8
		C2406.9,1555.8,2417.9,1544.8,2432.1,1544.8v-5.1c-17,0-31.4,13.1-31.4,30.8c0,17.9,14.4,31,31.4,31c16.8,0,31.2-13.1,31.2-31
		c0-17.7-14.4-30.8-31.2-30.8V1544.8z"/>
	<path class="st1" d="M2425.5,1557.3h7.3c3.7,0,7.8,0.8,7.8,5.2c0,5.5-4.1,5.8-8.7,5.8h-6.4v4.6h6.2l9.4,15.4h6.1l-10.1-15.7
		c5.2-0.7,9.2-3.4,9.2-9.8c0-7-4.2-10.1-12.6-10.1h-13.6v35.6h5.4L2425.5,1557.3L2425.5,1557.3L2425.5,1557.3z M2431.1,1250
		c0-403.5-327.1-730.6-730.6-730.6c-170.1-0.3-335,59.1-465.9,167.8C1108,581.9,944.9,519.4,767.4,519.4
		c-403.5,0-730.6,327.1-730.6,730.6s327.1,730.6,730.6,730.6c177.5,0,340.7-62.5,467.2-167.8c130.9,108.7,295.8,168.1,465.9,167.8
		C2104,1980.6,2431.1,1653.5,2431.1,1250z"/>
	<path class="st2" d="M2377.5,1250c0-373.9-303.1-677-677-677c-162.3,0-309.8,56.8-426.4,151.9c88.9,85.8,156.8,193.4,193.2,314.9
		h-56.2c-35.2-108-97.2-203.4-177.6-279.9c-81,77.2-141.7,173.2-176.5,279.5l-56.3,0c35.9-119.3,101.8-227.4,191.3-314.1
		C1075.6,631.3,928.7,573,767.4,573c-373.9,0-676.9,303.1-676.9,677s303.1,676.9,676.9,676.9c161.3,0,308.3-58.2,424.5-152.4
		c-89.5-86.7-155.3-194.8-191.3-314.1h56.3c34.8,106.3,95.5,202.4,176.5,279.5c80.5-76.5,142.4-171.8,177.6-279.8h56.2
		c-36.4,121.5-104.3,229-193.2,314.9c116.6,95.2,264.2,151.9,426.4,151.9C2074.4,1926.9,2377.5,1623.9,2377.5,1250L2377.5,1250z"/>
	<path class="st1" d="M1880,1408.6l46.7-250.5h59.1l6.2,24.7c10.6-12.4,30.9-24.7,65.3-24.7l-18.5,65.3c-16.7,0-48.5-4.4-68.8,70.6
		l-21.2,114.7H1880L1880,1408.6z M974.2,1094.5h68.1l-14,66.4h36.7l-12.2,54.1h-34.9l-19.2,101.3c-3.5,19.2-1.7,36.7,37.6,30.6
		l-4.4,50.6c-14.9,9.6-34.9,12.2-50.6,12.2c-15.7,0-67.2-9.6-54.1-77.7L974.2,1094.5L974.2,1094.5z M1269.3,1297
		c7.8-40.2,26.2-139.7-93.4-139.7c-110,0-124,109.2-126.6,124.9c-2.6,15.7-4.4,126.6,113.5,126.6c28.8,0.9,70.7-2.6,87.3-11.3
		l10.5-51.5c-10.5,2.6-49.8,6.1-76.8,6.1c-27.1,0-70.7,1.8-62.9-55H1269.3L1269.3,1297z"/>
	<path class="st3" d="M1125.2,1251.6h84.7c4.4-24.5-3.5-45.4-30.6-45.4C1152.3,1206.2,1133.1,1220.2,1125.2,1251.6
		C1125.2,1251.6,1133.1,1220.2,1125.2,1251.6L1125.2,1251.6z"/>
	<path class="st1" d="M909.6,1216.7l15.7-50.6c-32.3-12.2-57.6-9.6-67.2-9.6c-9.6,0-91.4-1-103.9,59.4c-9.6,46.3,7.3,65.4,23.6,72.5
		c26.2,11.3,41.1,21.8,55,28.8c17.3,8.6,14.1,37.5-8.7,37.5c-10.5,0-55.9,5.2-89.9-6.1l-9.6,51.5c31.4,8.7,56.7,8.7,80.3,8.7
		c16.6,0,97.8,4.4,109.1-70.7c5.6-36.6-10.5-53.3-23.6-61.1c-13.1-8.7-34.9-20.9-48.9-27.1c-14-6.1-24.4-29.7,0.9-36.7
		C858,1211.4,890.3,1211.4,909.6,1216.7C909.6,1216.7,890.3,1211.4,909.6,1216.7L909.6,1216.7z M467.7,1408.8l56.8-302.1H412.7
		l-83,183.4l-13.1-183.4H207.5L149,1408.8h68.1l41.9-218.3l18.4,218.3H342l95.2-213.1L397,1408.8H467.7L467.7,1408.8z M542.8,1165.2
		l-10.5,54.1c16.6-1.7,61.1-8.7,84.7-7.9c23.6,0.9,49.8-2.6,41.9,34.9c-17.5,1.8-139.7-17.5-158.9,87.3c-7.9,51.6,36.7,77.7,71.6,76
		c34.9-1.8,44.5-6.1,56.8-14.9l8.7,14h63.7l27.1-136.2c7-34,18.3-116.1-96.1-116.1C610.9,1157.3,587.4,1156.4,542.8,1165.2
		C542.8,1165.2,587.4,1156.4,542.8,1165.2L542.8,1165.2z"/>
	<path class="st3" d="M647.6,1297c-11.3-1.8-36.7-8.7-58.5,6.1c-21.8,14.9-27.9,41-5.2,49.8c21.9,8.4,54.1-6.1,58.5-28.8L647.6,1297
		z"/>
	<path class="st1" d="M1646.6,1176.5c-17.5-10.5-29.7-12.2-52.4-12.2c-22.7,0-73.4,21.7-83,82.9c-11.3,72.5,38.4,108.3,108.3,84.7
		l20.1,61.1c-22.7,10.5-45.4,15.7-83,15.7c-70.7,0-147.6-62.9-112.7-190.4c25.8-94,106.6-128.4,153.7-126.6
		c55.9,2.1,76,21,93.4,40.2L1646.6,1176.5L1646.6,1176.5z M2227.3,1187c-13.1-9.6-21-29.7-53.3-29.7c-37.5,0-96.1-7-129.2,106.5
		c-22.2,75.9,22.7,145,71.6,145c22.7-0.9,45.4-10.5,59.4-20.1l8.8,20.1h73.3l59.4-317.8h-71.6L2227.3,1187L2227.3,1187z"/>
	<path class="st4" d="M2202.8,1289.2c7-22.7,3.2-51.1-4.4-61.1c-20.9-27.9-69.1-5.8-83.8,48.9c-9.6,35.8,11.3,62.9,34.9,62.9
		C2174.9,1339.8,2190.6,1319.7,2202.8,1289.2z"/>
	<path class="st1" d="M1695.4,1165.2l-10.5,54.1c16.6-1.7,61.1-8.7,84.7-7.9c23.6,0.9,49.8-2.6,41.9,34.9
		c-17.5,1.8-139.7-17.5-158.9,87.3c-7.9,51.6,36.7,77.7,71.6,76s44.5-6.1,56.8-14.9l8.7,14h63.7l27.1-136.2
		c7-34,18.3-116.1-96.1-116.1C1763.6,1157.3,1740,1156.4,1695.4,1165.2C1695.4,1165.2,1740,1156.4,1695.4,1165.2L1695.4,1165.2z"/>
	<path class="st4" d="M1800.2,1297c-11.3-1.8-36.7-8.7-58.5,6.1s-27.9,41-5.2,49.8c21.9,8.4,54.1-6.1,58.5-28.8L1800.2,1297
		L1800.2,1297z"/>
	<path class="st1" d="M1271.3,1408.8l46.3-248h58.5l6.1,24.4c10.5-12.2,30.5-24.4,64.6-24.4l-17.5,65.5c-16.6,0-48.9-5.2-69,69
		l-20.9,113.5H1271.3z"/>
</g>
</svg>
