<svg version="1.1" id="Слой_1" xmlns="http://www.w3.org/2000/svg" x="0" y="0" viewBox="0 0 2500 2500" xml:space="preserve"><style>.st1,.st3,.st4{fill-rule:evenodd;clip-rule:evenodd;fill:#fff}.st3,.st4{fill:#353535}</style><path d="M0 0h2500v2500H0V0z" fill-rule="evenodd" clip-rule="evenodd" fill="transparent"/><path class="st1" d="M2432.1 1544.8c14 0 25 11 25 25.6 0 14.9-11 25.8-25 25.8-14.1 0-25.1-10.9-25.1-25.8-.1-14.6 10.9-25.6 25.1-25.6v-5.1c-17 0-31.4 13.1-31.4 30.8 0 17.9 14.4 31 31.4 31 16.8 0 31.2-13.1 31.2-31 0-17.7-14.4-30.8-31.2-30.8v5.1z"/><path class="st1" d="M2425.5 1557.3h7.3c3.7 0 7.8.8 7.8 5.2 0 5.5-4.1 5.8-8.7 5.8h-6.4v4.6h6.2l9.4 15.4h6.1l-10.1-15.7c5.2-.7 9.2-3.4 9.2-9.8 0-7-4.2-10.1-12.6-10.1h-13.6v35.6h5.4v-31zm5.6-307.3c0-403.5-327.1-730.6-730.6-730.6-170.1-.3-335 59.1-465.9 167.8C1108 581.9 944.9 519.4 767.4 519.4c-403.5 0-730.6 327.1-730.6 730.6s327.1 730.6 730.6 730.6c177.5 0 340.7-62.5 467.2-167.8 130.9 108.7 295.8 168.1 465.9 167.8 403.5 0 730.6-327.1 730.6-730.6z"/><path d="M2377.5 1250c0-373.9-303.1-677-677-677-162.3 0-309.8 56.8-426.4 151.9 88.9 85.8 156.8 193.4 193.2 314.9h-56.2c-35.2-108-97.2-203.4-177.6-279.9-81 77.2-141.7 173.2-176.5 279.5h-56.3c35.9-119.3 101.8-227.4 191.3-314.1-116.4-94-263.3-152.3-424.6-152.3-373.9 0-676.9 303.1-676.9 677s303.1 676.9 676.9 676.9c161.3 0 308.3-58.2 424.5-152.4-89.5-86.7-155.3-194.8-191.3-314.1h56.3c34.8 106.3 95.5 202.4 176.5 279.5 80.5-76.5 142.4-171.8 177.6-279.8h56.2c-36.4 121.5-104.3 229-193.2 314.9 116.6 95.2 264.2 151.9 426.4 151.9 374 0 677.1-303 677.1-676.9z" fill-rule="evenodd" clip-rule="evenodd" fill="#353535"/><path class="st1" d="M1880 1408.6l46.7-250.5h59.1l6.2 24.7c10.6-12.4 30.9-24.7 65.3-24.7l-18.5 65.3c-16.7 0-48.5-4.4-68.8 70.6l-21.2 114.7H1880v-.1zm-905.8-314.1h68.1l-14 66.4h36.7l-12.2 54.1h-34.9l-19.2 101.3c-3.5 19.2-1.7 36.7 37.6 30.6l-4.4 50.6c-14.9 9.6-34.9 12.2-50.6 12.2-15.7 0-67.2-9.6-54.1-77.7l47-237.5zm295.1 202.5c7.8-40.2 26.2-139.7-93.4-139.7-110 0-124 109.2-126.6 124.9-2.6 15.7-4.4 126.6 113.5 126.6 28.8.9 70.7-2.6 87.3-11.3l10.5-51.5c-10.5 2.6-49.8 6.1-76.8 6.1-27.1 0-70.7 1.8-62.9-55h148.4v-.1z"/><path class="st3" d="M1125.2 1251.6h84.7c4.4-24.5-3.5-45.4-30.6-45.4-27 0-46.2 14-54.1 45.4 0 0 7.9-31.4 0 0z"/><path class="st1" d="M909.6 1216.7l15.7-50.6c-32.3-12.2-57.6-9.6-67.2-9.6-9.6 0-91.4-1-103.9 59.4-9.6 46.3 7.3 65.4 23.6 72.5 26.2 11.3 41.1 21.8 55 28.8 17.3 8.6 14.1 37.5-8.7 37.5-10.5 0-55.9 5.2-89.9-6.1l-9.6 51.5c31.4 8.7 56.7 8.7 80.3 8.7 16.6 0 97.8 4.4 109.1-70.7 5.6-36.6-10.5-53.3-23.6-61.1-13.1-8.7-34.9-20.9-48.9-27.1-14-6.1-24.4-29.7.9-36.7 15.6-1.8 47.9-1.8 67.2 3.5 0 0-19.3-5.3 0 0zm-441.9 192.1l56.8-302.1H412.7l-83 183.4-13.1-183.4H207.5L149 1408.8h68.1l41.9-218.3 18.4 218.3H342l95.2-213.1-40.2 213.1h70.7zm75.1-243.6l-10.5 54.1c16.6-1.7 61.1-8.7 84.7-7.9 23.6.9 49.8-2.6 41.9 34.9-17.5 1.8-139.7-17.5-158.9 87.3-7.9 51.6 36.7 77.7 71.6 76 34.9-1.8 44.5-6.1 56.8-14.9l8.7 14h63.7l27.1-136.2c7-34 18.3-116.1-96.1-116.1-20.9.9-44.4 0-89 8.8 0 0 44.6-8.8 0 0z"/><path class="st3" d="M647.6 1297c-11.3-1.8-36.7-8.7-58.5 6.1-21.8 14.9-27.9 41-5.2 49.8 21.9 8.4 54.1-6.1 58.5-28.8l5.2-27.1z"/><path class="st1" d="M1646.6 1176.5c-17.5-10.5-29.7-12.2-52.4-12.2s-73.4 21.7-83 82.9c-11.3 72.5 38.4 108.3 108.3 84.7l20.1 61.1c-22.7 10.5-45.4 15.7-83 15.7-70.7 0-147.6-62.9-112.7-190.4 25.8-94 106.6-128.4 153.7-126.6 55.9 2.1 76 21 93.4 40.2l-44.4 44.6zm580.7 10.5c-13.1-9.6-21-29.7-53.3-29.7-37.5 0-96.1-7-129.2 106.5-22.2 75.9 22.7 145 71.6 145 22.7-.9 45.4-10.5 59.4-20.1l8.8 20.1h73.3l59.4-317.8h-71.6l-18.4 96z"/><path class="st4" d="M2202.8 1289.2c7-22.7 3.2-51.1-4.4-61.1-20.9-27.9-69.1-5.8-83.8 48.9-9.6 35.8 11.3 62.9 34.9 62.9 25.4-.1 41.1-20.2 53.3-50.7z"/><path class="st1" d="M1695.4 1165.2l-10.5 54.1c16.6-1.7 61.1-8.7 84.7-7.9 23.6.9 49.8-2.6 41.9 34.9-17.5 1.8-139.7-17.5-158.9 87.3-7.9 51.6 36.7 77.7 71.6 76s44.5-6.1 56.8-14.9l8.7 14h63.7l27.1-136.2c7-34 18.3-116.1-96.1-116.1-20.8.9-44.4 0-89 8.8 0 0 44.6-8.8 0 0z"/><path class="st4" d="M1800.2 1297c-11.3-1.8-36.7-8.7-58.5 6.1s-27.9 41-5.2 49.8c21.9 8.4 54.1-6.1 58.5-28.8l5.2-27.1z"/><path class="st1" d="M1271.3 1408.8l46.3-248h58.5l6.1 24.4c10.5-12.2 30.5-24.4 64.6-24.4l-17.5 65.5c-16.6 0-48.9-5.2-69 69l-20.9 113.5h-68.1z"/></svg>