<?xml version="1.0" encoding="utf-8"?>
<!-- Generator: Adobe Illustrator 24.1.2, SVG Export Plug-In . SVG Version: 6.00 Build 0)  -->
<svg version="1.1" id="layer" xmlns="http://www.w3.org/2000/svg" xmlns:xlink="http://www.w3.org/1999/xlink" x="0px" y="0px"
	 viewBox="0 0 600.1 229.6" style="enable-background:new 0 0 600.1 229.6;" xml:space="preserve">
<style type="text/css">
	.st0{enable-background:new    ;}
	.st1{fill:#FFFFFF;}
	.st2{fill:#353535;}
</style>
<g id="Page-1">
	<g transform="translate(0.000000, -8.000000)">
		<g class="st0">
			<path class="st1" d="M409.7,138.4l6,1.8c-0.4,1.7-1,3.1-1.9,4.2s-1.9,2-3.2,2.5c-1.3,0.6-2.9,0.9-4.9,0.9c-2.4,0-4.3-0.3-5.9-1
				c-1.5-0.7-2.8-1.9-3.9-3.7c-1.1-1.7-1.7-4-1.7-6.7c0-3.6,1-6.4,2.9-8.4s4.7-2.9,8.2-2.9c2.8,0,4.9,0.6,6.5,1.7s2.8,2.8,3.5,5.2
				l-6,1.3c-0.2-0.7-0.4-1.2-0.7-1.5c-0.4-0.5-0.8-0.9-1.4-1.2c-0.6-0.3-1.2-0.4-1.8-0.4c-1.5,0-2.7,0.6-3.5,1.9
				c-0.6,0.9-0.9,2.4-0.9,4.3c0,2.4,0.4,4.1,1.1,5s1.8,1.4,3.1,1.4c1.3,0,2.3-0.4,2.9-1.1C408.9,140.8,409.4,139.8,409.7,138.4z"/>
			<path class="st1" d="M418.1,136.4c0-3.6,1-6.4,3-8.4s4.8-3,8.4-3c3.7,0,6.5,1,8.5,2.9c2,2,3,4.7,3,8.3c0,2.6-0.4,4.7-1.3,6.3
				c-0.9,1.6-2.1,2.9-3.8,3.8c-1.6,0.9-3.7,1.4-6.1,1.4c-2.5,0-4.5-0.4-6.2-1.2c-1.6-0.8-2.9-2-4-3.8S418.1,139,418.1,136.4z
				 M424.9,136.4c0,2.2,0.4,3.8,1.2,4.8c0.8,1,1.9,1.5,3.4,1.5s2.6-0.5,3.4-1.4c0.8-1,1.2-2.7,1.2-5.1c0-2.1-0.4-3.6-1.3-4.5
				c-0.8-1-2-1.4-3.4-1.4s-2.5,0.5-3.3,1.5C425.3,132.6,424.9,134.2,424.9,136.4z"/>
			<path class="st1" d="M444.5,125.4h8.9l3.4,13.4l3.4-13.4h8.9v22h-5.6v-16.8l-4.3,16.8h-5l-4.3-16.8v16.8h-5.6v-22H444.5z"/>
			<path class="st1" d="M473.5,125.4h11.3c2.5,0,4.3,0.6,5.5,1.8c1.2,1.2,1.8,2.8,1.8,5s-0.7,4-2,5.2c-1.3,1.3-3.4,1.9-6.1,1.9h-3.7
				v8.2h-6.8L473.5,125.4L473.5,125.4z M480.3,134.8h1.7c1.3,0,2.2-0.2,2.8-0.7c0.5-0.5,0.8-1,0.8-1.7s-0.2-1.3-0.7-1.8
				s-1.3-0.7-2.6-0.7h-1.9L480.3,134.8L480.3,134.8z"/>
			<path class="st1" d="M495.7,125.4h6.8V142h10.6v5.4h-17.4L495.7,125.4L495.7,125.4z"/>
			<path class="st1" d="M516.5,125.4h6.8v22h-6.8V125.4z"/>
			<path class="st1" d="M541.7,143.7H534l-1.1,3.6H526l8.3-22h7.4l8.3,22h-7.1L541.7,143.7z M540.3,139l-2.4-7.9l-2.4,7.9H540.3z"/>
			<path class="st1" d="M552.1,125.4h6.3l8.3,12.2v-12.2h6.4v22h-6.4l-8.2-12.1v12.1h-6.4L552.1,125.4L552.1,125.4z"/>
			<path class="st1" d="M576.1,125.4h20.7v5.4h-6.9v16.6h-6.8v-16.6h-6.9L576.1,125.4L576.1,125.4z"/>
		</g>
		<g id="Rectangle-3-_x2B_-Letters" transform="translate(0.000000, 8.500000)">
			<path id="Rectangle-3" class="st1" d="M327.9,150.4l19.7-6.2l-6.4-14.2C336.5,135.9,331.8,143.5,327.9,150.4z M321.2,85.5
				l-38.6-86L0,15.5l78.3,213.6L229,181.6c-9.6-13.8-13.1-30.2-2-38.2c12.4-9,31.1,1.4,43,16.1C281.5,140.3,313.8,95.6,321.2,85.5z"
				/>
			<g id="Letters" transform="translate(101.995804, 41.349650)">
				<path id="Oval-1" class="st2" d="M171.8,20.3c11.8,0,21.4-9,21.4-20.2s-9.6-20.2-21.4-20.2c-11.8,0-21.4,9-21.4,20.2
					C150.4,11.2,160,20.3,171.8,20.3z M154.3,29h35v91.5h-35V29z"/>
				<path id="Path-3" class="st2" d="M137,55.7c0.3,0.1,0.5,0,0.5-0.3V32.2c0-0.3-0.2-0.6-0.5-0.8c0,0-4.6-3-18.6-3.8
					c-0.7-0.4-13-0.5-16.3,0c-51,4.1-52.9,41-52.9,42.6v9c0,1.1,0,38.8,52.9,42.1c5.2,0.4,15.3,0,16.3,0c12.2,0,20.6-3.7,20.6-3.7
					c0.3-0.1,0.5-0.4,0.5-0.7V95.2c0-0.3-0.2-0.4-0.4-0.2c0,0-3.8,3-20.4,4.7c-4.7,0.5-7,0.3-8.7,0c-23.6-4-24.7-21.2-24.7-21.2
					c0-0.3-0.1-0.8-0.1-1v-6.6c0-0.3,0-0.8,0.1-1c0,0,1.6-18.5,24.7-20.5h8.7C128.8,50.7,137,55.7,137,55.7z"/>
				<path id="Path-1" class="st2" d="M-48,120.2c0,0.3,0.2,0.5,0.5,0.5h34.1c0.3,0,0.5-0.2,0.5-0.5V93.6c0-0.3,0.2-0.5,0.5-0.5
					c0,0,54.5,3.9,54.5-32.6c0-28.9-34.2-32-45.4-31.5c-0.2,0-44.2,0-44.2,0c-0.3,0-0.5,0.2-0.5,0.5V120.2z M-13.5,72.8V48.9h8.4
					c0,0,12.1,0.5,13.1,8.8c0.2,0.6,0.2,4.7,0,4.9C6.4,72.3-4.1,72.8-4.1,72.8H-13.5z"/>
			</g>
			<path id="Path-7" class="st1" d="M274.8,206c2.8,0,5,0,8.6-1.6c12.4-6.5,54.3-108.8,98.5-140.3c0.3-0.2,0.6-0.5,0.8-0.8
				c0.3-0.4,0.3-0.8,0.3-0.8s0-2.1-6.5-2.1c-39.3-1.1-80.2,81.4-101.7,114c-0.3,0.4-1.7,0-1.7,0s-14.4-17-26.9-23.5
				c-0.3-0.1-1.7-0.6-3.2-0.5c-1,0-6.8,1.2-9.5,4c-3.2,3.4-3.1,5.3-3.1,9.4c0,0.3,0.2,1.7,0.6,2.4c3.1,5.4,17,24.6,28.5,35.2
				C261.2,202.7,263.9,206,274.8,206z"/>
		</g>
		<g class="st0">
			<path class="st1" d="M393.5,41.7h32.7c6.5,0,11.7,0.9,15.6,2.6c4,1.8,7.3,4.3,9.8,7.5c2.6,3.3,4.5,7.1,5.6,11.4
				c1.2,4.3,1.8,8.9,1.8,13.8c0,7.6-0.9,13.5-2.6,17.7s-4.1,7.7-7.2,10.6c-3.1,2.8-6.4,4.7-9.9,5.7c-4.8,1.3-9.2,1.9-13.1,1.9h-32.7
				L393.5,41.7L393.5,41.7z M415.5,57.8v38.9h5.4c4.6,0,7.9-0.5,9.8-1.5s3.5-2.8,4.6-5.3s1.7-6.7,1.7-12.4c0-7.6-1.2-12.7-3.7-15.5
				s-6.5-4.2-12.3-4.2H415.5z"/>
			<path class="st1" d="M465.1,89.4l21-1.3c0.5,3.4,1.4,6,2.8,7.8c2.3,2.9,5.5,4.3,9.7,4.3c3.1,0,5.6-0.7,7.3-2.2s2.6-3.2,2.6-5.1
				c0-1.8-0.8-3.5-2.4-5c-1.6-1.5-5.4-2.8-11.3-4.1c-9.7-2.2-16.5-5.1-20.7-8.7s-6.2-8.2-6.2-13.8c0-3.7,1.1-7.1,3.2-10.4
				c2.1-3.3,5.3-5.8,9.6-7.7c4.3-1.9,10.1-2.8,17.5-2.8c9.1,0,16.1,1.7,20.8,5.1c4.8,3.4,7.6,8.8,8.5,16.2l-20.8,1.2
				c-0.6-3.2-1.7-5.5-3.5-7s-4.2-2.2-7.3-2.2c-2.6,0-4.5,0.5-5.8,1.6s-1.9,2.4-1.9,4c0,1.1,0.5,2.2,1.6,3.1c1,0.9,3.5,1.8,7.4,2.6
				c9.6,2.1,16.5,4.2,20.7,6.3c4.2,2.1,7.2,4.8,9.1,7.9c1.9,3.1,2.8,6.7,2.8,10.6c0,4.6-1.3,8.8-3.8,12.6c-2.5,3.9-6.1,6.8-10.6,8.8
				s-10.3,3-17.2,3c-12.1,0-20.5-2.3-25.2-7C468.4,102.5,465.8,96.6,465.1,89.4z"/>
		</g>
		<g class="st0">
			<path class="st1" d="M535.4,89.4l21-1.3c0.5,3.4,1.4,6,2.8,7.8c2.3,2.9,5.5,4.3,9.7,4.3c3.1,0,5.6-0.7,7.3-2.2s2.6-3.2,2.6-5.1
				c0-1.8-0.8-3.5-2.4-5c-1.6-1.5-5.4-2.8-11.3-4.1c-9.7-2.2-16.5-5.1-20.7-8.7c-4.1-3.6-6.2-8.2-6.2-13.8c0-3.7,1.1-7.1,3.2-10.4
				c2.1-3.3,5.3-5.8,9.6-7.7s10.1-2.8,17.5-2.8c9.1,0,16.1,1.7,20.8,5.1c4.8,3.4,7.6,8.8,8.5,16.2L577,62.9c-0.6-3.2-1.7-5.5-3.5-7
				s-4.2-2.2-7.3-2.2c-2.6,0-4.5,0.5-5.8,1.6s-1.9,2.4-1.9,4c0,1.1,0.5,2.2,1.6,3.1c1,0.9,3.5,1.8,7.4,2.6
				c9.6,2.1,16.5,4.2,20.7,6.3c4.2,2.1,7.2,4.8,9.1,7.9c1.9,3.1,2.8,6.7,2.8,10.6c0,4.6-1.3,8.8-3.8,12.6c-2.5,3.9-6.1,6.8-10.6,8.8
				s-10.3,3-17.2,3c-12.1,0-20.5-2.3-25.2-7C538.6,102.5,536,96.6,535.4,89.4z"/>
		</g>
	</g>
</g>
</svg>
