<svg xmlns="http://www.w3.org/2000/svg" viewBox="0 0 55.96 51.84"><path d="M1.58 5.83S4.65.46 7.15.16s5.72-.31 6.59 1.33 4.75 11.13 4.75 11.13a3.75 3.75 0 0 1-.36 3.22 31.12 31.12 0 0 1-3.32 3.88 2.86 2.86 0 0 0 0 3.38 61.81 61.81 0 0 0 7.36 9c4.09 4.1 11.95 7 11.95 7a2.39 2.39 0 0 0 1.88-.53c.72-.71 4.6-5.56 4.6-5.56a2.73 2.73 0 0 1 3.32-.67c2.07.95 11 5.42 11 5.42a1.93 1.93 0 0 1 1.05 2c0 1.59-.64 5.46-2 6.77s-5.14 5.35-10.9 5.35-19.46-4.68-26.77-12S2.55 25.14 1 18.4s-1.31-9.79.58-12.57z" fill="#fff"/></svg>