<svg xmlns="http://www.w3.org/2000/svg"><defs><style>.cls-1{fill:red}</style></defs><symbol id="cart" viewBox="0 0 32 29.5"><style>.st0{fill:red}</style><path class="st0" d="M3.5 23.9c-.4 0-.8-.3-.8-.8 0-.4.3-.8.8-.8h18.6c.4 0 .7.3.7.8 0 .4-.3.7-.8.7H3.5z"/><path class="st0" d="M22.2 27.4c-.1.4-.5.6-.9.6-.1 0-.2 0-.4-.1-.5-.2-.7-.7-.6-1.2l1.8-4.4-1.4-3.9c-.2-.5.1-1 .6-1.2.5-.2 1 .1 1.2.6l1.5 4.3c.1.2.1.5 0 .7l-1.8 4.6z"/><path class="st0" d="M19.9 25.5c-1 .8-1.1 2.2-.3 3.2s2.2 1.1 3.2.3 1.1-2.2.3-3.2l-.7 1.7c-.2.5-.6.7-1.1.7-.1 0-.3 0-.4-.1-.6-.2-.9-.9-.6-1.5l.6-1.6c-.4.1-.7.2-1 .5zM2.7 27.2c0 1.2 1 2.2 2.3 2.2.5 0 1-.2 1.4-.5 1-.8 1.1-2.2.4-3.2l-.7 1.7c-.2.4-.6.7-1.1.7-.2 0-.3 0-.4-.1-.6-.2-.9-.9-.6-1.5l.5-1.5c-1.1.2-1.8 1.2-1.8 2.2z"/><path class="st0" d="M7.3 23.4h-2L4 26.6c-.2.5.1 1 .5 1.2.1 0 .2.1.3.1.4 0 .7-.2.9-.6l1.6-3.9zm16.2-4.7c-.1.5-.6.9-1.1.9h-.2c-.6-.1-1-.7-.9-1.3L24.5 1c.1-.6.5-1 1.1-1h5.3c.6 0 1.1.5 1.1 1.1 0 .6-.5 1.1-1.1 1.1h-4.4l-3 16.5z"/><path class="st0" d="M0 7l2.9 12.7c0 .3.2.5.5.5h19.2c.3 0 .5-.2.5-.5L25.6 7c0-.3-.1-.5-.4-.5H.5c-.3 0-.5.2-.5.5zm3.9 2.6c0-.2.2-.4.4-.4h17.2c.2 0 .4.2.4.4l-1.6 7.9c0 .2-.2.4-.4.4H6.2c-.2 0-.4-.2-.4-.4L3.9 9.6z"/></symbol><symbol id="exit" viewBox="0 0 33.54 35.69"><path class="cls-1" d="M15.54 28.41l11-10.56-11-10.57v4.57H1.5a1.5 1.5 0 0 0-1.5 1.5v9a1.5 1.5 0 0 0 1.5 1.5h14z"/><path class="cls-1" d="M29.09 0H11a4.46 4.46 0 0 0-4.46 4.46v4.46h2.75V4.46A1.71 1.71 0 0 1 11 2.75h18.09a1.71 1.71 0 0 1 1.71 1.71v26.78A1.72 1.72 0 0 1 29.09 33H11a1.72 1.72 0 0 1-1.71-1.71v-4.54H6.54v4.49A4.46 4.46 0 0 0 11 35.69h18.09a4.45 4.45 0 0 0 4.45-4.45V4.46A4.46 4.46 0 0 0 29.09 0z"/></symbol><symbol id="facebook" viewBox="0 0 13 25"><path d="M8.4 25V13.6h3.8l.6-4.5H8.4V6.3c0-1.3.4-2.2 2.2-2.2H13v-4C11.8.1 10.7 0 9.5 0 6.2 0 3.8 2.1 3.8 5.9v3.3H0v4.5h3.8V25h4.6z" fill="#ed3f5e"/></symbol><symbol id="heart" viewBox="0 0 115.58 96.75"><path d="M57.92 96.75Q51 89.9 43.73 83.52a134.59 134.59 0 0 0-15.08-11.6C26 70.16 23.49 69.11 20.28 67a52.62 52.62 0 0 1-8.16-6.6A40.76 40.76 0 0 1 1 41.89a30.57 30.57 0 0 1-.75-11.58 30.23 30.23 0 0 1 3.69-11.08 42.37 42.37 0 0 1 6.8-8.93l1.92-1.82c.67-.61 1.55-1.3 2.33-1.93a38.11 38.11 0 0 1 5-3.18A29.34 29.34 0 0 1 31.74.15a32.73 32.73 0 0 1 11.83 1.69 43.67 43.67 0 0 1 10.19 4.69c3.16 2.08 5.83 3.58 8.75 6.86h-9.57c2.88-3.28 5.53-4.86 8.71-6.92a43.74 43.74 0 0 1 10.21-4.82A33.09 33.09 0 0 1 83.72 0a29.62 29.62 0 0 1 11.8 3.19 37.27 37.27 0 0 1 9.39 7.12l1.64 1.79 1.88 2.28a43.9 43.9 0 0 1 3.16 4.78 31.65 31.65 0 0 1 3.75 11.1 30.75 30.75 0 0 1-.79 11.62 41.41 41.41 0 0 1-11.13 18.57 52.71 52.71 0 0 1-8.18 6.59c-.72.49-1.49.93-2.24 1.38l-2.15 1.19-2.11 1.2-1.9 1.19a88.75 88.75 0 0 0-7.67 5.43c-2.53 1.93-4.93 4.05-7.4 6.11-4.85 4.22-9.59 8.63-14.24 13.18A164.25 164.25 0 0 1 69.18 81a117.15 117.15 0 0 1 13.91-14.19l2-1.65 2-1.42 2-1.38c.59-.46 1.19-.89 1.76-1.38a44 44 0 0 0 6.27-6.31c3.7-4.57 6.58-9.75 7.48-15A20.7 20.7 0 0 0 101.66 25a30.2 30.2 0 0 0-2.35-3.2L98 20.36l-1.72-1.71A25.83 25.83 0 0 0 90 14.44a18.51 18.51 0 0 0-6.85-1.66A20.39 20.39 0 0 0 75.94 14a31.27 31.27 0 0 0-7.14 3.64c-1.15.76-2.27 1.61-3.35 2.49s-2.24 1.9-2.94 2.6l-4.87 4.94-4.7-4.94a39.58 39.58 0 0 0-6.24-5.16 31 31 0 0 0-7.17-3.63 18.67 18.67 0 0 0-14.16.4 26 26 0 0 0-3.27 1.87c-.49.38-.91.63-1.48 1.08L19 18.71a30.75 30.75 0 0 0-5.23 6.22A22.72 22.72 0 0 0 10.84 32a20.12 20.12 0 0 0-.07 7.7c.92 5.28 3.81 10.47 7.5 15.07a45.19 45.19 0 0 0 6.3 6.3c2 1.76 5.3 3.59 7.76 5.85a115.3 115.3 0 0 1 13.9 14.16 165.71 165.71 0 0 1 11.69 15.67z" fill="#e30613"/></symbol><symbol id="instagram" viewBox="0 0 29.2 30.1"><path d="M14.6 7.3c-4.1 0-7.5 3.4-7.5 7.7 0 4.3 3.3 7.7 7.5 7.7 4.1 0 7.5-3.4 7.5-7.7 0-4.2-3.4-7.7-7.5-7.7zm0 12.8c-2.7 0-4.9-2.3-4.9-5s2.2-5 4.9-5 4.9 2.3 4.9 5-2.2 5-4.9 5zm7.8-14.9c-1 0-1.7.8-1.7 1.8s.8 1.8 1.7 1.8S24.1 8 24.1 7c0-.2 0-.5-.1-.7-.1-.2-.2-.4-.4-.6-.2-.2-.4-.3-.6-.4-.2 0-.4-.1-.6-.1zm6.8 9.8c0-2.1 0-4.1-.1-6.2-.1-2.4-.6-4.5-2.4-6.3C25 .8 23 .2 20.6.1c-2-.1-4-.1-6-.1s-4 0-6 .1C6.2.2 4.2.8 2.5 2.5.7 4.3.2 6.4.1 8.8 0 10.9 0 13 0 15c0 2.1 0 4.1.1 6.2.1 2.4.6 4.5 2.4 6.3 1.7 1.8 3.8 2.3 6.1 2.4 2 .1 4 .1 6 .1s4 0 6-.1c2.3-.1 4.4-.7 6.1-2.4 1.7-1.8 2.2-3.9 2.4-6.3.1-2 .1-4.1.1-6.2zM26 23.9c-.3.7-.6 1.2-1.1 1.7-.5.5-1 .9-1.7 1.1-1.9.8-6.5.6-8.6.6-2.1 0-6.7.2-8.6-.6-.7-.3-1.2-.6-1.7-1.1-.5-.5-.8-1-1.1-1.7-.8-2-.6-6.7-.6-8.9s-.2-6.9.6-8.8c.3-.7.6-1.2 1.1-1.8s1-.9 1.7-1.1c1.9-.8 6.5-.6 8.6-.6 2.1 0 6.7-.2 8.6.6.7.3 1.2.6 1.7 1.1.5.5.8 1 1.1 1.7.8 2 .6 6.7.6 8.9s.1 6.9-.6 8.9z" fill="#ed3f5e"/></symbol><symbol id="telegram" viewBox="0 0 512.004 512.004"><path d="M508.194 20.517c-4.43-4.96-11.42-6.29-17.21-3.76l-482 211a15.01 15.01 0 0 0-8.98 13.41 15.005 15.005 0 0 0 8.38 13.79l115.09 56.6 28.68 172.06c.93 6.53 6.06 11.78 12.74 12.73 4.8.69 9.57-1 12.87-4.4l90.86-90.86 129.66 92.62a15.02 15.02 0 0 0 14.24 1.74 15.01 15.01 0 0 0 9.19-11.01l90-451c.89-4.47-.26-9.26-3.52-12.92zm-372.84 263.45l-84.75-41.68 334.82-146.57-250.07 188.25zm46.94 44.59l-13.95 69.75-15.05-90.3 183.97-138.49-150.88 151.39c-2.12 2.12-3.53 4.88-4.09 7.65zm9.13 107.3l15.74-78.67 36.71 26.22-52.45 52.45zm205.41 19.94l-176.73-126.23 252.47-253.31-75.74 379.54z"/></symbol><symbol id="viber" viewBox="0 0 24 24"><path d="M23.155 13.893c.716-6.027-.344-9.832-2.256-11.553l.001-.001C17.814-.6 7.392-1.035 3.7 2.471 2.042 4.186 1.458 6.703 1.394 9.819c-.064 3.117-.14 8.956 5.301 10.54H6.7l-.005 2.419s-.037.98.589 1.177c.716.232 1.04-.223 3.267-2.883 3.724.323 6.584-.417 6.909-.525.752-.252 5.007-.815 5.695-6.654zM10.918 19.37s-2.357 2.939-3.09 3.702c-.24.248-.503.225-.499-.267 0-.323.018-4.016.018-4.016-4.613-1.322-4.341-6.294-4.291-8.895.05-2.602.526-4.733 1.93-6.168C8.225.689 17.362 1.368 19.69 3.556c2.846 2.523 1.833 9.651 1.839 9.894-.585 4.874-4.033 5.183-4.667 5.394-.271.09-2.786.737-5.944.526z"/><path d="M12.222 4.297c-.385 0-.385.6 0 .605 2.987.023 5.447 2.105 5.474 5.924 0 .403.59.398.585-.005h-.001c-.032-4.115-2.718-6.501-6.058-6.524z"/><path d="M16.151 10.193c-.009.398.58.417.585.014.049-2.269-1.35-4.138-3.979-4.335-.385-.028-.425.577-.041.605 2.28.173 3.481 1.729 3.435 3.716zm-.63 2.581c-.494-.286-.997-.108-1.205.173l-.435.563c-.221.286-.634.248-.634.248-3.014-.797-3.82-3.951-3.82-3.951s-.037-.427.239-.656l.544-.45c.272-.216.444-.736.167-1.247-.74-1.337-1.237-1.798-1.49-2.152-.266-.333-.666-.408-1.082-.183h-.009c-.865.506-1.812 1.453-1.509 2.428.517 1.028 1.467 4.305 4.495 6.781 1.423 1.171 3.675 2.371 4.631 2.648l.009.014c.942.314 1.858-.67 2.347-1.561v-.007c.217-.431.145-.839-.172-1.106-.562-.548-1.41-1.153-2.076-1.542z"/><path d="M13.169 8.104c.961.056 1.427.558 1.477 1.589.018.403.603.375.585-.028-.064-1.346-.766-2.096-2.03-2.166-.385-.023-.421.582-.032.605z"/></symbol></svg>