<svg xmlns="http://www.w3.org/2000/svg" xmlns:xlink="http://www.w3.org/1999/xlink"><defs><style>.cls-1{fill:red}</style><style>.cls-1{fill:red}</style></defs><symbol id="cart" viewBox="0 0 32.01 29.47"><path class="cls-1" d="M9.93 23.88a.74.74 0 0 1-.75-.75.75.75 0 0 1 .75-.76h18.6a.76.76 0 0 1 .76.76.75.75 0 0 1-.76.75H9.93z"/><path class="cls-1" d="M9.81 27.35l-1.88-4.72a1 1 0 0 1 0-.67l1.51-4.27a.93.93 0 0 1 1.2-.57.94.94 0 0 1 .58 1.2l-1.41 3.94 1.75 4.38a1 1 0 0 1-.56 1.23 1 1 0 0 1-.35.06.94.94 0 0 1-.87-.58z"/><path class="cls-1" d="M11.12 25l.63 1.58a1.17 1.17 0 0 1-.66 1.53 1 1 0 0 1-.43.08 1.15 1.15 0 0 1-1.09-.74l-.67-1.67a2.26 2.26 0 1 0 2.22-.78zm16.38 0l.62 1.58a1.17 1.17 0 0 1-.65 1.53 1.11 1.11 0 0 1-.44.08 1.16 1.16 0 0 1-1.09-.74l-.67-1.67A2.27 2.27 0 0 0 27 29.47a2.26 2.26 0 0 0 .5-4.47z"/><path class="cls-1" d="M26.18 27.35a1 1 0 0 0 .88.58 1 1 0 0 0 .34-.06 1 1 0 0 0 .53-1.23l-1.28-3.22h-2zM8.51 18.68l-3-16.42H1.13A1.12 1.12 0 0 1 0 1.13 1.13 1.13 0 0 1 1.13 0h5.28a1.14 1.14 0 0 1 1.12.93l3.2 17.34a1.13 1.13 0 0 1-.91 1.32h-.21a1.11 1.11 0 0 1-1.1-.93z"/><path class="cls-1" d="M31.47 6.46H6.79c-.3 0-.38.21-.38.52l2.38 12.73a.54.54 0 0 0 .54.54h19.24a.54.54 0 0 0 .54-.54L32 7a.55.55 0 0 0-.53-.54zm-5.26 11.07a.38.38 0 0 1-.38.38H12.2a.38.38 0 0 1-.38-.38l-1.59-7.91a.38.38 0 0 1 .37-.38h17.17a.38.38 0 0 1 .37.38z"/></symbol><symbol id="exit" viewBox="0 0 33.54 35.69"><path class="cls-1" d="M15.54 28.41l11-10.56-11-10.57v4.57H1.5a1.5 1.5 0 0 0-1.5 1.5v9a1.5 1.5 0 0 0 1.5 1.5h14z"/><path class="cls-1" d="M29.09 0H11a4.46 4.46 0 0 0-4.46 4.46v4.46h2.75V4.46A1.71 1.71 0 0 1 11 2.75h18.09a1.71 1.71 0 0 1 1.71 1.71v26.78A1.72 1.72 0 0 1 29.09 33H11a1.72 1.72 0 0 1-1.71-1.71v-4.54H6.54v4.49A4.46 4.46 0 0 0 11 35.69h18.09a4.45 4.45 0 0 0 4.45-4.45V4.46A4.46 4.46 0 0 0 29.09 0z"/></symbol><symbol id="facebook"><path d="M9.045 25.1V13.709h3.843l.571-4.46H9.045V6.407c0-1.287.358-2.169 2.206-2.169h2.34V.261a31.047 31.047 0 0 0-3.429-.176c-3.397 0-5.73 2.074-5.73 5.881v3.273H.615V13.7h3.827v11.4h4.604z" fill="#ED3F5E"/></symbol><symbol id="heart" viewBox="0 0 115.58 96.75"><path d="M57.92 96.75Q51 89.9 43.73 83.52a134.59 134.59 0 0 0-15.08-11.6C26 70.16 23.49 69.11 20.28 67a52.62 52.62 0 0 1-8.16-6.6A40.76 40.76 0 0 1 1 41.89a30.57 30.57 0 0 1-.75-11.58 30.23 30.23 0 0 1 3.69-11.08 42.37 42.37 0 0 1 6.8-8.93l1.92-1.82c.67-.61 1.55-1.3 2.33-1.93a38.11 38.11 0 0 1 5-3.18A29.34 29.34 0 0 1 31.74.15a32.73 32.73 0 0 1 11.83 1.69 43.67 43.67 0 0 1 10.19 4.69c3.16 2.08 5.83 3.58 8.75 6.86h-9.57c2.88-3.28 5.53-4.86 8.71-6.92a43.74 43.74 0 0 1 10.21-4.82A33.09 33.09 0 0 1 83.72 0a29.62 29.62 0 0 1 11.8 3.19 37.27 37.27 0 0 1 9.39 7.12l1.64 1.79 1.88 2.28a43.9 43.9 0 0 1 3.16 4.78 31.65 31.65 0 0 1 3.75 11.1 30.75 30.75 0 0 1-.79 11.62 41.41 41.41 0 0 1-11.13 18.57 52.71 52.71 0 0 1-8.18 6.59c-.72.49-1.49.93-2.24 1.38l-2.15 1.19-2.11 1.2-1.9 1.19a88.75 88.75 0 0 0-7.67 5.43c-2.53 1.93-4.93 4.05-7.4 6.11-4.85 4.22-9.59 8.63-14.24 13.18A164.25 164.25 0 0 1 69.18 81a117.15 117.15 0 0 1 13.91-14.19l2-1.65 2-1.42 2-1.38c.59-.46 1.19-.89 1.76-1.38a44 44 0 0 0 6.27-6.31c3.7-4.57 6.58-9.75 7.48-15A20.7 20.7 0 0 0 101.66 25a30.2 30.2 0 0 0-2.35-3.2L98 20.36l-1.72-1.71A25.83 25.83 0 0 0 90 14.44a18.51 18.51 0 0 0-6.85-1.66A20.39 20.39 0 0 0 75.94 14a31.27 31.27 0 0 0-7.14 3.64c-1.15.76-2.27 1.61-3.35 2.49s-2.24 1.9-2.94 2.6l-4.87 4.94-4.7-4.94a39.58 39.58 0 0 0-6.24-5.16 31 31 0 0 0-7.17-3.63 18.67 18.67 0 0 0-14.16.4 26 26 0 0 0-3.27 1.87c-.49.38-.91.63-1.48 1.08L19 18.71a30.75 30.75 0 0 0-5.23 6.22A22.72 22.72 0 0 0 10.84 32a20.12 20.12 0 0 0-.07 7.7c.92 5.28 3.81 10.47 7.5 15.07a45.19 45.19 0 0 0 6.3 6.3c2 1.76 5.3 3.59 7.76 5.85a115.3 115.3 0 0 1 13.9 14.16 165.71 165.71 0 0 1 11.69 15.67z" fill="#e30613"/></symbol><symbol id="instagram"><path d="M14.589 7.327c-4.144 0-7.488 3.449-7.488 7.722 0 4.273 3.344 7.721 7.488 7.721 4.143 0 7.487-3.448 7.487-7.721s-3.344-7.722-7.487-7.722zm0 12.74c-2.68 0-4.866-2.255-4.866-5.018 0-2.764 2.186-5.019 4.866-5.019 2.68 0 4.866 2.255 4.866 5.019 0 2.763-2.187 5.018-4.866 5.018zm7.794-14.856c-.968 0-1.749.806-1.749 1.804 0 .997.781 1.803 1.749 1.803.967 0 1.748-.802 1.748-1.803a1.85 1.85 0 0 0-.132-.69 1.807 1.807 0 0 0-.38-.586 1.743 1.743 0 0 0-.567-.39 1.7 1.7 0 0 0-.67-.138zm6.8 9.838c0-2.078.019-4.138-.094-6.212-.113-2.41-.646-4.548-2.355-6.31C25.022.762 22.952.216 20.616.1 18.6-.018 16.604.001 14.592.001 12.577.001 10.58-.018 8.57.1 6.234.217 4.16.766 2.452 2.528.739 4.293.209 6.427.096 8.837c-.113 2.078-.095 4.137-.095 6.212 0 2.074-.018 4.137.095 6.212.113 2.409.646 4.547 2.355 6.31 1.712 1.765 3.782 2.31 6.118 2.427 2.015.117 4.012.098 6.023.098 2.016 0 4.012.02 6.024-.098 2.336-.116 4.41-.666 6.118-2.428 1.712-1.765 2.242-3.9 2.355-6.31.117-2.074.095-4.133.095-6.211zm-3.212 8.877a4.797 4.797 0 0 1-1.102 1.724 4.662 4.662 0 0 1-1.672 1.137c-1.92.787-6.48.61-8.608.61-2.129 0-6.692.177-8.612-.606a4.63 4.63 0 0 1-1.672-1.137 4.831 4.831 0 0 1-1.102-1.724c-.76-1.984-.588-6.686-.588-8.881 0-2.195-.172-6.901.588-8.881a4.799 4.799 0 0 1 1.102-1.725 4.71 4.71 0 0 1 1.672-1.136c1.92-.784 6.483-.607 8.612-.607 2.128 0 6.691-.177 8.611.607a4.63 4.63 0 0 1 1.672 1.136c.515.531.836 1.04 1.103 1.725.76 1.98.588 6.686.588 8.88 0 2.196.171 6.898-.592 8.878z" fill="#ED3F5E"/></symbol><symbol id="visa" viewBox="0 0 2500 2500"><style>.st0{fill:#fff}</style><path class="st0" d="M1110.1 1579.9H938.4l107.3-659.4h171.7l-107.3 659.4zM794 920.5L630.3 1374l-19.4-97.7-57.8-296.5s-7-59.4-81.4-59.4H201.2l-3.2 11.2s82.7 17.2 179.6 75.4l149.2 573h178.9l273.1-659.4-184.8-.1zm1350.3 659.4H2302l-137.4-659.4h-138c-63.7 0-79.3 49.1-79.3 49.1l-256 610.3h179l35.8-97.9h218.2l20 97.9zm-188.9-233.2l90.2-246.8 50.7 246.8h-140.9zm-250.7-267.6l24.5-141.6s-75.6-28.8-154.4-28.8c-85.2 0-287.5 37.2-287.5 218.3 0 170.4 237.5 172.5 237.5 262s-213 73.4-283.3 17l-25.5 148.1s76.7 37.2 193.8 37.2c117.2 0 293.9-60.7 293.9-225.8 0-171.5-239.6-187.4-239.6-262-.1-74.5 167.1-64.9 240.6-24.4z"/><path class="st0" d="M611 1276.4l-57.8-296.5s-7-59.4-81.4-59.4H201.2l-3.2 11.2s130.1 27 254.8 127.9c119.3 96.5 158.2 216.8 158.2 216.8z"/><path d="M0 0h2500v2500H0V0z" fill="none"/></symbol></svg>