<svg version="1.1" id="Слой_1" xmlns="http://www.w3.org/2000/svg" x="0" y="0" viewBox="0 0 2104 682.6" xml:space="preserve"><style>.st0{fill:#fff}</style><path class="st0" d="M912.1 671.2H740.4L847.7 11.8h171.7L912.1 671.2zM596 11.8L432.3 465.3l-19.4-97.7-57.8-296.5s-7-59.4-81.4-59.4H3.2L0 22.9s82.7 17.2 179.6 75.4l149.2 573h178.9L780.8 11.9 596 11.8zm1350.3 659.4H2104L1966.6 11.8h-138c-63.7 0-79.3 49.1-79.3 49.1l-256 610.3h179l35.8-97.9h218.2l20 97.9zM1757.4 438l90.2-246.8 50.7 246.8h-140.9zm-250.7-267.6l24.5-141.6S1455.6 0 1376.8 0c-85.2 0-287.5 37.2-287.5 218.3 0 170.4 237.5 172.5 237.5 262s-213 73.4-283.3 17L1018 645.4s76.7 37.2 193.8 37.2c117.2 0 293.9-60.7 293.9-225.8 0-171.5-239.6-187.4-239.6-262-.1-74.5 167.1-64.9 240.6-24.4z"/><path class="st0" d="M413 367.7L355.2 71.2s-7-59.4-81.4-59.4H3.2L0 23s130.1 27 254.8 127.9C374.1 247.4 413 367.7 413 367.7z"/></svg>