<svg id="OBJECTS" xmlns="http://www.w3.org/2000/svg" viewBox="0 0 72.69 64.83"><path d="M55,.32C46.85,2,42.24,10.65,44.55,18.41a14.65,14.65,0,0,0,17.11,9.51C69.8,26.24,74.4,17.59,72.09,9.83,69.92,2.55,62.12-1.16,55,.32Zm9,26.36c-7.41,3.67-16-.85-18.56-8.29A14.11,14.11,0,0,1,52.67,1.56c7.41-3.66,16,.85,18.55,8.29C73.49,16.42,70.06,23.67,64,26.68Z"/><path d="M45.8,31.25a16.37,16.37,0,0,0-4.66,1.26c-.09.21-.19.41-.29.62.36-.19.73-.37,1.11-.53C50.7,28.92,60.49,34.36,63.42,43c2.78,8.16-1.7,17.13-9.49,20.42C45.19,67.06,35.4,61.62,32.47,53a17,17,0,0,1,.23-10.63c-.34.21-.67.42-1,.62a17.16,17.16,0,0,0-.86,5.56,16.33,16.33,0,0,0,.8,4.6,17.15,17.15,0,0,0,33.22-8.06C63.44,36.06,54.62,30.21,45.8,31.25Z"/><path d="M32.7,42.39a21.86,21.86,0,0,0,8.15-9.26c.1-.21.2-.41.29-.62a1.42,1.42,0,0,0,.08-.18c3.64-8.74.5-18.89-6.83-24.61-6.9-5.38-16.67-5.59-24.12-1.29C1.79,11.32-1.88,21.77.93,31a21.58,21.58,0,0,0,19.73,14.7,20.9,20.9,0,0,0,11-2.67C32,42.81,32.36,42.6,32.7,42.39ZM2.9,33.64A19.11,19.11,0,0,1,1.8,30.9,21.11,21.11,0,0,1,13,5.53c10.67-5,23.22.9,27.47,11.49,3.93,9.77-.59,21.07-9.72,26C20.55,48.52,8,43.67,2.9,33.64Z"/><path d="M33.52,28.77c-1.27-5.11-1.27-10.43-1.38-15.67,0-.47-1.73-.37-1.72.14.11,5.24.1,10.55,1.37,15.67C31.92,29.44,33.63,29.2,33.52,28.77Z"/><path d="M13.24,30.75c-2,.69-3.6,2-5.54,2.68-.46.16-.44.51,0,.69a2.54,2.54,0,0,0,1.74,0c1.94-.68,3.59-2,5.54-2.67.45-.16.44-.52,0-.7A2.54,2.54,0,0,0,13.24,30.75Z"/><path d="M21.82,23.54a6.8,6.8,0,0,0-4.75,1.71C15.7,23.6,14.56,21.78,13.34,20a36.43,36.43,0,0,1,6-2.5c1.37-.45,1.07-1.39-.31-.93a39.85,39.85,0,0,0-7.77,3.34c-.11.06-.6.38-.45.59a58.63,58.63,0,0,0,4.87,6.64c.45.48,1.87-.17,2.17-.59,2.5-3.42,5.3-.9,6,2.05.82,3.35-2.74,6.4-5.19,3.31-.41-.52-2.66.36-2.17,1,3.36,4.23,9.68.51,9.78-4.14C26.34,26.4,24.39,23.59,21.82,23.54Z"/><path d="M25.17,17.15a2.2,2.2,0,0,0,1.89.69c1,0,2.05-.35,2.23-1.44a1.7,1.7,0,0,0-1.16-1.81,3.49,3.49,0,0,0-3,.53.61.61,0,0,0-.25.17.15.15,0,0,0-.07.15h0A2.68,2.68,0,0,0,25.17,17.15Zm2.41-.83a1.19,1.19,0,0,1-.17.61.77.77,0,0,1-.17.19.71.71,0,0,1-.17,0,1.11,1.11,0,0,1-.37-.43,2.39,2.39,0,0,1-.17-1.22l.4-.25h0l.06,0A1.27,1.27,0,0,1,27.58,16.32ZM27,15.16Z"/><path d="M34.18,20.76a1.32,1.32,0,0,0-.54.17c-.11.06-.2.13-.22.22a1.74,1.74,0,0,0-.24,1.57,1.93,1.93,0,0,0,1.33,1.35A2.26,2.26,0,0,0,37.41,23a2.13,2.13,0,0,0-.52-2.32,2.16,2.16,0,0,0-1.74-.15,4.43,4.43,0,0,0-.47.17h0Zm1.62,1.87a1.92,1.92,0,0,1-.25.73,1.64,1.64,0,0,1-.6-2l.43-.09.09,0A1.93,1.93,0,0,1,35.8,22.63Z"/><path d="M53.08,15.23a1.74,1.74,0,0,0-1.23-.05c-.73.33-1.4.77-2.16,1-.32.11-.32.35,0,.49a1.79,1.79,0,0,0,1.23,0c.76-.26,1.43-.69,2.16-1C53.35,15.59,53.4,15.37,53.08,15.23Z"/><path d="M61,12.1a2,2,0,0,0,2-.87,1,1,0,0,0-.3-1.42,1.8,1.8,0,0,0-1.89.32l-.08.06a.47.47,0,0,0-.12.13C60.37,10.88,60.19,11.92,61,12.1Zm1.33-.87a.56.56,0,0,1-.89.29c-.39-.24-.27-.89-.13-1.28C61.9,10,62.48,10.57,62.33,11.23Z"/><path d="M66,14.83a1.53,1.53,0,0,0-.86.56c-.07,0-.12.1-.12.16v0c0,.73,0,2,1,1.9a1.78,1.78,0,0,0,1.48-1.16c.22-.49.27-1.25-.31-1.51A1.83,1.83,0,0,0,66,14.83Zm.7,1.7a1.62,1.62,0,0,1-.27.44l-.11.1c.1-.06,0-.06-.15-.13-.4-.31-.38-1.12-.34-1.57l.13-.15a.63.63,0,0,1,.81.28A1.32,1.32,0,0,1,66.66,16.53Z"/><path d="M64.21,8.59a30.45,30.45,0,0,1-1.31,5.22c-.53,1.78-.66,3.74-1,5.56-.1.46,1.51,0,1.61-.47.38-1.85.66-3.71,1-5.56s1.1-3.4,1.3-5.22C65.88,7.61,64.26,8.09,64.21,8.59Z"/><path d="M39.6,50.54a18.79,18.79,0,0,0-4.73.24c-.14,0-.81.13-.61.42s.77.29,1.06.26a14.87,14.87,0,0,1,3.82-.26c.29,0,.86,0,1.06-.23S39.74,50.55,39.6,50.54Z"/><path d="M43,44.88c.21,2.59-.27,5.72.43,8.27,0,0,0,0,0,.05l.08.27c.15.46,1.79-.11,1.63-.6-.85-2.64-.29-5.83-.52-8.58C44.6,43.9,43,44.32,43,44.88Z"/><path d="M50.82,52.55A4.63,4.63,0,0,0,52.69,47C52,45,50.12,44.81,48.41,45.62l-.14.05s-.06,0-.1.06l-.08.05a.42.42,0,0,0-.12.08,4.94,4.94,0,0,0-2.26,5.4C46.33,53.65,49.12,53.6,50.82,52.55Zm-1.89-6.4.07,0,.11-.06.45-.25c-.34.19.41.35.62.5a3.22,3.22,0,0,1,1,1.56,4,4,0,0,1-.63,3.71,1.38,1.38,0,0,1-2.1.52,2.63,2.63,0,0,1-1.14-1.67C46.91,49,47.59,46.82,48.93,46.15Z"/><path d="M55.84,45.17a1.5,1.5,0,0,0,0-1.73,1.42,1.42,0,0,0-1-.42,1.73,1.73,0,0,0-.92.42.41.41,0,0,0-.1.09l0,0c-.56.62-.55,2,.34,2.31A1.55,1.55,0,0,0,55.84,45.17Zm-.73,0a1.24,1.24,0,0,1-.19.26h-.08a.85.85,0,0,1-.28-.16,1.41,1.41,0,0,1-.06-1.78h0A1.12,1.12,0,0,1,55.11,45.21Z"/><path d="M60.56,51.81a1.71,1.71,0,0,0-1.1.42l-.07.07a.18.18,0,0,0,0,.08h0v0c-.19.71-.36,2.06.49,2.4A1.56,1.56,0,0,0,61.58,54a1.64,1.64,0,0,0,0-1.85A1.28,1.28,0,0,0,60.56,51.81Zm.26,2.34a1.37,1.37,0,0,1-.13.2l-.06,0a.64.64,0,0,1-.5-.35,2.85,2.85,0,0,1,0-1.76C61,52.32,61.22,53.39,60.82,54.15Z"/><path d="M56.24,53.79c1-4.22,1.47-8.55,2.76-12.7.13-.4-1.45,0-1.61.49-1.29,4.15-1.77,8.48-2.76,12.7C54.53,54.73,56.12,54.3,56.24,53.79Z"/><path d="M9.53,38.77a2.73,2.73,0,0,0,.12,1.06c0,.13.46.06.43,0A2.86,2.86,0,0,1,10,38.73C10,38.63,9.55,38.64,9.53,38.77Z"/><path d="M11.05,38.08c.33,1.44.45,3,1.35,4.18.07.1.48,0,.4-.12-.89-1.21-1-2.71-1.32-4.13C11.45,37.89,11,38,11.05,38.08Z"/><path d="M12.8,39.11c.91,1.1,1.1,2.59,1.87,3.77.07.11.45-.1.39-.19-.77-1.18-1-2.67-1.87-3.77C13.1,38.82,12.74,39,12.8,39.11Z"/><path d="M14.56,39.82c1.28.92,1.62,2.58,2.62,3.74.08.1.49,0,.4-.12-1-1.16-1.33-2.82-2.62-3.74C14.86,39.62,14.48,39.76,14.56,39.82Z"/><path d="M17.29,41.18c.74.65,1.18,1.56,1.92,2.22.09.08.46-.12.36-.21-.73-.65-1.17-1.56-1.91-2.22C17.57,40.89,17.19,41.09,17.29,41.18Z"/><path d="M19.87,41.76a10.47,10.47,0,0,0,1.48,1.84c.08.08.45-.14.35-.23a10,10,0,0,1-1.44-1.81C20.18,41.45,19.81,41.66,19.87,41.76Z"/><path d="M22.42,41.85a2.82,2.82,0,0,0,1.13,1.09c.1.05.5,0,.37-.11a2.73,2.73,0,0,1-1.09-1C22.77,41.68,22.35,41.74,22.42,41.85Z"/><path d="M26.25,41.67a2.42,2.42,0,0,1-1.07-.35c-.11,0-.51.06-.37.13a2.94,2.94,0,0,0,1.35.4C26.35,41.85,26.55,41.67,26.25,41.67Z"/><path d="M48.7,21.12a.18.18,0,0,1,0,.2c-.05.09.35,0,.41-.09a.28.28,0,0,0,0-.25C49.08,20.87,48.67,21,48.7,21.12Z"/><path d="M49.83,21.22a4.7,4.7,0,0,1,.28,1.53c0,.13.39,0,.39-.15A4.68,4.68,0,0,0,50.22,21C50.18,20.93,49.79,21.1,49.83,21.22Z"/><path d="M51.29,22.71a17.24,17.24,0,0,0,.5,2.24c0,.11.43-.05.4-.17a17.62,17.62,0,0,1-.5-2.24C51.67,22.44,51.26,22.57,51.29,22.71Z"/><path d="M53,23.52c.24.76.49,1.52.73,2.28,0,.13.46.05.43-.05-.24-.77-.49-1.52-.73-2.28C53.36,23.34,52.94,23.42,53,23.52Z"/><path d="M54.57,25.07a5.88,5.88,0,0,0,.83,1.59c.08.11.49.06.42,0A5.82,5.82,0,0,1,55,25C55,24.93,54.52,24.94,54.57,25.07Z"/><path d="M57,25.88c-.05-.12-.47,0-.43.11a1.63,1.63,0,0,0,1,.93c.1,0,.49-.12.34-.18A1.4,1.4,0,0,1,57,25.88Z"/><path d="M58.49,26.42a3.36,3.36,0,0,0,.69.44c.12.06.46-.17.36-.22a3.07,3.07,0,0,1-.69-.43C58.76,26.13,58.39,26.33,58.49,26.42Z"/><path d="M36.25,56.2c.17-.06.32-.29,0-.2S36,56.29,36.25,56.2Z"/><path d="M38,57a1.22,1.22,0,0,0-.11,1c0,.13.46.07.43,0a1.15,1.15,0,0,1,.1-1C38.47,56.92,38.06,56.89,38,57Z"/><path d="M39,57.41c.11.76,0,1.52.08,2.27,0,.11.43,0,.41-.14-.13-.75,0-1.51-.08-2.27C39.37,57.17,39,57.28,39,57.41Z"/><path d="M40.8,58.34a7.08,7.08,0,0,0,.46,2.47c.07.12.47,0,.42-.11a7.16,7.16,0,0,1-.46-2.47C41.2,58.11,40.78,58.21,40.8,58.34Z"/><path d="M43.21,59.34c0-.12-.46,0-.42.1a9.66,9.66,0,0,0,1.1,2.73c.06.09.47,0,.39-.14A9.52,9.52,0,0,1,43.21,59.34Z"/><path d="M44.56,60.2c.64,1,1,2.27,1.88,3.13.09.08.48-.09.39-.18-.9-.85-1.22-2.06-1.86-3.09C44.9,59.94,44.51,60.11,44.56,60.2Z"/><path d="M47.49,61.47c-.06-.13-.47,0-.42.08a4.16,4.16,0,0,0,1.65,2c.1.06.5-.07.36-.15A4.12,4.12,0,0,1,47.49,61.47Z"/><path d="M49.27,61.91a4.77,4.77,0,0,0,1.06.89c.1.05.5,0,.38-.08a4.67,4.67,0,0,1-1-.85C49.59,61.78,49.2,61.84,49.27,61.91Z"/><path d="M51.66,61.55c-.1-.1-.49,0-.42.08a1.42,1.42,0,0,0,.62.4c.1,0,.51-.1.29-.15A1.12,1.12,0,0,1,51.66,61.55Z"/><path d="M54,61h-.07c-.1,0-.52.06-.3.13a1,1,0,0,0,.59,0C54.5,61.05,54.13,61,54,61Z"/><path d="M58.22,7.24l.33.89L58.2,18.64l-1.2.45.44-10.25,0,0-4.18,1.55-.42-1.13Z"/></svg>