<svg id="OBJECTS" xmlns="http://www.w3.org/2000/svg" viewBox="0 0 112.59 40.48"><defs><style>.cls-1{fill:#fff;}</style></defs><path d="M98.76,34.84c.23,4.26,6.85,4.23,7.08,0S99,30.61,98.76,34.84Zm3.14,2.79a2.85,2.85,0,0,1-2.14-2.8c.08-1.52,1.2-3.08,2.94-2.79a2.85,2.85,0,0,1,2.14,2.8A2.7,2.7,0,0,1,101.9,37.63Z"/><path d="M88.46,28.69c.05-.15-.44-.17-.49,0-.34.92-.83,1.77-1.25,2.67-.06.13.43.16.49,0C87.62,30.46,88.11,29.61,88.46,28.69Z"/><path d="M88.8,29.63a4,4,0,0,1-.27,1.25c-.06.15-.11.3-.18.45-.37.83-.88,1.61-1.21,2.44,0,.13.43.1.49,0,.56-1.4,1.59-2.65,1.67-4.2C89.3,29.42,88.81,29.47,88.8,29.63Z"/><path d="M89.8,31.09c-.07,1.57-1.19,2.78-1.66,4.22,0,.16.44.17.49,0,.47-1.46,1.6-2.69,1.67-4.27C90.3,30.94,89.81,30.94,89.8,31.09Z"/><path d="M90.58,33.15c-.22.82-.83,1.46-1,2.29,0,.14.45.26.48.12.2-.83.81-1.47,1-2.29C91.1,33.13,90.61,33,90.58,33.15Z"/><path d="M91.14,34.56c-.06.17-.1.33-.17.5s.44.17.49,0,.1-.34.16-.5S91.19,34.43,91.14,34.56Z"/><path d="M92.64,34.26l-.17.25c-.06.1.4.11.49,0l.17-.25C93.19,34.14,92.73,34.13,92.64,34.26Z"/><path d="M93.89,34.43v.08c0,.16.48.26.48.15v-.09C94.37,34.41,93.89,34.32,93.89,34.43Z"/><path d="M45.78,34.69s0,0,0,0,0,0,0,0c.22,4.11,6.81,4.61,7,.24C53,30.83,46,30.31,45.78,34.69Zm4.61,2.58c-1.84,1.21-3.53-.54-3.65-2.31a3.11,3.11,0,0,1,1.47-2.56c1.7-1.11,3.37.35,3.64,2A3,3,0,0,1,50.39,37.27Z"/><path d="M112.43,31.54c-.05-.55,0-1.25-.65-1.47a2.92,2.92,0,0,0-.93-.15c-.93-3.37-3.16-6.15-6.75-7-1.58-.39-5.86.26-5.92-1.68a10.59,10.59,0,0,0-1.65-6.1c-2.42-3.31-8.87-2.94-12.74-2.24Q83.49,7,83.13,1.16c0-.22-.43-.28-.6-.29C71.11.37,59.68.71,48.26.34c-5.87-.19-12.14-.76-18,.22C28.73.82,29,1.4,29.1,2.78c.22,3.2.34,6.42.49,9.63s.3,6.46.48,9.68c.08,1.36.07,2.71.1,4.07,0,.6-.22,2.21.36,2.63.13.09.73.25.84,0l0,0h1.07a6.16,6.16,0,0,0-.16,1.66c0,.11.2.14.26.15a28.75,28.75,0,0,0,4.91.08,3.11,3.11,0,0,0,2.17,3,12.86,12.86,0,0,0,3.11.26l.59,0a6.89,6.89,0,0,0-.1.81c.4,7.45,11.71,7.78,12.12.17a6.54,6.54,0,0,0,0-.77c6.84.08,13.68.1,20.52,0,2.61,0,5.26-.08,7.86-.36,0,.83.06,1.67.08,2.5,0,.11.18.15.39.14,4.1.32,8.26.24,12.38.16,1.8,5.27,10.09,5.29,11.57-.28a6.1,6.1,0,0,0,.78-.11.9.9,0,0,0,.38.19,4.29,4.29,0,0,0,1.78-.13c.59-.14,1.09-.22,1.3-.85A10.27,10.27,0,0,0,112.43,31.54ZM32,28.38h-.87a20.88,20.88,0,0,1,0-3.71c0-1.09-.06-2.16-.12-3.25-.17-3.14-.31-6.29-.46-9.44-.13-2.77-.25-5.55-.42-8.33,0-.71-.08-1.42-.15-2.12S31.79.83,32.21.79C37.94.21,43.83.6,49.57.8c10.86.36,21.72,0,32.59.48.54,8.66.93,17.34,1.35,26,0,.47-.17,1.4.44,1.41H81.47l-8.14-.05Zm5.38.56c0,.45,0,.91,0,1.35l-1.25,0a18.32,18.32,0,0,1-2.67,0c-.35,0-.18-1-.08-1.42l.42-.07,3.64,0S37.39,28.89,37.39,28.94Zm13.8,10.79c-3.67,1.9-6.79-1.55-7-4.81a5.67,5.67,0,0,1,3.18-5c3.67-1.91,6.79,1.55,7,4.81A5.5,5.5,0,0,1,51.19,39.73Zm28.3-5.93L76,33.9c-3.85,0-7.71-.12-8.52-.12-4.05,0-8.1,0-12.14-.05-.83-5.9-10.41-6.11-11.88-.2l-1.41,0-.5,0c-2.73-.17-3.14-2-3.14-4.27l8.36-.3,36.84.23c0,1.38.1,2.75.14,4.12A19.59,19.59,0,0,1,79.49,33.8Zm15-9.84a4.3,4.3,0,0,1-.7-2.44c0-.5,0-3.46,1.46-2a3.19,3.19,0,0,1,.55,2C95.82,22.19,95.63,24.81,94.47,24ZM93.09,19.4a3,3,0,0,0-.32,2.12l0,.31-6.42-.35c0-2.45-.55-4.86-.5-7.31,2.75-.17,6.1-.25,7.7,2.34a12.67,12.67,0,0,1,1.08,2.26A2.2,2.2,0,0,0,93.09,19.4ZM96.4,36.13c-3.28.06-6.58.1-9.85-.06-.07-4.74-.37-9.43-.2-14.17l4.86.26,1.63.09a3.35,3.35,0,0,0,.68,1.85l0,0,0,0a2.06,2.06,0,0,0,2.39.21,1.27,1.27,0,0,0,.33-.36,32.25,32.25,0,0,1,.65,4.79c.08,1,.13,2,.18,2.94A8.44,8.44,0,0,0,96.4,36.13Zm7.78,3.63c-3.23,1.67-6.12-1-6.8-3.88a11.55,11.55,0,0,1,.15-2.64,5.58,5.58,0,0,1,2.89-3.33,4.75,4.75,0,0,1,1.26-.44,8.1,8.1,0,0,1,1.44.07c3.08.45,3.47,4.19,3.71,6.6,0,.11.2.13.27.13h.09A5.92,5.92,0,0,1,104.18,39.76Zm3.62-3.91c-.1-1-.2-1.91-.37-2.85-.68-3.69-4.43-4.47-7.49-3.53a4.88,4.88,0,0,0-1.88,1.05,39.4,39.4,0,0,0-.84-6.94c0-.19-.36-.19-.51-.2l-.13-.05C97,22,97,20.19,96,19.24a1.66,1.66,0,0,0-.21-.16,15.25,15.25,0,0,0-1.7-3.39c-1.73-2.49-6.18-2-8.76-1.89-.13,0-.47.06-.48.25-.08,2.44.45,4.83.5,7.27,0,0,0,0,0,0-.22,4.92.12,9.77.18,14.67l-.75,0c-.09-3.79-.21-7.59-.41-11.38,0-.08,0-.23,0-.42-.17-3.63-.34-7.26-.53-10.89,3.45-.71,8.62-.71,11.4,1.7,2,1.76,2,5.17,2,7.61,0,.1.21.12.28.12,2.58.27,5.23.17,7.68,1.14,2.2.87,3.38,2.9,4.2,5,.15.39.29.8.42,1.21l-.4.08c-.64.15-1.33.25-1.49,1-.31,1.33.35,3,.52,4.37v0a.08.08,0,0,0,0,0,2.27,2.27,0,0,1,.22.32C108.2,36,107.82,36,107.8,35.85Zm3.47-.32c-.19.3-1,.35-1.27.42s-.39-.19-.59-.44a39.33,39.33,0,0,1-.53-4c0-.78.58-.83,1.19-1,1.52-.43,1.31.31,1.41,1.38S111.81,34.64,111.27,35.53Z"/><path d="M57.77,31.35c.14-.1-.34-.11-.44,0a1.72,1.72,0,0,0-.61.7c0,.13.43.12.49,0A1.57,1.57,0,0,1,57.77,31.35Z"/><path d="M58.9,31.17c-.48.55-1.09,1-1.58,1.5-.1.11.36.27.46.16.49-.55,1.1-.95,1.58-1.5C59.46,31.22,59,31.06,58.9,31.17Z"/><path d="M60.82,31.24c-.75.67-1.57,1.26-2.25,2-.1.11.36.29.45.18.68-.74,1.5-1.33,2.25-2C61.38,31.33,60.93,31.15,60.82,31.24Z"/><path d="M61.88,31.53c-.16.82-1.12,1.43-1.72,1.94-.14.12.34.14.44.06.64-.54,1.61-1.18,1.78-2.05C62.4,31.37,61.92,31.36,61.88,31.53Z"/><path d="M63.39,31.74a9,9,0,0,1-1.33,1.75c-.08.1.39.14.48,0a9.45,9.45,0,0,0,1.34-1.75C63.93,31.62,63.45,31.61,63.39,31.74Z"/><path d="M65.79,31.42c.06-.13-.42-.13-.48,0-.38.76-1.23,1.11-1.67,1.83-.07.11.41.13.49,0C64.56,32.53,65.41,32.18,65.79,31.42Z"/><path d="M66.48,31.68c-.36.51-.75,1-1.15,1.47-.1.13.35.3.44.2.41-.5.82-1,1.19-1.53C67,31.73,66.57,31.54,66.48,31.68Z"/><path d="M68.16,31.8A4.53,4.53,0,0,0,67,33.08c-.06.12.42.14.49,0a4.32,4.32,0,0,1,1.14-1.23C68.74,31.75,68.27,31.72,68.16,31.8Z"/><path d="M69.75,31.82A4.62,4.62,0,0,0,68.48,33c-.06.09.38.3.47.16A4.65,4.65,0,0,1,70.19,32C70.29,32,69.87,31.73,69.75,31.82Z"/><path d="M71.22,31.82a4.25,4.25,0,0,1-.89.8c-.15.12.33.17.44.09a5.11,5.11,0,0,0,.94-.86C71.78,31.76,71.32,31.7,71.22,31.82Z"/><path d="M72.64,31.8c-.19.17-.39.32-.58.5s.37.18.48.07l.58-.5C73.21,31.8,72.76,31.69,72.64,31.8Z"/><path d="M73.91,32.3a1.18,1.18,0,0,1-.19.11c-.33.08-.06.23.15.18a1.07,1.07,0,0,0,.48-.23C74.49,32.26,74,32.22,73.91,32.3Z"/><path d="M75.85,32.36c.34,0,.12-.22-.1-.22S75.63,32.36,75.85,32.36Z"/><path d="M40.75,31a4.65,4.65,0,0,0-.67.58c-.14.14.34.18.44.08a5.17,5.17,0,0,1,.66-.58C41.33,30.94,40.86,30.88,40.75,31Z"/><path d="M42.15,30.76a9,9,0,0,1-1.5,1.58c-.1.1.36.26.46.15a8.32,8.32,0,0,0,1.5-1.58C42.7,30.77,42.22,30.64,42.15,30.76Z"/><path d="M43.07,31.35l-.59.59c-.09.09.36.23.47.13l.58-.59C43.63,31.39,43.17,31.25,43.07,31.35Z"/><path d="M32.85,21.6h.09c.34,0,.1-.2-.11-.2h-.09C32.4,21.4,32.64,21.6,32.85,21.6Z"/><path d="M33.71,22.94a4.22,4.22,0,0,0,1.09-1.61c0-.1-.45-.15-.5,0a4,4,0,0,1-1.08,1.56C33.15,23,33.6,23.05,33.71,22.94Z"/><path d="M36.06,21.39A30.87,30.87,0,0,0,32.48,26c-.07.13.41.19.48.06a30.87,30.87,0,0,1,3.58-4.58C36.62,21.35,36.15,21.27,36.06,21.39Z"/><path d="M37.48,21.87c-1.23,1.62-2.57,3.16-3.83,4.75-.09.11.38.21.47.1,1.27-1.6,2.6-3.13,3.83-4.75C38,21.85,37.57,21.75,37.48,21.87Z"/><path d="M38.22,23.53A31.52,31.52,0,0,0,36,27c0,.11.43.25.49.11a30.62,30.62,0,0,1,2.25-3.5C38.76,23.55,38.31,23.39,38.22,23.53Z"/><path d="M39.25,25a2.8,2.8,0,0,0-.86,1.28c0,.14.44.12.49,0A2.71,2.71,0,0,1,39.69,25C39.82,24.9,39.35,24.89,39.25,25Z"/><path d="M40.39,25.55c-.18.26-.4.49-.58.75-.08.11.39.19.48.07s.4-.49.58-.75S40.48,25.43,40.39,25.55Z"/><path d="M42.14,25.69s0,.09-.07.14.36.28.46.17.08-.07.1-.19S42.16,25.56,42.14,25.69Z"/><path d="M44.22,25.68a1.3,1.3,0,0,1-.08.17c-.06.12.42.1.49,0a1.3,1.3,0,0,1,.08-.17C44.77,25.54,44.29,25.55,44.22,25.68Z"/><line x1="41.64" y1="36.94" x2="30.3" y2="36.94"/><polygon class="cls-1" points="41.63 37.19 30.3 36.94 41.63 36.69 41.63 37.19"/><line x1="30.5" y1="35.19" x2="19.17" y2="35.19"/><polygon class="cls-1" points="30.5 35.44 19.17 35.19 30.5 34.94 30.5 35.44"/><line x1="40.85" y1="38.06" x2="24.83" y2="38.06"/><polygon class="cls-1" points="40.85 38.31 24.84 38.06 40.85 37.81 40.85 38.31"/><line x1="88.22" y1="38.05" x2="71.01" y2="38.05"/><polygon class="cls-1" points="88.22 38.3 71.01 38.05 88.22 37.8 88.22 38.3"/><line x1="81.24" y1="36.94" x2="69.91" y2="36.94"/><polygon class="cls-1" points="81.24 37.19 69.91 36.94 81.24 36.69 81.24 37.19"/><line x1="93.13" y1="39.02" x2="66.15" y2="39.02"/><polygon class="cls-1" points="93.13 39.27 66.15 39.02 93.13 38.77 93.13 39.27"/><line x1="21.1" y1="6.37" x2="9.85" y2="6.37"/><polygon class="cls-1" points="21.1 6.62 9.85 6.37 21.1 6.12 21.1 6.62"/><line x1="17.72" y1="7.81" x2="6.47" y2="7.81"/><polygon class="cls-1" points="17.72 8.06 6.47 7.81 17.72 7.56 17.72 8.06"/><line x1="20.53" y1="9.75" y2="9.75"/><polygon class="cls-1" points="20.53 10 0 9.75 20.53 9.5 20.53 10"/></svg>