<svg id="OBJECTS" xmlns="http://www.w3.org/2000/svg" viewBox="0 0 125.48 106.34"><path d="M30,6.31h.1l1.19.23,2.45-.45L43.4,4.33,63.07.71l.75-.14V.28c0-.14.23-.23.46-.26a.72.72,0,0,0-.36,0l-34,6.24-.07,0h.07Z"/><path d="M97,6.32l0,0Z"/><polygon points="96.94 6.3 96.94 6.3 96.94 6.3 96.94 6.3 96.94 6.3"/><path d="M63.82.28v12l.94-.17V.55L95.47,6.49l1-.19h.11l.18,0L64.66.06a.74.74,0,0,0-.38,0C64.05.05,63.82.14,63.82.28Z"/><path d="M29.83,6.33l.19,0-.09,0h-.07c-.24,0-.47,0-.44.14h0A.61.61,0,0,1,29.83,6.33Z"/><path d="M63.25,62.29c.21,0,.46.06.46-.08v-.06l-.12.06A1.11,1.11,0,0,1,63.25,62.29Z"/><path d="M62.77,61.59c-4.68-2.58-9.4-5.07-14.2-7.43-2.6-1.28-5.23-2.49-7.88-3.65-1.17-.51-2.35-1-3.53-1.47-.65-.27-1.31-.51-2-.76s-.36-2.16-.36-2.59a186.62,186.62,0,0,0-2.56-29.47l-1-.23a194.85,194.85,0,0,1,2.61,32.09c0,.15.18.22.29.26C44.14,52,53.55,57,62.78,62.09,62.78,61.92,62.77,61.76,62.77,61.59Z"/><path d="M96.49,6.3l-1,.19L64.76,12.13l-.94.17-1.24.23h0l34-6.24h-.05Z"/><path d="M94,17.36a195.19,195.19,0,0,0-2.38,28.25c0,.59,0,1.17,0,1.75,0,1.07-1,1.13-1.71,1.42-1.17.45-2.33.93-3.48,1.42-2.66,1.13-5.26,2.35-7.86,3.6-5,2.44-10,5.06-14.86,7.75-.08-13.81-.62-27.62-.76-41.43,0-2-.05-4,0-6-.15-.23-.31-.46-.47-.68-.18.21-.37.42-.55.64-.17,2.15.06,4.43.08,6.54,0,5.18.15,10.36.25,15.55.17,8.48.45,17,.5,25.46,0,.17,0,.33,0,.5v0c0,.15.24.17.47.15a1.11,1.11,0,0,0,.34-.08l.12-.06C73,57,82.41,52,92.35,48.34c.08,0,.23-.07.23-.18a195.43,195.43,0,0,1,2.41-31Z"/><path d="M32.28,16.22l22.47,5.45c.2,0,.55.07.7-.1L61.94,14c.18-.22.37-.43.55-.64l-.38-.55c-.13-.19.32-.28.42-.3h0l-31.27-6-1.19-.23H30l-.19,0a.61.61,0,0,0-.41.09h0L22,13.55c-.11.1.16.2.21.22L31.33,16Zm-6.19-5.64,4-3.85L54,11.3l5.83,1.12,1.84.35.32.05Q58.36,17,54.73,21.23l-22.68-5.5-9.33-2.27C23.37,13.62,25.33,11.3,26.09,10.58Z"/><path d="M104.8,14.45,97.07,6.36l0,0,0,0-.06,0h0a.57.57,0,0,0-.16,0l-.18,0h-.06L62.59,12.54h-.06c-.1,0-.55.11-.42.3l.38.55c.16.22.32.45.47.68l6.45,9.28c.1.15.46.09.59.06l24-6.06,1-.24,9.52-2.4C104.58,14.71,104.94,14.59,104.8,14.45ZM70.12,23a.63.63,0,0,0-.12-.28l-2.43-3.5-4.43-6.39L96.31,6.73l5.31,5.54,2.14,2.24-.64.16L85.81,19Z"/><path d="M55,38.82c1-1.67,1.74-3.45,2.72-5.12.06-.09-.37-.26-.45-.13-1,1.67-1.75,3.45-2.73,5.12C54.49,38.78,54.93,39,55,38.82Z"/><path d="M52.68,45.19c-.08.11.37.2.45.09A79.92,79.92,0,0,0,58.92,35c.07-.13-.39-.2-.45-.09A79.92,79.92,0,0,1,52.68,45.19Z"/><path d="M58.47,39.74A72.26,72.26,0,0,0,51.82,50c-.06.13.4.19.46.07a71.4,71.4,0,0,1,6.65-10.23C59,39.7,58.55,39.63,58.47,39.74Z"/><path d="M58.64,42.61C57,46.36,53.85,49.19,52.33,53c0,.12.41.26.46.13,1.51-3.82,4.66-6.66,6.31-10.4C59.15,42.63,58.7,42.48,58.64,42.61Z"/><path d="M59,46.71C57.6,49.24,55.78,51.5,54.38,54c-.07.13.39.23.45.11,1.39-2.53,3.21-4.79,4.6-7.33C59.51,46.69,59.05,46.6,59,46.71Z"/><path d="M58.8,50.17c-.38,1.25-1.14,2.34-1.53,3.58,0,.1.43.15.47,0,.39-1.25,1.15-2.34,1.54-3.58C59.31,50.08,58.85,50,58.8,50.17Z"/><path d="M59.49,54.26a3.84,3.84,0,0,1-.51.85c-.07.08.36.12.46,0a3.9,3.9,0,0,0,.51-.86C60,54.15,59.55,54.14,59.49,54.26Z"/><path d="M59.83,56.44V57c0,.15.47.21.47.09v-.51C60.3,56.38,59.83,56.32,59.83,56.44Z"/><path d="M88.42,35.71a4.36,4.36,0,0,1,.69-1c.07-.08-.36-.17-.46-.06a4.32,4.32,0,0,0-.68,1C87.9,35.78,88.36,35.83,88.42,35.71Z"/><path d="M87.05,40.69A33.74,33.74,0,0,0,90,36.76c.08-.12-.37-.23-.44-.12a33.74,33.74,0,0,1-2.9,3.93C86.52,40.67,87,40.79,87.05,40.69Z"/><path d="M87.55,42.53a11.12,11.12,0,0,0,2.58-3.61c.05-.13-.41-.12-.46,0a10.8,10.8,0,0,1-2.54,3.56C87,42.61,87.46,42.61,87.55,42.53Z"/><path d="M90.14,41.47c0-.1-.43-.13-.48,0C89,44,86.57,45.61,84.9,47.43c-.07.08.36.14.46,0C87,45.63,89.45,44,90.14,41.47Z"/><path d="M89.85,44.66c-.87,1.49-2.37,2.41-3.41,3.76-.09.1.36.21.44.1,1.05-1.34,2.54-2.26,3.41-3.75C90.37,44.65,89.92,44.55,89.85,44.66Z"/><path d="M90.18,46.62a.79.79,0,0,1-.17.49c-.06.08.37.11.46,0a.79.79,0,0,0,.18-.53C90.65,46.44,90.18,46.48,90.18,46.62Z"/><path d="M125.06,50.35l0,0Z"/><polygon points="125.01 50.33 125 50.33 125 50.32 125 50.33 125.01 50.33"/><path d="M92.73,44.08a.94.94,0,0,0-.39,0c-.23,0-.45.12-.45.26v.12c.32,0,21.41,4.11,31.65,6.09l1-.18h.11l.18,0Z"/><path d="M57.89,50.35l.19,0H58l-.07,0c-.24,0-.47,0-.44.14h0A.69.69,0,0,1,57.89,50.35Z"/><path d="M91.31,106.31c.21,0,.46.07.46-.08v-.06l-.11.06A1.29,1.29,0,0,1,91.31,106.31Z"/><path d="M90.83,105.61c-4.68-2.57-9.4-5.07-14.2-7.43q-3.9-1.91-7.88-3.65c-1.17-.51-2.34-1-3.53-1.47l-2-.76c-.59-.22-.35-2.15-.36-2.59a186.72,186.72,0,0,0-2.56-29.47L59.4,60A194.87,194.87,0,0,1,62,92.11c0,.14.18.21.29.25C72.2,96,81.62,101,90.84,106.11,90.84,106,90.84,105.78,90.83,105.61Z"/><path d="M124.55,50.33l-1,.18L92.83,56.15l-.94.18-1.25.22h0l34-6.24h-.06Z"/><path d="M124.5,50.89c-1.5,9.33-4.65,29.29-4.79,38.75,0,.58,0,1.16,0,1.74,0,1.07-1,1.14-1.72,1.42-1.17.45-2.33.93-3.48,1.42-2.65,1.13-5.26,2.35-7.86,3.61-5,2.43-10,5-14.86,7.74C91.71,91.76,91.16,78,91,64.14c0-2,0-5.28,0-7.29-.15-.23-.34.22-.5,0-.18.21-.4-.2-.59,0-.16,2.15.12,5.63.14,7.73,0,5.18.15,10.36.25,15.55.17,8.48.46,17,.5,25.46,0,.17,0,.34,0,.5v0c0,.15.25.17.47.15a1.29,1.29,0,0,0,.35-.08l.11-.06c9.26-5.11,18.7-10.16,28.65-13.81.08,0,.22-.07.22-.18,0-10.38,3.17-31.18,4.84-41.43C125.16,50.83,124.82,50.8,124.5,50.89Z"/><path d="M90.66,56.56h0L78.25,54.18a1.71,1.71,0,0,1-.36.35l4.15.79,5.83,1.12,1.84.35c.16,0,1,.5.85.33s-.07-.53,0-.55Z"/><path d="M124.37,50.75l.13.14a4.29,4.29,0,0,1,1-.14l-.35-.36,0,0,0,0,0,0h0l-.16,0-.18,0h0L90.66,56.56h-.07c-.1,0-.42.38-.29.57S113.32,52.78,124.37,50.75Z"/><path d="M83.07,82.84c1-1.67,1.75-3.45,2.73-5.12,0-.09-.38-.26-.46-.13-1,1.67-1.75,3.45-2.73,5.12C82.56,82.8,83,83,83.07,82.84Z"/><path d="M80.74,89.21c-.08.11.37.2.45.09A81.79,81.79,0,0,0,87,79.07c.06-.14-.4-.21-.45-.09A81.79,81.79,0,0,1,80.74,89.21Z"/><path d="M86.53,83.76A71.89,71.89,0,0,0,79.89,94c-.07.13.39.19.45.07A72.26,72.26,0,0,1,87,83.83C87.07,83.72,86.62,83.65,86.53,83.76Z"/><path d="M86.7,86.63c-1.64,3.75-4.79,6.58-6.3,10.4-.05.12.4.26.45.13,1.51-3.82,4.66-6.65,6.31-10.4C87.21,86.65,86.76,86.5,86.7,86.63Z"/><path d="M87.05,90.73c-1.39,2.53-3.21,4.8-4.6,7.33-.08.13.38.23.44.12,1.39-2.54,3.21-4.8,4.6-7.34C87.57,90.71,87.11,90.62,87.05,90.73Z"/><path d="M86.87,94.2c-.39,1.24-1.15,2.33-1.54,3.58,0,.09.43.15.47,0,.39-1.25,1.15-2.34,1.54-3.58C87.37,94.1,86.91,94.05,86.87,94.2Z"/><path d="M87.56,98.28a3.87,3.87,0,0,1-.52.85c-.06.08.37.13.46,0A3.69,3.69,0,0,0,88,98.3C88.07,98.18,87.62,98.16,87.56,98.28Z"/><path d="M87.9,100.46V101c0,.15.46.21.46.09v-.51C88.36,100.4,87.9,100.34,87.9,100.46Z"/><path d="M116.49,79.74a4.18,4.18,0,0,1,.68-1c.08-.08-.36-.17-.46-.06a4.32,4.32,0,0,0-.68,1C116,79.8,116.43,79.85,116.49,79.74Z"/><path d="M115.12,84.71a35.74,35.74,0,0,0,2.9-3.92c.07-.13-.38-.23-.45-.12a34.49,34.49,0,0,1-2.9,3.92C114.59,84.69,115,84.81,115.12,84.71Z"/><path d="M115.61,86.55a10.83,10.83,0,0,0,2.58-3.61c0-.13-.41-.12-.45,0a11,11,0,0,1-2.54,3.55C115.07,86.63,115.53,86.64,115.61,86.55Z"/><path d="M118.2,85.49c0-.1-.43-.13-.47,0-.69,2.5-3.09,4.12-4.77,5.94-.07.08.36.14.46,0C115.11,89.65,117.51,88,118.2,85.49Z"/><path d="M117.91,88.69c-.87,1.48-2.36,2.4-3.41,3.75-.08.1.36.22.45.11,1-1.35,2.54-2.27,3.41-3.75C118.43,88.67,118,88.57,117.91,88.69Z"/><path d="M118.24,90.64a.72.72,0,0,1-.16.49c-.07.08.37.11.45,0a.7.7,0,0,0,.18-.53C118.71,90.47,118.24,90.5,118.24,90.64Z"/><path d="M.61,48.54h.1l1.19.23,2.45-.45L14,46.55l19.67-3.61.75-.14v-.3c0-.14.23-.23.46-.25a.72.72,0,0,0-.36,0l-34,6.24-.07,0H.52Z"/><path d="M.42,48.56a.65.65,0,0,1,.19,0l-.09,0H.45c-.24,0-.47,0-.44.14H0A.56.56,0,0,1,.42,48.56Z"/><path d="M33.84,104.51c.21,0,.46.07.46-.07v-.07l-.12.07A1.2,1.2,0,0,1,33.84,104.51Z"/><path d="M33.36,103.81c-4.68-2.57-9.4-5.06-14.2-7.42q-3.9-1.92-7.88-3.66c-1.17-.51-2.35-1-3.53-1.47-.65-.26-1.31-.51-2-.75s-.36-2.16-.36-2.6C5.33,78.06,2.48,58.71.83,49c-.32-.08-.5-.26-.82-.33C1.81,59.24,4.5,79.57,4.52,90.31c0,.14.19.22.3.26,9.91,3.63,19.32,8.66,28.55,13.75C33.37,104.15,33.36,104,33.36,103.81Z"/><path d="M44.91,52.6l-9.56,1.76-.94.17-1.24.23h0l11.74-2.15Z"/><path d="M62.09,90.8c0-.17-.06-.35-.09-.52-.33.43-1,.52-1.49.72-1.17.45-2.33.94-3.48,1.43-2.66,1.12-5.27,2.35-7.86,3.6-5,2.43-10,5-14.86,7.74-.08-13.81-.62-27.61-.76-41.42,0-2,.12-5.29.18-7.3-.16-.23-1.34.17-1.49-.06.21,1,.35,5.71.37,7.81,0,5.19.15,10.37.25,15.55.17,8.49.45,17,.5,25.46,0,.17,0,.34,0,.51v0c0,.16.24.18.47.15a1.2,1.2,0,0,0,.34-.07l.12-.07c9-5,18.18-9.86,27.82-13.48A.32.32,0,0,1,62.09,90.8Z"/><path d="M33.18,54.76h0l-31.27-6L.71,48.54H.61a.65.65,0,0,0-.19,0,.56.56,0,0,0-.41.09H0l.25.06A1.5,1.5,0,0,1,.83,49l23.74,4.54,5.83,1.12,1.84.35.32.06-.05.06a1.6,1.6,0,0,1,.23,0l0-.07c-.13-.19.32-.28.42-.3Z"/><path d="M45.43,52.9a1.83,1.83,0,0,1-.51-.29L33.18,54.76h-.06c-.1,0-.55.11-.42.3l.38.55c.16.23.91-.2.65-.57Z"/><path d="M25.59,81c1-1.67,1.75-3.44,2.73-5.11.06-.1-.37-.27-.45-.13-1,1.66-1.75,3.44-2.73,5.11C25.08,81,25.52,81.17,25.59,81Z"/><path d="M23.27,87.41c-.08.12.37.2.45.09a80.48,80.48,0,0,0,5.79-10.23c.07-.14-.39-.21-.45-.09A80.48,80.48,0,0,1,23.27,87.41Z"/><path d="M29.06,82A72.26,72.26,0,0,0,22.41,92.2c-.06.13.4.18.46.06A72,72,0,0,1,29.52,82C29.59,81.93,29.14,81.85,29.06,82Z"/><path d="M29.23,84.84c-1.65,3.75-4.79,6.58-6.31,10.4,0,.11.41.26.46.12C24.89,91.54,28,88.71,29.69,85,29.74,84.85,29.29,84.7,29.23,84.84Z"/><path d="M29.58,88.93c-1.39,2.54-3.21,4.8-4.61,7.33-.07.14.39.23.45.12,1.39-2.53,3.21-4.8,4.6-7.33C30.1,88.92,29.64,88.82,29.58,88.93Z"/><path d="M29.39,92.4C29,93.65,28.25,94.73,27.86,96c0,.1.43.15.47,0,.39-1.24,1.15-2.33,1.54-3.58C29.9,92.3,29.44,92.25,29.39,92.4Z"/><path d="M30.08,96.49a4.08,4.08,0,0,1-.51.85c-.07.08.36.12.46,0a3.84,3.84,0,0,0,.51-.85C30.6,96.38,30.14,96.36,30.08,96.49Z"/><path d="M30.42,98.66v.51c0,.15.47.21.47.1v-.51C30.89,98.61,30.42,98.55,30.42,98.66Z"/><path d="M59,77.94a4,4,0,0,1,.69-1c.07-.09-.36-.17-.46-.07a4.18,4.18,0,0,0-.68,1C58.49,78,59,78.06,59,77.94Z"/><path d="M57.64,82.91A33.63,33.63,0,0,0,60.54,79c.08-.12-.37-.23-.44-.12a34.81,34.81,0,0,1-2.9,3.92C57.11,82.89,57.55,83,57.64,82.91Z"/><path d="M58.14,84.75a11.08,11.08,0,0,0,2.58-3.6c.05-.13-.41-.13-.46,0a10.76,10.76,0,0,1-2.54,3.55C57.6,84.83,58.05,84.84,58.14,84.75Z"/><path d="M60.73,83.69c0-.09-.43-.12-.48,0-.68,2.49-3.09,4.12-4.76,5.94-.07.08.36.13.46,0C57.63,87.86,60,86.21,60.73,83.69Z"/><path d="M60.44,86.89c-.87,1.49-2.37,2.41-3.41,3.75-.09.11.36.22.44.11C58.52,89.41,60,88.49,60.88,87,61,86.87,60.5,86.78,60.44,86.89Z"/><path d="M60.77,88.85a.76.76,0,0,1-.17.48c-.06.09.37.11.46,0a.8.8,0,0,0,.18-.54C61.24,88.67,60.77,88.7,60.77,88.85Z"/></svg>