<svg xmlns="http://www.w3.org/2000/svg" width="19.732" height="19.732"><path d="M9.866 1.779c2.634 0 2.947.01 3.988.058 2.675.122 3.922 1.389 4.045 4.043.046 1.041.056 1.352.056 3.986s-.01 2.947-.056 3.986c-.123 2.652-1.368 3.923-4.045 4.045-1.041.046-1.352.058-3.988.058s-2.947-.01-3.986-.058c-2.68-.123-3.922-1.4-4.045-4.045-.046-1.039-.058-1.352-.058-3.986s.012-2.947.058-3.986C1.957 3.225 3.2 1.957 5.88 1.835c1.039-.048 1.352-.056 3.986-.056zm0-1.779c-2.68 0-3.014.012-4.068.061C2.213.225.224 2.213.059 5.8.012 6.852 0 7.187 0 9.866s.012 3.016.059 4.068c.164 3.583 2.154 5.574 5.739 5.739 1.054.048 1.388.059 4.068.059s3.016-.012 4.07-.059c3.578-.164 5.576-2.152 5.737-5.739.048-1.052.059-1.388.059-4.068s-.012-3.014-.059-4.068c-.161-3.58-2.152-5.574-5.737-5.737C12.882.012 12.546 0 9.866 0zm0 4.8a5.066 5.066 0 1 0 5.066 5.066A5.066 5.066 0 0 0 9.866 4.8zm0 8.355a3.289 3.289 0 1 1 3.29-3.289 3.288 3.288 0 0 1-3.29 3.289zm5.265-9.738A1.184 1.184 0 1 0 16.317 4.6a1.184 1.184 0 0 0-1.186-1.183z" fill="#fff"/></svg>