<svg xmlns="http://www.w3.org/2000/svg" width="25.25" height="14.73"><path d="M20.953 8.446c-.408-.516-.291-.745 0-1.206.005-.005 3.375-4.662 3.722-6.241.173-.576 0-1-.834-1h-2.759a1.185 1.185 0 0 0-1.2.769 22.581 22.581 0 0 1-3.394 5.546c-.642.63-.938.832-1.289.832-.173 0-.441-.2-.441-.778V1c0-.69-.2-1-.779-1H9.638a.661.661 0 0 0-.7.622c0 .654.994.8 1.1 2.646v3.995c0 .875-.159 1.036-.511 1.036-.938 0-3.216-3.378-4.566-7.245C4.683.3 4.417 0 3.709 0H.947C.159 0 0 .364 0 .77c0 .718.938 4.285 4.364 9 2.283 3.217 5.5 4.961 8.423 4.961 1.758 0 1.973-.387 1.973-1.053 0-3.074-.159-3.365.722-3.365.408 0 1.111.2 2.752 1.754 1.876 1.84 2.184 2.664 3.234 2.664h2.761c.787 0 1.186-.387.956-1.151-.525-1.608-4.072-4.913-4.232-5.134z" fill="#8d8d8d" opacity=".4"/></svg>