<svg width="41" height="41" viewBox="0 0 41 41" fill="none" xmlns="http://www.w3.org/2000/svg">
<g clip-path="url(#clip0)">
<path fill-rule="evenodd" clip-rule="evenodd" d="M0 20.23C0 30.2318 7.26415 38.5488 16.7647 40.2353V25.7053H11.7353V20.1176H16.7647V15.6465C16.7647 10.6171 20.0053 7.82409 24.5888 7.82409C26.0406 7.82409 27.6064 8.04706 29.0583 8.27003V13.4118H26.4882C24.0289 13.4118 23.4706 14.6406 23.4706 16.2064V20.1176H28.8353L27.9417 25.7053H23.4706V40.2353C32.9711 38.5488 40.2353 30.2335 40.2353 20.23C40.2353 9.10324 31.1824 0 20.1176 0C9.05294 0 0 9.10324 0 20.23Z" fill="white"/>
</g>
<defs>
<clipPath id="clip0">
<rect width="40.2353" height="40.2353" fill="white"/>
</clipPath>
</defs>
</svg>
