<svg width="26" height="26" fill="none" xmlns="http://www.w3.org/2000/svg"><g clip-path="url(#clip0)"><path fill-rule="evenodd" clip-rule="evenodd" d="M0 12.991c0 6.375 4.63 11.675 10.684 12.75v-9.26H7.48V12.92h3.205v-2.85c0-3.205 2.066-4.985 4.987-4.985.925 0 1.923.142 2.848.284v3.277h-1.638c-1.567 0-1.923.783-1.923 1.781v2.493h3.419l-.57 3.56h-2.85v9.26c6.056-1.074 10.685-6.373 10.685-12.749C25.642 5.901 19.872.1 12.822.1 5.768.099 0 5.9 0 12.99z" fill="#000"/></g><defs><clipPath id="clip0"><path fill="#fff" transform="translate(0 .099)" d="M0 0h25.642v25.642H0z"/></clipPath></defs></svg>