<?xml version="1.0" encoding="utf-8"?>
<!-- Generator: Adobe Illustrator 24.1.2, SVG Export Plug-In . SVG Version: 6.00 Build 0)  -->
<svg version="1.1" id="Слой_1" xmlns="http://www.w3.org/2000/svg" xmlns:xlink="http://www.w3.org/1999/xlink" x="0px" y="0px"
	 viewBox="0 0 42.8 42.8" style="enable-background:new 0 0 42.8 42.8;" xml:space="preserve">
<style type="text/css">
	.st0{fill:#FFFFFF;}
</style>
<path class="st0" d="M42.6,12.6c0-1.8-0.4-3.6-1-5.3c-0.6-1.4-1.4-2.7-2.5-3.8c-1.1-1.1-2.4-1.9-3.8-2.5c-1.7-0.6-3.4-1-5.2-1
	C27.9,0,27.2,0,21.4,0c-5.8,0-6.5,0-8.8,0.1c-1.8,0-3.5,0.4-5.2,1C6,1.7,4.7,2.5,3.6,3.6C2.5,4.7,1.7,6,1.1,7.4
	c-0.6,1.7-1,3.4-1,5.2C0,14.9,0,15.6,0,21.4c0,5.8,0,6.5,0.1,8.8c0,1.8,0.4,3.5,1,5.2c0.6,1.4,1.4,2.7,2.5,3.8
	c1.1,1.1,2.4,1.9,3.8,2.5c1.7,0.6,3.4,1,5.2,1.1c2.3,0.1,3,0.1,8.8,0.1c5.8,0,6.5,0,8.8-0.1c1.8,0,3.5-0.4,5.2-1
	c1.4-0.6,2.7-1.4,3.8-2.5c1.1-1.1,1.9-2.4,2.5-3.8c0.6-1.7,1-3.4,1-5.2c0.1-2.3,0.1-3,0.1-8.8C42.8,15.7,42.8,14.9,42.6,12.6z
	 M21.4,32.3c-6.1,0-11-4.9-11-11c0-6.1,4.9-11,11-11c2.9,0,5.7,1.2,7.8,3.2c2.1,2.1,3.2,4.9,3.2,7.8c0,2.9-1.2,5.7-3.2,7.8
	C27.1,31.2,24.3,32.3,21.4,32.3z M32.8,12.5c-1.4,0-2.6-1.1-2.6-2.6c0-0.3,0.1-0.7,0.2-1c0.1-0.3,0.3-0.6,0.6-0.8
	c0.2-0.2,0.5-0.4,0.8-0.6s0.6-0.2,1-0.2c0.3,0,0.7,0.1,1,0.2s0.6,0.3,0.8,0.6C34.8,8.4,35,8.7,35.1,9c0.1,0.3,0.2,0.6,0.2,1
	C35.3,11.4,34.2,12.5,32.8,12.5z"/>
<path class="st0" d="M21.4,28.5c3.9,0,7.1-3.2,7.1-7.1s-3.2-7.1-7.1-7.1c-3.9,0-7.1,3.2-7.1,7.1S17.4,28.5,21.4,28.5z"/>
</svg>
