<svg version="1.1" id="Слой_1" xmlns="http://www.w3.org/2000/svg" x="0" y="0" viewBox="0 0 42.8 42.8" xml:space="preserve"><style>.st0{fill:#fff}</style><path class="st0" d="M42.6 12.6c0-1.8-.4-3.6-1-5.3-.6-1.4-1.4-2.7-2.5-3.8C38 2.4 36.7 1.6 35.3 1c-1.7-.6-3.4-1-5.2-1h-8.7c-5.8 0-6.5 0-8.8.1-1.8 0-3.5.4-5.2 1-1.4.6-2.7 1.4-3.8 2.5C2.5 4.7 1.7 6 1.1 7.4c-.6 1.7-1 3.4-1 5.2-.1 2.3-.1 3-.1 8.8 0 5.8 0 6.5.1 8.8 0 1.8.4 3.5 1 5.2.6 1.4 1.4 2.7 2.5 3.8 1.1 1.1 2.4 1.9 3.8 2.5 1.7.6 3.4 1 5.2 1.1 2.3.1 3 .1 8.8.1 5.8 0 6.5 0 8.8-.1 1.8 0 3.5-.4 5.2-1 1.4-.6 2.7-1.4 3.8-2.5 1.1-1.1 1.9-2.4 2.5-3.8.6-1.7 1-3.4 1-5.2.1-2.3.1-3 .1-8.8 0-5.8 0-6.6-.2-8.9zM21.4 32.3c-6.1 0-11-4.9-11-11s4.9-11 11-11c2.9 0 5.7 1.2 7.8 3.2 2.1 2.1 3.2 4.9 3.2 7.8 0 2.9-1.2 5.7-3.2 7.8-2.1 2.1-4.9 3.2-7.8 3.2zm11.4-19.8c-1.4 0-2.6-1.1-2.6-2.6 0-.3.1-.7.2-1 .1-.3.3-.6.6-.8.2-.2.5-.4.8-.6s.6-.2 1-.2c.3 0 .7.1 1 .2s.6.3.8.6c.2.3.4.6.5.9.1.3.2.6.2 1 0 1.4-1.1 2.5-2.5 2.5z"/><path class="st0" d="M21.4 28.5c3.9 0 7.1-3.2 7.1-7.1s-3.2-7.1-7.1-7.1c-3.9 0-7.1 3.2-7.1 7.1s3.1 7.1 7.1 7.1z"/></svg>