<svg width="40" height="32" fill="none" xmlns="http://www.w3.org/2000/svg"><path d="M32.212 22.863H18.252c-2.016 0-4.173-1.468-4.912-3.344L7.697 5.197c-.298-.756-1.347-1.47-2.16-1.47H1.479a1.478 1.478 0 1 1 0-2.958h4.058c2.016 0 4.173 1.469 4.912 3.345l5.642 14.321c.298.757 1.348 1.471 2.16 1.471h13.961c.793 0 1.793-.706 2.057-1.453l2.72-7.686c.076-.215.057-.346.036-.377-.021-.03-.138-.09-.366-.09H17.403a1.479 1.479 0 0 1 0-2.958H36.66c1.165 0 2.178.489 2.781 1.342.603.852.726 1.97.337 3.069l-2.72 7.686c-.68 1.92-2.807 3.424-4.845 3.424zM14.45 31.231a3.286 3.286 0 1 0 0-6.572 3.286 3.286 0 0 0 0 6.572zM35.52 31.231a3.286 3.286 0 1 0 0-6.572 3.286 3.286 0 0 0 0 6.572z" fill="#ED3F5E"/><path d="M32.16 13.845H19.1a.739.739 0 1 1 0-1.478H32.16a.739.739 0 1 1 0 1.478zM31.161 17.542h-10.73a.74.74 0 0 1 0-1.479h10.73a.739.739 0 1 1 0 1.479z" fill="#ED3F5E"/></svg>