<svg width="45" height="45" fill="none" xmlns="http://www.w3.org/2000/svg"><path d="M40 .5H5A4.5 4.5 0 0 0 .5 5v35A4.5 4.5 0 0 0 5 44.5h35a4.5 4.5 0 0 0 4.5-4.5V5A4.5 4.5 0 0 0 40 .5z" stroke="#fff"/><path d="M40 .5H5A4.5 4.5 0 0 0 .5 5v35A4.5 4.5 0 0 0 5 44.5h35a4.5 4.5 0 0 0 4.5-4.5V5A4.5 4.5 0 0 0 40 .5z" stroke="url(#paint0_linear)" stroke-opacity=".1"/><path d="M10.75 19.5c.524 0 .75.323.75.5s-.226.5-.75.5h-7.5c-.524 0-.75-.323-.75-.5s.226-.5.75-.5h7.5zM5.333 24.5h5.334c.27 0 .495.083.642.193.147.11.191.224.191.307 0 .083-.044.197-.19.307-.148.11-.373.193-.643.193H5.333c-.27 0-.495-.083-.642-.193-.147-.11-.191-.224-.191-.307 0-.083.044-.197.19-.307.148-.11.373-.193.643-.193zM8.25 29.5h2.5c.524 0 .75.323.75.5s-.226.5-.75.5h-2.5c-.524 0-.75-.323-.75-.5s.226-.5.75-.5z" fill="#6ACD69" stroke="#F997A9"/><path d="M42.834 28.858l-3.5-6.25a1.15 1.15 0 0 0-1-.608h-8.167c-.644 0-1.167.56-1.167 1.25v12.5c0 .69.523 1.25 1.167 1.25h11.666c.644 0 1.167-.56 1.167-1.25V29.5c0-.227-.056-.45-.166-.642z" fill="#ED3F5E"/><path d="M32.75 24.286h4.4l3.075 5.142H32.75v-5.142z" fill="#212121"/><path d="M11.25 18h17.5a.25.25 0 0 1 .25.25V36H11.25a.25.25 0 0 1-.25-.25v-17.5a.25.25 0 0 1 .25-.25z" stroke="#F997A9" stroke-width="2"/><path d="M36.594 38.428a2.567 2.567 0 0 0 2.562-2.571 2.567 2.567 0 0 0-2.562-2.571 2.567 2.567 0 0 0-2.563 2.571 2.567 2.567 0 0 0 2.563 2.572z" fill="#212121"/><path d="M36.594 39.714a3.855 3.855 0 0 1-3.844-3.857A3.855 3.855 0 0 1 36.594 32c2.119 0 3.843 1.73 3.843 3.857a3.855 3.855 0 0 1-3.843 3.857zm0-5.143c-.705 0-1.282.579-1.282 1.286 0 .707.577 1.286 1.282 1.286.704 0 1.281-.579 1.281-1.286 0-.707-.577-1.286-1.281-1.286z" fill="#F2F2F2"/><path d="M31 37H11.313C10.588 37 10 36.44 10 35.75V32h21v5z" fill="#ED3F5E"/><path d="M18.656 38.428a2.567 2.567 0 0 0 2.563-2.571 2.567 2.567 0 0 0-2.563-2.571 2.567 2.567 0 0 0-2.562 2.571 2.567 2.567 0 0 0 2.562 2.572z" fill="#212121"/><path d="M18.656 39.714a3.855 3.855 0 0 1-3.843-3.857A3.855 3.855 0 0 1 18.655 32c2.12 0 3.844 1.73 3.844 3.857a3.855 3.855 0 0 1-3.844 3.857zm0-5.143a1.286 1.286 0 0 0 0 2.572 1.286 1.286 0 0 0 0-2.572zM2.304 9.055h.414c.354-.708.634-1.414.839-2.12a14.6 14.6 0 0 0 .458-2.289h3.12v4.41h.714v2.504H6.754V10H3.399v1.56H2.304V9.055zm2.611-3.464c-.078.56-.208 1.151-.391 1.776-.181.625-.385 1.188-.612 1.688h2.091V5.591H4.915zm8.521 1.725c0 .886-.22 1.567-.66 2.043-.439.476-1.069.714-1.889.714-.82 0-1.45-.238-1.89-.714-.439-.476-.659-1.16-.659-2.05 0-.892.22-1.571.66-2.04.441-.471 1.074-.707 1.897-.707.822 0 1.45.237 1.886.71.436.474.655 1.155.655 2.044zm-3.907 0c0 .598.113 1.048.34 1.351.227.303.566.454 1.018.454.906 0 1.359-.601 1.359-1.805 0-1.206-.45-1.81-1.351-1.81-.452 0-.793.153-1.022.459-.23.302-.344.753-.344 1.35zm7.19-1.802c-.427 0-.757.161-.992.484-.234.32-.351.766-.351 1.34 0 1.194.448 1.79 1.344 1.79.376 0 .831-.093 1.366-.281v.952c-.44.183-.93.274-1.472.274-.78 0-1.375-.235-1.788-.706-.412-.474-.618-1.153-.618-2.036 0-.557.1-1.044.303-1.462.203-.42.494-.74.872-.963.381-.224.826-.337 1.337-.337.52 0 1.042.126 1.567.378l-.366.922a6.056 6.056 0 0 0-.604-.249 1.802 1.802 0 0 0-.597-.106zM21.195 10h-1.136V5.591h-1.453v-.945h4.043v.945h-1.454v4.41zm5.455 0l-.388-1.274h-1.952L23.921 10h-1.223l1.89-5.376h1.387L27.872 10H26.65zm-.659-2.226l-.608-1.96a6.091 6.091 0 0 1-.095-.358c-.08.312-.311 1.085-.692 2.318h1.395zm2.46-3.128h1.666c.76 0 1.31.109 1.652.326.344.215.516.558.516 1.03 0 .319-.076.581-.227.787a.893.893 0 0 1-.597.37v.036c.34.076.584.217.733.425.15.207.227.483.227.828 0 .488-.178.869-.532 1.142-.351.274-.83.41-1.435.41H28.45V4.646zm1.135 2.12h.66c.307 0 .529-.047.666-.142.139-.095.208-.253.208-.473 0-.205-.075-.351-.227-.44-.148-.09-.385-.135-.71-.135h-.597v1.19zm0 .901v1.396h.74c.312 0 .543-.06.692-.18.149-.12.223-.302.223-.549 0-.444-.317-.667-.952-.667h-.703zM37.755 10h-1.29l-1.94-2.713V10h-1.136V4.646h1.135V7.24l1.92-2.593h1.208L35.7 7.217 37.754 10zm3.85 0l-.388-1.274h-1.952L38.877 10h-1.223l1.89-5.376h1.388L42.829 10h-1.224zm-.659-2.226l-.608-1.96a6.172 6.172 0 0 1-.095-.358c-.08.312-.311 1.085-.692 2.318h1.395z" fill="#F2F2F2"/><path d="M17.108 21.6V30h-2.376v-6.564h-1.56V21.6h3.936zM27.179 24.336V25.5h-8.52v-1.164h5.328c.104-.088.156-.188.156-.3 0-.224-.108-.404-.324-.54-.216-.144-.556-.216-1.02-.216-.792 0-1.604.148-2.436.444l-.528-1.752c.976-.368 1.936-.552 2.88-.552.752 0 1.412.112 1.98.336.576.224 1.02.544 1.332.96.312.408.468.888.468 1.44 0 .08-.004.14-.012.18h.696zm-8.52 1.656h8.52v1.164h-5.052c-.264.128-.396.288-.396.48 0 .456.456.684 1.368.684.488 0 .988-.056 1.5-.168a6.237 6.237 0 0 0 1.368-.456l.588 1.752c-.56.24-1.132.424-1.716.552-.576.12-1.136.18-1.68.18-.76 0-1.424-.108-1.992-.324-.568-.224-1.008-.54-1.32-.948-.312-.408-.468-.892-.468-1.452 0-.072.008-.172.024-.3h-.744v-1.164z" fill="#fff"/><defs><linearGradient id="paint0_linear" x1="22.5" y1="44.5" x2="22.5" y2=".5" gradientUnits="userSpaceOnUse"><stop stop-color="#015423"/><stop offset="1" stop-color="#6ED26C"/></linearGradient></defs></svg>