<svg width="18" height="18" fill="none" xmlns="http://www.w3.org/2000/svg"><g clip-path="url(#clip0)" fill="#fff"><path d="M14.786 9a.643.643 0 0 0-.643.643v6.428a.643.643 0 0 1-.643.643H1.929a.643.643 0 0 1-.643-.643V3.214c0-.355.287-.642.643-.642h7.714a.643.643 0 1 0 0-1.286H1.929A1.929 1.929 0 0 0 0 3.214v12.857C0 17.137.863 18 1.929 18h11.57a1.929 1.929 0 0 0 1.93-1.929V9.643A.643.643 0 0 0 14.785 9z"/><path d="M17.28.72a2.46 2.46 0 0 0-3.481.001L5.33 9.188a.65.65 0 0 0-.155.252l-1.285 3.857a.643.643 0 0 0 .812.813l3.857-1.286a.642.642 0 0 0 .252-.155L17.279 4.2a2.46 2.46 0 0 0 0-3.48z"/></g><defs><clipPath id="clip0"><path fill="#fff" d="M0 0h18v18H0z"/></clipPath></defs></svg>