<?xml version="1.0" encoding="utf-8"?>
<!-- Generator: Adobe Illustrator 25.0.1, SVG Export Plug-In . SVG Version: 6.00 Build 0)  -->
<svg version="1.1" id="Layer_1" xmlns="http://www.w3.org/2000/svg" xmlns:xlink="http://www.w3.org/1999/xlink" x="0px" y="0px"
	 viewBox="0 0 371.1 220.7" style="enable-background:new 0 0 371.1 220.7;" xml:space="preserve">
<style type="text/css">
	.st0{fill:#EA2C62;}
	.st1{fill:#573DF2;}
	.st2{display:none;fill:#EA2C62;}
	.st3{fill:#FFFFFF;}
	.st4{font-family:'Montserrat-Black';}
	.st5{font-size:36px;}
</style>
<path class="st0" d="M146,102V44.5C146,19.9,127.2,0,104,0h0C80.8,0,62,19.9,62,44.5V102H146z"/>
<path class="st1" d="M146,148h57.5c24.6,0,44.5-18.8,44.5-42v0c0-23.2-19.9-42-44.5-42H146V148z"/>
<path class="st1" d="M102,102H44.5C19.9,102,0,120.8,0,144v0c0,23.2,19.9,42,44.5,42H102V102z"/>
<path class="st2" d="M102,148v57.5c0,24.6,18.8,44.5,42,44.5h0c23.2,0,42-19.9,42-44.5V148H102z"/>
<rect x="102" y="64" class="st3" width="44" height="122"/>
<rect x="100.1" y="63.4" transform="matrix(-1.836970e-16 1 -1 -1.836970e-16 249.367 1.367)" class="st3" width="47.7" height="124"/>
<text transform="matrix(1 0 0 1 99.9999 211)" class="st0 st4 st5">Новый путь</text>
</svg>
