<svg version="1.1" id="Layer_1" xmlns="http://www.w3.org/2000/svg" x="0" y="0" viewBox="0 0 371.1 220.7" xml:space="preserve"><style>.st0{fill:#ea2c62}.st3{fill:#fff}</style><path class="st0" d="M146 102V44.5C146 19.9 127.2 0 104 0S62 19.9 62 44.5V102h84z"/><path d="M146 148h57.5c24.6 0 44.5-18.8 44.5-42s-19.9-42-44.5-42H146v84zm-44-46H44.5C19.9 102 0 120.8 0 144s19.9 42 44.5 42H102v-84z" fill="#573df2"/><path class="st3" d="M102 64h44v122h-44z"/><path transform="rotate(90 124 125.367)" class="st3" d="M100.1 63.4h47.7v124h-47.7z"/><text transform="translate(100 211)" class="st0" font-size="36" font-family="Montserrat-Black">Новый путь</text></svg>