<svg xmlns="http://www.w3.org/2000/svg" width="1922" height="1000"><path fill-rule="evenodd" fill="#202426" d="M1880.991 46.382c-10.592-2.126-15.358 2.91-16.797 5.126.133-.331.288-.736.472-1.266-12.255 4.235-29.368-8.097-35.043.516 16.543-2.057-27.649 5.688-31.024-1.436-11.327-11.941-24.568-13.967-42.585-4.06-7.535-7.408-43.346-1.086-41.164-8.07-11.746 1.381-33.972-.45-70.145-.261-28.696 4.14-45.661.03-69.39 0-13.147.462-26.375-9.421-39.506.144-13.128-3.455-27.345 5.534-36.469-4.816-3.546 2.082-2.602-4.74-6.73-6.211-9.989 1.689-39.015-.108-51.045-1.865-28.384-4.346-56.767-1.145-85.151 0-14.052 5.315-28.119 5.11-42.168.023-18.696-2.433-36.616-10.048-55.26-2.257-16.952-9.556-30.542 7.211-44.748 2.186-7.71 4.19-16.976-7.691-25.274 4.408-17.261-3.555-28.098-4.072-43.363 3.056-9.617 4.987-11.902 11.679-25.342 5.051-11.353-6.793-17.068-8.389-26.223 4.526-4.663 3.699-7.76 7.142-13.388 4.251-13.181-.984-40.156-.44-53.891.002-22.661-12.803-45.323-1.815-67.984 0-17.398-17.431-34.801-5.519-52.199-.015-8.602-4.402-22.279 4.316-30.325.31-9.483-11.031-4.904-9.618-13.07-4.166-12.316-5.361-24.264-.417-39.635-10.373-13.451-3.858-23.629-4.542-37.901-2.703-18.311-.152-33.149-.235-50.862-4.375-14.833-9.877-25.381 3.755-36.335-4.543-5.303 4.533-9.415 1.169-14.893-5.953-16.166-15.063-34.002-1.863-55.535-10.983-30.897-9.308-60.295 9.695-90.819 2.456-12.628 5.2-30.448 3.556-41.554.971-14.6-5.993-25.956 9.486-39.331 13.874-14.122-7.664-26.886-.179-42.708 4.64-17.825 5.379-21.885 13.512-33.7 11.568-14.148 14.303-41.604 4.349-61.322 3.391-29.113-4.794-54.702 13.137-82.653-2.125-16.325-.46-22.396 10.993-37.098-3.069-16.04 1.074-29.483-5.354-41.772-1.638-20.765 3.927-16.276-.285-26.548 2.11-9.761 2.624-23.991 10.125-34.269 2.286-19.173 6.406-53.432 11.469-51.947 9.265-18.109 3.077-27.668-6.964-35.538-10.324.073-4.808-3.234-6.331-8.744-6.577v951.2c1.841 10.546 29.572-1.92 29.889 2.245 5.686-.054 14.936 17.354 21.143 5.039 19.627 8.08 33.341 2.524 47.022 1.897 19.205 18.627 24.568 7.253 47.497.425 15.68-20.513 29.496-5.407 40.06-2.768 6.401-1.904 11.502.667 11.935-2.329 3.215 9.532 12.751 23.597 13.981-8.208-.973-3.974-1.98-6.593-2.822-8.293 1.521 1.38 4.065 3.095 8.109 4.598 3.097 4.188 18.649 5.197 20.123-1.696 18.203-1.334 26.917-9.801 35.281-10.384 7.925-14.685 12.1 6.316 24.36-7.152 10.729-6.233 16.46-6.681 26.118-4.301 6.014-.667 11.603-5.688 17.697-1.79 7.178-.666 10.585-10.32 18.655-6.082 8.835 12.204 13.414-6.123 21.027 2.039 7.962 9.768 16.218 5.531 24.429 1.073 8.662 8.543 15.817-12.653 24.209 1.756 7.723-4.472 12.89-10.144 19.734 4.422 14.86-1.93 31.739.836 49.003 12.692 15.297 1.104 31.114 15.312 46.951.528 15.838 9.13 31.699-8.015 47.091-.639 17.23-8.427 34.462.541 51.693 0 18.853 13.819 30.534 24.82 46.44 8.264 11.848 7.626 21.801 21.078 36.637 6.201 6.341 12.041 14.258 3.944 20.453.258 11.298-2.524 19.805-9.972 31.756-5.186 22.462 17.191 45.63-7.07 68.118.113 5.397 4.031 10.978-6.103 16.349.115 11.762 2.132 21.484 6.301 32.656-4.757 7.949-1.353 16.624-.485 24.715-.059 13.818-2.664 26.821-3.045 40.421-2.592 19.056 4.361 33.676-9.675 51.051 5.55 12.845 5.512 26.503 14.493 41.037 9.073 9.73 1.095 18.051-.653 27.681.979 16.436 5.653 28.415 12.61 45.132 3.741 15.192-.482 28.105-11.243 42.697 1.893 23.142.922 45.399 15.477 69.579 2.941 16.619.312 33.359-22.564 49.957.171 21.342.755 39.362.34 58.989-12.255 8.596 5.398 16.852 5.426 25.391-2.273 10.024 10.428 14.314-4.835 23.561-6.884 3.491-7.165 9.816 6.075 13.459-.99 8.002 4.806 15.135-12.466 23.11-3.886 11.655.381 25.1-2.258 36.954-.417 18.395-6.861 36.795 13.196 55.189-.007 19.973-1.71 37.88 2.385 57.94-2.404 5.867-9.158 13.716-5.179 18.675-.949 5.801-1.315 3.084-7.223 10.477-6.425 8.725-.945 24.576-2.746 33.32.137 10.241-.285 20.487 2.508 30.731 0 10.112 10.058 16.865 6.794 33.427.09 6.097 3.75 19.391-1.94 20.198-2.626 7.965 1.203 20.155 7.307 21.028.497.939-3.76 13.732 14.267 22.113 10.794 10.713 9.753 14.763-1.575 21.919 2.64.048 1.184 2.836 9.964 10.341 1.133-3.511 14.893 3.208-6.806 4.091 2.925 19.313 19.76 24.941 29.333 46.556 18.722 13.435 7.001 15.735-7.484 26.469 5.648 15.022-6.577 24.185-1.637 37.225 2.933.834.452 1.833.963 2.945 1.494V44.162c-29.612-5.035-42.808-6.122-40.996 2.22z"/></svg>