<svg xmlns="http://www.w3.org/2000/svg" width="1920" height="583.03"><path d="M1878.99 55.01c-10.59-2.52-15.36 3.45-16.8 6.08.14-.39.29-.87.48-1.5-12.26 5.02-29.37-9.61-35.05.61 16.55-2.44-27.65 6.75-31.02-1.7-11.33-14.17-24.57-16.57-42.59-4.82-7.53-8.79-43.34-1.29-41.16-9.57-11.75 1.64-33.97-.53-70.15-.31-28.69 4.91-45.66.04-69.38 0-13.15.55-26.38-11.17-39.51.17-13.13-4.1-27.35 6.56-36.47-5.71-3.55 2.47-2.6-5.62-6.73-7.37-9.99 2.01-39.02-.13-51.04-2.21-28.39-5.15-56.77-1.36-85.16 0-14.05 6.3-28.12 6.06-42.16.03-18.7-2.89-36.62-11.92-55.26-2.68-16.96-11.33-30.55 8.55-44.75 2.59-7.71 4.97-16.98-9.12-25.28 5.23-17.26-4.21-28.09-4.83-43.36 3.63-9.62 5.91-11.9 13.85-25.34 5.99-11.35-8.06-17.07-9.95-26.22 5.37-4.67 4.38-7.76 8.47-13.39 5.04-13.18-1.17-40.16-.53-53.89 0-22.66-15.19-45.326-2.15-67.987 0-17.4-20.67-34.8-6.55-52.2-.02-8.6-5.22-22.279 5.12-30.325.37-9.483-13.08-4.9-11.41-13.07-4.94-12.316-6.36-24.264-.5-39.635-12.31-13.451-4.57-23.629-5.38-37.9-3.2-18.311-.18-33.149-.28-50.862-5.19-14.833-11.71-25.381 4.45-36.335-5.39-5.3 5.38-9.415 1.39-14.893-7.06-16.166-17.86-34-2.21-55.535-13.02-30.9-11.04-60.3 11.49-90.819 2.91-12.628 6.17-30.448 4.22-41.554 1.15-14.6-7.11-25.956 11.25-39.331 16.46-14.122-9.09-26.886-.22-42.708 5.5-17.825 6.38-21.885 16.02-33.7 13.72-14.148 16.96-41.6 5.16-61.322 4.02-29.113-5.69-54.7 15.58-82.653-2.52-16.325-.55-22.4 13.04-37.1-3.64-16.04 1.27-29.483-6.35-41.772-1.94-20.765 4.66-16.276-.34-26.548 2.5-9.761 3.11-23.991 12.01-34.269 2.71-19.174 7.6-53.432 13.6-51.947 10.99-18.109 3.65-27.668-8.26-35.538-12.24.073-5.71-3.234-7.51-8.744-7.81v1128.16c1.841 12.51 29.572-2.28 29.889 2.66 5.686-.06 14.935 20.58 21.143 5.98 19.627 9.58 33.34 2.99 47.022 2.25 19.2 22.09 24.568 8.6 47.5.5 15.68-24.33 29.5-6.41 40.06-3.28 6.4-2.26 11.5.79 11.935-2.77 3.215 11.31 12.751 27.99 13.981-9.73a54.768 54.768 0 0 0-2.822-9.84 24.21 24.21 0 0 0 8.109 5.46c3.1 4.96 18.649 6.16 20.123-2.01 18.2-1.59 26.917-11.63 35.281-12.32 7.925-17.42 12.1 7.49 24.36-8.48 10.729-7.39 16.46-7.93 26.118-5.1 6.014-.79 11.6-6.75 17.7-2.13 7.178-.79 10.585-12.24 18.655-7.21 8.835 14.48 13.414-7.26 21.027 2.42 7.962 11.58 16.218 6.56 24.429 1.27 8.662 10.13 15.817-15.01 24.209 2.08 7.723-5.3 12.89-12.03 19.734 5.25 14.86-2.29 31.739.99 49 15.05 15.3 1.31 31.114 18.16 46.951.63 15.838 10.83 31.7-9.51 47.091-.76 17.23-9.99 34.462.64 51.693 0 18.853 16.39 30.534 29.44 46.44 9.8 11.848 9.05 21.8 25 36.637 7.36 6.341 14.28 14.258 4.67 20.453.3 11.3-2.99 19.8-11.82 31.756-6.15 22.462 20.39 45.63-8.38 68.118.14 5.4 4.78 10.978-7.24 16.349.13 11.762 2.53 21.484 7.48 32.656-5.64 7.949-1.6 16.624-.58 24.715-.07 13.818-3.16 26.821-3.61 40.421-3.07 19.056 5.17 33.676-11.48 51.055 6.58 12.84 6.54 26.5 17.19 41.03 10.76 9.73 1.3 18.05-.77 27.68 1.16 16.44 6.7 28.42 14.96 45.14 4.44 15.19-.57 28.1-13.34 42.69 2.24 23.14 1.1 45.4 18.36 69.58 3.49 16.62.37 33.36-26.76 49.96.2 21.34.9 39.36.41 58.99-14.53 8.59 6.4 16.85 6.43 25.39-2.7 10.02 12.37 14.31-5.73 23.56-8.16 3.49-8.5 9.82 7.2 13.46-1.18 8 5.7 15.13-14.78 23.11-4.61 11.65.46 25.1-2.67 36.95-.49 18.4-8.14 36.8 15.65 55.19-.01 19.98-2.03 37.88 2.83 57.94-2.85 5.87-10.86 13.72-6.14 18.68-1.12 5.8-1.56 3.08-8.57 10.47-7.63 8.73-1.12 24.58-3.25 33.32.17 10.24-.34 20.49 2.97 30.73 0 10.12 11.93 16.87 8.05 33.43.1 6.1 4.45 19.39-2.3 20.2-3.11 7.97 1.43 20.15 8.67 21.03.59.94-4.46 13.73 16.92 22.11 12.8 10.71 11.57 14.76-1.87 21.92 3.13.05 1.41 2.84 11.82 10.34 1.35-3.51 17.66 3.21-8.08 4.09 3.47 19.31 23.43 24.94 34.78 46.56 22.2 13.43 8.3 15.73-8.88 26.47 6.7 15.02-7.8 24.18-1.94 37.22 3.48.84.53 1.83 1.14 2.95 1.77V52.38c-29.611-5.98-42.811-7.27-41.001 2.63z" fill="#202426" fill-rule="evenodd"/></svg>