<svg xmlns="http://www.w3.org/2000/svg" width="205" height="70" version="1.0"><defs><clipPath clip-rule="nonzero" id="b"><path d="M0 81.647V0h243.64v81.647"/></clipPath><clipPath clip-rule="nonzero" id="a"><path d="M-77.29-36.553v54.957H86.705v-54.957H-77.29z"/></clipPath></defs><g clip-path="url(#a)" transform="translate(96.972 46.227) scale(1.21584)" fill="none"><path class="ps01" d="M-56.824-13.116a2.94 2.94 0 1 1 5.865-.425 2.94 2.94 0 0 1-5.865.425M-22.316-13.116a2.94 2.94 0 1 0-5.867-.423 2.94 2.94 0 0 0 5.867.423" fill="#314d89"/><path class="ps01" d="M-12.63-8.505c-.345-1.275-2.105-1.47-3.657-1.065-1.226.32-5.488 1.502-9.272 1.227-2.72-.196-5.378-2.458-7.032-4.007 1.643-1.894 3.763-3.926 4.249-4.495.703-.82.82-2.106.234-2.691-.584-.585-1.637-.232-2.69.47-1.052.7-5.03 4.706-8.824 4.706-3.793 0-7.9-4.005-8.954-4.706-1.053-.702-2.575-.585-3.16 0-.584.584.002 1.402.704 2.22.498.582 2.697 2.69 4.353 4.618-1.662 1.542-4.253 3.694-6.902 3.885-3.784.275-8.047-.908-9.272-1.227-1.552-.404-3.312-.21-3.658 1.065-.217.797.46 1.675 1.369 2.268.904.59 5.592 1.5 6.91 3.517 1.318 2.016 1.52 17.61 2.748 18.133.895.382 2.457.382 3.305-.05 1.19-.603 3.197-17.617 4.21-19.802.56-1.207 1.972-3.01 3.23-4.531 1.085 5.082 2.27 24.011 3.414 24.407.864.299 2.584.299 3.276 0 1.127-.488 2.36-19.916 3.463-24.63 1.302 1.564 2.827 3.488 3.415 4.754 1.013 2.185 3.02 19.2 4.209 19.803.85.431 2.41.431 3.306.049 1.226-.523 1.428-16.117 2.747-18.133 1.32-2.016 6.007-2.928 6.91-3.517.91-.593 1.585-1.47 1.37-2.268" fill="#314d89"/><g clip-path="url(#b)" transform="matrix(.6731 0 0 -.6731 -77.29 18.404)" fill="#314d89"><path class="ps01" d="M51.67 56.097a4.367 4.367 0 0 0 4.37 4.367 4.367 4.367 0 0 0 0-8.735 4.369 4.369 0 0 0-4.37 4.368"/><path class="ps02" d="M96.935 55.789c2.123-3.369-2.323-4.633-5.718-3.857-2.844.648-30.734 15.561-34.916 15.945-4.168.38-29.256-15.044-32.021-16.524-4.062-2.172-7.65-1.965-11.401-.02-1.238.646-10.794 5.69-12.879 7.098 2.084 1.947 31.09 19.362 34.467 21.054 3.884 1.949 6.199 2.971 10.469 1.376 2.961-1.109 51.119-23.679 51.999-25.072" fill="#6db340"/></g><path class="ps02" d="M-69.884-4.587c.731.108 4.183 1.595 5.55 2.3 3.286 1.692 3.456 3.374 3.831 6.113.4 2.918.745 8.355.803 10.415-1.376-.59-6.76-5.096-8.045-6.206-.996-.864-2.11-1.48-2.108-2.817.002-.511-.233-8.55-.03-9.805" fill="#6db340"/><path class="ps01" d="M83.695 5.904h.674c.45 0 .599-.16.599-.485 0-.285-.216-.444-.505-.444h-.768v.93zm0 1.6h-.417V4.628h1.097c.673 0 1.003.272 1.003.817 0 .518-.336.736-.747.79l.828 1.267h-.458l-.78-1.254h-.526v1.254zm.532.67c1.144 0 2.026-.903 2.026-2.098 0-1.175-.882-2.084-2.026-2.084-1.158 0-2.033.909-2.033 2.084 0 1.195.875 2.097 2.033 2.097zm0-4.553c1.353 0 2.477 1.06 2.477 2.455 0 1.408-1.124 2.47-2.477 2.47-1.346 0-2.484-1.062-2.484-2.47 0-1.394 1.138-2.455 2.484-2.455M1.005-20.55c-.121 1.444-.148 3.125-.148 4.923v3.391c.646.03 1.292.06 2.241.06.943 0 1.589-.03 2.235-.06v-3.39c0-1.8-.027-3.48-.141-4.924h5.573c-.296 3.036-.296 5.514-.296 10.526s0 7.49.296 10.527H5.192c.114-1.444.141-3.127.141-4.924v-4.305a43.27 43.27 0 0 0-2.235-.059c-.949 0-1.595.03-2.241.06v4.304c0 1.797.027 3.48.148 4.924h-5.573c.29-3.037.29-5.515.29-10.527s0-7.49-.29-10.526h5.573M19.724-7.164c-1.851.472-3.009 1.622-3.009 3.096 0 1.033.653 1.828 1.596 1.828.619 0 1.238-.384 1.413-.649v-4.275zm-6.394-7.313c.41-.058 2.005-.235 3.096-.235 6.098 0 7.956 2.388 7.956 6.339v3.686c0 1.415 0 3.009.767 5.19h-4.685c-.356-.472-.47-.796-.504-.914C19.165.18 18.075.74 16.66.74c-2.86 0-4.718-1.976-4.718-4.453 0-2.712 2.147-4.541 4.954-5.455l2.443-.797c-.027-1.031-.706-1.916-2.093-1.916-.942 0-2.416.442-3.917 1.533v-4.128M31.712-3.625c0 .856.323 1.533 1.265 1.533 1.212 0 2.067-1.238 2.067-4.747 0-2.507-.653-4.66-2.127-4.66-.794 0-1.205.502-1.205 1.21v6.664zm0-16.925v6.663c.734-.442 1.797-.825 2.86-.825 2.8 0 5.426 2.064 5.426 7.43 0 4.159-2.269 8.138-6.455 8.138-1.124 0-2.423-.382-3.81-1.473L28.083.797 26.67-.058c.263-1.886.263-3.891.263-6.016v-8.461c0-1.092 0-2.3-.296-6.015h5.075M46.648-14.357c-.06 1.53-.06 3.773-.06 6.957 0 4.01 0 6.017.269 7.903h-5.311c.262-1.886.262-3.892.262-6.016v-2.83c0-2.124 0-4.128-.262-6.014h5.102zm-2.45-6.401a2.648 2.648 0 0 1 2.659 2.655 2.647 2.647 0 0 1-2.659 2.653 2.641 2.641 0 0 1-2.652-2.653 2.642 2.642 0 0 1 2.652-2.655M54.786-18.87c-.06.913-.094 2.654-.094 4.513h2.214v2.829h-2.214v7.431c0 1.208.444 1.887 1.628 1.887.175 0 .35 0 .62-.03V.414c-.976.324-1.98.442-2.982.442-1.326 0-2.39-.47-3.184-1.415-.62-.738-.855-1.975-.855-3.48v-7.49h-1.71v-2.828h1.71c0-1.859-.027-3.6-.087-4.513h4.954M66.202-7.164c-1.858.472-3.002 1.622-3.002 3.096 0 1.033.646 1.828 1.588 1.828.62 0 1.239-.384 1.414-.649v-4.275zm-6.395-7.313c.41-.058 2.006-.235 3.096-.235 6.105 0 7.963 2.388 7.963 6.339v3.686c0 1.415 0 3.009.76 5.19h-4.684c-.357-.472-.471-.796-.498-.914-.801.59-1.891 1.15-3.305 1.15-2.86 0-4.718-1.976-4.718-4.453 0-2.712 2.153-4.541 4.954-5.455l2.45-.797c-.034-1.031-.714-1.916-2.1-1.916-.943 0-2.417.442-3.918 1.533v-4.128M78.842-18.87c-.053.913-.087 2.654-.087 4.513h2.214v2.829h-2.214v7.431c0 1.208.444 1.887 1.622 1.887.182 0 .357 0 .62-.03V.414c-.97.324-1.973.442-2.976.442-1.326 0-2.39-.47-3.184-1.415-.619-.738-.854-1.975-.854-3.48v-7.49h-1.717v-2.828h1.717c0-1.859-.034-3.6-.095-4.513h4.954M.231 5.626c-.067-.05-.276-.161-.626-.161-.666 0-.99.51-.99 1.055 0 .318.095.639.162.799h1.198v1.533h-1.218v3.258c0 1.15 0 2.236.148 3.258h-2.88c.147-1.022.147-2.108.147-3.258V8.852h-.881V7.319h.881v-.624c0-.943.162-1.58.909-2.204.64-.511 1.44-.687 2.14-.687.384 0 .801.064 1.01.144v1.678M2.964 11.343c0 1.933.417 2.62.895 2.62.485 0 .895-.687.895-2.62 0-1.932-.41-2.62-.895-2.62-.478 0-.895.688-.895 2.62zm4.63 0c0 2.716-1.783 4.217-3.735 4.217-1.945 0-3.736-1.501-3.736-4.217 0-2.714 1.79-4.217 3.736-4.217 1.952 0 3.736 1.503 3.736 4.217M10.967 7.319c.101.287.209.814.229 1.069.559-.75 1.225-1.262 2.026-1.262a.93.93 0 0 1 .35.048V9.3a2.105 2.105 0 0 0-.478-.064c-1.218 0-1.743 1.118-1.743 2.875 0 1.15 0 2.236.148 3.258H8.524c.148-1.022.148-2.108.148-3.258v-1.533c0-1.15 0-2.236-.276-3.258h2.571M22.087 3.964c-.068.783-.081 1.692-.081 2.668v1.836a23.808 23.808 0 0 0 2.43 0V6.632c0-.976-.014-1.885-.081-2.668h3.015c-.154 1.645-.154 2.985-.154 5.702 0 2.715 0 4.058.154 5.702h-3.015c.067-.783.08-1.692.08-2.667V10.37c-.35-.017-.706-.033-1.218-.033-.511 0-.861.016-1.211.033V12.7c0 .975.013 1.884.08 2.667h-3.015c.155-1.644.155-2.987.155-5.702 0-2.717 0-4.057-.155-5.702h3.016M33.2 15.368a3.96 3.96 0 0 1-.236-.718c-.592.575-1.198.91-2.026.91-1.36 0-2.255-.99-2.255-2.524v-2.46c0-1.15 0-2.235-.148-3.257h2.733v5.35c0 .638.255 1.007.72 1.007.397 0 .814-.288.814-.847v-2.252c0-1.15 0-2.236-.141-3.258h2.874c-.148 1.022-.148 2.108-.148 3.258v1.533c0 1.15 0 2.236.148 3.258H33.2M39.27 7.319c.115.24.196.51.243.717.593-.542 1.306-.91 2.107-.91.862 0 1.407.495 1.79 1.023.573-.51 1.212-1.023 2.249-1.023 1.568 0 2.16 1.103 2.16 2.683v2.301c0 1.15 0 2.236.142 3.258h-2.875c.142-1.022.142-2.108.142-3.258V9.89c0-.56-.155-.974-.653-.974-.539 0-.848.414-.848.974v2.22c0 1.15 0 2.236.148 3.258h-2.881c.148-1.022.148-2.108.148-3.258V9.86c0-.529-.161-.943-.653-.943a.851.851 0 0 0-.848.846v2.348c0 1.15 0 2.236.141 3.258h-2.874c.142-1.022.142-2.108.142-3.258v-1.533c0-1.15 0-2.236-.142-3.258h2.363M52.982 11.214c-1.01.257-1.629.88-1.629 1.68 0 .558.35.99.862.99.33 0 .673-.208.767-.353v-2.317zm-3.467-3.96c.223-.03 1.084-.128 1.676-.128 3.305 0 4.315 1.295 4.315 3.435v1.996c0 .767 0 1.63.41 2.811H53.38c-.188-.254-.256-.43-.27-.495-.43.32-1.022.623-1.79.623-1.548 0-2.557-1.071-2.557-2.411 0-1.47 1.164-2.46 2.685-2.956l1.326-.431c-.013-.56-.383-1.039-1.137-1.039-.505 0-1.306.241-2.12.832V7.254M58.986 7.319c.108.24.188.51.236.717.592-.574 1.198-.91 2.026-.91 1.36 0 2.254.99 2.254 2.524v2.46c0 1.15 0 2.236.142 3.258H60.77c.148-1.022.148-2.108.148-3.258V9.906c0-.495-.209-.894-.694-.894-.397 0-.84.287-.84.767v2.331c0 1.15 0 2.236.14 3.258H56.65c.142-1.022.142-2.108.142-3.258v-1.533c0-1.15 0-2.236-.142-3.258h2.336M67.353 7.319c-.034.83-.034 2.044-.034 3.769 0 2.172 0 3.258.148 4.28h-2.874c.141-1.022.141-2.108.141-3.258v-1.533c0-1.15 0-2.236-.141-3.258h2.76zm-1.326-3.468c.8 0 1.44.64 1.44 1.439s-.64 1.437-1.44 1.437a1.43 1.43 0 0 1-1.434-1.437c0-.8.64-1.439 1.434-1.439M71.903 4.874c-.034.496-.047 1.438-.047 2.445h1.198v1.533h-1.198v4.024c0 .655.242 1.023.875 1.023.1 0 .195 0 .336-.016v1.438c-.525.175-1.07.24-1.608.24-.72 0-1.293-.256-1.724-.767-.336-.4-.464-1.07-.464-1.885V8.852h-.929V7.319h.929c0-1.007-.02-1.95-.047-2.445h2.679M76.588 7.319c.201 1.245.814 3.513 1.13 4.552h.034c.444-1.63.78-3.466.929-4.552h2.282c-.532 2.188-1.73 6.629-2.747 8.72-.531 1.07-1.326 2.365-3.52 2.365-.222 0-.552-.017-.76-.08v-2.045c.14.08.49.24.895.24.828 0 1.386-.687 1.386-1.278 0-.303-.06-.495-.7-2.188-.868-2.268-1.52-4.665-1.696-5.734h2.767" fill="#314d89"/></g></svg>