<svg xmlns="http://www.w3.org/2000/svg" width="136" height="40" fill="none" viewBox="0 0 136 40">
    <path fill="#030504" d="M129.574 25.665h-.9a.137.137 0 00-.154.153v3.63l-1.8-3.659a.176.176 0 00-.173-.125h-.756a.14.14 0 00-.113.042.15.15 0 00-.033.051c-.007.02-.009.04-.007.061v6.398a.139.139 0 00.153.153h.9a.138.138 0 00.147-.091.13.13 0 00.006-.062v-3.63l1.801 3.66a.17.17 0 00.065.09.17.17 0 00.107.033h.757c.02.002.041 0 .061-.008a.135.135 0 00.051-.032.14.14 0 00.041-.112v-6.399a.14.14 0 00-.041-.113.138.138 0 00-.112-.04zM135.287 25.664h-.958a.218.218 0 00-.22.154l-1.073 2.462-1.072-2.462a.222.222 0 00-.22-.154h-.958c-.144 0-.211.097-.154.22l1.753 3.976v2.317a.182.182 0 00.008.077.175.175 0 00.184.115h.919c.026.003.052 0 .076-.008a.167.167 0 00.066-.041.183.183 0 00.041-.066.182.182 0 00.008-.077V29.86l1.752-3.975c.059-.125-.007-.22-.152-.22zM95.855 23.284h.15c.173 0 .256.066.28.214.02.115.056.227.108.331h.339a1.042 1.042 0 01-.1-.338.4.4 0 00-.248-.331v-.017a.35.35 0 00.282-.314.377.377 0 00-.133-.298.843.843 0 00-.471-.1 2.813 2.813 0 00-.522.041v1.358h.314l.001-.546zm.008-.613a.736.736 0 01.174-.017c.2 0 .29.083.29.207 0 .14-.14.198-.314.198h-.149v-.388zM115.827 32.369l.938.01a.137.137 0 00.114-.039.143.143 0 00.04-.114V30.31l1.207-.01c.899-.01 1.378-.489 1.378-1.378v-1.877c0-.901-.479-1.38-1.378-1.38h-2.299a.14.14 0 00-.113.041.137.137 0 00-.033.052c-.007.02-.009.04-.007.06v6.398a.139.139 0 00.153.153zm1.092-5.46l.957-.009a.34.34 0 01.384.383v1.398a.35.35 0 01-.098.285.343.343 0 01-.286.099l-.957.01V26.91zM99.309 16.995h3.42a.547.547 0 00.551-.548V8.271c0-.152.048-.24.148-.263.1-.023.194.027.285.148l5.949 8.383c.104.133.236.241.387.32.145.085.31.132.478.136h3.374a.547.547 0 00.506-.338.54.54 0 00.041-.21V.825a.56.56 0 00-.16-.388.554.554 0 00-.388-.16h-3.38a.547.547 0 00-.548.548v8.177c0 .152-.049.236-.148.25a.307.307 0 01-.286-.16L103.6.712a1.214 1.214 0 00-.868-.435h-3.425a.546.546 0 00-.548.548v15.622a.526.526 0 00.16.389.534.534 0 00.39.16zM114.353 25.665h-1.264a.2.2 0 00-.211.163l-1.064 4.27-1.064-4.27a.198.198 0 00-.21-.164h-1.265a.176.176 0 00-.142.05.185.185 0 00-.041.065.182.182 0 00-.008.077v6.321a.167.167 0 00.049.143.167.167 0 00.066.04c.024.01.05.012.076.009h.881a.17.17 0 00.143-.049.185.185 0 00.041-.066.168.168 0 00.008-.077v-3.764h.067l.901 3.793a.197.197 0 00.21.162h.565a.2.2 0 00.211-.162l.901-3.793h.066v3.764a.182.182 0 00.008.077.175.175 0 00.184.115h.89a.17.17 0 00.143-.049.16.16 0 00.041-.066.168.168 0 00.008-.077v-6.321a.17.17 0 00-.114-.183c-.024-.008-.05-.011-.076-.008zM120.604 14.757a9.127 9.127 0 002.798 1.85 8.602 8.602 0 003.425.686 8.906 8.906 0 005.79-2.102 8.102 8.102 0 001.885-2.33c.489-.905.792-1.899.89-2.923.045-.383.068-.768.069-1.154a8.335 8.335 0 00-.046-.947.572.572 0 00-.193-.4.595.595 0 00-.4-.148h-7.857a.547.547 0 00-.549.548v2.718a.56.56 0 00.16.388.551.551 0 00.389.16h2.626a.343.343 0 01.32.148.296.296 0 01-.024.331c-.329.483-.8.85-1.348 1.05a4.801 4.801 0 01-1.713.32 3.833 3.833 0 01-1.632-.353 4.488 4.488 0 01-1.336-.936 4.365 4.365 0 01-.903-1.36 4.23 4.23 0 010-3.277 4.48 4.48 0 01.903-1.382 4.378 4.378 0 011.336-.948 3.836 3.836 0 011.632-.354 3.997 3.997 0 012.09.526c.607.368 1.144.84 1.588 1.393a.622.622 0 00.388.217.587.587 0 00.411-.08l2.741-1.759a.539.539 0 00.239-.354.531.531 0 00-.056-.422 8.378 8.378 0 00-3.026-2.833 8.907 8.907 0 00-4.374-1.027 8.595 8.595 0 00-3.426.685 9.034 9.034 0 00-2.798 1.862 8.808 8.808 0 00-1.896 2.752 8.449 8.449 0 000 6.715 8.659 8.659 0 001.897 2.74zM122.992 25.665h-1.331a.149.149 0 00-.163.134l-1.59 6.408c-.028.105.02.162.124.162h.939a.148.148 0 00.104-.036.147.147 0 00.049-.097l.297-1.208h1.8l.307 1.208a.144.144 0 00.05.097.145.145 0 00.103.036h.929c.115 0 .163-.057.134-.162l-1.59-6.408a.149.149 0 00-.162-.134zm-1.273 4.252l.603-2.605.603 2.605h-1.206zM8.638 25.664H7.565c-.9 0-1.38.48-1.38 1.38v3.946c0 .9.48 1.378 1.38 1.378h1.073c.9 0 1.378-.479 1.378-1.378v-3.946c0-.9-.478-1.38-1.378-1.38zm.172 5.086a.339.339 0 01-.383.383h-.613a.337.337 0 01-.37-.228.339.339 0 01-.013-.155v-3.467a.344.344 0 01.383-.383h.613a.343.343 0 01.383.383v3.467zM16.04 25.664h-3.526a.139.139 0 00-.114.04.136.136 0 00-.039.114v6.398a.135.135 0 00.091.147c.02.007.041.009.062.006h.996a.14.14 0 00.113-.04.141.141 0 00.04-.113v-2.384h1.801a.138.138 0 00.147-.091.136.136 0 00.007-.062v-.96a.14.14 0 00-.154-.152h-1.8v-1.638h2.375a.14.14 0 00.153-.153v-.958a.14.14 0 00-.153-.154zM2.462 25.664H1.389c-.9 0-1.389.48-1.389 1.38v3.946c0 .9.489 1.378 1.39 1.378h1.072c.89 0 1.38-.479 1.38-1.378v-1.034a.142.142 0 00-.154-.154h-.9a.137.137 0 00-.154.154v.813a.34.34 0 01-.383.384h-.613a.34.34 0 01-.383-.384v-3.476a.34.34 0 01.383-.383h.613a.345.345 0 01.383.383v.786a.136.136 0 00.154.152h.9a.14.14 0 00.146-.092.14.14 0 00.007-.06v-1.035c0-.9-.489-1.38-1.38-1.38zM22.214 25.664H18.69a.137.137 0 00-.153.154v6.398a.135.135 0 00.039.114.136.136 0 00.114.039h.996a.14.14 0 00.153-.153v-2.384h1.8a.136.136 0 00.154-.153v-.96a.14.14 0 00-.153-.152h-1.8v-1.638h2.375a.14.14 0 00.152-.153v-.958a.14.14 0 00-.092-.146.14.14 0 00-.06-.008zM106.577 25.664h-1.073c-.9 0-1.378.48-1.378 1.38v3.946c0 .9.479 1.378 1.378 1.378h1.073c.9 0 1.378-.479 1.378-1.378v-3.946c.001-.9-.478-1.38-1.378-1.38zm.172 5.086a.34.34 0 01-.382.383h-.613a.341.341 0 01-.288-.095.345.345 0 01-.096-.288v-3.467a.343.343 0 01.384-.383h.613a.34.34 0 01.284.099.343.343 0 01.098.284v3.467zM101.861 25.664h-1.073c-.9 0-1.389.48-1.389 1.38v3.946c0 .9.489 1.378 1.389 1.378h1.073c.89 0 1.378-.479 1.378-1.378v-1.034a.141.141 0 00-.093-.146.14.14 0 00-.061-.008h-.9a.137.137 0 00-.153.154v.813a.339.339 0 01-.229.369.336.336 0 01-.154.015h-.613a.343.343 0 01-.369-.229.338.338 0 01-.015-.155v-3.476a.339.339 0 01.097-.287.338.338 0 01.287-.096h.613a.339.339 0 01.285.098.353.353 0 01.098.285v.786a.137.137 0 00.153.153h.9a.139.139 0 00.113-.04.14.14 0 00.041-.112v-1.036c.001-.9-.488-1.38-1.378-1.38zM28.38 25.665h-3.524a.139.139 0 00-.145.153v6.398a.138.138 0 00.145.153h3.524c.115 0 .154-.057.154-.153v-.957c0-.106-.039-.153-.154-.153h-2.366v-1.42h1.801a.144.144 0 00.148-.1.145.145 0 00.006-.063v-.948a.146.146 0 00-.091-.153.145.145 0 00-.063-.01h-1.8v-1.475h2.365c.115 0 .154-.066.154-.162v-.957c-.001-.097-.04-.154-.155-.154zM34.545 25.665h-3.523a.138.138 0 00-.139.094.138.138 0 00-.006.06v6.397a.136.136 0 00.037.11.139.139 0 00.108.043h3.524c.115 0 .153-.057.153-.153v-.957c0-.106-.038-.153-.153-.153H32.18v-1.42h1.801a.145.145 0 00.153-.163v-.948a.145.145 0 00-.153-.163h-1.8v-1.475h2.365c.115 0 .153-.066.153-.162v-.957c0-.097-.039-.154-.154-.154zM45.005 22.053a.864.864 0 00-.43-.13l-2.869-.002a.491.491 0 00-.492.495V36.48a.655.655 0 00.485.61c1.222.288 1.834.423 3.061.675a.381.381 0 00.346-.081.434.434 0 00.143-.343l.02-7.022c0-.145.062-.22.186-.221a.31.31 0 01.287.182c1.375 2.52 2.061 3.827 3.434 6.5a.474.474 0 00.35.233.302.302 0 00.33-.136 185.413 185.413 0 003.492-5.96.294.294 0 01.31-.145c.124.024.186.114.185.272l-.03 7.627a.66.66 0 00.295.56c.06.036.127.059.196.068 1.24.145 1.862.207 3.104.314a.403.403 0 00.35-.14.574.574 0 00.145-.4l.052-16.568a.617.617 0 00-.142-.413.439.439 0 00-.348-.169h-2.867a.816.816 0 00-.431.142c-.14.084-.259.197-.35.331a201.971 201.971 0 01-3.99 6.45.282.282 0 01-.269.164.38.38 0 01-.288-.202c-1.573-2.678-2.36-3.98-3.938-6.45a.873.873 0 00-.327-.306zM35.284 15.305a6.629 6.629 0 002.303 1.45 8.944 8.944 0 005.974 0 6.627 6.627 0 002.304-1.45 6.282 6.282 0 001.47-2.261c.353-.942.527-1.94.514-2.946V.848a.53.53 0 00-.16-.388.523.523 0 00-.387-.16h-3.43a.524.524 0 00-.387.16.532.532 0 00-.159.388v9.25c.018.506-.08 1.01-.287 1.473a2.638 2.638 0 01-.7.914 2.512 2.512 0 01-.894.468 2.843 2.843 0 01-1.743 0 2.624 2.624 0 01-.906-.468 2.579 2.579 0 01-.711-.914 3.332 3.332 0 01-.286-1.473V.848a.534.534 0 00-.16-.388.525.525 0 00-.386-.16h-3.43a.545.545 0 00-.546.548v9.25a7.933 7.933 0 00.524 2.946c.328.85.833 1.621 1.483 2.261zM53.09 14.757a9.139 9.139 0 002.798 1.85c1.083.46 2.25.694 3.426.686a8.909 8.909 0 005.79-2.102 8.12 8.12 0 001.884-2.33c.49-.905.792-1.899.89-2.923a10.063 10.063 0 00.024-2.101.575.575 0 00-.194-.4.593.593 0 00-.4-.148h-7.857a.546.546 0 00-.548.548v2.718a.546.546 0 00.548.548h2.626a.346.346 0 01.32.148.296.296 0 01-.023.331c-.328.483-.8.85-1.347 1.05-.547.212-1.128.32-1.714.322a3.838 3.838 0 01-1.633-.354 4.5 4.5 0 01-1.337-.936 4.358 4.358 0 01-.902-1.36 4.22 4.22 0 010-3.277 4.393 4.393 0 012.238-2.33 3.842 3.842 0 011.634-.354 4 4 0 012.09.526c.606.368 1.143.84 1.587 1.393a.625.625 0 00.388.218.585.585 0 00.411-.08l2.741-1.76a.547.547 0 00.24-.353.535.535 0 00-.057-.423 8.368 8.368 0 00-3.026-2.832A8.908 8.908 0 0059.313.004a8.596 8.596 0 00-3.426.686 9.04 9.04 0 00-2.798 1.862 8.798 8.798 0 00-1.896 2.751 8.439 8.439 0 000 6.716 8.66 8.66 0 001.897 2.738zM14.514 16.95a.69.69 0 00.24.045h3.929a.779.779 0 00.445-.148.85.85 0 00.309-.354l.639-1.37a.846.846 0 01.309-.355.813.813 0 01.467-.148h4.82c.16.003.315.055.445.148.137.09.25.212.331.354l.617 1.37c.08.143.194.265.33.355a.81.81 0 00.468.149h3.906a.51.51 0 00.49-.229.47.47 0 00.035-.434L25.625.803a.85.85 0 00-.308-.355A.783.783 0 0024.87.3h-3.196a.814.814 0 00-.469.148.848.848 0 00-.308.354l-6.623 15.463a.534.534 0 00-.069.32.454.454 0 00.308.365zm7.39-6.715l1.141-2.764c.06-.137.13-.205.206-.205.076 0 .145.069.205.205.183.442.38.918.594 1.427.213.51.396.955.548 1.336a.316.316 0 01.011.354.372.372 0 01-.33.149h-2.033a.369.369 0 01-.343-.149.365.365 0 010-.353zM.549 16.995h11.396a.546.546 0 00.548-.548v-3.106a.547.547 0 00-.548-.548H5.071a.517.517 0 01-.4-.16.548.548 0 01-.148-.389V.825a.547.547 0 00-.549-.548H.55a.52.52 0 00-.4.16A.55.55 0 000 .825v15.622a.55.55 0 00.149.389.519.519 0 00.4.16zM66.516 22.087a.888.888 0 00-.278.384c-1.98 5.533-3.966 11.063-6.015 16.57a.64.64 0 00-.063.339c.01.09.042.176.092.25a.487.487 0 00.186.159.57.57 0 00.218.062c1.425.082 2.138.112 3.565.149a.622.622 0 00.404-.15.869.869 0 00.28-.38c.233-.589.35-.884.58-1.474a.881.881 0 01.281-.38.657.657 0 01.425-.158c1.748.012 2.623.003 4.371-.044.148 0 .291.053.404.15.128.098.231.226.301.372l.562 1.458c.07.146.172.272.301.37.12.096.271.146.425.139a92.127 92.127 0 003.54-.232.485.485 0 00.444-.28.58.58 0 00.03-.462c-2.08-5.465-4.08-10.96-6.07-16.459a.894.894 0 00-.278-.383.629.629 0 00-.402-.16h-2.88a.651.651 0 00-.423.16zm.629 10.615l1.032-3c.055-.148.117-.223.186-.223.07 0 .131.074.186.221.166.478.345.993.539 1.544.193.55.359 1.031.497 1.441a.4.4 0 01.01.384.325.325 0 01-.3.164c-.735.01-1.104.012-1.84.014a.314.314 0 01-.31-.16.464.464 0 010-.384zM82.816 22.029a.888.888 0 00-.433-.128h-3.088a.444.444 0 00-.35.167.6.6 0 00-.142.407l.06 16.36a.547.547 0 00.147.392.404.404 0 00.354.129 92.36 92.36 0 003.087-.389.533.533 0 00.351-.212.648.648 0 00.143-.416l-.033-8.311c0-.155.043-.247.132-.276.089-.03.175.015.258.132 2.158 3.247 3.237 4.792 5.376 7.592a.81.81 0 00.348.237c.135.056.284.07.428.043a91.198 91.198 0 003.009-.664.611.611 0 00.344-.226.605.605 0 00.142-.384V22.395a.493.493 0 00-.494-.494h-3.048a.462.462 0 00-.35.152.52.52 0 00-.143.371l.022 7.804c0 .145-.045.23-.133.254-.088.024-.174-.018-.257-.126-2.143-2.994-3.222-4.623-5.378-8.015a1.013 1.013 0 00-.352-.312zM71.49 16.995h3.42a.53.53 0 00.39-.16.528.528 0 00.162-.388V11.56a.553.553 0 01.147-.389.515.515 0 01.399-.16h4.686a.547.547 0 01.546.549v4.887a.547.547 0 00.149.389.518.518 0 00.4.16h3.425a.545.545 0 00.548-.549V.825a.547.547 0 00-.548-.548h-3.426a.519.519 0 00-.4.16.544.544 0 00-.148.386v5.394a.544.544 0 01-.546.547h-4.686a.516.516 0 01-.399-.16.55.55 0 01-.147-.386V.823A.525.525 0 0075.3.436a.533.533 0 00-.39-.16h-3.42a.524.524 0 00-.402.16.547.547 0 00-.15.389v15.622a.548.548 0 00.15.389.523.523 0 00.401.16zM90.784 16.995h3.431a.546.546 0 00.546-.548V.847A.53.53 0 0094.6.46a.524.524 0 00-.386-.16h-3.431a.514.514 0 00-.398.16.552.552 0 00-.147.388v15.6a.552.552 0 00.147.388.516.516 0 00.398.16z"></path>
    <path fill="#030504" d="M96.07 24.492a1.367 1.367 0 10-.065-2.733 1.367 1.367 0 00.066 2.733zm0-2.46a1.05 1.05 0 011.044 1.094 1.04 1.04 0 01-1.035 1.076 1.086 1.086 0 01-.008-2.17z"></path>
</svg>