<svg version="1.1" id="Calque_1" xmlns="http://www.w3.org/2000/svg" x="0" y="0" viewBox="0 0 153.6 79.9" xml:space="preserve"><style>.st1{fill:#fff}.st3{fill:#272a33}</style><g opacity=".5"><path class="st1" d="M145.8 47.9v-.4c0-.1.1-.2.2-.2h2.6c.1 0 .2.1.2.2v.4c0 .1-.1.2-.2.2h-.9V51c0 .1-.1.2-.2.2h-.5c-.1 0-.2-.1-.2-.2v-2.9h-.8c-.1 0-.2-.1-.2-.2zM153.6 47.5V51c0 .1-.1.2-.2.2h-.4c-.1 0-.2-.1-.2-.2v-2.4L152 51c0 .1-.1.1-.1.1h-.4c-.1 0-.1 0-.1-.1l-.9-2.5V51c0 .1-.1.2-.2.2h-.4c-.1 0-.2-.1-.2-.2v-3.5c0-.1.1-.2.2-.2h.8c.1 0 .1 0 .1.1l.9 2.6.9-2.6.1-.1h.7c.1 0 .2.1.2.2z"/></g><linearGradient id="SVGID_1_" gradientUnits="userSpaceOnUse" x1="51.699" y1="55.24" x2="-3.343" y2="-7.341"><stop offset="0" stop-color="#fd5028"/><stop offset=".603" stop-color="#cdaebd"/><stop offset=".715" stop-color="#c4a7b6"/><stop offset=".894" stop-color="#ad94a2"/><stop offset="1" stop-color="#9c8693"/></linearGradient><path d="M1.2 56.5C.5 56.5 0 56 0 55.3V1.2C0 .5.5 0 1.2 0c.1 0 .3 0 .4.1l25.6 9.5c.2.1.4.1.6.1.2 0 .4 0 .6-.1L54.3.1c.2-.1.3-.1.5-.1.7 0 1.2.5 1.2 1.2v24.7c0 16.9-13.7 30.6-30.6 30.6H1.2zM5 49.7c0 1 .8 1.8 1.8 1.8h18.7V36.2c0-.7-.5-1.4-1.2-1.7L5 27.5v22.2zm26.6-15.2c-.7.3-1.2.9-1.2 1.7V51l.4-.1c10.9-2.4 19.2-11.8 20-23v-.5l-19.2 7.1zM6.8 7.4c-1 0-1.8.8-1.8 1.8v12.9l22.4 8.2c.2.1.4.1.6.1s.4 0 .6-.1L51 22.1V9.2c0-1-.8-1.8-1.8-1.8-.2 0-.4 0-.6.1l-20.3 7.4c-.2.1-.3.1-.5.1-.1 0-.3 0-.4-.1l-20-7.4c-.2 0-.4-.1-.6-.1z" fill="url(#SVGID_1_)"/><path class="st3" d="M136.6 74.4V64.2c0-2 2.9-2.6 4.6-2.8-.4.5-.8 1.3-.8 2.8v10.2h-3.8zM135 59.8l-1.4-3.3h3v-2.4c0-2.4 2.4-4.3 5.6-4.3h1.4v3.3h-1.4c-1 0-1.8.8-1.8 1.7v1.6h3.2v3.3H135zM86.9 51.4V37.9c0-1.8-1.8-3-3.6-3s-3.6 1-3.6 3v13.5h-3.9V37.9c0-2-1.8-3-3.6-3-1 0-2.1.4-2.8 1.2.4-2.6 1.7-4.2 3.8-4.5h.4c2 0 3.8 1.2 4.8 3l.3.6.3-.6c.7-1.8 3.3-3 5.2-3 3.8 0 6.5 2.5 6.5 6.1v13.7h-3.8zm-22.1 0V32h3.9v19.4h-3.9zM96.9 56.3l-1.4-3.6h1.7c.6 0 .8-.2 1.1-.8l.6-1.6L91.8 32H96l4.7 13.2 4.7-13.2h4.3l-8.1 21.4c-.7 1.9-1.7 2.9-4.4 2.9h-.3zM84.6 74.5v-18h3.9v18h-3.9zM89.2 61c.5-3.1 2-5 3.5-5 .7 0 1.5.1 2.2.4v3.5c-.4-.1-1.2-.3-2.2-.3-1.5 0-2.7.5-3.5 1.4zM104.9 74.9c-4.3 0-8.9-3-8.9-9.4 0-6.2 4.5-9.4 8.9-9.4s8.9 3.2 8.9 9.4c0 6.4-4.6 9.4-8.9 9.4zm0-15.5c-2.5 0-5 2.1-5 6.1 0 4.2 2.5 6.1 5 6.1s5-1.9 5-6.1c0-4-2.5-6.1-5-6.1zM124.6 74.9c-4.3 0-8.9-3-8.9-9.4 0-6.2 4.5-9.4 8.9-9.4s8.9 3.2 8.9 9.4c0 6.4-4.6 9.4-8.9 9.4zm0-15.5c-2.5 0-5 2.1-5 6.1 0 4.2 2.5 6.1 5 6.1s5-1.9 5-6.1c0-4-2.6-6.1-5-6.1zM74.1 56.1h-.3c-2.2.1-3.8 1.6-4.5 3.1-.5 1-.6 1.6-.6 1.6v-4.3h-3.9v23.4h3.9V65.3c0-3.6 1.9-6 4.7-6 2.9 0 4.7 3.1 4.7 6 0 3-1.7 6-4.7 6-1.6 0-2.9-.8-3.8-2.2.9 4.4 3.3 5.2 4.1 5.3.3.1.7.1 1 .1 4 0 7.2-4.2 7.2-9.3.1-5.2-3.3-9.1-7.8-9.1z"/></svg>