<svg xmlns="http://www.w3.org/2000/svg" width="335" height="239"><path fill-rule="evenodd" fill="#FBF9F7" d="M10.01 227.586s5.098 3.132 6.087 1.074c-2.884.587 4.818-.98 5.408.343 1.974 2.854 4.209 1.664 7.349-.704 1.313 1.771 7.628.15 7.248 1.819 2.048-.33 5.922.108 12.227.063 5.002-.99 7.959-.007 12.094 0 2.292-.111 4.598 2.251 6.886-.034 2.289.825 4.767-1.323 6.357 1.15.618-.497.453 1.133 1.173 1.485 1.741-.404 6.801.026 8.897.445 4.947 1.04 9.895.274 14.842 0 2.45-1.27 4.901-1.221 7.35-.005 3.259.582 6.382 2.402 9.632.539 2.955 2.284 5.323-1.723 7.799-.522 1.345-1.001 2.96 1.838 4.406-1.053 3.008.849 4.897.973 7.558-.731 1.676-1.192 2.075-2.791 4.417-1.207 1.979 1.623 2.975 2.005 4.571-1.082.819-.723 1.391-.73 2.338-.892 2.268.511 7.033.597 9.456.025 3.95 3.06 7.833.284 11.782-.149 3.033 4.166 6.066 1.319 9.099.003 1.499 1.052 3.883-1.031 5.285-.074 1.653 2.637.855 2.299 2.279.996 2.146 1.281 4.229.1 6.908 2.479 2.345.922 4.118 1.086 6.606.646 3.192.037 5.778.057 8.865 1.046 2.586 2.361 4.424-.898 6.334 1.086.924-1.084 1.641-.28 2.596 1.422 2.817 3.6 5.926.446 9.68 2.625 5.385 2.225 10.509-2.317 15.829-.587 2.201-1.243 5.307-.849 7.243-.232 2.545 1.432 4.524-2.267 6.856-3.316 2.461 1.832 4.686.043 7.444-1.109 3.106-1.285 3.814-3.229 5.874-2.765 2.466-3.418 7.251-1.039 10.688-.81 5.074 1.146 9.535-3.14 14.407.508 2.845.11 3.903-2.627 6.466.734 2.796-.257 5.139 1.279 7.281.391 3.619-.939 2.836.068 4.627-.504 1.701-.627 4.182-2.42 5.973-.547 3.342-1.531 9.245-3.697 8.631-3.626.921-.495 1.603-1.365 2.327-2.141 4.597-4.929 5.594-14.196 5.815-13.911V4.626c-.321-2.52-5.154.459-5.21-.536-.991.013-2.603-4.148-3.685-1.204-3.421-1.931-5.811-.603-8.196-.454-3.348-4.452-4.282-1.733-8.279-.101-2.733 4.903-5.141 1.292-6.982.661-1.116.456-2.005-.159-2.08.557-.561-2.278-2.223-5.64-2.437 1.962.169.949.345 1.575.492 1.982-.266-.33-.709-.74-1.414-1.099-.54-1.001-3.25-1.242-3.507.406-3.173.318-4.692 2.342-6.15 2.481-1.381 3.51-2.109-1.509-4.246 1.71-1.87 1.489-2.869 1.596-4.552 1.027-1.049.16-2.023 1.36-3.085.428-1.251.159-1.845 2.467-3.251 1.454-1.54-2.917-2.338 1.463-3.665-.487-1.388-2.335-2.827-1.322-4.258-.257-1.51-2.042-2.757 3.024-4.22-.42-1.346 1.069-2.247 2.425-3.44-1.056-2.59.461-5.532-.2-8.541-3.034-2.666-.264-5.423-3.659-8.184-.126-2.76-2.182-5.525 1.915-8.208.153-3.003 2.014-6.007-.13-9.01 0-3.286-3.303-5.322-5.932-8.094-1.976-2.066-1.822-3.8-5.037-6.386-1.482-1.105-2.877-2.486-.942-3.565-.061-1.97.603-3.452 2.383-5.535 1.239-3.916-4.109-7.954 1.69-11.873-.027-.941-.963-1.914 1.458-2.85-.027-2.05-.51-3.745-1.506-5.692 1.137-1.385.323-2.898.116-4.308.014-2.408.636-4.675.727-7.045.619-3.322-1.042-5.87 2.313-8.899-1.326-2.238-1.317-4.619-3.464-7.152-2.169-1.696-.262-3.147.156-4.825-.233-2.865-1.352-4.953-3.014-7.867-.895-2.648.115-4.898 2.687-7.442-.452-4.033-.221-7.913-3.699-12.128-.703-2.896-.075-5.814 5.393-8.707-.041-3.72-.181-6.861-.081-10.282 2.929-1.498-1.29-2.938-1.297-4.426.543-1.747-2.492-2.495 1.156-4.106 1.646-.609 1.712-1.712-1.452-2.346.236-1.395-1.149-2.638 2.98-4.028.929-2.032-.091-4.375.54-6.441.1-3.207 1.639-6.414-3.155-9.62.001-3.482.409-6.602-.57-10.099.575-1.023 2.189-2.391 1.237-3.255.226-1.011.315-.538 1.727-1.826 1.536-1.521.226-4.284.657-5.808-.033-1.785.068-3.571-.599-5.356 0-1.763-2.404-2.94-1.623-5.827-.021-1.062-.896-3.38.464-3.52.628-1.389-.288-3.513-1.747-3.666-.119-.163.898-2.393-3.41-3.854-2.58-1.867-2.331-2.573.377-3.821-.631-.008-.283-.494-2.382-1.802-.271.612-3.559-.559 1.627-.713-.699-3.366-4.723-4.347-7.011-8.115-4.474C9.272 1.137 8.871 4.599 7 1.46 4.381 3.033 2.784 1.852.511.759.366.651.192.529-.002.402c0 148.721.009 210.062.009 210.062s.818 6.294 3.89 11.129c2.35 3.699 5.416 5.985 6.113 5.993z"/></svg>