<svg fill="#fff" height="512" width="512" xmlns="http://www.w3.org/2000/svg"><path d="M510.512 228.242v-.006C496.549 98.841 386.919 0 256 0 114.509 0 0 114.497 0 256c0 15.831 1.456 31.684 4.328 47.116a7.497 7.497 0 0 0 8.746 6.001 7.5 7.5 0 0 0 6.001-8.745A243.142 243.142 0 0 1 15 256C15 123.112 123.112 15 256 15c123.383 0 226.388 92.366 239.598 214.846l.001.006c.93 8.622 1.401 17.42 1.401 26.148 0 132.888-108.112 241-241 241-103.501 0-195.28-65.836-228.38-163.824a7.5 7.5 0 0 0-14.211 4.801C48.57 442.065 146.06 512 256 512c141.491 0 256-114.497 256-256 0-9.264-.5-18.603-1.488-27.758z"/><path d="M181.819 130.669c3.241 0 6.366.844 9.29 2.509l21.094 12.011a7.5 7.5 0 0 0 7.422-13.036l-21.094-12.011c-5.14-2.927-10.919-4.474-16.712-4.474-18.685 0-33.887 15.203-33.887 33.89V364.26c0 18.687 15.202 33.89 33.887 33.89 5.795 0 11.574-1.547 16.712-4.474l188.545-107.351c10.709-6.097 17.102-17.094 17.102-29.418 0-12.323-6.394-23.32-17.102-29.415L250.04 149.47a7.501 7.501 0 0 0-7.422 13.036l137.037 78.022c5.962 3.395 9.522 9.518 9.522 16.38 0 6.863-3.56 12.987-9.523 16.383L191.108 380.643c-2.922 1.664-6.047 2.508-9.289 2.508-9.083 0-18.887-7.222-18.887-18.89V149.559c.001-11.668 9.804-18.89 18.887-18.89z"/></svg>