<svg xmlns="http://www.w3.org/2000/svg" width="36" height="25"><path data-name="quote up" d="M8.607 8.241h-.064a1.4 1.4 0 1 0-.07 2.793h.076a5.587 5.587 0 1 1-5.737 5.585A20.858 20.858 0 0 1 5.551 6.066 15.8 15.8 0 0 1 8.316 2.44 1.39 1.39 0 0 0 8.437.471 1.414 1.414 0 0 0 6.452.348a18.094 18.094 0 0 0-3.274 4.214A23.826 23.826 0 0 0 0 16.619a8.438 8.438 0 0 0 16.875 0 8.3 8.3 0 0 0-2.417-5.871 8.413 8.413 0 0 0-5.851-2.507zm24.976 2.507a8.413 8.413 0 0 0-5.851-2.507h-.064a1.4 1.4 0 1 0-.07 2.793h.076a5.587 5.587 0 1 1-5.737 5.585 20.858 20.858 0 0 1 2.739-10.553 15.832 15.832 0 0 1 2.765-3.626 1.39 1.39 0 0 0 .121-1.969 1.414 1.414 0 0 0-1.985-.123 18.094 18.094 0 0 0-3.274 4.214 23.826 23.826 0 0 0-3.178 12.057 8.438 8.438 0 0 0 16.875 0 8.3 8.3 0 0 0-2.417-5.871z" fill="#f2674c" fill-rule="evenodd"/></svg>