<svg xmlns="http://www.w3.org/2000/svg" width="460" height="639.97"><path data-name="Shape 6 copy" d="M452.855 9.58c-1.361.03-3.574-9.74-5.06-2.83-4.7-4.53-7.98-1.41-11.255-1.06-4.6-10.45-5.88-4.07-11.367-.24-3.753 11.51-7.06 3.03-9.588 1.55-1.532 1.07-2.753-.37-2.857 1.31-.769-5.35-3.052-13.24-3.346 4.6a46.091 46.091 0 0 0 .675 4.65 7.87 7.87 0 0 0-1.941-2.57c-.741-2.35-4.463-2.92-4.816.95-4.356.74-6.442 5.49-8.444 5.82-1.9 8.24-2.9-3.54-5.83 4.01-2.569 3.5-3.94 3.75-6.252 2.42-1.439.37-2.776 3.18-4.236 1-1.718.37-2.533 5.79-4.464 3.41-2.115-6.85-3.21 3.43-5.033-1.14-1.905-5.48-3.881-3.11-5.846-.61-2.074-4.79-3.787 7.1-5.8-.98-1.848 2.51-3.085 5.69-4.723-2.48-3.557 1.08-7.6-.47-11.728-7.12-3.662-.62-7.447-8.59-11.238-.3-3.79-5.12-7.586 4.5-11.27.36-4.124 4.73-8.249-.3-12.373 0-4.512-7.75-7.308-13.92-11.115-4.63-2.836-4.28-5.218-11.83-8.768-3.48-1.518-6.75-3.413-2.21-4.9-.15-2.7 1.42-4.74 5.6-7.6 2.91-5.376-9.64-10.921 3.97-16.3-.06-1.292-2.26-2.628 3.42-3.913-.06-2.815-1.2-5.142-3.54-7.816 2.66-1.9.76-3.979.28-5.915.04a18.93 18.93 0 0 1-9.674 1.45c-4.56-2.45-8.06 5.43-12.219-3.11-3.074-3.09-6.343-8.13-9.822-5.09-2.329-.61-4.32.37-6.625-.55-3.934-3.17-6.8-7.07-10.8-2.1-3.636.27-6.727 6.31-10.219-1.06-5.539-.52-10.866-8.68-16.653-1.65-3.978-.18-7.985 12.66-11.957-.1-5.108-.42-9.421-.19-14.119 6.88-2.057-3.03-4.033-3.05-6.077 1.27-2.4-5.85-3.426 2.71-5.639 3.86-.835 4.02-2.349-3.4-3.221.56-1.915-2.7-3.622 6.99-5.531 2.18-2.79-.21-6.008 1.27-8.845.23-4.4 3.85-8.806-7.4-13.209.01-4.78.96-9.066-1.34-13.867 1.34-1.4 5.14-3.283 2.91-4.47.54-1.388.74-.739 4.05-2.508 3.6-2.088.53-5.882 1.54-7.974-.08-2.452.16-4.9-1.4-7.356 0-2.42-5.64-4.036-3.81-8-.05-1.459-2.1-4.641 1.09-4.834 1.48-1.906-.68-4.824-4.1-5.033-.28-.225 2.11-3.287-8-5.293-6.06-2.564-5.47-3.533.89-5.246-1.48-.011-.66-.679-5.59-2.475-.63.84-8.36-.768 3.82-.98-1.64C22.469 5.99 21.122.62 15.948 6.58c-3.216-3.93-3.766 4.19-6.335-3.17-3.6 3.69-5.789.92-8.909-1.65-.2-.25-.439-.54-.7-.84v614.29c7.087 2.83 10.245 3.44 9.812-1.24 2.535 1.19 3.675-1.63 4.02-2.88-.032.19-.069.42-.113.71 2.933-2.37 7.029 4.54 8.387-.29-3.96 1.16 6.618-3.19 7.426.81 2.711 6.7 5.88 7.83 10.192 2.28 1.8 4.15 10.374.61 9.852 4.52 2.811-.77 8.131.25 16.789.15 6.868-2.32 10.928-.02 16.608 0 3.146-.26 6.312 5.28 9.454-.08 3.143 1.94 6.546-3.11 8.73 2.7.848-1.17.622 2.66 1.61 3.48 2.391-.94 9.338.06 12.217 1.05 6.794 2.44 13.587.64 20.381 0 3.363-2.98 6.73-2.87 10.092-.01 4.475 1.36 8.764 5.63 13.226 1.26 4.058 5.36 7.31-4.04 10.71-1.22 1.846-2.35 4.063 4.31 6.049-2.48 4.132 2 6.725 2.29 10.379-1.71 2.3-2.8 2.849-6.55 6.065-2.83 2.718 3.81 4.085 4.7 6.277-2.54 1.116-2.08 1.857-4.01 3.2-2.39 3.155.56 9.61.25 12.9 0 5.424 7.18 10.848 1.02 16.272 0 4.164 9.78 8.329 3.1 12.493.01 2.059 2.47 5.333-2.42 7.258-.17 2.27 6.18 1.174 5.39 3.128 2.33 2.948 3.01 5.808.24 9.487 5.82 3.219 2.17 5.655 2.55 9.071 1.52 4.382.08 7.934.13 12.173 2.45 3.55 5.54 6.075-2.1 8.7 2.55 1.27-2.54 2.254-.66 3.565 3.34 3.869 8.45 8.138 1.04 13.292 6.16 7.395 5.22 14.431-5.44 21.736-1.38 3.022-2.92 7.288-1.99 9.946-.54 3.5 3.36 6.213-5.32 9.414-7.79 3.379 4.3 6.435.11 10.222-2.6 4.266-3.01 5.238-7.58 8.065-6.49 3.387-8.02 9.958-2.44 14.677-1.9 6.968 2.69 13.093-7.37 19.782 1.19 3.907.26 5.361-6.16 8.88 1.73 3.839-.61 7.056 3 10 .91 4.97-2.2 3.9.16 6.354-1.18 2.337-1.47 5.743-5.68 8.2-1.28 4.589-3.59 12.789-6.43 12.434-5.2 4.334-1.72 6.622 3.91 8.505 5.79-.017 2.7.774 3.55 2.093 3.69V10.84c-.446-5.92-7.083 1.08-7.159-1.26z" fill="#fff" fill-rule="evenodd"/></svg>