<svg version="1.1" id="Layer_1" xmlns="http://www.w3.org/2000/svg" x="0" y="0" viewBox="0 0 234 69" xml:space="preserve"><style>.st0{fill:#003a70}.st1{fill:#67b2e8}</style><path class="st0" d="M201.4 43.6c-.2.1-.3.1-.4.1-.9-.6-1.8-1.3-2.9-1.3-1.3 0-2.4.5-3.3 1.6-1.1 1.3-1.7 3.2-1.7 5.8v8.7c0 .2-.1.3-.3.3h-2c-.2 0-.3-.1-.3-.3v-18c0-.2.1-.3.3-.3h2c.2 0 .3.1.3.3v2.1h.1c1.2-1.8 2.8-2.7 4.9-2.8 1.7-.1 3.2.6 4.7 1.9.2.1.2.3 0 .4l-1.4 1.5zM172.2 44.5c-1.4 1.4-2.1 3.1-2.1 5.1 0 2 .7 3.7 2.1 5.1 1.4 1.4 3.1 2.1 5.1 2.1 2 0 3.7-.7 5.1-2.1 1.4-1.4 2.1-3.1 2.2-5.1 0-2-.7-3.7-2.1-5.1-1.4-1.4-3.1-2.2-5.1-2.2-2.1 0-3.8.7-5.2 2.2zm12 12c-1.9 1.9-4.2 2.8-6.9 2.8s-5-.9-7-2.8c-1.9-1.9-2.9-4.2-2.9-6.9s1-5 2.9-6.9c2-1.9 4.2-2.9 7-2.9 2.7 0 5 1 6.9 2.9 1.9 1.9 2.9 4.2 2.9 6.9s-1 5-2.9 6.9zM218.2 45.1c-1.3-1.8-3.1-2.7-5.5-2.7-2.5 0-4 1.2-4.8 3.6-.6 1.7-.8 3.4-.5 5.2.5 3.5 2.3 5.6 5.3 5.6 2.5 0 4.4-.9 5.6-2.8v-8.9zm2.6 14.2c0 6-3.1 9.2-8.5 9.2-2.8 0-5.1-1.5-7-3.2-.1-.1-.1-.2 0-.3 0-.1.7-.8.7-.8l.8-.7c.1-.1.3-.1.4 0 1.8 1.6 3.4 2.6 5.1 2.6 3.9 0 5.9-2.1 5.9-6.4v-2.4c-1.5 1.4-3.4 2.1-5.8 2.1-2.7 0-4.8-1-6.3-3-1.3-1.8-2-4-2-6.7 0-2.5.6-4.7 1.9-6.5 1.5-2.1 3.6-3.2 6.4-3.2 2.2 0 4.1.7 5.8 2v-1.3c0-.2.1-.3.3-.3h2c.2 0 .3.1.3.3v18.6z"/><circle class="st0" cx="162" cy="57" r="2.1"/><path class="st1" d="M106.1 49.7c-2.3.2-5 .6-6.4 1.1-1.6.6-2.4 1.6-2.3 2.9.1 1.7 1.8 2.8 3.6 2.9 2 .1 3.7-.5 5-1.8v-5.1zm2.9 8.8c0 .3-.1.4-.3.4h-2.2c-.3 0-.4-.1-.4-.3v-.9c-1.4 1.1-3.1 1.6-5.1 1.6-2.6 0-4.4-.8-5.6-2.5-.6-.8-1-2.2-1-3.2 0-2.5 1.6-4.3 4.8-5.3 1.4-.4 3.6-.8 6.8-1.1.1-1.1-.3-4.6-4.2-4.6-1.7 0-3.3.6-5 1.8-.2.1-.3.1-.5-.1l-1.2-1.7c-.1-.1-.1-.3.1-.5 1.9-1.6 4.3-2.2 6.5-2.2 1.8 0 3.3.4 4.5 1.2 1.8 1.2 2.6 3.2 2.6 5.9v11.5zM126.5 56.6c.2.2.2.3 0 .5-1.6 1.4-3.3 2.2-5.2 2.2-4 0-5.9-2.1-5.9-6.3V42.9H113c-.3 0-.4-.1-.4-.3v-2c0-.3.1-.4.4-.4h2.3v-3.7c0-.3.1-.4.3-.4h2.2c.2 0 .3.1.3.3v3.7h6.3c.2 0 .3.1.3.3v2c0 .3-.1.4-.3.4h-6.3v9.9c0 2.6 1 3.9 3 3.9 1.1 0 2.3-.5 3.3-1.5.1-.1.3-.1.5 0l1.6 1.5zM136.8 42.4c-1.6 0-2.9.5-4 1.6-1.1 1-1.7 2.3-1.9 3.9h11.7c-.1-1.6-.6-2.8-1.7-3.9-1.2-1.1-2.6-1.6-4.1-1.6zm8.8 7.8c0 .2-.1.3-.3.3h-14.4c.1 1.7.7 3.1 1.9 4.2 1.3 1.2 2.9 1.8 4.9 1.8 1.8 0 3.4-.5 4.8-1.5.2-.1.4-.2.5 0l1.5 1.6c.2.2.2.3 0 .5-2 1.6-4.3 2.2-7 2.2-2.8 0-5.2-.9-7.1-2.8-1.8-1.9-2.7-4.2-2.7-7.1 0-2.7.9-5 2.7-6.9 1.7-1.7 3.8-2.6 6.5-2.6 2.5 0 4.7.9 6.3 2.7 1.7 1.8 2.5 4.2 2.5 7l-.1.6zM160.8 43.9c-.2.2-.3.2-.5.1-.8-.6-1.7-1.2-2.6-1.2-1.2 0-2.3.5-3.2 1.5-1.1 1.3-1.6 3.1-1.6 5.6v8.6c0 .3-.1.4-.3.4h-2.2c-.3 0-.4-.1-.4-.3v-18c0-.3.1-.4.4-.4h2.2c.3 0 .4.1.4.3v1.9h.1c1.2-1.7 2.8-2.5 4.7-2.6 1.7-.1 3.2.6 4.7 1.9.2.2.2.3 0 .5l-1.7 1.7zM91 51.6c0 2.2-.7 3.9-2 5.3-1.4 1.5-3.2 2.3-5.4 2.3-2.8 0-4.9-1.1-6.1-3.3-.3.6-.9 1.2-1.6 1.8-1.3 1-2.7 1.5-4.3 1.5-2.3 0-4.2-.8-5.6-2.3-1.3-1.4-2-3.1-2-5.3v-11c0-.3.1-.4.3-.4h2.2c.2 0 .3.1.3.3v10.6c0 2.7 1.9 5.2 4.6 5.2 1.6 0 2.7-.6 3.5-1.7.7-1 1.1-2.3 1.1-3.9V40.6c0-.3.1-.4.3-.4h2.2c.2 0 .3.1.3.3v10.2c0 1.7.4 3 1.1 4 .8 1.1 1.9 1.7 3.5 1.7 2.9 0 4.6-2.5 4.6-5.2V40.6c0-.3.1-.4.4-.4h2.2c.3 0 .4.1.4.3v11.1zM79.1 7.1c-1.9 0-3.9.5-5.7 1.4-3 1.5-5.5 3-7.7 4.3-3.2 1.9-5.9 3.5-8.9 4.5-7-2.2-11.7-4.9-17-8.2-3.3-2-7-4.2-11.8-6.5-3-1.4-6-2.1-9-2.1C8.8.5.5 8.8.5 19.1c0 5 1.9 9.6 5.4 13.2 3.5 3.5 8.2 5.5 13.1 5.5 3 0 6-.7 8.9-2.2 4.6-2.3 8.3-4.4 11.6-6.3 5.5-3.2 10.2-5.9 17.2-8.3 3.7 1.2 6.3 2.8 9.3 4.7 2.1 1.3 4.4 2.7 7.3 4.1 1.8.9 3.8 1.4 5.7 1.4 3.2 0 6.2-1.2 8.4-3.5 2.3-2.3 3.5-5.3 3.5-8.5.1-6.7-5.2-12.1-11.8-12.1zm0 5.7c3.4 0 6.2 2.8 6.2 6.3s-2.8 6.3-6.2 6.3c-1.1 0-2.1-.3-3.2-.8-2.7-1.3-4.8-2.6-6.9-3.9-.9-.6-1.8-1.1-2.8-1.7.8-.4 1.5-.9 2.3-1.3 2.3-1.3 4.6-2.7 7.4-4.1 1.1-.5 2.1-.8 3.2-.8zM37.9 26.3c-3.4 2-6.9 4-11.4 6.2-2.4 1.2-4.9 1.8-7.4 1.8-4 0-7.8-1.6-10.7-4.5-2.9-2.8-4.5-6.6-4.5-10.7 0-8.4 6.8-15.2 15.1-15.2 2.5 0 5 .6 7.4 1.8 4.6 2.2 8.1 4.4 11.5 6.4 4.5 2.7 8.5 5.1 13.8 7.1-5.3 2.1-9.3 4.5-13.8 7.1z"/><path class="st0" d="M232.2 32.9c-.8.8-1.9 1.3-3 1.3-1.2 0-2.2-.4-3-1.3-.8-.8-1.2-1.9-1.2-3 0-1.2.4-2.2 1.3-3 .8-.8 1.8-1.3 3-1.3s2.2.4 3 1.3c.8.8 1.3 1.8 1.3 3-.1 1.1-.5 2.2-1.4 3zm-5.6-5.7c-.7.7-1.1 1.6-1.1 2.6s.4 1.9 1.1 2.6c.7.7 1.6 1.1 2.6 1.1s1.9-.4 2.6-1.1c.7-.7 1.1-1.6 1.1-2.6s-.4-1.9-1.1-2.6c-.7-.7-1.6-1.1-2.6-1.1-1 .1-1.9.4-2.6 1.1zm2.5.3c.6 0 1 .1 1.3.2.5.2.7.6.7 1.2 0 .4-.2.7-.5.9-.2.1-.4.2-.7.2.4.1.6.2.8.5.2.2.3.5.3.7V32.2h-.8V31.5c0-.5-.1-.9-.4-1.1-.2-.1-.5-.2-.9-.2h-.7v1.9h-.8v-4.7h1.7zm.9.7c-.2-.1-.5-.2-1-.2h-.7v1.7h.8c.4 0 .6 0 .8-.1.3-.1.5-.4.5-.7-.1-.3-.2-.6-.4-.7z"/><script/></svg>