<svg width="44" height="44" fill="none" xmlns="http://www.w3.org/2000/svg"><g clip-path="url(#clip0)"><path d="M22 0A22.007 22.007 0 0 0 1.675 13.575 21.982 21.982 0 0 0 6.444 37.54a22.003 22.003 0 0 0 23.975 4.767 21.984 21.984 0 0 0 7.137-35.865A22.008 22.008 0 0 0 22 0zm0 38.65A16.672 16.672 0 0 1 6.601 28.367a16.654 16.654 0 0 1 3.613-18.156 16.67 16.67 0 0 1 28.453 11.78 16.672 16.672 0 0 1-4.886 11.776A16.687 16.687 0 0 1 22 38.651z" fill="#395E5A"/><path d="M19.332 25.204a3.996 3.996 0 0 0 5.336 0v-6.39a3.988 3.988 0 0 0-5.336 0v6.39zM22 10.682a11.315 11.315 0 0 0-8.006 3.32l3.765 3.768a5.998 5.998 0 0 1 8.48 0L30.009 14a11.303 11.303 0 0 0-8.012-3.319H22zm4.244 15.577a5.995 5.995 0 0 1-8.48 0L14 30.017a11.323 11.323 0 0 0 16.017 0l-3.773-3.758zM21.992 44a5.65 5.65 0 0 0-3.895-5.798h-.021A16.69 16.69 0 0 1 5.617 24.68h11.05a5.753 5.753 0 0 1 0-5.333H5.607a16.61 16.61 0 0 1 9.43-12.454 16.628 16.628 0 0 1 15.603.873 5.321 5.321 0 0 0 6.933-1.292A22.002 22.002 0 0 0 17.728.437 22.005 22.005 0 0 0 1.682 13.58a21.982 21.982 0 0 0 9.939 27.819A22.007 22.007 0 0 0 21.99 44z" fill="#30FFE6"/></g><defs><clipPath id="clip0"><path fill="#fff" d="M0 0h44v44H0z"/></clipPath></defs></svg>