<svg width="44" height="44" fill="none" xmlns="http://www.w3.org/2000/svg"><g clip-path="url(#clip0)"><path d="M43.32 4.37c-.537-.657-1.342-1.018-2.267-1.018-.502 0-1.034.105-1.582.314L2.226 17.884C.25 18.638-.017 19.77 0 20.378c.018.607.348 1.723 2.364 2.364l.036.011 7.726 2.21 4.178 11.948c.57 1.629 1.848 2.64 3.337 2.64.94 0 1.863-.393 2.671-1.137l4.778-4.4 6.932 5.581.002.002.066.053.018.014c.77.598 1.611.914 2.433.914 1.605 0 2.883-1.188 3.256-3.026l6.102-30.134c.245-1.209.04-2.291-.579-3.047zM12.71 24.545l14.905-7.615-9.28 9.862c-.153.162-.26.36-.314.574l-1.79 7.25-3.52-10.071zm5.855 11.974a2.398 2.398 0 0 1-.186.154l1.66-6.725 3.02 2.432-4.494 4.139zM41.372 6.907L35.27 37.04c-.059.288-.247.96-.729.96-.238 0-.538-.13-.844-.366l-7.854-6.324a.015.015 0 0 0-.004-.003l-4.673-3.763 13.421-14.261a1.289 1.289 0 0 0-1.525-2.032L10.988 22.53l-7.831-2.24L40.391 6.074a1.89 1.89 0 0 1 .662-.145c.08 0 .22.01.272.073.068.084.155.369.047.904z" fill="url(#paint0_linear)"/></g><defs><linearGradient id="paint0_linear" x1="22" y1="3.352" x2="22" y2="40.578" gradientUnits="userSpaceOnUse"><stop stop-color="#30FFE6"/></linearGradient><clipPath id="clip0"><path fill="#fff" d="M0 0h44v44H0z"/></clipPath></defs></svg>