<svg width="44" height="44" fill="none" xmlns="http://www.w3.org/2000/svg"><g clip-path="url(#clip0)"><path d="M42.451 25.47c1.313-11.05-.63-18.025-4.136-21.18l.002-.002C32.659-1.1 13.552-1.898 6.783 4.53c-3.04 3.144-4.11 7.759-4.227 13.471-.118 5.715-.257 16.42 9.718 19.324h.01l-.01 4.434s-.067 1.797 1.08 2.158c1.313.426 1.907-.409 5.99-5.285 6.827.592 12.07-.765 12.666-.963 1.379-.462 9.18-1.494 10.441-12.199zM20.017 35.511s-4.322 5.389-5.665 6.787c-.44.455-.923.413-.915-.489 0-.592.033-7.363.033-7.363C5.012 32.023 5.51 22.907 5.603 18.14c.091-4.77.964-8.677 3.538-11.308 5.938-5.568 22.69-4.323 26.958-.312 5.217 4.626 3.36 17.694 3.371 18.14-1.072 8.935-7.394 9.501-8.556 9.888-.497.165-5.108 1.351-10.898.965z" fill="url(#paint0_linear)"/><path d="M22.407 7.878c-.706 0-.706 1.1 0 1.11 5.476.041 9.986 3.858 10.036 10.86 0 .739 1.081.73 1.072-.01h-.002c-.058-7.544-4.983-11.918-11.106-11.96z" fill="url(#paint1_linear)"/><path d="M29.61 18.687c-.016.73 1.064.765 1.073.026.09-4.16-2.475-7.586-7.295-7.948-.706-.05-.78 1.058-.075 1.11 4.18.317 6.382 3.17 6.297 6.812z" fill="url(#paint2_linear)"/><path d="M28.455 23.419c-.906-.524-1.828-.198-2.21.317l-.797 1.032c-.405.524-1.162.455-1.162.455-5.526-1.461-7.003-7.244-7.003-7.244s-.068-.782.438-1.202l.997-.825c.499-.396.814-1.35.306-2.287-1.356-2.45-2.268-3.296-2.731-3.945-.488-.61-1.221-.748-1.984-.335h-.016c-1.586.927-3.322 2.664-2.767 4.451.948 1.885 2.69 7.893 8.24 12.432 2.61 2.147 6.738 4.347 8.491 4.854l.016.026c1.727.576 3.407-1.228 4.303-2.862v-.013c.398-.79.266-1.538-.315-2.027-1.03-1.005-2.585-2.114-3.806-2.827z" fill="url(#paint3_linear)"/><path d="M24.143 14.857c1.762.103 2.616 1.023 2.708 2.914.033.738 1.106.687 1.073-.052-.118-2.467-1.405-3.842-3.722-3.97-.706-.043-.772 1.066-.059 1.108z" fill="url(#paint4_linear)"/></g><defs><linearGradient id="paint0_linear" x1="22.696" y1="-.024" x2="22.696" y2="44.014" gradientUnits="userSpaceOnUse"><stop stop-color="#30FFE6"/></linearGradient><linearGradient id="paint1_linear" x1="27.697" y1="7.878" x2="27.697" y2="20.397" gradientUnits="userSpaceOnUse"><stop stop-color="#30FFE6"/></linearGradient><linearGradient id="paint2_linear" x1="26.753" y1="10.764" x2="26.753" y2="19.251" gradientUnits="userSpaceOnUse"><stop stop-color="#30FFE6"/></linearGradient><linearGradient id="paint3_linear" x1="22.113" y1="9.148" x2="22.113" y2="31.258" gradientUnits="userSpaceOnUse"><stop stop-color="#30FFE6"/></linearGradient><linearGradient id="paint4_linear" x1="25.782" y1="13.747" x2="25.782" y2="18.3" gradientUnits="userSpaceOnUse"><stop stop-color="#30FFE6"/></linearGradient><clipPath id="clip0"><path fill="#fff" d="M0 0h44v44H0z"/></clipPath></defs></svg>