<svg width="44" height="44" fill="none" xmlns="http://www.w3.org/2000/svg"><path fill-rule="evenodd" clip-rule="evenodd" d="M36.591 7.348a20.308 20.308 0 0 0-14.459-5.994c-11.267 0-20.436 9.169-20.44 20.439-.002 3.602.94 7.119 2.728 10.218l-2.9 10.592 10.836-2.842a20.419 20.419 0 0 0 9.768 2.488h.008c11.266 0 20.436-9.17 20.44-20.44a20.315 20.315 0 0 0-5.98-14.46zM22.132 38.797h-.007a16.969 16.969 0 0 1-8.647-2.368l-.62-.369-6.43 1.687 1.716-6.269-.404-.643a16.947 16.947 0 0 1-2.597-9.041c.003-9.367 7.625-16.988 16.996-16.988A16.873 16.873 0 0 1 34.15 9.788a16.889 16.889 0 0 1 4.972 12.02c-.004 9.367-7.625 16.989-16.99 16.989zm9.32-12.724c-.511-.256-3.023-1.491-3.49-1.662-.469-.17-.81-.255-1.15.256-.34.511-1.319 1.662-1.617 2.002-.298.341-.596.384-1.107.128-.51-.255-2.156-.795-4.107-2.535-1.518-1.354-2.543-3.027-2.841-3.538-.298-.511-.003-.761.224-1.042.553-.687 1.106-1.406 1.277-1.747.17-.341.085-.64-.043-.895s-1.149-2.77-1.575-3.792c-.414-.996-.835-.861-1.149-.877a20.354 20.354 0 0 0-.979-.018c-.34 0-.893.128-1.362.64-.468.51-1.787 1.746-1.787 4.26s1.83 4.942 2.085 5.283c.256.341 3.602 5.5 8.725 7.712a29.2 29.2 0 0 0 2.912 1.076c1.224.389 2.337.334 3.217.203.981-.147 3.021-1.236 3.447-2.429.426-1.193.426-2.215.298-2.429-.128-.213-.468-.34-.979-.596z" fill="url(#paint0_linear)"/><defs><linearGradient id="paint0_linear" x1="22.046" y1="1.354" x2="22.046" y2="42.603" gradientUnits="userSpaceOnUse"><stop stop-color="#30FFE6"/></linearGradient></defs></svg>