<svg width="58" height="33" viewBox="0 0 58 33" fill="none" xmlns="http://www.w3.org/2000/svg">
<path fill-rule="evenodd" clip-rule="evenodd" d="M49.243 21.8435C49.163 22.4845 49.058 23.0995 48.928 23.6895C48.381 23.5115 47.748 23.2255 46.857 23.2845C46.324 23.3205 45.694 23.5245 45.686 24.0045C45.676 24.5365 46.55 24.8535 47.036 25.0855C47.914 25.5055 48.855 26.0655 48.928 27.2025C48.984 28.0775 48.578 28.8385 48.118 29.2745C46.89 30.4345 44.167 30.5565 42.308 29.8145C42.424 29.1945 42.529 28.5645 42.624 27.9235C43.344 28.2295 44.331 28.6425 45.416 28.5085C45.909 28.4475 46.514 28.1595 46.496 27.6535C46.475 27.0355 45.321 26.6675 44.74 26.3475C44.065 25.9745 43.296 25.3555 43.254 24.4105C43.226 23.7805 43.471 23.1905 43.794 22.7895C44.754 21.5965 47.219 21.1725 49.243 21.8435ZM27.172 9.78354H29.655L28.126 19.4175H25.643L27.172 9.78354ZM20.748 11.6985L20.364 14.1165H21.082C21.78 14.1165 22.44 13.5725 22.55 12.9065C22.66 12.2425 22.178 11.6985 21.48 11.6985H20.748ZM18.568 9.78254H22.371C24.789 9.78254 25.417 11.1755 25.153 12.8385C24.933 14.2285 23.935 15.1555 22.638 15.4855L25.046 19.4175H21.93L20.124 15.6345L19.524 19.4175H17.04L18.568 9.78254ZM38.511 9.78354H40.994L39.466 19.4175H36.983L38.511 9.78354ZM42.881 9.78254H48.332L48 11.8775H45.032L44.77 13.5245H47.592L47.26 15.6185H44.438L44.168 17.3225H47.136L46.804 19.4175H41.352L42.881 9.78254ZM11.641 9.78254H17.092L16.76 11.8775H13.791L13.53 13.5245H16.352L16.02 15.6185H13.198L12.927 17.3225H15.896L15.564 19.4175H10.112L11.641 9.78254ZM31.535 9.78254H37.048L36.716 11.8775H33.686L33.421 13.5245H36.177L35.844 15.6185H33.088L32.485 19.4175H30.006L31.535 9.78254ZM51.944 11.8775H52.457C54.355 11.8775 55.097 13.2165 54.893 14.5075C54.617 16.2405 53.372 17.3225 51.744 17.3225H51.08L51.944 11.8775ZM49.794 9.78254H53.029C56.885 9.78254 57.763 12.6985 57.461 14.6025C57.029 17.3225 54.604 19.4175 51.501 19.4175H48.265L49.794 9.78254ZM0 8.47054H4.593L5.139 15.4705C8.179 10.2095 11.267 5.14754 14.379 0.175537H15.877C12.583 6.52754 9.33 12.9215 6.18 19.4175H2.808L1.986 11.6975C1.782 9.78254 1.396 8.97054 0 8.76454V8.47154" fill="#275023"/>
<path fill-rule="evenodd" clip-rule="evenodd" d="M1.73828 4.48955L5.65528 6.14955L5.99528 10.5106H6.28428L9.83928 4.49255V4.19055H1.73828V4.48955ZM17.8393 21.6836H19.4463L18.9043 25.4806C19.3643 25.0376 19.9243 24.7636 20.5523 24.7636C21.8423 24.7636 22.6873 26.0066 22.4593 27.5396C22.2313 29.0736 21.0153 30.3176 19.7263 30.3176C19.0903 30.3176 18.6353 30.0306 18.3243 29.5486L18.2383 30.1516H16.6313L17.8393 21.6836ZM19.8443 26.3196C20.4383 26.3196 20.8423 26.8636 20.7453 27.5346C20.6493 28.2046 20.0903 28.7486 19.4973 28.7486C18.9033 28.7486 18.4993 28.2046 18.5953 27.5346C18.6913 26.8636 19.2513 26.3196 19.8453 26.3196H19.8443Z" fill="#275023"/>
<path fill-rule="evenodd" clip-rule="evenodd" d="M22.5969 24.8935H24.5249L25.3879 27.5845L27.0629 24.8935H28.9269L24.0359 32.7495H22.1719L24.2349 29.4365L22.5969 24.8935ZM38.5099 30.1485L39.9219 21.6815H42.2329L40.8209 30.1485H38.5099ZM36.5779 21.6625C35.7809 23.5385 35.1019 25.5315 34.2809 27.3825L34.0409 26.2725L34.0369 26.2585L34.0769 26.4565C33.8989 25.8715 33.5969 25.3205 33.2089 24.8145L33.1779 24.7755C33.1099 24.6885 33.0379 24.6045 32.9649 24.5195L32.8299 24.3665C32.2699 23.7545 31.5919 23.2265 30.8759 22.8065L32.9299 30.1295H35.4069C36.5729 27.2725 37.8309 24.5085 39.0099 21.6635L36.5779 21.6625Z" fill="#275023"/>
<path fill-rule="evenodd" clip-rule="evenodd" d="M32.2184 21.6645H28.4414V21.8495C30.6164 22.2735 33.3614 24.0975 34.0814 26.4565L33.2704 22.5125C33.1594 21.9045 32.7354 21.6645 32.2204 21.6645M53.5284 24.0095L52.3514 27.1575H54.2544L53.5284 24.0095ZM57.0354 30.1745H54.9184C54.7824 29.7715 54.7434 29.2695 54.6034 28.8685H51.7214L51.1814 30.1745H48.7494L51.9014 22.9245C52.0414 22.6065 52.2914 22.1725 52.3974 21.9785C52.5574 21.6855 53.1774 21.6635 53.4404 21.6635H55.1894L57.0354 30.1745Z" fill="#275023"/>
</svg>
