<svg width="106" height="33" viewBox="0 0 106 33" fill="none" xmlns="http://www.w3.org/2000/svg">
<path d="M52.2196 14.6685C52.4996 14.8485 52.9046 14.9885 53.3396 14.9885C53.9866 14.9885 54.3606 14.6535 54.3606 14.1545C54.3606 13.7045 54.1006 13.4365 53.4426 13.1895C52.6446 12.8995 52.1526 12.4795 52.1526 11.7985C52.1526 11.0385 52.7836 10.4715 53.7306 10.4715C54.2246 10.4715 54.5926 10.5865 54.8046 10.7105L54.6296 11.2255C54.4796 11.1305 54.1536 10.9955 53.7126 10.9955C53.0446 10.9955 52.7906 11.3915 52.7906 11.7255C52.7906 12.1815 53.0876 12.4075 53.7626 12.6685C54.5876 12.9955 54.9996 13.3845 54.9996 14.1035C54.9996 14.8565 54.4506 15.5165 53.2976 15.5165C52.8256 15.5165 52.3116 15.3705 52.0506 15.1995L52.2196 14.6685ZM58.1156 13.3355C58.1236 12.9355 57.9506 12.2975 57.2426 12.2975C56.5886 12.2975 56.3096 12.8925 56.2626 13.3345L58.1156 13.3355ZM56.2546 13.7915C56.2696 14.6535 56.8106 15.0075 57.4486 15.0075C57.9066 15.0075 58.1886 14.9305 58.4246 14.8335L58.5366 15.2835C58.3136 15.3855 57.9216 15.5095 57.3636 15.5095C56.2916 15.5095 55.6376 14.7915 55.6376 13.7405C55.6376 12.6765 56.2696 11.8405 57.2916 11.8405C58.4356 11.8405 58.7356 12.8485 58.7356 13.4935C58.7356 13.6245 58.7256 13.7265 58.7136 13.7975L56.2546 13.7915ZM62.0236 15.3135C61.8556 15.3915 61.4856 15.5155 61.0156 15.5155C59.9566 15.5155 59.2686 14.7975 59.2686 13.7185C59.2686 12.6375 60.0086 11.8485 61.1546 11.8485C61.5306 11.8485 61.8646 11.9415 62.0346 12.0375L61.8916 12.5235C61.7406 12.4415 61.5036 12.3555 61.1546 12.3555C60.3486 12.3555 59.9116 12.9555 59.9116 13.6895C59.9116 14.5005 60.4366 15.0035 61.1336 15.0035C61.4936 15.0035 61.7336 14.9135 61.9136 14.8335L62.0236 15.3135ZM65.7046 14.4785C65.7046 14.8415 65.7146 15.1615 65.7346 15.4365H65.1666L65.1346 14.8635H65.1186C64.9596 15.1465 64.5806 15.5165 63.9576 15.5165C63.4076 15.5165 62.7476 15.2035 62.7476 13.9785V11.9275H63.3856V13.8625C63.3856 14.5305 63.5956 14.9865 64.1686 14.9865C64.5966 14.9865 64.8936 14.6895 65.0106 14.3985C65.0466 14.3135 65.0686 14.1985 65.0686 14.0725V11.9275H65.7046V14.4785ZM66.7726 13.0215C66.7726 12.6085 66.7666 12.2545 66.7426 11.9275H67.3006L67.3306 12.6185H67.3526C67.5126 12.1475 67.9026 11.8485 68.3286 11.8485C68.3946 11.8485 68.4466 11.8555 68.5046 11.8685V12.4655C68.4326 12.4575 68.3666 12.4485 68.2796 12.4485C67.8296 12.4485 67.5116 12.7905 67.4256 13.2625C67.4096 13.3565 67.4016 13.4585 67.4016 13.5675V15.4365H66.7666L66.7726 13.0215ZM70.2806 15.4355H69.2256V11.9285H70.2806V15.4355ZM69.7286 11.2835C69.3316 11.2835 69.0666 11.0945 69.0666 10.8685C69.0666 10.6445 69.3446 10.4645 69.7536 10.4645C70.1606 10.4645 70.4276 10.6445 70.4276 10.8685C70.4276 11.0945 70.1606 11.2835 69.7456 11.2835H69.7286ZM71.6256 11.0885V11.9295H72.5386V12.4145H71.6256V14.3075C71.6256 14.7415 71.7516 14.9875 72.1056 14.9875C72.2776 14.9875 72.3806 14.9735 72.4756 14.9435L72.5026 15.4295C72.3806 15.4725 72.1846 15.5175 71.9386 15.5175C71.6406 15.5175 71.4026 15.4155 71.2516 15.2485C71.0756 15.0525 71.0036 14.7415 71.0036 14.3265V12.4155H70.4606V11.9305H71.0036V11.2845L71.6256 11.0885ZM73.5546 11.9275L74.3146 14.0005C74.4046 14.2335 74.4886 14.5095 74.5466 14.7185H74.5626C74.6266 14.5085 74.7006 14.2405 74.7856 13.9885L75.4826 11.9275H76.1576L75.1986 14.4275C74.7426 15.6315 74.4306 16.2495 73.9966 16.6315C73.6786 16.9005 73.3736 17.0085 73.2136 17.0385L73.0546 16.5025C73.2136 16.4595 73.4246 16.3565 73.6126 16.1895C73.7866 16.0515 73.9966 15.8055 74.1486 15.4795C74.1776 15.4135 74.1986 15.3705 74.1986 15.3275C74.1986 15.2895 74.1856 15.2375 74.1486 15.1675L72.8586 11.9275H73.5546ZM52.2196 21.9155C52.4996 22.0975 52.9046 22.2355 53.3396 22.2355C53.9866 22.2355 54.3606 21.9005 54.3606 21.3995C54.3606 20.9515 54.1006 20.6845 53.4426 20.4375C52.6446 20.1485 52.1526 19.7265 52.1526 19.0445C52.1526 18.2845 52.7836 17.7195 53.7306 17.7195C54.2246 17.7195 54.5926 17.8355 54.8046 17.9595L54.6296 18.4735C54.4796 18.3795 54.1536 18.2425 53.7126 18.2425C53.0446 18.2425 52.7906 18.6405 52.7906 18.9725C52.7906 19.4295 53.0876 19.6535 53.7626 19.9145C54.5876 20.2425 54.9996 20.6335 54.9996 21.3515C54.9996 22.1055 54.4506 22.7635 53.2976 22.7635C52.8256 22.7635 52.3116 22.6195 52.0506 22.4435L52.2196 21.9155ZM56.5886 18.3355V19.1755H57.5016V19.6625H56.5886V21.5535C56.5886 21.9895 56.7136 22.2355 57.0676 22.2355C57.2426 22.2355 57.3456 22.2205 57.4376 22.1915L57.4676 22.6775C57.3456 22.7235 57.1476 22.7645 56.9006 22.7645C56.6036 22.7645 56.3656 22.6645 56.2126 22.4975C56.0396 22.3025 55.9646 21.9895 55.9646 21.5775V19.6625H55.4216V19.1755H55.9646V18.5315L56.5886 18.3355ZM60.0686 20.8955C59.3716 20.8805 58.5826 21.0045 58.5826 21.6845C58.5826 22.1065 58.8576 22.2925 59.1756 22.2925C59.6396 22.2925 59.9376 22.0035 60.0396 21.7065C60.0616 21.6415 60.0696 21.5695 60.0696 21.5035V20.8965L60.0686 20.8955ZM60.6906 21.8455C60.6906 22.1495 60.7066 22.4455 60.7406 22.6855H60.1706L60.1106 22.2455H60.0906C59.9026 22.5175 59.5206 22.7635 59.0166 22.7635C58.3066 22.7635 57.9446 22.2635 57.9446 21.7575C57.9446 20.9095 58.6976 20.4455 60.0536 20.4515V20.3795C60.0536 20.0915 59.9726 19.5615 59.2566 19.5695C58.9236 19.5695 58.5826 19.6625 58.3346 19.8295L58.1896 19.3995C58.4816 19.2195 58.9086 19.0995 59.3506 19.0995C60.4316 19.0995 60.6906 19.8295 60.6906 20.5315V21.8455ZM61.7136 20.1255C61.7136 19.7555 61.7086 19.4685 61.6836 19.1765H62.2496L62.2886 19.7495H62.3006C62.4746 19.4235 62.8806 19.0995 63.4606 19.0995C63.9476 19.0995 64.6996 19.3875 64.6996 20.5895V22.6845H64.0636V20.6625C64.0636 20.0985 63.8496 19.6195 63.2496 19.6195C62.8376 19.6195 62.5116 19.9155 62.3946 20.2705C62.3676 20.3525 62.3526 20.4685 62.3526 20.5695V22.6845H61.7126V20.1245M68.1286 20.6035C68.1286 20.5165 68.1226 20.4165 68.0986 20.3285C68.0056 19.9315 67.6586 19.5965 67.1786 19.5965C66.5176 19.5965 66.1266 20.1765 66.1266 20.9465C66.1266 21.6625 66.4826 22.2495 67.1666 22.2495C67.5916 22.2495 67.9826 21.9595 68.0986 21.4895C68.1226 21.4005 68.1286 21.3155 68.1286 21.2135V20.6035ZM68.7686 17.5375V21.7795C68.7686 22.0915 68.7726 22.4445 68.7936 22.6835H68.2226L68.1926 22.0755H68.1766C67.9826 22.4675 67.5626 22.7635 66.9896 22.7635C66.1416 22.7635 65.4826 22.0465 65.4826 20.9805C65.4746 19.8075 66.2076 19.0975 67.0556 19.0975C67.5966 19.0975 67.9606 19.3495 68.1126 19.6275H68.1286V17.5375H68.7686ZM71.6756 20.8955C70.9786 20.8805 70.1856 21.0045 70.1856 21.6845C70.1856 22.1065 70.4626 22.2925 70.7826 22.2925C71.2456 22.2925 71.5406 22.0035 71.6446 21.7065C71.6646 21.6415 71.6746 21.5695 71.6746 21.5035V20.8965L71.6756 20.8955ZM72.2976 21.8455C72.2976 22.1495 72.3106 22.4455 72.3496 22.6855H71.7766L71.7166 22.2455H71.6966C71.5066 22.5175 71.1216 22.7635 70.6236 22.7635C69.9106 22.7635 69.5486 22.2635 69.5486 21.7575C69.5486 20.9095 70.3026 20.4455 71.6586 20.4515V20.3795C71.6586 20.0915 71.5786 19.5615 70.8616 19.5695C70.5286 19.5695 70.1866 19.6625 69.9416 19.8295L69.7946 19.3995C70.0866 19.2195 70.5166 19.0995 70.9546 19.0995C72.0366 19.0995 72.2976 19.8295 72.2976 20.5315V21.8455ZM73.3256 20.2705C73.3256 19.8575 73.3156 19.5025 73.2976 19.1755H73.8566L73.8826 19.8655H73.9056C74.0656 19.3935 74.4556 19.0985 74.8856 19.0985C74.9486 19.0985 75.0006 19.1035 75.0596 19.1175V19.7135C74.9856 19.7055 74.9236 19.6985 74.8326 19.6985C74.3856 19.6985 74.0646 20.0395 73.9786 20.5095C73.9636 20.6035 73.9566 20.7065 73.9566 20.8145V22.6845H73.3166L73.3256 20.2705ZM78.0386 20.6035C78.0386 20.5165 78.0326 20.4165 78.0116 20.3285C77.9146 19.9315 77.5676 19.5965 77.0906 19.5965C76.4276 19.5965 76.0406 20.1765 76.0406 20.9465C76.0406 21.6625 76.3916 22.2495 77.0736 22.2495C77.5036 22.2495 77.8946 21.9595 78.0116 21.4895C78.0316 21.4005 78.0386 21.3155 78.0386 21.2135V20.6035ZM78.6756 17.5375V21.7795C78.6756 22.0915 78.6826 22.4445 78.7056 22.6835H78.1326L78.1026 22.0755H78.0906C77.8946 22.4675 77.4726 22.7635 76.8986 22.7635C76.0506 22.7635 75.3946 22.0465 75.3946 20.9805C75.3866 19.8075 76.1186 19.0975 76.9646 19.0975C77.5076 19.0975 77.8736 19.3495 78.0246 19.6275H78.0386V17.5375H78.6756ZM79.6486 22.0405C79.8436 22.1565 80.1766 22.2865 80.4946 22.2865C80.9526 22.2865 81.1676 22.0605 81.1676 21.7645C81.1676 21.4595 80.9876 21.2925 80.5246 21.1195C79.8876 20.8875 79.5896 20.5455 79.5896 20.1255C79.5896 19.5615 80.0556 19.0975 80.7986 19.0975C81.1556 19.0975 81.4656 19.1895 81.6566 19.3145L81.5036 19.7725C81.3646 19.6905 81.1136 19.5675 80.7836 19.5675C80.4096 19.5675 80.2046 19.7855 80.2046 20.0465C80.2046 20.3425 80.4096 20.4745 80.8646 20.6465C81.4656 20.8715 81.7856 21.1765 81.7856 21.7055C81.7856 22.3285 81.3016 22.7635 80.4826 22.7635C80.0976 22.7635 79.7406 22.6635 79.4926 22.5175L79.6486 22.0405ZM87.5706 22.5335C87.3456 22.6495 86.8756 22.7635 86.2806 22.7635C84.9026 22.7635 83.8736 21.8935 83.8736 20.2855C83.8736 18.7485 84.9106 17.7195 86.4256 17.7195C87.0256 17.7195 87.4156 17.8495 87.5836 17.9375L87.4236 18.4525C87.1926 18.3365 86.8526 18.2475 86.4486 18.2475C85.3016 18.2475 84.5416 18.9805 84.5416 20.2635C84.5416 21.4675 85.2276 22.2285 86.4086 22.2285C86.8026 22.2285 87.1926 22.1485 87.4506 22.0255L87.5706 22.5335ZM89.7016 22.2865C90.3116 22.2865 90.7676 21.7135 90.7676 20.9165C90.7676 20.3225 90.4706 19.5765 89.7156 19.5765C88.9676 19.5765 88.6416 20.2705 88.6416 20.9385C88.6416 21.7075 89.0796 22.2865 89.6946 22.2865H89.7016ZM89.6816 22.7645C88.7376 22.7645 87.9976 22.0685 87.9976 20.9605C87.9976 19.7855 88.7736 19.0985 89.7376 19.0985C90.7446 19.0985 91.4236 19.8285 91.4236 20.8965C91.4236 22.2005 90.5196 22.7645 89.6876 22.7645H89.6816ZM95.1676 21.7285C95.1676 22.0915 95.1726 22.4105 95.1946 22.6835H94.6316L94.5936 22.1115H94.5816C94.4206 22.3935 94.0436 22.7635 93.4176 22.7635C92.8696 22.7635 92.2086 22.4535 92.2086 21.2265V19.1755H92.8486V21.1115C92.8486 21.7795 93.0566 22.2345 93.6316 22.2345C94.0566 22.2345 94.3546 21.9385 94.4716 21.6485C94.5096 21.5605 94.5286 21.4455 94.5286 21.3235V19.1755H95.1676V21.7285ZM96.2246 20.1255C96.2246 19.7555 96.2176 19.4685 96.1976 19.1765H96.7596L96.7986 19.7495H96.8126C96.9866 19.4235 97.3926 19.0995 97.9726 19.0995C98.4586 19.0995 99.2106 19.3875 99.2106 20.5895V22.6845H98.5756V20.6625C98.5756 20.0985 98.3636 19.6195 97.7606 19.6195C97.3506 19.6195 97.0206 19.9155 96.9046 20.2705C96.8786 20.3525 96.8636 20.4685 96.8636 20.5695V22.6845H96.2236V20.1245M102.75 22.5625C102.583 22.6425 102.216 22.7645 101.743 22.7645C100.685 22.7645 99.9946 22.0485 99.9946 20.9675C99.9946 19.8895 100.733 19.0985 101.884 19.0985C102.256 19.0985 102.592 19.1895 102.764 19.2835L102.62 19.7735C102.466 19.6925 102.227 19.6045 101.884 19.6045C101.074 19.6045 100.64 20.2065 100.64 20.9395C100.64 21.7495 101.162 22.2505 101.859 22.2505C102.22 22.2505 102.461 22.1635 102.641 22.0845L102.75 22.5625ZM104.619 22.6835H103.556V19.1755H104.619V22.6835ZM104.066 18.5315C103.666 18.5315 103.402 18.3425 103.402 18.1185C103.402 17.8915 103.68 17.7115 104.089 17.7115C104.499 17.7115 104.763 17.8915 104.763 18.1185C104.763 18.3425 104.498 18.5315 104.074 18.5315H104.066ZM105.192 22.6835H105.83V17.5375H105.192V22.6835ZM48.9776 20.3525L11.4596 32.1475L0.515625 2.38754L39.9016 0.175537L48.9776 20.3525Z" fill="#275023"/>
<path d="M15.9281 14.4405C15.9281 13.3305 15.1061 12.7755 13.4651 12.7755H12.8681V16.2005H13.4181C14.2291 16.2005 14.8511 16.0585 15.2831 15.7755C15.7141 15.4895 15.9281 15.0455 15.9281 14.4405ZM20.6121 14.3865C20.6121 15.1395 20.4461 15.8015 20.1081 16.3765C19.7761 16.9525 19.3061 17.4295 18.7011 17.8105C18.0941 18.1955 17.3671 18.4825 16.5131 18.6735C15.6611 18.8635 14.7171 18.9595 13.6801 18.9595H12.9161V22.7925H8.03906V10.0155H13.7521C15.8881 10.0155 17.5671 10.3775 18.7821 11.0985C20.0031 11.8195 20.6121 12.9175 20.6121 14.3855M32.6661 22.7825C31.9161 22.9255 31.0671 22.9975 30.1161 22.9975C28.7671 22.9975 27.5641 22.8425 26.5031 22.5335C25.4481 22.2265 24.5521 21.7885 23.8181 21.2195C23.0841 20.6495 22.5261 19.9595 22.1431 19.1465C21.7611 18.3285 21.5701 17.4225 21.5701 16.4235C21.5701 15.4345 21.7731 14.5335 22.1801 13.7185C22.5891 12.9035 23.1641 12.2075 23.9061 11.6265C24.6461 11.0465 25.5301 10.5985 26.5561 10.2825C27.5791 9.96954 28.7091 9.81054 29.9401 9.81054C30.8901 9.81054 31.7711 9.83854 32.5421 10.0055C33.3171 10.1745 33.3321 10.1975 33.9491 10.4205L33.9401 13.8485C33.4601 13.5765 32.9151 13.3525 32.3161 13.1725C31.7181 12.9945 31.0761 12.9025 30.3931 12.9025C29.2911 12.9025 28.3971 13.2065 27.7031 13.8095C27.0131 14.4175 26.6681 15.2795 26.6681 16.4035C26.6681 16.9855 26.7761 17.4935 26.9911 17.9315C27.2091 18.3715 27.5011 18.7345 27.8671 19.0245C28.2351 19.3165 28.6621 19.5355 29.1551 19.6805C29.6471 19.8305 30.1751 19.9045 30.7431 19.9045C31.3251 19.9045 31.8971 19.8425 32.4551 19.7195C33.0121 19.5965 33.6071 19.4165 34.2411 19.1815L34.2481 22.3825C33.4781 22.6085 33.4151 22.6405 32.6661 22.7825ZM36.2461 22.7925H41.1461V10.0165H36.2461V22.7925ZM41.6731 6.01354C41.6731 6.87354 41.3871 7.54954 40.8181 8.03854C40.2481 8.52854 39.5421 8.77354 38.7031 8.77354C37.8641 8.77354 37.1591 8.52854 36.5891 8.03854C36.0181 7.54854 35.7341 6.87254 35.7341 6.01354C35.7341 5.13454 36.0181 4.44854 36.5891 3.96054C37.1591 3.46954 37.8641 3.22354 38.7031 3.22354C39.5431 3.22354 40.2471 3.46954 40.8181 3.96054C41.3871 4.44854 41.6731 5.13454 41.6731 6.01354Z" fill="#F6FAFB"/>
<path d="M102.427 10.9745H101.859V10.5765H103.479V10.9745H102.902V12.6835H102.427M105.499 11.8735C105.489 11.6235 105.479 11.3195 105.479 11.0085H105.476C105.406 11.2775 105.319 11.5785 105.239 11.8245L104.979 12.6465H104.609L104.384 11.8345C104.316 11.5845 104.247 11.2865 104.194 11.0085H104.19L104.153 11.8815L104.113 12.6825H103.673L103.805 10.5755H104.441L104.648 11.2815C104.716 11.5225 104.778 11.7855 104.826 12.0315H104.836C104.893 11.7885 104.964 11.5125 105.039 11.2745L105.259 10.5745H105.885L105.996 12.6825H105.534L105.499 11.8735Z" fill="#275023"/>
</svg>
