<svg width="97" height="33" viewBox="0 0 97 33" fill="none" xmlns="http://www.w3.org/2000/svg">
<path fill-rule="evenodd" clip-rule="evenodd" d="M91.6926 12.9785C91.6926 11.9835 92.5214 11.1715 93.517 11.1715C94.54 11.1715 95.3414 11.9835 95.3414 12.9785C95.3414 13.9735 94.539 14.7845 93.517 14.7845C92.5214 14.8105 91.6926 13.9995 91.6926 12.9785ZM93.517 14.3915C94.2909 14.3915 94.9001 13.7635 94.9001 13.0045C94.9001 12.2445 94.2634 11.6165 93.517 11.6165C92.7431 11.6165 92.135 12.2455 92.135 13.0045C92.135 13.7635 92.7431 14.3915 93.518 14.3915H93.517ZM93.2678 13.7905H92.8814V12.1925H93.5719C93.7102 12.1925 93.8759 12.1925 93.9868 12.2715C94.1241 12.3495 94.18 12.5065 94.18 12.6645C94.18 12.8475 94.0702 13.0045 93.9044 13.0565L94.2085 13.7635H93.7936L93.5444 13.1355H93.2678V13.7905ZM93.2678 12.9005H93.4895C93.5719 12.9005 93.6553 12.9005 93.7112 12.8735C93.7651 12.8475 93.7936 12.7685 93.7936 12.6905C93.7936 12.6385 93.7651 12.5595 93.7102 12.5335C93.6553 12.5065 93.5444 12.5065 93.4885 12.5065H93.2953L93.2678 12.8995V12.9005ZM65.5694 0.908537L65.0731 3.99854C63.9941 3.44854 63.1917 3.23854 62.3355 3.23854C60.0687 3.23854 58.465 5.43854 58.465 8.55354C58.465 10.7005 59.543 12.0095 61.3125 12.0095C62.0589 12.0095 62.8887 11.7735 63.9107 11.2765L63.386 14.5225C62.2521 14.8375 61.5331 14.9425 60.6769 14.9425C57.387 14.9425 55.342 12.5855 55.342 8.81554C55.342 3.73554 58.1609 0.175537 62.2257 0.175537C62.7494 0.175537 63.2202 0.227537 63.6077 0.331537L64.8778 0.646537C65.2093 0.776537 65.2938 0.803537 65.5694 0.908537ZM55.4243 3.02854C55.342 3.00254 55.2311 3.00254 55.1203 3.00254C54.1257 3.00254 53.5451 3.50054 52.6054 4.88754L52.882 3.13354H50.1169L48.2376 14.6805H51.3057C52.4111 7.61054 52.6878 6.40654 54.1532 6.40654H54.3738C54.6505 5.01954 55.0094 3.99754 55.5352 3.05454L55.4243 3.02854ZM37.153 14.5225C36.3231 14.7845 35.6601 14.9165 34.9675 14.9165C33.4208 14.9165 32.5635 14.0255 32.5635 12.3765C32.5635 12.0615 32.5909 11.6955 32.6469 11.3285L32.8401 10.2025L32.9784 9.28654L34.3055 1.40654H37.3462L36.9872 3.10754H38.5625L38.119 5.90954H36.5723L35.771 10.7265C35.7435 10.9365 35.7161 11.0925 35.7161 11.1975C35.7161 11.7995 36.0476 12.0615 36.7666 12.0615C37.1255 12.0615 37.3747 12.0355 37.5954 11.9575L37.154 14.5225M25.1002 6.77254C25.1002 8.23954 25.8181 9.23454 27.4229 9.99354C28.6381 10.5695 28.8588 10.7525 28.8588 11.2765C28.8588 11.9835 28.3066 12.3235 27.1178 12.3235C26.2056 12.3235 25.3757 12.1935 24.3812 11.8525L23.9663 14.5225L24.1046 14.5495L24.6578 14.6545C24.851 14.6805 25.1002 14.7325 25.4602 14.7585C26.1781 14.8105 26.7588 14.8635 27.1452 14.8635C30.3527 14.8635 31.8456 13.6335 31.8456 11.0135C31.8456 9.44354 31.2364 8.50154 29.6886 7.79354C28.4174 7.21754 28.2791 7.08754 28.2791 6.53754C28.2791 5.90854 28.7764 5.59454 29.771 5.59454C30.3801 5.59454 31.1815 5.67354 31.9564 5.77854L32.3977 3.10754C31.5953 2.97654 30.4076 2.87154 29.716 2.87154C26.2615 2.87154 25.0727 4.62654 25.1002 6.77254ZM89.9231 14.6545H87.0207L87.158 13.5285C86.3292 14.4185 85.4455 14.8105 84.3391 14.8105C82.1008 14.8105 80.6354 12.9005 80.6354 10.0205C80.6354 6.17054 82.9021 2.92454 85.6113 2.92454C86.8001 2.92454 87.6838 3.42154 88.5411 4.49454L89.2041 0.436537H92.2184L89.9231 14.6545ZM85.4181 11.9575C86.8539 11.9575 87.8506 10.3605 87.8506 8.05654C87.8506 6.58954 87.2699 5.77854 86.2194 5.77854C84.8363 5.77854 83.8418 7.40154 83.8418 9.65354C83.8418 11.1715 84.3665 11.9575 85.4181 11.9575ZM46.8282 14.4185C45.7766 14.7325 44.7821 14.8895 43.6767 14.8895C40.276 14.8895 38.479 13.1095 38.479 9.70554C38.479 5.72554 40.7458 2.81954 43.8139 2.81954C46.3298 2.81954 47.9336 4.46954 47.9336 7.03454C47.9336 7.87254 47.8227 8.71054 47.5461 9.88854H41.4648C41.4373 10.0725 41.4373 10.1505 41.4373 10.2555C41.4373 11.6165 42.3495 12.2975 44.119 12.2975C45.1959 12.2975 46.1915 12.0615 47.2969 11.5645L46.8282 14.4185ZM45.1136 7.53254C45.141 7.29654 45.141 7.08754 45.141 6.95654C45.141 6.01354 44.6163 5.46354 43.7041 5.46354C42.737 5.46354 42.0455 6.19754 41.7689 7.53254H45.1136ZM12.8267 14.6545H9.78605L11.527 3.73554L7.60163 14.6545H5.52808L5.27997 3.81454L3.42813 14.6545H0.58068L2.9583 0.463537H7.35352L7.46333 9.26054L10.4491 0.463537H15.2033L12.8267 14.6545ZM20.7039 9.52154C20.3734 9.49554 20.2351 9.46954 20.0134 9.46954C18.2714 9.46954 17.4162 10.0725 17.4162 11.2245C17.4162 11.9315 17.8575 12.4025 18.5216 12.4025C19.7379 12.4025 20.65 11.2245 20.7049 9.52254L20.7039 9.52154ZM22.9158 14.6545H20.3734L20.4283 13.4495C19.6544 14.4185 18.6314 14.8375 17.2219 14.8375C15.5633 14.8375 14.4294 13.5545 14.4294 11.6955C14.4294 8.86754 16.4195 7.24454 19.7928 7.24454C20.1517 7.24454 20.5951 7.27054 21.0365 7.32354C21.1199 6.93054 21.1473 6.77354 21.1473 6.56354C21.1473 5.80354 20.6215 5.51654 19.1836 5.51654C18.3284 5.51654 17.3328 5.64654 16.6412 5.85654L16.2538 5.98654L15.9782 6.06654L16.3921 3.47354C17.9124 3.02854 18.9355 2.84554 20.0409 2.84554C22.6676 2.84554 24.0497 4.02354 24.0497 6.22354C24.0497 6.79954 23.9937 7.21754 23.8005 8.52754L23.1924 12.6375L23.0826 13.3705L22.9992 13.9475L22.9443 14.3655L22.9158 14.6545ZM70.8493 9.52154C70.5453 9.49554 70.3795 9.46954 70.1589 9.46954C68.4168 9.46954 67.5321 10.0725 67.5321 11.2245C67.5321 11.9315 67.9755 12.4025 68.6385 12.4025C69.8822 12.4025 70.7944 11.2245 70.8493 9.52254V9.52154ZM73.0612 14.6545H70.5178L70.5727 13.4495C69.7988 14.4185 68.7758 14.8375 67.3663 14.8375C65.7087 14.8375 64.5748 13.5545 64.5748 11.6955C64.5748 8.86754 66.565 7.24454 69.9382 7.24454C70.2686 7.24454 70.7385 7.27054 71.1808 7.32354C71.2643 6.93054 71.2917 6.77354 71.2917 6.56354C71.2917 5.80354 70.7659 5.51654 69.329 5.51654C68.4728 5.51654 67.4772 5.64654 66.7856 5.85654L66.3433 5.96154L66.0677 6.03954L66.4826 3.44754C68.0029 3.00254 69.0249 2.81954 70.1314 2.81954C72.7571 2.81954 74.1391 3.99754 74.1391 6.19754C74.1391 6.77254 74.0842 7.19154 73.89 8.50154L73.2544 12.5855L73.171 13.3185L73.0886 13.8945L73.0337 14.2875L73.0612 14.6545ZM81.6025 3.02854C81.5201 3.00254 81.4093 3.00254 81.2995 3.00254C80.3039 3.00254 79.7232 3.50054 78.7825 4.88754L79.0591 3.13354H76.2951L74.4158 14.6805H77.4839C78.5893 7.61054 78.8659 6.40654 80.3313 6.40654H80.553C80.8275 5.01954 81.2161 3.99754 81.7133 3.05454L81.6025 3.02854ZM68.7758 25.8865C68.7758 28.5045 67.9195 30.0495 66.565 30.0495C65.5694 30.0755 64.9897 29.0285 64.9897 27.4835C64.9897 25.6505 65.8734 23.5565 67.2565 23.5565C68.3894 23.5565 68.7758 24.6815 68.7758 25.8865ZM71.79 25.9125C71.79 23.0065 70.2697 20.7285 67.4212 20.7285C64.1324 20.7285 62.004 23.4785 62.004 27.5365C62.004 30.4415 63.2751 32.8245 66.3707 32.8245C69.4958 32.8245 71.79 30.7305 71.79 25.9125ZM62.9711 18.7115L62.5013 21.8015C61.4782 21.2515 60.7592 21.0425 59.9579 21.0425C57.8294 21.0425 56.3365 23.2425 56.3365 26.3575C56.3365 28.5045 57.3321 29.8135 58.9908 29.8135C59.7087 29.8135 60.4837 29.5785 61.4233 29.0805L60.926 32.3275C59.8745 32.6415 59.184 32.7455 58.3816 32.7455C55.3145 32.7455 53.3793 30.3895 53.3793 26.6195C53.3793 21.5395 56.0325 17.9795 59.8196 17.9795C60.3168 17.9795 60.7318 18.0315 61.0918 18.1365L62.2532 18.4505C62.6396 18.5555 62.7219 18.5805 62.9711 18.7115ZM44.0905 20.8065C44.0082 20.7805 43.8973 20.7805 43.7865 20.7805C42.8468 20.7805 42.3221 21.2785 41.4373 22.6655L41.714 20.9115H39.1431L37.4011 32.4585H40.2485C41.2716 25.3885 41.5471 24.1845 42.9017 24.1845C42.9851 24.1845 42.9851 24.1845 43.1234 24.2105C43.3715 22.8225 43.7316 21.8025 44.2003 20.8595L44.0905 20.8065ZM81.3544 32.3535H78.6452L78.7825 31.2275C78.0086 32.1175 77.1798 32.5105 76.1293 32.5105C74.0568 32.5105 72.6737 30.5995 72.6737 27.7195C72.6737 23.8695 74.8022 20.6235 77.3192 20.6235C78.4235 20.6235 79.2808 21.1215 80.0536 22.2205L80.6903 18.1625H83.5092L81.3544 32.3535ZM77.1249 29.6305C78.4784 29.6305 79.3917 28.0335 79.3917 25.7295C79.3917 24.2635 78.8659 23.4775 77.8713 23.4775C76.5727 23.4775 75.6595 25.0745 75.6595 27.3525C75.6595 28.8715 76.1567 29.6305 77.1249 29.6305ZM17.3328 32.3005C16.3646 32.6155 15.425 32.7725 14.4019 32.7725C11.223 32.7725 9.56433 30.9925 9.56433 27.5885C9.56433 23.6345 11.6938 20.7025 14.5402 20.7025C16.8894 20.7025 18.3833 22.3255 18.3833 24.9175C18.3833 25.7555 18.2724 26.5935 18.0233 27.7715H12.3569C12.3284 27.9545 12.3284 28.0335 12.3284 28.1375C12.3284 29.4735 13.1857 30.1535 14.8443 30.1535C15.8674 30.1535 16.7795 29.9185 17.8026 29.4215L17.3328 32.3005ZM15.729 25.4145C15.729 25.1795 15.7565 24.9705 15.7565 24.8395C15.7565 23.8965 15.2592 23.3465 14.4019 23.3465C13.4897 23.3465 12.8541 24.0795 12.5775 25.4145H15.729ZM51.2783 32.3005C50.3112 32.6155 49.3705 32.7725 48.3485 32.7725C45.141 32.7725 43.4835 30.9925 43.4835 27.5885C43.4835 23.6345 45.6109 20.7025 48.4583 20.7025C50.8085 20.7025 52.3288 22.3255 52.3288 24.9175C52.3288 25.7555 52.2179 26.5935 51.9698 27.7715H46.3024C46.2739 27.9545 46.2739 28.0335 46.2739 28.1375C46.2739 29.4735 47.1322 30.1535 48.7909 30.1535C49.8129 30.1535 50.7261 29.9185 51.7471 29.4215L51.2783 32.3005ZM49.6746 25.4145C49.702 25.1795 49.702 24.9705 49.702 24.8395C49.702 23.8965 49.2058 23.3465 48.3485 23.3465C47.4352 23.3465 46.7997 24.0795 46.523 25.4145H49.6746ZM91.0845 32.3005C90.0889 32.6155 89.1492 32.7725 88.1547 32.7725C84.9757 32.7725 83.2886 30.9925 83.2886 27.5885C83.2886 23.6345 85.4181 20.7025 88.293 20.7025C90.6421 20.7025 92.135 22.3255 92.135 24.9175C92.135 25.7555 92.0241 26.5935 91.776 27.7715H86.1086C86.0811 27.9545 86.0811 28.0335 86.0811 28.1375C86.0811 29.4735 86.9373 30.1535 88.597 30.1535C89.619 30.1535 90.5312 29.9185 91.5543 29.4215L91.0845 32.3005ZM89.4807 25.4145C89.4807 25.1795 89.5092 24.9705 89.5092 24.8395C89.5092 23.8965 89.0109 23.3465 88.1547 23.3465C87.2414 23.3465 86.6058 24.0795 86.3292 25.4145H89.4807ZM8.87385 21.3305C8.32062 20.9635 7.54673 20.6765 6.49623 20.6765C5.33487 20.6765 4.42267 20.9115 4.42267 22.0635C4.42267 24.1065 8.62469 23.3465 8.62469 27.7455C8.62469 31.7515 5.86065 32.7985 3.34577 32.7985C2.23931 32.7985 0.939646 32.4585 0 32.0385L0.690482 29.1065C1.27116 29.6045 2.40507 29.9445 3.37217 29.9445C4.28436 29.9445 5.66744 29.7085 5.66744 28.2165C5.66744 25.8865 1.46543 26.7505 1.46543 22.6665C1.46543 18.9215 3.9254 17.8215 6.30302 17.8215C7.62908 17.8215 8.9013 18.0055 9.61923 18.4765L8.87385 21.3305ZM25.6808 32.3005C25.1002 32.5625 24.2978 32.7465 23.1364 32.7465C20.65 32.7465 19.1012 30.3895 19.1012 27.5095C19.1012 23.7395 21.3405 20.7545 24.6303 20.7545C25.3483 20.7545 26.4547 21.0425 27.312 21.5145L26.6754 24.2635C26.0673 23.8705 25.4317 23.6335 24.7687 23.6335C23.2483 23.6335 22.1429 24.9705 22.1429 27.3265C22.1429 28.6885 22.9443 29.8135 24.188 29.8135C24.9344 29.8135 25.4591 29.6565 26.0947 29.3165L25.6808 32.3005ZM36.3506 29.3945C36.2133 30.3895 36.074 31.3585 35.9916 32.3795H33.255L33.4767 30.5205H33.4482C32.5909 31.7775 31.7062 32.6405 30.131 32.6405C28.4174 32.6405 27.4778 30.9135 27.4778 28.6885C27.4778 27.9025 27.5327 27.4835 27.6985 26.2785L28.4723 20.9385H31.5404L30.7117 26.3045C30.6293 26.8815 30.5184 27.4575 30.5184 28.0595C30.5184 28.7395 30.85 29.4215 31.6798 29.3685C32.9235 29.3685 33.6689 27.9285 33.8906 26.2265L34.7479 20.9375H37.7052L36.3506 29.3945ZM93.9319 32.2485H93.4621V30.3375H92.798V29.9185H94.5949V30.3375H93.9319V32.2485ZM97 32.2485H96.5576V30.3115L96.1427 32.2485H95.7003L95.2865 30.3115V32.2485H94.8441V29.9185H95.5346L95.922 31.7515H95.9495L96.337 29.9185H97V32.2485Z" fill="#275023"/>
</svg>
