<svg width="49" height="48" viewBox="0 0 49 48" fill="none" xmlns="http://www.w3.org/2000/svg">
<g clip-path="url(#clip0_2206_14460)">
<path d="M2.8999 47.999H6.89977C7.23538 47.9979 7.56699 47.9262 7.87299 47.7883C8.17899 47.6505 8.4525 47.4497 8.6757 47.1991H28.7389C29.9128 47.1997 31.0642 46.877 32.0668 46.2663L47.0582 37.1403C47.409 36.9286 47.7125 36.647 47.9497 36.3128C48.1869 35.9787 48.3526 35.5993 48.4367 35.1983C48.5208 34.7972 48.5213 34.3832 48.4383 33.9819C48.3552 33.5807 48.1904 33.2009 47.9541 32.8661C47.9374 32.8383 47.919 32.8116 47.8989 32.7862C47.8203 32.6856 47.7356 32.59 47.6453 32.4998C47.678 32.3513 47.6957 32.1999 47.6981 32.0478V8.75265C47.6832 7.44124 46.6097 6.38922 45.2982 6.40075H41.2983V5.60081C41.2983 4.27543 40.2238 3.20091 38.8984 3.20091H37.5056C37.3882 3.20088 37.2722 3.17499 37.1659 3.12507C37.0595 3.07515 36.9655 3.00243 36.8905 2.91208L35.4338 1.15696C35.1338 0.794809 34.7575 0.503397 34.3319 0.303562C33.9062 0.103726 33.4417 0.000403093 32.9714 0.000979123H27.2261C26.7558 0.000383576 26.2913 0.103698 25.8656 0.303535C25.4399 0.503372 25.0637 0.794794 24.7638 1.15696L23.307 2.91208C23.232 3.00242 23.138 3.07513 23.0316 3.12504C22.9253 3.17496 22.8093 3.20086 22.6919 3.20091H21.2991C19.9736 3.20091 18.8992 4.27543 18.8992 5.60081V6.40075H14.8994C13.5879 6.38922 12.5144 7.44124 12.4995 8.75265V28.2023C11.9221 28.0701 11.3319 28.0022 10.7396 27.9999H9.15249C8.98763 27.5335 8.68273 27.1296 8.27949 26.8432C7.87625 26.5568 7.39436 26.4019 6.89977 26.3999H2.8999C1.57452 26.3999 0.5 27.4744 0.5 28.7998V45.5991C0.5 46.9246 1.57452 47.999 2.8999 47.999ZM46.0981 8.75265V11.2006H44.4982C43.6145 11.2006 42.8982 10.4842 42.8982 9.60059V8.00071H45.2981C45.5038 7.99485 45.7034 8.07066 45.8533 8.21157C46.0032 8.35248 46.0913 8.54702 46.0981 8.75265ZM20.4991 5.60081C20.4991 5.49576 20.5198 5.39174 20.56 5.29469C20.6002 5.19764 20.6592 5.10945 20.7334 5.03517C20.8077 4.96089 20.8959 4.90197 20.993 4.86177C21.09 4.82157 21.194 4.80088 21.2991 4.80088H22.6919C23.0445 4.80142 23.3929 4.72396 23.7121 4.57405C24.0313 4.42413 24.3134 4.20547 24.5382 3.93372L25.9942 2.17936C26.1444 1.99831 26.3326 1.85261 26.5456 1.75264C26.7585 1.65266 26.9909 1.60087 27.2261 1.60094H32.9714C33.2065 1.60098 33.4387 1.65283 33.6515 1.75281C33.8643 1.85278 34.0525 1.99842 34.2026 2.17936L35.6593 3.93372C35.8841 4.20547 36.1662 4.42414 36.4854 4.57405C36.8046 4.72397 37.153 4.80143 37.5056 4.80088H38.8984C39.0035 4.80088 39.1075 4.82157 39.2046 4.86177C39.3016 4.90197 39.3898 4.96089 39.4641 5.03517C39.5383 5.10945 39.5973 5.19764 39.6375 5.29469C39.6777 5.39174 39.6984 5.49576 39.6984 5.60081V6.40075H35.2762L33.3562 4.07444C33.1317 3.80119 32.8493 3.58113 32.5295 3.43009C32.2097 3.27904 31.8604 3.20077 31.5067 3.20091H28.6773C28.3216 3.20016 27.9702 3.27877 27.6487 3.431C27.3272 3.58323 27.0438 3.80526 26.819 4.08091L24.9198 6.40084H20.4992V5.60081H20.4991ZM33.2027 6.40075H26.9885L28.0581 5.0944C28.1331 5.00265 28.2276 4.92871 28.3347 4.87794C28.4417 4.82716 28.5588 4.80081 28.6773 4.80078H31.5067C31.6248 4.80075 31.7414 4.82684 31.8482 4.87718C31.9549 4.92753 32.0492 5.00087 32.1243 5.09196L33.2027 6.40075ZM14.8994 8.00071H17.2993V9.60068C17.2993 10.4843 16.583 11.2006 15.6993 11.2006H14.0994V8.75265C14.1063 8.54703 14.1943 8.3525 14.3442 8.2116C14.4941 8.07069 14.6938 7.99487 14.8994 8.00071ZM14.0995 12.8005H15.6994C17.4667 12.8005 18.8993 11.3679 18.8993 9.60068V8.00071H41.2983V9.60068C41.2983 11.3679 42.731 12.8005 44.4982 12.8005H46.0981V18.4003C46.0981 19.2839 45.3818 20.0002 44.4982 20.0002H34.0986C34.0986 18.6748 33.0241 17.6003 31.6987 17.6003H28.4989C27.1735 17.6003 26.099 18.6748 26.099 20.0002H15.6993C14.8157 20.0002 14.0994 19.2839 14.0994 18.4003V12.8005H14.0995ZM32.4987 20.0002V21.6002C32.4987 21.8123 32.4144 22.0158 32.2644 22.1658C32.1143 22.3158 31.9109 22.4001 31.6987 22.4001H28.4989C28.2867 22.4001 28.0833 22.3158 27.9332 22.1658C27.7832 22.0158 27.6989 21.8123 27.6989 21.6002V20.0002C27.6989 19.7881 27.7832 19.5846 27.9332 19.4346C28.0833 19.2846 28.2867 19.2003 28.4989 19.2003H31.6987C31.8038 19.2003 31.9078 19.221 32.0049 19.2612C32.1019 19.3013 32.1901 19.3603 32.2644 19.4346C32.3387 19.5088 32.3976 19.597 32.4378 19.6941C32.478 19.7911 32.4987 19.8952 32.4987 20.0002ZM14.0995 21.1554C14.5838 21.4433 15.1361 21.5968 15.6994 21.6002H26.099C26.099 22.9256 27.1735 24.0001 28.4989 24.0001H31.6987C33.0241 24.0001 34.0986 22.9256 34.0986 21.6002H44.4982C45.0616 21.5969 45.6139 21.4433 46.0981 21.1554V31.6541C45.5864 31.5453 45.0551 31.5729 44.5574 31.7341L41.3687 32.7996H27.6093C27.1601 32.299 26.6111 31.898 25.9976 31.6224C25.3841 31.3469 24.7196 31.2028 24.0471 31.1996H19.8592C18.3832 31.1978 16.9514 30.6956 15.7978 29.7749C15.2767 29.3593 14.7063 29.0097 14.0995 28.7341V21.1554ZM28.5084 34.3996H36.5689L29.7444 36.6748C29.5004 36.7575 29.2445 36.7997 28.9868 36.7995H28.3389C28.6463 36.0373 28.7057 35.1975 28.5084 34.3996ZM14.7994 31.0245C16.2369 32.171 18.0204 32.7967 19.8591 32.7996H24.0429C24.5952 32.801 25.1378 32.9448 25.6184 33.2169C26.099 33.489 26.5014 33.8803 26.7868 34.3531C26.9846 34.7421 27.0658 35.1799 27.0206 35.6138C26.9755 36.0478 26.8059 36.4595 26.5324 36.7994H21.875C20.2955 36.8006 18.7515 37.2681 17.4367 38.1434L16.8528 38.5353C16.7656 38.594 16.6908 38.6692 16.6327 38.7567C16.5746 38.8442 16.5342 38.9423 16.514 39.0454C16.4938 39.1485 16.4941 39.2546 16.5149 39.3576C16.5357 39.4606 16.5766 39.5585 16.6352 39.6457C16.6938 39.7329 16.769 39.8077 16.8566 39.8658C16.9441 39.9239 17.0422 39.9642 17.1453 39.9844C17.2484 40.0046 17.3545 40.0043 17.4575 39.9835C17.5605 39.9627 17.6584 39.9219 17.7455 39.8633L18.3247 39.4745C19.3765 38.7745 20.6115 38.4005 21.875 38.3993H28.9866C29.4184 38.3998 29.8473 38.3292 30.2562 38.1905L45.062 33.2556C45.33 33.1666 45.6187 33.161 45.89 33.2394C46.1614 33.3178 46.4026 33.4765 46.5819 33.6948C46.5939 33.7147 46.6075 33.7332 46.621 33.7523C46.7378 33.9072 46.8207 34.085 46.8644 34.274C46.9081 34.463 46.9116 34.6591 46.8746 34.8495C46.8377 35.04 46.7611 35.2205 46.6499 35.3795C46.5387 35.5384 46.3953 35.6723 46.2291 35.7723L31.2345 44.8999C30.4824 45.3574 29.6189 45.5993 28.7386 45.599H9.29967V29.5998H10.7396C12.2151 29.6018 13.6462 30.1041 14.7994 31.0245ZM2.09997 28.7998C2.09997 28.5876 2.18424 28.3842 2.33426 28.2342C2.48428 28.0841 2.68775 27.9999 2.8999 27.9999H6.89977C7.11193 27.9999 7.31539 28.0841 7.46541 28.2342C7.61543 28.3842 7.69971 28.5876 7.69971 28.7998V45.5991C7.69971 45.8113 7.61543 46.0147 7.46541 46.1648C7.31539 46.3148 7.11193 46.399 6.89977 46.399H2.8999C2.68775 46.399 2.48428 46.3148 2.33426 46.1648C2.18424 46.0147 2.09997 45.8113 2.09997 45.5991V28.7998Z" fill="#275023"/>
</g>
<defs>
<clipPath id="clip0_2206_14460">
<rect width="48" height="48" fill="white" transform="translate(0.5)"/>
</clipPath>
</defs>
</svg>
