<svg width="49" height="48" viewBox="0 0 49 48" fill="none" xmlns="http://www.w3.org/2000/svg">
<g clip-path="url(#clip0_2206_14468)">
<path d="M42.9 12.8H29.3V1.60003C29.3 0.716344 28.5837 0 27.7 0H21.2999C20.4163 0 19.7 0.716344 19.7 1.60003V12.8001H6.09997C3.00866 12.8035 0.503562 15.3086 0.5 18.4V42.4C0.503562 45.4913 3.00866 47.9964 6.09997 48H42.8999C45.9912 47.9964 48.4964 45.4913 48.4999 42.4V18.4C48.4964 15.3086 45.9913 12.8035 42.9 12.8ZM29.3 17.6H30.9C31.1122 17.6 31.3157 17.6842 31.4657 17.8343C31.6157 17.9843 31.7 18.1878 31.7 18.3999C31.7 18.6121 31.6157 18.8156 31.4657 18.9656C31.3157 19.1156 31.1122 19.1999 30.9 19.1999H29.3V17.6ZM21.3 1.60003H27.7001V19.2H21.3V1.60003ZM18.1 19.2C17.8878 19.2 17.6843 19.1157 17.5343 18.9657C17.3843 18.8157 17.3 18.6122 17.3 18.4C17.3 18.1879 17.3843 17.9844 17.5343 17.8344C17.6843 17.6843 17.8878 17.6001 18.1 17.6001H19.7V19.2H18.1ZM46.9 42.4C46.8973 44.608 45.108 46.3973 42.8999 46.4001H6.09997C3.89197 46.3974 2.10266 44.6081 2.09994 42.4V18.4C2.10256 16.192 3.89188 14.4027 6.09997 14.4H19.7V16H18.1C16.7745 16 15.7 17.0746 15.7 18.4C15.7 19.7255 16.7745 20.8 18.1 20.8H30.8999C32.2254 20.8 33.2999 19.7255 33.2999 18.4C33.2999 17.0746 32.2254 16 30.8999 16H29.3V14.4H42.9C45.108 14.4026 46.8973 16.1919 46.9001 18.4L46.9 42.4Z" fill="#275023"/>
<path d="M6.89691 39.2H19.6969C20.5806 39.2 21.2969 38.4836 21.2969 37.6V24.8C21.2969 23.9163 20.5806 23.2 19.6969 23.2H6.89691C6.01322 23.2 5.29688 23.9163 5.29688 24.8V37.6C5.29688 38.4836 6.01322 39.2 6.89691 39.2ZM13.2968 32.8C11.9714 32.8 10.8968 31.7255 10.8968 30.4C10.8968 29.0746 11.9714 28 13.2968 28C14.6223 28 15.6968 29.0746 15.6968 30.4C15.6968 31.7255 14.6224 32.8 13.2968 32.8ZM11.6969 34.4H14.8969C15.7806 34.4 16.4969 35.1163 16.4969 36V37.6H10.0969V36C10.0969 35.1163 10.8132 34.4 11.6969 34.4ZM6.89691 24.8H19.6969V37.6H18.0968V36C18.0951 35.3886 17.9183 34.7904 17.5873 34.2763C17.2562 33.7622 16.7848 33.3537 16.2289 33.0992C17.7052 31.5084 17.6436 29.0304 16.0899 27.5149C14.5363 25.9994 12.0576 25.9994 10.5039 27.5149C8.95031 29.0304 8.88863 31.5084 10.365 33.0992C9.809 33.3537 9.33755 33.7622 9.00647 34.2763C8.67539 34.7903 8.49853 35.3885 8.49684 36V37.6H6.89691V24.8ZM42.0968 23.2H25.2968C24.4132 23.2 23.6968 23.9164 23.6968 24.8001V26.4C23.6968 27.2837 24.4132 28 25.2968 28H42.0968C42.9805 28 43.6969 27.2837 43.6969 26.4V24.8C43.6969 23.9164 42.9805 23.2 42.0968 23.2ZM25.2968 26.4V24.8H42.0968V26.4H25.2968ZM42.8969 30.4H23.6969C23.4847 30.4 23.2813 30.4843 23.1312 30.6344C22.9812 30.7844 22.8969 30.9878 22.8969 31.2C22.8969 31.4122 22.9812 31.6157 23.1312 31.7657C23.2813 31.9157 23.4847 32 23.6969 32H42.8969C43.3387 32 43.6969 31.6419 43.6969 31.2C43.6969 30.7582 43.3387 30.4 42.8969 30.4ZM42.8969 34.4H23.6969C23.4847 34.4 23.2813 34.4843 23.1312 34.6343C22.9812 34.7843 22.8969 34.9878 22.8969 35.2C22.8969 35.4121 22.9812 35.6156 23.1312 35.7656C23.2813 35.9156 23.4847 35.9999 23.6969 35.9999H42.8969C43.1091 35.9999 43.3125 35.9156 43.4626 35.7656C43.6126 35.6156 43.6969 35.4121 43.6969 35.2C43.6969 34.9878 43.6126 34.7843 43.4626 34.6343C43.3125 34.4843 43.1091 34.4 42.8969 34.4ZM42.8969 38.4H23.6969C23.4847 38.4 23.2813 38.4843 23.1312 38.6343C22.9812 38.7843 22.8969 38.9878 22.8969 39.2C22.8969 39.4121 22.9812 39.6156 23.1312 39.7656C23.2813 39.9157 23.4847 39.9999 23.6969 40H42.8969C43.3387 40 43.6969 39.6418 43.6969 39.2C43.6969 38.7581 43.3387 38.4 42.8969 38.4ZM42.8969 42.4H6.09684C5.88468 42.4 5.6812 42.4843 5.53118 42.6343C5.38116 42.7844 5.29688 42.9878 5.29688 43.2C5.29688 43.4122 5.38116 43.6157 5.53118 43.7657C5.6812 43.9157 5.88468 44 6.09684 44H42.8968C43.3387 44 43.6968 43.6419 43.6968 43.2C43.6968 42.7582 43.3387 42.4 42.8969 42.4Z" fill="#275023"/>
</g>
<defs>
<clipPath id="clip0_2206_14468">
<rect width="48" height="48" fill="white" transform="translate(0.5)"/>
</clipPath>
</defs>
</svg>
