<svg width="49" height="48" viewBox="0 0 49 48" fill="none" xmlns="http://www.w3.org/2000/svg">
<g clip-path="url(#clip0_2206_14441)">
<path d="M18.9031 20.8H28.5031C29.8285 20.8 30.9031 19.7254 30.9031 18.4V16C30.8996 13.7585 29.3467 11.8172 27.1607 11.3216C28.9831 9.42895 28.9453 6.42286 27.0757 4.57673C25.2063 2.73061 22.1999 2.73061 20.3303 4.57673C18.4608 6.42286 18.423 9.42895 20.2454 11.3216C18.0593 11.8172 16.5065 13.7585 16.503 16V18.4C16.5031 19.7254 17.5776 20.8 18.9031 20.8ZM24.9031 12.7999L24.2351 14.4H23.1719L22.5031 12.7999H24.9031ZM23.2471 16H24.1591L25.0479 19.2H22.3583L23.2471 16ZM29.3031 16V18.4C29.3031 18.6121 29.2188 18.8156 29.0688 18.9656C28.9187 19.1157 28.7153 19.2 28.5031 19.2H26.7087L25.6119 15.252L26.6143 12.852C28.1601 13.1021 29.2977 14.4341 29.3031 16ZM23.7031 4.79995C25.4704 4.79995 26.9031 6.23264 26.9031 7.99992C26.9031 9.7672 25.4704 11.1999 23.7031 11.1999C21.9358 11.1999 20.5031 9.7672 20.5031 7.99992C20.5031 6.23264 21.9357 4.79995 23.7031 4.79995ZM18.103 16C18.1084 14.4342 19.246 13.1021 20.7919 12.852L21.7943 15.252L20.6975 19.2H18.9031C18.6909 19.2 18.4875 19.1157 18.3374 18.9656C18.1874 18.8156 18.1031 18.6121 18.1031 18.4L18.103 16ZM4.50309 12H14.1031C14.3153 12 14.5187 11.9157 14.6688 11.7656C14.8188 11.6156 14.9031 11.4121 14.9031 11.2C14.9031 10.9878 14.8188 10.7843 14.6688 10.6343C14.5187 10.4843 14.3153 10.4 14.1031 10.4H4.50309C4.29093 10.4 4.08745 10.4843 3.93743 10.6343C3.78741 10.7843 3.70313 10.9878 3.70313 11.2C3.70313 11.4121 3.78741 11.6156 3.93743 11.7656C4.08745 11.9157 4.29093 12 4.50309 12ZM4.50309 16H14.1031C14.3153 16 14.5187 15.9157 14.6688 15.7657C14.8188 15.6157 14.9031 15.4122 14.9031 15.2C14.9031 14.9878 14.8188 14.7844 14.6688 14.6343C14.5187 14.4843 14.3153 14.4 14.1031 14.4H4.50309C4.29093 14.4 4.08745 14.4843 3.93743 14.6343C3.78741 14.7844 3.70313 14.9878 3.70313 15.2C3.70313 15.4122 3.78741 15.6157 3.93743 15.7657C4.08745 15.9157 4.29093 16 4.50309 16ZM4.50309 19.9999H14.1031C14.3153 19.9999 14.5187 19.9156 14.6688 19.7656C14.8188 19.6156 14.9031 19.4121 14.9031 19.2C14.9031 18.9878 14.8188 18.7843 14.6688 18.6343C14.5187 18.4843 14.3153 18.4 14.1031 18.4H4.50309C4.29093 18.4 4.08745 18.4843 3.93743 18.6343C3.78741 18.7843 3.70313 18.9878 3.70313 19.2C3.70311 19.305 3.7238 19.409 3.76399 19.5061C3.80419 19.6032 3.86312 19.6914 3.9374 19.7656C4.01169 19.8399 4.09988 19.8989 4.19694 19.9391C4.29401 19.9792 4.39804 19.9999 4.50309 19.9999ZM20.503 23.2H4.50309C4.29093 23.2 4.08745 23.2843 3.93743 23.4343C3.78741 23.5843 3.70313 23.7878 3.70313 24C3.70313 24.2121 3.78741 24.4156 3.93743 24.5656C4.08745 24.7156 4.29093 24.7999 4.50309 24.7999H20.5031C20.7153 24.7999 20.9188 24.7156 21.0688 24.5656C21.2188 24.4155 21.3031 24.2121 21.303 23.9999C21.303 23.7877 21.2187 23.5843 21.0687 23.4343C20.9187 23.2842 20.7152 23.2 20.503 23.2ZM20.503 31.2H4.50309C4.29093 31.2 4.08745 31.2842 3.93743 31.4343C3.78741 31.5843 3.70313 31.7878 3.70313 31.9999C3.70313 32.2121 3.78741 32.4156 3.93743 32.5656C4.08745 32.7156 4.29093 32.7999 4.50309 32.7999H20.5031C20.6082 32.7999 20.7122 32.7792 20.8093 32.739C20.9063 32.6988 20.9945 32.6398 21.0688 32.5656C21.1431 32.4913 21.202 32.4031 21.2422 32.306C21.2824 32.209 21.3031 32.1049 21.303 31.9999C21.303 31.8948 21.2823 31.7908 21.2421 31.6937C21.2019 31.5967 21.143 31.5085 21.0687 31.4342C20.9944 31.3599 20.9062 31.301 20.8092 31.2608C20.7121 31.2206 20.6081 31.1999 20.503 31.2ZM20.503 35.2H4.50309C4.29093 35.2 4.08745 35.2843 3.93743 35.4343C3.78741 35.5843 3.70313 35.7878 3.70313 36C3.70313 36.2121 3.78741 36.4156 3.93743 36.5656C4.08745 36.7156 4.29093 36.7999 4.50309 36.7999H20.5031C20.6082 36.7999 20.7122 36.7792 20.8093 36.739C20.9063 36.6988 20.9945 36.6399 21.0688 36.5656C21.1431 36.4913 21.202 36.4031 21.2422 36.306C21.2824 36.209 21.3031 36.105 21.303 35.9999C21.303 35.8949 21.2823 35.7908 21.2421 35.6938C21.2019 35.5967 21.143 35.5085 21.0687 35.4343C20.9944 35.36 20.9062 35.3011 20.8092 35.2609C20.7121 35.2207 20.6081 35.2 20.503 35.2ZM17.3031 39.1999H4.50309C4.29093 39.1999 4.08745 39.2842 3.93743 39.4342C3.78741 39.5843 3.70313 39.7877 3.70313 39.9999C3.70313 40.2121 3.78741 40.4155 3.93743 40.5656C4.08745 40.7156 4.29093 40.7999 4.50309 40.7999H17.3031C17.7449 40.7999 18.103 40.4417 18.103 39.9999C18.103 39.558 17.7449 39.1999 17.3031 39.1999ZM20.503 27.1999H4.50309C4.29093 27.1999 4.08745 27.2842 3.93743 27.4342C3.78741 27.5842 3.70313 27.7877 3.70313 27.9999C3.70313 28.2121 3.78741 28.4155 3.93743 28.5656C4.08745 28.7156 4.29093 28.7999 4.50309 28.7999H20.5031C20.6082 28.7999 20.7122 28.7792 20.8093 28.7389C20.9063 28.6987 20.9945 28.6398 21.0688 28.5655C21.1431 28.4912 21.202 28.403 21.2422 28.306C21.2824 28.2089 21.3031 28.1049 21.303 27.9998C21.303 27.8948 21.2823 27.7908 21.2421 27.6937C21.2019 27.5967 21.143 27.5085 21.0687 27.4342C20.9944 27.3599 20.9062 27.301 20.8092 27.2608C20.7121 27.2206 20.6081 27.1999 20.503 27.1999Z" fill="#275023"/>
<path d="M45.3 22.4H34.1V2.4C34.1 1.07456 33.0254 0 31.7 0H7.7C7.48784 0 7.28441 0.084375 7.13441 0.234375L0.734375 6.63441C0.584375 6.78441 0.5 6.98784 0.5 7.2V42.4C0.5 43.7255 1.57456 44.8 2.9 44.8H22.9C22.9 46.5673 24.3327 48 26.0999 48H45.2999C47.0673 48 48.5 46.5673 48.5 44.8V25.6C48.5 23.8327 47.0673 22.4 45.3 22.4ZM6.90003 2.73122V5.60006C6.90003 5.81223 6.81575 6.0157 6.66573 6.16573C6.5157 6.31575 6.31223 6.40003 6.10006 6.40003H3.23122L6.90003 2.73122ZM2.9 43.2C2.68784 43.2 2.48436 43.1157 2.33434 42.9657C2.18431 42.8157 2.10003 42.6122 2.10003 42.4V7.99997H6.10006C7.4255 7.99997 8.50006 6.92541 8.50006 5.59997V1.60003H31.7C31.9122 1.60003 32.1156 1.68431 32.2657 1.83434C32.4157 1.98436 32.5 2.18784 32.5 2.4V22.4H26.0999C24.3327 22.4 22.9 23.8327 22.9 25.5999V43.2H2.9ZM46.9 44.8C46.9 45.6837 46.1836 46.4001 45.2999 46.4001H26.0999C25.2163 46.4001 24.4999 45.6837 24.4999 44.8V25.6C24.4999 24.7163 25.2163 24 26.0999 24H45.2999C46.1836 24 46.9 24.7163 46.9 25.6V44.8Z" fill="#275023"/>
<path d="M43.6983 39.2C43.4862 39.2 43.2827 39.2842 43.1327 39.4343C42.9827 39.5843 42.8984 39.7878 42.8984 39.9999V41.6C42.8984 41.8121 42.8141 42.0156 42.6641 42.1656C42.514 42.3156 42.3106 42.3999 42.0984 42.3999H29.2983C29.0862 42.3999 28.8827 42.3156 28.7327 42.1656C28.5827 42.0156 28.4984 41.8121 28.4984 41.6V39.9999C28.4984 39.7878 28.4141 39.5843 28.2641 39.4343C28.114 39.2842 27.9106 39.2 27.6984 39.2C27.4862 39.2 27.2828 39.2842 27.1327 39.4343C26.9827 39.5843 26.8984 39.7878 26.8984 39.9999V41.6C26.8984 42.9254 27.973 44 29.2984 44H42.0984C43.4238 44 44.4984 42.9254 44.4984 41.6V39.9999C44.4984 39.7878 44.414 39.5843 44.264 39.4343C44.114 39.2843 43.9105 39.2 43.6983 39.2Z" fill="#275023"/>
<path d="M33.8631 30.1657L34.8976 29.1312V39.2001C34.8976 39.4123 34.9818 39.6157 35.1319 39.7658C35.2819 39.9158 35.4854 40.0001 35.6975 40.0001C35.9097 40.0001 36.1132 39.9158 36.2632 39.7658C36.4132 39.6157 36.4975 39.4123 36.4975 39.2001V29.1313L37.5319 30.1658C37.6828 30.3115 37.8849 30.3921 38.0946 30.3903C38.3044 30.3885 38.505 30.3044 38.6534 30.156C38.8017 30.0077 38.8858 29.8071 38.8877 29.5973C38.8895 29.3875 38.8088 29.1855 38.6631 29.0346L36.2631 26.6346C36.1131 26.4846 35.9096 26.4004 35.6975 26.4004C35.4854 26.4004 35.282 26.4846 35.1319 26.6346L32.7319 29.0346C32.5864 29.1855 32.5059 29.3875 32.5078 29.5972C32.5098 29.8068 32.5939 30.0073 32.7421 30.1556C32.8904 30.3038 33.0909 30.3879 33.3006 30.3898C33.5102 30.3917 33.7122 30.3112 33.8631 30.1657Z" fill="#275023"/>
</g>
<defs>
<clipPath id="clip0_2206_14441">
<rect width="48" height="48" fill="white" transform="translate(0.5)"/>
</clipPath>
</defs>
</svg>
