<svg width="49" height="48" viewBox="0 0 49 48" fill="none" xmlns="http://www.w3.org/2000/svg">
<g clip-path="url(#clip0_2206_14452)">
<path d="M38.4553 22.0989C38.2533 21.709 37.9479 21.3822 37.5725 21.1544C37.1971 20.9266 36.7662 20.8065 36.3271 20.8073H34.8986V20.0075C34.8924 16.4898 32.3463 13.4911 28.8762 12.9142C31.3263 11.0389 32.3088 7.81086 31.3189 4.88861C30.329 1.96635 27.5868 0 24.5014 0C21.4161 0 18.6739 1.96635 17.6839 4.88861C16.6939 7.81086 17.6765 11.0389 20.1265 12.9142C16.6565 13.4911 14.1104 16.4898 14.1041 20.0075V20.8073H12.6757C12.2364 20.8066 11.8053 20.9268 11.4298 21.1548C11.0543 21.3827 10.7487 21.7097 10.5466 22.0997L0.778961 40.882C0.600394 41.225 0.507371 41.6061 0.507814 41.9929V44.0011C0.507814 45.3262 1.58209 46.4005 2.90718 46.4005H14.2514C14.4162 46.8667 14.721 47.2706 15.1242 47.5569C15.5273 47.8433 16.0091 47.998 16.5036 48.0001H32.4994C32.9939 47.998 33.4756 47.8433 33.8788 47.5569C34.2819 47.2706 34.5868 46.8667 34.7516 46.4005H46.0958C47.4209 46.4005 48.4952 45.3262 48.4952 44.0011V41.9929C48.495 41.6076 48.4023 41.228 48.2249 40.886L38.4553 22.0989ZM33.2991 20.0075V20.8073H29.293C30.1408 19.1819 30.7988 17.4644 31.2541 15.6886C31.893 16.2127 32.4077 16.8718 32.7613 17.6186C33.1149 18.3654 33.2986 19.1812 33.2991 20.0075ZM26.92 16.8275L27.5246 14.4089H27.7006C28.4286 14.4089 29.1495 14.5519 29.8224 14.8297C29.3525 16.7974 28.6214 18.6935 27.6485 20.4673L26.92 16.8275ZM25.8763 14.4089L25.4764 16.0085H23.5265L23.1266 14.4089H25.8763ZM21.4775 14.4089L22.0821 16.8275L21.3535 20.4673C20.3807 18.6935 19.6495 16.7974 19.1796 14.8297C19.8528 14.5519 20.574 14.4089 21.3022 14.4089H21.4775ZM23.5569 17.6081H25.4444L26.0843 20.8073H22.918L23.5569 17.6081ZM18.903 7.21083C18.903 4.11884 21.4095 1.61235 24.5014 1.61235C27.5933 1.61235 30.0999 4.11894 30.0999 7.21083C30.0999 10.3027 27.5933 12.8093 24.5014 12.8093C21.4109 12.8058 18.9064 10.3013 18.903 7.21083ZM15.7037 20.0075C15.7043 19.1812 15.888 18.3653 16.2416 17.6186C16.5952 16.8718 17.11 16.2127 17.7488 15.6886C18.2042 17.4644 18.8622 19.1819 19.7099 20.8073H15.7038L15.7037 20.0075ZM11.9656 22.8379C12.0332 22.7079 12.1351 22.5989 12.2604 22.5229C12.3856 22.4469 12.5294 22.4067 12.6759 22.4069H36.3272C36.4736 22.4069 36.6171 22.4471 36.7422 22.5231C36.8673 22.5991 36.9691 22.708 37.0366 22.8379L46.3781 40.8019H33.0504C31.9609 39.5841 30.4884 38.7747 28.8763 38.5073C31.3264 36.6321 32.3089 33.404 31.319 30.4817C30.3291 27.5595 27.5869 25.5931 24.5014 25.5931C21.4161 25.5931 18.6739 27.5595 17.6839 30.4817C16.6939 33.404 17.6765 36.6321 20.1265 38.5073C18.5145 38.7746 17.042 39.5841 15.9525 40.8019H2.62563L11.9656 22.8379ZM18.903 32.8041C18.903 29.7121 21.4095 27.2056 24.5014 27.2056C27.5933 27.2056 30.0999 29.7121 30.0999 32.8041C30.0999 35.8961 27.5933 38.4025 24.5014 38.4025C21.4109 38.3991 18.9064 35.8946 18.903 32.8041ZM2.10742 44.0011V42.4015H14.8641C14.4868 43.153 14.2456 43.9653 14.1515 44.8009H2.90718C2.69507 44.8009 2.49165 44.7166 2.34166 44.5666C2.19168 44.4167 2.10742 44.2132 2.10742 44.0011ZM32.4993 46.4005H16.5036C16.2915 46.4005 16.0881 46.3162 15.9381 46.1662C15.7881 46.0163 15.7038 45.8128 15.7038 45.6007C15.7074 42.5102 18.2118 40.0057 21.3023 40.0023H27.7007C30.7911 40.0058 33.2957 42.5102 33.2991 45.6007C33.2991 45.8128 33.2148 46.0163 33.0648 46.1663C32.9148 46.3162 32.7114 46.4005 32.4993 46.4005ZM46.0957 44.8009H34.8515C34.7573 43.9653 34.5161 43.153 34.1389 42.4015H46.8956V44.0011C46.8955 44.2132 46.8112 44.4166 46.6612 44.5666C46.5112 44.7166 46.3078 44.8009 46.0957 44.8009Z" fill="#275023"/>
</g>
<defs>
<clipPath id="clip0_2206_14452">
<rect width="48" height="48" fill="white" transform="translate(0.5)"/>
</clipPath>
</defs>
</svg>
