<svg width="167" height="50" viewBox="0 0 167 50" fill="none" xmlns="http://www.w3.org/2000/svg">
<g clip-path="url(#clip0_2507_18686)">
<path d="M161.059 50H5.84995C2.62499 50 0 47.34 0 44.0837V5.9075C0 2.65 2.62499 0 5.84995 0H161.059C164.282 0 167 2.65 167 5.9075V44.0837C167 47.34 164.282 50 161.059 50Z" fill="#A6A6A6"/>
<path d="M165.803 44.0851C165.803 46.7301 163.683 48.8726 161.06 48.8726H5.85055C3.22927 48.8726 1.10156 46.7301 1.10156 44.0851V5.9063C1.10156 3.26255 3.22927 1.11255 5.85055 1.11255H161.059C163.683 1.11255 165.802 3.26255 165.802 5.9063L165.803 44.0851Z" fill="black"/>
<path d="M37.2657 24.73C37.2298 20.7013 40.5302 18.7413 40.6812 18.65C38.812 15.8963 35.9149 15.52 34.8968 15.49C32.4635 15.2313 30.1033 16.9613 28.8638 16.9613C27.5995 16.9613 25.6907 15.515 23.6336 15.5575C20.9863 15.5988 18.5097 17.1475 17.1515 19.5525C14.3484 24.4563 16.4389 31.6625 19.1246 35.6263C20.468 37.5675 22.0378 39.735 24.0925 39.6588C26.1027 39.575 26.8536 38.3638 29.2794 38.3638C31.683 38.3638 32.3881 39.6588 34.4836 39.61C36.641 39.575 37.9993 37.66 39.2957 35.7013C40.8482 33.4763 41.4716 31.285 41.4964 31.1725C41.4457 31.155 37.3065 29.5588 37.2657 24.73Z" fill="white"/>
<path d="M33.3056 12.8825C34.3867 11.5163 35.1265 9.65751 34.9211 7.77126C33.3563 7.84126 31.3993 8.86501 30.2724 10.2013C29.2753 11.3788 28.3846 13.3088 28.6147 15.1238C30.3726 15.2563 32.1774 14.2275 33.3056 12.8825Z" fill="white"/>
<path d="M66.359 39.38H63.5497L62.0109 34.4938H56.6619L55.196 39.38H52.4609L57.7604 22.745H61.0336L66.359 39.38ZM61.547 32.4438L60.1553 28.1C60.0081 27.6563 59.7322 26.6113 59.3253 24.9663H59.2758C59.1137 25.6738 58.8527 26.7188 58.494 28.1L57.127 32.4438H61.547Z" fill="white"/>
<path d="M79.9861 33.235C79.9861 35.275 79.4406 36.8875 78.3495 38.0712C77.3723 39.125 76.1588 39.6512 74.7102 39.6512C73.1466 39.6512 72.0233 39.0837 71.3393 37.9487H71.2898V44.2675H68.6524V31.3337C68.6524 30.0512 68.619 28.735 68.5547 27.385H70.8741L71.0213 29.2862H71.0708C71.9504 27.8537 73.2851 27.1387 75.0763 27.1387C76.4767 27.1387 77.6457 27.6975 78.5809 28.8162C79.5185 29.9362 79.9861 31.4087 79.9861 33.235ZM77.2993 33.3325C77.2993 32.165 77.0395 31.2025 76.5175 30.445C75.9472 29.655 75.1815 29.26 74.2216 29.26C73.5709 29.26 72.9796 29.48 72.4514 29.9137C71.9219 30.3512 71.5755 30.9225 71.4135 31.63C71.3318 31.96 71.291 32.23 71.291 32.4425V34.4425C71.291 35.315 71.5557 36.0512 72.0852 36.6525C72.6146 37.2537 73.3024 37.5537 74.1486 37.5537C75.1419 37.5537 75.9151 37.1662 76.468 36.3937C77.0222 35.62 77.2993 34.6 77.2993 33.3325Z" fill="white"/>
<path d="M93.6412 33.235C93.6412 35.275 93.0956 36.8875 92.0033 38.0712C91.0273 39.125 89.8138 39.6512 88.3652 39.6512C86.8016 39.6512 85.6784 39.0837 84.9955 37.9487H84.946V44.2675H82.3087V31.3337C82.3087 30.0512 82.2753 28.735 82.2109 27.385H84.5304L84.6776 29.2862H84.7271C85.6054 27.8537 86.9401 27.1387 88.7326 27.1387C90.1317 27.1387 91.3007 27.6975 92.2384 28.8162C93.1723 29.9362 93.6412 31.4087 93.6412 33.235ZM90.9543 33.3325C90.9543 32.165 90.6933 31.2025 90.1713 30.445C89.601 29.655 88.8377 29.26 87.8766 29.26C87.2247 29.26 86.6346 29.48 86.1051 29.9137C85.5757 30.3512 85.2305 30.9225 85.0685 31.63C84.9881 31.96 84.946 32.23 84.946 32.4425V34.4425C84.946 35.315 85.2107 36.0512 85.7377 36.6525C86.2672 37.2525 86.955 37.5537 87.8036 37.5537C88.7969 37.5537 89.5701 37.1662 90.123 36.3937C90.6772 35.62 90.9543 34.6 90.9543 33.3325Z" fill="white"/>
<path d="M108.908 34.715C108.908 36.13 108.422 37.2812 107.446 38.17C106.374 39.1412 104.881 39.6263 102.962 39.6263C101.19 39.6263 99.7703 39.2812 98.6953 38.59L99.3064 36.3687C100.464 37.0763 101.735 37.4313 103.119 37.4313C104.112 37.4313 104.885 37.2037 105.441 36.7512C105.994 36.2987 106.27 35.6913 106.27 34.9338C106.27 34.2588 106.042 33.69 105.586 33.2288C105.132 32.7675 104.373 32.3388 103.314 31.9425C100.432 30.8563 98.9922 29.265 98.9922 27.1725C98.9922 25.805 99.4969 24.6838 100.508 23.8113C101.515 22.9375 102.858 22.5013 104.538 22.5013C106.036 22.5013 107.28 22.765 108.274 23.2913L107.614 25.4638C106.687 24.9538 105.638 24.6988 104.464 24.6988C103.536 24.6988 102.811 24.93 102.291 25.39C101.852 25.8013 101.632 26.3025 101.632 26.8963C101.632 27.5538 101.883 28.0975 102.388 28.525C102.827 28.92 103.625 29.3475 104.783 29.8088C106.199 30.385 107.24 31.0588 107.909 31.8313C108.576 32.6013 108.908 33.565 108.908 34.715Z" fill="white"/>
<path d="M117.628 29.385H114.721V35.2088C114.721 36.69 115.233 37.43 116.26 37.43C116.731 37.43 117.122 37.3888 117.431 37.3063L117.504 39.33C116.984 39.5263 116.3 39.625 115.453 39.625C114.411 39.625 113.597 39.3038 113.01 38.6625C112.425 38.02 112.13 36.9425 112.13 35.4288V29.3825H110.398V27.3825H112.13V25.1863L114.721 24.3963V27.3825H117.628V29.385Z" fill="white"/>
<path d="M130.744 33.2837C130.744 35.1274 130.222 36.6412 129.18 37.8249C128.088 39.0437 126.638 39.6512 124.831 39.6512C123.089 39.6512 121.703 39.0674 120.668 37.8999C119.634 36.7324 119.117 35.2587 119.117 33.4824C119.117 31.6237 119.649 30.1012 120.717 28.9174C121.782 27.7324 123.219 27.1399 125.027 27.1399C126.768 27.1399 128.17 27.7237 129.227 28.8924C130.239 30.0262 130.744 31.4899 130.744 33.2837ZM128.008 33.3699C128.008 32.2637 127.774 31.3149 127.3 30.5237C126.747 29.5662 125.957 29.0887 124.932 29.0887C123.872 29.0887 123.067 29.5674 122.514 30.5237C122.04 31.3162 121.807 32.2799 121.807 33.4199C121.807 34.5262 122.04 35.4749 122.514 36.2649C123.084 37.2224 123.881 37.6999 124.909 37.6999C125.916 37.6999 126.706 37.2124 127.277 36.2399C127.763 35.4337 128.008 34.4749 128.008 33.3699Z" fill="white"/>
<path d="M139.312 29.7287C139.051 29.68 138.773 29.655 138.481 29.655C137.553 29.655 136.835 30.0087 136.331 30.7175C135.891 31.3425 135.671 32.1325 135.671 33.0862V39.38H133.035L133.06 31.1625C133.06 29.78 133.027 28.5212 132.961 27.3862H135.258L135.355 29.6812H135.428C135.706 28.8925 136.145 28.2575 136.746 27.7812C137.334 27.3525 137.968 27.1387 138.653 27.1387C138.896 27.1387 139.116 27.1562 139.312 27.1875V29.7287Z" fill="white"/>
<path d="M151.112 32.815C151.112 33.2925 151.081 33.695 151.015 34.0237H143.103C143.134 35.2087 143.517 36.115 144.251 36.74C144.918 37.2987 145.78 37.5787 146.839 37.5787C148.011 37.5787 149.08 37.39 150.041 37.0112L150.454 38.8612C149.331 39.3562 148.005 39.6025 146.474 39.6025C144.634 39.6025 143.189 39.055 142.137 37.9612C141.088 36.8675 140.562 35.3987 140.562 33.5562C140.562 31.7475 141.051 30.2412 142.03 29.04C143.054 27.7575 144.438 27.1162 146.18 27.1162C147.891 27.1162 149.186 27.7575 150.065 29.04C150.762 30.0587 151.112 31.3187 151.112 32.815ZM148.597 32.1237C148.614 31.3337 148.442 30.6512 148.085 30.075C147.628 29.3337 146.927 28.9637 145.983 28.9637C145.121 28.9637 144.42 29.325 143.884 30.05C143.445 30.6262 143.184 31.3175 143.103 32.1225L148.597 32.1237Z" fill="white"/>
<path d="M60.6791 12.5113C60.6791 13.9826 60.2424 15.0901 59.3703 15.8338C58.5625 16.5201 57.4145 16.8638 55.9276 16.8638C55.1904 16.8638 54.5595 16.8313 54.0312 16.7663V8.72757C54.7203 8.61507 55.4625 8.55757 56.2641 8.55757C57.6805 8.55757 58.7481 8.86882 59.468 9.49132C60.2746 10.1951 60.6791 11.2013 60.6791 12.5113ZM59.3122 12.5476C59.3122 11.5938 59.0623 10.8626 58.5625 10.3526C58.0628 9.84382 57.3329 9.58882 56.3717 9.58882C55.9635 9.58882 55.6159 9.61632 55.3277 9.67382V15.7851C55.4872 15.8101 55.7792 15.8213 56.2035 15.8213C57.1956 15.8213 57.9613 15.5426 58.5007 14.9851C59.04 14.4276 59.3122 13.6151 59.3122 12.5476Z" fill="white"/>
<path d="M67.9302 13.7963C67.9302 14.7026 67.6741 15.4451 67.1619 16.0276C66.6251 16.6263 65.9138 16.9251 65.0256 16.9251C64.1696 16.9251 63.488 16.6388 62.9795 16.0638C62.4723 15.4901 62.2188 14.7663 62.2188 13.8938C62.2188 12.9813 62.4798 12.2326 63.0043 11.6513C63.5288 11.0701 64.2339 10.7788 65.1221 10.7788C65.9781 10.7788 66.6659 11.0651 67.1867 11.6388C67.6815 12.1963 67.9302 12.9163 67.9302 13.7963ZM66.5855 13.8388C66.5855 13.2951 66.4692 12.8288 66.2379 12.4401C65.9657 11.9701 65.5785 11.7351 65.0751 11.7351C64.5543 11.7351 64.1584 11.9701 63.8863 12.4401C63.6537 12.8288 63.5387 13.3026 63.5387 13.8626C63.5387 14.4063 63.6549 14.8726 63.8863 15.2613C64.1671 15.7313 64.558 15.9663 65.0627 15.9663C65.5575 15.9663 65.9459 15.7276 66.2255 15.2488C66.4655 14.8526 66.5855 14.3826 66.5855 13.8388Z" fill="white"/>
<path d="M77.6443 10.8988L75.8196 16.7913H74.6321L73.8763 14.2326C73.6845 13.5938 73.5287 12.9588 73.4074 12.3288H73.3839C73.2713 12.9763 73.1155 13.6101 72.9151 14.2326L72.1122 16.7913H70.9111L69.1953 10.8988H70.5276L71.1869 13.7001C71.3465 14.3626 71.4776 14.9938 71.5828 15.5913H71.6063C71.7028 15.0988 71.8624 14.4713 72.0875 13.7126L72.9151 10.9001H73.9715L74.7645 13.6526C74.9562 14.3238 75.1121 14.9701 75.232 15.5926H75.2679C75.3558 14.9863 75.4881 14.3401 75.6638 13.6526L76.3714 10.9001H77.6443V10.8988Z" fill="white"/>
<path d="M84.3692 16.7914H83.0728V13.4164C83.0728 12.3764 82.6819 11.8564 81.8976 11.8564C81.5129 11.8564 81.2024 11.9989 80.9612 12.2851C80.7225 12.5714 80.6012 12.9089 80.6012 13.2951V16.7901H79.3048V12.5826C79.3048 12.0651 79.2887 11.5039 79.2578 10.8964H80.3971L80.4577 11.8176H80.4936C80.6445 11.5314 80.8697 11.2951 81.1653 11.1064C81.5166 10.8864 81.91 10.7751 82.3405 10.7751C82.8848 10.7751 83.3376 10.9526 83.6975 11.3089C84.1453 11.7451 84.3692 12.3964 84.3692 13.2614V16.7914Z" fill="white"/>
<path d="M87.9436 16.7913H86.6484V8.19507H87.9436V16.7913Z" fill="white"/>
<path d="M95.5708 13.7963C95.5708 14.7026 95.3147 15.4451 94.8026 16.0276C94.2657 16.6263 93.5532 16.9251 92.6662 16.9251C91.809 16.9251 91.1273 16.6388 90.6202 16.0638C90.113 15.4901 89.8594 14.7663 89.8594 13.8938C89.8594 12.9813 90.1204 12.2326 90.6449 11.6513C91.1694 11.0701 91.8745 10.7788 92.7615 10.7788C93.6187 10.7788 94.3053 11.0651 94.8273 11.6388C95.3221 12.1963 95.5708 12.9163 95.5708 13.7963ZM94.2249 13.8388C94.2249 13.2951 94.1086 12.8288 93.8773 12.4401C93.6064 11.9701 93.2179 11.7351 92.7157 11.7351C92.1937 11.7351 91.7978 11.9701 91.5269 12.4401C91.2943 12.8288 91.1793 13.3026 91.1793 13.8626C91.1793 14.4063 91.2956 14.8726 91.5269 15.2613C91.8077 15.7313 92.1986 15.9663 92.7033 15.9663C93.1981 15.9663 93.5853 15.7276 93.8649 15.2488C94.1061 14.8526 94.2249 14.3826 94.2249 13.8388Z" fill="white"/>
<path d="M101.85 16.7913H100.686L100.589 16.1126H100.553C100.155 16.6538 99.5873 16.9251 98.85 16.9251C98.2995 16.9251 97.8542 16.7463 97.519 16.3913C97.2147 16.0688 97.0625 15.6676 97.0625 15.1913C97.0625 14.4713 97.3594 13.9226 97.9569 13.5426C98.5531 13.1626 99.3918 12.9763 100.472 12.9851V12.8751C100.472 12.0988 100.069 11.7113 99.2607 11.7113C98.6855 11.7113 98.1783 11.8576 97.7404 12.1476L97.4769 11.2876C98.0187 10.9488 98.688 10.7788 99.4772 10.7788C101.001 10.7788 101.766 11.5913 101.766 13.2163V15.3863C101.766 15.9751 101.794 16.4438 101.85 16.7913ZM100.504 14.7663V13.8576C99.0739 13.8326 98.3589 14.2288 98.3589 15.0451C98.3589 15.3526 98.4406 15.5826 98.6076 15.7363C98.7746 15.8901 98.9873 15.9663 99.2409 15.9663C99.5254 15.9663 99.7914 15.8751 100.034 15.6938C100.278 15.5113 100.427 15.2801 100.483 14.9963C100.497 14.9326 100.504 14.8551 100.504 14.7663Z" fill="white"/>
<path d="M109.215 16.7913H108.065L108.004 15.8451H107.968C107.601 16.5651 106.975 16.9251 106.095 16.9251C105.393 16.9251 104.808 16.6463 104.344 16.0888C103.88 15.5313 103.648 14.8076 103.648 13.9188C103.648 12.9651 103.9 12.1926 104.404 11.6026C104.893 11.0526 105.492 10.7776 106.204 10.7776C106.987 10.7776 107.535 11.0438 107.847 11.5776H107.872V8.19507H109.169V15.2038C109.169 15.7776 109.184 16.3063 109.215 16.7913ZM107.872 14.3063V13.3238C107.872 13.1538 107.859 13.0163 107.836 12.9113C107.763 12.5963 107.606 12.3313 107.367 12.1176C107.126 11.9038 106.835 11.7963 106.5 11.7963C106.016 11.7963 105.638 11.9901 105.359 12.3788C105.083 12.7676 104.944 13.2638 104.944 13.8701C104.944 14.4526 105.076 14.9251 105.342 15.2888C105.623 15.6763 106.001 15.8701 106.475 15.8701C106.901 15.8701 107.241 15.7088 107.499 15.3851C107.749 15.0863 107.872 14.7263 107.872 14.3063Z" fill="white"/>
<path d="M120.305 13.7963C120.305 14.7026 120.049 15.4451 119.537 16.0276C119 16.6263 118.29 16.9251 117.401 16.9251C116.546 16.9251 115.864 16.6388 115.355 16.0638C114.847 15.4901 114.594 14.7663 114.594 13.8938C114.594 12.9813 114.855 12.2326 115.379 11.6513C115.904 11.0701 116.609 10.7788 117.498 10.7788C118.353 10.7788 119.042 11.0651 119.562 11.6388C120.057 12.1963 120.305 12.9163 120.305 13.7963ZM118.962 13.8388C118.962 13.2951 118.845 12.8288 118.614 12.4401C118.341 11.9701 117.955 11.7351 117.45 11.7351C116.931 11.7351 116.535 11.9701 116.261 12.4401C116.029 12.8288 115.914 13.3026 115.914 13.8626C115.914 14.4063 116.03 14.8726 116.261 15.2613C116.542 15.7313 116.933 15.9663 117.438 15.9663C117.933 15.9663 118.322 15.7276 118.602 15.2488C118.841 14.8526 118.962 14.3826 118.962 13.8388Z" fill="white"/>
<path d="M127.274 16.7913H125.979V13.4163C125.979 12.3763 125.588 11.8563 124.803 11.8563C124.418 11.8563 124.107 11.9988 123.867 12.2851C123.627 12.5713 123.507 12.9088 123.507 13.2951V16.7901H122.21V12.5826C122.21 12.0651 122.195 11.5038 122.164 10.8963H123.302L123.363 11.8176H123.399C123.551 11.5313 123.776 11.2951 124.07 11.1063C124.423 10.8863 124.815 10.7751 125.247 10.7751C125.79 10.7751 126.243 10.9526 126.603 11.3088C127.052 11.7451 127.274 12.3963 127.274 13.2613V16.7913Z" fill="white"/>
<path d="M135.997 11.8801H134.569V14.7426C134.569 15.4701 134.823 15.8339 135.325 15.8339C135.558 15.8339 135.751 15.8139 135.903 15.7726L135.936 16.7664C135.68 16.8639 135.344 16.9126 134.929 16.9126C134.417 16.9126 134.019 16.7551 133.731 16.4401C133.441 16.1251 133.298 15.5951 133.298 14.8514V11.8801H132.445V10.8989H133.298V9.8189L134.568 9.4314V10.8976H135.996L135.997 11.8801Z" fill="white"/>
<path d="M142.861 16.7913H141.564V13.4413C141.564 12.3851 141.173 11.8563 140.39 11.8563C139.789 11.8563 139.378 12.1626 139.153 12.7751C139.114 12.9038 139.092 13.0613 139.092 13.2463V16.7901H137.797V8.19507H139.092V11.7463H139.117C139.525 11.1001 140.11 10.7776 140.868 10.7776C141.405 10.7776 141.849 10.9551 142.202 11.3113C142.641 11.7551 142.861 12.4151 142.861 13.2876V16.7913Z" fill="white"/>
<path d="M149.942 13.5663C149.942 13.8013 149.925 13.9988 149.894 14.1601H146.006C146.023 14.7426 146.209 15.1863 146.569 15.4938C146.898 15.7688 147.322 15.9063 147.842 15.9063C148.417 15.9063 148.941 15.8138 149.414 15.6276L149.617 16.5376C149.064 16.7801 148.413 16.9013 147.66 16.9013C146.757 16.9013 146.046 16.6326 145.531 16.0951C145.014 15.5576 144.758 14.8363 144.758 13.9313C144.758 13.0426 144.997 12.3026 145.478 11.7126C145.98 11.0826 146.659 10.7676 147.516 10.7676C148.355 10.7676 148.992 11.0826 149.423 11.7126C149.77 12.2126 149.942 12.8313 149.942 13.5663ZM148.705 13.2276C148.715 12.8388 148.63 12.5038 148.454 12.2213C148.229 11.8576 147.886 11.6751 147.422 11.6751C146.999 11.6751 146.654 11.8526 146.391 12.2088C146.175 12.4926 146.048 12.8313 146.006 13.2276H148.705Z" fill="white"/>
</g>
<defs>
<clipPath id="clip0_2507_18686">
<rect width="167" height="50" fill="white"/>
</clipPath>
</defs>
</svg>
