<svg width="66" height="64" viewBox="0 0 66 64" fill="none" xmlns="http://www.w3.org/2000/svg">
<path d="M50.39 24C57.4358 26.7467 57.4358 26.9733 58.1961 26.44C58.9563 25.9067 58.7934 26.88 58.7934 5.33333C58.7934 3.91885 58.2213 2.56229 57.2029 1.5621C56.1845 0.561903 54.8033 0 53.3631 0L37.0722 0C35.948 0.0053608 34.8532 0.353263 33.9389 0.995698C33.0246 1.63813 32.3359 2.54343 31.9677 3.58667C30.0807 2.33333 30.1214 2.66667 12.6358 2.66667C11.1956 2.66667 9.81442 3.22857 8.79604 4.22876C7.77766 5.22896 7.20554 6.58551 7.20554 8C7.20554 29.56 6.9476 28.5333 7.80287 29.1067C8.65815 29.68 8.56312 29.4533 15.6089 26.6667H28.9268C30.0509 26.6613 31.1457 26.3134 32.06 25.671C32.9743 25.0285 33.6631 24.1232 34.0312 23.08C35.864 24.3067 36.0133 24 50.39 24ZM34.3571 5.33333C34.3571 4.62609 34.6431 3.94781 35.1523 3.44772C35.6615 2.94762 36.3521 2.66667 37.0722 2.66667H53.3631C54.0832 2.66667 54.7738 2.94762 55.283 3.44772C55.7922 3.94781 56.0783 4.62609 56.0783 5.33333V23.36C50.7973 21.3333 51.0281 21.3333 50.648 21.3333H37.0722C36.3521 21.3333 35.6615 21.0524 35.1523 20.5523C34.6431 20.0522 34.3571 19.3739 34.3571 18.6667V5.33333ZM31.6419 21.3333C31.6419 22.0406 31.3558 22.7189 30.8467 23.219C30.3375 23.719 29.6469 24 28.9268 24H15.351C14.9709 24 15.2017 24 9.92069 26.0267V8C9.92069 7.29276 10.2068 6.61448 10.7159 6.11438C11.2251 5.61428 11.9157 5.33333 12.6358 5.33333H28.9268C29.6469 5.33333 30.3375 5.61428 30.8467 6.11438C31.3558 6.61448 31.6419 7.29276 31.6419 8V21.3333ZM60.151 52V40C60.151 37.171 59.0068 34.4579 56.97 32.4575C54.9332 30.4571 52.1708 29.3333 49.2904 29.3333C46.41 29.3333 43.6475 30.4571 41.6108 32.4575C39.574 34.4579 38.4298 37.171 38.4298 40V52C35.158 54.4267 35.7146 57.24 35.7146 62.6667C35.7146 63.0203 35.8577 63.3594 36.1123 63.6095C36.3668 63.8595 36.7122 64 37.0722 64H61.5086C61.8686 64 62.2139 63.8595 62.4685 63.6095C62.7231 63.3594 62.8661 63.0203 62.8661 62.6667C62.8661 57.9867 63.5449 54.56 60.151 52ZM41.1449 40C41.1449 37.8783 42.0031 35.8434 43.5307 34.3431C45.0583 32.8429 47.1301 32 49.2904 32C51.4507 32 53.5225 32.8429 55.0501 34.3431C56.5777 35.8434 57.4358 37.8783 57.4358 40V50.8C56.0863 50.6213 54.7218 50.5766 53.3631 50.6667V49.0933C55.4266 47.24 55.2773 45.56 56.0783 40.1867C56.1056 39.9966 56.0909 39.8029 56.035 39.6189C55.9792 39.435 55.8835 39.265 55.7546 39.1207C55.6257 38.9764 55.4666 38.8611 55.2882 38.7827C55.1097 38.7044 54.9162 38.6648 54.7207 38.6667C53.6425 38.7002 52.5688 38.5151 51.5668 38.1228C50.5647 37.7305 49.6557 37.1395 48.8967 36.3867C48.7446 36.2377 48.5586 36.1263 48.3541 36.0617C48.1497 35.997 47.9325 35.981 47.7204 36.0148C47.5084 36.0487 47.3076 36.1314 47.1344 36.2563C46.9613 36.3813 46.8208 36.5447 46.7246 36.7333C46.5054 37.3044 46.1134 37.7959 45.6013 38.1415C45.0891 38.4872 44.4815 38.6705 43.8601 38.6667C43.6646 38.6648 43.4711 38.7044 43.2926 38.7827C43.1142 38.8611 42.955 38.9764 42.8261 39.1207C42.6972 39.265 42.6016 39.435 42.5457 39.6189C42.4899 39.8029 42.4751 39.9966 42.5025 40.1867C43.2492 45.36 43.1406 47.24 45.2177 49.0933V50.6667C43.859 50.5766 42.4945 50.6213 41.1449 50.8V40ZM52.5893 45.1867C52.4654 45.9585 52.065 46.6616 51.4603 47.1693C50.8555 47.677 50.086 47.956 49.2904 47.956C48.4948 47.956 47.7253 47.677 47.1205 47.1693C46.5157 46.6616 46.1154 45.9585 45.9915 45.1867L45.3941 41.1867C46.5052 40.8849 47.4983 40.2625 48.2451 39.4C49.6944 40.4395 51.3913 41.096 53.1731 41.3067L52.5893 45.1867ZM47.9328 50.52C48.8233 50.7458 49.7575 50.7458 50.648 50.52C50.648 51.72 50.9195 51.2133 49.2904 52.8133C47.6613 51.1733 47.9328 51.6933 47.9328 50.4933V50.52ZM60.151 61.3333H38.4298V57.3333C38.4298 56.2725 38.8589 55.2551 39.6227 54.5049C40.3864 53.7548 41.4224 53.3333 42.5025 53.3333H46.0186C49.6569 56.9067 48.9103 56.9333 52.5621 53.3333H56.0783C57.1584 53.3333 58.1943 53.7548 58.9581 54.5049C59.7219 55.2551 60.151 56.2725 60.151 57.3333V61.3333ZM23.4964 50.6667H20.7813V49.3333C24.2024 46.8 23.4964 44 23.4964 36C23.4964 34.9391 23.0674 33.9217 22.3036 33.1716C21.5398 32.4214 20.5039 32 19.4237 32C9.05184 32 9.29621 31.7733 8.76675 32.6267C8.2373 33.48 8.76675 34.0267 9.6356 35.7467C9.98857 36.44 9.92069 36.7867 9.92069 38.6667C9.92069 43.3467 9.2419 46.7733 12.6358 49.3333V50.6667H9.92069C8.12043 50.6667 6.39391 51.369 5.12094 52.6193C3.84796 53.8695 3.13281 55.5652 3.13281 57.3333V62.6667C3.13281 63.0203 3.27584 63.3594 3.53044 63.6095C3.78503 63.8595 4.13034 64 4.49039 64H28.9268C29.2868 64 29.6321 63.8595 29.8867 63.6095C30.1413 63.3594 30.2843 63.0203 30.2843 62.6667V57.3333C30.2843 55.5652 29.5692 53.8695 28.2962 52.6193C27.0232 51.369 25.2967 50.6667 23.4964 50.6667ZM20.7813 44C20.7813 45.0609 20.3522 46.0783 19.5884 46.8284C18.8246 47.5786 17.7887 48 16.7086 48C15.6284 48 14.5925 47.5786 13.8287 46.8284C13.0649 46.0783 12.6358 45.0609 12.6358 44V40H20.7813V44ZM19.4237 34.6667C19.7838 34.6667 20.1291 34.8071 20.3837 35.0572C20.6383 35.3072 20.7813 35.6464 20.7813 36V37.3333C11.4683 37.3333 12.6358 37.4933 12.6358 36.9467C12.6375 36.1586 12.4613 35.3799 12.12 34.6667H19.4237ZM16.7086 50.6667C18.4191 50.6667 18.0661 50.1067 18.0661 51.4533L16.7086 52.7867L15.351 51.4533C15.351 50.1067 14.998 50.6667 16.7086 50.6667ZM27.5692 61.3333H5.84796V57.3333C5.84796 56.2725 6.27705 55.2551 7.04084 54.5049C7.80462 53.7548 8.84054 53.3333 9.92069 53.3333H13.4368C17.0751 56.9067 16.3284 56.9333 19.9803 53.3333H23.4964C24.5766 53.3333 25.6125 53.7548 26.3763 54.5049C27.1401 55.2551 27.5692 56.2725 27.5692 57.3333V61.3333Z" fill="#275023"/>
<path d="M27.5701 7.99998H13.9943C13.6342 7.99998 13.2889 8.14046 13.0343 8.3905C12.7797 8.64055 12.6367 8.97969 12.6367 9.33331C12.6367 9.68693 12.7797 10.0261 13.0343 10.2761C13.2889 10.5262 13.6342 10.6666 13.9943 10.6666H27.5701C27.9301 10.6666 28.2754 10.5262 28.53 10.2761C28.7846 10.0261 28.9276 9.68693 28.9276 9.33331C28.9276 8.97969 28.7846 8.64055 28.53 8.3905C28.2754 8.14046 27.9301 7.99998 27.5701 7.99998ZM27.5701 18.6666H13.9943C13.6342 18.6666 13.2889 18.8071 13.0343 19.0572C12.7797 19.3072 12.6367 19.6464 12.6367 20C12.6367 20.3536 12.7797 20.6927 13.0343 20.9428C13.2889 21.1928 13.6342 21.3333 13.9943 21.3333H27.5701C27.9301 21.3333 28.2754 21.1928 28.53 20.9428C28.7846 20.6927 28.9276 20.3536 28.9276 20C28.9276 19.6464 28.7846 19.3072 28.53 19.0572C28.2754 18.8071 27.9301 18.6666 27.5701 18.6666ZM27.5701 13.3333H13.9943C13.6342 13.3333 13.2889 13.4738 13.0343 13.7238C12.7797 13.9739 12.6367 14.313 12.6367 14.6666C12.6367 15.0203 12.7797 15.3594 13.0343 15.6095C13.2889 15.8595 13.6342 16 13.9943 16H27.5701C27.9301 16 28.2754 15.8595 28.53 15.6095C28.7846 15.3594 28.9276 15.0203 28.9276 14.6666C28.9276 14.313 28.7846 13.9739 28.53 13.7238C28.2754 13.4738 27.9301 13.3333 27.5701 13.3333ZM38.4307 7.99998H52.0064C52.3665 7.99998 52.7118 7.8595 52.9664 7.60946C53.221 7.35941 53.364 7.02027 53.364 6.66665C53.364 6.31302 53.221 5.97389 52.9664 5.72384C52.7118 5.47379 52.3665 5.33331 52.0064 5.33331H38.4307C38.0706 5.33331 37.7253 5.47379 37.4707 5.72384C37.2161 5.97389 37.0731 6.31302 37.0731 6.66665C37.0731 7.02027 37.2161 7.35941 37.4707 7.60946C37.7253 7.8595 38.0706 7.99998 38.4307 7.99998ZM38.4307 18.6666H52.0064C52.3665 18.6666 52.7118 18.5262 52.9664 18.2761C53.221 18.0261 53.364 17.6869 53.364 17.3333C53.364 16.9797 53.221 16.6406 52.9664 16.3905C52.7118 16.1405 52.3665 16 52.0064 16H38.4307C38.0706 16 37.7253 16.1405 37.4707 16.3905C37.2161 16.6406 37.0731 16.9797 37.0731 17.3333C37.0731 17.6869 37.2161 18.0261 37.4707 18.2761C37.7253 18.5262 38.0706 18.6666 38.4307 18.6666ZM38.4307 13.3333H52.0064C52.3665 13.3333 52.7118 13.1928 52.9664 12.9428C53.221 12.6927 53.364 12.3536 53.364 12C53.364 11.6464 53.221 11.3072 52.9664 11.0572C52.7118 10.8071 52.3665 10.6666 52.0064 10.6666H38.4307C38.0706 10.6666 37.7253 10.8071 37.4707 11.0572C37.2161 11.3072 37.0731 11.6464 37.0731 12C37.0731 12.3536 37.2161 12.6927 37.4707 12.9428C37.7253 13.1928 38.0706 13.3333 38.4307 13.3333Z" fill="#275023"/>
</svg>
