<svg width="65" height="64" viewBox="0 0 65 64" fill="none" xmlns="http://www.w3.org/2000/svg">
<path d="M29.7513 6.66667H35.0846C35.4383 6.66667 35.7774 6.52619 36.0274 6.27614C36.2775 6.02609 36.418 5.68696 36.418 5.33333C36.418 4.97971 36.2775 4.64057 36.0274 4.39052C35.7774 4.14048 35.4383 4 35.0846 4H29.7513C29.3977 4 29.0585 4.14048 28.8085 4.39052C28.5584 4.64057 28.418 4.97971 28.418 5.33333C28.418 5.68696 28.5584 6.02609 28.8085 6.27614C29.0585 6.52619 29.3977 6.66667 29.7513 6.66667Z" fill="#275023"/>
<path d="M56.4193 17.3333H51.0859V5.33333C51.0859 3.91885 50.524 2.56229 49.5238 1.5621C48.5236 0.561903 47.1671 0 45.7526 0L19.0859 0C17.6714 0 16.3149 0.561903 15.3147 1.5621C14.3145 2.56229 13.7526 3.91885 13.7526 5.33333V20H8.41927C7.00478 20 5.64823 20.5619 4.64803 21.5621C3.64784 22.5623 3.08594 23.9188 3.08594 25.3333V38.6667C3.08594 40.0812 3.64784 41.4377 4.64803 42.4379C5.64823 43.4381 7.00478 44 8.41927 44H13.7526V58.6667C13.7526 60.0812 14.3145 61.4377 15.3147 62.4379C16.3149 63.4381 17.6714 64 19.0859 64H45.7526C47.1671 64 48.5236 63.4381 49.5238 62.4379C50.524 61.4377 51.0859 60.0812 51.0859 58.6667V41.3333H56.4193C57.8338 41.3333 59.1903 40.7714 60.1905 39.7712C61.1907 38.771 61.7526 37.4145 61.7526 36V22.6667C61.7526 21.2522 61.1907 19.8956 60.1905 18.8954C59.1903 17.8952 57.8338 17.3333 56.4193 17.3333ZM16.4193 5.33333C16.4193 4.62609 16.7002 3.94781 17.2003 3.44772C17.7004 2.94762 18.3787 2.66667 19.0859 2.66667H45.7526C46.4599 2.66667 47.1381 2.94762 47.6382 3.44772C48.1383 3.94781 48.4193 4.62609 48.4193 5.33333V6.66667C38.4193 6.66667 39.7259 6.26667 38.4193 8H26.4193C25.0859 6.22667 26.4193 6.66667 16.4193 6.66667V5.33333ZM5.7526 38.6667V25.3333C5.7526 24.6261 6.03356 23.9478 6.53365 23.4477C7.03375 22.9476 7.71203 22.6667 8.41927 22.6667H24.4193C25.1265 22.6667 25.8048 22.9476 26.3049 23.4477C26.805 23.9478 27.0859 24.6261 27.0859 25.3333V43.36L22.2459 41.4267C21.8726 41.3333 22.7126 41.3333 8.41927 41.3333C7.71203 41.3333 7.03375 41.0524 6.53365 40.5523C6.03356 40.0522 5.7526 39.3739 5.7526 38.6667ZM48.4193 58.6667C48.4193 59.3739 48.1383 60.0522 47.6382 60.5523C47.1381 61.0524 46.4599 61.3333 45.7526 61.3333H19.0859C18.3787 61.3333 17.7004 61.0524 17.2003 60.5523C16.7002 60.0522 16.4193 59.3739 16.4193 58.6667V56H48.4193V58.6667ZM48.4193 53.3333H16.4193V44H21.4993C28.4193 46.7467 28.4193 46.9733 29.1659 46.44C29.9126 45.9067 29.7526 46.88 29.7526 25.3333C29.7526 23.9188 29.1907 22.5623 28.1905 21.5621C27.1903 20.5619 25.8338 20 24.4193 20H16.4193V9.33333H24.0859C24.7393 10.2 24.9659 10.6667 25.7526 10.6667C41.2993 10.6667 39.4193 11.1067 40.7526 9.33333H48.4193V17.3333H40.4193C39.0048 17.3333 37.6482 17.8952 36.648 18.8954C35.6478 19.8956 35.0859 21.2522 35.0859 22.6667V42.6667C35.0859 43.0203 35.2264 43.3594 35.4765 43.6095C35.7265 43.8595 36.0657 44 36.4193 44C36.7659 44 36.5126 44 43.3393 41.3333H48.4193V53.3333ZM59.0859 36C59.0859 36.7072 58.805 37.3855 58.3049 37.8856C57.8048 38.3857 57.1265 38.6667 56.4193 38.6667H43.0859C42.7126 38.6667 42.9393 38.6667 37.7526 40.6933V22.6667C37.7526 21.9594 38.0336 21.2811 38.5337 20.781C39.0338 20.281 39.712 20 40.4193 20H56.4193C57.1265 20 57.8048 20.281 58.3049 20.781C58.805 21.2811 59.0859 21.9594 59.0859 22.6667V36Z" fill="#275023"/>
<path d="M9.7513 28H23.0846C23.4383 28 23.7774 27.8595 24.0274 27.6095C24.2775 27.3594 24.418 27.0203 24.418 26.6667C24.418 26.3131 24.2775 25.9739 24.0274 25.7239C23.7774 25.4738 23.4383 25.3334 23.0846 25.3334H9.7513C9.39768 25.3334 9.05854 25.4738 8.80849 25.7239C8.55844 25.9739 8.41797 26.3131 8.41797 26.6667C8.41797 27.0203 8.55844 27.3594 8.80849 27.6095C9.05854 27.8595 9.39768 28 9.7513 28ZM23.0846 36H9.7513C9.39768 36 9.05854 36.1405 8.80849 36.3905C8.55844 36.6406 8.41797 36.9797 8.41797 37.3334C8.41797 37.687 8.55844 38.0261 8.80849 38.2762C9.05854 38.5262 9.39768 38.6667 9.7513 38.6667H23.0846C23.4383 38.6667 23.7774 38.5262 24.0274 38.2762C24.2775 38.0261 24.418 37.687 24.418 37.3334C24.418 36.9797 24.2775 36.6406 24.0274 36.3905C23.7774 36.1405 23.4383 36 23.0846 36ZM9.7513 33.3334H23.0846C23.4383 33.3334 23.7774 33.1929 24.0274 32.9428C24.2775 32.6928 24.418 32.3536 24.418 32C24.418 31.6464 24.2775 31.3073 24.0274 31.0572C23.7774 30.8072 23.4383 30.6667 23.0846 30.6667H9.7513C9.39768 30.6667 9.05854 30.8072 8.80849 31.0572C8.55844 31.3073 8.41797 31.6464 8.41797 32C8.41797 32.3536 8.55844 32.6928 8.80849 32.9428C9.05854 33.1929 9.39768 33.3334 9.7513 33.3334ZM55.0846 22.6667H41.7513C41.3977 22.6667 41.0585 22.8072 40.8085 23.0572C40.5584 23.3073 40.418 23.6464 40.418 24C40.418 24.3536 40.5584 24.6928 40.8085 24.9428C41.0585 25.1929 41.3977 25.3334 41.7513 25.3334H55.0846C55.4383 25.3334 55.7774 25.1929 56.0274 24.9428C56.2775 24.6928 56.418 24.3536 56.418 24C56.418 23.6464 56.2775 23.3073 56.0274 23.0572C55.7774 22.8072 55.4383 22.6667 55.0846 22.6667ZM55.0846 33.3334H41.7513C41.3977 33.3334 41.0585 33.4738 40.8085 33.7239C40.5584 33.9739 40.418 34.3131 40.418 34.6667C40.418 35.0203 40.5584 35.3594 40.8085 35.6095C41.0585 35.8595 41.3977 36 41.7513 36H55.0846C55.4383 36 55.7774 35.8595 56.0274 35.6095C56.2775 35.3594 56.418 35.0203 56.418 34.6667C56.418 34.3131 56.2775 33.9739 56.0274 33.7239C55.7774 33.4738 55.4383 33.3334 55.0846 33.3334ZM55.0846 28H41.7513C41.3977 28 41.0585 28.1405 40.8085 28.3905C40.5584 28.6406 40.418 28.9797 40.418 29.3334C40.418 29.687 40.5584 30.0261 40.8085 30.2762C41.0585 30.5262 41.3977 30.6667 41.7513 30.6667H55.0846C55.4383 30.6667 55.7774 30.5262 56.0274 30.2762C56.2775 30.0261 56.418 29.687 56.418 29.3334C56.418 28.9797 56.2775 28.6406 56.0274 28.3905C55.7774 28.1405 55.4383 28 55.0846 28Z" fill="#275023"/>
</svg>
