<svg width="65" height="64" viewBox="0 0 65 64" fill="none" xmlns="http://www.w3.org/2000/svg">
<g clip-path="url(#clip0_1858_29434)">
<path d="M61.6754 26.16C59.342 25.4933 57.142 25.1733 55.9554 22.28C54.7687 19.3867 56.2487 17.4267 57.2887 15.5467C57.7066 14.7826 57.8637 13.903 57.7362 13.0415C57.6087 12.1799 57.2034 11.3836 56.582 10.7733L53.8087 8.00001C53.1937 7.38508 52.3951 6.98734 51.5337 6.86704C50.6724 6.74674 49.7953 6.91045 49.0354 7.33334L47.1687 8.37335C46.4264 8.78802 45.5998 9.02907 44.7509 9.07837C43.9021 9.12768 43.0531 8.98397 42.2678 8.65803C41.4824 8.33209 40.7812 7.83241 40.2167 7.19653C39.6523 6.56065 39.2392 5.80511 39.0087 4.98668L38.422 2.94668C38.1913 2.10121 37.6892 1.35494 36.993 0.822576C36.2969 0.290209 35.4451 0.00121347 34.5687 1.12087e-05H30.5687C29.6992 -0.00204648 28.8528 0.279258 28.1575 0.801329C27.4622 1.3234 26.9559 2.05781 26.7154 2.89334C26.0487 5.26668 25.6754 7.45334 22.862 8.61335C20.0487 9.77334 17.9287 8.30668 16.102 7.28001C15.3395 6.87022 14.4646 6.71888 13.6087 6.8487C12.7528 6.97853 11.9621 7.38252 11.3554 8.00001L8.58204 10.7733C7.96711 11.3883 7.56937 12.187 7.44907 13.0483C7.32878 13.9097 7.49248 14.7867 7.91538 15.5467L8.95538 17.4133C9.36742 18.1562 9.60636 18.9825 9.65435 19.8305C9.70234 20.6786 9.55815 21.5266 9.23253 22.3112C8.90692 23.0957 8.40829 23.7966 7.77387 24.3615C7.13946 24.9263 6.38565 25.3406 5.56871 25.5733L3.52871 26.16C2.68325 26.3908 1.93697 26.8929 1.40461 27.589C0.872241 28.2852 0.583245 29.1369 0.582042 30.0133V34.0133C0.579985 34.8828 0.861289 35.7293 1.38336 36.4246C1.90543 37.1199 2.63984 37.6261 3.47538 37.8667C5.75538 38.5067 8.00871 38.8267 9.20871 41.7467C10.4087 44.6667 8.91538 46.6 7.87538 48.48C7.46393 49.2412 7.3104 50.1153 7.43781 50.9711C7.56522 51.8269 7.96671 52.6184 8.58204 53.2267L11.3554 56C11.9704 56.6149 12.769 57.0127 13.6304 57.133C14.4917 57.2533 15.3688 57.0896 16.1287 56.6667L18.022 55.6133C18.7621 55.206 19.5842 54.9702 20.4276 54.9231C21.271 54.8761 22.1142 55.0192 22.895 55.3417C23.6757 55.6642 24.374 56.158 24.9383 56.7866C25.5027 57.4152 25.9186 58.1625 26.1554 58.9733L26.742 61.0533C26.9728 61.8988 27.4749 62.6451 28.1711 63.1774C28.8672 63.7098 29.719 63.9988 30.5954 64H34.5954C35.4649 64.0021 36.3113 63.7208 37.0066 63.1987C37.7019 62.6766 38.2082 61.9422 38.4487 61.1067C39.0887 58.8267 39.4087 56.5733 42.3287 55.3733C45.2487 54.1733 47.1954 55.6667 49.062 56.7067C49.822 57.1296 50.6991 57.2933 51.5604 57.173C52.4217 57.0527 53.2204 56.6549 53.8354 56.04L56.582 53.2267C57.197 52.6117 57.5947 51.813 57.715 50.9517C57.8353 50.0904 57.6716 49.2133 57.2487 48.4533L56.1954 46.56C55.7904 45.8214 55.556 45.0014 55.5095 44.1603C55.463 43.3192 55.6054 42.4783 55.9264 41.6995C56.2474 40.9207 56.7388 40.2236 57.3645 39.6596C57.9901 39.0955 58.7342 38.6788 59.542 38.44L61.6354 37.84C62.4808 37.6092 63.2271 37.1072 63.7595 36.411C64.2919 35.7148 64.5808 34.8631 64.582 33.9867V29.9867C64.5775 29.12 64.2916 28.2783 63.7674 27.5882C63.2432 26.8981 62.509 26.3969 61.6754 26.16ZM61.9154 33.9867C61.9154 35.1467 61.062 35.24 58.8487 35.8667C57.6517 36.2149 56.5484 36.8281 55.6206 37.6608C54.6928 38.4935 53.9643 39.5244 53.4892 40.6769C53.0141 41.8295 52.8045 43.0743 52.876 44.3189C52.9474 45.5635 53.2981 46.7761 53.9021 47.8667C54.9554 49.76 55.5821 50.5333 54.7287 51.3467C51.8487 54.24 51.4354 55 50.3287 54.3867C47.8354 53.0533 45.222 51.2933 41.222 52.9467C35.0887 55.48 37.222 61.3467 34.5554 61.3467C29.022 61.3467 29.742 61.9467 28.702 58.2933C28.1972 56.5624 27.1445 55.0419 25.702 53.96C24.2596 52.8782 22.5051 52.2933 20.702 52.2933C18.2354 52.2933 16.8487 53.2533 14.8087 54.3867C13.702 55 13.262 54.2133 10.4087 51.3467C9.52871 50.4667 10.2487 49.64 11.2354 47.8667C11.8391 46.7752 12.1893 45.5617 12.2599 44.3164C12.3306 43.071 12.1198 41.8257 11.6433 40.673C11.1669 39.5202 10.4369 38.4896 9.50761 37.6575C8.57832 36.8255 7.47358 36.2134 6.27538 35.8667C4.27538 35.28 3.24871 35.2133 3.24871 33.9867C3.24871 29.9067 2.99538 29.08 4.22204 28.7333C6.88871 27.96 10.022 27.2933 11.662 23.3333C13.302 19.3733 11.5687 16.6667 10.2087 14.2533C9.59538 13.1333 10.3954 12.7067 13.2487 9.85334C14.1154 8.98668 14.9287 9.68001 16.6887 10.6667C17.7821 11.2651 18.9958 11.6106 20.2404 11.6779C21.485 11.7451 22.7288 11.5322 23.8802 11.055C25.0317 10.5778 26.0614 9.84838 26.8936 8.92046C27.7258 7.99254 28.3392 6.88976 28.6887 5.69335C29.342 3.52001 29.382 2.66668 30.5954 2.66668C34.5954 2.66668 35.502 2.40001 35.8487 3.62668C36.5687 6.13334 37.182 9.40001 41.2487 11.08C45.3154 12.76 47.9154 10.9867 50.3287 9.62668C51.4487 9.01334 51.8754 9.81334 54.7287 12.6667C55.6087 13.5467 54.8887 14.3733 53.9021 16.1467C53.3007 17.2378 52.9521 18.45 52.8819 19.6939C52.8117 20.9378 53.0218 22.1815 53.4966 23.3334C53.9714 24.4852 54.6989 25.5157 55.6252 26.3488C56.5515 27.1819 57.6532 27.7963 58.8487 28.1467C62.5287 29.1733 61.9154 28.5067 61.9154 33.9867Z" fill="#275023"/>
<path d="M32.5807 13.3333C15.7007 13.3333 7.4474 34.16 19.9407 45.6933C20.0008 45.7623 20.0678 45.8248 20.1407 45.88C23.5517 48.9607 27.9845 50.6661 32.5807 50.6661C37.177 50.6661 41.6097 48.9607 45.0207 45.88C45.0936 45.8248 45.1606 45.7623 45.2207 45.6933C57.7274 34.1467 49.4474 13.3333 32.5807 13.3333ZM22.5941 44.48C24.0341 42.2667 26.1674 42.6667 28.8207 42.6667C29.101 43.4389 29.6122 44.1061 30.285 44.5776C30.9577 45.049 31.7592 45.302 32.5807 45.302C33.4022 45.302 34.2038 45.049 34.8765 44.5776C35.5492 44.1061 36.0605 43.4389 36.3407 42.6667C39.0074 42.6667 41.1274 42.2667 42.5674 44.48C39.739 46.7615 36.2146 48.0057 32.5807 48.0057C28.9468 48.0057 25.4225 46.7615 22.5941 44.48ZM28.0741 24H35.2474C35.601 24 35.9402 24.1405 36.1902 24.3905C36.4403 24.6406 36.5807 24.9797 36.5807 25.3333V26.6667H28.5807C28.6293 25.7499 28.4555 24.835 28.0741 24ZM36.5807 29.3333V33.3333H33.9141C33.5604 33.3333 33.2213 33.4738 32.9713 33.7239C32.7212 33.9739 32.5807 34.3131 32.5807 34.6667C32.5807 35.0203 32.7212 35.3594 32.9713 35.6095C33.2213 35.8595 33.5604 36 33.9141 36H35.5407C34.9991 36.596 34.2901 37.0146 33.5066 37.201C32.7231 37.3874 31.9016 37.333 31.1495 37.0449C30.3975 36.7567 29.7499 36.2483 29.2916 35.5861C28.8333 34.9238 28.5855 34.1387 28.5807 33.3333V29.3333H36.5807ZM33.9141 39.8667V41.3333C33.9141 41.687 33.7736 42.0261 33.5235 42.2762C33.2735 42.5262 32.9344 42.6667 32.5807 42.6667C32.2271 42.6667 31.888 42.5262 31.6379 42.2762C31.3879 42.0261 31.2474 41.687 31.2474 41.3333C31.2474 38.7733 30.7674 40.5067 33.9141 39.8667ZM44.5807 42.6667C42.2874 39.6667 39.2474 40 36.5807 40V38.6667C37.4005 38.038 38.0665 37.2312 38.5285 36.3072C38.9905 35.3832 39.2363 34.3663 39.2474 33.3333V25.3333C39.2474 24.2725 38.826 23.2551 38.0758 22.5049C37.3257 21.7548 36.3083 21.3333 35.2474 21.3333H25.9141C25.6868 21.334 25.4634 21.3928 25.2653 21.5041C25.0671 21.6154 24.9006 21.7755 24.7817 21.9692C24.6629 22.1629 24.5954 22.3838 24.5859 22.6109C24.5764 22.838 24.6251 23.0637 24.7274 23.2667C26.2874 26.4 25.9141 24.6 25.9141 33.3333C25.9141 34.3683 26.155 35.3891 26.6179 36.3148C27.0807 37.2405 27.7528 38.0457 28.5807 38.6667V40C25.7141 40 22.9007 39.6533 20.5807 42.6667C18.5441 40.3573 17.217 37.5093 16.7588 34.4644C16.3007 31.4195 16.7308 28.3071 17.9977 25.5007C19.2646 22.6942 21.3144 20.3129 23.9011 18.6425C26.4878 16.9722 29.5016 16.0837 32.5807 16.0837C35.6599 16.0837 38.6736 16.9722 41.2604 18.6425C43.8471 20.3129 45.8969 22.6942 47.1637 25.5007C48.4306 28.3071 48.8608 31.4195 48.4026 34.4644C47.9444 37.5093 46.6174 40.3573 44.5807 42.6667Z" fill="#275023"/>
</g>
<defs>
<clipPath id="clip0_1858_29434">
<rect width="64" height="64" fill="white" transform="translate(0.582031)"/>
</clipPath>
</defs>
</svg>
