<svg width="64" height="64" viewBox="0 0 64 64" fill="none" xmlns="http://www.w3.org/2000/svg">
<g clip-path="url(#clip0_1858_29449)">
<path d="M60 8H48C47.6 7.30667 47.6133 7.38667 44.8 4.57334C44.145 3.91894 43.2832 3.51207 42.3616 3.4221C41.4401 3.33214 40.5159 3.56466 39.7467 4.08C39.556 4.21792 39.3322 4.30291 39.098 4.32633C38.8638 4.34975 38.6276 4.31076 38.4133 4.21334C38.1959 4.11 38.007 3.9552 37.863 3.76236C37.7189 3.56952 37.6241 3.34445 37.5867 3.10667C37.3896 2.24457 36.9124 1.47207 36.2297 0.909978C35.547 0.347883 34.6972 0.0278782 33.8133 1.65745e-06H30.1867C29.2547 -0.000846359 28.3517 0.323739 27.6336 0.917715C26.9155 1.51169 26.4273 2.33777 26.2533 3.25333C26.2108 3.46169 26.119 3.65685 25.9857 3.82252C25.8524 3.98819 25.6814 4.11957 25.487 4.20569C25.2925 4.29182 25.0803 4.33019 24.868 4.3176C24.6557 4.30501 24.4496 4.24183 24.2667 4.13334C23.4963 3.59007 22.5589 3.3363 21.6197 3.41681C20.6805 3.49731 19.8 3.9069 19.1333 4.57334C16.5733 7.14667 16.36 7.25334 16 8H4C2.93913 8 1.92172 8.42143 1.17157 9.17158C0.421427 9.92172 0 10.9391 0 12L0 46.6667C0 47.7275 0.421427 48.7449 1.17157 49.4951C1.92172 50.2452 2.93913 50.6667 4 50.6667H25.4533C24.12 56.7733 24.3733 56 24 56C22.9391 56 21.9217 56.4214 21.1716 57.1716C20.4214 57.9217 20 58.9391 20 60V62.6667C20 63.0203 20.1405 63.3594 20.3905 63.6095C20.6406 63.8595 20.9797 64 21.3333 64H42.6667C43.0203 64 43.3594 63.8595 43.6095 63.6095C43.8595 63.3594 44 63.0203 44 62.6667V60C44.0012 59.4515 43.8896 58.9086 43.6721 58.4051C43.4547 57.9015 43.1359 57.4481 42.7358 57.073C42.3356 56.6978 41.8626 56.409 41.3461 56.2244C40.8296 56.0398 40.2806 55.9634 39.7333 56L38.5467 50.6667H60C61.0609 50.6667 62.0783 50.2452 62.8284 49.4951C63.5786 48.7449 64 47.7275 64 46.6667V12C64 10.9391 63.5786 9.92172 62.8284 9.17158C62.0783 8.42143 61.0609 8 60 8ZM21.0267 6.46667C21.2469 6.24363 21.5388 6.10533 21.8509 6.07607C22.163 6.04681 22.4754 6.12846 22.7333 6.30667C23.2813 6.67246 23.9111 6.89724 24.5668 6.96104C25.2226 7.02484 25.8839 6.92569 26.4921 6.67238C27.1003 6.41908 27.6365 6.01948 28.0531 5.50908C28.4696 4.99867 28.7537 4.39327 28.88 3.74667C28.9396 3.43851 29.106 3.16125 29.3499 2.9637C29.5938 2.76614 29.8995 2.66096 30.2133 2.66667H33.84C34.1538 2.66096 34.4596 2.76614 34.7035 2.9637C34.9474 3.16125 35.1138 3.43851 35.1733 3.74667C35.3041 4.39194 35.592 4.99496 36.0117 5.50224C36.4314 6.00952 36.9698 6.40536 37.5792 6.65464C38.1885 6.90393 38.85 6.99894 39.5049 6.93126C40.1598 6.86358 40.7878 6.6353 41.3333 6.26667C42.48 5.58667 42.9467 6.44 45.5333 9.02667C45.7564 9.24695 45.8947 9.53877 45.9239 9.85088C45.9532 10.163 45.8715 10.4754 45.6933 10.7333C45.3275 11.2813 45.1028 11.9111 45.039 12.5668C44.9752 13.2226 45.0743 13.8839 45.3276 14.4921C45.5809 15.1003 45.9805 15.6365 46.4909 16.0531C47.0013 16.4696 47.6067 16.7537 48.2533 16.88C48.5615 16.9396 48.8388 17.106 49.0363 17.3499C49.2339 17.5938 49.339 17.8995 49.3333 18.2133V21.84C49.3333 23.8 46.5867 22.5333 45.3333 25.5333C45.0777 26.1498 44.9804 26.8205 45.0503 27.4842C45.1201 28.1479 45.3549 28.7836 45.7333 29.3333C46.4133 30.48 45.56 30.96 42.9733 33.5333C42.7531 33.7564 42.4612 33.8947 42.1491 33.9239C41.837 33.9532 41.5246 33.8716 41.2667 33.6933C40.7187 33.3275 40.0889 33.1028 39.4332 33.039C38.7774 32.9752 38.1161 33.0743 37.5079 33.3276C36.8997 33.5809 36.3635 33.9805 35.9469 34.4909C35.5304 35.0013 35.2463 35.6067 35.12 36.2533C35.0604 36.5615 34.894 36.8388 34.6501 37.0363C34.4062 37.2339 34.1005 37.339 33.7867 37.3333H30.1867C29.8729 37.339 29.5671 37.2339 29.3232 37.0363C29.0793 36.8388 28.9129 36.5615 28.8533 36.2533C28.7245 35.6038 28.4364 34.9965 28.015 34.4857C27.5936 33.975 27.0519 33.5769 26.4387 33.3271C25.8255 33.0773 25.1598 32.9837 24.5015 33.0546C23.8431 33.1255 23.2127 33.3587 22.6667 33.7333C21.52 34.4133 21.0533 33.56 18.4667 30.9733C18.2601 30.7574 18.132 30.4784 18.103 30.181C18.074 29.8836 18.1457 29.5851 18.3067 29.3333C18.6725 28.7854 18.8972 28.1556 18.961 27.4998C19.0248 26.8441 18.9257 26.1828 18.6724 25.5746C18.4191 24.9664 18.0195 24.4302 17.5091 24.0136C16.9987 23.597 16.3933 23.313 15.7467 23.1867C15.4385 23.1271 15.1612 22.9607 14.9637 22.7168C14.7661 22.4729 14.661 22.1671 14.6667 21.8533V18.1867C14.6667 16.2267 17.4133 17.4933 18.6667 14.4933C18.927 13.8733 19.0269 13.1976 18.957 12.5287C18.8871 11.8599 18.6496 11.2195 18.2667 10.6667C17.5867 9.52 18.44 9.04 21.0267 6.46667ZM2.66667 12C2.66667 11.6464 2.80714 11.3072 3.05719 11.0572C3.30724 10.8071 3.64638 10.6667 4 10.6667H15.4667C15.5671 11.2366 15.79 11.7779 16.12 12.2533C16.2313 12.4357 16.2971 12.6422 16.312 12.8553C16.3268 13.0684 16.2902 13.282 16.2053 13.4781C16.1203 13.6741 15.9895 13.8469 15.8238 13.9818C15.6582 14.1167 15.4625 14.2098 15.2533 14.2533C14.3264 14.4293 13.4915 14.9273 12.8962 15.6592C12.3009 16.3912 11.9834 17.31 12 18.2533V21.88C11.9999 22.781 12.3039 23.6557 12.8629 24.3623C13.422 25.0689 14.2032 25.5661 15.08 25.7733C15.3271 25.7922 15.564 25.8796 15.7642 26.0256C15.9644 26.1716 16.1199 26.3705 16.2133 26.6C16.3108 26.8142 16.3497 27.0505 16.3263 27.2846C16.3029 27.5188 16.2179 27.7426 16.08 27.9333C15.5647 28.7026 15.3321 29.6268 15.4221 30.5483C15.5121 31.4698 15.9189 32.3316 16.5733 32.9867L19.1333 35.5467C19.7975 36.2117 20.6746 36.6217 21.6109 36.7046C22.5471 36.7875 23.4827 36.538 24.2533 36C24.4357 35.8887 24.6422 35.8229 24.8553 35.808C25.0684 35.7932 25.282 35.8298 25.4781 35.9147C25.6741 35.9997 25.8469 36.1305 25.9818 36.2962C26.1167 36.4618 26.2098 36.6575 26.2533 36.8667C26.4516 37.7601 26.9502 38.5585 27.666 39.1287C28.3818 39.699 29.2715 40.0065 30.1867 40H33.8133C34.7143 40.0001 35.589 39.6961 36.2956 39.1371C37.0022 38.5781 37.4994 37.7969 37.7067 36.92C37.7255 36.6729 37.8129 36.436 37.9589 36.2358C38.1049 36.0356 38.3038 35.8801 38.5333 35.7867C38.7476 35.6892 38.9838 35.6503 39.218 35.6737C39.4522 35.6971 39.676 35.7821 39.8667 35.92C40.6359 36.4353 41.5601 36.6679 42.4816 36.5779C43.4032 36.4879 44.265 36.0811 44.92 35.4267L47.48 32.8667C48.1451 32.2025 48.555 31.3254 48.6379 30.3891C48.7208 29.4529 48.4714 28.5174 47.9333 27.7467C47.822 27.5643 47.7562 27.3578 47.7413 27.1447C47.7265 26.9316 47.7631 26.718 47.848 26.5219C47.933 26.3259 48.0638 26.1531 48.2295 26.0182C48.3952 25.8833 48.5908 25.7902 48.8 25.7467C49.7057 25.5618 50.5195 25.0689 51.1029 24.3518C51.6863 23.6348 52.0033 22.7377 52 21.8133V18.1867C52.0001 17.2857 51.6961 16.411 51.1371 15.7044C50.578 14.9978 49.7968 14.5006 48.92 14.2933C48.6729 14.2745 48.436 14.1871 48.2358 14.0411C48.0356 13.8951 47.8801 13.6962 47.7867 13.4667C47.36 12.44 48.24 12.2267 48.5333 10.6667H60C60.3536 10.6667 60.6928 10.8071 60.9428 11.0572C61.1929 11.3072 61.3333 11.6464 61.3333 12V42.6667H2.66667V12ZM41.3333 60V61.3333H22.6667V60C22.6667 59.6464 22.8071 59.3072 23.0572 59.0572C23.3072 58.8071 23.6464 58.6667 24 58.6667H40C40.3536 58.6667 40.6928 58.8071 40.9428 59.0572C41.1929 59.3072 41.3333 59.6464 41.3333 60ZM37 56H27L28.1733 50.6667H35.8267L37 56ZM61.3333 46.6667C61.3333 47.0203 61.1929 47.3594 60.9428 47.6095C60.6928 47.8595 60.3536 48 60 48H4C3.64638 48 3.30724 47.8595 3.05719 47.6095C2.80714 47.3594 2.66667 47.0203 2.66667 46.6667V45.3333H61.3333V46.6667Z" fill="#275023"/>
<path d="M32 32C34.3734 32 36.6935 31.2962 38.6668 29.9776C40.6402 28.6591 42.1783 26.7849 43.0866 24.5922C43.9948 22.3995 44.2324 19.9867 43.7694 17.6589C43.3064 15.3311 42.1635 13.193 40.4853 11.5147C38.8071 9.83649 36.6689 8.6936 34.3411 8.23058C32.0133 7.76756 29.6005 8.0052 27.4078 8.91345C25.2151 9.8217 23.3409 11.3598 22.0224 13.3332C20.7038 15.3066 20 17.6266 20 20C20 23.1826 21.2643 26.2348 23.5147 28.4853C25.7652 30.7357 28.8174 32 32 32ZM32 10.6667C33.846 10.6667 35.6505 11.2141 37.1853 12.2396C38.7202 13.2652 39.9165 14.7228 40.6229 16.4283C41.3293 18.1337 41.5141 20.0104 41.154 21.8208C40.7939 23.6313 39.905 25.2944 38.5997 26.5997C37.2944 27.905 35.6313 28.7939 33.8208 29.154C32.0104 29.5141 30.1337 29.3293 28.4283 28.6229C26.7228 27.9165 25.2652 26.7202 24.2396 25.1853C23.2141 23.6505 22.6667 21.846 22.6667 20C22.6667 17.5247 23.65 15.1507 25.4003 13.4003C27.1507 11.65 29.5246 10.6667 32 10.6667Z" fill="#275023"/>
<path d="M31.9987 16C32.2624 16 32.5202 15.9218 32.7395 15.7753C32.9587 15.6288 33.1296 15.4206 33.2305 15.1769C33.3315 14.9333 33.3579 14.6652 33.3064 14.4066C33.255 14.1479 33.128 13.9103 32.9415 13.7239C32.755 13.5374 32.5175 13.4104 32.2588 13.359C32.0002 13.3075 31.7321 13.3339 31.4885 13.4348C31.2448 13.5358 31.0366 13.7067 30.8901 13.9259C30.7436 14.1452 30.6654 14.403 30.6654 14.6667C30.6654 15.0203 30.8058 15.3594 31.0559 15.6095C31.3059 15.8595 31.6451 16 31.9987 16ZM30.6654 26.6667H33.332C33.6857 26.6667 34.0248 26.5262 34.2748 26.2762C34.5249 26.0261 34.6654 25.687 34.6654 25.3333C34.6654 24.9797 34.5249 24.6406 34.2748 24.3905C34.0248 24.1405 33.6857 24 33.332 24V18.6667C33.332 18.3131 33.1916 17.9739 32.9415 17.7239C32.6915 17.4738 32.3523 17.3333 31.9987 17.3333H30.6654C30.3117 17.3333 29.9726 17.4738 29.7226 17.7239C29.4725 17.9739 29.332 18.3131 29.332 18.6667C29.332 19.0203 29.4725 19.3594 29.7226 19.6095C29.9726 19.8595 30.3117 20 30.6654 20V24C30.3117 24 29.9726 24.1405 29.7226 24.3905C29.4725 24.6406 29.332 24.9797 29.332 25.3333C29.332 25.687 29.4725 26.0261 29.7226 26.2762C29.9726 26.5262 30.3117 26.6667 30.6654 26.6667Z" fill="#275023"/>
</g>
<defs>
<clipPath id="clip0_1858_29449">
<rect width="64" height="64" fill="white"/>
</clipPath>
</defs>
</svg>
