<svg width="64" height="64" viewBox="0 0 64 64" fill="none" xmlns="http://www.w3.org/2000/svg">
<g clip-path="url(#clip0_1858_29441)">
<path d="M60 24H58.6667V20C58.6667 19.6464 58.5262 19.3072 58.2761 19.0572C58.0261 18.8071 57.687 18.6667 57.3333 18.6667H52C52.1022 17.6885 51.8465 16.7064 51.2802 15.9023C50.7139 15.0983 49.8754 14.5266 48.92 14.2933C48.6729 14.2745 48.436 14.1871 48.2358 14.0411C48.0356 13.8951 47.8801 13.6962 47.7867 13.4667C47.6892 13.2524 47.6503 13.0162 47.6737 12.782C47.6971 12.5479 47.7821 12.324 47.92 12.1333C48.4353 11.3641 48.6679 10.4399 48.5779 9.51836C48.4879 8.59683 48.0811 7.73505 47.4267 7.08L44.8667 4.57334C44.2025 3.90828 43.3254 3.49834 42.3891 3.41544C41.4529 3.33255 40.5174 3.58199 39.7467 4.12C39.5643 4.2313 39.3578 4.29715 39.1447 4.31199C38.9316 4.32684 38.718 4.29024 38.5219 4.20529C38.3259 4.12034 38.1531 3.98952 38.0182 3.82385C37.8833 3.65818 37.7902 3.46252 37.7467 3.25333C37.5727 2.33777 37.0845 1.51169 36.3664 0.917715C35.6483 0.323739 34.7453 -0.000846359 33.8133 1.65745e-06H30.1867C29.2857 -0.000126917 28.411 0.303941 27.7044 0.862947C26.9978 1.42195 26.5006 2.20316 26.2933 3.08C26.2745 3.32707 26.1871 3.56398 26.0411 3.76417C25.8951 3.96436 25.6962 4.1199 25.4667 4.21334C25.2524 4.31076 25.0162 4.34975 24.782 4.32633C24.5478 4.30291 24.324 4.21792 24.1333 4.08C23.3641 3.56466 22.4399 3.33214 21.5184 3.4221C20.5968 3.51207 19.735 3.91894 19.08 4.57334L16.5733 7.13334C15.9083 7.7975 15.4983 8.67464 15.4154 9.61088C15.3325 10.5471 15.582 11.4826 16.12 12.2533C16.2313 12.4357 16.2971 12.6422 16.312 12.8553C16.3268 13.0684 16.2902 13.282 16.2053 13.4781C16.1203 13.6741 15.9895 13.8469 15.8238 13.9818C15.6582 14.1167 15.4625 14.2098 15.2533 14.2533C14.2598 14.4535 13.3762 15.0162 12.7748 15.8321C12.1735 16.6479 11.8972 17.6584 12 18.6667H6.66667C6.31305 18.6667 5.97391 18.8071 5.72386 19.0572C5.47381 19.3072 5.33333 19.6464 5.33333 20V24H4C2.93913 24 1.92172 24.4214 1.17157 25.1716C0.421427 25.9217 0 26.9391 0 28L0 60C0 61.0609 0.421427 62.0783 1.17157 62.8284C1.92172 63.5786 2.93913 64 4 64H60C61.0609 64 62.0783 63.5786 62.8284 62.8284C63.5786 62.0783 64 61.0609 64 60V28C64 26.9391 63.5786 25.9217 62.8284 25.1716C62.0783 24.4214 61.0609 24 60 24ZM14.6667 18.1867C14.661 17.8729 14.7661 17.5671 14.9637 17.3232C15.1612 17.0793 15.4385 16.9129 15.7467 16.8533C16.3933 16.727 16.9987 16.443 17.5091 16.0264C18.0195 15.6098 18.4191 15.0736 18.6724 14.4654C18.9257 13.8572 19.0248 13.1959 18.961 12.5402C18.8972 11.8844 18.6725 11.2546 18.3067 10.7067C18.1285 10.4488 18.0468 10.1363 18.0761 9.82422C18.1053 9.5121 18.2436 9.22028 18.4667 9C20.88 6.66667 21.4933 5.56 22.6667 6.26667C23.221 6.65195 23.8638 6.89069 24.5352 6.96063C25.2066 7.03057 25.8848 6.92944 26.5067 6.66667C29.52 5.41334 28.2133 2.66667 30.2 2.66667H33.8267C34.1405 2.66096 34.4462 2.76614 34.6901 2.9637C34.934 3.16125 35.1004 3.43851 35.16 3.74667C35.2844 4.39749 35.5685 5.00721 35.9868 5.52106C36.4052 6.03492 36.9446 6.4368 37.5567 6.69061C38.1687 6.94443 38.8342 7.04222 39.4934 6.9752C40.1526 6.90819 40.7849 6.67846 41.3333 6.30667C41.5912 6.12846 41.9037 6.04681 42.2158 6.07607C42.5279 6.10533 42.8197 6.24363 43.04 6.46667C45.4 8.88 46.4267 9.49333 45.7333 10.6667C45.3496 11.2133 45.1088 11.8473 45.033 12.5109C44.9572 13.1745 45.0487 13.8465 45.2993 14.4656C45.5498 15.0847 45.9514 15.6312 46.4674 16.0553C46.9834 16.4794 47.5974 16.7675 48.2533 16.8933C48.5615 16.9529 48.8388 17.1193 49.0363 17.3632C49.2339 17.6071 49.339 17.9129 49.3333 18.2267V18.6667H42.5733C42.2321 16.1042 40.9719 13.7528 39.0271 12.0498C37.0822 10.3468 34.5851 9.40798 32 9.40798C29.4149 9.40798 26.9178 10.3468 24.9729 12.0498C23.0281 13.7528 21.7679 16.1042 21.4267 18.6667H14.6667V18.1867ZM32 21.3333C29.68 18.2267 26.6667 18.6667 24.12 18.6667C24.4448 16.8126 25.413 15.1324 26.8543 13.9216C28.2956 12.7109 30.1177 12.0471 32 12.0471C33.8824 12.0471 35.7044 12.7109 37.1457 13.9216C38.587 15.1324 39.5552 16.8126 39.88 18.6667C37.0133 18.6667 34.2533 18.36 32 21.3333ZM8 21.3333H26.6667C27.7275 21.3333 28.7449 21.7548 29.4951 22.5049C30.2452 23.2551 30.6667 24.2725 30.6667 25.3333V57.3333C28.2933 55.56 28.2 56 8 56V21.3333ZM4 61.3333C3.64638 61.3333 3.30724 61.1929 3.05719 60.9428C2.80714 60.6928 2.66667 60.3536 2.66667 60V28C2.66667 27.6464 2.80714 27.3072 3.05719 27.0572C3.30724 26.8071 3.64638 26.6667 4 26.6667H5.33333V57.3333C5.33333 57.687 5.47381 58.0261 5.72386 58.2761C5.97391 58.5262 6.31305 58.6667 6.66667 58.6667H26.6667C27.4942 58.6662 28.3015 58.9225 28.9773 59.4001C29.6531 59.8777 30.1642 60.5531 30.44 61.3333H4ZM33.3333 25.3333C33.3333 24.2725 33.7548 23.2551 34.5049 22.5049C35.2551 21.7548 36.2725 21.3333 37.3333 21.3333H56V56C35.7867 56 35.68 55.5733 33.3333 57.3333V25.3333ZM61.3333 60C61.3333 60.3536 61.1929 60.6928 60.9428 60.9428C60.6928 61.1929 60.3536 61.3333 60 61.3333H33.56C33.8358 60.5531 34.3469 59.8777 35.0227 59.4001C35.6985 58.9225 36.5058 58.6662 37.3333 58.6667H57.3333C57.687 58.6667 58.0261 58.5262 58.2761 58.2761C58.5262 58.0261 58.6667 57.687 58.6667 57.3333V26.6667H60C60.3536 26.6667 60.6928 26.8071 60.9428 27.0572C61.1929 27.3072 61.3333 27.6464 61.3333 28V60Z" fill="#275023"/>
<path d="M12.0013 36H26.668C27.0216 36 27.3607 35.8595 27.6108 35.6095C27.8608 35.3594 28.0013 35.0203 28.0013 34.6667V26.6667C28.0013 26.313 27.8608 25.9739 27.6108 25.7238C27.3607 25.4738 27.0216 25.3333 26.668 25.3333H12.0013C11.6477 25.3333 11.3085 25.4738 11.0585 25.7238C10.8084 25.9739 10.668 26.313 10.668 26.6667V34.6667C10.668 35.0203 10.8084 35.3594 11.0585 35.6095C11.3085 35.8595 11.6477 36 12.0013 36ZM13.3346 28H25.3346V33.3333H13.3346V28ZM12.0013 41.3333H14.668C15.0216 41.3333 15.3607 41.1928 15.6108 40.9428C15.8608 40.6928 16.0013 40.3536 16.0013 40C16.0013 39.6464 15.8608 39.3072 15.6108 39.0572C15.3607 38.8071 15.0216 38.6667 14.668 38.6667H12.0013C11.6477 38.6667 11.3085 38.8071 11.0585 39.0572C10.8084 39.3072 10.668 39.6464 10.668 40C10.668 40.3536 10.8084 40.6928 11.0585 40.9428C11.3085 41.1928 11.6477 41.3333 12.0013 41.3333ZM26.668 38.6667H20.0013C19.6477 38.6667 19.3085 38.8071 19.0585 39.0572C18.8084 39.3072 18.668 39.6464 18.668 40C18.668 40.3536 18.8084 40.6928 19.0585 40.9428C19.3085 41.1928 19.6477 41.3333 20.0013 41.3333H26.668C27.0216 41.3333 27.3607 41.1928 27.6108 40.9428C27.8608 40.6928 28.0013 40.3536 28.0013 40C28.0013 39.6464 27.8608 39.3072 27.6108 39.0572C27.3607 38.8071 27.0216 38.6667 26.668 38.6667ZM20.0013 44H12.0013C11.6477 44 11.3085 44.1405 11.0585 44.3905C10.8084 44.6406 10.668 44.9797 10.668 45.3333C10.668 45.6869 10.8084 46.0261 11.0585 46.2761C11.3085 46.5262 11.6477 46.6667 12.0013 46.6667H20.0013C20.3549 46.6667 20.6941 46.5262 20.9441 46.2761C21.1942 46.0261 21.3346 45.6869 21.3346 45.3333C21.3346 44.9797 21.1942 44.6406 20.9441 44.3905C20.6941 44.1405 20.3549 44 20.0013 44ZM17.3346 49.3333H12.0013C11.6477 49.3333 11.3085 49.4738 11.0585 49.7238C10.8084 49.9739 10.668 50.313 10.668 50.6667C10.668 51.0203 10.8084 51.3594 11.0585 51.6095C11.3085 51.8595 11.6477 52 12.0013 52H17.3346C17.6883 52 18.0274 51.8595 18.2774 51.6095C18.5275 51.3594 18.668 51.0203 18.668 50.6667C18.668 50.313 18.5275 49.9739 18.2774 49.7238C18.0274 49.4738 17.6883 49.3333 17.3346 49.3333ZM26.668 49.3333H22.668C22.3143 49.3333 21.9752 49.4738 21.7252 49.7238C21.4751 49.9739 21.3346 50.313 21.3346 50.6667C21.3346 51.0203 21.4751 51.3594 21.7252 51.6095C21.9752 51.8595 22.3143 52 22.668 52H26.668C27.0216 52 27.3607 51.8595 27.6108 51.6095C27.8608 51.3594 28.0013 51.0203 28.0013 50.6667C28.0013 50.313 27.8608 49.9739 27.6108 49.7238C27.3607 49.4738 27.0216 49.3333 26.668 49.3333ZM26.668 44H25.3346C24.981 44 24.6419 44.1405 24.3918 44.3905C24.1418 44.6406 24.0013 44.9797 24.0013 45.3333C24.0013 45.6869 24.1418 46.0261 24.3918 46.2761C24.6419 46.5262 24.981 46.6667 25.3346 46.6667H26.668C27.0216 46.6667 27.3607 46.5262 27.6108 46.2761C27.8608 46.0261 28.0013 45.6869 28.0013 45.3333C28.0013 44.9797 27.8608 44.6406 27.6108 44.3905C27.3607 44.1405 27.0216 44 26.668 44ZM36.828 27.8933C37.1128 28.0108 37.4294 28.0261 37.7242 27.9365C38.0189 27.8469 38.2736 27.658 38.4448 27.4019C38.6161 27.1458 38.6933 26.8384 38.6635 26.5317C38.6337 26.2251 38.4987 25.9383 38.2813 25.72C38.1421 25.5801 37.9735 25.4729 37.7878 25.4061C37.6021 25.3393 37.4039 25.3146 37.2074 25.3337C37.011 25.3528 36.8213 25.4152 36.6519 25.5166C36.4826 25.6179 36.3378 25.7555 36.2281 25.9196C36.1184 26.0836 36.0465 26.27 36.0175 26.4652C35.9886 26.6604 36.0034 26.8597 36.0607 27.0485C36.1181 27.2373 36.2167 27.411 36.3494 27.5571C36.4821 27.7032 36.6455 27.8181 36.828 27.8933ZM42.668 28H52.0013C52.3549 28 52.6941 27.8595 52.9441 27.6095C53.1942 27.3594 53.3346 27.0203 53.3346 26.6667C53.3346 26.313 53.1942 25.9739 52.9441 25.7238C52.6941 25.4738 52.3549 25.3333 52.0013 25.3333H42.668C42.3143 25.3333 41.9752 25.4738 41.7252 25.7238C41.4751 25.9739 41.3346 26.313 41.3346 26.6667C41.3346 27.0203 41.4751 27.3594 41.7252 27.6095C41.9752 27.8595 42.3143 28 42.668 28ZM36.828 33.2267C37.0703 33.3236 37.3357 33.3474 37.5914 33.2949C37.8471 33.2425 38.0817 33.1162 38.2663 32.9316C38.4508 32.7471 38.5771 32.5124 38.6296 32.2567C38.682 32.0011 38.6583 31.7356 38.5613 31.4933C38.4776 31.2901 38.3449 31.1107 38.1751 30.9711C38.0053 30.8315 37.8036 30.7361 37.588 30.6933C37.2681 30.6405 36.94 30.7061 36.665 30.8777C36.39 31.0493 36.1869 31.3152 36.0938 31.6257C36.0006 31.9362 36.0238 32.27 36.1589 32.5647C36.2941 32.8593 36.5319 33.0947 36.828 33.2267ZM42.668 33.3333H52.0013C52.3549 33.3333 52.6941 33.1928 52.9441 32.9428C53.1942 32.6928 53.3346 32.3536 53.3346 32C53.3346 31.6464 53.1942 31.3072 52.9441 31.0572C52.6941 30.8071 52.3549 30.6667 52.0013 30.6667H42.668C42.3143 30.6667 41.9752 30.8071 41.7252 31.0572C41.4751 31.3072 41.3346 31.6464 41.3346 32C41.3346 32.3536 41.4751 32.6928 41.7252 32.9428C41.9752 33.1928 42.3143 33.3333 42.668 33.3333ZM37.3346 46.6667H42.668C43.0216 46.6667 43.3607 46.5262 43.6108 46.2761C43.8608 46.0261 44.0013 45.6869 44.0013 45.3333V37.3333C44.0013 36.9797 43.8608 36.6406 43.6108 36.3905C43.3607 36.1405 43.0216 36 42.668 36H37.3346C36.981 36 36.6419 36.1405 36.3918 36.3905C36.1418 36.6406 36.0013 36.9797 36.0013 37.3333V45.3333C36.0013 45.6869 36.1418 46.0261 36.3918 46.2761C36.6419 46.5262 36.981 46.6667 37.3346 46.6667ZM38.668 38.6667H41.3346V44H38.668V38.6667ZM52.0013 52C52.3549 52 52.6941 51.8595 52.9441 51.6095C53.1942 51.3594 53.3346 51.0203 53.3346 50.6667C53.3346 50.313 53.1942 49.9739 52.9441 49.7238C52.6941 49.4738 52.3549 49.3333 52.0013 49.3333H37.3346C36.981 49.3333 36.6419 49.4738 36.3918 49.7238C36.1418 49.9739 36.0013 50.313 36.0013 50.6667C36.0013 51.0203 36.1418 51.3594 36.3918 51.6095C36.6419 51.8595 36.981 52 37.3346 52H52.0013ZM52.0013 42.6667H48.0013C47.6477 42.6667 47.3085 42.8071 47.0585 43.0572C46.8084 43.3072 46.668 43.6464 46.668 44C46.668 44.3536 46.8084 44.6928 47.0585 44.9428C47.3085 45.1928 47.6477 45.3333 48.0013 45.3333H52.0013C52.3549 45.3333 52.6941 45.1928 52.9441 44.9428C53.1942 44.6928 53.3346 44.3536 53.3346 44C53.3346 43.6464 53.1942 43.3072 52.9441 43.0572C52.6941 42.8071 52.3549 42.6667 52.0013 42.6667ZM52.0013 37.3333H48.0013C47.6477 37.3333 47.3085 37.4738 47.0585 37.7238C46.8084 37.9739 46.668 38.313 46.668 38.6667C46.668 39.0203 46.8084 39.3594 47.0585 39.6095C47.3085 39.8595 47.6477 40 48.0013 40H52.0013C52.3549 40 52.6941 39.8595 52.9441 39.6095C53.1942 39.3594 53.3346 39.0203 53.3346 38.6667C53.3346 38.313 53.1942 37.9739 52.9441 37.7238C52.6941 37.4738 52.3549 37.3333 52.0013 37.3333Z" fill="#275023"/>
</g>
<defs>
<clipPath id="clip0_1858_29441">
<rect width="64" height="64" fill="white"/>
</clipPath>
</defs>
</svg>
