<svg width="66" height="64" viewBox="0 0 66 64" fill="none" xmlns="http://www.w3.org/2000/svg">
<g clip-path="url(#clip0_1858_29426)">
<path d="M54.7891 41.3333C53.1193 39.5733 53.4315 41.76 53.4315 37.84C53.432 36.2797 52.8753 34.7686 51.8582 33.5699C50.8412 32.3712 49.4282 31.5609 47.8655 31.28L38.4303 29.5467V26.32C39.7786 25.3879 40.8588 24.1294 41.5663 22.6667H43.8606C44.9408 22.6667 45.9767 22.2452 46.7405 21.4951C47.5042 20.745 47.9333 19.7275 47.9333 18.6667V12C47.9333 10.9391 47.5042 9.92172 46.7405 9.17158C45.9767 8.42143 44.9408 8 43.8606 8H42.503V5.33334C42.503 3.91885 41.9309 2.56229 40.9125 1.5621C39.8941 0.561906 38.5129 2.54437e-06 37.0727 2.54437e-06C21.2705 2.54437e-06 21.4877 -0.293331 20.9447 0.706669C20.4017 1.70667 21.0262 2.10667 23.0354 5.06667C23.6191 5.90667 23.497 6.66667 23.497 8H22.1394C21.0592 8 20.0233 8.42143 19.2595 9.17158C18.4957 9.92172 18.0667 10.9391 18.0667 12V13.3333C18.0667 14.3942 18.4957 15.4116 19.2595 16.1618C20.0233 16.9119 21.0592 17.3333 22.1394 17.3333H23.497V18.6667C23.498 20.1702 23.8688 21.6513 24.5779 22.9838C25.287 24.3163 26.3134 25.4608 27.5697 26.32V29.5467L18.2024 31.2267C16.6397 31.5075 15.2267 32.3179 14.2096 33.5166C13.1926 34.7152 12.6358 36.2263 12.6364 37.7867C12.6364 41.7867 12.9214 39.48 11.2788 41.28C9.63611 43.08 10.1113 43.0933 11.5503 62.76C11.5744 63.0972 11.728 63.4128 11.98 63.643C12.232 63.8732 12.5637 64.0008 12.9079 64H53.1736C53.5177 64.0008 53.8494 63.8732 54.1014 63.643C54.3535 63.4128 54.5071 63.0972 54.5311 62.76C55.9838 42.7333 56.4046 42.9867 54.7891 41.3333ZM43.8606 20H42.3944C42.5088 19.1158 42.5451 18.2236 42.503 17.3333H43.8606C45.5711 17.3333 45.2182 16.3333 45.2182 18.6667C45.2182 19.0203 45.0751 19.3594 44.8206 19.6095C44.566 19.8595 44.2207 20 43.8606 20ZM45.2182 12V13.3333C45.2182 13.687 45.0751 14.0261 44.8206 14.2761C44.566 14.5262 44.2207 14.6667 43.8606 14.6667H42.503V10.6667H43.8606C44.2207 10.6667 44.566 10.8071 44.8206 11.0572C45.0751 11.3072 45.2182 11.6464 45.2182 12ZM37.0727 2.66667C37.7928 2.66667 38.4834 2.94762 38.9926 3.44772C39.5018 3.94781 39.7879 4.62609 39.7879 5.33334V8H26.2121C26.2121 5.33334 26.3207 5.09334 24.6781 2.66667H37.0727ZM22.1394 14.6667C21.7793 14.6667 21.434 14.5262 21.1794 14.2761C20.9248 14.0261 20.7818 13.687 20.7818 13.3333V12C20.7818 11.6464 20.9248 11.3072 21.1794 11.0572C21.434 10.8071 21.7793 10.6667 22.1394 10.6667H23.497V14.6667H22.1394ZM26.2121 18.6667V10.6667H39.7879C39.7879 19.2267 39.7879 19.0933 39.6521 20H34.3576C33.9975 20 33.6522 20.1405 33.3976 20.3905C33.143 20.6406 33 20.9797 33 21.3333C33 21.687 33.143 22.0261 33.3976 22.2761C33.6522 22.5262 33.9975 22.6667 34.3576 22.6667H38.4303C37.5755 23.786 36.3838 24.6129 35.0239 25.0301C33.6641 25.4473 32.205 25.4337 30.8535 24.9912C29.5019 24.5488 28.3264 23.6998 27.4934 22.5647C26.6604 21.4296 26.2121 20.0659 26.2121 18.6667ZM35.7151 27.6133V30.0667C34.9406 30.6635 33.9845 30.988 33 30.988C32.0155 30.988 31.0594 30.6635 30.2848 30.0667V27.6133C32.0564 28.1321 33.9436 28.1321 35.7151 27.6133ZM18.6911 33.84L28.5607 32.0933C29.8117 33.1031 31.3807 33.6551 33 33.6551C34.6193 33.6551 36.1883 33.1031 37.4393 32.0933L47.3088 33.84C48.2576 34.0104 49.114 34.5059 49.7256 35.2384C50.3372 35.971 50.6642 36.8928 50.6485 37.84V40H15.3515V37.7867C15.3486 36.8486 15.6815 35.9394 16.292 35.218C16.9025 34.4966 17.7516 34.0088 18.6911 33.84ZM51.911 61.3333H14.089L12.84 44.0933C12.8269 43.9106 12.8524 43.7271 12.9147 43.5544C12.9771 43.3817 13.075 43.2235 13.2024 43.0896C13.3298 42.9557 13.4839 42.8491 13.6551 42.7763C13.8263 42.7035 14.011 42.6662 14.1976 42.6667C54.9248 42.6667 52.2097 42.4667 52.7935 43.0933C53.3772 43.72 53.2686 42.6667 51.911 61.3333Z" fill="#275023"/>
<path d="M32.9985 48C32.193 48 31.4056 48.2346 30.7358 48.6741C30.0661 49.1136 29.5441 49.7384 29.2358 50.4693C28.9275 51.2002 28.8469 52.0044 29.004 52.7804C29.1612 53.5563 29.5491 54.269 30.1187 54.8284C30.6882 55.3878 31.4139 55.7688 32.204 55.9231C32.994 56.0775 33.8129 55.9983 34.5571 55.6955C35.3013 55.3928 35.9373 54.8801 36.3849 54.2223C36.8324 53.5645 37.0712 52.7911 37.0712 52C37.0712 50.9391 36.6421 49.9217 35.8784 49.1716C35.1146 48.4214 34.0787 48 32.9985 48ZM32.9985 53.3333C32.6385 53.3333 32.2932 53.1929 32.0386 52.9428C31.784 52.6928 31.6409 52.3536 31.6409 52C31.6409 51.6464 31.784 51.3072 32.0386 51.0572C32.2932 50.8071 32.6385 50.6667 32.9985 50.6667C33.3586 50.6667 33.7039 50.8071 33.9585 51.0572C34.2131 51.3072 34.3561 51.6464 34.3561 52C34.3561 52.3536 34.2131 52.6928 33.9585 52.9428C33.7039 53.1929 33.3586 53.3333 32.9985 53.3333Z" fill="#275023"/>
</g>
<defs>
<clipPath id="clip0_1858_29426">
<rect width="65.1636" height="64" fill="white" transform="translate(0.417969)"/>
</clipPath>
</defs>
</svg>
