<svg width="40" height="40" viewBox="0 0 40 40" fill="none" xmlns="http://www.w3.org/2000/svg">
<path d="M26.6666 30L29.9999 33.3333L36.6666 26.6667M19.9999 25H13.3333C10.227 25 8.67384 25 7.4487 25.5075C5.81518 26.1841 4.51735 27.4819 3.84072 29.1154C3.33325 30.3406 3.33325 31.8937 3.33325 35M25.8333 5.4846C28.2764 6.47358 29.9999 8.86885 29.9999 11.6667C29.9999 14.4645 28.2764 16.8598 25.8333 17.8487M22.4999 11.6667C22.4999 15.3486 19.5152 18.3333 15.8333 18.3333C12.1514 18.3333 9.16659 15.3486 9.16659 11.6667C9.16659 7.98477 12.1514 5 15.8333 5C19.5152 5 22.4999 7.98477 22.4999 11.6667Z" stroke="#EBF7F5" stroke-width="2.66667" stroke-linecap="round" stroke-linejoin="round"/>
</svg>
