<svg width="40" height="40" viewBox="0 0 40 40" fill="none" xmlns="http://www.w3.org/2000/svg">
<path d="M33.3333 20C33.3333 27.3638 27.3637 33.3334 19.9999 33.3334M33.3333 20C33.3333 12.6362 27.3637 6.66671 19.9999 6.66671M33.3333 20H6.66659M19.9999 33.3334C12.6361 33.3334 6.66659 27.3638 6.66659 20M19.9999 33.3334C23.335 29.6822 25.2312 24.944 25.3342 20C25.2312 15.0561 23.335 10.3178 19.9999 6.66671M19.9999 33.3334C16.6649 29.6822 14.7705 24.944 14.6675 20C14.7705 15.0561 16.6649 10.3178 19.9999 6.66671M6.66659 20C6.66659 12.6362 12.6361 6.66671 19.9999 6.66671M9.99992 33.3334C9.99992 35.1743 8.50753 36.6667 6.66659 36.6667C4.82564 36.6667 3.33325 35.1743 3.33325 33.3334C3.33325 31.4924 4.82564 30 6.66659 30C8.50753 30 9.99992 31.4924 9.99992 33.3334ZM36.6666 33.3334C36.6666 35.1743 35.1742 36.6667 33.3333 36.6667C31.4923 36.6667 29.9999 35.1743 29.9999 33.3334C29.9999 31.4924 31.4923 30 33.3333 30C35.1742 30 36.6666 31.4924 36.6666 33.3334ZM9.99992 6.66671C9.99992 8.50766 8.50753 10 6.66659 10C4.82564 10 3.33325 8.50766 3.33325 6.66671C3.33325 4.82576 4.82564 3.33337 6.66659 3.33337C8.50753 3.33337 9.99992 4.82576 9.99992 6.66671ZM36.6666 6.66671C36.6666 8.50766 35.1742 10 33.3333 10C31.4923 10 29.9999 8.50766 29.9999 6.66671C29.9999 4.82576 31.4923 3.33337 33.3333 3.33337C35.1742 3.33337 36.6666 4.82576 36.6666 6.66671Z" stroke="#EBF7F5" stroke-width="2.66667" stroke-linecap="round" stroke-linejoin="round"/>
</svg>
