<svg width="32" height="32" viewBox="0 0 32 32" fill="none" xmlns="http://www.w3.org/2000/svg">
<circle cx="16" cy="16" r="16" fill="#417FD8"/>
<path fill-rule="evenodd" clip-rule="evenodd" d="M17.1531 11.3048C17.7866 9.15859 18.2711 7.31014 18.2338 7.19849C18.1717 7.02481 17.886 7 16.3457 7H14.5445L14.4202 7.32255C14.3457 7.50863 13.6873 9.67963 12.9544 12.1608L11.6253 16.6764L10.5446 17.0114L9.46383 17.3339L9.21539 18.0783C9.06632 18.4877 8.97937 18.8474 9.00421 18.8723C9.02906 18.9095 9.50109 18.7854 10.0601 18.6117C10.6191 18.4505 11.0663 18.3512 11.0663 18.4008C11.0663 18.4505 10.6439 19.8895 10.1346 21.6139C9.62532 23.3383 9.20296 24.7898 9.20296 24.8642C9.20296 25.0627 20.9046 25.0379 21.153 24.827C21.4387 24.6037 22.1468 22.1225 21.9729 21.9241C21.8735 21.8 20.9915 21.7628 17.9357 21.7628C14.855 21.7628 14.0352 21.7256 14.0724 21.6015C14.1097 21.5271 14.4327 20.4478 14.7929 19.2072L15.4513 16.9618L16.4575 16.6764C17.0165 16.5152 17.5133 16.3415 17.5755 16.2919C17.6997 16.1802 18.1593 14.7908 18.0972 14.7288C18.0848 14.7163 17.6251 14.828 17.091 15.0017C16.5444 15.1629 16.0848 15.2746 16.06 15.2498C16.0351 15.225 16.532 13.451 17.1531 11.3048Z" fill="white"/>
</svg>
