<svg width="32" height="32" viewBox="0 0 32 32" fill="none" xmlns="http://www.w3.org/2000/svg">
<circle cx="16" cy="16" r="16" fill="#417FD8"/>
<path d="M20.2476 18.0229C20.2476 15.9998 19.0337 15.3061 16.606 15.0172C14.8719 14.7859 14.525 14.3235 14.525 13.5142C14.525 12.7048 15.1031 12.1847 16.2591 12.1847C17.2996 12.1847 17.8777 12.5316 18.1667 13.3986C18.2245 13.572 18.3979 13.6876 18.5713 13.6876H19.4961C19.7274 13.6876 19.9008 13.5142 19.9008 13.2831V13.2252C19.6695 11.9535 18.6291 10.9709 17.2996 10.8553V9.46802C17.2996 9.23675 17.1262 9.06334 16.8372 9.00549H15.9702C15.7389 9.00549 15.5655 9.1789 15.5077 9.46802V10.7975C13.7735 11.0287 12.6754 12.1847 12.6754 13.6299C12.6754 15.5374 13.8314 16.2888 16.2591 16.5779C17.8777 16.8668 18.3979 17.2137 18.3979 18.1386C18.3979 19.0635 17.5886 19.6993 16.4904 19.6993C14.9874 19.6993 14.4672 19.0633 14.2938 18.1963C14.2361 17.9652 14.0627 17.8495 13.8892 17.8495H12.9065C12.6754 17.8495 12.502 18.0229 12.502 18.2541V18.312C12.7331 19.757 13.658 20.7975 15.5655 21.0866V22.4739C15.5655 22.705 15.7389 22.8784 16.0279 22.9362H16.8949C17.1262 22.9362 17.2996 22.7628 17.3575 22.4739V21.0866C19.0916 20.7975 20.2476 19.5836 20.2476 18.0229Z" fill="white"/>
<path d="M13.4849 24.0925C8.97621 22.4741 6.66402 17.4451 8.34042 12.9942C9.20747 10.5664 11.115 8.71673 13.4849 7.84967C13.7162 7.73411 13.8317 7.5607 13.8317 7.27159V6.46238C13.8317 6.23112 13.7162 6.05771 13.4849 6C13.4271 6 13.3115 6 13.2536 6.05771C7.76234 7.79182 4.75649 13.6301 6.49061 19.1214C7.53107 22.3584 10.0167 24.844 13.2536 25.8844C13.4849 26 13.7162 25.8844 13.7739 25.6532C13.8317 25.5955 13.8317 25.5376 13.8317 25.4221V24.6127C13.8317 24.4393 13.6583 24.2082 13.4849 24.0925ZM19.6121 6.05771C19.3809 5.94215 19.1496 6.05771 19.0919 6.28897C19.0341 6.34682 19.0341 6.40453 19.0341 6.52023V7.32944C19.0341 7.5607 19.2075 7.79182 19.3809 7.90752C23.8896 9.52594 26.2018 14.5549 24.5254 19.0058C23.6583 21.4336 21.7508 23.2833 19.3809 24.1503C19.1496 24.2659 19.0341 24.4393 19.0341 24.7284V25.5376C19.0341 25.7689 19.1496 25.9423 19.3809 26C19.4387 26 19.5543 26 19.6121 25.9423C25.1035 24.2082 28.1093 18.3699 26.3752 12.8786C25.3347 9.58379 22.7913 7.09818 19.6121 6.05771Z" fill="white"/>
</svg>
