<svg width="32" height="32" viewBox="0 0 32 32" fill="none" xmlns="http://www.w3.org/2000/svg">
<circle cx="16" cy="16" r="16" fill="#E9983D"/>
<path d="M21.7487 11.3291C21.9504 11.9217 21.9515 12.5642 21.7516 13.1574C21.5518 13.7507 21.1622 14.2616 20.643 14.6113L20.6275 14.6211C21.4621 14.6595 22.2576 14.9859 22.8787 15.5447L22.8845 15.5498C23.3297 16.0452 23.6453 16.6878 23.7488 17.4129C23.7789 17.6241 23.7896 17.8347 23.7828 18.041L23.7831 18.0191C23.8153 18.5498 23.7537 19.082 23.6009 19.5913L23.6084 19.5616C23.4828 19.9863 23.2737 20.3815 22.9932 20.7242L22.9911 20.7271C22.6987 21.0664 22.3505 21.3532 21.9615 21.5751L21.9364 21.5879C21.5108 21.8376 21.0594 22.0403 20.59 22.1925L20.5489 22.2051C20.0615 22.3638 19.475 22.5123 18.8732 22.6251L18.8437 22.6302L19.277 25.6675L17.4449 25.9289L17.0188 22.9427C16.3842 23.0333 15.8997 23.0985 15.5653 23.1383L15.9931 26.136L14.1609 26.3975L13.7278 23.3618C13.5848 23.3822 13.3703 23.4108 13.0844 23.4477C12.7984 23.4846 12.5798 23.5138 12.4286 23.5354L10.0504 23.8747L10.1084 21.6443L11.4282 21.456C11.5148 21.4512 11.5994 21.429 11.6772 21.3907C11.7549 21.3523 11.824 21.2987 11.8805 21.2329C11.9369 21.1671 11.9794 21.0906 12.0055 21.008C12.0316 20.9253 12.0407 20.8383 12.0323 20.752L11.3496 15.9675L11.5394 15.9405C11.4819 15.9404 11.4246 15.9444 11.3677 15.9523L11.3471 15.9553L11.3479 15.9552L10.8607 12.5409C10.7906 12.2981 10.6271 12.0929 10.4062 11.9702C10.1852 11.8475 9.9247 11.8172 9.68148 11.8859L9.68632 11.8844L8.36646 12.0727L8.08799 10.121L10.6122 9.77261C11.1198 9.70019 11.5039 9.64145 11.7646 9.5964L11.3369 6.59868L13.169 6.33728L13.5883 9.2756C14.236 9.16691 14.7188 9.08989 15.0367 9.04453L14.6207 6.1293L16.4529 5.8679L16.8806 8.86562C17.5073 8.82755 18.0892 8.84132 18.66 8.90128L18.5843 8.89608C19.0814 8.94695 19.5691 9.06599 20.0337 9.24986L20.0053 9.2396C20.4411 9.4089 20.8166 9.67516 21.1112 10.0178L21.1194 10.0276C21.4289 10.4014 21.6442 10.8441 21.7471 11.3184L21.7494 11.3282L21.7487 11.3291ZM20.1158 18.1787L20.1114 18.1474C20.0732 17.8801 19.9714 17.6387 19.8236 17.4343L19.8289 17.4419C19.6907 17.2489 19.5157 17.0851 19.314 16.9599L19.3112 16.9577C19.0881 16.8299 18.8449 16.741 18.5919 16.6951L18.5755 16.6923C18.3214 16.638 18.0636 16.6019 17.8043 16.5844L17.7654 16.5832C17.4733 16.5698 17.1805 16.5755 16.8891 16.6005L16.87 16.6024C16.518 16.6285 16.2427 16.6557 16.0442 16.684C15.8457 16.7123 15.5905 16.7527 15.2787 16.805C14.9669 16.8574 14.7791 16.8881 14.7153 16.8972L15.2887 20.9161C15.3519 20.9071 15.499 20.8881 15.73 20.8591C15.961 20.83 16.1515 20.8048 16.3017 20.7834C16.4518 20.762 16.6613 20.7259 16.9301 20.6752C17.199 20.6245 17.4288 20.5754 17.6195 20.528C17.8103 20.4806 18.0315 20.4148 18.2833 20.3306C18.5326 20.2496 18.7463 20.1602 18.9503 20.0562L18.9195 20.0707C19.1293 19.9599 19.3037 19.8492 19.468 19.7264L19.4481 19.7402C19.617 19.6202 19.7558 19.4783 19.8659 19.3178L19.8666 19.3169C19.9661 19.1647 20.0418 18.9931 20.0883 18.8114L20.0907 18.7993C20.139 18.603 20.1488 18.3992 20.1196 18.1992L20.1164 18.1769L20.1165 18.1778L20.1158 18.1787ZM18.463 12.6354L18.4587 12.6049C18.4242 12.3632 18.3363 12.1426 18.2098 11.9519L18.2152 11.9604C18.0998 11.7856 17.9528 11.6339 17.7818 11.513L17.7809 11.5123C17.5961 11.3937 17.391 11.3102 17.1759 11.2661L17.163 11.2637C16.9479 11.2108 16.7287 11.1762 16.5077 11.1603L16.4798 11.1592C16.2386 11.1475 15.997 11.15 15.7561 11.1665L15.7336 11.168C15.4409 11.1857 15.2094 11.2086 15.0389 11.2369C14.8684 11.2651 14.6548 11.2995 14.3979 11.3401C14.1411 11.3807 13.9847 11.4049 13.9286 11.413L14.4497 15.0657L14.8614 15.0128C15.0962 14.9832 15.2804 14.9569 15.4141 14.934C15.5477 14.911 15.7445 14.8747 16.0046 14.8253C16.233 14.7848 16.4584 14.7287 16.6792 14.6575L16.6501 14.6658C16.8216 14.6088 17.0193 14.5357 17.2434 14.4465C17.4543 14.3676 17.6365 14.2642 17.7978 14.1376L17.7886 14.144C17.9318 14.026 18.0647 13.8961 18.186 13.7557L18.1824 13.7596C18.3064 13.6176 18.3937 13.4473 18.4365 13.2637L18.4379 13.2559C18.4823 13.0712 18.4929 12.8626 18.4627 12.6506L18.4602 12.6333L18.4603 12.6341L18.463 12.6354Z" fill="white"/>
</svg>
