<svg width="24" height="24" viewBox="0 0 24 24" fill="none" xmlns="http://www.w3.org/2000/svg">
<path d="M8.5 14.6666C8.5 15.9553 9.54467 16.9999 10.8333 16.9999H13C14.3807 16.9999 15.5 15.8807 15.5 14.4999C15.5 13.1192 14.3807 11.9999 13 11.9999H11C9.61929 11.9999 8.5 10.8807 8.5 9.49994C8.5 8.11923 9.61929 6.99994 11 6.99994H13.1667C14.4553 6.99994 15.5 8.04461 15.5 9.33327M12 5.49994V6.99994M12 16.9999V18.4999M22 11.9999C22 17.5228 17.5228 21.9999 12 21.9999C6.47715 21.9999 2 17.5228 2 11.9999C2 6.47709 6.47715 1.99994 12 1.99994C17.5228 1.99994 22 6.47709 22 11.9999Z" stroke="white" stroke-width="2" stroke-linecap="round" stroke-linejoin="round"/>
</svg>
