<svg width="32" height="32" viewBox="0 0 32 32" fill="none" xmlns="http://www.w3.org/2000/svg">
<circle cx="16" cy="16" r="16" fill="#04AD6C"/>
<path fill-rule="evenodd" clip-rule="evenodd" d="M22.8794 11.3726V8H9.14291V11.3726H14.1801V13.5696L14.0173 13.5791C12.8861 13.6452 12.1589 13.712 11.3141 13.8272C9.89547 14.0207 8.71189 14.3075 7.96322 14.6392C6.87647 15.1207 6.70144 15.6823 7.4782 16.1954C8.41587 16.8148 10.6957 17.3037 13.4709 17.4804C13.7296 17.4969 13.995 17.5141 14.0607 17.5187L14.1801 17.527V24.5881H17.8278V17.5265L17.9038 17.5186C17.9456 17.5142 18.0644 17.5068 18.1679 17.5021C18.2714 17.4975 18.5352 17.4809 18.7541 17.4653C21.4222 17.2754 23.5882 16.8031 24.5079 16.2107C24.719 16.0747 24.8741 15.9202 24.9466 15.7736C24.9956 15.6745 25 15.6555 25 15.5412C25 15.4277 24.9955 15.4079 24.9493 15.3166C24.8835 15.1864 24.7248 15.0256 24.544 14.9059C23.7681 14.392 22.1024 13.9682 19.9338 13.7328C19.3237 13.6665 18.905 13.6331 18.0051 13.5789L17.8422 13.5691V11.3726H22.8794ZM11.401 14.0658C12.1068 13.9717 12.7477 13.9117 13.7169 13.8492C13.8164 13.8427 13.9613 13.8366 14.0389 13.8354L14.18 13.8333L14.1874 16.2868L14.2815 16.2961C14.9045 16.3578 17.17 16.3597 17.7445 16.2991L17.8278 16.2903V13.829L18.0485 13.8388C18.618 13.8639 19.5189 13.9367 20.1365 14.0076C21.6868 14.1854 22.8844 14.4566 23.5525 14.7809C23.7731 14.888 23.8688 14.9503 23.9843 15.0618C24.0981 15.1717 24.1446 15.2625 24.1447 15.3749C24.1447 15.4817 24.1082 15.5576 24.0036 15.6682C23.762 15.9237 23.2064 16.1584 22.3511 16.3665C21.067 16.6788 19.231 16.8834 17.1402 16.9471C16.2669 16.9737 14.7529 16.953 13.811 16.9016C11.1184 16.7546 8.99859 16.3488 8.19826 15.8271C7.77814 15.5532 7.74664 15.2521 8.10963 14.9797C8.6031 14.6093 9.78388 14.2814 11.401 14.0658Z" fill="white"/>
</svg>
