<svg width="64" height="64" viewBox="0 0 64 64" fill="none" xmlns="http://www.w3.org/2000/svg">
<path d="M49 49H59V51H49V49ZM53 53H55V55H53V53ZM57 53H59V55H57V53ZM49 53H51V55H49V53ZM5 9H15V11H5V9ZM13 13H15V15H13V13ZM5 13H7V15H5V13ZM9 13H11V15H9V13Z" fill="#007346"/>
<path d="M49 35.729V29H60C61.654 29 63 27.654 63 26V4C63 2.346 61.654 1 60 1H34C32.346 1 31 2.346 31 4V11H19V5H1V19H19V13H31V15H28.271L27.395 17.734C26.623 17.982 25.876 18.29 25.166 18.653L22.617 17.341L17.343 22.615L18.655 25.164C18.293 25.873 17.985 26.619 17.736 27.393L15 28.271V35H4C2.346 35 1 36.346 1 38V60C1 61.654 2.346 63 4 63H30C31.654 63 33 61.654 33 60V53H45V59H63V45H45V51H33V49H35.729L36.605 46.266C37.378 46.017 38.125 45.71 38.834 45.347L41.383 46.659L46.657 41.385L45.345 38.836C45.707 38.127 46.015 37.381 46.264 36.607L49 35.729ZM17 17H3V7H17V17ZM47 47H61V57H47V47ZM41 32C41 36.624 37.493 40.442 33 40.941V38C33 36.346 31.654 35 30 35H23.522C23.1779 34.0372 23.0014 33.0225 23 32C23 27.376 26.507 23.558 31 23.059V26C31 27.654 32.346 29 34 29H40.478C40.818 29.96 41 30.965 41 32ZM40.08 27C40.2463 25.8601 40.6909 24.7788 41.3747 23.8518C42.0584 22.9247 42.9601 22.1805 44 21.685V22C44 23.654 45.346 25 47 25C48.654 25 50 23.654 50 22V21.685C51.0399 22.1805 51.9416 22.9247 52.6253 23.8518C53.3091 24.7788 53.7537 25.8601 53.92 27H40.08ZM42 11.605C42.0011 10.6492 42.3812 9.73289 43.057 9.05705C43.7329 8.38121 44.6492 8.00106 45.605 8H46V10.382L43.658 11.553C43.035 11.865 42.558 12.37 42.279 12.975C42.0973 12.541 42.0026 12.0755 42 11.605ZM46 21.08C46.328 21.033 46.66 21 47 21C47.34 21 47.672 21.033 48 21.08V22C47.9885 22.2575 47.8781 22.5006 47.6918 22.6787C47.5055 22.8569 47.2577 22.9563 47 22.9563C46.7423 22.9563 46.4945 22.8569 46.3082 22.6787C46.1219 22.5006 46.0115 22.2575 46 22V21.08ZM51.721 12.974C51.4366 12.3569 50.9501 11.8552 50.342 11.552L48 10.382V8H48.395C49.3508 8.00106 50.2671 8.38121 50.943 9.05705C51.6188 9.73289 51.9989 10.6492 52 11.605C52 12.08 51.9 12.542 51.721 12.974ZM46 19C44.897 19 44 18.103 44 17V14.236C44 13.855 44.212 13.512 44.553 13.342L47 12.118L49.447 13.342C49.788 13.512 50 13.855 50 14.236V17C50 18.103 49.103 19 48 19H46ZM33 4C33 3.449 33.448 3 34 3H60C60.552 3 61 3.449 61 4V26C61 26.551 60.552 27 60 27H55.941C55.588 23.826 53.577 21.153 50.797 19.852C51.1777 19.481 51.4803 19.0375 51.6869 18.5476C51.8935 18.0578 52 17.5316 52 17V16.303L53.059 14.715C53.675 13.791 54 12.715 54 11.606C53.9984 10.1199 53.4074 8.69502 52.3566 7.64407C51.3059 6.59311 49.8811 6.00185 48.395 6H45.606C44.1199 6.00159 42.695 6.59259 41.6441 7.64336C40.5931 8.69413 40.0019 10.1189 40 11.605C40 12.715 40.325 13.79 40.941 14.714L42 16.303V17C42 18.117 42.462 19.125 43.203 19.852C40.423 21.153 38.412 23.826 38.059 27H34C33.448 27 33 26.551 33 26V4ZM17 29.729L19.356 28.974L19.502 28.457C19.776 27.4834 20.1626 26.5451 20.654 25.661L20.917 25.193L19.787 22.998L22.999 19.787L25.193 20.916L25.662 20.654C26.532 20.167 27.473 19.779 28.459 19.501L28.976 19.355L29.729 17H31V21.051C25.402 21.558 21 26.272 21 32C21 33.027 21.151 34.029 21.426 35H17V29.729ZM11 52V47C11 44.033 13.167 41.569 16 41.09V43.382L13.658 44.553C13.1586 44.8007 12.7386 45.1833 12.4456 45.6576C12.1525 46.1318 11.9982 46.6786 12 47.236V50C12 51.117 12.462 52.125 13.203 52.852C12.646 53.1128 12.1172 53.4301 11.625 53.799C11.2227 53.2854 11.0028 52.6524 11 52ZM16 52C14.897 52 14 51.103 14 50V47.236C14 46.855 14.212 46.512 14.553 46.342L17 45.118L19.447 46.342C19.788 46.512 20 46.855 20 47.236V50C20 51.103 19.103 52 18 52H16ZM17 54C17.7788 54.0015 18.5519 54.1336 19.287 54.391L18.572 56H15.428L14.713 54.391C15.4481 54.1336 16.2212 54.0015 17 54ZM17.683 58L17 59.537L16.317 58H17.683ZM21.066 55.313C21.9725 55.9589 22.7117 56.8119 23.222 57.801C23.7323 58.7902 23.9991 59.8869 24 61H18.539L21.066 55.313ZM23 52C23 52.659 22.773 53.283 22.375 53.798C21.8826 53.4295 21.3538 53.1122 20.797 52.851C21.1777 52.4802 21.4803 52.0369 21.6869 51.5472C21.8935 51.0575 22 50.5315 22 50V47.236C22.0017 46.6786 21.8473 46.1318 21.5543 45.6576C21.2613 45.1835 20.8413 44.8008 20.342 44.553L18 43.382V41.09C20.833 41.568 23 44.032 23 47V52ZM12.934 55.313L15.461 61H10C10.0009 59.8869 10.2677 58.7902 10.778 57.801C11.2883 56.8119 12.0275 55.9589 12.934 55.313ZM31 60C31 60.551 30.552 61 30 61H26C26.0007 58.8623 25.2363 56.795 23.845 55.172C24.5915 54.2837 25.0005 53.1604 25 52V47C25 42.589 21.411 39 17 39C12.589 39 9 42.589 9 47V52C9 53.174 9.413 54.284 10.155 55.172C8.76372 56.795 7.99928 58.8623 8 61H4C3.448 61 3 60.551 3 60V38C3 37.449 3.448 37 4 37H30C30.552 37 31 37.449 31 38V60ZM44.644 35.025L44.498 35.542C44.224 36.5156 43.8374 37.4539 43.346 38.338L43.083 38.806L44.213 41.001L41.001 44.212L38.806 43.083L38.338 43.345C37.4543 43.838 36.5154 44.2251 35.541 44.498L35.024 44.644L34.271 47H33V42.949C38.598 42.442 43 37.728 43 32C43 30.973 42.849 29.971 42.574 29H47V34.271L44.644 35.025Z" fill="#007346"/>
<path d="M5 39H7V41H5V39ZM27 39H29V41H27V39ZM35 5H37V7H35V5ZM57 5H59V7H57V5Z" fill="#007346"/>
</svg>
