<svg width="64" height="64" viewBox="0 0 64 64" fill="none" xmlns="http://www.w3.org/2000/svg">
<g clip-path="url(#clip0_2203_22503)">
<path d="M51.938 55.7419L49.5483 48.5719C49.1385 47.343 48.406 46.2469 47.4273 45.3983C46.4487 44.5497 45.2599 43.9797 43.9854 43.7481L37.0869 42.4929V41.9582C38.2874 41.2614 39.332 40.3293 40.164 39.2258H42.2482C43.9555 39.2258 45.3449 37.8364 45.3449 36.129V23.7419C45.3449 16.3427 39.3248 10.3226 31.9256 10.3226C24.5263 10.3226 18.5062 16.3427 18.5062 23.7419V30.9677C18.5062 32.9579 19.9214 34.623 21.7981 35.0111C22.3772 37.9778 24.2311 40.4883 26.7643 41.9582V42.4929L19.8647 43.7481C18.5903 43.9798 17.4017 44.5497 16.4232 45.3984C15.4447 46.247 14.7124 47.3431 14.3029 48.5719L13.89 49.8116L10.3741 46.2957C9.97151 45.8932 9.97151 45.2377 10.3741 44.8351L14.4515 40.7587L6.79835 33.1055L2.19035 37.7135C0.825703 39.0782 0.0742188 40.8929 0.0742188 42.8232C0.0742188 44.7535 0.825703 46.5672 2.19035 47.9319L16.1413 61.8828C17.506 63.2475 19.3207 64 21.251 64C23.1813 64 24.995 63.2475 26.3276 61.9138L31.3558 57.3068L29.7878 55.7419H51.938ZM43.2804 36.129C43.2804 36.6988 42.8169 37.1613 42.2482 37.1613H41.38C41.6827 36.4715 41.9084 35.7504 42.0531 35.0111C42.4949 34.9192 42.9016 34.7437 43.2804 34.5228V36.129ZM42.2482 32.7453V29.1902C42.8624 29.5484 43.2804 30.207 43.2804 30.9677C43.2804 31.7285 42.8624 32.3871 42.2482 32.7453ZM21.603 32.7453C20.9888 32.3871 20.5707 31.7285 20.5707 30.9677C20.5707 30.207 20.9888 29.5484 21.603 29.1902V32.7453ZM21.603 25.8064V26.9853C21.241 27.0799 20.8937 27.2237 20.5707 27.4126V23.7419C20.5707 17.4813 25.6649 12.3871 31.9256 12.3871C38.1862 12.3871 43.2804 17.4813 43.2804 23.7419V27.4126C42.9577 27.2233 42.6103 27.0795 42.2482 26.9853V25.8064H41.2159C38.1635 25.8064 35.2938 24.6173 33.1343 22.4588L31.9256 21.2501L30.7168 22.4588C28.5573 24.6173 25.6876 25.8064 22.6353 25.8064H21.603ZM23.6675 33.0323V27.8317C26.7674 27.5985 29.6577 26.3195 31.9256 24.1631C34.1934 26.3195 37.0838 27.5995 40.1836 27.8317V33.0323C40.1836 34.5373 39.7728 35.9453 39.0667 37.1613H31.9256V39.2258H37.3697C35.9142 40.5068 34.0118 41.2903 31.9256 41.2903C27.3723 41.2903 23.6675 37.5855 23.6675 33.0323ZM35.0224 42.879V42.9275L31.9256 46.0243L28.8288 42.9275V42.879C29.8074 43.1866 30.8469 43.3548 31.9256 43.3548C33.0043 43.3548 34.0438 43.1866 35.0224 42.879ZM16.26 49.2243C16.5527 48.3464 17.0758 47.5634 17.7748 46.957C18.4738 46.3507 19.3228 45.9433 20.2332 45.7775L27.4487 44.4666L31.9256 48.9435L36.4014 44.4676L43.6159 45.7786C44.5263 45.9442 45.3755 46.3515 46.0745 46.9578C46.7735 47.5642 47.2966 48.3474 47.5891 49.2253L49.0745 53.6774H27.7232L23.7026 49.6568L19.235 53.6981C18.8458 54.0893 18.1656 54.0893 17.7754 53.6981L15.5209 51.4436L16.26 49.2243ZM6.79731 36.0248L11.5313 40.7587L10.4102 41.8797L5.67628 37.1458L6.79731 36.0248ZM24.898 60.4253C23.9235 61.3977 22.627 61.9355 21.2489 61.9355C19.8709 61.9355 18.5743 61.3977 17.5989 60.4232L3.6479 46.4733C2.67344 45.4988 2.13667 44.2023 2.13667 42.8243C2.13667 41.4452 2.67344 40.1486 3.6479 39.1742L4.21564 38.6065L8.94957 43.3404L8.91241 43.3775C7.7057 44.5853 7.7057 46.5497 8.91241 47.7574L16.3147 55.1597C16.9 55.744 17.6773 56.0671 18.5052 56.0671C19.3331 56.0671 20.1103 55.745 20.6574 55.1959L20.7349 55.1267L25.4905 59.8823L24.898 60.4253ZM27.0141 58.4846L22.2688 53.7394L23.6324 52.5068L28.3694 57.2439L27.0141 58.4846ZM60.8288 0H46.3772C44.6698 0 43.2804 1.38942 43.2804 3.09677V11.3548C43.2804 13.0622 44.6698 14.4516 46.3772 14.4516H49.1343L48.067 20.6772L58.0283 14.4516H60.8288C62.5362 14.4516 63.9256 13.0622 63.9256 11.3548V3.09677C63.9256 1.38942 62.5362 0 60.8288 0ZM61.8611 11.3548C61.8611 11.9236 61.3976 12.3871 60.8288 12.3871H57.4358L50.8799 16.4841L51.5829 12.3871H46.3772C45.8084 12.3871 45.3449 11.9236 45.3449 11.3548V3.09677C45.3449 2.528 45.8084 2.06452 46.3772 2.06452H60.8288C61.3976 2.06452 61.8611 2.528 61.8611 3.09677V11.3548Z" fill="#007346"/>
<path d="M47.4105 4.12903H59.7976V6.19355H47.4105V4.12903ZM47.4105 8.25806H55.6685V10.3226H47.4105V8.25806ZM57.7331 8.25806H59.7976V10.3226H57.7331V8.25806ZM31.9266 3.09677C18.4391 3.09677 6.82106 12.4263 3.80067 25.44L1.84454 22.1791L0.0742188 23.2413L3.70261 29.2872L9.74854 25.6588L8.68635 23.8885L5.88893 25.567C8.81435 13.6619 19.5199 5.16129 31.9266 5.16129C34.6383 5.16129 37.314 5.56387 39.8791 6.35871L40.4902 4.38709C37.7269 3.53032 34.8458 3.09677 31.9266 3.09677ZM63.4249 22.8563L57.379 19.2279L53.7516 25.2748L55.522 26.337L57.3284 23.3259C58.2791 26.1079 58.7653 29.0178 58.7653 32C58.7653 38.1388 56.6389 44.1404 52.7793 48.8981L54.3823 50.1987C58.5403 45.0746 60.8298 38.6106 60.8298 32C60.8298 28.8423 60.3209 25.759 59.3289 22.8067L62.3627 24.6266L63.4249 22.8563Z" fill="#007346"/>
</g>
<defs>
<clipPath id="clip0_2203_22503">
<rect width="64" height="64" fill="white"/>
</clipPath>
</defs>
</svg>
