<svg width="64" height="64" viewBox="0 0 64 64" fill="none" xmlns="http://www.w3.org/2000/svg">
<g clip-path="url(#clip0_2203_22552)">
<path d="M60.1644 21.159C60.1417 21.0295 60.0937 20.9058 60.0232 20.7949C59.9526 20.684 59.8609 20.5882 59.7533 20.5127C59.6456 20.4373 59.5242 20.3839 59.3958 20.3554C59.2675 20.327 59.1349 20.3241 59.0054 20.347L54.0834 21.214C53.9539 21.2367 53.8301 21.2847 53.7191 21.3553C53.6081 21.426 53.5122 21.5178 53.4368 21.6255C53.3613 21.7333 53.3079 21.8549 53.2795 21.9833C53.2512 22.1117 53.2484 22.2445 53.2714 22.374L53.4854 23.585L50.6854 24.074L49.0004 23.816V9C49.0004 7.93913 48.579 6.92172 47.8289 6.17157C47.0787 5.42143 46.0613 5 45.0004 5H38.0004V3C38.0004 2.20435 37.6844 1.44129 37.1217 0.87868C36.5591 0.31607 35.7961 0 35.0004 0L29.0004 0C28.2048 0 27.4417 0.31607 26.8791 0.87868C26.3165 1.44129 26.0004 2.20435 26.0004 3V5H19.0004C17.9396 5 16.9221 5.42143 16.172 6.17157C15.4219 6.92172 15.0004 7.93913 15.0004 9V23.819L13.3084 24.078L10.5164 23.586L10.7294 22.374C10.7524 22.2445 10.7497 22.1117 10.7213 21.9833C10.693 21.8549 10.6395 21.7333 10.5641 21.6255C10.4887 21.5178 10.3927 21.426 10.2818 21.3553C10.1708 21.2847 10.047 21.2367 9.91743 21.214L5.00043 20.347C4.87093 20.324 4.73816 20.3267 4.60973 20.3551C4.4813 20.3835 4.35972 20.4369 4.25197 20.5123C4.14421 20.5878 4.0524 20.6837 3.98178 20.7947C3.91116 20.9056 3.86313 21.0294 3.84043 21.159L0.015432 42.822C-0.00758605 42.9515 -0.00483065 43.0843 0.0235404 43.2127C0.0519114 43.3411 0.105341 43.4627 0.180768 43.5705C0.256196 43.6782 0.352139 43.77 0.463104 43.8407C0.574069 43.9113 0.697875 43.9593 0.827432 43.982L5.75043 44.849C5.87986 44.8719 6.01252 44.869 6.14084 44.8406C6.26916 44.8121 6.39062 44.7587 6.49826 44.6833C6.6059 44.6078 6.69762 44.5119 6.76818 44.4011C6.83873 44.2902 6.88673 44.1665 6.90943 44.037L7.00043 43.5L7.82643 43.646C8.58775 45.3229 9.69535 46.8197 11.0764 48.038C11.0235 48.9409 11.2806 49.8349 11.805 50.5718C12.3295 51.3086 13.09 51.8443 13.9604 52.09C13.4926 52.867 13.3044 53.7806 13.4271 54.6792C13.5497 55.5778 13.9758 56.4076 14.6348 57.0308C15.2937 57.654 16.1459 58.0333 17.0499 58.1057C17.954 58.1781 18.8557 57.9394 19.6054 57.429C19.7049 58.093 19.9717 58.7208 20.3807 59.2533C20.7898 59.7857 21.3276 60.2053 21.9436 60.4724C22.5596 60.7396 23.2335 60.8456 23.9017 60.7805C24.57 60.7153 25.2107 60.4811 25.7634 60.1C25.857 60.7125 26.0931 61.2944 26.4527 61.7989C26.8124 62.3034 27.2855 62.7164 27.8339 63.0045C28.3824 63.2927 28.9909 63.4481 29.6103 63.4581C30.2298 63.468 30.843 63.3324 31.4004 63.062V63.068L31.8004 63.334C32.2385 63.624 32.7294 63.8249 33.2451 63.9252C33.7608 64.0255 34.2913 64.0232 34.8061 63.9184C35.3209 63.8137 35.8101 63.6085 36.2456 63.3147C36.6811 63.0209 37.0545 62.6441 37.3444 62.206C37.7822 61.5395 38.0062 60.7552 37.9864 59.958C38.3108 60.0463 38.6452 60.0927 38.9814 60.096C39.5098 60.0976 40.0333 59.9943 40.5215 59.7921C41.0097 59.5899 41.453 59.2928 41.8255 58.918C42.198 58.5433 42.4925 58.0983 42.6918 57.6089C42.891 57.1195 42.9912 56.5954 42.9864 56.067C43.3048 56.1507 43.6323 56.1944 43.9614 56.197C44.4892 56.197 45.0117 56.0926 45.4989 55.8898C45.9861 55.6869 46.4283 55.3897 46.8002 55.0152C47.172 54.6407 47.466 54.1963 47.6653 53.7076C47.8646 53.219 47.9653 52.6957 47.9614 52.168C48.571 52.3269 49.2097 52.3382 49.8246 52.2011C50.4395 52.064 51.0129 51.7824 51.4973 51.3797C51.9816 50.9769 52.3631 50.4645 52.6101 49.885C52.8571 49.3054 52.9624 48.6754 52.9174 48.047C54.2998 46.8267 55.4075 45.327 56.1674 43.647L57.0004 43.505L57.0944 44.037C57.1171 44.1666 57.1652 44.2904 57.2358 44.4013C57.3064 44.5123 57.3982 44.6082 57.506 44.6837C57.6137 44.7591 57.7353 44.8125 57.8637 44.8409C57.9922 44.8693 58.1249 44.872 58.2544 44.849L63.1764 43.982C63.306 43.9593 63.4298 43.9113 63.5408 43.8407C63.6517 43.77 63.7477 43.6782 63.8231 43.5705C63.8985 43.4627 63.952 43.3411 63.9803 43.2127C64.0087 43.0843 64.0115 42.9515 63.9884 42.822L60.1644 21.159ZM28.0004 3C28.0004 2.73478 28.1058 2.48043 28.2933 2.29289C28.4809 2.10536 28.7352 2 29.0004 2H35.0004C35.2656 2 35.52 2.10536 35.7075 2.29289C35.8951 2.48043 36.0004 2.73478 36.0004 3V5H28.0004V3ZM17.0004 9C17.0004 8.46957 17.2111 7.96086 17.5862 7.58579C17.9613 7.21071 18.47 7 19.0004 7H45.0004C45.5309 7 46.0396 7.21071 46.4146 7.58579C46.7897 7.96086 47.0004 8.46957 47.0004 9V12C47.0004 12.7956 46.6844 13.5587 46.1217 14.1213C45.5591 14.6839 44.7961 15 44.0004 15V14C44.0004 13.7348 43.8951 13.4804 43.7075 13.2929C43.52 13.1054 43.2656 13 43.0004 13H39.0004C38.7352 13 38.4809 13.1054 38.2933 13.2929C38.1058 13.4804 38.0004 13.7348 38.0004 14V15H26.0004V14C26.0004 13.7348 25.8951 13.4804 25.7075 13.2929C25.52 13.1054 25.2656 13 25.0004 13H21.0004C20.7352 13 20.4809 13.1054 20.2933 13.2929C20.1058 13.4804 20.0004 13.7348 20.0004 14V15C19.2048 15 18.4417 14.6839 17.8791 14.1213C17.3165 13.5587 17.0004 12.7956 17.0004 12V9ZM42.0004 15V17H40.0004V15H42.0004ZM24.0004 15V17H22.0004V15H24.0004ZM17.0004 15.974C17.8608 16.6358 18.915 16.9963 20.0004 17V18C20.0004 18.2652 20.1058 18.5196 20.2933 18.7071C20.4809 18.8946 20.7352 19 21.0004 19H25.0004C25.2656 19 25.52 18.8946 25.7075 18.7071C25.8951 18.5196 26.0004 18.2652 26.0004 18V17H38.0004V18C38.0004 18.2652 38.1058 18.5196 38.2933 18.7071C38.4809 18.8946 38.7352 19 39.0004 19H43.0004C43.2656 19 43.52 18.8946 43.7075 18.7071C43.8951 18.5196 44.0004 18.2652 44.0004 18V17C45.0859 16.9963 46.14 16.6358 47.0004 15.974V23.51L39.4004 22.348C37.7478 22.0991 36.0586 22.3133 34.5204 22.967L32.0004 24.041L29.4874 22.97C27.9469 22.3135 26.2538 22.0998 24.5984 22.353L17.0004 23.514V15.974ZM5.11343 42.707L2.15943 42.185L5.63143 22.485L8.58643 23.006L5.11343 42.707ZM13.5304 49.53C13.1896 49.1238 13.0241 48.5988 13.0702 48.0706C13.1163 47.5423 13.3704 47.054 13.7764 46.713L17.6074 43.5C17.8086 43.3311 18.0411 43.2035 18.2916 43.1245C18.5421 43.0455 18.8057 43.0165 19.0674 43.0394C19.3291 43.0622 19.5837 43.1364 19.8167 43.2576C20.0497 43.3789 20.2565 43.5448 20.4254 43.746C20.5943 43.9472 20.7219 44.1797 20.8009 44.4302C20.88 44.6807 20.9089 44.9443 20.8861 45.2059C20.8632 45.4676 20.7891 45.7222 20.6678 45.9553C20.5466 46.1883 20.3806 46.3951 20.1794 46.564L16.3484 49.779C16.1471 49.9477 15.9144 50.0751 15.6638 50.1539C15.4132 50.2328 15.1495 50.2614 14.8878 50.2383C14.6262 50.2152 14.3716 50.1407 14.1387 50.0192C13.9058 49.8977 13.6991 49.7314 13.5304 49.53ZM18.6724 55.659C18.4712 55.8279 18.2386 55.9555 17.9881 56.0345C17.7375 56.1135 17.4739 56.1424 17.2121 56.1195C16.9504 56.0966 16.6958 56.0224 16.4627 55.9011C16.2297 55.7798 16.0228 55.6138 15.8539 55.4125C15.6851 55.2112 15.5575 54.9787 15.4785 54.7281C15.3994 54.4776 15.3706 54.2139 15.3935 53.9522C15.4163 53.6905 15.4906 53.4358 15.6119 53.2028C15.7332 52.9697 15.8992 52.7629 16.1004 52.594L20.7004 48.737C21.1089 48.4173 21.6256 48.2688 22.1415 48.3228C22.6575 48.3769 23.1322 48.6292 23.4655 49.0267C23.7989 49.4241 23.9648 49.9356 23.9282 50.453C23.8916 50.9704 23.6554 51.4534 23.2694 51.8L18.6724 55.659ZM24.8274 58.327C24.6262 58.4958 24.3937 58.6233 24.1431 58.7023C23.8926 58.7812 23.629 58.8101 23.3673 58.7871C23.1056 58.7642 22.851 58.6899 22.618 58.5686C22.385 58.4473 22.1782 58.2813 22.0094 58.08C21.8406 57.8787 21.7131 57.6462 21.6341 57.3957C21.5552 57.1451 21.5264 56.8815 21.5493 56.6198C21.5722 56.3582 21.6465 56.1036 21.7678 55.8706C21.8892 55.6376 22.0552 55.4308 22.2564 55.262L25.3214 52.691C25.7285 52.3568 26.251 52.1967 26.7755 52.2455C27.2999 52.2942 27.7839 52.5478 28.1225 52.9513C28.461 53.3548 28.6268 53.8755 28.5837 54.4004C28.5406 54.9254 28.2922 55.4121 27.8924 55.755L24.8274 58.327ZM30.9814 61C30.5744 61.3362 30.0511 61.4978 29.5254 61.4497C28.9997 61.4015 28.5144 61.1475 28.1752 60.743C27.8361 60.3385 27.6706 59.8164 27.7148 59.2904C27.7591 58.7643 28.0095 58.2771 28.4114 57.935L31.4754 55.364C31.6766 55.1951 31.9091 55.0675 32.1596 54.9884C32.4101 54.9094 32.6737 54.8804 32.9354 54.9033C33.1971 54.9261 33.4517 55.0003 33.6847 55.1216C33.9177 55.2428 34.1246 55.4088 34.2934 55.61C34.4623 55.8112 34.5898 56.0438 34.6688 56.2943C34.7478 56.5448 34.7766 56.8085 34.7537 57.0702C34.7307 57.3318 34.6565 57.5865 34.5351 57.8194C34.4138 58.0524 34.2477 58.2592 34.0464 58.428L30.9814 61ZM35.6744 61.106C35.4094 61.51 35.0058 61.8032 34.5396 61.9303C34.0734 62.0574 33.5768 62.0096 33.1434 61.796L35.3324 59.96C35.5395 59.7869 35.7284 59.5932 35.8964 59.382C35.9911 59.6666 36.0203 59.9689 35.9818 60.2664C35.9434 60.5638 35.8383 60.8488 35.6744 61.1V61.106ZM50.6134 49.4C50.4685 49.6191 50.2818 49.8074 50.064 49.9543C49.8462 50.1013 49.6017 50.2038 49.3443 50.2562C49.0868 50.3086 48.8216 50.3097 48.5638 50.2596C48.3059 50.2095 48.0605 50.109 47.8414 49.964L39.5004 44.447C39.3911 44.3678 39.2668 44.3115 39.1352 44.2816C39.0035 44.2517 38.8671 44.2487 38.7343 44.2729C38.6014 44.2972 38.4748 44.348 38.3622 44.4225C38.2496 44.497 38.1532 44.5935 38.0788 44.7062C38.0045 44.8189 37.9537 44.9455 37.9296 45.0784C37.9056 45.2113 37.9087 45.3476 37.9387 45.4793C37.9688 45.6109 38.0252 45.7351 38.1045 45.8444C38.1839 45.9536 38.2845 46.0457 38.4004 46.115L45.0744 50.532C45.5165 50.8252 45.8241 51.282 45.9294 51.802C46.0347 52.3219 45.9291 52.8624 45.6359 53.3045C45.3427 53.7466 44.8859 54.0542 44.366 54.1595C43.846 54.2648 43.3055 54.1592 42.8634 53.866L36.1904 49.45C36.0792 49.3755 35.954 49.3245 35.8224 49.3C35.5953 49.2572 35.3604 49.2944 35.1577 49.4052C34.9549 49.516 34.7967 49.6936 34.7101 49.9079C34.6235 50.1221 34.6138 50.3597 34.6826 50.5804C34.7513 50.801 34.8944 50.991 35.0874 51.118L40.0874 54.431C40.5269 54.7252 40.8319 55.1815 40.9357 55.7C41.0396 56.2185 40.9339 56.7571 40.6417 57.1979C40.3495 57.6387 39.8947 57.9458 39.3766 58.0521C38.8586 58.1583 38.3196 58.0551 37.8774 57.765L36.7374 57.011C36.765 56.2773 36.5883 55.5503 36.227 54.9111C35.8657 54.2719 35.334 53.7456 34.6912 53.3908C34.0484 53.036 33.3196 52.8667 32.5862 52.9017C31.8528 52.9366 31.1436 53.1746 30.5374 53.589C30.4599 53.0691 30.2791 52.5699 30.0057 52.121C29.7323 51.672 29.3718 51.2823 28.9455 50.9748C28.5191 50.6672 28.0356 50.4481 27.5233 50.3304C27.011 50.2126 26.4803 50.1985 25.9624 50.289C25.9799 49.3425 25.6543 48.4216 25.0457 47.6964C24.4371 46.9713 23.5867 46.4909 22.6514 46.344C22.9441 45.5183 22.9568 44.6193 22.6875 43.7857C22.4182 42.9521 21.8819 42.2304 21.1615 41.732C20.4411 41.2336 19.5767 40.9863 18.7017 41.0282C17.8267 41.0702 16.9899 41.399 16.3204 41.964L12.4894 45.179C12.2216 45.4096 11.9861 45.6754 11.7894 45.969C10.7886 44.9372 9.99976 43.7192 9.46743 42.384C9.40438 42.2252 9.3017 42.0852 9.16918 41.9774C9.03666 41.8695 8.87873 41.7975 8.71043 41.768L7.34943 41.528L10.1664 25.553L13.1204 26.074C13.228 26.0925 13.3379 26.0925 13.4454 26.074L24.9004 24.33C26.1871 24.1326 27.5033 24.2989 28.7004 24.81L29.4444 25.127L25.4514 26.827C24.5543 27.2107 23.7894 27.849 23.2514 28.663L19.4884 34.336C19.0531 35.0023 18.8985 35.8136 19.0585 36.5933C19.2184 37.373 19.6799 38.0579 20.3424 38.499C21.4489 39.228 22.7992 39.4887 24.0974 39.2238C25.3957 38.9589 26.536 38.1902 27.2684 37.086L28.9854 34.5L32.6364 33.753C33.0299 34.9662 33.6984 36.0722 34.5896 36.9845C35.4808 37.8969 36.5708 38.5911 37.7744 39.013C38.201 39.1651 38.6386 39.2845 39.0834 39.37L50.0484 46.63C50.4905 46.9226 50.7983 47.3787 50.9042 47.8981C51.0102 48.4175 50.9056 48.9577 50.6134 49.4ZM55.2884 41.77C55.1194 41.7994 54.9609 41.8718 54.828 41.9802C54.695 42.0886 54.5922 42.2294 54.5294 42.389C53.9968 43.7304 53.2051 44.9537 52.1994 45.989C51.9178 45.5838 51.5627 45.2351 51.1524 44.961L42.6524 39.338C43.757 39.1173 44.8091 38.6876 45.7524 38.072L47.3234 37.042C47.5452 36.8961 47.6998 36.6682 47.7535 36.4082C47.8071 36.1483 47.7553 35.8777 47.6094 35.656C47.4636 35.4343 47.2356 35.2796 46.9757 35.2259C46.7157 35.1723 46.4452 35.2241 46.2234 35.37L44.6574 36.4C43.7517 36.9949 42.7199 37.3706 41.6437 37.4975C40.5676 37.6244 39.4767 37.4989 38.4574 37.131C37.5195 36.8042 36.6721 36.2602 35.9844 35.5435C35.2967 34.8268 34.7882 33.9577 34.5004 33.007C34.438 32.8016 34.3853 32.5934 34.3424 32.383C34.2883 32.1242 34.1339 31.8974 33.9129 31.7521C33.692 31.6069 33.4225 31.5551 33.1634 31.608L28.1824 32.628C27.9233 32.681 27.6956 32.8345 27.5494 33.055L25.6104 35.984C25.1708 36.646 24.4868 37.107 23.7082 37.2661C22.9295 37.4252 22.1196 37.2695 21.4554 36.833C21.2338 36.6854 21.0793 36.4564 21.0254 36.1956C20.9715 35.9349 21.0225 35.6634 21.1674 35.44L24.9284 29.768C25.251 29.2809 25.7087 28.8986 26.2454 28.668L35.3064 24.808C36.5043 24.2995 37.8197 24.133 39.1064 24.327L50.5564 26.077C50.6635 26.0935 50.7724 26.0935 50.8794 26.077L53.8394 25.559L56.6504 41.534L55.2884 41.77ZM58.8884 42.705L55.4154 23.005L58.3704 22.484L61.8424 42.184L58.8884 42.705Z" fill="#007346"/>
</g>
<defs>
<clipPath id="clip0_2203_22552">
<rect width="64" height="64" fill="white"/>
</clipPath>
</defs>
</svg>
