<svg width="64" height="64" viewBox="0 0 64 64" fill="none" xmlns="http://www.w3.org/2000/svg">
<g clip-path="url(#clip0_2203_22536)">
<path d="M26 51H29V53H26V51Z" fill="#007346"/>
<path d="M59 0H5C2.243 0 0 2.243 0 5V48C0 50.757 2.243 53 5 53H10V51H5C3.346 51 2 49.654 2 48V10H62V48C62 49.654 60.654 51 59 51V53C61.757 53 64 50.757 64 48V5C64 2.243 61.757 0 59 0ZM62 8H2V5C2 3.346 3.346 2 5 2H59C60.654 2 62 3.346 62 5V8Z" fill="#007346"/>
<path d="M5 6C5.55228 6 6 5.55228 6 5C6 4.44772 5.55228 4 5 4C4.44772 4 4 4.44772 4 5C4 5.55228 4.44772 6 5 6Z" fill="#007346"/>
<path d="M9 6C9.55228 6 10 5.55228 10 5C10 4.44772 9.55228 4 9 4C8.44772 4 8 4.44772 8 5C8 5.55228 8.44772 6 9 6Z" fill="#007346"/>
<path d="M13 6C13.5523 6 14 5.55228 14 5C14 4.44772 13.5523 4 13 4C12.4477 4 12 4.44772 12 5C12 5.55228 12.4477 6 13 6Z" fill="#007346"/>
<path d="M52 40H46V36C46 35.448 45.552 35 45 35H32.061C32.659 33.445 33 31.763 33 30C33 29.448 32.552 29 32 29H20V17C20 16.448 19.552 16 19 16C11.28 16 5 22.28 5 30C5 37.72 11.28 44 19 44C24.168 44 28.681 41.177 31.106 37H44V40H36C33.243 40 31 42.243 31 45V55C31 57.757 33.243 60 36 60H52C54.757 60 57 57.757 57 55V45C57 42.243 54.757 40 52 40ZM7 30C7 23.72 11.85 18.551 18 18.042V29.8L13.482 40.644C9.636 38.643 7 34.627 7 30ZM29.895 35H25.815C25.401 33.839 24.301 33 22.999 33C21.345 33 19.999 34.346 19.999 36C19.999 37.654 21.345 39 22.999 39C24.301 39 25.401 38.161 25.815 37H28.731C26.55 40.023 23.004 42 19 42C17.718 42 16.484 41.793 15.325 41.419L19.667 31H30.958C30.84 32.419 30.465 33.763 29.895 35ZM24 36C24 36.551 23.551 37 23 37C22.449 37 22 36.551 22 36C22 35.449 22.449 35 23 35C23.551 35 24 35.449 24 36ZM55 55C55 56.654 53.654 58 52 58H36C34.346 58 33 56.654 33 55V45C33 43.346 34.346 42 36 42H52C53.654 42 55 43.346 55 45V55Z" fill="#007346"/>
<path d="M37 12C36.735 12 36.48 12.105 36.293 12.293L32.678 15.908C30.161 13.494 26.755 12 23 12C22.448 12 22 12.448 22 13V26C22 26.552 22.448 27 23 27H36C36.552 27 37 26.552 37 26C37 22.755 35.88 19.771 34.02 17.394L37.414 14H42V12H37ZM34.958 25H24V14.042C26.807 14.275 29.337 15.485 31.265 17.321L29.293 19.293L30.707 20.707L32.595 18.819C33.912 20.573 34.767 22.692 34.958 25ZM44 12H60V14H44V12ZM44 16H60V18H44V16ZM44 20H60V22H44V20ZM24 62V52C24 51.448 23.552 51 23 51H19V48C19 47.448 18.552 47 18 47H13C12.448 47 12 47.448 12 48V56H8C7.448 56 7 56.448 7 57V62H2V64H28V62H24ZM12 62H9V58H12V62ZM17 52V62H14V49H17V52ZM22 62H19V53H22V62ZM51.052 45.683L48.74 52.621L43.859 44.485C43.666 44.163 43.319 43.976 42.934 44.002C42.559 44.027 42.231 44.26 42.083 44.606L39.665 50.249L37.709 48.293C37.5919 48.1761 37.4476 48.0901 37.2891 48.0426C37.1305 47.9952 36.9627 47.9877 36.8006 48.021C36.6385 48.0543 36.4872 48.1273 36.3603 48.2334C36.2333 48.3395 36.1346 48.4754 36.073 48.629L34.073 53.629L35.929 54.372L37.366 50.78L39.294 52.708C39.4094 52.8237 39.5515 52.9093 39.7077 52.9572C39.8639 53.0052 40.0295 53.014 40.19 52.983C40.3506 52.9524 40.5011 52.8827 40.6284 52.7802C40.7557 52.6776 40.8559 52.5454 40.92 52.395L43.15 47.192L48.144 55.515C48.242 55.6789 48.3851 55.8113 48.5562 55.8962C48.7273 55.9811 48.9192 56.0151 49.109 55.994C49.2991 55.973 49.4793 55.898 49.6282 55.7779C49.777 55.6577 49.8884 55.4974 49.949 55.316L52.949 46.316L51.052 45.683ZM59 26H49C48.448 26 48 26.448 48 27V35C48 35.552 48.448 36 49 36H59C59.552 36 60 35.552 60 35V27C60 26.448 59.552 26 59 26ZM56.149 28L54 29.72L51.85 28H56.149ZM50 29.08L52.4 31L50 32.92V29.08ZM51.85 34L54 32.28L56.15 34H51.85ZM58 32.919L55.6 31L58 29.08V32.919Z" fill="#007346"/>
</g>
<defs>
<clipPath id="clip0_2203_22536">
<rect width="64" height="64" fill="white"/>
</clipPath>
</defs>
</svg>
