<svg width="64" height="64" viewBox="0 0 64 64" fill="none" xmlns="http://www.w3.org/2000/svg">
<path d="M30.7718 58.7542C30.7718 59.0195 30.6664 59.2738 30.4789 59.4614C30.2913 59.6489 30.037 59.7542 29.7718 59.7542H25.2399C24.9747 59.7542 24.7203 59.6489 24.5328 59.4614C24.3452 59.2738 24.2399 59.0195 24.2399 58.7542C24.2399 58.489 24.3452 58.2347 24.5328 58.0471C24.7203 57.8596 24.9747 57.7542 25.2399 57.7542H29.7718C30.037 57.7542 30.2913 57.8596 30.4789 58.0471C30.6664 58.2347 30.7718 58.489 30.7718 58.7542ZM57.4051 35.2084C57.5261 35.6686 57.4609 36.1578 57.2238 36.5704C56.9867 36.9829 56.5966 37.2854 56.1381 37.4125L55.0775 37.6946C54.6172 37.8177 54.127 37.7531 53.7143 37.5151C53.3016 37.277 53.0002 36.885 52.8763 36.425L52.7294 35.8768C50.5745 35.1939 48.2794 35.0811 46.068 35.5494L47.5015 40.9029C47.5355 41.0297 47.5442 41.1621 47.5271 41.2923C47.51 41.4226 47.4673 41.5481 47.4017 41.6619C47.336 41.7757 47.2485 41.8754 47.1443 41.9553C47.0401 42.0353 46.9211 42.0939 46.7943 42.1279L44.9241 42.6286V57.9393C44.9226 59.281 44.3889 60.5674 43.4401 61.5161C42.4913 62.4649 41.2049 62.9985 39.8631 63H15.1484C13.8066 62.9985 12.5203 62.4649 11.5715 61.5161C10.6227 60.5674 10.089 59.281 10.0875 57.9393V30.5285H5.82925C4.83888 30.5274 3.88939 30.1335 3.18909 29.4332C2.4888 28.7329 2.09487 27.7834 2.09375 26.793V17.718C2.09487 16.7276 2.4888 15.7781 3.18909 15.0778C3.88939 14.3775 4.83888 13.9836 5.82925 13.9825H10.0875V9.78837C10.089 8.44663 10.6227 7.16027 11.5715 6.21152C12.5203 5.26277 13.8066 4.72911 15.1484 4.72762H35.6144C35.6175 3.73864 36.0123 2.79118 36.7123 2.09257C37.4124 1.39397 38.3606 1.00112 39.3496 1H50.7025C51.6929 1.00109 52.6424 1.395 53.3427 2.0953C54.0431 2.7956 54.437 3.74511 54.4381 4.7355V13.8105C54.4375 14.8014 54.0438 15.7515 53.3435 16.4525C52.6432 17.1535 51.6935 17.548 50.7026 17.5496H44.9241V25.1566C46.4859 24.4338 47.8875 23.4064 49.0469 22.1346L48.9001 21.5872C48.7778 21.1262 48.8434 20.6355 49.0824 20.2227C49.3214 19.8099 49.7144 19.5088 50.1751 19.3854L51.2251 19.1026C51.6865 18.9799 52.1776 19.0453 52.5909 19.2843C53.0041 19.5233 53.3056 19.9165 53.4292 20.3776L54.5719 24.6408C55.3016 24.668 56.0033 24.9283 56.5743 25.3834C57.1454 25.8386 57.5556 26.4646 57.7449 27.1699C57.9335 27.875 57.8913 28.622 57.6244 29.3014C57.3575 29.9808 56.8799 30.5567 56.2617 30.9449L57.4051 35.2084ZM55.1596 26.8307L55.6753 28.7542C55.7678 28.5945 55.8277 28.418 55.8515 28.235C55.8753 28.0519 55.8625 27.866 55.814 27.6879C55.7179 27.3268 55.4826 27.0186 55.1596 26.8307ZM43.6108 34.1045L42.0369 28.2269L37.4362 29.4597C37.3226 29.4915 37.226 29.5668 37.1673 29.6693C37.1087 29.7717 37.0928 29.8931 37.123 30.0072L38.4659 35.0206C38.4967 35.135 38.5716 35.2325 38.6742 35.2919C38.7767 35.3513 38.8986 35.3677 39.0131 35.3375L43.6108 34.1045ZM37.6141 13.81C37.6142 14.2706 37.7969 14.7124 38.1223 15.0384C38.4476 15.3645 38.889 15.5481 39.3496 15.5491H40.5121C40.7773 15.5491 41.0317 15.6545 41.2192 15.842C41.4068 16.0296 41.5121 16.2839 41.5121 16.5491V17.2059L42.7878 15.8609C42.8812 15.7624 42.9937 15.6839 43.1185 15.6303C43.2432 15.5767 43.3776 15.5491 43.5134 15.5491H50.7028C51.1633 15.5481 51.6047 15.3644 51.93 15.0384C52.2554 14.7124 52.4381 14.2706 52.4381 13.81V4.735C52.4375 4.27494 52.2544 3.83393 51.929 3.50868C51.6036 3.18343 51.1626 3.0005 50.7025 3H39.3496C38.8895 3.00053 38.4484 3.18355 38.123 3.5089C37.7977 3.83426 37.6147 4.27538 37.6141 4.7355V13.81ZM23.8713 6.72762C24.1761 7.06875 24.4826 7.286 24.8395 7.286H30.4239C30.7251 7.286 30.9201 7.1435 31.2195 6.72762H23.8713ZM5.82925 28.5285H13.0187C13.1546 28.5285 13.2891 28.5563 13.4139 28.61C13.5387 28.6637 13.6512 28.7423 13.7446 28.841L15.0196 30.1871V29.5287C15.0196 29.2635 15.125 29.0092 15.3125 28.8216C15.5001 28.6341 15.7544 28.5287 16.0196 28.5287H17.1821C17.6422 28.5282 18.0834 28.3452 18.4087 28.0198C18.7341 27.6945 18.9171 27.2534 18.9176 26.7932V17.7183C18.9171 17.2581 18.7341 16.817 18.4087 16.4917C18.0834 16.1663 17.6422 15.9833 17.1821 15.9827H5.82925C5.36913 15.9833 4.92801 16.1663 4.60265 16.4917C4.2773 16.817 4.09428 17.2581 4.09375 17.7183V26.7932C4.09435 27.2533 4.27739 27.6944 4.60274 28.0197C4.92809 28.345 5.36917 28.528 5.82925 28.5285ZM12.0875 30.5285V54.505H16.3559V46.2925C16.3559 42.9784 19.2254 40.2821 22.7524 40.2821H23.6149C23.2614 39.8989 22.9462 39.4821 22.6736 39.0376C21.6839 37.4312 21.0929 35.2626 21.0929 33.2351C21.1007 31.369 21.8476 29.582 23.1699 28.2652C24.4923 26.9484 26.2824 26.2091 28.1486 26.2091C30.0147 26.2091 31.8049 26.9484 33.1272 28.2652C34.4496 29.582 35.1964 31.369 35.2043 33.2351C35.2043 35.8281 34.3394 38.5168 32.6856 40.2821H33.5451C37.0721 40.2821 39.9416 42.9784 39.9416 46.2925V54.505H42.9238V41.9137L40.6096 36.9799L39.5303 37.2694C39.3229 37.325 39.1092 37.3532 38.8945 37.3534C38.356 37.3519 37.833 37.1731 37.4062 36.8447C36.9795 36.5164 36.6727 36.0566 36.5332 35.5365L35.1906 30.524C35.0248 29.8983 35.113 29.2323 35.4359 28.6713C35.7588 28.1102 36.2904 27.6995 36.9147 27.5286L42.485 26.0359C42.6331 25.9961 42.7788 25.9536 42.9238 25.9109V18.6234L41.2381 20.4015C41.1005 20.5466 40.9226 20.6471 40.7272 20.6901C40.5319 20.733 40.3282 20.7164 40.1424 20.6424C39.9566 20.5684 39.7973 20.4403 39.685 20.2749C39.5727 20.1094 39.5126 19.914 39.5125 19.714V17.5491H39.35C38.3591 17.5475 37.4094 17.153 36.7091 16.452C36.0088 15.751 35.6151 14.8009 35.6145 13.81V6.72762H34.0061C33.8918 6.72336 33.7782 6.74874 33.6765 6.80131C33.5749 6.85387 33.4885 6.93183 33.4259 7.02763C33.3444 7.14288 33.2634 7.2675 33.1787 7.39937C32.6935 8.15088 31.9601 9.28687 30.4239 9.28687H24.8395C23.1694 9.28687 22.2159 7.92163 21.6461 7.106L21.5896 7.025C21.526 6.93037 21.4392 6.85351 21.3377 6.80164C21.2361 6.74977 21.123 6.7246 21.009 6.7285H15.1484C14.3371 6.72956 13.5594 7.05226 12.9858 7.62586C12.4121 8.19946 12.0893 8.97714 12.0881 9.78837V13.9829H17.1827C18.1731 13.984 19.1226 14.3779 19.8229 15.0782C20.5232 15.7785 20.9171 16.728 20.9183 17.7184V26.7934C20.9171 27.7837 20.5232 28.7332 19.8229 29.4335C19.1226 30.1338 18.1731 30.5278 17.1827 30.5289H17.0202V32.6963C17.0202 32.8963 16.9601 33.0917 16.8478 33.2573C16.7355 33.4228 16.5762 33.5509 16.3903 33.6249C16.2045 33.699 16.0007 33.7155 15.8053 33.6726C15.61 33.6296 15.432 33.529 15.2944 33.3838L12.5881 30.5285H12.0875ZM35.5093 49.3856V54.505H37.942V46.2925C37.942 44.0811 35.9698 42.2821 33.5455 42.2821H22.7524C20.3281 42.2821 18.3559 44.0811 18.3559 46.2925V54.505H20.785V49.3856C20.785 49.1204 20.8904 48.8661 21.0779 48.6785C21.2654 48.491 21.5198 48.3856 21.785 48.3856C22.0502 48.3856 22.3046 48.491 22.4921 48.6785C22.6796 48.8661 22.785 49.1204 22.785 49.3856V54.505H33.5093V49.3856C33.5093 49.1204 33.6146 48.8661 33.8021 48.6785C33.9897 48.491 34.244 48.3856 34.5093 48.3856C34.7745 48.3856 35.0288 48.491 35.2164 48.6785C35.4039 48.8661 35.5093 49.1204 35.5093 49.3856ZM28.149 40.2819C31.0836 40.2819 32.5501 37.5379 33.0255 35.0444C30.9981 34.7933 29.1071 34.293 26.7473 32.5742L23.2146 34.7132C23.6198 37.2882 25.0836 40.2819 28.149 40.2819ZM26.2916 30.5125C26.4655 30.4073 26.6673 30.3575 26.8701 30.3698C27.073 30.3821 27.2673 30.456 27.4271 30.5815C29.6521 32.3282 31.2751 32.8085 33.2 33.0518C33.1544 31.7999 32.6455 30.6095 31.772 29.7116C30.8985 28.8136 29.7228 28.272 28.4726 28.1917C27.2225 28.1114 25.9871 28.4982 25.006 29.2771C24.0248 30.056 23.3679 31.1715 23.1625 32.4072L26.2916 30.5125ZM42.9241 57.9398V56.505H12.0881V57.9393C12.0891 58.7506 12.4118 59.5285 12.9854 60.1023C13.5591 60.6761 14.337 60.9989 15.1484 61H39.8631C40.6746 60.9991 41.4527 60.6764 42.0265 60.1026C42.6004 59.5288 42.9232 58.7508 42.9241 57.9393V57.9398ZM45.3109 40.4546L44.1281 36.037L42.5724 36.4541L44.5449 40.6598L45.3109 40.4546ZM52.1319 33.6475L49.6454 24.3682C48.0172 25.8769 46.0763 27.008 43.961 27.6807L45.5506 33.6162C47.7208 33.151 49.9661 33.1615 52.1319 33.647V33.6475ZM55.4217 35.5342L51.5494 21.0861L50.8845 21.2652L54.7555 35.711L55.4217 35.5342ZM61.8732 26.0592C61.8045 25.8031 61.6368 25.5848 61.4071 25.4522C61.1774 25.3197 60.9044 25.2839 60.6483 25.3526L59.1033 25.7673C58.9758 25.8007 58.8562 25.8591 58.7514 25.9389C58.6466 26.0187 58.5586 26.1185 58.4924 26.2325C58.4263 26.3464 58.3833 26.4724 58.366 26.603C58.3487 26.7336 58.3573 26.8664 58.3915 26.9936C58.4256 27.1209 58.4846 27.2402 58.565 27.3446C58.6454 27.449 58.7456 27.5364 58.86 27.602C58.9743 27.6675 59.1004 27.7098 59.2311 27.7264C59.3618 27.7431 59.4945 27.7337 59.6216 27.6989L61.1665 27.2843C61.2934 27.2502 61.4123 27.1915 61.5165 27.1115C61.6207 27.0316 61.7081 26.9318 61.7737 26.818C61.8393 26.7043 61.8819 26.5787 61.899 26.4484C61.9161 26.3182 61.9073 26.1859 61.8732 26.059V26.0592ZM60.7401 30.5259L59.3546 29.7285C59.1247 29.5962 58.8517 29.5607 58.5957 29.6297C58.3396 29.6987 58.1214 29.8666 57.9891 30.0965C57.8568 30.3264 57.8213 30.5994 57.8903 30.8555C57.9593 31.1115 58.1272 31.3297 58.3571 31.462L59.7426 32.2593C59.9723 32.3884 60.2436 32.4216 60.4977 32.3518C60.7517 32.282 60.968 32.1147 61.0994 31.8863C61.2308 31.658 61.2668 31.387 61.1995 31.1322C61.1322 30.8775 60.9672 30.6596 60.7401 30.5259ZM56.4917 24.5125C56.7214 24.6452 56.9943 24.6812 57.2505 24.6127C57.5067 24.5442 57.7252 24.3767 57.8579 24.1471L58.6588 22.7617C58.7245 22.648 58.7671 22.5225 58.7843 22.3923C58.8015 22.2621 58.7929 22.1298 58.759 22.0029C58.7251 21.876 58.6665 21.7571 58.5866 21.6529C58.5067 21.5486 58.407 21.4612 58.2933 21.3954C58.0637 21.2627 57.7907 21.2267 57.5345 21.2952C57.2782 21.3637 57.0597 21.5312 56.927 21.7609L56.1263 23.1462C56.0605 23.26 56.0179 23.3855 56.0007 23.5157C55.9835 23.6459 55.9921 23.7782 56.026 23.9051C56.06 24.0319 56.1186 24.1509 56.1985 24.2551C56.2784 24.3593 56.378 24.4468 56.4917 24.5125ZM13.7076 27.2226L11.5054 26.1392L9.29975 27.2227C9.13636 27.303 8.95415 27.3372 8.77277 27.3216C8.5914 27.3059 8.41773 27.2411 8.2705 27.134C8.12327 27.0269 8.00807 26.8817 7.93732 26.7139C7.86656 26.5462 7.84294 26.3623 7.869 26.1821L8.22038 23.753L6.50787 21.9905C6.381 21.8599 6.29218 21.6972 6.25101 21.5198C6.20983 21.3424 6.21786 21.1572 6.27423 20.9841C6.3306 20.8109 6.43316 20.6565 6.57087 20.5374C6.70857 20.4182 6.87618 20.339 7.05562 20.3081L9.47563 19.892L10.6207 17.7197C10.7056 17.5587 10.8329 17.4239 10.9888 17.3298C11.1447 17.2358 11.3233 17.1861 11.5054 17.1861C11.6874 17.1861 11.8661 17.2358 12.0219 17.3298C12.1778 17.4239 12.3051 17.5587 12.39 17.7197L13.535 19.8919L15.9552 20.308C16.1347 20.3389 16.3023 20.4181 16.44 20.5372C16.5777 20.6564 16.6803 20.8108 16.7366 20.9839C16.793 21.1571 16.801 21.3423 16.7599 21.5197C16.7187 21.697 16.6299 21.8598 16.503 21.9904L14.7905 23.7529L15.1389 26.1828C15.1647 26.3629 15.1409 26.5467 15.07 26.7143C14.9991 26.8819 14.8838 27.0269 14.7366 27.1339C14.5893 27.2408 14.4157 27.3055 14.2343 27.321C14.053 27.3366 13.8709 27.3023 13.7076 27.222V27.2226ZM13.0131 22.7125L13.7464 21.958L12.7106 21.7799C12.5596 21.7539 12.4165 21.6936 12.2925 21.6036C12.1685 21.5135 12.0668 21.3962 11.9954 21.2606L11.5052 20.3307L11.015 21.2606C10.9435 21.3962 10.8419 21.5135 10.7179 21.6036C10.5938 21.6936 10.4508 21.7539 10.2997 21.7799L9.26412 21.9579L9.99737 22.7125C10.104 22.8223 10.1841 22.9552 10.2313 23.1008C10.2785 23.2464 10.2917 23.401 10.2697 23.5525L10.1198 24.5917L11.0647 24.1276C11.202 24.0602 11.3529 24.0251 11.5059 24.0251C11.6588 24.0251 11.8097 24.0602 11.947 24.1276L12.8901 24.5915L12.741 23.551C12.7193 23.3997 12.7325 23.2455 12.7797 23.1001C12.8269 22.9548 12.9067 22.8222 13.0131 22.7125ZM40.8131 12.7055H49.2393C49.5045 12.7055 49.7588 12.6001 49.9464 12.4126C50.1339 12.2251 50.2393 11.9707 50.2393 11.7055C50.2393 11.4403 50.1339 11.1859 49.9464 10.9984C49.7588 10.8109 49.5045 10.7055 49.2393 10.7055H40.8131C40.5479 10.7055 40.2936 10.8109 40.106 10.9984C39.9185 11.1859 39.8131 11.4403 39.8131 11.7055C39.8131 11.9707 39.9185 12.2251 40.106 12.4126C40.2936 12.6001 40.5479 12.7055 40.8131 12.7055ZM40.8131 7.8405H49.2393C49.5045 7.8405 49.7588 7.73514 49.9464 7.54761C50.1339 7.36007 50.2393 7.10572 50.2393 6.8405C50.2393 6.57528 50.1339 6.32093 49.9464 6.13339C49.7588 5.94586 49.5045 5.8405 49.2393 5.8405H40.8131C40.5479 5.8405 40.2936 5.94586 40.106 6.13339C39.9185 6.32093 39.8131 6.57528 39.8131 6.8405C39.8131 7.10572 39.9185 7.36007 40.106 7.54761C40.2936 7.73514 40.5479 7.8405 40.8131 7.8405Z" fill="#007346"/>
</svg>
