<svg width="64" height="64" viewBox="0 0 64 64" fill="none" xmlns="http://www.w3.org/2000/svg">
<path d="M61.7602 54.35C61.6659 54.2408 61.5492 54.1531 61.4182 54.0927C61.2871 54.0323 61.1446 54.0007 61.0002 54H60.0002V21C59.9979 20.2051 59.681 19.4434 59.1189 18.8813C58.5568 18.3192 57.7952 18.0024 57.0002 18H56.0002V17.1C55.9992 16.8551 55.9095 16.6189 55.7477 16.435C55.5859 16.2512 55.363 16.1322 55.1202 16.1L52.7202 15.8L54.2102 13.89C54.3586 13.6968 54.4313 13.456 54.4147 13.213C54.3982 12.9699 54.2935 12.7413 54.1202 12.57L51.4302 9.88C51.2596 9.70562 51.0308 9.60008 50.7874 9.58348C50.544 9.56688 50.303 9.64039 50.1102 9.79L48.2002 11.28L47.9002 8.88C47.8681 8.63722 47.7491 8.41431 47.5652 8.25252C47.3814 8.09073 47.1451 8.00102 46.9002 8H43.1002C42.8553 8.00102 42.6191 8.09073 42.4353 8.25252C42.2514 8.41431 42.1324 8.63722 42.1002 8.88L41.8002 11.28L39.8902 9.79C39.6975 9.64039 39.4565 9.56688 39.2131 9.58348C38.9697 9.60008 38.7409 9.70562 38.5702 9.88L35.8802 12.57C35.707 12.7413 35.6023 12.9699 35.5857 13.213C35.5692 13.456 35.6419 13.6968 35.7902 13.89L37.2802 15.8L34.8802 16.1C34.6375 16.1322 34.4146 16.2512 34.2528 16.435C34.091 16.6189 34.0013 16.8551 34.0002 17.1V18H7.00024C6.20532 18.0024 5.44364 18.3192 4.88155 18.8813C4.31945 19.4434 4.00262 20.2051 4.00024 21V54H3.00024C2.85592 54.0007 2.71343 54.0323 2.58234 54.0927C2.45125 54.1531 2.3346 54.2408 2.24024 54.35C2.1475 54.4615 2.07912 54.5912 2.03951 54.7307C1.9999 54.8702 1.98993 55.0164 2.01024 55.16L2.74024 59.49C2.85186 60.1914 3.21049 60.8299 3.75143 61.2901C4.29237 61.7504 4.98 62.0021 5.69024 62H58.3102C59.0205 62.0021 59.7081 61.7504 60.2491 61.2901C60.79 60.8299 61.1486 60.1914 61.2602 59.49L61.9902 55.16C62.0106 55.0164 62.0006 54.8702 61.961 54.7307C61.9214 54.5912 61.853 54.4615 61.7602 54.35ZM36.0002 17.98L38.3702 17.68C38.5559 17.6563 38.7312 17.5809 38.8762 17.4624C39.0212 17.344 39.13 17.1872 39.1902 17.01C39.2802 16.77 39.3802 16.53 39.4902 16.3C39.5742 16.1328 39.6084 15.945 39.5889 15.7589C39.5694 15.5728 39.497 15.3962 39.3802 15.25L37.9102 13.36L39.3602 11.91L41.2502 13.38C41.3965 13.4968 41.5731 13.5692 41.7591 13.5887C41.9452 13.6082 42.133 13.5739 42.3002 13.49C42.5302 13.38 42.7702 13.28 43.0102 13.19C43.1875 13.1297 43.3442 13.0209 43.4627 12.876C43.5811 12.731 43.6565 12.5557 43.6802 12.37L43.9802 10H46.0202L46.3202 12.37C46.344 12.5557 46.4194 12.731 46.5378 12.876C46.6562 13.0209 46.813 13.1297 46.9902 13.19C47.2302 13.28 47.4702 13.38 47.7002 13.49C47.8675 13.5739 48.0553 13.6082 48.2413 13.5887C48.4274 13.5692 48.604 13.4968 48.7502 13.38L50.6402 11.91L52.0902 13.36L50.6202 15.25C50.5035 15.3962 50.4311 15.5728 50.4116 15.7589C50.3921 15.945 50.4263 16.1328 50.5102 16.3C50.6202 16.53 50.7202 16.77 50.8102 17.01C50.8705 17.1872 50.9793 17.344 51.1243 17.4624C51.2692 17.5809 51.4446 17.6563 51.6302 17.68L54.0002 17.98V20.02L51.6302 20.32C51.4446 20.3437 51.2692 20.4191 51.1243 20.5376C50.9793 20.656 50.8705 20.8128 50.8102 20.99C50.7202 21.23 50.6202 21.47 50.5102 21.7C50.4263 21.8672 50.3921 22.055 50.4116 22.2411C50.4311 22.4272 50.5035 22.6038 50.6202 22.75L52.0902 24.64L50.6402 26.09L48.7502 24.62C48.604 24.5032 48.4274 24.4308 48.2413 24.4113C48.0553 24.3918 47.8675 24.4261 47.7002 24.51C47.4702 24.62 47.2302 24.72 46.9902 24.81C46.813 24.8703 46.6562 24.9791 46.5378 25.124C46.4194 25.269 46.344 25.4443 46.3202 25.63L46.0202 28H43.9802L43.6802 25.63C43.6565 25.4443 43.5811 25.269 43.4627 25.124C43.3442 24.9791 43.1875 24.8703 43.0102 24.81C42.7702 24.72 42.5302 24.62 42.3002 24.51C42.133 24.4261 41.9452 24.3918 41.7591 24.4113C41.5731 24.4308 41.3965 24.5032 41.2502 24.62L39.3602 26.09L37.9102 24.64L39.3802 22.75C39.497 22.6038 39.5694 22.4272 39.5889 22.2411C39.6084 22.055 39.5742 21.8672 39.4902 21.7C39.3802 21.47 39.2802 21.23 39.1902 20.99C39.13 20.8128 39.0212 20.656 38.8762 20.5376C38.7312 20.4191 38.5559 20.3437 38.3702 20.32L36.0002 20.02V17.98ZM6.00024 21C6.00024 20.7348 6.1056 20.4804 6.29314 20.2929C6.48067 20.1054 6.73503 20 7.00024 20H34.0002V20.9C34.0013 21.1449 34.091 21.3811 34.2528 21.565C34.4146 21.7488 34.6375 21.8678 34.8802 21.9L37.2802 22.2L35.7902 24.11C35.6419 24.3032 35.5692 24.544 35.5857 24.787C35.6023 25.0301 35.707 25.2587 35.8802 25.43L38.5702 28.12C38.7409 28.2944 38.9697 28.3999 39.2131 28.4165C39.4565 28.4331 39.6975 28.3596 39.8902 28.21L41.8002 26.72L42.1002 29.12C42.1324 29.3628 42.2514 29.5857 42.4353 29.7475C42.6191 29.9093 42.8553 29.999 43.1002 30H46.9002C47.1451 29.999 47.3814 29.9093 47.5652 29.7475C47.7491 29.5857 47.8681 29.3628 47.9002 29.12L48.2002 26.72L50.1102 28.21C50.303 28.3596 50.544 28.4331 50.7874 28.4165C51.0308 28.3999 51.2596 28.2944 51.4302 28.12L54.1202 25.43C54.2935 25.2587 54.3982 25.0301 54.4147 24.787C54.4313 24.544 54.3586 24.3032 54.2102 24.11L52.7202 22.2L55.1202 21.9C55.363 21.8678 55.5859 21.7488 55.7477 21.565C55.9095 21.3811 55.9992 21.1449 56.0002 20.9V20H57.0002C57.2655 20 57.5198 20.1054 57.7074 20.2929C57.8949 20.4804 58.0002 20.7348 58.0002 21V54H36.0002C35.735 54 35.4807 54.1054 35.2931 54.2929C35.1056 54.4804 35.0002 54.7348 35.0002 55V56H29.0002V55C29.0002 54.7348 28.8949 54.4804 28.7074 54.2929C28.5198 54.1054 28.2655 54 28.0002 54H6.00024V21ZM59.2902 59.16C59.2546 59.3942 59.136 59.6077 58.9562 59.7619C58.7763 59.9161 58.5471 60.0005 58.3102 60H5.69024C5.45337 60.0005 5.22417 59.9161 5.04432 59.7619C4.86448 59.6077 4.74593 59.3942 4.71024 59.16L4.18024 56H27.0002V57C27.0002 57.2652 27.1056 57.5196 27.2931 57.7071C27.4807 57.8946 27.735 58 28.0002 58H36.0002C36.2655 58 36.5198 57.8946 36.7074 57.7071C36.8949 57.5196 37.0002 57.2652 37.0002 57V56H59.8202L59.2902 59.16Z" fill="#007346"/>
<path d="M29.12 36.1L26.72 35.8L28.21 33.89C28.3584 33.6968 28.4311 33.456 28.4145 33.213C28.3979 32.9699 28.2932 32.7413 28.12 32.57L25.43 29.88C25.2587 29.7068 25.0301 29.6021 24.787 29.5855C24.544 29.5689 24.3032 29.6416 24.11 29.79L22.2 31.28L21.9 28.88C21.8678 28.6372 21.7488 28.4143 21.565 28.2525C21.3811 28.0907 21.1449 28.001 20.9 28H17.1C16.8551 28.001 16.6189 28.0907 16.435 28.2525C16.2512 28.4143 16.1322 28.6372 16.1 28.88L15.8 31.28L13.89 29.79C13.6973 29.6404 13.4563 29.5669 13.2129 29.5835C12.9694 29.6001 12.7406 29.7056 12.57 29.88L9.88 32.57C9.70679 32.7413 9.60207 32.9699 9.5855 33.213C9.56892 33.456 9.64164 33.6968 9.79 33.89L11.28 35.8L8.88 36.1C8.63722 36.1321 8.41431 36.2512 8.25252 36.435C8.09073 36.6189 8.00102 36.8551 8 37.1V40.9C8.00102 41.1449 8.09073 41.3811 8.25252 41.565C8.41431 41.7488 8.63722 41.8679 8.88 41.9L11.28 42.2L9.79 44.11C9.64164 44.3032 9.56892 44.544 9.5855 44.787C9.60207 45.0301 9.70679 45.2587 9.88 45.43L12.57 48.12C12.7406 48.2944 12.9694 48.3999 13.2129 48.4165C13.4563 48.4331 13.6973 48.3596 13.89 48.21L15.8 46.72L16.1 49.12C16.1322 49.3628 16.2512 49.5857 16.435 49.7475C16.6189 49.9093 16.8551 49.999 17.1 50H20.9C21.1449 49.999 21.3811 49.9093 21.565 49.7475C21.7488 49.5857 21.8678 49.3628 21.9 49.12L22.2 46.72L24.11 48.21C24.3032 48.3584 24.544 48.4311 24.787 48.4145C25.0301 48.3979 25.2587 48.2932 25.43 48.12L28.12 45.43C28.2932 45.2587 28.3979 45.0301 28.4145 44.787C28.4311 44.544 28.3584 44.3032 28.21 44.11L26.72 42.2L29.12 41.9C29.3628 41.8679 29.5857 41.7488 29.7475 41.565C29.9093 41.3811 29.999 41.1449 30 40.9V37.1C29.999 36.8551 29.9093 36.6189 29.7475 36.435C29.5857 36.2512 29.3628 36.1321 29.12 36.1ZM28 40.02L25.63 40.32C25.4443 40.3437 25.269 40.4191 25.124 40.5376C24.9791 40.656 24.8703 40.8128 24.81 40.99C24.72 41.23 24.62 41.47 24.51 41.7C24.4261 41.8672 24.3918 42.055 24.4113 42.2411C24.4308 42.4272 24.5032 42.6038 24.62 42.75L26.09 44.64L24.64 46.09L22.75 44.62C22.6038 44.5032 22.4272 44.4308 22.2411 44.4113C22.055 44.3918 21.8672 44.4261 21.7 44.51C21.47 44.62 21.23 44.72 20.99 44.81C20.8128 44.8703 20.656 44.9791 20.5376 45.124C20.4191 45.269 20.3437 45.4443 20.32 45.63L20.02 48H17.98L17.68 45.63C17.6563 45.4443 17.5809 45.269 17.4624 45.124C17.344 44.9791 17.1872 44.8703 17.01 44.81C16.77 44.72 16.53 44.62 16.3 44.51C16.1328 44.4261 15.945 44.3918 15.7589 44.4113C15.5728 44.4308 15.3962 44.5032 15.25 44.62L13.36 46.09L11.91 44.64L13.38 42.75C13.4968 42.6038 13.5692 42.4272 13.5887 42.2411C13.6082 42.055 13.5739 41.8672 13.49 41.7C13.38 41.47 13.28 41.23 13.19 40.99C13.1297 40.8128 13.0209 40.656 12.876 40.5376C12.731 40.4191 12.5557 40.3437 12.37 40.32L10 40.02V37.98L12.37 37.68C12.5557 37.6563 12.731 37.5809 12.876 37.4624C13.0209 37.344 13.1297 37.1872 13.19 37.01C13.28 36.77 13.38 36.53 13.49 36.3C13.5739 36.1328 13.6082 35.945 13.5887 35.7589C13.5692 35.5728 13.4968 35.3962 13.38 35.25L11.91 33.36L13.36 31.91L15.25 33.38C15.3962 33.4968 15.5728 33.5692 15.7589 33.5887C15.945 33.6082 16.1328 33.5739 16.3 33.49C16.53 33.38 16.77 33.28 17.01 33.19C17.1872 33.1297 17.344 33.0209 17.4624 32.876C17.5809 32.731 17.6563 32.5557 17.68 32.37L17.98 30H20.02L20.32 32.37C20.3437 32.5557 20.4191 32.731 20.5376 32.876C20.656 33.0209 20.8128 33.1297 20.99 33.19C21.23 33.28 21.47 33.38 21.7 33.49C21.8672 33.5739 22.055 33.6082 22.2411 33.5887C22.4272 33.5692 22.6038 33.4968 22.75 33.38L24.64 31.91L26.09 33.36L24.62 35.25C24.5032 35.3962 24.4308 35.5728 24.4113 35.7589C24.3918 35.945 24.4261 36.1328 24.51 36.3C24.62 36.53 24.72 36.77 24.81 37.01C24.8703 37.1872 24.9791 37.344 25.124 37.4624C25.269 37.5809 25.4443 37.6563 25.63 37.68L28 37.98V40.02Z" fill="#007346"/>
<path d="M19 34C18.0111 34 17.0444 34.2932 16.2222 34.8427C15.3999 35.3921 14.759 36.173 14.3806 37.0866C14.0022 38.0002 13.9031 39.0055 14.0961 39.9755C14.289 40.9454 14.7652 41.8363 15.4645 42.5355C16.1637 43.2348 17.0546 43.711 18.0246 43.9039C18.9945 44.0969 19.9998 43.9978 20.9134 43.6194C21.8271 43.241 22.6079 42.6001 23.1574 41.7779C23.7068 40.9556 24 39.9889 24 39C23.9984 37.6744 23.4711 36.4036 22.5338 35.4662C21.5964 34.5289 20.3256 34.0016 19 34ZM19 42C18.4067 42 17.8266 41.8241 17.3333 41.4944C16.8399 41.1648 16.4554 40.6962 16.2284 40.148C16.0013 39.5999 15.9419 38.9967 16.0576 38.4147C16.1734 37.8328 16.4591 37.2982 16.8787 36.8787C17.2982 36.4591 17.8328 36.1734 18.4147 36.0576C18.9967 35.9419 19.5999 36.0013 20.1481 36.2284C20.6962 36.4554 21.1648 36.8399 21.4944 37.3333C21.8241 37.8266 22 38.4067 22 39C22 39.7957 21.6839 40.5587 21.1213 41.1213C20.5587 41.6839 19.7957 42 19 42ZM45 24C45.9889 24 46.9556 23.7068 47.7779 23.1573C48.6001 22.6079 49.241 21.827 49.6194 20.9134C49.9978 19.9998 50.0969 18.9945 49.9039 18.0245C49.711 17.0546 49.2348 16.1637 48.5355 15.4645C47.8363 14.7652 46.9454 14.289 45.9755 14.0961C45.0055 13.9031 44.0002 14.0022 43.0866 14.3806C42.173 14.759 41.3921 15.3999 40.8427 16.2221C40.2932 17.0444 40 18.0111 40 19C40.0016 20.3256 40.5289 21.5964 41.4662 22.5338C42.4036 23.4711 43.6744 23.9984 45 24ZM45 16C45.5933 16 46.1734 16.1759 46.6667 16.5056C47.1601 16.8352 47.5446 17.3038 47.7716 17.8519C47.9987 18.4001 48.0581 19.0033 47.9424 19.5853C47.8266 20.1672 47.5409 20.7018 47.1213 21.1213C46.7018 21.5409 46.1672 21.8266 45.5853 21.9424C45.0033 22.0581 44.4001 21.9987 43.852 21.7716C43.3038 21.5446 42.8352 21.1601 42.5056 20.6667C42.1759 20.1734 42 19.5933 42 19C42 18.2044 42.3161 17.4413 42.8787 16.8787C43.4413 16.3161 44.2044 16 45 16ZM18 22H20V26H18V22ZM20 4H44V6H46V3C46 2.73478 45.8946 2.48043 45.7071 2.29289C45.5196 2.10536 45.2652 2 45 2H19C18.7348 2 18.4804 2.10536 18.2929 2.29289C18.1054 2.48043 18 2.73478 18 3V16H20V4ZM46 39V32H44V38H32V40H45C45.2652 40 45.5196 39.8946 45.7071 39.7071C45.8946 39.5196 46 39.2652 46 39ZM44 46H56V48H44V46ZM36 46H42V48H36V46ZM36 50H56V52H36V50ZM36 42H56V44H36V42Z" fill="#007346"/>
</svg>
