<svg width="64" height="64" viewBox="0 0 64 64" fill="none" xmlns="http://www.w3.org/2000/svg">
<path d="M58.6647 16.095H56.8658C56.8646 16.092 56.8633 16.0889 56.8622 16.0859L56.5171 15.2435C56.5148 15.238 56.5125 15.2326 56.5102 15.2271L56.5106 15.2245L57.7887 13.9366C58.3927 13.328 58.3927 12.3375 57.7887 11.7288L55.3879 9.30975C55.0936 9.013 54.7008 8.8495 54.2822 8.8495C53.8636 8.8495 53.4709 9.013 53.1766 9.30963L51.9037 10.592L51.8944 10.5881L51.0647 10.2429L51.0524 10.2379L51.0517 10.2368V8.41175C51.0517 7.55025 50.3508 6.84925 49.4892 6.84925H46.0989C45.2373 6.84925 44.5364 7.55025 44.5364 8.41175V10.2368L44.5357 10.2379L44.5234 10.2429L43.6938 10.5881C43.6908 10.5895 43.6877 10.5908 43.6846 10.592L42.4119 9.3095C42.2675 9.1632 42.0953 9.04718 41.9054 8.96819C41.7156 8.88921 41.5119 8.84886 41.3063 8.8495C40.9006 8.84855 40.5108 9.00712 40.2209 9.291C37.8992 8.40913 35.3854 7.92488 32.7612 7.92488C21.0679 7.92488 11.5547 17.5078 11.5547 29.2868C11.5547 33.6509 12.8526 37.8479 15.3082 41.4243C17.5857 44.7411 20.7046 47.3171 24.3564 48.9048V52.3853C23.5206 52.6931 22.9217 53.4951 22.9217 54.4365V56.4704C22.9217 57.6765 23.9031 58.6579 25.1092 58.6579H26.4764V61.9504C26.4764 63.0806 27.3941 64 28.5219 64H37.0006C38.1284 64 39.0461 63.0806 39.0461 61.9504V58.6579H40.4133C41.6194 58.6579 42.6008 57.6765 42.6008 56.4704V54.4365C42.6008 53.4951 42.0018 52.693 41.1659 52.3853V48.9049C45.9149 46.8411 49.7284 43.1311 51.9474 38.398C52.0529 38.1729 52.0647 37.915 51.9802 37.6812C51.8956 37.4474 51.7217 37.2567 51.4966 37.1511C51.3851 37.0989 51.2644 37.0691 51.1414 37.0634C51.0185 37.0578 50.8956 37.0764 50.7798 37.1183C50.664 37.1602 50.5576 37.2245 50.4667 37.3074C50.3758 37.3904 50.3021 37.4905 50.2498 37.602C48.3434 41.6681 45.1481 44.9061 41.1659 46.841V41.7564H41.3764C42.2381 41.7564 42.9389 41.0555 42.9389 40.1939V37.7509C42.9389 36.8892 42.2381 36.1884 41.3764 36.1884H38.9921C38.1304 36.1884 37.4296 36.8892 37.4296 37.7509V40.1939C37.4296 41.0555 38.1304 41.7564 38.9921 41.7564H39.2911V52.2487H37.9258V45.0565C37.9258 44.4609 37.6328 43.75 37.2136 43.3275L30.1418 36.2015L30.4428 35.8981C31.0468 35.2895 31.0468 34.299 30.4428 33.6903L28.7533 31.9879C28.4589 31.6911 28.0662 31.5276 27.6476 31.5276C27.2289 31.5276 26.8363 31.6911 26.5419 31.9878L24.8308 33.712C24.2268 34.3206 24.2268 35.3111 24.8308 35.9199L26.5203 37.6222C26.8147 37.919 27.2074 38.0825 27.6261 38.0825C28.0447 38.0825 28.4373 37.919 28.7317 37.6224L28.8209 37.5324L35.8826 44.6481C35.9517 44.7201 36.0492 44.957 36.0509 45.0565V52.2487H34.1127V44.375C34.1127 44.1264 34.0139 43.8879 33.8381 43.7121C33.6623 43.5363 33.4238 43.4375 33.1752 43.4375C32.9265 43.4375 32.6881 43.5363 32.5123 43.7121C32.3365 43.8879 32.2377 44.1264 32.2377 44.375V52.2489H29.4016V45.5423H29.6563C30.5179 45.5423 31.2188 44.8414 31.2188 43.9798V41.5368C31.2188 40.6751 30.5179 39.9743 29.6563 39.9743H27.2719C26.4103 39.9743 25.7094 40.6751 25.7094 41.5368V43.9798C25.7094 44.8414 26.4103 45.5423 27.2719 45.5423H27.5266V52.2489H26.2316V48.28C26.2315 48.0926 26.1754 47.9095 26.0703 47.7543C25.9652 47.5991 25.816 47.479 25.6419 47.4094C22.0814 45.9869 19.0427 43.5501 16.8541 40.3628C14.6139 37.1003 13.4298 33.2703 13.4298 29.2868C13.4298 18.5416 22.1018 9.79988 32.7613 9.79988C34.8544 9.79988 36.8702 10.1388 38.7593 10.762L37.8001 11.7286C37.1961 12.3373 37.1961 13.3278 37.8001 13.9364L39.0779 15.2244L39.0783 15.227L39.0714 15.2433L38.7263 16.0855L38.7226 16.0948H36.9237C36.0621 16.0948 35.3612 16.7956 35.3612 17.6573V21.0833C35.3612 21.9449 36.0621 22.6458 36.9237 22.6458H38.7226L38.7263 22.655L39.0713 23.497L39.0782 23.5134C39.0782 23.5142 39.0779 23.515 39.0778 23.5159L37.7999 24.804C37.1961 25.4125 37.1959 26.403 37.7999 27.0119L40.2007 29.4315C40.3452 29.5778 40.5174 29.6938 40.7072 29.7727C40.897 29.8517 41.1007 29.892 41.3063 29.8914C41.7248 29.8914 42.1174 29.728 42.4121 29.4313L43.6846 28.1488L43.6938 28.1526L44.5234 28.4979L44.5357 28.5029L44.5364 28.504V30.329C44.5364 31.1906 45.2373 31.8915 46.0989 31.8915H49.4893C50.3509 31.8915 51.0518 31.1906 51.0518 30.329V28.504L51.0526 28.5029L51.0649 28.4977L51.8947 28.1524L51.9039 28.1485L52.0678 28.3136C52.0838 28.6359 52.0928 28.9601 52.0928 29.2864C52.0928 30.1533 52.0358 31.0249 51.9236 31.8773C51.8911 32.1238 51.9579 32.3731 52.1092 32.5703C52.2606 32.7676 52.4841 32.8966 52.7306 32.9291C53.2441 32.9974 53.7148 32.6355 53.7824 32.1221C53.8805 31.3707 53.9393 30.6147 53.9584 29.8571C54.0638 29.8792 54.1721 29.8913 54.2824 29.8913C54.7009 29.8913 55.0936 29.7279 55.3882 29.4311L57.7891 27.0116C58.3929 26.403 58.3929 25.4125 57.7889 24.8037L56.5109 23.5161L56.5106 23.5134L56.5173 23.4972L56.8624 22.655L56.8662 22.6458H58.6651C59.5267 22.6458 60.2276 21.9449 60.2276 21.0833V17.6575C60.2272 16.7959 59.5263 16.095 58.6647 16.095ZM27.6258 36.0747L26.3767 34.816L27.6474 33.5356L28.8966 34.7944L27.6258 36.0747ZM37.0004 62.125H28.5218C28.4294 62.125 28.3513 62.045 28.3513 61.9504V61.2195H37.1709V61.9504C37.1709 62.0451 37.0928 62.125 37.0004 62.125ZM37.1709 59.3445H28.3513V58.6579H37.1709V59.3445ZM39.3043 38.0635H41.0637V39.8815H39.3043V38.0635ZM27.5842 41.8493H29.3436V43.6673H27.5842V41.8493ZM24.7966 54.4364C24.7966 54.267 24.9397 54.1239 25.1091 54.1239H40.4132C40.5826 54.1239 40.7257 54.267 40.7257 54.4364V56.4702C40.7257 56.6396 40.5826 56.7827 40.4132 56.7827H25.1091C24.9397 56.7827 24.7966 56.6396 24.7966 56.4702V54.4364ZM58.3522 20.771H56.8221C56.0828 20.771 55.3721 21.2711 55.1188 21.9646L54.7911 22.7646C54.4842 23.4324 54.6327 24.2859 55.1509 24.8081L56.2427 25.9081L54.2822 27.884L53.2002 26.7934C52.8704 26.4614 52.3952 26.2709 51.8959 26.2709C51.6336 26.2709 51.3773 26.326 51.1523 26.4308L50.3649 26.7584C49.6744 27.0145 49.1767 27.7254 49.1767 28.4626V30.0168H46.4114V28.4626C46.4114 27.7254 45.9137 27.0145 45.2232 26.7584L44.4356 26.4308C44.2107 26.3261 43.9546 26.271 43.6923 26.271C43.1931 26.271 42.7177 26.4615 42.3878 26.7939L41.3063 27.884L39.3458 25.9081L40.4377 24.8076C40.9559 24.2855 41.1043 23.432 40.7973 22.7643L40.4696 21.9645C40.2162 21.2709 39.5056 20.7709 38.7663 20.7709H37.2361V17.97H38.7663C39.5056 17.97 40.2163 17.47 40.4696 16.7763L40.7973 15.9763C41.1042 15.3086 40.9557 14.455 40.4376 13.9329L39.3458 12.8325L41.3062 10.8571L42.3879 11.9473C42.7177 12.2793 43.1931 12.4699 43.6923 12.4699C43.9546 12.4699 44.2107 12.4148 44.4356 12.3101L45.2232 11.9825C45.9137 11.7264 46.4114 11.0155 46.4114 10.2783V8.72425H49.1768V10.2784C49.1768 11.0155 49.6746 11.7266 50.3652 11.9826L51.1524 12.3101C51.3774 12.4149 51.6337 12.47 51.8961 12.47C52.3954 12.47 52.8708 12.2795 53.2003 11.9473L54.2822 10.8573L56.2427 12.8326L55.1508 13.9329C54.6327 14.455 54.4842 15.3085 54.7911 15.9761L55.1188 16.7764C55.3722 17.4699 56.0828 17.97 56.8221 17.97H58.3522V20.771Z" fill="#007346"/>
<path d="M53.9377 17.3333C53.9001 17.2154 53.8396 17.1061 53.7596 17.0117C53.6796 16.9173 53.5817 16.8397 53.4716 16.7833C53.3615 16.7269 53.2412 16.6929 53.1179 16.6832C52.9946 16.6735 52.8705 16.6883 52.7529 16.7268C52.6353 16.7653 52.5265 16.8266 52.4327 16.9074C52.339 16.9881 52.2621 17.0866 52.2066 17.1972C52.1511 17.3077 52.118 17.4282 52.1093 17.5516C52.1005 17.675 52.1163 17.799 52.1557 17.9163C52.3089 18.3858 52.3866 18.8766 52.3859 19.3705C52.3859 21.9276 50.3244 24.008 47.7906 24.008C45.2567 24.008 43.1953 21.9276 43.1953 19.3705C43.1953 16.8134 45.2567 14.7329 47.7906 14.7329C48.3118 14.7329 48.8228 14.82 49.3094 14.9919C49.5439 15.0747 49.8016 15.0609 50.026 14.9537C50.2503 14.8465 50.4228 14.6545 50.5056 14.4201C50.5884 14.1856 50.5747 13.9279 50.4675 13.7035C50.3602 13.4792 50.1683 13.3067 49.9338 13.2239C49.2454 12.981 48.5206 12.8572 47.7906 12.8579C44.2228 12.8579 41.3203 15.7794 41.3203 19.3705C41.3203 22.9615 44.2228 25.883 47.7906 25.883C51.3583 25.883 54.2609 22.9615 54.2609 19.3705C54.2609 18.6743 54.1522 17.9887 53.9377 17.3333Z" fill="#007346"/>
<path d="M47.7944 16.0762C45.9878 16.0762 44.5182 17.554 44.5182 19.3705C44.5182 21.1869 45.9879 22.6647 47.7944 22.6647C49.601 22.6647 51.0707 21.187 51.0707 19.3705C51.0708 17.5541 49.601 16.0762 47.7944 16.0762ZM47.7944 20.7896C47.0217 20.7896 46.3932 20.153 46.3932 19.3704C46.3932 18.5877 47.0218 17.9511 47.7944 17.9511C48.5672 17.9511 49.1957 18.5877 49.1957 19.3704C49.1958 20.1531 48.5672 20.7896 47.7944 20.7896ZM34.3672 25.2465H31.9828C31.1212 25.2465 30.4203 25.9474 30.4203 26.809V29.252C30.4203 30.1136 31.1212 30.8145 31.9828 30.8145H32.2375V36.6249C32.2375 36.8735 32.3363 37.112 32.5121 37.2878C32.6879 37.4636 32.9264 37.5624 33.175 37.5624C33.4237 37.5624 33.6621 37.4636 33.8379 37.2878C34.0138 37.112 34.1125 36.8735 34.1125 36.6249V30.8145H34.3672C35.2288 30.8145 35.9297 30.1136 35.9297 29.252V26.809C35.9297 25.9474 35.2288 25.2465 34.3672 25.2465ZM34.0547 28.9395H32.2953V27.1215H34.0547V28.9395ZM33.1749 0C32.9263 0 32.6878 0.098772 32.512 0.274587C32.3362 0.450403 32.2374 0.68886 32.2374 0.9375V3.54975C32.2374 3.79839 32.3362 4.03685 32.512 4.21266C32.6878 4.38848 32.9263 4.48725 33.1749 4.48725C33.4235 4.48725 33.662 4.38848 33.8378 4.21266C34.0136 4.03685 34.1124 3.79839 34.1124 3.54975V0.9375C34.1124 0.68886 34.0136 0.450403 33.8378 0.274587C33.662 0.098772 33.4235 0 33.1749 0ZM26.5408 4.4645L25.7935 1.962C25.7583 1.84402 25.7002 1.73413 25.6225 1.63861C25.5448 1.54309 25.4491 1.46381 25.3407 1.4053C25.2324 1.34678 25.1136 1.31018 24.9911 1.29758C24.8686 1.28499 24.7449 1.29664 24.6269 1.33187C24.5089 1.36709 24.3991 1.4252 24.3036 1.50289C24.2081 1.58057 24.1288 1.67631 24.0703 1.78463C24.0118 1.89295 23.9752 2.01174 23.9626 2.1342C23.95 2.25667 23.9617 2.38042 23.9969 2.49837L24.744 5.00087C24.8153 5.23909 24.9781 5.43928 25.1969 5.55744C25.4157 5.6756 25.6724 5.70206 25.9107 5.631C26.1489 5.55987 26.3491 5.39701 26.4673 5.17825C26.5855 4.95949 26.6119 4.70275 26.5408 4.4645ZM19.5488 7.52212L18.1173 5.34037C17.9809 5.1325 17.7675 4.98732 17.524 4.93678C17.2806 4.88624 17.027 4.93447 16.8192 5.07087C16.6113 5.20728 16.4661 5.42068 16.4156 5.66412C16.365 5.90757 16.4133 6.16112 16.5497 6.369L17.9813 8.55062C18.0487 8.65364 18.1358 8.74234 18.2376 8.81166C18.3394 8.88097 18.4538 8.92954 18.5744 8.95458C18.6949 8.97963 18.8193 8.98065 18.9402 8.9576C19.0612 8.93455 19.1764 8.88788 19.2793 8.82025C19.4872 8.68384 19.6323 8.47045 19.6829 8.227C19.7334 7.98356 19.6852 7.73001 19.5488 7.52212ZM13.7257 12.4656L11.7303 10.788C11.6361 10.7087 11.5272 10.6488 11.4098 10.6117C11.2924 10.5745 11.1689 10.5609 11.0462 10.5715C10.9235 10.5821 10.8042 10.6167 10.6949 10.6734C10.5857 10.7302 10.4886 10.8079 10.4094 10.9021C10.3302 10.9964 10.2703 11.1053 10.2331 11.2226C10.196 11.34 10.1823 11.4636 10.1929 11.5862C10.2035 11.7089 10.2382 11.8283 10.295 11.9375C10.3517 12.0468 10.4294 12.1438 10.5237 12.223L12.5189 13.9006C12.6875 14.0429 12.9011 14.1209 13.1218 14.1206C13.3141 14.1207 13.5019 14.0617 13.6595 13.9514C13.8171 13.8412 13.937 13.6852 14.003 13.5045C14.0689 13.3238 14.0776 13.1272 14.028 12.9413C13.9784 12.7555 13.8729 12.5894 13.7257 12.4656ZM9.56041 18.8786L7.16941 17.8466C7.05612 17.7962 6.93396 17.7688 6.80999 17.7659C6.68602 17.763 6.56272 17.7848 6.44721 17.8299C6.3317 17.875 6.22629 17.9425 6.13708 18.0287C6.04787 18.1148 5.97664 18.2178 5.92749 18.3316C5.87835 18.4455 5.85229 18.5679 5.8508 18.6919C5.84932 18.8159 5.87245 18.939 5.91885 19.054C5.96525 19.1689 6.03401 19.2736 6.12113 19.3618C6.20825 19.4501 6.31202 19.5201 6.42641 19.568L8.81741 20.6C8.93452 20.6507 9.06078 20.6769 9.18841 20.677C9.40414 20.677 9.61328 20.6027 9.78058 20.4665C9.94787 20.3303 10.0631 20.1406 10.1068 19.9293C10.1505 19.7181 10.12 19.4982 10.0205 19.3068C9.92093 19.1154 9.75845 18.9642 9.56041 18.8786ZM7.40429 26.2214L4.81879 25.922C4.30429 25.8621 3.83929 26.2312 3.77966 26.7455C3.7655 26.8678 3.77556 26.9917 3.80929 27.1101C3.84301 27.2285 3.89972 27.3391 3.97619 27.4356C4.05266 27.5321 4.14739 27.6126 4.25496 27.6725C4.36254 27.7324 4.48086 27.7705 4.60316 27.7846L7.18866 28.084C7.43279 28.1069 7.6762 28.0333 7.86672 27.879C8.05724 27.7246 8.17973 27.5018 8.20792 27.2582C8.23612 27.0146 8.16779 26.7697 8.01757 26.5759C7.86735 26.3821 7.6472 26.2548 7.40429 26.2214ZM8.52691 34.6346C8.50524 34.5134 8.45991 34.3977 8.39351 34.294C8.3271 34.1903 8.24092 34.1007 8.13989 34.0303C8.03886 33.9599 7.92495 33.9102 7.80468 33.8838C7.6844 33.8575 7.56011 33.8551 7.43891 33.8767L4.87654 34.3351C4.6318 34.3789 4.41447 34.5181 4.27237 34.7221C4.13026 34.9261 4.07502 35.1783 4.11879 35.423C4.1626 35.6678 4.30184 35.8851 4.50586 36.0272C4.70989 36.1693 4.96201 36.2246 5.20679 36.1809L7.76916 35.7225C8.0139 35.6787 8.23122 35.5395 8.37333 35.3355C8.51543 35.1315 8.57068 34.8794 8.52691 34.6346ZM10.922 41.6122C10.8096 41.3905 10.6137 41.2225 10.3774 41.1452C10.1412 41.0678 9.88384 41.0875 9.66204 41.1997L7.33866 42.3771C7.11833 42.4903 6.95176 42.6862 6.87535 42.9218C6.79894 43.1575 6.81891 43.4138 6.93088 43.6347C7.04285 43.8557 7.23773 44.0234 7.47294 44.1011C7.70814 44.1789 7.96456 44.1603 8.18616 44.0496L10.5095 42.8722C10.7313 42.7599 10.8994 42.564 10.9767 42.3277C11.0541 42.0914 11.0344 41.834 10.922 41.6122ZM15.2118 47.6064C15.0404 47.4263 14.8045 47.3216 14.5559 47.3154C14.3074 47.3092 14.0665 47.402 13.8864 47.5734L11.9975 49.3707C11.9083 49.4556 11.8367 49.5572 11.7868 49.6698C11.7369 49.7823 11.7096 49.9036 11.7066 50.0267C11.7035 50.1498 11.7247 50.2723 11.769 50.3871C11.8133 50.502 11.8798 50.6071 11.9647 50.6962C12.0521 50.7884 12.1575 50.8618 12.2743 50.9119C12.3911 50.962 12.5168 50.9877 12.6439 50.9875C12.8845 50.9878 13.1159 50.8953 13.29 50.7292L15.1789 48.9319C15.2681 48.847 15.3397 48.7454 15.3896 48.6328C15.4396 48.5203 15.4668 48.399 15.4699 48.2759C15.4729 48.1528 15.4517 48.0304 15.4074 47.9155C15.3632 47.8006 15.2967 47.6956 15.2118 47.6064ZM25.7549 23.1315H23.3705C22.5089 23.1315 21.808 23.8324 21.808 24.694V27.137C21.808 27.9986 22.5089 28.6995 23.3705 28.6995H25.7549C26.6165 28.6995 27.3174 27.9986 27.3174 27.137V24.694C27.3174 23.8324 26.6165 23.1315 25.7549 23.1315ZM25.4424 26.8245H23.683V25.0065H25.4424V26.8245ZM30.0317 15.9464H27.6473C26.7857 15.9464 26.0848 16.6472 26.0848 17.5089V19.9519C26.0848 20.8135 26.7857 21.5144 27.6473 21.5144H30.0317C30.8933 21.5144 31.5942 20.8135 31.5942 19.9519V17.5089C31.5942 16.6472 30.8933 15.9464 30.0317 15.9464ZM29.7192 19.6394H27.9598V17.8214H29.7192V19.6394Z" fill="#007346"/>
</svg>
