<svg width="104" height="104" viewBox="0 0 104 104" fill="none" xmlns="http://www.w3.org/2000/svg">
<g clip-path="url(#clip0_2206_14399)">
<path d="M97.7672 34.3834C97.7303 34.173 97.6523 33.972 97.5377 33.7918C97.423 33.6116 97.274 33.4558 97.099 33.3332C96.9241 33.2107 96.7268 33.1238 96.5182 33.0776C96.3097 33.0314 96.0941 33.0267 95.8838 33.0639L87.8856 34.4728C87.675 34.5096 87.4739 34.5877 87.2935 34.7024C87.1132 34.8172 86.9573 34.9664 86.8347 35.1415C86.7122 35.3166 86.6254 35.5142 86.5793 35.7229C86.5331 35.9316 86.5287 36.1473 86.5661 36.3577L86.9138 38.3256L82.3638 39.1203L79.6257 38.701V14.625C79.6257 12.9011 78.9409 11.2478 77.7219 10.0288C76.5029 8.80982 74.8496 8.125 73.1257 8.125H61.7507V4.875C61.7507 3.58207 61.2371 2.34209 60.3228 1.42785C59.4086 0.513615 58.1686 0 56.8757 0L47.1257 0C45.8328 0 44.5928 0.513615 43.6786 1.42785C42.7643 2.34209 42.2507 3.58207 42.2507 4.875V8.125H30.8757C29.1518 8.125 27.4985 8.80982 26.2795 10.0288C25.0605 11.2478 24.3757 12.9011 24.3757 14.625V38.7059L21.6262 39.1267L17.0892 38.3273L17.4353 36.3577C17.4727 36.1473 17.4683 35.9316 17.4222 35.7229C17.376 35.5142 17.2892 35.3166 17.1667 35.1415C17.0441 34.9664 16.8882 34.8172 16.7079 34.7024C16.5275 34.5877 16.3264 34.5096 16.1158 34.4728L8.1257 33.0639C7.91526 33.0265 7.69951 33.0309 7.49081 33.077C7.28211 33.1232 7.08455 33.21 6.90945 33.3325C6.73435 33.4551 6.58515 33.611 6.47039 33.7913C6.35564 33.9717 6.27759 34.1728 6.2407 34.3834L0.025077 69.5857C-0.0123273 69.7962 -0.00784981 70.0119 0.0382531 70.2206C0.084356 70.4294 0.171179 70.6269 0.293748 70.802C0.416318 70.9771 0.572226 71.1263 0.752544 71.2411C0.932862 71.3558 1.13405 71.4339 1.34458 71.4707L9.34445 72.8796C9.55477 72.9168 9.77035 72.9121 9.97887 72.8659C10.1874 72.8197 10.3848 72.7328 10.5597 72.6103C10.7346 72.4877 10.8836 72.3319 10.9983 72.1517C11.1129 71.9715 11.1909 71.7705 11.2278 71.5601L11.3757 70.6875L12.718 70.9248C13.9551 73.6497 15.7549 76.082 17.9992 78.0617C17.9132 79.529 18.3309 80.9816 19.1832 82.1791C20.0355 83.3765 21.2712 84.247 22.6857 84.6462C21.9255 85.9089 21.6197 87.3934 21.819 88.8537C22.0183 90.314 22.7107 91.6623 23.7815 92.675C24.8523 93.6878 26.237 94.3041 27.7061 94.4218C29.1753 94.5395 30.6405 94.1515 31.8588 93.3221C32.0204 94.4012 32.454 95.4213 33.1187 96.2866C33.7834 97.1518 34.6574 97.8336 35.6584 98.2677C36.6594 98.7019 37.7544 98.8741 38.8403 98.7683C39.9262 98.6624 40.9673 98.2818 41.8656 97.6625C42.0176 98.6577 42.4013 99.6033 42.9857 100.423C43.5701 101.243 44.3389 101.914 45.2301 102.382C46.1214 102.851 47.1101 103.103 48.1168 103.119C49.1234 103.136 50.1198 102.915 51.0257 102.476V102.486L51.6757 102.918C52.3876 103.389 53.1853 103.715 54.0233 103.878C54.8614 104.041 55.7233 104.038 56.5599 103.867C57.3965 103.697 58.1914 103.364 58.8991 102.886C59.6068 102.409 60.2136 101.797 60.6847 101.085C61.3961 100.002 61.7601 98.7272 61.728 97.4317C62.2551 97.5753 62.7985 97.6507 63.3448 97.656C64.2035 97.6586 65.0542 97.4908 65.8475 97.1622C66.6408 96.8336 67.3611 96.3508 67.9664 95.7418C68.5718 95.1328 69.0503 94.4097 69.3741 93.6145C69.6979 92.8192 69.8607 91.9675 69.853 91.1089C70.3702 91.2449 70.9025 91.3159 71.4373 91.3201C72.2949 91.3201 73.144 91.1505 73.9357 90.8209C74.7274 90.4913 75.4461 90.0083 76.0503 89.3997C76.6545 88.7911 77.1323 88.069 77.4561 87.2749C77.78 86.4809 77.9435 85.6305 77.9373 84.773C78.9279 85.0312 79.9658 85.0496 80.965 84.8268C81.9642 84.6041 82.8959 84.1465 83.683 83.492C84.4702 82.8374 85.0901 82.0048 85.4914 81.0631C85.8927 80.1213 86.0639 79.0975 85.9908 78.0764C88.2372 76.0934 90.0372 73.6564 91.2721 70.9264L92.6257 70.6956L92.7785 71.5601C92.8153 71.7707 92.8934 71.9718 93.0081 72.1522C93.1229 72.3325 93.2721 72.4884 93.4472 72.611C93.6223 72.7335 93.8199 72.8204 94.0286 72.8664C94.2373 72.9126 94.453 72.917 94.6635 72.8796L102.662 71.4707C102.872 71.4339 103.073 71.3558 103.254 71.2411C103.434 71.1263 103.59 70.9771 103.713 70.802C103.835 70.6269 103.922 70.4294 103.968 70.2206C104.014 70.0119 104.019 69.7962 103.981 69.5857L97.7672 34.3834ZM45.5007 4.875C45.5007 4.44402 45.6719 4.0307 45.9767 3.72595C46.2814 3.4212 46.6947 3.25 47.1257 3.25H56.8757C57.3067 3.25 57.72 3.4212 58.0247 3.72595C58.3295 4.0307 58.5007 4.44402 58.5007 4.875V8.125H45.5007V4.875ZM27.6257 14.625C27.6257 13.763 27.9681 12.9364 28.5776 12.3269C29.1871 11.7174 30.0137 11.375 30.8757 11.375H73.1257C73.9877 11.375 74.8143 11.7174 75.4238 12.3269C76.0333 12.9364 76.3757 13.763 76.3757 14.625V19.5C76.3757 20.7929 75.8621 22.0329 74.9478 22.9471C74.0336 23.8614 72.7936 24.375 71.5007 24.375V22.75C71.5007 22.319 71.3295 21.9057 71.0247 21.601C70.72 21.2962 70.3067 21.125 69.8757 21.125H63.3757C62.9447 21.125 62.5314 21.2962 62.2267 21.601C61.9219 21.9057 61.7507 22.319 61.7507 22.75V24.375H42.2507V22.75C42.2507 22.319 42.0795 21.9057 41.7747 21.601C41.47 21.2962 41.0567 21.125 40.6257 21.125H34.1257C33.6947 21.125 33.2814 21.2962 32.9767 21.601C32.6719 21.9057 32.5007 22.319 32.5007 22.75V24.375C31.2078 24.375 29.9678 23.8614 29.0536 22.9471C28.1393 22.0329 27.6257 20.7929 27.6257 19.5V14.625ZM68.2507 24.375V27.625H65.0007V24.375H68.2507ZM39.0007 24.375V27.625H35.7507V24.375H39.0007ZM27.6257 25.9578C29.0238 27.0332 30.7368 27.619 32.5007 27.625V29.25C32.5007 29.681 32.6719 30.0943 32.9767 30.399C33.2814 30.7038 33.6947 30.875 34.1257 30.875H40.6257C41.0567 30.875 41.47 30.7038 41.7747 30.399C42.0795 30.0943 42.2507 29.681 42.2507 29.25V27.625H61.7507V29.25C61.7507 29.681 61.9219 30.0943 62.2267 30.399C62.5314 30.7038 62.9447 30.875 63.3757 30.875H69.8757C70.3067 30.875 70.72 30.7038 71.0247 30.399C71.3295 30.0943 71.5007 29.681 71.5007 29.25V27.625C73.2646 27.619 74.9776 27.0332 76.3757 25.9578V38.2038L64.0257 36.3155C61.3402 35.911 58.5951 36.2592 56.0957 37.3214L52.0007 39.0666L47.9171 37.3262C45.4137 36.2594 42.6624 35.9122 39.9725 36.3236L27.6257 38.2103V25.9578ZM8.30933 69.3989L3.50908 68.5506L9.15108 36.5381L13.953 37.3848L8.30933 69.3989ZM21.987 80.4863C21.4331 79.8261 21.1641 78.9731 21.2391 78.1147C21.3141 77.2563 21.7269 76.4628 22.3867 75.9086L28.6121 70.6875C28.939 70.4131 29.3168 70.2057 29.7238 70.0773C30.1309 69.9489 30.5593 69.9019 30.9845 69.939C31.4097 69.9761 31.8235 70.0966 32.2021 70.2936C32.5808 70.4907 32.9169 70.7603 33.1913 71.0872C33.4658 71.4142 33.6731 71.792 33.8015 72.199C33.93 72.6061 33.977 73.0344 33.9398 73.4597C33.9027 73.8849 33.7822 74.2986 33.5852 74.6773C33.3882 75.0559 33.1185 75.3921 32.7916 75.6665L26.5662 80.8909C26.239 81.1651 25.861 81.3721 25.4537 81.5002C25.0465 81.6282 24.618 81.6748 24.1928 81.6372C23.7675 81.5996 23.3538 81.4787 22.9754 81.2812C22.5969 81.0837 22.261 80.8136 21.987 80.4863ZM30.3427 90.4459C30.0157 90.7203 29.6378 90.9276 29.2306 91.056C28.8235 91.1844 28.395 91.2314 27.9697 91.1942C27.5444 91.157 27.1306 91.0364 26.7519 90.8392C26.3732 90.6421 26.0371 90.3723 25.7626 90.0453C25.4882 89.7183 25.2809 89.3404 25.1525 88.9332C25.0241 88.5261 24.9772 88.0976 25.0144 87.6723C25.0516 87.247 25.1722 86.8332 25.3693 86.4545C25.5664 86.0758 25.8362 85.7397 26.1632 85.4653L33.6382 79.1976C34.302 78.6781 35.1417 78.4367 35.98 78.5246C36.8184 78.6124 37.5898 79.0225 38.1315 79.6684C38.6732 80.3142 38.9427 81.1453 38.8833 81.9861C38.8238 82.827 38.44 83.6118 37.8128 84.175L30.3427 90.4459ZM40.3446 94.7814C40.0175 95.0557 39.6397 95.2629 39.2326 95.3912C38.8254 95.5195 38.397 95.5664 37.9718 95.5291C37.5466 95.4918 37.1329 95.3712 36.7543 95.174C36.3757 94.9768 36.0396 94.707 35.7653 94.38C35.491 94.053 35.2838 93.6751 35.1555 93.268C35.0272 92.8609 34.9804 92.4325 35.0176 92.0072C35.0549 91.582 35.1756 91.1683 35.3727 90.7897C35.5699 90.4111 35.8397 90.0751 36.1667 89.8008L41.1473 85.6229C41.8089 85.0798 42.6579 84.8197 43.5101 84.8989C44.3623 84.9781 45.1489 85.3902 45.699 86.0459C46.2492 86.7015 46.5185 87.5477 46.4485 88.4007C46.3785 89.2537 45.9749 90.0447 45.3252 90.6019L40.3446 94.7814ZM50.3448 99.125C49.6835 99.6713 48.833 99.9339 47.9788 99.8557C47.1245 99.7775 46.3359 99.3647 45.7847 98.7074C45.2336 98.0501 44.9647 97.2016 45.0366 96.3468C45.1085 95.4921 45.5154 94.7004 46.1686 94.1444L51.1476 89.9665C51.4745 89.692 51.8523 89.4846 52.2593 89.3562C52.6664 89.2277 53.0948 89.1807 53.52 89.2178C53.9452 89.255 54.359 89.3755 54.7376 89.5725C55.1163 89.7696 55.4524 90.0393 55.7268 90.3662C56.0012 90.6933 56.2085 91.0711 56.3368 91.4782C56.4651 91.8854 56.512 92.3138 56.4747 92.739C56.4374 93.1643 56.3168 93.578 56.1196 93.9566C55.9224 94.3352 55.6525 94.6712 55.3255 94.9455L50.3448 99.125ZM57.971 99.2972C57.5403 99.9538 56.8844 100.43 56.1269 100.637C55.3693 100.843 54.5624 100.766 53.8581 100.419L57.4152 97.435C57.7517 97.1537 58.0587 96.839 58.3317 96.4958C58.4855 96.9582 58.533 97.4495 58.4705 97.9329C58.408 98.4163 58.2373 98.8793 57.971 99.2875V99.2972ZM82.2468 80.275C82.0113 80.631 81.7079 80.9371 81.354 81.1758C81.0002 81.4145 80.6027 81.5812 80.1844 81.6663C79.7661 81.7514 79.3352 81.7533 78.9161 81.6718C78.4971 81.5904 78.0983 81.4271 77.7423 81.1915L64.1882 72.2264C64.0105 72.0976 63.8086 72.0062 63.5946 71.9576C63.3806 71.909 63.159 71.9042 62.9432 71.9435C62.7273 71.9829 62.5216 72.0656 62.3386 72.1866C62.1555 72.3076 61.9989 72.4644 61.8781 72.6476C61.7573 72.8307 61.6748 73.0365 61.6357 73.2524C61.5965 73.4683 61.6016 73.6899 61.6504 73.9039C61.6992 74.1178 61.7909 74.3196 61.9198 74.4971C62.0488 74.6747 62.2124 74.8243 62.4007 74.9369L73.246 82.1145C73.9644 82.591 74.4641 83.3333 74.6353 84.1782C74.8064 85.0231 74.6348 85.9014 74.1584 86.6198C73.6819 87.3382 72.9396 87.838 72.0947 88.0091C71.2498 88.1802 70.3715 88.0087 69.6531 87.5322L58.8094 80.3563C58.6287 80.2352 58.4253 80.1523 58.2114 80.1125C57.8424 80.043 57.4607 80.1034 57.1312 80.2834C56.8017 80.4635 56.5447 80.7522 56.404 81.1003C56.2632 81.4484 56.2474 81.8346 56.3591 82.1931C56.4709 82.5516 56.7034 82.8603 57.0171 83.0667L65.1421 88.4504C65.8561 88.9285 66.3518 89.6699 66.5206 90.5125C66.6894 91.3551 66.5176 92.2303 66.0428 92.9466C65.568 93.6628 64.8289 94.1619 63.987 94.3346C63.1452 94.5073 62.2693 94.3396 61.5508 93.8681L59.6983 92.6429C59.7431 91.4506 59.456 90.2693 58.8689 89.2306C58.2818 88.1919 57.4178 87.3366 56.3732 86.76C55.3286 86.1835 54.1444 85.9083 52.9526 85.9652C51.7609 86.0221 50.6083 86.4087 49.6233 87.0821C49.4973 86.2373 49.2035 85.4261 48.7592 84.6966C48.3149 83.967 47.7292 83.3337 47.0364 82.834C46.3436 82.3343 45.5578 81.9782 44.7253 81.7868C43.8928 81.5955 43.0304 81.5726 42.1889 81.7196C42.2174 80.1815 41.6883 78.6851 40.6993 77.5067C39.7103 76.3284 38.3283 75.5477 36.8086 75.309C37.2841 73.9673 37.3047 72.5063 36.8671 71.1518C36.4295 69.7972 35.5581 68.6244 34.3875 67.8145C33.2169 67.0047 31.8121 66.6027 30.3903 66.6709C28.9684 66.739 27.6085 67.2734 26.5207 68.1915L20.2953 73.4159C19.8601 73.7906 19.4775 74.2225 19.1578 74.6996C17.5315 73.0229 16.2496 71.0438 15.3846 68.874C15.2821 68.616 15.1153 68.3885 14.8999 68.2132C14.6846 68.038 14.4279 67.9209 14.1545 67.873L11.9428 67.483L16.5205 41.5236L21.3207 42.3703C21.4955 42.4003 21.6741 42.4003 21.8488 42.3703L40.4632 39.5363C42.554 39.2155 44.6928 39.4857 46.6382 40.3162L47.8472 40.8314L41.3586 43.5939C39.9008 44.2173 38.6578 45.2546 37.7836 46.5774L31.6687 55.796C30.9612 56.8787 30.7101 58.1971 30.97 59.4641C31.23 60.7311 31.9798 61.8441 33.0564 62.5609C34.8544 63.7455 37.0487 64.1691 39.1583 63.7387C41.268 63.3083 43.121 62.059 44.3112 60.2647L47.1013 56.0625L53.0342 54.8486C53.6737 56.8201 54.7599 58.6172 56.2081 60.0999C57.6564 61.5825 59.4275 62.7106 61.3834 63.3961C62.0767 63.6433 62.7878 63.8373 63.5106 63.9762L81.3287 75.7738C82.047 76.2492 82.5472 76.9903 82.7194 77.8344C82.8915 78.6784 82.7215 79.5562 82.2468 80.275ZM89.8437 67.8763C89.5691 67.9241 89.3114 68.0417 89.0954 68.2179C88.8794 68.394 88.7124 68.6228 88.6103 68.8821C87.7448 71.0619 86.4582 73.0498 84.8241 74.7321C84.3665 74.0737 83.7894 73.5071 83.1227 73.0616L69.3102 63.9243C71.105 63.5655 72.8149 62.8673 74.3477 61.867L76.9006 60.1932C77.2609 59.9562 77.5123 59.5858 77.5994 59.1634C77.6866 58.741 77.6024 58.3013 77.3653 57.941C77.1283 57.5807 76.7578 57.3293 76.3354 57.2422C75.9131 57.155 75.4734 57.2392 75.1131 57.4762L72.5683 59.15C71.0965 60.1167 69.4198 60.7273 67.6711 60.9335C65.9223 61.1397 64.1496 60.9357 62.4933 60.3379C60.9691 59.8068 59.5921 58.9229 58.4746 57.7582C57.3571 56.5936 56.5308 55.1812 56.0632 53.6364C55.9618 53.3026 55.8761 52.9642 55.8064 52.6224C55.7185 52.2018 55.4675 51.8332 55.1085 51.5972C54.7494 51.3612 54.3115 51.277 53.8906 51.363L45.7964 53.0205C45.3753 53.1066 45.0054 53.3561 44.7678 53.7144L41.617 58.474C40.9025 59.5498 39.7911 60.2989 38.5258 60.5574C37.2605 60.8159 35.9443 60.5629 34.8651 59.8536C34.505 59.6138 34.2539 59.2416 34.1663 58.8179C34.0787 58.3942 34.1616 57.953 34.3971 57.59L40.5087 48.373C41.0328 47.5815 41.7766 46.9603 42.6488 46.5855L57.373 40.313C59.3195 39.4867 61.4569 39.2161 63.548 39.5314L82.1542 42.3751C82.3281 42.4019 82.5051 42.4019 82.6791 42.3751L87.4891 41.5334L92.057 67.4928L89.8437 67.8763ZM95.6937 69.3956L90.0501 37.3831L94.852 36.5365L100.494 68.549L95.6937 69.3956Z" fill="#275023"/>
</g>
<defs>
<clipPath id="clip0_2206_14399">
<rect width="104" height="104" fill="white"/>
</clipPath>
</defs>
</svg>
