<svg width="104" height="104" viewBox="0 0 104 104" fill="none" xmlns="http://www.w3.org/2000/svg">
<path d="M79.625 79.625H95.875V82.875H79.625V79.625ZM86.125 86.125H89.375V89.375H86.125V86.125ZM92.625 86.125H95.875V89.375H92.625V86.125ZM79.625 86.125H82.875V89.375H79.625V86.125ZM8.125 14.625H24.375V17.875H8.125V14.625ZM21.125 21.125H24.375V24.375H21.125V21.125ZM8.125 21.125H11.375V24.375H8.125V21.125ZM14.625 21.125H17.875V24.375H14.625V21.125Z" fill="#275023"/>
<path d="M79.625 58.0596V47.125H97.5C100.188 47.125 102.375 44.9378 102.375 42.25V6.5C102.375 3.81225 100.188 1.625 97.5 1.625H55.25C52.5622 1.625 50.375 3.81225 50.375 6.5V17.875H30.875V8.125H1.625V30.875H30.875V21.125H50.375V24.375H45.9404L44.5169 28.8177C43.2624 29.2207 42.0485 29.7213 40.8948 30.3111L36.7526 28.1791L28.1824 36.7494L30.3144 40.8915C29.7261 42.0436 29.2256 43.2559 28.821 44.5136L24.375 45.9404V56.875H6.5C3.81225 56.875 1.625 59.0622 1.625 61.75V97.5C1.625 100.188 3.81225 102.375 6.5 102.375H48.75C51.4378 102.375 53.625 100.188 53.625 97.5V86.125H73.125V95.875H102.375V73.125H73.125V82.875H53.625V79.625H58.0596L59.4831 75.1823C60.7393 74.7776 61.9531 74.2787 63.1052 73.6889L67.2474 75.8209L75.8176 67.2506L73.6856 63.1085C74.2739 61.9564 74.7744 60.7441 75.179 59.4864L79.625 58.0596ZM27.625 27.625H4.875V11.375H27.625V27.625ZM76.375 76.375H99.125V92.625H76.375V76.375ZM66.625 52C66.625 59.514 60.9261 65.7183 53.625 66.5291V61.75C53.625 59.0622 51.4378 56.875 48.75 56.875H38.2232C37.6641 55.3104 37.3772 53.6615 37.375 52C37.375 44.486 43.0739 38.2817 50.375 37.4709V42.25C50.375 44.9378 52.5622 47.125 55.25 47.125H65.7767C66.3293 48.685 66.625 50.3181 66.625 52ZM65.13 43.875C65.4002 42.0227 66.1228 40.2656 67.2338 38.7592C68.3449 37.2527 69.8102 36.0433 71.5 35.2381V35.75C71.5 38.4378 73.6872 40.625 76.375 40.625C79.0628 40.625 81.25 38.4378 81.25 35.75V35.2381C82.9398 36.0433 84.4051 37.2527 85.5162 38.7592C86.6272 40.2656 87.3498 42.0227 87.62 43.875H65.13ZM68.25 18.8581C68.2517 17.305 68.8695 15.8159 69.9677 14.7177C71.0659 13.6195 72.555 13.0017 74.1081 13H74.75V16.8708L70.9443 18.7736C69.9319 19.2806 69.1567 20.1012 68.7034 21.0844C68.4082 20.3791 68.2541 19.6227 68.25 18.8581ZM74.75 34.255C75.283 34.1786 75.8225 34.125 76.375 34.125C76.9275 34.125 77.467 34.1786 78 34.255V35.75C77.9813 36.1684 77.8019 36.5635 77.4992 36.8529C77.1965 37.1424 76.7938 37.3039 76.375 37.3039C75.9562 37.3039 75.5535 37.1424 75.2508 36.8529C74.9481 36.5635 74.7687 36.1684 74.75 35.75V34.255ZM84.0466 21.0828C83.5845 20.0799 82.794 19.2647 81.8057 18.772L78 16.8708V13H78.6419C80.195 13.0017 81.6841 13.6195 82.7823 14.7177C83.8805 15.8159 84.4983 17.305 84.5 18.8581C84.5 19.63 84.3375 20.3808 84.0466 21.0828ZM74.75 30.875C72.9576 30.875 71.5 29.4174 71.5 27.625V23.1335C71.5 22.5144 71.8445 21.957 72.3986 21.6807L76.375 19.6917L80.3514 21.6807C80.9055 21.957 81.25 22.5144 81.25 23.1335V27.625C81.25 29.4174 79.7924 30.875 78 30.875H74.75ZM53.625 6.5C53.625 5.60462 54.353 4.875 55.25 4.875H97.5C98.397 4.875 99.125 5.60462 99.125 6.5V42.25C99.125 43.1454 98.397 43.875 97.5 43.875H90.9041C90.3305 38.7173 87.0626 34.3736 82.5451 32.2595C83.1638 31.6566 83.6554 30.9359 83.9912 30.1399C84.3269 29.344 84.4999 28.4889 84.5 27.625V26.4924L86.2209 23.9119C87.2219 22.4104 87.75 20.6619 87.75 18.8598C87.7474 16.4448 86.787 14.1294 85.0795 12.4216C83.372 10.7138 81.0569 9.75301 78.6419 9.75H74.1097C71.6948 9.75258 69.3794 10.713 67.6716 12.4205C65.9638 14.128 65.003 16.4431 65 18.8581C65 20.6619 65.5281 22.4087 66.5291 23.9102L68.25 26.4924V27.625C68.25 29.4401 69.0007 31.0781 70.2049 32.2595C65.6874 34.3736 62.4195 38.7173 61.8459 43.875H55.25C54.353 43.875 53.625 43.1454 53.625 42.25V6.5ZM27.625 48.3096L31.4535 47.0828L31.6908 46.2426C32.136 44.6605 32.7643 43.1357 33.5627 41.6991L33.9901 40.9386L32.1539 37.3717L37.3734 32.1539L40.9386 33.9885L41.7008 33.5627C43.1145 32.7714 44.6436 32.1409 46.2459 31.6891L47.086 31.4519L48.3096 27.625H50.375V34.2079C41.2783 35.0317 34.125 42.692 34.125 52C34.125 53.6689 34.3704 55.2971 34.8172 56.875H27.625V48.3096ZM17.875 84.5V76.375C17.875 71.5536 21.3964 67.5496 26 66.7712V70.4958L22.1943 72.3986C21.3828 72.8012 20.7002 73.4229 20.224 74.1935C19.7478 74.9641 19.497 75.8527 19.5 76.7585V81.25C19.5 83.0651 20.2507 84.7031 21.4549 85.8845C20.5497 86.3083 19.6904 86.824 18.8906 87.4234C18.2369 86.5887 17.8796 85.5602 17.875 84.5ZM26 84.5C24.2076 84.5 22.75 83.0424 22.75 81.25V76.7585C22.75 76.1394 23.0945 75.582 23.6486 75.3057L27.625 73.3167L31.6014 75.3057C32.1555 75.582 32.5 76.1394 32.5 76.7585V81.25C32.5 83.0424 31.0424 84.5 29.25 84.5H26ZM27.625 87.75C28.8906 87.7524 30.1469 87.9671 31.3414 88.3854L30.1795 91H25.0705L23.9086 88.3854C25.1031 87.9671 26.3594 87.7524 27.625 87.75ZM28.7349 94.25L27.625 96.7476L26.5151 94.25H28.7349ZM34.2323 89.8836C35.7053 90.9331 36.9065 92.3193 37.7358 93.9267C38.565 95.5341 38.9985 97.3163 39 99.125H30.1259L34.2323 89.8836ZM37.375 84.5C37.375 85.5709 37.0061 86.5849 36.3594 87.4218C35.5592 86.8229 34.7 86.3073 33.7951 85.8829C34.4138 85.2803 34.9055 84.5599 35.2412 83.7642C35.577 82.9685 35.75 82.1136 35.75 81.25V76.7585C35.7528 75.8527 35.5019 74.9642 35.0257 74.1937C34.5495 73.4231 33.8671 72.8013 33.0557 72.3986L29.25 70.4958V66.7712C33.8536 67.548 37.375 71.552 37.375 76.375V84.5ZM21.0177 89.8836L25.1241 99.125H16.25C16.2515 97.3163 16.685 95.5341 17.5142 93.9267C18.3435 92.3193 19.5447 90.9331 21.0177 89.8836ZM50.375 97.5C50.375 98.3954 49.647 99.125 48.75 99.125H42.25C42.2512 95.6513 41.009 92.2918 38.7481 89.6545C39.9612 88.211 40.6259 86.3856 40.625 84.5V76.375C40.625 69.2071 34.7929 63.375 27.625 63.375C20.4571 63.375 14.625 69.2071 14.625 76.375V84.5C14.625 86.4078 15.2961 88.2115 16.5019 89.6545C14.241 92.2918 12.9988 95.6513 13 99.125H6.5C5.603 99.125 4.875 98.3954 4.875 97.5V61.75C4.875 60.8546 5.603 60.125 6.5 60.125H48.75C49.647 60.125 50.375 60.8546 50.375 61.75V97.5ZM72.5465 56.9156L72.3092 57.7557C71.864 59.3379 71.2357 60.8627 70.4372 62.2993L70.0099 63.0597L71.8461 66.6266L66.6266 71.8445L63.0597 70.0099L62.2993 70.4356C60.8632 71.2368 59.3376 71.8657 57.7541 72.3092L56.914 72.5465L55.6904 76.375H53.625V69.7921C62.7217 68.9683 69.875 61.308 69.875 52C69.875 50.3311 69.6296 48.7029 69.1828 47.125H76.375V55.6904L72.5465 56.9156Z" fill="#275023"/>
<path d="M8.125 63.375H11.375V66.625H8.125V63.375ZM43.875 63.375H47.125V66.625H43.875V63.375ZM56.875 8.125H60.125V11.375H56.875V8.125ZM92.625 8.125H95.875V11.375H92.625V8.125Z" fill="#275023"/>
</svg>
