<svg width="104" height="104" viewBox="0 0 104 104" fill="none" xmlns="http://www.w3.org/2000/svg">
<path d="M50.0002 95.4757C50.0002 95.9066 49.829 96.32 49.5242 96.6247C49.2195 96.9295 48.8062 97.1007 48.3752 97.1007H41.0109C40.5799 97.1007 40.1666 96.9295 39.8618 96.6247C39.5571 96.32 39.3859 95.9066 39.3859 95.4757C39.3859 95.0447 39.5571 94.6314 39.8618 94.3266C40.1666 94.0219 40.5799 93.8507 41.0109 93.8507H48.3752C48.8062 93.8507 49.2195 94.0219 49.5242 94.3266C49.829 94.6314 50.0002 95.0447 50.0002 95.4757ZM93.2794 57.2136C93.4759 57.9614 93.3701 58.7565 92.9848 59.4268C92.5994 60.0972 91.9656 60.5888 91.2206 60.7953L89.497 61.2538C88.7491 61.4537 87.9524 61.3488 87.2818 60.962C86.6112 60.5752 86.1214 59.9381 85.92 59.1906L85.6813 58.2997C82.1797 57.1901 78.4502 57.0068 74.8566 57.7677L77.186 66.4672C77.2413 66.6733 77.2554 66.8884 77.2276 67.1C77.1998 67.3116 77.1305 67.5157 77.0238 67.7006C76.9171 67.8854 76.775 68.0475 76.6056 68.1774C76.4362 68.3073 76.2429 68.4026 76.0368 68.4578L72.9978 69.2715V94.1513C72.9953 96.3317 72.1281 98.422 70.5863 99.9637C69.0445 101.505 66.954 102.373 64.7737 102.375H24.6122C22.4319 102.373 20.3415 101.505 18.7998 99.9637C17.258 98.422 16.3908 96.3316 16.3883 94.1513V49.6088H9.46863C7.85927 49.607 6.31636 48.9669 5.17837 47.8289C4.04039 46.6909 3.40027 45.148 3.39844 43.5386V28.7917C3.40027 27.1824 4.04039 25.6395 5.17837 24.5015C6.31636 23.3635 7.85927 22.7234 9.46863 22.7216H16.3883V15.9061C16.3908 13.7258 17.258 11.6354 18.7998 10.0937C20.3415 8.55201 22.4319 7.68481 24.6122 7.68239H57.8695C57.8746 6.07529 58.5161 4.53566 59.6536 3.40043C60.7912 2.2652 62.3321 1.62682 63.9392 1.625H82.3877C83.997 1.62677 85.54 2.26687 86.678 3.40486C87.8161 4.54285 88.4562 6.0858 88.458 7.69519V22.4421C88.457 24.0522 87.8174 25.5962 86.6794 26.7353C85.5414 27.8744 83.998 28.5156 82.3879 28.5181H72.9978V40.8795C75.5356 39.705 77.8133 38.0354 79.6973 35.9688L79.4588 35.0793C79.2601 34.3301 79.3666 33.5327 79.755 32.8619C80.1434 32.1911 80.782 31.7018 81.5307 31.5012L83.2369 31.0418C83.9866 30.8424 84.7848 30.9486 85.4563 31.337C86.1277 31.7254 86.6177 32.3644 86.8186 33.1136L88.6754 40.0412C89.8611 40.0855 91.0015 40.5085 91.9294 41.2481C92.8573 41.9877 93.5239 43.005 93.8315 44.151C94.1381 45.2969 94.0695 46.5108 93.6357 47.6148C93.202 48.7187 92.426 49.6547 91.4214 50.2854L93.2794 57.2136ZM89.6305 43.6L90.4684 46.7257C90.6187 46.4661 90.716 46.1793 90.7547 45.8818C90.7934 45.5844 90.7727 45.2822 90.6938 44.9928C90.5377 44.4061 90.1553 43.9052 89.6305 43.6ZM70.8636 55.4198L68.306 45.8687L60.83 47.8721C60.6453 47.9237 60.4883 48.046 60.393 48.2125C60.2978 48.379 60.2719 48.5763 60.321 48.7618L62.5031 56.9085C62.5533 57.0944 62.675 57.2529 62.8416 57.3494C63.0082 57.4458 63.2062 57.4725 63.3924 57.4234L70.8636 55.4198ZM61.119 22.4412C61.1191 23.1897 61.4161 23.9076 61.9448 24.4375C62.4735 24.9673 63.1908 25.2657 63.9392 25.2673H65.8283C66.2593 25.2673 66.6726 25.4385 66.9773 25.7433C67.2821 26.048 67.4533 26.4614 67.4533 26.8923V27.9595L69.5262 25.7739C69.678 25.6139 69.8609 25.4864 70.0636 25.3993C70.2664 25.3122 70.4847 25.2673 70.7053 25.2673H82.3881C83.1365 25.2657 83.8537 24.9672 84.3824 24.4374C84.9111 23.9076 85.208 23.1897 85.208 22.4412V7.69438C85.207 6.94678 84.9094 6.23014 84.3807 5.7016C83.852 5.17307 83.1352 4.87581 82.3877 4.875H63.9392C63.1915 4.87586 62.4747 5.17326 61.946 5.70196C61.4173 6.23067 61.1199 6.94749 61.119 7.69519V22.4412ZM38.7869 10.9324C39.2823 11.4867 39.7804 11.8397 40.3603 11.8397H49.4349C49.9244 11.8397 50.2413 11.6082 50.7278 10.9324H38.7869ZM9.46863 46.3588H21.1516C21.3724 46.3589 21.5908 46.4039 21.7936 46.4913C21.9964 46.5786 22.1793 46.7063 22.3311 46.8666L24.403 49.0541V47.9842C24.403 47.5532 24.5742 47.1399 24.8789 46.8352C25.1837 46.5304 25.597 46.3592 26.028 46.3592H27.917C28.6647 46.3584 29.3816 46.061 29.9103 45.5323C30.439 45.0036 30.7364 44.2867 30.7372 43.539V28.7922C30.7364 28.0445 30.439 27.3276 29.9103 26.7989C29.3816 26.2702 28.6647 25.9728 27.917 25.972H9.46863C8.72093 25.9728 8.0041 26.2702 7.4754 26.7989C6.9467 27.3276 6.6493 28.0445 6.64844 28.7922V43.539C6.6494 44.2867 6.94686 45.0034 7.47554 45.532C8.00423 46.0606 8.721 46.358 9.46863 46.3588ZM19.6383 49.6088V88.5706H26.5744V75.2253C26.5744 69.8399 31.2373 65.4585 36.9687 65.4585H38.3703C37.7959 64.8357 37.2836 64.1584 36.8407 63.4361C35.2324 60.8258 34.272 57.3018 34.272 54.0071C34.2848 50.9746 35.4984 48.0707 37.6472 45.9309C39.796 43.7911 42.705 42.5897 45.7375 42.5897C48.77 42.5897 51.679 43.7911 53.8278 45.9309C55.9766 48.0707 57.1902 50.9746 57.203 54.0071C57.203 58.2207 55.7976 62.5897 53.1102 65.4585H54.5069C60.2383 65.4585 64.9012 69.8399 64.9012 75.2253V88.5706H69.7472V68.1098L65.9867 60.0923L64.2327 60.5627C63.8958 60.6531 63.5485 60.699 63.1997 60.6992C62.3246 60.6968 61.4747 60.4063 60.7812 59.8727C60.0877 59.3391 59.5892 58.592 59.3626 57.7468L57.1809 49.6015C56.9114 48.5847 57.0547 47.5025 57.5794 46.5908C58.1042 45.6791 58.968 45.0117 59.9826 44.734L69.0342 42.3083C69.2749 42.2437 69.5116 42.1746 69.7472 42.1052V30.263L67.008 33.1524C66.7844 33.3883 66.4952 33.5516 66.1778 33.6214C65.8604 33.6912 65.5294 33.6642 65.2275 33.5439C64.9256 33.4236 64.6667 33.2156 64.4842 32.9466C64.3017 32.6777 64.2041 32.3602 64.2039 32.0353V28.5173H63.9398C62.3297 28.5147 60.7863 27.8736 59.6483 26.7345C58.5103 25.5954 57.8707 24.0514 57.8697 22.4412V10.9324H55.2561C55.0702 10.9255 54.8857 10.9667 54.7205 11.0521C54.5553 11.1375 54.4149 11.2642 54.3131 11.4199C54.1807 11.6072 54.0491 11.8097 53.9116 12.024C53.123 13.2452 51.9313 15.0912 49.4349 15.0912H40.3603C37.6463 15.0912 36.0969 12.8726 35.171 11.5472L35.0792 11.4156C34.9758 11.2619 34.8349 11.137 34.6698 11.0527C34.5047 10.9684 34.3209 10.9275 34.1357 10.9338H24.6122C23.2939 10.9355 22.0302 11.4599 21.0979 12.392C20.1657 13.3241 19.6412 14.5878 19.6393 15.9061V22.7222H27.9181C29.5274 22.724 31.0703 23.3641 32.2083 24.5021C33.3463 25.6401 33.9864 27.183 33.9883 28.7924V43.5392C33.9864 45.1486 33.3463 46.6915 32.2083 47.8295C31.0703 48.9675 29.5274 49.6076 27.9181 49.6094H27.654V53.1314C27.6539 53.4565 27.5563 53.7741 27.3738 54.0431C27.1913 54.3121 26.9324 54.5202 26.6304 54.6405C26.3284 54.7608 25.9972 54.7878 25.6798 54.7179C25.3623 54.648 25.073 54.4846 24.8495 54.2486L20.4518 49.6088H19.6383ZM57.6986 80.2516V88.5706H61.6518V75.2253C61.6518 71.6318 58.4469 68.7085 54.5075 68.7085H36.9687C33.0293 68.7085 29.8244 71.6318 29.8244 75.2253V88.5706H33.7717V80.2516C33.7717 79.8207 33.9429 79.4073 34.2477 79.1026C34.5524 78.7978 34.9657 78.6266 35.3967 78.6266C35.8277 78.6266 36.241 78.7978 36.5458 79.1026C36.8505 79.4073 37.0217 79.8207 37.0217 80.2516V88.5706H54.4486V80.2516C54.4486 79.8207 54.6198 79.4073 54.9246 79.1026C55.2293 78.7978 55.6427 78.6266 56.0736 78.6266C56.5046 78.6266 56.9179 78.7978 57.2227 79.1026C57.5274 79.4073 57.6986 79.8207 57.6986 80.2516ZM45.7382 65.458C50.507 65.458 52.89 60.9991 53.6625 56.9471C50.368 56.539 47.2952 55.7261 43.4604 52.9332L37.7199 56.409C38.3782 60.5934 40.757 65.458 45.7382 65.458ZM42.72 49.5828C43.0025 49.4118 43.3304 49.3309 43.6601 49.3509C43.9897 49.371 44.3054 49.491 44.5652 49.6949C48.1808 52.5334 50.8182 53.3138 53.9461 53.7091C53.8719 51.6748 53.045 49.7405 51.6256 48.2813C50.2062 46.8221 48.2956 45.942 46.2641 45.8115C44.2326 45.6811 42.2251 46.3096 40.6308 47.5753C39.0364 48.841 37.9689 50.6537 37.6352 52.6618L42.72 49.5828ZM69.7478 94.1521V91.8206H19.6393V94.1513C19.6408 95.4698 20.1652 96.7339 21.0974 97.6663C22.0297 98.5987 23.2937 99.1233 24.6122 99.125H64.7737C66.0924 99.1236 67.3567 98.5992 68.2892 97.6667C69.2217 96.7343 69.7463 95.47 69.7478 94.1513V94.1521ZM73.6263 65.7388L71.7043 58.5601L69.1762 59.238L72.3815 66.0721L73.6263 65.7388ZM84.7104 54.6772L80.6698 39.5984C78.024 42.05 74.8701 43.888 71.4327 44.9812L74.0159 54.6264C77.5425 53.8704 81.191 53.8875 84.7104 54.6764V54.6772ZM90.0564 57.7432L83.7638 34.265L82.6834 34.556L88.9738 58.0304L90.0564 57.7432ZM100.54 42.3463C100.428 41.93 100.156 41.5752 99.7826 41.3599C99.4093 41.1445 98.9657 41.0863 98.5495 41.198L96.0389 41.8718C95.8318 41.9262 95.6375 42.021 95.4671 42.1507C95.2968 42.2805 95.1538 42.4426 95.0463 42.6278C94.9388 42.813 94.869 43.0176 94.8408 43.2298C94.8127 43.4421 94.8268 43.6578 94.8823 43.8646C94.9378 44.0714 95.0336 44.2652 95.1642 44.4349C95.2949 44.6045 95.4578 44.7467 95.6435 44.8532C95.8293 44.9597 96.0342 45.0284 96.2467 45.0555C96.4591 45.0825 96.6747 45.0673 96.8812 45.0107L99.3917 44.3369C99.5978 44.2816 99.7911 44.1863 99.9604 44.0563C100.13 43.9263 100.272 43.7642 100.378 43.5793C100.485 43.3944 100.554 43.1903 100.582 42.9787C100.61 42.767 100.595 42.552 100.54 42.3459V42.3463ZM98.6988 49.6045L96.4474 48.3088C96.0738 48.0939 95.6302 48.0361 95.214 48.1483C94.7979 48.2604 94.4434 48.5333 94.2284 48.9068C94.0135 49.2804 93.9557 49.724 94.0679 50.1401C94.18 50.5563 94.4529 50.9108 94.8264 51.1258L97.0779 52.4213C97.4511 52.6311 97.892 52.6851 98.3048 52.5716C98.7177 52.4582 99.0691 52.1864 99.2826 51.8153C99.4961 51.4442 99.5546 51.0038 99.4453 50.5899C99.336 50.1759 99.0677 49.8218 98.6988 49.6045ZM91.7952 39.8328C92.1683 40.0484 92.6118 40.107 93.0281 39.9957C93.4444 39.8843 93.7995 39.6122 94.0151 39.2391L95.3166 36.9878C95.4234 36.8031 95.4927 36.5991 95.5207 36.3875C95.5486 36.1759 95.5346 35.9609 95.4795 35.7547C95.4243 35.5486 95.3291 35.3553 95.1993 35.1859C95.0694 35.0165 94.9075 34.8744 94.7227 34.7676C94.3496 34.5519 93.906 34.4933 93.4896 34.6047C93.0732 34.716 92.7181 34.9883 92.5025 35.3614L91.2012 37.6127C91.0945 37.7974 91.0251 38.0014 90.9972 38.213C90.9692 38.4246 90.9832 38.6396 91.0384 38.8458C91.0935 39.0519 91.1888 39.2452 91.3186 39.4146C91.4485 39.5839 91.6104 39.726 91.7952 39.8328ZM22.271 44.2368L18.6923 42.4763L15.1082 44.237C14.8427 44.3674 14.5466 44.423 14.2519 44.3975C13.9571 44.3721 13.6749 44.2667 13.4357 44.0927C13.1964 43.9187 13.0092 43.6827 12.8942 43.4101C12.7793 43.1375 12.7409 42.8387 12.7832 42.546L13.3542 38.5986L10.5714 35.7346C10.3652 35.5224 10.2209 35.2579 10.154 34.9697C10.0871 34.6815 10.1001 34.3805 10.1917 34.0991C10.2833 33.8178 10.45 33.5668 10.6738 33.3732C10.8975 33.1797 11.1699 33.0508 11.4615 33.0007L15.394 32.3245L17.2548 28.7946C17.3928 28.5329 17.5996 28.3138 17.8529 28.1609C18.1062 28.0081 18.3965 27.9273 18.6923 27.9273C18.9882 27.9273 19.2784 28.0081 19.5318 28.1609C19.7851 28.3138 19.9919 28.5329 20.1298 28.7946L21.9905 32.3243L25.9234 33.0005C26.215 33.0506 26.4873 33.1794 26.7111 33.373C26.9349 33.5666 27.1015 33.8176 27.1931 34.0989C27.2847 34.3803 27.2978 34.6813 27.2309 34.9695C27.164 35.2577 27.0196 35.5222 26.8135 35.7344L24.0307 38.5984L24.5968 42.547C24.6387 42.8397 24.6 43.1383 24.4848 43.4107C24.3696 43.683 24.1823 43.9188 23.943 44.0925C23.7037 44.2663 23.4215 44.3714 23.1269 44.3967C22.8323 44.4219 22.5363 44.3663 22.271 44.2357V44.2368ZM21.1424 36.9078L22.334 35.6818L20.6509 35.3923C20.4054 35.3501 20.173 35.2521 19.9714 35.1058C19.7699 34.9595 19.6047 34.7688 19.4886 34.5485L18.6921 33.0375L17.8955 34.5485C17.7793 34.7688 17.6141 34.9595 17.4126 35.1058C17.2111 35.2521 16.9786 35.3501 16.7332 35.3923L15.0503 35.6815L16.2418 36.9078C16.4152 37.0863 16.5452 37.3022 16.622 37.5388C16.6987 37.7755 16.7201 38.0266 16.6844 38.2728L16.4407 39.9616L17.9763 39.2074C18.1994 39.0978 18.4446 39.0407 18.6931 39.0407C18.9417 39.0407 19.1869 39.0978 19.41 39.2074L20.9425 39.9612L20.7002 38.2704C20.6649 38.0246 20.6864 37.7739 20.7631 37.5377C20.8397 37.3015 20.9695 37.086 21.1424 36.9078ZM66.3174 20.6464H80.0099C80.4408 20.6464 80.8542 20.4752 81.1589 20.1705C81.4637 19.8657 81.6349 19.4524 81.6349 19.0214C81.6349 18.5905 81.4637 18.1771 81.1589 17.8724C80.8542 17.5676 80.4408 17.3964 80.0099 17.3964H66.3174C65.8864 17.3964 65.4731 17.5676 65.1684 17.8724C64.8636 18.1771 64.6924 18.5905 64.6924 19.0214C64.6924 19.4524 64.8636 19.8657 65.1684 20.1705C65.4731 20.4752 65.8864 20.6464 66.3174 20.6464ZM66.3174 12.7408H80.0099C80.4408 12.7408 80.8542 12.5696 81.1589 12.2649C81.4637 11.9601 81.6349 11.5468 81.6349 11.1158C81.6349 10.6848 81.4637 10.2715 81.1589 9.96676C80.8542 9.66202 80.4408 9.49081 80.0099 9.49081H66.3174C65.8864 9.49081 65.4731 9.66202 65.1684 9.96676C64.8636 10.2715 64.6924 10.6848 64.6924 11.1158C64.6924 11.5468 64.8636 11.9601 65.1684 12.2649C65.4731 12.5696 65.8864 12.7408 66.3174 12.7408Z" fill="#275023"/>
</svg>
