<svg width="104" height="104" viewBox="0 0 104 104" fill="none" xmlns="http://www.w3.org/2000/svg">
<path d="M100.36 88.3187C100.207 88.1413 100.018 87.9987 99.8045 87.9006C99.5915 87.8025 99.3599 87.7512 99.1254 87.75H97.5004V34.125C97.4965 32.8333 96.9817 31.5955 96.0683 30.6821C95.1549 29.7687 93.9171 29.2539 92.6254 29.25H91.0004V27.7875C90.9987 27.3895 90.853 27.0057 90.5901 26.7069C90.3271 26.4081 89.9649 26.2147 89.5704 26.1625L85.6704 25.675L88.0916 22.5713C88.3327 22.2573 88.4509 21.8661 88.424 21.4711C88.397 21.0762 88.2269 20.7046 87.9454 20.4262L83.5742 16.055C83.2969 15.7716 82.9251 15.6001 82.5295 15.5732C82.134 15.5462 81.7423 15.6656 81.4291 15.9088L78.3254 18.33L77.8379 14.43C77.7857 14.0355 77.5922 13.6732 77.2935 13.4103C76.9947 13.1474 76.6109 13.0017 76.2129 13H70.0379C69.6399 13.0017 69.2561 13.1474 68.9573 13.4103C68.6585 13.6732 68.4651 14.0355 68.4129 14.43L67.9254 18.33L64.8216 15.9088C64.5085 15.6656 64.1168 15.5462 63.7213 15.5732C63.3257 15.6001 62.9539 15.7716 62.6766 16.055L58.3054 20.4262C58.0239 20.7046 57.8538 21.0762 57.8268 21.4711C57.7999 21.8661 57.9181 22.2573 58.1591 22.5713L60.5804 25.675L56.6804 26.1625C56.2859 26.2147 55.9236 26.4081 55.6607 26.7069C55.3978 27.0057 55.2521 27.3895 55.2504 27.7875V29.25H11.3754C10.0837 29.2539 8.84592 29.7687 7.93251 30.6821C7.01911 31.5955 6.50425 32.8333 6.5004 34.125V87.75H4.8754C4.64087 87.7512 4.40932 87.8025 4.1963 87.9006C3.98328 87.9987 3.79373 88.1413 3.6404 88.3187C3.48969 88.4999 3.37858 88.7106 3.31421 88.9373C3.24984 89.164 3.23364 89.4017 3.26665 89.635L4.4529 96.6712C4.63427 97.8111 5.21704 98.8485 6.09607 99.5964C6.9751 100.344 8.0925 100.753 9.24665 100.75H94.7542C95.9083 100.753 97.0257 100.344 97.9047 99.5964C98.7837 98.8485 99.3665 97.8111 99.5479 96.6712L100.734 89.635C100.767 89.4017 100.751 89.164 100.687 88.9373C100.622 88.7106 100.511 88.4999 100.36 88.3187ZM58.5004 29.2175L62.3516 28.73C62.6534 28.6914 62.9383 28.5689 63.1738 28.3765C63.4094 28.184 63.5862 27.9293 63.6841 27.6413C63.8304 27.2513 63.9929 26.8612 64.1716 26.4875C64.308 26.2157 64.3637 25.9106 64.332 25.6082C64.3003 25.3058 64.1826 25.0188 63.9929 24.7812L61.6041 21.71L63.9604 19.3537L67.0316 21.7425C67.2692 21.9322 67.5562 22.0499 67.8586 22.0816C68.161 22.1133 68.4661 22.0576 68.7379 21.9212C69.1116 21.7425 69.5016 21.58 69.8916 21.4337C70.1797 21.3358 70.4344 21.159 70.6269 20.9234C70.8193 20.6879 70.9418 20.403 70.9804 20.1012L71.4679 16.25H74.7829L75.2704 20.1012C75.309 20.403 75.4314 20.6879 75.6239 20.9234C75.8164 21.159 76.0711 21.3358 76.3591 21.4337C76.7492 21.58 77.1391 21.7425 77.5129 21.9212C77.7847 22.0576 78.0898 22.1133 78.3922 22.0816C78.6946 22.0499 78.9816 21.9322 79.2191 21.7425L82.2904 19.3537L84.6466 21.71L82.2579 24.7812C82.0682 25.0188 81.9505 25.3058 81.9188 25.6082C81.8871 25.9106 81.9428 26.2157 82.0791 26.4875C82.2579 26.8612 82.4204 27.2513 82.5667 27.6413C82.6646 27.9293 82.8414 28.184 83.077 28.3765C83.3125 28.5689 83.5974 28.6914 83.8991 28.73L87.7504 29.2175V32.5325L83.8991 33.02C83.5974 33.0586 83.3125 33.1811 83.077 33.3735C82.8414 33.566 82.6646 33.8207 82.5667 34.1087C82.4204 34.4987 82.2579 34.8888 82.0791 35.2625C81.9428 35.5343 81.8871 35.8394 81.9188 36.1418C81.9505 36.4442 82.0682 36.7312 82.2579 36.9688L84.6466 40.04L82.2904 42.3962L79.2191 40.0075C78.9816 39.8178 78.6946 39.7001 78.3922 39.6684C78.0898 39.6367 77.7847 39.6924 77.5129 39.8288C77.1391 40.0075 76.7492 40.17 76.3591 40.3162C76.0711 40.4142 75.8164 40.591 75.6239 40.8266C75.4314 41.0621 75.309 41.347 75.2704 41.6487L74.7829 45.5H71.4679L70.9804 41.6487C70.9418 41.347 70.8193 41.0621 70.6269 40.8266C70.4344 40.591 70.1797 40.4142 69.8916 40.3162C69.5016 40.17 69.1116 40.0075 68.7379 39.8288C68.4661 39.6924 68.161 39.6367 67.8586 39.6684C67.5562 39.7001 67.2692 39.8178 67.0316 40.0075L63.9604 42.3962L61.6041 40.04L63.9929 36.9688C64.1826 36.7312 64.3003 36.4442 64.332 36.1418C64.3637 35.8394 64.308 35.5343 64.1716 35.2625C63.9929 34.8888 63.8304 34.4987 63.6841 34.1087C63.5862 33.8207 63.4094 33.566 63.1738 33.3735C62.9383 33.1811 62.6534 33.0586 62.3516 33.02L58.5004 32.5325V29.2175ZM9.7504 34.125C9.7504 33.694 9.9216 33.2807 10.2263 32.976C10.5311 32.6712 10.9444 32.5 11.3754 32.5H55.2504V33.9625C55.2521 34.3605 55.3978 34.7443 55.6607 35.0431C55.9236 35.3419 56.2859 35.5353 56.6804 35.5875L60.5804 36.075L58.1591 39.1788C57.9181 39.4927 57.7999 39.8839 57.8268 40.2789C57.8538 40.6738 58.0239 41.0454 58.3054 41.3237L62.6766 45.695C62.9539 45.9784 63.3257 46.1499 63.7213 46.1768C64.1168 46.2038 64.5085 46.0844 64.8216 45.8412L67.9254 43.42L68.4129 47.32C68.4651 47.7145 68.6585 48.0768 68.9573 48.3397C69.2561 48.6026 69.6399 48.7483 70.0379 48.75H76.2129C76.6109 48.7483 76.9947 48.6026 77.2935 48.3397C77.5922 48.0768 77.7857 47.7145 77.8379 47.32L78.3254 43.42L81.4291 45.8412C81.7423 46.0844 82.134 46.2038 82.5295 46.1768C82.9251 46.1499 83.2969 45.9784 83.5742 45.695L87.9454 41.3237C88.2269 41.0454 88.397 40.6738 88.424 40.2789C88.4509 39.8839 88.3327 39.4927 88.0916 39.1788L85.6704 36.075L89.5704 35.5875C89.9649 35.5353 90.3271 35.3419 90.5901 35.0431C90.853 34.7443 90.9987 34.3605 91.0004 33.9625V32.5H92.6254C93.0564 32.5 93.4697 32.6712 93.7744 32.976C94.0792 33.2807 94.2504 33.694 94.2504 34.125V87.75H58.5004C58.0694 87.75 57.6561 87.9212 57.3513 88.226C57.0466 88.5307 56.8754 88.944 56.8754 89.375V91H47.1254V89.375C47.1254 88.944 46.9542 88.5307 46.6494 88.226C46.3447 87.9212 45.9314 87.75 45.5004 87.75H9.7504V34.125ZM96.3466 96.135C96.2887 96.5155 96.096 96.8626 95.8038 97.1131C95.5115 97.3636 95.1391 97.5009 94.7542 97.5H9.24665C8.86173 97.5009 8.48928 97.3636 8.19702 97.1131C7.90477 96.8626 7.71214 96.5155 7.65415 96.135L6.7929 91H43.8754V92.625C43.8754 93.056 44.0466 93.4693 44.3513 93.774C44.6561 94.0788 45.0694 94.25 45.5004 94.25H58.5004C58.9314 94.25 59.3447 94.0788 59.6494 93.774C59.9542 93.4693 60.1254 93.056 60.1254 92.625V91H97.2079L96.3466 96.135Z" fill="#275023"/>
<path d="M47.32 58.6625L43.42 58.175L45.8412 55.0712C46.0823 54.7573 46.2005 54.3661 46.1736 53.9711C46.1466 53.5762 45.9765 53.2046 45.695 52.9262L41.3237 48.555C41.0454 48.2735 40.6738 48.1034 40.2789 48.0764C39.8839 48.0495 39.4927 48.1677 39.1788 48.4088L36.075 50.83L35.5875 46.93C35.5353 46.5355 35.3419 46.1732 35.0431 45.9103C34.7443 45.6474 34.3605 45.5017 33.9625 45.5H27.7875C27.3895 45.5017 27.0057 45.6474 26.7069 45.9103C26.4081 46.1732 26.2147 46.5355 26.1625 46.93L25.675 50.83L22.5713 48.4088C22.2581 48.1656 21.8664 48.0462 21.4709 48.0732C21.0753 48.1001 20.7035 48.2716 20.4262 48.555L16.055 52.9262C15.7735 53.2046 15.6034 53.5762 15.5764 53.9711C15.5495 54.3661 15.6677 54.7573 15.9088 55.0712L18.33 58.175L14.43 58.6625C14.0355 58.7147 13.6732 58.9081 13.4103 59.2069C13.1474 59.5057 13.0017 59.8895 13 60.2875V66.4625C13.0017 66.8605 13.1474 67.2443 13.4103 67.5431C13.6732 67.8419 14.0355 68.0353 14.43 68.0875L18.33 68.575L15.9088 71.6788C15.6677 71.9927 15.5495 72.3839 15.5764 72.7789C15.6034 73.1738 15.7735 73.5454 16.055 73.8237L20.4262 78.195C20.7035 78.4784 21.0753 78.6499 21.4709 78.6768C21.8664 78.7038 22.2581 78.5844 22.5713 78.3412L25.675 75.92L26.1625 79.82C26.2147 80.2145 26.4081 80.5768 26.7069 80.8397C27.0057 81.1026 27.3895 81.2483 27.7875 81.25H33.9625C34.3605 81.2483 34.7443 81.1026 35.0431 80.8397C35.3419 80.5768 35.5353 80.2145 35.5875 79.82L36.075 75.92L39.1788 78.3412C39.4927 78.5823 39.8839 78.7005 40.2789 78.6736C40.6738 78.6466 41.0454 78.4765 41.3237 78.195L45.695 73.8237C45.9765 73.5454 46.1466 73.1738 46.1736 72.7789C46.2005 72.3839 46.0823 71.9927 45.8412 71.6788L43.42 68.575L47.32 68.0875C47.7145 68.0353 48.0768 67.8419 48.3397 67.5431C48.6026 67.2443 48.7483 66.8605 48.75 66.4625V60.2875C48.7483 59.8895 48.6026 59.5057 48.3397 59.2069C48.0768 58.9081 47.7145 58.7147 47.32 58.6625ZM45.5 65.0325L41.6487 65.52C41.347 65.5586 41.0621 65.6811 40.8266 65.8735C40.591 66.066 40.4142 66.3207 40.3162 66.6088C40.17 66.9988 40.0075 67.3888 39.8288 67.7625C39.6924 68.0343 39.6367 68.3394 39.6684 68.6418C39.7001 68.9442 39.8178 69.2312 40.0075 69.4688L42.3962 72.54L40.04 74.8962L36.9688 72.5075C36.7312 72.3178 36.4442 72.2001 36.1418 72.1684C35.8394 72.1367 35.5343 72.1924 35.2625 72.3287C34.8888 72.5075 34.4987 72.67 34.1087 72.8163C33.8207 72.9142 33.566 73.091 33.3735 73.3266C33.1811 73.5621 33.0586 73.847 33.02 74.1488L32.5325 78H29.2175L28.73 74.1488C28.6914 73.847 28.5689 73.5621 28.3765 73.3266C28.184 73.091 27.9293 72.9142 27.6413 72.8163C27.2513 72.67 26.8612 72.5075 26.4875 72.3287C26.2157 72.1924 25.9106 72.1367 25.6082 72.1684C25.3058 72.2001 25.0188 72.3178 24.7812 72.5075L21.71 74.8962L19.3537 72.54L21.7425 69.4688C21.9322 69.2312 22.0499 68.9442 22.0816 68.6418C22.1133 68.3394 22.0576 68.0343 21.9212 67.7625C21.7425 67.3888 21.58 66.9988 21.4337 66.6088C21.3358 66.3207 21.159 66.066 20.9234 65.8735C20.6879 65.6811 20.403 65.5586 20.1012 65.52L16.25 65.0325V61.7175L20.1012 61.23C20.403 61.1914 20.6879 61.0689 20.9234 60.8765C21.159 60.684 21.3358 60.4293 21.4337 60.1412C21.58 59.7512 21.7425 59.3612 21.9212 58.9875C22.0576 58.7157 22.1133 58.4106 22.0816 58.1082C22.0499 57.8058 21.9322 57.5188 21.7425 57.2812L19.3537 54.21L21.71 51.8537L24.7812 54.2425C25.0188 54.4322 25.3058 54.5499 25.6082 54.5816C25.9106 54.6133 26.2157 54.5576 26.4875 54.4213C26.8612 54.2425 27.2513 54.08 27.6413 53.9337C27.9293 53.8358 28.184 53.659 28.3765 53.4234C28.5689 53.1879 28.6914 52.903 28.73 52.6012L29.2175 48.75H32.5325L33.02 52.6012C33.0586 52.903 33.1811 53.1879 33.3735 53.4234C33.566 53.659 33.8207 53.8358 34.1087 53.9337C34.4987 54.08 34.8888 54.2425 35.2625 54.4213C35.5343 54.5576 35.8394 54.6133 36.1418 54.5816C36.4442 54.5499 36.7312 54.4322 36.9688 54.2425L40.04 51.8537L42.3962 54.21L40.0075 57.2812C39.8178 57.5188 39.7001 57.8058 39.6684 58.1082C39.6367 58.4106 39.6924 58.7157 39.8288 58.9875C40.0075 59.3612 40.17 59.7512 40.3162 60.1412C40.4142 60.4293 40.591 60.684 40.8266 60.8765C41.0621 61.0689 41.347 61.1914 41.6487 61.23L45.5 61.7175V65.0325Z" fill="#275023"/>
<path d="M30.875 55.25C29.268 55.25 27.6971 55.7265 26.361 56.6193C25.0248 57.5121 23.9834 58.781 23.3685 60.2657C22.7535 61.7503 22.5926 63.384 22.9061 64.9601C23.2196 66.5362 23.9935 67.9839 25.1298 69.1202C26.2661 70.2565 27.7138 71.0304 29.2899 71.3439C30.866 71.6574 32.4997 71.4965 33.9843 70.8815C35.469 70.2666 36.7379 69.2252 37.6307 67.889C38.5235 66.5529 39 64.982 39 63.375C38.9974 61.2209 38.1406 59.1558 36.6174 57.6326C35.0942 56.1094 33.0291 55.2526 30.875 55.25ZM30.875 68.25C29.9108 68.25 28.9683 67.9641 28.1666 67.4284C27.3649 66.8927 26.7401 66.1314 26.3711 65.2406C26.0021 64.3498 25.9056 63.3696 26.0937 62.4239C26.2818 61.4783 26.7461 60.6096 27.4279 59.9279C28.1096 59.2461 28.9783 58.7818 29.9239 58.5937C30.8696 58.4056 31.8498 58.5021 32.7406 58.8711C33.6314 59.2401 34.3927 59.8649 34.9284 60.6666C35.4641 61.4683 35.75 62.4108 35.75 63.375C35.75 64.6679 35.2364 65.9079 34.3222 66.8221C33.4079 67.7364 32.1679 68.25 30.875 68.25ZM73.125 39C74.732 39 76.3029 38.5235 77.639 37.6307C78.9752 36.7379 80.0166 35.469 80.6315 33.9843C81.2465 32.4997 81.4074 30.866 81.0939 29.2899C80.7804 27.7138 80.0065 26.2661 78.8702 25.1298C77.7339 23.9935 76.2862 23.2196 74.7101 22.9061C73.134 22.5926 71.5003 22.7535 70.0157 23.3685C68.531 23.9834 67.2621 25.0248 66.3693 26.361C65.4765 27.6971 65 29.268 65 30.875C65.0026 33.0291 65.8594 35.0942 67.3826 36.6174C68.9058 38.1406 70.9709 38.9974 73.125 39ZM73.125 26C74.0892 26 75.0317 26.2859 75.8334 26.8216C76.6351 27.3573 77.2599 28.1186 77.6289 29.0094C77.9979 29.9002 78.0944 30.8804 77.9063 31.8261C77.7182 32.7717 77.2539 33.6404 76.5722 34.3221C75.8904 35.0039 75.0217 35.4682 74.0761 35.6563C73.1304 35.8444 72.1502 35.7479 71.2594 35.3789C70.3686 35.0099 69.6073 34.3851 69.0716 33.5834C68.5359 32.7817 68.25 31.8392 68.25 30.875C68.25 29.5821 68.7636 28.3421 69.6779 27.4279C70.5921 26.5136 71.8321 26 73.125 26ZM29.25 35.75H32.5V42.25H29.25V35.75ZM32.5 6.5H71.5V9.75H74.75V4.875C74.75 4.44402 74.5788 4.0307 74.2741 3.72595C73.9693 3.4212 73.556 3.25 73.125 3.25H30.875C30.444 3.25 30.0307 3.4212 29.726 3.72595C29.4212 4.0307 29.25 4.44402 29.25 4.875V26H32.5V6.5ZM74.75 63.375V52H71.5V61.75H52V65H73.125C73.556 65 73.9693 64.8288 74.2741 64.524C74.5788 64.2193 74.75 63.806 74.75 63.375ZM71.5 74.75H91V78H71.5V74.75ZM58.5 74.75H68.25V78H58.5V74.75ZM58.5 81.25H91V84.5H58.5V81.25ZM58.5 68.25H91V71.5H58.5V68.25Z" fill="#275023"/>
</svg>
