<svg width="104" height="104" viewBox="0 0 104 104" fill="none" xmlns="http://www.w3.org/2000/svg">
<path d="M52 1.625C51.569 1.625 51.1557 1.7962 50.851 2.10095C50.5462 2.4057 50.375 2.81902 50.375 3.25V8.16563C39.3155 8.58872 28.8235 13.1716 20.9975 20.9975C13.1716 28.8235 8.58872 39.3155 8.16563 50.375H3.25C2.81902 50.375 2.4057 50.5462 2.10095 50.851C1.7962 51.1557 1.625 51.569 1.625 52C1.625 61.9632 4.57944 71.7027 10.1147 79.9868C15.65 88.271 23.5175 94.7277 32.7223 98.5404C41.9272 102.353 52.0559 103.351 61.8277 101.407C71.5995 99.4633 80.5754 94.6656 87.6205 87.6205C94.6656 80.5754 99.4633 71.5995 101.407 61.8277C103.351 52.0559 102.353 41.9272 98.5404 32.7223C94.7277 23.5175 88.271 15.65 79.9868 10.1147C71.7027 4.57944 61.9632 1.625 52 1.625ZM53.625 4.90262C65.5492 5.32891 76.8693 10.2566 85.3063 18.6937C93.7434 27.1307 98.6711 38.4508 99.0974 50.375H53.625V4.90262ZM43.875 91.8125C42.7812 91.5856 41.6969 91.3145 40.625 91V79.625H43.875V91.8125ZM50.375 92.5892C49.2886 92.545 48.2044 92.4578 47.125 92.3276V66.625H50.375V92.5892ZM53.625 73.125H56.875V92.3227C55.8041 92.4511 54.7202 92.5405 53.625 92.5844V73.125ZM60.125 79.625H63.375V91C62.3074 91.312 61.2267 91.5915 60.125 91.8125V79.625ZM65 76.375H60.125V71.5C60.125 71.069 59.9538 70.6557 59.649 70.351C59.3443 70.0462 58.931 69.875 58.5 69.875H53.625V65C53.625 64.569 53.4538 64.1557 53.149 63.851C52.8443 63.5462 52.431 63.375 52 63.375H45.5C45.069 63.375 44.6557 63.5462 44.351 63.851C44.0462 64.1557 43.875 64.569 43.875 65V76.375H39C38.569 76.375 38.1557 76.5462 37.851 76.851C37.5462 77.1557 37.375 77.569 37.375 78V89.8901C32.603 88.0402 28.2225 85.3075 24.4627 81.835L52 54.2978L79.5372 81.835C75.7775 85.3075 71.397 88.0402 66.625 89.8901V78C66.625 77.569 66.4538 77.1557 66.149 76.851C65.8443 76.5462 65.431 76.375 65 76.375ZM81.835 79.5372L55.9228 53.625H92.5844C92.2051 63.2677 88.3928 72.4576 81.835 79.5372ZM50.375 11.4156V51.3273L22.165 79.5372C16.8977 73.8415 13.3729 66.7557 12.008 59.1187C10.6431 51.4818 11.4952 43.6137 14.4634 36.446C17.4316 29.2784 22.3916 23.1114 28.7561 18.6754C35.1206 14.2393 42.623 11.7199 50.375 11.4156ZM52 99.125C39.7873 99.1105 28.0561 94.3612 19.2727 85.8758C10.4894 77.3904 5.33836 65.8299 4.90262 53.625H8.16563C8.58027 64.9735 13.38 75.7189 21.5553 83.6008C29.7305 91.4828 40.644 95.887 52 95.887C63.356 95.887 74.2695 91.4828 82.4447 83.6008C90.62 75.7189 95.4197 64.9735 95.8344 53.625H99.0844C98.6507 65.8283 93.5021 77.3881 84.7211 85.8736C75.9402 94.3591 64.211 99.1091 52 99.125Z" fill="#275023"/>
<path d="M74.75 29.25H78C78 27.9571 77.4864 26.7171 76.5721 25.8029C75.6579 24.8886 74.4179 24.375 73.125 24.375V22.75H69.875V24.375C68.5821 24.375 67.3421 24.8886 66.4279 25.8029C65.5136 26.7171 65 27.9571 65 29.25C65 30.5429 65.5136 31.7829 66.4279 32.6971C67.3421 33.6114 68.5821 34.125 69.875 34.125V37.375C69.444 37.375 69.0307 37.2038 68.726 36.899C68.4212 36.5943 68.25 36.181 68.25 35.75H65C65 37.0429 65.5136 38.2829 66.4279 39.1971C67.3421 40.1114 68.5821 40.625 69.875 40.625V42.25H73.125V40.625C74.4179 40.625 75.6579 40.1114 76.5721 39.1971C77.4864 38.2829 78 37.0429 78 35.75C78 34.4571 77.4864 33.2171 76.5721 32.3029C75.6579 31.3886 74.4179 30.875 73.125 30.875V27.625C73.556 27.625 73.9693 27.7962 74.274 28.101C74.5788 28.4057 74.75 28.819 74.75 29.25ZM74.75 35.75C74.75 36.181 74.5788 36.5943 74.274 36.899C73.9693 37.2038 73.556 37.375 73.125 37.375V34.125C73.556 34.125 73.9693 34.2962 74.274 34.601C74.5788 34.9057 74.75 35.319 74.75 35.75ZM69.875 30.875C69.444 30.875 69.0307 30.7038 68.726 30.399C68.4212 30.0943 68.25 29.681 68.25 29.25C68.25 28.819 68.4212 28.4057 68.726 28.101C69.0307 27.7962 69.444 27.625 69.875 27.625V30.875ZM30.875 45.5H27.625C27.625 46.7929 28.1386 48.0329 29.0529 48.9471C29.9671 49.8614 31.2071 50.375 32.5 50.375V52H35.75V50.375C37.0429 50.375 38.2829 49.8614 39.1971 48.9471C40.1114 48.0329 40.625 46.7929 40.625 45.5C40.625 44.2071 40.1114 42.9671 39.1971 42.0529C38.2829 41.1386 37.0429 40.625 35.75 40.625V37.375C36.181 37.375 36.5943 37.5462 36.899 37.851C37.2038 38.1557 37.375 38.569 37.375 39H40.625C40.625 37.7071 40.1114 36.4671 39.1971 35.5529C38.2829 34.6386 37.0429 34.125 35.75 34.125V32.5H32.5V34.125C31.2071 34.125 29.9671 34.6386 29.0529 35.5529C28.1386 36.4671 27.625 37.7071 27.625 39C27.625 40.2929 28.1386 41.5329 29.0529 42.4471C29.9671 43.3614 31.2071 43.875 32.5 43.875V47.125C32.069 47.125 31.6557 46.9538 31.351 46.649C31.0462 46.3443 30.875 45.931 30.875 45.5ZM30.875 39C30.875 38.569 31.0462 38.1557 31.351 37.851C31.6557 37.5462 32.069 37.375 32.5 37.375V40.625C32.069 40.625 31.6557 40.4538 31.351 40.149C31.0462 39.8443 30.875 39.431 30.875 39ZM35.75 43.875C36.181 43.875 36.5943 44.0462 36.899 44.351C37.2038 44.6557 37.375 45.069 37.375 45.5C37.375 45.931 37.2038 46.3443 36.899 46.649C36.5943 46.9538 36.181 47.125 35.75 47.125V43.875Z" fill="#275023"/>
<path d="M71.5 17.875C68.6075 17.875 65.7799 18.7327 63.3748 20.3398C60.9697 21.9468 59.0952 24.2309 57.9883 26.9033C56.8813 29.5756 56.5917 32.5162 57.156 35.3532C57.7203 38.1902 59.1132 40.7961 61.1586 42.8414C63.2039 44.8868 65.8098 46.2797 68.6468 46.844C71.4838 47.4083 74.4244 47.1187 77.0968 46.0117C79.7691 44.9048 82.0532 43.0303 83.6602 40.6252C85.2673 38.2201 86.125 35.3926 86.125 32.5C86.1207 28.6225 84.5785 24.9051 81.8367 22.1633C79.0949 19.4215 75.3775 17.8793 71.5 17.875ZM71.5 43.875C69.2502 43.875 67.051 43.2079 65.1804 41.958C63.3098 40.7081 61.8518 38.9315 60.9909 36.853C60.1299 34.7745 59.9047 32.4874 60.3436 30.2808C60.7825 28.0743 61.8658 26.0475 63.4567 24.4567C65.0475 22.8658 67.0743 21.7825 69.2809 21.3436C71.4874 20.9047 73.7745 21.1299 75.853 21.9909C77.9315 22.8518 79.7081 24.3098 80.958 26.1804C82.2079 28.051 82.875 30.2502 82.875 32.5C82.8716 35.5158 81.672 38.4071 79.5396 40.5395C77.4071 42.672 74.5158 43.8716 71.5 43.875Z" fill="#275023"/>
</svg>
