<svg width="104" height="104" viewBox="0 0 104 104" fill="none" xmlns="http://www.w3.org/2000/svg">
<path d="M95.335 26.1543H92.4118C92.4098 26.1494 92.4078 26.1445 92.4059 26.1395L91.8451 24.7707C91.8415 24.7618 91.8378 24.7529 91.8339 24.7441L91.8345 24.7398L93.9115 22.647C94.893 21.658 94.893 20.0484 93.9115 19.0592L90.0103 15.1283C89.5319 14.6461 88.8937 14.3804 88.2134 14.3804C87.5332 14.3804 86.8952 14.6461 86.4168 15.1281L84.3484 17.212L84.3333 17.2057L82.985 16.6446L82.9651 16.6365L82.9639 16.6347V13.6691C82.9639 12.2691 81.825 11.13 80.4248 11.13H74.9157C73.5155 11.13 72.3766 12.2691 72.3766 13.6691V16.6347L72.3754 16.6365L72.3555 16.6446L71.0073 17.2057C71.0024 17.2079 70.9973 17.21 70.9923 17.212L68.9243 15.1279C68.6895 14.8902 68.4097 14.7016 68.1012 14.5733C67.7927 14.4449 67.4618 14.3794 67.1276 14.3804C66.4684 14.3789 65.8349 14.6365 65.3639 15.0978C61.5911 13.6648 57.5062 12.8779 53.2418 12.8779C34.2403 12.8779 18.7812 28.4501 18.7812 47.5909C18.7812 54.6826 20.8903 61.5028 24.8807 67.3144C28.5816 72.7043 33.6498 76.8903 39.5841 79.4702V85.126C38.2258 85.6263 37.2526 86.9296 37.2526 88.4593V91.7643C37.2526 93.7243 38.8474 95.319 40.8073 95.319H43.0291V100.669C43.0291 102.506 44.5202 104 46.353 104H60.1308C61.9636 104 63.4547 102.506 63.4547 100.669V95.319H65.6765C67.6365 95.319 69.2312 93.7243 69.2312 91.7643V88.4593C69.2312 86.9296 68.2578 85.6261 66.8995 85.126V79.4704C74.6167 76.1168 80.8136 70.088 84.4195 62.3967C84.5909 62.0309 84.61 61.6119 84.4726 61.2319C84.3352 60.852 84.0526 60.5421 83.6868 60.3706C83.5057 60.2856 83.3096 60.2372 83.1097 60.228C82.9099 60.2189 82.7102 60.2492 82.5221 60.3172C82.3339 60.3853 82.161 60.4897 82.0133 60.6246C81.8655 60.7594 81.7457 60.9221 81.6608 61.1032C78.563 67.7107 73.3705 72.9724 66.8995 76.1166V67.8541H67.2416C68.6417 67.8541 69.7807 66.7152 69.7807 65.315V61.3451C69.7807 59.945 68.6417 58.8061 67.2416 58.8061H63.367C61.9668 58.8061 60.8279 59.945 60.8279 61.3451V65.315C60.8279 66.7152 61.9668 67.8541 63.367 67.8541H63.8529V84.9042H61.6343V73.2168C61.6343 72.2489 61.1582 71.0937 60.4769 70.4072L48.9853 58.8274L49.4745 58.3344C50.456 57.3454 50.456 55.7358 49.4745 54.7466L46.729 51.9803C46.2507 51.4981 45.6124 51.2324 44.9322 51.2324C44.2519 51.2324 43.6139 51.4981 43.1355 51.9801L40.355 54.782C39.3735 55.771 39.3735 57.3806 40.355 58.3698L43.1004 61.1361C43.5788 61.6183 44.217 61.884 44.8972 61.884C45.5775 61.884 46.2155 61.6183 46.6939 61.1363L46.8389 60.9901L58.314 72.5532C58.4264 72.6702 58.5848 73.0551 58.5877 73.2168V84.9042H55.438V72.1093C55.438 71.7053 55.2775 71.3178 54.9918 71.0321C54.7061 70.7464 54.3186 70.5859 53.9146 70.5859C53.5105 70.5859 53.123 70.7464 52.8373 71.0321C52.5516 71.3178 52.3911 71.7053 52.3911 72.1093V84.9044H47.7824V74.0061H48.1964C49.5965 74.0061 50.7355 72.8672 50.7355 71.4671V67.4972C50.7355 66.0971 49.5965 64.9581 48.1964 64.9581H44.3218C42.9216 64.9581 41.7827 66.0971 41.7827 67.4972V71.4671C41.7827 72.8672 42.9216 74.0061 44.3218 74.0061H44.7355V84.9044H42.6312V78.455C42.6311 78.1504 42.5398 77.8528 42.3691 77.6007C42.1983 77.3485 41.9558 77.1533 41.673 77.0402C35.8872 74.7286 30.9493 70.7689 27.3927 65.5894C23.7525 60.2879 21.8283 54.0641 21.8283 47.5909C21.8283 30.1301 35.9203 15.9248 53.242 15.9248C56.6433 15.9248 59.9189 16.4754 62.9888 17.4882L61.43 19.059C60.4485 20.048 60.4485 21.6576 61.43 22.6466L63.5065 24.7396L63.5071 24.7438L63.496 24.7703L62.9351 26.1389L62.9291 26.1539H60.0059C58.6057 26.1539 57.4668 27.2929 57.4668 28.693V34.2603C57.4668 35.6604 58.6057 36.7993 60.0059 36.7993H62.9291L62.9351 36.8144L63.4958 38.1826L63.5069 38.2092C63.5069 38.2106 63.5065 38.2119 63.5063 38.2133L61.4298 40.3065C60.4485 41.2953 60.4483 42.9048 61.4298 43.8943L65.331 47.8262C65.5658 48.0638 65.8456 48.2523 66.1541 48.3807C66.4626 48.509 66.7935 48.5745 67.1276 48.5735C67.8077 48.5735 68.4457 48.308 68.9245 47.8258L70.9923 45.7417L71.0073 45.748L72.3555 46.309L72.3754 46.3171L72.3766 46.319V49.2846C72.3766 50.6847 73.5155 51.8237 74.9157 51.8237H80.425C81.8252 51.8237 82.9641 50.6847 82.9641 49.2846V46.319L82.9653 46.3171L82.9854 46.3088L84.3337 45.7476L84.3488 45.7413L84.6151 46.0096C84.6411 46.5333 84.6557 47.0602 84.6557 47.5903C84.6557 48.999 84.5631 50.4154 84.3807 51.8005C84.3279 52.2011 84.4364 52.6062 84.6824 52.9267C84.9283 53.2473 85.2915 53.457 85.692 53.5098C86.5265 53.6207 87.2915 53.0327 87.4013 52.1984C87.5607 50.9774 87.6562 49.7488 87.6873 48.5178C87.8586 48.5538 88.0345 48.5733 88.2138 48.5733C88.8939 48.5733 89.5319 48.3078 90.0107 47.8256L93.9121 43.8939C94.8934 42.9049 94.8934 41.2953 93.9119 40.3061L91.8352 38.2137L91.8345 38.2092L91.8455 38.183L92.4063 36.8144L92.4124 36.7993H95.3356C96.7357 36.7993 97.8747 35.6604 97.8747 34.2603V28.6934C97.8741 27.2933 96.7351 26.1543 95.335 26.1543ZM44.8968 58.6214L42.867 56.576L44.932 54.4954L46.9618 56.5408L44.8968 58.6214ZM60.1306 100.953H46.3528C46.2027 100.953 46.0758 100.823 46.0758 100.669V99.4817H60.4077V100.669C60.4077 100.823 60.2807 100.953 60.1306 100.953ZM60.4077 96.4348H46.0758V95.319H60.4077V96.4348ZM63.8744 61.8532H66.7334V64.8074H63.8744V61.8532ZM44.8292 68.005H47.6882V70.9593H44.8292V68.005ZM40.2993 88.4591C40.2993 88.1838 40.5319 87.9513 40.8071 87.9513H65.6763C65.9515 87.9513 66.1841 88.1838 66.1841 88.4591V91.7641C66.1841 92.0394 65.9515 92.2719 65.6763 92.2719H40.8071C40.5319 92.2719 40.2993 92.0394 40.2993 91.7641V88.4591ZM94.8272 33.7528H92.3407C91.1395 33.7528 89.9845 34.5656 89.573 35.6925L89.0404 36.9925C88.5417 38.0776 88.783 39.4645 89.6252 40.3132L91.3992 42.1007L88.2134 45.3115L86.4552 43.5392C85.9193 42.9997 85.1471 42.6901 84.3358 42.6901C83.9094 42.6901 83.493 42.7797 83.1274 42.9499L81.8479 43.4823C80.7258 43.8985 79.917 45.0537 79.917 46.2517V48.7772H75.4235V46.2517C75.4235 45.0537 74.6146 43.8985 73.4926 43.4823L72.2127 42.9499C71.8472 42.7799 71.431 42.6903 71.0049 42.6903C70.1936 42.6903 69.4211 42.9999 68.8851 43.54L67.1276 45.3115L63.9418 42.1007L65.7161 40.3124C66.5583 39.4639 66.7994 38.077 66.3005 36.9919L65.7679 35.6923C65.3562 34.5651 64.2014 33.7526 63.0001 33.7526H60.5135V29.2012H63.0001C64.2014 29.2012 65.3564 28.3887 65.7679 27.2614L66.3005 25.9614C66.7992 24.8765 66.5579 23.4893 65.7159 22.6409L63.9418 20.8528L67.1274 17.6428L68.8853 19.4143C69.4211 19.9538 70.1936 20.2635 71.0049 20.2635C71.431 20.2635 71.8472 20.1739 72.2127 20.0039L73.4926 19.4715C74.6146 19.0553 75.4235 17.9002 75.4235 16.7021V14.1769H79.9172V16.7023C79.9172 17.9002 80.726 19.0557 81.8483 19.4717L83.1276 20.0039C83.4932 20.1741 83.9096 20.2637 84.336 20.2637C85.1475 20.2637 85.92 19.9542 86.4554 19.4143L88.2134 17.643L91.3992 20.853L89.625 22.6409C88.783 23.4893 88.5417 24.8763 89.0404 25.9612L89.573 27.2616C89.9847 28.3885 91.1395 29.2012 92.3407 29.2012H94.8272V33.7528Z" fill="#275023"/>
<path d="M87.6595 28.1665C87.5985 27.975 87.5001 27.7974 87.3701 27.644C87.2401 27.4906 87.0811 27.3645 86.9021 27.2729C86.7231 27.1813 86.5278 27.126 86.3273 27.1102C86.1269 27.0945 85.9253 27.1185 85.7342 27.1811C85.5431 27.2436 85.3663 27.3433 85.2139 27.4745C85.0616 27.6057 84.9367 27.7657 84.8465 27.9454C84.7563 28.1251 84.7025 28.3208 84.6883 28.5214C84.6741 28.7219 84.6997 28.9233 84.7637 29.1139C85.0126 29.8769 85.1389 30.6745 85.1379 31.4771C85.1379 35.6324 81.788 39.013 77.6704 39.013C73.5529 39.013 70.2031 35.6324 70.2031 31.4771C70.2031 27.3217 73.5529 23.9409 77.6704 23.9409C78.5174 23.9409 79.3478 24.0825 80.1386 24.3618C80.5196 24.4963 80.9384 24.474 81.3029 24.2998C81.6675 24.1255 81.9478 23.8136 82.0824 23.4326C82.2169 23.0516 82.1946 22.6328 82.0204 22.2683C81.8461 21.9037 81.5342 21.6233 81.1532 21.4888C80.0345 21.0941 78.8567 20.8929 77.6704 20.894C71.8728 20.894 67.1562 25.6415 67.1562 31.4771C67.1562 37.3124 71.8728 42.0599 77.6704 42.0599C83.468 42.0599 88.1848 37.3124 88.1848 31.4771C88.1848 30.3457 88.0081 29.2317 87.6595 28.1665Z" fill="#275023"/>
<path d="M77.6669 26.1239C74.7311 26.1239 72.343 28.5252 72.343 31.4771C72.343 34.4287 74.7313 36.8302 77.6669 36.8302C80.6027 36.8302 82.9908 34.4289 82.9908 31.4771C82.991 28.5255 80.6027 26.1239 77.6669 26.1239ZM77.6669 33.7831C76.4112 33.7831 75.3899 32.7486 75.3899 31.4769C75.3899 30.2051 76.4114 29.1706 77.6669 29.1706C78.9226 29.1706 79.9439 30.2051 79.9439 31.4769C79.9441 32.7488 78.9226 33.7831 77.6669 33.7831ZM55.8476 41.0256H51.973C50.5729 41.0256 49.4339 42.1645 49.4339 43.5646V47.5345C49.4339 48.9346 50.5729 50.0736 51.973 50.0736H52.387V59.5154C52.387 59.9195 52.5475 60.307 52.8332 60.5927C53.1189 60.8784 53.5064 61.0389 53.9104 61.0389C54.3144 61.0389 54.7019 60.8784 54.9876 60.5927C55.2733 60.307 55.4338 59.9195 55.4338 59.5154V50.0736H55.8476C57.2478 50.0736 58.3867 48.9346 58.3867 47.5345V43.5646C58.3867 42.1645 57.2478 41.0256 55.8476 41.0256ZM55.3398 47.0267H52.4808V44.0724H55.3398V47.0267ZM53.9102 0C53.5062 0 53.1187 0.160505 52.833 0.446204C52.5473 0.731904 52.3868 1.1194 52.3868 1.52344V5.76834C52.3868 6.17238 52.5473 6.55988 52.833 6.84558C53.1187 7.13128 53.5062 7.29178 53.9102 7.29178C54.3142 7.29178 54.7017 7.13128 54.9874 6.84558C55.2731 6.55988 55.4336 6.17238 55.4336 5.76834V1.52344C55.4336 1.1194 55.2731 0.731904 54.9874 0.446204C54.7017 0.160505 54.3142 0 53.9102 0ZM43.1298 7.25481L41.9155 3.18825C41.8582 2.99653 41.7638 2.81796 41.6376 2.66274C41.5113 2.50752 41.3557 2.37869 41.1797 2.28361C41.0036 2.18852 40.8106 2.12905 40.6116 2.10857C40.4125 2.0881 40.2114 2.10704 40.0197 2.1643C39.828 2.22153 39.6495 2.31596 39.4943 2.44219C39.3391 2.56843 39.2103 2.72401 39.1152 2.90003C39.0201 3.07605 38.9607 3.26908 38.9402 3.46808C38.9198 3.66709 38.9387 3.86817 38.996 4.05986L40.21 8.12642C40.3258 8.51352 40.5905 8.83883 40.9459 9.03084C41.3014 9.22285 41.7186 9.26585 42.1058 9.15037C42.493 9.03479 42.8183 8.77014 43.0104 8.41466C43.2024 8.05917 43.2453 7.64196 43.1298 7.25481ZM31.7678 12.2235L29.4416 8.67811C29.2199 8.34031 28.8731 8.1044 28.4775 8.02227C28.0819 7.94014 27.6699 8.01852 27.3321 8.24017C26.9943 8.46183 26.7584 8.8086 26.6763 9.2042C26.5941 9.5998 26.6725 10.0118 26.8942 10.3496L29.2206 13.8948C29.3302 14.0622 29.4717 14.2063 29.6371 14.3189C29.8025 14.4316 29.9884 14.5105 30.1843 14.5512C30.3802 14.5919 30.5823 14.5936 30.7788 14.5561C30.9754 14.5186 31.1626 14.4428 31.3298 14.3329C31.6676 14.1112 31.9035 13.7645 31.9857 13.3689C32.0678 12.9733 31.9894 12.5613 31.7678 12.2235ZM22.3052 20.2566L19.0627 17.5305C18.9096 17.4017 18.7326 17.3044 18.5419 17.244C18.3511 17.1836 18.1504 17.1614 17.9511 17.1786C17.7517 17.1958 17.5578 17.2522 17.3802 17.3444C17.2027 17.4366 17.045 17.5628 16.9163 17.716C16.7875 17.8691 16.6902 18.0461 16.6298 18.2368C16.5694 18.4275 16.5472 18.6283 16.5645 18.8276C16.5817 19.0269 16.6381 19.2209 16.7303 19.3985C16.8225 19.576 16.9488 19.7336 17.1019 19.8624L20.3442 22.5885C20.6182 22.8197 20.9653 22.9464 21.3239 22.946C21.6364 22.9462 21.9415 22.8502 22.1976 22.6711C22.4538 22.492 22.6486 22.2384 22.7558 21.9448C22.8629 21.6511 22.8772 21.3317 22.7965 21.0297C22.7159 20.7277 22.5444 20.4578 22.3052 20.2566ZM15.5366 30.6778L11.6513 29.0008C11.4672 28.9188 11.2687 28.8742 11.0672 28.8696C10.8658 28.8649 10.6654 28.9002 10.4777 28.9735C10.29 29.0468 10.1187 29.1566 9.97374 29.2966C9.82877 29.4365 9.71301 29.6039 9.63316 29.7889C9.5533 29.9739 9.51094 30.1729 9.50853 30.3744C9.50612 30.5759 9.54371 30.7758 9.61911 30.9627C9.69451 31.1495 9.80624 31.3196 9.94781 31.463C10.0894 31.6064 10.258 31.7202 10.4439 31.798L14.3293 33.475C14.5196 33.5574 14.7248 33.6 14.9321 33.6001C15.2827 33.6002 15.6226 33.4794 15.8944 33.258C16.1663 33.0367 16.3535 32.7284 16.4245 32.3851C16.4955 32.0418 16.446 31.6846 16.2842 31.3735C16.1225 31.0625 15.8585 30.8168 15.5366 30.6778ZM12.0329 42.6097L7.8315 42.1232C6.99544 42.026 6.23982 42.6258 6.14293 43.4614C6.11991 43.6602 6.13627 43.8615 6.19107 44.0539C6.24586 44.2463 6.33802 44.4261 6.46229 44.5829C6.58655 44.7397 6.74048 44.8705 6.91529 44.9678C7.0901 45.0651 7.28237 45.127 7.48111 45.15L11.6826 45.6365C12.0793 45.6738 12.4748 45.5542 12.7844 45.3033C13.094 45.0525 13.293 44.6904 13.3389 44.2946C13.3847 43.8988 13.2736 43.5007 13.0295 43.1858C12.7854 42.8709 12.4277 42.6641 12.0329 42.6097ZM13.8572 56.2813C13.822 56.0843 13.7483 55.8962 13.6404 55.7277C13.5325 55.5592 13.3925 55.4136 13.2283 55.2993C13.0641 55.1849 12.879 55.104 12.6836 55.0612C12.4881 55.0184 12.2862 55.0145 12.0892 55.0497L7.92535 55.7946C7.52764 55.8657 7.17449 56.0919 6.94358 56.4235C6.71266 56.755 6.62288 57.1647 6.694 57.5624C6.76521 57.9601 6.99146 58.3133 7.32301 58.5442C7.65455 58.7752 8.06425 58.865 8.462 58.7939L12.6259 58.0491C13.0236 57.9779 13.3767 57.7517 13.6076 57.4202C13.8386 57.0886 13.9283 56.679 13.8572 56.2813ZM17.7493 67.6199C17.5665 67.2596 17.2482 66.9866 16.8643 66.8609C16.4803 66.7353 16.0622 66.7671 15.7018 66.9496L11.9263 68.8628C11.5683 69.0468 11.2976 69.365 11.1734 69.7479C11.0493 70.1309 11.0817 70.5474 11.2637 70.9064C11.4456 71.2655 11.7623 71.538 12.1445 71.6643C12.5267 71.7906 12.9434 71.7606 13.3035 71.5806L17.079 69.6674C17.4394 69.4848 17.7125 69.1665 17.8382 68.7825C17.9639 68.3985 17.9319 67.9803 17.7493 67.6199ZM24.7201 77.3604C24.4416 77.0676 24.0583 76.8976 23.6544 76.8875C23.2505 76.8774 22.8591 77.0283 22.5664 77.3067L19.497 80.2275C19.352 80.3654 19.2357 80.5305 19.1545 80.7134C19.0734 80.8963 19.0291 81.0934 19.0241 81.2934C19.0192 81.4934 19.0537 81.6924 19.1256 81.8791C19.1976 82.0658 19.3056 82.2365 19.4436 82.3814C19.5857 82.5312 19.7569 82.6504 19.9467 82.7318C20.1364 82.8132 20.3408 82.855 20.5473 82.8547C20.9383 82.8551 21.3143 82.7048 21.5973 82.435L24.6667 79.5143C24.8117 79.3764 24.928 79.2113 25.0091 79.0284C25.0903 78.8455 25.1346 78.6484 25.1396 78.4484C25.1445 78.2484 25.11 78.0493 25.0381 77.8627C24.9661 77.676 24.8581 77.5053 24.7201 77.3604ZM41.8527 37.5887H37.9781C36.578 37.5887 35.439 38.7276 35.439 40.1277V44.0976C35.439 45.4978 36.578 46.6367 37.9781 46.6367H41.8527C43.2528 46.6367 44.3918 45.4978 44.3918 44.0976V40.1277C44.3918 38.7276 43.2528 37.5887 41.8527 37.5887ZM41.3449 43.5898H38.4859V40.6356H41.3449V43.5898ZM48.8024 25.9129H44.9278C43.5277 25.9129 42.3888 27.0518 42.3888 28.4519V32.4218C42.3888 33.8219 43.5277 34.9609 44.9278 34.9609H48.8024C50.2026 34.9609 51.3415 33.8219 51.3415 32.4218V28.4519C51.3415 27.0518 50.2026 25.9129 48.8024 25.9129ZM48.2946 31.914H45.4356V28.9597H48.2946V31.914Z" fill="#275023"/>
</svg>
