<svg width="104" height="104" viewBox="0 0 104 104" fill="none" xmlns="http://www.w3.org/2000/svg">
<g clip-path="url(#clip0_2206_14351)">
<path d="M84.3958 90.5806L80.5125 78.9293C79.8467 76.9324 78.6563 75.1513 77.066 73.7723C75.4757 72.3933 73.5439 71.4671 71.4729 71.0907L60.2627 69.051V68.1821C62.2136 67.0498 63.9111 65.5351 65.2631 63.7419H68.6498C71.4243 63.7419 73.6821 61.4841 73.6821 58.7097V38.5806C73.6821 26.5569 63.8994 16.7742 51.8756 16.7742C39.8519 16.7742 30.0692 26.5569 30.0692 38.5806V50.3226C30.0692 53.5566 32.3689 56.2623 35.4185 56.893C36.3595 61.7139 39.3722 65.7934 43.4885 68.1821V69.051L32.2767 71.0907C30.2059 71.4671 28.2743 72.3933 26.6843 73.7724C25.0943 75.1514 23.9042 76.9325 23.2387 78.9293L22.5678 80.9439L16.8545 75.2306C16.2003 74.5764 16.2003 73.5112 16.8545 72.857L23.4803 66.2329L11.0439 53.7965L3.5559 61.2845C1.33835 63.5021 0.117188 66.451 0.117188 69.5877C0.117188 72.7245 1.33835 75.6717 3.5559 77.8893L26.2262 100.56C28.4438 102.777 31.3927 104 34.5294 104C37.6662 104 40.6134 102.777 42.779 100.61L50.9497 93.1236L48.4017 90.5806H84.3958ZM70.3273 58.7097C70.3273 59.6356 69.5741 60.3871 68.6498 60.3871H67.2391C67.7309 59.2661 68.0977 58.0944 68.3328 56.893C69.0507 56.7437 69.7116 56.4586 70.3273 56.0996V58.7097ZM68.6498 53.2111V47.4341C69.6479 48.0161 70.3273 49.0863 70.3273 50.3226C70.3273 51.5588 69.6479 52.629 68.6498 53.2111ZM35.1014 53.2111C34.1034 52.629 33.424 51.5588 33.424 50.3226C33.424 49.0863 34.1034 48.0161 35.1014 47.4341V53.2111ZM35.1014 41.9355V43.8511C34.5132 44.0048 33.9488 44.2385 33.424 44.5455V38.5806C33.424 28.4071 41.7021 20.129 51.8756 20.129C62.0492 20.129 70.3273 28.4071 70.3273 38.5806V44.5455C69.8028 44.2378 69.2383 44.0041 68.6498 43.8511V41.9355H66.9724C62.0123 41.9355 57.3491 40.0031 53.8399 36.4956L51.8756 34.5314L49.9114 36.4956C46.4022 40.0031 41.739 41.9355 36.7789 41.9355H35.1014ZM38.4563 53.6774V45.2266C43.4936 44.8475 48.1903 42.7692 51.8756 39.265C55.5609 42.7692 60.2577 44.8492 65.295 45.2266V53.6774C65.295 56.1231 64.6274 58.4111 63.48 60.3871H51.8756V63.7419H60.7223C58.3572 65.8236 55.2657 67.0968 51.8756 67.0968C44.4765 67.0968 38.4563 61.0765 38.4563 53.6774ZM56.9079 69.6783V69.7572L51.8756 74.7894L46.8434 69.7572V69.6783C48.4336 70.1782 50.1227 70.4516 51.8756 70.4516C53.6285 70.4516 55.3177 70.1782 56.9079 69.6783ZM26.4191 79.9894C26.8947 78.563 27.7448 77.2905 28.8806 76.3052C30.0164 75.3199 31.3962 74.6579 32.8755 74.3885L44.6007 72.2582L51.8756 79.5332L59.1489 72.2599L70.8724 74.3902C72.3519 74.6593 73.7317 75.3211 74.8676 76.3065C76.0035 77.2919 76.8535 78.5645 77.3288 79.9911L79.7426 87.2258H45.0469L38.5133 80.6923L31.2534 87.2594C30.6211 87.8951 29.5156 87.8951 28.8816 87.2594L25.2181 83.5959L26.4191 79.9894ZM11.0422 58.5403L18.7349 66.2329L16.9132 68.0546L9.22054 60.3619L11.0422 58.5403ZM40.4558 98.1911C38.8723 99.7712 36.7654 100.645 34.5261 100.645C32.2867 100.645 30.1799 99.7712 28.5947 98.1877L5.92441 75.5191C4.34093 73.9356 3.46867 71.8288 3.46867 69.5894C3.46867 67.3484 4.34093 65.2415 5.92441 63.6581L6.84699 62.7355L14.5396 70.4281L14.4793 70.4885C12.5183 72.4511 12.5183 75.6432 14.4793 77.6058L26.508 89.6346C27.4591 90.584 28.7222 91.109 30.0675 91.109C31.4128 91.109 32.6759 90.5857 33.5649 89.6933L33.6907 89.5809L41.4186 97.3088L40.4558 98.1911ZM43.8945 95.0375L36.1834 87.3265L38.3993 85.3236L46.0969 93.0213L43.8945 95.0375ZM98.8434 0H75.3595C72.5851 0 70.3273 2.25781 70.3273 5.03226V18.4516C70.3273 21.2261 72.5851 23.4839 75.3595 23.4839H79.8399L78.1054 33.6004L94.2925 23.4839H98.8434C101.618 23.4839 103.876 21.2261 103.876 18.4516V5.03226C103.876 2.25781 101.618 0 98.8434 0ZM100.521 18.4516C100.521 19.3759 99.7676 20.129 98.8434 20.129H93.3297L82.6764 26.7867L83.8187 20.129H75.3595C74.4353 20.129 73.6821 19.3759 73.6821 18.4516V5.03226C73.6821 4.108 74.4353 3.35484 75.3595 3.35484H98.8434C99.7676 3.35484 100.521 4.108 100.521 5.03226V18.4516Z" fill="#275023"/>
<path d="M77.0386 6.70965H97.1676V10.0645H77.0386V6.70965ZM77.0386 13.4193H90.458V16.7742H77.0386V13.4193ZM93.8128 13.4193H97.1676V16.7742H93.8128V13.4193ZM51.8773 5.03223C29.9602 5.03223 11.0808 20.1927 6.17267 41.34L2.99396 36.041L0.117188 37.7671L6.01332 47.5917L15.838 41.6956L14.1119 38.8188L9.56609 41.5463C14.3199 22.2006 31.7164 8.38707 51.8773 8.38707C56.2839 8.38707 60.6318 9.04126 64.8002 10.3329L65.7932 7.129C61.3027 5.73674 56.6211 5.03223 51.8773 5.03223ZM103.062 37.1414L93.2374 31.2453L87.343 41.0716L90.2198 42.7976L93.1553 37.9046C94.7002 42.4253 95.4902 47.1539 95.4902 52C95.4902 61.9756 92.0347 71.7281 85.7629 79.4593L88.3679 81.5729C95.1245 73.2462 98.8451 62.7422 98.8451 52C98.8451 46.8687 98.0181 41.8583 96.4061 37.0609L101.336 40.0182L103.062 37.1414Z" fill="#275023"/>
</g>
<defs>
<clipPath id="clip0_2206_14351">
<rect width="104" height="104" fill="white"/>
</clipPath>
</defs>
</svg>
