<svg width="104" height="104" viewBox="0 0 104 104" fill="none" xmlns="http://www.w3.org/2000/svg">
<g clip-path="url(#clip0_2206_14383)">
<path d="M42.25 82.875H47.125V86.125H42.25V82.875Z" fill="#275023"/>
<path d="M95.875 0H8.125C3.64488 0 0 3.64488 0 8.125V78C0 82.4801 3.64488 86.125 8.125 86.125H16.25V82.875H8.125C5.43725 82.875 3.25 80.6878 3.25 78V16.25H100.75V78C100.75 80.6878 98.5628 82.875 95.875 82.875V86.125C100.355 86.125 104 82.4801 104 78V8.125C104 3.64488 100.355 0 95.875 0ZM100.75 13H3.25V8.125C3.25 5.43725 5.43725 3.25 8.125 3.25H95.875C98.5628 3.25 100.75 5.43725 100.75 8.125V13Z" fill="#275023"/>
<path d="M8.125 9.75C9.02246 9.75 9.75 9.02246 9.75 8.125C9.75 7.22754 9.02246 6.5 8.125 6.5C7.22754 6.5 6.5 7.22754 6.5 8.125C6.5 9.02246 7.22754 9.75 8.125 9.75Z" fill="#275023"/>
<path d="M14.625 9.75C15.5225 9.75 16.25 9.02246 16.25 8.125C16.25 7.22754 15.5225 6.5 14.625 6.5C13.7275 6.5 13 7.22754 13 8.125C13 9.02246 13.7275 9.75 14.625 9.75Z" fill="#275023"/>
<path d="M21.125 9.75C22.0225 9.75 22.75 9.02246 22.75 8.125C22.75 7.22754 22.0225 6.5 21.125 6.5C20.2275 6.5 19.5 7.22754 19.5 8.125C19.5 9.02246 20.2275 9.75 21.125 9.75Z" fill="#275023"/>
<path d="M84.5 65H74.75V58.5C74.75 57.603 74.022 56.875 73.125 56.875H52.0991C53.0709 54.3481 53.625 51.6149 53.625 48.75C53.625 47.853 52.897 47.125 52 47.125H32.5V27.625C32.5 26.728 31.772 26 30.875 26C18.33 26 8.125 36.205 8.125 48.75C8.125 61.295 18.33 71.5 30.875 71.5C39.273 71.5 46.6066 66.9126 50.5473 60.125H71.5V65H58.5C54.0199 65 50.375 68.6449 50.375 73.125V89.375C50.375 93.8551 54.0199 97.5 58.5 97.5H84.5C88.9801 97.5 92.625 93.8551 92.625 89.375V73.125C92.625 68.6449 88.9801 65 84.5 65ZM11.375 48.75C11.375 38.545 19.2562 30.1454 29.25 29.3182V48.425L21.9083 66.0465C15.6585 62.7949 11.375 56.2689 11.375 48.75ZM48.5794 56.875H41.9494C41.2766 54.9884 39.4891 53.625 37.3734 53.625C34.6856 53.625 32.4984 55.8123 32.4984 58.5C32.4984 61.1878 34.6856 63.375 37.3734 63.375C39.4891 63.375 41.2766 62.0116 41.9494 60.125H46.6879C43.1438 65.0374 37.3815 68.25 30.875 68.25C28.7917 68.25 26.7865 67.9136 24.9031 67.3059L31.9589 50.375H50.3068C50.115 52.6809 49.5056 54.8649 48.5794 56.875ZM39 58.5C39 59.3954 38.2704 60.125 37.375 60.125C36.4796 60.125 35.75 59.3954 35.75 58.5C35.75 57.6046 36.4796 56.875 37.375 56.875C38.2704 56.875 39 57.6046 39 58.5ZM89.375 89.375C89.375 92.0628 87.1878 94.25 84.5 94.25H58.5C55.8122 94.25 53.625 92.0628 53.625 89.375V73.125C53.625 70.4372 55.8122 68.25 58.5 68.25H84.5C87.1878 68.25 89.375 70.4372 89.375 73.125V89.375Z" fill="#275023"/>
<path d="M60.125 19.5C59.6944 19.5 59.28 19.6706 58.9761 19.9761L53.1018 25.8505C49.0116 21.9277 43.4769 19.5 37.375 19.5C36.478 19.5 35.75 20.228 35.75 21.125V42.25C35.75 43.147 36.478 43.875 37.375 43.875H58.5C59.397 43.875 60.125 43.147 60.125 42.25C60.125 36.9769 58.305 32.1279 55.2825 28.2652L60.7978 22.75H68.25V19.5H60.125ZM56.8068 40.625H39V22.8182C43.5614 23.1969 47.6726 25.1631 50.8056 28.1466L47.6011 31.3511L49.8989 33.6489L52.9669 30.5809C55.107 33.4311 56.4964 36.8745 56.8068 40.625ZM71.5 19.5H97.5V22.75H71.5V19.5ZM71.5 26H97.5V29.25H71.5V26ZM71.5 32.5H97.5V35.75H71.5V32.5ZM39 100.75V84.5C39 83.603 38.272 82.875 37.375 82.875H30.875V78C30.875 77.103 30.147 76.375 29.25 76.375H21.125C20.228 76.375 19.5 77.103 19.5 78V91H13C12.103 91 11.375 91.728 11.375 92.625V100.75H3.25V104H45.5V100.75H39ZM19.5 100.75H14.625V94.25H19.5V100.75ZM27.625 84.5V100.75H22.75V79.625H27.625V84.5ZM35.75 100.75H30.875V86.125H35.75V100.75ZM82.9595 74.2349L79.2025 85.5091L71.2709 72.2881C70.9573 71.7649 70.3934 71.461 69.7677 71.5033C69.1584 71.5439 68.6254 71.9225 68.3849 72.4847L64.4556 81.6546L61.2771 78.4761C61.0868 78.2862 60.8523 78.1464 60.5947 78.0693C60.3371 77.9921 60.0644 77.9801 59.801 78.0342C59.5376 78.0883 59.2918 78.2068 59.0854 78.3792C58.8791 78.5517 58.7187 78.7725 58.6186 79.0221L55.3686 87.1471L58.3846 88.3545L60.7198 82.5175L63.8527 85.6505C64.0403 85.8385 64.2712 85.9775 64.525 86.0555C64.7789 86.1334 65.048 86.1478 65.3087 86.0974C65.5697 86.0476 65.8144 85.9344 66.0212 85.7678C66.2281 85.6012 66.3908 85.3862 66.495 85.1419L70.1188 76.687L78.234 90.2119C78.3933 90.4783 78.6257 90.6933 78.9038 90.8313C79.1818 90.9693 79.4936 91.0245 79.8021 90.9902C80.1111 90.9562 80.4039 90.8343 80.6458 90.639C80.8877 90.4438 81.0686 90.1833 81.1671 89.8885L86.0421 75.2635L82.9595 74.2349ZM95.875 42.25H79.625C78.728 42.25 78 42.978 78 43.875V56.875C78 57.772 78.728 58.5 79.625 58.5H95.875C96.772 58.5 97.5 57.772 97.5 56.875V43.875C97.5 42.978 96.772 42.25 95.875 42.25ZM91.2421 45.5L87.75 48.295L84.2562 45.5H91.2421ZM81.25 47.255L85.15 50.375L81.25 53.495V47.255ZM84.2562 55.25L87.75 52.455L91.2438 55.25H84.2562ZM94.25 53.4934L90.35 50.375L94.25 47.255V53.4934Z" fill="#275023"/>
</g>
<defs>
<clipPath id="clip0_2206_14383">
<rect width="104" height="104" fill="white"/>
</clipPath>
</defs>
</svg>
