<svg width="64" height="64" viewBox="0 0 64 64" fill="none" xmlns="http://www.w3.org/2000/svg">
<path fill-rule="evenodd" clip-rule="evenodd" d="M16.4021 0H37.7994L55.9343 18.9026V55.6682C55.9343 60.2739 52.2082 64 47.6185 64H16.4021C11.7964 64 8.07031 60.2739 8.07031 55.6682V8.3318C8.07023 3.72612 11.7964 0 16.4021 0Z" fill="#E5252A"/>
<path opacity="0.302" fill-rule="evenodd" clip-rule="evenodd" d="M37.7812 0V18.7586H55.9322L37.7812 0Z" fill="white"/>
<path d="M17.3281 47.7521V36.062H22.3017C23.533 36.062 24.5086 36.3978 25.2442 37.0854C25.9798 37.7571 26.3477 38.6687 26.3477 39.8041C26.3477 40.9395 25.9798 41.8511 25.2442 42.5227C24.5086 43.2104 23.533 43.5462 22.3017 43.5462H20.3186V47.7521H17.3281ZM20.3186 41.0035H21.9658C22.4136 41.0035 22.7654 40.9076 23.0053 40.6837C23.2452 40.4758 23.3732 40.1879 23.3732 39.8042C23.3732 39.4204 23.2453 39.1325 23.0053 38.9246C22.7655 38.7007 22.4137 38.6048 21.9658 38.6048H20.3186V41.0035ZM27.579 47.7521V36.062H31.7209C32.5365 36.062 33.3041 36.1739 34.0238 36.4138C34.7434 36.6536 35.3991 36.9895 35.9748 37.4533C36.5505 37.901 37.0143 38.5087 37.3501 39.2764C37.6699 40.044 37.8459 40.9236 37.8459 41.915C37.8459 42.8906 37.67 43.7701 37.3501 44.5377C37.0143 45.3053 36.5505 45.913 35.9748 46.3608C35.399 46.8245 34.7434 47.1603 34.0238 47.4003C33.3041 47.6401 32.5365 47.7521 31.7209 47.7521H27.579ZM30.5055 45.2094H31.3691C31.8328 45.2094 32.2646 45.1615 32.6644 45.0495C33.0482 44.9376 33.4161 44.7616 33.7679 44.5218C34.1037 44.2819 34.3756 43.946 34.5675 43.4983C34.7594 43.0505 34.8554 42.5227 34.8554 41.915C34.8554 41.2913 34.7594 40.7636 34.5675 40.3159C34.3756 39.8681 34.1037 39.5323 33.7679 39.2924C33.4161 39.0525 33.0483 38.8766 32.6644 38.7647C32.2646 38.6527 31.8328 38.6047 31.3691 38.6047H30.5055V45.2094ZM39.3491 47.7521V36.062H47.665V38.6047H42.3396V40.4757H46.5935V43.0025H42.3396V47.7521H39.3491Z" fill="white"/>
</svg>
