<svg width="499" height="499" viewBox="0 0 499 499" fill="none" xmlns="http://www.w3.org/2000/svg">
<path fill-rule="evenodd" clip-rule="evenodd" d="M249.5 350.488C305.274 350.488 350.488 305.274 350.488 249.5C350.488 193.726 305.274 148.512 249.5 148.512C193.726 148.512 148.512 193.726 148.512 249.5C148.512 305.274 193.726 350.488 249.5 350.488ZM499 249.5C499 387.295 387.295 499 249.5 499C111.705 499 0 387.295 0 249.5C0 111.705 111.705 0 249.5 0C387.295 0 499 111.705 499 249.5ZM380.19 249.5C380.19 321.678 321.678 380.19 249.5 380.19C177.322 380.19 118.81 321.678 118.81 249.5C118.81 177.322 177.322 118.81 249.5 118.81C321.678 118.81 380.19 177.322 380.19 249.5ZM469.298 249.5C469.298 370.891 370.891 469.298 249.5 469.298C128.109 469.298 29.7024 370.891 29.7024 249.5C29.7024 128.109 128.109 29.7024 249.5 29.7024C370.891 29.7024 469.298 128.109 469.298 249.5Z" fill="#EBF7F5"/>
</svg>
