<svg width="384" height="302" viewBox="0 0 384 302" fill="none" xmlns="http://www.w3.org/2000/svg">
<path fill-rule="evenodd" clip-rule="evenodd" d="M383.535 301.834L383.535 266.764C383.535 169.006 304.287 89.7573 206.529 89.7573C108.771 89.7573 29.5221 169.006 29.5221 266.764L29.5221 301.834L109.522 301.834L109.522 266.764C109.522 213.189 152.953 169.757 206.529 169.757C260.104 169.757 303.535 213.189 303.535 266.764L303.535 301.834L383.535 301.834Z" fill="#708372"/>
<mask id="path-2-inside-1_1042_12912" fill="white">
<path fill-rule="evenodd" clip-rule="evenodd" d="M0.188909 56.3989C0.887474 57.8976 1.65738 59.3786 2.49975 60.8376L13.696 80.23C29.3002 107.257 63.8599 116.518 90.8872 100.913C117.915 85.3091 127.175 50.7494 111.571 23.7221L100.374 4.32972C99.532 2.87069 98.6344 1.46344 97.6857 0.109085L69.7198 16.2552C70.8166 17.4857 71.8049 18.846 72.6615 20.3297L83.8577 39.7221C90.6254 51.4441 86.6092 66.4329 74.8872 73.2005C63.1652 79.9682 48.1764 75.952 41.4088 64.23L30.2126 44.8376C29.3559 43.3539 28.6721 41.8179 28.1548 40.2528L0.188909 56.3989Z"/>
</mask>
<path d="M0.188909 56.3989L-0.811091 54.6668L-2.39795 55.583L-1.62385 57.2438L0.188909 56.3989ZM111.571 23.7221L113.303 22.7221L111.571 23.7221ZM100.374 4.32972L98.6423 5.32972L100.374 4.32972ZM97.6857 0.109085L99.3238 -1.03835L98.2725 -2.53914L96.6857 -1.62297L97.6857 0.109085ZM69.7198 16.2552L68.7198 14.5231L66.5919 15.7517L68.2267 17.5859L69.7198 16.2552ZM28.1548 40.2528L30.0537 39.6251L29.2826 37.2922L27.1548 38.5207L28.1548 40.2528ZM-1.62385 57.2438C-0.90069 58.7953 -0.103857 60.328 0.767701 61.8376L4.2318 59.8376C3.41862 58.4292 2.67564 56.9999 2.00167 55.5539L-1.62385 57.2438ZM0.767701 61.8376L11.9639 81.23L15.428 79.23L4.2318 59.8376L0.767701 61.8376ZM11.9639 81.23C28.1204 109.214 63.9033 118.802 91.8872 102.645L89.8872 99.1813C63.8165 114.233 30.48 105.301 15.428 79.23L11.9639 81.23ZM91.8872 102.645C119.871 86.4889 129.459 50.706 113.303 22.7221L109.838 24.7221C124.89 50.7928 115.958 84.1294 89.8872 99.1813L91.8872 102.645ZM113.303 22.7221L102.106 3.32972L98.6423 5.32972L109.838 24.7221L113.303 22.7221ZM102.106 3.32972C101.235 1.82013 100.306 0.363695 99.3238 -1.03835L96.0476 1.25652C96.9628 2.56319 97.8291 3.92125 98.6423 5.32972L102.106 3.32972ZM96.6857 -1.62297L68.7198 14.5231L70.7198 17.9872L98.6857 1.84114L96.6857 -1.62297ZM74.3936 19.3297C73.4684 17.7272 72.3998 16.2562 71.2129 14.9245L68.2267 17.5859C69.2333 18.7153 70.1414 19.9648 70.9295 21.3297L74.3936 19.3297ZM85.5898 38.7221L74.3936 19.3297L70.9295 21.3297L82.1257 40.7221L85.5898 38.7221ZM75.8872 74.9326C88.5657 67.6126 92.9097 51.4006 85.5898 38.7221L82.1257 40.7221C88.3411 51.4875 84.6526 65.2531 73.8872 71.4685L75.8872 74.9326ZM39.6767 65.23C46.9967 77.9086 63.2087 82.2525 75.8872 74.9326L73.8872 71.4685C63.1218 77.6839 49.3562 73.9954 43.1408 63.23L39.6767 65.23ZM28.4805 45.8376L39.6767 65.23L43.1408 63.23L31.9446 43.8376L28.4805 45.8376ZM26.2558 40.8804C26.8157 42.5743 27.5553 44.2351 28.4805 45.8376L31.9446 43.8376C31.1566 42.4727 30.5285 41.0615 30.0537 39.6251L26.2558 40.8804ZM27.1548 38.5207L-0.811091 54.6668L1.18891 58.1309L29.1548 41.9848L27.1548 38.5207Z" fill="#04AD6C" mask="url(#path-2-inside-1_1042_12912)"/>
</svg>
