<svg width="500" height="499" viewBox="0 0 500 499" fill="none" xmlns="http://www.w3.org/2000/svg">
<path fill-rule="evenodd" clip-rule="evenodd" d="M250 350.488C305.774 350.488 350.988 305.274 350.988 249.5C350.988 193.726 305.774 148.512 250 148.512C194.226 148.512 149.012 193.726 149.012 249.5C149.012 305.274 194.226 350.488 250 350.488ZM499.5 249.5C499.5 387.295 387.795 499 250 499C112.205 499 0.5 387.295 0.5 249.5C0.5 111.705 112.205 0 250 0C387.795 0 499.5 111.705 499.5 249.5ZM380.69 249.5C380.69 321.678 322.178 380.19 250 380.19C177.822 380.19 119.31 321.678 119.31 249.5C119.31 177.322 177.822 118.81 250 118.81C322.178 118.81 380.69 177.322 380.69 249.5ZM469.798 249.5C469.798 370.891 371.391 469.298 250 469.298C128.609 469.298 30.2024 370.891 30.2024 249.5C30.2024 128.109 128.609 29.7024 250 29.7024C371.391 29.7024 469.798 128.109 469.798 249.5Z" fill="#2B382B"/>
</svg>
