<svg width="838" height="838" viewBox="0 0 838 838" fill="none" xmlns="http://www.w3.org/2000/svg">
<path fill-rule="evenodd" clip-rule="evenodd" d="M419 823.201C642.234 823.201 823.201 642.234 823.201 419C823.201 195.766 642.234 14.7991 419 14.7991C195.766 14.7991 14.7991 195.766 14.7991 419C14.7991 642.234 195.766 823.201 419 823.201ZM419 769.176C225.603 769.176 68.8245 612.397 68.8245 419C68.8245 225.603 225.603 68.8245 419 68.8245C612.397 68.8245 769.176 225.603 769.176 419C769.176 612.397 612.397 769.176 419 769.176ZM419 838C650.407 838 838 650.407 838 419C838 187.593 650.407 0 419 0C187.593 0 0 187.593 0 419C0 650.407 187.593 838 419 838ZM419 754.376C233.777 754.376 83.6236 604.223 83.6236 419C83.6236 233.777 233.777 83.6236 419 83.6236C604.223 83.6236 754.376 233.777 754.376 419C754.376 604.223 604.223 754.376 419 754.376Z" fill="#13B177" fill-opacity="0.1"/>
</svg>
