<svg width="32" height="32" viewBox="0 0 32 32" fill="none" xmlns="http://www.w3.org/2000/svg">
<path fill-rule="evenodd" clip-rule="evenodd" d="M21.9134 1.33325C26.7494 1.33325 29.9987 4.72792 29.9987 9.77992V21.5533C29.9987 26.6053 26.7494 29.9999 21.9134 29.9999H9.41736C4.58136 29.9999 1.33203 26.6053 1.33203 21.5533V9.77992C1.33203 4.72792 4.58136 1.33325 9.41736 1.33325H21.9134ZM21.9134 3.33325H9.41736C5.72136 3.33325 3.33203 5.86259 3.33203 9.77992V21.5533C3.33203 25.4706 5.72136 27.9999 9.41736 27.9999H21.9134C25.6107 27.9999 27.9987 25.4706 27.9987 21.5533V9.77992C27.9987 5.86259 25.6107 3.33325 21.9134 3.33325ZM9.4935 12.2699C10.0455 12.2699 10.4935 12.7179 10.4935 13.2699V22.4166C10.4935 22.9686 10.0455 23.4166 9.4935 23.4166C8.9415 23.4166 8.4935 22.9686 8.4935 22.4166V13.2699C8.4935 12.7179 8.9415 12.2699 9.4935 12.2699ZM15.7162 7.89125C16.2682 7.89125 16.7162 8.33925 16.7162 8.89125V22.4153C16.7162 22.9673 16.2682 23.4153 15.7162 23.4153C15.1642 23.4153 14.7162 22.9673 14.7162 22.4153V8.89125C14.7162 8.33925 15.1642 7.89125 15.7162 7.89125ZM21.8366 17.1033C22.3886 17.1033 22.8366 17.5513 22.8366 18.1033V22.4153C22.8366 22.9673 22.3886 23.4153 21.8366 23.4153C21.2846 23.4153 20.8366 22.9673 20.8366 22.4153V18.1033C20.8366 17.5513 21.2846 17.1033 21.8366 17.1033Z" fill="white"/>
</svg>
