<svg width="32" height="32" viewBox="0 0 32 32" fill="none" xmlns="http://www.w3.org/2000/svg">
<path fill-rule="evenodd" clip-rule="evenodd" d="M15.8475 19.2186L15.9981 19.2186L16.3348 19.2198C18.909 19.2367 24.7915 19.4968 24.7915 23.4839C24.7915 27.4449 19.114 27.7032 16.375 27.7201L15.3601 27.7201C12.7859 27.7031 6.90216 27.4434 6.90216 23.4613C6.90216 19.4953 12.7859 19.2366 15.3601 19.2198L15.6969 19.2186C15.7492 19.2186 15.7994 19.2186 15.8475 19.2186ZM15.8475 21.2186C12.6795 21.2186 8.90216 21.6079 8.90216 23.4613C8.90216 25.2726 12.454 25.6961 15.5579 25.7201L15.8475 25.7213C19.0155 25.7213 22.7915 25.3333 22.7915 23.4839C22.7915 21.6119 19.0155 21.2186 15.8475 21.2186ZM26.4523 18.6775C29.683 19.1615 30.3616 20.6789 30.3616 21.8669C30.3616 22.5922 30.0763 23.9162 28.1696 24.6429C28.0523 24.6869 27.9323 24.7082 27.8136 24.7082C27.411 24.7082 27.031 24.4629 26.879 24.0642C26.6816 23.5482 26.9416 22.9695 27.4576 22.7735C28.3616 22.4295 28.3616 22.0495 28.3616 21.8669C28.3616 21.2829 27.619 20.8749 26.155 20.6562C25.6096 20.5735 25.2323 20.0655 25.3136 19.5175C25.395 18.9709 25.9016 18.6069 26.4523 18.6775ZM6.38003 19.5175C6.46136 20.0655 6.08403 20.5735 5.5387 20.6562C4.0747 20.8749 3.33203 21.2829 3.33203 21.8669C3.33203 22.0495 3.33203 22.4282 4.23736 22.7735C4.75336 22.9695 5.01336 23.5482 4.81603 24.0642C4.66403 24.4629 4.28403 24.7082 3.88136 24.7082C3.7627 24.7082 3.6427 24.6869 3.52536 24.6429C1.61736 23.9149 1.33203 22.5909 1.33203 21.8669C1.33203 20.6802 2.0107 19.1615 5.2427 18.6775C5.79337 18.6082 6.29736 18.9709 6.38003 19.5175ZM15.8475 5.33325C19.2075 5.33325 21.9395 8.06659 21.9395 11.4253C21.9395 14.7839 19.2075 17.5173 15.8475 17.5173H15.8115C14.1848 17.5119 12.6608 16.8746 11.5195 15.7226C10.3755 14.5719 9.75016 13.0439 9.75678 11.4213C9.75678 8.06659 12.4888 5.33325 15.8475 5.33325ZM15.8475 7.33325C13.5915 7.33325 11.7568 9.16925 11.7568 11.4253C11.7528 12.5186 12.1715 13.5413 12.9382 14.3133C13.7048 15.0853 14.7262 15.5133 15.8142 15.5173L15.8475 16.5173V15.5173C18.1035 15.5173 19.9395 13.6826 19.9395 11.4253C19.9395 9.16925 18.1035 7.33325 15.8475 7.33325ZM24.0995 6.63925C26.4435 7.02459 28.1462 9.02992 28.1462 11.4073C28.1408 13.8006 26.3528 15.8539 23.9862 16.1859C23.9395 16.1926 23.8928 16.1953 23.8475 16.1953C23.3568 16.1953 22.9288 15.8339 22.8582 15.3339C22.7822 14.7859 23.1622 14.2806 23.7102 14.2046C25.0968 14.0099 26.1435 12.8073 26.1462 11.4046C26.1462 10.0139 25.1488 8.83792 23.7742 8.61259C23.2302 8.52325 22.8608 8.00859 22.9502 7.46325C23.0408 6.91792 23.5515 6.55259 24.0995 6.63925ZM8.74483 7.46325C8.83416 8.00859 8.46483 8.52325 7.92083 8.61259C6.54616 8.83792 5.54883 10.0139 5.54883 11.4073C5.5515 12.8073 6.59816 14.0113 7.9835 14.2046C8.5315 14.2806 8.9115 14.7859 8.8355 15.3339C8.76483 15.8339 8.33683 16.1953 7.84616 16.1953C7.80083 16.1953 7.75416 16.1926 7.7075 16.1859C5.34083 15.8539 3.55416 13.8006 3.54883 11.4099C3.54883 9.02992 5.2515 7.02459 7.5955 6.63925C8.15683 6.55125 8.65416 6.92059 8.74483 7.46325Z" fill="white"/>
</svg>
