<svg width="64" height="64" viewBox="0 0 64 64" fill="none" xmlns="http://www.w3.org/2000/svg">
<path d="M18.6667 22.6667H32M18.6667 32H40M25.8233 48H43.2C47.6804 48 49.9206 48 51.6319 47.128C53.1372 46.3611 54.3611 45.1372 55.1281 43.6319C56 41.9206 56 39.6804 56 35.2V20.8C56 16.3196 56 14.0794 55.1281 12.3681C54.3611 10.8628 53.1372 9.63893 51.6319 8.87195C49.9206 8 47.6804 8 43.2 8H20.8C16.3196 8 14.0794 8 12.3681 8.87195C10.8628 9.63893 9.63893 10.8628 8.87195 12.3681C8 14.0794 8 16.3196 8 20.8V54.228C8 55.6489 8 56.3594 8.29128 56.7243C8.54459 57.0417 8.92872 57.2263 9.33477 57.2258C9.80167 57.2253 10.3565 56.7815 11.466 55.8939L17.8272 50.8049C19.1267 49.7653 19.7765 49.2455 20.5 48.8759C21.1419 48.5479 21.8251 48.3083 22.5312 48.1633C23.3271 48 24.1592 48 25.8233 48Z" stroke="#04AD6C" stroke-width="6.66667" stroke-linecap="round" stroke-linejoin="round"/>
</svg>
