<svg width="64" height="64" viewBox="0 0 64 64" fill="none" xmlns="http://www.w3.org/2000/svg">
<path d="M14.1767 51.8359C15.7989 48.014 19.5864 45.3335 23.9999 45.3335H39.9999C44.4135 45.3335 48.2009 48.014 49.8231 51.8359M42.6666 25.3335C42.6666 31.2245 37.891 36.0002 31.9999 36.0002C26.1089 36.0002 21.3333 31.2245 21.3333 25.3335C21.3333 19.4425 26.1089 14.6668 31.9999 14.6668C37.891 14.6668 42.6666 19.4425 42.6666 25.3335ZM58.6666 32.0002C58.6666 46.7278 46.7275 58.6668 31.9999 58.6668C17.2723 58.6668 5.33325 46.7278 5.33325 32.0002C5.33325 17.2726 17.2723 5.3335 31.9999 5.3335C46.7275 5.3335 58.6666 17.2726 58.6666 32.0002Z" stroke="#04AD6C" stroke-width="6.66667" stroke-linecap="round" stroke-linejoin="round"/>
</svg>
