<svg width="64" height="64" viewBox="0 0 64 64" fill="none" xmlns="http://www.w3.org/2000/svg">
<path d="M24.2399 24C24.8669 22.2178 26.1043 20.715 27.7331 19.7577C29.3619 18.8005 31.277 18.4505 33.139 18.7699C35.0011 19.0893 36.6901 20.0574 37.9068 21.5028C39.1235 22.9481 39.7894 24.7774 39.7866 26.6667C39.7866 32 31.7866 34.6667 31.7866 34.6667M32 45.3334H32.0267M8 21.1772V42.8229C8 43.7366 8 44.1934 8.13463 44.6009C8.25373 44.9614 8.44842 45.2923 8.70569 45.5714C8.99649 45.887 9.39586 46.1089 10.1946 46.5526L29.9279 57.5156C30.6842 57.9357 31.0623 58.1458 31.4628 58.2282C31.8172 58.3011 32.1828 58.3011 32.5372 58.2282C32.9377 58.1458 33.3158 57.9357 34.0721 57.5156L53.8054 46.5526C54.6041 46.1089 55.0035 45.887 55.2943 45.5714C55.5516 45.2923 55.7463 44.9614 55.8654 44.6009C56 44.1934 56 43.7366 56 42.8229V21.1773C56 20.2635 56 19.8067 55.8654 19.3992C55.7463 19.0387 55.5516 18.7079 55.2943 18.4287C55.0035 18.1131 54.6041 17.8912 53.8054 17.4475L34.0721 6.48455C33.3158 6.06439 32.9377 5.85432 32.5372 5.77196C32.1828 5.69906 31.8172 5.69906 31.4628 5.77196C31.0623 5.85432 30.6842 6.06439 29.9279 6.48455L10.1946 17.4475C9.39586 17.8913 8.99649 18.1131 8.70569 18.4287C8.44842 18.7079 8.25373 19.0387 8.13463 19.3992C8 19.8067 8 20.2635 8 21.1772Z" stroke="#04AD6C" stroke-width="5.33333" stroke-linecap="round" stroke-linejoin="round"/>
</svg>
