<svg width="24" height="24" viewBox="0 0 24 24" fill="none" xmlns="http://www.w3.org/2000/svg">
<path fill-rule="evenodd" clip-rule="evenodd" d="M11.8333 7.00002C11.7727 7.00002 11.6233 7.01669 11.544 7.17536L10.3267 9.60936C10.134 9.99402 9.76265 10.2614 9.33332 10.3227L6.60798 10.7154C6.42798 10.7414 6.36665 10.8747 6.34798 10.9307C6.33132 10.9847 6.30465 11.122 6.42865 11.2407L8.39932 13.134C8.71332 13.436 8.85598 13.8714 8.78132 14.2974L8.31732 16.9707C8.28865 17.138 8.39332 17.2354 8.43998 17.2687C8.48932 17.306 8.62132 17.38 8.78465 17.2947L11.2213 16.0314C11.6053 15.8334 12.0627 15.8334 12.4453 16.0314L14.8813 17.294C15.0453 17.3787 15.1773 17.3047 15.2273 17.2687C15.274 17.2354 15.3787 17.138 15.35 16.9707L14.8847 14.2974C14.81 13.8714 14.9527 13.436 15.2667 13.134L17.2373 11.2407C17.362 11.122 17.3353 10.984 17.318 10.9307C17.3 10.8747 17.2387 10.7414 17.0587 10.7154L14.3333 10.3227C13.9047 10.2614 13.5333 9.99402 13.3407 9.60869L12.122 7.17536C12.0433 7.01669 11.894 7.00002 11.8333 7.00002ZM8.63132 18.3334C8.35598 18.3334 8.08265 18.2467 7.84865 18.076C7.44465 17.78 7.24665 17.2914 7.33265 16.7994L7.79665 14.126C7.81398 14.0267 7.77998 13.926 7.70665 13.8554L5.73598 11.962C5.37332 11.6147 5.24332 11.1014 5.39665 10.6247C5.55132 10.1427 5.96065 9.79802 6.46532 9.72602L9.19065 9.33336C9.29598 9.31869 9.38665 9.25402 9.43198 9.16202L10.65 6.72736C10.8747 6.27869 11.328 6.00002 11.8333 6.00002C12.3387 6.00002 12.792 6.27869 13.0167 6.72736L14.2353 9.16136C14.2813 9.25402 14.3713 9.31869 14.476 9.33336L17.2013 9.72602C17.706 9.79802 18.1153 10.1427 18.27 10.6247C18.4233 11.1014 18.2927 11.6147 17.93 11.962L15.9593 13.8554C15.886 13.926 15.8527 14.0267 15.87 14.1254L16.3347 16.7994C16.42 17.292 16.222 17.7807 15.8173 18.076C15.4073 18.3767 14.8733 18.4174 14.4207 18.1814L11.9853 16.9194C11.89 16.87 11.776 16.87 11.6807 16.9194L9.24532 18.182C9.05065 18.2834 8.84065 18.3334 8.63132 18.3334Z" fill="#232D50"/>
</svg>
