<svg width="24" height="24" viewBox="0 0 24 24" fill="none" xmlns="http://www.w3.org/2000/svg">
<path fill-rule="evenodd" clip-rule="evenodd" d="M15.0973 5.5C17.3019 5.5 19.0953 7.29333 19.0953 9.49867V14.2833C19.0953 16.488 17.3019 18.282 15.0973 18.282H9.3346C7.12994 18.282 5.33594 16.488 5.33594 14.2833V9.49867C5.33594 7.29333 7.12994 5.5 9.3346 5.5H15.0973ZM15.0973 6.5H9.3346C7.68127 6.5 6.33594 7.84533 6.33594 9.49867V14.2833C6.33594 15.9367 7.68127 17.282 9.3346 17.282H15.0973C16.7506 17.282 18.0953 15.9367 18.0953 14.2833V14.0967L15.8967 14.0971C14.632 14.0971 13.6027 13.0684 13.602 11.8044C13.602 10.5391 14.6313 9.50973 15.8967 9.50907L18.0953 9.50867V9.49867C18.0953 7.84533 16.7506 6.5 15.0973 6.5ZM18.0953 10.5087L15.8967 10.5091C15.1827 10.5097 14.602 11.0904 14.602 11.8037C14.602 12.5164 15.1833 13.0971 15.8967 13.0971L18.0953 13.0967V10.5087ZM16.2017 11.2624C16.4777 11.2624 16.7017 11.4864 16.7017 11.7624C16.7017 12.0384 16.4777 12.2624 16.2017 12.2624H15.9937C15.7177 12.2624 15.4937 12.0384 15.4937 11.7624C15.4937 11.4864 15.7177 11.2624 15.9937 11.2624H16.2017ZM12.4593 8.5254C12.7353 8.5254 12.9593 8.7494 12.9593 9.0254C12.9593 9.3014 12.7353 9.5254 12.4593 9.5254H8.85994C8.58394 9.5254 8.35994 9.3014 8.35994 9.0254C8.35994 8.7494 8.58394 8.5254 8.85994 8.5254H12.4593Z" fill="#232D50"/>
</svg>
