<svg width="24" height="24" viewBox="0 0 24 24" fill="none" xmlns="http://www.w3.org/2000/svg">
<path fill-rule="evenodd" clip-rule="evenodd" d="M10.8828 17.404C11.2282 17.7887 11.6715 18 12.1315 18H12.1322C12.5942 18 13.0395 17.7887 13.3855 17.4033C13.5708 17.1987 13.8868 17.182 14.0915 17.3667C14.2968 17.5513 14.3135 17.868 14.1288 18.0727C13.5902 18.6707 12.8815 19 12.1322 19H12.1308C11.3835 18.9993 10.6762 18.67 10.1395 18.072C9.95482 17.8673 9.97148 17.5507 10.1768 17.3667C10.3822 17.1813 10.6982 17.198 10.8828 17.404ZM12.1647 4.66666C15.128 4.66666 17.1187 6.97466 17.1187 9.13C17.1187 10.2387 17.4007 10.7087 17.7 11.2073C17.996 11.6993 18.3314 12.258 18.3314 13.314C18.0987 16.012 15.282 16.232 12.1647 16.232C9.04735 16.232 6.23002 16.012 6.00001 13.3567C5.99802 12.258 6.33335 11.6993 6.62935 11.2073L6.73385 11.0314C6.99113 10.5892 7.21068 10.1082 7.21068 9.13C7.21068 6.97466 9.20135 4.66666 12.1647 4.66666ZM12.1647 5.66666C9.83468 5.66666 8.21068 7.492 8.21068 9.13C8.21068 10.516 7.82602 11.1567 7.48602 11.722C7.21335 12.176 6.99802 12.5347 6.99802 13.314C7.10935 14.5713 7.93935 15.232 12.1647 15.232C16.3667 15.232 17.2227 14.542 17.3334 13.2707C17.3314 12.5347 17.116 12.176 16.8434 11.722C16.5034 11.1567 16.1187 10.516 16.1187 9.13C16.1187 7.492 14.4947 5.66666 12.1647 5.66666Z" fill="#232D50"/>
</svg>
