<svg width="24" height="24" viewBox="0 0 24 24" fill="none" xmlns="http://www.w3.org/2000/svg">
<path fill-rule="evenodd" clip-rule="evenodd" d="M10.5847 13.6373L10.6641 13.6373L10.8401 13.6378C12.3347 13.6458 15.836 13.7817 15.836 16.0913C15.836 18.2327 12.9604 18.5189 10.7236 18.5297L10.3293 18.5295C8.8347 18.5215 5.33337 18.3857 5.33337 16.0767C5.33337 13.89 8.33004 13.6373 10.5847 13.6373ZM10.5847 14.6373C7.76404 14.6373 6.33337 15.122 6.33337 16.0767C6.33337 17.0407 7.76404 17.53 10.5847 17.53C13.4054 17.53 14.836 17.0453 14.836 16.0913C14.836 15.126 13.4054 14.6373 10.5847 14.6373ZM16.8028 9.27913C17.0788 9.27913 17.3028 9.50313 17.3028 9.77913L17.3027 10.6153L18.1667 10.6159C18.4427 10.6159 18.6667 10.8399 18.6667 11.1159C18.6667 11.3919 18.4427 11.6159 18.1667 11.6159L17.3027 11.6153L17.3028 12.4531C17.3028 12.7291 17.0788 12.9531 16.8028 12.9531C16.5268 12.9531 16.3028 12.7291 16.3028 12.4531L16.3027 11.6153L15.44 11.6159C15.164 11.6159 14.94 11.3919 14.94 11.1159C14.94 10.8399 15.164 10.6159 15.44 10.6159L16.3027 10.6153L16.3028 9.77913C16.3028 9.50313 16.5268 9.27913 16.8028 9.27913ZM10.5847 5.33333C12.54 5.33333 14.13 6.92399 14.13 8.87866C14.13 10.8333 12.54 12.424 10.5847 12.424H10.564C9.61804 12.4207 8.73137 12.0493 8.06671 11.38C7.40137 10.71 7.03671 9.82066 7.04002 8.87666C7.04002 6.92399 8.63004 5.33333 10.5847 5.33333ZM10.5847 6.33333C9.18204 6.33333 8.04002 7.47533 8.04002 8.87866C8.03737 9.55799 8.29871 10.1947 8.77537 10.6753C9.25271 11.1553 9.88871 11.4213 10.566 11.424L10.5847 11.918V11.424C11.988 11.424 13.13 10.282 13.13 8.87866C13.13 7.47533 11.988 6.33333 10.5847 6.33333Z" fill="#232D50"/>
</svg>
