<svg width="24" height="24" viewBox="0 0 24 24" fill="none" xmlns="http://www.w3.org/2000/svg">
<path fill-rule="evenodd" clip-rule="evenodd" d="M10.3973 12.8047C12.5699 12.8047 15.4586 13.0494 15.4586 15.166C15.4586 17.3957 12.0927 17.5295 10.6489 17.5375L10.1247 17.5375C8.58523 17.5296 5.33594 17.3965 5.33594 15.1794C5.33594 12.9472 8.70186 12.8133 10.1457 12.8052L10.3191 12.8047C10.3462 12.8047 10.3722 12.8047 10.3973 12.8047ZM10.3973 13.8047C8.5446 13.8047 6.33594 14.0427 6.33594 15.1794C6.33594 16.0807 7.7026 16.538 10.3973 16.538C13.0919 16.538 14.4586 16.076 14.4586 15.166C14.4586 14.2627 13.0919 13.8047 10.3973 13.8047ZM16.4737 12.4933C18.2777 12.7633 18.6557 13.5986 18.6557 14.2513C18.6557 14.7373 18.4457 15.3953 17.4437 15.7746C17.3857 15.7966 17.3257 15.8073 17.2664 15.8073C17.0644 15.8073 16.8744 15.684 16.7991 15.4846C16.7011 15.2266 16.8311 14.9373 17.0891 14.84C17.6557 14.6253 17.6557 14.3633 17.6557 14.2513C17.6557 13.8733 17.2084 13.6146 16.3264 13.4833C16.0531 13.442 15.8644 13.1873 15.9051 12.9146C15.9464 12.6413 16.2057 12.458 16.4737 12.4933ZM10.3973 4.83337C12.2846 4.83337 13.8206 6.36937 13.8206 8.25671C13.8246 9.16604 13.4719 10.0247 12.8293 10.6714C12.1879 11.3187 11.3313 11.6767 10.4199 11.68H10.3973C8.50927 11.68 6.97327 10.144 6.97327 8.25671C6.97327 6.36937 8.50927 4.83337 10.3973 4.83337ZM15.1223 5.58257C16.4323 5.79724 17.383 6.91791 17.383 8.24657C17.3803 9.58324 16.3823 10.7312 15.061 10.9166C15.0377 10.9199 15.0143 10.9212 14.991 10.9212C14.7457 10.9212 14.5317 10.7406 14.4963 10.4906C14.4583 10.2172 14.6483 9.96391 14.9217 9.92591C15.7537 9.80924 16.3817 9.08724 16.383 8.24591C16.383 7.40991 15.7843 6.70457 14.961 6.56991C14.6883 6.52457 14.5037 6.26791 14.5483 5.99524C14.593 5.72257 14.851 5.53924 15.1223 5.58257ZM10.3973 5.83337C9.0606 5.83337 7.97327 6.92071 7.97327 8.25671C7.97327 9.59271 9.0606 10.68 10.3973 10.68H10.4179C11.0606 10.6774 11.6659 10.4247 12.1199 9.96671C12.5746 9.51004 12.8233 8.90271 12.8206 8.25871C12.8206 6.92071 11.7333 5.83337 10.3973 5.83337Z" fill="#232D50"/>
</svg>
