<svg width="24" height="24" viewBox="0 0 24 24" fill="none" xmlns="http://www.w3.org/2000/svg">
<g clip-path="url(#clip0_2381_22048)">
<path fill-rule="evenodd" clip-rule="evenodd" d="M10.4283 5.33334C11.0623 5.33401 11.6663 5.63668 12.045 6.14268L12.6523 6.95068C12.845 7.20668 13.151 7.35934 13.471 7.36001H15.357C17.9317 7.36001 19.131 8.67934 19.131 11.512L19.1123 14.8233C19.1117 17.4687 17.4677 19.1127 14.821 19.1127H9.63301C6.98101 19.1127 5.33301 17.468 5.33301 14.8213V9.62201C5.33301 6.77601 6.59901 5.33334 9.09501 5.33334H10.4283ZM10.4277 6.33334H9.09501C7.15901 6.33334 6.33301 7.31734 6.33301 9.62201V14.8213C6.33301 16.944 7.50501 18.1127 9.63301 18.1127H14.821C16.9437 18.1127 18.1123 16.944 18.1123 14.8213V14.8193L18.131 11.5093C18.131 9.24334 17.3537 8.36001 15.357 8.36001H13.4703C12.8377 8.35934 12.2337 8.05734 11.8537 7.55201L11.245 6.74268C11.0537 6.48601 10.7477 6.33401 10.4277 6.33334ZM15.1438 13.4752C15.4198 13.4752 15.6438 13.6992 15.6438 13.9752C15.6438 14.2512 15.4198 14.4752 15.1438 14.4752H9.32047C9.04447 14.4752 8.82047 14.2512 8.82047 13.9752C8.82047 13.6992 9.04447 13.4752 9.32047 13.4752H15.1438Z" fill="#232D50"/>
</g>
<defs>
<clipPath id="clip0_2381_22048">
<rect width="16" height="16" fill="white" transform="translate(4 4)"/>
</clipPath>
</defs>
</svg>
