<svg width="24" height="25" viewBox="0 0 24 25" fill="none" xmlns="http://www.w3.org/2000/svg">
<path d="M7.86866 15.9599L7 22.5L11.5884 19.747C11.7381 19.6572 11.8129 19.6123 11.8928 19.5947C11.9634 19.5792 12.0366 19.5792 12.1072 19.5947C12.1871 19.6123 12.2619 19.6572 12.4116 19.747L17 22.5L16.1319 15.9571M16.4259 4.74888C16.5803 5.1224 16.8768 5.4193 17.25 5.5743L18.5589 6.11648C18.9325 6.27121 19.2292 6.56799 19.384 6.94154C19.5387 7.31509 19.5387 7.73481 19.384 8.10836L18.8422 9.41635C18.6874 9.79007 18.6872 10.2102 18.8427 10.5837L19.3835 11.8913C19.4602 12.0764 19.4997 12.2747 19.4997 12.475C19.4998 12.6752 19.4603 12.8736 19.3837 13.0586C19.3071 13.2436 19.1947 13.4118 19.0531 13.5534C18.9114 13.695 18.7433 13.8073 18.5582 13.8839L17.2503 14.4256C16.8768 14.5801 16.5799 14.8765 16.4249 15.2498L15.8827 16.5588C15.728 16.9323 15.4312 17.2291 15.0577 17.3838C14.6841 17.5386 14.2644 17.5386 13.8909 17.3838L12.583 16.842C12.2094 16.6877 11.7899 16.688 11.4166 16.8429L10.1077 17.3843C9.73434 17.5387 9.31501 17.5386 8.94178 17.384C8.56854 17.2293 8.27194 16.9329 8.11711 16.5598L7.57479 15.2504C7.42035 14.8769 7.12391 14.58 6.75064 14.425L5.44175 13.8828C5.06838 13.7282 4.77169 13.4316 4.61691 13.0582C4.46213 12.6849 4.46192 12.2654 4.61633 11.8919L5.1581 10.5839C5.31244 10.2104 5.31213 9.79079 5.15722 9.41746L4.61623 8.10759C4.53953 7.92257 4.50003 7.72426 4.5 7.52397C4.49997 7.32369 4.5394 7.12536 4.61604 6.94032C4.69268 6.75529 4.80504 6.58716 4.94668 6.44556C5.08832 6.30396 5.25647 6.19166 5.44152 6.11508L6.74947 5.57329C7.12265 5.41898 7.41936 5.1229 7.57448 4.75004L8.11664 3.44111C8.27136 3.06756 8.56813 2.77078 8.94167 2.61605C9.3152 2.46132 9.7349 2.46132 10.1084 2.61605L11.4164 3.15784C11.7899 3.31218 12.2095 3.31187 12.5828 3.15696L13.8922 2.61689C14.2657 2.46224 14.6853 2.46228 15.0588 2.61697C15.4322 2.77167 15.729 3.06837 15.8837 3.44182L16.426 4.75115L16.4259 4.74888Z" stroke="white" stroke-width="2" stroke-linecap="round" stroke-linejoin="round"/>
</svg>
