<svg width="24" height="24" viewBox="0 0 24 24" fill="none" xmlns="http://www.w3.org/2000/svg">
<path fill-rule="evenodd" clip-rule="evenodd" d="M12.1808 4.83362C12.6582 4.83362 13.1222 5.02962 13.4548 5.37028C13.7868 5.71295 13.9702 6.18295 13.9562 6.65962C13.9575 6.76695 13.9928 6.89095 14.0568 6.99962C14.1628 7.17962 14.3302 7.30628 14.5288 7.35828C14.7275 7.40762 14.9355 7.38095 15.1122 7.27628C15.9655 6.78895 17.0515 7.08095 17.5388 7.92762L17.9542 8.64695C17.9648 8.66628 17.9742 8.68495 17.9822 8.70428C18.4235 9.53828 18.1288 10.5883 17.3088 11.0676C17.1895 11.1363 17.0928 11.2323 17.0262 11.3483C16.9228 11.5276 16.8942 11.741 16.9462 11.937C16.9995 12.137 17.1268 12.303 17.3062 12.4056C17.7108 12.6383 18.0128 13.0303 18.1335 13.483C18.2542 13.935 18.1882 14.4256 17.9528 14.8303L17.5102 15.5676C17.0228 16.405 15.9368 16.695 15.0922 16.207C14.9795 16.1423 14.8495 16.107 14.7202 16.1036H14.7162C14.5235 16.1036 14.3255 16.1856 14.1815 16.329C14.0355 16.475 13.9555 16.6696 13.9568 16.8763C13.9522 17.8556 13.1555 18.6476 12.1808 18.6476H11.3455C10.3662 18.6476 9.56948 17.8516 9.56948 16.8723C9.56815 16.7516 9.53348 16.6263 9.46882 16.5176C9.36415 16.335 9.19482 16.2043 8.99948 16.1523C8.80548 16.1003 8.59282 16.129 8.41815 16.2303C7.99948 16.4636 7.50682 16.5203 7.05615 16.3936C6.60615 16.2663 6.21748 15.957 5.98948 15.547L5.57282 14.829C5.08548 13.9836 5.37548 12.9003 6.21948 12.4123C6.45882 12.2743 6.60748 12.017 6.60748 11.741C6.60748 11.465 6.45882 11.207 6.21948 11.069C5.37482 10.5783 5.08548 9.49228 5.57215 8.64695L6.02415 7.90495C6.50482 7.06895 7.59148 6.77428 8.43882 7.26095C8.55415 7.32962 8.67948 7.36428 8.80682 7.36562C9.22215 7.36562 9.56948 7.02295 9.57615 6.60162C9.57348 6.13695 9.75682 5.69095 10.0908 5.35428C10.4262 5.01828 10.8715 4.83362 11.3455 4.83362H12.1808ZM12.1808 5.83362H11.3455C11.1388 5.83362 10.9455 5.91428 10.7995 6.05962C10.6542 6.20562 10.5748 6.39962 10.5762 6.60628C10.5622 7.58095 9.76548 8.36562 8.80082 8.36562C8.49148 8.36228 8.19348 8.27895 7.93482 8.12428C7.57148 7.91762 7.09682 8.04495 6.88415 8.41495L6.43282 9.15695C6.22615 9.51562 6.35282 9.98962 6.72082 10.2036C7.26682 10.5196 7.60748 11.109 7.60748 11.741C7.60748 12.373 7.26682 12.9616 6.71948 13.2783C6.35348 13.4903 6.22682 13.9616 6.43882 14.3283L6.85948 15.0536C6.96348 15.241 7.13348 15.3763 7.33015 15.4316C7.52615 15.4863 7.74215 15.463 7.92215 15.363C8.18682 15.2076 8.49482 15.127 8.80415 15.127C8.95682 15.127 9.10948 15.1463 9.25882 15.1863C9.70948 15.3076 10.1008 15.609 10.3328 16.0136C10.4835 16.2676 10.5668 16.5643 10.5695 16.867C10.5695 17.3003 10.9175 17.6476 11.3455 17.6476H12.1808C12.6068 17.6476 12.9548 17.3023 12.9568 16.8763C12.9542 16.4056 13.1382 15.9583 13.4748 15.6216C13.8068 15.2896 14.2708 15.0903 14.7348 15.1036C15.0388 15.111 15.3315 15.193 15.5895 15.3396C15.9608 15.5523 16.4348 15.4256 16.6495 15.059L17.0922 14.321C17.1908 14.151 17.2195 13.9376 17.1668 13.741C17.1148 13.5443 16.9842 13.3736 16.8082 13.273C16.3962 13.0356 16.1022 12.653 15.9802 12.1943C15.8595 11.7443 15.9255 11.253 16.1608 10.8483C16.3142 10.5816 16.5388 10.357 16.8082 10.2023C17.1695 9.99095 17.2962 9.51828 17.0862 9.15028C17.0775 9.13562 17.0695 9.12028 17.0628 9.10428L16.6722 8.42695C16.4595 8.05695 15.9862 7.92962 15.6148 8.14095C15.2135 8.37828 14.7362 8.44628 14.2775 8.32562C13.8195 8.20695 13.4355 7.91695 13.1962 7.50762C13.0428 7.25162 12.9595 6.95362 12.9568 6.65028C12.9628 6.42228 12.8828 6.21762 12.7375 6.06762C12.5928 5.91828 12.3895 5.83362 12.1808 5.83362ZM11.7661 9.48302C13.0108 9.48302 14.0234 10.4964 14.0234 11.741C14.0234 12.9857 13.0108 13.9977 11.7661 13.9977C10.5214 13.9977 9.50875 12.9857 9.50875 11.741C9.50875 10.4964 10.5214 9.48302 11.7661 9.48302ZM11.7661 10.483C11.0728 10.483 10.5088 11.0477 10.5088 11.741C10.5088 12.4344 11.0728 12.9977 11.7661 12.9977C12.4594 12.9977 13.0234 12.4344 13.0234 11.741C13.0234 11.0477 12.4594 10.483 11.7661 10.483Z" fill="#232D50"/>
</svg>
