<svg width="24" height="24" viewBox="0 0 24 24" fill="none" xmlns="http://www.w3.org/2000/svg">
<path fill-rule="evenodd" clip-rule="evenodd" d="M9.33698 4.90002C8.86843 4.90002 8.41907 5.08615 8.08776 5.41747C7.75644 5.74878 7.57031 6.19814 7.57031 6.66669V17.3334C7.57031 17.8019 7.75644 18.2513 8.08776 18.5826C8.41907 18.9139 8.86843 19.1 9.33698 19.1H14.6703C15.1389 19.1 15.5882 18.9139 15.9195 18.5826C16.2508 18.2513 16.437 17.8019 16.437 17.3334V6.66669C16.437 6.19814 16.2508 5.74878 15.9195 5.41747C15.5882 5.08615 15.1389 4.90002 14.6703 4.90002H14.0036H10.0036H9.33698ZM9.57031 5.76669H9.33698C9.09828 5.76669 8.86937 5.86151 8.70058 6.0303C8.5318 6.19908 8.43698 6.428 8.43698 6.66669V17.3334C8.43698 17.5721 8.5318 17.801 8.70058 17.9698C8.86937 18.1385 9.09828 18.2334 9.33698 18.2334H14.6703C14.909 18.2334 15.1379 18.1385 15.3067 17.9698C15.4755 17.801 15.5703 17.5721 15.5703 17.3334V6.66669C15.5703 6.428 15.4755 6.19908 15.3067 6.0303C15.1379 5.86151 14.909 5.76669 14.6703 5.76669H14.437V6.00002C14.437 6.29176 14.3211 6.57155 14.1148 6.77784C13.9085 6.98413 13.6287 7.10002 13.337 7.10002H10.6703C10.3786 7.10002 10.0988 6.98413 9.89249 6.77784C9.6862 6.57155 9.57031 6.29176 9.57031 6.00002V5.76669ZM10.437 5.76669V6.00002C10.437 6.06191 10.4616 6.12126 10.5053 6.16502C10.5491 6.20877 10.6084 6.23336 10.6703 6.23336H13.337C13.3989 6.23336 13.4582 6.20877 13.502 6.16502C13.5457 6.12126 13.5703 6.06191 13.5703 6.00002V5.76669H10.437Z" fill="#232D50"/>
</svg>
