<svg width="24" height="24" viewBox="0 0 24 24" fill="none" xmlns="http://www.w3.org/2000/svg">
<path fill-rule="evenodd" clip-rule="evenodd" d="M14.8841 5.33325C17.1435 5.33325 18.6615 6.91859 18.6615 9.27725V14.7226C18.6615 17.0813 17.1435 18.6666 14.8828 18.6666H9.10412C6.84546 18.6666 5.32812 17.0813 5.32812 14.7226V9.27725C5.32812 6.91859 6.84546 5.33325 9.10412 5.33325H14.8841ZM14.8841 6.33325H9.10412C7.41812 6.33325 6.32812 7.48858 6.32812 9.27725V14.7226C6.32812 16.5113 7.41812 17.6666 9.10412 17.6666H14.8828C16.5708 17.6666 17.6615 16.5113 17.6615 14.7226V9.27725C17.6615 7.48858 16.5708 6.33325 14.8841 6.33325ZM11.9908 11.4999C12.2668 11.4999 12.4908 11.7239 12.4908 11.9999V14.6666C12.4908 14.9426 12.2668 15.1666 11.9908 15.1666C11.7148 15.1666 11.4908 14.9426 11.4908 14.6666V11.9999C11.4908 11.7239 11.7148 11.4999 11.9908 11.4999ZM11.9941 8.80265C12.3627 8.80265 12.6607 9.10065 12.6607 9.46932C12.6607 9.83799 12.3627 10.136 11.9941 10.136C11.6254 10.136 11.3241 9.83799 11.3241 9.46932C11.3241 9.10065 11.6194 8.80265 11.9874 8.80265H11.9941Z" fill="#232D50"/>
</svg>
