<svg width="24" height="24" viewBox="0 0 24 24" fill="none" xmlns="http://www.w3.org/2000/svg">
<path fill-rule="evenodd" clip-rule="evenodd" d="M11.8323 4.66687C13.7476 4.66687 15.5476 5.41154 16.8996 6.7642C19.6942 9.55887 19.6942 14.1055 16.8996 16.9002C15.5296 18.2709 13.6849 18.9962 11.8162 18.9962C10.7976 18.9962 9.77225 18.7809 8.81292 18.3369C8.53025 18.2235 8.26558 18.1169 8.07558 18.1169C7.85692 18.1182 7.56292 18.2195 7.27892 18.3175C6.69625 18.5175 5.97092 18.7669 5.43425 18.2322C4.89958 17.6969 5.14625 16.9735 5.34492 16.3915C5.44292 16.1049 5.54358 15.8089 5.54358 15.5849C5.54358 15.4009 5.45492 15.1662 5.31892 14.8282C4.07025 12.1315 4.64758 8.88154 6.76558 6.76487C8.11758 5.4122 9.91692 4.66687 11.8323 4.66687ZM11.8329 5.66687C10.1843 5.66687 8.63558 6.3082 7.47225 7.4722C5.64958 9.29354 5.15358 12.0902 6.23692 14.4322C6.39292 14.8182 6.54358 15.1942 6.54358 15.5849C6.54358 15.9749 6.40958 16.3675 6.29158 16.7142C6.19425 16.9995 6.04692 17.4302 6.14158 17.5249C6.23425 17.6209 6.66758 17.4695 6.95358 17.3715C7.29692 17.2542 7.68625 17.1195 8.07225 17.1169C8.45892 17.1169 8.82358 17.2635 9.20958 17.4189C11.5743 18.5122 14.3709 18.0149 16.1929 16.1935C18.5969 13.7882 18.5969 9.87554 16.1929 7.47154C15.0289 6.30754 13.4809 5.66687 11.8329 5.66687ZM14.4642 11.442C14.8322 11.442 15.1308 11.74 15.1308 12.1087C15.1308 12.4773 14.8322 12.7753 14.4642 12.7753C14.0962 12.7753 13.7949 12.4773 13.7949 12.1087C13.7949 11.74 14.0902 11.442 14.4582 11.442H14.4642ZM11.7917 11.442C12.1597 11.442 12.4583 11.74 12.4583 12.1087C12.4583 12.4773 12.1597 12.7753 11.7917 12.7753C11.4237 12.7753 11.1223 12.4773 11.1223 12.1087C11.1223 11.74 11.417 11.442 11.7857 11.442H11.7917ZM9.11885 11.442C9.48685 11.442 9.78552 11.74 9.78552 12.1087C9.78552 12.4773 9.48685 12.7753 9.11885 12.7753C8.75085 12.7753 8.44952 12.4773 8.44952 12.1087C8.44952 11.74 8.74485 11.442 9.11285 11.442H9.11885Z" fill="#232D50"/>
</svg>
