<svg width="24" height="24" viewBox="0 0 24 24" fill="none" xmlns="http://www.w3.org/2000/svg">
<path fill-rule="evenodd" clip-rule="evenodd" d="M11.8387 5.33313C13.4882 5.33313 14.8332 6.66837 14.8512 8.31572L14.9973 8.3164C16.8386 8.3164 18.3359 9.81306 18.3359 11.6531V15.3304C18.3359 17.1697 16.8386 18.6664 14.9973 18.6664H8.6746C6.83394 18.6664 5.33594 17.1697 5.33594 15.3304V11.6531C5.33594 9.81306 6.83394 8.3164 8.6746 8.3164L8.8106 8.3158L8.81483 8.18614C8.8567 7.42984 9.16818 6.73602 9.70267 6.20713C10.2747 5.6398 11.0427 5.35646 11.8387 5.33313ZM14.9973 9.3164L14.8513 9.3158L14.8513 10.3705C14.8513 10.6465 14.6273 10.8705 14.3513 10.8705C14.0753 10.8705 13.8513 10.6465 13.8513 10.3705L13.8513 9.3158H9.80994L9.81 10.3705C9.81 10.6465 9.586 10.8705 9.31 10.8705C9.034 10.8705 8.81 10.6465 8.81 10.3705L8.80994 9.3158L8.6746 9.3164C7.38527 9.3164 6.33594 10.3644 6.33594 11.6531V15.3304C6.33594 16.6184 7.38527 17.6664 8.6746 17.6664H14.9973C16.2866 17.6664 17.3359 16.6184 17.3359 15.3304V11.6531C17.3359 10.3644 16.2866 9.3164 14.9973 9.3164ZM11.8367 6.33313C11.296 6.3518 10.7893 6.53846 10.4067 6.91713C10.0296 7.29096 9.81819 7.78651 9.81022 8.31573L13.8499 8.3158L13.8479 8.23088C13.7865 7.17433 12.9083 6.33313 11.8367 6.33313Z" fill="#232D50"/>
</svg>
