<svg width="24" height="24" viewBox="0 0 24 24" fill="none" xmlns="http://www.w3.org/2000/svg">
<path d="M15.228 7.36425C15.4812 7.36425 15.6904 7.55235 15.7235 7.7964L15.728 7.86425L15.728 15.7309L17.5921 13.8593C17.7869 13.6636 18.1035 13.6628 18.2992 13.8577C18.4771 14.0348 18.4939 14.3125 18.3491 14.5086L18.3008 14.5648L15.5823 17.2959C15.5659 17.312 15.5493 17.3266 15.5317 17.34L15.5823 17.2959C15.5578 17.3205 15.5313 17.3421 15.5034 17.3605C15.4937 17.3666 15.4836 17.3728 15.4732 17.3786C15.4636 17.3844 15.4539 17.3895 15.444 17.3942C15.4342 17.3985 15.4243 17.4029 15.4143 17.4069C15.4015 17.4124 15.3883 17.417 15.3751 17.4211C15.3673 17.4232 15.3593 17.4254 15.3512 17.4275C15.3368 17.4314 15.3223 17.4344 15.3078 17.4368C15.301 17.4375 15.2938 17.4385 15.2866 17.4394C15.2702 17.4416 15.2539 17.4427 15.2376 17.443C15.2344 17.4427 15.2312 17.4428 15.228 17.4428L15.2183 17.443C15.202 17.4427 15.1857 17.4416 15.1695 17.4397L15.228 17.4428C15.2008 17.4428 15.1741 17.4406 15.148 17.4364C15.1336 17.4344 15.1191 17.4314 15.1048 17.4278C15.0972 17.4255 15.0896 17.4234 15.0821 17.4211C15.0677 17.4171 15.0535 17.4121 15.0395 17.4064C15.0318 17.4029 15.0244 17.3996 15.0171 17.3962C15.0055 17.3913 14.994 17.3854 14.9826 17.379C14.9724 17.3727 14.9623 17.3666 14.9525 17.3601C14.9448 17.3554 14.9372 17.3501 14.9297 17.3446L14.9244 17.34C14.9068 17.3266 14.8901 17.312 14.8745 17.2963L14.8736 17.2959L12.1551 14.5648C11.9603 14.369 11.961 14.0525 12.1567 13.8577C12.3346 13.6806 12.6124 13.6651 12.8078 13.8107L12.8638 13.8593L14.728 15.7323L14.728 7.86425C14.728 7.5881 14.9519 7.36425 15.228 7.36425ZM8.60907 5.55521L8.61881 5.55493C8.6351 5.55524 8.65138 5.55635 8.66759 5.55825L8.60907 5.55521C8.63631 5.55521 8.66304 5.55739 8.68909 5.56158C8.70335 5.56353 8.71765 5.56647 8.73183 5.57004C8.74017 5.57249 8.74867 5.57488 8.75707 5.57748C8.7702 5.58118 8.78291 5.58568 8.79545 5.5907C8.80452 5.59474 8.8137 5.59876 8.82274 5.60303C8.83347 5.60767 8.84405 5.61314 8.85445 5.619C8.86336 5.62449 8.87219 5.62984 8.88083 5.63544C8.88972 5.64073 8.89862 5.64691 8.90736 5.65342L8.96351 5.7021L11.682 8.43321C11.8768 8.62893 11.8761 8.94551 11.6804 9.14032C11.5025 9.31742 11.2247 9.33292 11.0293 9.18723L10.9733 9.13869L9.10862 7.26493L9.10907 15.1337C9.10907 15.4099 8.88521 15.6337 8.60907 15.6337C8.35594 15.6337 8.14674 15.4456 8.11363 15.2016L8.10907 15.1337L8.10862 7.2656L6.24499 9.13869C6.06789 9.31661 5.79016 9.33339 5.59408 9.1886L5.53789 9.14032C5.35997 8.96322 5.34319 8.68548 5.48797 8.48941L5.53626 8.43321L8.25477 5.7021L8.28421 5.67511C8.29113 5.66919 8.29821 5.66346 8.30544 5.65793L8.25477 5.7021C8.2793 5.67746 8.30576 5.65591 8.33366 5.63746C8.34339 5.63139 8.35351 5.6252 8.36385 5.61937C8.37346 5.61358 8.38322 5.6085 8.39311 5.60376C8.40288 5.59944 8.41278 5.59508 8.42285 5.59104C8.43563 5.58557 8.44875 5.58094 8.462 5.57687C8.47007 5.57471 8.47833 5.5724 8.48667 5.5703C8.5001 5.56661 8.51368 5.56379 8.52733 5.56154C8.53554 5.56051 8.54359 5.55939 8.5517 5.55846C8.56713 5.55634 8.58296 5.55527 8.59881 5.55494C8.60231 5.55524 8.60568 5.55521 8.60907 5.55521Z" fill="#232D50"/>
</svg>
