<svg width="24" height="24" viewBox="0 0 24 24" fill="none" xmlns="http://www.w3.org/2000/svg">
<path fill-rule="evenodd" clip-rule="evenodd" d="M17.2239 16.1287C17.2239 18.3261 14.2106 18.5801 11.9446 18.5801L11.7824 18.5799C10.3387 18.5764 6.66394 18.4853 6.66394 16.1154C6.66394 13.9629 9.55618 13.6752 11.8049 13.6644L12.1068 13.6642C13.5504 13.6677 17.2239 13.7589 17.2239 16.1287ZM11.9446 14.6641C9.10394 14.6641 7.66394 15.1521 7.66394 16.1154C7.66394 17.0874 9.10394 17.5801 11.9446 17.5801C14.7846 17.5801 16.2239 17.0921 16.2239 16.1287C16.2239 15.1567 14.7846 14.6641 11.9446 14.6641ZM11.9446 5.33313C13.8966 5.33313 15.4839 6.92113 15.4839 8.87313C15.4839 10.8251 13.8966 12.4125 11.9446 12.4125H11.9233C9.97527 12.4065 8.39727 10.8178 8.40392 8.87113C8.40392 6.92113 9.99194 5.33313 11.9446 5.33313ZM11.9446 6.28513C10.5173 6.28513 9.35593 7.4458 9.35593 8.87313C9.35127 10.2958 10.5039 11.4558 11.9253 11.4611L11.9446 11.9371V11.4611C13.3713 11.4611 14.5319 10.2998 14.5319 8.87313C14.5319 7.4458 13.3713 6.28513 11.9446 6.28513Z" fill="#232D50"/>
</svg>
