<svg width="24" height="25" viewBox="0 0 24 25" fill="none" xmlns="http://www.w3.org/2000/svg">
<path d="M9.5 7.89777H13.75C14.9926 7.89777 16 8.90513 16 10.1478C16 11.3904 14.9926 12.3978 13.75 12.3978H9.5H14.25C15.4926 12.3978 16.5 13.4051 16.5 14.6478C16.5 15.8904 15.4926 16.8978 14.25 16.8978H9.5M9.5 7.89777H8M9.5 7.89777V16.8978M9.5 16.8978H8M10 6.39777V7.89777M10 16.8978V18.3978M13 6.39777V7.89777M13 16.8978V18.3978M22 12.3978C22 17.9206 17.5228 22.3978 12 22.3978C6.47715 22.3978 2 17.9206 2 12.3978C2 6.87492 6.47715 2.39777 12 2.39777C17.5228 2.39777 22 6.87492 22 12.3978Z" stroke="#ECECEC" stroke-width="2" stroke-linecap="round" stroke-linejoin="round"/>
</svg>
