<svg width="24" height="24" viewBox="0 0 24 24" fill="none" xmlns="http://www.w3.org/2000/svg">
<path fill-rule="evenodd" clip-rule="evenodd" d="M14.6058 5.33333C16.7018 5.33333 18.1098 6.76866 18.1098 8.90466V15.0353C18.1098 17.19 16.7451 18.5913 14.6331 18.6047L9.50442 18.6067C7.40842 18.6067 5.99976 17.1713 5.99976 15.0353V8.90466C5.99976 6.74933 7.36442 5.34866 9.47642 5.33599L14.6051 5.33333H14.6058ZM14.6058 6.33333L9.47976 6.336C7.92776 6.34533 6.99976 7.30533 6.99976 8.90466V15.0353C6.99976 16.6453 7.93642 17.6067 9.50376 17.6067L14.6298 17.6047C16.1818 17.5953 17.1098 16.634 17.1098 15.0353V8.90466C17.1098 7.29466 16.1738 6.33333 14.6058 6.33333ZM14.4772 14.3158C14.7532 14.3158 14.9772 14.5398 14.9772 14.8158C14.9772 15.0918 14.7532 15.3158 14.4772 15.3158H9.66382C9.38782 15.3158 9.16382 15.0918 9.16382 14.8158C9.16382 14.5398 9.38782 14.3158 9.66382 14.3158H14.4772ZM14.4772 11.5248C14.7532 11.5248 14.9772 11.7488 14.9772 12.0248C14.9772 12.3008 14.7532 12.5248 14.4772 12.5248H9.66382C9.38782 12.5248 9.16382 12.3008 9.16382 12.0248C9.16382 11.7488 9.38782 11.5248 9.66382 11.5248H14.4772ZM11.5003 8.74026C11.7763 8.74026 12.0003 8.96426 12.0003 9.24026C12.0003 9.51626 11.7763 9.74026 11.5003 9.74026H9.66362C9.38762 9.74026 9.16362 9.51626 9.16362 9.24026C9.16362 8.96426 9.38762 8.74026 9.66362 8.74026H11.5003Z" fill="#232D50"/>
</svg>
