<svg width="24" height="24" viewBox="0 0 24 24" fill="none" xmlns="http://www.w3.org/2000/svg">
<path fill-rule="evenodd" clip-rule="evenodd" d="M13.4184 5.91684L13.9058 6.40418C14.0944 6.59151 14.3464 6.69551 14.6144 6.69551H15.2998C16.4071 6.69551 17.3078 7.59618 17.3078 8.70351V9.38818C17.3078 9.65551 17.4118 9.90818 17.6004 10.0982L18.0791 10.5775C18.4584 10.9542 18.6691 11.4575 18.6711 11.9942C18.6731 12.5308 18.4658 13.0355 18.0878 13.4162L17.5991 13.9035C17.4118 14.0922 17.3078 14.3435 17.3078 14.6115V15.2975C17.3078 16.4042 16.4071 17.3048 15.3004 17.3048H14.6131C14.3491 17.3048 14.0911 17.4115 13.9038 17.5975L13.4251 18.0762C13.0338 18.4702 12.5178 18.6675 12.0018 18.6675C11.4904 18.6675 10.9791 18.4742 10.5878 18.0862C10.5824 18.0808 10.5771 18.0755 10.5718 18.0695L10.0984 17.5968C9.90975 17.4095 9.65775 17.3055 9.38975 17.3048H8.70575C7.59842 17.3048 6.69842 16.4042 6.69842 15.2975V14.6102C6.69842 14.3422 6.59375 14.0908 6.40575 13.9015L5.92642 13.4228C5.14775 12.6482 5.13842 11.3868 5.90309 10.6002L5.92109 10.5822L6.40642 10.0955C6.59375 9.90684 6.69842 9.65418 6.69842 9.38684V8.70351C6.69842 7.59684 7.59842 6.69618 8.70509 6.69551H9.39175C9.65909 6.69551 9.91109 6.59084 10.1024 6.40218L10.5791 5.92418C11.3584 5.13951 12.6324 5.13551 13.4184 5.91684ZM11.2878 6.63018L10.8084 7.11084C10.4258 7.48884 9.92375 7.69551 9.39175 7.69551H8.70575C8.15042 7.69618 7.69842 8.14818 7.69842 8.70351V9.38684C7.69842 9.92084 7.49109 10.4228 7.11509 10.8015L6.64175 11.2755C6.63709 11.2808 6.63242 11.2848 6.62775 11.2895C6.23642 11.6835 6.23842 12.3228 6.63242 12.7142L7.11375 13.1955C7.49109 13.5742 7.69842 14.0762 7.69842 14.6102V15.2975C7.69842 15.8528 8.14975 16.3048 8.70575 16.3048H9.39042C9.92509 16.3055 10.4271 16.5128 10.8051 16.8895L11.2858 17.3688L11.2991 17.3835C11.6924 17.7675 12.3258 17.7628 12.7164 17.3702L13.1978 16.8902C13.5711 16.5175 14.0871 16.3048 14.6131 16.3048H15.2998C15.8558 16.3048 16.3078 15.8528 16.3078 15.2975V14.6115C16.3078 14.0775 16.5144 13.5755 16.8918 13.1975L17.3718 12.7168C17.5671 12.5208 17.6718 12.2668 17.6711 11.9975C17.6704 11.7288 17.5644 11.4762 17.3731 11.2855L16.8924 10.8042C16.5144 10.4235 16.3078 9.92218 16.3078 9.38818V8.70351C16.3078 8.14751 15.8558 7.69551 15.2998 7.69551H14.6144C14.0804 7.69551 13.5784 7.48818 13.2004 7.11284L12.7191 6.63084C12.3184 6.23418 11.6791 6.23618 11.2878 6.63018ZM13.6715 12.9993C14.0402 12.9993 14.3382 13.2973 14.3382 13.666C14.3382 14.0346 14.0402 14.3326 13.6715 14.3326C13.3028 14.3326 13.0015 14.0346 13.0015 13.666C13.0015 13.2973 13.2968 12.9993 13.6655 12.9993H13.6715ZM14.07 9.93351C14.2654 10.1288 14.2654 10.4455 14.07 10.6408L10.6427 14.0675C10.5454 14.1655 10.4174 14.2142 10.2894 14.2142C10.1614 14.2142 10.0334 14.1655 9.93602 14.0675C9.74069 13.8722 9.74069 13.5562 9.93602 13.3608L13.3627 9.93351C13.558 9.73818 13.8747 9.73818 14.07 9.93351ZM10.3382 9.66598C10.7068 9.66598 11.0048 9.96398 11.0048 10.3326C11.0048 10.7013 10.7068 10.9993 10.3382 10.9993C9.96949 10.9993 9.66815 10.7013 9.66815 10.3326C9.66815 9.96398 9.96349 9.66598 10.3322 9.66598H10.3382Z" fill="#232D50"/>
</svg>
