<svg width="24" height="24" viewBox="0 0 24 24" fill="none" xmlns="http://www.w3.org/2000/svg">
<path d="M17.6 6.5H6.4C5.35 6.5 4.5 7.35 4.5 8.4V15.6C4.5 16.65 5.35 17.5 6.4 17.5H17.6C18.65 17.5 19.5 16.65 19.5 15.6V8.4C19.5 7.35 18.65 6.5 17.6 6.5ZM18.5 15.6C18.5 16.095 18.095 16.5 17.6 16.5H6.4C5.905 16.5 5.5 16.095 5.5 15.6V8.4C5.5 7.905 5.905 7.5 6.4 7.5H17.6C18.095 7.5 18.5 7.905 18.5 8.4V15.6Z" fill="#232D50"/>
<path d="M9 14.5H7C6.86739 14.5 6.74021 14.5527 6.64645 14.6464C6.55268 14.7402 6.5 14.8674 6.5 15C6.5 15.1326 6.55268 15.2598 6.64645 15.3536C6.74021 15.4473 6.86739 15.5 7 15.5H9C9.13261 15.5 9.25979 15.4473 9.35355 15.3536C9.44732 15.2598 9.5 15.1326 9.5 15C9.5 14.8674 9.44732 14.7402 9.35355 14.6464C9.25979 14.5527 9.13261 14.5 9 14.5ZM17 9H7C6.86739 9 6.74021 9.05268 6.64645 9.14645C6.55268 9.24021 6.5 9.36739 6.5 9.5C6.5 9.63261 6.55268 9.75979 6.64645 9.85355C6.74021 9.94732 6.86739 10 7 10H17C17.1326 10 17.2598 9.94732 17.3536 9.85355C17.4473 9.75979 17.5 9.63261 17.5 9.5C17.5 9.36739 17.4473 9.24021 17.3536 9.14645C17.2598 9.05268 17.1326 9 17 9Z" fill="#232D50"/>
</svg>
