<svg width="24" height="24" viewBox="0 0 24 24" fill="none" xmlns="http://www.w3.org/2000/svg">
<path fill-rule="evenodd" clip-rule="evenodd" d="M13.9339 5.39465C14.2099 5.39465 14.4339 5.61865 14.4339 5.89465C14.4339 6.17065 14.2099 6.39465 13.9339 6.39465H9.0886C7.4166 6.39465 6.33594 7.54399 6.33594 9.32399V14.712C6.33594 16.5153 7.3906 17.6353 9.0886 17.6353H14.8246C16.4966 17.6353 17.5773 16.488 17.5773 14.712V10.0193C17.5773 9.74332 17.8013 9.51932 18.0773 9.51932C18.3533 9.51932 18.5773 9.74332 18.5773 10.0193V14.712C18.5773 17.0587 17.0693 18.6353 14.8246 18.6353H9.0886C6.84394 18.6353 5.33594 17.0587 5.33594 14.712V9.32399C5.33594 6.97399 6.84394 5.39465 9.0886 5.39465H13.9339ZM15.3442 9.94785C15.5629 10.1172 15.6029 10.4312 15.4335 10.6492L13.4802 13.1692C13.3989 13.2745 13.2789 13.3432 13.1469 13.3592C13.0135 13.3772 12.8815 13.3385 12.7762 13.2565L10.8975 11.7805L9.2102 13.9732C9.11154 14.1012 8.96354 14.1685 8.81354 14.1685C8.70687 14.1685 8.59954 14.1345 8.50887 14.0652C8.2902 13.8965 8.24887 13.5825 8.41754 13.3639L10.4129 10.7705C10.4942 10.6645 10.6149 10.5959 10.7469 10.5792C10.8815 10.5619 11.0135 10.5992 11.1182 10.6825L12.9982 12.1592L14.6429 10.0372C14.8122 9.81785 15.1255 9.77719 15.3442 9.94785ZM17.3142 4.83325C18.2969 4.83325 19.0955 5.63192 19.0955 6.61459C19.0955 7.59725 18.2969 8.39659 17.3142 8.39659C16.3322 8.39659 15.5329 7.59725 15.5329 6.61459C15.5329 5.63192 16.3322 4.83325 17.3142 4.83325ZM17.3142 5.83325C16.8835 5.83325 16.5329 6.18325 16.5329 6.61459C16.5329 7.04525 16.8835 7.39659 17.3142 7.39659C17.7449 7.39659 18.0955 7.04525 18.0955 6.61459C18.0955 6.18325 17.7449 5.83325 17.3142 5.83325Z" fill="#232D50"/>
</svg>
