<svg width="24" height="24" viewBox="0 0 24 24" fill="none" xmlns="http://www.w3.org/2000/svg">
<path fill-rule="evenodd" clip-rule="evenodd" d="M9.02958 17.3013C9.50558 17.3013 9.89291 17.6879 9.89291 18.1639C9.89291 18.6399 9.50558 19.0273 9.02958 19.0273C8.55358 19.0273 8.16691 18.6399 8.16691 18.1639C8.16691 17.6879 8.55358 17.3013 9.02958 17.3013ZM16.5498 17.3013C17.0264 17.3013 17.4138 17.6879 17.4138 18.1639C17.4138 18.6399 17.0264 19.0273 16.5498 19.0273C16.0738 19.0273 15.6871 18.6399 15.6871 18.1639C15.6871 17.6879 16.0738 17.3013 16.5498 17.3013ZM6.17905 6.00632L7.56571 6.24632C7.78905 6.28566 7.95905 6.47099 7.97838 6.69766L8.13505 8.56499L8.71761 8.56524C8.81268 8.56528 8.90673 8.56533 8.99979 8.56537L10.0693 8.56588C10.1546 8.56592 10.2389 8.56596 10.3222 8.56601L11.5032 8.56665C11.5774 8.5667 11.6507 8.56674 11.7231 8.56678L12.5506 8.56731C12.6162 8.56736 12.6809 8.5674 12.7448 8.56744L13.4727 8.56798C13.5302 8.56803 13.5869 8.56807 13.6428 8.56812L14.2774 8.56866C14.3273 8.56871 14.3765 8.56875 14.425 8.5688L14.8421 8.56921C14.8863 8.56926 14.9299 8.56931 14.9728 8.56935L15.4559 8.56991C15.4935 8.56996 15.5306 8.57001 15.567 8.57005L15.9748 8.57062C16.0064 8.57067 16.0375 8.57072 16.068 8.57077L16.3272 8.5712C16.3543 8.57125 16.3809 8.5713 16.4071 8.57135L16.6958 8.57193C16.7179 8.57198 16.7395 8.57203 16.7606 8.57208L16.9383 8.57252C16.9567 8.57257 16.9746 8.57262 16.9922 8.57267L17.1827 8.57327C17.197 8.57332 17.2109 8.57337 17.2244 8.57342L17.3362 8.57388C17.3476 8.57393 17.3586 8.57398 17.3693 8.57403L17.4825 8.57465C17.4907 8.5747 17.4986 8.57475 17.5063 8.5748L17.568 8.57527C17.574 8.57533 17.5799 8.57538 17.5855 8.57543L17.6299 8.5759C17.6342 8.57596 17.6383 8.57601 17.6422 8.57606L17.6724 8.57654C17.6752 8.57659 17.6779 8.57665 17.6804 8.5767L17.6995 8.57718C17.7013 8.57724 17.7029 8.57729 17.7044 8.57735L17.7183 8.578L17.7206 8.57816C17.7271 8.57877 17.729 8.57899 17.729 8.57899C18.1004 8.63299 18.427 8.82699 18.6497 9.12566C18.8724 9.42366 18.9657 9.79099 18.9124 10.159L18.2797 14.531C18.1604 15.363 17.4377 15.9903 16.5977 15.9903H9.31705C8.43905 15.9903 7.69571 15.305 7.62438 14.4283L7.01371 7.16566L6.00905 6.99232C5.73638 6.94432 5.55438 6.68632 5.60105 6.41366C5.64905 6.14099 5.91238 5.96366 6.17905 6.00632ZM8.58387 9.56522L8.21905 9.56499L8.62105 14.3463C8.65038 14.7143 8.95105 14.9903 9.31838 14.9903H16.5964C16.9437 14.9903 17.2404 14.7317 17.2897 14.3883L17.923 10.0157C17.9377 9.91166 17.9117 9.80766 17.8484 9.72366C17.7857 9.63899 17.6937 9.58433 17.5897 9.56966C17.5849 9.56984 17.5734 9.57001 17.5555 9.57016L17.483 9.57058C17.4678 9.57064 17.4511 9.5707 17.433 9.57075L17.0553 9.57133C17.0234 9.57135 16.9903 9.57137 16.956 9.57139L16.068 9.57135C16.0184 9.57133 15.9679 9.57131 15.9166 9.57129L14.9032 9.57067C14.8424 9.57063 14.7811 9.57058 14.7191 9.57053L14.1456 9.57007C14.0803 9.57002 14.0145 9.56996 13.9483 9.56991L13.3409 9.56937C13.2723 9.56931 13.2034 9.56925 13.1341 9.56919L12.7158 9.5688C12.6456 9.56874 12.5752 9.56867 12.5046 9.56861L11.8661 9.56801C11.7949 9.56794 11.7237 9.56788 11.6525 9.56781L11.2254 9.56741C11.1543 9.56735 11.0833 9.56728 11.0124 9.56722L10.5889 9.56683C10.5187 9.56677 10.4487 9.56671 10.3789 9.56665L9.75857 9.56611C9.69062 9.56605 9.62303 9.566 9.55586 9.56594L8.77191 9.56535C8.70864 9.5653 8.64595 9.56526 8.58387 9.56522ZM15.5256 11.0292C15.8016 11.0292 16.0256 11.2532 16.0256 11.5292C16.0256 11.8052 15.8016 12.0292 15.5256 12.0292H13.6776C13.401 12.0292 13.1776 11.8052 13.1776 11.5292C13.1776 11.2532 13.401 11.0292 13.6776 11.0292H15.5256Z" fill="#232D50"/>
</svg>
