<svg width="184" height="36" viewBox="0 0 184 36" fill="none" xmlns="http://www.w3.org/2000/svg">
<path d="M5.88718 35.9341H0V0.00881672H14.204C15.288 -0.0194079 16.7644 0.00881671 18.4932 0.262839C19.951 0.474524 21.7218 0.73325 23.829 1.66466C24.628 2.01747 26.8427 3.0806 29.0434 5.28683C29.5387 5.78076 31.0058 7.31901 32.2767 9.74633C33.6503 12.3759 34.0475 14.6292 34.1269 15.109C34.2671 15.9511 34.5801 18.242 34.0475 21.1209C33.7718 22.6074 33.3513 23.8163 32.9962 24.6772C31.3282 23.1389 29.6648 21.6007 27.9968 20.0624C28.1416 19.5497 28.3005 18.8112 28.3379 17.9174C28.4266 15.8852 27.8333 14.3611 27.5296 13.6084C27.2726 12.9686 26.4082 10.9835 24.3944 9.20065C22.7451 7.73767 21.1191 7.11673 20.535 6.90975C18.7642 6.28881 17.2036 6.24647 16.2692 6.22295C15.7505 6.20884 15.316 6.22295 15.0123 6.23706C11.9706 6.22765 8.92888 6.21825 5.89185 6.20884V35.9294L5.88718 35.9341Z" fill="url(#paint0_linear_802_4380)"/>
<path d="M8.15796 35.9342V8.38687H14.204C20.6051 14.8503 27.0063 21.3185 33.4121 27.7819C33.7532 27.2033 34.169 26.4224 34.5755 25.4675C35.5333 23.2048 35.837 21.3091 35.9258 20.6646C36.351 17.6728 35.9024 15.3207 35.6875 14.2153C34.7577 9.52526 32.3748 6.16653 30.889 4.39308C32.1879 3.08534 33.4868 1.77759 34.7857 0.469849C35.5146 1.10961 36.4771 2.04573 37.449 3.31584C39.5656 6.08185 40.3973 8.70204 40.8598 10.2215C42.6447 16.0311 41.8784 20.9986 41.57 22.6356C41.1402 24.9265 40.5374 27.9607 38.2667 31.1077C36.4631 33.6056 34.3699 35.1109 32.9962 35.9436C26.7353 29.593 20.4696 23.2425 14.2087 16.8919V29.7012C15.1058 29.8376 16.2411 29.9223 17.5401 29.8C19.8389 29.5836 21.619 28.8168 22.7217 28.2241C24.1001 29.6118 25.4784 30.9995 26.8568 32.3872C25.9083 33.1446 24.5206 34.0807 22.6843 34.8193C20.4556 35.7131 18.4699 35.9483 17.1336 36C14.1433 35.9812 11.1529 35.9624 8.16263 35.9436L8.15796 35.9342Z" fill="url(#paint1_linear_802_4380)"/>
<path d="M54 27.6412V8.3588H61.7323C63.7064 8.3588 65.4563 8.76108 66.982 9.57108C68.5076 10.3811 69.6997 11.5118 70.5583 12.9742C71.4168 14.4365 71.8488 16.1109 71.8488 18.0027C71.8488 19.8945 71.4168 21.5689 70.5583 23.0313C69.6997 24.4936 68.5076 25.6244 66.982 26.4344C65.4563 27.2444 63.7064 27.6466 61.7323 27.6466H54V27.6412ZM61.4808 22.8192C63.0119 22.8192 64.2314 22.3843 65.1391 21.5091C66.0414 20.6393 66.4953 19.4651 66.4953 17.9973C66.4953 16.5295 66.0414 15.3553 65.1391 14.4855C64.2314 13.6157 63.0119 13.1753 61.4808 13.1753H59.2059V22.8192H61.4808Z" fill="#007346"/>
<path d="M79.7944 20.2044V23.0421H87.5541V27.6412H74.6432V8.3588H87.3353V12.8763H79.7999V15.7684H86.7557V20.2044H79.7999H79.7944Z" fill="#007346"/>
<path d="M96.03 8.3588H100.826L107.891 27.065V27.6412H102.488L101.575 24.6676H95.3137L94.3458 27.6412H88.9977V27.065L96.0355 8.3588H96.03ZM96.5277 20.5632H100.35L98.4361 15.1106L96.5222 20.5632H96.5277Z" fill="#007346"/>
<path d="M115.18 8.3588V22.8192H123.131V27.6412H109.969V8.3588H115.18Z" fill="#007346"/>
<path d="M136.709 13.7026V8.3588H141.861V27.6412H137.869L130.804 18.0027L130.886 22.9606V27.6412H125.734V8.3588H129.672L136.791 18.0571L136.709 13.7026Z" fill="#007346"/>
<path d="M149.62 26.717C148.067 25.8635 146.853 24.673 145.978 23.1509C145.103 21.6287 144.66 19.9108 144.66 18.0027C144.66 16.0946 145.098 14.3767 145.978 12.8491C146.853 11.327 148.073 10.1364 149.62 9.28296C151.173 8.42946 152.934 8 154.914 8C156.893 8 158.627 8.42946 160.18 9.28296C161.733 10.1364 162.947 11.327 163.822 12.8491C164.697 14.3713 165.14 16.0892 165.14 18.0027C165.14 19.9163 164.702 21.6287 163.822 23.1509C162.947 24.673 161.727 25.8635 160.18 26.717C158.627 27.5705 156.871 28 154.914 28C152.956 28 151.173 27.5705 149.62 26.717ZM157.418 22.3898C158.167 21.9603 158.747 21.3623 159.163 20.6012C159.578 19.8402 159.786 18.9704 159.786 17.9973C159.786 17.0242 159.578 16.1544 159.163 15.3933C158.747 14.6322 158.167 14.0342 157.418 13.6048C156.669 13.1753 155.832 12.9579 154.908 12.9579C153.984 12.9579 153.147 13.1753 152.404 13.6048C151.66 14.0342 151.069 14.6322 150.643 15.3933C150.216 16.1544 150.003 17.0242 150.003 17.9973C150.003 18.9704 150.216 19.8402 150.643 20.6012C151.069 21.3623 151.654 21.9603 152.404 22.3898C153.153 22.8192 153.989 23.0367 154.908 23.0367C155.827 23.0367 156.669 22.8192 157.418 22.3898Z" fill="#007346"/>
<path d="M183.672 8.93504L178.018 17.807L184 27.065V27.6412H178.318L175.715 23.4009L174.687 21.6668L173.637 23.4009L171.034 27.6412H165.407V27.065L171.423 17.807L165.823 8.93504V8.3588H171.335L173.692 12.2729L174.687 14.0071L175.715 12.2729L178.127 8.3588H183.666V8.93504H183.672Z" fill="#007346"/>
<defs>
<linearGradient id="paint0_linear_802_4380" x1="15.9466" y1="-0.499085" x2="15.9466" y2="35.9341" gradientUnits="userSpaceOnUse">
<stop stop-color="#13B177"/>
<stop offset="1" stop-color="#007346"/>
</linearGradient>
<linearGradient id="paint1_linear_802_4380" x1="23.8703" y1="-0.0236257" x2="23.8703" y2="36" gradientUnits="userSpaceOnUse">
<stop stop-color="#13B177"/>
<stop offset="1" stop-color="#007346"/>
</linearGradient>
</defs>
</svg>
