<svg width="192" height="38" viewBox="0 0 192 38" fill="none" xmlns="http://www.w3.org/2000/svg">
<path d="M6.14314 37.9305H0V0.00930654H14.8215C15.9527 -0.0204862 17.4933 0.00930653 19.2973 0.277441C20.8184 0.500886 22.6662 0.773986 24.8651 1.75715C25.6988 2.12955 28.0098 3.25175 30.3062 5.58054C30.823 6.10191 32.3539 7.72562 33.68 10.2878C35.1134 13.0635 35.5278 15.4419 35.6107 15.9484C35.757 16.8372 36.0836 19.2554 35.5278 22.2942C35.2402 23.8633 34.8014 25.1395 34.4308 26.0481C32.6903 24.4244 30.9546 22.8007 29.214 21.177C29.3652 20.6358 29.5309 19.8562 29.57 18.9128C29.6626 16.7677 29.0434 15.1589 28.7265 14.3644C28.4583 13.6891 27.5564 11.5937 25.455 9.7118C23.734 8.16754 22.0373 7.5121 21.4279 7.29362C19.58 6.63818 17.9516 6.59349 16.9765 6.56867C16.4353 6.55377 15.9819 6.56867 15.665 6.58356C12.4911 6.57363 9.31709 6.5637 6.14801 6.55377V37.9255L6.14314 37.9305Z" fill="#04AD6C"/>
<path d="M8.5127 37.9306V8.85295H14.8216C21.501 15.6755 28.1805 22.503 34.8648 29.3255C35.2207 28.7148 35.6546 27.8905 36.0788 26.8825C37.0783 24.4941 37.3952 22.493 37.4878 21.8128C37.9315 18.6547 37.4635 16.172 37.2392 15.0051C36.269 10.0546 33.7825 6.50925 32.232 4.63728C33.5874 3.25688 34.9428 1.87649 36.2982 0.496094C37.0588 1.1714 38.0632 2.15952 39.0773 3.50019C41.2859 6.41988 42.1537 9.18563 42.6364 10.7895C44.4988 16.9218 43.6992 22.1653 43.3775 23.8933C42.9289 26.3115 42.3 29.5142 39.9305 32.8361C38.0485 35.4727 35.8643 37.0617 34.4309 37.9406C27.8977 31.2372 21.3597 24.5338 14.8265 17.8305V31.3514C15.7626 31.4954 16.9473 31.5848 18.3027 31.4557C20.7015 31.2273 22.559 30.4179 23.7097 29.7923C25.1479 31.2571 26.5862 32.7219 28.0245 34.1867C27.0347 34.9861 25.5867 35.9742 23.6706 36.7538C21.345 37.6972 19.2729 37.9455 17.8785 38.0001C14.7582 37.9803 11.6379 37.9604 8.51757 37.9406L8.5127 37.9306Z" fill="#04AD6C"/>
<path d="M56.3479 29.1769V8.82324H64.4164C66.4763 8.82324 68.3023 9.24787 69.8943 10.1029C71.4863 10.9579 72.7302 12.1514 73.6261 13.695C74.522 15.2386 74.9728 17.006 74.9728 19.0029C74.9728 20.9999 74.522 22.7672 73.6261 24.3108C72.7302 25.8544 71.4863 27.048 69.8943 27.903C68.3023 28.758 66.4763 29.1826 64.4164 29.1826H56.3479V29.1769ZM64.1539 24.087C65.7516 24.087 67.0241 23.628 67.9713 22.7041C68.9128 21.786 69.3864 20.5465 69.3864 18.9972C69.3864 17.4479 68.9128 16.2084 67.9713 15.2903C67.0241 14.3722 65.7516 13.9074 64.1539 13.9074H61.7802V24.087H64.1539Z" fill="#F6FAFB"/>
<path d="M83.2639 21.3269V24.3223H91.3609V29.1769H77.8887V8.82324H91.1326V13.5917H83.2696V16.6445H90.5278V21.3269H83.2696H83.2639Z" fill="#F6FAFB"/>
<path d="M100.205 8.82324H105.21L112.582 28.5686V29.1769H106.944L105.991 26.0381H99.4578L98.4478 29.1769H92.8672V28.5686L100.211 8.82324H100.205ZM100.725 21.7057H104.713L102.716 15.9502L100.719 21.7057H100.725Z" fill="#F6FAFB"/>
<path d="M120.188 8.82324V24.087H128.485V29.1769H114.75V8.82324H120.188Z" fill="#F6FAFB"/>
<path d="M142.653 14.464V8.82324H148.029V29.1769H143.863L136.491 19.0029L136.576 24.2362V29.1769H131.201V8.82324H135.31L142.739 19.0603L142.653 14.464Z" fill="#F6FAFB"/>
<path d="M156.126 28.2012C154.505 27.3003 153.238 26.0436 152.325 24.4369C151.412 22.8302 150.95 21.0169 150.95 19.0028C150.95 16.9886 151.407 15.1753 152.325 13.5629C153.238 11.9562 154.511 10.6995 156.126 9.79857C157.746 8.89766 159.584 8.44434 161.649 8.44434C163.715 8.44434 165.524 8.89766 167.144 9.79857C168.765 10.6995 170.032 11.9562 170.945 13.5629C171.858 15.1696 172.32 16.9829 172.32 19.0028C172.32 21.0226 171.863 22.8302 170.945 24.4369C170.032 26.0436 168.759 27.3003 167.144 28.2012C165.524 29.1021 163.692 29.5554 161.649 29.5554C159.606 29.5554 157.746 29.1021 156.126 28.2012ZM164.263 23.6335C165.044 23.1802 165.649 22.549 166.083 21.7457C166.517 20.9423 166.733 20.0242 166.733 18.997C166.733 17.9699 166.517 17.0517 166.083 16.2484C165.649 15.445 165.044 14.8138 164.263 14.3605C163.481 13.9072 162.608 13.6776 161.644 13.6776C160.679 13.6776 159.806 13.9072 159.03 14.3605C158.254 14.8138 157.638 15.445 157.193 16.2484C156.748 17.0517 156.525 17.9699 156.525 18.997C156.525 20.0242 156.748 20.9423 157.193 21.7457C157.638 22.549 158.248 23.1802 159.03 23.6335C159.812 24.0869 160.685 24.3164 161.644 24.3164C162.602 24.3164 163.481 24.0869 164.263 23.6335Z" fill="#F6FAFB"/>
<path d="M191.658 9.4315L185.757 18.7964L192 28.5686V29.1769H186.071L183.355 24.701L182.282 22.8705L181.187 24.701L178.471 29.1769H172.599V28.5686L178.876 18.7964L173.033 9.4315V8.82324H178.785L181.244 12.9548L182.282 14.7853L183.355 12.9548L185.872 8.82324H191.652V9.4315H191.658Z" fill="#F6FAFB"/>
</svg>
