<svg width="64" height="64" viewBox="0 0 64 64" fill="none" xmlns="http://www.w3.org/2000/svg">
<path d="M51.8229 37C51.0463 37.0007 50.2976 37.2905 49.7229 37.813L49.6409 37.888C49.4403 37.4772 49.1581 37.1116 48.8115 36.8136C48.4649 36.5155 48.0611 36.2912 47.6249 36.1544C47.1887 36.0176 46.7292 35.9711 46.2745 36.0178C45.8197 36.0645 45.3792 36.2034 44.9799 36.426C44.9142 36.4622 44.8528 36.5058 44.7969 36.556L40.4199 40.487C40.1096 40.0287 39.6916 39.6535 39.2026 39.3943C38.7136 39.135 38.1684 38.9996 37.6149 39C37.5623 38.9999 37.5098 39.0042 37.4579 39.013L24.8429 41.013C24.6522 41.0435 24.4744 41.1286 24.3309 41.258L15.2809 49.4L14.9099 48.584C14.8543 48.4617 14.7747 48.3518 14.6756 48.2609C14.5766 48.1701 14.4603 48.1001 14.3336 48.0552C14.207 48.0103 14.0726 47.9914 13.9384 47.9996C13.8043 48.0078 13.6732 48.043 13.5529 48.103L9.55295 50.103C9.3213 50.2188 9.14359 50.4199 9.05724 50.6641C8.97088 50.9082 8.98261 51.1763 9.08995 51.412L14.0899 62.412C14.1691 62.5871 14.297 62.7356 14.4584 62.8399C14.6198 62.9442 14.8078 62.9998 14.9999 63C15.1546 63.0013 15.3075 62.9671 15.4469 62.9L19.4469 60.9C19.6786 60.7842 19.8563 60.5831 19.9427 60.339C20.029 60.0948 20.0173 59.8267 19.9099 59.591L19.7529 59.246L24.2359 57H35.0799C37.8676 57.0017 40.5505 55.9382 42.5799 54.027L54.0999 42.323C54.6795 41.7378 55.0032 40.9466 54.9999 40.123C54.9975 39.709 54.9132 39.2996 54.752 38.9183C54.5908 38.537 54.3558 38.1913 54.0606 37.9011C53.7654 37.6109 53.4157 37.3819 53.0317 37.2273C52.6477 37.0726 52.2369 36.9954 51.8229 37ZM46.0329 38.129C46.2432 38.0311 46.4747 37.9876 46.7061 38.0025C46.9376 38.0175 47.1616 38.0904 47.3575 38.2146C47.5534 38.3388 47.7149 38.5102 47.8271 38.7132C47.9394 38.9161 47.9988 39.1441 47.9999 39.376L39.6129 47H35.1939L38.8719 45.529C39.4552 45.2967 39.9618 44.9056 40.3342 44.4001C40.7066 43.8946 40.9299 43.2949 40.9789 42.669L46.0329 38.129ZM15.4809 60.642L11.3089 51.463L13.5189 50.358L17.6909 59.537L15.4809 60.642ZM52.6809 40.919L41.1839 52.594C39.5289 54.1425 37.3464 55.0028 35.0799 55H23.9999C23.8452 54.9983 23.6922 55.0325 23.5529 55.1L18.9249 57.414L16.1489 51.306L25.4489 42.936L37.6839 41C37.9998 41.0154 38.3009 41.1385 38.5371 41.3487C38.7733 41.559 38.9305 41.8437 38.9825 42.1557C39.0345 42.4676 38.9782 42.7879 38.8229 43.0634C38.6676 43.3389 38.4227 43.553 38.1289 43.67L29.6289 47.07C29.4122 47.1557 29.2322 47.3143 29.12 47.5186C29.0078 47.7229 28.9705 47.9599 29.0145 48.1888C29.0585 48.4176 29.181 48.624 29.3609 48.7721C29.5409 48.9202 29.7669 49.0008 29.9999 49H39.9999C40.2488 49.0001 40.4888 48.9074 40.6729 48.74L51.0639 39.293C51.2859 39.0957 51.5751 38.9908 51.8719 39C52.0939 39.0008 52.3107 39.0671 52.4951 39.1905C52.6796 39.314 52.8235 39.4891 52.9089 39.694C52.9943 39.8988 53.0174 40.1243 52.9752 40.3422C52.9331 40.5601 52.8276 40.7608 52.6719 40.919H52.6809ZM52.9999 32H50.9999V15C50.9999 14.7348 50.8946 14.4804 50.7071 14.2929C50.5195 14.1054 50.2652 14 49.9999 14H43.9999C43.7347 14 43.4804 14.1054 43.2928 14.2929C43.1053 14.4804 42.9999 14.7348 42.9999 15V32H40.9999V19C40.9999 18.7348 40.8946 18.4804 40.7071 18.2929C40.5195 18.1054 40.2652 18 39.9999 18H33.9999C33.7347 18 33.4804 18.1054 33.2928 18.2929C33.1053 18.4804 32.9999 18.7348 32.9999 19V32H30.9999V23C30.9999 22.7348 30.8946 22.4804 30.7071 22.2929C30.5195 22.1054 30.2652 22 29.9999 22H23.9999C23.7347 22 23.4804 22.1054 23.2928 22.2929C23.1053 22.4804 22.9999 22.7348 22.9999 23V32H20.9999V27C20.9999 26.7348 20.8946 26.4804 20.7071 26.2929C20.5195 26.1054 20.2652 26 19.9999 26H13.9999C13.7347 26 13.4804 26.1054 13.2928 26.2929C13.1053 26.4804 12.9999 26.7348 12.9999 27V32H10.9999V34H52.9999V32ZM44.9999 16H48.9999V32H44.9999V16ZM34.9999 20H38.9999V32H34.9999V20ZM24.9999 24H28.9999V32H24.9999V24ZM14.9999 28H18.9999V32H14.9999V28ZM19.9999 19H20.0759L20.3079 18.982C28.3402 18.3509 35.7997 14.578 41.0679 8.482L43.2929 10.707C43.4328 10.8468 43.611 10.942 43.8049 10.9806C43.9989 11.0192 44.1999 10.9993 44.3826 10.9237C44.5653 10.848 44.7215 10.7199 44.8313 10.5555C44.9412 10.391 44.9999 10.1978 44.9999 10V2C44.9999 1.73478 44.8946 1.48043 44.7071 1.29289C44.5195 1.10536 44.2652 1 43.9999 1H35.9999C35.8022 1.00004 35.6089 1.05871 35.4445 1.1686C35.2801 1.27848 35.1519 1.43465 35.0763 1.61735C35.0006 1.80005 34.9808 2.00108 35.0194 2.19503C35.0579 2.38898 35.1531 2.56715 35.2929 2.707L37.5199 4.934C32.714 8.76087 26.6189 10.5901 20.4999 10.042L20.0899 10C19.9513 9.98747 19.8115 10.004 19.6796 10.0486C19.5477 10.0933 19.4265 10.1649 19.3239 10.2591C19.2213 10.3532 19.1395 10.4677 19.0837 10.5953C19.0279 10.7229 18.9994 10.8608 18.9999 11V18C18.9999 18.2652 19.1053 18.5196 19.2928 18.7071C19.4804 18.8946 19.7347 19 19.9999 19ZM20.9999 12.086C27.8106 12.5112 34.5146 10.2355 39.6589 5.752C39.7618 5.6618 39.8451 5.55144 39.9037 5.42775C39.9622 5.30406 39.9947 5.16967 39.9992 5.03291C40.0037 4.89614 39.9801 4.75991 39.9298 4.63264C39.8796 4.50537 39.8037 4.38977 39.7069 4.293L38.4139 3H42.9999V7.586L41.7069 6.293C41.6075 6.19353 41.4882 6.11614 41.3569 6.0659C41.2255 6.01566 41.085 5.99369 40.9446 6.00143C40.8042 6.00916 40.667 6.04644 40.5419 6.11081C40.4169 6.17518 40.3068 6.2652 40.2189 6.375C37.8653 9.30803 34.9562 11.7481 31.6584 13.5555C28.3605 15.3629 24.7386 16.5021 20.9999 16.908V12.086Z" fill="#4889FE"/>
</svg>
