<svg width="64" height="64" viewBox="0 0 64 64" fill="none" xmlns="http://www.w3.org/2000/svg">
<path d="M7 29H5V44C5 44.2652 5.10536 44.5196 5.29289 44.7071C5.48043 44.8946 5.73478 45 6 45H25V43H7V29Z" fill="#FF8A57"/>
<path d="M11 40H12V42H14V40H15C15.2652 40 15.5196 39.8946 15.7071 39.7071C15.8946 39.5196 16 39.2652 16 39V35C16 34.7348 15.8946 34.4804 15.7071 34.2929C15.5196 34.1054 15.2652 34 15 34H14V32H12V34H11C10.7348 34 10.4804 34.1054 10.2929 34.2929C10.1054 34.4804 10 34.7348 10 35V39C10 39.2652 10.1054 39.5196 10.2929 39.7071C10.4804 39.8946 10.7348 40 11 40ZM12 36H14V38H12V36ZM19 38H20V40H22V38H23C23.2652 38 23.5196 37.8946 23.7071 37.7071C23.8946 37.5196 24 37.2652 24 37V33C24 32.7348 23.8946 32.4804 23.7071 32.2929C23.5196 32.1054 23.2652 32 23 32H22V30H20V32H19C18.7348 32 18.4804 32.1054 18.2929 32.2929C18.1054 32.4804 18 32.7348 18 33V37C18 37.2652 18.1054 37.5196 18.2929 37.7071C18.4804 37.8946 18.7348 38 19 38ZM20 34H22V36H20V34Z" fill="#FF8A57"/>
<path d="M60 9H56V6C55.9967 3.24 53.76 1.00325 51 1H13C10.24 1.00325 8.00325 3.24 8 6V25H4C2.34312 25 1 26.3431 1 28V46C1 47.6569 2.34312 49 4 49H8V58C8.00325 60.76 10.24 62.9967 13 63H51C53.76 62.9967 55.9967 60.76 56 58V33H60C61.6569 33 63 31.6569 63 30V12C63 10.3431 61.6569 9 60 9ZM10 6C10 4.34312 11.3431 3 13 3H51C52.6569 3 54 4.34312 54 6V9H52V6C52 5.73478 51.8946 5.48043 51.7071 5.29289C51.5196 5.10536 51.2652 5 51 5H13C12.7348 5 12.4804 5.10536 12.2929 5.29289C12.1054 5.48043 12 5.73478 12 6V24H14V7H50V9H37C35.3431 9 34 10.3431 34 12V16.586L29.293 21.293C29.1532 21.4329 29.058 21.611 29.0194 21.805C28.9808 21.9989 29.0007 22.2 29.0763 22.3827C29.152 22.5654 29.2801 22.7215 29.4445 22.8314C29.609 22.9413 29.8022 23 30 23H34V30C34 31.6569 35.3431 33 37 33H50V51H14V49H27C28.6569 49 30 47.6569 30 46V41.414L34.707 36.707C34.8468 36.5672 34.942 36.389 34.9806 36.195C35.0191 36.0011 34.9993 35.8 34.9237 35.6173C34.848 35.4346 34.7199 35.2785 34.5555 35.1686C34.391 35.0587 34.1978 35 34 35H30V28C30 26.3431 28.6569 25 27 25H10V6ZM3 46V28C3 27.7348 3.10536 27.4804 3.29289 27.2929C3.48043 27.1054 3.73478 27 4 27H27C27.2652 27 27.5196 27.1054 27.7071 27.2929C27.8946 27.4804 28 27.7348 28 28V36C28 36.2652 28.1054 36.5196 28.2929 36.7071C28.4804 36.8946 28.7348 37 29 37H31.586L28.293 40.293C28.1054 40.4805 28.0001 40.7348 28 41V46C28 46.2652 27.8946 46.5196 27.7071 46.7071C27.5196 46.8946 27.2652 47 27 47H4C3.73478 47 3.48043 46.8946 3.29289 46.7071C3.10536 46.5196 3 46.2652 3 46ZM54 58C54 59.6569 52.6569 61 51 61H13C11.3431 61 10 59.6569 10 58V49H12V52C12 52.2652 12.1054 52.5196 12.2929 52.7071C12.4804 52.8946 12.7348 53 13 53H51C51.2652 53 51.5196 52.8946 51.7071 52.7071C51.8946 52.5196 52 52.2652 52 52V33H54V58ZM61 30C61 30.2652 60.8946 30.5196 60.7071 30.7071C60.5196 30.8946 60.2652 31 60 31H37C36.7348 31 36.4804 30.8946 36.2929 30.7071C36.1054 30.5196 36 30.2652 36 30V22C36 21.7348 35.8946 21.4804 35.7071 21.2929C35.5196 21.1054 35.2652 21 35 21H32.414L35.707 17.707C35.8946 17.5195 35.9999 17.2652 36 17V12C36 11.7348 36.1054 11.4804 36.2929 11.2929C36.4804 11.1054 36.7348 11 37 11H60C60.2652 11 60.5196 11.1054 60.7071 11.2929C60.8946 11.4804 61 11.7348 61 12V30Z" fill="#FF8A57"/>
<path d="M40 13H38V28C38 28.2652 38.1054 28.5196 38.2929 28.7071C38.4804 28.8946 38.7348 29 39 29H58V27H40V13Z" fill="#FF8A57"/>
<path d="M44 24H45V26H47V24H48C48.2652 24 48.5196 23.8946 48.7071 23.7071C48.8946 23.5196 49 23.2652 49 23V19C49 18.7348 48.8946 18.4804 48.7071 18.2929C48.5196 18.1054 48.2652 18 48 18H47V16H45V18H44C43.7348 18 43.4804 18.1054 43.2929 18.2929C43.1054 18.4804 43 18.7348 43 19V23C43 23.2652 43.1054 23.5196 43.2929 23.7071C43.4804 23.8946 43.7348 24 44 24ZM45 20H47V22H45V20ZM52 22H53V24H55V22H56C56.2652 22 56.5196 21.8946 56.7071 21.7071C56.8946 21.5196 57 21.2652 57 21V17C57 16.7348 56.8946 16.4804 56.7071 16.2929C56.5196 16.1054 56.2652 16 56 16H55V14H53V16H52C51.7348 16 51.4804 16.1054 51.2929 16.2929C51.1054 16.4804 51 16.7348 51 17V21C51 21.2652 51.1054 21.5196 51.2929 21.7071C51.4804 21.8946 51.7348 22 52 22ZM53 18H55V20H53V18Z" fill="#FF8A57"/>
</svg>
