<svg width="62" height="62" viewBox="0 0 62 62" fill="none" xmlns="http://www.w3.org/2000/svg">
<path d="M31 39.9999C28.8244 39.9999 26.6977 40.6451 24.8887 41.8538C23.0798 43.0625 21.6699 44.7804 20.8373 46.7904C20.0048 48.8004 19.7869 51.0121 20.2114 53.1459C20.6358 55.2797 21.6835 57.2397 23.2218 58.7781C24.7602 60.3165 26.7202 61.3641 28.854 61.7886C30.9878 62.213 33.1995 61.9952 35.2095 61.1626C37.2195 60.33 38.9375 58.9202 40.1462 57.1112C41.3549 55.3023 42 53.1755 42 50.9999C41.9966 48.0836 40.8365 45.2877 38.7744 43.2256C36.7122 41.1634 33.9163 40.0034 31 39.9999ZM31 59.9999C29.22 59.9999 27.4799 59.4721 25.9999 58.4832C24.5198 57.4942 23.3663 56.0886 22.6851 54.4441C22.0039 52.7996 21.8257 50.99 22.1729 49.2441C22.5202 47.4983 23.3774 45.8947 24.636 44.636C25.8947 43.3773 27.4984 42.5201 29.2442 42.1729C30.99 41.8256 32.7996 42.0038 34.4442 42.685C36.0887 43.3662 37.4943 44.5198 38.4832 45.9998C39.4722 47.4798 40 49.2199 40 50.9999C39.9974 53.3861 39.0483 55.6737 37.361 57.361C35.6738 59.0482 33.3861 59.9973 31 59.9999ZM51 27.9999C48.8244 27.9999 46.6977 28.6451 44.8887 29.8538C43.0798 31.0625 41.6699 32.7804 40.8373 34.7904C40.0048 36.8004 39.7869 39.0121 40.2114 41.1459C40.6358 43.2797 41.6835 45.2397 43.2218 46.7781C44.7602 48.3165 46.7202 49.3641 48.854 49.7886C50.9878 50.213 53.1995 49.9952 55.2095 49.1626C57.2195 48.33 58.9375 46.9202 60.1462 45.1112C61.3549 43.3023 62 41.1755 62 38.9999C61.9966 36.0836 60.8365 33.2877 58.7744 31.2256C56.7122 29.1634 53.9163 28.0034 51 27.9999ZM51 47.9999C49.22 47.9999 47.4799 47.4721 45.9999 46.4832C44.5198 45.4942 43.3663 44.0886 42.6851 42.4441C42.0039 40.7996 41.8257 38.99 42.1729 37.2441C42.5202 35.4983 43.3774 33.8947 44.636 32.636C45.8947 31.3773 47.4984 30.5201 49.2442 30.1729C50.99 29.8256 52.7996 30.0038 54.4442 30.685C56.0887 31.3662 57.4943 32.5198 58.4832 33.9998C59.4722 35.4798 60 37.2199 60 38.9999C59.9974 41.3861 59.0483 43.6737 57.361 45.361C55.6738 47.0482 53.3861 47.9973 51 47.9999Z" fill="#04AD6C"/>
<path d="M11 28C8.82441 28 6.69767 28.6451 4.88873 29.8538C3.07979 31.0625 1.66989 32.7805 0.83733 34.7905C0.00476617 36.8004 -0.213071 39.0122 0.211367 41.146C0.635804 43.2798 1.68345 45.2398 3.22183 46.7781C4.76021 48.3165 6.72022 49.3642 8.85401 49.7886C10.9878 50.213 13.1995 49.9952 15.2095 49.1626C17.2195 48.3301 18.9375 46.9202 20.1462 45.1112C21.3549 43.3023 22 41.1756 22 39C21.9966 36.0836 20.8365 33.2878 18.7744 31.2256C16.7122 29.1634 13.9163 28.0034 11 28ZM11 48C9.21997 48 7.47992 47.4721 5.99987 46.4832C4.51983 45.4943 3.36628 44.0887 2.68509 42.4441C2.0039 40.7996 1.82567 38.99 2.17294 37.2442C2.5202 35.4983 3.37737 33.8947 4.63604 32.636C5.89472 31.3773 7.49836 30.5202 9.24419 30.1729C10.99 29.8256 12.7996 30.0039 14.4442 30.6851C16.0887 31.3662 17.4943 32.5198 18.4832 33.9998C19.4722 35.4799 20 37.2199 20 39C19.9974 41.3861 19.0483 43.6738 17.361 45.361C15.6738 47.0483 13.3861 47.9973 11 48ZM25 17H27V26C27 26.2652 27.1054 26.5195 27.2929 26.7071C27.4804 26.8946 27.7348 27 28 27H34C34.2652 27 34.5196 26.8946 34.7071 26.7071C34.8947 26.5195 35 26.2652 35 26V17H37C37.1978 16.9999 37.3911 16.9413 37.5555 16.8314C37.7199 16.7215 37.848 16.5653 37.9237 16.3826C37.9994 16.1999 38.0192 15.9989 37.9806 15.8049C37.942 15.611 37.8468 15.4328 37.707 15.293L31.707 9.29297C31.5195 9.1055 31.2652 9.00018 31 9.00018C30.7348 9.00018 30.4805 9.1055 30.293 9.29297L24.293 15.293C24.1532 15.4328 24.058 15.611 24.0194 15.8049C23.9809 15.9989 24.0007 16.1999 24.0763 16.3826C24.152 16.5653 24.2801 16.7215 24.4446 16.8314C24.609 16.9413 24.8023 16.9999 25 17ZM31 11.414L34.586 15H34C33.7348 15 33.4804 15.1053 33.2929 15.2929C33.1054 15.4804 33 15.7348 33 16V25H29V16C29 15.7348 28.8947 15.4804 28.7071 15.2929C28.5196 15.1053 28.2652 15 28 15H27.414L31 11.414ZM28 29H30V32H28V29ZM32 29H34V35H32V29ZM45 7.99997H47V17C47 17.2652 47.1054 17.5195 47.2929 17.7071C47.4804 17.8946 47.7348 18 48 18H54C54.2652 18 54.5196 17.8946 54.7071 17.7071C54.8947 17.5195 55 17.2652 55 17V7.99997H57C57.1978 7.99993 57.3911 7.94126 57.5555 7.83137C57.7199 7.72149 57.848 7.56532 57.9237 7.38262C57.9994 7.19992 58.0192 6.99889 57.9806 6.80494C57.942 6.61098 57.8468 6.43282 57.707 6.29297L51.707 0.29297C51.5195 0.105499 51.2652 0.000183105 51 0.000183105C50.7348 0.000183105 50.4805 0.105499 50.293 0.29297L44.293 6.29297C44.1532 6.43282 44.058 6.61098 44.0194 6.80494C43.9809 6.99889 44.0007 7.19992 44.0763 7.38262C44.152 7.56532 44.2801 7.72149 44.4445 7.83137C44.609 7.94126 44.8023 7.99993 45 7.99997ZM51 2.41397L54.586 5.99997H54C53.7348 5.99997 53.4804 6.10533 53.2929 6.29286C53.1054 6.4804 53 6.73475 53 6.99997V16H49V6.99997C49 6.73475 48.8947 6.4804 48.7071 6.29286C48.5196 6.10533 48.2652 5.99997 48 5.99997H47.414L51 2.41397ZM48 20H50V23H48V20ZM52 20H54V26H52V20ZM5.00001 7.99997H7.00001V17C7.00001 17.2652 7.10536 17.5195 7.2929 17.7071C7.48044 17.8946 7.73479 18 8.00001 18H14C14.2652 18 14.5196 17.8946 14.7071 17.7071C14.8946 17.5195 15 17.2652 15 17V7.99997H17C17.1978 7.99993 17.3911 7.94126 17.5555 7.83137C17.7199 7.72149 17.848 7.56532 17.9237 7.38262C17.9994 7.19992 18.0192 6.99889 17.9806 6.80494C17.942 6.61098 17.8468 6.43282 17.707 6.29297L11.707 0.29297C11.5195 0.105499 11.2652 0.000183105 11 0.000183105C10.7348 0.000183105 10.4805 0.105499 10.293 0.29297L4.29301 6.29297C4.1532 6.43282 4.05799 6.61098 4.01942 6.80494C3.98085 6.99889 4.00066 7.19992 4.07633 7.38262C4.152 7.56532 4.28014 7.72149 4.44455 7.83137C4.60896 7.94126 4.80226 7.99993 5.00001 7.99997ZM11 2.41397L14.586 5.99997H14C13.7348 5.99997 13.4804 6.10533 13.2929 6.29286C13.1054 6.4804 13 6.73475 13 6.99997V16H9.00001V6.99997C9.00001 6.73475 8.89465 6.4804 8.70711 6.29286C8.51958 6.10533 8.26522 5.99997 8.00001 5.99997H7.41401L11 2.41397ZM8.00001 20H10V23H8.00001V20ZM12 20H14V26H12V20Z" fill="#04AD6C"/>
<path d="M12 31.9999V30.9999H10V31.9999H9C8.73478 31.9999 8.48043 32.1053 8.29289 32.2928C8.10536 32.4804 8 32.7347 8 32.9999V44.9999C8 45.2652 8.10536 45.5195 8.29289 45.707C8.48043 45.8946 8.73478 45.9999 9 45.9999H10V46.9999H12V45.9999C12.8123 45.9994 13.6051 45.7516 14.2731 45.2894C14.941 44.8273 15.4525 44.1728 15.7394 43.4129C16.0263 42.653 16.0751 41.8237 15.8792 41.0355C15.6834 40.2472 15.2522 39.5372 14.643 38.9999C15.2522 38.4627 15.6834 37.7527 15.8792 36.9644C16.0751 36.1761 16.0263 35.3469 15.7394 34.587C15.4525 33.8271 14.941 33.1726 14.2731 32.7105C13.6051 32.2483 12.8123 32.0005 12 31.9999ZM12 43.9999H10V39.9999H12C12.5304 39.9999 13.0391 40.2107 13.4142 40.5857C13.7893 40.9608 14 41.4695 14 41.9999C14 42.5304 13.7893 43.0391 13.4142 43.4142C13.0391 43.7892 12.5304 43.9999 12 43.9999ZM12 37.9999H10V33.9999H12C12.5304 33.9999 13.0391 34.2107 13.4142 34.5857C13.7893 34.9608 14 35.4695 14 35.9999C14 36.5304 13.7893 37.0391 13.4142 37.4142C13.0391 37.7892 12.5304 37.9999 12 37.9999ZM31 45.9999C31.5304 45.9999 32.0391 46.2107 32.4142 46.5857C32.7893 46.9608 33 47.4695 33 47.9999H35C34.9967 47.1157 34.7005 46.2575 34.1577 45.5595C33.6149 44.8615 32.8561 44.363 32 44.1419V42.9999H30V44.1419C29.0584 44.3843 28.2376 44.962 27.6916 45.7666C27.1457 46.5712 26.9122 47.5474 27.035 48.5119C27.1577 49.4764 27.6283 50.363 28.3583 51.0052C29.0884 51.6475 30.0277 52.0012 31 51.9999C31.3956 51.9999 31.7822 52.1172 32.1111 52.337C32.44 52.5568 32.6964 52.8691 32.8478 53.2346C32.9991 53.6 33.0387 54.0022 32.9616 54.3901C32.8844 54.7781 32.6939 55.1344 32.4142 55.4142C32.1345 55.6939 31.7781 55.8843 31.3902 55.9615C31.0022 56.0387 30.6001 55.9991 30.2346 55.8477C29.8692 55.6963 29.5568 55.44 29.3371 55.1111C29.1173 54.7822 29 54.3955 29 53.9999H27C27.0033 54.8842 27.2995 55.7424 27.8423 56.4404C28.3851 57.1384 29.1439 57.6369 30 57.8579V58.9999H32V57.8579C32.9416 57.6156 33.7624 57.0379 34.3084 56.2333C34.8543 55.4287 35.0878 54.4525 34.965 53.488C34.8423 52.5234 34.3717 51.6369 33.6417 50.9946C32.9117 50.3524 31.9723 49.9987 31 49.9999C30.4696 49.9999 29.9609 49.7892 29.5858 49.4142C29.2107 49.0391 29 48.5304 29 47.9999C29 47.4695 29.2107 46.9608 29.5858 46.5857C29.9609 46.2107 30.4696 45.9999 31 45.9999ZM49.778 40.9999H53V38.9999H50V38.1459C50.0008 37.5476 50.1401 36.9575 50.407 36.4219L50.553 36.1309C50.871 35.4891 51.3625 34.9492 51.9718 34.5725C52.581 34.1958 53.2837 33.9975 54 33.9999V31.9999C52.9121 31.9964 51.8449 32.2976 50.9195 32.8696C49.994 33.4415 49.2473 34.2613 48.764 35.2359L48.618 35.5269C48.2127 36.3406 48.0012 37.237 48 38.1459V38.9999H46V40.9999H47.7C47.4163 41.8643 46.9333 42.6498 46.29 43.2929C46.15 43.433 46.0547 43.6114 46.0163 43.8056C45.9778 43.9999 45.9979 44.2012 46.0739 44.384C46.1499 44.5668 46.2785 44.7229 46.4434 44.8326C46.6083 44.9422 46.802 45.0005 47 44.9999H56V42.9999H49C49.351 42.3727 49.6129 41.6995 49.778 40.9999Z" fill="#04AD6C"/>
</svg>
