<svg width="64" height="64" viewBox="0 0 64 64" fill="none" xmlns="http://www.w3.org/2000/svg">
<path d="M62 46H61V13C60.9984 11.6744 60.4711 10.4036 59.5338 9.46622C58.5964 8.52888 57.3256 8.00159 56 8H8C6.67441 8.00159 5.40356 8.52888 4.46622 9.46622C3.52888 10.4036 3.00159 11.6744 3 13V46H2C1.73478 46 1.48043 46.1054 1.29289 46.2929C1.10536 46.4804 1 46.7348 1 47V51C1.00159 52.3256 1.52888 53.5964 2.46622 54.5338C3.40356 55.4711 4.67441 55.9984 6 56H58C59.3256 55.9984 60.5964 55.4711 61.5338 54.5338C62.4711 53.5964 62.9984 52.3256 63 51V47C63 46.7348 62.8946 46.4804 62.7071 46.2929C62.5196 46.1054 62.2652 46 62 46ZM5 13C5 12.2044 5.31607 11.4413 5.87868 10.8787C6.44129 10.3161 7.20435 10 8 10H56C56.7957 10 57.5587 10.3161 58.1213 10.8787C58.6839 11.4413 59 12.2044 59 13V46H43C42.7348 46.0001 42.4805 46.1054 42.293 46.293L39.586 49H24.414L21.707 46.293C21.5195 46.1054 21.2652 46.0001 21 46H5V13ZM61 51C61 51.7957 60.6839 52.5587 60.1213 53.1213C59.5587 53.6839 58.7957 54 58 54H6C5.20435 54 4.44129 53.6839 3.87868 53.1213C3.31607 52.5587 3 51.7957 3 51V48H20.586L23.293 50.707C23.4805 50.8946 23.7348 50.9999 24 51H40C40.2652 50.9999 40.5195 50.8946 40.707 50.707L43.414 48H61V51Z" fill="#8334FF"/>
<path d="M57 50H59V52H57V50ZM53 50H55V52H53V50ZM57 43V13C57 12.7348 56.8946 12.4804 56.7071 12.2929C56.5196 12.1054 56.2652 12 56 12H8C7.73478 12 7.48043 12.1054 7.29289 12.2929C7.10536 12.4804 7 12.7348 7 13V43C7 43.2652 7.10536 43.5196 7.29289 43.7071C7.48043 43.8946 7.73478 44 8 44H56C56.2652 44 56.5196 43.8946 56.7071 43.7071C56.8946 43.5196 57 43.2652 57 43ZM55 42H9V14H55V42Z" fill="#8334FF"/>
<path d="M51 21H53V17C53 16.7348 52.8946 16.4804 52.7071 16.2929C52.5196 16.1054 52.2652 16 52 16H48V18H51V21ZM13 18H16V16H12C11.7348 16 11.4804 16.1054 11.2929 16.2929C11.1054 16.4804 11 16.7348 11 17V21H13V18ZM53 39V35H51V38H48V40H52C52.2652 40 52.5196 39.8946 52.7071 39.7071C52.8946 39.5196 53 39.2652 53 39ZM12 40H16V38H13V35H11V39C11 39.2652 11.1054 39.5196 11.2929 39.7071C11.4804 39.8946 11.7348 40 12 40ZM44 16H46V18H44V16ZM22 32H23V36H25V32H26C26.2652 32 26.5196 31.8946 26.7071 31.7071C26.8946 31.5196 27 31.2652 27 31V25C27 24.7348 26.8946 24.4804 26.7071 24.2929C26.5196 24.1054 26.2652 24 26 24H25V20H23V24H22C21.7348 24 21.4804 24.1054 21.2929 24.2929C21.1054 24.4804 21 24.7348 21 25V31C21 31.2652 21.1054 31.5196 21.2929 31.7071C21.4804 31.8946 21.7348 32 22 32ZM23 26H25V30H23V26ZM30 36H31V40H33V36H34C34.2652 36 34.5196 35.8946 34.7071 35.7071C34.8946 35.5196 35 35.2652 35 35V29C35 28.7348 34.8946 28.4804 34.7071 28.2929C34.5196 28.1054 34.2652 28 34 28H33V24H31V28H30C29.7348 28 29.4804 28.1054 29.2929 28.2929C29.1054 28.4804 29 28.7348 29 29V35C29 35.2652 29.1054 35.5196 29.2929 35.7071C29.4804 35.8946 29.7348 36 30 36ZM31 30H33V34H31V30ZM38 28H39V32H41V28H42C42.2652 28 42.5196 27.8946 42.7071 27.7071C42.8946 27.5196 43 27.2652 43 27V21C43 20.7348 42.8946 20.4804 42.7071 20.2929C42.5196 20.1054 42.2652 20 42 20H41V16H39V20H38C37.7348 20 37.4804 20.1054 37.2929 20.2929C37.1054 20.4804 37 20.7348 37 21V27C37 27.2652 37.1054 27.5196 37.2929 27.7071C37.4804 27.8946 37.7348 28 38 28ZM39 22H41V26H39V22Z" fill="#8334FF"/>
</svg>
