<svg width="64" height="64" viewBox="0 0 64 64" fill="none" xmlns="http://www.w3.org/2000/svg">
<path d="M62.263 26.035L59.157 25.191C58.4554 22.3777 57.3173 19.6918 55.784 17.231L56.929 14.372C57.0017 14.1902 57.0194 13.991 56.98 13.7992C56.9405 13.6074 56.8456 13.4314 56.707 13.293L50.707 7.293C50.5685 7.15458 50.3925 7.05985 50.2007 7.02057C50.0089 6.98128 49.8097 6.99916 49.628 7.072L46.769 8.216C44.3085 6.68265 41.6229 5.54418 38.81 4.842L37.965 1.742C37.9082 1.52937 37.7829 1.34141 37.6084 1.20725C37.4339 1.0731 37.2201 1.00025 37 1H27C26.7804 1.00001 26.567 1.07229 26.3926 1.20567C26.2182 1.33904 26.0925 1.52611 26.035 1.738L25.19 4.838C22.3771 5.54018 19.6916 6.67865 17.231 8.212L14.372 7.072C14.1903 6.99916 13.9911 6.98128 13.7993 7.02057C13.6075 7.05985 13.4315 7.15458 13.293 7.293L7.293 13.293C7.15441 13.4314 7.05949 13.6074 7.02003 13.7992C6.98057 13.991 6.99829 14.1902 7.071 14.372L8.216 17.231C6.68273 19.6918 5.54459 22.3777 4.843 25.191L1.737 26.035C1.5253 26.0927 1.33845 26.2184 1.20527 26.3928C1.07208 26.5672 0.999955 26.7806 1 27V37C1.00017 37.2193 1.0724 37.4324 1.20557 37.6066C1.33874 37.7807 1.52546 37.9063 1.737 37.964L4.843 38.809C5.54459 41.6222 6.68273 44.3082 8.216 46.769L7.071 49.628C6.99829 49.8098 6.98057 50.009 7.02003 50.2008C7.05949 50.3926 7.15441 50.5686 7.293 50.707L13.293 56.707C13.4315 56.8454 13.6075 56.9401 13.7993 56.9794C13.9911 57.0187 14.1903 57.0008 14.372 56.928L17.231 55.784C19.6916 57.3174 22.3771 58.4558 25.19 59.158L26.035 62.258C26.0918 62.4706 26.2171 62.6586 26.3916 62.7927C26.5661 62.9269 26.7799 62.9997 27 63H37C37.2196 63 37.433 62.9277 37.6074 62.7943C37.7818 62.661 37.9075 62.4739 37.965 62.262L38.81 59.162C41.6229 58.4598 44.3085 57.3214 46.769 55.788L49.628 56.932C49.8097 57.0048 50.0089 57.0227 50.2007 56.9834C50.3925 56.9441 50.5685 56.8494 50.707 56.711L56.707 50.711C56.8456 50.5726 56.9405 50.3966 56.98 50.2048C57.0194 50.013 57.0017 49.8138 56.929 49.632L55.784 46.773C57.3173 44.3122 58.4554 41.6263 59.157 38.813L62.263 37.968C62.4752 37.9102 62.6624 37.784 62.7957 37.609C62.9289 37.434 63.0007 37.2199 63 37V27C63.0001 26.7806 62.9279 26.5672 62.7947 26.3928C62.6616 26.2184 62.4747 26.0927 62.263 26.035ZM61 36.235L58.06 37.035C57.8848 37.0826 57.7259 37.177 57.6003 37.3081C57.4747 37.4392 57.3871 37.6019 57.347 37.779C56.6751 40.7458 55.483 43.5701 53.826 46.121C53.7387 46.2553 53.685 46.4086 53.6694 46.568C53.6537 46.7274 53.6766 46.8883 53.736 47.037L54.826 49.759L49.76 54.827L47.037 53.737C46.8885 53.6768 46.7276 53.6535 46.5681 53.669C46.4086 53.6845 46.2552 53.7383 46.121 53.826C43.5694 55.4827 40.7449 56.6751 37.778 57.348C37.6011 57.3883 37.4386 57.4759 37.3077 57.6015C37.1768 57.7271 37.0825 57.8859 37.035 58.061L36.235 61H27.765L26.965 58.061C26.9175 57.8859 26.8232 57.7271 26.6923 57.6015C26.5615 57.4759 26.3989 57.3883 26.222 57.348C23.2551 56.6751 20.4306 55.4827 17.879 53.826C17.7446 53.7389 17.5913 53.6854 17.4318 53.6699C17.2724 53.6544 17.1117 53.6774 16.963 53.737L14.24 54.827L9.174 49.759L10.264 47.037C10.3235 46.8883 10.3463 46.7274 10.3307 46.568C10.315 46.4086 10.2613 46.2553 10.174 46.121C8.51697 43.5701 7.32489 40.7458 6.653 37.779C6.61288 37.6019 6.52532 37.4392 6.39971 37.3081C6.27411 37.177 6.11519 37.0826 5.94 37.035L3 36.235V27.764L5.94 26.964C6.11519 26.9164 6.27411 26.822 6.39971 26.6909C6.52532 26.5598 6.61288 26.3971 6.653 26.22C7.32489 23.2532 8.51697 20.4289 10.174 17.878C10.2613 17.7437 10.315 17.5904 10.3307 17.431C10.3463 17.2716 10.3235 17.1107 10.264 16.962L9.174 14.24L14.24 9.173L16.963 10.263C17.1117 10.3226 17.2724 10.3456 17.4318 10.3301C17.5913 10.3146 17.7446 10.2611 17.879 10.174C20.4306 8.51729 23.2551 7.32493 26.222 6.652C26.3989 6.61172 26.5615 6.52409 26.6923 6.39849C26.8232 6.27289 26.9175 6.11406 26.965 5.939L27.765 3H36.235L37.035 5.939C37.0825 6.11406 37.1768 6.27289 37.3077 6.39849C37.4386 6.52409 37.6011 6.61172 37.778 6.652C40.7449 7.32493 43.5694 8.51729 46.121 10.174C46.2552 10.2616 46.4086 10.3154 46.5681 10.3309C46.7276 10.3464 46.8885 10.3231 47.037 10.263L49.76 9.173L54.826 14.241L53.736 16.963C53.6766 17.1117 53.6537 17.2726 53.6694 17.432C53.685 17.5914 53.7387 17.7447 53.826 17.879C55.483 20.4299 56.6751 23.2542 57.347 26.221C57.3871 26.3981 57.4747 26.5608 57.6003 26.6919C57.7259 26.823 57.8848 26.9174 58.06 26.965L61 27.765V36.235Z" fill="#0DBFCF"/>
<path d="M32 10C27.6488 10 23.3953 11.2903 19.7775 13.7077C16.1596 16.1251 13.3398 19.561 11.6747 23.581C10.0095 27.6009 9.57386 32.0244 10.4227 36.292C11.2716 40.5596 13.3669 44.4796 16.4437 47.5564C19.5204 50.6331 23.4404 52.7284 27.708 53.5773C31.9756 54.4261 36.3991 53.9905 40.419 52.3253C44.439 50.6602 47.875 47.8404 50.2923 44.2225C52.7097 40.6047 54 36.3512 54 32C53.9934 26.1673 51.6734 20.5753 47.5491 16.451C43.4247 12.3266 37.8327 10.0066 32 10ZM32 52C28.0444 52 24.1776 50.827 20.8886 48.6294C17.5996 46.4318 15.0362 43.3082 13.5224 39.6537C12.0087 35.9991 11.6126 31.9778 12.3843 28.0982C13.156 24.2186 15.0608 20.6549 17.8579 17.8579C20.6549 15.0608 24.2186 13.156 28.0982 12.3843C31.9778 11.6126 35.9992 12.0087 39.6537 13.5224C43.3082 15.0362 46.4318 17.5996 48.6294 20.8886C50.827 24.1776 52 28.0444 52 32C51.9939 37.3025 49.8848 42.386 46.1354 46.1354C42.386 49.8848 37.3025 51.9939 32 52Z" fill="#0DBFCF"/>
<path d="M30 28H29V24H27V28H26C25.7348 28 25.4804 28.1054 25.2929 28.2929C25.1054 28.4804 25 28.7348 25 29V35C25 35.2652 25.1054 35.5196 25.2929 35.7071C25.4804 35.8946 25.7348 36 26 36H27V40H29V36H30C30.2652 36 30.5196 35.8946 30.7071 35.7071C30.8946 35.5196 31 35.2652 31 35V29C31 28.7348 30.8946 28.4804 30.7071 28.2929C30.5196 28.1054 30.2652 28 30 28ZM29 34H27V30H29V34ZM38 32H37V28H35V32H34C33.7348 32 33.4804 32.1054 33.2929 32.2929C33.1054 32.4804 33 32.7348 33 33V39C33 39.2652 33.1054 39.5196 33.2929 39.7071C33.4804 39.8946 33.7348 40 34 40H35V44H37V40H38C38.2652 40 38.5196 39.8946 38.7071 39.7071C38.8946 39.5196 39 39.2652 39 39V33C39 32.7348 38.8946 32.4804 38.7071 32.2929C38.5196 32.1054 38.2652 32 38 32ZM37 38H35V34H37V38ZM45 24V20H43V24H42C41.7348 24 41.4804 24.1054 41.2929 24.2929C41.1054 24.4804 41 24.7348 41 25V31C41 31.2652 41.1054 31.5196 41.2929 31.7071C41.4804 31.8946 41.7348 32 42 32H43V36H45V32H46C46.2652 32 46.5196 31.8946 46.7071 31.7071C46.8946 31.5196 47 31.2652 47 31V25C47 24.7348 46.8946 24.4804 46.7071 24.2929C46.5196 24.1054 46.2652 24 46 24H45ZM45 30H43V26H45V30ZM22 26H21V22H19V26H18C17.7348 26 17.4804 26.1054 17.2929 26.2929C17.1054 26.4804 17 26.7348 17 27V33C17 33.2652 17.1054 33.5196 17.2929 33.7071C17.4804 33.8946 17.7348 34 18 34H19V38H21V34H22C22.2652 34 22.5196 33.8946 22.7071 33.7071C22.8946 33.5196 23 33.2652 23 33V27C23 26.7348 22.8946 26.4804 22.7071 26.2929C22.5196 26.1054 22.2652 26 22 26ZM21 32H19V28H21V32Z" fill="#0DBFCF"/>
</svg>
