<svg width="104" height="104" viewBox="0 0 104 104" fill="none" xmlns="http://www.w3.org/2000/svg">
<path d="M100.508 75.5207C100.362 75.285 100.158 75.0906 99.9165 74.9557C99.6745 74.8208 99.4021 74.75 99.1251 74.75H74.7501C74.4483 74.75 74.1525 74.834 73.8958 74.9927C73.6391 75.1513 73.4317 75.3783 73.2967 75.6482L70.4956 81.25H62.6014L50.8843 64.3252C49.9871 63.0294 48.7891 61.9703 47.3929 61.2388C45.9968 60.5073 44.4441 60.1251 42.868 60.125H38.0482L36.0806 58.1573C37.4028 57.7149 38.5528 56.8684 39.3682 55.7373C40.1836 54.6062 40.6232 53.2477 40.6251 51.8533V42.0225C41.3339 41.4389 41.8453 40.6506 42.0891 39.7654C42.333 38.8801 42.2974 37.9412 41.9874 37.0769C41.6774 36.2127 41.108 35.4652 40.357 34.9369C39.6061 34.4085 38.7103 34.1249 37.7921 34.125H26.4977C25.1059 34.125 23.7403 34.5027 22.5463 35.2179C21.3523 35.9331 20.3749 36.959 19.7182 38.1861C19.0615 39.4132 18.7501 40.7955 18.8174 42.1857C18.8846 43.5759 19.3279 44.9217 20.0999 46.0797L20.4174 46.5558C20.0889 47.3484 20.003 48.2206 20.1706 49.062C20.3382 49.9035 20.7517 50.6762 21.3589 51.2824L22.7499 52.673V57.8268L20.4519 60.125H16.7684C14.1904 60.125 11.6661 60.8622 9.49324 62.2496C7.32036 63.637 5.58952 65.6168 4.50482 67.9555C3.42011 70.2943 3.02677 72.8944 3.37119 75.4494C3.7156 78.0043 4.78341 80.4075 6.44868 82.3755L6.50007 82.4362V100.75H9.75008V86.2771L17.0593 94.9154C18.605 96.7452 20.5316 98.2154 22.7045 99.2232C24.8774 100.231 27.2442 100.752 29.6395 100.75H87.7501C88.0518 100.75 88.3476 100.666 88.6043 100.507C88.861 100.349 89.0685 100.122 89.2034 99.8518L100.578 77.1018C100.702 76.854 100.761 76.5787 100.748 76.302C100.736 76.0253 100.653 75.7563 100.507 75.5207H100.508ZM61.7501 84.5H68.8708L65.2735 91.6943L62.8299 92.3051C62.042 92.5009 61.2346 92.6072 60.4229 92.6219C60.3473 92.1325 60.1443 91.6715 59.8342 91.2854L56.6945 87.3606C55.6644 86.0711 54.3657 85.0215 52.8887 84.285C51.4117 83.5485 49.7919 83.1428 48.1421 83.096L48.0101 82.8984L55.4802 76.6734L60.4141 83.8C60.5636 84.016 60.7633 84.1925 60.996 84.3144C61.2286 84.4363 61.4874 84.5 61.7501 84.5ZM40.9379 97.5L45.0004 95.875H63.1833L62.3708 97.5H40.9379ZM44.4605 83.4326L42.2501 83.7271V80.117L44.4605 83.4326ZM35.4683 62.1414L33.5315 66.9835L31.4231 64.8751L34.421 61.0941L35.4683 62.1414ZM24.1992 60.9741L27.1045 64.8475L24.9686 66.9835L23.0318 62.1414L24.1992 60.9741ZM33.9784 55.25C33.3472 55.2522 32.728 55.0774 32.191 54.7455C31.654 54.4136 31.2208 53.9379 30.9405 53.3723L30.7034 52.8982L27.7967 54.3518L28.0338 54.8257C28.4679 55.7008 29.0908 56.4687 29.8576 57.074C30.6244 57.6793 31.5159 58.1069 32.468 58.3259L29.2858 62.3393L26.0001 57.9583V52C26 51.569 25.8289 51.1557 25.5242 50.8509L23.6574 48.9842C23.5051 48.8319 23.4013 48.6379 23.3592 48.4266C23.3171 48.2154 23.3387 47.9964 23.4211 47.7973C23.5035 47.5983 23.6431 47.4282 23.8222 47.3085C24.0013 47.1889 24.2119 47.125 24.4273 47.125H26.0001C26.431 47.125 26.8444 46.9538 27.1492 46.6491L28.7742 45.0241C29.0789 44.7193 29.25 44.306 29.2501 43.875V42.6073L35.4312 43.8435C35.7086 43.8989 35.9956 43.881 36.264 43.7915L37.3751 43.421V51.8533C37.3741 52.7539 37.0159 53.6173 36.3791 54.2541C35.7424 54.8909 34.879 55.249 33.9784 55.25ZM22.5272 39.8292C22.8937 39.09 23.46 38.4683 24.1618 38.0345C24.8636 37.6007 25.6729 37.3723 26.4979 37.375H37.7921C38.0789 37.375 38.3564 37.4771 38.5749 37.663C38.7934 37.8488 38.9385 38.1064 38.9845 38.3895C39.0304 38.6727 38.9741 38.9629 38.8256 39.2084C38.6771 39.4538 38.4461 39.6383 38.174 39.729L35.6455 40.572L27.9438 39.0315C27.708 38.9843 27.4647 38.9901 27.2315 39.0483C26.9982 39.1066 26.7808 39.2158 26.5948 39.3683C26.4089 39.5207 26.2591 39.7125 26.1563 39.9298C26.0534 40.1471 26.0001 40.3846 26.0001 40.625V43.202L25.3271 43.875H24.4273C23.8544 43.8742 23.287 43.9865 22.7576 44.2053C22.3448 43.5577 22.1067 42.8144 22.0663 42.0475C22.0259 41.2807 22.1847 40.5164 22.5272 39.8292ZM16.7684 63.375H20.025L22.8663 70.4783C22.9661 70.728 23.1264 70.949 23.3326 71.1215C23.5389 71.2941 23.7848 71.4127 24.0483 71.4668C24.3117 71.5209 24.5844 71.5088 24.842 71.4315C25.0996 71.3542 25.334 71.2142 25.5242 71.0241L27.6251 68.9232V76.375H30.8751V68.9232L32.976 71.0241C33.1661 71.2142 33.4005 71.3542 33.6581 71.4315C33.9157 71.5088 34.1884 71.5209 34.4518 71.4669C34.7153 71.4128 34.9612 71.2942 35.1675 71.1217C35.3738 70.9492 35.534 70.7282 35.6339 70.4785L38.4752 63.375H42.868C43.9187 63.3751 44.9538 63.6299 45.8846 64.1176C46.8153 64.6053 47.614 65.3112 48.2122 66.1751L53.623 73.9907L46.1974 80.1789L41.9771 73.8487C41.7836 73.5586 41.5019 73.3384 41.1737 73.2206C40.8454 73.1029 40.488 73.0939 40.1542 73.195C39.8204 73.296 39.528 73.5017 39.3202 73.7818C39.1124 74.0618 39.0001 74.4013 39.0001 74.75V84.1608L30.9441 85.2347L19.144 70.4848L16.6062 72.5152L22.1592 79.4566L13.994 86.2609L8.92986 80.2762C7.66493 78.7813 6.85384 76.9559 6.59222 75.0152C6.33059 73.0746 6.62935 71.0995 7.45326 69.3231C8.27717 67.5466 9.59187 66.0427 11.2423 64.9889C12.8928 63.935 14.8102 63.375 16.7684 63.375ZM19.5405 92.8159L16.0933 88.7419L24.1898 81.9949L27.1829 85.7362L24.1604 86.1392L24.59 89.3608L29.5531 88.699L29.6059 88.7652L29.716 88.6771L46.7286 86.4088C48.1188 86.2235 49.5332 86.4008 50.8347 86.9233C52.1363 87.4458 53.2806 88.2958 54.1569 89.3908L56.7441 92.625L52.3838 92.6248L49.4767 91.1716C49.2714 91.0691 49.0468 91.0111 48.8176 91.0015C48.5883 90.992 48.3596 91.031 48.1466 91.1162L34.5527 96.5538C31.9747 97.585 29.1376 97.7788 26.4433 97.108C23.7491 96.4371 21.334 94.9355 19.5405 92.8159ZM86.7458 97.5H66.0043L75.7543 78H96.4958L86.7458 97.5ZM43.8751 14.625C43.4441 14.625 43.0308 14.7962 42.726 15.101C42.4213 15.4057 42.2501 15.819 42.2501 16.25V27.625C42.2501 28.056 42.4213 28.4693 42.726 28.774C43.0308 29.0788 43.4441 29.25 43.8751 29.25H48.7501C49.181 29.25 49.5944 29.0788 49.8991 28.774C50.2039 28.4693 50.3751 28.056 50.3751 27.625V16.25C50.3751 15.819 50.2039 15.4057 49.8991 15.101C49.5944 14.7962 49.181 14.625 48.7501 14.625H43.8751ZM47.1251 26H45.5001V17.875H47.1251V26ZM63.3751 24.375C62.9441 24.375 62.5308 24.5462 62.226 24.851C61.9213 25.1557 61.7501 25.569 61.7501 26V37.375C61.7501 37.806 61.9213 38.2193 62.226 38.524C62.5308 38.8288 62.9441 39 63.3751 39H68.2501C68.6811 39 69.0944 38.8288 69.3991 38.524C69.7039 38.2193 69.8751 37.806 69.8751 37.375V26C69.8751 25.569 69.7039 25.1557 69.3991 24.851C69.0944 24.5462 68.6811 24.375 68.2501 24.375H63.3751ZM66.6251 35.75H65.0001V27.625H66.6251V35.75ZM82.8751 17.875C82.4441 17.875 82.0308 18.0462 81.726 18.351C81.4213 18.6557 81.2501 19.069 81.2501 19.5V45.5C81.2501 45.931 81.4213 46.3443 81.726 46.649C82.0308 46.9538 82.4441 47.125 82.8751 47.125H87.7501C88.1811 47.125 88.5944 46.9538 88.8991 46.649C89.2039 46.3443 89.3751 45.931 89.3751 45.5V19.5C89.3751 19.069 89.2039 18.6557 88.8991 18.351C88.5944 18.0462 88.1811 17.875 87.7501 17.875H82.8751ZM86.1251 43.875H84.5001V21.125H86.1251V43.875Z" fill="#EDE5DA"/>
<path d="M100.508 75.5207C100.362 75.285 100.158 75.0906 99.9165 74.9557C99.6745 74.8208 99.4021 74.75 99.1251 74.75H74.7501C74.4483 74.75 74.1525 74.834 73.8958 74.9927C73.6391 75.1513 73.4317 75.3783 73.2967 75.6482L70.4956 81.25H62.6014L50.8843 64.3252C49.9871 63.0294 48.7891 61.9703 47.3929 61.2388C45.9968 60.5073 44.4441 60.1251 42.868 60.125H38.0482L36.0806 58.1573C37.4028 57.7149 38.5528 56.8684 39.3682 55.7373C40.1836 54.6062 40.6232 53.2477 40.6251 51.8533V42.0225C41.3339 41.4389 41.8453 40.6506 42.0891 39.7654C42.333 38.8801 42.2974 37.9412 41.9874 37.0769C41.6774 36.2127 41.108 35.4652 40.357 34.9369C39.6061 34.4085 38.7103 34.1249 37.7921 34.125H26.4977C25.1059 34.125 23.7403 34.5027 22.5463 35.2179C21.3523 35.9331 20.3749 36.959 19.7182 38.1861C19.0615 39.4132 18.7501 40.7955 18.8174 42.1857C18.8846 43.5759 19.3279 44.9217 20.0999 46.0797L20.4174 46.5558C20.0889 47.3484 20.003 48.2206 20.1706 49.062C20.3382 49.9035 20.7517 50.6762 21.3589 51.2824L22.7499 52.673V57.8268L20.4519 60.125H16.7684C14.1904 60.125 11.6661 60.8622 9.49324 62.2496C7.32036 63.637 5.58952 65.6168 4.50482 67.9555C3.42011 70.2943 3.02677 72.8944 3.37119 75.4494C3.7156 78.0043 4.78341 80.4075 6.44868 82.3755L6.50007 82.4362V100.75H9.75008V86.2771L17.0593 94.9154C18.605 96.7452 20.5316 98.2154 22.7045 99.2232C24.8774 100.231 27.2442 100.752 29.6395 100.75H87.7501C88.0518 100.75 88.3476 100.666 88.6043 100.507C88.861 100.349 89.0685 100.122 89.2034 99.8518L100.578 77.1018C100.702 76.854 100.761 76.5787 100.748 76.302C100.736 76.0253 100.653 75.7563 100.507 75.5207H100.508ZM61.7501 84.5H68.8708L65.2735 91.6943L62.8299 92.3051C62.042 92.5009 61.2346 92.6072 60.4229 92.6219C60.3473 92.1325 60.1443 91.6715 59.8342 91.2854L56.6945 87.3606C55.6644 86.0711 54.3657 85.0215 52.8887 84.285C51.4117 83.5485 49.7919 83.1428 48.1421 83.096L48.0101 82.8984L55.4802 76.6734L60.4141 83.8C60.5636 84.016 60.7633 84.1925 60.996 84.3144C61.2286 84.4363 61.4874 84.5 61.7501 84.5ZM40.9379 97.5L45.0004 95.875H63.1833L62.3708 97.5H40.9379ZM44.4605 83.4326L42.2501 83.7271V80.117L44.4605 83.4326ZM35.4683 62.1414L33.5315 66.9835L31.4231 64.8751L34.421 61.0941L35.4683 62.1414ZM24.1992 60.9741L27.1045 64.8475L24.9686 66.9835L23.0318 62.1414L24.1992 60.9741ZM33.9784 55.25C33.3472 55.2522 32.728 55.0774 32.191 54.7455C31.654 54.4136 31.2208 53.9379 30.9405 53.3723L30.7034 52.8982L27.7967 54.3518L28.0338 54.8257C28.4679 55.7008 29.0908 56.4687 29.8576 57.074C30.6244 57.6793 31.5159 58.1069 32.468 58.3259L29.2858 62.3393L26.0001 57.9583V52C26 51.569 25.8289 51.1557 25.5242 50.8509L23.6574 48.9842C23.5051 48.8319 23.4013 48.6379 23.3592 48.4266C23.3171 48.2154 23.3387 47.9964 23.4211 47.7973C23.5035 47.5983 23.6431 47.4282 23.8222 47.3085C24.0013 47.1889 24.2119 47.125 24.4273 47.125H26.0001C26.431 47.125 26.8444 46.9538 27.1492 46.6491L28.7742 45.0241C29.0789 44.7193 29.25 44.306 29.2501 43.875V42.6073L35.4312 43.8435C35.7086 43.8989 35.9956 43.881 36.264 43.7915L37.3751 43.421V51.8533C37.3741 52.7539 37.0159 53.6173 36.3791 54.2541C35.7424 54.8909 34.879 55.249 33.9784 55.25ZM22.5272 39.8292C22.8937 39.09 23.46 38.4683 24.1618 38.0345C24.8636 37.6007 25.6729 37.3723 26.4979 37.375H37.7921C38.0789 37.375 38.3564 37.4771 38.5749 37.663C38.7934 37.8488 38.9385 38.1064 38.9845 38.3895C39.0304 38.6727 38.9741 38.9629 38.8256 39.2084C38.6771 39.4538 38.4461 39.6383 38.174 39.729L35.6455 40.572L27.9438 39.0315C27.708 38.9843 27.4647 38.9901 27.2315 39.0483C26.9982 39.1066 26.7808 39.2158 26.5948 39.3683C26.4089 39.5207 26.2591 39.7125 26.1563 39.9298C26.0534 40.1471 26.0001 40.3846 26.0001 40.625V43.202L25.3271 43.875H24.4273C23.8544 43.8742 23.287 43.9865 22.7576 44.2053C22.3448 43.5577 22.1067 42.8144 22.0663 42.0475C22.0259 41.2807 22.1847 40.5164 22.5272 39.8292ZM16.7684 63.375H20.025L22.8663 70.4783C22.9661 70.728 23.1264 70.949 23.3326 71.1215C23.5389 71.2941 23.7848 71.4127 24.0483 71.4668C24.3117 71.5209 24.5844 71.5088 24.842 71.4315C25.0996 71.3542 25.334 71.2142 25.5242 71.0241L27.6251 68.9232V76.375H30.8751V68.9232L32.976 71.0241C33.1661 71.2142 33.4005 71.3542 33.6581 71.4315C33.9157 71.5088 34.1884 71.5209 34.4518 71.4669C34.7153 71.4128 34.9612 71.2942 35.1675 71.1217C35.3738 70.9492 35.534 70.7282 35.6339 70.4785L38.4752 63.375H42.868C43.9187 63.3751 44.9538 63.6299 45.8846 64.1176C46.8153 64.6053 47.614 65.3112 48.2122 66.1751L53.623 73.9907L46.1974 80.1789L41.9771 73.8487C41.7836 73.5586 41.5019 73.3384 41.1737 73.2206C40.8454 73.1029 40.488 73.0939 40.1542 73.195C39.8204 73.296 39.528 73.5017 39.3202 73.7818C39.1124 74.0618 39.0001 74.4013 39.0001 74.75V84.1608L30.9441 85.2347L19.144 70.4848L16.6062 72.5152L22.1592 79.4566L13.994 86.2609L8.92986 80.2762C7.66493 78.7813 6.85384 76.9559 6.59222 75.0152C6.33059 73.0746 6.62935 71.0995 7.45326 69.3231C8.27717 67.5466 9.59187 66.0427 11.2423 64.9889C12.8928 63.935 14.8102 63.375 16.7684 63.375ZM19.5405 92.8159L16.0933 88.7419L24.1898 81.9949L27.1829 85.7362L24.1604 86.1392L24.59 89.3608L29.5531 88.699L29.6059 88.7652L29.716 88.6771L46.7286 86.4088C48.1188 86.2235 49.5332 86.4008 50.8347 86.9233C52.1363 87.4458 53.2806 88.2958 54.1569 89.3908L56.7441 92.625L52.3838 92.6248L49.4767 91.1716C49.2714 91.0691 49.0468 91.0111 48.8176 91.0015C48.5883 90.992 48.3596 91.031 48.1466 91.1162L34.5527 96.5538C31.9747 97.585 29.1376 97.7788 26.4433 97.108C23.7491 96.4371 21.334 94.9355 19.5405 92.8159ZM86.7458 97.5H66.0043L75.7543 78H96.4958L86.7458 97.5ZM43.8751 14.625C43.4441 14.625 43.0308 14.7962 42.726 15.101C42.4213 15.4057 42.2501 15.819 42.2501 16.25V27.625C42.2501 28.056 42.4213 28.4693 42.726 28.774C43.0308 29.0788 43.4441 29.25 43.8751 29.25H48.7501C49.181 29.25 49.5944 29.0788 49.8991 28.774C50.2039 28.4693 50.3751 28.056 50.3751 27.625V16.25C50.3751 15.819 50.2039 15.4057 49.8991 15.101C49.5944 14.7962 49.181 14.625 48.7501 14.625H43.8751ZM47.1251 26H45.5001V17.875H47.1251V26ZM63.3751 24.375C62.9441 24.375 62.5308 24.5462 62.226 24.851C61.9213 25.1557 61.7501 25.569 61.7501 26V37.375C61.7501 37.806 61.9213 38.2193 62.226 38.524C62.5308 38.8288 62.9441 39 63.3751 39H68.2501C68.6811 39 69.0944 38.8288 69.3991 38.524C69.7039 38.2193 69.8751 37.806 69.8751 37.375V26C69.8751 25.569 69.7039 25.1557 69.3991 24.851C69.0944 24.5462 68.6811 24.375 68.2501 24.375H63.3751ZM66.6251 35.75H65.0001V27.625H66.6251V35.75ZM82.8751 17.875C82.4441 17.875 82.0308 18.0462 81.726 18.351C81.4213 18.6557 81.2501 19.069 81.2501 19.5V45.5C81.2501 45.931 81.4213 46.3443 81.726 46.649C82.0308 46.9538 82.4441 47.125 82.8751 47.125H87.7501C88.1811 47.125 88.5944 46.9538 88.8991 46.649C89.2039 46.3443 89.3751 45.931 89.3751 45.5V19.5C89.3751 19.069 89.2039 18.6557 88.8991 18.351C88.5944 18.0462 88.1811 17.875 87.7501 17.875H82.8751ZM86.1251 43.875H84.5001V21.125H86.1251V43.875Z" fill="url(#paint0_linear_1356_19503)"/>
<path d="M53.625 17.8749C53.194 17.8749 52.7807 18.0461 52.476 18.3509C52.1712 18.6556 52 19.0689 52 19.4999V42.2499C52 42.6809 52.1712 43.0942 52.476 43.399C52.7807 43.7037 53.194 43.8749 53.625 43.8749H58.5C58.931 43.8749 59.3443 43.7037 59.6491 43.399C59.9538 43.0942 60.125 42.6809 60.125 42.2499V19.4999C60.125 19.0689 59.9538 18.6556 59.6491 18.3509C59.3443 18.0461 58.931 17.8749 58.5 17.8749H53.625ZM56.875 40.6249H55.25V21.1249H56.875V40.6249ZM73.125 24.3749C72.694 24.3749 72.2807 24.5461 71.976 24.8509C71.6712 25.1556 71.5 25.5689 71.5 25.9999V51.9999C71.5 52.4309 71.6712 52.8442 71.976 53.149C72.2807 53.4537 72.694 53.6249 73.125 53.6249H78C78.431 53.6249 78.8443 53.4537 79.1491 53.149C79.4538 52.8442 79.625 52.4309 79.625 51.9999V25.9999C79.625 25.5689 79.4538 25.1556 79.1491 24.8509C78.8443 24.5461 78.431 24.3749 78 24.3749H73.125ZM76.375 50.3749H74.75V27.6249H76.375V50.3749ZM47.0082 9.99996L55.9735 15.9769C56.2533 16.1633 56.584 16.2584 56.92 16.2491C57.2561 16.2398 57.581 16.1265 57.85 15.9249L63.3429 11.8051L70.4848 17.519C70.7971 17.7688 71.1905 17.8947 71.5898 17.8726C71.9891 17.8504 72.3663 17.6819 72.6491 17.3992L77.048 12.9999H84.5C84.931 12.9999 85.3443 12.8287 85.6491 12.524L93.7741 4.39899L91.4759 2.10083L83.8271 9.74991H76.375C75.944 9.74994 75.5307 9.92112 75.2259 10.2258L71.3794 14.0724L64.3902 8.48099C64.1089 8.25593 63.7607 8.13075 63.4004 8.12512C63.0402 8.11949 62.6883 8.23374 62.4 8.44991L56.8202 12.6351L48.0267 6.77291C47.7883 6.6139 47.5122 6.52076 47.2262 6.50292C46.9403 6.48509 46.6547 6.54319 46.3984 6.67135L36.6484 11.5463L38.102 14.4533L47.0082 9.99996Z" fill="#EDE5DA"/>
<path d="M53.625 17.8749C53.194 17.8749 52.7807 18.0461 52.476 18.3509C52.1712 18.6556 52 19.0689 52 19.4999V42.2499C52 42.6809 52.1712 43.0942 52.476 43.399C52.7807 43.7037 53.194 43.8749 53.625 43.8749H58.5C58.931 43.8749 59.3443 43.7037 59.6491 43.399C59.9538 43.0942 60.125 42.6809 60.125 42.2499V19.4999C60.125 19.0689 59.9538 18.6556 59.6491 18.3509C59.3443 18.0461 58.931 17.8749 58.5 17.8749H53.625ZM56.875 40.6249H55.25V21.1249H56.875V40.6249ZM73.125 24.3749C72.694 24.3749 72.2807 24.5461 71.976 24.8509C71.6712 25.1556 71.5 25.5689 71.5 25.9999V51.9999C71.5 52.4309 71.6712 52.8442 71.976 53.149C72.2807 53.4537 72.694 53.6249 73.125 53.6249H78C78.431 53.6249 78.8443 53.4537 79.1491 53.149C79.4538 52.8442 79.625 52.4309 79.625 51.9999V25.9999C79.625 25.5689 79.4538 25.1556 79.1491 24.8509C78.8443 24.5461 78.431 24.3749 78 24.3749H73.125ZM76.375 50.3749H74.75V27.6249H76.375V50.3749ZM47.0082 9.99996L55.9735 15.9769C56.2533 16.1633 56.584 16.2584 56.92 16.2491C57.2561 16.2398 57.581 16.1265 57.85 15.9249L63.3429 11.8051L70.4848 17.519C70.7971 17.7688 71.1905 17.8947 71.5898 17.8726C71.9891 17.8504 72.3663 17.6819 72.6491 17.3992L77.048 12.9999H84.5C84.931 12.9999 85.3443 12.8287 85.6491 12.524L93.7741 4.39899L91.4759 2.10083L83.8271 9.74991H76.375C75.944 9.74994 75.5307 9.92112 75.2259 10.2258L71.3794 14.0724L64.3902 8.48099C64.1089 8.25593 63.7607 8.13075 63.4004 8.12512C63.0402 8.11949 62.6883 8.23374 62.4 8.44991L56.8202 12.6351L48.0267 6.77291C47.7883 6.6139 47.5122 6.52076 47.2262 6.50292C46.9403 6.48509 46.6547 6.54319 46.3984 6.67135L36.6484 11.5463L38.102 14.4533L47.0082 9.99996Z" fill="url(#paint1_linear_1356_19503)"/>
<defs>
<linearGradient id="paint0_linear_1356_19503" x1="52" y1="14.625" x2="52" y2="100.75" gradientUnits="userSpaceOnUse">
<stop stop-color="#DB00FF"/>
<stop offset="1" stop-color="#8000FF"/>
</linearGradient>
<linearGradient id="paint1_linear_1356_19503" x1="65.2113" y1="2.10083" x2="65.2113" y2="53.6249" gradientUnits="userSpaceOnUse">
<stop stop-color="#DB00FF"/>
<stop offset="1" stop-color="#8000FF"/>
</linearGradient>
</defs>
</svg>
