<svg width="104" height="104" viewBox="0 0 104 104" fill="none" xmlns="http://www.w3.org/2000/svg">
<path d="M99.125 63.3751H89.375V58.5001C89.375 55.8123 87.1878 53.6251 84.5 53.6251H68.25C66.8493 53.6251 65.5932 54.228 64.7027 55.177L47.125 52.2487V48.1765C51.974 45.362 55.25 40.1246 55.25 34.1251H56.875C59.5628 34.1251 61.75 31.9378 61.75 29.2501C61.75 26.5623 59.5628 24.3751 56.875 24.3751H56.095L56.9855 22.3097C57.8083 20.3967 58.1652 18.3157 58.0268 16.2379C57.8883 14.16 57.2586 12.1448 56.1893 10.3578C54.8248 8.07518 52.7956 6.26375 50.3734 5.16596L45.838 3.10058C40.4837 0.663082 33.9203 1.37646 29.2127 4.90433L26.65 6.82508L26.6533 6.82996C24.0847 7.49773 21.8787 9.14274 20.5059 11.4141C19.6261 12.8727 19.1303 14.5306 19.065 16.2328C18.9996 17.935 19.3668 19.626 20.1322 21.1478L21.7458 24.3751H21.125C18.4373 24.3751 16.25 26.5623 16.25 29.2501C16.25 31.9378 18.4373 34.1251 21.125 34.1251H22.75C22.75 40.1246 26.026 45.362 30.875 48.1765V52.2487L11.1297 55.5393C8.47054 55.9753 6.05359 57.344 4.31192 59.4001C2.57026 61.4562 1.61773 64.0653 1.62504 66.7599V100.75C1.62504 101.181 1.79625 101.594 2.10099 101.899C2.40574 102.204 2.81906 102.375 3.25004 102.375H99.125C100.917 102.375 102.375 100.917 102.375 99.1251V66.6251C102.375 64.8327 100.917 63.3751 99.125 63.3751ZM86.125 58.5001V63.3751H75.8355C74.9693 60.6191 73.0878 58.2955 70.5722 56.8751H84.5C85.3954 56.8751 86.125 57.6031 86.125 58.5001ZM66.625 58.817C67.8716 59.0738 69.0403 59.6202 70.0367 60.412C71.0332 61.2038 71.8295 62.2188 72.3613 63.3751H66.625V58.817ZM58.5 29.2501C58.5 30.1455 57.7704 30.8751 56.875 30.8751H55.25V27.6251H56.875C57.7704 27.6251 58.5 28.3547 58.5 29.2501ZM23.2928 13.0862C23.9061 12.0712 24.7703 11.2312 25.8022 10.6469C26.8342 10.0626 27.9992 9.75377 29.185 9.75008C31.733 9.75008 34.0974 11.016 35.5128 13.135L36.023 13.9003L38.727 12.0982L38.2168 11.3328C36.7722 9.16841 34.5962 7.59695 32.0873 6.90633C35.7663 4.62483 40.5324 4.25433 44.4909 6.05646L49.0263 8.12183C50.8485 8.94841 52.3751 10.3112 53.4024 12.0283C54.207 13.3728 54.6809 14.8891 54.7852 16.4525C54.8894 18.0159 54.621 19.5817 54.002 21.0211L53.8932 21.2746L51.8294 17.1471C51.723 16.934 51.5711 16.7469 51.3844 16.5991C51.1977 16.4513 50.9808 16.3463 50.749 16.2915C50.5172 16.2368 50.2763 16.2337 50.0432 16.2824C49.81 16.3311 49.5905 16.4305 49.4 16.5735L46.8 18.5235C44.564 20.2021 41.7934 21.1251 39 21.1251C36.2067 21.1251 33.436 20.2021 31.2 18.5251L28.6 16.5751C28.4096 16.4321 28.19 16.3328 27.9569 16.284C27.7238 16.2353 27.4828 16.2384 27.2511 16.2932C27.0193 16.3479 26.8024 16.4529 26.6157 16.6007C26.429 16.7486 26.2771 16.9356 26.1707 17.1487L23.9688 21.5541L23.0393 19.6951C22.5193 18.6619 22.2698 17.5138 22.3141 16.358C22.3585 15.2022 22.6952 14.0765 23.2928 13.0862ZM21.125 30.8751C20.2297 30.8751 19.5 30.1455 19.5 29.2501C19.5 28.3547 20.2297 27.6251 21.125 27.6251H22.75V30.8751H21.125ZM26 34.1251V24.7586L28.2068 20.3435L29.25 21.1251C32.045 23.2213 35.5079 24.3751 39 24.3751C42.4922 24.3751 45.955 23.2213 48.75 21.1251L49.7933 20.3435L52 24.7586V34.1251C52 41.293 46.1679 47.1251 39 47.1251C31.8322 47.1251 26 41.293 26 34.1251ZM39 50.3751C40.6538 50.376 42.2979 50.1234 43.875 49.626V52.9523L39 57.8273L34.125 52.9523V49.626C35.7022 50.1234 37.3463 50.376 39 50.3751ZM38.4752 68.2501H39.5249L42.1769 74.8801L39 88.6487L35.8232 74.8801L38.4752 68.2501ZM42.081 61.5112L39.7557 65.0001H38.2444L35.9174 61.5112L36.4602 59.8846L37.8512 61.2756C38.1561 61.58 38.5695 61.7508 39.0004 61.7505C39.4313 61.7502 39.8444 61.5788 40.1489 61.274L41.5399 59.883L42.081 61.5112ZM21.125 99.1251V71.5001H17.875V99.1251H4.87504V66.7599C4.87006 64.8351 5.55052 62.9714 6.79454 61.5025C8.03857 60.0337 9.76488 59.0558 11.6643 58.7438L31.9427 55.3655L33.891 57.3138L32.5829 61.2366C32.5042 61.4713 32.4805 61.721 32.5134 61.9664C32.5464 62.2117 32.6352 62.4463 32.773 62.652L35.5485 66.8152L32.6154 74.1472C32.4927 74.455 32.4667 74.7928 32.5407 75.1157L37.4157 96.2407C37.4975 96.5997 37.6988 96.9203 37.9867 97.1499C38.2745 97.3796 38.6318 97.5046 39 97.5046C39.3683 97.5046 39.7256 97.3796 40.0134 97.1499C40.3013 96.9203 40.5026 96.5997 40.5844 96.2407L45.4594 75.1157C45.5325 74.7939 45.5082 74.456 45.3847 74.1472L42.4515 66.8152L45.227 62.652C45.5049 62.2343 45.5748 61.7127 45.4172 61.2366L44.109 57.3138L46.0574 55.3655L63.3994 58.2547C63.3962 58.3376 63.375 58.4156 63.375 58.5001V63.3751H53.625C51.8327 63.3751 50.375 64.8327 50.375 66.6251V99.1251H21.125ZM55.25 99.1251H53.625V95.8751H99.1267V99.1251H55.25ZM99.1267 92.6251H53.625V79.4447C54.6813 80.5306 55.9445 81.3936 57.3401 81.9828C58.7357 82.572 60.2352 82.8754 61.75 82.8751H71.5V84.5001C71.5 87.1878 73.6873 89.3751 76.375 89.3751C79.0628 89.3751 81.25 87.1878 81.25 84.5001V82.8751H91C92.5151 82.875 94.0147 82.5714 95.4105 81.9822C96.8062 81.3931 98.0698 80.5302 99.1267 79.4447V92.6251ZM74.75 84.5001V76.3751H78V84.5001C77.9813 84.9185 77.8019 85.3135 77.4992 85.603C77.1965 85.8925 76.7939 86.054 76.375 86.054C75.9562 86.054 75.5535 85.8925 75.2508 85.603C74.9481 85.3135 74.7688 84.9185 74.75 84.5001ZM99.125 71.5001C99.125 75.9802 95.4802 79.6251 91 79.6251H81.25V74.7501C81.25 74.3191 81.0788 73.9058 80.7741 73.601C80.4693 73.2963 80.056 73.1251 79.625 73.1251H73.125C72.6941 73.1251 72.2807 73.2963 71.976 73.601C71.6712 73.9058 71.5 74.3191 71.5 74.7501V79.6251H61.75C57.2699 79.6251 53.625 75.9802 53.625 71.5001V66.6251H99.125V71.5001Z" fill="#EDE5DA"/>
<path d="M99.125 63.3751H89.375V58.5001C89.375 55.8123 87.1878 53.6251 84.5 53.6251H68.25C66.8493 53.6251 65.5932 54.228 64.7027 55.177L47.125 52.2487V48.1765C51.974 45.362 55.25 40.1246 55.25 34.1251H56.875C59.5628 34.1251 61.75 31.9378 61.75 29.2501C61.75 26.5623 59.5628 24.3751 56.875 24.3751H56.095L56.9855 22.3097C57.8083 20.3967 58.1652 18.3157 58.0268 16.2379C57.8883 14.16 57.2586 12.1448 56.1893 10.3578C54.8248 8.07518 52.7956 6.26375 50.3734 5.16596L45.838 3.10058C40.4837 0.663082 33.9203 1.37646 29.2127 4.90433L26.65 6.82508L26.6533 6.82996C24.0847 7.49773 21.8787 9.14274 20.5059 11.4141C19.6261 12.8727 19.1303 14.5306 19.065 16.2328C18.9996 17.935 19.3668 19.626 20.1322 21.1478L21.7458 24.3751H21.125C18.4373 24.3751 16.25 26.5623 16.25 29.2501C16.25 31.9378 18.4373 34.1251 21.125 34.1251H22.75C22.75 40.1246 26.026 45.362 30.875 48.1765V52.2487L11.1297 55.5393C8.47054 55.9753 6.05359 57.344 4.31192 59.4001C2.57026 61.4562 1.61773 64.0653 1.62504 66.7599V100.75C1.62504 101.181 1.79625 101.594 2.10099 101.899C2.40574 102.204 2.81906 102.375 3.25004 102.375H99.125C100.917 102.375 102.375 100.917 102.375 99.1251V66.6251C102.375 64.8327 100.917 63.3751 99.125 63.3751ZM86.125 58.5001V63.3751H75.8355C74.9693 60.6191 73.0878 58.2955 70.5722 56.8751H84.5C85.3954 56.8751 86.125 57.6031 86.125 58.5001ZM66.625 58.817C67.8716 59.0738 69.0403 59.6202 70.0367 60.412C71.0332 61.2038 71.8295 62.2188 72.3613 63.3751H66.625V58.817ZM58.5 29.2501C58.5 30.1455 57.7704 30.8751 56.875 30.8751H55.25V27.6251H56.875C57.7704 27.6251 58.5 28.3547 58.5 29.2501ZM23.2928 13.0862C23.9061 12.0712 24.7703 11.2312 25.8022 10.6469C26.8342 10.0626 27.9992 9.75377 29.185 9.75008C31.733 9.75008 34.0974 11.016 35.5128 13.135L36.023 13.9003L38.727 12.0982L38.2168 11.3328C36.7722 9.16841 34.5962 7.59695 32.0873 6.90633C35.7663 4.62483 40.5324 4.25433 44.4909 6.05646L49.0263 8.12183C50.8485 8.94841 52.3751 10.3112 53.4024 12.0283C54.207 13.3728 54.6809 14.8891 54.7852 16.4525C54.8894 18.0159 54.621 19.5817 54.002 21.0211L53.8932 21.2746L51.8294 17.1471C51.723 16.934 51.5711 16.7469 51.3844 16.5991C51.1977 16.4513 50.9808 16.3463 50.749 16.2915C50.5172 16.2368 50.2763 16.2337 50.0432 16.2824C49.81 16.3311 49.5905 16.4305 49.4 16.5735L46.8 18.5235C44.564 20.2021 41.7934 21.1251 39 21.1251C36.2067 21.1251 33.436 20.2021 31.2 18.5251L28.6 16.5751C28.4096 16.4321 28.19 16.3328 27.9569 16.284C27.7238 16.2353 27.4828 16.2384 27.2511 16.2932C27.0193 16.3479 26.8024 16.4529 26.6157 16.6007C26.429 16.7486 26.2771 16.9356 26.1707 17.1487L23.9688 21.5541L23.0393 19.6951C22.5193 18.6619 22.2698 17.5138 22.3141 16.358C22.3585 15.2022 22.6952 14.0765 23.2928 13.0862ZM21.125 30.8751C20.2297 30.8751 19.5 30.1455 19.5 29.2501C19.5 28.3547 20.2297 27.6251 21.125 27.6251H22.75V30.8751H21.125ZM26 34.1251V24.7586L28.2068 20.3435L29.25 21.1251C32.045 23.2213 35.5079 24.3751 39 24.3751C42.4922 24.3751 45.955 23.2213 48.75 21.1251L49.7933 20.3435L52 24.7586V34.1251C52 41.293 46.1679 47.1251 39 47.1251C31.8322 47.1251 26 41.293 26 34.1251ZM39 50.3751C40.6538 50.376 42.2979 50.1234 43.875 49.626V52.9523L39 57.8273L34.125 52.9523V49.626C35.7022 50.1234 37.3463 50.376 39 50.3751ZM38.4752 68.2501H39.5249L42.1769 74.8801L39 88.6487L35.8232 74.8801L38.4752 68.2501ZM42.081 61.5112L39.7557 65.0001H38.2444L35.9174 61.5112L36.4602 59.8846L37.8512 61.2756C38.1561 61.58 38.5695 61.7508 39.0004 61.7505C39.4313 61.7502 39.8444 61.5788 40.1489 61.274L41.5399 59.883L42.081 61.5112ZM21.125 99.1251V71.5001H17.875V99.1251H4.87504V66.7599C4.87006 64.8351 5.55052 62.9714 6.79454 61.5025C8.03857 60.0337 9.76488 59.0558 11.6643 58.7438L31.9427 55.3655L33.891 57.3138L32.5829 61.2366C32.5042 61.4713 32.4805 61.721 32.5134 61.9664C32.5464 62.2117 32.6352 62.4463 32.773 62.652L35.5485 66.8152L32.6154 74.1472C32.4927 74.455 32.4667 74.7928 32.5407 75.1157L37.4157 96.2407C37.4975 96.5997 37.6988 96.9203 37.9867 97.1499C38.2745 97.3796 38.6318 97.5046 39 97.5046C39.3683 97.5046 39.7256 97.3796 40.0134 97.1499C40.3013 96.9203 40.5026 96.5997 40.5844 96.2407L45.4594 75.1157C45.5325 74.7939 45.5082 74.456 45.3847 74.1472L42.4515 66.8152L45.227 62.652C45.5049 62.2343 45.5748 61.7127 45.4172 61.2366L44.109 57.3138L46.0574 55.3655L63.3994 58.2547C63.3962 58.3376 63.375 58.4156 63.375 58.5001V63.3751H53.625C51.8327 63.3751 50.375 64.8327 50.375 66.6251V99.1251H21.125ZM55.25 99.1251H53.625V95.8751H99.1267V99.1251H55.25ZM99.1267 92.6251H53.625V79.4447C54.6813 80.5306 55.9445 81.3936 57.3401 81.9828C58.7357 82.572 60.2352 82.8754 61.75 82.8751H71.5V84.5001C71.5 87.1878 73.6873 89.3751 76.375 89.3751C79.0628 89.3751 81.25 87.1878 81.25 84.5001V82.8751H91C92.5151 82.875 94.0147 82.5714 95.4105 81.9822C96.8062 81.3931 98.0698 80.5302 99.1267 79.4447V92.6251ZM74.75 84.5001V76.3751H78V84.5001C77.9813 84.9185 77.8019 85.3135 77.4992 85.603C77.1965 85.8925 76.7939 86.054 76.375 86.054C75.9562 86.054 75.5535 85.8925 75.2508 85.603C74.9481 85.3135 74.7688 84.9185 74.75 84.5001ZM99.125 71.5001C99.125 75.9802 95.4802 79.6251 91 79.6251H81.25V74.7501C81.25 74.3191 81.0788 73.9058 80.7741 73.601C80.4693 73.2963 80.056 73.1251 79.625 73.1251H73.125C72.6941 73.1251 72.2807 73.2963 71.976 73.601C71.6712 73.9058 71.5 74.3191 71.5 74.7501V79.6251H61.75C57.2699 79.6251 53.625 75.9802 53.625 71.5001V66.6251H99.125V71.5001Z" fill="url(#paint0_linear_1356_19521)"/>
<defs>
<linearGradient id="paint0_linear_1356_19521" x1="52" y1="1.66626" x2="52" y2="102.375" gradientUnits="userSpaceOnUse">
<stop stop-color="#DB00FF"/>
<stop offset="1" stop-color="#8000FF"/>
</linearGradient>
</defs>
</svg>
