<svg width="104" height="104" viewBox="0 0 104 104" fill="none" xmlns="http://www.w3.org/2000/svg">
<path d="M6.5 6.5H52V3.25H4.875C4.44402 3.25 4.0307 3.4212 3.72595 3.72595C3.4212 4.0307 3.25 4.44402 3.25 4.875V99.125C3.25 99.556 3.4212 99.9693 3.72595 100.274C4.0307 100.579 4.44402 100.75 4.875 100.75H34.125V97.5H6.5V6.5Z" fill="#EDE5DA"/>
<path d="M6.5 6.5H52V3.25H4.875C4.44402 3.25 4.0307 3.4212 3.72595 3.72595C3.4212 4.0307 3.25 4.44402 3.25 4.875V99.125C3.25 99.556 3.4212 99.9693 3.72595 100.274C4.0307 100.579 4.44402 100.75 4.875 100.75H34.125V97.5H6.5V6.5Z" fill="url(#paint0_linear_1356_19511)"/>
<path d="M19.5 35.75H16.25C15.3883 35.749 14.5623 35.4063 13.953 34.797C13.3437 34.1877 13.001 33.3617 13 32.5H9.75C9.75194 34.2233 10.4374 35.8755 11.6559 37.0941C12.8745 38.3126 14.5267 38.9981 16.25 39V42.25H19.5V39C21.2239 39 22.8772 38.3152 24.0962 37.0962C25.3152 35.8772 26 34.2239 26 32.5C26 30.7761 25.3152 29.1228 24.0962 27.9038C22.8772 26.6848 21.2239 26 19.5 26H16.25C15.388 26 14.5614 25.6576 13.9519 25.0481C13.3424 24.4386 13 23.612 13 22.75C13 21.888 13.3424 21.0614 13.9519 20.4519C14.5614 19.8424 15.388 19.5 16.25 19.5H19.5C20.3617 19.501 21.1877 19.8437 21.797 20.453C22.4063 21.0623 22.749 21.8883 22.75 22.75H26C25.9981 21.0267 25.3126 19.3745 24.0941 18.1559C22.8755 16.9374 21.2233 16.2519 19.5 16.25V13H16.25V16.25C14.5261 16.25 12.8728 16.9348 11.6538 18.1538C10.4348 19.3728 9.75 21.0261 9.75 22.75C9.75 24.4739 10.4348 26.1272 11.6538 27.3462C12.8728 28.5652 14.5261 29.25 16.25 29.25H19.5C20.362 29.25 21.1886 29.5924 21.7981 30.2019C22.4076 30.8114 22.75 31.638 22.75 32.5C22.75 33.362 22.4076 34.1886 21.7981 34.7981C21.1886 35.4076 20.362 35.75 19.5 35.75ZM32.5 14.625H42.25V17.875H32.5V14.625ZM45.5 14.625H52V17.875H45.5V14.625ZM29.25 22.75H48.75V26H29.25V22.75ZM29.25 30.875H45.5V34.125H29.25V30.875ZM29.25 39H42.25V42.25H29.25V39ZM43.875 76.375C44.306 76.375 44.7193 76.2038 45.024 75.899C45.3288 75.5943 45.5 75.181 45.5 74.75V50.375C45.5 49.944 45.3288 49.5307 45.024 49.226C44.7193 48.9212 44.306 48.75 43.875 48.75H37.375C36.944 48.75 36.5307 48.9212 36.226 49.226C35.9212 49.5307 35.75 49.944 35.75 50.375V55.25H30.875C30.444 55.25 30.0307 55.4212 29.726 55.726C29.4212 56.0307 29.25 56.444 29.25 56.875V63.375H26V60.125C26 59.694 25.8288 59.2807 25.524 58.976C25.2193 58.6712 24.806 58.5 24.375 58.5H17.875C17.444 58.5 17.0307 58.6712 16.726 58.976C16.4212 59.2807 16.25 59.694 16.25 60.125V63.375H11.375C10.944 63.375 10.5307 63.5462 10.226 63.851C9.92121 64.1557 9.75 64.569 9.75 65V81.25C9.75 81.681 9.92121 82.0943 10.226 82.399C10.5307 82.7038 10.944 82.875 11.375 82.875H40.625V79.625H13V76.375H43.875ZM39 52H42.25V73.125H39V52ZM32.5 58.5H35.75V73.125H32.5V58.5ZM26 66.625H29.25V73.125H26V66.625ZM19.5 61.75H22.75V73.125H19.5V61.75ZM13 66.625H16.25V73.125H13V66.625Z" fill="#EDE5DA"/>
<path d="M19.5 35.75H16.25C15.3883 35.749 14.5623 35.4063 13.953 34.797C13.3437 34.1877 13.001 33.3617 13 32.5H9.75C9.75194 34.2233 10.4374 35.8755 11.6559 37.0941C12.8745 38.3126 14.5267 38.9981 16.25 39V42.25H19.5V39C21.2239 39 22.8772 38.3152 24.0962 37.0962C25.3152 35.8772 26 34.2239 26 32.5C26 30.7761 25.3152 29.1228 24.0962 27.9038C22.8772 26.6848 21.2239 26 19.5 26H16.25C15.388 26 14.5614 25.6576 13.9519 25.0481C13.3424 24.4386 13 23.612 13 22.75C13 21.888 13.3424 21.0614 13.9519 20.4519C14.5614 19.8424 15.388 19.5 16.25 19.5H19.5C20.3617 19.501 21.1877 19.8437 21.797 20.453C22.4063 21.0623 22.749 21.8883 22.75 22.75H26C25.9981 21.0267 25.3126 19.3745 24.0941 18.1559C22.8755 16.9374 21.2233 16.2519 19.5 16.25V13H16.25V16.25C14.5261 16.25 12.8728 16.9348 11.6538 18.1538C10.4348 19.3728 9.75 21.0261 9.75 22.75C9.75 24.4739 10.4348 26.1272 11.6538 27.3462C12.8728 28.5652 14.5261 29.25 16.25 29.25H19.5C20.362 29.25 21.1886 29.5924 21.7981 30.2019C22.4076 30.8114 22.75 31.638 22.75 32.5C22.75 33.362 22.4076 34.1886 21.7981 34.7981C21.1886 35.4076 20.362 35.75 19.5 35.75ZM32.5 14.625H42.25V17.875H32.5V14.625ZM45.5 14.625H52V17.875H45.5V14.625ZM29.25 22.75H48.75V26H29.25V22.75ZM29.25 30.875H45.5V34.125H29.25V30.875ZM29.25 39H42.25V42.25H29.25V39ZM43.875 76.375C44.306 76.375 44.7193 76.2038 45.024 75.899C45.3288 75.5943 45.5 75.181 45.5 74.75V50.375C45.5 49.944 45.3288 49.5307 45.024 49.226C44.7193 48.9212 44.306 48.75 43.875 48.75H37.375C36.944 48.75 36.5307 48.9212 36.226 49.226C35.9212 49.5307 35.75 49.944 35.75 50.375V55.25H30.875C30.444 55.25 30.0307 55.4212 29.726 55.726C29.4212 56.0307 29.25 56.444 29.25 56.875V63.375H26V60.125C26 59.694 25.8288 59.2807 25.524 58.976C25.2193 58.6712 24.806 58.5 24.375 58.5H17.875C17.444 58.5 17.0307 58.6712 16.726 58.976C16.4212 59.2807 16.25 59.694 16.25 60.125V63.375H11.375C10.944 63.375 10.5307 63.5462 10.226 63.851C9.92121 64.1557 9.75 64.569 9.75 65V81.25C9.75 81.681 9.92121 82.0943 10.226 82.399C10.5307 82.7038 10.944 82.875 11.375 82.875H40.625V79.625H13V76.375H43.875ZM39 52H42.25V73.125H39V52ZM32.5 58.5H35.75V73.125H32.5V58.5ZM26 66.625H29.25V73.125H26V66.625ZM19.5 61.75H22.75V73.125H19.5V61.75ZM13 66.625H16.25V73.125H13V66.625Z" fill="url(#paint1_linear_1356_19511)"/>
<path d="M100.992 16.0359C101.192 14.4355 101.05 12.8108 100.574 11.2696C100.098 9.72851 99.3002 8.30619 98.2327 7.09703C97.1653 5.88788 95.853 4.91955 94.3827 4.2563C92.9125 3.59304 91.3181 3.25002 89.7052 3.25H60.9374C59.5833 3.25 58.2737 3.73314 57.244 4.61252C56.2143 5.4919 55.5322 6.70981 55.3203 8.04721C55.1085 9.38461 55.3807 10.7537 56.0882 11.9083C56.7956 13.0629 57.8918 13.9272 59.1796 14.3457L48.9441 33.3545C48.8108 33.6021 48.744 33.88 48.7502 34.1611C48.7565 34.4422 48.8356 34.7169 48.9797 34.9583C49.1239 35.1997 49.3283 35.3995 49.5728 35.5383C49.8174 35.6771 50.0937 35.75 50.3749 35.75H56.8749V55.25C56.8749 55.681 57.0461 56.0943 57.3508 56.399C57.6556 56.7038 58.0689 56.875 58.4999 56.875H73.1249V60.8804L53.3119 74.089C48.8575 77.048 45.1173 80.961 42.3622 85.5443C39.6071 90.1275 37.9062 95.2664 37.3828 100.588L40.6168 100.912C41.0932 96.0679 42.6412 91.3908 45.1488 87.2193C47.6563 83.0478 51.0605 79.4864 55.1146 76.7932L59.0404 74.1758C53.9358 82.3061 49.9508 91.0876 47.1933 100.283L50.3064 101.217C53.417 90.8432 58.1355 81.0216 64.29 72.1102L64.9499 74.75L58.5484 100.356L61.7013 101.144L67.7758 76.8467L69.7949 77.5196L68.2535 100.642L71.4962 100.858L73.0806 77.0924L79.9082 70.265L82.2738 73.0249C78.7262 80.5331 75.9815 88.395 74.0853 96.4797L73.1682 100.378L76.3316 101.122L77.2487 97.2242C80.7755 82.1505 87.3302 67.9513 96.5145 55.4893L97.4999 55.7629V88.3705L85.3981 94.4216C85.1921 94.5247 85.0103 94.6704 84.8648 94.8491C84.7194 95.0277 84.6136 95.2353 84.5545 95.4579C84.4953 95.6806 84.4842 95.9133 84.5219 96.1406C84.5596 96.3679 84.6451 96.5846 84.7729 96.7763L88.0229 101.651L90.7269 99.8485L88.498 96.5051L99.8517 90.8284C100.122 90.6934 100.349 90.486 100.507 90.2293C100.666 89.9726 100.75 89.6768 100.75 89.375V54.5277C100.75 54.1725 100.634 53.8271 100.419 53.5444C100.204 53.2616 99.902 53.0571 99.5598 52.962L97.4999 52.39V43.976L100.992 16.0359ZM60.9374 6.5H89.7052C90.8573 6.50004 91.9962 6.74507 93.0463 7.21884C94.0965 7.69261 95.0339 8.38428 95.7963 9.24796C96.5588 10.1117 97.1288 11.1276 97.4687 12.2284C97.8086 13.3292 97.9105 14.4897 97.7676 15.6329L94.7268 39.9592L89.6786 33.901L92.4533 28.3518C92.5538 28.1507 92.6115 27.931 92.6228 27.7065C92.6341 27.482 92.5987 27.2576 92.5188 27.0475C92.4389 26.8374 92.3163 26.6462 92.1588 26.4858C92.0012 26.3255 91.8121 26.1997 91.6034 26.1162L83.4784 22.8662C83.1598 22.7386 82.809 22.7152 82.4763 22.7994C82.1437 22.8836 81.8462 23.071 81.6267 23.3348L76.3749 29.6365V13C76.3749 12.569 76.2037 12.1557 75.8989 11.851C75.5942 11.5462 75.1809 11.375 74.7499 11.375H61.7499C61.4645 11.3754 61.1842 11.4511 60.9374 11.5944V11.375C60.2909 11.375 59.6709 11.1182 59.2138 10.6611C58.7567 10.204 58.4999 9.58397 58.4999 8.9375C58.4999 8.29103 58.7567 7.67105 59.2138 7.21393C59.6709 6.75681 60.2909 6.5 60.9374 6.5ZM60.1249 53.625V34.125C60.1249 33.694 59.9537 33.2807 59.6489 32.976C59.3442 32.6712 58.9309 32.5 58.4999 32.5H53.0956L62.7204 14.625H73.1249V34.125C73.1249 34.459 73.2278 34.7848 73.4196 35.0582C73.6114 35.3316 73.8827 35.5392 74.1968 35.6529C74.5108 35.7666 74.8522 35.7808 75.1745 35.6935C75.4969 35.6062 75.7845 35.4218 75.9983 35.1652L83.3677 26.3222L88.7566 28.4779L86.2965 33.3982C86.1552 33.6808 86.0994 33.9985 86.1358 34.3124C86.1722 34.6263 86.2994 34.9227 86.5017 35.1654L94.2499 44.463V53.089C92.5434 55.3859 90.9266 57.7312 89.3995 60.125H76.3749V55.9232L85.649 46.6491L83.3508 44.3509L74.0767 53.625H60.1249ZM71.0611 74.5158L67.985 73.4904L66.854 68.9668L74.4531 63.9009L77.7868 67.7899L71.0611 74.5158ZM78.2828 63.375H87.403C86.1436 65.499 84.9539 67.6578 83.8338 69.8512L78.2828 63.375Z" fill="#EDE5DA"/>
<path d="M100.992 16.0359C101.192 14.4355 101.05 12.8108 100.574 11.2696C100.098 9.72851 99.3002 8.30619 98.2327 7.09703C97.1653 5.88788 95.853 4.91955 94.3827 4.2563C92.9125 3.59304 91.3181 3.25002 89.7052 3.25H60.9374C59.5833 3.25 58.2737 3.73314 57.244 4.61252C56.2143 5.4919 55.5322 6.70981 55.3203 8.04721C55.1085 9.38461 55.3807 10.7537 56.0882 11.9083C56.7956 13.0629 57.8918 13.9272 59.1796 14.3457L48.9441 33.3545C48.8108 33.6021 48.744 33.88 48.7502 34.1611C48.7565 34.4422 48.8356 34.7169 48.9797 34.9583C49.1239 35.1997 49.3283 35.3995 49.5728 35.5383C49.8174 35.6771 50.0937 35.75 50.3749 35.75H56.8749V55.25C56.8749 55.681 57.0461 56.0943 57.3508 56.399C57.6556 56.7038 58.0689 56.875 58.4999 56.875H73.1249V60.8804L53.3119 74.089C48.8575 77.048 45.1173 80.961 42.3622 85.5443C39.6071 90.1275 37.9062 95.2664 37.3828 100.588L40.6168 100.912C41.0932 96.0679 42.6412 91.3908 45.1488 87.2193C47.6563 83.0478 51.0605 79.4864 55.1146 76.7932L59.0404 74.1758C53.9358 82.3061 49.9508 91.0876 47.1933 100.283L50.3064 101.217C53.417 90.8432 58.1355 81.0216 64.29 72.1102L64.9499 74.75L58.5484 100.356L61.7013 101.144L67.7758 76.8467L69.7949 77.5196L68.2535 100.642L71.4962 100.858L73.0806 77.0924L79.9082 70.265L82.2738 73.0249C78.7262 80.5331 75.9815 88.395 74.0853 96.4797L73.1682 100.378L76.3316 101.122L77.2487 97.2242C80.7755 82.1505 87.3302 67.9513 96.5145 55.4893L97.4999 55.7629V88.3705L85.3981 94.4216C85.1921 94.5247 85.0103 94.6704 84.8648 94.8491C84.7194 95.0277 84.6136 95.2353 84.5545 95.4579C84.4953 95.6806 84.4842 95.9133 84.5219 96.1406C84.5596 96.3679 84.6451 96.5846 84.7729 96.7763L88.0229 101.651L90.7269 99.8485L88.498 96.5051L99.8517 90.8284C100.122 90.6934 100.349 90.486 100.507 90.2293C100.666 89.9726 100.75 89.6768 100.75 89.375V54.5277C100.75 54.1725 100.634 53.8271 100.419 53.5444C100.204 53.2616 99.902 53.0571 99.5598 52.962L97.4999 52.39V43.976L100.992 16.0359ZM60.9374 6.5H89.7052C90.8573 6.50004 91.9962 6.74507 93.0463 7.21884C94.0965 7.69261 95.0339 8.38428 95.7963 9.24796C96.5588 10.1117 97.1288 11.1276 97.4687 12.2284C97.8086 13.3292 97.9105 14.4897 97.7676 15.6329L94.7268 39.9592L89.6786 33.901L92.4533 28.3518C92.5538 28.1507 92.6115 27.931 92.6228 27.7065C92.6341 27.482 92.5987 27.2576 92.5188 27.0475C92.4389 26.8374 92.3163 26.6462 92.1588 26.4858C92.0012 26.3255 91.8121 26.1997 91.6034 26.1162L83.4784 22.8662C83.1598 22.7386 82.809 22.7152 82.4763 22.7994C82.1437 22.8836 81.8462 23.071 81.6267 23.3348L76.3749 29.6365V13C76.3749 12.569 76.2037 12.1557 75.8989 11.851C75.5942 11.5462 75.1809 11.375 74.7499 11.375H61.7499C61.4645 11.3754 61.1842 11.4511 60.9374 11.5944V11.375C60.2909 11.375 59.6709 11.1182 59.2138 10.6611C58.7567 10.204 58.4999 9.58397 58.4999 8.9375C58.4999 8.29103 58.7567 7.67105 59.2138 7.21393C59.6709 6.75681 60.2909 6.5 60.9374 6.5ZM60.1249 53.625V34.125C60.1249 33.694 59.9537 33.2807 59.6489 32.976C59.3442 32.6712 58.9309 32.5 58.4999 32.5H53.0956L62.7204 14.625H73.1249V34.125C73.1249 34.459 73.2278 34.7848 73.4196 35.0582C73.6114 35.3316 73.8827 35.5392 74.1968 35.6529C74.5108 35.7666 74.8522 35.7808 75.1745 35.6935C75.4969 35.6062 75.7845 35.4218 75.9983 35.1652L83.3677 26.3222L88.7566 28.4779L86.2965 33.3982C86.1552 33.6808 86.0994 33.9985 86.1358 34.3124C86.1722 34.6263 86.2994 34.9227 86.5017 35.1654L94.2499 44.463V53.089C92.5434 55.3859 90.9266 57.7312 89.3995 60.125H76.3749V55.9232L85.649 46.6491L83.3508 44.3509L74.0767 53.625H60.1249ZM71.0611 74.5158L67.985 73.4904L66.854 68.9668L74.4531 63.9009L77.7868 67.7899L71.0611 74.5158ZM78.2828 63.375H87.403C86.1436 65.499 84.9539 67.6578 83.8338 69.8512L78.2828 63.375Z" fill="url(#paint2_linear_1356_19511)"/>
<path d="M66.625 22.75H63.375C62.944 22.75 62.5307 22.9212 62.226 23.226C61.9212 23.5307 61.75 23.944 61.75 24.375C61.75 24.806 61.9212 25.2193 62.226 25.524C62.5307 25.8288 62.944 26 63.375 26H66.625C67.056 26 67.4693 25.8288 67.774 25.524C68.0788 25.2193 68.25 24.806 68.25 24.375C68.25 23.944 68.0788 23.5307 67.774 23.226C67.4693 22.9212 67.056 22.75 66.625 22.75Z" fill="#EDE5DA"/>
<path d="M66.625 22.75H63.375C62.944 22.75 62.5307 22.9212 62.226 23.226C61.9212 23.5307 61.75 23.944 61.75 24.375C61.75 24.806 61.9212 25.2193 62.226 25.524C62.5307 25.8288 62.944 26 63.375 26H66.625C67.056 26 67.4693 25.8288 67.774 25.524C68.0788 25.2193 68.25 24.806 68.25 24.375C68.25 23.944 68.0788 23.5307 67.774 23.226C67.4693 22.9212 67.056 22.75 66.625 22.75Z" fill="url(#paint3_linear_1356_19511)"/>
<defs>
<linearGradient id="paint0_linear_1356_19511" x1="27.625" y1="3.25" x2="27.625" y2="100.75" gradientUnits="userSpaceOnUse">
<stop stop-color="#DB00FF"/>
<stop offset="1" stop-color="#8000FF"/>
</linearGradient>
<linearGradient id="paint1_linear_1356_19511" x1="30.875" y1="13" x2="30.875" y2="82.875" gradientUnits="userSpaceOnUse">
<stop stop-color="#DB00FF"/>
<stop offset="1" stop-color="#8000FF"/>
</linearGradient>
<linearGradient id="paint2_linear_1356_19511" x1="69.2315" y1="3.25" x2="69.2315" y2="101.651" gradientUnits="userSpaceOnUse">
<stop stop-color="#DB00FF"/>
<stop offset="1" stop-color="#8000FF"/>
</linearGradient>
<linearGradient id="paint3_linear_1356_19511" x1="65" y1="22.75" x2="65" y2="26" gradientUnits="userSpaceOnUse">
<stop stop-color="#DB00FF"/>
<stop offset="1" stop-color="#8000FF"/>
</linearGradient>
</defs>
</svg>
