<svg width="40" height="41" viewBox="0 0 40 41" fill="none" xmlns="http://www.w3.org/2000/svg">
<path d="M12.8125 3C11.7351 3 10.7017 3.42801 9.93988 4.18988C9.17801 4.95175 8.75 5.98506 8.75 7.0625V33.9375C8.75 35.0149 9.17801 36.0483 9.93988 36.8101C10.7017 37.572 11.7351 38 12.8125 38H27.1875C28.2649 38 29.2983 37.572 30.0601 36.8101C30.822 36.0483 31.25 35.0149 31.25 33.9375V7.0625C31.25 5.98506 30.822 4.95175 30.0601 4.18988C29.2983 3.42801 28.2649 3 27.1875 3H12.8125ZM11.25 7.0625C11.25 6.2 11.95 5.5 12.8125 5.5H27.1875C28.05 5.5 28.75 6.2 28.75 7.0625V33.9375C28.75 34.8 28.05 35.5 27.1875 35.5H12.8125C11.95 35.5 11.25 34.8 11.25 33.9375V7.0625ZM17.5 30.5C17.1685 30.5 16.8505 30.6317 16.6161 30.8661C16.3817 31.1005 16.25 31.4185 16.25 31.75C16.25 32.0815 16.3817 32.3995 16.6161 32.6339C16.8505 32.8683 17.1685 33 17.5 33H22.5C22.8315 33 23.1495 32.8683 23.3839 32.6339C23.6183 32.3995 23.75 32.0815 23.75 31.75C23.75 31.4185 23.6183 31.1005 23.3839 30.8661C23.1495 30.6317 22.8315 30.5 22.5 30.5H17.5Z" fill="black"/>
</svg>
