<svg width="56" height="57" viewBox="0 0 56 57" fill="none" xmlns="http://www.w3.org/2000/svg">
<path d="M53.1113 22.5909C54.2217 22.5909 55.125 21.6875 55.125 20.5772V18.6605C55.125 18.5074 55.0848 18.3569 55.0085 18.2242C54.9321 18.0915 54.8223 17.9811 54.6899 17.9042L28.4399 2.63388C28.3063 2.55619 28.1545 2.51526 27.9999 2.51526C27.8454 2.51526 27.6936 2.55619 27.56 2.63388L1.30998 17.9042C1.17765 17.9812 1.06783 18.0916 0.9915 18.2243C0.915171 18.357 0.875 18.5075 0.875 18.6606V20.5773C0.875 21.6877 1.77833 22.591 2.88859 22.591H5.71681V45.8574H4.00214C3.77008 45.8574 3.54752 45.9496 3.38342 46.1137C3.21933 46.2778 3.12714 46.5004 3.12714 46.7324V49.296H1.75C1.51794 49.296 1.29538 49.3882 1.13128 49.5522C0.967187 49.7163 0.875 49.9389 0.875 50.171V53.6095C0.875 53.8416 0.967187 54.0641 1.13128 54.2282C1.29538 54.3923 1.51794 54.4845 1.75 54.4845H54.2499C54.482 54.4845 54.7045 54.3923 54.8686 54.2282C55.0327 54.0641 55.1249 53.8416 55.1249 53.6095V50.171C55.1249 49.9389 55.0327 49.7163 54.8686 49.5522C54.7045 49.3882 54.482 49.296 54.2499 49.296H52.8727V46.7324C52.8727 46.5004 52.7806 46.2778 52.6165 46.1137C52.4524 45.9496 52.2298 45.8574 51.9977 45.8574H50.2831V22.5909H53.1113ZM28 4.40258L51.0057 17.7856H4.99428L28 4.40258ZM2.625 20.5773V19.5356H53.375V20.5773C53.375 20.7202 53.2542 20.841 53.1113 20.841H2.88859C2.74575 20.8409 2.625 20.7201 2.625 20.5773ZM12.7116 45.8573V22.5909H43.2884V45.8573H12.7116ZM7.46692 22.5909H10.9616V45.8573H7.46692V22.5909ZM53.3749 52.7344H2.625V51.0459H53.3749V52.7344ZM51.1227 49.2957H4.87714V47.6072H51.1227V49.2957ZM48.5331 45.8573H45.0384V22.5909H48.5331V45.8573ZM41.7277 24.4286L41.4142 26.9771C41.3551 27.4569 40.9181 27.7962 40.4389 27.7388C40.209 27.7105 39.9998 27.5922 39.8569 27.4099C39.7141 27.2276 39.6493 26.9961 39.6769 26.7661L35.4113 31.1061C35.3156 31.2034 35.1986 31.277 35.0694 31.321C34.9403 31.365 34.8027 31.3782 34.6675 31.3596C34.5324 31.3409 34.4035 31.2909 34.2911 31.2135C34.1787 31.1362 34.086 31.0336 34.0203 30.9141L32.0748 27.3722L26.6981 40.4222C26.6415 40.5595 26.551 40.6801 26.4349 40.7728C26.3188 40.8654 26.1811 40.9269 26.0346 40.9516C25.8882 40.9763 25.7379 40.9633 25.5979 40.9139C25.4578 40.8645 25.3327 40.7802 25.2342 40.669L23.4103 38.6102L22.8997 42.1964C22.877 42.3556 22.8109 42.5055 22.7086 42.6295C22.6062 42.7536 22.4717 42.8471 22.3198 42.8997C22.1678 42.9524 22.0043 42.9621 21.8472 42.9279C21.6901 42.8937 21.5454 42.8169 21.4291 42.7059L19.1297 40.5097L15.8184 44.5608C15.7363 44.6614 15.6329 44.7424 15.5156 44.7979C15.3983 44.8535 15.2701 44.8822 15.1403 44.882C14.9748 44.8819 14.8127 44.8348 14.6728 44.7462C14.533 44.6576 14.4211 44.5312 14.3502 44.3816C14.2793 44.232 14.2523 44.0653 14.2724 43.901C14.2924 43.7367 14.3586 43.5814 14.4633 43.4532L18.3729 38.6703C18.4493 38.5769 18.5441 38.5004 18.6514 38.4454C18.7587 38.3904 18.8762 38.3582 18.9966 38.3508C19.117 38.343 19.2377 38.3604 19.351 38.4018C19.4643 38.4432 19.5678 38.5078 19.6548 38.5913L21.4071 40.2649L21.9445 36.4906C21.968 36.3252 22.0384 36.1701 22.1473 36.0434C22.2562 35.9168 22.3991 35.824 22.559 35.7759C22.719 35.7279 22.8894 35.7266 23.05 35.7723C23.2107 35.818 23.3549 35.9087 23.4656 36.0337L25.6143 38.459L31.153 25.0159C31.2158 24.8633 31.3205 24.7316 31.4551 24.636C31.5896 24.5404 31.7484 24.4849 31.9132 24.4757C32.078 24.4662 32.2422 24.5036 32.3866 24.5837C32.531 24.6638 32.6496 24.7832 32.7288 24.9281L34.9879 29.0406L38.4704 25.4973L38.4175 25.5039C37.9386 25.5617 37.5013 25.2218 37.4422 24.7422C37.4282 24.6281 37.4368 24.5124 37.4675 24.4017C37.4981 24.2909 37.5503 24.1873 37.6211 24.0968C37.6918 24.0062 37.7797 23.9304 37.8797 23.8738C37.9797 23.8172 38.0899 23.7809 38.2039 23.7669L40.7525 23.4534C40.8844 23.4371 41.0184 23.4511 41.1441 23.4944C41.2698 23.5376 41.384 23.609 41.4781 23.703C41.5721 23.797 41.6434 23.9112 41.6867 24.037C41.7299 24.1627 41.7439 24.2966 41.7277 24.4286ZM28 16.2709C30.2719 16.2709 32.1205 14.4224 32.1205 12.1504C32.1205 9.87833 30.2719 8.02989 28 8.02989C25.728 8.02989 23.8794 9.87833 23.8794 12.1504C23.8794 14.4224 25.728 16.2709 28 16.2709ZM28 9.77989C29.307 9.77989 30.3705 10.8432 30.3705 12.1504C30.3705 13.4575 29.307 14.5209 28 14.5209C26.6929 14.5209 25.6294 13.4575 25.6294 12.1504C25.6294 10.8432 26.6929 9.77989 28 9.77989Z" fill="#04AD6C"/>
</svg>
