<svg width="56" height="57" viewBox="0 0 56 57" fill="none" xmlns="http://www.w3.org/2000/svg">
<g clip-path="url(#clip0_2507_18941)">
<path d="M50.6885 8.32057H40.6637V5.03007C40.6637 4.57729 40.2967 4.21021 39.8438 4.21021C39.3909 4.21021 39.024 4.57729 39.024 5.03007V8.32057H35.6279C35.175 8.32057 34.808 8.68765 34.808 9.14044C34.808 9.59322 35.175 9.9603 35.6279 9.9603H39.024V13.4319H38.4086C37.5494 13.4319 36.8503 14.131 36.8503 14.9901V24.642C36.8503 25.5012 37.5494 26.2002 38.4086 26.2002H39.024V32.7046C39.024 33.1574 39.3909 33.5244 39.8438 33.5244C40.2967 33.5244 40.6637 33.1574 40.6637 32.7046V26.2002H41.279C42.1382 26.2002 42.8372 25.5011 42.8372 24.642V14.9901C42.8372 14.1309 42.1382 13.4319 41.279 13.4319H40.6637V9.9603H50.6885C52.6585 9.9603 54.2613 11.5631 54.2613 13.5332V41.5939H1.74129V13.5333C1.74129 11.5632 3.34408 9.96041 5.31416 9.96041H19.6861V11.5605H19.0707C18.2115 11.5605 17.5126 12.2595 17.5126 13.1186V22.7705C17.5126 23.6298 18.2116 24.3287 19.0707 24.3287H19.6861V31.5734C19.6861 31.7908 19.7725 31.9993 19.9262 32.1531C20.08 32.3069 20.2885 32.3932 20.5059 32.3932C20.7234 32.3932 20.9319 32.3069 21.0857 32.1531C21.2394 31.9993 21.3258 31.7908 21.3258 31.5734V24.3287H21.9411C22.8004 24.3287 23.4993 23.6296 23.4993 22.7705V13.1186C23.4993 12.2594 22.8003 11.5605 21.9411 11.5605H21.3258V9.9603H24.7219C24.9394 9.9603 25.1479 9.87392 25.3016 9.72017C25.4554 9.56641 25.5418 9.35788 25.5418 9.14044C25.5418 8.923 25.4554 8.71446 25.3016 8.56071C25.1479 8.40695 24.9394 8.32057 24.7219 8.32057H21.3258V7.91567C21.3258 7.69823 21.2394 7.48969 21.0857 7.33594C20.9319 7.18218 20.7234 7.0958 20.5059 7.0958C20.2885 7.0958 20.08 7.18218 19.9262 7.33594C19.7725 7.48969 19.6861 7.69823 19.6861 7.91567V8.32057H5.31416C2.43993 8.32057 0.101562 10.6589 0.101562 13.5332V42.4137C0.101562 45.288 2.43993 47.6263 5.31416 47.6263H17.7946V51.795L15.1521 54.8602H14.1032C13.8858 54.8602 13.6773 54.9465 13.5235 55.1003C13.3697 55.2541 13.2834 55.4626 13.2834 55.68C13.2834 55.8975 13.3697 56.106 13.5235 56.2598C13.6773 56.4135 13.8858 56.4999 14.1032 56.4999H41.8238C42.2767 56.4999 42.6436 56.1328 42.6436 55.68C42.6436 55.2272 42.2767 54.8602 41.8238 54.8602H40.8504L38.2079 51.795V47.6263H50.6885C53.5627 47.6263 55.9011 45.288 55.9011 42.4137V13.5333C55.9011 10.659 53.5627 8.32057 50.6885 8.32057ZM41.1975 24.5607H38.4902V15.0718H41.1976V24.5607H41.1975ZM21.8596 22.689H19.1522V13.2002H21.8596V22.689ZM50.6885 45.9866H34.0954C33.6425 45.9866 33.2755 46.3537 33.2755 46.8065C33.2755 47.2593 33.6425 47.6263 34.0954 47.6263H36.5682V51.2798H34.526C34.0731 51.2798 33.7061 51.6468 33.7061 52.0996C33.7061 52.5524 34.0731 52.9195 34.526 52.9195H37.0124L38.6854 54.8602H17.3171L18.9902 52.9195H21.4766C21.694 52.9195 21.9025 52.8331 22.0563 52.6794C22.21 52.5256 22.2964 52.3171 22.2964 52.0996C22.2964 51.8822 22.21 51.6736 22.0563 51.5199C21.9025 51.3661 21.694 51.2798 21.4766 51.2798H19.4343V47.6263H30.6013C31.0542 47.6263 31.4212 47.2593 31.4212 46.8065C31.4212 46.3537 31.0542 45.9866 30.6013 45.9866H5.31416C3.62622 45.9866 2.20895 44.8097 1.83727 43.2336H54.1653C53.7937 44.8097 52.3764 45.9866 50.6885 45.9866Z" fill="#04AD6C"/>
<path d="M8.66298 24.436C8.44554 24.436 8.237 24.5224 8.08325 24.6762C7.92949 24.8299 7.84311 25.0384 7.84311 25.2559V27.2351C7.84311 28.0944 8.54208 28.7933 9.4013 28.7933H10.0166V33.1595C10.0166 33.3769 10.103 33.5855 10.2568 33.7392C10.4105 33.893 10.6191 33.9794 10.8365 33.9794C11.0539 33.9794 11.2625 33.893 11.4162 33.7392C11.57 33.5855 11.6564 33.3769 11.6564 33.1595V28.7933H12.2717C13.1309 28.7933 13.8299 28.0944 13.8299 27.2351V17.5833C13.8299 16.724 13.1308 16.025 12.2717 16.025H11.6564V14.7136C11.6564 14.4962 11.57 14.2876 11.4162 14.1339C11.2625 13.9801 11.0539 13.8938 10.8365 13.8938C10.6191 13.8938 10.4105 13.9801 10.2568 14.1339C10.103 14.2876 10.0166 14.4962 10.0166 14.7136V16.025H9.4013C8.54208 16.025 7.84311 16.724 7.84311 17.5833V21.7619C7.84311 21.9794 7.92949 22.1879 8.08325 22.3417C8.237 22.4954 8.44554 22.5818 8.66298 22.5818C8.88042 22.5818 9.08896 22.4954 9.24271 22.3417C9.39647 22.1879 9.48285 21.9794 9.48285 21.7619V17.6648H12.1904V27.1537H9.48285V25.256C9.48286 25.1483 9.46166 25.0417 9.42047 24.9422C9.37927 24.8427 9.31889 24.7523 9.24275 24.6762C9.16662 24.6 9.07623 24.5396 8.97676 24.4984C8.87728 24.4572 8.77066 24.436 8.66298 24.436ZM28.7392 22.7064H29.3546V27.0725C29.3546 27.5253 29.7216 27.8924 30.1745 27.8924C30.6274 27.8924 30.9944 27.5253 30.9944 27.0725V22.7064H31.6097C32.4688 22.7064 33.1679 22.0074 33.1679 21.1481V14.7174C33.1679 14.2647 32.8009 13.8976 32.348 13.8976C31.8951 13.8976 31.5282 14.2647 31.5282 14.7174V21.0667H28.8207V6.22135H31.5282V11.2235C31.5282 11.6763 31.8951 12.0434 32.348 12.0434C32.8009 12.0434 33.1679 11.6763 33.1679 11.2235V6.1398C33.1679 5.28069 32.4688 4.58162 31.6097 4.58162H30.9944V1.31987C30.9944 0.867081 30.6274 0.5 30.1745 0.5C29.7216 0.5 29.3546 0.867081 29.3546 1.31987V4.58162H28.7392C27.88 4.58162 27.181 5.28069 27.181 6.1398V21.1481C27.181 22.0075 27.88 22.7064 28.7392 22.7064ZM44.5748 22.9771C44.6259 23.0719 44.6952 23.1557 44.7786 23.2237C44.8621 23.2917 44.9582 23.3426 45.0613 23.3735C45.1645 23.4044 45.2727 23.4146 45.3798 23.4037C45.4869 23.3927 45.5908 23.3608 45.6856 23.3096L49.4621 21.2734L49.1905 21.9864C49.1521 22.087 49.134 22.1942 49.1371 22.3018C49.1402 22.4094 49.1645 22.5154 49.2085 22.6136C49.2525 22.7119 49.3155 22.8005 49.3938 22.8744C49.4721 22.9483 49.5642 23.0061 49.6648 23.0444C49.7654 23.0828 49.8726 23.1009 49.9802 23.0978C50.0878 23.0947 50.1938 23.0705 50.2921 23.0264C50.3903 22.9824 50.4789 22.9194 50.5528 22.8411C50.6268 22.7628 50.6845 22.6707 50.7229 22.5701L51.6459 20.147C51.6842 20.0464 51.7024 19.9392 51.6993 19.8316C51.6962 19.724 51.6719 19.618 51.6279 19.5198C51.5839 19.4215 51.5209 19.3329 51.4426 19.259C51.3643 19.1851 51.2722 19.1273 51.1716 19.089L48.5997 18.1092C48.3973 18.0351 48.1738 18.0438 47.9777 18.1333C47.7816 18.2228 47.6286 18.3859 47.5518 18.5874C47.4751 18.7888 47.4808 19.0124 47.5676 19.2097C47.6545 19.407 47.8156 19.5621 48.016 19.6416L48.6123 19.8687L44.9074 21.8663C44.716 21.9695 44.5734 22.1445 44.5111 22.3528C44.4487 22.5612 44.4716 22.7857 44.5748 22.9771ZM4.94888 38.9965C5.01204 39.1442 5.11717 39.27 5.25122 39.3585C5.38527 39.4469 5.54234 39.494 5.70294 39.494C5.81374 39.4939 5.92338 39.4714 6.0252 39.4276L16.6045 34.8999L17.566 37.4189C17.6076 37.5278 17.6719 37.6266 17.7547 37.7088C17.8376 37.7909 17.937 37.8543 18.0463 37.895C18.1556 37.9356 18.2723 37.9524 18.3887 37.9444C18.505 37.9363 18.6183 37.9035 18.721 37.8481L36.1988 28.4246C36.2937 28.3736 36.3777 28.3044 36.4459 28.2209C36.514 28.1374 36.5651 28.0413 36.5961 27.9381C36.6271 27.8349 36.6374 27.7266 36.6265 27.6193C36.6156 27.5121 36.5837 27.4081 36.5325 27.3132C36.4814 27.2183 36.412 27.1345 36.3284 27.0664C36.2448 26.9984 36.1486 26.9475 36.0454 26.9167C35.9421 26.8859 35.8337 26.8757 35.7265 26.8868C35.6193 26.8979 35.5153 26.93 35.4206 26.9813L18.7648 35.9616L17.8322 33.518C17.7929 33.4149 17.7331 33.3207 17.6565 33.2412C17.5798 33.1617 17.4879 33.0986 17.3863 33.0555C17.2846 33.0124 17.1753 32.9903 17.0649 32.9905C16.9544 32.9907 16.8452 33.0132 16.7437 33.0566L5.38002 37.9201C5.18015 38.0057 5.02246 38.1672 4.94161 38.369C4.86077 38.5709 4.86338 38.7966 4.94888 38.9965Z" fill="#04AD6C"/>
</g>
<defs>
<clipPath id="clip0_2507_18941">
<rect width="56" height="56" fill="white" transform="translate(0 0.5)"/>
</clipPath>
</defs>
</svg>
