<svg width="56" height="57" viewBox="0 0 56 57" fill="none" xmlns="http://www.w3.org/2000/svg">
<path d="M3.5 50.375C3.50273 52.7901 5.45989 54.7472 7.875 54.75H40.25C47.015 54.7506 52.4996 49.2671 52.5002 42.5022C52.5007 37.7702 49.7755 33.4612 45.5 31.4335V13.625C45.5 13.5101 45.4774 13.3963 45.4334 13.2901C45.3894 13.184 45.325 13.0875 45.2437 13.0063L34.7437 2.50627C34.6625 2.42502 34.566 2.36056 34.4599 2.31659C34.3537 2.27262 34.2399 2.25 34.125 2.25H7.875C5.45989 2.25273 3.50273 4.20989 3.5 6.625V50.375ZM50.75 42.5C50.75 48.2989 46.049 53 40.25 53C34.451 53 29.75 48.2989 29.75 42.5C29.75 36.701 34.451 32 40.25 32C46.0463 32.0065 50.7434 36.7037 50.75 42.5ZM35 5.23736L42.5126 12.75H37.625C36.1759 12.7484 35.0016 11.5741 35 10.125V5.23736ZM5.25 6.625C5.25164 5.176 6.426 4.00164 7.875 4H33.25V10.125C33.2527 12.5401 35.2099 14.4973 37.625 14.5H43.75V30.7603C37.2679 28.8262 30.4453 32.5131 28.5111 38.9951C26.9113 44.3569 29.1485 50.1212 33.9466 53H7.875C6.426 52.9983 5.25164 51.824 5.25 50.375V6.625Z" fill="#04AD6C"/>
<path d="M17.5 18.875C17.5 19.1071 17.5922 19.3296 17.7563 19.4937C17.9204 19.6578 18.1429 19.75 18.375 19.75H39.375C39.6071 19.75 39.8296 19.6578 39.9937 19.4937C40.1578 19.3296 40.25 19.1071 40.25 18.875C40.25 18.6429 40.1578 18.4204 39.9937 18.2563C39.8296 18.0922 39.6071 18 39.375 18H18.375C18.1429 18 17.9204 18.0922 17.7563 18.2563C17.5922 18.4204 17.5 18.6429 17.5 18.875ZM9.625 25H27.125C27.3571 25 27.5796 24.9078 27.7437 24.7437C27.9078 24.5796 28 24.3571 28 24.125C28 23.8929 27.9078 23.6704 27.7437 23.5063C27.5796 23.3422 27.3571 23.25 27.125 23.25H9.625C9.39294 23.25 9.17038 23.3422 9.00628 23.5063C8.84219 23.6704 8.75 23.8929 8.75 24.125C8.75 24.3571 8.84219 24.5796 9.00628 24.7437C9.17038 24.9078 9.39294 25 9.625 25ZM30.625 28.5H23.625C23.3929 28.5 23.1704 28.5922 23.0063 28.7563C22.8422 28.9204 22.75 29.1429 22.75 29.375C22.75 29.6071 22.8422 29.8296 23.0063 29.9937C23.1704 30.1578 23.3929 30.25 23.625 30.25H30.625C30.8571 30.25 31.0796 30.1578 31.2437 29.9937C31.4078 29.8296 31.5 29.6071 31.5 29.375C31.5 29.1429 31.4078 28.9204 31.2437 28.7563C31.0796 28.5922 30.8571 28.5 30.625 28.5ZM9.625 35.5H25.375C25.6071 35.5 25.8296 35.4078 25.9937 35.2437C26.1578 35.0796 26.25 34.8571 26.25 34.625C26.25 34.3929 26.1578 34.1704 25.9937 34.0063C25.8296 33.8422 25.6071 33.75 25.375 33.75H9.625C9.39294 33.75 9.17038 33.8422 9.00628 34.0063C8.84219 34.1704 8.75 34.3929 8.75 34.625C8.75 34.8571 8.84219 35.0796 9.00628 35.2437C9.17038 35.4078 9.39294 35.5 9.625 35.5ZM9.625 19.75H14.875C15.1071 19.75 15.3296 19.6578 15.4937 19.4937C15.6578 19.3296 15.75 19.1071 15.75 18.875C15.75 18.6429 15.6578 18.4204 15.4937 18.2563C15.3296 18.0922 15.1071 18 14.875 18H9.625C9.39294 18 9.17038 18.0922 9.00628 18.2563C8.84219 18.4204 8.75 18.6429 8.75 18.875C8.75 19.1071 8.84219 19.3296 9.00628 19.4937C9.17038 19.6578 9.39294 19.75 9.625 19.75ZM39.375 23.25H30.625C30.3929 23.25 30.1704 23.3422 30.0063 23.5063C29.8422 23.6704 29.75 23.8929 29.75 24.125C29.75 24.3571 29.8422 24.5796 30.0063 24.7437C30.1704 24.9078 30.3929 25 30.625 25H39.375C39.6071 25 39.8296 24.9078 39.9937 24.7437C40.1578 24.5796 40.25 24.3571 40.25 24.125C40.25 23.8929 40.1578 23.6704 39.9937 23.5063C39.8296 23.3422 39.6071 23.25 39.375 23.25ZM9.625 30.25H20.125C20.3571 30.25 20.5796 30.1578 20.7437 29.9937C20.9078 29.8296 21 29.6071 21 29.375C21 29.1429 20.9078 28.9204 20.7437 28.7563C20.5796 28.5922 20.3571 28.5 20.125 28.5H9.625C9.39294 28.5 9.17038 28.5922 9.00628 28.7563C8.84219 28.9204 8.75 29.1429 8.75 29.375C8.75 29.6071 8.84219 29.8296 9.00628 29.9937C9.17038 30.1578 9.39294 30.25 9.625 30.25ZM23.625 44.25H20.125C19.8929 44.25 19.6704 44.3422 19.5063 44.5063C19.3422 44.6704 19.25 44.8929 19.25 45.125C19.25 45.357 19.3422 45.5796 19.5063 45.7437C19.6704 45.9078 19.8929 46 20.125 46H23.625C23.8571 46 24.0796 45.9078 24.2437 45.7437C24.4078 45.5796 24.5 45.357 24.5 45.125C24.5 44.8929 24.4078 44.6704 24.2437 44.5063C24.0796 44.3422 23.8571 44.25 23.625 44.25ZM9.625 46H16.625C16.8571 46 17.0796 45.9078 17.2437 45.7437C17.4078 45.5796 17.5 45.357 17.5 45.125C17.5 44.8929 17.4078 44.6704 17.2437 44.5063C17.0796 44.3422 16.8571 44.25 16.625 44.25H9.625C9.39294 44.25 9.17038 44.3422 9.00628 44.5063C8.84219 44.6704 8.75 44.8929 8.75 45.125C8.75 45.357 8.84219 45.5796 9.00628 45.7437C9.17038 45.9078 9.39294 46 9.625 46ZM9.625 40.75H14.875C15.1071 40.75 15.3296 40.6578 15.4937 40.4937C15.6578 40.3296 15.75 40.107 15.75 39.875C15.75 39.6429 15.6578 39.4204 15.4937 39.2563C15.3296 39.0922 15.1071 39 14.875 39H9.625C9.39294 39 9.17038 39.0922 9.00628 39.2563C8.84219 39.4204 8.75 39.6429 8.75 39.875C8.75 40.107 8.84219 40.3296 9.00628 40.4937C9.17038 40.6578 9.39294 40.75 9.625 40.75ZM9.625 14.5H20.125C20.3571 14.5 20.5796 14.4078 20.7437 14.2437C20.9078 14.0796 21 13.8571 21 13.625C21 13.3929 20.9078 13.1704 20.7437 13.0063C20.5796 12.8422 20.3571 12.75 20.125 12.75H9.625C9.39294 12.75 9.17038 12.8422 9.00628 13.0063C8.84219 13.1704 8.75 13.3929 8.75 13.625C8.75 13.8571 8.84219 14.0796 9.00628 14.2437C9.17038 14.4078 9.39294 14.5 9.625 14.5ZM23.625 39H18.375C18.1429 39 17.9204 39.0922 17.7563 39.2563C17.5922 39.4204 17.5 39.6429 17.5 39.875C17.5 40.107 17.5922 40.3296 17.7563 40.4937C17.9204 40.6578 18.1429 40.75 18.375 40.75H23.625C23.8571 40.75 24.0796 40.6578 24.2437 40.4937C24.4078 40.3296 24.5 40.107 24.5 39.875C24.5 39.6429 24.4078 39.4204 24.2437 39.2563C24.0796 39.0922 23.8571 39 23.625 39ZM35.3149 36.5778C35.2266 36.6513 35.1537 36.7416 35.1002 36.8433C35.0468 36.945 35.014 37.0563 35.0036 37.1708C34.9932 37.2852 35.0054 37.4006 35.0396 37.5103C35.0738 37.62 35.1292 37.7219 35.2028 37.8102C35.2028 37.8102 38.5205 41.7968 39.5745 43.0563C39.6807 43.1832 39.8541 43.331 40.1576 43.3702C40.1882 43.3741 40.2192 43.375 40.25 43.375H46.375C46.6071 43.375 46.8296 43.2828 46.9937 43.1187C47.1578 42.9546 47.25 42.732 47.25 42.5C47.25 42.2679 47.1578 42.0454 46.9937 41.8813C46.8296 41.7172 46.6071 41.625 46.375 41.625H40.6598L36.5473 36.6898C36.4738 36.6015 36.3835 36.5286 36.2818 36.4751C36.18 36.4217 36.0688 36.3889 35.9543 36.3785C35.8399 36.3681 35.7245 36.3803 35.6148 36.4145C35.5051 36.4487 35.4032 36.5042 35.3149 36.5778Z" fill="#04AD6C"/>
</svg>
