<svg width="49" height="48" viewBox="0 0 49 48" fill="none" xmlns="http://www.w3.org/2000/svg">
<path fill-rule="evenodd" clip-rule="evenodd" d="M24.1648 2.00061C29.9108 2.00061 35.3108 4.23461 39.3668 8.29261C47.7508 16.6766 47.7508 30.3166 39.3668 38.7006C35.2568 42.8126 29.7228 44.9886 24.1168 44.9886C21.0608 44.9886 17.9848 44.3426 15.1068 43.0106C14.2588 42.6706 13.4648 42.3506 12.8948 42.3506C12.2388 42.3546 11.3568 42.6586 10.5048 42.9526C8.75684 43.5526 6.58084 44.3006 4.97084 42.6966C3.36684 41.0906 4.10684 38.9206 4.70284 37.1746C4.99684 36.3146 5.29884 35.4266 5.29884 34.7546C5.29884 34.2026 5.03284 33.4986 4.62484 32.4846C0.878843 24.3946 2.61084 14.6446 8.96484 8.29461C13.0208 4.23661 18.4188 2.00061 24.1648 2.00061ZM24.1668 5.00061C19.2208 5.00061 14.5748 6.92461 11.0848 10.4166C5.61684 15.8806 4.12884 24.2706 7.37884 31.2966C7.84684 32.4546 8.29884 33.5826 8.29884 34.7546C8.29884 35.9246 7.89684 37.1026 7.54284 38.1426C7.25084 38.9986 6.80884 40.2906 7.09284 40.5746C7.37084 40.8626 8.67084 40.4086 9.52884 40.1146C10.5588 39.7626 11.7268 39.3586 12.8848 39.3506C14.0448 39.3506 15.1388 39.7906 16.2968 40.2566C23.3908 43.5366 31.7808 42.0446 37.2468 36.5806C44.4588 29.3646 44.4588 17.6266 37.2468 10.4146C33.7548 6.92261 29.1108 5.00061 24.1668 5.00061ZM32.0606 22.326C33.1646 22.326 34.0606 23.22 34.0606 24.326C34.0606 25.432 33.1646 26.326 32.0606 26.326C30.9566 26.326 30.0526 25.432 30.0526 24.326C30.0526 23.22 30.9386 22.326 32.0426 22.326H32.0606ZM24.043 22.326C25.147 22.326 26.043 23.22 26.043 24.326C26.043 25.432 25.147 26.326 24.043 26.326C22.939 26.326 22.035 25.432 22.035 24.326C22.035 23.22 22.919 22.326 24.025 22.326H24.043ZM16.0246 22.326C17.1286 22.326 18.0246 23.22 18.0246 24.326C18.0246 25.432 17.1286 26.326 16.0246 26.326C14.9206 26.326 14.0166 25.432 14.0166 24.326C14.0166 23.22 14.9026 22.326 16.0066 22.326H16.0246Z" fill="#535967"/>
</svg>
