<svg width="49" height="48" viewBox="0 0 49 48" fill="none" xmlns="http://www.w3.org/2000/svg">
<path fill-rule="evenodd" clip-rule="evenodd" d="M15.4208 39.9037C16.8488 39.9037 18.0108 41.0637 18.0108 42.4917C18.0108 43.9197 16.8488 45.0817 15.4208 45.0817C13.9928 45.0817 12.8328 43.9197 12.8328 42.4917C12.8328 41.0637 13.9928 39.9037 15.4208 39.9037ZM37.9814 39.9037C39.4114 39.9037 40.5734 41.0637 40.5734 42.4917C40.5734 43.9197 39.4114 45.0817 37.9814 45.0817C36.5534 45.0817 35.3934 43.9197 35.3934 42.4917C35.3934 41.0637 36.5534 39.9037 37.9814 39.9037ZM6.86917 6.01885L11.0292 6.73885C11.6992 6.85685 12.2092 7.41285 12.2672 8.09285L12.7372 13.6949L14.4849 13.6956C14.7701 13.6957 15.0522 13.6959 15.3314 13.696L18.54 13.6975C18.7958 13.6976 19.0487 13.6978 19.2988 13.6979L22.8415 13.6998C23.0641 13.7 23.284 13.7001 23.5013 13.7002L25.9839 13.7018C26.1806 13.7019 26.3748 13.7021 26.5665 13.7022L28.7501 13.7038C28.9225 13.704 29.0926 13.7041 29.2603 13.7042L31.1642 13.7059C31.314 13.706 31.4615 13.7061 31.6069 13.7063L32.8583 13.7075C32.9911 13.7077 33.1218 13.7078 33.2505 13.7079L34.6996 13.7096C34.8126 13.7098 34.9237 13.7099 35.033 13.71L36.2565 13.7118C36.3514 13.7119 36.4445 13.712 36.5359 13.7122L37.3135 13.7135C37.395 13.7136 37.4749 13.7138 37.5532 13.7139L38.4194 13.7157C38.4856 13.7158 38.5504 13.716 38.6138 13.7161L39.1469 13.7174C39.2021 13.7176 39.256 13.7177 39.3086 13.7179L39.8801 13.7197C39.9229 13.7198 39.9646 13.72 40.0052 13.7201L40.3407 13.7215C40.3748 13.7217 40.4079 13.7218 40.44 13.722L40.7795 13.7238C40.8041 13.724 40.8279 13.7241 40.8509 13.7243L41.0359 13.7257C41.0541 13.7259 41.0717 13.726 41.0885 13.7262L41.2216 13.7276C41.2345 13.7277 41.2468 13.7279 41.2585 13.7281L41.3491 13.7295C41.3576 13.7297 41.3657 13.7298 41.3733 13.73L41.4307 13.7314C41.4359 13.7316 41.4408 13.7318 41.4453 13.7319L41.4869 13.7339L41.494 13.7344C41.5134 13.7362 41.5192 13.7369 41.5192 13.7369C42.6332 13.8989 43.6132 14.4809 44.2812 15.3769C44.9492 16.2709 45.2292 17.3729 45.0692 18.4769L43.1712 31.5929C42.8132 34.0889 40.6452 35.9709 38.1252 35.9709H16.2832C13.6492 35.9709 11.4192 33.9149 11.2052 31.2849L9.37317 9.49685L6.35917 8.97685C5.54117 8.83285 4.99517 8.05885 5.13517 7.24085C5.27917 6.42285 6.06917 5.89085 6.86917 6.01885ZM14.0836 16.6955L12.9892 16.6949L14.1952 31.0389C14.2832 32.1429 15.1852 32.9709 16.2872 32.9709H38.1212C39.1632 32.9709 40.0532 32.1949 40.2012 31.1649L42.1012 18.0469C42.1452 17.7349 42.0672 17.4229 41.8772 17.1709C41.6892 16.9169 41.4132 16.7529 41.1012 16.7089C41.0868 16.7094 41.0522 16.7099 40.9985 16.7104L40.781 16.7116C40.7355 16.7118 40.6855 16.712 40.631 16.7121L39.498 16.7139C39.4024 16.7139 39.303 16.714 39.1999 16.714L36.536 16.7139C36.3873 16.7139 36.2359 16.7138 36.0817 16.7137L33.0415 16.7119C32.8593 16.7118 32.6752 16.7116 32.4892 16.7115L30.7689 16.7101C30.573 16.7099 30.3756 16.7098 30.1768 16.7096L28.3546 16.708C28.1489 16.7078 27.9421 16.7076 27.7345 16.7074L26.4793 16.7063C26.2687 16.7061 26.0575 16.7059 25.8458 16.7057L23.9304 16.7039C23.7168 16.7037 23.5031 16.7035 23.2894 16.7033L22.0081 16.7021C21.7949 16.7019 21.5819 16.7017 21.3693 16.7015L20.0988 16.7004C19.8882 16.7002 19.6781 16.7 19.4687 16.6998L17.6077 16.6982C17.4039 16.698 17.2011 16.6979 16.9996 16.6977L14.6478 16.6959C14.458 16.6958 14.2699 16.6957 14.0836 16.6955ZM34.909 21.0875C35.737 21.0875 36.409 21.7595 36.409 22.5875C36.409 23.4155 35.737 24.0875 34.909 24.0875H29.365C28.535 24.0875 27.865 23.4155 27.865 22.5875C27.865 21.7595 28.535 21.0875 29.365 21.0875H34.909Z" fill="#535967"/>
</svg>
