<svg width="48" height="48" viewBox="0 0 48 48" fill="none" xmlns="http://www.w3.org/2000/svg">
<path fill-rule="evenodd" clip-rule="evenodd" d="M27.9521 4.00061C28.038 4.00061 28.1222 4.00784 28.2042 4.02173L28.4779 4.02341C28.8859 4.02341 29.2759 4.18941 29.5599 4.48341L39.6899 15.0374C39.9579 15.3154 40.1082 15.6894 40.1082 16.0754V34.4074C40.1439 39.4254 36.2359 43.5254 31.2099 43.7294L15.1719 43.7314H14.9539C10.054 43.6207 6.12423 39.6578 6.00451 34.8058L6.00391 12.9814C6.11991 8.01941 10.2179 4.02341 15.1439 4.02341L27.7 4.02173C27.782 4.00784 27.8662 4.00061 27.9521 4.00061ZM26.4519 7.02261L15.1479 7.02341C11.8339 7.02341 9.08191 9.70741 9.00391 13.0174V34.4074C8.92991 37.8334 11.6299 40.6554 15.0219 40.7314H31.1499C34.4879 40.5934 37.1319 37.8194 37.1081 34.4194L37.1079 17.9666L33.0881 17.9686C29.4281 17.9586 26.4521 14.9746 26.4521 11.3186L26.4519 7.02261ZM27.5785 29.2168C28.4065 29.2168 29.0785 29.8888 29.0785 30.7168C29.0785 31.5448 28.4065 32.2168 27.5785 32.2168H16.7785C15.9505 32.2168 15.2785 31.5448 15.2785 30.7168C15.2785 29.8888 15.9505 29.2168 16.7785 29.2168H27.5785ZM23.4887 21.7128C24.3167 21.7128 24.9887 22.3848 24.9887 23.2128C24.9887 24.0408 24.3167 24.7128 23.4887 24.7128H16.7767C15.9487 24.7128 15.2767 24.0408 15.2767 23.2128C15.2767 22.3848 15.9487 21.7128 16.7767 21.7128H23.4887ZM29.4519 8.70461L29.4521 11.3186C29.4521 13.3266 31.0861 14.9626 33.0921 14.9686L35.4639 14.9666L29.4519 8.70461Z" fill="#535967"/>
</svg>
