<svg width="180" height="72" viewBox="0 0 180 72" fill="none" xmlns="http://www.w3.org/2000/svg">
<path d="M31.8073 44.9348L24.974 47.9141V47.6135C23.662 47.9415 22.186 48.1328 20.8193 48.2148C14.3687 48.1601 9.28467 44.7708 9.20267 40.7801V39.3041C11.3073 42.3655 15.626 44.4428 20.8193 44.3608C22.5687 44.4428 24.3727 44.1695 25.876 43.7595L26.4773 42.2835C24.7007 42.8301 22.7327 43.1855 20.8193 43.1855C14.3687 43.1855 9.28467 39.8235 9.20267 35.7508V34.5481C11.3073 37.3908 15.626 39.4408 20.8193 39.3041C23.17 39.4408 25.4387 38.9488 27.3793 38.1015L27.68 36.6255C25.794 37.6095 23.3613 38.1835 20.8467 38.1015C14.396 38.1835 9.312 34.8215 9.23 30.6668V29.4641C11.3347 32.3615 15.6533 34.4388 20.8467 34.5208C23.7987 34.4388 26.5867 33.6461 28.8827 32.4435L29.1833 30.6668C27.106 32.1975 24.072 33.2088 20.8467 33.3455C14.396 33.2088 9.312 29.8195 9.23 25.6101C9.28467 21.5921 14.396 18.2301 20.8467 18.1755C24.6733 18.2301 28.254 19.5695 30.3587 21.7561L30.5773 22.1115H32.0807L31.862 21.7561C29.7573 18.8861 25.5207 17.0001 20.8467 17.0001C13.6853 16.9728 8 20.8815 8 25.5828V25.8835V41.0535C8.246 45.6455 13.7947 49.3901 20.792 49.3901C25.4113 49.4175 29.5933 47.5861 31.8073 44.9348Z" fill="#263238"/>
<path d="M29.0193 55.4037L31.4246 45.181L24.5093 48.1877L28.7186 30.4757H20.6279L22.7326 21.7563H48.5626L46.4579 30.4757H38.0393L36.2353 35.2863L45.5559 31.3777L29.0193 55.4037ZM33.2286 43.1037L32.0259 49.117L41.9479 34.111L33.8299 37.719L37.4379 29.3003H45.5559L47.0593 22.9863H23.6073L22.1039 29.3003H30.2219L26.3133 46.1103L33.2286 43.1037Z" fill="#FABF2C"/>
<path d="M65.7007 27.6329C65.7281 28.5896 65.4274 29.3276 64.8261 29.8742C64.2247 30.4209 63.4047 30.6942 62.3387 30.6942C61.2727 30.6942 60.3981 30.3389 59.7421 29.6556C59.0861 28.9722 58.7581 28.0702 58.7581 26.9769V25.2002C58.7581 24.1069 59.0861 23.2049 59.7147 22.5216C60.3707 21.8382 61.2181 21.4829 62.2567 21.4829C63.3501 21.4829 64.1974 21.7562 64.8261 22.2756C65.4547 22.8222 65.7554 23.5602 65.7281 24.5169V24.5442H63.9787C63.9787 23.9702 63.8421 23.5329 63.5687 23.2596C63.2954 22.9862 62.8581 22.8496 62.2841 22.8496C61.7374 22.8496 61.3274 23.0682 61.0267 23.5056C60.7261 23.9429 60.5621 24.4896 60.5621 25.1729V26.9769C60.5621 27.6602 60.7261 28.2342 61.0267 28.6716C61.3547 29.1089 61.7921 29.3276 62.3661 29.3276C62.9127 29.3276 63.2954 29.1909 63.5687 28.9176C63.8421 28.6442 63.9787 28.2069 63.9787 27.6329H65.7007ZM75.5954 26.8949C75.5954 27.9882 75.2401 28.9176 74.5567 29.6282C73.8734 30.3389 72.9714 30.6942 71.8507 30.6942C70.7301 30.6942 69.8554 30.3389 69.1447 29.6282C68.4614 28.9176 68.1061 27.9882 68.1061 26.8949V25.2822C68.1061 24.1889 68.4614 23.2869 69.1447 22.5489C69.8281 21.8382 70.7301 21.4556 71.8234 21.4556C72.9441 21.4556 73.8461 21.8109 74.5294 22.5489C75.2401 23.2596 75.5681 24.1889 75.5681 25.2822V26.8949H75.5954ZM73.7914 25.2549C73.7914 24.5442 73.6274 23.9976 73.2721 23.5329C72.9167 23.0956 72.4521 22.8496 71.8234 22.8496C71.2221 22.8496 70.7301 23.0682 70.4021 23.5329C70.0741 23.9702 69.8827 24.5442 69.8827 25.2549V26.8676C69.8827 27.5782 70.0467 28.1522 70.4021 28.6169C70.7301 29.0542 71.2221 29.3002 71.8234 29.3002C72.4521 29.3002 72.9167 29.0816 73.2721 28.6169C73.6274 28.1796 73.7914 27.5782 73.7914 26.8676V25.2549ZM80.2421 30.5576H78.4381V21.5922H80.2421V30.5576ZM90.6014 30.5576H88.7974L85.1894 24.5169H85.1621V30.5576H83.3581V21.5922H85.1621L88.7701 27.6329H88.7974V21.5922H90.6014V30.5576ZM99.6487 22.9862H97.0794V30.5576H95.2754V22.9862H92.7607V21.5922H99.6487V22.9862ZM107.083 26.6216H103.749V29.1909H107.712V30.5576H101.972V21.5922H107.712V22.9862H103.776V25.2276H107.111V26.6216H107.083ZM112.085 29.1909H116.103V30.5576H110.281V21.5922H112.085V29.1909ZM123.757 26.6216H120.422V29.1909H124.385V30.5576H118.645V21.5922H124.385V22.9862H120.449V25.2276H123.784V26.6216H123.757ZM133.843 29.3549C133.569 29.7102 133.159 30.0382 132.585 30.3116C132.039 30.5849 131.328 30.7216 130.453 30.7216C129.36 30.7216 128.485 30.3936 127.802 29.7102C127.119 29.0269 126.763 28.1522 126.763 27.0589V25.1729C126.763 24.0796 127.091 23.2049 127.775 22.5216C128.431 21.8382 129.305 21.4829 130.344 21.4829C131.437 21.4829 132.285 21.7562 132.859 22.2756C133.433 22.7949 133.733 23.4782 133.706 24.3529V24.3802H132.011C132.011 23.9156 131.875 23.5329 131.601 23.2596C131.328 22.9862 130.918 22.8496 130.399 22.8496C129.852 22.8496 129.415 23.0682 129.059 23.4782C128.731 23.9156 128.567 24.4622 128.567 25.1182V27.0042C128.567 27.6876 128.731 28.2342 129.087 28.6716C129.442 29.1089 129.907 29.3002 130.481 29.3002C130.918 29.3002 131.246 29.2456 131.492 29.1636C131.738 29.0816 131.929 28.9722 132.066 28.8356V27.0862H130.344V25.8289H133.87V29.3549H133.843ZM138.489 26.9769V30.5576H136.685V21.5922H139.801C140.813 21.5922 141.633 21.8382 142.207 22.3029C142.781 22.7676 143.081 23.4236 143.081 24.2436C143.081 24.7082 142.972 25.0909 142.726 25.4462C142.48 25.7742 142.125 26.0476 141.66 26.2662C142.179 26.4302 142.562 26.6762 142.808 27.0589C143.027 27.4142 143.163 27.8789 143.163 28.4256V29.0816C143.163 29.3276 143.191 29.6009 143.273 29.8742C143.327 30.1476 143.464 30.3389 143.628 30.4756V30.6122H141.769C141.605 30.4756 141.496 30.2569 141.441 29.9562C141.387 29.6556 141.359 29.3549 141.359 29.0816V28.4529C141.359 28.0156 141.25 27.6602 141.004 27.4142C140.758 27.1682 140.403 27.0316 139.965 27.0316H138.489V26.9769ZM138.489 25.6102H139.774C140.266 25.6102 140.649 25.5009 140.895 25.2822C141.141 25.0636 141.277 24.7629 141.277 24.3256C141.277 23.9156 141.141 23.5876 140.895 23.3416C140.649 23.0956 140.293 22.9862 139.801 22.9862H138.489V25.6102ZM150.707 28.6442H147.81L147.209 30.5849H145.323L148.357 21.6196H150.188L153.195 30.5849H151.309L150.707 28.6442ZM148.247 27.2229H150.27L149.286 24.0522H149.259L148.247 27.2229ZM157.185 27.3049V30.5576H155.381V21.5922H158.825C159.864 21.5922 160.657 21.8656 161.258 22.3849C161.859 22.9042 162.133 23.6149 162.133 24.4622C162.133 25.3096 161.832 26.0202 161.258 26.5396C160.657 27.0589 159.864 27.3322 158.825 27.3322H157.185V27.3049ZM157.185 25.9382H158.825C159.317 25.9382 159.7 25.8016 159.973 25.5282C160.219 25.2549 160.356 24.8996 160.356 24.4896C160.356 24.0522 160.219 23.6969 159.973 23.4236C159.727 23.1502 159.345 23.0136 158.825 23.0136H157.185V25.9382ZM172 30.5576H170.196V26.8402H166.533V30.5576H164.729V21.5922H166.533V25.4462H170.196V21.5922H172V30.5576Z" fill="#263238"/>
<path d="M62.0381 45.2081H60.9174V39.3041H58.8948V38.3475H64.0608V39.3041H62.0381V45.2081ZM69.5548 45.2081H68.4341V42.0101C68.4341 41.6001 68.3521 41.2995 68.1881 41.1081C68.0241 40.9168 67.7781 40.8075 67.4228 40.8075C66.9581 40.8075 66.6301 40.9441 66.4114 41.2175C66.1928 41.4908 66.0834 41.9555 66.0834 42.6115V45.1808H64.9901V37.8828H66.0834V39.7415C66.0834 40.0421 66.0561 40.3428 66.0288 40.6981H66.1108C66.2474 40.4521 66.4661 40.2608 66.7394 40.1241C67.0128 39.9875 67.3134 39.9055 67.6688 39.9055C68.9261 39.9055 69.5548 40.5341 69.5548 41.8188V45.2081ZM73.3541 45.2901C72.5341 45.2901 71.9054 45.0441 71.4681 44.5795C71.0034 44.1148 70.7848 43.4588 70.7848 42.6388C70.7848 41.7915 71.0034 41.1355 71.4134 40.6435C71.8234 40.1515 72.4248 39.9055 73.1628 39.9055C73.8461 39.9055 74.3928 40.1241 74.7754 40.5341C75.1854 40.9441 75.3768 41.5181 75.3768 42.2561V42.8575H71.9054C71.9328 43.3495 72.0694 43.7595 72.3154 44.0055C72.5614 44.2788 72.9441 44.4155 73.4088 44.4155C73.7094 44.4155 74.0101 44.3881 74.2561 44.3335C74.5294 44.2788 74.8028 44.1695 75.1034 44.0328V44.9348C74.8301 45.0715 74.5568 45.1535 74.2834 45.2081C74.0374 45.2628 73.7094 45.2901 73.3541 45.2901ZM73.1628 40.7528C72.8074 40.7528 72.5341 40.8621 72.3154 41.0808C72.0968 41.2995 71.9874 41.6275 71.9328 42.0648H74.2834C74.2834 41.6275 74.1741 41.2995 73.9828 41.0808C73.7914 40.8621 73.5181 40.7528 73.1628 40.7528ZM81.7181 40.8348H80.4608V45.2081H79.3401V40.8348H78.4928V40.3155L79.3401 39.9875V39.6595C79.3401 39.0581 79.4768 38.5935 79.7774 38.2928C80.0781 37.9921 80.5154 37.8555 81.0894 37.8555C81.4721 37.8555 81.8548 37.9101 82.2374 38.0468L81.9368 38.8941C81.6634 38.8121 81.4174 38.7575 81.1441 38.7575C80.8981 38.7575 80.7068 38.8395 80.5974 38.9761C80.4881 39.1401 80.4334 39.3588 80.4334 39.6595V39.9875H81.6908V40.8348H81.7181ZM86.2828 45.2081L86.1188 44.5248H86.0641C85.9001 44.7708 85.6814 44.9621 85.4081 45.0988C85.1348 45.2355 84.8068 45.3175 84.4514 45.3175C83.8228 45.3175 83.3581 45.1535 83.0301 44.8528C82.7021 44.5521 82.5654 44.0601 82.5654 43.4315V40.0148H83.6861V43.2128C83.6861 43.6228 83.7681 43.8961 83.9321 44.1148C84.0961 44.3061 84.3421 44.4155 84.6974 44.4155C85.1621 44.4155 85.4901 44.2788 85.7088 44.0055C85.9274 43.7321 86.0368 43.2675 86.0368 42.6115V40.0148H87.1574V45.2081H86.2828ZM90.6561 44.3881C90.9294 44.3881 91.2028 44.3335 91.4761 44.2515V45.0715C91.3668 45.1261 91.2028 45.1808 91.0114 45.2081C90.8201 45.2355 90.6288 45.2628 90.4101 45.2628C89.3714 45.2628 88.8521 44.7161 88.8521 43.6228V40.8348H88.1414V40.3428L88.9068 39.9328L89.2894 38.8395H89.9728V39.9875H91.4488V40.8348H89.9728V43.6228C89.9728 43.8961 90.0274 44.0875 90.1641 44.2241C90.2461 44.3335 90.4374 44.3881 90.6561 44.3881ZM96.1501 45.2081L95.9861 44.5248H95.9314C95.7674 44.7708 95.5488 44.9621 95.2754 45.0988C95.0021 45.2355 94.6741 45.3175 94.3188 45.3175C93.6901 45.3175 93.2254 45.1535 92.8974 44.8528C92.5968 44.5521 92.4328 44.0601 92.4328 43.4315V40.0148H93.5534V43.2128C93.5534 43.6228 93.6354 43.8961 93.7994 44.1148C93.9634 44.3061 94.2094 44.4155 94.5648 44.4155C95.0294 44.4155 95.3574 44.2788 95.5761 44.0055C95.7948 43.7321 95.9041 43.2675 95.9041 42.6115V40.0148H97.0248V45.2081H96.1501ZM101.234 39.9055C101.453 39.9055 101.644 39.9328 101.781 39.9601L101.671 40.9988C101.507 40.9715 101.343 40.9441 101.179 40.9441C100.742 40.9441 100.387 41.0808 100.113 41.3815C99.8401 41.6821 99.7034 42.0375 99.7034 42.5021V45.2081H98.6101V40.0148H99.4848L99.6214 40.9168H99.6761C99.8401 40.6161 100.086 40.3701 100.359 40.1788C100.605 40.0148 100.906 39.9055 101.234 39.9055ZM104.815 45.2901C103.995 45.2901 103.366 45.0441 102.929 44.5795C102.464 44.1148 102.245 43.4588 102.245 42.6388C102.245 41.7915 102.464 41.1355 102.874 40.6435C103.284 40.1515 103.885 39.9055 104.623 39.9055C105.307 39.9055 105.853 40.1241 106.236 40.5341C106.646 40.9441 106.837 41.5181 106.837 42.2561V42.8575H103.366C103.393 43.3495 103.53 43.7595 103.776 44.0055C104.022 44.2788 104.405 44.4155 104.869 44.4155C105.17 44.4155 105.471 44.3881 105.717 44.3335C105.99 44.2788 106.263 44.1695 106.564 44.0328V44.9348C106.291 45.0715 106.017 45.1535 105.744 45.2081C105.471 45.2628 105.17 45.2901 104.815 45.2901ZM104.623 40.7528C104.268 40.7528 103.995 40.8621 103.776 41.0808C103.557 41.2995 103.448 41.6275 103.393 42.0648H105.744C105.744 41.6275 105.635 41.2995 105.443 41.0808C105.225 40.8621 104.951 40.7528 104.623 40.7528ZM115.174 42.5841C115.174 43.4315 114.955 44.0875 114.518 44.5795C114.081 45.0441 113.479 45.2901 112.714 45.2901C112.222 45.2901 111.812 45.1808 111.429 44.9621C111.047 44.7435 110.773 44.4155 110.582 44.0055C110.391 43.5955 110.281 43.1308 110.281 42.5841C110.281 41.7368 110.5 41.0808 110.937 40.6161C111.375 40.1515 111.976 39.9055 112.769 39.9055C113.507 39.9055 114.108 40.1515 114.545 40.6435C114.983 41.1355 115.174 41.7641 115.174 42.5841ZM111.402 42.5841C111.402 43.7868 111.839 44.3881 112.741 44.3881C113.616 44.3881 114.053 43.7868 114.053 42.5841C114.053 41.4088 113.616 40.8075 112.741 40.8075C112.277 40.8075 111.949 40.9715 111.73 41.2721C111.511 41.5728 111.402 42.0101 111.402 42.5841ZM119.055 40.8348H117.798V45.2081H116.677V40.8348H115.83V40.3155L116.677 39.9875V39.6595C116.677 39.0581 116.814 38.5935 117.115 38.2928C117.415 37.9921 117.853 37.8555 118.427 37.8555C118.809 37.8555 119.192 37.9101 119.575 38.0468L119.274 38.8941C119.001 38.8121 118.755 38.7575 118.481 38.7575C118.235 38.7575 118.044 38.8395 117.935 38.9761C117.825 39.1128 117.771 39.3588 117.771 39.6595V39.9875H119.028V40.8348H119.055ZM126.818 45.2081H125.697V42.0101C125.697 41.6001 125.615 41.3268 125.479 41.1081C125.342 40.9168 125.096 40.8075 124.768 40.8075C124.331 40.8075 124.03 40.9441 123.839 41.2175C123.647 41.4908 123.538 41.9555 123.538 42.6115V45.2081H122.445V40.0148H123.319L123.483 40.6981H123.538C123.675 40.4521 123.893 40.2608 124.167 40.1241C124.44 39.9875 124.741 39.9328 125.069 39.9328C125.861 39.9328 126.408 40.2061 126.654 40.7528H126.736C126.9 40.5068 127.119 40.2881 127.392 40.1515C127.665 40.0148 127.993 39.9328 128.349 39.9328C128.977 39.9328 129.415 40.0968 129.715 40.3975C129.989 40.6981 130.153 41.1901 130.153 41.8188V45.2081H129.059V42.0101C129.059 41.6001 128.977 41.3268 128.841 41.1081C128.677 40.9168 128.458 40.8075 128.13 40.8075C127.693 40.8075 127.392 40.9441 127.201 41.2175C127.009 41.4908 126.9 41.9008 126.9 42.4475V45.2081H126.818ZM136.221 42.5841C136.221 43.4315 136.002 44.0875 135.565 44.5795C135.127 45.0441 134.526 45.2901 133.761 45.2901C133.269 45.2901 132.859 45.1808 132.476 44.9621C132.093 44.7435 131.82 44.4155 131.629 44.0055C131.437 43.5955 131.328 43.1308 131.328 42.5841C131.328 41.7368 131.547 41.0808 131.984 40.6161C132.421 40.1515 133.023 39.9055 133.815 39.9055C134.553 39.9055 135.155 40.1515 135.592 40.6435C136.002 41.1355 136.221 41.7641 136.221 42.5841ZM132.449 42.5841C132.449 43.7868 132.886 44.3881 133.788 44.3881C134.663 44.3881 135.1 43.7868 135.1 42.5841C135.1 41.4088 134.663 40.8075 133.788 40.8075C133.323 40.8075 132.995 40.9715 132.777 41.2721C132.558 41.5728 132.449 42.0101 132.449 42.5841ZM142.07 45.2081H140.949V42.0101C140.949 41.6001 140.867 41.2995 140.703 41.1081C140.539 40.9168 140.293 40.8075 139.938 40.8075C139.473 40.8075 139.118 40.9441 138.927 41.2175C138.735 41.4908 138.599 41.9555 138.599 42.6115V45.2081H137.505V40.0148H138.38L138.544 40.6981H138.599C138.763 40.4521 138.981 40.2608 139.255 40.1241C139.528 39.9875 139.856 39.9328 140.211 39.9328C141.469 39.9328 142.07 40.5615 142.07 41.8461V45.2081ZM145.869 45.2901C145.049 45.2901 144.421 45.0441 143.983 44.5795C143.519 44.1148 143.3 43.4588 143.3 42.6388C143.3 41.7915 143.519 41.1355 143.929 40.6435C144.339 40.1515 144.94 39.9055 145.678 39.9055C146.361 39.9055 146.908 40.1241 147.291 40.5341C147.701 40.9441 147.892 41.5181 147.892 42.2561V42.8575H144.421C144.448 43.3495 144.585 43.7595 144.831 44.0055C145.077 44.2788 145.459 44.4155 145.924 44.4155C146.225 44.4155 146.525 44.3881 146.771 44.3335C147.017 44.2788 147.318 44.1695 147.619 44.0328V44.9348C147.345 45.0715 147.072 45.1535 146.799 45.2081C146.525 45.2628 146.225 45.2901 145.869 45.2901ZM145.651 40.7528C145.295 40.7528 145.022 40.8621 144.803 41.0808C144.585 41.2995 144.475 41.6275 144.421 42.0648H146.771C146.771 41.6275 146.662 41.2995 146.471 41.0808C146.279 40.8621 146.006 40.7528 145.651 40.7528ZM148.165 40.0148H149.368L150.434 42.9668C150.598 43.3768 150.707 43.7868 150.762 44.1421H150.789C150.817 43.9781 150.871 43.7595 150.953 43.5135C151.035 43.2675 151.418 42.0921 152.156 40.0148H153.359L151.145 45.8915C150.735 46.9575 150.079 47.5041 149.122 47.5041C148.876 47.5041 148.63 47.4768 148.411 47.4221V46.5475C148.575 46.5748 148.767 46.6021 148.985 46.6021C149.505 46.6021 149.887 46.3015 150.106 45.6728L150.297 45.1808L148.165 40.0148Z" fill="#263238"/>
</svg>
