<svg width="180" height="72" viewBox="0 0 180 72" fill="none" xmlns="http://www.w3.org/2000/svg">
<path fill-rule="evenodd" clip-rule="evenodd" d="M117.63 51.6C114.84 51.6 112.77 51.06 111.42 49.98C110.25 49.08 109.62 47.73 109.62 46.29H115.2C115.47 47.37 115.92 48 117.72 48C119.7 48 120.51 46.92 120.51 44.49V42.33H120.42C119.7 44.13 117.9 45.21 116.01 45.03C111.42 45.03 109.08 42.42 109.08 37.29C108.99 35.13 109.71 32.97 111.15 31.35C112.41 30 114.21 29.28 116.1 29.28C117.9 29.1 119.61 30 120.51 31.62H120.6V29.64H126.09V43.95C126.09 46.56 125.46 48.45 124.11 49.62C122.67 50.97 120.6 51.6 117.63 51.6ZM117.81 33.15C116.01 33.15 114.93 34.68 114.93 37.29C114.93 39.99 115.92 41.43 117.72 41.43C119.25 41.43 120.51 40.17 120.51 38.64C120.51 38.55 120.51 38.46 120.51 38.37V36.57C120.51 34.41 119.52 33.15 117.81 33.15ZM65.25 46.2C63.27 46.38 61.29 45.84 59.67 44.76C58.59 43.86 57.96 42.51 57.87 41.07H63C63.09 42.15 63.81 42.69 65.16 42.69C66.42 42.69 67.23 42.24 67.23 41.34C67.23 40.62 66.78 40.26 65.61 40.08L63 39.72C59.85 39.36 58.14 37.56 58.14 34.77C58.14 33.33 58.68 31.98 59.76 30.99C62.91 28.83 67.05 28.74 70.2 30.72C71.28 31.62 71.91 32.97 71.91 34.32H66.87C66.87 33.42 66.06 32.7 65.16 32.7H65.07C63.63 32.7 63.36 33.33 63.36 33.96C63.36 34.59 63.63 35.04 64.89 35.22L67.68 35.58C68.94 35.67 70.11 36.12 71.01 36.93C71.91 37.83 72.36 39 72.27 40.26C72.45 43.95 69.66 46.2 65.25 46.2ZM49.05 46.11C43.83 46.11 40.86 43.05 40.86 37.56C40.77 35.31 41.58 33.15 43.02 31.53C44.64 30 46.8 29.1 49.05 29.28C51.84 29.28 54 30.09 55.35 31.62C56.7 33.33 57.42 35.58 57.33 37.74V39H46.62C46.8 41.34 47.52 42.42 49.23 42.42C50.31 42.6 51.3 41.88 51.48 40.89H57.15C56.79 44.22 54 46.11 49.05 46.11ZM49.05 32.7C47.52 32.7 46.8 33.78 46.62 35.94H51.48V35.76C51.3 33.69 50.49 32.7 49.05 32.7ZM152.28 46.02C150.57 46.11 148.86 45.48 147.6 44.22C146.43 42.87 145.8 41.07 145.89 39.27C145.8 37.47 146.43 35.67 147.6 34.41C148.86 33.24 150.57 32.52 152.28 32.61C156.24 32.61 158.67 35.13 158.67 39.27C158.67 43.41 156.15 46.02 152.28 46.02ZM152.28 35.22C150.21 35.22 149.76 37.47 149.76 39.36C149.76 42.15 150.66 43.5 152.28 43.5C153.9 43.5 154.8 42.06 154.8 39.36C154.8 36.66 153.9 35.22 152.28 35.22ZM139.41 46.02C137.7 46.11 135.99 45.48 134.73 44.22C133.56 42.87 133.02 41.07 133.11 39.36C133.11 35.22 135.54 32.7 139.5 32.7C143.1 32.7 145.26 34.5 145.35 37.56H141.66C141.57 36.48 141.12 35.22 139.5 35.22C137.25 35.22 136.98 37.83 136.98 39.36C136.98 42.15 137.79 43.5 139.5 43.5C140.76 43.5 141.75 42.51 141.75 41.25C141.75 41.16 141.75 41.07 141.75 40.98H145.35C145.35 42.42 144.72 43.86 143.64 44.76C142.38 45.66 140.85 46.02 139.41 46.02ZM78.93 45.93C77.58 46.02 76.14 45.66 75.06 44.76C73.98 43.68 73.44 42.06 73.53 40.53V25.23H79.11V29.64H82.44V33.6H79.2V39.45C79.2 41.16 79.74 41.79 81.27 41.79C81.63 41.79 81.99 41.79 82.35 41.7V45.75C81.18 45.84 80.1 45.93 78.93 45.93ZM171.9 45.66H168.12V38.19C168.21 37.47 168.03 36.75 167.76 36.12C167.4 35.58 166.77 35.31 166.14 35.4C164.61 35.4 163.71 36.48 163.71 38.28V45.66H159.93V32.97H163.53V35.04C164.34 33.51 165.87 32.61 167.49 32.7C169.65 32.7 170.91 33.6 171.45 35.31H171.54C172.26 33.69 173.88 32.61 175.68 32.7C178.56 32.7 179.91 34.23 179.91 37.38V45.66H176.13V38.19C176.22 37.47 176.04 36.75 175.77 36.12C175.41 35.58 174.78 35.31 174.15 35.4C172.62 35.4 171.72 36.48 171.72 38.28L171.9 45.66ZM97.2 45.66H91.44V29.64H97.02V32.25H97.11C98.1 30.36 100.17 29.19 102.33 29.37C104.4 29.37 105.84 29.91 106.74 30.99C107.64 32.34 108.09 34.05 107.91 35.67V45.66H102.15V36.57C102.24 35.76 102.06 34.95 101.7 34.23C101.25 33.69 100.62 33.33 99.9 33.42C98.19 33.42 97.29 34.5 97.29 36.66L97.2 45.66ZM13.86 45.66H8.1V29.64H13.68V32.25H13.77C14.76 30.36 16.83 29.19 18.99 29.37C21.06 29.37 22.5 29.91 23.4 30.99C24.3 32.34 24.75 34.05 24.57 35.67V45.66H18.81V36.57C18.9 35.76 18.72 34.95 18.36 34.23C17.91 33.69 17.28 33.33 16.56 33.42C14.85 33.42 13.95 34.5 13.95 36.66L13.86 45.66ZM131.94 45.66H127.98V41.88H131.94V45.66ZM89.55 45.66H83.79V29.64H89.55V45.66ZM35.91 45.66H29.97L24.3 29.64H30.06L32.13 36.57C32.67 38.55 33.12 40.62 33.12 40.71H33.21C33.48 39.36 33.75 38.01 34.11 36.66L36.18 29.73H41.76L35.91 45.66ZM5.94 45.66H0V22.98H5.94V45.66Z" fill="#525F7F"/>
<path fill-rule="evenodd" clip-rule="evenodd" d="M83.6094 27.93L89.5494 26.85V21L83.6094 22.08V27.93Z" fill="#FF883D"/>
</svg>
