<svg width="180" height="72" viewBox="0 0 180 72" fill="none" xmlns="http://www.w3.org/2000/svg">
<path fill-rule="evenodd" clip-rule="evenodd" d="M54.9054 39.4909C55.4365 39.4909 55.8315 39.3484 56.0922 39.0634C56.3496 38.7784 56.4775 38.3604 56.4775 37.8078H60.1042L60.1285 37.8775C60.1609 39.236 59.68 40.3459 58.6924 41.2025C57.6999 42.0575 56.4387 42.4866 54.9038 42.4866C52.9804 42.4866 51.4941 41.8992 50.4514 40.7227C49.4055 39.5479 48.8826 38.0232 48.8826 36.1469V35.8825C48.8826 34.0157 49.4039 32.4942 50.4449 31.3146C51.4844 30.135 52.9609 29.5444 54.8698 29.5444C56.4824 29.5444 57.7679 29.9877 58.7329 30.8697C59.6946 31.7532 60.1609 32.9565 60.1285 34.4765L60.1058 34.5462H56.4775C56.4775 33.954 56.3448 33.4727 56.0792 33.1006C55.8121 32.7269 55.4106 32.5417 54.8698 32.5417C54.1186 32.5417 53.5924 32.8457 53.2912 33.4521C52.9901 34.0585 52.8379 34.8692 52.8379 35.8825V36.1485C52.8379 37.1935 52.9901 38.0105 53.2912 38.6027C53.5924 39.1948 54.1315 39.4909 54.9054 39.4909ZM68.9329 33.2098L67.4887 33.1987C67.0353 33.1987 66.6629 33.2732 66.3731 33.4236C66.0933 33.5636 65.8668 33.7878 65.7271 34.0632V42.2443H61.7605V29.7772H65.494L65.6349 31.6091C65.9004 30.9567 66.2517 30.4501 66.6905 30.0891C67.1188 29.7317 67.6656 29.5392 68.2286 29.5476C68.5967 29.5499 68.9632 29.5961 69.3198 29.6853L68.9329 33.2114V33.2098ZM76.4663 36.747L76.4792 36.8404H76.5505L78.6504 29.7756H82.8777L77.8182 44.1C77.4264 45.0215 76.9212 45.7815 76.3044 46.38C75.6843 46.9817 74.7015 47.2809 73.3577 47.2809C73.0112 47.2809 72.7311 47.2587 72.5109 47.2176C72.1653 47.1468 71.8215 47.0681 71.4796 46.9817L71.9605 44.2156L72.2066 44.2662C72.2759 44.2796 72.3464 44.286 72.417 44.2852C73.0436 44.2852 73.5018 44.1934 73.7916 44.0113C74.0798 43.8308 74.2968 43.5585 74.436 43.1943L74.7533 42.3837L70.3641 29.7756H74.5785L76.4663 36.747ZM91.7161 36.0329C91.7161 34.98 91.559 34.1361 91.2466 33.4996C90.9341 32.8599 90.4322 32.5417 89.7441 32.5417C89.2972 32.5417 88.92 32.6208 88.6108 32.7839C88.3031 32.9454 88.057 33.1797 87.8773 33.4869V38.6961C88.0668 38.9652 88.3145 39.1632 88.6221 39.2946C88.9313 39.426 89.315 39.4909 89.7668 39.4909C90.4629 39.4909 90.9632 39.2075 91.2644 38.6438C91.5655 38.0786 91.7161 37.2885 91.7161 36.2752V36.0329ZM95.6714 36.2752C95.6714 38.1498 95.2408 39.654 94.381 40.7877C93.5197 41.9197 92.307 42.4866 90.7414 42.4866C90.1794 42.4974 89.6227 42.3792 89.1159 42.1414C88.6314 41.9024 88.2081 41.5598 87.8773 41.1392V47.0387H83.9107V29.7756H87.6199L87.7608 31.1467C88.1202 30.6322 88.5428 30.2363 89.0285 29.9592C89.5142 29.6837 90.0776 29.5444 90.7188 29.5444C92.2925 29.5444 93.51 30.1397 94.3762 31.332C95.2391 32.5227 95.6714 34.0902 95.6714 36.0345V36.2752ZM102.117 26.6754V29.7772H104.265V32.4736H102.117V38.1894C102.117 38.6359 102.209 38.9557 102.392 39.1521C102.487 39.2509 102.603 39.3283 102.731 39.3792C102.86 39.43 102.998 39.453 103.137 39.4466C103.388 39.4466 103.585 39.4387 103.731 39.4228C103.875 39.407 104.061 39.3753 104.288 39.331L104.57 42.2127C104.179 42.304 103.783 42.3749 103.385 42.4248C103.032 42.4676 102.617 42.4882 102.14 42.4882C100.833 42.4882 99.8437 42.1477 99.1702 41.4622C98.4967 40.7797 98.1599 39.6967 98.1599 38.2132V32.472H96.3757V29.7772H98.1599V26.6738L102.117 26.6754ZM109.22 36.1374C109.22 37.1824 109.385 38.0026 109.718 38.5979C110.05 39.1917 110.615 39.4909 111.413 39.4909C112.189 39.4909 112.744 39.1901 113.081 38.5916C113.416 37.9931 113.586 37.1745 113.586 36.1374V35.8952C113.586 34.8818 113.416 34.068 113.081 33.4568C112.744 32.8472 112.181 32.5417 111.391 32.5417C110.609 32.5417 110.05 32.8488 109.718 33.4632C109.385 34.0791 109.218 34.8882 109.218 35.8952L109.22 36.1374ZM105.251 35.8952C105.251 34.0205 105.79 32.4942 106.87 31.3146C107.95 30.135 109.458 29.5444 111.391 29.5444C113.332 29.5444 114.843 30.135 115.922 31.3146C117.001 32.4942 117.542 34.0205 117.542 35.8952V36.1374C117.542 38.0184 117.001 39.5479 115.922 40.7243C114.843 41.8992 113.338 42.4866 111.413 42.4866C109.466 42.4866 107.95 41.8992 106.87 40.7243C105.79 39.5479 105.251 38.0184 105.251 36.1374V35.8952ZM122.941 29.7756L123.095 31.5267C123.508 30.9045 124.021 30.4184 124.633 30.0701C125.252 29.7174 125.957 29.5357 126.673 29.5444C127.918 29.5444 128.891 29.9402 129.59 30.7319C130.292 31.5236 130.643 32.7839 130.643 34.5129V42.2443H126.673V34.5018C126.673 33.7862 126.524 33.2811 126.223 32.985C125.92 32.6889 125.476 32.5417 124.89 32.5417C124.566 32.5315 124.244 32.5924 123.947 32.7201C123.651 32.8478 123.387 33.039 123.176 33.2795V42.2443H119.22V29.7756H122.941ZM138.319 32.5417C137.747 32.5417 137.32 32.7412 137.033 33.1402C136.747 33.5407 136.573 34.0743 136.51 34.7425L136.546 34.7995H139.962V34.5002C139.962 33.8701 139.829 33.3872 139.564 33.0483C139.297 32.7111 138.884 32.5417 138.319 32.5417ZM138.6 42.485C136.73 42.485 135.238 41.9102 134.122 40.7592C133.007 39.6065 132.45 38.1625 132.45 36.4256V35.987C132.45 34.0886 132.955 32.5401 133.97 31.3367C134.984 30.135 136.433 29.5381 138.319 29.546C140.04 29.546 141.39 30.0527 142.368 31.066C143.348 32.0809 143.836 33.4568 143.836 35.1922V37.2315H136.583L136.559 37.3012C136.645 37.9392 136.91 38.4633 137.355 38.875C137.802 39.2851 138.396 39.4893 139.14 39.4893C139.891 39.4893 140.492 39.4323 140.942 39.3167C141.392 39.2027 141.962 39.0032 142.65 38.7182L143.589 41.0917C143.035 41.4922 142.316 41.8247 141.435 42.0892C140.517 42.3589 139.56 42.4924 138.6 42.485ZM156.42 37.0019H156.491L157.864 29.7756H161.526L158.546 42.2459H155.188L153.12 35.6307H153.05L150.973 42.2459H147.628L144.633 29.7756H148.297L149.693 37.0589H149.764L151.83 29.7756H154.331L156.42 37.0019ZM169.568 38.742C169.568 38.4348 169.39 38.1593 169.034 37.9187C168.678 37.6748 168.03 37.4595 167.091 37.2663C165.611 36.9813 164.497 36.5396 163.744 35.9411C162.993 35.341 162.619 34.524 162.619 33.4869C162.619 32.3881 163.089 31.4571 164.028 30.6923C164.967 29.9276 166.238 29.546 167.842 29.546C169.532 29.546 170.878 29.9165 171.88 30.6575C172.882 31.3985 173.358 32.358 173.313 33.5328L173.289 33.6025H169.438C169.438 33.1117 169.311 32.738 169.056 32.4831C168.802 32.2297 168.393 32.1031 167.831 32.1031C167.453 32.091 167.082 32.2099 166.785 32.4387C166.651 32.5382 166.543 32.6672 166.469 32.8152C166.396 32.9632 166.359 33.1261 166.362 33.2906C166.362 33.6215 166.524 33.9017 166.85 34.1313C167.173 34.3625 167.831 34.5699 168.817 34.7536C170.366 35.0544 171.514 35.5009 172.262 36.0962C173.008 36.6916 173.382 37.5355 173.382 38.6264C173.382 39.749 172.876 40.6721 171.862 41.3972C170.849 42.1256 169.508 42.4866 167.842 42.4866C166.113 42.4866 164.745 42.0575 163.739 41.1962C162.734 40.3348 162.255 39.3753 162.3 38.3145L162.324 38.2464H165.919C165.933 38.8386 166.115 39.2645 166.463 39.5257C166.811 39.787 167.305 39.9168 167.947 39.9168C168.478 39.9168 168.882 39.8155 169.157 39.6112C169.43 39.4086 169.568 39.1172 169.568 38.7404" fill="#151011"/>
<mask id="mask0_816_5012" style="mask-type:luminance" maskUnits="userSpaceOnUse" x="24" y="36" width="20" height="10">
<path d="M24.3528 45.5H43.7069L34.0298 36L24.3528 45.5Z" fill="url(#paint0_linear_816_5012)"/>
</mask>
<g mask="url(#mask0_816_5012)">
<path fill-rule="evenodd" clip-rule="evenodd" d="M24.3528 45.5H43.7069L34.0298 36L24.3528 45.5Z" fill="url(#paint1_linear_816_5012)"/>
</g>
<mask id="mask1_816_5012" style="mask-type:luminance" maskUnits="userSpaceOnUse" x="5" y="26" width="10" height="20">
<path d="M5 45.5L14.677 36L5 26.5V45.5Z" fill="url(#paint2_linear_816_5012)"/>
</mask>
<g mask="url(#mask1_816_5012)">
<path fill-rule="evenodd" clip-rule="evenodd" d="M5 45.5L14.677 36L5 26.5V45.5Z" fill="url(#paint3_linear_816_5012)"/>
</g>
<mask id="mask2_816_5012" style="mask-type:luminance" maskUnits="userSpaceOnUse" x="24" y="26" width="20" height="10">
<path d="M24.3528 26.5L34.0298 36L43.7069 26.5H24.3528Z" fill="url(#paint4_linear_816_5012)"/>
</mask>
<g mask="url(#mask2_816_5012)">
<path fill-rule="evenodd" clip-rule="evenodd" d="M24.3528 26.5L34.0298 36L43.7069 26.5H24.3528Z" fill="url(#paint5_linear_816_5012)"/>
</g>
<mask id="mask3_816_5012" style="mask-type:luminance" maskUnits="userSpaceOnUse" x="14" y="17" width="21" height="10">
<path d="M14.6763 17L24.3533 26.5L34.0304 17H14.6763Z" fill="url(#paint6_linear_816_5012)"/>
</mask>
<g mask="url(#mask3_816_5012)">
<path fill-rule="evenodd" clip-rule="evenodd" d="M14.6763 17L24.3533 26.5L34.0304 17H14.6763Z" fill="url(#paint7_linear_816_5012)"/>
</g>
<mask id="mask4_816_5012" style="mask-type:luminance" maskUnits="userSpaceOnUse" x="24" y="45" width="20" height="10">
<path d="M24.3528 45.5L34.0298 55L43.7069 45.5H24.3528Z" fill="url(#paint8_linear_816_5012)"/>
</mask>
<g mask="url(#mask4_816_5012)">
<path fill-rule="evenodd" clip-rule="evenodd" d="M24.3528 45.5L34.0298 55L43.7069 45.5H24.3528Z" fill="url(#paint9_linear_816_5012)"/>
</g>
<mask id="mask5_816_5012" style="mask-type:luminance" maskUnits="userSpaceOnUse" x="5" y="45" width="20" height="10">
<path d="M5 45.5L14.677 55L24.3541 45.5H5Z" fill="url(#paint10_linear_816_5012)"/>
</mask>
<g mask="url(#mask5_816_5012)">
<path fill-rule="evenodd" clip-rule="evenodd" d="M5 45.5L14.677 55L24.3541 45.5H5Z" fill="url(#paint11_linear_816_5012)"/>
</g>
<mask id="mask6_816_5012" style="mask-type:luminance" maskUnits="userSpaceOnUse" x="24" y="17" width="20" height="10">
<path d="M34.0298 17L24.3528 26.5H43.7069L34.0298 17Z" fill="url(#paint12_linear_816_5012)"/>
</mask>
<g mask="url(#mask6_816_5012)">
<path fill-rule="evenodd" clip-rule="evenodd" d="M34.0298 17L24.3528 26.5H43.7069L34.0298 17Z" fill="url(#paint13_linear_816_5012)"/>
</g>
<mask id="mask7_816_5012" style="mask-type:luminance" maskUnits="userSpaceOnUse" x="5" y="17" width="20" height="10">
<path d="M14.677 17L5 26.5H24.3541L14.677 17Z" fill="url(#paint14_linear_816_5012)"/>
</mask>
<g mask="url(#mask7_816_5012)">
<path fill-rule="evenodd" clip-rule="evenodd" d="M14.677 17L5 26.5H24.3541L14.677 17Z" fill="url(#paint15_linear_816_5012)"/>
</g>
<mask id="mask8_816_5012" style="mask-type:luminance" maskUnits="userSpaceOnUse" x="14" y="45" width="21" height="10">
<path d="M14.6763 55H34.0304L24.3533 45.5L14.6763 55Z" fill="url(#paint16_linear_816_5012)"/>
</mask>
<g mask="url(#mask8_816_5012)">
<path fill-rule="evenodd" clip-rule="evenodd" d="M14.6763 55H34.0304L24.3533 45.5L14.6763 55Z" fill="url(#paint17_linear_816_5012)"/>
</g>
<mask id="mask9_816_5012" style="mask-type:luminance" maskUnits="userSpaceOnUse" x="5" y="36" width="20" height="10">
<path d="M5 45.5H24.3541L14.677 36L5 45.5Z" fill="url(#paint18_linear_816_5012)"/>
</mask>
<g mask="url(#mask9_816_5012)">
<path fill-rule="evenodd" clip-rule="evenodd" d="M5 45.5H24.3541L14.677 36L5 45.5Z" fill="url(#paint19_linear_816_5012)"/>
</g>
<mask id="mask10_816_5012" style="mask-type:luminance" maskUnits="userSpaceOnUse" x="5" y="26" width="20" height="10">
<path d="M5 26.5L14.677 36L24.3541 26.5H5Z" fill="url(#paint20_linear_816_5012)"/>
</mask>
<g mask="url(#mask10_816_5012)">
<path fill-rule="evenodd" clip-rule="evenodd" d="M5 26.5L14.677 36L24.3541 26.5H5Z" fill="url(#paint21_linear_816_5012)"/>
</g>
<defs>
<linearGradient id="paint0_linear_816_5012" x1="24.3528" y1="511" x2="1959.76" y2="511" gradientUnits="userSpaceOnUse">
<stop stop-color="#120812"/>
<stop offset="1" stop-color="#0D051A"/>
</linearGradient>
<linearGradient id="paint1_linear_816_5012" x1="24.3528" y1="511" x2="1959.76" y2="511" gradientUnits="userSpaceOnUse">
<stop stop-color="#120812"/>
<stop offset="1" stop-color="#0D051A"/>
</linearGradient>
<linearGradient id="paint2_linear_816_5012" x1="5" y1="976.5" x2="972.705" y2="976.5" gradientUnits="userSpaceOnUse">
<stop stop-color="#EF4B95"/>
<stop offset="1" stop-color="#F64B7E"/>
</linearGradient>
<linearGradient id="paint3_linear_816_5012" x1="5" y1="976.5" x2="972.705" y2="976.5" gradientUnits="userSpaceOnUse">
<stop stop-color="#EF4B95"/>
<stop offset="1" stop-color="#F64B7E"/>
</linearGradient>
<linearGradient id="paint4_linear_816_5012" x1="24.3528" y1="501.5" x2="1959.76" y2="501.5" gradientUnits="userSpaceOnUse">
<stop stop-color="#120812"/>
<stop offset="1" stop-color="#0D051A"/>
</linearGradient>
<linearGradient id="paint5_linear_816_5012" x1="24.3528" y1="501.5" x2="1959.76" y2="501.5" gradientUnits="userSpaceOnUse">
<stop stop-color="#120812"/>
<stop offset="1" stop-color="#0D051A"/>
</linearGradient>
<linearGradient id="paint6_linear_816_5012" x1="14.6763" y1="492" x2="1950.09" y2="492" gradientUnits="userSpaceOnUse">
<stop stop-color="#87002D"/>
<stop offset="1" stop-color="#3B016E"/>
</linearGradient>
<linearGradient id="paint7_linear_816_5012" x1="14.6763" y1="492" x2="1950.09" y2="492" gradientUnits="userSpaceOnUse">
<stop stop-color="#87002D"/>
<stop offset="1" stop-color="#3B016E"/>
</linearGradient>
<linearGradient id="paint8_linear_816_5012" x1="24.3528" y1="520.5" x2="1959.76" y2="520.5" gradientUnits="userSpaceOnUse">
<stop stop-color="#2B002D"/>
<stop offset="1" stop-color="#14004F"/>
</linearGradient>
<linearGradient id="paint9_linear_816_5012" x1="24.3528" y1="520.5" x2="1959.76" y2="520.5" gradientUnits="userSpaceOnUse">
<stop stop-color="#2B002D"/>
<stop offset="1" stop-color="#14004F"/>
</linearGradient>
<linearGradient id="paint10_linear_816_5012" x1="5" y1="520.491" x2="1940.41" y2="520.491" gradientUnits="userSpaceOnUse">
<stop stop-color="#E60015"/>
<stop offset="1" stop-color="#8E0162"/>
</linearGradient>
<linearGradient id="paint11_linear_816_5012" x1="5" y1="520.491" x2="1940.41" y2="520.491" gradientUnits="userSpaceOnUse">
<stop stop-color="#E60015"/>
<stop offset="1" stop-color="#8E0162"/>
</linearGradient>
<linearGradient id="paint12_linear_816_5012" x1="24.3528" y1="492.01" x2="1959.76" y2="492.01" gradientUnits="userSpaceOnUse">
<stop stop-color="#2B002D"/>
<stop offset="1" stop-color="#14004F"/>
</linearGradient>
<linearGradient id="paint13_linear_816_5012" x1="24.3528" y1="492.01" x2="1959.76" y2="492.01" gradientUnits="userSpaceOnUse">
<stop stop-color="#2B002D"/>
<stop offset="1" stop-color="#14004F"/>
</linearGradient>
<linearGradient id="paint14_linear_816_5012" x1="5" y1="492" x2="1940.41" y2="492" gradientUnits="userSpaceOnUse">
<stop stop-color="#E60015"/>
<stop offset="1" stop-color="#8E0162"/>
</linearGradient>
<linearGradient id="paint15_linear_816_5012" x1="5" y1="492" x2="1940.41" y2="492" gradientUnits="userSpaceOnUse">
<stop stop-color="#E60015"/>
<stop offset="1" stop-color="#8E0162"/>
</linearGradient>
<linearGradient id="paint16_linear_816_5012" x1="14.6763" y1="520.5" x2="1950.09" y2="520.5" gradientUnits="userSpaceOnUse">
<stop stop-color="#87002D"/>
<stop offset="1" stop-color="#3B016E"/>
</linearGradient>
<linearGradient id="paint17_linear_816_5012" x1="14.6763" y1="520.5" x2="1950.09" y2="520.5" gradientUnits="userSpaceOnUse">
<stop stop-color="#87002D"/>
<stop offset="1" stop-color="#3B016E"/>
</linearGradient>
<linearGradient id="paint18_linear_816_5012" x1="5" y1="511" x2="1940.41" y2="511" gradientUnits="userSpaceOnUse">
<stop stop-color="#F61749"/>
<stop offset="1" stop-color="#B81789"/>
</linearGradient>
<linearGradient id="paint19_linear_816_5012" x1="5" y1="511" x2="1940.41" y2="511" gradientUnits="userSpaceOnUse">
<stop stop-color="#F61749"/>
<stop offset="1" stop-color="#B81789"/>
</linearGradient>
<linearGradient id="paint20_linear_816_5012" x1="5" y1="501.5" x2="1940.41" y2="501.5" gradientUnits="userSpaceOnUse">
<stop stop-color="#F61749"/>
<stop offset="1" stop-color="#B81789"/>
</linearGradient>
<linearGradient id="paint21_linear_816_5012" x1="5" y1="501.5" x2="1940.41" y2="501.5" gradientUnits="userSpaceOnUse">
<stop stop-color="#F61749"/>
<stop offset="1" stop-color="#B81789"/>
</linearGradient>
</defs>
</svg>
