<svg width="180" height="72" viewBox="0 0 180 72" fill="none" xmlns="http://www.w3.org/2000/svg">
<path fill-rule="evenodd" clip-rule="evenodd" d="M129.488 52.8792L129.679 52.8117C130.294 52.7432 130.407 52.6516 130.407 52.0371V41.3315L129.533 41.2417L128.869 39.4419H139.559V42.2106L137.351 42.8741V41.7285C137.351 41.2954 137.215 41.4694 136.759 41.4694H133.185V45.7964H138.626V47.8915H133.185V52.56H137.01C137.465 52.56 137.557 52.4008 137.557 51.9455V51.7586L139.765 51.1044V54.5884H128.823L129.488 52.8792Z" fill="#26374C"/>
<path fill-rule="evenodd" clip-rule="evenodd" d="M149.978 50.3964C149.978 48.939 148.749 48.4152 147.11 47.9831C144.993 47.4362 142.784 46.5478 142.784 43.632C142.784 40.8531 144.901 39.168 148.112 39.168C149.569 39.168 151.208 39.441 152.369 39.9879V42.168L150.161 42.9157V42.243C150.161 41.8562 150.115 41.673 149.751 41.5591C149.409 41.4694 148.658 41.3778 148.134 41.3778C146.928 41.3778 145.675 41.8108 145.675 43.3136C145.675 44.7711 146.905 45.2042 148.658 45.7501C150.753 46.434 152.915 47.1623 152.915 50.1688C152.915 53.1753 150.912 54.8604 147.269 54.8604C145.698 54.8604 144.014 54.6559 142.761 54.0859V51.8521L144.969 51.0627V51.7632C144.969 52.151 145.038 52.3323 145.379 52.4471C145.744 52.56 146.541 52.6516 147.178 52.6516C148.658 52.6516 149.978 52.1732 149.978 50.3964Z" fill="#26374C"/>
<mask id="mask0_816_5132" style="mask-type:luminance" maskUnits="userSpaceOnUse" x="15" y="5" width="149" height="62">
<path d="M15.9963 67H163.996V5H15.9963V67Z" fill="white"/>
</mask>
<g mask="url(#mask0_816_5132)">
<path fill-rule="evenodd" clip-rule="evenodd" d="M15.9963 67H163.996V5H15.9963V67ZM18.7713 64.2239H161.221V7.77612H18.7713V64.2239Z" fill="#26374C"/>
</g>
<mask id="mask1_816_5132" style="mask-type:luminance" maskUnits="userSpaceOnUse" x="15" y="5" width="149" height="62">
<path d="M15.9963 67H163.996V5H15.9963V67Z" fill="white"/>
</mask>
<g mask="url(#mask1_816_5132)">
<path fill-rule="evenodd" clip-rule="evenodd" d="M33.0442 39.4614L36.7553 48.9308H36.8228L40.3156 39.4614H44.5142L45.1792 41.1919L44.541 41.2604C44.1081 41.3057 43.8805 41.5565 43.9037 41.9886L44.5872 52.7396L45.7703 52.8081L46.4354 54.607H40.7392V52.8756L41.4672 52.8081C41.9232 52.7849 41.9917 52.5804 41.9686 52.0113L41.5357 43.4692H41.4903L37.7792 52.2343L35.685 52.8988L32.1108 43.5377H32.0655L31.5642 52.7396L32.725 52.8081V54.607H27.0742L27.7393 52.8756L28.4219 52.8081C28.8548 52.7396 29.0149 52.6026 29.0371 52.0335L29.766 41.3288L28.5588 41.2604L29.2239 39.4614H33.0442Z" fill="#26374C"/>
</g>
<mask id="mask2_816_5132" style="mask-type:luminance" maskUnits="userSpaceOnUse" x="15" y="5" width="149" height="62">
<path d="M15.9963 67H163.996V5H15.9963V67Z" fill="white"/>
</mask>
<g mask="url(#mask2_816_5132)">
<path fill-rule="evenodd" clip-rule="evenodd" d="M54.2118 48.3699H58.4917L56.3975 41.9247H56.3291L54.2118 48.3699ZM48.5156 54.5884L49.1807 52.8792L49.7264 52.8117C50.25 52.7432 50.3416 52.4924 50.5007 52.1047L54.1896 41.3778L53.0046 41.2417L53.6697 39.4419H57.9682L62.6811 52.6979L63.5099 52.7885L64.1749 54.5884H58.4242V52.8792L59.1744 52.7885C59.6073 52.7432 59.7442 52.5146 59.5851 52.0825L58.9478 50.2826H53.7567L52.9371 52.7201L54.098 52.7885V54.5884H48.5156Z" fill="#26374C"/>
</g>
<mask id="mask3_816_5132" style="mask-type:luminance" maskUnits="userSpaceOnUse" x="15" y="5" width="149" height="62">
<path d="M15.9963 67H163.996V5H15.9963V67Z" fill="white"/>
</mask>
<g mask="url(#mask3_816_5132)">
<path fill-rule="evenodd" clip-rule="evenodd" d="M74.9075 52.1102V48.4883L73.7605 48.3967L73.0954 46.6209H79.0645L78.7324 48.3292L78.1173 48.3967C77.7306 48.4661 77.5484 48.6021 77.5484 49.0574V53.4307C76.2737 54.3191 74.384 54.8429 72.3804 54.8429C67.9867 54.8429 65.5049 52.3147 65.5049 47.0309C65.5049 41.1547 68.9653 39.1504 72.904 39.1504C74.7253 39.1504 76.4782 39.5372 77.4799 40.061V42.1088L75.272 42.9333V42.2707C75.272 41.883 75.2266 41.7016 74.8622 41.5878C74.4293 41.474 73.6782 41.4055 73.0187 41.4055C69.808 41.4055 68.3742 43.5237 68.3742 46.8939C68.3742 50.5149 69.5573 52.6562 72.4489 52.6562C73.3369 52.6562 74.3618 52.4517 74.9075 52.1102Z" fill="#26374C"/>
</g>
<mask id="mask4_816_5132" style="mask-type:luminance" maskUnits="userSpaceOnUse" x="15" y="5" width="149" height="62">
<path d="M15.9963 67H163.996V5H15.9963V67Z" fill="white"/>
</mask>
<g mask="url(#mask4_816_5132)">
<path fill-rule="evenodd" clip-rule="evenodd" d="M95.2103 53.9231L92.5694 54.5884L85.8761 43.5866H85.8299V52.7201L87.0823 52.7885V54.5884H81.5823L82.2464 52.8792L82.6432 52.7885C83.0299 52.7201 83.189 52.6294 83.189 52.151V41.3093L81.6729 41.2417L82.338 39.4419H86.0352L92.5463 50.2604H92.5916V41.3093L91.3392 41.2417V39.4419H96.817L96.1529 41.1733L95.7792 41.2417C95.3463 41.3093 95.2103 41.4009 95.2103 41.9247V53.9231Z" fill="#26374C"/>
</g>
<mask id="mask5_816_5132" style="mask-type:luminance" maskUnits="userSpaceOnUse" x="15" y="5" width="149" height="62">
<path d="M15.9963 67H163.996V5H15.9963V67Z" fill="white"/>
</mask>
<g mask="url(#mask5_816_5132)">
<path fill-rule="evenodd" clip-rule="evenodd" d="M103.482 48.3699H107.762L105.668 41.9247H105.6L103.482 48.3699ZM98.1191 54.5884L98.7833 52.8792L98.997 52.8117C99.5205 52.7432 99.6121 52.4924 99.7712 52.1047L103.46 41.3778L102.275 41.2417L102.94 39.4419H107.239L111.952 52.6979L112.78 52.7885L113.445 54.5884H107.694V52.8792L108.445 52.7885C108.878 52.7432 109.015 52.5146 108.856 52.0825L108.218 50.2826H103.027L102.208 52.7201L103.369 52.7885V54.5884H98.1191Z" fill="#26374C"/>
</g>
<mask id="mask6_816_5132" style="mask-type:luminance" maskUnits="userSpaceOnUse" x="15" y="5" width="149" height="62">
<path d="M15.9963 67H163.996V5H15.9963V67Z" fill="white"/>
</mask>
<g mask="url(#mask6_816_5132)">
<path fill-rule="evenodd" clip-rule="evenodd" d="M118.936 41.4694H116.841C116.387 41.4694 116.273 41.6739 116.273 42.0616V42.9157L114.086 42.169V39.4419H126.541V42.169L124.332 42.9157V42.0838C124.332 41.6961 124.241 41.4694 123.763 41.4694H121.714V52.7201L122.998 52.7885L123.662 54.5884H116.942L117.607 52.8792L118.299 52.7885C118.822 52.7654 118.936 52.6062 118.936 52.0825V41.4694Z" fill="#26374C"/>
</g>
<mask id="mask7_816_5132" style="mask-type:luminance" maskUnits="userSpaceOnUse" x="15" y="5" width="149" height="62">
<path d="M15.9963 67H163.996V5H15.9963V67Z" fill="white"/>
</mask>
<g mask="url(#mask7_816_5132)">
<path fill-rule="evenodd" clip-rule="evenodd" d="M28.8713 17.3931H38.7106V18.3666H29.9295V23.9336H37.1871V24.9293H29.9295V32.2101H28.8713V17.3931Z" fill="#26374C"/>
</g>
<mask id="mask8_816_5132" style="mask-type:luminance" maskUnits="userSpaceOnUse" x="15" y="5" width="149" height="62">
<path d="M15.9963 67H163.996V5H15.9963V67Z" fill="white"/>
</mask>
<g mask="url(#mask8_816_5132)">
<path fill-rule="evenodd" clip-rule="evenodd" d="M47.2314 32.2101H48.2896V17.3931H47.2314V32.2101Z" fill="#26374C"/>
</g>
<mask id="mask9_816_5132" style="mask-type:luminance" maskUnits="userSpaceOnUse" x="15" y="5" width="149" height="62">
<path d="M15.9963 67H163.996V5H15.9963V67Z" fill="white"/>
</mask>
<g mask="url(#mask9_816_5132)">
<path fill-rule="evenodd" clip-rule="evenodd" d="M57.9524 17.3931H58.8829L68.8702 30.3686V17.3931H69.9284V32.2101H69.0182L59.0106 19.2133V32.2101H57.9524V17.3931Z" fill="#26374C"/>
</g>
<mask id="mask10_816_5132" style="mask-type:luminance" maskUnits="userSpaceOnUse" x="15" y="5" width="149" height="62">
<path d="M15.9963 67H163.996V5H15.9963V67Z" fill="white"/>
</mask>
<g mask="url(#mask10_816_5132)">
<path fill-rule="evenodd" clip-rule="evenodd" d="M88.9198 26.9607L85.1744 18.6851L81.4078 26.9607H88.9198ZM84.6879 17.3081H85.661L92.3478 32.2103H91.2471L89.3009 27.8925H81.0277L79.0805 32.2103H77.9807L84.6879 17.3081Z" fill="#26374C"/>
</g>
<mask id="mask11_816_5132" style="mask-type:luminance" maskUnits="userSpaceOnUse" x="15" y="5" width="149" height="62">
<path d="M15.9963 67H163.996V5H15.9963V67Z" fill="white"/>
</mask>
<g mask="url(#mask11_816_5132)">
<path fill-rule="evenodd" clip-rule="evenodd" d="M100.365 17.3931H101.295L111.283 30.3686V17.3931H112.34V32.2101H111.431L101.423 19.2133V32.2101H100.365V17.3931Z" fill="#26374C"/>
</g>
<mask id="mask12_816_5132" style="mask-type:luminance" maskUnits="userSpaceOnUse" x="15" y="5" width="149" height="62">
<path d="M15.9963 67H163.996V5H15.9963V67Z" fill="white"/>
</mask>
<g mask="url(#mask12_816_5132)">
<path fill-rule="evenodd" clip-rule="evenodd" d="M121.259 24.8017C121.259 20.3359 124.518 17.1396 128.728 17.1396C130.336 17.1396 131.754 17.5209 132.959 18.3038V19.4244C131.712 18.6202 130.379 18.1548 128.75 18.1548C125.174 18.1548 122.339 20.9494 122.339 24.8017C122.339 28.6541 125.174 31.47 128.77 31.47C130.548 31.47 132.05 30.9194 133.299 29.9246V31.0887C132.071 31.9984 130.548 32.4648 128.728 32.4648C124.538 32.4648 121.259 29.2685 121.259 24.8017Z" fill="#26374C"/>
</g>
<mask id="mask13_816_5132" style="mask-type:luminance" maskUnits="userSpaceOnUse" x="15" y="5" width="149" height="62">
<path d="M15.9963 67H163.996V5H15.9963V67Z" fill="white"/>
</mask>
<g mask="url(#mask13_816_5132)">
<path fill-rule="evenodd" clip-rule="evenodd" d="M141.698 17.3931H151.642V18.3666H142.756V23.743H150.098V24.7378H142.756V31.2366H151.981V32.2101H141.698V17.3931Z" fill="#26374C"/>
</g>
</svg>
