<svg width="180" height="72" viewBox="0 0 180 72" fill="none" xmlns="http://www.w3.org/2000/svg">
<g clip-path="url(#clip0_816_5383)">
<path d="M72.0582 32.0032C71.8967 29.9319 70.1477 27.0347 65.8288 27.0347C62.1154 27.0347 59.1958 29.5386 59.1958 34.4547C59.1958 39.3053 61.954 41.8355 65.7885 41.8355C69.4077 41.8355 71.4528 39.6986 72.0582 36.644H69.0444C68.6812 38.3745 67.5241 39.2922 65.8557 39.2922C63.2994 39.2922 62.2769 37.0242 62.2769 34.4941C62.2769 30.5218 64.4027 29.5779 65.8557 29.5779C68.3448 29.5779 68.8022 31.1642 69.0444 32.0032H72.0582ZM118.274 36.2508C118.274 32.4883 115.677 30.7709 112.812 30.7709C109.946 30.7709 107.349 32.4883 107.349 36.2508C107.349 40.0132 109.946 41.7306 112.812 41.7306C115.691 41.7306 118.274 40.0001 118.274 36.2508ZM115.381 36.2508C115.381 37.5748 114.978 39.4233 112.812 39.4233C110.645 39.4233 110.242 37.5879 110.242 36.2508C110.242 34.9136 110.645 33.0782 112.812 33.0782C114.991 33.0782 115.381 34.9136 115.381 36.2508ZM105.385 28.2145H102.573V31.0331H101.133V32.9865H102.573V39.3053C102.573 40.6556 103.017 41.5602 105.439 41.5602H105.802C106.246 41.5602 106.69 41.5471 107.134 41.5208V39.4495C106.932 39.4626 106.73 39.4888 106.555 39.4888C105.412 39.4888 105.385 39.2529 105.385 38.6498V32.9865H107.134V31.0331H105.385V28.2145ZM72.8789 41.4553H75.6909V36.0279C75.6909 34.8742 76.0945 33.5371 78.2876 33.5371C78.5432 33.5371 78.8527 33.5371 79.0948 33.5764V30.7971C78.9199 30.784 78.7316 30.7578 78.5567 30.7578C76.848 30.7578 76.2022 31.7804 75.6236 32.8291H75.5833V31.0331H72.8924V41.4553H72.8789Z" fill="#4BA565"/>
<path d="M90.1251 31.0459H87.1516L84.9586 38.715H84.9182L82.631 31.0459H79.4961L83.4382 41.8876C83.1691 43.3165 82.6175 43.4607 81.595 43.4607C81.3528 43.4607 81.1779 43.4345 81.0568 43.4214V45.6107C81.4604 45.6238 81.9448 45.6501 82.3215 45.6501C84.7702 45.6501 85.1335 45.1388 86.4655 41.2845L90.1251 31.0459Z" fill="#4BA565"/>
<path d="M93.3781 36.4868C93.3781 34.8219 93.8356 33.1438 95.773 33.1438C97.5625 33.1438 98.1679 34.6908 98.1679 36.3295C98.1679 37.5618 97.6701 39.4758 95.8537 39.4758C94.0509 39.4758 93.3781 38.0206 93.3781 36.4868ZM93.3781 31.0463H90.6873V45.5325H93.4858V40.1313H93.5261C93.8625 40.695 94.5756 41.7307 96.5399 41.7307C99.7152 41.7307 101.034 38.9908 101.034 36.1328C101.034 32.5277 98.9483 30.771 96.5937 30.771C94.7101 30.771 93.9163 31.728 93.3916 32.5539H93.3512V31.0463H93.3781Z" fill="#4BA565"/>
<path d="M24.7981 39.9094C27.785 45.9661 32.79 49.781 37.4049 52.1669C37.4183 52.18 37.8085 52.3767 37.8085 52.3767C37.8085 52.3767 38.1987 52.18 38.2121 52.1669C46.0291 48.1554 54.9494 40.0012 53.308 23.9156L49.8636 22.4604C49.2178 27.4421 46.0695 31.6372 41.6834 34.6786C41.0914 35.085 40.4725 35.4783 39.8267 35.8454L40.4456 40.3814C40.5263 40.9844 39.9343 41.4957 39.3154 41.4957H36.1805C35.5616 41.4957 34.9562 40.9844 35.0503 40.3814L35.3733 37.943C32.3595 39.0704 29.117 39.739 25.9014 39.8963C25.5246 39.8963 25.1614 39.9094 24.7981 39.9094Z" fill="#4BA565"/>
<path d="M22.3022 23.9152C21.7102 29.8015 22.5174 34.6258 24.1858 38.5849C24.7374 38.598 25.2756 38.5849 25.8272 38.5587C29.1505 38.4014 32.5006 37.6541 35.5817 36.4218L35.8373 34.5078C34.8686 33.8786 34.2228 32.8036 34.2228 31.5844C34.2228 29.6572 35.8373 28.0841 37.8151 28.0841C39.7929 28.0841 41.4074 29.6572 41.4074 31.5844C41.4074 32.4103 41.1114 33.1837 40.6001 33.7868C40.6943 33.7212 40.7885 33.6557 40.8827 33.5901C44.919 30.7978 47.8252 26.9698 48.4844 22.4863C44.7037 23.4564 41.2594 22.1847 39.1336 19.4448H37.8824H37.7613H36.51C34.2228 22.3945 30.4152 23.6399 26.3116 22.2372L22.3022 23.9152Z" fill="#26374C"/>
<path d="M51.468 17.7012C51.6967 17.7012 51.912 17.7929 52.06 17.9371C52.208 18.0814 52.3021 18.2911 52.3021 18.514C52.3021 18.7368 52.208 18.9466 52.06 19.0908C51.912 19.235 51.6967 19.3268 51.468 19.3268C51.2392 19.3268 51.024 19.235 50.876 19.0908C50.728 18.9466 50.6338 18.7368 50.6338 18.514C50.6338 18.2911 50.728 18.0814 50.876 17.9371C51.024 17.8061 51.2392 17.7012 51.468 17.7012ZM51.1585 19.0384V17.9765H51.5487C51.6294 17.9765 51.6832 17.9896 51.737 18.0027C51.7774 18.0158 51.8043 18.0551 51.8312 18.0945C51.8581 18.1469 51.8716 18.1993 51.8716 18.2518C51.8716 18.3304 51.8447 18.396 51.8043 18.4484C51.764 18.5009 51.6967 18.5271 51.616 18.5402C51.6563 18.5533 51.6832 18.5795 51.6967 18.5926C51.737 18.632 51.764 18.6844 51.7909 18.7237L51.9523 19.0252C51.9658 19.0121 51.9792 19.0121 51.9927 18.999C52.1272 18.8679 52.2079 18.6975 52.2079 18.5009C52.2079 18.3042 52.1272 18.1338 51.9927 18.0027C51.8581 17.8716 51.6832 17.7929 51.4814 17.7929C51.2796 17.7929 51.1047 17.8716 50.9701 18.0027C50.8356 18.1338 50.7549 18.3042 50.7549 18.5009C50.7549 18.6975 50.8356 18.8679 50.9701 18.999C51.1047 19.1301 51.2796 19.2088 51.4814 19.2088C51.616 19.2088 51.737 19.1695 51.8447 19.117L51.6832 18.8024C51.6429 18.7106 51.6025 18.6582 51.5756 18.632C51.5487 18.6057 51.5352 18.5795 51.5083 18.5664C51.4814 18.5533 51.4545 18.5533 51.4141 18.5533H51.2796V19.0252H51.1585V19.0384ZM51.2661 18.4484H51.5218C51.5756 18.4484 51.616 18.4353 51.6429 18.4353C51.6698 18.4222 51.6967 18.396 51.7101 18.3698C51.7236 18.3435 51.737 18.3042 51.737 18.278C51.737 18.2256 51.7236 18.1862 51.6832 18.16C51.6563 18.1207 51.6025 18.1076 51.5487 18.1076H51.2661V18.4484Z" fill="#26374C"/>
<path d="M119.587 41.4541H125.83C130.593 41.4541 131.817 37.1148 131.817 34.0865C131.817 31.4252 130.808 27.3874 125.951 27.3874H119.587V41.4541ZM161.847 31.045H158.874L156.681 38.7142H156.64L154.353 31.045H151.218L155.16 41.8867C154.905 43.3157 154.34 43.4599 153.317 43.4599C153.075 43.4599 152.9 43.4337 152.765 43.4206V45.6099C153.169 45.623 153.653 45.6492 154.03 45.6492C156.479 45.6492 156.842 45.1379 158.174 41.2837L161.847 31.045ZM150.276 27.4006H147.464V41.4541H150.276V27.4006ZM142.957 31.045V41.4541H145.769V31.045H142.957ZM145.769 27.2563H142.957V29.7996H145.769V27.2563ZM141.45 33.7719C141.45 31.2024 138.692 30.7566 137.185 30.7566C134.992 30.7566 132.732 31.2024 132.409 34.4011H135.127C135.207 33.7981 135.45 32.9459 136.849 32.9459C137.575 32.9459 138.692 33.0115 138.692 34.152C138.692 34.742 138.154 34.9124 137.71 34.9779L135.181 35.345C133.391 35.5941 132.073 36.6429 132.073 38.6749C132.073 40.8248 133.714 41.7163 135.329 41.7163C137.239 41.7163 138.141 40.8511 138.786 40.2087C138.854 40.7986 138.894 40.9559 139.055 41.441H142.083V41.0477C141.746 40.9297 141.464 40.6544 141.464 39.4221V33.7719H141.45ZM138.692 37.7179C138.692 38.9895 137.427 39.7761 136.176 39.7761C135.638 39.7761 134.871 39.4877 134.871 38.5175C134.871 37.377 135.732 37.1279 136.782 36.9575C137.939 36.774 138.41 36.6035 138.692 36.3938V37.7179ZM122.533 29.8258H125.426C126.718 29.8258 128.736 30.1667 128.736 34.3093C128.736 36.6166 127.915 39.0288 125.466 39.0288H122.533V29.8258Z" fill="#26374C"/>
<path d="M163.598 26.104V27.2446C163.598 27.2708 163.585 27.297 163.571 27.3232C163.558 27.3495 163.531 27.3495 163.504 27.3495H163.315C163.289 27.3495 163.262 27.3364 163.235 27.3232C163.208 27.3101 163.208 27.2839 163.208 27.2446V24.3211C163.208 24.2949 163.221 24.2687 163.235 24.2425C163.248 24.2163 163.275 24.2163 163.315 24.2163H164.392C164.688 24.2163 164.943 24.2949 165.132 24.4522C165.293 24.6095 165.401 24.8324 165.401 25.1208V25.1864C165.401 25.3961 165.347 25.5797 165.213 25.737C165.105 25.8681 164.943 25.9729 164.742 26.0385L165.361 27.1921C165.374 27.2053 165.374 27.2184 165.387 27.2315C165.387 27.2446 165.387 27.2577 165.387 27.2708C165.387 27.297 165.374 27.3101 165.361 27.3232C165.347 27.3364 165.32 27.3495 165.307 27.3495H165.051C165.024 27.3495 164.997 27.3364 164.984 27.3232C164.97 27.3101 164.957 27.297 164.943 27.2708L164.325 26.104H163.598ZM164.19 23.1675C164.943 23.1675 165.63 23.469 166.127 23.9541C166.625 24.4391 166.935 25.1077 166.935 25.8419C166.935 26.576 166.625 27.2446 166.127 27.7296C165.63 28.2147 164.943 28.5162 164.19 28.5162C163.437 28.5162 162.75 28.2147 162.253 27.7296C161.755 27.2446 161.445 26.576 161.445 25.8419C161.445 25.1077 161.755 24.4391 162.253 23.9541C162.737 23.469 163.437 23.1675 164.19 23.1675ZM165.858 24.2031C165.428 23.7836 164.836 23.5214 164.177 23.5214C163.517 23.5214 162.925 23.7836 162.495 24.2031C162.064 24.6227 161.795 25.1995 161.795 25.8419C161.795 26.4842 162.064 27.061 162.495 27.4806C162.925 27.9001 163.517 28.1623 164.177 28.1623C164.836 28.1623 165.428 27.9001 165.858 27.4806C166.289 27.061 166.558 26.4842 166.558 25.8419C166.558 25.1995 166.289 24.6227 165.858 24.2031ZM163.598 24.5964V25.737H164.365C164.54 25.737 164.701 25.6845 164.822 25.5928C164.917 25.501 164.984 25.383 164.984 25.2126V25.1339C164.984 24.9504 164.917 24.8193 164.822 24.7275C164.701 24.6227 164.54 24.5833 164.365 24.5833H163.598V24.5964Z" fill="#26374C"/>
</g>
<defs>
<clipPath id="clip0_816_5383">
<rect width="180" height="72" fill="white"/>
</clipPath>
</defs>
</svg>
