<svg width="187" height="174" viewBox="0 0 187 174" fill="none" xmlns="http://www.w3.org/2000/svg">
<mask id="path-1-outside-1_1356_19494" maskUnits="userSpaceOnUse" x="0.467009" y="0.540107" width="225.591" height="212.212" fill="black">
<rect fill="white" x="0.467009" y="0.540107" width="225.591" height="212.212"/>
<path fill-rule="evenodd" clip-rule="evenodd" d="M3.27344 119.928L14.781 134.737C46.8565 176.015 106.321 183.475 147.599 151.4C188.877 119.324 196.337 59.8598 164.262 18.5817L152.754 3.77258L106.081 40.0406L117.588 54.8498C129.634 70.3507 126.832 92.6813 111.331 104.726C95.8302 116.772 73.4997 113.97 61.4545 98.4691L49.947 83.6599L3.27344 119.928Z"/>
</mask>
<path d="M3.27344 119.928L2.04626 118.349L0.467009 119.576L1.69418 121.155L3.27344 119.928ZM164.262 18.5817L165.841 17.3546L164.262 18.5817ZM152.754 3.77258L154.334 2.54541L153.106 0.966151L151.527 2.19332L152.754 3.77258ZM106.081 40.0406L104.854 38.4614L103.274 39.6885L104.502 41.2678L106.081 40.0406ZM117.588 54.8498L119.168 53.6226L117.588 54.8498ZM61.4545 98.4691L63.0338 97.2419L61.4545 98.4691ZM49.947 83.6599L51.5262 82.4328L50.299 80.8535L48.7198 82.0807L49.947 83.6599ZM1.69418 121.155L13.2018 135.964L16.3603 133.51L4.85269 118.701L1.69418 121.155ZM13.2018 135.964C45.9549 178.115 106.676 185.732 148.826 152.979L146.372 149.821C105.966 181.218 47.758 173.916 16.3603 133.51L13.2018 135.964ZM148.826 152.979C190.977 120.226 198.594 59.5048 165.841 17.3546L162.683 19.8089C194.08 60.2147 186.778 118.423 146.372 149.821L148.826 152.979ZM165.841 17.3546L154.334 2.54541L151.175 4.99975L162.683 19.8089L165.841 17.3546ZM151.527 2.19332L104.854 38.4614L107.308 41.6199L153.982 5.35183L151.527 2.19332ZM119.168 53.6226L107.66 38.8134L104.502 41.2678L116.009 56.077L119.168 53.6226ZM112.558 106.306C128.931 93.5828 131.891 69.9958 119.168 53.6226L116.009 56.077C127.377 70.7057 124.733 91.7798 110.104 103.147L112.558 106.306ZM59.8753 99.6963C72.5982 116.069 96.1852 119.029 112.558 106.306L110.104 103.147C95.4752 114.515 74.4012 111.871 63.0338 97.2419L59.8753 99.6963ZM48.3677 84.8871L59.8753 99.6963L63.0338 97.2419L51.5262 82.4328L48.3677 84.8871ZM48.7198 82.0807L2.04626 118.349L4.50061 121.507L51.1741 85.2392L48.7198 82.0807Z" fill="#04AD6C" mask="url(#path-1-outside-1_1356_19494)"/>
</svg>
