<svg width="830" height="2084" viewBox="0 0 830 2084" fill="none" xmlns="http://www.w3.org/2000/svg">
<circle cx="448" cy="1702" r="332" stroke="#13B177" stroke-width="100"/>
<path fill-rule="evenodd" clip-rule="evenodd" d="M249.5 765.488C305.274 765.488 350.488 720.274 350.488 664.5C350.488 608.726 305.274 563.512 249.5 563.512C193.726 563.512 148.512 608.726 148.512 664.5C148.512 720.274 193.726 765.488 249.5 765.488ZM499 664.5C499 802.295 387.295 914 249.5 914C111.705 914 0 802.295 0 664.5C0 526.705 111.705 415 249.5 415C387.295 415 499 526.705 499 664.5ZM380.19 664.5C380.19 736.678 321.678 795.19 249.5 795.19C177.322 795.19 118.81 736.678 118.81 664.5C118.81 592.322 177.322 533.81 249.5 533.81C321.678 533.81 380.19 592.322 380.19 664.5ZM469.298 664.5C469.298 785.891 370.891 884.298 249.5 884.298C128.109 884.298 29.7024 785.891 29.7024 664.5C29.7024 543.109 128.109 444.702 249.5 444.702C370.891 444.702 469.298 543.109 469.298 664.5Z" fill="#EBF7F5"/>
<path d="M318 0H332.4L332.4 13.6L342 4L352.182 14.1823L340.765 25.5999L358 25.5999V39.9999L342.365 39.9998L353.437 51.0724L343.255 61.2547L332.4 50.3999L332.4 64H318L318 48.3646L306.928 59.4373L296.745 49.2549L306 40L294 40V25.6L307.6 25.6L298 16L308.182 5.81766L318 15.6353L318 0Z" fill="#13B177"/>
</svg>
