<svg width="676" height="1698" viewBox="0 0 676 1698" fill="none" xmlns="http://www.w3.org/2000/svg">
<path fill-rule="evenodd" clip-rule="evenodd" d="M413.932 410.745L398.947 436.699C357.179 509.044 381.966 601.551 454.311 643.319C526.655 685.087 619.162 660.3 660.93 587.955L675.915 562.001L624.726 532.447L609.741 558.401C584.295 602.475 527.938 617.576 483.865 592.13C439.791 566.684 424.69 510.327 450.136 466.253L465.121 440.299L413.932 410.745Z" fill="#04AD6C"/>
<mask id="path-2-outside-1_1416_7442" maskUnits="userSpaceOnUse" x="-0.0160702" y="-0.253411" width="360.752" height="339.451" fill="black">
<rect fill="white" x="-0.0160702" y="-0.253411" width="360.752" height="339.451"/>
<path fill-rule="evenodd" clip-rule="evenodd" d="M7 190.839L25.2125 214.276C75.9781 279.607 170.093 291.414 235.423 240.648C300.754 189.883 312.561 95.7683 261.795 30.4378L243.583 7.00011L196.909 43.2682L215.122 66.7059C245.857 106.259 238.708 163.24 199.155 193.975C159.602 224.71 102.621 217.562 71.886 178.008L53.6735 154.571L7 190.839Z"/>
</mask>
<path d="M7 190.839L4.2799 187.338L0.779383 190.058L3.49949 193.559L7 190.839ZM243.583 7.00011L247.083 4.28002L244.363 0.779506L240.863 3.4996L243.583 7.00011ZM196.909 43.2682L194.189 39.7677L190.689 42.4878L193.409 45.9883L196.909 43.2682ZM215.122 66.7059L211.621 69.426L215.122 66.7059ZM71.886 178.008L68.3855 180.728L71.886 178.008ZM53.6735 154.571L57.174 151.85L54.4539 148.35L50.9534 151.07L53.6735 154.571ZM3.49949 193.559L21.712 216.996L28.713 211.556L10.5005 188.119L3.49949 193.559ZM21.712 216.996C73.9798 284.26 170.879 296.417 238.143 244.149L232.703 237.148C169.306 286.411 77.9763 274.953 28.713 211.556L21.712 216.996ZM238.143 244.149C305.407 191.881 317.564 94.9815 265.296 27.7177L258.295 33.158C307.558 96.5552 296.1 187.885 232.703 237.148L238.143 244.149ZM265.296 27.7177L247.083 4.28002L240.082 9.72023L258.295 33.158L265.296 27.7177ZM240.863 3.4996L194.189 39.7677L199.629 46.7687L246.303 10.5006L240.863 3.4996ZM218.622 63.9858L200.41 40.5481L193.409 45.9883L211.621 69.426L218.622 63.9858ZM201.875 197.475C243.362 165.238 250.86 105.473 218.622 63.9858L211.621 69.426C240.854 107.046 234.055 161.241 196.435 190.474L201.875 197.475ZM68.3855 180.728C100.623 222.215 160.388 229.713 201.875 197.475L196.435 190.474C158.815 219.707 104.62 212.908 75.3865 175.288L68.3855 180.728ZM50.173 157.291L68.3855 180.728L75.3865 175.288L57.174 151.85L50.173 157.291ZM50.9534 151.07L4.2799 187.338L9.7201 194.339L56.3936 158.071L50.9534 151.07Z" fill="#04AD6C" mask="url(#path-2-outside-1_1416_7442)"/>
<path d="M316.833 1036.87L284.04 1069.66L314.941 1100.56L284.04 1131.46L316.833 1164.25L347.734 1133.35L379.265 1164.88L412.058 1132.09L380.526 1100.56L412.058 1069.03L379.265 1036.23L347.734 1067.77L316.833 1036.87Z" fill="#13B177" fill-opacity="0.1"/>
<path fill-rule="evenodd" clip-rule="evenodd" d="M401.59 1633.27C425.733 1633.27 445.304 1613.7 445.304 1589.56C445.304 1565.42 425.733 1545.84 401.59 1545.84C377.447 1545.84 357.876 1565.42 357.876 1589.56C357.876 1613.7 377.447 1633.27 401.59 1633.27ZM509.59 1589.56C509.59 1649.21 461.237 1697.56 401.59 1697.56C341.943 1697.56 293.59 1649.21 293.59 1589.56C293.59 1529.91 341.943 1481.56 401.59 1481.56C461.237 1481.56 509.59 1529.91 509.59 1589.56ZM458.161 1589.56C458.161 1620.8 432.833 1646.13 401.59 1646.13C370.346 1646.13 345.018 1620.8 345.018 1589.56C345.018 1558.32 370.346 1532.99 401.59 1532.99C432.833 1532.99 458.161 1558.32 458.161 1589.56ZM496.733 1589.56C496.733 1642.1 454.136 1684.7 401.59 1684.7C349.044 1684.7 306.447 1642.1 306.447 1589.56C306.447 1537.01 349.044 1494.42 401.59 1494.42C454.136 1494.42 496.733 1537.01 496.733 1589.56Z" fill="#04AD6C"/>
</svg>
