<svg width="624" height="304" viewBox="0 0 624 304" fill="none" xmlns="http://www.w3.org/2000/svg">
<path d="M0 8C0 3.58172 3.58172 0 8 0H357C361.418 0 365 3.58172 365 8V56C365 60.4183 361.418 64 357 64H8C3.58173 64 0 60.4183 0 56V8Z" fill="#D5F3E8"/>
<path d="M31.9974 18.6657C39.3707 18.6657 45.3307 24.6404 45.3307 31.9991C45.3307 39.3604 39.3707 45.3324 31.9974 45.3324C24.6374 45.3324 18.6641 39.3604 18.6641 31.9991C18.6641 24.6404 24.6374 18.6657 31.9974 18.6657ZM31.9974 35.9071C31.3574 35.9071 30.8374 36.4271 30.8374 37.0671C30.8374 37.7071 31.3574 38.2404 32.0107 38.2404C32.6507 38.2404 33.1707 37.7071 33.1707 37.0671C33.1707 36.4271 32.6507 35.9071 31.9974 35.9071ZM31.9974 25.7724C31.3574 25.7724 30.8241 26.3071 30.8241 26.9457V32.8391C30.8241 33.4804 31.3574 33.9991 31.9974 33.9991C32.6374 33.9991 33.1574 33.4804 33.1574 32.8391V26.9457C33.1574 26.3071 32.6374 25.7724 31.9974 25.7724Z" fill="#04AD6C"/>
<path d="M66.42 28.54L63.14 29.22C63.0733 28.94 62.8933 28.7133 62.6 28.54C62.3067 28.3533 61.96 28.26 61.56 28.26C61.1733 28.26 60.84 28.3533 60.56 28.54C60.2933 28.7133 60.16 28.9333 60.16 29.2C60.16 29.52 60.3933 29.7933 60.86 30.02C61.2067 30.18 61.7733 30.3733 62.56 30.6C62.9067 30.7067 63.0867 30.76 63.1 30.76C64.1 31.0533 64.9533 31.46 65.66 31.98C66.5667 32.62 67.02 33.5867 67.02 34.88C67.02 36.2 66.5467 37.2533 65.6 38.04C64.6533 38.8267 63.4333 39.22 61.94 39.22C60.5667 39.22 59.3733 38.8933 58.36 38.24C57.36 37.5867 56.72 36.72 56.44 35.64L59.8 34.94C59.8933 35.3133 60.1333 35.62 60.52 35.86C60.92 36.1 61.4 36.22 61.96 36.22C62.4533 36.22 62.8667 36.1267 63.2 35.94C63.5333 35.74 63.7 35.4867 63.7 35.18C63.7 34.9133 63.5267 34.68 63.18 34.48C62.8467 34.28 62.3067 34.0667 61.56 33.84C61.52 33.8267 61.4733 33.8133 61.42 33.8C61.3667 33.7867 61.32 33.7733 61.28 33.76C60.2933 33.4533 59.48 33.1267 58.84 32.78C57.5733 32.0733 56.9067 30.9667 56.84 29.46C56.84 28.22 57.2667 27.2133 58.12 26.44C58.9733 25.6667 60.1 25.28 61.5 25.28C62.74 25.28 63.8067 25.5867 64.7 26.2C65.6333 26.8267 66.2067 27.6067 66.42 28.54ZM67.3566 25.5H78.6166V28.56H74.6366V39H71.3166V28.56H67.3566V25.5ZM80.81 39H77.35L82.97 25.5H85.71L91.35 39H87.89L87.03 36.88H81.67L80.81 39ZM84.37 30.22L82.85 33.94H85.85L84.37 30.22ZM92.2292 25.5H98.6092C100.036 25.5 101.216 25.9467 102.149 26.84C103.109 27.72 103.589 28.82 103.589 30.14C103.589 30.98 103.376 31.7533 102.949 32.46C102.536 33.1667 101.969 33.72 101.249 34.12L104.069 39H100.369L97.9292 34.78H95.5492V39H92.2292V25.5ZM98.6092 28.56H95.5492V31.74H98.6092C99.0492 31.74 99.4159 31.5867 99.7092 31.28C100.003 30.9733 100.149 30.5933 100.149 30.14C100.149 29.6867 100.003 29.3133 99.7092 29.02C99.4159 28.7133 99.0492 28.56 98.6092 28.56ZM104.232 25.5H115.492V28.56H111.512V39H108.192V28.56H104.232V25.5ZM120.483 33.76H116.963V31H120.483V27.5H123.243V31H126.763V33.76H123.243V37.28H120.483V33.76Z" fill="#04AD6C"/>
<path d="M250.439 22.6127C251.092 22.4903 251.748 22.8166 252.033 23.4064C252.104 23.5134 252.16 23.6288 252.202 23.7499C252.383 26.5457 252.576 29.2941 252.757 32.0425C252.753 32.3282 252.798 32.6125 252.89 32.8836C253.107 33.417 253.646 33.7554 254.23 33.7247L263.105 33.1561L263.166 33.1798L263.328 33.1914C263.648 33.2325 263.947 33.379 264.175 33.6094C264.439 33.8782 264.585 34.2393 264.578 34.6132C264.229 39.7093 260.492 43.9673 255.408 45.0643C250.323 46.1613 245.111 43.8339 242.614 39.3518C241.88 38.0609 241.416 36.6392 241.25 35.17C241.185 34.7347 241.157 34.2949 241.165 33.855C241.182 28.4361 245.04 23.7587 250.439 22.6127ZM255.715 18.6678C261.81 18.8502 266.903 23.2744 267.826 29.1875C267.832 29.2228 267.832 29.2588 267.826 29.2941L267.825 29.461C267.805 29.6817 267.714 29.8922 267.564 30.0611C267.375 30.2723 267.109 30.4013 266.824 30.4195L256.585 31.0948L256.416 31.0981C256.137 31.0845 255.869 30.9758 255.66 30.7879C255.409 30.5624 255.267 30.2437 255.269 29.9101L254.58 19.8524V19.6866C254.593 19.4037 254.72 19.1373 254.933 18.9462C255.145 18.7551 255.427 18.6549 255.715 18.6678Z" fill="#04AD6C"/>
<path d="M282.5 29.18L280.36 30.16L279.16 27.46L283.38 25.5H285.68V39H282.5V29.18ZM293.265 39.22C291.772 39.22 290.518 38.8267 289.505 38.04C288.518 37.2533 288.025 36.2733 288.025 35.1C288.025 33.8333 288.585 32.8 289.705 32C288.758 31.2533 288.285 30.3133 288.285 29.18C288.285 28.0867 288.758 27.1667 289.705 26.42C290.638 25.66 291.825 25.28 293.265 25.28C294.678 25.28 295.852 25.66 296.785 26.42C297.732 27.1667 298.205 28.0933 298.205 29.2C298.205 30.32 297.732 31.2533 296.785 32C297.918 32.8133 298.485 33.8533 298.485 35.12C298.485 36.2933 297.985 37.2733 296.985 38.06C296.012 38.8333 294.772 39.22 293.265 39.22ZM293.265 36.16C293.812 36.16 294.265 36.04 294.625 35.8C294.985 35.5467 295.165 35.2267 295.165 34.84C295.165 34.4533 294.985 34.1333 294.625 33.88C294.265 33.6267 293.812 33.5 293.265 33.5C292.705 33.5 292.238 33.6267 291.865 33.88C291.505 34.1333 291.325 34.4467 291.325 34.82C291.325 35.1933 291.505 35.5133 291.865 35.78C292.238 36.0333 292.705 36.16 293.265 36.16ZM291.605 29.44C291.605 29.7733 291.758 30.0467 292.065 30.26C292.385 30.4733 292.785 30.58 293.265 30.58C293.732 30.58 294.118 30.4733 294.425 30.26C294.732 30.0467 294.885 29.7733 294.885 29.44C294.885 29.12 294.732 28.8533 294.425 28.64C294.118 28.4267 293.732 28.32 293.265 28.32C292.785 28.32 292.385 28.4333 292.065 28.66C291.758 28.8733 291.605 29.1333 291.605 29.44ZM303.587 39L301.927 37.62L312.147 25.5L313.807 26.88L303.587 39ZM299.487 29.04C299.487 27.9867 299.841 27.0933 300.547 26.36C301.241 25.64 302.121 25.28 303.187 25.28C304.254 25.28 305.134 25.64 305.827 26.36C306.534 27.0933 306.887 27.9867 306.887 29.04C306.887 30.1067 306.534 31.0067 305.827 31.74C305.121 32.4467 304.241 32.8 303.187 32.8C302.134 32.8 301.254 32.4467 300.547 31.74C299.841 31.0067 299.487 30.1067 299.487 29.04ZM303.187 30.24C303.534 30.24 303.821 30.1267 304.047 29.9C304.274 29.6733 304.387 29.3867 304.387 29.04C304.387 28.52 304.141 28.16 303.647 27.96C303.154 27.7467 302.714 27.8267 302.327 28.2C302.101 28.4533 301.987 28.7333 301.987 29.04C301.987 29.3467 302.101 29.6333 302.327 29.9C302.567 30.1533 302.854 30.2667 303.187 30.24ZM308.787 35.46C308.787 34.4067 309.141 33.5133 309.847 32.78C310.554 32.06 311.434 31.7 312.487 31.7C313.541 31.7 314.414 32.06 315.107 32.78C315.814 33.5133 316.167 34.4067 316.167 35.46C316.167 36.5267 315.814 37.4267 315.107 38.16C314.401 38.8667 313.527 39.22 312.487 39.22C311.434 39.22 310.554 38.8667 309.847 38.16C309.141 37.4267 308.787 36.5267 308.787 35.46ZM311.627 34.62C311.401 34.8467 311.287 35.1267 311.287 35.46C311.287 35.7933 311.401 36.08 311.627 36.32C311.867 36.5467 312.154 36.66 312.487 36.66C312.821 36.66 313.101 36.5467 313.327 36.32C313.554 36.08 313.667 35.7933 313.667 35.46C313.667 35.1267 313.554 34.8467 313.327 34.62C313.101 34.38 312.821 34.26 312.487 34.26C312.154 34.26 311.867 34.38 311.627 34.62ZM320.025 30.26L318.385 31.68L317.225 29.66L319.265 28.94L317.225 28.24L318.385 26.2L320.025 27.62L319.625 25.5H321.965L321.545 27.62L323.185 26.2L324.365 28.24L322.325 28.94L324.365 29.66L323.185 31.68L321.545 30.26L321.965 32.38H319.625L320.025 30.26Z" fill="#04AD6C"/>
<path d="M0 88C0 83.5817 3.58172 80 8 80H418C422.418 80 426 83.5817 426 88V136C426 140.418 422.418 144 418 144H8C3.58172 144 0 140.418 0 136V88Z" fill="#F3E2C9"/>
<path d="M31.9974 98.6657C39.3707 98.6657 45.3307 104.64 45.3307 111.999C45.3307 119.36 39.3707 125.332 31.9974 125.332C24.6374 125.332 18.6641 119.36 18.6641 111.999C18.6641 104.64 24.6374 98.6657 31.9974 98.6657ZM31.9974 115.907C31.3574 115.907 30.8374 116.427 30.8374 117.067C30.8374 117.707 31.3574 118.24 32.0107 118.24C32.6507 118.24 33.1707 117.707 33.1707 117.067C33.1707 116.427 32.6507 115.907 31.9974 115.907ZM31.9974 105.772C31.3574 105.772 30.8241 106.307 30.8241 106.946V112.839C30.8241 113.48 31.3574 113.999 31.9974 113.999C32.6374 113.999 33.1574 113.48 33.1574 112.839V106.946C33.1574 106.307 32.6374 105.772 31.9974 105.772Z" fill="#BB6F00"/>
<path d="M60.1 114.78V119H56.78V105.5H62.96C64.4 105.5 65.5867 105.947 66.52 106.84C67.48 107.72 67.96 108.82 67.96 110.14C67.96 111.46 67.48 112.567 66.52 113.46C65.5867 114.34 64.4 114.78 62.96 114.78H60.1ZM62.96 108.56H60.1V111.74H62.96C63.4133 111.74 63.7867 111.593 64.08 111.3C64.3733 110.993 64.52 110.607 64.52 110.14C64.52 109.687 64.3733 109.313 64.08 109.02C63.7867 108.713 63.4133 108.56 62.96 108.56ZM69.1628 105.5H75.5428C76.9695 105.5 78.1495 105.947 79.0828 106.84C80.0428 107.72 80.5228 108.82 80.5228 110.14C80.5228 110.98 80.3095 111.753 79.8828 112.46C79.4695 113.167 78.9028 113.72 78.1828 114.12L81.0028 119H77.3028L74.8628 114.78H72.4828V119H69.1628V105.5ZM75.5428 108.56H72.4828V111.74H75.5428C75.9828 111.74 76.3495 111.587 76.6428 111.28C76.9361 110.973 77.0828 110.593 77.0828 110.14C77.0828 109.687 76.9361 109.313 76.6428 109.02C76.3495 108.713 75.9828 108.56 75.5428 108.56ZM81.3452 112.24C81.3452 110.267 82.0252 108.613 83.3852 107.28C84.7585 105.947 86.4518 105.28 88.4652 105.28C90.4918 105.28 92.1785 105.947 93.5252 107.28C94.8852 108.613 95.5652 110.267 95.5652 112.24C95.5652 114.213 94.8852 115.873 93.5252 117.22C92.1918 118.553 90.5052 119.22 88.4652 119.22C86.4252 119.22 84.7318 118.553 83.3852 117.22C82.0252 115.873 81.3452 114.213 81.3452 112.24ZM88.4652 116.04C89.4918 116.04 90.3585 115.68 91.0652 114.96C91.7718 114.213 92.1252 113.307 92.1252 112.24C92.1252 111.187 91.7718 110.293 91.0652 109.56C90.3718 108.827 89.5052 108.46 88.4652 108.46C87.4252 108.46 86.5518 108.82 85.8452 109.54C85.1518 110.247 84.8052 111.147 84.8052 112.24C84.8052 113.32 85.1518 114.227 85.8452 114.96C86.5518 115.68 87.4252 116.04 88.4652 116.04Z" fill="#BB6F00"/>
<path d="M250.439 102.613C251.092 102.49 251.748 102.817 252.033 103.406C252.104 103.513 252.16 103.629 252.202 103.75C252.383 106.546 252.576 109.294 252.757 112.043C252.753 112.328 252.798 112.613 252.89 112.884C253.107 113.417 253.646 113.755 254.23 113.725L263.105 113.156L263.166 113.18L263.328 113.191C263.648 113.233 263.947 113.379 264.175 113.609C264.439 113.878 264.585 114.239 264.578 114.613C264.229 119.709 260.492 123.967 255.408 125.064C250.323 126.161 245.111 123.834 242.614 119.352C241.88 118.061 241.416 116.639 241.25 115.17C241.185 114.735 241.157 114.295 241.165 113.855C241.182 108.436 245.04 103.759 250.439 102.613ZM255.715 98.6678C261.81 98.8502 266.903 103.274 267.826 109.187C267.832 109.223 267.832 109.259 267.826 109.294L267.825 109.461C267.805 109.682 267.714 109.892 267.564 110.061C267.375 110.272 267.109 110.401 266.824 110.42L256.585 111.095L256.416 111.098C256.137 111.085 255.869 110.976 255.66 110.788C255.409 110.562 255.267 110.244 255.269 109.91L254.58 99.8524V99.6866C254.593 99.4037 254.72 99.1373 254.933 98.9462C255.145 98.7551 255.427 98.6549 255.715 98.6678Z" fill="#BB6F00"/>
<path d="M285.58 109.6C285.58 109.253 285.42 108.953 285.1 108.7C284.793 108.447 284.42 108.32 283.98 108.32C283.007 108.32 282.273 108.893 281.78 110.04L278.84 108.62C279.32 107.58 280.013 106.767 280.92 106.18C281.84 105.58 282.86 105.28 283.98 105.28C285.353 105.28 286.513 105.693 287.46 106.52C288.42 107.347 288.9 108.34 288.9 109.5C288.9 110.927 287.913 112.52 285.94 114.28L284.12 115.94H288.98V119H279.24V116.64L284.02 112.16C285.06 111.173 285.58 110.32 285.58 109.6ZM296.752 119V116.58H290.152V113.54L296.892 105.5H299.932V113.54H301.452V116.58H299.932V119H296.752ZM296.752 110.18L293.952 113.54H296.752V110.18ZM306.439 119L304.779 117.62L314.999 105.5L316.659 106.88L306.439 119ZM302.339 109.04C302.339 107.987 302.692 107.093 303.399 106.36C304.092 105.64 304.972 105.28 306.039 105.28C307.106 105.28 307.986 105.64 308.679 106.36C309.386 107.093 309.739 107.987 309.739 109.04C309.739 110.107 309.386 111.007 308.679 111.74C307.972 112.447 307.092 112.8 306.039 112.8C304.986 112.8 304.106 112.447 303.399 111.74C302.692 111.007 302.339 110.107 302.339 109.04ZM306.039 110.24C306.386 110.24 306.672 110.127 306.899 109.9C307.126 109.673 307.239 109.387 307.239 109.04C307.239 108.52 306.992 108.16 306.499 107.96C306.006 107.747 305.566 107.827 305.179 108.2C304.952 108.453 304.839 108.733 304.839 109.04C304.839 109.347 304.952 109.633 305.179 109.9C305.419 110.153 305.706 110.267 306.039 110.24ZM311.639 115.46C311.639 114.407 311.992 113.513 312.699 112.78C313.406 112.06 314.286 111.7 315.339 111.7C316.392 111.7 317.266 112.06 317.959 112.78C318.666 113.513 319.019 114.407 319.019 115.46C319.019 116.527 318.666 117.427 317.959 118.16C317.252 118.867 316.379 119.22 315.339 119.22C314.286 119.22 313.406 118.867 312.699 118.16C311.992 117.427 311.639 116.527 311.639 115.46ZM314.479 114.62C314.252 114.847 314.139 115.127 314.139 115.46C314.139 115.793 314.252 116.08 314.479 116.32C314.719 116.547 315.006 116.66 315.339 116.66C315.672 116.66 315.952 116.547 316.179 116.32C316.406 116.08 316.519 115.793 316.519 115.46C316.519 115.127 316.406 114.847 316.179 114.62C315.952 114.38 315.672 114.26 315.339 114.26C315.006 114.26 314.719 114.38 314.479 114.62ZM322.877 110.26L321.237 111.68L320.077 109.66L322.117 108.94L320.077 108.24L321.237 106.2L322.877 107.62L322.477 105.5H324.817L324.397 107.62L326.037 106.2L327.217 108.24L325.177 108.94L327.217 109.66L326.037 111.68L324.397 110.26L324.817 112.38H322.477L322.877 110.26Z" fill="#BB6F00"/>
<path d="M0 168C0 163.582 3.58172 160 8 160H516C520.418 160 524 163.582 524 168V216C524 220.418 520.418 224 516 224H8.00001C3.58173 224 0 220.418 0 216V168Z" fill="#D1D2DD"/>
<path d="M31.9974 178.666C39.3707 178.666 45.3307 184.64 45.3307 191.999C45.3307 199.36 39.3707 205.332 31.9974 205.332C24.6374 205.332 18.6641 199.36 18.6641 191.999C18.6641 184.64 24.6374 178.666 31.9974 178.666ZM31.9974 195.907C31.3574 195.907 30.8374 196.427 30.8374 197.067C30.8374 197.707 31.3574 198.24 32.0107 198.24C32.6507 198.24 33.1707 197.707 33.1707 197.067C33.1707 196.427 32.6507 195.907 31.9974 195.907ZM31.9974 185.772C31.3574 185.772 30.8241 186.307 30.8241 186.946V192.839C30.8241 193.48 31.3574 193.999 31.9974 193.999C32.6374 193.999 33.1574 193.48 33.1574 192.839V186.946C33.1574 186.307 32.6374 185.772 31.9974 185.772Z" fill="#3B4077"/>
<path d="M60.1 194.78V199H56.78V185.5H62.96C64.4 185.5 65.5867 185.947 66.52 186.84C67.48 187.72 67.96 188.82 67.96 190.14C67.96 191.46 67.48 192.567 66.52 193.46C65.5867 194.34 64.4 194.78 62.96 194.78H60.1ZM62.96 188.56H60.1V191.74H62.96C63.4133 191.74 63.7867 191.593 64.08 191.3C64.3733 190.993 64.52 190.607 64.52 190.14C64.52 189.687 64.3733 189.313 64.08 189.02C63.7867 188.713 63.4133 188.56 62.96 188.56ZM69.1628 185.5H75.5428C76.9695 185.5 78.1495 185.947 79.0828 186.84C80.0428 187.72 80.5228 188.82 80.5228 190.14C80.5228 190.98 80.3095 191.753 79.8828 192.46C79.4695 193.167 78.9028 193.72 78.1828 194.12L81.0028 199H77.3028L74.8628 194.78H72.4828V199H69.1628V185.5ZM75.5428 188.56H72.4828V191.74H75.5428C75.9828 191.74 76.3495 191.587 76.6428 191.28C76.9361 190.973 77.0828 190.593 77.0828 190.14C77.0828 189.687 76.9361 189.313 76.6428 189.02C76.3495 188.713 75.9828 188.56 75.5428 188.56ZM81.3452 192.24C81.3452 190.267 82.0252 188.613 83.3852 187.28C84.7585 185.947 86.4518 185.28 88.4652 185.28C90.4918 185.28 92.1785 185.947 93.5252 187.28C94.8852 188.613 95.5652 190.267 95.5652 192.24C95.5652 194.213 94.8852 195.873 93.5252 197.22C92.1918 198.553 90.5052 199.22 88.4652 199.22C86.4252 199.22 84.7318 198.553 83.3852 197.22C82.0252 195.873 81.3452 194.213 81.3452 192.24ZM88.4652 196.04C89.4918 196.04 90.3585 195.68 91.0652 194.96C91.7718 194.213 92.1252 193.307 92.1252 192.24C92.1252 191.187 91.7718 190.293 91.0652 189.56C90.3718 188.827 89.5052 188.46 88.4652 188.46C87.4252 188.46 86.5518 188.82 85.8452 189.54C85.1518 190.247 84.8052 191.147 84.8052 192.24C84.8052 193.32 85.1518 194.227 85.8452 194.96C86.5518 195.68 87.4252 196.04 88.4652 196.04ZM100.737 193.76H97.2172V191H100.737V187.5H103.497V191H107.017V193.76H103.497V197.28H100.737V193.76Z" fill="#3B4077"/>
<path d="M250.439 182.613C251.092 182.49 251.748 182.817 252.033 183.406C252.104 183.513 252.16 183.629 252.202 183.75C252.383 186.546 252.576 189.294 252.757 192.043C252.753 192.328 252.798 192.613 252.89 192.884C253.107 193.417 253.646 193.755 254.23 193.725L263.105 193.156L263.166 193.18L263.328 193.191C263.648 193.233 263.947 193.379 264.175 193.609C264.439 193.878 264.585 194.239 264.578 194.613C264.229 199.709 260.492 203.967 255.408 205.064C250.323 206.161 245.111 203.834 242.614 199.352C241.88 198.061 241.416 196.639 241.25 195.17C241.185 194.735 241.157 194.295 241.165 193.855C241.182 188.436 245.04 183.759 250.439 182.613ZM255.715 178.668C261.81 178.85 266.903 183.274 267.826 189.187C267.832 189.223 267.832 189.259 267.826 189.294L267.825 189.461C267.805 189.682 267.714 189.892 267.564 190.061C267.375 190.272 267.109 190.401 266.824 190.42L256.585 191.095L256.416 191.098C256.137 191.085 255.869 190.976 255.66 190.788C255.409 190.562 255.267 190.244 255.269 189.91L254.58 179.852V179.687C254.593 179.404 254.72 179.137 254.933 178.946C255.145 178.755 255.427 178.655 255.715 178.668Z" fill="#3B4077"/>
<path d="M285.6 189.58C285.6 189.22 285.427 188.92 285.08 188.68C284.747 188.44 284.313 188.32 283.78 188.32C282.793 188.32 282.14 188.66 281.82 189.34L278.98 188.24C279.393 187.347 280.04 186.633 280.92 186.1C281.813 185.553 282.82 185.28 283.94 185.28C285.38 185.28 286.567 185.68 287.5 186.48C288.447 187.28 288.92 188.287 288.92 189.5C288.92 190.54 288.487 191.36 287.62 191.96C288.727 192.667 289.28 193.633 289.28 194.86C289.28 196.127 288.78 197.167 287.78 197.98C286.793 198.807 285.547 199.22 284.04 199.22C282.76 199.22 281.653 198.913 280.72 198.3C279.787 197.687 279.16 196.88 278.84 195.88L281.84 194.82C281.92 195.22 282.153 195.547 282.54 195.8C282.927 196.04 283.4 196.16 283.96 196.16C284.547 196.16 285.027 196.033 285.4 195.78C285.787 195.513 285.98 195.173 285.98 194.76C285.98 194.36 285.787 194.027 285.4 193.76C285.027 193.493 284.56 193.36 284 193.36H282.96V190.84H283.62C284.18 190.84 284.647 190.727 285.02 190.5C285.407 190.26 285.6 189.953 285.6 189.58ZM300.667 188.08L297.787 189.44C297.387 188.693 296.721 188.32 295.787 188.32C295.174 188.32 294.661 188.487 294.247 188.82C293.847 189.153 293.647 189.56 293.647 190.04V190.9C294.221 190.46 294.981 190.24 295.927 190.24C297.301 190.24 298.467 190.68 299.427 191.56C300.401 192.413 300.887 193.48 300.887 194.76C300.887 196.013 300.387 197.073 299.387 197.94C298.414 198.793 297.181 199.22 295.687 199.22C294.181 199.22 292.934 198.793 291.947 197.94C290.961 197.073 290.467 196.007 290.467 194.74V190.08C290.467 188.693 290.974 187.553 291.987 186.66C293.014 185.74 294.281 185.28 295.787 185.28C296.867 185.28 297.847 185.533 298.727 186.04C299.607 186.547 300.254 187.227 300.667 188.08ZM295.687 193.28C295.141 193.28 294.681 193.42 294.307 193.7C293.947 193.98 293.767 194.32 293.767 194.72C293.767 195.133 293.947 195.48 294.307 195.76C294.681 196.027 295.141 196.16 295.687 196.16C296.221 196.16 296.667 196.027 297.027 195.76C297.387 195.493 297.567 195.153 297.567 194.74C297.567 194.327 297.387 193.98 297.027 193.7C296.667 193.42 296.221 193.28 295.687 193.28ZM305.97 199L304.31 197.62L314.53 185.5L316.19 186.88L305.97 199ZM301.87 189.04C301.87 187.987 302.223 187.093 302.93 186.36C303.623 185.64 304.503 185.28 305.57 185.28C306.637 185.28 307.517 185.64 308.21 186.36C308.917 187.093 309.27 187.987 309.27 189.04C309.27 190.107 308.917 191.007 308.21 191.74C307.503 192.447 306.623 192.8 305.57 192.8C304.517 192.8 303.637 192.447 302.93 191.74C302.223 191.007 301.87 190.107 301.87 189.04ZM305.57 190.24C305.917 190.24 306.203 190.127 306.43 189.9C306.657 189.673 306.77 189.387 306.77 189.04C306.77 188.52 306.523 188.16 306.03 187.96C305.537 187.747 305.097 187.827 304.71 188.2C304.483 188.453 304.37 188.733 304.37 189.04C304.37 189.347 304.483 189.633 304.71 189.9C304.95 190.153 305.237 190.267 305.57 190.24ZM311.17 195.46C311.17 194.407 311.523 193.513 312.23 192.78C312.937 192.06 313.817 191.7 314.87 191.7C315.923 191.7 316.797 192.06 317.49 192.78C318.197 193.513 318.55 194.407 318.55 195.46C318.55 196.527 318.197 197.427 317.49 198.16C316.783 198.867 315.91 199.22 314.87 199.22C313.817 199.22 312.937 198.867 312.23 198.16C311.523 197.427 311.17 196.527 311.17 195.46ZM314.01 194.62C313.783 194.847 313.67 195.127 313.67 195.46C313.67 195.793 313.783 196.08 314.01 196.32C314.25 196.547 314.537 196.66 314.87 196.66C315.203 196.66 315.483 196.547 315.71 196.32C315.937 196.08 316.05 195.793 316.05 195.46C316.05 195.127 315.937 194.847 315.71 194.62C315.483 194.38 315.203 194.26 314.87 194.26C314.537 194.26 314.25 194.38 314.01 194.62ZM322.408 190.26L320.768 191.68L319.608 189.66L321.648 188.94L319.608 188.24L320.768 186.2L322.408 187.62L322.008 185.5H324.348L323.928 187.62L325.568 186.2L326.748 188.24L324.708 188.94L326.748 189.66L325.568 191.68L323.928 190.26L324.348 192.38H322.008L322.408 190.26Z" fill="#3B4077"/>
<path d="M0 248C0 243.582 3.58172 240 8 240H616C620.418 240 624 243.582 624 248V296C624 300.418 620.418 304 616 304H7.99998C3.5817 304 0 300.418 0 296V248Z" fill="#04AD6C"/>
<path d="M31.9974 258.666C39.3707 258.666 45.3307 264.64 45.3307 271.999C45.3307 279.36 39.3707 285.332 31.9974 285.332C24.6374 285.332 18.6641 279.36 18.6641 271.999C18.6641 264.64 24.6374 258.666 31.9974 258.666ZM31.9974 275.907C31.3574 275.907 30.8374 276.427 30.8374 277.067C30.8374 277.707 31.3574 278.24 32.0107 278.24C32.6507 278.24 33.1707 277.707 33.1707 277.067C33.1707 276.427 32.6507 275.907 31.9974 275.907ZM31.9974 265.772C31.3574 265.772 30.8241 266.307 30.8241 266.946V272.839C30.8241 273.48 31.3574 273.999 31.9974 273.999C32.6374 273.999 33.1574 273.48 33.1574 272.839V266.946C33.1574 266.307 32.6374 265.772 31.9974 265.772Z" fill="white"/>
<path d="M56.78 265.5H66.94V268.56H60.1V270.68H65.8V273.72H60.1V275.96H67.04V279H56.78V265.5ZM72.4639 272.12L67.7839 265.5H71.7439L74.4439 269.32L77.1439 265.5H81.0839L76.4039 272.12L81.2839 279H77.3239L74.4439 274.9L71.5439 279H67.6039L72.4639 272.12ZM81.7511 265.5H93.0111V268.56H89.0311V279H85.7111V268.56H81.7511V265.5ZM94.1628 265.5H100.543C101.969 265.5 103.149 265.947 104.083 266.84C105.043 267.72 105.523 268.82 105.523 270.14C105.523 270.98 105.309 271.753 104.883 272.46C104.469 273.167 103.903 273.72 103.183 274.12L106.003 279H102.303L99.8628 274.78H97.4828V279H94.1628V265.5ZM100.543 268.56H97.4828V271.74H100.543C100.983 271.74 101.349 271.587 101.643 271.28C101.936 270.973 102.083 270.593 102.083 270.14C102.083 269.687 101.936 269.313 101.643 269.02C101.349 268.713 100.983 268.56 100.543 268.56ZM109.892 279H106.432L112.052 265.5H114.792L120.432 279H116.972L116.112 276.88H110.752L109.892 279ZM113.452 270.22L111.932 273.94H114.932L113.452 270.22Z" fill="white"/>
<path d="M250.439 262.613C251.092 262.49 251.748 262.817 252.033 263.406C252.104 263.513 252.16 263.629 252.202 263.75C252.383 266.546 252.576 269.294 252.757 272.043C252.753 272.328 252.798 272.613 252.89 272.884C253.107 273.417 253.646 273.755 254.23 273.725L263.105 273.156L263.166 273.18L263.328 273.191C263.648 273.233 263.947 273.379 264.175 273.609C264.439 273.878 264.585 274.239 264.578 274.613C264.229 279.709 260.492 283.967 255.408 285.064C250.323 286.161 245.111 283.834 242.614 279.352C241.88 278.061 241.416 276.639 241.25 275.17C241.185 274.735 241.157 274.295 241.165 273.855C241.182 268.436 245.04 263.759 250.439 262.613ZM255.715 258.668C261.81 258.85 266.903 263.274 267.826 269.188C267.832 269.223 267.832 269.259 267.826 269.294L267.825 269.461C267.805 269.682 267.714 269.892 267.564 270.061C267.375 270.272 267.109 270.401 266.824 270.42L256.585 271.095L256.416 271.098C256.137 271.085 255.869 270.976 255.66 270.788C255.409 270.562 255.267 270.244 255.269 269.91L254.58 259.852V259.687C254.593 259.404 254.72 259.137 254.933 258.946C255.145 258.755 255.427 258.655 255.715 258.668Z" fill="white"/>
<path d="M285.6 279V276.58H279V273.54L285.74 265.5H288.78V273.54H290.3V276.58H288.78V279H285.6ZM285.6 270.18L282.8 273.54H285.6V270.18ZM296.527 279.22C295.033 279.22 293.78 278.827 292.767 278.04C291.78 277.253 291.287 276.273 291.287 275.1C291.287 273.833 291.847 272.8 292.967 272C292.02 271.253 291.547 270.313 291.547 269.18C291.547 268.087 292.02 267.167 292.967 266.42C293.9 265.66 295.087 265.28 296.527 265.28C297.94 265.28 299.113 265.66 300.047 266.42C300.993 267.167 301.467 268.093 301.467 269.2C301.467 270.32 300.993 271.253 300.047 272C301.18 272.813 301.747 273.853 301.747 275.12C301.747 276.293 301.247 277.273 300.247 278.06C299.273 278.833 298.033 279.22 296.527 279.22ZM296.527 276.16C297.073 276.16 297.527 276.04 297.887 275.8C298.247 275.547 298.427 275.227 298.427 274.84C298.427 274.453 298.247 274.133 297.887 273.88C297.527 273.627 297.073 273.5 296.527 273.5C295.967 273.5 295.5 273.627 295.127 273.88C294.767 274.133 294.587 274.447 294.587 274.82C294.587 275.193 294.767 275.513 295.127 275.78C295.5 276.033 295.967 276.16 296.527 276.16ZM294.867 269.44C294.867 269.773 295.02 270.047 295.327 270.26C295.647 270.473 296.047 270.58 296.527 270.58C296.993 270.58 297.38 270.473 297.687 270.26C297.993 270.047 298.147 269.773 298.147 269.44C298.147 269.12 297.993 268.853 297.687 268.64C297.38 268.427 296.993 268.32 296.527 268.32C296.047 268.32 295.647 268.433 295.327 268.66C295.02 268.873 294.867 269.133 294.867 269.44ZM306.849 279L305.189 277.62L315.409 265.5L317.069 266.88L306.849 279ZM302.749 269.04C302.749 267.987 303.102 267.093 303.809 266.36C304.502 265.64 305.382 265.28 306.449 265.28C307.516 265.28 308.396 265.64 309.089 266.36C309.796 267.093 310.149 267.987 310.149 269.04C310.149 270.107 309.796 271.007 309.089 271.74C308.382 272.447 307.502 272.8 306.449 272.8C305.396 272.8 304.516 272.447 303.809 271.74C303.102 271.007 302.749 270.107 302.749 269.04ZM306.449 270.24C306.796 270.24 307.082 270.127 307.309 269.9C307.536 269.673 307.649 269.387 307.649 269.04C307.649 268.52 307.402 268.16 306.909 267.96C306.416 267.747 305.976 267.827 305.589 268.2C305.362 268.453 305.249 268.733 305.249 269.04C305.249 269.347 305.362 269.633 305.589 269.9C305.829 270.153 306.116 270.267 306.449 270.24ZM312.049 275.46C312.049 274.407 312.402 273.513 313.109 272.78C313.816 272.06 314.696 271.7 315.749 271.7C316.802 271.7 317.676 272.06 318.369 272.78C319.076 273.513 319.429 274.407 319.429 275.46C319.429 276.527 319.076 277.427 318.369 278.16C317.662 278.867 316.789 279.22 315.749 279.22C314.696 279.22 313.816 278.867 313.109 278.16C312.402 277.427 312.049 276.527 312.049 275.46ZM314.889 274.62C314.662 274.847 314.549 275.127 314.549 275.46C314.549 275.793 314.662 276.08 314.889 276.32C315.129 276.547 315.416 276.66 315.749 276.66C316.082 276.66 316.362 276.547 316.589 276.32C316.816 276.08 316.929 275.793 316.929 275.46C316.929 275.127 316.816 274.847 316.589 274.62C316.362 274.38 316.082 274.26 315.749 274.26C315.416 274.26 315.129 274.38 314.889 274.62ZM323.287 270.26L321.647 271.68L320.487 269.66L322.527 268.94L320.487 268.24L321.647 266.2L323.287 267.62L322.887 265.5H325.227L324.807 267.62L326.447 266.2L327.627 268.24L325.587 268.94L327.627 269.66L326.447 271.68L324.807 270.26L325.227 272.38H322.887L323.287 270.26Z" fill="white"/>
</svg>
