<svg width="19" height="18" viewBox="0 0 19 18" fill="none" xmlns="http://www.w3.org/2000/svg">
<path d="M17.7824 5.71765L15.5501 11.5412V15.6706H2.25768V4.42059H8.47263L12.9119 2.09118H0V18H17.7824V5.71765Z" fill="#01A0C6"/>
<path d="M19 0.0794118L14.992 9.42353L13.4446 7.01471L19 0.0794118Z" fill="#01A0C6"/>
<path d="M18.9239 0L10.7303 4.57941L12.8358 6.32647L18.9239 0Z" fill="#01A0C6"/>
<path d="M7.81308 14.5588C8.16822 14.1353 8.24433 13.5265 7.99065 13.05L12.9626 7.41177L12.5314 6.90882L7.58478 12.5471C7.15354 12.2824 6.62082 12.3618 6.24032 12.7588C5.80908 13.2618 5.80908 14.0559 6.24032 14.5588C6.67156 15.0618 7.38184 15.0618 7.81308 14.5588ZM6.67156 13.2618C6.8745 13.05 7.1789 13.05 7.38184 13.2618C7.58478 13.4735 7.58478 13.8441 7.38184 14.0824C7.1789 14.2941 6.8745 14.2941 6.67156 14.0824C6.46862 13.8441 6.46862 13.4735 6.67156 13.2618Z" fill="#01A0C6"/>
<path d="M8.16822 8.86765C7.73698 8.60294 7.20427 8.68235 6.82376 9.07941C6.39252 9.58235 6.39252 10.3765 6.82376 10.8794C7.25501 11.3824 7.96529 11.3824 8.39653 10.8794C8.75167 10.4559 8.82777 9.84706 8.5741 9.37059L11.6182 5.92941L11.1869 5.42647L8.16822 8.86765ZM7.99065 10.3765C7.78772 10.5882 7.48331 10.5882 7.28037 10.3765C7.07744 10.1647 7.07744 9.79412 7.28037 9.55588C7.48331 9.31765 7.78772 9.34412 7.99065 9.55588C8.16822 9.79412 8.16822 10.1647 7.99065 10.3765Z" fill="#01A0C6"/>
<path d="M10.8064 11.8588C10.3752 11.5941 9.84246 11.6735 9.46195 12.0706C9.03071 12.5735 9.03071 13.3676 9.46195 13.8706C9.89319 14.3735 10.6035 14.3735 11.0347 13.8706C11.3899 13.4471 11.466 12.8382 11.2123 12.3618L14.2563 8.92059L13.8251 8.41765L10.8064 11.8588ZM10.6035 13.3676C10.4005 13.5794 10.0961 13.5794 9.89319 13.3676C9.69025 13.1559 9.69025 12.7853 9.89319 12.5471C10.0961 12.3353 10.4005 12.3353 10.6035 12.5471C10.8064 12.7853 10.8064 13.1559 10.6035 13.3676Z" fill="#01A0C6"/>
</svg>
