<svg width="136" height="77" viewBox="0 0 136 77" fill="none" xmlns="http://www.w3.org/2000/svg">
<path d="M0 76.6393V58.2459H4.43935V76.6393H0Z" fill="#01A0C6"/>
<path d="M10.3185 76.6393V61.8525H6.59903V58.2459H18.4773V61.8525H14.7578V76.6393H10.3185Z" fill="#01A0C6"/>
<path d="M20.9369 76.6393V58.1858H26.0962C27.056 58.1858 28.0159 58.2459 28.8558 58.4262C29.7556 58.6066 30.5355 59.0273 31.2554 59.6885C31.9753 60.4098 32.3352 61.4317 32.3352 62.8743C32.3352 63.8361 32.0953 64.6776 31.6753 65.459C31.2554 66.1803 30.6555 66.6612 29.8156 66.9016C30.5355 67.082 31.1354 67.3825 31.6753 67.8033C32.2153 68.224 32.5752 68.765 32.8152 69.3661C33.0551 69.9672 33.2351 70.5683 33.2351 71.2295C33.2351 74.8361 31.1954 76.6393 27.116 76.6393H20.9369ZM26.3361 66C28.5558 66 29.6356 65.0383 29.6356 63.1749C29.6356 62.5137 29.3957 61.8525 28.9157 61.3115C28.4358 60.7705 27.5959 60.5301 26.2761 60.5301H23.5165V66H26.3361ZM23.5765 74.3552H26.8161C28.0159 74.3552 28.9157 74.1148 29.5757 73.6339C30.2356 73.153 30.5355 72.3716 30.5355 71.2295C30.5355 69.306 29.3357 68.2842 26.876 68.2842H23.5765V74.3552Z" fill="black"/>
<path d="M35.6348 67.4426C35.6348 66.2404 35.8747 65.0383 36.3547 63.8962C36.8346 62.7541 37.4945 61.7322 38.3944 60.7705C39.2942 59.8689 40.3141 59.1475 41.5739 58.6066C42.7737 58.0656 44.1535 57.8251 45.5933 57.8251C46.9731 57.8251 48.2929 58.0656 49.4927 58.6066C50.6925 59.1475 51.7724 59.8689 52.6123 60.7705C53.5121 61.6721 54.172 62.694 54.652 63.8361C55.1319 64.9781 55.3719 66.1803 55.3719 67.3825C55.3719 68.5847 55.1319 69.7869 54.652 70.929C54.172 72.071 53.5121 73.0929 52.6123 73.9945C51.7124 74.8962 50.6925 75.6175 49.4927 76.1585C48.2929 76.6994 46.9731 76.9399 45.5333 76.9399C44.0935 76.9399 42.7737 76.6994 41.5139 76.1585C40.3141 75.6175 39.2342 74.8962 38.3344 73.9945C37.4345 73.0929 36.7746 72.071 36.2947 70.929C35.8747 69.7869 35.6348 68.6448 35.6348 67.4426ZM38.3944 67.4426C38.3944 68.765 38.6943 69.9672 39.2942 71.0492C39.8941 72.1311 40.734 73.0328 41.8139 73.694C42.8937 74.3552 44.1535 74.6557 45.5333 74.6557C46.6131 74.6557 47.573 74.4754 48.4129 74.1148C49.3127 73.7541 50.0326 73.2131 50.6925 72.5519C51.2925 71.8907 51.7724 71.1093 52.1323 70.2076C52.4923 69.3661 52.6123 68.4044 52.6123 67.4426C52.6123 66.4809 52.4323 65.5191 52.1323 64.6776C51.7724 63.776 51.2925 62.9945 50.6925 62.3333C50.0926 61.6721 49.3127 61.1311 48.4129 60.7104C47.513 60.3497 46.5532 60.1093 45.5333 60.1093C44.5135 60.1093 43.4936 60.2896 42.6537 60.7104C41.7539 61.071 41.034 61.612 40.3741 62.3333C39.7742 62.9945 39.2942 63.776 38.9343 64.6776C38.5743 65.5792 38.3944 66.4809 38.3944 67.4426Z" fill="black"/>
<path d="M57.7115 67.4426C57.7115 66.2404 57.9515 65.0383 58.4314 63.8962C58.9113 62.7541 59.5712 61.7322 60.4711 60.7705C61.371 59.8689 62.3908 59.1475 63.6506 58.6066C64.8505 58.0656 66.2303 57.8251 67.6701 57.8251C69.0499 57.8251 70.3697 58.0656 71.5695 58.6066C72.7693 59.1475 73.8491 59.8689 74.689 60.7705C75.5889 61.6721 76.2488 62.694 76.7287 63.8361C77.2086 64.9781 77.4486 66.1803 77.4486 67.3825C77.4486 68.5847 77.2086 69.7869 76.7287 70.929C76.2488 72.071 75.5889 73.0929 74.689 73.9945C73.7892 74.8962 72.7693 75.6175 71.5695 76.1585C70.3697 76.6994 69.0498 76.9399 67.6101 76.9399C66.1703 76.9399 64.8505 76.6994 63.5906 76.1585C62.3908 75.6175 61.311 74.8962 60.4111 73.9945C59.5113 73.0929 58.8513 72.071 58.3714 70.929C57.9515 69.7869 57.7115 68.6448 57.7115 67.4426ZM60.4711 67.4426C60.4711 68.765 60.7711 69.9672 61.371 71.0492C61.9709 72.1311 62.8108 73.0328 63.8906 73.694C64.9704 74.3552 66.2303 74.6557 67.6101 74.6557C68.6899 74.6557 69.6498 74.4754 70.4896 74.1148C71.3895 73.7541 72.1094 73.2131 72.7693 72.5519C73.3692 71.8907 73.8491 71.1093 74.2091 70.2076C74.569 69.3661 74.689 68.4044 74.689 67.4426C74.689 66.4809 74.509 65.5191 74.2091 64.6776C73.8491 63.776 73.3692 62.9945 72.7693 62.3333C72.1694 61.6721 71.3895 61.1311 70.4896 60.7104C69.5898 60.3497 68.6299 60.1093 67.6101 60.1093C66.5902 60.1093 65.5704 60.2896 64.7305 60.7104C63.8306 61.071 63.1107 61.612 62.4508 62.3333C61.8509 62.9945 61.371 63.776 61.011 64.6776C60.6511 65.5792 60.4711 66.4809 60.4711 67.4426Z" fill="black"/>
<path d="M79.7883 75.2568L80.9281 73.0929C81.648 73.6339 82.4279 73.9945 83.2678 74.2951C84.1076 74.5956 84.9475 74.7158 85.7274 74.7158C86.7472 74.7158 87.5271 74.4754 88.067 73.9344C88.607 73.3934 88.8469 72.7924 88.8469 71.9508C88.8469 71.4098 88.727 70.929 88.487 70.5683C88.247 70.1475 87.9471 69.847 87.5871 69.5464C87.2272 69.2459 86.7473 68.9454 86.1473 68.7049C85.5474 68.4044 85.0075 68.1038 84.4076 67.8033C83.5677 67.3825 82.9078 66.9617 82.3679 66.541C81.828 66.1202 81.348 65.5792 80.9881 64.918C80.6281 64.2568 80.4482 63.4754 80.4482 62.6339C80.4482 62.0929 80.5682 61.5519 80.8081 60.9508C81.0481 60.4098 81.408 59.8689 81.888 59.388C82.3679 58.9071 82.9678 58.5464 83.6877 58.2459C84.4076 57.9454 85.3075 57.8251 86.2673 57.8251C87.8871 57.8251 89.3869 58.1257 90.8266 58.7869L89.6868 61.0109C88.667 60.4098 87.5271 60.1093 86.3273 60.1093C85.2475 60.1093 84.4676 60.3497 83.9876 60.8907C83.5077 61.3716 83.2678 61.9727 83.2678 62.5137C83.2678 63.0546 83.4477 63.5355 83.8077 64.0164C84.1676 64.4372 84.5876 64.7978 85.1275 65.1585C85.6674 65.459 86.3873 65.8798 87.2872 66.3005C88.187 66.7814 88.9669 67.2022 89.5668 67.6229C90.1667 68.0437 90.6467 68.5847 91.1266 69.306C91.5465 70.0273 91.7865 70.929 91.7865 72.0109C91.7865 73.0328 91.4865 73.9344 90.9466 74.6557C90.4067 75.4371 89.6868 75.9781 88.7269 76.3989C87.8271 76.8197 86.8072 77 85.7274 77C83.5677 77 81.648 76.3989 79.7883 75.2568Z" fill="black"/>
<path d="M98.4455 76.6393V60.5902H93.8262V58.2459H105.704V60.5902H101.085V76.6393H98.4455Z" fill="black"/>
<path d="M119.382 65.5191V67.8634H110.744V74.3552H119.382V76.6995H108.104V58.2459H119.382V60.5301H110.744V65.5191H119.382Z" fill="black"/>
<path d="M124.902 68.8852V76.6393H122.262V58.2459H128.621C129.761 58.2459 130.721 58.4262 131.621 58.847C132.521 59.2678 133.18 59.8689 133.72 60.6503C134.2 61.4317 134.5 62.3934 134.5 63.4754C134.5 64.5574 134.26 65.5191 133.78 66.3005C133.3 67.082 132.7 67.7432 131.861 68.1639C131.081 68.5847 130.181 68.8251 129.221 68.8852L136 76.6393H132.76L126.041 68.8852H124.902ZM124.902 60.5301V66.541H127.841C128.621 66.541 129.281 66.4208 129.881 66.2404C130.481 66 130.901 65.6995 131.261 65.2186C131.561 64.7377 131.741 64.1366 131.741 63.4754C131.741 61.5519 130.481 60.5902 127.901 60.5902H124.902V60.5301Z" fill="black"/>
<path d="M87.5871 12.9836L82.3079 26.2076V35.5847H50.8725V10.0383H65.5704L76.0688 4.74863H45.5333V40.8743H87.5871V12.9836Z" fill="#01A0C6"/>
<path d="M90.4667 0.180328L80.9881 21.3989L77.3286 15.929L90.4667 0.180328Z" fill="black"/>
<path d="M90.2867 0L70.9096 10.3989L75.8888 14.3661L90.2867 0Z" fill="black"/>
<path d="M64.0106 33.0601C64.8505 32.0984 65.0304 30.7158 64.4305 29.6339L76.1888 16.8306L75.1689 15.6885L63.4707 28.4918C62.4508 27.8907 61.191 28.071 60.2911 28.9727C59.2713 30.1148 59.2713 31.918 60.2911 33.0601C61.311 34.2022 62.9907 34.2022 64.0106 33.0601ZM61.311 30.1148C61.7909 29.6339 62.5108 29.6339 62.9907 30.1148C63.4707 30.5956 63.4707 31.4372 62.9907 31.9781C62.5108 32.459 61.7909 32.459 61.311 31.9781C60.8311 31.4372 60.8311 30.5956 61.311 30.1148Z" fill="black"/>
<path d="M64.8505 20.1366C63.8306 19.5355 62.5708 19.7158 61.6709 20.6175C60.6511 21.7596 60.6511 23.5628 61.6709 24.7049C62.6908 25.847 64.3705 25.847 65.3904 24.7049C66.2303 23.7432 66.4102 22.3607 65.8103 21.2787L73.0093 13.4645L71.9894 12.3224L64.8505 20.1366ZM64.4305 23.5628C63.9506 24.0437 63.2307 24.0437 62.7508 23.5628C62.2708 23.082 62.2708 22.2404 62.7508 21.6995C63.2307 21.1585 63.9506 21.2186 64.4305 21.6995C64.8505 22.2404 64.8505 23.082 64.4305 23.5628Z" fill="black"/>
<path d="M71.0895 26.929C70.0697 26.3279 68.8099 26.5082 67.91 27.4098C66.8902 28.5519 66.8902 30.3552 67.91 31.4973C68.9299 32.6393 70.6096 32.6393 71.6295 31.4973C72.4693 30.5355 72.6493 29.153 72.0494 28.071L79.2484 20.2568L78.2285 19.1148L71.0895 26.929ZM70.6096 30.3552C70.1297 30.8361 69.4098 30.8361 68.9299 30.3552C68.4499 29.8743 68.4499 29.0328 68.9299 28.4918C69.4098 28.0109 70.1297 28.0109 70.6096 28.4918C71.0895 29.0328 71.0895 29.8743 70.6096 30.3552Z" fill="black"/>
<path d="M76.3088 48.2678H59.4513V51.5137H76.3088V48.2678Z" fill="#01A0C6"/>
<path d="M63.0829 38.5017V49.682H66.1424V38.5017H63.0829Z" fill="#01A0C6"/>
<path d="M68.8244 38.484V49.6643H71.8839V38.484H68.8244Z" fill="#01A0C6"/>
</svg>
