<svg width="115" height="65" viewBox="0 0 115 65" fill="none" xmlns="http://www.w3.org/2000/svg">
<path d="M0 64.6955V49.1686H3.75386V64.6955H0Z" fill="#01A0C6"/>
<path d="M8.72519 64.6955V52.2131H5.58006V49.1686H15.6242V52.2131H12.479V64.6955H8.72519Z" fill="#01A0C6"/>
<path d="M17.704 64.6955V49.1179H22.0666C22.8783 49.1179 23.6899 49.1686 24.4001 49.3208C25.161 49.4731 25.8205 49.8283 26.4292 50.3864C27.0379 50.9953 27.3423 51.8579 27.3423 53.0757C27.3423 53.8876 27.1394 54.598 26.7843 55.2576C26.4292 55.8665 25.9219 56.2724 25.2117 56.4754C25.8205 56.6276 26.3277 56.8813 26.7843 57.2365C27.2408 57.5917 27.5452 58.0484 27.7481 58.5558C27.951 59.0632 28.1032 59.5706 28.1032 60.1288C28.1032 63.1733 26.3785 64.6955 22.929 64.6955H17.704ZM22.2695 55.7143C24.1465 55.7143 25.0596 54.9024 25.0596 53.3294C25.0596 52.7713 24.8566 52.2131 24.4508 51.7564C24.045 51.2998 23.3348 51.0968 22.2188 51.0968H19.8853V55.7143H22.2695ZM19.936 62.7674H22.6753C23.6899 62.7674 24.4508 62.5644 25.0088 62.1585C25.5668 61.7525 25.8205 61.0929 25.8205 60.1288C25.8205 58.5051 24.8059 57.6425 22.7261 57.6425H19.936V62.7674Z" fill="white"/>
<path d="M30.1323 56.9321C30.1323 55.9172 30.3352 54.9024 30.7411 53.9383C31.1469 52.9742 31.7049 52.1116 32.4658 51.2998C33.2267 50.5386 34.0891 49.9297 35.1544 49.4731C36.1689 49.0164 37.3357 48.8134 38.5532 48.8134C39.7199 48.8134 40.8359 49.0164 41.8505 49.4731C42.865 49.9297 43.7781 50.5386 44.4883 51.2998C45.2492 52.0609 45.8072 52.9235 46.2131 53.8876C46.6189 54.8517 46.8218 55.8665 46.8218 56.8813C46.8218 57.8962 46.6189 58.911 46.2131 59.8751C45.8072 60.8392 45.2492 61.7018 44.4883 62.4629C43.7274 63.224 42.865 63.8329 41.8505 64.2896C40.8359 64.7463 39.7199 64.9493 38.5024 64.9493C37.285 64.9493 36.1689 64.7463 35.1037 64.2896C34.0891 63.8329 33.176 63.224 32.4151 62.4629C31.6542 61.7018 31.0962 60.8392 30.6903 59.8751C30.3352 58.911 30.1323 57.9469 30.1323 56.9321ZM32.4658 56.9321C32.4658 58.0484 32.7195 59.0632 33.2267 59.9766C33.734 60.8899 34.4442 61.6511 35.3573 62.2092C36.2704 62.7674 37.3357 63.0211 38.5024 63.0211C39.4155 63.0211 40.2272 62.8689 40.9374 62.5644C41.6983 62.26 42.307 61.8033 42.865 61.2451C43.3723 60.687 43.7781 60.0273 44.0825 59.2662C44.3869 58.5558 44.4883 57.7439 44.4883 56.9321C44.4883 56.1202 44.3361 55.3084 44.0825 54.598C43.7781 53.8368 43.3723 53.1772 42.865 52.619C42.3577 52.0609 41.6983 51.6042 40.9374 51.249C40.1764 50.9446 39.3648 50.7416 38.5024 50.7416C37.6401 50.7416 36.7777 50.8938 36.0675 51.249C35.3066 51.5535 34.6978 52.0101 34.1398 52.619C33.6326 53.1772 33.2267 53.8368 32.9224 54.598C32.618 55.3591 32.4658 56.1202 32.4658 56.9321Z" fill="white"/>
<path d="M48.8002 56.9321C48.8002 55.9172 49.0031 54.9024 49.4089 53.9383C49.8147 52.9742 50.3727 52.1116 51.1337 51.2998C51.8946 50.5386 52.7569 49.9297 53.8222 49.4731C54.8368 49.0164 56.0035 48.8134 57.221 48.8134C58.3877 48.8134 59.5037 49.0164 60.5183 49.4731C61.5329 49.9297 62.446 50.5386 63.1562 51.2998C63.9171 52.0609 64.4751 52.9235 64.8809 53.8876C65.2867 54.8517 65.4896 55.8665 65.4896 56.8813C65.4896 57.8962 65.2867 58.911 64.8809 59.8751C64.4751 60.8392 63.9171 61.7018 63.1562 62.4629C62.3952 63.224 61.5329 63.8329 60.5183 64.2896C59.5037 64.7463 58.3877 64.9493 57.1703 64.9493C55.9528 64.9493 54.8368 64.7463 53.7715 64.2896C52.7569 63.8329 51.8438 63.224 51.0829 62.4629C50.322 61.7018 49.764 60.8392 49.3582 59.8751C49.0031 58.911 48.8002 57.9469 48.8002 56.9321ZM51.1337 56.9321C51.1337 58.0484 51.3873 59.0632 51.8946 59.9766C52.4019 60.8899 53.112 61.6511 54.0251 62.2092C54.9382 62.7674 56.0035 63.0211 57.1703 63.0211C58.0834 63.0211 58.895 62.8689 59.6052 62.5644C60.3661 62.26 60.9749 61.8033 61.5329 61.2451C62.0401 60.687 62.446 60.0273 62.7503 59.2662C63.0547 58.5558 63.1562 57.7439 63.1562 56.9321C63.1562 56.1202 63.004 55.3084 62.7503 54.598C62.446 53.8368 62.0401 53.1772 61.5329 52.619C61.0256 52.0609 60.3661 51.6042 59.6052 51.249C58.8443 50.9446 58.0326 50.7416 57.1703 50.7416C56.3079 50.7416 55.4455 50.8938 54.7353 51.249C53.9744 51.5535 53.3657 52.0101 52.8077 52.619C52.3004 53.1772 51.8946 53.8368 51.5902 54.598C51.2858 55.3591 51.1337 56.1202 51.1337 56.9321Z" fill="white"/>
<path d="M67.468 63.5285L68.4318 61.7018C69.0406 62.1585 69.7 62.4629 70.4102 62.7166C71.1204 62.9703 71.8306 63.0718 72.4901 63.0718C73.3524 63.0718 74.0119 62.8689 74.4685 62.4122C74.925 61.9555 75.1279 61.4481 75.1279 60.7377C75.1279 60.281 75.0265 59.8751 74.8236 59.5706C74.6206 59.2155 74.367 58.9617 74.0626 58.708C73.7583 58.4543 73.3525 58.2006 72.8452 57.9977C72.3379 57.7439 71.8813 57.4902 71.3741 57.2365C70.6639 56.8813 70.1059 56.5261 69.6493 56.171C69.1928 55.8158 68.7869 55.3591 68.4826 54.8009C68.1782 54.2428 68.026 53.5831 68.026 52.8728C68.026 52.4161 68.1275 51.9594 68.3304 51.452C68.5333 50.9953 68.8377 50.5386 69.2435 50.1327C69.6493 49.7268 70.1566 49.4223 70.7653 49.1686C71.3741 48.9149 72.135 48.8134 72.9466 48.8134C74.3163 48.8134 75.5845 49.0671 76.8019 49.6253L75.8381 51.5027C74.9757 50.9953 74.0119 50.7416 72.9974 50.7416C72.0843 50.7416 71.4248 50.9446 71.019 51.4012C70.6131 51.8072 70.4102 52.3146 70.4102 52.7713C70.4102 53.2279 70.5624 53.6339 70.8668 54.0398C71.1712 54.395 71.5262 54.6995 71.9828 55.0039C72.4393 55.2576 73.0481 55.6128 73.809 55.968C74.5699 56.3739 75.2294 56.7291 75.7367 57.0843C76.2439 57.4395 76.6497 57.8962 77.0556 58.5051C77.4107 59.114 77.6136 59.8751 77.6136 60.7884C77.6136 61.6511 77.3599 62.4122 76.9034 63.0211C76.4468 63.6807 75.8381 64.1374 75.0265 64.4926C74.2655 64.8478 73.4032 65 72.4901 65C70.6639 65 69.0406 64.4926 67.468 63.5285Z" fill="white"/>
<path d="M83.2444 64.6955V51.1475H79.3383V49.1686H89.3824V51.1475H85.4764V64.6955H83.2444Z" fill="white"/>
<path d="M100.948 55.3084V57.2873H93.6436V62.7674H100.948V64.7463H91.4116V49.1686H100.948V51.0968H93.6436V55.3084H100.948Z" fill="white"/>
<path d="M105.615 58.1499V64.6955H103.383V49.1686H108.76C109.724 49.1686 110.536 49.3208 111.297 49.676C112.058 50.0312 112.616 50.5386 113.072 51.1983C113.478 51.8579 113.732 52.6698 113.732 53.5831C113.732 54.4965 113.529 55.3084 113.123 55.968C112.717 56.6276 112.21 57.1858 111.5 57.541C110.84 57.8962 110.079 58.0991 109.268 58.1499L115 64.6955H112.261L106.579 58.1499H105.615ZM105.615 51.0968V56.171H108.101C108.76 56.171 109.318 56.0695 109.826 55.9172C110.333 55.7143 110.688 55.4606 110.993 55.0546C111.246 54.6487 111.398 54.1413 111.398 53.5831C111.398 51.9594 110.333 51.1475 108.152 51.1475H105.615V51.0968Z" fill="white"/>
<path d="M74.0626 10.9602L69.5986 22.1233V30.039H43.0172V8.47385H55.4455L64.3229 4.00859H38.5024V34.5043H74.0626V10.9602Z" fill="#01A0C6"/>
<path d="M76.4976 0.152225L68.4826 18.064L65.3882 13.4465L76.4976 0.152225Z" fill="white"/>
<path d="M76.3454 0L59.9603 8.7783L64.1707 12.1272L76.3454 0Z" fill="white"/>
<path d="M54.1266 27.9079C54.8368 27.096 54.989 25.929 54.4817 25.0156L64.4243 14.2077L63.562 13.2436L53.6701 24.0515C52.8077 23.5441 51.7424 23.6963 50.9815 24.4575C50.1191 25.4215 50.1191 26.9438 50.9815 27.9079C51.8438 28.872 53.2642 28.872 54.1266 27.9079ZM51.8438 25.4215C52.2497 25.0156 52.8584 25.0156 53.2642 25.4215C53.67 25.8275 53.67 26.5379 53.2642 26.9945C52.8584 27.4005 52.2497 27.4005 51.8438 26.9945C51.438 26.5379 51.438 25.8275 51.8438 25.4215Z" fill="white"/>
<path d="M54.8368 16.9984C53.9744 16.491 52.9091 16.6432 52.1482 17.4044C51.2858 18.3685 51.2858 19.8907 52.1482 20.8548C53.0106 21.8189 54.431 21.8189 55.2933 20.8548C56.0035 20.0429 56.1557 18.8759 55.6484 17.9625L61.7358 11.3661L60.8734 10.402L54.8368 16.9984ZM54.4817 19.8907C54.0759 20.2966 53.4671 20.2966 53.0613 19.8907C52.6555 19.4848 52.6555 18.7744 53.0613 18.3177C53.4671 17.861 54.0759 17.9118 54.4817 18.3177C54.8368 18.7744 54.8368 19.4848 54.4817 19.8907Z" fill="white"/>
<path d="M60.1125 22.7322C59.2501 22.2248 58.1848 22.377 57.4239 23.1382C56.5615 24.1023 56.5615 25.6245 57.4239 26.5886C58.2863 27.5527 59.7067 27.5527 60.569 26.5886C61.2792 25.7767 61.4314 24.6097 60.9241 23.6963L67.0115 17.0999L66.1491 16.1358L60.1125 22.7322ZM59.7067 25.6245C59.3008 26.0304 58.6921 26.0304 58.2863 25.6245C57.8805 25.2186 57.8805 24.5082 58.2863 24.0515C58.6921 23.6456 59.3008 23.6456 59.7067 24.0515C60.1125 24.5082 60.1125 25.2186 59.7067 25.6245Z" fill="white"/>
<path d="M64.5258 40.7455H50.2713V43.4856H64.5258V40.7455Z" fill="#01A0C6"/>
<path d="M53.3421 32.5014V41.9394H55.9293V32.5014H53.3421Z" fill="#01A0C6"/>
<path d="M58.1971 32.4865V41.9244H60.7842V32.4865H58.1971Z" fill="#01A0C6"/>
</svg>
