<svg width="50" height="50" viewBox="0 0 50 50" fill="none" xmlns="http://www.w3.org/2000/svg">
<path d="M28.3472 42.4969C28.3472 43.3445 28.3472 44.1365 28.3472 44.9979C28.5556 44.9979 28.7361 44.9979 28.9167 44.9979C30.3333 44.9979 31.7639 44.9979 33.1806 44.9979C33.8333 44.9979 34.1389 45.3036 34.1528 45.9567C34.1667 46.9849 34.1667 47.9992 34.1528 49.0274C34.1528 49.6804 33.8472 50 33.1944 50C27.7222 50 22.2639 50 16.7917 50C16.1389 50 15.8333 49.6943 15.8194 49.0413C15.8056 48.0131 15.8056 46.9988 15.8194 45.9705C15.8194 45.3036 16.1389 44.9979 16.8194 44.9979C18.4028 44.9979 19.9722 44.9979 21.5972 44.9979C21.5972 44.1781 21.5972 43.3722 21.5972 42.4969C21.4167 42.4969 21.2083 42.4969 21.0139 42.4969C14.9583 42.4969 8.90278 42.4969 2.83333 42.4969C0.986111 42.4969 0 41.5104 0 39.6485C0 30.9782 0 22.3218 0 13.6516C0 11.8175 0.986111 10.8171 2.83333 10.8171C3.26389 10.8171 3.69444 10.8171 4.16667 10.8171C4.16667 10.5808 4.16667 10.4002 4.16667 10.2057C4.16667 7.99643 4.16667 5.80108 4.16667 3.59182C4.16667 2.75814 4.44444 2.48025 5.23611 2.48025C10.6389 2.48025 16.0278 2.48025 21.4306 2.48025C22.2083 2.48025 22.4861 2.77204 22.4861 3.55014C22.4861 5.94002 22.4861 8.3438 22.4861 10.7754C24.1528 10.7754 25.7917 10.7754 27.4583 10.7754C27.4583 10.5253 27.4583 10.2752 27.4583 9.98337C26.9583 9.98337 26.4722 9.98337 26 9.98337C25.3056 9.96948 25 9.67769 25 9.01074C24.9861 7.98254 24.9861 6.96823 25 5.94002C25 5.30087 25.3194 4.99519 25.9722 4.98129C26.4583 4.9674 26.9444 4.98129 27.5 4.98129C27.5 4.73119 27.5 4.52277 27.5 4.30045C27.5139 3.61961 27.8056 3.31393 28.4861 3.31393C30.0972 3.31393 31.7222 3.32783 33.3333 3.30004C33.8472 3.28614 34.3611 3.20277 34.8611 3.04993C38.0417 2.0912 41.2222 1.09079 44.4028 0.118159C45.4167 -0.201418 45.8333 0.118159 45.8333 1.18805C45.8333 2.43857 45.8333 3.67519 45.8333 4.99519C46.9028 4.92571 47.8889 5.03687 48.5972 5.91223C48.9861 6.39855 49.1806 6.96823 49.1667 7.60738C49.1111 9.1219 48.125 9.84442 45.875 10.0251C45.875 10.2752 45.875 10.5114 45.875 10.8309C46.375 10.8309 46.875 10.8309 47.3611 10.8309C48.9306 10.8448 50 11.8869 50 13.4431C50 22.2663 50 31.0894 50 39.9125C50 41.4548 48.9306 42.5108 47.3611 42.5108C41.25 42.5108 35.1389 42.5108 29.0278 42.5108C28.8194 42.4969 28.6111 42.4969 28.3472 42.4969ZM48.3333 37.467C48.3333 37.2725 48.3333 37.1196 48.3333 36.9668C48.3333 29.1858 48.3333 21.4048 48.3333 13.6238C48.3333 13.4848 48.375 13.3042 48.3194 13.2208C48.125 12.9568 47.9167 12.5817 47.6528 12.5261C47.0694 12.4288 46.4583 12.4983 45.8333 12.4983C45.8333 12.9568 45.8333 13.3459 45.8333 13.7488C45.8333 14.8604 45.4306 15.1522 44.375 14.8326C41.0833 13.8183 37.7778 12.7901 34.4861 11.7897C34.0972 11.6785 33.6806 11.6646 33.2639 11.609C33.2083 11.873 33.1667 12.0537 33.1389 12.2482C32.9306 13.6932 32.7222 15.1383 32.5139 16.5694C32.4167 17.2642 32.1528 17.4865 31.4444 17.4865C30.8194 17.4865 30.1944 17.4865 29.5694 17.4865C28.5694 17.4865 28.3333 17.2503 28.3333 16.2638C28.3333 15.0132 28.3333 13.7766 28.3333 12.5122C26.3611 12.5122 24.4444 12.5122 22.5 12.5122C22.5 13.86 22.5 15.18 22.5 16.5C22.5 17.1808 22.1944 17.4865 21.5139 17.4865C16.0694 17.4865 10.6111 17.4865 5.16667 17.4865C4.48611 17.4865 4.18056 17.1808 4.18056 16.5C4.18056 15.3328 4.18056 14.1796 4.18056 13.0124C4.18056 12.8457 4.18056 12.6789 4.18056 12.4983C3.70833 12.4983 3.30556 12.4983 2.90278 12.4983C1.90278 12.4983 1.68056 12.7345 1.68056 13.721C1.68056 21.4465 1.68056 29.1719 1.68056 36.9112C1.68056 37.0919 1.68056 37.2864 1.68056 37.4948C17.2361 37.467 32.75 37.467 48.3333 37.467ZM5.875 4.1754C5.875 8.0798 5.875 11.9425 5.875 15.7774C10.875 15.7774 15.8472 15.7774 20.8056 15.7774C20.8056 11.8869 20.8056 8.03812 20.8056 4.1754C15.8194 4.1754 10.8611 4.1754 5.875 4.1754ZM1.69444 39.19C1.61111 40.6489 1.77778 40.8295 3.15278 40.8295C17.7639 40.8295 32.375 40.8295 46.9861 40.8295C47.1806 40.8295 47.375 40.8434 47.5556 40.8156C47.9583 40.7739 48.25 40.5377 48.3056 40.1348C48.3611 39.8152 48.3194 39.4956 48.3194 39.1761C32.75 39.19 17.2361 39.19 1.69444 39.19ZM44.1389 2.00783C44.0833 2.00783 44.0417 1.99394 44.0139 1.99394C41.0972 2.8832 38.1806 3.78635 35.2778 4.6895C35.1528 4.73119 35.0139 4.98129 35.0139 5.13413C35 6.67644 35.0139 8.21875 35 9.77495C35 10.1223 35.125 10.2335 35.4444 10.3307C36.875 10.7476 38.2917 11.2061 39.7222 11.6507C41.1944 12.1093 42.6667 12.5539 44.1667 13.0124C44.1389 9.31643 44.1389 5.66213 44.1389 2.00783ZM17.5417 46.6792C17.5417 47.2628 17.5417 47.7907 17.5417 48.3049C22.5417 48.3049 27.5 48.3049 32.4722 48.3049C32.4722 47.7491 32.4722 47.2211 32.4722 46.6792C27.4861 46.6792 22.5278 46.6792 17.5417 46.6792ZM29.2083 5.00908C29.2083 6.69034 29.2083 8.32991 29.2083 9.94169C30.5972 9.94169 31.9583 9.94169 33.3056 9.94169C33.3056 8.27433 33.3056 6.64865 33.3056 5.00908C31.9306 5.00908 30.5833 5.00908 29.2083 5.00908ZM23.3611 44.9562C24.4861 44.9562 25.5694 44.9562 26.625 44.9562C26.625 44.1087 26.625 43.3167 26.625 42.5247C25.5139 42.5247 24.4444 42.5247 23.3611 42.5247C23.3611 43.3445 23.3611 44.1365 23.3611 44.9562ZM30.9444 15.8052C31.1389 14.4158 31.3333 13.0541 31.5417 11.6924C31.0278 11.6924 30.5278 11.6924 30.0417 11.6924C30.0417 13.0819 30.0417 14.4436 30.0417 15.8052C30.3472 15.8052 30.6111 15.8052 30.9444 15.8052ZM45.8472 8.32991C46.4167 8.27433 47.0556 8.52443 47.3611 7.88528C47.4722 7.64907 47.4444 7.24612 47.3194 7.02381C46.9722 6.46802 46.3889 6.67644 45.8472 6.67644C45.8472 7.21833 45.8472 7.73244 45.8472 8.32991ZM27.4583 8.31601C27.4583 7.77412 27.4583 7.23223 27.4583 6.69033C27.1806 6.69033 26.9444 6.69033 26.7083 6.69033C26.7083 7.26002 26.7083 7.77412 26.7083 8.31601C26.9722 8.31601 27.1944 8.31601 27.4583 8.31601Z" fill="#01A0C6"/>
<path d="M15 35.8274C11.5 35.8274 7.98611 35.8274 4.48611 35.8274C3.59722 35.8274 3.34722 35.5634 3.34722 34.6742C3.34722 30.4363 3.34722 26.1984 3.34722 21.9606C3.34722 21.0713 3.61111 20.8212 4.5 20.8212C11.5139 20.8212 18.5278 20.8212 25.5417 20.8212C26.4306 20.8212 26.6806 21.0852 26.6806 21.9606C26.6806 26.1984 26.6806 30.4363 26.6806 34.6742C26.6806 35.5634 26.4167 35.8135 25.5278 35.8135C22.0139 35.8274 18.5 35.8274 15 35.8274ZM24.9861 23.1833C24.7639 23.3084 24.6111 23.3917 24.4722 23.4751C21.5972 25.2536 18.7083 27.0043 15.8472 28.8106C15.25 29.1858 14.7917 29.1997 14.1944 28.8245C11.3194 27.0182 8.41667 25.2536 5.52778 23.4612C5.38889 23.3778 5.23611 23.2945 5.05556 23.1972C5.05556 26.8793 5.05556 30.5058 5.05556 34.1184C11.7222 34.1184 18.3611 34.1184 25 34.1184C24.9861 30.478 24.9861 26.8654 24.9861 23.1833ZM22.8194 22.5303C17.5694 22.5303 12.4444 22.5303 7.19444 22.5303C9.77778 24.1142 12.25 25.6565 14.75 27.1572C14.9028 27.2544 15.2222 27.1989 15.3889 27.1016C16.7778 26.2818 18.1389 25.4203 19.5139 24.5728C20.5694 23.9197 21.6389 23.2528 22.8194 22.5303Z" fill="#01A0C6"/>
<path d="M45 22.4747C45.1389 22.4886 45.2222 22.4886 45.3194 22.4886C46.5278 22.5164 46.6667 22.6692 46.6667 23.8919C46.6667 26.9349 46.6667 29.9639 46.6667 33.0068C46.6667 33.8961 46.4028 34.1601 45.5278 34.1601C41 34.1601 36.4722 34.1601 31.9444 34.1601C31.0972 34.1601 30.8333 33.8822 30.8333 33.0346C30.8333 32.326 30.8333 31.6174 30.8333 30.8254C30.3056 30.8254 29.8194 30.8254 29.3194 30.8254C28.6389 30.8115 28.3333 30.5197 28.3333 29.8388C28.3333 26.6153 28.3333 23.3778 28.3333 20.1543C28.3333 19.4734 28.6389 19.1677 29.3194 19.1677C34.2083 19.1677 39.1111 19.1677 44 19.1677C44.7083 19.1677 45 19.4734 45 20.1959C45 20.9324 45 21.6688 45 22.4747ZM44.9722 24.1976C40.7917 24.1976 36.6528 24.1976 32.5417 24.1976C32.5417 26.9904 32.5417 29.7277 32.5417 32.4649C36.7083 32.4649 40.8333 32.4649 44.9722 32.4649C44.9722 29.6999 44.9722 26.9626 44.9722 24.1976ZM30.8333 29.1302C30.8333 27.2683 30.8333 25.4481 30.8333 23.6279C30.8333 22.7387 31.0972 22.4747 31.9722 22.4747C35.5694 22.4747 39.1528 22.4747 42.75 22.4747C42.9306 22.4747 43.125 22.4747 43.3056 22.4747C43.3056 21.8772 43.3056 21.3631 43.3056 20.849C38.8611 20.849 34.4444 20.849 30.0417 20.849C30.0417 23.6279 30.0417 26.3652 30.0417 29.1163C30.2917 29.1302 30.5278 29.1302 30.8333 29.1302Z" fill="#01A0C6"/>
<path d="M11.75 6.64865C11.8472 6.69033 12.0278 6.73202 12.1944 6.81539C13.75 7.57959 15.2917 8.37159 16.8472 9.1358C17.2083 9.31643 17.5 9.55264 17.4861 9.99726C17.4722 10.4141 17.2083 10.6364 16.8611 10.8171C15.3056 11.5952 13.7639 12.3733 12.2083 13.1375C11.4028 13.5404 10.8333 13.1791 10.8333 12.276C10.8333 10.7337 10.8333 9.19137 10.8333 7.63517C10.8333 7.0377 11.1667 6.66255 11.75 6.64865ZM12.5139 11.1366C13.2917 10.7476 13.9861 10.3863 14.7917 9.98337C13.9861 9.58043 13.2639 9.21916 12.5139 8.84401C12.5139 9.636 12.5139 10.3446 12.5139 11.1366Z" fill="#01A0C6"/>
<path d="M43.3056 25.865C43.3056 26.4208 43.3056 26.9349 43.3056 27.4768C41.375 27.4768 39.4722 27.4768 37.5417 27.4768C37.5417 26.9626 37.5417 26.4347 37.5417 25.865C39.4444 25.865 41.3611 25.865 43.3056 25.865Z" fill="#01A0C6"/>
<path d="M39.1944 30.7976C39.1944 30.2418 39.1944 29.7416 39.1944 29.1997C40.5694 29.1997 41.9028 29.1997 43.2917 29.1997C43.2917 29.7138 43.2917 30.2418 43.2917 30.7976C41.9444 30.7976 40.5972 30.7976 39.1944 30.7976Z" fill="#01A0C6"/>
<path d="M37.4722 29.1997C37.4722 29.7555 37.4722 30.2696 37.4722 30.7976C36.375 30.7976 35.3194 30.7976 34.2083 30.7976C34.2083 30.2835 34.2083 29.7555 34.2083 29.1997C35.2778 29.1997 36.3611 29.1997 37.4722 29.1997Z" fill="#01A0C6"/>
<path d="M35.8056 27.4768C35.2639 27.4768 34.75 27.4768 34.2083 27.4768C34.2083 26.9488 34.2083 26.4208 34.2083 25.865C34.7361 25.865 35.2639 25.865 35.8056 25.865C35.8056 26.3791 35.8056 26.8932 35.8056 27.4768Z" fill="#01A0C6"/>
</svg>
