<svg width="49" height="53" viewBox="0 0 49 53" fill="none" xmlns="http://www.w3.org/2000/svg">
<path d="M36.4251 0C36.8548 0.29932 37.0124 0.712666 36.9694 1.24004C36.9408 1.66764 36.9694 2.09524 36.9551 2.52284C36.9408 3.06447 36.5826 3.4208 36.0956 3.4208C35.6085 3.4208 35.2504 3.06447 35.2361 2.52284C35.2217 1.99547 35.1645 1.43959 35.2504 0.926466C35.3077 0.59864 35.5799 0.313573 35.7661 0.0142533C35.9953 0 36.2102 0 36.4251 0Z" fill="#01A0C6"/>
<path d="M36.1815 43.7577C27.7441 49.3023 17.0289 44.5844 15.0091 35.9184C14.1066 35.9184 13.1898 35.9184 12.2873 35.9184C11.4851 35.9184 11.1843 35.6333 11.1843 34.8209C11.1843 34.1082 11.1986 33.3955 11.17 32.6829C11.17 32.5403 10.9837 32.3265 10.8405 32.2695C9.95234 31.8847 9.06418 31.5284 8.1617 31.2005C8.00413 31.1435 7.74628 31.172 7.63168 31.2718C7.04435 31.8134 6.48567 32.3978 5.91267 32.9537C5.38264 33.4811 4.96722 33.4811 4.43719 32.9537C3.66363 32.184 2.89008 31.4286 2.11653 30.6447C1.5865 30.1173 1.60083 29.7039 2.11653 29.1766C2.67521 28.6064 3.26253 28.0505 3.80689 27.4662C3.90716 27.3521 3.93581 27.0956 3.87851 26.9388C3.54903 26.0408 3.19091 25.1571 2.80413 24.2734C2.74683 24.1309 2.54628 23.9598 2.3887 23.9456C1.91598 23.9028 1.42893 23.9456 0.941873 23.9313C0.34022 23.9171 0.0107438 23.6035 0.0107438 23.0049C-0.00358127 21.9216 -0.00358127 20.8384 0.0107438 19.7409C0.0107438 19.1422 0.34022 18.8286 0.941873 18.8144C1.42893 18.8001 1.91598 18.8429 2.3887 18.8001C2.53196 18.7859 2.73251 18.6148 2.80413 18.4723C3.19091 17.5886 3.54903 16.7049 3.87851 15.8069C3.93581 15.6644 3.90716 15.3936 3.80689 15.2796C3.26253 14.6952 2.67521 14.1393 2.11653 13.5692C1.60083 13.0418 1.5865 12.6284 2.11653 12.1011C2.89008 11.3314 3.64931 10.5617 4.43719 9.79204C4.96722 9.27892 5.38264 9.27892 5.91267 9.79204C6.48567 10.3479 7.04435 10.9323 7.63168 11.4739C7.74628 11.5737 8.00413 11.6022 8.1617 11.5452C9.06418 11.2174 9.95234 10.861 10.8405 10.4762C10.9837 10.4192 11.1556 10.2054 11.17 10.0628C11.1986 9.32168 11.1843 8.56625 11.1843 7.82508C11.1986 7.15517 11.5138 6.8416 12.1727 6.8416C13.2328 6.82734 14.2785 6.82734 15.3386 6.8416C16.0118 6.8416 16.327 7.16942 16.327 7.82508C16.3413 8.68028 16.327 9.53548 16.327 10.2766C17.4157 10.747 18.4328 11.1889 19.4499 11.6022C19.5645 11.645 19.7793 11.5737 19.8939 11.4739C20.4813 10.918 21.0399 10.3479 21.6129 9.77778C22.143 9.26466 22.5584 9.26466 23.0884 9.77778C23.862 10.5475 24.6355 11.3029 25.4091 12.0868C25.9248 12.6142 25.9248 13.0275 25.3948 13.5549C24.8361 14.1108 24.2917 14.6667 23.7187 15.2226C23.5325 15.4078 23.4752 15.5361 23.6041 15.8069C24.0482 16.7619 24.435 17.7311 24.8934 18.8001C26.0824 18.8001 27.4003 18.7289 28.7182 18.8144C30.0361 18.8999 31.3253 19.1422 32.7578 19.3418C32.6432 18.7146 32.6003 18.0162 32.3854 17.3748C31.7837 15.6216 31.1534 13.8827 30.4658 12.1723C29.7639 10.4477 30.1793 8.87982 31.1105 7.41173C32.1132 5.82961 33.7176 5.21672 35.5083 5.14545C36.4251 5.10269 37.3848 5.18821 38.2587 5.41626C41.1667 6.17169 42.1408 8.66602 42.1121 11.0178C42.1121 11.4027 41.8972 11.8018 41.754 12.1866C41.1094 13.9255 40.4504 15.6502 39.8201 17.3891C39.6625 17.8452 39.5766 18.344 39.5622 18.8429C39.5193 19.6268 39.5622 20.4108 39.5479 21.1947C39.5479 21.8931 39.2328 22.2067 38.5308 22.2209C38.23 22.2209 37.9292 22.2209 37.5997 22.2209C42.7997 27.68 43.5303 33.6379 39.7771 40.2942C40.0206 40.508 40.3501 40.7788 40.6509 41.0781C43.1435 43.5439 45.6217 46.0097 48.1 48.4756C48.8162 49.1882 49.1744 50.0292 48.9165 51.0412C48.4438 52.9084 46.2234 53.621 44.7479 52.381C44.576 52.2242 44.4041 52.0674 44.2465 51.8964C41.6824 49.345 39.1038 46.7794 36.5397 44.2281C36.3964 44.0998 36.2961 43.9288 36.1815 43.7577ZM12.889 8.56625C12.889 9.37869 12.889 10.1341 12.889 10.9038C12.889 11.6165 12.6884 11.8588 11.9865 12.0013C10.7116 12.2579 9.52258 12.714 8.41956 13.4124C7.7606 13.8257 7.4741 13.7972 6.91542 13.2413C6.34242 12.6712 5.76942 12.0868 5.28237 11.588C4.78099 12.0726 4.33691 12.5002 3.86419 12.942C4.43719 13.4979 5.03884 14.0823 5.62617 14.6667C6.08457 15.1228 6.12755 15.4506 5.78374 15.9922C5.05317 17.1325 4.56611 18.3583 4.29394 19.6838C4.17934 20.2967 3.89284 20.5248 3.24821 20.5248C2.73251 20.5248 2.23113 20.5248 1.72975 20.5248C1.72975 21.1377 1.72975 21.6651 1.72975 22.1782C1.78705 22.2067 1.83003 22.2209 1.85868 22.2209C2.30275 22.2209 2.74683 22.2209 3.20523 22.2352C3.92149 22.2352 4.15069 22.4347 4.29394 23.1332C4.55179 24.4017 5.01019 25.5847 5.71212 26.6822C6.12755 27.3379 6.0989 27.6229 5.52589 28.1788C4.95289 28.749 4.36556 29.3191 3.86419 29.8037C4.33691 30.3026 4.76666 30.7587 5.21074 31.229C5.76942 30.6589 6.34242 30.0745 6.92975 29.4901C7.44545 28.977 7.74628 28.9485 8.34793 29.3333C9.42231 30.0175 10.597 30.4879 11.8576 30.7587C12.7028 30.9297 12.8603 31.1293 12.8603 31.9845C12.8603 32.7256 12.8603 33.4668 12.8603 34.1937C13.5193 34.1937 14.078 34.1937 14.6939 34.1937C14.3788 31.7422 14.7512 29.3904 15.6967 27.1098C11.3705 28.2358 8.44821 25.3709 7.86088 22.6628C7.1876 19.5271 9.07851 16.4341 12.187 15.6074C13.7055 15.2083 15.181 15.3508 16.5562 16.1063C18.7766 17.3178 19.765 19.2705 19.7937 21.6936C20.9397 21.0379 22.0427 20.3965 23.1887 19.7266C22.9881 18.4723 22.5011 17.2608 21.7992 16.1348C21.3408 15.4078 21.3694 15.1655 21.9854 14.5526C22.5584 13.9968 23.1171 13.4409 23.6041 12.9563C23.1314 12.4574 22.7016 12.0156 22.2576 11.5452C21.6989 12.1153 21.1116 12.6997 20.5386 13.2698C20.0229 13.783 19.722 13.8115 19.1204 13.4266C18.046 12.7282 16.8713 12.2721 15.6107 12.0013C14.7656 11.8303 14.608 11.6307 14.608 10.7755C14.608 10.0343 14.608 9.29317 14.608 8.552C14.0063 8.56625 13.4906 8.56625 12.889 8.56625ZM28.3887 44.4704C34.9352 44.4846 40.3788 39.1254 40.3931 32.5974C40.4217 25.9268 35.0499 20.539 28.36 20.5248C21.7705 20.5105 16.3413 25.8698 16.327 32.4263C16.3127 39.0969 21.6702 44.4419 28.3887 44.4704ZM36.0956 17.0612C36.0956 17.0755 36.0956 17.0897 36.0956 17.104C36.597 17.104 37.0983 17.0755 37.5997 17.1182C37.9578 17.1468 38.1297 17.0327 38.2587 16.6764C38.8746 14.9802 39.5193 13.3126 40.1496 11.6307C40.7512 10.0201 39.9633 7.98186 38.3876 7.2977C36.8835 6.64205 35.3077 6.64205 33.8036 7.2977C32.2421 7.98186 31.4399 10.0058 32.0273 11.5737C32.4857 12.7995 32.9584 14.0395 33.4168 15.2653C33.646 15.864 33.7176 16.7049 34.1617 16.99C34.6344 17.2893 35.4366 17.0612 36.0956 17.0612ZM18.046 21.4228C18.0746 19.0852 16.1694 17.1325 13.8344 17.104C11.4565 17.0755 9.47961 18.9569 9.45096 21.3087C9.42231 23.6748 11.3275 25.6417 13.6912 25.656C16.0691 25.6702 18.0317 23.7745 18.046 21.4228ZM37.4994 42.7742C37.5711 42.8598 37.6284 42.931 37.7 42.988C40.3501 45.6249 43.0146 48.276 45.6647 50.9129C45.7793 51.0269 45.9082 51.1409 46.0372 51.2122C46.3953 51.3975 46.7391 51.3405 47.0256 51.0697C47.3121 50.7846 47.3837 50.4425 47.1832 50.1004C47.0829 49.9152 46.9253 49.7584 46.7821 49.6158C44.2179 47.0645 41.6537 44.4989 39.0752 41.9475C38.9463 41.8193 38.8173 41.7195 38.7027 41.6055C38.2873 41.9903 37.9149 42.3609 37.4994 42.7742ZM34.3766 18.8429C34.3766 19.1707 34.4052 19.4415 34.3622 19.6981C34.262 20.2682 34.6631 20.4678 35.0498 20.4963C35.9523 20.5533 36.8548 20.5105 37.7573 20.5105C37.7573 19.9119 37.7573 19.3703 37.7573 18.8286C36.6399 18.8429 35.5369 18.8429 34.3766 18.8429Z" fill="#01A0C6"/>
<path d="M31.1105 0.8552C31.2394 0.954973 31.5545 1.09751 31.6978 1.33981C32.0273 1.88144 32.2994 2.46583 32.5716 3.05021C32.7865 3.52057 32.6289 3.96242 32.1992 4.19048C31.7694 4.40428 31.311 4.276 31.0532 3.81989C30.738 3.23551 30.4372 2.65112 30.1793 2.05248C29.9215 1.46809 30.3226 0.869453 31.1105 0.8552Z" fill="#01A0C6"/>
<path d="M40.5793 4.276C39.8344 4.29025 39.376 3.72012 39.5909 3.19275C39.8631 2.52284 40.1925 1.86719 40.565 1.24004C40.7942 0.840946 41.1953 0.741173 41.6394 0.94072C42.0548 1.14027 42.241 1.58212 42.0548 2.00972C41.7683 2.63687 41.4675 3.26401 41.1237 3.86265C40.9804 4.07645 40.6796 4.19048 40.5793 4.276Z" fill="#01A0C6"/>
<path d="M30.0791 5.81536C30.0647 6.57078 29.4917 7.01264 28.9617 6.78458C28.3027 6.51377 27.6581 6.18594 27.0421 5.82961C26.641 5.60156 26.5264 5.20246 26.7413 4.76061C26.9419 4.34727 27.3859 4.14772 27.8157 4.34726C28.4317 4.61808 29.0476 4.9174 29.635 5.25948C29.8642 5.40201 29.9931 5.70133 30.0791 5.81536Z" fill="#01A0C6"/>
<path d="M42.9286 6.99838C42.6278 6.71332 42.327 6.52802 42.1694 6.24296C41.9832 5.90088 42.1121 5.50178 42.4559 5.31649C43.1005 4.9459 43.7738 4.61808 44.4614 4.31876C44.8195 4.16197 45.1633 4.31876 45.3925 4.63233C45.6217 4.96016 45.679 5.40201 45.3639 5.60156C44.6333 6.11468 43.8168 6.51377 42.9286 6.99838Z" fill="#01A0C6"/>
<path d="M18.046 32.4833C18.0317 26.8675 22.673 22.2352 28.3171 22.2352C34.0041 22.2352 38.6598 26.7963 38.6741 32.3978C38.6884 38.1419 34.1044 42.7457 28.36 42.76C22.6873 42.76 18.0603 38.1704 18.046 32.4833ZM19.765 32.4548C19.765 37.2012 23.5898 41.0353 28.3457 41.0353C33.0873 41.0496 36.9408 37.2154 36.9408 32.4691C36.9408 27.8082 33.0873 23.9456 28.403 23.9313C23.6471 23.9313 19.7793 27.7512 19.765 32.4548Z" fill="#01A0C6"/>
<path d="M28.0879 39.3392C24.5926 39.2537 21.57 36.2462 21.4983 32.7684C21.484 32.0842 21.7705 31.6851 22.3005 31.6566C22.8449 31.6139 23.1887 32.013 23.2173 32.7256C23.3463 35.4053 25.4664 37.5005 28.1595 37.643C28.8471 37.6715 29.2339 37.9851 29.2195 38.5125C29.2195 39.0399 28.7898 39.3534 28.0879 39.3392Z" fill="#01A0C6"/>
</svg>
