<svg width="50" height="50" viewBox="0 0 50 50" fill="none" xmlns="http://www.w3.org/2000/svg">
<path d="M7.07368 35.6269C7.8798 33.8127 9.11587 32.4419 10.849 31.5415C11.9104 30.9905 13.039 30.7082 14.2213 30.6276C14.396 30.6142 14.6244 30.5201 14.7185 30.3991C16.5994 27.7651 19.1253 26.233 22.3498 25.8567C22.417 25.8433 22.4842 25.8164 22.5916 25.7895C22.5916 25.6014 22.5916 25.3998 22.5916 25.2117C22.5916 18.2637 22.5916 11.3022 22.5916 4.35425C22.5916 1.66644 24.2711 0 26.9716 0C33.2057 0 39.4263 0 45.6603 0C48.3206 0 50 1.67988 50 4.34081C50 16.1134 50 27.886 50 39.6587C50 40.9085 49.4895 41.7686 48.3206 42.2524C47.7025 42.5077 47.4338 43.1662 47.6891 43.7979C48.1996 45.0343 47.8503 46.0288 46.9367 46.9426C46.0231 47.8565 45.0289 48.1924 43.7928 47.6818C43.1748 47.4264 42.5164 47.7086 42.2612 48.3268C41.7909 49.4692 40.9311 50.0067 39.7084 49.9933C39.386 49.9933 39.0635 50.0202 38.7545 49.9664C37.8275 49.8051 37.1826 49.2676 36.8064 48.4075C36.4974 47.6818 35.8928 47.4264 35.1672 47.7221C34.079 48.1521 33.125 47.964 32.3055 47.1308C32.0502 46.862 31.7815 46.7813 31.4187 46.7813C22.8872 46.7948 14.3557 46.7948 5.82418 46.7813C3.04303 46.7813 0.826182 45.0746 0.167844 42.454C-0.79951 38.5835 2.55936 34.9281 6.52282 35.5597C6.69748 35.5866 6.85871 35.6001 7.07368 35.6269ZM8.09477 37.7637C7.69171 37.6025 7.36926 37.4546 7.03337 37.3337C4.40002 36.3795 1.61887 38.3416 1.63231 41.1369C1.64575 43.3947 3.4461 45.1418 5.79731 45.1418C14.0736 45.1418 22.3498 45.1418 30.6261 45.1418C30.7738 45.1418 30.9216 45.1283 31.0157 45.1149C31.1232 44.6714 31.1769 44.2548 31.3113 43.8651C31.58 43.1125 31.3381 42.5346 30.5857 42.1986C29.5647 41.7417 29.0407 40.9488 29.0272 39.8334C29.0272 39.6049 29.0272 39.363 29.0272 39.1345C29.0541 38.0325 29.5781 37.2531 30.5723 36.8096C31.3516 36.4602 31.5934 35.8957 31.2844 35.1028C31.0291 34.4443 30.9888 33.7858 31.3113 33.1541C31.4725 32.8182 31.4456 32.5763 31.2844 32.2672C28.4764 26.69 20.7644 25.7358 16.7069 30.4529C16.6129 30.5739 16.5188 30.7082 16.4113 30.8561C18.4535 31.4071 20.0255 32.4822 21.2212 34.2158C20.7644 34.5115 20.3479 34.8072 19.9045 35.0894C18.1579 32.8316 15.9276 31.7968 13.1331 32.415C10.3251 33.0601 8.75311 34.9819 8.09477 37.7637ZM25.8162 26.0718C25.8162 25.8567 25.8162 25.6552 25.8162 25.4536C25.8162 18.6534 25.8162 11.8532 25.8162 5.03965C25.8162 3.88389 26.4611 3.22537 27.6165 3.22537C33.3938 3.22537 39.171 3.22537 44.9483 3.22537C46.144 3.22537 46.7755 3.85701 46.7755 5.06652C46.7755 7.10926 46.7755 9.16544 46.7755 11.2082C46.7755 17.9546 46.7755 24.7144 46.7889 31.4608C46.7889 31.6759 46.8292 31.9581 46.977 32.0925C47.9578 33.0332 48.1862 34.0814 47.6622 35.3447C47.4338 35.8957 47.8235 36.5677 48.4012 36.6886C48.4012 36.5274 48.4012 36.3795 48.4012 36.2317C48.4012 25.588 48.4012 14.9308 48.4012 4.28706C48.4012 2.5803 47.4204 1.59925 45.7141 1.59925C39.4532 1.59925 33.1922 1.59925 26.9179 1.59925C25.1713 1.59925 24.2173 2.56686 24.2173 4.31394C24.2173 11.2888 24.2173 18.2502 24.2173 25.2251C24.2173 25.4133 24.2173 25.588 24.2173 25.7895C24.7548 25.8971 25.2653 25.9777 25.8162 26.0718ZM33.1116 35.5597C32.9235 36.7827 32.5473 37.7772 31.3784 38.2207C30.7604 38.4626 30.6395 38.9061 30.6395 39.4974C30.6395 40.1021 30.7604 40.5456 31.3919 40.8144C32.7623 41.3654 33.4341 42.9647 32.8698 44.322C32.6145 44.9536 32.8026 45.3568 33.246 45.7869C33.6759 46.2169 34.0924 46.4319 34.7104 46.1632C36.0674 45.5987 37.6662 46.2707 38.2305 47.628C38.4724 48.2328 38.8889 48.3806 39.4935 48.394C40.1249 48.394 40.5817 48.2731 40.837 47.6146C41.3744 46.2707 42.9867 45.6122 44.3168 46.1632C44.9348 46.4185 45.3513 46.2707 45.7947 45.8137C46.2381 45.3568 46.453 44.9536 46.1843 44.3086C45.6335 42.9781 46.3052 41.3788 47.6354 40.8278C48.1996 40.5994 48.4146 40.2365 48.4146 39.6318C48.4146 38.9733 48.334 38.476 47.6085 38.1938C46.3052 37.6697 45.6335 36.057 46.1709 34.7534C46.4396 34.1218 46.2784 33.6917 45.8216 33.2348C45.3648 32.7779 44.9483 32.6166 44.3034 32.8719C43.0001 33.4095 41.3879 32.7375 40.8504 31.4339C40.6086 30.8426 40.2458 30.6276 39.6278 30.6276C38.956 30.6276 38.4858 30.7486 38.2037 31.4608C37.72 32.6703 36.148 33.4095 34.9388 32.9257C34.0924 32.5897 33.5819 32.8182 33.0579 33.4364C32.7489 33.7992 32.6548 34.1352 32.8295 34.5787C32.9504 34.9147 33.031 35.2775 33.1116 35.5597ZM27.4284 24.2037C27.4284 24.8891 27.4553 25.5342 27.415 26.1658C27.4015 26.5018 27.509 26.6631 27.818 26.8109C29.8065 27.7382 31.3516 29.1628 32.4667 31.0577C32.5473 31.2055 32.6414 31.3399 32.7354 31.5146C33.6087 30.9905 34.482 31.0039 35.3956 31.3936C35.8928 31.6087 36.4839 31.2055 36.7929 30.6814C37.0616 30.2244 37.3841 29.7138 37.814 29.4315C39.3591 28.3967 41.4819 29.0552 42.2612 30.7351C42.4896 31.2189 43.1076 31.5415 43.5913 31.4205C44.1018 31.2861 44.6124 31.1517 45.1229 31.0039C45.1229 28.773 45.1229 26.4884 45.1229 24.2037C39.2248 24.2037 33.3535 24.2037 27.4284 24.2037ZM27.4418 9.6358C33.3669 9.6358 39.2516 9.6358 45.1364 9.6358C45.1364 8.02312 45.1364 6.45075 45.1364 4.86494C39.2248 4.86494 33.3535 4.86494 27.4418 4.86494C27.4418 6.46419 27.4418 8.03655 27.4418 9.6358ZM27.4418 16.0865C33.3669 16.0865 39.2516 16.0865 45.1095 16.0865C45.1095 14.4604 45.1095 12.8881 45.1095 11.3157C39.1979 11.3157 33.3266 11.3157 27.4418 11.3157C27.4418 12.9149 27.4418 14.4873 27.4418 16.0865ZM45.1632 17.7799C39.2248 17.7799 33.34 17.7799 27.4687 17.7799C27.4687 19.3926 27.4687 20.9784 27.4687 22.5642C33.3803 22.5642 39.2516 22.5642 45.1498 22.5642C45.1632 22.4567 45.1632 22.376 45.1632 22.2954C45.1632 20.7902 45.1632 19.2985 45.1632 17.7799Z" fill="#01A0C6"/>
<path d="M18.561 1.653C18.561 5.68472 18.561 9.66268 18.561 13.681C18.7894 13.6944 18.9909 13.6944 19.179 13.7347C20.536 13.9632 21.369 15.3743 20.7913 16.6241C19.8911 18.5593 18.9506 20.4677 17.9295 22.3357C17.1637 23.7602 15.1081 23.7603 14.3288 22.3223C13.3212 20.4542 12.3673 18.5459 11.4671 16.6107C10.849 15.2802 11.8164 13.8019 13.2943 13.7078C13.4152 13.6944 13.5227 13.7078 13.6974 13.7078C13.6974 9.67612 13.6974 5.67128 13.6974 1.63956C14.2617 1.63956 14.7722 1.63956 15.2962 1.63956C15.2962 6.18196 15.2962 10.7109 15.2962 15.3205C14.7453 15.3205 14.181 15.3205 13.6167 15.3205C12.9584 15.3205 12.7569 15.6296 13.039 16.2075C13.8855 17.9008 14.7185 19.6076 15.5918 21.2875C15.6858 21.4756 15.9411 21.7175 16.1292 21.7041C16.3173 21.7041 16.5591 21.4622 16.6666 21.274C17.5399 19.5941 18.3729 17.8874 19.2193 16.1941C19.5015 15.6431 19.3 15.3205 18.6819 15.3071C18.1176 15.2936 17.5533 15.3071 16.9622 15.3071C16.9622 10.7244 16.9622 6.1954 16.9622 1.63956C17.4727 1.653 17.9833 1.653 18.561 1.653Z" fill="#01A0C6"/>
<path d="M4.02382 18.5459C4.02382 23.1421 4.02382 27.671 4.02382 32.2269C3.49984 32.2269 3.00273 32.2269 2.45187 32.2269C2.45187 28.2355 2.45187 24.2306 2.45187 20.1989C2.26378 20.1855 2.11599 20.172 1.9682 20.1586C0.544037 20.0376 -0.409881 18.5728 0.194715 17.2692C1.09489 15.3205 2.04881 13.3987 3.06991 11.5038C3.82229 10.1196 5.86448 10.1062 6.61687 11.477C7.6514 13.3719 8.61875 15.3205 9.51893 17.2826C10.1235 18.5862 9.15617 20.0511 7.71858 20.1586C7.58422 20.172 7.4633 20.172 7.28864 20.172C7.28864 24.1903 7.28864 28.1817 7.28864 32.2134C6.75122 32.2134 6.24068 32.2134 5.68982 32.2134C5.68982 27.6845 5.68982 23.1421 5.68982 18.5459C6.25411 18.5459 6.8184 18.5459 7.38269 18.5459C8.01416 18.5325 8.21569 18.2234 7.93354 17.6724C7.08711 15.9656 6.22724 14.2454 5.35393 12.5521C5.25989 12.3639 5.01805 12.1355 4.85682 12.1489C4.66873 12.1623 4.41345 12.3774 4.30597 12.5655C3.43266 14.2588 2.57279 15.979 1.72636 17.6858C1.47108 18.2099 1.67262 18.5325 2.25034 18.5459C2.8415 18.5593 3.41923 18.5459 4.02382 18.5459Z" fill="#01A0C6"/>
<path d="M21.987 30.8158C23.5321 30.4663 24.9428 30.6679 26.2595 31.4339C27.5896 32.2134 28.4226 33.396 28.8794 34.8743C29.4169 34.74 29.9005 34.6056 30.3976 34.4712C29.3362 30.2244 24.8757 28.2623 21.5974 29.3106C21.7183 29.7944 21.8527 30.2648 21.987 30.8158ZM18.3595 35.8285C17.4056 34.3099 15.2424 33.5304 13.3615 34.0142C11.5343 34.4846 9.9623 36.1376 9.84138 37.7503C10.3385 37.8444 10.8356 37.9384 11.3327 38.0325C12.0851 35.3447 15.2424 34.5787 17.1234 36.7558C17.5399 36.4467 17.9564 36.1376 18.3595 35.8285Z" fill="white"/>
<path d="M21.987 30.8158C21.8527 30.2782 21.7183 29.7944 21.5974 29.3106C24.8622 28.2623 29.3362 30.2244 30.3976 34.4712C29.9005 34.6056 29.4169 34.7265 28.8794 34.8743C28.4361 33.396 27.6031 32.2134 26.2595 31.4339C24.9428 30.6545 23.5321 30.4663 21.987 30.8158Z" fill="#01A0C6"/>
<path d="M18.3595 35.8285C17.9564 36.1376 17.5399 36.4467 17.1368 36.7558C15.2559 34.5787 12.0985 35.3582 11.3462 38.0325C10.849 37.9384 10.3519 37.8444 9.85482 37.7503C9.97574 36.1242 11.5477 34.4712 13.3749 34.0142C15.2424 33.5304 17.4056 34.3099 18.3595 35.8285Z" fill="#01A0C6"/>
<path d="M39.5338 33.8664C42.6374 33.8799 45.1632 36.4198 45.1632 39.5243C45.1498 42.6287 42.6105 45.1552 39.5069 45.1552C36.4033 45.1418 33.8774 42.6018 33.8774 39.4974C33.8909 36.393 36.4302 33.8664 39.5338 33.8664ZM35.4897 39.4974C35.4897 41.7148 37.3035 43.5425 39.5203 43.5425C41.7238 43.5425 43.5375 41.7417 43.551 39.5511C43.5644 37.3203 41.7641 35.4925 39.5472 35.4791C37.3169 35.4657 35.4897 37.2799 35.4897 39.4974Z" fill="#01A0C6"/>
<path d="M40.2996 25.8299C40.2996 26.354 40.2996 26.8378 40.2996 27.3754C39.789 27.3754 39.2785 27.3754 38.7411 27.3754C38.7411 26.8781 38.7411 26.3674 38.7411 25.8299C39.2516 25.8299 39.7487 25.8299 40.2996 25.8299Z" fill="#01A0C6"/>
<path d="M43.5241 25.8433C43.5241 26.3674 43.5241 26.8647 43.5241 27.3888C43.0001 27.3888 42.4896 27.3888 41.9522 27.3888C41.9522 26.8781 41.9522 26.3809 41.9522 25.8433C42.4627 25.8433 42.9732 25.8433 43.5241 25.8433Z" fill="#01A0C6"/>
<path d="M32.2921 6.47762C32.8295 6.47762 33.3266 6.47762 33.8371 6.47762C33.8371 7.00175 33.8371 7.48555 33.8371 8.02312C33.34 8.02312 32.8295 8.02312 32.2921 8.02312C32.2921 7.52587 32.2921 7.01519 32.2921 6.47762Z" fill="#01A0C6"/>
<path d="M29.0675 8.02312C29.0675 7.48555 29.0675 6.98831 29.0675 6.47762C29.5915 6.47762 30.0752 6.47762 30.6126 6.47762C30.6126 6.97487 30.6126 7.48555 30.6126 8.02312C30.1155 8.02312 29.605 8.02312 29.0675 8.02312Z" fill="#01A0C6"/>
<path d="M43.5241 12.9284C43.5241 13.4525 43.5241 13.9497 43.5241 14.4873C43.0136 14.4873 42.503 14.4873 41.9656 14.4873C41.9656 13.9766 41.9656 13.4659 41.9656 12.9284C42.4761 12.9284 42.9732 12.9284 43.5241 12.9284Z" fill="#01A0C6"/>
<path d="M40.2862 14.4873C39.7622 14.4873 39.2651 14.4873 38.7411 14.4873C38.7411 13.9766 38.7411 13.4794 38.7411 12.9418C39.2382 12.9418 39.7487 12.9418 40.2862 12.9418C40.2862 13.4391 40.2862 13.9363 40.2862 14.4873Z" fill="#01A0C6"/>
<path d="M29.0675 19.3791C29.5915 19.3791 30.0752 19.3791 30.6126 19.3791C30.6126 19.8898 30.6126 20.387 30.6126 20.938C30.1155 20.938 29.605 20.938 29.0675 20.938C29.0675 20.4274 29.0675 19.9301 29.0675 19.3791Z" fill="#01A0C6"/>
<path d="M32.2921 19.3791C32.8026 19.3791 33.2997 19.3791 33.8371 19.3791C33.8371 19.8764 33.8371 20.387 33.8371 20.938C33.34 20.938 32.8295 20.938 32.2921 20.938C32.2921 20.4139 32.2921 19.9167 32.2921 19.3791Z" fill="#01A0C6"/>
<path d="M39.5069 41.9299C38.1768 41.9299 37.0751 40.8278 37.0885 39.4839C37.1019 38.1669 38.1902 37.0918 39.5069 37.0918C40.8504 37.0918 41.9387 38.1938 41.9253 39.5377C41.9253 40.8547 40.8236 41.9299 39.5069 41.9299ZM39.5338 38.7045C39.1038 38.691 38.7276 39.0539 38.7142 39.4839C38.7008 39.914 39.0635 40.2903 39.4935 40.3037C39.9234 40.3172 40.2996 39.9543 40.313 39.5243C40.3265 39.0942 39.9637 38.7179 39.5338 38.7045Z" fill="#01A0C6"/>
</svg>
