<svg width="45" height="52" viewBox="0 0 45 52" fill="none" xmlns="http://www.w3.org/2000/svg">
<path d="M36.6032 0C37.7013 0.392836 38.1543 1.17851 38.0856 2.31638C38.0445 3.03432 38.0719 3.76581 38.0719 4.51084C38.2092 4.52439 38.2915 4.55148 38.3739 4.55148C39.5406 4.60567 40.1857 5.26942 40.1857 6.43439C40.1857 8.15474 40.1857 9.88864 40.1857 11.609C40.1857 14.9413 40.1857 18.2737 40.1857 21.6195C40.1857 21.8227 40.1857 22.0124 40.1857 22.2833C40.57 22.2833 40.9131 22.2833 41.2426 22.2833C43.5485 22.2968 44.9897 23.6921 44.9897 25.9543C45.0034 32.619 45.0034 39.2972 44.9897 45.9618C44.9897 47.9125 43.7818 49.0774 41.8053 49.0774C41.4347 49.0774 41.0641 49.0774 40.6935 49.0774C40.6386 49.389 40.6112 49.6328 40.5425 49.8767C40.1994 51.1093 39.1288 51.9898 37.8386 51.9898C33.8032 52.0034 29.7815 52.0034 25.7462 51.9898C24.1951 51.9763 23.1382 50.8926 22.8775 49.0774C22.6853 49.0774 22.4931 49.0774 22.2873 49.0774C19.446 49.0774 16.591 49.0774 13.7498 49.0774C13.5988 49.0774 13.4341 49.0774 13.2831 49.0774C12.8302 49.0503 12.5831 48.7794 12.5694 48.3595C12.5419 47.9667 12.7753 47.6822 13.1871 47.6009C13.3792 47.5603 13.5988 47.5603 13.8047 47.5603C16.6322 47.5603 19.4597 47.5603 22.301 47.5603C22.4931 47.5603 22.6716 47.5603 22.9324 47.5603C22.9324 47.3435 22.9324 47.1674 22.9324 46.9913C22.9324 44.7291 22.9324 42.4534 22.9324 40.1912C22.9324 38.3625 23.852 37.3194 25.6638 37.0621C25.9383 37.0214 26.0069 36.9131 25.9932 36.6692C25.9795 36.0732 25.9795 35.4772 26.0069 34.8947C26.0756 33.0389 27.558 31.5624 29.4384 31.5082C31.0169 31.4675 32.5953 31.4675 34.1738 31.5082C35.9993 31.5624 37.4543 32.9711 37.5641 34.7592C37.6052 35.4907 37.5778 36.2358 37.5778 36.9808C37.9346 37.035 38.2092 37.0485 38.47 37.1162C39.7739 37.4414 40.6524 38.5386 40.6524 39.9067C40.6661 42.2367 40.6524 44.5801 40.6524 46.9101C40.6524 47.0997 40.6524 47.2758 40.6524 47.5738C41.2975 47.5467 41.9151 47.5874 42.5053 47.479C43.0269 47.3842 43.3426 46.9642 43.425 46.4359C43.4661 46.2057 43.4661 45.9618 43.4661 45.7316C43.4661 39.2023 43.4661 32.6596 43.4661 26.1304C43.4661 24.5049 42.7661 23.814 41.119 23.814C36.7405 23.8275 32.3757 23.8275 27.9972 23.8411C27.1325 23.8411 26.9128 23.9766 26.6383 24.7758C26.2677 25.8459 25.8834 26.9161 25.5814 28.0133C25.2657 29.1782 24.5108 29.7878 23.3441 29.9504C22.8088 30.0181 22.2461 30.0452 21.697 30.0452C15.5891 30.0452 9.48109 30.0452 3.37311 30.0452C2.04171 30.0452 1.56131 30.5058 1.56131 31.8062C1.56131 36.4796 1.56131 41.153 1.56131 45.8264C1.56131 47.0726 2.04171 47.5467 3.29076 47.5467C5.15747 47.5467 7.02417 47.5467 8.90461 47.5467C9.09677 47.5467 9.28893 47.5467 9.46736 47.5874C9.86541 47.6822 10.085 47.9667 10.0438 48.373C10.0164 48.7794 9.76933 49.0233 9.34383 49.0503C9.00069 49.0774 8.65754 49.0639 8.3144 49.0639C6.58495 49.0639 4.8555 49.0639 3.11232 49.0639C1.25934 49.0639 0.0102943 47.8854 0.0102943 46.0702C-0.00343145 41.2343 -0.00343145 36.3848 0.0102943 31.5217C0.0102943 29.9504 0.778939 29.097 2.61819 28.5009C2.61819 28.3248 2.61819 28.1217 2.61819 27.932C2.61819 19.398 2.63192 10.864 2.60447 2.32993C2.59074 1.19205 2.97506 0.406382 4.07313 0C14.9165 0 25.7599 0 36.6032 0ZM38.6347 22.3104C38.6347 22.0801 38.6347 21.9176 38.6347 21.7415C38.6347 16.7294 38.6209 11.7174 38.6484 6.70531C38.6484 6.17701 38.4974 6.0551 37.9758 6.0551C32.3208 6.06864 26.6521 6.06864 20.997 6.06864C20.7637 6.06864 20.5166 6.06864 20.2833 6.00091C19.899 5.89254 19.7343 5.59453 19.7754 5.21524C19.8166 4.83595 20.0499 4.60567 20.4343 4.55148C20.599 4.53794 20.7774 4.53794 20.9421 4.53794C25.9109 4.53794 30.8933 4.53794 35.8621 4.53794C36.0542 4.53794 36.2601 4.53794 36.4934 4.53794C36.4934 3.71162 36.4934 2.98014 36.4934 2.2351C36.4934 1.54425 36.466 1.51716 35.7797 1.51716C25.4716 1.51716 15.1636 1.51716 4.8555 1.51716C4.15548 1.51716 4.12803 1.53071 4.12803 2.2351C4.12803 10.8233 4.12803 19.398 4.12803 27.9862C4.12803 28.1623 4.14176 28.3384 4.15548 28.5009C5.25355 28.5009 6.29671 28.5009 7.39477 28.5009C7.39477 28.2571 7.39477 28.0404 7.39477 27.8236C7.39477 20.7255 7.39477 13.6409 7.39477 6.54275C7.39477 5.1746 8.02615 4.55148 9.39873 4.55148C11.787 4.55148 14.1616 4.55148 16.5499 4.55148C16.7009 4.55148 16.9067 4.4973 17.0028 4.57857C17.2362 4.75467 17.5656 4.97141 17.6068 5.21524C17.6342 5.45907 17.4009 5.78417 17.195 5.97382C17.0714 6.09573 16.7695 6.06864 16.5499 6.06864C14.2577 6.06864 11.9517 6.06864 9.65952 6.06864C8.94578 6.06864 8.94578 6.06864 8.94578 6.74595C8.94578 13.8035 8.94578 20.861 8.94578 27.9185C8.94578 28.0946 8.94578 28.2842 8.94578 28.5009C9.15167 28.5145 9.30265 28.528 9.45364 28.528C13.5714 28.528 17.6891 28.528 21.8068 28.528C22.2735 28.528 22.7265 28.4874 23.1932 28.4332C23.5912 28.379 23.8794 28.1758 24.0167 27.7695C24.3598 26.6722 24.703 25.575 25.0736 24.4913C25.6226 22.8522 26.3638 22.3375 28.107 22.3375C31.4012 22.3239 34.6954 22.3239 37.9896 22.3239C38.1954 22.3104 38.3876 22.3104 38.6347 22.3104ZM31.7718 38.5792C29.8639 38.5792 27.9697 38.5792 26.0618 38.5792C24.9501 38.5792 24.4559 39.0669 24.4559 40.1506C24.4559 43.063 24.4559 45.9754 24.4559 48.8878C24.4559 49.9986 24.9638 50.4998 26.0893 50.4998C29.8776 50.4998 33.6659 50.4998 37.468 50.4998C38.5935 50.4998 39.1013 50.0121 39.1013 48.8878C39.1013 45.9889 39.1013 43.1036 39.1013 40.2048C39.1013 39.0398 38.6347 38.5792 37.4405 38.5792C35.5464 38.5657 33.6522 38.5792 31.7718 38.5792ZM27.5442 37.0214C30.3855 37.0214 33.1855 37.0214 35.9719 37.0214C35.9856 36.9131 36.0268 36.8318 36.0268 36.7505C36.0268 36.1274 36.0542 35.4907 36.013 34.8676C35.9444 33.8381 35.1346 33.0524 34.0914 33.0389C32.5541 33.0118 31.0031 33.0118 29.4658 33.0389C28.5188 33.0524 27.654 33.7704 27.5717 34.6644C27.4893 35.423 27.5442 36.2087 27.5442 37.0214Z" fill="#01A0C6"/>
<path d="M23.55 13.9118C23.5226 17.786 21.6421 20.6171 18.444 22.7032C18.1146 22.92 17.7715 22.9606 17.442 22.7439C14.9165 21.1048 13.0361 18.9781 12.4733 15.9573C12.2949 14.9955 12.2811 14.0066 12.2674 13.0313C12.2537 12.3134 12.5831 12.0425 13.3106 11.9747C14.8616 11.8257 16.2342 11.3245 17.2911 10.1325C17.6754 9.69899 18.1283 9.69899 18.5264 10.146C19.5695 11.2974 20.9009 11.8257 22.4108 11.9747C23.303 12.0696 23.5226 12.3134 23.55 13.2074C23.55 13.4377 23.55 13.6815 23.55 13.9118ZM17.9087 21.2132C20.5166 19.4386 21.9853 17.0681 22.0127 13.9254C22.0127 13.6951 22.0676 13.4648 21.697 13.4106C20.2696 13.221 18.9931 12.6791 17.9087 11.7038C16.7969 12.6927 15.493 13.2345 14.0243 13.4513C13.9145 13.4648 13.7773 13.7357 13.7773 13.8983C13.8184 17.041 15.2596 19.4386 17.9087 21.2132Z" fill="#01A0C6"/>
<path d="M30.9757 18.8155C29.9325 18.8155 28.8894 18.8155 27.8462 18.8155C27.2285 18.8155 26.9128 18.531 26.9128 18.0434C26.9266 17.5828 27.2423 17.2983 27.8187 17.2983C29.9462 17.2983 32.06 17.2983 34.1875 17.2983C34.7777 17.2983 35.1346 17.6099 35.1346 18.0705C35.1209 18.5175 34.7777 18.802 34.215 18.8155C33.1306 18.8155 32.0463 18.8155 30.9757 18.8155Z" fill="#01A0C6"/>
<path d="M30.9894 13.6003C32.0463 13.6003 33.1169 13.6003 34.1738 13.6003C34.764 13.6003 35.1346 13.8983 35.1209 14.3588C35.1209 14.8194 34.7503 15.1174 34.1601 15.1174C32.06 15.1174 29.9462 15.1174 27.8462 15.1174C27.2423 15.1174 26.9128 14.8194 26.9128 14.3453C26.9128 13.8576 27.2423 13.6003 27.8599 13.6003C28.9031 13.6003 29.9462 13.6003 30.9894 13.6003Z" fill="#01A0C6"/>
<path d="M30.9894 11.4193C29.9462 11.4193 28.9031 11.4193 27.8599 11.4193C27.2285 11.4193 26.9128 11.1484 26.9128 10.6608C26.9128 10.1731 27.2285 9.90218 27.8599 9.90218C29.96 9.90218 32.0737 9.90218 34.1738 9.90218C34.7777 9.90218 35.1346 10.2002 35.1346 10.6608C35.1346 11.1213 34.7777 11.4193 34.1738 11.4193C33.1169 11.4329 32.0463 11.4193 30.9894 11.4193Z" fill="#01A0C6"/>
<path d="M34.4208 44.0112C34.3522 44.973 33.8855 45.7857 32.9247 46.2463C32.6228 46.3818 32.5267 46.5579 32.5404 46.8694C32.5679 47.2216 32.5541 47.5738 32.5404 47.9396C32.513 48.4679 32.2247 48.7794 31.7718 48.7794C31.3188 48.7794 31.0306 48.4814 31.0031 47.9531C31.0031 47.8718 30.9894 47.777 31.0031 47.6957C31.0718 46.9507 30.9894 46.3953 30.1659 45.9483C29.0952 45.3523 28.8482 43.9028 29.3835 42.7921C29.9188 41.6813 31.1816 41.0988 32.3894 41.3833C33.5698 41.6542 34.4346 42.7514 34.4208 44.0112ZM31.7992 42.8327C31.1816 42.8191 30.6737 43.3068 30.6737 43.9164C30.6737 44.4989 31.1678 44.9865 31.7443 45.0001C32.3483 45.0136 32.8698 44.5124 32.8698 43.9164C32.8698 43.3339 32.3894 42.8462 31.7992 42.8327Z" fill="#01A0C6"/>
</svg>
