<svg width="50" height="50" viewBox="0 0 50 50" fill="none" xmlns="http://www.w3.org/2000/svg">
<path d="M24.9601 0C31.2034 0 37.4334 0 43.6768 0C46.3259 0 48.3094 1.15065 49.4143 3.57238C49.7737 4.36178 49.9734 5.31174 49.9734 6.18142C50.0133 18.7182 50 31.2684 49.9867 43.8051C49.9867 47.3775 47.3376 50 43.7833 50C31.2567 50 18.73 50 6.20341 50C2.62247 50.0133 0 47.3775 0 43.7784C0 31.2817 0 18.7985 0 6.30184C0 2.62242 2.56922 0.0133797 6.24334 0.0133797C12.4867 0 18.73 0 24.9601 0ZM1.11821 9.78056C1.11821 9.98126 1.11821 10.1284 1.11821 10.2756C1.11821 21.4343 1.11821 32.5796 1.11821 43.7383C1.11821 46.7888 3.23482 48.8894 6.29659 48.8894C18.7567 48.8894 31.2167 48.8894 43.6768 48.8894C46.7652 48.8894 48.8285 46.8022 48.8285 43.6847C48.8285 32.5662 48.8285 21.4477 48.8285 10.3158C48.8285 10.1418 48.8285 9.96788 48.8285 9.78056C32.9073 9.78056 17.0527 9.78056 1.11821 9.78056ZM48.7753 8.58977C48.7753 7.45249 48.9084 6.31522 48.7487 5.21808C48.3759 2.75622 46.3525 1.13727 43.8232 1.13727C37.4734 1.13727 31.1102 1.13727 24.7604 1.13727C18.557 1.13727 12.3536 1.13727 6.15016 1.13727C3.99361 1.13727 2.19649 2.36821 1.46432 4.32164C0.931842 5.71313 1.18477 7.14476 1.11821 8.58977C17.066 8.58977 32.9207 8.58977 48.7753 8.58977Z" fill="#01A0C6"/>
<path d="M16.1741 17.126C16.1741 16.1092 16.1741 15.1726 16.1741 14.236C16.1741 13.5938 16.3339 13.4065 16.9595 13.4065C23.1363 13.4065 29.2998 13.4065 35.4766 13.4065C36.1022 13.4065 36.262 13.5804 36.262 14.2226C36.262 17.9823 36.262 21.742 36.262 25.5151C36.262 25.7158 36.262 25.9165 36.262 26.1707C36.4617 26.1841 36.6347 26.1975 36.8078 26.1975C37.6864 26.1975 38.5783 26.1841 39.4569 26.1975C39.9893 26.2108 40.2023 26.4918 40.0692 27.0136C38.6049 32.8739 37.1273 38.7342 35.6629 44.5946C35.5564 45.0361 35.3168 45.1966 34.8908 45.1966C26.7705 45.1966 18.6502 45.1966 10.5298 45.1966C10.0106 45.1966 9.85091 45.0227 9.85091 44.5009C9.85091 35.6703 9.85091 26.8397 9.86422 18.0091C9.86422 17.2464 9.99734 17.126 10.7827 17.1126C12.3802 17.1126 13.9776 17.1126 15.5751 17.1126C15.7481 17.126 15.9345 17.126 16.1741 17.126ZM38.8445 27.3347C38.6182 27.3347 38.4585 27.3347 38.2854 27.3347C30.8174 27.3347 23.3493 27.3347 15.8679 27.3214C15.4286 27.3214 15.2822 27.4819 15.1757 27.8833C13.8845 33.0612 12.5932 38.2526 11.2886 43.4305C11.2354 43.6312 11.2087 43.8319 11.1555 44.0594C19.0096 44.0594 26.7838 44.0594 34.6246 44.0594C36.0357 38.5202 37.4334 32.9676 38.8445 27.3347ZM35.1171 26.1841C35.1171 22.2906 35.1171 18.4506 35.1171 14.6106C29.18 14.6106 23.2561 14.6106 17.3456 14.6106C17.3456 18.4907 17.3456 22.3441 17.3456 26.1841C23.2961 26.1841 29.1933 26.1841 35.1171 26.1841ZM11.0091 18.3168C11.0091 25.4883 11.0091 32.593 11.0091 39.711C11.1022 39.5905 11.1422 39.4567 11.1821 39.3096C11.4883 38.092 11.7812 36.8745 12.0873 35.6703C12.8195 32.7401 13.565 29.81 14.2838 26.8798C14.4036 26.3982 14.6432 26.1573 15.1624 26.1975C15.4819 26.2242 15.8147 26.1975 16.1608 26.1975C16.1608 23.5349 16.1608 20.9259 16.1608 18.3034C14.4302 18.3168 12.7396 18.3168 11.0091 18.3168Z" fill="#01A0C6"/>
<path d="M34.4915 5.44554C31.6161 5.44554 28.7407 5.44554 25.8653 5.44554C25.7055 5.44554 25.4925 5.48568 25.386 5.4054C25.213 5.2716 25 5.03077 25 4.85683C25.0133 4.6829 25.2529 4.46882 25.4393 4.3484C25.5591 4.26813 25.7588 4.32164 25.9318 4.32164C31.6826 4.32164 37.4334 4.32164 43.1976 4.32164C43.2641 4.32164 43.3307 4.32164 43.3972 4.32164C43.7833 4.30826 44.1028 4.40192 44.1427 4.87021C44.1693 5.24484 43.8898 5.45892 43.3972 5.45892C40.4153 5.44554 37.4601 5.44554 34.4915 5.44554Z" fill="#01A0C6"/>
<path d="M23.1896 4.85683C23.1896 6.15466 22.1912 7.17152 20.8999 7.17152C19.6219 7.17152 18.5836 6.1279 18.5969 4.85683C18.6102 3.61252 19.6353 2.5689 20.8866 2.55552C22.1512 2.54214 23.1896 3.57238 23.1896 4.85683ZM20.9132 3.71956C20.2476 3.70618 19.7417 4.21461 19.7417 4.88359C19.7417 5.52582 20.2343 6.03425 20.86 6.06101C21.4989 6.08776 22.0447 5.56596 22.0714 4.92373C22.0847 4.26813 21.5655 3.73294 20.9132 3.71956Z" fill="#01A0C6"/>
<path d="M14.5101 7.1849C13.2322 7.1849 12.1938 6.1279 12.2071 4.85683C12.2204 3.59914 13.2588 2.5689 14.4968 2.5689C15.7614 2.55552 16.8131 3.61252 16.8131 4.88359C16.8264 6.16804 15.8014 7.1849 14.5101 7.1849ZM14.5367 6.06101C15.189 6.04763 15.6949 5.52582 15.6816 4.87021C15.6683 4.21461 15.1491 3.71956 14.4835 3.73294C13.8445 3.74632 13.3653 4.25475 13.3653 4.89697C13.3653 5.55258 13.8845 6.06101 14.5367 6.06101Z" fill="#01A0C6"/>
<path d="M8.14697 7.1849C6.8557 7.1849 5.84398 6.14128 5.8573 4.84345C5.87061 3.58576 6.92226 2.55552 8.16028 2.5689C9.42492 2.58228 10.4899 3.66604 10.4633 4.92373C10.4366 6.18142 9.41161 7.1849 8.14697 7.1849ZM9.30511 4.88359C9.30511 4.22799 8.81257 3.71956 8.14697 3.71956C7.50799 3.71956 7.01544 4.21461 6.98882 4.84345C6.97551 5.48568 7.49468 6.03425 8.13365 6.04763C8.77263 6.06101 9.30511 5.5392 9.30511 4.88359Z" fill="#01A0C6"/>
<path d="M31.2833 35.697C30.2849 34.9745 29.3397 34.2922 28.4079 33.5964C28.2481 33.476 28.0485 33.2887 28.0218 33.1148C27.9952 32.9408 28.1017 32.6197 28.2348 32.5796C28.4478 32.4993 28.7806 32.4993 28.9537 32.6197C29.7923 33.1817 30.6044 33.7971 31.4297 34.3858C31.7758 34.6401 32.1353 34.8809 32.4814 35.1485C32.9473 35.5097 32.9473 35.8844 32.4681 36.2322C31.2966 37.0885 30.1251 37.9315 28.9537 38.7878C28.6475 39.0152 28.3679 39.0554 28.1283 38.7476C27.8754 38.4265 27.9686 38.1188 28.2881 37.8913C29.2599 37.1688 30.2449 36.4597 31.2833 35.697Z" fill="#01A0C6"/>
<path d="M18.7167 35.7238C19.6752 36.4196 20.5538 37.0618 21.4457 37.704C21.5655 37.7977 21.7519 37.8646 21.7918 37.985C21.8717 38.2258 21.9649 38.5335 21.8717 38.7342C21.7386 39.0152 21.4058 39.0554 21.1395 38.868C19.9015 37.985 18.6502 37.0885 17.4255 36.1787C17.066 35.9111 17.066 35.5365 17.4388 35.2555C18.6368 34.3591 19.8616 33.4894 21.073 32.6197C21.3791 32.4056 21.6853 32.419 21.8983 32.7268C22.1113 33.0345 22.0181 33.3422 21.7252 33.5563C20.7268 34.2654 19.7551 34.9745 18.7167 35.7238Z" fill="#01A0C6"/>
<path d="M27.0367 38.4666C26.9036 38.6138 26.7971 38.8279 26.6241 38.8948C26.451 38.9483 26.2247 38.868 26.0383 38.8011C25.9452 38.761 25.8919 38.6272 25.8387 38.5202C24.9468 36.8209 24.0415 35.1351 23.1763 33.4225C23.0698 33.2218 23.0831 32.9141 23.1629 32.6866C23.2029 32.5662 23.5224 32.4324 23.6555 32.4859C23.8685 32.5662 24.0815 32.7535 24.188 32.9542C25.0799 34.6133 25.9585 36.2858 26.8237 37.9582C26.8903 38.0786 26.9436 38.2392 27.0367 38.4666Z" fill="#01A0C6"/>
<path d="M26.1981 24.9933C23.9484 24.9933 21.7119 24.9933 19.4622 24.9933C19.3158 24.9933 19.156 25.0067 19.0096 24.9799C18.6768 24.9398 18.4505 24.7658 18.4638 24.3912C18.4771 24.0433 18.6901 23.8828 18.9963 23.8426C19.0895 23.8293 19.196 23.8293 19.2891 23.8293C23.8951 23.8293 28.5011 23.8293 33.107 23.8293C33.2402 23.8293 33.4132 23.7891 33.4931 23.856C33.6661 24.0166 33.9058 24.2173 33.9191 24.418C33.9324 24.5919 33.6928 24.806 33.5064 24.9398C33.3866 25.02 33.1869 24.9799 33.0138 24.9799C30.7508 24.9933 28.4744 24.9933 26.1981 24.9933Z" fill="#01A0C6"/>
<path d="M26.2247 22.411C23.9483 22.411 21.672 22.411 19.3956 22.411C19.2093 22.411 18.983 22.4511 18.8632 22.3575C18.6901 22.2237 18.5037 21.9829 18.5037 21.7955C18.5037 21.635 18.73 21.4209 18.9031 21.3139C19.0229 21.2336 19.2226 21.2737 19.3956 21.2737C23.9483 21.2737 28.5011 21.2737 33.0538 21.2737C33.2135 21.2737 33.4265 21.2336 33.5463 21.3139C33.7194 21.4477 33.959 21.6617 33.959 21.8357C33.959 22.023 33.746 22.2504 33.5729 22.3842C33.4665 22.4645 33.2535 22.4244 33.0937 22.4244C30.7774 22.411 28.5011 22.411 26.2247 22.411Z" fill="#01A0C6"/>
<path d="M26.2114 19.802C23.935 19.802 21.6587 19.802 19.3823 19.802C19.2359 19.802 19.0362 19.8555 18.943 19.7752C18.7567 19.628 18.5037 19.4139 18.5037 19.2266C18.5037 19.0393 18.77 18.8386 18.9563 18.6914C19.0362 18.6245 19.2093 18.6647 19.3424 18.6647C23.935 18.6647 28.5144 18.6647 33.107 18.6647C33.2402 18.6647 33.4132 18.6245 33.4931 18.6914C33.6661 18.8252 33.9324 19.0259 33.9324 19.1865C33.9191 19.3872 33.7061 19.6146 33.5197 19.7752C33.4265 19.8555 33.2268 19.802 33.0804 19.802C30.7907 19.802 28.5011 19.802 26.2114 19.802Z" fill="#01A0C6"/>
<path d="M26.2646 17.1929C23.975 17.1929 21.672 17.1929 19.3823 17.1929C19.2359 17.1929 19.0362 17.2464 18.943 17.1662C18.7567 17.019 18.5037 16.8049 18.5037 16.6176C18.5037 16.4303 18.77 16.2296 18.9563 16.0824C19.0495 16.0155 19.2492 16.0556 19.3956 16.0556C23.9483 16.0556 28.5011 16.0556 33.0538 16.0556C33.1869 16.0556 33.32 16.0556 33.4531 16.0556C33.7859 16.0824 33.9723 16.2831 33.9723 16.6176C33.9723 16.9521 33.7859 17.1394 33.4531 17.1795C33.32 17.1929 33.1869 17.1795 33.0538 17.1795C30.7907 17.2063 28.5277 17.1929 26.2646 17.1929Z" fill="#01A0C6"/>
</svg>
