<svg width="58" height="50" viewBox="0 0 58 50" fill="none" xmlns="http://www.w3.org/2000/svg">
<path d="M37.2531 27.9302C38.4623 29.3813 38.4466 30.5047 37.2374 32.1586C38.4623 33.797 38.4623 34.8268 37.2374 36.4183C38.4466 38.1815 38.4466 39.1177 37.206 40.7092C37.7713 41.2865 38.1325 41.9886 38.1325 42.8312C38.1325 43.6426 37.8027 44.3447 37.2688 44.8752C37.5515 45.4369 37.9126 45.9518 38.0383 46.5136C38.4937 48.4328 37.1746 49.9931 35.1488 49.9931C31.6154 50.0087 28.0821 49.9931 24.5487 49.9931C23.9049 49.9931 23.261 49.9931 22.6015 49.9931C21.3609 50.0087 20.3558 49.5406 19.8376 48.3859C19.3037 47.2157 19.4921 46.1079 20.3872 45.1405C20.4186 45.0937 20.45 45.0469 20.56 44.8908C20.2616 44.688 19.9789 44.3291 19.6649 44.3135C18.2201 44.2199 18.2044 44.2511 17.6862 44.922C18.2986 45.5774 18.6284 46.3575 18.5499 47.2781C18.4243 48.7916 17.2936 49.8682 15.7546 49.8838C11.4518 49.8994 7.16465 49.8994 2.86181 49.8838C1.68403 49.8838 0.757504 49.3533 0.28639 48.2611C-0.200427 47.1533 -0.0747965 46.0923 0.726096 45.1405C0.773208 45.0781 0.820319 45.0157 0.914542 44.922C0.396317 44.3135 0.00372239 43.627 0.0351299 42.7844C0.0508337 41.9574 0.396317 41.2865 0.851726 40.834C0.553355 40.0851 0.16076 39.4453 0.0665375 38.7744C-0.153315 37.1673 1.18151 35.763 2.8304 35.7474C5.37441 35.7318 7.93413 35.7474 10.4781 35.7474C10.698 35.7474 10.9021 35.7474 11.122 35.7474C11.2319 35.2481 11.3104 34.7956 11.4204 34.3431C12.394 30.7232 15.8174 28.3047 19.5863 28.5075C19.8847 28.5231 20.2145 28.2266 20.4657 28.1018C20.1517 27.4621 19.8219 26.994 19.6806 26.4635C19.1937 24.6067 20.4657 22.9684 22.3973 22.9528C24.6272 22.9216 26.8729 22.9528 29.1028 22.9528C31.0815 22.9528 33.0602 22.9684 35.0546 22.9528C36.3266 22.9372 37.3473 23.3741 37.8655 24.5599C38.3838 25.7301 38.1953 26.838 37.3159 27.8054C37.3002 27.821 37.3002 27.8678 37.2531 27.9302ZM12.5667 36.4651C12.5982 40.0226 15.5348 42.8936 19.1309 42.878C22.7428 42.8624 25.6323 39.929 25.6009 36.3091C25.5695 32.7672 22.6015 29.865 19.0681 29.9118C15.4405 29.9586 12.5353 32.8764 12.5667 36.4651ZM28.8987 45.7178C26.7944 45.7178 24.7058 45.7178 22.6015 45.7178C21.7535 45.7178 21.2666 46.0611 21.0625 46.732C20.7641 47.7462 21.4237 48.5888 22.5543 48.5888C26.7787 48.6044 30.9873 48.5888 35.2116 48.5888C35.3215 48.5888 35.4471 48.5732 35.5571 48.5576C36.3423 48.4171 36.8134 47.7774 36.7349 46.9973C36.6406 46.1859 36.091 45.7178 35.1331 45.7178C33.0602 45.7022 30.9716 45.7178 28.8987 45.7178ZM28.883 24.3571C26.7787 24.3571 24.6901 24.3571 22.5858 24.3571C21.9733 24.3571 21.4551 24.5131 21.1567 25.0904C20.6385 26.089 21.298 27.1812 22.4444 27.1968C24.2818 27.2124 26.1348 27.1968 27.9722 27.1968C30.3905 27.1968 32.7932 27.1968 35.2116 27.1968C35.9811 27.1968 36.4679 26.8536 36.6563 26.245C36.9704 25.2464 36.358 24.3727 35.2901 24.3571C33.1544 24.3415 31.0187 24.3571 28.883 24.3571ZM9.33177 45.6554C7.18035 45.6554 5.01323 45.6554 2.86181 45.6554C1.96669 45.6554 1.41706 46.2015 1.43277 47.0753C1.44847 47.9334 2.01381 48.4796 2.97174 48.4796C7.18035 48.4796 11.4047 48.4796 15.6133 48.4796C16.5869 48.4796 17.168 47.9178 17.1522 47.0285C17.1365 46.1547 16.5869 45.6554 15.6133 45.6554C13.5404 45.6554 11.4361 45.6554 9.33177 45.6554ZM21.6278 43.8766C21.6278 43.939 21.6278 43.9858 21.6278 44.0483C21.9262 44.1107 22.2246 44.2511 22.5229 44.2511C26.7473 44.2667 30.9559 44.2667 35.1802 44.2511C36.2794 44.2511 36.9547 43.3149 36.6406 42.3631C36.4365 41.7546 35.8869 41.3957 35.0546 41.3957C31.9138 41.3957 28.773 41.3957 25.6323 41.3957C25.4595 41.3957 25.2083 41.4425 25.0984 41.5674C24.1404 42.6284 22.9941 43.3929 21.6278 43.8766ZM21.6592 28.7572C21.6592 28.8196 21.6435 28.8664 21.6435 28.9288C22.9941 29.4281 24.1561 30.1926 25.1141 31.2537C25.224 31.3785 25.491 31.4253 25.6951 31.4253C28.8359 31.4409 31.9609 31.4409 35.1017 31.4253C36.0753 31.4253 36.7034 30.8636 36.7192 30.0366C36.7349 29.1784 36.0753 28.6011 35.086 28.6011C30.9245 28.6011 26.7787 28.6011 22.6172 28.6011C22.3031 28.6167 21.989 28.7103 21.6592 28.7572ZM16.5241 44.0483C16.5241 43.9858 16.5241 43.9234 16.5241 43.8766C15.2835 43.4241 14.1842 42.7532 13.3048 41.7858C13.0379 41.4893 12.7866 41.3801 12.394 41.3801C9.37888 41.3957 6.34805 41.3801 3.33292 41.3957C3.11307 41.3957 2.89322 41.3957 2.68907 41.4269C1.90388 41.5518 1.38565 42.2071 1.44847 42.956C1.51129 43.6894 2.09232 44.2199 2.87751 44.2199C7.14894 44.2199 11.4361 44.2199 15.7075 44.2199C15.9902 44.2043 16.2571 44.1107 16.5241 44.0483ZM27.0927 35.7162C29.8409 35.7162 32.6362 35.7318 35.4471 35.7006C36.0596 35.7006 36.4993 35.2949 36.672 34.6864C36.9547 33.7034 36.2637 32.8764 35.1331 32.8764C32.3535 32.8608 29.5582 32.8764 26.7787 32.8764C26.6216 32.8764 26.4489 32.9076 26.3233 32.9232C26.5745 33.875 26.8258 34.7644 27.0927 35.7162ZM26.2761 39.9758C29.2599 39.9758 32.2122 39.9758 35.1645 39.9758C36.091 39.9758 36.7034 39.3985 36.7192 38.5871C36.7349 37.7446 36.091 37.1517 35.1488 37.1517C33.2643 37.1361 31.3956 37.1517 29.5111 37.1517C28.6945 37.1517 27.8779 37.1517 27.0927 37.1517C26.8101 38.1035 26.5588 39.0084 26.2761 39.9758ZM11.0906 37.1517C8.32673 37.1517 5.50004 37.1361 2.67336 37.1673C2.15514 37.1673 1.77825 37.5261 1.5584 38.0098C1.1501 38.9772 1.84106 39.9602 2.95603 39.9602C5.7356 39.9758 8.53087 39.9602 11.3104 39.9602C11.4989 39.9602 11.6873 39.9602 11.8915 39.9602C11.6402 39.0396 11.3733 38.1347 11.0906 37.1517Z" fill="#01A0C6"/>
<path d="M40.2996 45.0313C39.1061 43.5334 39.1061 42.2071 40.2839 40.7872C39.1061 39.3829 39.0747 37.963 40.2682 36.5275C39.1061 34.8424 39.1061 33.8438 40.2682 32.2523C38.9962 30.77 39.2318 29.1316 40.2996 27.9926C39.7186 27.3997 39.4045 26.6975 39.4202 25.855C39.4202 25.028 39.7343 24.3415 40.2996 23.7641C39.1061 22.2194 39.1061 20.94 40.2996 19.4889C39.5929 18.7711 39.3103 17.8973 39.4516 16.8831C39.6401 15.6037 40.7079 14.5739 42.0113 14.5583C46.4712 14.5271 50.9154 14.5427 55.3752 14.5583C56.4274 14.5583 57.1969 15.1356 57.668 16.0562C58.1548 17.0392 58.092 18.0222 57.511 18.9584C57.401 19.1456 57.2597 19.3016 57.1341 19.4733C58.2804 21.2676 58.2804 22.2818 57.1027 23.7641C57.6366 24.3571 57.9821 25.0436 57.9821 25.8862C57.9821 26.7131 57.6523 27.3841 57.1184 27.977C58.4218 29.6309 58.1234 31.082 57.1184 32.2679C57.6366 32.8608 57.9821 33.5317 57.9821 34.3587C57.9821 35.1857 57.6837 35.8722 57.087 36.4963C57.6366 37.1048 57.9821 37.7914 57.9821 38.634C57.9821 39.4609 57.6523 40.1475 57.1184 40.7248C58.2804 42.4723 58.2804 43.5021 57.1969 44.8908C57.4638 45.5774 57.8407 46.1703 57.935 46.81C58.1705 48.5264 56.9613 49.9463 55.2025 49.9619C50.8683 49.9931 46.534 49.9931 42.1841 49.9619C41.0377 49.9619 40.1269 49.4001 39.6715 48.3235C39.1689 47.1377 39.3888 46.0143 40.2996 45.0313ZM48.6697 35.8098C50.8054 35.8098 52.9412 35.8254 55.0769 35.8098C55.9877 35.8098 56.5373 35.2481 56.553 34.4211C56.5687 33.5785 56.0034 32.97 55.1397 32.97C50.8526 32.9544 46.5497 32.9544 42.2626 32.97C41.289 32.97 40.7236 33.7034 40.865 34.6552C40.9749 35.4041 41.4931 35.8098 42.3725 35.8254C44.4768 35.8098 46.5654 35.8098 48.6697 35.8098ZM48.6226 48.5888C50.7426 48.5888 52.8626 48.5888 54.9826 48.5888C55.8464 48.5888 56.4117 48.1675 56.553 47.4654C56.7415 46.5136 56.1133 45.7334 55.0769 45.7178C53.5536 45.7022 52.0146 45.7178 50.4914 45.7178C47.806 45.7178 45.1207 45.7178 42.4353 45.7178C41.3047 45.7178 40.6922 46.4511 40.8964 47.481C41.0377 48.1987 41.5716 48.5888 42.4667 48.5888C44.5082 48.5888 46.5654 48.5888 48.6226 48.5888ZM48.6854 27.3061C50.8054 27.3061 52.9254 27.3061 55.0455 27.3061C56.0505 27.3061 56.6472 26.6507 56.5687 25.7145C56.5059 24.9344 55.9406 24.4507 55.0298 24.4507C50.8211 24.4351 46.5968 24.4507 42.3882 24.4507C42.2469 24.4507 42.1213 24.4663 41.9799 24.4975C41.3989 24.6067 40.9906 24.9968 40.8964 25.5741C40.7079 26.5883 41.3204 27.3061 42.4039 27.3217C44.4768 27.3217 46.5811 27.3061 48.6854 27.3061ZM48.7168 23.0308C50.8212 23.0308 52.9097 23.0308 55.014 23.0308C56.0034 23.0308 56.5687 22.4847 56.553 21.5953C56.5373 20.7371 55.9563 20.191 55.0298 20.191C50.7897 20.191 46.5654 20.191 42.3254 20.191C41.3204 20.191 40.7236 20.8932 40.865 21.8606C40.9749 22.6095 41.4931 23.0152 42.3725 23.0308C44.4925 23.0464 46.5968 23.0308 48.7168 23.0308ZM48.7168 44.3135C50.8212 44.3135 52.9097 44.3291 55.014 44.2979C55.4066 44.2979 55.8778 44.1263 56.1761 43.8766C56.6472 43.4865 56.6787 42.878 56.4588 42.3163C56.2075 41.6922 55.705 41.4737 55.0455 41.4737C50.8368 41.4737 46.6125 41.4737 42.4039 41.4737C41.4303 41.4737 40.8493 42.0198 40.8493 42.9092C40.865 43.7986 41.4303 44.3135 42.4353 44.3135C44.5239 44.3135 46.6125 44.3135 48.7168 44.3135ZM48.7482 15.947C46.5654 15.947 44.3983 15.9313 42.2155 15.947C41.3675 15.947 40.8335 16.5399 40.8493 17.3668C40.865 18.1626 41.3989 18.7555 42.1998 18.7555C46.534 18.7711 50.8683 18.7711 55.2025 18.7555C55.8464 18.7555 56.3018 18.4123 56.4902 17.8349C56.8357 16.8675 56.2075 15.9313 55.1554 15.9313C53.0197 15.9313 50.884 15.947 48.7482 15.947ZM48.7325 31.5501C50.8683 31.5501 53.004 31.5657 55.1397 31.5501C56.0191 31.5501 56.5687 30.9572 56.553 30.099C56.5373 29.2721 55.9877 28.7259 55.124 28.7259C50.8368 28.7259 46.534 28.7103 42.2469 28.7416C41.9014 28.7416 41.4774 28.9288 41.2104 29.1628C40.7393 29.5841 40.7236 30.177 40.9435 30.7388C41.1633 31.3005 41.6344 31.5501 42.2469 31.5501C44.414 31.5345 46.5811 31.5501 48.7325 31.5501ZM48.7325 37.2141C46.5811 37.2141 44.414 37.1985 42.2626 37.2297C41.3675 37.2453 40.8335 37.8226 40.8335 38.6652C40.8493 39.4921 41.3989 40.0538 42.2469 40.0538C46.534 40.0694 50.8368 40.0694 55.124 40.0538C56.0976 40.0538 56.7101 39.2425 56.5216 38.3063C56.3803 37.5885 55.8464 37.1985 54.9512 37.1985C52.894 37.2141 50.8054 37.2141 48.7325 37.2141Z" fill="#01A0C6"/>
<path d="M33.5941 16.0874C38.9334 11.9993 44.2099 7.94252 49.5334 3.8857C48.7797 3.02753 48.073 2.20056 47.3506 1.38919C47.0836 1.09273 46.8795 0.796273 47.0679 0.390591C47.2721 -0.0462978 47.6804 -0.0150915 48.0887 0.0161149C49.9103 0.156543 51.732 0.265766 53.5536 0.406194C54.1975 0.453004 54.4173 0.671448 54.3702 1.29557C54.2603 3.19916 54.1346 5.10275 53.9619 7.00633C53.9462 7.25598 53.6792 7.61486 53.4594 7.69287C53.2395 7.75529 52.8312 7.61486 52.6585 7.42762C51.9204 6.64746 51.2294 5.82049 50.4757 4.97792C49.7376 5.53964 48.9995 6.10135 48.2771 6.64746C43.6131 10.2206 38.9491 13.7937 34.3008 17.3668C33.4999 17.9754 33.3114 17.9598 32.6519 17.1952C30.6575 14.8391 28.6474 12.483 26.653 10.127C26.5588 10.0021 26.4489 9.90852 26.3075 9.7681C26.1505 9.86171 26.0092 9.95533 25.8678 10.049C19.4764 14.6051 13.085 19.1612 6.69353 23.7173C6.64642 23.7485 6.59931 23.7797 6.5522 23.8265C5.93975 24.2478 5.56286 24.2634 5.26449 23.8734C4.98182 23.4833 5.10745 23.1244 5.7199 22.6875C12.3783 17.9286 19.0367 13.1852 25.6951 8.42622C26.4332 7.91132 26.6216 7.92692 27.2184 8.62906C29.1499 10.9071 31.0972 13.1852 33.0288 15.4633C33.2015 15.6349 33.3742 15.8377 33.5941 16.0874ZM49.3293 1.49842C50.4914 2.82469 51.5278 4.01053 52.6585 5.28999C52.7527 4.01053 52.8312 2.9027 52.9098 1.73246C51.732 1.65445 50.6013 1.59203 49.3293 1.49842Z" fill="#01A0C6"/>
<path d="M21.832 34.2027C21.8477 34.6707 21.6435 34.9828 21.1881 35.014C20.6856 35.0452 20.4814 34.702 20.4186 34.2495C20.293 33.3757 19.6334 32.892 18.8168 33.048C18.0945 33.1884 17.6548 33.9062 17.8118 34.6395C17.9374 35.2325 18.3928 35.5913 19.0838 35.6381C20.3401 35.7318 21.2509 36.3091 21.6906 37.4949C22.1775 38.8212 21.5493 40.2723 20.2459 40.8652C19.9318 41.0056 19.7905 41.1461 19.8062 41.4893C19.8376 41.9574 19.6177 42.3007 19.0995 42.3007C18.5813 42.3007 18.3614 41.9574 18.4085 41.4893C18.44 41.1305 18.2672 41.0056 17.9688 40.8652C17.0109 40.4127 16.4613 39.6482 16.3671 38.5871C16.3356 38.1503 16.4456 37.7914 16.9324 37.7134C17.4349 37.6354 17.7333 37.9318 17.749 38.3999C17.7647 39.2893 18.754 39.9134 19.4921 39.6326C20.0574 39.4297 20.4186 38.946 20.4186 38.3531C20.4029 37.7602 20.0417 37.2765 19.445 37.1048C19.2566 37.058 19.0524 37.0424 18.864 37.0268C17.6391 36.9176 16.6183 36.0282 16.3985 34.8736C16.1629 33.5941 16.7439 32.4083 17.906 31.8622C18.2515 31.7062 18.44 31.5657 18.4085 31.1444C18.3771 30.7388 18.6598 30.4891 19.0681 30.4735C19.5078 30.4579 19.7905 30.7388 19.7905 31.16C19.7905 31.5657 19.9475 31.7218 20.293 31.8778C21.2509 32.3459 21.7377 33.1416 21.832 34.2027Z" fill="#01A0C6"/>
</svg>
