<svg width="50" height="50" viewBox="0 0 50 50" fill="none" xmlns="http://www.w3.org/2000/svg">
<path d="M15.1009 35.6097C16.2174 35.3318 17.2921 35.1234 18.3109 34.8038C20.1113 34.2342 21.8419 34.3314 23.6423 34.8455C27.243 35.8736 30.8717 36.7906 34.4865 37.7493C35.4076 37.9855 36.2171 38.3745 36.8032 39.2359C37.2778 38.9719 37.7244 38.7218 38.171 38.4579C40.4319 37.1519 42.6929 35.8458 44.9678 34.5537C46.3774 33.7618 48.0103 34.0119 49.0849 35.1373C50.1038 36.2071 50.3131 37.8882 49.5036 39.1247C49.1966 39.5832 48.7639 40.0278 48.2894 40.3057C43.6 43.0428 38.8828 45.7381 34.1655 48.4335C33.3002 48.9337 32.3651 49.1699 31.3602 49.1699C27.1593 49.1699 22.9445 49.1976 18.7436 49.1421C17.9062 49.1282 17.0548 48.7947 16.2174 48.5585C15.8406 48.4474 15.5057 48.2251 15.073 48.0306C15.073 48.4335 15.087 48.753 15.073 49.0726C15.059 49.6561 14.752 49.9896 14.1658 49.9896C11.9886 50.0035 9.81141 50.0035 7.62024 49.9896C7.00615 49.9896 6.71307 49.6561 6.69911 49.0448C6.69911 48.8225 6.69911 48.6002 6.69911 48.3362C6.30833 48.3362 5.95942 48.3362 5.61051 48.3362C4.07529 48.3362 2.54008 48.3362 1.00487 48.3362C0.307043 48.3362 0 48.0306 0 47.3637C0 43.5568 0 39.7639 0 35.957C0 35.3179 0.320999 35.0122 0.976954 34.9983C2.86108 34.9983 4.7452 34.9983 6.69911 34.9983C6.69911 34.7066 6.68515 34.4287 6.69911 34.1647C6.72702 33.6645 7.03407 33.345 7.5365 33.345C9.76954 33.3311 12.0026 33.3311 14.2356 33.345C14.752 33.345 15.0451 33.6923 15.073 34.2203C15.1149 34.6649 15.1009 35.0956 15.1009 35.6097ZM15.1009 37.3325C15.1009 40.0417 15.1288 42.6954 15.087 45.3491C15.073 45.9882 15.2684 46.2939 15.8406 46.544C16.8455 46.9886 17.7945 47.5304 18.9389 47.5165C23.0561 47.4887 27.1733 47.5304 31.2904 47.4887C31.9883 47.4748 32.7698 47.2942 33.3839 46.9469C38.0872 44.2932 42.7487 41.5978 47.4241 38.9025C48.2894 38.4023 48.5686 37.4297 48.1219 36.6239C47.6614 35.8042 46.6426 35.5263 45.7633 36.0265C43.0697 37.5548 40.3901 39.1109 37.7104 40.653C37.5709 40.7364 37.4313 40.9587 37.4173 41.1254C37.2778 43.4179 35.3518 44.8489 33.1187 44.2654C29.8669 43.4179 26.629 42.5426 23.3771 41.6673C22.7491 41.5006 22.4839 41.0976 22.6374 40.5697C22.777 40.0973 23.2096 39.9028 23.8237 40.0556C24.9681 40.3613 26.1126 40.6669 27.257 40.9726C29.3365 41.5283 31.43 42.098 33.5095 42.6398C34.7795 42.9733 35.8542 42.098 35.7286 40.8615C35.6449 40.139 35.1703 39.6388 34.2911 39.4026C30.5786 38.4023 26.8523 37.4297 23.1398 36.4294C22.1629 36.1654 21.1859 35.8181 20.1671 36.0543C18.4784 36.4711 16.8176 36.9018 15.1009 37.3325ZM13.3843 48.3223C13.3843 43.8625 13.3843 39.4443 13.3843 35.0539C11.6955 35.0539 10.0626 35.0539 8.42972 35.0539C8.42972 39.4999 8.42972 43.9042 8.42972 48.3223C10.0905 48.3223 11.7234 48.3223 13.3843 48.3223ZM6.69911 36.7211C5.01038 36.7211 3.36351 36.7211 1.74456 36.7211C1.74456 40.0556 1.74456 43.3623 1.74456 46.6551C3.41934 46.6551 5.05225 46.6551 6.69911 46.6551C6.69911 43.3345 6.69911 40.0417 6.69911 36.7211Z" fill="#01A0C6"/>
<path d="M41.06 27.5097C40.8646 27.5097 40.739 27.5097 40.5994 27.5097C39.6085 27.4958 39.3852 27.2735 39.3852 26.2731C39.3852 23.7862 39.3852 21.3131 39.3852 18.8261C39.3852 17.7146 39.5666 17.5201 40.6831 17.5062C40.7808 17.5062 40.8925 17.4923 41.0739 17.4923C40.9064 12.185 38.8409 7.80848 34.5004 4.73798C29.0155 0.861657 23.1259 0.52821 17.2642 3.79322C12.0026 6.73867 9.47645 11.4625 9.21128 17.5062C9.54623 17.5062 9.79745 17.4923 10.0487 17.5062C10.579 17.534 10.914 17.8397 10.914 18.3538C10.9279 21.1186 10.9279 23.8695 10.914 26.6344C10.914 27.1206 10.6348 27.4819 10.1603 27.4819C8.42972 27.4819 6.69911 27.5791 4.99642 27.3846C2.48425 27.0929 0.725737 24.7309 0.879258 22.1745C1.03278 19.7014 3.12625 17.6313 5.61051 17.5201C6.23855 17.4923 6.86659 17.5201 7.5365 17.5201C7.71793 11.657 10.0626 6.8915 14.7799 3.3903C18.1295 0.903338 21.9535 -0.19426 26.1265 0.0280384C35.7844 0.542103 42.9162 8.66988 42.7906 17.4646C43.614 17.5062 44.4654 17.4785 45.2748 17.6035C47.8428 18.0064 49.6292 20.3267 49.4339 22.897C49.2385 25.4256 47.1171 27.4402 44.5491 27.4958C43.9769 27.5097 43.4047 27.4958 42.7487 27.4958C42.7487 28.2321 42.7487 28.9268 42.7487 29.6354C42.7487 31.511 41.7578 32.4975 39.8876 32.4975C38.1431 32.4975 36.3985 32.4975 34.6539 32.4975C34.3609 32.4975 34.1934 32.5531 34.0538 32.8448C33.6072 33.6923 32.8536 34.1369 31.8906 34.1647C31.3044 34.1925 30.7043 34.1786 30.1181 34.1647C28.7504 34.123 27.6897 33.0115 27.6897 31.6639C27.6897 30.3162 28.7643 29.2186 30.132 29.1769C30.7043 29.163 31.2765 29.163 31.8626 29.1769C32.8536 29.2047 33.6072 29.6354 34.0678 30.5107C34.2213 30.8025 34.3888 30.8441 34.6819 30.8441C36.4543 30.8302 38.2408 30.8441 40.0132 30.8441C40.7948 30.8441 41.0879 30.5524 41.0879 29.7743C41.06 29.0519 41.06 28.3155 41.06 27.5097ZM5.86172 19.2152C4.15903 19.0762 2.56799 20.6462 2.54008 22.4524C2.51217 24.3141 4.07529 25.898 5.86172 25.8007C5.86172 23.6055 5.86172 21.4104 5.86172 19.2152ZM44.4374 19.2013C44.4374 21.4381 44.4374 23.6333 44.4374 25.8285C46.2518 25.8424 47.7451 24.3558 47.7591 22.5496C47.773 20.7018 46.2797 19.1874 44.4374 19.2013ZM42.6929 25.8146C42.6929 23.5778 42.6929 21.3965 42.6929 19.2152C42.1207 19.2152 41.6043 19.2152 41.0739 19.2152C41.0739 21.4381 41.0739 23.6194 41.0739 25.8146C41.6322 25.8146 42.1486 25.8146 42.6929 25.8146ZM7.60628 19.2013C7.60628 21.4381 7.60628 23.6333 7.60628 25.8007C8.1785 25.8007 8.69489 25.8007 9.21128 25.8007C9.21128 23.5778 9.21128 21.3965 9.21128 19.2013C8.66698 19.2013 8.15059 19.2013 7.60628 19.2013ZM31.0392 30.858C30.7322 30.858 30.4112 30.8302 30.1041 30.858C29.6436 30.9136 29.3784 31.1915 29.3505 31.65C29.3226 32.0807 29.6436 32.4697 30.1041 32.4975C30.7182 32.5253 31.3323 32.5392 31.9324 32.4975C32.393 32.4697 32.6582 32.164 32.6861 31.7055C32.714 31.2748 32.393 30.8997 31.9324 30.858C31.6393 30.8302 31.3323 30.8441 31.0392 30.858Z" fill="#01A0C6"/>
<path d="M25.1217 28.3433C24.3401 28.3433 23.5585 28.3572 22.763 28.3433C22.1071 28.3294 21.814 28.0237 21.8 27.3707C21.7861 26.4815 21.8 25.6062 21.7861 24.717C21.7861 24.5781 21.6884 24.4531 21.6465 24.3141C21.493 24.3697 21.3115 24.3836 21.2139 24.4809C20.5998 25.0644 19.9996 25.6757 19.3995 26.287C18.8412 26.8428 18.4365 26.8289 17.8783 26.2731C16.8036 25.2033 15.729 24.1474 14.6543 23.0637C14.096 22.508 14.096 22.105 14.6543 21.5493C15.2544 20.9519 15.8685 20.3544 16.4686 19.7431C16.5663 19.6459 16.678 19.4236 16.6361 19.368C16.5524 19.2568 16.371 19.1735 16.2314 19.1735C15.3661 19.1596 14.4868 19.1735 13.6215 19.1596C12.9097 19.1596 12.6167 18.8539 12.6027 18.1453C12.6027 16.6032 12.6027 15.061 12.6027 13.5049C12.6027 12.7963 12.9097 12.5045 13.6215 12.4906C14.4868 12.4906 15.3661 12.4906 16.2314 12.4767C16.371 12.4767 16.6082 12.3934 16.6082 12.3239C16.6222 12.185 16.5663 11.9905 16.4547 11.8932C15.8546 11.268 15.2265 10.6706 14.6124 10.0454C14.11 9.53129 14.11 9.12837 14.6124 8.61431C15.701 7.51671 16.8036 6.41911 17.9062 5.33541C18.4226 4.82135 18.8273 4.82135 19.3437 5.33541C19.9717 5.94673 20.5719 6.57194 21.1999 7.16937C21.2976 7.26663 21.493 7.28052 21.6325 7.33609C21.6884 7.19716 21.7721 7.07212 21.7721 6.93318C21.7861 6.07177 21.7721 5.19647 21.7861 4.33507C21.7861 3.6126 22.0792 3.32083 22.8049 3.32083C24.3541 3.32083 25.9032 3.32083 27.4664 3.32083C28.1921 3.32083 28.4852 3.6126 28.4852 4.33507C28.4852 5.19647 28.4712 6.07177 28.4991 6.93318C28.4991 7.07212 28.5968 7.25273 28.6945 7.33609C28.7504 7.37778 28.9737 7.26663 29.0714 7.16937C29.6994 6.55805 30.2995 5.94673 30.9276 5.33541C31.4439 4.83524 31.8626 4.82135 32.3651 5.33541C33.4676 6.41911 34.5702 7.51671 35.6588 8.61431C36.1752 9.12837 36.1752 9.54518 35.6728 10.0454C35.0587 10.6706 34.4306 11.268 33.8305 11.8932C33.7328 11.9905 33.663 12.185 33.677 12.3239C33.6909 12.3934 33.9282 12.4767 34.0538 12.4767C34.9191 12.4906 35.7984 12.4767 36.6637 12.4906C37.3894 12.4906 37.6825 12.7824 37.6825 13.5049C37.6825 15.0471 37.6825 16.5893 37.6825 18.1453C37.6825 18.8678 37.3755 19.1596 36.6637 19.1735C35.7984 19.1735 34.9191 19.1596 34.0538 19.1874C33.9142 19.1874 33.7328 19.2707 33.6351 19.3819C33.5933 19.4375 33.7049 19.6598 33.8026 19.757C34.4027 20.3683 35.0168 20.9658 35.6169 21.5632C36.1752 22.1189 36.1752 22.5218 35.6169 23.0776C34.5423 24.1474 33.4816 25.2172 32.393 26.287C31.8347 26.8428 31.416 26.8289 30.8717 26.287C30.2716 25.6896 29.6715 25.0783 29.0574 24.4809C28.9597 24.3836 28.7364 24.2724 28.6806 24.328C28.5689 24.4114 28.4852 24.592 28.4852 24.7309C28.4712 25.5923 28.4852 26.4676 28.4712 27.329C28.4712 28.0376 28.1642 28.3294 27.4524 28.3433C26.6848 28.3433 25.9032 28.3433 25.1217 28.3433ZM33.9561 9.44793C33.1466 8.6421 32.379 7.87795 31.5835 7.08601C30.9973 7.66954 30.3553 8.29476 29.7413 8.91997C29.3644 9.30899 28.9597 9.37846 28.4712 9.12837C28.1781 8.97554 27.8711 8.8505 27.5641 8.75325C27.0477 8.58652 26.8104 8.25308 26.8244 7.69733C26.8383 6.82203 26.8244 5.93284 26.8244 5.04364C25.6799 5.04364 24.5913 5.04364 23.4748 5.04364C23.4748 5.96062 23.4608 6.83592 23.4748 7.72512C23.4888 8.25307 23.2515 8.57263 22.7491 8.73935C22.456 8.83661 22.1629 8.96165 21.8838 9.08669C21.2278 9.39235 21.0045 9.36457 20.4881 8.8644C19.874 8.25307 19.2599 7.64176 18.7017 7.07212C17.8922 7.87795 17.1246 8.6421 16.3291 9.43404C16.8873 9.98978 17.4735 10.5733 18.0736 11.1568C18.6319 11.7126 18.6738 11.921 18.3388 12.6157C18.2272 12.8658 18.1155 13.1297 18.0178 13.3798C17.7806 14.0189 17.5852 14.1579 16.9013 14.1579C16.036 14.1579 15.1707 14.1579 14.2914 14.1579C14.2914 15.2972 14.2914 16.3809 14.2914 17.4923C15.2126 17.4923 16.1058 17.5062 16.985 17.4923C17.5154 17.4785 17.8364 17.7146 18.0039 18.2148C18.1016 18.5066 18.2272 18.7983 18.3528 19.0762C18.6598 19.7292 18.6319 19.9515 18.1295 20.4656C17.5154 21.0769 16.9013 21.6882 16.343 22.2301C17.1525 23.0359 17.9201 23.814 18.7017 24.6059C19.2599 24.0501 19.8461 23.4666 20.4323 22.8692C20.9905 22.3134 21.1999 22.2718 21.8977 22.6052C22.1489 22.7164 22.4141 22.8275 22.6653 22.9248C23.3073 23.161 23.4469 23.3555 23.4469 24.0363C23.4469 24.8977 23.4469 25.7591 23.4469 26.6344C24.5913 26.6344 25.6799 26.6344 26.7406 26.6344C26.7685 26.5788 26.7825 26.5649 26.7825 26.551C26.7825 25.6896 26.8104 24.8143 26.7964 23.9529C26.7825 23.4249 27.0197 23.1054 27.5222 22.9387C27.8153 22.8414 28.1084 22.7164 28.3875 22.5913C29.0434 22.2857 29.2667 22.3134 29.7831 22.8136C30.3972 23.4249 31.0113 24.0363 31.5556 24.592C32.3651 23.7862 33.1327 23.022 33.9422 22.2162C33.3839 21.6743 32.7977 21.0908 32.1976 20.5073C31.6254 19.9515 31.5975 19.7431 31.9324 19.0484C32.0441 18.7983 32.1557 18.5344 32.2534 18.2843C32.4907 17.6452 32.6861 17.5062 33.3699 17.5062C34.2352 17.5062 35.1005 17.5062 35.9798 17.5062C35.9798 16.367 35.9798 15.2833 35.9798 14.1718C35.0587 14.1718 34.1794 14.1579 33.2862 14.1718C32.7559 14.1857 32.4349 13.9495 32.2674 13.4632C32.1697 13.1714 32.0441 12.8797 31.9185 12.6018C31.6114 11.9488 31.6393 11.7265 32.1418 11.2124C32.7838 10.6011 33.3979 9.98978 33.9561 9.44793Z" fill="#01A0C6"/>
<path d="M10.0766 46.2244C10.0766 46.0855 10.0626 45.9465 10.0766 45.8076C10.1184 45.3491 10.4534 45.0295 10.8861 45.0157C11.3466 45.0018 11.6955 45.3352 11.7374 45.8354C11.7514 46.1271 11.7514 46.4328 11.7374 46.7246C11.6955 47.1831 11.3606 47.5165 10.9279 47.5165C10.4674 47.5304 10.1184 47.197 10.0766 46.6968C10.0766 46.544 10.0766 46.3911 10.0766 46.2244Z" fill="#01A0C6"/>
<path d="M20.1252 15.8529C20.1252 13.0881 22.3722 10.8512 25.1356 10.8512C27.913 10.8373 30.1739 13.0881 30.1739 15.8251C30.1739 18.5899 27.9269 20.8268 25.1635 20.8407C22.4002 20.8546 20.1252 18.6038 20.1252 15.8529ZM28.4991 15.8251C28.4852 13.9773 26.9779 12.4906 25.1217 12.5045C23.2934 12.5184 21.8 14.005 21.8 15.8251C21.8 17.673 23.2934 19.1735 25.1496 19.1735C27.0058 19.1735 28.5131 17.6591 28.4991 15.8251Z" fill="#01A0C6"/>
</svg>
