<svg width="52" height="53" viewBox="0 0 52 53" fill="none" xmlns="http://www.w3.org/2000/svg">
<path d="M52 48.3468C52 49.9022 52 51.4576 52 53C51.5544 53 51.096 53 50.5739 53C50.5739 51.9372 50.5739 50.9261 50.5739 49.9022C50.3066 49.9022 50.1028 49.9022 49.8991 49.9022C44.0676 49.9022 38.236 49.9022 32.4172 49.9022C32.1371 49.9022 31.8443 49.8503 31.5769 49.7466C28.4574 48.4894 25.3506 47.2321 22.2439 45.9619C22.0911 45.897 21.951 45.8322 21.7346 45.7285C21.9765 45.6249 22.1293 45.5471 22.2948 45.4823C25.3124 44.2639 28.3301 43.0325 31.3477 41.8271C31.7424 41.6716 32.2008 41.5808 32.621 41.5808C38.3761 41.5679 44.144 41.5679 49.8991 41.5679C50.1156 41.5679 50.332 41.5679 50.5612 41.5679C50.5612 30.0968 50.5612 18.6777 50.5612 7.2585C37.4848 7.2585 24.4594 7.2585 11.3957 7.2585C11.3957 10.5378 11.3957 13.7911 11.3957 17.0575C11.905 17.0575 12.3888 17.0575 12.9109 17.0575C12.9109 14.2967 12.9109 11.5747 12.9109 8.83981C24.9814 8.83981 37.001 8.83981 49.0333 8.83981C49.0333 13.506 49.0333 18.1333 49.0333 22.8254C39.3056 22.8254 29.6033 22.8254 19.8883 22.8254C19.8883 23.3568 19.8883 23.8364 19.8883 24.3937C23.1734 24.3937 26.4202 24.3937 29.6797 24.3937C29.6797 28.0619 29.6797 31.6522 29.6797 35.2945C26.3947 35.2945 23.1479 35.2945 19.8629 35.2945C19.8629 35.5537 19.8629 35.7481 19.8629 35.9555C19.8629 40.7124 19.8629 45.4823 19.8629 50.2392C19.8629 51.976 18.9589 52.8963 17.2654 52.8963C12.3888 52.8963 7.49951 52.8963 2.62292 52.8963C0.891283 52.9093 0 52.0149 0 50.2392C0 40.1032 0 29.9543 0 19.8183C0 19.4943 0.0127326 19.1573 0.101861 18.8462C0.381978 17.7444 1.28599 17.1223 2.57199 17.1223C4.78746 17.1093 7.01567 17.1223 9.23115 17.1223C9.42213 17.1223 9.61312 17.1223 9.81685 17.1223C9.82958 16.9149 9.84231 16.7982 9.84231 16.6686C9.84231 11.2377 9.84231 5.8068 9.84231 0.362925C9.84231 0.24627 9.82958 0.129616 9.81685 0C23.8737 0.0129616 37.9432 0.0129616 52 0.0129616C52 14.4003 52 28.7877 52 43.1751C51.8854 43.1621 51.7708 43.1492 51.6435 43.1492C45.8883 43.1492 40.1205 43.1492 34.3653 43.1492C34.238 43.1492 34.1107 43.1621 33.8815 43.1881C34.6836 44.0824 35.4221 44.912 36.1606 45.7545C35.3839 46.6229 34.6582 47.4524 33.856 48.3597C39.9931 48.3468 45.9902 48.3468 52 48.3468ZM47.5181 10.4082C36.4662 10.4082 25.4907 10.4082 14.4642 10.4082C14.4642 12.6505 14.4642 14.854 14.4642 17.1223C15.4447 17.1223 16.3869 17.1093 17.3291 17.1223C18.9207 17.1352 19.8501 18.0944 19.8501 19.7016C19.8501 20.2071 19.8501 20.7256 19.8501 21.2311C29.1068 21.2311 38.2997 21.2311 47.5054 21.2311C47.5181 17.6148 47.5181 14.0245 47.5181 10.4082ZM18.3222 42.216C18.3222 36.4091 18.3222 30.6412 18.3222 24.8604C12.7199 24.8604 7.143 24.8604 1.57884 24.8604C1.57884 30.6672 1.57884 36.4351 1.57884 42.216C2.71205 42.216 3.80705 42.216 4.94025 42.216C4.94025 42.0086 4.94025 41.8141 4.94025 41.6327C4.94025 40.3236 4.92752 39.0144 4.94025 37.7053C4.95299 35.7351 5.74241 34.1798 7.37218 33.091C7.44858 33.0391 7.51224 32.9614 7.57591 32.8966C5.69148 31.0171 6.03526 28.5674 7.39765 27.1934C8.81097 25.7547 11.0646 25.7029 12.6053 27.0379C14.286 28.5155 14.2987 30.6024 12.6053 32.9225C12.7326 33.0132 12.8599 33.091 12.9873 33.1817C14.2987 34.1149 15.1009 35.3722 15.2282 36.9924C15.3046 38.0164 15.2791 39.0533 15.2919 40.0902C15.3046 40.7902 15.2919 41.4901 15.2919 42.216C16.3105 42.216 17.2909 42.216 18.3222 42.216ZM11.4084 5.66422C24.4721 5.66422 37.5103 5.66422 50.5739 5.66422C50.5739 4.26437 50.5739 2.89044 50.5739 1.50355C37.5103 1.50355 24.4594 1.50355 11.4084 1.50355C11.4084 2.9034 11.4084 4.27733 11.4084 5.66422ZM1.55338 43.8102C1.54065 43.9917 1.52791 44.1213 1.52791 44.2639C1.52791 46.26 1.52791 48.269 1.52791 50.2651C1.52791 51.1335 1.7571 51.3668 2.62292 51.3668C7.49951 51.3668 12.3761 51.3668 17.2527 51.3668C18.1058 51.3668 18.3477 51.1206 18.3477 50.2651C18.3477 48.269 18.3477 46.26 18.3477 44.2639C18.3477 44.1213 18.335 43.9658 18.3222 43.8102C12.7199 43.8102 7.16846 43.8102 1.55338 43.8102ZM28.1773 25.988C25.4016 25.988 22.6513 25.988 19.9265 25.988C19.9265 28.5933 19.9265 31.1467 19.9265 33.6872C22.7023 33.6872 25.4398 33.6872 28.1773 33.6872C28.1773 31.1079 28.1773 28.5674 28.1773 25.988ZM18.3477 23.2272C18.3477 22.0866 18.3477 21.0108 18.3477 19.922C18.3477 18.8851 18.144 18.6777 17.1254 18.6777C14.3369 18.6777 11.5357 18.6777 8.74731 18.6777C6.69735 18.6777 4.6474 18.6777 2.59745 18.6777C1.78257 18.6777 1.54065 18.9239 1.52791 19.7664C1.52791 20.4405 1.52791 21.1145 1.52791 21.7885C1.52791 22.268 1.52791 22.7347 1.52791 23.2402C7.16846 23.2272 12.7199 23.2272 18.3477 23.2272ZM6.5191 42.203C8.91283 42.203 11.3066 42.203 13.7003 42.203C13.7003 40.4921 13.7767 38.807 13.6748 37.122C13.5857 35.4241 12.1851 34.0372 10.5808 33.8687C8.76004 33.6743 7.16846 34.7112 6.65916 36.4351C6.59549 36.6684 6.5191 36.9017 6.5191 37.135C6.50637 38.82 6.5191 40.4921 6.5191 42.203ZM12.3634 29.9672C12.3761 28.6581 11.383 27.6212 10.1097 27.6082C8.84917 27.5953 7.80509 28.6322 7.79236 29.9154C7.77963 31.1856 8.83643 32.2614 10.0842 32.2614C11.3193 32.2614 12.3506 31.2375 12.3634 29.9672ZM29.8325 44.1213C29.8325 45.1323 29.8325 46.1304 29.8452 47.1284C29.8452 47.2321 29.9471 47.3876 30.0362 47.4265C30.571 47.6728 31.1312 47.8931 31.6787 48.1005C31.7933 48.1394 31.9971 48.0876 32.0735 48.0098C32.761 47.271 33.4231 46.5192 34.1107 45.7415C33.4231 44.9638 32.761 44.1991 32.0735 43.4603C31.9971 43.3825 31.8061 43.3306 31.6915 43.3695C31.0676 43.6028 30.4691 43.8621 29.8325 44.1213ZM25.8217 45.7415C26.713 46.1044 27.477 46.4155 28.2664 46.7266C28.2664 46.0267 28.2664 45.4175 28.2664 44.7564C27.4643 45.0805 26.713 45.3786 25.8217 45.7415Z" fill="#01A0C6"/>
<path d="M32.2899 35.2556C32.2899 31.6393 32.2899 28.0489 32.2899 24.4326C37.8795 24.4326 43.431 24.4326 49.0333 24.4326C49.0333 28.036 49.0333 31.6263 49.0333 35.2556C43.4691 35.2556 37.905 35.2556 32.2899 35.2556ZM33.8306 33.7002C38.4143 33.7002 42.9598 33.7002 47.5181 33.7002C47.5181 31.1079 47.5181 28.5544 47.5181 25.988C42.9344 25.988 38.4016 25.988 33.8306 25.988C33.8306 28.5674 33.8306 31.1079 33.8306 33.7002Z" fill="#01A0C6"/>
<path d="M36.8227 36.9795C36.8227 37.472 36.8227 37.9516 36.8227 38.4571C36.3389 38.4571 35.8805 38.4571 35.3712 38.4571C35.3712 37.9905 35.3712 37.4979 35.3712 36.9795C35.8296 36.9795 36.3134 36.9795 36.8227 36.9795Z" fill="#01A0C6"/>
<path d="M39.8786 36.9924C39.8786 37.485 39.8786 37.9645 39.8786 38.47C39.382 38.47 38.9109 38.47 38.4016 38.47C38.4016 37.9775 38.4016 37.5109 38.4016 36.9924C38.8727 36.9924 39.3438 36.9924 39.8786 36.9924Z" fill="#01A0C6"/>
<path d="M42.9216 38.483C42.4123 38.483 41.954 38.483 41.4574 38.483C41.4574 37.9905 41.4574 37.5109 41.4574 36.9924C41.9285 36.9924 42.3996 36.9924 42.9216 36.9924C42.9216 37.459 42.9216 37.9516 42.9216 38.483Z" fill="#01A0C6"/>
<path d="M44.5005 38.47C44.5005 37.9516 44.5005 37.485 44.5005 36.9795C44.9843 36.9795 45.4554 36.9795 45.9647 36.9795C45.9647 37.459 45.9647 37.9386 45.9647 38.47C45.5064 38.47 45.0225 38.47 44.5005 38.47Z" fill="#01A0C6"/>
<path d="M45.8501 18.2629C45.8501 18.8203 45.8501 19.2869 45.8501 19.7924C41.572 19.7924 37.332 19.7924 33.0284 19.7924C33.0284 19.3646 33.0029 18.9499 33.0411 18.5481C33.0539 18.4444 33.2449 18.2888 33.3595 18.2888C33.8178 18.2629 34.2762 18.2759 34.7346 18.2759C38.2233 18.2759 41.712 18.2759 45.2008 18.2759C45.3918 18.2629 45.5955 18.2629 45.8501 18.2629Z" fill="#01A0C6"/>
<path d="M31.0166 16.6686C31.0166 16.1761 31.0166 15.7095 31.0166 15.204C34.9383 15.204 38.8472 15.204 42.7943 15.204C42.7943 15.6835 42.7943 16.1631 42.7943 16.6686C38.8727 16.6686 34.9765 16.6686 31.0166 16.6686Z" fill="#01A0C6"/>
<path d="M35.8678 13.6097C35.8678 13.1042 35.8678 12.6376 35.8678 12.1321C39.2037 12.1321 42.5142 12.1321 45.8629 12.1321C45.8629 12.6246 45.8629 13.0912 45.8629 13.6097C42.5269 13.6097 39.2165 13.6097 35.8678 13.6097Z" fill="#01A0C6"/>
<path d="M31.4623 19.7924C30.9785 19.7924 30.5201 19.7924 29.9726 19.7924C29.9726 19.3517 29.9598 18.9369 29.9853 18.5221C29.9853 18.4314 30.1381 18.2888 30.2272 18.2888C30.6219 18.2629 31.0294 18.2759 31.4623 18.2759C31.4623 18.7943 31.4623 19.2739 31.4623 19.7924Z" fill="#01A0C6"/>
<path d="M28.4065 18.3018C28.4065 18.7943 28.4065 19.2609 28.4065 19.7794C27.9226 19.7794 27.4388 19.7794 26.9422 19.7794C26.9422 19.2869 26.9422 18.8203 26.9422 18.3018C27.4261 18.3018 27.9099 18.3018 28.4065 18.3018Z" fill="#01A0C6"/>
<path d="M44.3732 16.6686C44.3732 16.1631 44.3732 15.6835 44.3732 15.178C44.857 15.178 45.3281 15.178 45.8374 15.178C45.8374 15.6576 45.8374 16.1502 45.8374 16.6686C45.3663 16.6686 44.8952 16.6686 44.3732 16.6686Z" fill="#01A0C6"/>
<path d="M49.0206 2.83859C49.0206 3.33113 49.0206 3.81071 49.0206 4.31622C40.4133 4.31622 31.8061 4.31622 23.1734 4.31622C23.1734 3.8496 23.1734 3.35706 23.1734 2.83859C31.7679 2.83859 40.3751 2.83859 49.0206 2.83859Z" fill="#01A0C6"/>
<path d="M14.5788 4.32918C14.1205 4.32918 13.6494 4.32918 13.1401 4.32918C13.1401 3.83664 13.1401 3.34409 13.1401 2.82563C13.6112 2.82563 14.0695 2.82563 14.5788 2.82563C14.5788 3.31817 14.5788 3.81071 14.5788 4.32918Z" fill="#01A0C6"/>
<path d="M20.7287 4.32918C20.2194 4.32918 19.761 4.32918 19.2644 4.32918C19.2644 3.82367 19.2644 3.35706 19.2644 2.83859C19.7483 2.83859 20.2194 2.83859 20.7287 2.83859C20.7287 3.33113 20.7287 3.79775 20.7287 4.32918Z" fill="#01A0C6"/>
<path d="M17.6729 2.82563C17.6729 3.34409 17.6729 3.82367 17.6729 4.32918C17.1763 4.32918 16.7179 4.32918 16.2086 4.32918C16.2086 3.82367 16.2086 3.34409 16.2086 2.82563C16.6925 2.82563 17.1636 2.82563 17.6729 2.82563Z" fill="#01A0C6"/>
<path d="M12.3888 47.5691C12.3888 48.8653 11.3702 49.9022 10.1097 49.9022C8.84917 49.9022 7.80509 48.8393 7.81783 47.5561C7.83056 46.2989 8.84917 45.2619 10.0842 45.249C11.3448 45.236 12.3761 46.2729 12.3888 47.5691ZM10.1224 48.3468C10.5299 48.3338 10.8482 47.9968 10.8482 47.5821C10.8482 47.1673 10.5171 46.8173 10.1097 46.8173C9.70225 46.8044 9.33301 47.1932 9.34574 47.6209C9.3712 48.0098 9.71498 48.3468 10.1224 48.3468Z" fill="#01A0C6"/>
<path d="M7.58864 21.7107C7.58864 21.2052 7.58864 20.7256 7.58864 20.2201C10.3007 20.2201 12.9745 20.2201 15.6866 20.2201C15.6866 20.7256 15.6866 21.1922 15.6866 21.7107C13 21.7107 10.3134 21.7107 7.58864 21.7107Z" fill="#01A0C6"/>
<path d="M4.54554 20.2201C5.05485 20.2201 5.51322 20.2201 6.00979 20.2201C6.00979 20.7126 6.00979 21.1922 6.00979 21.7107C5.53869 21.7107 5.05485 21.7107 4.54554 21.7107C4.54554 21.2311 4.54554 20.7386 4.54554 20.2201Z" fill="#01A0C6"/>
</svg>
