<svg width="56" height="56" viewBox="0 0 56 56" fill="none" xmlns="http://www.w3.org/2000/svg">
<path d="M28.2122 0.014578C28.7975 0.306139 29.017 0.772635 29.0024 1.42865C28.9731 2.90103 29.0024 4.37341 28.9878 5.84579C28.9878 6.64758 28.5488 7.12865 27.8757 7.11408C27.2318 7.0995 26.7929 6.61842 26.7929 5.86037C26.7929 4.40256 26.8221 2.94476 26.7782 1.48696C26.7636 0.81637 26.9684 0.320717 27.5538 0C27.7732 0.014578 27.9927 0.014578 28.2122 0.014578Z" fill="#01A0C6"/>
<path d="M10.8577 31.6343C8.76519 29.5497 9.33587 26.2842 12.1307 25.1034C11.4576 23.9809 11.282 22.7855 11.7796 21.5609C12.2624 20.3509 13.1843 19.5929 14.5159 19.243C14.2964 18.1934 14.3696 17.1875 14.9256 16.2545C15.4817 15.3069 16.3157 14.7384 17.3839 14.4468C17.3547 14.0678 17.2961 13.6888 17.3108 13.3097C17.3547 10.8461 19.5789 9.14042 22.0225 9.65065C22.242 9.69439 22.5493 9.63607 22.7396 9.50487C23.6907 8.86344 24.7296 8.95091 25.7539 9.14042C28.1098 9.56318 30.4511 10.0297 32.8069 10.4524C33.3045 10.5399 33.8312 10.5108 34.3288 10.5982C36.4798 10.9918 37.7967 12.8578 37.4456 15.0008C37.4309 15.1174 37.4163 15.2486 37.4017 15.3652C39.8892 16.4877 40.6648 17.756 40.2843 20.2051C41.3086 20.4821 42.1573 21.0361 42.728 21.9545C43.2987 22.8875 43.4011 23.908 43.167 24.9867C44.6303 25.4095 45.6546 26.2842 46.0497 27.7711C46.4448 29.2435 45.9911 30.4972 44.9376 31.5906C45.0107 31.6926 45.0839 31.7947 45.1717 31.8821C46.2106 32.9172 47.2496 33.9376 48.2739 34.9727C48.4787 35.1768 48.6397 35.2351 48.9323 35.1185C50.4395 34.5499 51.8004 34.8123 52.9856 35.9203C53.6295 36.5325 54.2733 37.174 54.8879 37.8154C56.3658 39.3461 56.3805 41.5474 54.8733 43.0635C50.9517 46.985 47.0154 50.9065 43.0792 54.7988C41.572 56.2858 39.3478 56.2566 37.8114 54.7696C37.1822 54.1574 36.553 53.5451 35.953 52.9182C34.8116 51.7374 34.519 50.3671 35.1336 48.851C35.236 48.574 35.1921 48.4282 35.0019 48.2387C33.6557 46.9267 32.3387 45.5855 30.9925 44.2735C30.8608 44.1423 30.6559 44.0402 30.4803 44.0402C29.3097 43.9965 28.1391 43.9673 26.9684 43.9527C26.5295 43.9382 26.0758 43.8944 25.6515 43.9819C25.2857 44.0548 24.8613 44.2152 24.5979 44.4776C23.3395 45.673 22.1396 46.9121 20.8958 48.1221C20.6617 48.3553 20.6471 48.5157 20.7934 48.8218C21.4665 50.2359 21.2177 51.7811 20.1349 52.9182C19.4764 53.618 18.7887 54.3031 18.0717 54.9592C16.5499 56.3732 14.3842 56.3441 12.8917 54.8863C12.1161 54.1428 11.3552 53.3701 10.6089 52.6121C10.0529 52.0581 10.0236 51.3875 10.5065 50.921C10.9748 50.4691 11.6186 50.5129 12.16 51.0377C12.8917 51.752 13.6087 52.4809 14.3403 53.1952C15.1451 53.9824 15.9353 53.9824 16.7401 53.1952C17.2522 52.6996 17.7498 52.1893 18.2473 51.6937C19.213 50.7315 19.213 50.1338 18.2765 49.1717C16.7986 47.6556 15.3207 46.154 13.8282 44.6525C11.6479 42.4658 9.45294 40.2937 7.27264 38.1215C6.99462 37.8591 6.7166 37.5967 6.40931 37.3635C5.97032 37.0136 5.19478 37.0428 4.72653 37.4655C3.98025 38.1653 3.24861 38.8796 2.56087 39.6231C2.01945 40.2208 2.10725 41.008 2.72183 41.6348C3.49737 42.4366 4.30218 43.1947 5.07772 43.9965C5.4728 44.4047 5.50207 44.9295 5.23868 45.3522C4.97529 45.7604 4.46314 45.9645 3.99489 45.8042C3.80466 45.7458 3.62907 45.6292 3.49737 45.498C2.6633 44.6816 1.81459 43.8653 1.00979 43.0198C-0.321801 41.6203 -0.336433 39.4773 0.965889 38.0632C1.65363 37.3197 2.38527 36.5908 3.13155 35.9057C4.18511 34.9435 5.42891 34.6811 6.80439 35.1185C7.14095 35.2205 7.33117 35.1768 7.5653 34.9289C8.6335 33.8356 9.74559 32.7568 10.8577 31.6343ZM33.3776 43.355C34.4019 44.3755 35.5872 45.5709 36.7432 46.7371C40.0795 43.3988 43.445 40.0313 46.7228 36.7512C45.5961 35.6141 44.4401 34.4479 43.2548 33.2671C43.0353 33.4857 42.7865 33.7481 42.4939 33.9814C41.9671 34.4041 41.2794 34.2875 40.8989 33.7627C40.577 33.2962 40.6355 32.7568 41.1038 32.2757C41.9086 31.4594 42.7426 30.6722 43.5328 29.8266C44.1474 29.1706 44.1181 28.2085 43.5182 27.6108C42.9036 26.9985 41.9817 26.9548 41.294 27.5379C40.9721 27.8149 40.694 28.121 40.3868 28.4126C39.8161 28.9665 39.1722 29.0103 38.6894 28.5438C38.2211 28.0773 38.2796 27.4067 38.8357 26.8527C39.4356 26.2404 40.0648 25.6573 40.6502 25.0305C41.2501 24.3745 41.2208 23.4123 40.6355 22.8C40.0063 22.1732 39.0552 22.144 38.3674 22.7709C38.0309 23.077 37.7236 23.4123 37.387 23.733C36.8017 24.3016 36.1286 24.3599 35.6457 23.8788C35.1921 23.3977 35.2506 22.7563 35.8067 22.1878C36.4652 21.5317 37.1383 20.8903 37.7675 20.2051C38.3967 19.52 38.3382 18.5578 37.6797 17.9455C37.0505 17.3624 36.114 17.3624 35.4409 17.9747C35.0897 18.2954 34.7677 18.6453 34.4312 18.9806C33.8898 19.5054 33.2313 19.5346 32.7777 19.0972C32.3094 18.6307 32.3387 17.9601 32.8947 17.4062C33.524 16.7647 34.1678 16.1379 34.797 15.511C35.1775 15.132 35.3677 14.6655 35.2945 14.1261C35.2067 13.4993 34.8702 13.0473 34.2702 12.8141C33.6264 12.5663 33.0411 12.712 32.5436 13.1785C31.6071 14.097 30.6852 15.0299 29.7341 15.9484C29.4853 16.1962 29.4121 16.3711 29.5877 16.7356C30.5389 18.8057 29.4853 21.2256 27.3343 21.9253C26.9538 22.042 26.5587 22.0857 26.1344 22.1732C26.1197 22.2606 26.0758 22.3627 26.0612 22.4647C25.7539 24.5057 24.6126 25.6427 22.5786 25.9343C22.2567 25.978 22.2128 26.1384 22.1835 26.4008C21.9786 28.2085 20.6617 29.5497 18.8472 29.7683C18.6863 29.7829 18.5399 29.8266 18.3936 29.8558C18.1887 33.0775 14.9988 34.4187 12.7746 33.2379C12.6575 33.1796 12.3649 33.2816 12.2478 33.3837C11.3698 34.2292 10.5065 35.1039 9.62853 35.964C9.3944 36.1827 9.11638 36.3576 8.97005 36.4742C12.4527 39.9729 15.8182 43.3405 19.1984 46.7371C20.4568 45.4689 21.7592 44.2006 23.0322 42.8885C23.72 42.1888 24.5394 41.7952 25.5052 41.766C26.5295 41.7369 27.5538 41.7369 28.5781 41.8244C30.3633 41.9847 31.9582 41.7515 33.1435 40.2208C33.5971 39.6376 34.3288 39.6522 34.7824 40.1187C35.2506 40.5852 35.2067 41.1975 34.6946 41.766C34.2263 42.3054 33.7873 42.8594 33.3776 43.355ZM50.3371 36.9116C49.942 37.1302 49.5177 37.2614 49.2396 37.5384C45.318 41.4016 41.4257 45.2939 37.5187 49.1863C36.8456 49.8568 36.8602 50.6878 37.5187 51.373C38.1187 51.9852 38.7186 52.5975 39.3478 53.1806C40.0502 53.8658 40.8843 53.8804 41.572 53.1806C45.479 49.3029 49.386 45.4251 53.2783 41.5328C53.9514 40.8622 53.9368 40.0313 53.2783 39.3461C52.6637 38.7192 52.0638 38.0924 51.4053 37.5093C51.1419 37.2614 50.7468 37.1302 50.3371 36.9116ZM22.0079 23.7768C22.9151 23.7476 23.4419 23.456 23.7053 22.8292C23.9833 22.1878 23.8955 21.5609 23.398 21.0507C22.0664 19.6949 20.7202 18.3537 19.3594 17.0417C18.6716 16.3711 17.6766 16.4149 17.0474 17.0709C16.4328 17.6977 16.4328 18.6599 17.0913 19.3305C18.4082 20.6716 19.7398 21.9982 21.1007 23.2957C21.3933 23.5581 21.8323 23.6747 22.0079 23.7768ZM25.8856 19.9427C26.8221 19.8844 27.3196 19.5783 27.5977 18.9514C27.9342 18.1788 27.6562 17.5665 26.9099 17.2166C24.6857 16.1816 23.0468 14.5926 22.1103 12.3039C22.0225 12.1143 21.7884 11.9102 21.5836 11.8374C20.8958 11.6041 20.1495 11.8957 19.7691 12.5079C19.3594 13.164 19.4472 13.9657 20.0325 14.5489C21.6567 16.1816 23.2663 17.7998 24.9198 19.4034C25.2271 19.6949 25.6808 19.8261 25.8856 19.9427ZM20.0764 25.9343C19.93 25.6136 19.8423 25.22 19.6081 24.9867C18.5546 23.8788 17.4717 22.7855 16.3596 21.7358C15.7597 21.1673 14.8086 21.2402 14.2086 21.8087C13.6233 22.3773 13.4916 23.3248 14.0623 23.9371C15.1305 25.0742 16.2572 26.1821 17.3986 27.2609C17.8815 27.7128 18.5107 27.7128 19.096 27.4358C19.6959 27.1443 19.9886 26.6341 20.0764 25.9343ZM14.5159 31.4448C15.1305 31.4302 15.6134 31.1824 15.9207 30.6576C16.2426 30.1036 16.2865 29.5059 15.8914 29.0103C15.4231 28.4126 14.8671 27.8732 14.2818 27.3921C13.7989 26.9985 13.1843 27.0277 12.6283 27.3338C12.0722 27.6399 11.7942 28.1356 11.8088 28.777C11.8235 29.7537 13.5355 31.4448 14.5159 31.4448ZM27.3928 15.0299C28.3586 14.0532 29.2804 13.1348 30.2316 12.1872C28.2269 11.8957 26.2514 11.298 24.0711 11.1813C24.7004 13.0619 25.9734 14.1698 27.3928 15.0299Z" fill="#01A0C6"/>
<path d="M8.86762 1.60358C8.89689 0.932994 9.11638 0.597699 9.54073 0.422763C9.97972 0.233248 10.4041 0.320717 10.7553 0.656011C11.3113 1.18082 11.8381 1.73479 12.3941 2.27417C13.1404 3.01765 13.9013 3.76113 14.6476 4.50461C15.2183 5.07315 15.2622 5.71459 14.8086 6.19566C14.3403 6.67674 13.6526 6.633 13.0819 6.04988C11.8381 4.82533 10.5943 3.60077 9.36514 2.34706C9.10175 2.08466 8.97005 1.74936 8.86762 1.60358Z" fill="#01A0C6"/>
<path d="M40.5477 5.51049C40.7672 5.11689 40.8843 4.79617 41.0891 4.5775C42.3622 3.28006 43.6645 1.98261 44.9668 0.714323C45.479 0.21867 46.1375 0.204092 46.5765 0.641433C47.0154 1.07877 47.0154 1.74936 46.5326 2.24502C45.2302 3.55704 43.9279 4.85448 42.611 6.15193C42.2451 6.51638 41.7915 6.64758 41.3672 6.39975C41.0452 6.22482 40.8404 5.84579 40.5477 5.51049Z" fill="#01A0C6"/>
<path d="M7.59457 49.23C6.96535 49.23 6.48247 48.7489 6.48247 48.1221C6.4971 47.5389 6.99462 47.0433 7.5653 47.0433C8.16525 47.0433 8.6774 47.5535 8.6774 48.1658C8.66276 48.7635 8.19451 49.23 7.59457 49.23Z" fill="#01A0C6"/>
<path d="M37.4895 38.5151C36.8895 38.5151 36.4066 38.0632 36.392 37.4509C36.3774 36.8387 36.8749 36.3284 37.4895 36.3284C38.0748 36.3284 38.5723 36.8241 38.6015 37.4072C38.6162 38.0049 38.1187 38.5151 37.4895 38.5151Z" fill="#01A0C6"/>
</svg>
