<svg width="49" height="57" viewBox="0 0 49 57" fill="none" xmlns="http://www.w3.org/2000/svg">
<path d="M20.6599 0C21.2881 0.267188 21.9612 0.475 22.5295 0.83125C23.4718 1.425 23.9954 2.34531 24.2646 3.45859C24.4889 3.45859 24.7133 3.45859 24.9227 3.45859C29.5445 3.45859 34.1514 3.45859 38.7732 3.45859C39.7604 3.45859 40.0147 3.69609 40.0147 4.66094C40.0147 21.7164 40.0147 38.757 40.0147 55.8125C40.0147 56.7477 39.7455 57 38.8181 57C26.2689 57 13.7346 57 1.18537 57C0.272972 57 0.00373934 56.7477 0.00373934 55.857C0.00373934 49.1773 0.00373934 42.4977 0.00373934 35.818C0.00373934 35.6844 -0.011218 35.5508 0.0186967 35.432C0.0785262 34.9867 0.347759 34.7195 0.79648 34.6898C1.27512 34.6602 1.57426 34.9273 1.67896 35.3727C1.72384 35.5656 1.69392 35.7734 1.69392 35.9813C1.69392 42.1711 1.69392 48.3758 1.69392 54.5656C1.69392 54.7883 1.69392 55.0109 1.69392 55.2781C13.8991 55.2781 26.0744 55.2781 38.2946 55.2781C38.2946 38.5789 38.2946 21.8797 38.2946 5.15078C33.7625 5.15078 29.2454 5.15078 24.5787 5.15078C24.8778 5.25469 25.0424 5.31406 25.2069 5.35859C26.0445 5.61094 26.8971 5.81875 27.7347 6.10078C29.6044 6.75391 31.5189 6.96172 33.5082 6.91719C36.9185 6.85781 36.5446 6.50156 36.5446 9.93047C36.5446 23.9133 36.5446 37.9109 36.5446 51.8937C36.5446 52.0719 36.5446 52.2648 36.5446 52.443C36.5296 53.2297 36.2454 53.5117 35.4377 53.5117C32.8352 53.5117 30.2475 53.5117 27.645 53.5117C20.0317 53.5117 12.4333 53.5117 4.82001 53.5117C3.78795 53.5117 3.54864 53.2742 3.54864 52.2797C3.54864 37.5547 3.54864 22.8148 3.54864 8.08984C3.54864 7.125 3.80291 6.8875 4.7901 6.8875C5.25378 6.8875 5.73241 6.84297 6.19609 6.8875C9.39697 7.27344 12.2837 6.07109 15.2603 5.23984C15.2902 5.225 15.3051 5.19531 15.365 5.15078C10.8329 5.15078 6.31575 5.15078 1.70888 5.15078C1.70888 5.37344 1.70888 5.61094 1.70888 5.83359C1.70888 14.3539 1.70888 22.8594 1.70888 31.3797C1.70888 32.2703 1.43965 32.7008 0.856309 32.7008C0.272972 32.7008 0.0186967 32.2852 0.0186967 31.3797C0.0186967 22.5031 0.0186967 13.6117 0.0186967 4.72031C0.0186967 3.66641 0.2281 3.44375 1.29007 3.44375C5.92686 3.44375 10.5636 3.44375 15.2004 3.45859C15.6342 3.45859 15.7987 3.33984 15.9333 2.93906C16.397 1.55859 17.3842 0.682812 18.7453 0.207813C18.9398 0.148438 19.1193 0.0742188 19.3137 0C19.7624 0 20.2111 0 20.6599 0ZM29.6343 8.41641C29.395 8.34219 29.2155 8.29766 29.036 8.25313C27.2261 7.80781 25.4163 7.3625 23.6065 6.90234C22.8137 6.70938 22.6791 6.53125 22.6791 5.7C22.6791 5.23984 22.6941 4.76484 22.6791 4.30469C22.6342 2.83516 21.4975 1.6625 20.1064 1.6625C18.6107 1.64766 17.4889 2.70156 17.3992 4.23047C17.3692 4.73516 17.3842 5.225 17.3842 5.72969C17.3692 6.48672 17.1898 6.70938 16.4568 6.8875C14.632 7.34766 12.8072 7.80781 10.9675 8.23828C10.5188 8.34219 10.3692 8.53516 10.3991 8.99531C10.444 9.61875 10.4141 10.257 10.4141 10.8805C10.4141 11.8602 10.6534 12.0977 11.6256 12.0977C13.7496 12.0977 15.8885 12.0977 18.0124 12.0977C18.6705 12.0977 19.0594 12.4242 19.0445 12.9289C19.0295 13.4188 18.6406 13.7453 18.0423 13.7602C15.7838 13.775 13.5252 13.775 11.2517 13.7602C10.3243 13.7453 9.54654 13.3742 9.11278 12.5578C8.87346 12.0977 8.76876 11.5484 8.73884 11.0289C8.69397 10.2273 8.73884 9.42578 8.73884 8.60938C7.54225 8.60938 6.42045 8.60938 5.28369 8.60938C5.28369 23.0375 5.28369 37.4359 5.28369 51.8344C15.1556 51.8344 24.9825 51.8344 34.8095 51.8344C34.8095 37.4063 34.8095 23.0078 34.8095 8.60938C33.6279 8.60938 32.4911 8.60938 31.3095 8.60938C31.3095 9.42578 31.3095 10.1977 31.3095 10.9695C31.3095 12.7508 30.2774 13.775 28.4975 13.775C26.4484 13.775 24.3842 13.775 22.3351 13.775C21.4825 13.775 21.0637 13.5078 21.0488 12.9586C21.0338 12.3797 21.4376 12.1125 22.35 12.1125C24.4291 12.1125 26.4932 12.1125 28.5723 12.1125C29.2603 12.1125 29.6193 11.8305 29.6343 11.2367C29.6492 10.3164 29.6343 9.38125 29.6343 8.41641Z" fill="#01A0C6"/>
<path d="M47.2541 21.3898C46.0575 21.3898 44.9506 21.3898 43.7989 21.3898C43.7989 26.8672 43.7989 32.3148 43.7989 37.8219C44.9207 37.8219 46.0425 37.8219 47.2541 37.8219C47.2541 37.6289 47.2541 37.4359 47.2541 37.2281C47.2541 35.0609 47.2541 32.8937 47.2541 30.7117C47.2541 30.5633 47.2391 30.4148 47.269 30.2664C47.3288 29.7914 47.6729 29.4797 48.1216 29.4797C48.5703 29.4945 48.9143 29.8211 48.9293 30.2961C48.9442 31.0531 48.9293 31.8102 48.9442 32.582C48.9442 33.532 48.8844 34.482 48.9592 35.4172C49.1387 37.6586 48.7199 39.7813 47.8224 41.8445C47.2989 43.0469 46.8951 44.3086 46.4314 45.5406C46.2669 45.9711 46.0425 46.3867 45.519 46.4016C44.9955 46.4164 44.7562 46.0008 44.5917 45.5555C43.7989 43.3734 42.9912 41.2063 42.2134 39.0242C42.1237 38.7867 42.0788 38.5195 42.0788 38.2672C42.0788 29.8062 42.0788 21.3453 42.0788 12.8844C42.0788 11.1922 43.081 10.1977 44.7861 10.168C45.3246 10.168 45.878 10.1531 46.4165 10.168C47.9122 10.2125 48.9293 11.2516 48.9293 12.7359C48.9442 16.7734 48.9293 20.8258 48.9293 24.8633C48.9293 25.3977 48.9293 25.932 48.9293 26.4812C48.9143 27.0898 48.6152 27.4609 48.1066 27.4609C47.5981 27.4609 47.269 27.1047 47.2541 26.4961C47.2391 24.9969 47.2541 23.4977 47.2541 21.9836C47.2541 21.8352 47.2541 21.6422 47.2541 21.3898ZM43.769 16.2094C44.9207 16.2094 46.0724 16.2094 47.2541 16.2094C47.2541 15.007 47.284 13.8047 47.2391 12.6023C47.2241 12.1719 46.91 11.9047 46.4613 11.8898C45.8331 11.875 45.1899 11.8602 44.5617 11.8898C44.0532 11.9195 43.784 12.2164 43.784 12.7211C43.754 13.8789 43.769 15.0219 43.769 16.2094ZM47.2391 17.9609C46.0575 17.9609 44.9357 17.9609 43.7989 17.9609C43.7989 18.5547 43.7989 19.1188 43.7989 19.6828C44.9656 19.6828 46.0874 19.6828 47.2391 19.6828C47.2391 19.0891 47.2391 18.5398 47.2391 17.9609ZM44.1429 39.5586C44.5917 40.7758 45.0404 41.9484 45.519 43.225C45.9677 42.0375 46.3865 40.9391 46.7904 39.8555C46.8203 39.7664 46.8203 39.6773 46.8502 39.5586C45.9378 39.5586 45.0703 39.5586 44.1429 39.5586Z" fill="#01A0C6"/>
<path d="M15.7538 16.8625C16.038 17.0109 16.2923 17.1148 16.5316 17.2484C17.4889 17.7977 17.9077 17.6195 18.1919 16.5508C18.2218 16.4469 18.2517 16.3281 18.2816 16.2242C18.4013 15.7937 18.6855 15.5711 19.1342 15.5711C19.5381 15.5711 19.9569 15.5711 20.3607 15.5711C21.5723 15.5711 21.6022 15.6008 21.9312 16.7586C22.006 17.0109 22.2154 17.2336 22.4099 17.4117C22.6941 17.6641 23.0082 17.5602 23.3223 17.3672C24.3842 16.7141 24.4441 16.7437 25.3266 17.6047C25.4163 17.6937 25.5061 17.7828 25.6108 17.8867C26.6428 18.9109 26.6428 18.9109 25.9398 20.1875C25.6855 20.6625 25.9398 21.2563 26.4633 21.3898C26.6578 21.4492 26.8672 21.4938 27.0616 21.5383C27.5851 21.6719 27.8544 21.9984 27.8394 22.5328C27.8244 23.0078 27.8394 23.4977 27.8394 23.9727C27.8394 24.6852 27.6599 24.893 26.9569 25.1156C26.5979 25.2344 26.1343 25.1453 25.9398 25.6648C25.8052 26.0062 25.8202 26.2734 26.0146 26.5852C26.6578 27.6242 26.6279 27.7133 25.7603 28.5742C25.6706 28.6633 25.5808 28.7523 25.4761 28.8562C24.6535 29.6578 24.5488 30.0883 23.1577 29.1828C22.7539 28.9156 22.0808 29.1828 21.9761 29.6578C21.6022 31.2312 21.3928 31.068 20.0616 31.068C19.9569 31.068 19.8372 31.068 19.7325 31.068C18.4761 31.068 18.4163 31.0234 18.1022 29.8062C17.9227 29.1383 17.3692 28.9008 16.756 29.2422C16.5765 29.3461 16.397 29.45 16.2175 29.5539C15.7987 29.7914 15.4248 29.732 15.0957 29.4055C14.7068 29.0195 14.3329 28.6336 13.944 28.2625C13.5252 27.8617 13.4803 27.4609 13.7795 26.9711C13.959 26.6742 14.2132 26.3477 14.1983 26.0359C14.1684 25.6055 13.9141 25.2641 13.3607 25.1602C12.2688 24.9523 12.209 24.8336 12.209 23.75C12.209 23.4383 12.209 23.1266 12.209 22.8C12.209 21.8203 12.3137 21.7164 13.256 21.4492C13.5402 21.3602 13.8393 21.182 14.0487 20.9742C14.3479 20.6625 14.2132 20.3211 14.0038 19.9797C13.3906 19 13.4205 18.9109 14.2432 18.0797C14.5273 17.7977 14.8115 17.4859 15.1256 17.2188C15.3051 17.0703 15.5295 16.9812 15.7538 16.8625ZM15.4397 19.2227C16.2325 19.9945 16.1876 20.7961 15.6342 21.6125C15.6043 21.657 15.5893 21.7164 15.5744 21.7758C15.4547 22.4734 15.0209 22.8148 14.3479 22.9484C14.1833 22.9781 14.0487 23.1859 13.9141 23.3195C14.0487 23.4531 14.1833 23.6164 14.3479 23.7055C14.647 23.8688 15.1256 23.9133 15.2603 24.1508C15.6192 24.7445 15.9184 25.4125 16.053 26.0805C16.1128 26.4367 15.7538 26.882 15.5893 27.2828C15.5744 27.3273 15.5594 27.3867 15.5444 27.4461C15.6641 27.5648 15.7838 27.6688 15.9632 27.832C16.7261 27.0156 17.5487 27.1641 18.3863 27.6984C18.4163 27.7133 18.4611 27.7281 18.491 27.7281C19.194 27.832 19.568 28.2625 19.6428 28.9602C19.6876 29.3906 19.912 29.4797 20.3607 29.3313C20.3308 28.2477 21.0936 27.8914 22.006 27.5203C22.6791 27.2531 23.2176 27.1344 23.8159 27.5945C23.9355 27.6836 24.1599 27.6242 24.3394 27.6242C24.3394 27.4313 24.4291 27.1789 24.3394 27.0602C23.9206 26.4812 23.9804 25.9766 24.2496 25.3086C24.6236 24.4031 24.9676 23.5867 26.0894 23.6313C26.2539 23.1711 26.1343 22.9633 25.7155 22.9039C25.0274 22.8297 24.5937 22.4586 24.474 21.7609C24.4441 21.5828 24.3693 21.4047 24.2646 21.2563C23.8607 20.6922 23.9056 20.1578 24.3244 19.6234C24.5936 19.282 24.5637 19.0297 24.13 18.8367C23.8907 18.9703 23.6513 19.1188 23.412 19.2523C22.7539 19.5938 20.7795 18.7773 20.5552 18.0797C20.4953 17.8867 20.4804 17.6789 20.3757 17.5008C20.3158 17.382 20.1513 17.2484 20.0317 17.2633C19.912 17.2633 19.7475 17.3969 19.6876 17.5156C19.5979 17.6789 19.5979 17.8719 19.5381 18.05C19.3137 18.7922 17.3543 19.6234 16.6513 19.2672C16.5615 19.2227 16.4868 19.1781 16.412 19.1336C16.2474 19.0445 16.0829 18.9406 15.9034 18.8367C15.7538 18.9406 15.6192 19.0594 15.4397 19.2227Z" fill="#01A0C6"/>
<path d="M23.5167 41.4289C21.2731 41.4289 19.0295 41.4289 16.7859 41.4289C16.053 41.4289 15.709 41.1469 15.709 40.5977C15.709 40.0633 16.0829 39.7664 16.8009 39.7664C21.2881 39.7664 25.7603 39.7664 30.2475 39.7664C30.9356 39.7664 31.3245 40.1078 31.3095 40.6422C31.2946 41.132 30.9206 41.4289 30.2924 41.4289C28.0338 41.4289 25.7753 41.4289 23.5167 41.4289Z" fill="#01A0C6"/>
<path d="M23.4868 34.5117C21.2282 34.5117 18.9697 34.5117 16.7111 34.5117C16.0829 34.5117 15.7389 34.2148 15.7239 33.6953C15.7239 33.1906 16.053 32.8641 16.6214 32.8492C17.1748 32.8344 17.7432 32.8492 18.2966 32.8492C22.1855 32.8492 26.0744 32.8492 29.9484 32.8492C30.098 32.8492 30.2475 32.8492 30.3971 32.8492C30.9505 32.8789 31.3245 33.2203 31.3095 33.6953C31.2946 34.1703 30.9356 34.5117 30.3672 34.5117C28.0787 34.5117 25.7753 34.5117 23.4868 34.5117Z" fill="#01A0C6"/>
<path d="M23.4718 48.3461C21.2881 48.3461 19.1043 48.3461 16.9205 48.3461C16.741 48.3461 16.5017 48.4055 16.3671 48.3016C16.1128 48.1234 15.7838 47.8711 15.7688 47.6187C15.7538 47.3367 16.0081 47.0102 16.2175 46.7727C16.3222 46.6539 16.6064 46.6688 16.8009 46.6688C21.2881 46.6688 25.7603 46.6688 30.2475 46.6688C30.3822 46.6688 30.5168 46.6687 30.6364 46.6984C31.0702 46.8023 31.3245 47.0844 31.3095 47.5297C31.2946 47.9898 31.0104 48.2867 30.5317 48.3164C30.1428 48.3461 29.7539 48.3312 29.3501 48.3312C27.3907 48.3461 25.4313 48.3461 23.4718 48.3461Z" fill="#01A0C6"/>
<path d="M8.73884 33.6656C8.7538 32.2555 9.8756 31.1422 11.2966 31.1273C12.7325 31.1273 13.9141 32.2852 13.8991 33.6953C13.8842 35.0906 12.7325 36.2336 11.3265 36.2484C9.89056 36.2633 8.73884 35.1055 8.73884 33.6656ZM12.209 33.6656C12.194 33.1758 11.7901 32.8047 11.2816 32.8047C10.773 32.8195 10.4141 33.2055 10.4141 33.7102C10.429 34.2 10.8329 34.5859 11.3265 34.5711C11.8201 34.5563 12.2239 34.1406 12.209 33.6656Z" fill="#01A0C6"/>
<path d="M8.73884 47.4406C8.78371 46.0156 9.95039 44.932 11.4162 44.9766C12.7923 45.0211 13.9141 46.1789 13.8991 47.5445C13.8842 48.9547 12.6726 50.1125 11.2666 50.0828C9.83073 50.0531 8.70893 48.8656 8.73884 47.4406ZM12.209 47.5445C12.2239 47.0695 11.835 46.6539 11.3564 46.6391C10.8628 46.6242 10.4589 46.9805 10.429 47.4703C10.3991 47.975 10.803 48.4055 11.2966 48.4203C11.7752 48.4203 12.194 48.0195 12.209 47.5445Z" fill="#01A0C6"/>
<path d="M11.2816 38.0594C12.7325 38.0445 13.8991 39.1875 13.8991 40.6125C13.8991 42.0078 12.7474 43.1656 11.3414 43.1805C9.92047 43.1953 8.73884 42.0375 8.73884 40.6125C8.73884 39.1875 9.86064 38.0594 11.2816 38.0594ZM12.209 40.6422C12.2389 40.1672 11.85 39.7516 11.3564 39.7367C10.8478 39.707 10.4589 40.0633 10.429 40.5531C10.3991 41.0727 10.788 41.5031 11.2966 41.5031C11.7602 41.518 12.179 41.1172 12.209 40.6422Z" fill="#01A0C6"/>
<path d="M20.0466 3.45859C20.5103 3.45859 20.8992 3.84453 20.8842 4.31953C20.8693 4.76484 20.4953 5.12109 20.0466 5.12109C19.5829 5.12109 19.194 4.73516 19.209 4.275C19.224 3.82969 19.5979 3.45859 20.0466 3.45859Z" fill="#01A0C6"/>
<path d="M17.1598 23.2602C17.1449 21.7609 18.4163 20.4844 19.927 20.4695C21.6171 20.4547 22.8885 21.7016 22.9035 23.3641C22.9184 24.7742 21.5124 26.125 20.0017 26.1695C18.4611 26.1992 17.1598 24.8781 17.1598 23.2602ZM18.85 23.3344C18.865 23.9875 19.4034 24.5219 20.0317 24.4922C20.6599 24.4625 21.2282 23.8984 21.2133 23.3047C21.1983 22.6219 20.6599 22.1172 19.9718 22.1469C19.3137 22.1617 18.8351 22.6664 18.85 23.3344Z" fill="#01A0C6"/>
</svg>
