<svg width="57" height="57" viewBox="0 0 57 57" fill="none" xmlns="http://www.w3.org/2000/svg">
<path d="M0 44.7243C0 30.8624 0 17.0006 0 3.13874C0.635811 0.703704 2.36477 0 4.52876 0C20.636 0.0446796 36.7321 0.0223398 52.8393 0.0223398C55.5387 0.0223398 57.0111 1.49677 56.9999 4.18871C56.9888 11.8401 56.9888 19.5026 56.9776 27.154C56.9665 32.672 56.9442 38.1899 56.9442 43.7078C56.9442 45.6067 56.1857 46.9471 54.3675 47.6285C54.2559 47.6731 54.1332 47.8072 54.1109 47.9189C53.832 49.4156 53.4416 49.7396 51.9134 49.7396C47.1839 49.7396 42.4544 49.7396 37.7248 49.7396C37.5129 49.7396 37.2898 49.7396 37.0778 49.7396C37.0778 50.1193 37.0778 50.4321 37.0778 50.7895C37.8587 50.7895 38.5949 50.7784 39.3311 50.7895C41.3389 50.8342 42.5659 52.0741 42.6105 54.0847C42.6105 54.3862 42.5882 54.6767 42.6105 54.9782C42.6886 55.816 42.4878 56.5197 41.7405 57C32.906 57 24.0716 57 15.2372 57C14.5233 56.5979 14.2556 55.9947 14.3225 55.1905C14.3671 54.6878 14.3113 54.1852 14.3448 53.6825C14.4229 52.4092 15.081 51.5044 16.2411 51.0464C16.7207 50.8566 17.2896 50.8342 17.825 50.8007C18.4943 50.7672 19.1747 50.7895 19.8663 50.7895C19.8663 49.7507 19.8663 48.8125 19.8663 47.8072C19.6209 47.8072 19.3978 47.8072 19.1859 47.8072C16.8992 47.8072 14.6237 47.8072 12.337 47.8072C12.1139 47.8072 11.8908 47.796 11.6789 47.7513C11.255 47.662 11.043 47.3492 11.0542 46.9471C11.0653 46.545 11.2884 46.2434 11.7123 46.1764C11.9466 46.1429 12.192 46.1429 12.4374 46.1429C17.9477 46.1429 23.4581 46.1429 28.9685 46.1429C29.2027 46.1429 29.437 46.1429 29.7381 46.1429C29.7381 45.7072 29.7381 45.3498 29.7381 44.9812C29.7381 42.9036 29.9835 42.6132 32.0137 42.3563C32.0137 41.9095 32.0137 41.4515 32.0137 41.0047C21.8853 41.0047 11.7792 41.0047 1.65088 41.0047C1.65088 41.9541 1.65088 42.8589 1.65088 43.7748C1.65088 45.3721 2.40939 46.1429 3.99334 46.1429C4.77416 46.1429 5.55498 46.1429 6.33581 46.1429C6.48081 46.1429 6.63698 46.1429 6.78199 46.154C7.28395 46.1875 7.57396 46.4556 7.61858 46.9471C7.6632 47.4051 7.30625 47.7848 6.78199 47.796C5.61076 47.8183 4.45068 47.8072 3.27945 47.7625C2.309 47.7178 1.47241 47.2822 0.903522 46.5003C0.524266 45.953 0.301174 45.3163 0 44.7243ZM32.036 31.5661C31.9133 31.555 31.8463 31.5438 31.7683 31.5438C30.2847 31.4879 29.7493 30.9183 29.7381 29.4327C29.7381 28.3604 29.7381 27.2769 29.7381 26.2046C29.7381 24.7972 30.3405 24.194 31.7236 24.194C35.1704 24.194 38.6283 24.194 42.0751 24.194C42.9563 24.194 43.3356 24.4397 43.3579 24.9982C43.3802 25.5791 42.9452 25.8583 42.0639 25.8583C38.7399 25.8583 35.427 25.8583 32.1029 25.8583C31.891 25.8583 31.6679 25.8583 31.4336 25.8583C31.4336 27.221 31.4336 28.5056 31.4336 29.8236C38.4387 29.8236 45.3992 29.8236 52.3819 29.8236C52.3819 28.4944 52.3819 27.2099 52.3819 25.8807C52.17 25.8695 51.9915 25.8583 51.8131 25.8583C50.4968 25.8583 49.1806 25.8695 47.8643 25.8471C47.262 25.836 46.8939 25.4785 46.905 24.9871C46.9162 24.5068 47.262 24.194 47.8532 24.1828C49.3925 24.1717 50.9318 24.1717 52.4712 24.194C53.3859 24.2052 54.0551 24.8642 54.0774 25.7801C54.1109 27.154 54.0997 28.5279 54.0774 29.9018C54.0551 30.7507 53.4862 31.3539 52.6385 31.4879C52.3708 31.5326 52.0919 31.5438 51.8131 31.5661C51.8131 32.147 51.8131 32.6831 51.8131 33.2305C52.1365 33.2528 52.4154 33.264 52.6831 33.3086C53.4751 33.4427 54.0105 34.0235 54.0774 34.8166C54.0997 35.0511 54.0886 35.2969 54.0886 35.5426C54.0886 36.7601 54.0886 37.9777 54.0886 39.2175C54.4902 39.2175 54.8471 39.2175 55.204 39.2175C55.204 29.9242 55.204 20.6643 55.204 11.4045C37.3344 11.4045 19.5205 11.4045 1.6955 11.4045C1.6955 20.6978 1.6955 29.9577 1.6955 39.2063C11.0654 39.2063 20.4017 39.2063 29.7493 39.2063C29.7493 37.9777 29.7939 36.7825 29.7381 35.5985C29.66 34.0347 30.2736 33.1858 31.9244 33.2416C31.9579 33.2416 31.9914 33.2081 32.036 33.1858C32.036 32.6831 32.036 32.147 32.036 31.5661ZM55.2598 9.69547C55.2598 7.70723 55.271 5.78601 55.2598 3.85362C55.2487 2.46855 54.4455 1.69782 53.0512 1.69782C36.6874 1.69782 20.3237 1.69782 3.95988 1.69782C2.57671 1.69782 1.76242 2.46855 1.74012 3.85362C1.71781 5.69665 1.74012 7.52851 1.74012 9.37155C1.74012 9.47208 1.76242 9.58377 1.78473 9.69547C19.6098 9.69547 37.3902 9.69547 55.2598 9.69547ZM40.9373 55.3357C40.9373 55.0006 40.9373 54.6878 40.9373 54.3751C40.9373 52.923 40.4688 52.4538 39.0076 52.4538C31.9579 52.4538 24.9193 52.4538 17.8696 52.4538C17.6131 52.4538 17.3454 52.4538 17.1 52.5097C16.5199 52.6437 16.1295 53.0235 16.0514 53.6044C15.9845 54.1628 16.0403 54.7437 16.0403 55.3357C24.3505 55.3357 32.6049 55.3357 40.9373 55.3357ZM31.4448 48.0306C38.4722 48.0306 45.4438 48.0306 52.4042 48.0306C52.4042 46.6902 52.4042 45.4056 52.4042 44.0988C45.4103 44.0988 38.4387 44.0988 31.4448 44.0988C31.4448 45.4168 31.4448 46.7125 31.4448 48.0306ZM52.4154 34.9953C45.4103 34.9953 38.4387 34.9953 31.4559 34.9953C31.4559 36.3245 31.4559 37.6202 31.4559 38.9159C38.461 38.9159 45.4215 38.9159 52.4154 38.9159C52.4154 37.5979 52.4154 36.3245 52.4154 34.9953ZM29.6935 47.8407C26.9829 47.8407 24.3058 47.8407 21.6176 47.8407C21.6176 48.8348 21.6176 49.7954 21.6176 50.7449C26.2021 50.7449 30.7532 50.7449 35.3377 50.7449C35.3377 50.3986 35.3377 50.097 35.3377 49.7396C34.2 49.7396 33.0957 49.7396 31.9914 49.7396C30.4074 49.7396 29.9947 49.3933 29.6935 47.8407ZM50.0952 40.6696C44.6072 40.6696 39.1861 40.6696 33.7649 40.6696C33.7649 41.2616 33.7649 41.8089 33.7649 42.3451C39.2307 42.3451 44.6518 42.3451 50.0952 42.3451C50.0952 41.7754 50.0952 41.2393 50.0952 40.6696ZM33.7649 33.2416C39.2307 33.2416 44.6518 33.2416 50.0729 33.2416C50.0729 32.6608 50.0729 32.1135 50.0729 31.5773C44.6183 31.5773 39.2084 31.5773 33.7649 31.5773C33.7649 32.1246 33.7649 32.6608 33.7649 33.2416ZM54.0997 45.9083C54.7467 45.5955 55.1483 45.1376 55.1817 44.5567C55.2487 43.3839 55.204 42.1887 55.204 40.9824C54.0774 40.9824 52.962 40.9824 51.8242 40.9824C51.8242 41.4627 51.8242 41.9095 51.8242 42.3674C51.9581 42.3786 52.0473 42.3898 52.1365 42.3898C53.5086 42.4233 54.0886 43.0153 54.0997 44.378C54.0997 44.8583 54.0997 45.3386 54.0997 45.9083Z" fill="#01A0C6"/>
<path d="M34.1888 16.6208C36.9663 16.6208 39.7438 16.6208 42.5324 16.6208C42.7555 16.6208 43.0344 16.565 43.1794 16.6878C43.4137 16.8777 43.7037 17.1793 43.7148 17.4362C43.726 17.6931 43.4471 18.0059 43.2129 18.1958C43.0567 18.3186 42.7555 18.2963 42.5101 18.2963C36.9328 18.2963 31.3555 18.2963 25.7783 18.2963C25.689 18.2963 25.5886 18.2963 25.4994 18.2963C24.897 18.2628 24.5178 17.9389 24.5289 17.4474C24.5401 16.9559 24.9082 16.632 25.5217 16.632C28.4107 16.6096 31.2998 16.6208 34.1888 16.6208Z" fill="#01A0C6"/>
<path d="M18.7062 24.3057C20.3013 24.3057 21.8965 24.2834 23.4916 24.328C23.7816 24.3392 24.1608 24.5849 24.3058 24.8307C24.4174 25.0317 24.317 25.4785 24.1497 25.6684C23.9712 25.8583 23.592 25.9477 23.3019 25.9588C22.3203 25.9924 21.3387 25.97 20.3571 25.97C18.3047 25.97 16.2411 25.97 14.1886 25.97C13.999 25.97 13.8205 25.97 13.6309 25.9477C13.1289 25.8583 12.8501 25.5232 12.8947 25.0653C12.9393 24.5849 13.2405 24.328 13.709 24.3169C14.7129 24.2945 15.7057 24.3057 16.7096 24.3057C17.3677 24.3057 18.037 24.3057 18.7062 24.3057Z" fill="#01A0C6"/>
<path d="M5.65538 17.6038C6.36927 18.2963 7.00508 18.8995 7.62974 19.5362C8.05361 19.9606 8.08708 20.4074 7.76359 20.776C7.45126 21.1223 6.94931 21.1781 6.58121 20.8207C5.68884 19.9606 4.80763 19.0782 3.94872 18.1846C3.61409 17.8272 3.62524 17.3915 3.95988 17.0341C4.80763 16.1517 5.66653 15.2916 6.54774 14.4427C6.927 14.0741 7.4178 14.1076 7.74128 14.4315C8.06477 14.7666 8.07592 15.2357 7.69666 15.6267C7.06085 16.2634 6.40273 16.8889 5.65538 17.6038Z" fill="#01A0C6"/>
<path d="M24.0493 31.3204C25.1982 31.3204 26.3471 31.3092 27.4961 31.3204C28.1542 31.3204 28.5223 31.6332 28.5111 32.1581C28.5 32.6608 28.1542 32.9735 27.5184 32.9847C25.1871 32.9959 22.8557 32.9959 20.5133 32.9847C19.8998 32.9847 19.5317 32.6384 19.5205 32.1581C19.5094 31.6443 19.8886 31.3316 20.5467 31.3204C21.718 31.3092 22.8781 31.3204 24.0493 31.3204Z" fill="#01A0C6"/>
<path d="M14.8914 17.6149C14.2109 16.9447 13.5974 16.3527 12.9951 15.7496C12.5043 15.2581 12.4597 14.7666 12.8501 14.398C13.2182 14.0517 13.6867 14.1076 14.1663 14.5767C14.9471 15.3474 15.7168 16.1182 16.4865 16.9001C16.9884 17.4139 16.9884 17.8272 16.4865 18.341C15.7168 19.1229 14.9471 19.8936 14.1663 20.6643C13.6867 21.1446 13.2293 21.1893 12.8501 20.8207C12.4708 20.4521 12.5154 19.9606 13.0062 19.4691C13.5974 18.8548 14.2221 18.274 14.8914 17.6149Z" fill="#01A0C6"/>
<path d="M13.8986 29.4774C12.7832 29.4774 11.6677 29.4774 10.5634 29.4774C9.89412 29.4774 9.52602 29.1758 9.51486 28.662C9.50371 28.1481 9.88296 27.8131 10.5411 27.8131C12.7832 27.8019 15.0252 27.8019 17.2785 27.8131C17.9366 27.8131 18.3158 28.137 18.327 28.6396C18.3381 29.1758 17.9589 29.4774 17.245 29.4774C16.1184 29.4885 15.0141 29.4774 13.8986 29.4774Z" fill="#01A0C6"/>
<path d="M36.7209 20.2957C37.8364 20.2957 38.9407 20.2957 40.0561 20.2957C40.7031 20.2957 41.0935 20.6196 41.0823 21.1223C41.0823 21.6361 40.7031 21.96 40.045 21.96C37.8029 21.9712 35.5608 21.9824 33.3188 21.9377C33.0176 21.9377 32.6383 21.7255 32.4487 21.4909C32.3148 21.3233 32.3371 20.8654 32.4822 20.6867C32.6606 20.4744 33.0287 20.318 33.3299 20.3069C34.4565 20.2734 35.5943 20.2957 36.7209 20.2957Z" fill="#01A0C6"/>
<path d="M22.2869 20.2957C23.2127 20.2957 24.1385 20.2845 25.0644 20.2957C25.7002 20.3069 26.046 20.5973 26.0571 21.0999C26.0683 21.6138 25.7225 21.9489 25.0978 21.96C23.1904 21.9712 21.2718 21.9712 19.3644 21.96C18.7509 21.96 18.4051 21.5914 18.4274 21.0888C18.4497 20.5973 18.7843 20.3069 19.3867 20.3069C20.3571 20.2845 21.3164 20.2957 22.2869 20.2957Z" fill="#01A0C6"/>
<path d="M47.3847 28.6843C46.5146 28.6843 45.6446 28.6843 44.7745 28.6843C44.161 28.6843 43.7818 28.3827 43.7594 27.8912C43.7371 27.3774 44.1275 27.02 44.7634 27.02C46.5369 27.0088 48.3217 27.0088 50.0952 27.02C50.6976 27.02 51.0769 27.3663 51.088 27.8466C51.0992 28.3492 50.7088 28.6731 50.0506 28.6843C49.1583 28.6843 48.2771 28.6843 47.3847 28.6843Z" fill="#01A0C6"/>
<path d="M12.2812 14.8336C12.192 15.1464 12.1697 15.3139 12.1027 15.4703C11.4558 17.1123 10.8088 18.7543 10.173 20.3851C9.99451 20.8542 9.69334 21.1446 9.15792 21.0218C8.6448 20.8989 8.38825 20.4297 8.58903 19.8824C9.24715 18.1511 9.92758 16.4198 10.6192 14.6996C10.7865 14.2751 11.1657 14.0294 11.6119 14.2081C11.8908 14.331 12.0916 14.6549 12.2812 14.8336Z" fill="#01A0C6"/>
<path d="M14.7575 31.3204C15.6276 31.3204 16.4976 31.3092 17.3677 31.3204C17.9589 31.3316 18.3047 31.622 18.327 32.1023C18.3493 32.5938 17.9812 32.9735 17.39 32.9735C15.5941 32.9959 13.7982 32.9959 12.0023 32.9735C11.4223 32.9624 11.0765 32.6161 11.0653 32.147C11.0542 31.6555 11.4335 31.3204 12.0358 31.3092C12.9393 31.3092 13.8428 31.3204 14.7575 31.3204Z" fill="#01A0C6"/>
<path d="M7.79706 24.3057C8.68942 24.3057 9.57064 24.2945 10.463 24.3057C11.0765 24.3169 11.4446 24.6185 11.4558 25.1099C11.4669 25.6014 11.0988 25.9588 10.4965 25.9588C8.72289 25.97 6.93815 25.97 5.16457 25.9588C4.53992 25.9588 4.20528 25.6238 4.20528 25.1099C4.21643 24.5961 4.55107 24.3057 5.18688 24.2945C6.05694 24.2945 6.927 24.3057 7.79706 24.3057Z" fill="#01A0C6"/>
<path d="M7.16124 31.3204C7.83052 31.3204 8.49979 31.3092 9.15792 31.3204C9.79373 31.3316 10.1284 31.6332 10.1284 32.1358C10.1284 32.6385 9.79373 32.9735 9.16907 32.9847C7.83052 33.0071 6.50312 33.0071 5.16457 32.9847C4.53992 32.9735 4.19412 32.6608 4.19412 32.147C4.19412 31.6108 4.53992 31.3204 5.20919 31.3204C5.86731 31.3092 6.51428 31.3204 7.16124 31.3204Z" fill="#01A0C6"/>
<path d="M35.5831 28.6843C34.9473 28.6843 34.3227 28.6955 33.6869 28.6843C33.1403 28.6731 32.8056 28.3604 32.7833 27.8912C32.761 27.4109 33.118 27.0312 33.6645 27.02C34.9585 26.9976 36.2636 26.9976 37.5575 27.02C38.1152 27.0312 38.4499 27.4109 38.4164 27.9024C38.3941 28.3715 38.0594 28.662 37.5129 28.6731C36.8771 28.6955 36.2301 28.6843 35.5831 28.6843Z" fill="#01A0C6"/>
<path d="M20.6806 18.2851C20.2567 18.2851 19.8329 18.2963 19.409 18.2851C18.7955 18.2628 18.4385 17.95 18.4385 17.4474C18.4385 16.9447 18.7955 16.632 19.409 16.6208C20.279 16.6096 21.1491 16.6096 22.008 16.6208C22.5992 16.632 22.9338 16.9224 22.945 17.4139C22.9673 17.9277 22.6215 18.2404 22.008 18.2851C21.9745 18.2851 21.9299 18.2851 21.8965 18.2851C21.4949 18.2851 21.0822 18.2851 20.6806 18.2851Z" fill="#01A0C6"/>
<path d="M25.9679 29.4774C25.5217 29.4774 25.0755 29.4885 24.6293 29.4774C24.1608 29.455 23.8708 29.2093 23.815 28.729C23.7704 28.2598 24.0381 27.8801 24.5401 27.8466C25.4994 27.8019 26.4698 27.8019 27.4291 27.8466C27.9311 27.8689 28.2099 28.2598 28.1653 28.7178C28.1096 29.1869 27.8307 29.455 27.351 29.4662C26.8937 29.4885 26.4364 29.4774 25.9679 29.4774Z" fill="#01A0C6"/>
<path d="M29.2473 20.2957C29.6489 20.2957 30.0616 20.2845 30.4632 20.2957C30.9317 20.318 31.2217 20.575 31.2775 21.0441C31.3332 21.4909 31.0432 21.893 30.5413 21.9153C29.6712 21.96 28.8011 21.96 27.9422 21.9153C27.4737 21.893 27.2172 21.5579 27.1949 21.0888C27.1837 20.6531 27.5295 20.3292 28.0203 20.2845C28.0538 20.2845 28.0984 20.2845 28.1319 20.2845C28.5111 20.2957 28.8792 20.2957 29.2473 20.2957Z" fill="#01A0C6"/>
<path d="M6.22426 29.4662C5.82269 29.4662 5.40997 29.4774 5.00841 29.4662C4.53992 29.4439 4.2499 29.1869 4.21643 28.7066C4.18297 28.2263 4.43953 27.8801 4.90802 27.8577C5.77808 27.8131 6.64813 27.8131 7.50704 27.8577C7.97553 27.8801 8.22093 28.2152 8.23209 28.6955C8.23209 29.1311 7.88629 29.455 7.39549 29.4774C6.99393 29.4885 6.60352 29.4774 6.22426 29.4662C6.22426 29.4774 6.22426 29.4774 6.22426 29.4662Z" fill="#01A0C6"/>
<path d="M21.2383 29.455C20.9595 29.455 20.6806 29.4774 20.4129 29.4439C19.989 29.388 19.7548 29.1199 19.7213 28.7066C19.6878 28.2934 19.8775 27.9248 20.2902 27.8801C20.926 27.8131 21.573 27.8131 22.2088 27.8801C22.6215 27.9248 22.8334 28.2822 22.8 28.6955C22.7665 29.1199 22.5211 29.4215 22.0638 29.455C21.7849 29.4774 21.506 29.4662 21.2383 29.455C21.2383 29.4662 21.2383 29.4662 21.2383 29.455Z" fill="#01A0C6"/>
<path d="M41.127 28.6731C40.8927 28.6731 40.6473 28.6955 40.4131 28.6731C39.9669 28.6285 39.688 28.3827 39.6434 27.9359C39.5988 27.4891 39.8219 27.1317 40.2569 27.0758C40.8146 27.0088 41.3947 27.0088 41.9524 27.0758C42.3874 27.1317 42.5882 27.4891 42.5547 27.9359C42.5213 28.3604 42.2536 28.6061 41.852 28.662C41.6066 28.6955 41.3724 28.6731 41.127 28.6731Z" fill="#01A0C6"/>
<path d="M14.8244 5.68548C14.8244 7.02587 13.7201 8.14286 12.3927 8.13169C11.0653 8.13169 9.93874 7.00353 9.94989 5.67431C9.94989 4.34509 11.0653 3.23927 12.4039 3.23927C13.7425 3.23927 14.8244 4.32275 14.8244 5.68548ZM13.1401 5.68548C13.1401 5.24985 12.8055 4.91476 12.3704 4.91476C11.9466 4.91476 11.5785 5.28336 11.6119 5.69665C11.6454 6.14345 11.9131 6.40035 12.3593 6.44503C12.7832 6.47854 13.1401 6.10994 13.1401 5.68548Z" fill="#01A0C6"/>
<path d="M8.58903 5.71899C8.57788 7.05938 7.44011 8.1652 6.12387 8.13169C4.78532 8.09818 3.68101 6.95885 3.71448 5.6408C3.73679 4.28924 4.84109 3.2281 6.1908 3.23927C7.5405 3.26161 8.60019 4.35626 8.58903 5.71899ZM6.91584 5.70782C6.927 5.27219 6.60351 4.92593 6.16849 4.92593C5.74461 4.91476 5.36536 5.27219 5.38766 5.68548C5.40997 6.13228 5.67768 6.40035 6.11271 6.44503C6.52543 6.48971 6.90469 6.13228 6.91584 5.70782Z" fill="#01A0C6"/>
<path d="M21.0487 5.70782C21.0375 7.04821 19.9109 8.15403 18.5835 8.13169C17.245 8.09818 16.1407 6.97002 16.163 5.65197C16.1853 4.31158 17.3008 3.2281 18.6393 3.23927C20.0002 3.25044 21.0599 4.34509 21.0487 5.70782ZM19.3755 5.66314C19.3644 5.22751 19.0186 4.89242 18.5835 4.91476C18.115 4.9371 17.8808 5.22751 17.8473 5.66314C17.8139 6.06526 18.2043 6.44503 18.617 6.44503C19.0297 6.4562 19.3867 6.0876 19.3755 5.66314Z" fill="#01A0C6"/>
<path d="M47.4181 46.8912C46.5481 46.8912 45.678 46.9024 44.808 46.8912C44.1499 46.8801 43.7706 46.5785 43.7594 46.0758C43.7594 45.5732 44.1387 45.2381 44.7857 45.2381C46.5481 45.2269 48.2994 45.2269 50.0618 45.2381C50.7088 45.2381 51.0992 45.5844 51.0769 46.087C51.0657 46.5673 50.6976 46.8801 50.0729 46.8912C49.1917 46.9024 48.2994 46.8912 47.4181 46.8912Z" fill="#01A0C6"/>
<path d="M35.572 45.2381C36.2189 45.2381 36.8659 45.2158 37.5129 45.2381C38.1041 45.2604 38.4276 45.5732 38.4276 46.0647C38.4276 46.5673 38.1041 46.8801 37.5129 46.8801C36.2301 46.9024 34.9585 46.9024 33.6757 46.8801C33.1291 46.8689 32.7945 46.545 32.7833 46.087C32.7722 45.6067 33.1068 45.2604 33.6869 45.2381C34.3115 45.2158 34.9473 45.2381 35.572 45.2381Z" fill="#01A0C6"/>
<path d="M41.0935 46.9136C40.8146 46.8912 40.5581 46.9024 40.3015 46.8577C39.8888 46.7795 39.6546 46.5115 39.6434 46.087C39.6322 45.6737 39.8442 45.3386 40.2569 45.2939C40.8146 45.2381 41.3947 45.2381 41.9636 45.2939C42.3874 45.3386 42.5771 45.6849 42.5659 46.0982C42.5547 46.4891 42.354 46.7684 41.9636 46.8466C41.6624 46.9024 41.3612 46.8912 41.0935 46.9136Z" fill="#01A0C6"/>
<path d="M47.4181 37.7989C46.5481 37.7989 45.678 37.8101 44.808 37.7989C44.1499 37.7878 43.7706 37.475 43.7594 36.9724C43.7483 36.4697 44.1387 36.1346 44.7857 36.1346C46.5481 36.1346 48.2994 36.1235 50.0618 36.1346C50.7088 36.1346 51.0992 36.4697 51.088 36.9724C51.0769 37.4638 50.6976 37.7878 50.0841 37.7989C49.1917 37.8101 48.3105 37.7989 47.4181 37.7989Z" fill="#01A0C6"/>
<path d="M35.6612 36.1346C36.297 36.1346 36.9217 36.1235 37.5575 36.1346C38.0929 36.1458 38.4276 36.4586 38.4387 36.9277C38.4499 37.3968 38.1375 37.7654 37.6021 37.7766C36.2859 37.7989 34.9696 37.7989 33.6534 37.7766C33.118 37.7654 32.7833 37.3968 32.7833 36.9389C32.7833 36.4586 33.1403 36.1346 33.7092 36.1235C34.3561 36.1235 35.0142 36.1346 35.6612 36.1346Z" fill="#01A0C6"/>
<path d="M41.06 37.8213C40.8035 37.7989 40.5246 37.8101 40.2569 37.7431C39.8219 37.6426 39.5988 37.3298 39.6434 36.883C39.688 36.4362 39.9557 36.1681 40.4019 36.1458C40.8593 36.1123 41.3277 36.1235 41.7851 36.1458C42.2313 36.1681 42.5101 36.4139 42.5547 36.8718C42.6105 37.3521 42.3763 37.6537 41.9189 37.7654C41.6401 37.8101 41.3612 37.7989 41.06 37.8213Z" fill="#01A0C6"/>
</svg>
