<svg width="57" height="57" viewBox="0 0 57 57" fill="none" xmlns="http://www.w3.org/2000/svg">
<path d="M50.3681 43.7037C52.1883 43.7037 53.9611 43.7037 55.7179 43.7037C56.6834 43.7037 57 44.0044 57 44.97C57 47.2969 57 49.6395 57 51.9664C57 52.8528 56.6676 53.1852 55.7813 53.1852C47.0918 53.1852 38.4181 53.1852 29.7286 53.1852C28.8423 53.1852 28.5099 52.8686 28.5099 51.9664C28.5099 51.1433 28.5099 50.3044 28.5099 49.4179C26.9429 49.4179 25.3918 49.4179 23.7932 49.4179C23.7932 48.7531 23.7932 48.1516 23.7932 47.5026C25.3443 47.5026 26.8796 47.5026 28.5099 47.5026C28.5099 46.6162 28.5099 45.7773 28.5099 44.9383C28.5099 44.0044 28.8265 43.6879 29.7603 43.6879C35.7274 43.6879 41.7103 43.6879 47.6774 43.6879C47.9148 43.6879 48.1522 43.6879 48.4213 43.6879C48.4213 39.4141 48.4213 35.1877 48.4213 30.8506C48.2314 31.0247 48.0889 31.1513 47.9465 31.2938C44.9708 34.2696 41.9952 37.2613 38.9879 40.2213C38.6714 40.5379 38.2124 40.7753 37.785 40.8703C36.3763 41.2027 34.9677 41.4718 33.5431 41.7409C32.7359 41.8992 32.182 41.3293 32.3402 40.5221C32.6093 39.1133 32.8784 37.6887 33.2108 36.2799C33.3057 35.8525 33.559 35.3935 33.8755 35.0769C38.5764 30.3441 43.2931 25.627 48.0098 20.9259C48.3263 20.6093 48.453 20.2927 48.453 19.8337C48.4371 17.0478 48.4371 14.2619 48.4371 11.3652C48.2155 11.3652 48.0098 11.3652 47.804 11.3652C46.1579 11.3652 44.5118 11.3652 42.8816 11.3652C40.5865 11.3968 38.9563 9.76645 38.9404 7.47126C38.9404 5.82505 38.9404 4.19467 38.9404 2.54846C38.9404 2.35851 38.9404 2.16856 38.9404 1.9153C38.6714 1.9153 38.4656 1.9153 38.244 1.9153C29.1114 1.9153 19.9629 1.9153 10.8302 1.9153C9.26324 1.9153 8.55099 2.6276 8.55099 4.19467C8.55099 12.9797 8.55099 21.7648 8.55099 30.5498C8.55099 30.7873 8.55099 31.0247 8.55099 31.3096C7.9337 31.3096 7.33225 31.3096 6.65165 31.3096C6.65165 31.1197 6.65165 30.8981 6.65165 30.6923C6.65165 21.8281 6.65165 12.9639 6.65165 4.09969C6.65165 1.59872 8.23443 0.0158289 10.7194 0.0158289C20.3269 0 29.9186 0.0158289 39.5102 0C40.0484 0 40.4441 0.158289 40.8239 0.538184C43.8154 3.54568 46.8069 6.53735 49.7983 9.51319C50.1782 9.89308 50.3365 10.2888 50.3365 10.827C50.3207 13.1855 50.3207 15.5282 50.3207 17.8867C50.3207 18.0766 50.3207 18.2666 50.3207 18.3774C51.0171 17.9817 51.6502 17.491 52.3783 17.2535C53.8819 16.7628 55.5122 17.4277 56.3669 18.7415C57.2374 20.0711 57.1741 21.8123 56.1295 23.0469C55.5755 23.6959 54.9424 24.2658 54.3409 24.8673C53.1063 26.1019 51.8718 27.3207 50.653 28.5712C50.4789 28.7453 50.3365 29.0303 50.3207 29.2677C50.3048 33.9531 50.3048 38.6384 50.3048 43.3396C50.3365 43.4346 50.3523 43.5296 50.3681 43.7037ZM34.1763 45.619C34.1763 46.268 34.1763 46.8536 34.1763 47.4551C33.5273 47.4551 32.9259 47.4551 32.2611 47.4551C32.2611 46.8062 32.2611 46.2047 32.2611 45.6348C31.6122 45.6348 31.0265 45.6348 30.4409 45.6348C30.4409 47.5343 30.4409 49.4021 30.4409 51.2699C38.6714 51.2699 46.8544 51.2699 55.0532 51.2699C55.0532 49.3704 55.0532 47.5026 55.0532 45.6348C54.4201 45.6348 53.8186 45.6348 53.1697 45.6348C53.1697 46.268 53.1697 46.8536 53.1697 47.4551C52.5207 47.4551 51.9193 47.4551 51.2545 47.4551C51.2545 46.822 51.2545 46.2205 51.2545 45.619C50.6056 45.619 50.0199 45.619 49.371 45.619C49.371 46.2522 49.371 46.8537 49.371 47.4393C48.7062 47.4393 48.1048 47.4393 47.4558 47.4393C47.4558 46.8062 47.4558 46.2205 47.4558 45.619C46.8069 45.619 46.2054 45.619 45.5406 45.619C45.5406 46.2522 45.5406 46.8537 45.5406 47.4393C44.8917 47.4393 44.3061 47.4393 43.6571 47.4393C43.6571 46.8062 43.6571 46.2047 43.6571 45.6032C43.0082 45.6032 42.4226 45.6032 41.7736 45.6032C41.7736 46.2363 41.7736 46.8378 41.7736 47.4235C41.1088 47.4235 40.5074 47.4235 39.8585 47.4235C39.8585 46.7903 39.8585 46.2047 39.8585 45.6032C39.2095 45.6032 38.6081 45.6032 37.9433 45.6032C37.9433 46.2363 37.9433 46.8378 37.9433 47.4393C37.2943 47.4393 36.7087 47.4393 36.0598 47.4393C36.0598 46.8062 36.0598 46.2047 36.0598 45.6032C35.4267 45.619 34.841 45.619 34.1763 45.619ZM50.3998 21.4799C45.4932 26.3868 40.5865 31.2938 35.7749 36.1058C36.503 36.8339 37.2943 37.6254 38.0066 38.3535C42.8499 33.5099 47.7565 28.6029 52.6315 23.7276C51.9034 22.9836 51.1279 22.208 50.3998 21.4799ZM46.9177 9.49736C44.8917 7.47126 42.8657 5.46098 40.8714 3.45071C40.8714 4.89114 40.8239 6.37906 40.8873 7.88281C40.9347 8.78506 41.7736 9.48153 42.7233 9.49736C44.1161 9.51319 45.509 9.49736 46.9177 9.49736ZM54.1668 22.3505C54.8158 21.8281 55.2589 21.2108 55.0215 20.3244C54.8316 19.6121 54.3409 19.1688 53.6287 19.0422C52.7898 18.8997 52.2042 19.3271 51.761 19.9445C52.5682 20.7359 53.3438 21.5115 54.1668 22.3505ZM34.7461 38.1477C34.6669 38.6226 34.572 39.0816 34.477 39.6198C35.031 39.509 35.49 39.4141 36.0439 39.3032C35.5849 38.8917 35.1892 38.5435 34.7461 38.1477Z" fill="#01A0C6"/>
<path d="M14.2174 57C9.92801 57 5.63867 57 1.3335 57C0.288858 57 0.00395696 56.7151 0.00395696 55.6545C0.00395696 47.0436 0.00395696 38.4485 0.00395696 29.8375C0.00395696 29.6634 -0.0118709 29.4735 0.0197848 29.2994C0.146407 28.6029 0.890316 28.2705 1.47595 28.6662C1.66588 28.7928 1.82416 28.9828 1.99826 29.1411C10.6244 37.7678 19.2664 46.3946 27.8926 55.0372C27.9717 55.1164 28.0667 55.2113 28.1459 55.2905C28.4466 55.5912 28.589 55.9395 28.4308 56.3668C28.2566 56.8101 27.9084 56.9842 27.4494 56.9842C26.8796 56.9842 26.3098 56.9842 25.7242 56.9842C21.8939 57 18.0477 57 14.2174 57ZM1.93495 55.053C9.69059 55.053 17.3988 55.053 25.0119 55.053C17.3354 47.3602 9.62728 39.6673 1.93495 31.9745C1.93495 39.604 1.93495 47.3127 1.93495 55.053Z" fill="#01A0C6"/>
<path d="M18.9974 23.2844C18.9974 21.6382 19.0132 20.0078 18.9815 18.3616C18.9657 17.7284 19.2031 17.3327 19.8046 17.0794C22.4795 15.9081 25.1544 14.7209 27.8135 13.5179C28.2883 13.2963 28.6998 13.2963 29.1588 13.5179C31.8021 14.7051 34.4612 15.8923 37.1202 17.0478C37.7533 17.3169 38.0066 17.7284 37.9908 18.4091C37.9591 21.654 37.9749 24.8989 37.9908 28.1438C37.9908 28.8245 37.7533 29.236 37.1202 29.521C34.4612 30.6765 31.8021 31.8636 29.1588 33.0508C28.684 33.2566 28.2725 33.2566 27.7976 33.0508C25.1386 31.8478 22.4637 30.6606 19.7888 29.4893C19.1873 29.236 18.9657 28.8403 18.9657 28.2072C19.0132 26.561 18.9974 24.9147 18.9974 23.2844ZM20.9284 19.5646C20.9125 19.7862 20.8967 19.9603 20.8967 20.1186C20.8967 22.5246 20.9125 24.9464 20.8809 27.3524C20.8809 27.764 21.0233 27.9381 21.3715 28.0805C23.2551 28.9036 25.1227 29.7426 27.0063 30.5815C27.1645 30.6448 27.3228 30.6923 27.5286 30.7715C27.5286 28.0489 27.5286 25.4054 27.5127 22.7462C27.5127 22.5879 27.2912 22.3505 27.117 22.2713C25.186 21.4007 23.2551 20.546 21.3241 19.6912C21.2291 19.6595 21.1025 19.6279 20.9284 19.5646ZM36.0914 19.5646C35.9332 19.612 35.854 19.6279 35.7907 19.6595C33.8122 20.546 31.8179 21.4324 29.8236 22.303C29.507 22.4454 29.4279 22.6037 29.4437 22.9203C29.4596 24.8514 29.4437 26.7984 29.4437 28.7295C29.4437 29.3943 29.4437 30.0592 29.4437 30.724C29.5387 30.7398 29.5862 30.7556 29.6178 30.7398C31.6913 29.8217 33.7806 28.9195 35.8382 27.9856C35.9648 27.9381 36.0756 27.7165 36.0756 27.5898C36.0914 24.9306 36.0914 22.2871 36.0914 19.5646ZM22.3687 18.0133C22.4953 18.1083 22.5428 18.1558 22.5903 18.1716C24.458 19.0106 26.3257 19.8495 28.225 20.6568C28.4149 20.7359 28.7315 20.6884 28.9372 20.6093C30.6941 19.8495 32.4352 19.058 34.1763 18.2824C34.3029 18.2191 34.4295 18.14 34.6511 18.0292C32.5935 17.1111 30.6467 16.2405 28.684 15.3857C28.5732 15.3382 28.4149 15.3541 28.2883 15.4016C26.3415 16.2563 24.3947 17.1111 22.3687 18.0133Z" fill="#01A0C6"/>
<path d="M29.4121 6.69564C29.4121 8.27853 29.4121 9.81394 29.4121 11.3652C28.7948 11.3652 28.2092 11.3652 27.5919 11.3652C27.5919 9.82977 27.5919 8.27853 27.5919 6.69564C28.1775 6.69564 28.779 6.69564 29.4121 6.69564Z" fill="#01A0C6"/>
<path d="M29.4121 36.1375C29.4121 37.7045 29.4121 39.2241 29.4121 40.807C28.8106 40.807 28.2092 40.807 27.576 40.807C27.576 39.2558 27.576 37.7204 27.576 36.1375C28.1775 36.1375 28.7631 36.1375 29.4121 36.1375Z" fill="#01A0C6"/>
<path d="M15.9109 29.5368C16.18 30.1066 16.4333 30.629 16.734 31.2463C15.4044 31.8795 14.1066 32.5126 12.7612 33.1458C12.4921 32.5601 12.223 32.0219 11.9381 31.4363C13.2835 30.7873 14.5656 30.17 15.9109 29.5368Z" fill="#01A0C6"/>
<path d="M16.734 16.2563C16.4333 16.8736 16.18 17.396 15.9109 17.9658C14.5814 17.3327 13.2835 16.7154 11.954 16.0664C12.2389 15.4807 12.4921 14.9267 12.7612 14.3568C14.0907 14.99 15.3728 15.6073 16.734 16.2563Z" fill="#01A0C6"/>
<path d="M41.0614 17.95C40.7765 17.3643 40.5232 16.8262 40.2383 16.2405C41.5679 15.6073 42.8657 14.9742 44.2111 14.341C44.4802 14.9109 44.7493 15.449 45.0342 16.0505C43.7204 16.6837 42.4226 17.301 41.0614 17.95Z" fill="#01A0C6"/>
<path d="M16.1325 3.86226C16.1325 4.47959 16.1325 5.04943 16.1325 5.68259C15.5152 5.68259 14.9138 5.68259 14.2807 5.68259C14.2807 5.08109 14.2807 4.49542 14.2807 3.86226C14.8663 3.86226 15.4678 3.86226 16.1325 3.86226Z" fill="#01A0C6"/>
<path d="M12.318 3.84643C12.318 4.47959 12.318 5.06526 12.318 5.66676C11.7007 5.66676 11.1309 5.66676 10.4978 5.66676C10.4978 5.08109 10.4978 4.47959 10.4978 3.84643C11.0834 3.84643 11.6849 3.84643 12.318 3.84643Z" fill="#01A0C6"/>
<path d="M18.0952 3.8306C18.7125 3.8306 19.2823 3.8306 19.9154 3.8306C19.9154 4.44793 19.9154 5.04943 19.9154 5.68259C19.3139 5.68259 18.7283 5.68259 18.0952 5.68259C18.0952 5.09692 18.0952 4.49542 18.0952 3.8306Z" fill="#01A0C6"/>
<path d="M10.4187 51.3016C9.23159 51.3016 8.0445 51.3016 6.85741 51.3016C6.05019 51.3016 5.70198 50.9533 5.70198 50.1461C5.70198 47.7559 5.70198 45.3657 5.70198 42.9756C5.70198 42.4849 5.8286 42.0733 6.31926 41.8834C6.7941 41.6934 7.15814 41.915 7.4747 42.2474C9.89636 44.6851 12.3338 47.1069 14.7713 49.5446C15.1037 49.877 15.3253 50.2252 15.1354 50.7001C14.9296 51.1908 14.5339 51.3332 14.0432 51.3174C12.8245 51.2858 11.6216 51.3016 10.4187 51.3016ZM7.63298 49.3388C9.05748 49.3388 10.4345 49.3388 11.7324 49.3388C10.3712 47.9775 8.99417 46.6004 7.63298 45.2391C7.63298 46.5687 7.63298 47.93 7.63298 49.3388Z" fill="#01A0C6"/>
</svg>
