<svg width="50" height="57" viewBox="0 0 50 57" fill="none" xmlns="http://www.w3.org/2000/svg">
<path d="M45.8515 50.2167H4.14847C1.86232 50.2167 0 48.3468 0 46.0514V20.8656C0 18.5701 1.86232 16.7002 4.14847 16.7002H9.04187C9.40149 16.7002 9.68405 16.9839 9.68405 17.345C9.68405 17.7061 9.40149 17.9898 9.04187 17.9898H4.14847C2.56871 17.9898 1.28436 19.2794 1.28436 20.8656V46.0514C1.28436 47.6376 2.56871 48.9271 4.14847 48.9271H45.8515C47.4313 48.9271 48.7156 47.6376 48.7156 46.0514V20.8656C48.7156 19.2794 47.4313 17.9898 45.8515 17.9898H43.6167C43.2571 17.9898 42.9746 17.7061 42.9746 17.345C42.9746 16.9839 43.2571 16.7002 43.6167 16.7002H45.8515C48.1377 16.7002 50 18.5701 50 20.8656V46.0514C50 48.3468 48.1377 50.2167 45.8515 50.2167Z" fill="#01A0C6"/>
<path d="M29.4375 57H20.5754C20.3442 57 20.1387 56.8839 20.0231 56.6905C19.9075 56.4971 19.8947 56.252 20.0103 56.0586C21.0891 53.9953 21.0891 52.0222 20.0103 49.8557C19.9075 49.6493 19.9204 49.4172 20.036 49.2238C20.1516 49.0303 20.3571 48.9143 20.5882 48.9143H29.4503C29.6686 48.9143 29.8741 49.0303 30.0026 49.2238C30.1182 49.4172 30.131 49.6493 30.0283 49.8557C28.9494 52.0351 28.9494 53.9953 30.0283 56.0586C30.131 56.252 30.131 56.4971 30.0154 56.6905C29.8613 56.8839 29.6558 57 29.4375 57ZM21.5643 55.7104H28.4357C27.7293 53.905 27.7421 52.0867 28.4485 50.2038H21.5515C22.2707 52.0867 22.2707 53.905 21.5643 55.7104Z" fill="#01A0C6"/>
<path d="M32.1218 57H17.8911C17.5315 57 17.2489 56.7163 17.2489 56.3552C17.2489 55.9941 17.5315 55.7104 17.8911 55.7104H32.1218C32.4814 55.7104 32.7639 55.9941 32.7639 56.3552C32.7639 56.7163 32.4685 57 32.1218 57Z" fill="#01A0C6"/>
<path d="M18.1351 36.4439H17.2746C16.3755 36.4439 15.6563 35.7346 15.5921 34.8061L15.4637 32.962C14.5774 32.7428 13.7426 32.3946 12.9592 31.9174L11.5721 33.1296C10.8657 33.7486 9.86386 33.7357 9.23452 33.1038L8.63088 32.4977C8.00154 31.8658 7.9887 30.8471 8.60519 30.1507L9.81248 28.7579C9.33727 27.9713 8.9905 27.133 8.77216 26.2432L6.93553 26.1143C5.99795 26.0498 5.30439 25.3276 5.30439 24.4249V23.5609C5.30439 22.6581 6.01079 21.936 6.93553 21.8715L8.77216 21.7425C8.9905 20.8527 9.33727 20.0145 9.81248 19.2278L8.60519 17.8351C7.9887 17.1258 8.00154 16.1199 8.63088 15.488L9.23452 14.8819C9.86386 14.25 10.8785 14.2371 11.5721 14.8561L12.9592 16.0683C13.8582 15.5267 14.8343 15.1398 15.8746 14.9335C16.2214 14.869 16.5554 15.0882 16.6324 15.4364C16.6966 15.7846 16.4783 16.1199 16.1315 16.1973C15.104 16.4036 14.1408 16.8163 13.2674 17.4095C13.0234 17.5771 12.7023 17.5514 12.4839 17.3579L10.7372 15.8233C10.5831 15.6814 10.3134 15.6299 10.1464 15.7975L9.55561 16.4165C9.38865 16.5842 9.44002 16.8421 9.5813 17.0097L11.1097 18.7636C11.3023 18.9828 11.3152 19.3052 11.1611 19.5502C10.5574 20.44 10.1464 21.433 9.94092 22.4905C9.88955 22.7742 9.64552 22.9934 9.35012 23.0063L7.03827 23.1611C6.81993 23.174 6.60159 23.3158 6.60159 23.5609V24.4249C6.60159 24.6699 6.83278 24.8118 7.03827 24.8247L9.35012 24.9794C9.64552 25.0052 9.8767 25.2115 9.94092 25.4952C10.1464 26.5527 10.5574 27.5457 11.1611 28.4355C11.328 28.6805 11.3023 29.0029 11.1097 29.2222L9.5813 30.9889C9.44002 31.1437 9.38865 31.4145 9.55561 31.5821L10.1593 32.1882C10.3262 32.3559 10.5831 32.3043 10.7501 32.1624L12.4968 30.6278C12.7151 30.4344 13.0362 30.4215 13.2802 30.5762C14.1665 31.1824 15.1554 31.595 16.2086 31.8014C16.4911 31.8529 16.7095 32.098 16.7223 32.3946L16.8764 34.7158C16.8893 34.9222 17.0306 35.1543 17.2746 35.1543H18.1351C18.3791 35.1543 18.5204 34.9222 18.5333 34.7158L18.6874 32.3946C18.7131 32.098 18.9186 31.8658 19.2011 31.8014C20.2543 31.595 21.2433 31.1824 22.1295 30.5762C22.4249 30.3699 22.823 30.4473 23.0157 30.7439C23.2083 31.0405 23.1441 31.4403 22.8487 31.6337C21.9497 32.2398 20.9735 32.6912 19.9204 32.9491L19.7919 34.7932C19.7534 35.7346 19.0342 36.4439 18.1351 36.4439Z" fill="#01A0C6"/>
<path d="M17.7113 29.4543C14.7187 29.4543 12.2784 27.0041 12.2784 23.9993C12.2784 21.8715 13.5243 19.9242 15.4508 19.0344C15.7719 18.8925 16.1572 19.0344 16.2985 19.3568C16.4398 19.6792 16.2985 20.0661 15.9774 20.2079C14.5004 20.8914 13.55 22.3744 13.55 23.9993C13.55 26.2948 15.4123 28.1647 17.6984 28.1647C18.2764 28.1647 18.8287 28.0486 19.3553 27.8165C19.6763 27.6747 20.0616 27.8294 20.2029 28.1518C20.3442 28.4742 20.1901 28.8611 19.869 29.0029C19.1883 29.2995 18.4562 29.4543 17.7113 29.4543Z" fill="#01A0C6"/>
<path d="M35.962 38.1333H23.3881C22.5405 38.1333 21.8469 37.4369 21.8469 36.5857V31.0663C19.8562 29.8025 18.1736 28.0486 16.992 25.9982C15.7077 23.7672 15.027 21.2267 15.027 18.6346C15.027 10.536 21.59 3.93326 29.6686 3.93326C37.7344 3.93326 44.3103 10.5231 44.3103 18.6346C44.3103 21.2267 43.6296 23.7672 42.3452 25.9982C41.1636 28.0486 39.494 29.8025 37.4904 31.0663V36.5857C37.5032 37.4369 36.8097 38.1333 35.962 38.1333ZM29.6815 5.23575C22.3221 5.23575 16.3242 11.2452 16.3242 18.6475C16.3242 23.3416 18.8158 27.752 22.823 30.1636C23.0157 30.2796 23.1313 30.486 23.1313 30.7181V36.5986C23.1313 36.7405 23.2469 36.8566 23.3881 36.8566H35.962C36.1033 36.8566 36.2189 36.7405 36.2189 36.5986V30.7181C36.2189 30.486 36.3344 30.2796 36.5271 30.1636C40.5343 27.752 43.0259 23.3416 43.0259 18.6475C43.0388 11.2581 37.0408 5.23575 29.6815 5.23575Z" fill="#01A0C6"/>
<path d="M34.0226 42.0923H25.3275C23.889 42.0923 22.7074 40.9188 22.7074 39.4615V37.4756C22.7074 37.1145 22.99 36.8308 23.3496 36.8308C23.7092 36.8308 23.9918 37.1145 23.9918 37.4756V39.4615C23.9918 40.1966 24.5826 40.8027 25.3275 40.8027H34.0226C34.7547 40.8027 35.3583 40.2095 35.3583 39.4615V37.4756C35.3583 37.1145 35.6409 36.8308 36.0005 36.8308C36.3601 36.8308 36.6427 37.1145 36.6427 37.4756V39.4615C36.6427 40.9188 35.4739 42.0923 34.0226 42.0923Z" fill="#01A0C6"/>
<path d="M31.5823 46.0514H27.7806C26.3422 46.0514 25.1605 44.8778 25.1605 43.4206V41.4346C25.1605 41.0735 25.4431 40.7898 25.8027 40.7898C26.1623 40.7898 26.4449 41.0735 26.4449 41.4346V43.4206C26.4449 44.1557 27.0357 44.7618 27.7806 44.7618H31.5823C32.3144 44.7618 32.9181 44.1686 32.9181 43.4206V41.4346C32.9181 41.0735 33.2006 40.7898 33.5602 40.7898C33.9199 40.7898 34.2024 41.0735 34.2024 41.4346V43.4206C34.1896 44.8778 33.0208 46.0514 31.5823 46.0514Z" fill="#01A0C6"/>
<path d="M26.0339 38.1333C25.6743 38.1333 25.3917 37.8495 25.3917 37.4885V32.3946C25.3917 32.0335 25.6743 31.7498 26.0339 31.7498C26.3935 31.7498 26.6761 32.0335 26.6761 32.3946V37.4885C26.6761 37.8367 26.3807 38.1333 26.0339 38.1333Z" fill="#01A0C6"/>
<path d="M29.6815 38.1333C29.3219 38.1333 29.0393 37.8495 29.0393 37.4885V31.1824C29.0393 30.8213 29.3219 30.5376 29.6815 30.5376C30.0411 30.5376 30.3237 30.8213 30.3237 31.1824V37.4885C30.3237 37.8366 30.0411 38.1333 29.6815 38.1333Z" fill="#01A0C6"/>
<path d="M33.3291 38.1333C32.9694 38.1333 32.6869 37.8495 32.6869 37.4885V31.4532L27.2412 26.0885C26.9843 25.8434 26.9843 25.4308 27.2284 25.1728C27.4724 24.9149 27.8834 24.9149 28.1403 25.16L33.7786 30.7052C33.907 30.8213 33.9712 30.9889 33.9712 31.1695V37.4756C33.9712 37.8366 33.6887 38.1333 33.3291 38.1333Z" fill="#01A0C6"/>
<path d="M26.3935 26.8235C25.045 26.8235 23.9404 25.7274 23.9404 24.3604C23.9404 22.9934 25.0321 21.8973 26.3935 21.8973C27.7421 21.8973 28.8466 22.9934 28.8466 24.3604C28.8466 25.7274 27.7421 26.8235 26.3935 26.8235ZM26.3935 23.1998C25.7514 23.1998 25.2248 23.7285 25.2248 24.3733C25.2248 25.0181 25.7514 25.5468 26.3935 25.5468C27.0357 25.5468 27.5623 25.0181 27.5623 24.3733C27.5623 23.7285 27.0357 23.1998 26.3935 23.1998Z" fill="#01A0C6"/>
<path d="M36.861 31.3629C36.5014 31.3629 36.2189 31.0792 36.2189 30.7181L36.2189 22.3228C36.2189 21.9618 36.5014 21.6781 36.861 21.6781C37.2207 21.6781 37.5032 21.9618 37.5032 22.3228V30.7181C37.5032 31.0663 37.2207 31.3629 36.861 31.3629Z" fill="#01A0C6"/>
<path d="M36.861 22.9676C35.5125 22.9676 34.4079 21.8715 34.4079 20.5045C34.4079 19.1376 35.4996 18.0414 36.861 18.0414C38.2096 18.0414 39.3142 19.1376 39.3142 20.5045C39.3142 21.8586 38.2096 22.9676 36.861 22.9676ZM36.861 19.331C36.2189 19.331 35.6923 19.8597 35.6923 20.5045C35.6923 21.1493 36.2189 21.6781 36.861 21.6781C37.5032 21.6781 38.0298 21.1493 38.0298 20.5045C38.0298 19.8597 37.5032 19.331 36.861 19.331Z" fill="#01A0C6"/>
<path d="M30.5035 29.0545C30.1438 29.0545 29.8613 28.7708 29.8613 28.4097V18.2993C29.8613 17.9382 30.1438 17.6545 30.5035 17.6545C30.8631 17.6545 31.1456 17.9382 31.1456 18.2993V28.4097C31.1456 28.7708 30.8631 29.0545 30.5035 29.0545Z" fill="#01A0C6"/>
<path d="M30.5035 18.9441C29.1549 18.9441 28.0503 17.848 28.0503 16.481C28.0503 15.1269 29.142 14.0179 30.5035 14.0179C31.852 14.0179 32.9566 15.114 32.9566 16.481C32.9566 17.848 31.852 18.9441 30.5035 18.9441ZM30.5035 15.3204C29.8613 15.3204 29.3347 15.8491 29.3347 16.4939C29.3347 17.1387 29.8613 17.6674 30.5035 17.6674C31.1456 17.6674 31.6722 17.1387 31.6722 16.4939C31.6722 15.8491 31.1456 15.3204 30.5035 15.3204Z" fill="#01A0C6"/>
<path d="M29.6815 3.26267C29.3219 3.26267 29.0393 2.97896 29.0393 2.61787V0.644796C29.0393 0.28371 29.3219 0 29.6815 0C30.0411 0 30.3237 0.28371 30.3237 0.644796V2.61787C30.3237 2.97896 30.0411 3.26267 29.6815 3.26267Z" fill="#01A0C6"/>
<path d="M24.9294 3.89457C24.6468 3.89457 24.3899 3.70113 24.3129 3.41742L23.7991 1.50882C23.7092 1.16063 23.9147 0.812443 24.2486 0.722172C24.5954 0.6319 24.9422 0.838235 25.0321 1.17353L25.5459 3.08213C25.6358 3.43032 25.4303 3.77851 25.0963 3.86878C25.045 3.88167 24.9936 3.89457 24.9294 3.89457Z" fill="#01A0C6"/>
<path d="M20.5112 5.73869C20.2928 5.73869 20.0745 5.62262 19.9589 5.41629L18.9828 3.71403C18.803 3.40452 18.9057 3.01765 19.214 2.8371C19.5222 2.65656 19.9075 2.75973 20.0873 3.06923L21.0634 4.77149C21.2433 5.081 21.1405 5.46787 20.8323 5.64842C20.7295 5.7129 20.6139 5.73869 20.5112 5.73869Z" fill="#01A0C6"/>
<path d="M16.7095 8.66606C16.5425 8.66606 16.3755 8.60158 16.26 8.47262L14.8728 7.07986C14.616 6.82195 14.616 6.42217 14.8728 6.16425C15.1297 5.90633 15.5279 5.90633 15.7847 6.16425L17.1718 7.55701C17.4287 7.81493 17.4287 8.21471 17.1718 8.47262C17.0434 8.60158 16.8764 8.66606 16.7095 8.66606Z" fill="#01A0C6"/>
<path d="M42.6535 8.66606C42.4865 8.66606 42.3195 8.60158 42.204 8.47262C41.9471 8.21471 41.9471 7.81493 42.204 7.55701L43.5911 6.16425C43.8479 5.90633 44.2461 5.90633 44.503 6.16425C44.7598 6.42217 44.7598 6.82195 44.503 7.07986L43.1158 8.47262C42.9746 8.60158 42.8204 8.66606 42.6535 8.66606Z" fill="#01A0C6"/>
<path d="M38.8518 5.73869C38.749 5.73869 38.6334 5.7129 38.5307 5.64842C38.2225 5.46787 38.1197 5.081 38.2995 4.77149L39.2756 3.06923C39.4554 2.75973 39.8407 2.65656 40.149 2.8371C40.4572 3.01765 40.56 3.40452 40.3802 3.71403L39.4041 5.41629C39.2885 5.62262 39.0701 5.73869 38.8518 5.73869Z" fill="#01A0C6"/>
<path d="M34.4336 3.89457C34.3822 3.89457 34.318 3.88167 34.2666 3.86878C33.9199 3.77851 33.7144 3.41742 33.8171 3.08213L34.3308 1.17353C34.4208 0.825339 34.7804 0.619004 35.1143 0.722172C35.4611 0.812443 35.6666 1.17353 35.5638 1.50882L35.0501 3.41742C34.973 3.70113 34.7162 3.89457 34.4336 3.89457Z" fill="#01A0C6"/>
<path d="M26.0339 33.0394C24.6853 33.0394 23.5808 31.9432 23.5808 30.5762C23.5808 29.2222 24.6725 28.1131 26.0339 28.1131C27.3825 28.1131 28.487 29.2093 28.487 30.5762C28.4742 31.9303 27.3825 33.0394 26.0339 33.0394ZM26.0339 29.4156C25.3917 29.4156 24.8651 29.9443 24.8651 30.5891C24.8651 31.2339 25.3917 31.7627 26.0339 31.7627C26.6761 31.7627 27.2027 31.2339 27.2027 30.5891C27.2027 29.9443 26.6761 29.4156 26.0339 29.4156Z" fill="#01A0C6"/>
</svg>
