<svg width="57" height="57" viewBox="0 0 57 57" fill="none" xmlns="http://www.w3.org/2000/svg">
<path d="M50.6066 33.6956L50.3138 33.8535C49.1311 32.4183 47.0819 31.8622 45.5208 32.6533C45.5152 32.656 45.5097 32.659 45.5042 32.6618L44.813 33.034C43.9887 32.336 42.969 31.9093 41.8933 31.8121C40.8175 31.7149 39.7379 31.952 38.8018 32.4909L35.0797 34.5151H30.1268C29.0544 34.5137 27.9959 34.2712 27.0299 33.8055L26.3485 33.476C24.4087 32.5322 22.2456 32.1436 20.0986 32.3533C17.9516 32.563 15.9045 33.3627 14.1839 34.664C14.1678 34.6763 14.152 34.6887 14.1369 34.7026L12.4919 36.167C11.8703 36.7191 11.1354 37.1287 10.3389 37.3671L9.40462 34.3004C9.35833 34.1486 9.26451 34.0157 9.13697 33.9212C9.00944 33.8268 8.85494 33.7758 8.69624 33.7758H0.740609C0.635787 33.7758 0.532158 33.798 0.436576 33.8411C0.340993 33.8841 0.255633 33.9469 0.186141 34.0254C0.116649 34.1039 0.0646075 34.1962 0.0334573 34.2963C0.0023071 34.3964 -0.00724185 34.5019 0.00544163 34.606L2.65728 56.349C2.67917 56.5286 2.76602 56.694 2.90146 56.8139C3.0369 56.9338 3.21154 57 3.39244 57H15.3252C15.4409 57 15.5551 56.9729 15.6584 56.9208C15.7618 56.8687 15.8515 56.7932 15.9204 56.7001C15.9892 56.6071 16.0354 56.4993 16.055 56.3852C16.0747 56.2712 16.0674 56.1541 16.0336 56.0434L14.466 50.8997L19.3483 47.814C20.0015 47.4525 20.7679 47.3534 21.4917 47.5367C21.507 47.5405 21.5224 47.5439 21.538 47.5467L31.4693 49.3754C34.1682 49.8583 36.9509 49.4654 39.4106 48.2541C39.442 48.2386 39.4723 48.2209 39.5012 48.2011L56.6786 36.4073C56.8342 36.3004 56.9432 36.1382 56.9832 35.9537C57.0232 35.7693 56.9912 35.5765 56.8939 35.4148C56.2689 34.3739 55.2663 33.6141 54.0951 33.2939C52.9239 32.9736 51.6743 33.1175 50.6066 33.6956ZM46.1979 33.9706C47.1008 33.5184 48.2375 33.8891 48.9636 34.5819L42.4497 38.0959L42.0671 38.2975C41.8608 37.7118 41.5594 37.1642 41.1749 36.6767L46.1979 33.9706ZM39.5186 33.7873C39.5244 33.7839 39.5309 33.7807 39.5361 33.7773C40.1195 33.4401 40.7827 33.2655 41.4565 33.2719C42.1304 33.2782 42.7901 33.4652 43.3671 33.8133L40.0553 35.5964C39.4239 35.1356 38.7035 34.8113 37.9399 34.6443L39.5186 33.7873ZM4.04763 55.5189L1.57711 35.2569H8.14733L14.3252 55.5189H4.04763ZM38.7057 46.9491C36.543 48.0019 34.102 48.341 31.7343 47.9178L21.8274 46.0935C20.7377 45.8245 19.5865 45.9805 18.6077 46.5299C18.5962 46.5361 18.5847 46.5431 18.5735 46.5502L14.0169 49.4307L10.7707 38.7849C11.7717 38.4832 12.6949 37.9669 13.4759 37.272L15.0977 35.8279C16.6003 34.6983 18.3855 34.0053 20.2567 33.8253C22.1279 33.6453 24.0125 33.9853 25.7028 34.8078L26.3841 35.1373C27.5513 35.6999 28.8302 35.9929 30.1259 35.9947H36.7327C37.7036 35.996 38.6437 36.3355 39.3916 36.9547C40.1394 37.5738 40.6482 38.4341 40.8307 39.3877L36.0421 39.1711C34.3013 39.0928 32.5569 39.1734 30.8307 39.4119C30.6377 39.4405 30.4638 39.5442 30.3467 39.7004C30.2297 39.8566 30.1791 40.0527 30.2059 40.246C30.2327 40.4393 30.3347 40.6143 30.4897 40.7328C30.6448 40.8513 30.8403 40.9038 31.0339 40.8789C32.6706 40.6527 34.3245 40.5764 35.9751 40.6508L41.6105 40.9057C41.6218 40.9057 41.633 40.9065 41.6441 40.9065C41.8405 40.9065 42.0289 40.8284 42.1678 40.6896C42.3067 40.5507 42.3847 40.3623 42.3847 40.1659C42.3847 40.0461 42.3796 39.9273 42.3724 39.8092L43.1452 39.4019L51.3101 34.9985C51.9372 34.6589 52.6589 34.536 53.363 34.6489C54.0671 34.7617 54.7142 35.104 55.2037 35.6225L38.7057 46.9491Z" fill="#01A0C6"/>
<path d="M6.40199 52.4551C6.40199 52.9163 6.53874 53.3671 6.79494 53.7505C7.05115 54.1339 7.4153 54.4327 7.84136 54.6092C8.26741 54.7857 8.73623 54.8319 9.18852 54.7419C9.64082 54.6519 10.0563 54.4299 10.3824 54.1038C10.7085 53.7777 10.9305 53.3623 11.0205 52.91C11.1105 52.4577 11.0643 51.9889 10.8878 51.5629C10.7113 51.1368 10.4125 50.7727 10.029 50.5165C9.6456 50.2603 9.1948 50.1236 8.73364 50.1236C8.11546 50.1243 7.52279 50.3701 7.08567 50.8072C6.64855 51.2443 6.40268 51.837 6.40199 52.4551ZM8.73364 51.6047C8.90184 51.6047 9.06627 51.6546 9.20613 51.748C9.34598 51.8415 9.45499 51.9743 9.51936 52.1297C9.58372 52.2851 9.60057 52.4561 9.56775 52.621C9.53494 52.786 9.45394 52.9375 9.335 53.0565C9.21606 53.1754 9.06453 53.2564 8.89955 53.2892C8.73458 53.322 8.56358 53.3052 8.40818 53.2408C8.25278 53.1765 8.11996 53.0675 8.02651 52.9276C7.93306 52.7878 7.88319 52.6233 7.88319 52.4551C7.88358 52.2297 7.97331 52.0137 8.13272 51.8543C8.29214 51.695 8.50823 51.6053 8.73364 51.605V51.6047Z" fill="#01A0C6"/>
<path d="M34.131 8.03549V5.59507C34.124 4.10876 33.5287 2.6857 32.4752 1.63717C31.4217 0.588644 29.9958 0 28.5094 0C27.023 0 25.5971 0.588644 24.5436 1.63717C23.4901 2.6857 22.8948 4.10876 22.8878 5.59507V8.03549C22.8948 9.5218 23.4901 10.9449 24.5436 11.9934C25.5971 13.0419 27.023 13.6306 28.5094 13.6306C29.9958 13.6306 31.4217 13.0419 32.4752 11.9934C33.5287 10.9449 34.124 9.5218 34.131 8.03549ZM24.369 8.03549V5.59507C24.375 4.50093 24.8139 3.45364 25.5897 2.68208C26.3655 1.91051 27.4152 1.4774 28.5094 1.4774C29.6036 1.4774 30.6533 1.91051 31.4291 2.68208C32.205 3.45364 32.6438 4.50093 32.6498 5.59507V8.03549C32.6438 9.12962 32.205 10.1769 31.4291 10.9485C30.6533 11.72 29.6036 12.1531 28.5094 12.1531C27.4152 12.1531 26.3655 11.72 25.5897 10.9485C24.8139 10.1769 24.375 9.12962 24.369 8.03549Z" fill="#01A0C6"/>
<path d="M19.4481 28.9096H37.5708C37.7672 28.9096 37.9556 28.8316 38.0945 28.6927C38.2334 28.5538 38.3114 28.3655 38.3114 28.1691V26.4692H50.7177C50.9141 26.4692 51.1025 26.3912 51.2413 26.2523C51.3802 26.1134 51.4583 25.9251 51.4583 25.7286V20.9219C51.4575 19.5114 50.9198 18.1542 49.9544 17.1259C48.989 16.0975 47.6684 15.4752 46.2607 15.3854C45.8658 15.3564 45.6627 15.6064 45.4981 15.8073C45.1704 16.2076 44.7557 16.5278 44.2855 16.7436C43.8153 16.9593 43.3021 17.0649 42.785 17.0523C42.2678 17.0396 41.7603 16.9091 41.3013 16.6707C40.8422 16.4322 40.4436 16.0921 40.1359 15.6763C40.0652 15.5806 39.9724 15.5033 39.8656 15.4511C39.7587 15.3988 39.6407 15.373 39.5218 15.376C38.5597 15.3976 37.6203 15.6717 36.7975 16.1707C36.2543 15.5391 35.5899 15.023 34.8436 14.6528C34.0972 14.2827 33.2842 14.066 32.4527 14.0158C32.07 14.0003 31.8765 14.2326 31.689 14.4602C31.3045 14.93 30.8179 15.3058 30.2662 15.559C29.7144 15.8123 29.1122 15.9362 28.5053 15.9214C27.8984 15.9065 27.3029 15.7534 26.7642 15.4735C26.2255 15.1937 25.7578 14.7945 25.3967 14.3065C25.3261 14.2107 25.2334 14.1333 25.1265 14.0811C25.0196 14.0288 24.9016 14.0032 24.7827 14.0063C23.1585 14.0439 21.614 14.7176 20.4816 15.8824C20.3881 15.9781 20.2993 16.0772 20.2128 16.1778C19.4481 15.7122 18.5813 15.4402 17.6877 15.3851C17.2941 15.3561 17.0896 15.6062 16.925 15.807C16.5974 16.2073 16.1827 16.5276 15.7125 16.7433C15.2424 16.9591 14.7291 17.0647 14.212 17.052C13.6948 17.0394 13.1874 16.9089 12.7283 16.6704C12.2692 16.432 11.8707 16.0919 11.563 15.676C11.4922 15.5805 11.3994 15.5033 11.2925 15.451C11.1857 15.3988 11.0678 15.3729 10.9489 15.3757C9.50228 15.4126 8.12729 16.013 7.11708 17.0491C6.10687 18.0852 5.54137 19.4748 5.54117 20.9219V25.7286C5.54117 25.9251 5.61919 26.1134 5.75808 26.2523C5.89697 26.3912 6.08535 26.4692 6.28176 26.4692H18.7075V28.1691C18.7075 28.3655 18.7855 28.5538 18.9244 28.6927C19.0633 28.8316 19.2517 28.9096 19.4481 28.9096ZM39.2056 16.8806C39.6622 17.3988 40.2236 17.8142 40.8526 18.0994C41.4817 18.3845 42.1642 18.5329 42.8549 18.5347C43.5456 18.5365 44.2288 18.3917 44.8593 18.1099C45.4899 17.828 46.0535 17.4155 46.5128 16.8997C47.4759 17.045 48.3549 17.5307 48.9905 18.2686C49.6261 19.0066 49.9762 19.9479 49.9771 20.9219V24.9881H38.3114V20.2372C38.3122 19.251 38.0775 18.2788 37.627 17.4016C38.1109 17.1194 38.6487 16.9419 39.2056 16.8806ZM24.4635 15.5099C24.9755 16.1027 25.6089 16.5786 26.3208 16.9054C27.0328 17.2322 27.8066 17.4023 28.5899 17.4041C29.3733 17.406 30.1479 17.2396 30.8613 16.9162C31.5748 16.5928 32.2104 16.1199 32.7253 15.5295C33.8625 15.6868 34.9045 16.25 35.659 17.1152C36.4135 17.9804 36.8296 19.0893 36.8307 20.2372V27.4285H20.1887V20.2372C20.1961 19.0617 20.6359 17.9301 21.4243 17.0582C22.2128 16.1863 23.2946 15.6352 24.4635 15.5099ZM7.02236 24.9881V20.9219C7.02862 19.9241 7.39897 18.9629 8.06386 18.2188C8.72875 17.4748 9.64242 16.9991 10.6333 16.8811C11.0899 17.3991 11.6512 17.8144 12.2802 18.0994C12.9092 18.3845 13.5916 18.5328 14.2821 18.5345C14.9727 18.5363 15.6558 18.3915 16.2863 18.1097C16.9167 17.8278 17.4802 17.4154 17.9394 16.8997C18.4493 16.9759 18.94 17.1491 19.3848 17.4097C18.9383 18.2853 18.7062 19.2544 18.7075 20.2372V24.9881H7.02236Z" fill="#01A0C6"/>
<path d="M47.799 10.2416V8.10547C47.799 6.77603 47.2708 5.50104 46.3307 4.56098C45.3906 3.62093 44.1156 3.09281 42.7861 3.09281C41.4566 3.09281 40.1816 3.62093 39.2415 4.56098C38.3014 5.50104 37.7732 6.77603 37.7732 8.10547V10.2416C37.7732 11.5711 38.3014 12.8461 39.2415 13.7861C40.1816 14.7262 41.4566 15.2543 42.7861 15.2543C44.1156 15.2543 45.3906 14.7262 46.3307 13.7861C47.2708 12.8461 47.799 11.5711 47.799 10.2416ZM39.2544 10.2416V8.10547C39.2544 7.16885 39.6265 6.27059 40.2888 5.6083C40.9512 4.94602 41.8494 4.57395 42.7861 4.57395C43.7228 4.57395 44.621 4.94602 45.2834 5.6083C45.9457 6.27059 46.3178 7.16885 46.3178 8.10547V10.2416C46.3178 11.1783 45.9457 12.0765 45.2834 12.7388C44.621 13.4011 43.7228 13.7732 42.7861 13.7732C41.8494 13.7732 40.9512 13.4011 40.2888 12.7388C39.6265 12.0765 39.2544 11.1783 39.2544 10.2416Z" fill="#01A0C6"/>
<path d="M19.2262 10.2416V8.10547C19.2262 7.4472 19.0965 6.79537 18.8446 6.18721C18.5927 5.57904 18.2234 5.02645 17.758 4.56098C17.2925 4.09551 16.7399 3.72628 16.1317 3.47437C15.5235 3.22247 14.8716 3.09281 14.2133 3.09281C13.555 3.09281 12.9032 3.22247 12.295 3.47437C11.6868 3.72628 11.1342 4.09551 10.6687 4.56098C10.2032 5.02645 9.83396 5.57904 9.58204 6.18721C9.33012 6.79537 9.20046 7.4472 9.20046 8.10547V10.2416C9.20046 10.8999 9.33012 11.5517 9.58204 12.1599C9.83396 12.7681 10.2032 13.3207 10.6687 13.7861C11.1342 14.2516 11.6868 14.6208 12.295 14.8727C12.9032 15.1246 13.555 15.2543 14.2133 15.2543C14.8716 15.2543 15.5235 15.1246 16.1317 14.8727C16.7399 14.6208 17.2925 14.2516 17.758 13.7861C18.2234 13.3207 18.5927 12.7681 18.8446 12.1599C19.0965 11.5517 19.2262 10.8999 19.2262 10.2416ZM10.6817 10.2416V8.10547C10.6817 7.16885 11.0537 6.27059 11.7161 5.6083C12.3784 4.94602 13.2767 4.57395 14.2133 4.57395C15.15 4.57395 16.0483 4.94602 16.7106 5.6083C17.3729 6.27059 17.745 7.16885 17.745 8.10547V10.2416C17.745 10.7054 17.6536 11.1646 17.4762 11.5931C17.2987 12.0216 17.0385 12.4109 16.7106 12.7388C16.3826 13.0667 15.9933 13.3269 15.5648 13.5043C15.1364 13.6818 14.6771 13.7732 14.2133 13.7732C13.7495 13.7732 13.2903 13.6818 12.8618 13.5043C12.4333 13.3269 12.044 13.0667 11.7161 12.7388C11.3881 12.4109 11.128 12.0216 10.9505 11.5931C10.773 11.1646 10.6817 10.7054 10.6817 10.2416Z" fill="#01A0C6"/>
</svg>
