<svg width="57" height="57" viewBox="0 0 57 57" fill="none" xmlns="http://www.w3.org/2000/svg">
<path d="M31.2277 26.1761C32.5962 28.0218 33.9187 29.806 35.2565 31.5902C35.81 32.3439 36.379 33.0976 36.9326 33.8667C37.6553 34.8664 37.563 35.8047 36.6711 36.6353C36.3482 36.9429 36.0253 37.2352 35.687 37.5274C34.626 38.481 33.4727 38.3887 32.627 37.2352C30.7971 34.7895 28.9673 32.3439 27.1374 29.8983C26.9837 29.6984 26.8453 29.4984 26.753 29.3754C25.8919 29.6368 25.1077 29.9906 24.2927 30.1137C21.3711 30.5905 18.5878 28.9293 17.5576 26.1607C16.5427 23.4382 17.5729 20.362 20.064 18.8085C21.4787 17.9164 22.9395 17.1165 24.4003 16.2859C24.5233 16.209 24.7079 16.1168 24.8309 16.1475C25.4152 16.3167 25.7535 15.9322 26.1379 15.6246C29.4593 12.9944 32.4117 10.0104 34.6106 6.36507C34.9028 5.88825 35.0258 5.48834 34.7644 4.88848C34.1032 3.33497 34.8567 1.56614 36.379 0.797076C37.9013 0.0280153 39.7619 0.535595 40.6538 2.02757C41.684 3.73489 42.6682 5.47296 43.6677 7.21104C43.7753 7.39561 43.8829 7.56481 44.0213 7.79552C45.1439 7.28794 46.251 7.2418 47.3582 7.79552C48.1116 8.16467 48.6652 8.7184 49.0496 9.47207C49.8646 11.1179 49.434 12.779 47.7733 14.271C47.8656 14.4402 47.9425 14.6248 48.0501 14.794C49.0496 16.532 50.0645 18.2547 51.0332 19.9928C51.6791 21.131 51.6329 22.2846 50.941 23.3921C50.2798 24.4534 49.2803 24.9763 48.0194 24.9302C46.9891 24.8994 46.0972 24.4688 45.5129 23.6074C45.2361 23.2075 44.944 23.1152 44.5134 23.1306C40.6384 23.1767 36.9326 24.0227 33.319 25.3455C32.7193 25.5608 32.1349 25.8069 31.5506 26.0376C31.4737 26.053 31.3815 26.0992 31.2277 26.1761ZM26.2302 17.5934C26.3224 17.7625 26.3993 17.9164 26.4762 18.0702C27.6602 20.1313 28.875 22.1923 30.0283 24.2688C30.2743 24.7149 30.4896 24.7302 30.9202 24.5457C34.4107 23.0844 38.0089 22.0385 41.7917 21.6694C42.5759 21.5925 43.3755 21.5463 44.2366 21.4848C41.4688 16.6859 38.747 11.9792 35.9946 7.19566C33.4266 11.3793 30.059 14.6863 26.2302 17.5934ZM37.8244 2.07372C37.0863 2.07372 36.4559 2.55053 36.2252 3.25807C36.0253 3.85794 36.2252 4.3809 36.5328 4.90386C39.1776 9.47208 41.8071 14.0403 44.4519 18.6085C45.1746 19.8544 45.882 21.1003 46.6201 22.3461C47.0967 23.146 47.8348 23.469 48.6037 23.2383C49.7262 22.9153 50.1875 21.7309 49.5724 20.6542C48.3423 18.4855 47.0814 16.3321 45.8358 14.1633C43.7138 10.4872 41.5918 6.82651 39.4851 3.1504C39.0853 2.48901 38.6086 2.05833 37.8244 2.07372ZM24.6002 18.024C23.4008 18.7162 22.2475 19.3622 21.1096 20.039C18.8492 21.4079 18.1265 24.1457 19.4182 26.3453C20.7098 28.5294 23.4469 29.2215 25.7381 27.9449C26.753 27.3758 27.7679 26.7759 28.7828 26.1914C28.9058 26.1145 29.0134 26.0223 29.1518 25.93C27.6295 23.2844 26.1379 20.685 24.6002 18.024ZM28.1062 28.4371C28.2446 28.6371 28.3368 28.7909 28.4598 28.9447C30.0744 31.1134 31.689 33.2822 33.319 35.4509C34.257 36.6968 34.2416 36.6814 35.3949 35.6509C35.7947 35.2971 35.8408 35.051 35.5025 34.6203C33.7803 32.3439 32.0888 30.0367 30.382 27.7449C30.2743 27.6065 30.1667 27.4835 30.0437 27.3297C29.3825 27.6988 28.7674 28.0526 28.1062 28.4371ZM44.8517 9.25674C45.5437 10.4565 46.2203 11.6254 46.8968 12.8098C47.8348 12.1176 48.0655 11.0102 47.5273 10.0719C47.0045 9.13369 45.8973 8.77992 44.8517 9.25674Z" fill="#01A0C6"/>
<path d="M37.9474 43.6799C39.3467 43.6799 40.5615 43.6799 41.7917 43.6799C43.2371 43.6799 43.9445 44.4028 43.9598 45.8486C43.9598 48.848 43.9598 51.8473 43.9598 54.8466C43.9598 56.2771 43.2217 57 41.7917 57C37.7014 57 33.6111 57 29.5055 57C28.06 57 27.3527 56.2925 27.3527 54.8312C27.3527 53.0009 27.3527 51.1859 27.3527 49.3248C26.4455 49.4786 25.5997 49.6939 24.7232 49.7401C22.6012 49.8477 20.4638 49.8785 18.3418 49.9554C18.0035 49.9708 17.6191 50.0631 17.3423 50.2477C14.2515 52.3703 11.1915 54.5236 8.1161 56.6616C7.87007 56.8308 7.56253 56.9846 7.28575 56.9846C6.74755 56.9846 6.48615 56.4617 6.63991 55.8156C7.17811 53.4777 7.73168 51.1398 8.26987 48.8018C8.37751 48.3558 8.63892 47.8174 8.50053 47.479C8.36214 47.1406 7.77781 46.9868 7.39339 46.7561C4.74855 45.218 2.48813 43.28 1.13496 40.4806C-0.833296 36.4199 -0.172086 32.6208 2.58039 29.1754C4.96382 26.1761 8.20837 24.4072 11.7912 23.2383C12.6523 22.9614 13.5288 22.7461 14.4053 22.5461C15.0665 22.3923 15.4817 22.623 15.5893 23.1152C15.697 23.592 15.374 23.9766 14.7282 24.1304C11.9296 24.7302 9.28475 25.7608 6.9167 27.3912C4.7793 28.8524 3.02633 30.6674 2.14984 33.1591C1.02732 36.3738 1.82692 39.2501 3.90281 41.8341C5.379 43.6645 7.27037 44.9719 9.36164 45.9871C10.4073 46.4946 10.4534 46.5869 10.192 47.7251C9.69993 49.8939 9.19249 52.0626 8.66968 54.3391C8.91571 54.1852 9.06948 54.093 9.22325 53.9853C11.7604 52.2164 14.2976 50.4476 16.8349 48.6634C17.2347 48.3865 17.6191 48.2789 18.1265 48.325C21.2327 48.6019 24.2927 48.4173 27.3835 47.6482C27.3835 46.9868 27.3835 46.3408 27.3835 45.6794C27.3988 44.4951 28.1369 43.7414 29.3363 43.726C31.2431 43.7106 33.1344 43.7414 35.0412 43.7106C35.3641 43.7106 35.7639 43.5568 36.0099 43.3415C37.9628 41.6034 39.3467 39.5423 39.6697 36.8814C39.9157 34.7434 39.3775 32.7746 38.132 31.0519C37.3324 29.9598 36.3021 29.0523 35.3641 28.0526C35.2718 27.9603 35.1488 27.8834 35.0566 27.7911C34.7183 27.4681 34.6568 26.9759 34.9489 26.6529C35.2565 26.2991 35.6563 26.2376 36.0253 26.5145C41.6225 30.6674 43.314 37.3582 38.6086 43.0031C38.3934 43.1569 38.2088 43.3569 37.9474 43.6799ZM35.6563 55.385C37.6707 55.385 39.685 55.3696 41.7148 55.4004C42.1915 55.4004 42.3606 55.2619 42.3453 54.7851C42.3299 51.8319 42.3299 48.8633 42.3453 45.9102C42.3453 45.4487 42.1915 45.3103 41.7456 45.3103C37.6707 45.3257 33.5958 45.3257 29.5209 45.3103C29.1057 45.3103 28.9519 45.4487 28.9519 45.8794C28.9673 48.8633 28.9673 51.8319 28.9519 54.8159C28.9519 55.2619 29.0903 55.4157 29.5516 55.4157C31.5814 55.3696 33.6265 55.385 35.6563 55.385Z" fill="#01A0C6"/>
<path d="M1.65777 14.3479C1.8423 14.0095 1.96531 13.6865 2.16521 13.4097C2.76492 12.5791 2.41125 11.687 1.39637 11.5485C0.45837 11.4255 0.0431921 10.9487 0.0278151 10.0258C0.0278151 9.50284 0.0124381 8.97988 0.0278151 8.4723C0.0585691 7.74938 0.519878 7.25718 1.22722 7.14951C2.47275 6.96494 2.79567 6.19588 2.05758 5.18072C1.61164 4.55009 1.62702 3.91946 2.14984 3.35036C2.53426 2.93506 2.91869 2.55053 3.33387 2.166C3.90281 1.64304 4.53327 1.61228 5.16372 2.05833C6.19398 2.79663 6.96283 2.47363 7.14736 1.24313C7.25499 0.504833 7.74706 0.0433966 8.51591 0.0280154C9.06948 -0.00274705 9.60767 -0.00274705 10.1459 0.0126342C10.9608 0.0280154 11.4683 0.489452 11.5605 1.30466C11.6989 2.4121 12.5601 2.78125 13.4519 2.10448C14.1439 1.58152 14.7897 1.61228 15.4202 2.19677C15.7892 2.55053 16.1583 2.91968 16.5273 3.30421C17.0809 3.90408 17.1116 4.53471 16.6503 5.18072C15.943 6.16512 16.2659 6.96494 17.4499 7.13413C18.2034 7.2418 18.6647 7.71862 18.6955 8.4723C18.7262 9.0414 18.7262 9.62589 18.6955 10.195C18.6493 10.9487 18.1726 11.4255 17.4346 11.5332C16.2813 11.687 15.9276 12.5176 16.6196 13.4558C17.1116 14.1326 17.0963 14.7632 16.5119 15.3785C16.1275 15.7784 15.7431 16.1783 15.3279 16.5628C14.7743 17.055 14.1439 17.0704 13.5442 16.6397C12.5293 15.9014 11.7451 16.2244 11.5759 17.4549C11.4837 18.1317 11.007 18.6239 10.315 18.67C9.68456 18.7162 9.03872 18.7162 8.40827 18.67C7.7163 18.6239 7.27037 18.1471 7.17811 17.4395C7.00896 16.2398 6.20936 15.9014 5.22523 16.6243C4.5794 17.1012 3.93357 17.0704 3.34924 16.532C2.94944 16.1475 2.53426 15.7784 2.18059 15.3477C1.94994 15.0555 1.82692 14.7017 1.65777 14.3479ZM4.31799 15.2093C6.1171 13.9172 8.17761 14.9324 8.56204 16.3936C8.73118 17.0089 9.00797 17.1473 9.54616 17.0704C9.66918 17.055 9.80757 17.055 9.94596 17.0396C10.1459 15.9937 10.6533 15.2246 11.6221 14.8247C12.6062 14.4248 13.5288 14.6094 14.3592 15.1939C14.6667 14.9016 14.9589 14.6402 15.2203 14.3941C14.0209 12.3022 14.6206 10.8564 17.0809 9.87199C17.0809 9.73355 17.0655 9.57974 17.0809 9.42593C17.1578 8.93373 17.004 8.68763 16.4658 8.56458C15.6047 8.34925 15.0511 7.734 14.7743 6.90341C14.4514 5.96516 14.6359 5.10381 15.2049 4.33475C14.9127 4.02713 14.6513 3.75027 14.3899 3.47341C12.6984 4.68852 10.3611 3.98099 9.89983 1.65842C9.51541 1.65842 9.14636 1.65842 8.73118 1.65842C8.57741 2.70435 8.03922 3.45802 7.07047 3.85794C6.08634 4.27323 5.16372 4.07327 4.34875 3.50417C4.02583 3.79641 3.74904 4.05789 3.47226 4.30399C4.68704 6.34969 4.08734 7.81091 1.65777 8.81068C1.65777 9.19521 1.65777 9.56436 1.65777 9.93351C3.99507 10.3949 4.67166 12.7637 3.51839 14.3325C3.79517 14.6248 4.05658 14.917 4.31799 15.2093Z" fill="#01A0C6"/>
<path d="M56.9995 31.1288C56.8304 31.7748 56.6151 33.113 56.1692 34.3589C55.0928 37.3121 53.4321 39.8961 50.941 41.8803C49.5878 42.9416 48.0655 43.6491 46.2971 43.2492C45.559 43.0954 44.8363 42.757 44.2059 42.3571C43.3448 41.8341 43.0834 40.7113 43.5447 39.8038C43.9445 39.0348 44.375 38.2811 44.8363 37.5582C45.4514 36.6045 46.5893 36.3584 47.6349 36.9275C48.6652 37.4813 48.6652 37.4813 49.3725 36.5584C50.3567 35.2817 51.1101 33.8974 51.6945 32.4055C51.8944 31.9133 51.8175 31.6056 51.3254 31.3288C49.7723 30.4367 49.5109 29.4369 50.4028 27.8988C50.7103 27.3604 51.0025 26.8221 51.3254 26.2991C51.9559 25.2686 53.1091 24.9609 54.1701 25.5301C56.1384 26.576 56.9841 28.2679 56.9995 31.1288ZM55.3849 30.6981C55.3849 28.9908 54.8929 27.8219 53.5858 27.0528C53.1553 26.7913 52.8477 26.8221 52.6017 27.2989C52.371 27.7449 52.1096 28.1602 51.8636 28.5909C51.3562 29.4676 51.3562 29.483 52.2327 30.006C53.3705 30.6828 53.6935 31.5749 53.2322 32.8361C52.6171 34.5434 51.7406 36.1123 50.6334 37.5582C49.3725 39.1886 48.7575 39.327 46.9276 38.4041C46.9122 38.3887 46.8968 38.3887 46.8815 38.3734C46.5585 38.1888 46.2971 38.2503 46.1126 38.5733C45.7743 39.1732 45.4207 39.7731 45.0824 40.3729C44.8978 40.6959 44.944 40.9574 45.2669 41.1574C46.0511 41.6188 46.8661 41.8803 47.7887 41.6803C48.8805 41.4496 49.757 40.8344 50.5566 40.1114C51.7252 39.0348 52.6786 37.7889 53.4628 36.4046C54.5084 34.5434 55.2927 32.6054 55.3849 30.6981Z" fill="#01A0C6"/>
<path d="M20.6637 38.1119C23.7545 38.1119 26.8453 38.1119 29.9514 38.1119C30.1821 38.1119 30.4127 38.1119 30.6434 38.1734C31.0586 38.2811 31.3046 38.6041 31.1969 38.9886C31.1201 39.2655 30.8279 39.5116 30.5665 39.6961C30.4127 39.8038 30.1513 39.7423 29.9514 39.7423C23.7699 39.7423 17.5729 39.7423 11.3914 39.7423C10.5149 39.7423 10.1151 39.4808 10.1151 38.9271C10.1151 38.3734 10.5149 38.1273 11.4068 38.1273C14.4822 38.1119 17.5729 38.1119 20.6637 38.1119Z" fill="#01A0C6"/>
<path d="M18.0804 33.7436C15.82 33.7436 13.5442 33.7436 11.2838 33.7436C11.0531 33.7436 10.7609 33.7898 10.6072 33.6667C10.3765 33.4821 10.1305 33.1591 10.1459 32.913C10.1612 32.6669 10.4534 32.3901 10.6994 32.2055C10.8378 32.0978 11.0992 32.144 11.3145 32.144C15.7892 32.144 20.2639 32.144 24.7386 32.144C24.8463 32.144 24.9693 32.144 25.0769 32.144C25.6151 32.1901 25.9534 32.4824 25.9688 32.9438C25.9841 33.4206 25.6305 33.759 25.0462 33.759C22.7242 33.7436 20.4023 33.7436 18.0804 33.7436Z" fill="#01A0C6"/>
<path d="M54.2932 14.3633C53.6935 14.3633 53.1091 14.3787 52.5094 14.3633C51.9251 14.3479 51.5868 14.0249 51.5868 13.5481C51.5868 13.102 51.9251 12.7637 52.4787 12.7637C53.6935 12.7483 54.8929 12.7483 56.1076 12.7637C56.6612 12.779 56.9841 13.0867 56.9995 13.5481C57.0149 14.0249 56.6612 14.3479 56.0923 14.3633C55.4926 14.3787 54.8929 14.3633 54.2932 14.3633Z" fill="#01A0C6"/>
<path d="M49.7108 0.689407C49.5878 0.997031 49.5417 1.18161 49.4494 1.3508C48.8805 2.35058 48.3115 3.35036 47.7272 4.35013C47.4197 4.87309 46.9583 5.04229 46.5278 4.81157C46.0972 4.58085 46.005 4.10403 46.3125 3.55031C46.8968 2.51977 47.4965 1.48923 48.0962 0.458689C48.2961 0.104921 48.6344 -0.110415 49.0189 0.0587778C49.311 0.181827 49.4955 0.47407 49.7108 0.689407Z" fill="#01A0C6"/>
<path d="M55.6463 6.0113C55.5541 6.11897 55.4311 6.4266 55.2004 6.56503C54.2009 7.18028 53.186 7.74938 52.1711 8.31848C51.7098 8.57996 51.2331 8.44153 51.0332 8.02624C50.818 7.58019 50.9256 7.19566 51.3562 6.94956C52.371 6.34969 53.4013 5.74982 54.4316 5.18072C55.0159 4.84233 55.6156 5.1961 55.6463 6.0113Z" fill="#01A0C6"/>
<path d="M33.442 46.8638C33.565 46.9099 33.7649 46.9715 33.934 47.0791C35.3487 47.8943 36.7634 48.7095 38.1781 49.5247C38.9623 49.9862 38.9623 50.6629 38.1781 51.1244C36.748 51.955 35.3334 52.7855 33.8879 53.6008C33.1344 54.0314 32.5501 53.6777 32.5347 52.8009C32.5194 51.1244 32.5347 49.4632 32.5347 47.7867C32.5501 47.2329 32.873 46.8638 33.442 46.8638ZM36.3329 50.3399C35.564 49.8939 34.9028 49.5093 34.1955 49.1094C34.1955 49.9708 34.1955 50.7398 34.1955 51.5704C34.9182 51.1551 35.564 50.7706 36.3329 50.3399Z" fill="#01A0C6"/>
<path d="M9.33089 14.2402C6.62454 14.2249 4.41025 11.9946 4.44101 9.31826C4.48714 6.61117 6.65529 4.44242 9.34626 4.44242C12.0372 4.42704 14.2515 6.64193 14.2515 9.34903C14.2515 12.0715 12.0526 14.2402 9.33089 14.2402ZM12.6369 9.34903C12.6369 7.51866 11.1607 6.04207 9.34626 6.05745C7.53178 6.05745 6.05559 7.56481 6.07097 9.36441C6.08634 11.164 7.53178 12.6098 9.34626 12.6252C11.1761 12.6252 12.6369 11.1794 12.6369 9.34903Z" fill="#01A0C6"/>
</svg>
