<svg width="28" height="28" fill="none" xmlns="http://www.w3.org/2000/svg"><g clip-path="url(#clip0_307_483)" fill="#fff"><path d="M24.942 19.732a7.814 7.814 0 0 1-2.775-5.98V10.5c0-4.106-3.05-7.504-7-8.073v-1.26a1.166 1.166 0 1 0-2.334 0v1.26c-3.951.569-7 3.967-7 8.073v3.253a7.823 7.823 0 0 1-2.786 5.988 2.038 2.038 0 0 0-.714 1.55c0 1.127.916 2.042 2.042 2.042h19.25a2.044 2.044 0 0 0 2.042-2.041c0-.598-.26-1.162-.725-1.56zM14 28a4.382 4.382 0 0 0 4.286-3.5H9.714A4.382 4.382 0 0 0 14 28z"/></g><defs><clipPath id="clip0_307_483"><path fill="#fff" d="M0 0h28v28H0z"/></clipPath></defs></svg>