<svg width="20" height="20" fill="none" xmlns="http://www.w3.org/2000/svg"><g clip-path="url(#clip0_307_1544)"><path d="M16.63 3.918a15.777 15.777 0 0 0-3.894-1.208.06.06 0 0 0-.063.03c-.168.299-.354.69-.485.996-1.47-.22-2.933-.22-4.373 0-.13-.314-.324-.697-.493-.996a.061.061 0 0 0-.062-.03 15.732 15.732 0 0 0-3.894 1.208.056.056 0 0 0-.026.022C.86 7.645.18 11.26.514 14.829a.066.066 0 0 0 .025.044 15.865 15.865 0 0 0 4.777 2.415.062.062 0 0 0 .067-.022 11.34 11.34 0 0 0 .977-1.59.06.06 0 0 0-.033-.084 10.447 10.447 0 0 1-1.493-.71.061.061 0 0 1-.006-.103c.1-.075.201-.153.297-.232a.06.06 0 0 1 .062-.008c3.13 1.43 6.52 1.43 9.614 0a.06.06 0 0 1 .062.007c.096.08.197.158.298.233a.061.061 0 0 1-.006.102 9.8 9.8 0 0 1-1.493.71.06.06 0 0 0-.032.086c.287.556.615 1.086.976 1.588a.06.06 0 0 0 .067.023 15.809 15.809 0 0 0 4.785-2.415.061.061 0 0 0 .025-.044c.399-4.126-.668-7.71-2.829-10.888a.048.048 0 0 0-.024-.023zm-9.802 8.737c-.943 0-1.72-.865-1.72-1.928S5.87 8.8 6.828 8.8c.965 0 1.734.873 1.719 1.928 0 1.063-.762 1.928-1.72 1.928zm6.356 0c-.942 0-1.719-.865-1.719-1.928s.762-1.928 1.72-1.928c.964 0 1.733.873 1.718 1.928 0 1.063-.754 1.928-1.719 1.928z" fill="#fff"/></g><defs><clipPath id="clip0_307_1544"><path fill="#fff" transform="translate(.435 .435)" d="M0 0h19.13v19.13H0z"/></clipPath></defs></svg>