<?xml version="1.0" encoding="utf-8"?>
<!-- Generator: Adobe Illustrator 26.0.1, SVG Export Plug-In . SVG Version: 6.00 Build 0)  -->
<svg version="1.1" id="Слой_1" xmlns="http://www.w3.org/2000/svg" xmlns:xlink="http://www.w3.org/1999/xlink" x="0px" y="0px"
	 viewBox="0 0 27 18" style="enable-background:new 0 0 27 18;" xml:space="preserve">
<style type="text/css">
	.st0{fill:#FFFFFF;}
</style>
<path class="st0" d="M24.6,3.2c-3.6-5.9-8.9-1.8-8.9-1.8c-0.3,0.3-1,0.5-1.4,0.5l-1.4,0c-0.4,0-1.1-0.2-1.4-0.5c0,0-5.4-4.1-8.9,1.8
	c-3.6,5.9-2.1,12.3-2.1,12.3c0.3,1.6,1.1,2.6,2.6,2.5c1.6-0.1,5-4.2,5-4.2c0.3-0.3,0.9-0.6,1.3-0.6l8.6,0c0.4,0,1,0.3,1.3,0.6
	c0,0,3.4,4.1,5,4.2c1.6,0.1,2.4-0.9,2.6-2.5C26.7,15.5,28.2,9.1,24.6,3.2z M10.3,8H8.4v1.8c0,0-0.4,0.3-1,0.3
	c-0.6,0-0.9-0.3-0.9-0.3V8H4.8c0,0-0.2-0.2-0.3-0.8C4.5,6.6,4.7,6.1,4.7,6.1h1.9V4.2C6.6,4.2,7,4,7.5,4c0.5,0,0.9,0.2,0.9,0.2l0,1.8
	h1.7c0,0,0.3,0.4,0.3,0.9C10.6,7.4,10.3,8,10.3,8z M18.7,10c-0.8,0-1.5-0.7-1.5-1.5c0-0.8,0.7-1.5,1.5-1.5c0.8,0,1.5,0.7,1.5,1.5
	C20.2,9.4,19.5,10,18.7,10z M18.7,6c-0.8,0-1.5-0.7-1.5-1.5c0-0.8,0.7-1.5,1.5-1.5c0.8,0,1.5,0.7,1.5,1.5C20.2,5.3,19.5,6,18.7,6z
	 M22.4,8.2c-0.8,0-1.5-0.7-1.5-1.5c0-0.8,0.7-1.5,1.5-1.5c0.8,0,1.5,0.7,1.5,1.5C23.9,7.5,23.2,8.2,22.4,8.2z"/>
</svg>
