<svg version="1.1" id="Слой_1" xmlns="http://www.w3.org/2000/svg" x="0" y="0" viewBox="0 0 16 16" xml:space="preserve"><style>.st0{fill:#fff}</style><path class="st0" d="M16 8c0-.5 0-1-.1-1.5 0-.2-.2-.4-.5-.4H8c-.3 0-.5.2-.5.5v2.8c0 .3.2.5.5.5h3.8c-.2.5-.6.9-.9 1.2l2.6 2.6C15 12.3 16 10.3 16 8zM8 3.8c.9 0 1.8.3 2.5.8.2.1.4.1.6 0l2-2c.1-.1.1-.2.1-.4 0-.1-.1-.3-.2-.3C11.7.7 9.9 0 8 0 5.3 0 2.8 1.4 1.4 3.5l2.8 2.8C4.8 4.8 6.3 3.8 8 3.8zM8 16c1.8 0 3.4-.6 4.8-1.6l-2.7-2.7c-.6.3-1.4.5-2.1.5-1.7 0-3.2-1-3.9-2.5l-2.8 2.8C2.8 14.6 5.3 16 8 16zM3.8 8.7c0-.2-.1-.4-.1-.7 0-.2 0-.5.1-.7L.9 4.4C.3 5.5 0 6.7 0 8c0 1.3.3 2.5.9 3.6l2.9-2.9z"/></svg>