<?xml version="1.0" encoding="utf-8"?>
<!-- Generator: Adobe Illustrator 26.0.1, SVG Export Plug-In . SVG Version: 6.00 Build 0)  -->
<svg version="1.1" id="Слой_1" xmlns="http://www.w3.org/2000/svg" xmlns:xlink="http://www.w3.org/1999/xlink" x="0px" y="0px"
	 viewBox="0 0 16 16" style="enable-background:new 0 0 16 16;" xml:space="preserve">
<style type="text/css">
	.st0{fill:#FFFFFF;}
</style>
<path class="st0" d="M16,8c0-0.5,0-1-0.1-1.5c0-0.2-0.2-0.4-0.5-0.4H8c-0.3,0-0.5,0.2-0.5,0.5v2.8c0,0.3,0.2,0.5,0.5,0.5h3.8
	c-0.2,0.5-0.6,0.9-0.9,1.2l2.6,2.6C15,12.3,16,10.3,16,8z"/>
<path class="st0" d="M8,3.8c0.9,0,1.8,0.3,2.5,0.8c0.2,0.1,0.4,0.1,0.6,0l2-2c0.1-0.1,0.1-0.2,0.1-0.4c0-0.1-0.1-0.3-0.2-0.3
	C11.7,0.7,9.9,0,8,0C5.3,0,2.8,1.4,1.4,3.5l2.8,2.8C4.8,4.8,6.3,3.8,8,3.8z"/>
<path class="st0" d="M8,16c1.8,0,3.4-0.6,4.8-1.6l-2.7-2.7C9.5,12,8.7,12.2,8,12.2c-1.7,0-3.2-1-3.9-2.5l-2.8,2.8
	C2.8,14.6,5.3,16,8,16z"/>
<path class="st0" d="M3.8,8.7c0-0.2-0.1-0.4-0.1-0.7c0-0.2,0-0.5,0.1-0.7L0.9,4.4C0.3,5.5,0,6.7,0,8c0,1.3,0.3,2.5,0.9,3.6L3.8,8.7z
	"/>
</svg>
