<?xml version="1.0" encoding="utf-8"?>
<!-- Generator: Adobe Illustrator 26.0.1, SVG Export Plug-In . SVG Version: 6.00 Build 0)  -->
<svg version="1.1" id="Слой_1" xmlns="http://www.w3.org/2000/svg" xmlns:xlink="http://www.w3.org/1999/xlink" x="0px" y="0px"
	 viewBox="0 0 18 17" style="enable-background:new 0 0 18 17;" xml:space="preserve">
<style type="text/css">
	.st0{fill:#FFFFFF;fill-opacity:0.7;}
</style>
<path class="st0" d="M17.5,0h-13C4.2,0,4,0.2,4,0.5v15C4,16,3.8,16.6,3.5,17h12c1.4,0,2.5-1.1,2.5-2.5v-14C18,0.2,17.8,0,17.5,0
	L17.5,0z M14.5,13h-7C7.2,13,7,12.8,7,12.5C7,12.2,7.2,12,7.5,12h7c0.3,0,0.5,0.2,0.5,0.5C15,12.8,14.8,13,14.5,13z M14.5,10h-7
	C7.2,10,7,9.8,7,9.5C7,9.2,7.2,9,7.5,9h7C14.8,9,15,9.2,15,9.5C15,9.8,14.8,10,14.5,10z M14.5,7h-7C7.2,7,7,6.8,7,6.5
	C7,6.2,7.2,6,7.5,6h7C14.8,6,15,6.2,15,6.5C15,6.8,14.8,7,14.5,7z M14.5,4h-7C7.2,4,7,3.8,7,3.5C7,3.2,7.2,3,7.5,3h7
	C14.8,3,15,3.2,15,3.5C15,3.8,14.8,4,14.5,4z"/>
<path class="st0" d="M2.5,2h-2C0.2,2,0,2.2,0,2.5v13C0,16.3,0.7,17,1.5,17C2.3,17,3,16.3,3,15.5v-13C3,2.2,2.8,2,2.5,2z"/>
</svg>
