<?xml version="1.0" encoding="utf-8"?>
<!-- Generator: Adobe Illustrator 26.0.1, SVG Export Plug-In . SVG Version: 6.00 Build 0)  -->
<svg version="1.1" id="Слой_1" xmlns="http://www.w3.org/2000/svg" xmlns:xlink="http://www.w3.org/1999/xlink" x="0px" y="0px"
	 viewBox="0 0 21 18" style="enable-background:new 0 0 21 18;" xml:space="preserve">
<style type="text/css">
	.st0{fill:#FFFFFF;fill-opacity:0.7;}
</style>
<path class="st0" d="M16.7,13.5H8.8c-1.1,0-2.1-0.8-2.4-1.9L3.7,2.4C3.6,2,3.3,1.8,3,1.8H0.9C0.4,1.8,0,1.4,0,0.9S0.4,0,0.9,0H3
	c1.1,0,2.1,0.8,2.4,1.9l0.5,1.7h13.4c0.5,0,1.1,0.3,1.4,0.7c0.3,0.4,0.4,1,0.3,1.5l-1.8,5.9C18.8,12.8,17.8,13.5,16.7,13.5z
	 M19.3,5.4L19.3,5.4L19.3,5.4z"/>
<path class="st0" d="M9.6,18c-1,0-1.7-0.8-1.7-1.8c0-1,0.8-1.8,1.7-1.8s1.7,0.8,1.7,1.8C11.4,17.2,10.6,18,9.6,18z M9.6,16.2
	L9.6,16.2L9.6,16.2z"/>
<path class="st0" d="M15.7,18c-1,0-1.8-0.8-1.8-1.8c0-1,0.8-1.8,1.8-1.8s1.7,0.8,1.7,1.8C17.5,17.2,16.7,18,15.7,18z M15.7,16.2
	L15.7,16.2L15.7,16.2z"/>
</svg>
