<svg width="20" height="16" fill="none" xmlns="http://www.w3.org/2000/svg"><path d="M19.565 2.025a8.012 8.012 0 0 1-2.248.625A3.843 3.843 0 0 0 19.04.462a8.232 8.232 0 0 1-2.487.962 3.925 3.925 0 0 0-2.87-1.25c-2.175 0-3.921 1.78-3.921 3.943 0 .313.024.601.095.89C6.604 4.862 3.735 3.276 1.798.895c-1.387 2.5.167 4.568 1.195 5.266-.621 0-1.243-.193-1.77-.481 0 1.947 1.364 3.558 3.133 3.919-.382.12-1.243.192-1.77.072.503 1.563 1.962 2.717 3.66 2.741-1.34 1.058-3.3 1.9-5.811 1.635a11.019 11.019 0 0 0 6.026 1.78c7.222 0 11.143-6.012 11.143-11.205 0-.168 0-.337-.024-.505.813-.601 1.483-1.298 1.985-2.092z" fill="#fff"/></svg>