<svg width="190" height="175" viewBox="0 0 190 175" fill="none" xmlns="http://www.w3.org/2000/svg">
<g clip-path="url(#clip0_881_195)">
<path style="mix-blend-mode:lighten" opacity="0.8" d="M1003.56 175H139.444C102.475 174.942 67.0344 156.538 40.8937 123.826C14.7531 91.1131 0.0467423 46.7623 0 0.5C0.0374109 -45.7659 14.7408 -90.1235 40.8834 -122.839C67.0261 -155.553 102.472 -173.953 139.444 -174H1003.56C1040.53 -173.953 1075.97 -155.553 1102.12 -122.839C1128.26 -90.1235 1142.96 -45.7659 1143 0.5C1142.96 46.7659 1128.26 91.1234 1102.12 123.838C1075.97 156.553 1040.53 174.953 1003.56 175ZM139.444 -154.945C106.517 -154.887 74.9527 -138.489 51.6732 -109.349C28.3938 -80.2088 15.2995 -40.7046 15.2621 0.5C15.2995 41.7005 28.3949 81.2002 51.6754 110.333C74.9558 139.467 106.52 155.854 139.444 155.901H1003.56C1036.48 155.854 1068.04 139.467 1091.32 110.333C1114.61 81.2002 1127.7 41.7005 1127.74 0.5C1127.71 -40.7082 1114.62 -80.2192 1091.34 -109.362C1068.06 -138.505 1036.49 -154.898 1003.56 -154.945H139.444Z" fill="url(#paint0_linear_881_195)"/>
</g>
<defs>
<linearGradient id="paint0_linear_881_195" x1="571.518" y1="-174" x2="571.518" y2="175" gradientUnits="userSpaceOnUse">
<stop stop-color="#09FEA6"/>
<stop offset="1" stop-color="#D21CFF"/>
</linearGradient>
<clipPath id="clip0_881_195">
<rect width="190" height="175" fill="white"/>
</clipPath>
</defs>
</svg>
