<svg width="190" height="175" viewBox="0 0 190 175" fill="none" xmlns="http://www.w3.org/2000/svg">
<g clip-path="url(#clip0_881_195)">
<path style="mix-blend-mode:lighten" opacity="0.8" d="M1003.56 349H139.444C102.475 348.942 67.0344 330.538 40.8937 297.826C14.7531 265.113 0.0467423 220.762 0 174.5C0.0374109 128.234 14.7408 83.8765 40.8834 51.1615C67.0261 18.4465 102.472 0.046816 139.444 0H1003.56C1040.53 0.046816 1075.97 18.4465 1102.12 51.1615C1128.26 83.8765 1142.96 128.234 1143 174.5C1142.96 220.766 1128.26 265.123 1102.12 297.838C1075.97 330.553 1040.53 348.953 1003.56 349ZM139.444 19.0548C106.517 19.1133 74.9527 35.5108 51.6732 64.651C28.3938 93.7912 15.2995 133.295 15.2621 174.5C15.2995 215.701 28.3949 255.2 51.6754 284.333C74.9558 313.467 106.52 329.854 139.444 329.901H1003.56C1036.48 329.854 1068.04 313.467 1091.32 284.333C1114.61 255.2 1127.7 215.701 1127.74 174.5C1127.71 133.292 1114.62 93.7808 1091.34 64.638C1068.06 35.4953 1036.49 19.1017 1003.56 19.0548H139.444Z" fill="url(#paint0_linear_881_195)"/>
</g>
<defs>
<linearGradient id="paint0_linear_881_195" x1="571.518" y1="0" x2="571.518" y2="349" gradientUnits="userSpaceOnUse">
<stop stop-color="#09FEA6"/>
<stop offset="1" stop-color="#D21CFF"/>
</linearGradient>
<clipPath id="clip0_881_195">
<rect width="190" height="175" fill="white"/>
</clipPath>
</defs>
</svg>
