<svg width="190" height="175" fill="none" xmlns="http://www.w3.org/2000/svg"><g clip-path="url(#clip0_881_195)"><path style="mix-blend-mode:lighten" opacity=".8" d="M50.556 175h-864.112c-36.969-.058-72.41-18.462-98.55-51.174C-938.247 91.113-952.953 46.762-953 .5c.037-46.266 14.741-90.624 40.883-123.339 26.143-32.714 61.589-51.114 98.561-51.161H50.556c36.972.047 72.418 18.447 98.561 51.161C175.259-90.124 189.963-45.766 190 .5c-.037 46.266-14.741 90.623-40.883 123.338-26.143 32.715-61.59 51.115-98.56 51.162zm-864.112-329.945c-32.927.058-64.491 16.456-87.771 45.596C-924.606-80.209-937.7-40.705-937.738.5c.038 41.2 13.133 80.7 36.413 109.833 23.281 29.134 54.845 45.521 87.769 45.568H50.556c32.924-.047 64.488-16.434 87.769-45.568C161.605 81.2 174.7 41.701 174.738.5c-.028-41.208-13.119-80.72-36.401-109.862-23.281-29.143-54.851-45.536-87.78-45.583h-864.113z" fill="url(#paint0_linear_881_195)"/></g><defs><linearGradient id="paint0_linear_881_195" x1="-381.482" y1="-174" x2="-381.482" y2="175" gradientUnits="userSpaceOnUse"><stop stop-color="#09FEA6"/><stop offset="1" stop-color="#D21CFF"/></linearGradient><clipPath id="clip0_881_195"><path fill="#fff" d="M0 0h190v175H0z"/></clipPath></defs></svg>