<svg width="190" height="175" fill="none" xmlns="http://www.w3.org/2000/svg"><g clip-path="url(#clip0_881_195)"><path style="mix-blend-mode:lighten" opacity=".8" d="M1003.56 349H139.444c-36.969-.058-72.41-18.462-98.55-51.174C14.754 265.113.047 220.762 0 174.5c.037-46.266 14.74-90.624 40.883-123.339S102.472.047 139.444 0h864.116c36.97.047 72.41 18.447 98.56 51.161 26.14 32.715 40.84 77.073 40.88 123.339-.04 46.266-14.74 90.623-40.88 123.338-26.15 32.715-61.59 51.115-98.56 51.162zM139.444 19.055c-32.927.058-64.491 16.456-87.77 45.596C28.393 93.791 15.3 133.295 15.261 174.5c.037 41.201 13.133 80.7 36.413 109.833 23.28 29.134 54.845 45.521 87.769 45.568h864.116c32.92-.047 64.48-16.434 87.76-45.568 23.29-29.133 36.38-68.632 36.42-109.833-.03-41.208-13.12-80.72-36.4-109.862-23.28-29.143-54.85-45.536-87.78-45.583H139.444z" fill="url(#paint0_linear_881_195)"/></g><defs><linearGradient id="paint0_linear_881_195" x1="571.518" y1="0" x2="571.518" y2="349" gradientUnits="userSpaceOnUse"><stop stop-color="#09FEA6"/><stop offset="1" stop-color="#D21CFF"/></linearGradient><clipPath id="clip0_881_195"><path fill="#fff" d="M0 0h190v175H0z"/></clipPath></defs></svg>