<svg width="190" height="175" viewBox="0 0 190 175" fill="none" xmlns="http://www.w3.org/2000/svg">
<g clip-path="url(#clip0_881_195)">
<path style="mix-blend-mode:lighten" opacity="0.8" d="M50.5563 175H-813.556C-850.525 174.942 -885.966 156.538 -912.106 123.826C-938.247 91.1131 -952.953 46.7623 -953 0.5C-952.963 -45.7659 -938.259 -90.1235 -912.117 -122.839C-885.974 -155.553 -850.528 -173.953 -813.556 -174H50.5563C87.5276 -173.953 122.974 -155.553 149.117 -122.839C175.259 -90.1235 189.963 -45.7659 190 0.5C189.963 46.7659 175.259 91.1234 149.117 123.838C122.974 156.553 87.5276 174.953 50.5563 175ZM-813.556 -154.945C-846.483 -154.887 -878.047 -138.489 -901.327 -109.349C-924.606 -80.2088 -937.7 -40.7046 -937.738 0.5C-937.7 41.7005 -924.605 81.2002 -901.325 110.333C-878.044 139.467 -846.48 155.854 -813.556 155.901H50.5563C83.4798 155.854 115.044 139.467 138.325 110.333C161.605 81.2002 174.7 41.7005 174.738 0.5C174.71 -40.7082 161.619 -80.2192 138.337 -109.362C115.056 -138.505 83.486 -154.898 50.5563 -154.945H-813.556Z" fill="url(#paint0_linear_881_195)"/>
</g>
<defs>
<linearGradient id="paint0_linear_881_195" x1="-381.482" y1="-174" x2="-381.482" y2="175" gradientUnits="userSpaceOnUse">
<stop stop-color="#09FEA6"/>
<stop offset="1" stop-color="#D21CFF"/>
</linearGradient>
<clipPath id="clip0_881_195">
<rect width="190" height="175" fill="white"/>
</clipPath>
</defs>
</svg>
