<svg width="29" height="28" fill="none" xmlns="http://www.w3.org/2000/svg"><g clip-path="url(#clip0_216_1559)"><path d="M29 11.042c-.2.218-.38.466-.598.667-2.133 1.957-4.27 3.91-6.413 5.856a.492.492 0 0 0-.176.538c.629 2.963 1.242 5.93 1.869 8.893.073.349.034.654-.254.871-.288.218-.616.146-.923-.035-2.58-1.515-5.163-3.03-7.748-4.543a.454.454 0 0 0-.533 0 2267 2267 0 0 1-7.703 4.508c-.133.088-.28.152-.433.19-.52.09-.908-.364-.794-.919.356-1.713.717-3.427 1.084-5.142.269-1.289.538-2.576.815-3.862a.437.437 0 0 0-.147-.468 2000.065 2000.065 0 0 1-6.582-6.01l-.217-.193a.728.728 0 0 1 .433-1.265l4.138-.449c1.66-.176 3.32-.354 4.984-.522.217-.02.258-.15.325-.3 1.212-2.763 2.434-5.524 3.635-8.295.247-.57.745-.653 1.038-.477.185.123.33.297.42.5.995 2.232 1.973 4.468 2.954 6.704.241.544.473 1.089.73 1.633a.455.455 0 0 0 .304.218c2.204.243 4.408.474 6.613.707.769.083 1.538.18 2.308.246a.907.907 0 0 1 .866.597l.005.352z" fill="#42E8E0" fill-opacity=".56"/></g><defs><clipPath id="clip0_216_1559"><path fill="#fff" d="M0 0h29v28H0z"/></clipPath></defs></svg>