<svg width="70" height="70" fill="none" xmlns="http://www.w3.org/2000/svg"><mask id="a" style="mask-type:alpha" maskUnits="userSpaceOnUse" x="0" y="0" width="70" height="70"><path fill-rule="evenodd" clip-rule="evenodd" d="M15.913.035c-1.56.055-3.573.177-4.487.362-1.396.282-2.714.71-3.81 1.268a13.578 13.578 0 0 0-3.44 2.49c-1 .996-1.84 2.152-2.5 3.442-.556 1.09-.983 2.4-1.267 3.788-.188.924-.312 2.951-.369 4.522a62.947 62.947 0 0 0-.034 1.857L0 52.23c0 .382.012 1.213.034 1.856.056 1.56.178 3.573.363 4.487.282 1.396.709 2.714 1.268 3.81a13.582 13.582 0 0 0 2.489 3.44c.997.999 2.153 1.84 3.443 2.5 1.09.556 2.4.984 3.788 1.267.924.188 2.951.312 4.522.369.642.023 1.473.035 1.857.035L52.23 70c.382 0 1.213-.011 1.855-.034 1.562-.056 3.574-.178 4.488-.363 1.396-.282 2.714-.71 3.81-1.268a13.582 13.582 0 0 0 3.44-2.489 13.58 13.58 0 0 0 2.499-3.443c.557-1.09.985-2.4 1.267-3.788.189-.924.313-2.951.37-4.522.023-.642.034-1.473.034-1.857L70 17.77c0-.381-.012-1.213-.034-1.856-.056-1.56-.178-3.573-.363-4.487-.282-1.396-.71-2.714-1.268-3.81a13.584 13.584 0 0 0-2.489-3.44 13.583 13.583 0 0 0-3.443-2.499c-1.09-.557-2.4-.984-3.788-1.267C57.69.22 55.664.097 54.093.04a62.185 62.185 0 0 0-1.857-.034L17.77 0c-.382 0-1.213.012-1.856.035" fill="#fff"/></mask><g mask="url(#a)"><path d="M15.913.035c-1.56.055-3.573.177-4.487.362-1.396.282-2.714.71-3.81 1.268a13.578 13.578 0 0 0-3.44 2.49c-1 .996-1.84 2.152-2.5 3.442-.556 1.09-.983 2.4-1.267 3.788-.188.924-.312 2.951-.369 4.522a62.947 62.947 0 0 0-.034 1.857L0 52.23c0 .382.012 1.213.034 1.856.056 1.56.178 3.573.363 4.487.282 1.396.709 2.714 1.268 3.81a13.582 13.582 0 0 0 2.489 3.44c.997.999 2.153 1.84 3.443 2.5 1.09.556 2.4.984 3.788 1.267.924.188 2.951.312 4.522.369.642.023 1.473.035 1.857.035L52.23 70c.382 0 1.213-.011 1.855-.034 1.562-.056 3.574-.178 4.488-.363 1.396-.282 2.714-.71 3.81-1.268a13.582 13.582 0 0 0 3.44-2.489 13.58 13.58 0 0 0 2.499-3.443c.557-1.09.985-2.4 1.267-3.788.189-.924.313-2.951.37-4.522.023-.642.034-1.473.034-1.857L70 17.77c0-.381-.012-1.213-.034-1.856-.056-1.56-.178-3.573-.363-4.487-.282-1.396-.71-2.714-1.268-3.81a13.584 13.584 0 0 0-2.489-3.44 13.583 13.583 0 0 0-3.443-2.499c-1.09-.557-2.4-.984-3.788-1.267C57.69.22 55.664.097 54.093.04a62.185 62.185 0 0 0-1.857-.034L17.77 0c-.382 0-1.213.012-1.856.035" fill="url(#paint0_linear_238_2542)"/><path fill-rule="evenodd" clip-rule="evenodd" d="M47.134 39.607c-.623-.312-3.688-1.82-4.26-2.027-.571-.208-.987-.313-1.403.312-.415.623-1.61 2.027-1.974 2.443-.364.416-.727.468-1.35.156-.624-.312-2.633-.97-5.014-3.093-1.854-1.653-3.105-3.694-3.469-4.318-.363-.624-.039-.961.274-1.272.28-.28.623-.728.935-1.092.312-.364.415-.624.623-1.04.208-.416.104-.78-.052-1.092-.155-.312-1.402-3.38-1.922-4.627-.506-1.216-1.02-1.051-1.403-1.07-.363-.018-.779-.022-1.195-.022-.415 0-1.09.156-1.662.78-.572.624-2.182 2.132-2.182 5.2 0 3.067 2.234 6.03 2.546 6.447.311.416 4.396 6.711 10.65 9.41a35.897 35.897 0 0 0 3.554 1.314c1.494.474 2.853.407 3.927.247 1.198-.18 3.69-1.508 4.209-2.964.52-1.456.52-2.704.363-2.964-.156-.26-.571-.416-1.195-.728M35.758 55.134h-.008c-3.721-.001-7.371-1-10.556-2.89l-.757-.449-7.85 2.059 2.096-7.651-.493-.784a20.68 20.68 0 0 1-3.171-11.034c.004-11.431 9.308-20.731 20.748-20.731a20.603 20.603 0 0 1 14.662 6.08 20.605 20.605 0 0 1 6.069 14.668c-.005 11.432-9.309 20.732-20.74 20.732M53.41 16.756c-4.711-4.715-10.976-7.312-17.65-7.315-13.754 0-24.947 11.19-24.953 24.942a24.894 24.894 0 0 0 3.33 12.47l-3.54 12.927 13.228-3.469a24.94 24.94 0 0 0 11.924 3.036h.01c13.752 0 24.947-11.19 24.953-24.944.002-6.665-2.59-12.932-7.302-17.647" fill="#fff"/></g><defs><linearGradient id="paint0_linear_238_2542" x1="0" y1="70" x2="0" y2="0" gradientUnits="userSpaceOnUse"><stop stop-color="#25CF43"/><stop offset="1" stop-color="#61FD7D"/></linearGradient></defs></svg>