<svg width="23" height="26" fill="none" xmlns="http://www.w3.org/2000/svg"><g clip-path="url(#clip0_216_2109)" fill="#fff"><path d="M21.433 26H1.563a4.594 4.594 0 0 1-.615-.256c-.652-.389-.949-.982-.948-1.75V3.74v-.204c.047-.719.388-1.263 1.015-1.573.304-.133.63-.207.96-.218.485-.036.975-.01 1.476-.01.008-.083.011-.167.01-.251C3.403.767 3.67.254 4.352 0h.65c.837.271.99.931.898 1.727h11.18V1.39c-.001-.185.015-.37.049-.552.115-.452.45-.687.86-.833h.648c.815.293.975.952.878 1.736h1.55c.498-.012.98.175 1.342.522.438.422.599.95.593 1.557-.006 6.703-.006 13.404 0 20.103 0 .093 0 .186-.006.278a1.902 1.902 0 0 1-.381 1.052 1.852 1.852 0 0 1-.901.645c-.093.035-.185.07-.279.102zM.765 7.944c-.007.102-.014.157-.014.216v14.344c0 .748.47 1.21 1.211 1.21h14.379c.613 0 .95-.348.95-.98v-2.31c0-1.068.662-1.744 1.714-1.75h2.222c.704 0 1.02-.319 1.02-1.037V7.944H6.571a2.103 2.103 0 0 1-.349-.016.334.334 0 0 1-.218-.117.345.345 0 0 1-.081-.237.343.343 0 0 1 .068-.24.333.333 0 0 1 .212-.128c.114-.02.23-.027.347-.021h15.682c.005-.102.013-.181.013-.255V3.756c0-.796-.458-1.255-1.247-1.256h-2.92c-.08 0-.158.008-.252.012v.969c0 .393.05.453.435.543a.378.378 0 0 1 .242.144.39.39 0 0 1 .079.274.384.384 0 0 1-.135.248.372.372 0 0 1-.265.086 1.114 1.114 0 0 1-.847-.418 1.148 1.148 0 0 1-.251-.702c-.01-.378 0-.755 0-1.137H4.218v.957c0 .376.07.46.44.545a.372.372 0 0 1 .243.143c.06.078.087.176.076.274a.374.374 0 0 1-.13.254.362.362 0 0 1-.269.082.972.972 0 0 1-.223-.025c-.535-.129-.88-.579-.888-1.167-.006-.352 0-.71 0-1.085H2.023C1.2 2.497.752 2.95.75 3.778v3.123c0 .09.007.179.012.282H4.61c.092-.004.183.002.274.019a.332.332 0 0 1 .21.127.343.343 0 0 1 .07.238.342.342 0 0 1-.075.238.331.331 0 0 1-.214.12c-.1.016-.2.022-.3.017H.765v.002zm21.484 12.05c-.118.113-.185.175-.248.24-1.165 1.184-2.336 2.364-3.494 3.555-.208.224-.46.401-.74.52-.28.118-.58.175-.883.168-4.817-.009-9.635-.009-14.453 0-.577 0-1.151.019-1.686-.385.01.109.028.218.052.325.152.523.579.82 1.179.82h19.02c.806 0 1.251-.453 1.252-1.273v-3.681l.001-.29zm-.6-.557h-2.681c-.588 0-.925.352-.926.95v2.718l3.608-3.668zM4.216 1.718h.96c-.055-.312.14-.678-.19-.875a.666.666 0 0 0-.58 0c-.325.203-.146.565-.19.875zm14.57.01c-.05-.328.14-.703-.214-.895a.66.66 0 0 0-.579.026c-.305.212-.118.565-.163.869h.956z"/><path d="M13.996 16.998h-1.043c-.54 0-.914-.24-.932-.638a17.544 17.544 0 0 1 0-1.704c.017-.386.375-.638.898-.645a55.426 55.426 0 0 1 2.177 0c.543.01.886.285.895.697.012.53.012 1.06 0 1.59-.008.436-.368.697-.95.701-.355.002-.702 0-1.045 0zm-1.046-2.293v1.59h2.097v-1.59H12.95zM3.979 16.999H2.905c-.51-.008-.88-.263-.893-.645a28.42 28.42 0 0 1 0-1.68.505.505 0 0 1 .061-.256.663.663 0 0 1 .19-.216.92.92 0 0 1 .287-.143c.108-.033.223-.049.34-.047a50.797 50.797 0 0 1 2.208 0c.119-.001.236.016.346.05.11.034.21.085.293.149.083.063.148.14.19.222a.516.516 0 0 1 .06.262c.016.544.018 1.09 0 1.634-.015.407-.391.664-.932.67-.366.003-.724 0-1.076 0zm-1.033-2.29v1.588h2.103v-1.588H2.946zM9.006 16.998H7.9c-.497-.008-.87-.255-.884-.627a23.128 23.128 0 0 1 0-1.727c0-.083.021-.166.064-.243a.652.652 0 0 1 .185-.206.9.9 0 0 1 .276-.136c.103-.03.214-.046.325-.045.757-.018 1.514-.02 2.271 0 .114.001.226.02.33.053a.907.907 0 0 1 .279.145c.079.061.14.134.182.214.041.08.06.164.058.25.018.553.02 1.105 0 1.658-.015.408-.39.66-.936.665-.349.002-.697 0-1.044 0zm-1.071-.702h2.117v-1.582H7.935v1.582zM2.005 10.999c0-.369-.009-.738 0-1.106.013-.503.256-.86.634-.874a19.207 19.207 0 0 1 1.704 0c.085-.001.17.02.25.063a.66.66 0 0 1 .21.188c.06.081.108.178.14.283.031.106.047.22.045.334.016.747.016 1.495 0 2.241-.012.514-.283.86-.672.86a28.58 28.58 0 0 1-1.635 0c-.412-.012-.665-.368-.677-.918-.009-.359 0-.717 0-1.075v.004zm.7 1.05h1.583V9.944H2.706v2.105zM8.995 12.996c-.348 0-.696.009-1.044 0-.583-.017-.931-.357-.941-.944a58.055 58.055 0 0 1 0-2.119c.01-.556.347-.904.902-.918.725-.02 1.451-.02 2.178 0 .55.014.889.368.9.924.013.705.013 1.413 0 2.118-.011.58-.368.922-.953.938-.346.009-.693.001-1.042.001zm-1.05-.948h2.104v-2.1H7.946v2.1zM20.998 11.003v1.043c-.008.58-.267.935-.705.945-.53.011-1.06.013-1.59 0-.412-.01-.679-.35-.69-.902a48.997 48.997 0 0 1 0-2.179c.012-.55.275-.885.695-.898.53-.016 1.06-.016 1.589 0 .45.013.696.368.702.982.002.335 0 .671 0 1.009zm-.702 1.055V9.952h-1.583v2.106h1.583zM20.997 16v1.044c-.008.572-.26.934-.683.945-.544.015-1.089.015-1.634 0-.382-.011-.645-.333-.664-.839a40.739 40.739 0 0 1 0-2.3c0-.112.017-.223.05-.326a.882.882 0 0 1 .14-.273.635.635 0 0 1 .21-.18.485.485 0 0 1 .245-.054c.56-.023 1.12-.023 1.682 0 .401.016.645.376.656.913.003.352-.002.71-.002 1.07zm-2.289-1.056v2.105h1.582v-2.105h-1.582zM15.998 11.012v1.013c-.012.604-.352.957-.95.967-.697.01-1.393.01-2.09 0-.582-.01-.933-.355-.947-.943a47.419 47.419 0 0 1 0-2.086c.013-.604.36-.944.969-.953a54.72 54.72 0 0 1 2.056 0c.615.01.953.368.962.989.004.338 0 .676 0 1.013zm-.95 1.044V9.952H12.95v2.104h2.1zM3.983 21.998h-1.07a1.135 1.135 0 0 1-.346-.044.943.943 0 0 1-.294-.143.681.681 0 0 1-.196-.218.516.516 0 0 1-.066-.258 31.138 31.138 0 0 1 0-1.658.509.509 0 0 1 .06-.26.669.669 0 0 1 .192-.22.93.93 0 0 1 .293-.145c.11-.033.227-.049.346-.046.724-.008 1.45-.008 2.173 0a1.14 1.14 0 0 1 .347.043.95.95 0 0 1 .296.142.688.688 0 0 1 .198.218.52.52 0 0 1 .068.26c.021.552.021 1.105 0 1.657-.016.412-.402.67-.96.674l-1.04-.002zm-1.042-.708h2.112v-1.578H2.941v1.578zM8.991 21.999H7.95c-.546-.006-.922-.258-.935-.663a25.494 25.494 0 0 1 0-1.678c.015-.395.384-.646.917-.653.714-.007 1.429-.007 2.143 0 .118-.004.236.01.347.042.11.031.212.08.297.141a.686.686 0 0 1 .199.218c.046.082.069.17.068.26.02.559.02 1.12 0 1.678-.017.392-.4.645-.922.654-.36.004-.717 0-1.072 0zm1.056-.706V19.71H7.939v1.584h2.108zM15.06 21.312v-1.6h-2.134c0 .137.006.277 0 .41-.015.24-.184.375-.46.373-.277-.001-.438-.137-.458-.38v-.046c-.059-.73.18-1.115 1.375-1.065.542.023 1.085 0 1.628 0 .614 0 .982.265.982.724.01.514.01 1.029 0 1.543-.007.461-.368.725-.982.726-.696 0-1.392.006-2.089 0a1.073 1.073 0 0 1-.63-.183.612.612 0 0 1-.278-.462.264.264 0 0 1 .068-.22.447.447 0 0 1 .243-.135.529.529 0 0 1 .552.165c.053.058.145.135.22.136.645.019 1.288.014 1.964.014z"/></g><defs><clipPath id="clip0_216_2109"><path fill="#fff" d="M0 0h23v26H0z"/></clipPath></defs></svg>