<svg width="24" height="28" fill="none" xmlns="http://www.w3.org/2000/svg"><g clip-path="url(#clip0_262_2841)" fill="#fff"><path d="M11.94 28c-.852-.433-1.72-.847-2.557-1.302-2.188-1.186-4.222-2.57-5.996-4.283-1.195-1.152-2.198-2.435-2.832-3.953A7.008 7.008 0 0 1 0 15.728C.002 11.74.002 7.753 0 3.766v-.227c.556.03 1.085.085 1.615.083 2.412-.006 4.763-.328 6.975-1.304 1.178-.519 2.248-1.19 3.164-2.072.068-.078.13-.16.184-.246 3.407 3.169 7.563 3.812 12.057 3.56v.263c0 3.942-.007 7.883.004 11.825.005 1.703-.587 3.213-1.548 4.615-1.123 1.635-2.596 2.947-4.203 4.135-1.887 1.394-3.93 2.549-6.082 3.53a.869.869 0 0 0-.11.072h-.115zM1.84 5.386v.356c0 3.286.016 6.573-.008 9.858-.01 1.313.433 2.475 1.152 3.555.917 1.382 2.125 2.515 3.45 3.54 1.657 1.278 3.451 2.352 5.35 3.274.168.082.292.065.449-.012 2.03-.995 3.948-2.154 5.694-3.563 1.054-.85 2.013-1.778 2.81-2.855.975-1.312 1.468-2.74 1.44-4.375-.053-3.149-.015-6.299-.015-9.448v-.332c-3.71-.082-7.168-.813-10.165-2.999-2.987 2.187-6.45 2.92-10.157 3z"/><path d="M7.024 14.723l3.975 2.687 6.436-9.023 1.518.984-7.484 10.5-5.505-3.723 1.06-1.425z"/></g><defs><clipPath id="clip0_262_2841"><path fill="#fff" d="M0 0h24v28H0z"/></clipPath></defs></svg>