<svg width="29" height="17" fill="none" xmlns="http://www.w3.org/2000/svg"><g clip-path="url(#clip0_216_2124)" fill="#fff"><path d="M29 8.154v.705c-.127.463-.316.888-.623 1.262-4.283 5.24-9.716 7.55-16.301 6.713-4.41-.56-8.053-2.719-11-6.151C.613 10.143.148 9.6 0 8.859v-.705c.14-.688.55-1.21.987-1.712C5.53 1.218 11.169-.865 17.845.328c4.102.733 7.484 2.894 10.207 6.158.416.494.804 1.006.948 1.668zm-7.465.352a7.48 7.48 0 0 0-1.184-4.05 7.096 7.096 0 0 0-3.155-2.687 6.807 6.807 0 0 0-4.065-.417 6.962 6.962 0 0 0-3.603 1.993 7.375 7.375 0 0 0-1.927 3.732A7.535 7.535 0 0 0 8 11.288a7.24 7.24 0 0 0 2.589 3.274 6.862 6.862 0 0 0 3.908 1.23 6.815 6.815 0 0 0 2.693-.55 7.018 7.018 0 0 0 2.284-1.58A7.306 7.306 0 0 0 21 11.297a7.513 7.513 0 0 0 .535-2.79zm-12.66-6.28l-.129.047c-2.888 1.115-5.29 2.931-7.225 5.415-.464.595-.462 1.038 0 1.632a16.695 16.695 0 0 0 5.616 4.695c.567.294 1.16.536 1.74.8-3.454-3.41-3.482-9.146-.003-12.589zm11.214 12.53c.03.014.04.023.047.021.08-.027.161-.055.24-.086 2.85-1.13 5.221-2.94 7.129-5.404.425-.55.423-1.012 0-1.564a16.407 16.407 0 0 0-4.882-4.307c-.802-.46-1.65-.835-2.477-1.248l-.057.085c1.695 1.713 2.617 3.778 2.62 6.238.003 2.46-.91 4.535-2.618 6.265h-.002z"/><path d="M11.492 8.488a3.196 3.196 0 0 1 .517-1.73c.333-.51.805-.907 1.357-1.14a2.91 2.91 0 0 1 1.739-.166 2.978 2.978 0 0 1 1.535.864c.418.439.701.996.814 1.602a3.222 3.222 0 0 1-.184 1.8 3.094 3.094 0 0 1-1.117 1.391 2.932 2.932 0 0 1-3.795-.413 3.121 3.121 0 0 1-.645-1.014 3.21 3.21 0 0 1-.22-1.194zM14.49 6.61c-.36.002-.713.115-1.012.325a1.88 1.88 0 0 0-.668.852c-.136.346-.17.726-.098 1.093.072.366.247.702.503.966.256.263.582.442.936.514.354.071.72.032 1.054-.112.333-.144.617-.387.817-.699.2-.311.306-.677.305-1.05 0-.25-.046-.497-.138-.728a1.885 1.885 0 0 0-.399-.614 1.808 1.808 0 0 0-.597-.408 1.757 1.757 0 0 0-.703-.136V6.61z"/></g><defs><clipPath id="clip0_216_2124"><path fill="#fff" d="M0 0h29v17H0z"/></clipPath></defs></svg>