<svg width="213" height="42" fill="none" xmlns="http://www.w3.org/2000/svg"><g clip-path="url(#clip0_1_6)"><path d="M42.2 10.911h10.893c2.304-.044 4.592.38 6.716 1.245a10.214 10.214 0 0 1 4.539 3.524 9.667 9.667 0 0 1 1.622 5.35 9.667 9.667 0 0 1-1.622 5.35 10.322 10.322 0 0 1-4.539 3.523 16.948 16.948 0 0 1-6.716 1.245H42.2V10.91zm10.639 15.68a7.25 7.25 0 0 0 4.756-1.48 5.65 5.65 0 0 0 1.324-1.86 5.506 5.506 0 0 0 0-4.43 5.65 5.65 0 0 0-1.324-1.861 7.249 7.249 0 0 0-4.756-1.48h-4.115v11.11h4.115zM87.838 26.732v4.427H69.334V10.911h18.069v4.381H75.784v3.406h10.239v4.287H75.784v3.7l12.054.047zM106.887 27.225h-9.742l-1.803 3.934h-6.656l10.177-20.248h6.415L115.48 31.16h-6.717l-1.876-3.934zm-1.9-4.228l-2.965-6.472-2.94 6.472h5.905zM117.319 10.911h6.524v15.703h10.988v4.545h-17.512V10.911zM159.314 10.911V31.16h-5.361l-10.166-10.793v10.793h-6.39V10.911h5.361l10.178 10.782V10.911h6.378zM168.972 30.208a11.264 11.264 0 0 1-4.575-3.77 9.684 9.684 0 0 1-1.659-5.409c0-1.92.577-3.8 1.659-5.408a11.239 11.239 0 0 1 4.575-3.759 16.472 16.472 0 0 1 6.565-1.361c2.263 0 4.501.464 6.566 1.361a11.09 11.09 0 0 1 4.575 3.759 9.622 9.622 0 0 1 1.67 5.408c0 1.923-.58 3.803-1.67 5.409a11.109 11.109 0 0 1-4.575 3.77 16.602 16.602 0 0 1-6.566 1.35 16.6 16.6 0 0 1-6.565-1.35zm9.682-4.11a5.542 5.542 0 0 0 2.239-2.044 5.58 5.58 0 0 0 .823-3.019 5.658 5.658 0 0 0-.823-3.03 5.593 5.593 0 0 0-2.239-2.032 7.197 7.197 0 0 0-3.159-.729c-1.097 0-2.179.25-3.159.73a5.593 5.593 0 0 0-2.239 2.031 5.658 5.658 0 0 0-.823 3.03 5.58 5.58 0 0 0 .823 3.019 5.542 5.542 0 0 0 2.239 2.043 7.31 7.31 0 0 0 3.159.717 7.306 7.306 0 0 0 3.159-.717zM205.497 31.16l-4.757-6.284-4.707 6.283h-7.395l8.387-10.241-8.024-10.007h7.334l4.611 5.873 4.538-5.873h7.044l-8.024 9.772 8.557 10.476h-7.564z" fill="#fff"/><path d="M.145 25.146V6.284L8.387 0l27.387 14.575v10.853L.145 42 0 30.713l24.434-10.852-14.425-8.292v8.855L.145 25.146z" fill="#019CFE"/></g><defs><clipPath id="clip0_1_6"><path fill="#fff" d="M0 0h213v42H0z"/></clipPath></defs></svg>