<svg xmlns="http://www.w3.org/2000/svg"><defs><clipPath id="a"><path fill="#fff" d="M0 0h21v21H0z"/></clipPath><clipPath id="b"><path fill="#fff" d="M0 0h18v19H0z"/></clipPath><clipPath id="c"><path fill="#fff" d="M0 0h21v21H0z"/></clipPath><clipPath id="d"><path fill="#fff" d="M0 0h20v24H0z"/></clipPath><clipPath id="e"><path fill="#fff" d="M0 0h21v23H0z"/></clipPath><clipPath id="f"><path fill="#fff" d="M0 0h27v25H0z"/></clipPath><clipPath id="g"><path fill="#fff" d="M0 0h21v21H0z"/></clipPath><clipPath id="h"><path fill="#fff" d="M0 0h40v40H0z"/></clipPath><clipPath id="i"><path fill="#fff" d="M0 0h42v42H0z"/></clipPath><clipPath id="j"><path fill="#fff" d="M0 0h40v40H0z"/></clipPath><clipPath id="k"><path fill="#fff" d="M0 0h187v36H0z"/></clipPath><clipPath id="l"><path fill="#fff" d="M0 0h23v19H0z"/></clipPath><clipPath id="m"><path fill="#fff" d="M0 0h30v21H0z"/></clipPath><clipPath id="n"><path fill="#fff" d="M0 0h21v10H0z"/></clipPath></defs></svg>