<svg id="Layer_1" data-name="Layer 1" xmlns="http://www.w3.org/2000/svg" viewBox="0 0 32.01 29.47"><defs><style>.cls-1{fill:red;}</style></defs><path class="cls-1" d="M9.93,23.88a.74.74,0,0,1-.75-.75h0a.75.75,0,0,1,.75-.76h18.6a.76.76,0,0,1,.76.76h0a.75.75,0,0,1-.76.75H9.93Z"/><path class="cls-1" d="M9.81,27.35,7.93,22.63a1,1,0,0,1,0-.67h0l1.51-4.27a.93.93,0,0,1,1.2-.57h0a.94.94,0,0,1,.58,1.2h0L9.81,22.26l1.75,4.38A1,1,0,0,1,11,27.87h0a1,1,0,0,1-.35.06h0a.94.94,0,0,1-.87-.58Z"/><path class="cls-1" d="M11.12,25l.63,1.58a1.17,1.17,0,0,1-.66,1.53,1,1,0,0,1-.43.08,1.15,1.15,0,0,1-1.09-.74L8.9,25.78A2.26,2.26,0,1,0,11.12,25Z"/><path class="cls-1" d="M27.5,25l.62,1.58a1.17,1.17,0,0,1-.65,1.53,1.11,1.11,0,0,1-.44.08,1.16,1.16,0,0,1-1.09-.74l-.67-1.67A2.27,2.27,0,0,0,27,29.47,2.26,2.26,0,0,0,27.5,25Z"/><path class="cls-1" d="M26.18,27.35a1,1,0,0,0,.88.58,1,1,0,0,0,.34-.06,1,1,0,0,0,.53-1.23l-1.28-3.22h-2Z"/><path class="cls-1" d="M8.51,18.68l-3-16.42H1.13A1.12,1.12,0,0,1,0,1.13H0A1.13,1.13,0,0,1,1.13,0H6.41A1.14,1.14,0,0,1,7.53.93h0l3.2,17.34a1.13,1.13,0,0,1-.91,1.32h0l-.21,0h0a1.11,1.11,0,0,1-1.1-.93Z"/><path class="cls-1" d="M31.47,6.46H6.79c-.3,0-.38.21-.38.52L8.79,19.71a.54.54,0,0,0,.54.54H28.57a.54.54,0,0,0,.54-.54L32,7A.55.55,0,0,0,31.47,6.46ZM26.21,17.53a.38.38,0,0,1-.38.38H12.2a.38.38,0,0,1-.38-.38L10.23,9.62a.38.38,0,0,1,.37-.38H27.77a.38.38,0,0,1,.37.38Z"/></svg>