<?xml version="1.0" encoding="utf-8"?>
<!-- Generator: Adobe Illustrator 24.1.2, SVG Export Plug-In . SVG Version: 6.00 Build 0)  -->
<svg version="1.1" id="Layer_1" xmlns="http://www.w3.org/2000/svg" xmlns:xlink="http://www.w3.org/1999/xlink" x="0px" y="0px"
	 viewBox="0 0 32 29.5" style="enable-background:new 0 0 32 29.5;" xml:space="preserve">
<style type="text/css">
	.st0{fill:#FF0000;}
</style>
<path class="st0" d="M3.5,23.9C3.5,23.9,3.5,23.9,3.5,23.9c-0.4,0-0.8-0.3-0.8-0.8l0,0l0,0c0-0.4,0.3-0.8,0.8-0.8h18.6c0,0,0,0,0,0
	c0.4,0,0.7,0.3,0.7,0.8l0,0c0,0,0,0,0,0c0,0.4-0.3,0.7-0.8,0.7H3.5z"/>
<path class="st0" d="M22.2,27.4c-0.1,0.4-0.5,0.6-0.9,0.6l0,0c-0.1,0-0.2,0-0.4-0.1l0,0c-0.5-0.2-0.7-0.7-0.6-1.2l1.8-4.4l-1.4-3.9
	l0,0c0,0,0,0,0,0c-0.2-0.5,0.1-1,0.6-1.2l0,0c0,0,0,0,0,0c0.5-0.2,1,0.1,1.2,0.6l1.5,4.3l0,0c0.1,0.2,0.1,0.5,0,0.7L22.2,27.4
	L22.2,27.4z"/>
<path class="st0" d="M19.9,25.5c-1,0.8-1.1,2.2-0.3,3.2s2.2,1.1,3.2,0.3c1-0.8,1.1-2.2,0.3-3.2l-0.7,1.7c-0.2,0.5-0.6,0.7-1.1,0.7
	c-0.1,0-0.3,0-0.4-0.1c0,0,0,0,0,0c-0.6-0.2-0.9-0.9-0.6-1.5l0.6-1.6C20.5,25.1,20.2,25.2,19.9,25.5z"/>
<path class="st0" d="M2.7,27.2c0,1.2,1,2.2,2.3,2.2c0.5,0,1-0.2,1.4-0.5c1-0.8,1.1-2.2,0.4-3.2l-0.7,1.7c-0.2,0.4-0.6,0.7-1.1,0.7
	c-0.2,0-0.3,0-0.4-0.1c0,0,0,0,0,0c-0.6-0.2-0.9-0.9-0.6-1.5L4.5,25C3.4,25.2,2.7,26.2,2.7,27.2z"/>
<path class="st0" d="M7.3,23.4h-2l-1.3,3.2c-0.2,0.5,0.1,1,0.5,1.2c0.1,0,0.2,0.1,0.3,0.1c0.4,0,0.7-0.2,0.9-0.6L7.3,23.4z"/>
<path class="st0" d="M23.5,18.7c-0.1,0.5-0.6,0.9-1.1,0.9l0,0h-0.2l0,0c0,0,0,0,0,0c-0.6-0.1-1-0.7-0.9-1.3l3.2-17.3l0,0
	C24.6,0.4,25,0,25.6,0l5.3,0c0,0,0,0,0,0C31.5,0,32,0.5,32,1.1l0,0c0,0,0,0,0,0c0,0.6-0.5,1.1-1.1,1.1h-4.4L23.5,18.7L23.5,18.7z"/>
<path class="st0" d="M0,7l2.9,12.7v0c0,0.3,0.2,0.5,0.5,0.5h19.2h0c0.3,0,0.5-0.2,0.5-0.5L25.6,7c0-0.3-0.1-0.5-0.4-0.5H0.5
	C0.2,6.5,0,6.7,0,7z M3.9,9.6c0-0.2,0.2-0.4,0.4-0.4h17.2c0.2,0,0.4,0.2,0.4,0.4l-1.6,7.9c0,0.2-0.2,0.4-0.4,0.4H6.2
	c-0.2,0-0.4-0.2-0.4-0.4L3.9,9.6z"/>
</svg>
