<svg version="1.1" id="Layer_1" xmlns="http://www.w3.org/2000/svg" x="0" y="0" viewBox="0 0 32 29.5" xml:space="preserve"><style>.st0{fill:red}</style><path class="st0" d="M3.5 23.9c-.4 0-.8-.3-.8-.8 0-.4.3-.8.8-.8h18.6c.4 0 .7.3.7.8 0 .4-.3.7-.8.7H3.5z"/><path class="st0" d="M22.2 27.4c-.1.4-.5.6-.9.6-.1 0-.2 0-.4-.1-.5-.2-.7-.7-.6-1.2l1.8-4.4-1.4-3.9c-.2-.5.1-1 .6-1.2.5-.2 1 .1 1.2.6l1.5 4.3c.1.2.1.5 0 .7l-1.8 4.6z"/><path class="st0" d="M19.9 25.5c-1 .8-1.1 2.2-.3 3.2s2.2 1.1 3.2.3 1.1-2.2.3-3.2l-.7 1.7c-.2.5-.6.7-1.1.7-.1 0-.3 0-.4-.1-.6-.2-.9-.9-.6-1.5l.6-1.6c-.4.1-.7.2-1 .5zM2.7 27.2c0 1.2 1 2.2 2.3 2.2.5 0 1-.2 1.4-.5 1-.8 1.1-2.2.4-3.2l-.7 1.7c-.2.4-.6.7-1.1.7-.2 0-.3 0-.4-.1-.6-.2-.9-.9-.6-1.5l.5-1.5c-1.1.2-1.8 1.2-1.8 2.2z"/><path class="st0" d="M7.3 23.4h-2L4 26.6c-.2.5.1 1 .5 1.2.1 0 .2.1.3.1.4 0 .7-.2.9-.6l1.6-3.9zM23.5 18.7c-.1.5-.6.9-1.1.9h-.2c-.6-.1-1-.7-.9-1.3L24.5 1c.1-.6.5-1 1.1-1h5.3c.6 0 1.1.5 1.1 1.1 0 .6-.5 1.1-1.1 1.1h-4.4l-3 16.5z"/><path class="st0" d="M0 7l2.9 12.7c0 .3.2.5.5.5h19.2c.3 0 .5-.2.5-.5L25.6 7c0-.3-.1-.5-.4-.5H.5c-.3 0-.5.2-.5.5zm3.9 2.6c0-.2.2-.4.4-.4h17.2c.2 0 .4.2.4.4l-1.6 7.9c0 .2-.2.4-.4.4H6.2c-.2 0-.4-.2-.4-.4L3.9 9.6z"/></svg>