<svg id="Layer_1" data-name="Layer 1" xmlns="http://www.w3.org/2000/svg" viewBox="0 0 33.54 35.69"><defs><style>.cls-1{fill:red;}</style></defs><path class="cls-1" d="M15.54,28.41l11-10.56-11-10.57v4.57H1.5A1.5,1.5,0,0,0,0,13.35v9a1.5,1.5,0,0,0,1.5,1.5h14Z"/><path class="cls-1" d="M29.09,0H11A4.46,4.46,0,0,0,6.54,4.46V8.92H9.29V4.46A1.71,1.71,0,0,1,11,2.75H29.09A1.71,1.71,0,0,1,30.8,4.46V31.24A1.72,1.72,0,0,1,29.09,33H11a1.72,1.72,0,0,1-1.71-1.71V26.75H6.54v4.49A4.46,4.46,0,0,0,11,35.69H29.09a4.45,4.45,0,0,0,4.45-4.45V4.46A4.46,4.46,0,0,0,29.09,0Z"/></svg>