<svg id="objects" xmlns="http://www.w3.org/2000/svg" viewBox="0 0 115.58 96.75"><defs><style>.cls-1{fill:#e30613;}</style></defs><path class="cls-1" d="M57.92,96.75Q51,89.9,43.73,83.52a134.59,134.59,0,0,0-15.08-11.6C26,70.16,23.49,69.11,20.28,67a52.62,52.62,0,0,1-8.16-6.6A40.76,40.76,0,0,1,1,41.89,30.57,30.57,0,0,1,.25,30.31,30.23,30.23,0,0,1,3.94,19.23a42.37,42.37,0,0,1,6.8-8.93l1.92-1.82c.67-.61,1.55-1.3,2.33-1.93a38.11,38.11,0,0,1,5-3.18A29.34,29.34,0,0,1,31.74.15,32.73,32.73,0,0,1,43.57,1.84,43.67,43.67,0,0,1,53.76,6.53c3.16,2.08,5.83,3.58,8.75,6.86H52.94c2.88-3.28,5.53-4.86,8.71-6.92A43.74,43.74,0,0,1,71.86,1.65,33.09,33.09,0,0,1,83.72,0a29.62,29.62,0,0,1,11.8,3.19,37.27,37.27,0,0,1,9.39,7.12l1.64,1.79,1.88,2.28a43.9,43.9,0,0,1,3.16,4.78,31.65,31.65,0,0,1,3.75,11.1,30.75,30.75,0,0,1-.79,11.62,41.41,41.41,0,0,1-11.13,18.57,52.71,52.71,0,0,1-8.18,6.59c-.72.49-1.49.93-2.24,1.38l-2.15,1.19-2.11,1.2L86.84,72a88.75,88.75,0,0,0-7.67,5.43c-2.53,1.93-4.93,4.05-7.4,6.11-4.85,4.22-9.59,8.63-14.24,13.18A164.25,164.25,0,0,1,69.18,81,117.15,117.15,0,0,1,83.09,66.81l2-1.65,2-1.42,2-1.38c.59-.46,1.19-.89,1.76-1.38a44,44,0,0,0,6.27-6.31c3.7-4.57,6.58-9.75,7.48-15A20.7,20.7,0,0,0,101.66,25a30.2,30.2,0,0,0-2.35-3.2L98,20.36l-1.72-1.71A25.83,25.83,0,0,0,90,14.44a18.51,18.51,0,0,0-6.85-1.66A20.39,20.39,0,0,0,75.94,14a31.27,31.27,0,0,0-7.14,3.64c-1.15.76-2.27,1.61-3.35,2.49s-2.24,1.9-2.94,2.6l-4.87,4.94-4.7-4.94a39.58,39.58,0,0,0-6.24-5.16,31,31,0,0,0-7.17-3.63,18.67,18.67,0,0,0-14.16.4,26,26,0,0,0-3.27,1.87c-.49.38-.91.63-1.48,1.08L19,18.71a30.75,30.75,0,0,0-5.23,6.22A22.72,22.72,0,0,0,10.84,32a20.12,20.12,0,0,0-.07,7.7c.92,5.28,3.81,10.47,7.5,15.07a45.19,45.19,0,0,0,6.3,6.3c2,1.76,5.3,3.59,7.76,5.85a115.3,115.3,0,0,1,13.9,14.16A165.71,165.71,0,0,1,57.92,96.75Z"/></svg>