<?xml version="1.0" encoding="utf-8"?>
<!-- Generator: Adobe Illustrator 24.1.2, SVG Export Plug-In . SVG Version: 6.00 Build 0)  -->
<svg version="1.1" id="Слой_1" xmlns="http://www.w3.org/2000/svg" xmlns:xlink="http://www.w3.org/1999/xlink" x="0px" y="0px"
	 viewBox="0 0 29.2 30.1" style="enable-background:new 0 0 29.2 30.1;" xml:space="preserve">
<style type="text/css">
	.st0{fill:#ED3F5E;}
</style>
<path class="st0" d="M14.6,7.3c-4.1,0-7.5,3.4-7.5,7.7c0,4.3,3.3,7.7,7.5,7.7c4.1,0,7.5-3.4,7.5-7.7C22.1,10.8,18.7,7.3,14.6,7.3z
	 M14.6,20.1c-2.7,0-4.9-2.3-4.9-5s2.2-5,4.9-5c2.7,0,4.9,2.3,4.9,5S17.3,20.1,14.6,20.1z M22.4,5.2c-1,0-1.7,0.8-1.7,1.8
	s0.8,1.8,1.7,1.8S24.1,8,24.1,7c0-0.2,0-0.5-0.1-0.7c-0.1-0.2-0.2-0.4-0.4-0.6c-0.2-0.2-0.4-0.3-0.6-0.4C22.8,5.3,22.6,5.2,22.4,5.2
	L22.4,5.2z M29.2,15c0-2.1,0-4.1-0.1-6.2c-0.1-2.4-0.6-4.5-2.4-6.3C25,0.8,23,0.2,20.6,0.1c-2-0.1-4-0.1-6-0.1c-2,0-4,0-6,0.1
	C6.2,0.2,4.2,0.8,2.5,2.5C0.7,4.3,0.2,6.4,0.1,8.8C0,10.9,0,13,0,15c0,2.1,0,4.1,0.1,6.2c0.1,2.4,0.6,4.5,2.4,6.3
	c1.7,1.8,3.8,2.3,6.1,2.4c2,0.1,4,0.1,6,0.1c2,0,4,0,6-0.1c2.3-0.1,4.4-0.7,6.1-2.4c1.7-1.8,2.2-3.9,2.4-6.3
	C29.2,19.2,29.2,17.1,29.2,15L29.2,15z M26,23.9c-0.3,0.7-0.6,1.2-1.1,1.7c-0.5,0.5-1,0.9-1.7,1.1c-1.9,0.8-6.5,0.6-8.6,0.6
	c-2.1,0-6.7,0.2-8.6-0.6c-0.7-0.3-1.2-0.6-1.7-1.1c-0.5-0.5-0.8-1-1.1-1.7c-0.8-2-0.6-6.7-0.6-8.9S2.4,8.1,3.2,6.2
	C3.5,5.5,3.8,5,4.3,4.4s1-0.9,1.7-1.1c1.9-0.8,6.5-0.6,8.6-0.6c2.1,0,6.7-0.2,8.6,0.6c0.7,0.3,1.2,0.6,1.7,1.1
	c0.5,0.5,0.8,1,1.1,1.7c0.8,2,0.6,6.7,0.6,8.9S26.7,21.9,26,23.9z"/>
</svg>
