<svg xmlns="http://www.w3.org/2000/svg" viewBox="0 0 29.2 30.1"><path d="M14.6 7.3c-4.1 0-7.5 3.4-7.5 7.7 0 4.3 3.3 7.7 7.5 7.7 4.1 0 7.5-3.4 7.5-7.7 0-4.2-3.4-7.7-7.5-7.7zm0 12.8c-2.7 0-4.9-2.3-4.9-5s2.2-5 4.9-5 4.9 2.3 4.9 5-2.2 5-4.9 5zm7.8-14.9c-1 0-1.7.8-1.7 1.8s.8 1.8 1.7 1.8S24.1 8 24.1 7c0-.2 0-.5-.1-.7-.1-.2-.2-.4-.4-.6-.2-.2-.4-.3-.6-.4-.2 0-.4-.1-.6-.1zm6.8 9.8c0-2.1 0-4.1-.1-6.2-.1-2.4-.6-4.5-2.4-6.3C25 .8 23 .2 20.6.1c-2-.1-4-.1-6-.1s-4 0-6 .1C6.2.2 4.2.8 2.5 2.5.7 4.3.2 6.4.1 8.8 0 10.9 0 13 0 15c0 2.1 0 4.1.1 6.2.1 2.4.6 4.5 2.4 6.3 1.7 1.8 3.8 2.3 6.1 2.4 2 .1 4 .1 6 .1s4 0 6-.1c2.3-.1 4.4-.7 6.1-2.4 1.7-1.8 2.2-3.9 2.4-6.3.1-2 .1-4.1.1-6.2zM26 23.9c-.3.7-.6 1.2-1.1 1.7-.5.5-1 .9-1.7 1.1-1.9.8-6.5.6-8.6.6-2.1 0-6.7.2-8.6-.6-.7-.3-1.2-.6-1.7-1.1-.5-.5-.8-1-1.1-1.7-.8-2-.6-6.7-.6-8.9s-.2-6.9.6-8.8c.3-.7.6-1.2 1.1-1.8s1-.9 1.7-1.1c1.9-.8 6.5-.6 8.6-.6 2.1 0 6.7-.2 8.6.6.7.3 1.2.6 1.7 1.1.5.5.8 1 1.1 1.7.8 2 .6 6.7.6 8.9s.1 6.9-.6 8.9z" fill="#ed3f5e"/></svg>