<?xml version="1.0" encoding="utf-8"?>
<!-- Generator: Adobe Illustrator 24.1.2, SVG Export Plug-In . SVG Version: 6.00 Build 0)  -->
<svg version="1.1" id="Слой_1" xmlns="http://www.w3.org/2000/svg" xmlns:xlink="http://www.w3.org/1999/xlink" x="0px" y="0px"
	 viewBox="0 0 2500 2500" style="enable-background:new 0 0 2500 2500;" xml:space="preserve">
<style type="text/css">
	.st0{fill:#FFFFFF;}
	.st1{fill:none;}
</style>
<g>
	<path class="st0" d="M1110.1,1579.9H938.4l107.3-659.4h171.7L1110.1,1579.9z M794,920.5l-163.7,453.5l-19.4-97.7l0,0l-57.8-296.5
		c0,0-7-59.4-81.4-59.4H201.2l-3.2,11.2c0,0,82.7,17.2,179.6,75.4L526.8,1580h178.9l273.1-659.4L794,920.5L794,920.5z
		 M2144.3,1579.9H2302l-137.4-659.4h-138c-63.7,0-79.3,49.1-79.3,49.1l-256,610.3h179l35.8-97.9h218.2L2144.3,1579.9L2144.3,1579.9z
		 M1955.4,1346.7l90.2-246.8l50.7,246.8H1955.4z M1704.7,1079.1l24.5-141.6c0,0-75.6-28.8-154.4-28.8
		c-85.2,0-287.5,37.2-287.5,218.3c0,170.4,237.5,172.5,237.5,262c0,89.5-213,73.4-283.3,17l-25.5,148.1c0,0,76.7,37.2,193.8,37.2
		c117.2,0,293.9-60.7,293.9-225.8c0-171.5-239.6-187.4-239.6-262C1464,1029,1631.2,1038.6,1704.7,1079.1L1704.7,1079.1z"/>
</g>
<path class="st0" d="M611,1276.4l-57.8-296.5c0,0-7-59.4-81.4-59.4H201.2l-3.2,11.2c0,0,130.1,27,254.8,127.9
	C572.1,1156.1,611,1276.4,611,1276.4z"/>
<path class="st1" d="M0,0h2500v2500H0V0z"/>
</svg>
