<svg width="317" height="213" fill="none" xmlns="http://www.w3.org/2000/svg"><g clip-path="url(#clip0)"><path d="M.608 1.057H316.23v211.209l-83.342.734-232.28-1.704V1.057z" fill="#8E7B55"/><path d="M14.94 12.487l-.646-1.455 55.885-.323h232.776v67.484l-.323 123.613-1.142-1.131-13.922.161-200.537.162H11.86l2.595-2.761v-131.4l.484-54.35z" fill="#736040"/><path d="M300.446 13.955l-42.037-.97-242.488.236 1.453 1.219-.733 183.474 281.855.485 1.95-184.444z" fill="#49713F"/><path d="M158.301 1.617c86.954 0 157.444-.362 157.444-.809 0-.446-70.49-.808-157.444-.808S.856.362.856.808c0 .447 70.49.809 157.445.809z" fill="#3F281C"/><path d="M316.392 212.838c.447 0 .708-47.448.571-105.977-.137-58.53-.609-105.966-1.056-105.966-.447 0-.707 47.448-.571 105.978.137 58.53.609 105.965 1.056 105.965z" fill="#3F281C"/><path d="M316.253 212.549c.001-.446-70.599-1.03-157.69-1.304-87.09-.274-157.693-.135-157.694.312-.002.446 70.598 1.03 157.689 1.304 87.091.275 157.693.135 157.695-.312zM.807 211.047c.446 0 .807-47.08.807-105.156C1.614 47.814 1.253.734.807.734.361.734 0 47.814 0 105.89c0 58.076.361 105.156.807 105.156zM15.362 11.131c.124-.199-.62-.858-1.838-1.878-1.217-1.02-2.88-2.4-4.793-3.917A42.445 42.445 0 0 0 3.577 1.74C2.174.945 1.205.621 1.093.808c-.112.187.621.871 1.838 1.878C4.148 3.694 5.825 5.1 7.725 6.616a42.221 42.221 0 0 0 5.154 3.582c1.415.834 2.384 1.12 2.483.933zM316.23.895c-.149-.174-.994.287-2.236 1.182-1.241.895-2.856 2.214-4.644 3.62-1.788 1.405-3.477 2.574-4.732 3.357-1.254.784-2.074 1.244-1.999 1.468.074.224 1.043.124 2.484-.448a21.73 21.73 0 0 0 5.216-3.097 40.889 40.889 0 0 0 4.408-4.042c1.068-1.107 1.652-1.853 1.503-2.04z" fill="#3F281C"/><path d="M316.255 212.515c.111-.199-.621-.871-1.789-1.915l-4.595-4.105a51.04 51.04 0 0 0-4.868-3.88c-1.329-.908-2.248-1.331-2.384-1.144-.137.186.546.908 1.664 2.027a98.64 98.64 0 0 0 4.52 4.229 38.981 38.981 0 0 0 4.968 3.793c1.403.821 2.372 1.144 2.484.995zM13.462 199.356c-.298-.335-3.452 2.053-7.029 5.311-3.576 3.259-6.21 6.219-5.948 6.53.26.311 3.452-2.053 7.041-5.324 3.589-3.271 6.234-6.193 5.936-6.517zM14.456 199.381c.446 0 .807-42.163.807-94.174 0-52.012-.361-94.175-.807-94.175-.446 0-.808 42.163-.808 94.175 0 52.011.362 94.174.808 94.174z" fill="#3F281C"/><path d="M302.135 200.836c0-.447-64.937-.808-145.051-.808-80.113 0-145.063.361-145.063.808 0 .448 64.95.809 145.063.809 80.114 0 145.051-.324 145.051-.809zM302.62 200.463c.447 0 1.03-42.523 1.304-94.995.273-52.473.124-95.008-.323-95.008s-1.031 42.535-1.242 94.995c-.211 52.46-.186 95.008.261 95.008zM159.233 11.43c79.464 0 143.883-.362 143.883-.809 0-.446-64.419-.808-143.883-.808-79.465 0-143.883.362-143.883.808 0 .447 64.418.809 143.883.809zM159.307 14.278c78.347 0 141.859-.362 141.859-.809 0-.446-63.512-.808-141.859-.808-78.346 0-141.859.362-141.859.809 0 .446 63.513.808 141.859.808zM16.89 196.458c.445 0 .806-40.854.806-91.251 0-50.397-.36-91.252-.807-91.252-.446 0-.807 40.855-.807 91.252s.361 91.251.807 91.251zM158.053 198.722c77.963 0 141.164-.362 141.164-.808 0-.447-63.201-.809-141.164-.809-77.962 0-141.163.362-141.163.809 0 .446 63.2.808 141.163.808z" fill="#3F281C"/><path d="M299.055 198.075c.447 0 .956-41.217 1.143-92.035.186-50.819 0-92.036-.485-92.036-.484 0-.956 41.205-1.142 92.036-.187 50.831.037 92.035.484 92.035zM308.94 188.673c.226 0 .41-8.826.41-19.713s-.184-19.713-.41-19.713c-.226 0-.41 8.826-.41 19.713s.184 19.713.41 19.713zM311.858 188.175c.226 0 .41-2.505.41-5.596s-.184-5.597-.41-5.597c-.226 0-.41 2.506-.41 5.597 0 3.091.184 5.596.41 5.596zM311.858 146.249c.226 0 .41-2.505.41-5.596s-.184-5.597-.41-5.597c-.226 0-.41 2.506-.41 5.597 0 3.091.184 5.596.41 5.596zM309.425 207.242c0-.224-19.472-.423-43.465-.448-23.993-.025-43.466.149-43.466.373s19.473.423 43.466.435c23.993.013 43.465-.137 43.465-.36zM306.527 203.618c.226-.003.382-2.572.349-5.738-.034-3.166-.245-5.731-.471-5.729-.226.003-.383 2.571-.349 5.738.034 3.166.245 5.731.471 5.729zM271.77 5.112c18.382 0 33.283-.184 33.283-.41 0-.227-14.901-.411-33.283-.411-18.381 0-33.282.184-33.282.41 0 .227 14.901.41 33.282.41zM297.85 8.122c5.501 0 9.96-.184 9.96-.41 0-.228-4.459-.411-9.96-.411-5.5 0-9.959.183-9.959.41 0 .227 4.459.41 9.959.41zM42.646 5.112c16.372 0 29.644-.184 29.644-.41 0-.227-13.272-.411-29.644-.411-16.371 0-29.643.184-29.643.41 0 .227 13.272.41 29.643.41zM22.714 8.034c2.95 0 5.34-.183 5.34-.41 0-.227-2.39-.41-5.34-.41-2.95 0-5.34.183-5.34.41 0 .227 2.39.41 5.34.41zM6.681 50.93c.227 0 .41-9.911.41-22.138 0-12.226-.183-22.138-.41-22.138-.226 0-.41 9.912-.41 22.138 0 12.227.184 22.139.41 22.139zM9.6 79.163c.226 0 .41-10.023.41-22.387s-.184-22.387-.41-22.387c-.227 0-.41 10.023-.41 22.387s.183 22.387.41 22.387zM5.713 206.184c.226 0 .41-11.654.41-26.031 0-14.376-.184-26.031-.41-26.031-.227 0-.41 11.655-.41 26.031 0 14.377.183 26.031.41 26.031zM117.481 204.729c0-.224-17.386-.41-38.883-.41-21.497 0-38.87.186-38.87.41 0 .224 17.386.411 38.87.411 21.484 0 38.883-.187 38.883-.411zM56.244 207.652c0-.224-9.028-.41-20.168-.41-11.14 0-20.168.186-20.168.41 0 .224 9.029.398 20.168.398 11.14 0 20.168-.174 20.168-.398z" fill="#3F281C"/><path d="M303.997 10.062c-.248-.373-1.589.174-2.719 1.393s-1.813 2.151-1.553 2.487c.261.336 1.602-.174 2.732-1.405 1.131-1.232 1.801-2.102 1.54-2.475zM17.373 14.427c.286-.36-.124-1.132-.646-1.952-.521-.821-1.068-1.493-1.515-1.381-.447.112-.534 1.244.162 2.264.695 1.02 1.739 1.405 2 1.07zM11.078 200.401c.173.411 1.614.162 3.216-.535 1.602-.696 2.744-1.604 2.558-2.015-.186-.41-1.614-.174-3.216.535-1.602.709-2.745 1.605-2.558 2.015zM303.65 202.005c.224-.373-.695-1.405-1.975-2.574-1.279-1.169-2.607-1.903-2.906-1.555-.298.349.497 1.555 1.826 2.761 1.329 1.207 2.856 1.766 3.055 1.368z" fill="#3F281C"/><path fill-rule="evenodd" clip-rule="evenodd" d="M231.945 42.102L217 37.78 228.211 27l3.734 15.102z" fill="#F39200"/><path fill-rule="evenodd" clip-rule="evenodd" d="M235.658 57.196l-14.975-4.315 11.263-10.78 3.712 15.095z" fill="#FDD400"/><path fill-rule="evenodd" clip-rule="evenodd" d="M246.906 46.372l-14.961-4.27 11.196-10.824 3.765 15.094z" fill="#E94591"/><path fill-rule="evenodd" clip-rule="evenodd" d="M231.945 42.102l14.946 4.277-11.234 10.817-3.712-15.094z" fill="#C52D88"/><path fill-rule="evenodd" clip-rule="evenodd" d="M217.008 37.772l14.938 4.33-11.263 10.78-3.675-15.11z" fill="#3AAA35"/><path fill-rule="evenodd" clip-rule="evenodd" d="M231.945 42.102L228.211 27l14.931 4.278-11.197 10.824z" fill="#FFED00"/><path fill-rule="evenodd" clip-rule="evenodd" d="M231.945 42.102L217 37.78 228.211 27l3.734 15.102z" fill="#F39200"/><path fill-rule="evenodd" clip-rule="evenodd" d="M235.658 57.196l-14.975-4.315 11.263-10.78 3.712 15.095z" fill="#787FBD"/><path fill-rule="evenodd" clip-rule="evenodd" d="M246.906 46.372l-14.961-4.27 11.196-10.824 3.765 15.094z" fill="#E94792"/><path fill-rule="evenodd" clip-rule="evenodd" d="M231.945 42.102l14.946 4.277-11.234 10.817-3.712-15.094z" fill="#64B6E7"/><path fill-rule="evenodd" clip-rule="evenodd" d="M217.008 37.772l14.938 4.33-11.263 10.78-3.675-15.11z" fill="#93C461"/><path fill-rule="evenodd" clip-rule="evenodd" d="M231.945 42.102L228.211 27l14.931 4.278-11.197 10.824z" fill="#FFED00"/><path d="M258.407 56.6h-8.213v-6.799h1.049v5.81h2.537v-5.81h1.049v5.81h2.537v-5.81h1.049v6.8h-.008zM264.917 56.6l-1.399-2.164c-.201-.313-.365-.52-.498-.625-.134-.104-.335-.156-.618-.156h-.863v2.938h-1.049v-6.8h1.049v2.843h.789c.275 0 .476-.052.61-.157.134-.104.305-.312.513-.624l1.317-2.069h1.198l-1.548 2.396c-.349.498-.632.803-.855.922.148.052.29.15.424.283.134.141.297.365.498.684l1.614 2.508h-1.182v.022zM267.855 50.754c.676-.677 1.487-1.012 2.447-1.012s1.778.335 2.455 1.012 1.012 1.495 1.012 2.455-.335 1.777-1.012 2.454c-.677.677-1.495 1.012-2.455 1.012s-1.771-.335-2.447-1.012c-.677-.676-1.012-1.495-1.012-2.454 0-.96.335-1.779 1.012-2.456zm4.165.677a2.339 2.339 0 0 0-1.718-.707c-.677 0-1.25.238-1.711.707-.461.468-.692 1.063-.692 1.77 0 .722.231 1.31.692 1.778.461.469 1.034.7 1.711.7s1.25-.231 1.718-.7c.469-.469.7-1.056.7-1.778 0-.707-.231-1.302-.7-1.77zM277.459 51.743l-1.942 4.865h-1.153l2.805-6.8h.61l2.775 6.8h-1.153l-1.942-4.865zM283.195 55.083l-.625 1.525h-1.153l2.805-6.8h.61l2.774 6.8h-1.153l-.61-1.525h-2.648zm1.332-3.362l-.96 2.365h1.919l-.959-2.365zM256.376 28.689c-3.638 0-6.138 2.41-6.138 5.832 0 3.206 2.217 5.55 5.498 5.803l-3.586 5.215h4.345l5.051-7.67c.61-.923.967-2.076.967-3.348 0-3.43-2.477-5.832-6.137-5.832zm0 8.116c-1.25 0-2.359-.848-2.359-2.291 0-1.444 1.109-2.292 2.359-2.292 1.272 0 2.358.826 2.358 2.292 0 1.465-1.086 2.29-2.358 2.29zM264.112 32.654h6.658l-1.465 3.638h-1.503l-1.465 3.63h1.502l-2.261 5.617h4.01l2.261-5.617h1.659l1.458-3.63h-1.651l1.651-4.114v-3.162h-10.854v3.638zM287.665 29.016h-10.861v3.638h6.658l-1.466 3.638h-1.495l-1.466 3.63h1.496l-2.262 5.617h4.01l2.262-5.617h1.658l1.466-3.63h-1.659l1.659-4.114v-3.162z" fill="#fff"/></g><defs><clipPath id="clip0"><path fill="#fff" d="M0 0h317v213H0z"/></clipPath></defs></svg>