<svg width="269" height="93" fill="none" xmlns="http://www.w3.org/2000/svg"><g clip-path="url(#clip0)"><path d="M63.96 29.87l-12.92-2s-19-3.53-26.21-3a52.91 52.91 0 0 0-13.57 3S5 30.74 2.78 34.78C.56 38.82 3.83 53.69 3.83 53.69s4.56 9.65 17 16.83c12.44 7.18 14.48 6.91 14.48 6.91s6.26 2.22 20.61 3.26c14.35 1.04 22.78-.73 23.69-.6.91.13 36-3.78 36-3.78l30.91-3.52 29.35-3.4 27.74-4.69s37.83-7.83 38.22-7.83c.39 0 9.78-3.78 12.91-7.3 3.13-3.52 8.48-9.13 8.48-9.13l3.92-6.52s4.82-14.22-1.83-23-12.52-9.52-12.52-9.52-12.65-2.35-19.31.26c-6.66 2.61-8.74 6.91-13.69 8.22 0 0-5.74 2.08-6.13 2.21-.39.13-32.35 7.31-32.35 7.31l-25.83 3.91-33 3.78-27.65 2.48s-24.61 2-30.87.3z" fill="#565EA3"/><path d="M29.33 80.96S10.48 74.4 3.83 60.58c-6.65-13.82-1.22-24.71-1.22-24.71S-.22 49.96 8.72 60.96c8.48 10.44 27.24 17 27.24 17l-1 2.41-5.63.59z" fill="#B0B5DC"/><path d="M29.33 80.96s13.51 3 18.06 2.86c4.55-.14 19 .41 19 .41l17.22-1.27 84-9.24 2.64-3.62-65.93 7.17c-.31.23-27 3.14-28.2 3.35-1.2.21-16.37 1.74-25.33-.15-8.96-1.89-7.94-1.19-8.65-1.24-.71-.05-5.71-1.42-6.22-1.33" fill="#B0B5DC"/><path d="M250.12 52.63c-4.15 3.33-25.37 8.13-26.51 8.22l-1.37.29c-1.35.23-24.95 4.59-25.45 4.68-.5.09-16.56 2.65-17.07 2.75l-13.11 2.39a1.501 1.501 0 0 0-.666 2.653 1.512 1.512 0 0 0 1.146.307l38.52-5.53h.11L240 61.56c.27-.06 7.9-2.7 8.12-2.84 5.09-3.23 6.47-4.75 6.75-5.09l5.18-5.17.08-.09c1-1.16 4.49-6.64 4.43-8.36a1.076 1.076 0 0 1 0-.4l1.5-4.76-.82 1.88a1.759 1.759 0 0 1-.15.27c-.92 1.37-2.55 5.67-14.97 15.63z" fill="#B0B5DC"/><path d="M77.68 83.73l.11 5s-2.35 1.57-9.29 3c-6.94 1.43-14-.88-14-.88l-1.69-2.06-.55-4.47h10.89l10.28-.46 4.25-.13zM232.109 62.96s-8.999 2-11.479 2.61c-2.48.61-13.651 2.35-13.651 2.35l1.481 5.13s5.539 1.45 14.459-.69c8.92-2.14 10.34-5.92 10.34-5.92l-1.15-3.48z" fill="#F8E936"/><path d="M233.26 66.41s-11.24 1-13.42 1.56a76.96 76.96 0 0 0-8.08 2.87 21.642 21.642 0 0 0-3.3 2.18 38.52 38.52 0 0 0 14.46-.69c8.44-1.88 10.34-5.92 10.34-5.92zM77.96 87.72c.31-.65-8.53-.57-13.46.33a70.74 70.74 0 0 1-11.73.72s-.27 2.86 8.85 2.79c9.12-.07 15.32-1.73 16.34-3.84z" fill="#FCF4AE"/><path d="M27.18 74.25a20.922 20.922 0 0 0 4.64 2.35c.619.387 1.293.677 2 .86 1.08.396 2.182.73 3.3 1l2.08.52 2.35.52c3.871.77 7.785 1.311 11.72 1.62 4.821.355 9.658.448 14.49.28 10.28-.35 19.52-1.44 26.18-2.33 3.33-.45 7.26-.56 9.12-.87.93-.16 66.72-8 67.2-8.12.48-.12-65.58 7.27-65.58 7.24 63.24-6.46-.44.08-2.31.29-1.87.21-5.17.47-8.51.85-6.67.74-15.9 1.73-26.13 2.08-5.11.16-10 .08-14.4-.22a108.753 108.753 0 0 1-11.67-1.42l-2.34-.46-2.05-.48c-1.31-.29-2.43-.52-3.31-.81a10.549 10.549 0 0 1-2.33-.94c-.38-.25-2.81-1.19-4.45-1.96z" fill="#1D1F42"/><path d="M99.98 81.1l-7.9.68c-3.34.29-7.31.63-11.72 1-4.41.37-9.27.65-14.37.83-5.1.18-10 .17-14.38 0-4.38-.17-8.38-.49-11.7-.86-3.32-.37-6.29-1-8.14-1.33l-.24-.06v.5l.51.12c1.83.38 4.5.93 7.83 1.38 3.33.45 7.31.85 11.74 1 4.43.15 9.32.24 14.44.05 5.12-.19 10-.53 14.4-.9s8.39-.78 11.72-1.15c3.33-.37 70.43-7.78 72.29-8a8.314 8.314 0 0 0 2.64-.59c-.04-.07-65.25 7.19-67.12 7.33z" fill="#1D1F42"/><path d="M77.93 88.56c.24 0 .27-1.13.07-2.44s-.55-2.35-.78-2.31c-.23.04-.27 1.13-.07 2.44s.54 2.34.78 2.31z" fill="#D6B426"/><path d="M52.3 88.76s.1.39.59.91a5.35 5.35 0 0 0 2.61 1.4c3.085.91 6.294 1.33 9.51 1.24a28.66 28.66 0 0 0 9.4-1.95 13 13 0 0 0 3.54-1.79 29.279 29.279 0 0 0-3.75 1.21 34.001 34.001 0 0 1-9.22 1.67 36.83 36.83 0 0 1-9.33-1 6.47 6.47 0 0 1-3.35-1.69z" fill="#D6B426"/><path d="M52 84.56c-.24 0-.31 1.06-.16 2.31s.46 2.23.7 2.2c.24-.03.31-1.06.16-2.31s-.47-2.23-.7-2.2zM52.91 88.66c1.236.136 2.484.136 3.72 0l8.93-.29 8.93-.22c1.15 0 2.08 0 2.72-.09a.72.72 0 0 1 .58.13c.09.11.06.21.1.21.04 0 .12-.09 0-.3a.81.81 0 0 0-.73-.38c-.64-.06-1.56-.13-2.71-.18-2.29-.1-5.46-.14-9 0s-6.67.32-9 .55c-1.198.05-2.387.24-3.54.57zM61.04 90.02c0 .22 1.82.62 4.14.51 2.32-.11 4.13-.67 4.08-.89-.05-.22-1.87-.07-4.12 0s-4.08.13-4.1.38z" fill="#D6B426"/><path d="M89.78 29.96s41-3.13 45.79-4c.27 0 5.14-.66 5.67-.69 1.07 0 3.27-.5 5.28-.68 4-.39 9.47-1 16.64-2.06s15.69-2.37 25.09-4.18c4.71-.89 9.62-2 14.69-3.21 2.54-.6 5.11-1.267 7.71-2a71.087 71.087 0 0 0 7.84-2.49 32.541 32.541 0 0 0 7.29-3.91c1.09-.82 2.1-1.7 3.14-2.47a14.236 14.236 0 0 1 3.34-1.86 22.642 22.642 0 0 1 7.35-1.54c2.47-.08 4.94-.09 7.3 0a25.67 25.67 0 0 1 6.7 1.28 21.181 21.181 0 0 1 5.67 3.06 20.774 20.774 0 0 1 4.24 4.3 22.658 22.658 0 0 1 2.66 4.91 26.82 26.82 0 0 1 1.81 9.44c.14 2.56-1 6.92-1.77 9.7-.48 2-4.3 8.05-7.43 11.18-.38 1 4.79-5 6.39-7.67.086-.11.157-.231.21-.36.11-.25.3-.61.51-1.1a32.158 32.158 0 0 0 1.55-4.41c.654-2.392.991-4.86 1-7.34a26.978 26.978 0 0 0-1.72-9.66 22.838 22.838 0 0 0-2.69-5.08 21.312 21.312 0 0 0-4.34-4.48 21.721 21.721 0 0 0-5.87-3.21 26.483 26.483 0 0 0-6.95-1.31c-2.42-.14-4.86-.15-7.39-.07-2.607.103-5.179.64-7.61 1.59a15.215 15.215 0 0 0-3.52 2c-1.09.8-2.1 1.68-3.16 2.47a31.909 31.909 0 0 1-7.09 3.8 72.443 72.443 0 0 1-7.75 2.46c-2.58.7-5.15 1.35-7.68 2-5.06 1.2-9.95 2.34-14.64 3.25-9.38 1.85-17.88 3.24-25 4.35a494.41 494.41 0 0 1-17.13 2.37l-4.47.54-1.21.14c-.24-.06-50.45 4.94-50.45 4.94z" fill="#1D1F42"/><path d="M232.21 63.53c-.18.16.13.79.4 1.58s.61 1.51.85 1.44c.24-.07.28-.81 0-1.74-.28-.93-1.08-1.45-1.25-1.28zM207.15 68.17c-.23.06-.12 1.26.26 2.67s.87 2.5 1.1 2.44c.23-.06.11-1.26-.26-2.67s-.87-2.5-1.1-2.44z" fill="#D6B426"/><path d="M208.04 73.1c1.263.484 2.598.754 3.95.8 3.258.275 6.539.008 9.71-.79a46.402 46.402 0 0 0 5.12-1.58 15.472 15.472 0 0 0 3.95-2 11.173 11.173 0 0 0 2.19-2c.44-.55.62-.89.58-.93a36.098 36.098 0 0 1-3.11 2.45 17.56 17.56 0 0 1-3.87 1.74c-1.54.52-3.25 1.05-5.06 1.49a35.095 35.095 0 0 1-9.47 1c-2.42-.07-3.97-.32-3.99-.18z" fill="#D6B426"/><path d="M208.14 73.16c.08.12 1.29-.72 3.39-1.76a33.762 33.762 0 0 1 3.8-1.57 43.778 43.778 0 0 1 4.86-1.35c3.5-.76 6.75-1.16 9.09-1.51a18.104 18.104 0 0 0 3.78-.72 16.815 16.815 0 0 0-3.85.11 71.446 71.446 0 0 0-9.21 1.27 39.128 39.128 0 0 0-4.94 1.45 26.52 26.52 0 0 0-3.82 1.78 11.109 11.109 0 0 0-3.1 2.3zM216.66 71.71c0 .24 2.08 0 4.48-.73 2.4-.73 4.28-1.33 4.24-1.56-.04-.23-2.09 0-4.48.73-2.39.73-4.29 1.33-4.24 1.56z" fill="#D6B426"/><path d="M266.85 30.63s0 .1-.07.3l-.14.89c-.09.79-.32 1.93-.64 3.4a35.36 35.36 0 0 1-5.18 11.53 34.263 34.263 0 0 1-14.13 12 48.003 48.003 0 0 1-10.62 3.2c-3.8.78-7.75 1.52-11.78 2.29-16.17 3.06-30.87 5.46-41.53 7.11l-12.62 1.91-3.44.53-.89.15-.3.07h.31l.9-.09 3.45-.41c3-.37 7.32-.94 12.66-1.71 10.68-1.53 25.4-3.86 41.58-6.92 4-.77 8-1.52 11.79-2.3a48.725 48.725 0 0 0 10.74-3.28 35.258 35.258 0 0 0 19.31-24c.24-1.136.414-2.284.52-3.44l.07-.91a1.01 1.01 0 0 0 .01-.32z" fill="#1D1F42"/><path d="M261.96 41.38c-.08.049-.153.106-.22.17-.13.11-.33.29-.57.53-.5.48-1.19 1.23-2 2.23a34.261 34.261 0 0 1-3.27 3.43c-.69.62-1.47 1.22-2.3 1.87-.83.65-1.7 1.35-2.63 2a30.021 30.021 0 0 1-3 2 24.543 24.543 0 0 1-3.58 1.65 80.602 80.602 0 0 1-8.37 2.55c-6 1.52-12.69 2.6-19.73 3.85-14.06 2.55-26.73 5.09-36 6.6-4.61.77-8.36 1.34-10.94 1.74l-3 .45c-.338.04-.673.107-1 .2.351.006.702-.018 1.05-.07l3-.33c2.6-.32 6.36-.82 11-1.54 9.27-1.39 22-3.86 36-6.41 7-1.24 13.76-2.35 19.77-3.91a79.794 79.794 0 0 0 8.42-2.62 25.916 25.916 0 0 0 3.63-1.72 30.283 30.283 0 0 0 3.05-2.1c.93-.72 1.79-1.43 2.61-2.09.82-.66 1.6-1.29 2.28-1.93a31.725 31.725 0 0 0 3.22-3.54c.82-1 1.48-1.79 1.94-2.3.226-.224.44-.461.64-.71zM102.18 28.83a2.167 2.167 0 0 0-.42 0l-1.2.16c-1.06.13-2.62.3-4.64.47-4 .35-9.89.61-17.13.71a97.376 97.376 0 0 1-11.81-.43c-4.23-.51-8.73-1.15-13.48-1.77l-3.6-.48-3.67-.62c-2.47-.42-5-.86-7.58-1.24a67.002 67.002 0 0 0-16.16-.76 33.25 33.25 0 0 0-15.33 5 14.722 14.722 0 0 0-3 2.52 8 8 0 0 0-1.84 3.57 27.39 27.39 0 0 0-.28 7.42c.096 2.352.38 4.693.85 7a22.53 22.53 0 0 0 2.33 6.24 31.45 31.45 0 0 0 7.91 8.86 86.88 86.88 0 0 0 14.48 9.19c1.8.93 3.24 1.58 4.22 2l1.12.47c.25.1.38.15.39.13l-.37-.19-1.09-.53c-1-.47-2.37-1.16-4.16-2.11a92.994 92.994 0 0 1-14.3-9.37 31.47 31.47 0 0 1-7.73-8.77c-2.1-3.68-2.84-8.25-3.05-13a27.06 27.06 0 0 1 .28-7.24 7.58 7.58 0 0 1 1.67-3.2 14.001 14.001 0 0 1 2.92-2.41 32.8 32.8 0 0 1 15-4.91 66.921 66.921 0 0 1 16 .74c2.57.37 5.09.81 7.57 1.23l3.67.6 3.61.47c4.76.61 9.27 1.23 13.51 1.72 3.946.362 7.91.48 11.87.35 7.25-.16 13.12-.49 17.15-.91 2-.21 3.58-.43 4.64-.6l1.19-.22.46-.09z" fill="#1D1F42"/><path d="M45.44 83.61c-.252-.063-.51-.1-.77-.11l-2.2-.2a72.342 72.342 0 0 1-8-1.28 49.743 49.743 0 0 1-11.29-4 45.236 45.236 0 0 1-6-3.68 69.663 69.663 0 0 1-5.86-4.85 33.92 33.92 0 0 1-8.5-11.8 31.93 31.93 0 0 1-1.83-6.11 29.81 29.81 0 0 1-.47-5.54 27.33 27.33 0 0 1 1.26-8c.56-1.82 1-2.8.92-2.83a3.26 3.26 0 0 0-.34.69c-.33.669-.621 1.357-.87 2.06a25.69 25.69 0 0 0-1.48 8 29.84 29.84 0 0 0 .4 5.65c.384 2.138.99 4.229 1.81 6.24a34 34 0 0 0 8.6 12.11 66.15 66.15 0 0 0 5.94 4.88 43.803 43.803 0 0 0 6.14 3.71 47.875 47.875 0 0 0 11.46 3.93c2.67.54 5.372.904 8.09 1.09l2.21.07c.26.018.522.008.78-.03z" fill="#1D1F42"/><path fill-rule="evenodd" clip-rule="evenodd" d="M71.395 55.656l-15.305-2.79L66.153 41.01l5.242 14.647z" fill="#F39200"/><path fill-rule="evenodd" clip-rule="evenodd" d="M76.615 70.298l-15.335-2.78 10.116-11.862 5.219 14.642z" fill="#FDD400"/><path fill-rule="evenodd" clip-rule="evenodd" d="M86.711 58.392l-15.315-2.736 10.044-11.9 5.271 14.636z" fill="#E94591"/><path fill-rule="evenodd" clip-rule="evenodd" d="M71.395 55.656l15.302 2.745-10.083 11.897-5.219-14.642z" fill="#C52D88"/><path fill-rule="evenodd" clip-rule="evenodd" d="M56.097 52.859l15.299 2.797L61.28 67.52l-5.183-14.66z" fill="#3AAA35"/><path fill-rule="evenodd" clip-rule="evenodd" d="M71.395 55.656L66.153 41.01l15.287 2.747-10.045 11.9z" fill="#FFED00"/><path fill-rule="evenodd" clip-rule="evenodd" d="M71.395 55.656l-15.305-2.79L66.153 41.01l5.242 14.647z" fill="#F39200"/><path fill-rule="evenodd" clip-rule="evenodd" d="M76.615 70.298l-15.335-2.78 10.116-11.862 5.219 14.642z" fill="#787FBD"/><path fill-rule="evenodd" clip-rule="evenodd" d="M86.711 58.392l-15.315-2.736 10.044-11.9 5.271 14.636z" fill="#E94792"/><path fill-rule="evenodd" clip-rule="evenodd" d="M71.395 55.656l15.302 2.745-10.083 11.897-5.219-14.642z" fill="#64B6E7"/><path fill-rule="evenodd" clip-rule="evenodd" d="M56.097 52.859l15.299 2.797L61.28 67.52l-5.183-14.66z" fill="#93C461"/><path fill-rule="evenodd" clip-rule="evenodd" d="M71.395 55.656L66.153 41.01l15.287 2.747-10.045 11.9z" fill="#FFED00"/><path d="M99.186 67.406l-8.17.83-.688-6.764 1.044-.106.587 5.78 2.524-.256-.588-5.78 1.044-.106.587 5.78 2.524-.257-.587-5.78 1.043-.106.688 6.765h-.008zM105.663 66.749l-1.61-2.013c-.232-.29-.416-.481-.56-.571-.143-.09-.348-.122-.63-.093l-.858.087.297 2.924-1.044.106-.687-6.765 1.044-.106.287 2.827.784-.08c.274-.027.469-.1.591-.217.123-.117.272-.341.448-.673l1.101-2.19 1.192-.122-1.298 2.54c-.297.53-.548.863-.758 1.004.154.037.304.119.451.238.147.127.333.333.565.63l1.859 2.332-1.177.12.003.022zM107.995 60.634a3.324 3.324 0 0 1 2.332-1.254c.955-.097 1.803.154 2.545.759s1.158 1.385 1.255 2.34c.097.955-.154 1.803-.759 2.544-.605.743-1.385 1.158-2.34 1.255a3.324 3.324 0 0 1-2.537-.759c-.742-.605-1.158-1.385-1.255-2.34-.097-.955.153-1.803.759-2.545zm4.213.253a2.342 2.342 0 0 0-1.781-.53 2.31 2.31 0 0 0-1.631.876c-.412.513-.581 1.129-.51 1.832.073.718.362 1.28.868 1.699.507.42 1.1.59 1.773.522.674-.068 1.22-.355 1.639-.869.419-.514.589-1.122.516-1.84-.071-.703-.361-1.271-.874-1.69zM117.649 60.648l-1.44 5.036-1.147.117 2.103-7.048.607-.062 3.448 6.484-1.147.117-2.424-4.644zM123.694 63.391l-.468 1.58-1.147.117 2.103-7.048.607-.062 3.448 6.485-1.148.116-.761-1.455-2.634.267zm.985-3.48l-.716 2.451 1.909-.194-1.193-2.257zM94.345 39.843c-3.619.367-5.862 3.018-5.516 6.422.324 3.19 2.766 5.298 6.056 5.218l-3.04 5.55 4.322-.439 4.25-8.14c.514-.98.752-2.163.624-3.43-.347-3.411-3.054-5.551-6.696-5.181zm.82 8.074c-1.243.127-2.431-.605-2.577-2.04-.146-1.437.871-2.393 2.114-2.519 1.266-.128 2.43.583 2.578 2.041.148 1.459-.849 2.39-2.115 2.518zM102.443 43.005l6.624-.672-1.09 3.767-1.495.152-1.092 3.76 1.495-.152-1.682 5.816 3.989-.405 1.683-5.817 1.65-.167 1.084-3.76-1.643.167 1.227-4.26-.32-3.145-10.798 1.097.368 3.62zM125.508 37.006l-10.806 1.098.368 3.619 6.624-.673-1.09 3.767-1.488.151-1.091 3.76 1.487-.151-1.682 5.816 3.989-.405 1.683-5.816 1.65-.168 1.091-3.76-1.65.168 1.234-4.26-.319-3.146z" fill="#fff"/></g><defs><clipPath id="clip0"><path fill="#fff" d="M0 0h268.87v92.33H0z"/></clipPath></defs></svg>