<svg width="242" height="238" fill="none" xmlns="http://www.w3.org/2000/svg"><g clip-path="url(#clip0)"><path d="M4.11 206.29l2.74-1.37 45.78-33.46 26.22-18.39h92.93s28.57.78 29.35.59c.78-.19 6.46 3.91 8.61 6.84 2.15 2.93 1.76 7.24 2 10.37.24 3.13-2.94 5.68-2.94 5.68l-10 11-36.8 40.02-8.22 9-22.69.39-96.66.2-26.8-.59s-3.33-2.74-2.15-4.5c1.18-1.76 2.74-1.37 3.32-1.56.58-.19 147.92-.39 147.92-.39a15.138 15.138 0 0 0 2.54-6.66c.2-3.32-1.17-11.15-2.15-11.15l-22.89.2H13.7l-7.44.19s-5.87-.74-2.15-6.41z" fill="#659653"/><path d="M150.85 206.29L5.67 205.7l73.18-52.63 120.72.2c.942.239 1.857.574 2.73 1l-51.45 52.02z" fill="#96C779"/><path d="M157.11 212.35l-147.72.59-3.13-.2s2-.19 3.33 3.72c.88 2.92 1.342 5.95 1.37 9 0 0-.59 2.15-.79 2.74a15.05 15.05 0 0 1-2.54 2.54l119.15-.58s29.15.19 29.94 0c.79-.19 2.74-6.26 2.74-9.59s-.2-8-2.35-8.22z" fill="#EAEAEA"/><path d="M156.44 230.02c.09-.19-1-.71-2.34-2a10.004 10.004 0 0 1-1.27-13.07c1-1.55 2-2.26 1.91-2.44-.09-.18-1.29.33-2.64 1.88a9.914 9.914 0 0 0-1.2 11.277 9.922 9.922 0 0 0 2.59 3.043c1.62 1.24 2.91 1.45 2.95 1.31z" fill="#A3A4AA"/><path d="M79.31 153.08a17.265 17.265 0 0 0-3.08 1.81c-1.94 1.24-4.71 3.07-8.11 5.36-6.8 4.59-16.13 11-26.31 18.32s-19.3 14-25.81 19c-3.27 2.48-5.9 4.51-7.69 5.94a18.08 18.08 0 0 0-2.71 2.33 18.865 18.865 0 0 0 3-1.92c1.89-1.3 4.6-3.22 7.94-5.6l26-18.67 26.08-18.62c3.33-2.39 6-4.34 7.87-5.7a19.897 19.897 0 0 0 2.82-2.25z" fill="#4D702C"/><path d="M139.7 153.91c33.496 0 60.65-.291 60.65-.65 0-.359-27.154-.65-60.65-.65-33.496 0-60.65.291-60.65.65 0 .359 27.154.65 60.65.65zM151.43 206.09c0-.36-32.41-.65-72.39-.65-39.98 0-73.95-.1-73.95.26s34 1 74 1 72.34-.25 72.34-.61z" fill="#4D702C"/><path d="M7.4 212.57c0-.2-.7-.13-1.56-.51a3.198 3.198 0 0 1-1.97-4.234 3.204 3.204 0 0 1 1.05-1.366c.7-.63 1.34-.78 1.32-1-.02-.22-.77-.37-1.84.21a3.856 3.856 0 0 0-1.49 1.47 3.75 3.75 0 0 0 .79 4.87 4.082 4.082 0 0 0 1.88.91c1.21.27 1.88-.18 1.82-.35z" fill="#4D702C"/><path d="M157.3 212.35c0-.36-33.55-.65-74.93-.65-41.38 0-77.38.59-77.38 1 0 .41 36 .35 77.38.35 41.38 0 74.93-.34 74.93-.7z" fill="#4D702C"/><path d="M8.23 230.29c0 .08.31.12.81-.07a3.602 3.602 0 0 0 1.66-1.47 6.163 6.163 0 0 0 .84-3.15 31.243 31.243 0 0 0-.2-3.78 15.944 15.944 0 0 0-1.88-6.65c-1-1.55-2-2.15-2.06-2-.06.15.57 1 1.24 2.46a21.503 21.503 0 0 1 1.41 6.36c.12 1.29.26 2.56.29 3.63a6.132 6.132 0 0 1-.45 2.72c-.65 1.43-1.73 1.77-1.66 1.95z" fill="#A3A4AA"/><path d="M156.91 230.35c0-.36-33.11-.74-73.95-.85-40.84-.11-75.33.69-75.33 1.05 0 .36 34.48.15 75.32.26 40.84.11 73.96-.1 73.96-.46z" fill="#4D702C"/><path d="M8.21 236.71c0-.2-.51-.35-1.07-.87a2.684 2.684 0 0 1-1.04-2.464 2.68 2.68 0 0 1 1.61-2.136c.67-.37 1.21-.39 1.24-.58.03-.19-.54-.51-1.55-.29a3.418 3.418 0 0 0-1.56.85 3.329 3.329 0 0 0-1 2 3.453 3.453 0 0 0 1.79 3.35c.93.5 1.59.29 1.58.14z" fill="#4D702C"/><path d="M154 236.32c0-.36-33.17 0-73.37 0s-73.18 0-73.18.36 33 .95 73.18.95c40.18 0 73.37-.95 73.37-1.31zM201.71 154.25a11.627 11.627 0 0 0-2.23 1.76c-1.37 1.19-3.33 3-5.72 5.18-4.77 4.43-11.25 10.68-18.23 17.76-6.98 7.08-13.13 13.62-17.53 18.51-2.18 2.42-3.92 4.4-5.09 5.8-.832.924-1.6 1.902-2.3 2.93a32.6 32.6 0 0 0 2.68-2.59c1.28-1.29 3.12-3.18 5.39-5.51 4.52-4.68 10.77-11.15 17.74-18.22 6.97-7.07 13.34-13.42 17.94-18 2.31-2.3 4.16-4.17 5.43-5.47a11.783 11.783 0 0 0 1.92-2.15z" fill="#4D702C"/><path d="M153 236.12l-.08.1a.292.292 0 0 0 .19.32 1.161 1.161 0 0 0 1.17-.35 26.901 26.901 0 0 0 2.23-3.24 28.468 28.468 0 0 0 2.47-5.31 21.785 21.785 0 0 0 1.2-7.12 16.491 16.491 0 0 0-1.61-7.08 14.796 14.796 0 0 0-3.57-4.77 13.714 13.714 0 0 0-3.4-2.48c-.88-.32-1.35-.17-1.37-.1-.1.23 1.89 1 4.14 3.25a15.686 15.686 0 0 1 3.06 4.59 16.54 16.54 0 0 1 1.4 6.6 26.698 26.698 0 0 1-3.18 12c-.71 1.45-1.39 2.61-1.82 3.38a.996.996 0 0 1-.7.41c-.13-.01-.13-.2-.13-.2z" fill="#4D702C"/><path d="M209.001 176.74a14.863 14.863 0 0 0-2.37 2.19c-1.47 1.46-3.55 3.6-6.11 6.27-5.12 5.34-12.11 12.77-19.78 21-7.67 8.23-14.61 15.83-19.55 21.37-2.47 2.75-4.45 5-5.8 6.56a15.48 15.48 0 0 0-2 2.52c.87-.63 1.666-1.358 2.37-2.17 1.46-1.47 3.55-3.61 6.1-6.28 5.12-5.34 12.12-12.77 19.79-21s14.57-15.8 19.51-21.3c2.47-2.75 4.45-5 5.8-6.55a15.847 15.847 0 0 0 2.04-2.61z" fill="#4D702C"/><path d="M207.41 177.57c0 .07.5.08 1.29-.27a6.12 6.12 0 0 0 2.64-2.46 10.996 10.996 0 0 0 1.48-5.14 16.311 16.311 0 0 0-1.18-6.39 17.799 17.799 0 0 0-7.58-8.76c-2.62-1.5-4.54-1.64-4.55-1.51-.01.13 1.71.68 4.07 2.3a18.85 18.85 0 0 1 6.85 8.45 16.286 16.286 0 0 1 1.18 5.88 10.918 10.918 0 0 1-1.07 4.72 6.624 6.624 0 0 1-2.09 2.47c-.64.47-1.08.62-1.04.71z" fill="#4D702C"/><path d="M151.831 216.3c0-.36-17.16-.52-38.45-.52-21.29 0-38.87.45-38.54.29.33-.16 17.06.2 38.34.2 21.28 0 38.65.39 38.65.03zM151.53 217.47c0-.36-17.16-.52-38.44-.52-21.28 0-38.87.45-38.55.29.32-.16 17.06.2 38.35.2 21.29 0 38.64.39 38.64.03zM149.87 220.18c0-.36-27.07-.39-60.46-.39s-60.45 0-60.45.39 27.06.1 60.45.1 60.46.29 60.46-.1zM150.851 223.41c0-.36-11.88-.49-24.85-.49s-23.48 0-23.48.39 10.419 0 23.379 0 24.951.46 24.951.1zM154.171 228.69c0-.36-11.88-.49-24.84-.49-12.96 0-23.48 0-23.48.39s10.41 0 23.38 0c12.97 0 24.94.46 24.94.1zM151.83 225.57c0-.36-28.86 0-65 .13s-65.35-.49-65.35-.13 29.17.65 65.15.65c35.98 0 65.2-.33 65.2-.65zM152.8 226.8c0-.36-28.85 0-65 .13s-65.35-.49-65.35-.13 29.17.65 65.15.65c35.98 0 65.2-.29 65.2-.65zM150.85 222c0-.36-28.86 0-65 .14s-65.35-.5-65.35-.14 29.17.66 65.16.66c35.99 0 65.19-.3 65.19-.66z" fill="#A3A4AA"/><path d="M10.23 177.68l2.77-1.29 46.71-32.16 26.72-17.66 92.9 2.61s28.53 1.59 29.32 1.42c.79-.17 6.34 4.09 8.41 7.08 2.07 2.99 1.56 7.29 1.67 10.42.11 3.13-3.1 5.59-3.1 5.59l-10.28 10.68-37.89 39.06-8.46 8.77-22.7-.25-96.62-2.52-26.78-1.34s-3.25-2.83-2-4.56c1.25-1.73 2.78-1.29 3.37-1.47.59-.18 147.87 3.77 147.87 3.77a15.086 15.086 0 0 0 2.72-6.58c.29-3.32-.86-11.18-1.83-11.21-.97-.03-22.89-.45-22.89-.45l-120.51-3.38H12.2s-5.85-.96-1.97-6.53z" fill="#CE6935"/><path d="M156.911 181.8l-145.1-4.66 74.62-50.57 120.67 3.6c.936.261 1.844.616 2.71 1.06l-52.9 50.57z" fill="#DE916F"/><path d="M163 188.04l-147.68-3.56-3.12-.29s2-.14 3.22 3.81a32.08 32.08 0 0 1 1.11 9s-.64 2.13-.86 2.72a15.423 15.423 0 0 1-2.61 2.47l119.12 2.76s29.14 1 29.93.84c.79-.16 2.91-6.18 3-9.51.09-3.33.03-7.98-2.11-8.24z" fill="#EAEAEA"/><path d="M161.831 205.68c.09-.19-1-.73-2.28-2.08a10 10 0 0 1-.9-13.1c1.09-1.52 2.09-2.21 2-2.38-.09-.17-1.3.29-2.7 1.79a9.91 9.91 0 0 0-2.586 7.395 9.916 9.916 0 0 0 3.586 6.965c1.56 1.3 2.84 1.55 2.88 1.41z" fill="#A3A4AA"/><path d="M86.89 126.57a19.978 19.978 0 0 0-3.13 1.73c-2 1.18-4.79 2.93-8.25 5.13-6.93 4.39-16.43 10.58-26.82 17.57S29 164.51 22.33 169.28c-3.34 2.39-6 4.35-7.86 5.73-.993.66-1.92 1.413-2.77 2.25a19.61 19.61 0 0 0 3.06-1.84c1.93-1.25 4.69-3.09 8.09-5.38l26.57-17.92L76 134.23c3.4-2.29 6.15-4.16 8-5.47 1.033-.634 2-1.367 2.89-2.19z" fill="#944623"/><path d="M207.879 130.194c.01-.359-27.125-1.413-60.608-2.354-33.483-.941-60.634-1.413-60.644-1.054-.01.359 27.125 1.413 60.607 2.354 33.483.941 60.635 1.413 60.645 1.054zM157.5 181.62c0-.36-32.38-1.56-72.34-2.68s-73.93-2.18-73.94-1.82c-.01.36 33.94 2 73.9 3.12 39.96 1.12 72.37 1.74 72.38 1.38z" fill="#944623"/><path d="M13.34 184.08c0-.2-.7-.15-1.55-.55a3.604 3.604 0 0 1-2.09-2.58 3.56 3.56 0 0 1 1.34-3c.71-.61 1.36-.74 1.34-.94-.02-.2-.76-.39-1.85.16a4 4 0 0 0-1.53 1.4 3.73 3.73 0 0 0 .66 4.88 4 4 0 0 0 1.85 1c1.2.2 1.89-.23 1.83-.37z" fill="#944623"/><path d="M163.19 188.05c0-.36-33.52-1.6-74.88-2.76-41.36-1.16-77.37-1.59-77.38-1.23-.01.36 36 1.37 77.34 2.53 41.34 1.16 74.91 1.82 74.92 1.46z" fill="#944623"/><path d="M13.67 201.79c0 .08.31.13.82-.05a3.583 3.583 0 0 0 1.7-1.42 6.34 6.34 0 0 0 .93-3.12c.04-1.264.006-2.53-.1-3.79a16.06 16.06 0 0 0-1.69-6.7c-.92-1.58-1.91-2.2-2-2.08-.09.12.54 1 1.17 2.49a21.234 21.234 0 0 1 1.22 6.39c.09 1.29.19 2.57.2 3.64a6.172 6.172 0 0 1-.53 2.7c-.69 1.45-1.78 1.72-1.72 1.94z" fill="#A3A4AA"/><path d="M162.29 206.03c0-.36-33.07-1.67-73.9-2.93-40.83-1.26-75.31-1.43-75.32-1.07-.01.36 34.46 1.12 75.28 2.38 40.82 1.26 73.93 1.98 73.94 1.62z" fill="#944623"/><path d="M13.47 208.2c0-.19-.49-.36-1-.89a2.69 2.69 0 0 1 .7-4.59c.67-.34 1.22-.35 1.25-.54.03-.19-.52-.53-1.54-.33a3.246 3.246 0 0 0-1.58.8 3.24 3.24 0 0 0-.63 4.18c.304.518.743.944 1.27 1.23.88.51 1.54.3 1.53.14z" fill="#944623"/><path d="M159.19 211.91c0-.36-33.16-.9-73.34-2-40.18-1.1-73.14-2.05-73.15-1.69-.01.36 32.94 1.87 73.12 3 40.18 1.13 73.36 1.05 73.37.69zM209.21 131.21a12.384 12.384 0 0 0-2.27 1.7 303.52 303.52 0 0 0-5.87 5c-4.89 4.29-11.55 10.36-18.72 17.24-7.17 6.88-13.51 13.29-18 18-2.25 2.36-4 4.29-5.25 5.65a24.555 24.555 0 0 0-2.38 2.87 33.838 33.838 0 0 0 2.74-2.52c1.32-1.25 3.22-3.08 5.55-5.35 4.65-4.55 11.08-10.84 18.24-17.72 7.16-6.88 13.71-13 18.45-17.5 2.36-2.23 4.27-4 5.58-5.32a11.537 11.537 0 0 0 1.93-2.05z" fill="#944623"/><path d="M158.201 211.69l-.08.09a.3.3 0 0 0 .18.33 1.166 1.166 0 0 0 1.18-.32 26.713 26.713 0 0 0 2.32-3.22 28.5 28.5 0 0 0 2.62-5.24 21.655 21.655 0 0 0 1.4-7.08 16.684 16.684 0 0 0-1.41-7.13 14.834 14.834 0 0 0-3.39-4.86 13.777 13.777 0 0 0-3.33-2.57c-.87-.35-1.34-.21-1.36-.14-.11.23 1.86 1 4 3.36a15.48 15.48 0 0 1 2.93 4.68 16.616 16.616 0 0 1 1.22 6.63 26.957 26.957 0 0 1-3.48 11.93c-.76 1.42-1.47 2.56-1.92 3.32a1.005 1.005 0 0 1-.71.39c-.13.01-.12-.17-.17-.17z" fill="#944623"/><path d="M215.82 153.9a16.563 16.563 0 0 0-2.43 2.12c-1.5 1.42-3.65 3.5-6.28 6.1-5.26 5.19-12.46 12.42-20.36 20.47-7.9 8.05-15 15.38-20.1 20.74-2.54 2.68-4.59 4.86-6 6.39a15.475 15.475 0 0 0-2.07 2.47 16.01 16.01 0 0 0 2.43-2.11c1.5-1.42 3.65-3.51 6.28-6.1 5.26-5.19 12.47-12.43 20.37-20.48s15-15.38 20.1-20.74c2.54-2.68 4.59-4.86 6-6.39a14.332 14.332 0 0 0 2.06-2.47z" fill="#944623"/><path d="M214.25 154.71c0 .06.5.09 1.3-.24a6.176 6.176 0 0 0 2.71-2.38 10.843 10.843 0 0 0 1.62-5.09 16.38 16.38 0 0 0-1-6.43 17.917 17.917 0 0 0-7.33-9c-2.59-1.57-4.5-1.76-4.52-1.64-.02.12 1.7.73 4 2.41a18.86 18.86 0 0 1 6.61 8.65 16.338 16.338 0 0 1 1 5.91 10.757 10.757 0 0 1-1.21 4.68 6.595 6.595 0 0 1-2.16 2.41c-.61.46-1.05.58-1.02.72z" fill="#944623"/><path d="M157.61 191.84c0-.36-17.14-1-38.42-1.6-21.28-.6-38.86-.64-38.54-.79.32-.15 17 .67 38.33 1.27s38.62 1.48 38.63 1.12zM157.28 193c0-.36-17.14-1-38.42-1.6-21.28-.6-38.86-.64-38.53-.79.33-.15 17 .68 38.32 1.27s38.62 1.48 38.63 1.12zM155.54 195.66c0-.36-27-1.15-60.42-2.09s-60.43-1.67-60.44-1.31c-.01.36 27.05.86 60.43 1.8 33.38.94 60.42 1.96 60.43 1.6zM156.43 198.92c0-.36-11.86-.83-24.83-1.19-12.97-.36-23.47-.63-23.48-.27-.01.36 10.41.29 23.37.66 12.96.37 24.93 1.16 24.94.8zM159.6 204.29c0-.36-11.86-.82-24.82-1.19s-23.47-.63-23.48-.27c-.01.36 10.41.3 23.37.66 12.96.36 24.92 1.16 24.93.8zM157.35 201.06c0-.36-28.85-.78-64.94-1.69-36.09-.91-65.31-2.33-65.32-2-.01.33 29.14 1.47 65.11 2.48s65.14 1.57 65.15 1.21zM158.29 202.36c0-.36-28.85-.78-64.94-1.69-36.09-.91-65.3-2.33-65.31-2-.01.33 29.14 1.47 65.1 2.48 35.96 1.01 65.14 1.57 65.15 1.21zM156.47 197.51c0-.36-28.85-.77-64.94-1.69-36.09-.92-65.31-2.33-65.32-2-.01.33 29.14 1.47 65.11 2.49 35.97 1.02 65.14 1.56 65.15 1.2z" fill="#A3A4AA"/><path d="M31.5 142.9l2.74-1.33L80 108.07l26.221-18.39h92.93s28.57.78 29.35.59c.78-.19 6.46 3.91 8.61 6.84 2.15 2.93 1.76 7.24 2 10.37.24 3.13-2.94 5.68-2.94 5.68l-10 10.95-36.78 40.11-8.22 9-22.69.39-96.65.2-26.83-.59s-3.32-2.74-2.15-4.5c1.17-1.76 2.74-1.37 3.33-1.56.59-.19 147.91-.39 147.91-.39a15.15 15.15 0 0 0 2.54-6.66c.2-3.32-1.17-11.15-2.15-11.15l-22.89.2h-120.5l-7.44.19s-5.87-.78-2.15-6.45z" fill="#8767AA"/><path d="M178.24 142.9l-145.17-.59 73.17-52.63 120.76.19c.946.238 1.864.573 2.74 1l-51.5 52.03z" fill="#B499C9"/><path d="M184.5 148.96l-147.72.61-3.13-.2s2-.19 3.33 3.72a32.19 32.19 0 0 1 1.37 9s-.59 2.15-.78 2.74a15.455 15.455 0 0 1-2.57 2.52l119.15-.58s29.16.19 29.94 0c.78-.19 2.74-6.27 2.74-9.59 0-3.32-.18-8.02-2.33-8.22z" fill="#EAEAEA"/><path d="M183.831 166.63c.09-.19-1-.71-2.34-2a9.997 9.997 0 0 1-1.27-13.06c1.05-1.55 2-2.27 1.91-2.44-.09-.17-1.28.33-2.64 1.87a9.919 9.919 0 0 0-2.381 7.463 9.928 9.928 0 0 0 3.771 6.867c1.62 1.24 2.91 1.44 2.95 1.3z" fill="#A3A4AA"/><path d="M106.7 89.69a17.7 17.7 0 0 0-3.08 1.81c-1.94 1.23-4.71 3.07-8.11 5.36-6.8 4.58-16.13 11-26.31 18.32s-19.3 14-25.84 19c-3.27 2.48-5.9 4.51-7.69 5.94a18.759 18.759 0 0 0-2.67 2.31 18.863 18.863 0 0 0 3-1.92c1.89-1.3 4.6-3.22 7.94-5.6L70 116.24l26-18.62c3.33-2.39 6-4.34 7.87-5.7a19.91 19.91 0 0 0 2.83-2.23z" fill="#613F8F"/><path d="M167.09 90.52c33.496 0 60.65-.291 60.65-.65 0-.359-27.154-.65-60.65-.65-33.496 0-60.65.291-60.65.65 0 .359 27.154.65 60.65.65zM178.83 142.7c0-.36-32.41-.65-72.4-.65-39.99 0-73.95-.1-73.95.26s34 1 74 1 72.35-.25 72.35-.61z" fill="#613F8F"/><path d="M34.79 149.21c0-.2-.7-.14-1.56-.51a3.197 3.197 0 0 1-1.969-4.234 3.204 3.204 0 0 1 1.05-1.366c.7-.63 1.35-.78 1.32-1-.03-.22-.77-.36-1.84.22a3.914 3.914 0 0 0-1.936 4.049A3.912 3.912 0 0 0 33 149.57c1.18.23 1.85-.22 1.79-.36z" fill="#613F8F"/><path d="M184.7 148.96c0-.36-33.55-.65-74.94-.65s-77.38.58-77.38.94 36 .36 77.38.36c41.38 0 74.94-.29 74.94-.65z" fill="#613F8F"/><path d="M35.62 166.9c0 .08.31.12.81-.07a3.601 3.601 0 0 0 1.66-1.47c.557-.956.85-2.043.85-3.15a31.314 31.314 0 0 0-.21-3.78 15.942 15.942 0 0 0-1.88-6.65c-1-1.55-2-2.15-2.06-2-.06.15.58.95 1.24 2.46a21.501 21.501 0 0 1 1.41 6.33c.12 1.29.26 2.56.29 3.63a6.13 6.13 0 0 1-.45 2.72c-.65 1.46-1.73 1.8-1.66 1.98z" fill="#A3A4AA"/><path d="M184.3 166.96c0-.36-33.11-.74-74-.85-40.89-.11-75.3.69-75.3 1.05 0 .36 34.48.15 75.32.26 40.84.11 73.98-.1 73.98-.46z" fill="#613F8F"/><path d="M35.6 173.31c0-.19-.51-.34-1.07-.86a3.005 3.005 0 0 1-1-2.46 3.004 3.004 0 0 1 1.61-2.14c.67-.37 1.21-.39 1.24-.58.03-.19-.54-.51-1.55-.29a3.418 3.418 0 0 0-1.56.85 3.367 3.367 0 0 0-.983 2.897 3.359 3.359 0 0 0 1.773 2.493c.94.46 1.55.25 1.54.09z" fill="#613F8F"/><path d="M181.37 172.93c0-.36-33.17 0-73.37 0s-73.17 0-73.17.36 33 .95 73.17.95 73.37-.95 73.37-1.31zM229.1 90.86a11.411 11.411 0 0 0-2.22 1.76c-1.38 1.19-3.34 3-5.73 5.18-4.77 4.43-11.25 10.68-18.23 17.76-6.98 7.08-13.13 13.66-17.49 18.51-2.18 2.42-3.91 4.4-5.09 5.79a28.139 28.139 0 0 0-2.3 2.94 32.6 32.6 0 0 0 2.68-2.59c1.28-1.29 3.12-3.18 5.39-5.52 4.53-4.67 10.77-11.14 17.74-18.21 6.97-7.07 13.34-13.42 17.94-18 2.31-2.3 4.16-4.17 5.43-5.47a11.683 11.683 0 0 0 1.88-2.15z" fill="#613F8F"/><path d="M180.37 172.73s-.05 0-.08.09a.293.293 0 0 0 .033.201c.035.06.091.106.157.129a1.161 1.161 0 0 0 1.17-.35 27.407 27.407 0 0 0 2.24-3.25 28.06 28.06 0 0 0 2.46-5.3 21.553 21.553 0 0 0 1.2-7.13 16.568 16.568 0 0 0-1.61-7.08 14.855 14.855 0 0 0-3.52-4.76 13.714 13.714 0 0 0-3.4-2.48c-.88-.33-1.35-.17-1.37-.1-.1.23 1.89 1 4.14 3.25a15.686 15.686 0 0 1 3.06 4.59 16.544 16.544 0 0 1 1.4 6.59 26.882 26.882 0 0 1-3.17 12c-.72 1.45-1.4 2.61-1.82 3.38a1.051 1.051 0 0 1-.71.41c-.13 0-.13-.19-.18-.19z" fill="#613F8F"/><path d="M236.35 113.35a15.06 15.06 0 0 0-2.35 2.22c-1.47 1.47-3.55 3.61-6.11 6.28-5.11 5.34-12.11 12.77-19.78 21-7.67 8.23-14.56 15.8-19.51 21.3-2.47 2.75-4.45 5-5.8 6.56a15.48 15.48 0 0 0-2 2.52 14.41 14.41 0 0 0 2.37-2.18c1.46-1.46 3.55-3.6 6.11-6.27 5.11-5.34 12.11-12.77 19.78-21 7.67-8.23 14.57-15.8 19.51-21.3 2.47-2.75 4.45-5 5.8-6.55.747-.79 1.41-1.654 1.98-2.58z" fill="#613F8F"/><path d="M234.8 114.2c0 .06.5.08 1.29-.27a6.173 6.173 0 0 0 2.64-2.46 10.985 10.985 0 0 0 1.48-5.14 16.44 16.44 0 0 0-1.17-6.39 17.854 17.854 0 0 0-7.59-8.76c-2.62-1.5-4.54-1.64-4.55-1.51-.01.13 1.71.67 4.07 2.3a18.841 18.841 0 0 1 6.85 8.45 16.515 16.515 0 0 1 1.19 5.88 10.867 10.867 0 0 1-1.08 4.71 6.568 6.568 0 0 1-2.09 2.48c-.64.44-1.08.6-1.04.71z" fill="#613F8F"/><path d="M179.22 152.91c0-.36-17.16-.52-38.45-.52-21.29 0-38.86.45-38.54.29.32-.16 17.06.19 38.35.19 21.29 0 38.64.4 38.64.04zM178.92 154.08c0-.36-17.15-.52-38.44-.52s-38.87.45-38.55.29c.32-.16 17.07.2 38.35.2s38.64.39 38.64.03zM177.261 156.79c0-.36-27.07-.39-60.46-.39s-60.45 0-60.45.39 27.07.1 60.45.1 60.46.26 60.46-.1zM178.24 160.02c0-.36-11.88-.49-24.85-.49s-23.48 0-23.48.39 10.42 0 23.38 0c12.96 0 24.95.46 24.95.1zM181.57 165.3c0-.36-11.89-.49-24.85-.49s-23.48 0-23.48.39 10.41 0 23.38 0c12.97 0 24.95.46 24.95.1zM179.22 162.14c0-.36-28.86 0-65 .13s-65.35-.49-65.35-.13 29.17.65 65.16.65c35.99 0 65.19-.29 65.19-.65zM180.201 163.41c0-.36-28.86 0-65 .13s-65.35-.49-65.35-.13 29.17.65 65.15.65c35.98 0 65.2-.29 65.2-.65zM178.241 158.57c0-.36-28.86 0-65 .13s-65.35-.49-65.35-.13 29.17.66 65.16.66c35.99 0 65.19-.26 65.19-.66z" fill="#A3A4AA"/><path d="M10 105.33l2.74-1.37L58.5 70.5l26.22-18.39h92.93s28.57.79 29.35.59c.78-.2 6.46 3.87 8.61 6.87 2.15 3 1.76 7.24 2 10.37.24 3.13-2.94 5.67-2.94 5.67l-10 11-36.78 40.11-8.22 9-22.69.39-96.66.19-26.8-.58s-3.33-2.74-2.15-4.5c1.18-1.76 2.74-1.37 3.32-1.57.58-.2 147.92-.39 147.92-.39a15.268 15.268 0 0 0 2.54-6.65c.2-3.33-1.17-11.15-2.15-11.15l-22.89.19H19.57l-7.44.2S6.26 111 10 105.33z" fill="#9C3737"/><path d="M156.72 105.33l-145.18-.59 73.18-52.63 120.71.2c.946.237 1.864.572 2.74 1l-51.45 52.02z" fill="#CD5454"/><path d="M163 111.4l-147.72.58-3.13-.19s2-.2 3.33 3.71a32.23 32.23 0 0 1 1.37 9s-.59 2.16-.79 2.74a15.162 15.162 0 0 1-2.54 2.55l119.15-.59s29.15.2 29.94 0c.79-.2 2.74-6.26 2.74-9.59s-.22-8.04-2.35-8.21z" fill="#EAEAEA"/><path d="M162.31 129.06c.09-.19-1-.7-2.34-2a10.004 10.004 0 0 1-1.27-13.07c1.05-1.54 2-2.26 1.91-2.43-.09-.17-1.29.33-2.64 1.87a9.912 9.912 0 0 0-2.389 7.459 9.906 9.906 0 0 0 3.779 6.861c1.64 1.24 2.91 1.45 2.95 1.31z" fill="#A3A4AA"/><path d="M85.18 52.12a19.009 19.009 0 0 0-3.08 1.81c-1.94 1.24-4.71 3.07-8.11 5.36-6.8 4.59-16.13 11-26.31 18.32s-19.3 14-25.84 19c-3.27 2.48-5.9 4.51-7.69 5.94a17.342 17.342 0 0 0-2.71 2.33 19.813 19.813 0 0 0 3-1.92c1.89-1.31 4.6-3.23 7.94-5.61 6.66-4.78 15.87-11.38 26.05-18.66l26.08-18.63c3.33-2.39 6-4.33 7.87-5.7a18.26 18.26 0 0 0 2.8-2.24z" fill="#681C1D"/><path d="M145.57 52.95c33.496 0 60.65-.291 60.65-.65 0-.359-27.154-.65-60.65-.65-33.496 0-60.65.291-60.65.65 0 .359 27.154.65 60.65.65zM157.3 105.14c0-.36-32.41-.66-72.39-.66-39.98 0-73.95-.1-73.95.26s34 1.05 73.95 1.05 72.39-.29 72.39-.65z" fill="#681C1D"/><path d="M13.27 111.64c0-.19-.7-.13-1.56-.5a3.216 3.216 0 0 1-2.156-2.527 3.21 3.21 0 0 1 1.236-3.083c.7-.62 1.34-.77 1.32-1-.02-.23-.77-.37-1.84.21a3.997 3.997 0 0 0-1.49 1.47 3.75 3.75 0 0 0 .79 4.87 4.082 4.082 0 0 0 1.88.91c1.21.24 1.88-.21 1.82-.35z" fill="#681C1D"/><path d="M163.17 111.4c0-.36-33.55-.66-74.93-.66-41.38 0-77.38.59-77.38 1 0 .41 36 .36 77.38.36 41.38 0 74.93-.34 74.93-.7z" fill="#681C1D"/><path d="M14.09 129.33c0 .08.32.12.82-.07a3.543 3.543 0 0 0 1.66-1.47 6.13 6.13 0 0 0 .84-3.15c.01-1.26-.056-2.519-.2-3.77a15.85 15.85 0 0 0-1.88-6.65c-1-1.56-2-2.15-2.06-2-.06.15.57.94 1.24 2.45a21.223 21.223 0 0 1 1.4 6.36c.12 1.29.27 2.56.3 3.63a6.112 6.112 0 0 1-.45 2.72c-.65 1.43-1.76 1.77-1.67 1.95z" fill="#A3A4AA"/><path d="M162.78 129.4c0-.36-33.11-.74-73.95-.85-40.84-.11-75.33.68-75.33 1 0 .32 34.48.15 75.32.26 40.84.11 73.96-.05 73.96-.41z" fill="#681C1D"/><path d="M14.08 135.75c0-.2-.51-.35-1.07-.86a2.69 2.69 0 0 1 .57-4.61c.67-.36 1.21-.38 1.24-.58.03-.2-.54-.51-1.55-.29a3.428 3.428 0 0 0-2.59 2.85 3.448 3.448 0 0 0 1.82 3.39c.93.46 1.59.26 1.58.1z" fill="#681C1D"/><path d="M159.85 135.36c0-.36-33.18 0-73.37 0-40.19 0-73.18 0-73.18.35s33 .95 73.18.95c40.18 0 73.37-.94 73.37-1.3zM207.581 53.29a12.72 12.72 0 0 0-2.23 1.76c-1.37 1.2-3.33 3-5.72 5.18-4.77 4.43-11.261 10.68-18.231 17.77-6.97 7.09-13.129 13.66-17.489 18.5-2.18 2.42-3.92 4.4-5.09 5.8a27.2 27.2 0 0 0-2.3 2.93 32.922 32.922 0 0 0 2.68-2.59c1.28-1.29 3.119-3.17 5.389-5.51 4.521-4.68 10.771-11.14 17.741-18.22 6.97-7.08 13.33-13.42 17.94-18 2.31-2.3 4.16-4.17 5.43-5.48a11.875 11.875 0 0 0 1.88-2.14z" fill="#681C1D"/><path d="M158.85 135.17l-.08.09a.28.28 0 0 0 .19.32 1.145 1.145 0 0 0 1.17-.34 26.518 26.518 0 0 0 2.23-3.25 28.532 28.532 0 0 0 2.47-5.31 21.767 21.767 0 0 0 1.17-7.11 16.553 16.553 0 0 0-1.61-7.08 14.895 14.895 0 0 0-3.52-4.77 13.714 13.714 0 0 0-3.4-2.48c-.88-.32-1.35-.17-1.37-.09-.02.08 1.89 1 4.14 3.24a15.609 15.609 0 0 1 3.06 4.6 16.686 16.686 0 0 1 1.4 6.59 26.75 26.75 0 0 1-3.18 12c-.71 1.44-1.39 2.6-1.82 3.37a.999.999 0 0 1-.7.41c-.11-.01-.1-.19-.15-.19z" fill="#681C1D"/><path d="M214.83 75.79a15.303 15.303 0 0 0-2.38 2.18c-1.46 1.46-3.54 3.61-6.1 6.27-5.12 5.34-12.11 12.77-19.78 21a1669.81 1669.81 0 0 0-19.51 21.33c-2.47 2.75-4.45 5-5.8 6.56a15.796 15.796 0 0 0-2 2.53c.865-.64 1.66-1.371 2.37-2.18 1.46-1.46 3.55-3.61 6.1-6.27 5.12-5.34 12.12-12.78 19.79-21s14.57-15.81 19.51-21.3c2.47-2.75 4.45-5 5.8-6.56a16.125 16.125 0 0 0 2-2.56z" fill="#681C1D"/><path d="M213.28 76.64c0 .06.5.07 1.29-.28a6.122 6.122 0 0 0 2.64-2.46 10.932 10.932 0 0 0 1.48-5.13c.04-2.19-.361-4.367-1.18-6.4a17.772 17.772 0 0 0-7.58-8.75c-2.62-1.51-4.54-1.64-4.55-1.52-.01.12 1.71.68 4.07 2.3a18.818 18.818 0 0 1 6.85 8.46 16.189 16.189 0 0 1 1.18 5.87 10.921 10.921 0 0 1-1.07 4.72 6.63 6.63 0 0 1-2.09 2.47c-.64.45-1.08.65-1.04.72z" fill="#681C1D"/><path d="M157.701 115.34c0-.36-17.16-.52-38.45-.52-21.29 0-38.87.45-38.54.29.33-.16 17.06.2 38.34.2 21.28 0 38.65.39 38.65.03zM157.401 116.57c0-.36-17.16-.53-38.44-.53-21.28 0-38.87.46-38.55.3.32-.16 17.06.19 38.35.19 21.29 0 38.64.35 38.64.04zM155.74 119.22c0-.36-27.07-.39-60.46-.39s-60.45 0-60.45.39 27.06.1 60.45.1 60.46.25 60.46-.1zM156.721 122.45c0-.36-11.88-.49-24.85-.49s-23.48 0-23.48.39 10.42 0 23.38 0c12.96 0 24.95.46 24.95.1zM160 127.73c0-.36-11.88-.49-24.84-.49-12.96 0-23.48 0-23.48.4s10.41 0 23.38 0c12.97 0 24.94.45 24.94.09zM157.701 124.57c0-.36-28.86 0-65 .13s-65.35-.49-65.35-.13 29.17.65 65.15.65c35.98 0 65.2-.29 65.2-.65zM158.67 125.84c0-.36-28.85 0-64.95.13s-65.35-.49-65.35-.13 29.17.65 65.15.65c35.98 0 65.15-.29 65.15-.65zM156.72 121.05c0-.36-28.86 0-65 .13s-65.35-.49-65.35-.13 29.17.65 65.16.65c35.99 0 65.19-.29 65.19-.65z" fill="#A3A4AA"/><path d="M33.07 91.64l2.73-1.37 45.79-33.46 26.21-18.39h92.94s28.56.78 29.35.58c.79-.2 6.45 3.92 8.61 6.85 2.16 2.93 1.76 7.24 1.95 10.37.19 3.13-2.93 5.68-2.93 5.68l-10 11L191 112.96l-8.22 9-22.7.39-96.65.2-26.8-.59s-3.33-2.74-2.16-4.5c1.17-1.76 2.74-1.37 3.33-1.56.59-.19 147.91-.4 147.91-.4a15.162 15.162 0 0 0 2.55-6.65c.19-3.32-1.18-11.15-2.15-11.15l-22.9.2H42.65l-7.43.19s-5.87-.78-2.15-6.45z" fill="#4960AA"/><path d="M179.8 91.64l-145.17-.59 73.17-52.63 120.72.15c.946.237 1.864.572 2.74 1L179.8 91.64z" fill="#6D88C4"/><path d="M186.07 97.7l-147.72.59-3.13-.2s2-.19 3.32 3.72a32.19 32.19 0 0 1 1.37 9s-.58 2.15-.78 2.74a15.424 15.424 0 0 1-2.54 2.54l119.15-.59s29.15.2 29.93 0c.78-.2 2.74-6.26 2.74-9.58 0-3.32-.19-8.02-2.34-8.22z" fill="#EAEAEA"/><path d="M185.4 115.37c.08-.19-1-.71-2.34-2a10 10 0 0 1-1.27-13.07c1.05-1.55 2-2.27 1.91-2.44-.09-.17-1.29.33-2.64 1.87a9.903 9.903 0 0 0-2.39 7.464 9.914 9.914 0 0 0 3.78 6.866c1.62 1.23 2.91 1.45 2.95 1.31z" fill="#A3A4AA"/><path d="M108.26 38.43a18.182 18.182 0 0 0-3.08 1.81c-1.93 1.23-4.7 3.06-8.1 5.36-6.81 4.58-16.13 11-26.31 18.32s-19.31 14-25.84 19c-3.27 2.48-5.9 4.51-7.7 5.94a18.247 18.247 0 0 0-2.7 2.33 19.787 19.787 0 0 0 3-1.92c1.88-1.31 4.59-3.22 7.93-5.61L71.51 65 97.6 46.36c3.34-2.39 6-4.34 7.87-5.7a19.096 19.096 0 0 0 2.79-2.23z" fill="#2F4378"/><path d="M168.65 39.26c33.496 0 60.65-.291 60.65-.65 0-.359-27.154-.65-60.65-.65-33.496 0-60.65.291-60.65.65 0 .359 27.154.65 60.65.65zM180.39 91.44c0-.36-32.41-.65-72.39-.65-39.98 0-74-.1-74 .26s34 1 74 1 72.39-.25 72.39-.61z" fill="#2F4378"/><path d="M36.36 97.95c0-.2-.7-.14-1.56-.51a3.549 3.549 0 0 1-2.17-2.52 3.6 3.6 0 0 1 1.25-3.08c.7-.63 1.34-.78 1.32-1-.02-.22-.77-.36-1.84.22a3.9 3.9 0 0 0 1.18 7.25c1.2.26 1.88-.22 1.82-.36z" fill="#2F4378"/><path d="M186.26 97.7c0-.36-33.55-.65-74.93-.65-41.38 0-77.38.58-77.38.94s36 .36 77.38.36c41.38 0 74.93-.29 74.93-.65z" fill="#2F4378"/><path d="M37.18 115.64c0 .08.32.12.82-.07a3.652 3.652 0 0 0 1.66-1.47 6.26 6.26 0 0 0 .84-3.15 33.42 33.42 0 0 0-.2-3.78 15.893 15.893 0 0 0-1.89-6.6c-1-1.56-2-2.15-2-2 0 .15.57.94 1.24 2.46a21.223 21.223 0 0 1 1.4 6.36c.12 1.28.27 2.56.3 3.63a6.061 6.061 0 0 1-.45 2.71c-.7 1.39-1.78 1.73-1.72 1.91z" fill="#A3A4AA"/><path d="M185.87 115.7c0-.36-33.11-.74-74-.85-40.89-.11-75.32.69-75.32 1.05 0 .36 34.47.15 75.32.26 40.85.11 74-.1 74-.46z" fill="#2F4378"/><path d="M37.17 122.05c0-.19-.51-.34-1.07-.86a2.684 2.684 0 0 1-1.04-2.464 2.68 2.68 0 0 1 1.61-2.136c.66-.37 1.21-.39 1.24-.58.03-.19-.54-.51-1.55-.29a3.449 3.449 0 0 0-2.6 2.85 3.429 3.429 0 0 0 1.83 3.39c.93.46 1.58.25 1.58.09z" fill="#2F4378"/><path d="M182.931 121.67c0-.36-33.17 0-73.36 0s-73.18 0-73.18.36 33 .94 73.18.94c40.18 0 73.36-.94 73.36-1.3zM230.67 39.57a11.63 11.63 0 0 0-2.23 1.76c-1.38 1.19-3.33 3-5.72 5.18-4.78 4.43-11.26 10.68-18.24 17.76-6.98 7.08-13.12 13.66-17.48 18.5-2.18 2.43-3.92 4.41-5.09 5.8a25.4 25.4 0 0 0-2.3 2.94 35.453 35.453 0 0 0 2.67-2.59c1.29-1.29 3.13-3.18 5.39-5.52 4.53-4.67 10.78-11.14 17.74-18.21 6.96-7.07 13.34-13.42 18-18 2.3-2.3 4.16-4.17 5.43-5.47a12.233 12.233 0 0 0 1.83-2.15z" fill="#2F4378"/><path d="M181.94 121.47s-.05 0-.08.09a.294.294 0 0 0 .19.33 1.161 1.161 0 0 0 1.17-.35 27.613 27.613 0 0 0 2.23-3.25 27.28 27.28 0 0 0 2.46-5.31 21.445 21.445 0 0 0 1.21-7.12 16.711 16.711 0 0 0-1.61-7.08 15.16 15.16 0 0 0-3.52-4.77 14.266 14.266 0 0 0-3.4-2.47c-.89-.33-1.35-.17-1.37-.1-.1.23 1.88 1 4.13 3.24a15.666 15.666 0 0 1 3.07 4.6 16.52 16.52 0 0 1 1.39 6.59 26.607 26.607 0 0 1-3.17 12c-.72 1.44-1.39 2.61-1.82 3.38a.996.996 0 0 1-.7.41c-.12 0-.12-.19-.18-.19z" fill="#2F4378"/><path d="M237.911 62.09a16.157 16.157 0 0 0-2.37 2.18c-1.46 1.47-3.55 3.61-6.11 6.28-5.11 5.34-12.11 12.77-19.78 21-7.67 8.23-14.56 15.8-19.5 21.3-2.47 2.75-4.45 5-5.8 6.55a15.022 15.022 0 0 0-2 2.53 16.264 16.264 0 0 0 2.37-2.18c1.46-1.46 3.54-3.6 6.1-6.27 5.12-5.34 12.12-12.77 19.79-21s14.57-15.8 19.51-21.3c2.47-2.75 4.45-5 5.8-6.56a14.392 14.392 0 0 0 1.99-2.53z" fill="#2F4378"/><path d="M236.361 62.94c0 .06.51.08 1.3-.27a6.243 6.243 0 0 0 2.64-2.46 10.855 10.855 0 0 0 1.47-5.14 16.106 16.106 0 0 0-1.17-6.39 17.804 17.804 0 0 0-7.6-8.76c-2.63-1.5-4.54-1.64-4.56-1.52-.02.12 1.72.68 4.07 2.3a19.002 19.002 0 0 1 6.86 8.46 16.463 16.463 0 0 1 1.18 5.88c0 1.63-.365 3.24-1.07 4.71a6.85 6.85 0 0 1-2.09 2.48c-.63.44-1.06.6-1.03.71z" fill="#2F4378"/><path d="M180.78 101.65c0-.36-17.16-.53-38.44-.53-21.28 0-38.87.46-38.55.3.32-.16 17.06.19 38.35.19 21.29 0 38.64.4 38.64.04zM180.49 102.82c0-.36-17.16-.52-38.45-.52-21.29 0-38.86.45-38.54.29.32-.16 17.06.2 38.35.2 21.29 0 38.64.39 38.64.03zM178.83 105.57c0-.36-27.07-.39-60.46-.39s-60.46 0-60.46.39 27.07.09 60.46.09 60.46.23 60.46-.09zM179.8 108.75c0-.36-11.88-.48-24.84-.48-12.96 0-23.48 0-23.48.39s10.41 0 23.38 0c12.97 0 24.94.45 24.94.09zM183.13 114.04c0-.36-11.88-.49-24.85-.49s-23.48 0-23.48.39 10.42 0 23.38 0c12.96 0 24.95.46 24.95.1zM180.78 110.87c0-.36-28.86 0-64.95.13s-65.35-.49-65.35-.13 29.17.66 65.15.66c35.98 0 65.15-.3 65.15-.66zM181.76 112.15c0-.36-28.86 0-65 .13s-65.34-.49-65.34-.13 29.17.65 65.15.65c35.98 0 65.19-.29 65.19-.65zM179.8 107.35c0-.36-28.85 0-65 .13s-65.35-.49-65.35-.13 29.17.65 65.15.65c35.98 0 65.2-.29 65.2-.65z" fill="#A3A4AA"/><path d="M1.76 53.68l2.74-1.37 45.78-33.46L76.5.46h92.93s28.57.78 29.35.59c.78-.19 6.46 3.91 8.61 6.85 2.15 2.94 1.76 7.24 2 10.37.24 3.13-2.94 5.67-2.94 5.67l-10 11-36.78 40.1-8.22 9-22.69.4-96.67.13-26.81-.59s-3.32-2.73-2.15-4.5 2.74-1.36 3.33-1.56c.59-.2 147.91-.35 147.91-.35a15.129 15.129 0 0 0 2.54-6.65c.2-3.33-1.17-11.16-2.15-11.16l-22.89.2H11.35l-7.44.2s-5.91-.81-2.15-6.48z" fill="#CCCC50"/><path d="M148.5 53.68L3.33 53.09 76.5.46l120.72.2c.945.238 1.863.574 2.74 1L148.5 53.68z" fill="#EEE977"/><path d="M154.76 59.74L7 60.33l-3.13-.19s2-.2 3.33 3.71a32.23 32.23 0 0 1 1.37 9s-.59 2.15-.78 2.74a15.559 15.559 0 0 1-2.55 2.55l119.19-.57s29.16.19 29.94 0c.78-.19 2.74-6.26 2.74-9.59s-.2-8.04-2.35-8.24z" fill="#EAEAEA"/><path d="M154.091 77.41c.09-.19-1-.71-2.34-2a9.994 9.994 0 0 1-3.081-6.297 9.992 9.992 0 0 1 1.811-6.773c1.05-1.54 2-2.26 1.91-2.43-.09-.17-1.28.32-2.64 1.87a9.917 9.917 0 0 0 1.39 14.32c1.63 1.24 2.91 1.47 2.95 1.31z" fill="#A3A4AA"/><path d="M77 .47a18.568 18.568 0 0 0-3.08 1.81c-1.93 1.24-4.7 3.07-8.11 5.36-6.8 4.59-16.12 11-26.31 18.32-10.19 7.32-19.3 14-25.84 19-3.27 2.47-5.9 4.5-7.69 5.94a19.215 19.215 0 0 0-2.71 2.32 17.924 17.924 0 0 0 3-1.92c1.89-1.3 4.6-3.22 7.94-5.6l26.02-18.68L66.3 8.4c3.33-2.39 6-4.34 7.87-5.7A19.933 19.933 0 0 0 77 .47z" fill="#9E8B18"/><path d="M137.35 1.3c33.496 0 60.65-.291 60.65-.65 0-.359-27.154-.65-60.65-.65C103.854 0 76.7.291 76.7.65c0 .359 27.154.65 60.65.65zM149.09 53.48c0-.36-32.41-.65-72.39-.65-39.98 0-74-.1-74 .26s34 1 74 1 72.39-.25 72.39-.61z" fill="#9E8B18"/><path d="M5.05 59.99c0-.2-.7-.13-1.56-.51a3.19 3.19 0 0 1-.91-5.6c.69-.63 1.34-.77 1.32-1-.02-.23-.77-.37-1.85.21a4 4 0 0 0-1.49 1.48 3.73 3.73 0 0 0 .8 4.87 4 4 0 0 0 1.88.91c1.2.22 1.87-.22 1.81-.36z" fill="#9E8B18"/><path d="M155 59.74c0-.36-33.55-.65-74.94-.65s-77.38.59-77.38 1c0 .41 36 .36 77.38.36 41.38 0 74.94-.35 74.94-.71z" fill="#9E8B18"/><path d="M5.88 77.68c0 .08.32.12.81-.07a3.6 3.6 0 0 0 1.66-1.47 6.23 6.23 0 0 0 .85-3.15c.01-1.26-.057-2.519-.2-3.77a15.85 15.85 0 0 0-1.89-6.65c-1-1.56-2-2.15-2.06-2-.06.15.58.94 1.24 2.45a21.5 21.5 0 0 1 1.41 6.36c.12 1.29.26 2.56.3 3.63a6.24 6.24 0 0 1-.46 2.72c-.65 1.43-1.73 1.77-1.66 1.95z" fill="#A3A4AA"/><path d="M154.56 77.74c0-.36-33.11-.74-73.95-.84-40.84-.1-75.33.68-75.33 1 0 .32 34.48.15 75.33.26 40.85.11 73.95-.06 73.95-.42z" fill="#9E8B18"/><path d="M5.86 84.1c0-.2-.51-.35-1.06-.87a2.67 2.67 0 0 1 .56-4.6c.67-.37 1.21-.39 1.24-.58.03-.19-.54-.51-1.55-.29a3.42 3.42 0 0 0-1.56.85 3.24 3.24 0 0 0-.51 4.19A3.27 3.27 0 0 0 4.29 84c.92.46 1.58.25 1.57.1z" fill="#9E8B18"/><path d="M151.63 83.71c0-.36-33.17 0-73.37 0s-73.17 0-73.17.36 33 1 73.17 1 73.37-1 73.37-1.36zM199.36 1.64c-.804.5-1.549 1.091-2.22 1.76-1.38 1.2-3.34 3-5.72 5.18-4.78 4.43-11.26 10.68-18.24 17.76-6.98 7.08-13.13 13.67-17.48 18.51-2.18 2.42-3.92 4.4-5.1 5.8-.832.92-1.6 1.896-2.3 2.92.948-.808 1.85-1.67 2.7-2.58 1.28-1.29 3.13-3.17 5.39-5.51 4.53-4.68 10.77-11.15 17.74-18.22 6.97-7.07 13.34-13.42 17.95-18 2.3-2.29 4.16-4.16 5.43-5.47a11.45 11.45 0 0 0 1.85-2.15z" fill="#9E8B18"/><path d="M150.63 83.51l-.08.1a.288.288 0 0 0 .19.32 1.16 1.16 0 0 0 1.17-.35 27.277 27.277 0 0 0 2.24-3.24c1-1.68 1.824-3.46 2.46-5.31a21.572 21.572 0 0 0 1.2-7.12 16.491 16.491 0 0 0-1.61-7.08 14.806 14.806 0 0 0-3.52-4.77 13.716 13.716 0 0 0-3.4-2.48c-.88-.32-1.35-.17-1.37-.1-.1.23 1.89 1 4.14 3.25a15.415 15.415 0 0 1 3.06 4.6 16.455 16.455 0 0 1 1.4 6.59 26.925 26.925 0 0 1-3.17 12c-.72 1.44-1.4 2.6-1.82 3.37a1 1 0 0 1-.7.41c-.14 0-.14-.19-.19-.19z" fill="#9E8B18"/><path d="M206.61 24.14a13.874 13.874 0 0 0-2.37 2.18c-1.47 1.46-3.55 3.6-6.11 6.27-5.11 5.34-12.11 12.77-19.78 21a1625.02 1625.02 0 0 0-19.5 21.29c-2.48 2.75-4.46 5-5.81 6.56a16.105 16.105 0 0 0-2 2.52 13.985 13.985 0 0 0 2.37-2.17c1.46-1.46 3.55-3.61 6.11-6.28 5.11-5.33 12.11-12.77 19.78-21 7.67-8.23 14.57-15.8 19.51-21.3 2.47-2.75 4.46-5 5.8-6.55a15.314 15.314 0 0 0 2-2.52z" fill="#9E8B18"/><path d="M205.06 24.98c0 .07.5.08 1.29-.27a6.117 6.117 0 0 0 2.65-2.46 10.846 10.846 0 0 0 1.48-5.13 16.49 16.49 0 0 0-1.17-6.4 17.864 17.864 0 0 0-7.59-8.76C199.1.46 197.18.33 197.17.45c-.01.12 1.71.68 4.07 2.3a18.818 18.818 0 0 1 6.85 8.46 16.436 16.436 0 0 1 1.19 5.87 10.912 10.912 0 0 1-1.08 4.72 6.626 6.626 0 0 1-2.09 2.47c-.65.45-1.11.6-1.05.71z" fill="#9E8B18"/><path d="M149.481 63.69c0-.36-17.16-.52-38.45-.52-21.29 0-38.86.45-38.54.29.32-.16 17.06.2 38.35.2 21.29 0 38.64.39 38.64.03zM149.18 64.86c0-.36-17.15-.52-38.44-.52s-38.87.46-38.54.3c.33-.16 17.06.19 38.34.19 21.28 0 38.64.39 38.64.03zM147.52 67.57c0-.36-27.07-.39-60.45-.39s-60.46 0-60.46.39 27.07.1 60.46.1 60.45.26 60.45-.1zM148.5 70.8c0-.36-11.88-.49-24.85-.49s-23.48 0-23.48.39 10.42 0 23.38 0c12.96 0 24.95.46 24.95.1zM151.83 76.08c0-.36-11.89-.49-24.85-.49s-23.48 0-23.48.39 10.41 0 23.38 0c12.97 0 24.95.46 24.95.1zM149.48 72.92c0-.36-28.86 0-65 .13s-65.35-.49-65.35-.13 29.17.65 65.16.65c35.99 0 65.19-.29 65.19-.65zM150.46 74.19c0-.36-28.86 0-65 .13s-65.35-.49-65.35-.13 29.17.65 65.15.65c35.98 0 65.2-.27 65.2-.65zM148.5 69.4c0-.36-28.86 0-65 .13s-65.34-.49-65.34-.13 29.17.65 65.15.65c35.98 0 65.19-.29 65.19-.65z" fill="#A3A4AA"/><path fill-rule="evenodd" clip-rule="evenodd" d="M162.566 54.972l-4.601 2.908-.218-5.436 4.819 2.528z" fill="#F39200"/><path fill-rule="evenodd" clip-rule="evenodd" d="M167.377 57.504l-4.605 2.918-.206-5.45 4.811 2.532z" fill="#FDD400"/><path fill-rule="evenodd" clip-rule="evenodd" d="M167.156 52.048l-4.59 2.924-.234-5.442 4.824 2.518z" fill="#E94591"/><path fill-rule="evenodd" clip-rule="evenodd" d="M162.566 54.972l4.589-2.918.223 5.45-4.812-2.532z" fill="#C52D88"/><path fill-rule="evenodd" clip-rule="evenodd" d="M157.965 57.876l4.6-2.904.207 5.45-4.807-2.546z" fill="#3AAA35"/><path fill-rule="evenodd" clip-rule="evenodd" d="M162.566 54.972l-4.819-2.528 4.585-2.914.234 5.442z" fill="#FFED00"/><path fill-rule="evenodd" clip-rule="evenodd" d="M162.566 54.972l-4.601 2.908-.218-5.436 4.819 2.528z" fill="#F39200"/><path fill-rule="evenodd" clip-rule="evenodd" d="M167.377 57.504l-4.605 2.918-.206-5.45 4.811 2.532z" fill="#787FBD"/><path fill-rule="evenodd" clip-rule="evenodd" d="M167.156 52.048l-4.59 2.924-.234-5.442 4.824 2.518z" fill="#E94792"/><path fill-rule="evenodd" clip-rule="evenodd" d="M162.566 54.972l4.589-2.918.223 5.45-4.812-2.532z" fill="#64B6E7"/><path fill-rule="evenodd" clip-rule="evenodd" d="M157.965 57.876l4.6-2.904.207 5.45-4.807-2.546z" fill="#93C461"/><path fill-rule="evenodd" clip-rule="evenodd" d="M162.566 54.972l-4.819-2.528 4.585-2.914.234 5.442z" fill="#FFED00"/><path d="M172.502 51.413l-1.906 2.15-1.78-1.579.244-.274 1.52 1.349.589-.664-1.52-1.35.243-.273 1.521 1.348.589-.664-1.521-1.348.244-.275 1.779 1.578-.002.002zM174.013 49.71l-.891-.137a.937.937 0 0 0-.28-.014c-.058.01-.118.05-.184.125l-.2.226.769.682-.244.274-1.779-1.578.244-.275.743.66.183-.206c.064-.072.097-.137.101-.196a.992.992 0 0 0-.044-.28l-.236-.824.278-.314.268.961c.049.208.063.352.043.438a.399.399 0 0 1 .172-.045 1.61 1.61 0 0 1 .295.029l1.031.159-.275.31.006.005zM173.166 47.583c-.02-.334.08-.624.303-.875.223-.251.5-.387.835-.407.334-.02.626.082.877.305.251.222.387.5.407.834.021.335-.082.626-.305.878a1.16 1.16 0 0 1-.833.405 1.169 1.169 0 0 1-.877-.305 1.169 1.169 0 0 1-.407-.835zm1.144-.933a.818.818 0 0 0-.584.286.808.808 0 0 0-.212.612.85.85 0 0 0 .302.592.849.849 0 0 0 .626.232.81.81 0 0 0 .581-.286.836.836 0 0 0-.088-1.208.84.84 0 0 0-.625-.228zM175.653 45.3l.823 1.637-.268.302-1.128-2.312.141-.16 2.424.852-.268.302-1.724-.621zM177.859 44.574l.254.518-.267.302-1.129-2.313.142-.16 2.423.853-.267.302-.541-.195-.615.693zm-.57-1.129l.396.8.445-.502-.841-.298zM164.727 45.465c-.844.952-.794 2.166.102 2.96.839.745 1.967.708 2.795-.091l.532 2.148 1.008-1.136-.834-3.103a2.117 2.117 0 0 0-.652-1.03c-.897-.796-2.101-.706-2.951.252zm2.124 1.884c-.29.327-.769.42-1.147.086-.377-.335-.342-.822-.052-1.15.295-.332.764-.425 1.147-.085.384.34.348.816.052 1.15zM167.561 44.361l1.546-1.742.612 1.228-.349.393.61 1.226.348-.393.945 1.896.931-1.05-.945-1.895.385-.434-.611-1.225-.384.433-.693-1.388-.827-.733-2.52 2.84.952.844zM172.076 37.353l-2.521 2.843.952.844 1.545-1.742.612 1.228-.347.391.61 1.226.347-.391.945 1.895.93-1.049-.944-1.895.385-.434-.61-1.227-.385.434-.692-1.389-.827-.734z" fill="#fff"/><path fill-rule="evenodd" clip-rule="evenodd" d="M195.421 93.087l-4.6 2.907-.219-5.435 4.819 2.528z" fill="#F39200"/><path fill-rule="evenodd" clip-rule="evenodd" d="M200.233 95.62l-4.606 2.916-.206-5.45 4.812 2.533z" fill="#FDD400"/><path fill-rule="evenodd" clip-rule="evenodd" d="M200.012 90.163l-4.591 2.924-.233-5.443 4.824 2.52z" fill="#E94591"/><path fill-rule="evenodd" clip-rule="evenodd" d="M195.422 93.087l4.589-2.918.223 5.45-4.812-2.532z" fill="#C52D88"/><path fill-rule="evenodd" clip-rule="evenodd" d="M190.82 95.99l4.601-2.903.206 5.45-4.807-2.546z" fill="#3AAA35"/><path fill-rule="evenodd" clip-rule="evenodd" d="M195.421 93.087l-4.818-2.529 4.585-2.914.233 5.443z" fill="#FFED00"/><path fill-rule="evenodd" clip-rule="evenodd" d="M195.421 93.087l-4.6 2.907-.219-5.435 4.819 2.528z" fill="#F39200"/><path fill-rule="evenodd" clip-rule="evenodd" d="M200.233 95.62l-4.606 2.916-.206-5.45 4.812 2.533z" fill="#787FBD"/><path fill-rule="evenodd" clip-rule="evenodd" d="M200.012 90.163l-4.591 2.924-.233-5.443 4.824 2.52z" fill="#E94792"/><path fill-rule="evenodd" clip-rule="evenodd" d="M195.422 93.087l4.589-2.918.223 5.45-4.812-2.532z" fill="#64B6E7"/><path fill-rule="evenodd" clip-rule="evenodd" d="M190.82 95.99l4.601-2.903.206 5.45-4.807-2.546z" fill="#93C461"/><path fill-rule="evenodd" clip-rule="evenodd" d="M195.421 93.087l-4.818-2.529 4.585-2.914.233 5.443z" fill="#FFED00"/><path d="M205.358 89.528l-1.907 2.15-1.779-1.579.243-.275 1.521 1.35.589-.665-1.521-1.348.244-.275 1.52 1.349.589-.664-1.52-1.349.243-.274 1.779 1.578-.001.002zM206.868 87.824l-.891-.136a.931.931 0 0 0-.279-.015c-.058.011-.119.052-.184.126l-.201.225.769.683-.243.274-1.779-1.578.243-.275.744.66.183-.207c.064-.072.097-.136.1-.196a.956.956 0 0 0-.044-.279l-.235-.825.278-.313.267.961c.05.207.064.352.043.438a.399.399 0 0 1 .172-.045c.069-.002.165.007.295.028l1.031.16-.275.31.006.004zM206.021 85.698c-.02-.334.081-.624.303-.875a1.17 1.17 0 0 1 .835-.408c.334-.02.626.083.877.305.252.223.388.5.408.835.02.334-.082.626-.305.877a1.164 1.164 0 0 1-.833.406 1.169 1.169 0 0 1-.877-.305 1.17 1.17 0 0 1-.408-.835zm1.144-.933a.822.822 0 0 0-.584.286.811.811 0 0 0-.212.612c.016.229.118.428.303.592a.848.848 0 0 0 .626.231.805.805 0 0 0 .58-.285.84.84 0 0 0-.087-1.208.842.842 0 0 0-.626-.228zM208.509 83.415l.822 1.637-.268.302-1.128-2.313.142-.16 2.423.853-.267.302-1.724-.621zM210.715 82.689l.254.518-.268.301-1.128-2.312.142-.16 2.423.852-.268.302-.54-.194-.615.693zm-.571-1.13l.396.801.446-.502-.842-.298zM197.583 83.58c-.845.952-.794 2.166.101 2.96.839.744 1.967.708 2.795-.092l.532 2.15 1.009-1.138-.835-3.102a2.107 2.107 0 0 0-.651-1.03c-.898-.796-2.101-.706-2.951.252zm2.124 1.884c-.29.327-.77.42-1.147.085-.378-.335-.343-.822-.052-1.149.295-.333.763-.425 1.147-.085.383.34.347.816.052 1.149zM200.417 82.476l1.545-1.742.612 1.228-.349.393.61 1.226.349-.393.945 1.895.931-1.049-.945-1.896.385-.434-.612-1.224-.383.432-.693-1.387-.828-.734-2.519 2.84.952.845zM204.931 75.468l-2.521 2.842.952.845 1.546-1.743.611 1.228-.347.392.61 1.226.347-.391.945 1.895.931-1.049-.945-1.896.385-.434-.61-1.226-.385.434-.691-1.389-.828-.734z" fill="#fff"/><path fill-rule="evenodd" clip-rule="evenodd" d="M193.421 146.087l-4.6 2.908-.219-5.436 4.819 2.528z" fill="#F39200"/><path fill-rule="evenodd" clip-rule="evenodd" d="M198.233 148.619l-4.606 2.917-.206-5.449 4.812 2.532z" fill="#FDD400"/><path fill-rule="evenodd" clip-rule="evenodd" d="M198.012 143.163l-4.591 2.924-.233-5.443 4.824 2.519z" fill="#E94591"/><path fill-rule="evenodd" clip-rule="evenodd" d="M193.422 146.087l4.589-2.918.223 5.45-4.812-2.532z" fill="#C52D88"/><path fill-rule="evenodd" clip-rule="evenodd" d="M188.82 148.991l4.601-2.904.206 5.449-4.807-2.545z" fill="#3AAA35"/><path fill-rule="evenodd" clip-rule="evenodd" d="M193.421 146.087l-4.818-2.529 4.585-2.914.233 5.443z" fill="#FFED00"/><path fill-rule="evenodd" clip-rule="evenodd" d="M193.421 146.087l-4.6 2.908-.219-5.436 4.819 2.528z" fill="#F39200"/><path fill-rule="evenodd" clip-rule="evenodd" d="M198.233 148.619l-4.606 2.917-.206-5.449 4.812 2.532z" fill="#787FBD"/><path fill-rule="evenodd" clip-rule="evenodd" d="M198.012 143.163l-4.591 2.924-.233-5.443 4.824 2.519z" fill="#E94792"/><path fill-rule="evenodd" clip-rule="evenodd" d="M193.422 146.087l4.589-2.918.223 5.45-4.812-2.532z" fill="#64B6E7"/><path fill-rule="evenodd" clip-rule="evenodd" d="M188.82 148.991l4.601-2.904.206 5.449-4.807-2.545z" fill="#93C461"/><path fill-rule="evenodd" clip-rule="evenodd" d="M193.421 146.087l-4.818-2.529 4.585-2.914.233 5.443z" fill="#FFED00"/><path d="M203.358 142.528l-1.907 2.149-1.779-1.578.243-.275 1.521 1.349.589-.664-1.521-1.348.244-.275 1.52 1.349.589-.664-1.52-1.349.243-.274 1.779 1.578-.001.002zM204.868 140.824l-.891-.136a.927.927 0 0 0-.279-.015c-.058.011-.119.052-.184.126l-.201.225.769.682-.243.275-1.779-1.578.243-.275.744.66.183-.207c.064-.072.097-.136.1-.195a.956.956 0 0 0-.044-.28l-.235-.824.278-.314.267.961c.05.207.064.352.043.438a.397.397 0 0 1 .172-.045c.069-.002.165.006.295.028l1.031.16-.275.309.006.005zM204.021 138.698c-.02-.334.081-.624.303-.875.223-.251.501-.388.835-.408.334-.02.626.083.877.305.252.223.388.501.408.835.02.334-.082.626-.305.877a1.165 1.165 0 0 1-.833.406 1.167 1.167 0 0 1-.877-.305 1.171 1.171 0 0 1-.408-.835zm1.144-.933a.823.823 0 0 0-.584.286.811.811 0 0 0-.212.612.852.852 0 0 0 .303.592.849.849 0 0 0 .626.231.806.806 0 0 0 .58-.285.84.84 0 0 0-.087-1.208.841.841 0 0 0-.626-.228zM206.509 136.415l.822 1.637-.268.302-1.128-2.312.142-.16 2.423.852-.267.302-1.724-.621zM208.715 135.689l.254.517-.268.302-1.128-2.312.142-.16 2.423.853-.268.301-.54-.194-.615.693zm-.571-1.129l.396.8.446-.502-.842-.298zM195.583 136.58c-.845.952-.794 2.166.101 2.96.839.744 1.967.708 2.795-.092l.532 2.149 1.009-1.137-.835-3.102a2.104 2.104 0 0 0-.651-1.03c-.898-.796-2.101-.706-2.951.252zm2.124 1.884c-.29.327-.77.42-1.147.085-.378-.335-.343-.822-.052-1.149.295-.333.763-.425 1.147-.085.383.34.347.816.052 1.149zM198.417 135.476l1.545-1.742.612 1.228-.349.393.61 1.226.349-.393.945 1.895.931-1.049-.945-1.895.385-.435-.612-1.224-.383.432-.693-1.387-.828-.734-2.519 2.841.952.844zM202.931 128.468l-2.521 2.842.952.845 1.546-1.743.611 1.228-.347.392.61 1.226.347-.391.945 1.895.931-1.049-.945-1.896.385-.434-.61-1.226-.385.434-.691-1.389-.828-.734z" fill="#fff"/><path fill-rule="evenodd" clip-rule="evenodd" d="M171.421 184.087l-4.6 2.908-.219-5.436 4.819 2.528z" fill="#F39200"/><path fill-rule="evenodd" clip-rule="evenodd" d="M176.233 186.619l-4.606 2.917-.206-5.449 4.812 2.532z" fill="#FDD400"/><path fill-rule="evenodd" clip-rule="evenodd" d="M176.012 181.163l-4.591 2.924-.233-5.443 4.824 2.519z" fill="#E94591"/><path fill-rule="evenodd" clip-rule="evenodd" d="M171.422 184.087l4.589-2.918.223 5.45-4.812-2.532z" fill="#C52D88"/><path fill-rule="evenodd" clip-rule="evenodd" d="M166.82 186.991l4.601-2.904.206 5.449-4.807-2.545z" fill="#3AAA35"/><path fill-rule="evenodd" clip-rule="evenodd" d="M171.421 184.087l-4.818-2.529 4.585-2.914.233 5.443z" fill="#FFED00"/><path fill-rule="evenodd" clip-rule="evenodd" d="M171.421 184.087l-4.6 2.908-.219-5.436 4.819 2.528z" fill="#F39200"/><path fill-rule="evenodd" clip-rule="evenodd" d="M176.233 186.619l-4.606 2.917-.206-5.449 4.812 2.532z" fill="#787FBD"/><path fill-rule="evenodd" clip-rule="evenodd" d="M176.012 181.163l-4.591 2.924-.233-5.443 4.824 2.519z" fill="#E94792"/><path fill-rule="evenodd" clip-rule="evenodd" d="M171.422 184.087l4.589-2.918.223 5.45-4.812-2.532z" fill="#64B6E7"/><path fill-rule="evenodd" clip-rule="evenodd" d="M166.82 186.991l4.601-2.904.206 5.449-4.807-2.545z" fill="#93C461"/><path fill-rule="evenodd" clip-rule="evenodd" d="M171.421 184.087l-4.818-2.529 4.585-2.914.233 5.443z" fill="#FFED00"/><path d="M181.358 180.528l-1.907 2.149-1.779-1.578.243-.275 1.521 1.349.589-.664-1.521-1.348.244-.275 1.52 1.349.589-.664-1.52-1.349.243-.274 1.779 1.578-.001.002zM182.868 178.824l-.891-.136a.927.927 0 0 0-.279-.015c-.058.011-.119.052-.184.126l-.201.225.769.682-.243.275-1.779-1.578.243-.275.744.66.183-.207c.064-.072.097-.136.1-.195a.956.956 0 0 0-.044-.28l-.235-.824.278-.314.267.961c.05.207.064.352.043.438a.397.397 0 0 1 .172-.045c.069-.003.165.006.295.028l1.031.16-.275.309.006.005zM182.021 176.698c-.02-.334.081-.624.303-.875.223-.251.501-.388.835-.408.334-.02.626.083.877.305.252.223.388.501.408.835.02.334-.082.626-.305.877a1.165 1.165 0 0 1-.833.406 1.167 1.167 0 0 1-.877-.305 1.171 1.171 0 0 1-.408-.835zm1.144-.933a.823.823 0 0 0-.584.286.811.811 0 0 0-.212.612.852.852 0 0 0 .303.592.849.849 0 0 0 .626.231.806.806 0 0 0 .58-.285.84.84 0 0 0-.087-1.208.841.841 0 0 0-.626-.228zM184.509 174.415l.822 1.637-.268.302-1.128-2.312.142-.16 2.423.852-.267.302-1.724-.621zM186.715 173.689l.254.517-.268.302-1.128-2.312.142-.16 2.423.853-.268.301-.54-.194-.615.693zm-.571-1.129l.396.8.446-.502-.842-.298zM173.583 174.58c-.845.952-.794 2.166.101 2.96.839.744 1.967.708 2.795-.092l.532 2.149 1.009-1.137-.835-3.102a2.104 2.104 0 0 0-.651-1.03c-.898-.796-2.101-.706-2.951.252zm2.124 1.884c-.29.327-.77.42-1.147.085-.378-.335-.343-.822-.052-1.149.295-.333.763-.425 1.147-.085.383.34.347.816.052 1.149zM179 173l-.775.355.61 1.226.349-.393.945 1.895.931-1.049-.945-1.895L179 173zM183 171l-.446.713.521 1.049.93-1.049-.505-1.213-.5.5z" fill="#fff"/><path fill-rule="evenodd" clip-rule="evenodd" d="M166.421 213.087l-4.6 2.908-.219-5.436 4.819 2.528z" fill="#F39200"/><path fill-rule="evenodd" clip-rule="evenodd" d="M171.233 215.619l-4.606 2.917-.206-5.449 4.812 2.532z" fill="#FDD400"/><path fill-rule="evenodd" clip-rule="evenodd" d="M171.012 210.163l-4.591 2.924-.233-5.443 4.824 2.519z" fill="#E94591"/><path fill-rule="evenodd" clip-rule="evenodd" d="M166.422 213.087l4.589-2.918.223 5.45-4.812-2.532z" fill="#C52D88"/><path fill-rule="evenodd" clip-rule="evenodd" d="M161.82 215.991l4.601-2.904.206 5.449-4.807-2.545z" fill="#3AAA35"/><path fill-rule="evenodd" clip-rule="evenodd" d="M166.421 213.087l-4.818-2.529 4.585-2.914.233 5.443z" fill="#FFED00"/><path fill-rule="evenodd" clip-rule="evenodd" d="M166.421 213.087l-4.6 2.908-.219-5.436 4.819 2.528z" fill="#F39200"/><path fill-rule="evenodd" clip-rule="evenodd" d="M171.233 215.619l-4.606 2.917-.206-5.449 4.812 2.532z" fill="#787FBD"/><path fill-rule="evenodd" clip-rule="evenodd" d="M171.012 210.163l-4.591 2.924-.233-5.443 4.824 2.519z" fill="#E94792"/><path fill-rule="evenodd" clip-rule="evenodd" d="M166.422 213.087l4.589-2.918.223 5.45-4.812-2.532z" fill="#64B6E7"/><path fill-rule="evenodd" clip-rule="evenodd" d="M161.82 215.991l4.601-2.904.206 5.449-4.807-2.545z" fill="#93C461"/><path fill-rule="evenodd" clip-rule="evenodd" d="M166.421 213.087l-4.818-2.529 4.585-2.914.233 5.443z" fill="#FFED00"/><path d="M176.358 209.528l-1.907 2.149-1.779-1.578.243-.275 1.521 1.349.589-.664-1.521-1.348.244-.275 1.52 1.349.589-.664-1.52-1.349.243-.274 1.779 1.578-.001.002zM177.868 207.824l-.891-.136a.927.927 0 0 0-.279-.015c-.058.011-.119.052-.184.126l-.201.225.769.682-.243.275-1.779-1.578.243-.275.744.66.183-.207c.064-.072.097-.136.1-.195a.956.956 0 0 0-.044-.28l-.235-.824.278-.314.267.961c.05.207.064.352.043.438a.397.397 0 0 1 .172-.045c.069-.003.165.006.295.028l1.031.16-.275.309.006.005zM177.021 205.698c-.02-.334.081-.624.303-.875.223-.251.501-.388.835-.408.334-.02.626.083.877.305.252.223.388.501.408.835.02.334-.082.626-.305.877a1.165 1.165 0 0 1-.833.406 1.167 1.167 0 0 1-.877-.305 1.171 1.171 0 0 1-.408-.835zm1.144-.933a.823.823 0 0 0-.584.286.811.811 0 0 0-.212.612.852.852 0 0 0 .303.592.849.849 0 0 0 .626.231.806.806 0 0 0 .58-.285.84.84 0 0 0-.087-1.208.841.841 0 0 0-.626-.228zM179.509 203.415l.822 1.637-.268.302-1.128-2.312.142-.16 2.423.852-.267.302-1.724-.621zM181.715 202.689l.254.517-.268.302-1.128-2.312.142-.16 2.423.853-.268.301-.54-.194-.615.693zm-.571-1.129l.396.8.446-.502-.842-.298zM168.583 203.58c-.845.952-.794 2.166.101 2.96.839.744 1.967.708 2.795-.092l.532 2.149 1.009-1.137-.835-3.102a2.104 2.104 0 0 0-.651-1.03c-.898-.796-2.101-.706-2.951.252zm2.124 1.884c-.29.327-.77.42-1.147.085-.378-.335-.343-.822-.052-1.149.295-.333.763-.425 1.147-.085.383.34.347.816.052 1.149zM171.417 202.476l1.545-1.742.612 1.228-.349.393.61 1.226.349-.393.945 1.895.931-1.049-.945-1.895.385-.435-.612-1.224-.383.432-.693-1.387-.828-.734-2.519 2.841.952.844zM175.931 195.468l-2.521 2.842.952.845 1.546-1.743.611 1.228-.347.392.61 1.226.347-.391.945 1.895.931-1.049-.945-1.896.385-.434-.61-1.226-.385.434-.691-1.389-.828-.734z" fill="#fff"/></g><defs><clipPath id="clip0"><path fill="#fff" d="M0 0h241.78v237.65H0z"/></clipPath></defs></svg>