<svg width="105" height="238" fill="none" xmlns="http://www.w3.org/2000/svg"><g clip-path="url(#clip0)"><path d="M23.86 152.89s-14.61-.53-16.69 2.6c-2.08 3.13 14.08 73.57 14.08 73.57s.52 1.56 3.66 3.13c3.14 1.57 20.86 4.7 34.43 5.22 8.228.306 16.463-.395 24.52-2.09 0 0 .52.52 3.65-6.78 3.13-7.3 6.83-26.09 6.83-26.09l4.69-34.43-.52-14.09-7.3-1.57-67.35.53z" fill="#C899C6"/><path d="M62.99 160.19s0 53.22-1 63.13c-1 9.91-5.74 14.09-5.74 14.09l17.22-.52s8.34.52 13-4.7c4.66-5.22 9.39-37 9.39-37l2.61-41.22s-5.22-1.57-7.3-1.57-30.83 1.53-28.18 7.79z" fill="#9C73A0"/><path d="M21.77 157.06s6.27 56.87 8.35 66.78l2.09 9.92-7.3-1.57s-3.14-1-5.74-12-12.53-59-12.53-59-2.08-6.78 2.61-6.26c4.69.52 12.52 2.13 12.52 2.13z" fill="#E5CCE4"/><path d="M96.4 189.3a7.651 7.651 0 0 1-1.31-.49 5.008 5.008 0 0 1-2.09-3.26c-.48-1.7 0-3.83.29-6.4a8 8 0 0 0-.61-4.2 6.368 6.368 0 0 0-1.46-1.87 8.003 8.003 0 0 0-2.15-1.27 6.6 6.6 0 0 0-5.491.115 6.602 6.602 0 0 0-3.51 4.225 37.769 37.769 0 0 0-1.3 5.78 11.003 11.003 0 0 1-2.39 5.27 4.326 4.326 0 0 1-2.39 1.4 3.902 3.902 0 0 1-2.74-.52 7.203 7.203 0 0 1-2.16-2.17 15.153 15.153 0 0 1-1.5-2.92 26.671 26.671 0 0 0-3-6.53 6.866 6.866 0 0 0-3-2.45 5.815 5.815 0 0 0-4 0 11.13 11.13 0 0 0-5.55 5.18 54.332 54.332 0 0 1-3.45 6 7.51 7.51 0 0 1-2.33 2.11 6.505 6.505 0 0 1-2.91.84 3.735 3.735 0 0 1-2.63-.83 4.591 4.591 0 0 1-1.34-2.47c-.25-1-.45-2.06-.82-3.07a15.038 15.038 0 0 0-1.37-2.86 11.35 11.35 0 0 0-4.39-4.18c-3.59-1.85-8-1-10.24 1.65a9.203 9.203 0 0 0-1.84 4.37c-.27 1.45-.38 2.81-.63 4a9.905 9.905 0 0 1-1.17 3.21 4.42 4.42 0 0 1-2 1.84 3.77 3.77 0 0 1-3.71-.48c-.69-.59-.73-1.16-.81-1.12-.08.04 0 .13 0 .37.106.377.306.721.58 1a4.002 4.002 0 0 0 4.06.75 4.82 4.82 0 0 0 2.4-2 10.115 10.115 0 0 0 1.36-3.38c.3-1.27.44-2.63.73-4a8.433 8.433 0 0 1 1.73-3.93c2-2.25 5.92-3 9-1.3a10.318 10.318 0 0 1 3.91 3.83c.51.835.926 1.724 1.24 2.65.33.93.5 1.91.77 3a5.779 5.779 0 0 0 1.69 3.09 5.048 5.048 0 0 0 3.48 1.15 7.841 7.841 0 0 0 3.49-1 8.726 8.726 0 0 0 2.72-2.44 54.599 54.599 0 0 0 3.57-6.14 9.798 9.798 0 0 1 4.83-4.56 4.467 4.467 0 0 1 3.12 0 5.622 5.622 0 0 1 2.47 2 25.643 25.643 0 0 1 2.82 6.24 16.313 16.313 0 0 0 1.65 3.15 8.169 8.169 0 0 0 2.57 2.53 5.126 5.126 0 0 0 3.59.66 5.63 5.63 0 0 0 3.05-1.79 9.708 9.708 0 0 0 1.75-2.83c.407-.981.702-2.004.88-3.05a38.3 38.3 0 0 1 1.2-5.62 6.126 6.126 0 0 1 3.11-3.77 6.196 6.196 0 0 1 4.54-.07c.689.25 1.33.611 1.9 1.07.528.439.966.976 1.29 1.58a7.29 7.29 0 0 1 .62 3.77c-.07 1.24-.25 2.42-.31 3.53a8.502 8.502 0 0 0 .26 3 5.17 5.17 0 0 0 2.45 3.37c.337.159.7.254 1.07.28.29-.01.41-.02.41-.04z" fill="#FAFAFA"/><path d="M96.15 194.38a6.005 6.005 0 0 1-1.31-.49 5.005 5.005 0 0 1-2.09-3.26c-.48-1.69 0-3.82.29-6.4a8.002 8.002 0 0 0-.61-4.19 6.236 6.236 0 0 0-1.46-1.87 7.67 7.67 0 0 0-2.15-1.27 6.6 6.6 0 0 0-5.491.115 6.602 6.602 0 0 0-3.51 4.225 37.769 37.769 0 0 0-1.3 5.78 10.858 10.858 0 0 1-2.39 5.27 4.327 4.327 0 0 1-2.39 1.4 4.002 4.002 0 0 1-2.74-.52 7.2 7.2 0 0 1-2.16-2.17 15.147 15.147 0 0 1-1.5-2.92 26.634 26.634 0 0 0-3-6.53 7.006 7.006 0 0 0-3.06-2.45 5.713 5.713 0 0 0-4 0 11.087 11.087 0 0 0-5.53 5.13 54.038 54.038 0 0 1-3.45 6 7.431 7.431 0 0 1-2.33 2.12 6.476 6.476 0 0 1-2.91.84 3.782 3.782 0 0 1-2.63-.83 4.59 4.59 0 0 1-1.34-2.47c-.25-1-.45-2.06-.82-3.07a15.079 15.079 0 0 0-1.37-2.86 11.281 11.281 0 0 0-4.39-4.18c-3.59-1.85-8-1-10.24 1.65a9.258 9.258 0 0 0-1.84 4.37c-.27 1.45-.38 2.8-.63 4a9.763 9.763 0 0 1-1.17 3.2 4.312 4.312 0 0 1-2 1.84 3.757 3.757 0 0 1-1.917.261 3.757 3.757 0 0 1-1.792-.731c-.69-.59-.73-1.16-.81-1.12-.08.04 0 .13 0 .37.115.355.314.678.58.94a4.002 4.002 0 0 0 4.06.76 4.83 4.83 0 0 0 2.4-2 10.115 10.115 0 0 0 1.36-3.38c.3-1.27.44-2.63.73-4a8.53 8.53 0 0 1 1.73-3.93c2-2.26 5.92-3 9-1.3a10.326 10.326 0 0 1 3.91 3.83c.509.835.925 1.724 1.24 2.65.33.93.5 1.91.77 3a5.84 5.84 0 0 0 1.69 3.09 5.102 5.102 0 0 0 3.48 1.15 7.8 7.8 0 0 0 3.49-1 8.727 8.727 0 0 0 2.72-2.44 52.39 52.39 0 0 0 3.57-6.15 9.828 9.828 0 0 1 4.83-4.55 4.467 4.467 0 0 1 3.12 0 5.622 5.622 0 0 1 2.47 2 25.579 25.579 0 0 1 2.82 6.23 16.09 16.09 0 0 0 1.65 3.16 8.276 8.276 0 0 0 2.57 2.53 5.187 5.187 0 0 0 3.59.66 5.59 5.59 0 0 0 3.05-1.8 9.526 9.526 0 0 0 1.75-2.82c.409-.98.707-2.003.89-3.05.25-1.901.648-3.78 1.19-5.62a6.1 6.1 0 0 1 3.11-3.77 6.196 6.196 0 0 1 4.54-.07c.688.25 1.33.612 1.9 1.07.529.437.967.974 1.29 1.58a7.291 7.291 0 0 1 .73 3.8c-.07 1.24-.25 2.42-.31 3.52a8.549 8.549 0 0 0 .26 3 5.169 5.169 0 0 0 2.45 3.37c.336.159.699.254 1.07.28.22.06.34.05.34.02z" fill="#FAFAFA"/><path d="M96.15 199.08a6.662 6.662 0 0 1-1.31-.49 5.006 5.006 0 0 1-2.09-3.26c-.48-1.7 0-3.82.29-6.4a8.001 8.001 0 0 0-.61-4.19 6.282 6.282 0 0 0-1.46-1.88 7.429 7.429 0 0 0-2.15-1.26 6.6 6.6 0 0 0-5.491.115 6.602 6.602 0 0 0-3.509 4.225 37.36 37.36 0 0 0-1.3 5.77 10.778 10.778 0 0 1-2.39 5.27 4.412 4.412 0 0 1-2.39 1.41 3.921 3.921 0 0 1-2.74-.53 7.2 7.2 0 0 1-2.16-2.17 15.077 15.077 0 0 1-1.5-2.91 26.29 26.29 0 0 0-3-6.53 6.887 6.887 0 0 0-3.06-2.45 5.758 5.758 0 0 0-4 0 11.15 11.15 0 0 0-5.53 5.14 54.023 54.023 0 0 1-3.45 6 7.512 7.512 0 0 1-2.33 2.11 6.482 6.482 0 0 1-2.91.85 3.782 3.782 0 0 1-2.63-.83 4.632 4.632 0 0 1-1.34-2.47 31.131 31.131 0 0 0-.82-3.07 14.862 14.862 0 0 0-1.37-2.87 11.42 11.42 0 0 0-4.39-4.18 8.558 8.558 0 0 0-10.17 1.71 9.29 9.29 0 0 0-1.84 4.38c-.27 1.44-.38 2.8-.63 4a9.763 9.763 0 0 1-1.17 3.2 4.36 4.36 0 0 1-2 1.84 3.786 3.786 0 0 1-3.71-.47c-.69-.6-.73-1.16-.81-1.13-.08.03 0 .13 0 .38a2.4 2.4 0 0 0 .58.94 4.002 4.002 0 0 0 4.06.76 4.829 4.829 0 0 0 2.4-2 10.093 10.093 0 0 0 1.36-3.39c.3-1.27.44-2.63.73-4a8.441 8.441 0 0 1 1.73-3.93c2-2.26 5.92-3 9-1.3a10.373 10.373 0 0 1 3.91 3.82c.509.835.925 1.724 1.24 2.65.33.94.5 1.92.77 3 .23 1.18.82 2.26 1.69 3.09a4.999 4.999 0 0 0 3.49 1.16 7.787 7.787 0 0 0 3.49-1 8.844 8.844 0 0 0 2.72-2.44 54.057 54.057 0 0 0 3.57-6.15 9.893 9.893 0 0 1 4.83-4.56 4.467 4.467 0 0 1 3.12 0 5.622 5.622 0 0 1 2.47 2 25.406 25.406 0 0 1 2.82 6.23 16.313 16.313 0 0 0 1.65 3.15 8.276 8.276 0 0 0 2.57 2.53 5.126 5.126 0 0 0 3.59.66 5.52 5.52 0 0 0 3.05-1.79 9.451 9.451 0 0 0 1.75-2.83c.406-.964.705-1.97.89-3 .25-1.901.649-3.78 1.19-5.62a6.1 6.1 0 0 1 3.11-3.77 6.201 6.201 0 0 1 4.54-.08 6.915 6.915 0 0 1 1.9 1.07c.525.442.962.978 1.29 1.58a7.29 7.29 0 0 1 .62 3.77c-.07 1.25-.25 2.43-.31 3.53a8.57 8.57 0 0 0 .26 3.05 5.142 5.142 0 0 0 2.45 3.36c.334.166.698.264 1.07.29.25-.06.37-.07.37-.09z" fill="#FAFAFA"/><path d="M29.12 158.93s-17.61-27.74-21.13-36.74c-3.52-9-9-38.74-7.82-43.44l5.08 7.83 11.35 18 9 15.65s.39-20 2.74-29.35c2.35-9.35 6.26-21.13 6.26-21.13l5.48 15.26s9.78 20.74 10.17 21.92c.39 1.18 10.57 18.78 10.57 18.78l13.69-20.35 5.83-11.78 1.18 13.7-.79 8.61L95.6 93.97l7-15.26s3.13 36.78-1.18 49.31c-4.31 12.53-12.82 28.17-12.82 28.17s-7.83 1.57-16.83 3.13c-9 1.56-32.47.78-32.47.78l-10.18-1.17z" fill="#449B62"/><path d="M15.82 18.84l-2.35 32.48.78 40.7 2.35 12.52 9 15.65s.78-20 2.74-29.35a183.885 183.885 0 0 1 6.26-21.13l7 18.78 14.91 29.7 4.31 7.44 13.69-20.35 5.83-11.7 1.18 9.78-.79 12.53 8.61-12.53 3.92-5.08-4.7-61.44-2-11.74-5.47 13.31L67.86 65.8l-9 18.78-5.87 13.7s-4.69-21.92-9-29.35c-.47-.82-1-1.69-1.6-2.6-4.74-7.36-12.48-17-12.48-17S17.34 24.32 15.82 18.84z" fill="#70BD84"/><path d="M63.56 1.19s-6.65 4.7-10.57 9.79c-3.92 5.09-9 19.17-9 19.17l-1.56 15.26 1.17 21.91s2.35 4.7 4.31 9.79c1.96 5.09 5.08 21.13 5.08 21.13l10.57-24.66 8.61-16-5.09-31.69-3.52-24.7z" fill="#98CCA1"/><path opacity=".37" d="M63.56 1.19a27.998 27.998 0 0 0-4.31 7.83c-1.17 3.91.39 11 1.18 16 .71 4.925.84 9.915.39 14.87-.39 4.7-2.74 12.52-3.13 13.7-.39 1.18-5.48 14.09-6.65 14.87-1.17.78-3.13 6.26-3.13 6.26a199.527 199.527 0 0 0-11.74-17.53c-6.26-8.22-15.26-24.65-15.26-24.65l-5.09-14.48a162.648 162.648 0 0 0 6.26 27.39c4.69 14.48 7 24.26 4.3 33.26-2.7 9-10.56 21.13-10.56 21.13l.78 4.31 8.61 15.65 2.35 14.09s.78 3.91-5.87-3.13-15.26-25-15.26-25a52.348 52.348 0 0 0 1.56 14.09c2 8.22 10.57 23.48 10.57 23.48l10.17 14.86s24.65 3.52 32.09 2.34c7.44-1.18 24.26-2.73 24.26-2.73l3.13-1.18s9.78-16.82 11.35-22.3c1.57-5.48 3.52-14.87 4.3-20 .78-5.13-.39-21.91-.39-21.91l-1.13-11.74s-.79 13.3-1.18 18c-.39 4.7-5.08 20.74-6.26 25.43-1.18 4.69-13.69 14.48-16.43 10.18l2.74-18 12.13-18.79-5.87-73.56-3.52 7.43s1.17 3.92 1.56 13.31c.39 9.39-2.35 22.3-4.3 27.78a213.53 213.53 0 0 1-8.61 19.57c-2.74 5.47-11 18.78-14.09 18.39-3.09-.39-3.91-1.57-3.91-1.57s-2.74-8.61-1.57-9.39c1.17-.78 12.13-27.39 14.48-32.09 2.35-4.7 3.13-7.82 3.91-9 .78-1.18-.39-23.47-3.13-29.34-2.74-5.87-5.12-25.05-4.73-27.83z" fill="#2F6BB3"/><path d="M30.23 158.98a16.79 16.79 0 0 0-2-2.83l-1.12-1.47-1.27-1.79c-.9-1.29-2-2.71-3.05-4.39l-1.71-2.6c-.59-.9-1.14-1.88-1.74-2.88-1.24-2-2.4-4.17-3.66-6.46a142.229 142.229 0 0 1-6.94-15.52 142.445 142.445 0 0 1-4.88-16.29c-.55-2.56-1.11-5-1.46-7.28-.19-1.15-.41-2.25-.55-3.32l-.41-3.08c-.29-2-.4-3.75-.56-5.32l-.21-2.19-.1-1.84a17.73 17.73 0 0 0-.35-3.44 17.81 17.81 0 0 0-.16 3.46v1.85c0 .68.06 1.42.1 2.21.09 1.58.14 3.38.38 5.37l.32 3.11c.12 1.08.32 2.2.48 3.36.31 2.33.84 4.79 1.35 7.37a132.034 132.034 0 0 0 4.83 16.48 132.224 132.224 0 0 0 7.11 15.64c1.3 2.29 2.5 4.5 3.79 6.46.64 1 1.21 2 1.83 2.86l1.79 2.57c1.11 1.66 2.26 3.06 3.23 4.31.48.62.93 1.21 1.36 1.73l1.22 1.4a17.447 17.447 0 0 0 2.38 2.52zM34.17 159a18.597 18.597 0 0 0-.93-3.49l-.57-1.83-.6-2.21c-.41-1.59-1-3.38-1.38-5.4l-.73-3.16c-.25-1.1-.43-2.26-.67-3.45-.49-2.38-.82-5-1.22-7.65a146.843 146.843 0 0 1-1.11-17.7 147.72 147.72 0 0 1 1.21-17.69c.41-2.7.75-5.27 1.26-7.65.24-1.19.43-2.35.69-3.44l.74-3.16c.43-2 1-3.8 1.42-5.39l.61-2.21.58-1.83a19.843 19.843 0 0 0 1-3.48 18.143 18.143 0 0 0-1.43 3.31l-.7 1.81c-.24.67-.46 1.4-.72 2.19-.49 1.57-1.12 3.35-1.61 5.37l-.84 3.16c-.28 1.1-.49 2.26-.76 3.46-.56 2.38-.94 5-1.39 7.69a136.001 136.001 0 0 0-1.33 17.85c.02 5.977.431 11.947 1.23 17.87.43 2.72.81 5.31 1.35 7.7.26 1.19.47 2.36.75 3.46l.81 3.16c.49 2 1.1 3.81 1.59 5.38.25.79.47 1.53.7 2.19l.68 1.82a19.696 19.696 0 0 0 1.37 3.32z" fill="#046930"/><path d="M25.98 121.04c.16-.08-1-2.58-3.12-6.52-2.12-3.94-5.15-9.3-8.71-15.1-3.56-5.8-7-11-9.54-14.6-2.54-3.6-4.27-5.83-4.4-5.73-.13.1 1.27 2.46 3.63 6.24l9.2 14.77 9 14.87c2.3 3.82 3.78 6.16 3.94 6.07zM61.64 126.66c.17-.11-1.65-3.14-4.46-8.1-2.81-4.96-6.56-11.88-10.3-19.72-3.74-7.84-6.74-15.13-8.81-20.44-2.07-5.31-3.29-8.63-3.48-8.57.08.83.265 1.647.55 2.43.43 1.55 1.13 3.75 2.06 6.46a205.966 205.966 0 0 0 19.19 40.31c1.51 2.43 2.78 4.37 3.71 5.67a9.35 9.35 0 0 0 1.54 1.96z" fill="#046930"/><path d="M80.5 93.27c-.22-.09-1.77 3.73-5 9.52-.81 1.45-1.71 3-2.75 4.69-1.04 1.69-2.13 3.42-3.31 5.28-2.41 3.68-5.12 7.68-8 11.91a193.81 193.81 0 0 0-7.64 12.17c-1.07 1.94-2.12 3.76-3 5.54-.44.89-.88 1.73-1.26 2.56l-1 2.42c-.7 1.52-1.17 3-1.62 4.22-.22.62-.44 1.2-.61 1.75l-.41 1.5a12.385 12.385 0 0 0-.62 2.84c.24.07 1.32-3.92 4.1-9.94l1.11-2.35c.4-.81.86-1.64 1.31-2.5.87-1.74 1.95-3.53 3-5.43 2.25-3.77 4.87-7.83 7.69-12 2.82-4.17 5.51-8.26 7.87-12 1.16-1.88 2.27-3.65 3.24-5.37.97-1.72 1.85-3.31 2.62-4.8.77-1.49 1.41-2.86 2-4.06.28-.61.54-1.16.76-1.69l.57-1.45c.421-.898.74-1.84.95-2.81z" fill="#046930"/><path d="M80.22 93.88s.22.13.45.46a3.16 3.16 0 0 1 .38 1.76c-.05 1.67-.06 4.11-.18 7.1 0 1.5-.16 3.14-.23 4.9-.07 1.76-.25 3.64-.46 5.61-.37 3.94-.93 8.26-1.72 12.77a172.68 172.68 0 0 1-5.56 22.71c-1.82 5.72-3.15 9.2-3 9.28.498-.726.902-1.512 1.2-2.34.35-.77.75-1.72 1.19-2.83.44-1.11.95-2.39 1.44-3.81a136.88 136.88 0 0 0 6-22.8c.79-4.54 1.32-8.91 1.62-12.89.19-2 .24-3.88.35-5.65.11-1.77.1-3.43.08-4.94 0-3-.14-5.45-.24-7.14a3.08 3.08 0 0 0-.69-1.91c-.34-.33-.63-.31-.63-.28z" fill="#046930"/><path d="M80.9 93.38c-.23 0-.32 3.23-1.81 8.17-.892 2.885-1.998 5.699-3.31 8.42-1.47 3.08-3.28 6.38-5.26 9.81-4 6.87-7.54 13.12-10.05 17.67-2.51 4.55-4 7.43-3.84 7.52.16.09 1.91-2.61 4.63-7.05 2.72-4.44 6.41-10.61 10.39-17.49 2-3.44 3.79-6.8 5.22-10a52.87 52.87 0 0 0 3.11-8.68 34.16 34.16 0 0 0 1-6.14 7.343 7.343 0 0 0-.08-2.23zM102.59 77.61c-.22-.06-.94 2.55-2.69 6.54-.85 2-2 4.31-3.4 6.84-1.4 2.53-3 5.22-4.84 8-3.6 5.61-6.93 10.7-9 14.56-2.07 3.86-3.16 6.38-3 6.45.16.07 1.49-2.29 3.81-6 2.32-3.71 5.74-8.69 9.36-14.33 1.8-2.83 3.43-5.59 4.8-8.17a64.681 64.681 0 0 0 3.2-7.06c.42-1 .69-2 1-2.82.239-.71.433-1.435.58-2.17.165-.599.226-1.22.18-1.84z" fill="#046930"/><path d="M88.61 156.32a14.13 14.13 0 0 0 1.7-2.68c1-1.76 2.46-4.34 4.12-7.59 1.968-3.804 3.701-7.725 5.19-11.74a70.348 70.348 0 0 0 3.72-15.29c.661-5.209.932-10.46.81-15.71-.07-4.83-.36-9.16-.61-12.79-.25-3.63-.53-6.57-.74-8.59a15.066 15.066 0 0 0-.45-3.14 14.3 14.3 0 0 0-.05 3.17c.07 2 .18 5 .32 8.61.14 3.61.32 8 .33 12.75.05 5.191-.25 10.379-.9 15.53-1.35 11-5.43 20.25-8.49 26.8-1.58 3.27-2.85 5.92-3.74 7.75a14.634 14.634 0 0 0-1.21 2.92zM56.59 119.01c-.007-.671-.07-1.34-.19-2-.17-1.31-.44-3.24-.84-5.72-.81-5-2.1-12.1-4.11-20.86-1.05-4.36-2.1-9.17-3.77-14.22a45.593 45.593 0 0 0-3.26-7.58 65.18 65.18 0 0 0-4.72-7.35c-3.51-4.82-7.55-9.55-10.93-15a94.673 94.673 0 0 1-8.73-17.78c-.59-1.59-1.12-3.19-1.62-4.79l-.7-2.41-.5-1.87-.61-2.49-.59-2.36-.15-.59-.07-.3c0-.07-.06-.29-.06-.09l-.12 1.23-.48 4.9-.29 3.05-.2 2.41c-.54 6.44-.93 12.66-1.16 18.59-.47 11.87-.39 22.57-.05 31.54.34 8.97.88 16.22 1.36 21.21.22 2.5.46 4.44.61 5.75.046.675.154 1.344.32 2 .05-.666.05-1.334 0-2l-.39-5.77c-.32-5-.74-12.24-.94-21.2-.2-8.96-.2-19.63.33-31.46.26-5.91.67-12.11 1.23-18.53l.21-2.42.17-1.82.14.56.71 2.45c.51 1.62 1 3.25 1.64 4.86a94.898 94.898 0 0 0 8.88 18c3.46 5.52 7.55 10.28 11 15a66.852 66.852 0 0 1 4.71 7.24 46.272 46.272 0 0 1 3.24 7.38c1.68 5 2.79 9.75 3.89 14.09 2.12 8.7 3.55 15.81 4.51 20.73l1.08 5.67c.089.663.24 1.315.45 1.95z" fill="#046930"/><path d="M92.1 97.92l-.07-.09c-.07-.09-.26 0-.29.18a.711.711 0 0 0 0 .56.36.36 0 0 0 .38.18.64.64 0 0 0 .4-.2c.47-.48.37-1.25.35-2l-.09-2.68c-.16-4.05-.44-9.89-.85-17.11-.41-7.22-1-15.82-1.65-25.36-.36-4.77-.74-9.77-1.14-15-.213-2.593-.426-5.23-.64-7.91l-.16-2.74-.17-2-.09-1v-.89a.131.131 0 0 1 0-.05v.06c-.84 2.1-1.68 4.22-2.52 6.36-4.15 10.18-9 19.53-13.3 28-4.3 8.47-8.27 16.2-11.23 22.81a168.018 168.018 0 0 0-6.32 16c-.65 1.91-1.05 3.44-1.35 4.46a6.76 6.76 0 0 0-.37 1.58c.258-.477.466-.98.62-1.5.39-1 .85-2.49 1.58-4.38 1.41-3.78 3.61-9.19 6.68-15.73 3.07-6.54 7-14.17 11.45-22.64 4.45-8.47 9.27-17.84 13.45-28.1.73-1.86.45-1.14.51-1.29l.1 1.25.67 7.9c.42 5.19.83 10.19 1.21 14.95.73 9.53 1.38 18.12 1.93 25.33.55 7.21 1 13 1.26 17.07l.22 2.68c.07.77.15 1.45-.16 1.8-.15.16-.35.22-.42.09a.55.55 0 0 1-.09-.42c-.09-.31.11-.13.1-.17z" fill="#046930"/><path d="M70.96 58.99c.152-.425.24-.87.26-1.32a31.43 31.43 0 0 0 .37-3.86 64.207 64.207 0 0 0-1.05-14.21c-1-5.95-2.76-12.88-4.41-20.61a102.988 102.988 0 0 1-1.87-12.21c-.09-1.07-.2-2.14-.2-3.22l-.05-2.06V.04l-.09.06-1.39.91-.92.6c-.24.16-.48.3-.71.48l-1.37 1c-.46.34-.88.74-1.32 1.12-.44.38-.88.76-1.29 1.17a42.997 42.997 0 0 0-8 10.84 54.34 54.34 0 0 0-4.58 11.76 68.53 68.53 0 0 0-1.92 11.21c-.31 3.53-.38 6.83-.35 9.84.07 6 .49 10.86.8 14.21.15 1.67.29 3 .4 3.84.023.451.1.898.23 1.33a4.683 4.683 0 0 0 0-1.35c0-.88-.09-2.18-.16-3.86-.14-3.35-.43-8.19-.38-14.17 0-3 .15-6.26.51-9.74a68.586 68.586 0 0 1 2-11 54.182 54.182 0 0 1 4.47-11.43 41.929 41.929 0 0 1 7.82-10.5 14.69 14.69 0 0 1 1.23-1.17c.42-.36.83-.75 1.27-1.08l1.32-1c.22-.17.45-.32.68-.47l.34-.22.14-.09v1.25c0 1.11.11 2.2.2 3.29.413 4.154 1.08 8.278 2 12.35 1.73 7.76 3.61 14.64 4.68 20.52a71.42 71.42 0 0 1 1.45 14c0 1.67-.1 3-.12 3.84a5.8 5.8 0 0 0 .01 1.41z" fill="#046930"/><path d="M50.34 69.11a9.672 9.672 0 0 0 1.46-2.21c.84-1.49 2-3.64 3.32-6.41a80.352 80.352 0 0 0 3.89-10 56.005 56.005 0 0 0 2.45-12.95 45.91 45.91 0 0 0-.11-6.86c-.2-2.21-.58-4.3-.94-6.28a55.544 55.544 0 0 1-1.31-10.47 20.478 20.478 0 0 1 1.11-6.95c.56-1.57 1.06-2.37 1-2.43a5.998 5.998 0 0 0-1.44 2.24 18.74 18.74 0 0 0-1.56 7.12 51.085 51.085 0 0 0 1 10.7c.33 2 .68 4 .86 6.19a47.54 47.54 0 0 1 .07 6.66c-.58 9.17-3.56 17.11-5.88 22.66-2.32 5.55-4.08 8.9-3.92 8.99zM58.42 110.28s.28-.14.73-.51a23.643 23.643 0 0 0 1.9-1.68 52.781 52.781 0 0 0 6.11-7.06c4.71-6.38 9.59-16.19 13.89-27.39a84.42 84.42 0 0 0 4.55-16.35c.4-2.446.644-4.914.73-7.39.07-2.33 0-4.49-.08-6.45-.19-3.94-.52-7.1-.78-9.28a17.477 17.477 0 0 0-.56-3.37 16.81 16.81 0 0 0 .05 3.41c.11 2.19.3 5.36.37 9.27a67.943 67.943 0 0 1-.91 13.61 89.32 89.32 0 0 1-4.59 16.1c-4.27 11.12-9 20.91-13.43 27.31a66.908 66.908 0 0 1-5.71 7.25 21.886 21.886 0 0 0-2.27 2.53zM30.63 72.03c.15-.1-.9-2.16-2.72-5.42-1.82-3.26-4.41-7.71-6.88-12.8-1.23-2.54-2.27-5-3.12-7.32-.85-2.32-1.47-4.4-1.94-6.19-.93-3.59-1.29-5.88-1.5-5.85-.21.03-.12 2.35.6 6.05a49.56 49.56 0 0 0 1.71 6.39 68.244 68.244 0 0 0 3.07 7.49 124.41 124.41 0 0 0 7.27 12.71c2.02 3.1 3.35 5.03 3.51 4.94zM55.17 135.19c.13-.24-3-1.42-6.75-5a33.757 33.757 0 0 1-5.58-7.09 75.113 75.113 0 0 1-4.92-10 68.413 68.413 0 0 1-4.49-19.69c-.46-5.19-.44-8.43-.65-8.43a7.703 7.703 0 0 0-.27 2.27c-.08 1.47-.12 3.6 0 6.23a60.401 60.401 0 0 0 4.21 20.11 67.658 67.658 0 0 0 5.1 10.15 31.914 31.914 0 0 0 6 7.13 23.17 23.17 0 0 0 5.21 3.49 6.815 6.815 0 0 0 2.14.83zM26.28 136.91c.15-.16-1.9-2.22-4.85-5.84-.73-.91-1.53-1.91-2.32-3-.79-1.09-1.64-2.31-2.52-3.58a90.724 90.724 0 0 1-5-8.68 88.783 88.783 0 0 1-3.88-9.23c-.49-1.46-1-2.85-1.33-4.17-.33-1.32-.72-2.55-1-3.68-1.11-4.54-1.5-7.42-1.72-7.4a6.83 6.83 0 0 0 0 2.06c0 .66.12 1.46.27 2.39.15.93.26 2 .52 3.15s.49 2.43.85 3.77c.36 1.34.78 2.77 1.24 4.27a77.427 77.427 0 0 0 3.85 9.42 76.662 76.662 0 0 0 5.17 8.77c.91 1.28 1.76 2.5 2.65 3.57.89 1.07 1.69 2.08 2.48 3 .79.92 1.53 1.65 2.19 2.33.66.68 1.24 1.22 1.74 1.66 1.03.8 1.6 1.25 1.66 1.19zM102.131 81.91c-.21 0-.31 3.58-.87 9.31a145.35 145.35 0 0 1-3.92 22.14 90.448 90.448 0 0 1-3.77 11.76 49.196 49.196 0 0 1-4.64 8.88 34.626 34.626 0 0 1-4.27 5.25c-1.13 1.14-1.8 1.74-1.73 1.82a7.644 7.644 0 0 0 2.07-1.45 27.922 27.922 0 0 0 4.68-5.09 45.018 45.018 0 0 0 5-9 81.648 81.648 0 0 0 3.92-11.89c1.899-7.332 3.085-14.83 3.54-22.39.17-2.9.19-5.25.16-6.87a9.982 9.982 0 0 0-.17-2.47z" fill="#046930"/><path d="M99.07 154.69a18.12 18.12 0 0 0-3.49.51c-1.11.22-2.48.48-4.06.74-1.58.26-3.39.61-5.39.89-2 .28-4.19.64-6.56.91-2.37.27-4.88.55-7.54.81-5.33.46-11.2.79-17.37.85-6.17.06-12-.21-17.37-.59-2.66-.22-5.2-.41-7.56-.7-2.36-.29-4.56-.53-6.57-.81-2.01-.28-3.81-.57-5.4-.81-1.59-.24-3-.47-4.07-.67a18.684 18.684 0 0 0-3.5-.47c1.098.445 2.237.78 3.4 1 1.1.27 2.46.59 4 .89 1.54.3 3.39.7 5.4 1 2.01.3 4.2.69 6.57 1 2.37.31 4.92.57 7.59.83 5.36.45 11.27.73 17.48.7 6.21-.03 12.12-.44 17.47-1 2.67-.3 5.22-.57 7.58-.94 2.36-.37 4.56-.71 6.56-1.07 2-.36 3.8-.75 5.38-1.09 1.58-.34 2.93-.66 4-1a19.222 19.222 0 0 0 3.45-.98zM86.13 232.39a5.541 5.541 0 0 1-.7 1.25 6.36 6.36 0 0 1-3.64 1.74 137.526 137.526 0 0 1-15.45 1.28 141.209 141.209 0 0 1-22.94-1.2 134.446 134.446 0 0 1-13.34-2.47c-2.25-.59-4.78-.91-6.34-2.4a6.42 6.42 0 0 1-1.54-2.94l-1-3.59c-5.25-19.34-9.09-37.08-11.62-50l-1.66-8.7-.66-3.58a24.435 24.435 0 0 1-.47-3 3.38 3.38 0 0 1 .5-2.19 2.31 2.31 0 0 1 1.39-.86 1.85 1.85 0 0 1 1.33.29s0-.13-.25-.29a1.608 1.608 0 0 0-1.12-.26 2.532 2.532 0 0 0-1.65.88 3.709 3.709 0 0 0-.71 2.44c.059 1.03.18 2.055.36 3.07l.56 3.6c.41 2.58.9 5.51 1.48 8.75 2.29 13 6 30.77 11.26 50.15l1 3.62a7.721 7.721 0 0 0 1.89 3.5 8.345 8.345 0 0 0 3.44 1.83c1.2.36 2.35.6 3.51.88a134.19 134.19 0 0 0 36.58 3.4 113.75 113.75 0 0 0 15.52-1.72 6.27 6.27 0 0 0 3.73-2.07c.227-.297.39-.637.48-1 .07-.28.08-.41.06-.41z" fill="#89398D"/><path d="M84.65 233.27s0 .09.05.23a.566.566 0 0 0 .63.26 1.998 1.998 0 0 0 1-.52c.17-.159.321-.337.45-.53.133-.224.24-.462.32-.71l1.33-3.54c.51-1.39 1-3 1.58-4.76 2.8-9.274 4.85-18.758 6.13-28.36 1.58-11.23 2.28-21.47 2.7-28.87.21-3.7.33-6.7.39-8.77a15.242 15.242 0 0 0 0-3.23 15.436 15.436 0 0 0-.47 3.19c-.21 2.07-.47 5.05-.8 8.74-.65 7.38-1.5 17.58-3.07 28.76a221.009 221.009 0 0 1-5.72 28.28c-.52 1.77-.95 3.39-1.39 4.79-.44 1.4-.81 2.61-1.12 3.6a2.293 2.293 0 0 1-1.3 1.67c-.55.15-.66-.31-.71-.23zM24.88 153.61c.07-.32-4.3-1.31-9.7-.57-5.4.74-9.38 2.8-9.22 3.09.16.29 4.19-1.13 9.39-1.8 5.2-.67 9.48-.33 9.53-.72z" fill="#89398D"/><path d="M98.12 154.81s-.05.08 0 .18a.496.496 0 0 0 .38.32 1.277 1.277 0 0 0 1.36-.89 1.25 1.25 0 0 0 0-.68 1.688 1.688 0 0 0-.33-.61 2.35 2.35 0 0 0-1.11-.68 9.672 9.672 0 0 0-2.43-.2c-3.25 0-5.89.26-5.89.62s2.63.67 5.88.69a14.16 14.16 0 0 1 2.14.06c.55.1.84.39.8.55a.892.892 0 0 1-.43.64c-.15.08-.29-.05-.37 0z" fill="#89398D"/></g><defs><clipPath id="clip0"><path fill="#fff" d="M0 0h104.2v237.73H0z"/></clipPath></defs></svg>