<svg width="197" height="105" fill="none" xmlns="http://www.w3.org/2000/svg"><g clip-path="url(#clip0)"><path d="M191.75 72.92a46.827 46.827 0 0 0-1.69-19.19 65.23 65.23 0 0 0-8.13-17.12 21.077 21.077 0 0 0-11.67-7.17c-7.86-1.86-18.84 1-18.84 1s-15.68 7.61-18 18c-2.32 10.39-2 13.6-2 13.6l1.88 12.82-2 .11-13.74.09-7.44 2.24 21.55 2.47s31.45 5.59 31.82 5.72c.37.13 17.43 5.28 17.43 5.28s5.17 1.52 5.48 1.53c.31.01 2.45-.17 2.45-.17l1.49-.4-2.7-4.08-.84-1.13 4.95-13.6z" fill="#287343"/><path d="M183.73 28.94s-4.1-12.7-21.13-19.31a174.248 174.248 0 0 0-31.42-9s-20.57 1.02-24.77 2.59a26.012 26.012 0 0 0-6.92 3.91s-18.65 5.8-26.67 15.09c-8.02 9.29-6.3 17.7-6.3 17.7l.88 17.75s1.68 10.85 1.5 11.34c-.18.49-37.81 9-37.81 9l-28.8 5.86a6.43 6.43 0 0 0-.68 7.74c2.64 4.26 12.12 8 12.12 8s19.37 1.57 19.62 1.66c.25.09 15.06-2.69 15.06-2.69l13.7-4.26 10.3-5.49 11-3.57 15.7-5.21 16-4.55 18.16-.46a4.599 4.599 0 0 0 3.44 1.23c2.48 0 12.79-.16 14.11 0 1.32.16 16.44 2.8 17.67 3.24 1.23.44 13.5 5.64 14.24 5.9a39.735 39.735 0 0 1 4.81 2.82c.65.51 3.28 2.86 3.28 2.86l3.84-8.08 1.48-8.05-.9-8.36-3 .6-.12 5.78-9.15-4.64a135.422 135.422 0 0 0-21.18-5c-9.79-1.27-18.11-2-18.11-2l-12.22.08a33.61 33.61 0 0 1 9.07-23.91c10.11-10.52 23.7-9 23.7-9l9.81 2.1" fill="#A1CFA1"/><path d="M119.83.64s-9.74-1.81-17.42 12.89c-7.68 14.7 6.74 62.69 6.74 62.69s-5.77 1.43-8.38 1.74c-2.61.31-31.52 8.93-31.52 8.93s-26.89 5.43-32.19 4c-5.3-1.43-15.16-2.91-17.24-4.07-2.08-1.16-12.78-3.66-12.78-3.66l25.7-4.61 29-6.72 7.19-2.7s-6.44-34.41 2.05-44.27C79.47 15 91.21 10.05 91.21 10.05l8.35-2.84S114.41-1.7 119.83.64z" fill="#35AC62"/><path d="M130.61 61.38l2.5 11.06s-1.07 1.84.11 2.6c1.18.76 1.62 1.48 3.44 1.23 1.82-.25 14.61.56 15.23.57.62.01 15 3.28 15.84 3.36.84.08 8.5 1.78 9.17 2.23.67.45 7.17 3.79 7.79 3.8.62.01 4.68.84 5.79-1.67a44.3 44.3 0 0 0 2-7.82s.56-3.33-4.15-5.84c-4.71-2.51-17.32-6.79-17.32-6.79l-27-3.39-13.4.66z" fill="#00B7EA"/><path d="M132.3 69.46s-.2 4.08 5.11 4.31c5.31.23 17.06 1.08 23.85 1.84 6.79.76 16.38 4.17 21.41 6.38a32.864 32.864 0 0 0 7.81 2.57s-2.62 3.84-4.33 2.82-14-6.23-14-6.23-14.81-4.3-21.4-4.84c-6.59-.54-14.77.65-17.39-1.32-.95-.77.37-2.54-1.06-5.53z" fill="#0090CA"/><path d="M144.6 71.48s-2.14-.62-2.28-1.78c-.14-1.16.31-2.8 2.32-2.63 2.01.17 2.47 2.4 2.47 2.4l-2.51 2.01zM158.14 70.76s.83-1.92 2-2.18a3.42 3.42 0 0 1 3.36 1c.76 1 .72 3-.65 3.37-1.37.37-4.45.08-4.45-.33a16.883 16.883 0 0 0-.26-1.86zM174.48 75.05s0-1.52 1-1.71c1.2.007 2.377.33 3.41.94.44.29 2.15 1.73.68 2.73-1.47 1-1.89 1.82-2.91 1.18-1.02-.64-2.18-3.14-2.18-3.14z" fill="#224049"/><path d="M1.08 89.22s.85-2.39 4.37-1.77c3.52.62 12.16 4.33 12.16 4.33s17.16 2.58 18 2.47c.84-.11 15.87-1.41 15.87-1.41l13-2.21 11-2.78s-26.68 13.83-38.77 15.13c-12.09 1.3-15.53-.13-15.53-.13l-7-1.87s-4.62-1.71-5.84-2.35c-1.22-.64-8.01-6.16-7.26-9.41z" fill="#0090CA"/><path d="M116.12 2.5s13-3.12 37.48 7.52c24.48 10.64 27.25 19.12 27.25 19.12l2-1.77s-3.82-11.05-15.29-15.41C156.09 7.6 131.51-3.38 116.12 2.5zM190.84 91.08l-4.31-4a10.577 10.577 0 0 0 3.59-2.32c1-1.3 1.93-5.41 2.19-6.15.26-.74-.51-5.56-.51-5.56l.45-3.6s-.36-2.89.47-2.88a14.2 14.2 0 0 0 2.31-.28s1.34 3.82.62 6c-.33 1-.63 10.19-.63 10.19l-4.18 8.6z" fill="#E5F1E0"/><path d="M140.01 4.63c.82 0 12.09 1.82 16.47 9.74 4.38 7.92 3.93 13.85 3.93 13.85l-2.9.36s.9-11.86-7.3-18.36-10.2-5.59-10.2-5.59z" fill="#E5F1E0"/><path d="M131.1 61.55c.27 0 0-3.59 1.55-9a33.623 33.623 0 0 1 4.07-9 32.45 32.45 0 0 1 8.2-8.76 31.989 31.989 0 0 1 5.39-3.11 32.565 32.565 0 0 1 5.51-1.81 31.902 31.902 0 0 1 9.83-.63c5.64.52 8.94 2 9 1.74a7.809 7.809 0 0 0-2.24-1.08 30.43 30.43 0 0 0-6.66-1.6 31 31 0 0 0-10.17.37 32.541 32.541 0 0 0-5.77 1.82 31.42 31.42 0 0 0-5.64 3.23 31.948 31.948 0 0 0-8.46 9.17 32.425 32.425 0 0 0-3.94 9.38 28.505 28.505 0 0 0-.88 6.78c-.068.84.003 1.684.21 2.5z" fill="#255C29"/><path d="M132.98 73.9c.36 0 .35-3-.17-6.58s-1.35-6.43-1.7-6.36c-.35.07-.1 3 .41 6.54s1.1 6.43 1.46 6.4z" fill="#1D1F42"/><path d="M185.53 86.79s.27.12.82.12a5.078 5.078 0 0 0 2.33-.59 5.998 5.998 0 0 0 2.61-2.78 20.113 20.113 0 0 0 1.42-4.77c.25-.98.345-1.992.28-3a5.37 5.37 0 0 0-1.39-3.05 13.343 13.343 0 0 0-2.64-2.2 29.46 29.46 0 0 0-3.08-1.79c-4.38-2.2-9.56-3.52-14.94-4.8a137.218 137.218 0 0 0-28.17-3.42c-3.63 0-6.57 0-8.6.16a14 14 0 0 0-3.14.35c1.042.164 2.098.217 3.15.16 2 0 4.95.08 8.56.26 9.393.425 18.73 1.683 27.9 3.76 5.35 1.27 10.47 2.55 14.7 4.61a27.506 27.506 0 0 1 3 1.67 12.985 12.985 0 0 1 2.47 2 4.316 4.316 0 0 1 1.19 2.44c.07.897.01 1.8-.18 2.68a21.14 21.14 0 0 1-1.18 4.63 5.57 5.57 0 0 1-2.2 2.65 8.267 8.267 0 0 1-2.91.91z" fill="#1D1F42"/><path d="M188.9 85.86a5.52 5.52 0 0 1-2.16.44 7.916 7.916 0 0 1-2.51-.67c-.94-.39-2-1-3.22-1.55a87.001 87.001 0 0 0-40.66-8.38 34.107 34.107 0 0 1-3.55.08 6.836 6.836 0 0 1-2.51-.57c-1.3-.62-1.32-1.63-1.45-1.57-.13.06-.08.23 0 .63.203.59.616 1.084 1.16 1.39a6.88 6.88 0 0 0 2.69.84c1.209.123 2.425.166 3.64.13a101.186 101.186 0 0 1 40.26 8.29c1.22.51 2.31 1 3.34 1.4a7.716 7.716 0 0 0 2.77.49 3.34 3.34 0 0 0 1.72-.51c.38-.23.5-.41.48-.44z" fill="#1D1F42"/><path d="M70.84 77.74a20.46 20.46 0 0 0-.57-3.48c-.42-2.22-1-5.44-1.61-9.44-.61-4-1.11-8.78-1.4-14.11-.14-2.66-.22-5.46-.24-8.36a37.266 37.266 0 0 1 .82-8.82 29.08 29.08 0 0 1 8.89-14.25 48.348 48.348 0 0 1 11.68-7.71c3.63-1.75 6.69-2.92 8.79-3.75 1.12-.365 2.204-.83 3.24-1.39-1.164.19-2.307.494-3.41.91a82.84 82.84 0 0 0-9 3.4 46.548 46.548 0 0 0-12.13 7.65 29.72 29.72 0 0 0-9.33 14.83 38.341 38.341 0 0 0-.83 9.12c0 2.93.14 5.75.32 8.44a136.15 136.15 0 0 0 1.69 14.18c.71 4 1.45 7.21 2 9.4a16.163 16.163 0 0 0 1.09 3.38z" fill="#255C29"/><path d="M182.9 27.66s1.83 3.41-.09-.43c-.09-.27.79 1.16.57.65-.22-1.43-2.19-4.35-3.41-6.09a32.338 32.338 0 0 0-5.22-5.7 37.917 37.917 0 0 0-8.63-5.51 106.771 106.771 0 0 0-11.51-4.53c-4.2-1.44-8.72-2.9-13.6-4.06a69.66 69.66 0 0 0-15.61-2 64.13 64.13 0 0 0-16.76 2.11 22.755 22.755 0 0 0-7.94 3.59 18.222 18.222 0 0 0-5.22 6.69 40.346 40.346 0 0 0-2.66 7.64 59.685 59.685 0 0 0-1.38 7.6 77.071 77.071 0 0 0 1.83 26.45 121.518 121.518 0 0 0 5.45 17c.79 2 1.44 3.46 1.9 4.47.206.53.46 1.038.76 1.52a8.376 8.376 0 0 0-.52-1.62l-1.66-4.55a138.002 138.002 0 0 1-5-17.05 78.2 78.2 0 0 1-1.54-26.11 59.021 59.021 0 0 1 1.4-7.43 38.007 38.007 0 0 1 2.6-7.39 17.003 17.003 0 0 1 4.86-6.22 21.613 21.613 0 0 1 7.49-3.36 63.119 63.119 0 0 1 16.4-2.05 68.9 68.9 0 0 1 15.34 1.88c4.82 1.11 9.33 2.52 13.52 3.92a109.828 109.828 0 0 1 11.46 4.33 38.542 38.542 0 0 1 8.56 5.23 30.759 30.759 0 0 1 8.62 11l-.01.02z" fill="#255C29"/><path d="M105.7 76.85c-.06-.39-7.82.71-17.45 1-9.63.29-17.43-.36-17.47 0 0 .17 1.91.55 5.08.87 8.268.771 16.6.532 24.81-.71 3.15-.5 5.06-1 5.03-1.16zM3.21 83.66a10.4 10.4 0 0 0 2.64-.26c1.69-.25 4.13-.66 7.13-1.21 6-1.08 14.27-2.69 23.38-4.64 9.11-1.95 17.31-3.84 23.23-5.31 3-.73 5.35-1.35 7-1.81.873-.172 1.72-.458 2.52-.85a11.56 11.56 0 0 0-2.64.35c-1.68.31-4.1.79-7.08 1.41l-23.31 4.94-23.28 5c-3 .66-5.38 1.2-7 1.61-.894.138-1.766.397-2.59.77z" fill="#255C29"/><path d="M133.51 74.97c0-.33-6.73-1-15.06-.4s-14.91 2.23-14.84 2.56c.07.33 6.71-.68 14.94-1.26s14.94-.51 14.96-.9z" fill="#255C29"/><path d="M115.35 75.94a3.821 3.821 0 0 0-1.21.14c-.78.14-1.94.35-3.41.69-3 .65-7.2 1.72-12.4 3.21s-11.35 3.36-18.19 5.41c-6.84 2.05-14.37 4.24-22.4 5.87a103.72 103.72 0 0 1-22.94 2.22 67.569 67.569 0 0 1-10-.9c-.78-.1-1.54-.25-2.29-.41-.75-.16-1.47-.29-2.18-.46-1.41-.39-2.79-.68-4.05-1.12l-1.87-.6-1.74-.66c-1.14-.41-2.18-.87-3.19-1.28a10.32 10.32 0 0 0-5.51-1 4.36 4.36 0 0 0-1.94.75 3.07 3.07 0 0 0-1.27 2.07v.31s.11-.42.5-1.08a3.48 3.48 0 0 1 2.77-1.55c3-.5 6.77 2.22 11.95 3.86 1.28.48 2.67.81 4.1 1.23.71.18 1.46.33 2.21.5.75.17 1.52.34 2.32.46 3.354.583 6.746.918 10.15 1 7.797.182 15.589-.54 23.22-2.15 8.13-1.65 15.67-3.91 22.5-6l18.1-5.68c5.16-1.6 9.35-2.8 12.26-3.59a39.488 39.488 0 0 0 4.51-1.24z" fill="#255C29"/><path d="M101.28 77.52c-1.213.21-2.404.528-3.56.95-2.27.68-5.55 1.67-9.62 2.8a294.341 294.341 0 0 1-32.24 7.09 87.847 87.847 0 0 1-18 1.49 69.192 69.192 0 0 1-14.52-2.47c-4.07-1.1-7.32-2.19-9.58-2.89a22.662 22.662 0 0 0-7.08-1.33c0 .08 4.71.95 6.91 1.81 2.2.86 5.43 2.07 9.5 3.3a65.29 65.29 0 0 0 14.71 2.78 84.739 84.739 0 0 0 18.26-1.4 238.632 238.632 0 0 0 32.29-7.5c4-1.25 7.3-2.37 9.52-3.2a19.34 19.34 0 0 0 3.41-1.43z" fill="#255C29"/><path d="M143.81 67.27c0 .09.28 0 .64 0a2.38 2.38 0 0 1 1.36.41 1.598 1.598 0 0 1 .72 1.61 1.863 1.863 0 0 1-1.41 1.56 2 2 0 0 1-1.92-1 1.713 1.713 0 0 1 0-1.8 2.354 2.354 0 0 1 1.1-.89c.34-.14.56-.21.56-.31s-.23-.19-.67-.18a2.412 2.412 0 0 0-1.73.82 2.666 2.666 0 0 0-.3 2.94 3.138 3.138 0 0 0 3.19 1.69 2.719 2.719 0 0 0 1.72-1c.388-.48.621-1.065.67-1.68a2.634 2.634 0 0 0-.39-1.63 2.598 2.598 0 0 0-3-1c-.43.18-.58.41-.54.46zM157.93 70.22c.12.17.95-.48 2.35-.86a2.41 2.41 0 0 1 2.16.36c.33.248.566.6.67 1a1.102 1.102 0 0 1-.32 1 3.553 3.553 0 0 1-2.62.84 2.118 2.118 0 0 1-1.09-.39 1.355 1.355 0 0 1-.52-.78 1.825 1.825 0 0 1 .24-1.47c.22-.29.47-.39.45-.49-.02-.1-.32-.17-.79.11a2.125 2.125 0 0 0-.81 2c.057.554.313 1.07.72 1.45a3.129 3.129 0 0 0 1.63.76 4.34 4.34 0 0 0 1.89-.11 4.004 4.004 0 0 0 1.83-1 2.34 2.34 0 0 0 .63-2.23 3.061 3.061 0 0 0-2.94-2.19 3.779 3.779 0 0 0-1.45.28 4.811 4.811 0 0 0-1.66 1.11c-.3.28-.43.51-.37.61zM177.41 73.22c-.06.08.1.28.4.61.417.416.78.883 1.08 1.39a1.46 1.46 0 0 1-.25 1.88 1.939 1.939 0 0 1-2.4.06 3.075 3.075 0 0 1-1.44-2.29 1.707 1.707 0 0 1 .06-.56c.027-.086.061-.17.1-.25a.57.57 0 0 1 .08-.11c.278-.198.601-.322.94-.36a4.189 4.189 0 0 1 1.7 0c.39.09.55.25.64.2.09-.05 0-.37-.42-.66a3.508 3.508 0 0 0-2-.5 2.75 2.75 0 0 0-1.52.42 1.53 1.53 0 0 0-.39.41c-.08.138-.15.282-.21.43a2.591 2.591 0 0 0-.18 1 4.07 4.07 0 0 0 1.94 3.38 3.45 3.45 0 0 0 2.07.57 3 3 0 0 0 1.86-.86 2.438 2.438 0 0 0 .73-1.75 2.654 2.654 0 0 0-.53-1.49 4.483 4.483 0 0 0-1.55-1.3c-.38-.22-.63-.22-.71-.22z" fill="#1D1F42"/><path d="M174.01 30.57s1.54 0 7.1 5.44 8.48 15.27 8.48 15.27 1.9 9.81 2.65 12.67c.436 1.972.487 4.009.15 6l3.87-1.53-2.41-13.63-8.44-23.28-2.66-4.79-8.74 3.85z" fill="#A1CFA1"/><path d="M192.41 69.93s1.51-14.73-4.5-26.73-8.33-16.26-8.33-16.26l2.38-1.23s14.54 26.05 14.32 42.69c-.02 0-2.05 3.95-3.87 1.53z" fill="#E5F1E0"/><path d="M191.82 72.87a5.25 5.25 0 0 0 .49-1.83c.27-1.7.394-3.42.37-5.14a42.67 42.67 0 0 0-.83-7.61 57.53 57.53 0 0 0-2.65-9 68.614 68.614 0 0 0-3.92-8.49 27.46 27.46 0 0 0-4.68-6.1 17.58 17.58 0 0 0-4.14-3.13c-1.1-.56-1.78-.68-1.8-.61-.02.07.57.38 1.54 1a22.458 22.458 0 0 1 3.74 3.33 29.666 29.666 0 0 1 4.29 6 84.123 84.123 0 0 1 3.75 8.38 65.02 65.02 0 0 1 2.69 8.76 48.491 48.491 0 0 1 1.09 7.39c.27 4.4-.16 7.02.06 7.05z" fill="#255C29"/><path d="M189.87 92.06a7.584 7.584 0 0 0 1.86-2 23.035 23.035 0 0 0 3.26-6.68 45.24 45.24 0 0 0 1.79-10.86 30.27 30.27 0 0 0-.18-6.55c-.34-2.26-.95-4.51-1.51-6.81a155.201 155.201 0 0 0-7.45-23.15c-1.22-2.87-2.35-5.13-3.19-6.66-2.5-4.76-2.92-4.8-3-4.76-.08.04 3.13 6 5.34 11.76a200.518 200.518 0 0 1 7 23.13c.57 2.3 1.17 4.53 1.51 6.68.3 2.086.384 4.197.25 6.3a48.313 48.313 0 0 1-1.48 10.66 26.031 26.031 0 0 1-2.8 6.66 19.197 19.197 0 0 0-1.4 2.28z" fill="#255C29"/><path d="M190.14 91.77s-.06.13 0 .25a.57.57 0 0 0 .63.12l.25-.08-.12-.39a9.919 9.919 0 0 0-1.68-2.95 6.827 6.827 0 0 0-2.24-1.82 2.544 2.544 0 0 0-.91-.26c-.29 0-.39.16-.37.24.02.08.13.13.23.25s.29.31.53.54a20.542 20.542 0 0 1 1.75 1.89c.656.865 1.364 1.69 2.12 2.47l.12-.48c.02.15-.24.15-.31.22z" fill="#255C29"/><path d="M77.06 87.47c-1.173.294-2.315.7-3.41 1.21-2.16.86-5.28 2.14-9.11 3.75-3.83 1.61-8.38 3.59-13.45 5.67-5.07 2.08-10.77 4.13-17 4.71a41.708 41.708 0 0 1-9.1-.22 61.615 61.615 0 0 1-8.38-1.57 35.252 35.252 0 0 1-7.2-2.71 22.652 22.652 0 0 1-5.38-3.87 11.76 11.76 0 0 1-3.07-4.41 5.49 5.49 0 0 1 0-3.93 4.48 4.48 0 0 1 1.53-2c.48-.34.8-.44.78-.5-.02-.06-.35 0-.92.28a4.39 4.39 0 0 0-1.86 2 5.91 5.91 0 0 0-.25 4.35 12.22 12.22 0 0 0 3.1 4.84 22.779 22.779 0 0 0 5.59 4.15 35.56 35.56 0 0 0 7.36 3 61.253 61.253 0 0 0 8.54 1.68c3.107.431 6.253.515 9.38.25 6.46-.61 12.26-2.79 17.33-4.9 5.07-2.11 9.57-4.23 13.37-5.93 3.8-1.7 6.84-3.13 8.94-4.13a19 19 0 0 0 3.21-1.72z" fill="#1D1F42"/><path d="M190.73 91.57a23.08 23.08 0 0 1-3.21.25 17.505 17.505 0 0 1-3.71-.63c-1.42-.38-3-.95-4.81-1.53A252.792 252.792 0 0 0 121.41 78c-3.76-.3-6.8-.45-8.91-.5a16.104 16.104 0 0 0-3.28.05c1.064.264 2.154.415 3.25.45 2.09.21 5.12.5 8.85.92 7.46.82 17.74 2.24 29 4.5 11.26 2.26 21.24 5 28.44 7.12 1.8.52 3.43 1 4.91 1.36 1.268.3 2.567.444 3.87.43a8.508 8.508 0 0 0 2.44-.4c.5-.18.76-.32.75-.36z" fill="#255C29"/><path fill-rule="evenodd" clip-rule="evenodd" d="M114.671 19.762L106 17.254 112.505 11l2.166 8.762z" fill="#F39200"/><path fill-rule="evenodd" clip-rule="evenodd" d="M116.825 28.52l-8.688-2.504 6.534-6.254 2.154 8.758z" fill="#FDD400"/><path fill-rule="evenodd" clip-rule="evenodd" d="M123.352 22.24l-8.68-2.478 6.496-6.28 2.184 8.757z" fill="#E94591"/><path fill-rule="evenodd" clip-rule="evenodd" d="M114.672 19.762l8.671 2.482-6.517 6.276-2.154-8.758z" fill="#C52D88"/><path fill-rule="evenodd" clip-rule="evenodd" d="M106.005 17.25l8.667 2.512-6.535 6.254-2.132-8.766z" fill="#3AAA35"/><path fill-rule="evenodd" clip-rule="evenodd" d="M114.672 19.762L112.505 11l8.663 2.482-6.496 6.28z" fill="#FFED00"/><path fill-rule="evenodd" clip-rule="evenodd" d="M114.671 19.762L106 17.254 112.505 11l2.166 8.762z" fill="#F39200"/><path fill-rule="evenodd" clip-rule="evenodd" d="M116.825 28.52l-8.688-2.504 6.534-6.254 2.154 8.758z" fill="#787FBD"/><path fill-rule="evenodd" clip-rule="evenodd" d="M123.352 22.24l-8.68-2.478 6.496-6.28 2.184 8.757z" fill="#E94792"/><path fill-rule="evenodd" clip-rule="evenodd" d="M114.672 19.762l8.671 2.482-6.517 6.276-2.154-8.758z" fill="#64B6E7"/><path fill-rule="evenodd" clip-rule="evenodd" d="M106.005 17.25l8.667 2.512-6.535 6.254-2.132-8.766z" fill="#93C461"/><path fill-rule="evenodd" clip-rule="evenodd" d="M114.672 19.762L112.505 11l8.663 2.482-6.496 6.28z" fill="#FFED00"/><path d="M130.024 28.176h-4.765v-3.945h.608v3.37h1.472v-3.37h.609v3.37h1.472v-3.37h.608v3.945h-.004zM133.801 28.174l-.812-1.256c-.116-.181-.211-.302-.289-.362-.078-.06-.194-.091-.358-.091h-.501v1.705h-.609v-3.945h.609v1.649h.458c.159 0 .276-.03.353-.091.078-.06.177-.181.298-.363l.764-1.2h.695l-.898 1.39c-.202.29-.366.466-.496.536a.67.67 0 0 1 .246.164c.078.082.173.211.289.397l.937 1.454h-.686v.013zM135.505 24.782a1.929 1.929 0 0 1 1.42-.587c.557 0 1.032.194 1.424.587.393.392.587.867.587 1.424 0 .557-.194 1.032-.587 1.424a1.936 1.936 0 0 1-1.424.587 1.929 1.929 0 0 1-1.42-.587 1.938 1.938 0 0 1-.587-1.424c0-.557.194-1.032.587-1.424zm2.417.392a1.358 1.358 0 0 0-.997-.41c-.393 0-.725.139-.993.41-.267.272-.401.618-.401 1.028 0 .418.134.76.401 1.031.268.272.6.406.993.406s.725-.134.997-.406.406-.613.406-1.031c0-.41-.134-.756-.406-1.028zM141.078 25.356l-1.127 2.822h-.669l1.627-3.945h.354l1.61 3.945h-.669l-1.126-2.822zM144.406 27.294l-.363.884h-.669l1.627-3.945h.354l1.61 3.945h-.669l-.354-.884h-1.536zm.772-1.951l-.557 1.372h1.114l-.557-1.372zM128.845 11.98c-2.111 0-3.561 1.398-3.561 3.384 0 1.86 1.286 3.22 3.19 3.366l-2.081 3.026h2.521l2.931-4.45a3.507 3.507 0 0 0 .561-1.942c0-1.99-1.437-3.384-3.561-3.384zm0 4.709c-.725 0-1.368-.492-1.368-1.33 0-.837.643-1.329 1.368-1.329.738 0 1.368.48 1.368 1.33 0 .85-.63 1.329-1.368 1.329zM133.334 14.28h3.863l-.85 2.11h-.872l-.85 2.107h.871l-1.312 3.259h2.327l1.312-3.259h.962l.846-2.106h-.958l.958-2.387V12.17h-6.297v2.11zM147 12.17h-6.302v2.11h3.863l-.85 2.11h-.868l-.85 2.107h.868l-1.312 3.259h2.326l1.312-3.259h.963l.85-2.106h-.963l.963-2.387V12.17z" fill="#fff"/></g><defs><clipPath id="clip0"><path fill="#fff" d="M0 0h196.87v104.27H0z"/></clipPath></defs></svg>