<svg width="116" height="220" fill="none" xmlns="http://www.w3.org/2000/svg"><g clip-path="url(#clip0)"><path d="M67.79 148.47l.26-22.17s-4.69-3.39-.26-5.74c4.43-2.35 16.18-.26 16.18-.26s6.26 2.09 6.52 3.65c.26 1.56-2.09 2.61-2.09 2.61v22.43l3.13 1.31-.52 1-1.3 1.57-.26 54s5.47 2.61 5.47 3.39c0 .78-.26 1.3-1.3 1.82s-14.61 1.57-14.61 1.57-18.26 0-18.78-1.83c-.52-1.83 4.17-4.17 4.17-4.17l2.09-1 .52-46.44v-7.82s-5.22-1.31.78-3.92z" fill="#A4A3A4"/><path d="M72.75 147.69l-.78-22.44s-3.92-1.82-1.57-4.69c0 0-3.65.52-4.43 2.09-.78 1.57 2.08 3.65 2.08 3.65l-.26 22.17 4.96-.78zM74.58 147.95s-8.09.26-9.4 2.09c-1.31 1.83 1.83 2.35 1.83 2.35l-.52 54.26s-4.7 2.34-5.48 2.87c-.78.53-1.56 1.3-.78 2.34.78 1.04 5.48 1.31 5.48 1.31s-.53-1.57 1.56-2.61a18.575 18.575 0 0 1 3.13-1.31l-.52-57.65s1.57-2.35 3.13-2.61c1.56-.26-.78 1.31 1.57-1.04z" fill="#BBBBBC"/><path d="M81.1 120.04c-.78-.05 4.95.52 7 1.82s3.13-.26 2.35 2.09c-.78 2.35-2.09 2.61-2.09 2.61s-1 20.35-.78 21.39c.22 1.04 3.91 2.35 3.91 2.35l-1.82 2.61-.26 54 5.47 3.39s1.57 1-1.3 1.82c-2.87.82-10.17 1-10.17 1s4.43-.52 2.86-2.09l-1.56-1.56-.26-58.44s4.43-.26.26-2.09l.78-24.26s-.22-4.38-4.39-4.64z" fill="#7A7A7A"/><path opacity=".5" d="M69.62 40.21a32.481 32.481 0 0 1 9.65-1.82c5.74-.27 9.39 1.3 9.65 2.08a3.59 3.59 0 0 1-1 3.13 3.29 3.29 0 0 0-1 1.83l.96 22.39s-.52 1 1.83 4.44c2.35 3.44 20.6 28.69 20.34 29.74-.26 1.05-4.17 5.21-5.74 6.26-1.57 1.05-10.17 3.39-12.78 5-2.61 1.61-17 2.09-20.87 1.31-3.87-.78-16.95-5.22-16.95-5.22s-9.92-6.52-8.61-9.65c1.31-3.13 18.78-20.36 18.78-20.36s6.52-7.82 7.3-10.17c.78-2.35 0-24.78 0-24.78s-4.43-2.57-1.56-4.18z" fill="#A7D1E8"/><path opacity=".5" d="M74.88 42.04c.13.77.26 29 .26 29l-24.26 30-5.74-1.3s12.52-14.09 13.3-14.35c.78-.26 12.74-16.22 12.74-16.22V44.39s-5.47-2.09-1.56-4.18c3.91-2.09 9.65-1.82 9.65-1.82s-4.96.52-4.39 3.65z" fill="#E1EAF0"/><path d="M83.18 71.51l3.13-.26 16.18 24.26-19.31-24z" fill="#E1EAF0"/><path opacity=".5" d="M78.23 24.04S76.88 2.12 53.71 5.25C30.54 8.38 28.88 34.73 28.88 34.73l.53 3.66-3.92-.27s-1-13.56 3.13-19.3 9.65-13.3 19.57-16.43C58.11-.74 71.71.3 75.88 6.82c4.17 6.52 5 10.17 5 10.17l.78 7-3.43.05zM28.14 49.08c0 .78-2.09 7.31-6.52 8.87-4.43 1.56-11 3.65-11 3.65s0 2.35 3.13 4.18c3.13 1.83 9.66 2.61 11.48 2.34 1.82-.27 8.61-1.56 8.09.27-.52 1.83-1.31 2.86-4.18 3.65-2.576.545-5.19.88-7.82 1 0 0-9.65 3.65-7.57 8.09 2.08 4.44 7.57 4.43 7.57 4.43s11.74-.78 12 1.57c.26 2.35-5.22 3.13-5.22 3.13l-9.39.26s-7.83 5.48-3.39 8.35c4.44 2.87 12.78 1.82 12.78 1.82s5.48-.78 5.74.52c.26 1.3-1.83 3.92-3.91 4.18-2.08.26-10.18 1-10.18 1s-8.34 6.78-3.65 8.87c4.69 2.09 16.17.52 16.17.52s1.57 2.61.53 3.13-7.31 2.35-7.31 2.35l-1.82.52-.79 3.13-5 .53 2.17-3.62s-11.74-1.56-11.47-6.78c.27-5.22 7.82-9.91 7.82-9.91s-7.3-1.83-7-7.83c.3-6 6.22-7.48 6.22-7.48s-7.83-2.09-7.83-8.09 8.61-9.39 8.61-9.39S1.79 67.82 5.97 61.82 19.27 54 19.27 54l3.39-3.39.26-1.57 5.22.04z" fill="#A7D1E8"/><path d="M34.14 48.56c-.58.52-6 .52-6 .52s-9.13 0-7.56-2.09l1.56-2.08s0-6 4.7-6.52c4.7-.52 6 2.6 6 2.6l.26 4.44s3.65.78 1.04 3.13zM70.66 39.69a42.002 42.002 0 0 1 8.61-1.3c2.807.083 5.602.418 8.35 1l1.26-10.4s.26-2.87-5.21-3.91a41.11 41.11 0 0 0-9.4-.78s-4.43.52-4.69 2.35c-.26 1.83 1.08 13.04 1.08 13.04z" fill="#DFB474"/><path d="M26.88 38.39a12.501 12.501 0 0 0-1.87 4.43l-.52 2.61s-1-.26-1 1.3a2.25 2.25 0 0 0 1.3 2.09s-5.74.26-4.17-1.83l1.56-2.08s1.53-7.09 4.7-6.52zM77.18 24.3s-4.43 1.3-5 3.39c-.57 2.09.78 11.48.78 11.48l-2.35.52s-2.08-11.22-1-13c1.08-1.78 7.57-2.39 7.57-2.39z" fill="#EFDDC7"/><path d="M82.66 24.82c-.93-.15.26 5.48.26 8.61a19.928 19.928 0 0 1-.52 5l5.22 1 1.26-10.44s0-3.17-6.22-4.17zM28.4 38.65s2.35 1.82 2.61 3.91l.26 2.09c.37.83.633 1.703.78 2.6a9.242 9.242 0 0 1-.26 1.83c2.61-1.3 3.13-2.09 3.13-2.09l-1.82-1.56a8.999 8.999 0 0 0-.26-4.44c-.79-1.82-4.44-2.34-4.44-2.34z" fill="#B2926F"/><path opacity=".5" d="M66.49 79.82s-13.83 13.83-16.18 17c-2.35 3.17-4.17 5.22 2.35 8.61 6.52 3.39 17.22 6.26 31.05 5 13.83-1.26 22.43-5.48 23.21-7 .78-1.52-16.43-23.61-16.43-23.61s-14.87-4.91-24 0z" fill="#F5A05A"/><path d="M73.27 79.82s-4.06-1.93-7 1c-.26.26-9.92 10.43-9.92 10.43s3.92-1.56 6-.26l10.92-11.17zM61.01 94.21a6.06 6.06 0 0 0-5.48-.52c-.78.26-4.69 4.7-4.69 4.7l8.61-.53 1.56-3.65zM80.44 73.33c.79 0 1.43-.524 1.43-1.17 0-.646-.64-1.17-1.43-1.17-.79 0-1.43.524-1.43 1.17 0 .646.64 1.17 1.43 1.17zM81.36 64.99a1.04 1.04 0 1 0 0-2.08 1.04 1.04 0 0 0 0 2.08zM74.7 64.2a.91.91 0 1 0-.001-1.82.91.91 0 0 0 0 1.82zM75.36 57.42a.78.78 0 1 0 0-1.56.78.78 0 0 0 0 1.56zM82.01 53.51a.65.65 0 1 0 0-1.3.65.65 0 0 0 0 1.3zM74.18 71.77a.39.39 0 1 0 0-.78.39.39 0 0 0 0 .78zM85.27 76.99a.78.78 0 1 0 0-1.56.78.78 0 0 0 0 1.56zM76.14 77.51a.52.52 0 1 0 0-1.04.52.52 0 0 0 0 1.04zM84.22 60.55a.78.78 0 1 0 0-1.56.78.78 0 0 0 0 1.56zM75.36 50.9a1.04 1.04 0 1 0 0-2.08 1.04 1.04 0 0 0 0 2.08zM79.92 89.25a.65.65 0 1 0 0-1.3.65.65 0 0 0 0 1.3zM81.49 85.6a.39.39 0 1 0 0-.78.39.39 0 0 0 0 .78zM75.62 84.55a.26.26 0 1 0 0-.52.26.26 0 0 0 0 .52zM70.66 92.12a.78.78 0 1 0 0-1.56.78.78 0 0 0 0 1.56zM82.01 91.6a.39.39 0 1 0 0-.78.39.39 0 0 0 0 .78zM90.22 92.9a.52.52 0 1 0 0-1.04.52.52 0 0 0 0 1.04zM89.96 85.07a.52.52 0 1 0 0-1.04.52.52 0 0 0 0 1.04zM70.66 86.9a.52.52 0 1 0 0-1.04.52.52 0 0 0 0 1.04zM64.27 93.68a.39.39 0 1 0 0-.78.39.39 0 0 0 0 .78zM88.01 104.9a.39.39 0 1 0-.001-.78.39.39 0 0 0 0 .78zM97.27 93.68a.52.52 0 1 0 0-1.04.52.52 0 0 0 0 1.04zM92.57 88.47a.26.26 0 1 0 0-.52.26.26 0 0 0 0 .52z" fill="#EDDACC"/><path d="M109.55 102.65a24.4 24.4 0 0 1-1.71 2.25 24.55 24.55 0 0 1-6.33 4.33 40.91 40.91 0 0 1-10.76 3.76c-2.205.468-4.44.779-6.69.93a58.399 58.399 0 0 1-7.27.1 67.066 67.066 0 0 1-7.24-.72 62.38 62.38 0 0 1-6.63-1.36 41.639 41.639 0 0 1-10.58-4.27 28.724 28.724 0 0 1-6.05-4.74c-.65-.65-1.11-1.19-1.42-1.55-.31-.36-.52-.54-.55-.52-.03.02.08.26.34.67.368.613.786 1.195 1.25 1.74a25.445 25.445 0 0 0 5.95 5.19 39.876 39.876 0 0 0 10.74 4.64 59.99 59.99 0 0 0 6.76 1.46c2.443.401 4.907.655 7.38.76 2.474.126 4.952.086 7.42-.12a46.968 46.968 0 0 0 6.85-1 39.767 39.767 0 0 0 10.94-4.13 22.184 22.184 0 0 0 6.27-4.8 4.996 4.996 0 0 0 1.33-2.62z" fill="#506F8E"/><path d="M71.37 44.72a9.862 9.862 0 0 0-.26 2.58c-.08 1.67-.15 4.08-.22 7.06-.07 2.98-.09 6.52-.15 10.45a13.509 13.509 0 0 1-1 5.77c-.49.916-1.08 1.774-1.76 2.56l-2.1 2.59c-5.81 7-11.35 13-15.42 17.35-2 2.16-3.79 3.87-4.6 5.42a3.92 3.92 0 0 0-.68 2.53c.31-.785.68-1.544 1.11-2.27.88-1.37 2.7-2.93 4.83-5 4.25-4.18 9.92-10.17 15.76-17.16l2.15-2.6a14.87 14.87 0 0 0 1.85-2.86 14.24 14.24 0 0 0 1-6.32c-.05-3.94-.09-7.48-.12-10.46-.03-2.98-.13-5.39-.2-7.05a10.256 10.256 0 0 0-.19-2.59zM108.77 102.92s.25-.09.49-.49a2.662 2.662 0 0 0 .12-2 8.743 8.743 0 0 0-1.4-2.75c-.65-1-1.41-2.07-2.26-3.28-3.39-4.84-8.56-11.16-13.57-18.57a26.306 26.306 0 0 1-3-5.63 22.615 22.615 0 0 1-1.06-5.83l-.53-10.33c-.15-2.94-.32-5.32-.46-7a9.901 9.901 0 0 0-.35-2.55 9.996 9.996 0 0 0-.16 2.57c0 1.65 0 4 .05 7s.1 6.44.25 10.36c.066 2.1.422 4.179 1.06 6.18a25.748 25.748 0 0 0 3.13 5.93c5.07 7.51 10.34 13.72 13.91 18.4l2.41 3.16a9.156 9.156 0 0 1 1.51 2.47c.236.546.278 1.157.12 1.73-.15.41-.3.59-.26.63z" fill="#506F8E"/><path d="M87.03 45.68s0-.13-.05-.31a.9.9 0 0 1 .33-.67c.158-.147.325-.284.5-.41.23-.18.439-.39.62-.62a5.499 5.499 0 0 0 1-1.87 2.29 2.29 0 0 0 0-1.44 2.34 2.34 0 0 0-1.14-1.09c-.882-.4-1.814-.683-2.77-.84a28.341 28.341 0 0 0-6.36-.73c-2.14 0-4.276.225-6.37.67a22.39 22.39 0 0 0-2.74.73 4 4 0 0 0-1.23.68 1.89 1.89 0 0 0-.47 2.54c.169.292.37.563.6.81.348.38.741.715 1.17 1 .72.47 1.18.58 1.22.5.04-.08-.33-.34-.9-.9a7.13 7.13 0 0 1-.92-1.08 2.1 2.1 0 0 1-.54-1.48c.08-.46.68-.86 1.43-1.08a24.51 24.51 0 0 1 2.61-.57 35.489 35.489 0 0 1 6.14-.55c2.061.01 4.117.214 6.14.61.858.114 1.7.325 2.51.63.28.099.525.28.7.52a1.39 1.39 0 0 1 0 .82 4.998 4.998 0 0 1-.71 1.66c-.124.213-.271.41-.44.59a4.009 4.009 0 0 0-.48.54 1.1 1.1 0 0 0-.19 1.07c.19.27.32.3.34.27z" fill="#506F8E"/><path d="M86.43 43.68c.09-.12-.47-.8-1.71-1.39a12.47 12.47 0 0 0-5.14-1 25.004 25.004 0 0 0-5.15.42c-1.36.31-2 1-1.92 1.1.08.1.82-.13 2.06-.19 1.24-.06 3.06 0 5 0a19.32 19.32 0 0 1 4.84.59c1.19.26 1.9.61 2.02.47z" fill="#B2926F"/><path d="M22.8 45.29c0 .18 1.74.4 4.56.61 1.41.11 3.12.2 5 .31.403.013.8.101 1.17.26a1.1 1.1 0 0 1 .61.71c.07.31 0 .45-.21.6a3.81 3.81 0 0 1-1.29.27c-2.12.23-4.15.35-6 .38h-2.63a4.48 4.48 0 0 1-2-.39 1 1 0 0 1-.57-1.13 1.61 1.61 0 0 1 .72-.92c.61-.4 1.07-.37 1.07-.47 0-.1-.46-.31-1.3 0a2.049 2.049 0 0 0-1.18 1.14c-.14.37-.14.78 0 1.15a2 2 0 0 0 .78 1 5.07 5.07 0 0 0 2.45.69c.84.06 1.74.11 2.68.12a45.699 45.699 0 0 0 6.15-.29 4.36 4.36 0 0 0 1.8-.45 1.76 1.76 0 0 0 .78-.93 2 2 0 0 0 0-1.15 2.36 2.36 0 0 0-1.31-1.46 4.22 4.22 0 0 0-1.63-.34h-5c-2.89.01-4.64.11-4.65.29z" fill="#724A2D"/><path d="M33.08 45.28c.14 0 .53-1.1.4-3.06a4.601 4.601 0 0 0-1.6-3.21 7 7 0 0 0-4.13-1.2 7.281 7.281 0 0 0-2.25.12 3.55 3.55 0 0 0-1.84 1.33 7.588 7.588 0 0 0-1.46 3.13c-.39 2 .07 3.14.22 3.1.15-.04.1-1.19.67-2.85.32-.962.83-1.85 1.5-2.61a2.51 2.51 0 0 1 1.24-.87 7.45 7.45 0 0 1 1.86 0 6.35 6.35 0 0 1 3.46.85 3.88 3.88 0 0 1 1.42 2.39c.31 1.68.31 2.88.51 2.88zM87.5 38.82c.16 0 1-2.34 1.58-6.35.14-1 .27-2.1.36-3.3a3.79 3.79 0 0 0-.3-2.08 4 4 0 0 0-1.64-1.54 17.9 17.9 0 0 0-8.62-1.84c-1.52.03-3.037.16-4.54.39a9.429 9.429 0 0 0-4.2 1.34 3.41 3.41 0 0 0-1.35 1.84 5.1 5.1 0 0 0-.08 2c.17 1.17.34 2.26.48 3.26.62 4 1.09 6.42 1.27 6.39.18-.03 0-2.5-.35-6.5l-.33-3.26a4.423 4.423 0 0 1 .1-1.6c.186-.5.54-.92 1-1.19a8.811 8.811 0 0 1 3.69-1.06c1.429-.19 2.868-.29 4.31-.3a17.38 17.38 0 0 1 8.09 1.6c.484.216.9.562 1.2 1a2.8 2.8 0 0 1 .23 1.49c0 1.16-.11 2.25-.2 3.25-.39 3.99-.89 6.46-.7 6.46z" fill="#724A2D"/><path d="M74.2 28.67a4.103 4.103 0 0 0-.48.13.49.49 0 0 0-.45.4 1.898 1.898 0 0 0-.19.45.39.39 0 0 0 .29.46.94.94 0 0 0 .92-.2 1 1 0 0 0 .33-.88.42.42 0 0 0-.42-.36zM75.42 31.99c.36 0 .66 0 .66-.09s-.3-.1-.66-.1c-.36 0-.65 0-.65.1s.29.09.65.09zM84.88 29.63c.34-.11.57-.34.52-.5-.05-.16-.38-.2-.72-.09-.34.11-.57.34-.52.5.05.16.36.21.72.09zM83.64 35.12c.36 0 .65 0 .65-.09s-.29-.1-.65-.1c-.36 0-.65 0-.65.1s.29.09.65.09zM75.81 36.1c0-.36-.08-.65-.19-.65s-.2.29-.2.65c0 .36.09.65.2.65.11 0 .19-.29.19-.65zM79.82 32.05c.055 0 .1-.291.1-.65 0-.359-.045-.65-.1-.65-.055 0-.1.291-.1.65 0 .359.044.65.1.65zM78.16 29.25c.36 0 .65 0 .65-.09s-.29-.1-.65-.1c-.36 0-.65 0-.65.1s.29.09.65.09zM83.25 32.39c.36 0 .65 0 .65-.1s-.29-.1-.65-.1c-.36 0-.65 0-.65.1s.28.1.65.1zM79.73 35.32c-.06.14-.1.3-.2.36s0 0 .07 0l.36-.34a.08.08 0 0 1 0-.06c.07-.08-.06 0-.17 0-.11 0-.28-.12-.45-.16a.38.38 0 0 0-.46.34.89.89 0 0 0 .51 1 1 1 0 0 0 .38.11h.46l.16-.31a.74.74 0 0 0-.2-1 .307.307 0 0 0-.366-.03.31.31 0 0 0-.094.09zM81.242 29.265c.348-.087.586-.332.532-.546-.054-.214-.38-.317-.728-.23-.348.088-.586.333-.532.547.053.214.38.317.728.23zM82.47 27.88c.063-.21.154-.413.27-.6a2.4 2.4 0 0 1-.66 0 .46.46 0 1 0 .39.58v.02zM87.16 32.97c.3-.2.46-.49.35-.65-.11-.16-.44-.13-.74.07s-.45.49-.35.65c.1.16.46.13.74-.07z" fill="#724A2D"/><path d="M84.82 43.93c-.17 0-.57 1-1.06 2.77-.114.447-.261.885-.44 1.31a1.529 1.529 0 0 1-.92.82 9.12 9.12 0 0 1-3.55.5 9.34 9.34 0 0 1-3.49-.88 4.16 4.16 0 0 1-1.25-.81 3 3 0 0 1-.64-1.08 14.006 14.006 0 0 0-.79-2c-.29-.47-.55-.64-.62-.59-.07.05 0 .32.15.78s.17 1.16.37 2.11a3.88 3.88 0 0 0 .72 1.52 4.88 4.88 0 0 0 1.51 1.16 9.47 9.47 0 0 0 4 1.11 9.1 9.1 0 0 0 4.09-.69 2.88 2.88 0 0 0 .9-.63c.237-.25.42-.547.54-.87.171-.5.289-1.016.35-1.54.19-1.82.31-2.95.13-2.99z" fill="#B2926F"/><path d="M78.84 45.75c.055 0 .1-.291.1-.65 0-.359-.044-.65-.1-.65-.055 0-.1.291-.1.65 0 .359.045.65.1.65zM79.34 46.82c.36 0 .65 0 .65-.09s-.29-.1-.65-.1c-.36 0-.66 0-.66.1s.3.09.66.09zM74.54 46.34c.055 0 .1-.291.1-.65 0-.359-.045-.65-.1-.65-.056 0-.1.291-.1.65 0 .359.044.65.1.65z" fill="#B2926F"/><path d="M76.01 45.11a.45.45 0 0 0-.24-.49 1 1 0 0 0-.85 0 1.002 1.002 0 0 0-.6.62.46.46 0 0 0 .17.52 1 1 0 0 0 1.52-.61v-.04zM80.12 45.49c.25-.25.42-.5.36-.56-.06-.06-.3.11-.56.37-.26.26-.41.5-.36.56.05.06.32-.11.56-.37z" fill="#B2926F"/><path d="M80.72 46.28a.46.46 0 0 0 .4-.33.8.8 0 0 0-.81-1 .46.46 0 0 0-.39.34.66.66 0 0 0 .8 1v-.01zM80.67 48.03h.66c.01 0-.28-.13-.64-.17-.36-.04-.65 0-.66 0-.01 0 .28.13.64.17z" fill="#B2926F"/><path d="M81.5 24.56c.101-.303.152-.62.15-.94a24.94 24.94 0 0 0-2.43-12.49 18.88 18.88 0 0 0-4.21-5.63 19.49 19.49 0 0 0-3.13-2.36 21.517 21.517 0 0 0-3.8-1.73 29.77 29.77 0 0 0-18.23.05 37 37 0 0 0-15.64 9.41 32.52 32.52 0 0 0-7.73 12.76 29.48 29.48 0 0 0-1.45 9.95c.014.911.094 1.82.24 2.72.11.61.18.93.23.93.05 0 0-1.32 0-3.65a32.32 32.32 0 0 1 9.54-21.86 36.58 36.58 0 0 1 15.16-9 29.08 29.08 0 0 1 17.46-.17 18.45 18.45 0 0 1 10.75 9 26.58 26.58 0 0 1 2.77 9.38c.24 2.32.21 3.63.32 3.63z" fill="#506F8E"/><path d="M77.78 24.89a2.26 2.26 0 0 0 .23-.79c.076-.329.123-.663.14-1a9.556 9.556 0 0 0 0-1.36 16 16 0 0 0-2.56-8.25 18.4 18.4 0 0 0-4-4.52 18.77 18.77 0 0 0-6.11-3.3 25.52 25.52 0 0 0-15.66.25 31.42 31.42 0 0 0-13.22 8.44 29.37 29.37 0 0 0-6.49 11.05 27.49 27.49 0 0 0-1.33 8.53 10.17 10.17 0 0 0 .33 3.14c.12-1.039.18-2.084.18-3.13a30.468 30.468 0 0 1 1.7-8.24 29.23 29.23 0 0 1 6.49-10.52 30.76 30.76 0 0 1 12.74-8 24.83 24.83 0 0 1 14.93-.37A18 18 0 0 1 74.88 14a16.629 16.629 0 0 1 2.82 7.82c.18 1.94-.05 3.05.08 3.07zM27.96 49.87a17 17 0 0 1-1.92 3.55 14.14 14.14 0 0 1-3.44 3.17 21.5 21.5 0 0 1-5.72 2.52c-1.12.33-2.31.62-3.56.89-.684.115-1.354.3-2 .55a3.12 3.12 0 0 0-1 .7 1.8 1.8 0 0 0-.44 1.37c.076.449.28.866.59 1.2.27.31.55.54.82.8.579.497 1.197.945 1.85 1.34a16.83 16.83 0 0 0 4.36 1.86 37.06 37.06 0 0 0 9.89.86h3.86c.335-.022.672.005 1 .08.13 0 .23.22.24.49a1 1 0 0 1-.33.73 6.398 6.398 0 0 1-2.1 1.12 22.07 22.07 0 0 1-10.1.75 24 24 0 0 1-9.08-2.6 10.37 10.37 0 0 1-3.23-2.81 6 6 0 0 1-1.32-3.62 4.91 4.91 0 0 1 1.65-3.15 11.579 11.579 0 0 1 2.88-2c2-1 4.11-1.67 5.86-2.39a17.53 17.53 0 0 0 4.29-2.32c.468-.372.906-.78 1.31-1.22a2.52 2.52 0 0 0 .59-1.23 1 1 0 0 0-.21-.82c-.15-.13-.26-.14-.26-.13a.91.91 0 0 1 .21.9 2.21 2.21 0 0 1-.61 1c-.42.392-.868.753-1.34 1.08a17.838 17.838 0 0 1-4.24 2 62.072 62.072 0 0 0-6 2.25 12.098 12.098 0 0 0-3.18 2.16 5.89 5.89 0 0 0-2 3.8 6.94 6.94 0 0 0 1.46 4.35 11.12 11.12 0 0 0 3.56 3.18 24.66 24.66 0 0 0 9.58 2.79 23 23 0 0 0 10.7-.8 7.24 7.24 0 0 0 2.55-1.45 2.3 2.3 0 0 0 .7-1.65 1.801 1.801 0 0 0-1-1.66 3.94 3.94 0 0 0-1.55-.2H27.39a36.24 36.24 0 0 1-9.58-.74 15.75 15.75 0 0 1-4.07-1.63 11.849 11.849 0 0 1-1.72-1.12c-.53-.44-1-.92-1.06-1.3a.7.7 0 0 1 .17-.54c.181-.19.399-.344.64-.45a9.908 9.908 0 0 1 1.79-.52c1.26-.3 2.47-.62 3.61-1a21.288 21.288 0 0 0 5.84-2.8 13.76 13.76 0 0 0 3.45-3.48 10 10 0 0 0 1.33-2.78 2.69 2.69 0 0 0 .17-1.08z" fill="#506F8E"/><path d="M22.81 73a10.749 10.749 0 0 0-3.12.61 12 12 0 0 0-3.45 1.57 7.08 7.08 0 0 0-2.93 4.18 5 5 0 0 0 .25 3.09 5.62 5.62 0 0 0 2.32 2.49c1.02.605 2.153.99 3.33 1.13 1.195.135 2.399.175 3.6.12a48.525 48.525 0 0 1 7.44.34 5.798 5.798 0 0 1 1.74.38c.227.087.432.224.6.4a.42.42 0 0 1 .14.4c0 .25-.44.58-1 .78-.56.2-1.27.4-1.92.56a26.33 26.33 0 0 1-15-.72 12 12 0 0 1-5.47-3.51 5.57 5.57 0 0 1-1-5.16 8.18 8.18 0 0 1 2.54-3.84 14.11 14.11 0 0 1 3-2c.974-.393 1.926-.84 2.85-1.34a9.93 9.93 0 0 0-3.06.88 13.328 13.328 0 0 0-3.3 1.86 8.75 8.75 0 0 0-3 4.12 6.51 6.51 0 0 0 1.06 6.08 12.82 12.82 0 0 0 5.79 4 26.94 26.94 0 0 0 15.78.86c.69-.17 1.35-.37 2-.6a4.412 4.412 0 0 0 1.08-.55 2 2 0 0 0 .79-1.25 1.78 1.78 0 0 0-.46-1.46 2.908 2.908 0 0 0-1-.72 7.209 7.209 0 0 0-2.11-.47 48.264 48.264 0 0 0-7.62-.27c-2.38.1-4.64 0-6.35-1a4.61 4.61 0 0 1-1.9-2 4 4 0 0 1-.27-2.49 6.46 6.46 0 0 1 2.51-3.65 12.65 12.65 0 0 1 3.21-1.73c1-.298 1.979-.662 2.93-1.09z" fill="#506F8E"/><path d="M20.82 90.2a10.13 10.13 0 0 0-5.61 2.73c-.5.55-.887 1.192-1.14 1.89a4.26 4.26 0 0 0-.1 2.56 4.7 4.7 0 0 0 1.6 2.32 7.834 7.834 0 0 0 2.63 1.37c2.05.543 4.176.732 6.29.56 2.2-.11 4.47-.42 6.78-.6 1.16-.12 1.68.29 1.56 1.25-.12.96-1.09 1.49-2.19 1.91a20.684 20.684 0 0 1-13.39.65 17.81 17.81 0 0 1-5.37-2.49 5.758 5.758 0 0 1-1.68-1.89 5 5 0 0 1-.5-2.27 9.45 9.45 0 0 1 2.61-6.78 12.996 12.996 0 0 1 2.3-1.59 1.72 1.72 0 0 0-.75.13 5.78 5.78 0 0 0-1.88 1.06 9.659 9.659 0 0 0-3.19 7.16 5.85 5.85 0 0 0 .52 2.72 6.63 6.63 0 0 0 1.92 2.3 18.329 18.329 0 0 0 5.67 2.8 21.526 21.526 0 0 0 14.24-.59 7.07 7.07 0 0 0 1.79-1c.287-.236.54-.512.75-.82.22-.336.366-.714.43-1.11a2.35 2.35 0 0 0-.78-2.25 3.08 3.08 0 0 0-2.15-.47c-2.39.2-4.62.54-6.76.67a18.178 18.178 0 0 1-5.9-.39 5.14 5.14 0 0 1-3.64-2.9 4.069 4.069 0 0 1 .92-3.73 7.92 7.92 0 0 1 2.51-1.94c.86-.37 1.699-.79 2.51-1.26z" fill="#506F8E"/><path d="M20.37 106.21a6.221 6.221 0 0 0-2.43 1.36 13.725 13.725 0 0 0-2.35 2.32 7.647 7.647 0 0 0-1.12 1.81 3.061 3.061 0 0 0 .09 2.54 4.289 4.289 0 0 0 2 1.92 7.864 7.864 0 0 0 2.78.71c1.9.16 3.9.21 6 .18 1.06 0 2.14-.06 3.25-.12l1.67-.13a4.527 4.527 0 0 1 1.46 0c.32.09.46.3.5.7a1.366 1.366 0 0 1-.45 1.08 7.249 7.249 0 0 1-3 1.23 27.494 27.494 0 0 1-13.2.18 12.179 12.179 0 0 1-5.2-2.17 3.853 3.853 0 0 1-1.38-4.1 7.536 7.536 0 0 1 1-1.87c.4-.58.79-1.12 1.17-1.61.77-1 1.48-1.79 2.08-2.44a17.43 17.43 0 0 0 1.86-2c-.83.425-1.582.99-2.22 1.67a28.713 28.713 0 0 0-3.57 3.92 8.484 8.484 0 0 0-1.21 2.06 4.17 4.17 0 0 0-.07 2.75c.31.948.865 1.796 1.61 2.46a12.915 12.915 0 0 0 5.63 2.53 27.889 27.889 0 0 0 13.82-.09c.6-.16 1.18-.32 1.78-.53a4.786 4.786 0 0 0 1.76-1c.28-.263.498-.584.64-.94.143-.359.207-.744.19-1.13a2.25 2.25 0 0 0-.4-1.16 1.996 1.996 0 0 0-1-.7 5.386 5.386 0 0 0-1.92 0l-1.64.14c-1.09.08-2.15.14-3.19.17-2.07.06-4.07.05-5.89-.06a7.163 7.163 0 0 1-2.45-.53 3.373 3.373 0 0 1-1.58-1.54c-.72-1.22.09-2.5.79-3.49a15.138 15.138 0 0 1 2.09-2.37c1.29-1.14 2.15-1.66 2.1-1.75z" fill="#506F8E"/><path d="M20.88 120.87c0-.17-.4-.3-1-.09a2.733 2.733 0 0 0-1.46 1.57 3.93 3.93 0 0 0-.19 2c.09.49.24.78.42.79.4 0 .59-1.2 1-2.31.18-.461.434-.89.75-1.27.25-.31.48-.51.48-.69zM24.17 120.82c-.11-.13-.44-.09-.84.2a3.08 3.08 0 0 0-1 1.6 3 3 0 0 0 .06 1.89c.19.46.45.67.62.61.34-.14.26-1.1.58-2.15.32-1.05.8-1.84.58-2.15z" fill="#506F8E"/><path d="M67.99 125.91c-.36 0-.65 5-.65 11.15s.29 11.15.65 11.15c.36 0 .65-5 .65-11.15s-.29-11.15-.65-11.15zM88.14 148.79c.36 0 .65-5.037.65-11.25s-.29-11.25-.65-11.25c-.359 0-.65 5.037-.65 11.25s.291 11.25.65 11.25z" fill="#1D1F42"/><path d="M88.02 126.82c.1 0 .28-.38 1.05-.76a2.93 2.93 0 0 0 1.31-1.17 2.37 2.37 0 0 0-.41-2.4 5.408 5.408 0 0 0-2.33-1.49c-.92-.386-1.862-.72-2.82-1a27.202 27.202 0 0 0-6.77-1 27.66 27.66 0 0 0-6.8.66c-.972.227-1.93.508-2.87.84a7.362 7.362 0 0 0-2.44 1.22 2.11 2.11 0 0 0-.7 1.18 2 2 0 0 0 .21 1.22c.321.483.749.886 1.25 1.18.74.48 1.12.73 1.19.68.07-.05-.23-.48-.88-1.07a3.995 3.995 0 0 1-.9-1.12 1.1 1.1 0 0 1 .43-1.37 6.978 6.978 0 0 1 2.17-.89c.86-.26 1.8-.49 2.79-.69a30.535 30.535 0 0 1 6.52-.54c2.188.056 4.365.351 6.49.88 1 .24 1.9.53 2.75.82a4.832 4.832 0 0 1 2 1.08 1.599 1.599 0 0 1 .43 1.52c-.213.409-.53.754-.92 1a2.484 2.484 0 0 0-.71.8c-.09.29-.07.42-.04.42zM71.13 129.62c.35-.11.49-.64.44-1.22-.05-.58-.28-1.08-.64-1.12-.36-.04-.72.51-.66 1.24.06.73.52 1.21.86 1.1zM71.12 135.1c.359 0 .65-.613.65-1.37 0-.757-.291-1.37-.65-1.37-.36 0-.65.613-.65 1.37 0 .757.29 1.37.65 1.37zM71.31 141.36c.36 0 .65-.743.65-1.66 0-.917-.29-1.66-.65-1.66-.359 0-.65.743-.65 1.66 0 .917.291 1.66.65 1.66zM71.51 146.06c.36 0 .65-.613.65-1.37 0-.757-.29-1.37-.65-1.37-.359 0-.65.613-.65 1.37 0 .757.291 1.37.65 1.37zM75.81 132.17c.36 0 .65-1.097.65-2.45 0-1.353-.29-2.45-.65-2.45-.359 0-.65 1.097-.65 2.45 0 1.353.291 2.45.65 2.45zM76.4 139.6c.359 0 .65-1.052.65-2.35s-.291-2.35-.65-2.35c-.359 0-.65 1.052-.65 2.35s.291 2.35.65 2.35zM76.4 145.47c.359 0 .65-.833.65-1.86 0-1.027-.291-1.86-.65-1.86-.359 0-.65.833-.65 1.86 0 1.027.291 1.86.65 1.86zM80.9 144.49c.359 0 .65-.484.65-1.08 0-.596-.291-1.08-.65-1.08-.359 0-.65.484-.65 1.08 0 .596.291 1.08.65 1.08zM80.71 135.89c-.36 0-.66.78-.66 1.76s.3 1.76.66 1.76c.36 0 .65-.79.65-1.76s-.29-1.76-.65-1.76zM81.09 134.71c.358 0 .65-.569.65-1.27 0-.701-.292-1.27-.65-1.27-.36 0-.65.569-.65 1.27 0 .701.29 1.27.65 1.27zM81.29 129.42c.359 0 .65-.524.65-1.17 0-.646-.291-1.17-.65-1.17-.36 0-.65.524-.65 1.17 0 .646.29 1.17.65 1.17zM85.01 132.56c.36 0 .65-1.052.65-2.35s-.29-2.35-.65-2.35c-.359 0-.65 1.052-.65 2.35s.291 2.35.65 2.35zM85.01 136.66c.36 0 .65-.613.65-1.37 0-.757-.29-1.37-.65-1.37-.359 0-.65.613-.65 1.37 0 .757.291 1.37.65 1.37zM84.62 141.36c.359 0 .65-.703.65-1.57 0-.867-.291-1.57-.65-1.57-.36 0-.65.703-.65 1.57 0 .867.29 1.57.65 1.57zM84.81 145.86c.36 0 .65-.569.65-1.27 0-.701-.29-1.27-.65-1.27-.359 0-.65.569-.65 1.27 0 .701.291 1.27.65 1.27zM66.81 207.49c.36 0 .65-12.438.65-27.78s-.29-27.78-.65-27.78c-.359 0-.65 12.438-.65 27.78s.291 27.78.65 27.78zM89.71 206.52c.36 0 .65-12 .65-26.71s-.29-26.71-.65-26.71c-.36 0-.66 12-.66 26.71s.3 26.71.66 26.71zM90.17 206.72c-.14-.16-1.1.68-3 1.33a29.753 29.753 0 0 1-7.68 1.22c-2.618.21-5.248.234-7.87.07-2-.15-3.25-.35-3.3-.17-.05.18 1.14.69 3.19 1.08 2.665.45 5.377.561 8.07.33a22.143 22.143 0 0 0 8-1.68c1.92-.95 2.7-2.08 2.59-2.18z" fill="#1D1F42"/><path d="M89.58 206.72c0 .07.5.53 1.54 1.29l1.91 1.36c.36.26.82.56 1.16.83a.577.577 0 0 1 .25.39.458.458 0 0 1-.19.38 2.535 2.535 0 0 1-1.34.62l-1.92.27c-1.33.17-2.76.34-4.26.48-3 .28-6.33.5-9.82.53-3.49.03-6.81-.07-9.82-.29-1.51-.1-2.94-.24-4.28-.38-1.34-.14-2.5-.63-2.25-1.32.182-.414.485-.763.87-1 .4-.31.79-.58 1.16-.82.641-.405 1.31-.766 2-1.08a10.575 10.575 0 0 0 1.83-.82 4.394 4.394 0 0 0-2 .34 13.594 13.594 0 0 0-3.49 1.71 2.863 2.863 0 0 0-1.26 1.41 1.517 1.517 0 0 0 .11 1.21c.195.352.486.64.84.83a5.299 5.299 0 0 0 2.05.62c1.35.18 2.79.36 4.31.5a91.88 91.88 0 0 0 9.94.4 96.46 96.46 0 0 0 9.92-.64c1.52-.18 3-.4 4.3-.61l1.95-.35a3.527 3.527 0 0 0 1.83-1 1.332 1.332 0 0 0 .37-1.14 1.399 1.399 0 0 0-.59-.91c-.5-.34-.88-.54-1.28-.79l-2-1.18c-1.15-.61-1.79-.92-1.84-.84zM89.57 154.06c.1 0-.08-.54.3-1.25a1.51 1.51 0 0 1 .4-.49 5.36 5.36 0 0 1 .71-.44c.166-.091.32-.202.46-.33a1.13 1.13 0 0 0 .37-.69 1.002 1.002 0 0 0-.28-.84 2.248 2.248 0 0 0-.59-.44 16.698 16.698 0 0 0-5.49-1.77 48.674 48.674 0 0 0-6.95-.48 55.517 55.517 0 0 0-6.94.42c-1.06.14-2.07.29-3 .47-.91.114-1.808.315-2.68.6a2.336 2.336 0 0 0-1.55 1.93c-.015.208.019.417.1.61.08.175.203.327.36.44.223.17.473.302.74.39.352.14.736.181 1.11.12.26-.06.36-.2.33-.23a2.729 2.729 0 0 1-1.24-.35 2.358 2.358 0 0 1-.52-.39.5.5 0 0 1-.15-.52 1.599 1.599 0 0 1 1.16-1.15 18.452 18.452 0 0 1 2.47-.43c.93-.12 1.92-.23 3-.33 2.09-.2 4.39-.32 6.8-.31a59.697 59.697 0 0 1 6.79.36c1.807.199 3.574.671 5.24 1.4.134.053.26.127.37.22a.22.22 0 0 1 .09.17c0 .1-.16.3-.41.49-.264.17-.509.368-.73.59a2.068 2.068 0 0 0-.44.74c-.3 1.03.12 1.54.17 1.49z" fill="#1D1F42"/><path d="M8.66 161.96v48.91s1.42 2.49 12.76 2.49 13.6-2.44 13.6-2.44l-.63-48.43s-14.38 3.57-25.73-.53z" fill="#FCF3A2"/><path d="M34.16 162.14a35.582 35.582 0 0 0-25.15-.61.44.44 0 0 0 0 .82c2.89 1.08 11.53 3.51 25.08.62a.439.439 0 0 0 .07-.83z" fill="#C8BD67"/><path d="M46.08 107.12s-6.66-2.93-2.94-5.87 26.41-4.3 26.41-4.3 20.35-.2 30.13 2c9.78 2.2 11.16 3.52 11 4.5-.16.98-2.15 3.13-2.15 3.13l-1.37 23.87-.59 24.84-.58 24.07.58 18s0 6.07 1.37 8.41 1.57 3.33 3.33 3.72c1.76.39 3.91 0 3.91 2s-3.91 1.37-3.91 1.37-5.48-.79-6.46-7.44c-.98-6.65-1.17-33.65-1.17-33.65l1.17-45.78.78-15.46s.79-5.67-5.08-6.65c-5.87-.98-9.79-1.57-9.79-1.57s-9.58-.78-10.76 1.57c-1.18 2.35-.39 18-.39 18l-1.37 70v20.74a2.088 2.088 0 0 0 .79 2 6.735 6.735 0 0 1 1.76 1.76 1.138 1.138 0 0 1-1 1.76c-1.76.19-4.31.59-5.09.19a2.896 2.896 0 0 1-1.17-1.36l2.34-2.16.59-3.91-.39-31.11-.39-62.8s.78-14.29-2.35-14.68c-3.13-.39-7.24-.58-7.24-.58s-11.93.39-14.67 2.93-1.76 10.76-1.76 10.76 1.56 38.15 1.56 38.74c0 .59.2 37.76.2 37.76s0 17.41-4.31 19.18c-4.31 1.77-2.19 1.72-2.95 1.72-.76 0-4.31-.39-4.31-.39s-.78-1.77.4-2.35c1.18-.58 3.52-.59 4.89-1.57 1.37-.98 2.54-4.3 2.54-4.3l1-12.92-.59-48.91-1.17-21.56-.8-13.7z" fill="#C4C4C4"/><path d="M43.88 103.99s.59-2 15.66-3.71 29.34-1.37 32.67-1c3.33.37 2.93-1.37 1.56-1.37s-22.5-1-31.89 0-24.61 3.34-18 6.08zM46.08 107.12l2.15 46 .39 38.94-1.17 13.3s2-2.35 2.15-7.63c.15-5.28-.2-58.11-.2-58.11s-.78-35.8-3.32-32.5zM74.88 103.41s2.15 0 2.15 1.76v85.89l-2.15-87.65z" fill="#EAEAEA"/><path d="M37.27 136.47s-10.56-2-13.89-1.76l-13.89 1-2-.2s-2-1.56 1.18-3.32c3.18-1.76 5.12-1.37 5.12-1.37l.59-4.11a23.114 23.114 0 0 1 7.43-1.37c3.053.153 6.076.68 9 1.57l-.19 3.32s3.13.2 4.69 1.57c1.56 1.37 1.96 4.67 1.96 4.67zM6.36 211.21s3.91 3.91 12.91 3.91 13.11-1.76 13.11-1.76l4.3-1.95.2-2.16s4.11.2 2.93 3.14c-1.18 2.94-4.69 3.71-4.69 3.71l-10.76 2s-11.15-.39-15.65-1.17c-4.5-.78-5.87-2.35-5.09-4.9.78-2.55 2.35-1.99 2.74-.82z" fill="#DFB474"/><path d="M10.88 134.32a2.75 2.75 0 0 1 1.17-1.76c1-.59 15.85-1.37 15.85-1.37a119.455 119.455 0 0 0-12.33-.59l.59-4.69-1.76.78-.61 4.13s-3.71 1.17-5.08 1.37c-1.37.2-1.57 2.15-1.57 2.15l.39 1.17 3.35-1.19zM6.95 212.19s-1-1-1.77.78-.39 2.55-.39 2.55-2-1.57-1.17-3.53a3.216 3.216 0 0 1 2.35-2.17l.39 1.37.59 1z" fill="#EFDDC7"/><path d="M26.71 126.1l.19 3.92 2.74.58s3.33 1.37 2.94 2.74a4.449 4.449 0 0 0-.2 2.15l4.89 1s.59-2.74-1.17-3.91a19.557 19.557 0 0 0-4.7-2l-.59-3.71-4.1-.77zM34.34 212.58a1.508 1.508 0 0 1 2 .59 2.588 2.588 0 0 1 .59 2.35s2.74-2 2.93-3.13c.19-1.13-1.76-3.53-2.93-3.14l-.2 2.16-2.39 1.17z" fill="#B2926F"/><path opacity=".5" d="M.49 137.65s9.78-2.74 17.8-2.74c5.494.058 10.98.392 16.44 1l7.43 1.76-5.48 8 .4 58.11-.2 6.45s-.59 2.16-7.43 3.92a29.483 29.483 0 0 1-12.33.58l-7.24-1.37-3.52-2.15v-64.76l-5.87-8.8z" fill="#A7D1E8"/><path opacity=".5" d="M12.62 143.71l-3.13-8-9 2s5.87 9.19 5.87 8.8v64.76s.19 1 3.52 2.15a16.459 16.459 0 0 0 6.07 1l-.79-68.87a52.32 52.32 0 0 1 11.74-.19 17.324 17.324 0 0 0-6.65-1.76 31.673 31.673 0 0 0-7.63.11z" fill="#E1EAF0"/><path d="M23.57 150.95h8.02M23.57 153.29h8.02M23.57 155.84h8.02M23.57 158.51h8.02M19.4 160.86h12.19M19.4 173.25h12.19M19.14 185.9h12.19M19.53 198.03h12.19M19.75 208.21h12.19M23.57 163.4h8.02M23.57 165.69h8.02M23.57 168.03h8.02M23.57 170.58h8.02M23.57 173.25h8.02M23.57 175.6h8.02M23.57 178.14h8.02M23.57 180.95h8.02M23.57 183.29h8.02M23.57 185.84h8.02M23.57 188.51h8.02M23.57 190.86h8.02M23.57 193.4h8.02M23.57 195.82h8.02M23.57 198.16h8.02M23.57 200.71h8.02M23.57 203.38h8.02M23.57 205.73h8.02M23.57 208.27h8.02" stroke="#1D1D1B" stroke-miterlimit="10"/><path d="M40.17 212.63c.378.123.773.187 1.17.19a11.44 11.44 0 0 0 3.4-.14 5.651 5.651 0 0 0 2.3-1.06 10.106 10.106 0 0 0 2-2.24 7.698 7.698 0 0 0 1.2-3.22c.22-1.16.41-2.39.59-3.69a140.555 140.555 0 0 0 1-18.34c0-6.89.08-14.47 0-22.43-.14-15.92-.74-30.32-1.36-40.73-.16-2.61-.32-5-.45-7a21.933 21.933 0 0 1 0-5.23 7.22 7.22 0 0 1 1.14-3c.43-.61.75-.88.7-.92a2.645 2.645 0 0 0-.91.76 6.89 6.89 0 0 0-1.43 3.1c-.312 1.769-.4 3.57-.26 5.36.08 2.07.17 4.43.26 7 .39 10.41.83 24.8 1 40.7 0 8 .08 15.53.12 22.42a154.93 154.93 0 0 1-.67 18.23c-.14 1.28-.3 2.51-.49 3.66a7.002 7.002 0 0 1-1 3 9.8 9.8 0 0 1-1.75 2.15 5.257 5.257 0 0 1-2 1c-1.071.255-2.17.379-3.27.37a4.232 4.232 0 0 0-1.29.06z" fill="#1D1F42"/><path d="M41.88 212.65a3.662 3.662 0 0 0-1.12-.3l-.58-.12a.624.624 0 0 1-.29-.47 1.698 1.698 0 0 1 .68-1.43 3.865 3.865 0 0 1 2.11-.55 9.58 9.58 0 0 0 1.4-.2c.51-.148.993-.378 1.43-.68a6.292 6.292 0 0 0 2.09-2.71 11.88 11.88 0 0 0 .78-3.67c.59-10.21 1-24.3.86-39.88-.14-15.58-.92-29.66-1.7-39.83-.38-5.07-.44-9.2-.59-12.05-.07-1.42-.14-2.53-.2-3.28a4.213 4.213 0 0 0-.17-1.14 31.598 31.598 0 0 0-.14 4.43c0 2.85-.08 7 .18 12.1.54 10.17 1.16 24.24 1.31 39.79.15 15.55-.12 29.63-.47 39.79a11.37 11.37 0 0 1-.63 3.43 5.624 5.624 0 0 1-1.75 2.43c-1.46 1.23-3.51.5-4.84 1.63a2.069 2.069 0 0 0-.73 1.9 1.007 1.007 0 0 0 .55.7l.66.07c.383.068.773.081 1.16.04z" fill="#1D1F42"/><path d="M106.13 107.52a1.88 1.88 0 0 0 .86-.15 6.847 6.847 0 0 0 2.2-1.18 5.502 5.502 0 0 0 1.27-1.37c.21-.336.324-.724.33-1.12a1.941 1.941 0 0 0-.47-1.22 5.327 5.327 0 0 0-2.17-1.36c-.8-.33-1.62-.73-2.53-1a58.305 58.305 0 0 0-13-3.14c-5.44-.662-10.925-.88-16.4-.65-5.81.21-11.31.6-16.33 1.13a81.617 81.617 0 0 0-13.22 2.36c-.92.27-1.78.5-2.62.82a3.136 3.136 0 0 0-2 1.78 2.93 2.93 0 0 0 .29 2.3c.314.555.769 1.018 1.32 1.34a6.986 6.986 0 0 0 2.37.82c.56.09.85.1.86.06.01-.04-.27-.14-.79-.32a8.161 8.161 0 0 1-2.16-1 3.207 3.207 0 0 1-1-1.21 2.25 2.25 0 0 1-.15-1.76c.45-1.22 2.38-1.47 4.15-2 7.3-1.89 17.78-2.67 29.31-3.13 5.409-.22 10.827-.039 16.21.54a61.41 61.41 0 0 1 12.88 2.82c.9.28 1.72.64 2.52.93a4.92 4.92 0 0 1 1.94 1.08 1.277 1.277 0 0 1 .14 1.56 5.16 5.16 0 0 1-1.06 1.37 12.47 12.47 0 0 1-2.75 1.7z" fill="#1D1F42"/><path d="M36.88 210.94c-.13-.19-1.6.86-4.28 1.8a31.21 31.21 0 0 1-10.89 1.64 51.826 51.826 0 0 1-6.11-.46 32.36 32.36 0 0 1-4.9-.92c-2.72-.76-4-2-4.18-1.85-.18.15.2.44.83 1 .911.75 1.947 1.335 3.06 1.73a25.77 25.77 0 0 0 5 1.24c2.072.353 4.168.547 6.27.58a26.672 26.672 0 0 0 11.25-2.1c2.7-1.22 4-2.56 3.95-2.66zM37.33 136.72c.06 0 .43-.43.4-1.44a4.583 4.583 0 0 0-2.11-3.49 13.087 13.087 0 0 0-5.71-1.7 46.68 46.68 0 0 0-7.15-.34c-2.54.06-4.93.27-7.1.5l-3.08.37c-.916.088-1.825.239-2.72.45a4.553 4.553 0 0 0-2.1 1.18 3 3 0 0 0-.8 1.65c-.11 1.06.42 1.5.45 1.44.03-.06-.19-.53 0-1.33.15-.48.43-.909.81-1.24a4.002 4.002 0 0 1 1.81-.8 22.41 22.41 0 0 1 2.61-.28l3.08-.24c2.16-.17 4.53-.34 7-.4a57.799 57.799 0 0 1 7 .23c1.855.059 3.68.498 5.36 1.29a4.314 4.314 0 0 1 2.1 2.77c.22.84.04 1.35.15 1.38z" fill="#724A2D"/><path d="M30.68 130.72c.08 0 .2-.32.32-.91.07-.3.14-.67.21-1.1l.11-.69a3.716 3.716 0 0 0 0-.43 1.24 1.24 0 0 0-.16-.61 1.278 1.278 0 0 0-.53-.44c-.18-.09-.32-.13-.47-.19l-.93-.33c-.65-.21-1.36-.41-2.11-.58a25.037 25.037 0 0 0-5-.59 24.805 24.805 0 0 0-4.94.43c-.75.14-1.45.31-2.1.5-.33.08-.64.19-.94.29l-.75.23c-.08 0 0 .09-.06.15V128.6c0 .45.06.83.1 1.15.07.63.15 1 .24 1s.18-.34.27-1c0-.32.08-.7.12-1.15l.11-1.46v-.1h.12l.92-.2c.63-.14 1.32-.27 2-.37a30.046 30.046 0 0 1 9.52.16c.73.13 1.41.28 2 .43l.92.25c.192.03.379.094.55.19 0 0 .07.2.06.46v1.81c.27.6.33.95.42.95zM36.5 209.2c0 .11.7.2 1.78.71a2.366 2.366 0 0 1 1.33 1.42 2.419 2.419 0 0 1-.86 2.3 8.53 8.53 0 0 1-3.1 1.49c-1.23.43-2.57.79-4 1.14a48.332 48.332 0 0 1-9.43 1.23 59.279 59.279 0 0 1-9.52-.44c-1.46-.19-2.84-.41-4.12-.64a8.27 8.27 0 0 1-3.22-1.18 3.59 3.59 0 0 1-1.5-2.18 2.372 2.372 0 0 1 .48-1.89c.74-.93 1.56-.81 1.54-.93-.02-.12-.17-.11-.53-.1a2.284 2.284 0 0 0-1.38.69 2.827 2.827 0 0 0-.83 2.33 4.27 4.27 0 0 0 1.66 2.81 8.634 8.634 0 0 0 3.55 1.5c1.31.3 2.7.56 4.19.78 3.219.48 6.476.668 9.73.56a44.914 44.914 0 0 0 9.67-1.37 38.201 38.201 0 0 0 4.06-1.29 9.158 9.158 0 0 0 3.38-1.84 3.178 3.178 0 0 0 .92-3.18 2.844 2.844 0 0 0-1.83-1.68 3.39 3.39 0 0 0-1.97-.24z" fill="#724A2D"/><path d="M76.66 212.97c.09-.461.127-.931.11-1.4 0-.91.05-2.26.07-4v-14.7c-.05-12.41-.21-29.56-.47-48.49-.14-9.47-.28-18.49-.41-26.7-.08-4.1-.15-8-.22-11.64a5.68 5.68 0 0 0-.52-2.89 3.745 3.745 0 0 0-2.47-1.55 31.382 31.382 0 0 0-5-.44 40.722 40.722 0 0 0-14.56 2.33c-1.265.439-2.501.956-3.7 1.55-.433.18-.84.415-1.21.7 0 .12 1.77-.76 5.07-1.77a43.194 43.194 0 0 1 14.38-1.89 32.23 32.23 0 0 1 4.73.5 2.762 2.762 0 0 1 1.81 1.11 5 5 0 0 1 .34 2.36c0 3.65.06 7.55.1 11.65.09 8.2.2 17.22.31 26.69.26 18.94.57 36.08.85 48.49.15 6.2.28 11.22.41 14.69.06 1.74.12 3.08.18 4 .001.474.068.945.2 1.4zM77.88 213.38c.113-.454.163-.922.15-1.39.06-.91.12-2.26.18-4 .12-3.47.26-8.49.41-14.7.28-12.41.59-29.55.85-48.48.11-9.47.22-18.49.31-26.7l.1-11.65a4.84 4.84 0 0 1 .33-2.36 2.84 2.84 0 0 1 1.81-1.11 31.157 31.157 0 0 1 4.74-.49 43.003 43.003 0 0 1 14.379 1.88c3.3 1 5 1.89 5.07 1.78a6.017 6.017 0 0 0-1.21-.71 34.74 34.74 0 0 0-3.7-1.55 41 41 0 0 0-14.57-2.33c-1.656.019-3.307.17-4.94.45a3.71 3.71 0 0 0-2.47 1.55 5.619 5.619 0 0 0-.52 2.88c-.07 3.65-.14 7.55-.22 11.65l-.42 26.69c-.25 18.93-.42 36.08-.47 48.49v14.7c0 1.73 0 3.08.07 4-.014.47.026.94.12 1.4z" fill="#1D1F42"/><path d="M114.689 212.63a4.136 4.136 0 0 0-1.17-.07 13.636 13.636 0 0 1-3.27-.37 5.39 5.39 0 0 1-2-1 10.46 10.46 0 0 1-1.75-2.15 7.025 7.025 0 0 1-1-3c-.19-1.15-.35-2.38-.49-3.66a155.385 155.385 0 0 1-.66-18.23c0-6.89.07-14.47.11-22.42.14-15.9.59-30.29 1-40.7.1-2.6.19-5 .26-7a20.84 20.84 0 0 0-.26-5.36 6.88 6.88 0 0 0-1.43-3.1 2.545 2.545 0 0 0-.91-.76c.221.319.458.626.71.92a7.358 7.358 0 0 1 1.13 3 22.315 22.315 0 0 1 0 5.23c-.14 2.07-.29 4.42-.46 7-.62 10.41-1.21 24.81-1.35 40.73-.09 8 0 15.54 0 22.43-.086 6.127.228 12.254.94 18.34.18 1.3.37 2.53.59 3.69a7.714 7.714 0 0 0 1.2 3.22 10.138 10.138 0 0 0 2 2.24 5.653 5.653 0 0 0 2.3 1.06 11.44 11.44 0 0 0 3.4.14 3.836 3.836 0 0 0 1.11-.18z" fill="#1D1F42"/><path d="M113 212.65c.381.055.768.055 1.15 0l.66-.07a1.01 1.01 0 0 0 .55-.7 2.072 2.072 0 0 0-.73-1.9c-1.32-1.13-3.38-.4-4.83-1.63a5.453 5.453 0 0 1-1.75-2.43 11.029 11.029 0 0 1-.64-3.43 895.4 895.4 0 0 1-.47-39.79c.17-15.54.77-29.62 1.31-39.79.27-5.12.19-9.25.18-12.1a31.66 31.66 0 0 0-.14-4.43c-.108.37-.162.754-.16 1.14-.07.75-.14 1.86-.2 3.28-.16 2.85-.22 7-.6 12.05-.78 10.17-1.54 24.26-1.69 39.83-.15 15.57.26 29.67.85 39.88.072 1.257.338 2.495.79 3.67a6.21 6.21 0 0 0 2.09 2.71c.432.304.912.534 1.42.68.461.101.929.168 1.4.2a3.866 3.866 0 0 1 2.11.55 1.648 1.648 0 0 1 .68 1.43c0 .22-.13.41-.29.47l-.58.12a3.42 3.42 0 0 0-1.11.26zM77.75 210.11c-.09 0-.2.34-.28 1a5.43 5.43 0 0 0 .29 2.82 3.598 3.598 0 0 0 1.35 1.65c.32.179.654.329 1 .45.27.13.33.21.36.35a.747.747 0 0 1-.18.56 1.744 1.744 0 0 1-.73.44 11.5 11.5 0 0 1-2.32.42c-.798.075-1.602.075-2.4 0-.8-.07-1.33-.28-1.38-.62a.35.35 0 0 1 0-.18l.09-.1c.09-.1.64-.22.95-.41a4.281 4.281 0 0 0 1.51-1.44c.305-.48.506-1.018.59-1.58a6.736 6.736 0 0 0 0-1.2c0-.6.17-.84.12-.92-.05-.08-.13 0-.28.12-.181.211-.302.466-.35.74a9.778 9.778 0 0 1-.21 1.11 3.66 3.66 0 0 1-1.88 2.21c-.27.14-.47.14-1 .35a1.319 1.319 0 0 0-.65.65 1.46 1.46 0 0 0-.09.91 1.837 1.837 0 0 0 1 1.28c.433.184.891.302 1.36.35.878.114 1.766.137 2.65.07a11.4 11.4 0 0 0 2.65-.52 2.804 2.804 0 0 0 1.27-.86 1.907 1.907 0 0 0 .38-1.59 1.54 1.54 0 0 0-.45-.78 1.854 1.854 0 0 0-.65-.38 8.434 8.434 0 0 1-.9-.32 2.785 2.785 0 0 1-1.07-1.11 6.997 6.997 0 0 1-.62-2.43c0-.68 0-1.04-.13-1.04z" fill="#1D1F42"/><path d="M6.49 211.08c.359 0 .65-14.658.65-32.74s-.291-32.74-.65-32.74c-.36 0-.65 14.658-.65 32.74s.29 32.74.65 32.74zM36.75 208.99a9.273 9.273 0 0 0-.24 2.34h.48c.24-5 .41-17.48.41-32.09 0-9.51-.07-18.11-.19-24.34-.06-3.11-.13-5.63-.21-7.38.033-.907-.051-1.815-.25-2.7a10.53 10.53 0 0 0-.25 2.7c-.08 1.75-.15 4.27-.21 7.38-.12 6.23-.19 14.83-.19 24.34 0 14.61.17 27.09.41 32.09h.48a9.269 9.269 0 0 0-.24-2.34z" fill="#506F8E"/><path d="M36.65 145.27a9.672 9.672 0 0 0 1.72-1.87l1.85-2.31 1.14-1.45 1.67-2.18-2.75-.81c-.73-.21-1.5-.39-2.29-.6a61.622 61.622 0 0 0-5.1-1 71.38 71.38 0 0 0-11.83-1 73.196 73.196 0 0 0-11.53.85c-1.77.27-3.45.59-5 1-.79.16-1.54.37-2.26.55l-1.08.29c-.216.06-.421.151-.61.27a1.2 1.2 0 0 0-.53.67 1.23 1.23 0 0 0 .11.87c.088.187.195.365.32.53l.61.87c.4.57.79 1.09 1.16 1.57.75 1 1.42 1.77 2 2.42 1.14 1.29 1.84 1.93 1.91 1.87a11.25 11.25 0 0 0-1.5-2.2c-.5-.69-1.11-1.54-1.78-2.53l-1.07-1.61-.56-.89c-.21-.3-.32-.58-.27-.63.05-.05 0-.06.12-.12.118-.057.242-.101.37-.13l1.05-.24c.73-.16 1.47-.35 2.25-.49 1.55-.31 3.21-.59 4.95-.83a80.84 80.84 0 0 1 11.35-.75c3.9.014 7.794.314 11.65.9 1.78.27 3.47.59 5.05.93.78.18 1.55.33 2.27.52l1.07.27h.38l-.08.13v.06l-.09.13-.58.82-1.06 1.52-1.67 2.44c-.544.659-1.001 1.385-1.36 2.16z" fill="#506F8E"/></g><defs><clipPath id="clip0"><path fill="#fff" d="M0 0h115.39v219.12H0z"/></clipPath></defs></svg>