<svg width="229" height="149" fill="none" xmlns="http://www.w3.org/2000/svg"><path d="M81.96 28.74s21.5-18.54 36.34-22.59C133.14 2.1 142.03-.53 146.85.21c4.82.74 20 2.6 20 2.6l55.26 82 5.56 9.64-3.34-1.11 2.6 5.93-8.9-2.59s-35.6-6.31-54.15 5.93c-18.55 12.24-23.73 13.72-23.73 13.72l-15.95-.74s-25.59 4.82-35.6 12.24c-10.01 7.42-23 19.65-23 19.65s-1.86 0-2.23-1.48a32.652 32.652 0 0 1-.37-5.19S37.45 87.33 28.96 78.06c-8.49-9.27-14.83-17.8-14.83-17.8L-.04 46.91l3.71-2.22-2.6-2.6c2.23-1.48 1.11-2.6 1.11-2.6l5.94-2.22-1.45-1.12s18.55-12.6 41.91-12.23c23.36.37 33.38 4.82 33.38 4.82z" fill="#FAF8EE"/><path d="M31.89 76.21L7.79 37.83l-6.12 1.66 1.85 1.3s-2.41 1.86-1.85 1.86 2 2 2 2l-3 2s11.87 11.49 15 14.65C18.8 64.46 39.4 95.78 39.4 95.78l7.61 13.17 6.49 10.57 5.46 11.2 6.12 15.21 1.67.18s13.72-12.79 22.62-18.35c8.9-5.56 21-9.46 21-9.46l15.57-2.22 13.17.55 2.78-.93 8.16-5.74s11.31-8 19.47-10.57c8.16-2.57 20.95-4.27 21.69-4.45.74-.18 12.61-.37 13.17-.37.56 0 11.12 2 11.86 2 .74 0 10.72 2.63 10.72 2.63l-1.49-3.34-1.11-2.59s-19.65-5.56-33.75-3.9c-14.1 1.66-32.45 10.2-32.45 10.2l-13.2 9.83-4 4.45-10.38-1.85s-16.14-2.79-39.5 7c0 0-7.23 4.08-8.16 4.64-.93.56-12.24 10-15.57 15s-2.78 4.26-2.78 4.26l-17.29-38.69-15.39-28z" fill="#E2DEC4"/><path d="M68.17 137.72a4.388 4.388 0 0 0-.4-1.13c-.31-.73-.77-1.79-1.39-3.15-1.22-2.72-3-6.64-5.35-11.45-4.6-9.64-11.16-22.85-18.75-37.27-7.59-14.42-14.75-27.31-20.07-36.57-2.7-4.59-4.72-8.45-6.75-10.73a13.202 13.202 0 0 0-2.58-2.27 3.442 3.442 0 0 0-1.07-.57c1.19.96 2.278 2.04 3.25 3.22 1.85 2.3 3.74 6.2 6.34 10.86 5.11 9.36 12.15 22.31 19.72 36.72 7.57 14.41 14.27 27.54 19.08 37.06l5.76 11.22c.68 1.33 1.22 2.35 1.6 3 .15.382.355.739.61 1.06zM71.45 133.15a4.123 4.123 0 0 0-.37-1.11c-.29-.71-.73-1.74-1.3-3.08-1.15-2.66-2.89-6.48-5.08-11.18-4.4-9.39-10.73-22.25-18.19-36.21-7.46-13.96-14.63-26.37-20-35.24-2.69-4.44-4.9-8-6.48-10.44-.78-1.22-1.4-2.16-1.83-2.79a4 4 0 0 0-.72-.93c.112.348.274.678.48.98.36.68.91 1.66 1.63 2.92l6.11 10.64c5.17 9.02 12.26 21.44 19.66 35.44 7.4 14 13.9 26.72 18.51 36l5.45 11c.64 1.3 1.16 2.3 1.52 3 .15.363.356.7.61 1zM83.41 121a26.493 26.493 0 0 0-1.47-4c-1.07-2.56-2.66-6.24-4.86-10.69a357.638 357.638 0 0 0-19.25-33.58c-8.12-12.74-15.65-24.15-21.1-32.41-2.74-4.12-4.93-7.47-6.61-9.69-.83-1.11-1.52-1.94-2-2.49-.48-.55-.77-.81-.8-.78-.03.03.87 1.26 2.4 3.56 1.53 2.3 3.6 5.72 6.25 9.9 5.25 8.39 12.66 19.89 20.77 32.61 8.11 12.72 15 24.52 19.53 33.3 2.3 4.37 4 8 5.22 10.47a27.591 27.591 0 0 0 1.92 3.8zM91.96 117.21a26.265 26.265 0 0 0-1.76-3.87c-1.21-2.46-3-6-5.36-10.27-4.65-8.6-11.42-20.31-19.51-32.86-8.09-12.55-16-23.54-21.9-31.32-3-3.9-5.41-7-7.15-9.12a25.447 25.447 0 0 0-2.79-3.2 25.483 25.483 0 0 0 2.39 3.51c1.61 2.21 3.93 5.41 6.81 9.35 5.72 7.92 13.46 19 21.54 31.48 8.08 12.48 15 24.13 19.8 32.61l5.72 10.06a27.551 27.551 0 0 0 2.21 3.63zM98.03 114.76a25.785 25.785 0 0 0-1.73-3.82c-1.18-2.42-3-5.89-5.25-10.14-4.55-8.5-11.16-20.07-19-32.51-7.84-12.44-15.54-23.37-21.27-31.14-2.86-3.88-5.23-7-6.91-9.08a25.939 25.939 0 0 0-2.71-3.2 25.993 25.993 0 0 0 2.3 3.5l6.57 9.32c5.54 7.88 13 18.87 20.89 31.27 7.89 12.4 14.57 23.9 19.32 32.27 2.37 4.19 4.29 7.58 5.61 9.93.63 1.256 1.36 2.46 2.18 3.6zM104.22 110.96a23.727 23.727 0 0 0-1.85-3.58c-1.26-2.26-3.12-5.51-5.45-9.51-4.65-8-11.16-19-18.41-31.12l-10.28-17c-3.16-5.24-6.14-9.91-8.92-13.64a70.012 70.012 0 0 0-7.15-8.35c-.94-.9-1.68-1.59-2.21-2-.53-.41-.82-.65-.85-.61a37.675 37.675 0 0 0 2.69 3 86.338 86.338 0 0 1 6.77 8.54c2.66 3.77 5.54 8.45 8.64 13.72l10.19 17.1c7.25 12.11 13.88 23 18.74 30.92 2.43 3.94 4.41 7.12 5.81 9.3a23.545 23.545 0 0 0 2.28 3.23zM113.86 112.29a25.268 25.268 0 0 0-2.07-3.55c-.7-1.11-1.57-2.48-2.53-4.08-.96-1.6-2.12-3.41-3.31-5.44-2.43-4-5.23-8.9-8.32-14.32l-10-17.67c-3.59-6.25-7.12-12.15-10.45-17.43-1.7-2.63-3.29-5.14-4.88-7.42-.79-1.14-1.53-2.26-2.29-3.31l-2.18-3c-1.37-1.92-2.72-3.59-3.87-5.07l-1.63-2-1.44-1.67a24.854 24.854 0 0 0-2.78-3 24.549 24.549 0 0 0 2.39 3.34l1.34 1.74 1.54 2.11c1.09 1.51 2.38 3.21 3.7 5.16l2.1 3c.73 1.06 1.45 2.19 2.22 3.34 1.54 2.3 3.1 4.82 4.76 7.45 3.27 5.31 6.75 11.21 10.34 17.45l10.1 17.62c3.15 5.39 6 10.21 8.58 14.2 1.24 2 2.44 3.78 3.47 5.35 1.03 1.57 2 2.9 2.73 4a25.425 25.425 0 0 0 2.48 3.2zM121.19 110.37a23.875 23.875 0 0 0-1.86-3.54c-1.26-2.24-3.15-5.45-5.52-9.39-4.74-7.88-11.46-18.67-19.14-30.41-7.68-11.74-14.89-22.22-20.22-29.72-2.67-3.75-4.85-6.76-6.4-8.82a24.76 24.76 0 0 0-2.5-3.12 22.778 22.778 0 0 0 2.09 3.42l6 9c5.13 7.62 12.2 18.17 19.89 29.9 7.69 11.73 14.51 22.43 19.45 30.19l5.87 9.17a23.614 23.614 0 0 0 2.34 3.32zM129.72 111.93a23.302 23.302 0 0 0-1.87-3.59c-.63-1.14-1.43-2.52-2.4-4.09-.97-1.57-2-3.38-3.32-5.33-2.49-3.93-5.58-8.53-9.08-13.59-3.5-5.06-7.44-10.54-11.58-16.3-4.14-5.76-8.06-11.26-11.56-16.3-3.5-5.04-6.57-9.64-9.06-13.55-1.28-1.94-2.35-3.74-3.34-5.3-.99-1.56-1.8-2.92-2.47-4a24.246 24.246 0 0 0-2.2-3.39 23.119 23.119 0 0 0 1.76 3.64c.6 1.16 1.35 2.56 2.29 4.16s1.95 3.44 3.18 5.41c2.4 4 5.41 8.65 8.85 13.75 3.44 5.1 7.35 10.62 11.49 16.38 4.14 5.76 8.07 11.24 11.66 16.23s6.71 9.55 9.29 13.4c1.32 1.92 2.45 3.68 3.47 5.22 1.02 1.54 1.89 2.87 2.58 4a23.885 23.885 0 0 0 2.31 3.25zM135.08 112.06a25.392 25.392 0 0 0-1.87-3.52c-1.28-2.23-3.18-5.41-5.57-9.32-4.79-7.82-11.6-18.5-19.47-30.07-7.87-11.57-15.3-21.83-20.81-29.16-2.75-3.66-5-6.6-6.62-8.6a22.375 22.375 0 0 0-2.59-3 23.786 23.786 0 0 0 2.18 3.33l6.29 8.85c5.32 7.46 12.61 17.79 20.47 29.34 7.86 11.55 14.79 22.15 19.77 29.83l5.91 9.1a22.184 22.184 0 0 0 2.31 3.22zM143.96 108.32a23.835 23.835 0 0 0-2.19-3.32l-6.31-8.78c-5.35-7.41-12.72-17.64-20.74-29-8.02-11.36-15.17-21.78-20.33-29.32L88.24 29c-.7-1.129-1.5-2.193-2.39-3.18a23.774 23.774 0 0 0 2 3.46c1.33 2.18 3.31 5.3 5.8 9.14 5 7.66 12 18.15 20 29.56s15.53 21.56 21.07 28.83c2.77 3.63 5 6.55 6.65 8.54a21.845 21.845 0 0 0 2.59 2.97zM149.09 103.89a23.07 23.07 0 0 0-2.34-3.21l-6.67-8.53c-5.61-7.2-13.24-17.25-21.28-28.63-8.04-11.38-15-21.92-19.87-29.62l-5.8-9.13a21.802 21.802 0 0 0-2.25-3.28 23.304 23.304 0 0 0 1.81 3.54c1.24 2.24 3.1 5.44 5.46 9.35 4.72 7.84 11.53 18.49 19.58 29.9 8.05 11.41 15.82 21.38 21.63 28.44 2.9 3.54 5.3 6.36 7 8.27a22.694 22.694 0 0 0 2.73 2.9zM155.47 99.87A23.506 23.506 0 0 0 153 96.7l-7-8.42c-5.87-7.13-13.79-17.12-22-28.54a588.141 588.141 0 0 1-20.12-29.92l-5.78-9.28a23.106 23.106 0 0 0-2.23-3.34 23.574 23.574 0 0 0 1.79 3.6c1.22 2.28 3.07 5.53 5.43 9.5 4.72 8 11.6 18.74 19.85 30.2 8.25 11.46 16.33 21.39 22.38 28.37 3 3.5 5.53 6.29 7.31 8.16a22.942 22.942 0 0 0 2.84 2.84zM160.67 97.15a22.716 22.716 0 0 0-2.53-3.14c-.85-1-1.89-2.17-3.05-3.59s-2.55-3-4-4.8c-1.45-1.8-3.05-3.77-4.7-5.93-1.65-2.16-3.4-4.47-5.23-6.92-3.6-4.94-7.46-10.44-11.37-16.32-7.78-11.77-14.4-22.71-19.23-30.62l-5.74-9.34a22.275 22.275 0 0 0-2.23-3.34 24.51 24.51 0 0 0 1.82 3.59c1.24 2.28 3.07 5.55 5.38 9.56 4.62 8 11.13 19.07 18.94 30.87 3.92 5.9 7.82 11.4 11.49 16.32 1.86 2.43 3.61 4.76 5.34 6.87 1.73 2.11 3.33 4.09 4.84 5.85 1.51 1.76 2.91 3.32 4.14 4.69a99.93 99.93 0 0 0 3.23 3.45 25.12 25.12 0 0 0 2.9 2.8zM167.63 93.32a23.919 23.919 0 0 0-2.23-3.37c-1.5-2.12-3.71-5.16-6.46-8.91-5.51-7.49-13.2-17.78-21.73-29.1-8.53-11.32-16-21.74-21-29.55-2.52-3.89-4.47-7.1-5.82-9.32a24.539 24.539 0 0 0-2.18-3.4 22.645 22.645 0 0 0 1.75 3.65c1.23 2.3 3.06 5.59 5.49 9.56 4.84 8 12.21 18.52 20.76 29.84a4072.09 4072.09 0 0 0 22 28.88c2.85 3.67 5.17 6.63 6.8 8.66a24.195 24.195 0 0 0 2.62 3.06zM172.17 91.88a23.622 23.622 0 0 0-2.08-3.4c-1.42-2.13-3.48-5.2-6-9l-20-29.64-19.87-29.75-6-9a23.134 23.134 0 0 0-2.36-3.21 24.561 24.561 0 0 0 1.93 3.49c1.31 2.2 3.26 5.35 5.7 9.22 4.88 7.75 11.75 18.37 19.53 30 7.78 11.63 15 22 20.32 29.44 2.66 3.73 4.84 6.72 6.38 8.77a23.645 23.645 0 0 0 2.45 3.08zM178.1 90.94a23.194 23.194 0 0 0-2-3.48c-1.4-2.18-3.41-5.34-5.9-9.23l-19.58-30.39-19.42-30.49c-2.5-3.89-4.52-7-5.92-9.22a22.752 22.752 0 0 0-2.31-3.3 23.706 23.706 0 0 0 1.88 3.56c1.28 2.25 3.18 5.48 5.56 9.45 4.76 7.93 11.48 18.81 19.09 30.71 7.61 11.9 14.69 22.54 19.91 30.19 2.6 3.82 4.74 6.9 6.25 9a24.04 24.04 0 0 0 2.44 3.2zM184.69 90.02a24.197 24.197 0 0 0-1.76-3.64c-1.2-2.3-3-5.6-5.28-9.66-4.56-8.1-11.07-19.18-18.63-31.18-7.56-12-14.75-22.66-20.06-30.27-2.68-3.8-4.88-6.85-6.44-8.93a23.673 23.673 0 0 0-2.56-3.19 24.25 24.25 0 0 0 2.11 3.45l6.09 9.16c5.14 7.74 12.2 18.45 19.75 30.44 7.55 11.99 14.19 23 18.94 31l5.64 9.44a24.979 24.979 0 0 0 2.2 3.38zM190.16 87.86a22.583 22.583 0 0 0-1.71-3.6c-1.17-2.27-2.93-5.53-5.14-9.53-4.42-8-10.73-19-18-30.87-7.27-11.87-14.2-22.49-19.35-30.07-2.56-3.79-4.67-6.83-6.16-8.91a24.266 24.266 0 0 0-2.42-3.16 22.636 22.636 0 0 0 2 3.44c1.37 2.16 3.35 5.28 5.81 9.13 4.92 7.71 11.67 18.37 19 30.26s13.7 22.75 18.33 30.64l5.5 9.32a23.295 23.295 0 0 0 2.14 3.35zM206.82 89.15a23.954 23.954 0 0 0-1.75-3.64c-1.19-2.31-3-5.63-5.21-9.7-4.48-8.14-10.83-19.3-18.1-31.49-7.27-12.19-14.07-23.07-19.12-30.87-2.51-3.91-4.58-7-6.05-9.2a22.893 22.893 0 0 0-2.38-3.26 23.767 23.767 0 0 0 1.95 3.53c1.35 2.23 3.3 5.44 5.7 9.42 4.84 7.93 11.52 18.88 18.78 31.05 7.26 12.17 13.73 23.25 18.42 31.28l5.57 9.48a22.852 22.852 0 0 0 2.19 3.4zM216.79 90.97c.31-.19-11.8-20.14-27-44.56S161.96 2.35 161.61 2.54c-.35.19 11.8 20.14 27 44.56s27.87 44.05 28.18 43.87z" fill="#AFB5DD"/><path d="M87.34 37.15c-.91-.466-1.869-.829-2.86-1.08-.94-.31-2.09-.67-3.44-1-1.35-.33-2.89-.79-4.62-1.11l-2.71-.55c-.94-.19-1.93-.32-3-.48-2-.36-4.25-.56-6.57-.81A117.007 117.007 0 0 0 49 31.85c-5.036.308-10.046.943-15 1.9-2.28.49-4.45.93-6.44 1.51-1 .27-2 .51-2.89.79l-2.63.84c-1.69.51-3.16 1.12-4.47 1.6-1.31.48-2.42 1-3.31 1.37-.957.36-1.872.823-2.73 1.38.09.22 4.09-1.49 10.78-3.46l2.64-.76c.91-.26 1.88-.46 2.88-.71 2-.53 4.14-.92 6.39-1.38 4.928-.886 9.903-1.48 14.9-1.78a127.28 127.28 0 0 1 15 .16c2.29.21 4.48.37 6.51.68 1 .14 2 .24 2.94.4l2.69.46c6.85 1.3 11.01 2.51 11.08 2.3z" fill="#AFB5DD"/><path d="M90.04 42.77a11.352 11.352 0 0 0-2.7-1.29 44.086 44.086 0 0 0-7.85-2.21 76.636 76.636 0 0 0-12-1.23c-4.55-.14-9.54 0-14.76.19-4.946.123-9.878.554-14.77 1.29a49.48 49.48 0 0 0-11.69 3.22 30.858 30.858 0 0 0-7.07 4.11 10.92 10.92 0 0 0-2.19 2c.17.24 3.26-2.85 9.61-5.3a52.793 52.793 0 0 1 11.52-2.9 134.92 134.92 0 0 1 14.61-1.16c5.21-.2 10.18-.37 14.68-.3 3.986.035 7.966.346 11.91.93 6.72 1.11 10.62 2.89 10.7 2.65zM171.41 10.7a18.718 18.718 0 0 0-3.47-.78l-1.88-.34c-.68-.11-1.44-.18-2.24-.27-1.62-.17-3.46-.44-5.51-.49l-3.21-.16h-3.49c-2.41 0-5 .2-7.69.39a99.997 99.997 0 0 0-33.87 9.28c-2.43 1.22-4.75 2.33-6.81 3.59-1 .61-2.07 1.16-3 1.77l-2.68 1.77c-1.74 1.08-3.18 2.26-4.49 3.22-.64.5-1.25.94-1.79 1.38l-1.44 1.25a18.857 18.857 0 0 0-2.59 2.44 17.826 17.826 0 0 0 2.91-2l1.5-1.15c.56-.41 1.18-.83 1.85-1.29 1.33-.9 2.8-2 4.55-3l2.71-1.68c.94-.58 2-1.1 3-1.69 2.06-1.2 4.38-2.27 6.79-3.44a106 106 0 0 1 33.48-9.18c2.67-.22 5.21-.48 7.6-.5 1.19 0 2.34-.1 3.45-.08l3.18.07c2 0 3.86.19 5.47.29.81.06 1.56.1 2.25.17l1.88.22a18.9 18.9 0 0 0 3.54.21z" fill="#AFB5DD"/><path d="M176.61 17.81a19.904 19.904 0 0 0-3.53-1.07c-1.14-.3-2.59-.5-4.25-.82-.82-.17-1.73-.21-2.68-.32-.95-.11-2-.25-3-.26a76.131 76.131 0 0 0-14.9.65 121.965 121.965 0 0 0-17.83 3.91c-6.22 1.81-12 3.9-17.25 5.87-5.25 1.97-10 3.82-13.62 6.08a21.35 21.35 0 0 0-7.34 6.9 9.95 9.95 0 0 0-.76 1.4 6.14 6.14 0 0 0-.44 1.08 2.66 2.66 0 0 0-.24.93c.13 0 .53-1.22 1.86-3.14a22.286 22.286 0 0 1 7.4-6.37c3.61-2.11 8.31-3.84 13.56-5.75 5.25-1.91 11-4 17.19-5.75a133.267 133.267 0 0 1 17.63-4 81.302 81.302 0 0 1 14.7-.92c8.39.27 13.44 1.92 13.5 1.58zM93.66 46.69a13.574 13.574 0 0 0-2.77-1l-1.5-.45c-.56-.16-1.17-.29-1.82-.45-1.31-.29-2.8-.69-4.47-.94l-2.62-.45c-.91-.15-1.87-.23-2.86-.36-2-.27-4.1-.37-6.34-.5a97.73 97.73 0 0 0-14.56.56 96.46 96.46 0 0 0-14.28 2.91c-2.14.66-4.19 1.26-6 2-.93.36-1.84.66-2.69 1l-2.44 1c-1.57.65-2.92 1.38-4.12 2-.6.31-1.16.58-1.66.86l-1.36.8a12.85 12.85 0 0 0-2.45 1.62c.12.21 3.74-1.87 10-4.41l2.44-1c.85-.33 1.76-.61 2.69-.94 1.85-.68 3.88-1.23 6-1.86a107.579 107.579 0 0 1 14.11-2.76c4.77-.544 9.57-.765 14.37-.66 2.21.1 4.31.16 6.27.38 1 .1 1.93.15 2.84.28l2.6.36c6.54 1.08 10.55 2.25 10.62 2.01z" fill="#AFB5DD"/><path d="M182.13 25.15s-.27-.2-.85-.44-1.42-.59-2.54-1a59.746 59.746 0 0 0-9.72-2.41 65.589 65.589 0 0 0-14.85-.65 79.549 79.549 0 0 0-17.85 3.58c-6.17 1.91-11.87 4.14-17.07 6.14a79.156 79.156 0 0 0-13.41 6.39 32.605 32.605 0 0 0-7.68 6.45 20.089 20.089 0 0 0-1.63 2.2c-.33.53-.49.82-.45.84.04.02.27-.21.67-.68.4-.47 1-1.16 1.78-2a36.28 36.28 0 0 1 7.79-6 84.883 84.883 0 0 1 13.36-6.06c5.21-1.93 10.92-4.12 17-6a82.813 82.813 0 0 1 17.56-3.63 68.257 68.257 0 0 1 14.63.37 73.77 73.77 0 0 1 9.7 2c1.165.382 2.354.683 3.56.9zM96.29 50.15a11.312 11.312 0 0 0-2.69-.94l-1.47-.42c-.54-.14-1.13-.26-1.77-.4-1.27-.26-2.72-.63-4.35-.83l-2.55-.37c-.89-.12-1.82-.17-2.78-.26-1.92-.2-4-.21-6.16-.26-4.72.025-9.43.443-14.08 1.25a85.54 85.54 0 0 0-13.62 3.76c-2 .81-4 1.54-5.68 2.41-.87.43-1.72.8-2.51 1.22l-2.26 1.24c-1.46.76-2.69 1.61-3.79 2.3-.54.36-1.06.67-1.52 1l-1.22.92a11.599 11.599 0 0 0-2.19 1.82c.14.2 3.4-2.21 9.16-5.22l2.27-1.15c.79-.4 1.64-.74 2.51-1.13 1.72-.82 3.64-1.5 5.64-2.27a93.169 93.169 0 0 1 13.44-3.61 92.186 92.186 0 0 1 13.86-1.33c2.14 0 4.17 0 6.08.14.95.07 1.87.09 2.75.18l2.53.29c6.44.82 10.34 1.94 10.4 1.66z" fill="#AFB5DD"/><path d="M184.03 27.46a20.197 20.197 0 0 0-3.47-.9l-1.88-.41c-.7-.12-1.45-.22-2.27-.34-1.62-.22-3.47-.55-5.54-.65l-3.24-.24c-1.13-.07-2.3 0-3.52-.07-2.44-.08-5 .1-7.77.24a95.612 95.612 0 0 0-34.25 9.18c-2.44 1.24-4.79 2.38-6.85 3.68-1 .63-2.08 1.19-3 1.82l-2.69 1.82c-1.74 1.12-3.17 2.34-4.47 3.34-.64.51-1.25 1-1.79 1.42l-1.42 1.3a18.402 18.402 0 0 0-2.56 2.52 19.57 19.57 0 0 0 2.88-2.13l1.49-1.2c.56-.43 1.18-.85 1.84-1.33 1.34-.94 2.79-2.09 4.55-3.15l2.71-1.74c.94-.6 2-1.13 3-1.74 2.06-1.24 4.4-2.32 6.82-3.52a100.53 100.53 0 0 1 33.84-9.07c2.7-.17 5.26-.4 7.67-.35 1.2 0 2.37-.06 3.48 0l3.22.15c2.05 0 3.89.31 5.51.45.81.09 1.57.15 2.26.24l1.89.29c1.171.243 2.363.374 3.56.39zM100.3 54.36a12.012 12.012 0 0 0-2.79-.75l-1.52-.33c-.56-.1-1.17-.18-1.82-.28-1.31-.18-2.8-.45-4.46-.56l-2.61-.21c-.91-.07-1.86-.07-2.84-.1-2-.1-4.06 0-6.27.06a92.202 92.202 0 0 0-14.23 1.96 93.065 93.065 0 0 0-13.71 4.25c-2 .88-4 1.67-5.72 2.58-.87.45-1.73.84-2.53 1.29l-2.27 1.3c-1.47.79-2.71 1.66-3.82 2.38-.55.36-1.07.69-1.53 1l-1.24.94a12.004 12.004 0 0 0-2.22 1.85c.14.2 3.45-2.25 9.26-5.39l2.29-1.2c.79-.41 1.66-.78 2.53-1.2 1.74-.86 3.67-1.61 5.69-2.44a102.01 102.01 0 0 1 13.55-4.1 100.806 100.806 0 0 1 14-2c2.18-.1 4.24-.23 6.18-.18h2.81l2.59.13c6.61.41 10.64 1.24 10.68 1z" fill="#AFB5DD"/><path d="M188.01 32.52a18.26 18.26 0 0 0-3.45-.86l-1.87-.38c-.68-.12-1.44-.2-2.24-.3-1.62-.19-3.46-.49-5.51-.54l-3.21-.17h-3.49c-2.42 0-5 .24-7.69.44a112.495 112.495 0 0 0-17.32 3.3 135.149 135.149 0 0 0-16.61 5.89c-2.47 1.11-4.83 2.14-7 3.25-2.17 1.11-4.13 2.13-5.92 3.11s-3.37 2-4.77 2.78c-1.4.78-2.57 1.58-3.52 2.22a18.097 18.097 0 0 0-2.89 2.08c1.097-.451 2.151-1 3.15-1.64 1-.58 2.2-1.27 3.62-2s3-1.69 4.85-2.59c1.85-.9 3.78-2 6-3s4.49-2 7-3.11a145.46 145.46 0 0 1 16.48-5.74 122.683 122.683 0 0 1 17.11-3.37c2.67-.22 5.2-.53 7.59-.55 1.19 0 2.34-.1 3.44-.09l3.19.08c2 0 3.85.22 5.46.34.81.07 1.56.12 2.25.19l1.87.27c1.145.237 2.31.368 3.48.39zM105.75 58.75a13.068 13.068 0 0 0-2.93-.68l-1.58-.28c-.58-.09-1.21-.15-1.9-.23-1.36-.15-2.91-.37-4.64-.42L91.99 57h-2.94c-2 0-4.21.14-6.49.28a88.558 88.558 0 0 0-28.73 7.36c-2.08 1-4.06 1.86-5.83 2.87-.89.49-1.77.93-2.58 1.42l-2.31 1.42c-1.49.88-2.74 1.82-3.87 2.6-.56.4-1.09.76-1.55 1.12l-1.26 1a12.913 12.913 0 0 0-2.23 2c.15.19 3.48-2.47 9.39-5.94l2.37-1.32c.81-.46 1.69-.87 2.58-1.34 1.77-1 3.75-1.8 5.8-2.73a105.993 105.993 0 0 1 13.9-4.73 105.59 105.59 0 0 1 14.47-2.54c2.25-.17 4.39-.38 6.4-.39 1 0 2-.09 2.91-.07h2.68c6.8.25 11.01.98 11.05.74z" fill="#AFB5DD"/><path d="M191.01 38.68a17.277 17.277 0 0 0-3.38-.79l-1.83-.34c-.67-.11-1.4-.18-2.19-.29-1.57-.18-3.36-.45-5.36-.54l-3.13-.2c-1.09-.06-2.22 0-3.4-.05-2.35-.07-4.86.09-7.5.21a105.83 105.83 0 0 0-33.37 7.78c-2.42 1.06-4.74 2-6.82 3.13-1 .54-2.08 1-3 1.56l-2.72 1.56c-1.75 1-3.23 2-4.56 2.86-.66.44-1.29.83-1.84 1.22l-1.49 1.12a18.433 18.433 0 0 0-2.68 2.19 16.931 16.931 0 0 0 3-1.77l1.54-1c.57-.36 1.21-.72 1.89-1.13 1.36-.79 2.86-1.77 4.63-2.67l2.73-1.47c1-.51 2-1 3-1.47 2.08-1.06 4.39-2 6.8-3a112.466 112.466 0 0 1 33-7.7c2.61-.16 5.09-.35 7.42-.33 1.16 0 2.29-.05 3.37 0l3.1.11c2 0 3.76.24 5.34.35.78.07 1.51.11 2.18.18l1.84.23c1.134.187 2.282.27 3.43.25zM107.21 62.87a9.113 9.113 0 0 0-2.76-.8 33.996 33.996 0 0 0-7.8-.47 68.878 68.878 0 0 0-11.45 1.67c-4.609 1-9.165 2.232-13.65 3.69a138.46 138.46 0 0 0-23.59 10.12c-2.88 1.57-5.15 3-6.69 3.95-.834.47-1.61 1.037-2.31 1.69.11.18 3.59-1.91 9.43-4.82a168.065 168.065 0 0 1 23.55-9.7c4.73-1.53 9.31-2.78 13.51-3.76a76.378 76.378 0 0 1 11.25-1.92c6.5-.55 10.47.63 10.51.35z" fill="#AFB5DD"/><path d="M194.79 42.8c-.05-.09-.09-.18-.13-.27l-2-.29c-2.28-.28-5.58-.58-9.68-.73a130.118 130.118 0 0 0-48.78 8 84.198 84.198 0 0 0-13.15 6 35.77 35.77 0 0 0-7.74 5.91 18.139 18.139 0 0 0-1.73 2c-.36.49-.53.76-.5.79.03.03.9-.9 2.58-2.43a40.764 40.764 0 0 1 7.85-5.47 92.18 92.18 0 0 1 13.1-5.62 138.094 138.094 0 0 1 16.8-4.81 144.784 144.784 0 0 1 31.55-3.45c4.08 0 7.37.19 9.65.32l2.24.13-.06-.08zM111.1 66.8s-.23-.13-.68-.25a14.172 14.172 0 0 0-2-.43 30.729 30.729 0 0 0-7.63-.17 59.3 59.3 0 0 0-11.07 2.31c-4.07 1.22-8.45 2.77-13 4.39a157.442 157.442 0 0 0-23 9.9c-2.82 1.54-5 2.95-6.48 4a12.106 12.106 0 0 0-2.2 1.72c.12.18 3.42-2 9.11-4.86a199.299 199.299 0 0 1 23-9.49c4.59-1.61 9-3.2 13-4.47a65.512 65.512 0 0 1 10.82-2.54c6.18-.87 10.09.15 10.13-.11z" fill="#AFB5DD"/><path d="M198.58 48.34c-1-.17-2.19-.33-3.53-.53l-2.64-.24-1.45-.12-1.53-.06a90.211 90.211 0 0 0-14.64.65 153.293 153.293 0 0 0-17.63 3.29c-6.18 1.49-12 3.15-17.27 4.68a85.132 85.132 0 0 0-13.8 5 30.654 30.654 0 0 0-8.13 5.54 17.602 17.602 0 0 0-1.78 2c-.36.49-.54.77-.5.79.04.02.9-.92 2.62-2.45a33.628 33.628 0 0 1 8.22-5.15 90.133 90.133 0 0 1 13.68-4.59c5.29-1.47 11.1-3.09 17.25-4.57a170.197 170.197 0 0 1 17.51-3.43c4.795-.655 9.631-.963 14.47-.92 3.217.022 6.429.236 9.62.64a3.893 3.893 0 0 1-.47-.53zM114.28 72.15a7.14 7.14 0 0 0-2.74-.83 23.66 23.66 0 0 0-7.8.18 97.569 97.569 0 0 0-11.16 2.82c-4.14 1.23-8.65 2.75-13.31 4.54a181.412 181.412 0 0 0-23.14 10.81c-2.84 1.61-5.11 3-6.64 4a12.062 12.062 0 0 0-2.31 1.67 12 12 0 0 0 2.57-1.23l6.82-3.6a240.16 240.16 0 0 1 23.17-10.4c4.63-1.78 9.1-3.32 13.2-4.62 4.1-1.3 7.81-2.42 11-3.06a26.928 26.928 0 0 1 7.57-.58c1.76.09 2.74.36 2.77.3z" fill="#AFB5DD"/><path d="M204.96 57.66c-.52-.19-1.17-.4-2-.62a61.136 61.136 0 0 0-9.5-1.89 81.756 81.756 0 0 0-14.43-.29 114.748 114.748 0 0 0-17.46 2.63c-6.11 1.37-11.83 3-17 4.66-5.17 1.66-9.78 3.11-13.65 4.52a30.155 30.155 0 0 0-8.61 4.57c-.693.55-1.339 1.16-1.93 1.82-.39.47-.58.73-.55.76.03.03.93-.88 2.78-2.18a33.605 33.605 0 0 1 8.62-4.1c3.85-1.28 8.54-2.67 13.7-4.24 5.16-1.57 10.87-3.18 16.93-4.54a122.517 122.517 0 0 1 17.26-2.7 87.529 87.529 0 0 1 14.25 0c3.197.282 6.373.762 9.51 1.44 1 .2 1.71.37 2.28.5l-.2-.34zM118.21 77.87c-.92-.22-1.864-.331-2.81-.33l-1.51-.09h-1.8c-1.3 0-2.77 0-4.4.11l-2.55.17c-.89.06-1.8.2-2.76.31-1.91.19-3.92.58-6 1a84.659 84.659 0 0 0-26.13 9.93c-1.84 1.13-3.6 2.17-5.16 3.3-.78.55-1.56 1.06-2.26 1.6l-2 1.57c-1.31 1-2.39 2-3.36 2.83-.48.44-.94.83-1.34 1.21l-1.17 1.02a12.203 12.203 0 0 0-1.88 2.11c.17.18 3-2.64 8.21-6.49l2-1.49c.72-.51 1.5-1 2.29-1.51 1.55-1.08 3.32-2.07 5.15-3.16a101.375 101.375 0 0 1 12.51-5.88 99.539 99.539 0 0 1 13.34-3.93c2.09-.41 4.07-.84 5.95-1.07.94-.13 1.84-.29 2.71-.38l2.52-.25c6.42-.55 10.44-.3 10.45-.58z" fill="#AFB5DD"/><path d="M211.69 68.72a18.397 18.397 0 0 0-3.41-1.11l-1.84-.53c-.68-.17-1.43-.32-2.23-.51-1.6-.34-3.41-.79-5.45-1.09l-3.2-.53c-1.11-.18-2.28-.28-3.49-.43-2.41-.32-5-.45-7.72-.62-11.859-.56-23.734.66-35.23 3.62-2.64.72-5.15 1.38-7.44 2.18-1.15.39-2.27.73-3.33 1.13l-3 1.17c-1.94.7-3.62 1.52-5.12 2.18-.74.34-1.44.64-2.07.95l-1.7.89a18.961 18.961 0 0 0-3.11 1.78 18.193 18.193 0 0 0 3.32-1.32l1.75-.78 2.1-.85c1.52-.59 3.21-1.34 5.16-2l3-1.08c1.05-.37 2.17-.68 3.32-1 2.28-.76 4.78-1.37 7.4-2.06a128.045 128.045 0 0 1 34.9-3.56c2.7.14 5.27.22 7.66.5 1.2.12 2.36.2 3.47.35l3.18.44c2 .24 3.85.63 5.45.9l2.24.4 1.86.41c1.155.302 2.337.493 3.53.57zM121.32 83.07a12.052 12.052 0 0 0-2.85-.27l-1.54-.07h-1.82c-1.31 0-2.81 0-4.45.2l-2.59.23c-.9.08-1.82.25-2.79.38-1.93.23-4 .68-6.11 1.11a90.832 90.832 0 0 0-13.56 4.27 92.255 92.255 0 0 0-12.65 6.51c-1.83 1.2-3.59 2.31-5.13 3.5-.78.58-1.56 1.12-2.25 1.69l-2 1.65c-1.3 1-2.35 2.09-3.32 3-.47.46-.92.87-1.31 1.27l-1 1.12c-.7.656-1.318 1.395-1.84 2.2.17.17 3-2.79 8.1-6.85l2-1.57c.7-.55 1.48-1.05 2.27-1.61 1.54-1.14 3.3-2.2 5.13-3.35a90.418 90.418 0 0 1 25.87-10.61c2.1-.46 4.1-.94 6-1.22.95-.15 1.86-.33 2.75-.44l2.54-.31c6.47-.75 10.55-.58 10.55-.83z" fill="#AFB5DD"/><path d="M214.53 74.68a18.344 18.344 0 0 0-3.3-1.36l-1.8-.65c-.67-.22-1.4-.41-2.19-.65-1.57-.43-3.35-1-5.37-1.4l-3.16-.68c-1.1-.23-2.27-.37-3.46-.57-2.39-.42-5-.62-7.69-.87a99.06 99.06 0 0 0-35.09 3.81c-2.6.84-5.08 1.58-7.32 2.51-1.13.45-2.23.84-3.26 1.3l-2.93 1.34c-1.89.82-3.5 1.76-5 2.53-.71.39-1.39.74-2 1.1l-1.62 1a17.676 17.676 0 0 0-2.93 2 20.118 20.118 0 0 0 3.19-1.6l1.66-.92c.62-.32 1.31-.64 2-1 1.47-.69 3.09-1.57 5-2.33l2.95-1.25c1-.44 2.13-.79 3.25-1.21 2.23-.88 4.7-1.58 7.27-2.37a103.998 103.998 0 0 1 34.68-3.77c2.69.22 5.25.37 7.62.74 1.18.18 2.34.29 3.43.49l3.15.59c2 .33 3.79.84 5.37 1.21.79.19 1.53.35 2.2.54l1.82.54c1.145.42 2.327.732 3.53.93zM125.62 90.15a12.54 12.54 0 0 0-2.85-.39l-1.53-.12c-.56 0-1.17 0-1.83-.05-1.31 0-2.81-.08-4.46 0l-2.59.13c-.91.05-1.84.18-2.81.28-1.94.16-4 .54-6.15.9a82 82 0 0 0-26.54 10c-1.86 1.16-3.65 2.22-5.22 3.38-.79.57-1.57 1.09-2.29 1.64l-2 1.62c-1.31 1-2.39 2-3.37 2.92-.48.45-.94.85-1.34 1.24l-1.07 1.11a12.707 12.707 0 0 0-1.88 2.17c.18.18 3-2.75 8.23-6.71l2.06-1.54c.72-.52 1.51-1 2.3-1.56 1.57-1.1 3.36-2.12 5.21-3.23a97.401 97.401 0 0 1 12.69-6 96.29 96.29 0 0 1 13.46-3.79c2.12-.39 4.13-.8 6-1 1-.12 1.87-.27 2.76-.35l2.56-.21c6.57-.51 10.64-.19 10.66-.44z" fill="#AFB5DD"/><path d="M216.19 78.83s-.26-.19-.81-.45a25.753 25.753 0 0 0-2.44-1 54.372 54.372 0 0 0-9.38-2.55c-8.1-1.54-19.53-1.74-32-.39a98.002 98.002 0 0 0-17.32 3.42 64.271 64.271 0 0 0-13.28 5.55 51.34 51.34 0 0 0-8 5.57 17.197 17.197 0 0 0-2.51 2.54 20.644 20.644 0 0 0 2.83-2.14 62.365 62.365 0 0 1 8.09-5.17 69.073 69.073 0 0 1 13.21-5.22 104.218 104.218 0 0 1 17.13-3.27c12.34-1.35 23.67-1.29 31.68 0a67.836 67.836 0 0 1 9.37 2.12c1.117.415 2.264.746 3.43.99zM130.75 97.31a11.169 11.169 0 0 0-2.87-.6 50.298 50.298 0 0 0-8-.46 71.562 71.562 0 0 0-25.73 5.53 104.707 104.707 0 0 0-22.78 13.2c-2.69 2-4.79 3.76-6.21 5a12.351 12.351 0 0 0-2.1 2c.869-.448 1.681-.999 2.42-1.64 1.51-1.12 3.69-2.73 6.43-4.65a118.66 118.66 0 0 1 22.74-12.74 77.298 77.298 0 0 1 25.31-5.8c6.63-.31 10.76.41 10.79.16z" fill="#AFB5DD"/><path d="M222.28 84.67a18.509 18.509 0 0 0-3.36-1.4l-1.84-.68c-.68-.22-1.43-.42-2.23-.66-1.61-.44-3.42-1-5.49-1.42l-3.23-.67c-1.13-.23-2.32-.35-3.54-.54-2.45-.42-5.09-.56-7.87-.78a93.4 93.4 0 0 0-35.65 5.11c-2.61 1-5.1 1.87-7.33 3-1.12.53-2.23 1-3.25 1.51l-2.91 1.56c-1.88.95-3.45 2-4.87 2.9-.71.46-1.37.86-2 1.26l-1.57 1.17a18.636 18.636 0 0 0-2.84 2.29 19.543 19.543 0 0 0 3.13-1.87l1.62-1.07c.6-.37 1.28-.74 2-1.15 1.44-.81 3-1.83 4.92-2.71l2.92-1.47c1-.51 2.12-.93 3.24-1.43 2.22-1 4.7-1.86 7.29-2.8a97.72 97.72 0 0 1 35.21-5.05c2.74.18 5.36.29 7.78.65 1.21.16 2.39.26 3.51.46l3.21.59c2.06.32 3.87.84 5.49 1.22.8.2 1.56.36 2.24.55l1.86.56c1.158.398 2.349.689 3.56.87zM135.14 107.15a12.51 12.51 0 0 0-2.88-1 46.238 46.238 0 0 0-8.23-1.54 56.679 56.679 0 0 0-12.42.15 64.74 64.74 0 0 0-14.79 3.59 81.008 81.008 0 0 0-23.64 14.08 83.114 83.114 0 0 0-6.12 5.68 12.748 12.748 0 0 0-2 2.32c.849-.57 1.64-1.223 2.36-1.95 1.47-1.3 3.61-3.17 6.35-5.34a87.996 87.996 0 0 1 23.51-13.57 64.857 64.857 0 0 1 26.69-4c6.99.42 11.11 1.86 11.17 1.58z" fill="#AFB5DD"/><path d="M225.11 89.06c-.52-.18-1.14-.39-1.9-.63a94.221 94.221 0 0 0-9.74-2.53 96.93 96.93 0 0 0-33.14-1.16 83.484 83.484 0 0 0-17.73 4.63 73.906 73.906 0 0 0-13.38 6.71 62.32 62.32 0 0 0-8.08 6 17.52 17.52 0 0 0-2.62 2.61 21.664 21.664 0 0 0 2.94-2.22 80.968 80.968 0 0 1 8.24-5.64A83.86 83.86 0 0 1 180.52 86a103.283 103.283 0 0 1 32.77.78c4.16.74 7.49 1.53 9.79 2.1l2.15.54a2.851 2.851 0 0 1-.12-.36z" fill="#AFB5DD"/><path d="M77.77 129.15a4.214 4.214 0 0 0-.42-1.1c-.31-.7-.78-1.72-1.41-3-1.25-2.62-3.11-6.39-5.45-11-4.69-9.27-11.37-22-19.06-35.83-7.69-13.83-14.94-26.24-20.32-35.13a69.837 69.837 0 0 0-6.94-10.19 25.878 25.878 0 0 0-2.36-2.4 3.87 3.87 0 0 0-.94-.7c-.08.09 1.13 1.15 2.91 3.42a83.265 83.265 0 0 1 6.54 10.34c5.17 9 12.29 21.44 20 35.29 7.71 13.85 14.48 26.47 19.38 35.62 2.46 4.57 4.45 8.27 5.82 10.83.7 1.27 1.24 2.26 1.63 2.92.16.338.37.652.62.93zM198.44 87.04a22.524 22.524 0 0 0-1.73-3.6c-1.19-2.28-3-5.55-5.2-9.56-4.47-8-10.83-19-18.14-31-7.31-12-14.2-22.62-19.3-30.26-2.56-3.81-4.65-6.88-6.14-9a23.47 23.47 0 0 0-2.41-3.18 22.981 22.981 0 0 0 2 3.46c1.36 2.18 3.34 5.32 5.78 9.21 4.91 7.76 11.66 18.49 19 30.43 7.34 11.94 13.77 22.85 18.45 30.75 2.34 3.95 4.24 7.14 5.56 9.35a23.042 23.042 0 0 0 2.13 3.4z" fill="#C182B7"/><path d="M225.84 101.24a.608.608 0 0 0 .44.06c.24-.06.62-.61.62-.61s-.13-.93-.38-1.12c-.25-.19-6.67-2.28-6.67-2.28s-18.42-6.19-39-1.18c-20.58 5.01-25.71 10.57-26.08 10.63-.37.06-8.47 5.87-8.47 5.87s-3.65 3.22-6.68 3.71a14.314 14.314 0 0 1-5.75-.31 86.987 86.987 0 0 0-26.26 3.46c-13.29 4.08-19.6 9.15-19.6 9.15L73.67 139.5l-8.09 8.59s1.66.81 3.4-1.11c1.74-1.92 12.42-11.5 12.6-11.56.18-.06 9.4-6.3 12.3-8.22 2.9-1.92 15.64-6.74 15.64-6.74l9.33-2.1s10.76-1 11.07-1.11a44.37 44.37 0 0 1 5.68.31c1.633.483 3.307.817 5 1a7.508 7.508 0 0 0 3.9-1.36c.12-.25 5.31-5.38 5.31-5.38a152.784 152.784 0 0 1 18-9.7c7.91-3.34 21.82-5.5 21.82-5.5s13-.19 17.49-.07c4.49.12 14.34 2.79 14.52 2.79.18 0 1.92 1.11 2.17 1.11.692.222 1.37.486 2.03.79zM62.18 139.5l-7.67-17.68-17.8-32.38-13.35-18.55L13.1 59.03 4.69 50.5.96 47.15a2.36 2.36 0 0 0 .49 2.35c1 1.11 7.29 7.79 7.29 7.79S20.36 70.02 24.2 76.2c3.84 6.18 14 20.77 14 20.77l7.66 13.1 16.32 29.43z" fill="#5364AC"/><path d="M82.2 28.74c-.08.22-4.2-1.3-11.09-2.69l-2.71-.52c-.94-.17-1.94-.27-3-.43-2-.33-4.24-.47-6.56-.68-5.025-.3-10.065-.232-15.08.2-4.99.51-9.936 1.382-14.8 2.61-2.23.63-4.37 1.18-6.32 1.89-1 .34-1.93.62-2.82 1l-2.57 1c-6.52 2.66-10.28 4.91-10.39 4.7a15.002 15.002 0 0 1 2.56-1.67l1.42-.84c.53-.29 1.12-.58 1.74-.9 1.27-.62 2.68-1.39 4.33-2l2.56-1.09c.9-.38 1.86-.69 2.84-1 1.95-.75 4.1-1.35 6.35-2a95.694 95.694 0 0 1 15-2.74 96.63 96.63 0 0 1 15.3-.24c2.34.24 4.56.42 6.62.8 1 .17 2 .3 3 .5l2.72.6c1.74.34 3.28.83 4.63 1.21.68.2 1.31.37 1.88.56l1.56.56c.98.295 1.928.687 2.83 1.17z" fill="#1E1E1C"/><path d="M140.48 113.71a3.978 3.978 0 0 1-.66-.83c-.4-.56-1-1.4-1.71-2.49-1.47-2.19-3.57-5.35-6.17-9.25-5.19-7.81-12.4-18.58-20.52-30.37-8.12-11.79-15.64-22.35-21.1-30l-6.45-9.05c-.75-1.08-1.33-1.91-1.72-2.49a3.598 3.598 0 0 1-.53-.92c.274.227.516.49.72.78.45.53 1.09 1.32 1.9 2.35 1.63 2.06 3.94 5.08 6.75 8.83 5.64 7.51 13.26 18 21.4 29.8 8.14 11.8 15.23 22.66 20.25 30.59 2.51 4 4.5 7.2 5.85 9.45.68 1.13 1.19 2 1.53 2.61.34.61.5.96.46.99zM139.72 113.65a21.156 21.156 0 0 1-3.37-.47 84.012 84.012 0 0 0-9.19-.92 76.001 76.001 0 0 0-29.83 4.67 67.435 67.435 0 0 0-7.88 3.55 69.365 69.365 0 0 0-6.85 4.22 70.99 70.99 0 0 0-10.28 9 96.331 96.331 0 0 0-6 7 20.053 20.053 0 0 1-2.16 2.63 17.144 17.144 0 0 1 1.79-2.91 72.916 72.916 0 0 1 5.77-7.3 62.836 62.836 0 0 1 25.24-17.29 72.451 72.451 0 0 1 30.29-4.4c3.102.209 6.183.647 9.22 1.31 1.112.19 2.201.495 3.25.91zM64.21 144.2a5.546 5.546 0 0 1-.57-1.13c-.33-.75-.8-1.86-1.4-3.29-.6-1.43-1.32-3.2-2.2-5.23-.88-2.03-1.82-4.36-3-6.9-2.21-5.1-4.95-11.13-8.09-17.78-3.14-6.65-6.79-13.86-10.77-21.35-3.98-7.49-8-14.51-11.73-20.84-3.73-6.33-7.19-11.95-10.2-16.63-1.47-2.35-2.87-4.44-4.08-6.3-1.21-1.86-2.25-3.44-3.11-4.73-.86-1.29-1.52-2.31-2-3a4.8 4.8 0 0 1-.61-1.09c.315.294.588.63.81 1 .5.65 1.22 1.62 2.13 2.88.91 1.26 2 2.8 3.29 4.63s2.7 3.88 4.23 6.21c3.1 4.63 6.66 10.22 10.48 16.53 3.82 6.31 7.82 13.34 11.83 20.84s7.62 14.72 10.74 21.39 5.77 12.76 7.88 17.92c1.09 2.56 2 4.91 2.8 7 .8 2.09 1.49 3.84 2 5.31.51 1.47.94 2.6 1.2 3.38.175.375.3.772.37 1.18zM167.18 2.92a25.818 25.818 0 0 1-3.57-.61 78.416 78.416 0 0 0-9.78-1.2 85.219 85.219 0 0 0-32 4.32 107.61 107.61 0 0 0-28.67 15c-3.38 2.44-6 4.56-7.8 6a22.643 22.643 0 0 1-2.86 2.25c.77-.942 1.627-1.81 2.56-2.59 1.71-1.61 4.27-3.83 7.6-6.38a100.798 100.798 0 0 1 28.8-15.45A85.457 85.457 0 0 1 139.11.4a75.79 75.79 0 0 1 14.74-.18c3.306.268 6.587.796 9.81 1.58 1.15.25 2 .55 2.6.72.6.17.94.36.92.4zM228.07 94.38c-.336.03-.674.003-1-.08-.62-.09-1.54-.23-2.71-.46-2.35-.44-5.72-1.23-9.89-2.07a87.18 87.18 0 0 0-14.76-1.85 81.552 81.552 0 0 0-18.12 1.47 65.636 65.636 0 0 0-17.14 5.88 103.585 103.585 0 0 0-12.86 7.51 89.865 89.865 0 0 0-8 6.12 33.07 33.07 0 0 1-2.83 2.39s.17-.29.6-.76c.43-.47 1-1.16 1.92-2a71.828 71.828 0 0 1 7.81-6.46 96.086 96.086 0 0 1 12.86-7.8 64.465 64.465 0 0 1 17.41-6.07 79.36 79.36 0 0 1 18.37-1.39 82.108 82.108 0 0 1 14.9 2.12c4.17.95 7.49 1.86 9.81 2.43 1.234.248 2.447.59 3.63 1.02z" fill="#1E1E1C"/><path d="M228.46 94.74s-.28-.28-.71-.89c-.43-.61-1-1.5-1.81-2.66l-6.53-9.9c-5.49-8.37-13.1-19.93-21.61-32.61s-16.34-24.1-22-32.35l-6.69-9.79c-.78-1.16-1.38-2.07-1.78-2.69-.4-.62-.59-1-.55-1 .283.249.532.535.74.85.46.58 1.12 1.44 2 2.56 1.69 2.24 4.08 5.51 7 9.58 5.85 8.14 13.78 19.48 22.3 32.17 8.52 12.69 16 24.33 21.34 32.82 2.66 4.24 4.78 7.7 6.22 10.1.71 1.21 1.26 2.14 1.63 2.79.193.32.344.662.45 1.02zM223.62 93.27s.3.22.75.74a17.27 17.27 0 0 1 1.73 2.46c.17.29.34.59.5.92l.25.5c.08.17.16.33.28.61.12.28.21.52.32.81l.17.44.08.23s.05.09 0 .1h-.11l-1.83-.59c-1.75-.56-3.72-1.28-6-1.79a84.402 84.402 0 0 0-35.75-1.39 86.893 86.893 0 0 0-19 5.61 82.28 82.28 0 0 0-14.05 7.78c-1.88 1.35-3.58 2.55-5.05 3.69a19.76 19.76 0 0 1-4.1 2.46 8.418 8.418 0 0 1-3 .66 2.446 2.446 0 0 1-1.05-.12 10.911 10.911 0 0 0 3.83-1c2.36-1 5.06-3.67 8.86-6.41a78.76 78.76 0 0 1 14.22-8.13 84.458 84.458 0 0 1 19.2-5.7 81.37 81.37 0 0 1 36.17 1.75 62.496 62.496 0 0 1 6 2l.68.26c.08.05 0-.05 0-.08v-.14l-.11-.31-.18-.45-.22-.5c-.15-.33-.3-.63-.45-.92-1.25-2.35-2.23-3.43-2.14-3.49z" fill="#1E1E1C"/><path d="M141.9 116.83a27.484 27.484 0 0 1-3.75-.2 90.742 90.742 0 0 0-10.18-.13 84.23 84.23 0 0 0-32.34 8 75.574 75.574 0 0 0-15.39 10.07 141.57 141.57 0 0 0-11.18 10.16c-.76.77-1.47 1.51-2.13 2.21l-1 1a1.23 1.23 0 0 1-1.67 0 5.086 5.086 0 0 1-1.22-2.22 17.987 17.987 0 0 1-.5-2 10.27 10.27 0 0 1-.27-3.76c.08 0 .14 1.33.72 3.66.16.64.354 1.271.58 1.89a4.71 4.71 0 0 0 1.1 1.9.716.716 0 0 0 .4.16.558.558 0 0 0 .34-.13l.93-1.07c.65-.73 1.35-1.49 2.09-2.28a125.151 125.151 0 0 1 11.09-10.42 73.985 73.985 0 0 1 15.57-10.3 80.716 80.716 0 0 1 32.87-7.7 74.21 74.21 0 0 1 10.25.5c1.21.14 2.13.32 2.76.43.321.028.634.105.93.23zM54.96 123.09a24.874 24.874 0 0 1-2.07-3.35l-5.28-9.35C43.14 102.52 37 91.6 29.22 80.2A178.297 178.297 0 0 0 6.84 52.97l-2.31-2.26-2.13-1.93-2-1.8-.31-.28-.07-.07v-.06l.17-.11.66-.43.89-.54a38.015 38.015 0 0 1 3.44-1.92s-.25.27-.79.66-1.36 1-2.41 1.65l-.8.55c-.14.12-.44.22-.14.36l1.78 1.5 2.22 1.86 2.37 2.21a161.146 161.146 0 0 1 22.78 27.17 331.742 331.742 0 0 1 18.15 30.45c2.14 4 3.82 7.26 5 9.53a27.6 27.6 0 0 1 1.62 3.58z" fill="#1E1E1C"/><path d="M63.41 142.22a4.874 4.874 0 0 1-.64-1c-.39-.67-.94-1.67-1.64-3l-6-10.89c-5.02-9.13-12.17-21.75-20.82-35.18-4.33-6.71-8.64-13-12.79-18.52l-1.56-2.06-1.53-2-2.94-3.76c-2-2.35-3.74-4.62-5.5-6.55-3.38-4-6.5-6.82-8.36-9.21a4.49 4.49 0 0 1-1-3.26 2.15 2.15 0 0 1 .36-.84c.12-.16.2-.23.21-.22a5.51 5.51 0 0 0-.34 1.09 4.4 4.4 0 0 0 1.16 3c1.85 2.17 5.16 5 8.6 8.93 1.82 1.9 3.63 4.15 5.65 6.48l3 3.74 1.55 2 1.55 2.06c4.22 5.52 8.57 11.8 12.92 18.53 8.67 13.43 15.73 26.14 20.67 35.42 2.44 4.65 4.34 8.45 5.63 11.08.63 1.32 1.12 2.35 1.44 3.06.179.347.307.717.38 1.1zM141.35 114.43c-.09 0-.15-.32-.66-.48a4.666 4.666 0 0 0-1-.2c-.41-.06-.88-.15-1.41-.21a52.653 52.653 0 0 0-8.2-.46c-3.22 0-6.15.3-8.27.42-2.12.12-3.46.16-3.48 0-.02-.16 1.27-.48 3.39-.82a58.284 58.284 0 0 1 8.34-.77 33.44 33.44 0 0 1 8.38.81c.53.12 1 .27 1.4.39.376.091.736.236 1.07.43.235.137.412.353.5.61.03.19-.02.28-.06.28z" fill="#1E1E1C"/><path d="M140.56 115.15c-.06.18-1.87-.39-4.88-.61a55.34 55.34 0 0 0-11.76.73c-4.6.67-8.78 1.24-11.82 1.59-3.04.35-4.92.48-4.95.32-.03-.16 1.83-.59 4.83-1.14 3-.55 7.16-1.26 11.78-1.93a42.787 42.787 0 0 1 12-.39c3.1.43 4.85 1.33 4.8 1.43zM167.09 97.03c.06.16-1.57.93-4.22 2.11a101.143 101.143 0 0 0-10.09 5 40.706 40.706 0 0 0-8.81 6.84c-2 2.08-3 3.59-3.12 3.49-.12-.1.62-1.75 2.5-4a33.523 33.523 0 0 1 8.83-7.3 62.822 62.822 0 0 1 10.38-4.77c2.74-1.02 4.47-1.51 4.53-1.37z" fill="#1E1E1C"/><path d="M158.73 102.15c.15.31-4 2.41-8.6 5.61s-8.11 6.24-8.35 6c-.24-.24 2.92-3.71 7.68-7s9.16-4.85 9.27-4.61zM225.1 95.88c-.11.35-7.7-2.28-17.45-3.33-9.75-1.05-17.73-.22-17.76-.59 0-.15 2-.56 5.2-.82a69.005 69.005 0 0 1 25.12 2.8c3.1.97 4.94 1.8 4.89 1.94z" fill="#1E1E1C"/><path d="M225.113 97.678c.072-.317-3.855-1.483-8.771-2.602-4.917-1.12-8.961-1.77-9.033-1.452-.073.317 3.854 1.482 8.771 2.602 4.916 1.12 8.961 1.77 9.033 1.452zM94.1 120.79c.06.18-2 .94-5.2 2.52a57.343 57.343 0 0 0-5.41 3.08 60.703 60.703 0 0 0-6.1 4.54 59.638 59.638 0 0 0-5.41 5.34 57.538 57.538 0 0 0-3.86 4.87c-2 2.9-3.11 4.85-3.28 4.76-.17-.09.69-2.15 2.59-5.22a44.442 44.442 0 0 1 3.73-5.12 50.65 50.65 0 0 1 5.47-5.52 51.99 51.99 0 0 1 6.29-4.57 44.942 44.942 0 0 1 5.63-2.91c3.32-1.41 5.51-1.9 5.55-1.77z" fill="#1E1E1C"/><path d="M107.53 117.31c0 .19-2.41.83-6.25 2.22-1.92.68-4.17 1.59-6.62 2.71a78.975 78.975 0 0 0-15 9c-2.13 1.65-4 3.21-5.49 4.59-3 2.75-4.72 4.63-4.87 4.5-.15-.13.31-.57 1-1.48.36-.45.81-1 1.37-1.59.56-.59 1.16-1.31 1.91-2a65.045 65.045 0 0 1 5.39-4.84 71.18 71.18 0 0 1 7.29-5.09 74.697 74.697 0 0 1 7.89-4.08 66.458 66.458 0 0 1 6.81-2.51c1-.33 1.89-.54 2.68-.75.79-.21 1.48-.36 2-.46a5.914 5.914 0 0 1 1.89-.22zM113.46 114.34c.07.32-2.44 1.16-5.61 1.88-3.17.72-5.81 1.05-5.88.73-.07-.32 2.44-1.16 5.62-1.88s5.8-1.05 5.87-.73zM31.89 78.06c-.16.09-1.44-2.24-3.7-5.84a119.88 119.88 0 0 0-9.81-13.42A117.49 117.49 0 0 0 6.72 46.97c-3.19-2.82-5.28-4.45-5.17-4.6.11-.15.62.27 1.62.93s2.41 1.69 4.09 3a90 90 0 0 1 12 11.71 89.593 89.593 0 0 1 9.62 13.75c1 1.87 1.84 3.42 2.33 4.52.317.555.547 1.155.68 1.78z" fill="#1E1E1C"/><path d="M3.7 40.96c0 .33-.61.6-1.2 1s-1.07.93-1.38.83c-.15-.06-.22-.31-.13-.66a2.16 2.16 0 0 1 .82-1.12 2.08 2.08 0 0 1 1.31-.42c.36.07.58.21.58.37z" fill="#1E1E1C"/><path d="M20.96 56.72c-.25.23-4.29-3.8-9.54-8.48-5.25-4.68-9.68-8.26-9.48-8.53.2-.27 5 2.92 10.27 7.65s9.01 9.15 8.75 9.36z" fill="#1E1E1C"/><path d="M8.9 38.01c0 .33-1.73.43-3.71.94s-3.52 1.21-3.7.93c-.18-.28 1.21-1.52 3.42-2.07 2.21-.55 4.05-.11 3.99.2zM64.69 148.22a8.87 8.87 0 0 0 1.77-.23 10.002 10.002 0 0 0 4.22-2.8l2.62-2.69c1-1 2-2.06 3.22-3.13a91.834 91.834 0 0 1 8.42-7 83.648 83.648 0 0 1 25.45-12.66 72.444 72.444 0 0 1 16.57-2.82l1.1-.07h3.33c.765-.031 1.531.003 2.29.1.76.09 1.5.23 2.24.36 2.9.47 6.08 1.3 8.28-.71a40.688 40.688 0 0 0 3.11-3.27 12.382 12.382 0 0 1 1.78-1.59l1.9-1.26 1.97-1.3c.63-.41 1.28-.77 1.92-1.15 1.29-.75 2.54-1.53 3.86-2.17a83.588 83.588 0 0 1 15.57-6.42 90.356 90.356 0 0 1 14.93-3.1 87.992 87.992 0 0 1 13.27-.42c2 .09 3.95.31 5.77.47 1.82.16 3.52.49 5.1.79 1.58.3 3.05.63 4.39.94l3.64 1 .79.22c.257.095.505.212.74.35l1.24.66c.634.361 1.304.653 2 .87.25.07.42-.16.53-.32a.852.852 0 0 0 .12-.49.783.783 0 0 0-.18-.39s.21 0 .3.37a.894.894 0 0 1-.09.6c-.1.19-.32.53-.7.47a8.886 8.886 0 0 1-2.1-.8l-1.26-.61a3.53 3.53 0 0 0-.68-.29l-.8-.2-3.64-.9-4.37-.84c-1.58-.27-3.28-.44-5.08-.7-1.8-.26-3.71-.32-5.72-.38a89.76 89.76 0 0 0-13.12.56 91.634 91.634 0 0 0-14.72 3.16 84.804 84.804 0 0 0-15.35 6.4c-1.3.64-2.54 1.42-3.8 2.16-.63.38-1.28.73-1.9 1.14l-1.85 1.23-1.87 1.25c-.585.419-1.125.898-1.61 1.43a37.112 37.112 0 0 1-3.22 3.38 6.986 6.986 0 0 1-2.18 1.23 7.237 7.237 0 0 1-2.46.31 29.078 29.078 0 0 1-4.58-.59c-.74-.13-1.47-.26-2.19-.35a12.764 12.764 0 0 0-2.15-.1h-3.28l-1.08.07a72.233 72.233 0 0 0-16.37 2.73 84.113 84.113 0 0 0-25.26 12.29 98.13 98.13 0 0 0-8.56 6.84c-1.21 1.05-2.28 2.09-3.26 3.05s-1.87 1.84-2.7 2.62a9.809 9.809 0 0 1-4.48 2.7c-.449.102-.911.132-1.37.09a1.392 1.392 0 0 1-.46-.09z" fill="#1E1E1C"/></svg>