<svg width="14" height="12" viewBox="0 0 14 12" fill="none" xmlns="http://www.w3.org/2000/svg">
<path d="M5.65814 11.1181C5.33233 11.1183 5.01526 11.0126 4.75476 10.8169L4.73871 10.8049L1.33449 8.20117C1.0161 7.95705 0.80773 7.59646 0.755211 7.1987C0.702692 6.80095 0.810324 6.39863 1.05444 6.08024C1.29856 5.76186 1.65915 5.55348 2.0569 5.50096C2.45465 5.44844 2.85698 5.55608 3.17537 5.8002L5.3801 7.49102L10.5901 0.693615C10.8341 0.375386 11.1945 0.16711 11.592 0.114593C11.9896 0.062075 12.3917 0.169617 12.71 0.413569L12.6779 0.458238L12.711 0.413569C13.029 0.657896 13.237 1.01841 13.2894 1.41596C13.3418 1.81351 13.2343 2.21561 12.9905 2.53399L6.86214 10.5254C6.72019 10.7096 6.53769 10.8587 6.32879 10.9609C6.11989 11.0632 5.89023 11.1159 5.65764 11.1151L5.65814 11.1181Z" fill="white"/>
</svg>
