<svg width="159" height="215" fill="none" xmlns="http://www.w3.org/2000/svg"><g clip-path="url(#clip0)"><path d="M75.69 167.71v24.6l-28.27 11-.37 5.14s9.55 3.67 14.32 4.41c4.77.74 23.87 1.47 29 0 5.13-1.47 14.69-5.14 15.42-6.25.73-1.11.74-5.14.74-5.14l-24.6-9.54v-24.54l-6.24.32z" fill="#725D55"/><path d="M64.68 206.63c-1.81-.31-17.26-3.3-17.26-3.3l-.37 5.14s13.22 6.61 28.64 5.51a112.648 112.648 0 0 0 26.13-4.77l5.87-2.94-1.1-4.78a74.717 74.717 0 0 1-41.91 5.14zM75.32 174.68l6.98 3.31-.74-9.18-5.87-1.1-.37 6.97z" fill="#493933"/><path d="M81.41 194.98l21.32 7.62 3.81-1.15-25.52-9.9v-18.28c-2.28 1.53.39 21.71.39 21.71z" fill="#493933"/><path d="M51.82 203.69l23.5-8.81.37-2.57-28.28 11.01 4.41.37z" fill="#D3D3D3"/><path d="M93.65 13.13L55.82 163.65l3.13 1s.78-2.6 1-3.39c.22-.79 37.35-147.61 37.35-147.61l-3.65-.52z" fill="#725D55" stroke="#1D1D1B" stroke-miterlimit="10"/><path d="M95.05 9.95c-.35-.09-9.49 34.62-20.41 77.53-10.92 42.91-19.49 77.77-19.14 77.91.35.14 9.48-34.63 20.41-77.54C86.84 44.94 95.4 10.04 95.05 9.95zM98.18 11.51c-.36-.12-9.49 34.63-20.36 77.54-10.87 42.91-19.49 77.76-19.14 77.85.35.09 9.48-34.62 20.41-77.53C90.02 46.46 98.53 11.6 98.18 11.51zM76.06 195.25c.36 0 .65-6.78.65-15.15 0-8.37-.29-15.14-.65-15.14-.36 0-.65 6.78-.65 15.14s.29 15.15.65 15.15zM81.56 196.35c.36 0 .65-6.537.65-14.6 0-8.063-.29-14.6-.65-14.6-.359 0-.65 6.537-.65 14.6 0 8.063.291 14.6.65 14.6z" fill="#1D1F42"/><path d="M81.9 194.24c-.19 0-.42.34-.89.77-.564.561-1.3.914-2.09 1a3.44 3.44 0 0 1-2.19-.71c-.52-.37-.8-.73-1-.66-.2.07-.18.6.31 1.3a3.391 3.391 0 0 0 5.68-.33c.43-.79.34-1.34.18-1.37zM61.865 198.288c7.929-2.986 14.253-5.68 14.127-6.016-.127-.336-6.657 1.813-14.585 4.799-7.928 2.987-14.253 5.68-14.126 6.016.126.336 6.656-1.813 14.584-4.799z" fill="#1D1F42"/><path d="M46.94 209.03c.37 0 .49-1.46.58-3.15.09-1.69.09-3.11-.26-3.19-.35-.08-1 1.3-1 3.12s.33 3.26.68 3.22z" fill="#1D1F42"/><path d="M106.63 201.31c-.11-.19-3 1.72-8.35 3a74.444 74.444 0 0 1-9.52 1.61c-3.928.452-7.877.693-11.83.72a115.497 115.497 0 0 1-21.42-1.85c-5.44-1-8.74-1.9-8.8-1.7.703.407 1.46.71 2.25.9 1.48.47 3.65 1.09 6.36 1.7a97.393 97.393 0 0 0 33.58 1.43 65.085 65.085 0 0 0 9.62-1.92 29.635 29.635 0 0 0 6.13-2.51 6.778 6.778 0 0 0 1.98-1.38z" fill="#1D1F42"/><path d="M106.9 201.32c.13-.33-5.38-2.71-12.3-5.3-6.92-2.59-12.63-4.41-12.76-4.07-.13.34 5.38 2.71 12.3 5.3 6.92 2.59 12.68 4.41 12.76 4.07zM106.91 206.54c-.711.356-1.4.756-2.06 1.2a26.134 26.134 0 0 1-6 2.35 94.284 94.284 0 0 1-21.03 2.86c-7.127.158-14.25-.442-21.25-1.79-5.38-1.05-8.64-2.05-8.7-1.85.686.421 1.431.738 2.21.94 1.46.52 3.6 1.16 6.29 1.82a86.463 86.463 0 0 0 21.45 2.19 81.19 81.19 0 0 0 21.35-3.29 21.975 21.975 0 0 0 6-2.8c1.23-.9 1.79-1.57 1.74-1.63z" fill="#1D1F42"/><path d="M106.89 207.23c.35 0 .78-1.41.66-3.22-.12-1.81-.73-3.19-1.08-3.11-.35.08-.33 1.5-.22 3.19.11 1.69.27 3.1.64 3.14z" fill="#1D1F42"/><path d="M40.17 165.39l14.47 4.3c.71.11 73.89 20.16 99-56.35C179.07 35.86 85.55 1.04 85.55 1.04l7.83 12.13s80 26.22 54 100.17c-26.36 75.1-92 48.62-92 48.62l-15.21 3.43z" fill="#493933" stroke="#1D1D1B" stroke-miterlimit="10"/><path d="M111.96 107.87s.09-.06.23-.19a5.9 5.9 0 0 0 1.07-1.74c.194-.463.347-.941.46-1.43.11-.488.19-.982.24-1.48.027-.412 0-.825-.08-1.23a2.666 2.666 0 0 0-.27-.78c-.09-.17-.17-.25-.18-.24-.01.01 0 .1.11.27.091.253.158.514.2.78.051.395.051.795 0 1.19a10.35 10.35 0 0 1-.25 1.44c-.109.479-.249.95-.42 1.41a9.008 9.008 0 0 1-.52 1.08c-.33.59-.62.9-.59.92z" fill="#255C29"/><path d="M109.98 110.25c.145-.01.287-.044.42-.1a3.393 3.393 0 0 0 1-.6 6.827 6.827 0 0 0 1.21-1.28 4.57 4.57 0 0 0 .57-.88c.15-.33.28-.69.41-1a24.703 24.703 0 0 0 1.08-3.74c.077-.387.134-.777.17-1.17.1-.86 0-.9 0-.9s-.12 1.07-.34 2a33.212 33.212 0 0 1-1.14 3.7c-.13.35-.25.7-.4 1-.14.307-.318.596-.53.86a8.265 8.265 0 0 1-1.15 1.28 3.99 3.99 0 0 1-1 .63c-.104.06-.204.126-.3.2z" fill="#255C29"/><path d="M110.041 110.23a.093.093 0 0 0 .029.046.1.1 0 0 0 .051.024v-.06c.03-.179.03-.361 0-.54a1.008 1.008 0 0 0-.14-.44.43.43 0 0 0-.1-.12.06.06 0 0 0-.07 0v.12c0 .05 0 .25.06.41.009.174.029.348.06.52l.06-.05s.07.09.05.09z" fill="#255C29"/><path d="M95.41 99.54a4.423 4.423 0 0 0-.59-.15l-1.55-.32-2.29-.45a10.082 10.082 0 0 1-2.68-.9 6.868 6.868 0 0 1-1.19-.84 11.025 11.025 0 0 1-1-1 6.848 6.848 0 0 1-.71-1 4.004 4.004 0 0 1-.37-1 1.932 1.932 0 0 1 0-.86.86.86 0 0 1 .36-.52.69.69 0 0 1 .43-.11h.15a.39.39 0 0 0-.15 0 .71.71 0 0 0-.43.1 1 1 0 0 0-.42.56 2 2 0 0 0 0 .92c.065.366.187.72.36 1.05.202.359.443.694.72 1 .307.359.64.693 1 1 .37.337.78.629 1.22.87.86.44 1.785.743 2.74.9.87.17 1.65.3 2.31.41l1.55.26c.178.039.358.066.54.08z" fill="#1D1F42"/><path d="M110.14 110.26a3.242 3.242 0 0 1-.45-.25 3.359 3.359 0 0 1-.44-.42l-.5-.63a38.556 38.556 0 0 0-3.11-3.55 40.49 40.49 0 0 0-3.49-3.16c-.47-.37-.87-.67-1.14-.86a2.635 2.635 0 0 0-.44-.29c.116.131.247.249.39.35.26.22.64.53 1.09.92.92.77 2.16 1.88 3.45 3.19s2.37 2.56 3.14 3.49c.19.23.36.44.53.62.141.151.299.285.47.4.114.07.234.127.36.17.09.02.13.03.14.02z" fill="#255C29"/><path d="M73.83 161.48c40.698 0 73.69-32.992 73.69-73.69S114.528 14.1 73.83 14.1.14 47.092.14 87.79s32.992 73.69 73.69 73.69z" fill="#7DCDEE"/><path d="M61.42 85.06s-5.34-2.39-1.83-8.49a18.61 18.61 0 0 1 10.23-7.94s8.11 3.65 10.26 6.31c2.15 2.66 6.7 8.44 9.26 9.57 2.56 1.13 7.79.11 9.59.12 2.963-.022 5.921.25 8.83.81 2.29.64 6.33 12.13 3 14.4-3.33 2.27-11.21 4.53-15.49 11.32-4.28 6.79-9.26 16.43-9.54 17.75-.28 1.32-12.78 9.53-12.78 9.53s-10.88-4.92-7.58-12.07c3.3-7.15 1.85-21.12 1.85-21.12s-10.77-15.42-9.51-17.29a9.531 9.531 0 0 1 3.71-2.9z" fill="#67B431"/><path d="M69.61 74.26c-1 1.06-.3 4.93.37 9.31.67 4.38 3.7 10.66 6.9 10.4 3.2-.26 7.51-1.28 10.64-1 3.13.28 5.9 2.46 7.77 2.82 1.87.36 5.43-.87 7-2.26 1.57-1.39 2.74-5.41 1.35-5.13-1.39.28-6.69 2.74-9.18 2-2.49-.74-5.49-1.28-9.51-4.29s-8.91-18.72-15.34-11.85z" fill="#E3E476"/><path d="M60.18 16.51s8.36 8.66 13.87 6.33 12.17-1.47 13.42-.63 5.4 3.64 6.36 6.71 7.7 3.37 9.3 3.24a17.82 17.82 0 0 1 8 1.16c2.77 1.26 6.25.58 7.77 2.82 1.52 2.24 4.5 3.64 5.75 4.48 1.25.84 4.59-.54 4.59-.54s-5.17-9.82-24.1-19-41.32-5.11-44.96-4.57zM20.27 138.03l3-4 6.37 4.9s1.93 3.42 4.57 4c2.64.58 9.25-.72 9.25-.72s6.47-2 9.19-2c2.72 0 15.06 3.21 16.1 3.91 1.04.7 6 7.68 6 7.68s4.16 1.9 6 1.9c1.84 0 7.3.39 7.3.39l9.45 1.23.33 2.64s-23 7.18-38.94 2.17c-15.94-5.01-23.19-7.74-38.62-22.1z" fill="#fff"/><path d="M72.5 58.29a2.67 2.67 0 0 0 0 4.84c2.42 1.1 4.92 2.57 5.67 4.22 1.58 3.48 7.67 7.89 8.58 7.9.91.01 6.69-2.75 10.58-3.14 3.89-.39 8-.66 10.42.68 1.86 1 1.22 4.95.82 6.74a2.72 2.72 0 0 1-.84 1.42c-.87.77-2.26 2.13-1.21 2.19 1.22.06 4.74 2.73 5.83 3.59.22.17.412.372.57.6l5.17 7.61a2.647 2.647 0 0 0 1.84 1.14c1.83.25 5.21.74 5.91 1 1 .35 2.82-6.87 3.59-8.46.77-1.59 3.56-3 5.64-1.64 2.08 1.36-1.41 8.94-1.82 9.84 0 .07-.05.13-.07.19l-3.47 9.56a2.668 2.668 0 0 0 .08 2l2 4.42c.214.47.562.866 1 1.14l5.12 3.27a2.681 2.681 0 0 0 3.91-1.01c1.85-3.69 4.92-10.54 5.19-15.62.35-6.65.51-21.19.54-23.74a2.76 2.76 0 0 0-.11-.75l-5-17.54a2.556 2.556 0 0 0-.34-.75l-1.8-2.71a2.667 2.667 0 0 0-3.44-.903c-.387.198-.72.487-.97.843-1 1.38-2.15 2.72-3.15 3-2.23.61-10.76-2.42-12.57-3.34-1.81-.92-5.07-1-6.67-.86-1.22.1-5.28.75-7.14 1a2.72 2.72 0 0 0-1.52.82c-1 1.06-3 3-4.29 3-1.81 0-8.68-2.82-9.71-4.43-.88-1.36-5.67-.53-7.06-.25-.262.04-.528.04-.79 0l-3.32-.34a2.69 2.69 0 0 0-1 .09c-1.43.42-5.27 1.68-5 3.1.09.51-.41.91-1.17 1.28zM80.23 51.79s1.13-3.47-1.72-4.18c-2.85-.71-4.1.25-5.15 1.36-1.05 1.11-1.34 2.42-2.94 2.56-1.6.14-4.46 2.13-3.34 2.28a23.866 23.866 0 0 0 4.73-.75c3.82.16 7.85-.44 8.42-1.27zM44.02 21.64c.85-.31-4.6 3.24 1.42 9.11 6.02 5.87 1.38 10.92 1.38 10.92s-6.49 3.79-6.78 6.92c-.29 3.13-7.17 4.8-7.17 4.8s.73-6.46 3.12-10 1.34-5.14-1.71-6c-3.05-.86-2.18 3.67-.65 4.1 1.53.43 3 4.11 3 4.11s-2.87 2.91-4.87.95c-2-1.96-4.44-2.39-5.07-1.9-.63.49-1.75 3 0 3.61 1.75.61 3.65-5.4 4.89-4.56 1.24.84.41 3 0 5.42s3.6 2.27 3.6 2.27 5.43-.88-.44 3.33-6.4 1.43-10.32 6.34-8.9 14.56-10.23 3.08-2.16-12-3.07-12c-.91 0 12.98-23.38 32.9-30.5zM1.46 78.49s5-4.77 9.27-5.23c4.27-.46 6.31 3.64 5 5.52-1.31 1.88-7.67 4.2-5.77 13 1.9 8.8 3.71 8.85 5.15 13.45 1.44 4.6-.89 10.28-.89 10.28l-5 6.58s-13.6-30-7.76-43.6z" fill="#67B431"/><path d="M54.37 50.68s-2-8.28 1.46-12.92c3.46-4.64 7.2-7.54 8.24-7.75 1.04-.21 2.59-3.39 8.83-.09 6.24 3.3 8.25 5.26 10.89 4.92 2.64-.34-1 5.07-1 5.07s-9-1.5-13.21.77c-4.21 2.27-9.5 8.71-15.21 10z" fill="#fff"/><path d="M113.641 56.48c-.63 1.39-2.72.89-.24 6.19 2.48 5.3.38 7.51.37 9.31-.01 1.8-4 2.76-3.89-.5.11-3.26.58-5.35-1.84-7.59s.3-4.94 1.14-6.18c.84-1.24 4.46-1.23 4.46-1.23zM39.07 25.85c-.57.83 2.83 2.52-3.79 5.61-6.62 3.09-6.56 6.16-8.73 8.93-2.17 2.77-6.57 5.25-6.57 5.25l-4.16 7.48a1.26 1.26 0 0 1-2.44-.37 18.709 18.709 0 0 1 .17-3.88c.57-2.64 2.53-5.55 4.56-8.11 2.03-2.56 12.86-12.79 14-13.55 1.14-.76 7.71-3.82 7.71-3.82l-.75 2.46zM.74 84.05s6-6.23 5.7-1.29c-.3 4.94-1.49 21.06-.81 23.63.68 2.57 3.61 13 3.4 13.78-.21.78-4.07-5.16-4.75-8.64C3.6 108.05.74 84.05.74 84.05zM66.69 75.01c.37-.93-3.37 5.89-2.71 12.08.66 6.19 4.08 5.16 6.34 12.13a25.171 25.171 0 0 1 .47 15.43c-.18.61-.42 1.35-.68 2.16a1.221 1.221 0 1 0 2.26.93c.26-.51.5-1 .71-1.55 1.83-4.5 5.76-12.13 2.31-16.88-3.45-4.75-10.04-20.92-8.7-24.3zM34.31 67.89a.67.67 0 0 0 .74-1.11.67.67 0 0 0-.74 1.11zM34.96 74.21a1.61 1.61 0 0 0 .78-.1.51.51 0 0 0 .3-.45.56.56 0 0 0-.23-.47c-.11-.07-.24-.12-.36-.18a1.158 1.158 0 0 0-.41-.09.66.66 0 0 0-.69.6.631.631 0 0 0 .16.46.7.7 0 0 0 .45.23zM30.6 118.22c.203.147.441.24.69.27.233.06.477.06.71 0 .237-.036.461-.133.65-.28.219-.12.404-.292.54-.5l.22-.45c.1-.307.12-.633.06-.95l-.15-.45a1.912 1.912 0 0 0-.64-.74 1.396 1.396 0 0 0-.68-.27 1.423 1.423 0 0 0-.71 0c-.24.036-.467.132-.66.28-.215.12-.397.292-.53.5l-.22.45a1.81 1.81 0 0 0-.06.95l.15.45c.139.3.357.556.63.74zM35.05 121.49a1.083 1.083 0 1 0 1.209-1.798 1.083 1.083 0 0 0-1.21 1.798zM36.18 117.18c.45-.08.84-.45 1.31-.44.47.01 1.1.66 1.46 1.06l.86-1.73c-.51 0-1-.09-1.52-.16a13.695 13.695 0 0 0-1.5-.31 1.247 1.247 0 0 0-1.141 1.858c.149.259.388.456.671.552a8.893 8.893 0 0 0 1.71.09c.55 0 1.1.06 1.64.07a1.06 1.06 0 0 0 .66-1.91c-1-.84-2.22-1.62-3.55-1.13a1.755 1.755 0 0 0-1.14 1.15c-.07.29.11 1 .54.91v-.01zM44.18 120.49a.666.666 0 0 0 .474.057.665.665 0 0 0 .503-.737.671.671 0 0 0-.226-.42.667.667 0 0 0-.866.215.672.672 0 0 0 .116.885zM49.42 113.3h.17a.677.677 0 0 0 .6-.3.71.71 0 0 0 .11-.51.71.71 0 0 0-.29-.43.702.702 0 0 0-.67-.05l-.16.07a.651.651 0 0 0-.35.7.655.655 0 0 0 .59.51v.01zM115.69 114.62a.387.387 0 0 1 0 .36c-.06.16-.05.16 0 0 0 0 .15-.15.07-.09l.2-.09a.15.15 0 0 1 .15.11c0-.09.07.2 0 .09-.07-.11 0 .25 0 .27l1.69-1.13a9.681 9.681 0 0 0-2.21-.26c-.84 0-1.81 0-2.3.82a1.117 1.117 0 0 0 .29 1.49c.58.47 1.26.28 1.94.27a8.342 8.342 0 0 1 1.79.17c.71.14 1.27-.59 1.36-1.2a2.792 2.792 0 0 0-3.1-3.1c-1.63.26-3.25 2.39-1.51 3.64.91.65 1.93-.42 1.56-1.35h.07zM117.41 121.74a.867.867 0 0 0 .659.141.876.876 0 0 0 .566-.366.88.88 0 1 0-1.225.225zM129.151 121.8a.857.857 0 0 0 .658.141.858.858 0 0 0 .562-.371.89.89 0 0 0-.24-1.22.893.893 0 0 0-.66-.14.925.925 0 0 0-.56.37.99.99 0 0 0-.13.66.868.868 0 0 0 .37.56zM124.9 140.39a7.382 7.382 0 0 0-2.81.09 3.601 3.601 0 0 0-2.39 1 22.49 22.49 0 0 0-3.36 5c-.5.92.63 2.19 1.48 1.32a92.512 92.512 0 0 1 3.42-3.27c.56-.51 1.14-1 1.72-1.51.58-.51 1.11-.85 1-1.71a.767.767 0 0 0-.5-.58c-.82-.25-1.25.24-1.84.74-.59.5-1.15 1-1.71 1.52a75.347 75.347 0 0 0-3.4 3.29l1.48 1.32c.82-1.51 1.74-3 2.67-4.41.19-.29.33-.66.64-.84a3.13 3.13 0 0 1 1.1-.24 7.281 7.281 0 0 0 2.56-.61c.41-.25.48-1-.07-1.11h.01zM89.15 146.17c.351.22.77.306 1.18.24.205-.027.399-.11.56-.24a1.26 1.26 0 0 0 .46-.43l.18-.38c.09-.26.11-.539.06-.81a1.679 1.679 0 0 0-.67-1 1.721 1.721 0 0 0-1.19-.24 1.727 1.727 0 0 0-1 .67l-.19.38a1.58 1.58 0 0 0-.05.81c.087.407.327.764.67 1h-.01zM96.53 144.83l.21-.07a.342.342 0 0 0 .21-.3 1.801 1.801 0 0 0 0-.23.492.492 0 0 0-.11-.23.508.508 0 0 0-.81.05.5.5 0 0 0 0 .5.524.524 0 0 0 .56.28h-.06zM99.26 148.19c.04-.092.068-.19.08-.29a.463.463 0 0 0-.204-.409.46.46 0 0 0-.456-.031c-.089.048-.17.108-.24.18a.562.562 0 0 0-.17.49.599.599 0 0 0 .22.32.563.563 0 0 0 .38.08.56.56 0 0 0 .39-.34zM111.06 141.95c-1.24-1.47-2.47-2.95-3.72-4.4l-1.44 2.84a3 3 0 0 1 2.36 1.13c.262.292.466.631.6 1 .21.63 0 1.33.41 1.91a1.417 1.417 0 0 0 .968.74 1.413 1.413 0 0 0 1.182-.29c1.44-1.44.4-4-.63-5.44a6.392 6.392 0 0 0-4.67-2.58 1.772 1.772 0 0 0-1.822 1.959c.037.337.169.657.382.921 1.22 1.49 2.47 2.95 3.71 4.42 1.46 1.73 4.12-.56 2.67-2.29v.08z" fill="#537833"/><path d="M88.57 54.66c.12-.04.14-.04.06 0a.84.84 0 0 0 .67-.76 3.48 3.48 0 0 0-.94-2.42c-.13-.2-.44-.56-.37-.81s1.2-.3 1.53-.3a38.999 38.999 0 0 1 8.94 1c.26.06 1.39.23 1.42.61.03.38-.59.49-.77.53a4.82 4.82 0 0 1-3.13-.81 24.935 24.935 0 0 0-3.49-1.69 8.906 8.906 0 0 0-2-.38 4.27 4.27 0 0 1-1.7-.3l-.51 2.51a9.84 9.84 0 0 1 5.36.52c.94.29 1.88.59 2.85.81a6.71 6.71 0 0 0 3.14.25 1.303 1.303 0 0 0 1.108-1.189 1.3 1.3 0 0 0-.918-1.341c-1-.31-2.06-.34-3.07-.6-1.01-.26-1.9-.56-2.85-.82a11.49 11.49 0 0 0-6.12-.4c-1 .28-1.64 1.88-.51 2.51a5.64 5.64 0 0 0 2.07.66c.694.03 1.385.1 2.07.21 1.262.41 2.482.942 3.64 1.59 2.14 1 5.81 1.64 6.94-1.17 1.4-3.45-3.91-4-6-4.35a41.216 41.216 0 0 0-4.84-.41c-1.42 0-3.2-.19-4.39.75a2.43 2.43 0 0 0-.23 3.44c.29.43.67.8 1 1.22.085.146.155.3.21.46.07.14.1.23.19.38.23.39 0-.17.07.07a.49.49 0 0 0 .65.23h-.08z" fill="#67B431"/><path d="M88.54 50.93a2.93 2.93 0 0 0-.05 2.36c.12.43.42 1.22 0 1.6a1.18 1.18 0 0 0 1 2 2.48 2.48 0 0 0 1.82-2.94 7.92 7.92 0 0 0-1.35-3.14.88.88 0 0 0-1.4.08l-.02.04z" fill="#67B431"/><path d="M32.82 149.91a74.18 74.18 0 1 1 27.28 11.34 73.847 73.847 0 0 1-27.28-11.34zm82.38-122.2A73 73 0 1 0 134.92 129a73.002 73.002 0 0 0-19.68-101.29h-.04z" fill="#3F5626"/><path opacity=".21" d="M25.5 140.83a71.81 71.81 0 0 1 98.54-104.44c28.85 27.22-46.33.93-73.54 29.77-27.21 28.84 3.84 101.88-25 74.67z" fill="#fff"/></g><defs><clipPath id="clip0"><path fill="#fff" d="M0 0h158.53v214.28H0z"/></clipPath></defs></svg>