<svg width="180" height="243" fill="none" xmlns="http://www.w3.org/2000/svg"><g clip-path="url(#clip0)"><path d="M7.16 152.55l4.17-8.35 2.09-34.43s0-31.31 24-66.26S87.77 9.07 87.77 9.07s21.911 1 32.351 13.31a153.119 153.119 0 0 1 16.17 22.69l9.91 24.78s-1.56-19.56-7.3-31.56-15.91-24.78-24.26-29.74c-8.35-4.96-21.39-11.74-38.87-6.52-17.48 5.22-34.7 19.3-47.22 39.39C16.03 61.51 7.16 92.29 7.16 92.29a307.984 307.984 0 0 0-3.65 30.78 86.511 86.511 0 0 0 1.82 24.26l1.83 5.22z" fill="#E5F1E0"/><path d="M147.77 122.81s-13.57-.52-35.48 17.48c-21.91 18-26.87 57.13-26.87 57.13s-1 15.65 0 22.69c1 7.04 8.61 16.7 15.13 19.31a35.734 35.734 0 0 0 12 2.61s10.18-1.83 11-2.09c.82-.26 8.87-5.74 8.87-5.74l-8.09-.78s-26.09-7.31-23-38.87c0 0 2.61-12 7-19.57 4.39-7.57 19.82-22.69 19.82-22.69l12.79-12.78 3.39-4.18 3.44-12.52z" fill="#35AC62"/><path d="M96.9.46s40.43 4.7 54.78 23.48c14.35 18.78 12.79 17.48 12.79 17.48s10.69 18.26 12.52 47 0 38.08 0 38.08l-1.09 16.4s1.31 15.65 2.61 21.39a44.802 44.802 0 0 1-1.82 25.56c-3.88 10.18-11.18 24.26-20.79 31.83-9.61 7.57-25.47 19.4-39.3 5-15.08-15.69-.09-47.28-.09-47.28l18-25 9.91-19s9.39-21.65 3.39-60.26-12.3-44.46-12.3-44.46S121.9 7.25 96.9.46z" fill="#35AC62"/><path d="M32.07 130.38s3.53-35.74 9-49.57a126.248 126.248 0 0 1 21.66-36.52c9.65-11.48 25.56-20.61 25.56-20.61s11-2.87 14.09-3.65c3.09-.78 12.78 1 12.78 1l5 1.31S106.07 8.51 87.81 9.03c-18.26.52-35 16.44-35 16.44S35.33 41.94 25.9 62.81c-9.43 20.87-11.47 37-11.47 37l-2.09 33.92-.26 10.43s8.25-9.61 19.99-13.78z" fill="#35AC62"/><path d="M143.071 136.9c0-.83-11.74 13-11.74 13s-10.69 9.13-17.21 16.44c-6.52 7.31-9.92 17.21-9.92 17.21s-3.13 14.09-2.08 23c1.05 8.91 4.43 13.86 4.43 13.86l3.07 4.24 3.65 3.65 7.6 4.21 6.78 1.53s-12.49-2.45-16.66-22 9.13-38.36 9.13-38.36l13.56-17.74s9.65-14.35 9.39-19.04zM3.25 168.68s1 11.48 2.08 15.39 6.53 17.22 7.31 17.74c.78.52 11.74 15.92 11.74 15.92l7 6.78 13 8.87s-22.7-3.65-34.7-23.22c-12-19.57-9.13-35-9.13-35l2.7-6.48z" fill="#A1CFA1"/><path d="M148.81 118.68s-13.82-9.13-31 .78-29.48 28.17-29.48 28.17-9.39 13.31-13.3 25.31c-3.91 12-2.91 35.74-2.91 35.74l3.65 11.47 6 8.87 7 6 10.18 4.18s-10.18-4.7-13.57-20.61c-3.39-15.91 4.18-44.87 7.57-51.13 3.39-6.26 9.91-17.74 18-25.57a102.444 102.444 0 0 1 18.26-13.56l9.91-4.18 9.13-2.08.56-3.39z" fill="#3B3D3F"/><path d="M20.47 136.25S1.16 150.46 3.12 172.38a67.62 67.62 0 0 0 14.21 35.87L29.9 223.9l14.61 9.52 16.3 4.56c4.32-.167 8.63-.557 12.91-1.17a50.89 50.89 0 0 0 7.83-2.35l2.74-3.52-4.7-68.09s-7.56-22.95-29.87-29.6c-22.31-6.65-29.25 3-29.25 3z" fill="#3B3D3F"/><path d="M78.77 225.07s-35.61 11.35-55.17-46.56c-19.56-57.91 21.13-47 21.13-47s20.74 6.39 28.56 19.7c7.82 13.31 6.26 11.6 6.26 11.6s-4.69 11-5.48 16.05c-.79 5.05-6.26 32.91 4.7 46.21z" fill="#32363E"/><path d="M37.68 160.11s1.57-2.34 8.61-.39c7.04 1.95 12.39 9.79 14.74 12.53 2.35 2.74 6.52 12.52 7.7 14.08 1.18 1.56 2.6 9.92 2.6 9.92l3.14-20.48s-8.78-20-21.79-25.83c-9.65-4.3-12.13-2.35-14.08-.78-1.95 1.57-4.05 5.52-.92 10.95z" fill="#212121"/><path d="M22.81 134.81c.5.25-2.34 3.26-3 7.57-.66 4.31-.26 24.91 3 34.82s10.44 20.87 10.7 23.09c.26 2.22.78 12-9.26 8.22-10.04-3.78-11.35-8.93-12.14-9.36-.79-.43-9.51-14.77-9.21-30.17.3-15.4 10.69-26.21 10.69-26.21s8.7-8.22 9.22-7.96zM148.03 118.77s-13.3-7.31-31.83 4.69c-18.53 12-33.78 35.74-36.65 44.35-2.87 8.61-7.17 27.78-7.17 27.78s-2.61-20.08 13.82-45.39c16.43-25.31 36.4-33.52 36.4-33.52s18.91-5.87 25.43 2.09z" fill="#8B8E92"/><path d="M31.9 130.56c0-.47-.87-47.14 25.93-81.32 27.6-35.2 53.46-32.61 63.28-26.33l-.54.84c-11.1-7.1-36.76-6-61.95 26.11-26.55 33.89-25.72 80.21-25.72 80.68l-1 .02zM46.83 233.96C6.7 228.41.77 190.13.23 185.79c-1.18-9.41 2.6-20.13 2.76-20.58l.95.33c0 .11-3.86 11-2.72 20.12.54 4.27 6.35 41.86 45.75 47.31l-.14.99z" fill="#255C29"/><path d="M11.59 145.53c0-.15-.78-4 1.55-39.27S38.06 42.09 38.29 41.8C38.52 41.51 64.68.95 99.9 9.93c35.219 8.98 47.589 63.61 47.709 64.16l.29 2.29c-.12-.55-13.81-56.66-48.33-65.48-34.52-8.82-60.21 31.08-60.46 31.48-.25.4-22.66 28.91-25 63.94-2.29 34.7-1.61 38.84-1.58 39l-.94.21z" fill="#255C29"/><path d="M130.439 234.26c-11.07 0-16.42-11.48-18.65-16.24-4-8.55-5.58-29.32 13.77-53 20.77-25.39 20.63-37.89 20.62-38V126.85c11.16-34.65-8.42-88.94-8.61-89.49-.16-.35-17.09-38.93-52.31-36.24-39.11 3-61.57 43.59-73.53 77.14-13.87 38.92-4.77 75.65-4.68 76l-1 .24c-.09-.37-9.27-37.38 4.71-76.59C22.9 44.12 45.57 3.15 85.21.14a46.1 46.1 0 0 1 9.82.28V.14c-.1.71 51 1.26 70.49 42.54 16.43 34.85 13.09 70.7 11.29 90-.34 3.72-.62 6.67-.68 8.88a72.191 72.191 0 0 0 1.52 13.88c1.86 10.79 4 23-1.95 38.33-9.58 24.82-26.52 35.14-39 39.42a19.168 19.168 0 0 1-6.26 1.07zm16.74-107.16c0 1.27-.54 13.77-20.85 38.59-23.83 29.13-14.06 51-13.63 51.91 2.73 5.86 9.14 19.57 23.65 14.61 12.32-4.22 29-14.38 38.43-38.84 5.81-15.05 3.73-27.13 1.89-37.8-.85-5-1.66-9.65-1.53-14.08.06-2.24.34-5.2.69-8.95 1.79-19.16 5.07-54.86-11.21-89.43-15.26-32.35-49.9-39.79-63.72-41.43 25.39 7 38.52 34.63 38.66 35 1.27 3.2 18.84 55.45 7.62 90.42z" fill="#255C29"/><path d="M128.369 234.14c-8.78-.8-24.79-7.68-27.18-29.19-2.39-21.51 9.83-37.46 20.51-47 10.68-9.54 22.38-22.51 22.48-22.63l-.58 1.63a270.042 270.042 0 0 1-21.24 21.73c-10.5 9.37-22.53 25-20.18 46.13 2.32 20.87 14.64 27.78 23.12 28.55l3.07.78z" fill="#1D1F42"/><path d="M111.72 241.9a27.94 27.94 0 0 1-13.6-3.29c-9-5-18.38-17.78-11.8-49.86 6.51-31.7 22.75-48.2 35.24-56.46a67.873 67.873 0 0 1 26.08-10.61l-.12 1.13c-.12 0-12.11 1.47-25.45 10.32-12.31 8.16-28.34 24.47-34.77 55.8-6.46 31.49 2.59 43.91 11.31 48.79 10.77 6 26.17 2.79 33.25-3.86l1.69-.07c-4.65 4.37-13.71 8.11-21.83 8.11z" fill="#255C29"/><path d="M100.44 239.83c-19.65-2.75-26.56-23.22-26.62-23.43-.06-.21-13-37.49 19.65-76.78 13.13-15.78 26.08-24.35 38.49-25.46 10.64-1 16.21 3.81 16.46 4l-.26 1.17c-.06 0-5.93-5.13-16.15-4.19-12.12 1.1-24.83 9.54-37.77 25.1-32.29 38.83-19.61 75.45-19.48 75.82.07.21 6.8 20.09 25.82 22.76l-.14 1.01z" fill="#1D1F42"/><path d="M67.04 237.96a62.107 62.107 0 0 1-21.36-4.37 51.693 51.693 0 0 1-7.64-3.61c-10.57-6.26-16-13.06-26.78-30.3a56.82 56.82 0 0 1-8.29-34.37c0-.17.1-.51.15-.83 1.74-11 7.27-20.39 16.43-27.89.89-.73 1.84-1.45 2.8-2.14 17.6-12.63 41.27 4.09 50 14.16 7.49 8.67 7.18 13.85 7.17 14.06l-1-.07h.5-.5s.24-5-6.92-13.33c-8.51-9.85-31.59-26.24-48.64-14-.94.68-1.87 1.39-2.75 2.11-9 7.3-14.4 16.5-16.1 27.3a8.951 8.951 0 0 1-.17.89 55.932 55.932 0 0 0 8.17 33.62c10.72 17.09 16.05 23.81 26.44 30a50.654 50.654 0 0 0 7.49 3.49c12.61 4.85 29.94 7.28 37.25-1.86l.78.63c-3.79 4.72-10.08 6.51-17.03 6.51z" fill="#1D1F42"/><path d="M76.24 224.8c0-.12-1.58.4-4.48.6a28.092 28.092 0 0 1-12-2c-4.84-1.86-10-5.43-14.87-10.29a85.778 85.778 0 0 1-13.56-17.73 90.94 90.94 0 0 1-8.6-20.62 88.993 88.993 0 0 1-3-18c-.24-2.61-.16-5-.22-7 .09-2.07.14-3.86.23-5.32.09-1.46.23-2.59.28-3.36a4.343 4.343 0 0 0 0-1.19 3.643 3.643 0 0 0-.27 1.15c-.14.76-.32 1.89-.53 3.35-.21 1.46-.29 3.26-.45 5.35 0 2.09-.15 4.47 0 7.11a84.606 84.606 0 0 0 2.81 18.28 88.91 88.91 0 0 0 8.63 21 84.309 84.309 0 0 0 13.84 17.85c5 4.9 10.36 8.49 15.38 10.29a27.051 27.051 0 0 0 12.37 1.64 20.647 20.647 0 0 0 3.34-.67c.386-.092.757-.24 1.1-.44z" fill="#1D1F42"/><path d="M69.48 200.22s0 .27-.14.71a2.853 2.853 0 0 1-1.16 1.55 3.75 3.75 0 0 1-3 .52 16.05 16.05 0 0 1-4-1.55 34.463 34.463 0 0 1-9-6.79 70.149 70.149 0 0 1-14.38-23.68 33.524 33.524 0 0 1-1.8-11.14 26.54 26.54 0 0 1 1.19-7.53c.346-.885.64-1.79.88-2.71a8.496 8.496 0 0 0-1.36 2.53 23.79 23.79 0 0 0-1.63 7.68 32.69 32.69 0 0 0 1.57 11.54 67.066 67.066 0 0 0 14.7 24.16 33.33 33.33 0 0 0 9.46 6.77 15.668 15.668 0 0 0 4.3 1.44c.64.092 1.29.062 1.92-.09a3.651 3.651 0 0 0 1.46-.74c.599-.472.996-1.155 1.11-1.91.04-.52-.09-.77-.12-.76zM73.68 175.11a4.997 4.997 0 0 0-.32-1.87 25.55 25.55 0 0 0-1.93-4.81 36.24 36.24 0 0 0-4.27-6.4 59.449 59.449 0 0 0-6.54-6.74 56.785 56.785 0 0 0-7.4-5.79 16.86 16.86 0 0 0-7.32-2.65 10.8 10.8 0 0 0-5.19.72c-1.14.5-1.65 1-1.61 1 .608-.139 1.204-.33 1.78-.57a12.011 12.011 0 0 1 4.92-.27 16.93 16.93 0 0 1 6.77 2.74 66.398 66.398 0 0 1 7.17 5.75 68.625 68.625 0 0 1 6.49 6.54 43.013 43.013 0 0 1 4.39 6.07c2.16 3.73 2.84 6.35 3.06 6.28z" fill="#1D1F42"/><path d="M70.56 199.85s.12-.18.22-.55c.147-.547.247-1.106.3-1.67.209-2.074.104-4.167-.31-6.21a37.724 37.724 0 0 0-3-8.71 95.796 95.796 0 0 0-5.45-9.81 40.002 40.002 0 0 0-7.23-8.68 23.94 23.94 0 0 0-8-4.66 17.225 17.225 0 0 0-6.16-.94 5.65 5.65 0 0 0-2.25.38c.744.114 1.498.154 2.25.12a19.6 19.6 0 0 1 5.85 1.31 24.43 24.43 0 0 1 7.51 4.69 41.504 41.504 0 0 1 6.93 8.48c4.16 6.66 7.52 13 8.66 18 1.14 5 .43 8.23.68 8.25z" fill="#1D1F42"/></g><defs><clipPath id="clip0"><path fill="#fff" d="M0 0h179.61v242.03H0z"/></clipPath></defs></svg>