<svg width="725" height="589" fill="none" xmlns="http://www.w3.org/2000/svg"><g clip-path="url(#clip0)"><path d="M692.772 359.271a127.153 127.153 0 0 1-2.482 4.525c-32.832 57.199-109.208 92.722-238.013 73.921-73.134-11.183-104.281 29.836-134.44 71.851-.515.725-1.031 1.45-1.555 2.175-31.583 44.059-62.852 88.24-141.036 73.554-82.885-13.105-134.038-80.404-141.953-152.254-.097-.874-.184-1.756-.263-2.63-4.446-46.584 9.296-94.819 44.356-131.233 21.178-21.991 51.267-33.671 82.326-33.304 9.352.174 18.699-.519 27.923-2.071 2.035-.358 4.01-.751 5.932-1.197 39.568-9.042 57.802-35.925 68.984-68.731.263-.778.525-1.556.778-2.342 25.677-78.237 13.804-188.048 153.399-171.894 124.917 9.209 216.591 78.473 261.558 158.387.446.804.891 1.608 1.328 2.412a243.742 243.742 0 0 1 26.14 71.038c.28 1.397.533 2.795.769 4.193 6.36 37.113 2.193 73.187-13.751 103.6z" fill="#F2F2F2"/><path d="M679.613 180.44a191.28 191.28 0 0 1-30.115 28.752c-43.063 33.025-97.606 50.935-151.415 54.692a300.856 300.856 0 0 1-82.579-5.609c-27.608-5.784-53.94-15.971-79.443-27.87-24.803-11.576-48.873-24.629-73.51-36.528.262-.778.524-1.556.777-2.342 26.866 12.93 53.181 27.18 80.36 39.499 25.608 11.611 52.114 21.081 79.836 26.148a299.712 299.712 0 0 0 83.854 3.285c53.661-5.399 108.248-25.196 149.502-60.614a178.455 178.455 0 0 0 21.405-21.825c.446.804.891 1.608 1.328 2.412z" fill="#fff"/><path d="M493.172.822c-.062 0-.125.002-.188.006-66.216 4.148-118.086 59.419-118.086 125.83s51.87 121.682 118.086 125.829a2.871 2.871 0 0 0 2.169-.779 2.858 2.858 0 0 0 .906-2.094V3.702a2.889 2.889 0 0 0-2.887-2.88zM594.414 210.686c-.982 0-1.923-.39-2.618-1.083l-85.617-85.617a3.671 3.671 0 0 1-1.083-2.614V3.702a3.652 3.652 0 0 1 1.165-2.693 3.725 3.725 0 0 1 2.782-1.001c66.648 4.175 118.856 59.807 118.856 126.65a126.894 126.894 0 0 1-30.679 82.741 3.714 3.714 0 0 1-2.669 1.285c-.045.002-.091.002-.137.002z" fill="#CCC"/><path d="M508.807 253.315a3.728 3.728 0 0 1-3.41-2.232 3.663 3.663 0 0 1-.301-1.47V143.444a3.7 3.7 0 0 1 2.282-3.415 3.697 3.697 0 0 1 4.028.801l74.711 74.711a3.696 3.696 0 0 1 1.082 2.714 3.7 3.7 0 0 1-1.221 2.654 127.172 127.172 0 0 1-76.941 32.399 4.382 4.382 0 0 1-.23.007z" fill="#60C2FC"/><path d="M706.523 255.671c-11.986 21.256-28.909 40.005-48.287 54.866-43.063 33.025-97.606 50.935-151.415 54.692a300.814 300.814 0 0 1-82.579-5.609c-27.608-5.784-53.941-15.971-79.443-27.87-25.965-12.118-51.136-25.861-76.988-38.205-25.825-12.337-52.367-22.856-80.176-29.74 2.035-.358 4.01-.751 5.932-1.197 1.817.472 3.629.961 5.434 1.468 54.377 15.202 102.368 45.16 153.425 68.303 25.607 11.611 52.114 21.082 79.836 26.149a299.788 299.788 0 0 0 83.854 3.285c53.661-5.399 108.248-25.197 149.502-60.615a174.254 174.254 0 0 0 40.136-49.72c.28 1.397.534 2.795.769 4.193zM166.674 442.304c53.573 14.975 100.944 44.277 151.162 67.264-.515.725-1.031 1.45-1.555 2.175a491.606 491.606 0 0 1-3.809-1.765c-25.965-12.118-51.136-25.86-76.988-38.205-26.376-12.599-53.494-23.301-81.95-30.177a366.184 366.184 0 0 0-120.242-8.553c-.097-.874-.184-1.756-.263-2.63a368.941 368.941 0 0 1 133.645 11.891z" fill="#fff"/><path d="M382 526.601H1a.998.998 0 0 1-1-1 1 1 0 0 1 1-1h381a1.002 1.002 0 0 1 .707 1.707.997.997 0 0 1-.707.293z" fill="#CCC"/><path d="M155.12 391.697c13.564 0 24.561-10.997 24.561-24.562 0-13.564-10.997-24.561-24.561-24.561-13.565 0-24.561 10.997-24.561 24.561 0 13.565 10.996 24.562 24.561 24.562zM247.019 540.442l.573 12.247-46.963 8.04-.846-18.074 47.236-2.213z" fill="#A0616A"/><path d="M258.744 536.763l1.304 27.84-.5.024a18.991 18.991 0 0 1-11.017-2.665c-2.998-1.911-4.724-4.557-4.86-7.451v-.001l-.796-17.004 15.869-.743z" fill="#2F2E41"/><path d="M245.705 560.594l12.26-.001 5.832-47.288-18.094.001.002 47.288z" fill="#A0616A"/><path d="M242.578 556.591l24.144-.001h.001a15.393 15.393 0 0 1 10.88 4.506 15.38 15.38 0 0 1 4.506 10.88v.5l-39.53.002-.001-15.887z" fill="#2F2E41"/><path d="M129.963 549.139a10.748 10.748 0 0 0 5.052-7.557 10.764 10.764 0 0 0-.307-4.646 10.755 10.755 0 0 0-2.244-4.079l9.785-97.354-23.305 1.629-2.29 95.184a10.8 10.8 0 0 0 13.309 16.823z" fill="#A0616A"/><path d="M142.135 452.378l-24.149-2.943a4.811 4.811 0 0 1-3.418-2.099 4.808 4.808 0 0 1-.644-3.959l6.431-23.386a13.376 13.376 0 0 1 26.548 3.314l.63 24.168a4.813 4.813 0 0 1-1.576 3.688 4.806 4.806 0 0 1-3.822 1.217z" fill="#60C2FC"/><path d="M138.757 562.929a16.66 16.66 0 0 1-12.634-26.002l15.774-16.376 57.5-51.5 30.74-25.509a13.769 13.769 0 0 1 13.093-2.482 13.76 13.76 0 0 1 9.06 9.772l16.06 64.969a4.488 4.488 0 0 1-2.844 5.315l-17.509 6.302a4.509 4.509 0 0 1-3.611-.247 4.492 4.492 0 0 1-2.261-2.827l-6.66-24.976-37.058 35.427 11.562 4.256a4.517 4.517 0 0 1 2.777 5.444l-3.737 13.238a4.479 4.479 0 0 1-4.2 3.275l-66.052 1.921z" fill="#2F2E41"/><path d="M137.186 526.003l-1.521-55.554-9.594-24.366a36.66 36.66 0 0 1 1.857-30.877 36.653 36.653 0 0 1 24.813-18.468c.79-.164 1.578-.324 2.363-.48a36.658 36.658 0 0 1 39.04 17.896 36.672 36.672 0 0 1 4.583 14.476l4.508 41.822-.018.08c-7.189 31.978-27.992 49.577-65.47 55.384l-.561.087z" fill="#60C2FC"/><path d="M159.876 487.414a10.64 10.64 0 0 1 1.653-.123l27.759-41.096-5.257-10.841 15.323-10.072 11.172 18.287a8 8 0 0 1-.912 9.557l-37.993 41.713a10.494 10.494 0 0 1-15.686 11.812 10.502 10.502 0 0 1-4.675-10.98 10.501 10.501 0 0 1 8.616-8.257z" fill="#A0616A"/><path d="M186.86 445.431a4.495 4.495 0 0 1-2.861-2.42l-9.601-20.443a12.497 12.497 0 0 1 20.779-13.891l15.168 16.832a4.512 4.512 0 0 1 1.122 3.576 4.503 4.503 0 0 1-1.975 3.185l-18.931 12.576a4.491 4.491 0 0 1-3.701.585z" fill="#60C2FC"/><path d="M480.882 386.187h-81.07a4.406 4.406 0 0 1 0-8.812h81.07a4.405 4.405 0 1 1 0 8.812z" fill="#CCC"/><path d="M375.581 390.593a9.252 9.252 0 1 1 9.252-9.252 9.26 9.26 0 0 1-9.252 9.252z" fill="#3F3D56"/><path d="M480.882 412.623h-81.07a4.406 4.406 0 0 1 0-8.812h81.07a4.405 4.405 0 1 1 0 8.812z" fill="#CCC"/><path d="M375.581 417.029a9.26 9.26 0 0 1-5.141-1.559 9.255 9.255 0 0 1 8.682-16.242 9.259 9.259 0 0 1 5.711 8.548 9.263 9.263 0 0 1-9.252 9.253z" fill="#3F3D56"/><path d="M480.882 439.059h-81.07a4.406 4.406 0 0 1 0-8.812h81.07a4.405 4.405 0 1 1 0 8.812z" fill="#CCC"/><path d="M375.581 443.465a9.26 9.26 0 0 1-5.141-1.559 9.255 9.255 0 0 1 3.336-16.768 9.252 9.252 0 0 1 11.057 9.075 9.262 9.262 0 0 1-9.252 9.252zM504.175 408.098h33.486a.88.88 0 0 0 .881-.881V200.206a.881.881 0 1 0-1.763 0v206.13h-32.604a.889.889 0 0 0-.625.257.89.89 0 0 0-.192.962.883.883 0 0 0 .817.543z" fill="#3F3D56"/><path d="M647.662 64.906a11.357 11.357 0 1 1-1.824-22.64 11.357 11.357 0 0 1 1.824 22.64zm-.14-1.742a9.61 9.61 0 1 0-1.543-19.16 9.61 9.61 0 0 0 1.543 19.16zM686.771 35.763a6.99 6.99 0 0 0 0-13.979 6.99 6.99 0 0 0 0 13.98zM721.125 10.486a3.671 3.671 0 1 0 0-7.342 3.671 3.671 0 0 0 0 7.342zM594.295 288.46a11.36 11.36 0 0 1-17.466 1.811 11.356 11.356 0 1 1 19.112-10.344c.603 2.95.011 6.019-1.646 8.533zm-17.494-11.559a9.613 9.613 0 0 0 9.941 14.714 9.616 9.616 0 0 0 7.512-7.59 9.61 9.61 0 0 0-17.453-7.124zM607.901 330.23a6.99 6.99 0 1 0 0-13.978 6.989 6.989 0 1 0 0 13.978zM627.398 362.723a3.671 3.671 0 1 0 0-7.342 3.671 3.671 0 0 0 0 7.342zM312.278 97.706a11.358 11.358 0 1 1 15.226 5.117 11.372 11.372 0 0 1-15.226-5.117zm18.778-9.33a9.612 9.612 0 0 0-17.882 6.792 9.613 9.613 0 0 0 13.552 6.09 9.62 9.62 0 0 0 4.33-12.883zM275.364 99.011a6.99 6.99 0 1 0 0-13.98 6.99 6.99 0 0 0 0 13.98zM234.607 94.587a3.67 3.67 0 1 0 0-7.342 3.67 3.67 0 0 0 0 7.341z" fill="#CCC"/><path d="M181.074 369.285l-1.023-2.61c-2.825-7.198-9.579-12.732-16.806-13.769a19.205 19.205 0 0 0-18.639 8.642 42.122 42.122 0 0 0-3.931 9.202c-.323.957-.647 1.649-1.271 1.859-.702.252-1.401-.18-2.559-.898a1.607 1.607 0 0 0-1.716.018 1.608 1.608 0 0 0-.715 1.56l1.215 8.67-1.017-.905c-6.612-5.885-7.971-16.961-3.194-23.988l-10.871 2.234.49-.935a37.127 37.127 0 0 1 21.644-18.28l-10.413-2.293 1.052-.648c9.326-5.745 21.628-5.583 31.34.402a35.547 35.547 0 0 1 16.356 28.936l.058 2.803z" fill="#2F2E41"/></g><defs><clipPath id="clip0"><path fill="#fff" d="M0 0h724.797v588.172H0z"/></clipPath></defs></svg>