<svg width="725" height="589" viewBox="0 0 725 589" fill="none" xmlns="http://www.w3.org/2000/svg">
<g clip-path="url(#clip0)">
<path d="M692.772 359.271C691.976 360.799 691.147 362.302 690.29 363.796C657.458 420.995 581.082 456.518 452.277 437.717C379.143 426.534 347.996 467.553 317.837 509.568C317.322 510.293 316.806 511.018 316.282 511.743C284.699 555.802 253.43 599.983 175.246 585.297C92.3613 572.192 41.2082 504.893 33.2928 433.043C33.1964 432.169 33.1093 431.287 33.0304 430.413C28.5836 383.829 42.3264 335.594 77.3865 299.18C98.5644 277.189 128.653 265.509 159.712 265.876C169.064 266.05 178.411 265.357 187.635 263.805C189.67 263.447 191.645 263.054 193.567 262.608C233.135 253.566 251.369 226.683 262.551 193.877C262.814 193.099 263.076 192.321 263.329 191.535C289.006 113.298 277.133 3.48709 416.728 19.6412C541.645 28.8496 633.319 98.114 678.286 178.028C678.732 178.832 679.177 179.636 679.614 180.44C691.973 202.613 700.793 226.581 705.754 251.478C706.034 252.875 706.287 254.273 706.523 255.671C712.883 292.784 708.716 328.858 692.772 359.271Z" fill="#F2F2F2"/>
<path d="M679.613 180.44C670.651 191.091 660.553 200.732 649.498 209.192C606.435 242.217 551.892 260.127 498.083 263.884C470.43 265.828 442.64 263.94 415.504 258.275C387.896 252.491 361.564 242.304 336.061 230.405C311.258 218.829 287.188 205.776 262.551 193.877C262.813 193.099 263.075 192.321 263.328 191.535C290.194 204.465 316.509 218.715 343.688 231.034C369.296 242.645 395.802 252.115 423.524 257.182C451.183 262.204 479.411 263.31 507.378 260.467C561.039 255.068 615.626 235.271 656.88 199.853C664.626 193.203 671.788 185.902 678.285 178.028C678.731 178.832 679.176 179.636 679.613 180.44Z" fill="white"/>
<path d="M493.172 0.821808C493.11 0.821808 493.047 0.823805 492.984 0.827805C426.768 4.97627 374.898 60.247 374.898 126.658C374.898 193.069 426.768 248.34 492.984 252.487C493.38 252.514 493.777 252.458 494.15 252.324C494.523 252.19 494.864 251.98 495.153 251.708C495.44 251.44 495.669 251.116 495.825 250.756C495.981 250.395 496.061 250.006 496.059 249.614V3.7016C496.057 2.93712 495.752 2.20454 495.211 1.66464C494.67 1.12474 493.937 0.821617 493.172 0.821777L493.172 0.821808Z" fill="#CCCCCC"/>
<path d="M594.414 210.686C593.432 210.686 592.491 210.296 591.796 209.603L506.179 123.986C505.834 123.643 505.561 123.236 505.375 122.787C505.19 122.338 505.094 121.857 505.096 121.372V3.70166C505.094 3.19673 505.196 2.69686 505.397 2.23349C505.597 1.77011 505.892 1.35326 506.261 1.00915C506.632 0.660777 507.07 0.392169 507.548 0.219966C508.027 0.0477633 508.536 -0.0243622 509.043 0.00803686C575.691 4.18332 627.899 59.8146 627.899 126.658C627.901 157.02 617.016 186.377 597.22 209.399C596.887 209.785 596.478 210.098 596.019 210.319C595.56 210.54 595.06 210.664 594.551 210.684C594.506 210.686 594.46 210.686 594.414 210.686Z" fill="#CCCCCC"/>
<path d="M508.807 253.315C507.862 253.314 506.953 252.954 506.263 252.308C505.893 251.964 505.598 251.546 505.397 251.083C505.196 250.619 505.094 250.118 505.096 249.613V143.444C505.096 142.713 505.313 141.998 505.719 141.39C506.125 140.782 506.702 140.309 507.378 140.029C508.053 139.749 508.796 139.676 509.513 139.818C510.23 139.961 510.889 140.313 511.406 140.83L586.117 215.541C586.472 215.896 586.751 216.32 586.937 216.787C587.123 217.253 587.212 217.753 587.199 218.255C587.186 218.757 587.071 219.251 586.861 219.707C586.652 220.163 586.351 220.572 585.978 220.909C564.708 240.059 537.599 251.474 509.037 253.308C508.961 253.312 508.884 253.315 508.807 253.315Z" fill="#60C2FC"/>
<path d="M706.523 255.671C694.537 276.927 677.614 295.676 658.236 310.537C615.173 343.562 560.63 361.472 506.821 365.229C479.167 367.173 451.378 365.286 424.242 359.62C396.634 353.836 370.301 343.649 344.799 331.75C318.834 319.632 293.663 305.889 267.811 293.545C241.986 281.208 215.444 270.689 187.635 263.805C189.67 263.447 191.645 263.054 193.567 262.608C195.384 263.08 197.196 263.569 199.001 264.076C253.378 279.278 301.369 309.236 352.426 332.379C378.033 343.99 404.54 353.461 432.262 358.528C459.921 363.549 488.149 364.655 516.116 361.813C569.777 356.414 624.364 336.616 665.618 301.198C681.947 287.24 695.555 270.383 705.754 251.478C706.034 252.875 706.288 254.273 706.523 255.671Z" fill="white"/>
<path d="M166.674 442.304C220.247 457.279 267.618 486.581 317.836 509.568C317.321 510.293 316.805 511.018 316.281 511.743C315.005 511.158 313.739 510.572 312.472 509.978C286.507 497.86 261.336 484.118 235.484 471.773C209.108 459.174 181.99 448.472 153.534 441.596C114.201 432.122 73.5698 429.232 33.2917 433.043C33.1952 432.169 33.1082 431.287 33.0293 430.413C77.93 426.175 123.227 430.205 166.674 442.304Z" fill="white"/>
<path d="M382 526.601H1C0.734784 526.601 0.480429 526.496 0.292892 526.308C0.105356 526.121 0 525.867 0 525.601C0 525.336 0.105356 525.082 0.292892 524.894C0.480429 524.707 0.734784 524.601 1 524.601H382C382.265 524.601 382.52 524.707 382.707 524.894C382.895 525.082 383 525.336 383 525.601C383 525.867 382.895 526.121 382.707 526.308C382.52 526.496 382.265 526.601 382 526.601Z" fill="#CCCCCC"/>
<path d="M155.12 391.697C168.684 391.697 179.681 380.7 179.681 367.135C179.681 353.571 168.684 342.574 155.12 342.574C141.555 342.574 130.559 353.571 130.559 367.135C130.559 380.7 141.555 391.697 155.12 391.697Z" fill="#A0616A"/>
<path d="M247.019 540.442L247.592 552.689L200.629 560.729L199.783 542.655L247.019 540.442Z" fill="#A0616A"/>
<path d="M258.744 536.763L260.048 564.603L259.548 564.627C255.69 564.881 251.847 563.951 248.531 561.962C245.533 560.051 243.807 557.405 243.671 554.511V554.51L242.875 537.506L258.744 536.763Z" fill="#2F2E41"/>
<path d="M245.705 560.594L257.965 560.593L263.797 513.305L245.703 513.306L245.705 560.594Z" fill="#A0616A"/>
<path d="M242.578 556.591L266.722 556.59H266.723C268.743 556.59 270.744 556.988 272.611 557.761C274.478 558.534 276.174 559.668 277.603 561.096C279.032 562.525 280.165 564.221 280.938 566.088C281.711 567.955 282.109 569.956 282.109 571.976V572.476L242.579 572.478L242.578 556.591Z" fill="#2F2E41"/>
<path d="M129.963 549.139C131.306 548.325 132.455 547.227 133.328 545.921C134.2 544.615 134.776 543.134 135.015 541.582C135.253 540.03 135.148 538.444 134.708 536.936C134.267 535.429 133.501 534.037 132.464 532.857L142.249 435.503L118.944 437.132L116.654 532.316C114.788 534.189 113.674 536.682 113.523 539.322C113.373 541.962 114.196 544.565 115.836 546.639C117.477 548.712 119.821 550.112 122.425 550.573C125.028 551.034 127.711 550.523 129.963 549.139V549.139Z" fill="#A0616A"/>
<path d="M142.135 452.378L117.986 449.435C117.299 449.351 116.638 449.121 116.048 448.758C115.458 448.396 114.953 447.911 114.568 447.336C114.182 446.761 113.925 446.11 113.814 445.427C113.703 444.743 113.741 444.044 113.924 443.377L120.355 419.991C120.803 416.478 122.626 413.286 125.424 411.115C128.223 408.944 131.767 407.971 135.282 408.41C138.796 408.848 141.993 410.663 144.172 413.455C146.35 416.247 147.333 419.79 146.903 423.305L147.533 447.473C147.551 448.165 147.419 448.852 147.147 449.489C146.876 450.125 146.47 450.696 145.957 451.161C145.445 451.627 144.839 451.977 144.179 452.187C143.519 452.397 142.822 452.462 142.135 452.378Z" fill="#60C2FC"/>
<path d="M138.757 562.929C135.831 562.729 133.009 561.76 130.578 560.119C128.146 558.479 126.19 556.226 124.908 553.588C123.626 550.95 123.063 548.02 123.277 545.094C123.49 542.169 124.472 539.351 126.123 536.927L141.897 520.551L199.397 469.051L230.137 443.542C231.931 442.054 234.073 441.045 236.363 440.611C238.653 440.177 241.016 440.331 243.23 441.06C245.444 441.788 247.437 443.067 249.021 444.777C250.606 446.486 251.731 448.57 252.29 450.832L268.35 515.801C268.62 516.882 268.478 518.024 267.952 519.006C267.427 519.989 266.555 520.74 265.506 521.116L247.997 527.418C247.411 527.629 246.787 527.716 246.166 527.674C245.544 527.631 244.938 527.46 244.386 527.171C243.834 526.882 243.348 526.482 242.959 525.995C242.569 525.508 242.286 524.946 242.125 524.344L235.465 499.368L198.407 534.795L209.969 539.051C211.03 539.446 211.903 540.225 212.417 541.233C212.931 542.241 213.049 543.405 212.746 544.495L209.009 557.733C208.752 558.656 208.205 559.472 207.449 560.062C206.693 560.651 205.768 560.983 204.809 561.008L138.757 562.929Z" fill="#2F2E41"/>
<path d="M137.186 526.003L135.665 470.449L126.071 446.083C124.112 441.112 123.263 435.773 123.584 430.439C123.904 425.106 125.387 419.907 127.928 415.206C130.468 410.506 134.005 406.417 138.292 403.227C142.578 400.037 147.509 397.822 152.741 396.738C153.531 396.574 154.319 396.414 155.104 396.258C160.123 395.262 165.294 395.327 170.286 396.45C175.278 397.573 179.98 399.728 184.089 402.777C188.198 405.826 191.623 409.702 194.144 414.154C196.665 418.607 198.226 423.538 198.727 428.63L203.235 470.452L203.217 470.532C196.028 502.51 175.225 520.109 137.747 525.916L137.186 526.003Z" fill="#60C2FC"/>
<path d="M159.876 487.414C160.423 487.33 160.976 487.289 161.529 487.291L189.288 446.195L184.031 435.354L199.354 425.282L210.526 443.569C211.429 445.046 211.827 446.776 211.663 448.5C211.498 450.223 210.779 451.846 209.614 453.126L171.621 494.839C172.218 496.886 172.178 499.066 171.505 501.088C170.833 503.111 169.561 504.882 167.858 506.164C166.155 507.446 164.102 508.179 161.972 508.266C159.842 508.353 157.737 507.79 155.935 506.651C154.133 505.511 152.721 503.851 151.886 501.89C151.051 499.928 150.833 497.759 151.26 495.671C151.688 493.583 152.742 491.674 154.281 490.199C155.82 488.724 157.771 487.753 159.876 487.414Z" fill="#A0616A"/>
<path d="M186.86 445.431C186.237 445.257 185.659 444.951 185.165 444.533C184.671 444.116 184.273 443.597 183.999 443.011L174.398 422.568C172.568 419.812 171.904 416.443 172.554 413.2C173.203 409.956 175.112 407.102 177.862 405.263C180.613 403.425 183.979 402.751 187.225 403.391C190.471 404.031 193.33 405.932 195.177 408.677L210.345 425.509C210.778 425.99 211.102 426.558 211.296 427.175C211.49 427.792 211.548 428.443 211.467 429.085C211.386 429.726 211.168 430.343 210.827 430.893C210.486 431.442 210.031 431.912 209.492 432.27L190.561 444.846C190.023 445.204 189.413 445.441 188.774 445.542C188.135 445.643 187.482 445.605 186.86 445.431Z" fill="#60C2FC"/>
<path d="M480.882 386.187H399.812C398.644 386.187 397.523 385.723 396.697 384.897C395.87 384.071 395.406 382.95 395.406 381.781C395.406 380.613 395.87 379.492 396.697 378.666C397.523 377.839 398.644 377.375 399.812 377.375H480.882C482.051 377.375 483.171 377.839 483.998 378.666C484.824 379.492 485.288 380.613 485.288 381.781C485.288 382.95 484.824 384.071 483.998 384.897C483.171 385.723 482.051 386.187 480.882 386.187Z" fill="#CCCCCC"/>
<path d="M375.581 390.593C373.751 390.593 371.962 390.051 370.44 389.034C368.919 388.017 367.733 386.572 367.032 384.881C366.332 383.191 366.149 381.33 366.506 379.536C366.863 377.741 367.744 376.092 369.038 374.798C370.332 373.504 371.981 372.623 373.776 372.266C375.57 371.909 377.431 372.092 379.121 372.792C380.812 373.493 382.257 374.679 383.274 376.2C384.291 377.722 384.833 379.511 384.833 381.341C384.83 383.794 383.855 386.146 382.12 387.88C380.386 389.615 378.034 390.59 375.581 390.593Z" fill="#3F3D56"/>
<path d="M480.882 412.623H399.812C398.644 412.623 397.523 412.159 396.697 411.333C395.87 410.506 395.406 409.386 395.406 408.217C395.406 407.048 395.87 405.928 396.697 405.102C397.523 404.275 398.644 403.811 399.812 403.811H480.882C482.051 403.811 483.171 404.275 483.998 405.102C484.824 405.928 485.288 407.048 485.288 408.217C485.288 409.386 484.824 410.506 483.998 411.333C483.171 412.159 482.051 412.623 480.882 412.623Z" fill="#CCCCCC"/>
<path d="M375.581 417.029C373.751 417.029 371.962 416.486 370.44 415.47C368.919 414.453 367.733 413.008 367.032 411.317C366.332 409.627 366.149 407.766 366.506 405.971C366.863 404.177 367.744 402.528 369.038 401.234C370.332 399.94 371.981 399.059 373.776 398.702C375.57 398.345 377.431 398.528 379.122 399.228C380.812 399.929 382.257 401.114 383.274 402.636C384.291 404.158 384.833 405.947 384.833 407.776C384.83 410.23 383.855 412.581 382.12 414.316C380.386 416.051 378.034 417.026 375.581 417.029Z" fill="#3F3D56"/>
<path d="M480.882 439.059H399.812C398.644 439.059 397.523 438.595 396.697 437.769C395.87 436.942 395.406 435.822 395.406 434.653C395.406 433.485 395.87 432.364 396.697 431.538C397.523 430.711 398.644 430.247 399.812 430.247H480.882C482.051 430.247 483.171 430.711 483.998 431.538C484.824 432.364 485.288 433.485 485.288 434.653C485.288 435.822 484.824 436.942 483.998 437.769C483.171 438.595 482.051 439.059 480.882 439.059Z" fill="#CCCCCC"/>
<path d="M375.581 443.465C373.751 443.465 371.962 442.922 370.44 441.906C368.919 440.889 367.733 439.444 367.032 437.753C366.332 436.063 366.149 434.202 366.506 432.407C366.863 430.613 367.744 428.964 369.038 427.67C370.332 426.376 371.981 425.495 373.776 425.138C375.57 424.781 377.431 424.964 379.121 425.664C380.812 426.365 382.257 427.55 383.274 429.072C384.291 430.594 384.833 432.383 384.833 434.213C384.83 436.666 383.855 439.017 382.12 440.752C380.386 442.487 378.034 443.462 375.581 443.465Z" fill="#3F3D56"/>
<path d="M504.175 408.098H537.661C537.894 408.098 538.118 408.006 538.284 407.84C538.449 407.675 538.542 407.451 538.542 407.217V200.206C538.542 199.972 538.449 199.748 538.284 199.583C538.118 199.418 537.894 199.325 537.661 199.325C537.427 199.325 537.203 199.418 537.038 199.583C536.872 199.748 536.779 199.972 536.779 200.206V406.336H504.175C504.059 406.336 503.944 406.358 503.837 406.402C503.73 406.446 503.632 406.511 503.55 406.593C503.468 406.675 503.403 406.772 503.358 406.879C503.314 406.986 503.291 407.101 503.291 407.217C503.291 407.333 503.314 407.448 503.358 407.555C503.403 407.662 503.468 407.76 503.55 407.841C503.632 407.923 503.73 407.988 503.837 408.032C503.944 408.076 504.059 408.099 504.175 408.098Z" fill="#3F3D56"/>
<path d="M647.662 64.9058C645.423 65.0862 643.181 64.5986 641.219 63.5046C639.257 62.4106 637.664 60.7594 636.64 58.7598C635.617 56.7602 635.209 54.5019 635.469 52.2707C635.729 50.0395 636.644 47.9354 638.1 46.2246C639.556 44.5138 641.486 43.273 643.647 42.6593C645.808 42.0456 648.102 42.0864 650.24 42.7766C652.378 43.4668 654.263 44.7754 655.657 46.5369C657.051 48.2985 657.891 50.4338 658.071 52.6728C658.313 55.6754 657.352 58.651 655.4 60.9451C653.448 63.2392 650.665 64.664 647.662 64.9058ZM647.522 63.1641C649.417 63.0115 651.223 62.3005 652.714 61.121C654.204 59.9415 655.312 58.3465 655.896 56.5377C656.48 54.7289 656.514 52.7876 655.995 50.9592C655.476 49.1307 654.426 47.4974 652.978 46.2656C651.531 45.0338 649.75 44.259 647.862 44.0391C645.974 43.8191 644.064 44.164 642.372 45.03C640.68 45.8961 639.282 47.2444 638.357 48.9045C637.431 50.5646 637.018 52.4619 637.171 54.3565C637.272 55.6145 637.62 56.8402 638.195 57.9636C638.77 59.0871 639.561 60.0863 640.522 60.9041C641.484 61.722 642.596 62.3425 643.797 62.7303C644.998 63.1181 646.264 63.2655 647.522 63.1642V63.1641Z" fill="#CCCCCC"/>
<path d="M686.771 35.7631C690.631 35.7631 693.76 32.6339 693.76 28.7738C693.76 24.9137 690.631 21.7844 686.771 21.7844C682.911 21.7844 679.781 24.9137 679.781 28.7738C679.781 32.6339 682.911 35.7631 686.771 35.7631Z" fill="#CCCCCC"/>
<path d="M721.125 10.4865C723.152 10.4865 724.796 8.84278 724.796 6.81511C724.796 4.78743 723.152 3.14368 721.125 3.14368C719.097 3.14368 717.453 4.78743 717.453 6.81511C717.453 8.84278 719.097 10.4865 721.125 10.4865Z" fill="#CCCCCC"/>
<path d="M594.295 288.46C593.056 290.334 591.29 291.799 589.219 292.669C587.148 293.54 584.866 293.776 582.66 293.349C580.455 292.923 578.426 291.851 576.829 290.271C575.232 288.691 574.14 286.673 573.691 284.472C573.241 282.271 573.454 279.986 574.303 277.906C575.152 275.827 576.599 274.045 578.46 272.788C580.321 271.53 582.514 270.853 584.76 270.841C587.006 270.83 589.206 271.484 591.08 272.723C593.59 274.386 595.339 276.976 595.941 279.927C596.544 282.877 595.952 285.946 594.295 288.46ZM576.801 276.901C575.753 278.487 575.199 280.348 575.208 282.248C575.218 284.149 575.791 286.004 576.855 287.579C577.92 289.154 579.427 290.378 581.187 291.096C582.946 291.815 584.88 291.995 586.742 291.615C588.604 291.234 590.312 290.31 591.649 288.959C592.986 287.608 593.893 285.891 594.254 284.025C594.615 282.159 594.415 280.228 593.678 278.475C592.942 276.723 591.702 275.229 590.117 274.181C587.989 272.778 585.393 272.277 582.896 272.787C580.4 273.297 578.208 274.777 576.801 276.901Z" fill="#CCCCCC"/>
<path d="M607.901 330.23C611.762 330.23 614.891 327.101 614.891 323.241C614.891 319.381 611.762 316.252 607.901 316.252C604.041 316.252 600.912 319.381 600.912 323.241C600.912 327.101 604.041 330.23 607.901 330.23Z" fill="#CCCCCC"/>
<path d="M627.398 362.723C629.426 362.723 631.069 361.079 631.069 359.051C631.069 357.024 629.426 355.38 627.398 355.38C625.37 355.38 623.727 357.024 623.727 359.051C623.727 361.079 625.37 362.723 627.398 362.723Z" fill="#CCCCCC"/>
<path d="M312.278 97.7064C311.279 95.6947 310.898 93.4318 311.185 91.2038C311.471 88.9758 312.412 86.8828 313.888 85.1894C315.363 83.496 317.308 82.2783 319.477 81.6903C321.645 81.1023 323.938 81.1704 326.068 81.886C328.197 82.6016 330.066 83.9325 331.439 85.7105C332.812 87.4884 333.627 89.6336 333.781 91.8746C333.934 94.1157 333.42 96.352 332.303 98.3008C331.185 100.25 329.515 101.823 327.504 102.823C324.806 104.16 321.687 104.372 318.833 103.413C315.979 102.454 313.621 100.401 312.278 97.7064ZM331.056 88.3752C330.21 86.673 328.878 85.2599 327.229 84.3146C325.58 83.3692 323.688 82.9341 321.792 83.0641C319.895 83.1942 318.08 83.8837 316.576 85.0454C315.071 86.2071 313.945 87.7888 313.34 89.5905C312.734 91.3923 312.677 93.3331 313.174 95.1676C313.672 97.002 314.702 98.6478 316.135 99.8966C317.568 101.146 319.339 101.941 321.224 102.184C323.109 102.426 325.024 102.104 326.726 101.258C329.007 100.122 330.743 98.1271 331.555 95.7119C332.367 93.2967 332.187 90.6582 331.056 88.3752Z" fill="#CCCCCC"/>
<path d="M275.364 99.011C279.224 99.011 282.354 95.8818 282.354 92.0217C282.354 88.1616 279.224 85.0323 275.364 85.0323C271.504 85.0323 268.375 88.1616 268.375 92.0217C268.375 95.8818 271.504 99.011 275.364 99.011Z" fill="#CCCCCC"/>
<path d="M234.607 94.5865C236.635 94.5865 238.278 92.9428 238.278 90.9151C238.278 88.8874 236.635 87.2437 234.607 87.2437C232.579 87.2437 230.936 88.8874 230.936 90.9151C230.936 92.9428 232.579 94.5865 234.607 94.5865Z" fill="#CCCCCC"/>
<path d="M181.074 369.285L180.051 366.675C177.226 359.477 170.472 353.943 163.245 352.906C159.638 352.434 155.972 352.996 152.673 354.526C149.374 356.056 146.576 358.491 144.606 361.548C142.935 364.448 141.615 367.537 140.675 370.75C140.352 371.707 140.028 372.399 139.404 372.609C138.702 372.861 138.003 372.429 136.845 371.711C136.586 371.551 136.288 371.468 135.984 371.471C135.68 371.474 135.384 371.564 135.129 371.729C134.874 371.895 134.672 372.129 134.545 372.405C134.419 372.681 134.373 372.988 134.414 373.289L135.629 381.959L134.612 381.054C128 375.169 126.641 364.093 131.418 357.066L120.547 359.3L121.037 358.365C125.552 349.65 133.334 343.078 142.681 340.085L132.268 337.792L133.32 337.144C142.646 331.399 154.948 331.561 164.66 337.546C169.538 340.671 173.578 344.941 176.429 349.984C179.279 355.028 180.854 360.691 181.016 366.482L181.074 369.285Z" fill="#2F2E41"/>
</g>
<defs>
<clipPath id="clip0">
<rect width="724.797" height="588.172" fill="white"/>
</clipPath>
</defs>
</svg>
