<svg width="60" height="60" fill="none" xmlns="http://www.w3.org/2000/svg"><g clip-path="url(#clip0)"><path d="M3.751 4.082C-.964 8.979.001 14.182.001 29.987c0 13.125-2.29 26.282 9.695 29.38 3.743.962 36.903.962 40.64-.005 4.99-1.288 9.05-5.335 9.605-12.393.078-.985.078-32.962-.002-33.967-.59-7.518-5.218-11.85-11.315-12.728C47.226.072 46.946.012 39.776 0 14.344.012 8.77-1.12 3.751 4.082z" fill="url(#paint0_linear)"/><path d="M29.994 7.848c-9.077 0-17.697-.808-20.99 7.642-1.36 3.49-1.162 8.023-1.162 14.513 0 5.695-.182 11.047 1.163 14.51 3.284 8.455 11.975 7.645 20.985 7.645 8.692 0 17.655.905 20.987-7.645 1.363-3.525 1.163-7.99 1.163-14.51 0-8.655.477-14.243-3.72-18.438-4.25-4.25-9.998-3.717-18.436-3.717h.01zM28.01 11.84c18.935-.03 21.346-2.135 20.016 27.108-.473 10.342-8.348 9.207-18.028 9.207-17.65 0-18.157-.505-18.157-18.162 0-17.863 1.4-18.143 16.17-18.158v.005zm13.81 3.678a2.658 2.658 0 1 0 .001 5.315 2.658 2.658 0 0 0 0-5.315zm-11.825 3.107c-6.282 0-11.375 5.095-11.375 11.378 0 6.282 5.093 11.375 11.375 11.375 6.283 0 11.373-5.093 11.373-11.375 0-6.283-5.09-11.378-11.372-11.378zm0 3.993c9.763 0 9.776 14.77 0 14.77-9.76 0-9.774-14.77 0-14.77z" fill="#fff"/></g><defs><linearGradient id="paint0_linear" x1="3.866" y1="56.167" x2="59.63" y2="7.904" gradientUnits="userSpaceOnUse"><stop stop-color="#FD5"/><stop offset=".5" stop-color="#FF543E"/><stop offset="1" stop-color="#C837AB"/></linearGradient><clipPath id="clip0"><path fill="#fff" d="M0 0h60v60H0z"/></clipPath></defs></svg>