<svg width="25" height="25" fill="none" xmlns="http://www.w3.org/2000/svg"><path d="M9.778 3.89c.008-.103.021-.204.021-.307A3.587 3.587 0 0 0 6.216 0a3.587 3.587 0 0 0-3.583 3.583c0 .103.013.204.022.306A2.888 2.888 0 0 0 1.04 6.47v.697a.398.398 0 0 0 .637.318L3.27 6.29l-.477-.637-.953.714c.033-.685.409-1.301.98-1.66.29.882.913 1.626 1.763 2.06H3.234a1.2 1.2 0 0 0-1.148.867l-.632 2.209a.4.4 0 0 0 .383.507v1.547l-.421 1.82c-.12.324-.099.685.06.994.136.266.365.467.638.578l-.648 1.686a.399.399 0 0 0 .371.54H3.43v4.532c-.245.28-.399.642-.399 1.042v.398c0 .22.179.398.399.398h2.388c.22 0 .398-.178.398-.398 0 .22.178.398.398.398h2.389c.22 0 .398-.178.398-.398v-.398c0-.4-.154-.762-.398-1.042v-4.531h1.592a.398.398 0 0 0 .372-.541l-.649-1.686c.274-.111.503-.312.64-.578.157-.31.178-.67.059-.995l-.422-1.819V10.35a.4.4 0 0 0 .383-.507l-.631-2.21a1.2 1.2 0 0 0-1.149-.865H7.85a3.559 3.559 0 0 0 1.764-2.062c.57.36.946.977.98 1.661l-.953-.714-.478.637 1.592 1.194a.395.395 0 0 0 .417.038.398.398 0 0 0 .22-.356v-.697c0-1.102-.639-2.098-1.613-2.58zM6.216.795A2.79 2.79 0 0 1 8.961 3.12a1.635 1.635 0 0 1-1.153-1.18l-.012-.048a.397.397 0 0 0-.667-.183l-.995.995c-.305.305-.729.48-1.16.48H3.46A2.789 2.789 0 0 1 6.216.797zM2.851 7.852a.399.399 0 0 1 .383-.288h.196v1.99H2.365l.486-1.702zm-.667 6.496a.44.44 0 0 1-.017-.368.422.422 0 0 0 .019-.057l.437-1.89a.41.41 0 0 0 .01-.09V10.35h.797v1.518L2.4 14.542a.432.432 0 0 1-.217-.194zm1.644 8.741a.797.797 0 0 1 1.592 0H3.828zm.398-1.536v-4.037h.796v4.037a1.577 1.577 0 0 0-.398-.056c-.138 0-.27.023-.398.056zm2.388.494c-.244.28-.398.642-.398 1.042 0-.4-.153-.762-.398-1.042v-4.531h.796v4.531zm.398 1.042a.797.797 0 0 1 1.593 0H7.012zm.398-1.536v-4.037h.797v4.037a1.576 1.576 0 0 0-.398-.056c-.139 0-.27.023-.399.056zm1.593-13.99h.195c.177 0 .335.12.383.29l.486 1.701H9.003v-1.99zm0 2.787h.796v1.593c0 .03.003.06.01.09l.438 1.89c.005.02.01.039.018.057a.44.44 0 0 1-.017.368.434.434 0 0 1-.217.194l-1.028-2.674V10.35zm1.012 6.37H2.417L4.1 12.34h4.23l1.684 4.38zM8.207 7.564v3.98H4.226v-3.98h.398v1.99c0 .22.178.398.398.398H7.41c.22 0 .399-.178.399-.398v-1.99h.398zM5.42 9.156V7.9a2.093 2.093 0 0 0 1.592 0v1.257H5.42zm1.84-2.991a.398.398 0 0 0-.248.369v.445a1.285 1.285 0 0 1-1.592 0v-.445a.398.398 0 0 0-.248-.369 2.774 2.774 0 0 1-1.713-2.184h1.514a2.42 2.42 0 0 0 1.724-.714l.561-.56a2.43 2.43 0 0 0 1.718 1.232 2.772 2.772 0 0 1-1.715 2.226zM22.93 9.843l-.632-2.21a1.2 1.2 0 0 0-1.148-.865h-1.343a3.566 3.566 0 0 0 1.944-3.185A3.587 3.587 0 0 0 18.168 0a3.587 3.587 0 0 0-3.583 3.583c0 1.357.753 2.574 1.943 3.184h-1.342a1.2 1.2 0 0 0-1.149.867l-.631 2.209a.4.4 0 0 0 .383.507v1.564l-.17 1.183a1.78 1.78 0 0 0 .418 1.417c.23.264.531.445.861.538l-.308 2.005a.397.397 0 0 0 .393.459h.398v4.531c-.244.28-.398.642-.398 1.042v.398c0 .22.178.398.398.398h2.389c.22 0 .398-.178.398-.398 0 .22.178.398.398.398h2.389c.22 0 .398-.178.398-.398v-.398c0-.4-.154-.762-.399-1.042v-4.531h.399a.397.397 0 0 0 .393-.459l-.308-2.005c.33-.093.631-.274.86-.538.339-.39.49-.906.418-1.418l-.17-1.182V10.35a.4.4 0 0 0 .384-.507zm-2.772-2.28v.186l-.745.497-.508-.509.521-.173h.732zM18.168.797a2.79 2.79 0 0 1 2.745 2.323 1.635 1.635 0 0 1-1.153-1.18l-.012-.047a.397.397 0 0 0-.667-.183l-.995.995c-.306.305-.73.48-1.161.48h-1.512A2.789 2.789 0 0 1 18.168.797zM15.41 3.981h1.514a2.42 2.42 0 0 0 1.724-.714l.56-.56a2.43 2.43 0 0 0 1.719 1.232 2.772 2.772 0 0 1-1.716 2.226.398.398 0 0 0-.248.369v.345l-.796.265-.796-.265v-.345a.398.398 0 0 0-.249-.37 2.774 2.774 0 0 1-1.712-2.183zm.766 3.583h.733l.521.173-.508.508-.746-.496v-.185zm0 1.142l.576.383a.397.397 0 0 0 .502-.05l.913-.912.913.912a.398.398 0 0 0 .502.05l.575-.383v2.838h-1.592V8.758h-.796v2.787h-1.593v-2.84zm-.796 3.206l-.36 2.346a.982.982 0 0 1-.382-.265.984.984 0 0 1-.23-.784L14.58 12a.395.395 0 0 0 .004-.056V10.35h.796v1.562zm0-2.358h-1.064l.486-1.702a.399.399 0 0 1 .383-.288h.195v1.99zm.398 13.535a.797.797 0 0 1 1.593 0h-1.593zm.398-1.536v-4.037h.797v4.037a1.577 1.577 0 0 0-.398-.056c-.139 0-.27.023-.399.056zm2.389.494c-.245.28-.398.642-.398 1.042 0-.4-.154-.762-.398-1.042v-4.531h.796v4.53zm.398 1.042a.797.797 0 0 1 1.592 0h-1.592zm.398-1.536v-4.037h.796v4.037a1.577 1.577 0 0 0-.398-.056c-.138 0-.27.023-.398.056zm-.796-4.833V14.33h-.796v2.389h-2.323l.674-4.38h4.094l.673 4.38h-2.322zm3.131-2.727a.98.98 0 0 1-.382.265l-.36-2.346V10.35h.796v1.593c0 .018 0 .037.003.056l.174 1.21a.984.984 0 0 1-.231.784zm-.742-4.439v-1.99h.195c.177 0 .334.118.383.288l.486 1.702h-1.064z" fill="#fff"/></svg>