<svg width="231" height="61" fill="none" xmlns="http://www.w3.org/2000/svg"><path fill-rule="evenodd" clip-rule="evenodd" d="M27.48 30.7L.97 23.036 20.869 3.9l6.611 26.8z" fill="#F39200"/><path fill-rule="evenodd" clip-rule="evenodd" d="M34.075 57.484L7.502 49.836 27.48 30.7l6.594 26.784z" fill="#FDD400"/><path fill-rule="evenodd" clip-rule="evenodd" d="M54.038 38.283L27.48 30.7l19.88-19.2 6.677 26.783z" fill="#E94591"/><path fill-rule="evenodd" clip-rule="evenodd" d="M27.48 30.7l26.541 7.6-19.946 19.184L27.48 30.7z" fill="#C52D88"/><path fill-rule="evenodd" clip-rule="evenodd" d="M.97 23.02l26.51 7.68L7.5 49.836.97 23.02z" fill="#3AAA35"/><path fill-rule="evenodd" clip-rule="evenodd" d="M27.48 30.7L20.87 3.9l26.491 7.6L27.48 30.7z" fill="#FFED00"/><path fill-rule="evenodd" clip-rule="evenodd" d="M27.48 30.7L.97 23.036 20.869 3.9l6.611 26.8z" fill="#F39200"/><path fill-rule="evenodd" clip-rule="evenodd" d="M34.075 57.484L7.502 49.836 27.48 30.7l6.594 26.784z" fill="#787FBD"/><path fill-rule="evenodd" clip-rule="evenodd" d="M54.038 38.283L27.48 30.7l19.88-19.2 6.677 26.783z" fill="#E94792"/><path fill-rule="evenodd" clip-rule="evenodd" d="M27.48 30.7l26.541 7.6-19.946 19.184L27.48 30.7z" fill="#64B6E7"/><path fill-rule="evenodd" clip-rule="evenodd" d="M.97 23.02l26.51 7.68L7.5 49.836.97 23.02z" fill="#93C461"/><path fill-rule="evenodd" clip-rule="evenodd" d="M27.48 30.7L20.87 3.9l26.491 7.6L27.48 30.7z" fill="#FFED00"/><path d="M85.016 29.031H62.85V10.69h2.835v15.669h6.838V10.689h2.836v15.669h6.837V10.689h2.836v18.342h-.016zM102.565 29.031l-3.775-5.85c-.535-.842-.988-1.393-1.345-1.684-.356-.276-.907-.422-1.669-.422h-2.333v7.94h-2.836V10.673h2.836v7.68h2.123c.729 0 1.28-.146 1.652-.421.373-.276.827-.843 1.394-1.685l3.565-5.574h3.224l-4.164 6.465c-.94 1.345-1.718 2.171-2.301 2.495.405.146.778.405 1.134.778.357.373.81.988 1.345 1.847l4.342 6.757h-3.192v.016zM110.503 13.233c1.815-1.831 4.019-2.738 6.595-2.738 2.576 0 4.796.907 6.611 2.738 1.831 1.83 2.738 4.035 2.738 6.61 0 2.593-.907 4.797-2.738 6.612-1.831 1.83-4.035 2.738-6.611 2.738-2.576 0-4.78-.907-6.595-2.738-1.814-1.831-2.722-4.035-2.722-6.611 0-2.576.908-4.78 2.722-6.611zm11.245 1.83c-1.263-1.263-2.803-1.895-4.634-1.895-1.831 0-3.37.632-4.618 1.896-1.247 1.264-1.879 2.868-1.879 4.78 0 1.944.632 3.532 1.879 4.796 1.248 1.264 2.787 1.88 4.618 1.88 1.831 0 3.387-.632 4.634-1.88 1.264-1.264 1.88-2.852 1.88-4.796 0-1.912-.632-3.5-1.88-4.78zM136.413 15.89l-5.234 13.125h-3.111l7.567-18.342h1.653l7.486 18.342h-3.111l-5.25-13.125zM151.902 24.916l-1.686 4.115h-3.111l7.567-18.342h1.653l7.486 18.342H160.7l-1.653-4.115h-7.145zm3.581-9.074l-2.593 6.4h5.185l-2.592-6.4zM230.974 38.267H62.85v1.782h168.124v-1.782zM66.56 49.366h1.944l3.257 8.296h1.118v3.322h-1.863v-1.507h-6.952v1.507h-1.863v-3.322h1.118l3.24-8.296zm.988 2.69l-2.22 5.622h4.424l-2.204-5.622zM82.18 49.366v10.095h-1.93v-6.32l-3.774 6.32h-1.67V49.366h1.929v6.53l3.824-6.53h1.62zM94.477 51.148l-1.345 1.28c-.907-.972-1.944-1.458-3.094-1.458-.972 0-1.783.324-2.447.989-.664.664-.988 1.474-.988 2.446 0 .68.145 1.28.437 1.799.292.518.713.94 1.248 1.231a3.687 3.687 0 0 0 1.782.454c.551 0 1.07-.097 1.523-.308.454-.21.972-.583 1.523-1.134l1.296 1.361c-.745.73-1.458 1.231-2.122 1.523-.664.292-1.426.421-2.269.421-1.571 0-2.851-.502-3.856-1.49-1.005-.989-1.507-2.269-1.507-3.824 0-1.005.227-1.896.68-2.69.454-.778 1.103-1.41 1.961-1.896a5.442 5.442 0 0 1 2.739-.713 5.75 5.75 0 0 1 2.414.535c.794.324 1.458.826 2.025 1.474zM95.856 49.366h5.59v1.896h-1.848v8.215h-1.944v-8.215h-1.798v-1.896zM106.551 49.366h1.944l3.889 10.095h-1.993l-.794-2.074h-4.116l-.826 2.074h-1.993l3.889-10.095zm.988 2.69l-1.361 3.467h2.706l-1.345-3.467zM114.57 49.366h1.945v3.808h3.37v-3.808h1.944v10.095h-1.944v-4.424h-3.37v4.424h-1.945V49.366zM124.844 59.477V49.382h1.944v8.377h3.387v-8.377h1.944v8.377h2.058V61h-1.799v-1.506h-7.534v-.016zM135.957 49.366h1.912v10.095h-1.912V49.366zM148.095 49.366v10.095h-1.928v-6.32l-3.775 6.32h-1.669V49.366h1.928v6.53l3.824-6.53h1.62zm-6.433-2.706h1.524c.113.195.291.324.502.422.21.097.47.145.778.145.307 0 .599-.048.842-.162.162-.08.308-.21.438-.405h1.523a2.051 2.051 0 0 1-.827 1.394c-.453.34-1.118.534-1.96.534-.567 0-1.037-.08-1.426-.243a2.224 2.224 0 0 1-.924-.68c-.259-.276-.405-.616-.47-1.005zM151.092 49.366h1.944v3.808h3.37v-3.808h1.945v10.095h-1.945v-4.424h-3.37v4.424h-1.944V49.366zM164.461 49.366h1.944l3.889 10.095h-1.993l-.794-2.074h-4.115l-.827 2.074h-1.993l3.889-10.095zm.988 2.69l-1.361 3.467h2.706l-1.345-3.467zM181.893 49.123c1.426 0 2.657.519 3.694 1.556 1.021 1.037 1.54 2.3 1.54 3.791 0 1.475-.503 2.722-1.523 3.743-1.021 1.02-2.253 1.54-3.695 1.54-1.523 0-2.771-.52-3.775-1.572-1.005-1.053-1.507-2.301-1.507-3.743 0-.973.227-1.847.697-2.658a5.126 5.126 0 0 1 1.928-1.928c.81-.502 1.685-.729 2.641-.729zm-.032 1.88c-.94 0-1.718.324-2.366.972-.632.648-.956 1.474-.956 2.479 0 1.118.405 1.993 1.199 2.657a3.325 3.325 0 0 0 2.139.762c.907 0 1.685-.324 2.333-.989.648-.664.956-1.474.956-2.43 0-.956-.324-1.782-.972-2.447-.616-.68-1.394-1.004-2.333-1.004zM198.925 51.148l-1.345 1.28c-.908-.972-1.945-1.458-3.095-1.458-.972 0-1.782.324-2.447.989-.664.664-.988 1.474-.988 2.446 0 .68.146 1.28.437 1.799.292.518.713.94 1.248 1.231a3.687 3.687 0 0 0 1.782.454c.551 0 1.07-.097 1.523-.308.454-.21.973-.583 1.524-1.134l1.296 1.361c-.746.73-1.459 1.231-2.123 1.523-.664.276-1.426.421-2.268.421-1.572 0-2.852-.502-3.857-1.49-1.004-.989-1.507-2.269-1.507-3.824 0-1.005.227-1.896.681-2.69.454-.778 1.102-1.41 1.961-1.896a5.565 5.565 0 0 1 2.738-.713c.826 0 1.636.178 2.414.535.794.324 1.458.826 2.026 1.474zM201.305 59.477V49.382h1.588c.923 0 1.604.065 2.025.178.6.162 1.086.454 1.442.892.357.437.535.94.535 1.539 0 .389-.081.73-.243 1.053a2.497 2.497 0 0 1-.794.875c.616.292 1.069.648 1.345 1.086.275.437.421.94.421 1.539a2.89 2.89 0 0 1-.438 1.556c-.291.47-.664.81-1.134 1.053-.47.227-1.102.34-1.912.34h-2.835v-.016zm1.928-8.264v2.123h.421c.47 0 .81-.097 1.053-.292.227-.194.341-.47.341-.81a.946.946 0 0 0-.324-.745c-.211-.179-.551-.276-.989-.276h-.502zm0 3.84v2.593h.486c.794 0 1.329-.097 1.62-.308.276-.194.422-.502.422-.875 0-.438-.162-.778-.487-1.037-.324-.26-.874-.373-1.62-.373h-.421zM210.041 49.366h1.912v10.095h-1.912V49.366zM213.814 49.366h5.591v1.896h-1.848v8.215h-1.944v-8.215h-1.799v-1.896zM224.492 49.366h1.945l3.888 10.095h-1.993l-.794-2.074h-4.115l-.826 2.074h-1.993l3.888-10.095zm.989 2.69l-1.361 3.467h2.706l-1.345-3.467zM178.428.4c-6.108 0-10.305 4.05-10.305 9.787 0 5.395 3.727 9.317 9.236 9.754l-6.028 8.766h7.292l8.49-12.882c1.037-1.539 1.621-3.483 1.621-5.622 0-5.752-4.165-9.803-10.306-9.803zm0 13.643c-2.106 0-3.969-1.426-3.969-3.84 0-2.414 1.863-3.84 3.969-3.84 2.139 0 3.97 1.393 3.97 3.84s-1.831 3.84-3.97 3.84zM191.424 7.06h11.18l-2.463 6.108h-2.528l-2.446 6.109h2.511l-3.807 9.43h6.74l3.808-9.43h2.771l2.462-6.109h-2.787l2.787-6.902V.967h-18.228V7.06zM230.973.967h-18.229V7.06h11.164l-2.447 6.108h-2.527l-2.463 6.109h2.528l-3.808 9.43h6.74l3.808-9.43h2.771l2.463-6.109h-2.787l2.787-6.902V.967z" fill="#0067B1"/></svg>