<svg width="65" height="41" fill="none" xmlns="http://www.w3.org/2000/svg"><path fill-rule="evenodd" clip-rule="evenodd" d="M12.476 13.411L0 9.803 9.364.808l3.112 12.603z" fill="#F39200"/><path fill-rule="evenodd" clip-rule="evenodd" d="M15.58 26.008L3.077 22.414l9.4-9.003 3.104 12.597z" fill="#FDD400"/><path fill-rule="evenodd" clip-rule="evenodd" d="M24.965 16.977l-12.49-3.566 9.35-9.03 3.14 12.596z" fill="#E94591"/><path fill-rule="evenodd" clip-rule="evenodd" d="M12.475 13.411l12.476 3.566-9.372 9.03-3.104-12.596z" fill="#C52D88"/><path fill-rule="evenodd" clip-rule="evenodd" d="M.006 9.796l12.469 3.615-9.4 9.003L.005 9.796z" fill="#3AAA35"/><path fill-rule="evenodd" clip-rule="evenodd" d="M12.475 13.411L9.363.808 21.825 4.38l-9.35 9.031z" fill="#FFED00"/><path fill-rule="evenodd" clip-rule="evenodd" d="M12.476 13.411L0 9.803 9.364.808l3.112 12.603z" fill="#F39200"/><path fill-rule="evenodd" clip-rule="evenodd" d="M15.58 26.008L3.077 22.414l9.4-9.003 3.104 12.597z" fill="#787FBD"/><path fill-rule="evenodd" clip-rule="evenodd" d="M24.965 16.977l-12.49-3.566 9.35-9.03 3.14 12.596z" fill="#E94792"/><path fill-rule="evenodd" clip-rule="evenodd" d="M12.475 13.411l12.476 3.566-9.372 9.03-3.104-12.596z" fill="#64B6E7"/><path fill-rule="evenodd" clip-rule="evenodd" d="M.006 9.796l12.469 3.615-9.4 9.003L.005 9.796z" fill="#93C461"/><path fill-rule="evenodd" clip-rule="evenodd" d="M12.475 13.411L9.363.808 21.825 4.38l-9.35 9.031z" fill="#FFED00"/><path d="M16.183 40.079H2.693V28.914h1.723v9.534h4.16v-9.534H10.3v9.534h4.162v-9.534h1.722V40.08zM26.865 40.079l-2.297-3.559c-.326-.51-.603-.85-.822-1.02-.22-.17-.553-.256-1.014-.256h-1.418v4.835h-1.722V28.914h1.722v4.672h1.29c.447 0 .78-.085 1.007-.256.227-.17.503-.51.844-1.02l2.169-3.396h1.963l-2.538 3.941c-.574.816-1.041 1.326-1.403 1.518.241.085.475.24.695.467.22.227.489.603.822 1.127l2.651 4.112h-1.95zM31.7 30.474c1.106-1.113 2.445-1.666 4.019-1.666 1.574 0 2.913.553 4.026 1.666s1.666 2.452 1.666 4.026c0 1.574-.553 2.913-1.666 4.026s-2.452 1.666-4.026 1.666c-1.574 0-2.913-.553-4.02-1.666-1.105-1.113-1.658-2.452-1.658-4.026 0-1.574.553-2.92 1.659-4.026zm6.84 1.113c-.765-.773-1.708-1.156-2.821-1.156-1.113 0-2.056.383-2.814 1.156-.759.772-1.141 1.743-1.141 2.913 0 1.184.382 2.155 1.14 2.92.76.766 1.702 1.149 2.815 1.149 1.12 0 2.056-.383 2.821-1.148.766-.766 1.149-1.737 1.149-2.92 0-1.17-.383-2.142-1.149-2.914zM47.472 32.09l-3.19 7.989h-1.9l4.608-11.165h1.007l4.558 11.165h-1.9l-3.183-7.99zM56.899 37.577l-1.02 2.502h-1.9l4.607-11.165h1.007L64.15 40.08h-1.9l-1.007-2.502H56.9zm2.183-5.523l-1.58 3.892h3.154l-1.574-3.892zM34.6 7.982c-3.466 0-5.848 2.296-5.848 5.557 0 3.055 2.112 5.288 5.238 5.53l-3.416 4.968h4.14l4.813-7.308c.58-.88.921-1.978.921-3.19 0-3.268-2.36-5.557-5.848-5.557zm0 7.733c-1.19 0-2.247-.808-2.247-2.183 0-1.375 1.056-2.183 2.247-2.183 1.212 0 2.247.787 2.247 2.183s-1.035 2.183-2.247 2.183zM41.973 11.76h6.337l-1.397 3.46H45.49l-1.397 3.465h1.432l-2.155 5.352h3.82l2.156-5.352h1.574l1.396-3.466h-1.574l1.574-3.913V8.293H41.973v3.467zM64.409 8.293H54.066v3.467h6.345l-1.397 3.46h-1.432l-1.396 3.465h1.432l-2.155 5.352h3.82l2.156-5.352h1.58l1.39-3.466h-1.574l1.574-3.913V8.293z" fill="#0067B1"/></svg>