<svg version="1.1" id="Слой_1" xmlns="http://www.w3.org/2000/svg" xmlns:xlink="http://www.w3.org/1999/xlink" x="0" y="0" viewBox="0 0 248.5 160" xml:space="preserve"><style>.st1{fill:#272828;stroke:#222323;stroke-miterlimit:10}.st3,.st8{fill:#5a5d64}.st8{opacity:.45;enable-background:new}.st10{fill:#1e1d1e}.st11{fill:#909099}</style><defs><path id="SVGID_1_" d="M-375.4-57.4h623.9V160h-623.9z"/></defs><clipPath id="SVGID_2_"><use xlink:href="#SVGID_1_" overflow="visible"/></clipPath><g clip-path="url(#SVGID_2_)"><path class="st1" d="M7.6 5.9s-5.5 1.6-7 4.7S14.1 116.2 17 123.3c2.9 7 17.7 3.1 17.7 3.1L7.6 5.9z"/><path class="st1" d="M248 116.4s.1 5.9-.8 6.6c-3.5 3.1-124.8 38-132.3 36.4s-84.5-21.5-87.3-27c-2.7-5.5-3.1-7.4-3.1-7.4l223.5-8.6z"/><path d="M156.9 102L30.8 127c-4.5.9-8.9-2.5-9.8-7.6L4.1 14.8c-.8-5 2.3-9.3 6.9-9.5L140 .5c3.2-.1 6.3 3.2 7 7.3l14.3 85.6c.7 4.1-1.3 8-4.4 8.6z" fill="#33363f" stroke="#1d1d1b" stroke-miterlimit="10"/><path class="st3" d="M13.5 5s71.6 111.5 72.3 111.1 18.1-3.3 18.1-3.3L33.2 4.3 13.5 5zM84.7 2.3l55.4 103.3 16.8-3.6L105.6 1.8l-20.9.5z"/><path d="M4.1 14.8s-1.4-4.8 6-7.5 130.1-5.8 132.6-4.6c2.5 1.2 4.4 5.2 4.4 5.2s.6-6.7-8.1-7.3C130-.2 9.3 5.3 9.3 5.3s-5.9 2.1-5.2 9.5z" fill="#8c8e93"/><path d="M156.9 102L30.8 127c-4.5.9-8.9-2.5-9.8-7.6L4.1 14.8c-.8-5 2.3-9.3 6.9-9.5L140 .5c3.2-.1 6.3 3.2 7 7.3l14.3 85.6c.7 4.1-1.3 8-4.4 8.6z" fill="none" stroke="#1d1d1b" stroke-miterlimit="10"/><path d="M154.5 98.4L32.7 121.7c-4.2.8-8.4-2.4-9.1-7.1L8 18.9c-.8-4.7 2.2-8.7 6.5-8.9l124.4-5.4c3-.1 6 3 6.6 6.8l13.1 78.9c.7 3.9-1.2 7.5-4.1 8.1z" fill="#222323"/><g opacity=".45"><path class="st8" d="M127.9 5l-22 1c11.6 22.4 35.8 70.2 47.1 92.7l1.3-.3c3-.6 4.9-4.2 4.3-8l-6-36.1c-8.5-17-17.7-35.3-24.7-49.3zM116 105.8L55.8 8.2 29.7 9.3C46.2 34.7 82 90.5 94.5 109.9l21.5-4.1z"/></g><path d="M160.3 96.8c2.7.4 90.2 18.9 87.6 19.6-84.9 23.5-129.9 34-133.4 34s-89.2-23.1-90-25.8 135.8-27.8 135.8-27.8z" fill="#4b4c4c" stroke="#222323" stroke-miterlimit="10"/><path class="st10" d="M57.2 124.9l-9.5 2-12.6-3.6 9.6-2 12.5 3.6zM62.8 123.2l-5.7 1.2-11.3-3.1 5.8-1.2 11.2 3.1zM69.4 121.8l-5.6 1.2-11.3-3.1 5.7-1.2 11.2 3.1zM75.9 120.4l-5.5 1.2-11.3-3.1 5.6-1.1 11.2 3zM82 119.1l-5.4 1.2-11.2-3 5.5-1.1 11.1 2.9zM88.3 117.8l-5.3 1.1-11.2-3 5.4-1.1 11.1 3zM94.4 116.5l-5.3 1.1-11.1-3 5.3-1.1 11.1 3zM100.3 115.2l-5.2 1.1-11.1-2.9 5.2-1.1 11.1 2.9zM106.3 113.9l-5.1 1.1-11.1-2.9 5.1-1.1 11.1 2.9zM112.3 112.7l-5 1.1-11-2.8 5-1 11 2.7zM118.1 111.4l-4.9 1.1-11-2.8 4.9-1 11 2.7zM123.5 110.3l-4.8 1-10.9-2.8 4.8-1 10.9 2.8zM129 109.1l-4.7 1-10.9-2.7 4.8-1 10.8 2.7zM134.5 107.9l-4.7 1-10.8-2.7 4.7-1 10.8 2.7zM157.2 103.1l-4.3.9-10.7-2.6 4.4-.9 10.6 2.6zM162 102l-4.3.9-10.6-2.6 4.3-.9L162 102zM166.9 101l-4.2.9-10.6-2.5 4.2-.9 10.6 2.5zM171.8 99.9l-4.1.9-10.5-2.5 4.2-.9 10.4 2.5zM170.1 106.2l-4.3 1-10.9-2.6 4.3-.9 10.9 2.5zM174.9 105.1l-4.2.9-10.8-2.6 4.3-.9 10.7 2.6zM179.7 104l-4.2.9-10.8-2.6 4.2-.9 10.8 2.6zM184.6 102.9l-4.1.9-10.8-2.5 4.1-.9 10.8 2.5zM182.9 109.2l-4.3 1-11.1-2.7 4.3-1 11.1 2.7zM187.6 108.1l-4.2 1-11.1-2.7 4.2-.9 11.1 2.6zM192.4 107l-4.1 1-11-2.6 4.2-.9 10.9 2.5zM140.9 106.5l-4.6 1-10.8-2.7 4.6-.9 10.8 2.6zM146 105.4l-4.5 1-10.8-2.6 4.5-.9 10.8 2.5zM151.1 104.3l-4.4.9-10.7-2.6 4.5-.9 10.6 2.6zM154.1 109.8l-4.5 1-11-2.7 4.5-1 11 2.7zM159.1 108.6l-4.4 1-11-2.7 4.5-1 10.9 2.7zM164.2 107.5l-4.4 1-10.9-2.7 4.4-.9 10.9 2.6zM167 112.9l-4.5 1-11.2-2.8 4.5-1 11.2 2.8zM172 111.8l-4.4 1-11.2-2.8 4.4-1 11.2 2.8zM177 110.6l-4.3 1-11.2-2.7 4.4-1 11.1 2.7zM199.7 118.5l-4.3 1.1-11.7-2.9 4.3-1.1 11.7 2.9zM208.6 123.2l-4.3 1.1-12-3 4.3-1.1 12 3zM213.4 121.9l-4.2 1.1-11.9-2.9 4.3-1.1 11.8 2.9zM218.2 120.6l-4.2 1.1-11.9-2.9 4.2-1.1 11.9 2.9zM197.2 105.9l-4 .9-11-2.6 4.1-.9 10.9 2.6zM196.1 112.4l-4.2 1-11.3-2.7 4.2-1 11.3 2.7zM200.8 111.3l-4.1 1-11.3-2.7 4.2-1 11.2 2.7zM205.5 110.1l-4.1 1-11.2-2.7 4.1-1 11.2 2.7zM210.2 109l-4 1-11.2-2.6 4-.9 11.2 2.5zM209.6 115.6l-4.1 1.1-11.6-2.8 4.2-1 11.5 2.7zM214.3 114.5l-4.1 1-11.5-2.8 4.1-1 11.5 2.8zM218.9 113.3l-4 1-11.5-2.7 4.1-1 11.4 2.7zM228.2 117.8l-8.7 2.3-11.8-2.9 8.8-2.3 11.7 2.9zM232.8 116.6l-4 1.1-11.7-2.8 4-1 11.7 2.7zM238.6 115.6l-3.9 1.1-26.5-6.3 4-1 26.4 6.2zM139.9 113.1l-4.7 1.1-11.2-2.8 4.8-1 11.1 2.7zM147.9 111.3l-7 1.6-11.1-2.8 7-1.5 11.1 2.7zM134.6 114.3l-4.8 1.1-11.2-2.9 4.9-1 11.1 2.8zM129.1 115.6l-4.9 1.1-11.2-2.9 4.9-1.1 11.2 2.9zM123.4 116.8l-5 1.1-11.3-2.9 5-1.1 11.3 2.9zM117.8 118.1l-5.1 1.1-11.3-3 5.1-1.1 11.3 3zM112 119.4l-5.1 1.2-11.4-3 5.2-1.1 11.3 2.9zM105.4 120.9l-5.2 1.2-11.4-3.1 5.3-1.1 11.3 3zM99.5 122.2l-5.3 1.2-11.5-3.1 5.4-1.2 11.4 3.1zM93.4 123.6l-5.4 1.2-11.5-3.1 5.5-1.2 11.4 3.1zM87 125l-5.5 1.2-11.6-3.2 5.6-1.2L87 125zM80.7 126.4l-5.6 1.3-11.6-3.2 5.7-1.2 11.5 3.1zM74.3 127.8l-5.7 1.3-11.6-3.2 5.8-1.3 11.5 3.2zM156.2 115.8l-4.6 1.1-11.4-2.9 4.7-1.1 11.3 2.9zM161.5 114.6l-4.6 1.1-11.3-2.8 4.6-1 11.3 2.7zM151 117l-4.7 1.1-11.4-2.9 4.8-1.1L151 117zM145.6 118.3l-4.8 1.1-11.5-2.9 4.8-1.1 11.5 2.9zM140 119.6l-4.9 1.1-11.5-3 4.9-1.1 11.5 3zM134.5 120.9l-5 1.2-11.5-3 5-1.1 11.5 2.9zM128.8 122.2l-5.1 1.2-11.6-3 5.1-1.1 11.6 2.9zM122.4 123.7l-5.1 1.2-11.6-3.1 5.2-1.2 11.5 3.1zM116.5 125.1l-5.2 1.2-11.7-3.1 5.3-1.2 11.6 3.1zM110.5 126.5l-5.3 1.3-11.7-3.2 5.4-1.2 11.6 3.1zM104.3 127.9l-5.4 1.3-11.8-3.2 5.5-1.2 11.7 3.1zM98.1 129.4l-5.5 1.3-11.8-3.3 5.6-1.3 11.7 3.3zM91.8 130.8l-5.6 1.3-11.9-3.3 5.7-1.3 11.8 3.3zM84.3 132.6l-8.7 2-11.9-3.4 8.8-2 11.8 3.4zM174.7 118l-8.5 2.1-11.6-2.9 8.6-2 11.5 2.8zM165.6 120.2l-4.6 1.1-11.6-2.9 4.7-1.1 11.5 2.9zM160.3 121.5l-4.7 1.2-11.7-3 4.8-1.1 11.6 2.9zM154.8 122.8L150 124l-11.8-3 4.9-1.1 11.7 2.9zM149.4 124.2l-4.9 1.2-11.8-3.1 4.9-1.2 11.8 3.1zM143.8 125.5l-5 1.2-11.8-3.1 5-1.2 11.8 3.1zM137.4 127.1l-5.1 1.2-11.9-3.2 5.1-1.2 11.9 3.2zM131.6 128.5l-5.2 1.3-11.9-3.2 5.2-1.2 11.9 3.1zM125.7 129.9l-5.3 1.3-12-3.2 5.3-1.2 12 3.1zM119.6 131.4l-5.4 1.3-12-3.3 5.4-1.3 12 3.3zM113.5 132.9l-5.5 1.3-12.1-3.3 5.5-1.3 12.1 3.3zM107.2 134.5l-5.5 1.4-12.1-3.4 5.6-1.3 12 3.3zM100.4 136.1l-10.3 2.5-12.2-3.5 10.4-2.4 12.1 3.4zM188.8 121.5l-11 2.8-11.9-3 11.1-2.7 11.8 2.9zM177.1 124.4l-4.6 1.2-11.9-3 4.7-1.1 11.8 2.9zM203.1 125l-6.9 1.9-12.1-3 7-1.8 12 2.9zM188.7 128.8l-7.3 1.9-12.2-3.1 7.3-1.9 12.2 3.1zM180.6 131l-33.5 9-12.6-3.4 33.8-8.7 12.3 3.1zM195.4 127l-5.6 1.5-12.2-3.1 5.7-1.5 12.1 3.1zM146.1 140.2l-8.3 2.2-12.7-3.5 8.4-2.2 12.6 3.5zM128.8 144.9l-8.8 2.4-12.8-3.6 8.9-2.3 12.7 3.5zM136.8 142.7l-6.8 1.8-12.7-3.6 6.9-1.8 12.6 3.6zM171.7 125.8L167 127l-12-3.1 4.8-1.2 11.9 3.1zM166.4 127.2l-4.8 1.2-12-3.1 4.8-1.2 12 3.1zM160.9 128.6l-4.9 1.3-12.1-3.2 4.9-1.2 12.1 3.1zM154.7 130.2l-5 1.3-12.1-3.2 5-1.2 12.1 3.1zM149 131.6l-5.1 1.3-12.2-3.2 5.1-1.3 12.2 3.2zM143.2 133.1l-5.2 1.3-12.2-3.3 5.2-1.3 12.2 3.3zM137.2 134.7l-5.3 1.3-12.3-3.3 5.3-1.3 12.3 3.3zM131.2 136.2l-5.3 1.4-12.4-3.4 5.4-1.3 12.3 3.3zM125.1 137.7l-5.5 1.4-12.4-3.4 5.5-1.4 12.4 3.4zM119 139.3l-14 3.6-12.5-3.5 14.1-3.5 12.4 3.4zM67.4 129.4l-5.8 1.3-11.7-3.3 5.9-1.3 11.6 3.3z"/><path class="st11" d="M57.7 123.6l-9.5 2-12.6-3.5 9.6-2 12.5 3.5zM63.3 121.9l-5.7 1.2-11.3-3.1 5.8-1.2 11.2 3.1zM69.9 120.5l-5.6 1.2-11.3-3.1 5.7-1.2 11.2 3.1zM76.4 119.1l-5.5 1.2-11.3-3.1 5.6-1.1 11.2 3zM82.5 117.8l-5.4 1.2-11.2-3 5.5-1.1 11.1 2.9zM88.9 116.5l-5.3 1.1-11.2-3 5.4-1.1 11.1 3zM95 115.2l-5.2 1.1-11.1-2.9 5.3-1.1 11 2.9zM100.8 113.9l-5.1 1.1-11.1-2.9 5.2-1.1 11 2.9zM106.9 112.6l-5.1 1.1-11.1-2.9 5.1-1.1 11.1 2.9zM112.8 111.4l-5 1.1-11-2.8 5-1 11 2.7zM118.6 110.1l-4.9 1.1-11-2.8 4.9-1 11 2.7zM124.1 108.9l-4.8 1-10.9-2.8 4.8-1 10.9 2.8zM129.5 107.8l-4.7 1-10.9-2.8 4.8-1 10.8 2.8zM135 106.6l-4.7 1-10.9-2.7 4.7-1 10.9 2.7zM157.7 101.8l-4.3.9-10.7-2.6 4.4-.9 10.6 2.6zM162.5 100.7l-4.3.9-10.6-2.5 4.3-.9 10.6 2.5zM167.4 99.7l-4.2.9-10.6-2.5 4.3-.9 10.5 2.5zM172.3 98.6l-4.1.9-10.6-2.5 4.2-.9 10.5 2.5zM170.6 104.9l-4.3 1-10.9-2.6 4.3-.9 10.9 2.5zM175.4 103.8l-4.2.9-10.8-2.6 4.3-.9 10.7 2.6zM180.2 102.7l-4.2.9-10.8-2.6 4.2-.9 10.8 2.6zM185.1 101.6l-4.1.9-10.8-2.5 4.1-.9 10.8 2.5zM183.4 107.9l-4.3 1-11.1-2.7 4.3-1 11.1 2.7zM188.1 106.8l-4.2 1-11.1-2.7 4.2-.9 11.1 2.6zM192.9 105.7l-4.1 1-11-2.6 4.2-.9 10.9 2.5zM141.5 105.2l-4.6 1-10.8-2.7 4.6-.9 10.8 2.6zM146.6 104.1l-4.5 1-10.8-2.6 4.5-.9 10.8 2.5zM151.7 103l-4.4.9-10.7-2.6 4.5-.9 10.6 2.6zM154.6 108.4l-4.5 1-11-2.7 4.6-1 10.9 2.7zM159.6 107.3l-4.5 1-11-2.7 4.5-1 11 2.7zM164.7 106.2l-4.4 1-10.9-2.7 4.4-.9 10.9 2.6zM167.5 111.6l-4.5 1.1-11.2-2.8 4.5-1 11.2 2.7zM172.5 110.5l-4.4 1-11.2-2.8 4.5-1 11.1 2.8zM177.5 109.3l-4.3 1-11.2-2.7 4.4-1 11.1 2.7zM200.3 117.2l-4.3 1.1-11.7-2.9 4.3-1.1 11.7 2.9zM209.2 121.8l-4.3 1.2-12-3 4.4-1.1 11.9 2.9zM214 120.6l-4.2 1.1-11.9-2.9 4.3-1.1 11.8 2.9zM218.8 119.3l-4.2 1.1-11.9-2.9 4.2-1.1 11.9 2.9zM197.7 104.6l-4 .9-11-2.6 4.1-.9 10.9 2.6zM196.6 111.1l-4.2 1-11.3-2.7 4.2-1 11.3 2.7zM201.3 110l-4.1 1-11.3-2.7 4.2-1 11.2 2.7zM206 108.8l-4.1 1-11.2-2.7 4.1-1 11.2 2.7zM210.8 107.7l-4 1-11.2-2.6 4-.9 11.2 2.5zM210.1 114.3l-4.1 1.1-11.6-2.8 4.2-1 11.5 2.7zM214.8 113.2l-4.1 1-11.5-2.8 4.1-1 11.5 2.8zM219.4 112l-4 1-11.5-2.7 4.1-1 11.4 2.7zM228.8 116.5l-8.7 2.3-11.8-2.9 8.8-2.3 11.7 2.9zM233.3 115.3l-4 1.1-11.7-2.8 4-1 11.7 2.7zM239.1 114.3l-3.9 1-26.5-6.3 4-1 26.4 6.3zM140.5 111.8l-4.7 1.1-11.2-2.8 4.8-1 11.1 2.7zM148.5 110l-7 1.5-11.1-2.8 7-1.5 11.1 2.8zM135.1 113l-4.8 1.1-11.2-2.9 4.9-1 11.1 2.8zM129.6 114.3l-4.9 1.1-11.2-2.9 4.9-1.1 11.2 2.9zM123.9 115.5l-5 1.1-11.3-2.9 5-1.1 11.3 2.9zM118.3 116.8l-5.1 1.1-11.3-3 5.1-1.1 11.3 3zM112.5 118.1l-5.1 1.2-11.4-3 5.2-1.1 11.3 2.9zM105.9 119.6l-5.3 1.2-11.4-3 5.3-1.1 11.4 2.9zM100 120.9l-5.3 1.2-11.5-3.1 5.4-1.2 11.4 3.1zM93.9 122.2l-5.4 1.2-11.5-3.1 5.5-1.2 11.4 3.1zM87.5 123.7l-5.5 1.2-11.5-3.2 5.6-1.2 11.4 3.2zM81.2 125.1l-5.6 1.3-11.6-3.3 5.7-1.2 11.5 3.2zM74.8 126.5l-5.7 1.3-11.6-3.3 5.8-1.2 11.5 3.2zM156.8 114.5l-4.6 1.1-11.4-2.9 4.7-1 11.3 2.8zM162 113.3l-4.6 1.1-11.3-2.8 4.6-1 11.3 2.7zM151.5 115.7l-4.7 1.1-11.4-2.9 4.8-1.1 11.3 2.9zM146.1 117l-4.8 1.1-11.4-2.9 4.8-1.1 11.4 2.9zM140.5 118.3l-4.9 1.1-11.5-3 4.9-1.1 11.5 3zM135 119.6l-5 1.1-11.5-3 5-1.1 11.5 3zM129.3 120.9l-5 1.2-11.6-3 5.1-1.1 11.5 2.9zM122.9 122.4l-5.1 1.2-11.6-3.1 5.2-1.2 11.5 3.1zM117.1 123.8l-5.2 1.2-11.7-3.1 5.3-1.2 11.6 3.1zM111.1 125.2l-5.3 1.2-11.8-3.2 5.4-1.2 11.7 3.2zM104.8 126.6l-5.4 1.3-11.8-3.2 5.5-1.2 11.7 3.1zM98.6 128.1l-5.5 1.3-11.8-3.3 5.6-1.3 11.7 3.3zM92.3 129.5l-5.6 1.3-11.9-3.3 5.7-1.3 11.8 3.3zM84.9 131.3l-8.7 2-11.9-3.4 8.8-2 11.8 3.4zM175.3 116.7l-8.5 2.1-11.6-2.9 8.6-2 11.5 2.8zM166.2 118.9l-4.7 1.1-11.6-2.9 4.7-1.1 11.6 2.9zM160.8 120.2l-4.7 1.1-11.7-3 4.8-1.1 11.6 3zM155.3 121.5l-4.8 1.2-11.8-3 4.9-1.1 11.7 2.9zM149.9 122.9l-4.9 1.2-11.8-3.1 4.9-1.2 11.8 3.1zM144.3 124.2l-5 1.2-11.8-3.1 5-1.2 11.8 3.1zM137.9 125.8l-5.1 1.2-11.9-3.1 5.1-1.2 11.9 3.1zM132.2 127.2l-5.2 1.3-11.9-3.2 5.2-1.2 11.9 3.1zM126.3 128.6l-5.3 1.3-12-3.2 5.3-1.3 12 3.2zM120.1 130.1l-5.4 1.3-12-3.3 5.4-1.3 12 3.3zM114 131.6l-5.5 1.3-12.1-3.3 5.5-1.3 12.1 3.3zM107.8 133.1l-5.6 1.4-12.1-3.4 5.6-1.3 12.1 3.3zM100.9 134.8l-10.3 2.5-12.2-3.4 10.4-2.4 12.1 3.3zM189.3 120.2l-11 2.8-11.9-3 11.1-2.7 11.8 2.9zM177.7 123.1l-4.6 1.2-11.9-3 4.7-1.2 11.8 3zM203.6 123.7l-6.9 1.9-12.1-3 7-1.8 12 2.9zM189.2 127.5l-7.3 2-12.3-3.2 7.3-1.9 12.3 3.1zM181.1 129.7l-33.5 9-12.6-3.4 33.8-8.7 12.3 3.1zM195.9 125.7l-5.6 1.5-12.2-3.1 5.7-1.5 12.1 3.1zM146.6 138.9l-8.3 2.2-12.7-3.5 8.4-2.2 12.6 3.5zM129.3 143.6l-8.8 2.3-12.8-3.6 8.9-2.3 12.7 3.6zM137.3 141.4l-6.8 1.8-12.7-3.5 6.9-1.8 12.6 3.5zM172.3 124.5l-4.7 1.2-12-3.1 4.8-1.2 11.9 3.1zM166.9 125.9l-4.8 1.2-12-3.1 4.8-1.2 12 3.1zM161.4 127.3l-4.9 1.3-12.1-3.2 4.9-1.2 12.1 3.1zM155.2 128.9l-5 1.3-12.1-3.2 5-1.2 12.1 3.1zM149.6 130.3l-5.1 1.3-12.2-3.2 5.1-1.3 12.2 3.2zM143.8 131.8l-5.2 1.3-12.2-3.3 5.2-1.3 12.2 3.3zM137.7 133.3l-5.3 1.3-12.3-3.3 5.3-1.3 12.3 3.3zM131.7 134.9l-5.3 1.4-12.4-3.4 5.4-1.3 12.3 3.3zM125.6 136.4l-5.5 1.4-12.4-3.4 5.5-1.4 12.4 3.4zM119.5 138l-14 3.6L93 138l14.1-3.5 12.4 3.5zM67.9 128.1l-5.8 1.3-11.7-3.3 5.9-1.3 11.6 3.3z"/></g></svg>