<svg width="128" height="113" fill="none" xmlns="http://www.w3.org/2000/svg"><g clip-path="url(#clip0)"><path d="M99.96 3.12c-.66-.46-6-3.38-6.71-3-.71.38-5 .44-6.09 1.61-1.09 1.17-6 5.91-6 5.91l30.149 36.77-1 1.59-33.6-38.45s-11.59 8.44-25.1 18.33a4.398 4.398 0 0 1-1.11 1.3l-.78.64c2.77 2.24 3.61 6.06 3.57 9.49a18.796 18.796 0 0 1-.14 2.09c.2.71.35 1.4.48 2.07.34.55.568 1.162.67 1.8a9 9 0 0 1 .94 6.16 5.57 5.57 0 0 1-4.17 4 7 7 0 0 1-7.34-.06 4.001 4.001 0 0 1-1.19-.75c-1.7 1.41-3.32 2.88-4.87 4.06a354.2 354.2 0 0 0-11.1 8.84 57.408 57.408 0 0 0 9.85 7.49 4.18 4.18 0 0 1 4.61-.09c2.58 1.59 5.05 3.32 7.46 5.13a4 4 0 0 1 4 1.26c3.64 3.79 7.41 7.44 11.24 11l1 .75c1.59-1.28 3.4-2.65 3.85-2.46.8.34 8.73 7.2 8.73 7.2s-3.41-4.29.7-12.43 9.37-8 9.37-8 17.4-2.53 21.82-4c4.42-1.47 9-2.77 11.61-4.79 2.61-2.02 5.18-4.17 5.7-7.18.52-3.01-.58-12.12-.58-12.12l-3.22-8.58-6.92-9.5s-6.15-8.39-7.16-9.58c-1.01-1.19-8.02-16.03-8.67-16.5z" fill="#fff"/><g style="mix-blend-mode:multiply"><path d="M126.5 59.46c.51-3-.58-12.12-.58-12.12l-1.55-4.12c-2-1.27-4.3-2.58-5.83-2.7-3-.24-3.8.67-6.35 3.11s-1.49 3.07-1.49 3.07v9l-11.55 9.37-33.74 25 .3.26c1.28-1 2.51-1.83 2.87-1.68.8.34 8.73 7.2 8.73 7.2s-3.41-4.29.7-12.43 9.37-8 9.37-8 17.4-2.53 21.82-4c4.42-1.47 9-2.77 11.61-4.79 2.61-2.02 5.17-4.16 5.69-7.17zM110.41 21.9c-.81-1.09-1.47-2-1.75-2.28-1-1.19-8.05-16-8.7-16.5-.11-.07-.33-.21-.63-.38 1.41 4.71 3.77 12.56 4.83 15.84 1.17 3.62 3.44 3.13 6.25 3.32z" fill="#9CA3D2"/></g><path d="M58.79 85.6c1.26 1.22 2.52 2.42 3.79 3.62 11.12-8.4 48.32-36.74 48.32-36.74l-.18-5.78-51.93 38.9zM83.73 7.57a1.22 1.22 0 1 0 0-2.44 1.22 1.22 0 0 0 0 2.44zM86.1 10.44a1.22 1.22 0 1 0 0-2.44 1.22 1.22 0 0 0 0 2.44zM89.3 13.88a1.22 1.22 0 1 0 0-2.44 1.22 1.22 0 0 0 0 2.44zM92.29 17.59a1.22 1.22 0 1 0 0-2.44 1.22 1.22 0 0 0 0 2.44zM94.83 20.56a1.22 1.22 0 1 0 0-2.44 1.22 1.22 0 0 0 0 2.44zM97.87 24.27a1.22 1.22 0 1 0 0-2.44 1.22 1.22 0 0 0 0 2.44zM100.81 27.55a1.22 1.22 0 1 0 0-2.44 1.22 1.22 0 0 0 0 2.44zM103.55 30.61a1.22 1.22 0 1 0 0-2.44 1.22 1.22 0 0 0 0 2.44zM106.409 34.02a1.22 1.22 0 1 0 0-2.44 1.22 1.22 0 0 0 0 2.44zM109.919 37.91a1.22 1.22 0 1 0 0-2.44 1.22 1.22 0 0 0 0 2.44zM112.669 41.35a1.22 1.22 0 1 0 0-2.44 1.22 1.22 0 0 0 0 2.44zM106.409 45.99a1.22 1.22 0 1 0 0-2.44 1.22 1.22 0 0 0 0 2.44zM103.34 42.63a1.22 1.22 0 1 0 0-2.44 1.22 1.22 0 0 0 0 2.44zM100.209 38.81a1.22 1.22 0 1 0 0-2.44 1.22 1.22 0 0 0 0 2.44zM97.3 35.64a1.22 1.22 0 1 0 0-2.44 1.22 1.22 0 0 0 0 2.44zM94.46 32.47a1.22 1.22 0 1 0 0-2.44 1.22 1.22 0 0 0 0 2.44zM91.53 29.05a1.22 1.22 0 1 0 0-2.44 1.22 1.22 0 0 0 0 2.44zM88.82 26.02a1.22 1.22 0 1 0 0-2.44 1.22 1.22 0 0 0 0 2.44zM86.16 22.83a1.22 1.22 0 1 0 0-2.44 1.22 1.22 0 0 0 0 2.44zM82.94 19.15a1.22 1.22 0 1 0 0-2.44 1.22 1.22 0 0 0 0 2.44zM80.38 15.93a1.22 1.22 0 1 0 0-2.44 1.22 1.22 0 0 0 0 2.44zM77.65 12.73a1.22 1.22 0 1 0 0-2.44 1.22 1.22 0 0 0 0 2.44z" fill="#9CA3D2"/><path d="M62.89 89.53l.88.83.76.6 46.52-35.72-.2-2.49-47.96 36.78z" fill="#F8E936"/><path d="M77.35 11.82c-.27 0-2-.2-.95-3.22s5.39-4.35 6.39-3.63a3.7 3.7 0 0 1 1.17 2.17 2.91 2.91 0 0 0-4.05-.73c-2.57 1.51-2.81 3.34-2.46 4.25.35.91.55 1.16-.1 1.16z" fill="#3F3F3F"/><path d="M78.07 6.82c1.27-1.48-.68.41-1.09 2-.41 1.59-.85.26 1.09-2z" fill="#7F7F80"/><path d="M80.07 14.89c-.28 0-2-.2-.95-3.22s5.38-4.34 6.34-3.62a3.7 3.7 0 0 1 1.17 2.17 2.92 2.92 0 0 0-4.06-.73c-2.56 1.51-2.8 3.34-2.46 4.25.34.91.61 1.08-.04 1.15z" fill="#3F3F3F"/><path d="M80.79 9.9c1.28-1.48-.68.41-1.08 2s-.86.26 1.08-2z" fill="#7F7F80"/><path d="M83.09 18.23c-.27 0-2-.2-1-3.22s5.38-4.35 6.35-3.62a3.7 3.7 0 0 1 1.17 2.17 2.92 2.92 0 0 0-4.06-.74c-2.57 1.52-2.81 3.35-2.46 4.25.35.9.7 1.11 0 1.16z" fill="#3F3F3F"/><path d="M83.79 13.24c1.27-1.49-.68.41-1.09 2-.41 1.59-.83.25 1.09-2z" fill="#7F7F80"/><path d="M85.91 21.82c-.27 0-2-.2-1-3.22s5.38-4.34 6.34-3.62a3.72 3.72 0 0 1 1.18 2.18 2.92 2.92 0 0 0-4.06-.74c-2.57 1.51-2.81 3.34-2.46 4.25.35.91.65 1.15 0 1.15z" fill="#3F3F3F"/><path d="M86.63 16.82c1.27-1.49-.68.41-1.09 2-.41 1.59-.85.27 1.09-2z" fill="#7F7F80"/><path d="M88.63 24.9c-.27 0-2-.2-1-3.22s5.38-4.34 6.34-3.62a3.78 3.78 0 0 1 1.18 2.18 2.92 2.92 0 0 0-4.06-.74c-2.57 1.51-2.81 3.34-2.46 4.25.35.91.65 1.07 0 1.15z" fill="#3F3F3F"/><path d="M89.35 19.92c1.27-1.49-.68.41-1.09 2-.41 1.59-.85.25 1.09-2z" fill="#7F7F80"/><path d="M91.66 28.24c-.28 0-2-.2-1-3.22s5.39-4.34 6.35-3.62a3.7 3.7 0 0 1 1.17 2.17 2.92 2.92 0 0 0-4.06-.73c-2.57 1.51-2.81 3.34-2.46 4.25.35.91.65 1.11 0 1.15z" fill="#3F3F3F"/><path d="M92.37 23.25c1.28-1.49-.68.41-1.09 2-.41 1.59-.85.26 1.09-2z" fill="#7F7F80"/><path d="M94.49 31.65c-.28 0-2-.2-.95-3.22s5.38-4.34 6.34-3.62a3.696 3.696 0 0 1 1.169 2.17 2.92 2.92 0 0 0-4.06-.73c-2.57 1.51-2.8 3.34-2.46 4.25.34.91.61 1.11-.04 1.15z" fill="#3F3F3F"/><path d="M95.2 26.67c1.28-1.49-.68.41-1.08 2s-.85.25 1.08-2z" fill="#7F7F80"/><path d="M97.21 34.73c-.28 0-2-.2-.95-3.22s5.38-4.34 6.34-3.62a3.717 3.717 0 0 1 1.19 2.18 2.922 2.922 0 0 0-4.06-.74c-2.57 1.51-2.8 3.34-2.46 4.25.34.91.59 1.11-.06 1.15z" fill="#3F3F3F"/><path d="M97.92 29.75c1.28-1.49-.68.41-1.08 2s-.85.25 1.08-2z" fill="#7F7F80"/><path d="M100.229 38.07c-.28 0-2-.2-.95-3.22s5.38-4.35 6.34-3.62a3.695 3.695 0 0 1 1.17 2.17 2.918 2.918 0 0 0-4.06-.73c-2.57 1.51-2.8 3.34-2.46 4.25.34.91.61 1.11-.04 1.15z" fill="#3F3F3F"/><path d="M100.939 33.08c1.28-1.49-.68.41-1.08 2s-.85.26 1.08-2z" fill="#7F7F80"/><path d="M103.4 41.88c-.27 0-2-.2-1-3.22s5.38-4.35 6.34-3.62a3.737 3.737 0 0 1 1.18 2.17 2.92 2.92 0 0 0-4.06-.73c-2.57 1.51-2.81 3.34-2.46 4.25.35.91.65 1.09 0 1.15z" fill="#3F3F3F"/><path d="M104.12 36.89c1.27-1.49-.68.41-1.09 2-.41 1.59-.85.26 1.09-2z" fill="#7F7F80"/><path d="M106.12 44.96c-.27 0-2-.2-1-3.22s5.38-4.34 6.34-3.62a3.706 3.706 0 0 1 1.17 2.17 2.902 2.902 0 0 0-4-.73c-2.57 1.51-2.81 3.34-2.46 4.25.35.91.62 1.11-.05 1.15z" fill="#3F3F3F"/><path d="M106.84 39.97c1.27-1.49-.68.41-1.09 2-.41 1.59-.85.26 1.09-2z" fill="#7F7F80"/><path d="M63.41 88.82C80.1 76.95 94.54 64.6 110.79 52.7" stroke="#1D1D1B" stroke-miterlimit="10"/><path d="M96.11.39c-7.82-2.33-15.16 6.39-15.47 6.76l-.27.32 31.18 37.7.34-.68a6.717 6.717 0 0 1 7.24-3.29c5 .91 5.71 5.94 5.74 6.16l.06.12c0 .1 4 9.55-.58 15-4.58 5.45-12.44 8.66-25 10.62-2.49.39-4.73.61-6.72.8-2.087.15-4.154.509-6.17 1.07l25-19.21.22-.17-.67-9.21.21-.15L76.93 6.74l-.37.28c-7.77 5.86-18.14 13.63-24.77 18.55a4.36 4.36 0 0 1-1.25 1.61l-.78.64.3.25c7.82-5.71 23.38-17.42 26.77-20l32.95 38-51.37 39.15.73.7 50.94-38.82.58 8c-3.36 2.58-36.31 27.92-46.3 35.68l.81.64 3.16-2.45v.05l9.25 7.69c.438.5.955.925 1.53 1.26l4.35 3-5.37-5.1c-1.45-1.68-2.54-5.1.26-11.72a16.998 16.998 0 0 1 3.29-5.39l2-1.55c2.35-1.33 5.24-1.58 9.22-2 2-.19 4.22-.76 6.73-1.16 12.77-2 20.89-5.49 25.57-11 3.39-4 2.63-9.67 1.71-13.09-.26-3.17-2.16-10.53-11.51-21.9a78.499 78.499 0 0 1-11-18c-2.47-5.03-4.06-8.43-8.25-9.67zM76.93 84.68c-2 4.82-1.94 7.11-1.07 9.38l-6.81-5.66 9.91-7.66a26.16 26.16 0 0 0-2.03 3.94zm26.46-74.1a79.052 79.052 0 0 0 11.13 18.18c5.89 7.16 8.51 11.69 9.65 14.44a8.004 8.004 0 0 0-8.575-2.777 8 8 0 0 0-2.805 1.477 8.156 8.156 0 0 0-1.39 1.52L81.68 7.48c1.38-1.52 7.75-8 14.15-6.13 3.75 1.12 5.19 4.17 7.56 9.23z" fill="#38281F"/><path d="M52.03 26.57L1.02 63.66l9.58 14.81 19.09 27.95 32.8-24.27L73.3 52.66 52.03 26.57z" fill="#fff"/><path d="M29.69 106.42l32.8-24.27 3.9 4.57-31.47 23.81-5.23-4.11z" fill="#9CA3D2"/><path d="M34.92 110.52c.62-.87 33.25-25.34 33.25-25.34l1.7 2-32.26 24.49-2.69-1.15z" fill="#F8E936"/><path d="M76.79 8.11L.68 63.55l29.09 43.35 80.57-60.91L76.79 8.11z" stroke="#38281F" stroke-miterlimit="10"/><path d="M110.88 52.48l-76.26 57.99-4.85-3.57" stroke="#38281F" stroke-miterlimit="10"/><path d="M34.62 110.47l2.82 1.19 73.8-56.4.04-2.35-.94-6.92" stroke="#38281F" stroke-miterlimit="10"/><path fill-rule="evenodd" clip-rule="evenodd" d="M92.97 39.964l-.952-2.792 2.894.57-1.942 2.222z" fill="#F39200"/><path fill-rule="evenodd" clip-rule="evenodd" d="M91.028 42.181l-.957-2.796 2.9.58-1.944 2.216z" fill="#FDD400"/><path fill-rule="evenodd" clip-rule="evenodd" d="M93.933 42.754l-.962-2.79 2.9.564-1.938 2.226z" fill="#E94591"/><path fill-rule="evenodd" clip-rule="evenodd" d="M92.97 39.964l.96 2.788-2.902-.57 1.943-2.218z" fill="#C52D88"/><path fill-rule="evenodd" clip-rule="evenodd" d="M92.02 37.172l.951 2.792-2.9-.579 1.95-2.213z" fill="#3AAA35"/><path fill-rule="evenodd" clip-rule="evenodd" d="M92.97 39.964l1.942-2.221.958 2.785-2.9-.564z" fill="#FFED00"/><path fill-rule="evenodd" clip-rule="evenodd" d="M92.97 39.964l-.952-2.792 2.894.57-1.942 2.222z" fill="#F39200"/><path fill-rule="evenodd" clip-rule="evenodd" d="M91.028 42.181l-.957-2.796 2.9.58-1.944 2.216z" fill="#787FBD"/><path fill-rule="evenodd" clip-rule="evenodd" d="M93.933 42.754l-.962-2.79 2.9.564-1.938 2.226z" fill="#E94792"/><path fill-rule="evenodd" clip-rule="evenodd" d="M92.97 39.964l.96 2.788-2.902-.57 1.943-2.218z" fill="#64B6E7"/><path fill-rule="evenodd" clip-rule="evenodd" d="M92.02 37.172l.951 2.792-2.9-.579 1.95-2.213z" fill="#93C461"/><path fill-rule="evenodd" clip-rule="evenodd" d="M92.97 39.964l1.942-2.221.958 2.785-2.9-.564z" fill="#FFED00"/><path d="M93.594 45.653l-.893-1.276 1.057-.74.114.164-.903.631.276.394.902-.631.114.163-.902.631.275.395.903-.632.114.163-1.057.74v-.002zM94.3 46.664l.185-.452a.505.505 0 0 0 .043-.146c.002-.032-.012-.069-.043-.113l-.093-.134-.457.32-.114-.163 1.057-.74.114.164-.442.309.086.122c.03.043.06.069.09.078.031.01.082.014.153.012l.465-.02.13.186-.54.02a.585.585 0 0 1-.237-.033.218.218 0 0 1 .002.097.872.872 0 0 1-.052.151l-.214.524-.129-.184-.003.002zM95.529 46.486a.63.63 0 0 1 .423.27c.104.15.141.313.11.492a.634.634 0 0 1-.272.424.633.633 0 0 1-.492.11.633.633 0 0 1-.424-.272.63.63 0 0 1-.108-.49.634.634 0 0 1 .271-.425.633.633 0 0 1 .492-.11zm.347.72a.444.444 0 0 0-.077-.343.439.439 0 0 0-.295-.19.461.461 0 0 0-.35.086.46.46 0 0 0-.202.3.437.437 0 0 0 .077.342.455.455 0 0 0 .648.107.456.456 0 0 0 .2-.301zM96.418 48.086l-.967.227-.125-.18 1.362-.302.066.094-.755 1.17-.126-.178.545-.831zM96.522 49.34l-.305.07-.125-.18 1.361-.303.066.095-.755 1.17-.125-.18.17-.26-.287-.412zm.667-.158l-.472.108.209.298.263-.406zM97.71 42.304c-.395-.566-1.042-.692-1.573-.32-.499.348-.622.947-.305 1.485l-1.2.01.472.674 1.741-.048c.21-.005.428-.075.625-.213.534-.373.638-1.02.24-1.588zm-1.261.882c-.136-.194-.125-.459.1-.616.224-.157.476-.077.612.118.138.197.128.456-.1.615-.228.16-.474.08-.613-.117zM97.935 43.937l.723 1.035-.725.167-.163-.233-.723.167.163.233-1.119.26.436.622 1.119-.259.18.258.723-.168-.18-.256.82-.19.49-.344-1.179-1.687-.565.395zM101.059 47.202l-1.18-1.688-.566.396.724 1.035-.725.167-.162-.232-.724.166.163.233-1.119.259.436.623 1.119-.259.18.258.724-.167-.18-.258.819-.189.491-.344z" fill="#0067B1"/></g><defs><clipPath id="clip0"><path fill="#fff" d="M0 0h127.58v112.23H0z"/></clipPath></defs></svg>