<svg width="158" height="159" fill="none" xmlns="http://www.w3.org/2000/svg"><g clip-path="url(#clip0)"><path d="M2.38 63.25c.07.53-1.83-3.39-1.83-3.39L4.17 61s-1.98.87-1.79 2.25z" fill="#B5B5B5"/><path d="M17.11 64.84s-7.29-2.46-9.06-2.85c-1.77-.39-3.88-1-3.88-1l-1.79 2.25 5.46 6.88a32.118 32.118 0 0 0 3.41 3.35c.91.28.61-2.57 2.15-4.68a28.155 28.155 0 0 1 3.71-3.95z" fill="#DDD"/><path d="M148.71 138.7c0-.47-.81-2.56-10.1-8.85-9.29-6.29-23.58-14-23.58-14l-28.15-15.6-42-22.37L21.06 66.2l-3.95-1.36s-3.06 3-3.28 3.31c-.22.31-1.64 3.91-1.64 3.91l.12 2.43 13.9 9.95 51.27 31s28.87 17.34 29.2 17.55c.33.21 17.37 9 17.37 9l11.64 4.86 6.09 2.14c.5.18 2.71.39 3.18-.09 0 0-2.3-3.86-.4-7s4.15-3.2 4.15-3.2z" fill="#9CA3D2"/><path d="M146.23 149.09s1.82 3.4-14.61 1.3a96.06 96.06 0 0 1-30.22-9.62s-22.12-11.47-22.15-18.05c0 0-.59-1.95 5.37 3.23a134.233 134.233 0 0 0 12.49 9.49l15.88 7.66 14.92 3.9 10.36 1.83 3.51.13 4.45.13z" fill="#B7B8BC"/><path d="M146.95 149.42s4.78.57 5.92.27c1.14-.3 3.52-.73 3.65-1.81.13-1.08-1-2.63-1.81-3.66-.81-1.03-6.21-5.85-6.21-5.85a9.448 9.448 0 0 0-3 2c-1 1.2-1.74 4.59-1.74 4.59a6.736 6.736 0 0 0 1.13 3.44 2.49 2.49 0 0 0 2.06 1.02z" fill="#F8EC67"/><path d="M13.3 70.14s66 40.71 83.66 50.83c17.661 10.12 46.821 24 46.821 24l.34 2.1.79 1.34s-1.64 2.79-16.29-4.38c-14.65-7.17-39.39-21.3-40-21.73-.61-.43-32.65-19.67-32.65-19.67l-35.48-22.1-8.2-6s-.73-4.6 1.01-4.39z" fill="#565EA3"/><path d="M16.39 65.93c.34.71 46.64 23.58 56.5 28.53 9.86 4.95 17 8.38 17 8.38s-2.1-.13-3.6 3.56a26.252 26.252 0 0 0-1.78 6 61.361 61.361 0 0 1 4-6.1c1.8-2.25 2.81-1.89 2.81-1.89s43.68 24.75 48.83 27.84a53.027 53.027 0 0 1 8.36 6.1s-1.4-4.33-24.11-16.81c-22.71-12.48-38.45-22.25-38.45-22.25L52.58 81.66 18.2 65.56s-2.47-1-1.81.37z" fill="#E9EBF7"/><path d="M3.35 62c-.46.69 11.81 4.36 11.81 4.36l2-1.53S4.35 60.49 3.35 62z" fill="#E9EBF7"/><path d="M145.49 140.39s1-.77 4.8 2a47.874 47.874 0 0 1 6.2 5.46 41.301 41.301 0 0 0-3.31-5.11c-.91-.91-5.69-7.09-7.69-2.35z" fill="#FDF9D7"/><path d="M144.25 144a6.723 6.723 0 0 0 4.21 3.09c2.66.483 5.357.734 8.06.75a13.45 13.45 0 0 1-4.72 1.77 17.638 17.638 0 0 1-5.57-.56s-3.33-.59-1.98-5.05z" fill="#D7C921"/><path d="M13.3 70.14s-5.08-3.66-7-5a18.664 18.664 0 0 0-3.88-1.93 36.447 36.447 0 0 1 3.6 4.25 58.344 58.344 0 0 0 4.29 5.33l2 1.66s-.67-3.21.99-4.31z" fill="#B7B8BC"/><path d="M94.26 104.57s-1.63-.37-3.89 2.36a25.582 25.582 0 0 0-4.47 7.83 16.42 16.42 0 0 0-.57 5.49l-1.85-.76s0-6.34 2.51-9.83a36.347 36.347 0 0 1 6.31-6.38l1.96 1.29z" fill="#F8EC67"/><path d="M85.9 114.76s-1.47-1.67-1.69-1.35c-.22.32-.73 6.08-.73 6.08l1.85.76.57-5.49z" fill="#D7C921"/><path d="M92.21 104.86l-.89-.43.99-1.14 1.96 1.29-2.06.28z" fill="#FDF9D7"/><path d="M145.39 149c.11-.12-.5-.63-.86-1.7a7.404 7.404 0 0 1 .22-4.41c.266-.794.601-1.564 1-2.3a4.002 4.002 0 0 1 1.38-1.33c1-.58 1.76-.71 1.74-.86-.02-.15-.82-.25-2.05.24-.736.303-1.37.81-1.83 1.46a12.192 12.192 0 0 0-1.19 2.48 6.846 6.846 0 0 0 .07 5c.62 1.23 1.48 1.54 1.52 1.42zM12.35 74.47c.15 0 .16-.67.31-1.66a11.1 11.1 0 0 1 3.71-6.71c.76-.67 1.31-1 1.25-1.15-.06-.15-.72 0-1.66.59a8.74 8.74 0 0 0-4 7.21c.03 1.1.27 1.74.39 1.72z" fill="#2C336B"/><path d="M4.14 61.05c0 .13.66.46 1.82.84 1.16.38 2.8.81 4.59 1.28s3.38.93 4.52 1.31c1.14.38 1.85.64 1.92.51.07-.13-.55-.59-1.66-1.15a23.91 23.91 0 0 0-4.53-1.62c-1.82-.47-3.47-.79-4.67-1-1.2-.21-1.95-.3-1.99-.17z" fill="#3F3F3F"/><path d="M3.12 63.66c.19-.17 0-.86.3-1.43s1-.75 1-1-.19-.3-.6-.3a1.59 1.59 0 0 0-1.31.83 1.62 1.62 0 0 0 0 1.55c.26.35.52.43.61.35z" fill="#3F3F3F"/><path d="M12.27 74c.09-.12-.54-.69-1.5-1.63s-2.23-2.29-3.55-3.87c-2.63-3.17-4.68-5.85-4.93-5.67-.25.18 1.5 3.06 4.18 6.3a24.558 24.558 0 0 0 3.85 3.76c1.1.88 1.88 1.25 1.95 1.11z" fill="#3F3F3F"/><path d="M148.65 138.43s.1-.15 0-.39a3.909 3.909 0 0 0-.69-.94 30.15 30.15 0 0 0-3.27-3c-1.48-1.21-3.35-2.62-5.58-4.18-2.23-1.56-4.88-3.15-7.78-5-11.64-7.15-28-16.49-46.35-26.41-18.35-9.92-35.09-18.55-47.33-24.6-12.24-6.05-20-9.51-20.15-9 .126.024.25.057.37.1.34.127.674.27 1 .43.92.4 2.26 1 4 1.86 3.44 1.66 8.37 4.13 14.45 7.23 12.15 6.21 28.86 14.95 47.17 24.85 18.31 9.9 34.75 19.15 46.46 26.14 2.92 1.76 5.6 3.31 7.84 4.82 2.24 1.51 4.13 2.87 5.65 4a39.472 39.472 0 0 1 3.36 2.79c.278.255.526.54.74.85a.66.66 0 0 1 .11.45zM144.9 148.88a3.937 3.937 0 0 1-1.52.11 20.017 20.017 0 0 1-4.28-1.06 132.8 132.8 0 0 1-15-6.51c-6.21-3-13.45-6.95-21.41-11.46-7.96-4.51-16.66-9.54-25.75-14.92-18.15-10.77-34.45-20.78-46.14-28.16-5.84-3.69-10.54-6.74-13.74-8.91-1.6-1.08-2.83-1.94-3.63-2.56-.31-.23-.607-.477-.89-.74-.19-.17-.24-.29-.27-.28-.03.01.24.52 1 1.17.76.65 2 1.59 3.54 2.73 3.14 2.27 7.79 5.4 13.59 9.17 11.61 7.54 27.85 17.65 46 28.42 9.08 5.38 17.8 10.42 25.79 14.87 7.99 4.45 15.29 8.33 21.56 11.29a119.677 119.677 0 0 0 15.17 6.26 17.77 17.77 0 0 0 4.39.88 4.01 4.01 0 0 0 1.17-.11c.31-.07.43-.17.42-.19z" fill="#2C336B"/><path d="M145.061 148.89c0 .11 1.24.75 3.52 1.07 1.328.159 2.671.159 4 0a15.156 15.156 0 0 0 2.35-.45c.47-.092.914-.286 1.3-.57a1.996 1.996 0 0 0 .73-1.44 3.682 3.682 0 0 0-1-2.6c-.54-.64-1.05-1.21-1.57-1.77a31.172 31.172 0 0 0-2.9-2.73c-1.75-1.45-3-2.12-3.07-2a24.947 24.947 0 0 0 2.6 2.53c.8.78 1.71 1.74 2.67 2.86.48.55 1 1.15 1.49 1.76.509.507.799 1.192.81 1.91 0 .7-.51 1-1.31 1.18-.726.208-1.464.369-2.21.48a19.296 19.296 0 0 1-3.85.17c-2.13-.15-3.52-.55-3.56-.4z" fill="#3F3F3F"/><path d="M143.74 149.13a15.522 15.522 0 0 0-2.75-.34c-.88-.07-2-.16-3.22-.33-1.22-.17-2.68-.29-4.24-.57l-2.46-.4c-.85-.14-1.73-.35-2.64-.53-1.84-.34-3.76-.86-5.8-1.37a108.162 108.162 0 0 1-12.88-4.41A107.478 107.478 0 0 1 97.6 135c-1.78-1.1-3.49-2.12-5-3.21-.76-.53-1.52-1-2.22-1.53l-2-1.49c-1.29-.93-2.37-1.88-3.35-2.66-.98-.78-1.81-1.5-2.47-2.1a15.406 15.406 0 0 0-2.14-1.75c.56.726 1.19 1.396 1.88 2 .63.64 1.41 1.4 2.37 2.23.96.83 2 1.82 3.29 2.79l2 1.56c.69.53 1.45 1 2.21 1.59 1.51 1.12 3.22 2.18 5 3.32a100.177 100.177 0 0 0 12.23 6.28 101.06 101.06 0 0 0 13 4.39c2.05.48 4 1 5.86 1.28.92.17 1.81.36 2.68.48l2.48.34c1.58.24 3 .32 4.29.43 1.29.11 2.36.16 3.25.17.924.092 1.855.096 2.78.01z" fill="#2C336B"/><path d="M144.671 148.61s.17.27.68.46c.127.047.251.104.37.17l.16.1c.05 0 .11.08 0 .14a1.298 1.298 0 0 1-.3.36c-.168.15-.353.281-.55.39a4.72 4.72 0 0 1-1.51.5c-.666.037-1.334.037-2 0-.72 0-1.48 0-2.29-.05l-2.56-.16a81.74 81.74 0 0 1-12.45-2 95.946 95.946 0 0 1-14.68-4.81 128.209 128.209 0 0 1-13.87-6.84 89.898 89.898 0 0 1-10.61-6.83 35.188 35.188 0 0 1-3.6-3.22 22.968 22.968 0 0 1-1.32-1.47 6.245 6.245 0 0 1-.94-1.32 1.382 1.382 0 0 1-.08-1.16 1.126 1.126 0 0 1 .65-.56.906.906 0 0 1 .71.09s0-.08-.13-.17a.754.754 0 0 0-.63-.11 1.301 1.301 0 0 0-.86.61 1.65 1.65 0 0 0 0 1.44c.24.529.549 1.023.92 1.47.38.5.81 1 1.29 1.55a32.837 32.837 0 0 0 3.57 3.39 82.908 82.908 0 0 0 10.59 7.07 119.916 119.916 0 0 0 13.95 7 92.493 92.493 0 0 0 14.84 4.78 75.861 75.861 0 0 0 12.62 1.8l2.58.09h2.31c.668.012 1.336-.021 2-.1a5.025 5.025 0 0 0 1.64-.63c.212-.136.407-.297.58-.48.181-.182.326-.395.43-.63.11-.12 0-.19-.12-.25l-.28-.16a4.746 4.746 0 0 0-.46-.15 5.303 5.303 0 0 1-.65-.31z" fill="#2C336B"/><path d="M2.68 63.53c.11-.08-.06-.5-.41-1.11-.17-.3-.41-.66-.65-1-.12-.19-.24-.38-.34-.58-.1-.2-.09-.2-.13-.3-.04-.1 0-.07 0-.06h.16l.34.07 1.16.28c.67.16 1.1.25 1.16.13.06-.12-.27-.43-.91-.78a8.367 8.367 0 0 0-1.17-.5l-.35-.11h-.27a1.31 1.31 0 0 0-.28 0c-.44 0-1 .34-1 .81a.45.45 0 0 0 .06.29c.06.13.19.23.19.29.053.138.117.272.19.4.132.225.283.44.45.64.26.324.538.635.83.93.5.41.86.69.97.6z" fill="#3F3F3F"/><path d="M83.72 119.41c0-.915.077-1.828.23-2.73a22.934 22.934 0 0 1 2.19-6.23 18.53 18.53 0 0 1 4.08-5.15c1.27-1.12 2.2-1.68 2.13-1.81-.07-.13-1.11.23-2.56 1.27a15.377 15.377 0 0 0-4.51 5.23 17.922 17.922 0 0 0-2 6.59c-.098.709-.07 1.43.08 2.13.13.49.3.72.36.7z" fill="#2C336B"/><path d="M57.86 4.05c-.22.49.24-3.84.24-3.84l2.48 2.88s-2.15-.3-2.72.96z" fill="#B5B5B5"/><path d="M69.49 13.19S64.6 7.25 63.3 5.98c-1.3-1.27-2.76-2.89-2.76-2.89l-2.72 1 1 8.73a32.22 32.22 0 0 0 1.13 4.65c.62.72 1.87-1.87 4.3-2.84a27.437 27.437 0 0 1 5.24-1.44z" fill="#DDD"/><path d="M142.27 145.41c.25-.4.67-2.61-3.9-12.85s-12.63-24.34-12.63-24.34L110.07 80.1 86.26 38.94 72.17 16.42l-2.68-3.23s-4.18.91-4.53 1.08c-.35.17-3.47 2.45-3.47 2.45l-1.17 2.12 6.54 15.8 27.16 53.41s15.37 30 15.53 30.33c.16.33 10 16.78 10 16.78l7.31 10.28 4 5c.33.42 2.1 1.76 2.75 1.61 0 0 .08-4.49 3.35-6.14 3.27-1.65 5.31-.5 5.31-.5z" fill="#E74892"/><path d="M134.67 152.92s-.24 3.85-13.09-6.61A96.086 96.086 0 0 1 101 122.18s-12.72-21.42-9.27-27c0 0 .53-2 2.85 5.58a135.313 135.313 0 0 0 5.59 14.65l9.44 14.9 10.61 11.2 7.82 7 2.92 2 3.71 2.41z" fill="#B7B8BC"/><path d="M135.12 153.58s3.75 3 4.88 3.36c1.13.36 3.37 1.24 4.06.39.69-.85.57-2.74.39-4.06-.18-1.32-2.18-8.25-2.18-8.25a9.345 9.345 0 0 0-3.6.14c-1.5.48-3.9 3-3.9 3a6.727 6.727 0 0 0-.86 3.52 2.494 2.494 0 0 0 1.21 1.9z" fill="#fff"/><path d="M63.49 15.68s34.52 69.4 44.21 87.34c9.69 17.94 27.07 45.12 27.07 45.12l-.82 2v1.56s-2.87 1.5-11.52-12.32c-8.65-13.82-22.2-38.9-22.53-39.61-.33-.71-17.41-33.98-17.41-33.98L64.13 28.3l-3.77-9.46s1.77-4.26 3.13-3.16z" fill="#C83488"/><path d="M68.34 13.73c-.08.78 27.15 44.66 32.91 54.07 5.76 9.41 10 16.08 10 16.08s-1.72-1.22-4.94 1.12a26.16 26.16 0 0 0-4.69 4.17 62.305 62.305 0 0 1 6.63-3c2.72-1 3.39-.13 3.39-.13s24 44.09 26.76 49.43a53.057 53.057 0 0 1 3.88 9.6s1.09-4.42-11.6-27-20.9-39.2-20.9-39.2l-19-32.6-20.71-31.9s-1.58-2.15-1.73-.64z" fill="#FBD9DB"/><path d="M59.34 3.52c-.75.34 7.73 9.94 7.73 9.94l2.46-.27S61 2.75 59.34 3.52zM138.67 145.16s1.28-.12 3 4.26a47.642 47.642 0 0 1 2.39 7.91c.11-2.03.074-4.065-.11-6.09-.31-1.24-1.08-9.05-5.28-6.08z" fill="#E9EBF7"/><path d="M135.66 147.59a6.752 6.752 0 0 0 1.94 4.85 46.803 46.803 0 0 0 6.46 4.89 13.672 13.672 0 0 1-4.95-1 17.927 17.927 0 0 1-4.44-3.42s-2.49-2.28.99-5.32z" fill="#E9EBF7"/><path d="M63.49 15.68s-2.38-5.8-3.36-7.93a18.6 18.6 0 0 0-2.27-3.7c.412 1.816.683 3.662.81 5.52.151 2.277.428 4.544.83 6.79l.86 2.48s1.13-3.11 3.13-3.16z" fill="#B7B8BC"/><path d="M114.061 87.68s-1.19-1.18-4.55-.06a25.752 25.752 0 0 0-7.93 4.29 16.156 16.156 0 0 0-3.38 4.35l-1.18-1.61s3.33-5.41 7.32-7a36.281 36.281 0 0 1 8.74-2.08l.98 2.11z" fill="#fff"/><path d="M101.581 91.91s-.37-2.2-.72-2c-.35.2-3.84 4.78-3.84 4.78l1.18 1.61 3.38-4.39zM112.171 86.83l-.53-.83 1.44-.45.98 2.13-1.89-.85z" fill="#E9EBF7"/><path d="M133.991 152.43c.16 0-.09-.8.17-1.9a7.409 7.409 0 0 1 2.52-3.63 14.082 14.082 0 0 1 2.08-1.41 3.895 3.895 0 0 1 1.87-.41c1.15 0 1.88.34 1.94.19.06-.15-.57-.64-1.87-.87a4.107 4.107 0 0 0-2.33.28c-.83.394-1.609.888-2.32 1.47a6.868 6.868 0 0 0-2.57 4.27c-.11 1.36.43 2.06.51 2.01zM60.4 18.85c.14.07.49-.48 1.15-1.25a11 11 0 0 1 6.69-3.74c1-.16 1.65-.17 1.67-.32.02-.15-.63-.36-1.73-.37a8.74 8.74 0 0 0-7.19 4c-.57.96-.7 1.64-.59 1.68z" fill="#2C336B"/><path d="M60.49 3.12c-.1.09.32.73 1.1 1.67s2 2.17 3.22 3.51c1.22 1.34 2.38 2.58 3.15 3.5.77.92 1.23 1.52 1.36 1.45.13-.07-.15-.79-.8-1.85a24.464 24.464 0 0 0-3-3.77 57.433 57.433 0 0 0-3.43-3.32c-.91-.81-1.47-1.31-1.6-1.19z" fill="#3F3F3F"/><path d="M58.28 4.8c.25 0 .42-.75 1-1.06.58-.31 1.25-.11 1.42-.3.17-.19 0-.35-.34-.56a1.61 1.61 0 0 0-2.38 1.32c-.01.41.17.62.3.6z" fill="#3F3F3F"/><path d="M60.57 18.44c.13-.06-.11-.87-.42-2.17-.31-1.3-.69-3.13-1-5.16-.55-4.08-.88-7.45-1.18-7.42-.3.03-.35 3.39.22 7.55a24.49 24.49 0 0 0 1.3 5.23c.49 1.29 1 2.02 1.08 1.97z" fill="#3F3F3F"/><path d="M142.36 145.15s.17-.07.19-.35c.031-.388.004-.78-.08-1.16a32.526 32.526 0 0 0-1.22-4.24c-.63-1.8-1.46-4-2.53-6.49-1.07-2.49-2.48-5.25-4-8.32-6.11-12.21-15.09-28.8-25.42-46.9-10.33-18.1-20-34.29-27.19-45.89-7.19-11.6-12-18.64-12.35-18.29 0 0 .1.07.26.27s.38.51.66.93c.57.82 1.38 2.06 2.4 3.67 2 3.23 4.92 7.93 8.44 13.78 7 11.69 16.61 27.93 26.93 46s19.39 34.61 25.65 46.73c1.55 3 3 5.76 4.11 8.22 1.11 2.46 2 4.63 2.67 6.4a36.452 36.452 0 0 1 1.38 4.16c.101.359.161.728.18 1.1a.63.63 0 0 1-.08.38zM133.66 152.05a4.298 4.298 0 0 1-1.35-.72 20.232 20.232 0 0 1-3.08-3.16 131.85 131.85 0 0 1-9.28-13.45c-3.68-5.85-7.76-13-12.14-21-4.38-8-9.1-16.91-14-26.27-9.74-18.74-18.29-35.84-24.32-48.29-3-6.22-5.4-11.29-7-14.82-.79-1.77-1.37-3.15-1.73-4.1a9.535 9.535 0 0 1-.36-1.09c-.07-.25-.06-.37-.08-.38-.02-.01-.07.57.26 1.54.33.97.83 2.39 1.56 4.18 1.47 3.59 3.76 8.7 6.69 15 5.88 12.54 14.34 29.69 24.08 48.44 4.87 9.37 9.61 18.25 14.05 26.25 4.44 8 8.58 15.15 12.34 21a117.625 117.625 0 0 0 9.58 13.33 17.505 17.505 0 0 0 3.26 3.07c.308.218.644.393 1 .52.175.009.35-.008.52-.05z" fill="#2C336B"/><path d="M133.79 152.14c-.09.06.66 1.29 2.43 2.76a16.148 16.148 0 0 0 5.64 3.02c.449.171.931.24 1.41.2a2.01 2.01 0 0 0 1.37-.84 3.64 3.64 0 0 0 .49-2.76c-.12-.82-.25-1.58-.39-2.32a32.119 32.119 0 0 0-1-3.86c-.72-2.16-1.42-3.39-1.54-3.34.206 1.196.496 2.376.87 3.53.26 1.08.53 2.37.76 3.83.12.72.23 1.5.33 2.28a2.768 2.768 0 0 1-.32 2.06c-.4.56-1 .55-1.73.3a15.782 15.782 0 0 1-2.13-.76 18.808 18.808 0 0 1-3.36-1.89c-1.78-1.27-2.72-2.35-2.83-2.21z" fill="#3F3F3F"/><path d="M132.54 151.64a15.626 15.626 0 0 0-2.15-1.74 38.63 38.63 0 0 1-2.56-2c-.97-.83-2.13-1.66-3.3-2.73l-1.88-1.63c-.65-.57-1.29-1.22-2-1.85-1.37-1.26-2.74-2.71-4.19-4.22a110.194 110.194 0 0 1-8.61-10.55 109.153 109.153 0 0 1-7.07-11.65c-.92-1.88-1.84-3.64-2.56-5.37-.36-.85-.75-1.67-1.07-2.47l-.9-2.32c-.61-1.47-1-2.84-1.44-4-.44-1.16-.75-2.23-1-3.08a15.196 15.196 0 0 0-.9-2.63c.098.924.275 1.837.53 2.73.19.87.45 1.93.83 3.14.38 1.21.75 2.61 1.32 4.11.27.75.55 1.54.85 2.36.3.82.67 1.64 1 2.51.69 1.76 1.59 3.55 2.5 5.46a99.198 99.198 0 0 0 7.07 11.8 100.75 100.75 0 0 0 8.75 10.61c1.49 1.5 2.89 2.95 4.3 4.19.7.63 1.35 1.26 2 1.82l1.93 1.6c1.22 1 2.4 1.87 3.42 2.63 1.02.76 1.91 1.38 2.67 1.86a14.394 14.394 0 0 0 2.46 1.42z" fill="#2C336B"/><path d="M133.6 151.69s0 .32.34.75c.08.11.17.24.23.34l.08.16c0 .06.05.13 0 .15a1.465 1.465 0 0 1-.45.15 2.887 2.887 0 0 1-.67 0 4.495 4.495 0 0 1-1.55-.38 14.686 14.686 0 0 1-1.67-1c-.6-.39-1.25-.79-1.92-1.25l-2.09-1.48a82.38 82.38 0 0 1-9.52-8.27 96.57 96.57 0 0 1-9.92-11.83 127.032 127.032 0 0 1-8.17-13.14 89.762 89.762 0 0 1-5.4-11.4 34.916 34.916 0 0 1-1.36-4.64c-.15-.69-.26-1.34-.34-2a5.742 5.742 0 0 1-.1-1.61 1.38 1.38 0 0 1 .53-1 1.23 1.23 0 0 1 .85-.14c.49.13.52.5.56.47.04-.03 0-.08 0-.22a.74.74 0 0 0-.54-.35 1.271 1.271 0 0 0-1 0 1.68 1.68 0 0 0-.77 1.22 6.28 6.28 0 0 0 0 1.73c.06.62.15 1.28.28 2a31.251 31.251 0 0 0 1.23 4.75 82.308 82.308 0 0 0 5.27 11.6 119.238 119.238 0 0 0 8.16 13.29 91.943 91.943 0 0 0 10.08 11.9 76.515 76.515 0 0 0 9.76 8.19l2.15 1.44c.68.45 1.36.82 2 1.2.57.373 1.165.708 1.78 1a4.867 4.867 0 0 0 1.72.33c.253-.003.504-.033.75-.09.251-.063.488-.172.7-.32.16 0 .08-.17 0-.27a2.51 2.51 0 0 0-.15-.28c-.13-.18-.23-.28-.31-.38a7.757 7.757 0 0 1-.54-.62z" fill="#2C336B"/><path d="M57.97 4.46c.13 0 .21-.46.24-1.16V2.07v-.66c-.01-.11-.01-.22 0-.33V1h.08v.07l.24.24.84.85c.48.49.81.8.92.73.11-.07 0-.52-.36-1.15a8.403 8.403 0 0 0-.73-1l-.24-.28-.07-.08-.13-.11a1.487 1.487 0 0 0-.24-.14c-.4-.19-1-.24-1.3.14a.62.62 0 0 0-.1.29V.9c-.01.146-.01.293 0 .44-.02.26-.02.52 0 .78.052.413.126.824.22 1.23.33.7.49 1.12.63 1.11z" fill="#3F3F3F"/><path d="M97.27 94.7a16.457 16.457 0 0 1 1.64-2.19 22.662 22.662 0 0 1 5.151-4.13 18.388 18.388 0 0 1 6.179-2.22c.933-.07 1.859-.211 2.77-.42 0-.12-1.07-.38-2.85-.27-2.324.18-4.577.884-6.59 2.06a18.006 18.006 0 0 0-5.19 4.53 6.23 6.23 0 0 0-1 1.85c-.2.49-.17.78-.11.79z" fill="#2C336B"/></g><defs><clipPath id="clip0"><path fill="#fff" d="M0 0h157.01v158.14H0z"/></clipPath></defs></svg>