<svg width="248" height="163" fill="none" xmlns="http://www.w3.org/2000/svg"><g clip-path="url(#clip0)"><path d="M234.63.83H12.5c-6.627 0-12 5.373-12 12v136.83c0 6.627 5.373 12 12 12h222.13c6.627 0 12-5.373 12-12V12.83c0-6.627-5.373-12-12-12z" fill="#33363F" stroke="#1D1D1B" stroke-miterlimit="10"/><path d="M16.16.43S98.33 162 99.5 161.65c1.17-.35 31.7.39 31.7.39L45.5.43H16.16zM129.63.43l70.43 161.61 34.57-.39L167.2.83l-37.57-.4z" fill="#5A5D64"/><path d="M.5 12.83s-.78-6.4 10.18-9.53c10.96-3.13 223.82-1 228.52 1 4.7 2 7.43 8.48 7.43 8.48S250.16 2.21 232.42.65C214.68-.91 10.16.65 10.16.65A13.72 13.72 0 0 0 .5 12.83z" fill="#8C8E93"/><path d="M234.63.83H12.5c-6.627 0-12 5.373-12 12v136.83c0 6.627 5.373 12 12 12h222.13c6.627 0 12-5.373 12-12V12.83c0-6.627-5.373-12-12-12z" stroke="#1D1D1B" stroke-miterlimit="10"/><path d="M220.98 7.09H16.15c-6.114 0-11.07 4.956-11.07 11.07v126.16c0 6.114 4.956 11.07 11.07 11.07h204.83c6.114 0 11.07-4.956 11.07-11.07V18.16c0-6.114-4.956-11.07-11.07-11.07zM241.09 68.09h-3.84a2.58 2.58 0 0 0-2.58 2.58v16.75a2.58 2.58 0 0 0 2.58 2.58h3.84a2.58 2.58 0 0 0 2.58-2.58V70.67a2.58 2.58 0 0 0-2.58-2.58z" fill="#222323"/><g opacity=".45" fill="#5A5D64"><path opacity=".45" d="M200.07 7.09h-40.45c14.07 34.72 44.16 111.14 58.76 148.3h2.61a11.102 11.102 0 0 0 11.06-11.06V86.76c-11.19-27.89-23.08-57.51-31.98-79.67zM148.46 155.39l-72-148.3H37.5c17.88 35.71 58.69 118.24 73.55 148.3h37.41z"/></g></g><defs><clipPath id="clip0"><path fill="#fff" d="M0 0h247.13v162.15H0z"/></clipPath></defs></svg>