<svg width="263" height="246" fill="none" xmlns="http://www.w3.org/2000/svg"><g clip-path="url(#clip0)"><path d="M30.78 132.86l-1.59-.2-20.72-4.5s-2.34 19.57-1.17 22.31a12.002 12.002 0 0 0 3.13 4.3l3.91 14.87 5.87 11.35 2 1.56 3.72 1.18s4.11 13.3 15.06 21.52c10.95 8.22 7.44 5.09 7.44 5.09l8.21 11.74s8.61 8.6 17.22 11.34 9 1.57 9 1.57c.78-.78 4.7 1.56 4.7 1.56l20.31 6.26 5.47 1.57 6.66-2.74a60.677 60.677 0 0 0 25 2.74c13.3-1.57 15.65-4.3 15.65-4.3l2.74-2c1.57-1.57 11.35-.78 21.13-5.09s12.91-7.43 12.91-7.43l.4-2.35a73.223 73.223 0 0 0 16.82-13.31c8.61-9 2-7.82 3.13-8.21 1.13-.39 4.7-3.13 9-7.44 4.3-4.31 7.44-11.35 7.44-11.35v-3.09l1.95-5.08-14.47-14.09-190.92-27.78z" fill="#3E4347"/><path d="M27.65 139.71s-9.39-1.57-13.11.58c-3.72 2.15-7 9.2-7 9.2l.19-13.7.78-5.87s1.77 1 7.05 3.52a23.393 23.393 0 0 0 11.15 2l.94 4.27zM15.13 171.6s-2.74-8-2.74-8.81c0-.81-1.37-7.82-1.37-7.82a45.95 45.95 0 0 0 8.22 3.32c3.32.79 13.3 1 13.3 1l1.17 3.72s-10.37-2.55-14.08.39c-3.71 2.94-4.5 9.2-4.5 9.2v-1zM46.24 186.66s-7.24-1.56-10.77 1.76a12.05 12.05 0 0 0-3.52 8l-3.71-7.82-2.35-4.89s6.85 1.37 7.82 1.17c.97-.2 6.66-.78 6.66-.78l3.32-1.57 2.55 4.13zM68.93 209.36s-2.93-2-8.41-.39c-5.48 1.61-4.11 12.13-4.11 12.13l-4.31-5.68-2.73-4.3a12.341 12.341 0 0 0 5.28-2.74c2.35-2.15 3.72-8 3.72-8l10.56 8.98zM92.41 238.31s-4.31-7.63-1.76-11.15a9.172 9.172 0 0 1 6.45-3.72l-8.6-3.32-1.37 6.06-3.33 8.22 8.61 3.91zM130.76 243.6s-6.26-1.76-4.31-7.05c1.95-5.29 8-8.21 8-8.21l-9.39.19-5.48-.19 2 6.06a49.593 49.593 0 0 1 0 5.48s-2.35 1.37-1.56 1.76c.79.39 6 3.72 10.74 1.96zM154.63 225.6c.58 0 5.87 4.5 5.87 4.5a17.47 17.47 0 0 1 3.52 4.71c1.17 2.55.58 2.35.58 2.35l7.44-.39 4.11-.78s-8.81-2.35-8.22-7.24a25.382 25.382 0 0 1 3.52-9.39l-7.24 2.93-9.58 3.31zM194.15 205.44a9.597 9.597 0 0 0-2.15 8c1 4.69 9.39 7.63 9.39 7.63l-3.52 2.15s-5.87-2.15-6.46-2.54c-.59-.39-6.65-5.09-6.65-5.09l-2-2.35 11.39-7.8zM212.34 185.49s-2.93 5.28.59 9.19c3.52 3.91 13.11.4 13.11.4l-7 6.65-6.26-2.15s-10-3.14-9.4-3.14c.6 0 8.96-10.95 8.96-10.95zM217.82 176.88c.78 0 16.44 2.93 16.44 2.93l2.54-7.23-15.46-2-3.52 6.3z" fill="#232426"/><path d="M36.02 168.99s-9-24.65-9.33-33.59c0 0-2.93-.06-4.76-.32-1.83-.26-11.74-4.18-16.17-8.09-4.43-3.91-5.74-7.31-5.74-7.31l7.82-33.13s11.18-26.87 22.42-37.82c11.24-10.95 17.48-16.7 17.48-16.7s19-14.61 30.78-19.82C90.3 7 103.3 3.08 104.08 3.08c.78 0 26.87-5.74 49.83 0 22.96 5.74 52.43 16.73 67.3 33.39 14.87 16.66 24.79 29 35.48 60l3.65 17.21 1.83 25 .52 19.82s0 5.74-6 9.92a44.268 44.268 0 0 1-11.22 5.74l-8.08 1s-4.7.52-7.05 0c-2.35-.52-10.69-2.61-10.69-2.61s-8.61 18.78-25.31 31.83c-16.7 13.05-30.13 17.8-30.13 17.8s-21 8.81-44.61 6.07-44.21-15-44.21-15-31.05-21.31-39.37-44.26z" fill="#828487"/><path d="M98.6 18.47s-28.95 5.74-48 29c-19.05 23.26-30 14.87-30 14.87S6.02 78.47.02 119.68c0 0 2.34 6.79 11.21 11.74 8.87 4.95 15.46 4 15.46 4s-.07-30.59 8.54-48.85A136.223 136.223 0 0 1 55.3 55.81s12.26-12.82 27.91-20.39 27.66-9.91 28.7-9.91c1.04 0 14.11-1.57 14.11-1.57s40.69-2.86 74.34 29c33.65 31.86 31.05 78.26 31.05 78.26s-.79 8.87-2.35 16.44c-1.56 7.57-8.09 24.52-8.09 24.52s15.39 7.56 30.79-.26c0 0-14.87-2.87-17.22-25.57-2.35-22.7 3.13-50.61-22.44-84.78S152.34 10.9 98.6 18.47z" fill="#656565"/><path d="M70.69 148.9c1 .78 27.39 24.78 27.39 24.78s0 .26 4.44-.52 35.5-9.35 35.5-9.35l.52 7.83-9.13 2.08s-12 4.18-16.7 6.79c-4.7 2.61-14.35 5.74-14.35 5.74l-7.82-5.48-17.74-13a18.891 18.891 0 0 1-1.33-3.96c-.52-2.35-2.08-15.39-2.08-15.39l1.3.48z" fill="#646668"/><path d="M180.02 11.42c.78.26 38.34 17.74 55.82 50.09 17.48 32.35 20.09 55.57 23.22 77.48 3.13 21.91 2.35 24.52 2.35 24.52a193.761 193.761 0 0 0-.26-38.61c-2.35-19.3-6.53-49-29.74-77.48-23.21-28.48-51.39-36-51.39-36z" fill="#D4D4D4"/><path d="M26.67 135.4s-2.65-53.28 31.5-82.76c34.15-29.48 67.85-32.09 95.22-25.56 27.37 6.53 46.95 25.82 46.95 25.82s27.66 26.61 30 59.74-5.21 48.52-5.21 48.52-2.35 11-17.22 30-37.83 28.44-37.83 28.44-21 12.65-59.87 7.17-64.82-42.13-64.82-42.13-17.37-27.52-18.72-49.24z" fill="#B6B6B6"/><path d="M29.74 147.86s-.53-72 37.56-96 73.57-22.44 73.57-22.44 44.34 7.83 64.15 39.13c19.81 31.3 23 82.44 23 82.44s12-36.52-9.92-75.13c-21.92-38.61-60.52-50.61-83.48-51.13-22.96-.52-51.13 2.61-83.47 36-32.34 33.39-21.41 87.13-21.41 87.13z" fill="#9F9E9F"/><path d="M175.02 166.12l-19.3-2.61-52.7-4.43-17.48-.79s-15.39 7.57-15.13 13.31c.26 5.74 15.39 5.21 16.7 5.48 1.31.27 44.34 5.47 45.39 5.47 1.05 0 13.82.53 18.52-.78 4.7-1.31 12.26-6.52 12.26-6.52l11.74-9.13z" fill="#828487"/><path d="M147.39 188.03a72.016 72.016 0 0 0 7.56-2.87c1.31-.78 9.65-7.3 9.65-7.3l10.42-11.74s-13 10.69-16.42 12.26c-3.42 1.57-10.17 3.91-11.21 3.91-1.04 0-11.74.26-12.79.26-1.05 0-24.52-2.61-24.52-2.61l-26.34-3.13-11.72-2.08-1.83-1.31s0 3.13 1.57 4.7c1.57 1.57 2.86 1.56 6 2.87s61.56 8.35 61.56 8.35l8.07-1.31z" fill="#646668"/><path d="M90.52 192.21c1 .26 43.56 6.52 52.69 4.43 9.13-2.09 16.44-14.09 16.44-14.09s-6.26 4.7-12.26 5.48c-6 .78-32.61-1.56-32.61-1.56s-37.31-5.22-38.09-5.48c-.78-.26-6.52-2.87-6.26-4.7a5.25 5.25 0 0 0-.26-2.87s-5.48 3.92-7.57 9.92 27.92 8.87 27.92 8.87z" fill="#9F9E9F"/><path d="M129 228.47c56.405 0 102.13-45.725 102.13-102.13 0-56.405-45.725-102.13-102.13-102.13-56.405 0-102.13 45.725-102.13 102.13 0 56.405 45.725 102.13 102.13 102.13z" stroke="#1D1D1B" stroke-miterlimit="10"/><path d="M25.69 135.21c0 .08.36.19 1 .32v-.46a38.5 38.5 0 0 1-5.89-.52 29.312 29.312 0 0 1-8.75-3.2 30.065 30.065 0 0 1-5.16-3.66 28.379 28.379 0 0 1-3.53-3.78c-1.82-2.34-2.64-4-2.84-3.93-.2.07.4 1.9 2.09 4.47a24.31 24.31 0 0 0 3.47 4.13 27.93 27.93 0 0 0 5.33 3.91 26.368 26.368 0 0 0 9.22 3.11c2.026.272 4.081.248 6.1-.07v-.46c-.65.01-1.03.05-1.04.14z" fill="#1D1F42"/><path d="M220.02 172.24s.08.06.27.15l.83.4c.37.17.82.41 1.39.62l2 .72c.77.22 1.62.48 2.57.73.95.25 2 .47 3.17.6 2.648.394 5.332.484 8 .27a37.572 37.572 0 0 0 9.85-2.1 34.285 34.285 0 0 0 10.42-6 12.448 12.448 0 0 0 2.25-2.48 10.83 10.83 0 0 0 1.46-3.16c.582-2.33.818-4.732.7-7.13-.09-4.87-.2-10-.4-15.39-.43-10.78-1.18-22.64-3.75-35.12a111.917 111.917 0 0 0-5.61-18.9 168.015 168.015 0 0 0-8.78-19 149.958 149.958 0 0 0-11.83-18.52 100.148 100.148 0 0 0-15.76-16.66 143.147 143.147 0 0 0-19.78-12.99 157.445 157.445 0 0 0-22.33-9.94A138.998 138.998 0 0 0 127.4 0c-7.66.032-15.298.829-22.8 2.38a123.848 123.848 0 0 0-20.91 6.79l-4.87 2.17c-1.6.77-3.15 1.59-4.7 2.38-.78.4-1.56.77-2.32 1.2l-2.28 1.29c-1.48.87-3 1.67-4.42 2.59-2.85 1.83-5.69 3.6-8.33 5.56-2.64 1.96-5.23 3.9-7.74 5.86a143.996 143.996 0 0 0-24.51 25.41c-1.6 2.18-3.06 4.39-4.5 6.51s-2.72 4.28-4 6.38a94.991 94.991 0 0 0-6.17 12.29 123.92 123.92 0 0 0-6.25 21.1c-1.26 5.91-2 10.54-2.49 13.68-.23 1.57-.4 2.77-.5 3.57l-.11.92a1 1 0 0 0 0 .31c.041-.096.068-.197.08-.3l.17-.91.63-3.55c.57-3.12 1.39-7.73 2.73-13.61a127.117 127.117 0 0 1 6.42-20.93 96.755 96.755 0 0 1 6.24-12.14c1.25-2.07 2.59-4.18 4-6.32 1.41-2.14 2.91-4.28 4.51-6.44a144.154 144.154 0 0 1 24.43-25.13c2.5-1.94 5-4 7.7-5.79s5.45-3.68 8.29-5.49c1.42-.91 2.92-1.7 4.39-2.56l2.23-1.27c.75-.42 1.53-.79 2.3-1.19 1.54-.77 3.09-1.58 4.66-2.34l4.84-2.15a124.255 124.255 0 0 1 20.7-6.67 113.103 113.103 0 0 1 22.55-2.32 137.994 137.994 0 0 1 46.84 8.29 156.51 156.51 0 0 1 22.15 9.85 142.996 142.996 0 0 1 19.66 12.9 99.669 99.669 0 0 1 15.58 16.43 149.028 149.028 0 0 1 11.76 18.34 168.396 168.396 0 0 1 8.77 18.8 111.796 111.796 0 0 1 5.62 18.71c2.6 12.37 3.4 24.19 3.88 34.94.24 5.38.38 10.51.51 15.36a23.912 23.912 0 0 1-.63 6.9 10.558 10.558 0 0 1-1.33 3c-.613.863-1.34 1.64-2.16 2.31a33.817 33.817 0 0 1-10.14 5.93 37.43 37.43 0 0 1-9.69 2.19 35.38 35.38 0 0 1-7.94-.16c-1.15-.1-2.19-.37-3.15-.53-.96-.16-1.8-.46-2.57-.66l-2-.66c-.57-.19-1-.41-1.41-.55l-.85-.34a1.223 1.223 0 0 0-.25-.09zM30.81 159.18c0-.22-2.58 0-6.61-.62a38.397 38.397 0 0 1-6.92-1.7 39.97 39.97 0 0 1-3.88-1.61 12.348 12.348 0 0 1-3.62-2.35 7.168 7.168 0 0 1-1.48-3.87 58.6 58.6 0 0 1-.39-4.2c-.17-2.7-.15-5.14-.08-7.18.16-4.1.52-6.63.32-6.66-.2-.03-.84 2.45-1.24 6.6a55.499 55.499 0 0 0-.2 7.3c0 1.38.14 2.8.32 4.31a8.26 8.26 0 0 0 1.78 4.61 12.884 12.884 0 0 0 4 2.63 34.012 34.012 0 0 0 4.05 1.6 32.975 32.975 0 0 0 7.19 1.47c4.22.3 6.78-.2 6.76-.33z" fill="#1D1F42"/><path d="M42.96 182.68c-.08-.23-2.67 1.17-7.25 1.32a48.221 48.221 0 0 1-8-.49l-2.32-.31a9.13 9.13 0 0 1-2.22-.49c-1.33-.5-2.2-2-3.14-3.45a58.436 58.436 0 0 1-7.01-16.34c-1.16-4.44-1.46-7.3-1.67-7.27a5.68 5.68 0 0 0 0 2c.145 1.833.412 3.653.8 5.45A51.86 51.86 0 0 0 19 179.92c.47.768.98 1.509 1.53 2.22a5.58 5.58 0 0 0 2.24 1.73c.821.285 1.675.467 2.54.54l2.34.27a42.19 42.19 0 0 0 8.21.21 18.916 18.916 0 0 0 5.41-1.24 4.53 4.53 0 0 0 1.69-.97z" fill="#1D1F42"/><path d="M58.39 200.28c-.2-.08-1.17 2.64-3.66 6.46a9.987 9.987 0 0 1-2.43 2.61 4.293 4.293 0 0 1-3.66.67 12.837 12.837 0 0 1-4-2.1 46.041 46.041 0 0 1-4-3.06 48.321 48.321 0 0 1-6.83-7.05 49.181 49.181 0 0 1-4.38-6.71c-2.18-4-3-6.77-3.26-6.7a6.57 6.57 0 0 0 .41 2 37.49 37.49 0 0 0 2 5.13 43.934 43.934 0 0 0 4.24 7 45.351 45.351 0 0 0 6.9 7.28 43.748 43.748 0 0 0 4.17 3.14 13.81 13.81 0 0 0 4.47 2.2 5.345 5.345 0 0 0 4.57-1 10.349 10.349 0 0 0 2.57-3 29.664 29.664 0 0 0 2.38-5 5.332 5.332 0 0 0 .51-1.87z" fill="#1D1F42"/><path d="M88.44 220.14c-.14 0-.44 1.62-1.28 4.35a44.708 44.708 0 0 1-1.78 4.79c-.2.447-.41.907-.63 1.38-.2.456-.444.892-.73 1.3-.066.078-.14.148-.22.21h-.06l-.14.12c-.073.074-.14.154-.2.24-.172.261-.33.531-.47.81-.13.26-.26.52-.4.74a2.56 2.56 0 0 1-.19.26 14.285 14.285 0 0 1-2.85-.29 28.207 28.207 0 0 1-3-.78 47.888 47.888 0 0 1-6.27-2.44 39.742 39.742 0 0 1-9.3-6.31 66.989 66.989 0 0 1-6.49-6.62c-3.46-4-5-6.93-5.18-6.84.174.767.486 1.495.92 2.15a41.185 41.185 0 0 0 3.54 5.27 58.93 58.93 0 0 0 6.4 6.93 38.676 38.676 0 0 0 9.55 6.6 45.88 45.88 0 0 0 6.36 2.54c1.047.318 2.112.572 3.19.76a14.8 14.8 0 0 0 3.22.26c.28-.037.538-.172.73-.38a2.74 2.74 0 0 0 .33-.47c.17-.29.3-.56.43-.82a5.38 5.38 0 0 1 .37-.69l.06-.09v-.11s.15.21.08.1l.1-.09a3.37 3.37 0 0 0 .37-.38 7.75 7.75 0 0 0 .82-1.54c.21-.49.41-1 .59-1.44a35.212 35.212 0 0 0 1.56-5c.62-2.85.68-4.5.57-4.52z" fill="#1D1F42"/><path d="M119.94 227.95c-.2.06.66 2.91 1.08 7.64.05.59.09 1.21.12 1.85a5.967 5.967 0 0 1-.14 1.86 3.7 3.7 0 0 1-2.82 2.41c-1.59.35-3.15 1-4.72 1.24h-1.12l-1.3-.21-2.64-.48a115.927 115.927 0 0 1-17.9-5c-4.48-1.64-7.2-2.8-7.29-2.62-.09.18 2.52 1.61 7 3.48a90.47 90.47 0 0 0 18 5.42c.9.18 1.8.33 2.68.48l1.32.2.33.05c.133.01.267.01.4 0 .247.02.494.02.74 0 1.86-.29 3.36-1 4.86-1.35a4.78 4.78 0 0 0 3.57-3.3c.147-.72.178-1.46.09-2.19-.06-.66-.13-1.29-.2-1.89a36.651 36.651 0 0 0-1.2-5.59 5.513 5.513 0 0 0-.86-2z" fill="#1D1F42"/><path d="M154.52 225.48c-.13.17 2.74 2.17 6.54 6.25a9.807 9.807 0 0 1 2.44 3.56 3.001 3.001 0 0 1-.14 2.11 4.436 4.436 0 0 1-1.6 1.75c-.75.502-1.56.908-2.41 1.21-.87.32-1.84.58-2.79.89-1.92.54-3.93 1.07-6 1.45a67.724 67.724 0 0 1-21.66.59c-5.53-.74-8.86-1.79-8.93-1.57.714.41 1.481.72 2.28.92a52.873 52.873 0 0 0 6.51 1.56 61.27 61.27 0 0 0 22.05-.22c2.13-.39 4.18-.94 6.14-1.5 1-.33 1.92-.6 2.87-1 .941-.35 1.835-.817 2.66-1.39a5.635 5.635 0 0 0 1.95-2.26c.39-.916.436-1.943.13-2.89a10.358 10.358 0 0 0-2.81-3.89 42.294 42.294 0 0 0-5.1-4.35 7.638 7.638 0 0 0-2.13-1.22z" fill="#1D1F42"/><path d="M164.64 236.94a.42.42 0 0 0 .35-.35.575.575 0 0 0-.34-.58.645.645 0 0 0-.7.06.462.462 0 0 0-.11.51c.05.15.13.26.16.36a.327.327 0 0 1 0 .17s.28-.14.64-.17z" fill="#1D1F42"/><path d="M182.76 214.08c-.06.06.44.66 1.45 1.63a40.866 40.866 0 0 0 4.61 3.73 47.074 47.074 0 0 0 7.65 4.38l.29.13.13.06c.016.345-.052.688-.2 1a4.764 4.764 0 0 1-1.51 1.72c-.708.518-1.457.977-2.24 1.37l-2.47 1.31a82.547 82.547 0 0 1-9.65 4.4 48.991 48.991 0 0 1-8.3 2.32c-4.85.86-7.94.52-8 .75a6.636 6.636 0 0 0 2.15.37c1.985.124 3.978.054 5.95-.21a42.845 42.845 0 0 0 8.57-2.1 73.622 73.622 0 0 0 9.86-4.34c.84-.44 1.68-.88 2.49-1.33a17.46 17.46 0 0 0 2.4-1.5 6.088 6.088 0 0 0 1.87-2.23 3.217 3.217 0 0 0 .29-1.54c-.09-.34 0-.9-.47-.95l-.71-.31a52.659 52.659 0 0 1-7.63-4c-4.12-2.72-6.39-4.82-6.53-4.66z" fill="#1D1F42"/><path d="M202.55 196.31c-.06.18 2.58 1.17 6.88 2.64l3.52 1.18 2 .65c.68.23 1.39.43 2 .7a4.252 4.252 0 0 1 1.64 1.11 1.38 1.38 0 0 1 .1 1.59c-.413.673-.87 1.318-1.37 1.93a60.435 60.435 0 0 1-1.59 2 66.693 66.693 0 0 1-12.94 11.83c-3.71 2.58-6.2 3.88-6.11 4.07.09.19 2.72-.88 6.62-3.3a56.979 56.979 0 0 0 13.43-11.76c.56-.68 1.11-1.35 1.62-2 .545-.682 1.043-1.4 1.49-2.15.237-.466.344-.988.31-1.51a2.588 2.588 0 0 0-.59-1.42 5.328 5.328 0 0 0-2.15-1.45c-.75-.3-1.46-.47-2.14-.68l-2-.59-3.58-1c-4.36-1.34-7.09-2.01-7.14-1.84z" fill="#1D1F42"/><path d="M218.57 176.88c0 .19 2.36.69 6.2 1.6 1.91.46 4.19 1 6.7 1.7.61.17 1.31.35 1.89.53.27.1.36.18.4.29a.993.993 0 0 1 0 .61 15.368 15.368 0 0 1-.86 1.85c-.34.64-.68 1.3-1.05 1.94a62.812 62.812 0 0 1-9.06 12.26c-2.7 2.84-4.58 4.42-4.45 4.58.13.16 2.18-1.2 5.1-3.93a52.14 52.14 0 0 0 9.55-12.27c.38-.66.72-1.33 1.06-2 .366-.672.681-1.37.94-2.09.17-.472.17-.988 0-1.46a1.844 1.844 0 0 0-1.16-1c-.74-.21-1.34-.35-2-.51a99.62 99.62 0 0 0-6.82-1.44c-3.99-.64-6.42-.83-6.44-.66z" fill="#1D1F42"/><path d="M235.07 175.51c-.37 0-.67 1.24-1.39 2.55-.72 1.31-1.57 2.24-1.37 2.55.1.15.49.09 1-.23a4.778 4.778 0 0 0 1.53-1.7 4.708 4.708 0 0 0 .58-2.21c-.02-.6-.18-.95-.35-.96zM39.48 119.16c.21 0 .18-2.61.59-6.76.2-2.07.57-4.53 1.11-7.22a73.984 73.984 0 0 1 2.39-8.62 72.833 72.833 0 0 1 3.51-8.21 68.748 68.748 0 0 1 3.64-6.34c2.27-3.5 3.91-5.52 3.75-5.66-.16-.14-2 1.72-4.51 5.14a54.652 54.652 0 0 0-3.94 6.32 62.89 62.89 0 0 0-3.67 8.34 63.987 63.987 0 0 0-2.33 8.79 53.587 53.587 0 0 0-.84 7.39c-.16 4.24.15 6.84.3 6.83z" fill="#1D1F42"/><path d="M45.48 103.94c.37.06 1.1-3 2.53-6.52 1.43-3.52 3-6.24 2.69-6.45-.31-.21-2.41 2.26-3.9 6-1.49 3.74-1.67 6.93-1.32 6.97zM49.1 123.07c.42.05 1-8.42 4.64-18.11 3.64-9.69 8.58-16.56 8.28-16.79-.13-.1-1.55 1.48-3.44 4.35a60.307 60.307 0 0 0-9.22 25c-.47 3.41-.42 5.54-.26 5.55zM189.87 157.35c.16.06 1.25-2.53 2.76-6.82a87.131 87.131 0 0 0 4.28-17.28 44.666 44.666 0 0 0-1.13-17.78 28.037 28.037 0 0 0-2-5c-.59-1.14-1-1.72-1.07-1.68-.07.04 1.11 2.6 2.15 7a49.6 49.6 0 0 1 .72 17.39 111.853 111.853 0 0 1-3.86 17.16c-1.25 4.25-2.03 6.95-1.85 7.01zM201.61 139.07c.31.12 2-3.66 2.25-8.69.25-5.03-.87-9-1.19-8.89-.32.11.2 4-.11 8.81-.31 4.81-1.32 8.65-.95 8.77zM208.85 150.86c.14.06 1.4-2.27 2.76-6.33a62.048 62.048 0 0 0 3-16.42 61.312 61.312 0 0 0-.26-9.21 41.602 41.602 0 0 0-1.33-7.42 16.354 16.354 0 0 0-2.14-4.65c-.7-1-1.22-1.42-1.28-1.37-.06.05 1.58 2.17 2.53 6.26a48.264 48.264 0 0 1 1 7.29c.233 2.994.28 6 .14 9a75.753 75.753 0 0 1-2.57 16.21c-1.09 4.11-2.04 6.59-1.85 6.64zM176.92 165.55a5.44 5.44 0 0 0-1.29.5 29.036 29.036 0 0 0-3.46 1.94c-1.45.93-3.16 2.17-5.09 3.66-1.93 1.49-4.09 3.22-6.63 4.88a31.117 31.117 0 0 1-8.93 4.08 44.674 44.674 0 0 1-11.23 1.49 107.374 107.374 0 0 1-12.61-.77l-13.56-1.42c-9.3-1-18.14-2-26.16-3.1-4-.54-7.81-1.1-11.37-1.67-1.77-.31-3.55-.42-4.86-1.16a2.164 2.164 0 0 1-1.2-1.53 3.542 3.542 0 0 1 .45-2 18.731 18.731 0 0 1 5.04-6.2 39.167 39.167 0 0 1 5.15-3.44c3-1.7 4.66-2.55 4.61-2.65a5.464 5.464 0 0 0-1.29.49c-.83.37-2 .92-3.57 1.72a35.39 35.39 0 0 0-5.32 3.36 18.866 18.866 0 0 0-5.44 6.37 4.42 4.42 0 0 0-.59 2.53 3.2 3.2 0 0 0 1.65 2.18c.802.438 1.67.742 2.57.9l2.63.46c3.55.61 7.36 1.21 11.37 1.79 8 1.16 16.89 2.21 26.19 3.2l13.58 1.4c4.232.494 8.49.728 12.75.7a44.591 44.591 0 0 0 11.5-1.65 31.623 31.623 0 0 0 9.16-4.35c2.56-1.75 4.68-3.55 6.57-5.08 1.89-1.53 3.52-2.83 4.91-3.81 2.78-1.95 4.57-2.71 4.47-2.82z" fill="#1D1F42"/><path d="M176.07 165.98a18.453 18.453 0 0 0-3.51-.74c-2.28-.4-5.58-.91-9.67-1.48-8.18-1.15-19.51-2.5-32.06-3.57-12.55-1.07-24-1.67-32.21-1.92-4.13-.13-7.47-.19-9.78-.18-1.198-.07-2.4-.023-3.59.14 1.176.231 2.371.355 3.57.37l9.76.59c8.23.49 19.6 1.23 32.13 2.3 12.53 1.07 23.87 2.27 32.07 3.19l9.71 1.06c1.183.194 2.382.275 3.58.24zM70.02 170.98a2.27 2.27 0 0 0-.3 1.21 10.27 10.27 0 0 0 .48 3.53c.239.848.614 1.652 1.11 2.38.315.41.693.768 1.12 1.06.435.32.893.607 1.37.86a11.85 11.85 0 0 0 3.38 1.2l3.86.59 18.98 3c7.14 1.12 15 2.31 23.3 3.23 4.15.46 8.21.84 12.13 1.11a40.84 40.84 0 0 0 11.45-.63 28.324 28.324 0 0 0 9.66-3.86 53.108 53.108 0 0 0 7-5.72c4-3.75 7-7 9.11-9.21 2.11-2.21 3.32-3.38 3.26-3.45-.06-.07-.37.22-1 .73s-1.51 1.31-2.63 2.35c-2.25 2.08-5.32 5.27-9.37 8.9a54.549 54.549 0 0 1-6.92 5.49 27.417 27.417 0 0 1-9.31 3.59c-3.661.693-7.4.874-11.11.54-3.91-.29-8-.68-12.09-1.14-8.27-.91-16.11-2.07-23.26-3.12-7.15-1.05-13.57-2-19-2.72l-3.85-.5a11.281 11.281 0 0 1-3.18-1 13.768 13.768 0 0 1-1.32-.77 4.273 4.273 0 0 1-1-.89 7.826 7.826 0 0 1-1.12-2.16 11.2 11.2 0 0 1-.69-3.37c-.06-.81.03-1.21-.06-1.23zM84.13 157.47c0-.2-3.24-.92-8.47-2.27s-12.4-3.43-20.13-6.27c-7.73-2.84-14.52-5.93-19.37-8.3-4.85-2.37-7.81-3.95-7.91-3.77a8.429 8.429 0 0 0 1.92 1.37c1.28.82 3.18 1.92 5.57 3.22a152.962 152.962 0 0 0 19.34 8.7 152.507 152.507 0 0 0 20.37 5.95c2.65.56 4.81 1 6.32 1.16a8.71 8.71 0 0 0 2.36.21zM220.07 171.06c0-.18-2.36-.48-6.18-.88l-14.94-1.54-14.93-1.63c-3.82-.4-6.2-.61-6.23-.43-.03.18 2.31.7 6.11 1.35 3.8.65 9.07 1.39 14.92 2 5.85.61 11.16 1 15 1.16 3.84.16 6.2.15 6.25-.03zM222.47 37.45c0-.06-.63.09-1.8.19-1.712.14-3.435.018-5.11-.36a35.689 35.689 0 0 1-7.67-2.77c-2.87-1.36-6.14-3.07-9.87-4.7a123.193 123.193 0 0 0-27.2-8.38c-2.63-.55-5.37-.87-8.15-1.26-1.4-.16-2.81-.27-4.24-.41-1.43-.14-2.87-.24-4.33-.3-2.92-.19-5.89-.19-8.91-.21-3.02-.02-6.08.14-9.16.4-6.014.42-12 1.175-17.93 2.26-5.74 1-11.24 2.26-16.41 3.66-5.17 1.4-10 2.9-14.56 4.4-2.25.79-4.43 1.52-6.5 2.29-2.07.77-4.05 1.47-6 2.06a33.453 33.453 0 0 1-10.55 1.79 19.78 19.78 0 0 1-7.86-1.74 14.68 14.68 0 0 1-4.2-2.89 11.438 11.438 0 0 1-.92-1c-.2-.22-.32-.33-.34-.32.055.144.133.28.23.4.248.384.53.745.84 1.08a13.61 13.61 0 0 0 4.19 3.17 19.88 19.88 0 0 0 8 2c3.688.06 7.36-.487 10.87-1.62 2-.57 4-1.26 6-2s4.26-1.45 6.5-2.22c4.52-1.45 9.36-2.94 14.53-4.26 5.17-1.32 10.62-2.56 16.33-3.56a165.26 165.26 0 0 1 17.79-2.22c3.06-.26 6.1-.31 9.09-.4 2.99-.09 5.93 0 8.82.19 1.45 0 2.88.13 4.29.28 1.41.15 2.82.23 4.21.39 2.75.38 5.47.68 8.07 1.21a126.115 126.115 0 0 1 27 8c3.73 1.54 7 3.18 9.93 4.49a34.301 34.301 0 0 0 8.01 2.72c1.727.334 3.499.375 5.24.12.448-.069.89-.176 1.32-.32.31-.08.46-.14.45-.16z" fill="#1D1F42"/><path fill-rule="evenodd" clip-rule="evenodd" d="M92.219 106.462L69 99.747 86.417 83l5.802 23.462z" fill="#F39200"/><path fill-rule="evenodd" clip-rule="evenodd" d="M97.987 129.912l-23.265-6.704 17.498-16.746 5.767 23.45z" fill="#FDD400"/><path fill-rule="evenodd" clip-rule="evenodd" d="M115.461 113.096l-23.242-6.634 17.394-16.817 5.848 23.451z" fill="#E94591"/><path fill-rule="evenodd" clip-rule="evenodd" d="M92.219 106.462l23.219 6.645-17.452 16.805-5.767-23.45z" fill="#C52D88"/><path fill-rule="evenodd" clip-rule="evenodd" d="M69.012 99.735l23.207 6.727-17.498 16.746-5.71-23.473z" fill="#3AAA35"/><path fill-rule="evenodd" clip-rule="evenodd" d="M92.219 106.462L86.417 83l23.196 6.645-17.394 16.817z" fill="#FFED00"/><path fill-rule="evenodd" clip-rule="evenodd" d="M92.219 106.462L69 99.747 86.417 83l5.802 23.462z" fill="#F39200"/><path fill-rule="evenodd" clip-rule="evenodd" d="M97.987 129.912l-23.265-6.704 17.498-16.746 5.767 23.45z" fill="#787FBD"/><path fill-rule="evenodd" clip-rule="evenodd" d="M115.461 113.096l-23.242-6.634 17.394-16.817 5.848 23.451z" fill="#E94792"/><path fill-rule="evenodd" clip-rule="evenodd" d="M92.219 106.462l23.219 6.645-17.452 16.805-5.767-23.45z" fill="#64B6E7"/><path fill-rule="evenodd" clip-rule="evenodd" d="M69.012 99.735l23.207 6.727-17.498 16.746-5.71-23.473z" fill="#93C461"/><path fill-rule="evenodd" clip-rule="evenodd" d="M92.219 106.462L86.417 83l23.196 6.645-17.394 16.817z" fill="#FFED00"/><path d="M133.329 128.987h-12.76v-10.564h1.63v9.027h3.941v-9.027h1.63v9.027h3.941v-9.027h1.629v10.564h-.011zM143.441 128.987l-2.173-3.363c-.312-.486-.566-.809-.774-.971-.208-.162-.52-.243-.959-.243h-1.341v4.565h-1.63v-10.563h1.63v4.415h1.225c.428 0 .74-.081.948-.243.208-.162.474-.485.797-.971l2.046-3.213h1.861l-2.404 3.722c-.543.774-.983 1.248-1.329 1.433.231.081.45.231.658.439.208.22.463.567.775 1.063l2.508 3.895h-1.838v.035zM148.006 119.903c1.052-1.052 2.312-1.572 3.803-1.572s2.762.52 3.814 1.572c1.051 1.052 1.572 2.323 1.572 3.814s-.521 2.762-1.572 3.814c-1.052 1.051-2.323 1.572-3.814 1.572s-2.751-.521-3.803-1.572c-1.051-1.052-1.571-2.323-1.571-3.814s.52-2.762 1.571-3.814zm6.473 1.052c-.729-.729-1.618-1.098-2.67-1.098-1.052 0-1.942.369-2.658 1.098-.717.728-1.075 1.652-1.075 2.75 0 1.121.358 2.034 1.075 2.762.716.729 1.606 1.087 2.658 1.087 1.052 0 1.941-.358 2.67-1.087.728-.728 1.086-1.641 1.086-2.762 0-1.098-.358-2.022-1.086-2.75zM162.928 121.44l-3.016 7.559h-1.792l4.357-10.564h.948l4.311 10.564h-1.792l-3.016-7.559zM171.838 126.629l-.97 2.37h-1.792l4.357-10.564h.948l4.311 10.564h-1.791l-.948-2.37h-4.115zm2.069-5.224l-1.491 3.676h2.982l-1.491-3.676zM130.174 85.624c-5.652 0-9.535 3.744-9.535 9.06 0 4.982 3.444 8.622 8.541 9.015l-5.571 8.102h6.749l7.848-11.916c.948-1.433 1.502-3.224 1.502-5.2 0-5.328-3.848-9.061-9.534-9.061zm0 12.609c-1.942 0-3.664-1.318-3.664-3.56s1.722-3.56 3.664-3.56c1.976 0 3.663 1.283 3.663 3.56s-1.687 3.56-3.663 3.56zM142.192 91.784h10.344l-2.277 5.651h-2.334l-2.277 5.64h2.335l-3.514 8.726h6.23l3.513-8.726h2.577l2.266-5.64h-2.566l2.566-6.391v-4.912h-16.863v5.652zM178.784 86.132H161.91v5.652h10.344l-2.277 5.651h-2.323l-2.277 5.64h2.323l-3.513 8.726h6.229l3.514-8.726h2.577l2.277-5.64h-2.577l2.577-6.391v-4.912z" fill="#0067B1"/></g><defs><clipPath id="clip0"><path fill="#fff" d="M0 0h262.97v245.09H0z"/></clipPath></defs></svg>