<svg width="255" height="165" fill="none" xmlns="http://www.w3.org/2000/svg"><g clip-path="url(#clip0)"><path d="M254.07.5H.6v11.74h253.47V.5z" fill="#848383" stroke="#1D1D1B" stroke-miterlimit="10"/><path d="M253.09 14.2H1.48v144.39h251.61V14.2z" fill="#F2F2F2" stroke="#1D1D1B" stroke-miterlimit="10"/><path d="M181.87 161.33H59.78v3.13h122.09v-3.13z" fill="#848383" stroke="#1D1D1B" stroke-miterlimit="10"/><path d="M253.87 158.68H.5v2.25h253.37v-2.25zM253.87 12.53H.6v2.45h253.27v-2.45z" fill="#61605E" stroke="#1D1D1B" stroke-miterlimit="10"/><path fill-rule="evenodd" clip-rule="evenodd" d="M189.805 35.96L175 31.677 186.105 21l3.7 14.96z" fill="#F39200"/><path fill-rule="evenodd" clip-rule="evenodd" d="M193.482 50.912l-14.835-4.274 11.157-10.678 3.678 14.952z" fill="#FDD400"/><path fill-rule="evenodd" clip-rule="evenodd" d="M204.624 40.19l-14.819-4.23 11.09-10.723 3.729 14.952z" fill="#E94591"/><path fill-rule="evenodd" clip-rule="evenodd" d="M189.805 35.96l14.804 4.237-11.127 10.715-3.677-14.953z" fill="#C52D88"/><path fill-rule="evenodd" clip-rule="evenodd" d="M175.007 31.67l14.797 4.29-11.157 10.678-3.64-14.967z" fill="#3AAA35"/><path fill-rule="evenodd" clip-rule="evenodd" d="M189.805 35.96l-3.7-14.96 14.79 4.237-11.09 10.723z" fill="#FFED00"/><path fill-rule="evenodd" clip-rule="evenodd" d="M189.805 35.96L175 31.677 186.105 21l3.7 14.96z" fill="#F39200"/><path fill-rule="evenodd" clip-rule="evenodd" d="M193.482 50.912l-14.835-4.274 11.157-10.678 3.678 14.952z" fill="#787FBD"/><path fill-rule="evenodd" clip-rule="evenodd" d="M204.624 40.19l-14.819-4.23 11.09-10.723 3.729 14.952z" fill="#E94792"/><path fill-rule="evenodd" clip-rule="evenodd" d="M189.805 35.96l14.804 4.237-11.127 10.715-3.677-14.953z" fill="#64B6E7"/><path fill-rule="evenodd" clip-rule="evenodd" d="M175.007 31.67l14.797 4.29-11.157 10.678-3.64-14.967z" fill="#93C461"/><path fill-rule="evenodd" clip-rule="evenodd" d="M189.805 35.96l-3.7-14.96 14.79 4.237-11.09 10.723z" fill="#FFED00"/><path d="M216.017 50.322h-8.135v-6.735h1.039v5.755h2.513v-5.755h1.039v5.755h2.513v-5.755h1.039v6.735h-.008zM222.466 50.322l-1.386-2.144c-.199-.31-.361-.516-.493-.62-.133-.103-.332-.154-.612-.154h-.855v2.91h-1.039V43.58h1.039v2.815h.781c.273 0 .472-.051.605-.154.132-.104.302-.31.508-.62l1.304-2.048h1.187l-1.533 2.373c-.346.493-.626.796-.847.913.147.052.287.148.42.28.132.14.294.362.493.678l1.599 2.484h-1.171v.022zM225.376 44.53a3.294 3.294 0 0 1 2.425-1.002c.95 0 1.761.331 2.432 1.002.67.67 1.002 1.481 1.002 2.432 0 .95-.332 1.76-1.002 2.431-.671.671-1.482 1.003-2.432 1.003a3.294 3.294 0 0 1-2.425-1.002c-.67-.671-1.002-1.482-1.002-2.432s.332-1.762 1.002-2.432zm4.127.67a2.319 2.319 0 0 0-1.702-.7 2.29 2.29 0 0 0-1.695.7c-.457.465-.686 1.054-.686 1.754 0 .715.229 1.297.686 1.762.457.464 1.024.692 1.695.692.67 0 1.238-.228 1.702-.692.464-.465.693-1.047.693-1.762 0-.7-.229-1.29-.693-1.754zM234.89 45.51l-1.924 4.82h-1.142l2.778-6.736h.605l2.748 6.735h-1.142l-1.923-4.819zM240.572 48.819l-.619 1.51h-1.142l2.778-6.735h.604l2.749 6.735h-1.143l-.604-1.51h-2.623zm1.319-3.331l-.951 2.343h1.901l-.95-2.343zM214.005 22.673c-3.603 0-6.079 2.388-6.079 5.777 0 3.176 2.196 5.498 5.446 5.748l-3.552 5.166h4.303l5.004-7.598c.604-.913.958-2.056.958-3.316 0-3.397-2.454-5.777-6.08-5.777zm0 8.04c-1.238 0-2.336-.84-2.336-2.27 0-1.43 1.098-2.27 2.336-2.27 1.26 0 2.336.818 2.336 2.27s-1.076 2.27-2.336 2.27zM221.669 26.6h6.595l-1.451 3.604h-1.489l-1.452 3.596h1.489l-2.24 5.564h3.972l2.24-5.564h1.643l1.445-3.596h-1.636l1.636-4.075v-3.132h-10.752v3.604zM245 22.997h-10.759v3.604h6.596l-1.452 3.603h-1.481l-1.452 3.596h1.481l-2.24 5.564h3.972l2.24-5.564h1.643L245 30.204h-1.643L245 26.13v-3.132z" fill="#0067B1"/></g><defs><clipPath id="clip0"><path fill="#fff" d="M0 0h254.57v164.96H0z"/></clipPath></defs></svg>