<svg width="24" height="23" fill="none" xmlns="http://www.w3.org/2000/svg"><path d="M18.995 22H12.74l-.077-.039c-1.792-.076-3.623-.46-5.416-1.036-.267-.077-.686-.346-.686-.998V9.368c0-.384.152-.691.457-.921.916-.73 1.564-1.306 2.136-1.92.572-.614.916-1.19 1.145-1.805.343-.96.686-1.881 1.03-2.764.114-.269.228-.576.457-.883.572-.806 1.411-1.152 2.327-1.037 1.068.154 1.83.768 2.06 1.766.152.423.228.883.228 1.344.077 1.382-.19 2.726-.381 3.955 0 .038 0 .077-.038.153h3.433c.991 0 1.907.5 2.44 1.306.497.768.611 1.728.306 2.61.152.193.305.384.458.615.152.269.228.537.305.768.038.077.038.153.076.23l.038.115-.038.73c0 .038 0 .077-.038.115-.115.576-.382 1.113-.763 1.497a2.83 2.83 0 0 1 .076 1.69 3.079 3.079 0 0 1-.915 1.497 2.869 2.869 0 0 1-.915 3.072c-.42.345-.916.499-1.335.614L18.995 22zm-5.988-1.536h5.797c.267-.077.496-.153.649-.307a1.358 1.358 0 0 0 .343-1.69c-.038-.038-.038-.076-.038-.115l-.305-.614.61-.384c.382-.23.649-.537.725-.921.076-.384.038-.768-.191-1.075l-.42-.615.649-.46c.038-.039.076-.039.114-.077.267-.23.458-.5.534-.845 0-.038 0-.077.038-.115v-.192c0-.077-.038-.115-.038-.192a1.795 1.795 0 0 0-.114-.346c-.076-.153-.229-.307-.381-.46-.077-.077-.153-.192-.23-.27l.573-.498-.725-.269s.076-.23.153-.384a1.26 1.26 0 0 0-.115-1.267 1.461 1.461 0 0 0-1.182-.614H14.189l.267-1.267c.038-.23.076-.461.153-.691.19-1.19.42-2.38.381-3.61 0-.345-.076-.69-.152-1.036-.191-.23-.344-.538-.916-.614-.381-.039-.648.076-.915.422a1.766 1.766 0 0 0-.267.537c-.344.884-.687 1.805-1.03 2.726a6.627 6.627 0 0 1-1.45 2.304c-.572.653-1.258 1.267-2.174 1.997v10.02c1.564.5 3.128.768 4.654.845.114.077.19.077.267.077zM1.526 20.656c-1.03 0-1.373-.653-1.488-1.037L0 19.466v-9.369l.038-.115c.153-.384.534-.96 1.488-.96H5.76v11.634H1.526c.038 0 0 0 0 0zm0-1.536h2.708v-8.6h-2.67v8.6h-.038z" fill="#000"/></svg>