<?xml version="1.0" encoding="UTF-8" standalone="no"?>
<svg
   xmlns:dc="http://purl.org/dc/elements/1.1/"
   xmlns:cc="http://creativecommons.org/ns#"
   xmlns:rdf="http://www.w3.org/1999/02/22-rdf-syntax-ns#"
   xmlns:svg="http://www.w3.org/2000/svg"
   xmlns="http://www.w3.org/2000/svg"
   viewBox="0 0 106.72587 97.756134"
   height="97.756134"
   width="106.72587"
   xml:space="preserve"
   id="svg2"
   version="1.1"><metadata
     id="metadata8"><rdf:RDF><cc:Work
         rdf:about=""><dc:format>image/svg+xml</dc:format><dc:type
           rdf:resource="http://purl.org/dc/dcmitype/StillImage" /></cc:Work></rdf:RDF></metadata><defs
     id="defs6"><clipPath
       id="clipPath18"
       clipPathUnits="userSpaceOnUse"><path
         id="path16"
         d="M 0,73.317 H 80.044 V 0 H 0 Z" /></clipPath></defs><g
     transform="matrix(1.3333333,0,0,-1.3333333,0,97.756133)"
     id="g10"><g
       id="g12"><g
         clip-path="url(#clipPath18)"
         id="g14"><g
           transform="translate(6.5415,45)"
           id="g20"><path
             id="path22"
             style="fill:#333333;fill-opacity:1;fill-rule:nonzero;stroke:none"
             d="M 0,0 H 67.391 L 33.695,24.642 Z m 72.003,-3 h -0.02 -76.575 c -0.649,0 -1.224,0.592 -1.426,1.209 -0.202,0.618 0.017,1.382 0.54,1.765 L 32.81,28.017 c 0.527,0.385 1.243,0.407 1.771,0.022 L 72.728,0.153 c 0.462,-0.256 0.775,-0.918 0.775,-1.483 0,-0.828 -0.671,-1.67 -1.5,-1.67" /></g><g
           transform="translate(78.5)"
           id="g24"><path
             id="path26"
             style="fill:#333333;fill-opacity:1;fill-rule:nonzero;stroke:none"
             d="m 0,0 h -77 c -0.829,0 -1.5,0.672 -1.5,1.5 0,0.828 0.671,1.5 1.5,1.5 H 0 C 0.829,3 1.5,2.328 1.5,1.5 1.5,0.672 0.829,0 0,0" /></g><g
           transform="translate(5.9698,5.8502)"
           id="g28"><path
             id="path30"
             style="fill:#333333;fill-opacity:1;fill-rule:nonzero;stroke:none"
             d="m 0,0 c -0.829,0 -1.5,0.672 -1.5,1.5 v 31 c 0,0.828 0.671,1.5 1.5,1.5 0.829,0 1.5,-0.672 1.5,-1.5 V 1.5 C 1.5,0.672 0.829,0 0,0" /></g><path
           id="path32"
           style="fill:#87d3f9;fill-opacity:1;fill-rule:nonzero;stroke:none"
           d="m 13.47,7 h -3 v 32 h 3 z" /><g
           transform="translate(73.9698,5.8502)"
           id="g34"><path
             id="path36"
             style="fill:#333333;fill-opacity:1;fill-rule:nonzero;stroke:none"
             d="m 0,0 c -0.829,0 -1.5,0.672 -1.5,1.5 v 31 c 0,0.828 0.671,1.5 1.5,1.5 0.829,0 1.5,-0.672 1.5,-1.5 V 1.5 C 1.5,0.672 0.829,0 0,0" /></g><path
           id="path38"
           style="fill:#87d3f9;fill-opacity:1;fill-rule:nonzero;stroke:none"
           d="m 67.47,7 h 3 v 32 h -3 z" /><g
           transform="translate(31.9698,5.8502)"
           id="g40"><path
             id="path42"
             style="fill:#333333;fill-opacity:1;fill-rule:nonzero;stroke:none"
             d="m 0,0 c -0.829,0 -1.5,0.672 -1.5,1.5 v 31 c 0,0.828 0.671,1.5 1.5,1.5 0.829,0 1.5,-0.672 1.5,-1.5 V 1.5 C 1.5,0.672 0.829,0 0,0" /></g><path
           id="path44"
           style="fill:#87d3f9;fill-opacity:1;fill-rule:nonzero;stroke:none"
           d="m 25.47,7 h 3 v 32 h -3 z" /><g
           transform="translate(45.9698,5.8502)"
           id="g46"><path
             id="path48"
             style="fill:#333333;fill-opacity:1;fill-rule:nonzero;stroke:none"
             d="m 0,0 c -0.829,0 -1.5,0.672 -1.5,1.5 v 31 c 0,0.828 0.671,1.5 1.5,1.5 0.829,0 1.5,-0.672 1.5,-1.5 V 1.5 C 1.5,0.672 0.829,0 0,0" /></g><path
           id="path50"
           style="fill:#87d3f9;fill-opacity:1;fill-rule:nonzero;stroke:none"
           d="m 53.47,7 h -3 v 32 h 3 z" /><g
           transform="translate(14.25,47)"
           id="g52"><path
             id="path54"
             style="fill:#ed8569;fill-opacity:1;fill-rule:nonzero;stroke:none"
             d="M 0,0 H 53.083 L 25.987,19 Z" /></g></g></g></g></svg>