<?xml version="1.0" encoding="UTF-8" standalone="no"?>
<svg
   xmlns:dc="http://purl.org/dc/elements/1.1/"
   xmlns:cc="http://creativecommons.org/ns#"
   xmlns:rdf="http://www.w3.org/1999/02/22-rdf-syntax-ns#"
   xmlns:svg="http://www.w3.org/2000/svg"
   xmlns="http://www.w3.org/2000/svg"
   viewBox="0 0 108 89.333336"
   height="89.333336"
   width="108"
   xml:space="preserve"
   id="svg2"
   version="1.1"><metadata
     id="metadata8"><rdf:RDF><cc:Work
         rdf:about=""><dc:format>image/svg+xml</dc:format><dc:type
           rdf:resource="http://purl.org/dc/dcmitype/StillImage" /></cc:Work></rdf:RDF></metadata><defs
     id="defs6"><clipPath
       id="clipPath18"
       clipPathUnits="userSpaceOnUse"><path
         id="path16"
         d="M 0,67 H 81 V 0 H 0 Z" /></clipPath></defs><g
     transform="matrix(1.3333333,0,0,-1.3333333,0,89.333333)"
     id="g10"><g
       id="g12"><g
         clip-path="url(#clipPath18)"
         id="g14"><g
           transform="translate(78,47.5)"
           id="g20"><path
             id="path22"
             style="fill:#333333;fill-opacity:1;fill-rule:nonzero;stroke:none"
             d="m 0,0 c 0,1.933 -1.567,3.5 -3.5,3.5 h -68 C -73.433,3.5 -75,1.933 -75,0 v -41 c 0,-1.933 1.567,-3.5 3.5,-3.5 h 68 c 1.933,0 3.5,1.567 3.5,3.5 z m 3,-41 c 0,-3.59 -2.91,-6.5 -6.5,-6.5 h -68 c -3.59,0 -6.5,2.91 -6.5,6.5 V 0 c 0,3.59 2.91,6.5 6.5,6.5 h 68 C 0.09,6.5 3,3.59 3,0 Z" /></g><g
           transform="translate(53.5,55.85)"
           id="g24"><path
             id="path26"
             style="fill:#333333;fill-opacity:1;fill-rule:nonzero;stroke:none"
             d="m 0,0 c -0.828,0 -1.5,0.672 -1.5,1.5 v 6.65 h -24 V 1.5 C -25.5,0.672 -26.171,0 -27,0 c -0.829,0 -1.5,0.672 -1.5,1.5 V 10 c 0,0.828 0.671,1.15 1.5,1.15 H 0 c 0.828,0 1.5,-0.322 1.5,-1.15 V 1.5 C 1.5,0.672 0.828,0 0,0" /></g><g
           transform="translate(79,35)"
           id="g28"><path
             id="path30"
             style="fill:#333333;fill-opacity:1;fill-rule:nonzero;stroke:none"
             d="m 0,0 h -78 c -0.552,0 -1,0.447 -1,1 0,0.553 0.448,1 1,1 H 0 C 0.553,2 1,1.553 1,1 1,0.447 0.553,0 0,0" /></g><g
           transform="translate(20,33)"
           id="g32"><path
             id="path34"
             style="fill:#87d3f9;fill-opacity:1;fill-rule:nonzero;stroke:none"
             d="m 0,0 c 0,-1.105 -0.895,-2 -2,-2 h -2 c -1.105,0 -2,0.895 -2,2 v 6 c 0,1.105 0.895,2 2,2 h 2 C -0.895,8 0,7.105 0,6 Z" /></g><g
           transform="translate(68,33)"
           id="g36"><path
             id="path38"
             style="fill:#87d3f9;fill-opacity:1;fill-rule:nonzero;stroke:none"
             d="m 0,0 c 0,-1.105 -0.895,-2 -2,-2 h -2 c -1.105,0 -2,0.895 -2,2 v 6 c 0,1.105 0.895,2 2,2 h 2 C -0.895,8 0,7.105 0,6 Z" /></g><g
           transform="translate(12,45)"
           id="g40"><path
             id="path42"
             style="fill:#333333;fill-opacity:1;fill-rule:nonzero;stroke:none"
             d="m 0,0 h -4 c -0.552,0 -1,0.447 -1,1 0,0.553 0.448,1 1,1 H 0 C 0.552,2 1,1.553 1,1 1,0.447 0.552,0 0,0 M 8,0 H 4 C 3.448,0 3,0.447 3,1 3,1.553 3.448,2 4,2 H 8 C 8.552,2 9,1.553 9,1 9,0.447 8.552,0 8,0 m 8,0 h -4 c -0.552,0 -1,0.447 -1,1 0,0.553 0.448,1 1,1 h 4 C 16.552,2 17,1.553 17,1 17,0.447 16.552,0 16,0 m 8,0 h -4 c -0.552,0 -1,0.447 -1,1 0,0.553 0.448,1 1,1 h 4 C 24.552,2 25,1.553 25,1 25,0.447 24.552,0 24,0 m 8,0 h -4 c -0.553,0 -1,0.447 -1,1 0,0.553 0.447,1 1,1 h 4 C 32.553,2 33,1.553 33,1 33,0.447 32.553,0 32,0 m 8,0 h -4 c -0.553,0 -1,0.447 -1,1 0,0.553 0.447,1 1,1 h 4 C 40.553,2 41,1.553 41,1 41,0.447 40.553,0 40,0 m 8,0 h -4 c -0.553,0 -1,0.447 -1,1 0,0.553 0.447,1 1,1 h 4 C 48.553,2 49,1.553 49,1 49,0.447 48.553,0 48,0 m 8,0 h -4 c -0.553,0 -1,0.447 -1,1 0,0.553 0.447,1 1,1 h 4 C 56.553,2 57,1.553 57,1 57,0.447 56.553,0 56,0 m 5,0 h -1 c -0.553,0 -1,0.447 -1,1 0,0.553 0.447,1 1,1 h 1 C 61.553,2 62,1.553 62,1 62,0.447 61.553,0 61,0" /></g></g></g></g></svg>