<?xml version="1.0" encoding="UTF-8" standalone="no"?>
<svg
   xmlns:dc="http://purl.org/dc/elements/1.1/"
   xmlns:cc="http://creativecommons.org/ns#"
   xmlns:rdf="http://www.w3.org/1999/02/22-rdf-syntax-ns#"
   xmlns:svg="http://www.w3.org/2000/svg"
   xmlns="http://www.w3.org/2000/svg"
   viewBox="0 0 140 66.171333"
   height="66.171333"
   width="140"
   xml:space="preserve"
   id="svg2"
   version="1.1"><metadata
     id="metadata8"><rdf:RDF><cc:Work
         rdf:about=""><dc:format>image/svg+xml</dc:format><dc:type
           rdf:resource="http://purl.org/dc/dcmitype/StillImage" /></cc:Work></rdf:RDF></metadata><defs
     id="defs6"><clipPath
       id="clipPath18"
       clipPathUnits="userSpaceOnUse"><path
         id="path16"
         d="M 0,49.628 H 105 V 0 H 0 Z" /></clipPath></defs><g
     transform="matrix(1.3333333,0,0,-1.3333333,0,66.171333)"
     id="g10"><g
       id="g12"><g
         clip-path="url(#clipPath18)"
         id="g14"><g
           transform="translate(7.5)"
           id="g20"><path
             id="path22"
             style="fill:#333333;fill-opacity:1;fill-rule:nonzero;stroke:none"
             d="M 0,0 H -6 C -6.829,0 -7.5,0.672 -7.5,1.5 -7.5,2.328 -6.829,3 -6,3 H 0 C 0.829,3 1.5,2.328 1.5,1.5 1.5,0.672 0.829,0 0,0 M 12,0 H 6 C 5.171,0 4.5,0.672 4.5,1.5 4.5,2.328 5.171,3 6,3 h 6 C 12.829,3 13.5,2.328 13.5,1.5 13.5,0.672 12.829,0 12,0 M 24,0 H 18 C 17.171,0 16.5,0.672 16.5,1.5 16.5,2.328 17.171,3 18,3 h 6 C 24.829,3 25.5,2.328 25.5,1.5 25.5,0.672 24.829,0 24,0 M 36,0 H 30 C 29.171,0 28.5,0.672 28.5,1.5 28.5,2.328 29.171,3 30,3 h 6 C 36.829,3 37.5,2.328 37.5,1.5 37.5,0.672 36.829,0 36,0 M 48,0 H 42 C 41.171,0 40.5,0.672 40.5,1.5 40.5,2.328 41.171,3 42,3 h 6 C 48.828,3 49.5,2.328 49.5,1.5 49.5,0.672 48.828,0 48,0 M 60,0 H 54 C 53.172,0 52.5,0.672 52.5,1.5 52.5,2.328 53.172,3 54,3 h 6 C 60.828,3 61.5,2.328 61.5,1.5 61.5,0.672 60.828,0 60,0 M 72,0 H 66 C 65.172,0 64.5,0.672 64.5,1.5 64.5,2.328 65.172,3 66,3 h 6 C 72.828,3 73.5,2.328 73.5,1.5 73.5,0.672 72.828,0 72,0 M 84,0 H 78 C 77.172,0 76.5,0.672 76.5,1.5 76.5,2.328 77.172,3 78,3 h 6 C 84.828,3 85.5,2.328 85.5,1.5 85.5,0.672 84.828,0 84,0 M 96,0 H 90 C 89.172,0 88.5,0.672 88.5,1.5 88.5,2.328 89.172,3 90,3 h 6 C 96.828,3 97.5,2.328 97.5,1.5 97.5,0.672 96.828,0 96,0" /></g><g
           transform="translate(15.4204,19.6285)"
           id="g24"><path
             id="path26"
             style="fill:#333333;fill-opacity:1;fill-rule:nonzero;stroke:none"
             d="m 0,0 c -2.07,0 -3.754,-1.684 -3.754,-3.754 0,-2.07 1.684,-3.754 3.754,-3.754 2.07,0 3.754,1.684 3.754,3.754 C 3.754,-1.684 2.07,0 0,0 m 0,-10.508 c -3.724,0 -6.754,3.03 -6.754,6.754 C -6.754,-0.03 -3.724,3 0,3 3.724,3 6.754,-0.03 6.754,-3.754 6.754,-7.478 3.724,-10.508 0,-10.508" /></g><g
           transform="translate(68.415,19.6285)"
           id="g28"><path
             id="path30"
             style="fill:#333333;fill-opacity:1;fill-rule:nonzero;stroke:none"
             d="m 0,0 c -2.07,0 -3.754,-1.684 -3.754,-3.754 0,-2.07 1.684,-3.754 3.754,-3.754 2.07,0 3.754,1.684 3.754,3.754 C 3.754,-1.684 2.07,0 0,0 m 0,-10.508 c -3.724,0 -6.754,3.03 -6.754,6.754 C -6.754,-0.03 -3.724,3 0,3 3.724,3 6.754,-0.03 6.754,-3.754 6.754,-7.478 3.724,-10.508 0,-10.508" /></g><g
           transform="translate(18.7017,18.4742)"
           id="g32"><path
             id="path34"
             style="fill:#333333;fill-opacity:1;fill-rule:nonzero;stroke:none"
             d="m 0,0 c -0.4,0 -0.798,0.158 -1.093,0.472 -0.568,0.604 -0.539,1.553 0.065,2.12 l 19.682,18.519 c 0.604,0.568 1.554,0.539 2.12,-0.065 0.568,-0.603 0.539,-1.552 -0.064,-2.12 L 1.027,0.408 C 0.738,0.135 0.368,0 0,0" /></g><g
           transform="translate(72.2344,17.9756)"
           id="g36"><path
             id="path38"
             style="fill:#333333;fill-opacity:1;fill-rule:nonzero;stroke:none"
             d="m 0,0 c -0.399,0 -0.797,0.158 -1.093,0.472 -0.567,0.604 -0.538,1.553 0.065,2.12 l 19.149,18.017 c 0.604,0.568 1.552,0.54 2.121,-0.064 0.568,-0.604 0.538,-1.553 -0.064,-2.12 L 1.028,0.408 C 0.738,0.135 0.369,0 0,0" /></g><g
           transform="translate(64.9512,18.8814)"
           id="g40"><path
             id="path42"
             style="fill:#333333;fill-opacity:1;fill-rule:nonzero;stroke:none"
             d="m 0,0 c -0.369,0 -0.738,0.135 -1.028,0.408 l -19.25,18.111 c -0.603,0.567 -0.632,1.517 -0.064,2.12 0.567,0.604 1.516,0.633 2.12,0.065 L 1.028,2.592 C 1.631,2.025 1.66,1.076 1.093,0.472 0.797,0.158 0.399,0 0,0" /></g><g
           transform="translate(18.1212,15.8745)"
           id="g44"><path
             id="path46"
             style="fill:#87d3f9;fill-opacity:1;fill-rule:nonzero;stroke:none"
             d="m 0,0 c 0,-1.492 -1.209,-2.701 -2.701,-2.701 -1.491,0 -2.7,1.209 -2.7,2.701 0,1.492 1.209,2.701 2.7,2.701 C -1.209,2.701 0,1.492 0,0" /></g><g
           transform="translate(71.1212,15.8745)"
           id="g48"><path
             id="path50"
             style="fill:#87d3f9;fill-opacity:1;fill-rule:nonzero;stroke:none"
             d="m 0,0 c 0,-1.492 -1.209,-2.701 -2.701,-2.701 -1.491,0 -2.701,1.209 -2.701,2.701 0,1.492 1.21,2.701 2.701,2.701 C -1.209,2.701 0,1.492 0,0" /></g><g
           transform="translate(41.4204,46.6285)"
           id="g52"><path
             id="path54"
             style="fill:#333333;fill-opacity:1;fill-rule:nonzero;stroke:none"
             d="m 0,0 c -2.07,0 -3.754,-1.684 -3.754,-3.754 0,-2.07 1.684,-3.754 3.754,-3.754 2.07,0 3.754,1.684 3.754,3.754 C 3.754,-1.684 2.07,0 0,0 m 0,-10.508 c -3.724,0 -6.754,3.03 -6.754,6.754 C -6.754,-0.03 -3.724,3 0,3 3.724,3 6.754,-0.03 6.754,-3.754 6.754,-7.478 3.724,-10.508 0,-10.508" /></g><g
           transform="translate(94.415,46.6285)"
           id="g56"><path
             id="path58"
             style="fill:#333333;fill-opacity:1;fill-rule:nonzero;stroke:none"
             d="m 0,0 c -2.07,0 -3.754,-1.684 -3.754,-3.754 0,-2.07 1.684,-3.754 3.754,-3.754 2.07,0 3.754,1.684 3.754,3.754 C 3.754,-1.684 2.07,0 0,0 m 0,-10.508 c -3.724,0 -6.754,3.03 -6.754,6.754 C -6.754,-0.03 -3.724,3 0,3 3.724,3 6.754,-0.03 6.754,-3.754 6.754,-7.478 3.724,-10.508 0,-10.508" /></g><g
           transform="translate(44.1212,42.8745)"
           id="g60"><path
             id="path62"
             style="fill:#ed8569;fill-opacity:1;fill-rule:nonzero;stroke:none"
             d="m 0,0 c 0,-1.492 -1.209,-2.701 -2.701,-2.701 -1.491,0 -2.7,1.209 -2.7,2.701 0,1.492 1.209,2.701 2.7,2.701 C -1.209,2.701 0,1.492 0,0" /></g><g
           transform="translate(97.1212,42.8745)"
           id="g64"><path
             id="path66"
             style="fill:#ed8569;fill-opacity:1;fill-rule:nonzero;stroke:none"
             d="m 0,0 c 0,-1.492 -1.209,-2.701 -2.701,-2.701 -1.491,0 -2.7,1.209 -2.7,2.701 0,1.492 1.209,2.701 2.7,2.701 C -1.209,2.701 0,1.492 0,0" /></g></g></g></g></svg>