<?xml version="1.0" encoding="UTF-8" standalone="no"?>
<svg
   xmlns:dc="http://purl.org/dc/elements/1.1/"
   xmlns:cc="http://creativecommons.org/ns#"
   xmlns:rdf="http://www.w3.org/1999/02/22-rdf-syntax-ns#"
   xmlns:svg="http://www.w3.org/2000/svg"
   xmlns="http://www.w3.org/2000/svg"
   viewBox="0 0 90.666664 73.333336"
   height="73.333336"
   width="90.666664"
   xml:space="preserve"
   id="svg2"
   version="1.1"><metadata
     id="metadata8"><rdf:RDF><cc:Work
         rdf:about=""><dc:format>image/svg+xml</dc:format><dc:type
           rdf:resource="http://purl.org/dc/dcmitype/StillImage" /></cc:Work></rdf:RDF></metadata><defs
     id="defs6"><clipPath
       id="clipPath18"
       clipPathUnits="userSpaceOnUse"><path
         id="path16"
         d="M 0,55 H 68 V 0 H 0 Z" /></clipPath></defs><g
     transform="matrix(1.3333333,0,0,-1.3333333,0,73.333333)"
     id="g10"><g
       id="g12"><g
         clip-path="url(#clipPath18)"
         id="g14"><g
           transform="translate(41.2083,17.25)"
           id="g20"><path
             id="path22"
             style="fill:#ed8569;fill-opacity:1;fill-rule:nonzero;stroke:none"
             d="m 0,0 c -5.661,0 -10.25,4.589 -10.25,10.25 0,5.661 4.589,10.25 10.25,10.25" /></g><g
           transform="translate(65,48.5)"
           id="g24"><path
             id="path26"
             style="fill:#333333;fill-opacity:1;fill-rule:nonzero;stroke:none"
             d="m 0,0 c 0,1.933 -1.567,3.5 -3.5,3.5 h -55 C -60.433,3.5 -62,1.933 -62,0 v -42 c 0,-1.933 1.567,-3.5 3.5,-3.5 h 55 c 1.933,0 3.5,1.567 3.5,3.5 z m 3,-42 c 0,-3.59 -2.91,-6.5 -6.5,-6.5 h -55 c -3.59,0 -6.5,2.91 -6.5,6.5 V 0 c 0,3.59 2.91,6.5 6.5,6.5 h 55 C 0.09,6.5 3,3.59 3,0 Z" /></g><g
           transform="translate(66.25,20)"
           id="g28"><path
             id="path30"
             style="fill:#333333;fill-opacity:1;fill-rule:nonzero;stroke:none"
             d="m 0,0 h -26.5 c -0.828,0 -1.75,0.672 -1.75,1.5 v 12 c 0,0.828 0.922,1.5 1.75,1.5 H 0 C 0.828,15 1.5,14.328 1.5,13.5 1.5,12.672 0.828,12 0,12 H -25.25 V 3 H 0 C 0.828,3 1.5,2.328 1.5,1.5 1.5,0.672 0.828,0 0,0" /></g><g
           transform="translate(12.25,47)"
           id="g32"><path
             id="path34"
             style="fill:#333333;fill-opacity:1;fill-rule:nonzero;stroke:none"
             d="m 0,0 h -4 c -0.552,0 -1,0.447 -1,1 0,0.553 0.448,1 1,1 H 0 C 0.552,2 1,1.553 1,1 1,0.447 0.552,0 0,0 M 8,0 H 4 C 3.448,0 3,0.447 3,1 3,1.553 3.448,2 4,2 H 8 C 8.552,2 9,1.553 9,1 9,0.447 8.552,0 8,0 m 8,0 h -4 c -0.552,0 -1,0.447 -1,1 0,0.553 0.448,1 1,1 h 4 C 16.552,2 17,1.553 17,1 17,0.447 16.552,0 16,0 m 8,0 h -4 c -0.552,0 -1,0.447 -1,1 0,0.553 0.448,1 1,1 h 4 C 24.553,2 25,1.553 25,1 25,0.447 24.553,0 24,0 m 8,0 h -4 c -0.553,0 -1,0.447 -1,1 0,0.553 0.447,1 1,1 h 4 C 32.553,2 33,1.553 33,1 33,0.447 32.553,0 32,0 m 8,0 h -4 c -0.553,0 -1,0.447 -1,1 0,0.553 0.447,1 1,1 h 4 C 40.553,2 41,1.553 41,1 41,0.447 40.553,0 40,0 m 8,0 h -4 c -0.553,0 -1,0.447 -1,1 0,0.553 0.447,1 1,1 h 4 C 48.553,2 49,1.553 49,1 49,0.447 48.553,0 48,0" /></g><path
           id="path36"
           style="fill:#87d3f9;fill-opacity:1;fill-rule:nonzero;stroke:none"
           d="M 63,25 H 43 v 5 h 20 z" /></g></g></g></svg>