<?xml version="1.0" encoding="UTF-8" standalone="no"?>
<svg
   xmlns:dc="http://purl.org/dc/elements/1.1/"
   xmlns:cc="http://creativecommons.org/ns#"
   xmlns:rdf="http://www.w3.org/1999/02/22-rdf-syntax-ns#"
   xmlns:svg="http://www.w3.org/2000/svg"
   xmlns="http://www.w3.org/2000/svg"
   viewBox="0 0 103.33333 104.08333"
   height="104.08333"
   width="103.33333"
   xml:space="preserve"
   id="svg2"
   version="1.1"><metadata
     id="metadata8"><rdf:RDF><cc:Work
         rdf:about=""><dc:format>image/svg+xml</dc:format><dc:type
           rdf:resource="http://purl.org/dc/dcmitype/StillImage" /></cc:Work></rdf:RDF></metadata><defs
     id="defs6"><clipPath
       id="clipPath18"
       clipPathUnits="userSpaceOnUse"><path
         id="path16"
         d="M 0,78.063 H 77.5 V 0 H 0 Z" /></clipPath></defs><g
     transform="matrix(1.3333333,0,0,-1.3333333,0,104.08333)"
     id="g10"><g
       id="g12"><g
         clip-path="url(#clipPath18)"
         id="g14"><g
           transform="translate(19.251,42.6875)"
           id="g20"><path
             id="path22"
             style="fill:#333333;fill-opacity:1;fill-rule:nonzero;stroke:none"
             d="M 0,0 C -0.37,0 -0.726,0.206 -0.899,0.561 L -8.001,15.077 -15.103,0.561 c -0.242,-0.497 -0.839,-0.705 -1.338,-0.459 -0.496,0.243 -0.701,0.841 -0.458,1.337 l 8,16.353 c 0.335,0.686 1.46,0.686 1.796,0 l 8,-16.353 C 1.14,0.943 0.934,0.345 0.438,0.102 0.297,0.032 0.147,0 0,0" /></g><g
           transform="translate(76,63)"
           id="g24"><path
             id="path26"
             style="fill:#333333;fill-opacity:1;fill-rule:nonzero;stroke:none"
             d="m 0,0 h -72 c -0.829,0 -1.5,0.672 -1.5,1.5 0,0.828 0.671,1.5 1.5,1.5 H 0 C 0.829,3 1.5,2.328 1.5,1.5 1.5,0.672 0.829,0 0,0" /></g><g
           transform="translate(58)"
           id="g28"><path
             id="path30"
             style="fill:#333333;fill-opacity:1;fill-rule:nonzero;stroke:none"
             d="m 0,0 h -38 c -0.829,0 -1.5,0.672 -1.5,1.5 0,0.828 0.671,1.5 1.5,1.5 H 0 C 0.829,3 1.5,2.328 1.5,1.5 1.5,0.672 0.829,0 0,0" /></g><g
           transform="translate(39.8027,0.0625)"
           id="g32"><path
             id="path34"
             style="fill:#333333;fill-opacity:1;fill-rule:nonzero;stroke:none"
             d="m 0,0 c -0.829,0 -1.5,0.672 -1.5,1.5 v 75 c 0,0.828 0.671,1.5 1.5,1.5 0.829,0 1.5,-0.672 1.5,-1.5 V 1.5 C 1.5,0.672 0.829,0 0,0" /></g><g
           transform="translate(22.5,45.5625)"
           id="g36"><path
             id="path38"
             style="fill:#ed8569;fill-opacity:1;fill-rule:nonzero;stroke:none"
             d="m 0,0 c 0,-6.213 -5.037,-11.25 -11.25,-11.25 -6.213,0 -11.25,5.037 -11.25,11.25" /></g><g
           transform="translate(74.251,42.6875)"
           id="g40"><path
             id="path42"
             style="fill:#333333;fill-opacity:1;fill-rule:nonzero;stroke:none"
             d="M 0,0 C -0.37,0 -0.726,0.206 -0.899,0.561 L -8.001,15.077 -15.103,0.561 c -0.242,-0.497 -0.84,-0.705 -1.338,-0.459 -0.496,0.243 -0.701,0.841 -0.458,1.337 l 8,16.353 c 0.335,0.686 1.46,0.686 1.796,0 l 8,-16.353 C 1.14,0.943 0.934,0.345 0.438,0.102 0.297,0.032 0.147,0 0,0" /></g><g
           transform="translate(77.5,45.5625)"
           id="g44"><path
             id="path46"
             style="fill:#87d3f9;fill-opacity:1;fill-rule:nonzero;stroke:none"
             d="m 0,0 c 0,-6.213 -5.037,-11.25 -11.25,-11.25 -6.213,0 -11.25,5.037 -11.25,11.25" /></g><g
           transform="translate(44.3027,20.5625)"
           id="g48"><path
             id="path50"
             style="fill:#333333;fill-opacity:1;fill-rule:nonzero;stroke:none"
             d="M 0,0 C -0.552,0 -1,0.447 -1,1 V 5 C -1,5.553 -0.552,6 0,6 0.552,6 1,5.553 1,5 V 1 C 1,0.447 0.552,0 0,0 m 0,-8 c -0.552,0 -1,0.447 -1,1 v 4 c 0,0.553 0.448,1 1,1 0.552,0 1,-0.447 1,-1 V -7 C 1,-7.553 0.552,-8 0,-8 m 0,-8 c -0.552,0 -1,0.447 -1,1 v 4 c 0,0.553 0.448,1 1,1 0.552,0 1,-0.447 1,-1 v -4 c 0,-0.553 -0.448,-1 -1,-1" /></g></g></g></g></svg>