<?xml version="1.0" encoding="UTF-8" standalone="no"?>
<svg
   xmlns:dc="http://purl.org/dc/elements/1.1/"
   xmlns:cc="http://creativecommons.org/ns#"
   xmlns:rdf="http://www.w3.org/1999/02/22-rdf-syntax-ns#"
   xmlns:svg="http://www.w3.org/2000/svg"
   xmlns="http://www.w3.org/2000/svg"
   viewBox="0 0 90.863464 132.66667"
   height="132.66667"
   width="90.863464"
   xml:space="preserve"
   id="svg2"
   version="1.1"><metadata
     id="metadata8"><rdf:RDF><cc:Work
         rdf:about=""><dc:format>image/svg+xml</dc:format><dc:type
           rdf:resource="http://purl.org/dc/dcmitype/StillImage" /></cc:Work></rdf:RDF></metadata><defs
     id="defs6"><clipPath
       id="clipPath18"
       clipPathUnits="userSpaceOnUse"><path
         id="path16"
         d="M 0,99.5 H 68.148 V 0 H 0 Z" /></clipPath></defs><g
     transform="matrix(1.3333333,0,0,-1.3333333,0,132.66667)"
     id="g10"><g
       id="g12"><g
         clip-path="url(#clipPath18)"
         id="g14"><g
           transform="translate(8.5001,66)"
           id="g20"><path
             id="path22"
             style="fill:#87d3f9;fill-opacity:1;fill-rule:nonzero;stroke:none"
             d="M 0,0 C 0,-13.712 10.895,-24.872 24.5,-25.312 V 25.312 C 10.895,24.872 0,13.712 0,0" /></g><g
           transform="translate(33.8334,91.3334)"
           id="g24"><path
             id="path26"
             style="fill:#ed8569;fill-opacity:1;fill-rule:nonzero;stroke:none"
             d="m 0,0 c -0.279,0 -0.556,-0.012 -0.833,-0.021 v -50.625 c 0.277,-0.009 0.554,-0.021 0.833,-0.021 13.991,0 25.333,11.342 25.333,25.334 C 25.333,-11.342 13.991,0 0,0" /></g><g
           transform="translate(30.6065,96.3184)"
           id="g28"><path
             id="path30"
             style="fill:#333333;fill-opacity:1;fill-rule:nonzero;stroke:none"
             d="m 0,0 -0.322,2.982 c 1.223,0.132 2.473,0.2 3.716,0.2 L 3.852,3.179 3.811,0.179 3.394,0.182 C 2.259,0.182 1.117,0.12 0,0 m 11.352,-0.844 c -1.219,0.321 -2.477,0.571 -3.738,0.742 L 8.017,2.871 C 9.4,2.684 10.779,2.41 12.117,2.057 Z M -7.406,-1.74 -8.445,1.074 c 1.305,0.483 2.652,0.888 4.004,1.204 l 0.685,-2.92 C -4.987,-0.931 -6.216,-1.3 -7.406,-1.74 m 25.827,-1.934 c -1.109,0.612 -2.268,1.161 -3.445,1.633 l 1.115,2.785 c 1.292,-0.517 2.563,-1.12 3.779,-1.791 z m -32.588,-1.558 -1.693,2.476 c 1.146,0.784 2.353,1.505 3.588,2.143 l 1.376,-2.666 c -1.125,-0.581 -2.225,-1.239 -3.271,-1.953 m 38.758,-2.905 c -0.93,0.864 -1.922,1.677 -2.948,2.419 l 1.757,2.432 c 1.126,-0.815 2.213,-1.706 3.232,-2.653 z m -44.475,-2.123 -2.24,1.996 c 0.922,1.034 1.919,2.025 2.964,2.945 l 1.982,-2.252 c -0.955,-0.84 -1.865,-1.745 -2.706,-2.689 m 49.386,-3.695 c -0.697,1.064 -1.464,2.093 -2.278,3.057 l 2.293,1.936 c 0.892,-1.058 1.731,-2.184 2.495,-3.351 z m -53.723,-2.564 -2.656,1.395 c 0.646,1.229 1.374,2.433 2.166,3.576 l 2.467,-1.709 c -0.723,-1.043 -1.388,-2.141 -1.977,-3.262 m 57.074,-4.264 c -0.413,1.192 -0.906,2.376 -1.466,3.516 l 2.693,1.323 c 0.614,-1.251 1.155,-2.55 1.608,-3.861 z m -59.756,-2.86 -2.916,0.704 c 0.327,1.355 0.741,2.7 1.231,4 l 2.807,-1.059 c -0.447,-1.184 -0.824,-2.41 -1.122,-3.645 m 61.343,-4.584 c -0.11,1.263 -0.3,2.532 -0.564,3.771 l 2.934,0.625 c 0.29,-1.358 0.498,-2.75 0.619,-4.134 z m -65.046,-3.008 v 0.25 c 0,1.315 -0.009,2.637 0.14,3.93 l 3.022,-0.341 c -0.136,-1.18 -0.162,-2.387 -0.162,-3.589 v -0.213 z m 67.755,-5.066 -2.964,0.463 c 0.195,1.251 0.316,2.528 0.358,3.797 l 2.998,-0.1 c -0.046,-1.389 -0.178,-2.789 -0.392,-4.16 m -66.852,-3.2 c -0.345,1.344 -0.609,2.726 -0.788,4.105 l 2.974,0.385 c 0.163,-1.259 0.406,-2.518 0.72,-3.744 z m 64.557,-4.833 -2.761,1.174 c 0.496,1.166 0.924,2.376 1.272,3.596 l 2.885,-0.825 c -0.383,-1.339 -0.853,-2.666 -1.396,-3.945 m -61.504,-2.935 c -0.664,1.225 -1.258,2.499 -1.765,3.789 l 2.793,1.096 c 0.461,-1.175 1.002,-2.337 1.608,-3.453 z m 57.325,-4.289 -2.395,1.809 c 0.764,1.011 1.474,2.08 2.11,3.179 l 2.595,-1.504 c -0.696,-1.203 -1.473,-2.375 -2.31,-3.484 m -52.479,-2.502 c -0.939,1.026 -1.824,2.118 -2.631,3.246 l 2.442,1.745 c 0.736,-1.032 1.544,-2.028 2.4,-2.963 z m 46.68,-3.495 -1.889,2.332 c 0.986,0.797 1.932,1.663 2.814,2.575 l 2.156,-2.085 c -0.966,-0.999 -2.003,-1.949 -3.081,-2.822 m -40.338,-1.927 c -1.155,0.766 -2.277,1.614 -3.336,2.517 l 1.949,2.281 c 0.966,-0.825 1.991,-1.598 3.045,-2.298 z m 33.262,-2.493 -1.268,2.719 c 1.152,0.536 2.279,1.148 3.35,1.817 l 1.59,-2.543 c -1.175,-0.735 -2.41,-1.406 -3.672,-1.993 m -25.79,-1.233 c -1.307,0.461 -2.603,1.01 -3.851,1.632 l 1.338,2.685 c 1.139,-0.567 2.32,-1.068 3.511,-1.489 z" /></g><g
           transform="translate(39.5001)"
           id="g32"><path
             id="path34"
             style="fill:#333333;fill-opacity:1;fill-rule:nonzero;stroke:none"
             d="m 0,0 h -11 c -3.584,0 -6.5,2.916 -6.5,6.5 V 37 c 0,0.828 0.672,1.5 1.5,1.5 0.828,0 1.5,-0.672 1.5,-1.5 V 6.5 C -14.5,4.57 -12.93,3 -11,3 H 0 C 1.93,3 3.5,4.57 3.5,6.5 V 37 c 0,0.828 0.672,1.5 1.5,1.5 0.828,0 1.5,-0.672 1.5,-1.5 V 6.5 C 6.5,2.916 3.584,0 0,0" /></g><g
           transform="translate(44.0001,25)"
           id="g36"><path
             id="path38"
             style="fill:#333333;fill-opacity:1;fill-rule:nonzero;stroke:none"
             d="m 0,0 h -12 c -0.828,0 -1.5,0.672 -1.5,1.5 0,0.828 0.672,1.5 1.5,1.5 H 0 C 0.828,3 1.5,2.328 1.5,1.5 1.5,0.672 0.828,0 0,0" /></g><g
           transform="translate(44.0001,8)"
           id="g40"><path
             id="path42"
             style="fill:#333333;fill-opacity:1;fill-rule:nonzero;stroke:none"
             d="m 0,0 h -12 c -0.828,0 -1.5,0.672 -1.5,1.5 0,0.828 0.672,1.5 1.5,1.5 H 0 C 0.828,3 1.5,2.328 1.5,1.5 1.5,0.672 0.828,0 0,0" /></g><g
           transform="translate(44.0001,17)"
           id="g44"><path
             id="path46"
             style="fill:#333333;fill-opacity:1;fill-rule:nonzero;stroke:none"
             d="M 0,0 H -8 C -8.828,0 -9.5,0.672 -9.5,1.5 -9.5,2.328 -8.828,3 -8,3 H 0 C 0.828,3 1.5,2.328 1.5,1.5 1.5,0.672 0.828,0 0,0" /></g><g
           transform="translate(41.0001,32)"
           id="g48"><path
             id="path50"
             style="fill:#333333;fill-opacity:1;fill-rule:nonzero;stroke:none"
             d="m 0,0 h -14 c -0.828,0 -1.5,0.672 -1.5,1.5 0,0.828 0.672,1.5 1.5,1.5 H 0 C 0.828,3 1.5,2.328 1.5,1.5 1.5,0.672 0.828,0 0,0" /></g><g
           transform="translate(33.5001,49.5)"
           id="g52"><path
             id="path54"
             style="fill:#333333;fill-opacity:1;fill-rule:nonzero;stroke:none"
             d="m 0,0 c -0.828,0 -1.5,0.672 -1.5,1.5 v 16.468 l -6.164,7.586 c -0.523,0.643 -0.425,1.588 0.218,2.11 0.643,0.523 1.589,0.425 2.11,-0.218 l 6.5,-8 C 1.382,19.179 1.5,18.845 1.5,18.5 V 1.5 C 1.5,0.672 0.828,0 0,0" /></g><g
           transform="translate(33.5001,66.5)"
           id="g56"><path
             id="path58"
             style="fill:#333333;fill-opacity:1;fill-rule:nonzero;stroke:none"
             d="M 0,0 C -0.368,0 -0.736,0.135 -1.026,0.405 -1.63,0.973 -1.661,1.922 -1.095,2.526 l 7.5,8 c 0.569,0.605 1.516,0.632 2.121,0.069 C 9.13,10.027 9.161,9.078 8.595,8.474 l -7.5,-8 C 0.799,0.159 0.399,0 0,0" /></g></g></g></g></svg>