<svg version="1.1" id="Слой_1" xmlns="http://www.w3.org/2000/svg" x="0" y="0" viewBox="0 0 512 335.4" xml:space="preserve"><style>.st0{fill:#f5f5f5}.st1{fill:#ff4b55}</style><path class="st0" d="M503.2 335.4H8.8c-4.9 0-8.8-4-8.8-8.8V8.8C0 4 4 0 8.8 0h494.3c4.9 0 8.8 4 8.8 8.8v317.8c.1 4.9-3.9 8.8-8.7 8.8z"/><path class="st1" d="M512 25.8H0v-17C0 4 4 0 8.8 0h494.3c4.9 0 8.9 4 8.9 8.8v17zM0 103.2h512V129H0zM0 51.6h512v25.8H0zM512 180.6H8.8c-4.9 0-8.8-4-8.8-8.8v-17h512v25.8zM0 258h512v25.8H0zM503.2 335.5H8.8c-4.8 0-8.8-4-8.8-8.8v-17h512v17c0 4.8-4 8.8-8.8 8.8zM0 206.4h512v25.8H0z"/><path d="M229.5 0H8.8C4 0 0 4 0 8.8v163c0 4.9 4 8.8 8.8 8.8h220.7c4.9 0 8.8-4 8.8-8.8V8.8c0-4.8-3.9-8.8-8.8-8.8z" fill="#41479b"/><g><path class="st0" d="M24.8 20.3l2 5.9H33c.8 0 1.1 1 .5 1.5l-5 3.7 1.9 5.9c.2.8-.6 1.4-1.3.9l-5-3.6-5 3.6c-.7.5-1.5-.2-1.3-.9l1.9-5.9-5-3.7c-.6-.5-.3-1.5.5-1.5h6.2l2-5.9c.1-.8 1.1-.8 1.4 0zM24.8 50.9l2 5.9H33c.8 0 1.1 1 .5 1.5l-5 3.7 1.9 5.9c.2.8-.6 1.4-1.3.9l-5-3.6-5 3.6c-.7.5-1.5-.2-1.3-.9l1.9-5.9-5-3.7c-.6-.5-.3-1.5.5-1.5h6.2l2-5.9c.1-.7 1.1-.7 1.4 0zM24.8 81.6l2 5.9H33c.8 0 1.1 1 .5 1.5l-5 3.7 1.9 5.9c.2.8-.6 1.4-1.3.9l-5-3.6-5 3.6c-.7.5-1.5-.2-1.3-.9l1.9-5.9-5-3.7c-.6-.5-.3-1.5.5-1.5h6.2l2-5.9c.1-.8 1.1-.8 1.4 0zM24.8 112.2l2 5.9H33c.8 0 1.1 1 .5 1.5l-5 3.7 1.9 5.9c.2.8-.6 1.4-1.3.9l-5-3.6-5 3.6c-.7.5-1.5-.2-1.3-.9l1.9-5.9-5-3.7c-.6-.5-.3-1.5.5-1.5h6.2l2-5.9c.1-.7 1.1-.7 1.4 0zM24.8 142.9l2 5.9H33c.8 0 1.1 1 .5 1.5l-5 3.7 1.9 5.9c.2.8-.6 1.4-1.3.9l-5-3.6-5 3.6c-.7.5-1.5-.2-1.3-.9l1.9-5.9-5-3.7c-.6-.5-.3-1.5.5-1.5h6.2l2-5.9c.1-.8 1.1-.8 1.4 0zM48.6 35.3l2 5.9h6.2c.8 0 1.1 1 .5 1.5l-5 3.7 1.9 5.9c.2.8-.6 1.4-1.3.9l-5-3.6-5 3.6c-.7.5-1.5-.2-1.3-.9l1.9-5.9-5-3.7c-.6-.5-.3-1.5.5-1.5h6.2l2-5.9c.1-.8 1.1-.8 1.4 0zM48.6 65.9l2 5.9h6.2c.8 0 1.1 1 .5 1.5l-5 3.7 1.9 5.9c.2.8-.6 1.4-1.3.9l-5-3.6-5 3.6c-.7.5-1.5-.2-1.3-.9l1.9-5.9-5-3.7c-.6-.5-.3-1.5.5-1.5h6.2l2-5.9c.1-.7 1.1-.7 1.4 0zM48.6 96.6l2 5.9h6.2c.8 0 1.1 1 .5 1.5l-5 3.7 1.9 5.9c.2.8-.6 1.4-1.3.9l-5-3.6-5 3.6c-.7.5-1.5-.2-1.3-.9l1.9-5.9-5-3.7c-.6-.5-.3-1.5.5-1.5h6.2l2-5.9c.1-.8 1.1-.8 1.4 0zM48.6 127.3l2 5.9h6.2c.8 0 1.1 1 .5 1.5l-5 3.7 1.9 5.9c.2.8-.6 1.4-1.3.9l-5-3.6-5 3.6c-.7.5-1.5-.2-1.3-.9l1.9-5.9-5-3.7c-.6-.5-.3-1.5.5-1.5h6.2l2-5.9c.1-.8 1.1-.8 1.4 0zM72.4 20.3l2 5.9h6.2c.8 0 1.1 1 .5 1.5l-5 3.7 1.9 5.9c.2.8-.6 1.4-1.3.9l-5-3.6-5 3.6c-.7.5-1.5-.2-1.3-.9l1.9-5.9-5-3.7c-.6-.5-.3-1.5.5-1.5H69l2-5.9c0-.8 1.1-.8 1.4 0zM72.4 50.9l2 5.9h6.2c.8 0 1.1 1 .5 1.5L76 62l1.9 5.9c.2.8-.6 1.4-1.3.9l-5-3.6-5 3.6c-.7.5-1.5-.2-1.3-.9l1.9-5.9-5-3.7c-.6-.5-.3-1.5.5-1.5h6.2l2-5.9c.1-.7 1.2-.7 1.5 0zM72.4 81.6l2 5.9h6.2c.8 0 1.1 1 .5 1.5l-5 3.7 1.9 5.9c.2.8-.6 1.4-1.3.9l-5-3.6-5 3.6c-.7.5-1.5-.2-1.3-.9l1.9-5.9-5-3.7c-.6-.5-.3-1.5.5-1.5H69l2-5.9c0-.8 1.1-.8 1.4 0zM72.4 112.2l2 5.9h6.2c.8 0 1.1 1 .5 1.5l-5 3.7 1.9 5.9c.2.8-.6 1.4-1.3.9l-5-3.6-5 3.6c-.7.5-1.5-.2-1.3-.9l1.9-5.9-5-3.7c-.6-.5-.3-1.5.5-1.5H69l2-5.9c0-.7 1.1-.7 1.4 0zM72.4 142.9l2 5.9h6.2c.8 0 1.1 1 .5 1.5l-5 3.7 1.9 5.9c.2.8-.6 1.4-1.3.9l-5-3.6-5 3.6c-.7.5-1.5-.2-1.3-.9l1.9-5.9-5-3.7c-.6-.5-.3-1.5.5-1.5H69l2-5.9c0-.8 1.1-.8 1.4 0zM96.2 35.3l2 5.9h6.2c.8 0 1.1 1 .5 1.5l-5 3.7 1.9 5.9c.2.8-.6 1.4-1.3.9l-5-3.6-5 3.6c-.7.5-1.5-.2-1.3-.9l1.9-5.9-5-3.7c-.6-.5-.3-1.5.5-1.5h6.2l2-5.9c0-.8 1.1-.8 1.4 0zM96.2 65.9l2 5.9h6.2c.8 0 1.1 1 .5 1.5l-5 3.7 1.9 5.9c.2.8-.6 1.4-1.3.9l-5-3.6-5 3.6c-.7.5-1.5-.2-1.3-.9l1.9-5.9-5-3.7c-.6-.5-.3-1.5.5-1.5h6.2l2-5.9c0-.7 1.1-.7 1.4 0zM96.2 96.6l2 5.9h6.2c.8 0 1.1 1 .5 1.5l-5 3.7 1.9 5.9c.2.8-.6 1.4-1.3.9l-5-3.6-5 3.6c-.7.5-1.5-.2-1.3-.9l1.9-5.9-5-3.7c-.6-.5-.3-1.5.5-1.5h6.2l2-5.9c0-.8 1.1-.8 1.4 0zM96.2 127.3l2 5.9h6.2c.8 0 1.1 1 .5 1.5l-5 3.7 1.9 5.9c.2.8-.6 1.4-1.3.9l-5-3.6-5 3.6c-.7.5-1.5-.2-1.3-.9l1.9-5.9-5-3.7c-.6-.5-.3-1.5.5-1.5h6.2l2-5.9c0-.8 1.1-.8 1.4 0zM120 20.3l2 5.9h6.2c.8 0 1.1 1 .5 1.5l-5 3.7 1.9 5.9c.2.8-.6 1.4-1.3.9l-5-3.6-5 3.6c-.7.5-1.5-.2-1.3-.9l1.9-5.9-5-3.7c-.6-.5-.3-1.5.5-1.5h6.2l2-5.9c0-.8 1.1-.8 1.4 0zM120 50.9l2 5.9h6.2c.8 0 1.1 1 .5 1.5l-5 3.7 1.9 5.9c.2.8-.6 1.4-1.3.9l-5-3.6-5 3.6c-.7.5-1.5-.2-1.3-.9l1.9-5.9-5-3.7c-.6-.5-.3-1.5.5-1.5h6.2l2-5.9c0-.7 1.1-.7 1.4 0zM120 81.6l2 5.9h6.2c.8 0 1.1 1 .5 1.5l-5 3.7 1.9 5.9c.2.8-.6 1.4-1.3.9l-5-3.6-5 3.6c-.7.5-1.5-.2-1.3-.9l1.9-5.9-5-3.7c-.6-.5-.3-1.5.5-1.5h6.2l2-5.9c0-.8 1.1-.8 1.4 0zM120 112.2l2 5.9h6.2c.8 0 1.1 1 .5 1.5l-5 3.7 1.9 5.9c.2.8-.6 1.4-1.3.9l-5-3.6-5 3.6c-.7.5-1.5-.2-1.3-.9l1.9-5.9-5-3.7c-.6-.5-.3-1.5.5-1.5h6.2l2-5.9c0-.7 1.1-.7 1.4 0zM120 142.9l2 5.9h6.2c.8 0 1.1 1 .5 1.5l-5 3.7 1.9 5.9c.2.8-.6 1.4-1.3.9l-5-3.6-5 3.6c-.7.5-1.5-.2-1.3-.9l1.9-5.9-5-3.7c-.6-.5-.3-1.5.5-1.5h6.2l2-5.9c0-.8 1.1-.8 1.4 0zM143.8 35.3l2 5.9h6.2c.8 0 1.1 1 .5 1.5l-5 3.7 1.9 5.9c.2.8-.6 1.4-1.3.9l-5-3.6-5 3.6c-.7.5-1.5-.2-1.3-.9l1.9-5.9-5-3.7c-.6-.5-.3-1.5.5-1.5h6.2l2-5.9c0-.8 1.1-.8 1.4 0zM143.8 65.9l2 5.9h6.2c.8 0 1.1 1 .5 1.5l-5 3.7 1.9 5.9c.2.8-.6 1.4-1.3.9l-5-3.6-5 3.6c-.7.5-1.5-.2-1.3-.9l1.9-5.9-5-3.7c-.6-.5-.3-1.5.5-1.5h6.2l2-5.9c0-.7 1.1-.7 1.4 0zM143.8 96.6l2 5.9h6.2c.8 0 1.1 1 .5 1.5l-5 3.7 1.9 5.9c.2.8-.6 1.4-1.3.9l-5-3.6-5 3.6c-.7.5-1.5-.2-1.3-.9l1.9-5.9-5-3.7c-.6-.5-.3-1.5.5-1.5h6.2l2-5.9c0-.8 1.1-.8 1.4 0zM143.8 127.3l2 5.9h6.2c.8 0 1.1 1 .5 1.5l-5 3.7 1.9 5.9c.2.8-.6 1.4-1.3.9l-5-3.6-5 3.6c-.7.5-1.5-.2-1.3-.9l1.9-5.9-5-3.7c-.6-.5-.3-1.5.5-1.5h6.2l2-5.9c0-.8 1.1-.8 1.4 0zM167.5 20.3l2 5.9h6.2c.8 0 1.1 1 .5 1.5l-5 3.7 1.9 5.9c.2.8-.6 1.4-1.3.9l-5-3.6-5 3.6c-.7.5-1.5-.2-1.3-.9l1.9-5.9-5-3.7c-.6-.5-.3-1.5.5-1.5h6.2l2-5.9c.1-.8 1.2-.8 1.4 0zM167.5 50.9l2 5.9h6.2c.8 0 1.1 1 .5 1.5l-5 3.7 1.9 5.9c.2.8-.6 1.4-1.3.9l-5-3.6-5 3.6c-.7.5-1.5-.2-1.3-.9l1.9-5.9-5-3.7c-.6-.5-.3-1.5.5-1.5h6.2l2-5.9c.1-.7 1.2-.7 1.4 0zM167.5 81.6l2 5.9h6.2c.8 0 1.1 1 .5 1.5l-5 3.7 1.9 5.9c.2.8-.6 1.4-1.3.9l-5-3.6-5 3.6c-.7.5-1.5-.2-1.3-.9l1.9-5.9-5-3.7c-.6-.5-.3-1.5.5-1.5h6.2l2-5.9c.1-.8 1.2-.8 1.4 0zM167.5 112.2l2 5.9h6.2c.8 0 1.1 1 .5 1.5l-5 3.7 1.9 5.9c.2.8-.6 1.4-1.3.9l-5-3.6-5 3.6c-.7.5-1.5-.2-1.3-.9l1.9-5.9-5-3.7c-.6-.5-.3-1.5.5-1.5h6.2l2-5.9c.1-.7 1.2-.7 1.4 0zM167.5 142.9l2 5.9h6.2c.8 0 1.1 1 .5 1.5l-5 3.7 1.9 5.9c.2.8-.6 1.4-1.3.9l-5-3.6-5 3.6c-.7.5-1.5-.2-1.3-.9l1.9-5.9-5-3.7c-.6-.5-.3-1.5.5-1.5h6.2l2-5.9c.1-.8 1.2-.8 1.4 0zM191.3 35.3l2 5.9h6.2c.8 0 1.1 1 .5 1.5l-5 3.7 1.9 5.9c.2.8-.6 1.4-1.3.9l-5-3.6-5 3.6c-.7.5-1.5-.2-1.3-.9l1.9-5.9-5-3.7c-.6-.5-.3-1.5.5-1.5h6.2l2-5.9c.1-.8 1.2-.8 1.4 0zM191.3 65.9l2 5.9h6.2c.8 0 1.1 1 .5 1.5l-5 3.7 1.9 5.9c.2.8-.6 1.4-1.3.9l-5-3.6-5 3.6c-.7.5-1.5-.2-1.3-.9l1.9-5.9-5-3.7c-.6-.5-.3-1.5.5-1.5h6.2l2-5.9c.1-.7 1.2-.7 1.4 0zM191.3 96.6l2 5.9h6.2c.8 0 1.1 1 .5 1.5l-5 3.7 1.9 5.9c.2.8-.6 1.4-1.3.9l-5-3.6-5 3.6c-.7.5-1.5-.2-1.3-.9l1.9-5.9-5-3.7c-.6-.5-.3-1.5.5-1.5h6.2l2-5.9c.1-.8 1.2-.8 1.4 0zM191.3 127.3l2 5.9h6.2c.8 0 1.1 1 .5 1.5l-5 3.7 1.9 5.9c.2.8-.6 1.4-1.3.9l-5-3.6-5 3.6c-.7.5-1.5-.2-1.3-.9l1.9-5.9-5-3.7c-.6-.5-.3-1.5.5-1.5h6.2l2-5.9c.1-.8 1.2-.8 1.4 0zM215.1 20.3l2 5.9h6.2c.8 0 1.1 1 .5 1.5l-5 3.7 1.9 5.9c.2.8-.6 1.4-1.3.9l-5-3.6-5 3.6c-.7.5-1.5-.2-1.3-.9l1.9-5.9-5-3.7c-.6-.5-.3-1.5.5-1.5h6.2l2-5.9c.1-.8 1.2-.8 1.4 0zM215.1 50.9l2 5.9h6.2c.8 0 1.1 1 .5 1.5l-5 3.7 1.9 5.9c.2.8-.6 1.4-1.3.9l-5-3.6-5 3.6c-.7.5-1.5-.2-1.3-.9L210 62l-5-3.7c-.6-.5-.3-1.5.5-1.5h6.2l2-5.9c.1-.7 1.2-.7 1.4 0zM215.1 81.6l2 5.9h6.2c.8 0 1.1 1 .5 1.5l-5 3.7 1.9 5.9c.2.8-.6 1.4-1.3.9l-5-3.6-5 3.6c-.7.5-1.5-.2-1.3-.9l1.9-5.9-5-3.7c-.6-.5-.3-1.5.5-1.5h6.2l2-5.9c.1-.8 1.2-.8 1.4 0zM215.1 112.2l2 5.9h6.2c.8 0 1.1 1 .5 1.5l-5 3.7 1.9 5.9c.2.8-.6 1.4-1.3.9l-5-3.6-5 3.6c-.7.5-1.5-.2-1.3-.9l1.9-5.9-5-3.7c-.6-.5-.3-1.5.5-1.5h6.2l2-5.9c.1-.7 1.2-.7 1.4 0zM215.1 142.9l2 5.9h6.2c.8 0 1.1 1 .5 1.5l-5 3.7 1.9 5.9c.2.8-.6 1.4-1.3.9l-5-3.6-5 3.6c-.7.5-1.5-.2-1.3-.9l1.9-5.9-5-3.7c-.6-.5-.3-1.5.5-1.5h6.2l2-5.9c.1-.8 1.2-.8 1.4 0z"/></g><script/></svg>