<svg width="20" height="20" fill="none" xmlns="http://www.w3.org/2000/svg"><path opacity=".4" d="M18.333 10A8.333 8.333 0 0 1 10 18.332 8.334 8.334 0 1 1 18.333 10z" fill="url(#paint0_linear_1106_47350)"/><path fill-rule="evenodd" clip-rule="evenodd" d="M10.725 10.526a.73.73 0 0 1-.73.729.73.73 0 0 1-.728-.73V6.843a.73.73 0 0 1 .729-.729.73.73 0 0 1 .729.73v3.683zM9.27 13.17a.732.732 0 0 1 1.463 0 .732.732 0 0 1-1.463 0z" fill="url(#paint1_linear_1106_47350)"/><defs><linearGradient id="paint0_linear_1106_47350" x1="1.667" y1="1.666" x2="18.333" y2="18.333" gradientUnits="userSpaceOnUse"><stop stop-color="#60C2FC"/><stop offset="1" stop-color="#21ACFF"/></linearGradient><linearGradient id="paint1_linear_1106_47350" x1="9.267" y1="6.113" x2="12.099" y2="6.647" gradientUnits="userSpaceOnUse"><stop stop-color="#60C2FC"/><stop offset="1" stop-color="#21ACFF"/></linearGradient></defs></svg>