<svg width="20" height="20" fill="none" xmlns="http://www.w3.org/2000/svg"><path d="M10.813 2.594l1.856 3.729c.136.27.397.458.698.5l4.168.606a.934.934 0 0 1 .613.359c.148.193.211.438.175.68a.927.927 0 0 1-.267.526l-3.02 2.928a.88.88 0 0 0-.268.803l.744 4.115a.93.93 0 0 1-.744 1.06.973.973 0 0 1-.595-.095l-3.717-1.937a.974.974 0 0 0-.878 0l-3.717 1.937a.952.952 0 0 1-1.277-.373.943.943 0 0 1-.097-.583l.744-4.116a.884.884 0 0 0-.268-.804l-3.02-2.926a.904.904 0 0 1-.024-1.277l.024-.024a.898.898 0 0 1 .535-.263l4.168-.607a.928.928 0 0 0 .698-.5l1.79-3.738c.158-.32.488-.52.847-.51h.111a.93.93 0 0 1 .721.51z" fill="#FFED00"/></svg>