<svg width="18" height="18" fill="none" xmlns="http://www.w3.org/2000/svg"><path fill-rule="evenodd" clip-rule="evenodd" d="M6.931 1.746a2.34 2.34 0 0 1 4.138 0l6.623 12.115c.89 1.629-.253 3.639-2.068 3.639H2.377c-1.816 0-2.959-2.01-2.069-3.64L6.931 1.747zm3.256 12.091c0 .324-.125.635-.348.864a1.17 1.17 0 0 1-.839.358 1.17 1.17 0 0 1-.84-.358 1.24 1.24 0 0 1-.347-.864c0-.323.125-.634.348-.863A1.17 1.17 0 0 1 9 12.616c.315 0 .617.129.84.358.222.229.347.54.347.863zM9 4.067a1.17 1.17 0 0 0-.84.358 1.24 1.24 0 0 0-.347.864v3.663c0 .324.125.635.348.864.222.229.524.358.839.358.315 0 .617-.129.84-.358a1.24 1.24 0 0 0 .347-.864V5.29a1.24 1.24 0 0 0-.348-.864A1.17 1.17 0 0 0 9 4.067z" fill="#fff"/></svg>