<svg width="20" height="20" fill="none" xmlns="http://www.w3.org/2000/svg"><path d="M3.936 17.64c-.011 0-.021 0-.033-.002a2.36 2.36 0 0 1-2.063-3.242l6.1-10.688a2.36 2.36 0 0 1 4.122.007l6.061 10.608c.135.317.193.575.207.839a2.344 2.344 0 0 1-.604 1.701 2.34 2.34 0 0 1-1.63.775l-12.1.001h-.06z" fill="#EF2B58"/><path fill-rule="evenodd" clip-rule="evenodd" d="M9.27 8.35a.73.73 0 0 1 .73-.729.73.73 0 0 1 .729.73v2.356a.73.73 0 0 1-1.458 0V8.35zm0 5.208c0-.404.328-.733.73-.733.401 0 .729.325.729.724 0 .41-.328.738-.73.738a.73.73 0 0 1-.728-.73z" fill="#fff"/></svg>