<svg width="56" height="40" fill="none" xmlns="http://www.w3.org/2000/svg"><path fill-rule="evenodd" clip-rule="evenodd" d="M13.405 14.816L4 12.175l7.059-6.582 2.346 9.221z" fill="#F39200"/><path fill-rule="evenodd" clip-rule="evenodd" d="M15.746 24.03L6.32 21.4l7.086-6.587 2.34 9.217z" fill="#FDD400"/><path fill-rule="evenodd" clip-rule="evenodd" d="M22.822 17.42l-9.416-2.61 7.049-6.607 2.367 9.217z" fill="#E94591"/><path fill-rule="evenodd" clip-rule="evenodd" d="M13.406 14.813l9.405 2.609-7.065 6.607-2.34-9.216z" fill="#C52D88"/><path fill-rule="evenodd" clip-rule="evenodd" d="M4.005 12.164l9.4 2.645-7.087 6.588-2.314-9.233z" fill="#3AAA35"/><path fill-rule="evenodd" clip-rule="evenodd" d="M13.405 14.816l-2.346-9.222 9.394 2.613-7.048 6.608z" fill="#FFED00"/><path fill-rule="evenodd" clip-rule="evenodd" d="M13.405 15.222L4 12.582 11.059 6l2.346 9.222z" fill="#F39200"/><path fill-rule="evenodd" clip-rule="evenodd" d="M15.746 24.436l-9.426-2.63 7.086-6.587 2.34 9.217z" fill="#787FBD"/><path fill-rule="evenodd" clip-rule="evenodd" d="M22.822 17.826l-9.416-2.61 7.049-6.607 2.367 9.217z" fill="#E94792"/><path fill-rule="evenodd" clip-rule="evenodd" d="M13.406 15.219l9.405 2.609-7.065 6.607-2.34-9.216z" fill="#64B6E7"/><path fill-rule="evenodd" clip-rule="evenodd" d="M4.005 12.57l9.4 2.645-7.087 6.588-2.314-9.233z" fill="#93C461"/><path fill-rule="evenodd" clip-rule="evenodd" d="M13.405 15.222L11.059 6l9.394 2.614-7.048 6.608z" fill="#FFED00"/><path d="M16.2 34.736H6.032v-8.17h1.3v6.976h3.135v-6.976h1.3v6.976h3.137v-6.976h1.298v8.17zm8.053 0l-1.731-2.604c-.246-.374-.455-.622-.62-.747-.166-.124-.417-.187-.764-.187h-1.07v3.538H18.77v-8.17h1.299v3.419h.972c.337 0 .588-.063.76-.188.17-.124.378-.373.635-.746l1.636-2.485h1.48l-1.914 2.884c-.433.597-.785.97-1.058 1.11.182.063.359.176.524.342.166.166.369.441.62.825l1.998 3.009h-1.47.001zm3.645-7.028c.834-.815 1.843-1.22 3.03-1.22 1.186 0 2.196.405 3.035 1.22.839.814 1.256 1.794 1.256 2.945 0 1.152-.417 2.132-1.256 2.946-.84.815-1.849 1.22-3.035 1.22-1.187 0-2.196-.405-3.03-1.22-.834-.814-1.25-1.794-1.25-2.946 0-1.151.416-2.136 1.25-2.945zm5.156.814c-.576-.566-1.287-.846-2.126-.846-.84 0-1.55.28-2.122.846-.572.565-.86 1.275-.86 2.131 0 .867.288 1.577.86 2.137.573.56 1.283.84 2.122.84.844 0 1.55-.28 2.126-.84.578-.56.866-1.27.866-2.136 0-.856-.288-1.567-.866-2.132zm6.734.368l-2.405 5.846h-1.432l3.473-8.17h.76l3.436 8.17h-1.433l-2.4-5.847v.001zm7.106 4.015l-.769 1.83h-1.432l3.473-8.169h.76l3.434 8.17h-1.432l-.76-1.83h-3.273v-.001zm1.646-4.041l-1.191 2.848h2.377l-1.186-2.848zM30.084 11.25c-2.613 0-4.408 1.68-4.408 4.066 0 2.236 1.592 3.87 3.948 4.046l-2.575 3.636h3.121l3.628-5.348a4.135 4.135 0 0 0 .695-2.334c0-2.391-1.78-4.066-4.409-4.066zm0 5.658c-.897 0-1.694-.59-1.694-1.597 0-1.006.796-1.597 1.694-1.597.914 0 1.694.575 1.694 1.597 0 1.021-.78 1.597-1.694 1.597zm5.558-2.894h4.777l-1.053 2.532h-1.072l-1.053 2.535h1.079l-1.625 3.917h2.88L41.2 19.08h1.187l1.052-2.536h-1.186l1.186-2.863v-2.204h-7.797v2.536zm16.914-2.536h-7.797v2.536h4.783l-1.053 2.532h-1.08l-1.052 2.535h1.08l-1.625 3.917h2.88l1.625-3.917h1.19l1.049-2.536h-1.187l1.187-2.863v-2.204z" fill="#0067B1"/></svg>