<svg width="170" height="44" fill="none" xmlns="http://www.w3.org/2000/svg"><path fill-rule="evenodd" clip-rule="evenodd" d="M19.479 21.998L0 16.433 14.621 2.54l4.858 19.459z" fill="#F39200"/><path fill-rule="evenodd" clip-rule="evenodd" d="M24.326 41.447L4.8 35.894 19.48 22l4.845 19.447z" fill="#787FBD"/><path fill-rule="evenodd" clip-rule="evenodd" d="M38.995 27.501L19.48 21.995l14.607-13.94L38.994 27.5z" fill="#E94792"/><path fill-rule="evenodd" clip-rule="evenodd" d="M19.48 22l19.502 5.518-14.656 13.93L19.48 22z" fill="#64B6E7"/><path fill-rule="evenodd" clip-rule="evenodd" d="M0 16.422l19.479 5.576-14.68 13.894-4.799-19.47z" fill="#93C461"/><path fill-rule="evenodd" clip-rule="evenodd" d="M19.478 21.998L14.62 2.539l19.465 5.518-14.608 13.94z" fill="#FFED00"/><path d="M61.756 20.788H45.469V7.471h2.083v11.377h5.025V7.471h2.083v11.376h5.024V7.471h2.084v13.317h-.012zm12.894 0l-2.773-4.247c-.393-.612-.726-1.012-.989-1.223-.261-.2-.666-.306-1.226-.306h-1.714v5.765h-2.084V7.459h2.084v5.576h1.56c.535 0 .94-.106 1.214-.306s.607-.612 1.024-1.223l2.62-4.047h2.368l-3.06 4.694c-.69.977-1.262 1.576-1.69 1.812.297.106.572.294.833.564.263.271.595.718.989 1.341l3.19 4.907H74.65v.011zm5.833-11.47c1.334-1.33 2.953-1.988 4.846-1.988 1.893 0 3.524.658 4.857 1.988 1.346 1.328 2.012 2.93 2.012 4.799 0 1.883-.666 3.483-2.012 4.8-1.345 1.33-2.964 1.989-4.857 1.989-1.893 0-3.512-.659-4.846-1.988-1.333-1.33-2-2.93-2-4.8 0-1.87.667-3.47 2-4.8zm8.263 1.328c-.928-.917-2.06-1.376-3.405-1.376-1.346 0-2.477.46-3.394 1.377-.916.918-1.38 2.082-1.38 3.47 0 1.412.464 2.565 1.38 3.483.917.918 2.048 1.365 3.394 1.365 1.345 0 2.488-.459 3.405-1.365.928-.918 1.38-2.07 1.38-3.482 0-1.389-.464-2.542-1.38-3.47v-.002zm10.775.6l-3.846 9.53H93.39L98.95 7.46h1.215l5.5 13.318h-2.286l-3.857-9.53zm11.381 6.554l-1.239 2.988h-2.286l5.56-13.317h1.215l5.5 13.317h-2.286l-1.214-2.988h-5.25zm2.631-6.588l-1.905 4.647h3.81l-1.905-4.647zm55.468 16.282H45.469v1.294h123.532v-1.294zM48.195 35.553h1.428l2.394 6.023h.821v2.412H51.47v-1.094h-5.108v1.094h-1.369v-2.412h.822l2.38-6.023h.001zm.726 1.953l-1.631 4.082h3.25l-1.619-4.082zm10.751-1.953v7.33h-1.418v-4.59l-2.773 4.59h-1.227v-7.33h1.417v4.741l2.81-4.741H59.672zm9.036 1.294l-.989.93c-.666-.707-1.428-1.06-2.273-1.06-.714 0-1.31.236-1.798.719-.488.482-.726 1.07-.726 1.776 0 .493.107.929.321 1.306.215.376.524.682.917.894.401.217.852.33 1.31.33.404 0 .786-.071 1.118-.224.334-.153.715-.424 1.12-.824l.952.988c-.547.53-1.071.894-1.56 1.106-.487.212-1.047.306-1.666.306-1.155 0-2.095-.365-2.834-1.082-.738-.718-1.107-1.647-1.107-2.776 0-.73.167-1.377.5-1.954.333-.564.81-1.023 1.44-1.376a4.036 4.036 0 0 1 2.013-.518c.613 0 1.218.133 1.774.389.583.235 1.071.6 1.488 1.07zm1.013-1.294h4.107v1.377H72.47v5.964h-1.428V36.93h-1.321v-1.376zm7.858 0h1.429l2.857 7.33h-1.464l-.584-1.506h-3.024l-.607 1.506h-1.464l2.857-7.33zm.726 1.953l-1 2.517h1.988l-.988-2.517zm5.166-1.953h1.43v2.765h2.476v-2.765h1.428v7.33h-1.428V39.67H84.9v3.213h-1.429v-7.33zm7.55 7.341v-7.33h1.428v6.083h2.488v-6.082h1.429v6.082h1.512V44h-1.322v-1.093H91.02v-.012zm8.165-7.341h1.405v7.33h-1.405v-7.33zm8.919 0v7.33h-1.417v-4.59l-2.774 4.59h-1.226v-7.33h1.416v4.741l2.81-4.741h1.191zm-4.727-1.965h1.12a.781.781 0 0 0 .368.306c.155.071.346.106.572.106.226 0 .44-.035.619-.118a.832.832 0 0 0 .322-.294h1.119a1.48 1.48 0 0 1-.608 1.012c-.333.247-.822.388-1.44.388-.417 0-.762-.058-1.048-.176a1.636 1.636 0 0 1-.679-.494c-.19-.2-.298-.447-.345-.73zm6.929 1.965h1.428v2.765h2.476v-2.765h1.429v7.33h-1.429V39.67h-2.476v3.213h-1.428v-7.33zm9.823 0h1.428l2.858 7.33h-1.465l-.583-1.506h-3.024l-.607 1.506h-1.465l2.858-7.33zm.726 1.953l-1 2.517h1.988l-.988-2.517zm12.082-2.13c1.048 0 1.953.377 2.714 1.13.751.753 1.132 1.67 1.132 2.753 0 1.07-.37 1.976-1.119 2.717-.75.741-1.655 1.119-2.715 1.119-1.119 0-2.036-.378-2.774-1.142-.738-.764-1.107-1.67-1.107-2.718 0-.706.167-1.34.512-1.93a3.744 3.744 0 0 1 1.417-1.4 3.621 3.621 0 0 1 1.94-.529zm-.023 1.366c-.691 0-1.263.235-1.739.705-.464.47-.702 1.07-.702 1.8 0 .812.297 1.447.881 1.93a2.46 2.46 0 0 0 1.571.553c.667 0 1.239-.236 1.715-.718.476-.483.702-1.07.702-1.765 0-.694-.238-1.294-.714-1.777-.453-.493-1.024-.728-1.714-.728zm12.538.105l-.988.93c-.668-.707-1.43-1.06-2.275-1.06-.714 0-1.309.236-1.798.719-.487.482-.725 1.07-.725 1.776 0 .493.107.929.321 1.306.214.376.524.682.917.894.401.217.851.33 1.309.33.405 0 .786-.071 1.119-.224.334-.153.715-.424 1.12-.824l.952.988c-.548.53-1.072.894-1.56 1.106a4.37 4.37 0 0 1-1.666.306c-1.155 0-2.096-.365-2.834-1.082-.738-.718-1.108-1.647-1.108-2.776 0-.73.167-1.377.501-1.954.333-.564.81-1.023 1.441-1.376a4.125 4.125 0 0 1 2.011-.518c.607 0 1.203.13 1.774.389.584.235 1.072.6 1.489 1.07zm1.749 6.047v-7.33h1.166c.679 0 1.179.048 1.488.13.441.117.798.33 1.06.647.262.318.393.683.393 1.118 0 .282-.06.53-.179.764-.14.255-.34.473-.583.636.453.212.785.47.988.788.202.318.31.683.31 1.118.003.399-.108.79-.322 1.13a2.068 2.068 0 0 1-.833.764c-.346.165-.81.247-1.405.247h-2.083v-.012zm1.416-6v1.541h.31c.345 0 .595-.07.773-.212.167-.14.251-.34.251-.588a.69.69 0 0 0-.238-.54c-.155-.13-.405-.201-.727-.201h-.369zm0 2.788v1.883h.357c.584 0 .977-.07 1.191-.224.202-.14.31-.364.31-.635a.904.904 0 0 0-.358-.753c-.238-.189-.642-.271-1.19-.271h-.31zm5.003-4.13h1.404v7.33h-1.404v-7.33zm2.772 0h4.108v1.377h-1.358v5.965h-1.428V36.93h-1.322v-1.376zm7.846 0h1.429l2.857 7.33h-1.465l-.583-1.505h-3.024l-.607 1.506h-1.464l2.857-7.33zm.726 1.954l-1 2.517h1.989l-.989-2.517zM130.392 0c-4.488 0-7.572 2.94-7.572 7.106 0 3.917 2.739 6.765 6.787 7.082l-4.429 6.365h5.358l6.238-9.353c.762-1.118 1.191-2.53 1.191-4.082 0-4.177-3.061-7.118-7.573-7.118zm0 9.906c-1.547 0-2.916-1.036-2.916-2.788 0-1.753 1.369-2.788 2.916-2.788 1.572 0 2.917 1.011 2.917 2.788 0 1.776-1.345 2.788-2.917 2.788zm9.549-5.07h8.215l-1.81 4.434h-1.857l-1.797 4.436h1.845l-2.798 6.847h4.953l2.798-6.847h2.036l1.809-4.435h-2.048l2.048-5.012V.412h-13.394v4.424zm29.06-4.424h-13.394v4.424h8.203l-1.798 4.434h-1.857l-1.81 4.436h1.858l-2.798 6.847h4.952l2.798-6.847h2.036l1.81-4.435h-2.048l2.048-5.012V.412z" fill="#fff"/></svg>