<svg width="142" height="142" fill="none" xmlns="http://www.w3.org/2000/svg"><path fill-rule="evenodd" clip-rule="evenodd" d="M73.285 1.425a6.087 6.087 0 0 0-4.478 0l-22.854 9.04L23.4 20.234a6.087 6.087 0 0 0-3.167 3.167l-9.767 22.553-9.041 22.854a6.087 6.087 0 0 0 0 4.478l9.04 22.855 9.768 22.553a6.085 6.085 0 0 0 3.167 3.166l22.553 9.768 22.854 9.041a6.088 6.088 0 0 0 4.478 0l22.855-9.041 22.553-9.768a6.083 6.083 0 0 0 3.166-3.166l9.768-22.553 9.041-22.855a6.088 6.088 0 0 0 0-4.478l-9.041-22.854-9.768-22.553a6.085 6.085 0 0 0-3.166-3.167L96.14 10.466 73.284 1.425zm-.335 5.397a5.167 5.167 0 0 0-3.802 0l-21.207 8.39-20.927 9.063a5.167 5.167 0 0 0-2.688 2.688L15.262 47.89 6.873 69.097a5.167 5.167 0 0 0 0 3.802l8.39 21.206 9.063 20.928a5.168 5.168 0 0 0 2.688 2.688l20.927 9.063 21.207 8.389a5.168 5.168 0 0 0 3.802 0l21.206-8.389 20.927-9.063a5.166 5.166 0 0 0 2.689-2.688l9.063-20.928 8.389-21.206a5.168 5.168 0 0 0 0-3.802l-8.389-21.207-9.063-20.927a5.166 5.166 0 0 0-2.689-2.688l-20.927-9.063-21.207-8.39z" fill="url(#paint0_linear_1102_45193)"/><path d="M120.76 70.745c0 27.594-22.37 49.964-49.964 49.964-27.594 0-49.964-22.37-49.964-49.964 0-27.594 22.37-49.964 49.964-49.964 27.594 0 49.964 22.37 49.964 49.964zm-94.482 0c0 24.587 19.931 44.518 44.518 44.518 24.586 0 44.518-19.931 44.518-44.518 0-24.586-19.932-44.518-44.518-44.518-24.587 0-44.518 19.932-44.518 44.518z" fill="#fff"/><path d="M70.796 23.504c0-1.504 1.22-2.73 2.722-2.649a49.965 49.965 0 0 1 37.065 80.112 49.962 49.962 0 0 1-28.127 18.362c-1.462.351-2.883-.636-3.154-2.115-.271-1.48.712-2.89 2.172-3.251a44.52 44.52 0 0 0 33.657-47.242 44.514 44.514 0 0 0-41.614-40.41c-1.5-.092-2.721-1.303-2.721-2.807z" fill="#FFED00"/><g filter="url(#filter0_d_1102_45193)"><circle cx="97.932" cy="13.682" r="5.072" fill="url(#paint1_linear_1102_45193)"/></g><path d="M96.457 15.375l2.699-1.243-1.243-2.7" stroke="#fff" stroke-width=".788" stroke-linecap="round" stroke-linejoin="round"/><g filter="url(#filter1_d_1102_45193)"><circle cx="80.178" cy="117.158" r="5.072" fill="#FFED00"/></g><g clip-path="url(#clip0_1102_45193)"><path d="M80.387 114.742l-1.628 2.649 2.649 1.627" stroke="#fff" stroke-width=".824" stroke-linecap="round" stroke-linejoin="round"/></g><defs><filter id="filter0_d_1102_45193" x="86.772" y="2.522" width="26.377" height="26.377" filterUnits="userSpaceOnUse" color-interpolation-filters="sRGB"><feFlood flood-opacity="0" result="BackgroundImageFix"/><feColorMatrix in="SourceAlpha" values="0 0 0 0 0 0 0 0 0 0 0 0 0 0 0 0 0 0 127 0" result="hardAlpha"/><feOffset dx="2.029" dy="2.029"/><feGaussianBlur stdDeviation="4.058"/><feComposite in2="hardAlpha" operator="out"/><feColorMatrix values="0 0 0 0 0 0 0 0 0 0 0 0 0 0 0 0 0 0 0.1 0"/><feBlend in2="BackgroundImageFix" result="effect1_dropShadow_1102_45193"/><feBlend in="SourceGraphic" in2="effect1_dropShadow_1102_45193" result="shape"/></filter><filter id="filter1_d_1102_45193" x="59.105" y="97.086" width="42.145" height="42.145" filterUnits="userSpaceOnUse" color-interpolation-filters="sRGB"><feFlood flood-opacity="0" result="BackgroundImageFix"/><feColorMatrix in="SourceAlpha" values="0 0 0 0 0 0 0 0 0 0 0 0 0 0 0 0 0 0 127 0" result="hardAlpha"/><feOffset dy="1"/><feGaussianBlur stdDeviation="8"/><feComposite in2="hardAlpha" operator="out"/><feColorMatrix values="0 0 0 0 0 0 0 0 0 0 0 0 0 0 0 0 0 0 0.12 0"/><feBlend in2="BackgroundImageFix" result="effect1_dropShadow_1102_45193"/><feBlend in="SourceGraphic" in2="effect1_dropShadow_1102_45193" result="shape"/></filter><linearGradient id="paint0_linear_1102_45193" x1=".998" y1=".998" x2="141.095" y2="141.095" gradientUnits="userSpaceOnUse"><stop stop-color="#60C2FC"/><stop offset="1" stop-color="#21ACFF"/></linearGradient><linearGradient id="paint1_linear_1102_45193" x1="92.859" y1="8.609" x2="103.004" y2="18.754" gradientUnits="userSpaceOnUse"><stop stop-color="#60C2FC"/><stop offset="1" stop-color="#21ACFF"/></linearGradient><clipPath id="clip0_1102_45193"><path fill="#fff" transform="rotate(76.572 -30.375 108.831)" d="M0 0h6.594v6.594H0z"/></clipPath></defs></svg>