<svg width="17" height="17" fill="none" xmlns="http://www.w3.org/2000/svg"><mask id="a" fill="#fff"><path d="M9.191 2.206l1.577 3.169c.117.23.338.389.594.424l3.543.516c.207.03.394.139.521.305.126.165.18.373.149.578a.788.788 0 0 1-.228.448l-2.566 2.488a.748.748 0 0 0-.228.682l.632 3.498a.79.79 0 0 1-.632.901.827.827 0 0 1-.506-.08l-3.16-1.647a.828.828 0 0 0-.746 0l-3.16 1.646a.81.81 0 0 1-1.085-.316.801.801 0 0 1-.082-.496l.632-3.499a.752.752 0 0 0-.227-.683L1.652 7.653a.768.768 0 0 1 0-1.106.763.763 0 0 1 .455-.223l3.542-.517a.789.789 0 0 0 .594-.425l1.52-3.176a.784.784 0 0 1 .72-.435h.096a.79.79 0 0 1 .612.435"/></mask><path d="M9.191 2.206l1.577 3.169c.117.23.338.389.594.424l3.543.516c.207.03.394.139.521.305.126.165.18.373.149.578a.788.788 0 0 1-.228.448l-2.566 2.488a.748.748 0 0 0-.228.682l.632 3.498a.79.79 0 0 1-.632.901.827.827 0 0 1-.506-.08l-3.16-1.647a.828.828 0 0 0-.746 0l-3.16 1.646a.81.81 0 0 1-1.085-.316.801.801 0 0 1-.082-.496l.632-3.499a.752.752 0 0 0-.227-.683L1.652 7.653a.768.768 0 0 1 0-1.106.763.763 0 0 1 .455-.223l3.542-.517a.789.789 0 0 0 .594-.425l1.52-3.176a.784.784 0 0 1 .72-.435h.096a.79.79 0 0 1 .612.435" fill="#FF732B" fill-opacity=".2"/><path d="M10.768 5.375l-.76.379.002.005.758-.384zm.594.424l.123-.84-.006-.002-.117.842zm3.543.516l-.123.841.004.001.119-.842zm.521.305l-.676.515.676-.515zm.149.578l-.84-.125-.001.002.84.123zm-.228.448l.592.61.004-.004-.596-.606zm-2.566 2.488l.577.624.007-.007.007-.007-.591-.61zm-.228.682l-.836.151.836-.15zm.632 3.498l.84-.133-.002-.01-.001-.008-.837.151zm-.632.901l.134.84.013-.003.013-.002-.16-.835zm-.506-.08l-.393.753.008.004.385-.758zm-3.16-1.647l.393-.754-.01-.005-.383.759zm-.746 0l-.383-.759-.01.005.393.754zm-3.16 1.646l-.392-.754-.006.004.399.75zm-1.085-.316l-.752.395.006.011.006.011.74-.417zm-.082-.496l-.836-.15-.002.01-.002.01.84.13zm.632-3.499l-.836-.15.836.15zm-.227-.683l-.592.61.007.007.006.006.579-.623zM1.652 7.653l.591-.61v-.001l-.591.611zm-.02-1.085l-.602-.601-.006.005-.005.006.612.59zm.02-.02l.6.6.006-.005-.606-.596zm.455-.224l.1.844.011-.001.011-.002-.122-.841zm3.542-.517l-.12-.841h-.003l.123.841zm.594-.425L7 5.766l.004-.009.004-.008-.766-.367zm1.52-3.176l-.761-.379-.006.012.767.367zm.72-.435l-.02.85h.02v-.85zm.096 0L8.68.927 8.63.921h-.051v.85zm-.149.813l1.578 3.17 1.522-.758-1.578-3.169-1.522.757zm1.58 3.175c.241.476.702.808 1.236.882l.233-1.684c.022.004.04.017.048.034l-1.517.768zm1.23.882l3.542.515.245-1.682-3.542-.516-.245 1.683zm3.546.516a.056.056 0 0 1-.036-.022l1.352-1.03a1.644 1.644 0 0 0-1.08-.631l-.236 1.683zm-.036-.021a.083.083 0 0 1-.016-.063l1.682.25a1.617 1.617 0 0 0-.314-1.218l-1.352 1.03zm-.016-.061a.062.062 0 0 1 .018-.036l1.191 1.213c.255-.25.421-.577.473-.932l-1.682-.245zm.022-.04l-2.567 2.488 1.183 1.221 2.567-2.488-1.183-1.22zM12.203 9.51a1.598 1.598 0 0 0-.486 1.457l1.673-.302a.102.102 0 0 1-.032.093L12.203 9.51zm-.486 1.457l.632 3.498 1.673-.302-.632-3.498-1.673.302zm.629 3.481a.06.06 0 0 1 .048-.068l.319 1.67a1.64 1.64 0 0 0 1.312-1.87l-1.68.268zm.073-.072c.008-.002.013 0 .014 0l-.771 1.516c.312.159.671.22 1.025.163l-.268-1.68zm.021.005l-3.16-1.647-.785 1.508 3.16 1.646.785-1.508zm-3.17-1.652a1.678 1.678 0 0 0-1.512 0l.766 1.518a.022.022 0 0 1-.02 0l.766-1.518zm-1.521.005l-3.16 1.646.785 1.508 3.16-1.646-.785-1.508zm-3.166 1.65a.04.04 0 0 1 .053.016l-1.48.835a1.66 1.66 0 0 0 2.224.65l-.797-1.501zm.066.038c.005.01.006.021.005.03l-1.68-.26c-.054.348.004.706.17 1.02l1.505-.79zm.001.051l.632-3.499-1.673-.302-.631 3.5 1.672.301zm.632-3.498a1.602 1.602 0 0 0-.485-1.458L3.64 10.763a.098.098 0 0 1-.03-.09l1.672.302zM4.81 9.53L2.243 7.043 1.06 8.263l2.567 2.488L4.81 9.53zM2.242 7.042c.031.03.033.082.002.115L1.019 5.978c-.62.644-.6 1.667.042 2.287l1.181-1.223zm-.01.127l.02-.021-1.201-1.202-.021.02L2.232 7.17zm.026-.026a.086.086 0 0 1-.051.025l-.2-1.688c-.366.043-.704.21-.962.471l1.213 1.192zm-.029.022l3.543-.517-.246-1.682-3.542.517.245 1.682zm3.54-.516c.528-.075.99-.404 1.232-.883l-1.517-.768a.061.061 0 0 1 .046-.032l.238 1.683zm1.24-.9l1.52-3.176-1.533-.734-1.52 3.176 1.533.734zm1.515-3.165a.066.066 0 0 1-.06.037l.04-1.7a1.634 1.634 0 0 0-1.502.906l1.522.757zm-.04.037h.095v-1.7h-.095v1.7zm-.007-.006a.06.06 0 0 1-.047-.032l1.523-.755a1.64 1.64 0 0 0-1.273-.9l-.203 1.687z" fill="#FF732B" mask="url(#a)"/></svg>