<svg width="50" height="48" viewBox="0 0 50 48" fill="none" xmlns="http://www.w3.org/2000/svg">
<g clip-path="url(#clip0_1_75)">
<path d="M4.63799 9.99846C4.74954 9.99846 4.86191 9.97606 4.97023 9.92726C5.39058 9.73926 5.83598 9.61126 6.29513 9.54886C6.73731 9.48886 7.04691 9.08566 6.98547 8.64726C6.92485 8.20966 6.52552 7.89846 6.07445 7.96406C5.46171 8.04806 4.86514 8.21766 4.30414 8.46966C3.89753 8.65206 3.71646 9.12566 3.90076 9.52806C4.03576 9.82326 4.33 9.99846 4.63799 9.99846Z" fill="#FFC526"/>
<path d="M9.41554 9.50332H11.0323C11.4793 9.50332 11.8406 9.14572 11.8406 8.70332C11.8406 8.26092 11.4793 7.90332 11.0323 7.90332H9.41554C8.96852 7.90332 8.60718 8.26092 8.60718 8.70332C8.60718 9.14572 8.96932 9.50332 9.41554 9.50332Z" fill="#FFC526"/>
<path d="M35.2127 4.70324L30.8184 0.354436C30.4708 0.0104355 29.8646 0.0104355 29.5178 0.354436L27.8639 1.99204L26.21 0.355236C25.8624 0.0112356 25.2561 0.0112356 24.9093 0.355236L20.5151 4.70324H6.9669C3.40121 4.70324 0.5 7.57444 0.5 11.1032V14.3032C0.5 13.9696 0.706132 13.6848 0.99876 13.5648C1.30351 14.2864 1.74164 14.9376 2.27678 15.4968C2.29052 15.5488 2.29618 15.6032 2.31154 15.6544C2.43764 16.0784 2.19271 16.5232 1.76428 16.6472C1.68748 16.6696 1.6115 16.68 1.53632 16.68C1.1863 16.68 0.864571 16.4544 0.761101 16.1056C0.587303 15.5224 0.5 14.9168 0.5 14.3032V38.3032C0.5 37.8608 0.861338 37.5032 1.30836 37.5032C1.75539 37.5032 2.11672 37.8608 2.11672 38.3032C2.11672 38.7632 2.1822 39.2184 2.31154 39.6544C2.43764 40.0784 2.19271 40.5232 1.76428 40.6472C1.68748 40.6696 1.6115 40.68 1.53632 40.68C1.1863 40.68 0.864571 40.4544 0.761101 40.1056C0.587303 39.5224 0.5 38.9168 0.5 38.3032V42.1816C0.5 45.336 3.09403 47.9032 6.28141 47.9032H49.0017V43.9032C49.0017 44.3456 48.6404 44.7032 48.1934 44.7032H46.5767C46.1296 44.7032 45.7683 44.3456 45.7683 43.9032C45.7683 43.4608 46.1296 43.1032 46.5767 43.1032H48.1934C48.6404 43.1032 49.0017 43.4608 49.0017 43.9032V38.7032H38.493C34.2588 38.7032 30.8136 35.2936 30.8136 31.1032C30.8136 26.9128 34.2588 23.5032 38.493 23.5032H49.0017V19.9032C49.0017 20.3456 48.6404 20.7032 48.1934 20.7032H46.5767C46.1296 20.7032 45.7683 20.3456 45.7683 19.9032C45.7683 19.4608 46.1296 19.1032 46.5767 19.1032H48.1934C48.6404 19.1032 49.0017 19.4608 49.0017 19.9032V17.5032V15.9032V4.70324H35.2127ZM41.7265 43.1032H43.3432C43.7902 43.1032 44.1516 43.4608 44.1516 43.9032C44.1516 44.3456 43.7902 44.7032 43.3432 44.7032H41.7265C41.2795 44.7032 40.9181 44.3456 40.9181 43.9032C40.9181 43.4608 41.2795 43.1032 41.7265 43.1032ZM36.8763 43.1032H38.493C38.9401 43.1032 39.3014 43.4608 39.3014 43.9032C39.3014 44.3456 38.9401 44.7032 38.493 44.7032H36.8763C36.4293 44.7032 36.0679 44.3456 36.0679 43.9032C36.0679 43.4608 36.4293 43.1032 36.8763 43.1032ZM32.0261 43.1032H33.6429C34.0899 43.1032 34.4512 43.4608 34.4512 43.9032C34.4512 44.3456 34.0899 44.7032 33.6429 44.7032H32.0261C31.5791 44.7032 31.2178 44.3456 31.2178 43.9032C31.2178 43.4608 31.5791 43.1032 32.0261 43.1032ZM30.1685 1.97364L32.9266 4.70324L44.2437 15.9032H39.8858L30.778 6.88884C30.6139 6.73124 30.3973 6.64404 30.1685 6.64404L29.787 6.66324L20.4504 15.9032H16.0933L29.0077 3.12324L30.1685 1.97364ZM25.5592 1.97364L26.7208 3.12324L13.8073 15.9032H11.484L22.8011 4.70324L25.5592 1.97364ZM6.9669 6.30324H18.8983L16.6543 8.52404C16.5702 8.17124 16.2647 7.90323 15.8823 7.90323H14.2656C13.8186 7.90323 13.4572 8.26083 13.4572 8.70323C13.4572 9.14563 13.8186 9.50323 14.2656 9.50323H15.6641L9.19717 15.9032H6.9669C4.86273 15.9032 3.07221 14.568 2.40208 12.7104C2.52899 12.3536 2.68743 12.0096 2.89599 11.6944C3.14092 11.3248 3.03583 10.8288 2.66156 10.5872C2.50797 10.488 2.33337 10.4608 2.16361 10.472C2.47725 8.12324 4.50948 6.30324 6.9669 6.30324ZM5.35098 43.7312C5.21518 44.0248 4.92255 44.1984 4.61537 44.1984C4.50301 44.1984 4.38903 44.1752 4.2799 44.1256C3.71971 43.872 3.19912 43.5408 2.7327 43.1408C2.39561 42.8512 2.35923 42.3456 2.65105 42.012C2.94449 41.6784 3.45456 41.6424 3.79165 41.9312C4.14167 42.232 4.53211 42.4808 4.95246 42.6712C5.35826 42.8544 5.5361 43.3296 5.35098 43.7312ZM5.35098 19.7312C5.21518 20.0248 4.92255 20.1984 4.61537 20.1984C4.50301 20.1984 4.38903 20.1752 4.2799 20.1256C3.71971 19.872 3.19912 19.5408 2.7327 19.1408C2.39561 18.8512 2.35923 18.3456 2.65105 18.012C2.94449 17.6784 3.45456 17.6424 3.79165 17.9312C4.14167 18.232 4.53211 18.4808 4.95246 18.6712C5.35826 18.8544 5.5361 19.3296 5.35098 19.7312ZM9.39199 44.7032H7.77526C7.32824 44.7032 6.9669 44.3456 6.9669 43.9032C6.9669 43.4608 7.32824 43.1032 7.77526 43.1032H9.39199C9.83901 43.1032 10.2003 43.4608 10.2003 43.9032C10.2003 44.3456 9.83901 44.7032 9.39199 44.7032ZM9.39199 20.7032H7.77526C7.32824 20.7032 6.9669 20.3456 6.9669 19.9032C6.9669 19.4608 7.32824 19.1032 7.77526 19.1032H9.39199C9.83901 19.1032 10.2003 19.4608 10.2003 19.9032C10.2003 20.3456 9.83901 20.7032 9.39199 20.7032ZM14.2422 44.7032H12.6254C12.1784 44.7032 11.8171 44.3456 11.8171 43.9032C11.8171 43.4608 12.1784 43.1032 12.6254 43.1032H14.2422C14.6892 43.1032 15.0505 43.4608 15.0505 43.9032C15.0505 44.3456 14.6892 44.7032 14.2422 44.7032ZM14.2422 20.7032H12.6254C12.1784 20.7032 11.8171 20.3456 11.8171 19.9032C11.8171 19.4608 12.1784 19.1032 12.6254 19.1032H14.2422C14.6892 19.1032 15.0505 19.4608 15.0505 19.9032C15.0505 20.3456 14.6892 20.7032 14.2422 20.7032ZM19.0923 44.7032H17.4756C17.0286 44.7032 16.6672 44.3456 16.6672 43.9032C16.6672 43.4608 17.0286 43.1032 17.4756 43.1032H19.0923C19.5394 43.1032 19.9007 43.4608 19.9007 43.9032C19.9007 44.3456 19.5394 44.7032 19.0923 44.7032ZM19.0923 20.7032H17.4756C17.0286 20.7032 16.6672 20.3456 16.6672 19.9032C16.6672 19.4608 17.0286 19.1032 17.4756 19.1032H19.0923C19.5394 19.1032 19.9007 19.4608 19.9007 19.9032C19.9007 20.3456 19.5394 20.7032 19.0923 20.7032ZM23.9425 44.7032H22.3258C21.8788 44.7032 21.5174 44.3456 21.5174 43.9032C21.5174 43.4608 21.8788 43.1032 22.3258 43.1032H23.9425C24.3895 43.1032 24.7509 43.4608 24.7509 43.9032C24.7509 44.3456 24.3895 44.7032 23.9425 44.7032ZM23.9425 20.7032H22.3258C21.8788 20.7032 21.5174 20.3456 21.5174 19.9032C21.5174 19.4608 21.8788 19.1032 22.3258 19.1032H23.9425C24.3895 19.1032 24.7509 19.4608 24.7509 19.9032C24.7509 20.3456 24.3895 20.7032 23.9425 20.7032ZM28.7927 44.7032H27.176C26.7289 44.7032 26.3676 44.3456 26.3676 43.9032C26.3676 43.4608 26.7289 43.1032 27.176 43.1032H28.7927C29.2397 43.1032 29.601 43.4608 29.601 43.9032C29.601 44.3456 29.2397 44.7032 28.7927 44.7032ZM28.7927 20.7032H27.176C26.7289 20.7032 26.3676 20.3456 26.3676 19.9032C26.3676 19.4608 26.7289 19.1032 27.176 19.1032H28.7927C29.2397 19.1032 29.601 19.4608 29.601 19.9032C29.601 20.3456 29.2397 20.7032 28.7927 20.7032ZM33.6429 20.7032H32.0261C31.5791 20.7032 31.2178 20.3456 31.2178 19.9032C31.2178 19.4608 31.5791 19.1032 32.0261 19.1032H33.6429C34.0899 19.1032 34.4512 19.4608 34.4512 19.9032C34.4512 20.3456 34.0899 20.7032 33.6429 20.7032ZM38.493 20.7032H36.8763C36.4293 20.7032 36.0679 20.3456 36.0679 19.9032C36.0679 19.4608 36.4293 19.1032 36.8763 19.1032H38.493C38.9401 19.1032 39.3014 19.4608 39.3014 19.9032C39.3014 20.3456 38.9401 20.7032 38.493 20.7032ZM43.3432 20.7032H41.7265C41.2795 20.7032 40.9181 20.3456 40.9181 19.9032C40.9181 19.4608 41.2795 19.1032 41.7265 19.1032H43.3432C43.7902 19.1032 44.1516 19.4608 44.1516 19.9032C44.1516 20.3456 43.7902 20.7032 43.3432 20.7032ZM46.5298 15.9032L40.0629 9.50323H40.1098C40.5568 9.50323 40.9181 9.14563 40.9181 8.70323C40.9181 8.26083 40.5568 7.90323 40.1098 7.90323H38.493C38.4793 7.90323 38.468 7.91044 38.4542 7.91124L36.8294 6.30324H47.385V15.9032H46.5298Z" fill="#FFC526"/>
<path d="M44.96 7.90332H43.3433C42.8963 7.90332 42.5349 8.26092 42.5349 8.70332C42.5349 9.14572 42.8963 9.50332 43.3433 9.50332H44.96C45.407 9.50332 45.7684 9.14572 45.7684 8.70332C45.7684 8.26092 45.407 7.90332 44.96 7.90332Z" fill="#FFC526"/>
<path d="M32.8345 31.1032C32.8345 34.1904 35.3735 36.7032 38.493 36.7032H49.0017V25.5032H38.493C35.3735 25.5032 32.8345 28.016 32.8345 31.1032ZM42.5348 31.1032C42.5348 32.868 41.0846 34.3032 39.3014 34.3032C37.5181 34.3032 36.0679 32.868 36.0679 31.1032C36.0679 29.3384 37.5181 27.9032 39.3014 27.9032C41.0846 27.9032 42.5348 29.3384 42.5348 31.1032Z" fill="#FFC526"/>
</g>
<defs>
<clipPath id="clip0_1_75">
<rect width="48.5017" height="48" fill="white" transform="translate(0.5)"/>
</clipPath>
</defs>
</svg>
