<svg width="50" height="49" viewBox="0 0 50 49" fill="none" xmlns="http://www.w3.org/2000/svg">
<path d="M38.939 36.8335C40.4547 35.8335 41.6336 34.5002 42.644 32.8335H46.6858C47.6963 32.8335 48.3699 32.1668 48.3699 31.1668C48.3699 30.1668 47.6963 29.5002 46.6858 29.5002H41.6336C40.9599 29.5002 40.4547 29.8335 40.1179 30.5002C39.2758 32.1668 37.9286 33.5002 36.4129 34.5002L33.2131 31.5002L40.4547 20.0002C40.7915 19.5002 40.7915 18.8335 40.4547 18.3335C38.097 13.8335 34.0552 9.50016 28.6661 6.16683C27.4872 5.50016 26.3084 4.8335 25.2979 4.3335L10.4779 27.8335C11.4884 28.6668 12.6673 29.5002 13.8461 30.1668C14.3513 30.5002 14.6882 30.6668 15.1934 30.8335L11.1516 35.3335C10.1411 34.8335 9.13067 34.5002 7.95181 34.5002C4.24681 34.5002 1.21545 37.5002 1.21545 41.1668C1.21545 44.8335 4.24681 47.8335 7.95181 47.8335C11.6568 47.8335 14.6882 44.8335 14.6882 41.1668C14.6882 40.6668 14.5198 40.0002 14.5198 39.5002H30.8554C32.7079 39.5002 34.392 39.1668 36.0761 38.5002L45.6754 47.3335C46.0122 47.6668 46.349 47.8335 46.8542 47.8335C47.3595 47.8335 47.6963 47.6668 48.0331 47.3335C48.7067 46.6668 48.7067 45.6668 48.0331 45.0002L38.939 36.8335ZM7.95181 44.5002C6.09931 44.5002 4.58363 43.0002 4.58363 41.1668C4.58363 39.3335 6.09931 37.8335 7.95181 37.8335C8.12022 37.8335 8.45703 37.8335 8.62544 37.8335L6.60454 40.0002C5.9309 40.6668 6.09931 41.6668 6.77295 42.3335C7.10976 42.6668 7.61499 42.8335 7.95181 42.8335C8.45703 42.8335 8.79385 42.6668 9.13067 42.3335L11.1516 40.1668C11.32 40.5002 11.32 40.8335 11.32 41.1668C11.32 43.0002 9.8043 44.5002 7.95181 44.5002ZM30.687 36.1668H14.6882L18.0563 32.3335C22.0981 34.1668 26.14 35.1668 29.845 35.1668C30.3502 35.1668 31.0238 34.8335 31.1922 34.3335L32.8763 35.8335C32.3711 36.0002 31.529 36.1668 30.687 36.1668Z" fill="#FFC526"/>
<path d="M7.78345 25.5001L22.0982 3.00008C18.8984 1.83341 15.6987 1.16675 12.6673 1.16675C11.9937 1.16675 11.4884 1.50008 11.1516 2.00008L2.05754 16.3334C1.72073 16.8334 1.72073 17.5001 2.05754 18.0001C3.40482 20.6667 5.42572 23.1667 7.78345 25.5001Z" fill="#FFC526"/>
</svg>
