<svg width="62" height="48" viewBox="0 0 62 48" fill="none" xmlns="http://www.w3.org/2000/svg">
<g clip-path="url(#clip0_1_85)">
<path d="M60.6605 25.6942L51.3333 13.3893C50.893 12.8084 50.2021 12.4663 49.4678 12.4666L40.1406 12.4674C38.8529 12.4674 37.809 13.5006 37.809 14.775V37.077H28.901C28.1403 34.6884 26.2315 32.7993 23.8181 32.0465V27.0769H19.1544V32.0465C16.741 32.7993 14.832 34.6884 14.0716 37.077H5.94091C4.65317 37.077 3.60913 38.1102 3.60913 39.3846C3.60913 40.6591 4.65317 41.6923 5.94091 41.6923H14.0713C15.0642 44.8098 18.0127 47.0769 21.4863 47.0769C24.96 47.0769 27.9087 44.8098 28.9013 41.6923H38.1667C39.1596 44.8098 42.1081 47.0769 45.5817 47.0769C49.0554 47.0769 52.0041 44.8098 52.9967 41.6923H58.7953C60.0829 41.6923 61.127 40.6591 61.127 39.3846V27.0791C61.1272 26.5797 60.9635 26.0937 60.6605 25.6942ZM21.4863 42.4615C19.7721 42.4615 18.3773 41.0814 18.3773 39.3849C18.3773 37.6881 19.7722 36.3076 21.4863 36.3076C23.2005 36.3076 24.5954 37.6881 24.5954 39.3849C24.5954 41.0814 23.2005 42.4615 21.4863 42.4615ZM48.6908 39.385C48.6908 40.3041 48.2792 41.128 47.6313 41.6924C47.0833 42.1696 46.367 42.4616 45.5816 42.4616C44.7962 42.4616 44.0799 42.1696 43.5319 41.6924C42.8839 41.1282 42.4725 40.3041 42.4725 39.385V39.3846C42.4725 38.4654 42.8841 37.6412 43.532 37.077C44.0797 36.5998 44.7961 36.3078 45.5815 36.3078C46.3669 36.3078 47.0832 36.5998 47.631 37.077C48.2789 37.6412 48.6905 38.4654 48.6905 39.3846C48.6908 39.3846 48.6908 39.3848 48.6908 39.385Z" fill="#FFC526"/>
<path d="M32.4621 3.13723C32.0248 2.70445 31.4319 2.46117 30.8136 2.46117L14.3554 2.46129C14.0348 1.56563 13.1737 0.922852 12.159 0.922852C10.8713 0.922852 9.82723 1.95609 9.82723 3.23051V3.53391L3.99127 7.3841C3.64953 7.18969 3.25439 7.07672 2.83178 7.07672C1.54404 7.07684 0.5 8.11008 0.5 9.38449V10.9228V18.6151V20.1538C0.5 21.4282 1.54404 22.4614 2.83178 22.4614C3.25451 22.4614 3.64977 22.3485 3.99163 22.1539L9.82723 26.0043V26.3077C9.82723 27.5821 10.8713 28.6153 12.159 28.6153C13.1738 28.6153 14.0348 27.9725 14.3554 27.0769H19.1545V24.7692V22.4616V14.7756C19.1545 13.5012 20.1984 12.4679 21.4862 12.4679C22.7739 12.4679 23.818 13.5012 23.818 14.7756V22.4616V24.7692V27.0769H30.8136C32.1012 27.0769 33.1454 26.0436 33.1454 24.7692V4.76895C33.1454 4.15699 32.8998 3.57 32.4621 3.13723Z" fill="#FFC526"/>
</g>
<defs>
<clipPath id="clip0_1_85">
<rect width="60.6272" height="48" fill="white" transform="translate(0.5)"/>
</clipPath>
</defs>
</svg>
