<svg width="70" height="70" viewBox="0 0 70 70" fill="none" xmlns="http://www.w3.org/2000/svg">
<g clip-path="url(#clip0_1_480)">
<path d="M55.0564 42.3931C55.0564 39.1865 52.4483 36.5768 49.2415 36.5768C46.0372 36.5768 43.4277 39.1865 43.4277 42.3931C43.4277 45.5974 46.0372 48.2057 49.2415 48.2057C52.4483 48.2034 55.0564 45.5974 55.0564 42.3931Z" fill="#FFC526"/>
<path d="M42.7737 55.9753C42.6351 56.6027 42.8653 56.7203 43.2933 56.2401L45.1886 54.104C45.6154 53.6235 46.0802 53.7391 46.2294 54.3662L47.0008 57.6253C47.1509 58.2512 47.368 58.245 47.4895 57.6158L49.1418 49.0115C49.0987 49.0138 49.0584 49.0186 49.0142 49.0186C47.3249 49.0186 45.8099 48.2914 44.7466 47.141L42.7737 55.9753Z" fill="#FFC526"/>
<path d="M51.2799 60.2432L52.1216 57.6135C52.317 57.0009 52.7986 56.915 53.1969 57.4178L55.0494 59.7591C55.4474 60.2644 55.6776 60.1596 55.5621 59.5266L53.3638 47.5261C52.3506 48.4737 50.9963 49.0616 49.5087 49.0865L50.7937 60.1953C50.8651 60.8307 51.0845 60.8535 51.2799 60.2432Z" fill="#FFC526"/>
<path d="M65.7277 9.3136H4.27225C1.91674 9.3136 0 11.1813 0 13.4774V53.5686C0 55.8645 1.91674 57.7325 4.27225 57.7325H41.7174L41.4624 57.444C41.0321 56.9102 40.9092 56.2149 41.0938 55.3841L41.3871 54.0705H4.27225C3.94144 54.0705 3.66196 53.8394 3.66196 53.5686V13.4774C3.66196 13.2049 3.94144 12.9756 4.27225 12.9756H65.7277C66.0581 12.9756 66.338 13.2051 66.338 13.4774V53.5686C66.338 53.8417 66.0579 54.0705 65.7277 54.0705H56.5656L57.238 57.7325H65.7277C68.0833 57.7325 70.0002 55.8659 70.0002 53.5686V13.4774C70 11.1813 68.0833 9.3136 65.7277 9.3136Z" fill="#FFC526"/>
<path d="M62.0134 51.3241C63.3615 51.3241 64.4545 50.2296 64.4545 48.8827V17.7961C64.4545 16.4485 63.3615 15.355 62.0134 15.355H7.38914C6.04149 15.355 4.94775 16.4487 4.94775 17.7961V48.8827C4.94775 50.2299 6.04149 51.3241 7.38914 51.3241H41.9843L43.0334 46.6225C42.1752 45.3862 41.6696 43.8915 41.6696 42.2763C41.6696 38.06 45.1004 34.6303 49.3156 34.6303C53.5308 34.6303 56.9602 38.0598 56.9602 42.2763C56.9602 44.1026 56.3154 45.7797 55.2424 47.0958L56.0147 51.3227H62.0134V51.3241ZM11.1535 21.2675H57.1308C57.4681 21.2675 57.7409 21.541 57.7409 21.8778C57.7409 22.2146 57.4678 22.4881 57.1308 22.4881H11.1535C10.8168 22.4881 10.5433 22.2146 10.5433 21.8778C10.5433 21.541 10.8168 21.2675 11.1535 21.2675ZM11.1535 30.2676C10.8168 30.2676 10.5433 29.9941 10.5433 29.6573C10.5433 29.3205 10.8168 29.047 11.1535 29.047H57.1308C57.4681 29.047 57.7409 29.3205 57.7409 29.6573C57.7409 29.9941 57.4678 30.2676 57.1308 30.2676H11.1535Z" fill="#FFC526"/>
</g>
<defs>
<clipPath id="clip0_1_480">
<rect width="70" height="70" fill="white"/>
</clipPath>
</defs>
</svg>
