<svg width="70" height="70" viewBox="0 0 70 70" fill="none" xmlns="http://www.w3.org/2000/svg">
<g clip-path="url(#clip0_1_491)">
<path d="M43.8333 31.1721H25.249C24.6453 31.1721 24.1553 31.6621 24.1553 32.2658C24.1553 32.8695 24.6453 33.3595 25.249 33.3595H43.8333C44.4375 33.3595 44.927 32.8695 44.927 32.2658C44.927 31.6621 44.4375 31.1721 43.8333 31.1721Z" fill="#FFC526"/>
<path d="M31.8285 36.6411H25.249C24.6453 36.6411 24.1553 37.1311 24.1553 37.7348C24.1553 38.3385 24.6453 38.8285 25.249 38.8285H31.8285C32.4327 38.8285 32.9221 38.3385 32.9221 37.7348C32.9221 37.1311 32.4327 36.6411 31.8285 36.6411Z" fill="#FFC526"/>
<path d="M43.8327 36.6411H36.7503C36.1466 36.6411 35.6566 37.1311 35.6566 37.7348C35.6566 38.3385 36.1466 38.8285 36.7503 38.8285H43.8327C44.4369 38.8285 44.9264 38.3385 44.9264 37.7348C44.9264 37.1311 44.4375 36.6411 43.8327 36.6411Z" fill="#FFC526"/>
<path d="M63.4373 6.48653C63.4373 2.90418 60.5326 0 56.9502 0H13.0492C9.46632 0 6.56213 2.90418 6.56213 6.48653V63.5135C6.56213 67.0958 9.46632 70 13.0492 70H56.9508C60.5331 70 63.4379 67.0958 63.4379 63.5135V6.48653H63.4373ZM19.2037 58.516H12.1163C11.0595 58.516 10.1999 57.6569 10.1999 56.6019C10.1999 55.5468 11.0595 54.6878 12.1163 54.6878H19.2037C20.2604 54.6878 21.12 55.5468 21.12 56.6019C21.12 57.6569 20.2604 58.516 19.2037 58.516ZM19.2037 15.3128H12.1163C11.0595 15.3128 10.1999 14.4537 10.1999 13.3987C10.1999 12.3436 11.0595 11.4846 12.1163 11.4846H19.2037C20.2604 11.4846 21.12 12.3436 21.12 13.3987C21.12 14.4537 20.2604 15.3128 19.2037 15.3128ZM48.6717 42.1095H21.3278V27.891H48.6717V42.1095Z" fill="#FFC526"/>
</g>
<defs>
<clipPath id="clip0_1_491">
<rect width="70" height="70" fill="white"/>
</clipPath>
</defs>
</svg>
