<svg width="165" height="50" viewBox="0 0 165 50" fill="none" xmlns="http://www.w3.org/2000/svg">
<path d="M13.975 12.4C11.95 11.175 10.225 10.95 8.90005 10.95C6.25005 10.95 4.37505 11.8 3.10005 13.1C2.00005 14.2 1.47505 15.525 1.47505 17.075C1.47505 18.275 1.82505 19.275 2.67505 20.15C3.60005 21.1 4.62505 21.4 5.57505 21.575L7.05005 21.85C7.67505 21.975 8.00005 22.05 8.20005 22.25C8.37505 22.425 8.40005 22.675 8.40005 22.825C8.40005 23.075 8.35005 23.35 8.07505 23.575C7.95005 23.675 7.60005 23.875 6.77505 23.875C5.30005 23.875 4.02505 23.125 3.40005 22.65L2.75005 22.15L0.925049 26.85L1.47505 27.075C2.90005 27.65 4.60005 28.375 7.15005 28.375C10.275 28.375 12.075 27.225 13.025 26.25C14.15 25.075 14.525 23.75 14.525 22.325C14.525 21.325 14.3 20.05 13.25 19.025C12.7501 18.525 11.875 17.925 10.4 17.6L8.47505 17.175C7.55005 16.975 7.50005 16.65 7.50005 16.3C7.50005 16.05 7.57505 15.875 7.80005 15.7C8.12505 15.45 8.62505 15.4 8.95005 15.4C10.3 15.4 11.625 16.15 12.35 16.65L13.975 12.4Z" fill="white"/>
<path d="M24.9792 28V16.6L28.3792 16.75V11.325H15.6292V16.75L19.0292 16.6V28H24.9792Z" fill="white"/>
<path d="M35.0395 28H40.2395L46.6895 11.325H40.3645L38.0895 19.175C37.8895 19.875 37.7645 20.725 37.7395 21.4H37.5895C37.5395 20.8 37.4145 19.825 37.2145 19.175L34.8895 11.325H28.5645L35.0395 28Z" fill="white"/>
<path d="M47.8401 32.9999H55.9521C57.9201 32.9999 60.6561 32.8079 62.9601 31.2719C65.6481 29.4959 66.9441 26.4239 66.9441 23.4959C66.9441 20.5679 65.7441 18.0239 63.9201 16.4399C61.4721 14.2799 58.2081 13.8959 55.9041 13.8959H52.7361V5.59189H63.8721V0.983887H47.8401V32.9999ZM52.7361 18.5039H55.8081C60.9921 18.5039 62.1441 21.2399 62.1441 23.5439C62.1441 28.3919 57.0081 28.3919 55.7121 28.3919H52.7361V18.5039Z" fill="#3A3845"/>
<path d="M86.4017 26.1839C85.9697 26.9519 85.3457 27.7679 84.5297 28.3919C83.5697 29.1119 82.6097 29.3999 81.3137 29.3999C80.1617 29.3999 78.8177 29.2079 77.7137 28.1039C76.7057 27.0959 76.0817 25.4639 75.9857 24.0239H90.4817V23.4479C90.4817 21.3359 90.2417 17.5919 87.6497 14.9039C86.4497 13.6559 84.3857 12.2639 81.1697 12.2639C78.2897 12.2639 76.0817 13.3199 74.4017 14.9999C72.2897 17.1599 71.1857 20.1839 71.1857 23.3039C71.1857 26.3279 72.2417 29.1119 74.1617 31.0319C76.0817 32.9519 78.2897 33.6239 80.9777 33.6239C83.1377 33.6239 85.2977 33.1439 86.9297 32.0879C88.2257 31.2719 89.4737 29.9279 90.3377 28.3919L86.4017 26.1839ZM76.3217 20.1839C76.5617 19.1759 77.0897 18.2159 77.7617 17.5919C78.3857 16.9679 79.4417 16.2959 81.0737 16.2959C82.6097 16.2959 83.6177 16.8719 84.2417 17.4479C84.9617 18.1199 85.4897 19.0799 85.6817 20.1839H76.3217Z" fill="#3A3845"/>
<path d="M109.318 17.1119V12.7919H92.806V17.1119H98.71V32.9999H103.414V17.1119H109.318Z" fill="#3A3845"/>
<path d="M121.923 12.2639C115.827 12.2639 111.123 16.6799 111.123 22.9199C111.123 29.1119 115.827 33.6239 121.923 33.6239C128.019 33.6239 132.723 29.1119 132.723 22.9199C132.723 16.6799 128.019 12.2639 121.923 12.2639ZM121.923 29.3999C118.227 29.3999 115.923 26.8559 115.923 22.9679C115.923 18.3599 118.947 16.4879 121.923 16.4879C124.899 16.4879 127.923 18.3599 127.923 22.9679C127.923 26.8559 125.619 29.3999 121.923 29.3999Z" fill="#3A3845"/>
<path d="M137.632 32.9999H142.336V24.5999H150.688V32.9999H155.392V12.7919H150.688V20.2799H142.336V12.7919H137.632V32.9999Z" fill="#3A3845"/>
<path d="M52.74 41.6899C52.16 41.3199 51.57 41.2099 50.96 41.2099C50.04 41.2099 49.24 41.4299 48.55 42.0799C47.99 42.6099 47.48 43.4599 47.48 44.6899C47.48 45.6299 47.77 46.4799 48.55 47.2099C48.94 47.5799 49.7 48.1299 50.91 48.1299C51.37 48.1299 52.07 48.0299 52.74 47.6299V46.4199C52.36 46.7799 51.74 47.1899 50.94 47.1899C49.52 47.1899 48.5 46.0999 48.5 44.6899C48.5 43.2199 49.48 42.1499 50.93 42.1499C51.31 42.1499 52 42.2199 52.74 42.8899V41.6899Z" fill="#3A3845"/>
<path d="M57.6812 41.3299H54.0012V47.9999H57.6812V47.0399H55.0212V44.9399H57.6012V43.9799H55.0212V42.2899H57.6812V41.3299Z" fill="#3A3845"/>
<path d="M62.3812 42.2899V41.3299H58.3012V42.2899H59.8312V47.9999H60.8512V42.2899H62.3812Z" fill="#3A3845"/>
<path d="M63.2785 47.9999H65.0685C65.4785 47.9999 66.0485 47.9599 66.5285 47.6399C67.0885 47.2699 67.3585 46.6299 67.3585 46.0199C67.3585 45.4099 67.1085 44.8799 66.7285 44.5499C66.2185 44.0999 65.5385 44.0199 65.0585 44.0199H64.2985V41.3299H63.2785V47.9999ZM64.2985 44.9799H65.0385C66.1185 44.9799 66.3585 45.5499 66.3585 46.0299C66.3585 47.0399 65.2885 47.0399 65.0185 47.0399H64.2985V44.9799Z" fill="#3A3845"/>
<path d="M70.7297 47.9999H72.4197C72.8297 47.9999 73.3997 47.9599 73.8797 47.6399C74.4397 47.2699 74.7097 46.6299 74.7097 46.0199C74.7097 45.4099 74.4597 44.8799 74.0797 44.5499C73.5697 44.0999 72.8897 44.0199 72.4097 44.0199H71.7497V42.2899H74.0697V41.3299H70.7297V47.9999ZM71.7497 44.9799H72.3897C73.4697 44.9799 73.7097 45.5499 73.7097 46.0299C73.7097 47.0399 72.6397 47.0399 72.3697 47.0399H71.7497V44.9799Z" fill="#3A3845"/>
<path d="M79.6733 41.3299H75.9933V47.9999H79.6733V47.0399H77.0133V44.9399H79.5933V43.9799H77.0133V42.2899H79.6733V41.3299Z" fill="#3A3845"/>
<path d="M84.3733 42.2899V41.3299H80.2933V42.2899H81.8233V47.9999H82.8433V42.2899H84.3733Z" fill="#3A3845"/>
<path d="M88.2254 41.2099C86.2254 41.2099 84.7554 42.7099 84.7554 44.6699C84.7554 46.6299 86.2254 48.1299 88.2254 48.1299C90.2254 48.1299 91.6954 46.6299 91.6954 44.6699C91.6954 42.7099 90.2254 41.2099 88.2254 41.2099ZM88.2254 47.1899C86.7954 47.1899 85.7754 46.1499 85.7754 44.6699C85.7754 43.1899 86.7954 42.1499 88.2254 42.1499C89.6554 42.1499 90.6754 43.1899 90.6754 44.6699C90.6754 46.1499 89.6554 47.1899 88.2254 47.1899Z" fill="#3A3845"/>
<path d="M93.9958 41.3299H92.9758V47.9999H93.9958V44.9299H96.8558V47.9999H97.8758V41.3299H96.8558V43.9699H93.9958V41.3299Z" fill="#3A3845"/>
<path d="M100.5 41.3299H99.4797V47.9999H100.5V44.9299H103.36V47.9999H104.38V41.3299H103.36V43.9699H100.5V41.3299Z" fill="#3A3845"/>
<path d="M105.984 47.9999H107.774C108.184 47.9999 108.754 47.9599 109.234 47.6399C109.794 47.2699 110.064 46.6299 110.064 46.0199C110.064 45.4099 109.814 44.8799 109.434 44.5499C108.924 44.0999 108.244 44.0199 107.764 44.0199H107.004V41.3299H105.984V47.9999ZM107.004 44.9799H107.744C108.824 44.9799 109.064 45.5499 109.064 46.0299C109.064 47.0399 107.994 47.0399 107.724 47.0399H107.004V44.9799ZM110.764 41.3299V47.9999H111.784V41.3299H110.764Z" fill="#3A3845"/>
<path d="M112.686 47.9999H113.826L115.346 45.4499L116.806 47.9999H117.946L115.936 44.5199L117.856 41.3299H116.716L115.386 43.5899L114.086 41.3299H112.946L114.786 44.5199L112.686 47.9999Z" fill="#3A3845"/>
<path d="M121.749 42.8399C121.809 42.7599 121.999 42.5199 122.299 42.3499C122.559 42.1999 122.799 42.1599 123.109 42.1599C123.349 42.1599 123.649 42.1799 123.879 42.3599C124.049 42.4899 124.199 42.7199 124.199 43.0499C124.199 43.3399 124.069 43.5899 123.899 43.7299C123.659 43.9299 123.229 43.9999 122.939 43.9999H122.399V44.9599H122.999C123.339 44.9599 123.839 44.9599 124.209 45.2199C124.489 45.4099 124.599 45.6699 124.599 45.9999C124.599 46.3499 124.459 46.6399 124.279 46.8199C123.959 47.1399 123.509 47.1799 123.259 47.1799C122.859 47.1799 122.499 47.1099 122.159 46.8699C121.959 46.7299 121.699 46.4799 121.539 46.0599L120.639 46.5199C120.859 46.9899 121.169 47.3499 121.489 47.5999C122.019 47.9999 122.539 48.1199 123.129 48.1199C123.669 48.1199 124.369 48.0199 124.929 47.5399C125.409 47.1199 125.599 46.6099 125.599 46.0499C125.599 45.6199 125.519 45.2499 125.259 44.9199C125.069 44.6799 124.779 44.4399 124.359 44.3299C124.569 44.2099 124.789 44.0399 124.959 43.7499C125.129 43.4799 125.179 43.2199 125.179 42.9199C125.179 42.4399 125.019 42.0599 124.699 41.7499C124.219 41.2899 123.629 41.2199 123.149 41.2199C122.739 41.2199 122.339 41.2699 121.939 41.4699C121.789 41.5399 121.409 41.7499 121.079 42.1899L121.749 42.8399Z" fill="#3A3845"/>
<path d="M131.287 47.9999H132.387L129.227 40.9399L125.907 47.9999H127.007L127.737 46.3899H130.587L131.287 47.9999ZM128.157 45.4299L129.187 43.1699L130.177 45.4299H128.157Z" fill="#3A3845"/>
<path d="M133.23 41.3299V47.9999H134.9C135.41 47.9999 136.24 47.9099 136.77 47.3499C137.09 47.0099 137.21 46.6299 137.21 46.1499C137.21 45.7399 137.13 45.2799 136.77 44.8999C136.44 44.5599 136.03 44.4499 135.91 44.4199C136.06 44.3499 136.26 44.2199 136.41 43.9599C136.57 43.6999 136.61 43.4299 136.61 43.1699C136.61 42.6199 136.44 42.1899 136.08 41.8499C135.64 41.4399 135.1 41.3299 134.24 41.3299H133.23ZM134.25 42.2899H134.6C134.89 42.2899 135.18 42.3199 135.41 42.5399C135.62 42.7399 135.65 42.9799 135.65 43.1799C135.65 43.4099 135.62 43.7199 135.39 43.9399C135.15 44.1699 134.81 44.1999 134.56 44.1999H134.25V42.2899ZM134.25 45.0399H134.89C135.25 45.0399 135.66 45.0699 135.94 45.3399C136.11 45.5099 136.21 45.7699 136.21 46.0399C136.21 46.3399 136.08 46.6199 135.88 46.7799C135.62 46.9899 135.16 47.0399 134.87 47.0399H134.25V45.0399Z" fill="#3A3845"/>
<path d="M141.643 41.2099C139.643 41.2099 138.173 42.7099 138.173 44.6699C138.173 46.6299 139.643 48.1299 141.643 48.1299C143.643 48.1299 145.113 46.6299 145.113 44.6699C145.113 42.7099 143.643 41.2099 141.643 41.2099ZM141.643 47.1899C140.213 47.1899 139.193 46.1499 139.193 44.6699C139.193 43.1899 140.213 42.1499 141.643 42.1499C143.073 42.1499 144.093 43.1899 144.093 44.6699C144.093 46.1499 143.073 47.1899 141.643 47.1899Z" fill="#3A3845"/>
<path d="M146.887 41.3299V44.3899C146.887 45.3099 146.777 45.8099 146.647 46.1399C146.447 46.6399 146.067 47.0599 145.587 47.0399V49.4999H146.547V47.9999H150.847V49.4999H151.807V47.0399H151.047V41.3299H146.887ZM147.907 42.2899H150.027V47.0399H147.157C147.347 46.8599 147.537 46.6199 147.677 46.2499C147.797 45.9299 147.907 45.4199 147.907 44.3899V42.2899Z" fill="#3A3845"/>
<path d="M155.901 41.2099C153.901 41.2099 152.431 42.7099 152.431 44.6699C152.431 46.6299 153.901 48.1299 155.901 48.1299C157.901 48.1299 159.371 46.6299 159.371 44.6699C159.371 42.7099 157.901 41.2099 155.901 41.2099ZM155.901 47.1899C154.471 47.1899 153.451 46.1499 153.451 44.6699C153.451 43.1899 154.471 42.1499 155.901 42.1499C157.331 42.1499 158.351 43.1899 158.351 44.6699C158.351 46.1499 157.331 47.1899 155.901 47.1899Z" fill="#3A3845"/>
<path d="M160.652 41.3299V47.9999H162.322C162.832 47.9999 163.662 47.9099 164.192 47.3499C164.512 47.0099 164.632 46.6299 164.632 46.1499C164.632 45.7399 164.552 45.2799 164.192 44.8999C163.862 44.5599 163.452 44.4499 163.332 44.4199C163.482 44.3499 163.682 44.2199 163.832 43.9599C163.992 43.6999 164.032 43.4299 164.032 43.1699C164.032 42.6199 163.862 42.1899 163.502 41.8499C163.062 41.4399 162.522 41.3299 161.662 41.3299H160.652ZM161.672 42.2899H162.022C162.312 42.2899 162.602 42.3199 162.832 42.5399C163.042 42.7399 163.072 42.9799 163.072 43.1799C163.072 43.4099 163.042 43.7199 162.812 43.9399C162.572 44.1699 162.232 44.1999 161.982 44.1999H161.672V42.2899ZM161.672 45.0399H162.312C162.672 45.0399 163.082 45.0699 163.362 45.3399C163.532 45.5099 163.632 45.7699 163.632 46.0399C163.632 46.3399 163.502 46.6199 163.302 46.7799C163.042 46.9899 162.582 47.0399 162.292 47.0399H161.672V45.0399Z" fill="#3A3845"/>
</svg>
