<svg width="33" height="48" viewBox="0 0 33 48" fill="none" xmlns="http://www.w3.org/2000/svg">
<path fill-rule="evenodd" clip-rule="evenodd" d="M16.9088 0.532349C8.03821 0.532349 0.849976 7.28529 0.849976 15.6206C0.849976 17.7735 1.33821 19.8206 2.19703 21.6706L16.9088 47.1647L31.6147 21.6706C32.4794 19.8206 32.9647 17.7765 32.9647 15.6206C32.9647 7.28235 25.7764 0.532349 16.9088 0.532349ZM16.9764 27.0647C11.2206 27.0647 6.5588 22.3706 6.5588 16.5735C6.5588 10.7823 11.2206 6.08823 16.9764 6.08823C22.7235 6.08823 27.3853 10.7853 27.3853 16.5735C27.3853 22.3706 22.7235 27.0647 16.9764 27.0647Z" fill="#FFC526"/>
<path fill-rule="evenodd" clip-rule="evenodd" d="M24.2912 16.6588C24.2912 20.7059 21.0324 23.9882 17 23.9882C12.9794 23.9882 9.71472 20.7059 9.71472 16.6588C9.71472 12.6206 12.9765 9.33527 17 9.33527C21.0294 9.33527 24.2912 12.6206 24.2912 16.6588Z" fill="#FFC526"/>
</svg>
