<svg xmlns="http://www.w3.org/2000/svg" viewBox="0 0 50 50"><path d="M12 0c-.522 0-1.055.191-1.432.568C10.191.945 10 1.478 10 2v2H4c-.522 0-1.055.191-1.432.568C2.191 4.945 2 5.478 2 6v40c0 .522.191 1.055.568 1.432.377.377.91.568 1.432.568h42c.522 0 1.055-.191 1.432-.568.377-.377.568-.91.568-1.432V6c0-.522-.191-1.055-.568-1.432C47.055 4.191 46.522 4 46 4h-6V2c0-.522-.191-1.055-.568-1.432C39.055.191 38.522 0 38 0h-2c-.522 0-1.055.191-1.432.568C34.191.945 34 1.478 34 2v2H16V2c0-.522-.191-1.055-.568-1.432C15.055.191 14.522 0 14 0h-2zm0 2h2v6h-2V2zm24 0h2v2.832a1 1 0 0 0 0 .326V8h-2V2zM4 6h6v2c0 .522.191 1.055.568 1.432.377.377.91.568 1.432.568h2c.522 0 1.055-.191 1.432-.568.377-.377.568-.91.568-1.432V6h18v2c0 .522.191 1.055.568 1.432.377.377.91.568 1.432.568h2c.522 0 1.055-.191 1.432-.568.377-.377.568-.91.568-1.432V6h6v7H4V6zm0 9h42v31H4V15zm13.984 3.986a1 1 0 0 0-.142.014H11a1 1 0 0 0-1 1v6.832a1 1 0 0 0 0 .326v6.674a1 1 0 0 0 0 .326V41a1 1 0 0 0 1 1h6.832a1 1 0 0 0 .326 0h6.674a1 1 0 0 0 .326 0H31.832a1 1 0 0 0 .326 0H39a1 1 0 0 0 1-1v-6.832a1 1 0 0 0 0-.326v-6.674a1 1 0 0 0 0-.326V20a1 1 0 0 0-1-1h-6.832a1 1 0 0 0-.326 0h-6.674a1 1 0 0 0-.326 0h-6.674a1 1 0 0 0-.184-.014zM12 21h5v5h-5v-5zm7 0h5v5h-5v-5zm7 0h5v5h-5v-5zm7 0h5v5h-5v-5zm-21 7h5v5h-5v-5zm7 0h5v5h-5v-5zm7 0h5v5h-5v-5zm7 0h5v5h-5v-5zm-21 7h5v5h-5v-5zm7 0h5v5h-5v-5zm7 0h5v5h-5v-5zm7 0h5v5h-5v-5z" fill="#FFF"/></svg>