<svg width="41" height="41" fill="none" xmlns="http://www.w3.org/2000/svg"><g clip-path="url(#clip0)"><path fill-rule="evenodd" clip-rule="evenodd" d="M0 20.23c0 10.002 7.264 18.319 16.765 20.005v-14.53h-5.03v-5.587h5.03v-4.471c0-5.03 3.24-7.823 7.824-7.823 1.452 0 3.017.223 4.47.446v5.142h-2.57c-2.46 0-3.018 1.229-3.018 2.794v3.912h5.364l-.893 5.587H23.47v14.53c9.5-1.686 16.764-10.002 16.764-20.005C40.235 9.103 31.182 0 20.118 0 9.053 0 0 9.103 0 20.23z" fill="#fff"/></g><defs><clipPath id="clip0"><path fill="#fff" d="M0 0h40.235v40.235H0z"/></clipPath></defs></svg>