<svg xmlns="http://www.w3.org/2000/svg" viewBox="0 0 50 50"><path d="M25 4c-7.737 0-14 6.263-14 14 0 6.408 3.355 13.254 6.65 18.564 3.296 5.311 6.596 9.094 6.596 9.094a1 1 0 0 0 1.514-.008s3.298-3.855 6.592-9.2C35.645 31.102 39 24.266 39 18c0-7.737-6.263-14-14-14zm0 2c6.663 0 12 5.337 12 12 0 5.533-3.145 12.196-6.352 17.4-2.603 4.225-4.767 6.922-5.654 8-.891-1.065-3.048-3.707-5.644-7.89C16.145 30.346 13 23.692 13 18c0-6.663 5.337-12 12-12zm0 5c-3.845 0-7 3.155-7 7s3.155 7 7 7 7-3.155 7-7-3.155-7-7-7zm0 2c2.755 0 5 2.245 5 5s-2.245 5-5 5-5-2.245-5-5 2.245-5 5-5z" fill="#FFF"/></svg>