<svg xmlns="http://www.w3.org/2000/svg" viewBox="0 0 50 50"><path d="M25.877 3.3c-4.692.106-7.667 2.03-8.943 4.964-1.22 2.804-.952 6.314-.079 9.984-.461.547-.847 1.288-.751 2.436l.001.025.004.025c.167 1.221.505 2.088.971 2.698.231.302.566.315.854.48.169 1.077.491 2.148.937 3.027.254.5.524.946.799 1.317.124.168.293.272.422.412.012 1.278.068 2.279-.08 3.568-.292.775-1.035 1.412-2.254 2.028-1.253.632-2.9 1.197-4.567 1.918-1.667.72-3.372 1.605-4.73 2.986-1.358 1.38-2.322 3.284-2.459 5.777L5.943 46h40.114l-.059-1.055c-.137-2.491-1.092-4.394-2.443-5.775-1.352-1.381-3.053-2.267-4.721-2.988-1.668-.722-3.321-1.285-4.596-1.92-1.23-.613-2.008-1.259-2.345-2.04a57.555 57.555 0 0 1-.084-3.564c.126-.14.296-.247.416-.414a9.46 9.46 0 0 0 .771-1.314c.434-.88.765-1.94.967-2.996.322-.164.682-.176.932-.502.481-.63.788-1.514.9-2.74l.002-.005v-.003c.088-1.06-.238-1.815-.713-2.395.521-1.601 1.137-4.153.937-6.777-.109-1.437-.465-2.877-1.32-4.07-.778-1.087-2.044-1.855-3.635-2.188C30.003 3.86 28.092 3.3 25.9 3.3h-.023zm.023 2h.002c2.017.001 3.317.587 3.735 1.304l.244.42.48.066c1.374.193 2.156.737 2.713 1.515.558.779.862 1.858.953 3.06.182 2.4-.511 5.22-.968 6.5l-.3.833.794.397c-.137-.069.324.23.25 1.123-.09.965-.33 1.48-.498 1.699-.169.22-.239.183-.205.183h-.868l-.123.858c-.129.902-.496 1.956-.906 2.787-.205.415-.42.778-.603 1.033-.183.256-.379.401-.295.354l-.504.287v.582c0 1.5 0 2.633.101 4.262l.01.152.055.142c.586 1.53 1.92 2.466 3.379 3.194 1.46.727 3.126 1.288 4.695 1.967 1.57.678 3.026 1.47 4.084 2.55.844.863 1.367 2.004 1.64 3.432H8.237c.275-1.426.802-2.567 1.65-3.43 1.065-1.082 2.528-1.873 4.098-2.552 1.57-.68 3.23-1.24 4.674-1.97 1.445-.729 2.763-1.68 3.29-3.226l.032-.097.012-.1c.212-1.697.108-2.869.108-4.324v-.582l-.504-.287c.074.042-.128-.11-.319-.368a7.423 7.423 0 0 1-.623-1.029c-.417-.824-.777-1.864-.86-2.73l-.085-.905h-.908c.15 0 .052.057-.131-.183-.18-.236-.433-.774-.568-1.72-.049-.809.436-1.22.353-1.165l.588-.393-.174-.685c-.923-3.643-1.076-6.953-.101-9.193C19.74 6.825 21.71 5.4 25.9 5.3z"/></svg>