<svg xmlns="http://www.w3.org/2000/svg" version="1.1" xmlns:xlink="http://www.w3.org/1999/xlink" xmlns:svgjs="http://svgjs.com/svgjs" width="56" height="59"><svg width="56" height="59" viewBox="0 0 56 59" fill="none" xmlns="http://www.w3.org/2000/svg">
<path d="M50.4386 36.0496C50.3843 36.2119 50.3301 36.2661 50.2216 36.645C51.8487 35.3459 53.3674 33.8303 54.5606 32.423C54.5064 33.289 54.4521 33.9386 54.4521 34.4799C52.7708 36.3743 51.0352 37.9982 49.0826 39.4597C48.9199 39.8386 48.9742 39.6762 48.703 40.2716C50.6555 39.0266 52.2826 37.6193 53.9098 35.9954C53.6928 37.1321 53.5301 37.8899 53.4759 38.2688C51.6318 39.8927 49.7335 41.1918 47.6182 42.3285C47.564 42.3826 47.1843 43.0321 47.1843 43.0863C49.2454 42.1119 51.0894 40.9753 52.9335 39.4597C52.8793 39.7844 52.4454 41.4624 52.2826 41.8955C49.5708 43.8982 47.6182 44.8184 45.3945 45.6844C45.286 45.8468 45.2318 45.901 44.9606 46.2257C47.4013 45.3597 49.3538 44.3312 51.5233 42.8698C51.3606 43.3028 51.0894 44.0606 50.5471 45.1973C47.9437 46.767 45.3945 47.8496 43.0081 48.3909L42.5199 48.878C44.8521 48.445 47.1843 47.7954 50.1131 46.334C49.4623 47.5789 49.1369 48.1744 48.7572 48.8239C46.0454 50.0147 43.0623 50.6642 40.3504 50.9349L39.9165 51.3138C43.0623 51.2055 45.2318 50.7725 47.7267 50.0147C47.6725 50.123 46.8589 51.4221 46.3165 52.234C42.8996 53.1 40.242 53.2624 37.4759 53.1C36.7165 53.5872 36.8792 53.4789 36.5538 53.6954C39.8081 53.912 42.5742 53.5872 45.2318 53.0459C44.7979 53.6413 44.2555 54.3991 43.2792 55.5358C40.5674 55.9688 36.3369 56.2936 32.6488 55.8606C31.781 56.2936 30.9131 56.6725 30.0454 56.9973C30.8047 57.2138 31.564 57.3762 32.3233 57.5386C31.781 57.9175 31.1301 58.4046 30.5335 58.7835C29.503 58.5129 28.4725 58.2422 27.4962 57.9175C26.4657 58.2422 25.4894 58.5129 24.4589 58.7835C23.8623 58.4046 23.2115 57.9175 22.6691 57.5386C23.4284 57.3762 24.1877 57.2138 24.9471 56.9973C24.0793 56.6725 23.2115 56.2936 22.3437 55.8606C18.6555 56.2936 14.425 55.9688 11.7132 55.5358C10.7369 54.3991 10.2487 53.6413 9.76061 53.0459C12.364 53.5872 15.1843 53.9661 18.4386 53.6954C18.1132 53.4789 18.3301 53.5872 17.5165 53.1C14.8047 53.2624 12.1471 53.0459 8.7301 52.234C8.18773 51.4221 7.37417 50.123 7.31993 50.0147C9.76061 50.7184 11.9843 51.2055 15.1301 51.3138L14.6962 50.9349C11.9843 50.6642 9.00129 50.0147 6.28943 48.8239C5.90977 48.1744 5.58434 47.633 4.93349 46.334C7.86231 47.7954 10.1945 48.445 12.5267 48.878L12.0386 48.3909C9.65214 47.8496 7.10298 46.767 4.49959 45.1973C4.01145 44.0606 3.74027 43.3028 3.52332 42.8698C5.69281 44.3312 7.64536 45.3597 10.086 46.2257C9.81485 45.901 9.7606 45.8468 9.65213 45.6844C7.4284 44.8184 5.47587 43.8441 2.764 41.8955C2.60129 41.5166 2.16739 39.7844 2.11315 39.4597C3.95722 40.9753 5.80129 42.1119 7.8623 43.0863C7.80807 43.0321 7.42841 42.3826 7.42841 42.3285C5.31316 41.1918 3.36061 39.8386 1.57078 38.2688C1.4623 37.8358 1.2996 37.1321 1.13688 35.9954C2.764 37.6193 4.39112 38.9725 6.34367 40.2716C6.01824 39.6762 6.12671 39.8386 5.964 39.4597C4.01146 37.9982 2.27587 36.3743 0.594511 34.4799C0.540274 33.9386 0.48603 33.2349 0.48603 32.423C1.67925 33.8303 3.19789 35.2918 4.82501 36.645C4.6623 36.2661 4.6623 36.1578 4.60807 36.0496C2.70976 34.2092 1.4623 32.6395 0.214844 30.9074C0.214844 29.8789 0.269088 28.9587 0.323325 28.0386C1.46231 30.1496 2.65553 32.0441 3.84875 33.5597C3.79451 33.4514 3.57756 32.5854 3.57756 32.4771C2.3301 30.745 1.4623 29.2835 0.214844 26.956C0.377556 25.7652 0.594511 24.3037 0.594511 24.2496C1.24536 26.0899 2.11316 28.2551 3.03519 29.9872C2.92671 29.4459 2.70976 27.9844 2.65552 27.4432C2.38434 26.956 1.67926 25.4404 0.919938 23.3294C1.84197 17.4835 3.1979 13.911 3.57756 13.0991C3.03519 15.7514 0.865695 30.2578 8.40468 42.3285C13.0691 49.7441 19.9572 54.0743 27.7132 56.456C35.4691 54.0743 42.3572 49.7982 47.0216 42.3285C54.5606 30.312 52.4454 15.8055 51.8487 13.0991C52.2284 13.9652 53.5843 17.4835 54.5064 23.3294C53.6928 25.4404 52.9877 26.956 52.7708 27.4432C52.6623 27.9844 52.4996 29.4459 52.3911 29.9872C53.3132 28.2551 54.181 26.0899 54.8318 24.2496C54.886 24.3578 55.103 25.7652 55.2115 26.956C54.0182 29.3376 53.0962 30.745 51.8487 32.4771C51.7945 32.5854 51.5776 33.4514 51.5776 33.5597C52.7708 32.0441 53.964 30.1496 55.103 28.0386C55.1572 29.0129 55.2115 29.933 55.2115 30.9074C53.5843 32.5853 52.3369 34.1551 50.4386 36.0496Z" fill="#0F1F31"></path>
<path d="M27.3363 53.9119C45.9939 46.3881 48.4888 31.8817 48.4888 31.8817L49.4109 11.1504C46.2651 9.68898 43.716 6.92845 42.1431 3.46423C40.4617 4.70919 38.4549 5.41284 36.3397 5.41284C32.6515 5.41284 29.3431 3.30184 27.3363 0C25.3295 3.30184 22.021 5.41284 18.3329 5.41284C16.2176 5.41284 14.2109 4.70919 12.5295 3.46423C10.9566 6.92845 8.40748 9.68898 5.26172 11.1504L6.18374 31.8817C6.18374 31.8817 8.7329 46.3881 27.3363 53.9119Z" fill="#0F1F31"></path>
<path d="M33.0303 10.6631C32.4879 11.4209 31.9456 12.1246 31.4574 12.8824H22.7252C22.1828 12.1246 21.6947 11.4209 21.1523 10.6631C21.5862 10.9879 22.3998 11.042 22.454 11.6916C22.7252 11.5292 22.9422 11.3668 23.2676 11.4209C23.4845 11.475 23.6473 11.5833 23.81 11.6374C23.81 11.6916 23.7557 11.6916 23.7557 11.6916C23.7015 11.6916 23.593 11.6374 23.5388 11.6374C23.2134 11.5833 22.9964 11.7998 23.0506 12.0705C23.1049 12.1787 23.1049 12.3411 23.1049 12.5035C23.3218 12.5576 23.5388 12.6659 23.7557 12.7741C24.1354 12.8824 24.3523 12.7741 24.4608 12.5035C24.5151 12.3411 24.5693 12.2328 24.5693 12.0705C24.5693 12.0163 24.5151 11.9081 24.4608 11.9081C24.2439 11.7457 24.1896 11.6374 24.2981 11.4751C24.4608 11.3668 24.6778 11.3127 24.7862 11.4209C24.949 11.5292 24.949 11.6916 24.732 11.854C24.6778 11.9081 24.6778 11.9081 24.6235 11.9081C24.8947 12.2329 25.1117 12.5576 25.7083 12.5035C25.9252 12.4494 26.1422 12.3952 26.2506 12.287C26.6303 11.9081 26.8473 11.475 26.6846 10.9879C26.6303 10.8796 26.5218 10.8255 26.4134 10.7714C26.3049 10.8797 26.1964 10.9338 26.1964 11.042C26.0879 11.3127 26.0337 11.4751 25.5998 11.5833C25.8168 11.3127 25.7625 11.042 25.654 10.8255C25.4371 10.3925 25.7625 10.1219 26.4134 10.2301C26.4676 10.2301 26.5218 10.2842 26.6303 10.2842C26.4134 9.79707 27.01 9.58056 27.1184 9.20166C27.2269 9.58056 27.8235 9.79707 27.6066 10.2842C27.6608 10.2842 27.7151 10.2842 27.7693 10.2301C28.2574 10.1219 28.854 10.3925 28.5829 10.8796C28.4201 11.0961 28.4201 11.3668 28.5829 11.5833C28.3117 11.5292 28.0947 11.3668 28.0405 11.1503C27.9862 11.0961 28.0405 10.9879 27.9862 10.9338C27.932 10.8796 27.8235 10.8255 27.7693 10.8255C27.7151 10.8255 27.6066 10.8796 27.5523 10.9338C27.3354 11.3127 27.6066 12.0705 27.9862 12.3411C28.3117 12.5576 28.7998 12.6118 29.1252 12.3953C29.2879 12.287 29.4506 12.1246 29.5591 12.0163C29.4506 11.9081 29.3422 11.7998 29.3422 11.7457C29.2879 11.5833 29.3964 11.475 29.5591 11.4209C29.7218 11.3668 29.8845 11.4209 29.993 11.5292C30.1015 11.6374 30.1015 11.7998 29.8845 11.854C29.6676 11.9622 29.7218 12.0705 29.7218 12.1787C29.8303 12.8283 30.21 12.9907 30.9693 12.6659C31.132 12.5576 31.2947 12.5035 31.1862 12.3411C31.132 12.287 31.1862 12.2328 31.1862 12.2328C31.2947 11.8539 31.0778 11.6916 30.5354 11.7457H30.3727C30.6981 11.3668 31.0778 11.3668 31.6744 11.7457C31.7286 10.9879 32.5422 10.9879 33.0303 10.6631Z" fill="white"></path>
<path d="M32.3269 25.8193V37.3487C32.3269 38.0523 32.2184 38.7019 32.0557 39.3514C31.9472 39.7844 31.7845 40.1633 31.6218 40.5422C31.1879 41.5166 30.5371 42.3285 29.7235 43.0321C29.6693 43.0321 29.6693 43.0863 29.6693 43.0863C29.2896 43.411 28.8015 43.7358 28.3676 44.0064C27.8794 44.2771 27.3371 44.4936 26.7947 44.7101C26.5777 44.7642 26.3608 44.8725 26.1439 44.9266C25.1676 45.1973 24.1913 45.3055 23.0523 45.3055C22.4015 45.3055 21.7506 45.2514 21.154 45.1973C21.0998 45.1973 21.0455 45.1973 21.0455 45.1973C20.1777 45.0349 19.4727 44.4936 19.4727 43.8982C19.4727 43.3028 19.9066 43.0863 20.5032 43.0863C20.9371 43.0863 21.7506 43.6817 22.3472 44.0606V23.167L24.6252 23.7624V44.2771C24.6794 44.2771 24.6794 44.2771 24.7337 44.2771C25.0591 44.1688 25.3845 44.1147 25.7099 43.9523C25.8184 43.8982 25.8727 43.8982 25.9269 43.8441V24.1413L28.2049 24.7367V42.0037L28.2591 41.9496C28.2591 41.9496 28.2591 41.9496 28.3133 41.8955C28.6388 41.4624 28.8557 40.9753 29.0727 40.434C29.3438 39.6221 29.5066 38.8101 29.5066 37.9441V25.1698L32.3269 25.8193Z" fill="white"></path>
<path d="M35.0909 15.6973V16.8339H32.3248V24.6285L29.5587 23.9248V16.8339H28.3112V23.5459L26.0333 22.9505V16.8339H24.7316V22.6257L22.4536 21.9762V16.8339H19.6875V15.6973H35.0909Z" fill="white"></path>
<path d="M36.9365 13.8027L36.3941 14.8312H18.0077L17.5195 13.8027H21.967L22.3467 14.1275H32.1094L32.489 13.8027H36.9365Z" fill="white"></path>
<path d="M36.7186 13.8027L36.2305 14.8312L36.7186 13.8027Z" fill="white"></path>
<path d="M28.3674 41.8955V43.9524C27.8792 44.223 27.3368 44.4395 26.7945 44.656C26.5775 44.7102 26.3606 44.8184 26.1436 44.8726H26.0352V43.79C26.0352 43.79 26.0352 43.79 26.0894 43.79C26.7945 43.4652 27.3911 43.0322 27.8792 42.4909C28.0419 42.2744 28.2046 42.112 28.3674 41.8955Z" fill="white"></path>
<path d="M27.389 51.909C44.311 45.0889 46.589 31.8815 46.589 31.8815L47.4568 13.0448C44.6365 11.6916 42.3043 9.20169 40.8941 6.06224C39.3212 7.19894 37.5314 7.79436 35.6331 7.79436C32.2704 7.79436 29.2873 5.84572 27.4432 2.86865C25.5992 5.84572 22.6161 7.79436 19.2534 7.79436C17.3009 7.79436 15.511 7.14481 13.9924 6.06224C12.5822 9.25582 10.25 11.7457 7.42969 13.0448L8.29747 31.8815C8.189 31.8815 10.467 45.0889 27.389 51.909Z" stroke="white" stroke-width="1.0967" stroke-miterlimit="10"></path>
<path d="M41.7072 33.0724L38.2361 27.9302C38.2903 27.822 38.3445 27.7678 38.3445 27.6596C38.3445 27.3889 38.1276 27.2266 37.9106 27.2266C37.6394 27.2266 37.4767 27.4431 37.4767 27.6596C37.4767 27.7678 37.531 27.8761 37.5852 27.9302L34.114 33.0724C33.9513 32.9642 33.7886 32.8559 33.7344 32.7477C34.0056 35.8871 37.9106 36.1578 37.9106 36.1578C37.9106 36.1578 41.8157 35.8871 42.0869 32.7477C42.0327 32.9101 41.9242 33.0183 41.7072 33.0724ZM34.8733 33.3431L35.0903 33.289C35.0903 33.289 34.8733 32.6935 35.9581 31.0156L35.9039 31.0697L37.6937 28.3633V32.9642C37.0428 33.5055 35.7954 33.5596 34.8733 33.3431ZM38.1276 32.9642V28.3633L39.9174 31.0697L39.8632 31.0156C41.0022 32.6935 40.731 33.289 40.731 33.289L40.9479 33.3431C40.0801 33.5596 38.8327 33.5055 38.1276 32.9642Z" fill="white"></path>
<path d="M20.719 27.3888L17.2478 22.2466C17.302 22.1384 17.3563 22.0842 17.3563 21.976C17.3563 21.7053 17.1393 21.543 16.9224 21.543C16.6512 21.543 16.4885 21.7595 16.4885 21.976C16.4885 22.0842 16.5427 22.1925 16.5969 22.2466L13.1258 27.3888C12.963 27.2806 12.8003 27.1723 12.7461 27.0641C13.0173 30.2035 16.9224 30.4742 16.9224 30.4742C16.9224 30.4742 20.8274 30.2035 21.0986 27.0641C21.0444 27.2265 20.8817 27.2806 20.719 27.3888ZM13.8308 27.6595L14.0478 27.6054C14.0478 27.6054 13.8308 27.0099 14.9156 25.332L14.8613 25.3861L16.6512 22.6797V27.2806C16.0546 27.8219 14.7529 27.876 13.8308 27.6595ZM17.0851 27.2806V22.6797L18.8749 25.3861L18.8207 25.332C19.9597 27.0099 19.6885 27.6054 19.6885 27.6054L19.9054 27.6595C19.0376 27.876 17.7902 27.8219 17.0851 27.2806Z" fill="white"></path>
<path d="M16.8672 21.8135L37.7485 27.497" stroke="white" stroke-width="1.0171" stroke-miterlimit="10"></path>
</svg><style>@media (prefers-color-scheme: light) { :root { filter: none; } }
</style></svg>