<svg width="119" height="92" fill="none" xmlns="http://www.w3.org/2000/svg"><path d="M64.15 30.283a1.917 1.917 0 0 1-.804-.172l-3.834-1.917-3.929 1.917a1.916 1.916 0 0 1-1.916-.192 1.917 1.917 0 0 1-.767-1.782l.537-4.313-2.971-3.143a1.916 1.916 0 0 1 1.035-3.2l4.082-.806 2.07-3.833a1.917 1.917 0 0 1 3.373 0l2.07 3.833 4.275.805a1.917 1.917 0 0 1 1.035 3.2l-2.971 3.144.537 4.313a1.917 1.917 0 0 1-1.917 2.146h.096zm-4.734-6.056c.284 0 .565.058.825.172l1.571.748-.23-1.725a1.916 1.916 0 0 1 .518-1.553l1.188-1.284-1.706-.307a1.916 1.916 0 0 1-1.322-.977l-.843-1.514-.844 1.514a1.916 1.916 0 0 1-1.322.977l-1.706.307 1.188 1.284a1.918 1.918 0 0 1 .518 1.553l-.23 1.725 1.571-.748c.26-.114.54-.172.825-.172zM43.067 30.283a1.917 1.917 0 0 1-.805-.172l-3.929-1.917-3.929 1.917a1.916 1.916 0 0 1-1.917-.192 1.917 1.917 0 0 1-.766-1.782l.536-4.313-2.97-3.143a1.916 1.916 0 0 1 1.035-3.2l4.178-.806 2.07-3.833a1.918 1.918 0 0 1 3.373 0l2.07 3.833 4.274.805a1.917 1.917 0 0 1 1.035 3.2l-2.97 3.144.536 4.313a1.916 1.916 0 0 1-1.916 2.146h.095zm-4.734-6.056c.284 0 .565.058.824.172l1.572.748-.23-1.725a1.917 1.917 0 0 1 .517-1.553l1.189-1.284-1.706-.307a1.916 1.916 0 0 1-1.323-.977l-.843-1.514-.843 1.514a1.916 1.916 0 0 1-1.323.977l-1.706.307 1.189 1.284a1.918 1.918 0 0 1 .517 1.553l-.23 1.725 1.572-.748c.26-.114.54-.172.824-.172zM21.984 30.283a1.917 1.917 0 0 1-.805-.172l-3.93-1.917-3.832 1.917a1.916 1.916 0 0 1-1.917-.192 1.918 1.918 0 0 1-.767-1.782l.537-4.313-3.086-3.143a1.916 1.916 0 0 1 1.035-3.2l4.197-.806 2.07-3.833a1.917 1.917 0 0 1 3.374 0l2.07 3.833 4.274.805a1.917 1.917 0 0 1 1.035 3.2l-2.97 3.144.536 4.313a1.916 1.916 0 0 1-1.917 2.146h.096zm-4.734-6.056c.284 0 .564.058.824.172l1.572.748-.23-1.725a1.917 1.917 0 0 1 .517-1.553l1.189-1.284-1.706-.307a1.917 1.917 0 0 1-1.323-.977l-.843-1.514-.843 1.514a1.917 1.917 0 0 1-1.323.977l-1.668.307 1.189 1.284a1.918 1.918 0 0 1 .517 1.553l-.23 1.725 1.572-.748c.248-.109.515-.167.786-.172zM85.234 30.283a1.917 1.917 0 0 1-.805-.172l-3.833-1.917-3.834 1.917a1.916 1.916 0 0 1-1.916-.192 1.917 1.917 0 0 1-.767-1.782l.537-4.313-2.971-3.143a1.916 1.916 0 0 1 1.035-3.2l3.987-.806 2.07-3.833a1.917 1.917 0 0 1 3.373 0l2.07 3.833 4.274.805a1.917 1.917 0 0 1 1.035 3.2l-2.97 3.144.536 4.313a1.916 1.916 0 0 1-1.917 2.146h.096zM80.5 24.227c.284 0 .564.058.824.172l1.572.748-.23-1.725a1.917 1.917 0 0 1 .517-1.553l1.189-1.284-1.706-.307a1.917 1.917 0 0 1-1.323-.977l-.843-1.514-.843 1.514a1.917 1.917 0 0 1-1.323.977l-1.706.307 1.189 1.284a1.916 1.916 0 0 1 .517 1.553l-.23 1.725 1.572-.748c.26-.114.54-.172.824-.172zM106.318 30.283a1.914 1.914 0 0 1-.805-.172l-3.834-1.917-3.833 1.917a1.916 1.916 0 0 1-1.917-.192 1.917 1.917 0 0 1-.766-1.782l.536-4.313-2.97-3.143a1.916 1.916 0 0 1 1.034-3.2l3.987-.806 2.07-3.833a1.917 1.917 0 0 1 3.373 0l2.07 3.833 4.275.805a1.914 1.914 0 0 1 1.512 2.306 1.92 1.92 0 0 1-.477.895l-2.971 3.143.536 4.313a1.904 1.904 0 0 1-.473 1.506 1.918 1.918 0 0 1-1.443.64h.096zm-4.735-6.056c.284 0 .565.058.825.172l1.571.748-.23-1.725a1.919 1.919 0 0 1 .518-1.553l1.188-1.284-1.706-.307a1.917 1.917 0 0 1-1.322-.977l-.844-1.514-.843 1.514a1.912 1.912 0 0 1-1.322.977l-1.706.307L98.9 21.87a1.916 1.916 0 0 1 .518 1.553l-.23 1.725 1.571-.748c.26-.114.541-.172.824-.172z" fill="#000"/><path d="M105.417 42.167h-23A1.917 1.917 0 0 1 80.5 40.25v-2.875a2.875 2.875 0 1 0-5.75 0v2.875a1.917 1.917 0 0 1-1.917 1.917H13.417A13.417 13.417 0 0 1 0 28.75V13.417A13.417 13.417 0 0 1 13.417 0h92a13.417 13.417 0 0 1 13.416 13.417V28.75a13.416 13.416 0 0 1-13.416 13.417zm-21.084-3.834h21.084A9.583 9.583 0 0 0 115 28.75V13.417a9.584 9.584 0 0 0-9.583-9.584h-92a9.583 9.583 0 0 0-9.584 9.584V28.75a9.583 9.583 0 0 0 9.584 9.583h57.5v-.958a6.708 6.708 0 1 1 13.416 0v.958z" fill="#000"/><path d="M88.167 92H86.25a24.917 24.917 0 0 1-24.916-24.917v-5.75a11.5 11.5 0 0 1 9.583-11.346V37.375a6.708 6.708 0 0 1 13.416 0v11.193a6.595 6.595 0 0 1 2.876-.651 6.709 6.709 0 0 1 5.75 3.162 6.632 6.632 0 0 1 3.833-1.246 6.709 6.709 0 0 1 5.75 3.163 6.63 6.63 0 0 1 3.833-1.246 6.71 6.71 0 0 1 6.708 6.708v8.625a24.92 24.92 0 0 1-15.381 23.02A24.916 24.916 0 0 1 88.167 92zM77.625 34.5a2.875 2.875 0 0 0-2.875 2.875V51.75a1.917 1.917 0 0 1-1.916 1.917 7.667 7.667 0 0 0-7.667 7.666v5.75A21.084 21.084 0 0 0 86.25 88.167h1.917a21.083 21.083 0 0 0 21.083-21.084v-8.625a2.875 2.875 0 0 0-5.75 0 1.918 1.918 0 0 1-1.917 1.917 1.918 1.918 0 0 1-1.916-1.917v-1.916a2.875 2.875 0 0 0-5.75 0 1.917 1.917 0 1 1-3.834 0v-1.917a2.875 2.875 0 0 0-5.75 0 1.916 1.916 0 1 1-3.833 0v-17.25a2.875 2.875 0 0 0-2.875-2.875z" fill="#000"/><path d="M72.833 67.083a1.917 1.917 0 0 1-1.916-1.916V51.75a1.916 1.916 0 1 1 3.833 0v13.417a1.917 1.917 0 0 1-1.917 1.916z" fill="#000"/></svg>