<svg width="230" height="54" fill="none" xmlns="http://www.w3.org/2000/svg"><path d="M3.955 44V11.187H0v-9.96h15.176V44H3.956zm17.637 9.96l5.771-21.063h11.162L29.473 53.96h-7.881zm18.486-21.913c1.426.86 2.793 1.514 4.102 1.963 1.328.43 2.607.644 3.838.644 1.894 0 3.447-.449 4.658-1.347 1.21-.899 1.816-2.032 1.816-3.399 0-1.816-.674-3.213-2.021-4.19-1.348-.976-3.272-1.464-5.772-1.464-.898 0-1.875.098-2.93.293a26.874 26.874 0 0 0-3.456.908l3.662-24.228h21.357v9.404h-13.3l-1.026 6.123a18.118 18.118 0 0 1 1.904-.293 13.742 13.742 0 0 1 1.758-.117c3.633 0 6.66 1.24 9.082 3.72 2.422 2.461 3.633 5.557 3.633 9.288 0 4.57-1.582 8.3-4.746 11.191-3.164 2.871-7.305 4.307-12.422 4.307a25.4 25.4 0 0 1-5.889-.703c-1.953-.45-3.945-1.143-5.976-2.08l1.728-10.02zm40.049-9.756c0 4.434.205 7.461.615 9.082.43 1.621 1.162 2.432 2.197 2.432 1.016 0 1.729-.791 2.14-2.373.41-1.582.614-4.63.614-9.141 0-4.531-.205-7.588-.615-9.17-.41-1.582-1.123-2.373-2.139-2.373-1.035 0-1.767.81-2.197 2.432-.41 1.62-.615 4.658-.615 9.111zm-10.928.352c0-6.993 1.211-12.452 3.633-16.377C75.273 2.34 78.642.377 82.94.377c4.277 0 7.626 1.963 10.048 5.889 2.422 3.925 3.633 9.384 3.633 16.377 0 6.992-1.21 12.441-3.633 16.347-2.402 3.907-5.752 5.86-10.049 5.86-4.316 0-7.685-1.953-10.107-5.86-2.422-3.906-3.633-9.355-3.633-16.347zm40.518-.352c0 4.434.205 7.461.615 9.082.43 1.621 1.162 2.432 2.197 2.432 1.016 0 1.729-.791 2.139-2.373.41-1.582.615-4.63.615-9.141 0-4.531-.205-7.588-.615-9.17-.41-1.582-1.123-2.373-2.139-2.373-1.035 0-1.767.81-2.197 2.432-.41 1.62-.615 4.658-.615 9.111zm-10.928.352c0-6.993 1.211-12.452 3.633-16.377 2.441-3.926 5.81-5.889 10.107-5.889 4.278 0 7.627 1.963 10.049 5.889 2.422 3.925 3.633 9.384 3.633 16.377 0 6.992-1.211 12.441-3.633 16.347-2.402 3.907-5.752 5.86-10.049 5.86-4.316 0-7.685-1.953-10.107-5.86-2.422-3.906-3.633-9.355-3.633-16.347zm26.397 31.318l5.771-21.064h11.162l-9.053 21.064h-7.88zm28.945-31.67c0 4.434.205 7.461.615 9.082.43 1.621 1.162 2.432 2.197 2.432 1.016 0 1.729-.791 2.139-2.373.41-1.582.615-4.63.615-9.141 0-4.531-.205-7.588-.615-9.17-.41-1.582-1.123-2.373-2.139-2.373-1.035 0-1.767.81-2.197 2.432-.41 1.62-.615 4.658-.615 9.111zm-10.928.352c0-6.993 1.211-12.452 3.633-16.377 2.441-3.926 5.81-5.889 10.107-5.889 4.278 0 7.627 1.963 10.049 5.889 2.422 3.925 3.633 9.384 3.633 16.377 0 6.992-1.211 12.441-3.633 16.347-2.402 3.907-5.752 5.86-10.049 5.86-4.316 0-7.685-1.953-10.107-5.86-2.422-3.906-3.633-9.355-3.633-16.347zm40.518-.352c0 4.434.205 7.461.615 9.082.43 1.621 1.162 2.432 2.197 2.432 1.016 0 1.729-.791 2.139-2.373.41-1.582.615-4.63.615-9.141 0-4.531-.205-7.588-.615-9.17-.41-1.582-1.123-2.373-2.139-2.373-1.035 0-1.767.81-2.197 2.432-.41 1.62-.615 4.658-.615 9.111zm-10.928.352c0-6.993 1.211-12.452 3.633-16.377 2.441-3.926 5.81-5.889 10.107-5.889 4.278 0 7.627 1.963 10.049 5.889 2.422 3.925 3.633 9.384 3.633 16.377 0 6.992-1.211 12.441-3.633 16.347-2.402 3.907-5.752 5.86-10.049 5.86-4.316 0-7.685-1.953-10.107-5.86-2.422-3.906-3.633-9.355-3.633-16.347zm40.518-.352c0 4.434.205 7.461.615 9.082.429 1.621 1.162 2.432 2.197 2.432 1.016 0 1.729-.791 2.139-2.373.41-1.582.615-4.63.615-9.141 0-4.531-.205-7.588-.615-9.17-.41-1.582-1.123-2.373-2.139-2.373-1.035 0-1.768.81-2.197 2.432-.41 1.62-.615 4.658-.615 9.111zm-10.928.352c0-6.993 1.211-12.452 3.633-16.377 2.441-3.926 5.81-5.889 10.107-5.889 4.277 0 7.627 1.963 10.049 5.889 2.422 3.925 3.633 9.384 3.633 16.377 0 6.992-1.211 12.441-3.633 16.347-2.402 3.907-5.752 5.86-10.049 5.86-4.316 0-7.685-1.953-10.107-5.86-2.422-3.906-3.633-9.355-3.633-16.347z" fill="#000"/></svg>