<svg width="234" height="71" fill="none" xmlns="http://www.w3.org/2000/svg"><path d="M59.51 1.245L0 70.764 23.197 71l8.542-9.856 18.927.23-3.664 9.39L67.45 71 88.204 1.257 59.51 1.245zm-5.787 46.267l-10.683-.461 17.69-22.082-7.007 22.543zM150.462 1.245L130.316 71l40.893-.461 4.889-16.214-17.404-.236 2.147-7.747h14.942l4.277-18.318h-14.038l1.529-8.456 18.915-.23 5.496-18.093h-41.5zM198.677 1.245L177.93 70.539l37.842.461 15.892-18.554h-22.917l14.656-51.201h-24.726zM123.91 1.245c-5.496-.225-28.378.236-28.378.236L75.07 70.764h34.498s11.891-.22 17.69-11.741c5.799-11.523 4.889-16.906-8.845-23.955 0 0 18.32-1.885 20.14-16.203 1.821-14.317-9.148-17.378-14.644-17.62zm-13.425 47.449c-.612 6.34-8.547 6.34-8.547 6.34l3.051-12.444s6.103-.237 5.496 6.104zm6.103-25.604c-1.826 7.05-7.654 5.868-7.654 5.868l3.057-11.735s6.423-1.17 4.597 5.867z" fill="#020202"/><path d="M61.864.07L2.352 69.581l23.192.248 8.541-9.868 18.927.236-3.67 9.384 20.455.248L90.551.086 61.863.07zm-5.8 46.266l-10.677-.467 17.696-22.075-7.019 22.542zM152.809.07l-20.151 69.754 40.898-.467 4.89-16.22-17.404-.224 2.135-7.753h14.965l4.271-18.317h-14.049l1.534-8.456 18.927-.23L194.304.068h-41.495zM201.03.07l-20.753 69.287 37.842.467L234 51.27h-22.905l14.65-51.2H201.03zM126.257.07c-5.496-.237-28.384.235-28.384.235L77.446 69.582h34.464s11.903-.225 17.696-11.741c5.794-11.516 4.884-16.906-8.845-23.95 0 0 18.32-1.89 20.14-16.207C142.722 3.366 131.742.334 126.257.069zm-13.436 47.442c-.607 6.34-8.542 6.34-8.542 6.34l3.057-12.45s6.103-.236 5.485 6.11zm6.108-25.598c-1.832 7.044-7.631 5.868-7.631 5.868l3.051-11.735s6.412-1.176 4.58 5.867z" fill="#ED1C24"/></svg>