<svg xmlns="http://www.w3.org/2000/svg" xmlns:xlink="http://www.w3.org/1999/xlink"><defs><clipPath id="clip0"><path fill="#fff" d="M0 0h40.235v40.235H0z"/></clipPath></defs><symbol id="facebook"><g clip-path="url(#clip0)"><path fill-rule="evenodd" clip-rule="evenodd" d="M0 20.23c0 10.002 7.264 18.319 16.765 20.005v-14.53h-5.03v-5.587h5.03v-4.471c0-5.03 3.24-7.823 7.824-7.823 1.452 0 3.017.223 4.47.446v5.142h-2.57c-2.46 0-3.018 1.229-3.018 2.794v3.912h5.364l-.893 5.587H23.47v14.53c9.5-1.686 16.764-10.002 16.764-20.005C40.235 9.103 31.182 0 20.118 0 9.053 0 0 9.103 0 20.23z" fill="#fff"/></g></symbol><symbol id="mail"><path d="M2.229.909A5.143 5.143 0 0 1 5.143 0h37.714c1.041 0 2.057.318 2.914.909L24 11.794 2.229.91zm45.548 2.828c.145.455.22.929.223 1.406v24a5.143 5.143 0 0 1-5.143 5.143H5.143A5.143 5.143 0 0 1 0 29.143v-24c.003-.477.078-.951.223-1.406L23.229 15.24a1.714 1.714 0 0 0 1.542 0L47.777 3.737zM15.43 24H6.857v3.429h8.572V24z" fill="#fff"/></symbol><symbol id="instagram" viewBox="0 0 42.8 42.8"><style>.st0{fill:#fff}</style><path class="st0" d="M42.6 12.6c0-1.8-.4-3.6-1-5.3-.6-1.4-1.4-2.7-2.5-3.8C38 2.4 36.7 1.6 35.3 1c-1.7-.6-3.4-1-5.2-1h-8.7c-5.8 0-6.5 0-8.8.1-1.8 0-3.5.4-5.2 1-1.4.6-2.7 1.4-3.8 2.5C2.5 4.7 1.7 6 1.1 7.4c-.6 1.7-1 3.4-1 5.2-.1 2.3-.1 3-.1 8.8 0 5.8 0 6.5.1 8.8 0 1.8.4 3.5 1 5.2.6 1.4 1.4 2.7 2.5 3.8 1.1 1.1 2.4 1.9 3.8 2.5 1.7.6 3.4 1 5.2 1.1 2.3.1 3 .1 8.8.1 5.8 0 6.5 0 8.8-.1 1.8 0 3.5-.4 5.2-1 1.4-.6 2.7-1.4 3.8-2.5 1.1-1.1 1.9-2.4 2.5-3.8.6-1.7 1-3.4 1-5.2.1-2.3.1-3 .1-8.8 0-5.8 0-6.6-.2-8.9zM21.4 32.3c-6.1 0-11-4.9-11-11s4.9-11 11-11c2.9 0 5.7 1.2 7.8 3.2 2.1 2.1 3.2 4.9 3.2 7.8 0 2.9-1.2 5.7-3.2 7.8-2.1 2.1-4.9 3.2-7.8 3.2zm11.4-19.8c-1.4 0-2.6-1.1-2.6-2.6 0-.3.1-.7.2-1 .1-.3.3-.6.6-.8.2-.2.5-.4.8-.6s.6-.2 1-.2c.3 0 .7.1 1 .2s.6.3.8.6c.2.3.4.6.5.9.1.3.2.6.2 1 0 1.4-1.1 2.5-2.5 2.5z"/><path class="st0" d="M21.4 28.5c3.9 0 7.1-3.2 7.1-7.1s-3.2-7.1-7.1-7.1c-3.9 0-7.1 3.2-7.1 7.1s3.1 7.1 7.1 7.1z"/></symbol></svg>