<?xml version="1.0" encoding="utf-8"?>
<!-- Generator: Adobe Illustrator 22.1.0, SVG Export Plug-In . SVG Version: 6.00 Build 0)  -->
<svg version="1.1" id="Слой_1" xmlns="http://www.w3.org/2000/svg" xmlns:xlink="http://www.w3.org/1999/xlink" x="0px" y="0px"
	 viewBox="0 0 300 300" style="enable-background:new 0 0 300 300;" xml:space="preserve">
<style type="text/css">
	.st0{fill:#FFD2F3;}
	.st1{display:none;}
	.st2{display:inline;fill:#008CD6;}
	.st3{display:inline;}
	.st4{fill:#C1C1C1;}
	.st5{fill:#D6D6D6;}
	.st6{display:inline;fill:#FFFFFF;}
	.st7{display:inline;fill:#00539D;}
	.st8{display:inline;fill:#C1C1C1;}
	.st9{display:inline;fill:#FD4C9A;}
	.st10{display:inline;fill:#D6D6D6;}
	.st11{display:inline;fill:#F61889;}
	.st12{fill:#008CD6;}
	.st13{display:inline;fill:#556080;}
	.st14{display:inline;fill:#D1D4D1;}
	.st15{display:inline;fill:#F0C419;}
	.st16{display:inline;fill:#91B82B;}
	.st17{display:inline;fill:#FFAF4B;}
	.st18{display:inline;fill:#D24146;}
	.st19{fill:#FBFBFC;}
	.st20{fill:#F9F9F9;}
	.st21{fill:#A64C31;}
	.st22{fill:#FFCBBE;}
	.st23{fill:#A44F3E;}
	.st24{fill:#8A3E25;}
	.st25{fill:#ED1E79;}
	.st26{display:inline;fill:#CC753A;}
	.st27{display:inline;fill:#C6542C;}
	.st28{display:inline;fill:#E6F3FF;}
	.st29{display:inline;fill:#D6DCED;}
	.st30{display:inline;fill:#FF755A;}
	.st31{display:inline;fill:#F43838;}
	.st32{display:inline;fill:#FFD6AE;}
	.st33{display:inline;fill:#FFB185;}
	.st34{clip-path:url(#SVGID_2_);fill:#D6DCED;}
	.st35{clip-path:url(#SVGID_2_);fill:#E6F3FF;}
	.st36{display:inline;fill:#C4C0AD;}
	.st37{display:inline;fill:#A19D8D;}
	.st38{display:inline;fill:#CC7927;}
	.st39{display:inline;fill:#B56714;}
	.st40{display:inline;fill:#F29D4E;}
	.st41{display:inline;fill:#E38B39;}
	.st42{display:inline;fill:#A15615;}
	.st43{display:inline;fill:#7D3607;}
	.st44{display:inline;fill:#F3F3F3;}
	.st45{fill:#CED6E0;}
	.st46{fill:#415A6B;}
	.st47{display:inline;fill:#F05540;}
	.st48{display:inline;fill:#F3705A;}
	.st49{display:inline;fill:#F7B64C;}
	.st50{display:inline;fill:#FFD15C;}
	.st51{display:inline;fill:#4F83D1;}
	.st52{display:inline;fill:#7CB8EB;}
	.st53{display:inline;fill:#E6F1FD;}
	.st54{display:inline;fill:#FCEC97;}
	.st55{display:inline;fill:#3E5496;}
	.st56{display:inline;fill:#3C3A41;}
	.st57{display:inline;fill:#17171A;}
	.st58{display:inline;fill:#C8C6CD;}
	.st59{display:inline;fill:#00ACEA;}
	.st60{display:inline;fill:#0082D2;}
	.st61{fill:#AEADB3;}
	.st62{display:inline;fill:#C2001A;}
	.st63{clip-path:url(#SVGID_4_);fill:#00DC7F;}
	.st64{clip-path:url(#SVGID_4_);fill:#00A861;}
	.st65{display:inline;fill:#E1EBF0;}
	.st66{display:inline;fill:#B3D1D7;}
	.st67{display:inline;fill:#6EA3A8;}
	.st68{display:inline;fill:#E5E1E5;}
	.st69{display:inline;fill:#C9BFC8;}
	.st70{display:inline;fill:#BAAFB9;}
	.st71{display:inline;fill:#99E6FC;}
	.st72{display:inline;fill:#62DBFB;}
	.st73{display:inline;fill:#FEE97D;}
	.st74{display:inline;fill:#FEE45A;}
	.st75{display:inline;fill:#F9F7F8;}
	.st76{display:inline;fill:#EFEDEF;}
	.st77{display:inline;fill:#FFF9E2;}
	.st78{display:inline;fill:#AA9EA9;}
	.st79{display:inline;fill:#9FD479;}
	.st80{display:inline;fill:#F2DF33;}
	.st81{fill:#D9B92C;}
	.st82{display:inline;fill:#ED5575;}
	.st83{fill:#CC3A60;}
	.st84{display:inline;fill:#5C9CEE;}
</style>
<g>
	<path class="st0" d="M223.3,192.3c-6.7,9.4-27.9,18.8-43.8,23.4c-23.2,6.8-52.1,1.6-74.8-9.1c-15.6-7.3-26.4-21.5-31-37
		c-1.4-4.7-8.6-38-8.8-43.8c-0.8-25.6,14.6-36.8,39.9-39.9c24-2.9,60-20.5,90-16.7c10.4,1.3,25.3,8.4,36.4,34.7
		C235.2,113.3,257.3,148.5,223.3,192.3z"/>
</g>
<g class="st1">
	<path class="st2" d="M133.4,191.7c-5,0-9-4-9-8.7v-32.2c0-1.9,1.3-3.2,3-3.2h12.1c1.6,0,2.9,1.3,2.8,2.8v32.2
		C142.4,187.7,138.4,191.7,133.4,191.7L133.4,191.7z M133.4,191.7"/>
	<g class="st3">
		<rect x="170" y="133" class="st4" width="8.2" height="14.7"/>
		<path class="st5" d="M148.8,117.5c0-1-0.1-1.9-0.2-2.7c-2.3-17.4-28.3-17.4-30.6,0c-0.1,0.9-0.2,1.8-0.2,2.7c0,0-1,16.7,15.5,15.5
			C149.8,134.2,148.8,117.5,148.8,117.5L148.8,117.5z M148.8,117.5"/>
	</g>
	<path class="st6" d="M142.3,119.9c-0.9,0-1.6-0.7-1.6-1.6c0-4.5-3.7-8.2-8.2-8.2c-0.9,0-1.6-0.7-1.6-1.6c0-0.9,0.7-1.6,1.6-1.6
		c6.3,0,11.4,5.1,11.4,11.4C143.9,119.2,143.2,119.9,142.3,119.9L142.3,119.9z M142.3,119.9"/>
	<rect x="125.3" y="164.5" class="st7" width="17.9" height="8.2"/>
	<rect x="129.2" y="133" class="st8" width="8.2" height="14.7"/>
	<path class="st9" d="M174.1,191.7c-5,0-9-4-8.9-9v-32.2c0-1.6,1.3-2.9,2.9-2.9h12.1c1.6,0,2.9,1.3,3,2.9v32.2
		C183,187.7,179,191.7,174.1,191.7L174.1,191.7z M174.1,191.7"/>
	<path class="st10" d="M174.9,103.6c1.8,0,3.3,1.5,3.3,3.3l0,6.5c0,1.8,1.4,3.3,3.3,3.3c1.8,0,3.2-1.4,3.3-3.2
		c0.2-11.3,1.6-9.8,1.6-9.8s5.3,8.5,4.9,18c0,0,0.5,12.1-14.7,11.4h-3.3c-15.2,0.7-14.7-11.4-14.7-11.4c-0.4-9.5,4.9-18,4.9-18
		s1.4-1.5,1.6,9.8c0,1.8,1.5,3.2,3.3,3.2c1.8,0,3.3-1.5,3.3-3.3l0-6.5C171.7,105,173.1,103.6,174.9,103.6L174.9,103.6z M174.9,103.6
		"/>
	<rect x="162.1" y="138.5" class="st11" width="18" height="8.2"/>
</g>
<g class="st1">
	<g class="st3">
		<g>
			<path class="st12" d="M208.3,145.2c-3.3-5.4-9.5-11.1-20.5-11.1h-9.3c0,0-0.2-22-29.7-22c0,0-21.6,1.3-35.3,12.1
				c-6.8,5.3-1.4,11.7-4.5,18.6c-1.5,3.4-3.1,7.5-4,11.6c-0.9,4.2,3.7,7.9,9.5,7.9h2.8c0-8.2,6.6-14.9,14.9-14.9
				c8.2,0,14.9,6.7,14.9,14.9h22.3c0-8.2,6.7-14.9,14.9-14.9c8.2,0,14.9,6.6,14.9,14.9h7.3c3.1,0,5.7-1.8,5.7-4.1
				C211.9,153.7,210.8,149.3,208.3,145.2L208.3,145.2z M208.3,145.2"/>
		</g>
	</g>
	<path class="st13" d="M148.8,120.7c0,0-17.7-1.4-26,11.9h46.5C169.2,132.6,167.5,120.3,148.8,120.7L148.8,120.7z M148.8,120.7"/>
	<path class="st13" d="M146.9,162.3c0,8.2-6.6,14.9-14.9,14.9c-8.2,0-14.9-6.7-14.9-14.9c0-8.2,6.6-14.9,14.9-14.9
		C140.3,147.4,146.9,154.1,146.9,162.3L146.9,162.3z M146.9,162.3"/>
	<path class="st14" d="M137.6,162.3c0,3.1-2.5,5.6-5.6,5.6c-3.1,0-5.6-2.5-5.6-5.6c0-3.1,2.5-5.6,5.6-5.6
		C135.1,156.7,137.6,159.2,137.6,162.3L137.6,162.3z M137.6,162.3"/>
	<path class="st13" d="M198.9,162.3c0,8.2-6.7,14.9-14.9,14.9c-8.2,0-14.9-6.7-14.9-14.9c0-8.2,6.7-14.9,14.9-14.9
		C192.3,147.4,198.9,154.1,198.9,162.3L198.9,162.3z M198.9,162.3"/>
	<path class="st14" d="M189.6,162.3c0,3.1-2.5,5.6-5.6,5.6c-3.1,0-5.6-2.5-5.6-5.6c0-3.1,2.5-5.6,5.6-5.6
		C187.1,156.7,189.6,159.2,189.6,162.3L189.6,162.3z M189.6,162.3"/>
	<path class="st6" d="M152.4,148c-1,0-1.9-0.8-1.9-1.9v-4.3h-7.4c-1,0-1.9-0.8-1.9-1.9c0-1,0.8-1.9,1.9-1.9h9.2c1,0,1.9,0.8,1.9,1.9
		v6.2C154.3,147.2,153.5,148,152.4,148L152.4,148z M152.4,148"/>
	<path class="st15" d="M210.9,151.1c-0.6-2-1.5-4-2.6-5.9c-1.4-2.2-3.2-4.4-5.6-6.3c-1.6,1.3-2.5,3-2.5,4.9c0,4.1,4.6,7.4,10.2,7.4
		C210.5,151.1,210.7,151.1,210.9,151.1L210.9,151.1z M210.9,151.1"/>
	<path class="st7" d="M150.6,132.6h3.7V121c-1.1-0.2-2.4-0.3-3.7-0.3V132.6z M150.6,132.6"/>
</g>
<g class="st1">
	<path class="st2" d="M193.9,181.8h-34.3c-1.6,0-2.9-1.3-2.9-2.9v-34.3c0-1.6,1.3-2.9,2.9-2.9h34.3c1.6,0,2.9,1.3,2.9,2.9v34.3
		C196.8,180.5,195.5,181.8,193.9,181.8L193.9,181.8z M193.9,181.8"/>
	<path class="st9" d="M173.9,141.8h-34.3c-1.6,0-2.9-1.3-2.9-2.9v-34.3c0-1.6,1.3-2.9,2.9-2.9h34.3c1.6,0,2.9,1.3,2.9,2.9v34.3
		C176.8,140.5,175.5,141.8,173.9,141.8L173.9,141.8z M173.9,141.8"/>
	<path class="st16" d="M153.9,181.8h-34.3c-1.6,0-2.9-1.3-2.9-2.9v-34.3c0-1.6,1.3-2.9,2.9-2.9h34.3c1.6,0,2.9,1.3,2.9,2.9v34.3
		C156.8,180.5,155.5,181.8,153.9,181.8L153.9,181.8z M153.9,181.8"/>
	<path class="st6" d="M168,130.7l-7-17.5c-0.7-1.7-2.4-2.9-4.2-2.9c-1.9,0-3.5,1.1-4.2,2.9l-7,17.5c-0.6,1.5,0.1,3.1,1.6,3.7
		c1.5,0.6,3.1-0.1,3.7-1.6l1-2.5h9.8l1,2.5c0.4,1.1,1.5,1.8,2.7,1.8c0.4,0,0.7-0.1,1.1-0.2C167.9,133.9,168.6,132.2,168,130.7
		L168,130.7z M154.2,124.7l2.6-6.6l2.6,6.6H154.2z M154.2,124.7"/>
	<path class="st6" d="M144.7,159.1c0.4-0.9,0.7-2,0.7-3.1c0-3.9-3.2-7.1-7.1-7.1h-4.3c-3.2,0-5.7,2.6-5.7,5.7v17.1
		c0,1.6,1.3,2.9,2.9,2.9h8.6c4.7,0,8.6-3.8,8.6-8.6C148.2,163.2,146.8,160.7,144.7,159.1L144.7,159.1z M133.9,154.7h4.3
		c0.8,0,1.4,0.6,1.4,1.4c0,0.8-0.6,1.4-1.4,1.4h-4.3V154.7z M139.7,168.9h-5.7v-5.7h5.7c1.6,0,2.9,1.3,2.9,2.9
		C142.5,167.7,141.2,168.9,139.7,168.9L139.7,168.9z M139.7,168.9"/>
	<path class="st6" d="M178.2,174.7c-0.9,0-1.7-0.1-2.6-0.3c-5-1-9-5-10-10c-0.7-3.8,0.2-7.8,2.7-10.7c2.5-3,6.1-4.7,9.9-4.7
		c2.3,0,4.5,0.6,6.5,1.8c1.3,0.7,2.1,2.2,2.1,3.7v1.7c0,1.6-1.3,2.9-2.9,2.9c-1.6,0-2.9-1.3-2.9-2.9v-0.8c-0.9-0.4-1.9-0.6-2.9-0.6
		c-2.1,0-4.2,0.9-5.5,2.6c-1.4,1.7-1.9,3.8-1.5,6c0.5,2.8,2.8,5,5.5,5.5c2,0.4,4,0,5.6-1.1c1.3-0.9,3.1-0.6,4,0.7
		c0.9,1.3,0.6,3.1-0.7,4C183.4,173.9,180.9,174.7,178.2,174.7L178.2,174.7z M178.2,174.7"/>
	<path class="st17" d="M148.4,130.7"/>
	<path class="st18" d="M139.7,156.1"/>
	<path class="st19" d="M130.3,165c-1.2,0-2.4-0.1-3.6-0.4c-6.9-1.4-12.4-6.9-13.8-13.8c-1-5.3,0.3-10.7,3.7-14.8
		c3.4-4.1,8.3-6.4,13.6-6.4c3.1,0,6.2,0.8,8.9,2.4c1.8,1,2.8,3,2.8,5v2.3c0,2.2-1.8,3.9-3.9,3.9c-2.2,0-3.9-1.8-3.9-3.9v-1.1
		c-1.2-0.5-2.6-0.8-3.9-0.8c-2.9,0-5.7,1.3-7.6,3.6c-1.9,2.3-2.6,5.2-2,8.3c0.7,3.8,3.8,6.9,7.6,7.6c2.7,0.5,5.4,0,7.7-1.6
		c1.8-1.2,4.2-0.8,5.5,1c1.2,1.8,0.8,4.2-1,5.5C137.4,163.9,133.9,165,130.3,165L130.3,165z M130.3,165"/>
	<path class="st17" d="M178.2,154.7"/>
</g>
<g>
	<g>
		<path class="st20" d="M203.2,166.7c-1.2-4.6-1.5-9.3-0.6-14c0.4-2,0.6-4,0.6-6.2c0-2.2-0.2-4.2-0.6-6.2c-0.9-4.6-0.6-9.4,0.6-14
			l1.8-6.7c0.6-2.3-1.5-4.4-3.8-3.8l-6,1.6c-5.5,1.5-11.3,1.4-16.8-0.1c-5.8-1.6-12.6-2.4-20.3-2.4c-7.7,0-14.5,0.8-20.3,2.4
			c-5.5,1.5-11.3,1.5-16.8,0.1l-6-1.6c-2.3-0.6-4.4,1.5-3.8,3.8l1.8,6.7c1.2,4.6,1.5,9.3,0.6,14c-0.4,2-0.6,4-0.6,6.2
			c0,2.2,0.2,4.2,0.6,6.2c0.9,4.6,0.6,9.4-0.6,14l-1.8,6.7c-0.6,2.3,1.5,4.4,3.8,3.8l6-1.6c5.5-1.5,11.3-1.4,16.8,0.1
			c5.8,1.6,12.6,2.4,20.3,2.4c7.7,0,14.5-0.8,20.3-2.4c5.5-1.5,11.3-1.5,16.8-0.1l6,1.6c2.3,0.6,4.4-1.5,3.8-3.8L203.2,166.7z
			 M203.2,166.7"/>
	</g>
	<path class="st21" d="M164.2,131.8h-12.3c-7.9,0-14.4,6.4-14.4,14.4v10.7h41v-10.7C178.6,138.2,172.2,131.8,164.2,131.8
		L164.2,131.8z M164.2,131.8"/>
	<path class="st22" d="M176.3,155.5c-0.1,0-0.2,0-0.3,0v-6.2c0-3.2-2.6-5.7-5.7-5.7H146c-3.2,0-5.7,2.6-5.7,5.7v6.2
		c-0.2,0-0.4,0-0.6,0c-2.9,0.2-5.2,1.9-4.9,5.3c0.2,3.4,2.8,7.2,5.6,7.2c0.9,8.7,8.3,15.5,17.2,15.5h1c9,0,16.3-6.8,17.2-15.5
		c2.7-0.2,5.1-3.9,5.3-7.2C181.5,157.3,179.2,155.7,176.3,155.5L176.3,155.5z M176.3,155.5"/>
	<path class="st23" d="M158,172.1c-1.9,0-3.8-0.7-5.1-1.9c-0.6-0.5-0.7-1.4-0.1-2c0.5-0.6,1.4-0.7,2-0.1c0.9,0.7,2,1.2,3.3,1.2
		s2.4-0.4,3.3-1.2c0.6-0.5,1.5-0.5,2,0.1c0.5,0.6,0.4,1.5-0.1,2C161.8,171.4,159.9,172.1,158,172.1L158,172.1z M158,172.1"/>
	<path class="st24" d="M166.2,162.8c-2,0-3.7-1.3-4.2-3.1c-0.2-0.7,0.2-1.5,0.9-1.8c0.7-0.2,1.5,0.2,1.8,0.9
		c0.2,0.7,0.8,1.1,1.5,1.1c0.7,0,1.3-0.5,1.5-1.1c0.2-0.7,1-1.2,1.8-0.9c0.7,0.2,1.2,1,0.9,1.8C169.8,161.5,168.1,162.8,166.2,162.8
		L166.2,162.8z M166.2,162.8"/>
	<path class="st24" d="M150.1,162.8c-2,0-3.7-1.3-4.2-3.1c-0.2-0.7,0.2-1.5,0.9-1.8c0.7-0.2,1.5,0.2,1.8,0.9
		c0.2,0.7,0.8,1.1,1.5,1.1c0.7,0,1.3-0.5,1.5-1.1c0.2-0.7,1-1.2,1.8-0.9c0.7,0.2,1.2,1,0.9,1.8C153.7,161.5,152,162.8,150.1,162.8
		L150.1,162.8z M150.1,162.8"/>
	<path class="st25" d="M188.9,126.9h-5.4c-0.9,0-1.6-0.5-1.6-1.3s0.7-1.3,1.6-1.3h8.2c0.8,0,1.4,0.3,1.4,1.4c0,0.4-0.2,0.8-0.4,1.1
		l-7.2,8.5h6.1c0.9,0,1.6,0.5,1.6,1.3c0,0.9-0.7,1.3-1.6,1.3h-8.5c-1.1,0-1.8-0.4-1.8-1.5c0-0.5,0.2-0.9,0.5-1.2L188.9,126.9z
		 M188.9,126.9"/>
	<path class="st25" d="M192.4,106.3h-3.8c-0.5,0-1.1-0.3-1.1-1c0-0.7,0.6-1,1.1-1h6.2c0.7,0,1.1,0.5,1.1,1.1c0,0.3-0.2,0.6-0.4,0.9
		l-4.8,5.3h4.3c0.5,0,1.1,0.3,1.1,1c0,0.7-0.6,1-1.1,1h-6.6c-0.8,0-1.2-0.5-1.2-1c0-0.4,0.1-0.7,0.3-0.9L192.4,106.3z M192.4,106.3"
		/>
	<path class="st25" d="M180.9,100h-2.8c-0.4,0-0.8-0.2-0.8-0.8s0.4-0.8,0.8-0.8h4.6c0.5,0,0.8,0.3,0.8,0.9c0,0.2-0.1,0.5-0.3,0.7
		l-3.6,3.9h3.2c0.4,0,0.8,0.2,0.8,0.8c0,0.6-0.4,0.8-0.8,0.8h-5c-0.6,0-0.9-0.4-0.9-0.8c0-0.3,0.1-0.5,0.3-0.7L180.9,100z
		 M180.9,100"/>
</g>
<g class="st1">
	<path class="st26" d="M178.5,162.5l0,0.1c-0.2,0.6-0.7,1-1.3,1h-2.6l-45.4,0c-0.6,0-1.1-0.4-1.3-1c-1.5-5.8-1-8.7-0.4-10.8
		c0.7-2.3,2.1-4.2,3.5-6.1c0.7-1,1.4-1.9,2-3c1.6-3.3,2.1-7.1,1.3-10.3h38c-0.8,3.3-0.3,7,1.3,10.3c0.6,1,1.3,2,2,3
		c1.4,1.8,2.8,3.7,3.5,6.1C180.4,155.5,179.4,159,178.5,162.5L178.5,162.5z M178.5,162.5"/>
	<path class="st27" d="M178.5,162.5l0,0.1c-0.2,0.6-0.7,1-1.3,1h-2.6l0.5-2c0.8-3.1,1.6-6,0.7-8.7c-0.6-1.8-1.7-3.4-3-5
		c-0.8-1-1.7-2.3-2.4-3.5c-1.9-3.8-2.5-8-1.7-11.9h3.6c-0.8,3.3-0.3,7,1.3,10.3c0.6,1,1.3,2,2,3c1.4,1.8,2.8,3.7,3.5,6.1
		C180.4,155.5,179.4,159,178.5,162.5L178.5,162.5z M178.5,162.5"/>
	<path class="st28" d="M185.6,187h-65.3c-2.3,0-4.1-2-3.9-4.3l0.8-8.9c0.5-5.6,4.5-10.2,10-11.4l10.4-2.4l7.2-1.6l5.4,0l1.6,0l9.7,0
		l5.9,1.3l9.2,2.1l2.2,0.5c5.4,1.2,9.5,5.8,10,11.4l0.8,8.9C189.7,185,187.9,187,185.6,187L185.6,187z M185.6,187"/>
	<path class="st29" d="M189.5,182.7c0.2,2.3-1.6,4.3-3.9,4.3h-4.2c2.3,0,4.1-2,3.9-4.3l-0.8-8.9c-0.4-4.8-3.5-9.8-7.9-11.9l2.2,0.5
		c5.4,1.2,9.5,5.8,10,11.4L189.5,182.7z M189.5,182.7"/>
	<path class="st29" d="M131.3,173v14h-2.6v-14c0-0.7,0.6-1.3,1.3-1.3C130.8,171.7,131.3,172.3,131.3,173L131.3,173z M131.3,173"/>
	<path class="st29" d="M177.3,173v14h-2.6v-14c0-0.7,0.6-1.3,1.3-1.3C176.7,171.7,177.3,172.3,177.3,173L177.3,173z M177.3,173"/>
	<path class="st30" d="M144.8,158.4l-7.2,1.6l3.3,3c0.5,0.5,1.1,0.9,1.7,1.4c1,0.8,2,1.4,3.1,2l6.1-7.9L144.8,158.4z M144.8,158.4"
		/>
	<path class="st31" d="M167.4,159.8l-2.5,2.3c-0.5,0.4-1,0.9-1.6,1.3c-2.8,2.3-6.3,3.5-9.9,3.5h0c-0.6,0-1.2,0-1.8-0.1l-5.6,6.9V187
		h-5.1v-14.8c0-0.2,0.1-0.3,0.2-0.5l10.8-13.3l9.7,0L167.4,159.8z M167.4,159.8"/>
	<path class="st32" d="M161.5,158.4l0,0.1c-0.5,0.4-1,0.8-1.5,1.3c-1.9,1.6-4.3,2.4-6.8,2.4c-2.5,0-4.9-0.9-6.8-2.4
		c-0.6-0.4-1.1-0.9-1.6-1.3c0.4-1.4,0.6-2.7,0.6-4.1c0-0.2,0-0.5,0-0.7c0-0.9-0.1-1.9-0.2-2.8l-0.4-2.8h16.8l-0.4,2.9
		c-0.2,1.2-0.2,2.4-0.2,3.6C161,155.7,161.2,157.1,161.5,158.4L161.5,158.4z M161.5,158.4"/>
	<path class="st33" d="M161.1,150.8c-0.2,1.2-0.2,2.4-0.2,3.6c-0.4,0.3-0.8,0.7-1.2,1c-1.8,1.5-4.1,2.3-6.5,2.3h0
		c-2.4,0-4.7-0.8-6.5-2.3c-0.4-0.4-0.9-0.7-1.3-1.1c0-0.2,0-0.5,0-0.7c0-0.9-0.1-1.9-0.2-2.8l-0.4-2.8h16.8L161.1,150.8z
		 M161.1,150.8"/>
	<path class="st29" d="M170,171.7h-6.6c-0.7,0-1.3,0.6-1.3,1.3c0,0.7,0.6,1.3,1.3,1.3h6.6c0.7,0,1.3-0.6,1.3-1.3
		C171.3,172.3,170.7,171.7,170,171.7L170,171.7z M170,171.7"/>
	<path class="st33" d="M134.4,129.1c-0.9,1-1.5,2.2-1.4,3.6c0,2.7,2.3,4.9,5,4.9h0.6v-10H138C136.6,127.6,135.4,128.2,134.4,129.1
		L134.4,129.1z M134.4,129.1"/>
	<path class="st33" d="M171.9,129.1c-0.9-1-2.2-1.5-3.6-1.5h-0.6v10h0.6c2.7,0,5-2.2,5-4.9C173.4,131.3,172.8,130.1,171.9,129.1
		L171.9,129.1z M171.9,129.1"/>
	<path class="st32" d="M168.7,136.6c0,0.4,0,0.8,0,1.2c0,3.9-3,8.2-9.1,13.1c-1.8,1.5-4.1,2.3-6.5,2.3h0c-2.4,0-4.7-0.8-6.5-2.3
		c-6.1-4.9-9.1-9.2-9.1-13.1c0-0.4,0-0.8,0-1.2c0.3-2.6,0.2-7.2-0.2-10.9l15.6-7l16,7C168.6,129.4,168.5,134.1,168.7,136.6
		L168.7,136.6z M168.7,136.6"/>
	<path class="st28" d="M168.8,137.8c0,3.9-3,8.2-9.1,13.1c-1.8,1.5-4.1,2.3-6.5,2.3h0c-0.8,0-1.6-0.1-2.4-0.3c-1.5-0.4-2.9-1-4.1-2
		c-6.1-4.9-9.1-9.2-9.1-13.1H168.8z M168.8,137.8"/>
	<g class="st3">
		<defs>
			<rect id="SVGID_1_" x="116.2" y="97" width="73.6" height="90"/>
		</defs>
		<clipPath id="SVGID_2_">
			<use xlink:href="#SVGID_1_"  style="overflow:visible;"/>
		</clipPath>
		<path class="st34" d="M168.8,137.8c0,3.9-3,8.2-9.1,13.1c-1.8,1.5-4.1,2.3-6.5,2.3h0c-0.8,0-1.6-0.1-2.4-0.3c1.5-0.4,2.9-1,4-2
			c6.1-5,9.1-9.2,9.1-13.1H168.8z M168.8,137.8"/>
		<path class="st35" d="M172,126.2c-0.7,0.8-1.6,1.2-2.6,1.2H137c-1,0-1.9-0.4-2.6-1.2c-0.6-0.6-0.9-1.5-1-2.3c0-0.3,0-0.6,0-0.8
			c0,0,0,0,0-0.1l3.2-19.6c0.1-0.5,0.4-0.9,0.9-1l15.4-5.3c0.3-0.1,0.6-0.1,0.9,0l11.8,4.1l3.3,1.2c0.5,0.2,0.8,0.6,0.9,1l3.2,19.6
			c0,0,0,0,0,0.1C173.1,124.2,172.7,125.4,172,126.2L172,126.2z M172,126.2"/>
	</g>
	<path class="st29" d="M172,126.2c-0.7,0.8-1.6,1.2-2.6,1.2H137c-1,0-1.9-0.4-2.6-1.2c-0.6-0.6-0.9-1.5-1-2.3h31.6
		c1,0,1.9-0.4,2.6-1.2c0.8-0.8,1.1-2,1-3.2c0,0,0,0,0-0.1l-3-18.3l3.3,1.2c0.5,0.2,0.8,0.6,0.9,1l3.2,19.6c0,0,0,0,0,0.1
		C173.1,124.2,172.7,125.4,172,126.2L172,126.2z M172,126.2"/>
	<path class="st30" d="M158.1,111.3h-3.5v-3.5c0-0.7-0.6-1.3-1.3-1.3c-0.7,0-1.3,0.6-1.3,1.3v3.5h-3.5c-0.7,0-1.3,0.6-1.3,1.3
		c0,0.7,0.6,1.3,1.3,1.3h3.5v3.5c0,0.7,0.6,1.3,1.3,1.3c0.7,0,1.3-0.6,1.3-1.3v-3.5h3.5c0.7,0,1.3-0.6,1.3-1.3
		C159.4,111.9,158.9,111.3,158.1,111.3L158.1,111.3z M158.1,111.3"/>
</g>
<g class="st1">
	<path class="st36" d="M187.6,128.4c-0.1-0.7-0.4-1.3-0.9-1.8c-0.6-0.5-14-11.8-29.7-11.8s-29.1,11.3-29.7,11.8
		c-0.6,0.5-0.9,1.3-0.9,2c0,0.5,0,2.6,0,3v48.1c0,1.5,1.2,2.6,2.6,2.6h56c1.5,0,2.6-1.2,2.6-2.6c0,0,0,0,0,0s0,0,0,0v-48.1
		C187.6,131.6,187.7,129.1,187.6,128.4L187.6,128.4z M168.4,165.1h-8.7v-23.8h8.7V165.1z M173.6,141.3h8.7v23.8h-8.7V141.3z
		 M145.6,141.3h8.7v23.8h-8.7V141.3z M140.4,165.1h-8.7v-23.8h8.7V165.1z M159.6,136v-15.9c3.1,0.3,6,1,8.7,2V136H159.6z M154.4,136
		h-8.7v-13.9c2.7-1,5.7-1.7,8.7-2V136z M140.4,136h-8.7v-6c0-0.1,0-0.1,0-0.2c1.5-1.1,4.6-3.4,8.7-5.4V136z M131.6,170.4h8.7v6.7
		h-8.7V170.4z M145.6,170.4h8.7v6.7h-8.7V170.4z M159.6,170.4h8.7v6.7h-8.7V170.4z M173.6,170.4h8.7v6.7h-8.7V170.4z M173.6,136
		v-11.6c4.1,2.1,7.3,4.3,8.7,5.4v6.2H173.6z M173.6,136"/>
	<path class="st37" d="M186.7,126.6c-0.6-0.5-14-11.8-29.7-11.8v67.5h28c1.5,0,2.6-1.2,2.6-2.6v0c0,0,0,0,0,0v-48.1c0,0,0-2.5,0-3.2
		C187.6,127.7,187.2,127.1,186.7,126.6L186.7,126.6z M168.4,177.1h-8.7v-6.7h8.7V177.1z M168.4,165.1h-8.7v-23.8h8.7V165.1z
		 M168.4,136h-8.7v-15.9c3.1,0.3,6,1,8.7,2V136z M182.4,177.1h-8.7v-6.7h8.7V177.1z M182.4,165.1h-8.7v-23.8h8.7V165.1z M182.4,136
		h-8.7v-11.6c4.1,2.1,7.3,4.3,8.7,5.4V136z M182.4,136"/>
	<path class="st38" d="M123.8,182.3h-9c-1.5,0-2.6-1.2-2.6-2.6v-57.8c0-3.9,3.2-7.1,7.1-7.1h0c3.9,0,7.1,3.2,7.1,7.1v57.8
		C126.4,181.1,125.2,182.3,123.8,182.3L123.8,182.3z M123.8,182.3"/>
	<path class="st39" d="M119.3,114.8L119.3,114.8l0,67.5h4.5c1.5,0,2.6-1.2,2.6-2.6v-57.8C126.4,118,123.2,114.8,119.3,114.8
		L119.3,114.8z M119.3,114.8"/>
	<path class="st40" d="M115.9,115.7c-2.2-1.2-3.7-3.6-3.7-6.3c0-3.9,3.2-7.1,7.1-7.1c3.9,0,7.1,3.2,7.1,7.1c0,2.7-1.5,5-3.7,6.2
		L115.9,115.7z M115.9,115.7"/>
	<path class="st41" d="M119.3,102.3v13.4l3.4,0c2.2-1.2,3.7-3.6,3.7-6.2C126.4,105.5,123.2,102.3,119.3,102.3L119.3,102.3z
		 M119.3,102.3"/>
	<path class="st42" d="M199.2,182.3h-9c-1.5,0-2.6-1.2-2.6-2.6v-57.8c0-3.9,3.2-7.1,7.1-7.1h0c3.9,0,7.1,3.2,7.1,7.1v57.8
		C201.9,181.1,200.7,182.3,199.2,182.3L199.2,182.3z M199.2,182.3"/>
	<path class="st43" d="M194.7,114.8L194.7,114.8l0,67.5h4.5c1.5,0,2.6-1.2,2.6-2.6v-57.8C201.9,118,198.7,114.8,194.7,114.8
		L194.7,114.8z M194.7,114.8"/>
	<path class="st41" d="M191.3,115.7c-2.2-1.2-3.7-3.6-3.7-6.3c0-3.9,3.2-7.1,7.1-7.1s7.1,3.2,7.1,7.1c0,2.7-1.5,5-3.7,6.2
		L191.3,115.7z M191.3,115.7"/>
	<path class="st38" d="M194.7,102.3v13.4l3.4,0c2.2-1.2,3.7-3.6,3.7-6.2C201.9,105.5,198.7,102.3,194.7,102.3L194.7,102.3z
		 M194.7,102.3"/>
</g>
<g class="st1">
	<rect x="123.5" y="104.5" class="st44" width="59.4" height="75"/>
	<g class="st3">
		<rect x="132.1" y="112.6" class="st45" width="42.2" height="3.1"/>
		<rect x="132.1" y="123.4" class="st45" width="42.2" height="3.1"/>
		<rect x="132.1" y="134.3" class="st45" width="42.2" height="3.1"/>
		<rect x="132.1" y="145.1" class="st45" width="42.2" height="3.1"/>
		<rect x="132.1" y="155.9" class="st45" width="17.5" height="3.1"/>
	</g>
	<g class="st3">
		<path class="st46" d="M141.9,169c-1.4,0-3.8-0.9-5-2.2c-0.6-0.6-1.3-0.9-1.6-0.9c-0.5,0.2-0.8,1.3-0.9,1.9c0,0.6-0.3,0.8-0.8,0.8
			c-0.3,0-0.6-0.3-0.6-0.8c0-0.3,0.3-2.5,1.7-3c0.9-0.3,1.9,0.2,3,1.3c0.8,0.8,2.2,1.4,3.1,1.6c-0.5-0.5-0.6-0.8-0.6-1.3
			c0-0.3,0.3-0.8,1.3-1.1c1.4-0.5,4.2-0.5,5.2,0.6c1.1,1.1,1.7,1.3,2,1.3c0.2,0,0.3,0,0.6-0.5c0.2-0.3,0.6-0.3,0.9-0.2
			c0.3,0.2,0.3,0.6,0.2,0.9c-0.5,0.8-1.1,0.9-1.6,0.9c-0.9,0.2-1.9-0.5-3.1-1.7c-0.3-0.3-1.3-0.5-2.5-0.5c-0.8,0-1.4,0.2-1.6,0.3
			c0,0,0.2,0.2,0.3,0.3c0.6,0.5,1.1,0.9,1.1,1.6c0,0.2-0.2,0.5-0.6,0.8C142.3,169,142.1,169,141.9,169z"/>
		<rect x="131.5" y="170.4" class="st46" width="20.8" height="1.2"/>
	</g>
	<polygon class="st47" points="183.8,144.5 197.6,175.1 191.3,174.5 187.7,179.5 174,149 	"/>
	<polygon class="st48" points="181.6,144.5 167.9,175.1 174.1,174.5 177.7,179.5 191.5,149 	"/>
	<path class="st49" d="M198.5,147.3c0,1.6-2.5,2.8-3,4.2c-0.5,1.4,0.9,3.9,0,5.2c-0.9,1.3-3.6,0.6-4.8,1.6c-1.2,0.9-1.6,3.6-3,4.2
		c-1.4,0.5-3.3-1.6-4.8-1.6c-1.6,0-3.4,2-4.8,1.6c-1.4-0.5-1.7-3.3-3-4.2c-1.2-0.9-3.9-0.3-4.8-1.6c-0.9-1.3,0.5-3.6,0-5.2
		c-0.5-1.4-3-2.7-3-4.2s2.5-2.8,3-4.2c0.5-1.4-0.9-3.9,0-5.2c0.9-1.3,3.6-0.6,4.8-1.6c1.3-0.9,1.6-3.6,3-4.2
		c1.4-0.5,3.3,1.6,4.8,1.6c1.6,0,3.4-2,4.8-1.6c1.4,0.5,1.7,3.3,3,4.2s3.9,0.3,4.8,1.6c0.9,1.3-0.5,3.6,0,5.2
		C196,144.7,198.5,145.8,198.5,147.3z"/>
	<circle class="st50" cx="182.7" cy="147.3" r="8.6"/>
</g>
<g class="st1">
	<path class="st51" d="M150.9,136.5c0,9.7-7.9,17.6-17.6,17.6s-17.6-7.9-17.6-17.6s7.9-17.6,17.6-17.6S150.9,126.8,150.9,136.5
		L150.9,136.5z M150.9,136.5"/>
	<path class="st52" d="M194.3,146c0,15-12.1,27.1-27.1,27.1c-15,0-27.1-12.1-27.1-27.1c0-15,12.1-27.1,27.1-27.1
		C182.2,118.9,194.3,131.1,194.3,146L194.3,146z M194.3,146"/>
	<path class="st51" d="M130.6,169.1c-2.2,0-4.1-1.8-4.1-4.1c0-0.7-0.6-1.4-1.4-1.4c-0.7,0-1.4,0.6-1.4,1.4c0,2.2-1.8,4.1-4.1,4.1
		c-0.7,0-1.4,0.6-1.4,1.4s0.6,1.4,1.4,1.4c2.2,0,4.1,1.8,4.1,4.1c0,0.7,0.6,1.4,1.4,1.4c0.7,0,1.4-0.6,1.4-1.4
		c0-2.2,1.8-4.1,4.1-4.1c0.7,0,1.4-0.6,1.4-1.4S131.3,169.1,130.6,169.1L130.6,169.1z M125.2,171.8c-0.4-0.5-0.9-1-1.4-1.4
		c0.5-0.4,1-0.9,1.4-1.4c0.4,0.5,0.9,1,1.4,1.4C126,170.8,125.6,171.3,125.2,171.8L125.2,171.8z M125.2,171.8"/>
	<path class="st51" d="M187.5,109.4c-2.2,0-4.1-1.8-4.1-4.1c0-0.7-0.6-1.4-1.4-1.4c-0.7,0-1.4,0.6-1.4,1.4c0,2.2-1.8,4.1-4.1,4.1
		c-0.7,0-1.4,0.6-1.4,1.4c0,0.7,0.6,1.4,1.4,1.4c2.2,0,4.1,1.8,4.1,4.1c0,0.7,0.6,1.4,1.4,1.4c0.7,0,1.4-0.6,1.4-1.4
		c0-2.2,1.8-4.1,4.1-4.1c0.7,0,1.4-0.6,1.4-1.4C188.9,110,188.3,109.4,187.5,109.4L187.5,109.4z M182.1,112.2
		c-0.4-0.5-0.9-1-1.4-1.4c0.5-0.4,1-0.9,1.4-1.4c0.4,0.5,0.9,1,1.4,1.4C183,111.2,182.5,111.6,182.1,112.2L182.1,112.2z
		 M182.1,112.2"/>
	<path class="st53" d="M184.8,146c-2.2,0-4.1-1.8-4.1-4.1c0-0.7-0.6-1.4-1.4-1.4c-0.7,0-1.4,0.6-1.4,1.4c0,2.2-1.8,4.1-4.1,4.1
		c-0.7,0-1.4,0.6-1.4,1.4s0.6,1.4,1.4,1.4c2.2,0,4.1,1.8,4.1,4.1c0,0.7,0.6,1.4,1.4,1.4c0.7,0,1.4-0.6,1.4-1.4
		c0-2.2,1.8-4.1,4.1-4.1c0.7,0,1.4-0.6,1.4-1.4S185.6,146,184.8,146L184.8,146z M179.4,148.8c-0.4-0.5-0.9-1-1.4-1.4
		c0.5-0.4,1-0.9,1.4-1.4c0.4,0.5,0.9,1,1.4,1.4C180.3,147.8,179.8,148.3,179.4,148.8L179.4,148.8z M179.4,148.8"/>
	<path class="st53" d="M168.6,133.8c-2.2,0-4.1-1.8-4.1-4.1c0-0.7-0.6-1.4-1.4-1.4s-1.4,0.6-1.4,1.4c0,2.2-1.8,4.1-4.1,4.1
		c-0.7,0-1.4,0.6-1.4,1.4c0,0.7,0.6,1.4,1.4,1.4c2.2,0,4.1,1.8,4.1,4.1c0,0.7,0.6,1.4,1.4,1.4s1.4-0.6,1.4-1.4
		c0-2.2,1.8-4.1,4.1-4.1c0.7,0,1.4-0.6,1.4-1.4C169.9,134.4,169.3,133.8,168.6,133.8L168.6,133.8z M163.1,136.6
		c-0.4-0.5-0.9-1-1.4-1.4c0.5-0.4,1-0.9,1.4-1.4c0.4,0.5,0.9,1,1.4,1.4C164,135.6,163.5,136.1,163.1,136.6L163.1,136.6z
		 M163.1,136.6"/>
	<rect x="130.6" y="159.6" class="st54" width="2.7" height="2.7"/>
	<rect x="117" y="178.6" class="st54" width="2.7" height="2.7"/>
	<path class="st55" d="M193,174.5c0,1.5-1.2,2.7-2.7,2.7c-1.5,0-2.7-1.2-2.7-2.7c0-1.5,1.2-2.7,2.7-2.7
		C191.8,171.8,193,173,193,174.5L193,174.5z M193,174.5"/>
	<path class="st55" d="M153.6,113.5c0,2.2-1.8,4.1-4.1,4.1c-2.2,0-4.1-1.8-4.1-4.1c0-2.2,1.8-4.1,4.1-4.1
		C151.8,109.4,153.6,111.2,153.6,113.5L153.6,113.5z M153.6,113.5"/>
	<rect x="163.1" y="110.8" class="st54" width="2.7" height="2.7"/>
	<rect x="168.6" y="160.9" class="st53" width="2.7" height="2.7"/>
	<rect x="176.7" y="178.6" class="st54" width="2.7" height="2.7"/>
	<rect x="130.6" y="139.3" class="st53" width="2.7" height="2.7"/>
	<path class="st53" d="M119.7,139.4c0-0.3-0.6-7.7,3.7-12.5c2.6-2.7,6.1-4.1,9.8-3.9v2.7c-2.9-0.2-5.8,0.9-7.8,3
		c-3.6,3.9-3,10.4-3,10.4L119.7,139.4z M119.7,139.4"/>
	<path class="st53" d="M187.6,144.9c-2.5-18.9-18.3-19.2-19-19.2V123c0.2,0,18.8,0.2,21.7,21.5L187.6,144.9z M187.6,144.9"/>
	<path class="st51" d="M163.1,170.4c0,7.5-6.1,13.6-13.6,13.6c-7.5,0-13.6-6.1-13.6-13.6s6.1-13.6,13.6-13.6
		C157.1,156.9,163.1,163,163.1,170.4L163.1,170.4z M163.1,170.4"/>
</g>
<g class="st1">
	<polygon class="st56" points="166.6,136.1 160.9,149.1 154.1,146.1 148.1,159.3 145.8,158.2 143.3,157.1 149.3,144 142,140.8 
		147.7,127.8 157.4,132.1 	"/>
	<polygon class="st57" points="166.6,136.1 160.9,149.1 154.1,146.1 148.1,159.3 145.8,158.2 157.4,132.1 	"/>
	<polygon class="st56" points="207.9,131.1 203.1,141.9 198.1,153.2 186.9,143.3 190,136.1 193,129.5 	"/>
	<polygon class="st57" points="203.1,141.9 198.1,153.2 186.9,143.3 190,136.1 	"/>
	<polygon class="st58" points="198.1,124.4 192.5,137.1 186.6,150.5 154.8,136.5 149.9,134.4 140.5,130.2 146.5,116.7 152,104.1 
		161.4,108.2 166.3,110.4 	"/>
	<rect x="127" y="158.4" class="st56" width="12.2" height="5.3"/>
	<rect x="127" y="161.1" class="st57" width="12.2" height="2.6"/>
	<rect x="117.8" y="146.7" class="st59" width="14.1" height="27.4"/>
	<rect x="117.8" y="161.1" class="st60" width="14.1" height="13"/>
	<path class="st58" d="M150.9,161.2c0,4-3.2,7.2-7.2,7.2c-4,0-7.2-3.2-7.2-7.2c0-4,3.2-7.2,7.2-7.2
		C147.7,153.9,150.9,157.2,150.9,161.2z"/>
	<g class="st3">
		<path class="st61" d="M150.9,161.2c0,4-3.2,7.2-7.2,7.2v-14.5C147.7,153.9,150.9,157.2,150.9,161.2z"/>
		<polygon class="st61" points="192.5,137.1 186.6,150.5 154.8,136.5 149.9,134.4 140.5,130.2 146.5,116.7 		"/>
	</g>
	<polygon class="st59" points="166.3,110.4 160.7,123 154.8,136.5 149.9,134.4 155.9,120.9 161.4,108.2 	"/>
	
		<rect x="181.3" y="140.1" transform="matrix(0.4032 -0.9151 0.9151 0.4032 -20.5479 252.2587)" class="st62" width="3.6" height="3.6"/>
	<polygon class="st60" points="160.7,123 154.8,136.5 149.9,134.4 155.9,120.9 	"/>
</g>
<g class="st1">
	<g class="st3">
		<defs>
			<rect id="SVGID_3_" x="122.3" y="103.5" width="68.4" height="80"/>
		</defs>
		<clipPath id="SVGID_4_">
			<use xlink:href="#SVGID_3_"  style="overflow:visible;"/>
		</clipPath>
		<path class="st63" d="M187,156.9c-2.2,5.8-5.4,10.9-9.7,15.1c-4.9,4.7-11.2,8.5-18.9,11.2c-0.3,0.1-0.5,0.2-0.8,0.2
			c-0.3,0.1-0.7,0.1-1.1,0.1h-0.1c-0.4,0-0.8,0-1.1-0.1c-0.3-0.1-0.5-0.1-0.8-0.2c-7.7-2.7-14.1-6.4-18.9-11.2
			c-4.3-4.2-7.5-9.2-9.7-15.1c-3.9-10.6-3.7-22.3-3.5-31.6l0-0.1c0-0.8,0.1-1.6,0.1-2.5c0.1-4.4,3.6-8.1,8-8.3
			c9.2-0.5,16.3-3.5,22.4-9.4l0.1,0c1-0.9,2.3-1.4,3.5-1.4c1.2,0,2.4,0.5,3.4,1.4l0.1,0c6.1,5.9,13.2,8.9,22.4,9.4
			c4.4,0.2,7.9,3.9,8,8.3c0,0.9,0,1.7,0.1,2.5l0,0.1C190.7,134.6,190.9,146.3,187,156.9L187,156.9z M187,156.9"/>
		<path class="st64" d="M187,156.9c-2.2,5.8-5.4,10.9-9.7,15.1c-4.9,4.7-11.2,8.5-18.9,11.2c-0.3,0.1-0.5,0.2-0.8,0.2
			c-0.3,0.1-0.7,0.1-1.1,0.1v-80c1.2,0,2.4,0.5,3.4,1.4l0.1,0c6.1,5.9,13.2,8.9,22.4,9.4c4.4,0.2,7.9,3.9,8,8.3c0,0.9,0,1.7,0.1,2.5
			l0,0.1C190.7,134.6,190.9,146.3,187,156.9L187,156.9z M187,156.9"/>
	</g>
	<path class="st6" d="M176.4,143.5c0,11-8.9,19.9-19.9,19.9h-0.1c-11,0-19.9-8.9-19.9-19.9c0-11,8.9-19.9,19.9-19.9h0.1
		C167.5,123.6,176.4,132.5,176.4,143.5L176.4,143.5z M176.4,143.5"/>
	<path class="st65" d="M176.4,143.5c0,11-8.9,19.9-19.9,19.9v-39.9C167.5,123.6,176.4,132.5,176.4,143.5L176.4,143.5z M176.4,143.5"
		/>
	<path class="st66" d="M165.5,140.6l-9,9l-1.9,1.9c-0.5,0.5-1.1,0.7-1.7,0.7c-0.6,0-1.2-0.2-1.7-0.7l-4.2-4.2
		c-0.9-0.9-0.9-2.4,0-3.3c0.9-0.9,2.4-0.9,3.3,0l2.5,2.5l9.3-9.3c0.9-0.9,2.4-0.9,3.3,0C166.5,138.2,166.5,139.7,165.5,140.6
		L165.5,140.6z M165.5,140.6"/>
	<path class="st67" d="M165.5,140.6l-9,9V143l5.7-5.7c0.9-0.9,2.4-0.9,3.3,0C166.5,138.2,166.5,139.7,165.5,140.6L165.5,140.6z
		 M165.5,140.6"/>
</g>
<g class="st1">
	<path class="st6" d="M168.9,174l-2.6-3.3h-20.9l-4.2,3.3l-4.6,5.3h36.9L168.9,174z M168.9,174"/>
	<path class="st68" d="M157,170.7h-11.7l-4.2,3.3l-4.6,5.3h11.7l4.6-5.3L157,170.7z M157,170.7"/>
	<rect x="141.1" y="156.3" class="st69" width="27.8" height="17.7"/>
	<path class="st70" d="M168.9,156.3h-27.8V174h11.6v-0.5c0-1.8,1.5-3.3,3.3-3.3h12.9V156.3z M168.9,156.3"/>
	<path class="st71" d="M122.2,162.9h66.2l6.7-3.3v-42.8c0-3.6-2.9-6.5-6.5-6.5h-67.2c-3.6,0-6.5,2.9-6.5,6.5v42.8l2.8,2.3
		L122.2,162.9z M122.2,162.9"/>
	<path class="st72" d="M143.2,159.7v-42.8c0-3.6,2.9-6.5,6.5-6.5h-28.3c-3.6,0-6.5,2.9-6.5,6.5v42.8l2.8,2.3l4.5,1h21.9
		C143.5,162,143.2,160.9,143.2,159.7L143.2,159.7z M143.2,159.7"/>
	<path class="st6" d="M114.9,159.7h80.2c0,3.6-2.9,6.5-6.5,6.5h-67.2C117.8,166.2,114.9,163.3,114.9,159.7L114.9,159.7z
		 M114.9,159.7"/>
	<path class="st68" d="M143.2,159.7h-28.3c0,3.6,2.9,6.5,6.5,6.5h28.3C146.1,166.2,143.2,163.3,143.2,159.7L143.2,159.7z
		 M143.2,159.7"/>
	<path class="st69" d="M175.5,180.5h-41c-0.7,0-1.2-0.5-1.2-1.2c0-0.7,0.5-1.2,1.2-1.2h41c0.7,0,1.2,0.5,1.2,1.2
		C176.7,180,176.1,180.5,175.5,180.5L175.5,180.5z M175.5,180.5"/>
	<path class="st72" d="M155.1,135c-4.4,0-8.8-0.3-13.1-1l-1.3-0.2c-2.8-0.4-4.9-2.8-4.9-5.7v-17.6l8.3-4.1l22.2,0l8.1,4.2v17.6
		c0,2.8-2.1,5.3-4.9,5.7l-1.3,0.2C163.9,134.6,159.5,135,155.1,135L155.1,135z M155.1,135"/>
	<path class="st72" d="M169,110.9v27.4c0,2.5,2,4.5,4.5,4.5c2.5,0,4.5-2,4.5-4.5v-27.4c0-0.2,0-0.3,0-0.5h-8.8
		C169,110.6,169,110.7,169,110.9L169,110.9z M169,110.9"/>
	<path class="st73" d="M184.2,124c1.3,0,2.4,1.1,2.4,2.4V151c0,1.3-1.1,2.4-2.4,2.4h-58.1c-1.3,0-2.4-1.1-2.4-2.4v-24.6
		c0-1.3,1.1-2.4,2.4-2.4H184.2z M184.2,124"/>
	<path class="st74" d="M126.1,124c-1.3,0-2.4,1.1-2.4,2.4V151c0,1.3,1.1,2.4,2.4,2.4h17.1V124H126.1z M126.1,124"/>
	<path class="st70" d="M170.4,113l-5.1-2.6l-20.3,0l-5.2,2.6v15.1c0,0.8,0.6,1.5,1.4,1.7l1.3,0.2c8.3,1.2,16.8,1.2,25.1,0l1.3-0.2
		c0.8-0.1,1.4-0.8,1.4-1.7V113z M170.4,113"/>
	<path class="st70" d="M173.5,139.5c-0.7,0-1.2-0.5-1.2-1.2v-27.4c0-0.7,0.5-1.2,1.2-1.2c0.7,0,1.2,0.5,1.2,1.2v27.4
		C174.7,139,174.2,139.5,173.5,139.5L173.5,139.5z M173.5,139.5"/>
	<path class="st75" d="M173.5,136.1c-1.9,0-3.4,1.5-3.4,3.4v3c0,0.5,0.4,1,1,1h4.9c0.5,0,1-0.4,1-1v-3
		C176.9,137.6,175.4,136.1,173.5,136.1L173.5,136.1z M173.5,136.1"/>
	<path class="st76" d="M173.5,142.5v-3c0-1.3,0.7-2.4,1.7-3c-0.5-0.3-1.1-0.5-1.7-0.5c-1.9,0-3.4,1.5-3.4,3.4v3c0,0.5,0.4,1,1,1h3.4
		C173.9,143.5,173.5,143,173.5,142.5L173.5,142.5z M173.5,142.5"/>
	<path class="st77" d="M162.2,146.1h-14.4c-1,0-1.8-0.8-1.8-1.8v-4c0-1,0.8-1.8,1.8-1.8h14.4c1,0,1.8,0.8,1.8,1.8v4
		C164,145.3,163.2,146.1,162.2,146.1L162.2,146.1z M162.2,146.1"/>
	<path class="st78" d="M165.3,110.4l-20.3,0l-5.2,2.6v15.1c0,0.8,0.6,1.5,1.4,1.7l1.3,0.2c3.1,0.5,6.3,0.7,9.4,0.9v-6.4
		c0-0.5,0.5-0.8,0.9-0.6c0.7,0.3,1.4,0.5,2.2,0.5s1.5-0.2,2.2-0.5l13.2-6.4V113L165.3,110.4z M165.3,110.4"/>
	<path class="st69" d="M154.7,120.2l-20.2-9.8l20.2-9.8c0.2-0.1,0.5-0.1,0.8,0l19,9.2c0.5,0.2,0.5,0.9,0,1.1l-19,9.2
		C155.2,120.3,154.9,120.3,154.7,120.2L154.7,120.2z M154.7,120.2"/>
	<path class="st70" d="M152.6,107.6l8.5-4.1l-5.7-2.8c-0.2-0.1-0.5-0.1-0.8,0l-20.2,9.8l20.2,9.8c0.2,0.1,0.5,0.1,0.8,0l5.7-2.8
		l-8.5-4.1C150.2,112.1,150.2,108.7,152.6,107.6L152.6,107.6z M152.6,107.6"/>
</g>
<g class="st1">
	<path class="st79" d="M151.6,129c-2,0-3.7-1-4.7-2.6c-0.4-0.6-1-1-1.7-1v12.5h-12.5c0.1-0.7,0.5-1.3,1-1.6c1.6-1,2.6-2.8,2.6-4.7
		c0-3.2-2.7-5.8-6-5.6c-2.8,0.2-5.1,2.5-5.3,5.3c-0.1,2.1,0.9,4,2.6,5.1c0.6,0.4,0.9,1,1,1.6h-12.6v-21.5c0-4.2,3.4-7.7,7.7-7.7
		h21.5v12.7c0.7-0.1,1.3-0.4,1.7-1c1.1-1.7,2.9-2.7,5.1-2.6c2.8,0.2,5.1,2.5,5.3,5.3C157.4,126.3,154.8,129,151.6,129z"/>
	<path class="st80" d="M174.3,137.9h-12.6c0.1,0.7,0.4,1.4,1,1.8c1.7,1.1,2.7,2.9,2.6,5.1c-0.2,2.8-2.5,5.1-5.3,5.3
		c-3.3,0.2-6-2.4-6-5.6c0-2,1-3.7,2.6-4.7c0.6-0.4,1-1.1,1-1.8h-12.6v-12.5c0.7,0.1,1.3,0.4,1.7,1c1,1.6,2.8,2.6,4.7,2.6
		c3.2,0,5.8-2.7,5.6-6c-0.2-2.8-2.5-5.1-5.3-5.3c-2.1-0.1-4,0.9-5.1,2.6c-0.4,0.6-1,1-1.7,1v-12.7h21.5c4.2,0,7.7,3.4,7.7,7.7
		L174.3,137.9L174.3,137.9z"/>
	<g class="st3">
		<path class="st81" d="M166.6,108.7h-3.5c4.2,0,7.7,3.4,7.7,7.7v21.5h3.5v-21.5C174.3,112.1,170.9,108.7,166.6,108.7z"/>
		<path class="st81" d="M162.7,139.7c-0.6-0.4-1-1.1-1-1.8h-3.5c0.1,0.7,0.4,1.4,1,1.8c1.7,1.1,2.7,2.9,2.6,5.1
			c-0.1,2.3-1.7,4.3-3.9,5c0.7,0.2,1.4,0.3,2.1,0.3c2.8-0.2,5.1-2.5,5.3-5.3C165.4,142.6,164.4,140.7,162.7,139.7z"/>
	</g>
	<path class="st82" d="M193.4,154.5V176c0,4.2-3.4,7.7-7.7,7.7h-21.5v-12.6c-0.7,0.1-1.3,0.4-1.7,1c-1.1,1.7-2.9,2.7-5.1,2.6
		c-2.8-0.2-5.1-2.5-5.3-5.3c-0.2-3.3,2.4-6,5.6-6c2,0,3.7,1,4.7,2.6c0.4,0.6,1,1,1.7,1v-12.6h12.6c-0.1,0.7-0.4,1.4-1,1.8
		c-1.6,1-2.6,2.8-2.6,4.7c0,3.2,2.7,5.8,6,5.6c2.8-0.2,5.1-2.5,5.3-5.3c0.1-2.1-0.9-4-2.6-5.1c-0.6-0.4-1-1.1-1-1.8L193.4,154.5
		L193.4,154.5z"/>
	<g class="st3">
		<path class="st83" d="M172.1,156.2c-1.6,1-2.6,2.8-2.6,4.7c0,3.2,2.7,5.8,6,5.6c0.5,0,0.9-0.1,1.4-0.3c-2.3-0.7-3.9-2.9-3.9-5.4
			c0-2,1-3.7,2.6-4.7c0.6-0.4,1-1.1,1-1.8h-3.5C173.1,155.2,172.8,155.8,172.1,156.2z"/>
		<path class="st83" d="M189.8,154.5V176c0,4.2-3.4,7.7-7.7,7.7h3.5c4.2,0,7.7-3.4,7.7-7.7v-21.5H189.8z"/>
	</g>
	<path class="st84" d="M133,152.9c0.2,2.8,2.5,5.1,5.3,5.3c2.1,0.1,4-0.9,5.1-2.6c0.4-0.6,1-1,1.7-1v12.6h-21.5
		c-4.2,0-7.7-3.4-7.7-7.7v-21.5h12.6c-0.1-0.7-0.4-1.3-1-1.6c-1.7-1.1-2.7-2.9-2.6-5.1c0.2-2.8,2.5-5.1,5.3-5.3c3.3-0.2,6,2.4,6,5.6
		c0,2-1,3.7-2.6,4.7c-0.6,0.4-0.9,1-1,1.6h12.5v12.6c-0.7-0.1-1.3-0.4-1.7-1c-1-1.6-2.8-2.6-4.7-2.6
		C135.4,146.9,132.8,149.6,133,152.9z"/>
</g>
<g>
</g>
<g>
</g>
<g>
</g>
<g>
</g>
<g>
</g>
<g>
</g>
<g>
</g>
<g>
</g>
<g>
</g>
<g>
</g>
<g>
</g>
<g>
</g>
<g>
</g>
<g>
</g>
<g>
</g>
</svg>
