<?xml version="1.0" encoding="utf-8"?>
<!-- Generator: Adobe Illustrator 23.0.1, SVG Export Plug-In . SVG Version: 6.00 Build 0)  -->
<svg version="1.1" id="Слой_1" xmlns="http://www.w3.org/2000/svg" xmlns:xlink="http://www.w3.org/1999/xlink" x="0px" y="0px"
	 viewBox="0 0 1368.8 321.6" style="enable-background:new 0 0 1368.8 321.6;" xml:space="preserve">
<style type="text/css">
	.st0{fill-rule:evenodd;clip-rule:evenodd;fill:#008BD2;}
	.st1{fill-rule:evenodd;clip-rule:evenodd;fill:#004A8F;}
	.st2{fill-rule:evenodd;clip-rule:evenodd;fill:#C39E8B;}
	.st3{fill-rule:evenodd;clip-rule:evenodd;fill:#84746C;}
	.st4{fill-rule:evenodd;clip-rule:evenodd;fill:#FFED00;stroke:#FFED00;stroke-width:0.216;stroke-miterlimit:22.9256;}
	.st5{fill-rule:evenodd;clip-rule:evenodd;fill:#94C11C;}
	.st6{fill-rule:evenodd;clip-rule:evenodd;fill:#5C8A1F;}
	.st7{fill-rule:evenodd;clip-rule:evenodd;fill:#FFED00;}
	.st8{fill-rule:evenodd;clip-rule:evenodd;fill:#DC4D96;}
	.st9{fill-rule:evenodd;clip-rule:evenodd;fill:#D32183;}
	.st10{fill-rule:evenodd;clip-rule:evenodd;fill:#EF7C00;}
	.st11{fill-rule:evenodd;clip-rule:evenodd;fill:#C8007F;}
	.st12{fill-rule:evenodd;clip-rule:evenodd;fill:#FFFFFF;}
	.st13{fill-rule:evenodd;clip-rule:evenodd;fill:#1885C8;}
</style>
<path class="st0" d="M1138.8,136.9c-0.4-0.3-0.9-0.6-1.4-0.9c-4.1-2.7-9.5-6.8-14.3-13.1c-4.3-5.6-8.2-13-10.5-22.6
	c-4.6,6.4-7.3,12.9-8.5,19.2c-1.9,9.6-0.4,18.9,2.9,27c3.3,8.1,8.5,15.1,14.1,20c2.8,2.5,5.7,4.5,8.4,5.8c-0.1-1.1-0.2-2.1-0.3-3.2
	C1128.7,158.3,1131.7,147.1,1138.8,136.9z"/>
<path class="st1" d="M1130.4,177.1c-3.9-1.4-8-4-12-7.5c-6-5.3-11.5-12.8-15.1-21.6c-3.6-8.8-5.2-18.9-3.2-29.3
	c1.5-7.9,5.2-16,11.6-23.8c0.3,1.9,0.7,3.7,1.1,5.4c-4.6,6.4-7.3,12.9-8.5,19.2c-1.9,9.6-0.4,18.9,2.9,27c3.3,8.1,8.5,15.1,14.1,20
	c2.8,2.5,5.7,4.5,8.4,5.8C1129.7,173.9,1130,175.5,1130.4,177.1z"/>
<path class="st2" d="M1283.1,126.3c1.9-2.1,3.6-4.4,4.9-6.9c5.7-11.2,8.1-24.4,7.6-37l0.1,0l0,0l0.1,0l0,0l0.1,0l0,0l0.1,0l0,0
	l0.1,0l0,0l0.1,0h0l0.1,0l0,0l0.1,0l0,0l0.1,0l0,0l0.1,0l0,0l0.1,0l0,0l0.1,0l0,0l0.1,0l0,0l0.1,0l0,0l0.1,0l0,0l0.1,0l0,0l0.1,0
	l0,0l0.1,0l0,0l0.1,0l0,0l0.1,0h0l0.1,0h0l0.1,0h0l0.1,0l0,0l0.1,0h0l0.1,0l0,0l0.1,0v0l0.1,0l0,0l0.1,0h0c4.6-0.3,9.4,0.9,13,3.8
	c2.8,2.3,4.8,5.5,5.7,9.6c0.2,1,0.4,2.1,0.4,3.2c-2.2-0.7-4.6-0.9-6.8-0.5c-1.9,0.3-3.7,1-5.3,2.1c-1.6,1-3.1,2.4-4.2,4l-0.2,0.4
	c-1.8,2.8-2.5,5.8-2.3,8.6c0,0.8,0.1,1.5,0.3,2.3c0,0.1,0.1,0.3,0.1,0.4c0.1,0.3,0.3,0.6,0.4,0.9c3.5,10.3,14.9,14.7,24.9,12.1
	c4.2-1.1,8.3-3.3,11.9-6.5c4.3-3.8,7.9-9,9.9-15.3c0.3,8-0.9,16.3-3.3,23.9c-3.1,9.8-8.3,18.2-15.5,23c-4.3-15-16.3-24.8-31.9-25.9
	c-10.4-0.5-24.8,4.4-28.1,16.9c-0.4,1.4-0.6,2.8-0.7,4.2v0v0c-0.1,2,0.1,4,0.6,5.8c0.8,3.1,2.5,5.8,4.8,7.8c2.3,1.9,5.2,3,8.6,3
	c4.8-0.1,7.4-2,8.6-4.4c0.9-1.8,0.8-3.9,0.1-5.7c-0.7-1.8-2.1-3.3-3.9-3.9c-1.4-0.5-2.9-0.4-4.4,0.5l0,0l0,0l0,0l0,0l0-0.1l0,0l0,0
	l0,0l0,0l0,0l0,0l0,0l0,0l0,0l0,0l0-0.1l0,0l0-0.1l0,0l0-0.1l0,0l0,0l0,0l0,0l0,0l0,0c-0.3-1.4,0.7-2.5,1.6-3.3h0
	c1.8-1.4,4.6-2,6.8-1.8l0.1,0c1.6,0,3.9,0.9,4.9,2.1c0.3,0.3,0.5,0.6,0.8,0.9c1.1,1.5,1.7,4,2,6l0,0.2c0.6,5-1.1,9.2-5.3,12.2l0,0
	l-0.1,0.1l0,0l-0.1,0.1l0,0l-0.1,0l-0.1,0l0,0l-0.1,0.1l0,0c-1.8,1.1-3.9,1.9-6.2,2.4c-2.9,0.6-6,0.6-9.1,0
	c-8.3-1.6-16.5-7.4-19.5-18.3c2,0.2,4.1-0.4,5.9-1.5c2.8-1.8,4.9-5.2,4.1-9.9l0-0.1h0c-0.2-1-0.5-1.9-0.9-2.8
	C1271.4,135.5,1278.2,131.7,1283.1,126.3z"/>
<path class="st3" d="M1326.5,154.2c7.2-4.7,12.4-13.2,15.5-23c2.4-7.6,3.5-15.9,3.3-23.9c1.3-3.9,2-8.2,2-12.9v0
	c0-0.9,0-1.7-0.1-2.6c3.5,12.3,3,27.5-1.2,40.6c-3.5,11.2-9.8,20.9-18.5,26C1327.3,157.1,1326.9,155.6,1326.5,154.2z"/>
<path class="st4" d="M1216.7,177.9l-0.2-0.4v0l-0.2-0.5v0l-0.2-0.5v0l-0.2-0.5v0l-0.2-0.5v0l-0.2-0.5v0l-0.2-0.5v0l-0.2-0.5v0
	c-2.8-6.2-6-12.6-10-18.1l0,0c-12.7,9.4-16.1,19-14.8,26.5c0.6,3.3,2.1,6.3,4.1,8.7c2,2.4,4.6,4.1,7.3,5.1c4.3,1.5,8.8,1,11.9-2.6
	c0.2-0.4,0.4-1,0.5-1.7c-0.6,0.4-1.2,0.7-1.9,0.9c-2.7,0.7-4.8,0.1-6.3-1.2c-1-0.8-1.7-1.9-2.2-3.2c-0.4-1.2-0.6-2.5-0.5-3.7
	c0.2-2.6,1.4-5.2,3.7-6.6c1.5-0.9,3.4-1.4,5.4-1.4C1213.7,177.1,1215.2,177.4,1216.7,177.9z"/>
<path class="st0" d="M1283.5,156.1c-0.5-0.2-1.2,0.1-2,1l-1.5,1.7l-1.5-1.7c-2.8-3-3-6-1.8-8.5c1-2,2.9-3.7,5.3-4.7
	c2.3-1,4.9-1.4,7.5-1.1c4.6,0.5,8.9,3.2,10.3,9.2h0c2.4,8.5-0.3,15-5.5,19.1c-2.6,2-5.7,3.3-9.1,4c-3.4,0.7-7,0.7-10.6,0
	c-8.2-1.5-16.2-6.6-20.7-15.8c-0.9,3.1-1.6,6.2-2.3,9.4c-2.5,12-3.4,23.9-3,33.3l0,0.6c2.3,0.9,5.1,1.7,8.1,2.4
	c3.6,0.8,7.6,1.4,11.8,1.8c2.2,0.2,4.3,0.3,6.4,0.3c12.3,0,24.2-2.9,33.1-9.1c8.8-6.1,14.9-15.3,15.9-28.2v0
	c0.1-1.3,0.2-2.6,0.2-3.9c0-3.6-0.5-7.2-1.5-10.7v0c-1-3.3-2.4-6.5-4.3-9.4c-0.3-0.4-0.5-0.7-0.6-0.9h0
	c-4.4-6.2-11.3-10.2-18.6-11.7c-7.3-1.5-15-0.4-21.2,3.7l0,0c-0.3,0.2-0.6,0.4-0.9,0.6v0c-3.5,2.5-5.5,5.8-6.4,9.3
	c-0.6,2.6-0.6,5.3,0,7.6c0.6,2.3,1.8,4.3,3.4,5.7c1.5,1.3,3.5,2.1,5.9,2c2.9,0,4.4-0.9,4.9-2c0.4-0.7,0.3-1.6,0-2.3
	C1284.5,156.8,1284,156.3,1283.5,156.1z"/>
<path class="st1" d="M1280.4,152.7c1.5-0.9,3.1-1,4.4-0.5c1.7,0.6,3.2,2.1,3.9,3.9c0.7,1.7,0.8,3.8-0.1,5.7
	c-1.1,2.4-3.8,4.3-8.6,4.4c-3.4,0.1-6.3-1.1-8.6-3c-2.3-1.9-3.9-4.7-4.8-7.8c-0.8-3-0.9-6.4-0.1-9.7c1.1-4.3,3.6-8.6,8-11.7l0,0
	c0.3-0.2,0.7-0.5,1-0.7v0c7.2-4.7,16-6,24.3-4.3c8.3,1.7,16.1,6.3,21.1,13.4l0,0c0.3,0.4,0.6,0.8,0.7,1.1c2.1,3.2,3.7,6.8,4.8,10.5
	l0,0c1.1,3.8,1.6,7.8,1.7,11.8c0,1.5-0.1,2.9-0.2,4.2h0c-1.1,14.2-7.9,24.5-17.7,31.3c-9.7,6.7-22.3,9.8-35.5,9.8
	c-2.3,0-4.5-0.1-6.7-0.3c-4.4-0.3-8.6-1-12.4-1.9c-2.5-0.6-4.9-1.2-7-2c-0.1-1.5-0.2-3-0.2-4.5c2.3,0.9,5.1,1.7,8.1,2.4
	c3.6,0.8,7.6,1.4,11.8,1.8c2.2,0.2,4.3,0.3,6.4,0.3c12.3,0,24.2-2.9,33.1-9.1c8.8-6.1,14.9-15.3,15.9-28.2v0
	c0.1-1.3,0.2-2.6,0.2-3.9c0-3.6-0.5-7.2-1.5-10.7v0c-1-3.3-2.4-6.5-4.3-9.4c-0.3-0.4-0.5-0.7-0.6-0.9h0
	c-4.4-6.2-11.3-10.2-18.6-11.7c-7.3-1.5-15-0.4-21.2,3.7l0,0c-0.3,0.2-0.6,0.4-0.9,0.6v0c-3.5,2.5-5.5,5.8-6.4,9.3
	c-0.6,2.6-0.6,5.3,0,7.6c0.6,2.3,1.8,4.3,3.4,5.7c1.5,1.3,3.5,2.1,5.9,2c2.9,0,4.4-0.9,4.9-2c0.4-0.7,0.3-1.6,0-2.3
	c-0.3-0.7-0.8-1.2-1.3-1.4c-0.5-0.2-1.2,0.1-2,1l-1.5,1.7l-1.5-1.7c-2.8-3-3-6-1.8-8.5c1-2,2.9-3.7,5.3-4.7c2.3-1,4.9-1.4,7.5-1.1
	c4.6,0.5,8.9,3.2,10.3,9.2h0c2.4,8.5-0.3,15-5.5,19.1c-2.6,2-5.7,3.3-9.1,4c-3.4,0.7-7,0.7-10.6,0c-8.2-1.5-16.2-6.6-20.7-15.8
	c0.6-2.2,1.3-4.3,2-6.5c3.1,10.8,11.2,16.6,19.4,18.2c3.1,0.6,6.2,0.6,9.1,0c2.8-0.6,5.4-1.6,7.4-3.2c4-3,6-8.1,4.1-14.7l0-0.1
	c-0.9-3.9-3.7-5.7-6.8-6c-1.9-0.2-3.8,0.1-5.5,0.8c-1.5,0.6-2.7,1.6-3.2,2.6C1280,151,1280,151.8,1280.4,152.7z"/>
<path class="st5" d="M1251,150.5c-1.9,5.5-3.4,11.3-4.6,17c-2.5,12.4-3.5,24.8-3.1,34.6c0.8,18.1,3.6,36.4,11,49.9
	c7.5,13.8,19.5,22.8,38.4,21.7c2.3,2.2,8,6.3,13.7,1.6c3.6-3,4.4-6.2,3.7-8.9c-0.5-1.9-1.8-3.6-3.4-4.6l0,0l0,0
	c-1.6-1.1-3.6-1.5-5.4-1c-2.2,0.6-4,2.4-4.5,5.8c-0.2,1.1,0.6,2.2,1.7,2.4c1.1,0.2,2.2-0.6,2.4-1.7c0.2-1.5,0.8-2.2,1.5-2.4
	c0.6-0.2,1.4,0,2.1,0.5l0,0c0.8,0.5,1.4,1.2,1.6,2.1c0.3,1.3-0.2,3-2.3,4.7c-4.9,4-10.9-3.6-11.2-7c-0.1-0.9,0-1.8,0.3-2.7
	c0.3-1,0.7-1.9,1.4-2.8c1.6-2.3,4.2-4,7.5-4.4l0.1,0c2.4-0.2,4.4,0.2,6,1.1l0,0c1.9,1.1,3.4,2.8,4.5,4.9c1.7,3.4,2.5,6.6,2.4,9.6
	c-0.1,3.9-1.5,7.5-3.9,10.6c-2.5,3.3-6,6.1-10.1,8.2c-6,3.1-13.3,4.8-20.7,4.7c-13.1-0.3-31.3-9.8-37.9-13.2c-1.9-1-3-1.6-3.8-1.5
	l0,0v0l-0.1,0h0l-0.1,0l0,0l0,0c-0.3,0-0.7,0.2-0.9,0.3c-0.3,0.1-0.6,0.3-1,0.5c-4.6,2.7-26.1,15.6-46.7,13.5
	c-7-0.7-14.7-4-20.2-8.9c-4.7-4.1-7.7-9.4-7.5-15.1c0.3-6.8,3.4-10.7,7.3-12.3c1.7-0.7,3.6-0.9,5.4-0.7c1.8,0.2,3.5,0.8,4.9,1.9
	c7.8,7.1,1.6,17.6-5.7,13.3c-2.1-1.7-2.6-3.4-2.3-4.7c0.2-0.9,0.8-1.6,1.6-2.1l0,0c0.7-0.4,1.5-0.6,2.1-0.5c0.7,0.2,1.3,0.9,1.5,2.4
	c0.2,1.1,1.2,1.9,2.4,1.7c1.1-0.2,1.9-1.2,1.7-2.4c-0.6-3.4-2.4-5.2-4.5-5.8c-1.8-0.5-3.8-0.1-5.4,1l0,0l0,0c-1.6,1-2.9,2.6-3.4,4.6
	c-0.7,2.7,0.1,6,3.7,8.9c7.4,6.1,14.8-2.7,14.8-2.7l0.1-0.1c1.9,0.1,3.8,0.1,5.6,0c12.6-0.8,21.1-7.1,26.7-16
	c5.4-8.6,8-19.6,8.9-30.3c0.4-5.4,0.4-10.7,0.1-15.6c-0.1-1.4-0.1-2.8-0.1-4.2c0-1.3,0-2.7,0.1-4.1c0.3-0.6,0.5-1.2,0.7-1.8
	c0.2-0.8,0.4-1.5,0.6-2.3c0.1-0.5,0-1.1-0.2-1.5c0.5-3.5-0.1-7.1-1.5-10.2c0-0.1-0.1-0.1-0.1-0.2c-1.4-3-3.6-5.5-6.5-7.3
	c-2-4.6-4.2-9.3-6.4-13.7c-1.9-3.6-4.3-7.5-6.3-10.5c2.1-1.3,4.3-2.4,6.7-3.3c0.9-0.4,1.8-0.7,2.8-1c1.5,1.6,3.6,4,5.3,5.9
	c2.7,3,5.4,6.2,7.6,8.8c0.9,1.1,2.6,1.2,3.6,0.3c0.4-0.3,0.7-0.8,0.8-1.2l0,0c1.1-3.4,3.1-8.6,5.2-13.8c3.8-9.1,2.7-6.1,4-8.9
	c1.6-0.8,3.2-1.3,4.8-1.3c0.9,0,1.8,0.1,2.6,0.3C1247.9,143.7,1248.3,147.9,1251,150.5z"/>
<path class="st6" d="M1255.8,152.6c-1.8,5.2-3.2,10.6-4.3,16c-2.5,12-3.4,23.9-3,33.3c0.7,17.4,3.4,34.9,10.3,47.7
	c6,11,15.2,18.5,29.3,19c-0.4-0.9-0.6-1.9-0.7-2.9c-0.2-1.5,0-3.1,0.5-4.7c0.4-1.5,1.1-3,2.1-4.3c2.4-3.4,6.3-6.1,11.2-6.6l0.1,0
	c3.5-0.3,6.5,0.4,9.1,1.8l0,0l0,0c2.9,1.6,5,4.1,6.5,7c2.2,4.2,3.1,8.2,3,12.1c-0.1,5-1.9,9.7-4.9,13.7c-2.9,3.9-7.1,7.2-11.9,9.7
	c-6.7,3.5-14.9,5.4-23.2,5.2c-14.3-0.3-33.3-10.2-40.2-13.8c-0.7-0.3-0.8-0.6-1-0.8c-4.9,2.9-27.6,16.4-49.9,14.2
	c-8.1-0.8-16.8-4.6-23.1-10.2c-5.7-5.1-9.5-11.8-9.2-19.2c0.4-9.2,4.9-14.6,10.5-16.9c2.6-1,5.3-1.4,8-1.1c2.7,0.3,5.2,1.3,7.4,2.8
	c3.7,2.7,6.1,7.1,5.7,12.8c1.1,0,2.1,0,3.1-0.1c10.7-0.7,17.9-6.1,22.7-13.6c4.9-7.8,7.3-18,8.1-27.9c0.4-5.2,0.4-10.2,0.1-14.9
	c0-0.6-0.1-1.2-0.1-1.9c0.3-0.3,0.5-0.6,0.8-0.9c3.5-3.9,5.6-8.6,5.3-14c-0.1-2.4-0.7-4.8-1.9-7.4l0,0c-0.8-1.8-1.9-3.5-3.4-5
	c-1.3-1.4-3-2.6-4.8-3.4c-1.4-0.7-2.9-1.1-4.4-1.2c-1.5-3.3-3-6.5-4.6-9.6c-1.9-3.7-3.9-7-5.9-9.8c0.6-0.5,1.3-1,2-1.6
	c2.6-1.9,5.6-3.5,8.8-4.8c2.1-0.8,4.2-1.5,6.4-2.1l9.2,10.3l0.7,0.9c0.7,0.9,2,1,2.9,0.3c0.5-0.4,0.8-1.1,0.8-1.7h0
	c-0.3-5.8,1.8-10.7,4.8-14.1c0.9-1.1,2.5-2.6,4.4-3.5c-1.1,2.2-3.1,6.8-4,8.9c-2.2,5.2-4.2,10.4-5.2,13.8l0,0
	c-0.1,0.5-0.4,0.9-0.8,1.2c-1.1,0.9-2.7,0.8-3.6-0.3c-2.1-2.6-4.9-5.7-7.6-8.8c-1.7-2-3.9-4.5-5.4-6.1c-3.3,1.1-6.5,2.5-9.4,4.3
	c2.1,2.9,4.6,7,6.5,10.7c2.2,4.3,4.4,9,6.4,13.7c2.9,1.8,5.1,4.4,6.5,7.3c0,0.1,0.1,0.1,0.1,0.2c1.4,3.2,2,6.8,1.5,10.2
	c0.2,0.5,0.3,1,0.2,1.5c-0.1,0.8-0.3,1.6-0.6,2.3c-0.2,0.6-0.4,1.2-0.7,1.8c-0.1,1.4-0.1,2.8-0.1,4.1c0,1.4,0.1,2.8,0.1,4.2
	c0.3,4.9,0.3,10.2-0.1,15.6c-0.9,10.6-3.5,21.7-8.9,30.3c-5.6,8.9-14.1,15.2-26.7,16c-1.8,0.1-3.7,0.1-5.6,0l-0.1,0.1
	c0,0-7.4,8.8-14.8,2.7c-3.6-3-4.4-6.2-3.7-8.9c0.5-1.9,1.8-3.6,3.4-4.6l0,0l0,0c1.6-1.1,3.6-1.5,5.4-1c2.2,0.6,4,2.4,4.5,5.8
	c0.2,1.1-0.6,2.2-1.7,2.4c-1.1,0.2-2.2-0.6-2.4-1.7c-0.2-1.5-0.8-2.2-1.5-2.4c-0.6-0.2-1.4,0-2.1,0.5l0,0c-0.8,0.5-1.4,1.2-1.6,2.1
	c-0.3,1.3,0.2,3,2.3,4.7c7.3,4.3,13.5-6.3,5.7-13.3c-1.4-1-3.1-1.7-4.9-1.9c-1.8-0.2-3.7,0-5.4,0.7c-3.8,1.6-7,5.5-7.3,12.3
	c-0.2,5.7,2.9,11,7.5,15.1c5.5,4.9,13.1,8.2,20.2,8.9c20.6,2.1,42.1-10.8,46.7-13.5c0.4-0.2,0.7-0.4,1-0.5c0.3-0.2,0.6-0.3,0.9-0.3
	l0,0l0,0l0.1,0h0l0.1,0v0l0,0c0.8,0,1.9,0.6,3.8,1.5c6.6,3.4,24.8,12.9,37.9,13.2c7.4,0.2,14.7-1.6,20.7-4.7
	c4.1-2.1,7.6-4.9,10.1-8.2c2.4-3.2,3.8-6.8,3.9-10.6c0.1-3-0.7-6.3-2.4-9.6c-1.1-2-2.5-3.8-4.5-4.9l0,0c-1.6-0.9-3.6-1.4-6-1.1
	l-0.1,0c-3.3,0.3-5.9,2.1-7.5,4.4c-0.6,0.9-1.1,1.8-1.4,2.8c-0.3,0.9-0.4,1.8-0.3,2.7c0.3,3.3,6.3,11,11.2,7
	c2.1-1.7,2.6-3.4,2.3-4.7c-0.2-0.9-0.8-1.6-1.6-2.1l0,0c-0.7-0.4-1.5-0.6-2.1-0.5c-0.7,0.2-1.3,0.9-1.5,2.4
	c-0.2,1.1-1.2,1.9-2.4,1.7c-1.1-0.2-1.9-1.2-1.7-2.4c0.6-3.4,2.4-5.2,4.5-5.8c1.8-0.5,3.8-0.1,5.4,1l0,0l0,0c1.6,1,2.9,2.6,3.4,4.6
	c0.7,2.7-0.1,6-3.7,8.9c-5.7,4.7-11.4,0.6-13.7-1.6c-18.9,1-30.9-7.9-38.4-21.7c-7.3-13.6-10.2-31.9-11-49.9
	c-0.4-9.8,0.5-22.2,3.1-34.6c1.2-5.8,2.7-11.5,4.6-17c0.6,0.6,1.4,1.1,2.2,1.5l0,0C1254,152.3,1254.9,152.5,1255.8,152.6z"/>
<path class="st7" d="M1180,61.3c1,5.9,3.7,11,7.5,15c4.1,4.4,9.5,7.5,15.2,9.2c6.3,1.8,13.1,1.8,19-0.4c5.2-2,8.7-5.3,10.6-9.1l0,0
	c1.1-2.1,1.6-4.4,1.8-6.7c0.1-2.3-0.3-4.6-1.1-6.8c-1.6-4.1-4.7-7.8-9.3-10.1c-3.4-1.7-7.4-2.4-11.3-1.8h0c-2.9,0.5-5.8,1.7-8.4,3.8
	c-0.3-1.2-0.2-2.9,0.3-4.8c0.5-2,1.6-4.1,3.2-6.2l0,0c3.7-4.8,10.5-9,21.8-9.2c2.9,0,5.7,0.4,8.3,1.1c7,2,12.8,6.8,16.8,12.9
	c4.1,6.1,6.4,13.6,6.5,21c0,3.4-0.4,6.9-1.3,10.1c-8.1,25.3-28.7,26.6-51.8,28.2c-10.4,0.7-21.3,1.4-31.8,4.2
	c4.4-9.3,3.6-16.6,0.7-21.5c-1.5-2.5-3.5-4.4-5.7-5.6c-2.2-1.3-4.7-1.9-7-1.9c-4,0.1-7.4,2.1-8.8,6.2h0c-0.1,0.3-0.1,0.7-0.1,1
	c0.2,1.1,1.3,1.9,2.4,1.7c0.6-0.1,1.2,0.1,1.6,0.4c0.5,0.5,1,1.4,1.4,2.5c-0.2,2.6-1.5,4.2-3.1,4.8c-0.9,0.3-1.9,0.4-3,0.2
	c-1.1-0.2-2.1-0.6-3-1.3c-2.1-1.5-3.4-4.2-2.6-7.8h0l0,0c0.8-3.7,2.6-6.7,5.2-8.9c2.8-2.5,6.4-4.1,10.4-4.7v0c1-0.2,1.8-1,1.7-2.1
	c0-0.8,0.2-1.8,0.7-2.9c0.6-1.3,1.6-2.7,3.1-4.3c2.1-2.2,4.3-3.7,6.4-4.7C1177.6,62,1178.9,61.6,1180,61.3z"/>
<path class="st5" d="M1266.2,19.6c-2.5,0.2-4.9,0.7-7.4,1.4c3.7,1.9,7.3,4.1,10.5,6.6c3.4,2.7,6.5,5.7,9.2,8.9
	c0.8,1,1.6,2.1,2.4,3.1c0.5,0.6,0.9,1.3,1.4,1.9c3.8-0.8,7.6-1.2,11.2-1.3c5-0.1,9.9,0.6,14.5,1.8l0,0c-2.5-5.9-8.4-11.8-15.9-16.2
	C1284.5,21.5,1275.3,18.8,1266.2,19.6z"/>
<path class="st6" d="M1253.1,18.5c4-0.6,7.4-2.6,12.7-3.1c10.1-0.8,20.1,2.1,28.3,6.8c8.2,4.8,14.7,11.5,17.6,18.1
	c0.5,1.1,0.9,2.2,1.1,3.3c-1.6-0.6-3.2-1.2-4.9-1.6l0,0c-2.5-5.9-8.4-11.8-15.9-16.2c-7.5-4.4-16.7-7-25.9-6.3
	c-2.5,0.2-4.9,0.7-7.4,1.4C1256.9,20.1,1255.1,19.3,1253.1,18.5z"/>
<path class="st0" d="M1317.6,103.9c-2.1-1.5-4.6-1.9-7-1.4c-1.3,0.2-2.7,0.8-3.8,1.5c-1.2,0.7-2.2,1.7-3,2.9
	c-5,7.2,1.4,15.9,8.5,18.3c3.2,1,6.7,1.1,10.1,0.1c3.6-0.9,7.1-2.8,10.2-5.6c6.1-5.4,10.6-14.1,10.5-25.1c-0.1-4.1-0.6-8.1-1.5-11.9
	c-2.7-11.1-8.8-20.8-17.2-27.6c-8.4-6.8-19.1-10.9-30.9-10.7c-2.9,0-5.9,0.3-8.9,0.9c3,5,5.3,10.2,7,15.5c1.9,5.8,3.1,11.7,3.6,17.6
	c1.8-0.2,3.5-0.3,5.2-0.2c4.9,0.3,9.3,1.9,12.8,4.7c3.5,2.9,6,6.9,7.1,12c0.5,2.3,0.7,4.8,0.5,7.5l-0.2,3.7L1317.6,103.9z"/>
<path class="st1" d="M1317.6,103.9c-2.1-1.5-4.6-1.9-7-1.4c-1.3,0.2-2.7,0.8-3.8,1.5c-1.2,0.7-2.2,1.7-3,2.9
	c-5,7.2,1.4,15.9,8.5,18.3c3.2,1,6.7,1.1,10.1,0.1c3.6-0.9,7.1-2.8,10.2-5.6c6.1-5.4,10.6-14.1,10.5-25.1c-0.1-4.1-0.6-8.1-1.5-11.9
	c-2.7-11.1-8.8-20.8-17.2-27.6c-8.4-6.8-19.1-10.9-30.9-10.7c-2.9,0-5.9,0.3-8.9,0.9c-1.1-1.8-0.9-1.5-2.4-3.7
	c3.8-0.8,7.6-1.2,11.2-1.3c12.8-0.2,24.4,4.2,33.6,11.6c9.1,7.4,15.8,17.9,18.7,29.9c1,4.1,1.5,8.4,1.6,12.8v0
	c0.1,12.3-5,22.1-11.9,28.2c-3.6,3.2-7.7,5.4-11.9,6.5c-4.2,1.1-8.6,1.1-12.5-0.2c-10.1-3.3-17.3-15-10.6-24.6c1.1-1.6,2.6-3,4.2-4
	c1.6-1,3.4-1.7,5.3-2.1c2.3-0.4,4.6-0.3,6.8,0.5c-0.1-1.1-0.2-2.2-0.4-3.2c-0.9-4.1-2.9-7.3-5.7-9.6c-2.8-2.3-6.4-3.6-10.4-3.8
	c-1.5-0.1-3.1,0-4.7,0.2c-0.1-1.4-0.2-2.8-0.3-4.2c1.8-0.2,3.5-0.3,5.2-0.2c4.9,0.3,9.3,1.9,12.8,4.7c3.5,2.9,6,6.9,7.1,12
	c0.5,2.3,0.7,4.8,0.5,7.5l-0.2,3.7L1317.6,103.9z"/>
<path class="st2" d="M1235.7,14.1l-0.1,0c-11.6-7.4-25.4-10.2-38.5-8.6c-13.3,1.5-25.9,7.4-34.5,17.2l-0.5,0.5
	c13.7-4.9,28.7-6.4,43.4-4.3l0.6-0.3C1215.2,14.4,1225.5,13.1,1235.7,14.1z"/>
<path class="st3" d="M1235.6,14.1c-11.6-7.4-25.4-10.2-38.5-8.6c-13.3,1.5-25.9,7.4-34.5,17.2l-0.5,0.5c-1.2,0.4-2.5,0.9-3.7,1.4
	c-1.2,0.5-2.4,1-3.6,1.5c0.1-0.4,0.3-0.7,0.6-1c1.2-1.9,2.6-3.6,4.1-5.3c9.4-10.6,22.9-17,37.2-18.6c14.3-1.6,29.3,1.4,41.9,9.7
	c2.1,1.4,4.2,3,6.1,4.7L1235.6,14.1L1235.6,14.1z M1165.4,26.5c-2.4,0.8-4.7,1.7-7,2.6l-0.1,0c0.5-0.2,1.1-0.5,1.7-0.7
	C1161.7,27.8,1163.5,27.1,1165.4,26.5z"/>
<path class="st5" d="M1126.4,120.4c5.1,6.7,10.9,10.8,14.9,13.2l0.3-0.3l0,0l0,0c0.5-0.6,1-1.2,1.5-1.7c3.7-4.1,7.8-7.6,12.4-10.6
	s9.6-5.4,14.8-7.4c5.7-9.6,5.5-16.8,2.8-21.2c-1.1-1.8-2.6-3.2-4.2-4.1c-1.6-0.9-3.3-1.4-4.8-1.3c-1.3,0-2.6,0.4-3.5,1.2
	c0.5,0.2,0.9,0.5,1.3,0.9c1.2,1.1,2,2.7,2.7,4.7l0,0c0.1,0.2,0.1,0.5,0.1,0.7c-0.2,4.8-2.7,7.7-5.9,8.8c-1.6,0.6-3.4,0.7-5.1,0.4
	c-1.7-0.3-3.4-1-4.8-2c-3.3-2.4-5.4-6.6-4.1-12.1h0c0.9-4.6,3.3-8.3,6.5-11.2c3-2.7,6.8-4.5,10.9-5.4c0.2-0.9,0.5-1.9,1-3
	c0.8-1.6,2-3.5,3.9-5.4c2.5-2.6,5.1-4.4,7.6-5.5c1.8-0.8,3.5-1.4,5-1.7c0-2.6,0.3-5.3,0.9-8.1c0.8-3.3,2.1-6.7,4.1-10.2
	c2.5-4.5,5.4-8.3,8.7-11.5c1.9-1.9,3.9-3.5,6.1-5c-13.5-1.1-27.1,1.1-39.4,6.1c-13.8,5.6-26.1,14.8-34.9,27.2
	c-3.1,4.4-5.7,9.1-7.5,14.3c-1.6,4.7-2.6,9.8-2.7,15.2C1115.5,101.6,1120.6,112.7,1126.4,120.4z"/>
<path class="st6" d="M1138.8,136.9c-4.3-2.6-10.3-6.9-15.7-14c-6.3-8.2-11.7-20.2-12.4-37.5c0-5.5,1.1-11.4,2.9-16.7
	c1.9-5.6,4.7-10.7,8-15.4c9.3-13.1,22.2-22.8,36.7-28.7c14.7-6,31.1-8,47.1-5.7l-6.1,3.5c-13.5-1.1-27.1,1.1-39.4,6.1
	c-13.8,5.6-26.1,14.8-34.9,27.2c-3.1,4.4-5.7,9.1-7.5,14.3c-1.6,4.7-2.6,9.8-2.7,15.2c0.7,16.3,5.7,27.4,11.6,35.1
	c5.1,6.7,10.9,10.8,14.9,13.2C1140.4,134.7,1139.6,135.8,1138.8,136.9L1138.8,136.9z M1180,61.3c-0.1-0.5-0.2-1.1-0.2-1.6
	c-0.1-0.8-0.1-1.7-0.1-2.6c-1.6,0.3-3.3,0.9-5,1.7c-2.5,1.2-5.1,2.9-7.6,5.5c-1.9,2-3.1,3.8-3.9,5.4c-0.5,1.1-0.8,2.1-1,3
	c-4.1,0.9-7.9,2.8-10.9,5.4c-3.2,2.8-5.5,6.6-6.5,11.2h0c-1.3,5.5,0.9,9.7,4.1,12.1c1.4,1.1,3.1,1.8,4.8,2c1.7,0.3,3.5,0.2,5.1-0.4
	c3.2-1.2,5.6-4,5.9-8.8c0-0.2,0-0.5-0.1-0.7l0,0c-0.6-2-1.5-3.6-2.7-4.7c-0.4-0.4-0.8-0.7-1.3-0.9c0.9-0.8,2.2-1.2,3.5-1.2
	c1.6,0,3.3,0.4,4.8,1.3c1.6,0.9,3.1,2.3,4.2,4.1c2.6,4.5,2.9,11.6-2.7,21.1c1.9-0.6,3.7-1.2,5.6-1.7c4.4-9.3,3.6-16.6,0.7-21.5
	c-1.5-2.5-3.5-4.4-5.7-5.6c-2.2-1.3-4.7-1.9-7-1.9c-4,0.1-7.4,2.1-8.8,6.2h0c-0.1,0.3-0.1,0.7-0.1,1c0.2,1.1,1.3,1.9,2.4,1.7
	c0.6-0.1,1.2,0.1,1.6,0.4c0.5,0.5,1,1.4,1.4,2.5c-0.2,2.6-1.5,4.2-3.1,4.8c-0.9,0.3-1.9,0.4-3,0.2c-1.1-0.2-2.1-0.6-3-1.3
	c-2.1-1.5-3.4-4.2-2.6-7.8h0l0,0c0.8-3.7,2.6-6.7,5.2-8.9c2.8-2.5,6.4-4.1,10.4-4.7v0c1-0.2,1.8-1,1.7-2.1c0-0.8,0.2-1.8,0.7-2.9
	c0.6-1.3,1.6-2.7,3.1-4.3c2.1-2.2,4.3-3.7,6.4-4.7C1177.6,62,1178.9,61.6,1180,61.3z"/>
<path class="st8" d="M1208.2,111.6c-21.1,1.4-44.3,2.9-62,22.7c-9.6,10.7-13.4,22.9-12.8,34.6c0.4,6.6,2.1,13.1,5.1,19.1
	c3,6,7.1,11.5,12.2,16c10.2,9.1,24.1,14.7,39.8,13.8c5.3-0.3,11.6-1.8,17.3-4.3l0,0c4.6-2,8.8-4.8,11.8-8.1c2.8-3.2,4.5-6.9,4.3-11
	c-0.1-1.9-0.6-3.9-1.5-5.9h0c-0.6-1.4-1.5-2.7-2.5-3.8c-1-1-2.2-1.9-3.6-2.5c-1.3-0.6-2.8-0.9-4.1-1c-1.2,0-2.4,0.2-3.2,0.7
	c-1.1,0.6-1.6,2-1.7,3.3c0,0.7,0,1.4,0.3,2.1c0.2,0.6,0.5,1,0.9,1.4c0.6,0.5,1.5,0.7,2.7,0.4c0.3-0.1,0.6-0.2,0.8-0.5
	c0.2-0.3,0.3-0.7,0.2-1.4l-0.1-1.1l0.9-0.7c0.7-0.6,1.5-0.7,2.3-0.6l0,0c0.9,0.2,1.6,0.8,2.1,1.7l0,0c0.3,0.6,0.5,1.2,0.7,2
	c0.5,2.3,0.3,5.7-0.9,7.7l-0.1,0.1l-0.1,0.1c-4.3,5.2-10.7,6.1-16.6,4c-3.3-1.2-6.5-3.4-9-6.3c-2.5-2.9-4.4-6.6-5.1-10.7
	c-1.5-8.9,2.2-20,16.4-30.5c2.9-2.2,6.3-3.9,9.8-5.3c3.5-1.4,7.1-2.4,10.8-3.3l0,0c1.3-0.3,2.6-0.7,3.9-1c2.4-3.8,5.7-6.7,9.3-8.7
	c3.5-1.9,7.2-2.9,10.7-3c3.4-0.1,6.7,0.7,9.2,2.4c0.8,0.5,1.6,1.2,2.2,1.9c1.2-0.4,2.5-0.7,3.8-1.2c5.2-2.1,9.9-4.7,13.9-7.8l0,0
	c3.5-2.7,6.3-5.9,8.1-9.5c5.7-11,8.4-25.6,6.7-40.4c-1.5-13.1-6.4-26.5-15.7-38c-2.4-3-5.3-5.8-8.5-8.2c-3.3-2.5-6.9-4.8-10.8-6.6
	c-0.5-0.2-4.5-2.1-9.9-3.7c-2.8-0.9-6.1-1.6-9.3-2c-10-1.2-20.1-0.2-29,4c-7.8,3.6-14.6,9.6-19.5,18.5c-3.7,6.8-4.9,13-4.4,18.4
	c0.6,5.6,3.1,10.4,6.6,14.2c3.6,3.8,8.3,6.6,13.4,8c5.5,1.6,11.4,1.6,16.4-0.3c4.2-1.6,6.9-4.2,8.4-7.1v0c0.8-1.6,1.2-3.3,1.3-5
	c0.1-1.7-0.2-3.5-0.8-5.1c-1.2-3.2-3.7-6-7.3-7.8c-2.7-1.3-5.8-1.9-8.8-1.4v0c-2.7,0.5-5.5,1.8-7.8,4.2l-0.9,0.9l-1.2-0.4
	c-1.6-0.5-2.7-2-3.2-4.1c-0.4-1.8-0.3-4.2,0.4-6.7c0.7-2.5,1.9-5.1,3.9-7.7v0c4.4-5.6,12.2-10.6,25-10.7c3.4,0,6.6,0.4,9.5,1.3
	c8,2.3,14.6,7.7,19.1,14.5c4.5,6.8,7.1,15,7.2,23.2c0.1,3.8-0.4,7.7-1.5,11.3l0,0C1254.7,108.5,1232.7,110,1208.2,111.6
	L1208.2,111.6z M1236.8,141.1c1.4-1.3,2.9-2.4,4.5-3.2c2.1-1.1,4.3-1.7,6.5-1.8c2.1-0.1,4.2,0.3,6.1,1.2c-3.4,0.9-6.7,1.6-10.4,2.4
	C1241.4,140.1,1239.2,140.6,1236.8,141.1z"/>
<path class="st9" d="M1143.1,131.5c18.8-21,42.9-22.6,64.8-24c23.1-1.5,43.7-2.9,51.8-28.2c1-3.3,1.4-6.7,1.3-10.1
	c-0.1-7.4-2.4-14.8-6.5-21c-4-6.1-9.8-10.8-16.8-12.9c-2.6-0.8-5.4-1.2-8.3-1.1c-11.2,0.2-18.1,4.4-21.8,9.2l0,0
	c-1.6,2.1-2.6,4.2-3.2,6.2c-0.5,1.9-0.6,3.6-0.3,4.8c2.6-2.1,5.5-3.3,8.4-3.8h0c3.9-0.7,7.9,0.1,11.3,1.8c4.6,2.3,7.8,6,9.3,10.1
	c0.8,2.2,1.2,4.5,1.1,6.8c-0.1,2.3-0.7,4.6-1.8,6.7l0,0c-1.9,3.8-5.5,7.2-10.6,9.1c-5.9,2.2-12.7,2.2-19,0.4
	c-5.7-1.7-11.1-4.8-15.2-9.2c-4.2-4.4-7.1-10-7.8-16.6c-0.6-6.2,0.7-13.2,4.9-20.8c5.3-9.7,12.8-16.3,21.4-20.3
	c9.6-4.5,20.6-5.7,31.3-4.3c3.5,0.4,6.9,1.3,10,2.2c5.6,1.7,10,3.7,10.5,4c4.1,2,8,4.3,11.5,7.1c3.4,2.7,6.5,5.7,9.2,8.9
	c9.8,12.2,15,26.3,16.6,40.2c1.8,15.7-1.1,31.1-7.1,42.8c-2.2,4.2-5.4,7.8-9.3,10.9h0c-4,3.2-8.8,5.8-14,8c-0.5-1.4-1.2-2.6-2-3.7
	c5-2.1,9.6-4.6,13.4-7.6l0,0c3.5-2.7,6.3-5.9,8.1-9.5c5.7-11,8.4-25.6,6.7-40.4c-1.5-13.1-6.4-26.5-15.7-38c-2.4-3-5.3-5.8-8.5-8.2
	c-3.3-2.5-6.9-4.8-10.8-6.6c-0.5-0.2-4.5-2.1-9.9-3.7c-2.8-0.9-6.1-1.6-9.3-2c-10-1.2-20.1-0.2-29,4c-7.8,3.6-14.6,9.6-19.5,18.5
	c-3.7,6.8-4.9,13-4.4,18.4c0.6,5.6,3.1,10.4,6.6,14.2c3.6,3.8,8.3,6.6,13.4,8c5.5,1.6,11.4,1.6,16.4-0.3c4.2-1.6,6.9-4.2,8.4-7.1v0
	c0.8-1.6,1.2-3.3,1.3-5c0.1-1.7-0.2-3.5-0.8-5.1c-1.2-3.2-3.7-6-7.3-7.8c-2.7-1.3-5.8-1.9-8.8-1.4v0c-2.7,0.5-5.5,1.8-7.8,4.2
	l-0.9,0.9l-1.2-0.4c-1.6-0.5-2.7-2-3.2-4.1c-0.4-1.8-0.3-4.2,0.4-6.7c0.7-2.5,1.9-5.1,3.9-7.7v0c4.4-5.6,12.2-10.6,25-10.7
	c3.4,0,6.6,0.4,9.5,1.3c8,2.3,14.6,7.7,19.1,14.5c4.5,6.8,7.1,15,7.2,23.2c0.1,3.8-0.4,7.7-1.5,11.3l0,0
	c-8.9,28-30.9,29.5-55.5,31.1c-21.1,1.4-44.3,2.9-62,22.7c-9.6,10.7-13.4,22.9-12.8,34.6c0.4,6.6,2.1,13.1,5.1,19.1
	c3,6,7.1,11.5,12.2,16c10.2,9.1,24.1,14.7,39.8,13.8c5.3-0.3,11.6-1.8,17.3-4.3l0,0c4.6-2,8.8-4.8,11.8-8.1c2.8-3.2,4.5-6.9,4.3-11
	c-0.1-1.9-0.6-3.9-1.5-5.9h0c-0.6-1.4-1.5-2.7-2.5-3.8c-1-1-2.2-1.9-3.6-2.5c-1.3-0.6-2.8-0.9-4.1-1c-1.2,0-2.4,0.2-3.2,0.7
	c-1.1,0.6-1.6,2-1.7,3.3c0,0.7,0,1.4,0.3,2.1c0.2,0.6,0.5,1,0.9,1.4c0.6,0.5,1.5,0.7,2.7,0.4c0.3-0.1,0.6-0.2,0.8-0.5
	c0.2-0.3,0.3-0.7,0.2-1.4l-0.1-1.1l0.9-0.7c0.7-0.6,1.5-0.7,2.3-0.6l0,0c0.9,0.2,1.6,0.8,2.1,1.7l0,0c0.3,0.6,0.5,1.2,0.7,2
	c0.5,2.3,0.3,5.7-0.9,7.7l-0.1,0.1l-0.1,0.1c-4.3,5.2-10.7,6.1-16.6,4c-3.3-1.2-6.5-3.4-9-6.3c-2.5-2.9-4.4-6.6-5.1-10.7
	c-1.5-8.9,2.2-20,16.4-30.5c2.9-2.2,6.3-3.9,9.8-5.3c3-1.2,6.1-2.1,9.2-2.9c-0.5,1-0.9,2.1-1.3,3.2c-0.2,0.5-0.1,1,0,1.4
	c-2.2,0.6-4.3,1.3-6.4,2.1c-3.2,1.3-6.2,2.8-8.8,4.8c-12.7,9.4-16.1,19-14.8,26.5c0.6,3.3,2.1,6.3,4.1,8.7c2,2.4,4.6,4.1,7.3,5.1
	c4.3,1.5,8.8,1,11.9-2.6c0.2-0.4,0.4-1,0.5-1.7c-0.6,0.4-1.2,0.7-1.9,0.9c-2.7,0.7-4.8,0.1-6.3-1.2c-1-0.8-1.7-1.9-2.2-3.2
	c-0.4-1.2-0.6-2.5-0.5-3.7c0.2-2.6,1.4-5.2,3.7-6.6c1.5-0.9,3.4-1.4,5.4-1.4c1.9,0,4,0.5,5.8,1.3c1.9,0.9,3.5,2,4.8,3.4
	c1.4,1.5,2.5,3.2,3.4,5l0,0c1.1,2.6,1.7,5,1.9,7.4c0.3,5.4-1.8,10.1-5.3,14c-3.4,3.8-8.1,6.8-13.2,9.1v0c-6.1,2.7-12.9,4.3-18.7,4.6
	c-16.9,0.9-31.9-5.1-42.8-14.9c-5.5-4.9-10-10.8-13.2-17.3c-3.2-6.5-5.1-13.5-5.5-20.7C1128.6,156.3,1132.7,143.1,1143.1,131.5z"/>
<path class="st6" d="M1257.2,120.2c9.9-5,14.6-2.8,16.9-1.6l0,0l0.2,0.1c1,0.5,1.5,1.7,1,2.8c-0.2,0.4-0.4,0.6-0.7,0.8
	c-3.1,2.2-7.1,9.4-10.3,15.1c-0.6-1.3-1.3-2.4-2.1-3.4c3.4-6,6.5-11.4,9.6-12.8c-1.5-0.7-4-2-9.1,0.2c-3.6,1.9-6.8,4.1-9.7,6.9
	c-1.3-0.3-2.7-0.5-4.2-0.6C1252.6,123.5,1255.7,121,1257.2,120.2z"/>
<path class="st5" d="M1262.7,121.3c5.1-2.1,7.6-0.9,9.1-0.2c-3.1,1.5-6.2,6.8-9.6,12.8c-2.4-3-5.6-4.9-9.3-5.8
	C1255.8,125.4,1259.1,123.2,1262.7,121.3z"/>
<path class="st7" d="M1222.9,152.2c3.6,4.1,4,4.2,6.6,7.4c0-2,0.3-4.1,0.6-6l0-0.1l0,0c0.8-4.5,2.8-8.3,5.4-11.2
	c1.7-1.9,3.6-3.4,5.6-4.4c2.1-1.1,4.3-1.7,6.5-1.8c3.2-0.1,6.3,0.8,9,3.2c0.9,0.8,0.9,2.1,0.2,2.9c-0.5,0.6-1.4,0.8-2.1,0.6
	c-0.3-0.1-0.6,0-0.8,0.2c-0.4,0.3-0.7,0.9-1.1,1.7c0.1,1.9,0.9,3,2,3.5l0,0l0,0c0.6,0.3,1.4,0.4,2.1,0.3c0.8-0.1,1.6-0.4,2.3-0.8
	c1.6-1,2.7-2.9,2.2-5.6c-0.8-3.6-2.7-6.2-5.3-7.9c-2.6-1.7-5.8-2.5-9.2-2.4c-3.5,0.1-7.2,1.1-10.7,3c-4.5,2.5-8.6,6.5-11,11.8l0,0.1
	C1224.6,148.1,1223.6,150.4,1222.9,152.2z"/>
<path class="st10" d="M1252.9,144.7c0.1,1.9,0.9,3,2,3.5l0,0l0,0c0.6,0.3,1.4,0.4,2.1,0.3c0.8-0.1,1.6-0.4,2.3-0.8
	c1.6-1,2.7-2.9,2.2-5.6c-0.8-3.6-2.7-6.2-5.3-7.9c-2.6-1.7-5.8-2.5-9.2-2.4c-3.5,0.1-7.2,1.1-10.7,3c-4.5,2.5-8.6,6.5-11,11.8l0,0.1
	c-0.7,1.5-1.7,3.7-2.4,5.6c-0.6-0.7-1.3-1.4-2.1-2.1l0,0c-0.5-0.5-0.8-1.4-0.5-2.1c2.6-7.8,8-13.5,14.1-16.9c4-2.2,8.4-3.4,12.6-3.5
	c4.3-0.1,8.3,0.9,11.6,3.1c3.4,2.3,5.9,5.7,7,10.4h0l0,0.1c0.8,4.6-1.2,8-4.1,9.9c-1.2,0.8-2.7,1.3-4.1,1.5c-1.5,0.2-2.9,0-4.2-0.6
	l0,0c-4.5-2-6-7.6-2.7-11.4c-0.9-0.2-1.7-0.3-2.6-0.3c-1.6,0.1-3.2,0.5-4.8,1.3c-1.6,0.8-3.1,2-4.4,3.5c-3,3.4-5,8.3-4.8,14.1h0
	c0,0.6-0.2,1.3-0.8,1.7c-0.9,0.7-2.2,0.6-2.9-0.3l-0.7-0.9c0-2,0.4-4.4,0.6-6l0-0.1l0,0c0.8-4.5,2.8-8.3,5.4-11.2
	c1.7-1.9,3.6-3.4,5.6-4.4c2.1-1.1,4.3-1.7,6.5-1.8c3.2-0.1,6.3,0.8,9,3.2c0.9,0.8,0.9,2.1,0.2,2.9c-0.5,0.6-1.4,0.8-2.1,0.6
	c-0.3-0.1-0.6,0-0.8,0.2C1253.6,143.3,1253.2,143.9,1252.9,144.7z"/>
<path class="st0" d="M1121.4,280.5c-2.6-2.2-5.7-3.8-8.8-3.3c-4,0.6-6,2.6-6.7,4.9c-0.5,1.7-0.2,3.6,0.6,5.2
	c0.8,1.6,2.1,2.9,3.7,3.4l0.1,0c1.9,0.6,4,0.1,5.9-2.1c0.4-0.4,0.7-1,0.8-1.6h0c0.1-0.6,0.1-1.2,0-1.8l0,0h0c-0.2-0.6-0.5-1.2-1-1.7
	c-0.5-0.5-1.1-0.8-1.8-1c-2.4-1.2-3.4,2.1-3.4,2.1c-0.1,0.6,0.3,1.1,0.8,1.2c0.6,0.1,1.1-0.3,1.2-0.8c0,0,0.2-0.7,0.5-0.6
	c0.1,0.1,0.2,0.1,0.3,0.1c0.4,0.1,0.7,0.3,0.9,0.5c0.2,0.2,0.4,0.5,0.4,0.8h0c0.1,0.3,0.1,0.6,0,0.9h0l0,0c0,0.2-0.1,0.4-0.3,0.5
	l0,0l-0.1,0.1c-1.3,1.5-2.6,1.9-3.8,1.5l0,0c-1-0.3-1.9-1.2-2.5-2.3c-0.6-1.1-0.8-2.5-0.4-3.7c0.5-1.6,1.9-3,5-3.4
	c3.2-0.5,6.6,2,9.2,4.7l0.2,0.3h0c0.7,1.4,2,2.7,3.3,3.8l0.4,0.5c-6.1-0.6-13.5,0.2-8.9,9.1c2.5,4.9,5.7,5.2,8.7,3.6
	c1.8-0.9,3.4-2.6,4.7-4.2c-0.6,6.2,0.1,14.4,9.2,9.5c4.8-2.6,5.1-5.8,3.5-8.8c-0.9-1.6-2.4-3.1-4-4.4c6.2,0.7,13.8-0.1,9.2-9
	c-2.5-4.9-5.7-5.2-8.7-3.6c-1.8,0.9-3.4,2.6-4.7,4.2c0.6-6.2-0.1-14.4-9.2-9.5C1122.9,277,1121.7,278.7,1121.4,280.5L1121.4,280.5z
	 M1134.1,290l0-0.1c0.4-0.4,1.1-1.1,1.7-2.1c1.3-1.9,3.1-3.9,4.9-4.9c1.8-0.9,3.7-0.6,5.4,2.6C1150.3,293.3,1137.5,290.8,1134.1,290
	L1134.1,290z M1133.7,292.4l0.2,0.1c0.4,0.4,1.1,1,2.1,1.6c1.9,1.2,4,3,5,4.8c1,1.8,0.7,3.7-2.5,5.5
	C1130.7,308.6,1132.9,295.9,1133.7,292.4L1133.7,292.4z M1131.7,289.5l-0.2-0.1c-0.4-0.4-1.1-1-2.1-1.6c-1.9-1.2-4-3-5-4.8l0,0
	c-1-1.8-0.7-3.7,2.5-5.5C1134.7,273.4,1132.4,286.1,1131.7,289.5L1131.7,289.5z M1119.2,296.5c-4.1-7.9,8.7-5.4,12.1-4.6l0,0.1
	c-0.4,0.4-1.1,1.1-1.7,2.1c-1.3,1.9-3.1,3.9-4.9,4.9C1122.8,300,1120.9,299.7,1119.2,296.5z"/>
<path class="st0" d="M1138.3,268.2L1138.3,268.2c-0.2,0.3-0.6,0.8-1,1.3c-0.8,1.1-1.8,2.3-2.9,2.9c-1.1,0.6-2.2,0.4-3.2-1.5
	C1128.6,266.2,1136.2,267.7,1138.3,268.2L1138.3,268.2z M1139.7,268.4c-0.4,2.1-1.8,9.7,2.9,7.1c1.9-1,2.1-2.2,1.5-3.3
	c-0.6-1.1-1.8-2.1-3-2.9c-0.6-0.4-1-0.7-1.2-1L1139.7,268.4L1139.7,268.4z M1143,269c3.7,0.4,8.3,0,5.5-5.4
	c-1.5-2.9-3.4-3.1-5.2-2.2c-1.1,0.5-2,1.5-2.8,2.5c0.4-3.7-0.1-8.6-5.5-5.6c-1.7,0.9-2.4,2-2.6,3c-1.6-1.3-3.4-2.3-5.2-2
	c-2.4,0.3-3.6,1.5-4,2.9c-0.3,1-0.1,2.2,0.4,3.1c0.5,0.9,1.3,1.7,2.2,2l0,0c1.1,0.3,2.4,0.1,3.5-1.3c0.2-0.3,0.4-0.6,0.5-0.9h0
	c0.1-0.3,0.1-0.7,0-1.1v0l0,0c-0.1-0.4-0.3-0.7-0.6-1c-0.3-0.3-0.6-0.5-1.1-0.6c-1.5-0.7-2,1.2-2,1.2c-0.1,0.3,0.2,0.7,0.5,0.7
	c0.3,0.1,0.7-0.2,0.7-0.5c0,0,0.1-0.4,0.3-0.4c0.1,0,0.1,0.1,0.2,0.1c0.2,0.1,0.4,0.2,0.5,0.3c0.1,0.1,0.2,0.3,0.3,0.5l0,0
	c0,0.2,0,0.4,0,0.5l0,0v0c0,0.1-0.1,0.2-0.2,0.3l0,0l0,0c-0.8,0.9-1.6,1.1-2.2,0.9l0,0c-0.6-0.2-1.2-0.7-1.5-1.4
	c-0.3-0.7-0.5-1.5-0.3-2.2c0.3-0.9,1.2-1.8,3-2c1.9-0.3,3.9,1.2,5.5,2.8l0.1,0.2h0c0.4,0.8,1.2,1.6,2,2.3l0.2,0.3
	c-3.6-0.4-8,0.1-5.3,5.4c1.5,2.9,3.4,3.1,5.2,2.2c1.1-0.5,2-1.5,2.8-2.5c-0.4,3.7,0,8.6,5.5,5.7c2.9-1.6,3-3.5,2.1-5.2
	C1144.8,270.6,1143.9,269.7,1143,269L1143,269z M1147.1,264.3c2.4,4.7-5.2,3.2-7.2,2.7l0-0.1c0.2-0.3,0.6-0.7,1-1.3
	c0.8-1.1,1.8-2.3,2.9-2.9C1145,262.2,1146.2,262.4,1147.1,264.3L1147.1,264.3z M1138.5,266.7c0.4-2.1,1.8-9.6-2.9-7.1
	c-1.9,1-2.1,2.2-1.5,3.3l0,0c0.6,1.1,1.8,2.1,3,2.9c0.6,0.4,1,0.7,1.2,1L1138.5,266.7z"/>
<path class="st0" d="M1113.9,268.1L1113.9,268.1c0.2-0.2,0.5-0.5,0.7-1c0.5-0.8,1.3-1.7,2.1-2.1c0.8-0.4,1.6-0.3,2.3,1.1
	C1120.8,269.4,1115.3,268.4,1113.9,268.1L1113.9,268.1z M1112.8,267.9c0.3-1.5,1.2-6.9-2.1-5.1c-1.4,0.7-1.5,1.6-1,2.3
	c0.4,0.8,1.3,1.5,2.1,2C1112.2,267.4,1112.6,267.7,1112.8,267.9L1112.8,267.9L1112.8,267.9z M1110.5,267.5c-2.6-0.3-5.9,0.1-3.9,3.9
	c1.1,2.1,2.5,2.2,3.7,1.5c0.8-0.4,1.5-1.1,2-1.8c-0.2,2.7,0.1,6.2,3.9,4c1.2-0.7,1.7-1.4,1.8-2.2c1.1,0.9,2.4,1.6,3.8,1.4
	c1.7-0.3,2.6-1.1,2.8-2.1c0.2-0.7,0.1-1.5-0.3-2.2c-0.3-0.7-0.9-1.2-1.6-1.4l0,0c-0.8-0.2-1.7,0-2.5,0.9c-0.2,0.2-0.3,0.4-0.3,0.7h0
	c-0.1,0.2,0,0.5,0,0.8l0,0h0c0.1,0.3,0.2,0.5,0.4,0.7c0.2,0.2,0.5,0.4,0.8,0.4c1,0.5,1.4-0.9,1.4-0.9c0-0.2-0.1-0.5-0.4-0.5
	c-0.2,0-0.5,0.1-0.5,0.4c0,0-0.1,0.3-0.2,0.3c0,0-0.1,0-0.1,0c-0.2,0-0.3-0.1-0.4-0.2c-0.1-0.1-0.2-0.2-0.2-0.3l0,0
	c0-0.1,0-0.3,0-0.4l0,0v0c0-0.1,0.1-0.2,0.1-0.2l0,0l0,0c0.6-0.7,1.1-0.8,1.6-0.7l0,0c0.4,0.1,0.8,0.5,1.1,1
	c0.2,0.5,0.3,1.1,0.2,1.6c-0.2,0.7-0.8,1.3-2.1,1.5c-1.4,0.2-2.8-0.8-3.9-2l-0.1-0.1h0c-0.3-0.6-0.8-1.1-1.4-1.6l-0.2-0.2
	c2.6,0.2,5.8-0.1,3.8-3.9c-1.1-2.1-2.5-2.2-3.7-1.5c-0.8,0.4-1.4,1.1-2,1.8c0.2-2.7-0.1-6.2-3.9-4c-2,1.1-2.1,2.5-1.5,3.8
	C1109.2,266.3,1109.8,267,1110.5,267.5L1110.5,267.5z M1107.5,270.9c-1.8-3.4,3.7-2.3,5.1-2l0,0.1c-0.2,0.2-0.4,0.5-0.7,0.9
	c-0.5,0.8-1.3,1.7-2.1,2.1C1109.1,272.4,1108.2,272.3,1107.5,270.9L1107.5,270.9z M1113.7,269.1c-0.3,1.5-1.2,6.9,2.1,5.1
	c1.4-0.7,1.5-1.6,1-2.3l0,0c-0.4-0.8-1.3-1.5-2.1-2C1114.3,269.5,1114,269.3,1113.7,269.1L1113.7,269.1z"/>
<path class="st8" d="M1343.2,297.8l0,0.1c0.4,0.4,1.1,1.1,1.7,2.1c1.3,1.9,3.1,3.9,4.9,4.9c1.8,0.9,3.7,0.6,5.4-2.6
	C1359.4,294.5,1346.6,297,1343.2,297.8L1343.2,297.8z M1340.8,298.3c0.7,3.5,3,16.2-4.8,11.9c-3.2-1.7-3.4-3.7-2.5-5.5
	c1-1.8,3.1-3.6,5-4.8c0.9-0.6,1.6-1.2,2.1-1.6L1340.8,298.3L1340.8,298.3z M1335.4,299.2c-6.2,0.7-13.8-0.1-9.2-9
	c2.5-4.9,5.7-5.2,8.7-3.6c1.8,0.9,3.4,2.6,4.7,4.2c-0.6-6.2,0.1-14.4,9.2-9.5c2.8,1.5,4.1,3.3,4.3,5c2.6-2.2,5.7-3.8,8.8-3.4
	c4,0.6,6,2.6,6.7,4.9c0.5,1.7,0.2,3.6-0.6,5.2c-0.8,1.6-2.1,2.9-3.7,3.4l-0.1,0c-1.9,0.6-4,0.1-5.9-2.1c-0.4-0.4-0.7-1-0.8-1.6h0
	c-0.1-0.6-0.1-1.2,0-1.8l0,0h0c0.2-0.6,0.5-1.2,1-1.7c0.5-0.5,1.1-0.8,1.8-1c2.4-1.2,3.4,2.1,3.4,2.1c0.1,0.6-0.3,1.1-0.8,1.2
	c-0.6,0.1-1.1-0.3-1.2-0.8c0,0-0.2-0.7-0.5-0.6c-0.1,0.1-0.2,0.1-0.3,0.1c-0.4,0.1-0.7,0.3-0.9,0.5c-0.2,0.2-0.4,0.5-0.4,0.8h0
	c-0.1,0.3-0.1,0.6,0,0.9h0l0,0c0,0.2,0.1,0.4,0.3,0.6l0,0l0.1,0.1c1.3,1.5,2.6,1.9,3.8,1.5l0,0c1-0.3,1.9-1.2,2.5-2.3
	c0.6-1.1,0.8-2.5,0.4-3.7c-0.5-1.6-1.9-3-5-3.4c-3.2-0.5-6.6,2-9.2,4.7l-0.2,0.3h0c-0.7,1.4-2,2.7-3.3,3.8l-0.4,0.5
	c6.1-0.6,13.5,0.2,8.9,9.1c-2.5,4.9-5.7,5.2-8.7,3.6c-1.8-0.9-3.4-2.6-4.7-4.2c0.6,6.2-0.1,14.4-9.2,9.5c-4.8-2.6-5.1-5.8-3.5-8.8
	C1332.3,302,1333.8,300.5,1335.4,299.2L1335.4,299.2z M1328.4,291.3c-4.1,7.9,8.7,5.4,12.1,4.6l0-0.1c-0.4-0.4-1.1-1.1-1.7-2.1
	c-1.3-1.9-3.1-3.9-4.9-4.9C1332,287.8,1330,288.1,1328.4,291.3L1328.4,291.3z M1342.8,295.4c-0.7-3.5-3-16.2,4.8-11.9
	c3.2,1.7,3.4,3.7,2.5,5.5l0,0c-1,1.8-3.1,3.6-5,4.8c-0.9,0.6-1.6,1.2-2.1,1.6L1342.8,295.4z"/>
<path class="st8" d="M1336.3,274L1336.3,274c0.2,0.3,0.6,0.8,1.1,1.3c0.8,1.1,1.8,2.3,2.9,2.9c1.1,0.6,2.2,0.4,3.2-1.5
	C1345.9,272,1338.3,273.5,1336.3,274L1336.3,274z M1334.8,274.3c0.4,2.1,1.8,9.7-2.9,7.1c-1.9-1-2.1-2.2-1.5-3.3
	c0.6-1.1,1.8-2.1,3-2.9c0.6-0.4,1-0.7,1.2-1L1334.8,274.3L1334.8,274.3z M1331.6,274.8c-3.7,0.4-8.3,0-5.5-5.4
	c1.5-2.9,3.4-3.1,5.2-2.2c1.1,0.5,2,1.5,2.8,2.5c-0.4-3.7,0.1-8.6,5.5-5.6c1.7,0.9,2.4,2,2.6,3c1.6-1.3,3.4-2.3,5.2-2
	c2.4,0.3,3.6,1.5,4,2.9c0.3,1,0.1,2.2-0.4,3.1c-0.5,0.9-1.3,1.7-2.2,2l0,0c-1.1,0.3-2.4,0.1-3.5-1.3c-0.2-0.3-0.4-0.6-0.5-0.9h0
	c-0.1-0.3-0.1-0.7,0-1.1v0l0,0c0.1-0.4,0.3-0.7,0.6-1c0.3-0.3,0.6-0.5,1.1-0.6c1.5-0.7,2,1.2,2,1.2c0.1,0.3-0.2,0.7-0.5,0.7
	c-0.3,0.1-0.7-0.2-0.7-0.5c0,0-0.1-0.4-0.3-0.4c-0.1,0-0.1,0.1-0.2,0.1c-0.2,0.1-0.4,0.2-0.5,0.3c-0.1,0.1-0.2,0.3-0.3,0.5l0,0
	c0,0.2,0,0.4,0,0.5l0,0v0c0,0.1,0.1,0.2,0.2,0.3l0,0l0,0c0.8,0.9,1.6,1.1,2.2,0.9l0,0c0.6-0.2,1.2-0.7,1.5-1.4
	c0.3-0.7,0.5-1.5,0.3-2.2c-0.3-0.9-1.2-1.8-3-2c-1.9-0.3-3.9,1.2-5.5,2.8l-0.1,0.2h0c-0.4,0.8-1.2,1.6-2,2.3l-0.2,0.3
	c3.6-0.4,8,0.1,5.3,5.4c-1.5,2.9-3.4,3.1-5.2,2.2c-1.1-0.5-2-1.5-2.8-2.5c0.4,3.7,0,8.6-5.5,5.7c-2.9-1.6-3-3.5-2.1-5.2
	C1329.7,276.5,1330.6,275.6,1331.6,274.8L1331.6,274.8z M1327.4,270.1c-2.4,4.7,5.2,3.2,7.2,2.7l0-0.1c-0.2-0.3-0.6-0.7-1-1.3
	c-0.8-1.1-1.8-2.3-2.9-2.9C1329.5,268,1328.4,268.2,1327.4,270.1L1327.4,270.1z M1336,272.6c-0.4-2.1-1.8-9.6,2.9-7.1
	c1.9,1,2.1,2.2,1.5,3.3l0,0c-0.6,1.1-1.8,2.1-3,2.9c-0.6,0.4-1,0.7-1.2,1L1336,272.6z"/>
<path class="st8" d="M1360.7,273.9L1360.7,273.9c-0.2-0.2-0.5-0.5-0.7-1c-0.5-0.8-1.3-1.7-2.1-2.1c-0.8-0.4-1.6-0.3-2.3,1.1
	C1353.8,275.3,1359.2,274.2,1360.7,273.9L1360.7,273.9z M1361.7,273.7c-0.3-1.5-1.2-6.9,2.1-5.1c1.4,0.7,1.5,1.6,1,2.3
	c-0.4,0.8-1.3,1.5-2.1,2C1362.3,273.3,1362,273.5,1361.7,273.7L1361.7,273.7L1361.7,273.7z M1364,273.3c2.6-0.3,5.9,0.1,3.9,3.9
	c-1.1,2.1-2.5,2.2-3.7,1.5c-0.8-0.4-1.5-1.1-2-1.8c0.2,2.7-0.1,6.2-3.9,4c-1.2-0.7-1.7-1.4-1.8-2.2c-1.1,0.9-2.4,1.6-3.8,1.4
	c-1.7-0.3-2.6-1.1-2.8-2.1c-0.2-0.7-0.1-1.5,0.3-2.2c0.3-0.7,0.9-1.2,1.6-1.4l0,0c0.8-0.2,1.7,0,2.5,0.9c0.2,0.2,0.3,0.4,0.3,0.7h0
	c0.1,0.2,0,0.5,0,0.8l0,0h0c-0.1,0.3-0.2,0.5-0.4,0.7c-0.2,0.2-0.5,0.4-0.8,0.4c-1,0.5-1.4-0.9-1.4-0.9c0-0.2,0.1-0.5,0.4-0.5
	c0.2,0,0.5,0.1,0.5,0.4c0,0,0.1,0.3,0.2,0.3c0,0,0.1,0,0.1,0c0.2,0,0.3-0.1,0.4-0.2c0.1-0.1,0.2-0.2,0.2-0.3l0,0c0-0.1,0-0.3,0-0.4
	l0,0v0c0-0.1-0.1-0.2-0.1-0.2l0,0l0,0c-0.5-0.7-1.1-0.8-1.6-0.7l0,0c-0.4,0.1-0.8,0.5-1.1,1c-0.2,0.5-0.3,1.1-0.2,1.6
	c0.2,0.7,0.8,1.3,2.1,1.5c1.4,0.2,2.8-0.8,3.9-2l0.1-0.1h0c0.3-0.6,0.8-1.1,1.4-1.6l0.2-0.2c-2.6,0.2-5.8-0.1-3.8-3.9
	c1.1-2.1,2.5-2.2,3.7-1.5c0.8,0.4,1.4,1.1,2,1.8c-0.2-2.7,0.1-6.2,3.9-4c2,1.1,2.1,2.5,1.5,3.8
	C1365.4,272.2,1364.7,272.8,1364,273.3L1364,273.3z M1367,276.7c1.8-3.4-3.7-2.3-5.1-2l0,0.1c0.2,0.2,0.4,0.5,0.7,0.9
	c0.5,0.8,1.3,1.7,2.1,2.1C1365.4,278.2,1366.3,278.1,1367,276.7L1367,276.7z M1360.8,274.9c0.3,1.5,1.2,6.9-2.1,5.1
	c-1.4-0.7-1.5-1.6-1-2.3l0,0c0.4-0.8,1.3-1.5,2.1-2C1360.2,275.4,1360.6,275.1,1360.8,274.9L1360.8,274.9z"/>
<path class="st8" d="M1250.6,305.5L1250.6,305.5c-0.2-0.2-0.5-0.5-0.7-1c-0.5-0.8-1.3-1.7-2.1-2.1c-0.8-0.4-1.6-0.3-2.3,1.1
	C1243.7,306.9,1249.1,305.8,1250.6,305.5L1250.6,305.5z M1251.6,305.3c-0.3-1.5-1.2-6.9,2.1-5.1c1.4,0.7,1.5,1.6,1,2.3
	c-0.4,0.8-1.3,1.5-2.1,2C1252.2,304.9,1251.9,305.1,1251.6,305.3L1251.6,305.3L1251.6,305.3z M1253.9,304.9c2.6-0.3,5.9,0.1,3.9,3.9
	c-1.1,2.1-2.5,2.2-3.7,1.5c-0.8-0.4-1.5-1.1-2-1.8c0.2,2.7-0.1,6.2-3.9,4c-1.2-0.7-1.7-1.4-1.8-2.2c-1.1,0.9-2.4,1.6-3.8,1.4
	c-1.7-0.3-2.6-1.1-2.8-2.1c-0.2-0.7-0.1-1.5,0.3-2.2c0.4-0.7,0.9-1.2,1.6-1.4l0,0c0.8-0.2,1.7,0,2.5,0.9c0.2,0.2,0.3,0.4,0.3,0.7h0
	c0.1,0.2,0,0.5,0,0.8l0,0h0c-0.1,0.3-0.2,0.5-0.4,0.7c-0.2,0.2-0.5,0.4-0.8,0.4c-1,0.5-1.4-0.9-1.4-0.9c0-0.2,0.1-0.5,0.4-0.5
	c0.2,0,0.5,0.1,0.5,0.4c0,0,0.1,0.3,0.2,0.3c0,0,0.1,0,0.1,0c0.2,0,0.3-0.1,0.4-0.2c0.1-0.1,0.2-0.2,0.2-0.3l0,0c0-0.1,0-0.3,0-0.4
	l0,0v0c0-0.1-0.1-0.2-0.1-0.2l0,0l0,0c-0.6-0.7-1.1-0.8-1.6-0.7l0,0c-0.4,0.1-0.8,0.5-1.1,1c-0.2,0.5-0.3,1.1-0.2,1.6
	c0.2,0.7,0.8,1.3,2.1,1.5c1.4,0.2,2.8-0.8,3.9-2l0.1-0.1h0c0.3-0.6,0.8-1.1,1.4-1.6l0.2-0.2c-2.6,0.2-5.8-0.1-3.8-3.9
	c1.1-2.1,2.5-2.2,3.7-1.5c0.8,0.4,1.5,1.1,2,1.8c-0.2-2.7,0.1-6.2,3.9-4c2,1.1,2.1,2.5,1.5,3.8
	C1255.3,303.8,1254.6,304.4,1253.9,304.9L1253.9,304.9z M1256.9,308.3c1.8-3.4-3.7-2.3-5.1-2l0,0.1c0.2,0.2,0.4,0.5,0.7,0.9
	c0.5,0.8,1.3,1.7,2.1,2.1C1255.3,309.8,1256.2,309.7,1256.9,308.3L1256.9,308.3z M1250.7,306.6c0.3,1.5,1.2,6.9-2.1,5.1
	c-1.4-0.7-1.5-1.6-1-2.3l0,0c0.4-0.8,1.3-1.5,2.1-2C1250.2,307,1250.5,306.7,1250.7,306.6L1250.7,306.6z"/>
<path class="st9" d="M1309.9,301.9L1309.9,301.9c-0.2-0.2-0.5-0.5-0.7-1c-0.5-0.8-1.3-1.7-2.1-2.1c-0.8-0.4-1.6-0.3-2.3,1.1
	C1303,303.3,1308.5,302.2,1309.9,301.9L1309.9,301.9z M1310.9,301.7c-0.3-1.5-1.2-6.9,2.1-5.1c1.4,0.7,1.5,1.6,1,2.3
	c-0.4,0.8-1.3,1.5-2.1,2C1311.5,301.3,1311.2,301.5,1310.9,301.7L1310.9,301.7L1310.9,301.7z M1313.3,301.3c2.6-0.3,5.9,0.1,3.9,3.9
	c-1.1,2.1-2.5,2.2-3.7,1.5c-0.8-0.4-1.5-1.1-2-1.8c0.2,2.7-0.1,6.2-3.9,4c-1.2-0.7-1.7-1.4-1.8-2.2c-1.1,0.9-2.4,1.6-3.8,1.4
	c-1.7-0.3-2.6-1.1-2.8-2.1c-0.2-0.7-0.1-1.5,0.3-2.2c0.3-0.7,0.9-1.2,1.6-1.4l0,0c0.8-0.2,1.7,0,2.5,0.9c0.2,0.2,0.3,0.4,0.3,0.7h0
	c0.1,0.2,0,0.5,0,0.8l0,0h0c-0.1,0.3-0.2,0.5-0.4,0.7c-0.2,0.2-0.5,0.4-0.8,0.4c-1,0.5-1.4-0.9-1.4-0.9c0-0.2,0.1-0.5,0.4-0.5
	c0.2,0,0.5,0.1,0.5,0.4c0,0,0.1,0.3,0.2,0.3c0,0,0.1,0,0.1,0c0.2,0,0.3-0.1,0.4-0.2c0.1-0.1,0.2-0.2,0.2-0.3l0,0c0-0.1,0-0.3,0-0.4
	l0,0v0c0-0.1-0.1-0.2-0.1-0.2l0,0l0,0c-0.6-0.7-1.1-0.8-1.6-0.7l0,0c-0.4,0.1-0.8,0.5-1.1,1c-0.2,0.5-0.3,1.1-0.2,1.6
	c0.2,0.7,0.8,1.3,2.1,1.5c1.4,0.2,2.8-0.8,3.9-2l0.1-0.1h0c0.3-0.6,0.8-1.1,1.4-1.6l0.2-0.2c-2.6,0.2-5.8-0.1-3.8-3.9
	c1.1-2.1,2.5-2.2,3.7-1.5c0.8,0.4,1.5,1.1,2,1.8c-0.2-2.7,0.1-6.2,3.9-4c2,1.1,2.1,2.5,1.5,3.8
	C1314.6,300.2,1314,300.8,1313.3,301.3L1313.3,301.3z M1316.3,304.7c1.8-3.4-3.7-2.3-5.1-2l0,0.1c0.2,0.2,0.4,0.5,0.7,0.9
	c0.5,0.8,1.3,1.7,2.1,2.1C1314.7,306.2,1315.5,306.1,1316.3,304.7L1316.3,304.7z M1310.1,303c0.3,1.5,1.2,6.9-2.1,5.1
	c-1.4-0.7-1.5-1.6-1-2.3l0,0c0.4-0.8,1.3-1.5,2.1-2C1309.5,303.4,1309.8,303.1,1310.1,303L1310.1,303z"/>
<path class="st11" d="M1235.8,268.3l0,0.1c-0.4,0.4-1.1,1.1-1.7,2.1c-1.3,1.9-3.1,3.9-4.9,4.9c-1.8,0.9-3.7,0.6-5.4-2.6
	C1219.7,265,1232.4,267.5,1235.8,268.3L1235.8,268.3z M1225.9,256.9c-2.6-2.2-5.7-3.8-8.8-3.4c-4,0.6-6,2.6-6.7,4.9
	c-0.5,1.7-0.2,3.6,0.6,5.2c0.8,1.6,2.1,2.9,3.7,3.4l0.1,0c1.9,0.6,4,0.1,5.9-2.1c0.4-0.4,0.7-1,0.8-1.6h0c0.1-0.6,0.1-1.2,0-1.8l0,0
	h0c-0.2-0.6-0.5-1.2-1-1.7c-0.5-0.5-1.1-0.8-1.8-1c-2.4-1.2-3.4,2.1-3.4,2.1c-0.1,0.6,0.3,1.1,0.8,1.2s1.1-0.3,1.2-0.8
	c0,0,0.2-0.7,0.5-0.6c0.1,0.1,0.2,0.1,0.3,0.1c0.4,0.1,0.7,0.3,0.9,0.5c0.2,0.2,0.4,0.5,0.4,0.8h0c0.1,0.3,0.1,0.6,0,0.9h0l0,0
	c0,0.2-0.1,0.4-0.3,0.6l0,0l-0.1,0.1c-1.3,1.5-2.6,1.9-3.8,1.5l0,0c-1-0.3-1.9-1.2-2.5-2.3c-0.6-1.1-0.8-2.5-0.4-3.7
	c0.5-1.6,1.9-3,5-3.4c3.2-0.5,6.6,2,9.2,4.7l0.2,0.3h0c0.7,1.4,2,2.7,3.3,3.8l0.4,0.5c-6.1-0.6-13.5,0.2-8.9,9.1
	c2.5,4.9,5.7,5.2,8.7,3.6c1.8-0.9,3.4-2.6,4.7-4.2c-0.6,6.2,0.1,14.4,9.2,9.5c4.8-2.6,5.1-5.8,3.5-8.8c-0.9-1.6-2.4-3.1-4-4.4
	c6.2,0.7,13.8-0.1,9.2-9c-2.5-4.9-5.7-5.2-8.7-3.6c-1.8,0.9-3.4,2.6-4.7,4.2c0.6-6.2-0.1-14.4-9.2-9.5
	C1227.4,253.4,1226.2,255.1,1225.9,256.9L1225.9,256.9z M1238.2,268.8c-0.7,3.5-3,16.2,4.8,11.9c3.2-1.7,3.4-3.7,2.5-5.5
	c-1-1.8-3.1-3.6-5-4.8c-0.9-0.6-1.6-1.2-2.1-1.6L1238.2,268.8L1238.2,268.8z M1250.7,261.8c4.1,7.9-8.7,5.4-12.1,4.6l0-0.1
	c0.4-0.4,1-1.1,1.7-2.1c1.3-1.9,3.1-3.9,4.9-4.9C1247.1,258.3,1249,258.6,1250.7,261.8L1250.7,261.8z M1231.4,254
	c-3.2,1.7-3.4,3.7-2.5,5.5l0,0c1,1.8,3.1,3.6,5,4.8c0.9,0.6,1.6,1.2,2.1,1.6l0.2,0.1C1237,262.5,1239.2,249.8,1231.4,254z"/>
<path class="st12" d="M1222.3,252.8c1,0.4,1.9,0.9,2.8,1.6c0.2-0.4,0.5-0.8,0.8-1.2c0.8-0.9,1.9-1.8,3.5-2.7c1.8-1,3.3-1.5,4.6-1.6
	c2-0.3,3.5,0.3,4.7,1.4c1,1,1.7,2.4,2,4c0.2,0.9,0.3,2,0.3,3c0.7-0.6,1.5-1.2,2.3-1.6c1.8-1,3.8-1.3,5.7-0.7h0
	c1.9,0.6,3.6,2.2,5.1,5c2.8,5.5,1.7,8.5-1.1,10.2c-1.5,0.8-3.4,1.2-5.4,1.3c0.5,0.6,0.9,1.2,1.3,1.9c1.1,2,1.5,4.1,0.6,6.2
	c-0.7,1.7-2.2,3.3-4.7,4.7c-1.8,1-3.3,1.5-4.6,1.6c-2,0.3-3.5-0.3-4.7-1.4c-1-1-1.7-2.4-2-4c-0.2-0.9-0.3-2-0.3-3
	c-0.7,0.6-1.5,1.2-2.3,1.6l-0.1,0l0,0c-1.8,0.9-3.7,1.3-5.7,0.6c-1.9-0.6-3.6-2.2-5.1-5l0,0h0c-0.9-1.7-1.4-3.2-1.5-4.5
	c-0.1-0.7-0.1-1.3,0-1.9l-0.2,0.1c-1.4,0.5-2.8,0.5-4.1,0.1l0,0l-0.1,0c-1-0.3-1.9-0.9-2.7-1.6c-0.8-0.7-1.5-1.6-2-2.6
	c-0.5-1-0.8-2-0.9-3.1c-0.1-1.1-0.1-2.1,0.2-3.2c0.4-1.5,1.4-3,2.9-4.1c1.3-0.9,2.9-1.6,5.1-1.9
	C1218.8,251.7,1220.6,252.1,1222.3,252.8L1222.3,252.8z M1223.1,263.8c0.3-0.1,0.6-0.2,0.9-0.2c0.9-0.2,1.8-0.3,2.8-0.3
	c-1.9-2.4-1.6-3.1-5.2-5.2c-0.9-0.5-1.9-0.9-2.8-1c0.2,0.1,0.4,0.1,0.5,0.2c0.4,0.1,0.8,0.3,1.2,0.5c0.4,0.3,0.8,0.6,1.2,0.9
	C1223.2,260.2,1223.5,261.8,1223.1,263.8z"/>
<path class="st8" d="M1235.8,268.3l0,0.1c-0.4,0.4-1.1,1.1-1.7,2.1c-1.3,1.9-3.1,3.9-4.9,4.9c-1.8,0.9-3.7,0.6-5.4-2.6
	C1219.7,265,1232.4,267.5,1235.8,268.3L1235.8,268.3z M1225.9,256.9c-2.6-2.2-5.7-3.8-8.8-3.4c-4,0.6-6,2.6-6.7,4.9
	c-0.5,1.7-0.2,3.6,0.6,5.2c0.8,1.6,2.1,2.9,3.7,3.4l0.1,0c1.9,0.6,4,0.1,5.9-2.1c0.4-0.4,0.7-1,0.8-1.6h0c0.1-0.6,0.1-1.2,0-1.8l0,0
	h0c-0.2-0.6-0.5-1.2-1-1.7c-0.5-0.5-1.1-0.8-1.8-1c-2.4-1.2-3.4,2.1-3.4,2.1c-0.1,0.6,0.3,1.1,0.8,1.2s1.1-0.3,1.2-0.8
	c0,0,0.2-0.7,0.5-0.6c0.1,0.1,0.2,0.1,0.3,0.1c0.4,0.1,0.7,0.3,0.9,0.5c0.2,0.2,0.4,0.5,0.4,0.8h0c0.1,0.3,0.1,0.6,0,0.9h0l0,0
	c0,0.2-0.1,0.4-0.3,0.6l0,0l-0.1,0.1c-1.3,1.5-2.6,1.9-3.8,1.5l0,0c-1-0.3-1.9-1.2-2.5-2.3c-0.6-1.1-0.8-2.5-0.4-3.7
	c0.5-1.6,1.9-3,5-3.4c3.2-0.5,6.6,2,9.2,4.7l0.2,0.3h0c0.7,1.4,2,2.7,3.3,3.8l0.4,0.5c-6.1-0.6-13.5,0.2-8.9,9.1
	c2.5,4.9,5.7,5.2,8.7,3.6c1.8-0.9,3.4-2.6,4.7-4.2c-0.6,6.2,0.1,14.4,9.2,9.5c4.8-2.6,5.1-5.8,3.5-8.8c-0.9-1.6-2.4-3.1-4-4.4
	c6.2,0.7,13.8-0.1,9.2-9c-2.5-4.9-5.7-5.2-8.7-3.6c-1.8,0.9-3.4,2.6-4.7,4.2c0.6-6.2-0.1-14.4-9.2-9.5
	C1227.4,253.4,1226.2,255.1,1225.9,256.9L1225.9,256.9z M1238.2,268.8c-0.7,3.5-3,16.2,4.8,11.9c3.2-1.7,3.4-3.7,2.5-5.5
	c-1-1.8-3.1-3.6-5-4.8c-0.9-0.6-1.6-1.2-2.1-1.6L1238.2,268.8L1238.2,268.8z M1250.7,261.8c4.1,7.9-8.7,5.4-12.1,4.6l0-0.1
	c0.4-0.4,1-1.1,1.7-2.1c1.3-1.9,3.1-3.9,4.9-4.9C1247.1,258.3,1249,258.6,1250.7,261.8L1250.7,261.8z M1231.4,254
	c-3.2,1.7-3.4,3.7-2.5,5.5l0,0c1,1.8,3.1,3.6,5,4.8c0.9,0.6,1.6,1.2,2.1,1.6l0.2,0.1C1237,262.5,1239.2,249.8,1231.4,254z"/>
<path class="st11" d="M1312.2,285.8l0,0.1c-0.3,0.3-0.8,0.9-1.3,1.6c-1,1.4-2.3,3-3.8,3.7c-1.4,0.7-2.9,0.5-4.2-2
	C1299.8,283.2,1309.6,285.2,1312.2,285.8L1312.2,285.8z M1304.6,277c-2-1.7-4.4-2.9-6.7-2.6c-3.1,0.4-4.6,2-5.1,3.8
	c-0.4,1.3-0.2,2.8,0.5,4c0.6,1.2,1.6,2.2,2.9,2.6l0,0c1.4,0.4,3.1,0.1,4.5-1.6c0.3-0.3,0.5-0.7,0.6-1.2h0c0.1-0.4,0.1-0.9,0-1.4l0,0
	h0c-0.1-0.5-0.4-0.9-0.7-1.3c-0.4-0.4-0.8-0.6-1.4-0.8c-1.9-0.9-2.6,1.6-2.6,1.6c-0.1,0.4,0.2,0.9,0.6,0.9c0.4,0.1,0.9-0.2,0.9-0.6
	c0,0,0.1-0.5,0.4-0.5c0.1,0,0.1,0.1,0.2,0.1c0.3,0.1,0.5,0.2,0.7,0.4c0.2,0.2,0.3,0.4,0.3,0.6h0c0.1,0.2,0.1,0.5,0,0.7h0l0,0
	c0,0.2-0.1,0.3-0.2,0.4l0,0l0,0c-1,1.2-2,1.4-2.9,1.2l0,0c-0.8-0.3-1.5-0.9-1.9-1.8c-0.4-0.9-0.6-1.9-0.3-2.8
	c0.3-1.2,1.5-2.3,3.8-2.6c2.5-0.3,5,1.5,7,3.6l0.1,0.3h0c0.6,1.1,1.5,2.1,2.5,2.9l0.3,0.4c-4.7-0.5-10.3,0.2-6.8,7
	c1.9,3.7,4.4,4,6.7,2.8c1.4-0.7,2.6-2,3.6-3.3c-0.5,4.8,0.1,11.1,7,7.3c3.7-2,3.9-4.5,2.7-6.7c-0.7-1.2-1.8-2.4-3-3.4
	c4.7,0.5,10.6,0,7.1-6.9c-1.9-3.7-4.4-4-6.7-2.8c-1.4,0.7-2.6,2-3.6,3.3c0.5-4.8-0.1-11.1-7-7.3
	C1305.7,274.3,1304.8,275.6,1304.6,277L1304.6,277z M1314,286.1c-0.6,2.7-2.3,12.4,3.7,9.2c2.4-1.3,2.6-2.8,1.9-4.2
	c-0.8-1.4-2.4-2.7-3.8-3.7c-0.7-0.5-1.3-0.9-1.6-1.2L1314,286.1L1314,286.1z M1323.6,280.8c3.1,6.1-6.7,4.1-9.3,3.5l0-0.1
	c0.3-0.3,0.8-0.9,1.3-1.6c1-1.4,2.3-3,3.8-3.7C1320.8,278.1,1322.3,278.3,1323.6,280.8L1323.6,280.8z M1308.8,274.7
	c-2.4,1.3-2.6,2.8-1.9,4.2l0,0c0.8,1.4,2.4,2.7,3.8,3.7c0.7,0.5,1.3,0.9,1.6,1.2l0.2,0C1313.1,281.3,1314.8,271.5,1308.8,274.7z"/>
<path class="st12" d="M1302,273.5c0.7,0.3,1.3,0.6,1.9,1c0.1-0.2,0.3-0.4,0.5-0.7c0.7-0.8,1.6-1.5,2.8-2.1l0,0
	c1.4-0.8,2.6-1.2,3.6-1.3c1.7-0.2,2.9,0.2,3.9,1.2c0.9,0.8,1.4,2,1.7,3.3c0.1,0.5,0.2,1.1,0.2,1.7c0.4-0.3,0.9-0.6,1.3-0.8l0,0
	c1.5-0.8,3.1-1.1,4.7-0.5l0,0c1.5,0.5,2.9,1.7,4.1,4l0,0c2.3,4.4,1.3,6.9-1,8.3c-1,0.6-2.3,0.9-3.6,1c0.2,0.3,0.4,0.6,0.6,1h0
	c0.9,1.6,1.2,3.3,0.5,5v0c-0.5,1.4-1.7,2.7-3.8,3.8c-1.4,0.8-2.6,1.2-3.6,1.3c-1.7,0.2-2.9-0.2-3.9-1.2c-0.9-0.8-1.4-2-1.7-3.3
	c-0.1-0.5-0.2-1.1-0.2-1.7c-0.4,0.3-0.9,0.6-1.3,0.8l0,0c-1.5,0.8-3.1,1.1-4.7,0.5h0c-1.5-0.5-2.9-1.7-4.1-4l0,0h0
	c-0.7-1.4-1.1-2.6-1.2-3.6c0-0.3-0.1-0.7,0-1c-1,0.3-2,0.2-3-0.1v0l-0.1,0c-0.8-0.3-1.6-0.7-2.2-1.3c-0.6-0.6-1.2-1.3-1.6-2.1
	c-0.4-0.8-0.7-1.6-0.8-2.5h0c-0.1-0.9,0-1.7,0.2-2.6c0.4-1.3,1.1-2.4,2.3-3.3c1-0.7,2.4-1.3,4.1-1.5
	C1299.1,272.6,1300.6,272.9,1302,273.5L1302,273.5z M1303.1,281.7c0.4-0.1,0.9-0.1,1.4-0.2c-0.7-0.9-1.2-1.7-2.2-2.4
	C1302.7,279.9,1302.9,280.9,1303.1,281.7L1303.1,281.7z M1296.6,280L1296.6,280L1296.6,280L1296.6,280L1296.6,280L1296.6,280z
	 M1296.5,280L1296.5,280l0.1-0.1L1296.5,280L1296.5,280z M1296.5,280L1296.5,280L1296.5,280L1296.5,280L1296.5,280z"/>
<path class="st8" d="M1312.2,285.8l0,0.1c-0.3,0.3-0.8,0.9-1.3,1.6c-1,1.4-2.3,3-3.8,3.7c-1.4,0.7-2.9,0.5-4.2-2
	C1299.8,283.2,1309.6,285.2,1312.2,285.8L1312.2,285.8z M1304.6,277c-2-1.7-4.4-2.9-6.7-2.6c-3.1,0.4-4.6,2-5.1,3.8
	c-0.4,1.3-0.2,2.8,0.5,4c0.6,1.2,1.6,2.2,2.9,2.6l0,0c1.4,0.4,3.1,0.1,4.5-1.6c0.3-0.3,0.5-0.7,0.6-1.2h0c0.1-0.4,0.1-0.9,0-1.4l0,0
	h0c-0.1-0.5-0.4-0.9-0.7-1.3c-0.4-0.4-0.8-0.6-1.4-0.8c-1.9-0.9-2.6,1.6-2.6,1.6c-0.1,0.4,0.2,0.9,0.6,0.9c0.4,0.1,0.9-0.2,0.9-0.6
	c0,0,0.1-0.5,0.4-0.5c0.1,0,0.1,0.1,0.2,0.1c0.3,0.1,0.5,0.2,0.7,0.4c0.2,0.2,0.3,0.4,0.3,0.6h0c0.1,0.2,0.1,0.5,0,0.7h0l0,0
	c0,0.2-0.1,0.3-0.2,0.4l0,0l0,0c-1,1.2-2,1.4-2.9,1.2l0,0c-0.8-0.3-1.5-0.9-1.9-1.8c-0.4-0.9-0.6-1.9-0.3-2.8
	c0.3-1.2,1.5-2.3,3.8-2.6c2.5-0.3,5,1.5,7,3.6l0.1,0.3h0c0.6,1.1,1.5,2.1,2.5,2.9l0.3,0.4c-4.7-0.5-10.3,0.2-6.8,7
	c1.9,3.7,4.4,4,6.7,2.8c1.4-0.7,2.6-2,3.6-3.3c-0.5,4.8,0.1,11.1,7,7.3c3.7-2,3.9-4.5,2.7-6.7c-0.7-1.2-1.8-2.4-3-3.4
	c4.7,0.5,10.6,0,7.1-6.9c-1.9-3.7-4.4-4-6.7-2.8c-1.4,0.7-2.6,2-3.6,3.3c0.5-4.8-0.1-11.1-7-7.3
	C1305.7,274.3,1304.8,275.6,1304.6,277L1304.6,277z M1314,286.1c-0.6,2.7-2.3,12.4,3.7,9.2c2.4-1.3,2.6-2.8,1.9-4.2
	c-0.8-1.4-2.4-2.7-3.8-3.7c-0.7-0.5-1.3-0.9-1.6-1.2L1314,286.1L1314,286.1z M1323.6,280.8c3.1,6.1-6.7,4.1-9.3,3.5l0-0.1
	c0.3-0.3,0.8-0.9,1.3-1.6c1-1.4,2.3-3,3.8-3.7C1320.8,278.1,1322.3,278.3,1323.6,280.8L1323.6,280.8z M1308.8,274.7
	c-2.4,1.3-2.6,2.8-1.9,4.2l0,0c0.8,1.4,2.4,2.7,3.8,3.7c0.7,0.5,1.3,0.9,1.6,1.2l0.2,0C1313.1,281.3,1314.8,271.5,1308.8,274.7z"/>
<path class="st11" d="M1201.9,285l0,0.1c-0.3,0.3-0.8,0.8-1.3,1.6c-0.9,1.4-2.3,2.9-3.6,3.6c-1.3,0.7-2.8,0.5-4-1.9
	C1189.9,282.6,1199.3,284.5,1201.9,285L1201.9,285z M1194.6,276.6c-1.9-1.6-4.2-2.8-6.5-2.5c-3,0.4-4.4,1.9-4.9,3.6
	c-0.4,1.3-0.2,2.7,0.4,3.8c0.6,1.2,1.6,2.1,2.8,2.5l0,0c1.4,0.4,2.9,0.1,4.4-1.6c0.3-0.3,0.5-0.7,0.6-1.2h0c0.1-0.4,0.1-0.9,0-1.3
	l0,0h0c-0.1-0.5-0.4-0.9-0.7-1.3c-0.3-0.3-0.8-0.6-1.4-0.8c-1.8-0.9-2.5,1.5-2.5,1.5c-0.1,0.4,0.2,0.8,0.6,0.9
	c0.4,0.1,0.8-0.2,0.9-0.6c0,0,0.1-0.5,0.4-0.4c0.1,0,0.1,0.1,0.2,0.1c0.3,0.1,0.5,0.2,0.7,0.4c0.2,0.2,0.3,0.4,0.3,0.6h0
	c0.1,0.2,0.1,0.4,0,0.6h0l0,0c0,0.2-0.1,0.3-0.2,0.4l0,0l0,0c-1,1.1-1.9,1.4-2.8,1.1l0,0c-0.8-0.2-1.4-0.9-1.9-1.7
	c-0.4-0.8-0.6-1.8-0.3-2.7c0.3-1.2,1.4-2.2,3.7-2.5c2.4-0.3,4.8,1.5,6.8,3.5l0.1,0.3h0c0.6,1,1.4,2,2.4,2.8l0.3,0.4
	c-4.5-0.4-9.9,0.2-6.6,6.7c1.9,3.6,4.2,3.8,6.4,2.7c1.3-0.7,2.5-1.9,3.5-3.1c-0.4,4.6,0.1,10.6,6.8,7c3.5-1.9,3.7-4.3,2.6-6.5
	c-0.6-1.2-1.8-2.3-2.9-3.2c4.5,0.5,10.2,0,6.8-6.7c-1.9-3.6-4.2-3.8-6.4-2.7c-1.3,0.7-2.5,1.9-3.5,3.1c0.4-4.6-0.1-10.6-6.8-7
	C1195.7,274,1194.7,275.3,1194.6,276.6L1194.6,276.6z M1203.6,285.4c-0.5,2.6-2.2,11.9,3.5,8.8c2.3-1.3,2.5-2.7,1.8-4
	c-0.7-1.4-2.3-2.6-3.7-3.6c-0.7-0.5-1.2-0.9-1.5-1.2L1203.6,285.4L1203.6,285.4z M1212.9,280.2c3,5.8-6.4,4-8.9,3.4l0-0.1
	c0.3-0.3,0.8-0.8,1.3-1.6c0.9-1.4,2.3-2.9,3.6-3.6C1210.2,277.6,1211.6,277.9,1212.9,280.2L1212.9,280.2z M1198.6,274.4
	c-2.3,1.3-2.5,2.7-1.8,4l0,0c0.7,1.3,2.3,2.6,3.7,3.5c0.7,0.5,1.2,0.9,1.5,1.2l0.2,0C1202.7,280.7,1204.4,271.3,1198.6,274.4z"/>
<path class="st12" d="M1192.1,273.2c0.6,0.3,1.2,0.6,1.8,1c0.1-0.2,0.3-0.4,0.4-0.6c0.6-0.7,1.5-1.4,2.7-2.1l0,0
	c4.4-2.4,6.8-1.4,8.2,1v0c0.6,1,0.8,2.2,1,3.6c0.4-0.3,0.8-0.5,1.2-0.7l0,0l0.2-0.1l0.2-0.1h0c1.4-0.6,2.8-0.8,4.2-0.3l0,0
	c1.4,0.5,2.7,1.6,3.8,3.6l0,0l0.1,0.2c2.2,4.3,1.3,6.7-1,8.1c-0.9,0.5-2.1,0.8-3.4,0.9c0.2,0.3,0.4,0.6,0.5,0.9l0,0
	c0.8,1.4,1.1,3,0.6,4.5c-0.5,1.5-1.6,2.9-3.8,4l-0.4,0.2h0c-1.2,0.6-2.2,0.9-3.1,1.1c-1.6,0.2-2.8-0.2-3.8-1.1
	c-0.8-0.8-1.3-1.9-1.6-3.2c-0.1-0.5-0.2-1-0.2-1.5c-0.4,0.3-0.7,0.4-1.1,0.7c-1.5,0.8-3,1.1-4.7,0.6l0,0c-1.5-0.5-2.8-1.7-4-3.9l0,0
	c-0.9-1.7-1.3-3.1-1.3-4.3c-1,0.2-1.9,0.2-2.8-0.1v0l0,0l0,0c-0.8-0.3-1.5-0.7-2.1-1.3c-0.6-0.6-1.1-1.3-1.5-2
	c-0.4-0.8-0.6-1.6-0.7-2.5v0c-0.1-0.8,0-1.7,0.2-2.5c0.4-1.2,1.1-2.4,2.3-3.2c1-0.7,2.3-1.3,3.9-1.5
	C1189.3,272.4,1190.7,272.6,1192.1,273.2L1192.1,273.2L1192.1,273.2z M1192.8,279.4L1192.8,279.4L1192.8,279.4l0,0.2l0.4,1.5
	c0.4-0.1,0.8-0.1,1.2-0.2l0,0h-0.1l-0.4-0.8l0,0c-0.4-0.4-0.8-0.8-1.2-1.1C1192.6,279.1,1192.7,279.2,1192.8,279.4L1192.8,279.4z
	 M1186.8,279.5L1186.8,279.5L1186.8,279.5L1186.8,279.5L1186.8,279.5L1186.8,279.5z M1186.8,279.5L1186.8,279.5l0.1-0.1
	C1186.8,279.4,1186.8,279.5,1186.8,279.5z"/>
<path class="st0" d="M1201.9,285l0,0.1c-0.3,0.3-0.8,0.8-1.3,1.6c-0.9,1.4-2.3,2.9-3.6,3.6c-1.3,0.7-2.8,0.5-4-1.9
	C1189.9,282.6,1199.3,284.5,1201.9,285L1201.9,285z M1194.6,276.6c-1.9-1.6-4.2-2.8-6.5-2.5c-3,0.4-4.4,1.9-4.9,3.6
	c-0.4,1.3-0.2,2.7,0.4,3.8c0.6,1.2,1.6,2.1,2.8,2.5l0,0c1.4,0.4,2.9,0.1,4.4-1.6c0.3-0.3,0.5-0.7,0.6-1.2h0c0.1-0.4,0.1-0.9,0-1.3
	l0,0h0c-0.1-0.5-0.4-0.9-0.7-1.3c-0.3-0.3-0.8-0.6-1.4-0.8c-1.8-0.9-2.5,1.5-2.5,1.5c-0.1,0.4,0.2,0.8,0.6,0.9
	c0.4,0.1,0.8-0.2,0.9-0.6c0,0,0.1-0.5,0.4-0.4c0.1,0,0.1,0.1,0.2,0.1c0.3,0.1,0.5,0.2,0.7,0.4c0.2,0.2,0.3,0.4,0.3,0.6h0
	c0.1,0.2,0.1,0.4,0,0.6h0l0,0c0,0.2-0.1,0.3-0.2,0.4l0,0l0,0c-1,1.1-1.9,1.4-2.8,1.1l0,0c-0.8-0.2-1.4-0.9-1.9-1.7
	c-0.4-0.8-0.6-1.8-0.3-2.7c0.3-1.2,1.4-2.2,3.7-2.5c2.4-0.3,4.8,1.5,6.8,3.5l0.1,0.3h0c0.6,1,1.4,2,2.4,2.8l0.3,0.4
	c-4.5-0.4-9.9,0.2-6.6,6.7c1.9,3.6,4.2,3.8,6.4,2.7c1.3-0.7,2.5-1.9,3.5-3.1c-0.4,4.6,0.1,10.6,6.8,7c3.5-1.9,3.7-4.3,2.6-6.5
	c-0.6-1.2-1.8-2.3-2.9-3.2c4.5,0.5,10.2,0,6.8-6.7c-1.9-3.6-4.2-3.8-6.4-2.7c-1.3,0.7-2.5,1.9-3.5,3.1c0.4-4.6-0.1-10.6-6.8-7
	C1195.7,274,1194.7,275.3,1194.6,276.6L1194.6,276.6z M1203.6,285.4c-0.5,2.6-2.2,11.9,3.5,8.8c2.3-1.3,2.5-2.7,1.8-4
	c-0.7-1.4-2.3-2.6-3.7-3.6c-0.7-0.5-1.2-0.9-1.5-1.2L1203.6,285.4L1203.6,285.4z M1212.9,280.2c3,5.8-6.4,4-8.9,3.4l0-0.1
	c0.3-0.3,0.8-0.8,1.3-1.6c0.9-1.4,2.3-2.9,3.6-3.6C1210.2,277.6,1211.6,277.9,1212.9,280.2L1212.9,280.2z M1198.6,274.4
	c-2.3,1.3-2.5,2.7-1.8,4l0,0c0.7,1.3,2.3,2.6,3.7,3.5c0.7,0.5,1.2,0.9,1.5,1.2l0.2,0C1202.7,280.7,1204.4,271.3,1198.6,274.4z"/>
<path class="st11" d="M1224,304l0,0.1c-0.4,0.4-1.1,1.1-1.7,2.1c-1.3,1.9-3.1,3.9-4.9,4.9c-1.8,0.9-3.7,0.6-5.4-2.6
	C1207.8,300.6,1220.6,303.2,1224,304L1224,304z M1214.1,292.5c-2.6-2.2-5.7-3.8-8.8-3.4c-4,0.6-6,2.6-6.7,4.9
	c-0.5,1.7-0.2,3.6,0.6,5.2c0.8,1.6,2.1,2.9,3.7,3.4l0.1,0c1.9,0.6,4,0.1,5.9-2.1c0.4-0.4,0.7-1,0.8-1.6h0c0.1-0.6,0.1-1.2,0-1.8l0,0
	h0c-0.2-0.6-0.5-1.2-1-1.7c-0.5-0.5-1.1-0.8-1.8-1c-2.4-1.2-3.4,2.1-3.4,2.1c-0.1,0.6,0.3,1.1,0.8,1.2c0.6,0.1,1.1-0.3,1.2-0.8
	c0,0,0.2-0.7,0.5-0.6c0.1,0.1,0.2,0.1,0.3,0.1c0.4,0.1,0.7,0.3,0.9,0.5c0.2,0.2,0.4,0.5,0.4,0.8h0c0.1,0.3,0.1,0.6,0,0.9h0l0,0
	c0,0.2-0.1,0.4-0.3,0.5l0,0l-0.1,0.1c-1.3,1.5-2.6,1.9-3.8,1.5l0,0c-1-0.3-1.9-1.2-2.5-2.3c-0.6-1.1-0.8-2.5-0.4-3.7
	c0.5-1.6,1.9-3,5-3.4c3.2-0.5,6.6,2,9.2,4.7l0.2,0.3h0c0.7,1.4,2,2.7,3.3,3.8l0.4,0.5c-6.1-0.6-13.5,0.2-8.9,9.1
	c2.5,4.9,5.7,5.2,8.7,3.6c1.8-0.9,3.4-2.6,4.7-4.2c-0.6,6.2,0.1,14.4,9.2,9.5c4.8-2.6,5.1-5.8,3.5-8.8c-0.9-1.6-2.4-3.1-4-4.4
	c6.2,0.7,13.8-0.1,9.2-9c-2.5-4.9-5.7-5.2-8.7-3.6c-1.8,0.9-3.4,2.6-4.7,4.2c0.6-6.2-0.1-14.4-9.2-9.5
	C1215.6,289,1214.3,290.7,1214.1,292.5L1214.1,292.5z M1226.4,304.4c-0.7,3.5-3,16.2,4.8,11.9c3.2-1.7,3.4-3.7,2.5-5.5
	c-1-1.8-3.1-3.6-5-4.8c-0.9-0.6-1.6-1.2-2.1-1.6L1226.4,304.4L1226.4,304.4z M1238.9,297.4c4.1,7.9-8.7,5.4-12.1,4.6l0-0.1
	c0.4-0.4,1-1.1,1.7-2.1c1.3-1.9,3.1-3.9,4.9-4.9C1235.2,293.9,1237.2,294.2,1238.9,297.4L1238.9,297.4z M1219.6,289.6
	c-3.2,1.7-3.4,3.7-2.5,5.5l0,0c1,1.8,3.1,3.6,5,4.8c0.9,0.6,1.6,1.2,2.1,1.6l0.2,0.1C1225.1,298.1,1227.4,285.4,1219.6,289.6z"/>
<path class="st12" d="M1210.5,288.4c1,0.4,1.9,0.9,2.8,1.6c0.2-0.4,0.5-0.8,0.8-1.2c0.8-0.9,1.9-1.8,3.5-2.7c1.8-1,3.3-1.5,4.6-1.6
	c2-0.3,3.5,0.3,4.7,1.4c1,1,1.7,2.4,2,4c0.2,0.9,0.3,2,0.3,3c0.7-0.6,1.5-1.2,2.3-1.6c1.8-1,3.8-1.3,5.7-0.7h0
	c1.9,0.6,3.6,2.2,5.1,5c2.8,5.5,1.7,8.5-1.1,10.2c-1.5,0.8-3.4,1.2-5.4,1.3c0.5,0.6,0.9,1.2,1.3,1.9c1.1,2,1.5,4.1,0.6,6.2
	c-0.7,1.7-2.2,3.3-4.7,4.7c-1.8,1-3.3,1.5-4.6,1.6c-2,0.3-3.5-0.3-4.7-1.4c-1-1-1.7-2.4-2-4c-0.2-0.9-0.3-2-0.3-3
	c-0.7,0.6-1.5,1.2-2.3,1.6l-0.1,0l0,0c-1.8,0.9-3.7,1.3-5.7,0.6c-1.9-0.6-3.6-2.2-5.1-5l0,0h0c-0.9-1.7-1.4-3.2-1.5-4.5
	c-0.1-0.7-0.1-1.3,0-1.9l-0.2,0.1c-1.4,0.5-2.8,0.5-4.1,0.1l0,0l-0.1,0c-1-0.3-1.9-0.9-2.7-1.6c-0.8-0.7-1.5-1.6-2-2.6
	c-0.5-1-0.8-2-0.9-3.1c-0.1-1.1-0.1-2.1,0.2-3.2c0.4-1.5,1.4-3,2.9-4.1c1.3-0.9,2.9-1.6,5.1-1.9
	C1207,287.4,1208.8,287.7,1210.5,288.4L1210.5,288.4z M1212.1,299.2c0.9-0.2,1.8-0.3,2.8-0.3c-1.9-2.4-1.6-3.1-5.2-5.2
	c-0.9-0.5-1.9-0.9-2.8-1c0.2,0.1,0.4,0.1,0.5,0.2c0.4,0.1,0.8,0.3,1.2,0.5c0.4,0.3,0.8,0.6,1.2,0.9c0.3,0.3,0.6,0.7,0.8,1.1
	c0.2,0.4,0.4,0.9,0.5,1.3C1211.4,297.6,1211.8,298.3,1212.1,299.2L1212.1,299.2z M1203.6,293.5L1203.6,293.5
	c0.1-0.1,0.2-0.2,0.3-0.2c-0.2,0.1-0.5,0.2-0.6,0.4c-0.6,0.4-0.9,0.9-1.1,1.4c-0.1,0.3-0.1,0.7-0.1,1c0.1-0.2,0.2-0.6,0.3-0.8h0
	C1202.6,294.7,1203,294,1203.6,293.5z"/>
<path class="st8" d="M1224,304l0,0.1c-0.4,0.4-1.1,1.1-1.7,2.1c-1.3,1.9-3.1,3.9-4.9,4.9c-1.8,0.9-3.7,0.6-5.4-2.6
	C1207.8,300.6,1220.6,303.2,1224,304L1224,304z M1214.1,292.5c-2.6-2.2-5.7-3.8-8.8-3.4c-4,0.6-6,2.6-6.7,4.9
	c-0.5,1.7-0.2,3.6,0.6,5.2c0.8,1.6,2.1,2.9,3.7,3.4l0.1,0c1.9,0.6,4,0.1,5.9-2.1c0.4-0.4,0.7-1,0.8-1.6h0c0.1-0.6,0.1-1.2,0-1.8l0,0
	h0c-0.2-0.6-0.5-1.2-1-1.7c-0.5-0.5-1.1-0.8-1.8-1c-2.4-1.2-3.4,2.1-3.4,2.1c-0.1,0.6,0.3,1.1,0.8,1.2c0.6,0.1,1.1-0.3,1.2-0.8
	c0,0,0.2-0.7,0.5-0.6c0.1,0.1,0.2,0.1,0.3,0.1c0.4,0.1,0.7,0.3,0.9,0.5c0.2,0.2,0.4,0.5,0.4,0.8h0c0.1,0.3,0.1,0.6,0,0.9h0l0,0
	c0,0.2-0.1,0.4-0.3,0.5l0,0l-0.1,0.1c-1.3,1.5-2.6,1.9-3.8,1.5l0,0c-1-0.3-1.9-1.2-2.5-2.3c-0.6-1.1-0.8-2.5-0.4-3.7
	c0.5-1.6,1.9-3,5-3.4c3.2-0.5,6.6,2,9.2,4.7l0.2,0.3h0c0.7,1.4,2,2.7,3.3,3.8l0.4,0.5c-6.1-0.6-13.5,0.2-8.9,9.1
	c2.5,4.9,5.7,5.2,8.7,3.6c1.8-0.9,3.4-2.6,4.7-4.2c-0.6,6.2,0.1,14.4,9.2,9.5c4.8-2.6,5.1-5.8,3.5-8.8c-0.9-1.6-2.4-3.1-4-4.4
	c6.2,0.7,13.8-0.1,9.2-9c-2.5-4.9-5.7-5.2-8.7-3.6c-1.8,0.9-3.4,2.6-4.7,4.2c0.6-6.2-0.1-14.4-9.2-9.5
	C1215.6,289,1214.3,290.7,1214.1,292.5L1214.1,292.5z M1226.4,304.4c-0.7,3.5-3,16.2,4.8,11.9c3.2-1.7,3.4-3.7,2.5-5.5
	c-1-1.8-3.1-3.6-5-4.8c-0.9-0.6-1.6-1.2-2.1-1.6L1226.4,304.4L1226.4,304.4z M1238.9,297.4c4.1,7.9-8.7,5.4-12.1,4.6l0-0.1
	c0.4-0.4,1-1.1,1.7-2.1c1.3-1.9,3.1-3.9,4.9-4.9C1235.2,293.9,1237.2,294.2,1238.9,297.4L1238.9,297.4z M1219.6,289.6
	c-3.2,1.7-3.4,3.7-2.5,5.5l0,0c1,1.8,3.1,3.6,5,4.8c0.9,0.6,1.6,1.2,2.1,1.6l0.2,0.1C1225.1,298.1,1227.4,285.4,1219.6,289.6z"/>
<path class="st11" d="M1280.1,298.2l0,0.1c-0.4,0.4-1,1.1-1.7,2.1c-1.3,1.8-3,3.9-4.8,4.8c-1.8,0.9-3.7,0.6-5.3-2.5
	C1264.3,294.9,1276.8,297.4,1280.1,298.2L1280.1,298.2z M1270.4,286.9c-2.6-2.1-5.6-3.7-8.6-3.3c-3.9,0.5-5.9,2.5-6.6,4.8
	c-0.5,1.7-0.2,3.6,0.6,5.1c0.8,1.6,2.1,2.8,3.7,3.3l0.1,0c1.8,0.6,3.9,0.1,5.8-2.1c0.4-0.4,0.7-1,0.8-1.5h0c0.1-0.6,0.1-1.2,0-1.8
	l0,0h0c-0.2-0.6-0.5-1.2-0.9-1.7c-0.5-0.5-1.1-0.8-1.8-1c-2.4-1.1-3.3,2-3.3,2c-0.1,0.6,0.2,1.1,0.8,1.2c0.6,0.1,1.1-0.2,1.2-0.8
	c0,0,0.2-0.7,0.5-0.6c0.1,0.1,0.2,0.1,0.3,0.1c0.4,0.1,0.7,0.3,0.9,0.5c0.2,0.2,0.4,0.5,0.4,0.8h0c0.1,0.3,0.1,0.6,0,0.8h0l0,0
	c0,0.2-0.1,0.4-0.3,0.5l0,0l-0.1,0.1c-1.3,1.5-2.6,1.8-3.7,1.5l0,0c-1-0.3-1.9-1.2-2.5-2.3c-0.6-1.1-0.8-2.4-0.4-3.6
	c0.4-1.6,1.9-2.9,4.9-3.3c3.2-0.4,6.4,2,9,4.6l0.2,0.3h0c0.7,1.4,1.9,2.6,3.2,3.7l0.4,0.5c-6-0.6-13.2,0.2-8.7,8.9
	c2.5,4.8,5.6,5.1,8.6,3.6c1.7-0.9,3.4-2.5,4.7-4.2c-0.6,6.1,0.1,14.2,9,9.3c4.7-2.6,5-5.7,3.4-8.6c-0.9-1.6-2.3-3.1-3.9-4.3
	c6,0.6,13.6-0.1,9-8.9c-2.5-4.8-5.6-5.1-8.6-3.6c-1.7,0.9-3.4,2.5-4.7,4.2c0.6-6.1-0.1-14.1-9-9.3
	C1271.9,283.5,1270.7,285.2,1270.4,286.9L1270.4,286.9z M1282.5,298.6c-0.7,3.4-3,15.9,4.7,11.7c3.1-1.7,3.4-3.6,2.4-5.4
	c-1-1.8-3-3.5-4.9-4.7c-0.9-0.6-1.6-1.2-2-1.6L1282.5,298.6L1282.5,298.6z M1294.8,291.8c4,7.7-8.5,5.3-11.8,4.5l0-0.1
	c0.4-0.4,1-1.1,1.7-2.1c1.3-1.8,3-3.9,4.8-4.8C1291.2,288.3,1293.1,288.6,1294.8,291.8L1294.8,291.8z M1275.8,284.1
	c-3.1,1.7-3.4,3.6-2.4,5.4l0,0c1,1.8,3,3.5,4.9,4.7c0.9,0.6,1.6,1.2,2.1,1.6l0.2,0C1281.3,292.4,1283.5,279.9,1275.8,284.1z"/>
<path class="st12" d="M1266.9,282.9c1,0.4,1.9,0.9,2.8,1.5c0.2-0.4,0.5-0.8,0.8-1.2c0.8-0.9,1.9-1.8,3.4-2.6c5.5-3,8.5-1.8,10.2,1.1
	c0.8,1.5,1.2,3.5,1.3,5.5c0.7-0.6,1.5-1.1,2.3-1.5c2-1,4.1-1.4,6.1-0.5c1.7,0.7,3.2,2.2,4.6,4.8c2.8,5.4,1.7,8.4-1.1,10
	c-1.4,0.8-3.3,1.2-5.3,1.3c0.5,0.6,0.9,1.2,1.2,1.8c1.1,2,1.4,4,0.6,6.1c-0.7,1.7-2.1,3.3-4.7,4.7c-1.7,0.9-3.2,1.5-4.5,1.6
	c-2,0.3-3.5-0.3-4.6-1.4c-1-1-1.7-2.4-2-4c-0.2-0.9-0.3-1.9-0.3-2.9c-0.7,0.6-1.5,1.1-2.3,1.5l0,0v0c-1.8,0.9-3.7,1.3-5.6,0.7h0
	c-1.8-0.6-3.5-2.1-5-4.9l0,0c-0.9-1.7-1.4-3.2-1.5-4.5c-0.1-0.6-0.1-1.2,0-1.8l-0.1,0.1v0c-1.4,0.5-2.7,0.5-4,0.1l0,0l-0.1,0l0,0
	c-1-0.3-1.9-0.9-2.6-1.6h0c-0.8-0.7-1.4-1.6-1.9-2.5v0c-0.5-1-0.8-2-0.9-3.1c-0.1-1,0-2.1,0.2-3.1c0.4-1.5,1.3-2.9,2.8-4
	c1.2-0.9,2.9-1.6,5-1.9C1263.4,281.8,1265.2,282.2,1266.9,282.9L1266.9,282.9z M1268.5,293.5c0.8-0.2,1.7-0.3,2.7-0.3
	c-2-2.5-2.3-3.6-5.5-5.2c-0.7-0.3-1.3-0.6-2-0.7l0.3,0.1c0.4,0.1,0.8,0.3,1.2,0.5c0.4,0.2,0.8,0.5,1.2,0.9c0.3,0.3,0.6,0.7,0.8,1.1
	C1267.5,290.5,1268.3,292.7,1268.5,293.5L1268.5,293.5z M1260.1,287.9L1260.1,287.9c-0.1,0-0.2,0.1-0.4,0.2c-0.6,0.4-0.9,0.9-1,1.4
	c-0.1,0.3-0.1,0.5-0.1,0.8c0.1-0.2,0.1-0.5,0.2-0.7l0,0C1259.1,289.1,1259.5,288.4,1260.1,287.9L1260.1,287.9z"/>
<path class="st0" d="M1280.1,298.2l0,0.1c-0.4,0.4-1,1.1-1.7,2.1c-1.3,1.8-3,3.9-4.8,4.8c-1.8,0.9-3.7,0.6-5.3-2.5
	C1264.3,294.9,1276.8,297.4,1280.1,298.2L1280.1,298.2z M1270.4,286.9c-2.6-2.1-5.6-3.7-8.6-3.3c-3.9,0.5-5.9,2.5-6.6,4.8
	c-0.5,1.7-0.2,3.6,0.6,5.1c0.8,1.6,2.1,2.8,3.7,3.3l0.1,0c1.8,0.6,3.9,0.1,5.8-2.1c0.4-0.4,0.7-1,0.8-1.5h0c0.1-0.6,0.1-1.2,0-1.8
	l0,0h0c-0.2-0.6-0.5-1.2-0.9-1.7c-0.5-0.5-1.1-0.8-1.8-1c-2.4-1.1-3.3,2-3.3,2c-0.1,0.6,0.2,1.1,0.8,1.2c0.6,0.1,1.1-0.2,1.2-0.8
	c0,0,0.2-0.7,0.5-0.6c0.1,0.1,0.2,0.1,0.3,0.1c0.4,0.1,0.7,0.3,0.9,0.5c0.2,0.2,0.4,0.5,0.4,0.8h0c0.1,0.3,0.1,0.6,0,0.8h0l0,0
	c0,0.2-0.1,0.4-0.3,0.5l0,0l-0.1,0.1c-1.3,1.5-2.6,1.8-3.7,1.5l0,0c-1-0.3-1.9-1.2-2.5-2.3c-0.6-1.1-0.8-2.4-0.4-3.6
	c0.4-1.6,1.9-2.9,4.9-3.3c3.2-0.4,6.4,2,9,4.6l0.2,0.3h0c0.7,1.4,1.9,2.6,3.2,3.7l0.4,0.5c-6-0.6-13.2,0.2-8.7,8.9
	c2.5,4.8,5.6,5.1,8.6,3.6c1.7-0.9,3.4-2.5,4.7-4.2c-0.6,6.1,0.1,14.2,9,9.3c4.7-2.6,5-5.7,3.4-8.6c-0.9-1.6-2.3-3.1-3.9-4.3
	c6,0.6,13.6-0.1,9-8.9c-2.5-4.8-5.6-5.1-8.6-3.6c-1.7,0.9-3.4,2.5-4.7,4.2c0.6-6.1-0.1-14.1-9-9.3
	C1271.9,283.5,1270.7,285.2,1270.4,286.9L1270.4,286.9z M1282.5,298.6c-0.7,3.4-3,15.9,4.7,11.7c3.1-1.7,3.4-3.6,2.4-5.4
	c-1-1.8-3-3.5-4.9-4.7c-0.9-0.6-1.6-1.2-2-1.6L1282.5,298.6L1282.5,298.6z M1294.8,291.8c4,7.7-8.5,5.3-11.8,4.5l0-0.1
	c0.4-0.4,1-1.1,1.7-2.1c1.3-1.8,3-3.9,4.8-4.8C1291.2,288.3,1293.1,288.6,1294.8,291.8L1294.8,291.8z M1275.8,284.1
	c-3.1,1.7-3.4,3.6-2.4,5.4l0,0c1,1.8,3,3.5,4.9,4.7c0.9,0.6,1.6,1.2,2.1,1.6l0.2,0C1281.3,292.4,1283.5,279.9,1275.8,284.1z"/>
<path class="st11" d="M1172.3,300l0,0.1c-0.4,0.4-1,1.1-1.7,2.1c-1.3,1.8-3,3.9-4.8,4.8c-1.8,0.9-3.7,0.6-5.3-2.5
	C1156.4,296.8,1168.9,299.3,1172.3,300L1172.3,300z M1162.6,288.8c-2.6-2.1-5.6-3.7-8.6-3.3c-3.9,0.5-5.9,2.5-6.6,4.8
	c-0.5,1.7-0.2,3.6,0.6,5.1c0.8,1.6,2.1,2.8,3.7,3.3l0.1,0c1.8,0.6,3.9,0.1,5.8-2.1c0.4-0.4,0.7-1,0.8-1.5h0c0.1-0.6,0.1-1.2,0-1.8
	l0,0h0c-0.2-0.6-0.5-1.2-0.9-1.7c-0.5-0.5-1.1-0.8-1.8-1c-2.4-1.1-3.3,2-3.3,2c-0.1,0.6,0.2,1.1,0.8,1.2c0.6,0.1,1.1-0.2,1.2-0.8
	c0,0,0.2-0.7,0.5-0.6c0.1,0.1,0.2,0.1,0.3,0.1c0.4,0.1,0.7,0.3,0.9,0.5c0.2,0.2,0.4,0.5,0.4,0.8h0c0.1,0.3,0.1,0.6,0,0.8h0l0,0
	c0,0.2-0.1,0.4-0.3,0.5l0,0l-0.1,0.1c-1.3,1.5-2.6,1.8-3.7,1.5l0,0c-1-0.3-1.9-1.2-2.5-2.3c-0.6-1.1-0.8-2.4-0.4-3.6
	c0.4-1.6,1.9-2.9,4.9-3.3c3.2-0.4,6.4,2,9,4.6l0.2,0.3h0c0.7,1.4,1.9,2.6,3.2,3.7l0.4,0.5c-6-0.6-13.2,0.2-8.7,8.9
	c2.5,4.8,5.6,5.1,8.6,3.6c1.7-0.9,3.4-2.5,4.7-4.2c-0.6,6.1,0.1,14.2,9,9.3c4.7-2.6,5-5.7,3.4-8.6c-0.9-1.6-2.3-3.1-3.9-4.3
	c6,0.6,13.6-0.1,9-8.9c-2.5-4.8-5.6-5.1-8.6-3.6c-1.7,0.9-3.4,2.5-4.7,4.2c0.6-6.1-0.1-14.1-9-9.3
	C1164,285.3,1162.8,287,1162.6,288.8L1162.6,288.8z M1174.6,300.5c-0.7,3.4-3,15.9,4.7,11.7c3.1-1.7,3.4-3.6,2.4-5.4
	c-1-1.8-3-3.5-4.9-4.7c-0.9-0.6-1.6-1.2-2.1-1.6L1174.6,300.5L1174.6,300.5z M1186.9,293.6c4,7.7-8.5,5.3-11.8,4.5l0-0.1
	c0.4-0.4,1-1.1,1.7-2.1c1.3-1.8,3-3.9,4.8-4.8C1183.3,290.2,1185.2,290.5,1186.9,293.6L1186.9,293.6z M1167.9,285.9
	c-3.1,1.7-3.4,3.6-2.4,5.4l0,0c1,1.8,3,3.5,4.9,4.7c0.9,0.6,1.6,1.2,2,1.6l0.2,0C1173.4,294.3,1175.6,281.8,1167.9,285.9z"/>
<path class="st12" d="M1159,284.7c1,0.4,1.9,0.9,2.8,1.5c0.2-0.4,0.5-0.8,0.8-1.2c0.8-0.9,1.9-1.8,3.4-2.6c5.5-3,8.5-1.8,10.2,1.1
	c0.8,1.5,1.2,3.5,1.3,5.5c0.7-0.6,1.5-1.1,2.3-1.5c2-1,4.1-1.4,6.1-0.5c1.7,0.7,3.2,2.2,4.6,4.8c2.8,5.4,1.7,8.4-1.1,10
	c-1.4,0.8-3.3,1.2-5.3,1.3c0.5,0.6,0.9,1.2,1.2,1.8c1.1,2,1.4,4,0.6,6.1c-0.7,1.7-2.1,3.3-4.7,4.7c-1.7,0.9-3.2,1.5-4.5,1.6
	c-2,0.3-3.5-0.3-4.6-1.4c-1-1-1.7-2.4-2-4c-0.2-0.9-0.3-1.9-0.3-2.9c-0.7,0.6-1.5,1.1-2.3,1.5l0,0v0c-1.8,0.9-3.7,1.3-5.6,0.7h0
	c-1.8-0.6-3.5-2.1-5-4.9l0,0c-0.9-1.7-1.4-3.2-1.5-4.5c-0.1-0.6-0.1-1.2,0-1.8l-0.1,0.1v0c-1.4,0.5-2.7,0.5-4,0.1l0,0l-0.1,0l0,0
	c-1-0.3-1.9-0.9-2.6-1.6h0c-0.8-0.7-1.4-1.6-1.9-2.5v0c-0.5-1-0.8-2-0.9-3.1c-0.1-1,0-2.1,0.2-3.1c0.4-1.5,1.3-2.9,2.8-4
	c1.2-0.9,2.9-1.6,5-1.9C1155.5,283.7,1157.3,284,1159,284.7z"/>
<path class="st0" d="M1172.3,300l0,0.1c-0.4,0.4-1,1.1-1.7,2.1c-1.3,1.8-3,3.9-4.8,4.8c-1.8,0.9-3.7,0.6-5.3-2.5
	C1156.4,296.8,1168.9,299.3,1172.3,300L1172.3,300z M1162.6,288.8c-2.6-2.1-5.6-3.7-8.6-3.3c-3.9,0.5-5.9,2.5-6.6,4.8
	c-0.5,1.7-0.2,3.6,0.6,5.1c0.8,1.6,2.1,2.8,3.7,3.3l0.1,0c1.8,0.6,3.9,0.1,5.8-2.1c0.4-0.4,0.7-1,0.8-1.5h0c0.1-0.6,0.1-1.2,0-1.8
	l0,0h0c-0.2-0.6-0.5-1.2-0.9-1.7c-0.5-0.5-1.1-0.8-1.8-1c-2.4-1.1-3.3,2-3.3,2c-0.1,0.6,0.2,1.1,0.8,1.2c0.6,0.1,1.1-0.2,1.2-0.8
	c0,0,0.2-0.7,0.5-0.6c0.1,0.1,0.2,0.1,0.3,0.1c0.4,0.1,0.7,0.3,0.9,0.5c0.2,0.2,0.4,0.5,0.4,0.8h0c0.1,0.3,0.1,0.6,0,0.8h0l0,0
	c0,0.2-0.1,0.4-0.3,0.5l0,0l-0.1,0.1c-1.3,1.5-2.6,1.8-3.7,1.5l0,0c-1-0.3-1.9-1.2-2.5-2.3c-0.6-1.1-0.8-2.4-0.4-3.6
	c0.4-1.6,1.9-2.9,4.9-3.3c3.2-0.4,6.4,2,9,4.6l0.2,0.3h0c0.7,1.4,1.9,2.6,3.2,3.7l0.4,0.5c-6-0.6-13.2,0.2-8.7,8.9
	c2.5,4.8,5.6,5.1,8.6,3.6c1.7-0.9,3.4-2.5,4.7-4.2c-0.6,6.1,0.1,14.2,9,9.3c4.7-2.6,5-5.7,3.4-8.6c-0.9-1.6-2.3-3.1-3.9-4.3
	c6,0.6,13.6-0.1,9-8.9c-2.5-4.8-5.6-5.1-8.6-3.6c-1.7,0.9-3.4,2.5-4.7,4.2c0.6-6.1-0.1-14.1-9-9.3
	C1164,285.3,1162.8,287,1162.6,288.8L1162.6,288.8z M1174.6,300.5c-0.7,3.4-3,15.9,4.7,11.7c3.1-1.7,3.4-3.6,2.4-5.4
	c-1-1.8-3-3.5-4.9-4.7c-0.9-0.6-1.6-1.2-2.1-1.6L1174.6,300.5L1174.6,300.5z M1186.9,293.6c4,7.7-8.5,5.3-11.8,4.5l0-0.1
	c0.4-0.4,1-1.1,1.7-2.1c1.3-1.8,3-3.9,4.8-4.8C1183.3,290.2,1185.2,290.5,1186.9,293.6L1186.9,293.6z M1167.9,285.9
	c-3.1,1.7-3.4,3.6-2.4,5.4l0,0c1,1.8,3,3.5,4.9,4.7c0.9,0.6,1.6,1.2,2,1.6l0.2,0C1173.4,294.3,1175.6,281.8,1167.9,285.9z"/>
<path class="st8" d="M75.8,59.3c0,0-8.7-18.2-17.3-33.1C50.5,12.3,42.8,0,26.4,0C14.9,0,2.3,7.1,0.2,12.8
	c-1.7,4.3,9.2,0.3,10.1,20.3L9,127.5c7.1-1.6,20.7-4.1,38.2-4.6l-1-52.6L43,54.1l28.4,52.2c0.3,0.7,0.3,0.7,2.4,0.7h4.9
	c1.2,0,1.9,0,2.3-0.7c0,0,25.1-48,27.2-51.7l-3.3,17.9l-0.5,55.5c-0.2,0.9,0.9,0.9,0.9,0.9h35.4c0,0,1,0,1-0.9L141.2,5.9
	c0.2-0.9-0.9-0.9-0.9-0.9h-33.5c0,0-0.9,0.2-1.2,0.9L75.8,59.3L75.8,59.3z M244.3,94c0-12,1.2-51.5,1.2-51.5c0-0.7-0.7-0.9-0.7-0.9
	h-34.7c0,0-0.9,0.2-0.9,1c0,0,0,4.7,0,12c-5.4-9.7-13.9-16.5-25.8-16.5c-22.7,0-34.9,23.2-34.9,47c0,23.2,12.1,47.3,34,47.3
	c12.1,0,21.5-8.3,27.4-19.6c2.3,12.3,11.6,19.8,23.6,19.8c9.7,0,19.1-6.8,20.8-12.3C256.1,115.7,244.3,121.6,244.3,94L244.3,94
	L244.3,94z M197.3,108.5c-8.5,0-13-10.4-13-23.4c0-13,4.5-23.6,13-23.6c8.5,0,13,10.6,13,23.6C210.4,98.1,205.8,108.5,197.3,108.5
	L197.3,108.5z M323.4,37.8c21.8,0,33.8,24.1,33.8,47.3c0,23.8-12,47-34.7,47c-12,0-20.5-6.8-25.8-16.5v50
	c-8.9-4.2-19.8-6.2-30.4-6.2l-0.6,0.1c-1.8,0.1-3.5,0.2-5.2,0.4c0-18.6-0.2-73.6-0.2-83.5c0-27.6-10.4-21.7-8.8-26.4
	c1.9-5.5,11.3-12.3,21-12.3c12,0,21.2,7.5,23.6,19.8C301.9,46.1,311.3,37.8,323.4,37.8L323.4,37.8z M308.7,108.7
	c8.5,0,13-10.6,13-23.6c0-13-4.5-23.4-13-23.4c-8.5,0-13,10.4-13,23.4C295.7,98.1,300.2,108.7,308.7,108.7L308.7,108.7z M430.6,42.8
	c-0.2-0.9-0.5-1.6-1.7-1.7c-4.3-0.9-16-2.1-31.6-2.1c-14.9,0-28.1,1.9-32.3,2.6c-0.2,0-0.9,0.5-0.9,0.9l0.2,63.6
	c0,16.3,10.2,26.4,24.1,26.4c9.7,0,19.6-6.9,21.5-12.3c1.7-4.7-10.2,1.2-10.2-26.4V65.4c2.4,0.3,12,1.6,18.4-0.3
	C435.4,60,430.6,42.8,430.6,42.8L430.6,42.8z M524.2,94L524.2,94c0,27.6,11.8,21.7,10.1,26.4c-1.7,5.5-11.1,12.3-20.8,12.3
	c-12,0-21.3-7.5-23.6-19.8c-5.9,11.3-15.3,19.6-27.4,19.6c-21.8,0-34-24.1-34-47.3c0-23.8,12.1-47,34.9-47c12,0,20.5,6.8,25.8,16.5
	c0-7.3,0-12,0-12c0-0.9,0.9-1,0.9-1h34.7c0,0,0.7,0.2,0.7,0.9C525.4,42.5,524.2,82,524.2,94L524.2,94z M477.2,108.5
	c8.5,0,13-10.4,13-23.4c0-13-4.5-23.6-13-23.6c-8.5,0-13,10.6-13,23.6C464.2,98.1,468.7,108.5,477.2,108.5L477.2,108.5z M603.3,37.8
	c-12.1,0-21.5,8.3-27.4,19.8c-2.4-12.3-11.6-19.8-23.6-19.8c-9.7,0-19.1,6.8-21,12.3c-1.6,4.7,8.8-1.2,8.8,26.4
	c0,10.6,0.1,72.8,0.2,86.8h8h3.2c4.6,0.8,5.3,2.3,7,3.7h17.2c0,0,0.9-0.2,0.9-1c0,0,0-24.1,0-50.3c5.4,9.7,13.9,16.5,25.8,16.5
	c22.7,0,34.7-23.2,34.7-47C637.1,61.9,625.1,37.8,603.3,37.8L603.3,37.8z M588.5,108.7c-8.5,0-13-10.6-13-23.6
	c0-13,4.5-23.4,13-23.4c8.5,0,13,10.4,13,23.4C601.5,98.1,597,108.7,588.5,108.7L588.5,108.7z M733,94c0,27.6,11.8,21.7,10.2,26.4
	c-1.9,5.5-11.3,12.3-21,12.3c-12,0-21.2-7.5-23.6-19.9c-7.3,14.7-18.9,19.9-28.1,19.9c-12.8,0-23.8-11.3-23.8-28.6c0-7.3,0-14,0-27
	c0-27.6-13.2-21.7-11.6-26.4c1.9-5.5,11.3-12.3,21-12.3c14,0,25.7,10.1,25.7,26.4c0,5.9,0,21.7,0,33.6c0,17,15.6,11.4,16.3-8
	c0-19.8,0-47.7,0-47.7c0-0.9,0.7-1,0.7-1h34.9c0,0,0.7,0.2,0.7,0.9C734.4,42.5,733,82,733,94L733,94z M912.8,117.4
	c-18.9-9.2-19.1-25-26-34.2c-4-5-9.2-8-17-6.9c1.6-6.8,3.8-14.9,10.1-14.9c6.6,0,4.7,7.6,4.7,10.2c0,2.6,4.5,4,8.8,4
	c10.9,0,18.9-6.8,18.9-18.4c0-11.4-8.8-19.4-21.5-19.4c-23.1,0-33.6,27.4-35.2,40.4l-1.4,0.5V67.6c0.2-16.5-12.5-23.4-26.2-26.2
	c-12-2.4-55.3-6.4-89.5,0c-0.2,0.2-0.3,0.2-0.3,0.7v1.2l0.3,19.4c0,0.7,0.5,0.7,0.5,0.7l22.5,0.2v42.3c0,16.3,10.2,26.4,24.1,26.4
	c9.7,0,18.7-6.8,20.6-12.3c1.6-4.7-10.2,1.2-10.2-26.4V62.9c13.7-4.9,22,1.7,23.2,15.8C819.2,92.6,818,128,818,128
	c0,0.7,0.7,0.9,0.7,0.9h34.9c0,0,0.7-0.2,0.7-1V91.7c10.9,1,1,40.9,36.8,40.9c9.7,0,18-5,22-9.5
	C915.8,119.6,915.6,118.8,912.8,117.4L912.8,117.4z M1011.6,94c0,27.6,11.8,21.7,10.2,26.4c-1.9,5.5-11.3,12.3-21,12.3
	c-12,0-21.2-7.5-23.6-19.9c-7.3,14.7-18.9,19.9-28.1,19.9c-12.8,0-23.8-11.3-23.8-28.6c0-7.3,0-14,0-27c0-27.6-13.2-21.7-11.6-26.4
	c1.9-5.5,11.3-12.3,21-12.3c14,0,25.7,10.1,25.7,26.4c0,5.9,0,21.7,0,33.6c0,17,15.6,11.4,16.3-8c0-19.8,0-47.7,0-47.7
	c0-0.9,0.7-1,0.7-1h34.9c0,0,0.7,0.2,0.7,0.9C1013,42.5,1011.6,82,1011.6,94z"/>
<path class="st13" d="M310.7,224.8c6.6-2.6,14.4-13.3,14.4-25.3c0-24.6-26.9-31.2-48.9-31.2c-27.9,0-46.5,5.4-46.5,5.4
	c-0.2,0-0.9,0.2-0.9,1c0-0.2,0,58.8,0,74.7c0,21.8,11.6,50.5,50.5,50.5c27.9,0,54.4-12.1,54.4-42.6c0-12.1-7.5-26-22.9-31.4
	C310.2,225.7,310.2,225.2,310.7,224.8L310.7,224.8L310.7,224.8z M289.2,202.3c0,9.2-6.1,18.2-22.4,18.2c0-8.8,0-25.1,0-32.8
	C275.4,185.6,289.2,186.7,289.2,202.3L289.2,202.3z M281.8,279.1c-11.1,0-14.6-8.7-14.9-17.2c0-4.5,0-16.5,0-22.4
	c16.1-3.1,30,5.2,30,21C296.9,271.8,291.3,279.1,281.8,279.1L281.8,279.1L281.8,279.1z M433,261.2c0-12,1.2-51.5,1.2-51.5
	c0-0.7-0.7-0.9-0.7-0.9h-34.7c0,0-0.9,0.2-0.9,1c0,0,0,4.7,0,12c-5.4-9.7-13.9-16.5-25.8-16.5c-22.7,0-34.8,23.2-34.8,47
	c0,23.2,12.1,47.3,34,47.3c12.1,0,21.5-8.3,27.4-19.6c2.3,12.3,11.6,19.8,23.6,19.8c9.7,0,19.1-6.8,20.8-12.3
	C444.8,282.9,433,288.8,433,261.2L433,261.2L433,261.2z M386,275.8c-8.5,0-13-10.4-13-23.4c0-13,4.5-23.6,13-23.6
	c8.5,0,13,10.6,13,23.6C399,265.4,394.5,275.8,386,275.8L386,275.8z M529.4,269.1L529.4,269.1c0.5,0.5,0.9,1.2,0.5,2.7
	c-2.1,7.3-14.9,27.9-40.2,27.9c-26.4,0-47.3-21.2-47.3-47.5c0-25.3,19.4-45.9,45.9-47.2l0,0c19.4,0,38.8,7.8,38.8,24.3
	c0.2,8.3-6.6,17.3-16.8,17.3c-5.7,0-11.4-1.9-12.1-2.9c-0.9-1.6-0.2-3.6-0.2-7.1c0-7.1-3.5-12-8.3-12c-9.4,0-13.9,14.8-12.7,27.6
	c2.8,31.1,32.2,27.6,49.9,17C527.6,268.8,528.7,268.6,529.4,269.1L529.4,269.1z M725.8,209.7c0-0.5-0.3-0.7-0.5-0.7
	c-27.7-5.5-52.5-5.2-75.8,0c-0.2,0-0.7,0.2-0.7,0.9c0,0-0.3,30.2-5.2,50.5c-6.2,26.4-18.6,30.3-18.7,10.9c-0.2-12,0.2-46.1,0.9-61.5
	c0-0.7-0.7-0.9-0.7-0.9h-34.8c0,0-0.7,0.2-0.7,1v47.7c-0.7,19.4-16.3,25-16.3,8v-33.6c0-16.3-11.6-26.4-25.7-26.4
	c-9.7,0-19.1,6.8-21,12.3c-1.6,4.7,11.6-1.2,11.6,26.4v27c0,17.3,10.9,28.6,23.8,28.6c9.2,0,20.8-5.2,28.1-19.9
	c4.5,13,23.1,21.2,41.1,19.9c16.5-1,50.4-5.2,47.5-74.9h12.3v70.2c0,0.9,0.7,0.9,0.7,0.9h33.5c0,0,0.7,0,0.7-0.9V209.7L725.8,209.7z
	 M784.9,227.8c-4.9,0-9.5,0.5-13.9,1.2c0-10.7,0-19.1,0-19.1c0-0.9-0.7-1-0.7-1h-33.5c0,0-0.7,0.2-0.7,0.9c0-0.2,0,40.7,0,52.5
	c0,16,9.4,37.6,41.4,37.6c23.1,0,43.2-15.6,43.2-38C820.8,241.5,803.5,227.8,784.9,227.8L784.9,227.8z M779,279.8
	c-6.1,0-7.6-6.1-8-12.1c0-6.1,0-14.4,0-22.9c1-0.2,2.3-0.3,3.5-0.3c7.8,0,13.5,6.6,13.5,16.6C788,270.4,786.3,279.8,779,279.8
	L779,279.8z M1012.2,261.2c0,27.6,11.8,21.7,10.2,26.4c-1.9,5.5-11.3,12.3-21,12.3c-12,0-21.2-7.5-23.6-19.9
	c-7.3,14.7-18.9,19.9-28.1,19.9c-12.8,0-23.8-11.3-23.8-28.6v-27c0-22.7-36.6-22.4-44.6-0.7c7.6-0.7,14,1.9,18,6.9
	c6.9,9.2,7.1,25,26,34.2c2.8,1.4,2.9,2.3,0.2,5.7c-4,4.5-12.3,9.5-22,9.5c-35.7,0-25.8-39.9-36.8-40.9V295c0,0.9-0.7,1-0.7,1h-34.8
	c0,0-0.7-0.2-0.7-0.9c0,0,1.4-39.5,1.4-51.5c0-27.6-11.8-21.7-10.2-26.4c1.9-5.5,11.3-12.3,21-12.3c13.9,0,24.1,10.1,24.1,26.4V246
	c0,0,1-0.3,2.8-0.7c0.3-7.1,5.7-39,44-41.3c24.1-1.4,47.9,12,47.2,40.2v22.2c0.5,16,15.8,10.2,16.5-8.8v-47.7c0-0.9,0.7-1,0.7-1
	h34.8c0,0,0.7,0.2,0.7,0.9C1013.6,209.7,1012.2,249.3,1012.2,261.2z"/>
</svg>
