<?xml version="1.0" encoding="utf-8"?>
<!-- Generator: Adobe Illustrator 23.0.1, SVG Export Plug-In . SVG Version: 6.00 Build 0)  -->
<svg fill="#91B82B" version="1.1" id="Capa_1" xmlns="http://www.w3.org/2000/svg" xmlns:xlink="http://www.w3.org/1999/xlink" x="0px" y="0px"
	 viewBox="0 0 612 333.8" style="enable-background:new 0 0 612 333.8;" xml:space="preserve">
<g>
	<g>
		<path d="M604.3,55.6c4.3,0,7.7-3.6,7.7-7.7V7.7c0-4.3-3.3-7.7-7.7-7.7H7.7C3.5,0,0,3.6,0,7.7v40.2c0,4.3,3.3,7.7,7.7,7.7
			L604.3,55.6L604.3,55.6z"/>
		<path d="M0,187c0,4.3,3.3,7.7,7.7,7.7h596.5c4.3,0,7.7-3.6,7.7-7.7v-40.2c0-4.3-3.3-7.7-7.7-7.7H7.7c-4.3,0-7.7,3.6-7.7,7.7V187z"
			/>
		<path d="M0,326.1c0,4.3,3.3,7.7,7.7,7.7h596.5c4.3,0,7.7-3.6,7.7-7.7v-40.2c0-4.3-3.3-7.7-7.7-7.7H7.7c-4.3,0-7.7,3.6-7.7,7.7
			V326.1z"/>
	</g>
</g>
</svg>
