<svg width="110" height="65" viewBox="0 0 110 65" fill="none" xmlns="http://www.w3.org/2000/svg">
<rect width="110" height="65" fill="white"/>
<path d="M30 12H33.439V53H30V12ZM74.7073 12H77V53H74.7073V12ZM35.7317 12H39.1707V38.1944H35.7317V12ZM41.4634 12H43.7561V38.1944H41.4634V12ZM46.0488 12H48.3415V38.1944H46.0488V12ZM51.7805 12H55.2195V38.1944H51.7805V12ZM58.6585 12H60.9512V38.1944H58.6585V12ZM63.2439 12H65.5366V38.1944H63.2439V12ZM67.8293 12H72.4146V38.1944H67.8293V12ZM35.7432 50.7165V42.4505H38.1012C38.9701 42.4505 39.6304 42.6418 40.0809 43.0267C40.5326 43.4106 40.7584 43.9732 40.7584 44.7146C40.7584 45.1348 40.6656 45.4959 40.4787 45.7988C40.2919 46.1017 40.0374 46.3227 39.713 46.4628C40.0855 46.5687 40.3732 46.7817 40.5761 47.1017C40.7779 47.4217 40.8788 47.8146 40.8788 48.285C40.8788 49.0868 40.6564 49.6927 40.2139 50.1015C39.7703 50.5093 39.1272 50.7131 38.2858 50.7131H35.7432V50.7165ZM37.4157 45.9081H38.0851C38.7443 45.9081 39.0744 45.5687 39.0744 44.8911C39.0744 44.5164 38.9988 44.2488 38.8463 44.0848C38.6939 43.9208 38.4462 43.8411 38.1035 43.8411H37.4157V45.9081ZM37.4157 47.1233V49.3316H38.2846C38.5861 49.3316 38.8142 49.2394 38.9701 49.0537C39.126 48.8681 39.204 48.605 39.204 48.2645C39.204 47.5219 38.9334 47.1416 38.3924 47.1233H37.4157ZM47.3155 47.2896C47.3155 48.3716 47.0576 49.2109 46.5429 49.8088C46.0293 50.4079 45.3151 50.7063 44.4003 50.7063C43.489 50.7063 42.7748 50.4102 42.2544 49.8179C41.734 49.2246 41.4703 48.3966 41.4623 47.3295V45.9503C41.4623 44.8433 41.7202 43.98 42.236 43.357C42.753 42.7352 43.4695 42.4243 44.3877 42.4243C45.291 42.4243 46.0029 42.7284 46.5222 43.3411C47.0427 43.9504 47.3052 44.8091 47.3132 45.9127L47.3155 47.2896ZM45.6716 45.9377C45.6716 45.2123 45.5685 44.6713 45.3598 44.316C45.1512 43.9618 44.8279 43.7852 44.39 43.7852C43.9556 43.7852 43.6346 43.9549 43.4271 44.2955C43.2185 44.6371 43.1107 45.1565 43.1027 45.8546V47.2885C43.1027 47.9934 43.2081 48.5128 43.4202 48.8465C43.6323 49.1802 43.959 49.3476 44.4015 49.3476C44.8279 49.3476 45.1466 49.1859 45.3541 48.8556C45.5627 48.531 45.6693 48.0231 45.6728 47.3374L45.6716 45.9377ZM72.4146 47.3112C72.4146 48.3932 72.1567 49.2326 71.642 49.8305C71.1284 50.4295 70.4143 50.7279 69.4995 50.7279C68.5881 50.7279 67.874 50.4318 67.3535 49.8396C66.8331 49.2462 66.5694 48.4182 66.5614 47.3511V45.9719C66.5614 44.8649 66.8193 44.0016 67.3352 43.3787C67.8522 42.7568 68.5687 42.4459 69.4869 42.4459C70.3902 42.4459 71.1021 42.75 71.6214 43.3627C72.1418 43.972 72.4043 44.8308 72.4123 45.9343L72.4146 47.3112ZM70.7708 45.9605C70.7708 45.2351 70.6676 44.6941 70.459 44.3387C70.2503 43.9846 69.9271 43.808 69.4892 43.808C69.0547 43.808 68.7337 43.9777 68.5262 44.3182C68.3176 44.6599 68.2099 45.1792 68.2018 45.8774V47.3112C68.2018 48.0162 68.3073 48.5356 68.5194 48.8692C68.7314 49.2029 69.0581 49.3704 69.5006 49.3704C69.9271 49.3704 70.2458 49.2086 70.4532 48.8784C70.6619 48.5538 70.7685 48.0458 70.7719 47.3602L70.7708 45.9605ZM50.0209 49.3339H52.9692V50.7188H48.3415V42.4539H50.022L50.0209 49.3339ZM58.3708 47.1427H55.7537V49.3339H58.8511V50.7188H54.0732V42.4539H58.8385V43.8445H55.7537V45.7977H58.3708V47.1427V47.1427ZM65.8404 43.8479H63.7827V50.7222H62.0976V43.8479H60.0743V42.4562H65.8392L65.8404 43.8479Z" fill="#546E7A"/>
</svg>
