<svg width="24" height="24" viewBox="0 0 24 24" fill="none" xmlns="http://www.w3.org/2000/svg">
<path d="M18.08 19.94C16.2881 21.3122 14.0847 22.0379 11.8281 21.9991C9.57144 21.9603 7.39429 21.1593 5.65064 19.7263C3.90699 18.2932 2.69938 16.3125 2.22418 14.1061C1.74898 11.8997 2.03413 9.59748 3.03327 7.57371C4.03241 5.54995 5.68677 3.92368 7.72736 2.95936C9.76794 1.99503 12.0747 1.74936 14.2726 2.26229C16.4706 2.77521 18.4303 4.01658 19.8333 5.78452C21.5151 7.90387 22 10.3711 22 13C22 13.7956 21.6839 14.5587 21.1213 15.1213C20.5587 15.6839 19.7957 16 19 16C18.2044 16 17.4413 15.6839 16.8787 15.1213C16.3161 14.5587 16 13.7956 16 13V12C16 9.79085 14.2092 7.99999 12 7.99999C9.79087 7.99999 8.00001 9.79085 8.00001 12C8.00001 14.2091 9.79087 16 12 16C12.5305 16 13.0368 15.8967 13.5 15.7092" stroke="#167FB9" stroke-width="1.5" stroke-linecap="round" stroke-linejoin="round"/>
</svg>
