<svg width="24" height="24" viewBox="0 0 24 24" fill="none" xmlns="http://www.w3.org/2000/svg">
<path d="M12 11C14.2091 11 16 9.20914 16 7C16 4.79086 14.2091 3 12 3C9.79086 3 8 4.79086 8 7C8 9.20914 9.79086 11 12 11Z" stroke="#167FB9" stroke-width="1.5" stroke-linecap="round" stroke-linejoin="round"/>
<path d="M16.0319 21.1422C17.4199 20.8923 18.5204 20.5116 19.0319 20C19.1038 19.3531 19.0319 18.3333 19.0319 18.3333C19.0319 17.4493 18.6105 16.6014 17.8604 15.9763C15.4914 14.0022 7.57247 14.0022 5.20352 15.9763C4.45337 16.6014 4.03195 17.4493 4.03195 18.3333C4.03195 18.3333 3.96007 19.3531 4.03195 20C4.54351 20.5116 5.64392 20.8923 7.03194 21.1422" stroke="#167FB9" stroke-width="1.5" stroke-linecap="round" stroke-linejoin="round"/>
</svg>
