<svg width="121" height="96" fill="none" xmlns="http://www.w3.org/2000/svg"><g filter="url(#filter0_d)"><path d="M107.843 34.948l-25.06-13.866c-3.033-1.749-7.933-1.746-10.938 0L16.952 52.824c-3.012 1.749-4.118 5.436-1.086 7.186l25.067 14.559c3.03 1.749 7.93 1.751 10.942.002l56.015-32.596c3.005-1.745 2.985-5.278-.047-7.027z" fill="url(#paint0_linear)"/><g style="mix-blend-mode:multiply"><path d="M107.843 34.948l-25.06-13.866c-3.033-1.749-7.933-1.746-10.938 0L16.952 52.824c-3.012 1.749-4.118 5.436-1.086 7.186l25.067 14.559c3.03 1.749 7.93 1.751 10.942.002l56.015-32.596c3.005-1.745 2.985-5.278-.047-7.027z" fill="#818A94"/><path opacity=".973" d="M71.831 21.097l-54.84 31.698c-2.992 1.737-4.056 5.374-1.044 7.111l25.01 14.485c.306.176.667.353 1.008.492 3.008 1.247 7.211 1.09 9.899-.47l55.958-32.548c2.987-1.734 2.967-5.222-.045-6.959L84.665 22.12a453.496 453.496 0 0 0-1.913-1.052c-1.878-1.07-4.44-1.475-6.846-1.217l-.033.004c-1.48.163-2.895.577-4.042 1.242z" fill="#868F98"/><path opacity=".949" d="M71.803 21.114l-54.79 31.652c-2.973 1.726-3.992 5.31-1.002 7.037l24.956 14.41c.293.17.677.359 1.004.493 2.987 1.255 7.185 1.105 9.866-.452l55.902-32.499c2.966-1.724 2.946-5.165-.046-6.89L84.619 22.1a265.558 265.558 0 0 0-1.911-1.047c-1.89-1.06-4.437-1.46-6.84-1.194l-.033.004c-1.475.167-2.884.584-4.032 1.25z" fill="#8B939C"/><path opacity=".922" d="M71.782 21.129l-54.74 31.609c-2.95 1.714-3.927 5.247-.956 6.962l24.9 14.335c.28.163.686.365 1 .494 2.968 1.262 7.159 1.12 9.832-.433l55.848-32.452c2.946-1.71 2.926-5.108-.046-6.822L84.581 22.08c-.071-.04-1.837-1.012-1.91-1.041-1.898-1.052-4.43-1.446-6.833-1.172l-.032.005c-1.469.17-2.873.59-4.024 1.257z" fill="#9098A0"/><path opacity=".894" d="M71.762 21.143L17.073 52.71c-2.933 1.702-3.866 5.184-.915 6.886l24.844 14.262c.27.156.697.37.997.493 2.949 1.27 7.134 1.134 9.799-.414l55.792-32.404c2.926-1.699 2.907-5.05-.045-6.753L84.543 22.06c-.097-.055-1.812-.997-1.91-1.036-1.907-1.042-4.425-1.43-6.825-1.148l-.032.004c-1.464.174-2.864.597-4.014 1.263z" fill="#949CA4"/><path opacity=".871" d="M71.741 21.159l-54.637 31.52c-2.913 1.693-3.803 5.122-.872 6.814L41.02 73.68c.257.15.707.375.994.492 2.927 1.279 7.107 1.15 9.765-.394l55.736-32.355c2.907-1.689 2.888-4.994-.045-6.686L84.506 22.04c-.12-.069-1.788-.982-1.909-1.031-1.917-1.033-4.419-1.415-6.817-1.126l-.033.004c-1.46.179-2.853.604-4.006 1.272z" fill="#99A1A9"/><path opacity=".843" d="M71.718 21.173L17.133 52.65c-2.894 1.68-3.741 5.058-.829 6.739L41.038 73.5c.245.142.716.38.989.492 2.908 1.287 7.083 1.163 9.731-.375l55.682-32.307c2.886-1.676 2.867-4.937-.044-6.617l-22.93-12.676c-.144-.082-1.761-.966-1.908-1.024-1.926-1.025-4.412-1.401-6.81-1.104l-.032.004c-1.454.183-2.842.61-3.998 1.279z" fill="#9EA5AD"/><path opacity=".816" d="M71.698 21.19L17.163 52.623c-2.874 1.669-3.678 4.995-.786 6.664l24.679 14.038c.232.135.726.386.986.492 2.888 1.295 7.055 1.178 9.697-.356l55.625-32.26c2.867-1.664 2.848-4.879-.043-6.547L84.428 22c-.168-.096-1.737-.952-1.908-1.02-1.936-1.015-4.407-1.386-6.803-1.08l-.03.005c-1.45.185-2.834.616-3.99 1.285z" fill="#A3AAB1"/><path opacity=".792" d="M71.678 21.205l-54.484 31.39c-2.852 1.657-3.615 4.932-.743 6.588l24.624 13.965c.22.128.735.391.982.492 2.868 1.303 7.03 1.191 9.665-.337l55.569-32.212c2.848-1.654 2.829-4.822-.043-6.48L84.392 21.98c-.194-.11-1.711-.936-1.906-1.014-1.947-1.006-4.402-1.37-6.797-1.057l-.032.004c-1.442.19-2.82.623-3.98 1.292z" fill="#A8AEB5"/><path opacity=".765" d="M71.656 21.22L17.223 52.564c-2.833 1.646-3.552 4.868-.701 6.514l24.568 13.89c.209.12.747.398.98.493 2.847 1.31 7.004 1.206 9.63-.319l55.515-32.163c2.826-1.643 2.809-4.766-.043-6.412l-22.82-12.61c-.218-.123-1.687-.92-1.906-1.008-1.956-.997-4.396-1.355-6.788-1.034l-.032.005c-1.437.193-2.81.629-3.97 1.298z" fill="#ADB3B9"/><path opacity=".737" d="M71.635 21.236L17.253 52.538c-2.812 1.633-3.488 4.805-.656 6.438l24.512 13.817c.196.113.757.402.975.492 2.83 1.32 6.98 1.221 9.599-.3l55.458-32.116c2.807-1.63 2.79-4.708-.042-6.343L84.314 21.938c-.24-.136-1.66-.905-1.904-1.002-1.965-.988-4.39-1.34-6.78-1.01-.011 0-.022.002-.033.004-1.431.197-2.8.635-3.962 1.306z" fill="#B1B7BD"/><path opacity=".714" d="M71.615 21.25L17.283 52.508c-2.793 1.622-3.425 4.743-.614 6.364l24.458 13.743c.183.106.766.407.97.492 2.81 1.327 6.955 1.234 9.566-.282l55.402-32.067c2.787-1.618 2.77-4.652-.042-6.274L84.276 21.917c-.265-.149-1.635-.889-1.903-.996-1.975-.979-4.386-1.324-6.773-.988l-.033.004c-1.426.2-2.79.642-3.952 1.313z" fill="#B6BCC1"/><path opacity=".686" d="M71.595 21.267L17.315 52.48c-2.774 1.61-3.363 4.678-.571 6.289l24.403 13.669c.17.098.776.413.967.49 2.789 1.337 6.928 1.251 9.53-.261l55.347-32.019c2.769-1.608 2.751-4.595-.04-6.206l-22.71-12.545c-.29-.162-1.61-.874-1.904-.99-1.984-.97-4.379-1.31-6.767-.966l-.03.004c-1.421.204-2.78.65-3.945 1.322z" fill="#BBC0C5"/><path opacity=".659" d="M71.573 21.282L17.344 52.45c-2.753 1.6-3.3 4.617-.528 6.215L41.164 72.26c.158.092.785.419.963.491 2.77 1.343 6.904 1.264 9.498-.243l55.292-31.971c2.747-1.596 2.731-4.538-.041-6.138L84.201 21.877c-.314-.177-1.585-.859-1.901-.985-1.995-.96-4.375-1.295-6.76-.943l-.03.004c-1.416.209-2.77.656-3.937 1.329z" fill="#C0C4C9"/><path opacity=".635" d="M71.553 21.296L17.374 52.422c-2.733 1.587-3.237 4.553-.484 6.14l24.291 13.52c.147.085.796.424.96.492 2.75 1.35 6.878 1.278 9.466-.225l55.235-31.923c2.728-1.584 2.712-4.48-.041-6.069l-22.638-12.5c-.337-.191-1.559-.845-1.9-.98-2.005-.952-4.369-1.279-6.752-.92a.26.26 0 0 0-.033.005c-1.408.212-2.757.663-3.925 1.334z" fill="#C5C9CE"/><path opacity=".608" d="M71.532 21.313l-54.127 31.08c-2.713 1.576-3.175 4.49-.442 6.067l24.236 13.446c.134.076.807.428.956.49 2.73 1.36 6.852 1.294 9.432-.205l55.18-31.875c2.709-1.573 2.691-4.424-.039-6l-22.602-12.48c-.362-.203-1.535-.827-1.9-.974-2.015-.942-4.364-1.264-6.745-.896a.279.279 0 0 0-.032.005c-1.403.215-2.748.67-3.917 1.342z" fill="#CACDD2"/><path opacity=".58" d="M71.51 21.327L17.435 52.364c-2.693 1.565-3.11 4.427-.4 5.992l24.181 13.372c.123.07.817.434.954.49 2.71 1.368 6.826 1.308 9.398-.186l55.125-31.826c2.687-1.562 2.671-4.368-.039-5.933L84.087 21.817c-.386-.218-1.509-.814-1.9-.968-2.022-.935-4.356-1.25-6.737-.875-.01 0-.02.004-.032.005-1.397.219-2.737.675-3.907 1.348z" fill="#CFD2D6"/><path opacity=".557" d="M71.49 21.344L17.466 52.336c-2.675 1.553-3.049 4.364-.358 5.917L41.235 71.55c.109.063.826.44.948.49 2.69 1.376 6.8 1.322 9.366-.167l55.068-31.78c2.669-1.55 2.653-4.31-.039-5.862L84.049 21.797c-.409-.233-1.484-.799-1.898-.963-2.033-.925-4.352-1.235-6.73-.852l-.031.005a11.487 11.487 0 0 0-3.9 1.357z" fill="#D3D6DA"/><path opacity=".529" d="M71.47 21.358l-53.975 30.95c-2.654 1.54-2.985 4.3-.313 5.84l24.07 13.225c.099.056.836.445.945.49 2.67 1.384 6.776 1.336 9.332-.149l55.013-31.73c2.648-1.538 2.634-4.254-.038-5.796L84.011 21.776c-.434-.246-1.458-.782-1.898-.957-2.042-.916-4.345-1.22-6.722-.83l-.031.006a11.584 11.584 0 0 0-3.89 1.363z" fill="#D8DBDE"/><path opacity=".502" d="M71.447 21.372L17.524 52.277c-2.634 1.53-2.922 4.238-.27 5.768l24.015 13.148c.086.05.846.452.941.491 2.65 1.393 6.75 1.351 9.299-.129l54.958-31.682c2.628-1.527 2.613-4.197-.038-5.727l-22.457-12.39c-.458-.26-1.433-.768-1.896-.953-2.053-.906-4.341-1.204-6.717-.806-.01.003-.02.004-.03.005a11.724 11.724 0 0 0-3.882 1.37z" fill="#DDDFE2"/><path opacity=".478" d="M71.425 21.39L17.554 52.25c-2.615 1.518-2.86 4.174-.229 5.692l23.96 13.075c.075.043.856.457.938.49 2.632 1.402 6.724 1.367 9.266-.11l54.902-31.635c2.608-1.515 2.593-4.139-.038-5.657l-22.42-12.369c-.482-.273-1.407-.753-1.896-.946-2.062-.898-4.334-1.19-6.708-.784-.01.003-.02.004-.03.005a11.822 11.822 0 0 0-3.874 1.378z" fill="#E2E4E6"/><path opacity=".451" d="M71.406 21.405l-53.82 30.817c-2.596 1.506-2.797 4.111-.186 5.617L41.305 70.84c.062.036.866.463.935.49 2.61 1.41 6.698 1.38 9.231-.09l54.846-31.587c2.59-1.503 2.575-4.083-.036-5.59L83.897 21.715c-.506-.285-1.383-.735-1.895-.94-2.072-.888-4.33-1.173-6.701-.76a11.911 11.911 0 0 0-3.895 1.39z" fill="#E7E8EA"/><path opacity=".424" d="M71.384 21.42l-53.77 30.772c-2.574 1.495-2.734 4.048-.141 5.543l23.85 12.927c.048.028.876.468.93.49 2.59 1.416 6.672 1.395 9.198-.072l54.791-31.538c2.569-1.492 2.555-4.027-.036-5.522L83.858 21.694c-.531-.3-1.357-.72-1.894-.934-2.08-.88-4.323-1.16-6.694-.737a11.978 11.978 0 0 0-3.886 1.397z" fill="#ECEDEF"/><path opacity=".4" d="M71.363 21.435L17.645 52.164c-2.555 1.484-2.67 3.985-.1 5.47l23.795 12.85c.036.022.885.474.927.492 2.57 1.423 6.647 1.407 9.164-.056l54.735-31.488c2.55-1.482 2.536-3.97-.036-5.453L83.819 21.674a17.662 17.662 0 0 0-1.893-.928 11.643 11.643 0 0 0-6.717-.71c-1.36.247-2.663.722-3.846 1.4z" fill="#F0F1F3"/><path opacity=".373" d="M71.342 21.45L17.675 52.136c-2.535 1.472-2.607 3.922-.057 5.394l23.74 12.778c.024.014.896.478.923.489 2.55 1.433 6.621 1.424 9.131-.035l54.679-31.441c2.531-1.47 2.517-3.913-.034-5.385L83.782 21.655a17.112 17.112 0 0 0-1.892-.924 11.653 11.653 0 0 0-6.68-.691l-.03.005c-1.354.25-2.654.729-3.838 1.405z" fill="#F5F6F7"/><path opacity=".345" d="M71.32 21.466l-53.615 30.64c-2.516 1.461-2.545 3.858-.015 5.32l23.685 12.703c.012.007.905.484.92.49 2.53 1.441 6.594 1.439 9.098-.016l54.624-31.393c2.509-1.458 2.495-3.856-.035-5.316l-22.239-12.26a16.155 16.155 0 0 0-1.891-.917c-2.11-.854-4.308-1.115-6.672-.67l-.03.006a12.33 12.33 0 0 0-3.83 1.413z" fill="#FAFAFB"/><path opacity=".322" d="M105.908 33.85l-22.2-12.237c-2.722-1.54-5.485-2.147-8.557-1.558l-.03.005a12.455 12.455 0 0 0-3.82 1.42L17.736 52.077c-2.495 1.45-2.482 3.795.03 5.245L42.31 70.44c2.511 1.45 6.57 1.452 9.065.002L105.943 39.1c2.49-1.447 2.477-3.8-.035-5.249z" fill="#fff"/></g></g><path d="M46.852 70.706c-1.572 0-3.039-.347-4.132-.977L18.153 56.596c-.918-.528-1.457-1.229-1.459-1.906-.001-.682.516-1.357 1.453-1.903l53.56-30.591a11.535 11.535 0 0 1 3.568-1.327 11.397 11.397 0 0 1 2.15-.213c1.964 0 3.885.549 5.874 1.674l22.21 12.241c.926.535 1.467 1.237 1.468 1.917 0 .682-.515 1.357-1.449 1.899L50.963 69.73c-1.085.63-2.544.975-4.11.975z" fill="#343F50" opacity=".51"/><g opacity=".439"><path d="M69.828 55.596L44.21 40.816c-.675-.392-1.763-.392-2.427-.006l-2.38 1.382c-.663.386-.66 1.015.017 1.405l25.619 14.782c.675.39 1.763.39 2.427.004l2.38-1.38c.663-.386.66-1.016-.017-1.407zM104.502 35.866L78.883 21.084c-.676-.39-1.763-.39-2.428-.004l-2.378 1.382c-.673.39-.669 1.02.008 1.41l25.617 14.782c.677.39 1.765.39 2.437 0l2.379-1.381c.664-.386.66-1.017-.016-1.407zM81.113 31.08l-10.737-6.195c-.725-.419-1.91-.419-2.63 0l-9.193 5.34c-.73.422-.717 1.104.008 1.523l10.737 6.194c.725.418 1.902.423 2.63 0l9.193-5.339c.721-.418.717-1.105-.008-1.523zM97.211 39.771l-10.735-6.195c-.725-.418-1.91-.418-2.631 0l-9.194 5.339c-.728.423-.715 1.105.008 1.523l10.737 6.195c.725.418 1.902.424 2.631 0l9.194-5.34c.72-.418.715-1.104-.01-1.522zM82.874 47.22l-24.21-13.968c-1.058-.61-2.77-.614-3.83 0l-8.142 4.728c-1.06.616-1.055 1.614.004 2.224l24.21 13.969c1.066.616 2.788.616 3.848 0l8.141-4.728c1.06-.616 1.047-1.608-.021-2.224z" fill="#343F50" opacity=".439"/></g><path d="M62.174 59.818L36.555 45.036c-.675-.39-1.755-.394-2.426-.004l-2.38 1.382c-.663.385-.66 1.015.016 1.405l25.619 14.782c.675.39 1.764.39 2.427.004l2.38-1.382c.67-.39.66-1.015-.017-1.405z" fill="url(#paint1_linear)"/><path d="M53.098 65.485l-11.616-6.702c-.489-.282-1.277-.277-1.754 0l-3.511 2.04c-.478.278-.483.734.005 1.016l11.616 6.702c.48.277 1.275.277 1.753 0l3.512-2.04c.478-.278.475-.738-.005-1.016z" fill="url(#paint2_linear)"/><path d="M68.771 52.733L43.152 37.95c-.675-.39-1.764-.39-2.427-.006l-2.38 1.382c-.663.386-.66 1.015.017 1.407l25.619 14.78c.675.39 1.763.392 2.426.006l2.38-1.382c.663-.386.66-1.015-.016-1.405z" fill="url(#paint3_linear)"/><path d="M38.41 57.012L26.796 50.31c-.482-.277-1.277-.277-1.755 0l-3.512 2.04c-.478.277-.475.738.005 1.015l11.617 6.703c.48.277 1.276.277 1.754 0l3.512-2.04c.478-.277.475-.739-.007-1.016z" fill="url(#paint4_linear)"/><path d="M95 22.555L69.38 7.773c-.676-.39-1.763-.39-2.427-.004l-1.461.848c-1.173.682-1.172 1.792.002 2.47l24.403 14.08c.84.484 2.21.483 3.047-.004l2.07-1.203c.665-.384.661-1.015-.014-1.405z" fill="url(#paint5_linear)"/><path d="M74.998 20.74l-10.736-6.195c-.725-.418-1.91-.418-2.631 0l-9.194 5.34c-.728.422-.716 1.104.01 1.524l10.736 6.194c.724.418 1.902.423 2.63 0l9.194-5.34c.72-.418.715-1.105-.009-1.523z" fill="url(#paint6_linear)"/><path d="M89.685 29.214L78.95 23.02c-.725-.42-1.91-.42-2.63 0l-9.194 5.338c-.729.424-.717 1.106.008 1.524l10.737 6.194c.725.42 1.902.423 2.631 0l9.192-5.34c.721-.417.717-1.104-.008-1.522z" fill="url(#paint7_linear)"/><path d="M78.356 39.922l-24.21-13.97c-1.058-.61-2.772-.615-3.832 0l-8.142 4.73c-1.06.615-1.054 1.611.004 2.222l24.21 13.968c1.068.616 2.788.616 3.848 0l8.142-4.728c1.06-.616 1.046-1.606-.02-2.222z" fill="url(#paint8_linear)"/><path d="M38.5 57.199c-.032.023-.048.052-.084.074l-3.512 2.04c-.478.276-1.274.276-1.755 0L21.533 52.61c-.039-.023-.056-.054-.089-.08-.371.282-.354.686.089.942l11.616 6.703c.48.277 1.277.277 1.755 0l3.512-2.04c.437-.255.452-.657.083-.936z" fill="url(#paint9_linear)"/><path d="M53.186 65.674c-.032.024-.047.052-.085.074l-3.512 2.04c-.478.276-1.273.276-1.753 0L36.22 61.084c-.04-.023-.057-.054-.09-.078-.373.278-.36.68.09.941l11.616 6.702c.48.277 1.275.277 1.753 0l3.512-2.04c.439-.255.452-.657.085-.936z" fill="url(#paint10_linear)"/><path d="M52.449 21.515l10.736 6.194c.724.42 1.902.423 2.63 0l9.193-5.339c.552-.32.676-.796.38-1.19a1.25 1.25 0 0 1-.38.327l-9.193 5.34c-.728.422-1.906.418-2.63 0l-10.736-6.195a1.298 1.298 0 0 1-.39-.332c-.3.395-.169.872.39 1.195z" fill="url(#paint11_linear)"/><path d="M62.19 60.469l-2.38 1.382c-.663.384-1.751.384-2.427-.005L31.764 47.063a1.182 1.182 0 0 1-.332-.277c-.31.37-.204.83.333 1.14L57.383 62.71c.676.39 1.764.39 2.427.004l2.38-1.381c.529-.308.627-.76.318-1.128-.08.094-.18.185-.318.265z" fill="url(#paint12_linear)"/><path d="M89.692 29.982l-9.192 5.34c-.729.423-1.906.418-2.63 0l-10.737-6.195a1.29 1.29 0 0 1-.39-.332c-.3.395-.169.872.39 1.195l10.736 6.195c.725.418 1.902.422 2.631 0l9.192-5.34c.552-.32.676-.796.38-1.19a1.232 1.232 0 0 1-.38.327z" fill="url(#paint13_linear)"/><path d="M95.014 23.207l-2.07 1.203c-.838.485-2.208.488-3.047.004L64.582 9.806a1.182 1.182 0 0 1-.332-.276c-.311.372-.205.83.332 1.14l25.315 14.607c.84.483 2.209.481 3.047-.005l2.07-1.202c.523-.304.626-.759.318-1.128-.081.094-.18.185-.318.265z" fill="url(#paint14_linear)"/><path d="M68.787 53.381l-2.38 1.382c-.663.386-1.751.386-2.426-.004L38.36 39.977a1.203 1.203 0 0 1-.332-.277c-.31.37-.206.83.333 1.14L63.98 55.62c.675.392 1.763.392 2.426.006l2.38-1.382c.523-.304.624-.757.316-1.128-.08.096-.18.187-.316.265z" fill="url(#paint15_linear)"/><path d="M78.377 41.39l-8.141 4.728c-1.06.616-2.781.616-3.85 0L42.179 32.149c-.338-.195-.557-.431-.68-.681-.262.532-.043 1.128.68 1.544l24.209 13.97c1.068.615 2.789.615 3.849 0l8.141-4.73c.719-.417.932-1.005.67-1.535-.121.246-.336.479-.67.673z" fill="url(#paint16_linear)"/><g style="mix-blend-mode:screen"><path style="mix-blend-mode:screen" d="M36.556 45.036c-.675-.39-1.756-.394-2.427-.004l-2.38 1.382c-.663.385-.66 1.015.016 1.405l9.08 5.238h9.613l-13.902-8.02z" fill="url(#paint17_linear)"/><path style="mix-blend-mode:screen" d="M41.48 58.785c-.488-.282-1.276-.277-1.754 0l-3.511 2.04c-.478.278-.483.733.005 1.016l2.177 1.255h10.556l-7.473-4.311z" fill="url(#paint18_linear)"/><path style="mix-blend-mode:screen" d="M43.152 37.95c-.676-.39-1.764-.39-2.427-.005l-2.38 1.382c-.663.386-.66 1.015.016 1.407l9.942 5.735h9.613L43.152 37.95z" fill="url(#paint19_linear)"/><path style="mix-blend-mode:screen" d="M26.795 50.31c-.482-.277-1.277-.277-1.754 0l-3.513 2.04c-.477.276-.474.738.006 1.015l3.001 1.731H35.09l-8.295-4.786z" fill="url(#paint20_linear)"/><path style="mix-blend-mode:screen" d="M69.38 7.773c-.677-.39-1.764-.39-2.428-.004l-1.68.975c-1.051.612-1.05 1.61.005 2.218l12.7 7.329h9.631L69.38 7.773z" fill="url(#paint21_linear)"/><path style="mix-blend-mode:screen" d="M64.262 14.545c-.725-.418-1.91-.418-2.63 0l-7.474 4.342h17.627l-7.523-4.342z" fill="url(#paint22_linear)"/><path style="mix-blend-mode:screen" d="M78.95 23.02c-.726-.419-1.91-.419-2.63 0l-6.386 3.709h15.443L78.95 23.02z" fill="url(#paint23_linear)"/><path style="mix-blend-mode:screen" d="M54.148 25.953c-1.06-.612-2.773-.616-3.833 0l-8.142 4.728c-1.06.616-1.054 1.612.004 2.223l3.056 1.764h24.016l-15.101-8.715z" fill="url(#paint24_linear)"/></g><path d="M87.258 79.397c-.342-.197-.898-.197-1.238 0-.007.004-.008.01-.015.014l-6.367-3.667c-1.03-.593-1.866-2.04-1.863-3.224l.033-25.248c.003-1.292-.906-2.865-2.023-3.51l-2.8-1.615c.198-.195.166-.445-.123-.612-.343-.198-.897-.198-1.238 0-.34.198-.339.519.004.716.325.187.832.191 1.175.025l2.982 1.72c1.008.581 1.822 2.001 1.819 3.157l-.034 25.25c-.002 1.307.929 2.911 2.067 3.569l6.212 3.575c-.145.186-.091.414.175.567.343.197.897.197 1.238 0 .341-.198.339-.52-.004-.717z" fill="url(#paint25_linear)"/><path d="M42.903 39.231c-.343-.197-.897-.197-1.237 0-.007.004-.009.01-.015.012l-6.369-3.665c-1.029-.594-1.866-2.042-1.862-3.224l.033-7.588c.004-1.29-.906-2.863-2.022-3.509l-2.8-1.614c.197-.195.166-.445-.123-.612-.343-.198-.898-.198-1.238 0-.342.198-.34.519.004.716.323.187.831.191 1.174.025l2.981 1.72c1.008.581 1.823 2 1.82 3.157l-.033 7.587c-.004 1.308.927 2.912 2.066 3.568l6.213 3.576c-.146.187-.092.415.175.568.343.197.897.197 1.237 0 .34-.198.34-.52-.004-.717z" fill="url(#paint26_linear)"/><path d="M110.209 65.898c-.343-.197-.897-.197-1.239 0-.005.004-.008.01-.013.012l-7.555-4.364c-1.029-.594-1.866-2.042-1.863-3.224l.032-28.651c.004-1.291-.905-2.865-2.022-3.51l-5.432-3.2c.198-.195.166-.445-.124-.612-.341-.198-.897-.198-1.237 0-.34.197-.34.519.004.716.324.187.831.191 1.174.025l5.615 3.306c1.006.58 1.822 2 1.819 3.156l-.034 28.652c-.002 1.308.929 2.91 2.067 3.568l7.4 4.276c-.147.186-.092.414.173.567.344.198.898.198 1.239 0 .341-.198.338-.52-.004-.717z" fill="url(#paint27_linear)"/><path d="M.258 80.655c.343-.197.898-.197 1.238 0 .007.004.008.01.015.012L24.564 69.93c1.029-.593 1.823-.994 1.862-1.993-.004-1.291.905-2.372 2.022-3.017l2.8-1.615c-.197-.195-.165-.445.124-.611.342-.198.896-.198 1.238 0 .34.197.337.519-.004.716-.324.187-.832.191-1.175.024l-2.982 1.721c-1.008.581-1.822 1.507-1.819 2.665.004 1.306-.982 1.732-2.066 2.337L1.667 80.805c.145.186.091.414-.175.567-.343.198-.897.198-1.238 0-.34-.198-.339-.52.004-.717z" fill="url(#paint28_linear)"/><path d="M44.333 64.92a.887.887 0 0 1-.203-.117l-1.671 1.026c-1.44.836-3.985.727-5.668-.244l-10.923-6.223c-1.69-.975-1.886-2.447-.444-3.283l1.67-1.026a1.022 1.022 0 0 1-.195-.113l-1.672 1.026c-1.548.9-1.358 2.476.44 3.514l10.923 6.222c1.791 1.034 4.524 1.143 6.072.244l1.67-1.026z" fill="url(#paint29_linear)"/><path d="M27.995 54.438c-.34-.198-.894-.198-1.237 0-.29.166-.32.417-.124.611l.183.13c.343.166.852.162 1.174-.025.344-.198.346-.519.005-.717z" fill="url(#paint30_linear)"/><path d="M45.087 64.33c-.34-.199-.896-.199-1.237 0-.29.167-.322.417-.126.61l.185.131c.341.165.85.163 1.174-.024.342-.2.345-.52.004-.717z" fill="url(#paint31_linear)"/><path d="M88.001.865c-.343.197-.897.197-1.237 0-.007-.004-.008-.01-.015-.014L80.94 4.203c-1.029.594-1.866 2.042-1.863 3.224l.034 9.251c.002 1.29-.907 2.865-2.023 3.51l-1.482.876c.197.194.166.445-.123.612-.343.197-.898.197-1.238 0-.34-.198-.339-.52.004-.717.324-.187.831-.19 1.174-.024l1.665-.982c1.007-.582 1.821-2 1.818-3.156l-.033-9.252c-.003-1.308.928-2.91 2.066-3.568L86.593.716c-.145-.187-.091-.415.175-.568.343-.197.897-.197 1.238 0 .34.198.339.52-.005.717z" fill="url(#paint32_linear)"/><path d="M62.522 19.447a.822.822 0 0 1 .203.118l1.67-1.026c1.442-.837 3.987-.728 5.669.242l10.923 6.224c1.69.975 1.886 2.448.445 3.284l-1.67 1.025c.034.016.068.032.1.05.035.021.066.041.094.064l1.671-1.026c1.55-.9 1.36-2.476-.438-3.514l-10.924-6.224c-1.79-1.032-4.524-1.141-6.072-.242l-1.671 1.025z" fill="url(#paint33_linear)"/><path d="M78.859 29.929c.34.197.894.197 1.237 0 .29-.167.32-.417.124-.612l-.183-.13c-.343-.166-.85-.162-1.174.025-.343.198-.345.519-.004.717z" fill="url(#paint34_linear)"/><path d="M61.768 20.038c.34.197.895.197 1.237 0 .29-.167.32-.417.124-.612l-.183-.129c-.343-.166-.85-.162-1.174.024-.343.198-.344.52-.004.717z" fill="url(#paint35_linear)"/><defs><filter id="filter0_d" x="4.07" y="19.771" width="116.061" height="76.11" filterUnits="userSpaceOnUse" color-interpolation-filters="sRGB"><feFlood flood-opacity="0" result="BackgroundImageFix"/><feColorMatrix in="SourceAlpha" values="0 0 0 0 0 0 0 0 0 0 0 0 0 0 0 0 0 0 127 0" result="hardAlpha"/><feOffset dy="10"/><feGaussianBlur stdDeviation="5"/><feComposite in2="hardAlpha" operator="out"/><feColorMatrix values="0 0 0 0 0 0 0 0 0 0 0 0 0 0 0 0 0 0 0.25 0"/><feBlend in2="BackgroundImageFix" result="effect1_dropShadow"/><feBlend in="SourceGraphic" in2="effect1_dropShadow" result="shape"/></filter><linearGradient id="paint0_linear" x1="11.17" y1="57.654" x2="50.715" y2="-13.231" gradientUnits="userSpaceOnUse"><stop stop-color="#53637A"/><stop offset="1" stop-color="#323A47"/></linearGradient><linearGradient id="paint1_linear" x1="53.87" y1="-11.799" x2="65.5" y2="66.563" gradientUnits="userSpaceOnUse"><stop stop-color="#2300A1"/><stop offset=".586" stop-color="#E80169"/><stop offset="1" stop-color="#FA0"/></linearGradient><linearGradient id="paint2_linear" x1="44.078" y1="-10.019" x2="55.673" y2="68.105" gradientUnits="userSpaceOnUse"><stop stop-color="#2300A1"/><stop offset=".586" stop-color="#E80169"/><stop offset="1" stop-color="#FA0"/></linearGradient><linearGradient id="paint3_linear" x1="61.348" y1="-12.985" x2="72.981" y2="65.389" gradientUnits="userSpaceOnUse"><stop stop-color="#2300A1"/><stop offset=".586" stop-color="#E80169"/><stop offset="1" stop-color="#FA0"/></linearGradient><linearGradient id="paint4_linear" x1="30.917" y1="-8.23" x2="42.516" y2="69.915" gradientUnits="userSpaceOnUse"><stop stop-color="#2300A1"/><stop offset=".586" stop-color="#E80169"/><stop offset="1" stop-color="#FA0"/></linearGradient><linearGradient id="paint5_linear" x1="90.987" y1="-20.191" x2="102.55" y2="57.718" gradientUnits="userSpaceOnUse"><stop stop-color="#2300A1"/><stop offset=".586" stop-color="#E80169"/><stop offset="1" stop-color="#FA0"/></linearGradient><linearGradient id="paint6_linear" x1="71.605" y1="-17.942" x2="83.182" y2="60.06" gradientUnits="userSpaceOnUse"><stop stop-color="#2300A1"/><stop offset=".586" stop-color="#E80169"/><stop offset="1" stop-color="#FA0"/></linearGradient><linearGradient id="paint7_linear" x1="84.767" y1="-19.733" x2="96.344" y2="58.268" gradientUnits="userSpaceOnUse"><stop stop-color="#2300A1"/><stop offset=".586" stop-color="#E80169"/><stop offset="1" stop-color="#FA0"/></linearGradient><linearGradient id="paint8_linear" x1="72.485" y1="-17.003" x2="84.078" y2="61.1" gradientUnits="userSpaceOnUse"><stop stop-color="#2300A1"/><stop offset=".586" stop-color="#E80169"/><stop offset="1" stop-color="#FA0"/></linearGradient><linearGradient id="paint9_linear" x1="36.503" y1="44.571" x2="41.282" y2="59.149" gradientUnits="userSpaceOnUse"><stop/><stop offset="1" stop-color="#768FB5"/></linearGradient><linearGradient id="paint10_linear" x1="35.971" y1="59.141" x2="53.341" y2="59.141" gradientUnits="userSpaceOnUse"><stop/><stop offset="1" stop-color="#768FB5"/></linearGradient><linearGradient id="paint11_linear" x1="62.933" y1="6.012" x2="76.623" y2="19.942" gradientUnits="userSpaceOnUse"><stop/><stop offset="1" stop-color="#768FB5"/></linearGradient><linearGradient id="paint12_linear" x1="52.635" y1="36.863" x2="62.922" y2="56.865" gradientUnits="userSpaceOnUse"><stop/><stop offset="1" stop-color="#768FB5"/></linearGradient><linearGradient id="paint13_linear" x1="81.65" y1="12.005" x2="92.9" y2="30.922" gradientUnits="userSpaceOnUse"><stop/><stop offset="1" stop-color="#768FB5"/></linearGradient><linearGradient id="paint14_linear" x1="80.229" y1=".251" x2="96.455" y2="21.393" gradientUnits="userSpaceOnUse"><stop/><stop offset="1" stop-color="#768FB5"/></linearGradient><linearGradient id="paint15_linear" x1="59.227" y1="30.877" x2="72.436" y2="55.323" gradientUnits="userSpaceOnUse"><stop/><stop offset="1" stop-color="#768FB5"/></linearGradient><linearGradient id="paint16_linear" x1="64.425" y1="17.236" x2="80.268" y2="39.383" gradientUnits="userSpaceOnUse"><stop/><stop offset="1" stop-color="#768FB5"/></linearGradient><linearGradient id="paint17_linear" x1="47.609" y1="21.229" x2="53.287" y2="59.487" gradientUnits="userSpaceOnUse"><stop stop-color="#fff"/><stop offset="1"/></linearGradient><linearGradient id="paint18_linear" x1="46.172" y1="31.764" x2="52.029" y2="71.229" gradientUnits="userSpaceOnUse"><stop stop-color="#fff"/><stop offset="1"/></linearGradient><linearGradient id="paint19_linear" x1="54.897" y1="13.478" x2="60.916" y2="54.035" gradientUnits="userSpaceOnUse"><stop stop-color="#fff"/><stop offset="1"/></linearGradient><linearGradient id="paint20_linear" x1="31.331" y1="17.183" x2="37.806" y2="60.807" gradientUnits="userSpaceOnUse"><stop stop-color="#fff"/><stop offset="1"/></linearGradient><linearGradient id="paint21_linear" x1="83.418" y1="-22.609" x2="90.8" y2="27.128" gradientUnits="userSpaceOnUse"><stop stop-color="#fff"/><stop offset="1"/></linearGradient><linearGradient id="paint22_linear" x1="69.685" y1="-7.829" x2="74.618" y2="25.41" gradientUnits="userSpaceOnUse"><stop stop-color="#fff"/><stop offset="1"/></linearGradient><linearGradient id="paint23_linear" x1="84.115" y1="5.598" x2="88.381" y2="34.339" gradientUnits="userSpaceOnUse"><stop stop-color="#fff"/><stop offset="1"/></linearGradient><linearGradient id="paint24_linear" x1="66.354" y1="2.584" x2="71.937" y2="40.203" gradientUnits="userSpaceOnUse"><stop stop-color="#fff"/><stop offset="1"/></linearGradient><linearGradient id="paint25_linear" x1="89.38" y1="41.389" x2="89.38" y2="79.468" gradientUnits="userSpaceOnUse"><stop stop-color="#FFDA00"/><stop offset="1" stop-color="#FA0"/></linearGradient><linearGradient id="paint26_linear" x1="25.152" y1="38.944" x2="25.152" y2="18.203" gradientUnits="userSpaceOnUse"><stop stop-color="#FFDA00"/><stop offset="1" stop-color="#FA0"/></linearGradient><linearGradient id="paint27_linear" x1="105.011" y1="25.918" x2="110.876" y2="57.846" gradientUnits="userSpaceOnUse"><stop stop-color="#FFDA00"/><stop offset="1" stop-color="#FA0"/></linearGradient><linearGradient id="paint28_linear" x1="34.726" y1="55.843" x2="34.726" y2="85.699" gradientUnits="userSpaceOnUse"><stop stop-color="#FFDA00"/><stop offset="1" stop-color="#FA0"/></linearGradient><linearGradient id="paint29_linear" x1="46.171" y1="55.75" x2="46.171" y2="84.98" gradientUnits="userSpaceOnUse"><stop stop-color="#FFDA00"/><stop offset="1" stop-color="#FA0"/></linearGradient><linearGradient id="paint30_linear" x1="29.977" y1="55.687" x2="29.977" y2="83.054" gradientUnits="userSpaceOnUse"><stop stop-color="#FFDA00"/><stop offset="1" stop-color="#FA0"/></linearGradient><linearGradient id="paint31_linear" x1="47.067" y1="56.544" x2="47.067" y2="83.911" gradientUnits="userSpaceOnUse"><stop stop-color="#FFDA00"/><stop offset="1" stop-color="#FA0"/></linearGradient><linearGradient id="paint32_linear" x1="72.13" y1="24.338" x2="72.13" y2="3.869" gradientUnits="userSpaceOnUse"><stop stop-color="#FFDA00"/><stop offset="1" stop-color="#FA0"/></linearGradient><linearGradient id="paint33_linear" x1="60.684" y1="24.521" x2="60.684" y2="4.46" gradientUnits="userSpaceOnUse"><stop stop-color="#FFDA00"/><stop offset="1" stop-color="#FA0"/></linearGradient><linearGradient id="paint34_linear" x1="76.878" y1="24.844" x2="76.878" y2="6.062" gradientUnits="userSpaceOnUse"><stop stop-color="#FFDA00"/><stop offset="1" stop-color="#FA0"/></linearGradient><linearGradient id="paint35_linear" x1="59.787" y1="23.988" x2="59.787" y2="5.206" gradientUnits="userSpaceOnUse"><stop stop-color="#FFDA00"/><stop offset="1" stop-color="#FA0"/></linearGradient></defs></svg>