<svg width="121" height="96" viewBox="0 0 121 96" fill="none" xmlns="http://www.w3.org/2000/svg">
<g filter="url(#filter0_d)">
<path d="M107.843 34.9476L82.7821 21.0823C79.7499 19.3332 74.8505 19.3359 71.8452 21.0823L16.9521 52.8235C13.9401 54.5726 12.8343 58.2604 15.8665 60.0096L40.9326 74.5686C43.9635 76.3177 48.8629 76.3204 51.8749 74.5713L107.89 41.9751C110.895 40.23 110.875 36.6968 107.843 34.9476Z" fill="url(#paint0_linear)"/>
<g style="mix-blend-mode:multiply">
<path d="M107.843 34.9476L82.7821 21.0823C79.7499 19.3332 74.8505 19.3359 71.8452 21.0823L16.9521 52.8235C13.9401 54.5726 12.8343 58.2604 15.8665 60.0096L40.9326 74.5686C43.9635 76.3177 48.8629 76.3204 51.8749 74.5713L107.89 41.9751C110.895 40.23 110.875 36.6968 107.843 34.9476Z" fill="#818A94"/>
<path opacity="0.973" d="M71.8314 21.0972L16.9908 52.7954C13.999 54.5324 12.9349 58.1691 15.9469 59.9062L40.9579 74.3913C41.2632 74.5674 41.6238 74.7436 41.9655 74.8834C44.9734 76.1297 49.176 75.9737 51.8638 74.4128L107.822 41.865C110.809 40.1306 110.789 36.6431 107.777 34.9061L84.6652 22.1203C84.641 22.1069 82.7764 21.077 82.7522 21.0676C80.8742 19.9988 78.3115 19.5928 75.9062 19.8509C75.8955 19.8522 75.8847 19.8536 75.8726 19.8549C74.3928 20.0176 72.9776 20.4317 71.8314 21.0972Z" fill="#868F98"/>
<path opacity="0.949" d="M71.803 21.1137L17.0121 52.7661C14.0405 54.4924 13.0208 58.0767 16.0113 59.803L40.9671 74.2128C41.2603 74.3822 41.6437 74.5718 41.9706 74.7062C44.9584 75.9606 49.1556 75.8113 51.8367 74.2545L107.739 41.755C110.705 40.0315 110.685 36.5897 107.693 34.8647L84.6192 22.1005C84.5708 22.0736 82.756 21.0733 82.7076 21.0532C80.8189 19.9937 78.271 19.5931 75.8683 19.8593C75.8576 19.8606 75.8455 19.862 75.8347 19.8633C74.3603 20.0301 72.9505 20.4468 71.803 21.1137Z" fill="#8B939C"/>
<path opacity="0.922" d="M71.7824 21.1286L17.0427 52.738C14.0912 54.4521 13.1146 57.9854 16.0862 59.6995L40.9855 74.0354C41.2667 74.1981 41.6716 74.3998 41.9864 74.5288C44.954 75.7913 49.1445 75.6488 51.8175 74.0959L107.666 41.6436C110.612 39.9334 110.592 36.536 107.62 34.8218L84.5812 22.0805C84.5099 22.0401 82.7436 21.0681 82.6709 21.0385C80.7728 19.9871 78.241 19.5932 75.8384 19.8675C75.8276 19.8688 75.8168 19.8702 75.8061 19.8715C74.3371 20.0423 72.9326 20.4617 71.7824 21.1286Z" fill="#9098A0"/>
<path opacity="0.894" d="M71.7616 21.1434L17.073 52.7098C14.1403 54.4119 13.2067 57.894 16.1582 59.5961L41.0023 73.858C41.2714 74.014 41.6992 74.2277 41.9992 74.3514C44.948 75.6206 49.1331 75.4848 51.798 73.9373L107.59 41.5334C110.516 39.834 110.497 36.4836 107.545 34.7802L84.5429 22.0603C84.446 22.0052 82.7308 21.0628 82.6326 21.0238C80.7264 19.9818 78.208 19.5946 75.8081 19.8756C75.7974 19.877 75.7866 19.8783 75.7758 19.8796C74.3122 20.0544 72.9118 20.4766 71.7616 21.1434Z" fill="#949CA4"/>
<path opacity="0.871" d="M71.7411 21.159L17.1036 52.6797C14.1911 54.3724 13.3006 57.8007 16.2319 59.4934L41.0209 73.6801C41.2778 73.8293 41.7285 74.0552 42.015 74.1721C44.9423 75.4507 49.122 75.3216 51.7802 73.7782L107.516 41.4226C110.423 39.734 110.404 36.4293 107.471 34.7367L84.5063 22.0397C84.3852 21.9711 82.7184 21.0582 82.5974 21.0085C80.6804 19.9759 78.1782 19.5941 75.7796 19.8832C75.7688 19.8845 75.7581 19.8858 75.7473 19.8872C74.2877 20.066 72.894 20.4909 71.7411 21.159Z" fill="#99A1A9"/>
<path opacity="0.843" d="M71.718 21.1727L17.133 52.6503C14.2393 54.3309 13.3918 57.7082 16.3043 59.3887L41.0381 73.5015C41.283 73.6426 41.7538 73.8819 42.0269 73.9935C44.9353 75.2802 49.1097 75.1565 51.7585 73.6184L107.44 41.3112C110.326 39.6347 110.307 36.3744 107.396 34.6938L84.4657 22.0183C84.3217 21.9363 82.7047 21.0517 82.5581 20.9939C80.6317 19.9694 78.1457 19.593 75.7484 19.8901C75.7376 19.8914 75.7269 19.8928 75.7161 19.8941C74.2619 20.077 72.8736 20.5045 71.718 21.1727Z" fill="#9EA5AD"/>
<path opacity="0.816" d="M71.6977 21.1902L17.1625 52.6235C14.289 54.292 13.4845 57.6181 16.3768 59.2866L41.0555 73.3253C41.2882 73.4598 41.7819 73.7112 42.0416 73.8174C44.9298 75.1121 49.0974 74.9951 51.7395 73.4611L107.364 41.201C110.231 39.5366 110.212 36.322 107.321 34.6536L84.4278 21.9996C84.2597 21.9041 82.6911 21.0477 82.5203 20.9805C80.5844 19.9654 78.1132 19.5944 75.7173 19.9009C75.7066 19.9022 75.6971 19.9036 75.6864 19.9049C74.2375 20.0905 72.8533 20.5207 71.6977 21.1902Z" fill="#A3AAB1"/>
<path opacity="0.792" d="M71.6778 21.2053L17.1937 52.5942C14.3417 54.2519 13.579 57.527 16.4511 59.1833L41.0746 73.1481C41.2952 73.2759 41.8105 73.5394 42.0567 73.6402C44.9247 74.943 49.087 74.8314 51.7223 73.3028L107.291 41.0911C110.139 39.4374 110.12 36.2685 107.248 34.6108L84.3918 21.9797C84.1981 21.8694 82.6807 21.044 82.4856 20.966C80.539 19.9603 78.0839 19.596 75.6894 19.9092C75.6786 19.9106 75.6679 19.9119 75.6571 19.9133C74.215 20.1028 72.8361 20.5358 71.6778 21.2053Z" fill="#A8AEB5"/>
<path opacity="0.765" d="M71.6557 21.2192L17.2227 52.5651C14.3896 54.2107 13.6712 57.4334 16.5218 59.079L41.0902 72.9698C41.2987 73.0895 41.8368 73.3665 42.0696 73.4619C44.9175 74.7727 49.0743 74.6679 51.7002 73.1433L107.215 40.98C110.041 39.3371 110.024 36.2139 107.172 34.5683L84.3522 21.9587C84.1343 21.835 82.6653 21.0377 82.446 20.9503C80.49 19.9528 78.0497 19.5951 75.6579 19.9165C75.6471 19.9178 75.6363 19.9191 75.6256 19.9205C74.1888 20.1141 72.8153 20.5497 71.6557 21.2192Z" fill="#ADB3B9"/>
<path opacity="0.737" d="M71.6354 21.2363L17.2535 52.5378C14.4406 54.1713 13.7652 57.3429 16.597 58.9764L41.1089 72.7933C41.3053 72.9063 41.8663 73.1953 42.0842 73.2854C44.9133 74.6043 49.0634 74.5062 51.6826 72.9842L107.141 40.8693C109.948 39.2398 109.931 36.1611 107.099 34.5262L84.3144 21.9381C84.0736 21.8023 82.6544 21.0333 82.4096 20.9365C80.4455 19.9483 78.02 19.5961 75.6295 19.9255C75.6187 19.9268 75.608 19.9281 75.5972 19.9295C74.1658 20.1271 72.7964 20.5654 71.6354 21.2363Z" fill="#B1B7BD"/>
<path opacity="0.714" d="M71.6149 21.2503L17.2827 52.5075C14.49 54.1303 13.8577 57.2507 16.6693 58.8721L41.1274 72.6151C41.3103 72.7213 41.8928 73.0225 42.0973 73.1072C44.9062 74.4342 49.0523 74.3414 51.6634 72.8249L107.065 40.7583C109.852 39.1396 109.835 36.1065 107.023 34.4838L84.2764 21.9172C84.0114 21.768 82.6406 21.0285 82.3729 20.9209C80.398 19.9422 77.9873 19.5967 75.5995 19.9328C75.5887 19.9341 75.578 19.9355 75.5672 19.9368C74.1413 20.1371 72.7772 20.5795 71.6149 21.2503Z" fill="#B6BCC1"/>
<path opacity="0.686" d="M71.595 21.2668L17.3153 52.4796C14.5414 54.0902 13.9522 57.1583 16.7436 58.7689L41.1465 72.4379C41.3174 72.5361 41.9227 72.8507 42.1137 72.9287C44.9025 74.2651 49.0418 74.179 51.6449 72.6665L106.991 40.6484C109.76 39.0404 109.742 36.053 106.951 34.4424L84.2404 21.8973C83.9512 21.7346 82.6301 21.0234 82.3368 20.9065C80.3526 19.9371 77.958 19.597 75.5702 19.9411C75.5595 19.9425 75.55 19.9438 75.5393 19.9452C74.1187 20.1495 72.76 20.5945 71.595 21.2668Z" fill="#BBC0C5"/>
<path opacity="0.659" d="M71.573 21.2816L17.3444 52.45C14.5907 54.0499 14.0445 57.0669 16.8158 58.6654L41.1635 72.2605C41.3222 72.3519 41.9491 72.6786 42.1267 72.7512C44.8966 74.0944 49.0306 74.015 51.6255 72.5079L106.917 40.5368C109.664 38.941 109.648 35.9993 106.876 34.3994L84.2009 21.8772C83.8874 21.6997 82.6161 21.0181 82.3 20.8917C80.305 19.9318 77.9253 19.597 75.5401 19.9493C75.5294 19.9506 75.5186 19.9519 75.5092 19.9533C74.094 20.1617 72.7393 20.6094 71.573 21.2816Z" fill="#C0C4C9"/>
<path opacity="0.635" d="M71.5528 21.2961L17.3741 52.4215C14.6405 54.0093 14.1374 56.9751 16.8898 58.5629L41.181 72.0827C41.3277 72.1674 41.9774 72.5062 42.1415 72.5735C44.8912 73.9246 49.0185 73.852 51.6068 72.3489L106.842 40.4263C109.57 38.8425 109.554 35.9452 106.801 34.3574L84.1633 21.8567C83.8256 21.6658 82.6041 21.0124 82.2624 20.8766C80.258 19.9247 77.8944 19.598 75.5106 19.957C75.4998 19.9583 75.4891 19.9597 75.4783 19.9624C74.0698 20.1735 72.7205 20.6252 71.5528 21.2961Z" fill="#C5C9CE"/>
<path opacity="0.608" d="M71.5316 21.3126L17.4053 52.3936C14.6919 53.9693 14.2305 56.8827 16.9627 58.4598L41.1988 71.9056C41.3334 71.9823 42.006 72.3345 42.1553 72.3964C44.8848 73.7556 49.0067 73.6897 51.5869 72.1907L106.767 40.3164C109.476 38.7434 109.458 35.8918 106.728 34.3161L84.1259 21.8369C83.764 21.6326 82.591 21.0088 82.2251 20.8622C80.2112 19.9197 77.8624 19.5984 75.4813 19.9655C75.4705 19.9668 75.4598 19.9682 75.449 19.9708C74.0459 20.186 72.7007 20.6404 71.5316 21.3126Z" fill="#CACDD2"/>
<path opacity="0.58" d="M71.5106 21.3274L17.434 52.3641C14.7408 53.929 14.3238 56.7913 17.0345 58.3563L41.2154 71.7282C41.3379 71.7981 42.032 72.1625 42.1692 72.2189C44.8786 73.5862 48.995 73.5257 51.5672 72.032L106.692 40.2062C109.379 38.6439 109.363 35.8381 106.653 34.2731L84.0873 21.8168C83.7013 21.599 82.578 21.0034 82.1879 20.8488C80.1646 19.9144 77.8306 19.5984 75.4495 19.9735C75.4401 19.9749 75.4293 19.9776 75.4185 19.9789C74.0208 20.198 72.6809 20.6538 71.5106 21.3274Z" fill="#CFD2D6"/>
<path opacity="0.557" d="M71.4897 21.3437L17.4657 52.3359C14.7913 53.8888 14.4174 56.7 17.1079 58.2529L41.235 71.5508C41.344 71.614 42.061 71.9905 42.1834 72.0416C44.8739 73.4169 48.9837 73.3632 51.5491 71.8735L106.617 40.0947C109.286 38.5446 109.27 35.7844 106.578 34.2316L84.049 21.7967C83.6401 21.5641 82.5652 20.9981 82.1509 20.8341C80.1182 19.9091 77.799 19.5986 75.4206 19.9817C75.4098 19.9831 75.4004 19.9858 75.3896 19.9871C73.9973 20.2103 72.6628 20.6687 71.4897 21.3437Z" fill="#D3D6DA"/>
<path opacity="0.529" d="M71.4695 21.3579L17.4952 52.3071C14.841 53.8479 14.5101 56.608 17.1818 58.1488L41.2524 71.3728C41.3506 71.4293 42.0878 71.8178 42.1967 71.8622C44.8671 73.247 48.9728 73.1986 51.5288 71.7143L106.542 39.9839C109.19 38.4458 109.176 35.73 106.504 34.188L84.0113 21.776C83.5768 21.5299 82.553 20.9935 82.1131 20.8187C80.071 19.9032 77.7679 19.5993 75.3909 19.9892C75.3801 19.9906 75.3694 19.9932 75.3599 19.9946C73.973 20.2218 72.6439 20.6829 71.4695 21.3579Z" fill="#D8DBDE"/>
<path opacity="0.502" d="M71.4468 21.3722L17.5237 52.277C14.8896 53.807 14.6018 56.5147 17.2533 58.0447L41.2688 71.1935C41.3548 71.2432 42.1149 71.6452 42.2104 71.6842C44.8606 73.077 48.9596 73.0354 51.5088 71.5551L106.467 39.8731C109.095 38.3458 109.08 35.6758 106.429 34.1458L83.9725 21.7553C83.5138 21.4958 82.5385 20.9876 82.0757 20.8034C80.0229 19.8973 77.7346 19.5988 75.3589 19.9968C75.3494 19.9995 75.3387 20.0008 75.3293 20.0022C73.9477 20.2334 72.6226 20.6986 71.4468 21.3722Z" fill="#DDDFE2"/>
<path opacity="0.478" d="M71.4247 21.3892L17.554 52.2498C14.9389 53.7677 14.694 56.4243 17.3253 57.9422L41.2857 71.017C41.3597 71.06 42.1412 71.4741 42.2233 71.5077C44.8546 72.9086 48.9469 72.8737 51.4894 71.3975L106.391 39.7625C108.999 38.2473 108.984 35.623 106.353 34.1051L83.9329 21.7361C83.4513 21.4632 82.5258 20.9832 82.0374 20.7896C79.9752 19.8915 77.703 19.5998 75.3286 20.0058C75.3192 20.0085 75.3085 20.0098 75.2991 20.0112C73.9229 20.2465 72.6032 20.7143 71.4247 21.3892Z" fill="#E2E4E6"/>
<path opacity="0.451" d="M71.4063 21.4046L17.5854 52.2221C14.9904 53.7279 14.7886 56.3335 17.3998 57.8393L41.3049 70.8401C41.3668 70.8764 42.1713 71.3026 42.2399 71.3308C44.8497 72.7398 48.9379 72.7102 51.471 71.2394L106.317 39.6529C108.907 38.1498 108.892 35.5698 106.281 34.0626L83.897 21.7152C83.3912 21.4302 82.5141 20.9798 82.0016 20.7754C79.9299 19.8868 77.6725 19.6017 75.3009 20.0145C75.2901 20.0172 75.2807 20.0185 75.2699 20.0199C73.8991 20.2592 72.5848 20.7297 71.4063 21.4046Z" fill="#E7E8EA"/>
<path opacity="0.424" d="M71.3838 21.4199L17.6139 52.1917C15.0405 53.6868 14.8804 56.2399 17.4727 57.7349L41.3227 70.6618C41.3711 70.6901 42.1985 71.1297 42.2523 71.1526C44.8432 72.5683 48.9247 72.5468 51.4511 71.08L106.242 39.5418C108.811 38.0495 108.797 35.5152 106.206 34.0201L83.8583 21.6942C83.3269 21.3944 82.5009 20.9736 81.9642 20.7598C79.8831 19.8805 77.6405 19.6009 75.2702 20.023C75.2594 20.0244 75.25 20.0257 75.2392 20.0284C73.8738 20.2704 72.5649 20.7437 71.3838 21.4199Z" fill="#ECEDEF"/>
<path opacity="0.4" d="M71.3633 21.4352L17.6445 52.164C15.0899 53.6482 14.9742 56.1489 17.545 57.6332L41.3399 70.4848C41.3762 70.5063 42.225 70.9581 42.2667 70.9755C44.8375 72.3993 48.9137 72.3832 51.4306 70.9204L106.166 39.432C108.716 37.9504 108.702 35.4618 106.13 33.9789L83.819 21.6745C83.2648 21.3612 82.4872 20.9686 81.9262 20.7455C79.8357 19.8756 77.608 19.6013 75.2403 20.0316C75.2295 20.0329 75.2201 20.0343 75.2094 20.0369C73.8493 20.283 72.5458 20.7576 71.3633 21.4352Z" fill="#F0F1F3"/>
<path opacity="0.373" d="M71.3423 21.4503L17.6747 52.136C15.1403 53.6082 15.0676 56.0578 17.6182 57.53L41.3579 70.3076C41.3821 70.3224 42.2538 70.7863 42.2807 70.797C44.8313 72.2302 48.9021 72.2208 51.4123 70.7621L106.091 39.3207C108.622 37.8512 108.608 35.4084 106.057 33.9362L83.7818 21.6546C83.2034 21.3279 82.4756 20.9649 81.8904 20.731C79.7891 19.8706 77.5775 19.603 75.2099 20.04C75.2004 20.0413 75.1897 20.0427 75.1803 20.0453C73.8256 20.2954 72.5261 20.774 71.3423 21.4503Z" fill="#F5F6F7"/>
<path opacity="0.345" d="M71.32 21.4658L17.7049 52.1058C15.1893 53.5672 15.1597 55.9644 17.6901 57.4258L41.3746 70.1295C41.3867 70.1363 42.28 70.6135 42.2948 70.6189C44.8252 72.0602 48.8892 72.0575 51.3927 70.6028L106.017 39.2098C108.526 37.7524 108.512 35.3539 105.982 33.8939L83.7434 21.6338C83.1408 21.2937 82.4614 20.9589 81.852 20.7169C79.7413 19.8632 77.5445 19.6023 75.1795 20.0474C75.1701 20.0487 75.1594 20.0514 75.15 20.0527C73.8007 20.3068 72.5065 20.7882 71.32 21.4658Z" fill="#FAFAFB"/>
<path opacity="0.322" d="M105.908 33.8501L83.7072 21.6129C80.9857 20.0735 78.2226 19.4659 75.1514 20.0547C75.1406 20.0561 75.1312 20.0588 75.1218 20.0601C73.7779 20.3182 72.4891 20.8022 71.3013 21.4798L17.7359 52.0769C15.2405 53.5262 15.2539 55.8723 17.7655 57.3216L42.3097 70.4407C44.8213 71.8901 48.8799 71.8927 51.3753 70.4434L105.943 39.0989C108.433 37.6522 108.42 35.2995 105.908 33.8501Z" fill="white"/>
</g>
</g>
<g style="mix-blend-mode:overlay" opacity="0.51">
<path d="M46.8522 70.706C45.2796 70.706 43.8133 70.3592 42.7196 69.7286L18.1526 56.596C17.2351 56.0676 16.6957 55.3672 16.6943 54.6896C16.693 54.0079 17.2096 53.333 18.1472 52.7872L71.7072 22.1955C72.8304 21.5529 74.0304 21.1065 75.2748 20.8686C76.0187 20.726 76.733 20.6561 77.4258 20.6561C79.3886 20.6561 81.3096 21.2047 83.2992 22.33L105.509 34.5712C106.435 35.1063 106.976 35.8081 106.977 36.4884C106.977 37.17 106.462 37.8449 105.528 38.3868L50.9633 69.7313C49.8777 70.3605 48.4195 70.706 46.8522 70.706Z" fill="#343F50"/>
</g>
<g opacity="0.439">
<g style="mix-blend-mode:overlay" opacity="0.439">
<path d="M69.8282 55.596L44.2092 40.8151C43.5339 40.4239 42.4456 40.4239 41.7824 40.8097L39.4026 42.1918C38.7394 42.5777 38.7421 43.2069 39.4188 43.5968L65.0378 58.379C65.7131 58.7689 66.8014 58.7689 67.4646 58.3831L69.8444 57.0023C70.5076 56.6165 70.5049 55.9872 69.8282 55.596Z" fill="#343F50"/>
</g>
<g style="mix-blend-mode:overlay" opacity="0.439">
<path d="M104.502 35.8664L78.8833 21.0842C78.2066 20.6943 77.1196 20.6943 76.4551 21.0802L74.0767 22.4622C73.404 22.8521 73.4081 23.4813 74.0847 23.8726L99.7024 38.6535C100.379 39.0447 101.467 39.0447 102.139 38.6535L104.518 37.2727C105.182 36.8869 105.178 36.2563 104.502 35.8664Z" fill="#343F50"/>
</g>
<g style="mix-blend-mode:overlay" opacity="0.439">
<path d="M81.113 31.0799L70.3765 24.8846C69.6514 24.4665 68.4662 24.4665 67.7465 24.8846L58.553 30.2248C57.8239 30.647 57.836 31.3286 58.5611 31.7481L69.2976 37.942C70.0227 38.3601 71.1998 38.3655 71.9276 37.942L81.121 32.6031C81.8421 32.185 81.8381 31.498 81.113 31.0799Z" fill="#343F50"/>
</g>
<g style="mix-blend-mode:overlay" opacity="0.439">
<path d="M97.2111 39.771L86.4759 33.5758C85.7508 33.1577 84.5657 33.1577 83.8446 33.5758L74.6512 38.9146C73.9234 39.3381 73.9355 40.0198 74.6592 40.4379L85.3957 46.6331C86.1208 47.0513 87.2979 47.0566 88.027 46.6331L97.2205 41.293C97.9402 40.8748 97.9361 40.1892 97.2111 39.771Z" fill="#343F50"/>
</g>
<g style="mix-blend-mode:overlay" opacity="0.439">
<path d="M82.8739 47.2209L58.6647 33.252C57.606 32.6416 55.8935 32.6376 54.8334 33.252L46.6919 37.9805C45.6319 38.5962 45.6373 39.5938 46.696 40.2042L70.9052 54.173C71.972 54.7888 73.6939 54.7888 74.754 54.173L82.8955 49.4446C83.9555 48.8288 83.9421 47.8366 82.8739 47.2209Z" fill="#343F50"/>
</g>
</g>
<path d="M62.1744 59.8183L36.5554 45.036C35.8801 44.6461 34.7998 44.6421 34.1286 45.032L31.7488 46.4141C31.0856 46.7986 31.0883 47.4291 31.7649 47.819L57.384 62.6013C58.0593 62.9912 59.1476 62.9912 59.8108 62.6053L62.1905 61.2232C62.8618 60.8333 62.8511 60.2082 62.1744 59.8183Z" fill="url(#paint1_linear)"/>
<path d="M53.0981 65.4851L41.4818 58.783C40.9935 58.5006 40.2051 58.506 39.7276 58.783L36.2165 60.8225C35.7389 61.1008 35.7335 61.5566 36.2218 61.8389L47.8381 68.541C48.3184 68.818 49.1134 68.818 49.591 68.541L53.1034 66.5001C53.581 66.2232 53.5783 65.7634 53.0981 65.4851Z" fill="url(#paint2_linear)"/>
<path d="M68.7711 52.7328L43.1521 37.9506C42.4768 37.5607 41.3884 37.5607 40.7252 37.9452L38.3455 39.3273C37.6823 39.7131 37.685 40.3423 38.3616 40.7336L63.9807 55.5145C64.656 55.9044 65.7443 55.9057 66.4075 55.5199L68.7873 54.1378C69.4505 53.7519 69.4464 53.1227 68.7711 52.7328Z" fill="url(#paint3_linear)"/>
<path d="M38.4105 57.0124L26.7955 50.3103C26.3139 50.0333 25.5189 50.0333 25.0413 50.3103L21.5289 52.3498C21.0513 52.6268 21.054 53.0879 21.5342 53.3649L33.1505 60.0683C33.6308 60.3453 34.4272 60.3453 34.9047 60.0683L38.4172 58.0274C38.8948 57.7505 38.8921 57.2893 38.4105 57.0124Z" fill="url(#paint4_linear)"/>
<path d="M94.9999 22.5553L69.3809 7.77303C68.7042 7.38314 67.6172 7.38314 66.9527 7.76899L65.4917 8.61734C64.3187 9.29898 64.32 10.4095 65.4944 11.0871L89.8973 25.1675C90.7368 25.6515 92.1062 25.6502 92.9443 25.1635L95.0147 23.9602C95.6792 23.5757 95.6752 22.9452 94.9999 22.5553Z" fill="url(#paint5_linear)"/>
<path d="M74.9984 20.7404L64.2619 14.5452C63.5368 14.127 62.3517 14.127 61.6306 14.5452L52.4371 19.8853C51.7093 20.3075 51.7214 20.9891 52.4465 21.4086L63.183 27.6025C63.9068 28.0206 65.0852 28.026 65.813 27.6025L75.0065 22.2637C75.7262 21.8455 75.7222 21.1585 74.9984 20.7404Z" fill="url(#paint6_linear)"/>
<path d="M89.6852 29.2136L78.9487 23.0197C78.2236 22.6002 77.0385 22.6002 76.3188 23.0197L67.1253 28.3585C66.3962 28.782 66.4083 29.4636 67.1334 29.8818L77.8698 36.0756C78.5949 36.4951 79.772 36.4991 80.5012 36.0756L89.6933 30.7368C90.4143 30.3187 90.4103 29.6317 89.6852 29.2136Z" fill="url(#paint7_linear)"/>
<path d="M78.3557 39.9217L54.1465 25.9529C53.0878 25.3411 51.374 25.3371 50.3139 25.9529L42.1724 30.6813C41.1123 31.2971 41.1177 32.2933 42.1764 32.9037L66.3857 46.8725C67.4538 47.4883 69.1744 47.4883 70.2344 46.8725L78.3759 42.1441C79.436 41.5283 79.4225 40.5375 78.3557 39.9217Z" fill="url(#paint8_linear)"/>
<path d="M38.4994 57.1987C38.4684 57.2216 38.4523 57.2511 38.416 57.2726L34.9035 59.3122C34.426 59.5891 33.6296 59.5891 33.1493 59.3122L21.533 52.6101C21.494 52.5872 21.4765 52.5563 21.4442 52.5308C21.073 52.8118 21.0904 53.2164 21.533 53.4719L33.1493 60.1753C33.6296 60.4523 34.426 60.4523 34.9035 60.1753L38.416 58.1344C38.8532 57.8803 38.868 57.4783 38.4994 57.1987Z" fill="url(#paint9_linear)"/>
<path d="M53.1861 65.6737C53.1538 65.6979 53.139 65.7261 53.1014 65.7476L49.5889 67.7872C49.1113 68.0641 48.3163 68.0641 47.836 67.7872L36.2197 61.0851C36.1794 61.0622 36.1632 61.0313 36.1296 61.0071C35.757 61.2854 35.7691 61.6874 36.2197 61.9482L47.836 68.6503C48.3163 68.9273 49.1113 68.9273 49.5889 68.6503L53.1014 66.6108C53.5399 66.3553 53.5534 65.9533 53.1861 65.6737Z" fill="url(#paint10_linear)"/>
<path d="M52.4485 21.5149L63.185 27.7088C63.9087 28.1283 65.0872 28.1323 65.8149 27.7088L75.0084 22.37C75.56 22.05 75.6837 21.5741 75.3878 21.1802C75.299 21.2985 75.1752 21.4101 75.0084 21.5069L65.8149 26.847C65.0872 27.2692 63.9087 27.2651 63.185 26.847L52.4485 20.6518C52.2777 20.5536 52.1499 20.4394 52.0584 20.3197C51.7584 20.715 51.8902 21.1923 52.4485 21.5149Z" fill="url(#paint11_linear)"/>
<path d="M62.1901 60.4688L59.8104 61.8508C59.1472 62.2354 58.0589 62.2354 57.3835 61.8455L31.7645 47.0632C31.6206 46.9812 31.5143 46.8857 31.4323 46.7863C31.1215 47.156 31.2278 47.6158 31.7645 47.9264L57.3835 62.7086C58.0589 63.0985 59.1472 63.0985 59.8104 62.7126L62.1901 61.3319C62.7188 61.024 62.817 60.5723 62.5076 60.2039C62.4282 60.298 62.3273 60.3894 62.1901 60.4688Z" fill="url(#paint12_linear)"/>
<path d="M89.6925 29.9818L80.5004 35.322C79.7713 35.7455 78.5942 35.7401 77.8691 35.322L67.1326 29.1268C66.9631 29.0286 66.8353 28.9157 66.7438 28.7947C66.4438 29.1899 66.5743 29.6672 67.1326 29.9899L77.8691 36.1851C78.5942 36.6032 79.7713 36.6073 80.5004 36.1851L89.6925 30.845C90.2441 30.525 90.3678 30.049 90.0719 29.6551C89.9831 29.7734 89.8593 29.8864 89.6925 29.9818Z" fill="url(#paint13_linear)"/>
<path d="M95.0142 23.2067L92.9439 24.4099C92.1058 24.8953 90.7363 24.898 89.8969 24.414L64.5819 9.8065C64.438 9.72449 64.3317 9.62903 64.2496 9.52954C63.9389 9.90195 64.0452 10.3604 64.5819 10.6696L89.8969 25.2771C90.7363 25.7598 92.1058 25.7584 92.9439 25.2717L95.0142 24.0698C95.5375 23.766 95.6398 23.3115 95.3317 22.9418C95.251 23.0359 95.1514 23.1273 95.0142 23.2067Z" fill="url(#paint14_linear)"/>
<path d="M68.7872 53.3811L66.4074 54.7632C65.7442 55.149 64.6559 55.149 63.9806 54.7592L38.3616 39.9769C38.2176 39.8936 38.1113 39.7994 38.0293 39.7C37.7185 40.0697 37.8235 40.5295 38.3616 40.84L63.9806 55.6209C64.6559 56.0122 65.7442 56.0122 66.4074 55.6263L68.7872 54.2442C69.3105 53.9404 69.4114 53.4873 69.1033 53.1162C69.0239 53.2117 68.923 53.3031 68.7872 53.3811Z" fill="url(#paint15_linear)"/>
<path d="M78.3772 41.3896L70.2357 46.118C69.1756 46.7338 67.455 46.7338 66.3869 46.118L42.1777 32.1492C41.84 31.9542 41.6208 31.7176 41.4983 31.4675C41.236 31.9999 41.4553 32.5955 42.1777 33.0123L66.3869 46.9812C67.455 47.5969 69.1756 47.5969 70.2357 46.9812L78.3772 42.2527C79.0955 41.8346 79.3094 41.2471 79.0471 40.7174C78.926 40.9634 78.7108 41.196 78.3772 41.3896Z" fill="url(#paint16_linear)"/>
<g style="mix-blend-mode:screen">
<path style="mix-blend-mode:screen" d="M36.5559 45.0364C35.8806 44.6465 34.8003 44.6425 34.129 45.0324L31.7493 46.4144C31.0861 46.799 31.0888 47.4295 31.7654 47.8194L40.8446 53.0574H50.4577L36.5559 45.0364Z" fill="url(#paint17_linear)"/>
<path style="mix-blend-mode:screen" d="M41.4803 58.7848C40.992 58.5025 40.2037 58.5079 39.7261 58.7848L36.215 60.8243C35.7374 61.1026 35.732 61.5584 36.2204 61.8407L38.397 63.0965H48.9532L41.4803 58.7848Z" fill="url(#paint18_linear)"/>
<path style="mix-blend-mode:screen" d="M43.1516 37.9504C42.4763 37.5606 41.388 37.5606 40.7247 37.9451L38.345 39.3272C37.6818 39.713 37.6845 40.3422 38.3611 40.7335L48.3026 46.4689H57.9158L43.1516 37.9504Z" fill="url(#paint19_linear)"/>
<path style="mix-blend-mode:screen" d="M26.7951 50.31C26.3135 50.0331 25.5184 50.0331 25.0408 50.31L21.5284 52.3495C21.0508 52.6265 21.0535 53.0877 21.5338 53.3646L24.535 55.0963H35.0899L26.7951 50.31Z" fill="url(#paint20_linear)"/>
<path style="mix-blend-mode:screen" d="M69.3799 7.77339C68.7032 7.3835 67.6163 7.3835 66.9517 7.76936L65.2728 8.74409C64.2209 9.35581 64.2222 10.3534 65.2769 10.9624L77.9774 18.291H87.6081L69.3799 7.77339Z" fill="url(#paint21_linear)"/>
<path style="mix-blend-mode:screen" d="M64.2624 14.5453C63.5373 14.1272 62.3522 14.1272 61.6311 14.5453L54.1582 18.8865H71.7851L64.2624 14.5453Z" fill="url(#paint22_linear)"/>
<path style="mix-blend-mode:screen" d="M78.9495 23.0207C78.2244 22.6012 77.0392 22.6012 76.3195 23.0207L69.9336 26.7286H85.3771L78.9495 23.0207Z" fill="url(#paint23_linear)"/>
<path style="mix-blend-mode:screen" d="M54.1475 25.953C53.0888 25.3413 51.3749 25.3372 50.3149 25.953L42.1734 30.6814C41.1133 31.2972 41.1187 32.2934 42.1774 32.9038L45.2325 34.6677H69.2493L54.1475 25.953Z" fill="url(#paint24_linear)"/>
</g>
<path d="M87.2576 79.3973C86.9159 79.1996 86.3603 79.1996 86.0199 79.3973C86.0132 79.4013 86.0119 79.4067 86.0051 79.4107L79.638 75.7444C78.6089 75.1515 77.7722 73.7035 77.7749 72.5204L77.8085 47.2716C77.8112 45.9796 76.9018 44.4066 75.7852 43.7612L72.9858 42.1466C73.1835 41.9516 73.1512 41.7015 72.862 41.5348C72.519 41.3372 71.9647 41.3372 71.6244 41.5348C71.284 41.7325 71.2854 42.0538 71.6284 42.2514C71.9526 42.4383 72.4598 42.4423 72.8028 42.2756L75.7852 43.9965C76.7928 44.5773 77.6067 45.9971 77.604 47.1533L77.5704 72.4034C77.5677 73.7102 78.4986 75.3142 79.6367 75.9716L85.8491 79.5465C85.7038 79.7334 85.7576 79.9606 86.024 80.1139C86.367 80.3115 86.9212 80.3115 87.2616 80.1139C87.6033 79.9162 87.6006 79.5949 87.2576 79.3973Z" fill="url(#paint25_linear)"/>
<path d="M42.9031 39.2313C42.5601 39.0337 42.0058 39.0337 41.6655 39.2313C41.6587 39.2353 41.6574 39.2407 41.6507 39.2434L35.2822 35.5784C34.2531 34.9842 33.4164 33.5362 33.4204 32.3544L33.4527 24.7663C33.4567 23.4757 32.5473 21.9027 31.4308 21.2573L28.6313 19.6426C28.8277 19.4477 28.7968 19.1976 28.5075 19.0309C28.1645 18.8333 27.6102 18.8333 27.2699 19.0309C26.9282 19.2286 26.9309 19.5499 27.2739 19.7475C27.5968 19.9344 28.1053 19.9384 28.4483 19.7717L31.4294 21.4926C32.437 22.0734 33.2522 23.4918 33.2482 24.6494L33.2159 32.2361C33.2119 33.5443 34.1428 35.1482 35.2822 35.8043L41.4946 39.3805C41.3493 39.5674 41.4031 39.7946 41.6695 39.9479C42.0125 40.1455 42.5668 40.1455 42.9071 39.9479C43.2475 39.7503 43.2461 39.4289 42.9031 39.2313Z" fill="url(#paint26_linear)"/>
<path d="M110.209 65.8982C109.866 65.7006 109.312 65.7006 108.97 65.8982C108.965 65.9023 108.962 65.9076 108.957 65.9103L101.402 61.5462C100.373 60.952 99.5362 59.504 99.5389 58.3223L99.5712 29.6707C99.5752 28.38 98.6658 26.8056 97.5492 26.1603L92.1171 22.9605C92.3149 22.7656 92.2826 22.5155 91.9934 22.3488C91.6517 22.1512 91.0961 22.1512 90.7557 22.3488C90.4154 22.5464 90.4167 22.8677 90.7598 23.0654C91.084 23.2523 91.5911 23.2563 91.9342 23.0896L97.5492 26.3956C98.5555 26.9764 99.3707 28.3961 99.368 29.5524L99.3344 58.2039C99.3317 59.5121 100.263 61.1147 101.401 61.7721L108.801 66.0475C108.654 66.2343 108.709 66.4616 108.974 66.6148C109.318 66.8125 109.872 66.8125 110.213 66.6148C110.554 66.4172 110.551 66.0959 110.209 65.8982Z" fill="url(#paint27_linear)"/>
<path d="M0.258293 80.6553C0.601333 80.4577 1.15558 80.4577 1.49593 80.6553C1.50265 80.6593 1.504 80.6647 1.51072 80.6674L24.5638 69.9297C25.593 69.3368 26.3874 68.9363 26.4257 67.9367C26.4216 66.646 27.331 65.5654 28.4476 64.92L31.2471 63.3054C31.0507 63.1104 31.0829 62.8603 31.3722 62.6936C31.7139 62.496 32.2681 62.496 32.6098 62.6936C32.9501 62.8913 32.9475 63.2126 32.6058 63.4102C32.2816 63.5971 31.7744 63.6011 31.4314 63.4344L28.4489 65.1553C27.4413 65.7361 26.6275 66.6621 26.6302 67.8197C26.6342 69.1265 25.6484 69.5518 24.5638 70.1569L1.66677 80.8045C1.81206 80.9914 1.75825 81.2186 1.49189 81.3719C1.14885 81.5695 0.594606 81.5695 0.254257 81.3719C-0.0860923 81.1742 -0.0847471 80.8529 0.258293 80.6553Z" fill="url(#paint28_linear)"/>
<path d="M44.3329 64.9198C44.2952 64.9037 44.2589 64.8862 44.2252 64.866C44.1903 64.8459 44.1593 64.8244 44.1297 64.8029L42.4589 65.8287C41.0181 66.6649 38.4743 66.556 36.7914 65.5853L25.8679 59.3618C24.1782 58.3871 23.9818 56.9149 25.4239 56.0787L27.0934 55.0529C27.0584 55.0381 27.0248 55.0206 26.9925 55.0031C26.9589 54.983 26.9266 54.9615 26.8983 54.9399L25.2275 55.9658C23.6792 56.8652 23.8688 58.4422 25.6661 59.4802L36.5896 65.7023C38.3814 66.7362 41.1137 66.8451 42.662 65.9456L44.3329 64.9198Z" fill="url(#paint29_linear)"/>
<path d="M27.9955 54.4375C27.6552 54.2399 27.101 54.2399 26.7579 54.4375C26.4687 54.6042 26.4377 54.8555 26.6341 55.0491L26.8171 55.1781C27.1601 55.3448 27.6686 55.3407 27.9915 55.1539C28.3346 54.9563 28.3372 54.6351 27.9955 54.4375Z" fill="url(#paint30_linear)"/>
<path d="M45.0872 64.3304C44.7468 64.1314 44.1913 64.1314 43.8496 64.3304C43.5603 64.497 43.528 64.747 43.7245 64.9406L43.9088 65.071C44.2504 65.2363 44.759 65.2336 45.0832 65.0468C45.4249 64.8478 45.4275 64.5279 45.0872 64.3304Z" fill="url(#paint31_linear)"/>
<path d="M88.0015 0.864819C87.6585 1.06245 87.1043 1.06245 86.7639 0.864819C86.7572 0.860785 86.7558 0.855408 86.7491 0.851374L80.9403 4.20309C79.9112 4.79734 79.0744 6.24532 79.0771 7.42709L79.1108 16.6783C79.1135 17.9689 78.2041 19.5433 77.0875 20.1873L75.6064 21.0639C75.8028 21.2575 75.7718 21.5089 75.4826 21.6756C75.1396 21.8732 74.5853 21.8732 74.245 21.6756C73.9046 21.478 73.906 21.1566 74.249 20.959C74.5732 20.7721 75.0804 20.7681 75.4234 20.9348L77.0875 19.9534C78.0951 19.3712 78.909 17.9528 78.9063 16.7966L78.8726 7.5454C78.87 6.23725 79.8009 4.63466 80.939 3.97723L86.5931 0.715585C86.4478 0.528706 86.5016 0.301493 86.7679 0.148226C87.111 -0.0494086 87.6652 -0.0494086 88.0056 0.148226C88.3459 0.34586 88.3446 0.667184 88.0015 0.864819Z" fill="url(#paint32_linear)"/>
<path d="M62.522 19.4469C62.5596 19.4644 62.596 19.4819 62.6309 19.502C62.6646 19.5222 62.6969 19.5424 62.7251 19.5652L64.3959 18.5394C65.8367 17.7018 68.3819 17.8107 70.0635 18.7814L80.9869 25.0049C82.6765 25.9796 82.8729 27.4531 81.4322 28.2894L79.7614 29.3139C79.7963 29.33 79.83 29.3461 79.8623 29.3649C79.8972 29.3851 79.9282 29.4053 79.9564 29.4281L81.6272 28.4023C83.177 27.5029 82.9873 25.9258 81.1887 24.8879L70.2652 18.6644C68.4747 17.6319 65.7412 17.523 64.1928 18.4224L62.522 19.4469Z" fill="url(#paint33_linear)"/>
<path d="M78.8587 29.9286C79.1991 30.1261 79.7533 30.1261 80.0963 29.9286C80.3856 29.7619 80.4165 29.5119 80.2201 29.317L80.0372 29.1879C79.6941 29.0213 79.187 29.0253 78.8628 29.2121C78.5197 29.4097 78.5184 29.731 78.8587 29.9286Z" fill="url(#paint34_linear)"/>
<path d="M61.7679 20.0378C62.1083 20.2354 62.6625 20.2354 63.0055 20.0378C63.2948 19.8711 63.3257 19.6211 63.1293 19.4262L62.9464 19.2972C62.6033 19.1305 62.0962 19.1346 61.772 19.3214C61.4289 19.519 61.4276 19.8402 61.7679 20.0378Z" fill="url(#paint35_linear)"/>
<defs>
<filter id="filter0_d" x="4.06982" y="19.7715" width="116.061" height="76.1103" filterUnits="userSpaceOnUse" color-interpolation-filters="sRGB">
<feFlood flood-opacity="0" result="BackgroundImageFix"/>
<feColorMatrix in="SourceAlpha" type="matrix" values="0 0 0 0 0 0 0 0 0 0 0 0 0 0 0 0 0 0 127 0" result="hardAlpha"/>
<feOffset dy="10"/>
<feGaussianBlur stdDeviation="5"/>
<feComposite in2="hardAlpha" operator="out"/>
<feColorMatrix type="matrix" values="0 0 0 0 0 0 0 0 0 0 0 0 0 0 0 0 0 0 0.25 0"/>
<feBlend mode="normal" in2="BackgroundImageFix" result="effect1_dropShadow"/>
<feBlend mode="normal" in="SourceGraphic" in2="effect1_dropShadow" result="shape"/>
</filter>
<linearGradient id="paint0_linear" x1="11.1704" y1="57.6543" x2="50.7149" y2="-13.2308" gradientUnits="userSpaceOnUse">
<stop stop-color="#53637A"/>
<stop offset="1" stop-color="#323A47"/>
</linearGradient>
<linearGradient id="paint1_linear" x1="53.8695" y1="-11.7993" x2="65.5004" y2="66.563" gradientUnits="userSpaceOnUse">
<stop stop-color="#2300A1"/>
<stop offset="0.586" stop-color="#E80169"/>
<stop offset="1" stop-color="#FFAA00"/>
</linearGradient>
<linearGradient id="paint2_linear" x1="44.0777" y1="-10.0192" x2="55.6733" y2="68.1046" gradientUnits="userSpaceOnUse">
<stop stop-color="#2300A1"/>
<stop offset="0.586" stop-color="#E80169"/>
<stop offset="1" stop-color="#FFAA00"/>
</linearGradient>
<linearGradient id="paint3_linear" x1="61.348" y1="-12.9848" x2="72.9808" y2="65.3892" gradientUnits="userSpaceOnUse">
<stop stop-color="#2300A1"/>
<stop offset="0.586" stop-color="#E80169"/>
<stop offset="1" stop-color="#FFAA00"/>
</linearGradient>
<linearGradient id="paint4_linear" x1="30.9166" y1="-8.23005" x2="42.5155" y2="69.9152" gradientUnits="userSpaceOnUse">
<stop stop-color="#2300A1"/>
<stop offset="0.586" stop-color="#E80169"/>
<stop offset="1" stop-color="#FFAA00"/>
</linearGradient>
<linearGradient id="paint5_linear" x1="90.9866" y1="-20.191" x2="102.55" y2="57.7178" gradientUnits="userSpaceOnUse">
<stop stop-color="#2300A1"/>
<stop offset="0.586" stop-color="#E80169"/>
<stop offset="1" stop-color="#FFAA00"/>
</linearGradient>
<linearGradient id="paint6_linear" x1="71.6045" y1="-17.9419" x2="83.182" y2="60.0598" gradientUnits="userSpaceOnUse">
<stop stop-color="#2300A1"/>
<stop offset="0.586" stop-color="#E80169"/>
<stop offset="1" stop-color="#FFAA00"/>
</linearGradient>
<linearGradient id="paint7_linear" x1="84.767" y1="-19.7334" x2="96.3444" y2="58.2682" gradientUnits="userSpaceOnUse">
<stop stop-color="#2300A1"/>
<stop offset="0.586" stop-color="#E80169"/>
<stop offset="1" stop-color="#FFAA00"/>
</linearGradient>
<linearGradient id="paint8_linear" x1="72.4851" y1="-17.0035" x2="84.0776" y2="61.1001" gradientUnits="userSpaceOnUse">
<stop stop-color="#2300A1"/>
<stop offset="0.586" stop-color="#E80169"/>
<stop offset="1" stop-color="#FFAA00"/>
</linearGradient>
<linearGradient id="paint9_linear" x1="36.5032" y1="44.5712" x2="41.2819" y2="59.1488" gradientUnits="userSpaceOnUse">
<stop/>
<stop offset="1" stop-color="#768FB5"/>
</linearGradient>
<linearGradient id="paint10_linear" x1="35.9711" y1="59.1408" x2="53.3414" y2="59.1408" gradientUnits="userSpaceOnUse">
<stop/>
<stop offset="1" stop-color="#768FB5"/>
</linearGradient>
<linearGradient id="paint11_linear" x1="62.9331" y1="6.01193" x2="76.6231" y2="19.9421" gradientUnits="userSpaceOnUse">
<stop/>
<stop offset="1" stop-color="#768FB5"/>
</linearGradient>
<linearGradient id="paint12_linear" x1="52.6351" y1="36.8633" x2="62.9222" y2="56.8648" gradientUnits="userSpaceOnUse">
<stop/>
<stop offset="1" stop-color="#768FB5"/>
</linearGradient>
<linearGradient id="paint13_linear" x1="81.6498" y1="12.0049" x2="92.9004" y2="30.9217" gradientUnits="userSpaceOnUse">
<stop/>
<stop offset="1" stop-color="#768FB5"/>
</linearGradient>
<linearGradient id="paint14_linear" x1="80.2291" y1="0.251338" x2="96.4552" y2="21.3929" gradientUnits="userSpaceOnUse">
<stop/>
<stop offset="1" stop-color="#768FB5"/>
</linearGradient>
<linearGradient id="paint15_linear" x1="59.2266" y1="30.8766" x2="72.4363" y2="55.3234" gradientUnits="userSpaceOnUse">
<stop/>
<stop offset="1" stop-color="#768FB5"/>
</linearGradient>
<linearGradient id="paint16_linear" x1="64.4251" y1="17.236" x2="80.2681" y2="39.3827" gradientUnits="userSpaceOnUse">
<stop/>
<stop offset="1" stop-color="#768FB5"/>
</linearGradient>
<linearGradient id="paint17_linear" x1="47.6088" y1="21.2287" x2="53.2872" y2="59.4867" gradientUnits="userSpaceOnUse">
<stop stop-color="white"/>
<stop offset="1"/>
</linearGradient>
<linearGradient id="paint18_linear" x1="46.1715" y1="31.7644" x2="52.0291" y2="71.2287" gradientUnits="userSpaceOnUse">
<stop stop-color="white"/>
<stop offset="1"/>
</linearGradient>
<linearGradient id="paint19_linear" x1="54.8967" y1="13.4781" x2="60.9164" y2="54.0353" gradientUnits="userSpaceOnUse">
<stop stop-color="white"/>
<stop offset="1"/>
</linearGradient>
<linearGradient id="paint20_linear" x1="31.3307" y1="17.1825" x2="37.8058" y2="60.8069" gradientUnits="userSpaceOnUse">
<stop stop-color="white"/>
<stop offset="1"/>
</linearGradient>
<linearGradient id="paint21_linear" x1="83.4179" y1="-22.6087" x2="90.8" y2="27.1277" gradientUnits="userSpaceOnUse">
<stop stop-color="white"/>
<stop offset="1"/>
</linearGradient>
<linearGradient id="paint22_linear" x1="69.6849" y1="-7.8287" x2="74.6185" y2="25.41" gradientUnits="userSpaceOnUse">
<stop stop-color="white"/>
<stop offset="1"/>
</linearGradient>
<linearGradient id="paint23_linear" x1="84.1153" y1="5.59848" x2="88.3813" y2="34.339" gradientUnits="userSpaceOnUse">
<stop stop-color="white"/>
<stop offset="1"/>
</linearGradient>
<linearGradient id="paint24_linear" x1="66.3537" y1="2.58441" x2="71.9372" y2="40.2026" gradientUnits="userSpaceOnUse">
<stop stop-color="white"/>
<stop offset="1"/>
</linearGradient>
<linearGradient id="paint25_linear" x1="89.3797" y1="41.3895" x2="89.3797" y2="79.4682" gradientUnits="userSpaceOnUse">
<stop stop-color="#FFDA00"/>
<stop offset="1" stop-color="#FFAA00"/>
</linearGradient>
<linearGradient id="paint26_linear" x1="25.1519" y1="38.9439" x2="25.1519" y2="18.203" gradientUnits="userSpaceOnUse">
<stop stop-color="#FFDA00"/>
<stop offset="1" stop-color="#FFAA00"/>
</linearGradient>
<linearGradient id="paint27_linear" x1="105.011" y1="25.9175" x2="110.876" y2="57.8457" gradientUnits="userSpaceOnUse">
<stop stop-color="#FFDA00"/>
<stop offset="1" stop-color="#FFAA00"/>
</linearGradient>
<linearGradient id="paint28_linear" x1="34.726" y1="55.8432" x2="34.726" y2="85.699" gradientUnits="userSpaceOnUse">
<stop stop-color="#FFDA00"/>
<stop offset="1" stop-color="#FFAA00"/>
</linearGradient>
<linearGradient id="paint29_linear" x1="46.171" y1="55.7497" x2="46.171" y2="84.9801" gradientUnits="userSpaceOnUse">
<stop stop-color="#FFDA00"/>
<stop offset="1" stop-color="#FFAA00"/>
</linearGradient>
<linearGradient id="paint30_linear" x1="29.9766" y1="55.6874" x2="29.9766" y2="83.0538" gradientUnits="userSpaceOnUse">
<stop stop-color="#FFDA00"/>
<stop offset="1" stop-color="#FFAA00"/>
</linearGradient>
<linearGradient id="paint31_linear" x1="47.0671" y1="56.5441" x2="47.0671" y2="83.911" gradientUnits="userSpaceOnUse">
<stop stop-color="#FFDA00"/>
<stop offset="1" stop-color="#FFAA00"/>
</linearGradient>
<linearGradient id="paint32_linear" x1="72.1297" y1="24.3385" x2="72.1297" y2="3.86886" gradientUnits="userSpaceOnUse">
<stop stop-color="#FFDA00"/>
<stop offset="1" stop-color="#FFAA00"/>
</linearGradient>
<linearGradient id="paint33_linear" x1="60.6842" y1="24.5212" x2="60.6842" y2="4.45977" gradientUnits="userSpaceOnUse">
<stop stop-color="#FFDA00"/>
<stop offset="1" stop-color="#FFAA00"/>
</linearGradient>
<linearGradient id="paint34_linear" x1="76.8783" y1="24.844" x2="76.8783" y2="6.0616" gradientUnits="userSpaceOnUse">
<stop stop-color="#FFDA00"/>
<stop offset="1" stop-color="#FFAA00"/>
</linearGradient>
<linearGradient id="paint35_linear" x1="59.7871" y1="23.9879" x2="59.7871" y2="5.20588" gradientUnits="userSpaceOnUse">
<stop stop-color="#FFDA00"/>
<stop offset="1" stop-color="#FFAA00"/>
</linearGradient>
</defs>
</svg>
