<svg width="1156" height="650" viewBox="0 0 1156 650" fill="none" xmlns="http://www.w3.org/2000/svg">
<rect width="1156" height="650" fill="white"/>
<path d="M504.79 455.109V283.715C504.79 252.189 530.311 226.667 561.838 226.667L612.38 226.793C643.781 226.793 669.303 252.314 669.303 283.84V320.246C669.303 351.772 643.781 377.293 612.255 377.293H540.695" stroke="#939598" stroke-width="8.437" stroke-miterlimit="28.3465" stroke-linecap="round" stroke-linejoin="round"/>
<path d="M683.565 226.667H705.458C718.344 226.667 728.853 237.176 728.853 250.062V378.044" stroke="#939598" stroke-width="8.437" stroke-miterlimit="28.3465" stroke-linecap="round" stroke-linejoin="round"/>
<path d="M724.224 206.776L714.215 196.767C711.713 194.265 711.713 190.262 714.215 187.885L724.224 177.877C726.726 175.374 730.729 175.374 733.231 177.877L743.24 187.885C745.742 190.387 745.742 194.39 743.24 196.767L733.231 206.776C730.604 209.278 726.601 209.278 724.224 206.776Z" fill="#32BCAD"/>
<path d="M771.013 226.542H792.781C804.04 226.542 814.674 231.046 822.681 238.928L873.599 289.845C880.229 296.476 890.863 296.476 897.494 289.845L948.161 239.178C956.043 231.296 966.801 226.792 978.061 226.792H995.701" stroke="#939598" stroke-width="8.437" stroke-miterlimit="28.3465" stroke-linecap="round" stroke-linejoin="round"/>
<path d="M771.013 377.043H792.781C804.04 377.043 814.674 372.539 822.681 364.658L873.599 313.74C880.229 307.109 890.863 307.109 897.494 313.74L948.161 364.407C956.043 372.289 966.801 376.793 978.061 376.793H995.701" stroke="#939598" stroke-width="8.437" stroke-miterlimit="28.3465" stroke-linecap="round" stroke-linejoin="round"/>
<path d="M375.057 409.57C364.172 409.57 353.914 405.317 346.157 397.56L304.372 355.775C301.495 352.773 296.366 352.898 293.363 355.775L251.453 397.685C243.697 405.442 233.438 409.695 222.554 409.695H214.297L267.216 462.615C283.73 479.128 310.503 479.128 327.016 462.615L380.061 409.57H375.057Z" fill="#32BCAD"/>
<path d="M222.554 261.822C233.438 261.822 243.697 266.075 251.453 273.832L293.363 315.742C296.366 318.744 301.37 318.744 304.372 315.742L346.032 273.957C353.789 266.2 364.047 261.947 374.931 261.947H379.936L327.016 208.902C310.503 192.389 283.73 192.389 267.216 208.902L214.297 261.822H222.554Z" fill="#32BCAD"/>
<path d="M423.972 305.859L391.946 273.832C391.195 274.082 390.444 274.332 389.694 274.332H375.057C367.55 274.332 360.169 277.335 354.79 282.714L313.005 324.499C309.126 328.378 303.997 330.379 298.868 330.379C293.739 330.379 288.609 328.378 284.731 324.499L242.821 282.589C237.441 277.21 230.06 274.207 222.554 274.207H204.664C203.913 274.207 203.163 274.082 202.537 273.832L170.385 305.984C153.872 322.498 153.872 349.27 170.385 365.784L202.537 397.936C203.163 397.686 203.913 397.561 204.664 397.561H222.554C230.06 397.561 237.441 394.558 242.821 389.179L284.731 347.268C292.362 339.637 305.498 339.637 313.13 347.268L354.915 389.053C360.294 394.433 367.675 397.435 375.182 397.435H389.819C390.57 397.435 391.445 397.561 392.071 397.936L424.098 365.909C440.486 349.145 440.486 322.373 423.972 305.859Z" fill="#32BCAD"/>
<path d="M548.326 440.596C545.949 440.596 543.197 441.222 540.445 441.847V452.231C542.321 452.982 544.448 453.232 546.575 453.232C551.829 453.232 554.331 451.48 554.331 446.851C554.331 442.598 552.205 440.596 548.326 440.596ZM538.693 459.987V439.345H540.069L540.195 440.221C542.572 439.595 545.949 438.845 548.326 438.845C550.328 438.845 552.08 439.095 553.706 440.346C555.457 441.847 556.083 444.224 556.083 446.726C556.083 449.479 555.207 451.981 552.705 453.357C550.954 454.358 548.702 454.733 546.575 454.733C544.448 454.733 542.446 454.358 540.32 453.732V459.862H538.693V459.987Z" fill="#939598"/>
<path d="M569.344 440.471C564.09 440.471 561.713 442.097 561.713 446.726C561.713 451.23 563.965 453.232 569.344 453.232C574.598 453.232 576.85 451.605 576.85 446.977C576.85 442.598 574.598 440.471 569.344 440.471ZM576.1 453.232C574.348 454.483 571.971 454.858 569.344 454.858C566.592 454.858 564.34 454.483 562.588 453.232C560.712 451.856 559.836 449.729 559.836 446.851C559.836 444.099 560.587 441.847 562.588 440.471C564.34 439.22 566.592 438.845 569.344 438.845C572.096 438.845 574.348 439.22 576.1 440.471C578.101 441.847 578.852 444.099 578.852 446.851C578.727 449.604 577.976 451.856 576.1 453.232Z" fill="#939598"/>
<path d="M600.871 454.483L594.991 441.972H594.866L589.111 454.483H587.484L581.229 439.345H583.231L588.36 451.981H588.485L594.115 439.345H595.741L601.496 451.981H601.621L606.625 439.345H608.502L602.247 454.483H600.871Z" fill="#939598"/>
<path d="M619.886 440.471C615.007 440.471 613.381 442.598 613.131 445.726H626.767C626.642 442.348 624.765 440.471 619.886 440.471ZM619.886 454.858C617.009 454.858 615.132 454.483 613.631 453.232C611.88 451.731 611.254 449.479 611.254 446.977C611.254 444.6 612.005 441.972 614.132 440.471C615.758 439.345 617.885 438.97 620.011 438.97C622.013 438.97 624.265 439.22 626.016 440.471C628.143 441.972 628.644 444.475 628.644 447.477H613.131C613.131 450.605 614.257 453.357 620.011 453.357C622.764 453.357 625.391 452.857 627.768 452.481V454.108C625.391 454.358 622.514 454.858 619.886 454.858Z" fill="#939598"/>
<path d="M633.648 454.483V439.345H635.024L635.149 440.221C638.402 439.47 639.903 438.845 642.655 438.845H642.906V440.471H642.53C640.153 440.471 638.777 440.846 635.399 441.722V454.358L633.648 454.483Z" fill="#939598"/>
<path d="M653.289 440.471C648.41 440.471 646.784 442.598 646.534 445.726H660.045C659.92 442.348 658.043 440.471 653.289 440.471ZM653.164 454.858C650.287 454.858 648.41 454.483 646.909 453.232C645.158 451.731 644.532 449.479 644.532 446.977C644.532 444.6 645.283 441.972 647.409 440.471C649.036 439.345 651.163 438.97 653.289 438.97C655.291 438.97 657.543 439.22 659.294 440.471C661.421 441.972 661.922 444.475 661.922 447.477H646.409C646.409 450.605 647.534 453.357 653.289 453.357C656.042 453.357 658.669 452.857 661.046 452.481V454.108C658.669 454.358 655.791 454.858 653.164 454.858Z" fill="#939598"/>
<path d="M681.188 441.597C679.311 440.847 677.184 440.596 675.057 440.596C669.803 440.596 667.301 442.348 667.301 446.977C667.301 451.356 669.303 453.232 673.306 453.232C675.683 453.232 678.435 452.607 681.188 452.106V441.597V441.597ZM681.563 454.483L681.438 453.607C679.061 454.233 675.683 454.984 673.306 454.984C671.304 454.984 669.553 454.733 667.927 453.482C666.175 451.981 665.55 449.604 665.55 447.102C665.55 444.35 666.425 441.848 668.927 440.471C670.679 439.471 672.931 439.095 675.057 439.095C677.184 439.095 679.186 439.471 681.313 440.096V433.215H683.064V454.733L681.563 454.483Z" fill="#939598"/>
<path d="M708.836 440.596C706.459 440.596 703.707 441.222 700.954 441.847V452.231C702.831 452.982 704.958 453.232 707.084 453.232C712.339 453.232 714.841 451.48 714.841 446.851C714.841 442.598 712.839 440.596 708.836 440.596ZM713.34 453.482C711.588 454.483 709.336 454.858 707.209 454.858C704.958 454.858 702.706 454.483 700.454 453.732L700.329 454.483H699.078V432.965H700.829V440.221C703.206 439.72 706.459 438.97 708.836 438.97C710.837 438.97 712.589 439.22 714.215 440.471C715.967 441.972 716.592 444.349 716.592 446.851C716.717 449.604 715.842 452.106 713.34 453.482Z" fill="#939598"/>
<path d="M719.094 460.238V458.611C719.97 458.736 720.721 458.736 721.346 458.736C723.473 458.736 724.849 458.111 726.1 455.609L726.726 454.358L718.844 439.22H720.846L727.602 452.231H727.727L734.107 439.22H736.109L727.602 456.234C726.1 459.362 724.349 460.363 721.346 460.363C720.596 460.363 719.845 460.363 719.094 460.238Z" fill="#939598"/>
<path d="M760.379 445.851H754.499V451.105H760.379C764.382 451.105 766.009 450.605 766.009 448.478C766.009 446.101 763.882 445.851 760.379 445.851ZM759.378 437.218H754.624V442.598H759.503C763.507 442.598 765.008 442.097 765.008 439.846C765.008 437.469 763.006 437.218 759.378 437.218ZM768.511 452.982C766.384 454.358 763.757 454.358 759.003 454.358H749.995V433.841H758.753C762.881 433.841 765.383 433.841 767.51 435.217C769.011 436.092 769.637 437.469 769.637 439.345C769.637 441.472 768.761 442.973 766.384 443.849V443.974C769.011 444.6 770.763 445.976 770.763 448.853C770.638 450.855 769.887 452.106 768.511 452.982Z" fill="#939598"/>
<path d="M788.527 448.102C786.776 447.977 785.025 447.852 783.023 447.852C779.895 447.852 778.894 448.478 778.894 449.854C778.894 451.23 779.77 451.856 782.147 451.856C784.149 451.856 786.526 451.355 788.527 450.98V448.102ZM789.403 454.483L789.278 453.607C786.651 454.233 783.773 454.983 781.021 454.983C779.395 454.983 777.643 454.733 776.392 453.857C775.266 453.107 774.766 451.73 774.766 450.229C774.766 448.478 775.516 446.976 777.268 446.101C778.894 445.35 781.021 445.35 782.898 445.35C784.524 445.35 786.651 445.475 788.402 445.6V445.35C788.402 442.973 786.901 442.222 782.648 442.222C781.021 442.222 779.019 442.348 777.018 442.473V439.47C779.145 439.345 781.522 439.22 783.523 439.22C786.15 439.22 788.903 439.47 790.529 440.596C792.281 441.847 792.656 443.474 792.656 445.725V454.733L789.403 454.483Z" fill="#939598"/>
<path d="M812.548 454.483V446.101C812.548 443.349 811.171 442.348 808.669 442.348C806.793 442.348 804.541 442.848 802.539 443.349V454.483H798.286V439.345H801.789L801.914 440.346C804.541 439.721 807.543 438.97 810.046 438.97C811.922 438.97 813.799 439.22 815.175 440.471C816.426 441.597 816.801 443.098 816.801 445.225V454.483H812.548Z" fill="#939598"/>
<path d="M828.561 454.858C826.559 454.858 824.432 454.608 822.931 453.232C821.055 451.731 820.554 449.354 820.554 446.851C820.554 444.474 821.305 441.847 823.682 440.346C825.559 439.095 827.935 438.845 830.312 438.845C832.064 438.845 833.815 438.97 835.692 439.095V442.348C834.191 442.223 832.314 442.097 830.813 442.097C826.809 442.097 824.933 443.348 824.933 446.851C824.933 450.104 826.309 451.48 829.687 451.48C831.563 451.48 833.815 451.105 836.067 450.73V453.857C833.565 454.358 831.063 454.858 828.561 454.858Z" fill="#939598"/>
<path d="M848.453 442.097C844.449 442.097 842.698 443.348 842.698 446.851C842.698 450.354 844.449 451.731 848.453 451.731C852.456 451.731 854.207 450.479 854.207 447.102C854.207 443.599 852.456 442.097 848.453 442.097ZM855.709 453.232C853.832 454.483 851.455 454.858 848.453 454.858C845.45 454.858 842.948 454.483 841.197 453.232C839.07 451.856 838.319 449.604 838.319 446.851C838.319 444.099 839.07 441.847 841.197 440.471C843.073 439.22 845.45 438.845 848.453 438.845C851.455 438.845 853.832 439.22 855.709 440.471C857.835 441.847 858.461 444.099 858.461 446.851C858.461 449.604 857.71 451.856 855.709 453.232Z" fill="#939598"/>
<path d="M882.856 454.858C880.354 454.858 877.602 454.483 875.475 452.731C872.973 450.73 872.222 447.602 872.222 444.224C872.222 441.222 873.223 437.594 876.351 435.467C878.853 433.84 881.855 433.465 884.983 433.465C887.235 433.465 889.612 433.59 892.114 433.84V437.468C889.987 437.343 887.235 437.093 885.108 437.093C879.228 437.093 876.726 439.345 876.726 443.974C876.726 448.853 878.978 450.98 883.357 450.98C886.109 450.98 889.362 450.354 892.489 449.729V453.357C889.612 454.232 886.234 454.858 882.856 454.858Z" fill="#939598"/>
<path d="M905.125 441.597C901.622 441.597 900.246 442.848 899.996 445.1H910.129C910.129 442.723 908.628 441.597 905.125 441.597ZM904.5 454.858C901.997 454.858 899.746 454.608 898.119 453.232C896.368 451.731 895.742 449.479 895.742 446.977C895.742 444.725 896.493 442.098 898.62 440.596C900.496 439.22 902.873 438.97 905.25 438.97C907.377 438.97 910.004 439.22 911.755 440.471C914.132 442.223 914.383 444.85 914.383 447.978H899.996C900.121 450.229 901.372 451.731 905.5 451.731C908.127 451.731 911.005 451.355 913.507 450.98V453.983C910.755 454.358 907.502 454.858 904.5 454.858Z" fill="#939598"/>
<path d="M933.148 454.483V446.101C933.148 443.349 931.772 442.348 929.27 442.348C927.393 442.348 925.142 442.848 923.14 443.349V454.483H918.886V439.345H922.389L922.515 440.346C925.142 439.721 928.144 438.97 930.646 438.97C932.523 438.97 934.399 439.22 935.776 440.471C937.027 441.597 937.402 443.098 937.402 445.225V454.483H933.148Z" fill="#939598"/>
<path d="M949.287 454.858C947.285 454.858 945.409 454.233 944.408 452.732C943.657 451.606 943.282 450.23 943.282 448.103V442.473H940.279V439.345H943.282L943.782 434.717H947.535V439.345H953.54V442.473H947.535V447.352C947.535 448.478 947.66 449.479 947.911 450.23C948.411 451.23 949.287 451.606 950.663 451.606C951.664 451.606 952.79 451.481 953.665 451.355V454.358C952.289 454.608 950.788 454.858 949.287 454.858Z" fill="#939598"/>
<path d="M957.544 454.483V439.345H961.047L961.172 440.346C963.924 439.596 966.051 438.97 968.678 438.97C968.803 438.97 968.928 438.97 969.179 438.97V442.598C968.678 442.598 968.178 442.598 967.677 442.598C965.551 442.598 964.049 442.848 961.797 443.349V454.483H957.544Z" fill="#939598"/>
<path d="M984.566 448.102C982.815 447.977 981.063 447.852 979.062 447.852C975.934 447.852 974.933 448.478 974.933 449.854C974.933 451.23 975.809 451.856 978.186 451.856C980.188 451.856 982.565 451.355 984.566 450.98V448.102ZM985.442 454.483L985.317 453.607C982.69 454.233 979.687 454.983 977.06 454.983C975.434 454.983 973.682 454.733 972.431 453.857C971.305 453.107 970.805 451.73 970.805 450.229C970.805 448.478 971.556 446.976 973.307 446.101C974.933 445.35 977.06 445.35 978.937 445.35C980.563 445.35 982.69 445.475 984.441 445.6V445.35C984.441 442.973 982.94 442.222 978.686 442.222C977.06 442.222 975.058 442.348 973.057 442.473V439.47C975.184 439.345 977.561 439.22 979.562 439.22C982.189 439.22 984.942 439.47 986.568 440.596C988.32 441.847 988.695 443.474 988.695 445.725V454.733L985.442 454.483Z" fill="#939598"/>
<path d="M994.199 432.965H998.453V454.483H994.199V432.965Z" fill="#939598"/>
</svg>
