<svg width="24" height="24" viewBox="0 0 24 24" fill="none" xmlns="http://www.w3.org/2000/svg">
<path d="M12 23C12 23 21 17 21 10C21 7.61305 20.0518 5.32387 18.364 3.63604C16.6761 1.94821 14.3869 1 12 1C9.61305 1 7.32387 1.94821 5.63604 3.63604C3.94821 5.32387 3 7.61305 3 10C3 14.2913 6.38233 18.2067 9 20.5944M12 13C13.6569 13 15 11.6569 15 10C15 8.34315 13.6569 7 12 7C10.3431 7 9 8.34315 9 10C9 10.6134 9.18408 11.1837 9.5 11.6589" stroke="#1C7EB3" stroke-width="1.5" stroke-linecap="round" stroke-linejoin="round"/>
</svg>
