<svg width="50" height="50" fill="none" xmlns="http://www.w3.org/2000/svg"><rect width="50" height="50" rx="25" fill="#7DD8FF" fill-opacity=".5"/><g clip-path="url(#clip0)" stroke="#167FB9" stroke-width="2" stroke-linecap="round" stroke-linejoin="round"><path d="M31 24l2 2 4-4M22.5 24a4 4 0 1 0 0-8 4 4 0 0 0 0 8zM27 34.142c1.388-.25 2.488-.63 3-1.142.072-.647 0-1.667 0-1.667 0-.884-.422-1.732-1.172-2.357-2.369-1.974-10.287-1.974-12.656 0-.75.625-1.172 1.473-1.172 2.357 0 0-.072 1.02 0 1.667.511.512 1.612.892 3 1.142"/></g><defs><clipPath id="clip0"><path fill="#fff" transform="translate(14 13)" d="M0 0h24v24H0z"/></clipPath></defs></svg>