<svg version="1.1" id="Layer_1" xmlns="http://www.w3.org/2000/svg" x="0" y="0" viewBox="0 0 512 512" xml:space="preserve"><style>.st0{fill:#fff}</style><path class="st0" d="M229.7 0H59.1C26.4 0 0 26.4 0 59.1v170.7c0 3.6 2.9 6.6 6.6 6.6h223.2c3.6 0 6.6-2.9 6.6-6.6V6.6c-.1-3.7-3-6.6-6.7-6.6zm-71.4 144.4h-20.5v20.5c0 10.9-8.8 19.7-19.7 19.7s-19.7-8.8-19.7-19.7v-20.5H78c-10.9 0-19.7-8.8-19.7-19.7S67.1 105 78 105h20.5V84.6c0-10.9 8.8-19.7 19.7-19.7s19.7 8.8 19.7 19.7V105h20.5c10.9 0 19.7 8.8 19.7 19.7s-8.9 19.7-19.8 19.7zM452.9 0H282.3c-3.6 0-6.6 2.9-6.6 6.6v223.2c0 3.6 2.9 6.6 6.6 6.6h223.2c3.6 0 6.6-2.9 6.6-6.6V59.1C512 26.4 485.6 0 452.9 0zm-19 144.4h-80.3c-10.9 0-19.7-8.8-19.7-19.7s8.8-19.7 19.7-19.7h80.3c10.9 0 19.7 8.8 19.7 19.7s-8.9 19.7-19.7 19.7zM229.7 275.7H6.6c-3.6 0-6.6 2.9-6.6 6.6V453c0 32.6 26.4 59 59.1 59h170.7c3.6 0 6.6-2.9 6.6-6.6V282.3c-.1-3.7-3-6.6-6.7-6.6zm-69.2 153.9c-7.7 7.7-20.2 7.7-27.8 0l-14.5-14.5-14.5 14.5c-7.7 7.7-20.2 7.7-27.8 0-7.7-7.7-7.7-20.2 0-27.8l14.5-14.5-14.5-14.5c-7.7-7.7-7.7-20.2 0-27.8 7.7-7.7 20.2-7.7 27.8 0l14.5 14.5 14.5-14.5c7.7-7.7 20.2-7.7 27.8 0 7.7 7.7 7.7 20.2 0 27.8L146 387.3l14.5 14.5c7.7 7.6 7.7 20.1 0 27.8zM505.4 275.7H282.3c-3.6 0-6.6 2.9-6.6 6.6v223.2c0 3.6 2.9 6.6 6.6 6.6H453c32.6 0 59.1-26.4 59.1-59.1V282.3c-.1-3.7-3-6.6-6.7-6.6zm-71.5 159.7h-80.3c-10.9 0-19.7-8.8-19.7-19.7s8.8-19.7 19.7-19.7h80.3c10.9 0 19.7 8.8 19.7 19.7 0 10.9-8.9 19.7-19.7 19.7zm0-56.8h-80.3c-10.9 0-19.7-8.8-19.7-19.7s8.8-19.7 19.7-19.7h80.3c10.9 0 19.7 8.8 19.7 19.7 0 10.9-8.9 19.7-19.7 19.7z"/></svg>