<svg version="1.1" id="Слой_1" xmlns="http://www.w3.org/2000/svg" x="0" y="0" viewBox="0 0 39 42.1" xml:space="preserve"><style>.st1,.st2,.st3,.st4{fill-rule:evenodd;clip-rule:evenodd;fill:#00a0e3}.st2,.st3,.st4{fill:#96d6f6}.st3,.st4{fill:#fefefe}.st4{fill:#4e5151}</style><g id="Слой_x0020_1"><g id="_1686323452656"><linearGradient id="SVGID_1_" gradientUnits="userSpaceOnUse" x1="8654.906" y1="-13625.529" x2="9091.336" y2="-12457.299" gradientTransform="matrix(.02835 0 0 -.02835 -235.216 -357.192)"><stop offset="0" stop-color="#ffed00"/><stop offset=".149" stop-color="#ef7f1a"/><stop offset=".271" stop-color="#e31e24"/><stop offset=".49" stop-color="#ae4a84"/><stop offset=".761" stop-color="#008dd2"/><stop offset="1" stop-color="#fefefe"/></linearGradient><path d="M22.2 21.9c2.5 0 4.6 2.1 4.6 4.6 0 2.5-2.1 4.6-4.6 4.6h-6.4c-4.3 0-8.2-1.7-11-4.6C2 23.7.2 19.8.2 15.5s1.7-8.2 4.6-11C7.6 1.7 11.5 0 15.8 0h16v2h1v1h-1v1h1v2h-1v1h1v1h-1v1H15.8c-1.8 0-3.3.7-4.5 1.9s-1.9 2.7-1.9 4.5c0 1.8.7 3.3 1.9 4.5 1.2 1.2 2.7 1.9 4.5 1.9 0 .1 6.4.1 6.4.1zm5.6-12.7h-1v-1h1v1z" fill="url(#SVGID_1_)"/><path d="M16.5 20.2c-2.5 0-4.6-2.1-4.6-4.6S14 11 16.5 11h6.4c4.3 0 8.2 1.7 11 4.6 2.8 2.8 4.6 6.7 4.6 11s-1.7 8.2-4.6 11c-2.8 2.8-6.7 4.6-11 4.6h-6.6v-1h-1v1h-1v-1h-1v1H6.1V33H22.9c1.8 0 3.3-.7 4.5-1.9 1.2-1.2 1.9-2.7 1.9-4.5 0-1.8-.7-3.3-1.9-4.5-1.2-1.2-2.7-1.9-4.5-1.9h-6.4zm-6.3 19.9h1v1h-1v-1zm-2-1.1h1v1h-1v-1zm5.1 0h1v1h-1v-1zm4.1 0h1v1h-1v-1zM7.2 38h1v1h-1v-1zm2-1h1v1h-1v-1zm1 1h1v1h-1v-1zm2.1 0h1v1h-1v-1zm5.1-1h1v1h-1v-1zm-3.1 0h1v1h-1v-1zm1-1h1v1h-1v-1zm-8.1-1.1h1v1h-1v-1zm5.1 0h1v1h-1v-1zm-3.1-1h1v1h-1v-1zm6.1 0h1v1h-1v-1zm-8.1-1h1v1h-1v-1z"/><path class="st1" d="M37.7 4.7H39v1.4h-1.3z"/><path class="st2" d="M36 2.3h1.4v1.3H36z"/><path class="st1" d="M36.1 7.7h1.3v1.4h-1.3zM33.9 3.4h1.3v1.3h-1.3zM35.6 0h1.3v1.3h-1.3zM33.9 6.3h1.3v1.4h-1.3z"/><path class="st2" d="M35.2 6.3h1.3v1.4h-1.3z"/><path class="st3" d="M7.2 32.9h1v1h-1v-1zm8.1 1h1v1h-1v-1zm-6.1 0h1v1h-1v-1zm3.1 1h1v1h-1v-1zm-5.1 0h1v1h-1v-1zm8.1 1.1h1v1h-1v-1zm-1 1h1v1h-1v-1zm3.1 0h1v1h-1v-1zm-5.1 1h1v1h-1v-1zm-2.1 0h1v1h-1v-1zm-1-1h1v1h-1v-1zm-2 1h1v1h-1v-1zm10.2 1h1v1h-1v-1zm-4.1 0h1v1h-1v-1zm-5.1 0h1v1h-1v-1zm2 1.1h1v1h-1v-1zm5.1 1h1v1h-1v-1zm-2 0h1v1h-1v-1zm1-8.2h1v1h-1v-1z"/><path class="st4" d="M0 32.9h1v1H0zM1 33.9h1v1H1zM2 33.9h1.1v1H2zM3.1 32.9h1v1h-1zM4.1 32.9h1v1h-1zM4.1 33.9h1v1h-1zM5.1 33.9h1v1h-1zM4.1 34.9h1V36h-1zM3.1 36h1v1h-1zM1 37h1v1H1zM2 38h1.1v1H2zM4.1 39h1v1h-1zM3.1 40h1v1.1h-1zM0 41.1h1v1H0zM5.1 38h1v1h-1zM5.1 36h1v1h-1z"/><path class="st3" d="M24.7 8.2h-1v-1h1zM30.8 7.1h-1V6h1zM29.8 8.1h-1v-1h1z"/><path class="st1" d="M33.9 9.1h-1v-1h1z"/><path class="st3" d="M27.8 7.2h-1.1V6.1h1.1z"/><path class="st1" d="M33.9 6.1h-1v-1h1z"/><path class="st3" d="M24.7 6.1h-1v-1h1zM25.7 5.1h-1v-1h1zM22.7 5.1h-1.1v-1h1.1zM27.8 4.1h-1.1v-1h1.1zM29.8 4.1h-1v-1h1zM30.8 5.1h-1v-1h1z"/><path class="st1" d="M33.9 3.1h-1V2h1zM34.9 2h-1V1h1zM33.9 1h-1V0h1z"/><path class="st3" d="M22.7 3.1h-1.1V2h1.1zM26.7 3.1h-1V2h1zM31.9 3.1h-1.1V2h1.1zM29.8 2h-1V1h1zM24.7 1h-1V0h1zM26.7 1h-1V0h1zM27.8 9.2h-1.1v-1h1.1z"/></g></g></svg>