<svg xmlns="http://www.w3.org/2000/svg" width="45mm" height="20mm" viewBox="0 0 4500 2000" shape-rendering="geometricPrecision" text-rendering="geometricPrecision" image-rendering="optimizeQuality" fill-rule="evenodd" clip-rule="evenodd"><defs><style>.fil3{fill:#00a0e3}.fil5{fill:#4e5151}.fil2{fill:#96d6f6}.fil4{fill:#fefefe}.fil1,.fil6,.fil7{fill:#000;fill-rule:nonzero}.fil6,.fil7{fill:#4e5151}.fil6{fill:#ff0009}</style><linearGradient id="id0" gradientUnits="userSpaceOnUse" x1="594.28" y1="1175.84" x2="1030.71" y2="7.61"><stop offset="0" stop-color="#ffed00"/><stop offset=".149" stop-color="#ef7f1a"/><stop offset=".271" stop-color="#e31e24"/><stop offset=".49" stop-color="#ae4a84"/><stop offset=".761" stop-color="#008dd2"/><stop offset="1" stop-color="#fefefe"/></linearGradient></defs><g id="Слой_x0020_1"><g id="_1686323452656"><path d="M819.44 850.91c89.72 0 162.47 72.74 162.47 162.47 0 89.72-72.75 162.46-162.47 162.46H594.28c-151.71 0-289.1-61.53-388.55-160.97-99.44-99.45-160.97-236.83-160.97-388.54 0-151.72 61.53-289.1 160.98-388.55 99.45-99.44 236.84-160.97 388.55-160.97h567.7v72.05h35.29v36.15h-35.29v36.06h35.29v72.12h-35.29v36.06h35.29v36.06h-35.29v36.43h-567.7c-62.02 0-118.18 25.14-158.82 65.78-40.64 40.64-65.78 96.79-65.78 158.81 0 62.01 25.14 118.17 65.78 158.8 40.63 40.64 96.79 65.78 158.81 65.78h225.16zm198.22-449.19H981.6v-36.06h36.06v36.06z" fill="url(#id0)" fill-rule="nonzero"/><path class="fil1" d="M621.23 787.81c-89.72 0-162.47-72.74-162.47-162.46 0-89.72 72.75-162.47 162.47-162.47H846.4c151.71 0 289.09 61.53 388.54 160.98 99.44 99.45 160.97 236.84 160.97 388.54 0 151.71-61.53 289.09-160.97 388.54-99.45 99.45-236.83 160.97-388.54 160.97H615.11v-36.05h-36.05v36.05h-36.08v-36.05h-36.06v36.05h-252.5v-324.92H846.4c62.01 0 118.17-25.15 158.8-65.78 40.64-40.64 65.78-96.8 65.78-158.81 0-62.02-25.14-118.18-65.78-158.81-40.63-40.63-96.79-65.78-158.8-65.78H621.23zm-222.51 701.98h36.06v36.07h-36.06v-36.07zm-72.13-36.05h36.06v36.05h-36.06v-36.05zm180.33 0h36.06v36.05h-36.06v-36.05zm144.27 0h36.06v36.05h-36.06v-36.05zm-360.67-36.07h36.06v36.07h-36.06v-36.07zm72.14-36.06h36.05v36.06h-36.05v-36.06zm36.06 36.06h36.06v36.07h-36.06v-36.07zm72.14 0h36.05v36.07h-36.05v-36.07zm180.33-36.05h36.06v36.05h-36.06v-36.05zm-108.2 0h36.06v36.05h-36.06v-36.05zm36.07-36.07h36.05v36.07h-36.05v-36.07zm-288.54-36.05h36.06v36.05h-36.06v-36.05zm180.34 0h36.05v36.05h-36.05v-36.05zm-108.2-36.07h36.05v36.07h-36.05v-36.07zm216.4 0h36.05v36.07h-36.05v-36.07zm-288.54-36.05h36.06v36.05h-36.06v-36.05z"/><path class="fil2" d="M1726.7 261.89h94.82v94.83h-94.82zM1588.17 76.81h94.82v94.82h-94.82z"/><path class="fil3" d="M1366.69 243.19h47.41v47.41h-47.41z"/><path class="fil2" d="M1309.2 156.96h47.42v47.42h-47.42z"/><path class="fil3" d="M1311.35 349.53h47.41v47.41h-47.41z"/><path class="fil2" d="M1393.28 76.81h94.82v94.82h-94.82z"/><path class="fil3" d="M1536.99 194.63h94.82v94.82h-94.82zM1422.02 301.43h94.82v94.83h-94.82zM1233.76 196.49h47.41v47.41h-47.41zM1293.39 76.81h47.41v47.41h-47.41zM1232.24 299.61h47.41v47.42h-47.41z"/><path class="fil2" d="M1279.63 299.61h47.41v47.42h-47.41z"/><path class="fil4" d="M290.52 1237.38h36.06v36.05h-36.06v-36.05zm288.54 36.05h36.05v36.07h-36.05v-36.07zm-216.4 0h36.05v36.07h-36.05v-36.07zm108.2 36.07h36.05v36.05h-36.05v-36.05zm-180.34 0h36.06v36.05h-36.06v-36.05zm288.54 36.05h36.05v36.07h-36.05v-36.07zm-36.07 36.07h36.06v36.05h-36.06v-36.05zm108.2 0h36.06v36.05h-36.06v-36.05zm-180.33 36.05h36.05v36.07h-36.05v-36.07zm-72.14 0h36.06v36.07h-36.06v-36.07zm-36.06-36.06h36.05v36.06h-36.05v-36.06zm-72.14 36.06h36.06v36.07h-36.06v-36.07zm360.67 36.07h36.06v36.05h-36.06v-36.05zm-144.27 0h36.06v36.05h-36.06v-36.05zm-180.33 0h36.06v36.05h-36.06v-36.05zm72.13 36.05h36.06v36.07h-36.06v-36.07zm180.34 36.07h36.05v36.05h-36.05v-36.05zm-72.14 0h36.06v36.05h-36.06v-36.05zm36.07-288.48h36.06v36.05h-36.06v-36.05z"/><path class="fil5" d="M38.03 1236.99h36.06v36.05H38.03zM74.1 1273.06h36.06v36.05H74.1zM110.17 1273.06h36.05v36.05h-36.05zM146.23 1236.99h36.06v36.05h-36.06zM182.3 1236.99h36.06v36.05H182.3zM182.3 1273.06h36.06v36.05H182.3zM218.36 1273.06h36.07v36.05h-36.07zM182.3 1309.12h36.06v36.06H182.3zM146.23 1345.19h36.06v36.06h-36.06zM74.1 1381.26h36.06v36.06H74.1zM110.17 1417.32h36.05v36.07h-36.05zM182.3 1453.39h36.06v36.06H182.3zM146.23 1489.45h36.06v36.06h-36.06zM38.03 1525.52h36.06v36.06H38.03zM218.36 1417.32h36.07v36.07h-36.07zM218.36 1345.19h36.07v36.06h-36.07z"/><path class="fil4" d="M909.51 365.31h-36.06v-36.06h36.06zM1125.91 326.03h-36.06v-36.06h36.06zM1089.84 362.09h-36.06v-36.06h36.06z"/><path class="fil3" d="M1233.28 398.16h-36.06V362.1h36.06z"/><path class="fil4" d="M1017.71 329.25h-36.06v-36.06h36.06z"/><path class="fil3" d="M1233.28 293.19h-36.06v-36.07h36.06z"/><path class="fil4" d="M909.51 293.19h-36.06v-36.06h36.06zM945.58 257.13h-36.07v-36.06h36.07zM837.37 257.13h-36.05v-36.06h36.05zM1017.71 221.07h-36.06v-36.06h36.06zM1089.84 221.07h-36.06v-36.06h36.06zM1125.91 257.14h-36.06v-36.06h36.06z"/><path class="fil3" d="M1233.28 185.01h-36.06v-36.06h36.06zM1269.35 148.94h-36.06v-36.06h36.06zM1233.28 112.87h-36.06V76.81h36.06z"/><path class="fil4" d="M837.37 185.01h-36.05v-36.06h36.05zM981.64 185.01h-36.06v-36.06h36.06zM1161.98 185.01h-36.06v-36.06h36.06zM1089.84 148.95h-36.06v-36.06h36.06zM909.51 112.89h-36.06V76.84h36.06zM981.64 112.89h-36.06V76.84h36.06zM1017.66 401.72h-36.05v-36.06h36.05z"/><path class="fil1" d="M4461.94 953.25v128.46H4244.3v246.15c0 29.36 7.99 52.68 24.4 69.74 16.19 17.27 38.65 25.69 67.37 25.69 38.64 0 80.75-11.65 125.87-34.76v136.03c-60.02 24.83-117.89 37.35-174.02 37.35-73.42 0-130.2-19-170.8-57-40.37-38-60.66-93.71-60.66-166.91v-256.29h-85.51v-36.7l249.81-279.61h23.54v187.85h217.64zM3572.79 1045.38v140.82h81.43c25.99 0 46.54-6.2 61.65-18.44 15.25-12.24 22.81-29.61 22.81-52.42 0-46.54-29.31-69.96-88.08-69.96h-77.81zm-154.12-113.31h276.19c59.98 0 108.64 17.37 146.11 51.97 37.47 34.75 56.2 76.75 56.2 126.01 0 68.14-35.36 118.6-106.22 151.39 31.28 13.9 60.89 51.82 88.69 113.77 27.96 61.94 54.85 120.41 80.83 175.26h-169.52c-9.97-20.4-27.49-59.23-52.42-116.49-24.93-57.11-46.38-93.98-64.21-110.15-17.83-16.16-37.02-24.32-57.27-24.32h-44.26v250.96h-154.12v-618.4zM3030.24 1405.59v-144.24c-62.83 22.03-106.01 41.68-129.33 59.17-23.54 17.48-35.19 39.72-35.19 66.71 0 17.28 5.82 32.18 17.7 44.7 11.88 12.3 26.13 18.56 42.97 18.56 35.41 0 70.17-14.89 103.85-44.9zM3320 1403v104.5c-62.4 36.28-121.12 54.41-175.97 54.41-58.95 0-93.92-22.46-104.93-67.15-65.43 44.69-131.06 67.15-196.71 67.15-46.41 0-85.93-14.68-118.32-44.05-32.6-29.36-48.79-63.26-48.79-102.13 0-51.81 16.84-93.7 50.3-125.66 33.47-31.74 135.17-72.76 304.66-122.85 4.11-66.72-30.44-99.97-103.85-99.97-79.67 0-153.09 33.25-220.02 99.97v-153.09c78.38-48.58 164.52-72.76 258.67-72.76 168.62 0 253.05 60.46 253.05 181.58v271.84c0 27.85 10.37 41.89 30.88 41.89 15.76 0 39.29-11.23 71.03-33.68zM1660.69 953.25v76.65c63.69-59.17 132.78-88.53 207.49-88.53 102.56 0 174.24 42.32 215.05 127.17 72.12-84.85 150.5-127.17 235.35-127.17 68.67 0 124.8 20.73 168.2 62.61 43.4 41.68 65.21 96.09 65.21 163.24v383.25h-187.85v-349.79c0-42.1-9.72-74.92-29.15-98.46-19.43-23.31-46.42-34.97-80.97-34.97-54.84 0-104.07 33.68-147.9 101.05v382.17H1918.7V1196.8c0-41.67-10.36-73.63-31.3-96.09-20.73-22.45-48.58-33.46-83.13-33.46-49.23 0-97.16 27.63-143.58 82.69v400.53h-187.85V953.25h187.85z"/><path class="fil6" d="M2225.99 491.25h-41.73l-16.57-43.15h-75.9l-15.64 43.15h-40.67l73.95-189.85h40.53l76.03 189.85zm-70.59-75.1l-26.17-70.46-25.64 70.46h51.81z"/><path class="fil7" d="M2355.73 491.25h-21.22v-21h-.53c-8.8 16.09-22.46 24.09-40.93 24.09-31.61 0-47.39-18.79-47.39-56.45v-79.25h21.09v75.89c0 27.98 10.74 41.95 32.13 41.95 10.34 0 18.88-3.8 25.59-11.45 6.68-7.64 10.04-17.63 10.04-29.96v-76.43h21.22v132.61zm104.4-1.29c-4.99 2.74-11.62 4.11-19.8 4.11-23.25 0-34.83-12.95-34.83-38.8v-78.51h-22.81v-18.12h22.81v-32.36l21.21-6.89v39.25h33.42v18.12h-33.42v74.75c0 8.88 1.51 15.2 4.56 19.01 3.01 3.8 8 5.7 14.98 5.7 5.4 0 10-1.46 13.88-4.38v18.12zm83.77 4.38c-19.58 0-35.23-6.19-46.95-18.57-11.67-12.37-17.54-28.82-17.54-49.28 0-22.28 6.1-39.65 18.25-52.2 12.2-12.51 28.64-18.75 49.38-18.75 19.75 0 35.18 6.06 46.28 18.26 11.09 12.16 16.62 29.04 16.62 50.61 0 21.17-5.97 38.1-17.9 50.84-11.98 12.72-28.03 19.09-48.14 19.09zm1.55-120.94c-13.62 0-24.41 4.64-32.36 13.92-7.96 9.29-11.94 22.06-11.94 38.42 0 15.69 4.03 28.06 12.07 37.13 8.05 9.06 18.79 13.61 32.23 13.61 13.74 0 24.31-4.46 31.69-13.35 7.38-8.88 11.05-21.52 11.05-37.92 0-16.58-3.67-29.35-11.05-38.33-7.38-8.97-17.95-13.48-31.69-13.48zM2222.13 703.88h-19.61v-70.35c0-13.56-2.12-23.36-6.28-29.4-4.21-6.09-11.23-9.11-21.11-9.11-8.37 0-15.52 3.84-21.35 11.48-5.89 7.67-8.82 16.82-8.82 27.52v69.86h-19.6v-72.72c0-24.09-9.31-36.14-27.89-36.14-8.62 0-15.68 3.6-21.27 10.82-5.6 7.23-8.37 16.62-8.37 28.18v69.86h-19.64v-122.5h19.64v19.4h.48c8.66-14.86 21.36-22.25 38.02-22.25 8.37 0 15.68 2.33 21.88 6.98 6.25 4.66 10.5 10.78 12.82 18.37 9.07-16.9 22.62-25.35 40.67-25.35 26.95 0 40.43 16.62 40.43 49.85v75.5zm124.77 0h-19.64v-19.15h-.45c-8.53 14.7-21.1 22.01-37.68 22.01-12.21 0-21.77-3.23-28.66-9.68-6.91-6.45-10.34-15.03-10.34-25.73 0-22.86 13.48-36.21 40.43-39.92l36.7-5.15c0-20.83-8.41-31.24-25.23-31.24-14.74 0-28.05 5.02-39.93 15.07V590c12.04-7.67 25.88-11.47 41.61-11.47 28.78 0 43.19 15.23 43.19 45.69v79.66zm-19.64-61.98l-29.51 4.08c-9.11 1.27-15.97 3.51-20.59 6.78-4.61 3.22-6.94 8.94-6.94 17.15 0 5.96 2.13 10.86 6.41 14.65 4.25 3.8 9.92 5.68 17.03 5.68 9.72 0 17.76-3.39 24.09-10.21 6.37-6.82 9.51-15.47 9.51-25.93v-12.2zm113.43 60.79c-4.61 2.53-10.74 3.8-18.29 3.8-21.48 0-32.18-11.96-32.18-35.85v-72.51h-21.06v-16.75h21.06V551.5l19.6-6.37v36.25h30.87v16.75h-30.87v69.04c0 8.21 1.39 14.05 4.21 17.56 2.77 3.51 7.39 5.26 13.84 5.26 4.98 0 9.23-1.34 12.82-4.04v16.74zm36.22-152.41c-3.51 0-6.49-1.19-8.94-3.6-2.49-2.36-3.72-5.39-3.72-9.06 0-3.68 1.23-6.74 3.72-9.15 2.45-2.45 5.43-3.67 8.94-3.67 3.59 0 6.66 1.22 9.19 3.67 2.48 2.41 3.75 5.47 3.75 9.15 0 3.51-1.27 6.49-3.75 8.94-2.53 2.49-5.6 3.72-9.19 3.72zm9.6 153.6h-19.64v-122.5h19.64v122.5zm123.18-5.64c-9.39 5.68-20.58 8.5-33.48 8.5-17.48 0-31.56-5.68-42.3-17.03-10.7-11.35-16.09-26.09-16.09-44.22 0-20.17 5.8-36.38 17.35-48.63 11.56-12.21 26.99-18.33 46.31-18.33 10.78 0 20.25 2 28.46 5.96v20.09c-9.11-6.37-18.83-9.56-29.2-9.56-12.49 0-22.78 4.5-30.79 13.48-8 8.94-12.04 20.74-12.04 35.32 0 14.37 3.8 25.68 11.31 33.97 7.55 8.29 17.64 12.45 30.34 12.45 10.69 0 20.74-3.55 30.13-10.66v18.66z"/><path class="fil6" d="M3018.75 517.77l-89.72 193.57h-52.32L2716.3 349h114.14l74.94 195.89L2984.81 349h67.74l78.79 195.89L3205.89 349h114.4l-159.64 362.34h-53.47l-88.43-193.57zm709.89 98.97v62.21c-37.15 21.59-72.11 32.39-104.76 32.39-35.09 0-55.91-13.37-62.46-39.97-38.95 26.6-78.02 39.97-117.1 39.97-27.64 0-51.16-8.74-70.44-26.22-19.41-17.48-29.05-37.66-29.05-60.8 0-30.85 10.03-55.78 29.95-74.81 19.92-18.89 80.47-43.31 181.37-73.13 2.44-39.72-18.13-59.51-61.83-59.51-47.43 0-91.13 19.79-130.98 59.51v-91.13c46.66-28.92 97.95-43.32 153.99-43.32 100.38 0 150.64 35.99 150.64 108.1v161.82c0 16.58 6.17 24.94 18.38 24.94 9.38 0 23.39-6.68 42.29-20.05zm-172.49 1.54v-85.86c-37.41 13.11-63.11 24.81-77 35.22-14.01 10.41-20.95 23.65-20.95 39.72 0 10.28 3.47 19.15 10.54 26.6 7.07 7.33 15.56 11.05 25.58 11.05 21.08 0 41.77-8.86 61.83-26.73zm463.23-250v79.43c-42.67-26.09-82.26-39.2-118.63-39.2-26.87 0-40.36 9.26-40.36 27.51 0 4.75 2.82 9.51 8.48 14.14 5.65 4.62 27.37 14.39 65.04 29.43 37.66 14.91 64.26 32.14 79.82 51.67 15.55 19.67 23.26 41.13 23.26 64.4 0 36.89-12.47 65.42-37.66 85.47-25.06 20.19-60.79 30.21-107.32 30.21-47.69 0-90.11-8.74-127.26-25.96v-78.79c45.76 20.17 84.07 30.2 114.91 30.2 36.12 0 54.25-8.87 54.25-26.35 0-6.81-3.34-13.24-10.03-19.28-6.68-6.04-29.05-16.45-67.22-31.23-38.18-14.78-64.27-31.11-78.28-48.98-14.14-17.86-21.08-37.65-21.08-59.51 0-32.39 13.49-58.74 40.49-79.04 26.99-20.31 62.47-30.47 106.68-30.47 42.42 0 80.72 8.74 114.91 26.35zm198.07-189.84v223h1.54c31.11-39.72 68.64-59.51 112.6-59.51 37.91 0 69.02 11.95 93.57 35.86 24.43 24.04 36.76 57.33 36.76 100v226.74h-111.95V501.57c0-51.67-19.15-77.63-57.58-77.63-25.33 0-50.26 17.99-74.94 53.85v226.74h-111.82V178.44h111.82z"/><path class="fil7" d="M153.04 1783.02l-47.63 105.13c-3.36 7.23-6.81 13.48-10.36 18.78-3.55 5.29-7.81 9.32-12.78 12.1-4.97 2.77-11.26 4.16-18.88 4.16-3.74 0-7.03-.29-9.87-.87-2.84-.58-5.29-1.26-7.36-2.04v-11.22c4.9 2.45 10.46 3.68 16.65 3.68 8.01 0 14.17-2.23 18.49-6.68 4.33-4.46 8.43-11.07 12.3-19.85l-53.83-103.19h12.39l42.02 81.31c1.03 1.94 1.93 3.85 2.71 5.72.77 1.87 1.67 3.9 2.71 6.1h.38c.52-1.81 1.23-3.72 2.13-5.72.91-2 1.75-3.9 2.52-5.71l36.4-81.7h12.01zm258.87 138.23l-49.57-126.23h-.77c.26 3.49.45 7.52.58 12.1.13 4.58.19 9.46.19 14.62v99.51h-10.45v-138.23h17.04l47.63 121.2h.58l48.21-121.2H482v138.23h-11.23v-100.67c0-4.39.06-8.84.19-13.36s.32-8.58.58-12.2h-.58l-49.95 126.23h-9.1zm389.37 0h-11.23v-67.37h-78.8v67.37h-11.23v-138.23h11.23v60.79h78.8v-60.79h11.23v138.23zm304.76 0l-18.39-47.62h-57.31l-18.78 47.62h-11.42l54.21-138.62h10.45l53.06 138.62h-11.82zm-21.87-57.69l-18.59-49.95c-.52-1.81-1.42-4.65-2.71-8.52-1.29-3.87-2.45-7.29-3.49-10.26a372.3 372.3 0 0 1-3.29 10.16c-1.16 3.42-2.13 6.36-2.9 8.81l-19.17 49.76h50.15zm267.4-1.94l-36.4 59.63h-13.36l38.33-61.56c-5.55-1.42-10.58-3.55-15.1-6.39s-8.1-6.78-10.75-11.81c-2.64-5.04-3.97-11.49-3.97-19.37 0-13.16 4.33-22.97 12.98-29.42 8.65-6.46 21.16-9.68 37.56-9.68h34.66v138.23h-11.24v-59.63h-32.71zm32.71-68.73h-22.84c-12.91 0-22.72 2.29-29.43 6.87-6.71 4.59-10.07 12.17-10.07 22.75 0 9.81 3.1 17.17 9.3 22.08 6.19 4.9 15.23 7.35 27.1 7.35h25.94v-59.05zm568.71 128.36l-18.39-47.62h-57.31l-18.78 47.62h-11.42l54.21-138.62h10.46l53.05 138.62h-11.82zm-21.87-57.69l-18.59-49.95c-.51-1.81-1.42-4.65-2.71-8.52-1.29-3.87-2.45-7.29-3.49-10.26a372.3 372.3 0 0 1-3.29 10.16c-1.16 3.42-2.13 6.36-2.9 8.81l-19.17 49.76h50.15zm232.35-80.54h38.34c17.03 0 29.62 2.64 37.75 7.93 8.13 5.3 12.2 13.88 12.2 25.76 0 8-2.33 14.84-6.97 20.52-4.65 5.68-11.3 9.29-19.94 10.84v.77c10.06 1.55 17.71 5.01 22.94 10.36 5.23 5.36 7.84 12.94 7.84 22.75 0 8.91-2.03 16.27-6.1 22.07-4.07 5.81-9.74 10.14-17.03 12.97-7.3 2.84-15.72 4.26-25.27 4.26h-43.76v-138.23zm11.23 60.99h29.62c12.65 0 21.78-2.2 27.4-6.59 5.61-4.39 8.42-10.9 8.42-19.55 0-8.91-3.03-15.3-9.1-19.17-6.06-3.87-15.81-5.81-29.23-5.81h-27.11v51.12zm0 9.67v57.9h31.56c25.04 0 37.56-10.07 37.56-30.21 0-9.55-3.2-16.55-9.58-21.01-6.39-4.45-16.3-6.68-29.72-6.68h-29.82zm328 67.57h-11.23v-128.17h-44.53v-10.06h100.29v10.06h-44.53v128.17zm361.49-69.31c0 14.07-2.32 26.46-6.97 37.17-4.65 10.72-11.59 19.08-20.81 25.08-9.23 6-20.69 9-34.37 9-13.94 0-25.52-3-34.75-9s-16.14-14.39-20.72-25.17c-4.58-10.78-6.87-23.2-6.87-37.27 0-14.07 2.35-26.4 7.06-36.98 4.71-10.59 11.75-18.88 21.11-24.88s20.94-9 34.75-9c13.3 0 24.49 2.87 33.59 8.61 9.1 5.75 16.04 13.91 20.81 24.5 4.78 10.58 7.17 23.23 7.17 37.94zm-112.68 0c0 12.26 1.81 23.01 5.42 32.24s9.16 16.39 16.65 21.49c7.49 5.1 16.97 7.65 28.46 7.65 11.62 0 21.14-2.55 28.56-7.65 7.42-5.1 12.91-12.23 16.45-21.4 3.55-9.16 5.33-19.94 5.33-32.33 0-19.1-4.17-34.04-12.49-44.82-8.33-10.78-20.75-16.17-37.27-16.17-11.49 0-21.04 2.55-28.65 7.65-7.62 5.1-13.26 12.23-16.94 21.4-3.68 9.16-5.52 19.81-5.52 31.94zm383.56 69.31l-49.57-126.23h-.77c.26 3.49.45 7.52.58 12.1.13 4.58.19 9.46.19 14.62v99.51h-10.45v-138.23h17.04l47.63 121.2h.58l48.21-121.2h16.65v138.23h-11.23v-100.67c0-4.39.06-8.84.19-13.36s.32-8.58.58-12.2h-.58l-49.95 126.23h-9.1zm405.25-69.31c0 14.07-2.33 26.46-6.97 37.17-4.65 10.72-11.59 19.08-20.82 25.08s-20.68 9-34.36 9c-13.94 0-25.53-3-34.75-9-9.23-6-16.14-14.39-20.72-25.17-4.58-10.78-6.88-23.2-6.88-37.27 0-14.07 2.36-26.4 7.07-36.98 4.71-10.59 11.75-18.88 21.11-24.88 9.35-6 20.94-9 34.75-9 13.29 0 24.49 2.87 33.59 8.61 9.1 5.75 16.03 13.91 20.81 24.5 4.78 10.58 7.17 23.23 7.17 37.94zm-112.69 0c0 12.26 1.81 23.01 5.43 32.24 3.61 9.23 9.16 16.39 16.65 21.49 7.48 5.1 16.97 7.65 28.46 7.65 11.61 0 21.13-2.55 28.56-7.65 7.42-5.1 12.9-12.23 16.45-21.4 3.55-9.16 5.32-19.94 5.32-32.33 0-19.1-4.16-34.04-12.48-44.82-8.33-10.78-20.75-16.17-37.27-16.17-11.49 0-21.04 2.55-28.65 7.65-7.62 5.1-13.27 12.23-16.95 21.4-3.67 9.16-5.52 19.81-5.52 31.94zm323.55-68.92h10.84v94.09c0 4.91-.06 9.87-.19 14.91-.13 5.03-.32 9.16-.58 12.39h.38l80.55-121.39h11.61v138.23h-10.45v-92.54c0-5.55.06-11 .19-16.36.13-5.36.32-9.59.58-12.68h-.58l-80.35 121.58h-12v-138.23zm84.8-41.44c-1.16 18.07-12 27.11-32.53 27.11-10.32 0-18-2.19-23.04-6.58-5.03-4.39-7.81-11.23-8.32-20.53h10.45c.52 6.98 2.45 11.88 5.81 14.72 3.36 2.84 8.52 4.26 15.49 4.26 6.58 0 11.65-1.42 15.2-4.26 3.55-2.84 5.65-7.74 6.29-14.72h10.65zm328.38 179.67h-14.13l-67.19-70.47v70.47h-11.22v-138.23h11.22v66.99l65.44-66.99h13.56l-65.25 67.18 67.57 71.05zm285.79 0l-18.39-47.62h-57.31l-18.78 47.62h-11.42l54.21-138.62h10.45l53.06 138.62h-11.82zm-21.88-57.69l-18.58-49.95c-.52-1.81-1.42-4.65-2.71-8.52-1.29-3.87-2.45-7.29-3.49-10.26a372.3 372.3 0 0 1-3.29 10.16c-1.16 3.42-2.13 6.36-2.9 8.81l-19.17 49.76h50.14z"/></g></g></svg>