<svg version="1.1" id="Capa_1" xmlns="http://www.w3.org/2000/svg" x="0" y="0" viewBox="0 0 512 512" xml:space="preserve"><style>.st0{fill:#fff}</style><path class="st0" d="M420.4 133.8c-2-3.5-4.5-6-8.3-7.4L301 86c.4-12.1-4-24.3-13.1-33.4-18.9-18.9-50.5-17.4-67.4 4.1L109.7 16.4c-7.8-2.8-15.6 1.3-18.5 7.4L20.9 163.2h33.6l50.1-99.6 50.7 99.6H189L135.2 57.6 211 85.2c.3 19.3 12.6 35.6 30 41.7v291.3c0 8.3 6.7 15 15 15s15-6.7 15-15V126.9c7.3-2.6 13.9-7 19-13l95.9 34.9-63.1 125.4h33.6l50.5-100.4 50.6 100.4h33.6l-70.7-140.4zM266.6 95.1c-5.9 5.9-15.4 5.9-21.3 0s-5.9-15.4 0-21.3 15.4-5.9 21.3 0 5.9 15.4 0 21.3z"/><path class="st0" d="M273.7 404.2h-35.3c-42.6 0-77.3 34.7-77.3 77.3 0 8.3 6.7 15 15 15H336c8.3 0 15-6.7 15-15-.1-42.6-34.7-77.3-77.3-77.3zM497 304.3H317c-8.3 0-15 6.7-15 15 0 57.9 47.1 105 105 105s105-47.1 105-105c0-8.3-6.7-15-15-15zM195.1 193.2H15c-8.3 0-15 6.7-15 15 0 57.9 47.1 105.1 105.1 105.1s105.1-47.1 105.1-105.1c-.1-8.3-6.8-15-15.1-15z"/></svg>