<?xml version="1.0" encoding="iso-8859-1"?>
<!-- Generator: Adobe Illustrator 19.0.0, SVG Export Plug-In . SVG Version: 6.00 Build 0)  -->
<svg fill="white" version="1.1" id="Layer_1" xmlns="http://www.w3.org/2000/svg" xmlns:xlink="http://www.w3.org/1999/xlink" x="0px" y="0px"
	 viewBox="0 0 512 512" style="enable-background:new 0 0 512 512;" xml:space="preserve">
<g>
	<g>
		<path d="M480,10.667h-21.333c-17.643,0-32,14.357-32,32V96h-85.333V85.333c0-17.643-14.357-32-32-32H288
			c-8.213,0-15.659,3.2-21.333,8.32c-5.675-5.12-13.12-8.32-21.333-8.32H224c-8.213,0-15.659,3.2-21.333,8.32
			c-5.675-5.12-13.12-8.32-21.333-8.32H160c-17.643,0-32,14.357-32,32V96H85.333V42.667c0-17.643-14.357-32-32-32H32
			c-17.643,0-32,14.357-32,32v426.667c0,17.643,14.357,32,32,32h21.333c17.643,0,32-14.357,32-32V416h149.333v10.667
			c0,17.643,14.357,32,32,32H288c8.213,0,15.659-3.2,21.333-8.32c5.675,5.12,13.12,8.32,21.333,8.32H352
			c8.213,0,15.659-3.2,21.333-8.32c5.675,5.12,13.12,8.32,21.333,8.32H416c3.755,0,7.317-0.768,10.667-1.963v12.629
			c0,17.643,14.357,32,32,32H480c17.643,0,32-14.357,32-32V42.667C512,25.024,497.643,10.667,480,10.667z M64,469.333
			C64,475.221,59.221,480,53.333,480H32c-5.888,0-10.667-4.779-10.667-10.667V42.667C21.333,36.779,26.112,32,32,32h21.333
			C59.221,32,64,36.779,64,42.667V469.333z M277.333,85.333c0-5.888,4.779-10.667,10.667-10.667h21.333
			c5.888,0,10.667,4.779,10.667,10.667V128c0,5.888-4.779,10.667-10.667,10.667H288c-5.888,0-10.667-4.779-10.667-10.667V85.333z
			 M213.333,85.333c0-5.888,4.779-10.667,10.667-10.667h21.333c5.888,0,10.667,4.779,10.667,10.667V128
			c0,5.888-4.779,10.667-10.667,10.667H224c-5.888,0-10.667-4.779-10.667-10.667V85.333z M149.333,85.333
			c0-5.888,4.779-10.667,10.667-10.667h21.333c5.888,0,10.667,4.779,10.667,10.667V128c0,5.888-4.779,10.667-10.667,10.667H160
			c-5.888,0-10.667-4.779-10.667-10.667V85.333z M85.333,234.667C85.333,228.779,90.112,224,96,224h21.333
			c5.888,0,10.667,4.779,10.667,10.667v42.667c0,5.888-4.779,10.667-10.667,10.667H96c-5.888,0-10.667-4.779-10.667-10.667V234.667z
			 M298.667,426.667c0,5.888-4.779,10.667-10.667,10.667h-21.333c-5.888,0-10.667-4.779-10.667-10.667V384
			c0-5.888,4.779-10.667,10.667-10.667H288c5.888,0,10.667,4.779,10.667,10.667V426.667z M362.667,426.667
			c0,5.888-4.779,10.667-10.667,10.667h-21.333c-5.888,0-10.667-4.779-10.667-10.667V384c0-5.888,4.779-10.667,10.667-10.667H352
			c5.888,0,10.667,4.779,10.667,10.667V426.667z M426.667,426.667c0,5.888-4.779,10.667-10.667,10.667h-21.333
			c-5.888,0-10.667-4.779-10.667-10.667V384c0-5.888,4.779-10.667,10.667-10.667H416c5.888,0,10.667,4.779,10.667,10.667V426.667z
			 M426.667,353.963C423.317,352.768,419.755,352,416,352h-21.333c-8.213,0-15.659,3.2-21.333,8.32
			C367.659,355.2,360.213,352,352,352h-21.333c-8.213,0-15.659,3.2-21.333,8.32C303.659,355.2,296.213,352,288,352h-21.333
			c-17.643,0-32,14.357-32,32v10.667H85.333v-87.296c3.349,1.195,6.912,1.963,10.667,1.963h21.333c8.213,0,15.659-3.2,21.333-8.32
			c5.675,5.12,13.12,8.32,21.333,8.32h21.333c17.643,0,32-14.357,32-32v-10.667h149.333v10.667c0,17.643,14.357,32,32,32H416
			c3.755,0,7.317-0.768,10.667-1.963V353.963z M149.333,277.333v-42.667c0-5.888,4.779-10.667,10.667-10.667h21.333
			c5.888,0,10.667,4.779,10.667,10.667v42.667c0,5.888-4.779,10.667-10.667,10.667H160C154.112,288,149.333,283.221,149.333,277.333
			z M426.667,277.333c0,5.888-4.779,10.667-10.667,10.667h-21.333c-5.888,0-10.667-4.779-10.667-10.667v-42.667
			c0-5.888,4.779-10.667,10.667-10.667H416c5.888,0,10.667,4.779,10.667,10.667V277.333z M426.667,204.629
			c-3.349-1.195-6.912-1.963-10.667-1.963h-21.333c-17.643,0-32,14.357-32,32v10.667H213.333v-10.667c0-17.643-14.357-32-32-32H160
			c-8.213,0-15.659,3.2-21.333,8.32c-5.675-5.12-13.12-8.32-21.333-8.32H96c-3.755,0-7.317,0.768-10.667,1.963v-87.296H128V128
			c0,17.643,14.357,32,32,32h21.333c8.213,0,15.659-3.2,21.333-8.32c5.675,5.12,13.12,8.32,21.333,8.32h21.333
			c8.213,0,15.659-3.2,21.333-8.32c5.675,5.12,13.12,8.32,21.333,8.32h21.333c17.643,0,32-14.357,32-32v-10.667h85.333V204.629z
			 M490.667,469.333c0,5.888-4.779,10.667-10.667,10.667h-21.333c-5.888,0-10.667-4.779-10.667-10.667V42.667
			C448,36.779,452.779,32,458.667,32H480c5.888,0,10.667,4.779,10.667,10.667V469.333z"/>
	</g>
</g>
<g>
</g>
<g>
</g>
<g>
</g>
<g>
</g>
<g>
</g>
<g>
</g>
<g>
</g>
<g>
</g>
<g>
</g>
<g>
</g>
<g>
</g>
<g>
</g>
<g>
</g>
<g>
</g>
<g>
</g>
</svg>
