<svg fill="white" id="Capa_1" enable-background="new 0 0 512 512" height="512" viewBox="0 0 512 512" width="512" xmlns="http://www.w3.org/2000/svg"><path id="XMLID_209_" d="m456.098 0h-154.196c-18.993 0-35.795 9.53-45.902 24.051-10.107-14.521-26.909-24.051-45.902-24.051h-154.196c-30.824 0-55.902 25.078-55.902 55.902v154.195c0 18.995 9.53 35.796 24.051 45.903-14.521 10.107-24.051 26.908-24.051 45.902v154.195c0 30.825 25.078 55.903 55.902 55.903h154.195c18.994 0 35.795-9.53 45.902-24.051 10.108 14.521 26.91 24.051 45.903 24.051h154.195c30.825 0 55.903-25.078 55.903-55.902v-154.196c0-18.994-9.53-35.795-24.051-45.902 14.521-10.107 24.051-26.908 24.051-45.902v-32.098c0-5.523-4.478-10-10-10s-10 4.477-10 10v32.098c0 19.796-16.105 35.902-35.902 35.902h-154.196c-19.797 0-35.902-16.106-35.902-35.902v-154.196c0-19.796 16.105-35.902 35.902-35.902h154.195c19.798 0 35.903 16.106 35.903 35.902v32.098c0 5.523 4.478 10 10 10s10-4.477 10-10v-32.098c0-30.824-25.078-55.902-55.902-55.902zm-436.098 210.098v-154.196c0-19.796 16.105-35.902 35.902-35.902h154.195c19.798 0 35.903 16.106 35.903 35.902v154.195c0 19.797-16.105 35.903-35.902 35.903h-154.196c-19.797 0-35.902-16.106-35.902-35.902zm190.098 281.902h-154.196c-19.797 0-35.902-16.106-35.902-35.902v-154.196c0-19.796 16.105-35.902 35.902-35.902h154.195c19.798 0 35.903 16.106 35.903 35.902v154.195c0 19.797-16.105 35.903-35.902 35.903zm246-226c19.797 0 35.902 16.106 35.902 35.902v154.195c0 19.797-16.105 35.903-35.902 35.903h-154.196c-19.797 0-35.902-16.106-35.902-35.902v-154.196c0-19.796 16.105-35.902 35.902-35.902zm-186.047-10c-5.477 3.812-10.239 8.574-14.051 14.051-3.812-5.476-8.574-10.239-14.051-14.051 5.477-3.812 10.239-8.574 14.051-14.051 3.812 5.477 8.574 10.239 14.051 14.051z"/><path id="XMLID_773_" d="m133 302c-42.458 0-77 34.542-77 77s34.542 77 77 77 77-34.542 77-77-34.542-77-77-77zm0 134c-31.43 0-57-25.57-57-57s25.57-57 57-57 57 25.57 57 57-25.57 57-57 57z"/><path id="XMLID_843_" d="m307.528 382.194 24.809 17.941-9.487 28.982c-2.816 8.604.096 17.604 7.421 22.925 7.326 5.322 16.785 5.313 24.098-.026l24.631-17.978 24.632 17.979c3.663 2.674 7.864 4.011 12.065 4.011 4.188 0 8.376-1.328 12.032-3.985 7.325-5.322 10.237-14.321 7.421-22.925l-9.487-28.982 24.809-17.941c7.328-5.3 10.264-14.285 7.478-22.889-2.785-8.604-10.428-14.164-19.472-14.164h-30.638l-9.365-28.97c-2.783-8.609-10.427-14.172-19.475-14.172s-16.692 5.563-19.476 14.172l-9.364 28.97h-30.638c-9.044 0-16.687 5.56-19.472 14.164-2.785 8.603.15 17.588 7.478 22.888zm11.717-17.021s.076-.032.277-.032h37.915c4.338 0 8.181-2.797 9.516-6.924l11.603-35.894c.061-.188.112-.251.112-.251.125-.096.541-.095.661-.003 0 0 .054.063.115.254l11.603 35.894c1.335 4.127 5.178 6.924 9.516 6.924h37.915c.195 0 .271.029.271.029.131.089.259.485.208.629 0 0-.043.07-.206.188l-30.723 22.219c-3.523 2.548-4.996 7.082-3.644 11.214l11.758 35.919c.062.187.057.269.057.269-.045.153-.373.392-.529.392 0 0 .079.1-.247-.138l-30.527-22.282c-1.756-1.282-3.826-1.923-5.896-1.923s-4.14.641-5.896 1.923l-30.527 22.282c-.16.117-.24.137-.24.137-.125-.009-.49-.237-.536-.386 0-.001-.006-.083.057-.274l11.758-35.919c1.353-4.132-.12-8.666-3.644-11.214l-30.723-22.219c-.159-.115-.204-.184-.204-.184-.053-.147.075-.543.2-.63z"/><path id="XMLID_1004_" d="m149.235 75.26c-4.432-7.677-12.371-12.26-21.235-12.26s-16.803 4.583-21.235 12.26l-46.743 80.96c-4.432 7.677-4.432 16.844.001 24.521 4.433 7.676 12.371 12.259 21.235 12.259h93.484c8.864 0 16.802-4.583 21.234-12.259 4.433-7.677 4.433-16.843.001-24.521zm29.421 95.48c-.487.844-1.644 2.26-3.914 2.26h-93.484c-2.271 0-3.427-1.416-3.914-2.26s-1.136-2.554-.001-4.521l46.742-80.959c1.136-1.966 2.94-2.26 3.915-2.26s2.779.294 3.915 2.26l46.742 80.959c1.135 1.967.487 3.677-.001 4.521z"/><path id="XMLID_1032_" d="m397.071 62.929c-9.965-9.964-26.178-9.964-36.143 0l-52 52c-9.964 9.965-9.964 26.178 0 36.143l52 52c4.982 4.982 11.526 7.473 18.071 7.473s13.089-2.491 18.071-7.473l52-52c9.964-9.965 9.964-26.178 0-36.143zm37.858 74-52 52c-1.049 1.05-2.444 1.628-3.929 1.628s-2.88-.578-3.929-1.628l-52-52c-1.05-1.049-1.628-2.445-1.628-3.929s.578-2.879 1.628-3.929l52-52c1.049-1.05 2.444-1.628 3.929-1.628s2.88.578 3.929 1.628l52 52c1.05 1.049 1.628 2.445 1.628 3.929s-.578 2.879-1.628 3.929z"/><path id="XMLID_1033_" d="m502 123c-2.63 0-5.21 1.07-7.07 2.93s-2.93 4.44-2.93 7.07 1.069 5.21 2.93 7.07 4.44 2.93 7.07 2.93 5.21-1.07 7.069-2.93c1.86-1.86 2.931-4.44 2.931-7.07s-1.07-5.21-2.931-7.07c-1.859-1.86-4.439-2.93-7.069-2.93z"/></svg>