<?xml version="1.0" encoding="iso-8859-1"?>
<!-- Generator: Adobe Illustrator 19.0.0, SVG Export Plug-In . SVG Version: 6.00 Build 0)  -->
<svg fill="white" version="1.1" id="Capa_1" xmlns="http://www.w3.org/2000/svg" xmlns:xlink="http://www.w3.org/1999/xlink" x="0px" y="0px"
	 viewBox="0 0 512 512" style="enable-background:new 0 0 512 512;" xml:space="preserve">
<g>
	<g>
		<path d="M146.607,167.82C135.76,156.974,121.339,151,106,151s-29.76,5.973-40.606,16.82c-5.858,5.858-5.858,15.355,0,21.213
			c5.857,5.858,15.355,5.858,21.213,0C91.787,183.853,98.674,181,106,181s14.213,2.853,19.394,8.033
			c5.861,5.862,15.358,5.854,21.213,0C152.465,183.175,152.465,173.678,146.607,167.82z"/>
	</g>
</g>
<g>
	<g>
		<path d="M504.391,92.947c-4.702-2.662-10.474-2.59-15.108,0.191l-11.086,6.652C434.253,126.155,382.458,138.7,331,135.674V15
			c0-5.404-2.907-10.39-7.609-13.053c-4.702-2.662-10.475-2.589-15.108,0.191L297.197,8.79c-81.233,48.74-182.16,48.74-263.394,0
			L22.717,2.138c-4.633-2.78-10.404-2.854-15.108-0.191C2.907,4.61,0,9.596,0,15v213.435c0,92.514,66.347,172.931,157.757,191.213
			C163.45,420.787,164.132,421,166,421c1.855,0,2.509-0.205,8.243-1.352c10.303-2.061,20.378-4.961,30.138-8.625
			c27.667,51.453,76.572,88.264,133.376,99.625c5.702,1.14,6.378,1.352,8.243,1.352c1.855,0,2.504-0.204,8.243-1.352
			C445.653,492.367,512,411.529,512,318.435V106C512,100.596,509.093,95.61,504.391,92.947z M168.359,390.231L166,390.703
			l-2.359-0.472C86.204,374.744,30,306.699,30,228.436V41.124c41.458,22.283,88.024,34.004,135.5,34.004S259.542,63.407,301,41.124
			c0,5.001,0,177.145,0,187.311C301,306.815,245.216,374.86,168.359,390.231z M482,318.435c0,78.843-56.204,147.309-133.642,162.796
			L346,481.703l-2.359-0.472c-47.457-9.491-88.432-40.067-112.023-82.895c20.974-11.808,39.761-27.461,55.183-46.273
			C315.303,317.297,331,273.392,331,228.436v-62.707c52.392,2.75,105.037-8.952,151-33.611V318.435z"/>
	</g>
</g>
<g>
	<g>
		<path d="M266.607,167.82C255.76,156.974,241.339,151,226,151s-29.76,5.973-40.606,16.82c-5.858,5.858-5.858,15.355,0,21.213
			c5.857,5.858,15.355,5.858,21.213,0c5.18-5.18,12.068-8.033,19.394-8.033c7.326,0,14.213,2.853,19.394,8.033
			c5.856,5.858,15.353,5.858,21.212,0C272.465,183.175,272.465,173.678,266.607,167.82z"/>
	</g>
</g>
<g>
	<g>
		<path d="M227.128,265.54c-7.632-3.227-16.432,0.343-19.658,7.972C200.407,290.21,184.129,301,166,301
			c-18.129,0-34.407-10.79-41.47-27.489c-3.228-7.629-12.027-11.2-19.658-7.972c-7.63,3.227-11.199,12.029-7.972,19.658
			C108.669,313.022,135.792,331,166,331s57.332-17.979,69.1-45.802C238.327,277.568,234.758,268.767,227.128,265.54z"/>
	</g>
</g>
<g>
	<g>
		<path d="M446.606,245.394c-5.857-5.858-15.355-5.858-21.213,0c-5.18,5.18-12.068,8.033-19.394,8.033
			c-7.326,0-14.213-2.853-19.394-8.033c-5.857-5.858-15.354-5.858-21.213,0c-5.858,5.858-5.858,15.355,0,21.213
			c10.848,10.846,25.269,16.82,40.608,16.82s29.76-5.974,40.606-16.82C452.464,260.749,452.464,251.252,446.606,245.394z"/>
	</g>
</g>
<g>
	<g>
		<path d="M415.1,400.157c-11.768-27.824-38.891-45.802-69.1-45.802c-30.208,0-57.332,17.979-69.1,45.802
			c-3.227,7.63,0.342,16.431,7.972,19.658c7.633,3.228,16.432-0.342,19.658-7.972c7.063-16.699,23.341-27.489,41.47-27.489
			c18.129,0,34.407,10.79,41.47,27.489c3.228,7.632,12.03,11.198,19.658,7.972C414.758,416.588,418.327,407.787,415.1,400.157z"/>
	</g>
</g>
<g>
</g>
<g>
</g>
<g>
</g>
<g>
</g>
<g>
</g>
<g>
</g>
<g>
</g>
<g>
</g>
<g>
</g>
<g>
</g>
<g>
</g>
<g>
</g>
<g>
</g>
<g>
</g>
<g>
</g>
</svg>
