<svg fill="white" height="512" viewBox="0 0 60 60" width="512" xmlns="http://www.w3.org/2000/svg"><g id="014---Balalaika"><path id="Shape" d="m50.68.59c-.5048809-.49695626-1.2349862-.68974424-1.9193917-.50682506-.6844055.18291919-1.2209778.71424863-1.4106083 1.39682506-.2429406-.26259021-.6075172-.37562631-.9563973-.29652868-.3488801.07909762-.6290605.33831216-.735.68s-.0215433.71393847.2213973.97652868l.93.93-.26 1.15c-.38495-.36194258-.98505-.36194258-1.37 0-.1893127.1877666-.2957983.44336246-.2957983.71s.1064856.5222334.2957983.71l.84.84-.34 1.47-14.39 14.41-28.11 5.86c-1.43045823.3064999-2.57949022 1.369454-2.99622545 2.7717681-.41673523 1.402314-.03468958 2.9202689.99622545 3.9582319l23.17 23.18c1.037963 1.030915 2.5559179 1.4129607 3.9582319.9962255 1.4023141-.4167353 2.4652682-1.5657673 2.7717681-2.9962255l5.86-28.11 14.38-14.4 1.47-.32c.82.81 1 1.14 1.55 1.14.3947355-.000931.7519873-.233982.9119039-.5948749s.0925707-.782089-.1719039-1.0751251l1.15-.26.93.93c.2625902.2429406.6348408.3273368.9765287.2213973.3416878-.1059395.6009023-.3861199.68-.735.0790976-.3488801-.0339385-.7134567-.2965287-.9563973.6825764-.1896305 1.2139059-.7262028 1.3968251-1.4106083.1829191-.6844055-.0098688-1.41451076-.5068251-1.9193917zm-1.41 1.41 8.73 8.73-6.87 1.58-3.44-3.44zm-1.27 12.81-2.81-2.81 1.4-1.4 2.81 2.81zm-2.82 2.82-2.81-2.81 1.4-1.4 2.81 2.81zm-2.82 2.82-2.81-2.81 1.45-1.41 2.82 2.82zm-2.82 2.82-2.81-2.81 1.4-1.41 2.87 2.82zm-2.82 2.82-2.81-2.81 1.4-1.41 2.82 2.82zm-7.6 30.32c-.1565486.7090517-.6851057 1.2775524-1.3808953 1.4852508-.6957896.2076983-1.4494922.0219618-1.9691047-.4852508l-23.19-23.18c-.50721256-.5196125-.69294915-1.2733151-.48525077-1.9691047s.77619909-1.2243467 1.48525077-1.3808953c30.42-6.34 28.6-5.88 28.92-6.19l2.81 2.81c-.31.32.13-1.44-6.19 28.91z"/><path id="Shape" d="m14.18 40.19c-.1877666-.1893127-.4433625-.2957983-.71-.2957983s-.5222334.1064856-.71.2957983c-.3877236.3900375-.3877236 1.0199625 0 1.41l5.64 5.64c.3921222.3893607 1.0256392.3871221 1.415-.005.3893607-.3921222.3871221-1.0256392-.005-1.415z"/><path id="Shape" d="m29.67 31.73c-.12.13.06.06-.7-.7s-.83-.58-.7-.7c.1893127-.1877666.2957983-.4433625.2957983-.71s-.1064856-.5222334-.2957983-.71c-.3900375-.3877236-1.0199625-.3877236-1.41 0l-.49.48c-2.5335568-.8756208-5.3446759-.2274872-7.2390824 1.6690479-1.8944066 1.8965351-2.539383 4.7083802-1.6609176 7.2409521l-.48.48c-.2429406.2625902-.3273368.6348408-.2213973.9765287.1059395.3416878.3861199.6009024.735.68s.7134567-.0339385.9563973-.2965287c.3886604.5386472.8613528 1.0113396 1.4 1.4-.2902307.2353431-.4250424.6128613-.3495329.9788102.0755094.3659489.3487417.6592718.7084228.7605128.3596812.101241.7458002-.0064913 1.0011101-.279323l.48-.48c2.5325719.8784654 5.344417.233489 7.2409521-1.6609176 1.8965351-1.8944065 2.5446687-4.7055256 1.6690479-7.2390824l.48-.49c.3877236-.3900375.3877236-1.0199625 0-1.41-.1890965-.1879965-.4454436-.2926865-.7120832-.2908087-.2666396.0018777-.5214867.1101676-.7079168.3008087zm-5-.68-5.59 5.59c-.2332327-1.55155.2875286-3.1213018 1.4018951-4.2257892 1.1143665-1.1044873 2.6886932-1.6112501 4.2381049-1.3642108zm-4.83 7.66 6.9-6.9c.5568902.3667602 1.0332398.8431098 1.4 1.4l-6.9 6.9c-.5410015-.3694395-1.0004709-.8459263-1.35-1.4zm3.47 2.16 5.69-5.59c.2287033 1.5505899-.2935352 3.1175383-1.4067534 4.2208875-1.1132181 1.1033492-2.6847547 1.611614-4.2332466 1.3691125z"/><path id="Shape" d="m9.16 31.32-3.67.85c-.34833397.0803847-.62732307.3404973-.73187481.6823557-.10455175.3418584-.01878223.7135264.225.975.24378223.2614737.60854085.3730291.95687481.2926443l3.67-.85c.5522847-.1242641.8992641-.6727153.775-1.225s-.67271525-.8992641-1.225-.775z"/><path id="Shape" d="m12.81 32.53 2.29-.53c.348334-.0803848.627323-.3404973.7318748-.6823557.1045517-.3418584.0187822-.7135263-.225-.975s-.6085408-.3730291-.9568748-.2926443l-2.29.53c-.5384776.1242641-.874264.6615224-.75 1.2.1242641.5384776.6615224.874264 1.2.75z"/><path id="Shape" d="m24 14.07c.6633707 1.4540542 2.3502052 2.1327541 3.8357728 1.5433278 1.4855676-.5894262 2.2482181-2.2400044 1.7342272-3.7533278l-4.08-10.23c-.123357-.31449344-.3971591-.54544586-.7279463-.6140237-.3307872-.06857783-.6738375.03449056-.9120537.2740237-5 4.94-7.89 5.26-7.91 5.26-.3210205.01876395-.6134315.1907603-.7858172.46221827-.1723857.27145796-.203711.60925324-.0841828.90778173l3 7.6c-1.4758899.0857349-2.6693084 1.2338929-2.8120131 2.7053673-.1427048 1.4714743.8078505 2.8275566 2.2397624 3.1952925 1.4319119.3677358 2.9182673-.3625123 3.5022507-1.7206598.3055597-.736221.3055597-1.563779 0-2.3l-3.65-9.15c2.5635585-1.0111606 4.8892929-2.54348926 6.83-4.5l2.47 6.25c-.9598684.0484505-1.8384151.5538539-2.3628241 1.3592669-.5244089.805413-.6311868 1.8133194-.2871759 2.7107331zm-6.2 5.36c-.4127341-.1816745-.6528114-.6171142-.5861383-1.0631072s.4235992-.7921845.8714198-.8452116c.4478205-.0530271.8757283.200231 1.0447185.6183188.1524822.3772464.0611802.8092677-.2308984 1.0925621-.2920787.2832943-.7266859.3613653-1.0991016.1974379zm8.59-7.43c.4179868-.1716986.8991819-.0417519 1.1739163.3170159.2747344.3587679.2747344.8572003 0 1.2159682-.2747344.3587678-.7559295.4887145-1.1739163.3170159-.3751172-.1540888-.6200329-.5194679-.6200329-.925s.2449157-.7709112.6200329-.925z"/></g></svg>