<svg width="46" height="45" viewBox="0 0 46 45" fill="none" xmlns="http://www.w3.org/2000/svg">
<g filter="url(#filter0_d_2063_5281)">
<path d="M2.18164 22.3637L22.6362 15.6161L43.0907 22.3637V8.92947L22.6362 2.18188L2.18164 8.92947V22.3637Z" fill="white"/>
<path d="M2.18164 22.3637L22.6362 15.6161L43.0907 22.3637V8.92947L22.6362 2.18188L2.18164 8.92947V22.3637Z" fill="url(#paint0_linear_2063_5281)"/>
</g>
<g filter="url(#filter1_d_2063_5281)">
<path d="M2.18164 42.8181L22.6362 35.9819L43.0907 42.8181V29.2074L22.6362 22.3635L2.18164 29.2074V42.8181Z" fill="white"/>
<path d="M2.18164 42.8181L22.6362 35.9819L43.0907 42.8181V29.2074L22.6362 22.3635L2.18164 29.2074V42.8181Z" fill="url(#paint1_linear_2063_5281)"/>
</g>
<defs>
<filter id="filter0_d_2063_5281" x="0.181641" y="0.181885" width="44.9092" height="24.1819" filterUnits="userSpaceOnUse" color-interpolation-filters="sRGB">
<feFlood flood-opacity="0" result="BackgroundImageFix"/>
<feColorMatrix in="SourceAlpha" type="matrix" values="0 0 0 0 0 0 0 0 0 0 0 0 0 0 0 0 0 0 127 0" result="hardAlpha"/>
<feOffset/>
<feGaussianBlur stdDeviation="1"/>
<feComposite in2="hardAlpha" operator="out"/>
<feColorMatrix type="matrix" values="0 0 0 0 0.490196 0 0 0 0 1 0 0 0 0 0.882353 0 0 0 0.75 0"/>
<feBlend mode="normal" in2="BackgroundImageFix" result="effect1_dropShadow_2063_5281"/>
<feBlend mode="normal" in="SourceGraphic" in2="effect1_dropShadow_2063_5281" result="shape"/>
</filter>
<filter id="filter1_d_2063_5281" x="0.181641" y="20.3635" width="44.9092" height="24.4546" filterUnits="userSpaceOnUse" color-interpolation-filters="sRGB">
<feFlood flood-opacity="0" result="BackgroundImageFix"/>
<feColorMatrix in="SourceAlpha" type="matrix" values="0 0 0 0 0 0 0 0 0 0 0 0 0 0 0 0 0 0 127 0" result="hardAlpha"/>
<feOffset/>
<feGaussianBlur stdDeviation="1"/>
<feComposite in2="hardAlpha" operator="out"/>
<feColorMatrix type="matrix" values="0 0 0 0 0.490196 0 0 0 0 1 0 0 0 0 0.882353 0 0 0 0.75 0"/>
<feBlend mode="normal" in2="BackgroundImageFix" result="effect1_dropShadow_2063_5281"/>
<feBlend mode="normal" in="SourceGraphic" in2="effect1_dropShadow_2063_5281" result="shape"/>
</filter>
<linearGradient id="paint0_linear_2063_5281" x1="22.6362" y1="2.18188" x2="22.6362" y2="22.3637" gradientUnits="userSpaceOnUse">
<stop stop-color="#7DFFE1"/>
<stop offset="1" stop-color="#079085"/>
</linearGradient>
<linearGradient id="paint1_linear_2063_5281" x1="22.6362" y1="22.3635" x2="22.6362" y2="42.8181" gradientUnits="userSpaceOnUse">
<stop stop-color="#7DFFE1"/>
<stop offset="1" stop-color="#079085"/>
</linearGradient>
</defs>
</svg>
