<svg width="47" height="16" fill="none" xmlns="http://www.w3.org/2000/svg"><g style="mix-blend-mode:luminosity"><path d="M4.94 3.945h1.606l-.803-2.046-.803 2.046z" fill="#2FABF7"/><path d="M24.873 2.191c-.146-.073-.365-.073-.584-.073h-1.46v1.17h1.46c.22 0 .438 0 .584-.074.146-.073.22-.292.22-.511.072-.293-.074-.439-.22-.512z" fill="#228FE0"/><path d="M40.499 0v.877L40.06 0h-3.432v.877L36.19 0h-4.673c-.803 0-1.46.146-2.045.438V0h-3.285v.438C25.823.146 25.385 0 24.8 0H13.045l-.803 1.827L11.438 0H7.715v.877L7.277 0h-3.14l-1.46 3.434-1.68 3.8h3.724l.438-1.17h1.022l.438 1.17h4.235v-.878l.365.877h2.118l.365-.877v.877h10.15v-1.9h.145c.146 0 .146 0 .146.22V7.16H29.4v-.438c.438.219 1.096.438 1.972.438h2.19L34 5.991h1.023l.438 1.17h4.235V6.063l.657 1.096h3.431V0H40.5zm-24.68 6.137h-1.24V2.12l-1.753 4.018H11.73L9.978 2.12v4.018H7.496l-.512-1.096H4.502l-.438 1.17H2.677l2.19-5.188h1.825l2.045 4.895V1.023h1.971l1.607 3.507 1.46-3.507h2.044v5.114zm4.966-4.018h-2.848v.95h2.774v1.023h-2.774v1.022h2.848V6.21h-4.09V1.023h4.09v1.096zm5.476 2.119c.146.292.219.511.219.95V6.21h-1.242v-.657c0-.292 0-.73-.219-1.023-.219-.22-.438-.22-.876-.22H22.83v1.9h-1.241V1.023h2.774c.657 0 1.096 0 1.46.22.366.218.585.584.585 1.168 0 .804-.511 1.242-.877 1.388.366.073.585.293.73.439zm2.19 1.9H27.21V.95h1.241v5.187zm14.384 0h-1.752l-2.337-3.873v3.872h-2.482l-.438-1.096H33.27l-.438 1.17h-1.387c-.584 0-1.314-.147-1.753-.585-.438-.439-.657-1.023-.657-1.973 0-.73.146-1.461.657-2.046.366-.438 1.023-.584 1.826-.584h1.168v1.096h-1.168c-.438 0-.657.073-.95.292-.218.22-.365.658-.365 1.17 0 .584.073.949.366 1.241.219.22.51.292.876.292h.51l1.68-4.018h1.826l2.044 4.895V1.096h1.825l2.118 3.58v-3.58h1.241v5.041h.146z" fill="#0571C1"/><path d="M33.708 3.945h1.68L34.585 1.9l-.877 2.046zM21.296 14.465v-4.164l-1.899 2.046 1.899 2.118z" fill="#228FE0"/><path d="M13.483 10.812v.95h2.701v1.023h-2.701v1.096h2.993l1.388-1.535-1.315-1.534h-3.066z" fill="#2FABF7"/><path d="M24.07 10.812h-1.533v1.315h1.606c.438 0 .73-.219.73-.657-.073-.439-.365-.658-.803-.658z" fill="#228FE0"/><path d="M46.632 12.054V8.767h-3.066c-.658 0-1.169.146-1.534.438v-.438h-3.359c-.51 0-1.168.146-1.46.438v-.438h-5.914v.438c-.438-.365-1.241-.438-1.607-.438H25.75v.438c-.366-.365-1.242-.438-1.68-.438h-4.38l-1.023 1.096-.95-1.096h-6.57v7.16h6.425l1.022-1.096.95 1.096h3.942v-1.68h.511c.511 0 1.168 0 1.68-.22V16h3.285v-1.9h.146c.22 0 .22 0 .22.22V16h9.93c.657 0 1.314-.146 1.679-.439V16h3.14c.657 0 1.314-.073 1.752-.366.73-.438 1.168-1.242 1.168-2.191a2.8 2.8 0 0 0-.365-1.389zm-22.635 1.17h-1.46v1.753H20.2l-1.46-1.68-1.533 1.68h-4.82V9.789h4.893l1.46 1.68 1.533-1.68h3.87c.95 0 2.045.293 2.045 1.68-.073 1.462-1.096 1.754-2.19 1.754zm7.302-.293c.146.22.219.512.219.95v1.023h-1.242v-.658c0-.292 0-.803-.218-1.023-.146-.219-.439-.219-.877-.219h-1.314v1.9h-1.241V9.716H29.4c.585 0 1.096 0 1.46.22.366.219.658.584.658 1.169 0 .803-.511 1.242-.876 1.388.365.146.584.292.657.438zm5.038-2.119h-2.848v.95h2.775v1.023h-2.775v1.023h2.848v1.096h-4.089V9.716h4.089v1.096zm3.066 4.092h-2.336v-1.096h2.337c.219 0 .365 0 .51-.146a.558.558 0 0 0 .147-.366.558.558 0 0 0-.146-.365c-.073-.073-.22-.146-.438-.146-1.169-.073-2.556 0-2.556-1.607 0-.731.438-1.535 1.752-1.535h2.41v1.242h-2.264c-.219 0-.365 0-.51.074-.147.072-.147.219-.147.365 0 .219.146.292.292.365.146.073.292.073.438.073h.658c.657 0 1.095.146 1.387.438.219.22.365.585.365 1.097 0 1.095-.657 1.607-1.898 1.607zm6.28-.512c-.292.293-.803.512-1.533.512h-2.337v-1.096h2.337c.219 0 .365 0 .51-.146a.558.558 0 0 0 .147-.366.558.558 0 0 0-.146-.365c-.073-.073-.22-.146-.438-.146-1.169-.073-2.556 0-2.556-1.607 0-.731.438-1.535 1.752-1.535h2.41v1.242h-2.19c-.22 0-.366 0-.512.074-.146.072-.146.219-.146.365 0 .219.073.292.292.365.146.073.292.073.438.073h.658c.657 0 1.095.146 1.387.438.073 0 .073.074.073.074.219.292.292.657.292 1.023 0 .438-.146.803-.438 1.095z" fill="#0571C1"/><path d="M29.984 10.96c-.146-.073-.365-.073-.584-.073h-1.46v1.169h1.46c.22 0 .438 0 .584-.073.146-.073.22-.293.22-.512.072-.292-.074-.438-.22-.511zM24.873 2.192c-.146-.073-.365-.073-.584-.073h-1.46v1.169h1.46c.22 0 .438 0 .584-.073.146-.073.22-.293.22-.512.073-.292-.074-.438-.22-.511zM33.708 3.945h1.68L34.585 1.9l-.877 2.046zM21.296 14.465v-4.164l-1.899 2.046 1.899 2.118zM24.07 10.812h-1.533v1.315h1.606c.438 0 .73-.219.73-.657-.073-.439-.365-.658-.803-.658z" fill="#228FE0"/><path d="M29.984 10.96c-.146-.074-.365-.074-.584-.074h-1.46v1.17h1.46c.22 0 .438 0 .584-.074.146-.073.22-.292.22-.511.072-.293-.074-.439-.22-.512z" fill="#228FE0"/><path d="M23.56 14.76l-1.023-1.097v1.242h-2.41l-1.46-1.68-1.606 1.68h-4.82V9.791h4.893l1.533 1.68.73-.876-1.825-1.827h-6.426v7.16h6.426l1.095-1.096.95 1.096h3.942V14.76zM15.965 7.16l-.949-1.023h-.438V5.7l-1.095-1.096-.73 1.534H11.73L9.978 2.12v4.018H7.496l-.512-1.096H4.502L3.99 6.137H2.677l2.19-5.114h1.825l2.045 4.895V1.023h1.095L8.81 0H7.715v.877L7.35 0H4.137l-1.46 3.434L.997 7.16H4.794l.438-1.096h1.022l.511 1.096h4.09v-.877l.364.877h2.118l.365-.877v.877h2.263z" fill="#2FABF7"/><path d="M12.608 3.798l-1.17-1.169.877 1.9.293-.73z" fill="#2FABF7"/><path d="M45.829 15.561a2.673 2.673 0 0 0 1.168-1.972l-1.022-1.023c.073.219.146.438.146.73 0 .439-.146.804-.438 1.096-.292.293-.803.512-1.533.512h-2.337v-1.096h2.337c.218 0 .364 0 .51-.146a.558.558 0 0 0 .147-.366.558.558 0 0 0-.146-.365c-.074-.073-.22-.146-.439-.146-1.168-.073-2.555 0-2.555-1.607 0-.731.438-1.389 1.533-1.535l-.803-.803c-.146.073-.219.146-.292.146v-.439h-3.359c-.51 0-1.168.146-1.46.439v-.439h-5.987v.439c-.438-.366-1.242-.439-1.607-.439H25.75v.439c-.366-.366-1.242-.439-1.68-.439h-4.38l-1.023 1.096-.95-1.096h-.802l2.19 2.192L20.2 9.57h3.87c.95 0 2.044.292 2.044 1.68 0 1.462-1.022 1.754-2.117 1.754h-1.46V14.1l1.095 1.096V14.1h.365c.511 0 1.168 0 1.68-.22v1.974h3.285v-1.9h.146c.22 0 .22 0 .22.22v1.68h9.93c.656 0 1.314-.146 1.679-.439v.439h3.14c.584.073 1.24 0 1.752-.293zm-14.53-2.63c.146.22.219.512.219.95v1.023h-1.242v-.658c0-.292 0-.803-.219-1.023-.146-.219-.438-.219-.876-.219h-1.314v1.9h-1.241V9.716H29.4c.584 0 1.096 0 1.46.22.366.219.658.584.658 1.169 0 .803-.511 1.242-.877 1.388.366.146.585.292.658.438zm5.038-2.119h-2.848v.95h2.775v1.023h-2.775v1.023h2.848v1.096h-4.09V9.716h4.09v1.096zm3.066 4.092h-2.336v-1.096h2.336c.22 0 .366 0 .511-.146a.558.558 0 0 0 .147-.366.558.558 0 0 0-.147-.365c-.072-.073-.218-.146-.438-.146-1.168-.073-2.555 0-2.555-1.607 0-.731.438-1.535 1.752-1.535h2.41v1.242h-2.264c-.219 0-.365 0-.51.073-.147.073-.147.22-.147.366 0 .219.146.292.292.365.146.073.292.073.438.073h.657c.658 0 1.096.146 1.388.438.219.22.365.585.365 1.096 0 1.096-.657 1.608-1.899 1.608z" fill="#228FE0"/><path d="M42.908 11.325c0 .219.073.292.292.365.146.073.292.073.438.073h.658c.438 0 .73.073 1.022.22l-1.096-1.097h-.657c-.219 0-.365 0-.51.073a.558.558 0 0 0-.147.366zM40.353 6.94l.146.22h.073l-.22-.22zM36.337 2.921l1.242 2.996V4.163l-1.242-1.242z" fill="#228FE0"/><path d="M23.851 5.333h.146c.146 0 .146 0 .146.22V7.16H29.4V6.72c.438.22 1.096.439 1.972.439h2.19L34 5.99h1.023l.438 1.17h4.235v-.73l-1.023-1.024v.804h-2.482l-.365-1.169H33.27l-.438 1.169h-1.387c-.584 0-1.314-.146-1.753-.584-.438-.439-.657-1.023-.657-1.973 0-.73.146-1.461.657-2.046.366-.438 1.023-.584 1.826-.584h1.168v1.096h-1.168c-.438 0-.657.073-.95.292-.219.219-.365.657-.365 1.169 0 .584.073.95.366 1.242.219.219.51.292.876.292h.51l1.68-4.018h.73L33.343.073h-1.898c-.803 0-1.46.146-2.045.438V.073h-3.212V.51C25.823.22 25.384.073 24.8.073H13.045l-.803 1.826-.804-1.826H8.226l1.022 1.023h1.46l1.242 2.703.438.438 1.314-3.214h2.044V6.21h-1.24V2.192l-1.242 2.922 2.117 2.119h8.397l.073-1.9zm3.359-4.31h1.241V6.21H27.21V1.023zm-6.426 1.096h-2.847v.95h2.774V4.09h-2.774v1.023h2.847V6.21h-4.088V1.023h4.088v1.096zm2.045 4.018h-1.241V.95h2.774c.657 0 1.096 0 1.46.219.366.219.585.584.585 1.169 0 .803-.511 1.242-.877 1.388a.956.956 0 0 1 .585.438c.146.293.219.512.219.95v1.023h-1.242v-.658c0-.292 0-.73-.219-1.022-.073-.147-.292-.147-.73-.147H22.83v1.827z" fill="#228FE0"/></g></svg>