<svg xmlns="http://www.w3.org/2000/svg" viewBox="0 0 18 18"><path d="M16.3 7.7c-.3-2.5-2.4-4.3-4.8-4.3h-5C4.1 3.4 2 5.2 1.7 7.7c0 .3-.6 4.4-.6 4.6 0 1.3 1 2.3 2.2 2.3.9 0 1.6-.5 2-1.3l1.4-2.7h4.5l1.4 2.7c.4.8 1.2 1.3 2 1.3 1.2 0 2.2-1 2.2-2.3.1-.3-.5-4.4-.5-4.6zm-3.9-2.6c.4 0 .7.3.7.7 0 .4-.3.7-.7.7s-.7-.3-.7-.7c-.1-.4.3-.7.7-.7zM7.3 7.9H6.2V9H5.1V7.9H3.9V6.8H5V5.6h1.1v1.1h1.1v1.2zm3.6.2c-.4 0-.7-.3-.7-.7s.3-.7.7-.7c.4 0 .7.3.7.7 0 .3-.3.7-.7.7zm1.5 1.5c-.4 0-.7-.3-.7-.7 0-.4.3-.7.7-.7s.7.3.7.7c0 .3-.3.7-.7.7zm1.5-1.5c-.4 0-.7-.3-.7-.7s.3-.7.7-.7c.4 0 .7.3.7.7s-.3.7-.7.7z" fill="#fff"/></svg>