<svg width="91" height="14" fill="none" xmlns="http://www.w3.org/2000/svg"><path d="M76.365 9.38c-1.234 0-1.304-.846-1.093-2.256.212-1.27.67-2.328 2.116-2.328h1.129c.423 0 .529.247.458.565l-.846 4.02h-1.764zM71.959 14h4.09c2.574 0 3.632-.881 4.197-3.526l1.269-5.924c.176-.812-.212-1.517-1.199-1.517h-3.138c-2.822 0-3.738 1.376-4.303 3.809-.564 2.433.177 4.302 2.751 4.302h2.116c-.212.917-.811 1.093-1.763 1.093h-3.633L71.957 14zM65.575 11.108h2.362l1.164-5.325c.177-.846.74-1.022 1.446-1.022h.74c.741 0 1.446-.283 1.446-1.094 0-.211-.035-.493-.211-.775-.141.07-.459.105-.776.105h-1.622c-1.587 0-2.962.67-3.42 2.751l-1.13 5.36zM27.067 1.834c1.022 0 1.657-.53 1.657-1.164 0-.212-.035-.458-.141-.67 0 0-.282.106-1.023.106h-1.34c-1.763 0-3.068.705-3.561 2.927H21.53l-.353 1.622h1.2L21 11.143h2.363l1.41-6.488h1.764l.352-1.622h-1.834c.177-.917.741-1.164 1.411-1.164h.6v-.035zM59.121 11.109h3.21c1.163 0 1.727-.565 1.939-1.517l.846-4.267c.035-.14.035-.282.035-.423 0-1.093-.881-1.904-2.08-1.904h-4.866l-.318 1.693h4.232c.458 0 .705.176.705.529v.14l-.106.635h-3.244c-1.975 0-2.927.917-2.997 2.645-.036 1.658.846 2.469 2.644 2.469zm.6-1.728c-.459 0-.776-.282-.776-.74 0-.635.423-1.023 1.023-1.023h2.503l-.246 1.163c-.07.388-.353.6-.67.6H59.72zM46.567 11.108h2.363l1.375-6.312h1.587c1.375 0 1.622.388 1.305 1.763l-1.023 4.584h2.398l1.129-5.183c.388-1.728-.811-2.892-2.786-2.892h-2.222l.494-2.61h-2.398l-2.222 10.65zM41.7 11.108h3.351l.423-2.08h-2.75c-2.222 0-3.491-.495-3.033-3.35.388-2.434 1.41-3.175 3.844-3.175h1.763c1.058 0 1.728-.67 1.728-1.445 0-.247-.07-.494-.212-.776 0 0-.247.106-.952.106h-2.327c-3.809 0-5.784 1.551-6.348 5.113-.6 3.632 1.234 5.607 4.514 5.607zM29.782 6.17c.212-1.198.881-1.586 1.975-1.586.775 0 1.516.211 1.516.917 0 .458-.317.67-.6.67h-2.891zm-.035 4.938h4.478l.388-1.763h-3.879c-1.023 0-1.446-.283-1.375-.953l.035-.6h3.809c2.045 0 2.503-1.445 2.503-2.538 0-1.799-1.41-2.398-3.879-2.398-2.856 0-3.985.776-4.62 3.703-.634 2.82-.14 4.549 2.54 4.549zM85.04 6.17c.212-1.198.882-1.586 1.975-1.586.776 0 1.516.211 1.516.917 0 .458-.317.67-.599.67H85.04zm0 4.938h4.479l.388-1.763h-3.88c-1.022 0-1.445-.283-1.374-.953l.035-.6h3.808C90.542 7.793 91 6.348 91 5.255c0-1.799-1.41-2.398-3.88-2.398-2.855 0-3.984.776-4.619 3.703-.634 2.82-.14 4.549 2.54 4.549zM13.843 11.109h3.209c1.163 0 1.727-.565 1.94-1.517l.845-4.267c.036-.14.036-.282.036-.423 0-1.093-.882-1.904-2.08-1.904H12.96l-.317 1.693h4.231c.459 0 .706.176.706.529v.14l-.142.67H14.23c-1.974 0-2.926.918-2.997 2.646-.07 1.622.846 2.433 2.61 2.433zm.599-1.728c-.458 0-.776-.282-.776-.74 0-.635.423-1.023 1.023-1.023h2.504l-.247 1.163c-.07.388-.353.6-.67.6h-1.834zM.513 11.108h5.395c2.504 0 4.126-1.058 4.232-3.35.07-1.728-.74-3.068-2.857-3.068H5.238c-.81 0-1.128-.388-1.093-.952.035-.776.564-1.27 1.657-1.27H9.4c1.058 0 1.764-.67 1.764-1.516 0-.212-.036-.459-.142-.67 0 0-.282.106-1.022.106H5.838C3.44.388 1.782 1.55 1.677 3.702 1.57 5.782 2.84 6.735 4.568 6.735h1.834c.846 0 1.234.282 1.199.987-.07.917-.67 1.305-1.693 1.305H.936l-.423 2.08z" fill="#fff"/></svg>