<svg width="26" height="16" fill="none" xmlns="http://www.w3.org/2000/svg"><g style="mix-blend-mode:luminosity"><path d="M16.552 1.71h-7v12.578h7V1.711z" fill="#FF5A00"/><path d="M10.018 8a8.023 8.023 0 0 1 3.045-6.289A7.995 7.995 0 0 0 .128 8a7.995 7.995 0 0 0 12.935 6.289A7.984 7.984 0 0 1 10.018 8z" fill="#EB001B"/><path d="M25.997 8a7.995 7.995 0 0 1-12.934 6.289A7.957 7.957 0 0 0 16.107 8a8.023 8.023 0 0 0-3.044-6.289A7.944 7.944 0 0 1 17.995 0c4.424 0 8.002 3.601 8.002 8z" fill="#F79E1B"/></g></svg>