<svg width="61" height="14" fill="none" xmlns="http://www.w3.org/2000/svg"><g style="mix-blend-mode:luminosity" clip-path="url(#clip0_157_2217)"><path d="M15.694 8.239l-2.65 2.66a.58.58 0 0 0 0 .817l2.025 2.028c.345.341.91.341 1.255 0l6.209-6.127a.87.87 0 0 0 0-1.239L16.324.256a.898.898 0 0 0-1.255 0l-2.025 2.028a.58.58 0 0 0 0 .817l2.65 2.66a1.74 1.74 0 0 1 0 2.478z" fill="#0A6E5C"/><path d="M7.723 8.239l2.65 2.66a.58.58 0 0 1 0 .817l-2.026 2.028a.898.898 0 0 1-1.255 0L.884 7.617a.87.87 0 0 1 0-1.239L7.092.256a.898.898 0 0 1 1.255 0l2.026 2.028a.58.58 0 0 1 0 .817l-2.65 2.66a1.74 1.74 0 0 0 0 2.478z" fill="#21BF73"/><path d="M8.418 7.506a.716.716 0 0 1 0-1.012l2.784-2.784a.716.716 0 0 1 1.013 0l2.784 2.784c.28.28.28.733 0 1.012l-2.784 2.784a.716.716 0 0 1-1.013 0L8.418 7.506z" fill="#21BF73"/><path d="M34.665 11.2h-1.979l-1.09-2.854c-.089-.225-.225-.382-.409-.47-.175-.088-.4-.132-.671-.132h-1.211V11.2h-1.847V2.625h3.801c.992 0 1.743.217 2.255.65.511.434.767 1.056.767 1.867 0 .57-.152 1.06-.456 1.47-.295.409-.723.702-1.283.879.504.104.868.453 1.091 1.047l1.032 2.662zm-3.681-4.89c.535 0 .927-.088 1.175-.265.248-.184.371-.47.371-.855s-.123-.666-.371-.843c-.248-.184-.64-.277-1.175-.277H29.28v2.24h1.703zM41.919 5.094V11.2h-1.787v-.903a1.916 1.916 0 0 1-.779.735 2.409 2.409 0 0 1-1.14.265c-.527 0-.994-.129-1.402-.386a2.65 2.65 0 0 1-.947-1.096c-.224-.482-.336-1.036-.336-1.662 0-.626.112-1.184.336-1.674.232-.49.551-.867.959-1.132.408-.273.871-.41 1.39-.41.425 0 .804.093 1.14.277a2 2 0 0 1 .78.747v-.867h1.786zm-3.177 4.818c.447 0 .79-.153 1.03-.458.24-.305.36-.747.36-1.325s-.12-1.02-.36-1.325c-.24-.313-.583-.47-1.03-.47-.448 0-.796.161-1.044.482-.248.321-.371.767-.371 1.337s.12 1.008.36 1.313c.247.297.599.446 1.055.446zM50.815 4.938c.695 0 1.21.212 1.547.638.343.417.515 1.06.515 1.927V11.2h-1.81V7.563c0-.426-.069-.73-.204-.915-.136-.193-.36-.29-.672-.29-.367 0-.651.13-.851.386-.2.257-.3.618-.3 1.084V11.2h-1.81V7.563c0-.417-.072-.723-.216-.915-.136-.193-.356-.29-.66-.29-.368 0-.655.13-.863.386-.2.257-.3.618-.3 1.084V11.2h-1.81V6.84c0-.65-.032-1.232-.096-1.746h1.702l.108.915c.184-.345.44-.61.767-.795.336-.184.72-.277 1.151-.277.904 0 1.503.378 1.8 1.133.199-.346.475-.619.826-.82a2.3 2.3 0 0 1 1.175-.313zM58.022 4.938c.52 0 .984.136 1.392.409.407.265.723.642.947 1.132.232.49.347 1.048.347 1.674 0 .626-.111 1.18-.335 1.662a2.54 2.54 0 0 1-.947 1.096 2.576 2.576 0 0 1-1.404.386c-.423 0-.803-.089-1.138-.265a1.836 1.836 0 0 1-.768-.735V14h-1.81V6.84c0-.65-.032-1.232-.096-1.746h1.702l.12 1.012c.16-.362.416-.647.768-.855.36-.21.767-.314 1.222-.314zm-.515 4.974c.448 0 .791-.149 1.031-.446.24-.305.36-.743.36-1.313s-.124-1.016-.372-1.337c-.24-.32-.58-.481-1.019-.481-.447 0-.795.156-1.043.47-.24.304-.36.746-.36 1.324 0 .578.12 1.02.36 1.325.248.305.596.458 1.043.458z" fill="#fff"/></g><defs><clipPath id="clip0_157_2217"><path fill="#fff" transform="translate(.625)" d="M0 0h60.375v14H0z"/></clipPath></defs></svg>