<svg width="52" height="16" fill="none" xmlns="http://www.w3.org/2000/svg"><g style="mix-blend-mode:luminosity"><path d="M20.899 0l-2.566 15.968h4.101L25 0h-4.1zM33.27 6.504c-1.433-.707-2.312-1.185-2.312-1.909.018-.658.743-1.332 2.363-1.332a7.137 7.137 0 0 1 3.055.59l.372.167.558-3.341a10.352 10.352 0 0 0-3.681-.658c-4.05 0-6.902 2.106-6.92 5.117-.034 2.223 2.042 3.456 3.595 4.196 1.586.76 2.126 1.251 2.126 1.925-.017 1.036-1.282 1.514-2.463 1.514-1.636 0-2.515-.246-3.849-.823l-.54-.246L25 15.175c.964.429 2.736.806 4.575.825 4.304 0 7.105-2.074 7.14-5.284.014-1.76-1.08-3.11-3.445-4.212zM47.82.05h-3.172c-.978 0-1.721.282-2.145 1.285l-6.092 14.634h4.304l1.186-3.168h4.816l.615 3.18h3.796L47.821.05zm-4.725 9.553c.083.008 1.652-5.172 1.652-5.172l1.25 5.172h-2.902zM14.905 0l-4.018 10.849-.438-2.14c-.742-2.468-3.072-5.15-5.672-6.483l3.68 13.726h4.34L19.245.002h-4.34V0z" fill="#2394BC"/><path d="M9.098 2.06C8.784.842 7.786.02 6.429.003H.066L0 .3c4.964 1.224 9.131 4.99 10.483 8.532L9.098 2.06z" fill="#EFC75E"/></g></svg>