<svg width="16" height="16" fill="none" xmlns="http://www.w3.org/2000/svg"><g style="mix-blend-mode:luminosity"><path d="M8 15.25A7.25 7.25 0 1 0 8 .75a7.25 7.25 0 0 0 0 14.5z" fill="#FFE477"/><path d="M8 14.25a6.25 6.25 0 1 0 0-12.5 6.25 6.25 0 0 0 0 12.5z" fill="#FFDA44"/><path d="M8.036.75c.081.33.139.666.173 1.004A6.25 6.25 0 1 1 1.98 9.682 7.338 7.338 0 0 1 1 9.75H.964a7.25 7.25 0 1 0 7.072-9z" fill="#FFDE55"/><path d="M8 14.25a6.25 6.25 0 0 0 .209-12.495c.026.248.04.496.041.745a7.25 7.25 0 0 1-6.269 7.182A6.25 6.25 0 0 0 8 14.25z" fill="#FFCD00"/><path d="M8 5.172l1.944 1.944 1.061-1.06L8 3.05 4.995 6.056l1.06 1.06L8 5.172zM8 10.829L6.056 8.884l-1.061 1.06L8 12.95l3.005-3.005-1.06-1.06L8 10.828z" fill="#F1F2F2"/><path d="M6.938 8l1.06-1.06L9.06 8l-1.06 1.06L6.937 8zM10.826 8l1.061-1.06L12.947 8l-1.06 1.061-1.06-1.06zM3.05 8l1.06-1.061 1.06 1.06L4.11 9.06 3.05 8z" fill="#F1F2F2"/></g></svg>