<svg version="1.1" id="Слой_1" xmlns="http://www.w3.org/2000/svg" xmlns:xlink="http://www.w3.org/1999/xlink" x="0" y="0" viewBox="0 0 14 14" xml:space="preserve"><style>.st1{fill:#fff}</style><defs><path id="SVGID_1_" d="M1.7 1.7h10.5v10.5H1.7z"/></defs><clipPath id="SVGID_00000087372072005528827030000000715377760952854673_"><use xlink:href="#SVGID_1_" overflow="visible"/></clipPath><g clip-path="url(#SVGID_00000087372072005528827030000000715377760952854673_)"><path class="st1" d="M12 2H4.4c-.2 0-.3.2-.3.3v8.8c0 .3-.1.6-.3.9h7c.8 0 1.5-.7 1.5-1.5V2.3c0-.1-.2-.3-.3-.3zm-1.8 7.6H6.1c-.1 0-.3-.1-.3-.3 0-.2.1-.3.3-.3h4.1c.2 0 .3.1.3.3 0 .2-.1.3-.3.3zm0-1.7H6.1c-.1 0-.3-.1-.3-.3s.2-.3.3-.3h4.1c.2 0 .3.1.3.3s-.1.3-.3.3zm0-1.8H6.1c-.1 0-.3-.1-.3-.3 0-.2.1-.3.3-.3h4.1c.2 0 .3.1.3.3 0 .2-.1.3-.3.3zm0-1.7H6.1c-.1 0-.3-.1-.3-.3 0-.2.1-.3.3-.3h4.1c.2 0 .3.1.3.3 0 .2-.1.3-.3.3zM3.2 3.2H2c-.2 0-.3.1-.3.3v7.6c0 .5.4.9.9.9s.9-.4.9-.9V3.5c0-.2-.1-.3-.3-.3z"/></g></svg>