<svg version="1.1" id="Слой_1" xmlns="http://www.w3.org/2000/svg" x="0" y="0" viewBox="0 0 16 16" xml:space="preserve"><style>.st0{fill:#fff}</style><path class="st0" d="M6.3 2.4C5.7 4 5.6 5.5 3.9 6.6l-1.6 1c-.8.5-1.1 2-.3 3.3.4.8 1.1 1.3 1.7 1.4.6.2 1 .3 1.5.8l1.1 1.2c.2.2.6.3.8.1l1-.6c.3-.2.3-.5.2-.7l-1.2-2c.9-.5 3.2 0 4.3.2.5.1.9-.5.6-1L7.5 2.5c-.3-.6-1-.6-1.2-.1zM9.6 3.7c-.4.2-.4.8 0 1 .9.6 1.5 1.6 1.6 2.7 0 .3.3.6.6.6s.6-.3.6-.6c0-1.5-.8-2.9-2.1-3.7-.3-.1-.5-.2-.7 0z"/><path class="st0" d="M10.2 1.6c-.4.3-.3.8.1 1 .9.4 1.7 1.2 2.3 2.1.6 1 .8 2.1.7 3 0 .3.2.6.5.6s.6-.2.6-.5c.1-1.2-.2-2.6-.9-3.7-.6-1.1-1.6-2.1-2.7-2.6-.2 0-.4 0-.6.1z"/></svg>