<svg width="16" height="16" fill="none" xmlns="http://www.w3.org/2000/svg"><g style="mix-blend-mode:luminosity" clip-path="url(#clip0_152_1764)"><path d="M15.76 9.935A7.998 7.998 0 1 1 .24 6.065a7.998 7.998 0 0 1 15.52 3.87z" fill="#F7931A"/><path d="M5.369 9.347c-.044.108-.154.27-.403.209.01.013-.638-.16-.638-.16l-.435 1.005 1.142.285c.212.053.42.11.626.162l-.364 1.458.877.219.36-1.443c.24.065.472.125.7.181l-.36 1.437.879.218.363-1.455c1.497.283 2.622.169 3.096-1.185.382-1.09-.02-1.719-.807-2.129.574-.132 1.006-.51 1.121-1.289.16-1.064-.651-1.636-1.76-2.018l.36-1.442-.878-.219-.35 1.404c-.23-.057-.468-.112-.703-.165l.352-1.414-.877-.218-.36 1.441a29.382 29.382 0 0 1-.56-.132l.001-.004-1.21-.302-.234.937s.651.15.637.159c.356.088.42.324.41.51l-.985 3.95zm4.151.326c-.27 1.09-2.106.5-2.701.353l.482-1.933c.595.149 2.503.443 2.22 1.58zm.272-2.828c-.248.991-1.775.487-2.27.364l.437-1.753c.495.124 2.09.354 1.833 1.389z" fill="#fff"/></g><defs><clipPath id="clip0_152_1764"><path fill="#fff" d="M0 0h16v16H0z"/></clipPath></defs></svg>