<svg width="41" height="14" fill="none" xmlns="http://www.w3.org/2000/svg"><g clip-path="url(#clip0_157_2261)"><path fill-rule="evenodd" clip-rule="evenodd" d="M29.493 3.438a1.67 1.67 0 1 0 .001-3.34 1.67 1.67 0 0 0 0 3.34zm-12.795.901c-.075.19-.618 1.722-1.93 3.31V.859l-3.497.69V13.86h3.497v-3.805c1.013 1.518 1.513 3.805 1.513 3.805h4.188c-.415-1.722-2.227-4.898-2.227-4.898a15.34 15.34 0 0 0 2.454-4.623h-3.998zm9.192-.128c-3.132.1-4.721 1.505-4.721 4.298v5.351h3.416V9.497c0-1.673.22-2.39 2.204-2.458v-2.78c-.334-.07-.899-.048-.899-.048zM5.408 5.695c-.429-.028-1.42-.092-1.42-.985 0-1.077 1.427-1.077 1.963-1.077.941 0 2.16.278 3.031.539 0 0 .486.17.9.346l.038.01v-2.95l-.053-.015C8.839 1.203 7.644.858 5.429.858 1.61.858.256 3.083.256 4.989c0 1.099.471 3.685 4.846 3.983.37.023 1.355.08 1.355 1.002 0 .762-.806 1.21-2.161 1.21-1.485 0-2.926-.378-3.8-.737v3.038c1.309.343 2.786.515 4.516.515 3.735 0 5.407-2.105 5.407-4.192 0-2.366-1.871-3.903-5.011-4.113zM27.8 13.86h3.388V4.35H27.8v9.51zm9.77-12.396V13.86h3.389V.858l-3.39.606zm-4.946 0L36.01.858V13.86h-3.386V1.464z" fill="#fff"/></g><defs><clipPath id="clip0_157_2261"><path fill="#fff" transform="translate(.256)" d="M0 0h40.744v14H0z"/></clipPath></defs></svg>