<svg width="20" height="20" fill="none" xmlns="http://www.w3.org/2000/svg"><path d="M10.001.4C7.392.4 7.065.41 6.04.458 5.017.505 4.32.667 3.708.904A4.704 4.704 0 0 0 2.006 2.01a4.712 4.712 0 0 0-1.108 1.7c-.238.61-.4 1.309-.447 2.33C.406 7.065.394 7.393.394 10s.011 2.933.058 3.957c.047 1.022.209 1.72.446 2.33a4.704 4.704 0 0 0 1.108 1.7c.534.535 1.07.864 1.701 1.109.611.237 1.31.4 2.332.446 1.025.046 1.352.058 3.96.058 2.61 0 2.937-.012 3.961-.058 1.023-.047 1.722-.209 2.333-.446a4.701 4.701 0 0 0 1.7-1.108 4.712 4.712 0 0 0 1.11-1.7c.236-.611.398-1.309.446-2.33.046-1.024.058-1.35.058-3.958 0-2.607-.012-2.934-.058-3.958-.048-1.022-.21-1.72-.447-2.33a4.711 4.711 0 0 0-1.108-1.701A4.696 4.696 0 0 0 16.293.904c-.613-.237-1.311-.4-2.334-.446C12.934.41 12.608.4 9.999.4H10zM9.14 2.13h.862c2.565 0 2.87.01 3.882.055.937.043 1.445.2 1.784.33.448.175.768.383 1.104.719.336.336.544.656.719 1.104.131.338.288.846.33 1.782.046 1.012.056 1.316.056 3.878 0 2.562-.01 2.866-.056 3.878-.042.936-.199 1.444-.33 1.782a2.968 2.968 0 0 1-.72 1.103 2.971 2.971 0 0 1-1.103.718c-.338.131-.847.288-1.784.33-1.013.046-1.317.056-3.882.056-2.565 0-2.87-.01-3.882-.056-.936-.043-1.445-.2-1.784-.33a2.976 2.976 0 0 1-1.104-.719 2.975 2.975 0 0 1-.72-1.103c-.13-.338-.288-.846-.33-1.782-.046-1.012-.055-1.316-.055-3.88 0-2.563.009-2.866.055-3.878.043-.936.2-1.444.33-1.782.175-.448.383-.768.72-1.104a2.982 2.982 0 0 1 1.104-.718c.339-.132.848-.288 1.784-.331.886-.04 1.23-.052 3.02-.054v.002zm5.99 1.594a1.152 1.152 0 1 0-.001 2.304 1.152 1.152 0 0 0 .001-2.304zM10.001 5.07A4.932 4.932 0 0 0 5.068 10 4.931 4.931 0 0 0 10 14.929a4.93 4.93 0 1 0 0-9.86zm0 1.73A3.201 3.201 0 1 1 6.8 10c0-1.768 1.433-3.2 3.202-3.2z" fill="#3E4757"/></svg>