<svg width="16" height="17" fill="none" xmlns="http://www.w3.org/2000/svg"><path fill-rule="evenodd" clip-rule="evenodd" d="M6.462.5a2.359 2.359 0 0 0-2.36 2.359v.718H1.847A1.846 1.846 0 0 0 0 5.423V8.5a.82.82 0 0 0 .82.82H2.36a.718.718 0 1 1 0 1.436H.821a.82.82 0 0 0-.821.82v3.078A1.846 1.846 0 0 0 1.846 16.5h3.077a.82.82 0 0 0 .82-.82v-1.54a.718.718 0 0 1 1.436 0v1.54A.82.82 0 0 0 8 16.5h3.077a1.846 1.846 0 0 0 1.846-1.846v-2.257h.718a2.359 2.359 0 1 0 0-4.718h-.718V5.423a1.846 1.846 0 0 0-1.846-1.846H8.82v-.718A2.359 2.359 0 0 0 6.46.499zM5.954 2.35a.718.718 0 0 1 1.225.508v1.538a.82.82 0 0 0 .821.82h3.077a.205.205 0 0 1 .205.206V8.5a.82.82 0 0 0 .82.82h1.539a.718.718 0 0 1 0 1.436h-1.538a.82.82 0 0 0-.82.82v3.078a.205.205 0 0 1-.206.205H8.82v-.718a2.359 2.359 0 1 0-4.718 0v.718H1.846a.205.205 0 0 1-.205-.205v-2.257h.718a2.359 2.359 0 1 0 0-4.718h-.718V5.423a.205.205 0 0 1 .205-.205h3.077a.82.82 0 0 0 .82-.82v-1.54c0-.19.076-.372.21-.507z" fill="#30CBFF"/></svg>