<svg xmlns="http://www.w3.org/2000/svg" viewBox="0 0 27 18"><path d="M24.6 3.2c-3.6-5.9-8.9-1.8-8.9-1.8-.3.3-1 .5-1.4.5h-1.4c-.4 0-1.1-.2-1.4-.5 0 0-5.4-4.1-8.9 1.8C-1 9.1.5 15.5.5 15.5c.3 1.6 1.1 2.6 2.6 2.5 1.6-.1 5-4.2 5-4.2.3-.3.9-.6 1.3-.6H18c.4 0 1 .3 1.3.6 0 0 3.4 4.1 5 4.2 1.6.1 2.4-.9 2.6-2.5-.2 0 1.3-6.4-2.3-12.3zM10.3 8H8.4v1.8s-.4.3-1 .3-.9-.3-.9-.3V8H4.8s-.2-.2-.3-.8c0-.6.2-1.1.2-1.1h1.9V4.2S7 4 7.5 4s.9.2.9.2V6h1.7s.3.4.3.9c.2.5-.1 1.1-.1 1.1zm8.4 2c-.8 0-1.5-.7-1.5-1.5S17.9 7 18.7 7s1.5.7 1.5 1.5c0 .9-.7 1.5-1.5 1.5zm0-4c-.8 0-1.5-.7-1.5-1.5S17.9 3 18.7 3s1.5.7 1.5 1.5S19.5 6 18.7 6zm3.7 2.2c-.8 0-1.5-.7-1.5-1.5s.7-1.5 1.5-1.5 1.5.7 1.5 1.5-.7 1.5-1.5 1.5z" fill="#fff"/></svg>