<svg version="1.1" id="Слой_1" xmlns="http://www.w3.org/2000/svg" x="0" y="0" viewBox="0 0 18 17" xml:space="preserve"><style>.st0{fill:#fff;fill-opacity:.7}</style><path class="st0" d="M17.5 0h-13c-.3 0-.5.2-.5.5v15c0 .5-.2 1.1-.5 1.5h12c1.4 0 2.5-1.1 2.5-2.5V.5c0-.3-.2-.5-.5-.5zm-3 13h-7c-.3 0-.5-.2-.5-.5s.2-.5.5-.5h7c.3 0 .5.2.5.5s-.2.5-.5.5zm0-3h-7c-.3 0-.5-.2-.5-.5s.2-.5.5-.5h7c.3 0 .5.2.5.5s-.2.5-.5.5zm0-3h-7c-.3 0-.5-.2-.5-.5s.2-.5.5-.5h7c.3 0 .5.2.5.5s-.2.5-.5.5zm0-3h-7c-.3 0-.5-.2-.5-.5s.2-.5.5-.5h7c.3 0 .5.2.5.5s-.2.5-.5.5zM2.5 2h-2c-.3 0-.5.2-.5.5v13c0 .8.7 1.5 1.5 1.5S3 16.3 3 15.5v-13c0-.3-.2-.5-.5-.5z"/></svg>