<svg version="1.1" id="Слой_1" xmlns="http://www.w3.org/2000/svg" x="0" y="0" viewBox="0 0 21 18" xml:space="preserve"><style>.st0{fill:#fff;fill-opacity:.7}</style><path class="st0" d="M16.7 13.5H8.8c-1.1 0-2.1-.8-2.4-1.9L3.7 2.4c-.1-.4-.4-.6-.7-.6H.9c-.5 0-.9-.4-.9-.9S.4 0 .9 0H3c1.1 0 2.1.8 2.4 1.9l.5 1.7h13.4c.5 0 1.1.3 1.4.7.3.4.4 1 .3 1.5l-1.8 5.9c-.4 1.1-1.4 1.8-2.5 1.8zm2.6-8.1zM9.6 18c-1 0-1.7-.8-1.7-1.8s.8-1.8 1.7-1.8 1.7.8 1.7 1.8c.1 1-.7 1.8-1.7 1.8zm0-1.8zM15.7 18c-1 0-1.8-.8-1.8-1.8s.8-1.8 1.8-1.8 1.7.8 1.7 1.8c.1 1-.7 1.8-1.7 1.8zm0-1.8z"/></svg>