<svg width="32" height="32" fill="none" xmlns="http://www.w3.org/2000/svg"><path fill-rule="evenodd" clip-rule="evenodd" d="M19.86 3.79a1 1 0 0 1 0 2h-9.69c-3.345 0-5.506 2.298-5.506 5.858v10.776c0 3.607 2.11 5.847 5.505 5.847h11.472c3.344 0 5.506-2.295 5.506-5.847V13.04a1 1 0 0 1 2 0v9.385c0 4.693-3.016 7.847-7.506 7.847H10.17c-4.489 0-7.505-3.154-7.505-7.847V11.648c0-4.7 3.016-7.859 7.505-7.859h9.691zm2.82 9.106a.999.999 0 0 1 .18 1.402l-3.907 5.04a.994.994 0 0 1-.667.38.989.989 0 0 1-.741-.205l-3.758-2.952-3.374 4.386a1 1 0 1 1-1.586-1.22l3.99-5.186a1 1 0 0 1 1.412-.176l3.76 2.954 3.289-4.244a.995.995 0 0 1 1.403-.18zm3.94-10.23a3.566 3.566 0 0 1 3.563 3.563 3.567 3.567 0 0 1-3.562 3.564 3.568 3.568 0 0 1-3.563-3.564 3.566 3.566 0 0 1 3.563-3.562zm0 2a1.564 1.564 0 0 0 0 3.127 1.564 1.564 0 0 0 0-3.127z" fill="#30CBFF"/></svg>