<svg width="56" height="56" fill="none" xmlns="http://www.w3.org/2000/svg"><g clip-path="url(#clip0_596_5172)"><path d="M34.706 44.857l-1.138-1.326H22.496l-1.2 1.326-2.205 2.557h17.82l-2.205-2.557z" fill="#EFEDEF"/><path d="M28.414 43.531h-5.918l-1.2 1.326-2.205 2.557h5.918l2.206-2.557 1.2-1.326z" fill="#E5E1E5"/><path d="M21.296 36.111h13.41v8.746h-13.41v-8.746z" fill="#C9BFC8"/><path d="M34.706 36.111h-13.41v8.746h5.902v-.294c0-.847.688-1.535 1.535-1.535h5.973v-6.917z" fill="#BAAFB9"/><path d="M45.851 39.507l1.492-1.569V17.31a3.137 3.137 0 0 0-3.137-3.138h-32.41a3.137 3.137 0 0 0-3.138 3.138v20.628l2.724 1.57h34.47z" fill="#99E6FC"/><path d="M21.671 37.938V17.31a3.137 3.137 0 0 1 3.137-3.138H11.796a3.137 3.137 0 0 0-3.138 3.138v20.628l2.724 1.57h10.71a3.123 3.123 0 0 1-.421-1.57z" fill="#62DBFB"/><path d="M8.658 37.938h38.685a3.138 3.138 0 0 1-3.137 3.138h-32.41a3.138 3.138 0 0 1-3.138-3.138z" fill="#EFEDEF"/><path d="M21.671 37.938H8.658a3.138 3.138 0 0 0 3.138 3.138h13.012a3.138 3.138 0 0 1-3.137-3.138z" fill="#E5E1E5"/><path d="M37.485 25.772h-2.05a.527.527 0 0 1-.528-.527V18.35a.527.527 0 0 1 .528-.527h2.05a.527.527 0 0 1 .527.527v6.894a.527.527 0 0 1-.527.528z" fill="#EB5569"/><path d="M30.579 23.276h-2.05A.528.528 0 0 1 28 22.75v-10.72a.527.527 0 0 1 .527-.528h2.05a.527.527 0 0 1 .528.527v10.72a.527.527 0 0 1-.527.528z" fill="#6CF5C2"/><path d="M23.672 24.435h-2.05a.527.527 0 0 1-.527-.527v-6.895a.528.528 0 0 1 .527-.527h2.05a.527.527 0 0 1 .528.527v6.894a.528.528 0 0 1-.528.528z" fill="#EB5569"/><path d="M16.765 27.624h-2.05a.527.527 0 0 1-.527-.527v-6.895a.528.528 0 0 1 .527-.527h2.05a.528.528 0 0 1 .527.527v6.895a.528.528 0 0 1-.527.527z" fill="#6CF5C2"/><path d="M44.206 13.586h-7.16v-2.35a.586.586 0 1 0-1.172 0v2.35h-2.426a.586.586 0 1 0 0 1.171h2.426v2.48h-.44c-.613 0-1.113.5-1.113 1.113v6.894c0 .614.5 1.113 1.114 1.113h.439v4.646a.586.586 0 1 0 1.171 0v-4.646h.44c.613 0 1.113-.499 1.113-1.113V18.35c0-.614-.5-1.113-1.113-1.113h-.44v-2.48h7.16a2.555 2.555 0 0 1 2.553 2.553v20.043H9.243V17.309a2.555 2.555 0 0 1 2.553-2.552H22.06V15.9h-.44c-.613 0-1.112.5-1.112 1.113v6.895c0 .613.499 1.113 1.113 1.113h.44v5.174a.586.586 0 1 0 1.17 0v-5.174h.44c.614 0 1.113-.5 1.113-1.113v-6.895c0-.613-.5-1.113-1.113-1.113h-.44v-1.143h2.426a.586.586 0 0 0 0-1.17h-2.426v-.29a.586.586 0 0 0-1.17 0v.29H11.794a3.727 3.727 0 0 0-3.723 3.723v20.628a3.727 3.727 0 0 0 3.724 3.724h8.914v2.977l-1.887 2.19h-.75a.586.586 0 1 0 0 1.171h19.8a.586.586 0 1 0 0-1.171h-.694l-1.888-2.19v-2.977h8.915a3.727 3.727 0 0 0 3.723-3.724V17.31a3.728 3.728 0 0 0-3.723-3.723zm-6.78 11.6h-1.933V18.41h1.934v6.777zM23.614 23.85H21.68v-6.777h1.934v6.777zM44.206 40.49H32.354a.586.586 0 1 0 0 1.172h1.766v2.61H32.66a.586.586 0 1 0 0 1.17h1.776l1.195 1.387H20.37l1.195-1.386h1.776a.586.586 0 0 0 0-1.172h-1.459v-2.61h7.977a.586.586 0 1 0 0-1.17H11.795a2.556 2.556 0 0 1-2.483-1.967H46.69a2.556 2.556 0 0 1-2.483 1.966z" fill="#000"/><path d="M14.187 25.097a.586.586 0 0 0-.585.586v1.413c0 .614.5 1.113 1.113 1.113h.44v3.12a.586.586 0 0 0 1.17 0v-3.12h.44c.614 0 1.113-.499 1.113-1.113v-6.894c0-.613-.5-1.113-1.113-1.113h-.44v-.936a.585.585 0 1 0-1.17 0v.936h-.44c-.614 0-1.113.5-1.113 1.113v2.985a.586.586 0 0 0 1.171 0v-2.926h1.934v6.777h-1.934v-1.355a.585.585 0 0 0-.586-.586zm14.34-1.235h.44v3.118a.586.586 0 1 0 1.171 0v-3.118h.44c.614 0 1.113-.5 1.113-1.113v-4.594a.586.586 0 1 0-1.171 0v4.535h-1.934V12.088h1.934v3.573a.586.586 0 1 0 1.17 0v-3.632c0-.613-.498-1.113-1.112-1.113h-.44v-2.33a.586.586 0 1 0-1.17 0v2.33h-.44c-.614 0-1.113.5-1.113 1.113v10.72c0 .614.499 1.114 1.113 1.114zm11.312.193a.584.584 0 0 0 .793.238l2.698-1.455-.194.51a.587.587 0 0 0 .786.742.585.585 0 0 0 .308-.326l.66-1.73a.585.585 0 0 0-.34-.756l-1.836-.7a.586.586 0 0 0-.417 1.095l.426.162-2.647 1.427a.586.586 0 0 0-.237.793zM11.535 35.498a.586.586 0 0 0 .768.308l7.557-3.235.687 1.8a.585.585 0 0 0 .825.306l12.484-6.73a.586.586 0 1 0-.556-1.032L21.403 33.33l-.666-1.746a.585.585 0 0 0-.778-.33l-8.117 3.475a.586.586 0 0 0-.308.769z" fill="#000"/></g><defs><clipPath id="clip0_596_5172"><path fill="#fff" transform="translate(8 8)" d="M0 0h40v40H0z"/></clipPath></defs></svg>