<svg width="56" height="56" fill="none" xmlns="http://www.w3.org/2000/svg"><g clip-path="url(#clip0_596_5158)"><path d="M10.791 34.998v-1.406" stroke="#000" stroke-width="1.172" stroke-miterlimit="10" stroke-linecap="round" stroke-linejoin="round"/><path d="M12.014 33.592h-2.68a.748.748 0 0 1-.748-.748v-5.539c0-.413.335-.748.748-.748h2.68c.414 0 .749.335.749.748v5.54a.748.748 0 0 1-.749.747z" fill="#6CE79A"/><path d="M12.249 26.557h-1.634c.413 0 .749.335.749.748v5.54a.748.748 0 0 1-.749.748h1.634a.748.748 0 0 0 .748-.749v-5.539a.749.749 0 0 0-.748-.748z" fill="#00D8A2"/><path d="M38.325 37.358v-3.766m-26.076 0H9.334a.748.748 0 0 1-.748-.748v-5.539c0-.413.335-.748.748-.748h2.915c.413 0 .748.335.748.748v5.54a.748.748 0 0 1-.748.747z" stroke="#000" stroke-width="1.172" stroke-miterlimit="10" stroke-linecap="round" stroke-linejoin="round"/><path d="M39.548 33.593h-2.68a.748.748 0 0 1-.748-.749v-6.32c0-.413.335-.748.748-.748h2.68c.414 0 .749.335.749.748v6.32a.749.749 0 0 1-.749.748z" fill="#FF6470"/><path d="M39.782 25.776h-1.634c.414 0 .749.335.749.748v6.32a.748.748 0 0 1-.749.748h1.634a.748.748 0 0 0 .748-.748v-6.32a.749.749 0 0 0-.748-.748z" fill="#FF4555"/><path d="M40.531 28.52v-1.996a.748.748 0 0 0-.748-.748h-2.915a.748.748 0 0 0-.748.748v6.32c0 .413.335.748.748.748h2.915a.748.748 0 0 0 .748-.748v-2.058m4.678 6.572v-3.766" stroke="#000" stroke-width="1.172" stroke-miterlimit="10" stroke-linecap="round" stroke-linejoin="round"/><path d="M46.43 33.592h-2.68a.748.748 0 0 1-.748-.748v-2.442c0-.414.335-.749.748-.749h2.68c.413 0 .749.335.749.749v2.442a.748.748 0 0 1-.749.748z" fill="#6CE79A"/><path d="M46.666 29.654h-1.634c.414 0 .749.335.749.748v2.442a.748.748 0 0 1-.749.748h1.634a.748.748 0 0 0 .748-.748v-2.442a.748.748 0 0 0-.748-.748z" fill="#00D8A2"/><path d="M45.208 29.653V27m1.457 6.593H43.75a.748.748 0 0 1-.748-.748v-2.442c0-.414.335-.749.748-.749h2.915c.413 0 .748.335.748.749v2.442a.748.748 0 0 1-.748.748z" stroke="#000" stroke-width="1.172" stroke-miterlimit="10" stroke-linecap="round" stroke-linejoin="round"/><path d="M12.124 28.934l.68.942 1.831 2.335 5.367 2.787 4.967.232 5.974-1.793 4.102-3.393s1.497-3.045 1.51-3.045c.013 0 1.367-4.657 1.367-4.657l-.735-4.27-1.496-3.368-1.003-1.737-1.47-1.413-.128-.135-.273-.222a13.995 13.995 0 0 0-8.162-2.611c-7.765 0-14.06 6.294-14.06 14.06 0 2.09.457 4.072 1.275 5.855l.254.433z" fill="#FAF7F8"/><path d="M32.817 11.197a13.58 13.58 0 0 1 3.831 9.472c0 7.525-6.1 13.626-13.626 13.626a13.61 13.61 0 0 1-11.152-5.794c2.221 4.841 7.11 8.204 12.785 8.204 7.765 0 14.06-6.295 14.06-14.06 0-4.721-2.328-8.899-5.898-11.448z" fill="#F0EEF0"/><path d="M45.05 9.09h-6.231l-5.154 5.113m11.384-2.556h-5.393m5.393 2.326h-5.393m5.393 2.326h-5.393m-21.98 14.722v-3.766" stroke="#000" stroke-width="1.172" stroke-miterlimit="10" stroke-linecap="round" stroke-linejoin="round"/><path d="M18.897 27.255h-2.68a.748.748 0 0 1-.748-.748v-8.664c0-.413.335-.748.748-.748h2.68c.413 0 .748.335.748.748v8.664a.748.748 0 0 1-.748.748z" fill="#6CE79A"/><path d="M19.132 17.095H17.5c.413 0 .748.335.748.748v8.664a.748.748 0 0 1-.748.748h1.633a.748.748 0 0 0 .749-.748v-8.664a.748.748 0 0 0-.749-.748z" fill="#00D8A2"/><path d="M24.558 22.63v-3.057m-5.427 7.682h-2.914a.748.748 0 0 1-.748-.748v-8.664c0-.413.335-.748.748-.748h2.915c.413 0 .748.335.748.748v8.664a.748.748 0 0 1-.748.748z" stroke="#000" stroke-width="1.172" stroke-miterlimit="10" stroke-linecap="round" stroke-linejoin="round"/><path d="M25.782 19.573h-2.68a.748.748 0 0 1-.748-.749v-1.146c0-.413.335-.748.748-.748h2.68c.413 0 .748.335.748.748v1.146a.749.749 0 0 1-.748.749z" fill="#6CE79A"/><path d="M26.015 16.93h-1.633c.413 0 .748.335.748.748v1.146a.748.748 0 0 1-.748.748h1.633a.748.748 0 0 0 .749-.748v-1.146a.748.748 0 0 0-.749-.748z" fill="#00D8A2"/><path d="M24.56 16.93v-2.655m6.883 15.862V26.37m-5.427-6.797h-2.914a.748.748 0 0 1-.748-.749v-1.146c0-.413.335-.748.748-.748h2.914c.414 0 .749.335.749.748v1.146a.747.747 0 0 1-.749.749z" stroke="#000" stroke-width="1.172" stroke-miterlimit="10" stroke-linecap="round" stroke-linejoin="round"/><path d="M32.666 26.37h-2.68a.748.748 0 0 1-.749-.748V17.74c0-.414.335-.749.749-.749h2.68c.413 0 .748.335.748.749v7.882a.748.748 0 0 1-.748.749z" fill="#FF6470"/><path d="M32.899 16.991h-1.633c.413 0 .748.335.748.749v7.882a.748.748 0 0 1-.748.748h1.633a.748.748 0 0 0 .748-.748V17.74a.748.748 0 0 0-.748-.749z" fill="#FF4555"/><path d="M32.9 26.37h-2.914a.748.748 0 0 1-.749-.748V17.74c0-.414.335-.749.749-.749H32.9c.413 0 .748.335.748.749v7.882a.748.748 0 0 1-.748.749z" stroke="#000" stroke-width="1.172" stroke-miterlimit="10" stroke-linecap="round" stroke-linejoin="round"/><path d="M20.32 47.414h-8.818a.961.961 0 0 1-.961-.961v-2.935c0-.53.43-.961.961-.961h8.818c.531 0 .962.43.962.961v2.935c0 .53-.43.961-.962.961z" fill="#6CE79A"/><path d="M20.322 42.557h-1.933c.53 0 .96.43.96.961v2.935c0 .53-.43.961-.96.961h1.933c.53 0 .96-.43.96-.961v-2.935c0-.53-.43-.961-.96-.961z" fill="#00D8A2"/><path d="M13.176 40.243h5.47m-5.47-2.217h5.47m-3.078 9.388h4.752c.531 0 .962-.43.962-.961v-2.935c0-.53-.43-.961-.962-.961h-8.818c-.53 0-.961.43-.961.961v2.935c0 .53.43.961.961.961h1.8m1.316-34.612a14.013 14.013 0 0 0-4.022 9.843c0 7.765 6.294 14.06 14.06 14.06 7.764 0 14.059-6.295 14.059-14.06 0-7.764-6.295-14.06-14.06-14.06a13.995 13.995 0 0 0-8.326 2.732" stroke="#000" stroke-width="1.172" stroke-miterlimit="10" stroke-linecap="round" stroke-linejoin="round"/></g><defs><clipPath id="clip0_596_5158"><path fill="#fff" transform="translate(8 8)" d="M0 0h40v40H0z"/></clipPath></defs></svg>