<svg width="56" height="56" fill="none" xmlns="http://www.w3.org/2000/svg"><g clip-path="url(#clip0_596_5193)"><path fill-rule="evenodd" clip-rule="evenodd" d="M38.174 46.608l8.433-8.423a1.842 1.842 0 0 0 0-2.598l-1.39-1.386a1.844 1.844 0 0 0-2.6 0l-.037.035-8.36 8.35-.035.037a1.839 1.839 0 0 0 0 2.596l1.39 1.389c.14.14.3.255.476.343h1.647a1.87 1.87 0 0 0 .476-.343z" fill="#DAD0D3"/><path fill-rule="evenodd" clip-rule="evenodd" d="M34.22 42.586l8.36-8.35-3.657-3.653c-5.477-3.102-9.912 4.01-8.692 8.018l3.99 3.985z" fill="#FFDCD5"/><path fill-rule="evenodd" clip-rule="evenodd" d="M18.163 46.95h1.647c.173-.085.332-.2.476-.342l1.39-1.389a1.84 1.84 0 0 0 0-2.596l-.037-.037-8.36-8.35-.035-.035a1.847 1.847 0 0 0-2.602 0l-1.388 1.386a1.841 1.841 0 0 0 0 2.598l8.43 8.423c.141.139.303.254.479.343z" fill="#9D9AE8"/><path fill-rule="evenodd" clip-rule="evenodd" d="M31.586 37.909l5.163-5.154 2.174-2.172.684-.683a1.946 1.946 0 0 0 0-2.744 1.947 1.947 0 0 0-2.747 0l.688-.69a1.942 1.942 0 1 0-2.747-2.745l.688-.69a1.942 1.942 0 0 0 0-2.744 1.951 1.951 0 0 0-2.747 0l.69-.687a1.948 1.948 0 0 0 0-2.747 1.946 1.946 0 0 0-1.686-.54c-.39.063-.764.242-1.063.54l-2.752 2.751.089.089.015.015c.755.754.755 1.99 0 2.744a1.947 1.947 0 0 1-2.747 0c.755.756.755 1.99 0 2.747a1.954 1.954 0 0 1-2.75 0c.757.754.757 1.99 0 2.744a1.951 1.951 0 0 1-2.747 0 1.942 1.942 0 1 1-2.748 2.744l-.104-.104-3.66 3.653 8.36 8.35 3.494-3.49c.99-1.023 3.307-.128 5.098-.495.51-.104.974-.312 1.355-.692z" fill="#FFD0C7"/><path fill-rule="evenodd" clip-rule="evenodd" d="M25.287 22.452a1.947 1.947 0 0 0 2.748 0 1.945 1.945 0 0 0 0-2.744l-.016-.015c-1.167-.085-3.398-2.108-3.531-3.527a1.95 1.95 0 0 0-2.75 0 1.945 1.945 0 0 0 0 2.744l.69.69 2.859 2.852z" fill="#FFDCD5"/><path fill-rule="evenodd" clip-rule="evenodd" d="M22.538 25.199a1.954 1.954 0 0 0 2.75 0 1.948 1.948 0 0 0 0-2.747L22.43 19.6a1.942 1.942 0 1 0-2.748 2.744l.689.688 2.167 2.167z" fill="#FFDCD5"/><path fill-rule="evenodd" clip-rule="evenodd" d="M19.79 27.943a1.951 1.951 0 0 0 2.747 0 1.942 1.942 0 0 0 0-2.744l-2.167-2.167a1.951 1.951 0 0 0-2.748 0 1.944 1.944 0 0 0 0 2.746l1.38 1.378.788.787z" fill="#FFDCD5"/><path fill-rule="evenodd" clip-rule="evenodd" d="M17.043 30.687a1.942 1.942 0 1 0 2.748-2.744l-.788-.787a1.95 1.95 0 0 0-2.75 0 1.946 1.946 0 0 0 0 2.744l.686.683.104.104zm10.888-11.083l2.752-2.75a1.926 1.926 0 0 1 1.063-.54l-5.316-1.006c-1.05-.2-2.043-.206-1.941.858.132 1.42 2.364 3.443 3.53 3.527l-.088-.089z" fill="#FFDCD5"/><path d="M27.93 13.083a.787.787 0 0 0 .788-.787v-3.51a.787.787 0 0 0-1.574 0v3.51c0 .434.352.787.787.787zM47.164 35.03l-1.39-1.386a2.607 2.607 0 0 0-1.856-.766c-.449 0-.88.112-1.261.321l-2.62-2.616.128-.127a2.73 2.73 0 0 0 0-3.856 2.701 2.701 0 0 0-1.37-.74 2.75 2.75 0 0 0 .109-.766c0-.731-.284-1.416-.798-1.928a2.7 2.7 0 0 0-1.37-.74 2.75 2.75 0 0 0 .109-.766c0-.731-.284-1.416-.799-1.93a2.713 2.713 0 0 0-1.368-.738 2.735 2.735 0 0 0-.69-2.696 2.731 2.731 0 0 0-2.22-.779l-5.19-.982c-.792-.15-1.78-.25-2.405.32-.04.035-.08.077-.119.123a2.736 2.736 0 0 0-2.87.631 2.707 2.707 0 0 0-.798 1.929c0 .263.038.52.109.765a2.697 2.697 0 0 0-1.368.74 2.738 2.738 0 0 0-.69 2.694 2.703 2.703 0 0 0-1.37.738 2.71 2.71 0 0 0-.798 1.93c0 .56.167 1.092.476 1.542a2.712 2.712 0 0 0-1.048.652 2.731 2.731 0 0 0 .001 3.858l.127.127-2.62 2.615a2.63 2.63 0 0 0-2.976.515l-1.39 1.387a2.605 2.605 0 0 0-.768 1.856c0 .703.273 1.362.767 1.856l1.736 1.733a.787.787 0 0 0 1.112-1.113L9.95 37.7a1.041 1.041 0 0 1-.305-.743c0-.282.108-.546.305-.742l1.39-1.387c.348-.347.88-.399 1.284-.157a.78.78 0 0 0 .325.278l7.976 7.964a.785.785 0 0 0 .38.384c.17.191.262.438.261.694 0 .282-.108.546-.305.742l-1.39 1.388a1.057 1.057 0 0 1-1.487.001l-1.736-1.735a.787.787 0 0 0-1.113 1.112l1.737 1.737a2.62 2.62 0 0 0 1.854.764c.672 0 1.345-.255 1.857-.765l1.39-1.388a2.605 2.605 0 0 0 .767-1.856c0-.502-.14-.98-.399-1.394l2.948-2.944.01-.01c.337-.349 1.277-.283 2.186-.22.646.045 1.366.095 2.07.014l3.229 3.224c-.21.381-.321.812-.321 1.26 0 .702.272 1.36.767 1.855l1.39 1.389a2.608 2.608 0 0 0 1.856.766c.702 0 1.36-.273 1.855-.766l8.433-8.423a2.604 2.604 0 0 0 .767-1.856c0-.702-.272-1.361-.767-1.856zm-20.88-18.95l3.413.647-2.043 2.042c-.316-.152-.749-.435-1.224-.89-.65-.622-1.116-1.34-1.158-1.788v-.001a.67.67 0 0 1-.003-.078c.102-.025.376-.053 1.015.069zm-3.989.642a1.16 1.16 0 0 1 1.469-.139c.255 1.07 1.168 2.04 1.578 2.433.305.292 1.281 1.165 2.267 1.405.135.193.207.424.206.66a1.145 1.145 0 0 1-1.153 1.152c-.31 0-.6-.12-.818-.338l-3.549-3.542a1.143 1.143 0 0 1-.335-.815c0-.31.119-.6.335-.816zm-2.056 3.434c.217-.217.507-.336.817-.336.31 0 .6.12.818.337l2.857 2.851c.45.45.45 1.184.002 1.633a1.153 1.153 0 0 1-.82.336c-.31 0-.601-.119-.818-.335l-2.168-2.167-.01-.01-.678-.678a1.145 1.145 0 0 1-.337-.817c0-.308.12-.597.337-.814zm-2.06 3.432c.217-.216.508-.335.818-.335.309 0 .597.117.812.33l2.174 2.173c.217.216.337.505.337.815a1.148 1.148 0 0 1-1.154 1.15c-.311 0-.602-.119-.819-.335l-.788-.787-1.38-1.378a1.146 1.146 0 0 1-.336-.816c0-.31.12-.6.337-.817zm-1.37 4.124a1.15 1.15 0 0 1 .819-.337c.31 0 .601.12.819.337l.789.788c.217.216.336.506.336.815 0 .31-.12.599-.338.816a1.146 1.146 0 0 1-.817.337c-.31 0-.6-.12-.818-.338l-.099-.099-.004-.004-.004-.004-.682-.679a1.155 1.155 0 0 1 0-1.632zm16.034 8.942a.787.787 0 0 0-1.112 0l-.7.699c-.666.665-1.87.581-3.037.5-1.265-.088-2.574-.178-3.421.691l-2.898 2.895-7.247-7.237 2.565-2.56c.424.26.913.4 1.424.4.732 0 1.417-.284 1.93-.797.515-.514.799-1.2.799-1.93v-.02h.02a2.71 2.71 0 0 0 1.928-.795c.515-.513.8-1.198.8-1.93l-.001-.02h.02a2.718 2.718 0 0 0 2.728-2.744h.021c.731 0 1.417-.283 1.93-.797a2.707 2.707 0 0 0 .797-1.929c0-.51-.139-.999-.398-1.422l2.248-2.247a1.154 1.154 0 0 1 .66-.326c.347-.047.712.06.978.324.45.451.45 1.184.001 1.633l-.684.682-.007.007-.789.787a.787.787 0 1 0 1.112 1.113l.688-.686.104-.104a1.159 1.159 0 0 1 1.633.004c.217.216.336.505.336.815 0 .309-.12.598-.338.816l-.688.69-.79.785a.787.787 0 1 0 1.111 1.115l.792-.789c.217-.216.507-.336.817-.336a1.147 1.147 0 0 1 1.155 1.152c0 .31-.12.6-.337.816l-1.373 1.373a.787.787 0 0 0 1.113 1.113l.672-.673.012-.01c.217-.218.507-.337.817-.337.31 0 .6.12.818.337.45.449.449 1.181 0 1.63l-.684.684-.002.002-1.085 1.084a.787.787 0 0 0 1.112 1.113l.53-.53 2.546 2.542-7.247 7.238-2.596-2.594c.187-.12.36-.259.517-.416l.7-.698a.786.786 0 0 0 0-1.113zm13.21.975l-8.434 8.422a1.044 1.044 0 0 1-.743.306c-.282 0-.546-.109-.744-.306l-1.39-1.388a1.04 1.04 0 0 1-.306-.742c0-.281.109-.544.306-.741l8.433-8.423c.197-.197.461-.305.743-.305.283 0 .547.108.744.306l1.39 1.386c.197.197.306.46.306.742s-.109.546-.306.743zm-28.569-25.21a.784.784 0 0 0 1.113 0 .787.787 0 0 0-.001-1.113l-2.867-2.862a.787.787 0 1 0-1.112 1.114l2.867 2.861zm20.34.23a.785.785 0 0 0 .556-.23l2.864-2.861a.787.787 0 1 0-1.112-1.113l-2.864 2.861a.787.787 0 0 0 .555 1.344z" fill="#000"/><path d="M12.908 41.844c-.304.31-.3.808.01 1.113l.002.002a.781.781 0 0 0 1.112-.01.788.788 0 0 0-1.124-1.105zm21.859-6.323a.788.788 0 1 0-.354-1.49l-.004.002a.785.785 0 0 0 .358 1.488z" fill="#000"/></g><defs><clipPath id="clip0_596_5193"><path fill="#fff" transform="translate(8 8)" d="M0 0h40v40H0z"/></clipPath></defs></svg>