<svg width="56" height="56" viewBox="0 0 56 56" fill="none" xmlns="http://www.w3.org/2000/svg">
<g clip-path="url(#clip0_596_5165)">
<path d="M27.9996 40.4495C34.8749 40.4495 40.4484 34.876 40.4484 28.0007C40.4484 21.1254 34.8749 15.5519 27.9996 15.5519C21.1243 15.5519 15.5508 21.1254 15.5508 28.0007C15.5508 34.876 21.1243 40.4495 27.9996 40.4495Z" fill="#F7F6F7"/>
<path d="M27.9998 15.5519C27.5917 15.5519 27.1881 15.5721 26.79 15.6106C33.0975 16.219 38.0291 21.5336 38.0291 28.0007C38.0291 34.4678 33.0976 39.7824 26.79 40.3908C27.1881 40.4292 27.5917 40.4495 27.9998 40.4495C34.8751 40.4495 40.4486 34.876 40.4486 28.0007C40.4486 21.1253 34.8751 15.5519 27.9998 15.5519Z" fill="#EDEBED"/>
<path d="M21.5012 33.4544C21.332 34.2075 21.6955 34.9762 22.3709 35.3498C24.0396 36.2727 25.9583 36.7983 28 36.7983C30.0421 36.7983 31.9612 36.2726 33.63 35.3496C34.3054 34.976 34.6688 34.2073 34.4997 33.4541C33.8316 30.4801 31.1762 28.2581 28.0004 28.2581C24.8246 28.258 22.1692 30.4802 21.5012 33.4544Z" fill="#A4CCFF"/>
<path d="M34.4996 33.454C33.8315 30.4799 31.1761 28.2579 28.0003 28.2579C27.5945 28.258 27.1896 28.295 26.7905 28.3683C29.4136 28.8498 31.4988 30.867 32.08 33.454C32.2492 34.2071 31.8857 34.9759 31.2102 35.3494C29.8452 36.1044 28.3418 36.5758 26.79 36.7351C27.1877 36.7762 27.5912 36.7982 27.9998 36.7982C30.0419 36.7982 31.961 36.2725 33.6298 35.3495C34.3054 34.9759 34.6688 34.2071 34.4996 33.454Z" fill="#8BB3EA"/>
<path d="M28.0003 29.1821C26.0364 29.1821 24.4443 27.5901 24.4443 25.6263V21.2878C24.4443 20.1366 25.3777 19.2032 26.5289 19.2032H29.4715C30.6228 19.2032 31.5561 20.1366 31.5561 21.2878V25.6263C31.5562 27.5901 29.9642 29.1821 28.0003 29.1821Z" fill="#F2CCBC"/>
<path d="M29.4712 19.2032H27.0516C28.2028 19.2032 29.1362 20.1365 29.1362 21.2878V25.6263C29.1362 27.1653 28.1583 28.4757 26.79 28.9707C27.178 29.111 27.5874 29.1825 27.9998 29.1821C29.9637 29.1821 31.5558 27.5901 31.5558 25.6263V21.2878C31.5558 20.1365 30.6224 19.2032 29.4712 19.2032Z" fill="#ECAD9A"/>
<path d="M29.4715 19.2032H26.5289C25.3777 19.2032 24.4443 20.1365 24.4443 21.2878V23.9402L27.4576 22.9475C28.006 22.7668 28.5884 22.7139 29.1603 22.7928C29.7322 22.8717 30.2785 23.0803 30.7575 23.4027L31.5561 23.9402V21.2879C31.5561 20.1365 30.6228 19.2032 29.4715 19.2032Z" fill="#655E68"/>
<path d="M29.4714 19.2032H27.0518C28.203 19.2032 29.1363 20.1365 29.1363 21.2878V22.7902C29.7167 22.8663 30.2716 23.0759 30.7573 23.4027L31.5559 23.9402V21.2879C31.5559 20.1365 30.6226 19.2032 29.4714 19.2032Z" fill="#544F57"/>
<path d="M42.1953 17.2336C44.0884 17.2336 45.6231 15.6989 45.6231 13.8058C45.6231 11.9127 44.0884 10.3781 42.1953 10.3781C40.3022 10.3781 38.7676 11.9127 38.7676 13.8058C38.7676 15.6989 40.3022 17.2336 42.1953 17.2336Z" fill="#FF8086"/>
<path d="M42.1951 10.3781C41.7691 10.3781 41.3616 10.4564 40.9854 10.5983C42.2813 11.0874 43.2033 12.3386 43.2033 13.8058C43.2033 15.273 42.2813 16.5242 40.9854 17.0133C41.372 17.1593 41.7819 17.2339 42.1951 17.2336C44.0882 17.2336 45.6229 15.6989 45.6229 13.8058C45.6229 11.9127 44.0882 10.3781 42.1951 10.3781Z" fill="#E5646E"/>
<path d="M13.8047 17.2336C15.6978 17.2336 17.2325 15.6989 17.2325 13.8058C17.2325 11.9127 15.6978 10.3781 13.8047 10.3781C11.9116 10.3781 10.377 11.9127 10.377 13.8058C10.377 15.6989 11.9116 17.2336 13.8047 17.2336Z" fill="#FFC269"/>
<path d="M13.8045 10.3781C13.3785 10.3781 12.971 10.4564 12.5947 10.5983C13.8907 11.0874 14.8127 12.3386 14.8127 13.8058C14.8127 15.273 13.8907 16.5242 12.5947 17.0133C12.9814 17.1593 13.3913 17.2339 13.8045 17.2336C15.6976 17.2336 17.2323 15.6989 17.2323 13.8058C17.2323 11.9127 15.6976 10.3781 13.8045 10.3781Z" fill="#FFA95F"/>
<path d="M42.1953 45.6235C44.0884 45.6235 45.6231 44.0888 45.6231 42.1957C45.6231 40.3026 44.0884 38.7679 42.1953 38.7679C40.3022 38.7679 38.7676 40.3026 38.7676 42.1957C38.7676 44.0888 40.3022 45.6235 42.1953 45.6235Z" fill="#B3E59F"/>
<path d="M42.1951 38.7679C41.7691 38.7679 41.3616 38.8463 40.9854 38.9882C42.2813 39.4773 43.2033 40.7285 43.2033 42.1957C43.2033 43.6629 42.2813 44.9141 40.9854 45.4032C41.372 45.5491 41.7819 45.6238 42.1951 45.6235C44.0882 45.6235 45.6229 44.0888 45.6229 42.1957C45.6229 40.3026 44.0882 38.7679 42.1951 38.7679Z" fill="#95D6A4"/>
<path d="M13.8047 45.6235C15.6978 45.6235 17.2325 44.0888 17.2325 42.1957C17.2325 40.3026 15.6978 38.7679 13.8047 38.7679C11.9116 38.7679 10.377 40.3026 10.377 42.1957C10.377 44.0888 11.9116 45.6235 13.8047 45.6235Z" fill="#FFE07D"/>
<path d="M13.8045 38.7679C13.3785 38.7679 12.971 38.8463 12.5947 38.9882C13.8907 39.4773 14.8127 40.7285 14.8127 42.1957C14.8127 43.6629 13.8907 44.9141 12.5947 45.4032C12.9814 45.5491 13.3913 45.6238 13.8045 45.6235C15.6976 45.6235 17.2323 44.0888 17.2323 42.1957C17.2323 40.3026 15.6976 38.7679 13.8045 38.7679Z" fill="#FFD064"/>
<path d="M26.7502 9.25008C27.1008 9.25008 27.3841 8.95828 27.3602 8.60421C27.3378 8.27152 27.0483 8.02181 26.7152 8.04133C26.5581 8.05059 26.4109 8.12065 26.3047 8.23665C26.1984 8.35264 26.1416 8.50546 26.1461 8.66269C26.1507 8.81992 26.2163 8.96919 26.329 9.07885C26.4418 9.18851 26.5929 9.24993 26.7502 9.25008ZM29.1944 9.24661C29.3487 9.24646 29.4971 9.18737 29.6092 9.08144C29.7214 8.9755 29.7888 8.83073 29.7977 8.67672C29.8172 8.3416 29.5581 8.05666 29.2213 8.03738C28.8886 8.01835 28.6016 8.27224 28.582 8.60574C28.5615 8.95376 28.8443 9.24661 29.1944 9.24661ZM24.4566 9.5439C24.6137 9.51325 24.7522 9.42161 24.8419 9.28904C24.9315 9.15647 24.965 8.99378 24.9349 8.8366C24.9049 8.67941 24.8137 8.54054 24.6815 8.4504C24.5493 8.36025 24.3867 8.32618 24.2294 8.35564C23.8979 8.41895 23.68 8.73398 23.7444 9.06595C23.8084 9.39558 24.1346 9.60552 24.4566 9.5439ZM9.05285 23.7851C9.36796 23.8663 9.70533 23.6772 9.78953 23.3502C9.87381 23.0231 9.68138 22.6883 9.35449 22.6052C9.27749 22.5856 9.19739 22.5814 9.11877 22.5928C9.04014 22.6042 8.96454 22.631 8.89627 22.6716C8.828 22.7123 8.76841 22.7659 8.72091 22.8296C8.6734 22.8933 8.63892 22.9657 8.61942 23.0427L8.61796 23.0485C8.57796 23.2038 8.6013 23.3687 8.68286 23.5069C8.76441 23.645 8.8975 23.7451 9.05285 23.7851ZM22.1631 10.1345C22.4847 10.0298 22.6647 9.68892 22.5581 9.36671C22.453 9.04926 22.1097 8.88045 21.7912 8.98336C21.6386 9.03268 21.5117 9.14062 21.4387 9.28343C21.3656 9.42625 21.3523 9.59223 21.4016 9.74489C21.5054 10.0661 21.8523 10.2356 22.1631 10.1345ZM10.7096 36.8251C10.5696 36.9034 10.4664 37.034 10.4227 37.1884C10.379 37.3427 10.3984 37.5081 10.4765 37.6481L10.4783 37.6514C10.5556 37.792 10.6856 37.8961 10.8397 37.9408C10.9938 37.9856 11.1593 37.9672 11.2998 37.8899C11.3704 37.8512 11.4325 37.7987 11.4825 37.7356C11.5325 37.6726 11.5694 37.6002 11.591 37.5226C11.6127 37.4451 11.6187 37.3641 11.6086 37.2842C11.5986 37.2044 11.5727 37.1273 11.5324 37.0576C11.4542 36.9177 11.3235 36.8145 11.1692 36.7709C11.0149 36.7273 10.8496 36.7468 10.7096 36.8251ZM8.7537 26.1975C8.90173 26.1973 9.04455 26.1429 9.15512 26.0445C9.26568 25.946 9.33631 25.8105 9.3536 25.6635C9.37465 25.5044 9.33165 25.3436 9.23408 25.2162C9.13651 25.0889 8.99235 25.0055 8.83331 24.9845C8.49723 24.9399 8.19365 25.1842 8.15219 25.5215C8.10848 25.8769 8.39238 26.1975 8.7537 26.1975ZM9.73332 21.4443C10.0371 21.5631 10.3897 21.4142 10.5169 21.1009C10.5468 21.0273 10.5619 20.9486 10.5613 20.8691C10.5608 20.7897 10.5446 20.7112 10.5137 20.638C10.4828 20.5648 10.4378 20.4984 10.3813 20.4426C10.3247 20.3868 10.2577 20.3427 10.1841 20.3128C10.1105 20.2829 10.0318 20.2678 9.95233 20.2684C9.8729 20.2689 9.79435 20.2851 9.72116 20.316C9.64798 20.3469 9.5816 20.3919 9.52582 20.4484C9.47003 20.505 9.42592 20.572 9.39603 20.6456C9.26819 20.9604 9.41772 21.3209 9.73332 21.4443ZM19.9709 11.0073C20.2794 10.8623 20.4181 10.4952 20.2669 10.1878C20.1196 9.88813 19.7595 9.76344 19.4595 9.91087C19.1592 10.0584 19.0249 10.4125 19.1667 10.7157C19.3098 11.0219 19.6741 11.1466 19.9709 11.0073ZM46.1956 23.2926C46.2797 23.6189 46.6138 23.8106 46.9307 23.7301C47.0862 23.6907 47.2197 23.5911 47.3017 23.4532C47.3838 23.3154 47.4077 23.1506 47.3682 22.9951L47.3657 22.9852C47.2823 22.6616 46.9531 22.4697 46.6298 22.5531C46.3063 22.6364 46.1123 22.9691 46.1956 23.2926ZM44.9955 37.9568C45.1046 37.9569 45.2118 37.9274 45.3055 37.8716C45.3993 37.8158 45.4762 37.7356 45.5281 37.6397L45.53 37.6362C45.5683 37.5666 45.5925 37.4901 45.6012 37.4112C45.6099 37.3322 45.603 37.2523 45.5809 37.176C45.5587 37.0997 45.5217 37.0286 45.4721 36.9666C45.4224 36.9046 45.361 36.8529 45.2914 36.8147C45.2218 36.7764 45.1454 36.7522 45.0664 36.7434C44.9874 36.7347 44.9075 36.7416 44.8312 36.7638C44.7549 36.7859 44.6838 36.8229 44.6218 36.8726C44.5598 36.9222 44.5082 36.9836 44.4699 37.0532L44.464 37.064C44.2457 37.4542 44.5462 37.9568 44.9955 37.9568ZM45.8028 20.258C45.7289 20.2869 45.6613 20.3301 45.604 20.3851C45.5467 20.4402 45.5008 20.5059 45.4689 20.5787C45.437 20.6514 45.4198 20.7298 45.4182 20.8092C45.4166 20.8886 45.4306 20.9676 45.4595 21.0416L45.4668 21.0598C45.5953 21.3722 45.9546 21.5154 46.2576 21.3904C46.5664 21.263 46.7143 20.9116 46.5869 20.6027L46.5864 20.6014C46.5575 20.5274 46.5143 20.4598 46.4593 20.4025C46.4043 20.3451 46.3385 20.2992 46.2658 20.2674C46.193 20.2355 46.1147 20.2182 46.0352 20.2166C45.9558 20.215 45.8768 20.2291 45.8028 20.258ZM47.1594 24.9273C47.0807 24.9377 47.0048 24.9635 46.936 25.0032C46.8672 25.043 46.807 25.0958 46.7587 25.1589C46.7103 25.2219 46.6749 25.2938 46.6544 25.3706C46.6339 25.4473 46.6287 25.5273 46.6391 25.6061C46.6832 25.9392 46.9835 26.1746 47.3105 26.1361C47.4698 26.1174 47.6152 26.0361 47.7146 25.9102C47.814 25.7842 47.8593 25.624 47.8405 25.4647L47.8385 25.448C47.8281 25.3692 47.8023 25.2932 47.7625 25.2244C47.7228 25.1556 47.6699 25.0953 47.6068 25.0469C47.5438 24.9986 47.4718 24.9631 47.395 24.9426C47.3183 24.9221 47.2382 24.9169 47.1594 24.9273ZM45.2798 19.1574C45.4198 19.0791 45.523 18.9484 45.5667 18.7941C45.6104 18.6397 45.5911 18.4744 45.5129 18.3343L45.5111 18.331C45.4721 18.2618 45.4199 18.2009 45.3574 18.1519C45.2949 18.1029 45.2233 18.0666 45.1468 18.0452C45.0703 18.0239 44.9903 18.0178 44.9115 18.0273C44.8326 18.0368 44.7564 18.0618 44.6872 18.1008C44.618 18.1398 44.5571 18.192 44.5081 18.2545C44.459 18.317 44.4228 18.3886 44.4014 18.4651C44.3801 18.5416 44.374 18.6216 44.3835 18.7004C44.393 18.7793 44.418 18.8555 44.457 18.9247C44.6154 19.2229 44.9928 19.3177 45.2798 19.1574ZM33.7841 10.1173C34.0944 10.2161 34.4417 10.0494 34.5456 9.72771C34.5949 9.57506 34.5816 9.40907 34.5085 9.26625C34.4354 9.12344 34.3086 9.0155 34.156 8.96618C33.8345 8.8623 33.491 9.03433 33.3884 9.3567C33.2872 9.67504 33.4657 10.016 33.7841 10.1173ZM31.5052 9.53672C31.8265 9.59374 32.1493 9.37816 32.2079 9.04651C32.2659 8.71753 32.0482 8.40411 31.7191 8.34604L31.7176 8.34572C31.3901 8.282 31.0722 8.49638 31.0085 8.82431C30.9439 9.15717 31.1695 9.47712 31.5052 9.53672ZM35.9764 10.9824C36.2732 11.1212 36.6372 11.0017 36.7826 10.6964C36.8168 10.6246 36.8364 10.5469 36.8406 10.4676C36.8447 10.3882 36.8331 10.3089 36.8065 10.234C36.78 10.1591 36.7389 10.0902 36.6857 10.0312C36.6325 9.97224 36.5682 9.9243 36.4965 9.89014C36.1909 9.74465 35.8265 9.87055 35.683 10.1774C35.5413 10.48 35.6738 10.8409 35.9764 10.9824ZM11.2812 18.1367C10.9867 17.9773 10.6211 18.0904 10.4594 18.3843C10.4212 18.4539 10.397 18.5304 10.3882 18.6093C10.3795 18.6883 10.3864 18.7682 10.4086 18.8445C10.4307 18.9208 10.4677 18.9919 10.5174 19.0539C10.567 19.1159 10.6284 19.1675 10.698 19.2058C10.9874 19.365 11.3627 19.2574 11.5254 18.9565C11.6017 18.8154 11.6188 18.6498 11.573 18.496C11.5273 18.3423 11.4223 18.2131 11.2812 18.1367ZM42.1949 38.163C41.2419 38.163 40.3657 38.496 39.6747 39.0508L37.5324 36.9085C39.7151 34.5742 41.0536 31.441 41.0536 28.0007C41.0536 24.6776 39.8047 21.6411 37.7525 19.3342L39.9395 17.1472C40.605 17.5985 41.3908 17.8393 42.1948 17.8384C44.4184 17.8384 46.2275 16.0293 46.2275 13.8057C46.2275 11.5821 44.4184 9.77304 42.1948 9.77304C39.9712 9.77304 38.1622 11.5821 38.1622 13.8057C38.1622 14.7587 38.4952 15.6349 39.0499 16.3259L36.9076 18.4682C34.5734 16.2855 31.4402 14.947 27.9999 14.947C25.4643 14.947 23.0056 15.6748 20.8893 17.0518C20.2486 17.4686 19.6456 17.9405 19.087 18.4622L16.9502 16.3254C17.5047 15.6346 17.8376 14.7585 17.8376 13.8057C17.8376 11.5821 16.0285 9.77304 13.8049 9.77304C11.5813 9.77304 9.77227 11.5821 9.77227 13.8057C9.77227 16.0293 11.5813 17.8384 13.8049 17.8384C14.6092 17.8393 15.3951 17.5983 16.0607 17.1468L18.2432 19.3293C17.3971 20.2797 16.6945 21.3486 16.1575 22.5021C16.0899 22.6476 16.0828 22.814 16.1378 22.9647C16.1928 23.1154 16.3055 23.238 16.4509 23.3057C16.5229 23.3392 16.6009 23.3582 16.6802 23.3616C16.7596 23.365 16.8389 23.3527 16.9135 23.3255C16.9881 23.2982 17.0566 23.2565 17.1151 23.2028C17.1736 23.149 17.221 23.0843 17.2545 23.0122C17.817 21.8037 18.5794 20.6986 19.5095 19.7437L19.5114 19.742C19.5126 19.7407 19.5136 19.7393 19.5148 19.7381C20.1291 19.1072 20.8113 18.5464 21.5492 18.0659C23.4685 16.817 25.6992 16.1568 27.9998 16.1568C34.5305 16.1568 39.8437 21.4699 39.8437 28.0007C39.8437 34.5315 34.5306 39.8446 27.9998 39.8446C21.469 39.8446 16.1559 34.5315 16.1559 28.0007C16.1559 27.2284 16.2307 26.456 16.3781 25.7049C16.3938 25.6267 16.3939 25.5463 16.3784 25.4682C16.363 25.39 16.3322 25.3157 16.2879 25.2494C16.2436 25.1832 16.1867 25.1264 16.1204 25.0822C16.0541 25.038 15.9797 25.0074 15.9016 24.9921C15.8234 24.9767 15.7429 24.977 15.6649 24.9928C15.5868 25.0086 15.5126 25.0397 15.4466 25.0843C15.3805 25.1289 15.324 25.1861 15.2801 25.2526C15.2362 25.3191 15.2059 25.3936 15.191 25.4718C15.0279 26.3049 14.9459 27.1518 14.946 28.0007C14.946 31.4411 16.2844 34.5742 18.4672 36.9085L16.3249 39.0508C15.6339 38.496 14.7577 38.163 13.8047 38.163C11.5811 38.163 9.77203 39.9721 9.77203 42.1957C9.77203 44.4193 11.5811 46.2283 13.8047 46.2283C16.0283 46.2283 17.8373 44.4193 17.8373 42.1957C17.8383 41.3916 17.5975 40.6058 17.1461 39.9404L19.3332 37.7533C21.6401 39.8055 24.6766 41.0544 27.9997 41.0544C31.3229 41.0544 34.3594 39.8055 36.6662 37.7533L38.8533 39.9404C38.402 40.6058 38.1612 41.3916 38.1621 42.1957C38.1621 44.4193 39.9711 46.2283 42.1947 46.2283C44.4184 46.2283 46.2274 44.4193 46.2274 42.1957C46.2274 39.9721 44.4185 38.163 42.1949 38.163ZM42.1949 10.9829C43.7514 10.9829 45.0178 12.2492 45.0178 13.8058C45.0178 15.3623 43.7514 16.6286 42.1949 16.6286C40.6384 16.6286 39.3721 15.3623 39.3721 13.8058C39.3721 12.2492 40.6384 10.9829 42.1949 10.9829ZM13.805 16.6286C12.2485 16.6286 10.9821 15.3623 10.9821 13.8058C10.9821 12.2492 12.2485 10.9829 13.805 10.9829C15.3615 10.9829 16.6279 12.2492 16.6279 13.8058C16.6279 15.3623 15.3615 16.6286 13.805 16.6286ZM13.805 45.0185C12.2485 45.0185 10.9821 43.7522 10.9821 42.1957C10.9821 40.6392 12.2485 39.3728 13.805 39.3728C15.3615 39.3728 16.6279 40.6392 16.6279 42.1957C16.6279 43.7522 15.3615 45.0185 13.805 45.0185ZM42.1949 45.0185C40.6384 45.0185 39.3721 43.7522 39.3721 42.1957C39.3721 40.6392 40.6384 39.3728 42.1949 39.3728C43.7514 39.3728 45.0178 40.6392 45.0178 42.1957C45.0178 43.7522 43.7514 45.0185 42.1949 45.0185ZM36.0094 45.0035L35.9987 45.0085C35.9269 45.0426 35.8626 45.0905 35.8094 45.1494C35.7561 45.2084 35.715 45.2773 35.6884 45.3521C35.6618 45.427 35.6502 45.5063 35.6543 45.5857C35.6583 45.665 35.678 45.7428 35.7121 45.8145C35.8572 46.1198 36.2221 46.2423 36.5181 46.1011L36.522 46.0993C36.594 46.0656 36.6586 46.0181 36.7122 45.9595C36.7658 45.9009 36.8073 45.8322 36.8344 45.7576C36.8615 45.6829 36.8736 45.6036 36.87 45.5242C36.8664 45.4449 36.8473 45.367 36.8136 45.2951C36.78 45.2231 36.7325 45.1585 36.6738 45.1049C36.6152 45.0513 36.5466 45.0098 36.4719 44.9827C36.3972 44.9556 36.3179 44.9435 36.2386 44.9471C36.1592 44.9506 36.0813 44.9698 36.0094 45.0035ZM33.8161 45.8736L33.803 45.8779C33.4865 45.9834 33.3163 46.3248 33.4211 46.6414C33.5271 46.9617 33.8754 47.1281 34.1852 47.0258L34.188 47.0249C34.5058 46.9222 34.6803 46.5812 34.5776 46.2633C34.475 45.9455 34.134 45.7708 33.8161 45.8736ZM20.9108 33.3217C20.6857 34.323 21.1655 35.3746 22.0778 35.8792C22.9949 36.3864 23.9736 36.7733 24.9897 37.0304C25.1452 37.0696 25.31 37.0455 25.4477 36.9633C25.5855 36.8812 25.685 36.7476 25.7243 36.5921C25.7438 36.5151 25.7479 36.435 25.7364 36.3564C25.7249 36.2778 25.6981 36.2023 25.6574 36.134C25.6167 36.0658 25.5629 36.0063 25.4992 35.9588C25.4355 35.9114 25.3631 35.8769 25.2861 35.8575C24.3708 35.6259 23.4893 35.2774 22.6631 34.8205C22.2183 34.5745 21.9831 34.0673 22.0911 33.587C22.3876 32.2663 23.1332 31.0675 24.191 30.2109C24.7095 29.7894 25.2949 29.4576 25.923 29.2293C26.554 29.5952 27.2705 29.7877 27.9999 29.7871C28.7294 29.7877 29.446 29.5952 30.077 29.2292C32.0012 29.9321 33.4578 31.5789 33.9087 33.5864C34.0166 34.0666 33.7812 34.5742 33.3367 34.8206C31.7122 35.7188 29.8664 36.1936 27.999 36.1936C27.8386 36.1936 27.6847 36.2573 27.5713 36.3707C27.4578 36.4842 27.3941 36.638 27.3941 36.7985C27.3941 36.9589 27.4578 37.1127 27.5713 37.2262C27.6847 37.3396 27.8386 37.4033 27.999 37.4033C30.0706 37.4033 32.1188 36.8764 33.9226 35.879C34.8343 35.3736 35.314 34.3217 35.089 33.3213C34.5991 31.1401 33.12 29.3138 31.1311 28.3618C31.7713 27.6298 32.1606 26.673 32.1606 25.6264V21.2879C32.1606 19.8049 30.9541 18.5983 29.4712 18.5983H26.5285C25.0456 18.5983 23.8391 19.8048 23.8391 21.2879V25.6264C23.8391 26.6726 24.2281 27.6292 24.868 28.3611C24.3541 28.6066 23.8712 28.9121 23.4292 29.2713C22.1612 30.298 21.2666 31.7367 20.9108 33.3217ZM25.049 21.2878C25.049 20.4719 25.7128 19.8081 26.5287 19.8081H29.4713C30.2872 19.8081 30.951 20.4718 30.951 21.2878V22.8097C29.8442 22.1242 28.5121 21.9631 27.2681 22.3729L25.0489 23.104L25.049 21.2878ZM25.049 24.3777L27.6467 23.522C28.5872 23.2121 29.5979 23.3514 30.4195 23.9044L30.951 24.2621V25.6263C30.951 27.2535 29.6271 28.5772 28 28.5772C26.3729 28.5772 25.049 27.2534 25.049 25.6263V24.3777ZM47.9997 27.9822L47.9999 27.9652V27.9571C47.9999 27.7967 47.9362 27.6428 47.8228 27.5294C47.7093 27.4159 47.5555 27.3522 47.395 27.3522C47.2346 27.3522 47.0807 27.4159 46.9673 27.5294C46.8539 27.6428 46.7901 27.7967 46.7901 27.9571V27.9652C46.7901 27.9715 46.7902 27.9776 46.7904 27.9837L46.7901 28.0006V28.0088C46.7822 28.7769 48.0073 28.7875 47.9999 28.0088V28.0006C48 27.9945 47.9999 27.9883 47.9997 27.9822ZM8.6049 28.6275C8.76533 28.6275 8.91919 28.5638 9.03263 28.4503C9.14607 28.3369 9.2098 28.183 9.2098 28.0226V28.0144C9.2098 27.854 9.14607 27.7001 9.03263 27.5867C8.91919 27.4733 8.76533 27.4095 8.6049 27.4095C8.44447 27.4095 8.29061 27.4733 8.17717 27.5867C8.06373 27.7001 8 27.854 8 28.0144C8 28.3512 8.26833 28.6275 8.6049 28.6275ZM47.3169 29.8324C46.986 29.7921 46.685 30.0293 46.6436 30.3599L46.6425 30.3683C46.5946 30.7227 46.883 31.0419 47.2438 31.0419C47.5448 31.0419 47.8058 30.8161 47.844 30.51C47.8443 30.5072 47.8447 30.5044 47.8451 30.5016C47.884 30.1706 47.6477 29.8725 47.3169 29.8324ZM31.5303 46.4599C31.4521 46.4737 31.3773 46.5028 31.3103 46.5455C31.2433 46.5881 31.1854 46.6436 31.1399 46.7087C31.0943 46.7738 31.062 46.8472 31.0448 46.9247C31.0276 47.0023 31.0259 47.0825 31.0397 47.1607C31.0981 47.4916 31.4177 47.7093 31.7405 47.6513L31.7586 47.6479C32.0865 47.5843 32.3018 47.2666 32.2382 46.9387C32.1746 46.6107 31.8586 46.3962 31.5303 46.4599ZM46.9417 32.2375C46.8647 32.2177 46.7847 32.2132 46.706 32.2243C46.6274 32.2354 46.5517 32.2619 46.4833 32.3023C46.4149 32.3427 46.3551 32.3962 46.3073 32.4597C46.2596 32.5232 46.2249 32.5955 46.2051 32.6724L46.2025 32.6823C46.1037 33.0568 46.3979 33.4362 46.7892 33.4362C46.9237 33.436 47.0543 33.3911 47.1604 33.3085C47.2665 33.2259 47.342 33.1103 47.3751 32.9799L47.3766 32.9742C47.4166 32.8188 47.3933 32.6539 47.3117 32.5158C47.2301 32.3776 47.097 32.2775 46.9417 32.2375ZM46.2586 34.5774C46.1846 34.5485 46.1057 34.5344 46.0262 34.536C45.9468 34.5376 45.8685 34.5549 45.7957 34.5868C45.7229 34.6186 45.6572 34.6645 45.6022 34.7219C45.5471 34.7792 45.504 34.8468 45.4751 34.9208C45.3218 35.3128 45.6128 35.7535 46.0353 35.7535C46.1557 35.7535 46.2733 35.7176 46.3732 35.6504C46.4731 35.5831 46.5506 35.4877 46.5959 35.3761L46.602 35.361C46.6309 35.287 46.6449 35.208 46.6433 35.1286C46.6417 35.0492 46.6245 34.9708 46.5926 34.8981C46.5607 34.8253 46.5148 34.7596 46.4575 34.7045C46.4002 34.6495 46.3326 34.6063 46.2586 34.5774ZM29.1919 46.7538L29.1756 46.7548C28.8437 46.7789 28.5956 47.0666 28.6178 47.3986C28.6403 47.7321 28.9318 47.9829 29.261 47.9616L29.2629 47.9615C29.3422 47.9568 29.4198 47.9366 29.4913 47.902C29.5628 47.8673 29.6267 47.8189 29.6795 47.7595C29.7323 47.7002 29.7728 47.631 29.7989 47.5559C29.8249 47.4809 29.8359 47.4014 29.8312 47.3222C29.8117 46.9886 29.5253 46.7335 29.1919 46.7538ZM10.189 35.7232C10.263 35.6943 10.3306 35.6511 10.3879 35.5961C10.4452 35.541 10.4911 35.4753 10.523 35.4025C10.5548 35.3298 10.5721 35.2514 10.5737 35.172C10.5753 35.0926 10.5613 35.0136 10.5323 34.9396L10.5251 34.9214C10.3977 34.6126 10.0431 34.4632 9.73428 34.5908C9.42546 34.7182 9.27755 35.0697 9.40498 35.3785L9.40546 35.3798C9.52813 35.695 9.88438 35.8421 10.189 35.7232ZM20.0038 45.0097C19.702 44.866 19.3413 44.9942 19.1976 45.2958C19.054 45.5975 19.1821 45.9584 19.4837 46.102C19.7829 46.2445 20.1519 46.1256 20.2973 45.8147C20.4388 45.5121 20.3065 45.1513 20.0038 45.0097ZM8.83782 31.0526C8.91656 31.0422 8.99249 31.0164 9.06125 30.9767C9.13002 30.937 9.19028 30.8841 9.23861 30.821C9.28693 30.758 9.32236 30.6861 9.34288 30.6093C9.3634 30.5326 9.36861 30.4526 9.3582 30.3739C9.31916 30.0421 9.01905 29.8054 8.68676 29.8438C8.52743 29.8626 8.38208 29.9438 8.28268 30.0698C8.18328 30.1957 8.13796 30.3559 8.15671 30.5152C8.19655 30.8546 8.50626 31.0965 8.83782 31.0526ZM9.79889 32.6878C9.75943 32.5323 9.65982 32.3989 9.52197 32.3168C9.38411 32.2347 9.21931 32.2108 9.06381 32.2503C8.90832 32.2897 8.77486 32.3893 8.69281 32.5272C8.61075 32.665 8.58682 32.8298 8.62627 32.9853C8.70999 33.3154 9.04535 33.5096 9.36473 33.4273C9.68831 33.3441 9.8822 33.0114 9.79889 32.6878ZM26.828 46.755C26.7488 46.7492 26.6692 46.7591 26.5937 46.7841C26.5183 46.8091 26.4486 46.8487 26.3885 46.9007C26.3284 46.9526 26.2792 47.0159 26.2435 47.087C26.2079 47.158 26.1867 47.2353 26.181 47.3146C26.1566 47.6519 26.4173 47.9428 26.7569 47.9627C26.9168 47.9717 27.0737 47.9169 27.1933 47.8104C27.3129 47.7038 27.3853 47.5542 27.3948 47.3943C27.4042 47.2344 27.3498 47.0773 27.2436 46.9575C27.1373 46.8376 26.9879 46.7648 26.828 46.755ZM22.203 45.8799C22.1278 45.8544 22.0482 45.844 21.969 45.8493C21.8897 45.8545 21.8123 45.8753 21.741 45.9105C21.6698 45.9458 21.6062 45.9946 21.5539 46.0544C21.5016 46.1142 21.4616 46.1837 21.4362 46.259C21.3057 46.6443 21.6066 47.0605 22.0174 47.0605C22.2741 47.0605 22.5128 46.8965 22.5947 46.6393C22.696 46.3209 22.5214 45.9812 22.203 45.8799ZM24.4914 46.464L24.4733 46.4606C24.1443 46.4025 23.8287 46.6218 23.7707 46.9508C23.7126 47.2798 23.9304 47.5932 24.2594 47.6513C24.2989 47.6582 24.3382 47.6628 24.3769 47.6628C24.5271 47.6624 24.6717 47.6061 24.7827 47.5049C24.8937 47.4037 24.9631 47.2648 24.9774 47.1153C24.9917 46.9658 24.9498 46.8163 24.86 46.6959C24.7702 46.5756 24.6388 46.4929 24.4914 46.464Z" fill="black"/>
</g>
<defs>
<clipPath id="clip0_596_5165">
<rect width="40" height="40" fill="white" transform="translate(8 8)"/>
</clipPath>
</defs>
</svg>
