<svg width="56" height="56" fill="none" xmlns="http://www.w3.org/2000/svg"><g clip-path="url(#clip0_596_5179)"><path d="M45.71 8.61h-9.855c-.94 0-1.704.763-1.704 1.704v4.929c0 .941.763 1.704 1.704 1.704.55 0 .995.445.995.995v3.048c0 .387.51.528.71.196l2.252-3.756a.995.995 0 0 1 .853-.483h5.045c.941 0 1.704-.763 1.704-1.704v-4.929c0-.94-.763-1.704-1.704-1.704z" fill="#B3E59F"/><path d="M45.71 8.61h-5.104c.941 0 1.704.763 1.704 1.704v4.929c0 .941-.763 1.704-1.704 1.704h-4.75c.55 0 .995.445.995.995v3.048c0 .387.51.528.708.196l2.253-3.756a.995.995 0 0 1 .853-.483h5.045c.941 0 1.704-.763 1.704-1.704v-4.929c0-.94-.763-1.704-1.704-1.704z" fill="#95D6A4"/><path d="M28.327 32.452a1.706 1.706 0 0 1-1.384-1.676V26.09H20.42v4.686a1.71 1.71 0 0 1-1.384 1.676s9.732.085 9.29 0z" fill="#FFDDCE"/><path d="M30.135 32.8c-.464-.09-12.908 0-12.908 0a10.077 10.077 0 0 0-8.172 9.895v3.324c0 .753.61 1.364 1.365 1.364h26.523c.754 0 1.365-.61 1.365-1.364v-3.324c0-4.83-3.429-8.982-8.173-9.895z" fill="#FFD064"/><path d="M35.582 45.802h-23.8l-.632-11.63a1.799 1.799 0 0 1 1.796-1.897h21.471c1.032 0 1.852.866 1.796 1.896l-.631 11.63z" fill="#EAF2FF"/><path d="M34.417 32.275h-5.105c1.032 0 1.852.866 1.796 1.896l-.63 11.63h5.103l.631-11.63a1.799 1.799 0 0 0-1.795-1.896z" fill="#DBE8F9"/><path d="M37.517 44.87H9.846a1.26 1.26 0 1 0 0 2.52h27.671a1.26 1.26 0 1 0 0-2.52z" fill="#9BC4F9"/><path d="M37.517 44.87h-3.881v1.26a1.26 1.26 0 0 1-1.26 1.26h5.14a1.26 1.26 0 1 0 0-2.52zm-12.264 0c0-1.033.387-2.025 1.078-2.793l.015-.017a3.572 3.572 0 0 0-.902-5.49.307.307 0 0 0-.46.266v2.659a.807.807 0 0 1-.807.807h-.992a.807.807 0 0 1-.807-.807v-2.659a.307.307 0 0 0-.46-.266 3.572 3.572 0 0 0-.902 5.49l.015.017a4.175 4.175 0 0 1 1.078 2.793h3.144z" fill="#7FB2F9"/><path d="M30.503 19.891l-.436.002-.008-1.756c-.015-3.68-3.052-6.23-6.419-6.254-3.352.052-6.382 2.614-6.367 6.308l.005 1.239.002.518-.435.002c-.64.002-1.155.529-1.153 1.176l.006 1.298a1.164 1.164 0 0 0 1.162 1.166l.437-.002c.043 1.7.756 3.333 2.035 4.438 1.03.89 2.476 1.665 4.382 1.678 1.906-.03 3.345-.816 4.368-1.715 1.27-1.117 1.97-2.756 1.998-4.456l.438-.001a1.164 1.164 0 0 0 1.152-1.177l-.006-1.297a1.164 1.164 0 0 0-1.161-1.167z" fill="#FFDDCE"/><path d="M31.665 21.058a1.164 1.164 0 0 0-1.162-1.167l-.436.002-.008-1.756c-.012-2.935-1.946-5.149-4.436-5.938a6.14 6.14 0 0 1 .848 3.125l.02 8.21c-.028 1.7-.727 3.338-1.997 4.455a6.84 6.84 0 0 1-2.601 1.453 6.64 6.64 0 0 0 1.822.262c1.905-.03 3.345-.816 4.367-1.715 1.27-1.117 1.97-2.756 1.998-4.456l.438-.002a1.164 1.164 0 0 0 1.152-1.176l-.005-1.297z" fill="#FFCBBE"/><path d="M30.076 18.834v4.83h1.283c.719 0 1.302-.583 1.302-1.303v-2.225c0-.72-.583-1.302-1.302-1.302h-1.283zm-12.79 0v4.83h-1.282c-.72 0-1.303-.583-1.303-1.303v-2.225c0-.72.583-1.302 1.303-1.302h1.282z" fill="#9BC4F9"/><path d="M29.646 13.416h-.066a.659.659 0 0 1-.658-.658 1.95 1.95 0 0 0-1.95-1.95h-6.205a5 5 0 0 0-5 5v3.305a1.14 1.14 0 0 0 .765 1.077l1.232.429c.43.15.88-.17.88-.626l-.003-2.33c-.005-1.134.899-2.056 2.018-2.06l.024-.001a3.24 3.24 0 0 1 1.006.156 5.716 5.716 0 0 0 1.77.293h.444a5.713 5.713 0 0 0 1.77-.293 3.24 3.24 0 0 1 1.006-.156h.024c1.12.005 2.024.927 2.019 2.06l-.003 2.331c0 .456.45.776.88.626l1.231-.429a1.141 1.141 0 0 0 .766-1.077v-3.747a1.95 1.95 0 0 0-1.95-1.95z" fill="#756E78"/><path d="M29.647 13.416h-.066a.659.659 0 0 1-.659-.658 1.95 1.95 0 0 0-1.95-1.95h-2.474a6.094 6.094 0 0 1 1.973 4.516l.001.284c.069-.004.138-.006.207-.006h.025c1.12.005 2.023.927 2.018 2.06l-.002 2.331c0 .456.449.776.88.626l1.23-.429a1.14 1.14 0 0 0 .766-1.077v-3.747a1.95 1.95 0 0 0-1.95-1.95z" fill="#665E66"/><path d="M28.104 27.225h-1.471a1.016 1.016 0 0 1 0-2.032h1.47a1.016 1.016 0 1 1 0 2.032z" fill="#DB636E"/><path d="M44.79 10.91h-5.112a.586.586 0 1 0 0 1.172h5.113a.586.586 0 0 0 0-1.172zm-8.015 1.172h.623a.586.586 0 0 0 0-1.172h-.623a.586.586 0 1 0 0 1.172zm0 2.753h8.016a.586.586 0 0 0 0-1.172h-8.016a.586.586 0 1 0 0 1.172zm2.119 27.86c0-2.34-.781-4.636-2.205-6.492l.109-2a2.383 2.383 0 0 0-2.381-2.514h-6.414a1.117 1.117 0 0 1-.474-.913V29.14c.994-.643 1.692-1.376 2.205-2.25h1.134a2.382 2.382 0 0 0 2.38-2.378v-4.376c0-.738-.428-1.39-1.066-1.7v-3.07a2.538 2.538 0 0 0-2.536-2.536h-.066a.072.072 0 0 1-.072-.072 2.539 2.539 0 0 0-2.536-2.536h-6.205a5.593 5.593 0 0 0-5.586 5.586v2.629a1.888 1.888 0 0 0-1.066 1.699v2.225a1.89 1.89 0 0 0 1.889 1.889h.756c.196 1.656.973 3.168 2.19 4.22.279.24.574.463.884.663v1.643c0 .365-.18.704-.476.913h-6.412a2.383 2.383 0 0 0-2.381 2.514l.109 2a10.701 10.701 0 0 0-2.205 6.492v2.207A1.838 1.838 0 0 0 8 46.13c0 1.017.828 1.845 1.846 1.845h27.671a1.848 1.848 0 0 0 1.846-1.845c0-.471-.178-.901-.469-1.228v-2.207zm-1.172 0v1.6a1.85 1.85 0 0 0-.205-.011h-1.266l.33-6.093a9.521 9.521 0 0 1 1.141 4.504zM32.015 19.85c.04.09.06.188.06.286v2.226a.717.717 0 0 1-.716.716h-.697v-2.209l.361-.126c.447-.155.798-.483.992-.893zm-3.912 6.789h-1.47a.43.43 0 0 1 0-.86h1.47a.43.43 0 0 1 0 .86zm2.765-.92h-.592a6.9 6.9 0 0 0 .34-1.47h.743c.254 0 .495-.05.716-.14v.403c0 .665-.541 1.207-1.207 1.207zm-14.515-9.91a4.42 4.42 0 0 1 4.414-4.415h6.206c.752 0 1.363.612 1.363 1.364 0 .686.559 1.244 1.245 1.244h.065c.752 0 1.364.612 1.364 1.364v3.747a.556.556 0 0 1-.372.524l-1.232.429a.075.075 0 0 1-.092-.037.076.076 0 0 1-.008-.035l.002-2.329c.007-1.7-1.584-3.181-3.814-2.465-1.12.36-2.508.359-3.626 0-2.206-.71-3.82.747-3.813 2.463l.003 2.33a.076.076 0 0 1-.032.063.075.075 0 0 1-.07.01l-1.231-.43a.555.555 0 0 1-.372-.523v-3.305zm-1.066 6.553v-2.226c0-.099.021-.196.06-.286.195.41.546.738.993.893l.36.126v2.209h-.696a.717.717 0 0 1-.717-.716zm2.596 1.211c-.02-.77-.007-1.588-.01-2.337a1.248 1.248 0 0 0 1.357-1.244l-.003-2.332c-.004-.951.85-1.805 2.283-1.344a7.376 7.376 0 0 0 4.343 0c1.366-.44 2.287.333 2.283 1.346l-.002 2.33c-.001.726.62 1.308 1.356 1.244v2.384a5.778 5.778 0 0 1-.242 1.471 1.596 1.596 0 0 0-1.145-.484h-1.47c-.883 0-1.602.719-1.602 1.602 0 .883.719 1.602 1.602 1.602h.744c-1.082.844-2.313 1.285-3.665 1.307-2.958-.023-5.744-2.209-5.829-5.545zm3.123 7.203v-1.025c.847.35 1.75.532 2.704.54H23.724a7.148 7.148 0 0 0 2.633-.535v1.02c0 .32.067.63.19.913h-5.732a2.28 2.28 0 0 0 .19-.913zM10.78 38.191l.093 1.705a.586.586 0 1 0 1.17-.064l-.309-5.693a1.212 1.212 0 0 1 1.211-1.278h21.47c.695 0 1.25.58 1.212 1.279l-.55 10.144h-9.189c.112-.67.413-1.299.878-1.815l.017-.018c1.773-1.985 1.242-5.087-1.05-6.39a.893.893 0 0 0-1.336.775v2.659a.222.222 0 0 1-.22.22h-.992a.221.221 0 0 1-.221-.22v-2.659a.893.893 0 0 0-1.336-.775c-2.299 1.306-2.82 4.41-1.048 6.392l.015.016c.464.516.766 1.146.878 1.815h-9.188l-.094-1.732a.586.586 0 1 0-1.17.063l.09 1.669H9.846c-.07 0-.138.004-.205.011v-1.6c0-1.575.399-3.127 1.14-4.504zm11.877 6.093a4.763 4.763 0 0 0-1.19-2.599l-.015-.016a2.989 2.989 0 0 1 .34-4.304v2.13c0 .768.625 1.393 1.393 1.393h.991c.768 0 1.393-.625 1.393-1.393v-2.13a2.989 2.989 0 0 1 .338 4.306l-.012.014a4.763 4.763 0 0 0-1.19 2.599h-2.048zm14.859 2.52H9.846a.675.675 0 0 1 0-1.348h27.671a.675.675 0 0 1 0 1.348z" fill="#000"/><path d="M47.414 12.034a.586.586 0 0 0 .586-.586v-1.134a2.293 2.293 0 0 0-2.29-2.29h-9.855a2.293 2.293 0 0 0-2.29 2.29v4.93a2.293 2.293 0 0 0 2.29 2.29.41.41 0 0 1 .41.408v3.048c0 .44.285.815.709.933a.958.958 0 0 0 1.088-.435l2.252-3.756a.412.412 0 0 1 .351-.199h5.045a2.293 2.293 0 0 0 2.29-2.29v-1.055a.586.586 0 0 0-1.172 0v1.055a1.12 1.12 0 0 1-1.118 1.118h-5.045a1.59 1.59 0 0 0-1.356.768l-1.873 3.123v-2.31c0-.872-.709-1.58-1.58-1.58a1.12 1.12 0 0 1-1.119-1.119v-4.929a1.12 1.12 0 0 1 1.118-1.118h9.855a1.12 1.12 0 0 1 1.118 1.118v1.134a.586.586 0 0 0 .586.586z" fill="#000"/></g><defs><clipPath id="clip0_596_5179"><path fill="#fff" transform="translate(8 8)" d="M0 0h40v40H0z"/></clipPath></defs></svg>