<svg width="48" height="48" viewBox="0 0 48 48" fill="none" xmlns="http://www.w3.org/2000/svg">
<g clip-path="url(#clip0_1044_6083)">
<path d="M15.825 44.6597C19.2748 41.2099 19.2748 35.6167 15.825 32.167C12.3752 28.7172 6.78207 28.7172 3.3323 32.167C-0.117472 35.6167 -0.117473 41.2099 3.3323 44.6597C6.78207 48.1095 12.3752 48.1095 15.825 44.6597Z" fill="#F5DE8E"/>
<path d="M44.657 15.833C48.1068 12.3833 48.1068 6.79008 44.657 3.34031C41.2073 -0.109459 35.6141 -0.109458 32.1643 3.34031C28.7146 6.79008 28.7146 12.3833 32.1643 15.833C35.6141 19.2828 41.2073 19.2828 44.657 15.833Z" fill="#F5DE8E"/>
<path d="M44.6531 44.6626C48.1029 41.2129 48.1029 35.6197 44.6531 32.1699C41.2034 28.7201 35.6102 28.7201 32.1604 32.1699C28.7107 35.6197 28.7107 41.2128 32.1604 44.6626C35.6102 48.1124 41.2034 48.1124 44.6531 44.6626Z" fill="#F5DE8E"/>
<path d="M9.58369 45.5624C4.98966 45.5624 1.21519 42.0554 0.790313 37.5725C0.763577 37.853 0.750125 38.1345 0.75 38.4163C0.75 43.295 4.70503 47.2499 9.58369 47.2499C14.4624 47.2499 18.4174 43.295 18.4174 38.4163C18.4174 38.1316 18.4033 37.8503 18.3771 37.5725C17.9522 42.0554 14.1777 45.5624 9.58369 45.5624ZM38.4163 45.5624C33.8223 45.5624 30.0478 42.0554 29.6229 37.5725C29.5962 37.853 29.5828 38.1345 29.5826 38.4163C29.5826 43.2949 33.5377 47.2499 38.4163 47.2499C43.2951 47.2499 47.25 43.295 47.25 38.4163C47.25 38.1316 47.236 37.8503 47.2097 37.5725C46.7848 42.0554 43.0103 45.5624 38.4163 45.5624Z" fill="#EDD17A"/>
<path d="M15.8289 15.83C19.2787 12.3802 19.2787 6.78703 15.8289 3.33726C12.3792 -0.112511 6.78597 -0.11251 3.3362 3.33726C-0.113566 6.78703 -0.113566 12.3802 3.3362 15.83C6.78597 19.2797 12.3792 19.2797 15.8289 15.83Z" fill="#F5DE8E"/>
<path d="M38.4163 16.7299C33.8223 16.7299 30.0478 13.2228 29.6229 8.73999C29.5962 9.02045 29.5828 9.30201 29.5826 9.58374C29.5826 14.4625 33.5377 18.4174 38.4163 18.4174C43.295 18.4174 47.25 14.4625 47.25 9.58374C47.25 9.29912 47.236 9.01777 47.2097 8.73999C46.7848 13.2228 43.0103 16.7299 38.4163 16.7299ZM9.58369 16.7299C4.98966 16.7299 1.21519 13.2228 0.790313 8.73999C0.763577 9.02045 0.750125 9.30201 0.75 9.58374C0.75 14.4625 4.70503 18.4174 9.58369 18.4174C14.4624 18.4174 18.4174 14.4625 18.4174 9.58374C18.4174 9.29912 18.4033 9.01777 18.3771 8.73999C17.9522 13.2228 14.1777 16.7299 9.58369 16.7299Z" fill="#EDD17A"/>
<path d="M18.3788 8.7629C20.1611 8.05911 22.1033 7.6723 24.1358 7.6723C26.069 7.6723 27.9201 8.02302 29.6301 8.66277C29.7667 7.34025 30.202 6.06603 30.903 4.9363C28.7936 4.16099 26.5142 3.73743 24.1358 3.73743C21.6742 3.73743 19.3191 4.19221 17.1482 5.02002C17.8367 6.15829 18.2575 7.43814 18.3788 8.7629ZM38.5295 29.5842C39.92 29.6017 41.2331 29.9402 42.3979 30.5294C43.2718 28.3069 43.752 25.8864 43.752 23.3537C43.752 21.2269 43.4122 19.1798 42.7862 17.2621C41.6318 17.9207 40.3429 18.3086 39.0167 18.3966C39.5355 19.9548 39.8172 21.6213 39.8172 23.3537C39.8172 25.5679 39.3573 27.6743 38.5295 29.5842ZM9.58344 29.5827C9.6365 29.5827 9.68937 29.5838 9.74225 29.5848C8.91425 27.6747 8.45431 25.5681 8.45431 23.3538C8.45431 21.6265 8.73434 19.9648 9.25025 18.4106C7.8785 18.3597 6.58681 17.9962 5.44409 17.3889C4.84428 19.27 4.51953 21.2738 4.51953 23.3538C4.51953 25.8442 4.98472 28.2258 5.83119 30.4177C6.97016 29.8824 8.24169 29.5827 9.58344 29.5827ZM29.5824 38.4164C29.5824 38.2969 29.5855 38.1781 29.5902 38.0598C27.8913 38.6901 26.0539 39.0351 24.1358 39.0351C22.1133 39.0351 20.1803 38.652 18.4051 37.9548C18.413 38.1077 18.417 38.2615 18.417 38.4164C18.417 39.6501 18.1638 40.8245 17.7071 41.891C19.7212 42.5894 21.8839 42.9699 24.1357 42.9699C26.2995 42.9699 28.3811 42.6186 30.3276 41.9716C29.8488 40.8837 29.5824 39.6813 29.5824 38.4164Z" fill="#D75950"/>
<path d="M4.53906 24.2232C4.63422 26.3987 5.08375 28.4821 5.83113 30.4175C5.99418 30.3411 6.15954 30.2697 6.32697 30.2035C5.41356 28.319 4.80985 26.2997 4.53906 24.2232ZM43.6177 21.0547C43.6237 21.2539 43.6277 21.4536 43.6277 21.6543C43.6277 24.7188 42.9249 27.6191 41.6725 30.2034C41.9191 30.301 42.1611 30.4097 42.3978 30.5292C43.2717 28.3067 43.7519 25.8863 43.7519 23.3535C43.7519 22.5853 43.7071 21.8177 43.6177 21.0547ZM23.9997 41.2823C21.9774 41.2823 20.0267 40.9761 18.191 40.4082C18.074 40.9157 17.9121 41.4119 17.7071 41.8907C19.7212 42.5892 21.8839 42.9697 24.1357 42.9697C26.2996 42.9697 28.3811 42.6184 30.3276 41.9713C30.1061 41.4676 29.9324 40.9442 29.8089 40.408C27.973 40.9761 26.0222 41.2823 23.9997 41.2823Z" fill="#CA4844"/>
<path d="M29.9159 29.9199C33.1853 26.6504 33.1853 21.3496 29.9159 18.0801C26.6464 14.8107 21.3456 14.8107 18.0761 18.0801C14.8067 21.3496 14.8067 26.6504 18.0761 29.9199C21.3456 33.1893 26.6464 33.1893 29.9159 29.9199Z" fill="#AADEFD"/>
<path d="M11.4267 34.5193C11.8158 34.5193 12.1312 34.2039 12.1312 33.8147C12.1312 33.4256 11.8158 33.1102 11.4267 33.1102C9.83544 33.1102 8.68878 33.4172 7.81784 34.0763C7.12381 34.6015 6.64175 35.3428 6.37381 36.2895H5.63422C5.24506 36.2895 4.92969 36.6048 4.92969 36.994C4.92969 37.3831 5.24506 37.6985 5.63422 37.6985H6.14328C6.131 37.8891 6.12331 38.084 6.12331 38.2861C6.12331 38.4881 6.131 38.6831 6.14328 38.8737H5.63422C5.24506 38.8737 4.92969 39.1891 4.92969 39.5782C4.92969 39.9674 5.24506 40.2827 5.63422 40.2827H6.37381C6.64175 41.2293 7.12391 41.9705 7.81784 42.4958C8.68878 43.155 9.83544 43.462 11.4267 43.462C11.8158 43.462 12.1312 43.1466 12.1312 42.7575C12.1312 42.3683 11.8158 42.0529 11.4267 42.0529C9.4925 42.0529 8.36 41.5184 7.85319 40.2826H10.3408C10.73 40.2826 11.0454 39.9673 11.0454 39.5781C11.0454 39.189 10.73 38.8736 10.3408 38.8736H7.55338C7.53978 38.6866 7.53228 38.4915 7.53228 38.286C7.53228 38.0805 7.53978 37.8855 7.55338 37.6984H10.3409C10.7301 37.6984 11.0455 37.3831 11.0455 36.9939C11.0455 36.6047 10.7301 36.2894 10.3409 36.2894H7.85328C8.36 35.0538 9.49259 34.5193 11.4267 34.5193ZM35.2761 10.1014H36.5954L36.6054 10.1867C36.7082 11.1072 36.6543 11.4504 35.9188 12.4382L35.1795 13.3676C34.8109 13.8014 35.1556 14.5242 35.7247 14.5107L41.5039 14.5618H41.5102C41.6947 14.559 41.8707 14.484 42.0005 14.3528C42.1302 14.2216 42.2034 14.0448 42.2042 13.8603C42.205 13.6758 42.1334 13.4984 42.0048 13.3661C41.8762 13.2338 41.7008 13.1572 41.5164 13.1528L37.1699 13.1144C37.9522 12.0254 38.1402 11.3335 38.0127 10.1015H39.3349C39.7241 10.1015 40.0394 9.78615 40.0394 9.39699C40.0394 9.00783 39.7241 8.69246 39.3349 8.69246H37.671C37.3891 8.27152 36.8983 7.38661 36.9014 6.6578L36.9013 6.65499L36.9014 6.65218C36.8997 6.17939 37.1058 5.83271 37.5314 5.59243C38.1756 5.22896 39.1768 5.22324 39.7631 5.57968C40.2214 5.85839 40.5682 6.25008 40.6681 6.60202C40.6934 6.69103 40.7359 6.77419 40.7933 6.84676C40.8507 6.91933 40.9218 6.97988 41.0026 7.02495C41.0834 7.07002 41.1723 7.09873 41.2642 7.10944C41.3561 7.12015 41.4492 7.11265 41.5382 7.08736C41.718 7.03633 41.8701 6.916 41.9611 6.75283C42.0521 6.58966 42.0746 6.39701 42.0236 6.21727C41.8248 5.51658 41.2676 4.84533 40.4952 4.37574C39.4699 3.75221 37.932 3.74818 36.8387 4.36543C35.9703 4.85583 35.4928 5.66546 35.4928 6.64618C35.4928 6.64805 35.4925 6.64983 35.4925 6.65171L35.4926 6.65424L35.4925 6.65733C35.4925 6.66024 35.4928 6.66296 35.4929 6.66586C35.4932 7.40368 35.7634 8.13352 36.0433 8.69236H35.2762C35.1837 8.69235 35.092 8.71057 35.0066 8.74597C34.9211 8.78137 34.8434 8.83326 34.778 8.89869C34.7126 8.96411 34.6607 9.04178 34.6253 9.12727C34.5899 9.21275 34.5716 9.30437 34.5717 9.39689C34.5716 9.48941 34.5898 9.58103 34.6252 9.66651C34.6606 9.752 34.7125 9.82967 34.7779 9.8951C34.8433 9.96052 34.921 10.0124 35.0065 10.0478C35.092 10.0832 35.1836 10.1014 35.2761 10.1014Z" fill="black"/>
<path d="M43.306 30.2213C44.0948 28.022 44.4954 25.7145 44.4954 23.3524C44.4954 21.3813 44.213 19.4356 43.657 17.56C46.2697 15.8528 48 12.9026 48 9.55547C48 4.28653 43.7135 0 38.4445 0C35.2223 0 32.3676 1.6035 30.6359 4.05412C28.5469 3.35044 26.3633 2.99316 24.1363 2.99316C21.8312 2.99316 19.5739 3.37613 17.4172 4.13063C15.6911 1.63697 12.811 0 9.55547 0C4.28653 0 0 4.28653 0 9.55547C0 12.9998 1.83206 16.0242 4.57275 17.7059C4.04408 19.5414 3.77627 21.4422 3.77719 23.3524C3.77719 25.6653 4.16269 27.9288 4.92141 30.0906C1.98862 31.7239 0 34.8562 0 38.4445C0 43.7135 4.28653 48 9.55547 48C13.2612 48 16.481 45.8796 18.0653 42.7883C20.0257 43.4004 22.0647 43.7115 24.1363 43.7115C26.1242 43.7115 28.0843 43.4247 29.9726 42.8603C31.5698 45.9123 34.7677 48 38.4445 48C43.7135 48 48 43.7135 48 38.4445C48 34.9497 46.1137 31.8876 43.306 30.2213ZM38.4445 1.40897C42.9365 1.40897 46.5909 5.06344 46.5909 9.55538C46.5909 14.0474 42.9365 17.7019 38.4445 17.7019C33.9525 17.7019 30.298 14.0474 30.298 9.55538C30.298 5.06353 33.9525 1.40897 38.4445 1.40897ZM39.9651 18.9895C40.8031 18.8551 41.6193 18.6087 42.3917 18.257C42.8536 19.916 43.0873 21.6302 43.0864 23.3524C43.0864 25.4958 42.7322 27.5903 42.0349 29.5897C41.2454 29.2684 40.4162 29.0551 39.5696 28.9556C40.2217 27.1637 40.5529 25.2835 40.5529 23.3524C40.5529 21.8695 40.3549 20.4059 39.9651 18.9895ZM24.1363 4.40222C26.1062 4.40222 28.0392 4.70156 29.8943 5.29294C29.5139 6.05239 29.2373 6.85952 29.0719 7.69266C27.4797 7.19072 25.8235 6.93572 24.1363 6.93572C22.355 6.93572 20.6126 7.21828 18.9439 7.77487C18.7862 6.94133 18.5173 6.13273 18.1445 5.37075C20.072 4.72809 22.0837 4.40222 24.1363 4.40222ZM1.40897 9.55547C1.40897 5.06353 5.06344 1.40906 9.55538 1.40906C14.0474 1.40906 17.7019 5.06353 17.7019 9.55547C17.7019 14.0475 14.0474 17.702 9.55538 17.702C5.06353 17.702 1.40897 14.0474 1.40897 9.55547ZM8.69316 28.9283C7.8424 29.0044 7.00583 29.1952 6.20616 29.4953C5.52975 27.5226 5.18616 25.4598 5.18616 23.3523C5.18616 21.6583 5.41003 19.984 5.85131 18.3636C6.63307 18.6935 7.45562 18.9169 8.29688 19.0279C7.91301 20.4373 7.71889 21.8916 7.71966 23.3523C7.71966 25.2738 8.04759 27.1446 8.69316 28.9283ZM9.55547 46.591C5.06353 46.591 1.40906 42.9366 1.40906 38.4446C1.40906 33.9526 5.06353 30.2981 9.55547 30.2981C14.0475 30.2981 17.702 33.9526 17.702 38.4446C17.702 42.9365 14.0474 46.591 9.55547 46.591ZM24.1363 42.3025C22.2533 42.3025 20.3997 42.0271 18.6152 41.484C18.8872 40.6745 19.0488 39.832 19.0957 38.9793C20.7186 39.5031 22.4093 39.7689 24.1362 39.7689C25.7662 39.7689 27.3672 39.5311 28.9095 39.0626C28.9636 39.9131 29.132 40.7524 29.4102 41.558C27.702 42.0522 25.9314 42.3025 24.1363 42.3025ZM28.9288 37.5771C27.3884 38.0962 25.7785 38.36 24.1363 38.36C22.3911 38.36 20.6866 38.0635 19.0625 37.4798C18.5982 32.8711 14.8454 29.2189 10.1931 28.9108C9.48694 27.1432 9.12862 25.2757 9.12862 23.3524C9.12769 21.9159 9.333 20.4868 9.73828 19.1087C14.923 19.0107 19.1108 14.7632 19.1108 9.55547C19.1108 9.43978 19.108 9.32484 19.1039 9.21019C20.7151 8.63634 22.4053 8.34478 24.1361 8.34478C25.7678 8.34478 27.3675 8.60531 28.8993 9.11812C28.8927 9.26316 28.8889 9.40884 28.8889 9.55547C28.8889 14.8244 33.1755 19.111 38.4444 19.111C38.4745 19.111 38.5044 19.1102 38.5345 19.1099C38.9386 20.4831 39.1437 21.9076 39.1437 23.3525C39.1437 25.2705 38.7873 27.1331 38.0848 28.8966C33.272 29.0755 29.358 32.831 28.9288 37.5771ZM38.4445 46.591C33.9525 46.591 30.298 42.9366 30.298 38.4446C30.298 33.9526 33.9525 30.2981 38.4445 30.2981C42.9365 30.2981 46.5909 33.9526 46.5909 38.4446C46.591 42.9365 42.9365 46.591 38.4445 46.591Z" fill="black"/>
<path d="M41.7334 33.3298C41.6563 33.2788 41.5699 33.2434 41.479 33.2257C41.3882 33.208 41.2948 33.2084 41.2041 33.2269C41.1135 33.2453 41.0273 33.2814 40.9506 33.3332C40.8739 33.3849 40.8082 33.4512 40.7571 33.5284L38.4582 37.002L36.1367 33.5046C36.0319 33.3523 35.8715 33.2473 35.69 33.2122C35.5085 33.177 35.3205 33.2146 35.1665 33.3169C35.0125 33.4191 34.9048 33.5777 34.8667 33.7586C34.8285 33.9394 34.863 34.1281 34.9626 34.2837L37.4176 37.982H35.5556C35.1664 37.982 34.8511 38.2974 34.8511 38.6865C34.8511 39.0757 35.1664 39.3911 35.5556 39.3911H37.7515L37.7492 40.3801H35.5555C35.1663 40.3801 34.851 40.6955 34.851 41.0847C34.851 41.4738 35.1663 41.7892 35.5555 41.7892H37.746L37.7432 43.0011C37.7429 43.0936 37.7609 43.1853 37.7961 43.2708C37.8313 43.3564 37.8831 43.4342 37.9483 43.4997C38.0136 43.5653 38.0911 43.6174 38.1765 43.653C38.2619 43.6886 38.3535 43.707 38.446 43.7072H38.4477C38.6342 43.7072 38.8132 43.6332 38.9452 43.5014C39.0773 43.3697 39.1517 43.1909 39.1522 43.0044L39.155 41.7892H41.3387C41.7278 41.7892 42.0432 41.4738 42.0432 41.0847C42.0432 40.6955 41.7278 40.3801 41.3387 40.3801H39.1582L39.1605 39.3911H41.3386C41.7277 39.3911 42.0431 39.0757 42.0431 38.6865C42.0431 38.2974 41.7277 37.982 41.3386 37.982H39.4992L41.932 34.3062C41.9831 34.229 42.0185 34.1426 42.0361 34.0518C42.0538 33.9609 42.0534 33.8675 42.0349 33.7769C42.0165 33.6862 41.9804 33.6001 41.9286 33.5234C41.8769 33.4467 41.8106 33.3809 41.7334 33.3298ZM10.2073 14.7552V14.1927C11.4421 13.8928 12.2341 12.8441 12.408 11.81C12.6331 10.4709 11.9335 9.30687 10.6258 8.84469C10.4859 8.79534 10.3463 8.7448 10.2073 8.69309V6.25109C10.505 6.353 10.6791 6.5 10.6927 6.5119C10.824 6.63956 10.9999 6.71091 11.1829 6.71075C11.327 6.71069 11.4677 6.66648 11.5859 6.58407C11.7041 6.50166 11.7942 6.38501 11.8441 6.24983C11.894 6.11465 11.9013 5.96742 11.865 5.82797C11.8287 5.68852 11.7505 5.56355 11.641 5.46987C11.6083 5.43959 11.0778 4.96203 10.2074 4.79844V4.35565C10.2074 3.9665 9.892 3.65112 9.50284 3.65112C9.11369 3.65112 8.79831 3.9665 8.79831 4.35565V4.84784C8.74365 4.86162 8.68844 4.87681 8.63256 4.89359C7.76584 5.15469 7.1184 5.89494 6.94309 6.82559C6.7824 7.67844 7.0585 8.50297 7.66356 8.97753C7.95672 9.2074 8.3154 9.41815 8.79831 9.638V12.8425C8.43597 12.7976 8.17103 12.6832 7.75065 12.4082C7.59431 12.3088 7.40507 12.2749 7.22393 12.314C7.04279 12.3531 6.88435 12.4619 6.78291 12.617C6.68147 12.7721 6.64521 12.9609 6.68198 13.1425C6.71876 13.3241 6.8256 13.4839 6.97937 13.5873C7.69037 14.0524 8.18875 14.2101 8.79831 14.2584V14.755C8.7983 14.8475 8.81651 14.9391 8.85191 15.0246C8.88732 15.1101 8.93921 15.1877 9.00464 15.2532C9.07006 15.3186 9.14773 15.3705 9.23321 15.4059C9.3187 15.4413 9.41032 15.4595 9.50284 15.4595C9.59535 15.4595 9.68695 15.4413 9.77243 15.4059C9.8579 15.3705 9.93556 15.3187 10.001 15.2533C10.0664 15.1879 10.1183 15.1102 10.1537 15.0247C10.1891 14.9393 10.2073 14.8477 10.2073 14.7552ZM10.2073 10.1925C11.1152 10.5432 11.0585 11.3375 11.0184 11.5763C10.9459 12.0073 10.6707 12.4619 10.2073 12.7002V10.1925ZM8.79831 8.05062C8.70652 7.99516 8.61797 7.9345 8.53309 7.86894C8.34644 7.7224 8.26572 7.41537 8.32769 7.08669C8.37597 6.83075 8.5239 6.53234 8.79831 6.35469V8.05062ZM23.9987 14.9071C18.9849 14.9071 14.9058 18.9862 14.9058 23.9999C14.9058 29.0137 18.9849 33.0927 23.9987 33.0927C29.0124 33.0927 33.0915 29.0137 33.0915 23.9999C33.0915 18.9862 29.0124 14.9071 23.9987 14.9071ZM30.8353 20.4994H28.204C28.0037 19.499 27.7174 18.5756 27.3516 17.7756C27.2025 17.4493 27.0423 17.1494 26.8728 16.876C28.5872 17.5701 29.9951 18.8652 30.8353 20.4994ZM27.1298 23.9999C27.1298 24.7362 27.0856 25.4354 27.0062 26.0915H20.9912C20.9117 25.4354 20.8674 24.7362 20.8674 23.9999C20.8674 23.2636 20.9117 22.5644 20.9912 21.9084H27.0061C27.0856 22.5644 27.1298 23.2636 27.1298 23.9999ZM23.9987 16.3161C25.0568 16.3161 26.201 17.9277 26.7683 20.4993H21.2291C21.7963 17.9277 22.9405 16.3161 23.9987 16.3161ZM21.1246 16.8759C20.9551 17.1494 20.7949 17.4492 20.6458 17.7755C20.28 18.5755 19.9937 19.4988 19.7934 20.4993H17.1621C18.0022 18.8652 19.4101 17.5701 21.1246 16.8759ZM16.3148 23.9999C16.3148 23.2749 16.4179 22.5738 16.6066 21.9084H19.5743C19.4982 22.586 19.4584 23.2868 19.4584 23.9999C19.4584 24.7131 19.4981 25.4139 19.5743 26.0915H16.6066C16.4132 25.4111 16.315 24.7073 16.3148 23.9999ZM17.162 27.5006H19.7933C19.9936 28.501 20.2799 29.4244 20.6457 30.2244C20.7948 30.5506 20.955 30.8505 21.1245 31.124C19.4101 30.4298 18.0022 29.1346 17.162 27.5006ZM23.9987 31.6838C22.9405 31.6838 21.7963 30.0721 21.229 27.5006H26.7682C26.201 30.0721 25.0568 31.6838 23.9987 31.6838ZM26.8723 31.1242C27.0419 30.8505 27.2023 30.5508 27.3515 30.2243C27.7173 29.4243 28.0037 28.501 28.2039 27.5005H30.8352C29.995 29.1348 28.587 30.4301 26.8723 31.1242ZM28.423 26.0915C28.5005 25.397 28.5391 24.6987 28.5388 23.9999C28.5388 23.2868 28.4991 22.586 28.423 21.9084H31.3907C31.5794 22.5739 31.6825 23.2749 31.6825 23.9999C31.6825 24.725 31.5794 25.4261 31.3907 26.0915H28.423Z" fill="black"/>
</g>
<defs>
<clipPath id="clip0_1044_6083">
<rect width="48" height="48" fill="white"/>
</clipPath>
</defs>
</svg>
