<svg width="56" height="56" fill="none" xmlns="http://www.w3.org/2000/svg"><g clip-path="url(#clip0_971_4179)"><path d="M43.654 29.75c-.674 6.09-4.813 11.13-10.404 13.108a15.823 15.823 0 0 1-5.25.892c-8.102 0-14.779-6.125-15.654-14A16.508 16.508 0 0 1 12.25 28c0-.595.035-1.172.096-1.75.875-7.875 7.552-14 15.654-14a15.65 15.65 0 0 1 10.693 4.191A15.691 15.691 0 0 1 43.75 28c0 .595-.035 1.172-.096 1.75z" fill="#FCD770"/><path d="M28 15.75c6.764 0 12.25 5.486 12.25 12.25S34.764 40.25 28 40.25 15.75 34.764 15.75 28 21.236 15.75 28 15.75z" fill="#FFEAA7"/><path d="M14 38.5v14c0 .962-.787 1.75-1.75 1.75H3.5c-.962 0-1.75-.788-1.75-1.75v-14c0-.962.788-1.75 1.75-1.75h8.75c.963 0 1.75.788 1.75 1.75zm40.25 0v1.75H42V38.5c0-.962.788-1.75 1.75-1.75h8.75c.962 0 1.75.788 1.75 1.75zm0 12.25v1.75c0 .962-.788 1.75-1.75 1.75h-8.75c-.962 0-1.75-.788-1.75-1.75v-1.75h12.25zm-.263-36.225a1.31 1.31 0 0 1-1.05 2.1H39.813l-.928-.385a1.302 1.302 0 0 1-.385-.927c0-.28.096-.56.263-.788l1.706-2.275H52.28l1.706 2.275z" fill="#969FAA"/><path d="M52.5 3.5v8.75H40.25V3.5c0-.962.788-1.75 1.75-1.75h8.75c.962 0 1.75.788 1.75 1.75z" fill="#CCD1D9"/><path d="M12.855 16.415a.872.872 0 0 1-.85 1.085h-6.51a.874.874 0 0 1-.848-1.085L5.251 14h7l.604 2.415z" fill="#AAB2BD"/><path d="M15.75 10.5v1.75c0 .963-.787 1.75-1.75 1.75H3.5c-.962 0-1.75-.787-1.75-1.75V10.5h14z" fill="#CCD1D9"/><path d="M15.75 3.5v7h-14v-7c0-.962.788-1.75 1.75-1.75H14c.963 0 1.75.788 1.75 1.75zm28 1.75H49v3.5h-5.25v-3.5zm-1.75 35h12.25v10.5H42v-10.5zm-36.75 0h5.25v7H5.25v-7z" fill="#69D6F4"/><path d="M24.5 24.5h7.875c.481 0 .875.394.875.875v8.75a.878.878 0 0 1-.875.875h-8.75a.878.878 0 0 1-.875-.875v-8.75c0-.481.394-.875.875-.875h.875z" fill="#AAB2BD"/><path d="M28 30.625a1.75 1.75 0 1 0 0-3.5 1.75 1.75 0 0 0 0 3.5z" fill="#B4DD7F"/><path d="M33.25 49a1.75 1.75 0 1 0 0-3.5 1.75 1.75 0 0 0 0 3.5zM28 54.25a1.75 1.75 0 1 0 0-3.5 1.75 1.75 0 0 0 0 3.5zM21 50.75a1.75 1.75 0 1 0 0-3.5 1.75 1.75 0 0 0 0 3.5zM33.25 10.5a1.75 1.75 0 1 0 0-3.5 1.75 1.75 0 0 0 0 3.5zM28 5.25a1.75 1.75 0 1 0 0-3.5 1.75 1.75 0 0 0 0 3.5zM21 8.75a1.75 1.75 0 1 0 0-3.5 1.75 1.75 0 0 0 0 3.5z" fill="#FF826E"/><path d="M28 14.875c-7.237 0-13.125 5.888-13.125 13.125S20.763 41.125 28 41.125 41.125 35.237 41.125 28 35.237 14.875 28 14.875zm0 24.5c-6.272 0-11.375-5.103-11.375-11.375S21.728 16.625 28 16.625 39.375 21.728 39.375 28 34.272 39.375 28 39.375z" fill="#000"/><path d="M32.375 23.625v-.875A4.38 4.38 0 0 0 28 18.375a4.38 4.38 0 0 0-4.375 4.375v.875c-.965 0-1.75.785-1.75 1.75v8.75c0 .965.785 1.75 1.75 1.75h8.75c.965 0 1.75-.785 1.75-1.75v-8.75c0-.965-.785-1.75-1.75-1.75zm-7-.875A2.628 2.628 0 0 1 28 20.125a2.628 2.628 0 0 1 2.625 2.625v.875h-5.25v-.875zm-1.75 11.375v-8.75h8.75v8.75h-8.75z" fill="#000"/><path d="M28 26.25a2.628 2.628 0 0 0-2.625 2.625c0 1.14.734 2.102 1.75 2.464v1.911h1.75v-1.911a2.622 2.622 0 0 0 1.75-2.464A2.628 2.628 0 0 0 28 26.25zm0 3.5A.876.876 0 0 1 28 28a.876.876 0 0 1 0 1.75zM42.875 9.625h7v-5.25h-7v5.25zm1.75-3.5h3.5v1.75h-3.5v-1.75zm-40.25 42h7v-8.75h-7v8.75zm1.75-7h3.5v5.25h-3.5v-5.25zm0 8.75h3.5v1.75h-3.5v-1.75z" fill="#000"/><path d="M52.5 35.875h-4.375v-7H44.58c.016-.291.045-.58.045-.875 0-.296-.029-.584-.045-.875h3.545V17.5h4.813a2.19 2.19 0 0 0 1.75-3.5l-1.313-1.75V3.5A2.628 2.628 0 0 0 50.75.875H42A2.628 2.628 0 0 0 39.375 3.5v8.75L38.062 14c-.129.175-.23.367-.302.57a16.602 16.602 0 0 0-3.635-2.011v-1.345a2.622 2.622 0 0 0 1.75-2.464 2.628 2.628 0 0 0-2.625-2.625 2.628 2.628 0 0 0-2.625 2.625c0 1.14.734 2.102 1.75 2.464v.765a16.49 16.49 0 0 0-3.5-.56V5.965a2.621 2.621 0 0 0 1.75-2.464A2.628 2.628 0 0 0 28 .875 2.628 2.628 0 0 0 25.375 3.5c0 1.14.734 2.102 1.75 2.464v5.456c-1.8.09-3.574.475-5.25 1.139V9.464A2.621 2.621 0 0 0 23.625 7 2.628 2.628 0 0 0 21 4.375 2.628 2.628 0 0 0 18.375 7c0 1.14.734 2.102 1.75 2.464v3.9a16.654 16.654 0 0 0-8.522 12.011H9.625v-7h2.38c.542 0 1.044-.245 1.378-.673.334-.428.45-.975.319-1.502l-.332-1.325H14a2.628 2.628 0 0 0 2.625-2.625V3.5A2.628 2.628 0 0 0 14 .875H3.5A2.628 2.628 0 0 0 .875 3.5v8.75A2.628 2.628 0 0 0 3.5 14.875h.63l-.333 1.326a1.742 1.742 0 0 0 .32 1.502 1.74 1.74 0 0 0 1.379.672h2.379v8.75h3.545c-.016.291-.045.58-.045.875 0 .296.029.584.045.875H7.875v7H3.5A2.628 2.628 0 0 0 .875 38.5v14A2.628 2.628 0 0 0 3.5 55.125h8.75a2.628 2.628 0 0 0 2.625-2.625v-14c0-.132-.02-.259-.04-.386a16.735 16.735 0 0 0 5.29 4.522v3.9A2.622 2.622 0 0 0 18.375 49 2.628 2.628 0 0 0 21 51.625 2.628 2.628 0 0 0 23.625 49a2.622 2.622 0 0 0-1.75-2.464v-3.095c1.676.664 3.45 1.05 5.25 1.14v5.455a2.622 2.622 0 0 0-1.75 2.464A2.628 2.628 0 0 0 28 55.125a2.628 2.628 0 0 0 2.625-2.625 2.622 2.622 0 0 0-1.75-2.464V44.58a16.542 16.542 0 0 0 3.5-.559v.765a2.622 2.622 0 0 0-1.75 2.464 2.628 2.628 0 0 0 2.625 2.625 2.628 2.628 0 0 0 2.625-2.625 2.622 2.622 0 0 0-1.75-2.464v-1.345a16.682 16.682 0 0 0 7.04-5.327c-.02.127-.04.254-.04.386v14a2.628 2.628 0 0 0 2.625 2.625h8.75a2.628 2.628 0 0 0 2.625-2.625v-14a2.628 2.628 0 0 0-2.625-2.625zm-19.25-28a.876.876 0 1 1 .002 1.751.876.876 0 0 1-.002-1.751zM21 6.125a.876.876 0 1 1 .002 1.751A.876.876 0 0 1 21 6.125zm-17.5-3.5H14c.483 0 .875.393.875.875v6.125H2.625V3.5c0-.482.392-.875.875-.875zm-.875 9.625v-.875h12.25v.875a.876.876 0 0 1-.875.875H3.5a.876.876 0 0 1-.875-.875zm2.87 4.375l.438-1.75h5.634l.436 1.75H5.495zM21 49.875a.876.876 0 0 1 0-1.75.876.876 0 0 1 0 1.75zm12.25-1.75a.876.876 0 0 1 0-1.75.876.876 0 0 1 0 1.75zM53.375 38.5v.875h-10.5V38.5c0-.482.392-.875.875-.875h8.75c.483 0 .875.393.875.875zm-10.5 2.625h10.5v8.75h-10.5v-8.75zm3.5-15.75h-1.978a16.547 16.547 0 0 0-3.522-7.875h5.5v7.875zM41.125 3.5c0-.482.392-.875.875-.875h8.75c.483 0 .875.393.875.875v7.875h-10.5V3.5zm-1.663 11.55l1.444-1.925h10.938l1.443 1.924a.436.436 0 0 1-.35.701H39.813a.438.438 0 0 1-.35-.7zM28 2.625a.876.876 0 1 1 .002 1.751A.876.876 0 0 1 28 2.625zM13.125 52.5a.876.876 0 0 1-.875.875H3.5a.876.876 0 0 1-.875-.875v-14c0-.482.392-.875.875-.875h8.75c.483 0 .875.393.875.875v14zm-.875-16.625H9.625v-5.25h1.978c.314 1.982.988 3.89 1.987 5.63a2.602 2.602 0 0 0-1.34-.38zM28 53.375a.876.876 0 0 1 0-1.75.876.876 0 0 1 0 1.75zm0-10.5c-8.202 0-14.875-6.673-14.875-14.875S19.798 13.125 28 13.125 42.875 19.798 42.875 28 36.202 42.875 28 42.875zm16.397-12.25h1.978v5.25H43.75c-.49 0-.946.144-1.34.38 1-1.74 1.673-3.648 1.987-5.63zm8.103 22.75h-8.75a.876.876 0 0 1-.875-.875v-.875h10.5v.875a.876.876 0 0 1-.875.875z" fill="#000"/></g><defs><clipPath id="clip0_971_4179"><path fill="#fff" d="M0 0h56v56H0z"/></clipPath></defs></svg>