<svg width="56" height="56" fill="none" xmlns="http://www.w3.org/2000/svg"><path d="M27.069 3.733v3.034a16.59 16.59 0 0 0-5.6.009V3.733a2.8 2.8 0 1 1 5.6 0z" fill="#FF9801"/><path d="M42.935 42.933H5.602l1.232-6.785c.42-2.316.633-4.665.634-7.019v-5.796a16.79 16.79 0 0 1 14-16.557 16.73 16.73 0 0 1 13.916 3.967A12.133 12.133 0 0 0 41.068 33.6c.087.002.175-.002.262-.01.093.85.214 1.709.373 2.558l1.232 6.785z" fill="#FFDF00"/><path d="M41.705 36.148c-.16-.85-.28-1.708-.374-2.557-.087.008-.174.01-.261.009a12.133 12.133 0 0 1-5.684-22.857 16.73 16.73 0 0 0-12.48-4.15c.461.038.917.093 1.364.174a16.73 16.73 0 0 1 8.316 3.976A12.132 12.132 0 0 0 38.27 33.6c.087.002.174-.002.261-.01.093.85.215 1.709.373 2.558l1.232 6.785h2.8l-1.231-6.785z" fill="#FEC108"/><path d="M46.667 46.667a3.729 3.729 0 0 1-3.733 3.733H5.6a3.733 3.733 0 1 1 0-7.467h37.333a3.733 3.733 0 0 1 3.733 3.734z" fill="#FFEB3A"/><path d="M42.937 42.933h-2.8a3.734 3.734 0 0 1 0 7.467h2.8a3.733 3.733 0 1 0 0-7.467z" fill="#FDD834"/><path d="M28.935 50.4a4.667 4.667 0 0 1-9.333 0h9.333z" fill="#FF9801"/><path d="M26.134 50.4a4.574 4.574 0 0 1-3.267 4.43c.452.15.924.23 1.4.237a4.653 4.653 0 0 0 4.667-4.667h-2.8z" fill="#F57C00"/><path d="M53.2 21.467c.004 6.598-5.273 11.988-11.872 12.124-.087.008-.174.01-.261.009-6.701 0-12.133-5.432-12.133-12.133 0-6.702 5.432-12.134 12.133-12.134 6.701 0 12.133 5.432 12.133 12.134z" fill="#F44335"/><path d="M41.069 9.333c-.468.002-.936.031-1.4.087a12.125 12.125 0 0 1-.009 24.091c.467.057.938.087 1.409.089.087.002.174-.002.26-.01 6.577-.238 11.764-5.676 11.693-12.255-.071-6.58-5.373-11.905-11.953-12.002z" fill="#C81E1E"/><path d="M11.203 24.267a.933.933 0 0 1-.933-.934 13.932 13.932 0 0 1 5.348-11 .932.932 0 0 1 1.476.48.932.932 0 0 1-.321.987 12.074 12.074 0 0 0-4.637 9.533.933.933 0 0 1-.933.934z" fill="#F5F5F5"/><path d="M26.908 1.095a3.733 3.733 0 0 0-6.372 2.638v2.27a17.758 17.758 0 0 0-14 17.33v5.796a38.517 38.517 0 0 1-.62 6.852l-1.107 6.1a4.66 4.66 0 0 0 .793 9.252h13.151a5.593 5.593 0 0 0 11.032 0h13.15a4.66 4.66 0 0 0 .794-9.253l-1.108-6.104a27.65 27.65 0 0 1-.239-1.509 13.069 13.069 0 0 0 11.33-16.488A13.066 13.066 0 0 0 35.52 9.654a17.672 17.672 0 0 0-7.518-3.64v-2.28a3.707 3.707 0 0 0-1.094-2.64zm-4.506 2.638a1.867 1.867 0 0 1 3.734 0v1.975a16.794 16.794 0 0 0-3.734-.008V3.733zm1.867 50.4a3.742 3.742 0 0 1-3.616-2.8h7.232a3.741 3.741 0 0 1-3.616 2.8zm21.467-7.466a2.8 2.8 0 0 1-2.8 2.8H5.602a2.8 2.8 0 0 1 0-5.6h37.334a2.8 2.8 0 0 1 2.8 2.8zm6.533-25.2c0 6.185-5.015 11.2-11.2 11.2s-11.2-5.015-11.2-11.2 5.015-11.2 11.2-11.2c6.182.006 11.194 5.017 11.2 11.2zm-24.267 0c.01 6.992 5.521 12.738 12.507 13.037.082.63.173 1.243.28 1.811L41.816 42H6.722l1.027-5.685c.432-2.37.65-4.777.653-7.187v-5.795A15.854 15.854 0 0 1 33.767 10.64a13.062 13.062 0 0 0-5.765 10.827z" fill="#000"/><path d="M39.203 27.067a.933.933 0 1 0 0 1.866h3.733a.934.934 0 0 0 0-1.866h-.933V14.933a.933.933 0 0 0-1.593-.66l-1.867 1.867a.934.934 0 0 0 1.32 1.32l.273-.274v9.88h-.933z" fill="#000"/></svg>