<svg width="48" height="48" viewBox="0 0 48 48" fill="none" xmlns="http://www.w3.org/2000/svg">
<g clip-path="url(#clip0_1044_6144)">
<path fill-rule="evenodd" clip-rule="evenodd" d="M34.4258 13.8896V34.1055C34.4258 35.9368 29.7614 37.4214 24.0078 37.4214C18.2542 37.4214 13.5898 35.9368 13.5898 34.1055V13.8896C13.5898 12.0583 18.2542 10.5738 24.0078 10.5738C29.7615 10.5738 34.4258 12.0583 34.4258 13.8896Z" fill="#FDCD56"/>
<path fill-rule="evenodd" clip-rule="evenodd" d="M34.4258 34.1055C34.4258 35.9368 29.7614 37.4214 24.0078 37.4214C18.2542 37.4214 13.5898 35.9368 13.5898 34.1055V26.584C13.5898 28.4154 18.2542 29.8999 24.0078 29.8999C29.7614 29.8999 34.4258 28.4154 34.4258 26.584V34.1055Z" fill="#DAA33B"/>
<path fill-rule="evenodd" clip-rule="evenodd" d="M34.4258 27.3669C34.4258 29.1981 29.7614 30.6827 24.0078 30.6827C18.2542 30.6827 13.5898 29.1982 13.5898 27.3669V19.8454C13.5898 21.6767 18.2542 23.1612 24.0078 23.1612C29.7614 23.1612 34.4258 21.6767 34.4258 19.8454V27.3669Z" fill="#F5B945"/>
<path fill-rule="evenodd" clip-rule="evenodd" d="M34.4258 20.6282C34.4258 22.4595 29.7614 23.944 24.0078 23.944C18.2542 23.944 13.5898 22.4595 13.5898 20.6282V13.8895C13.5898 15.7208 18.2542 17.2054 24.0078 17.2054C29.7614 17.2054 34.4258 15.7208 34.4258 13.8895V20.6282Z" fill="#FAC44F"/>
<path fill-rule="evenodd" clip-rule="evenodd" d="M10.4497 33.3128C8.27072 34.3802 6.07153 35.4056 3.87891 36.4444L6.9735 43.8596L11.5251 41.6424C12.1832 41.3218 12.8555 41.2641 13.5586 41.4677L18.3875 42.8659C19.9177 43.3089 21.8123 42.4947 23.236 41.9449L32.2942 38.4466C34.6795 37.5254 35.2539 32.7384 29.6207 34.3921L23.158 36.2892C22.97 35.6082 22.4363 35.0397 21.708 34.8452L17.3297 33.6755C14.3454 31.5627 12.8272 32.1481 10.4497 33.3128Z" fill="#EFC7A4"/>
<path fill-rule="evenodd" clip-rule="evenodd" d="M23.1623 37.3603L13.3741 34.7453C13.0825 35.8369 13.737 36.9687 14.8286 37.2603L20.6473 38.8148C21.7388 39.1065 22.8707 38.4519 23.1623 37.3603Z" fill="#D5A889"/>
<path fill-rule="evenodd" clip-rule="evenodd" d="M9.25281 45.4157L6.97028 46.417C6.4751 46.6342 5.89403 46.4079 5.67634 45.9129C4.31546 42.8192 2.95462 39.7256 1.59381 36.6319C1.48478 36.384 1.47944 36.1319 1.57769 35.8797C1.67594 35.6274 1.8505 35.4454 2.09847 35.3366L4.381 34.3353C4.87619 34.1181 5.45725 34.3444 5.67494 34.8394L9.75747 44.1204C9.8665 44.3681 9.87194 44.6203 9.7736 44.8726C9.67535 45.1249 9.50078 45.307 9.25281 45.4157Z" fill="#E4E8EB"/>
<path fill-rule="evenodd" clip-rule="evenodd" d="M37.5441 14.6873C39.7229 13.6199 41.9222 12.5945 44.1148 11.5558L41.0202 4.1405L36.4686 6.35769C35.8105 6.67832 35.1382 6.73607 34.4351 6.53244L29.6063 5.13425C28.0761 4.69119 26.1815 5.50532 24.7578 6.05516L15.6996 9.55353C13.3143 10.4747 12.7399 15.2617 18.3731 13.608L24.8358 11.7109C25.0238 12.3919 25.5576 12.9604 26.2858 13.1549L30.6641 14.3247C33.6483 16.4374 35.1666 15.852 37.5441 14.6873Z" fill="#EFC7A4"/>
<path fill-rule="evenodd" clip-rule="evenodd" d="M24.832 10.6399L34.6203 13.2548C34.9118 12.1632 34.2574 11.0314 33.1658 10.7398L27.3471 9.18532C26.2555 8.89366 25.1237 9.54823 24.832 10.6399Z" fill="#D5A889"/>
<path fill-rule="evenodd" clip-rule="evenodd" d="M38.7429 2.58436L41.0255 1.58311C41.5207 1.36589 42.1017 1.5922 42.3195 2.0872L46.402 11.3682C46.5111 11.616 46.5164 11.8681 46.4182 12.1204C46.3199 12.3727 46.1453 12.5547 45.8974 12.6635L43.6149 13.6648C43.1197 13.882 42.5386 13.6557 42.3209 13.1607C40.9601 10.067 39.5993 6.97334 38.2384 3.8797C38.1294 3.63192 38.1239 3.37973 38.2223 3.12745C38.3204 2.87517 38.495 2.69311 38.7429 2.58436Z" fill="#E4E8EB"/>
<path fill-rule="evenodd" clip-rule="evenodd" d="M41.3052 26.9916C39.9753 26.9916 39.3081 28.6028 40.2484 29.5431C40.3316 29.6263 40.3783 29.7391 40.3783 29.8568C40.3783 29.9744 40.3316 30.0873 40.2484 30.1705L39.2933 31.1256C39.2101 31.2088 39.0973 31.2555 38.9797 31.2555C38.862 31.2555 38.7492 31.2088 38.666 31.1256C37.7257 30.1853 36.1145 30.8525 36.1145 32.1824C36.1145 32.3001 36.0677 32.4129 35.9845 32.4961C35.9013 32.5793 35.7885 32.6261 35.6708 32.6261H34.3203C34.262 32.6261 34.2043 32.6146 34.1505 32.5923C34.0967 32.57 34.0478 32.5374 34.0066 32.4962C33.9654 32.455 33.9327 32.4061 33.9104 32.3522C33.8881 32.2984 33.8766 32.2407 33.8767 32.1824C33.8767 30.8509 32.2667 30.1841 31.3252 31.1256C31.242 31.2088 31.1291 31.2555 31.0115 31.2555C30.8938 31.2555 30.781 31.2088 30.6978 31.1256L29.7427 30.1705C29.6595 30.0873 29.6127 29.9744 29.6127 29.8568C29.6127 29.7391 29.6595 29.6263 29.7427 29.5431C30.683 28.6028 30.0157 26.9916 28.6858 26.9916C28.6276 26.9916 28.5699 26.9801 28.516 26.9578C28.4622 26.9355 28.4133 26.9029 28.3721 26.8617C28.3309 26.8205 28.2983 26.7716 28.276 26.7177C28.2537 26.6639 28.2422 26.6062 28.2422 26.548V25.1973C28.2422 25.1391 28.2536 25.0814 28.2759 25.0275C28.2982 24.9737 28.3309 24.9248 28.3721 24.8836C28.4133 24.8424 28.4622 24.8097 28.516 24.7874C28.5699 24.7652 28.6276 24.7537 28.6858 24.7537C30.0157 24.7537 30.683 23.1425 29.7427 22.2022C29.6595 22.119 29.6127 22.0062 29.6127 21.8885C29.6127 21.7709 29.6595 21.658 29.7427 21.5748L30.6978 20.6198C30.781 20.5366 30.8938 20.4899 31.0115 20.4899C31.1291 20.4899 31.242 20.5366 31.3252 20.6198C32.2655 21.5601 33.8767 20.8929 33.8767 19.5629C33.8767 19.4453 33.9234 19.3325 34.0066 19.2493C34.0898 19.1661 34.2026 19.1193 34.3203 19.1193H35.6708C35.7885 19.1193 35.9013 19.1661 35.9845 19.2493C36.0677 19.3325 36.1145 19.4453 36.1145 19.5629C36.1145 20.8929 37.7257 21.5601 38.666 20.6198C38.7492 20.5366 38.862 20.4899 38.9797 20.4899C39.0973 20.4899 39.2101 20.5366 39.2933 20.6198L40.2484 21.5748C40.3316 21.658 40.3783 21.7709 40.3783 21.8885C40.3783 22.0062 40.3316 22.119 40.2484 22.2022C39.3081 23.1425 39.9753 24.7537 41.3052 24.7537C41.4229 24.7537 41.5357 24.8004 41.6189 24.8836C41.7021 24.9668 41.7488 25.0797 41.7488 25.1973V26.548C41.7488 26.6656 41.7021 26.7785 41.6189 26.8617C41.5357 26.9449 41.4229 26.9916 41.3052 26.9916ZM34.9956 22.5724C33.1729 22.5724 31.6953 24.05 31.6953 25.8727C31.6953 27.6954 33.1729 29.173 34.9956 29.173C36.8183 29.173 38.2958 27.6954 38.2958 25.8727C38.2957 24.05 36.8182 22.5724 34.9956 22.5724Z" fill="#636C77"/>
<path fill-rule="evenodd" clip-rule="evenodd" d="M32.3427 25.8752C32.3427 27.3327 33.5289 28.519 34.9864 28.519C36.4444 28.519 37.6302 27.3327 37.6302 25.8752C37.6302 24.4172 36.4444 23.2315 34.9864 23.2315C33.529 23.2315 32.3427 24.4172 32.3427 25.8752ZM34.9865 21.9191C37.168 21.9191 38.9427 23.6933 38.9427 25.8752C38.9427 28.0567 37.168 29.8314 34.9865 29.8314C32.805 29.8314 31.0304 28.0567 31.0304 25.8752C31.0304 23.6933 32.805 21.9191 34.9865 21.9191ZM45.8129 11.659L41.7192 2.35221C41.6442 2.18721 41.4514 2.11136 41.2855 2.18327L38.9973 3.18771C38.9148 3.22389 38.8517 3.28783 38.8209 3.36855C38.7891 3.45021 38.7917 3.53927 38.8275 3.62177L42.9236 12.9272C42.9942 13.0931 43.1882 13.1689 43.3559 13.0961L45.6454 12.0917C45.6846 12.0744 45.72 12.0495 45.7495 12.0185C45.779 11.9874 45.8021 11.9509 45.8174 11.9109C45.8491 11.8296 45.8475 11.7391 45.8129 11.659ZM41.1563 12.1747C39.7989 12.8156 38.4636 13.4504 37.138 14.0989C34.8471 15.222 33.6283 15.6777 30.9646 13.7923C30.9014 13.7473 30.8306 13.714 30.7556 13.694L26.4019 12.5307C25.6635 12.334 25.2223 11.5717 25.4195 10.8328C25.5152 10.4777 25.7446 10.1795 26.0662 9.99293C26.2233 9.90105 26.397 9.84123 26.5774 9.81693C26.7578 9.79263 26.9411 9.80433 27.117 9.85136L32.9035 11.3976C33.2534 11.4911 33.6133 11.2829 33.7068 10.9322C33.8008 10.5828 33.5925 10.2228 33.2418 10.1297L27.4558 8.58377C26.7618 8.39805 26.0344 8.49461 25.4089 8.8564C24.7838 9.21855 24.3378 9.79961 24.1521 10.4944C24.0849 10.7424 24.0543 10.9989 24.0612 11.2558L18.1781 12.9865C16.2975 13.5397 15.001 13.3623 14.712 12.5109C14.4637 11.7791 14.982 10.5668 15.941 10.1966L24.9487 6.71739C25.0454 6.67989 25.1428 6.64155 25.243 6.60274C26.536 6.09846 28.1466 5.47033 29.3514 5.81927L34.1533 7.2093C35.0073 7.45718 35.8464 7.3849 36.6452 6.99583L38.4843 6.09939L41.1563 12.1747ZM35.4589 19.7786C35.5339 20.5718 36.0244 21.2401 36.777 21.5511C37.53 21.8634 38.3502 21.7377 38.9642 21.2295L39.6317 21.8983C39.1235 22.5119 38.9983 23.3316 39.3105 24.0846C39.6225 24.8372 40.2899 25.3277 41.0839 25.4023V26.3477C40.2899 26.4227 39.6225 26.9128 39.3105 27.6658C38.9982 28.4193 39.1235 29.239 39.6317 29.8517L38.9642 30.5204C38.3502 30.0122 37.531 29.8865 36.777 30.1989C36.0244 30.5111 35.5339 31.1782 35.4589 31.9727H34.514C34.4399 31.1773 33.9489 30.5098 33.1959 30.198C32.4442 29.8856 31.6236 30.0114 31.0095 30.5205L30.3412 29.8518C30.8494 29.2391 30.9751 28.4194 30.6628 27.6659C30.3513 26.9129 29.683 26.4228 28.8899 26.3478V25.4024C29.6831 25.3279 30.3513 24.8373 30.6628 24.0847C30.9751 23.3317 30.8494 22.512 30.3412 21.8984L31.0095 21.2296C31.6236 21.7378 32.4433 21.8636 33.1959 21.5512C33.9489 21.2402 34.4399 20.5719 34.514 19.7787H35.4589V19.7786ZM33.2859 35.489C32.9974 34.639 31.7013 34.4607 29.8199 35.0139L23.9372 36.7445C23.9438 36.9955 23.9147 37.2518 23.8464 37.5055C23.6607 38.2002 23.2142 38.7817 22.5891 39.1435C21.964 39.5052 21.2361 39.6018 20.5426 39.4161L14.7562 37.8712C14.6729 37.849 14.5948 37.8106 14.5264 37.7582C14.4579 37.7058 14.4005 37.6404 14.3573 37.5658C14.3141 37.4912 14.2861 37.4088 14.2747 37.3234C14.2634 37.238 14.269 37.1511 14.2912 37.0678C14.3134 36.9845 14.3518 36.9063 14.4042 36.8378C14.4566 36.7693 14.522 36.7118 14.5966 36.6687C14.6713 36.6255 14.7537 36.5974 14.8392 36.5861C14.9247 36.5748 15.0116 36.5805 15.0949 36.6028L20.881 38.1486C21.2361 38.2435 21.6102 38.1936 21.9318 38.0069C22.2534 37.8204 22.4833 37.5226 22.579 37.167C22.7757 36.4286 22.3359 35.6663 21.597 35.469L17.2433 34.3058C17.168 34.2858 17.0968 34.2525 17.0333 34.2074C14.3701 32.322 13.1513 32.7777 10.86 33.9009C9.53433 34.5498 8.19942 35.1842 6.84201 35.8256L9.51361 41.9006L11.3532 41.0046C12.153 40.6155 12.9907 40.5431 13.8451 40.7906L18.647 42.1807C19.8513 42.5296 21.4615 41.9014 22.754 41.3981C22.8541 41.3588 22.9526 41.3204 23.0496 41.2825L32.0568 37.8045C33.0167 37.4336 33.5342 36.2213 33.2859 35.489ZM9.17086 44.3785C9.20611 44.461 9.2092 44.551 9.17751 44.6317C9.1462 44.7119 9.08358 44.776 9.00108 44.8125L6.71245 45.8166C6.63265 45.8515 6.54227 45.8533 6.46115 45.8216C6.38002 45.7899 6.31477 45.7274 6.2797 45.6476L2.1862 36.3413C2.16835 36.3018 2.15849 36.2592 2.15721 36.2158C2.15592 36.1725 2.16322 36.1294 2.1787 36.0889C2.19471 36.0486 2.21854 36.0119 2.24883 35.9808C2.27911 35.9498 2.31524 35.925 2.35514 35.9081L4.6433 34.904C4.6851 34.886 4.73014 34.8766 4.77567 34.8766C4.83945 34.8767 4.90183 34.8952 4.95524 34.9301C5.00865 34.9649 5.05079 35.0146 5.07651 35.0729L9.17086 44.3785ZM33.7601 33.1351C33.4332 32.9445 33.2117 32.5903 33.2117 32.1853C33.2117 31.6652 32.8152 31.4606 32.6943 31.4098C32.5725 31.3604 32.1478 31.2246 31.7803 31.592C31.351 32.0213 30.6536 32.0213 30.2252 31.592L29.489 30.8561C27.8308 31.1738 25.9413 31.3414 23.999 31.3414C20.121 31.3414 16.2093 30.6638 14.2379 29.3514V31.6294C15.2493 31.707 16.3452 32.1288 17.6946 33.0684L21.9358 34.2008C22.6632 34.3958 23.2415 34.8713 23.5865 35.4797L29.4497 33.7548C31.775 33.0711 33.0592 33.4526 33.7602 34.0014V33.1351H33.7601ZM14.2378 27.3693C14.2378 27.7818 14.9167 28.4792 16.8316 29.0889C18.7369 29.6954 21.2819 30.029 23.9988 30.029C25.7568 30.029 27.464 29.8865 28.9762 29.6156C29.0216 29.4135 29.1233 29.2282 29.2695 29.0815C29.6361 28.7149 29.5012 28.29 29.4505 28.1683C29.3998 28.0475 29.1955 27.6508 28.6771 27.6508C28.0706 27.6508 27.5774 27.1568 27.5774 26.5502V25.1998C27.5774 24.8623 27.7304 24.5606 27.969 24.3591C26.7175 24.5192 25.3769 24.603 23.9987 24.603C20.1207 24.603 16.209 23.925 14.2376 22.6126V27.3693H14.2378ZM14.2378 20.6305V15.8737C16.2092 17.1861 20.1209 17.8641 23.9989 17.8641C27.6939 17.8641 31.0519 17.2699 33.0693 16.2658C33.3058 16.3192 33.5356 16.3536 33.7602 16.3708V18.6154C33.4333 18.8055 33.2118 19.1598 33.2118 19.5656C33.2118 20.0844 32.8153 20.2886 32.6935 20.339C32.5726 20.3888 32.1469 20.5247 31.7804 20.1581C31.6785 20.0558 31.5573 19.9746 31.4239 19.9192C31.2905 19.8639 31.1475 19.8355 31.0031 19.8356C30.7088 19.8356 30.4332 19.9512 30.2253 20.1581L29.2698 21.1136C29.1675 21.2155 29.0864 21.3367 29.0312 21.4701C28.976 21.6035 28.9478 21.7465 28.9483 21.8909C28.9483 22.1852 29.0625 22.4608 29.2698 22.6691C29.314 22.7132 29.3492 22.7568 29.3805 22.8019C27.7717 23.1217 25.9277 23.2907 23.999 23.2907C21.282 23.2907 18.7371 22.9568 16.8318 22.3502C14.9167 21.7408 14.2378 21.043 14.2378 20.6305ZM14.2545 14.012C14.3719 14.4311 15.0918 15.0583 16.8317 15.6112C18.737 16.2177 21.2819 16.5517 23.9989 16.5517C26.7993 16.5517 29.4449 16.186 31.3135 15.5644C30.9919 15.387 30.6571 15.178 30.3037 14.9318L26.0625 13.7989C25.3347 13.6039 24.7568 13.1288 24.4113 12.5201L18.5481 14.2453C16.2423 14.923 14.9609 14.5528 14.2545 14.012ZM47.0438 12.3873C46.885 12.7949 46.5762 13.1165 46.1703 13.2939L43.8808 14.2979C43.6736 14.389 43.4498 14.4358 43.2235 14.4356C42.5926 14.4356 41.9882 14.0698 41.7192 13.4562L41.6839 13.3764C40.3424 14.0098 39.0234 14.6381 37.7159 15.2786C36.7661 15.7435 35.9221 16.1176 35.0729 16.2874V18.4658H35.6624C36.2689 18.4658 36.7621 18.959 36.7621 19.5656C36.7621 20.0843 37.1587 20.2886 37.2796 20.3389C37.4018 20.3887 37.8262 20.5246 38.1928 20.1581C38.401 19.9511 38.6776 19.8356 38.971 19.8356C39.2643 19.8356 39.5409 19.9511 39.7492 20.1581L40.7034 21.1136C40.8061 21.2152 40.8875 21.3363 40.9429 21.4698C40.9983 21.6032 41.0267 21.7463 41.0263 21.8908C41.0266 22.0354 40.9983 22.1787 40.9429 22.3123C40.8874 22.4459 40.806 22.5671 40.7034 22.669C40.3368 23.0351 40.4731 23.4599 40.5234 23.5817C40.5733 23.704 40.7774 24.1 41.2972 24.1C41.9046 24.1 42.3988 24.5933 42.3988 25.1998V26.5502C42.3988 27.1568 41.9047 27.6508 41.2972 27.6508C40.7775 27.6508 40.5733 28.0474 40.5234 28.1683C40.4731 28.2901 40.3367 28.7149 40.7034 29.0815C40.8061 29.1833 40.8875 29.3045 40.943 29.4381C40.9984 29.5717 41.0267 29.715 41.0263 29.8596C41.0267 30.004 40.9983 30.1471 40.9429 30.2804C40.8875 30.4138 40.8061 30.5348 40.7034 30.6364L39.7492 31.5919C39.6472 31.6943 39.5259 31.7756 39.3923 31.8309C39.2588 31.8863 39.1156 31.9146 38.971 31.9144C38.6776 31.9144 38.401 31.7997 38.1928 31.5919C37.8262 31.2253 37.4018 31.3612 37.2796 31.4119C37.1588 31.4613 36.7621 31.666 36.7621 32.1852C36.7621 32.791 36.269 33.285 35.6624 33.285H35.0729V34.1081C35.0729 34.5422 34.9155 34.9565 34.6049 35.3416C34.9106 36.7687 33.9824 38.4675 32.5293 39.0291L23.5221 42.507C23.4272 42.5437 23.3297 42.582 23.2314 42.6204C22.0893 43.066 20.7328 43.5944 19.4221 43.5944C19.0352 43.5944 18.6537 43.5486 18.2814 43.441L13.4795 42.0505C12.9404 41.8947 12.4322 41.938 11.928 42.1846L10.0425 43.1022L10.3717 43.8508C10.5486 44.2536 10.5592 44.7 10.4008 45.1076C10.2415 45.5157 9.93183 45.8373 9.52861 46.0142L7.24045 47.0183C7.03329 47.1093 6.80946 47.1564 6.58317 47.1564C5.95148 47.1564 5.34839 46.7898 5.07839 46.1757L0.984515 36.8697C0.80714 36.467 0.797015 36.0205 0.956296 35.6129C1.11464 35.2048 1.42439 34.8833 1.82798 34.7064L4.11661 33.7023C4.94423 33.3384 5.91389 33.7165 6.2782 34.5448L6.31308 34.6238C7.65548 33.9898 8.97492 33.3626 10.2825 32.7224C11.2322 32.2566 12.0757 31.8816 12.9253 31.7126V13.892C12.9253 13.4579 13.0828 13.0432 13.3937 12.6581C13.0875 11.2315 14.0153 9.53252 15.4684 8.97096L24.4761 5.49255C24.5705 5.45636 24.6675 5.41839 24.7659 5.38005C26.2441 4.80349 28.0824 4.08574 29.7168 4.55908L34.5186 5.94911C35.0577 6.10483 35.5659 6.06161 36.0701 5.81505L37.955 4.89752L37.6263 4.1493C37.4489 3.74608 37.4388 3.30011 37.5973 2.89202C37.7565 2.48439 38.0657 2.16283 38.4689 1.98546L40.7585 0.981395C41.5865 0.61877 42.557 0.996395 42.9188 1.82439L47.0126 11.1298C47.1894 11.5332 47.2026 11.9792 47.0438 12.3873ZM16.7214 20.3203C17.4171 20.5255 18.1904 20.7011 19.0201 20.8405C19.0563 20.8471 19.0929 20.8501 19.1295 20.8501C19.4445 20.8501 19.722 20.623 19.7762 20.3026C19.8051 20.1311 19.7646 19.9552 19.6638 19.8135C19.563 19.6718 19.41 19.5759 19.2385 19.547C18.4604 19.4156 17.7386 19.2523 17.0932 19.0613C16.7465 18.9589 16.3808 19.157 16.2789 19.5046C16.1757 19.8514 16.3742 20.2171 16.7214 20.3203ZM16.279 26.2436C16.3032 26.1609 16.3435 26.0838 16.3976 26.0168C16.4517 25.9497 16.5184 25.894 16.5941 25.8528C16.6697 25.8116 16.7528 25.7858 16.8384 25.7767C16.9241 25.7677 17.0107 25.7757 17.0933 25.8002C17.7387 25.9903 18.4605 26.1545 19.2386 26.2846C19.4101 26.3139 19.5629 26.41 19.6637 26.5518C19.7645 26.6936 19.805 26.8696 19.7763 27.0412C19.7505 27.1941 19.6715 27.333 19.5531 27.4332C19.4347 27.5334 19.2847 27.5884 19.1296 27.5886C19.093 27.5886 19.0564 27.5851 19.0202 27.5793C18.1905 27.4394 17.4171 27.2643 16.7215 27.0583C16.3742 26.956 16.1757 26.5903 16.279 26.2436Z" fill="black"/>
</g>
<defs>
<clipPath id="clip0_1044_6144">
<rect width="48" height="48" fill="white"/>
</clipPath>
</defs>
</svg>
