<svg width="56" height="56" fill="none" xmlns="http://www.w3.org/2000/svg"><path d="M50.272 33.816a23.093 23.093 0 0 0 1.25-7.515c0-10.969-7.635-20.154-17.881-22.53" stroke="#000" stroke-width="1.641" stroke-linecap="round" stroke-linejoin="round" stroke-dasharray="1.31 3.28"/><path d="M5.336 28.13c.933 11.92 10.899 21.3 23.057 21.3m0-46.258a23.05 23.05 0 0 0-15.935 6.366" stroke="#000" stroke-width="1.641" stroke-miterlimit="10" stroke-linecap="round" stroke-linejoin="round"/><path d="M34.772 42.57c0-5.596 4.552-10.148 10.148-10.148.42 0 .834.026 1.241.076a18.786 18.786 0 0 0 1.046-6.197c0-10.392-8.425-18.816-18.817-18.816a18.76 18.76 0 0 0-13.521 5.732l6.593 11.42c.408.707.408 1.55 0 2.256a2.233 2.233 0 0 1-1.953 1.128H9.652c.87 9.586 8.926 17.097 18.738 17.097a18.78 18.78 0 0 0 6.48-1.145 10.175 10.175 0 0 1-.098-1.403z" fill="#FE646F"/><path d="M46.2 32.391a18.793 18.793 0 0 0 1.009-6.09c0-4.368-1.49-8.388-3.987-11.582m-2.652-2.761a18.74 18.74 0 0 0-12.178-4.473 18.759 18.759 0 0 0-13.442 5.65l6.61 11.448c.91 1.577-.229 3.548-2.05 3.548H9.665c.92 9.533 8.953 16.987 18.728 16.987a18.78 18.78 0 0 0 6.373-1.108" stroke="#000" stroke-width="1.641" stroke-miterlimit="10" stroke-linecap="round" stroke-linejoin="round"/><path d="M44.922 32.312c-1.051 0-2.096.16-3.098.477a15.016 15.016 0 0 1-6.73 6.837c-.286.956-.43 1.947-.43 2.944 0 5.665 4.593 10.258 10.258 10.258 5.665 0 10.258-4.593 10.258-10.258 0-5.665-4.593-10.258-10.258-10.258z" fill="#05E39C"/><path d="M44.922 32.312c-.788 0-1.556.09-2.293.258 4.561 1.041 7.965 5.123 7.965 10s-3.404 8.959-7.965 10c.752.172 1.521.258 2.293.258 5.665 0 10.258-4.593 10.258-10.258 0-5.665-4.593-10.258-10.258-10.258z" fill="#0ED290"/><path d="M39.219 51.097a10.21 10.21 0 0 0 5.703 1.73c5.665 0 10.258-4.592 10.258-10.257s-4.593-10.258-10.258-10.258c-1 0-1.994.145-2.95.432a15.088 15.088 0 0 1-6.923 7.032c-.256.909-.386 1.85-.385 2.794 0 2.171.675 4.184 1.826 5.842" stroke="#000" stroke-width="1.641" stroke-miterlimit="10" stroke-linecap="round" stroke-linejoin="round"/><path d="M40.133 41.558l4.049 4.386 6.006-6.95" stroke="#000" stroke-width="1.641" stroke-miterlimit="10" stroke-linecap="round" stroke-linejoin="round"/><path d="M28.39 11.274a14.995 14.995 0 0 0-11.53 5.391l4.602 7.972c.408.707.408 1.55 0 2.256a2.233 2.233 0 0 1-1.954 1.128h-6.047c.854 7.49 7.211 13.307 14.929 13.307 8.299 0 15.027-6.727 15.027-15.027 0-8.3-6.728-15.027-15.027-15.027z" fill="#fff"/><path d="M30.223 26.301h5.096" stroke="#000" stroke-width="1.641" stroke-miterlimit="10" stroke-linecap="round" stroke-linejoin="round"/><path d="M28.393 11.274c-.78 0-1.547.06-2.295.175 7.21 1.105 12.731 7.334 12.731 14.852 0 7.52-5.522 13.748-12.731 14.853.76.116 1.527.175 2.295.175 8.3 0 15.027-6.728 15.027-15.028 0-8.299-6.727-15.027-15.027-15.027z" fill="#F3F0F3"/><path d="M28.393 14.214v.654m0 22.867v.653m11.434-12.087h.653M22.35 15.834l.326.565M34.11 36.203l.326.566m-16.51-4.424l.565-.327m19.804-11.434l.566-.326m-.566 11.76l.566.327m-16.512 4.424l.327-.566M34.11 16.4l.326-.565m-6.043-4.56c-4.59 0-8.699 2.059-11.456 5.302l4.623 8.007c.91 1.577-.228 3.548-2.049 3.548h-6.034c.902 7.436 7.236 13.197 14.916 13.197 8.299 0 15.027-6.727 15.027-15.027 0-8.3-6.728-15.027-15.027-15.027z" stroke="#000" stroke-width="1.641" stroke-miterlimit="10" stroke-linecap="round" stroke-linejoin="round"/><path d="M28.392 28.13a1.83 1.83 0 1 0 0-3.658 1.83 1.83 0 0 0 0 3.659z" fill="#FE646F"/><path d="M28.392 28.13a1.83 1.83 0 1 0 0-3.658 1.83 1.83 0 0 0 0 3.659z" stroke="#000" stroke-width="1.641" stroke-miterlimit="10" stroke-linecap="round" stroke-linejoin="round"/><path d="M9.302 10.448L1.14 24.583c-.91 1.577.227 3.548 2.048 3.548h16.322c1.82 0 2.959-1.971 2.048-3.548L13.4 10.448c-.911-1.577-3.187-1.577-4.097 0z" fill="#FFD15B"/><path d="M21.557 24.583l-8.161-14.135c-.91-1.577-3.186-1.577-4.097 0l-.22.383 7.939 13.752c.91 1.576-.228 3.548-2.049 3.548h4.54c1.82 0 2.958-1.971 2.048-3.548z" fill="#FFC344"/><path d="M4.278 19.148l-3.137 5.435c-.91 1.577.227 3.548 2.048 3.548h16.322c1.82 0 2.959-1.971 2.048-3.548L13.4 10.448c-.911-1.577-3.187-1.577-4.097 0l-3.11 5.385" stroke="#000" stroke-width="1.641" stroke-miterlimit="10" stroke-linecap="round" stroke-linejoin="round"/><path d="M11.352 14.096v6.197-6.197zm0 9.433v.755-.755z" fill="#000"/><path d="M11.352 14.096v6.197m0 3.236v.755M28.39 17.677v6.795" stroke="#000" stroke-width="1.641" stroke-miterlimit="10" stroke-linecap="round" stroke-linejoin="round"/></svg>