<svg width="48" height="48" viewBox="0 0 48 48" fill="none" xmlns="http://www.w3.org/2000/svg">
<g clip-path="url(#clip0_1044_6045)">
<path d="M17.999 3.75003C18.9028 3.74734 19.7953 3.9506 20.6088 4.34435C21.4223 4.73811 22.1354 5.31202 22.694 6.02253C20.527 6.14392 18.4626 6.98531 16.8281 8.41326C15.1937 9.84121 14.0827 11.774 13.6715 13.905C12.857 13.0565 12.3099 11.9874 12.0981 10.8304C11.8863 9.6735 12.0192 8.47984 12.4803 7.39783C12.9414 6.31583 13.7103 5.3932 14.6915 4.74465C15.6727 4.0961 16.8228 3.75022 17.999 3.75003Z" fill="#FFAC5A"/>
<path d="M24.7188 3.77243C25.4423 4.58089 26.014 5.51334 26.4063 6.52493C25.3897 6.17778 24.3229 6.00041 23.2488 5.99993C23.0613 5.99993 22.8813 6.00743 22.6938 6.02243C22.1922 5.37813 21.5644 4.84298 20.8488 4.44975C20.1332 4.05652 19.3449 3.81349 18.5321 3.73552C17.7194 3.65756 16.8992 3.74631 16.1219 3.99634C15.3446 4.24637 14.6266 4.65242 14.0117 5.18962C13.3968 5.72683 12.898 6.38389 12.5459 7.12057C12.1937 7.85725 11.9957 8.65805 11.9638 9.47394C11.9319 10.2898 12.0669 11.1036 12.3605 11.8655C12.6541 12.6274 13.1001 13.3214 13.6713 13.9049C13.4363 15.1444 13.4414 16.4174 13.6863 17.6549C12.5335 17.0269 11.5321 16.1542 10.7522 15.0982C9.97241 14.0421 9.43304 12.8282 9.17196 11.5417C8.91089 10.2552 8.93442 8.92707 9.24092 7.65058C9.54741 6.37409 10.1294 5.1801 10.9462 4.15235C11.763 3.1246 12.7947 2.28797 13.969 1.70113C15.1433 1.11429 16.4317 0.791453 17.744 0.755254C19.0563 0.719054 20.3606 0.970371 21.5655 1.49158C22.7703 2.01279 23.8466 2.79127 24.7188 3.77243Z" fill="#FF873C"/>
<path d="M34.5009 9L31.7859 11.04C30.8634 9.36438 29.4679 7.99752 27.7734 7.11L30.0009 6L34.5009 9Z" fill="#FFBEAA"/>
<path d="M23.25 25.5C28.6348 25.5 33 21.1348 33 15.75C33 10.3652 28.6348 6 23.25 6C17.8652 6 13.5 10.3652 13.5 15.75C13.5 21.1348 17.8652 25.5 23.25 25.5Z" fill="#FFAC5A"/>
<path d="M47.2148 5.25V17.25H42.7148V5.25H47.2148Z" fill="#64E1DC"/>
<path d="M47.2148 5.25V17.25H44.9648V5.25H47.2148Z" fill="#00C8C8"/>
<path d="M29.9189 15C29.9491 15.2488 29.9641 15.4993 29.9639 15.75C29.9665 17.3306 29.4152 18.8623 28.4058 20.0787C27.3965 21.2951 25.9928 22.1195 24.4388 22.4084C22.8847 22.6974 21.2785 22.4328 19.8994 21.6605C18.5202 20.8883 17.4551 19.6572 16.8894 18.1812C16.3236 16.7053 16.2928 15.0777 16.8024 13.5815C17.312 12.0852 18.3297 10.8147 19.6787 9.99086C21.0277 9.16701 22.6227 8.84184 24.1866 9.07186C25.7504 9.30189 27.1842 10.0726 28.2389 11.25H25.8389C25.3416 11.25 24.8647 11.4475 24.5131 11.7991C24.1614 12.1508 23.9639 12.6277 23.9639 13.125C23.9639 13.6222 24.1614 14.0992 24.5131 14.4508C24.8647 14.8024 25.3416 15 25.8389 15H29.9189Z" fill="#FFDFB0"/>
<path d="M21.7157 9.75C23.2544 9.75045 24.746 10.2801 25.9405 11.25H28.2407C27.1555 10.0355 25.6674 9.25487 24.0513 9.05235C22.4353 8.84982 20.8005 9.2391 19.4492 10.1483C20.1763 9.88646 20.943 9.75174 21.7157 9.75ZM29.9207 15H25.8407C25.4921 15.0011 25.1501 14.9047 24.8534 14.7217C24.5567 14.5386 24.3171 14.2763 24.1616 13.9642C24.0062 13.6521 23.9412 13.3028 23.9739 12.9557C24.0066 12.6086 24.1357 12.2776 24.3467 12H24.3407C23.8434 12 23.3665 12.1975 23.0149 12.5492C22.6633 12.9008 22.4657 13.3777 22.4657 13.875C22.4657 14.3723 22.6633 14.8492 23.0149 15.2008C23.3665 15.5525 23.8434 15.75 24.3407 15.75H28.4207C28.4509 15.9989 28.4659 16.2493 28.4657 16.5C28.4662 17.6068 28.1943 18.6968 27.674 19.6737C27.1537 20.6507 26.401 21.4845 25.4822 22.1018C26.7932 21.6344 27.9277 20.7733 28.7303 19.6362C29.5329 18.4992 29.9644 17.1418 29.9657 15.75C29.9659 15.4993 29.9509 15.2489 29.9207 15Z" fill="#FFCF94"/>
<path d="M28.2398 9.75004C27.3291 8.73097 26.1302 8.01261 24.802 7.69011C23.4738 7.36761 22.079 7.45618 20.8023 7.9441C19.5256 8.43201 18.4272 9.29625 17.6526 10.4223C16.8781 11.5484 16.4639 12.8833 16.4648 14.25C16.4697 14.4853 16.4867 14.7201 16.5158 14.9535C16.6678 13.664 17.1889 12.4457 18.0164 11.4452C18.844 10.4446 19.9429 9.70429 21.1811 9.31317C22.4192 8.92205 23.744 8.89676 24.9962 9.24035C26.2483 9.58394 27.3747 10.2818 28.2398 11.25H31.4648L31.7498 11.04C31.4957 10.5876 31.2057 10.1563 30.8828 9.75004H28.2398ZM29.9206 16.5H31.4648C31.9041 16.7732 32.3664 17.0076 32.8463 17.2005C32.9216 16.7206 32.9612 16.2358 32.9648 15.75C32.4424 15.5476 31.9402 15.2965 31.4648 15H29.9198C29.95 15.2489 29.965 15.4994 29.9648 15.75C29.9641 16.0007 29.9494 16.2511 29.9206 16.5Z" fill="#FC9942"/>
<path d="M23.9648 15H22.4648C22.2659 15 22.0752 14.921 21.9345 14.7803C21.7939 14.6397 21.7148 14.4489 21.7148 14.25C21.7148 14.0511 21.7939 13.8603 21.9345 13.7197C22.0752 13.579 22.2659 13.5 22.4648 13.5H23.9648C24.0633 13.5 24.1609 13.5194 24.2519 13.5571C24.3429 13.5948 24.4255 13.65 24.4952 13.7197C24.5648 13.7893 24.6201 13.872 24.6578 13.963C24.6954 14.054 24.7148 14.1515 24.7148 14.25H26.2148C26.2148 13.6533 25.9778 13.081 25.5558 12.659C25.1339 12.2371 24.5616 12 23.9648 12V11.25H22.4648V12C21.8681 12 21.2958 12.2371 20.8739 12.659C20.4519 13.081 20.2148 13.6533 20.2148 14.25C20.2148 14.8467 20.4519 15.419 20.8739 15.841C21.2958 16.2629 21.8681 16.5 22.4648 16.5H23.9648C24.1638 16.5 24.3545 16.579 24.4952 16.7197C24.6358 16.8603 24.7148 17.0511 24.7148 17.25C24.7148 17.4489 24.6358 17.6397 24.4952 17.7803C24.3545 17.921 24.1638 18 23.9648 18H22.4648C22.2659 18 22.0752 17.921 21.9345 17.7803C21.7939 17.6397 21.7148 17.4489 21.7148 17.25H20.2148C20.2148 17.8467 20.4519 18.419 20.8739 18.841C21.2958 19.2629 21.8681 19.5 22.4648 19.5V20.25H23.9648V19.5C24.5616 19.5 25.1339 19.2629 25.5558 18.841C25.9778 18.419 26.2148 17.8467 26.2148 17.25C26.2148 16.6533 25.9778 16.081 25.5558 15.659C25.1339 15.2371 24.5616 15 23.9648 15Z" fill="#FF873C"/>
<path d="M42.75 6.75V15.75C40.7824 16.213 38.771 16.4644 36.75 16.5C35.4639 16.4887 34.1915 16.2342 33 15.75C32.4776 15.5476 31.9754 15.2964 31.5 15H25.875C25.3777 15 24.9008 14.8025 24.5492 14.4508C24.1975 14.0992 24 13.6223 24 13.125C24 12.6277 24.1975 12.1508 24.5492 11.7992C24.9008 11.4475 25.3777 11.25 25.875 11.25H31.5L31.785 11.04L34.5 9L30 6L27.7725 7.11C27.3333 6.87999 26.8769 6.6844 26.4075 6.525C26.0152 5.51341 25.4436 4.58096 24.72 3.7725L24.75 3.75L29.25 0.75L42.75 6.75Z" fill="#FFCDBE"/>
<path d="M29.2488 0.75L24.7488 3.75L24.7188 3.7725C24.9948 4.08472 25.2484 4.41604 25.4778 4.764L29.2488 2.25L42.7488 8.25V6.75L29.2488 0.75Z" fill="#FFD8CF"/>
<path d="M32.9639 14.25C32.4415 14.0476 31.9393 13.7964 31.4639 13.5H25.8389C25.4742 13.4998 25.1175 13.3933 24.8125 13.1935C24.5074 12.9937 24.2672 12.7092 24.1214 12.375C23.9969 12.6603 23.9454 12.972 23.9714 13.2822C23.9975 13.5923 24.1004 13.8911 24.2708 14.1516C24.4413 14.412 24.6738 14.626 24.9476 14.7741C25.2213 14.9222 25.5276 14.9998 25.8389 15H31.4639C31.9393 15.2964 32.4415 15.5476 32.9639 15.75C34.1554 16.2342 35.4278 16.4887 36.7139 16.5C38.7349 16.4644 40.7463 16.213 42.7139 15.75V14.25C40.7463 14.713 38.7349 14.9644 36.7139 15C35.4278 14.9887 34.1554 14.7342 32.9639 14.25Z" fill="#FFBEAA"/>
<path d="M21.2293 4.69128C19.2363 5.05546 17.3786 5.9511 15.8524 7.28362C14.3262 8.61614 13.1882 10.3361 12.5586 12.2618C12.8368 12.8673 13.2134 13.4226 13.6731 13.905C14.0843 11.774 15.1953 9.84121 16.8297 8.41326C18.4642 6.98531 20.5286 6.14393 22.6956 6.02253C22.2852 5.49945 21.7895 5.04938 21.2293 4.69128Z" fill="#FC9942"/>
<path d="M21.2288 4.69127C21.7889 5.04936 22.2846 5.49943 22.695 6.02252C22.8825 6.00752 23.0625 6.00002 23.25 6.00002C24.3242 6.0005 25.391 6.17787 26.4075 6.52502C26.1567 5.8886 25.835 5.28251 25.4482 4.71827C24.0567 4.43663 22.6238 4.42746 21.2288 4.69127ZM13.5 15.75C13.5002 15.131 13.558 14.5133 13.6725 13.905C13.2128 13.4226 12.8362 12.8673 12.558 12.2618C12.1891 13.3878 12.0007 14.5651 12 15.75C12 15.9998 12.021 16.2443 12.0375 16.4895C12.5418 16.9389 13.0953 17.3299 13.6875 17.655C13.5639 17.0275 13.5011 16.3896 13.5 15.75Z" fill="#FA732D"/>
<path d="M35.03 22.2802L36.7498 20.5604V29.2499H38.2498V20.5604L39.9695 22.2802L41.03 21.2197L38.03 18.2197L38.0248 18.2249C37.9563 18.1543 37.8744 18.0981 37.7838 18.0596C37.6933 18.0211 37.5961 18.001 37.4977 18.0006C37.3993 18.0002 37.3019 18.0194 37.2111 18.0572C37.1202 18.0949 37.0378 18.1504 36.9688 18.2204L33.9688 21.2204L35.03 22.2802Z" fill="#19CFFC"/>
<path d="M32.25 44.25C35.1495 44.25 37.5 41.8995 37.5 39C37.5 36.1005 35.1495 33.75 32.25 33.75C29.3505 33.75 27 36.1005 27 39C27 41.8995 29.3505 44.25 32.25 44.25Z" fill="#FFC170"/>
<path d="M32.25 42C33.9069 42 35.25 40.6569 35.25 39C35.25 37.3431 33.9069 36 32.25 36C30.5931 36 29.25 37.3431 29.25 39C29.25 40.6569 30.5931 42 32.25 42Z" fill="#FFCF94"/>
<path d="M26.655 29.025L41.25 25.5L42.75 30.75H19.5L26.655 29.025Z" fill="#1CADB5"/>
<path d="M47.25 30.75V47.25H17.25V41.25H20.25V42.75C20.6475 42.7512 21.0283 42.9096 21.3093 43.1907C21.5904 43.4717 21.7488 43.8525 21.75 44.25H42.75C42.7512 43.8525 42.9096 43.4717 43.1907 43.1907C43.4717 42.9096 43.8525 42.7512 44.25 42.75V35.25C43.8525 35.2488 43.4717 35.0904 43.1907 34.8093C42.9096 34.5283 42.7512 34.1475 42.75 33.75H21.75C21.7488 34.1475 21.5904 34.5283 21.3093 34.8093C21.0283 35.0904 20.6475 35.2488 20.25 35.25V37.5H17.25V30.75H47.25Z" fill="#64E1DC"/>
<path d="M20.25 42.75V41.25H17.25V47.25H18.75V44.25C18.75 43.8522 18.908 43.4706 19.1893 43.1893C19.4706 42.908 19.8522 42.75 20.25 42.75ZM18.75 34.5C18.75 33.9033 18.9871 33.331 19.409 32.909C19.831 32.4871 20.4033 32.25 21 32.25H47.25V30.75H17.25V37.5H18.75V34.5ZM5.25 42V43.5H0.75V31.5H5.25V33V42Z" fill="#00C8C8"/>
<path d="M5.25 42V43.5H3V31.5H5.25V33V42Z" fill="#64E1DC"/>
<path d="M17.25 37.5H22.125C22.6223 37.5 23.0992 37.6975 23.4508 38.0492C23.8025 38.4008 24 38.8777 24 39.375C24 39.8723 23.8025 40.3492 23.4508 40.7008C23.0992 41.0525 22.6223 41.25 22.125 41.25H16.5C14.9153 42.2098 13.1025 42.7277 11.25 42.75C9.229 42.7144 7.21758 42.463 5.25 42V33L18.75 27L24.75 27.75L26.655 29.025L19.5 30.75H17.25V37.5Z" fill="#FFCDBE"/>
<path d="M19.5 29.25H18.75C18.3522 29.25 17.9706 29.408 17.6893 29.6893C17.408 29.9706 17.25 30.3522 17.25 30.75H19.5L26.655 29.025L25.005 27.9225L19.5 29.25ZM23.4525 39.2025C23.2781 39.3765 23.071 39.5144 22.8432 39.6084C22.6155 39.7023 22.3714 39.7504 22.125 39.75H16.5C14.9153 40.7097 13.1025 41.2277 11.25 41.25C9.229 41.2144 7.21758 40.9629 5.25 40.5V42C7.21758 42.4629 9.229 42.7144 11.25 42.75C13.1025 42.7277 14.9153 42.2097 16.5 41.25H22.125C22.4365 41.2507 22.7433 41.1735 23.0175 41.0256C23.2917 40.8777 23.5246 40.6637 23.6951 40.4029C23.8656 40.1422 23.9683 39.8431 23.9939 39.5326C24.0196 39.2221 23.9672 38.9101 23.8417 38.625C23.7495 38.8403 23.6175 39.0362 23.4525 39.2025Z" fill="#FFBEAA"/>
<path d="M20.25 41.25H22.125C22.6223 41.25 23.0992 41.0525 23.4508 40.7008C23.8025 40.3492 24 39.8723 24 39.375C24 38.8777 23.8025 38.4008 23.4508 38.0492C23.0992 37.6975 22.6223 37.5 22.125 37.5H20.25V35.25C20.6475 35.2488 21.0283 35.0904 21.3093 34.8093C21.5904 34.5283 21.7488 34.1475 21.75 33.75H32.25C30.8576 33.75 29.5223 34.3031 28.5377 35.2877C27.5531 36.2723 27 37.6076 27 39C27 40.3924 27.5531 41.7277 28.5377 42.7123C29.5223 43.6969 30.8576 44.25 32.25 44.25H21.75C21.7488 43.8525 21.5904 43.4717 21.3093 43.1907C21.0283 42.9096 20.6475 42.7512 20.25 42.75V41.25ZM44.25 35.25V42.75C43.8525 42.7512 43.4717 42.9096 43.1907 43.1907C42.9096 43.4717 42.7512 43.8525 42.75 44.25H32.25C33.6424 44.25 34.9777 43.6969 35.9623 42.7123C36.9469 41.7277 37.5 40.3924 37.5 39C37.5 37.6076 36.9469 36.2723 35.9623 35.2877C34.9777 34.3031 33.6424 33.75 32.25 33.75H42.75C42.7512 34.1475 42.9096 34.5283 43.1907 34.8093C43.4717 35.0904 43.8525 35.2488 44.25 35.25Z" fill="#F0F0F0"/>
<path d="M17.25 30.75V37.5H16.5L13.5 35.25C13.5539 34.2353 13.8551 33.2491 14.3775 32.3775C14.925 31.4625 15.675 30.75 16.5 30.75H17.25Z" fill="#FAA68E"/>
<path d="M7.71875 22.7197L5.999 24.4395V15.75H4.499V24.4395L2.77925 22.7197L1.71875 23.7803L4.71875 26.7803L4.724 26.775C4.79249 26.8456 4.8744 26.9018 4.9649 26.9403C5.05541 26.9788 5.15269 26.9989 5.25105 26.9993C5.34941 26.9997 5.44687 26.9805 5.5377 26.9428C5.62853 26.905 5.71091 26.8495 5.78 26.7795L8.78 23.7795L7.71875 22.7197ZM4.499 12.75H5.999V14.25H4.499V12.75Z" fill="#19CFFC"/>
<path d="M32.999 37.8105L35.0293 35.7802L33.9688 34.7197L32.249 36.4395L30.5293 34.7197L29.4688 35.7802L31.499 37.8105V38.25H29.999V39.75H31.499V40.5H29.999V42H31.499V42.75H32.999V42H34.499V40.5H32.999V39.75H34.499V38.25H32.999V37.8105Z" fill="#FF873C"/>
<path d="M47.2487 4.49998H42.7487C42.5498 4.49998 42.359 4.579 42.2183 4.71965C42.0777 4.8603 41.9987 5.05107 41.9987 5.24998V5.59573L29.5532 0.0644801C29.4376 0.0131299 29.3109 -0.00815888 29.1849 0.00259363C29.0589 0.0133461 28.9376 0.0557907 28.8324 0.12598L24.8184 2.80198C23.8347 1.83528 22.6569 1.08846 21.363 0.610891C20.0691 0.133326 18.6886 -0.0640934 17.3127 0.0316901C15.9368 0.127474 14.5969 0.514277 13.3817 1.16652C12.1664 1.81876 11.1035 2.72157 10.2632 3.81525C9.42293 4.90893 8.8244 6.16855 8.50723 7.5108C8.19005 8.85305 8.16146 10.2473 8.42335 11.6015C8.68524 12.9556 9.23163 14.2387 10.0264 15.3659C10.8212 16.4931 11.8462 17.4387 13.0337 18.1402C13.5983 20.5624 15.0049 22.7054 17.0027 24.1868C19.0004 25.6683 21.4595 26.392 23.9413 26.2289C26.4231 26.0657 28.7662 25.0264 30.5529 23.2961C32.3395 21.5659 33.4535 19.2573 33.6962 16.782C34.6853 17.0865 35.7138 17.2441 36.7487 17.25C38.5127 17.2265 40.2705 17.0362 41.9987 16.6815V17.25C41.9987 17.4489 42.0777 17.6397 42.2183 17.7803C42.359 17.921 42.5498 18 42.7487 18H47.2487C47.4476 18 47.6383 17.921 47.779 17.7803C47.9197 17.6397 47.9987 17.4489 47.9987 17.25V5.24998C47.9987 5.05107 47.9197 4.8603 47.779 4.71965C47.6383 4.579 47.4476 4.49998 47.2487 4.49998ZM9.74867 9.74998C9.7507 7.95768 10.3364 6.2148 11.417 4.78495C12.4977 3.3551 14.0146 2.31607 15.7383 1.82502C17.4621 1.33397 19.2988 1.41762 20.9708 2.0633C22.6427 2.70898 24.0589 3.88158 25.0052 5.40373C24.425 5.30334 23.8374 5.25191 23.2487 5.24998C23.1737 5.24998 23.0987 5.25973 23.0237 5.26123C22.396 4.54751 21.6228 3.97644 20.7561 3.5864C19.8893 3.19637 18.9491 2.99641 17.9987 2.99998C16.707 2.99812 15.442 3.36745 14.3542 4.064C13.2664 4.76056 12.4017 5.75499 11.863 6.92896C11.3243 8.10292 11.1342 9.40696 11.3154 10.6859C11.4966 11.9648 12.0415 13.1647 12.8852 14.1427C12.7982 14.6742 12.7526 15.2115 12.7487 15.75C12.7487 15.8722 12.7629 15.9907 12.7667 16.1122C11.8247 15.3407 11.0655 14.3699 10.5437 13.2698C10.0218 12.1697 9.75032 10.9676 9.74867 9.74998ZM21.0527 5.48473C19.3053 5.86355 17.6832 6.68112 16.3393 7.86037C14.9954 9.03962 13.9739 10.5417 13.3712 12.225C12.8103 11.1806 12.6199 9.97702 12.8308 8.81049C13.0417 7.64396 13.6416 6.5833 14.5326 5.80143C15.4237 5.01957 16.5533 4.56263 17.7374 4.50511C18.9214 4.4476 20.09 4.79291 21.0527 5.48473ZM23.2487 24.75C21.7062 24.752 20.1891 24.3576 18.8429 23.6045C17.4967 22.8514 16.3667 21.765 15.5613 20.4495C14.7558 19.134 14.302 17.6336 14.2433 16.0922C14.1847 14.5508 14.5232 13.0202 15.2263 11.6473C15.9295 10.2744 16.9737 9.10529 18.2587 8.2521C19.5438 7.39891 21.0265 6.89032 22.5647 6.77512C24.1029 6.65993 25.6449 6.942 27.0427 7.59427C28.4404 8.24654 29.6471 9.24712 30.5469 10.5H28.5849C27.3653 9.26703 25.7555 8.49578 24.0304 8.31798C22.3053 8.14018 20.572 8.56687 19.1266 9.52514C17.6811 10.4834 16.6133 11.9138 16.1054 13.572C15.5975 15.2302 15.6811 17.0133 16.3419 18.6167C17.0028 20.2201 18.1998 21.5443 19.7286 22.3631C21.2573 23.1819 23.023 23.4445 24.7239 23.1061C26.4247 22.7676 27.9553 21.8491 29.0542 20.5075C30.1531 19.1658 30.752 17.4842 30.7487 15.75H31.2857C31.5901 15.9263 31.9032 16.087 32.2239 16.2315C32.1008 18.5297 31.1019 20.6935 29.4325 22.2779C27.7631 23.8623 25.5502 24.7469 23.2487 24.75ZM23.2869 13.5C23.3673 14.0721 23.635 14.6014 24.0482 15.0052C24.0317 15.0052 24.0159 15 23.9987 15H22.4987C22.2998 15 22.109 14.921 21.9683 14.7803C21.8277 14.6397 21.7487 14.4489 21.7487 14.25C21.7487 14.0511 21.8277 13.8603 21.9683 13.7196C22.109 13.579 22.2998 13.5 22.4987 13.5H23.2869ZM23.9987 11.2935V11.25H22.4987V12C21.9019 12 21.3296 12.237 20.9077 12.659C20.4857 13.0809 20.2487 13.6532 20.2487 14.25C20.2487 14.8467 20.4857 15.419 20.9077 15.841C21.3296 16.2629 21.9019 16.5 22.4987 16.5H23.9987C24.1976 16.5 24.3883 16.579 24.529 16.7196C24.6697 16.8603 24.7487 17.0511 24.7487 17.25C24.7487 17.4489 24.6697 17.6397 24.529 17.7803C24.3883 17.921 24.1976 18 23.9987 18H22.4987C22.2998 18 22.109 17.921 21.9683 17.7803C21.8277 17.6397 21.7487 17.4489 21.7487 17.25H20.2487C20.2487 17.8467 20.4857 18.419 20.9077 18.841C21.3296 19.2629 21.9019 19.5 22.4987 19.5V20.25H23.9987V19.5C24.4364 19.5016 24.8651 19.3751 25.2317 19.136C25.5984 18.8968 25.887 18.5556 26.062 18.1544C26.237 17.7531 26.2906 17.3094 26.2164 16.878C26.1421 16.4466 25.9432 16.0464 25.6442 15.7267C25.7192 15.7335 25.7942 15.75 25.8737 15.75H29.2487C29.2529 17.071 28.8225 18.3567 28.0238 19.4089C27.225 20.4611 26.1024 21.2214 24.8288 21.5724C23.5553 21.9235 22.2017 21.8459 20.9766 21.3515C19.7516 20.8572 18.7232 19.9736 18.05 18.8369C17.3768 17.7003 17.0962 16.3738 17.2514 15.0619C17.4067 13.7501 17.9891 12.5257 18.9091 11.5776C19.829 10.6295 21.0352 10.0104 22.3418 9.81564C23.6484 9.62089 24.9828 9.86137 26.1392 10.5H25.8737C25.5239 10.5001 25.1778 10.5704 24.8557 10.7067C24.5337 10.843 24.2422 11.0425 23.9987 11.2935ZM36.7487 15.75C35.0448 15.7237 33.3778 15.2499 31.9149 14.376C31.7915 14.294 31.6468 14.2502 31.4987 14.25H25.8737C25.5753 14.25 25.2892 14.1315 25.0782 13.9205C24.8672 13.7095 24.7487 13.4233 24.7487 13.125C24.7487 12.8266 24.8672 12.5405 25.0782 12.3295C25.2892 12.1185 25.5753 12 25.8737 12H31.4987C31.6609 12 31.8188 11.9473 31.9487 11.85L34.9487 9.59998L34.0487 8.39998L31.9907 9.94348C30.7772 8.11563 29.021 6.71437 26.9694 5.93698C26.6664 5.22752 26.2794 4.55698 25.8167 3.93973L29.3237 1.60348L41.9987 7.23748V15.15C40.2724 15.5205 38.514 15.7214 36.7487 15.75ZM46.4987 16.5H43.4987V5.99998H46.4987V16.5Z" fill="black"/>
<path d="M44.25 14.25H45.75V15.75H44.25V14.25ZM2.25 40.5H3.75V42H2.25V40.5Z" fill="black"/>
<path d="M47.25 30H43.3155L41.9707 25.2945C41.9192 25.1067 41.7961 24.9465 41.6278 24.8484C41.4596 24.7503 41.2596 24.7219 41.0708 24.7695L38.25 25.4528V20.5605L39.9697 22.2803L41.0303 21.2197L38.0303 18.2197L38.025 18.225C37.9571 18.1534 37.8754 18.0963 37.7848 18.0571C37.6942 18.0179 37.5967 17.9975 37.498 17.9971C37.3993 17.9966 37.3015 18.0162 37.2106 18.0546C37.1197 18.093 37.0375 18.1495 36.969 18.2205L33.969 21.2205L35.0295 22.281L36.75 20.5605V25.815L26.8013 28.215L25.1663 27.1245C25.0693 27.0599 24.9586 27.0189 24.843 27.0045L18.843 26.2545C18.7077 26.238 18.5703 26.2582 18.4455 26.313L6 31.8457V31.5C6 31.3011 5.92098 31.1103 5.78033 30.9697C5.63968 30.829 5.44891 30.75 5.25 30.75H0.75C0.551088 30.75 0.360322 30.829 0.21967 30.9697C0.0790176 31.1103 0 31.3011 0 31.5L0 43.5C0 43.6989 0.0790176 43.8897 0.21967 44.0303C0.360322 44.171 0.551088 44.25 0.75 44.25H5.25C5.44891 44.25 5.63968 44.171 5.78033 44.0303C5.92098 43.8897 6 43.6989 6 43.5V42.9315C7.72815 43.2862 9.48598 43.4765 11.25 43.5C13.087 43.4798 14.8905 43.0058 16.5 42.12V47.25C16.5 47.4489 16.579 47.6397 16.7197 47.7803C16.8603 47.921 17.0511 48 17.25 48H47.25C47.4489 48 47.6397 47.921 47.7803 47.7803C47.921 47.6397 48 47.4489 48 47.25V30.75C48 30.5511 47.921 30.3603 47.7803 30.2197C47.6397 30.079 47.4489 30 47.25 30ZM40.725 26.4L41.7555 30H25.8L26.5117 29.8283L26.5808 29.874L26.631 29.799L38.232 27H38.25V26.9955L40.725 26.4ZM4.5 42.75H1.5V32.25H4.5V42.75ZM11.25 42C9.48466 41.9711 7.72634 41.7702 6 41.4V33.4875L18.864 27.7695L24.4815 28.4723L24.816 28.6973L19.4115 30H17.25C17.0511 30 16.8603 30.079 16.7197 30.2197C16.579 30.3603 16.5 30.5511 16.5 30.75V36.5625L13.95 34.65L13.05 35.85L16.05 38.1C16.1798 38.1974 16.3377 38.25 16.5 38.25H22.125C22.4234 38.25 22.7095 38.3685 22.9205 38.5795C23.1315 38.7905 23.25 39.0766 23.25 39.375C23.25 39.6734 23.1315 39.9595 22.9205 40.1705C22.7095 40.3815 22.4234 40.5 22.125 40.5H16.5C16.3525 40.5004 16.2083 40.544 16.0853 40.6252C14.6219 41.4995 12.9544 41.9736 11.25 42ZM27.75 39C27.751 38.1534 27.9909 37.3243 28.4419 36.6079C28.893 35.8915 29.537 35.3169 30.3 34.95L29.4712 35.7788L31.5 37.8105V38.25H30V39.75H31.5V40.5H30V42H31.5V42.75H33V42H34.5V40.5H33V39.75H34.5V38.25H33V37.8105L35.0303 35.7803L34.2 34.95C34.9251 35.2986 35.5434 35.8353 35.9907 36.5041C36.4379 37.1728 36.6976 37.9493 36.7429 38.7526C36.7881 39.5558 36.6172 40.3565 36.2478 41.0713C35.8785 41.7861 35.3243 42.3887 34.643 42.8166C33.9616 43.2444 33.178 43.4817 32.3738 43.5038C31.5695 43.526 30.7741 43.3321 30.0702 42.9424C29.3664 42.5527 28.7799 41.9814 28.3718 41.288C27.9637 40.5946 27.749 39.8045 27.75 39ZM38.25 39C38.2495 38.1476 38.0669 37.3051 37.7142 36.529C37.3616 35.7529 36.8472 35.0611 36.2055 34.5H42.1305C42.2429 34.8158 42.424 35.1028 42.6609 35.34C42.8977 35.5772 43.1843 35.7589 43.5 35.8717V42.1283C43.1839 42.2408 42.8969 42.4223 42.6596 42.6596C42.4224 42.8969 42.2408 43.1839 42.1283 43.5H36.2033C36.8454 42.9391 37.3602 42.2474 37.7132 41.4713C38.0662 40.6952 38.2492 39.8526 38.25 39ZM33.8797 34.8097L32.25 36.4395L30.6203 34.8097C31.6675 34.3967 32.8325 34.3967 33.8797 34.8097ZM26.25 39C26.2505 39.8524 26.4331 40.6949 26.7858 41.471C27.1384 42.2471 27.6528 42.9389 28.2945 43.5H22.3695C22.2571 43.1842 22.076 42.8972 21.8391 42.66C21.6023 42.4228 21.3157 42.2411 21 42.1283V42H22.125C22.8212 42 23.4889 41.7234 23.9812 41.2312C24.4734 40.7389 24.75 40.0712 24.75 39.375C24.75 38.6788 24.4734 38.0111 23.9812 37.5188C23.4889 37.0266 22.8212 36.75 22.125 36.75H21V35.8717C21.3161 35.7592 21.6031 35.5777 21.8404 35.3404C22.0777 35.1031 22.2592 34.8161 22.3717 34.5H28.2967C27.6546 35.0609 27.1398 35.7526 26.7868 36.5287C26.4338 37.3048 26.2508 38.1474 26.25 39ZM46.5 46.5H18V42H19.5V42.75C19.5 42.9489 19.579 43.1397 19.7197 43.2803C19.8603 43.421 20.0511 43.5 20.25 43.5C20.4489 43.5 20.6397 43.579 20.7803 43.7197C20.921 43.8603 21 44.0511 21 44.25C21 44.4489 21.079 44.6397 21.2197 44.7803C21.3603 44.921 21.5511 45 21.75 45H42.75C42.9489 45 43.1397 44.921 43.2803 44.7803C43.421 44.6397 43.5 44.4489 43.5 44.25C43.5 44.0511 43.579 43.8603 43.7197 43.7197C43.8603 43.579 44.0511 43.5 44.25 43.5C44.4489 43.5 44.6397 43.421 44.7803 43.2803C44.921 43.1397 45 42.9489 45 42.75V35.25C45 35.0511 44.921 34.8603 44.7803 34.7197C44.6397 34.579 44.4489 34.5 44.25 34.5C44.0511 34.5 43.8603 34.421 43.7197 34.2803C43.579 34.1397 43.5 33.9489 43.5 33.75C43.5 33.5511 43.421 33.3603 43.2803 33.2197C43.1397 33.079 42.9489 33 42.75 33H21.75C21.5511 33 21.3603 33.079 21.2197 33.2197C21.079 33.3603 21 33.5511 21 33.75C21 33.9489 20.921 34.1397 20.7803 34.2803C20.6397 34.421 20.4489 34.5 20.25 34.5C20.0511 34.5 19.8603 34.579 19.7197 34.7197C19.579 34.8603 19.5 35.0511 19.5 35.25V36.75H18V31.5H46.5V46.5ZM4.725 26.775C4.79349 26.8456 4.8754 26.9018 4.9659 26.9403C5.05641 26.9788 5.15369 26.9989 5.25205 26.9993C5.35041 26.9997 5.44787 26.9805 5.5387 26.9428C5.62953 26.905 5.71191 26.8495 5.781 26.7795L8.781 23.7795L7.7205 22.719L6 24.4395V15.75H4.5V24.4395L2.78025 22.7197L1.71975 23.7803L4.71975 26.7803L4.725 26.775ZM4.5 12.75H6V14.25H4.5V12.75Z" fill="black"/>
</g>
<defs>
<clipPath id="clip0_1044_6045">
<rect width="48" height="48" fill="white"/>
</clipPath>
</defs>
</svg>
