<svg width="48" height="48" viewBox="0 0 48 48" fill="none" xmlns="http://www.w3.org/2000/svg">
<path d="M33 6.75V33.75C33.0035 34.6338 32.7423 35.4985 32.25 36.2325C31.8409 36.8531 31.2841 37.3623 30.6296 37.7144C29.975 38.0665 29.2433 38.2506 28.5 38.25H13.5C12.9089 38.2506 12.3235 38.1346 11.7772 37.9087C11.231 37.6827 10.7347 37.3513 10.3167 36.9333C9.89872 36.5153 9.56728 36.019 9.34134 35.4728C9.1154 34.9265 8.99941 34.3411 9 33.75V6.75C9 5.55653 9.47411 4.41193 10.318 3.56802C11.1619 2.72411 12.3065 2.25 13.5 2.25H28.5C29.6935 2.25 30.8381 2.72411 31.682 3.56802C32.5259 4.41193 33 5.55653 33 6.75Z" fill="#5AAAE7"/>
<path d="M18.675 32.0325C18.675 32.4273 18.5716 32.8152 18.375 33.1575L15.435 38.25H13.95L13.5 37.5L16.875 31.6575C17.0716 31.3152 17.175 30.9273 17.175 30.5325C17.1768 30.3112 17.1439 30.0911 17.0775 29.88C17.2436 29.9255 17.4025 29.9936 17.55 30.0825C17.8932 30.279 18.1781 30.5631 18.3757 30.9056C18.5734 31.2482 18.6766 31.637 18.675 32.0325ZM32.25 28.5V36.2325C31.8409 36.853 31.2841 37.3623 30.6296 37.7144C29.975 38.0665 29.2433 38.2506 28.5 38.25H27.75V28.5C27.75 27.9033 27.9871 27.331 28.409 26.909C28.831 26.4871 29.4033 26.25 30 26.25C30.5967 26.25 31.169 26.4871 31.591 26.909C32.0129 27.331 32.25 27.9033 32.25 28.5Z" fill="#3D9AE2"/>
<path d="M18.615 32.5425C18.5673 32.7587 18.4864 32.9661 18.375 33.1575L18 33.8025V33.75C17.999 33.553 18.0376 33.3579 18.1136 33.1762C18.1897 32.9945 18.3015 32.83 18.4425 32.6925C18.4965 32.6386 18.5541 32.5884 18.615 32.5425Z" fill="#D8D7DA"/>
<path d="M17.175 30.5325C17.1756 30.0367 17.0124 29.5547 16.7108 29.1612C16.4092 28.7677 15.986 28.4849 15.5072 28.3566C15.0283 28.2284 14.5204 28.2618 14.0625 28.4519C13.6046 28.6419 13.2223 28.9779 12.975 29.4075L9.3975 35.6025C9.1346 35.0204 8.99907 34.3888 9 33.75V21.765C8.75131 21.7995 8.51525 21.8958 8.31345 22.0452C8.11166 22.1946 7.95059 22.3922 7.845 22.62L4.44 30.0075C3.98435 30.9898 3.74885 32.0597 3.75 33.1425V46.5L15.75 46.4925V42.4875C15.7484 41.6709 15.5255 40.87 15.105 40.17L13.95 38.25L13.5 37.5L16.875 31.6575C17.0716 31.3152 17.175 30.9273 17.175 30.5325Z" fill="#FFC477"/>
<path d="M22.5 32.25C22.8975 32.2512 23.2783 32.4096 23.5593 32.6907C23.8404 32.9717 23.9988 33.3525 24 33.75C23.9971 34.1469 23.8381 34.5267 23.5574 34.8074C23.2767 35.0881 22.8969 35.2471 22.5 35.25H19.5C19.1025 35.2488 18.7217 35.0904 18.4407 34.8093C18.1596 34.5283 18.0012 34.1475 18 33.75C18.0029 33.3531 18.1619 32.9733 18.4426 32.6926C18.7233 32.4119 19.1031 32.2529 19.5 32.25H22.5Z" fill="#E6E7E8"/>
<path d="M39.7483 37.5C39.7483 36.9033 39.9854 36.331 40.4073 35.909C40.8293 35.4871 41.4016 35.25 41.9983 35.25C42.5951 35.25 43.1673 35.4871 43.5893 35.909C44.0113 36.331 44.2483 36.9033 44.2483 37.5V46.5H24.0808L20.8483 40.905C20.6508 40.5629 20.5468 40.1747 20.5469 39.7796C20.5469 39.3846 20.651 38.9965 20.8487 38.6544C21.0463 38.3123 21.3306 38.0283 21.6728 37.8309C22.0151 37.6335 22.4032 37.5297 22.7983 37.53C23.1938 37.5284 23.5826 37.6316 23.9252 37.8293C24.2677 38.0269 24.5518 38.3118 24.7483 38.655L26.2483 41.25V27C26.2483 26.4033 26.4854 25.831 26.9073 25.409C27.3293 24.9871 27.9016 24.75 28.4983 24.75C29.0951 24.75 29.6673 24.9871 30.0893 25.409C30.5113 25.831 30.7483 26.4033 30.7483 27V36C30.7483 35.4033 30.9854 34.831 31.4073 34.409C31.8293 33.9871 32.4016 33.75 32.9983 33.75C33.5951 33.75 34.1673 33.9871 34.5893 34.409C35.0113 34.831 35.2483 35.4033 35.2483 36V36.75C35.2483 36.1533 35.4854 35.581 35.9073 35.159C36.3293 34.7371 36.9016 34.5 37.4983 34.5C38.0951 34.5 38.6673 34.7371 39.0893 35.159C39.5113 35.581 39.7483 36.1533 39.7483 36.75V37.5Z" fill="#FFC477"/>
<path d="M22.5 26.25C26.2279 26.25 29.25 23.2279 29.25 19.5C29.25 15.7721 26.2279 12.75 22.5 12.75C18.7721 12.75 15.75 15.7721 15.75 19.5C15.75 23.2279 18.7721 26.25 22.5 26.25Z" fill="#3D9AE2"/>
<path d="M21 24.75C24.7279 24.75 27.75 21.7279 27.75 18C27.75 14.2721 24.7279 11.25 21 11.25C17.2721 11.25 14.25 14.2721 14.25 18C14.25 21.7279 17.2721 24.75 21 24.75Z" fill="#FFD422"/>
<path d="M14.999 4.5H16.499V6H14.999V4.5ZM17.999 4.5H23.999V6H17.999V4.5ZM22.499 31.5H19.499C18.9023 31.5 18.33 31.7371 17.908 32.159C17.4861 32.581 17.249 33.1533 17.249 33.75C17.249 34.3467 17.4861 34.919 17.908 35.341C18.33 35.7629 18.9023 36 19.499 36H22.499C23.0957 36 23.668 35.7629 24.09 35.341C24.5119 34.919 24.749 34.3467 24.749 33.75C24.749 33.1533 24.5119 32.581 24.09 32.159C23.668 31.7371 23.0957 31.5 22.499 31.5ZM22.499 34.5H19.499C19.3001 34.5 19.1093 34.421 18.9687 34.2803C18.828 34.1397 18.749 33.9489 18.749 33.75C18.749 33.5511 18.828 33.3603 18.9687 33.2197C19.1093 33.079 19.3001 33 19.499 33H22.499C22.6979 33 22.8887 33.079 23.0293 33.2197C23.17 33.3603 23.249 33.5511 23.249 33.75C23.249 33.9489 23.17 34.1397 23.0293 34.2803C22.8887 34.421 22.6979 34.5 22.499 34.5ZM2.999 21H4.499V12.3105L5.46875 13.2803L6.52925 12.2197L4.27925 9.96975C4.1386 9.82915 3.94787 9.75016 3.749 9.75016C3.55013 9.75016 3.3594 9.82915 3.21875 9.96975L0.96875 12.2197L2.02925 13.2803L2.999 12.3105V21ZM37.499 12.3105V21H38.999V12.3105L39.9688 13.2803L41.0293 12.2197L38.7793 9.96975C38.6386 9.82915 38.4479 9.75016 38.249 9.75016C38.0501 9.75016 37.8594 9.82915 37.7188 9.96975L35.4688 12.2197L36.5293 13.2803L37.499 12.3105Z" fill="black"/>
<path d="M42 34.5C41.2939 34.4972 40.6101 34.7473 40.0725 35.205C39.8051 34.7616 39.4278 34.3948 38.9772 34.1399C38.5265 33.885 38.0177 33.7507 37.5 33.75C36.7939 33.7472 36.1101 33.9973 35.5725 34.455C35.1674 33.7802 34.5125 33.2924 33.75 33.0975V6.75C33.7484 5.3581 33.1948 4.02367 32.2106 3.03944C31.2263 2.05522 29.8919 1.50159 28.5 1.5H13.5C12.1081 1.50159 10.7737 2.05522 9.78944 3.03944C8.80522 4.02367 8.25159 5.3581 8.25 6.75V20.475C7.77323 20.698 7.3888 21.0798 7.1625 21.555L3.7575 28.9425C3.2608 30.025 3.00247 31.2015 3 32.3925V46.5H4.5V32.3925C4.50253 31.4187 4.71485 30.4569 5.1225 29.5725L8.25 22.785V33.75C8.25103 34.3618 8.36021 34.9687 8.5725 35.5425L7.83 36.825L9.1275 37.575L13.6275 29.7825C13.725 29.6111 13.8553 29.4606 14.0111 29.3396C14.1668 29.2187 14.3448 29.1296 14.535 29.0775C14.9201 28.979 15.3285 29.0327 15.675 29.2275C16.0195 29.428 16.2706 29.7568 16.3732 30.1419C16.4758 30.5271 16.4216 30.9372 16.2225 31.2825L12.8475 37.125C12.7823 37.2422 12.7487 37.3744 12.75 37.5085C12.7513 37.6426 12.7875 37.7741 12.855 37.89L14.46 40.56C14.8118 41.1415 14.9985 41.8079 15 42.4875V46.4925H16.5V42.4875C16.4983 41.5363 16.2391 40.6033 15.75 39.7875L15.2775 39H19.905C19.7009 39.7699 19.8087 40.5891 20.205 41.28L23.4375 46.875L24.735 46.125L21.5025 40.53C21.3522 40.273 21.2817 39.977 21.3002 39.6798C21.3186 39.3825 21.4251 39.0975 21.6061 38.8611C21.7871 38.6246 22.0343 38.4473 22.3164 38.3518C22.5985 38.2564 22.9026 38.247 23.19 38.325C23.3812 38.3748 23.5602 38.463 23.7162 38.5842C23.8722 38.7054 24.002 38.8571 24.0975 39.03L25.5975 41.625C25.6818 41.7673 25.8099 41.8786 25.9627 41.9421C26.1154 42.0057 26.2846 42.0181 26.445 41.9775C26.6048 41.9345 26.7459 41.8398 26.8463 41.7082C26.9467 41.5766 27.0007 41.4155 27 41.25V27C27 26.6022 27.158 26.2206 27.4393 25.9393C27.7206 25.658 28.1022 25.5 28.5 25.5C28.8978 25.5 29.2794 25.658 29.5607 25.9393C29.842 26.2206 30 26.6022 30 27V39C30 39.1989 30.079 39.3897 30.2197 39.5303C30.3603 39.671 30.5511 39.75 30.75 39.75C30.9489 39.75 31.1397 39.671 31.2803 39.5303C31.421 39.3897 31.5 39.1989 31.5 39V36C31.5 35.6022 31.658 35.2206 31.9393 34.9393C32.2206 34.658 32.6022 34.5 33 34.5C33.3978 34.5 33.7794 34.658 34.0607 34.9393C34.342 35.2206 34.5 35.6022 34.5 36V39C34.5 39.1989 34.579 39.3897 34.7197 39.5303C34.8603 39.671 35.0511 39.75 35.25 39.75C35.4489 39.75 35.6397 39.671 35.7803 39.5303C35.921 39.3897 36 39.1989 36 39V36.75C36 36.3522 36.158 35.9706 36.4393 35.6893C36.7206 35.408 37.1022 35.25 37.5 35.25C37.8978 35.25 38.2794 35.408 38.5607 35.6893C38.842 35.9706 39 36.3522 39 36.75V39C39 39.1989 39.079 39.3897 39.2197 39.5303C39.3603 39.671 39.5511 39.75 39.75 39.75C39.9489 39.75 40.1397 39.671 40.2803 39.5303C40.421 39.3897 40.5 39.1989 40.5 39V37.5C40.5 37.1022 40.658 36.7206 40.9393 36.4393C41.2206 36.158 41.6022 36 42 36C42.3978 36 42.7794 36.158 43.0607 36.4393C43.342 36.7206 43.5 37.1022 43.5 37.5V46.5H45V37.5C45 36.7043 44.6839 35.9413 44.1213 35.3787C43.5587 34.8161 42.7957 34.5 42 34.5ZM32.25 33.0975C31.9872 33.1654 31.7348 33.2688 31.5 33.405V27C31.5 26.2044 31.1839 25.4413 30.6213 24.8787C30.0587 24.3161 29.2956 24 28.5 24C27.7044 24 26.9413 24.3161 26.3787 24.8787C25.8161 25.4413 25.5 26.2044 25.5 27V37.5H24.7425C24.4048 37.2106 24.0081 36.9981 23.58 36.8775C22.8101 36.6738 21.991 36.7816 21.3 37.1775C21.1435 37.2721 20.9955 37.38 20.8575 37.5H14.3775L14.37 37.4925L17.5275 32.0325C17.9253 31.3433 18.0331 30.5242 17.827 29.7556C17.6209 28.9869 17.118 28.3316 16.4288 27.9338C15.7395 27.5359 14.9205 27.4282 14.1518 27.6342C13.3832 27.8403 12.7278 28.3433 12.33 29.0325L9.75 33.495V6.75C9.75 5.75544 10.1451 4.80161 10.8483 4.09835C11.5516 3.39509 12.5054 3 13.5 3H28.5C29.4946 3 30.4484 3.39509 31.1516 4.09835C31.8549 4.80161 32.25 5.75544 32.25 6.75V33.0975Z" fill="black"/>
<path d="M20.25 15.75H21.75C21.9489 15.75 22.1397 15.829 22.2803 15.9697C22.421 16.1103 22.5 16.3011 22.5 16.5H24C24 15.9033 23.7629 15.331 23.341 14.909C22.919 14.4871 22.3467 14.25 21.75 14.25V13.5H20.25V14.25C19.6533 14.25 19.081 14.4871 18.659 14.909C18.2371 15.331 18 15.9033 18 16.5C18 17.0967 18.2371 17.669 18.659 18.091C19.081 18.5129 19.6533 18.75 20.25 18.75H21.75C21.9489 18.75 22.1397 18.829 22.2803 18.9697C22.421 19.1103 22.5 19.3011 22.5 19.5C22.5 19.6989 22.421 19.8897 22.2803 20.0303C22.1397 20.171 21.9489 20.25 21.75 20.25H20.25C20.0511 20.25 19.8603 20.171 19.7197 20.0303C19.579 19.8897 19.5 19.6989 19.5 19.5H18C18 20.0967 18.2371 20.669 18.659 21.091C19.081 21.5129 19.6533 21.75 20.25 21.75V22.5H21.75V21.75C22.3467 21.75 22.919 21.5129 23.341 21.091C23.7629 20.669 24 20.0967 24 19.5C24 18.9033 23.7629 18.331 23.341 17.909C22.919 17.4871 22.3467 17.25 21.75 17.25H20.25C20.0511 17.25 19.8603 17.171 19.7197 17.0303C19.579 16.8897 19.5 16.6989 19.5 16.5C19.5 16.3011 19.579 16.1103 19.7197 15.9697C19.8603 15.829 20.0511 15.75 20.25 15.75Z" fill="black"/>
<path d="M21 10.5C19.5166 10.5 18.0666 10.9399 16.8332 11.764C15.5999 12.5881 14.6386 13.7594 14.0709 15.1299C13.5032 16.5003 13.3547 18.0083 13.6441 19.4632C13.9335 20.918 14.6478 22.2544 15.6967 23.3033C16.7456 24.3522 18.082 25.0665 19.5368 25.3559C20.9917 25.6453 22.4997 25.4968 23.8701 24.9291C25.2406 24.3614 26.4119 23.4001 27.236 22.1668C28.0601 20.9334 28.5 19.4834 28.5 18C28.4978 16.0115 27.7069 14.1052 26.3009 12.6991C24.8948 11.2931 22.9885 10.5022 21 10.5ZM21 24C19.8133 24 18.6533 23.6481 17.6666 22.9888C16.6799 22.3295 15.9108 21.3925 15.4567 20.2961C15.0026 19.1997 14.8838 17.9933 15.1153 16.8295C15.3468 15.6656 15.9182 14.5965 16.7574 13.7574C17.5965 12.9182 18.6656 12.3468 19.8295 12.1153C20.9933 11.8838 22.1997 12.0026 23.2961 12.4567C24.3925 12.9108 25.3295 13.6799 25.9888 14.6666C26.6481 15.6533 27 16.8133 27 18C26.9982 19.5908 26.3655 21.1158 25.2407 22.2407C24.1158 23.3655 22.5907 23.9982 21 24ZM37.5 22.5H39V24H37.5V22.5ZM37.5 25.5H39V27H37.5V25.5ZM3 22.5H4.5V24H3V22.5Z" fill="black"/>
</svg>
