<svg width="48" height="48" fill="none" xmlns="http://www.w3.org/2000/svg"><g clip-path="url(#clip0_1044_6123)"><path d="M21.924 12.373l-.93-1.955a4.32 4.32 0 0 0-2.212-2.123l-.707-.3-4.313-2.511-1.146-2.688a1.879 1.879 0 0 0-1.728-1.142h-.006a2.73 2.73 0 0 0-2.524 1.692 3.277 3.277 0 0 0-.247 1.246v2.965c0 .909.196 1.808.574 2.635l.651 1.426a.534.534 0 0 1-.485.755H3.364a2.66 2.66 0 0 0-1.647 4.75.45.45 0 0 1 .053.655 2.467 2.467 0 0 0 .418 3.664.54.54 0 0 1 .158.732 2.297 2.297 0 0 0 1.428 3.496.162.162 0 0 1 .04.299 2.295 2.295 0 0 0-1.19 2.06c.026 1.258 1.093 2.249 2.352 2.249h18.226V16.844l-1.279-4.471z" fill="#FFDFCF"/><path d="M8.247 27.809c-.69 0-1.348-.241-1.907-.643l-.007-.005a2.29 2.29 0 0 1-.6-3.127.54.54 0 0 0-.159-.732 2.467 2.467 0 0 1-.423-3.658.456.456 0 0 0-.047-.662A2.655 2.655 0 0 1 4.09 16.94c-.025-1.496 1.22-2.707 2.717-2.707h3.864c1.13 0 1.86-1.168 1.393-2.197a6.345 6.345 0 0 1-.566-2.62V6.452c0-.427.084-.85.246-1.246a2.727 2.727 0 0 1 1.302-1.4l-.432-1.015a1.861 1.861 0 0 0-1.715-1.136c-1.084.004-2.082.634-2.515 1.63-.18.412-.273.857-.273 1.307v2.966c0 .909.196 1.808.573 2.635l.652 1.426a.534.534 0 0 1-.486.755H3.42c-1.496 0-2.742 1.21-2.716 2.707a2.654 2.654 0 0 0 1.013 2.043.456.456 0 0 1 .047.662 2.467 2.467 0 0 0 .423 3.658.54.54 0 0 1 .16.731 2.297 2.297 0 0 0 1.428 3.496.162.162 0 0 1 .04.299c-.125.069-.243.15-.352.241v-.001a2.29 2.29 0 0 0-.838 1.802c.016 1.265 1.084 2.267 2.35 2.267h18.227v-2.469H8.247z" fill="#FFCEBF"/><path d="M25.229 22.34v9.224h-3.272v-19.79c0-1.052.852-1.904 1.903-1.904h1.369v12.47z" fill="#A2E62E"/><path d="M31.57 10.67v20.894h-6.343V9.87h5.541a.8.8 0 0 1 .801.8z" fill="#BBEC6C"/><path d="M26.08 44.137l1.42.838c.546.323 1.169.493 1.803.493h13.724c1.259 0 2.325-.99 2.35-2.25a2.295 2.295 0 0 0-1.188-2.06.16.16 0 0 1 .04-.298 2.298 2.298 0 0 0 1.428-3.495.54.54 0 0 1 .158-.732 2.467 2.467 0 0 0 .417-3.665.45.45 0 0 1 .054-.655 2.66 2.66 0 0 0-1.647-4.75h-5.487a.533.533 0 0 1-.485-.755l.65-1.426a6.344 6.344 0 0 0 .574-2.635v-2.965c0-.428-.083-.85-.246-1.246a2.73 2.73 0 0 0-2.525-1.692h-.005a1.88 1.88 0 0 0-1.729 1.142l-1.145 2.688-4.313 2.511-.707.3a4.32 4.32 0 0 0-2.213 2.123l-.929 1.955-2.876 5.334v9.276l2.876 1.964z" fill="#FFDFCF"/><path d="M25.709 34.896l2.876-5.335.929-1.955a4.32 4.32 0 0 1 2.212-2.122l.707-.3 4.313-2.512 1.146-2.687a1.879 1.879 0 0 1 1.728-1.143h.006c.042 0 .083.003.125.005a3.263 3.263 0 0 0-.11-.311 2.73 2.73 0 0 0-2.524-1.692h-.006a1.88 1.88 0 0 0-1.729 1.142l-1.145 2.688-4.313 2.511-.707.3a4.32 4.32 0 0 0-2.213 2.123l-.929 1.955-2.876 5.335v9.275l2.51 1.714v-8.991z" fill="#FFCEBF"/><path d="M43.015 42.855H29.291c-.634 0-1.257-.17-1.803-.492l-1.42-.838-2.869-1.96v2.608l2.876 1.964 1.42.838c.547.323 1.17.493 1.804.493h13.724c1.26 0 2.325-.99 2.35-2.25a2.284 2.284 0 0 0-.416-1.366 2.377 2.377 0 0 1-1.942 1.003z" fill="#FFCEBF"/><path d="M24.14 25.06H22.77l-2.568 3.034v16.445l2.568 1.807h1.369c1.05 0 1.903-.852 1.903-1.903v-17.48a1.904 1.904 0 0 0-1.903-1.904z" fill="#FE646F"/><path d="M24.14 42.517H22.77l-2.568-1.807v3.83l2.568 1.806h1.369c1.05 0 1.903-.852 1.903-1.903v-3.83c0 1.051-.852 1.904-1.903 1.904z" fill="#FD4755"/><path d="M22.772 25.06v21.286h-5.541a.8.8 0 0 1-.801-.8V25.86c0-.442.358-.8.8-.8h5.542z" fill="#FD8087"/><path d="M16.43 41.716v3.83a.8.8 0 0 0 .8.8h5.542v-3.83h-5.541a.8.8 0 0 1-.801-.8z" fill="#FE646F"/><path d="M41.296 6.665a4.218 4.218 0 0 1-1.27-1.227.465.465 0 0 0-.796.045c-.274.512-.704.918-1.29 1.22a.464.464 0 0 0-.042.8c.499.328.917.754 1.247 1.285.184.294.607.29.792-.003a4.181 4.181 0 0 1 1.361-1.331.464.464 0 0 0-.002-.789z" fill="#FEF056"/><path d="M8.715 36.93a6.11 6.11 0 0 1-1.839-1.778.673.673 0 0 0-1.153.066c-.398.74-1.02 1.33-1.87 1.766a.672.672 0 0 0-.06 1.16 5.962 5.962 0 0 1 1.807 1.86A.674.674 0 0 0 6.746 40a6.057 6.057 0 0 1 1.973-1.928.673.673 0 0 0-.004-1.143z" fill="#FEDF30"/><path d="M47.561 34.614c0-.692-.226-1.366-.645-1.918A3.342 3.342 0 0 0 48 30.224a3.367 3.367 0 0 0-3.364-3.363h-.727a.702.702 0 1 0 0 1.405h.727a1.96 1.96 0 0 1 1.959 1.958c0 .603-.273 1.163-.747 1.538a1.154 1.154 0 0 0-.142 1.675 1.764 1.764 0 0 1-.3 2.622 1.238 1.238 0 0 0-.34 1.69c.168.258.258.56.257.869 0 .742-.525 1.396-1.248 1.556a.864.864 0 0 0-.229 1.6 1.591 1.591 0 0 1 .827 1.43c-.018.861-.757 1.562-1.649 1.562H29.301a2.847 2.847 0 0 1-1.447-.395l-1.108-.655V27.791l.894-1.882a3.615 3.615 0 0 1 1.853-1.777l.707-.3a.697.697 0 0 0 .079-.04l4.313-2.511a.703.703 0 0 0 .293-.332l1.145-2.687c.185-.435.61-.715 1.088-.715a2.02 2.02 0 0 1 1.875 1.256c.128.31.194.643.193.979v2.965a5.603 5.603 0 0 1-.51 2.343l-.65 1.426a1.228 1.228 0 0 0 .084 1.182 1.231 1.231 0 0 0 1.04.567h1.766a.702.702 0 1 0 0-1.404h-1.504l.542-1.187a6.998 6.998 0 0 0 .637-2.927v-2.965a3.96 3.96 0 0 0-.299-1.514 3.423 3.423 0 0 0-3.18-2.126 2.577 2.577 0 0 0-2.374 1.569l-1.054 2.473-4.074 2.372-.666.283a5.018 5.018 0 0 0-2.573 2.467l-.085.18a2.605 2.605 0 0 0-2.146-1.129h-6.91c-.83 0-1.503.675-1.503 1.503v14.09a.702.702 0 1 0 1.404 0V25.86c0-.054.044-.098.099-.098h4.84v19.882h-4.84a.098.098 0 0 1-.099-.099v-2.602a.702.702 0 1 0-1.404 0v2.603c0 .828.674 1.503 1.503 1.503h6.91a2.61 2.61 0 0 0 2.471-1.78l.529.311c.654.386 1.4.59 2.16.59h13.724c1.651 0 3.02-1.318 3.053-2.938a2.992 2.992 0 0 0-.768-2.067 3.02 3.02 0 0 0 1.42-2.547 2.99 2.99 0 0 0-.4-1.494 3.18 3.18 0 0 0 1.232-2.51zm-22.22 9.829c0 .662-.539 1.2-1.201 1.2h-.666v-19.88h.666c.662 0 1.201.538 1.201 1.2v17.48z" fill="#000"/><path d="M18.218 8.819l.289.123a3.614 3.614 0 0 1 1.852 1.777l.895 1.882v9.65a.702.702 0 1 0 1.404 0V11.772c0-.662.54-1.201 1.202-1.201h.666V22.34a.702.702 0 1 0 1.404 0V10.572h4.84c.054 0 .098.044.098.098v8.306a.702.702 0 1 0 1.405 0V10.67c0-.829-.674-1.503-1.503-1.503h-6.91c-.89 0-1.675.448-2.146 1.13l-.086-.18a5.018 5.018 0 0 0-2.572-2.468l-.29-.123a.702.702 0 1 0-.548 1.293zM9.007 3.613a2.023 2.023 0 0 1 1.88-1.257c.472 0 .897.281 1.082.716l1.146 2.687c.06.14.162.255.293.332l2.066 1.203a.703.703 0 0 0 .706-1.215l-1.864-1.085-1.054-2.473a2.58 2.58 0 0 0-2.38-1.57 3.42 3.42 0 0 0-3.175 2.127c-.198.48-.3.994-.299 1.514v2.964a6.998 6.998 0 0 0 .637 2.928l.542 1.186H3.363A3.367 3.367 0 0 0 0 15.033c0 .95.392 1.837 1.084 2.473a3.167 3.167 0 0 0-.646 1.918c0 .982.458 1.91 1.232 2.51a2.99 2.99 0 0 0-.399 1.493c0 1.052.561 2.01 1.42 2.547a2.992 2.992 0 0 0-.769 2.068c.033 1.62 1.402 2.938 3.053 2.938h8.645a.702.702 0 1 0 0-1.405H4.975c-.891 0-1.631-.7-1.648-1.561a1.592 1.592 0 0 1 .826-1.43.864.864 0 0 0-.228-1.6 1.603 1.603 0 0 1-1.249-1.557c0-.31.09-.61.258-.87a1.238 1.238 0 0 0-.341-1.688 1.773 1.773 0 0 1-.75-1.445c0-.435.16-.854.45-1.178a1.164 1.164 0 0 0 .292-.872 1.154 1.154 0 0 0-.434-.803 1.948 1.948 0 0 1-.746-1.538 1.96 1.96 0 0 1 1.958-1.958H8.85c.423 0 .811-.212 1.04-.568a1.23 1.23 0 0 0 .084-1.181L9.323 9.9a5.603 5.603 0 0 1-.51-2.344V4.592c0-.338.065-.667.194-.98zM37.514 8.09c.423.278.762.627 1.037 1.068a1.157 1.157 0 0 0 .985.55h.003c.405 0 .777-.205.994-.55.276-.439.659-.812 1.137-1.108a1.156 1.156 0 0 0 .55-.986 1.165 1.165 0 0 0-.55-.995 3.492 3.492 0 0 1-1.06-1.025 1.154 1.154 0 0 0-1.024-.512 1.164 1.164 0 0 0-.973.618c-.208.387-.533.69-.993.927-.373.192-.61.557-.632.976-.022.419.175.807.526 1.037zm2.148-1.964c.277.353.602.667.965.932a4.867 4.867 0 0 0-1.084 1.06c-.268-.37-.587-.7-.948-.98a3.602 3.602 0 0 0 1.067-1.012zM9.088 36.334a5.441 5.441 0 0 1-1.63-1.575 1.357 1.357 0 0 0-1.205-.602 1.373 1.373 0 0 0-1.149.729c-.332.618-.846 1.1-1.572 1.473-.44.227-.718.657-.744 1.15-.026.494.206.951.62 1.223.642.422 1.18.975 1.596 1.644.252.404.686.646 1.16.648h.004a1.38 1.38 0 0 0 1.173-.65 5.386 5.386 0 0 1 1.748-1.705 1.362 1.362 0 0 0 .648-1.161 1.373 1.373 0 0 0-.649-1.174zm-2.916 3.26a6.685 6.685 0 0 0-1.952-2.009c.937-.491 1.644-1.163 2.102-1.998a6.836 6.836 0 0 0 1.984 1.915 6.775 6.775 0 0 0-2.134 2.092z" fill="#000"/></g><defs><clipPath id="clip0_1044_6123"><path fill="#fff" d="M0 0h48v48H0z"/></clipPath></defs></svg>