<svg width="56" height="56" viewBox="0 0 56 56" fill="none" xmlns="http://www.w3.org/2000/svg">
<path d="M27.0688 3.73335V6.76668C25.215 6.45245 23.3214 6.4556 21.4688 6.77602V3.73335C21.4688 2.99074 21.7637 2.27855 22.2889 1.75345C22.814 1.22835 23.5261 0.93335 24.2688 0.93335C25.0114 0.93335 25.7235 1.22835 26.2486 1.75345C26.7738 2.27855 27.0688 2.99074 27.0688 3.73335Z" fill="#FF9801"/>
<path d="M42.9349 42.9334H5.60156L6.83356 36.148C7.2545 33.8324 7.4673 31.4832 7.46823 29.1293V23.3334C7.46823 15.1368 13.3856 8.13868 21.4682 6.77602C23.9368 6.35343 26.4687 6.49045 28.8773 7.17699C31.2858 7.86353 33.5095 9.08206 35.3842 10.7427C32.9891 12.0103 31.0872 14.0433 29.9818 16.5176C28.8765 18.9918 28.6312 21.7649 29.2852 24.3947C29.9392 27.0246 31.4547 29.3598 33.5902 31.0281C35.7257 32.6965 38.3583 33.6019 41.0682 33.6C41.1554 33.6016 41.2427 33.5985 41.3296 33.5907C41.4229 34.44 41.5442 35.2987 41.7029 36.148L42.9349 42.9334Z" fill="#FFDF00"/>
<path d="M41.7045 36.148C41.5459 35.2987 41.4245 34.44 41.3312 33.5907C41.2443 33.5985 41.1571 33.6016 41.0699 33.6C38.3599 33.6019 35.7274 32.6965 33.5918 31.0281C31.4563 29.3598 29.9408 27.0246 29.2868 24.3947C28.6328 21.7649 28.8781 18.9918 29.9835 16.5176C31.0888 14.0433 32.9907 12.0103 35.3858 10.7427C33.6939 9.24384 31.7158 8.1034 29.5709 7.3902C27.426 6.677 25.1588 6.40584 22.9062 6.59309C23.3673 6.63135 23.8228 6.68642 24.2699 6.76669C27.3595 7.28717 30.2408 8.6648 32.5859 10.7427C30.1907 12.0103 28.2888 14.0433 27.1835 16.5176C26.0781 18.9918 25.8328 21.7649 26.4868 24.3947C27.1408 27.0246 28.6563 29.3598 30.7918 31.0281C32.9274 32.6965 35.5599 33.6019 38.2699 33.6C38.3571 33.6016 38.4443 33.5985 38.5312 33.5907C38.6245 34.44 38.7459 35.2987 38.9045 36.148L40.1365 42.9334H42.9365L41.7045 36.148Z" fill="#FEC108"/>
<path d="M46.6672 46.6667C46.6678 47.1571 46.5717 47.6429 46.3843 48.0961C46.1969 48.5493 45.9219 48.9611 45.5751 49.3079C45.2283 49.6547 44.8165 49.9297 44.3633 50.1171C43.91 50.3045 43.4243 50.4006 42.9339 50.4H5.60052C4.61038 50.4 3.66079 50.0067 2.96066 49.3065C2.26052 48.6064 1.86719 47.6568 1.86719 46.6667C1.86719 45.6765 2.26052 44.727 2.96066 44.0268C3.66079 43.3267 4.61038 42.9333 5.60052 42.9333H42.9339C43.924 42.9333 44.8736 43.3267 45.5737 44.0268C46.2739 44.727 46.6672 45.6765 46.6672 46.6667Z" fill="#FFEB3A"/>
<path d="M42.9367 42.9333H40.1367C41.1269 42.9333 42.0764 43.3267 42.7766 44.0268C43.4767 44.727 43.8701 45.6765 43.8701 46.6667C43.8701 47.6568 43.4767 48.6064 42.7766 49.3065C42.0764 50.0067 41.1269 50.4 40.1367 50.4H42.9367C43.9269 50.4 44.8764 50.0067 45.5766 49.3065C46.2767 48.6064 46.6701 47.6568 46.6701 46.6667C46.6701 45.6765 46.2767 44.727 45.5766 44.0268C44.8764 43.3267 43.9269 42.9333 42.9367 42.9333Z" fill="#FDD834"/>
<path d="M28.9349 50.4C28.9349 51.6377 28.4432 52.8247 27.5681 53.6999C26.6929 54.575 25.5059 55.0667 24.2682 55.0667C23.0306 55.0667 21.8436 54.575 20.9684 53.6999C20.0932 52.8247 19.6016 51.6377 19.6016 50.4H28.9349Z" fill="#FF9801"/>
<path d="M26.1339 50.4C26.144 51.3929 25.8308 52.3621 25.2415 53.1612C24.6521 53.9604 23.8187 54.546 22.8672 54.8296C23.3189 54.9799 23.7912 55.0602 24.2672 55.0667C24.8805 55.0685 25.4882 54.9491 26.0552 54.7152C26.6222 54.4814 27.1374 54.1377 27.5711 53.704C28.0048 53.2703 28.3485 52.7551 28.5824 52.1881C28.8163 51.621 28.9357 51.0134 28.9339 50.4H26.1339Z" fill="#F57C00"/>
<path d="M53.2003 21.4667C53.204 28.0654 47.9269 33.4554 41.3283 33.5907C41.2414 33.5985 41.1541 33.6016 41.0669 33.6C34.3656 33.6 28.9336 28.168 28.9336 21.4667C28.9336 14.7654 34.3656 9.33337 41.0669 9.33337C47.7683 9.33337 53.2003 14.7654 53.2003 21.4667Z" fill="#F44335"/>
<path d="M41.0686 9.33337C40.601 9.33524 40.1334 9.36417 39.6686 9.42017C42.6249 9.76108 45.3527 11.1773 47.3324 13.3992C49.3121 15.6212 50.4056 18.4936 50.4045 21.4695C50.4035 24.4455 49.3081 27.3171 47.3268 29.5376C45.3455 31.7582 42.6168 33.1725 39.6602 33.5114C40.1268 33.5683 40.5982 33.5982 41.0686 33.6C41.1558 33.6016 41.243 33.5985 41.3299 33.5907C47.9062 33.3518 53.0927 27.9142 53.0218 21.3351C52.9508 14.7551 47.6486 9.43044 41.0686 9.33337Z" fill="#C81E1E"/>
<path d="M11.2029 24.2667C10.9554 24.2667 10.718 24.1684 10.5429 23.9933C10.3679 23.8183 10.2696 23.5809 10.2696 23.3334C10.2654 21.2138 10.745 19.1212 11.6717 17.2149C12.5985 15.3087 13.948 13.639 15.6176 12.3331C15.7139 12.2572 15.8242 12.2011 15.9423 12.1679C16.0603 12.1346 16.1837 12.125 16.3055 12.1395C16.4273 12.1539 16.545 12.1923 16.652 12.2522C16.7589 12.3122 16.853 12.3926 16.9289 12.489C17.0048 12.5853 17.0609 12.6957 17.0941 12.8137C17.1274 12.9317 17.137 13.0552 17.1225 13.1769C17.1081 13.2987 17.0698 13.4164 17.0098 13.5234C16.9498 13.6303 16.8694 13.7244 16.773 13.8003C15.3258 14.9319 14.1559 16.3787 13.3524 18.0307C12.5489 19.6827 12.1329 21.4963 12.1362 23.3334C12.1362 23.5809 12.0379 23.8183 11.8629 23.9933C11.6878 24.1684 11.4504 24.2667 11.2029 24.2667Z" fill="#F5F5F5"/>
<path d="M26.9076 1.09482C26.3855 0.573246 25.7206 0.218108 24.9967 0.0742767C24.2729 -0.0695546 23.5226 0.00437322 22.8408 0.286721C22.1589 0.569069 21.5761 1.04717 21.1658 1.66062C20.7555 2.27408 20.5363 2.99536 20.5358 3.73336V6.00323C16.5751 6.86092 13.0268 9.04748 10.4802 12.1999C7.93357 15.3523 6.54173 19.2808 6.53578 23.3334V29.1294C6.53399 31.4271 6.32659 33.7201 5.91604 35.981L4.80911 42.0803C3.65809 42.2779 2.62322 42.9005 1.90939 43.8248C1.19555 44.7491 0.85478 45.9077 0.954544 47.0713C1.05431 48.2349 1.58733 49.3186 2.44809 50.1079C3.30884 50.8972 4.43458 51.3346 5.60244 51.3334H18.7531C18.9725 52.6377 19.6469 53.8221 20.6568 54.6763C21.6666 55.5304 22.9465 55.9991 24.2691 55.9991C25.5918 55.9991 26.8716 55.5304 27.8814 54.6763C28.8913 53.8221 29.5657 52.6377 29.7851 51.3334H42.9358C44.1036 51.3346 45.2294 50.8972 46.0901 50.1079C46.9509 49.3186 47.4839 48.2349 47.5837 47.0713C47.6834 45.9077 47.3427 44.7491 46.6288 43.8248C45.915 42.9005 44.8801 42.2779 43.7291 42.0803L42.6212 35.9763C42.5279 35.4984 42.4542 34.9898 42.3823 34.4671C44.2795 34.2825 46.1134 33.6851 47.7553 32.7168C49.3971 31.7484 50.8072 30.4325 51.8867 28.8615C52.9662 27.2904 53.6888 25.5022 54.004 23.6223C54.3192 21.7423 54.2192 19.8162 53.7111 17.979C53.2031 16.1418 52.2992 14.438 51.0629 12.9871C49.8266 11.5362 48.2878 10.3734 46.5545 9.5802C44.8212 8.787 42.9354 8.38262 41.0293 8.39545C39.1231 8.40827 37.2429 8.83797 35.5204 9.65442C33.3413 7.85776 30.7633 6.60957 28.0024 6.01442V3.73336C28.0035 3.24302 27.9072 2.75734 27.7193 2.30444C27.5314 1.85153 27.2555 1.4404 26.9076 1.09482ZM22.4024 3.73336C22.4024 3.23829 22.5991 2.76349 22.9492 2.41343C23.2992 2.06336 23.774 1.86669 24.2691 1.86669C24.7642 1.86669 25.239 2.06336 25.589 2.41343C25.9391 2.76349 26.1358 3.23829 26.1358 3.73336V5.70829C24.8955 5.56674 23.6433 5.56393 22.4024 5.69989V3.73336ZM24.2691 54.1334C23.4417 54.1321 22.6379 53.8567 21.9837 53.35C21.3295 52.8434 20.8616 52.1342 20.6534 51.3334H27.8848C27.6766 52.1342 27.2087 52.8434 26.5545 53.35C25.9003 53.8567 25.0966 54.1321 24.2691 54.1334ZM45.7358 46.6667C45.7358 47.4093 45.4408 48.1215 44.9157 48.6466C44.3906 49.1717 43.6784 49.4667 42.9358 49.4667H5.60244C4.85984 49.4667 4.14765 49.1717 3.62255 48.6466C3.09744 48.1215 2.80244 47.4093 2.80244 46.6667C2.80244 45.9241 3.09744 45.2119 3.62255 44.6868C4.14765 44.1617 4.85984 43.8667 5.60244 43.8667H42.9358C43.6784 43.8667 44.3906 44.1617 44.9157 44.6868C45.4408 45.2119 45.7358 45.9241 45.7358 46.6667ZM52.2691 21.4667C52.2691 27.6519 47.2543 32.6667 41.0691 32.6667C34.8839 32.6667 29.8691 27.6519 29.8691 21.4667C29.8691 15.2815 34.8839 10.2667 41.0691 10.2667C47.2515 10.2732 52.2626 15.2843 52.2691 21.4667ZM28.0024 21.4667C28.0118 28.4592 33.5231 34.2048 40.5091 34.5044C40.5912 35.1335 40.6818 35.7467 40.7891 36.3151L41.8158 42H6.72244L7.74911 36.3151C8.18124 33.9444 8.39964 31.5383 8.40244 29.1284V23.3334C8.40071 20.3885 9.21923 17.5014 10.7662 14.9956C12.3133 12.4899 14.5276 10.4645 17.1611 9.14664C19.7946 7.82874 22.7431 7.27038 25.6761 7.53415C28.6091 7.79792 31.4106 8.8734 33.7667 10.64C31.9929 11.8348 30.5397 13.4469 29.5346 15.3346C28.5296 17.2224 28.0034 19.3281 28.0024 21.4667Z" fill="black"/>
<path d="M39.2029 27.0667C38.9553 27.0667 38.7179 27.165 38.5429 27.3401C38.3679 27.5151 38.2695 27.7525 38.2695 28C38.2695 28.2476 38.3679 28.485 38.5429 28.66C38.7179 28.835 38.9553 28.9334 39.2029 28.9334H42.9362C43.1837 28.9334 43.4211 28.835 43.5962 28.66C43.7712 28.485 43.8695 28.2476 43.8695 28C43.8695 27.7525 43.7712 27.5151 43.5962 27.3401C43.4211 27.165 43.1837 27.0667 42.9362 27.0667H42.0029V14.9334C42.0028 14.7488 41.9481 14.5684 41.8455 14.415C41.7429 14.2615 41.5972 14.1419 41.4267 14.0713C41.2562 14.0007 41.0685 13.9822 40.8875 14.0182C40.7065 14.0542 40.5402 14.143 40.4097 14.2735L38.543 16.1402C38.373 16.3162 38.2789 16.552 38.281 16.7967C38.2832 17.0414 38.3813 17.2755 38.5544 17.4485C38.7274 17.6216 38.9615 17.7197 39.2062 17.7219C39.4509 17.724 39.6867 17.6299 39.8627 17.4599L40.1362 17.1864V27.0667H39.2029Z" fill="black"/>
</svg>
