<svg width="48" height="48" fill="none" xmlns="http://www.w3.org/2000/svg"><g clip-path="url(#clip0_1044_6045)"><path d="M17.999 3.75a5.95 5.95 0 0 1 4.695 2.273 9.744 9.744 0 0 0-9.022 7.882A6 6 0 0 1 17.998 3.75z" fill="#FFAC5A"/><path d="M24.719 3.772a9.016 9.016 0 0 1 1.687 2.753A9.784 9.784 0 0 0 23.25 6c-.188 0-.368.007-.555.022a6 6 0 1 0-9.023 7.883 9.858 9.858 0 0 0 .015 3.75A9 9 0 1 1 24.72 3.772z" fill="#FF873C"/><path d="M34.5 9l-2.714 2.04a9.738 9.738 0 0 0-4.013-3.93L30.001 6l4.5 3z" fill="#FFBEAA"/><path d="M23.25 25.5c5.385 0 9.75-4.365 9.75-9.75S28.635 6 23.25 6s-9.75 4.365-9.75 9.75 4.365 9.75 9.75 9.75z" fill="#FFAC5A"/><path d="M47.215 5.25v12h-4.5v-12h4.5z" fill="#64E1DC"/><path d="M47.215 5.25v12h-2.25v-12h2.25z" fill="#00C8C8"/><path d="M29.919 15a6.761 6.761 0 1 1-1.68-3.75h-2.4a1.875 1.875 0 1 0 0 3.75h4.08z" fill="#FFDFB0"/><path d="M21.716 9.75c1.538 0 3.03.53 4.224 1.5h2.3a6.742 6.742 0 0 0-8.79-1.102 6.734 6.734 0 0 1 2.266-.398zM29.92 15h-4.08a1.87 1.87 0 0 1-1.494-3h-.006a1.875 1.875 0 1 0 0 3.75h4.08c.03.249.045.5.045.75a6.745 6.745 0 0 1-2.984 5.602 6.75 6.75 0 0 0 4.484-6.352c0-.25-.015-.501-.045-.75z" fill="#FFCF94"/><path d="M28.24 9.75a6.745 6.745 0 0 0-11.775 4.5c.005.235.022.47.05.704A6.743 6.743 0 0 1 28.24 11.25h3.225l.285-.21a9.736 9.736 0 0 0-.867-1.29H28.24zm1.68 6.75h1.545c.44.273.901.508 1.381.7.076-.48.115-.964.119-1.45a8.933 8.933 0 0 1-1.5-.75H29.92a6.186 6.186 0 0 1 0 1.5z" fill="#FC9942"/><path d="M23.965 15h-1.5a.75.75 0 0 1 0-1.5h1.5a.75.75 0 0 1 .75.75h1.5a2.25 2.25 0 0 0-2.25-2.25v-.75h-1.5V12a2.25 2.25 0 0 0 0 4.5h1.5a.75.75 0 1 1 0 1.5h-1.5a.75.75 0 0 1-.75-.75h-1.5a2.25 2.25 0 0 0 2.25 2.25v.75h1.5v-.75a2.25 2.25 0 1 0 0-4.5z" fill="#FF873C"/><path d="M42.75 6.75v9a28.376 28.376 0 0 1-6 .75 10.199 10.199 0 0 1-3.75-.75 8.94 8.94 0 0 1-1.5-.75h-5.625a1.875 1.875 0 1 1 0-3.75H31.5l.285-.21L34.5 9 30 6l-2.227 1.11a9.587 9.587 0 0 0-1.366-.585 9.014 9.014 0 0 0-1.687-2.753l.03-.022 4.5-3 13.5 6z" fill="#FFCDBE"/><path d="M29.249.75l-4.5 3-.03.022c.276.313.53.644.759.992l3.77-2.514 13.5 6v-1.5l-13.5-6z" fill="#FFD8CF"/><path d="M32.964 14.25a8.94 8.94 0 0 1-1.5-.75h-5.625a1.875 1.875 0 0 1-1.718-1.125A1.876 1.876 0 0 0 25.84 15h5.625a8.94 8.94 0 0 0 1.5.75c1.191.484 2.464.739 3.75.75a28.376 28.376 0 0 0 6-.75v-1.5a28.376 28.376 0 0 1-6 .75 10.199 10.199 0 0 1-3.75-.75z" fill="#FFBEAA"/><path d="M21.23 4.691a11.25 11.25 0 0 0-8.671 7.57c.278.606.654 1.162 1.114 1.644a9.744 9.744 0 0 1 9.023-7.882 5.909 5.909 0 0 0-1.467-1.332z" fill="#FC9942"/><path d="M21.229 4.691a5.91 5.91 0 0 1 1.466 1.332c.188-.015.367-.023.555-.023 1.074 0 2.141.178 3.157.525a9.088 9.088 0 0 0-.959-1.807 10.982 10.982 0 0 0-4.22-.027zM13.5 15.75c0-.619.058-1.237.172-1.845a6.033 6.033 0 0 1-1.114-1.643A11.225 11.225 0 0 0 12 15.75c0 .25.021.494.037.74.505.449 1.058.84 1.65 1.165a9.945 9.945 0 0 1-.187-1.905z" fill="#FA732D"/><path d="M35.03 22.28l1.72-1.72v8.69h1.5v-8.69l1.72 1.72 1.06-1.06-3-3-.005.005a.738.738 0 0 0-1.056-.005l-3 3 1.061 1.06z" fill="#19CFFC"/><path d="M32.25 44.25a5.25 5.25 0 1 0 0-10.5 5.25 5.25 0 0 0 0 10.5z" fill="#FFC170"/><path d="M32.25 42a3 3 0 1 0 0-6 3 3 0 0 0 0 6z" fill="#FFCF94"/><path d="M26.655 29.025L41.25 25.5l1.5 5.25H19.5l7.155-1.725z" fill="#1CADB5"/><path d="M47.25 30.75v16.5h-30v-6h3v1.5a1.504 1.504 0 0 1 1.5 1.5h21a1.504 1.504 0 0 1 1.5-1.5v-7.5a1.504 1.504 0 0 1-1.5-1.5h-21a1.504 1.504 0 0 1-1.5 1.5v2.25h-3v-6.75h30z" fill="#64E1DC"/><path d="M20.25 42.75v-1.5h-3v6h1.5v-3a1.5 1.5 0 0 1 1.5-1.5zm-1.5-8.25A2.25 2.25 0 0 1 21 32.25h26.25v-1.5h-30v6.75h1.5v-3zM5.25 42v1.5H.75v-12h4.5V42z" fill="#00C8C8"/><path d="M5.25 42v1.5H3v-12h2.25V42z" fill="#64E1DC"/><path d="M17.25 37.5h4.875a1.875 1.875 0 1 1 0 3.75H16.5a10.375 10.375 0 0 1-5.25 1.5 28.376 28.376 0 0 1-6-.75v-9l13.5-6 6 .75 1.905 1.275L19.5 30.75h-2.25v6.75z" fill="#FFCDBE"/><path d="M19.5 29.25h-.75a1.5 1.5 0 0 0-1.5 1.5h2.25l7.155-1.725-1.65-1.102L19.5 29.25zm3.953 9.953a1.876 1.876 0 0 1-1.328.547H16.5a10.376 10.376 0 0 1-5.25 1.5 28.383 28.383 0 0 1-6-.75V42c1.968.463 3.979.714 6 .75a10.376 10.376 0 0 0 5.25-1.5h5.625a1.871 1.871 0 0 0 1.717-2.625 1.859 1.859 0 0 1-.39.578z" fill="#FFBEAA"/><path d="M20.25 41.25h1.875a1.875 1.875 0 1 0 0-3.75H20.25v-2.25a1.504 1.504 0 0 0 1.5-1.5h10.5a5.25 5.25 0 1 0 0 10.5h-10.5a1.504 1.504 0 0 0-1.5-1.5v-1.5zm24-6v7.5a1.504 1.504 0 0 0-1.5 1.5h-10.5a5.25 5.25 0 1 0 0-10.5h10.5a1.504 1.504 0 0 0 1.5 1.5z" fill="#F0F0F0"/><path d="M17.25 30.75v6.75h-.75l-3-2.25a6.23 6.23 0 0 1 .877-2.873c.548-.915 1.298-1.627 2.123-1.627h.75z" fill="#FAA68E"/><path d="M7.719 22.72l-1.72 1.72v-8.69h-1.5v8.69l-1.72-1.72-1.06 1.06 3 3 .005-.005a.738.738 0 0 0 1.056.005l3-3-1.061-1.06zm-3.22-9.97h1.5v1.5h-1.5v-1.5z" fill="#19CFFC"/><path d="M32.999 37.81l2.03-2.03-1.06-1.06-1.72 1.72-1.72-1.72-1.06 1.06 2.03 2.03v.44h-1.5v1.5h1.5v.75h-1.5V42h1.5v.75h1.5V42h1.5v-1.5h-1.5v-.75h1.5v-1.5h-1.5v-.44z" fill="#FF873C"/><path d="M47.249 4.5h-4.5a.75.75 0 0 0-.75.75v.346L29.553.064a.75.75 0 0 0-.72.062l-4.015 2.676A9.743 9.743 0 1 0 13.034 18.14a10.493 10.493 0 0 0 20.662-1.358c.99.305 2.018.462 3.053.468a27.965 27.965 0 0 0 5.25-.569v.569a.75.75 0 0 0 .75.75h4.5a.75.75 0 0 0 .75-.75v-12a.75.75 0 0 0-.75-.75zm-37.5 5.25a8.25 8.25 0 0 1 15.256-4.346c-.58-.1-1.168-.152-1.756-.154-.075 0-.15.01-.225.011A6.66 6.66 0 0 0 17.999 3a6.74 6.74 0 0 0-5.114 11.143 10.416 10.416 0 0 0-.136 1.607c0 .122.014.24.018.362A8.237 8.237 0 0 1 9.749 9.75zm11.304-4.265a10.528 10.528 0 0 0-7.682 6.74 5.245 5.245 0 0 1 7.682-6.74zm2.196 19.265a9 9 0 1 1 7.298-14.25h-1.962a7.486 7.486 0 1 0 2.164 5.25h.537c.304.176.617.337.938.482a9 9 0 0 1-8.975 8.518zm.038-11.25c.08.572.348 1.101.761 1.505-.016 0-.032-.005-.05-.005h-1.5a.75.75 0 1 1 0-1.5h.789zm.712-2.207v-.043h-1.5V12a2.25 2.25 0 1 0 0 4.5h1.5a.75.75 0 0 1 0 1.5h-1.5a.75.75 0 0 1-.75-.75h-1.5a2.25 2.25 0 0 0 2.25 2.25v.75h1.5v-.75a2.242 2.242 0 0 0 1.645-3.773c.075.006.15.023.23.023h3.375a6.02 6.02 0 1 1-3.11-5.25h-.265a2.614 2.614 0 0 0-1.875.793zm12.75 4.457a9.718 9.718 0 0 1-4.834-1.374.754.754 0 0 0-.416-.126h-5.625a1.125 1.125 0 1 1 0-2.25h5.625a.75.75 0 0 0 .45-.15l3-2.25-.9-1.2-2.058 1.543a10.488 10.488 0 0 0-5.022-4.006 9.647 9.647 0 0 0-1.152-1.997l3.507-2.337 12.675 5.634v7.913c-1.727.37-3.485.571-5.25.6zm9.75.75h-3V6h3v10.5z" fill="#000"/><path d="M44.25 14.25h1.5v1.5h-1.5v-1.5zm-42 26.25h1.5V42h-1.5v-1.5z" fill="#000"/><path d="M47.25 30h-3.934l-1.345-4.706a.744.744 0 0 0-.9-.524l-2.821.683V20.56l1.72 1.72 1.06-1.061-3-3-.005.005a.731.731 0 0 0-1.056-.005l-3 3 1.06 1.061 1.721-1.72v5.254l-9.949 2.4-1.635-1.09a.75.75 0 0 0-.323-.12l-6-.75a.76.76 0 0 0-.398.058L6 31.846V31.5a.75.75 0 0 0-.75-.75H.75a.75.75 0 0 0-.75.75v12a.75.75 0 0 0 .75.75h4.5A.75.75 0 0 0 6 43.5v-.569c1.728.355 3.486.546 5.25.569 1.837-.02 3.64-.494 5.25-1.38v5.13a.75.75 0 0 0 .75.75h30a.75.75 0 0 0 .75-.75v-16.5a.75.75 0 0 0-.75-.75zm-6.525-3.6l1.03 3.6H25.8l.712-.172.069.046.05-.075L38.232 27h.018v-.005l2.475-.595zM4.5 42.75h-3v-10.5h3v10.5zm6.75-.75A27.159 27.159 0 0 1 6 41.4v-7.913l12.864-5.718 5.617.703.335.225L19.412 30H17.25a.75.75 0 0 0-.75.75v5.813l-2.55-1.913-.9 1.2 3 2.25a.75.75 0 0 0 .45.15h5.625a1.125 1.125 0 1 1 0 2.25H16.5a.757.757 0 0 0-.415.125A9.721 9.721 0 0 1 11.25 42zm16.5-3a4.5 4.5 0 0 1 2.55-4.05l-.829.829L31.5 37.81v.44H30v1.5h1.5v.75H30V42h1.5v.75H33V42h1.5v-1.5H33v-.75h1.5v-1.5H33v-.44l2.03-2.03-.83-.83A4.5 4.5 0 1 1 27.75 39zm10.5 0a5.98 5.98 0 0 0-2.044-4.5h5.924a2.262 2.262 0 0 0 1.37 1.372v6.256a2.26 2.26 0 0 0-1.372 1.372h-5.925A5.983 5.983 0 0 0 38.25 39zm-4.37-4.19l-1.63 1.63-1.63-1.63a4.442 4.442 0 0 1 3.26 0zM26.25 39a5.98 5.98 0 0 0 2.044 4.5H22.37A2.262 2.262 0 0 0 21 42.128V42h1.125a2.625 2.625 0 0 0 0-5.25H21v-.878a2.26 2.26 0 0 0 1.372-1.372h5.925A5.983 5.983 0 0 0 26.25 39zm20.25 7.5H18V42h1.5v.75a.75.75 0 0 0 .75.75.75.75 0 0 1 .75.75.75.75 0 0 0 .75.75h21a.75.75 0 0 0 .75-.75.75.75 0 0 1 .75-.75.75.75 0 0 0 .75-.75v-7.5a.75.75 0 0 0-.75-.75.75.75 0 0 1-.75-.75.75.75 0 0 0-.75-.75h-21a.75.75 0 0 0-.75.75.75.75 0 0 1-.75.75.75.75 0 0 0-.75.75v1.5H18V31.5h28.5v15zM4.725 26.775a.738.738 0 0 0 1.056.005l3-3-1.06-1.061L6 24.439V15.75H4.5v8.69l-1.72-1.72-1.06 1.06 3 3 .005-.005zM4.5 12.75H6v1.5H4.5v-1.5z" fill="#000"/></g><defs><clipPath id="clip0_1044_6045"><path fill="#fff" d="M0 0h48v48H0z"/></clipPath></defs></svg>