<svg width="48" height="48" fill="none" xmlns="http://www.w3.org/2000/svg"><g clip-path="url(#clip0_1044_6180)"><path d="M45.677 34.065v9.29a.776.776 0 0 1-.774.774h-5.164l-.922-5.543a.774.774 0 0 0-.766-.65h-1.78a.774.774 0 0 0-.767.65l-.921 5.543h-5.164a.776.776 0 0 1-.774-.774v-9.29c0-.426.348-.775.774-.775h15.484c.425 0 .774.349.774.775z" fill="#CCD1D9"/><path d="M39.741 44.129l.519 3.097h-6.194l.52-3.097.92-5.543a.774.774 0 0 1 .767-.65h1.78a.774.774 0 0 1 .767.65l.921 5.543z" fill="#AAB2BD"/><path d="M47.228 12.387v6.194c-1.069 0-2.052.634-2.439 1.625-.077.21-.163.41-.248.604a2.465 2.465 0 0 0-.216 1.015c0 .689.278 1.37.781 1.873l-4.374 4.374c-.758-.75-1.904-.998-2.888-.565-.193.085-.394.17-.603.248-.991.387-1.626 1.37-1.626 2.439H29.42c0-1.069-.634-2.052-1.625-2.44-.132-.046-.256-.1-.38-.154a.533.533 0 0 0 .1-.085 3.887 3.887 0 0 0 1.131-2.74 9.93 9.93 0 0 0 3.871.773c5.559 0 10.065-4.505 10.065-10.064S38.077 5.419 32.518 5.419c-4.359 0-8.067 2.772-9.468 6.643a9.994 9.994 0 0 0-2.741-1.448v-.008c.054-.147.124-.301.186-.449.147-.325.217-.673.217-1.014 0-.689-.28-1.37-.782-1.873l4.374-4.375c.759.751 1.904 1 2.888.566.193-.086.395-.17.604-.248.99-.387 1.625-1.37 1.625-2.439h6.194c0 1.069.635 2.052 1.626 2.439.209.077.41.162.603.248.326.147.674.216 1.015.216.689 0 1.37-.278 1.873-.782l4.374 4.375c-.75.758-.998 1.904-.565 2.887.086.194.17.395.248.604.387.991 1.37 1.626 2.439 1.626z" fill="#FCD770"/><path d="M27.096 21.677a3.878 3.878 0 0 1 .418 5.838.533.533 0 0 1-.1.085 3.83 3.83 0 0 1-2.64 1.045h-1.301c.34-.968.526-2.013.526-3.097v-4.103c0-.178-.023-.356-.062-.526l.062-.016h.774c.875 0 1.68.287 2.323.774z" fill="#AAB2BD"/><path d="M27.095 20.13v1.547a3.825 3.825 0 0 0-2.323-.774h-.774a7.745 7.745 0 0 0-7.742-7.742h-3.097a7.718 7.718 0 0 0-5.474 2.269 7.719 7.719 0 0 0-2.268 5.427v.046h-.774c-.875 0-1.68.287-2.323.774V20.13c0-5.559 4.506-10.064 10.065-10.064h4.645c1.146 0 2.245.193 3.275.55a10.05 10.05 0 0 1 6.79 9.515z" fill="#AAB2BD"/><path d="M23.999 21.445v4.103a9.258 9.258 0 0 1-2.718 6.573 9.226 9.226 0 0 1-4.134 2.392 9.044 9.044 0 0 1-2.439.326 8.95 8.95 0 0 1-1.378-.101 9.308 9.308 0 0 1-7.386-6.093 9.322 9.322 0 0 1-.526-3.097v-4.343c0-.116.008-.232.015-.348a3.456 3.456 0 0 1 .976-2.06 3.42 3.42 0 0 1 2.408-.99c.31 0 .627.046.929.131l4.242.921c1.51.333 3.05.496 4.591.496.643 0 1.223-.263 1.642-.681.162-.163.302-.357.418-.566l2.23 1.347c.549.326.928.852 1.068 1.464.038.17.062.348.062.526z" fill="#F0D0B4"/><path d="M19.355 47.226h-2.322l-1.549-6.194 2.323-3.87a9.991 9.991 0 0 1 6.008 8.19L24 47.226h-4.645z" fill="#E6E9ED"/><path d="M20.639 18.108a2.547 2.547 0 0 1-.418.566 2.317 2.317 0 0 1-1.642.68c-1.54 0-3.081-.162-4.59-.495l-4.243-.921a3.455 3.455 0 0 0-.93-.132 3.42 3.42 0 0 0-2.407.991 3.456 3.456 0 0 0-.976 2.06h-.015a7.719 7.719 0 0 1 2.268-5.427 7.718 7.718 0 0 1 5.474-2.269h3.097a7.745 7.745 0 0 1 7.742 7.742l-.062.016a2.28 2.28 0 0 0-1.069-1.463l-2.23-1.348z" fill="#B27946"/><path d="M17.807 28.645l-.21.844a2.98 2.98 0 0 1-2.887 2.253 2.98 2.98 0 0 1-2.888-2.253l-.209-.844h6.194z" fill="#EF7385"/><path d="M17.149 34.514l.658 2.647-2.323 3.871h-2.322l-1.549-3.096h1.549c.851 0 1.548-.697 1.548-1.549 0-.426-.17-.813-.457-1.092a1.53 1.53 0 0 0-.937-.449l.016-.108c.449.07.906.1 1.378.1.844 0 1.665-.108 2.439-.325z" fill="#F0D0B4"/><path d="M15.484 41.032l1.549 6.194h-5.42l1.549-6.194h2.322z" fill="#EF7385"/><path d="M14.255 35.295c.286.28.457.666.457 1.092 0 .852-.697 1.548-1.549 1.548h-3.097l.21-.843a2.98 2.98 0 0 1 2.887-2.253 1.531 1.531 0 0 1 1.092.456z" fill="#AAB2BD"/><path d="M8.515 47.226h-3.87l.185-1.874a9.981 9.981 0 0 1 4.591-7.44c.21.016.426.023.643.023h1.548l1.549 3.097-1.549 6.194H8.515z" fill="#E6E9ED"/><path d="M5.945 28.645h-1.3c-.876 0-1.68-.286-2.323-.774a3.878 3.878 0 0 1-.418-5.837c.131-.132.27-.248.418-.357a3.826 3.826 0 0 1 2.322-.774h.775v-.046h.015c-.008.116-.015.232-.015.348v4.343c0 1.084.185 2.13.526 3.097z" fill="#AAB2BD"/><path d="M10.839 24.774h1.548V24a2.325 2.325 0 0 0-2.322-2.323A2.325 2.325 0 0 0 7.742 24v.774h1.549V24a.775.775 0 0 1 1.548 0v.774zm8.516-3.097A2.325 2.325 0 0 0 17.032 24v.774h1.549V24a.775.775 0 0 1 1.548 0v.774h1.549V24a2.325 2.325 0 0 0-2.323-2.323zm-8.282 8a3.742 3.742 0 0 0 3.637 2.84 3.742 3.742 0 0 0 3.636-2.84l.452-1.806h-8.177l.452 1.805zm5.739-.258a2.197 2.197 0 0 1-2.102 1.549c-.97 0-1.818-.63-2.102-1.549h4.204zm18.801-12.387h1.548v-3.097h1.549v-1.548H37.16V10.84h-1.548v1.548h-1.548V9.29h-1.549v4.646h3.097v3.096zm-3.097 4.645v1.549h1.549V18.58h-1.549v1.548h-1.548v-1.548H29.42v4.645h1.548v-1.549h1.548zm3.097 0h1.548v1.549h-1.548v-1.549z" fill="#000"/><path d="M45.51 20.488c.261-.678.95-1.133 1.716-1.133H48v-7.742h-.774c-.765 0-1.455-.455-1.717-1.133a12.83 12.83 0 0 0-.264-.64c-.297-.667-.132-1.479.41-2.02l.547-.548-5.475-5.474-.548.548c-.54.54-1.352.705-2.02.409-.21-.094-.424-.183-.64-.266-.677-.26-1.132-.95-1.132-1.715V0h-7.742v.774c0 .765-.455 1.454-1.133 1.716-.215.083-.43.172-.639.265-.664.297-1.479.132-2.02-.41l-.548-.548-5.474 5.476.548.547c.497.496.657 1.217.453 1.85a10.82 10.82 0 0 0-2.8-.38h-4.645C6.41 9.29 1.548 14.152 1.548 20.13v1.192A4.632 4.632 0 0 0 0 24.774c0 1.371.6 2.601 1.548 3.453v1.966c0 3.837 2.552 7.088 6.047 8.149a10.682 10.682 0 0 0-3.533 6.932L3.79 48H48v-1.548h-7.087l-.258-1.549h4.248a1.55 1.55 0 0 0 1.549-1.548v-9.29a1.55 1.55 0 0 0-1.549-1.549H29.42a1.55 1.55 0 0 0-1.548 1.549v9.29a1.55 1.55 0 0 0 1.548 1.548h4.248l-.258 1.549H24.7l-.118-1.178a10.768 10.768 0 0 0-6.116-8.664l-.397-1.585a10.112 10.112 0 0 0 5.928-5.605h.776c.999 0 1.97-.324 2.769-.924.659.27 1.102.945 1.102 1.698v.774h7.742v-.774c0-.765.455-1.455 1.133-1.716.216-.083.429-.171.64-.265.664-.295 1.479-.132 2.02.41l.547.548 5.474-5.476-.548-.547c-.54-.541-.705-1.354-.408-2.02.094-.21.182-.425.264-.64zm-42.413-.359c0-5.123 4.167-9.29 9.29-9.29h4.645c5.123 0 9.29 4.167 9.29 9.29v.271a4.628 4.628 0 0 0-1.548-.271h-.035c-.392-4.335-4.046-7.742-8.48-7.742H13.16c-4.435 0-8.088 3.407-8.481 7.742h-.035c-.543 0-1.063.1-1.548.271v-.271zm26.286 4.092a4.636 4.636 0 0 0-1.512-2.9V20.13c0-1.076-.163-2.114-.457-3.097h3.554v-1.548H27.87v-1.549h3.097V9.29h-4.645v1.549h3.096v1.548h-3.096v2.188a10.906 10.906 0 0 0-2.342-2.754 9.316 9.316 0 0 1 8.535-5.627c5.123 0 9.29 4.167 9.29 9.29 0 5.123-4.167 9.29-9.29 9.29a9.236 9.236 0 0 1-3.133-.553zm-12.432-7.617l.132-.265a1.537 1.537 0 0 1 1.385-.855h.113a1.55 1.55 0 0 1 1.548 1.548 1.55 1.55 0 0 1-1.548 1.549c-1.486 0-2.976-.16-4.428-.476l-4.192-.912a4.146 4.146 0 0 0-2.799.184 6.965 6.965 0 0 1 6-3.441h3.096c.453 0 .894.046 1.323.13a3.077 3.077 0 0 0-1.883 1.581l-.133.265 1.386.692zm4.668-.145a6.955 6.955 0 0 1 1.17 2.041l-1.203-.721c.06-.24.091-.49.091-.747a3.1 3.1 0 0 0-.058-.573zM4.645 21.677v3.871c0 .8.104 1.576.281 2.323h-.28a3.1 3.1 0 0 1-3.098-3.097 3.1 3.1 0 0 1 3.097-3.097zm-1.548 8.517v-1.046a4.626 4.626 0 0 0 1.548.271h.777a10.116 10.116 0 0 0 5.447 5.428 3.742 3.742 0 0 0-1.344 2.057l-.058.232c-3.564-.305-6.37-3.301-6.37-6.943zM14.88 41.806l1.161 4.646h-3.437l1.161-4.646h1.115zm-3.82-4.645a2.197 2.197 0 0 1 2.101-1.548.775.775 0 0 1 0 1.548H11.06zm-5.457 8.267a9.152 9.152 0 0 1 4.055-6.738c.136.006.27.02.407.02h1.07l1.206 2.413-1.332 5.329H9.29v-2.777c0-.913-.355-1.771-1-2.417l-1.095 1.096c.353.353.547.822.547 1.321v2.777H5.5l.102-1.024zm23.816-2.073v-9.29h15.484v9.29h-4.506l-.816-4.9a1.546 1.546 0 0 0-1.528-1.294h-1.785c-.759 0-1.401.544-1.528 1.294l-.816 4.9H29.42zm6.85-4.645h1.786l1.29 7.742h-4.367l1.29-7.742zm-13.227 6.718l.102 1.024H20.13v-2.777c0-.499.194-.968.547-1.321l-1.094-1.096a3.395 3.395 0 0 0-1.001 2.417v2.777h-.945l-1.324-5.296L18.1 38.18a9.207 9.207 0 0 1 4.943 7.25zm-6.064-8.39l-1.932 3.22H13.64l-.775-1.548h.295a2.325 2.325 0 0 0 2.323-2.323 2.308 2.308 0 0 0-.153-.806c.418-.024.834-.073 1.245-.149l.402 1.605zm6.248-11.49c0 4.696-3.82 8.517-8.516 8.517s-8.516-3.821-8.516-8.517v-4.346a2.624 2.624 0 0 1 3.389-2.508l4.241.923c1.56.34 3.16.512 4.757.512a3.09 3.09 0 0 0 2.267-.989l1.627.977a1.557 1.557 0 0 1 .75 1.327v4.104zm1.548 2.323h-.28c.177-.747.28-1.522.28-2.323v-3.87a3.1 3.1 0 0 1 3.097 3.096 3.1 3.1 0 0 1-3.097 3.097zm19.291-7.94c-.074.191-.152.38-.236.567-.45 1.014-.34 2.195.245 3.134l-3.41 3.41c-.937-.586-2.12-.695-3.133-.245-.188.083-.377.162-.568.236-1.031.397-1.788 1.308-2.036 2.386h-4.822a3.39 3.39 0 0 0-1.46-2.085c.3-.452.52-.959.647-1.502 1.04.324 2.119.49 3.224.49 5.977 0 10.839-4.861 10.839-10.838 0-5.977-4.862-10.839-10.839-10.839-4.226 0-8.057 2.48-9.821 6.26-.443-.277-.906-.52-1.384-.73a3.384 3.384 0 0 0-.354-2.84l3.41-3.41c.938.587 2.121.695 3.135.245.186-.083.376-.161.566-.236 1.032-.397 1.788-1.308 2.037-2.386h4.822c.248 1.078 1.005 1.99 2.035 2.386.191.075.381.153.568.237 1.014.45 2.195.342 3.134-.245l3.41 3.41c-.587.939-.694 2.12-.245 3.134.083.188.162.377.236.569.398 1.03 1.309 1.786 2.387 2.035v4.821c-1.078.248-1.99 1.005-2.386 2.035z" fill="#000"/></g><defs><clipPath id="clip0_1044_6180"><path fill="#fff" d="M0 0h48v48H0z"/></clipPath></defs></svg>