<svg width="48" height="48" viewBox="0 0 48 48" fill="none" xmlns="http://www.w3.org/2000/svg">
<g clip-path="url(#clip0_1044_6123)">
<path d="M21.9235 12.3728L20.9947 10.4175C20.5414 9.46339 19.7543 8.70841 18.7822 8.2953L18.0751 7.99485L13.7618 5.4836L12.6164 2.79618C12.472 2.45732 12.2311 2.16838 11.9238 1.9653C11.6165 1.76221 11.2562 1.65394 10.8878 1.65393H10.8822C10.3411 1.65393 9.81222 1.81475 9.36271 2.11597C8.91319 2.41718 8.56334 2.84521 8.35759 3.34567C8.19508 3.74099 8.11147 4.16428 8.11146 4.5917V7.55662C8.11146 8.46604 8.307 9.36484 8.68483 10.1921L9.33613 11.6179C9.4975 11.9712 9.23929 12.3731 8.85089 12.3731H3.36376C1.89436 12.3731 0.703125 13.5643 0.703125 15.0337C0.703125 15.8812 1.09958 16.6358 1.71706 17.1229C1.92208 17.2847 1.94428 17.5837 1.77026 17.7783C1.36472 18.2306 1.14081 18.8168 1.14163 19.4243C1.14163 20.2583 1.55494 20.9954 2.18779 21.4428C2.42465 21.6103 2.50454 21.9316 2.34607 22.1745C2.10291 22.5472 1.97375 22.9826 1.97444 23.4276C1.97444 24.5254 2.74458 25.4428 3.77388 25.6701C3.8475 25.6864 3.89873 25.7534 3.89873 25.8288C3.89873 25.8875 3.86557 25.9404 3.81406 25.9688C3.09215 26.3669 2.60709 27.1413 2.62489 28.0281C2.65027 29.2872 3.71657 30.2778 4.97608 30.2778H23.2018V16.8441L21.9235 12.3728Z" fill="#FFDFCF"/>
<path d="M8.24653 27.809C7.55767 27.809 6.89898 27.5679 6.33984 27.1656L6.33338 27.161C5.74549 26.7454 5.36112 26.0617 5.36112 25.2869C5.36112 24.8246 5.49767 24.3942 5.73266 24.0339C5.89103 23.791 5.81114 23.4695 5.57428 23.3021C4.94144 22.8547 4.52812 22.1176 4.52812 21.2836C4.5273 20.6791 4.749 20.0955 5.15095 19.6441C5.32515 19.448 5.30951 19.1446 5.10356 18.9821C4.4974 18.5039 4.10414 17.7678 4.09009 16.9391C4.06461 15.4427 5.31073 14.2323 6.80729 14.2323H10.6707C11.8004 14.2323 12.5301 13.0637 12.0636 12.0347C11.6908 11.212 11.4979 10.3191 11.4979 9.4159V6.45107C11.4979 6.02371 11.5815 5.60038 11.744 5.20505C11.9946 4.5963 12.4569 4.09874 13.0456 3.80421L12.6135 2.79036C12.3206 2.1031 11.6464 1.65083 10.8994 1.65382C9.81464 1.65813 8.817 2.28807 8.38355 3.28309C8.20376 3.69587 8.11099 4.14127 8.111 4.59149V7.55651C8.111 8.46593 8.30656 9.36467 8.68438 10.1919L9.33567 11.6177C9.49705 11.971 9.23883 12.3729 8.85043 12.3729H3.42071C1.92406 12.3729 0.677852 13.5834 0.703514 15.0799C0.717657 15.9085 1.11093 16.6444 1.71708 17.1226C1.92303 17.2851 1.93867 17.5885 1.76447 17.7846C1.36251 18.236 1.14081 18.8196 1.14165 19.424C1.14165 20.258 1.55496 20.995 2.1878 21.4425C2.42466 21.61 2.50455 21.9314 2.34608 22.1743C2.10295 22.547 1.97383 22.9825 1.97454 23.4274C1.97454 24.5252 2.74469 25.4426 3.77399 25.6699C3.84761 25.6862 3.89884 25.7532 3.89884 25.8286C3.89884 25.8873 3.86568 25.9402 3.81417 25.9686C3.68977 26.0379 3.57218 26.1188 3.46295 26.2102L3.46239 26.2086C2.9439 26.6355 2.61535 27.2845 2.62472 28.0109C2.64111 29.2765 3.70918 30.2776 4.97497 30.2776H23.2019V27.8091H8.24653V27.809Z" fill="#FFCEBF"/>
<path d="M25.2285 22.3396V31.564H21.957V11.7731C21.957 10.7223 22.8093 9.87 23.8602 9.87H25.2285V22.3396Z" fill="#A2E62E"/>
<path d="M31.5691 10.6698V31.564H25.2266V9.87H30.7683C31.2104 9.87 31.5691 10.2278 31.5691 10.6698Z" fill="#BBEC6C"/>
<path d="M26.0792 44.1371L27.4994 44.9754C28.0457 45.2978 28.6685 45.4679 29.3029 45.4679H43.0266C44.286 45.4679 45.3524 44.4773 45.3777 43.2182C45.3956 42.3314 44.9105 41.5569 44.1886 41.1589C44.1632 41.1453 44.1419 41.1251 44.127 41.1005C44.1122 41.0759 44.1042 41.0477 44.1039 41.0189C44.1039 40.9435 44.1551 40.8765 44.2287 40.8602C45.258 40.6328 46.0282 39.7154 46.0282 38.6177C46.0282 38.1554 45.8916 37.725 45.6566 37.3646C45.4981 37.1217 45.5781 36.8003 45.8148 36.6329C46.4477 36.1855 46.861 35.4484 46.861 34.6144C46.8618 34.0069 46.6379 33.4207 46.2324 32.9684C46.0583 32.7738 46.0805 32.4748 46.2856 32.313C46.903 31.8259 47.2995 31.0713 47.2995 30.2238C47.2995 28.7544 46.1083 27.5632 44.6389 27.5632H39.1518C38.7634 27.5632 38.5052 27.1614 38.6666 26.808L39.3179 25.3821C39.6957 24.5549 39.8913 23.6561 39.8913 22.7467V19.7818C39.8913 19.3544 39.8076 18.9311 39.6451 18.5358C39.4394 18.0353 39.0895 17.6073 38.64 17.3061C38.1905 17.0049 37.6616 16.8441 37.1205 16.8441H37.1149C36.3619 16.8441 35.6815 17.2937 35.3863 17.9864L34.2409 20.6738L29.9277 23.185L29.2205 23.4855C28.2484 23.8986 27.4613 24.6536 27.0081 25.6077L26.0793 27.563L23.2031 32.8973V42.1725L26.0792 44.1371Z" fill="#FFDFCF"/>
<path d="M25.7087 34.8957L28.5848 29.5613L29.5136 27.606C29.9669 26.6519 30.754 25.8969 31.7261 25.4838L32.4332 25.1833L36.7464 22.6721L37.8919 19.9847C38.0363 19.6458 38.2772 19.3569 38.5845 19.1538C38.8918 18.9507 39.2521 18.8424 39.6204 18.8424H39.6261C39.668 18.8424 39.7094 18.8452 39.751 18.8471C39.7197 18.7416 39.683 18.6377 39.6412 18.5359C39.4355 18.0354 39.0856 17.6074 38.6361 17.3062C38.1866 17.005 37.6577 16.8442 37.1166 16.8442H37.111C36.358 16.8442 35.6777 17.2938 35.3824 17.9865L34.237 20.6739L29.9238 23.1852L29.2166 23.4856C28.2445 23.8987 27.4574 24.6537 27.0042 25.6078L26.0754 27.5631L23.1992 32.8975V42.1726L25.7087 43.8866V34.8957Z" fill="#FFCEBF"/>
<path d="M43.0151 42.8554H29.2915C28.6571 42.8554 28.0343 42.6853 27.488 42.3629L26.0678 41.5246L23.1992 39.5653V42.1726L26.0754 44.1371L27.4956 44.9754C28.0419 45.2979 28.6647 45.468 29.2991 45.468H43.0227C44.2822 45.468 45.3485 44.4774 45.3739 43.2182C45.3845 42.7298 45.2382 42.2508 44.9565 41.8516C44.5287 42.46 43.8106 42.8554 43.0151 42.8554Z" fill="#FFCEBF"/>
<path d="M24.1397 25.0594H22.7713L20.2031 28.0935V44.5392L22.7713 46.346H24.1397C25.1905 46.346 26.0428 45.4937 26.0428 44.4429V26.9635C26.0428 25.9117 25.1905 25.0594 24.1397 25.0594Z" fill="#FE646F"/>
<path d="M24.1397 42.5167H22.7713L20.2031 40.7099V44.5393L22.7713 46.346H24.1397C25.1905 46.346 26.0428 45.4938 26.0428 44.4429V40.6135C26.0428 41.6643 25.1905 42.5167 24.1397 42.5167Z" fill="#FD4755"/>
<path d="M22.7722 25.0594V46.346H17.2305C16.7884 46.346 16.4297 45.9882 16.4297 45.5452V25.8602C16.4297 25.4182 16.7884 25.0594 17.2305 25.0594H22.7722Z" fill="#FD8087"/>
<path d="M16.4297 41.7158V45.5452C16.4297 45.9882 16.7884 46.346 17.2305 46.346H22.7722V42.5166H17.2305C16.7884 42.5166 16.4297 42.1588 16.4297 41.7158Z" fill="#FE646F"/>
<path d="M41.2959 6.66495C40.7917 6.34923 40.3669 5.9421 40.0263 5.43812C39.8294 5.14666 39.3966 5.17335 39.2302 5.48327C38.9558 5.99473 38.526 6.40111 37.9394 6.70278C37.6228 6.86556 37.5999 7.30875 37.8975 7.50393C38.3967 7.83136 38.8147 8.25694 39.1455 8.78817C39.3286 9.08226 39.7523 9.07776 39.9369 8.78461C40.2734 8.25039 40.728 7.80738 41.2985 7.45383C41.5912 7.27241 41.5878 6.84777 41.2959 6.66495Z" fill="#FEF056"/>
<path d="M8.71487 36.9294C7.98462 36.472 7.36929 35.8824 6.87599 35.1524C6.59071 34.7303 5.96376 34.7689 5.72288 35.2179C5.32539 35.9586 4.70285 36.5473 3.85309 36.9842C3.39464 37.22 3.36139 37.8619 3.7925 38.1447C4.51553 38.6189 5.12103 39.2353 5.60019 40.0047C5.86542 40.4307 6.47907 40.4241 6.74646 39.9996C7.23386 39.2258 7.89237 38.5841 8.71862 38.072C9.1426 37.8092 9.13764 37.1941 8.71487 36.9294Z" fill="#FEDF30"/>
<path d="M47.561 34.6144C47.5614 33.9216 47.3346 33.2479 46.9155 32.6964C47.6074 32.0602 47.9995 31.1727 47.9995 30.2238C47.9995 28.3694 46.4908 26.8607 44.6364 26.8607H43.9095C43.5215 26.8607 43.2071 27.1751 43.2071 27.5632C43.2071 27.9512 43.5215 28.2656 43.9095 28.2656H44.6364C45.7162 28.2656 46.5946 29.144 46.5946 30.2238C46.5946 30.8268 46.3225 31.3872 45.8479 31.7616C45.725 31.8589 45.6232 31.9802 45.5487 32.1182C45.4742 32.2561 45.4287 32.4079 45.4148 32.564C45.4015 32.7217 45.4205 32.8803 45.4706 33.0304C45.5208 33.1804 45.601 33.3187 45.7063 33.4366C45.9962 33.7604 46.1563 34.1797 46.1561 34.6143C46.1561 35.1874 45.876 35.7276 45.4069 36.0592C44.8532 36.4507 44.7033 37.1926 45.0656 37.7483C45.2342 38.0068 45.3237 38.3089 45.3232 38.6176C45.3232 39.3597 44.7981 40.0144 44.0754 40.1741C43.6833 40.2603 43.3989 40.6156 43.3989 41.0189C43.3992 41.1733 43.4409 41.3248 43.5197 41.4577C43.5985 41.5905 43.7115 41.6997 43.8468 41.774C44.1021 41.914 44.3141 42.1214 44.4597 42.3736C44.6053 42.6257 44.679 42.9129 44.6728 43.204C44.6554 44.065 43.9158 44.7656 43.024 44.7656H29.3006C28.7918 44.7655 28.2923 44.6291 27.8541 44.3705L26.7461 43.7164V27.7915L27.6402 25.9092C28.0195 25.1101 28.6787 24.4778 29.4929 24.132L30.2 23.8316C30.227 23.8201 30.2534 23.8069 30.2787 23.7921L34.592 21.2808C34.7227 21.2046 34.8254 21.0883 34.8847 20.9492L36.0302 18.2618C36.2154 17.8273 36.6403 17.5466 37.1181 17.5466C37.5201 17.5457 37.9133 17.6647 38.2473 17.8885C38.5814 18.1123 38.841 18.4306 38.9931 18.8028C39.1211 19.1133 39.1868 19.446 39.1864 19.7818V22.7467C39.1876 23.5555 39.0137 24.355 38.6766 25.0902L38.0255 26.516C37.9389 26.7041 37.9013 26.911 37.9161 27.1176C37.9308 27.3241 37.9974 27.5236 38.1097 27.6976C38.2213 27.8721 38.375 28.0156 38.5568 28.1149C38.7386 28.2141 38.9424 28.2659 39.1495 28.2654H40.9162C41.3042 28.2654 41.6186 27.951 41.6186 27.563C41.6186 27.175 41.3042 26.8606 40.9162 26.8606H39.4124L39.9544 25.6739C40.3755 24.7555 40.5928 23.7569 40.5913 22.7466V19.7817C40.5918 19.2626 40.4903 18.7484 40.2924 18.2685C39.7612 16.9765 38.5152 16.1416 37.1126 16.1416C36.6064 16.1411 36.1113 16.2897 35.689 16.5688C35.2667 16.8478 34.9359 17.2451 34.7379 17.7109L33.6838 20.1839L29.61 22.5558L28.9436 22.839C27.8131 23.3189 26.8979 24.1968 26.3713 25.3063L26.2857 25.4865C25.8152 24.805 25.0291 24.3573 24.1401 24.3573H17.2298C16.4009 24.3573 15.7266 25.0316 15.7266 25.8605V39.9494C15.7266 40.3374 16.041 40.6518 16.429 40.6518C16.817 40.6518 17.1314 40.3374 17.1314 39.9494V25.8605C17.1314 25.8062 17.1755 25.7621 17.2298 25.7621H22.0691V45.6436H17.2298C17.2037 45.6436 17.1787 45.6333 17.1603 45.6149C17.1418 45.5964 17.1315 45.5714 17.1314 45.5454V42.9431C17.1314 42.5551 16.817 42.2407 16.429 42.2407C16.041 42.2407 15.7266 42.5551 15.7266 42.9431V45.5456C15.7266 46.3744 16.4009 47.0487 17.2298 47.0487H24.1399C25.2884 47.0487 26.265 46.3016 26.6112 45.2682L27.14 45.5803C27.7945 45.9664 28.5405 46.1702 29.3005 46.1704H43.0241C44.6752 46.1704 46.0449 44.8523 46.0775 43.2323C46.094 42.4704 45.8191 41.7308 45.3089 41.1646C46.1675 40.6271 46.7281 39.6689 46.7281 38.6177C46.7281 38.0902 46.5909 37.5772 46.3299 37.1236C47.1034 36.5242 47.561 35.5964 47.561 34.6144ZM25.3411 44.4427C25.3411 45.105 24.8023 45.6438 24.1399 45.6438H23.4739V25.7623H24.1399C24.8023 25.7623 25.3411 26.3011 25.3411 26.9635V44.4427Z" fill="black"/>
<path d="M18.2175 8.81886L18.5067 8.94183C19.3209 9.28753 19.9801 9.91983 20.3594 10.719L21.2536 12.6013V22.2502C21.2536 22.6383 21.568 22.9527 21.956 22.9527C22.344 22.9527 22.6584 22.6383 22.6584 22.2502V11.7732C22.6584 11.1109 23.1973 10.572 23.8596 10.572H24.5256V22.3398C24.5256 22.7278 24.84 23.0422 25.228 23.0422C25.6161 23.0422 25.9305 22.7278 25.9305 22.3398V10.5719H30.7698C30.824 10.5719 30.8681 10.6161 30.8681 10.6703V18.9761C30.8681 19.3642 31.1825 19.6786 31.5705 19.6786C31.9586 19.6786 32.273 19.3642 32.273 18.9761V10.6703C32.273 9.84142 31.5986 9.16708 30.7698 9.16708H23.8596C22.9706 9.16708 22.1845 9.61486 21.714 10.2963L21.6284 10.1161C21.1018 9.0066 20.1866 8.12873 19.0561 7.64879L18.7668 7.52582C18.5953 7.45298 18.4019 7.45123 18.2292 7.52097C18.0564 7.59071 17.9184 7.72622 17.8456 7.89769C17.7728 8.06916 17.771 8.26254 17.8408 8.43529C17.9105 8.60804 18.046 8.74602 18.2175 8.81886ZM9.00651 3.61261C9.32036 2.84948 10.0562 2.35628 10.8871 2.35628C11.3594 2.35628 11.7842 2.63707 11.9695 3.07155L13.1149 5.75896C13.1742 5.89817 13.2769 6.0145 13.4077 6.09061L15.4737 7.29355C15.6345 7.38358 15.8242 7.40683 16.002 7.35829C16.1797 7.30974 16.3313 7.19329 16.424 7.03404C16.5167 6.87478 16.5432 6.68547 16.4976 6.50691C16.4521 6.32835 16.3382 6.17484 16.1805 6.07946L14.316 4.99378L13.2619 2.52075C12.8556 1.5674 11.9234 0.951416 10.8815 0.951416C9.48444 0.951416 8.23842 1.78628 7.70719 3.07848C7.50935 3.55836 7.4078 4.07246 7.40833 4.59152V7.55645C7.40685 8.56673 7.62412 9.56537 8.04521 10.4837L8.5872 11.6704H3.36306C1.50864 11.6704 0 13.179 0 15.0334C0 15.9824 0.392145 16.8699 1.084 17.506C0.664819 18.0575 0.43804 18.7313 0.438412 19.424C0.438412 20.4059 0.896118 21.3337 1.66954 21.9332C1.40807 22.3877 1.27073 22.903 1.27131 23.4273C1.27131 24.4787 1.83195 25.4368 2.69041 25.9743C2.18025 26.5405 1.9054 27.2801 1.92195 28.042C1.95454 29.662 3.32429 30.98 4.97538 30.98H13.6197C14.0077 30.98 14.3222 30.6656 14.3222 30.2776C14.3222 29.8895 14.0077 29.5751 13.6197 29.5751H4.97538C4.08357 29.5751 3.34386 28.8746 3.32654 28.0137C3.32032 27.7225 3.39409 27.4351 3.53982 27.183C3.68556 26.9308 3.89767 26.7234 4.15307 26.5834C4.28827 26.509 4.40108 26.3997 4.47976 26.267C4.55844 26.1342 4.60012 25.9828 4.60047 25.8284C4.60047 25.4256 4.31631 25.0705 3.92473 24.9838C3.20122 24.824 2.67618 24.1694 2.67618 23.4271C2.67618 23.1168 2.76525 22.8162 2.93374 22.5578C3.29619 22.0019 3.14625 21.2601 2.59254 20.8689C2.12332 20.5371 1.84328 19.9969 1.84328 19.4238C1.84328 18.9887 2.00297 18.5704 2.29312 18.2462C2.39845 18.1282 2.47862 17.9899 2.52873 17.8399C2.57884 17.6899 2.59785 17.5312 2.58458 17.3736C2.5707 17.2174 2.52513 17.0657 2.45065 16.9277C2.37618 16.7897 2.27436 16.6683 2.15141 16.571C1.67694 16.1968 1.40477 15.6363 1.40477 15.0333C1.40477 13.9536 2.28319 13.0751 3.36297 13.0751H8.85001C9.27268 13.0751 9.66127 12.8628 9.8898 12.5073C10.1183 12.1518 10.1498 11.71 9.97418 11.3257L9.32298 9.89986C8.98592 9.16467 8.81201 8.36522 8.8132 7.55645V4.59152C8.8132 4.25398 8.8782 3.92468 9.00651 3.61261ZM37.5139 8.09133C37.9369 8.36883 38.2762 8.71818 38.5509 9.15949C38.6546 9.32748 38.7996 9.46615 38.9721 9.56233C39.1445 9.6585 39.3387 9.70898 39.5361 9.70898H39.5392C39.9445 9.70898 40.3158 9.50359 40.5329 9.15893C40.8093 8.71996 41.192 8.3472 41.6702 8.05087C41.8386 7.94728 41.9775 7.80228 42.0739 7.62971C42.1702 7.45714 42.2207 7.26276 42.2206 7.06512C42.2216 6.86602 42.1716 6.66997 42.0753 6.4957C41.979 6.32143 41.8396 6.17477 41.6705 6.06972L41.6704 6.06963C41.2413 5.80092 40.8945 5.46572 40.6101 5.04492C40.3795 4.70363 39.9952 4.51107 39.5863 4.53345C39.173 4.55453 38.8092 4.78539 38.613 5.15113C38.4053 5.53812 38.0804 5.84129 37.6198 6.07815C37.2466 6.26996 37.0105 6.63457 36.9883 7.0536C36.9661 7.4729 37.1626 7.86083 37.5139 8.09133ZM39.6616 6.12676C39.9393 6.48015 40.2642 6.79377 40.6273 7.05884C40.2038 7.36229 39.841 7.71735 39.5434 8.11924C39.2753 7.74885 38.9559 7.41848 38.5948 7.13808C39.0325 6.86235 39.3895 6.52387 39.6616 6.12676ZM9.08799 36.3341C8.44027 35.9293 7.88504 35.3927 7.45844 34.7592C7.18693 34.3573 6.73671 34.1306 6.25269 34.1567C5.76529 34.1815 5.33606 34.454 5.10435 34.8857C4.77243 35.5042 4.25825 35.9863 3.5323 36.3595C3.09239 36.5857 2.81423 37.0156 2.78819 37.5092C2.76216 38.0033 2.99368 38.4604 3.40765 38.7319C4.05023 39.1535 4.58755 39.7066 5.00432 40.376C5.25608 40.7802 5.68981 41.0223 6.16484 41.0235H6.16849C6.64671 41.0235 7.08493 40.7808 7.34127 40.3738C7.76723 39.6973 8.35531 39.1237 9.08902 38.669C9.28725 38.547 9.45091 38.3762 9.56437 38.173C9.67783 37.9697 9.73731 37.7408 9.73713 37.508C9.73826 37.0282 9.49559 36.5892 9.08799 36.3341ZM6.17214 39.594C5.65955 38.7827 5.00339 38.1073 4.22031 37.5852C5.15727 37.0938 5.86382 36.4221 6.32218 35.5867C6.84648 36.3532 7.52143 37.0048 8.30585 37.5018C7.42041 38.0586 6.70318 38.7618 6.17214 39.594Z" fill="black"/>
</g>
<defs>
<clipPath id="clip0_1044_6123">
<rect width="48" height="48" fill="white"/>
</clipPath>
</defs>
</svg>
