<svg width="48" height="48" viewBox="0 0 48 48" fill="none" xmlns="http://www.w3.org/2000/svg">
<g clip-path="url(#clip0_1044_6180)">
<path d="M45.6768 34.0645V43.3548C45.6768 43.7806 45.3284 44.129 44.9026 44.129H39.7387L38.8174 38.5858C38.788 38.4039 38.6946 38.2385 38.5541 38.1193C38.4136 38.0001 38.2352 37.9349 38.051 37.9354H36.2703C36.0861 37.9349 35.9077 38.0001 35.7672 38.1193C35.6267 38.2385 35.5334 38.4039 35.5039 38.5858L34.5826 44.129H29.4187C28.9929 44.129 28.6445 43.7806 28.6445 43.3548V34.0645C28.6445 33.6387 28.9929 33.2903 29.4187 33.2903H44.9026C45.3284 33.2903 45.6768 33.6387 45.6768 34.0645Z" fill="#CCD1D9"/>
<path d="M39.7412 44.129L40.26 47.2258H34.0664L34.5851 44.129L35.5064 38.5858C35.5359 38.4039 35.6293 38.2386 35.7697 38.1194C35.9102 38.0002 36.0886 37.935 36.2729 37.9355H38.0535C38.2377 37.935 38.4161 38.0002 38.5566 38.1194C38.6971 38.2386 38.7905 38.4039 38.82 38.5858L39.7412 44.129Z" fill="#AAB2BD"/>
<path d="M47.2278 12.3871V18.5806C46.1594 18.5806 45.1761 19.2155 44.789 20.2064C44.7116 20.4155 44.6265 20.6168 44.5413 20.8103C44.3942 21.1355 44.3245 21.4838 44.3245 21.8245C44.3245 22.5135 44.6032 23.1948 45.1065 23.698L40.7323 28.0722C39.9736 27.3213 38.8278 27.0735 37.8445 27.5071C37.651 27.5922 37.4497 27.6774 37.2407 27.7548C36.2497 28.1419 35.6148 29.1251 35.6148 30.1935H29.4213C29.4213 29.1251 28.7865 28.1419 27.7955 27.7548C27.6639 27.7084 27.54 27.6542 27.4161 27.6C27.4548 27.5768 27.4858 27.5458 27.5168 27.5148C28.2136 26.8103 28.6471 25.8426 28.6471 24.7742C29.8394 25.2774 31.1478 25.5484 32.5181 25.5484C38.0768 25.5484 42.5826 21.0426 42.5826 15.4838C42.5826 9.92514 38.0768 5.41933 32.5181 5.41933C28.1594 5.41933 24.451 8.19094 23.0497 12.0619C22.2213 11.4426 21.3 10.9548 20.309 10.6142V10.6064C20.3632 10.4593 20.4329 10.3045 20.4948 10.1574C20.6419 9.83223 20.7116 9.48385 20.7116 9.1432C20.7116 8.45417 20.4329 7.77288 19.9297 7.26965L24.3039 2.89546C25.0626 3.64643 26.2084 3.89417 27.1916 3.46062C27.3852 3.37546 27.5865 3.2903 27.7955 3.21288C28.7865 2.82578 29.4213 1.84256 29.4213 0.77417H35.6148C35.6148 1.84256 36.2497 2.82578 37.2407 3.21288C37.4497 3.2903 37.651 3.37546 37.8445 3.46062C38.1697 3.60772 38.5181 3.6774 38.8587 3.6774C39.5478 3.6774 40.229 3.39869 40.7323 2.89546L45.1065 7.26965C44.3555 8.02836 44.1077 9.17417 44.5413 10.1574C44.6265 10.3509 44.7116 10.5522 44.789 10.7613C45.1761 11.7522 46.1594 12.3871 47.2278 12.3871Z" fill="#FCD770"/>
<path d="M27.0959 21.6774C27.5393 22.0107 27.9061 22.4351 28.1714 22.9222C28.4368 23.4093 28.5947 23.9476 28.6343 24.5009C28.6739 25.0542 28.5944 25.6095 28.4011 26.1294C28.2079 26.6493 27.9053 27.1218 27.5139 27.5148C27.483 27.5458 27.452 27.5767 27.4133 27.6C26.7243 28.2503 25.7952 28.6451 24.7733 28.6451H23.4727C23.8133 27.6774 23.9991 26.6322 23.9991 25.5484V21.4451C23.9991 21.2671 23.9759 21.089 23.9372 20.9187L23.9991 20.9032H24.7733C25.6481 20.9032 26.4533 21.1896 27.0959 21.6774Z" fill="#AAB2BD"/>
<path d="M27.0945 20.1291V21.6775C26.4519 21.1897 25.6468 20.9033 24.7719 20.9033H23.9977C23.9977 16.6297 20.5293 13.1613 16.2558 13.1613H13.159C11.0222 13.1613 9.08676 14.0284 7.68547 15.4297C6.24267 16.8685 5.42727 18.8193 5.41709 20.8568V20.9033H4.64289C3.76805 20.9033 2.96289 21.1897 2.32031 21.6775V20.1291C2.32031 14.5704 6.82612 10.0646 12.3848 10.0646H17.03C18.1758 10.0646 19.2752 10.2581 20.3048 10.6143C21.2958 10.9549 22.2171 11.4426 23.0455 12.062C25.4997 13.8968 27.0945 16.8233 27.0945 20.1291Z" fill="#AAB2BD"/>
<path d="M23.9986 21.4451V25.5483C24.0014 26.769 23.7627 27.9781 23.2964 29.1062C22.83 30.2342 22.1451 31.2589 21.2812 32.1212C20.137 33.2677 18.7112 34.0928 17.147 34.5135C16.3728 34.7303 15.5522 34.8387 14.7083 34.8387C14.236 34.8387 13.7793 34.8077 13.3302 34.738C9.89281 34.227 7.07474 31.8348 5.94442 28.6451C5.60378 27.6774 5.41797 26.6322 5.41797 25.5483V21.2051C5.41797 21.089 5.42571 20.9728 5.43345 20.8567C5.51861 20.0593 5.87474 19.3393 6.40894 18.7974C7.02829 18.1858 7.8799 17.8064 8.81668 17.8064C9.12636 17.8064 9.44378 17.8528 9.74571 17.938L13.9883 18.8593C15.498 19.1922 17.0386 19.3548 18.5793 19.3548C19.2218 19.3548 19.8025 19.0916 20.2206 18.6735C20.3831 18.5109 20.5225 18.3174 20.6386 18.1083L22.8683 19.4554C23.418 19.7806 23.7973 20.307 23.9367 20.9187C23.9754 21.089 23.9986 21.267 23.9986 21.4451Z" fill="#F0D0B4"/>
<path d="M19.3553 47.2258H17.0328L15.4844 41.0322L17.807 37.1613C21.1515 38.5935 23.4508 41.729 23.8147 45.3522L24.0005 47.2258H19.3553Z" fill="#E6E9ED"/>
<path d="M20.6386 18.1084C20.5225 18.3174 20.3831 18.5109 20.2205 18.6735C19.8025 19.0916 19.2218 19.3548 18.5793 19.3548C17.0386 19.3548 15.498 19.1922 13.9883 18.8593L9.74571 17.938C9.44378 17.8529 9.12636 17.8064 8.81668 17.8064C7.8799 17.8064 7.02829 18.1858 6.40894 18.7974C5.87474 19.3393 5.51861 20.0593 5.43345 20.8567H5.41797C5.42815 18.8192 6.24356 16.8684 7.68636 15.4296C8.40431 14.7096 9.25745 14.1386 10.1968 13.7493C11.1361 13.36 12.1431 13.1602 13.1599 13.1613H16.2567C20.5302 13.1613 23.9986 16.6296 23.9986 20.9032L23.9367 20.9187C23.7973 20.3071 23.418 19.7806 22.8683 19.4555L20.6386 18.1084Z" fill="#B27946"/>
<path d="M17.8068 28.6451L17.5978 29.489C17.2649 30.8129 16.0726 31.7419 14.7101 31.7419C13.3475 31.7419 12.1552 30.8129 11.8223 29.489L11.6133 28.6451H17.8068Z" fill="#EF7385"/>
<path d="M17.1488 34.5135L17.8068 37.1613L15.4842 41.0323H13.1617L11.6133 37.9355H13.1617C14.0133 37.9355 14.7101 37.2387 14.7101 36.3871C14.7101 35.9613 14.5397 35.5742 14.2533 35.2955C14.0133 35.0477 13.6804 34.8852 13.3165 34.8465L13.332 34.7381C13.781 34.8077 14.2378 34.8387 14.7101 34.8387C15.5539 34.8387 16.3746 34.7303 17.1488 34.5135Z" fill="#F0D0B4"/>
<path d="M15.4842 41.0322L17.0326 47.2258H11.6133L13.1617 41.0322H15.4842Z" fill="#EF7385"/>
<path d="M14.2548 35.2955C14.5412 35.5742 14.7116 35.9613 14.7116 36.3871C14.7116 37.2387 14.0148 37.9355 13.1632 37.9355H10.0664L10.2754 37.0916C10.4374 36.4483 10.8094 35.8773 11.3325 35.4693C11.8555 35.0612 12.4998 34.8393 13.1632 34.8387C13.3663 34.8386 13.5675 34.879 13.7549 34.9574C13.9423 35.0358 14.1122 35.1507 14.2548 35.2955Z" fill="#AAB2BD"/>
<path d="M8.5155 47.2258H4.64453L4.83034 45.3522C5.14001 42.2709 6.85098 39.538 9.42131 37.9122C9.63034 37.9277 9.84711 37.9355 10.0639 37.9355H11.6123L13.1607 41.0322L11.6123 47.2258H8.5155Z" fill="#E6E9ED"/>
<path d="M5.94497 28.6451H4.64432C3.76948 28.6451 2.96432 28.3587 2.32174 27.8709C1.87834 27.5377 1.51157 27.1132 1.24618 26.6261C0.980799 26.139 0.822971 25.6007 0.783347 25.0474C0.743723 24.4942 0.823226 23.9388 1.01649 23.4189C1.20976 22.899 1.51229 22.4266 1.90368 22.0335C2.03529 21.9019 2.17464 21.7858 2.32174 21.6774C2.96432 21.1897 3.76948 20.9032 4.64432 20.9032H5.41851V20.8568H5.434C5.42626 20.9729 5.41851 21.089 5.41851 21.2051V25.5484C5.41851 26.6322 5.60432 27.6774 5.94497 28.6451Z" fill="#AAB2BD"/>
<path d="M10.839 24.7742H12.3873V24C12.3873 22.7195 11.3453 21.6774 10.0648 21.6774C8.78425 21.6774 7.74219 22.7195 7.74219 24V24.7742H9.29057V24C9.29949 23.8007 9.38495 23.6125 9.52917 23.4746C9.67338 23.3367 9.86523 23.2597 10.0648 23.2597C10.2643 23.2597 10.4562 23.3367 10.6004 23.4746C10.7446 23.6125 10.83 23.8007 10.839 24V24.7742ZM19.3551 21.6774C18.0746 21.6774 17.0325 22.7195 17.0325 24V24.7742H18.5809V24C18.5898 23.8007 18.6753 23.6125 18.8195 23.4746C18.9637 23.3367 19.1556 23.2597 19.3551 23.2597C19.5546 23.2597 19.7465 23.3367 19.8907 23.4746C20.0349 23.6125 20.1204 23.8007 20.1293 24V24.7742H21.6777V24C21.6777 22.7195 20.6356 21.6774 19.3551 21.6774ZM11.0735 29.6764C11.4908 31.3487 12.9866 32.5161 14.7099 32.5161C16.4333 32.5161 17.929 31.3487 18.3463 29.6764L18.7984 27.871H10.6214L11.0735 29.6764ZM16.8119 29.4194C16.5277 30.3376 15.68 30.9678 14.7099 30.9678C13.7399 30.9678 12.8921 30.3376 12.608 29.4194H16.8119ZM35.6132 17.0323H37.1615V13.9355H38.7099V12.3871H37.1615V10.8387H35.6132V12.3871H34.0648V9.29034H32.5164V13.9355H35.6132V17.0323ZM32.5164 21.6774V23.2258H34.0648V18.5807H32.5164V20.1291H30.968V18.5807H29.4196V23.2258H30.968V21.6774H32.5164ZM35.6132 21.6774H37.1615V23.2258H35.6132V21.6774Z" fill="black"/>
<path d="M45.5094 20.4875C45.7711 19.8101 46.4609 19.3548 47.2258 19.3548H48V11.6129H47.2258C46.4609 11.6129 45.7711 11.1577 45.5094 10.4803C45.4269 10.2648 45.3386 10.0515 45.2446 9.84077C44.9481 9.17342 45.113 8.36129 45.6542 7.82013L46.2015 7.272L40.7265 1.79845L40.1791 2.34581C39.6387 2.88542 38.8274 3.0511 38.1592 2.75458C37.9483 2.66069 37.7351 2.57215 37.5197 2.48903C36.8423 2.22813 36.3871 1.5391 36.3871 0.774194V0H28.6452V0.774194C28.6452 1.5391 28.1899 2.22813 27.5117 2.48981C27.2965 2.57265 27.0821 2.66168 26.873 2.75458C26.2088 3.05187 25.3943 2.88697 24.8524 2.34503L24.305 1.7969L18.8315 7.27277L19.3788 7.82013C19.8759 8.31639 20.0361 9.03716 19.8325 9.66968C18.9197 9.42136 17.9782 9.29382 17.0323 9.29032H12.3871C6.41032 9.29032 1.54839 14.1523 1.54839 20.129V21.3213C0.600774 22.1729 0 23.4031 0 24.7742C0 26.1453 0.600774 27.3755 1.54839 28.2271V30.1935C1.54839 34.0304 4.10013 37.2805 7.59484 38.3419C5.58775 40.1264 4.32647 42.6014 4.06219 45.2741L3.78968 48H48V46.4516H40.913L40.6552 44.9032H44.9032C45.7572 44.9032 46.4516 44.2088 46.4516 43.3548V34.0645C46.4516 33.2106 45.7572 32.5161 44.9032 32.5161H29.4194C28.5654 32.5161 27.871 33.2106 27.871 34.0645V43.3548C27.871 44.2088 28.5654 44.9032 29.4194 44.9032H33.6666L33.4088 46.4516H24.7006L24.583 45.2741C24.3978 43.4249 23.7372 41.6552 22.6654 40.1369C21.5937 38.6187 20.1473 37.4037 18.4668 36.6101L18.0704 35.0245C19.3936 34.5533 20.6041 33.8116 21.6248 32.8467C22.6454 31.8818 23.4538 30.7148 23.9984 29.4201H24.7742C25.7727 29.4199 26.7441 29.0958 27.5427 28.4965C28.2015 28.7659 28.6452 29.441 28.6452 30.1935V30.9677H36.3871V30.1935C36.3871 29.4286 36.8423 28.7388 37.5205 28.4779C37.7357 28.3951 37.9486 28.3068 38.1592 28.2132C38.8243 27.9182 39.6387 28.0815 40.1799 28.6227L40.7272 29.1708L46.2008 23.695L45.6534 23.1476C45.113 22.6065 44.9481 21.7943 45.2446 21.1277C45.3391 20.9172 45.4266 20.7035 45.5094 20.4875ZM3.09677 20.129C3.09677 15.0062 7.26426 10.8387 12.3871 10.8387H17.0323C22.1551 10.8387 26.3226 15.0062 26.3226 20.129V20.4C25.8257 20.222 25.302 20.1304 24.7742 20.129H24.7394C24.3468 15.7943 20.6934 12.3871 16.2581 12.3871H13.1613C8.72593 12.3871 5.07252 15.7943 4.68 20.129H4.64516C4.10168 20.129 3.58219 20.2281 3.09677 20.4V20.129ZM29.383 24.2206C29.2479 23.1026 28.7104 22.072 27.871 21.3213V20.129C27.871 19.0529 27.7084 18.0147 27.4142 17.0323H30.9677V15.4839H27.871V13.9355H30.9677V9.29032H26.3226V10.8387H29.4194V12.3871H26.3226V14.575C25.7008 13.5332 24.9095 12.6025 23.9814 11.8212C25.4354 8.43561 28.7969 6.19355 32.5161 6.19355C37.639 6.19355 41.8064 10.361 41.8064 15.4839C41.8064 20.6067 37.639 24.7742 32.5161 24.7742C31.4476 24.7723 30.3875 24.585 29.383 24.2206ZM16.951 16.6041L17.0834 16.3394C17.211 16.0816 17.4084 15.8648 17.6531 15.7136C17.8978 15.5624 18.18 15.4828 18.4676 15.4839H18.5806C19.4346 15.4839 20.129 16.1783 20.129 17.0323C20.129 17.8862 19.4346 18.5806 18.5806 18.5806C17.095 18.5806 15.6046 18.4204 14.153 18.1045L9.96077 17.1933C9.0348 16.9277 8.04523 16.9928 7.16206 17.3775C8.37445 15.3221 10.6065 13.9355 13.1613 13.9355H16.2581C16.711 13.9355 17.1523 13.9819 17.5812 14.0655C17.1753 14.1855 16.7985 14.3878 16.4744 14.66C16.1503 14.9321 15.8858 15.2682 15.6975 15.6472L15.5652 15.912L16.951 16.6041ZM21.6194 16.4594C22.1224 17.0682 22.5179 17.7584 22.7892 18.5001L21.5861 17.7786C21.6457 17.5394 21.6774 17.2893 21.6774 17.0323C21.6774 16.8356 21.6542 16.6452 21.6194 16.4594ZM4.64516 21.6774V25.5484C4.64516 26.3489 4.7489 27.1239 4.92619 27.871H4.64516C2.93729 27.871 1.54839 26.4821 1.54839 24.7742C1.54839 23.0663 2.93729 21.6774 4.64516 21.6774ZM3.09677 30.1935V29.1484C3.58219 29.3203 4.10168 29.4194 4.64516 29.4194H5.42168C6.45217 31.8751 8.40948 33.8255 10.8689 34.8472C10.2021 35.3621 9.72857 36.0868 9.5249 36.9043L9.46684 37.1357C5.90323 36.8315 3.09677 33.8346 3.09677 30.1935ZM14.88 41.8064L16.0413 46.4516H12.6039L13.7652 41.8064H14.88ZM11.0594 37.1613C11.1981 36.7124 11.4771 36.3197 11.8554 36.0411C12.2337 35.7624 12.6914 35.6123 13.1613 35.6129C13.3606 35.6218 13.5488 35.7073 13.6868 35.8515C13.8247 35.9957 13.9016 36.1876 13.9016 36.3871C13.9016 36.5866 13.8247 36.7785 13.6868 36.9227C13.5488 37.0669 13.3606 37.1524 13.1613 37.1613H11.0594ZM5.60284 45.4281C5.73546 44.0741 6.16826 42.7667 6.86976 41.6011C7.57125 40.4354 8.52379 39.4408 9.65806 38.6895C9.79355 38.6957 9.92748 38.7097 10.0645 38.7097H11.1345L12.3414 41.1228L11.009 46.4516H9.29032V43.6754C9.29032 42.7618 8.93497 41.904 8.28929 41.2583L7.19458 42.3538C7.54761 42.7068 7.74194 43.176 7.74194 43.6754V46.4516H5.50065L5.60284 45.4281ZM29.4194 43.3548V34.0645H44.9032V43.3548H40.3974L39.5814 38.4542C39.5214 38.0925 39.3347 37.7638 39.0548 37.527C38.7748 37.2902 38.4198 37.1606 38.0532 37.1613H36.2679C35.5092 37.1613 34.8666 37.7048 34.7404 38.455L33.9244 43.3548H29.4194ZM36.2686 38.7097H38.0547L39.3445 46.4516H34.9781L36.2686 38.7097ZM23.0423 45.4281L23.1445 46.4516H20.129V43.6754C20.129 43.176 20.3234 42.7068 20.6764 42.3538L19.5817 41.2583C19.2633 41.575 19.0108 41.9516 18.839 42.3665C18.6672 42.7814 18.5793 43.2263 18.5806 43.6754V46.4516H17.6361L16.3123 41.1561L18.0991 38.1786C20.8506 39.6039 22.7303 42.3143 23.0423 45.4281ZM16.9781 37.0374L15.0457 40.2581H13.6405L12.8663 38.7097H13.1613C14.4418 38.7097 15.4839 37.6676 15.4839 36.3871C15.4816 36.1115 15.4299 35.8385 15.3314 35.5812C15.749 35.5574 16.1648 35.5077 16.5763 35.4325L16.9781 37.0374ZM23.2258 25.5484C23.2258 30.2439 19.4052 34.0645 14.7097 34.0645C10.0142 34.0645 6.19355 30.2439 6.19355 25.5484V21.2021C6.19389 20.7922 6.29024 20.388 6.47488 20.0221C6.65952 19.6561 6.92731 19.3385 7.2568 19.0946C7.58629 18.8508 7.96832 18.6875 8.37226 18.6179C8.77621 18.5483 9.19086 18.5742 9.58297 18.6937L13.824 19.6173C15.384 19.9564 16.9843 20.129 18.5806 20.129C19.0062 20.1292 19.4272 20.0415 19.8173 19.8714C20.2074 19.7013 20.5581 19.4524 20.8475 19.1404L22.4748 20.1166C22.7035 20.2549 22.8926 20.4496 23.0242 20.6822C23.1557 20.9147 23.2251 21.1772 23.2258 21.4444V21.6774V25.5484ZM24.7742 27.871H24.4932C24.6705 27.1239 24.7742 26.3489 24.7742 25.5484V21.6774C26.4821 21.6774 27.871 23.0663 27.871 24.7742C27.871 26.4821 26.4821 27.871 24.7742 27.871ZM44.0655 19.9301C43.9912 20.1221 43.913 20.311 43.8294 20.4983C43.3796 21.5117 43.4888 22.6932 44.0741 23.6323L40.6637 27.0418C39.727 26.4557 38.5448 26.3474 37.5306 26.7972C37.3432 26.88 37.1535 26.959 36.9631 27.0333C35.9319 27.4305 35.1747 28.3409 34.927 29.4194H30.1045C29.9077 28.5611 29.3846 27.813 28.6459 27.3337C28.9455 26.8823 29.1646 26.3752 29.2924 25.8325C30.3314 26.1561 31.4106 26.3226 32.5161 26.3226C38.4929 26.3226 43.3548 21.4606 43.3548 15.4839C43.3548 9.5071 38.4929 4.64516 32.5161 4.64516C28.2898 4.64516 24.4591 7.12568 22.6947 10.9045C22.2517 10.6282 21.7893 10.3842 21.3112 10.1745C21.4633 9.70401 21.5105 9.20595 21.4494 8.71533C21.3882 8.22471 21.2203 7.75344 20.9574 7.33471L24.3677 3.92594C25.3053 4.512 26.4883 4.61961 27.5017 4.16981C27.6883 4.08697 27.8779 4.00877 28.0684 3.93445C29.0996 3.53729 29.856 2.62606 30.1045 1.54839H34.927C35.1755 2.62606 35.9319 3.53729 36.9623 3.93445C37.1535 4.00877 37.3432 4.08697 37.5298 4.17058C38.544 4.62039 39.7254 4.51277 40.6645 3.92594L44.0741 7.33626C43.4872 8.27458 43.3796 9.456 43.8294 10.4702C43.9123 10.6575 43.9912 10.8465 44.0655 11.0385C44.4627 12.0697 45.3739 12.8253 46.4516 13.0738V17.8955C45.3739 18.1432 44.4627 18.8996 44.0655 19.9301Z" fill="black"/>
</g>
<defs>
<clipPath id="clip0_1044_6180">
<rect width="48" height="48" fill="white"/>
</clipPath>
</defs>
</svg>
