<svg width="57" height="56" viewBox="0 0 57 56" fill="none" xmlns="http://www.w3.org/2000/svg">
<g clip-path="url(#clip0_1551_8327)">
<path d="M48.551 27.8407C48.7619 28.1212 48.9102 28.4436 48.9857 28.7863C49.0613 29.129 49.0624 29.4839 48.989 29.827L47.6562 35.9251L49.449 34.3499C50.0635 33.81 50.5169 33.1109 50.7594 32.3297L52.3238 27.2904L51.0334 25.8218C50.4552 25.1636 49.4551 25.0925 48.7896 25.6622C48.1478 26.2117 48.0433 27.1655 48.551 27.8407Z" fill="#FFD3A3"/>
<path d="M48.551 27.8407C48.7619 28.1212 48.9102 28.4436 48.9857 28.7863C49.0613 29.129 49.0624 29.4839 48.989 29.827L47.6562 35.9251L49.449 34.3499C50.0635 33.81 50.5169 33.1109 50.7594 32.3297L52.3238 27.2904L51.0334 25.8218C50.4552 25.1636 49.4551 25.0925 48.7896 25.6622C48.1478 26.2117 48.0433 27.1655 48.551 27.8407Z" stroke="black" stroke-width="1.64062" stroke-miterlimit="10" stroke-linecap="round" stroke-linejoin="round"/>
<path d="M48.8027 30.6827L48.0526 29.9394C47.337 29.2302 46.1962 29.1912 45.4337 29.8497C44.6839 30.4975 44.5466 31.608 45.1163 32.4187C45.3082 32.6918 45.4394 33.0028 45.5009 33.3309C45.5625 33.6589 45.553 33.9963 45.4731 34.3203L44.2812 38.8876L47.6528 35.9252L48.8027 30.6827Z" fill="#FFBE84"/>
<path d="M47.6529 35.9251L48.8028 30.6827L48.0527 29.9394C47.337 29.2302 46.1963 29.1912 45.4338 29.8497C44.6839 30.4975 44.5467 31.608 45.1164 32.4187C45.3083 32.6918 45.4394 33.0028 45.501 33.3309C45.5625 33.6589 45.553 33.9963 45.4732 34.3203L44.925 36.4209" stroke="black" stroke-width="1.64062" stroke-miterlimit="10" stroke-linecap="round" stroke-linejoin="round"/>
<path d="M52.5702 23.1287C52.328 23.3415 52.1513 23.6187 52.0604 23.928C51.9696 24.2374 51.9685 24.5662 52.0572 24.8761L52.3707 25.9718C52.4825 26.3624 52.4779 26.7772 52.3574 27.1653L50.7542 32.3297C50.5117 33.1109 50.0582 33.81 49.4437 34.3499L44.5532 38.625C45.2217 38.0273 45.2833 37.0024 44.6915 36.3288C44.096 35.651 43.0638 35.5843 42.386 36.1798L40.0465 38.2354C39.5388 38.6815 38.8966 38.9451 38.222 38.9843C37.6061 39.0202 37.0136 39.2327 36.5154 39.5966C36.0172 39.9604 35.6344 40.46 35.4128 41.0357L33.2891 46.5526L42.4347 50.0113L43.9303 46.665C44.2731 45.8979 44.7539 45.2004 45.3489 44.6072L51.4524 38.5207C52.6105 37.3659 53.4311 35.9167 53.8257 34.3295L55.4788 27.6814C55.7943 26.4128 55.7326 25.0798 55.3012 23.8458C54.9028 22.706 53.4773 22.3316 52.5702 23.1287Z" fill="#FFE6C2"/>
<path d="M33.2891 46.5527L42.4348 50.0114L43.6893 47.2044L34.3959 43.6774L33.2891 46.5527Z" fill="#FFD3A3"/>
<path d="M45.3489 44.6073C44.754 45.2005 44.2731 45.8981 43.9303 46.6651L42.4347 50.0114L33.2891 46.5527L35.4128 41.0359C35.6344 40.4601 36.0172 39.9605 36.5154 39.5967C37.0136 39.2329 37.6061 39.0203 38.222 38.9844C38.8966 38.9451 39.5388 38.6816 40.0465 38.2355L42.386 36.1799C43.0638 35.5844 44.096 35.6511 44.6916 36.3289C45.2835 37.0025 45.2218 38.0274 44.5533 38.6251L41.7684 41.0939L49.4439 34.3499C50.0583 33.81 50.5118 33.1109 50.7543 32.3297L52.3575 27.1652C52.478 26.7772 52.4826 26.3623 52.3707 25.9716L52.0572 24.876C51.9684 24.5661 51.9696 24.2373 52.0604 23.9279C52.1512 23.6186 52.328 23.3414 52.5702 23.1285C53.4774 22.3315 54.9029 22.7059 55.3012 23.8458C55.7325 25.0798 55.7942 26.4128 55.4788 27.6814L53.8257 34.3295C53.4311 35.9167 52.6105 37.3658 51.4524 38.5207L45.3489 44.6073Z" stroke="black" stroke-width="1.64062" stroke-miterlimit="10" stroke-linecap="round" stroke-linejoin="round"/>
<path d="M30.683 50.9004L41.8176 55.1248C41.9208 55.1639 42.0307 55.1824 42.141 55.179C42.2513 55.1757 42.3599 55.1507 42.4605 55.1054C42.5612 55.0601 42.6519 54.9955 42.7276 54.9151C42.8032 54.8347 42.8623 54.7403 42.9015 54.6371L44.5055 50.4094C44.5446 50.3062 44.563 50.1963 44.5597 50.086C44.5564 49.9757 44.5314 49.8671 44.4861 49.7664C44.4408 49.6658 44.3761 49.575 44.2958 49.4994C44.2154 49.4237 44.1209 49.3646 44.0178 49.3255L32.8832 45.1012C32.78 45.0621 32.6701 45.0436 32.5598 45.047C32.4494 45.0503 32.3408 45.0753 32.2402 45.1206C32.1395 45.1659 32.0488 45.2305 31.9731 45.3109C31.8975 45.3913 31.8384 45.4857 31.7993 45.5889L30.1953 49.8166C30.1561 49.9198 30.1377 50.0297 30.141 50.14C30.1443 50.2503 30.1694 50.3589 30.2146 50.4595C30.2599 50.5601 30.3246 50.6509 30.405 50.7265C30.4853 50.8022 30.5798 50.8613 30.683 50.9004Z" fill="#6CE79A"/>
<path d="M31.7996 45.5888L30.8516 48.0877C30.8907 47.9845 30.9498 47.89 31.0255 47.8097C31.1011 47.7293 31.1919 47.6647 31.2925 47.6194C31.3932 47.5741 31.5018 47.5491 31.6121 47.5458C31.7224 47.5425 31.8323 47.5609 31.9355 47.6001L43.0701 51.8245C43.1733 51.8636 43.2677 51.9227 43.3481 51.9984C43.4284 52.074 43.4931 52.1648 43.5384 52.2654C43.5837 52.3661 43.6087 52.4747 43.612 52.585C43.6154 52.6953 43.5969 52.8052 43.5578 52.9084L44.5058 50.4095C44.545 50.3063 44.5634 50.1964 44.5601 50.0861C44.5568 49.9758 44.5318 49.8672 44.4865 49.7665C44.4412 49.6659 44.3765 49.5752 44.2962 49.4995C44.2158 49.4238 44.1213 49.3648 44.0181 49.3256L32.8835 45.1012C32.7803 45.062 32.6705 45.0436 32.5601 45.0469C32.4498 45.0502 32.3412 45.0752 32.2406 45.1205C32.1399 45.1658 32.0492 45.2304 31.9735 45.3108C31.8979 45.3911 31.8388 45.4856 31.7996 45.5888Z" fill="#00D8A2"/>
<path d="M8.45247 27.8407C8.2416 28.1212 8.09338 28.4437 8.01783 28.7863C7.94228 29.129 7.94116 29.4839 8.01453 29.827L9.34727 35.9251L7.5545 34.3499C6.94004 33.81 6.48657 33.1109 6.24408 32.3297L4.67969 27.2904L5.97009 25.8218C6.54836 25.1636 7.54827 25.0925 8.21392 25.6622C8.85573 26.2117 8.96019 27.1655 8.45247 27.8407Z" fill="#FFD3A3"/>
<path d="M8.45247 27.8407C8.2416 28.1212 8.09338 28.4437 8.01783 28.7863C7.94228 29.129 7.94116 29.4839 8.01453 29.827L9.34727 35.9251L7.5545 34.3499C6.94004 33.81 6.48657 33.1109 6.24408 32.3297L4.67969 27.2904L5.97009 25.8218C6.54836 25.1636 7.54827 25.0925 8.21392 25.6622C8.85574 26.2117 8.96019 27.1655 8.45247 27.8407Z" stroke="black" stroke-width="1.64062" stroke-miterlimit="10" stroke-linecap="round" stroke-linejoin="round"/>
<path d="M8.19531 30.6827L8.94541 29.9394C9.66105 29.2302 10.8018 29.1912 11.5643 29.8497C12.3142 30.4975 12.4514 31.608 11.8817 32.4187C11.6898 32.6918 11.5587 33.0028 11.4971 33.3309C11.4356 33.6589 11.445 33.9963 11.5249 34.3203L12.7168 38.8876L9.34517 35.9252L8.19531 30.6827Z" fill="#FFBE84"/>
<path d="M9.34517 35.9251L8.19531 30.6827L8.94541 29.9394C9.66105 29.2302 10.8018 29.1912 11.5643 29.8497C12.3142 30.4975 12.4514 31.608 11.8817 32.4187C11.6898 32.6918 11.5587 33.0028 11.4971 33.3309C11.4356 33.6589 11.445 33.9963 11.5249 34.3203L12.0731 36.4209" stroke="black" stroke-width="1.64062" stroke-miterlimit="10" stroke-linecap="round" stroke-linejoin="round"/>
<path d="M4.42735 23.1287C4.66954 23.3415 4.84633 23.6187 4.93716 23.928C5.02799 24.2374 5.02912 24.5662 4.94043 24.8761L4.62685 25.9718C4.51505 26.3624 4.51969 26.7772 4.6402 27.1653L6.24342 32.3297C6.48591 33.1109 6.93937 33.81 7.55384 34.3499L12.4444 38.625C11.7759 38.0273 11.7142 37.0024 12.3061 36.3288C12.9016 35.651 13.9338 35.5843 14.6117 36.1798L16.9512 38.2354C17.4589 38.6815 18.1011 38.9451 18.7757 38.9843C19.3916 39.0202 19.984 39.2327 20.4823 39.5966C20.9805 39.9604 21.3633 40.46 21.5849 41.0358L23.7086 46.5526L14.563 50.0113L13.0672 46.6651C12.7244 45.898 12.2435 45.2005 11.6486 44.6073L5.54517 38.5208C4.3871 37.366 3.56645 35.9168 3.17184 34.3296L1.51874 27.6815C1.20328 26.413 1.26502 25.0799 1.69637 23.8459C2.09482 22.706 3.52031 22.3316 4.42735 23.1287Z" fill="#FFE6C2"/>
<path d="M23.7049 46.5527L14.5592 50.0114L13.3047 47.2044L22.5981 43.6774L23.7049 46.5527Z" fill="#FFD3A3"/>
<path d="M11.6487 44.6073C12.2436 45.2005 12.7244 45.8981 13.0673 46.6651L14.5629 50.0114L23.7085 46.5527L21.5847 41.0359C21.3631 40.4601 20.9803 39.9605 20.4821 39.5967C19.9839 39.2329 19.3914 39.0203 18.7756 38.9844C18.1009 38.9451 17.4588 38.6816 16.9511 38.2355L14.6115 36.1799C13.9338 35.5844 12.9016 35.6511 12.3059 36.3289C11.7141 37.0025 11.7758 38.0274 12.4443 38.6251L15.2292 41.0939L7.55369 34.3499C6.93922 33.81 6.48576 33.1109 6.24327 32.3297L4.64005 27.1652C4.51951 26.7772 4.51491 26.3623 4.62681 25.9716L4.94039 24.876C5.02911 24.5661 5.02799 24.2373 4.93716 23.9279C4.84633 23.6186 4.66952 23.3414 4.42731 23.1285C3.52016 22.3315 2.09467 22.7059 1.69633 23.8458C1.26503 25.0798 1.2033 26.4128 1.5187 27.6814L3.1718 34.3295C3.56643 35.9167 4.38707 37.3658 5.54512 38.5207L11.6487 44.6073Z" stroke="black" stroke-width="1.64062" stroke-miterlimit="10" stroke-linecap="round" stroke-linejoin="round"/>
<path d="M26.3224 50.9004L15.1878 55.1248C15.0847 55.1639 14.9748 55.1824 14.8644 55.179C14.7541 55.1757 14.6455 55.1507 14.5449 55.1054C14.4442 55.0601 14.3535 54.9955 14.2778 54.9151C14.2022 54.8347 14.1431 54.7403 14.1039 54.6371L12.5 50.4094C12.4608 50.3062 12.4424 50.1963 12.4457 50.086C12.449 49.9757 12.474 49.8671 12.5193 49.7664C12.5646 49.6658 12.6293 49.575 12.7096 49.4994C12.79 49.4237 12.8845 49.3646 12.9877 49.3255L24.1223 45.1011C24.2254 45.062 24.3353 45.0435 24.4457 45.0468C24.556 45.0502 24.6646 45.0752 24.7652 45.1205C24.8659 45.1658 24.9566 45.2304 25.0323 45.3108C25.1079 45.3911 25.167 45.4856 25.2062 45.5888L26.8101 49.8165C26.8493 49.9197 26.8677 50.0296 26.8644 50.1399C26.8611 50.2502 26.8361 50.3588 26.7908 50.4594C26.7455 50.5601 26.6808 50.6508 26.6005 50.7265C26.5201 50.8022 26.4256 50.8612 26.3224 50.9004Z" fill="#6CE79A"/>
<path d="M25.2062 45.5888L26.1542 48.0877C26.1151 47.9845 26.056 47.89 25.9803 47.8097C25.9047 47.7293 25.8139 47.6647 25.7133 47.6194C25.6126 47.5741 25.504 47.5491 25.3937 47.5458C25.2834 47.5425 25.1735 47.5609 25.0703 47.6001L13.9357 51.8245C13.8325 51.8636 13.7381 51.9227 13.6577 51.9984C13.5773 52.074 13.5127 52.1648 13.4674 52.2654C13.4221 52.3661 13.3971 52.4747 13.3938 52.585C13.3904 52.6953 13.4089 52.8052 13.448 52.9084L12.5 50.4095C12.4608 50.3063 12.4424 50.1964 12.4457 50.0861C12.449 49.9758 12.474 49.8672 12.5193 49.7665C12.5646 49.6659 12.6293 49.5752 12.7096 49.4995C12.79 49.4238 12.8845 49.3648 12.9877 49.3256L24.1223 45.1012C24.2254 45.062 24.3353 45.0436 24.4457 45.0469C24.556 45.0502 24.6646 45.0752 24.7652 45.1205C24.8659 45.1658 24.9566 45.2304 25.0323 45.3108C25.1079 45.3911 25.167 45.4856 25.2062 45.5888Z" fill="#00D8A2"/>
<path d="M37.6406 53.5392L41.8198 55.1248C41.923 55.1639 42.0329 55.1824 42.1432 55.179C42.2535 55.1757 42.3621 55.1507 42.4628 55.1054C42.5634 55.0601 42.6541 54.9955 42.7298 54.9151C42.8055 54.8347 42.8645 54.7403 42.9037 54.6371L44.5077 50.4094C44.5468 50.3062 44.5653 50.1963 44.5619 50.086C44.5586 49.9757 44.5336 49.8671 44.4883 49.7664C44.443 49.6658 44.3784 49.575 44.298 49.4994C44.2176 49.4237 44.1232 49.3646 44.02 49.3255L32.8854 45.1012C32.677 45.0221 32.4457 45.0291 32.2425 45.1205C32.0392 45.212 31.8806 45.3804 31.8015 45.5888L30.1975 49.8165C30.1583 49.9197 30.1399 50.0296 30.1432 50.1399C30.1465 50.2502 30.1716 50.3588 30.2169 50.4594C30.2621 50.5601 30.3268 50.6508 30.4072 50.7265C30.4875 50.8022 30.582 50.8612 30.6852 50.9004L34.636 52.3994M15.1879 55.1248C15.0847 55.1639 14.9748 55.1824 14.8644 55.179C14.7541 55.1757 14.6455 55.1507 14.5449 55.1054C14.4442 55.0601 14.3535 54.9955 14.2778 54.9151C14.2022 54.8347 14.1431 54.7403 14.1039 54.6371L12.5 50.4094C12.4608 50.3062 12.4424 50.1963 12.4457 50.086C12.449 49.9757 12.474 49.8671 12.5193 49.7664C12.5646 49.6658 12.6293 49.575 12.7096 49.4994C12.79 49.4237 12.8845 49.3646 12.9877 49.3255L24.1223 45.1011C24.3307 45.022 24.5619 45.029 24.7652 45.1204C24.9685 45.2119 25.1271 45.3803 25.2062 45.5887L26.8101 49.8164C26.8493 49.9196 26.8677 50.0295 26.8644 50.1398C26.8611 50.2501 26.8361 50.3587 26.7908 50.4593C26.7455 50.56 26.6808 50.6507 26.6005 50.7264C26.5201 50.802 26.4256 50.8611 26.3224 50.9003L15.1879 55.1248Z" stroke="black" stroke-width="1.64062" stroke-miterlimit="10" stroke-linecap="round" stroke-linejoin="round"/>
<path d="M27.2875 37.2922L27.8232 37.2806L29.1109 37.1406L31.2383 36.66L33.8231 34.6818L37.1744 32.0925L38.512 27.0817C38.512 27.0817 38.102 22.9693 38.1263 22.8222C37.9997 22.5631 36.3005 18.3198 36.3005 18.3198L31.9896 15.3805L29.7549 14.704L27.9726 14.5568H27.2876C21.5451 15.1633 17.0703 20.0211 17.0703 25.9245C17.0702 31.8279 21.545 36.6857 27.2875 37.2922Z" fill="#FFE270"/>
<path d="M28.5037 14.4927C28.0934 14.4927 27.6883 14.5148 27.2891 14.5569C33.0316 15.1634 37.5063 20.0212 37.5063 25.9246C37.5063 31.828 33.0316 36.6857 27.2891 37.2923C27.6882 37.3344 28.0933 37.3565 28.5037 37.3565C34.8173 37.3565 39.9355 32.2383 39.9355 25.9246C39.9355 19.6109 34.8173 14.4927 28.5037 14.4927Z" fill="#FFD250"/>
<path d="M28.5022 37.3565C34.8158 37.3565 39.9341 32.2383 39.9341 25.9246C39.9341 19.611 34.8158 14.4927 28.5022 14.4927C22.1885 14.4927 17.0703 19.611 17.0703 25.9246C17.0703 32.2383 22.1885 37.3565 28.5022 37.3565Z" stroke="black" stroke-width="1.64062" stroke-miterlimit="10" stroke-linecap="round" stroke-linejoin="round"/>
<path d="M27.2303 33.4666L27.9932 33.4529C27.9932 33.4529 29.5744 33.2008 29.5882 33.2008C29.602 33.2008 31.941 32.1711 31.941 32.1711L34.0676 29.299L35.0331 25.8608L34.2265 22.4226L31.8798 19.6926L29.191 18.5927L28.1826 18.3828H27.2303C23.6108 18.988 20.8516 22.1332 20.8516 25.9247C20.8516 29.716 23.6108 32.8613 27.2303 33.4666Z" fill="#FFAB56"/>
<path d="M28.4966 18.2757C28.0637 18.2757 27.6398 18.3135 27.2266 18.3827C30.8461 18.9879 33.6053 22.1331 33.6053 25.9246C33.6053 29.7161 30.8461 32.8613 27.2266 33.4666C27.6399 33.5357 28.0637 33.5735 28.4966 33.5735C32.721 33.5735 36.1454 30.149 36.1454 25.9247C36.1454 21.7002 32.721 18.2757 28.4966 18.2757Z" fill="#FF982A"/>
<path d="M30.0758 22.5957C30.0758 22.5957 29.0846 22.2193 27.8991 22.5764C26.8106 22.9043 26.5402 24.3938 27.28 24.9739C27.7047 25.3071 28.3438 25.581 29.2052 25.8855C31.133 26.5669 30.4203 29.2856 28.4593 29.2986C27.694 29.3038 27.3363 29.2551 26.6641 28.8154M28.4593 29.6534V30.2911M28.4593 21.5581V22.2591" stroke="black" stroke-width="1.64062" stroke-miterlimit="10" stroke-linecap="round" stroke-linejoin="round"/>
<path d="M21.355 28.6501C21.522 29.0882 21.7287 29.5101 21.9725 29.9105C24.1738 33.5159 28.8812 34.6542 32.4866 32.4529C36.0921 30.2516 37.2303 25.5442 35.0291 21.9388C32.8278 18.3333 28.1204 17.1951 24.515 19.3963C22.2976 20.7502 21.0153 23.052 20.8672 25.4623M28.5008 14.2799V7.93822" stroke="black" stroke-width="1.64062" stroke-miterlimit="10" stroke-linecap="round" stroke-linejoin="round"/>
<path d="M32.5353 5.96094C32.5893 5.90691 34.5698 4.0705 34.5698 4.0705V1.71183L34.0814 0.820312H33.2852C30.6424 0.820312 28.5 2.96275 28.5 5.60558V6.35381L29.6005 6.9872C29.6005 6.9872 32.4813 6.01497 32.5353 5.96094Z" fill="#6CE79A"/>
<path d="M34.9692 0.820312H34.0815V1.56855C34.0815 4.21137 31.9391 6.35381 29.2962 6.35381H28.5V7.28952C28.5 7.37471 28.5168 7.45907 28.5494 7.53778C28.5819 7.61649 28.6297 7.68801 28.69 7.74825C28.7502 7.80849 28.8217 7.85627 28.9004 7.88887C28.9792 7.92146 29.0635 7.93823 29.1487 7.93822H30.8326C33.4755 7.93822 35.6179 5.79578 35.6179 3.15295V1.46902C35.6179 1.29697 35.5496 1.13197 35.4279 1.01031C35.3063 0.888658 35.1413 0.820313 34.9692 0.820312Z" fill="#00D8A2"/>
<path d="M24.4642 10.2701C24.4101 10.2161 22.4297 8.37966 22.4297 8.37966V6.02099L22.918 5.12947H23.7143C26.3571 5.12947 28.4996 7.27191 28.4996 9.91474V10.663L27.399 11.2964C27.3989 11.2964 24.5182 10.324 24.4642 10.2701Z" fill="#6CE79A"/>
<path d="M22.0315 5.12947H22.9192V5.87771C22.9192 8.52053 25.0616 10.663 27.7045 10.663H28.5007V11.5987C28.5007 11.6839 28.484 11.7682 28.4514 11.8469C28.4188 11.9256 28.371 11.9972 28.3108 12.0574C28.2505 12.1176 28.179 12.1654 28.1003 12.198C28.0216 12.2306 27.9372 12.2474 27.852 12.2474H26.1681C23.5253 12.2474 21.3828 10.1049 21.3828 7.46211V5.77817C21.3828 5.60614 21.4512 5.44115 21.5728 5.3195C21.6945 5.19785 21.8595 5.1295 22.0315 5.12947Z" fill="#00D8A2"/>
<path d="M29.4723 2.71589C28.8406 3.54667 28.4993 4.56192 28.5007 5.60558V7.28952C28.5007 7.37471 28.5175 7.45907 28.5501 7.53778C28.5827 7.61649 28.6304 7.68801 28.6907 7.74825C28.7509 7.80849 28.8224 7.85627 28.9012 7.88887C28.9799 7.92146 29.0642 7.93823 29.1494 7.93822H30.8334C33.4762 7.93822 35.6186 5.79578 35.6186 3.15295V1.46902C35.6186 1.38382 35.6019 1.29946 35.5693 1.22075C35.5367 1.14204 35.4889 1.07052 35.4287 1.01028C35.3684 0.950041 35.2969 0.902258 35.2182 0.869663C35.1395 0.837068 35.0551 0.820298 34.9699 0.820313H33.286C32.9004 0.820313 32.5259 0.867125 32.1668 0.953312M26.1681 12.2473H27.852C27.9372 12.2473 28.0216 12.2305 28.1003 12.1979C28.179 12.1653 28.2505 12.1175 28.3107 12.0573C28.371 11.9971 28.4188 11.9255 28.4514 11.8468C28.484 11.7681 28.5007 11.6838 28.5007 11.5986V9.91463C28.5007 7.2718 26.3583 5.12936 23.7155 5.12936H22.0315C21.9463 5.12934 21.862 5.14611 21.7833 5.17871C21.7045 5.2113 21.633 5.25909 21.5728 5.31933C21.5125 5.37957 21.4648 5.45109 21.4322 5.5298C21.3996 5.60851 21.3828 5.69287 21.3828 5.77806V7.462C21.3829 10.1048 23.5253 12.2473 26.1681 12.2473Z" stroke="black" stroke-width="1.64062" stroke-miterlimit="10" stroke-linecap="round" stroke-linejoin="round"/>
<path d="M9.04936 19.5062L10.4157 19.7187L13.0122 19.1889L15.0753 17.5488L15.4726 15.0831L14.8225 12.0129L13.5462 10.0624L11.7161 9.20664H10.1677C7.75403 9.79114 5.96094 11.9645 5.96094 14.5579C5.96083 16.7316 7.2205 18.6105 9.04936 19.5062Z" fill="#FFE270"/>
<path d="M11.4656 9.05089C11.0175 9.05089 10.5824 9.10569 10.1652 9.20675C12.4401 9.77386 14.1259 11.8299 14.1259 14.2804C14.1259 17.1182 11.8652 19.4263 9.04688 19.5062C9.79975 19.8749 10.6272 20.0661 11.4655 20.0652C14.507 20.0652 16.9726 17.5995 16.9726 14.558C16.9726 11.5165 14.5071 9.05089 11.4656 9.05089Z" fill="#FFD250"/>
<path d="M10.1677 9.20664C7.75403 9.79114 5.96094 11.9645 5.96094 14.5579C5.96094 17.5981 8.42789 20.0651 11.4681 20.0651C14.5096 20.0651 16.9752 17.5994 16.9752 14.5579C16.9751 11.0042 13.6478 8.36391 10.1677 9.20664Z" stroke="black" stroke-width="1.64062" stroke-miterlimit="10" stroke-linecap="round" stroke-linejoin="round"/>
<path d="M43.112 19.5062L44.4783 19.7187L47.0748 19.1889L49.1379 17.5488L49.5352 15.0831L48.8851 12.0129L47.6087 10.0624L45.7786 9.20664H44.2302C41.8165 9.79114 40.0234 11.9645 40.0234 14.5579C40.0234 16.7316 41.2831 18.6105 43.112 19.5062Z" fill="#FFE270"/>
<path d="M45.5359 9.05089C45.0878 9.05089 44.6527 9.10569 44.2355 9.20675C46.5104 9.77386 48.1962 11.8299 48.1962 14.2804C48.1962 17.1182 45.9356 19.4263 43.1172 19.5062C43.8701 19.8749 44.6975 20.0661 45.5358 20.0652C48.5773 20.0652 51.0429 17.5995 51.0429 14.558C51.0429 11.5165 48.5774 9.05089 45.5359 9.05089Z" fill="#FFD250"/>
<path d="M44.2302 9.20664C41.8165 9.79114 40.0234 11.9645 40.0234 14.5579C40.0234 17.5981 42.4904 20.0651 45.5306 20.0651C48.5721 20.0651 51.0377 17.5994 51.0377 14.5579C51.0377 11.0042 47.7104 8.36391 44.2302 9.20664Z" stroke="black" stroke-width="1.64062" stroke-miterlimit="10" stroke-linecap="round" stroke-linejoin="round"/>
</g>
<defs>
<clipPath id="clip0_1551_8327">
<rect width="56" height="56" fill="white" transform="translate(0.5)"/>
</clipPath>
</defs>
</svg>
