<svg width="57" height="56" viewBox="0 0 57 56" fill="none" xmlns="http://www.w3.org/2000/svg">
<g clip-path="url(#clip0_1551_8372)">
<path d="M49.9344 44.3132H7.05958C5.35256 44.3132 3.96875 42.9294 3.96875 41.2223V9.1292C3.96875 7.42219 5.35256 6.03838 7.05958 6.03838H49.9345C51.6415 6.03838 53.0253 7.42219 53.0253 9.1292V41.2223C53.0253 42.9294 51.6415 44.3132 49.9344 44.3132Z" fill="#9BC4F9"/>
<path d="M34.6585 52.6211H22.3438L25.1164 41.939H31.8858L34.6585 52.6211Z" fill="#BCD6F9"/>
<path d="M39.4486 55.1797H17.5542C16.9633 55.1797 16.4844 54.7007 16.4844 54.1099C16.4844 51.8746 18.2965 50.0625 20.5318 50.0625H36.4709C38.7062 50.0625 40.5183 51.8746 40.5183 54.1099C40.5183 54.7007 40.0394 55.1797 39.4486 55.1797Z" fill="#EAF2FF"/>
<path d="M36.4666 50.0625H29.8438C31.7346 50.0625 33.2675 51.5954 33.2675 53.4862V55.1797H39.4442C40.0351 55.1797 40.514 54.7007 40.514 54.1099C40.514 51.8746 38.702 50.0625 36.4666 50.0625Z" fill="#DBE8F9"/>
<path d="M49.9329 6.03838H42.7109C44.418 6.03838 45.8018 7.42219 45.8018 9.1292V41.2223C45.8018 42.9294 44.418 44.3132 42.7109 44.3132H49.9329C51.6399 44.3132 53.0237 42.9294 53.0237 41.2223V9.1292C53.0238 7.42219 51.64 6.03838 49.9329 6.03838Z" fill="#7FB2F9"/>
<path d="M3.96875 38.4689V41.2223C3.96875 42.9294 5.35256 44.3132 7.05958 44.3132H49.9345C51.6415 44.3132 53.0254 42.9294 53.0254 41.2223V38.4689H3.96875Z" fill="#EAF2FF"/>
<path d="M45.8018 38.4689V41.2223C45.8018 42.9294 44.418 44.3132 42.7109 44.3132H49.9329C51.6399 44.3132 53.0238 42.9294 53.0238 41.2223V38.4689H45.8018Z" fill="#DBE8F9"/>
<path d="M26.1174 2.69981C24.5265 1.10884 22.2765 0.515266 20.2313 0.967422C19.6829 1.08872 19.4886 1.77231 19.8858 2.16945L22.9577 5.24125C23.861 6.14458 23.861 7.609 22.9577 8.51233C22.0544 9.41566 20.5899 9.41566 19.6866 8.51233L16.6148 5.44053C16.2177 5.04339 15.5341 5.23764 15.4128 5.78605C14.9605 7.83125 15.5542 10.0812 17.1452 11.6722C18.2931 12.8201 19.7714 13.4361 21.2739 13.5202C21.3346 13.524 21.3953 13.5295 21.4558 13.5365C23.0153 13.7091 24.4671 14.4165 25.5766 15.526L39.1842 29.1337C40.3979 30.3473 42.3654 30.3473 43.579 29.1337C44.7927 27.92 44.7927 25.9525 43.579 24.7389L29.9713 11.1312C28.8618 10.0217 28.1543 8.56997 27.9817 7.01039C27.9747 6.94991 27.9693 6.88926 27.9654 6.8285C27.8813 5.32602 27.2653 3.8477 26.1174 2.69981Z" fill="#C9E0FD"/>
<path d="M41.1695 21.2454C40.7764 20.8877 40.263 20.7455 39.7667 20.8032C39.6947 20.8115 39.6226 20.7892 39.5721 20.7373L39.5587 20.7235C39.5204 20.6841 39.4978 20.632 39.4953 20.577C39.4927 20.5221 39.5105 20.4681 39.5451 20.4253C39.631 20.3195 39.7366 20.1822 39.7816 20.0947C40.1158 19.4462 40.028 18.6304 39.4891 18.0902C38.8978 17.4974 38.0744 17.3497 37.3979 17.6646C37.3722 17.6765 37.3148 17.6941 37.2916 17.6661C37.2674 17.637 37.2938 17.5862 37.3094 17.5643C37.8035 16.8726 37.7816 15.9058 37.1855 15.2685C36.6297 14.6743 35.7726 14.5416 35.0865 14.8778C35.0787 14.8817 35.0232 14.9093 35.0043 14.8864C34.9742 14.8497 35.0247 14.7997 35.0247 14.7997L35.2058 14.6186C35.8907 13.9337 35.9543 12.8178 35.3023 12.1015C34.6067 11.3373 33.4198 11.3192 32.6974 12.0416L28.3237 16.4082C28.2902 16.4418 28.2553 16.4727 28.2195 16.5012L28.1973 16.5233C27.726 16.9946 27.0308 16.9809 26.5597 16.5095L25.4444 15.3977C24.4251 16.4767 23.8246 17.9099 24 19.3861L24.1857 20.9475C24.2415 21.4165 24.1902 21.892 24.0355 22.3383C23.8809 22.7846 23.6271 23.19 23.2931 23.5239L18.5 28.3171L26.235 36.0521L31.9331 30.354C32.2129 30.0742 32.5434 29.8501 32.9069 29.6937L35.455 28.5974C36.747 27.9623 37.9257 27.1188 38.9437 26.1008L41.2324 23.8481C41.9548 23.1256 41.9339 21.9412 41.1695 21.2454Z" fill="#FFDDCE"/>
<path d="M41.1695 21.2454C40.7764 20.8877 40.263 20.7455 39.7667 20.8032C39.6947 20.8115 39.6226 20.7892 39.5721 20.7373L39.5588 20.7235C39.5204 20.6841 39.4978 20.632 39.4953 20.577C39.4928 20.5221 39.5105 20.4681 39.5451 20.4253C39.6311 20.3195 39.7366 20.1822 39.7817 20.0947C40.1158 19.4462 40.028 18.6304 39.4891 18.0902C38.8978 17.4974 38.0744 17.3497 37.398 17.6646L33.8725 21.0296C32.8544 22.0476 31.6758 22.8911 30.3837 23.5262L27.8356 24.6225C27.4721 24.7789 27.1416 25.0029 26.8619 25.2828L24.944 27.2007C24.944 27.2007 26.2824 28.5391 25.0808 29.6773C24.5503 30.2077 23.7493 30.3027 23.1219 29.9621L21.6406 31.458L26.2348 36.0522L31.9329 30.3541C32.2127 30.0743 32.5432 29.8502 32.9067 29.6938L35.4548 28.5975C36.7468 27.9624 37.9255 27.1189 38.9435 26.1009L41.2322 23.8482C41.9548 23.1256 41.934 21.9412 41.1695 21.2454Z" fill="#FFCBBE"/>
<path d="M24.7594 38.4688L29.917 33.3113L21.3498 24.744L7.625 38.4688H24.7594Z" fill="#FFE07D"/>
<path d="M25.0854 29.677C24.555 30.2075 23.7539 30.3025 23.1265 29.9619L14.7031 38.4688H24.762L29.9197 33.3111L25.5452 28.9367C25.4824 29.1827 25.3416 29.4345 25.0854 29.677Z" fill="#FFD064"/>
<path d="M19.5861 24.1768C18.94 24.8229 18.94 25.8705 19.5861 26.5165L27.818 34.7484C28.4641 35.3945 29.5116 35.3945 30.1578 34.7484C30.8038 34.1024 30.8038 33.0549 30.1578 32.4087L21.9259 24.1768C21.2798 23.5307 20.2323 23.5307 19.5861 24.1768Z" fill="#FFD064"/>
<path d="M24.948 27.2006C24.948 27.2006 26.2864 28.539 25.0848 29.6772C24.5544 30.2076 23.7533 30.3026 23.1259 29.962L23.0781 30.0102L27.8163 34.7483C28.4623 35.3944 29.5099 35.3944 30.156 34.7483C30.8021 34.1023 30.8021 33.0548 30.156 32.4086L24.948 27.2006Z" fill="#FFC250"/>
<path d="M53.0186 12.3606C53.239 12.3606 53.4503 12.273 53.6062 12.1172C53.762 11.9614 53.8495 11.75 53.8495 11.5297V9.13478C53.8495 6.97288 52.0907 5.21413 49.9289 5.21413H28.5317C28.1965 4.04468 27.5689 2.97989 26.7083 2.12013C24.9778 0.389485 22.4294 -0.359844 20.0574 0.16461C19.788 0.224316 19.5397 0.355346 19.3383 0.54398C19.137 0.732614 18.9901 0.971911 18.913 1.23681C18.8351 1.50319 18.8303 1.78561 18.8991 2.05449C18.9678 2.32337 19.1076 2.56881 19.3038 2.76511L21.7528 5.21413H17.5632L17.2088 4.85975C16.4759 4.12683 15.2463 4.31069 14.7573 5.21413H7.06909C4.90719 5.21413 3.14844 6.97288 3.14844 9.13478V41.2167C3.14844 43.3786 4.9073 45.1373 7.06909 45.1373H23.4254L22.365 49.2228H20.5323C17.8431 49.2228 15.6554 51.4105 15.6554 54.0996C15.6554 55.1474 16.5078 56 17.5556 56H39.4423C40.4902 56 41.3426 55.1474 41.3426 54.0996C41.3426 51.4105 39.1549 49.2228 36.4657 49.2228H34.633L33.5725 45.1373H49.9288C52.0907 45.1373 53.8494 43.3786 53.8494 41.2167V15.4354C53.8494 14.9765 53.4775 14.6045 53.0185 14.6045C52.5596 14.6045 52.1876 14.9765 52.1876 15.4354V37.6332H26.7676L28.4076 35.9932C29.2153 36.1845 30.1038 35.9706 30.7419 35.3325C31.5549 34.5195 31.6855 33.2787 31.134 32.328L32.5222 30.9397C32.7273 30.7343 32.9698 30.5699 33.2365 30.4554C36.0536 29.2429 35.7907 29.3571 35.8219 29.3418C36.3476 29.0835 36.8565 28.7924 37.3456 28.4701L38.5952 29.7199C40.134 31.2586 42.6246 31.2588 44.1635 29.7198C45.7022 28.1812 45.7024 25.6904 44.1635 24.1515L42.5879 22.5759C42.5876 21.844 42.2904 21.145 41.7271 20.6324C41.4309 20.3634 41.0761 20.1673 40.6909 20.0595C40.9728 19.1622 40.7484 18.1798 40.0762 17.5057C39.6225 17.0509 39.0607 16.7755 38.479 16.6968C38.5358 15.9789 38.3031 15.2509 37.7919 14.7044C37.4347 14.3224 36.9891 14.0658 36.5122 13.9453C36.7192 13.1161 36.5242 12.2138 35.9169 11.5465C34.8882 10.4164 33.1542 10.4152 32.1115 11.4581L31.7906 11.7786L30.5607 10.5487C29.5821 9.56999 28.9604 8.2833 28.8102 6.9253C28.8084 6.90802 28.8065 6.8915 28.805 6.87597H49.9288C51.1743 6.87597 52.1877 7.88933 52.1877 9.13478V11.5297C52.1877 11.75 52.2752 11.9614 52.4311 12.1172C52.5869 12.273 52.7982 12.3606 53.0186 12.3606ZM22.8076 6.87597C22.8089 7.07168 22.7713 7.26569 22.697 7.44673C22.6226 7.62777 22.513 7.79224 22.3746 7.93056C21.7945 8.51069 20.8576 8.50839 20.2797 7.93056L19.2251 6.87597H22.8076ZM36.4657 50.8846C38.2385 50.8846 39.6808 52.327 39.6808 54.0996C39.6807 54.1628 39.6556 54.2235 39.6109 54.2682C39.5662 54.3129 39.5056 54.3381 39.4423 54.3382H17.5555C17.4923 54.3381 17.4317 54.3129 17.3869 54.2682C17.3422 54.2235 17.3171 54.1629 17.317 54.0996C17.317 52.3269 18.7593 50.8846 20.5321 50.8846H36.4657ZM24.0817 49.2228L25.1421 45.1373H31.8557L32.9162 49.2228H24.0817ZM52.1877 39.295V41.2167C52.1877 42.4621 51.1743 43.4755 49.9288 43.4755H7.06898C5.82342 43.4755 4.81006 42.4621 4.81006 41.2167V39.295H52.1877ZM24.4174 37.6332H9.6393L13.7344 33.5381C13.8884 33.3819 13.9744 33.1711 13.9736 32.9518C13.9728 32.7325 13.8853 32.5224 13.7302 32.3673C13.5751 32.2122 13.365 32.1247 13.1457 32.1239C12.9264 32.1231 12.7156 32.209 12.5594 32.363L7.28905 37.6333H4.81017V9.13478C4.81017 7.88933 5.82353 6.87597 7.06909 6.87597H14.4485C14.3782 8.85653 15.1379 10.8382 16.5642 12.2644C17.8101 13.5119 19.4725 14.2558 21.2328 14.3538C22.1306 14.4041 23.3083 14.7946 24.2829 15.5083C23.4153 16.7089 23.0172 18.1197 23.1796 19.4863L23.3652 21.0471C23.4071 21.3912 23.3699 21.7403 23.2564 22.0678C23.1429 22.3953 22.9562 22.6926 22.7104 22.9369L22.2709 23.3765C21.304 22.63 19.8991 22.6896 18.9993 23.5896C18.2193 24.3693 18.0823 25.5123 18.5103 26.4124L15.3109 29.6118C15.157 29.768 15.071 29.9787 15.0718 30.198C15.0726 30.4174 15.16 30.6275 15.3151 30.7826C15.4702 30.9377 15.6803 31.0252 15.8997 31.026C16.119 31.0268 16.3297 30.9408 16.486 30.7869L19.5842 27.6886L26.9733 35.0776L24.4174 37.6332ZM29.5668 34.1574C29.4904 34.2338 29.3996 34.2945 29.2998 34.3358C29.2 34.3772 29.0929 34.3985 28.9849 34.3985C28.8768 34.3985 28.7698 34.3771 28.6699 34.3358C28.5701 34.2944 28.4794 34.2337 28.403 34.1573L20.1741 25.9283C20.0976 25.852 20.0369 25.7612 19.9956 25.6614C19.9542 25.5616 19.9328 25.4546 19.9328 25.3465C19.9328 25.2384 19.9541 25.1314 19.9955 25.0315C20.0369 24.9317 20.0975 24.841 20.174 24.7646L20.1741 24.7645C20.2505 24.688 20.3412 24.6273 20.441 24.5859C20.5409 24.5445 20.6479 24.5232 20.756 24.5233C20.8641 24.5233 20.9711 24.5446 21.0709 24.586C21.1708 24.6274 21.2615 24.6881 21.3378 24.7646C22.1683 25.5951 28.9744 32.4015 29.5668 32.9934C29.8877 33.3144 29.8877 33.8365 29.5668 34.1574ZM41.9528 24.2908L42.9886 25.3265C43.8759 26.2137 43.8759 27.6574 42.9886 28.5446C42.1014 29.4316 40.6578 29.4317 39.7705 28.5447L38.6892 27.4634C39.3288 26.9207 41.8829 24.3723 41.9528 24.2908ZM33.2864 12.6336C33.67 12.25 34.3092 12.2486 34.6883 12.6652C35.0298 13.0403 34.9985 13.6547 34.6188 14.0346L34.4412 14.2121C33.7206 14.9243 34.5073 16.0883 35.4526 15.6275C35.8332 15.441 36.2856 15.5263 36.5785 15.8396C36.8884 16.1709 36.9113 16.6942 36.6326 17.0845C36.0751 17.8665 36.8725 18.8297 37.7483 18.4203C38.1189 18.2481 38.5708 18.3495 38.8997 18.6792C39.1645 18.9446 39.2227 19.3572 39.0456 19.7083C39.0371 19.7218 38.9988 19.7801 38.8989 19.9033C38.2967 20.6453 38.9204 21.7396 39.8615 21.63C40.1435 21.5972 40.4088 21.6793 40.6086 21.8613C41.0319 22.2465 41.0194 22.8846 40.6479 23.2563C38.4177 25.4162 37.4222 26.6984 35.1075 27.8412L32.5799 28.9286C32.1196 29.1262 31.7012 29.4099 31.3473 29.7643L30.0177 31.094L23.4605 24.5368L23.8854 24.1118C24.7474 23.2497 25.1593 22.0612 25.0153 20.8506L24.8297 19.2897C24.7239 18.3992 24.9713 17.468 25.5177 16.6432L25.9757 17.0996C26.7471 17.8713 27.962 17.933 28.7804 17.121C28.9107 17.0118 28.6728 17.2359 33.2864 12.6336ZM29.3857 11.7237L30.6147 12.9526C25.0937 18.4441 29.2004 14.3594 27.6127 15.9387C27.4625 16.089 27.293 16.0671 27.1499 15.9239L26.035 14.8124C26.0251 14.8026 26.0149 14.7929 26.0045 14.7836C24.6637 13.5182 22.8704 12.7805 21.3253 12.6945C19.973 12.6191 18.6961 12.0475 17.7391 11.0892C16.4611 9.81127 15.8773 7.95659 16.186 6.19927L16.1879 6.18898L19.1045 9.10569C20.3329 10.3341 22.321 10.3342 23.5495 9.10569C24.1432 8.512 24.4701 7.72264 24.4701 6.88319C24.4701 6.04363 24.1432 5.25427 23.5495 4.66058L20.6329 1.74398C22.3933 1.43084 24.2528 2.0148 25.5331 3.29525C26.9312 4.69328 27.0498 6.12763 27.1584 7.10817C27.3502 8.8398 28.1412 10.4789 29.3857 11.7237Z" fill="black"/>
</g>
<defs>
<clipPath id="clip0_1551_8372">
<rect width="56" height="56" fill="white" transform="translate(0.5)"/>
</clipPath>
</defs>
</svg>
