<svg width="57" height="56" viewBox="0 0 57 56" fill="none" xmlns="http://www.w3.org/2000/svg">
<g clip-path="url(#clip0_1551_8474)">
<path d="M49.5559 29.3232L44.8729 30.1059L41.5156 13.8893L47.456 12.8959L49.5559 29.3232Z" fill="#354968"/>
<path d="M46.2341 19.2838L47.5602 29.6569L49.5559 29.3227L47.456 12.8959L41.5156 13.8893L41.9774 16.1209C44.0367 15.7769 45.9696 17.2129 46.2341 19.2838Z" fill="#2A3A51"/>
<path d="M49.6094 23.995L43.0896 25.0849C43.0166 25.0971 42.9419 25.0948 42.8697 25.0781C42.7976 25.0615 42.7295 25.0307 42.6692 24.9877C42.6089 24.9447 42.5577 24.8902 42.5185 24.8274C42.4793 24.7646 42.4529 24.6947 42.4407 24.6217L41.4922 18.9479C41.4799 18.8748 41.4821 18.8001 41.4988 18.7279C41.5154 18.6557 41.5461 18.5875 41.5891 18.5272C41.6321 18.4669 41.6866 18.4157 41.7494 18.3764C41.8123 18.3372 41.8822 18.3107 41.9553 18.2985L48.4747 17.2086C48.6222 17.1839 48.7735 17.2188 48.8952 17.3057C49.017 17.3925 49.0993 17.5242 49.124 17.6717L50.0725 23.3461C50.0971 23.4935 50.0621 23.6447 49.9753 23.7664C49.8885 23.8881 49.7569 23.9703 49.6094 23.995Z" fill="#37CD90"/>
<path d="M48.6574 11.0096C48.0955 12.7592 46.599 14.1436 44.6608 14.467C42.7241 14.7907 40.8597 13.9708 39.7586 12.4986C39.4054 12.0276 39.1381 11.498 38.9691 10.9341C38.9052 10.726 38.8555 10.5139 38.8204 10.2991C38.3578 7.53566 40.2235 4.92094 42.9882 4.45829C45.7516 3.99727 48.3663 5.86299 48.8291 8.62657C48.865 8.84532 48.8876 9.06308 48.8953 9.27844C48.9175 9.86497 48.837 10.4509 48.6574 11.0096Z" fill="#566591"/>
<path d="M48.8972 9.27802C48.8889 9.05955 48.8668 8.84182 48.831 8.62614C48.3683 5.86267 45.7535 3.99684 42.99 4.4583C42.8333 4.48433 42.68 4.51845 42.5296 4.55827C44.3966 5.05341 45.8967 6.59702 46.2363 8.62603C46.2726 8.84522 46.2948 9.06266 46.303 9.27802C46.3252 9.86469 46.2447 10.4507 46.065 11.0096C45.548 12.6191 44.2384 13.917 42.5234 14.3669C43.2212 14.5527 43.9507 14.5868 44.6628 14.467C46.6007 14.1431 48.0974 12.7592 48.6592 11.0096C48.8388 10.4507 48.9194 9.86469 48.8972 9.27802Z" fill="#4D5D84"/>
<path d="M8.00781 29.3232L12.6908 30.1058L16.0482 13.8892L10.1073 12.8959L8.00781 29.3232Z" fill="#354968"/>
<path d="M10.1044 12.8959L9.76562 15.5474C11.634 15.8597 12.8683 17.6622 12.4846 19.5169L10.3723 29.7188L12.6879 30.1058L16.0453 13.8892L10.1044 12.8959Z" fill="#2A3A51"/>
<path d="M7.95521 23.995L14.475 25.0849C14.5481 25.0971 14.6228 25.0948 14.6949 25.0781C14.7671 25.0615 14.8352 25.0307 14.8955 24.9877C14.9557 24.9447 15.0069 24.8903 15.0461 24.8274C15.0853 24.7646 15.1118 24.6947 15.124 24.6217L16.0725 18.9479C16.0847 18.8748 16.0825 18.8001 16.0658 18.7279C16.0491 18.6557 16.0184 18.5875 15.9754 18.5272C15.9324 18.4669 15.8779 18.4157 15.8151 18.3764C15.7523 18.3372 15.6823 18.3107 15.6093 18.2985L9.08997 17.2086C9.01692 17.1963 8.94216 17.1986 8.86997 17.2152C8.79779 17.2319 8.72959 17.2626 8.66928 17.3056C8.60896 17.3486 8.55771 17.403 8.51846 17.4659C8.4792 17.5287 8.45271 17.5986 8.4405 17.6717L7.492 23.3461C7.46751 23.4935 7.50253 23.6447 7.58938 23.7663C7.67622 23.888 7.80779 23.9702 7.95521 23.995Z" fill="#FFA91E"/>
<path d="M18.7352 10.2991C18.6997 10.5138 18.6499 10.726 18.5861 10.934C18.417 11.4979 18.1497 12.0276 17.7965 12.4985C16.6955 13.9708 14.831 14.7907 12.8943 14.467C10.9563 14.1431 9.45972 12.7592 8.89776 11.0096C8.71813 10.4507 8.63763 9.86466 8.65986 9.278C8.66752 9.06264 8.69016 8.84488 8.72658 8.62613C9.1888 5.86266 11.8035 3.99683 14.5674 4.45828C17.3317 4.92094 19.1975 7.53566 18.7352 10.2991Z" fill="#566591"/>
<path d="M14.566 4.45828C13.8199 4.33273 13.0551 4.37638 12.3281 4.58603C14.7788 5.28494 16.3656 7.72706 15.935 10.2991C15.8996 10.5138 15.8499 10.726 15.7862 10.934C15.617 11.4979 15.3497 12.0275 14.9967 12.4985C14.3331 13.3846 13.3991 14.0304 12.3358 14.3382C12.5173 14.39 12.7028 14.4352 12.8934 14.467C14.8301 14.7907 16.6946 13.9704 17.7956 12.4985C18.1486 12.0275 18.4159 11.4979 18.5851 10.934C18.649 10.726 18.6987 10.5139 18.7339 10.2991C19.1965 7.53565 17.3307 4.92094 14.566 4.45828Z" fill="#4D5D84"/>
<path d="M7.48438 50.239V44.1858H49.5211V50.239" fill="#BD9B7B"/>
<path d="M7.48438 44.1858V47.2124H41.8572C43.529 47.2124 44.8842 48.5675 44.8842 50.239H49.5211V44.1858H7.48438Z" fill="#B38A65"/>
<path d="M55.5112 32.8963L54.8323 34.6342L51.1281 44.1221C51.0659 44.2806 50.9574 44.4168 50.8167 44.5127C50.676 44.6087 50.5097 44.66 50.3394 44.66H6.65984C6.48941 44.6601 6.32292 44.6088 6.18207 44.5128C6.04123 44.4169 5.93257 44.2807 5.87026 44.1221L2.16606 34.6342L1.48684 32.8963C1.04026 31.7503 1.6777 30.4699 2.86081 30.1337C11.0122 27.8172 19.4398 26.6156 27.9137 26.5615C38.6328 26.4948 47.6062 28.2781 54.135 30.1324C55.3194 30.4686 55.959 31.749 55.5112 32.8963Z" fill="#C9AD91"/>
<path d="M55.5112 32.8963L54.8323 34.6342C54.624 34.4761 54.3879 34.3583 54.1364 34.2869C47.6062 32.4326 38.6332 30.6494 27.9137 30.716C19.4402 30.7698 11.013 31.9715 2.86212 34.2882C2.61081 34.359 2.3751 34.4765 2.16737 34.6347H2.16606L1.48684 32.8963C1.04026 31.7503 1.6777 30.4699 2.86081 30.1337C11.0122 27.8172 19.4398 26.6156 27.9137 26.5615C38.6328 26.4948 47.6062 28.2781 54.135 30.1324C55.3194 30.4686 55.959 31.749 55.5112 32.8963Z" fill="#DECCBE"/>
<path d="M30.8312 26.5619H26.0827L25.4453 10.0132H31.4686L30.8312 26.5619Z" fill="#354968"/>
<path d="M25.4453 10.0132L25.5226 12.0265H25.5516C27.8814 12.0265 29.7442 13.9624 29.6545 16.2904L29.2589 26.5615H30.8306L31.4682 10.0134L25.4453 10.0132Z" fill="#2A3A51"/>
<path d="M31.7677 21.3153H25.1577C25.0081 21.3153 24.8647 21.2559 24.7589 21.1501C24.6532 21.0444 24.5938 20.9009 24.5938 20.7514V14.9989C24.5938 14.8493 24.6532 14.7059 24.7589 14.6001C24.8647 14.4944 25.0081 14.435 25.1577 14.435H31.768C31.9175 14.435 32.061 14.4944 32.1667 14.6002C32.2725 14.7059 32.3319 14.8493 32.332 14.9989V20.7514C32.3319 20.9009 32.2723 21.0444 32.1665 21.1501C32.0607 21.2558 31.9172 21.3152 31.7677 21.3153Z" fill="#E0365F"/>
<path d="M33.5303 6.02837C33.5303 6.25051 33.5159 6.46926 33.4885 6.68374C33.4135 7.266 33.2373 7.83065 32.9677 8.35215C32.1252 9.98555 30.4203 11.1018 28.4568 11.1018C26.4928 11.1018 24.7884 9.98555 23.946 8.35215C23.6752 7.82961 23.4987 7.26336 23.4247 6.67948C23.3965 6.46359 23.3825 6.24609 23.3828 6.02837C23.3828 3.22651 25.6545 0.954788 28.4567 0.954788C31.2587 0.954788 33.5303 3.22651 33.5303 6.02837Z" fill="#566591"/>
<path d="M28.4595 0.954788C28.0314 0.954788 27.6157 1.00827 27.2188 1.10824C29.4208 1.6619 31.0516 3.6546 31.0516 6.02837C31.0516 6.25051 31.037 6.46926 31.0097 6.68374C30.9346 7.26602 30.7582 7.83067 30.4885 8.35215C29.8296 9.62965 28.6436 10.5909 27.2188 10.9494C27.6157 11.0489 28.0314 11.1024 28.4595 11.1024C30.4231 11.1024 32.1274 9.98555 32.9703 8.35215C33.2398 7.8306 33.4161 7.26597 33.4912 6.68374C33.519 6.46639 33.5329 6.24749 33.533 6.02837C33.533 3.22651 31.2612 0.954788 28.4595 0.954788Z" fill="#4D5D84"/>
<path d="M56.1948 30.8372C56.0124 30.471 55.7557 30.1468 55.441 29.8854C55.1263 29.624 54.7606 29.431 54.3671 29.3189C53.0091 28.933 51.6425 28.5777 50.2685 28.2533L49.8288 24.811C50.5493 24.6456 51.0274 23.945 50.9039 23.2063L50.6296 21.5652C50.5925 21.3439 50.4691 21.1463 50.2864 21.016C50.1038 20.8856 49.8768 20.8331 49.6555 20.87C49.1949 20.9474 48.8834 21.3832 48.9607 21.8442L49.1885 23.207L43.2253 24.2039L42.37 19.0862L48.3331 18.0896L48.3784 18.3617C48.4553 18.8222 48.8915 19.1341 49.3525 19.0568C49.8131 18.9795 50.1246 18.5437 50.0473 18.0827L49.9554 17.5324C49.9253 17.3497 49.8593 17.1747 49.7612 17.0176C49.663 16.8605 49.5347 16.7245 49.3837 16.6173C49.1962 16.4828 48.9785 16.3967 48.7497 16.3665L48.354 13.2736C48.4558 13.1532 48.5529 13.029 48.645 12.901C49.5632 11.6141 49.9255 10.0463 49.6649 8.48667C49.4038 6.92731 48.5515 5.56264 47.2641 4.64411C45.9773 3.72547 44.4089 3.36366 42.8498 3.6243C41.2904 3.88494 39.9258 4.73719 39.0072 6.02453C38.0891 7.31144 37.7267 8.87944 37.9874 10.4389C38.2484 11.9983 39.1008 13.3629 40.3876 14.2815C40.516 14.3732 40.648 14.4597 40.7833 14.5408L41.4147 17.5931C41.2087 17.6961 41.031 17.848 40.8974 18.0357C40.6786 18.3425 40.5922 18.716 40.6546 19.0872L41.6032 24.761C41.718 25.4498 42.3166 25.939 42.993 25.939C43.0421 25.939 43.0917 25.9355 43.1412 25.9299L43.3395 26.8869C39.4902 26.2756 35.6068 25.9027 31.7115 25.7702L31.8509 22.1569C32.5883 22.1125 33.1749 21.5002 33.1749 20.7513V14.9989C33.1749 14.3653 32.7549 13.8282 32.1785 13.6509L32.299 10.5294C33.571 9.44294 34.3797 7.82922 34.3797 6.0288C34.3797 2.76461 31.7243 0.109314 28.4602 0.109314C25.1962 0.109314 22.5403 2.76461 22.5403 6.0288C22.5403 6.61199 22.6266 7.17549 22.7842 7.70792C22.7903 7.73056 22.7963 7.75277 22.8035 7.77453C23.1384 8.85888 23.7785 9.80945 24.621 10.5298L24.7419 13.6509C24.1655 13.8281 23.7451 14.3651 23.7451 14.9989V20.7517C23.7451 21.5002 24.3322 22.1125 25.0696 22.1573L25.2089 25.7722C21.5351 25.9 17.872 26.2418 14.238 26.7959L14.4175 25.9299C14.4679 25.9355 14.5183 25.9389 14.5683 25.9389C14.8593 25.9389 15.1425 25.8488 15.3843 25.6766C15.6907 25.4578 15.8936 25.1327 15.9556 24.761L16.904 19.0872C17.0087 18.4625 16.6828 17.8635 16.144 17.5939L16.7767 14.5353C17.7175 13.9696 18.4986 13.1476 19.0083 12.147C19.0262 12.1166 19.0411 12.085 19.0553 12.0525C19.3039 11.5422 19.4777 10.9987 19.5713 10.4388C19.8324 8.87944 19.4696 7.31144 18.5515 6.02453C17.633 4.73719 16.2683 3.88494 14.7089 3.6243C13.1498 3.36366 11.5818 3.72547 10.2945 4.64411C9.00725 5.5622 8.15489 6.92688 7.89425 8.48635C7.63372 10.0458 7.99553 11.6138 8.91417 12.901C9.006 13.029 9.10291 13.1533 9.20467 13.2736L8.8095 16.3665C8.58068 16.3967 8.36279 16.4826 8.17502 16.6168C7.86877 16.8356 7.66577 17.1607 7.60331 17.5323L6.65481 23.2063C6.53177 23.9445 7.00995 24.6456 7.73019 24.811L7.30767 28.1183C5.73865 28.4786 4.17911 28.8791 2.63058 29.3192C2.23759 29.4313 1.87229 29.6241 1.55798 29.8852C1.24367 30.1464 0.98726 30.4702 0.80511 30.836C0.623941 31.2016 0.521011 31.601 0.502894 32.0086C0.484777 32.4162 0.551871 32.8231 0.699891 33.2033L5.08342 44.4288C5.33597 45.0757 5.94355 45.4952 6.63567 45.5051V50.2389C6.63567 50.4633 6.7248 50.6785 6.88345 50.8371C7.0421 50.9958 7.25727 51.0849 7.48163 51.0849C7.706 51.0849 7.92117 50.9958 8.07982 50.8371C8.23847 50.6785 8.32759 50.4633 8.32759 50.2389V45.506H48.6724V50.2389C48.6724 50.4633 48.7615 50.6784 48.9202 50.8371C49.0788 50.9957 49.294 51.0848 49.5183 51.0848C49.7427 51.0848 49.9578 50.9957 50.1165 50.8371C50.2751 50.6784 50.3642 50.4633 50.3642 50.2389V45.5051C51.0564 45.4952 51.6644 45.0752 51.9165 44.4288L56.3 33.2033C56.448 32.8233 56.515 32.4166 56.4969 32.0092C56.4788 31.6018 56.376 31.2026 56.1949 30.8372H56.1948ZM44.523 13.6325C43.6278 13.7821 42.7299 13.6436 41.9343 13.2437C41.9232 13.2377 41.9116 13.2326 41.9001 13.2271C41.716 13.1323 41.5389 13.0243 41.3703 12.904C41.1364 12.7372 40.92 12.5471 40.7244 12.3367L47.694 11.1716C47.4935 11.6227 47.2164 12.0356 46.875 12.3921C46.8677 12.3989 46.8613 12.4062 46.8544 12.413C46.2311 13.0556 45.4227 13.4822 44.523 13.6325ZM40.3846 7.00716C41.0405 6.08775 42.015 5.47897 43.1289 5.29314C43.3622 5.25381 43.5984 5.23406 43.8351 5.23408C44.7079 5.23408 45.5569 5.50424 46.2815 6.02114C47.2009 6.67695 47.8098 7.65149 47.9956 8.76536V8.7658C48.0306 8.9741 48.05 9.18472 48.0537 9.39591L39.8062 10.7747C39.7416 10.5756 39.6913 10.37 39.6562 10.1595C39.4699 9.04602 39.7284 7.92613 40.3846 7.00716ZM43.8133 15.3838C44.1415 15.3838 44.4718 15.3564 44.802 15.3013C45.5114 15.1833 46.1933 14.9369 46.8143 14.5742L47.0715 16.5848L43.0724 17.2534L42.6618 15.2697C43.041 15.3454 43.4267 15.3836 43.8133 15.3838ZM44.8122 25.654L48.1592 25.0946L48.5122 27.856C47.389 27.6129 46.2614 27.3904 45.1301 27.1886L44.8122 25.654ZM28.109 25.7154H26.8998L26.7626 22.1612H30.1571L30.0204 25.7154H28.8934C28.6319 25.7141 28.3705 25.7141 28.109 25.7154ZM31.4829 15.2808V20.4693H25.4375V15.2808H31.4829ZM24.9307 8.35214H31.9898C31.2326 9.49839 29.9338 10.2564 28.4602 10.2564C26.9866 10.2564 25.6874 9.49806 24.9307 8.35214ZM28.4602 1.80124C30.7913 1.80124 32.6878 3.6978 32.6878 6.0288C32.6878 6.24328 32.6716 6.45394 32.6403 6.66033H24.2797C24.2483 6.45128 24.2324 6.24019 24.2321 6.0288C24.2326 3.6978 26.1291 1.80124 28.4602 1.80124ZM28.4602 11.9483C29.1801 11.9488 29.8939 11.8172 30.5662 11.56L30.4874 13.5889H26.4325L26.3543 11.56C27.0266 11.8172 27.7404 11.9488 28.4602 11.9483ZM14.4863 17.2534L10.4872 16.5848L10.744 14.5742C11.3652 14.9367 12.0473 15.1831 12.7567 15.3013C13.0857 15.356 13.413 15.383 13.7361 15.383C14.1313 15.383 14.5196 15.3414 14.8976 15.265L14.4863 17.2534ZM9.56309 8.7658V8.76536C9.74936 7.65149 10.3583 6.67695 11.2772 6.02114C12.0018 5.50413 12.8511 5.23408 13.7236 5.23408C13.9582 5.23408 14.1945 5.25333 14.4298 5.29314C15.5437 5.47897 16.5187 6.08775 17.1745 7.00716C17.8303 7.92624 18.0889 9.04602 17.9025 10.1593C17.868 10.3678 17.8177 10.5734 17.7521 10.7743L14.0907 10.1624C13.6305 10.0848 13.1938 10.3961 13.1166 10.8572C13.0796 11.0785 13.1321 11.3055 13.2624 11.4881C13.3928 11.6708 13.5903 11.7942 13.8117 11.8313L16.8315 12.3358C15.8958 13.342 14.4892 13.8756 13.0358 13.6321C12.1385 13.4826 11.3323 13.0579 10.7099 12.4183C10.7005 12.4084 10.6911 12.3981 10.6812 12.3887C10.3409 12.033 10.0649 11.6211 9.8653 11.1711L10.0651 11.205C10.2864 11.2417 10.5132 11.1892 10.6958 11.0589C10.8783 10.9285 11.0017 10.7311 11.0388 10.5099C11.0571 10.4003 11.0537 10.2882 11.0287 10.18C11.0037 10.0718 10.9577 9.96951 10.8932 9.87907C10.8287 9.78864 10.747 9.7118 10.6528 9.65294C10.5586 9.59407 10.4537 9.55434 10.3441 9.53602L9.50502 9.39547C9.50884 9.18656 9.52809 8.97591 9.56309 8.7658ZM9.226 18.0896L15.1891 19.0863L14.3334 24.2039L8.37025 23.2071L9.226 18.0896ZM9.39947 25.0946L12.7466 25.654L12.45 27.0864C11.317 27.2814 10.1876 27.497 9.06238 27.7333L9.39947 25.0946ZM50.34 43.8145L6.65952 43.8136L3.24155 35.0606C4.14321 34.8059 5.04865 34.5648 5.95755 34.3372C6.06531 34.3103 6.16671 34.2624 6.25595 34.1962C6.3452 34.1301 6.42054 34.047 6.47767 33.9518C6.5348 33.8565 6.57261 33.7509 6.58893 33.641C6.60525 33.5312 6.59976 33.4192 6.57278 33.3114C6.45958 32.8582 5.99988 32.583 5.54706 32.6958C4.57143 32.9399 3.59973 33.1994 2.63233 33.4743C2.62938 33.4751 2.62631 33.4765 2.62336 33.4772L2.27598 32.5881C2.21256 32.4277 2.18373 32.2558 2.19141 32.0835C2.19908 31.9112 2.24307 31.7425 2.3205 31.5884C2.47767 31.2713 2.75242 31.0437 3.09334 30.9466C4.79124 30.4645 6.50248 30.0307 8.225 29.6457C8.23266 29.6444 8.24031 29.6423 8.24797 29.6406C14.7069 28.198 21.3014 27.4493 27.9193 27.4073H28.855C34.0226 27.4269 39.1796 27.8778 44.2722 28.7553H44.2726C47.5199 29.3145 50.7351 30.0458 53.9048 30.9462C54.2472 31.0436 54.5222 31.2718 54.6798 31.5893C54.8367 31.905 54.8521 32.2595 54.7239 32.5881L54.377 33.4763C54.3739 33.4755 54.371 33.4742 54.3676 33.4734C45.7525 31.027 36.851 29.8148 27.9087 29.87C21.6425 29.9114 15.3959 30.5734 9.26023 31.8464C9.15143 31.869 9.04813 31.9128 8.95626 31.9753C8.86438 32.0378 8.78572 32.1178 8.72478 32.2107C8.66383 32.3037 8.6218 32.4077 8.60107 32.5168C8.58035 32.626 8.58134 32.7382 8.60398 32.847C8.69881 33.3042 9.14572 33.5978 9.60411 33.5033C15.6193 32.2541 21.781 31.6008 27.9193 31.5623C36.6539 31.5096 45.3524 32.6871 53.7587 35.0601L50.34 43.8145Z" fill="black"/>
<path d="M12.6295 21.1465C12.6307 21.2584 12.6098 21.3695 12.5679 21.4732C12.5259 21.577 12.4638 21.6714 12.3851 21.751C12.3064 21.8305 12.2128 21.8937 12.1095 21.9368C12.0062 21.98 11.8954 22.0022 11.7835 22.0022C11.6716 22.0022 11.5608 21.98 11.4575 21.9368C11.3543 21.8937 11.2606 21.8305 11.1819 21.751C11.1032 21.6714 11.0411 21.577 10.9992 21.4732C10.9572 21.3695 10.9363 21.2584 10.9376 21.1465C10.9376 20.9222 11.0267 20.707 11.1853 20.5483C11.344 20.3897 11.5592 20.3005 11.7836 20.3005C12.0079 20.3005 12.2231 20.3897 12.3818 20.5483C12.5405 20.707 12.6295 20.9222 12.6295 21.1465ZM29.3002 17.8751C29.2966 18.0972 29.2059 18.3089 29.0476 18.4647C28.8893 18.6205 28.6761 18.7078 28.4541 18.7078C28.232 18.7078 28.0188 18.6205 27.8605 18.4647C27.7022 18.3089 27.6115 18.0972 27.6079 17.8751C27.6079 17.764 27.6298 17.654 27.6724 17.5513C27.7149 17.4486 27.7773 17.3554 27.8559 17.2768C27.9344 17.1982 28.0278 17.1359 28.1304 17.0934C28.2331 17.0509 28.3432 17.0291 28.4543 17.0291C28.9213 17.0291 29.3002 17.4077 29.3002 17.8751ZM46.6191 21.1465C46.6191 21.3709 46.53 21.5861 46.3713 21.7448C46.2127 21.9035 45.9976 21.9928 45.7732 21.9929C45.5487 21.9929 45.3334 21.9037 45.1747 21.745C45.0159 21.5863 44.9267 21.371 44.9267 21.1465C44.9292 20.9238 45.0195 20.711 45.1779 20.5544C45.3363 20.3978 45.5501 20.3099 45.7729 20.3099C45.9957 20.3099 46.2094 20.3978 46.3679 20.5544C46.5263 20.711 46.6165 20.9238 46.6191 21.1465ZM20.4246 35.3456C20.0409 35.0158 19.5313 34.8509 18.895 34.8509H17.049C16.8942 34.8509 16.7695 34.8928 16.6743 34.9756C16.5794 35.0589 16.532 35.1571 16.532 35.27V40.9422C16.532 41.0789 16.5999 41.1844 16.7371 41.2587C16.8738 41.3331 17.037 41.3703 17.2275 41.3703C17.4177 41.3703 17.5808 41.3331 17.718 41.2587C17.8548 41.1844 17.9231 41.0788 17.9231 40.9421V39.0157H18.8058C19.4659 39.0157 19.9965 38.8478 20.3977 38.5119C20.7994 38.1757 20.9997 37.6541 20.9997 36.9465V36.9021C20.9997 36.1945 20.8083 35.6755 20.4246 35.3457V35.3456ZM19.6086 37.0537C19.6086 37.6481 19.3412 37.9454 18.8058 37.9454H17.9231V36.0634H18.8058C19.3412 36.0634 19.6086 36.3611 19.6086 36.9555V37.0537ZM24.9953 38.5696C25.7143 38.2902 26.0741 37.687 26.0741 36.7594C26.0741 35.487 25.3431 34.8508 23.8802 34.8508H22.034C21.9093 34.8508 21.8068 34.8928 21.7264 34.9756C21.6461 35.0589 21.606 35.1571 21.606 35.27V40.9422C21.606 41.0789 21.6744 41.1844 21.8111 41.2587C21.9478 41.3331 22.1114 41.3703 22.3019 41.3703C22.492 41.3703 22.6552 41.3331 22.7924 41.2587C22.9291 41.1844 22.9975 41.0788 22.9975 40.9421V38.7927H23.5859L24.8077 41.1651C24.897 41.3377 25.0453 41.4236 25.2538 41.4236C25.4619 41.4236 25.6592 41.3467 25.8468 41.192C26.0339 41.0374 26.1274 40.8737 26.1274 40.7011C26.1274 40.6362 26.1126 40.5824 26.083 40.5409L24.9953 38.5696ZM24.478 37.5306C24.3412 37.6588 24.1416 37.7224 23.8802 37.7224H22.9976V36.0634H23.8802C24.1416 36.0634 24.3411 36.1275 24.4779 36.2553C24.6146 36.383 24.6829 36.5958 24.6829 36.8927C24.6829 37.1904 24.6146 37.4028 24.4779 37.5306H24.478ZM30.5956 36.0634C30.7263 36.0634 30.8289 36.004 30.9033 35.8851C30.9777 35.7663 31.0148 35.6208 31.0148 35.4482C31.0148 35.288 30.9793 35.1482 30.9079 35.0291C30.8366 34.9103 30.7324 34.8508 30.5956 34.8508H27.4208C27.2541 34.8508 27.1115 34.8876 26.9927 34.9623C26.8739 35.0367 26.8144 35.1423 26.8144 35.279V40.9421C26.8144 41.0788 26.8739 41.1844 26.9927 41.2587C27.1115 41.3331 27.2541 41.3703 27.4208 41.3703H30.5956C30.7324 41.3703 30.8366 41.3108 30.9079 41.1916C30.9793 41.0728 31.0148 40.9331 31.0148 40.7725C31.0148 40.6003 30.9776 40.4546 30.9032 40.3354C30.8288 40.2166 30.7263 40.1572 30.5956 40.1572H28.2056V38.6411H29.5432C29.6799 38.6411 29.7843 38.5877 29.8556 38.4808C29.927 38.3736 29.9625 38.2518 29.9625 38.1151C29.9625 37.9664 29.9253 37.8384 29.8509 37.7315C29.7765 37.6243 29.674 37.5707 29.5433 37.5707H28.2057V36.0635L30.5956 36.0634ZM34.957 37.9411C34.7403 37.7844 34.5122 37.6442 34.2747 37.5216C34.0277 37.3939 33.8004 37.29 33.5923 37.2097C33.3843 37.1294 33.2104 37.0328 33.0706 36.9201C32.9308 36.8073 32.8609 36.6821 32.8609 36.5453C32.8609 36.3966 32.9353 36.2701 33.0839 36.1663C33.2327 36.0621 33.4552 36.0104 33.7525 36.0104C34.032 36.0104 34.2879 36.0668 34.5199 36.1796C34.7514 36.2928 34.9031 36.3491 34.9745 36.3491C35.1466 36.3491 35.2821 36.2647 35.3804 36.0954C35.4782 35.9263 35.5273 35.7631 35.5273 35.6058C35.5273 35.4404 35.4606 35.2999 35.327 35.1833C35.1928 35.067 35.0206 34.9829 34.8096 34.9307C34.5985 34.8787 34.4079 34.8432 34.2387 34.8248C34.0772 34.8069 33.915 34.7978 33.7525 34.7974C33.1224 34.7974 32.5844 34.9534 32.1384 35.2653C31.6923 35.5776 31.4693 36.0489 31.4693 36.6791C31.4693 37.0657 31.5659 37.3986 31.7595 37.6779C31.9525 37.9574 32.1888 38.1732 32.4682 38.3248C32.7406 38.4727 33.0188 38.6095 33.3022 38.7349C33.5786 38.8568 33.8137 38.9922 34.0068 39.1408C34.2 39.2894 34.2969 39.4617 34.2969 39.6578C34.2969 39.8544 34.2105 40.0013 34.038 40.0996C33.8654 40.1975 33.6637 40.2466 33.4317 40.2466C33.2471 40.2466 33.0719 40.2107 32.9053 40.1384C32.7391 40.0662 32.6097 39.9864 32.5174 39.8989C32.4237 39.8101 32.3223 39.7299 32.2144 39.6591C32.1042 39.5869 32.0047 39.551 31.9154 39.551C31.7552 39.551 31.6138 39.6343 31.4921 39.8006C31.3702 39.9671 31.3091 40.1338 31.3091 40.3C31.3091 40.5973 31.5231 40.8648 31.9513 41.1028C32.3794 41.3403 32.8818 41.4596 33.4585 41.4596C34.1243 41.4596 34.6626 41.2886 35.0728 40.9472C35.4829 40.6054 35.688 40.1282 35.688 39.5151C35.688 39.1643 35.6183 38.8521 35.4787 38.5786C35.3389 38.3052 35.1646 38.0927 34.957 37.9411ZM39.7101 37.9411C39.4935 37.7842 39.2655 37.644 39.0278 37.5216C38.7813 37.3939 38.5535 37.29 38.3454 37.2097C38.1374 37.1294 37.9635 37.0328 37.8237 36.9201C37.6841 36.8072 37.6144 36.6821 37.6144 36.5453C37.6144 36.3966 37.6888 36.2701 37.837 36.1663C37.9858 36.0621 38.2087 36.0104 38.5061 36.0104C38.7855 36.0104 39.0409 36.0668 39.273 36.1796C39.505 36.2928 39.6567 36.3491 39.7276 36.3491C39.9002 36.3491 40.0357 36.2647 40.1335 36.0954C40.2318 35.9263 40.2809 35.7631 40.2809 35.6058C40.2809 35.4404 40.2139 35.2999 40.0801 35.1833C39.9463 35.067 39.7738 34.9829 39.5627 34.9307C39.3516 34.8787 39.1614 34.8432 38.9918 34.8248C38.8305 34.8069 38.6684 34.7978 38.5062 34.7974C37.876 34.7974 37.3376 34.9534 36.8919 35.2653C36.4459 35.5776 36.2229 36.0489 36.2229 36.6791C36.2229 37.0657 36.3194 37.3986 36.513 37.6779C36.7061 37.9574 36.9423 38.1732 37.2218 38.3248C37.4941 38.4727 37.7723 38.6095 38.0558 38.7349C38.3322 38.8568 38.5668 38.9922 38.7603 39.1408C38.9534 39.2896 39.05 39.4617 39.05 39.6578C39.05 39.8544 38.9636 40.0013 38.7915 40.0996C38.6188 40.1975 38.4168 40.2466 38.1853 40.2466C38.0006 40.2466 37.8254 40.2107 37.6589 40.1384C37.4923 40.0662 37.3632 39.9864 37.2709 39.8989C37.1772 39.81 37.0757 39.7298 36.9676 39.6591C36.8578 39.5869 36.7583 39.551 36.669 39.551C36.5082 39.551 36.3674 39.6343 36.2455 39.8006C36.1233 39.9671 36.0626 40.1338 36.0626 40.3C36.0626 40.5973 36.2767 40.8648 36.7048 41.1028C37.133 41.3403 37.6349 41.4596 38.2122 41.4596C38.8778 41.4596 39.4162 41.2886 39.8263 40.9472C40.2365 40.6054 40.4416 40.1282 40.4416 39.5151C40.4416 39.1643 40.3715 38.8521 40.2318 38.5786C40.092 38.3052 39.9181 38.0927 39.7101 37.9411Z" fill="black"/>
</g>
<defs>
<clipPath id="clip0_1551_8474">
<rect width="56" height="56" fill="white" transform="translate(0.5)"/>
</clipPath>
</defs>
</svg>
