<svg width="57" height="56" viewBox="0 0 57 56" fill="none" xmlns="http://www.w3.org/2000/svg">
<path d="M47.75 39.9726C49.7976 40.6966 51.5704 42.0377 52.824 43.8111C54.0777 45.5846 54.7506 47.7032 54.75 49.875V54.25H2.25V49.875C2.2494 47.7032 2.92229 45.5846 4.17595 43.8111C5.42962 42.0377 7.20238 40.6966 9.25 39.9726" fill="#2D4D83"/>
<path d="M21.6312 32.375C19.2583 28.5834 17.9999 24.2007 18 19.7277V16.625L23.8511 12.7242C25.1707 11.8442 26.7214 11.3747 28.3075 11.375C30.1316 11.3751 31.9014 10.7542 33.3256 9.6145L35.5 7.875L37.5309 10.9209C38.4889 12.3583 39.0001 14.0471 39 15.7745V19.7277C39.0002 24.2008 37.7415 28.5837 35.3679 32.375" fill="#FADFB2"/>
<path d="M18.917 26.2745C18.3085 24.1455 17.9999 21.942 18 19.7277V19.25H16.8625C16.2359 19.25 15.635 19.4989 15.192 19.942C14.7489 20.385 14.5 20.9859 14.5 21.6125C14.5 21.9669 14.5797 22.3169 14.7333 22.6363C14.8869 22.9557 15.1104 23.2365 15.3872 23.4579L18.917 26.2727V26.2745ZM38.125 26.25L41.6128 23.4596C41.8898 23.2381 42.1135 22.957 42.2671 22.6373C42.4207 22.3175 42.5003 21.9672 42.5 21.6125C42.5 21.3023 42.4389 20.995 42.3202 20.7084C42.2014 20.4218 42.0274 20.1613 41.808 19.942C41.5887 19.7226 41.3282 19.5486 41.0416 19.4298C40.755 19.3111 40.4477 19.25 40.1375 19.25H39V19.7277C39.0002 21.9304 38.6948 24.1225 38.0926 26.2413L38.125 26.25Z" fill="#F5CF88"/>
<path d="M39 19.25L41.3721 12.7269C42.0958 10.7369 42.0196 8.54381 41.1595 6.60887C40.5168 5.16268 39.4685 3.93393 38.1416 3.07151C36.8146 2.2091 35.2661 1.75005 33.6835 1.75H26.2548C20.8604 1.75026 15.5746 3.2662 11 6.125L13.1096 6.825C13.514 6.95898 13.8866 7.17431 14.2046 7.45772C14.5226 7.74114 14.7792 8.08664 14.9586 8.47297C15.138 8.85929 15.2365 9.27825 15.2479 9.70405C15.2593 10.1299 15.1835 10.5535 15.025 10.9489C14.8615 11.3581 14.7863 11.7974 14.8046 12.2377C14.8228 12.678 14.934 13.1096 15.1309 13.5039L18 19.25V16.625L23.8511 12.7242C25.1707 11.8442 26.7214 11.3747 28.3075 11.375C30.1316 11.3751 31.9014 10.7542 33.3256 9.6145L35.5 7.875L37.5309 10.9209C38.4889 12.3583 39.0001 14.0471 39 15.7745V19.25Z" fill="#976947"/>
<path d="M21.5 19.25H26.75V22.75C26.75 23.2141 26.5656 23.6592 26.2374 23.9874C25.9092 24.3156 25.4641 24.5 25 24.5H23.25C22.7859 24.5 22.3408 24.3156 22.0126 23.9874C21.6844 23.6592 21.5 23.2141 21.5 22.75V19.25ZM30.25 19.25H35.5V22.75C35.5 23.2141 35.3156 23.6592 34.9874 23.9874C34.6592 24.3156 34.2141 24.5 33.75 24.5H32C31.5359 24.5 31.0908 24.3156 30.7626 23.9874C30.4344 23.6592 30.25 23.2141 30.25 22.75V19.25Z" fill="#F2F0EB"/>
<path d="M26.75 20.125H30.25V21.875H26.75V20.125Z" fill="#A8B0BC"/>
<path d="M9.25 54.25V35.875C9.25 34.9467 9.61875 34.0565 10.2751 33.4001C10.9315 32.7437 11.8217 32.375 12.75 32.375H44.25C45.1783 32.375 46.0685 32.7437 46.7249 33.4001C47.3812 34.0565 47.75 34.9467 47.75 35.875V54.25" fill="#D5CEC2"/>
<path d="M28.5 49.875C29.9497 49.875 31.125 48.6997 31.125 47.25C31.125 45.8003 29.9497 44.625 28.5 44.625C27.0503 44.625 25.875 45.8003 25.875 47.25C25.875 48.6997 27.0503 49.875 28.5 49.875Z" fill="#E7E4DD"/>
<path d="M22.6316 42.6186L19.1316 39.1186C19.0503 39.0374 18.9857 38.9409 18.9417 38.8346C18.8977 38.7284 18.875 38.6145 18.875 38.4996C18.875 38.3846 18.8977 38.2707 18.9417 38.1645C18.9857 38.0583 19.0503 37.9618 19.1316 37.8805L22.6316 34.3805L23.8698 35.6186L20.9884 38.5L23.8698 41.3805L22.6316 42.6186ZM34.3698 42.6186L33.1316 41.3805L36.013 38.5L33.1316 35.6186L34.3698 34.3805L37.8698 37.8805C37.9511 37.9618 38.0156 38.0583 38.0597 38.1645C38.1037 38.2707 38.1264 38.3846 38.1264 38.4996C38.1264 38.6145 38.1037 38.7284 38.0597 38.8346C38.0156 38.9409 37.9511 39.0374 37.8698 39.1186L34.3698 42.6186ZM25.1753 41.4811L30.4253 34.4811L31.8253 35.5311L26.5753 42.5311L25.1753 41.4811Z" fill="#C66B60"/>
<path d="M55.625 49.875C55.6218 47.6307 54.9557 45.4373 53.7103 43.5702C52.465 41.7031 50.6958 40.2455 48.625 39.3802V35.875C48.6238 34.715 48.1625 33.6029 47.3423 32.7827C46.5221 31.9625 45.41 31.5012 44.25 31.5H36.8843C37.6936 30.0059 38.3463 28.4322 38.832 26.8039L42.157 24.1421C42.6738 23.7295 43.0517 23.1683 43.2395 22.5342C43.4273 21.9001 43.4161 21.2236 43.2074 20.5961C42.9987 19.9686 42.6026 19.4202 42.0724 19.0249C41.5422 18.6296 40.9035 18.4064 40.2425 18.3855L42.192 13.0253C42.6894 11.6574 42.8498 10.1898 42.6596 8.74681C42.4694 7.30381 41.9341 5.92793 41.0992 4.73574C40.2642 3.54355 39.1542 2.57019 37.8632 1.89813C36.5721 1.22607 35.1381 0.875115 33.6826 0.875001H26.2547C20.696 0.873424 15.2488 2.43526 10.5354 5.38213C10.3938 5.46984 10.2801 5.59616 10.2079 5.74622C10.1356 5.89629 10.1076 6.06387 10.1273 6.22928C10.1469 6.39468 10.2134 6.55104 10.3189 6.67997C10.4243 6.80891 10.5644 6.90506 10.7226 6.95713L12.8322 7.65713C13.1226 7.75408 13.3902 7.90934 13.6184 8.11337C13.8467 8.3174 14.0308 8.5659 14.1596 8.84364C14.2884 9.12138 14.3591 9.4225 14.3674 9.72854C14.3757 10.0346 14.3213 10.3391 14.2078 10.6234C13.9984 11.1473 13.9024 11.7096 13.9259 12.2734C13.9494 12.8371 14.092 13.3894 14.3442 13.8941L16.6 18.4013C15.9545 18.4524 15.3393 18.6966 14.8343 19.102C14.3294 19.5074 13.958 20.0553 13.7685 20.6745C13.5791 21.2937 13.5802 21.9556 13.7718 22.5742C13.9634 23.1927 14.3367 23.7393 14.843 24.143L18.168 26.8039C18.6537 28.4322 19.3065 30.0059 20.1157 31.5H12.75C11.59 31.5012 10.4779 31.9625 9.65769 32.7827C8.83747 33.6029 8.37616 34.715 8.375 35.875V39.3794C6.30402 40.2446 4.53479 41.7024 3.28943 43.5697C2.04406 45.437 1.37805 47.6305 1.375 49.875V54.25C1.375 54.4821 1.46719 54.7046 1.63128 54.8687C1.79538 55.0328 2.01794 55.125 2.25 55.125H54.75C54.9821 55.125 55.2046 55.0328 55.3687 54.8687C55.5328 54.7046 55.625 54.4821 55.625 54.25V49.875ZM35.5 18.375H30.25C30.0179 18.375 29.7954 18.4672 29.6313 18.6313C29.4672 18.7954 29.375 19.0179 29.375 19.25V20.125H27.625V19.25C27.625 19.0179 27.5328 18.7954 27.3687 18.6313C27.2046 18.4672 26.9821 18.375 26.75 18.375H18.875V17.0931L24.3368 13.4514C25.5119 12.6666 26.8936 12.2485 28.3066 12.25C30.329 12.2475 32.2908 11.5593 33.8716 10.2979L35.3005 9.15338L36.802 11.4056C37.666 12.6984 38.1265 14.2187 38.125 15.7736V18.375H35.5ZM34.625 20.125V22.75C34.625 22.9821 34.5328 23.2046 34.3687 23.3687C34.2046 23.5328 33.9821 23.625 33.75 23.625H32C31.7679 23.625 31.5454 23.5328 31.3813 23.3687C31.2172 23.2046 31.125 22.9821 31.125 22.75V20.125H34.625ZM25.875 20.125V22.75C25.875 22.9821 25.7828 23.2046 25.6187 23.3687C25.4546 23.5328 25.2321 23.625 25 23.625H23.25C23.0179 23.625 22.7954 23.5328 22.6313 23.3687C22.4672 23.2046 22.375 22.9821 22.375 22.75V20.125H25.875ZM41.625 21.6125C41.6256 21.8359 41.5758 22.0565 41.4791 22.2579C41.3824 22.4593 41.2415 22.6362 41.0667 22.7754L39.4804 24.0441C39.7113 22.75 39.8383 21.4394 39.8601 20.125H40.1375C40.3328 20.125 40.5263 20.1635 40.7067 20.2382C40.8872 20.313 41.0512 20.4226 41.1893 20.5607C41.3274 20.6988 41.437 20.8628 41.5118 21.0433C41.5865 21.2237 41.625 21.4172 41.625 21.6125ZM15.8326 11.2726C16.0347 10.7668 16.1312 10.225 16.1163 9.6805C16.1014 9.136 15.9754 8.6003 15.746 8.10627C15.5165 7.61225 15.1885 7.17033 14.7821 6.80766C14.3757 6.44499 13.8995 6.16921 13.3826 5.99725L13.1201 5.90975C17.1619 3.75225 21.6732 2.62407 26.2547 2.625H33.6826C34.8568 2.62488 36.0136 2.90776 37.0552 3.44968C38.0968 3.9916 38.9924 4.77659 39.6662 5.73815C40.3399 6.69971 40.772 7.8095 40.9258 8.97351C41.0796 10.1375 40.9506 11.3215 40.5496 12.425L39.7884 14.5171C39.5986 13.0559 39.075 11.658 38.258 10.4318L36.2271 7.3885C36.1599 7.28771 36.0724 7.202 35.9703 7.13678C35.8682 7.07156 35.7536 7.02826 35.6339 7.00963C35.514 6.99142 35.3918 6.99811 35.2746 7.02928C35.1575 7.06044 35.0481 7.11541 34.9531 7.19075L32.7787 8.93113C31.5083 9.94461 29.9318 10.4976 28.3066 10.5C26.5478 10.4982 24.8281 11.0186 23.3655 11.9954L17.5144 15.8961C17.4599 15.933 17.41 15.9762 17.3656 16.0248L15.9088 13.1119C15.7672 12.828 15.6872 12.5174 15.6741 12.2004C15.661 11.8834 15.715 11.5673 15.8326 11.2726ZM15.9333 22.7763C15.6917 22.5839 15.5159 22.3212 15.4304 22.0245C15.3449 21.7278 15.3538 21.4119 15.4559 21.1205C15.5581 20.8291 15.7484 20.5767 16.0004 20.3983C16.2524 20.2199 16.5537 20.1244 16.8625 20.125H17.1372C17.1602 21.4397 17.2874 22.7505 17.5179 24.045L15.9333 22.7763ZM18.8881 20.125H20.625V22.75C20.625 23.4462 20.9016 24.1139 21.3938 24.6062C21.8861 25.0984 22.5538 25.375 23.25 25.375H25C25.6962 25.375 26.3639 25.0984 26.8562 24.6062C27.3484 24.1139 27.625 23.4462 27.625 22.75V21.875H29.375V22.75C29.375 23.4462 29.6516 24.1139 30.1438 24.6062C30.6361 25.0984 31.3038 25.375 32 25.375H33.75C34.4462 25.375 35.1139 25.0984 35.6062 24.6062C36.0984 24.1139 36.375 23.4462 36.375 22.75V20.125H38.111C38.0426 24.1354 36.9233 28.0576 34.8647 31.5H22.1353C20.0764 28.0577 18.9568 24.1354 18.8881 20.125ZM12.75 33.25H44.25C44.9462 33.25 45.6139 33.5266 46.1062 34.0188C46.5984 34.5111 46.875 35.1788 46.875 35.875V53.375H10.125V35.875C10.125 35.1788 10.4016 34.5111 10.8938 34.0188C11.3861 33.5266 12.0538 33.25 12.75 33.25ZM3.125 49.875C3.12767 48.1021 3.61913 46.3642 4.54534 44.8525C5.47156 43.3408 6.79667 42.1137 8.375 41.3061V53.375H3.125V49.875ZM53.875 53.375H48.625V41.3053C50.2034 42.1129 51.5285 43.3402 52.4548 44.8521C53.381 46.364 53.8724 48.102 53.875 49.875V53.375Z" fill="black"/>
<path d="M28.5011 50.75C29.1934 50.75 29.8701 50.5447 30.4456 50.1601C31.0212 49.7756 31.4698 49.2289 31.7347 48.5894C31.9996 47.9498 32.0689 47.2461 31.9339 46.5672C31.7988 45.8882 31.4655 45.2646 30.976 44.7751C30.4865 44.2856 29.8629 43.9523 29.1839 43.8172C28.505 43.6822 27.8013 43.7515 27.1617 44.0164C26.5222 44.2813 25.9756 44.7299 25.591 45.3055C25.2064 45.8811 25.0011 46.5578 25.0011 47.25C25.0011 48.1783 25.3699 49.0685 26.0263 49.7249C26.6826 50.3812 27.5729 50.75 28.5011 50.75ZM28.5011 45.5C28.8472 45.5 29.1856 45.6026 29.4734 45.7949C29.7612 45.9872 29.9855 46.2605 30.1179 46.5803C30.2504 46.9001 30.285 47.2519 30.2175 47.5914C30.15 47.9309 29.9833 48.2427 29.7386 48.4874C29.4938 48.7322 29.182 48.8988 28.8425 48.9664C28.5031 49.0339 28.1512 48.9992 27.8314 48.8668C27.5117 48.7343 27.2383 48.51 27.0461 48.2222C26.8538 47.9345 26.7511 47.5961 26.7511 47.25C26.7511 46.7859 26.9355 46.3407 27.2637 46.0126C27.5919 45.6844 28.037 45.5 28.5011 45.5ZM22.6316 42.6186L23.8698 41.3805L20.9884 38.5L23.8698 35.6186L22.6316 34.3805L19.1316 37.8805C19.0503 37.9618 18.9857 38.0583 18.9417 38.1645C18.8977 38.2707 18.875 38.3846 18.875 38.4996C18.875 38.6145 18.8977 38.7284 18.9417 38.8346C18.9857 38.9409 19.0503 39.0374 19.1316 39.1186L22.6316 42.6186ZM34.3698 42.6186L37.8698 39.1186C37.9511 39.0374 38.0156 38.9409 38.0597 38.8346C38.1037 38.7284 38.1264 38.6145 38.1264 38.4996C38.1264 38.3846 38.1037 38.2707 38.0597 38.1645C38.0156 38.0583 37.9511 37.9618 37.8698 37.8805L34.3698 34.3805L33.1316 35.6186L36.013 38.5L33.1316 41.3805L34.3698 42.6186ZM25.1753 41.4811L30.4253 34.4811L31.8253 35.5311L26.5753 42.5311L25.1753 41.4811Z" fill="black"/>
</svg>
