<svg width="57" height="56" viewBox="0 0 57 56" fill="none" xmlns="http://www.w3.org/2000/svg">
<path d="M53.875 14.875V39.375H3.125V14.875C3.12638 14.4113 3.3112 13.967 3.63909 13.6391C3.96698 13.3112 4.4113 13.1264 4.875 13.125H52.125C52.5887 13.1264 53.033 13.3112 53.3609 13.6391C53.6888 13.967 53.8736 14.4113 53.875 14.875Z" fill="#57A4FF"/>
<path d="M53.875 14.875V39.375H3.125V35.875H39.875C42.6598 35.875 45.3305 34.7688 47.2996 32.7996C49.2688 30.8305 50.375 28.1598 50.375 25.375V14.875C50.3736 14.4113 50.1888 13.967 49.8609 13.6391C49.533 13.3112 49.0887 13.1264 48.625 13.125H52.125C52.5887 13.1264 53.033 13.3112 53.3609 13.6391C53.6888 13.967 53.8736 14.4113 53.875 14.875Z" fill="#2488FF"/>
<path d="M46.875 23.625H50.375V35.875H46.875V23.625Z" fill="#FF7956"/>
<path d="M39.875 25.375H43.375V35.875H39.875V25.375Z" fill="#FFDE55"/>
<path d="M39 53.375H18L20.625 49.875H36.375L39 53.375Z" fill="#C6C5CA"/>
<path d="M32.875 28.875H36.375V35.875H32.875V28.875Z" fill="#00DDC2"/>
<path d="M34.8 5.775C35.8244 7.13706 36.3773 8.79571 36.375 10.5C36.3752 10.7925 36.3577 11.0847 36.3225 11.375H28.5V2.625C29.7227 2.62445 30.9286 2.90886 32.0222 3.45564C33.1157 4.00243 34.0668 4.79655 34.8 5.775Z" fill="#FF7956"/>
<path d="M23.0925 16.2225C22.3154 15.4852 21.6961 14.5979 21.2719 13.6143C20.8478 12.6306 20.6277 11.5712 20.625 10.5C20.625 8.41142 21.4547 6.40838 22.9315 4.93153C24.4084 3.45468 26.4114 2.625 28.5 2.625V11.375H36.3225C36.2601 11.9725 36.1249 12.5602 35.92 13.125C35.4836 14.3613 34.7452 15.469 33.7719 16.3474C32.7986 17.2258 31.6213 17.8471 30.3468 18.1549C29.0724 18.4626 27.7413 18.447 26.4744 18.1096C25.2075 17.7721 24.045 17.1234 23.0925 16.2225Z" fill="#FFDE55"/>
<path d="M36.3225 14C36.2601 14.5975 36.1249 15.1852 35.92 15.75C35.4836 16.9863 34.7452 18.094 33.7719 18.9724C32.7986 19.8508 31.6213 20.4721 30.3469 20.7799C29.0724 21.0876 27.7413 21.072 26.4744 20.7346C25.2075 20.3971 24.045 19.7484 23.0925 18.8475C22.3154 18.1102 21.6961 17.2229 21.272 16.2393C20.8478 15.2556 20.6277 14.1962 20.625 13.125C20.6245 12.6854 20.6596 12.2464 20.73 11.8125C20.8094 12.2591 20.9265 12.6982 21.08 13.125C21.4907 14.3049 22.1813 15.3677 23.0925 16.2225C23.9859 17.0683 25.0654 17.6926 26.2441 18.0452C27.4228 18.3978 28.6677 18.4689 29.8789 18.2527C31.09 18.0365 32.2335 17.5391 33.2174 16.8005C34.2013 16.0619 34.9981 15.1027 35.5438 14H36.3225Z" fill="#2488FF"/>
<path d="M34.625 49.875H22.375L23.25 44.625H33.75L34.625 49.875Z" fill="#57A4FF"/>
<path d="M53.875 39.375V42.875C53.8736 43.3387 53.6888 43.783 53.3609 44.1109C53.033 44.4388 52.5887 44.6236 52.125 44.625H4.875C4.4113 44.6236 3.96698 44.4388 3.63909 44.1109C3.3112 43.783 3.12638 43.3387 3.125 42.875V39.375H53.875Z" fill="#C6C5CA"/>
<path d="M23.25 44.625H33.75V47.25H23.25V44.625Z" fill="#2488FF"/>
<path d="M11 21H15.375C15.375 21.8653 15.1184 22.7112 14.6377 23.4306C14.1569 24.1501 13.4737 24.7108 12.6742 25.042C11.8748 25.3731 10.9951 25.4597 10.1465 25.2909C9.29782 25.1221 8.51826 24.7054 7.90641 24.0936C7.29456 23.4817 6.87788 22.7022 6.70907 21.8535C6.54026 21.0049 6.6269 20.1252 6.95803 19.3258C7.28916 18.5263 7.84992 17.8431 8.56938 17.3623C9.28885 16.8816 10.1347 16.625 11 16.625V21Z" fill="#FFDE55"/>
<path d="M32.875 28.875H36.375V35.875H32.875V28.875Z" fill="#00D7DF"/>
<path d="M46.875 23.625H50.375V25.375H46.875V23.625Z" fill="#FF5023"/>
<path d="M39.875 25.375H43.375V27.125H39.875V25.375Z" fill="#EBBF00"/>
<path d="M32.875 28.875H36.375V30.625H32.875V28.875Z" fill="#009698"/>
<path d="M52.125 12.25H37.075C37.1908 11.6738 37.2494 11.0877 37.25 10.5C37.2474 8.90736 36.8086 7.34587 35.9813 5.985L39.2887 3.5H46V1.75H39C38.8105 1.74897 38.626 1.81048 38.475 1.925L34.9312 4.585C34.1149 3.69175 33.1215 2.97834 32.0142 2.49025C30.9069 2.00216 29.7101 1.75008 28.5 1.75008C27.2899 1.75008 26.0931 2.00216 24.9858 2.49025C23.8785 2.97834 22.8851 3.69175 22.0688 4.585L18.525 1.925C18.374 1.81048 18.1895 1.74897 18 1.75H11V3.5H17.7113L21.0188 5.985C20.1914 7.34587 19.7526 8.90736 19.75 10.5C19.7506 11.0877 19.8092 11.6738 19.925 12.25H4.875C4.17945 12.2521 3.51297 12.5293 3.02114 13.0211C2.52931 13.513 2.25208 14.1794 2.25 14.875V42.875C2.25208 43.5706 2.52931 44.237 3.02114 44.7289C3.51297 45.2207 4.17945 45.4979 4.875 45.5H22.375V49H19.75C19.6143 49.0009 19.4807 49.033 19.3593 49.0936C19.238 49.1543 19.1322 49.242 19.05 49.35L16.425 52.85C16.3275 52.98 16.2681 53.1346 16.2535 53.2964C16.2389 53.4583 16.2697 53.621 16.3424 53.7663C16.415 53.9116 16.5268 54.0339 16.665 54.1193C16.8032 54.2047 16.9625 54.25 17.125 54.25H39.875C40.0375 54.25 40.1968 54.2047 40.335 54.1193C40.4732 54.0339 40.585 53.9116 40.6576 53.7663C40.7303 53.621 40.7611 53.4583 40.7465 53.2964C40.7319 53.1346 40.6725 52.98 40.575 52.85L37.95 49.35C37.8678 49.242 37.762 49.1543 37.6407 49.0936C37.5193 49.033 37.3857 49.0009 37.25 49H34.625V45.5H52.125C52.8206 45.4979 53.487 45.2207 53.9789 44.7289C54.4707 44.237 54.7479 43.5706 54.75 42.875V14.875C54.7479 14.1794 54.4707 13.513 53.9789 13.0211C53.487 12.5293 52.8206 12.2521 52.125 12.25ZM29.375 3.56125C30.9534 3.75972 32.4167 4.49136 33.5225 5.635L31.475 7.175L32.525 8.575L34.5725 7.035C35.1794 8.08898 35.4993 9.28375 35.5 10.5H29.375V3.56125ZM22.4275 7.035L24.475 8.575L25.525 7.175L23.4775 5.635C24.5833 4.49136 26.0466 3.75972 27.625 3.56125V11.375C27.625 11.6071 27.7172 11.8296 27.8813 11.9937C28.0454 12.1578 28.2679 12.25 28.5 12.25H35.2725C35.0252 13.2173 34.5737 14.1205 33.9483 14.8988C33.323 15.6771 32.5383 16.3126 31.647 16.7624C30.7556 17.2123 29.7783 17.4662 28.7807 17.507C27.7832 17.5478 26.7884 17.3746 25.8633 16.999C24.9382 16.6234 24.1042 16.0542 23.4174 15.3295C22.7306 14.6048 22.2069 13.7416 21.8814 12.7977C21.5559 11.8538 21.4363 10.8512 21.5305 9.8572C21.6246 8.86323 21.9305 7.90094 22.4275 7.035ZM36.8125 50.75L38.125 52.5H18.875L20.1875 50.75H36.8125ZM24.125 49V45.5H32.875V49H24.125ZM53 42.875C53 43.1071 52.9078 43.3296 52.7437 43.4937C52.5796 43.6578 52.3571 43.75 52.125 43.75H4.875C4.64294 43.75 4.42038 43.6578 4.25628 43.4937C4.09219 43.3296 4 43.1071 4 42.875V40.25H53V42.875ZM53 38.5H4V14.875C4 14.6429 4.09219 14.4204 4.25628 14.2563C4.42038 14.0922 4.64294 14 4.875 14H20.485C21.1649 15.5603 22.2855 16.8882 23.7093 17.8208C25.133 18.7534 26.798 19.2502 28.5 19.2502C30.202 19.2502 31.867 18.7534 33.2907 17.8208C34.7145 16.8882 35.8351 15.5603 36.515 14H52.125C52.3571 14 52.5796 14.0922 52.7437 14.2563C52.9078 14.4204 53 14.6429 53 14.875V38.5ZM47.75 1.75H51.25V3.5H47.75V1.75Z" fill="black"/>
<path d="M39 5.25H40.75V7H39V5.25ZM42.5 5.25H51.25V7H42.5V5.25ZM39 8.75H46V10.5H39V8.75ZM47.75 8.75H51.25V10.5H47.75V8.75ZM5.75 1.75H9.25V3.5H5.75V1.75ZM16.25 5.25H18V7H16.25V5.25ZM5.75 5.25H14.5V7H5.75V5.25ZM11 8.75H18V10.5H11V8.75ZM5.75 8.75H9.25V10.5H5.75V8.75ZM5.75 28H10.125V29.75H5.75V28ZM11.875 28H28.5V29.75H11.875V28ZM5.75 31.5H19.75V33.25H5.75V31.5ZM21.5 31.5H28.5V33.25H21.5V31.5ZM5.75 35H14.5V36.75H5.75V35ZM16.25 35H28.5V36.75H16.25V35ZM32.875 36.75H36.375C36.6071 36.75 36.8296 36.6578 36.9937 36.4937C37.1578 36.3296 37.25 36.1071 37.25 35.875V28.875C37.25 28.6429 37.1578 28.4204 36.9937 28.2563C36.8296 28.0922 36.6071 28 36.375 28H32.875C32.6429 28 32.4204 28.0922 32.2563 28.2563C32.0922 28.4204 32 28.6429 32 28.875V35.875C32 36.1071 32.0922 36.3296 32.2563 36.4937C32.4204 36.6578 32.6429 36.75 32.875 36.75ZM33.75 29.75H35.5V35H33.75V29.75ZM43.375 24.5H39.875C39.6429 24.5 39.4204 24.5922 39.2563 24.7563C39.0922 24.9204 39 25.1429 39 25.375V35.875C39 36.1071 39.0922 36.3296 39.2563 36.4937C39.4204 36.6578 39.6429 36.75 39.875 36.75H43.375C43.6071 36.75 43.8296 36.6578 43.9937 36.4937C44.1578 36.3296 44.25 36.1071 44.25 35.875V25.375C44.25 25.1429 44.1578 24.9204 43.9937 24.7563C43.8296 24.5922 43.6071 24.5 43.375 24.5ZM42.5 35H40.75V26.25H42.5V35ZM50.375 22.75H46.875C46.6429 22.75 46.4204 22.8422 46.2563 23.0063C46.0922 23.1704 46 23.3929 46 23.625V35.875C46 36.1071 46.0922 36.3296 46.2563 36.4937C46.4204 36.6578 46.6429 36.75 46.875 36.75H50.375C50.6071 36.75 50.8296 36.6578 50.9937 36.4937C51.1578 36.3296 51.25 36.1071 51.25 35.875V23.625C51.25 23.3929 51.1578 23.1704 50.9937 23.0063C50.8296 22.8422 50.6071 22.75 50.375 22.75ZM49.5 35H47.75V24.5H49.5V35ZM11 26.25C12.392 26.2486 13.7265 25.695 14.7108 24.7108C15.695 23.7265 16.2486 22.392 16.25 21C16.25 20.7679 16.1578 20.5454 15.9937 20.3813C15.8296 20.2172 15.6071 20.125 15.375 20.125H11.875V16.625C11.875 16.3929 11.7828 16.1704 11.6187 16.0063C11.4546 15.8422 11.2321 15.75 11 15.75C9.60761 15.75 8.27226 16.3031 7.28769 17.2877C6.30312 18.2723 5.75 19.6076 5.75 21C5.75 22.3924 6.30312 23.7277 7.28769 24.7123C8.27226 25.6969 9.60761 26.25 11 26.25ZM10.125 17.6102V21C10.125 21.2321 10.2172 21.4546 10.3813 21.6187C10.5454 21.7828 10.7679 21.875 11 21.875H14.3889C14.2344 22.4724 13.9248 23.0183 13.4914 23.4575C13.058 23.8967 12.5162 24.2135 11.9209 24.3758C11.3256 24.5381 10.698 24.5401 10.1016 24.3817C9.50526 24.2233 8.9614 23.91 8.52513 23.4737C8.08887 23.0373 7.77572 22.4934 7.61741 21.897C7.45911 21.3006 7.46128 20.673 7.6237 20.0777C7.78612 19.4825 8.10303 18.9407 8.54229 18.5074C8.98156 18.0741 9.52757 17.7646 10.125 17.6102ZM18 21H19.75V22.75H18V21ZM21.5 21H28.5V22.75H21.5V21ZM18 24.5H28.5V26.25H18V24.5Z" fill="black"/>
<path d="M37.1625 25.7661L38.6658 22.75H43.375C43.5034 22.7501 43.6302 22.7219 43.7465 22.6675C43.8628 22.613 43.9657 22.5337 44.0479 22.435L48.1604 17.5H51.25V15.75H47.75C47.6216 15.7499 47.4948 15.7781 47.3785 15.8325C47.2622 15.887 47.1593 15.9663 47.0771 16.065L42.9646 21H38.125C37.9617 20.9991 37.8013 21.044 37.6621 21.1295C37.523 21.215 37.4105 21.3378 37.3375 21.4839L35.8342 24.5H32V26.25H36.375C36.5383 26.2509 36.6987 26.206 36.8379 26.1205C36.977 26.035 37.0895 25.9122 37.1625 25.7661Z" fill="black"/>
</svg>
