<svg width="57" height="56" viewBox="0 0 57 56" fill="none" xmlns="http://www.w3.org/2000/svg">
<path d="M47.75 30.625H32V22.75C32 21.5897 32.4609 20.4769 33.2814 19.6564C34.1019 18.8359 35.2147 18.375 36.375 18.375H43.375C44.5353 18.375 45.6481 18.8359 46.4686 19.6564C47.2891 20.4769 47.75 21.5897 47.75 22.75V30.625Z" fill="#D0D8DA"/>
<path d="M44.25 24.5V21.875C44.25 21.4109 44.0656 20.9658 43.7374 20.6376C43.4092 20.3094 42.9641 20.125 42.5 20.125C41.0737 20.125 39.8181 19.432 39.0201 18.375H36.375C35.2147 18.375 34.1019 18.8359 33.2814 19.6564C32.4609 20.4769 32 21.5897 32 22.75V30.625H47.75V28C46.8217 28 45.9315 27.6313 45.2751 26.9749C44.6187 26.3185 44.25 25.4283 44.25 24.5Z" fill="#B8BEBF"/>
<path d="M40.548 6.125C40.1026 6.12499 39.6613 6.04006 39.2477 5.87475L35.4992 4.375L35.1597 5.05313C34.7312 5.91038 34.5368 6.8657 34.5965 7.82225C34.6561 8.77881 34.9675 9.7026 35.4992 10.5H44.2492V9.82625C44.2492 8.84462 43.8593 7.90319 43.1652 7.20907C42.471 6.51495 41.5296 6.125 40.548 6.125Z" fill="#00B4D8"/>
<path d="M39.8804 7.441L39.6852 7.343C39.2458 7.12358 38.7373 7.0874 38.2712 7.24238C38.0291 7.32305 37.7729 7.35282 37.5188 7.32982C37.2646 7.30683 37.0179 7.23156 36.7942 7.10873C36.5705 6.98591 36.3746 6.81818 36.2187 6.61608C36.0629 6.41397 35.9505 6.18184 35.8886 5.93425L35.4992 4.375L35.1597 5.05313C34.7312 5.91038 34.5368 6.8657 34.5965 7.82225C34.6561 8.77881 34.9675 9.7026 35.4992 10.5H44.2492V9.82625C44.2461 8.97115 43.944 8.14407 43.3952 7.48825C42.8433 7.7445 42.2408 7.87331 41.6324 7.86513C41.024 7.85695 40.4252 7.71199 39.8804 7.441Z" fill="#0096C7"/>
<path d="M38.125 15.75H41.625V18.375H38.125V15.75Z" fill="#DA9367"/>
<path d="M39.875 18.375C38.7147 18.375 37.6019 17.9141 36.7814 17.0936C35.9609 16.2731 35.5 15.1603 35.5 14V10.5C36.275 9.72515 37.2643 9.20024 38.3405 8.99297C39.4166 8.7857 40.5301 8.90557 41.5375 9.33712L44.25 10.5V14C44.25 15.1603 43.7891 16.2731 42.9686 17.0936C42.1481 17.9141 41.0353 18.375 39.875 18.375Z" fill="#F9DBAF"/>
<path d="M39.875 21.875L38.125 21L37.25 18.375H42.5L41.625 21L39.875 21.875Z" fill="#EDB88E"/>
<path d="M39.8015 19.1695C40.451 19.0446 41.0634 18.7728 41.5918 18.375H37.25L38.125 21L39.875 21.875L41.625 21L41.933 20.0751C41.1541 19.9701 40.4178 19.6573 39.8015 19.1695Z" fill="#DA9367"/>
<path d="M41.625 16.625C40.4647 16.625 39.3519 16.1641 38.5314 15.3436C37.7109 14.5232 37.25 13.4104 37.25 12.25V9.33891C36.5969 9.6088 36.0025 10.0032 35.5 10.5V14C35.5 15.1604 35.9609 16.2732 36.7814 17.0936C37.6019 17.9141 38.7147 18.375 39.875 18.375C41.5349 18.375 42.9611 17.4397 43.7031 16.0782C43.0674 16.4321 42.3526 16.6202 41.625 16.625Z" fill="#EDB88E"/>
<path d="M15.375 6.125H13.625C12.6967 6.125 11.8065 6.49375 11.1501 7.15013C10.4937 7.8065 10.125 8.69674 10.125 9.625H18.875C18.875 8.69674 18.5063 7.8065 17.8499 7.15013C17.1935 6.49375 16.3033 6.125 15.375 6.125Z" fill="#00B4D8"/>
<path d="M22.375 30.625H6.625V22.75C6.625 21.5897 7.08594 20.4769 7.90641 19.6564C8.72688 18.8359 9.83968 18.375 11 18.375H18C19.1603 18.375 20.2731 18.8359 21.0936 19.6564C21.9141 20.4769 22.375 21.5897 22.375 22.75V30.625Z" fill="#0096C7"/>
<path d="M19.75 23.625C19.75 22.9288 19.4734 22.2611 18.9812 21.7688C18.4889 21.2766 17.8212 21 17.125 21C16.2744 20.9994 15.4423 20.7508 14.7309 20.2846C14.0194 19.8183 13.4593 19.1547 13.1192 18.375H11C9.83968 18.375 8.72688 18.8359 7.90641 19.6564C7.08594 20.4769 6.625 21.5897 6.625 22.75V30.625H22.375V27.0016C20.8682 26.6105 19.75 25.2543 19.75 23.625Z" fill="#0077B6"/>
<path d="M15.375 20.125H13.625L12.75 28L14.5 30.625L16.25 28L15.375 20.125Z" fill="#D0D8DA"/>
<path d="M14.5 26.3182V24.6916C14.5 23.7554 14.9209 22.8865 15.6165 22.2976L15.375 20.125H13.625L12.75 28L14.5 30.625L15.7268 28.784C15.3477 28.4938 15.0401 28.1207 14.8275 27.6934C14.6149 27.266 14.5028 26.7956 14.5 26.3182Z" fill="#B8BEBF"/>
<path d="M16.25 21L14.5 21.875L12.75 21V16.625H16.25V21Z" fill="#E9F1F2"/>
<path d="M13.6434 19.2482C14.5862 19.2414 15.5012 18.9278 16.25 18.3549V16.625H12.75V21L14.5 21.875L16.25 21V20.9046C15.2089 20.6871 14.2824 20.0984 13.6434 19.2482Z" fill="#D0D8DA"/>
<path d="M14.5 18.375C13.3397 18.375 12.2269 17.9141 11.4064 17.0936C10.5859 16.2731 10.125 15.1603 10.125 14V9.625H18.875V14C18.875 15.1603 18.4141 16.2731 17.5936 17.0936C16.7731 17.9141 15.6603 18.375 14.5 18.375Z" fill="#F9DBAF"/>
<path d="M18.0788 16.52C17.5432 17.2796 16.7797 17.8489 15.8989 18.1456C15.0182 18.4423 14.0658 18.451 13.1798 18.1702C12.2938 17.8895 11.5202 17.3341 10.971 16.5843C10.4217 15.8345 10.1254 14.9294 10.125 14V9.625H12.75V12.25C12.7503 12.9055 12.8978 13.5525 13.1816 14.1433C13.4655 14.7341 13.8784 15.2536 14.3899 15.6635C14.9014 16.0734 15.4984 16.3631 16.1369 16.5114C16.7754 16.6596 17.439 16.6626 18.0788 16.52Z" fill="#EDB88E"/>
<path d="M13.2015 6.16788C11.4707 6.37875 10.125 7.83738 10.125 9.625H12.75V7.875C12.75 7.25288 12.918 6.6745 13.2015 6.16788Z" fill="#0096C7"/>
<path d="M35.5 28.875H19.75V21C19.75 19.8397 20.2109 18.7269 21.0314 17.9064C21.8519 17.0859 22.9647 16.625 24.125 16.625H31.125C32.2853 16.625 33.3981 17.0859 34.2186 17.9064C35.0391 18.7269 35.5 19.8397 35.5 21V28.875Z" fill="#48CAE4"/>
<path d="M32.875 21.875C32.875 21.1788 32.5984 20.5111 32.1062 20.0188C31.6139 19.5266 30.9462 19.25 30.25 19.25C29.3994 19.2494 28.5673 19.0008 27.8559 18.5346C27.1444 18.0683 26.5843 17.4047 26.2443 16.625H24.125C22.9647 16.625 21.8519 17.0859 21.0314 17.9064C20.2109 18.7269 19.75 19.8397 19.75 21V28.875H35.5V25.2516C33.9932 24.8605 32.875 23.5043 32.875 21.875Z" fill="#00B4D8"/>
<path d="M28.5 18.375H26.75L25.875 26.25L27.625 28.875L29.375 26.25L28.5 18.375Z" fill="#D0D8DA"/>
<path d="M27.625 24.5682V22.9416C27.625 22.0054 28.0459 21.1365 28.7415 20.5476L28.5 18.375H26.75L25.875 26.25L27.625 28.875L28.8518 27.034C28.4727 26.7438 28.1651 26.3707 27.9525 25.9434C27.7399 25.516 27.6278 25.0456 27.625 24.5682Z" fill="#B8BEBF"/>
<path d="M29.375 19.25L27.625 20.125L25.875 19.25V14.875H29.375V19.25Z" fill="#E9F1F2"/>
<path d="M26.7684 17.4982C27.7112 17.4914 28.6262 17.1778 29.375 16.6049V14.875H25.875V19.25L27.625 20.125L29.375 19.25V19.1546C28.3339 18.9371 27.4074 18.3484 26.7684 17.4982Z" fill="#D0D8DA"/>
<path d="M27.625 16.625C26.4647 16.625 25.3519 16.1641 24.5314 15.3436C23.7109 14.5231 23.25 13.4103 23.25 12.25V7.875H32V12.25C32 13.4103 31.5391 14.5231 30.7186 15.3436C29.8981 16.1641 28.7853 16.625 27.625 16.625Z" fill="#F9DBAF"/>
<path d="M28.5 4.375H23.25V7.875H32C32 6.94674 31.6313 6.0565 30.9749 5.40013C30.3185 4.74375 29.4283 4.375 28.5 4.375Z" fill="#00B4D8"/>
<path d="M31.2038 14.77C30.6682 15.5296 29.9047 16.0989 29.0239 16.3956C28.1432 16.6923 27.1908 16.701 26.3048 16.4202C25.4188 16.1395 24.6452 15.5841 24.096 14.8343C23.5467 14.0845 23.2504 13.1794 23.25 12.25V7.875H25.875V10.5C25.8753 11.1555 26.0228 11.8025 26.3066 12.3933C26.5905 12.9841 27.0034 13.5036 27.5149 13.9135C28.0264 14.3234 28.6234 14.6131 29.2619 14.7614C29.9004 14.9096 30.564 14.9126 31.2038 14.77Z" fill="#EDB88E"/>
<path d="M26.3475 4.375C26.0387 4.90656 25.8757 5.51024 25.875 6.125V7.875H23.25V4.375H26.3475Z" fill="#0096C7"/>
<path d="M43.9569 41.7891C44.2469 41.2867 44.3256 40.6896 44.1754 40.1293C44.0253 39.5689 43.6587 39.0911 43.1562 38.801L23.53 27.4697C22.7517 27.0202 21.8302 26.8874 20.9566 27.0987L19.547 27.44C18.0305 27.8066 16.4441 27.7664 14.948 27.3236L8.375 25.375L4.875 38.5L13.5673 41.9256L31.3752 52.2069C31.6241 52.3528 31.8994 52.448 32.1852 52.4871C32.4711 52.5262 32.7618 52.5083 33.0407 52.4346C33.3196 52.3609 33.5812 52.2327 33.8103 52.0574C34.0395 51.8822 34.2317 51.6634 34.376 51.4135C34.5202 51.1637 34.6136 50.8878 34.6508 50.6017C34.688 50.3156 34.6682 50.025 34.5926 49.7466C34.5171 49.4682 34.3872 49.2075 34.2104 48.9795C34.0336 48.7515 33.8135 48.5607 33.5627 48.4181L34.3205 48.8556C34.5694 49.0015 34.8446 49.0968 35.1305 49.1358C35.4163 49.1749 35.707 49.1571 35.9859 49.0833C36.2649 49.0096 36.5264 48.8814 36.7556 48.7062C36.9847 48.531 37.177 48.3121 37.3212 48.0623C37.4655 47.8124 37.5589 47.5365 37.5961 47.2505C37.6333 46.9644 37.6135 46.6738 37.5379 46.3954C37.4623 46.117 37.3324 45.8562 37.1556 45.6282C36.9789 45.4002 36.7588 45.2095 36.508 45.0669L37.2658 45.5044C37.5146 45.6503 37.7899 45.7455 38.0757 45.7846C38.3616 45.8237 38.6523 45.8058 38.9312 45.7321C39.2101 45.6584 39.4717 45.5302 39.7008 45.3549C39.93 45.1797 40.1222 44.9609 40.2665 44.711C40.4107 44.4612 40.5041 44.1853 40.5413 43.8992C40.5785 43.6131 40.5587 43.3225 40.4831 43.0441C40.4076 42.7657 40.2776 42.505 40.1009 42.277C39.9241 42.049 39.704 41.8582 39.4533 41.7156L40.9688 42.5906C41.2176 42.7342 41.4922 42.8274 41.7771 42.8648C42.0619 42.9023 42.3513 42.8832 42.6288 42.8088C42.9063 42.7344 43.1664 42.606 43.3943 42.431C43.6221 42.2561 43.8133 42.038 43.9569 41.7891Z" fill="#EDB88E"/>
<path d="M44.0651 39.844C43.7739 40.3438 43.2965 40.7079 42.7375 40.8566C42.1785 41.0054 41.5834 40.9266 41.0822 40.6376L34.6414 36.9189C34.2394 36.6868 33.7618 36.6239 33.3135 36.7441C32.8652 36.8642 32.4829 37.1574 32.2509 37.5594L40.965 42.5906C41.4674 42.8807 42.0645 42.9593 42.6249 42.8092C43.1852 42.659 43.663 42.2924 43.9531 41.79C44.1216 41.4966 44.2194 41.168 44.2389 40.8302C44.2583 40.4925 44.1988 40.1548 44.0651 39.844ZM40.3613 42.7578C40.07 43.2576 39.5927 43.6216 39.0337 43.7704C38.4746 43.9191 37.8795 43.8404 37.3784 43.5514L32.453 40.7076C32.0511 40.4756 31.5734 40.4127 31.1251 40.5328C30.6768 40.6529 30.2946 40.9462 30.0625 41.3481L37.2611 45.5044C37.7635 45.7944 38.3606 45.8731 38.921 45.7229C39.4814 45.5728 39.9592 45.2062 40.2492 44.7038C40.4179 44.4104 40.5159 44.0818 40.5353 43.744C40.5548 43.4062 40.4952 43.0685 40.3613 42.7578ZM37.416 46.109C37.1248 46.6088 36.6474 46.9729 36.0884 47.1216C35.5294 47.2704 34.9342 47.1916 34.4331 46.9026L30.2655 44.4964C29.8636 44.2643 29.3859 44.2014 28.9376 44.3216C28.4893 44.4417 28.1071 44.7349 27.875 45.1369L34.3159 48.8556C34.8183 49.1457 35.4154 49.2243 35.9757 49.0742C36.5361 48.924 37.0139 48.5574 37.304 48.055C37.4727 47.7617 37.5706 47.4331 37.5901 47.0952C37.6095 46.7574 37.5499 46.4197 37.416 46.109Z" fill="#DA9367"/>
<path d="M34.4745 49.4603C34.1833 49.9601 33.7059 50.3241 33.1469 50.4729C32.5879 50.6216 31.9927 50.5429 31.4916 50.2539L25.8085 46.9726C19.9495 43.5899 17.9422 36.0981 21.325 30.2391L23.0496 27.2519C22.384 26.9882 21.6534 26.935 20.9566 27.0996L19.547 27.4409C18.0305 27.8074 16.4441 27.7673 14.948 27.3245L8.375 25.375L4.875 38.5L13.5673 41.9256L31.3752 52.2069C31.8777 52.4969 32.4747 52.5756 33.0351 52.4254C33.5955 52.2753 34.0733 51.9087 34.3634 51.4062C34.5317 51.1128 34.6294 50.7841 34.6487 50.4464C34.668 50.1086 34.6083 49.771 34.4745 49.4603Z" fill="#DA9367"/>
<path d="M26.779 29.3475L25.792 30.1927C24.1112 31.6338 22.1666 32.7348 20.066 33.4346C19.6451 33.5757 19.2937 33.8718 19.0834 34.2627C18.873 34.6536 18.8196 35.11 18.9338 35.539C18.8742 35.762 18.8599 35.9946 18.8917 36.2232C18.9236 36.4518 19.001 36.6717 19.1193 36.8699C19.5208 37.5388 20.1683 38.0238 20.9231 38.221C21.6779 38.4183 22.48 38.3121 23.1574 37.9251L26.7475 35.875L27.4755 36.1664C28.7061 36.6583 30.0429 36.8234 31.3562 36.6459C31.9032 36.5714 32.4264 36.3739 32.8863 36.0684C33.3462 35.7629 33.731 35.3573 34.0118 34.8819C34.1544 34.8031 34.3005 34.7331 34.4397 34.6447L41.5438 38.7459C42.2452 39.1465 43.0299 39.3792 43.8363 39.4257C43.6564 39.1711 43.424 38.9581 43.1547 38.801L26.779 29.3475Z" fill="#DA9367"/>
<path d="M3.125 21.875L11.875 24.5L7.5 42L3.125 41.125V21.875Z" fill="#E9F1F2"/>
<path d="M5.41138 32.2166L5.701 22.6467L3.125 21.875V41.125L7.5 42L8.543 37.8263C6.59 36.6879 5.33962 34.5669 5.41138 32.2166Z" fill="#D0D8DA"/>
<path d="M13.1953 47.2776C12.6928 46.9875 12.3262 46.5097 12.1761 45.9493C12.026 45.3889 12.1046 44.7919 12.3946 44.2894L13.7071 42.0162C13.8497 41.7654 14.0405 41.5453 14.2685 41.3685C14.4965 41.1918 14.7572 41.0619 15.0356 40.9863C15.314 40.9107 15.6046 40.8909 15.8907 40.9281C16.1768 40.9653 16.4527 41.0587 16.7025 41.203C16.9524 41.3472 17.1712 41.5394 17.3464 41.7686C17.5217 41.9978 17.6499 42.2593 17.7236 42.5383C17.7973 42.8172 17.8152 43.1079 17.7761 43.3937C17.737 43.6795 17.6418 43.9548 17.4959 44.2037L16.1834 46.4769C15.8933 46.9794 15.4155 47.346 14.8551 47.4961C14.2947 47.6462 13.6977 47.5676 13.1953 47.2776Z" fill="#F9DBAF"/>
<path d="M16.5468 50.2228C16.0444 49.9327 15.6778 49.4549 15.5277 48.8946C15.3775 48.3342 15.4561 47.7371 15.7462 47.2347L17.9337 43.4459C18.0763 43.1952 18.2671 42.9751 18.4951 42.7983C18.7231 42.6215 18.9838 42.4916 19.2622 42.416C19.5406 42.3405 19.8312 42.3207 20.1173 42.3579C20.4034 42.3951 20.6793 42.4885 20.9291 42.6327C21.1789 42.777 21.3978 42.9692 21.573 43.1984C21.7482 43.4275 21.8764 43.6891 21.9502 43.968C22.0239 44.2469 22.0417 44.5376 22.0027 44.8235C21.9636 45.1093 21.8683 45.3846 21.7224 45.6334L19.5349 49.4222C19.2449 49.9246 18.7671 50.2912 18.2067 50.4413C17.6463 50.5915 17.0492 50.5129 16.5468 50.2228Z" fill="#F9DBAF"/>
<path d="M20.7734 51.6526C20.271 51.3625 19.9044 50.8847 19.7542 50.3243C19.6041 49.7639 19.6827 49.1669 19.9728 48.6644L21.2853 46.3912C21.4278 46.1404 21.6186 45.9203 21.8466 45.7435C22.0746 45.5668 22.3353 45.4369 22.6137 45.3613C22.8921 45.2857 23.1828 45.2659 23.4688 45.3031C23.7549 45.3403 24.0308 45.4337 24.2807 45.578C24.5305 45.7222 24.7493 45.9144 24.9246 46.1436C25.0998 46.3728 25.228 46.6343 25.3017 46.9133C25.3755 47.1922 25.3933 47.4829 25.3542 47.7687C25.3151 48.0545 25.2199 48.3298 25.074 48.5787L23.7615 50.8519C23.4714 51.3544 22.9936 51.721 22.4332 51.8711C21.8729 52.0212 21.2758 51.9426 20.7734 51.6526Z" fill="#F9DBAF"/>
<path d="M24.9999 53.0823C24.4975 52.7922 24.1309 52.3144 23.9808 51.7541C23.8306 51.1937 23.9092 50.5966 24.1993 50.0942L24.6368 49.3364C24.7794 49.0857 24.9702 48.8656 25.1982 48.6888C25.4262 48.5121 25.6869 48.3821 25.9653 48.3066C26.2437 48.231 26.5343 48.2112 26.8204 48.2484C27.1065 48.2856 27.3824 48.379 27.6322 48.5232C27.8821 48.6675 28.1009 48.8597 28.2761 49.0889C28.4514 49.318 28.5795 49.5796 28.6533 49.8585C28.727 50.1374 28.7449 50.4281 28.7058 50.714C28.6667 50.9998 28.5715 51.2751 28.4256 51.5239L27.9881 52.2817C27.698 52.7841 27.2202 53.1507 26.6598 53.3009C26.0994 53.451 25.5024 53.3724 24.9999 53.0823Z" fill="#F9DBAF"/>
<path d="M16.9027 41.3656C16.9018 41.7358 16.817 42.1094 16.6192 42.4533L15.3067 44.7265C15.0166 45.2289 14.5388 45.5955 13.9784 45.7457C13.4181 45.8958 12.821 45.8172 12.3186 45.5271C12.2425 45.4834 12.1777 45.4274 12.1095 45.3766C12.1062 45.7609 12.2049 46.1392 12.3953 46.473C12.5857 46.8069 12.8611 47.0843 13.1936 47.2771C13.696 47.5672 14.2931 47.6458 14.8534 47.4957C15.4138 47.3455 15.8916 46.9789 16.1817 46.4765L17.4942 44.2033C17.7604 43.74 17.8473 43.195 17.7382 42.6719C17.6292 42.1488 17.3319 41.684 16.9027 41.3656ZM21.129 42.7954C21.1281 43.1655 21.0432 43.5391 20.8455 43.883L18.658 47.6718C18.3679 48.1742 17.8901 48.5408 17.3297 48.6909C16.7693 48.8411 16.1722 48.7624 15.6698 48.4724C15.5937 48.4286 15.529 48.3726 15.4607 48.3219C15.4575 48.7062 15.5561 49.0845 15.7465 49.4183C15.937 49.7521 16.2124 50.0295 16.5448 50.2224C17.0472 50.5124 17.6443 50.5911 18.2047 50.4409C18.7651 50.2908 19.2429 49.9242 19.533 49.4218L21.7205 45.633C21.9867 45.1697 22.0735 44.6248 21.9645 44.1017C21.8554 43.5786 21.5581 43.1137 21.129 42.7954ZM24.4802 45.7406C24.4793 46.1108 24.3945 46.4844 24.1967 46.8283L22.8842 49.1015C22.5941 49.6039 22.1163 49.9705 21.5559 50.1207C20.9956 50.2708 20.3985 50.1922 19.8961 49.9021C19.82 49.8584 19.7552 49.8024 19.687 49.7516C19.6838 50.1359 19.7825 50.5142 19.9729 50.848C20.1633 51.1818 20.4387 51.4592 20.7711 51.6521C21.2735 51.9422 21.8706 52.0208 22.4309 51.8707C22.9913 51.7205 23.4691 51.3539 23.7592 50.8515L25.0717 48.5783C25.3379 48.115 25.4248 47.57 25.3157 47.0469C25.2067 46.5238 24.9094 46.059 24.4802 45.7406ZM27.8323 48.6859C27.8315 49.056 27.7466 49.4296 27.5488 49.7735L27.1113 50.5313C26.8212 51.0337 26.3435 51.4003 25.7831 51.5504C25.2227 51.7006 24.6256 51.6219 24.1232 51.3319C24.0471 51.2881 23.9823 51.2321 23.9141 51.1814C23.911 51.5657 24.0096 51.9439 24.2 52.2777C24.3905 52.6115 24.6658 52.889 24.9982 53.0819C25.5006 53.3719 26.0977 53.4506 26.6581 53.3004C27.2185 53.1503 27.6962 52.7837 27.9863 52.2813L28.4238 51.5235C28.6899 51.0602 28.7766 50.5153 28.6675 49.9922C28.5585 49.4692 28.2613 49.0044 27.8323 48.6859Z" fill="#EDB88E"/>
<path d="M34.4437 33.7698L43.1114 38.7739L51.2524 37.625L47.7524 24.5L39.3647 26.8966C36.8403 27.6176 34.1645 27.6176 31.6402 26.8966C30.9446 26.6981 30.2107 26.675 29.5041 26.8294C28.7975 26.9838 28.1401 27.3108 27.5907 27.7812L25.7978 29.3178C24.117 30.7588 22.1723 31.8598 20.0718 32.5596C19.8232 32.6425 19.5964 32.7801 19.4081 32.9623C19.2198 33.1445 19.0748 33.3667 18.9838 33.6124C18.8929 33.8582 18.8582 34.1212 18.8825 34.3821C18.9068 34.643 18.9894 34.8951 19.1242 35.1199C19.5257 35.7888 20.1732 36.2738 20.928 36.471C21.6828 36.6683 22.4849 36.5621 23.1623 36.1751L26.7524 34.125L27.4804 34.4164C28.6093 34.8679 29.8293 35.0448 31.04 34.9324C32.2506 34.82 33.4172 34.4215 34.4437 33.7698Z" fill="#F9DBAF"/>
<path d="M47.7499 24.5L44.0749 25.55L44.2657 26.3147C45.2361 30.1962 41.7571 33.7295 37.8616 32.8195L35.7651 32.3295C34.9574 32.1405 34.1236 32.263 33.3614 32.5911C32.434 32.9902 31.4369 33.2023 30.4273 33.2154C29.4177 33.2284 28.4154 33.0422 27.4779 32.6672C26.9767 32.5762 26.4615 32.5971 25.9693 32.7284C25.4771 32.8597 25.02 33.0981 24.6307 33.4268L24.0409 33.9246C23.1904 34.4102 22.2026 34.6421 21.2304 34.5205C20.1148 34.3805 19.4411 33.9115 19.1138 33.3489C18.956 33.6181 18.8735 33.9248 18.875 34.2369C18.8766 34.549 18.9621 34.8549 19.1226 35.1225C19.5241 35.7914 20.1716 36.2764 20.9264 36.4737C21.6812 36.6709 22.4833 36.5647 23.1607 36.1778L26.7499 34.125L27.4779 34.4164C28.607 34.8679 29.8272 35.0448 31.0379 34.9324C32.2487 34.82 33.4155 34.4215 34.4421 33.7698L43.1098 38.7739L51.2499 37.625L47.7499 24.5Z" fill="#EDB88E"/>
<path d="M53.875 20.125L45.125 22.75L49.5 40.25L53.875 39.375V20.125Z" fill="#48CAE4"/>
<path d="M53.875 35.0875V39.375L49.5 40.25L45.125 22.75L46.9538 22.1988L49.29 31.5438C49.5454 32.5634 50.1365 33.4675 50.9683 34.1104C51.8 34.7532 52.8239 35.0974 53.875 35.0875Z" fill="#00B4D8"/>
<path d="M42.7215 39.5588C43.0252 39.7337 43.2422 40.0164 43.3332 40.3559C43.3999 40.6065 43.3908 40.8713 43.3072 41.1169C43.2236 41.3624 43.0692 41.5777 42.8634 41.7356C42.6576 41.8935 42.4096 41.9869 42.1508 42.0041C41.892 42.0212 41.6339 41.9613 41.409 41.832L32.6949 36.8008C32.5954 36.7424 32.4853 36.7043 32.3709 36.6887C32.2566 36.673 32.1403 36.6802 32.0287 36.7097C31.9172 36.7392 31.8125 36.7904 31.7209 36.8605C31.6292 36.9306 31.5523 37.0182 31.4946 37.1181C31.4369 37.218 31.3996 37.3284 31.3847 37.4428C31.3698 37.5573 31.3777 37.6735 31.408 37.7849C31.4382 37.8962 31.4902 38.0005 31.5609 38.0917C31.6316 38.1829 31.7196 38.2592 31.8199 38.3163L39.0185 42.4725L39.0212 42.4734C39.3097 42.6541 39.5167 42.9399 39.5987 43.2703C39.6806 43.6008 39.631 43.9502 39.4603 44.2448C39.2896 44.5394 39.0112 44.7562 38.6838 44.8495C38.3564 44.9428 38.0055 44.9053 37.7052 44.7449L30.5065 40.5886C30.3057 40.4744 30.0678 40.4443 29.8448 40.5048C29.6218 40.5654 29.4318 40.7117 29.3163 40.9118C29.2008 41.1119 29.1691 41.3495 29.2281 41.5729C29.2872 41.7963 29.4322 41.9873 29.6315 42.1041L36.0715 45.8229L36.0733 45.8237C36.376 45.9996 36.593 46.2814 36.684 46.62C36.775 46.9586 36.7287 47.3121 36.5528 47.6157C36.3778 47.9194 36.0952 48.1364 35.7557 48.2274C35.5893 48.2726 35.4156 48.2844 35.2447 48.262C35.0738 48.2396 34.909 48.1835 34.7599 48.097L28.319 44.3783C28.2195 44.3199 28.1094 44.2818 27.995 44.2662C27.8807 44.2505 27.7644 44.2577 27.6529 44.2872C27.5413 44.3167 27.4367 44.3679 27.345 44.438C27.2533 44.5081 27.1764 44.5957 27.1187 44.6956C27.061 44.7955 27.0237 44.9059 27.0088 45.0203C26.9939 45.1348 27.0018 45.251 27.0321 45.3624C27.0623 45.4737 27.1143 45.578 27.185 45.6692C27.2557 45.7604 27.3437 45.8367 27.444 45.8938L33.1272 49.175C33.7537 49.5364 33.9689 50.3414 33.6075 50.9679C33.2462 51.5944 32.4412 51.8105 31.8147 51.4482L29.5729 50.1541C29.5298 49.6656 29.3698 49.1946 29.1065 48.7809C28.8432 48.3671 28.4843 48.0227 28.06 47.7768C27.5066 47.4588 26.8669 47.3237 26.2322 47.3909C26.2272 47.155 26.1952 46.9204 26.1368 46.6917C25.9513 45.9899 25.5208 45.3776 24.9232 44.9655C24.3256 44.5533 23.6002 44.3686 22.8783 44.4448C22.845 43.421 22.3087 42.4357 21.3584 41.8871C20.4082 41.3385 19.2873 41.3674 18.3834 41.8504C18.0872 41.188 17.5644 40.6531 16.909 40.3418C16.2537 40.0305 15.5087 39.9632 14.8082 40.152C14.2964 40.2926 13.8303 40.5647 13.4563 40.9413L9.09791 39.2236L10.084 35.2739C10.1402 35.0488 10.1046 34.8106 9.98517 34.6117C9.86571 34.4128 9.67214 34.2695 9.44704 34.2134C9.22193 34.1572 8.98374 34.1928 8.78486 34.3122C8.58598 34.4317 8.4427 34.6253 8.38654 34.8504L6.85616 40.9798L3.29929 40.2675C3.18649 40.2446 3.07027 40.2441 2.95729 40.2662C2.84432 40.2883 2.73681 40.3324 2.64092 40.3961C2.54503 40.4598 2.46265 40.5417 2.3985 40.6373C2.33434 40.7329 2.28968 40.8402 2.26706 40.953C2.24444 41.0659 2.24431 41.1821 2.26668 41.295C2.28906 41.4079 2.33349 41.5153 2.39743 41.611C2.46137 41.7068 2.54358 41.7889 2.63932 41.8528C2.73507 41.9167 2.84249 41.9611 2.95541 41.9834L7.33041 42.8584C7.55112 42.9026 7.78038 42.8601 7.97056 42.7397C8.16073 42.6193 8.29718 42.4302 8.35154 42.2118L8.67004 40.9351L12.4579 42.427L11.6354 43.8506C11.4335 44.1986 11.3025 44.5831 11.25 44.982C11.1974 45.3809 11.2243 45.7862 11.3292 46.1746C11.4322 46.5636 11.6114 46.9282 11.8564 47.2474C12.1013 47.5665 12.4072 47.8339 12.7563 48.034C13.2375 48.3114 13.7634 48.4435 14.2823 48.4435C14.3838 48.4435 14.4844 48.4339 14.585 48.4243C14.5929 48.657 14.6192 48.8898 14.6804 49.1199C14.7834 49.5088 14.9626 49.8734 15.2076 50.1926C15.4526 50.5118 15.7585 50.7792 16.1075 50.9793C16.5586 51.2406 17.0692 51.3817 17.5904 51.3891C18.1117 51.3965 18.6261 51.2698 19.0843 51.0213C19.3234 51.5573 19.7129 52.0124 20.2056 52.3314C20.6982 52.6504 21.2729 52.8196 21.8598 52.8185C22.3664 52.8185 22.8643 52.6899 23.3105 52.451C23.6082 53.1115 24.1312 53.6445 24.786 53.9545C25.4407 54.2646 26.1845 54.3315 26.884 54.1432C27.273 54.0402 27.6376 53.861 27.9568 53.6161C28.2759 53.3711 28.5433 53.0652 28.7434 52.7161L29.1809 51.9584L29.1853 51.9496L30.9397 52.962C31.4267 53.2422 31.9813 53.3831 32.543 53.3693C33.1046 53.3555 33.6517 53.1875 34.1244 52.8838C34.597 52.58 34.9771 52.1522 35.2229 51.647C35.4688 51.1418 35.5711 50.5788 35.5185 50.0194C35.7487 50.0115 35.9805 49.9765 36.2089 49.9153C36.5978 49.8122 36.9625 49.633 37.2816 49.3881C37.6008 49.1431 37.8682 48.8372 38.0683 48.4881C38.399 47.915 38.5233 47.2789 38.4638 46.6655C38.9837 46.648 39.4906 46.4985 39.9368 46.2311C40.383 45.9637 40.7539 45.5871 41.0144 45.1369C41.2701 44.6952 41.4107 44.1963 41.423 43.6861C41.9357 43.7954 42.4679 43.7713 42.9687 43.6162C43.4694 43.4612 43.922 43.1802 44.2832 42.8003C44.6444 42.4204 44.9022 41.9542 45.0318 41.4463C45.1614 40.9384 45.1586 40.4057 45.0237 39.8991C44.9762 39.731 44.9147 39.5671 44.8399 39.4091L48.2725 38.9288L48.6549 40.4583C48.7081 40.6771 48.844 40.867 49.034 40.988C49.224 41.109 49.4534 41.1518 49.6743 41.1075L54.0493 40.2325C54.2768 40.1869 54.4769 40.0528 54.6056 39.8596C54.7342 39.6665 54.7809 39.4302 54.7353 39.2026C54.6897 38.9751 54.5556 38.775 54.3624 38.6463C54.1693 38.5177 53.933 38.471 53.7054 38.5166L50.1485 39.228L46.1787 23.3476L54.128 20.9624C54.3504 20.8958 54.5371 20.7436 54.6472 20.5393C54.7573 20.335 54.7818 20.0953 54.7152 19.873C54.6486 19.6507 54.4964 19.4639 54.2921 19.3538C54.0878 19.2437 53.8481 19.2193 53.6258 19.2859L48.276 20.8906C47.9221 19.9562 47.3074 19.143 46.5048 18.5477C45.7023 17.9523 44.7457 17.6 43.7488 17.5324C44.6354 16.5697 45.1277 15.3088 45.1278 14C45.1278 13.7679 45.0356 13.5454 44.8715 13.3813C44.7074 13.2172 44.4849 13.125 44.2528 13.125C44.0207 13.125 43.7982 13.2172 43.6341 13.3813C43.47 13.5454 43.3778 13.7679 43.3778 14C43.3778 15.9303 41.808 17.5 39.8778 17.5C37.9475 17.5 36.3778 15.9303 36.3778 14V10.8981C37.0277 10.3307 37.8248 9.95864 38.677 9.82473C39.5293 9.69081 40.4021 9.80054 41.1947 10.1413L43.908 11.3041C44.0411 11.3619 44.1864 11.3856 44.3309 11.373C44.4754 11.3604 44.6145 11.3121 44.7356 11.2322C44.8567 11.1524 44.9559 11.0436 45.0244 10.9158C45.0929 10.7879 45.1284 10.645 45.1278 10.5V9.82538C45.1264 8.61234 44.6439 7.44938 43.7862 6.59163C42.9284 5.73388 41.7654 5.25139 40.5524 5.25C40.2173 5.25 39.8892 5.187 39.5777 5.06187L35.8283 3.56213C35.6245 3.48055 35.3975 3.47854 35.1923 3.5565C34.9871 3.63446 34.8187 3.78669 34.7205 3.983L34.381 4.66113C33.9092 5.61176 33.6845 6.66594 33.7277 7.72634C33.7708 8.78674 34.0803 9.81919 34.6278 10.7284V14C34.6278 15.3624 35.1537 16.6014 36.0077 17.535C35.7312 17.556 35.4547 17.5962 35.179 17.6636C34.7278 17.1161 34.1701 16.6658 33.5398 16.34C32.9095 16.0142 32.2196 15.8198 31.5119 15.7684C32.3905 14.8072 32.8777 13.5522 32.8778 12.25V7.875C32.8778 5.46263 30.9152 3.5 28.5028 3.5H23.2528C23.0207 3.5 22.7982 3.59219 22.6341 3.75628C22.47 3.92038 22.3778 4.14294 22.3778 4.375V7.875C22.3778 8.10706 22.47 8.32962 22.6341 8.49372C22.7982 8.65781 23.0207 8.75 23.2528 8.75H31.1278V12.25C31.1278 14.1803 29.558 15.75 27.6278 15.75C25.6975 15.75 24.1278 14.1803 24.1278 12.25V11.375C24.1278 11.1429 24.0356 10.9204 23.8715 10.7563C23.7074 10.5922 23.4849 10.5 23.2528 10.5C23.0207 10.5 22.7982 10.5922 22.6341 10.7563C22.47 10.9204 22.3778 11.1429 22.3778 11.375V12.25C22.3778 13.6045 22.8975 14.8374 23.7437 15.7692C22.991 15.8248 22.2592 16.0423 21.5983 16.4069C20.9375 16.7714 20.3631 17.2745 19.9147 17.8815C19.4246 17.686 18.9077 17.5663 18.3817 17.5263C19.2633 16.5635 19.7524 15.3055 19.7528 14V9.625C19.7528 7.21263 17.7902 5.25 15.3778 5.25H13.6278C11.2154 5.25 9.25279 7.21263 9.25279 9.625V14C9.25279 15.3545 9.77254 16.5874 10.6187 17.5192C9.46567 17.605 8.37317 18.0687 7.51052 18.8385C6.64786 19.6083 6.06324 20.6412 5.84729 21.777L3.37979 21.0367C3.26971 21.0038 3.15421 20.9928 3.03989 21.0045C2.92557 21.0161 2.81466 21.0502 2.7135 21.1047C2.61234 21.1592 2.52292 21.2331 2.45032 21.3222C2.37773 21.4113 2.32339 21.5138 2.29041 21.6239C2.25743 21.734 2.24646 21.8495 2.25812 21.9638C2.26978 22.0781 2.30384 22.189 2.35836 22.2902C2.41288 22.3913 2.48679 22.4807 2.57587 22.5533C2.66495 22.6259 2.76746 22.6803 2.87754 22.7132L10.8269 25.0985L9.23529 31.4449C9.20644 31.5566 9.19999 31.673 9.21631 31.7873C9.23263 31.9016 9.2714 32.0115 9.33039 32.1107C9.38938 32.2099 9.46742 32.2965 9.56001 32.3654C9.6526 32.4344 9.75792 32.4843 9.86989 32.5123C9.98186 32.5404 10.0983 32.546 10.2124 32.5289C10.3266 32.5117 10.4362 32.4722 10.535 32.4125C10.6338 32.3528 10.7198 32.2741 10.7881 32.181C10.8564 32.088 10.9055 31.9823 10.9328 31.8701L12.058 27.3787L14.7014 28.1628C16.3429 28.6484 18.0903 28.693 19.7545 28.2905L21.1633 27.9492C21.8185 27.7886 22.5104 27.8883 23.0935 28.2275L24.6344 29.1174C23.1824 30.2574 21.5462 31.1407 19.7965 31.7293C19.4231 31.8536 19.0824 32.0603 18.7995 32.334C18.5166 32.6077 18.2988 32.9414 18.1621 33.3105C18.0255 33.6797 17.9735 34.0748 18.01 34.4667C18.0464 34.8586 18.1705 35.2373 18.3729 35.5749C18.8905 36.4428 19.729 37.0719 20.707 37.3261C21.685 37.5803 22.7238 37.439 23.5984 36.9329L26.8202 35.0936L27.1527 35.2257C28.3263 35.6938 29.589 35.8964 30.8502 35.8191C32.1113 35.7418 33.3398 35.3865 34.4475 34.7786L36.8223 36.1506C37.0228 36.2612 37.2587 36.2888 37.4793 36.2275C37.6999 36.1661 37.8877 36.0207 38.0024 35.8225C38.117 35.6242 38.1494 35.389 38.0925 35.1671C38.0356 34.9453 37.894 34.7546 37.6982 34.636L34.8807 33.0085C34.7423 32.9285 34.5847 32.8879 34.4248 32.8911C34.265 32.8944 34.1092 32.9413 33.9742 33.0269C33.0639 33.6038 32.0297 33.9566 30.9566 34.0562C29.8834 34.1558 28.802 33.9995 27.801 33.6L27.0748 33.3113C26.9527 33.263 26.8213 33.2427 26.6903 33.2519C26.5593 33.2612 26.432 33.2997 26.3179 33.3646L22.7295 35.4121C22.2513 35.6889 21.6834 35.7664 21.1485 35.6279C20.6136 35.4894 20.1547 35.146 19.8709 34.6719C19.8028 34.5605 19.761 34.4351 19.7487 34.3051C19.7365 34.1752 19.754 34.0441 19.8 33.922C19.8928 33.6691 20.0949 33.4749 20.3513 33.3883C22.5578 32.6535 24.6007 31.4975 26.3669 29.9845L28.1607 28.4445C28.6002 28.0674 29.1266 27.8054 29.6925 27.6822C30.2583 27.5589 30.846 27.5782 31.4025 27.7384C34.0835 28.5014 36.9177 28.5031 39.6004 27.7384L45.0805 26.1756L47.8429 37.2251L43.2894 37.863L40.7239 36.386C40.6243 36.3287 40.5143 36.2915 40.4004 36.2767C40.2864 36.2618 40.1706 36.2696 40.0596 36.2995C39.9486 36.3294 39.8446 36.3808 39.7535 36.4509C39.6624 36.521 39.586 36.6084 39.5287 36.708C39.4713 36.8076 39.4342 36.9176 39.4193 37.0316C39.4045 37.1455 39.4122 37.2613 39.4421 37.3723C39.472 37.4833 39.5235 37.5873 39.5936 37.6784C39.6637 37.7695 39.751 37.8459 39.8507 37.9033L42.7215 39.5588ZM13.6322 46.5194C13.3312 46.3448 13.1117 46.0582 13.0217 45.7221C12.9317 45.3861 12.9785 45.0281 13.1518 44.7265L14.4643 42.4533C14.6387 42.1522 14.9253 41.9325 15.2614 41.8425C15.5975 41.7524 15.9556 41.7993 16.2572 41.9729C16.8837 42.3343 17.0989 43.1384 16.7375 43.7649L15.4242 46.0399C15.25 46.3409 14.9634 46.5605 14.6274 46.6504C14.2914 46.7404 13.9334 46.6932 13.6322 46.5194ZM18.6905 43.8821C18.8649 43.581 19.1516 43.3614 19.4877 43.2713C19.8238 43.1813 20.1818 43.2282 20.4834 43.4018C21.1099 43.764 21.3252 44.5681 20.9638 45.1946L18.7763 48.9834C18.6461 49.2076 18.4525 49.3882 18.2199 49.5025C17.9872 49.6169 17.7259 49.6598 17.4689 49.626C17.2119 49.5921 16.9707 49.4829 16.7756 49.3122C16.5805 49.1415 16.4403 48.9169 16.3727 48.6666C16.3274 48.5002 16.3157 48.3265 16.3382 48.1556C16.3607 47.9846 16.4171 47.8198 16.5039 47.6709L18.6905 43.8821ZM23.0025 50.414C22.8273 50.713 22.5408 50.9305 22.2057 51.0191C21.8707 51.1077 21.5142 51.0602 21.214 50.8869C20.9138 50.7136 20.6944 50.4286 20.6036 50.0941C20.5128 49.7596 20.558 49.4028 20.7293 49.1015L22.0418 46.8283C22.2162 46.5272 22.5028 46.3075 22.8389 46.2175C23.175 46.1274 23.5331 46.1743 23.8347 46.3479C24.4612 46.7101 24.6764 47.5143 24.315 48.1408L23.0025 50.414ZM25.393 49.7735C25.5683 49.4745 25.8548 49.257 26.1898 49.1684C26.5249 49.0798 26.8814 49.1273 27.1816 49.3006C27.4817 49.4739 27.7011 49.7589 27.792 50.0934C27.8828 50.4279 27.8376 50.7847 27.6663 51.086L27.2288 51.8438C27.0546 52.145 26.7679 52.3648 26.4317 52.4549C26.0956 52.545 25.7374 52.4979 25.4359 52.3241C25.1354 52.1504 24.9159 51.8646 24.8255 51.5294C24.7352 51.1942 24.7813 50.8369 24.9538 50.5356L25.393 49.7735ZM41.2892 19.25L40.912 20.3796L39.8778 20.8967L38.8435 20.3796L38.4664 19.25H41.2892ZM35.9254 5.48625L38.9275 6.68763C39.4443 6.89451 39.9958 7.00054 40.5524 7C41.1817 7.00084 41.7928 7.21137 42.2891 7.59834C42.7854 7.9853 43.1386 8.52662 43.2929 9.13675L41.885 8.53388C40.8992 8.10748 39.8211 7.93916 38.7522 8.04479C37.6834 8.15042 36.659 8.52652 35.7758 9.13763C35.5483 8.55142 35.4442 7.9246 35.47 7.29634C35.4957 6.66808 35.6508 6.05188 35.9254 5.48625ZM36.3778 19.25H36.6219L37.2974 21.2765C37.3709 21.4961 37.5284 21.6781 37.7358 21.7822L39.0028 22.4158V26.0855C38.1409 26.3226 37.2615 26.4722 36.3778 26.5317V21C36.3778 20.3962 36.2702 19.8188 36.082 19.2789C36.1809 19.2701 36.2798 19.25 36.3778 19.25ZM24.1278 7V5.25H28.5028C29.6438 5.25 30.6168 5.9815 30.9782 7H24.1278ZM28.5028 17.4212V18.7092L27.6278 19.1467L26.7528 18.7092V17.4212C27.038 17.4694 27.3294 17.5 27.6278 17.5C27.9262 17.5 28.2175 17.4694 28.5028 17.4212ZM15.3778 20.4592L14.5028 20.8967L13.6278 20.4592V19.25H15.3778V20.4592ZM11.0028 14V10.5H18.0028V14C18.0028 15.9303 16.433 17.5 14.5028 17.5C12.5725 17.5 11.0028 15.9303 11.0028 14ZM13.6278 7H15.3778C16.5188 7 17.4918 7.7315 17.8532 8.75H11.1533C11.3347 8.23855 11.6699 7.79578 12.1129 7.48245C12.556 7.16911 13.0851 7.00059 13.6278 7ZM7.54916 22.288C7.77841 20.5782 9.23091 19.25 11.0028 19.25H11.8778V21C11.8778 21.3316 12.065 21.6344 12.3617 21.7831L12.5725 21.8881L12.3818 23.7948C12.3056 23.737 12.2205 23.6921 12.1298 23.6617L7.54916 22.288ZM13.9095 26.1021L14.2508 22.6905C14.3339 22.7159 14.4162 22.75 14.5028 22.75C14.5894 22.75 14.6717 22.7159 14.7548 22.6905L15.1319 26.4644L13.9095 26.1021ZM16.923 26.7794L16.4339 21.8881L16.6448 21.7831C16.9405 21.6344 17.1278 21.3316 17.1278 21V19.25H18.0028C18.3825 19.25 18.7527 19.3209 19.1123 19.4478C18.9564 19.9504 18.8774 20.4737 18.8778 21V26.67C18.2332 26.7867 17.5766 26.8235 16.923 26.7794ZM20.7538 26.2482L20.6278 26.2789V21C20.6278 19.0697 22.1975 17.5 24.1278 17.5H25.0028V19.25C25.0028 19.5816 25.19 19.8844 25.4867 20.0331L25.6783 20.1285L25.0089 26.1537C24.986 26.3584 25.0362 26.5645 25.1507 26.7356L25.8638 27.8057L23.9703 26.7129C22.9982 26.1488 21.8457 25.9824 20.7538 26.2482ZM27.3452 26.8739L26.7825 26.0304L27.3487 20.9344C27.4405 20.9659 27.5324 21 27.6278 21C27.7232 21 27.815 20.9659 27.9069 20.9344L28.4958 26.2342C28.0898 26.3961 27.7048 26.6105 27.3452 26.8739ZM30.2152 25.8676L29.5773 20.1285L29.7689 20.0331C30.0655 19.8844 30.2528 19.5816 30.2528 19.25V17.5H31.1278C33.058 17.5 34.6278 19.0697 34.6278 21V26.5317C33.6986 26.4706 32.7786 26.3113 31.8829 26.0566C31.3408 25.9044 30.7776 25.8405 30.2152 25.8676ZM40.7528 25.5911V22.4158L42.0189 21.7822C42.2263 21.6781 42.3838 21.4961 42.4573 21.2765L43.1337 19.25H43.3778C44.8093 19.25 46.0535 20.1215 46.5873 21.3981L44.8767 21.9117C44.661 21.9764 44.4785 22.1217 44.3672 22.3174C44.2559 22.5131 44.2243 22.7442 44.279 22.9626L44.6579 24.4781L40.7528 25.5911Z" fill="#323232"/>
</svg>
