<svg width="57" height="56" viewBox="0 0 57 56" fill="none" xmlns="http://www.w3.org/2000/svg">
<path d="M16.2511 24.5V36.3379C15.4958 35.6619 14.561 35.2191 13.5595 35.0628C12.558 34.9065 11.5327 35.0435 10.6074 35.4571C9.68203 35.8708 8.89622 36.5435 8.34482 37.394C7.79341 38.2445 7.5 39.2364 7.5 40.25C7.5 41.2636 7.79341 42.2555 8.34482 43.106C8.89622 43.9565 9.68203 44.6292 10.6074 45.0429C11.5327 45.4565 12.558 45.5935 13.5595 45.4372C14.561 45.2809 15.4958 44.8381 16.2511 44.1621V52.5H24.589C23.913 51.7447 23.4702 50.8099 23.3139 49.8084C23.1576 48.8069 23.2946 47.7816 23.7082 46.8563C24.1219 45.9309 24.7946 45.1451 25.6451 44.5937C26.4956 44.0423 27.4875 43.7489 28.5011 43.7489C29.5147 43.7489 30.5066 44.0423 31.3571 44.5937C32.2076 45.1451 32.8803 45.9309 33.294 46.8563C33.7077 47.7816 33.8446 48.8069 33.6883 49.8084C33.532 50.8099 33.0892 51.7447 32.4132 52.5H40.7511V24.5H16.2511Z" fill="#57C3C1"/>
<path d="M51.6843 47.6875L46.8718 42.875V35C46.8718 34.3038 46.5952 33.6361 46.1029 33.1438C45.6106 32.6516 44.943 32.375 44.2468 32.375H40.7468V35.875L39.4343 34.5625C39.0862 34.2144 38.614 34.0189 38.1218 34.0189C37.6295 34.0189 37.1574 34.2144 36.8093 34.5625C36.4612 34.9106 36.2656 35.3827 36.2656 35.875C36.2656 36.3673 36.4612 36.8394 36.8093 37.1875L39.8718 40.25C38.9435 41.1783 38.422 42.4372 38.422 43.75C38.422 45.0628 38.9435 46.3217 39.8718 47.25L45.9968 53.375L51.6843 47.6875Z" fill="#F7C9A8"/>
<path d="M16.25 28H24.5879C23.9119 28.7553 23.4691 29.6901 23.3128 30.6916C23.1565 31.6931 23.2935 32.7184 23.7071 33.6437C24.1208 34.5691 24.7935 35.3549 25.644 35.9063C26.4945 36.4577 27.4864 36.7511 28.5 36.7511C29.5136 36.7511 30.5055 36.4577 31.356 35.9063C32.2065 35.3549 32.8792 34.5691 33.2929 33.6437C33.7065 32.7184 33.8435 31.6931 33.6872 30.6916C33.5309 29.6901 33.0881 28.7553 32.4121 28H40.75V19.6621C41.5053 20.3381 42.4401 20.7809 43.4416 20.9372C44.4431 21.0935 45.4684 20.9565 46.3937 20.5429C47.3191 20.1292 48.1049 19.4565 48.6563 18.606C49.2077 17.7555 49.5011 16.7636 49.5011 15.75C49.5011 14.7364 49.2077 13.7445 48.6563 12.894C48.1049 12.0435 47.3191 11.3708 46.3937 10.9571C45.4684 10.5435 44.4431 10.4065 43.4416 10.5628C42.4401 10.7191 41.5053 11.1619 40.75 11.8379V3.5H32.4121C33.0881 4.2553 33.5309 5.19012 33.6872 6.1916C33.8435 7.19308 33.7065 8.21839 33.2929 9.14373C32.8792 10.0691 32.2065 10.8549 31.356 11.4063C30.5055 11.9577 29.5136 12.2511 28.5 12.2511C27.4864 12.2511 26.4945 11.9577 25.644 11.4063C24.7935 10.8549 24.1208 10.0691 23.7071 9.14373C23.2935 8.21839 23.1565 7.19308 23.3128 6.1916C23.4691 5.19012 23.9119 4.2553 24.5879 3.5H16.25V28Z" fill="#0093B9"/>
<path d="M5.3125 8.3125L10.125 13.125V21C10.125 21.6962 10.4016 22.3639 10.8938 22.8562C11.3861 23.3484 12.0538 23.625 12.75 23.625H16.25V20.125L18.4375 22.3125C18.7856 22.6606 19.2577 22.8561 19.75 22.8561C20.2423 22.8561 20.7144 22.6606 21.0625 22.3125C21.4106 21.9644 21.6061 21.4923 21.6061 21C21.6061 20.5077 21.4106 20.0356 21.0625 19.6875L17.125 15.75C18.0533 14.8217 18.5747 13.5628 18.5747 12.25C18.5747 10.9372 18.0533 9.67826 17.125 8.75L11 2.625L5.3125 8.3125Z" fill="#F7C9A8"/>
<path d="M47.7515 35C47.7505 34.0721 47.3814 33.1824 46.7253 32.5263C46.0691 31.8701 45.1795 31.501 44.2515 31.5H41.6265V21.2844C42.5601 21.727 43.5905 21.9263 44.6218 21.8637C45.6532 21.8011 46.6519 21.4787 47.5251 20.9263C48.3982 20.374 49.1175 19.6097 49.6159 18.7047C50.1144 17.7996 50.3757 16.7832 50.3757 15.75C50.3757 14.7168 50.1144 13.7004 49.6159 12.7953C49.1175 11.8903 48.3982 11.126 47.5251 10.5737C46.6519 10.0213 45.6532 9.69885 44.6218 9.63625C43.5905 9.57365 42.5601 9.77295 41.6265 10.2156V3.5C41.6265 3.26793 41.5344 3.04537 41.3703 2.88128C41.2062 2.71719 40.9836 2.625 40.7515 2.625H32.4137C32.2447 2.62501 32.0794 2.67392 31.9377 2.76584C31.7959 2.85776 31.6838 2.98874 31.6149 3.14298C31.5459 3.29722 31.5231 3.46812 31.5492 3.63503C31.5753 3.80195 31.6491 3.95775 31.7618 4.08362C32.325 4.71305 32.694 5.49207 32.8243 6.32662C32.9545 7.16118 32.8403 8.01558 32.4956 8.78667C32.1508 9.55777 31.5903 10.2126 30.8815 10.6721C30.1728 11.1316 29.3462 11.3761 28.5015 11.3761C27.6569 11.3761 26.8303 11.1316 26.1216 10.6721C25.4128 10.2126 24.8523 9.55777 24.5075 8.78667C24.1628 8.01558 24.0486 7.16118 24.1788 6.32662C24.309 5.49207 24.678 4.71305 25.2413 4.08362C25.354 3.95775 25.4278 3.80195 25.4539 3.63503C25.48 3.46812 25.4572 3.29722 25.3882 3.14298C25.3193 2.98874 25.2072 2.85776 25.0654 2.76584C24.9237 2.67392 24.7584 2.62501 24.5894 2.625H16.2515C16.0195 2.625 15.7969 2.71719 15.6328 2.88128C15.4687 3.04537 15.3765 3.26793 15.3765 3.5V5.76253L11.6203 2.00626L10.3828 3.24373L16.5078 9.36873C17.2708 10.1335 17.6992 11.1697 17.6992 12.25C17.6992 13.3303 17.2708 14.3665 16.5078 15.1313C16.4266 15.2125 16.3621 15.309 16.3181 15.4151C16.2741 15.5213 16.2515 15.6351 16.2515 15.75C16.2515 15.8649 16.2741 15.9787 16.3181 16.0849C16.3621 16.191 16.4266 16.2875 16.5078 16.3687L20.4453 20.3062C20.5364 20.3973 20.6087 20.5055 20.658 20.6245C20.7073 20.7436 20.7327 20.8712 20.7327 21C20.7327 21.1288 20.7073 21.2564 20.658 21.3755C20.6087 21.4945 20.5364 21.6027 20.4453 21.6938C20.3542 21.7849 20.246 21.8571 20.127 21.9064C20.008 21.9558 19.8804 21.9811 19.7515 21.9811C19.6227 21.9811 19.4951 21.9558 19.3761 21.9064C19.257 21.8571 19.1489 21.7849 19.0578 21.6938L15.1203 17.7563L13.8828 18.9937L15.3765 20.4875V22.75H12.7515C12.2876 22.7494 11.8428 22.5649 11.5147 22.2368C11.1866 21.9088 11.0021 21.464 11.0015 21V13.125C11.0016 13.0101 10.9789 12.8963 10.935 12.7901C10.891 12.684 10.8265 12.5875 10.7453 12.5063L5.93278 7.69376L4.69531 8.93123L9.25155 13.4874V21C9.25259 21.9279 9.62167 22.8176 10.2778 23.4737C10.934 24.1299 11.8236 24.499 12.7515 24.5H15.3765V34.7156C14.443 34.273 13.4126 34.0736 12.3813 34.1362C11.3499 34.1989 10.3512 34.5213 9.47803 35.0737C8.60485 35.626 7.88558 36.3903 7.38716 37.2953C6.88874 38.2004 6.62737 39.2168 6.62737 40.25C6.62737 41.2832 6.88874 42.2996 7.38716 43.2047C7.88558 44.1097 8.60485 44.874 9.47803 45.4263C10.3512 45.9787 11.3499 46.3011 12.3813 46.3637C13.4126 46.4263 14.443 46.227 15.3765 45.7844V52.5C15.3765 52.7321 15.4687 52.9546 15.6328 53.1187C15.7969 53.2828 16.0195 53.375 16.2515 53.375H24.5894C24.7584 53.375 24.9237 53.3261 25.0654 53.2341C25.2072 53.1422 25.3193 53.0112 25.3882 52.857C25.4572 52.7028 25.48 52.5319 25.4539 52.365C25.4278 52.198 25.354 52.0422 25.2413 51.9164C24.678 51.2869 24.309 50.5079 24.1788 49.6734C24.0486 48.8388 24.1628 47.9844 24.5075 47.2133C24.8523 46.4422 25.4128 45.7874 26.1216 45.3279C26.8303 44.8684 27.6569 44.6239 28.5015 44.6239C29.3462 44.6239 30.1728 44.8684 30.8815 45.3279C31.5903 45.7874 32.1508 46.4422 32.4956 47.2133C32.8403 47.9844 32.9545 48.8388 32.8243 49.6734C32.694 50.5079 32.325 51.2869 31.7618 51.9164C31.6491 52.0422 31.5753 52.198 31.5492 52.365C31.5231 52.5319 31.5459 52.7028 31.6149 52.857C31.6838 53.0112 31.7959 53.1422 31.9377 53.2341C32.0794 53.3261 32.2447 53.375 32.4137 53.375H40.7515C40.9836 53.375 41.2062 53.2828 41.3703 53.1187C41.5344 52.9546 41.6265 52.7321 41.6265 52.5V50.2375L45.3828 53.9937L46.6203 52.7563L40.4953 46.6313C40.1169 46.2529 39.8167 45.8037 39.612 45.3093C39.4072 44.815 39.3018 44.2851 39.3018 43.75C39.3018 43.2149 39.4072 42.685 39.612 42.1907C39.8167 41.6963 40.1169 41.2471 40.4953 40.8687C40.5765 40.7875 40.641 40.691 40.685 40.5849C40.7289 40.4787 40.7516 40.3649 40.7516 40.25C40.7516 40.1351 40.7289 40.0213 40.685 39.9151C40.641 39.809 40.5765 39.7125 40.4953 39.6313L37.4328 36.5688C37.2488 36.3848 37.1454 36.1352 37.1454 35.875C37.1454 35.6148 37.2488 35.3652 37.4328 35.1812C37.6168 34.9972 37.8663 34.8939 38.1265 34.8939C38.3868 34.8939 38.6363 34.9972 38.8203 35.1812L41.8828 38.2437L43.1203 37.0063L41.6265 35.5125V33.25H44.2515C44.7155 33.2505 45.1603 33.4351 45.4884 33.7632C45.8164 34.0912 46.001 34.536 46.0015 35V42.875C46.0015 42.9899 46.0242 43.1037 46.0681 43.2099C46.1121 43.316 46.1766 43.4125 46.2578 43.4937L51.0703 48.3062L52.3078 47.0688L47.7515 42.5126V35ZM17.8203 22.9312C18.3333 23.4398 19.0268 23.7244 19.7491 23.7229C20.4714 23.7213 21.1637 23.4337 21.6745 22.9229C22.1852 22.4122 22.4729 21.7199 22.4744 20.9976C22.476 20.2752 22.1913 19.5817 21.6828 19.0688L18.3176 15.7036C19.1418 14.5809 19.5371 13.2004 19.4321 11.8116C19.3271 10.4228 18.7288 9.11737 17.7453 8.13126L17.1265 7.51253V4.375H22.9672C22.5245 5.30858 22.3252 6.33897 22.3878 7.37029C22.4504 8.40161 22.7729 9.40033 23.3252 10.2735C23.8776 11.1467 24.6418 11.866 25.5469 12.3644C26.4519 12.8628 27.4683 13.1242 28.5015 13.1242C29.5348 13.1242 30.5512 12.8628 31.4562 12.3644C32.3613 11.866 33.1255 11.1467 33.6779 10.2735C34.2302 9.40033 34.5527 8.40161 34.6153 7.37029C34.6779 6.33897 34.4786 5.30858 34.0359 4.375H39.8765V11.8379C39.8766 12.0068 39.9255 12.1721 40.0174 12.3139C40.1093 12.4556 40.2403 12.5677 40.3945 12.6367C40.5488 12.7056 40.7197 12.7284 40.8866 12.7023C41.0535 12.6763 41.2093 12.6024 41.3352 12.4897C41.9646 11.9265 42.7436 11.5575 43.5782 11.4273C44.4127 11.2971 45.2671 11.4112 46.0382 11.756C46.8093 12.1007 47.4641 12.6613 47.9236 13.37C48.3831 14.0788 48.6276 14.9053 48.6276 15.75C48.6276 16.5946 48.3831 17.4212 47.9236 18.13C47.4641 18.8387 46.8093 19.3993 46.0382 19.744C45.2671 20.0888 44.4127 20.2029 43.5782 20.0727C42.7436 19.9425 41.9646 19.5735 41.3352 19.0102C41.2093 18.8976 41.0535 18.8237 40.8866 18.7977C40.7197 18.7716 40.5488 18.7944 40.3945 18.8633C40.2403 18.9323 40.1093 19.0444 40.0174 19.1861C39.9255 19.3279 39.8766 19.4932 39.8765 19.6621V27.125H32.4137C32.2447 27.125 32.0794 27.1739 31.9377 27.2658C31.7959 27.3578 31.6838 27.4887 31.6149 27.643C31.5459 27.7972 31.5231 27.9681 31.5492 28.135C31.5753 28.302 31.6491 28.4578 31.7618 28.5836C32.325 29.2131 32.694 29.9921 32.8243 30.8266C32.9545 31.6612 32.8403 32.5156 32.4956 33.2867C32.1508 34.0578 31.5903 34.7126 30.8815 35.1721C30.1728 35.6315 29.3462 35.8761 28.5015 35.8761C27.6569 35.8761 26.8303 35.6315 26.1216 35.1721C25.4128 34.7126 24.8523 34.0578 24.5075 33.2867C24.1628 32.5156 24.0486 31.6612 24.1788 30.8266C24.309 29.9921 24.678 29.2131 25.2413 28.5836C25.354 28.4578 25.4278 28.302 25.4539 28.135C25.48 27.9681 25.4572 27.7972 25.3882 27.643C25.3193 27.4887 25.2072 27.3578 25.0654 27.2658C24.9237 27.1739 24.7584 27.125 24.5894 27.125H17.1265V22.2375L17.8203 22.9312ZM38.1265 33.1438C37.5864 33.1438 37.0583 33.304 36.6092 33.6041C36.1601 33.9042 35.81 34.3308 35.6033 34.8298C35.3966 35.3289 35.3425 35.878 35.4479 36.4078C35.5532 36.9376 35.8134 37.4243 36.1953 37.8062L38.6849 40.2958C37.8594 41.4182 37.4633 42.7991 37.5684 44.1884C37.6735 45.5777 38.2728 46.8833 39.2578 47.8687L39.8765 48.4875V51.625H34.0359C34.4786 50.6914 34.6779 49.661 34.6153 48.6297C34.5527 47.5984 34.2302 46.5997 33.6779 45.7265C33.1255 44.8533 32.3613 44.134 31.4562 43.6356C30.5512 43.1372 29.5348 42.8758 28.5015 42.8758C27.4683 42.8758 26.4519 43.1372 25.5469 43.6356C24.6418 44.134 23.8776 44.8533 23.3252 45.7265C22.7729 46.5997 22.4504 47.5984 22.3878 48.6297C22.3252 49.661 22.5245 50.6914 22.9672 51.625H17.1265V44.1621C17.1265 43.9932 17.0776 43.8279 16.9857 43.6861C16.8938 43.5444 16.7628 43.4323 16.6086 43.3633C16.4543 43.2944 16.2834 43.2716 16.1165 43.2977C15.9496 43.3237 15.7938 43.3976 15.6679 43.5103C15.0385 44.0735 14.2595 44.4425 13.4249 44.5727C12.5904 44.7029 11.736 44.5888 10.9649 44.244C10.1938 43.8993 9.53896 43.3387 9.07948 42.63C8.61999 41.9212 8.37549 41.0946 8.37549 40.25C8.37549 39.4053 8.61999 38.5788 9.07948 37.87C9.53896 37.1613 10.1938 36.6007 10.9649 36.256C11.736 35.9112 12.5904 35.7971 13.4249 35.9273C14.2595 36.0575 15.0385 36.4265 15.6679 36.9897C15.7938 37.1024 15.9496 37.1763 16.1165 37.2023C16.2834 37.2284 16.4543 37.2056 16.6086 37.1367C16.7628 37.0677 16.8938 36.9556 16.9857 36.8139C17.0776 36.6721 17.1265 36.5068 17.1265 36.3379V28.875H22.9672C22.5245 29.8086 22.3252 30.839 22.3878 31.8703C22.4504 32.9016 22.7729 33.9003 23.3252 34.7735C23.8776 35.6467 24.6418 36.366 25.5469 36.8644C26.4519 37.3628 27.4683 37.6242 28.5015 37.6242C29.5348 37.6242 30.5512 37.3628 31.4562 36.8644C32.3613 36.366 33.1255 35.6467 33.6779 34.7735C34.2302 33.9003 34.5527 32.9016 34.6153 31.8703C34.6779 30.839 34.4786 29.8086 34.0359 28.875H39.8765V33.7785C39.3864 33.367 38.7665 33.1422 38.1265 33.1438Z" fill="black"/>
<path d="M4.87502 40.25C4.86942 38.3899 5.52466 36.5882 6.72391 35.1663C7.92316 33.7443 9.58845 32.7946 11.4229 32.4863C12.0373 32.3854 12.596 32.0697 12.9993 31.5953C13.4026 31.1209 13.6244 30.5187 13.625 29.896V27.125H11.875V29.896C11.8735 30.105 11.7977 30.3067 11.6613 30.4651C11.5249 30.6235 11.3367 30.7283 11.1302 30.7608C9.55274 31.0305 8.06741 31.6892 6.80852 32.6772C5.54962 33.6653 4.55688 34.9516 3.92007 36.4197C3.28327 37.8879 3.02248 39.4917 3.16129 41.086C3.30011 42.6803 3.83415 44.2148 4.71511 45.5508L6.17505 44.5859C5.32478 43.2999 4.87258 41.7917 4.87502 40.25ZM6.97622 45.6053L5.69358 46.7961C6.08518 47.2177 6.51342 47.6037 6.97327 47.9495L8.02502 46.55C7.64811 46.2668 7.29713 45.9507 6.97622 45.6053ZM52.125 15.75C52.1298 16.9735 51.8472 18.1811 51.3001 19.2755C50.753 20.3699 49.9566 21.3205 48.975 22.051L50.0261 23.4502C51.2256 22.5575 52.1988 21.3957 52.8673 20.0583C53.5358 18.7209 53.881 17.2452 53.875 15.75C53.8705 13.5323 53.1024 11.3838 51.6999 9.66599C50.2974 7.94813 48.3461 6.76569 46.1741 6.31758L45.8259 8.03247C47.6027 8.39933 49.199 9.36689 50.3462 10.7724C51.4934 12.178 52.1216 13.9357 52.125 15.75Z" fill="black"/>
</svg>
