<svg width="57" height="56" viewBox="0 0 57 56" fill="none" xmlns="http://www.w3.org/2000/svg">
<path d="M4.02875 37.4937C5.67375 32.8562 9.55875 29.2337 14.4937 28V33.5475C14.4937 36.7238 15.7537 39.76 17.9937 42C20.2344 39.7576 21.4932 36.7175 21.4937 33.5475V28C25.3437 28.5512 28.695 30.905 30.515 34.3438L32.1075 37.3537L33.665 40.3025L26.7437 44.625V54.25H9.24375V44.5725L3.25 40.8275C3.38125 39.6725 3.64375 38.5612 4.02875 37.4937Z" fill="#FF826E"/>
<path d="M21.5 33.25V33.5475C21.4995 36.7175 20.2406 39.7576 18 42C15.76 39.76 14.5 36.7238 14.5 33.5475V33.25H21.5Z" fill="#FFEAA7"/>
<path d="M14.5 28C12.1082 28.597 9.90108 29.7762 8.07524 31.4326C6.2494 33.089 4.86146 35.1712 4.03501 37.4938C3.47411 37.0139 3.02404 36.418 2.71586 35.7473C2.40768 35.0765 2.24874 34.3469 2.25001 33.6088C2.25001 32.55 2.57376 31.5175 3.18626 30.6513L6.17001 26.39C7.03626 25.165 7.50001 23.695 7.50001 22.19C7.50001 21.4025 7.37751 20.6238 7.12376 19.8713L6.30126 17.4125C5.93376 16.31 5.75001 15.155 5.75001 14C5.75001 12.845 5.93376 11.69 6.30126 10.5875L6.48501 10.0538C7.30751 7.5775 8.88251 5.495 10.9038 4.0425C12.925 2.59 15.3925 1.75 18 1.75C23.2238 1.75 27.8613 5.0925 29.515 10.0538L29.6988 10.5875C30.0663 11.69 30.25 12.845 30.25 14C30.25 15.155 30.0663 16.31 29.6988 17.4125L28.8763 19.8713C28.6225 20.6238 28.5 21.4025 28.5 22.19C28.5 23.695 28.9638 25.165 29.83 26.39L32.8138 30.6513C33.5286 31.6638 33.8516 32.9013 33.7229 34.134C33.5942 35.3667 33.0224 36.5108 32.1138 37.3538L30.5213 34.3438C29.6247 32.6496 28.3399 31.1917 26.772 30.0891C25.2041 28.9866 23.3976 28.2707 21.5 28L20.8788 26.1275C22.0467 25.8694 23.0916 25.2206 23.8409 24.2884C24.5902 23.3561 24.9991 22.1961 25 21V15.155C25 14.5513 24.8075 13.9825 24.4663 13.51C24.125 13.0375 23.6438 12.67 23.0663 12.4775C22.0178 12.1305 21.1214 11.4319 20.5288 10.5H13.625C12.1725 10.5 11 11.6725 11 13.125V21C11 23.5113 12.7675 25.6113 15.1213 26.1275L14.5 28Z" fill="#656D78"/>
<path d="M53 29.75H45.125L41.9837 32.8913C41.8104 33.0627 41.5902 33.1792 41.3509 33.226C41.1116 33.2728 40.8638 33.248 40.6386 33.1545C40.4134 33.0611 40.2208 32.9032 40.0849 32.7007C39.9491 32.4982 39.876 32.2601 39.875 32.0163V29.75H35.5C34.5375 29.75 33.75 28.9625 33.75 28V17.5C33.75 16.5375 34.5375 15.75 35.5 15.75H53C53.9625 15.75 54.75 16.5375 54.75 17.5V28C54.75 28.9625 53.9625 29.75 53 29.75Z" fill="#E6E9ED"/>
<path d="M35.465 43.6888L41.625 39.375V38.5C41.625 37.5375 42.4125 36.75 43.375 36.75H44.25L45.2738 35.7263C45.5035 35.4963 45.7763 35.3139 46.0766 35.1894C46.3768 35.0649 46.6987 35.0009 47.0238 35.0009C47.3488 35.0009 47.6707 35.0649 47.9709 35.1894C48.2712 35.3139 48.544 35.4963 48.7738 35.7263C49.0037 35.956 49.1861 36.2288 49.3106 36.5291C49.4351 36.8293 49.4991 37.1512 49.4991 37.4763C49.4991 37.8013 49.4351 38.1232 49.3106 38.4234C49.1861 38.7237 49.0037 38.9965 48.7738 39.2263L39.0788 48.9213C38.4987 49.5018 37.8099 49.9621 37.0516 50.276C36.2934 50.5898 35.4806 50.7509 34.66 50.75C33.5526 50.7495 32.459 50.5055 31.4564 50.0352C30.4539 49.565 29.567 48.88 28.8587 48.0288L26.75 45.5V44.625L33.6712 40.3025L35.465 43.6888ZM9.25 44.5725V54.25H2.25L3.20375 41.4225L3.25625 40.8275L9.25 44.5725ZM21.5 28V33.25H14.5V28L15.1212 26.1275C15.48 26.2063 15.865 26.25 16.25 26.25H19.75C20.135 26.25 20.52 26.2063 20.8787 26.1275L21.5 28Z" fill="#F0D0B4"/>
<path d="M25 15.155V21C24.9986 22.392 24.445 23.7265 23.4608 24.7108C22.4765 25.695 21.142 26.2486 19.75 26.25H16.25C14.858 26.2486 13.5235 25.695 12.5392 24.7108C11.555 23.7265 11.0014 22.392 11 21V13.125C11 11.6725 12.1725 10.5 13.625 10.5H20.5287C21.1214 11.4319 22.0178 12.1305 23.0663 12.4775C23.6438 12.67 24.125 13.0375 24.4662 13.51C24.8075 13.9825 25 14.5512 25 15.155Z" fill="#F0D0B4"/>
<path d="M14.5 16.625C14.9832 16.625 15.375 16.2332 15.375 15.75C15.375 15.2668 14.9832 14.875 14.5 14.875C14.0168 14.875 13.625 15.2668 13.625 15.75C13.625 16.2332 14.0168 16.625 14.5 16.625Z" fill="black"/>
<path d="M21.5 16.625C21.9832 16.625 22.375 16.2332 22.375 15.75C22.375 15.2668 21.9832 14.875 21.5 14.875C21.0168 14.875 20.625 15.2668 20.625 15.75C20.625 16.2332 21.0168 16.625 21.5 16.625Z" fill="black"/>
<path d="M15.375 23.625H18.875C20.8053 23.625 22.375 22.0553 22.375 20.125H20.625C20.625 21.0901 19.8401 21.875 18.875 21.875H15.375V23.625ZM18.6186 12.5064C18.1435 12.0338 17.7669 11.4717 17.5105 10.8526C17.2542 10.2335 17.1231 9.56971 17.125 8.89962V7.875H15.375V8.89962C15.375 10.7292 16.0872 12.4495 17.3814 13.7436L18.6186 12.5064Z" fill="black"/>
<path d="M47.0226 34.125C46.5824 34.1237 46.1464 34.2099 45.7398 34.3784C45.3332 34.5469 44.9641 34.7945 44.6539 35.1068L43.8848 35.875H43.3721C41.9248 35.875 40.7471 37.0528 40.7471 38.5V38.9191L35.7727 42.4008L33.1792 37.5016C34.1083 36.4162 34.6199 35.0349 34.6221 33.6061C34.6221 32.3636 34.2449 31.1684 33.5309 30.1508L30.5411 25.8895C29.7785 24.8061 29.3701 23.5131 29.3721 22.1883C29.3721 21.4926 29.4832 20.8066 29.7037 20.1495L30.5236 17.6873C31.3226 15.2943 31.3226 12.7066 30.5236 10.3136L30.3433 9.77376C29.4818 7.18095 27.825 4.92559 25.6085 3.32811C23.392 1.73063 20.7284 0.872276 17.9962 0.875006C15.2641 0.872653 12.6007 1.73127 10.3843 3.32888C8.16798 4.9265 6.51142 7.18188 5.64994 9.77463L5.47144 10.3128C4.6714 12.7055 4.67109 15.2935 5.47056 17.6864L6.29131 20.1495C6.51094 20.8066 6.62206 21.4926 6.62206 22.1883C6.62387 23.5134 6.21552 24.8066 5.45306 25.8904L2.46319 30.1516C1.75134 31.1628 1.37017 32.3696 1.37206 33.6061C1.37206 35.1636 1.96881 36.6266 3.02231 37.737C2.65082 38.9117 2.4168 40.1256 2.32494 41.3543L1.30469 55.125H27.6221V47.9168L28.1856 48.5923C28.9753 49.5427 29.9649 50.3073 31.084 50.8315C32.203 51.3557 33.4239 51.6267 34.6597 51.625C35.5953 51.6275 36.5221 51.4444 37.3864 51.0864C38.2508 50.7283 39.0356 50.2024 39.6953 49.539L49.3912 39.8431C49.7031 39.5329 49.9504 39.1639 50.1188 38.7575C50.2871 38.3511 50.3732 37.9153 50.3721 37.4754C50.3711 36.5872 50.018 35.7357 49.39 35.1076C48.7621 34.4795 47.9107 34.1262 47.0226 34.125ZM3.12206 33.6061C3.12206 32.725 3.38981 31.8771 3.89556 31.1561L6.88544 26.8949C7.85505 25.5171 8.37437 23.873 8.37206 22.1883C8.37247 21.3074 8.23065 20.4322 7.95206 19.5965L7.13131 17.1334C6.79269 16.121 6.62206 15.0666 6.62206 14C6.62206 12.9334 6.79269 11.879 7.13131 10.8658L7.30981 10.3276C8.84631 5.72076 13.1408 2.62501 17.9971 2.62501C22.8533 2.62501 27.1478 5.72076 28.6834 10.3276L28.8637 10.8666C29.2014 11.879 29.3721 12.9334 29.3721 14C29.3721 15.0666 29.2014 16.121 28.8628 17.1343L28.0429 19.5956C27.7637 20.4315 27.6216 21.307 27.6221 22.1883C27.6221 23.8814 28.1366 25.5089 29.1087 26.8949L32.0986 31.1561C32.6043 31.878 32.8721 32.725 32.8721 33.6061C32.8721 34.377 32.6428 35.1129 32.2587 35.7639L31.2901 33.9343C29.4342 30.429 26.0479 27.9729 22.1673 27.2458L21.9836 26.6954C24.2568 25.7994 25.8721 23.5874 25.8721 21V15.1594C25.8727 14.3833 25.6288 13.6268 25.175 12.9973C24.7212 12.3677 24.0806 11.8971 23.3442 11.6524C22.5511 11.3886 21.8613 10.8816 21.3727 10.2036C20.8841 9.52553 20.6214 8.71078 20.6221 7.87501H18.8721C18.8721 10.3451 20.4471 12.53 22.7912 13.3123C23.179 13.4412 23.5163 13.6891 23.7553 14.0207C23.9942 14.3522 24.1225 14.7507 24.1221 15.1594V21C24.1221 23.4124 22.1594 25.375 19.7471 25.375H16.2471C13.8347 25.375 11.8721 23.4124 11.8721 21V13.125C11.8721 12.1599 12.6569 11.375 13.6221 11.375V9.62501C11.6918 9.62501 10.1221 11.1948 10.1221 13.125V21C10.1221 23.5874 11.7373 25.7994 14.0097 26.6963L13.8119 27.2904C11.6181 27.9087 9.58393 28.9944 7.84913 30.4728C6.11434 31.9513 4.71996 33.7876 3.76169 35.8558C3.34241 35.1804 3.12082 34.4011 3.12206 33.6061ZM16.2471 27.125H19.7471C19.9247 27.125 20.1006 27.1136 20.2747 27.0979L20.6221 28.1409V32.375H15.3721V28.1409L15.7194 27.0979C15.8936 27.1136 16.0694 27.125 16.2471 27.125ZM20.5967 34.125C20.4816 36.547 19.5675 38.8627 17.9971 40.7103C16.4268 38.8627 15.5126 36.547 15.3974 34.125H20.5967ZM4.00669 42.3334L8.37206 45.0616V53.375H3.18944L4.00669 42.3334ZM25.8721 53.375H10.1221V37.625H8.37206V42.9975L4.19481 40.3865C4.5837 37.8308 5.66925 35.4317 7.3323 33.4525C8.99535 31.4733 11.1716 29.9906 13.6221 29.1673V33.5501C13.6221 36.9766 14.9556 40.1966 17.3784 42.6186L17.9971 43.2373L18.6157 42.6186C19.8105 41.4307 20.7578 40.0174 21.4026 38.4608C22.0474 36.9041 22.3769 35.235 22.3721 33.5501V29.0701C25.5098 29.8156 28.2214 31.8771 29.7439 34.7524L32.5151 39.9875L27.6221 43.0456V37.625H25.8721V53.375ZM48.1539 38.6068L38.4581 48.3018C37.9603 48.802 37.3684 49.1987 36.7164 49.4687C36.0644 49.7387 35.3654 49.8768 34.6597 49.875C33.6807 49.8762 32.7134 49.6615 31.8268 49.2462C30.9403 48.8309 30.1562 48.2252 29.5304 47.4723L27.6221 45.1833V45.1106L33.3358 41.5389L34.3281 43.4131L32.3707 44.7834L33.3734 46.2175L42.4971 39.8309V38.5C42.4971 38.0179 42.8891 37.625 43.3721 37.625H44.6093L45.8912 36.3431C46.1947 36.0598 46.5964 35.9054 47.0115 35.9126C47.4267 35.9198 47.8228 36.0879 48.1163 36.3816C48.4099 36.6752 48.5779 37.0714 48.5849 37.4866C48.5919 37.9017 48.4374 38.3034 48.1539 38.6068ZM47.7882 18.375H45.1632V27.125H46.9132V23.625H47.7882C48.2712 23.625 48.6632 24.0179 48.6632 24.5V27.125H50.4132V24.5C50.411 23.8521 50.1677 23.2283 49.7307 22.75C50.1507 22.2845 50.4132 21.6746 50.4132 21C50.4132 19.5528 49.2354 18.375 47.7882 18.375ZM46.9132 21.875V20.125H47.7882C48.0135 20.1351 48.2262 20.2317 48.3821 20.3947C48.5379 20.5577 48.6249 20.7745 48.6249 21C48.6249 21.2255 48.5379 21.4424 48.3821 21.6053C48.2262 21.7683 48.0135 21.8649 47.7882 21.875H46.9132Z" fill="black"/>
<path d="M41.625 21.875H39.875V18.375H38.125V27.125H39.875V23.625H41.625V27.125H43.375V18.375H41.625V21.875Z" fill="black"/>
<path d="M53 14.875H35.5C34.0527 14.875 32.875 16.0527 32.875 17.5V28C32.875 29.4473 34.0527 30.625 35.5 30.625H39V32.0127C39.0007 32.5727 39.2235 33.1096 39.6194 33.5056C40.0154 33.9015 40.5523 34.1243 41.1123 34.125C41.6696 34.125 42.2139 33.8993 42.6059 33.5064L45.4873 30.625H53C54.4473 30.625 55.625 29.4473 55.625 28V17.5C55.625 16.0527 54.4473 14.875 53 14.875ZM53.875 28C53.875 28.4821 53.483 28.875 53 28.875H44.7627L41.3678 32.2691C41.1621 32.4765 40.75 32.3085 40.75 32.0127V28.875H35.5C35.017 28.875 34.625 28.4821 34.625 28V17.5C34.625 17.0179 35.017 16.625 35.5 16.625H53C53.483 16.625 53.875 17.0179 53.875 17.5V28Z" fill="black"/>
</svg>
