<svg width="48" height="48" viewBox="0 0 48 48" fill="none" xmlns="http://www.w3.org/2000/svg">
<path d="M43.8731 24.8409L43.8553 24.8428L42.5034 24.9787C42.4528 24.9844 42.4031 24.9872 42.3525 24.99L41.9794 25.0069C41.64 25.0226 41.3117 25.1328 41.0316 25.3251C40.7515 25.5174 40.5306 25.7842 40.3941 26.0953L40.2994 26.3128C40.0791 26.8155 39.7172 27.2431 39.2579 27.5435C38.7985 27.8438 38.2616 28.0039 37.7128 28.004H36.1247C35.7475 28.004 35.3838 27.8636 35.1043 27.6103C34.8248 27.357 34.6495 27.0088 34.6125 26.6334L34.5487 25.9978C34.5216 25.7271 34.4339 25.4661 34.292 25.234C34.1502 25.0019 33.9579 24.8047 33.7294 24.6572C33.4918 24.5034 33.2964 24.2927 33.1612 24.0441C33.0259 23.7955 32.955 23.517 32.955 23.234V22.5965C32.955 22.309 33.0161 22.0247 33.1343 21.7626C33.2524 21.5004 33.4249 21.2664 33.6403 21.0759L36.3534 18.6769C36.6245 18.4375 36.8209 18.1253 36.9195 17.7774C37.0181 17.4295 37.0146 17.0606 36.9094 16.7147C36.8005 16.3545 36.5894 16.0336 36.3016 15.7911C36.0139 15.5486 35.6619 15.3949 35.2884 15.3487L35.0147 15.315C34.4967 15.2516 34.0203 14.9992 33.6769 14.6062C33.4661 14.3647 33.3357 14.0635 33.3038 13.7445C33.2718 13.4255 33.34 13.1044 33.4988 12.8259L35.2828 9.76779L35.2847 9.76592C31.9031 7.60873 27.7678 6.17529 23.7984 6.17529C23.2763 6.17529 22.6969 6.20811 22.1278 6.25779V6.25967L24.6769 9.93654C25.0173 10.4283 25.1927 11.0155 25.1775 11.6134C25.1623 12.2113 24.9575 12.7889 24.5925 13.2628L23.9259 14.13C23.7034 14.4187 23.4092 14.6442 23.0725 14.784C22.7359 14.9238 22.3685 14.9731 22.0069 14.9269L21.2503 14.8303C20.8261 14.7762 20.3954 14.8478 20.0116 15.0363C19.6278 15.2248 19.3077 15.5218 19.0912 15.8906C18.8822 16.2468 18.5732 16.5338 18.2026 16.716C17.8319 16.8981 17.4159 16.9674 17.0062 16.9153L15.2587 16.6931C14.8393 16.6399 14.4132 16.7039 14.028 16.8782C13.6427 17.0525 13.3133 17.3301 13.0763 17.6803C12.8626 17.9962 12.7458 18.3675 12.7399 18.7488C12.7341 19.1301 12.8396 19.5049 13.0434 19.8272L14.1984 21.6515C14.4389 22.0322 14.8147 22.3077 15.2501 22.4223C15.6856 22.537 16.1483 22.4823 16.545 22.2694L17.7338 21.6319C18.5831 21.1762 19.9369 21.2465 20.7638 21.7425H20.7647L26.2603 25.3434L26.895 26.2134C26.9634 26.309 27.0366 26.4028 27.1134 26.4928L28.5572 28.1934C28.6707 28.3273 28.756 28.4828 28.8077 28.6506C28.8594 28.8184 28.8765 28.9949 28.858 29.1695C28.8395 29.3441 28.7858 29.5131 28.7001 29.6663C28.6144 29.8196 28.4985 29.9538 28.3594 30.0609L26.1703 31.7428C25.6819 32.1188 25.3219 32.637 25.14 33.2259L24.4116 35.594C24.3319 35.8515 24.2022 36.0908 24.03 36.2981L23.3203 37.1522C22.8639 37.7022 22.581 38.3753 22.5075 39.0862C22.4769 39.3866 22.3658 39.6732 22.186 39.9158C22.0061 40.1583 21.7642 40.3478 21.4856 40.4644C21.3298 40.5302 21.161 40.5598 20.992 40.5509C20.8231 40.5421 20.6583 40.495 20.5102 40.4132C20.3621 40.3314 20.2344 40.2171 20.1369 40.0788C20.0394 39.9406 19.9745 39.782 19.9472 39.615L19.2787 35.6006C19.2112 35.1918 19.0445 34.8059 18.7931 34.4765L16.3444 31.2628C16.0812 30.9172 15.8865 30.5245 15.7706 30.1059L14.9625 27.1875C14.847 26.7694 14.6247 26.3885 14.3175 26.0823C14.0103 25.7761 13.6288 25.5551 13.2103 25.4409L13.035 25.3931C12.5902 25.2715 12.182 25.0426 11.8463 24.7265L10.3387 23.3062C10.0594 23.0428 9.81969 22.7403 9.62719 22.4081C9.33509 21.9048 8.8932 21.5052 8.36314 21.2651C7.83309 21.0249 7.2413 20.9562 6.67031 21.0684L4.1925 21.8747L4.18875 21.8737C3.84482 23.3369 3.66621 24.8341 3.65625 26.3372C3.65625 37.4728 12.6741 46.5 23.7984 46.5C34.9228 46.5 43.9416 37.4728 43.9416 26.3372C43.9416 25.8769 43.9172 25.3715 43.8731 24.8409Z" fill="#7CE5E9"/>
<path d="M42.5191 18.1931L42.5182 18.1922L39.1844 12.9216L39.1835 12.9206C38.0117 11.7202 36.703 10.6614 35.2844 9.76594L35.2825 9.76781L33.4985 12.8259C33.3397 13.1045 33.2716 13.4255 33.3035 13.7445C33.3354 14.0635 33.4658 14.3647 33.6766 14.6063C34.02 14.9992 34.4964 15.2516 35.0144 15.315L35.2882 15.3488C35.6616 15.395 36.0136 15.5487 36.3014 15.7911C36.5891 16.0336 36.8002 16.3545 36.9091 16.7147C37.0143 17.0606 37.0178 17.4295 36.9192 17.7774C36.8207 18.1253 36.6242 18.4375 36.3532 18.6769L33.64 21.0759C33.4246 21.2664 33.2521 21.5005 33.134 21.7626C33.0158 22.0248 32.9547 22.309 32.9547 22.5966V23.2341C32.9548 23.5171 33.0256 23.7955 33.1609 24.0441C33.2962 24.2927 33.4915 24.5035 33.7291 24.6572C33.9576 24.8048 34.1499 25.0019 34.2918 25.234C34.4336 25.4661 34.5214 25.7272 34.5485 25.9978L34.6122 26.6334C34.6493 27.0088 34.8246 27.357 35.104 27.6103C35.3835 27.8636 35.7472 28.004 36.1244 28.0041H37.7125C38.2614 28.0039 38.7982 27.8438 39.2576 27.5435C39.7169 27.2431 40.0788 26.8155 40.2991 26.3128L40.3938 26.0953C40.5304 25.7842 40.7512 25.5174 41.0313 25.3251C41.3114 25.1328 41.6397 25.0226 41.9791 25.0069L42.3522 24.99C42.4029 24.9872 42.4525 24.9844 42.5032 24.9788L43.855 24.8428L43.8729 24.8409C43.6863 22.6069 43.1397 19.9163 42.5191 18.1931ZM28.5569 28.1934L27.1132 26.4928C27.0363 26.4028 26.9632 26.3091 26.8947 26.2134L26.26 25.3434L20.7644 21.7425H20.7635C19.9366 21.2466 18.5829 21.1763 17.7335 21.6319L16.5447 22.2694C16.148 22.4823 15.6853 22.537 15.2498 22.4223C14.8144 22.3077 14.4386 22.0323 14.1982 21.6516L13.0432 19.8272C12.8393 19.5049 12.7338 19.1302 12.7397 18.7489C12.7455 18.3676 12.8624 17.9962 13.076 17.6803C13.313 17.3301 13.6424 17.0525 14.0277 16.8782C14.413 16.7039 14.839 16.6399 15.2585 16.6931L17.006 16.9153C17.4157 16.9675 17.8317 16.8981 18.2023 16.716C18.573 16.5338 18.882 16.2468 19.091 15.8906C19.3075 15.5219 19.6275 15.2248 20.0113 15.0363C20.3951 14.8478 20.8259 14.7762 21.25 14.8303L22.0066 14.9269C22.3682 14.9731 22.7356 14.9238 23.0723 14.784C23.4089 14.6442 23.7032 14.4188 23.9257 14.13L24.5922 13.2628C24.9572 12.789 25.162 12.2114 25.1772 11.6135C25.1924 11.0155 25.0171 10.4283 24.6766 9.93656L22.1275 6.25969V6.25781C21.6532 6.3 21.1863 6.35438 20.7672 6.41344L20.756 6.40969L15.041 8.12531C13.811 8.73375 12.2116 9.80625 11.141 10.6425L6.29223 16.2609L6.28566 16.2656C5.34012 18.0333 4.63482 19.9194 4.18848 21.8738L4.19223 21.8747L6.67004 21.0684C7.24103 20.9562 7.83282 21.0249 8.36287 21.2651C8.89292 21.5052 9.33481 21.9048 9.62691 22.4081C9.81942 22.7403 10.0591 23.0429 10.3385 23.3063L11.846 24.7266C12.1818 25.0426 12.5899 25.2715 13.0347 25.3931L13.21 25.4409C13.6285 25.5551 14.0101 25.7761 14.3173 26.0823C14.6245 26.3886 14.8467 26.7694 14.9622 27.1875L15.7704 30.1059C15.8862 30.5246 16.081 30.9172 16.3441 31.2628L18.7929 34.4766C19.0442 34.8059 19.211 35.1919 19.2785 35.6006L19.9469 39.615C19.9742 39.782 20.0391 39.9406 20.1366 40.0788C20.2341 40.2171 20.3618 40.3314 20.5099 40.4132C20.658 40.495 20.8228 40.5421 20.9917 40.551C21.1607 40.5598 21.3295 40.5302 21.4854 40.4644C21.7639 40.3479 22.0059 40.1583 22.1857 39.9158C22.3656 39.6732 22.4766 39.3867 22.5072 39.0863C22.5807 38.3753 22.8636 37.7022 23.32 37.1522L24.0297 36.2981C24.202 36.0908 24.3316 35.8516 24.4113 35.5941L25.1397 33.2259C25.3217 32.637 25.6816 32.1189 26.17 31.7428L28.3591 30.0609C28.4982 29.9538 28.6141 29.8196 28.6998 29.6664C28.7855 29.5131 28.8392 29.3441 28.8577 29.1695C28.8762 28.9949 28.8591 28.8184 28.8074 28.6506C28.7557 28.4829 28.6705 28.3273 28.5569 28.1934Z" fill="#B1E862"/>
<path d="M6.46875 26.3372C6.47871 24.8341 6.65732 23.3369 7.00125 21.8737C7.06744 21.5862 7.13931 21.3004 7.21688 21.0161H7.21031C7.02903 21.016 6.84818 21.0336 6.67031 21.0686L4.1925 21.8749L4.18875 21.8739C3.84484 23.3371 3.66622 24.8342 3.65625 26.3372C3.65625 37.4728 12.6741 46.5 23.7984 46.5C24.2713 46.5 24.74 46.4824 25.2047 46.4503C14.7366 45.7275 6.46875 36.9995 6.46875 26.3372Z" fill="#64CCC9"/>
<path d="M6.67004 21.0684C6.8479 21.0334 7.02876 21.0158 7.21004 21.0159H7.2166C7.6597 19.3656 8.29103 17.7717 9.09816 16.2656L9.10473 16.2609L13.9535 10.6425C15.0241 9.80625 16.6235 8.73375 17.8535 8.12531L22.4622 6.74194L22.1275 6.25969V6.25781C21.6532 6.3 21.1863 6.35438 20.7672 6.41344L20.756 6.40969L15.041 8.12531C13.811 8.73375 12.2116 9.80625 11.141 10.6425L6.29223 16.2609L6.28566 16.2656C5.34012 18.0333 4.63482 19.9194 4.18848 21.8738L4.19223 21.8747L6.67004 21.0684Z" fill="#9AC146"/>
<path d="M15.0413 8.12531L14.5313 7.44281C13.994 6.73176 13.7245 5.85412 13.7701 4.96406C13.8891 3.1275 15.3516 1.5 17.3663 1.5C19.381 1.5 20.8435 3.1275 20.9626 4.96406C20.9945 5.45501 20.9243 5.94726 20.7563 6.40969C20.6244 6.78005 20.4373 7.12835 20.2013 7.44281L17.3663 11.235L15.0413 8.12531ZM11.8369 12.5972C11.8876 13.4874 11.6179 14.3664 11.0766 15.075L8.2407 18.8681L6.29257 16.2609L5.4057 15.075C4.86914 14.3639 4.59968 13.4869 4.64445 12.5972C4.76445 10.7606 6.22601 9.13312 8.2407 9.13312C8.81017 9.13158 9.37153 9.2681 9.8767 9.53097C10.3819 9.79384 10.8158 10.1752 11.1413 10.6425C11.5492 11.2173 11.79 11.8939 11.8369 12.5972Z" fill="#D4E1F4"/>
<path d="M17.2479 6.97121C18.286 6.97121 19.1275 6.12923 19.1275 5.09059C19.1275 4.05195 18.286 3.20996 17.2479 3.20996C16.2097 3.20996 15.3682 4.05195 15.3682 5.09059C15.3682 6.12923 16.2097 6.97121 17.2479 6.97121Z" fill="#FF8564"/>
<path d="M8.12285 10.8422C8.49494 10.8419 8.85875 10.952 9.16827 11.1585C9.47779 11.365 9.71911 11.6586 9.86171 12.0023C10.0043 12.346 10.0418 12.7242 9.96941 13.0892C9.89703 13.4542 9.71803 13.7895 9.45506 14.0527C9.19208 14.316 8.85695 14.4953 8.49205 14.568C8.12714 14.6408 7.74886 14.6037 7.40505 14.4614C7.06123 14.3192 6.76733 14.0781 6.56051 13.7688C6.3537 13.4595 6.24326 13.0958 6.24316 12.7237C6.24303 12.4768 6.29154 12.2322 6.38594 12.004C6.48033 11.7757 6.61875 11.5683 6.7933 11.3936C6.96784 11.2189 7.1751 11.0803 7.40322 10.9857C7.63135 10.891 7.87588 10.8423 8.12285 10.8422Z" fill="#FF8564"/>
<path d="M27.9151 21.566C27.9657 22.4562 27.696 23.3352 27.1548 24.0438L24.3188 27.8369L22.3707 25.2298L21.4838 24.0438C20.9473 23.3328 20.6778 22.4557 20.7226 21.566C20.8426 19.7294 22.3041 18.1019 24.3188 18.1019C24.8883 18.1004 25.4497 18.2369 25.9548 18.4998C26.46 18.7627 26.8939 19.1441 27.2194 19.6113C27.6274 20.1861 27.8681 20.8627 27.9151 21.566Z" fill="#D4E1F4"/>
<path d="M24.2488 19.8516C24.621 19.8513 24.9848 19.9614 25.2943 20.1679C25.6039 20.3745 25.8452 20.6682 25.9878 21.0119C26.1304 21.3557 26.1678 21.7339 26.0953 22.0989C26.0229 22.464 25.8438 22.7993 25.5807 23.0625C25.3176 23.3257 24.9824 23.5049 24.6174 23.5776C24.2525 23.6502 23.8742 23.613 23.5304 23.4706C23.1866 23.3282 22.8927 23.087 22.686 22.7775C22.4793 22.4681 22.369 22.1043 22.3691 21.7322C22.369 21.2335 22.567 20.7553 22.9195 20.4026C23.272 20.0499 23.7502 19.8517 24.2488 19.8516Z" fill="#FF8564"/>
<path d="M44.3374 14.5865C44.3775 15.3022 44.1608 16.0087 43.7262 16.5787L42.5187 18.1921L41.4462 19.6265L39.1671 16.5787C38.7638 16.0536 38.5466 15.4092 38.5498 14.7471C38.5531 14.0849 38.7765 13.4427 39.1849 12.9215C39.4494 12.5725 39.7913 12.2897 40.1837 12.0955C40.5761 11.9012 41.0083 11.8008 41.4462 11.8021C43.0662 11.8021 44.2418 13.1109 44.3374 14.5865ZM42.8628 14.6887C42.8628 14.3898 42.7741 14.0976 42.6081 13.8491C42.442 13.6006 42.206 13.4069 41.9298 13.2925C41.6537 13.1781 41.3498 13.1482 41.0567 13.2065C40.7635 13.2648 40.4942 13.4087 40.2829 13.6201C40.0715 13.8314 39.9276 14.1007 39.8693 14.3939C39.811 14.687 39.8409 14.9909 39.9553 15.267C40.0697 15.5432 40.2634 15.7792 40.5119 15.9453C40.7604 16.1113 41.0526 16.2 41.3515 16.2C41.7523 16.1998 42.1366 16.0405 42.42 15.7571C42.7033 15.4738 42.8626 15.0895 42.8628 14.6887Z" fill="#D4E1F4"/>
<path d="M41.3511 13.1765C41.6501 13.1764 41.9424 13.265 42.191 13.431C42.4397 13.5971 42.6335 13.8331 42.748 14.1093C42.8625 14.3855 42.8926 14.6894 42.8343 14.9827C42.7761 15.276 42.6322 15.5454 42.4208 15.7568C42.2095 15.9683 41.9402 16.1124 41.6469 16.1708C41.3537 16.2292 41.0498 16.1994 40.7735 16.0851C40.4972 15.9707 40.2611 15.777 40.0949 15.5285C39.9287 15.2799 39.8399 14.9877 39.8398 14.6887C39.8397 14.2878 39.9989 13.9032 40.2823 13.6196C40.5657 13.3361 40.9502 13.1767 41.3511 13.1765Z" fill="#FF8564"/>
<path d="M41.3513 12.6142C40.9411 12.6141 40.54 12.7357 40.1989 12.9636C39.8578 13.1914 39.5919 13.5153 39.4348 13.8943C39.2778 14.2733 39.2366 14.6904 39.3166 15.0927C39.3966 15.4951 39.5941 15.8647 39.8842 16.1548C40.1742 16.4449 40.5438 16.6425 40.9462 16.7226C41.3485 16.8026 41.7656 16.7616 42.1446 16.6046C42.5236 16.4476 42.8476 16.1818 43.0755 15.8407C43.3034 15.4996 43.4251 15.0985 43.4251 14.6883C43.4245 14.1385 43.2058 13.6113 42.8171 13.2224C42.4283 12.8336 41.9012 12.6149 41.3513 12.6142ZM41.3513 15.6374C41.1636 15.6375 40.98 15.5819 40.8239 15.4777C40.6678 15.3734 40.5461 15.2252 40.4742 15.0518C40.4023 14.8784 40.3834 14.6875 40.42 14.5034C40.4566 14.3192 40.547 14.1501 40.6797 14.0173C40.8124 13.8845 40.9815 13.7941 41.1656 13.7574C41.3498 13.7208 41.5406 13.7396 41.7141 13.8114C41.8875 13.8832 42.0358 14.0049 42.1401 14.161C42.2444 14.3171 42.3001 14.5006 42.3001 14.6883C42.2999 14.9399 42.1999 15.1812 42.022 15.3591C41.8441 15.5371 41.6029 15.6372 41.3513 15.6375V15.6374ZM17.2482 7.53396C17.7315 7.53417 18.204 7.39104 18.6059 7.12269C19.0078 6.85434 19.3212 6.47282 19.5063 6.02638C19.6913 5.57994 19.7399 5.08864 19.6457 4.61462C19.5516 4.14059 19.3189 3.70514 18.9773 3.36333C18.6356 3.02153 18.2003 2.78872 17.7263 2.69436C17.2523 2.6 16.761 2.64833 16.3145 2.83323C15.8679 3.01813 15.4863 3.33129 15.2178 3.73311C14.9492 4.13494 14.8059 4.60737 14.8059 5.09065C14.8065 5.73831 15.0639 6.35928 15.5218 6.81734C15.9797 7.2754 16.6005 7.53312 17.2482 7.53396ZM17.2482 3.77234C17.509 3.77214 17.764 3.84928 17.9809 3.99401C18.1978 4.13875 18.367 4.34457 18.4669 4.58544C18.5668 4.82631 18.5931 5.09141 18.5423 5.34721C18.4916 5.603 18.3661 5.838 18.1818 6.02247C17.9975 6.20695 17.7626 6.33261 17.5068 6.38356C17.251 6.43451 16.9859 6.40846 16.745 6.30871C16.504 6.20896 16.2981 6.03999 16.1532 5.82317C16.0083 5.60636 15.9309 5.35143 15.9309 5.09065C15.9312 4.74127 16.07 4.40625 16.3169 4.1591C16.5639 3.91195 16.8988 3.77286 17.2482 3.77234ZM26.6908 21.7326C26.6906 21.2496 26.5472 20.7775 26.2787 20.376C26.0102 19.9745 25.6287 19.6616 25.1824 19.477C24.7361 19.2923 24.2451 19.244 23.7714 19.3384C23.2977 19.4327 22.8626 19.6654 22.5212 20.007C22.1797 20.3486 21.9472 20.7838 21.8531 21.2575C21.7589 21.7313 21.8074 22.2223 21.9922 22.6685C22.1771 23.1147 22.4902 23.4961 22.8918 23.7644C23.2934 24.0327 23.7655 24.1759 24.2485 24.1759C24.8962 24.175 25.517 23.9173 25.9749 23.4593C26.4327 23.0012 26.6902 22.3802 26.6908 21.7326ZM24.2485 23.0509C23.9877 23.0511 23.7327 22.974 23.5158 22.8292C23.2989 22.6845 23.1298 22.4787 23.0298 22.2378C22.9299 21.9969 22.9036 21.7318 22.9544 21.476C23.0051 21.2202 23.1306 20.9852 23.3149 20.8008C23.4993 20.6163 23.7342 20.4906 23.9899 20.4397C24.2457 20.3887 24.5108 20.4148 24.7517 20.5145C24.9927 20.6143 25.1986 20.7832 25.3435 21.0001C25.4884 21.2169 25.5658 21.4718 25.5658 21.7326C25.5655 22.082 25.4267 22.4171 25.1797 22.6642C24.9327 22.9114 24.5977 23.0504 24.2483 23.0509H24.2485ZM8.12295 15.1667C8.60623 15.1669 9.07872 15.0238 9.48066 14.7554C9.88259 14.4871 10.1959 14.1056 10.381 13.6591C10.5661 13.2127 10.6146 12.7214 10.5205 12.2474C10.4263 11.7733 10.1937 11.3379 9.85202 10.9961C9.51036 10.6543 9.07501 10.4215 8.60102 10.3271C8.12704 10.2328 7.63572 10.2811 7.1892 10.466C6.74268 10.6509 6.36103 10.964 6.09251 11.3659C5.82399 11.7677 5.68066 12.2401 5.68066 12.7234C5.68126 13.371 5.93873 13.992 6.39659 14.4501C6.85444 14.9081 7.4753 15.1658 8.12295 15.1667ZM8.12295 11.4051C8.38373 11.4049 8.63871 11.482 8.85564 11.6268C9.07257 11.7715 9.2417 11.9773 9.34164 12.2182C9.44158 12.4591 9.46783 12.7242 9.41708 12.98C9.36633 13.2358 9.24086 13.4708 9.05653 13.6552C8.8722 13.8397 8.6373 13.9654 8.38155 14.0163C8.12579 14.0673 7.86067 14.0412 7.61972 13.9415C7.37877 13.8417 7.17282 13.6727 7.02791 13.4559C6.88301 13.2391 6.80566 12.9842 6.80566 12.7234C6.80591 12.374 6.94474 12.039 7.1917 11.7919C7.43865 11.5447 7.77356 11.4056 8.12295 11.4051Z" fill="#344D6B"/>
<path d="M44.8988 14.55C44.7781 12.6937 43.2615 11.24 41.4462 11.24C40.6072 11.2417 39.7985 11.5535 39.1755 12.1154C37.3322 10.3148 35.031 8.76375 32.4835 7.61081C29.5949 6.30347 26.5917 5.61244 23.7988 5.61244C23.0283 5.61946 22.2588 5.66721 21.4935 5.7555C21.5318 5.48126 21.542 5.20381 21.5238 4.9275C21.3783 2.69006 19.5521 0.9375 17.3662 0.9375C15.1803 0.9375 13.3537 2.69006 13.2086 4.92656C13.1564 5.95019 13.465 6.95969 14.0805 7.77928L14.1966 7.93463C13.1674 8.51698 12.1758 9.16338 11.2275 9.87C10.8445 9.46126 10.382 9.13512 9.86836 8.91161C9.35473 8.6881 8.80083 8.57193 8.24067 8.57025C6.0547 8.57025 4.22817 10.3234 4.08314 12.5593C4.03106 13.583 4.33959 14.5925 4.95502 15.4121L5.62561 16.3089C4.03655 19.365 3.0938 23.0863 3.0938 26.3375C3.088 29.0602 3.61928 31.7573 4.65721 34.2745C5.69514 36.7916 7.21934 39.0793 9.14255 41.0066C11.0658 42.9339 13.3502 44.463 15.8652 45.5063C18.3801 46.5496 21.0761 47.0866 23.7988 47.0866C26.5215 47.0866 29.2175 46.5496 31.7325 45.5063C34.2474 44.463 36.5319 42.9339 38.4551 41.0066C40.3783 39.0793 41.9025 36.7916 42.9404 34.2745C43.9783 31.7573 44.5096 29.0602 44.5038 26.3375C44.5038 24.0299 43.9161 20.5693 43.1485 18.2894L44.1757 16.916C44.692 16.2392 44.9486 15.3998 44.8988 14.55ZM14.3311 5.00044C14.4249 3.55669 15.586 2.0625 17.3662 2.0625C19.1464 2.0625 20.3072 3.55631 20.4013 5.00194C20.443 5.7584 20.2123 6.50477 19.7509 7.10569L17.3662 10.2955L14.9855 7.11122C14.5276 6.50564 14.2961 5.75886 14.3311 5.00044ZM5.20598 12.6332C5.29973 11.1894 6.46073 9.69525 8.24095 9.69525C10.0212 9.69525 11.1821 11.1891 11.276 12.6348C11.3179 13.3912 11.0871 14.1376 10.6257 14.7384L8.24067 17.9283L5.86027 14.744C5.40235 14.1384 5.17088 13.3916 5.20598 12.6332ZM6.37992 17.3179L7.79067 19.2045C7.84305 19.2746 7.91104 19.3314 7.98925 19.3706C8.06745 19.4098 8.15372 19.4302 8.24119 19.4302C8.32866 19.4302 8.41492 19.4098 8.49313 19.3706C8.57134 19.3314 8.63933 19.2746 8.6917 19.2045L11.5263 15.4125C12.0283 14.7583 12.3297 13.9725 12.3938 13.1504C12.4579 12.3284 12.282 11.5053 11.8875 10.7812C12.8404 10.0706 13.839 9.42354 14.877 8.84437L16.9158 11.5714C16.9682 11.6414 17.0362 11.6983 17.1144 11.7375C17.1926 11.7767 17.2789 11.7971 17.3663 11.7971C17.4538 11.7971 17.5401 11.7767 17.6183 11.7375C17.6965 11.6983 17.7645 11.6414 17.8169 11.5714L20.6517 7.77947C20.8498 7.51545 21.0182 7.23046 21.1541 6.92963C21.3878 6.89972 21.6213 6.87178 21.8516 6.84844L24.2141 10.2568C24.4878 10.65 24.6289 11.1202 24.6168 11.5991C24.6047 12.0779 24.4401 12.5405 24.147 12.9193L23.4796 13.7858C23.3168 13.9965 23.1019 14.161 22.8561 14.2632C22.6103 14.3654 22.3421 14.4017 22.078 14.3686L21.321 14.2718C20.7877 14.2034 20.246 14.2933 19.7633 14.5303C19.2806 14.7673 18.8782 15.1409 18.6061 15.6048C18.4529 15.8661 18.2263 16.0766 17.9545 16.2102C17.6826 16.3438 17.3775 16.3946 17.0771 16.3564L15.3294 16.1342C14.8067 16.0662 14.2753 16.1453 13.7951 16.3626C13.3148 16.5799 12.9047 16.9268 12.6106 17.3643C12.3355 17.7707 12.185 18.2486 12.1774 18.7393C12.1698 19.2301 12.3056 19.7124 12.5681 20.1271L13.7226 21.9519C13.9354 22.2863 14.2292 22.5614 14.5768 22.7518C14.9243 22.9422 15.3144 23.0416 15.7107 23.0409C16.0946 23.0412 16.4726 22.9464 16.8109 22.7648L17.9997 22.1273C18.582 21.8151 19.5278 21.812 20.2095 22.0928C20.2745 22.9353 20.5764 23.7422 21.0803 24.4206L23.9157 28.2137C23.968 28.2837 24.036 28.3406 24.1142 28.3798C24.1925 28.419 24.2787 28.4394 24.3662 28.4394C24.4537 28.4394 24.5399 28.419 24.6181 28.3798C24.6963 28.3406 24.7643 28.2837 24.8167 28.2137L26.2547 26.2901L26.4375 26.5406C26.5155 26.6493 26.5978 26.7547 26.6843 26.8566L28.128 28.557C28.1924 28.6328 28.2407 28.7208 28.27 28.8158C28.2993 28.9108 28.309 29.0108 28.2985 29.1097C28.288 29.2085 28.2576 29.3042 28.209 29.391C28.1605 29.4777 28.0948 29.5537 28.016 29.6143L25.8282 31.2967C25.2459 31.7426 24.8175 32.3594 24.603 33.0608L23.8737 35.4281C23.8164 35.6148 23.7226 35.7883 23.5977 35.9385L22.8881 36.7927C22.3595 37.4279 22.0322 38.2061 21.9481 39.0281C21.9276 39.228 21.8536 39.4187 21.734 39.5801C21.6143 39.7416 21.4534 39.8678 21.2682 39.9457C21.1905 39.9782 21.1065 39.9927 21.0224 39.9881C20.9384 39.9835 20.8564 39.96 20.7828 39.9192C20.7091 39.8785 20.6456 39.8216 20.5971 39.7528C20.5485 39.684 20.5162 39.6052 20.5024 39.5221L19.834 35.5078C19.7505 35.009 19.5469 34.5379 19.2407 34.1353L16.7919 30.9215C16.5719 30.6332 16.4092 30.3054 16.3126 29.9558L15.5044 27.0375C15.3615 26.5262 15.0888 26.0605 14.7128 25.6857C14.3368 25.3109 13.8702 25.0398 13.3584 24.8986L13.1827 24.8507C12.8272 24.7533 12.5009 24.5703 12.2325 24.3177L10.725 22.897C10.4849 22.6709 10.2789 22.4111 10.1135 22.1257C9.76272 21.5209 9.23181 21.0408 8.59491 20.7523C7.958 20.4639 7.24692 20.3815 6.56095 20.5168C6.53898 20.5211 6.51728 20.5268 6.49598 20.5337L4.98558 21.025C5.33796 19.7499 5.80463 18.5092 6.37992 17.3179ZM21.3314 21.6424C21.4251 20.1986 22.5861 18.7044 24.3663 18.7044C26.1465 18.7044 27.3075 20.1982 27.4014 21.644C27.4432 22.4004 27.2125 23.1468 26.751 23.7476L24.3663 26.9375L21.9856 23.7532C21.5277 23.1476 21.2963 22.4008 21.3314 21.6424ZM43.3788 26.3375C43.3788 37.145 34.5952 45.9375 23.7988 45.9375C13.0023 45.9375 4.2188 37.145 4.2188 26.3375C4.22798 24.9832 4.37905 23.6336 4.66955 22.3108L6.81014 21.6145C7.26209 21.5321 7.72848 21.5912 8.14559 21.7837C8.5627 21.9763 8.91022 22.2929 9.14067 22.6903C9.3607 23.0697 9.63462 23.4152 9.95386 23.7159L11.4614 25.1362C11.8642 25.5149 12.3536 25.7894 12.8869 25.9356L13.0626 25.9834C13.3865 26.0729 13.6817 26.2446 13.9195 26.4819C14.1574 26.7191 14.3299 27.0139 14.4202 27.3375L15.2284 30.2563C15.3631 30.7441 15.59 31.2015 15.897 31.6038L18.3459 34.8177C18.5412 35.0745 18.6711 35.375 18.7243 35.6932L19.3927 39.7074C19.4339 39.9581 19.5314 40.1962 19.6779 40.4038C19.8244 40.6114 20.016 40.783 20.2384 40.9059C20.4608 41.0287 20.7082 41.0994 20.9619 41.1128C21.2156 41.1262 21.4691 41.0819 21.7032 40.9832C22.0747 40.8273 22.3973 40.5742 22.6372 40.2506C22.8772 39.927 23.0255 39.5448 23.0668 39.144C23.1282 38.5437 23.3671 37.9754 23.7531 37.5115L24.4627 36.6573C24.6826 36.3931 24.8477 36.0878 24.9485 35.7592L25.6775 33.3918C25.8238 32.9135 26.116 32.4929 26.513 32.1887L28.7018 30.5062C28.9014 30.3528 29.0677 30.1604 29.1907 29.9407C29.3138 29.7211 29.3909 29.4787 29.4174 29.2283C29.444 28.978 29.4194 28.7248 29.3452 28.4842C29.271 28.2437 29.1487 28.0207 28.9858 27.8288L27.542 26.1283C27.4745 26.0488 27.4104 25.9665 27.3496 25.8817L26.9599 25.3473L27.6519 24.4218C28.2743 23.6059 28.5836 22.5939 28.5238 21.5694C28.3784 19.332 26.5521 17.5794 24.3661 17.5794C22.3908 17.5794 20.7099 19.0107 20.2965 20.9367C19.3621 20.6613 18.2434 20.7211 17.4681 21.1366L16.2794 21.7741C16.0076 21.9186 15.6913 21.9552 15.3936 21.8768C15.096 21.7984 14.8388 21.6107 14.6734 21.3511L13.5188 19.5262C13.3734 19.2964 13.2981 19.0291 13.3023 18.7572C13.3065 18.4853 13.3899 18.2205 13.5423 17.9953C13.7202 17.7305 13.9684 17.5206 14.2591 17.3891C14.5497 17.2576 14.8712 17.2097 15.1875 17.2508L16.9352 17.4729C17.4541 17.5393 17.9811 17.4517 18.4506 17.221C18.9202 16.9903 19.3115 16.6267 19.5761 16.1753C19.7365 15.9014 19.9739 15.6806 20.2588 15.5406C20.5437 15.4005 20.8636 15.3474 21.1785 15.3878L21.9353 15.4846C22.3943 15.5422 22.8603 15.4791 23.2875 15.3015C23.7146 15.1239 24.0881 14.8381 24.371 14.4721L25.0383 13.6056C25.4777 13.0379 25.7244 12.3447 25.7424 11.6271C25.7605 10.9095 25.549 10.2048 25.1387 9.61575L23.1535 6.75244C23.381 6.74306 23.5976 6.73744 23.7988 6.73744C26.4331 6.73744 29.2756 7.39369 32.0196 8.63578C32.8793 9.0259 33.7148 9.46732 34.5215 9.95766L33.0105 12.5477C32.7938 12.9278 32.7009 13.3659 32.7446 13.8012C32.7883 14.2365 32.9664 14.6474 33.2542 14.9768C33.6884 15.4742 34.2909 15.7937 34.9462 15.8742L35.2202 15.908C35.4855 15.9408 35.7354 16.05 35.9398 16.2222C36.1442 16.3944 36.2942 16.6222 36.3717 16.878C36.4449 17.121 36.4471 17.3799 36.3779 17.6241C36.3087 17.8683 36.171 18.0876 35.9812 18.2561L33.2677 20.6554C32.9927 20.8988 32.7724 21.1978 32.6216 21.5326C32.4707 21.8675 32.3927 22.2305 32.3926 22.5978V23.2344C32.3918 23.6117 32.4859 23.9831 32.6663 24.3145C32.8467 24.6459 33.1076 24.9265 33.4249 25.1305C33.5827 25.2319 33.7154 25.3678 33.8132 25.5278C33.9109 25.6879 33.9711 25.868 33.9893 26.0547L34.0528 26.6903C34.1025 27.2049 34.3424 27.6825 34.7256 28.0295C35.1088 28.3766 35.6076 28.5682 36.1246 28.5669H37.7129C38.3708 28.5667 39.0145 28.3749 39.5652 28.0149C40.1159 27.6549 40.5499 27.1424 40.8141 26.5398L40.9095 26.3222C41.0031 26.1065 41.1554 25.9214 41.3492 25.7883C41.543 25.6552 41.7704 25.5793 42.0053 25.5695L42.378 25.5526C42.4386 25.5499 42.4991 25.5455 42.5595 25.5394L43.3517 25.4596C43.3694 25.7677 43.3788 26.0625 43.3788 26.3375ZM43.2584 24.3375L42.4468 24.4192C42.4072 24.4232 42.3675 24.426 42.3273 24.4279L41.9541 24.4448C41.5093 24.4635 41.0788 24.6071 40.7118 24.8591C40.3449 25.1111 40.0563 25.4614 39.8792 25.8698L39.7838 26.0874C39.6074 26.4899 39.3176 26.8322 38.9499 27.0727C38.5821 27.3132 38.1523 27.4413 37.7129 27.4415H36.1245C35.8867 27.442 35.6573 27.3538 35.4811 27.1941C35.305 27.0344 35.1947 26.8148 35.172 26.5781L35.1084 25.9424C35.0739 25.5874 34.9594 25.2449 34.7734 24.9405C34.5875 24.6361 34.335 24.3778 34.035 24.1851C33.8758 24.0827 33.745 23.9419 33.6545 23.7757C33.5641 23.6095 33.5169 23.4232 33.5174 23.234V22.5973C33.5174 22.3894 33.5615 22.1839 33.6469 21.9943C33.7323 21.8048 33.8569 21.6355 34.0126 21.4977L36.7261 19.0985C37.0769 18.7871 37.3312 18.3819 37.4592 17.9307C37.5871 17.4795 37.5832 17.001 37.448 16.5519C37.3074 16.0876 37.0349 15.6741 36.6638 15.3615C36.2927 15.049 35.8389 14.8509 35.3574 14.7912L35.0834 14.7575C34.7028 14.7107 34.3528 14.5252 34.1007 14.2363C33.9671 14.0836 33.8842 13.8932 33.8634 13.6914C33.8426 13.4896 33.885 13.2863 33.9847 13.1096L35.4696 10.5644C36.5398 11.2808 37.5419 12.094 38.4633 12.9938C38.1895 13.4696 38.0288 14.0021 37.9936 14.55C37.9502 15.399 38.2059 16.2364 38.7163 16.9163L40.9957 19.9643C41.0481 20.0344 41.1161 20.0912 41.1943 20.1304C41.2725 20.1696 41.3587 20.19 41.4462 20.19C41.5336 20.19 41.6199 20.1696 41.6981 20.1304C41.7763 20.0912 41.8443 20.0344 41.8966 19.9643L42.3158 19.4038C42.7635 21.02 43.0787 22.6701 43.2584 24.3375ZM43.2751 16.2415L41.4462 18.6872L39.6213 16.2469C39.2684 15.7811 39.0897 15.2065 39.1162 14.6227C39.1884 13.5127 40.0797 12.3647 41.4462 12.3647C42.8127 12.3647 43.704 13.5128 43.7762 14.6241C43.8082 15.2059 43.6303 15.7798 43.275 16.2416L43.2751 16.2415Z" fill="#344D6B"/>
</svg>
