<svg width="48" height="48" viewBox="0 0 48 48" fill="none" xmlns="http://www.w3.org/2000/svg">
<path d="M45.5983 43.0951V32.3478C45.5983 28.7537 42.8668 25.7975 39.3666 25.4421C39.1332 25.4184 38.8964 25.4761 38.6569 25.4761C34.8232 25.4761 31.873 28.5619 31.873 32.3957L31.8732 43.0498L45.5983 43.0951Z" fill="#855B51"/>
<path d="M39.4071 25.4466C35.9261 25.8206 33.2158 28.7672 33.2158 32.3475V43.0153L31.7158 43.05V32.3475C31.7158 28.5141 34.8236 25.4062 38.6571 25.4062C38.9102 25.4062 39.1605 25.4194 39.4071 25.4466Z" fill="#724D44"/>
<path d="M40.5942 47.0053V39.7322L40.3067 38.8823L40.5942 36.3859H36.7197L36.8838 40.335L36.7197 41.6475V47.0053L38.6563 47.2969L40.5942 47.0053Z" fill="#C48958"/>
<path d="M36.6448 40.5179L32.8369 42.0253L33.2993 47.2968H38.6565L38.377 46.9892C37.0424 45.5207 36.7824 43.6239 36.7319 41.6474C36.721 41.2126 36.6448 40.9569 36.6448 40.5179Z" fill="#FFD163"/>
<path d="M36.7329 41.6475L36.7207 41.6522L32.9407 43.2056L32.8291 41.9343L36.7207 40.335L36.8843 40.9887L36.7329 41.6475Z" fill="#FFB65F"/>
<path d="M44.5706 41.9734L40.5942 40.335C40.5942 42.7361 40.5682 45.2056 38.9228 47.0055L38.6562 47.297H45.0845C45.6028 47.297 46.0229 46.8768 46.0229 46.3586V44.1427C46.023 43.6779 45.8849 43.2236 45.6264 42.8374C45.3678 42.4512 45.0003 42.1505 44.5706 41.9734Z" fill="#FFD163"/>
<path d="M36.7205 36.3862H36.7197C36.7197 36.3862 36.7202 39.7268 36.7205 39.7269C36.7205 39.7269 36.7214 41.2125 36.7327 41.6475L37.7068 41.247C37.7756 41.2188 37.8344 41.1707 37.8758 41.1089C37.9171 41.0472 37.9392 40.9745 37.9392 40.9002V40.4838C37.9393 40.4566 37.9453 40.4297 37.9568 40.405C37.9683 40.3803 37.9851 40.3585 38.0059 40.3409C38.0268 40.3234 38.0512 40.3106 38.0775 40.3035C38.1038 40.2964 38.1313 40.2952 38.1581 40.2998C38.325 40.328 38.4911 40.3424 38.6557 40.3424C39.3213 40.3424 39.9785 40.1174 40.5935 39.732V36.3861H36.7205V36.3862Z" fill="#B27A49"/>
<path d="M34.4985 33.1855C34.5068 33.5232 34.3771 33.7842 34.4481 34.129C34.9609 36.6202 36.9804 39.1237 38.6567 39.1237C40.5946 39.1237 42.9882 35.7821 42.9882 32.9783C42.9882 31.243 42.4029 29.711 41.2921 28.7954C41.0609 28.6049 40.8707 28.6226 40.5946 28.4892C40.5743 28.4794 40.552 28.4742 40.5294 28.4741C40.5069 28.474 40.4846 28.479 40.4642 28.4886C40.4438 28.4983 40.4258 28.5124 40.4115 28.5299C40.3973 28.5474 40.3871 28.5678 40.3818 28.5898C39.8637 30.6595 38.1079 32.3573 35.9666 32.8025L34.6171 33.0363C34.5472 33.0512 34.4985 33.1855 34.4985 33.1855Z" fill="#C48958"/>
<path d="M36.2482 33.7299C38.7213 33.1966 40.7181 31.1906 41.2911 28.7962C41.058 28.6036 40.8026 28.4396 40.5305 28.3078C40.5101 28.298 40.4879 28.2928 40.4653 28.2927C40.4427 28.2926 40.4204 28.2976 40.4 28.3072C40.3796 28.3169 40.3616 28.331 40.3474 28.3485C40.3331 28.366 40.323 28.3864 40.3177 28.4084C39.7996 30.4781 38.0752 32.1888 35.934 32.634L34.4448 32.9526C34.4109 32.9599 34.3806 32.9786 34.359 33.0057C34.3373 33.0328 34.3258 33.0665 34.3262 33.1011V33.1018C34.3345 33.4395 34.3772 33.7841 34.4482 34.1289L36.2482 33.7299Z" fill="#B27A49"/>
<path d="M16.7096 42.5718L11.2808 40.6376C10.2589 41.8173 8.48801 41.682 7.46651 40.502L3.54776 42.1305C2.66895 42.4926 2.07129 43.192 2.07129 44.1425V46.2647C2.07129 46.783 2.49148 47.2031 3.00973 47.2031L3.19629 47.2969H7.40566L9.2816 47.0565L11.2804 47.2969H14.7435L16.7096 46.9488V42.5718Z" fill="#BAE6EF"/>
<path d="M11.1443 37.3243H7.59375L7.60969 40.1429C7.947 40.5323 8.16928 40.9867 8.62463 41.119C9.54816 41.3873 10.5948 41.1267 11.2792 40.3372L11.2805 40.3358V38.8472L11.1443 37.3243Z" fill="#F2D1A5"/>
<path d="M8.26432 41.1323L4.18179 42.98L3.89388 43.1006C3.6872 43.1851 3.51043 43.3294 3.38618 43.5149C3.26192 43.7005 3.19584 43.9189 3.19638 44.1422V47.2969H2.91598C2.39754 47.2969 1.97754 46.8769 1.97754 46.3584V44.1422C1.97754 43.1925 2.55129 42.3356 3.42973 41.9737L7.22707 40.502C7.49173 40.7664 8.26432 41.1323 8.26432 41.1323Z" fill="#94D8E6"/>
<path d="M15.707 42.1584L11.2801 47.2968H7.40545L4.18177 42.9798L3.55664 42.0259L5.67895 41.2879L7.40639 40.335C8.42733 41.5153 10.2583 41.5153 11.2801 40.3359V40.335L15.707 42.1584Z" fill="#F8F7F7"/>
<path d="M8.625 37.3247H7.40625V40.5269L8.37469 41.1294C8.37469 41.1294 8.59341 41.104 8.625 41.1169V39.5501C8.62502 39.523 8.63089 39.4963 8.64222 39.4718C8.65355 39.4473 8.67006 39.4255 8.69062 39.4079C8.71117 39.3904 8.73529 39.3775 8.7613 39.3702C8.78731 39.3629 8.8146 39.3613 8.84128 39.3655C9.00834 39.3915 9.1755 39.405 9.34219 39.405C9.99188 39.405 10.6509 39.2025 11.28 38.8472V37.3247H8.625Z" fill="#F2BB88"/>
<path d="M8.62535 41.1178V41.1187L4.1816 42.9797L3.43066 41.9737L7.4066 40.335C7.4712 40.367 7.72863 40.8335 8.62535 41.1178Z" fill="#E8E8E8"/>
<path d="M13.8046 32.0682C13.8046 29.1194 12.2915 27.3212 9.3428 27.3212C6.39408 27.3212 4.88086 29.1194 4.88086 32.0682C4.88086 32.6909 4.89942 33.3235 5.09583 33.9339C5.82942 36.2142 7.73611 38.1862 9.3427 38.1862C10.9358 38.1862 12.8218 36.2499 13.5694 33.9962C13.7784 33.3665 13.8046 32.7121 13.8046 32.0682Z" fill="#F2D1A5"/>
<path d="M11.8603 27.9121C11.5465 27.9473 11.2533 28.0257 11.0064 28.1325L11.0028 28.1419C10.9804 27.9098 10.9205 27.6924 10.8216 27.4977C10.3742 27.3817 9.88111 27.321 9.3427 27.321C6.39389 27.321 4.78711 29.1193 4.78711 32.0681C4.78711 32.6908 4.90045 33.323 5.09686 33.9335C5.1699 33.8675 5.24096 33.7993 5.30995 33.729C5.89392 33.133 6.87586 32.1442 8.03405 31.6386C8.74233 31.3294 9.34176 31.2441 9.80517 30.8409C9.89564 30.7621 10.0329 30.7833 10.0933 30.8869C10.3046 31.2495 10.7745 31.7482 11.723 32.3117C12.5317 32.7922 13.219 33.4726 13.5694 33.996C13.7783 33.3664 13.8984 32.712 13.8984 32.0682C13.8983 30.1152 13.1928 28.6677 11.8603 27.9121Z" fill="#F2BB88"/>
<path d="M11.0147 27.016C11.3478 26.8715 11.7591 26.6771 12.1987 26.6732C12.875 26.6673 13.6013 26.8715 14.1432 27.4202C15.9169 29.2162 14.9856 31.9857 14.3044 33.2013C14.2409 33.3145 14.0858 33.3321 13.9999 33.2349C13.6591 32.8492 12.8201 31.9669 11.6941 31.2461C11.3277 31.0115 11.0118 30.736 10.7537 30.4379C10.4533 30.0912 10.3592 29.639 10.2275 29.261L11.0147 27.016Z" fill="#8E868E"/>
<path d="M12.0102 28.4325C11.758 29.1779 11.324 29.8613 10.7549 30.4369C10.453 30.091 10.2309 29.7141 10.0996 29.3363L11.0071 26.9138C11.3409 26.7694 11.759 26.6766 12.1987 26.6729C12.2755 27.2279 12.2137 27.8307 12.0102 28.4325Z" fill="#766D78"/>
<path d="M10.7474 26.1467C10.4373 25.6623 9.88306 25.3568 9.20281 25.2484C8.11381 25.075 6.75359 25.578 5.504 26.4913C3.14825 28.2131 3.63012 31.5862 4.36906 33.0838C4.43215 33.2117 4.6069 33.2275 4.69053 33.1119C4.81934 32.934 5.02362 32.8031 5.3104 32.5103C5.89437 31.9142 6.81762 31.1781 8.12825 30.7011C10.4912 29.8411 11.5539 27.4065 10.7474 26.1467Z" fill="#8E868E"/>
<path d="M9.21329 25.2506C8.38829 25.3687 7.49392 25.7184 6.67079 26.3203C4.62704 27.8137 4.75735 30.7743 5.31048 32.5106C5.0236 32.8031 4.81829 33.0618 4.68985 33.2399C4.60642 33.3553 4.4311 33.3393 4.36829 33.2118C3.62954 31.7137 3.0961 28.0424 5.45204 26.3203C6.70642 25.4034 8.12298 25.0724 9.21329 25.2506Z" fill="#766D78"/>
<path d="M14.0647 18.8717L11.8864 18.8596C11.6226 18.8596 11.3693 18.9633 11.1812 19.1483L9.71398 20.5903C9.61949 20.6833 9.49211 20.7351 9.35955 20.7347C9.22699 20.7342 9.09999 20.6814 9.00616 20.5877L7.5687 19.1534C7.38017 18.9652 7.1247 18.8596 6.85835 18.8596H4.59616C3.59651 18.8596 2.78613 18.0492 2.78613 17.0495V10.7125C2.78613 9.91984 3.20191 9.1524 3.91132 8.90744C4.10152 8.84188 4.30133 8.80852 4.50251 8.80872H16.0254V17.1434C16.0254 17.3506 15.9906 17.5497 15.9265 17.735C15.6813 18.4441 14.8572 18.8717 14.0647 18.8717Z" fill="#F8F7F7"/>
<path d="M15.9262 17.7346C15.6815 18.4434 15.0084 18.9534 14.2162 18.9534H11.9812C11.7168 18.9534 11.4637 19.0575 11.2752 19.2421L9.7143 20.7778C9.51836 20.9709 9.20242 20.97 9.00648 20.775L7.47555 19.2468C7.28711 19.0593 7.03117 18.9534 6.76492 18.9534H4.50273C3.50336 18.9534 2.69336 18.1425 2.69336 17.1431V10.619C2.69336 9.82589 3.20242 9.15183 3.91211 8.90808V17.1431C3.91211 17.4693 4.17648 17.7346 4.50273 17.7346H6.76492C7.35836 17.7346 7.91617 17.9653 8.33617 18.3843L9.10211 19.1493C9.17224 19.2192 9.2671 19.2586 9.3661 19.2589C9.46509 19.2593 9.56023 19.2206 9.63086 19.1512L10.4212 18.3731C10.8373 17.9639 11.3976 17.7346 11.9812 17.7346H15.9262Z" fill="#E8E8E8"/>
<path d="M9.21116 12.5022C9.29469 12.5809 9.42575 12.5786 9.50975 12.5003C9.82116 12.2103 10.2314 12.0499 10.657 12.0518C11.5656 12.0545 12.3071 12.8006 12.2941 13.6973C12.2772 14.8814 11.0137 15.8945 10.1503 16.4497C9.84519 16.6458 9.59075 16.6621 9.4581 16.7313C9.42758 16.7472 9.39375 16.7557 9.35935 16.7561C9.32495 16.7564 9.29095 16.7487 9.2601 16.7335C8.74316 16.4784 6.51885 15.3454 6.55213 13.6935C6.56553 13.0276 6.89131 12.4702 7.46572 12.2175C7.52525 12.1913 7.58497 12.131 7.64985 12.1125C7.78701 12.0733 7.92887 12.0528 8.07153 12.0518C8.5146 12.0487 8.91481 12.2228 9.21116 12.5022Z" fill="#DF646E"/>
<path d="M10.1498 16.4494C9.92487 16.5941 9.69371 16.7289 9.457 16.8535C9.39513 16.8863 9.322 16.8872 9.25919 16.8563C8.74169 16.6013 6.39044 15.3488 6.42419 13.6969C6.43919 12.9619 6.95856 12.3104 7.6495 12.1125C7.41794 12.3966 7.27638 12.7547 7.26794 13.1344C7.24075 14.4722 9.14856 15.841 10.1498 16.4494Z" fill="#DC4955"/>
<path d="M43.3842 18.8597H41.1491C40.8853 18.8597 40.632 18.9634 40.4439 19.1484L38.9767 20.6841C38.8822 20.7771 38.7548 20.829 38.6222 20.8285C38.4897 20.828 38.3627 20.7752 38.2689 20.6816L36.8314 19.1535C36.6429 18.9653 36.3874 18.8597 36.121 18.8597H33.8589C32.8592 18.8597 32.0488 18.0493 32.0488 17.0496L32.1684 8.99406L33.9939 8.80872H43.478C44.4776 8.80872 45.288 9.61909 45.288 10.6187V17.1433C45.288 17.3505 45.2532 17.5495 45.1891 17.7349C44.944 18.4442 44.1767 18.8597 43.3842 18.8597Z" fill="#F8F7F7"/>
<path d="M38.4739 12.5022C38.5574 12.5809 38.6884 12.5786 38.7724 12.5003C39.0839 12.2103 39.4941 12.0499 39.9197 12.0518C40.8283 12.0545 41.5698 12.8006 41.5568 13.6973C41.5399 14.8814 40.2764 15.8945 39.4129 16.4497C39.1079 16.6458 38.8534 16.6621 38.7208 16.7313C38.6903 16.7472 38.6564 16.7557 38.622 16.7561C38.5876 16.7564 38.5536 16.7487 38.5228 16.7335C38.0059 16.4784 35.7815 15.3454 35.8148 13.6935C35.8282 13.0276 36.154 12.4702 36.7284 12.2175C36.7879 12.1913 36.8477 12.131 36.9125 12.1125C37.0497 12.0733 37.1916 12.0528 37.3342 12.0518C37.7773 12.0487 38.1775 12.2228 38.4739 12.5022Z" fill="#DF646E"/>
<path d="M39.4125 16.4494C39.1876 16.5941 38.9564 16.7289 38.7197 16.8535C38.6578 16.8863 38.5847 16.8872 38.5219 16.8563C38.0044 16.6013 35.6531 15.3488 35.6869 13.6969C35.7019 12.9619 36.2213 12.3104 36.9122 12.1125C36.6806 12.3966 36.5391 12.7547 36.5306 13.1344C36.5034 14.4722 38.4113 15.841 39.4125 16.4494Z" fill="#DC4955"/>
<path d="M41.2429 17.7347C40.656 17.7347 40.102 17.9616 39.6829 18.3732L38.7604 19.2816C38.6873 19.3538 38.5691 19.3529 38.496 19.2807L37.5988 18.3844C37.1818 17.9682 36.6167 17.7346 36.0276 17.7347H33.7654C33.6085 17.7347 33.458 17.6724 33.3471 17.5615C33.2362 17.4505 33.1738 17.3001 33.1738 17.1432V13.8612C33.1738 13.8166 33.1904 13.7738 33.2193 13.7398C33.3086 13.6349 33.3893 13.5231 33.4607 13.4053C33.8098 12.824 33.9942 12.1587 33.9941 11.4806V8.80872H31.9551V17.1431C31.9551 18.1429 32.7655 18.9534 33.7654 18.9534H36.0276C36.2938 18.9534 36.5498 19.0593 36.7382 19.2468L38.2691 20.775C38.363 20.8686 38.4899 20.9214 38.6225 20.9219C38.755 20.9224 38.8824 20.8706 38.977 20.7778L40.5379 19.2422C40.7263 19.0575 40.9795 18.9534 41.2429 18.9534H43.4779C44.271 18.9534 44.9441 18.4434 45.1888 17.7347L41.2429 17.7347Z" fill="#E8E8E8"/>
<path d="M29.9742 13.7733L27.2645 13.8651C27.0523 13.8651 26.8425 13.9098 26.6488 13.9964C26.4551 14.083 26.2818 14.2095 26.1404 14.3677L24.5669 16.0993C24.2855 16.4138 23.7927 16.4118 23.5139 16.0951L22.0585 14.3329C21.9169 14.1721 21.7427 14.0433 21.5475 13.955C21.3523 13.8668 21.1405 13.8212 20.9263 13.8212L17.82 13.995C16.4316 13.995 15.3057 12.8691 15.3057 11.4806V3.2175C15.3057 2.30297 15.7942 1.50207 16.5244 1.06219C16.9154 0.8266 17.3634 0.702433 17.8199 0.703128H30.2609C31.6493 0.703128 32.7748 1.82869 32.7748 3.21713V11.4807C32.7748 11.9545 32.6438 12.3978 32.4159 12.7762C31.976 13.5064 30.8888 13.7733 29.9742 13.7733Z" fill="#F8F7F7"/>
<path d="M32.416 12.7762C31.9754 13.5065 31.1747 13.9949 30.2607 13.9949H27.2635C26.8341 13.9949 26.4254 14.1778 26.1385 14.4974L24.5691 16.2515C24.2879 16.5665 23.7947 16.5646 23.5163 16.2478L21.9835 14.5068C21.8419 14.3459 21.6677 14.217 21.4724 14.1287C21.2771 14.0405 21.0653 13.9949 20.851 13.9949H17.82C16.4316 13.9949 15.3057 12.869 15.3057 11.4806V3.21745C15.3057 2.30338 15.7941 1.50276 16.5244 1.06213V11.4806C16.5244 12.1959 17.1047 12.7762 17.82 12.7762H20.851C21.6347 12.7762 22.381 13.1128 22.8985 13.7015L23.8388 14.7693C23.9494 14.8959 24.1463 14.8959 24.2588 14.7703L25.231 13.6846C25.7475 13.1062 26.4872 12.7762 27.2635 12.7762H32.416Z" fill="#E8E8E8"/>
<path d="M23.8135 4.81206C23.9417 4.93281 24.1428 4.92924 24.2716 4.80924C24.7494 4.36431 25.3788 4.11823 26.0317 4.12112C27.4256 4.12524 28.5632 5.26984 28.5434 6.64562C28.516 8.54987 26.3874 10.166 25.067 10.9866C24.6828 11.2254 24.3956 11.2908 24.2199 11.3824C24.1731 11.4068 24.1212 11.4199 24.0684 11.4204C24.0156 11.421 23.9634 11.4091 23.9161 11.3857C23.123 10.9944 19.6604 9.32415 19.7115 6.78999C19.7334 5.70212 20.3031 4.58753 21.3072 4.24881C21.5514 4.16615 21.8072 4.12307 22.065 4.12121C22.7449 4.11624 23.3588 4.38353 23.8135 4.81206Z" fill="#DF646E"/>
<path d="M25.067 10.9865C24.6826 11.2256 24.3667 11.3971 24.1914 11.4881C24.1446 11.5125 24.0927 11.5255 24.04 11.5262C23.9872 11.5268 23.935 11.5151 23.8876 11.4918C23.0945 11.0999 19.487 9.17995 19.5376 6.64588C19.5592 5.55745 20.3026 4.58713 21.3076 4.24963C20.8623 4.70807 20.582 5.32682 20.5689 5.98963C20.5258 8.1562 23.6608 10.1953 25.067 10.9865Z" fill="#DC4955"/>
<path d="M26.4621 33.5542H21.582L21.8127 36.8079L21.582 38.5281L21.5828 38.529C21.8029 38.7831 21.9567 39.0836 22.2315 39.2654C23.276 39.9564 24.7312 40.017 25.7622 39.397C26.0457 39.2264 26.2304 38.7952 26.4606 38.5298L26.4621 38.5281V36.4613L26.2648 36.1377L26.4621 33.5542Z" fill="#E3A76F"/>
<path d="M31.5567 40.6273L29.0041 39.5756L26.4616 38.8025C25.1743 40.2883 22.8686 40.4224 21.5819 38.9362L16.6745 40.6273C16.1588 40.8398 15.7179 41.2007 15.4076 41.6641C15.0973 42.1275 14.9316 42.6727 14.9316 43.2304L15.0254 47.1093L15.9625 47.2968H22.1219L24.1156 46.845L25.8822 47.2968H33.2995V43.2304C33.2995 42.6727 33.1338 42.1275 32.8236 41.6641C32.5133 41.2007 32.0724 40.8398 31.5567 40.6273Z" fill="#CCF49F"/>
<path d="M22.8008 33.5541H21.582V38.5285C21.735 38.7052 21.6662 39.0029 21.8445 39.1376C22.0476 39.291 22.5011 39.2753 22.7277 39.3741H22.7286L22.7278 37.0602C22.7277 37.032 22.7341 37.0041 22.7464 36.9787C22.7587 36.9532 22.7766 36.9309 22.7987 36.9134C22.8208 36.8958 22.8466 36.8835 22.8742 36.8773C22.9017 36.8711 22.9303 36.8712 22.9578 36.8776C23.2968 36.9566 23.6773 37.0398 24.0214 37.0398C24.9139 37.0398 25.7305 36.8317 26.4617 36.4614V33.5542H22.8008V33.5541Z" fill="#D6995C"/>
<path d="M22.6198 39.3741L19.7974 40.5814L16.951 41.7544C16.6581 41.8741 16.4075 42.0785 16.2314 42.3413C16.0552 42.6042 15.9614 42.9136 15.9619 43.23V47.2969H14.7432V43.23C14.7432 42.09 15.4313 41.0616 16.486 40.6275L19.0257 39.5813L20.1842 39.2234L21.5307 38.619C21.8578 38.9968 22.1941 39.1885 22.6198 39.3741Z" fill="#B3E59F"/>
<path d="M29.0043 39.5756C28.9433 39.6469 28.9021 39.6938 28.8983 39.6984C27.1233 41.8133 26.067 44.438 25.8824 47.1928V47.2969H22.1221V47.2294C21.9736 44.8419 21.1695 42.5416 19.7982 40.5815C19.5663 40.2499 19.4236 39.9594 19.16 39.6489L19.1318 39.6124L21.582 38.625C21.9094 39.0032 22.3027 39.1885 22.7286 39.3743C23.9758 39.9182 25.5012 39.6365 26.4608 38.5294L26.4618 38.5284L29.0043 39.5756Z" fill="#F8F7F7"/>
<path d="M22.7276 39.3741L19.7979 40.5816C19.5664 40.2497 19.3179 39.9281 19.0545 39.6178L19.0264 39.5813L21.582 38.5284C21.807 38.7881 22.0629 39.0028 22.3395 39.1716C22.3648 39.1875 22.3901 39.2025 22.4154 39.2166C22.5176 39.2756 22.6217 39.3272 22.7276 39.3741Z" fill="#E8E8E8"/>
<path d="M29.3286 28.0472C29.3286 24.5158 27.5525 21.686 24.0211 21.686C20.4897 21.686 18.8886 24.5403 18.8886 28.0717C18.8886 28.6612 18.619 29.278 18.7248 29.8825C19.2526 32.8995 21.0791 35.8205 24.0211 35.8205C27.1537 35.8205 29.0216 32.5086 29.4037 29.2955C29.4522 28.8865 29.3286 28.446 29.3286 28.0472Z" fill="#E3A76F"/>
<path d="M29.4768 28.0803C29.4768 25.498 28.4467 23.2748 26.5129 22.2655C26.4517 22.3422 26.3259 22.2939 26.347 22.1817C25.6736 21.863 24.897 21.6862 24.0211 21.6862C20.4897 21.6862 18.5654 24.5489 18.5654 28.0803C18.5654 28.6698 18.6193 29.278 18.7251 29.8825C18.8071 29.7737 18.9195 29.6941 19.0266 29.5934C19.9504 28.7242 21.2758 28.693 21.417 27.784C21.4346 27.6705 21.5421 27.5963 21.6528 27.6271C22.7036 27.9188 24.4098 27.253 24.9805 26.0976C25.0355 25.9861 25.1799 25.9601 25.2733 26.0421C25.8069 26.51 26.5095 26.4979 26.8146 26.4656C26.857 26.461 26.8996 26.471 26.9356 26.4938C26.9716 26.5167 26.9988 26.551 27.0127 26.5913C27.5432 28.1422 28.9977 27.5732 29.4033 29.2957C29.4521 28.8865 29.4768 28.4791 29.4768 28.0803Z" fill="#D6995C"/>
<path d="M29.9594 23.2778C29.9103 23.2637 29.8184 23.2462 29.7422 23.2329C29.6822 23.2224 29.647 23.1579 29.6729 23.1028C29.8221 22.7857 29.8838 22.4345 29.8517 22.0855C29.7679 21.1462 29.0071 20.3865 28.0676 20.3046C27.4571 20.2513 26.8984 20.4772 26.5043 20.8685C26.4924 20.8806 26.4774 20.8893 26.4609 20.8936C26.4445 20.8979 26.4272 20.8975 26.4109 20.8926C26.3946 20.8877 26.3799 20.8785 26.3685 20.8659C26.3571 20.8532 26.3494 20.8377 26.3462 20.821C26.1318 19.721 25.1634 18.8906 24.0005 18.8906C23.454 18.8899 22.9239 19.0774 22.4993 19.4214C22.4799 19.4372 22.4552 19.4447 22.4303 19.4423C22.4055 19.4398 22.3826 19.4276 22.3668 19.4083C22.0059 18.9779 21.4655 18.7031 20.8598 18.7031C19.8621 18.7031 19.0384 19.4454 18.9093 20.4078C18.9065 20.4296 18.8962 20.4498 18.8801 20.4648C18.864 20.4798 18.8432 20.4887 18.8212 20.4899C18.6052 20.5022 18.3913 20.5395 18.1839 20.6009C17.0207 20.9456 16.2988 22.0728 16.2988 23.3478C16.2988 24.0714 16.5679 24.6206 17.017 25.1191C17.0251 25.128 17.0314 25.1384 17.0355 25.1497C17.0395 25.1611 17.0412 25.1732 17.0405 25.1852C17.0284 25.376 16.9749 26.2692 17.1287 27.0898C17.41 28.5898 18.565 29.0027 18.565 29.0027C18.565 28.5606 18.7794 28.3912 19.0263 28.1872C19.5996 27.7132 20.5895 27.6278 20.8391 26.7539C20.8522 26.7083 20.8957 26.6786 20.9423 26.6868C21.0932 26.7132 21.4163 26.7656 21.6098 26.7656C23.0472 26.7656 24.2741 25.8666 24.7605 24.6004C24.7855 24.5352 24.8722 24.5237 24.9155 24.5785C25.3361 25.1112 25.9877 25.4532 26.7191 25.4532C26.9348 25.4532 27.1433 25.4231 27.3411 25.3675C27.3643 25.361 27.3891 25.3638 27.4103 25.3753C27.4315 25.3869 27.4473 25.4062 27.4543 25.4293C28.0298 27.3089 29.4693 26.7024 29.4693 28.4568C30.4121 28.031 30.9758 26.5755 31.2445 25.6083C31.5266 24.593 30.9354 23.5598 29.9594 23.2778Z" fill="#855B51"/>
<path d="M19.0256 28.1869C18.7791 28.3913 18.6183 28.6759 18.6183 29.1184C18.6183 29.1184 17.2969 28.6406 17.0156 27.1406C16.8619 26.3203 16.9059 25.4353 16.9181 25.2441C16.9188 25.2321 16.9171 25.2201 16.9131 25.2089C16.9091 25.1976 16.9028 25.1872 16.8947 25.1784C16.4456 24.6797 16.1719 24.0206 16.1719 23.2969C16.1719 22.0219 17.0203 20.9456 18.1838 20.6016C17.5828 21.1172 17.2031 21.8812 17.2031 22.7344C17.2031 23.4581 17.4769 24.1172 17.9259 24.6159C17.9419 24.6338 17.9513 24.6572 17.9494 24.6816C17.9372 24.8728 17.8931 25.7578 18.0469 26.5781C18.1978 27.3816 18.6441 27.8888 19.0256 28.1869Z" fill="#724D44"/>
<path d="M38.2113 17.4865C38.3382 17.549 38.4777 17.5815 38.6192 17.5814C38.7658 17.5814 38.9124 17.5467 39.0455 17.4774C39.7926 17.088 42.2321 15.6651 42.2602 13.7074C42.3001 12.534 41.2354 11.3271 39.915 11.3487C39.4569 11.3479 39.0084 11.4798 38.6237 11.7284C38.2438 11.4802 37.7998 11.3482 37.3461 11.3487C36.1266 11.3357 35.0119 12.4067 34.9842 13.683C34.9432 15.7147 37.4439 17.1079 38.2113 17.4865ZM37.3393 12.7549H37.3459C37.5853 12.7549 37.8144 12.8467 37.9917 13.0139L37.992 13.0141C38.3438 13.3454 38.8974 13.3455 39.252 13.0147C39.432 12.8471 39.6689 12.7542 39.9148 12.7549C40.2914 12.7612 40.8295 13.0611 40.854 13.6872C40.8407 14.6138 39.5278 15.5952 38.6135 16.1118C37.6893 15.6144 36.371 14.6562 36.39 13.7115C36.4003 13.2054 36.8439 12.7584 37.3393 12.7549ZM8.94864 17.4866C9.07547 17.549 9.21498 17.5815 9.35635 17.5814C9.50298 17.5814 9.6496 17.5467 9.78264 17.4774C10.5296 17.088 12.9692 15.6651 12.9973 13.7073C13.0372 12.5341 11.9724 11.3271 10.6521 11.3487C10.194 11.3479 9.74551 11.4798 9.36076 11.7284C8.97616 11.4771 8.52593 11.345 8.06654 11.3487C6.79914 11.3577 5.74698 12.405 5.7212 13.683C5.68032 15.7147 8.18101 17.1079 8.94864 17.4866ZM8.07657 12.7549H8.08314C8.32257 12.7549 8.5517 12.8467 8.72889 13.0139L8.72917 13.0141C9.08082 13.3453 9.63432 13.3456 9.98917 13.0147C10.1691 12.8471 10.4061 12.7542 10.652 12.7549C11.0286 12.7612 11.5667 13.0611 11.5912 13.6872C11.5779 14.6138 10.265 15.5952 9.35054 16.1118C8.42645 15.6144 7.10814 14.6562 7.12726 13.7115C7.13748 13.2053 7.5811 12.7584 8.07657 12.7549Z" fill="black"/>
<path d="M4.50251 19.6565H6.7647C6.84532 19.6565 6.92126 19.6879 6.97835 19.7448L8.50966 21.2731C8.62163 21.3847 8.75449 21.4731 8.90066 21.5333C9.04682 21.5934 9.20341 21.6242 9.36148 21.6238C9.66748 21.6238 9.97348 21.509 10.2071 21.279L11.768 19.7433C11.8245 19.6874 11.9008 19.6562 11.9802 19.6564H14.2153C15.6011 19.6564 16.7285 18.529 16.7285 17.1431V14.5069C17.0786 14.6335 17.448 14.6981 17.8202 14.6978H20.8517C20.966 14.6979 21.0791 14.7223 21.1833 14.7693C21.2875 14.8164 21.3805 14.8851 21.4561 14.9709L22.9888 16.7122C23.1203 16.8614 23.2818 16.9811 23.4629 17.0634C23.644 17.1456 23.8405 17.1886 24.0394 17.1894H24.045C24.4449 17.1894 24.8269 17.0188 25.0937 16.7206L26.6633 14.9662C26.7389 14.8818 26.8314 14.8143 26.9348 14.768C27.0382 14.7218 27.1502 14.6979 27.2634 14.6978H30.2613C30.607 14.6978 30.9398 14.6423 31.2522 14.541V17.1432C31.2522 18.529 32.3795 19.6565 33.7654 19.6565H36.0276C36.1083 19.6565 36.1842 19.6879 36.2413 19.7448L37.7726 21.2731C37.8846 21.3847 38.0175 21.4731 38.1636 21.5333C38.3098 21.5934 38.4664 21.6242 38.6245 21.6238C38.9304 21.6238 39.2364 21.509 39.4701 21.279L41.0312 19.7432C41.0877 19.6874 41.1639 19.6562 41.2433 19.6564H43.4784C44.8641 19.6564 45.9916 18.529 45.9916 17.1431V10.6186C45.9916 9.23278 44.8642 8.10534 43.4784 8.10534H33.4783V3.21703C33.4783 1.44319 32.0351 0 30.2612 0H24.533C24.1446 0 23.8299 0.314719 23.8299 0.703125C23.8299 1.09153 24.1446 1.40625 24.533 1.40625H30.2612C31.2596 1.40625 32.0719 2.21859 32.0719 3.21703V11.4807C32.0719 12.4792 31.2596 13.2916 30.2612 13.2916H27.2633C26.9522 13.2918 26.6447 13.3575 26.3607 13.4844C26.0767 13.6114 25.8227 13.7968 25.6151 14.0285L24.0443 15.783L22.5117 14.0418C22.3041 13.8061 22.0487 13.6173 21.7625 13.4879C21.4762 13.3586 21.1658 13.2916 20.8517 13.2916H17.8202C16.8216 13.2916 16.0093 12.4792 16.0093 11.4807V3.21703C16.0093 2.21859 16.8216 1.40625 17.8202 1.40625H21.2518C21.6401 1.40625 21.9549 1.09153 21.9549 0.703125C21.9549 0.314719 21.6401 0 21.2518 0H17.8202C16.0462 0 14.603 1.44319 14.603 3.21703V8.10553H4.50251C3.1167 8.10553 1.98926 9.23287 1.98926 10.6188V17.1433C1.98926 18.5291 3.1167 19.6565 4.50251 19.6565ZM43.4783 9.51178C44.0886 9.51178 44.5852 10.0084 44.5852 10.6188V17.1433C44.5852 17.7537 44.0886 18.2503 43.4783 18.2503H41.2432C40.7947 18.2492 40.3639 18.4256 40.0449 18.7409L38.6253 20.1374L37.2346 18.7494C37.0763 18.5906 36.8882 18.4648 36.681 18.3791C36.4738 18.2934 36.2517 18.2496 36.0275 18.2502H33.7654C33.1549 18.2502 32.6584 17.7536 32.6584 17.1432V13.6232C33.1677 13.0538 33.4782 12.3029 33.4782 11.4806V9.51169L43.4783 9.51178ZM3.39551 10.6188C3.39551 10.0084 3.8921 9.51178 4.50251 9.51178H14.603V11.4807C14.603 12.2474 14.873 12.9519 15.3223 13.5052V17.1432C15.3223 17.7536 14.8257 18.2502 14.2153 18.2502H11.9802C11.5317 18.2491 11.1009 18.4255 10.7819 18.7408L9.36232 20.1373L7.97163 18.7493C7.81337 18.5906 7.62522 18.4647 7.41805 18.379C7.21088 18.2933 6.98879 18.2495 6.7646 18.2501H4.50241C3.89201 18.2501 3.39541 17.7535 3.39541 17.1431L3.39551 10.6188Z" fill="black"/>
<path d="M18.835 6.63131C18.7766 9.52687 22.4496 11.5661 23.5764 12.122C23.7194 12.1924 23.8768 12.2291 24.0363 12.2289C24.2015 12.2289 24.3666 12.1898 24.5166 12.1117C25.6161 11.5387 29.2065 9.4515 29.2467 6.65559C29.3062 5.01262 27.8075 3.38222 26.0241 3.41793C25.3014 3.41793 24.6091 3.6524 24.0422 4.08412C23.4734 3.64734 22.782 3.41522 22.0603 3.41793C20.3174 3.43022 18.8705 4.87172 18.835 6.63131ZM22.0704 4.82418L22.0833 4.82409C22.5468 4.82409 22.9896 5.00128 23.3315 5.32359C23.7274 5.69662 24.351 5.69662 24.7513 5.3235C25.0968 5.00128 25.5486 4.82418 26.0241 4.82418C26.8875 4.80918 27.8644 5.59078 27.8406 6.63544C27.8182 8.19197 25.8119 9.81581 24.0319 10.777C22.2257 9.85125 20.2088 8.25384 20.2409 6.65972C20.2609 5.67159 21.0986 4.83103 22.0704 4.82418ZM46.3019 42.5895V32.3478C46.3019 28.1325 42.8725 24.7031 38.6572 24.7031C37.4457 24.7031 36.2393 24.9939 35.1685 25.5441C35.0026 25.6293 34.8774 25.7769 34.8204 25.9544C34.7634 26.132 34.7792 26.3249 34.8644 26.4907C34.9496 26.6566 35.0972 26.7818 35.2747 26.8389C35.4523 26.8959 35.6452 26.8801 35.8111 26.7949C36.6964 26.34 37.654 26.1094 38.6572 26.1094C42.0971 26.1094 44.8956 28.9079 44.8956 32.3478V41.3492C44.8764 41.3408 44.8581 41.3312 44.8387 41.3232H44.8388L41.2977 39.864V38.4894C42.6509 37.1383 43.6913 34.9716 43.6913 32.9783C43.6913 30.4113 42.5485 28.3942 40.6341 27.5826C40.5479 27.5461 40.4554 27.5272 40.3618 27.527C40.2682 27.5267 40.1755 27.5451 40.0892 27.5811C39.968 27.6388 39.7467 27.7722 39.6726 28.0798C39.2488 30.0143 37.7238 31.5319 35.7873 31.9463L34.178 32.2907C33.9078 32.3429 33.6254 32.6673 33.6238 33.119C33.6724 35.0929 34.6955 37.1852 36.0169 38.4982V39.864L33.2196 41.0167C32.9917 40.7357 32.7216 40.4918 32.419 40.2936V32.3477C32.419 31.0588 32.8085 29.822 33.5455 28.7708C33.5997 28.6953 33.6384 28.6098 33.6594 28.5191C33.6803 28.4285 33.6831 28.3347 33.6675 28.243C33.6519 28.1513 33.6183 28.0637 33.5686 27.9851C33.5189 27.9065 33.4541 27.8385 33.378 27.7851C33.3018 27.7317 33.2159 27.694 33.125 27.674C33.0342 27.6541 32.9403 27.6524 32.8488 27.669C32.7573 27.6856 32.67 27.7202 32.592 27.7707C32.5139 27.8213 32.4467 27.8868 32.3942 27.9636C31.4904 29.2524 31.0129 30.7685 31.0129 32.3478V39.6427L27.165 38.0573V35.3862C28.9265 33.9593 29.9703 31.3923 30.1644 28.8668C31.0863 28.2053 31.6246 26.8674 31.9221 25.7964C32.023 25.4349 32.0446 25.0559 31.9855 24.6852C31.9264 24.3145 31.7881 23.961 31.5798 23.6487C31.3171 23.2542 30.9507 22.9398 30.5208 22.7401C30.563 22.5057 30.5738 22.2651 30.5523 22.0233C30.4974 21.3994 30.2243 20.8149 29.7811 20.3725C29.3379 19.93 28.7529 19.658 28.1289 19.6042C27.6541 19.5628 27.1768 19.6485 26.7461 19.8525C26.4848 19.3502 26.0905 18.9293 25.6063 18.6357C25.1222 18.3421 24.5667 18.187 24.0004 18.1875C23.4792 18.1875 22.9664 18.3193 22.5097 18.5707C22.0448 18.2028 21.4695 18 20.8598 18C19.6738 18 18.666 18.761 18.3181 19.8443C16.682 20.1534 15.4692 21.5753 15.4692 23.2969C15.4683 24.0761 15.7273 24.8335 16.2052 25.449C16.1927 25.8438 16.194 26.5717 16.3249 27.2702C16.5711 28.5831 17.4423 29.2711 17.9666 29.5745C18.0286 30.0334 18.1183 30.4882 18.2351 30.9363C18.3175 31.2013 18.6599 31.5559 19.0935 31.4382C19.2739 31.391 19.4281 31.274 19.5222 31.113C19.6163 30.952 19.6427 30.7602 19.5954 30.5798C19.4699 30.1002 19.3798 29.612 19.3259 29.1192C19.2948 28.8473 19.3964 28.7278 20.0129 28.427C20.43 28.2274 20.9625 27.9727 21.2936 27.4485C22.6945 27.6046 24.2597 26.8248 25.0203 25.6291C25.4997 25.9411 26.2248 26.2208 26.9768 26.1454C27.3355 26.9117 27.8417 27.2606 28.2312 27.5291C28.6501 27.8178 28.7791 27.9076 28.7815 28.4382C28.6359 31.7243 26.8179 35.1175 24.0208 35.1175C22.475 35.1175 21.4372 34.1353 20.8388 33.3114C20.7292 33.1605 20.5642 33.0594 20.38 33.0302C20.1958 33.001 20.0076 33.0461 19.8567 33.1557C19.7058 33.2653 19.6046 33.4303 19.5754 33.6145C19.5462 33.7987 19.5914 33.987 19.701 34.1378C20.0592 34.631 20.4535 35.0502 20.8785 35.3936V38.0573L16.2189 39.9773C15.6687 40.2034 15.1849 40.5655 14.8128 41.0297L11.984 39.8641V37.7021C12.975 36.8228 13.8206 35.5362 14.2667 34.1259C14.3666 34.1117 14.4623 34.0761 14.5473 34.0216C14.6322 33.9671 14.7044 33.8949 14.7589 33.8099C15.4899 32.668 16.894 29.2054 14.643 26.9259C13.7583 26.0302 12.5136 25.8418 11.4867 26.0383C11.4439 25.9448 11.3947 25.8543 11.3394 25.7676C10.3898 24.284 7.93554 24.0759 5.75191 25.2941C5.58907 25.385 5.46899 25.5368 5.41807 25.7162C5.36716 25.8955 5.38958 26.0878 5.48041 26.2507C5.52538 26.3313 5.5858 26.4023 5.65822 26.4596C5.73063 26.5169 5.81363 26.5594 5.90247 26.5846C5.99131 26.6098 6.08425 26.6173 6.17597 26.6066C6.26769 26.5959 6.35641 26.5672 6.43704 26.5222C8.07485 25.6087 9.68182 25.7863 10.1551 26.5256C10.351 26.8317 10.3636 27.3022 10.1896 27.8167C9.93119 28.5805 9.19076 29.5658 7.88744 30.0402C6.38548 30.5869 5.34729 31.4454 4.70969 32.1203C4.44523 31.193 4.29298 29.8679 4.65607 28.6638C4.68273 28.5754 4.69171 28.4826 4.6825 28.3907C4.6733 28.2988 4.64609 28.2097 4.60242 28.1283C4.55875 28.0469 4.49949 27.975 4.42801 27.9165C4.35652 27.858 4.27423 27.8142 4.18582 27.7876C4.09741 27.7609 4.00462 27.752 3.91274 27.7612C3.82086 27.7704 3.73169 27.7976 3.65033 27.8412C3.56897 27.8849 3.497 27.9442 3.43855 28.0157C3.38009 28.0871 3.33628 28.1694 3.30963 28.2578C2.66088 30.4096 3.29651 32.8774 3.93054 33.8678C3.98657 33.9552 4.06129 34.0291 4.14931 34.0842C4.23733 34.1394 4.33647 34.1743 4.4396 34.1865C4.89091 35.5685 5.72763 36.8289 6.7032 37.6963V39.864C6.63879 39.8923 3.19095 41.3078 3.1226 41.3412C1.99882 41.8227 1.27441 42.9169 1.27441 44.1426V46.3583C1.27441 47.2635 2.01082 48 2.91598 48H45.0847C45.9899 48 46.7263 47.2637 46.7263 46.3584V44.1425C46.7268 43.5961 46.5802 43.0597 46.3019 42.5895ZM28.1057 25.1514C28.0801 25.0602 28.0363 24.9751 27.9771 24.9012C27.9178 24.8273 27.8442 24.7661 27.7607 24.7214C27.6772 24.6766 27.5855 24.6492 27.4911 24.6407C27.3968 24.6323 27.3017 24.643 27.2116 24.6722C26.8826 24.779 26.5279 24.7759 26.2009 24.6635C25.8738 24.551 25.5922 24.3353 25.3985 24.0487C25.3248 23.94 25.222 23.854 25.1019 23.8007C24.9817 23.7473 24.8491 23.7287 24.7189 23.747C24.5887 23.7652 24.4663 23.8196 24.3655 23.9039C24.2646 23.9883 24.1895 24.0992 24.1485 24.2241C23.9737 24.7593 23.6339 25.2255 23.1778 25.5557C22.7218 25.886 22.1729 26.0634 21.6098 26.0625C21.4794 26.0625 21.1638 26.0139 20.9917 25.9812C20.8119 25.9469 20.6259 25.9841 20.473 26.0848C20.3202 26.1855 20.2126 26.3418 20.1732 26.5206C20.1125 26.7958 19.9038 26.9202 19.4059 27.1583C19.0346 27.336 18.5451 27.5701 18.2282 28.0187C18.0073 27.7933 17.7926 27.467 17.7071 27.0112C17.5535 26.1922 17.6213 25.2704 17.622 25.2618C17.6295 25.1651 17.617 25.0678 17.5851 24.9762C17.5533 24.8845 17.5028 24.8005 17.4369 24.7293C17.0755 24.3399 16.8749 23.8282 16.8753 23.297C16.8753 22.1491 17.7739 21.2233 18.9211 21.1895C19.0926 21.1844 19.2563 21.1168 19.3814 20.9994C19.5065 20.882 19.5844 20.7229 19.6004 20.5521C19.6615 19.8988 20.2029 19.4062 20.8598 19.4062C21.257 19.4062 21.624 19.5892 21.8666 19.9083C21.925 19.9851 21.9985 20.049 22.0826 20.0962C22.1667 20.1433 22.2597 20.1727 22.3556 20.1824C22.4516 20.1921 22.5485 20.1819 22.6404 20.1525C22.7322 20.1232 22.8171 20.0752 22.8896 20.0117C23.197 19.7423 23.5917 19.5938 24.0004 19.5937C24.8596 19.5937 25.5802 20.2364 25.6766 21.0886C25.6921 21.2256 25.7476 21.355 25.8361 21.4607C25.9246 21.5664 26.0422 21.6438 26.1743 21.6833C26.3064 21.7227 26.4472 21.7224 26.5791 21.6824C26.7111 21.6425 26.8284 21.5646 26.9164 21.4585C27.1861 21.1334 27.5828 20.9679 28.0067 21.0051C28.6059 21.0574 29.0981 21.5487 29.1514 22.1482C29.1747 22.3995 29.1223 22.6521 29.0011 22.8735C28.9452 22.9751 28.9154 23.0889 28.9142 23.2049C28.913 23.3208 28.9405 23.4352 28.9942 23.5379C29.0479 23.6407 29.1262 23.7285 29.2221 23.7937C29.318 23.8589 29.4285 23.8993 29.5438 23.9114C29.8531 23.9377 30.1644 24.0912 30.4098 24.4289C30.5057 24.5731 30.5695 24.7362 30.5966 24.9073C30.6237 25.0783 30.6136 25.2532 30.567 25.4199C30.3696 26.1306 30.122 26.7236 29.8535 27.1482C29.6172 26.7763 29.2963 26.5552 29.0292 26.3711C28.6263 26.0933 28.3079 25.8739 28.1057 25.1514ZM36.0814 33.3216C38.2452 32.8585 40.0069 31.3177 40.7774 29.2852C41.7335 30.0315 42.285 31.3538 42.285 32.9784C42.285 35.5016 40.0892 38.4207 38.6566 38.4207C37.329 38.4207 35.3463 35.9358 35.0625 33.5397L36.0814 33.3216ZM22.7728 46.5938C22.5147 44.1724 21.6018 41.8336 20.155 39.8764L21.416 39.3568C22.1342 39.9939 23.0609 40.3459 24.0209 40.3462H24.0215C24.982 40.3462 25.9092 39.9943 26.6278 39.357L27.8689 39.8684C26.4136 41.8252 25.4922 44.1686 25.2292 46.5938H22.7728ZM29.2161 40.4235L31.2886 41.2775C31.676 41.4361 32.0074 41.7066 32.2403 42.0545C32.4732 42.4024 32.5971 42.8118 32.5962 43.2305V46.5938H26.6467C26.9183 44.3519 27.8147 42.1951 29.2161 40.4235ZM24.0208 36.5237C24.6432 36.5237 25.223 36.4108 25.7585 36.206V38.2473C25.2896 38.6921 24.6679 38.94 24.0216 38.9398H24.0213C23.3752 38.94 22.7537 38.6924 22.2848 38.2478V36.2077C22.8331 36.4158 23.4139 36.5237 24.0208 36.5237ZM14.0408 46.5938H12.8146L14.0408 45.1702V46.5938ZM14.0492 43.0058L10.9585 46.5938H7.75882L4.53541 42.2783L7.24619 41.1614C7.83382 41.6542 8.57621 41.9242 9.3431 41.9243H9.34366C10.1107 41.9244 10.8533 41.6542 11.4409 41.1613L14.1708 42.2861C14.1055 42.5211 14.0647 42.7623 14.0492 43.0058ZM13.6425 27.9142C14.8664 29.1535 14.481 31.0332 13.9984 32.2111C13.5371 31.7537 12.8748 31.1673 12.0726 30.6539C11.5688 30.3314 11.1611 29.9032 10.9151 29.4466C11.1739 29.0812 11.3804 28.6852 11.5217 28.2674C11.6167 27.9863 11.6762 27.7061 11.7013 27.4335C12.2861 27.3138 13.096 27.3609 13.6425 27.9142ZM5.62348 33.2012C6.12241 32.6452 7.01482 31.8546 8.36838 31.3619C8.92621 31.1594 9.44784 30.8684 9.91329 30.5002C10.2654 31.0131 10.743 31.4723 11.3145 31.8383C12.0403 32.3029 12.6433 32.8452 13.05 33.2528C12.5076 35.5614 10.6171 37.4832 9.34291 37.4832C8.0681 37.4831 6.15035 35.5286 5.62348 33.2012ZM9.34301 38.8894C9.74904 38.8894 10.1656 38.7936 10.5778 38.6183V40.0493C10.2376 40.3513 9.79852 40.518 9.34366 40.5179H9.34329C8.88849 40.5179 8.44951 40.351 8.10954 40.0489V38.6161C8.52194 38.7925 8.93819 38.8894 9.34301 38.8894ZM2.68076 46.3583V44.1426C2.68076 43.6561 2.89301 43.2085 3.24635 42.9024L6.00354 46.5938H2.91607C2.85367 46.5937 2.79384 46.5688 2.74973 46.5247C2.70561 46.4806 2.68081 46.4207 2.68076 46.3583ZM15.4471 43.2305C15.4461 42.8118 15.5701 42.4024 15.803 42.0545C16.0359 41.7066 16.3673 41.4361 16.7547 41.2775L18.8097 40.4307C20.2024 42.2035 21.0894 44.3561 21.3558 46.5938H15.4472L15.4471 43.2305ZM34.0024 46.5938V43.2305C34.0024 42.8996 33.9548 42.5777 33.8682 42.2705L36.0224 41.3828C36.0497 43.1543 36.2137 45.0158 37.1992 46.5938H34.0024ZM37.4231 40.3334V39.5219C37.8336 39.7171 38.2499 39.827 38.6566 39.827C39.0635 39.827 39.4803 39.7177 39.8913 39.5206C39.8914 39.5224 39.8912 40.2637 39.8914 40.3367C39.8914 42.4468 39.8908 44.6243 38.6573 46.2288C37.4237 44.6269 37.4231 42.4471 37.4231 40.3349V40.3334ZM45.3201 46.3584C45.3201 46.4208 45.2952 46.4806 45.2511 46.5247C45.207 46.5689 45.1472 46.5937 45.0848 46.5938H40.1148C41.1007 45.0143 41.2648 43.1535 41.2922 41.3828L44.3029 42.6234H44.303C44.6044 42.7468 44.8621 42.9572 45.0433 43.2278C45.2244 43.4984 45.3208 43.8168 45.3201 44.1425V46.3584Z" fill="black"/>
</svg>
