<svg width="48" height="48" viewBox="0 0 48 48" fill="none" xmlns="http://www.w3.org/2000/svg">
<g clip-path="url(#clip0_746_3923)">
<path d="M24.9976 33.6554H2.75897C1.62356 33.6554 0.703125 32.7349 0.703125 31.5995V29.012C0.703125 27.8766 1.62356 26.9562 2.75897 26.9562H24.9976C26.133 26.9562 27.0534 27.8766 27.0534 29.012V31.5995C27.0534 32.7349 26.133 33.6554 24.9976 33.6554Z" fill="#F1E64C"/>
<path d="M7.03753 33.6556H2.75972C1.62366 33.6556 0.703125 32.735 0.703125 31.6V29.012C0.703125 27.877 1.62375 26.9564 2.75972 26.9564H7.03753C5.9025 26.9564 4.98197 27.877 4.98197 29.012V31.6C4.98197 32.735 5.90259 33.6556 7.03753 33.6556Z" fill="#FFC250"/>
<path d="M27.0534 29.9653V31.6003C27.0534 32.7356 26.1328 33.6553 24.9975 33.6553H2.75906C1.62375 33.6553 0.703125 32.7356 0.703125 31.6003V29.9653C0.703125 31.1006 1.62375 32.0213 2.75906 32.0213H24.9975C26.1328 32.0213 27.0534 31.1006 27.0534 29.9653Z" fill="#FFC250"/>
<path d="M28.8073 26.9564H6.56854C5.43313 26.9564 4.5127 26.036 4.5127 24.9005V22.313C4.5127 21.1776 5.43313 20.2572 6.56854 20.2572H28.8073C29.9427 20.2572 30.8631 21.1776 30.8631 22.313V24.9005C30.8631 26.036 29.9427 26.9564 28.8073 26.9564Z" fill="#F1E64C"/>
<path d="M10.8471 26.9566H6.56929C5.43323 26.9566 4.5127 26.036 4.5127 24.9011V22.313C4.5127 21.178 5.43332 20.2574 6.56929 20.2574H10.8471C9.71207 20.2574 8.79154 21.1781 8.79154 22.313V24.9011C8.79154 26.0361 9.71207 26.9566 10.8471 26.9566Z" fill="#FFC250"/>
<path d="M30.863 23.2664V24.9014C30.863 26.0367 29.9424 26.9564 28.8071 26.9564H6.56863C5.43332 26.9564 4.5127 26.0367 4.5127 24.9014V23.2664C4.5127 24.4017 5.43332 25.3223 6.56863 25.3223H28.8071C29.9424 25.3223 30.863 24.4017 30.863 23.2664Z" fill="#FFC250"/>
<path d="M26.1285 20.2572H3.88983C2.75442 20.2572 1.83398 19.3367 1.83398 18.2013V15.6138C1.83398 14.4784 2.75442 13.558 3.88983 13.558H26.1285C27.2639 13.558 28.1843 14.4784 28.1843 15.6138V18.2013C28.1843 19.3367 27.2639 20.2572 26.1285 20.2572Z" fill="#F1E64C"/>
<path d="M8.16839 20.2575H3.89058C2.75452 20.2575 1.83398 19.3369 1.83398 18.202V15.6139C1.83398 14.4789 2.75461 13.5583 3.89058 13.5583H8.16839C7.03336 13.5583 6.11283 14.479 6.11283 15.6139V18.202C6.11273 19.3369 7.03336 20.2575 8.16839 20.2575Z" fill="#FFC250"/>
<path d="M28.1843 16.5671V18.2021C28.1843 19.3375 27.2637 20.2571 26.1284 20.2571H3.88992C2.75461 20.2571 1.83398 19.3375 1.83398 18.2021V16.5671C1.83398 17.7025 2.75461 18.6231 3.88992 18.6231H26.1284C27.2637 18.6231 28.1843 17.7025 28.1843 16.5671Z" fill="#FFC250"/>
<path d="M26.8726 40.3545H4.63397C3.49856 40.3545 2.57812 39.434 2.57812 38.2986V35.7111C2.57812 34.5757 3.49856 33.6553 4.63397 33.6553H26.8726C28.008 33.6553 28.9284 34.5757 28.9284 35.7111V38.2986C28.9284 39.434 28.008 40.3545 26.8726 40.3545Z" fill="#F1E64C"/>
<path d="M28.9284 36.6646V38.2996C28.9284 39.4349 28.0078 40.3545 26.8725 40.3545H4.63406C3.49875 40.3545 2.57812 39.4349 2.57812 38.2996V36.6646C2.57812 37.7999 3.49875 38.7205 4.63406 38.7205H26.8725C28.0078 38.7205 28.9284 37.7999 28.9284 36.6646Z" fill="#FFC250"/>
<path d="M8.91253 40.3548H4.63472C3.49866 40.3548 2.57812 39.4342 2.57812 38.2993V35.7112C2.57812 34.5762 3.49875 33.6556 4.63472 33.6556H8.91253C7.7775 33.6556 6.85697 34.5763 6.85697 35.7112V38.2993C6.85697 39.4342 7.77759 40.3548 8.91253 40.3548Z" fill="#FFC250"/>
<path d="M25.4663 47.0537H3.22772C2.09231 47.0537 1.17188 46.1332 1.17188 44.9978V42.4103C1.17188 41.2749 2.09231 40.3545 3.22772 40.3545H25.4663C26.6017 40.3545 27.5222 41.2749 27.5222 42.4103V44.9978C27.5222 46.1332 26.6017 47.0537 25.4663 47.0537Z" fill="#F1E64C"/>
<path d="M27.5222 43.3638V44.9988C27.5222 46.1341 26.6016 47.0538 25.4662 47.0538H3.22781C2.0925 47.0538 1.17188 46.1341 1.17188 44.9988V43.3638C1.17188 44.4991 2.0925 45.4197 3.22781 45.4197H25.4662C26.6016 45.4197 27.5222 44.4991 27.5222 43.3638Z" fill="#FFC250"/>
<path d="M7.50628 47.054H3.22847C2.09241 47.054 1.17188 46.1334 1.17188 44.9985V42.4104C1.17188 41.2754 2.0925 40.3549 3.22847 40.3549H7.50628C6.37125 40.3549 5.45072 41.2755 5.45072 42.4104V44.9985C5.45072 46.1334 6.37134 47.054 7.50628 47.054Z" fill="#FFC250"/>
<path d="M34.1214 47.054C41.3979 47.054 47.2966 41.1553 47.2966 33.8789C47.2966 26.6025 41.3979 20.7037 34.1214 20.7037C26.845 20.7037 20.9463 26.6025 20.9463 33.8789C20.9463 41.1553 26.845 47.054 34.1214 47.054Z" fill="#F1E64C"/>
<path d="M35.2357 47.0068C34.8688 47.0385 34.4969 47.0538 34.1213 47.0538C26.8446 47.0538 20.9463 41.1555 20.9463 33.8788C20.9463 26.6021 26.8446 20.7039 34.1213 20.7039C34.497 20.7039 34.8688 20.719 35.2357 20.7508C28.4794 21.3157 23.1738 26.9766 23.1738 33.8788C23.1738 40.7811 28.4794 46.442 35.2357 47.0068Z" fill="#FFC250"/>
<path d="M34.1212 42.7754C39.0347 42.7754 43.0178 38.7922 43.0178 33.8788C43.0178 28.9653 39.0347 24.9822 34.1212 24.9822C29.2078 24.9822 25.2246 28.9653 25.2246 33.8788C25.2246 38.7922 29.2078 42.7754 34.1212 42.7754Z" fill="#FFC250"/>
<path d="M18.5028 29.064V18.2176H20.3568C22.6078 18.2176 24.0146 15.7807 22.889 13.8315L16.9466 3.53997C15.8211 1.59091 13.0079 1.59081 11.8823 3.53988L5.9392 13.8313C4.81355 15.7806 6.22026 18.2176 8.4713 18.2176H10.3262V29.064C10.3262 30.0802 11.15 30.904 12.1663 30.904H16.6628C17.679 30.904 18.5028 30.0801 18.5028 29.064Z" fill="#95D6A4"/>
<path d="M13.8591 30.9042H12.1661C11.1502 30.9042 10.3267 30.0807 10.3267 29.0648V18.2172H8.47109C6.22006 18.2172 4.81315 15.7808 5.93965 13.8311L11.8818 3.53986C12.4446 2.56551 13.4293 2.07886 14.4142 2.07886C13.7545 2.07886 13.0947 2.56551 12.7183 3.53986L8.73724 13.8311C7.98246 15.7808 8.92549 18.2172 10.4331 18.2172H11.1954C11.9855 18.2172 12.6261 18.8578 12.6261 19.6479V29.0638C12.6261 30.08 13.1785 30.9042 13.8591 30.9042Z" fill="#78C2A4"/>
<path d="M34.999 15.4578L34.9451 15.2571C34.7555 14.5493 35.1462 13.8154 35.8394 13.5777L37.9717 12.8467C38.7354 12.5848 39.5611 13.0246 39.7701 13.8044L39.9037 14.3031C40.1126 15.0829 39.6174 15.8767 38.8251 16.0317L36.613 16.4648C35.894 16.6057 35.1886 16.1656 34.999 15.4578ZM31.5927 9.45057L31.4458 9.30367C30.9277 8.78551 30.8992 7.9546 31.3807 7.40223L32.8617 5.70301C33.3923 5.09439 34.3272 5.06232 34.8981 5.63326L35.2631 5.99832C35.8341 6.56926 35.802 7.50423 35.1934 8.03467L33.4942 9.51573C32.9419 9.99723 32.111 9.96873 31.5927 9.45057ZM25.6393 5.95126L25.4386 5.89745C24.7308 5.70779 24.2906 5.00242 24.4315 4.28326L24.8645 2.07123C25.0196 1.27886 25.8133 0.783668 26.5931 0.992636L27.0918 1.12623C27.8716 1.3352 28.3114 2.16095 28.0496 2.92464L27.3185 5.05689C27.081 5.75017 26.3472 6.14092 25.6393 5.95126Z" fill="#F7F493"/>
<path d="M44.2255 24.3648C44.1624 24.2967 44.0865 24.2418 44.0021 24.2032C43.9176 24.1646 43.8264 24.143 43.7336 24.1399C43.6408 24.1367 43.5484 24.152 43.4615 24.1847C43.3746 24.2175 43.2951 24.2671 43.2276 24.3308C43.16 24.3945 43.1057 24.4709 43.0678 24.5556C43.0299 24.6404 43.0092 24.7318 43.0068 24.8246C43.0044 24.9174 43.0204 25.0097 43.0539 25.0963C43.0874 25.1829 43.1377 25.262 43.202 25.329C45.3892 27.6509 46.5938 30.6873 46.5938 33.8787C46.5938 40.7562 40.9986 46.3512 34.1213 46.3512C27.2444 46.3512 21.6497 40.7562 21.6497 33.8787C21.6497 27.0019 27.2444 21.4072 34.1213 21.4072C36.6603 21.4072 39.1028 22.1653 41.1848 23.5996C41.3384 23.7041 41.5271 23.7436 41.7097 23.7094C41.8923 23.6752 42.0539 23.5701 42.1593 23.4172C42.2647 23.2642 42.3053 23.0757 42.2722 22.893C42.2391 22.7102 42.135 22.5479 41.9827 22.4416C39.665 20.845 36.9465 20.0009 34.1213 20.0009C33.002 20.0006 31.8866 20.1358 30.7998 20.4037C30.2845 19.8645 29.5704 19.5539 28.8076 19.5539H28.5314C28.765 19.1413 28.8876 18.6752 28.8872 18.2011V15.6136C28.8872 14.0923 27.6495 12.8546 26.1281 12.8546H23.137L17.556 3.18857C16.8998 2.05278 15.7254 1.37488 14.414 1.37488H14.4132C13.1026 1.37516 11.9289 2.05288 11.2739 3.18772L5.69203 12.8546H3.88969C2.36831 12.8546 1.13063 14.0923 1.13063 15.6136V18.2011C1.13063 19.7225 2.36831 20.9602 3.88969 20.9602H4.16578C3.93221 21.3728 3.80963 21.8389 3.81 22.313V24.9005C3.80963 25.3746 3.93221 25.8407 4.16578 26.2533H2.75906C1.23769 26.2533 0 27.4906 0 29.0114V31.5989C0 32.949 0.974906 34.0749 2.25759 34.3115C2.00671 34.7351 1.87455 35.2185 1.875 35.7109V38.2984C1.87454 38.8334 2.03058 39.3568 2.32387 39.8041C1.24528 40.1793 0.46875 41.2055 0.46875 42.4103V44.9978C0.46875 46.5192 1.70644 47.7568 3.22781 47.7568H25.4663C26.5106 47.7568 27.4387 47.1653 27.9055 46.2851C29.7765 47.2264 31.8879 47.7575 34.1213 47.7575C41.7741 47.7575 48 41.5316 48 33.8787C48 30.3274 46.6596 26.9487 44.2255 24.3648ZM3.28125 38.2984V35.7109C3.28125 34.9649 3.88809 34.3581 4.63406 34.3581H20.2526C20.3168 36.2409 20.7576 38.0296 21.5022 39.6512H4.63406C3.88809 39.6512 3.28125 39.0444 3.28125 38.2984ZM29.0108 20.9761C26.3493 22.034 24.0905 23.893 22.5322 26.2534H19.2066V20.9603H28.8075C28.8763 20.9603 28.9441 20.966 29.0108 20.9761ZM27.4809 15.6137V18.2012C27.4809 18.9472 26.8741 19.554 26.1281 19.554H19.2066V18.9209H20.3569C21.6683 18.9209 22.8427 18.2428 23.4983 17.1067C24.009 16.2221 24.1199 15.2042 23.835 14.2608H26.1281C26.8741 14.2609 27.4809 14.8678 27.4809 15.6137ZM2.53688 18.2012V15.6137C2.53688 14.8678 3.14372 14.2609 3.88969 14.2609H4.9935C4.81559 14.8517 4.79331 15.4783 4.92881 16.0802C4.97054 16.2614 5.08231 16.4186 5.23967 16.5176C5.39704 16.6166 5.58719 16.6492 5.76855 16.6083C5.9499 16.5675 6.10769 16.4565 6.20741 16.2996C6.30713 16.1427 6.34065 15.9527 6.30066 15.7711C6.21506 15.3912 6.18863 14.8072 6.54891 14.1829L12.4918 3.89094C12.8928 3.19625 13.6112 2.78141 14.4136 2.78122H14.414C15.2171 2.78122 15.9366 3.19644 16.3383 3.89197L22.2803 14.183C22.6818 14.8781 22.6819 15.7083 22.2804 16.4038C21.8789 17.0994 21.1598 17.5147 20.3569 17.5147H18.5034C18.317 17.5147 18.1381 17.5888 18.0063 17.7206C17.8744 17.8525 17.8003 18.0313 17.8003 18.2178V29.0637C17.8003 29.6908 17.2902 30.2009 16.6631 30.2009H12.1669C11.5399 30.2009 11.0297 29.6908 11.0297 29.0637V18.2178C11.0297 18.0313 10.9556 17.8525 10.8237 17.7206C10.6919 17.5888 10.513 17.5147 10.3266 17.5147H8.47219C8.20509 17.5147 7.94747 17.4703 7.70653 17.3827C7.61976 17.3511 7.52762 17.3369 7.43537 17.341C7.34312 17.345 7.25257 17.3672 7.16889 17.4062C7.08522 17.4453 7.01005 17.5004 6.9477 17.5685C6.88535 17.6366 6.83703 17.7164 6.8055 17.8032C6.77393 17.8899 6.75976 17.9821 6.7638 18.0743C6.76785 18.1666 6.79002 18.2571 6.82907 18.3408C6.86812 18.4245 6.92327 18.4996 6.99137 18.562C7.05947 18.6243 7.13919 18.6727 7.22597 18.7042C7.62141 18.848 8.04066 18.9209 8.47219 18.9209H9.62344V19.554H3.88969C3.14372 19.554 2.53688 18.9472 2.53688 18.2012ZM5.21625 24.9006V22.3131C5.21625 21.5671 5.82309 20.9603 6.56906 20.9603H9.62344V26.2534H6.56906C5.82309 26.2534 5.21625 25.6466 5.21625 24.9006ZM1.40625 31.599V29.0115C1.40625 28.2661 2.01309 27.6597 2.75906 27.6597H9.62344V29.0637C9.62344 30.4662 10.7644 31.6072 12.1669 31.6072H16.6631C18.0655 31.6072 19.2066 30.4662 19.2066 29.0637V27.6597H21.7175C20.8868 29.3092 20.3963 31.1089 20.2751 32.9518H2.75906C2.01309 32.9518 1.40625 32.345 1.40625 31.599ZM25.4663 46.3506H3.22781C2.48184 46.3506 1.875 45.7438 1.875 44.9978V42.4103C1.875 41.6643 2.48184 41.0575 3.22781 41.0575H22.248C23.3594 42.8876 24.8761 44.4382 26.6813 45.5897C26.4601 46.0425 25.994 46.3506 25.4663 46.3506Z" fill="black"/>
<path d="M35.5098 33.1491C35.2565 33.0756 35.0039 32.9996 34.7521 32.9211V29.8055C35.507 29.917 35.958 30.2349 35.992 30.2597C36.141 30.3708 36.328 30.4184 36.512 30.3921C36.696 30.3658 36.8621 30.2676 36.974 30.1191C37.0859 29.9706 37.1344 29.7839 37.1089 29.5997C37.0834 29.4156 36.986 29.249 36.8381 29.1365C36.7928 29.1021 36.0158 28.5263 34.7521 28.3905V27.7831C34.7521 27.3948 34.4374 27.08 34.049 27.08C33.6606 27.08 33.3459 27.3948 33.3459 27.7831V28.4356C33.2062 28.4592 33.0675 28.4881 32.93 28.5222C31.7446 28.8163 30.8596 29.7207 30.6753 30.8263C30.5199 31.7589 30.9003 32.6464 31.6682 33.1424C32.0906 33.4152 32.6188 33.6654 33.3459 33.9308V37.8772C32.616 37.8465 32.1334 37.7236 31.3394 37.2957C31.2581 37.2519 31.169 37.2245 31.0771 37.2152C30.9852 37.2058 30.8924 37.2147 30.804 37.2412C30.7155 37.2677 30.6331 37.3114 30.5616 37.3697C30.49 37.4281 30.4306 37.5 30.3869 37.5813C30.2984 37.7454 30.2788 37.938 30.3323 38.1166C30.3859 38.2953 30.5082 38.4453 30.6723 38.5338C31.7221 39.0993 32.4016 39.2511 33.346 39.2843V39.9748C33.346 40.3631 33.6607 40.6779 34.0491 40.6779C34.4375 40.6779 34.7522 40.3631 34.7522 39.9748V39.2387C36.6046 38.962 37.7333 37.6469 37.9146 36.3501C38.1186 34.8903 37.1746 33.6338 35.5098 33.1491ZM32.4313 31.9611C32.008 31.6877 32.0324 31.2381 32.0625 31.0574C32.1357 30.6181 32.491 30.0799 33.2686 29.887C33.2946 29.8806 33.3201 29.8752 33.3458 29.8693V32.4221C32.9971 32.2771 32.6829 32.1236 32.4313 31.9611ZM36.5218 36.1554C36.423 36.8618 35.7962 37.5769 34.7521 37.808V34.3915C34.8702 34.427 34.9909 34.4629 35.1166 34.4994C36.1161 34.7903 36.6282 35.3939 36.5218 36.1554Z" fill="black"/>
<path d="M34.1221 24.2791C28.8288 24.2791 24.5225 28.5855 24.5225 33.8788C24.5225 39.1721 28.8288 43.4785 34.1221 43.4785C39.4155 43.4785 43.7218 39.1721 43.7218 33.8787C43.7218 28.5854 39.4155 24.2791 34.1221 24.2791ZM34.1221 42.0722C29.6043 42.0722 25.9288 38.3967 25.9288 33.8787C25.9288 29.3608 29.6043 25.6853 34.1221 25.6853C38.64 25.6853 42.3155 29.3608 42.3155 33.8787C42.3155 38.3967 38.64 42.0722 34.1221 42.0722ZM34.2665 15.439L34.3202 15.6397L34.3203 15.6398C34.5691 16.5683 35.4175 17.1939 36.348 17.1939C36.4803 17.1939 36.6145 17.1812 36.7486 17.1549L38.9608 16.7218C39.529 16.6106 40.0306 16.2651 40.3371 15.7739C40.6436 15.2828 40.7334 14.6803 40.5835 14.1212L40.4499 13.6224C40.3751 13.3449 40.2442 13.0857 40.0654 12.8607C39.8865 12.6357 39.6635 12.4497 39.41 12.3143C39.1561 12.1796 38.8773 12.0983 38.5908 12.0755C38.3043 12.0526 38.0162 12.0887 37.7442 12.1815L35.612 12.9125C34.5734 13.2687 33.9824 14.3785 34.2665 15.439ZM36.0682 14.2429L38.2004 13.5119C38.3833 13.4491 38.5783 13.4647 38.7491 13.5556C38.9199 13.6466 39.0416 13.7996 39.0916 13.9865L39.2252 14.4853C39.2753 14.6722 39.2465 14.8655 39.144 15.0297C39.0416 15.194 38.8806 15.3048 38.6908 15.342L36.4786 15.7751C36.1225 15.8445 35.7723 15.6253 35.6788 15.276L35.625 15.0752C35.5313 14.7257 35.7259 14.3602 36.0682 14.2429ZM31.0962 9.94784C31.5027 10.3543 32.0406 10.5597 32.5799 10.5597C33.0706 10.5597 33.5624 10.3895 33.9568 10.0458L35.656 8.56474C36.0924 8.1844 36.354 7.63437 36.3739 7.05574C36.3938 6.47712 36.1703 5.91049 35.761 5.50118L35.3958 5.13602C35.1924 4.93296 34.9495 4.7738 34.682 4.66837C34.4146 4.56294 34.1285 4.51349 33.8412 4.52309C33.554 4.53335 33.2719 4.60235 33.0124 4.72582C32.7529 4.8493 32.5214 5.02464 32.3323 5.24102L30.8511 6.94024C30.1298 7.76796 30.1728 9.02449 30.9492 9.80093L31.0962 9.94784ZM31.9113 7.86424L33.3925 6.16502C33.4571 6.09013 33.5372 6.03016 33.6273 5.98926C33.7173 5.94835 33.8152 5.92749 33.9141 5.92812C34.0047 5.92784 34.0945 5.94558 34.1782 5.98031C34.2619 6.01505 34.3378 6.06607 34.4016 6.13043L34.7668 6.49559C34.8341 6.56229 34.8867 6.64226 34.9215 6.73041C34.9562 6.81856 34.9723 6.91297 34.9686 7.00765C34.9658 7.10236 34.9433 7.19545 34.9026 7.28102C34.8619 7.36658 34.8039 7.44276 34.7322 7.50471L33.0329 8.98577C32.7604 9.22334 32.3464 9.20918 32.0906 8.95343L31.9438 8.80662C31.6879 8.55077 31.6738 8.13687 31.9113 7.86424ZM25.2573 6.57677L25.458 6.63049C25.6376 6.67859 25.8186 6.70165 25.9971 6.70165C26.8727 6.70165 27.6885 6.14777 27.9843 5.28499L28.7153 3.15284C28.8081 2.88082 28.8442 2.59268 28.8214 2.30617C28.7985 2.01967 28.7173 1.74088 28.5825 1.48699C28.4471 1.23354 28.2611 1.01052 28.0361 0.831694C27.8112 0.652865 27.5519 0.522015 27.2745 0.447211L26.7758 0.313617C26.4981 0.239605 26.2081 0.22329 25.9238 0.265681C25.6395 0.308071 25.367 0.408267 25.1229 0.560086C24.8793 0.712592 24.6695 0.913387 24.5065 1.15009C24.3435 1.38678 24.2307 1.65437 24.1751 1.93634L23.742 4.14846C23.5312 5.22584 24.1968 6.29252 25.2573 6.57677ZM25.1221 4.41846L25.5552 2.20643C25.573 2.11337 25.6099 2.02501 25.6636 1.94698C25.7174 1.86895 25.7868 1.80294 25.8674 1.75315C25.9476 1.70265 26.0374 1.66937 26.1311 1.65539C26.2248 1.64141 26.3204 1.64706 26.4119 1.67196L26.9105 1.80555C27.0021 1.82967 27.0878 1.87257 27.1619 1.93152C27.2361 1.99048 27.2972 2.0642 27.3414 2.14802C27.3863 2.23147 27.4134 2.32335 27.421 2.41783C27.4285 2.51231 27.4163 2.60732 27.3852 2.69684L26.6542 4.82899C26.5369 5.17109 26.1715 5.36562 25.822 5.27224H25.8219L25.6213 5.21852C25.2719 5.12477 25.0527 4.7734 25.1221 4.41846Z" fill="black"/>
</g>
<defs>
<clipPath id="clip0_746_3923">
<rect width="48" height="48" fill="white"/>
</clipPath>
</defs>
</svg>
