<svg width="48" height="48" fill="none" xmlns="http://www.w3.org/2000/svg"><g clip-path="url(#clip0_746_3986)"><path d="M41.285 14.23H6.715a2.255 2.255 0 0 0-2.254 2.255V44.29H43.54V16.485a2.255 2.255 0 0 0-2.255-2.255z" fill="#C3DDFF"/><path d="M39.781 40.533H8.218c-.83 0-1.503-.673-1.503-1.503V17.988c0-.83.673-1.503 1.503-1.503H39.78c.83 0 1.503.673 1.503 1.503V39.03c0 .83-.672 1.503-1.503 1.503z" fill="#DBEAFF"/><path d="M19.49 17.988l-3.966 4.627c-.35.409-.543.93-.543 1.467v2.172l6.764-3.757-2.255-4.51z" fill="#FF8086"/><path d="M18.678 24.2l3.067-1.703-2.255-4.51-2.228 2.601a20.132 20.132 0 0 0 1.416 3.613z" fill="#E5646E"/><path d="M28.51 17.988l3.966 4.627c.35.409.543.93.543 1.467v2.172l-6.764-3.757 2.255-4.51z" fill="#FF8086"/><path d="M.703 42.788v1.503c0 .83.673 1.503 1.503 1.503h43.588c.83 0 1.503-.673 1.503-1.503v-1.503H.703z" fill="#DAD8DB"/><path d="M24.541 2.764a.744.744 0 0 0-1.083 0c-2.91 3.14-4.719 7.448-4.719 12.218 0 3.628 1.05 6.987 2.833 9.77h4.856c1.782-2.783 2.832-6.142 2.832-9.77 0-4.77-1.808-9.078-4.719-12.218z" fill="#FFE07D"/><path d="M23.55 22.497a.776.776 0 0 1-.701-.475 17.387 17.387 0 0 1-.1-13.804h-2.722a18.256 18.256 0 0 0-1.288 6.764c0 3.628 1.05 6.987 2.833 9.77h4.856c.458-.715.865-1.47 1.221-2.255H23.55z" fill="#FFD064"/><path d="M27.006 27.758h-6.012l.578-3.006h4.856l.578 3.006z" fill="#C8C5C9"/><path d="M24 16.485a2.254 2.254 0 1 0 0-4.51 2.254 2.254 0 0 0 0 4.51z" fill="#C3DDFF"/><path d="M20.026 8.218h7.947a17.585 17.585 0 0 0-3.432-5.454.744.744 0 0 0-1.083 0 17.585 17.585 0 0 0-3.432 5.454z" fill="#FF8086"/><path d="M22.75 8.218c.682-1.62 1.581-3.1 2.684-4.397-.286-.363-.58-.72-.892-1.057a.744.744 0 0 0-1.083 0 17.582 17.582 0 0 0-3.432 5.454h2.723z" fill="#E5646E"/><path d="M34.52 36.024a5.24 5.24 0 0 0-1.72.294 3.746 3.746 0 0 0-3.54-2.548c-.92 0-1.751.343-2.404.892.088-.284.15-.58.15-.892a3.006 3.006 0 1 0-6.012 0c0 .312.06.608.15.892a3.724 3.724 0 0 0-2.405-.892 3.745 3.745 0 0 0-3.54 2.547 5.24 5.24 0 0 0-1.72-.293 5.26 5.26 0 0 0-5.04 6.764H39.56a5.255 5.255 0 0 0-5.04-6.764z" fill="#fff"/><path d="M24 11.976c-1.02 0-1.87.68-2.15 1.608a2.23 2.23 0 0 1 .647-.105 2.254 2.254 0 0 1 2.254 2.254c0 .226-.043.44-.105.646A2.247 2.247 0 0 0 24 11.977z" fill="#A4CCFF"/><path d="M47.297 42.085h-3.055v-25.6a2.96 2.96 0 0 0-2.957-2.958h-9.018a.703.703 0 1 0 0 1.407h9.018c.855 0 1.551.696 1.551 1.55v25.6H40.43c.037-.264.055-.532.056-.8a5.97 5.97 0 0 0-5.964-5.963c-.442 0-.883.05-1.319.15a4.447 4.447 0 0 0-3.941-2.404 4.34 4.34 0 0 0-1.574.292A3.714 3.714 0 0 0 24 30.06a3.714 3.714 0 0 0-3.687 3.3 4.34 4.34 0 0 0-1.574-.294 4.447 4.447 0 0 0-3.941 2.406c-.433-.1-.875-.15-1.32-.15a5.97 5.97 0 0 0-5.907 6.763H5.163v-25.6c0-.856.696-1.551 1.551-1.551h9.018a.703.703 0 0 0 0-1.407H6.715a2.961 2.961 0 0 0-2.957 2.958v25.6H.703a.703.703 0 0 0-.703.703v1.503c0 1.216.99 2.206 2.206 2.206h43.588c1.216 0 2.206-.99 2.206-2.206v-1.503a.704.704 0 0 0-.703-.703zm-.703 2.206a.8.8 0 0 1-.8.8H2.206a.8.8 0 0 1-.8-.8v-.8h9.066a.703.703 0 1 0 0-1.406H8.994a4.563 4.563 0 0 1 4.485-5.357c.501 0 1.002.085 1.49.254a.703.703 0 0 0 .896-.437 3.047 3.047 0 0 1 2.875-2.072c.711 0 1.386.251 1.953.727a.703.703 0 0 0 1.123-.748 2.257 2.257 0 0 1-.118-.682A2.306 2.306 0 0 1 24 31.467a2.306 2.306 0 0 1 2.303 2.303c0 .208-.038.425-.118.682a.704.704 0 0 0 1.123.748 3.009 3.009 0 0 1 1.953-.727c1.296 0 2.451.833 2.875 2.072a.703.703 0 0 0 .895.437c.489-.169.99-.255 1.49-.255a4.563 4.563 0 0 1 4.486 5.358H13.479a.703.703 0 0 0 0 1.406h33.115v.8z" fill="#000"/><path d="M14.964 22.171a2.964 2.964 0 0 0-.686 1.894v2.19a.704.704 0 0 0 1.049.612l5.007-2.825c.191.349.394.691.607 1.027l-.63 2.518a.705.705 0 0 0 .683.874h6.012a.704.704 0 0 0 .682-.874l-.63-2.518c.214-.336.416-.678.607-1.027l5.007 2.825a.702.702 0 0 0 1.049-.612v-2.19c0-.692-.243-1.362-.685-1.894l-3.338-4.004c.177-1.052.266-2.118.265-3.185a18.87 18.87 0 0 0-1.475-7.367 18.11 18.11 0 0 0-3.995-5.91.703.703 0 0 0-.986 0 18.11 18.11 0 0 0-3.995 5.91 18.871 18.871 0 0 0-1.476 7.367c0 1.074.09 2.137.265 3.18l-3.337 4.01zm.72 2.88v-.986c0-.363.128-.715.36-.993l2.636-3.163a18.64 18.64 0 0 0 1.025 2.873l-4.02 2.268zm6.21 2.003l.4-1.6h3.411l.4 1.6h-4.21zm10.061-3.982c.232.279.36.63.36.993v.985l-4.02-2.268a18.64 18.64 0 0 0 1.024-2.873l2.636 3.163zM24 3.215a16.79 16.79 0 0 1 2.894 4.3h-5.79A16.794 16.794 0 0 1 24 3.215zM20.519 8.92h6.961a17.62 17.62 0 0 1 1.077 6.06c0 3.234-.87 6.36-2.52 9.067h-4.076c-1.65-2.707-2.519-5.833-2.519-9.066 0-2.09.374-4.144 1.077-6.06z" fill="#000"/><path d="M26.957 14.23A2.96 2.96 0 0 0 24 11.273a2.96 2.96 0 0 0-2.958 2.957A2.961 2.961 0 0 0 24 17.188a2.96 2.96 0 0 0 2.957-2.958zm-4.509 0c0-.855.696-1.551 1.552-1.551.855 0 1.551.696 1.551 1.551 0 .856-.696 1.552-1.551 1.552a1.553 1.553 0 0 1-1.552-1.552z" fill="#000"/></g><defs><clipPath id="clip0_746_3986"><path fill="#fff" d="M0 0h48v48H0z"/></clipPath></defs></svg>