<svg width="48" height="48" fill="none" xmlns="http://www.w3.org/2000/svg"><path d="M45.598 43.095V32.348a6.942 6.942 0 0 0-6.231-6.906c-.234-.024-.47.034-.71.034-3.834 0-6.784 3.086-6.784 6.92V43.05l13.725.045z" fill="#855B51"/><path d="M39.407 25.447a6.942 6.942 0 0 0-6.191 6.9v10.668l-1.5.035V32.347a6.941 6.941 0 0 1 7.691-6.9z" fill="#724D44"/><path d="M40.594 47.005v-7.273l-.287-.85.287-2.496H36.72l.164 3.949-.164 1.313v5.357l1.936.292 1.938-.292z" fill="#C48958"/><path d="M36.645 40.518l-3.808 1.507.462 5.272h5.358l-.28-.308c-1.335-1.468-1.595-3.365-1.645-5.342-.011-.434-.087-.69-.087-1.13z" fill="#FFD163"/><path d="M36.733 41.648l-.012.004-3.78 1.554-.112-1.272 3.892-1.599.163.654-.151.659z" fill="#FFB65F"/><path d="M44.57 41.973l-3.976-1.638c0 2.401-.026 4.87-1.671 6.67l-.267.292h6.428c.519 0 .939-.42.939-.938v-2.216a2.346 2.346 0 0 0-1.452-2.17z" fill="#FFD163"/><path d="M36.72 36.386v3.34s.001 1.486.013 1.922l.974-.401a.374.374 0 0 0 .232-.347v-.416a.188.188 0 0 1 .139-.18.187.187 0 0 1 .08-.004c.167.028.333.042.498.042.665 0 1.322-.225 1.938-.61v-3.346H36.72z" fill="#B27A49"/><path d="M34.498 33.185c.009.338-.12.6-.05.944.513 2.491 2.532 4.995 4.209 4.995 1.938 0 4.331-3.342 4.331-6.146 0-1.735-.585-3.267-1.696-4.183-.231-.19-.421-.172-.697-.306a.152.152 0 0 0-.213.1c-.518 2.07-2.274 3.768-4.415 4.214l-1.35.233c-.07.015-.118.15-.118.15z" fill="#C48958"/><path d="M36.248 33.73c2.473-.533 4.47-2.54 5.043-4.934a3.784 3.784 0 0 0-.76-.488.152.152 0 0 0-.184.04.15.15 0 0 0-.03.06c-.517 2.07-2.242 3.78-4.383 4.226l-1.49.319a.15.15 0 0 0-.118.148c.008.339.051.683.122 1.028l1.8-.4z" fill="#B27A49"/><path d="M16.71 42.572l-5.43-1.934c-1.021 1.18-2.792 1.044-3.813-.136l-3.92 1.628c-.878.363-1.476 1.062-1.476 2.012v2.123c0 .518.42.938.939.938l.186.094h4.21l1.876-.24 1.998.24h3.463l1.967-.348v-4.377z" fill="#BAE6EF"/><path d="M11.144 37.324h-3.55l.016 2.819c.337.39.56.844 1.015.976a2.56 2.56 0 0 0 2.654-.782l.002-.001v-1.489l-.137-1.523z" fill="#F2D1A5"/><path d="M8.264 41.132L4.182 42.98l-.288.12a1.122 1.122 0 0 0-.698 1.042v3.155h-.28a.938.938 0 0 1-.938-.939v-2.216c0-.95.573-1.806 1.452-2.168l3.797-1.472c.265.264 1.037.63 1.037.63z" fill="#94D8E6"/><path d="M15.707 42.158l-4.427 5.139H7.405L4.182 42.98l-.625-.954 2.122-.738 1.727-.953a2.562 2.562 0 0 0 3.874 0l4.427 1.823z" fill="#F8F7F7"/><path d="M8.625 37.325H7.406v3.202l.969.602s.218-.025.25-.012V39.55a.187.187 0 0 1 .216-.184c.167.026.335.039.501.039.65 0 1.309-.203 1.938-.558v-1.522H8.625z" fill="#F2BB88"/><path d="M8.625 41.118L4.182 42.98l-.751-1.006 3.976-1.639c.064.032.322.498 1.218.783z" fill="#E8E8E8"/><path d="M13.805 32.068c0-2.949-1.514-4.747-4.462-4.747-2.949 0-4.462 1.798-4.462 4.747 0 .623.018 1.256.215 1.866.733 2.28 2.64 4.252 4.247 4.252 1.593 0 3.479-1.936 4.226-4.19.21-.63.236-1.284.236-1.928z" fill="#F2D1A5"/><path d="M11.86 27.912a3.024 3.024 0 0 0-.854.22l-.003.01a1.797 1.797 0 0 0-.181-.644 5.885 5.885 0 0 0-1.48-.177c-2.948 0-4.555 1.798-4.555 4.747 0 .623.113 1.255.31 1.866.073-.066.144-.135.213-.205.584-.596 1.566-1.585 2.724-2.09.708-.31 1.308-.395 1.771-.798a.188.188 0 0 1 .288.046c.212.363.681.861 1.63 1.425.809.48 1.496 1.16 1.846 1.684.21-.63.33-1.284.33-1.928 0-1.953-.706-3.4-2.039-4.156z" fill="#F2BB88"/><path d="M11.015 27.016c.333-.144.744-.339 1.184-.343.676-.006 1.402.199 1.944.747 1.774 1.796.843 4.566.161 5.781a.188.188 0 0 1-.304.034 11.503 11.503 0 0 0-2.306-1.989 4.336 4.336 0 0 1-.94-.808c-.3-.347-.395-.799-.527-1.177l.788-2.245z" fill="#8E868E"/><path d="M12.01 28.433a5.265 5.265 0 0 1-1.255 2.004 3.384 3.384 0 0 1-.655-1.1l.907-2.423a3.124 3.124 0 0 1 1.192-.241 3.861 3.861 0 0 1-.189 1.76z" fill="#766D78"/><path d="M10.747 26.147c-.31-.485-.864-.79-1.544-.899-1.09-.173-2.45.33-3.699 1.243-2.356 1.722-1.874 5.095-1.135 6.593a.188.188 0 0 0 .322.028c.128-.178.333-.309.62-.602a7.566 7.566 0 0 1 2.817-1.809c2.363-.86 3.426-3.294 2.62-4.554z" fill="#8E868E"/><path d="M9.213 25.25c-.825.119-1.72.468-2.542 1.07-2.044 1.494-1.914 4.454-1.36 6.19a6.435 6.435 0 0 0-.621.73.188.188 0 0 1-.322-.028c-.738-1.498-1.272-5.17 1.084-6.892 1.254-.917 2.671-1.248 3.761-1.07z" fill="#766D78"/><path d="M14.065 18.872l-2.179-.012c-.263 0-.517.103-.705.288L9.714 20.59a.503.503 0 0 1-.708-.002L7.57 19.153a1.005 1.005 0 0 0-.71-.293H4.595c-1 0-1.81-.81-1.81-1.81v-6.338c0-.792.416-1.56 1.125-1.805.19-.065.39-.098.592-.098h11.522v8.334c0 .208-.034.407-.098.592-.246.71-1.07 1.137-1.862 1.137z" fill="#F8F7F7"/><path d="M15.926 17.735a1.81 1.81 0 0 1-1.71 1.218h-2.235c-.264 0-.517.105-.706.29l-1.56 1.535a.503.503 0 0 1-.709-.003l-1.53-1.528a1.009 1.009 0 0 0-.711-.294H4.503c-1 0-1.81-.81-1.81-1.81V10.62c0-.793.51-1.467 1.22-1.71v8.234c0 .326.263.592.59.592h2.262c.593 0 1.151.23 1.571.65l.766.764a.376.376 0 0 0 .529.002l.79-.778c.416-.41.977-.638 1.56-.638h3.945z" fill="#E8E8E8"/><path d="M9.211 12.502a.219.219 0 0 0 .299-.002c.311-.29.721-.45 1.147-.448.909.003 1.65.749 1.637 1.645-.017 1.184-1.28 2.198-2.144 2.753-.305.196-.56.212-.692.281a.22.22 0 0 1-.198.002c-.517-.255-2.741-1.388-2.708-3.04.014-.665.34-1.223.914-1.476.06-.026.119-.086.184-.104.137-.04.279-.06.422-.061a1.64 1.64 0 0 1 1.14.45z" fill="#DF646E"/><path d="M10.15 16.45c-.225.144-.456.279-.693.404a.217.217 0 0 1-.198.002c-.517-.255-2.869-1.507-2.835-3.16a1.71 1.71 0 0 1 1.225-1.583 1.681 1.681 0 0 0-.381 1.021c-.027 1.338 1.88 2.707 2.882 3.315z" fill="#DC4955"/><path d="M43.384 18.86H41.15c-.264 0-.517.103-.705.288l-1.467 1.536a.503.503 0 0 1-.708-.002l-1.438-1.528a1.005 1.005 0 0 0-.71-.294h-2.262c-1 0-1.81-.81-1.81-1.81l.12-8.056 1.825-.185h9.484c1 0 1.81.81 1.81 1.81v6.524c0 .207-.035.406-.099.592-.245.71-1.012 1.125-1.805 1.125z" fill="#F8F7F7"/><path d="M38.474 12.502a.219.219 0 0 0 .298-.002c.312-.29.722-.45 1.148-.448.908.003 1.65.749 1.637 1.645-.017 1.184-1.28 2.198-2.144 2.753-.305.196-.56.212-.692.281a.22.22 0 0 1-.198.002c-.517-.255-2.742-1.388-2.708-3.04.013-.665.339-1.223.913-1.476.06-.026.12-.086.184-.104.138-.04.28-.06.422-.061a1.64 1.64 0 0 1 1.14.45z" fill="#DF646E"/><path d="M39.413 16.45c-.225.144-.457.279-.693.404a.217.217 0 0 1-.198.002c-.518-.255-2.869-1.507-2.835-3.16a1.71 1.71 0 0 1 1.225-1.583 1.681 1.681 0 0 0-.381 1.021c-.028 1.338 1.88 2.707 2.882 3.315z" fill="#DC4955"/><path d="M41.243 17.735c-.587 0-1.141.227-1.56.638l-.923.909a.188.188 0 0 1-.264-.001l-.897-.897a2.224 2.224 0 0 0-1.571-.65h-2.263a.592.592 0 0 1-.591-.59V13.86c0-.044.016-.087.045-.121.09-.105.17-.217.242-.335.349-.581.533-1.246.533-1.924V8.809h-2.039v8.334c0 1 .81 1.81 1.81 1.81h2.263c.266 0 .522.106.71.294l1.531 1.528a.503.503 0 0 0 .708.003l1.56-1.536c.19-.184.443-.289.706-.289h2.235a1.81 1.81 0 0 0 1.71-1.218h-3.945z" fill="#E8E8E8"/><path d="M29.974 13.773l-2.71.092a1.508 1.508 0 0 0-1.124.503l-1.573 1.731a.704.704 0 0 1-1.053-.004l-1.456-1.762a1.51 1.51 0 0 0-1.132-.512l-3.106.174a2.515 2.515 0 0 1-2.514-2.514V3.217A2.513 2.513 0 0 1 17.82.703h12.44a2.514 2.514 0 0 1 2.515 2.514v8.264c0 .473-.131.917-.36 1.295-.439.73-1.526.997-2.44.997z" fill="#F8F7F7"/><path d="M32.416 12.776a2.515 2.515 0 0 1-2.155 1.219h-2.997c-.43 0-.839.183-1.125.502l-1.57 1.755a.703.703 0 0 1-1.053-.004l-1.532-1.741a1.509 1.509 0 0 0-1.133-.512H17.82a2.515 2.515 0 0 1-2.514-2.514V3.217c0-.914.488-1.714 1.218-2.155v10.419c0 .715.58 1.295 1.296 1.295h3.031c.784 0 1.53.337 2.047.925l.94 1.068a.28.28 0 0 0 .42.001l.973-1.085a2.724 2.724 0 0 1 2.032-.909h5.153z" fill="#E8E8E8"/><path d="M23.814 4.812c.128.12.329.117.458-.003a2.566 2.566 0 0 1 1.76-.688c1.394.004 2.531 1.149 2.511 2.525-.027 1.904-2.156 3.52-3.476 4.34-.384.24-.671.305-.847.396a.335.335 0 0 1-.304.004c-.793-.392-4.256-2.062-4.204-4.596.021-1.088.591-2.202 1.595-2.541.244-.083.5-.126.758-.128a2.515 2.515 0 0 1 1.748.691z" fill="#DF646E"/><path d="M25.067 10.986c-.384.24-.7.411-.876.502a.337.337 0 0 1-.303.004c-.794-.392-4.401-2.312-4.35-4.846.021-1.089.765-2.059 1.77-2.396a2.583 2.583 0 0 0-.74 1.74c-.042 2.166 3.093 4.205 4.499 4.996z" fill="#DC4955"/><path d="M26.462 33.554h-4.88l.23 3.254-.23 1.72v.001c.22.254.375.555.65.736 1.044.691 2.5.752 3.53.132.284-.17.468-.602.699-.867l.001-.002v-2.067l-.197-.323.197-2.584z" fill="#E3A76F"/><path d="M31.557 40.627l-2.553-1.051-2.542-.773c-1.288 1.485-3.593 1.62-4.88.133l-4.908 1.691a2.816 2.816 0 0 0-1.742 2.603l.093 3.88.938.187h6.159l1.994-.452 1.766.452H33.3V43.23a2.816 2.816 0 0 0-1.743-2.603z" fill="#CCF49F"/><path d="M22.8 33.554h-1.218v4.974c.153.177.084.475.262.61.204.153.657.137.884.236V37.06a.186.186 0 0 1 .07-.147.187.187 0 0 1 .16-.035c.339.079.72.162 1.063.162.893 0 1.71-.208 2.44-.579v-2.907h-3.66z" fill="#D6995C"/><path d="M22.62 39.374l-2.823 1.207-2.846 1.173a1.59 1.59 0 0 0-.99 1.476v4.067h-1.218V43.23c0-1.14.688-2.168 1.743-2.602l2.54-1.047 1.158-.358 1.347-.604c.327.378.663.57 1.089.755z" fill="#B3E59F"/><path d="M29.004 39.576l-.106.122a13.011 13.011 0 0 0-3.016 7.495v.104h-3.76v-.068a13.005 13.005 0 0 0-2.324-6.648c-.232-.331-.374-.622-.638-.932l-.028-.037 2.45-.987c.327.378.72.563 1.147.75a3.23 3.23 0 0 0 3.732-.846l2.543 1.047z" fill="#F8F7F7"/><path d="M22.728 39.374l-2.93 1.208a12.85 12.85 0 0 0-.743-.964l-.029-.037 2.556-1.053a3.224 3.224 0 0 0 1.146.846z" fill="#E8E8E8"/><path d="M29.329 28.047c0-3.531-1.777-6.361-5.308-6.361-3.531 0-5.132 2.854-5.132 6.386 0 .59-.27 1.206-.164 1.81.528 3.018 2.354 5.939 5.296 5.939 3.133 0 5-3.312 5.383-6.525.048-.41-.075-.85-.075-1.249z" fill="#E3A76F"/><path d="M29.477 28.08c0-2.582-1.03-4.805-2.964-5.814-.061.076-.187.028-.166-.084-.673-.319-1.45-.496-2.326-.496-3.531 0-5.456 2.863-5.456 6.394 0 .59.054 1.198.16 1.803.082-.11.194-.189.302-.29.923-.869 2.249-.9 2.39-1.809a.188.188 0 0 1 .236-.157c1.05.292 2.757-.374 3.328-1.53a.187.187 0 0 1 .292-.055c.534.468 1.236.456 1.542.424a.188.188 0 0 1 .198.125c.53 1.551 1.985.982 2.39 2.705.05-.41.074-.817.074-1.216z" fill="#D6995C"/><path d="M29.96 23.278a2.596 2.596 0 0 0-.218-.045.093.093 0 0 1-.07-.13 1.966 1.966 0 0 0-1.604-2.798 1.964 1.964 0 0 0-1.564.564.094.094 0 0 1-.093.024.093.093 0 0 1-.065-.072 2.39 2.39 0 0 0-3.847-1.4.095.095 0 0 1-.132-.013 1.969 1.969 0 0 0-3.457 1 .094.094 0 0 1-.089.082c-.216.012-.43.05-.637.11-1.163.346-1.885 1.473-1.885 2.748 0 .723.269 1.273.718 1.771a.091.091 0 0 1 .024.066c-.013.191-.066 1.084.088 1.905.281 1.5 1.436 1.913 1.436 1.913 0-.442.214-.612.461-.816.574-.474 1.564-.56 1.813-1.433a.092.092 0 0 1 .103-.067c.151.026.474.079.668.079a3.375 3.375 0 0 0 3.15-2.166.09.09 0 0 1 .155-.022 2.293 2.293 0 0 0 2.426.79.093.093 0 0 1 .113.061c.576 1.88 2.015 1.273 2.015 3.028.943-.426 1.507-1.881 1.775-2.849a1.895 1.895 0 0 0-1.285-2.33z" fill="#855B51"/><path d="M19.026 28.187c-.247.204-.408.489-.408.931 0 0-1.321-.477-1.602-1.977-.154-.82-.11-1.706-.098-1.897a.09.09 0 0 0-.023-.066 2.81 2.81 0 0 1 1.29-4.577 2.802 2.802 0 0 0-.982 2.133c0 .724.274 1.383.723 1.882a.089.089 0 0 1 .023.066c-.012.19-.056 1.076.098 1.896.15.804.597 1.31.979 1.609z" fill="#724D44"/><path d="M38.211 17.486a.922.922 0 0 0 .834-.009c.748-.389 3.187-1.812 3.215-3.77.04-1.173-1.025-2.38-2.345-2.358-.458-.001-.907.13-1.291.38a2.331 2.331 0 0 0-1.278-.38c-1.22-.013-2.334 1.058-2.362 2.334-.04 2.032 2.46 3.425 3.227 3.803zm-.872-4.731h.007c.24 0 .468.092.646.259a.923.923 0 0 0 1.26 0 .969.969 0 0 1 .663-.26c.376.007.915.307.939.933-.013.927-1.326 1.908-2.24 2.425-.925-.498-2.243-1.456-2.224-2.4.01-.507.454-.954.95-.957zM8.95 17.487a.922.922 0 0 0 .834-.01c.747-.389 3.186-1.812 3.214-3.77.04-1.173-1.025-2.38-2.345-2.358-.458-.001-.906.13-1.291.38a2.332 2.332 0 0 0-1.294-.38c-1.268.009-2.32 1.056-2.346 2.334-.04 2.032 2.46 3.425 3.228 3.804zm-.872-4.732h.006c.24 0 .469.092.646.259a.923.923 0 0 0 1.26 0 .969.969 0 0 1 .663-.26c.377.007.915.307.94.933-.014.927-1.327 1.908-2.241 2.425-.925-.498-2.243-1.456-2.224-2.4.01-.507.454-.954.95-.957z" fill="#000"/><path d="M4.503 19.657h2.262a.3.3 0 0 1 .213.088l1.532 1.528a1.203 1.203 0 0 0 .851.35c.306 0 .612-.114.846-.344l1.561-1.536a.3.3 0 0 1 .212-.087h2.235a2.516 2.516 0 0 0 2.514-2.513v-2.636c.35.127.719.191 1.091.19h3.032a.809.809 0 0 1 .604.274l1.533 1.741a1.409 1.409 0 0 0 1.05.477h.006c.4 0 .782-.17 1.049-.468l1.57-1.755a.807.807 0 0 1 .6-.268h2.997c.346 0 .679-.056.991-.157v2.602a2.516 2.516 0 0 0 2.513 2.514h2.263a.3.3 0 0 1 .213.088l1.532 1.528a1.204 1.204 0 0 0 .851.35c.306 0 .612-.114.846-.344l1.561-1.536a.3.3 0 0 1 .212-.087h2.235a2.516 2.516 0 0 0 2.514-2.513V10.62a2.516 2.516 0 0 0-2.514-2.514h-10V3.217A3.22 3.22 0 0 0 30.261 0h-5.728a.703.703 0 1 0 0 1.406h5.728c.999 0 1.81.813 1.81 1.811v8.264c0 .998-.811 1.81-1.81 1.81h-2.998a2.216 2.216 0 0 0-1.648.737l-1.57 1.755-1.533-1.741a2.214 2.214 0 0 0-1.66-.75H17.82c-.998 0-1.81-.813-1.81-1.811V3.217c0-.998.812-1.81 1.81-1.81h3.432a.703.703 0 1 0 0-1.407H17.82a3.22 3.22 0 0 0-3.217 3.217v4.889h-10.1a2.516 2.516 0 0 0-2.514 2.513v6.524a2.516 2.516 0 0 0 2.514 2.514zM43.478 9.512c.61 0 1.107.496 1.107 1.107v6.524c0 .61-.496 1.107-1.107 1.107h-2.235a1.699 1.699 0 0 0-1.198.49l-1.42 1.397-1.39-1.388a1.698 1.698 0 0 0-1.207-.499h-2.263c-.61 0-1.107-.496-1.107-1.107v-3.52c.51-.57.82-1.32.82-2.142V9.51h10zM3.396 10.619c0-.61.496-1.107 1.107-1.107h10.1v1.969c0 .766.27 1.47.72 2.024v3.638c0 .61-.497 1.107-1.108 1.107H11.98a1.699 1.699 0 0 0-1.198.49l-1.42 1.397-1.39-1.388a1.7 1.7 0 0 0-1.207-.499H4.502c-.61 0-1.107-.497-1.107-1.107V10.62z" fill="#000"/><path d="M18.835 6.631c-.058 2.896 3.615 4.935 4.741 5.491a1.039 1.039 0 0 0 .94-.01c1.1-.573 4.69-2.66 4.73-5.456.06-1.643-1.438-3.274-3.222-3.238-.723 0-1.415.234-1.982.666a3.22 3.22 0 0 0-1.982-.666c-1.743.012-3.19 1.454-3.225 3.213zm3.235-1.807h.013c.464 0 .907.177 1.248.5a1.04 1.04 0 0 0 1.42 0c.346-.323.798-.5 1.273-.5.863-.015 1.84.767 1.817 1.811-.023 1.557-2.03 3.18-3.81 4.142-1.805-.926-3.822-2.523-3.79-4.117.02-.988.858-1.829 1.83-1.836zM46.302 42.59V32.347c0-4.215-3.43-7.645-7.645-7.645-1.211 0-2.418.29-3.488.841a.703.703 0 1 0 .642 1.25 6.168 6.168 0 0 1 2.846-.685 6.245 6.245 0 0 1 6.239 6.239v9.001c-.02-.008-.038-.018-.057-.026l-3.541-1.459v-1.375c1.353-1.35 2.393-3.517 2.393-5.51 0-2.568-1.143-4.585-3.057-5.396a.702.702 0 0 0-.545-.002.731.731 0 0 0-.416.499 5.072 5.072 0 0 1-3.886 3.866l-1.609.345c-.27.052-.553.376-.554.828.048 1.974 1.072 4.066 2.393 5.38v1.365l-2.797 1.153a3.5 3.5 0 0 0-.801-.723v-7.946c0-1.29.39-2.526 1.127-3.577a.704.704 0 1 0-1.152-.807 7.597 7.597 0 0 0-1.381 4.384v7.295l-3.848-1.586v-2.67c1.762-1.428 2.805-3.995 3-6.52.921-.662 1.46-2 1.757-3.07a2.607 2.607 0 0 0-.342-2.148 2.576 2.576 0 0 0-1.06-.909 2.662 2.662 0 0 0-2.392-3.136 2.686 2.686 0 0 0-1.382.248 3.092 3.092 0 0 0-4.236-1.281A2.646 2.646 0 0 0 20.86 18a2.658 2.658 0 0 0-2.542 1.844 3.496 3.496 0 0 0-2.849 3.453c0 .78.258 1.537.736 2.152-.012.395-.011 1.123.12 1.821.246 1.313 1.117 2.001 1.642 2.305.062.458.151.913.268 1.361.082.265.425.62.858.502a.703.703 0 0 0 .502-.858c-.125-.48-.215-.968-.27-1.46-.03-.273.071-.392.688-.693.417-.2.95-.454 1.28-.979 1.402.157 2.967-.623 3.727-1.819.48.312 1.205.592 1.957.516.358.767.865 1.116 1.254 1.384.42.289.548.379.55.91-.145 3.285-1.963 6.678-4.76 6.678-1.546 0-2.584-.982-3.182-1.806a.703.703 0 0 0-1.138.827c.358.493.752.912 1.177 1.256v2.663l-4.66 1.92a3.514 3.514 0 0 0-1.405 1.053l-2.829-1.166v-2.162c.991-.88 1.837-2.166 2.283-3.576a.703.703 0 0 0 .492-.316c.73-1.142 2.135-4.605-.116-6.884-.885-.896-2.13-1.084-3.156-.888a2.227 2.227 0 0 0-.148-.27c-.95-1.484-3.403-1.692-5.587-.474a.703.703 0 0 0 .685 1.228c1.638-.913 3.245-.736 3.718.004.196.306.209.776.035 1.29-.259.765-1 1.75-2.303 2.224a8.256 8.256 0 0 0-3.177 2.08c-.265-.927-.417-2.252-.054-3.456a.703.703 0 1 0-1.346-.406c-.65 2.152-.013 4.62.62 5.61a.703.703 0 0 0 .51.319c.45 1.382 1.288 2.642 2.263 3.51v2.167c-.064.028-3.512 1.444-3.58 1.477a3.038 3.038 0 0 0-1.849 2.802v2.215c0 .906.737 1.642 1.642 1.642h42.169c.905 0 1.641-.736 1.641-1.642v-2.215c0-.547-.146-1.083-.424-1.553zM28.106 25.15a.705.705 0 0 0-.894-.479 1.595 1.595 0 0 1-1.814-.623.703.703 0 0 0-1.25.175 2.666 2.666 0 0 1-2.538 1.838c-.13 0-.446-.048-.618-.08a.703.703 0 0 0-.819.539c-.06.275-.27.4-.767.637-.371.178-.86.412-1.178.86a1.923 1.923 0 0 1-.52-1.007c-.154-.819-.087-1.74-.086-1.75a.703.703 0 0 0-.185-.532 2.103 2.103 0 0 1-.562-1.432c0-1.148.899-2.074 2.046-2.108a.703.703 0 0 0 .68-.637 1.259 1.259 0 0 1 1.259-1.146c.397 0 .764.183 1.007.502a.704.704 0 0 0 1.023.104 1.686 1.686 0 0 1 2.787 1.077.703.703 0 0 0 1.24.37c.27-.326.666-.491 1.09-.454.599.052 1.091.544 1.144 1.143.024.252-.029.504-.15.726a.702.702 0 0 0 .543 1.037c.31.027.62.18.866.518a1.204 1.204 0 0 1 .157.99c-.197.712-.445 1.305-.713 1.73-.237-.373-.558-.594-.825-.778-.403-.278-.721-.497-.923-1.22zm7.975 8.17a6.485 6.485 0 0 0 4.696-4.036c.956.747 1.508 2.069 1.508 3.693 0 2.524-2.196 5.443-3.628 5.443-1.328 0-3.31-2.485-3.594-4.881l1.018-.218zM22.773 46.595a13.816 13.816 0 0 0-2.618-6.718l1.261-.52a3.928 3.928 0 0 0 5.212 0l1.24.512a13.823 13.823 0 0 0-2.639 6.726h-2.456zm6.443-6.17l2.073.854a2.105 2.105 0 0 1 1.307 1.953v3.363h-5.95a12.398 12.398 0 0 1 2.57-6.17zm-5.195-3.9a4.83 4.83 0 0 0 1.738-.318v2.041a2.522 2.522 0 0 1-3.474 0v-2.04c.548.209 1.129.317 1.736.317zm-9.98 10.07h-1.226l1.226-1.424v1.424zm.008-3.588l-3.09 3.588h-3.2l-3.224-4.316 2.711-1.117a3.263 3.263 0 0 0 4.195 0l2.73 1.125a3.525 3.525 0 0 0-.122.72zm-.406-15.092c1.223 1.24.838 3.12.355 4.297a11.904 11.904 0 0 0-1.925-1.557c-.504-.323-.912-.75-1.158-1.207.259-.366.465-.762.607-1.18.095-.28.154-.56.18-.834.584-.12 1.394-.072 1.94.481zm-8.02 5.287a6.83 6.83 0 0 1 2.745-1.84 5.534 5.534 0 0 0 1.545-.86 4.9 4.9 0 0 0 1.402 1.337 10.55 10.55 0 0 1 1.735 1.415c-.542 2.308-2.433 4.23-3.707 4.23-1.275 0-3.193-1.954-3.72-4.282zm3.72 5.688c.406 0 .823-.095 1.235-.27v1.43a1.857 1.857 0 0 1-2.468 0v-1.433c.412.176.828.273 1.233.273zm-6.662 7.47v-2.216c0-.487.212-.934.565-1.24l2.758 3.69H2.916a.236.236 0 0 1-.235-.235zm12.766-3.129a2.105 2.105 0 0 1 1.308-1.952l2.055-.847a12.393 12.393 0 0 1 2.546 6.163h-5.909V43.23zm18.555 3.364V43.23c0-.33-.047-.652-.134-.96l2.154-.887c.028 1.771.192 3.633 1.177 5.21h-3.197zm3.421-6.26v-.812c.41.195.827.305 1.234.305.407 0 .823-.11 1.234-.306v.816c0 2.11 0 4.287-1.234 5.892-1.233-1.602-1.234-3.782-1.234-5.894v-.002zm7.897 6.024a.235.235 0 0 1-.235.236h-4.97c.986-1.58 1.15-3.44 1.177-5.211l3.01 1.24h.001a1.638 1.638 0 0 1 1.017 1.52v2.215z" fill="#000"/></svg>