<svg width="76" height="76" viewBox="0 0 76 76" fill="none" xmlns="http://www.w3.org/2000/svg">
<circle cx="38" cy="38" r="35" fill="#40637D" stroke="#EBF7FF" stroke-width="6"/>
<g clip-path="url(#clip0_1472_7068)">
<path d="M54.5488 40.7586C54.5488 49.9 47.1384 57.3104 37.997 57.3104C28.8557 57.3104 21.4453 49.9 21.4453 40.7586C21.4453 31.6173 28.8557 24.2069 37.997 24.2069C47.1384 24.2069 54.5488 31.6173 54.5488 40.7586Z" fill="#D7E6EB"/>
<path d="M41.4453 53.1724L49.7212 58L57.997 53.1724V42.8276L49.7212 38L41.4453 42.8276V53.1724Z" fill="#FFC119"/>
<path d="M58.0024 53.1724L49.7266 58V47.6552L58.0024 42.8276V53.1724Z" fill="#EA732D"/>
<path d="M41.4453 53.1724L49.7212 58V47.6552L41.4453 42.8276V53.1724Z" fill="#FAAC2B"/>
<path d="M18 53.1724L26.2759 58L34.5517 53.1724V42.8276L26.2759 38L18 42.8276V53.1724Z" fill="#FFC119"/>
<path d="M34.5493 53.1724L26.2734 58V47.6552L34.5493 42.8276V53.1724Z" fill="#EA732D"/>
<path d="M18 53.1724L26.2759 58V47.6552L18 42.8276V53.1724Z" fill="#FAAC2B"/>
<path d="M29.7266 33.1724L38.0024 38L46.2783 33.1724V22.8276L38.0024 18L29.7266 22.8276V33.1724Z" fill="#FFC119"/>
<path d="M20.7578 51.5877V47.6302L23.5164 49.2399V53.1973L20.7578 51.5877Z" fill="#047FA7"/>
<path d="M55.243 51.5877V47.6302L52.4844 49.2399V53.1973L55.243 51.5877Z" fill="#06687F"/>
<path d="M46.2759 33.1724L38 38V27.6552L46.2759 22.8276V33.1724Z" fill="#EA732D"/>
<path d="M29.7266 33.1724L38.0024 38V27.6552L29.7266 22.8276V33.1724Z" fill="#FAAC2B"/>
<path d="M35.1992 22.8276L38.0006 21.1937L40.802 22.8276L38.0006 24.4615L35.1992 22.8276ZM41.5506 30.7735L42.7275 30.0542L43.4016 31.157L42.2247 31.8763L41.5506 30.7735ZM42.8575 32.9145L44.0344 32.1952L49.0441 40.3929L47.8672 41.1123L42.8575 32.9145ZM48.4266 42.0618L49.6032 41.3432L50.2922 42.4717L49.1159 43.1903L48.4266 42.0618ZM32.6009 31.1563L33.275 30.0538L34.452 30.7731L33.7778 31.876L32.6009 31.1563ZM26.9566 40.3926L31.9658 32.1938L33.1427 32.9131L28.1336 41.1116L26.9566 40.3926ZM25.6875 42.4673L26.3772 41.3386L27.5541 42.0578L26.8644 43.1866L25.6875 42.4673ZM45.5868 49.7242H46.9661V51.1035H45.5868V49.7242ZM31.7937 49.7242H44.2075V51.1035H31.7937V49.7242ZM29.0351 49.7242H30.4144V51.1035H29.0351V49.7242Z" fill="#0093BA"/>
</g>
<defs>
<clipPath id="clip0_1472_7068">
<rect width="40" height="40" fill="white" transform="translate(18 18)"/>
</clipPath>
</defs>
</svg>
