<svg width="32" height="32" fill="none" xmlns="http://www.w3.org/2000/svg"><path fill-rule="evenodd" clip-rule="evenodd" d="M21.917 1.333c4.836 0 8.086 3.395 8.086 8.447v11.773c0 5.052-3.25 8.447-8.086 8.447H9.421c-4.836 0-8.085-3.395-8.085-8.447V9.78c0-5.052 3.25-8.447 8.085-8.447h12.496zm0 2H9.421c-3.696 0-6.085 2.53-6.085 6.447v11.773C3.336 25.471 5.726 28 9.42 28h12.496c3.698 0 6.086-2.53 6.086-6.447V9.78c0-3.917-2.388-6.447-6.086-6.447zM9.497 12.27a1 1 0 0 1 1 1v9.147a1 1 0 0 1-2 0V13.27a1 1 0 0 1 1-1zm6.223-4.379a1 1 0 0 1 1 1v13.524a1 1 0 0 1-2 0V8.891a1 1 0 0 1 1-1zm6.12 9.212a1 1 0 0 1 1 1v4.312a1 1 0 0 1-2 0v-4.312a1 1 0 0 1 1-1z" fill="#30CBFF"/></svg>