<svg width="32" height="32" fill="none" xmlns="http://www.w3.org/2000/svg"><path fill-rule="evenodd" clip-rule="evenodd" d="M15.667 1.334c3.83 0 7.43 1.49 10.135 4.194 5.59 5.59 5.59 14.683 0 20.272-2.74 2.742-6.43 4.192-10.167 4.192-2.037 0-4.088-.43-6.006-1.318-.566-.227-1.095-.44-1.475-.44-.437.002-1.025.205-1.593.401-1.166.4-2.616.899-3.69-.17-1.07-1.071-.576-2.518-.178-3.682.196-.573.397-1.165.397-1.613 0-.368-.177-.838-.45-1.514C.144 16.263 1.299 9.763 5.535 5.53a14.232 14.232 0 0 1 10.133-4.196zm.002 2a12.248 12.248 0 0 0-8.722 3.61c-3.645 3.643-4.637 9.236-2.47 13.92.312.772.613 1.524.613 2.306 0 .78-.268 1.565-.504 2.258-.195.571-.49 1.432-.3 1.622.185.192 1.052-.11 1.624-.307.687-.235 1.465-.504 2.237-.51.774 0 1.503.294 2.275.605 4.73 2.186 10.322 1.192 13.966-2.45 4.808-4.812 4.808-12.637 0-17.445a12.248 12.248 0 0 0-8.72-3.61zm5.262 11.55a1.333 1.333 0 1 1 0 2.667 1.338 1.338 0 0 1-1.339-1.334c0-.737.591-1.333 1.327-1.333h.012zm-5.345 0a1.333 1.333 0 1 1 0 2.667 1.338 1.338 0 0 1-1.339-1.334c0-.737.59-1.333 1.327-1.333h.012zm-5.346 0a1.333 1.333 0 1 1 0 2.667 1.338 1.338 0 0 1-1.338-1.334c0-.737.59-1.333 1.326-1.333h.012z" fill="#30CBFF"/></svg>