<svg width="48" height="48" viewBox="0 0 48 48" fill="none" xmlns="http://www.w3.org/2000/svg">
<g clip-path="url(#clip0_1745_8219)">
<path d="M7.47703 46.4998C10.7781 46.4998 13.4541 43.8238 13.4541 40.5228C13.4541 37.2218 10.7781 34.5457 7.47703 34.5457C4.17601 34.5457 1.5 37.2218 1.5 40.5228C1.5 43.8238 4.17601 46.4998 7.47703 46.4998Z" fill="#FE646F"/>
<path fill-rule="evenodd" clip-rule="evenodd" d="M7.48206 34.5457C10.7831 34.5457 13.4591 37.2217 13.4591 40.5227C13.4591 43.8238 10.7831 46.4998 7.48206 46.4998C7.31978 46.4998 7.159 46.493 7 46.4804C10.0757 46.2348 12.495 43.6615 12.495 40.5227C12.495 37.384 10.0756 34.8106 7 34.5651C7.16037 34.5523 7.32118 34.5458 7.48206 34.5457Z" fill="#FD4755"/>
<path fill-rule="evenodd" clip-rule="evenodd" d="M1.5 14.1874V2.27387C1.5 1.84769 1.84762 1.49997 2.27381 1.50006H25.8455C26.2717 1.49997 26.6194 1.84759 26.6194 2.27387V14.1875C26.6194 14.6138 26.2717 14.9613 25.8455 14.9613H2.27381C1.84762 14.9613 1.5 14.6137 1.5 14.1874Z" fill="#6CF5C2"/>
<path fill-rule="evenodd" clip-rule="evenodd" d="M1.5 14.1874V13.9564H24.8737C25.3 13.9565 25.6477 13.6089 25.6477 13.1827V1.50006H25.8456C26.2717 1.49997 26.6195 1.84759 26.6195 2.27378V14.1874C26.6195 14.6137 26.2718 14.9613 25.8456 14.9613H2.27391C1.84762 14.9613 1.5 14.6137 1.5 14.1874Z" fill="#00E499"/>
<path fill-rule="evenodd" clip-rule="evenodd" d="M22.5729 12.4325C22.5729 11.4722 23.3333 10.6939 24.2713 10.6939V5.76756C23.3333 5.76756 22.5729 4.98915 22.5729 4.02887H5.54212C5.54212 4.98915 4.78172 5.76756 3.84375 5.76756V10.6939C4.78172 10.6939 5.54212 11.4722 5.54212 12.4325H22.5729Z" fill="#ECEFF1"/>
<path fill-rule="evenodd" clip-rule="evenodd" d="M22.5729 12.4325C22.5729 12.1545 22.6368 11.8918 22.7501 11.6587H6.31594C6.31594 10.6984 5.55553 9.92012 4.61756 9.92012V5.57697C4.37892 5.70237 4.11333 5.76775 3.84375 5.76747V10.6938C4.78172 10.6938 5.54222 11.4722 5.54222 12.4324L22.5729 12.4325Z" fill="#D1D1D6"/>
<path fill-rule="evenodd" clip-rule="evenodd" d="M40.1399 3.39904C40.8168 3.56033 41.4637 3.82851 42.0562 4.19348L43.3014 3.64045L44.7689 5.10801L44.2161 6.35283C44.5812 6.94543 44.8494 7.59246 45.0106 8.26954L46.281 8.75854V10.834L45.0103 11.3231C44.8491 12 44.5809 12.6468 44.2159 13.2392L44.7689 14.4844L43.3014 15.952L42.0566 15.3991C41.464 15.7642 40.8169 16.0325 40.1398 16.1937L39.6509 17.4641H37.5755L37.0864 16.1934C36.4095 16.0321 35.7626 15.7639 35.1702 15.399L33.925 15.952L32.4574 14.4844L33.0103 13.2396C32.6451 12.647 32.3769 12 32.2157 11.3229L30.9453 10.834V8.75845L32.2158 8.26936C32.3771 7.59241 32.6453 6.94551 33.0103 6.35301L32.4573 5.10801L33.9249 3.64045L35.1701 4.19348C35.7625 3.82849 36.4094 3.56031 37.0863 3.39904L37.5754 2.12836H39.6508L40.1399 3.39904Z" fill="#FFE177"/>
<path fill-rule="evenodd" clip-rule="evenodd" d="M35.1713 15.3988L33.9261 15.9518L33.7344 15.7601L34.9018 15.2415C34.9904 15.2961 35.0802 15.3486 35.1713 15.3988ZM40.1411 3.39895C40.818 3.56024 41.4648 3.82841 42.0573 4.19339L41.7034 4.35061C41.1108 3.98573 40.1948 3.56011 39.5177 3.39904L39.0286 2.12836H39.6521L40.1411 3.39895ZM42.0578 15.399C41.4652 15.7641 40.8182 16.0323 40.1411 16.1935L39.6522 17.4639H39.0287L39.5177 16.1935C40.1949 16.0324 41.1112 15.6068 41.7039 15.2417L42.0578 15.399ZM33.7344 3.83198L33.9261 3.64026L35.1713 4.19329C35.0802 4.24352 34.9904 4.29594 34.9018 4.35051L33.7344 3.83198ZM42.8708 3.83198L43.3025 3.64026L44.7701 5.10783L44.2172 6.35264C44.5823 6.94524 44.8505 7.59227 45.0117 8.26936L46.2822 8.75836V10.8338L45.0115 11.3229C44.8502 11.9998 44.582 12.6466 44.217 13.239L44.7701 14.4842L43.3025 15.9518L42.8708 15.7601L44.1466 14.4842L43.5936 13.239C43.9586 12.6466 44.2267 11.9998 44.388 11.3229L45.6587 10.8338V8.75836L44.3883 8.26936C44.2271 7.59227 43.9588 6.94524 43.5938 6.35264L44.1466 5.10783L42.8708 3.83198Z" fill="#FFD064"/>
<path d="M39.1889 13.3745C41.1618 13.0532 42.5007 11.1934 42.1794 9.22052C41.8581 7.24762 39.9983 5.90874 38.0254 6.23005C36.0525 6.55136 34.7136 8.41118 35.0349 10.3841C35.3562 12.357 37.216 13.6959 39.1889 13.3745Z" fill="#ECEFF1"/>
<path fill-rule="evenodd" clip-rule="evenodd" d="M38.6115 6.17682C36.6125 6.17682 34.9922 7.7971 34.9922 9.79613C34.9922 11.7952 36.6125 13.4154 38.6115 13.4154C38.7084 13.4154 38.8044 13.4115 38.8994 13.4041C37.035 13.2574 35.568 11.6983 35.568 9.79622C35.568 7.89404 37.035 6.33498 38.8994 6.18826C38.8036 6.18062 38.7076 6.1768 38.6115 6.17682Z" fill="#D1D1D6"/>
<path fill-rule="evenodd" clip-rule="evenodd" d="M23.5848 40.3585H25.3038C25.7119 40.3585 26.0448 40.6913 26.0448 41.0995V45.7586C26.0448 46.1666 25.7119 46.4996 25.3038 46.4996H23.5848C23.1767 46.4996 22.8438 46.1667 22.8438 45.7586V41.0995C22.8438 40.6913 23.1767 40.3585 23.5848 40.3585Z" fill="#FE646F"/>
<path fill-rule="evenodd" clip-rule="evenodd" d="M24.3828 40.3584H25.3091C25.7172 40.3584 26.0501 40.6913 26.0501 41.0994V45.7585C26.0501 46.1666 25.7172 46.4995 25.3091 46.4995H24.3828C24.7909 46.4995 25.1238 46.1666 25.1238 45.7585V41.0994C25.1237 40.6912 24.7909 40.3584 24.3828 40.3584Z" fill="#FD4755"/>
<path fill-rule="evenodd" clip-rule="evenodd" d="M30.4051 34.9579H32.1242C32.5322 34.9579 32.8652 35.2907 32.8652 35.6989V45.7584C32.8652 46.1665 32.5323 46.4994 32.1242 46.4994H30.4051C29.997 46.4994 29.6641 46.1665 29.6641 45.7584V35.6988C29.6642 35.2907 29.997 34.9579 30.4051 34.9579Z" fill="#FFE177"/>
<path fill-rule="evenodd" clip-rule="evenodd" d="M31.1953 34.9579H32.1216C32.5297 34.9579 32.8626 35.2907 32.8626 35.6989V45.7584C32.8626 46.1665 32.5297 46.4994 32.1216 46.4994H31.1953C31.6034 46.4994 31.9363 46.1665 31.9363 45.7584V35.6988C31.9363 35.2907 31.6035 34.9579 31.1953 34.9579Z" fill="#FFD064"/>
<path fill-rule="evenodd" clip-rule="evenodd" d="M37.2254 37.1409H38.9445C39.3526 37.1409 39.6855 37.4738 39.6855 37.8819V45.7585C39.6855 46.1666 39.3526 46.4995 38.9445 46.4995H37.2254C36.8173 46.4995 36.4844 46.1666 36.4844 45.7585V37.8819C36.4844 37.4738 36.8173 37.1409 37.2254 37.1409Z" fill="#6CF5C2"/>
<path fill-rule="evenodd" clip-rule="evenodd" d="M38.0156 37.1409H38.9419C39.35 37.1409 39.6829 37.4738 39.6829 37.8819V45.7585C39.6829 46.1666 39.35 46.4995 38.9419 46.4995H38.0156C38.4237 46.4995 38.7566 46.1666 38.7566 45.7585V37.8819C38.7566 37.4737 38.4237 37.1409 38.0156 37.1409Z" fill="#00E499"/>
<path fill-rule="evenodd" clip-rule="evenodd" d="M44.0379 30.7588H45.757C46.1651 30.7588 46.498 31.0916 46.498 31.4998V45.7584C46.498 46.1665 46.1651 46.4994 45.757 46.4994H44.0379C43.6298 46.4994 43.2969 46.1665 43.2969 45.7584V31.4998C43.2969 31.0917 43.6298 30.7588 44.0379 30.7588Z" fill="#8AC9FE"/>
<path fill-rule="evenodd" clip-rule="evenodd" d="M44.8281 30.7589H45.7544C46.1625 30.7589 46.4954 31.0918 46.4954 31.4998V45.7585C46.4954 46.1666 46.1626 46.4995 45.7544 46.4995H44.8281C45.2362 46.4995 45.5691 46.1666 45.5691 45.7585V31.4998C45.5691 31.0918 45.2362 30.7589 44.8281 30.7589Z" fill="#60B7FF"/>
<path d="M24.8222 35.213C25.7038 35.0039 26.2491 34.1197 26.04 33.2381C25.8309 32.3564 24.9468 31.8112 24.0651 32.0203C23.1835 32.2293 22.6382 33.1135 22.8473 33.9952C23.0564 34.8768 23.9405 35.422 24.8222 35.213Z" fill="#FE646F"/>
<path fill-rule="evenodd" clip-rule="evenodd" d="M24.4408 31.9905C25.3469 31.9905 26.0814 32.725 26.0814 33.6311C26.0814 34.5372 25.3469 35.2717 24.4408 35.2717C24.3454 35.2718 24.2502 35.2635 24.1562 35.2471C24.9268 35.1124 25.5124 34.4402 25.5124 33.6311C25.5124 32.822 24.9268 32.1499 24.1562 32.0151C24.2487 31.999 24.3438 31.9905 24.4408 31.9905Z" fill="#FD4755"/>
<path d="M31.5217 30.0766C32.416 29.931 33.0229 29.0879 32.8773 28.1936C32.7317 27.2993 31.8886 26.6924 30.9943 26.838C30.1 26.9837 29.4931 27.8267 29.6387 28.721C29.7844 29.6153 30.6274 30.2223 31.5217 30.0766Z" fill="#FFE177"/>
<path fill-rule="evenodd" clip-rule="evenodd" d="M31.2611 26.8134C32.1672 26.8134 32.9017 27.548 32.9017 28.4541C32.9017 29.3602 32.1672 30.0947 31.2611 30.0947C31.1657 30.0947 31.0705 30.0865 30.9766 30.07C31.747 29.9353 32.3327 29.2631 32.3327 28.4541C32.3327 27.645 31.747 26.9728 30.9766 26.8381C31.0705 26.8217 31.1657 26.8134 31.2611 26.8134Z" fill="#FFD064"/>
<path d="M39.6125 32.0198C39.9596 31.1828 39.5624 30.2229 38.7254 29.8759C37.8884 29.5289 36.9285 29.926 36.5815 30.763C36.2345 31.6 36.6316 32.5599 37.4686 32.9069C38.3056 33.254 39.2655 32.8568 39.6125 32.0198Z" fill="#6CF5C2"/>
<path fill-rule="evenodd" clip-rule="evenodd" d="M38.0814 29.7454C38.9875 29.7454 39.722 30.4799 39.722 31.386C39.722 32.2921 38.9875 33.0266 38.0814 33.0266C37.986 33.0266 37.8908 33.0184 37.7969 33.002C38.5674 32.8672 39.1531 32.195 39.1531 31.386C39.1531 30.5769 38.5674 29.9047 37.7969 29.77C37.8893 29.7539 37.9844 29.7454 38.0814 29.7454Z" fill="#00E499"/>
<path d="M44.8984 26.8238C45.8045 26.8238 46.5391 26.0893 46.5391 25.1832C46.5391 24.2771 45.8045 23.5425 44.8984 23.5425C43.9923 23.5425 43.2578 24.2771 43.2578 25.1832C43.2578 26.0893 43.9923 26.8238 44.8984 26.8238Z" fill="#8AC9FE"/>
<path fill-rule="evenodd" clip-rule="evenodd" d="M44.9017 23.5425C45.8078 23.5425 46.5423 24.2771 46.5423 25.1832C46.5423 26.0893 45.8078 26.8238 44.9017 26.8238C44.8063 26.8238 44.7111 26.8156 44.6172 26.7991C45.3877 26.6644 45.9734 25.9922 45.9734 25.1832C45.9734 24.3741 45.3877 23.7019 44.6172 23.5672C44.7096 23.5511 44.8047 23.5425 44.9017 23.5425Z" fill="#60B7FF"/>
<path fill-rule="evenodd" clip-rule="evenodd" d="M17.1999 30.5421C17.7705 30.5421 18.2375 31.009 18.2375 31.5797V32.3415C18.2375 32.9121 17.7706 33.3791 17.1999 33.3791H10.6783C10.1076 33.3791 9.64062 32.9122 9.64062 32.3415V31.5797C9.64062 31.0091 10.1075 30.5421 10.6783 30.5421C10.1076 30.5421 9.64062 30.0752 9.64062 29.5045V28.7427C9.64062 28.172 10.1075 27.705 10.6783 27.705C10.1076 27.705 9.64062 27.2382 9.64062 26.6674V25.9056C9.64062 25.3349 10.1075 24.868 10.6783 24.868H17.1999C17.7705 24.868 18.2375 25.3349 18.2375 25.9056V26.6674C18.2375 27.2381 17.7706 27.705 17.1999 27.705C17.7705 27.705 18.2375 28.1719 18.2375 28.7427V29.5045C18.2375 30.0752 17.7706 30.5421 17.1999 30.5421Z" fill="#FFE177"/>
<path fill-rule="evenodd" clip-rule="evenodd" d="M17.1981 30.5421C17.7687 30.5421 18.2357 31.009 18.2357 31.5797V32.3415C18.2357 32.9121 17.7688 33.3791 17.1981 33.3791H16.3594C16.93 33.3791 17.397 32.9122 17.397 32.3415V31.5797C17.397 31.0091 16.9301 30.5421 16.3594 30.5421C16.93 30.5421 17.397 30.0752 17.397 29.5045V28.7427C17.397 28.172 16.9301 27.705 16.3594 27.705C16.93 27.705 17.397 27.2382 17.397 26.6674V25.9056C17.397 25.3349 16.9301 24.868 16.3594 24.868H17.1981C17.7687 24.868 18.2357 25.3349 18.2357 25.9056V26.6674C18.2357 27.2381 17.7688 27.705 17.1981 27.705C17.7687 27.705 18.2357 28.1719 18.2357 28.7427V29.5045C18.2357 30.0752 17.7688 30.5421 17.1981 30.5421Z" fill="#FFD064"/>
<path fill-rule="evenodd" clip-rule="evenodd" d="M17.1999 30.5421H10.6783C10.1076 30.5421 9.64062 30.0752 9.64062 29.5046V28.7428C9.64062 28.1721 10.1075 27.7051 10.6783 27.7051H17.1999C17.7705 27.7051 18.2375 28.172 18.2375 28.7428V29.5046C18.2375 30.0752 17.7706 30.5421 17.1999 30.5421Z" fill="#FFD064"/>
<path fill-rule="evenodd" clip-rule="evenodd" d="M17.1981 30.5421H16.3606C16.9307 30.5415 17.397 30.0749 17.397 29.5046V28.7428C17.397 28.1721 16.9301 27.7051 16.3594 27.7051H17.1981C17.7687 27.7051 18.2357 28.172 18.2357 28.7428V29.5046C18.2357 30.0752 17.7688 30.5421 17.1981 30.5421Z" fill="#FFC338"/>
<path d="M13.9391 25.5442C16.313 25.5442 18.2375 23.6197 18.2375 21.2458C18.2375 18.8718 16.313 16.9473 13.9391 16.9473C11.5651 16.9473 9.64062 18.8718 9.64062 21.2458C9.64062 23.6197 11.5651 25.5442 13.9391 25.5442Z" fill="#FFC338"/>
<path fill-rule="evenodd" clip-rule="evenodd" d="M13.9392 16.9473C16.3132 16.9473 18.2377 18.8718 18.2377 21.2458C18.2377 23.6197 16.3132 25.5442 13.9392 25.5442C13.8069 25.5442 13.6761 25.5379 13.5469 25.5262C15.737 25.328 17.453 23.4874 17.453 21.2458C17.453 19.0041 15.737 17.1635 13.5469 16.9653C13.6773 16.9534 13.8082 16.9474 13.9392 16.9473Z" fill="#F5B829"/>
<path fill-rule="evenodd" clip-rule="evenodd" d="M14.6813 7.59075C14.6082 7.52014 14.5501 7.43547 14.5105 7.34184C14.3672 7.00031 13.9753 7.0784 13.9316 7.08853C13.8901 7.09781 13.6868 7.15078 13.6933 7.28137C13.6942 7.29815 13.6959 7.30518 13.6959 7.30518C13.6968 7.30518 13.7824 7.41065 14.1844 7.47637C14.3672 7.50646 14.5322 7.54481 14.6813 7.59075ZM14.5547 9.24853C14.5547 9.24459 14.5547 9.2384 14.5538 9.22959C14.5352 9.0765 14.1619 8.99306 13.9418 8.95687C13.7467 8.92462 13.5733 8.8814 13.4183 8.82937C13.4763 8.90853 13.5184 8.99814 13.5424 9.09328C13.6024 9.33506 13.9175 9.39243 14.0926 9.38803C14.346 9.38184 14.5154 9.29184 14.5547 9.24853ZM16.0427 9.04865C16.0961 9.49209 15.9752 9.89943 15.6919 10.2264C15.4757 10.4771 15.1632 10.6681 14.8041 10.7789C14.7582 11.1496 14.4422 11.4368 14.0601 11.4368C13.6718 11.4368 13.3532 11.1421 13.3139 10.7644C12.7023 10.5526 12.2429 10.0813 12.0872 9.456C11.9871 9.05446 12.2319 8.64712 12.6331 8.547C12.6926 8.53219 12.7536 8.52463 12.8149 8.5245H12.8157C12.3273 8.16178 12.2111 7.67812 12.1953 7.35384C12.1586 6.61471 12.5981 5.985 13.3126 5.71228C13.328 5.52467 13.4135 5.34975 13.552 5.22228C13.6905 5.09482 13.8719 5.02415 14.0602 5.02434C14.4498 5.02434 14.7706 5.32265 14.8063 5.70346C15.2869 5.88787 15.6818 6.2564 15.8936 6.76115C16.0538 7.14281 15.8747 7.58278 15.4934 7.743C15.3955 7.78378 15.2901 7.80377 15.184 7.80168C15.7894 8.13881 15.992 8.6339 16.0427 9.04865ZM20.0433 7.48087H17.6357C17.2223 7.48087 16.8855 7.81621 16.8855 8.23059C16.8855 8.64496 17.2222 8.98078 17.6357 8.98078H20.0433C20.2407 8.97857 20.4293 8.89859 20.5682 8.75818C20.707 8.61778 20.7849 8.42828 20.7849 8.23082C20.7849 8.03336 20.707 7.84387 20.5682 7.70347C20.4293 7.56306 20.2407 7.48308 20.0433 7.48087ZM10.4831 7.48087H8.07684C7.66247 7.48087 7.32666 7.81621 7.32666 8.23059C7.32666 8.64496 7.66247 8.98078 8.07684 8.98078H10.4831C10.8979 8.98078 11.2333 8.64496 11.2333 8.23059C11.2333 7.81621 10.8979 7.48087 10.4831 7.48087ZM23.5239 6.39796V10.0632C22.7721 10.3094 22.1776 10.9162 21.9384 11.6827H6.18113C5.94197 10.9162 5.34759 10.3094 4.59563 10.0632V6.39796C5.34759 6.15178 5.94197 5.54456 6.18113 4.77853H21.9384C22.1777 5.54456 22.7721 6.15168 23.5239 6.39796ZM25.0238 5.7674V10.6938C25.0239 10.7923 25.0045 10.8899 24.9668 10.9809C24.9291 11.0719 24.8738 11.1546 24.8041 11.2243C24.7345 11.2939 24.6518 11.3492 24.5608 11.3869C24.4697 11.4246 24.3722 11.444 24.2737 11.444C23.7507 11.444 23.3249 11.8874 23.3249 12.4324C23.325 12.5309 23.3056 12.6284 23.268 12.7194C23.2303 12.8104 23.1751 12.8931 23.1055 12.9628C23.0359 13.0325 22.9532 13.0877 22.8622 13.1254C22.7712 13.1632 22.6737 13.1826 22.5752 13.1826H5.54447C5.44598 13.1826 5.34845 13.1632 5.25746 13.1254C5.16647 13.0877 5.0838 13.0325 5.01417 12.9628C4.94455 12.8931 4.88933 12.8104 4.85168 12.7194C4.81404 12.6284 4.79469 12.5309 4.79475 12.4324C4.79475 11.8874 4.36894 11.444 3.846 11.444C3.74748 11.444 3.64992 11.4246 3.5589 11.3869C3.46788 11.3492 3.38517 11.2939 3.31551 11.2243C3.24585 11.1546 3.19059 11.0719 3.15289 10.9809C3.1152 10.8899 3.0958 10.7923 3.09581 10.6938V5.7674C3.0958 5.66888 3.1152 5.57133 3.15289 5.4803C3.19059 5.38928 3.24585 5.30658 3.31551 5.23691C3.38517 5.16725 3.46788 5.11199 3.5589 5.07429C3.64992 5.0366 3.74748 5.0172 3.846 5.01721C4.36884 5.01721 4.79475 4.57378 4.79475 4.02881C4.79469 3.93031 4.81404 3.83277 4.85168 3.74176C4.88933 3.65074 4.94455 3.56804 5.01417 3.49837C5.0838 3.42871 5.16647 3.37344 5.25746 3.33573C5.34845 3.29803 5.44598 3.27862 5.54447 3.27862H22.5753C22.6738 3.27862 22.7713 3.29803 22.8623 3.33573C22.9533 3.37344 23.036 3.42871 23.1056 3.49837C23.1752 3.56804 23.2304 3.65074 23.2681 3.74176C23.3057 3.83277 23.3251 3.93031 23.325 4.02881C23.325 4.57378 23.7508 5.01721 24.2738 5.01721C24.3723 5.01721 24.4698 5.03662 24.5608 5.07432C24.6518 5.11202 24.7345 5.16728 24.8042 5.23695C24.8738 5.30661 24.9291 5.38931 24.9668 5.48032C25.0045 5.57134 25.0239 5.66889 25.0238 5.7674ZM2.25038 14.2111V2.25H25.8694V14.2111H2.25038ZM0.75 14.9613V1.4999C0.750075 1.30101 0.829151 1.11028 0.969836 0.969687C1.11052 0.82909 1.30129 0.750133 1.50019 0.750183H26.6195C26.8184 0.750133 27.0091 0.82909 27.1498 0.969687C27.2905 1.11028 27.3696 1.30101 27.3697 1.4999V14.9613C27.3697 15.0598 27.3503 15.1573 27.3125 15.2483C27.2748 15.3393 27.2196 15.4219 27.1499 15.4916C27.0802 15.5612 26.9975 15.6164 26.9065 15.6541C26.8155 15.6917 26.718 15.7111 26.6195 15.711H1.50019C1.40169 15.7111 1.30415 15.6917 1.21314 15.6541C1.12212 15.6164 1.03942 15.5612 0.969753 15.4916C0.900086 15.4219 0.84482 15.3393 0.807114 15.2483C0.769408 15.1573 0.75 15.0598 0.75 14.9613ZM35.7423 9.79621C35.7423 11.3782 37.0295 12.6653 38.6119 12.6653C40.1943 12.6653 41.4818 11.3782 41.4818 9.79621C41.4818 8.21381 40.1943 6.92615 38.6119 6.92615C37.0295 6.92615 35.7423 8.21381 35.7423 9.79621ZM34.2424 9.79621C34.2424 7.38646 36.2025 5.42634 38.6119 5.42634C41.0212 5.42634 42.9818 7.38646 42.9818 9.79621C42.9818 12.2051 41.0212 14.1656 38.6119 14.1656C36.2025 14.1656 34.2424 12.2051 34.2424 9.79621ZM32.4835 8.96925C32.5973 8.9256 32.6987 8.85483 32.7789 8.76309C32.8591 8.67135 32.9157 8.56142 32.9438 8.44284C33.0864 7.84332 33.3242 7.2705 33.648 6.74615C33.7117 6.64234 33.7493 6.52461 33.7574 6.40308C33.7656 6.28154 33.7441 6.15985 33.6948 6.04846L33.3506 5.27409L34.0898 4.53496L34.8638 4.87875C34.9753 4.92814 35.0971 4.94969 35.2188 4.94155C35.3405 4.9334 35.4584 4.89579 35.5623 4.83196C36.0865 4.50871 36.659 4.27125 37.2581 4.12856C37.3768 4.10042 37.4868 4.04382 37.5787 3.96364C37.6706 3.88345 37.7415 3.7821 37.7855 3.66834L38.089 2.87803H39.1344L39.4389 3.66834C39.4825 3.78209 39.5532 3.88347 39.6449 3.96367C39.7366 4.04388 39.8464 4.10048 39.965 4.12856C40.5643 4.27133 41.1371 4.50878 41.6617 4.83196C41.7654 4.89578 41.8831 4.93339 42.0047 4.94154C42.1262 4.94969 42.2479 4.92814 42.3593 4.87875L43.1336 4.53496L43.8732 5.27409L43.5291 6.04809C43.4799 6.15951 43.4584 6.28123 43.4667 6.40276C43.4749 6.52429 43.5125 6.642 43.5763 6.74578C43.8997 7.27037 44.137 7.84334 44.2793 8.44293C44.3077 8.56135 44.3644 8.6711 44.4446 8.76278C44.5247 8.85446 44.6259 8.92534 44.7395 8.96934L45.5298 9.27337V10.3187L44.7395 10.6227C44.6259 10.6666 44.5246 10.7375 44.4445 10.8292C44.3643 10.9209 44.3076 11.0307 44.2793 11.1491C44.1369 11.7485 43.8996 12.3213 43.5763 12.8458C43.5125 12.9496 43.4749 13.0673 43.4667 13.1888C43.4584 13.3103 43.4799 13.432 43.5291 13.5434L43.8732 14.3179L43.1336 15.0575L42.3601 14.7133C42.2486 14.6639 42.1267 14.6423 42.005 14.6505C41.8833 14.6588 41.7654 14.6965 41.6616 14.7606C41.1371 15.0839 40.5643 15.3214 39.9649 15.464C39.8463 15.492 39.7364 15.5486 39.6447 15.6288C39.5531 15.709 39.4824 15.8104 39.4388 15.9242L39.1343 16.714H38.0889L37.7854 15.9237C37.7415 15.8099 37.6705 15.7086 37.5786 15.6284C37.4867 15.5482 37.3767 15.4916 37.258 15.4635C36.6589 15.321 36.0863 15.0835 35.5622 14.7601C35.4585 14.6963 35.3408 14.6587 35.2194 14.6505C35.0979 14.6424 34.9763 14.6639 34.865 14.7133L34.0897 15.0575L33.3505 14.3179L33.6938 13.5439C33.7436 13.4326 33.7654 13.3108 33.7571 13.1892C33.7489 13.0676 33.7109 12.9498 33.6466 12.8463C33.3238 12.3214 33.0865 11.7485 32.9437 11.1491C32.9155 11.0306 32.8588 10.9207 32.7786 10.829C32.6984 10.7373 32.5971 10.6665 32.4834 10.6227L31.694 10.3187V9.27337L32.4835 8.96925ZM31.77 5.41218C31.7088 5.27355 31.6909 5.11965 31.7187 4.97066C31.7464 4.82167 31.8186 4.68457 31.9257 4.57734L33.3929 3.11015C33.5001 3.00288 33.6374 2.93062 33.7865 2.90289C33.9356 2.87516 34.0896 2.89326 34.2282 2.95481L35.1245 3.35287C35.5689 3.11168 36.0372 2.91751 36.5219 2.7735L36.8736 1.85878C36.9281 1.71733 37.0242 1.59572 37.1492 1.50994C37.2742 1.42417 37.4223 1.37824 37.5739 1.37821H39.6496C39.8011 1.37826 39.949 1.4242 40.0739 1.50998C40.1987 1.59577 40.2947 1.71738 40.3491 1.85878L40.7017 2.7735C41.1865 2.91759 41.655 3.11176 42.0996 3.35287L42.9958 2.95481C43.1342 2.8933 43.288 2.87522 43.4369 2.90296C43.5858 2.93069 43.7228 3.00294 43.8298 3.11015L45.2979 4.57734C45.4051 4.68452 45.4773 4.82168 45.505 4.97072C45.5326 5.11976 45.5144 5.27368 45.4528 5.41218L45.0552 6.30796C45.2961 6.75284 45.4903 7.22146 45.6346 7.70634L46.5489 8.05846C46.6904 8.11285 46.8121 8.20883 46.898 8.33377C46.9838 8.4587 47.0298 8.60672 47.0299 8.75831V10.8336C47.0298 10.9851 46.9838 11.1331 46.898 11.2581C46.8121 11.383 46.6904 11.479 46.5489 11.5334L45.6346 11.8855C45.4903 12.3704 45.2959 12.8389 45.0544 13.2834L45.4528 14.1797C45.5144 14.3182 45.5326 14.4721 45.505 14.6211C45.4773 14.7702 45.4051 14.9073 45.2979 15.0145L43.8298 16.4822C43.7227 16.5892 43.5857 16.6612 43.4368 16.6889C43.288 16.7165 43.1342 16.6984 42.9958 16.6371L42.0996 16.239C41.6551 16.4805 41.1866 16.6748 40.7017 16.8188L40.3491 17.7332C40.2947 17.8746 40.1987 17.9962 40.0739 18.082C39.949 18.1678 39.8011 18.2137 39.6496 18.2137H37.5739C37.4223 18.2137 37.2742 18.1678 37.1492 18.082C37.0242 17.9962 36.9281 17.8746 36.8736 17.7332L36.5219 16.8185C36.0372 16.6745 35.5689 16.4803 35.1245 16.2391L34.2282 16.6372C34.0896 16.6986 33.9357 16.7166 33.7866 16.689C33.6375 16.6614 33.5003 16.5893 33.3929 16.4823L31.9257 15.0146C31.8186 14.9074 31.7464 14.7703 31.7187 14.6213C31.6909 14.4723 31.7088 14.3184 31.77 14.1798L32.1684 13.284C31.9269 12.8394 31.7327 12.3707 31.5891 11.8856L30.6743 11.5335C30.5329 11.4791 30.4113 11.3831 30.3256 11.2582C30.2398 11.1332 30.1941 10.9852 30.1943 10.8337V8.75831C30.1941 8.60677 30.2398 8.45875 30.3256 8.33379C30.4113 8.20883 30.5329 8.11283 30.6743 8.05846L31.5891 7.70634C31.7327 7.22135 31.9269 6.75281 32.1684 6.30843L31.77 5.41218ZM13.9735 22.608C13.9135 22.6093 13.3823 22.6106 13.2848 22.2205C13.2365 22.0275 13.1137 21.8615 12.9431 21.7591C12.7726 21.6567 12.5683 21.6261 12.3753 21.6742C11.9738 21.7744 11.7293 22.1817 11.8295 22.5832C11.9993 23.265 12.5091 23.7747 13.1859 23.9922C13.1928 24.1865 13.2749 24.3706 13.4149 24.5056C13.5548 24.6406 13.7417 24.716 13.9361 24.7159C14.128 24.7159 14.3125 24.6423 14.4516 24.5103C14.5908 24.3782 14.674 24.1978 14.6841 24.0063C15.09 23.8907 15.4418 23.6815 15.6827 23.4031C15.981 23.0585 16.1085 22.6291 16.0521 22.1614C15.9761 21.5357 15.5684 20.7379 14.061 20.4898C13.8801 20.4607 13.4578 20.3724 13.4494 20.1982C13.4393 19.9947 13.6969 19.9202 13.7759 19.9025C13.9785 19.8562 14.3597 19.8742 14.5098 20.2303C14.67 20.612 15.11 20.7916 15.4916 20.6315C15.8733 20.4712 16.0529 20.0314 15.8928 19.6496C15.6602 19.0949 15.2198 18.6947 14.685 18.5049C14.6749 18.1003 14.343 17.7755 13.9361 17.7755C13.5257 17.7755 13.1917 18.1051 13.1859 18.5141C12.3996 18.7935 11.912 19.4717 11.9513 20.2708C11.9768 20.7951 12.2531 21.7133 13.8183 21.9701C14.5313 22.0875 14.5548 22.279 14.5623 22.3421C14.5689 22.3972 14.5597 22.4083 14.5482 22.4215C14.4744 22.5074 14.2485 22.6014 13.9735 22.608ZM17.4834 25.9057C17.4834 25.7498 17.3524 25.6179 17.1967 25.6179H16.4544C15.7127 26.0473 14.8531 26.294 13.9361 26.294C13.0192 26.294 12.1586 26.0473 11.4169 25.6179H10.6747C10.5189 25.6179 10.3878 25.7498 10.3878 25.9057V26.6677C10.3878 26.8236 10.5188 26.955 10.6747 26.955H17.1967C17.3524 26.955 17.4834 26.8235 17.4834 26.6677V25.9057ZM17.4834 28.7425C17.4834 28.5868 17.3524 28.4548 17.1967 28.4548H10.6747C10.5189 28.4548 10.3878 28.5867 10.3878 28.7425V29.5046C10.3878 29.6603 10.5188 29.7915 10.6747 29.7915H17.1967C17.3524 29.7915 17.4834 29.6604 17.4834 29.5046V28.7425ZM17.4834 31.5795C17.4834 31.4237 17.3524 31.2913 17.1967 31.2913H10.6747C10.5189 31.2913 10.3878 31.4237 10.3878 31.5795V32.3416C10.3878 32.4969 10.5188 32.6285 10.6747 32.6285H17.1967C17.3524 32.6285 17.4834 32.4969 17.4834 32.3416V31.5795ZM10.3878 21.2458C10.3878 19.2892 11.9795 17.6976 13.936 17.6976C15.8926 17.6976 17.4834 19.2892 17.4834 21.2458C17.4834 23.2024 15.8927 24.7941 13.936 24.7941C11.9795 24.7941 10.3878 23.2024 10.3878 21.2458ZM18.9837 21.2458C18.9837 22.3887 18.6021 23.4438 17.9587 24.291C18.5636 24.5778 18.9837 25.193 18.9837 25.9056V26.6676C18.9841 27.0397 18.8679 27.4025 18.6515 27.7051C18.8679 28.0077 18.9841 28.3705 18.9837 28.7425V29.5046C18.9837 29.8907 18.8606 30.249 18.6515 30.5416C18.8679 30.8444 18.9841 31.2073 18.9837 31.5795V32.3416C18.9837 33.327 18.182 34.1283 17.1966 34.1283H10.6746C9.68925 34.1283 8.88741 33.3269 8.88741 32.3416V31.5795C8.88741 31.193 9.0105 30.835 9.22059 30.5416C9.00342 30.2395 8.88685 29.8767 8.88741 29.5046V28.7425C8.88693 28.3703 9.00349 28.0074 9.22059 27.7051C9.00346 27.4028 8.8869 27.0399 8.88741 26.6676V25.9056C8.88741 25.1929 9.3075 24.5778 9.912 24.291C9.26991 23.4437 8.88741 22.3886 8.88741 21.2458C8.88741 18.4623 11.1516 16.1977 13.9359 16.1977C16.7196 16.1977 18.9837 18.4623 18.9837 21.2458ZM9.63019 42.7114C9.63004 42.6251 9.59574 42.5424 9.5348 42.4814C9.47385 42.4204 9.39122 42.386 9.30497 42.3857C9.21853 42.3857 9.13563 42.42 9.07443 42.4811C9.01323 42.5421 8.97871 42.6249 8.97844 42.7114C8.97856 42.7979 9.01302 42.8808 9.07424 42.942C9.13547 43.0031 9.21845 43.0374 9.30497 43.0374C9.39131 43.0372 9.47404 43.0028 9.53501 42.9417C9.59598 42.8805 9.63021 42.7977 9.63019 42.7114ZM11.13 42.7114C11.13 43.7179 10.3115 44.5373 9.30488 44.5373C8.29791 44.5373 7.47844 43.7179 7.47844 42.7114C7.47844 41.7052 8.29791 40.8859 9.30488 40.8859C10.3115 40.8859 11.13 41.7052 11.13 42.7114ZM10.1879 36.7759C10.5246 37.0177 10.6013 37.4868 10.3596 37.823L5.85197 44.0961C5.78253 44.1928 5.69103 44.2715 5.58504 44.3258C5.47906 44.3801 5.36166 44.4083 5.24259 44.4081C5.08566 44.4082 4.93271 44.3586 4.80572 44.2664C4.46906 44.0255 4.39228 43.5568 4.63406 43.2202L9.14166 36.9475C9.38259 36.6109 9.85125 36.5341 10.1879 36.7759ZM5.64947 38.6592C5.73571 38.6592 5.81842 38.6249 5.87941 38.5639C5.94039 38.5029 5.97466 38.4202 5.97469 38.334C5.97469 38.1539 5.82947 38.0079 5.64947 38.0079C5.46947 38.0079 5.32425 38.154 5.32425 38.334C5.32425 38.4202 5.35851 38.503 5.4195 38.564C5.48049 38.625 5.56322 38.6592 5.64947 38.6592ZM5.64947 40.1595C6.65644 40.1595 7.47497 39.34 7.47497 38.334C7.47497 37.327 6.65644 36.508 5.64947 36.508C4.64297 36.508 3.82434 37.327 3.82434 38.334C3.82434 39.3401 4.64287 40.1595 5.64947 40.1595ZM12.7041 40.5222C12.7041 43.405 10.3597 45.7495 7.47675 45.7495C4.59478 45.7495 2.25038 43.405 2.25038 40.5222C2.25038 37.6402 4.59488 35.2954 7.47675 35.2954C10.3596 35.2954 12.7041 37.6403 12.7041 40.5222ZM14.2043 40.5222C14.2043 36.8134 11.1865 33.7955 7.47675 33.7955C3.76791 33.7955 0.75 36.8133 0.75 40.5222C0.75 44.2315 3.76791 47.2498 7.47675 47.2498C11.1865 47.2499 14.2043 44.2315 14.2043 40.5222ZM38.8669 31.3862C38.8669 30.9519 38.5143 30.5993 38.0814 30.5993C37.6481 30.5993 37.2946 30.9519 37.2946 31.3862C37.2946 31.8195 37.648 32.1716 38.0814 32.1716C38.5144 32.1716 38.8669 31.8195 38.8669 31.3862ZM44.1132 25.1828C44.1132 25.6166 44.4658 25.9692 44.8987 25.9692C45.3329 25.9692 45.6854 25.6166 45.6854 25.1828C45.6854 24.7495 45.3328 24.3969 44.8987 24.3969C44.4657 24.3969 44.1132 24.7495 44.1132 25.1828ZM32.0484 28.454C32.0484 28.0207 31.6958 27.6681 31.263 27.6681C30.8297 27.6681 30.4776 28.0207 30.4776 28.454C30.4776 28.8877 30.8297 29.2402 31.263 29.2402C31.6958 29.2403 32.0484 28.8877 32.0484 28.454ZM25.2312 33.6305C25.2312 33.1975 24.8786 32.845 24.4445 32.845C24.0116 32.845 23.659 33.1976 23.659 33.6305C23.659 34.0647 24.0116 34.4172 24.4445 34.4172C24.8786 34.4173 25.2312 34.0647 25.2312 33.6305ZM43.8065 27.1906L40.1832 30.4873C40.3047 30.7714 40.3672 31.0772 40.3668 31.3862C40.3668 32.646 39.3413 33.672 38.0814 33.672C36.8203 33.672 35.7948 32.646 35.7948 31.3862C35.7948 31.3311 35.7974 31.2763 35.8014 31.222L32.9495 29.9962C32.5312 30.4524 31.9306 30.7402 31.2629 30.7402C30.7952 30.7402 30.3601 30.599 29.9974 30.3567L26.6177 32.9226C26.6926 33.1511 26.7309 33.39 26.7311 33.6305C26.7311 34.8916 25.7056 35.9171 24.4445 35.9171C23.1847 35.9171 22.1587 34.8916 22.1587 33.6305C22.1587 32.3707 23.1846 31.3451 24.4445 31.3451C24.9122 31.3451 25.3473 31.4863 25.71 31.7286L29.0897 29.1621C29.0148 28.9336 28.9768 28.6945 28.9772 28.454C28.9772 27.1932 30.0031 26.1682 31.263 26.1682C32.5241 26.1682 33.5488 27.1932 33.5488 28.454C33.5488 28.5091 33.5466 28.5634 33.5422 28.6177L36.395 29.844C36.8128 29.3877 37.4138 29.0995 38.0815 29.0995C38.4769 29.0995 38.8493 29.2011 39.1737 29.378L42.7978 26.0812C42.6756 25.7975 42.6128 25.4918 42.6134 25.1828C42.6134 23.9226 43.6389 22.897 44.8988 22.897C46.1599 22.897 47.1854 23.9226 47.1854 25.1828C47.1854 26.4435 46.1599 27.469 44.8988 27.469C44.5171 27.4692 44.1415 27.3735 43.8065 27.1906ZM25.2956 41.1082H23.5941V45.7495H25.2956V41.1082ZM26.796 40.3582V46.4997C26.796 46.9141 26.4593 47.2499 26.0458 47.2499H22.8444C22.7459 47.2499 22.6484 47.2305 22.5573 47.1928C22.4663 47.1551 22.3836 47.0999 22.3139 47.0302C22.2443 46.9605 22.189 46.8778 22.1513 46.7868C22.1136 46.6958 22.0942 46.5982 22.0943 46.4997V40.3582C22.0943 39.9446 22.4301 39.608 22.8444 39.608H26.0458C26.4593 39.608 26.796 39.9446 26.796 40.3582ZM45.7503 31.5089H44.0487V45.7496H45.7503V31.5089ZM47.2502 30.7592C47.2502 30.6607 47.2308 30.5631 47.1931 30.4721C47.1554 30.3811 47.1002 30.2984 47.0305 30.2287C46.9608 30.159 46.8781 30.1038 46.7871 30.0661C46.6961 30.0284 46.5985 30.009 46.5 30.009H43.2985C43.0996 30.009 42.9088 30.088 42.7681 30.2287C42.6274 30.3694 42.5483 30.5602 42.5483 30.7592V46.4997C42.5483 46.5982 42.5677 46.6958 42.6054 46.7868C42.6431 46.8778 42.6984 46.9605 42.768 47.0302C42.8377 47.0999 42.9204 47.1551 43.0114 47.1928C43.1025 47.2305 43.2 47.2499 43.2985 47.2499H46.5C46.5985 47.2499 46.6961 47.2305 46.7871 47.1928C46.8781 47.1551 46.9608 47.0999 47.0305 47.0302C47.1002 46.9605 47.1554 46.8778 47.1931 46.7868C47.2308 46.6958 47.2502 46.5982 47.2502 46.4997V30.7592ZM38.9318 37.8906H37.2302V45.7496H38.9318V37.8906ZM40.4317 37.1407V46.4996C40.4317 46.5981 40.4123 46.6957 40.3746 46.7867C40.3369 46.8777 40.2816 46.9604 40.212 47.0301C40.1423 47.0998 40.0596 47.155 39.9686 47.1927C39.8775 47.2304 39.78 47.2498 39.6815 47.2498H36.4801C36.0667 47.2498 35.7304 46.914 35.7304 46.4996V37.1407C35.7303 36.9418 35.8093 36.7511 35.9499 36.6104C36.0905 36.4697 36.2812 36.3906 36.4801 36.3906H39.6815C39.78 36.3905 39.8776 36.4099 39.9686 36.4476C40.0596 36.4853 40.1423 36.5406 40.212 36.6102C40.2817 36.6799 40.3369 36.7626 40.3746 36.8536C40.4123 36.9447 40.4317 37.0422 40.4317 37.1407ZM32.1133 35.708H30.4126V45.7495H32.1132L32.1133 35.708ZM33.6131 34.9579C33.6132 34.8594 33.5938 34.7619 33.5562 34.6709C33.5185 34.5799 33.4633 34.4973 33.3937 34.4276C33.324 34.358 33.2414 34.3028 33.1504 34.2651C33.0594 34.2275 32.9619 34.2081 32.8634 34.2081H29.6624C29.5639 34.2081 29.4664 34.2275 29.3754 34.2651C29.2845 34.3028 29.2018 34.358 29.1322 34.4276C29.0625 34.4973 29.0073 34.5799 28.9697 34.6709C28.932 34.7619 28.9126 34.8594 28.9127 34.9579V46.4997C28.9126 46.5982 28.932 46.6957 28.9696 46.7868C29.0073 46.8778 29.0625 46.9605 29.1321 47.0301C29.2017 47.0998 29.2844 47.1551 29.3754 47.1928C29.4664 47.2305 29.5639 47.2499 29.6624 47.2499H32.8634C32.9619 47.2499 33.0594 47.2305 33.1504 47.1928C33.2414 47.1551 33.3241 47.0998 33.3937 47.0301C33.4633 46.9605 33.5185 46.8778 33.5562 46.7867C33.5938 46.6957 33.6132 46.5982 33.6131 46.4997V34.9579ZM45.9938 20.009C46.0463 20.009 46.0998 20.0037 46.1531 19.9918C46.5582 19.9044 46.8159 19.5051 46.7281 19.1004C46.5663 18.3506 46.3675 17.6092 46.1324 16.879C46.0062 16.4845 45.5839 16.2674 45.1894 16.3941C44.7949 16.5207 44.5782 16.943 44.7049 17.3375C44.9244 18.0212 45.1103 18.7152 45.2618 19.4171C45.2979 19.5845 45.3903 19.7345 45.5234 19.8421C45.6566 19.9498 45.8226 20.0087 45.9938 20.009ZM1.84613 28.0074C1.44103 28.0957 1.18416 28.495 1.27153 28.8993C1.43348 29.6492 1.63216 30.3907 1.86684 31.1211C1.96875 31.4388 2.26397 31.6422 2.58122 31.6422C2.65915 31.6418 2.73655 31.6295 2.81072 31.6056C3.20428 31.4789 3.42188 31.057 3.29522 30.6626C3.07542 29.9788 2.88926 29.2846 2.73741 28.5825C2.65059 28.1773 2.25122 27.9204 1.84613 28.0074ZM1.52625 25.8633C1.53863 25.8633 1.55184 25.8628 1.56375 25.8623C1.97719 25.8421 2.29622 25.4903 2.27634 25.0764C2.24063 24.3591 2.24063 23.6404 2.27634 22.9231C2.29622 22.5097 1.97719 22.1574 1.56375 22.1377C1.15116 22.1165 0.798094 22.436 0.778312 22.8499C0.740812 23.6239 0.740812 24.3757 0.778312 25.1497C0.798094 25.5508 1.12903 25.8633 1.52625 25.8633ZM3.29531 17.3375C3.35601 17.1481 3.33909 16.9424 3.24825 16.7655C3.15741 16.5886 3.00008 16.455 2.81081 16.3941C2.41594 16.2674 1.99313 16.4845 1.86694 16.879C1.6322 17.6093 1.43352 18.3507 1.27162 19.1004C1.18425 19.5051 1.44103 19.9044 1.84622 19.9918C1.94248 20.0127 2.0419 20.0143 2.13881 19.9967C2.23572 19.9791 2.32821 19.9426 2.41099 19.8893C2.49378 19.8359 2.56523 19.7667 2.62127 19.6857C2.67731 19.6047 2.71684 19.5135 2.73759 19.4172C2.88932 18.7152 3.07545 18.0212 3.29531 17.3375ZM19.4175 45.2624C18.7154 45.1106 18.0212 44.9244 17.3374 44.7046C16.9424 44.5776 16.521 44.7951 16.394 45.1891C16.2678 45.5836 16.4844 46.0063 16.8789 46.133C17.6094 46.3675 18.3509 46.5661 19.1007 46.7283C19.1541 46.7397 19.2067 46.7455 19.2592 46.7455C19.6051 46.7455 19.9162 46.5055 19.9926 46.1538C20.0794 45.7487 19.8226 45.3493 19.4175 45.2624ZM28.0082 1.84631C27.9661 2.04076 28.003 2.24395 28.1107 2.4112C28.2185 2.57845 28.3882 2.69606 28.5827 2.73815C29.2846 2.88937 29.9785 3.07538 30.662 3.2955C30.7363 3.31915 30.8138 3.3312 30.8918 3.33121C31.0707 3.33127 31.2436 3.26742 31.3795 3.1512C31.5154 3.03498 31.6053 2.87402 31.633 2.69736C31.6607 2.5207 31.6244 2.33995 31.5306 2.18772C31.4367 2.03549 31.2916 1.92179 31.1213 1.86712C30.391 1.63216 29.6495 1.43348 28.8996 1.27181C28.4945 1.18434 28.0951 1.44159 28.0082 1.84631Z" fill="black"/>
</g>
<defs>
<clipPath id="clip0_1745_8219">
<rect width="48" height="48" fill="white"/>
</clipPath>
</defs>
</svg>
