<svg width="48" height="48" viewBox="0 0 48 48" fill="none" xmlns="http://www.w3.org/2000/svg">
<g clip-path="url(#clip0_1745_8190)">
<path d="M40.2583 0.77417V6.96772H32.5164V0.77417H40.2583ZM15.4841 0.77417V6.96772H7.74219V0.77417H15.4841ZM27.8712 0.77417V6.96772H20.1293V0.77417H27.8712Z" fill="#F0D0B4"/>
<path d="M44.1253 41.0323H3.86719V14.7097C3.86719 13.8884 4.19345 13.1007 4.77421 12.5199C5.35497 11.9392 6.14265 11.6129 6.96396 11.6129H41.0285C41.8498 11.6129 42.6375 11.9392 43.2182 12.5199C43.799 13.1007 44.1253 13.8884 44.1253 14.7097V41.0323Z" fill="#CCD1D9"/>
<path d="M40.2591 37.9355H7.74294C7.53761 37.9355 7.3407 37.854 7.19551 37.7088C7.05032 37.5636 6.96875 37.3667 6.96875 37.1613V15.4839C6.96875 15.2786 7.05032 15.0817 7.19551 14.9365C7.3407 14.7913 7.53761 14.7097 7.74294 14.7097H40.2591C40.4644 14.7097 40.6613 14.7913 40.8065 14.9365C40.9517 15.0817 41.0333 15.2786 41.0333 15.4839V37.1613C41.0333 37.3667 40.9517 37.5636 40.8065 37.7088C40.6613 37.854 40.4644 37.9355 40.2591 37.9355Z" fill="#69D6F4"/>
<path d="M45.6767 41.0322H2.32182C1.89602 41.0322 1.50892 41.2025 1.23021 41.489C0.94376 41.7677 0.773438 42.1548 0.773438 42.5806C0.773438 45.1432 2.85602 47.2258 5.4186 47.2258H42.5799C43.865 47.2258 45.0263 46.7071 45.8625 45.8632C46.2959 45.4337 46.6395 44.9223 46.8735 44.3588C47.1074 43.7952 47.2269 43.1908 47.225 42.5806C47.225 41.729 46.5283 41.0322 45.6767 41.0322Z" fill="#969FAA"/>
<path d="M39.4813 44.129H42.5781V47.2258H39.4813V44.129ZM33.2878 44.129H36.3846V47.2258H33.2878V44.129ZM29.4168 41.0322V42.5806C29.4168 43.4322 28.7201 44.129 27.8684 44.129H20.1265C19.2749 44.129 18.5781 43.4322 18.5781 42.5806V41.0322H29.4168Z" fill="#FF826E"/>
<path d="M36.3836 33.2903V37.9355H31.39V37.9123C31.6145 37.1845 31.7384 36.4181 31.7384 35.6129C31.7384 31.3394 28.27 27.871 23.9965 27.871C19.7229 27.871 16.2545 31.3394 16.2545 35.6129C16.2545 36.4258 16.3784 37.2 16.6107 37.9355H11.6094V33.2903L13.5758 32.6632C13.8081 31.8426 14.1332 31.0607 14.5358 30.3252L13.5913 28.4981L16.8816 25.2078L18.7087 26.1523C19.4442 25.7497 20.2261 25.4245 21.0468 25.1923L21.6739 23.2258H26.3191L26.9461 25.1923C27.7668 25.4245 28.5487 25.7497 29.2842 26.1523L31.1113 25.2078L34.4016 28.4981L33.4571 30.3252C33.8597 31.0607 34.1849 31.8426 34.4171 32.6632L36.3836 33.2903Z" fill="#FFC729"/>
<path d="M31.7417 35.6129C31.7417 36.4181 31.6178 37.1845 31.3933 37.9123V37.9355H26.0436C26.3759 37.6469 26.642 37.29 26.8237 36.8892C27.0054 36.4883 27.0985 36.053 27.0965 35.6129C27.0965 33.9019 25.7107 32.5161 23.9997 32.5161C22.2888 32.5161 20.903 33.9019 20.903 35.6129C20.903 36.5419 21.3056 37.3703 21.9559 37.9355H16.6139C16.3817 37.2 16.2578 36.4258 16.2578 35.6129C16.2578 31.3394 19.7262 27.871 23.9997 27.871C28.2733 27.871 31.7417 31.3394 31.7417 35.6129Z" fill="#FCD770"/>
<path d="M45.6774 40.2581H44.9032V14.7097C44.9032 12.5752 43.1667 10.8387 41.0323 10.8387H38.7097V12.3871H41.0323C42.3128 12.3871 43.3548 13.4292 43.3548 14.7097V40.2581H4.64516V14.7097C4.64516 13.4292 5.68723 12.3871 6.96774 12.3871H9.29032V10.8387H6.96774C4.83329 10.8387 3.09677 12.5752 3.09677 14.7097V40.2581H2.32258C1.04206 40.2581 0 41.3001 0 42.5806C0 45.5683 2.43174 48 5.41935 48H42.5806C45.5683 48 48 45.5683 48 42.5806C48 41.3001 46.9579 40.2581 45.6774 40.2581ZM19.3548 41.8065H28.6452V42.5806C28.6452 42.786 28.5636 42.9829 28.4184 43.1281C28.2732 43.2733 28.0763 43.3548 27.871 43.3548H20.129C19.9237 43.3548 19.7268 43.2733 19.5816 43.1281C19.4364 42.9829 19.3548 42.786 19.3548 42.5806V41.8065ZM35.6129 46.4516H34.0645V44.9032H35.6129V46.4516ZM41.8064 46.4516H40.2581V44.9032H41.8064V46.4516ZM43.3548 46.3734V43.3548H38.7097V46.4516H37.1613V43.3548H32.5161V46.4516H5.41935C3.2849 46.4516 1.54839 44.7151 1.54839 42.5806C1.54839 42.3753 1.62995 42.1784 1.77514 42.0332C1.92033 41.888 2.11725 41.8065 2.32258 41.8065H17.8065V42.5806C17.8065 43.8612 18.8485 44.9032 20.129 44.9032H27.871C29.1515 44.9032 30.1935 43.8612 30.1935 42.5806V41.8065H45.6774C45.8827 41.8065 46.0797 41.888 46.2249 42.0332C46.37 42.1784 46.4516 42.3753 46.4516 42.5806C46.4502 43.4725 46.1414 44.3366 45.5773 45.0275C45.0133 45.7183 44.2284 46.1936 43.3548 46.3734Z" fill="black"/>
<path d="M17.034 15.4839V13.9355H7.7437C6.88976 13.9355 6.19531 14.6299 6.19531 15.4839V37.1613C6.19531 38.0152 6.88976 38.7097 7.7437 38.7097H40.2598C41.1138 38.7097 41.8082 38.0152 41.8082 37.1613V15.4839C41.8082 14.6299 41.1138 13.9355 40.2598 13.9355H30.9695V15.4839H40.2598V37.1613H37.1631V32.7259L35.0464 32.0477C34.8557 31.4544 34.6178 30.8773 34.3349 30.3221L35.3507 28.3486L31.2676 24.2655L29.2942 25.2813C28.7445 25.001 28.1669 24.7626 27.5685 24.5698L26.8887 22.4516H21.114L20.4358 24.5683C19.8425 24.7589 19.2654 24.9968 18.7102 25.2797L16.7367 24.264L12.6536 28.3471L13.6694 30.3205C13.3891 30.8702 13.1507 31.4477 12.9579 32.0462L10.8405 32.7259V37.1613H7.7437V15.4839H17.034ZM17.034 35.6129C17.034 31.7706 20.1594 28.6452 24.0018 28.6452C27.8441 28.6452 30.9695 31.7706 30.9695 35.6129C30.9695 36.1386 30.8921 36.6542 30.7767 37.1613H27.5468C27.761 36.6731 27.872 36.146 27.8727 35.6129C27.8727 33.4785 26.1362 31.7419 24.0018 31.7419C21.8673 31.7419 20.1308 33.4785 20.1308 35.6129C20.1308 36.1517 20.2454 36.6774 20.4567 37.1613H17.2276C17.1053 36.654 17.0404 36.1346 17.034 35.6129ZM21.6792 35.6129C21.6792 34.3324 22.7212 33.2903 24.0018 33.2903C25.2823 33.2903 26.3243 34.3324 26.3243 35.6129C26.3243 36.1904 26.0983 36.7363 25.7143 37.1613H22.2885C21.9005 36.7385 21.6833 36.1867 21.6792 35.6129ZM12.3889 33.8547L14.2129 33.271L14.3259 32.8707C14.5374 32.1164 14.837 31.3896 15.2185 30.7053L15.4214 30.3422L14.5465 28.6436L17.0332 26.1569L18.7318 27.0317L19.0949 26.8289C19.7792 26.4474 20.506 26.1478 21.2603 25.9363L21.6606 25.8232L22.2436 24H25.7592L26.3429 25.824L26.7432 25.937C27.5081 26.153 28.2374 26.4534 28.9086 26.8297L29.2717 27.0325L30.9703 26.1577L33.457 28.6444L32.5822 30.343L32.785 30.7061C33.1665 31.3903 33.4661 32.1171 33.6776 32.8715L33.7907 33.2717L35.6147 33.8547V37.1613H32.3716C32.4653 36.6526 32.5179 36.1355 32.5179 35.6129C32.5179 30.9174 28.6972 27.0968 24.0018 27.0968C19.3063 27.0968 15.4856 30.9174 15.4856 35.6129C15.4856 36.1355 15.5391 36.6526 15.632 37.1613H12.3889V33.8547ZM10.0663 3.09677H13.1631V4.64516H10.0663V3.09677ZM22.4534 3.09677H25.5502V4.64516H22.4534V3.09677ZM34.8405 3.09677H37.9373V4.64516H34.8405V3.09677Z" fill="black"/>
<path d="M23.2268 20.9032H24.7752V7.74194H28.6462V0H19.3558V7.74194H23.2268V20.9032ZM20.9042 1.54839H27.0978V6.19355H20.9042V1.54839ZM35.6139 10.8387H27.872V20.9032H29.4204V12.3871H37.1623V7.74194H41.0333V0H31.7429V7.74194H35.6139V10.8387ZM33.2913 1.54839H39.4849V6.19355H33.2913V1.54839ZM10.8397 12.3871H18.5817V20.9032H20.13V10.8387H12.3881V7.74194H16.2591V0H6.96875V7.74194H10.8397V12.3871ZM8.51714 1.54839H14.7107V6.19355H8.51714V1.54839Z" fill="black"/>
</g>
<defs>
<clipPath id="clip0_1745_8190">
<rect width="48" height="48" fill="white"/>
</clipPath>
</defs>
</svg>
