<svg width="48" height="48" viewBox="0 0 48 48" fill="none" xmlns="http://www.w3.org/2000/svg">
<g clip-path="url(#clip0_1745_8204)">
<path d="M14.6562 23.2258V17.8064C14.6562 12.6759 18.816 8.51611 23.9466 8.51611C29.0772 8.51611 33.2369 12.6759 33.2369 17.8064V23.2258H14.6562Z" fill="#D3A06C"/>
<path d="M23.9461 8.51611C23.6844 8.51611 23.4281 8.53392 23.1719 8.55482C27.9394 8.94966 31.688 12.9368 31.688 17.8064V23.2258H33.2364V17.8064C33.2364 12.6759 29.0766 8.51611 23.9461 8.51611Z" fill="#B27946"/>
<path d="M20.8458 41.0322H37.878L36.4249 36.6735C36.1615 35.8835 35.6906 35.1789 35.0615 34.6332C34.4324 34.0876 33.6682 33.7211 32.8489 33.5721L27.0393 32.5161H20.8458L15.0354 33.5721C14.2161 33.7211 13.4519 34.0876 12.8228 34.6332C12.1937 35.1788 11.7228 35.8835 11.4594 36.6735L10.7812 39.7556V41.0322H20.8458Z" fill="#92E0C0"/>
<path d="M20.8498 30.1935V32.5161L23.9466 35.6129L27.0433 32.5161V30.1935H20.8498ZM30.1401 20.9032H30.9143C32.1972 20.9032 33.2369 21.9429 33.2369 23.2258C33.2369 24.5086 32.1972 25.5484 30.9143 25.5484H30.1401V20.9032ZM17.753 20.9032H16.9788C15.696 20.9032 14.6562 21.9429 14.6562 23.2258C14.6562 24.5086 15.696 25.5484 16.9788 25.5484H17.753V20.9032Z" fill="#F9E0A6"/>
<path d="M16.9766 20.129V24.7742C16.9766 28.6227 20.0958 31.7419 23.9443 31.7419C27.7928 31.7419 30.912 28.6227 30.912 24.7742V20.129C28.4334 20.1289 26.0562 19.1441 24.3035 17.3915L23.9443 17.0322L23.5851 17.3915C21.8324 19.1441 19.4552 20.1289 16.9766 20.129Z" fill="#F9E0A6"/>
<path d="M29.3654 24.7742C29.3654 28.3603 26.655 31.3107 23.1719 31.6963C23.4266 31.7249 23.6844 31.7419 23.9461 31.7419C27.7946 31.7419 30.9138 28.6227 30.9138 24.7742V20.129C30.3912 20.129 29.8741 20.0756 29.3654 19.9904V24.7742Z" fill="#EABD8C"/>
<path d="M34.7828 0.7742H45.6215C46.477 0.7742 47.1699 1.4671 47.1699 2.32259V8.51614C47.1699 9.37162 46.477 10.0645 45.6215 10.0645H43.2989L37.1053 13.9355L37.7688 10.0645H34.7828C33.9273 10.0645 33.2344 9.37162 33.2344 8.51614V2.32259C33.2344 1.4671 33.9273 0.7742 34.7828 0.7742Z" fill="#ECECEC"/>
<path d="M34.5232 41.0322H37.8778L36.4246 36.6735C36.1612 35.8835 35.6903 35.1789 35.0612 34.6332C34.4321 34.0876 33.6679 33.7211 32.8486 33.5721L27.0391 32.5161L32.6094 35.6106C33.0414 35.8506 33.4098 36.1905 33.6836 36.602C33.9574 37.0135 34.1288 37.4845 34.1833 37.9757L34.5232 41.0322Z" fill="#48C397"/>
<path d="M17.7499 38.3109L14.9736 40.8216C14.369 41.4263 13.3888 41.4263 12.7842 40.8216L7.23167 35.2691C6.62703 34.6645 6.62703 33.6843 7.23167 33.0797L9.74238 30.569L5.09722 25.9238L2.18858 28.8325C0.374641 30.6464 0.374641 33.5876 2.18858 35.4015L12.6518 45.8647C14.4657 47.6787 17.4069 47.6787 19.2208 45.8647L22.395 42.9561L17.7499 38.3109Z" fill="#FB5968"/>
<path d="M37.1602 36.4289C36.8529 35.5073 36.3035 34.6852 35.5695 34.0487C34.8355 33.4123 33.944 32.9848 32.9881 32.8111L27.8142 31.8697V31.4686C28.7146 30.9461 29.498 30.247 30.122 29.4194H31.6851C32.9657 29.4194 34.0077 28.3773 34.0077 27.0968V17.8065C34.0077 12.257 29.4926 7.74194 23.9432 7.74194C18.3938 7.74194 13.8787 12.257 13.8787 17.8065V23.2258C13.8787 24.7185 14.9401 25.9672 16.3476 26.2583C16.7819 28.4834 18.1724 30.3662 20.0722 31.4686V31.8697L14.8975 32.8111C13.9418 32.9848 13.0503 33.4123 12.3164 34.0488C11.5826 34.6853 11.0333 35.5073 10.7262 36.4289L10.4165 37.3587L7.77959 34.7218C7.47766 34.4199 7.47766 33.9283 7.77959 33.6263L10.8377 30.569L5.09778 24.8292L1.64178 28.2852C0.6183 29.3086 0.0546875 30.6697 0.0546875 32.1174C0.0546875 33.5652 0.6183 34.9254 1.64178 35.9489L12.105 46.4121C13.1285 47.4356 14.4895 48 15.9373 48C17.385 48 18.7453 47.4356 19.7448 46.4354L23.5158 42.9801L22.3398 41.8064H38.9525L37.1602 36.4289ZM23.9432 34.5182L21.6206 32.1956V32.1592C22.3721 32.3958 23.1553 32.5162 23.9432 32.5161C24.7522 32.5161 25.5319 32.3899 26.2658 32.1592V32.1956L23.9432 34.5182ZM31.6851 27.871H31.034C31.261 27.3536 31.4303 26.8128 31.5388 26.2583C31.8702 26.1894 32.1752 26.0578 32.4593 25.8921V27.0968C32.4593 27.5241 32.1117 27.871 31.6851 27.871ZM31.6851 21.8926C32.1458 22.1613 32.4593 22.6552 32.4593 23.2258C32.4593 23.7964 32.1458 24.2903 31.6851 24.559V21.8926ZM15.4271 23.2258C15.4271 22.6552 15.7406 22.1613 16.2013 21.8926V24.559C15.7406 24.2903 15.4271 23.7964 15.4271 23.2258ZM16.2013 19.3548V20.239C15.9298 20.3099 15.6693 20.4178 15.4271 20.5595V17.8065C15.4271 13.111 19.2477 9.29032 23.9432 9.29032C28.6387 9.29032 32.4593 13.111 32.4593 17.8065V20.5595C32.2173 20.4174 31.9568 20.3096 31.6851 20.239V19.3548H30.9109C28.6217 19.3548 26.4694 18.463 24.8498 16.8441L23.9432 15.9375L23.0366 16.8441C21.417 18.463 19.2648 19.3548 16.9755 19.3548H16.2013ZM17.7497 24.7742V20.8738C20.0746 20.6988 22.2423 19.7396 23.9432 18.1223C25.6441 19.7396 27.8119 20.6996 30.1368 20.8738V24.7742C30.1368 25.903 29.8286 26.959 29.2991 27.871H23.9432V29.4194H28.0263C26.9347 30.3801 25.5078 30.9677 23.9432 30.9677C20.5282 30.9677 17.7497 28.1892 17.7497 24.7742ZM8.64746 30.569L7.80669 31.4098L4.25624 27.8594L5.09701 27.0186L8.64746 30.569ZM15.9357 46.4516C14.9022 46.4516 13.9298 46.0483 13.1982 45.3174L2.73495 34.855C2.00411 34.1241 1.60153 33.1517 1.60153 32.1182C1.60153 31.0839 2.00411 30.1115 2.73495 29.3806L3.16075 28.9548L6.7112 32.5053L6.68333 32.5332C5.7783 33.439 5.7783 34.9123 6.68333 35.8181L12.2351 41.3698C12.674 41.808 13.257 42.0503 13.8779 42.0503C14.4988 42.0503 15.0818 41.8088 15.4921 41.3969L15.5502 41.345L19.1169 44.9117L18.6725 45.319C17.9417 46.0483 16.9693 46.4516 15.9357 46.4516ZM20.2596 43.8635L16.7006 40.3045L17.7233 39.3801L21.2761 42.9329L20.2596 43.8635ZM20.7915 40.2581L17.776 37.2426L14.4253 40.2735C14.1334 40.567 13.6232 40.567 13.3306 40.2735L11.6397 38.5827L12.194 36.9182C12.4135 36.2598 12.8059 35.6725 13.3301 35.2178C13.8543 34.763 14.4912 34.4575 15.1739 34.3332L20.5855 33.3499L23.9432 36.7076L27.3001 33.3507L32.7109 34.3339C33.3938 34.4581 34.0306 34.7636 34.5549 35.2184C35.0791 35.6732 35.4715 36.2605 35.6908 36.919L36.8049 40.2581H20.7915ZM45.6206 0H34.7819C33.5014 0 32.4593 1.04206 32.4593 2.32258V8.51613C32.4593 9.79665 33.5014 10.8387 34.7819 10.8387H36.8498L36.0493 15.5079L43.5202 10.8387H45.6206C46.9011 10.8387 47.9432 9.79665 47.9432 8.51613V2.32258C47.9432 1.04206 46.9011 0 45.6206 0ZM46.3948 8.51613C46.3948 8.94271 46.0472 9.29032 45.6206 9.29032H43.0759L38.159 12.3631L38.6862 9.29032H34.7819C34.3553 9.29032 34.0077 8.94271 34.0077 8.51613V2.32258C34.0077 1.896 34.3553 1.54839 34.7819 1.54839H45.6206C46.0472 1.54839 46.3948 1.896 46.3948 2.32258V8.51613Z" fill="black"/>
<path d="M35.5569 3.09676H44.8472V4.64515H35.5569V3.09676ZM35.5569 6.19354H41.7504V7.74193H35.5569V6.19354ZM43.2988 6.19354H44.8472V7.74193H43.2988V6.19354ZM7.31043 19.2441L6.51378 17.9164L4.41572 19.1752C6.60979 10.2464 14.6389 3.87096 23.944 3.87096C25.9778 3.87096 27.9845 4.17289 29.9084 4.76902L30.3667 3.29031C28.2942 2.64773 26.1334 2.32257 23.944 2.32257C13.8284 2.32257 5.11482 9.31973 2.84953 19.08L1.38243 16.6343L0.0546875 17.431L2.77598 21.9654L7.31043 19.2441ZM40.3128 18.9561L41.6405 19.7528L42.9953 17.4944C43.7084 19.5809 44.073 21.7633 44.073 24C44.073 28.6041 42.4782 33.1053 39.5835 36.6735L40.7858 37.649C43.9042 33.8059 45.6214 28.9579 45.6214 24C45.6214 21.6317 45.2397 19.3192 44.4957 17.105L46.7711 18.4699L47.5677 17.1422L43.0333 14.4209L40.3128 18.9561Z" fill="black"/>
</g>
<defs>
<clipPath id="clip0_1745_8204">
<rect width="48" height="48" fill="white"/>
</clipPath>
</defs>
</svg>
