<svg width="48" height="48" viewBox="0 0 48 48" fill="none" xmlns="http://www.w3.org/2000/svg">
<path d="M19.6308 28.3682L10.8945 16.7198L5.07031 28.3682H19.6308ZM28.3672 28.3682L37.1035 16.7198L42.9277 28.3682H28.3672Z" fill="#FAC600"/>
<path d="M45.8381 18.176L42.0384 38.5611L23.9974 40.0167L5.95641 38.5611L2.15625 18.176L12.3487 26.9116L16.7174 21.088L18.1734 22.5439L23.9971 13.8073L29.8219 22.5439L31.2777 21.088L35.6455 26.9127L45.8381 18.176Z" fill="#FED402"/>
<path d="M5.49903 36.0674H7.13244C7.25586 36.0674 7.37712 36.0349 7.484 35.9732C7.59089 35.9115 7.67965 35.8227 7.74134 35.7159L8.59634 34.2349C8.65807 34.128 8.69056 34.0067 8.69056 33.8833C8.69056 33.7599 8.65807 33.6386 8.59634 33.5318L7.74134 32.0508C7.67963 31.9439 7.59088 31.8551 7.48399 31.7934C7.3771 31.7317 7.25586 31.6992 7.13244 31.6992H5.42234C5.29892 31.6992 5.17768 31.7317 5.07079 31.7934C4.96391 31.8551 4.87515 31.9439 4.81344 32.0508L4.76562 32.1336L5.49903 36.0674ZM24.9993 36.5291L26.5052 35.0232C26.6358 34.8926 26.7394 34.7376 26.81 34.567C26.8807 34.3964 26.9171 34.2135 26.9171 34.0288V29.3696C26.9171 28.9967 26.7689 28.6389 26.5052 28.3752L24.9993 26.8693C24.4501 26.3201 23.5598 26.3201 23.0106 26.8693L21.5047 28.3752C21.3741 28.5058 21.2705 28.6608 21.1999 28.8315C21.1292 29.0021 21.0928 29.185 21.0928 29.3696V34.0288C21.0928 34.4018 21.241 34.7595 21.5047 35.0232L23.0106 36.5291C23.5598 37.0782 24.4501 37.0782 24.9993 36.5291ZM13.4144 35.7159C13.4761 35.8227 13.5649 35.9115 13.6718 35.9732C13.7787 36.0349 13.8999 36.0674 14.0233 36.0674H15.7334C15.8569 36.0674 15.9781 36.0349 16.085 35.9732C16.1919 35.9115 16.2806 35.8227 16.3423 35.7159L17.1973 34.2349C17.2591 34.128 17.2916 34.0067 17.2916 33.8833C17.2916 33.7599 17.2591 33.6386 17.1973 33.5318L16.3423 32.0508C16.2806 31.9439 16.1919 31.8551 16.085 31.7934C15.9781 31.7317 15.8569 31.6992 15.7334 31.6992H14.0233C13.8999 31.6992 13.7787 31.7317 13.6718 31.7934C13.5649 31.8551 13.4761 31.9439 13.4144 32.0508L12.5594 33.5318C12.4977 33.6386 12.4652 33.7599 12.4652 33.8833C12.4652 34.0067 12.4977 34.128 12.5594 34.2349L13.4144 35.7159ZM43.244 32.1334L43.1964 32.0508C43.1347 31.9439 43.0459 31.8551 42.939 31.7934C42.8321 31.7317 42.7109 31.6992 42.5875 31.6992H40.8774C40.7539 31.6992 40.6327 31.7317 40.5258 31.7934C40.4189 31.8551 40.3302 31.9439 40.2685 32.0508L39.4135 33.5318C39.3517 33.6386 39.3193 33.7599 39.3193 33.8833C39.3193 34.0067 39.3517 34.128 39.4135 34.2349L40.2685 35.7159C40.3302 35.8227 40.4189 35.9115 40.5258 35.9732C40.6327 36.0349 40.754 36.0674 40.8774 36.0674H42.5107L43.244 32.1334ZM31.6675 35.7159C31.7292 35.8227 31.8179 35.9115 31.9248 35.9732C32.0317 36.0349 32.153 36.0674 32.2764 36.0674H33.9865C34.1099 36.0674 34.2311 36.0349 34.338 35.9732C34.4449 35.9115 34.5337 35.8227 34.5954 35.7159L35.4504 34.2349C35.5121 34.128 35.5446 34.0067 35.5446 33.8833C35.5446 33.7599 35.5121 33.6386 35.4504 33.5318L34.5954 32.0508C34.5337 31.9439 34.4449 31.8551 34.338 31.7934C34.2311 31.7317 34.1099 31.6992 33.9865 31.6992H32.2764C32.153 31.6992 32.0317 31.7317 31.9248 31.7934C31.8179 31.8551 31.7292 31.9439 31.6675 32.0508L30.8125 33.5318C30.7507 33.6386 30.7183 33.7599 30.7183 33.8833C30.7183 34.0067 30.7507 34.128 30.8125 34.2349L31.6675 35.7159Z" fill="#FAC600"/>
<path d="M40.9617 22.3581L39.064 32.5392C38.6159 34.9431 36.518 36.686 34.0728 36.686H5.60938L5.95888 38.561L23.9999 40.0166L42.041 38.5611L45.8407 18.1761L40.9617 22.3581Z" fill="#FAC600"/>
<path d="M2.15916 19.6318C2.9633 19.6318 3.61519 18.9799 3.61519 18.1758C3.61519 17.3716 2.9633 16.7198 2.15916 16.7198C1.35501 16.7198 0.703125 17.3716 0.703125 18.1758C0.703125 18.9799 1.35501 19.6318 2.15916 19.6318Z" fill="#FE9738"/>
<path d="M45.8388 19.6318C46.643 19.6318 47.2949 18.9799 47.2949 18.1758C47.2949 17.3716 46.643 16.7198 45.8388 16.7198C45.0347 16.7198 44.3828 17.3716 44.3828 18.1758C44.3828 18.9799 45.0347 19.6318 45.8388 19.6318Z" fill="#FE9738"/>
<path d="M23.9966 15.2637C25.2028 15.2637 26.1807 14.2859 26.1807 13.0796C26.1807 11.8734 25.2028 10.8955 23.9966 10.8955C22.7904 10.8955 21.8125 11.8734 21.8125 13.0796C21.8125 14.2859 22.7904 15.2637 23.9966 15.2637Z" fill="#FE9738"/>
<path d="M42.9805 42.9287H5.02344C4.24681 42.9287 3.61719 42.2991 3.61719 41.5224V40.9043C3.61719 39.6099 4.66653 38.5605 5.96094 38.5605H42.043C43.3374 38.5605 44.3867 39.6099 44.3867 40.9043V41.5224C44.3867 42.2992 43.7571 42.9287 42.9805 42.9287Z" fill="#C8EFFE"/>
<path d="M42.043 38.5605H40.5898C40.6206 38.712 40.6367 38.8688 40.6367 39.0293V39.6474C40.6367 40.4241 40.0071 41.0537 39.2305 41.0537H3.61719V41.5224C3.61719 42.2991 4.24681 42.9287 5.02344 42.9287H42.9805C43.7571 42.9287 44.3867 42.2991 44.3867 41.5224V40.9043C44.3867 39.6099 43.3374 38.5605 42.043 38.5605Z" fill="#99E6FC"/>
<path d="M26.9102 32.1538V27.4945C26.9102 27.1216 26.762 26.7639 26.4983 26.5001L24.9924 24.9942C24.4432 24.445 23.5529 24.445 23.0037 24.9942L21.4978 26.5001C21.3672 26.6307 21.2636 26.7858 21.193 26.9564C21.1223 27.127 21.0859 27.3099 21.0859 27.4945V32.1538C21.0859 32.5268 21.2341 32.8845 21.4978 33.1482L23.0037 34.6541C23.5529 35.2033 24.4432 35.2033 24.9924 34.6541L26.4983 33.1482C26.6289 33.0176 26.7325 32.8626 26.8031 32.692C26.8738 32.5214 26.9102 32.3385 26.9102 32.1538Z" fill="#FD4755"/>
<path d="M15.7292 29.8242H14.0191C13.8956 29.8243 13.7744 29.8567 13.6675 29.9185C13.5606 29.9802 13.4719 30.0689 13.4102 30.1758L12.5552 31.6568C12.4934 31.7637 12.4609 31.8849 12.4609 32.0083C12.4609 32.1318 12.4934 32.253 12.5552 32.3599L13.4102 33.8409C13.4719 33.9477 13.5606 34.0365 13.6675 34.0982C13.7744 34.1599 13.8956 34.1924 14.0191 34.1924H15.7292C15.8526 34.1924 15.9738 34.1599 16.0807 34.0982C16.1876 34.0365 16.2763 33.9477 16.3381 33.8409L17.1931 32.3599C17.2548 32.253 17.2873 32.1318 17.2873 32.0083C17.2873 31.8849 17.2548 31.7637 17.1931 31.6568L16.3381 30.1758C16.2763 30.0689 16.1876 29.9802 16.0807 29.9185C15.9738 29.8567 15.8526 29.8243 15.7292 29.8242Z" fill="#97D729"/>
<path d="M7.12759 29.8242H5.4175C5.29408 29.8242 5.17284 29.8567 5.06596 29.9185C4.95908 29.9802 4.87032 30.0689 4.80859 30.1758L3.95359 31.6568C3.89187 31.7636 3.85938 31.8849 3.85938 32.0083C3.85937 32.1317 3.89187 32.253 3.95359 32.3599L4.80859 33.8409C4.87032 33.9477 4.95908 34.0365 5.06596 34.0982C5.17284 34.1599 5.29408 34.1924 5.4175 34.1924H7.12759C7.25101 34.1924 7.37225 34.1599 7.47913 34.0982C7.58601 34.0365 7.67477 33.9477 7.7365 33.8409L8.5915 32.3599C8.65322 32.253 8.68571 32.1317 8.68571 32.0083C8.68571 31.8849 8.65322 31.7636 8.5915 31.6568L7.7365 30.1758C7.67479 30.0689 7.58603 29.9801 7.47914 29.9184C7.37226 29.8567 7.25101 29.8242 7.12759 29.8242ZM40.8725 29.8242H42.5826C42.706 29.8242 42.8273 29.8567 42.9342 29.9184C43.0411 29.9801 43.1298 30.0689 43.1915 30.1758L44.0465 31.6568C44.1082 31.7636 44.1407 31.8849 44.1407 32.0083C44.1407 32.1317 44.1082 32.253 44.0465 32.3599L43.1915 33.8409C43.1298 33.9477 43.041 34.0365 42.9342 34.0982C42.8273 34.1599 42.706 34.1924 42.5826 34.1924H40.8725C40.7491 34.1924 40.6279 34.1599 40.521 34.0982C40.4141 34.0365 40.3253 33.9477 40.2636 33.8409L39.4086 32.3599C39.3469 32.253 39.3144 32.1317 39.3144 32.0083C39.3144 31.8849 39.3469 31.7636 39.4086 31.6568L40.2636 30.1758C40.3253 30.0689 40.4141 29.9801 40.521 29.9184C40.6279 29.8567 40.7491 29.8242 40.8725 29.8242Z" fill="#01C0FA"/>
<path d="M32.2691 29.8242H33.9792C34.1026 29.8243 34.2238 29.8567 34.3307 29.9185C34.4376 29.9802 34.5263 30.0689 34.5881 30.1758L35.4431 31.6568C35.5048 31.7637 35.5373 31.8849 35.5373 32.0083C35.5373 32.1318 35.5048 32.253 35.4431 32.3599L34.5881 33.8409C34.5263 33.9477 34.4376 34.0365 34.3307 34.0982C34.2238 34.1599 34.1026 34.1924 33.9792 34.1924H32.2691C32.1456 34.1924 32.0244 34.1599 31.9175 34.0982C31.8106 34.0365 31.7219 33.9478 31.6602 33.8409L30.8052 32.3599C30.7434 32.253 30.7109 32.1318 30.7109 32.0083C30.7109 31.8849 30.7434 31.7637 30.8052 31.6568L31.6602 30.1758C31.7219 30.0689 31.8106 29.9802 31.9175 29.9185C32.0244 29.8567 32.1456 29.8243 32.2691 29.8242Z" fill="#97D729"/>
<path d="M42.9251 13.0795C42.0591 13.6545 41.317 14.3972 40.7427 15.2636C40.1672 14.3975 39.4247 13.655 38.5586 13.0795C39.4247 12.5041 40.1672 11.7616 40.7427 10.8954C41.3169 11.7619 42.059 12.5046 42.9251 13.0795ZM10.8924 12.3516C9.73767 13.1182 8.74824 14.1084 7.98247 15.2637C7.21525 14.1089 6.22518 13.1188 5.07031 12.3516C6.2252 11.5844 7.21528 10.5944 7.98247 9.43951C8.74827 10.5948 9.7377 11.5849 10.8924 12.3516ZM37.1008 8.71144C35.6575 9.66976 34.4207 10.9075 33.4634 12.3516C32.5044 10.908 31.2669 9.67045 29.8233 8.71144C31.2669 7.75251 32.5045 6.51494 33.4634 5.07132C34.4207 6.51541 35.6575 7.75313 37.1008 8.71144Z" fill="#C8EFFE"/>
<path d="M2.15916 19.6318C2.9633 19.6318 3.61519 18.9799 3.61519 18.1758C3.61519 17.3716 2.9633 16.7198 2.15916 16.7198C1.35501 16.7198 0.703125 17.3716 0.703125 18.1758C0.703125 18.9799 1.35501 19.6318 2.15916 19.6318Z" stroke="black" stroke-width="1.40625" stroke-miterlimit="10" stroke-linecap="round" stroke-linejoin="round"/>
<path d="M45.8388 19.6318C46.643 19.6318 47.2949 18.9799 47.2949 18.1758C47.2949 17.3716 46.643 16.7198 45.8388 16.7198C45.0347 16.7198 44.3828 17.3716 44.3828 18.1758C44.3828 18.9799 45.0347 19.6318 45.8388 19.6318Z" stroke="black" stroke-width="1.40625" stroke-miterlimit="10" stroke-linecap="round" stroke-linejoin="round"/>
<path d="M23.9966 15.2637C25.2028 15.2637 26.1807 14.2859 26.1807 13.0796C26.1807 11.8734 25.2028 10.8955 23.9966 10.8955C22.7904 10.8955 21.8125 11.8734 21.8125 13.0796C21.8125 14.2859 22.7904 15.2637 23.9966 15.2637Z" stroke="black" stroke-width="1.40625" stroke-miterlimit="10" stroke-linecap="round" stroke-linejoin="round"/>
<path d="M7.61619 42.9287H5.02344C4.24681 42.9287 3.61719 42.2991 3.61719 41.5224V40.9043C3.61719 39.6099 4.66653 38.5605 5.96094 38.5605H42.043C43.3374 38.5605 44.3867 39.6099 44.3867 40.9043V41.5224C44.3867 42.2991 43.7571 42.9287 42.9805 42.9287H10.8974M26.9141 32.1538V27.4945C26.9141 27.1216 26.7659 26.7639 26.5022 26.5001L24.9963 24.9942C24.4471 24.445 23.5568 24.445 23.0076 24.9942L21.5017 26.5001C21.3711 26.6307 21.2675 26.7858 21.1969 26.9564C21.1262 27.127 21.0898 27.3099 21.0898 27.4945V32.1538C21.0898 32.5268 21.238 32.8845 21.5017 33.1482L23.0076 34.6541C23.5568 35.2033 24.4471 35.2033 24.9963 34.6541L26.5022 33.1482C26.6328 33.0176 26.7364 32.8626 26.807 32.692C26.8777 32.5214 26.9141 32.3385 26.9141 32.1538Z" stroke="black" stroke-width="1.40625" stroke-miterlimit="10" stroke-linecap="round" stroke-linejoin="round"/>
<path d="M21.1919 26.9641L24.0001 28.3682M24.0001 28.3682L26.8082 26.9641M24.0001 28.3682V31.2803M21.1919 32.6844L24.0001 31.2803M24.0001 31.2803L26.8082 32.6844M40.2351 22.9809L37.1045 16.7198L32.5544 22.7867M8.45565 21.5994L7.765 22.9809M15.4457 22.7867L10.8956 16.7198L9.94656 18.6178M15.7286 29.8242H14.0185C13.8951 29.8242 13.7738 29.8567 13.6669 29.9184C13.5601 29.9801 13.4713 30.0689 13.4096 30.1758L12.5546 31.6568C12.4929 31.7636 12.4604 31.8849 12.4604 32.0083C12.4604 32.1317 12.4929 32.253 12.5546 32.3599L13.4096 33.8409C13.4713 33.9477 13.5601 34.0365 13.667 34.0982C13.7738 34.1599 13.8951 34.1924 14.0185 34.1924H15.7286C15.852 34.1924 15.9732 34.1599 16.0801 34.0982C16.187 34.0365 16.2758 33.9477 16.3375 33.8409L17.1925 32.3599C17.2542 32.253 17.2867 32.1317 17.2867 32.0083C17.2867 31.8849 17.2542 31.7636 17.1925 31.6568L16.3375 30.1758C16.2758 30.0689 16.187 29.9801 16.0801 29.9184C15.9733 29.8567 15.852 29.8242 15.7286 29.8242ZM7.12759 29.8242H5.4175C5.29408 29.8242 5.17284 29.8567 5.06596 29.9185C4.95908 29.9802 4.87032 30.0689 4.80859 30.1758L3.95359 31.6568C3.89187 31.7636 3.85938 31.8849 3.85938 32.0083C3.85937 32.1317 3.89187 32.253 3.95359 32.3599L4.80859 33.8409C4.87032 33.9477 4.95908 34.0365 5.06596 34.0982C5.17284 34.1599 5.29408 34.1924 5.4175 34.1924H7.12759C7.25101 34.1924 7.37225 34.1599 7.47913 34.0982C7.58601 34.0365 7.67477 33.9477 7.7365 33.8409L8.5915 32.3599C8.65322 32.253 8.68571 32.1317 8.68571 32.0083C8.68571 31.8849 8.65322 31.7636 8.5915 31.6568L7.7365 30.1758C7.67479 30.0689 7.58603 29.9801 7.47914 29.9184C7.37226 29.8567 7.25101 29.8242 7.12759 29.8242ZM40.8725 29.8242H42.5826C42.706 29.8242 42.8273 29.8567 42.9342 29.9184C43.0411 29.9801 43.1298 30.0689 43.1915 30.1758L44.0465 31.6568C44.1082 31.7636 44.1407 31.8849 44.1407 32.0083C44.1407 32.1317 44.1082 32.253 44.0465 32.3599L43.1915 33.8409C43.1298 33.9477 43.041 34.0365 42.9342 34.0982C42.8273 34.1599 42.706 34.1924 42.5826 34.1924H40.8725C40.7491 34.1924 40.6279 34.1599 40.521 34.0982C40.4141 34.0365 40.3253 33.9477 40.2636 33.8409L39.4086 32.3599C39.3469 32.253 39.3144 32.1317 39.3144 32.0083C39.3144 31.8849 39.3469 31.7636 39.4086 31.6568L40.2636 30.1758C40.3253 30.0689 40.4141 29.9801 40.521 29.9184C40.6279 29.8567 40.7491 29.8242 40.8725 29.8242ZM32.2715 29.8242H33.9816C34.105 29.8242 34.2263 29.8567 34.3332 29.9184C34.4401 29.9801 34.5288 30.0689 34.5905 30.1758L35.4455 31.6568C35.5072 31.7636 35.5397 31.8849 35.5397 32.0083C35.5397 32.1317 35.5072 32.253 35.4455 32.3599L34.5905 33.8409C34.5288 33.9477 34.44 34.0365 34.3332 34.0982C34.2263 34.1599 34.105 34.1924 33.9816 34.1924H32.2715C32.1481 34.1924 32.0269 34.1599 31.92 34.0982C31.8131 34.0365 31.7243 33.9477 31.6626 33.8409L30.8076 32.3599C30.7459 32.253 30.7134 32.1317 30.7134 32.0083C30.7134 31.8849 30.7459 31.7636 30.8076 31.6568L31.6626 30.1758C31.7243 30.0689 31.8131 29.9801 31.92 29.9184C32.0269 29.8567 32.1481 29.8242 32.2715 29.8242ZM42.926 13.0795C42.06 13.6545 41.318 14.3972 40.7436 15.2636C40.1682 14.3975 39.4257 13.655 38.5595 13.0795C39.4257 12.5041 40.1682 11.7616 40.7436 10.8954C41.3179 11.7619 42.06 12.5046 42.926 13.0795ZM10.8933 12.3516C9.73864 13.1182 8.74921 14.1084 7.98343 15.2637C7.21622 14.1089 6.22615 13.1188 5.07128 12.3516C6.22617 11.5844 7.21624 10.5944 7.98343 9.43951C8.74923 10.5948 9.73866 11.5849 10.8933 12.3516ZM37.1018 8.71144C35.6584 9.66976 34.4216 10.9075 33.4644 12.3516C32.5054 10.908 31.2678 9.67045 29.8243 8.71144C31.2679 7.75251 32.5055 6.51494 33.4644 5.07132C34.4216 6.51541 35.6584 7.75313 37.1018 8.71144Z" stroke="black" stroke-width="1.40625" stroke-miterlimit="10" stroke-linecap="round" stroke-linejoin="round"/>
<path d="M23.141 15.0898L18.1722 22.5439L16.7162 21.0879L12.3475 26.9116L3.26066 19.1236M44.7315 19.1235L35.6443 26.9126L31.2765 21.0879L29.8207 22.5439L24.8511 15.09M44.6128 24.7433L45.5701 19.6074M43.4995 30.716L43.9978 28.0427M42.0372 38.5611L42.8626 34.1325M5.12956 34.1324L5.95522 38.5611M2.42188 19.6074L4.49272 30.7162" stroke="black" stroke-width="1.40625" stroke-miterlimit="10" stroke-linecap="round" stroke-linejoin="round"/>
</svg>
