<svg width="48" height="48" viewBox="0 0 48 48" fill="none" xmlns="http://www.w3.org/2000/svg">
<g clip-path="url(#clip0_1745_8282)">
<path d="M27 6V7.5L24 9H11.49C10.6425 10.77 8.8425 12 6.75 12C3.8475 12 1.5 9.6525 1.5 6.75C1.5 3.8475 3.8475 1.5 6.75 1.5C8.8425 1.5 10.6425 2.73 11.49 4.5H24L27 6ZM7.5 6.75C7.5 5.925 6.825 5.25 6 5.25C5.175 5.25 4.5 5.925 4.5 6.75C4.5 7.575 5.175 8.25 6 8.25C6.825 8.25 7.5 7.575 7.5 6.75Z" fill="#FCD770"/>
<path d="M40.5 40.5V43.5C40.5 45.1575 39.1575 46.5 37.5 46.5H4.5C2.8425 46.5 1.5 45.1575 1.5 43.5V40.5H16.5V42C16.5 42.825 17.175 43.5 18 43.5H24C24.825 43.5 25.5 42.825 25.5 42V40.5H39H40.5Z" fill="#969FAA"/>
<path d="M25.5 40.5V42C25.5 42.825 24.825 43.5 24 43.5H18C17.175 43.5 16.5 42.825 16.5 42V40.5H25.5Z" fill="#FCD770"/>
<path d="M6 15H36C36.7957 15 37.5587 15.3161 38.1213 15.8787C38.6839 16.4413 39 17.2044 39 18V40.5H3V18C3 17.2044 3.31607 16.4413 3.87868 15.8787C4.44129 15.3161 5.20435 15 6 15Z" fill="#E6E9ED"/>
<path d="M35.25 37.5H6.75C6.55109 37.5 6.36032 37.421 6.21967 37.2803C6.07902 37.1397 6 36.9489 6 36.75V18.75C6 18.5511 6.07902 18.3603 6.21967 18.2197C6.36032 18.079 6.55109 18 6.75 18H35.25C35.4489 18 35.6397 18.079 35.7803 18.2197C35.921 18.3603 36 18.5511 36 18.75V36.75C36 36.9489 35.921 37.1397 35.7803 37.2803C35.6397 37.421 35.4489 37.5 35.25 37.5Z" fill="#69D6F4"/>
<path d="M15.795 28.5H17.205C20.655 28.5 23.5725 31.0725 24 34.5H9C9.21 32.79 10.05 31.29 11.265 30.2175C12.48 29.145 14.07 28.5 15.795 28.5Z" fill="#FF826E"/>
<path d="M16.5 28.5C18.5711 28.5 20.25 26.8211 20.25 24.75C20.25 22.6789 18.5711 21 16.5 21C14.4289 21 12.75 22.6789 12.75 24.75C12.75 26.8211 14.4289 28.5 16.5 28.5Z" fill="#F0D0B4"/>
<path d="M36 23.7375C33.0964 22.663 30.6393 20.6419 29.025 18C28.455 17.0625 27.99 16.0575 27.6525 15C27.225 13.665 27 12.255 27 10.8V3.75H29.175C31.68 3.75 34.1325 3.0675 36.2775 1.785L36.75 1.5L37.2225 1.785C39.3675 3.0675 41.82 3.75 44.325 3.75H46.5V10.8C46.5 16.035 43.545 20.7525 39 23.0775C38.2875 23.4525 37.5375 23.76 36.75 24C36.495 23.925 36.2475 23.835 36 23.745V23.7375Z" fill="#969FAA"/>
<path d="M43.5 6.72751V10.8C43.5 15.2625 40.8225 19.1775 36.75 20.82C32.6775 19.1775 30 15.2625 30 10.8V6.72751C32.3475 6.61501 34.65 6.00751 36.75 4.95001C38.85 6.00751 41.1525 6.61501 43.5 6.72751Z" fill="#FFEAA7"/>
<path d="M36.75 8.25C38.4075 8.25 39.75 9.5925 39.75 11.25C39.75 12.36 39.1425 13.3125 38.25 13.8375V16.5H35.25V13.8375C34.3575 13.3125 33.75 12.36 33.75 11.25C33.75 9.5925 35.0925 8.25 36.75 8.25Z" fill="#B4DD7F"/>
<path d="M24.7422 34.407C24.3657 31.3988 22.2484 28.983 19.4832 28.1085C19.9591 27.6879 20.3403 27.171 20.6015 26.592C20.8627 26.013 20.9979 25.3852 20.9982 24.75C20.9982 22.2683 18.9799 20.25 16.4982 20.25C14.0164 20.25 11.9982 22.2683 11.9982 24.75C11.9985 25.3852 12.1337 26.013 12.3949 26.592C12.6561 27.171 13.0372 27.6879 13.5132 28.1085C10.7479 28.9838 8.63069 31.3988 8.25419 34.407L8.14844 35.25H24.8479L24.7422 34.407ZM16.4982 21.75C18.1527 21.75 19.4982 23.0955 19.4982 24.75C19.4982 26.4045 18.1527 27.75 16.4982 27.75C14.8437 27.75 13.4982 26.4045 13.4982 24.75C13.4982 23.0955 14.8437 21.75 16.4982 21.75ZM9.90869 33.75C10.2618 32.4588 11.029 31.3193 12.0925 30.5063C13.1559 29.6934 14.4569 29.252 15.7954 29.25H17.2017C19.9812 29.25 22.3767 31.1333 23.0884 33.75H9.90869ZM37.0857 4.27726L36.7482 4.10701L36.4107 4.27801C34.4046 5.29289 32.207 5.87327 29.9614 5.98126L29.2482 6.01576V10.7993C29.2482 15.5415 32.0817 19.7483 36.4677 21.516L36.7482 21.6285L37.0287 21.516C41.4147 19.7475 44.2482 15.5415 44.2482 10.7985V6.01576L43.5349 5.98051C41.2893 5.87259 39.0917 5.2922 37.0857 4.27726ZM42.7482 10.7985C42.7482 14.8238 40.4029 18.405 36.7482 20.0055C33.0934 18.4043 30.7482 14.8238 30.7482 10.7985V7.42876C32.8307 7.24418 34.8631 6.68656 36.7482 5.78251C38.6333 6.68646 40.6657 7.24409 42.7482 7.42876V10.7985Z" fill="black"/>
<path d="M44.3258 3.00001C41.9595 3.00001 39.6353 2.35651 37.6058 1.13926L36.75 0.624756L35.8942 1.13926C33.8641 2.35674 31.5414 2.99989 29.1742 3.00001H26.25V4.78651L24.177 3.75001H11.94C10.875 1.91326 8.88825 0.750006 6.75 0.750006C3.44175 0.750006 0.75 3.44176 0.75 6.75001C0.75 10.0583 3.44175 12.75 6.75 12.75C8.88825 12.75 10.875 11.5868 11.94 9.75001H17.25V11.25C17.25 12.0773 17.9228 12.75 18.75 12.75H20.25V11.25H18.75V9.75001H23.25V11.25H21.75V12.75H23.25C24.0772 12.75 24.75 12.0773 24.75 11.25V9.46351L26.25 8.71351V10.7985C26.25 11.9835 26.3925 13.1393 26.6595 14.25H6C3.93225 14.25 2.25 15.9323 2.25 18V39.75H0.75V43.5C0.75 45.5678 2.43225 47.25 4.5 47.25H37.5C39.5677 47.25 41.25 45.5678 41.25 43.5V39.75H39.75V23.5275C44.328 21.0045 47.25 16.203 47.25 10.7985V3.00001H44.3258ZM23.823 8.25001H11.0145L10.8112 8.67751C10.4447 9.44479 9.86919 10.0932 9.15082 10.5482C8.43246 11.0032 7.60035 11.2465 6.75 11.25C4.26825 11.25 2.25 9.23176 2.25 6.75001C2.25 4.26826 4.26825 2.25001 6.75 2.25001C7.60028 2.25342 8.43234 2.49662 9.15061 2.95167C9.86888 3.40672 10.4442 4.05517 10.8105 4.82251L11.0145 5.25001H23.823L26.25 6.46351V7.03651L23.823 8.25001ZM39.75 43.5C39.75 44.7405 38.7405 45.75 37.5 45.75H4.5C3.2595 45.75 2.25 44.7405 2.25 43.5V41.25H15.75V42C15.75 43.2405 16.7595 44.25 18 44.25H24C25.2405 44.25 26.25 43.2405 26.25 42V41.25H39.75V43.5ZM17.25 41.25H24.75V42C24.75 42.1989 24.671 42.3897 24.5303 42.5303C24.3897 42.671 24.1989 42.75 24 42.75H18C17.8011 42.75 17.6103 42.671 17.4697 42.5303C17.329 42.3897 17.25 42.1989 17.25 42V41.25ZM38.25 39.75H3.75V18C3.75 16.7595 4.7595 15.75 6 15.75H27.1155C27.2992 16.2638 27.5107 16.764 27.75 17.25H6.75C5.92275 17.25 5.25 17.9228 5.25 18.75V36.75C5.25 37.5773 5.92275 38.25 6.75 38.25H35.25C36.0773 38.25 36.75 37.5773 36.75 36.75V24.7845L36.9705 24.717C37.4085 24.582 37.833 24.4238 38.25 24.252V39.75ZM35.25 24.252V36.75H6.75V18.75H28.6012C30.2064 21.2175 32.5258 23.1369 35.25 24.252ZM45.75 10.7985C45.75 16.4918 42.1432 21.4515 36.75 23.2133C31.3568 21.4515 27.75 16.4918 27.75 10.7985V4.50001H29.1742C31.8134 4.49978 34.4029 3.78247 36.666 2.42476L36.75 2.37526L36.8333 2.42476C39.0967 3.78236 41.6864 4.49965 44.3258 4.50001H45.75V10.7985Z" fill="black"/>
<path d="M33 11.25C33 12.4222 33.5655 13.53 34.5 14.2343V17.25H39V14.2343C39.4634 13.8863 39.84 13.4359 40.1002 12.9181C40.3604 12.4004 40.4973 11.8295 40.5 11.25C40.5 9.18225 38.8177 7.5 36.75 7.5C34.6823 7.5 33 9.18225 33 11.25ZM39 11.25C39 12.051 38.5785 12.7747 37.8727 13.1857L37.5 13.4025V15.75H36V13.4025L35.6272 13.1857C34.9215 12.7747 34.5 12.051 34.5 11.25C34.5 10.0095 35.5095 9 36.75 9C37.9905 9 39 10.0095 39 11.25ZM32.25 33.75H33.75V35.25H32.25V33.75ZM26.25 33.75H30.75V35.25H26.25V33.75ZM26.25 30.75H33.75V32.25H26.25V30.75ZM26.25 27.75H33.75V29.25H26.25V27.75ZM26.25 24.75H33.75V26.25H26.25V24.75ZM8.25 20.25H9.75V21.75H8.25V20.25ZM8.25 23.25H9.75V24.75H8.25V23.25ZM8.25 26.25H9.75V27.75H8.25V26.25ZM6 4.5C4.7595 4.5 3.75 5.5095 3.75 6.75C3.75 7.9905 4.7595 9 6 9C7.2405 9 8.25 7.9905 8.25 6.75C8.25 5.5095 7.2405 4.5 6 4.5ZM6 7.5C5.80109 7.5 5.61032 7.42098 5.46967 7.28033C5.32902 7.13968 5.25 6.94891 5.25 6.75C5.25 6.55109 5.32902 6.36032 5.46967 6.21967C5.61032 6.07902 5.80109 6 6 6C6.19891 6 6.38968 6.07902 6.53033 6.21967C6.67098 6.36032 6.75 6.55109 6.75 6.75C6.75 6.94891 6.67098 7.13968 6.53033 7.28033C6.38968 7.42098 6.19891 7.5 6 7.5Z" fill="black"/>
</g>
<defs>
<clipPath id="clip0_1745_8282">
<rect width="48" height="48" fill="white"/>
</clipPath>
</defs>
</svg>
