<svg width="48" height="48" viewBox="0 0 48 48" fill="none" xmlns="http://www.w3.org/2000/svg">
<g clip-path="url(#clip0_1745_8299)">
<path d="M43.6292 24.9592C44.1919 24.4108 43.8814 23.4551 43.1038 23.342L31.6463 21.6772V22.0106C31.8775 22.2325 32.0614 22.4988 32.187 22.7936C32.3125 23.0885 32.3772 23.4056 32.377 23.726C32.377 25.043 31.3093 26.1107 29.9923 26.1107C29.8624 26.1107 29.7358 26.0975 29.6115 26.0775V26.0773C29.4126 29.0417 26.9269 31.4059 23.9143 31.4059C20.9018 31.4059 18.4161 29.0417 18.2172 26.0773C18.0928 26.0974 17.9663 26.1105 17.8363 26.1105C16.5193 26.1105 15.4517 25.0429 15.4517 23.7259C15.4517 22.9721 15.8023 22.301 16.3485 21.8642V21.677L4.89097 23.3419C4.11322 23.4549 3.80272 24.4104 4.36559 24.959L13.1368 33.5089C13.247 33.6161 13.3293 33.7486 13.3768 33.8948C13.4243 34.041 13.4355 34.1966 13.4095 34.3481L11.3389 46.4205C11.2062 47.195 12.019 47.7857 12.7146 47.42L23.5564 41.7202C23.6925 41.6488 23.8439 41.6114 23.9976 41.6114C24.1513 41.6114 24.3027 41.6488 24.4388 41.7202L35.2806 47.42C35.9762 47.7857 36.789 47.195 36.6563 46.4205L34.5857 34.3481C34.5598 34.1966 34.571 34.0411 34.6185 33.8949C34.666 33.7487 34.7483 33.6162 34.8583 33.5089L43.6292 24.9592ZM24.8475 10.0781C24.4997 9.3733 23.4949 9.3733 23.1471 10.0781L21.5207 13.3734C21.7606 13.3432 22.0021 13.3277 22.2439 13.3271H23.9192C25.1053 13.3271 26.146 13.9708 26.7171 14.924C26.8506 14.844 26.9905 14.774 27.135 14.7131L24.8475 10.0781Z" fill="#F5C84C"/>
<path d="M41.5431 8.63962C41.6955 8.49112 41.6113 8.23218 41.4007 8.20143L38.1169 7.72425C38.0757 7.71825 38.0366 7.70234 38.0029 7.67787C37.9692 7.65341 37.942 7.62113 37.9236 7.58381L36.4549 4.60818C36.3606 4.41731 36.0885 4.41731 35.9942 4.60818L34.5255 7.58381C34.488 7.65956 34.4158 7.71225 34.3322 7.72425L31.0483 8.20143C30.8376 8.232 30.7536 8.49093 30.906 8.63962L33.2822 10.9558C33.3427 11.0149 33.3703 11.0998 33.3561 11.1832L32.7951 14.4538C32.7591 14.6636 32.9794 14.8237 33.1678 14.7246L36.105 13.1803C36.1798 13.1409 36.2692 13.1409 36.3441 13.1803L39.2812 14.7246C39.4697 14.8236 39.69 14.6636 39.654 14.4538L39.093 11.1832C39.086 11.1422 39.089 11.1 39.1019 11.0604C39.1148 11.0208 39.1371 10.9849 39.1669 10.9558L41.5431 8.63962Z" fill="#FCDD86"/>
<path d="M20.1723 4.86933C20.19 4.85211 20.2025 4.83029 20.2085 4.80632C20.2144 4.78236 20.2135 4.75722 20.2059 4.73374C20.1982 4.71026 20.1842 4.68939 20.1653 4.67349C20.1464 4.65759 20.1235 4.64729 20.099 4.64377L18.4083 4.39814C18.3871 4.39506 18.367 4.38686 18.3496 4.37425C18.3323 4.36164 18.3183 4.345 18.3088 4.32577L17.5528 2.79389C17.5419 2.77174 17.525 2.75309 17.504 2.74005C17.4831 2.72701 17.4589 2.72009 17.4342 2.72009C17.4095 2.72009 17.3853 2.72701 17.3643 2.74005C17.3434 2.75309 17.3265 2.77174 17.3156 2.79389L16.5596 4.32577C16.5501 4.345 16.5361 4.36164 16.5187 4.37425C16.5014 4.38686 16.4813 4.39506 16.46 4.39814L14.7693 4.64377C14.7449 4.64736 14.722 4.65769 14.7032 4.6736C14.6844 4.68951 14.6704 4.71037 14.6627 4.73381C14.6551 4.75726 14.6542 4.78237 14.6601 4.80632C14.666 4.83026 14.6784 4.85208 14.696 4.86933L15.9195 6.06183C15.9348 6.07681 15.9463 6.09527 15.9529 6.11565C15.9595 6.13602 15.9611 6.1577 15.9575 6.17883L15.6688 7.86258C15.6646 7.8869 15.6673 7.91192 15.6765 7.93479C15.6858 7.95767 15.7013 7.97749 15.7213 7.99201C15.7412 8.00653 15.7649 8.01516 15.7895 8.01695C15.8141 8.01873 15.8387 8.01358 15.8606 8.00208L17.3728 7.20708C17.3917 7.19711 17.4129 7.1919 17.4343 7.1919C17.4557 7.1919 17.4768 7.19711 17.4958 7.20708L19.008 8.00208C19.0298 8.01358 19.0544 8.01873 19.0791 8.01695C19.1037 8.01516 19.1273 8.00653 19.1473 7.99201C19.1672 7.97749 19.1827 7.95767 19.192 7.93479C19.2013 7.91192 19.204 7.8869 19.1998 7.86258L18.911 6.17883C18.9074 6.1577 18.909 6.13602 18.9156 6.11564C18.9223 6.09526 18.9338 6.0768 18.9491 6.06183L20.1723 4.86933Z" fill="#FC657E"/>
<path d="M29.6233 22.9543V20.6066C29.6233 20.5768 29.6229 20.547 29.6224 20.5172C29.6209 20.4389 29.5896 20.3642 29.5347 20.3083C29.4798 20.2525 29.4057 20.2198 29.3274 20.217C26.9546 20.1474 25.7046 19.2071 25.2242 18.7361C25.1934 18.7058 25.1565 18.6823 25.1161 18.6672C25.0756 18.6521 25.0324 18.6457 24.9892 18.6484C24.9461 18.6511 24.904 18.6628 24.8657 18.6829C24.8274 18.703 24.7938 18.7309 24.7671 18.7648C22.6809 21.3881 19.6035 21.018 18.5689 20.8014C18.3808 20.7621 18.2004 20.9038 18.2003 21.096V22.9672C18.0869 23.0904 18.0238 23.2516 18.0234 23.4189C18.0234 23.7502 18.0863 24.0711 18.2003 24.3679V25.6944C18.2003 28.8358 20.7705 31.4061 23.9117 31.4061C27.0531 31.4061 29.6231 28.8358 29.6231 25.6944V24.438C29.7422 24.1468 29.8106 23.8299 29.8106 23.4971V23.4189C29.8107 23.2457 29.7435 23.0791 29.6233 22.9543Z" fill="#F9D0B4"/>
<path d="M28.3792 14.4588C27.7917 14.4595 27.2154 14.6203 26.7125 14.924C26.1414 13.9708 25.1007 13.3271 23.9146 13.3271H22.2393C18.9969 13.3271 16.3438 15.98 16.3438 19.2227V21.8641C16.6014 21.6573 16.8995 21.5065 17.2188 21.4215C17.5381 21.3365 17.8717 21.3191 18.1981 21.3705V21.096C18.1983 20.904 18.3787 20.7622 18.5667 20.8014C19.6014 21.018 22.6788 21.3881 24.7649 18.7648C24.7917 18.7308 24.8253 18.7029 24.8636 18.6829C24.9019 18.6628 24.944 18.651 24.9871 18.6483C25.0302 18.6456 25.0734 18.652 25.1139 18.6672C25.1544 18.6823 25.1913 18.7058 25.2221 18.7361C25.7024 19.2069 26.9527 20.1474 29.3253 20.217C29.4035 20.2198 29.4777 20.2525 29.5325 20.3084C29.5874 20.3642 29.6188 20.4389 29.6202 20.5171C29.6208 20.5468 29.6212 20.5766 29.6212 20.6066V21.3705C29.9845 21.3134 30.3562 21.3415 30.7068 21.4526C31.0574 21.5637 31.3775 21.7547 31.6417 22.0106V17.7213C31.6417 15.927 30.1736 14.4588 28.3792 14.4588Z" fill="#5B5D60"/>
<path d="M29.9938 21.3414C29.8691 21.3414 29.7468 21.3519 29.6272 21.3705V22.9543C29.7427 23.0752 29.8147 23.2384 29.8147 23.4189V23.4971C29.8147 23.8299 29.7463 24.1466 29.6272 24.438V25.6944C29.6272 25.8232 29.6214 25.9507 29.6127 26.0775C29.7371 26.0976 29.8636 26.1107 29.9936 26.1107C31.3106 26.1107 32.3782 25.0431 32.3782 23.7261C32.3782 22.4091 31.3108 21.3414 29.9938 21.3414ZM18.2043 25.6944V24.3679C18.0876 24.0651 18.0277 23.7434 18.0275 23.4189C18.0275 23.2444 18.0956 23.0869 18.2043 22.9672V21.3705C18.0831 21.3514 17.9605 21.3417 17.8378 21.3414C16.5208 21.3414 15.4531 22.4091 15.4531 23.7261C15.4531 25.0431 16.5208 26.1107 17.8378 26.1107C17.9677 26.1107 18.0943 26.0976 18.2186 26.0775C18.2096 25.95 18.2048 25.8222 18.2043 25.6944Z" fill="#F9D0B4"/>
<path d="M27.3676 1.66535C26.5243 1.50841 25.8596 0.857226 25.6993 0.031101C25.6978 0.0222914 25.6933 0.0142716 25.6866 0.00848189C25.6798 0.00269215 25.6711 -0.000488281 25.6622 -0.000488281C25.6533 -0.000488281 25.6447 0.00269215 25.6379 0.00848189C25.6311 0.0142716 25.6266 0.0222914 25.6252 0.031101C25.4649 0.857226 24.8002 1.50841 23.9568 1.66535C23.948 1.66645 23.9398 1.67075 23.9339 1.67743C23.928 1.68411 23.9248 1.69272 23.9248 1.70163C23.9248 1.71055 23.928 1.71915 23.9339 1.72583C23.9398 1.73251 23.948 1.73681 23.9568 1.73791C24.8002 1.89504 25.4649 2.54623 25.6252 3.37235C25.6266 3.38116 25.6311 3.38918 25.6379 3.39497C25.6447 3.40076 25.6533 3.40394 25.6622 3.40394C25.6711 3.40394 25.6798 3.40076 25.6866 3.39497C25.6933 3.38918 25.6978 3.38116 25.6993 3.37235C25.8596 2.54623 26.5243 1.89504 27.3676 1.73791C27.3765 1.73681 27.3846 1.73251 27.3905 1.72583C27.3964 1.71915 27.3997 1.71055 27.3997 1.70163C27.3997 1.69272 27.3964 1.68411 27.3905 1.67743C27.3846 1.67075 27.3765 1.66645 27.3676 1.66535ZM38.9746 19.1175C38.4114 19.0127 37.9674 18.5777 37.8603 18.0259C37.8593 18.02 37.8563 18.0147 37.8517 18.0109C37.8472 18.0071 37.8415 18.005 37.8356 18.005C37.8296 18.005 37.8239 18.0071 37.8194 18.0109C37.8149 18.0147 37.8118 18.02 37.8108 18.0259C37.7037 18.5777 37.2597 19.0127 36.6965 19.1175C36.6904 19.118 36.6848 19.1208 36.6807 19.1253C36.6765 19.1298 36.6743 19.1357 36.6743 19.1418C36.6743 19.1479 36.6765 19.1537 36.6807 19.1582C36.6848 19.1627 36.6904 19.1655 36.6965 19.166C37.2597 19.2709 37.7037 19.7059 37.8108 20.2577C37.8118 20.2635 37.8149 20.2688 37.8194 20.2726C37.8239 20.2764 37.8296 20.2785 37.8356 20.2785C37.8415 20.2785 37.8472 20.2764 37.8517 20.2726C37.8563 20.2688 37.8593 20.2635 37.8603 20.2577C37.9674 19.7059 38.4114 19.2709 38.9746 19.166C38.9807 19.1655 38.9863 19.1627 38.9905 19.1582C38.9946 19.1537 38.9969 19.1479 38.9969 19.1418C38.9969 19.1357 38.9946 19.1298 38.9905 19.1253C38.9863 19.1208 38.9807 19.118 38.9746 19.1175ZM8.18844 38.3066H7.75175V37.8697C7.75175 37.7127 7.68938 37.5622 7.57838 37.4512C7.46737 37.3401 7.3168 37.2778 7.15981 37.2778C7.00282 37.2778 6.85226 37.3401 6.74125 37.4512C6.63024 37.5622 6.56787 37.7127 6.56787 37.8697V38.3066H6.131C5.97401 38.3066 5.82345 38.369 5.71244 38.48C5.60143 38.591 5.53906 38.7415 5.53906 38.8985C5.53906 39.0555 5.60143 39.2061 5.71244 39.3171C5.82345 39.4281 5.97401 39.4905 6.131 39.4905H6.56787V39.9273C6.56787 40.0843 6.63024 40.2349 6.74125 40.3459C6.85226 40.4569 7.00282 40.5193 7.15981 40.5193C7.3168 40.5193 7.46737 40.4569 7.57838 40.3459C7.68938 40.2349 7.75175 40.0843 7.75175 39.9273V39.4905H8.18844C8.34543 39.4905 8.49599 39.4281 8.607 39.3171C8.71801 39.2061 8.78038 39.0555 8.78038 38.8985C8.78038 38.7415 8.71801 38.591 8.607 38.48C8.49599 38.369 8.34543 38.3066 8.18844 38.3066ZM8.80813 42.7612C8.64019 42.7612 8.47914 42.8279 8.36039 42.9467C8.24165 43.0654 8.17494 43.2265 8.17494 43.3944C8.17494 43.5623 8.24165 43.7234 8.36039 43.8421C8.47914 43.9609 8.64019 44.0276 8.80813 44.0276C8.97606 44.0276 9.13711 43.9609 9.25586 43.8421C9.3746 43.7234 9.44131 43.5623 9.44131 43.3944C9.44131 43.2265 9.3746 43.0654 9.25586 42.9467C9.13711 42.8279 8.97606 42.7612 8.80813 42.7612ZM28.1206 4.69873C27.9527 4.69873 27.7916 4.76544 27.6729 4.88418C27.5541 5.00293 27.4874 5.16398 27.4874 5.33191C27.4874 5.49985 27.5541 5.6609 27.6729 5.77964C27.7916 5.89839 27.9527 5.9651 28.1206 5.9651C28.2886 5.9651 28.4496 5.89839 28.5684 5.77964C28.6871 5.6609 28.7538 5.49985 28.7538 5.33191C28.7538 5.16398 28.6871 5.00293 28.5684 4.88418C28.4496 4.76544 28.2886 4.69873 28.1206 4.69873ZM36.6545 46.4207L34.8755 36.0485C34.5744 35.7034 34.1751 35.4584 33.731 35.3463L29.2953 34.2298L27.7276 33.4567C27.3973 33.2939 27.1191 33.0418 26.9246 32.7291C26.7301 32.4163 26.627 32.0554 26.627 31.6871V30.7149C25.7944 31.1689 24.8611 31.4064 23.9127 31.4057C23.0276 31.406 22.1548 31.1986 21.3644 30.8002V31.6871C21.3644 32.4384 20.9377 33.1245 20.2638 33.4567L18.6961 34.2298L14.2604 35.3463C13.8163 35.4584 13.417 35.7034 13.1159 36.0485L11.3369 46.4207C11.2042 47.1952 12.017 47.7858 12.7126 47.4202L23.5544 41.7204C23.6905 41.6489 23.8419 41.6116 23.9956 41.6116C24.1493 41.6116 24.3007 41.6489 24.4368 41.7204L35.2786 47.4202C35.9744 47.7858 36.7872 47.1952 36.6545 46.4207Z" fill="#F5C84C"/>
<path d="M23.1033 35.7189L20.7671 33.0984C20.6198 33.2435 20.4505 33.3645 20.2655 33.4569L18.6978 34.23L18.5234 34.2739L21.2694 37.3539C21.3038 37.3925 21.3455 37.4239 21.392 37.4464C21.4386 37.4689 21.4891 37.482 21.5407 37.485C21.5924 37.4879 21.6441 37.4807 21.6929 37.4637C21.7417 37.4467 21.7867 37.4202 21.8253 37.3858L23.0714 36.2747C23.1493 36.2052 23.1964 36.1076 23.2024 36.0034C23.2084 35.8992 23.1728 35.7969 23.1033 35.7189ZM29.2968 34.23L27.7291 33.4569C27.5441 33.3646 27.3748 33.2436 27.2276 33.0984L24.8913 35.7189C24.8569 35.7575 24.8304 35.8025 24.8134 35.8513C24.7963 35.9001 24.7891 35.9518 24.792 36.0034C24.795 36.055 24.8081 36.1055 24.8306 36.1521C24.8531 36.1986 24.8846 36.2403 24.9232 36.2747L26.1693 37.3858C26.2079 37.4202 26.2529 37.4467 26.3017 37.4637C26.3505 37.4808 26.4022 37.488 26.4538 37.4851C26.5054 37.4821 26.5559 37.469 26.6025 37.4465C26.649 37.424 26.6907 37.3925 26.7251 37.3539L29.471 34.2739L29.2968 34.23Z" fill="#F98FA6"/>
<path d="M36.6597 46.4207L34.8807 36.0486C34.5796 35.7034 34.1803 35.4584 33.7362 35.3464L29.4749 34.2739L26.7289 37.3539C26.6946 37.3925 26.6529 37.424 26.6064 37.4465C26.5598 37.469 26.5093 37.4821 26.4577 37.4851C26.406 37.488 26.3544 37.4808 26.3055 37.4638C26.2567 37.4467 26.2118 37.4202 26.1732 37.3858L24.9271 36.2747C24.8763 36.2292 24.8382 36.1713 24.8166 36.1067C24.7951 36.042 24.7907 35.9729 24.8041 35.906H23.1983C23.2116 35.9729 23.2073 36.042 23.1857 36.1067C23.1641 36.1713 23.1261 36.2292 23.0753 36.2747L21.8292 37.3858C21.7906 37.4202 21.7456 37.4467 21.6968 37.4637C21.6479 37.4807 21.5962 37.488 21.5446 37.485C21.493 37.482 21.4425 37.4689 21.3959 37.4465C21.3493 37.424 21.3077 37.3925 21.2732 37.3539L18.5273 34.2739L14.266 35.3464C13.8219 35.4584 13.4226 35.7034 13.1215 36.0486L11.3425 46.4207C11.2097 47.1952 12.0226 47.7859 12.7182 47.4202L23.56 41.7204C23.6961 41.649 23.8475 41.6116 24.0012 41.6116C24.1549 41.6116 24.3063 41.649 24.4424 41.7204L35.2842 47.4202C35.9796 47.7859 36.7924 47.1952 36.6597 46.4207Z" fill="#FC657E"/>
<path d="M26.6271 31.6873V30.7151C25.7945 31.1691 24.8611 31.4066 23.9128 31.4058C23.0277 31.4062 22.1549 31.1988 21.3645 30.8004V31.6873C21.364 31.9506 21.3108 32.2112 21.2079 32.4536C21.1051 32.696 20.9547 32.9153 20.7656 33.0986L23.1019 35.7191C23.1508 35.774 23.1801 35.8391 23.193 35.9064H24.7988C24.8117 35.8391 24.8409 35.774 24.8899 35.7191L27.2261 33.0986C27.037 32.9153 26.8866 32.696 26.7837 32.4536C26.6808 32.2112 26.6275 31.9506 26.6271 31.6873Z" fill="#F9D0B4"/>
<path d="M29.1366 22.7449H25.4689C25.2901 22.7449 25.1187 22.8159 24.9922 22.9423C24.8658 23.0687 24.7948 23.2402 24.7948 23.4189C24.7948 24.7221 25.7563 25.8656 27.0531 25.9929C28.5433 26.1392 29.8106 24.9591 29.8106 23.4971V23.4189C29.8107 23.3304 29.7932 23.2427 29.7594 23.161C29.7255 23.0792 29.6758 23.0048 29.6133 22.9422C29.5507 22.8796 29.4763 22.83 29.3945 22.7961C29.3128 22.7623 29.2251 22.7448 29.1366 22.7449ZM22.3652 22.7449H18.6975C18.5187 22.7449 18.3473 22.8159 18.2209 22.9423C18.0945 23.0687 18.0234 23.2402 18.0234 23.4189C18.0234 24.7221 18.9849 25.8656 20.2817 25.9929C21.7719 26.1392 23.0392 24.9591 23.0392 23.4971V23.4189C23.0392 23.2402 22.9682 23.0687 22.8418 22.9423C22.7154 22.8159 22.544 22.7449 22.3652 22.7449Z" fill="#3A70BF"/>
<path d="M43.9566 25.2948C44.3456 24.9157 44.4829 24.3592 44.3151 23.8425C44.1472 23.3257 43.7089 22.9562 43.1713 22.8782L31.851 21.2332C31.7898 21.2238 31.7274 21.2266 31.6673 21.2415C31.6072 21.2563 31.5507 21.2829 31.5009 21.3197C31.4512 21.3565 31.4092 21.4028 31.3775 21.456C31.3457 21.5091 31.3248 21.568 31.3159 21.6292C31.307 21.6905 31.3103 21.7529 31.3257 21.8128C31.341 21.8728 31.3681 21.9291 31.4053 21.9785C31.4426 22.028 31.4892 22.0695 31.5426 22.1009C31.596 22.1322 31.6551 22.1526 31.7164 22.161L43.0367 23.8059C43.1256 23.8177 43.2093 23.8547 43.2778 23.9125C43.3464 23.9703 43.397 24.0465 43.4237 24.1322C43.4524 24.2171 43.4562 24.3085 43.4347 24.3956C43.4132 24.4826 43.3673 24.5617 43.3024 24.6236L34.5311 33.1734C34.3666 33.3337 34.2435 33.5317 34.1725 33.7502C34.1016 33.9687 34.0848 34.2012 34.1237 34.4276L36.1941 46.5C36.2102 46.5882 36.2009 46.6791 36.1671 46.7622C36.1333 46.8452 36.0765 46.9169 36.0034 46.9687C35.9315 47.0224 35.8458 47.0543 35.7563 47.0608C35.6669 47.0673 35.5775 47.048 35.4986 47.0053L24.6568 41.3055C24.4535 41.1986 24.2272 41.1428 23.9975 41.1428C23.7677 41.1428 23.5415 41.1986 23.3381 41.3055L12.4965 47.0053C12.4176 47.048 12.3282 47.0673 12.2387 47.0608C12.1492 47.0543 12.0635 47.0224 11.9916 46.9687C11.9184 46.9169 11.8616 46.8452 11.8279 46.7622C11.7941 46.6791 11.7847 46.5882 11.8009 46.5L13.8714 34.4276C13.9104 34.2012 13.8936 33.9687 13.8226 33.7502C13.7516 33.5317 13.6286 33.3337 13.464 33.1734L4.69275 24.6236C4.62782 24.5617 4.58192 24.4826 4.56043 24.3956C4.53894 24.3085 4.54276 24.2171 4.57143 24.1322C4.59816 24.0466 4.64878 23.9704 4.71734 23.9126C4.7859 23.8548 4.86955 23.8178 4.95843 23.8059L16.3455 22.1512C16.4677 22.1324 16.5775 22.0661 16.6511 21.9667C16.7246 21.8674 16.7559 21.743 16.7382 21.6206C16.7204 21.4982 16.655 21.3879 16.5563 21.3135C16.4575 21.2391 16.3334 21.2067 16.2109 21.2235L4.82381 22.8782C4.56182 22.9152 4.31557 23.0253 4.11328 23.1959C3.91099 23.3664 3.76085 23.5905 3.68006 23.8425C3.59726 24.0938 3.58698 24.3633 3.65039 24.6202C3.7138 24.8771 3.84833 25.1109 4.03856 25.2948L12.8098 33.8447C12.9229 33.9549 12.9742 34.1135 12.9476 34.2692L10.8771 46.3415C10.8313 46.6021 10.8599 46.8704 10.9596 47.1155C11.0593 47.3606 11.226 47.5726 11.4407 47.7273C11.6541 47.8838 11.9073 47.9769 12.1712 47.996C12.4351 48.0151 12.6991 47.9594 12.9328 47.8353L23.7744 42.1355C23.8432 42.0993 23.9198 42.0804 23.9975 42.0804C24.0752 42.0804 24.1517 42.0993 24.2205 42.1355L35.0623 47.8353C35.2659 47.9429 35.4926 47.9993 35.7229 47.9996C36.0219 47.9992 36.3131 47.9039 36.5544 47.7273C36.7691 47.5726 36.9358 47.3606 37.0355 47.1155C37.1352 46.8704 37.1638 46.6021 37.1181 46.3415L35.0475 34.269C35.0344 34.1924 35.0401 34.1137 35.0641 34.0398C35.0881 33.9659 35.1297 33.8989 35.1853 33.8447L43.9566 25.2948ZM27.5357 14.4654L25.2681 9.87072C25.0277 9.38341 24.5407 9.08078 23.9976 9.08078C23.4544 9.08078 22.9674 9.38359 22.7271 9.87072L21.1395 13.0873C21.1112 13.1426 21.0941 13.203 21.0894 13.2649C21.0846 13.3269 21.0922 13.3892 21.1117 13.4481C21.1312 13.5071 21.1623 13.5617 21.2031 13.6085C21.2438 13.6554 21.2935 13.6937 21.3493 13.7212C21.405 13.7487 21.4656 13.7649 21.5276 13.7687C21.5896 13.7726 21.6518 13.7641 21.7105 13.7437C21.7692 13.7233 21.8232 13.6915 21.8695 13.65C21.9158 13.6086 21.9534 13.5583 21.9801 13.5022L23.5676 10.2857C23.6501 10.1184 23.8108 10.0185 23.9974 10.0185C24.1839 10.0185 24.3446 10.1184 24.4271 10.2858L26.6949 14.8805C26.7213 14.9371 26.7588 14.9878 26.8051 15.0298C26.8514 15.0717 26.9056 15.1039 26.9645 15.1246C27.0234 15.1453 27.0859 15.154 27.1482 15.1502C27.2105 15.1465 27.2715 15.1303 27.3275 15.1026C27.3835 15.075 27.4334 15.0364 27.4742 14.9892C27.5151 14.9421 27.5462 14.8872 27.5656 14.8278C27.585 14.7685 27.5923 14.7058 27.5872 14.6436C27.5821 14.5814 27.5645 14.5208 27.5357 14.4654ZM42.0497 8.23159C42.0083 8.10253 41.9314 7.98773 41.8278 7.90035C41.7242 7.81297 41.5981 7.75654 41.4639 7.73753L38.2903 7.27647L36.8709 4.40078C36.7477 4.15122 36.4986 3.99634 36.2203 3.99634C35.9421 3.99634 35.6929 4.15141 35.5697 4.40078L34.1503 7.27647L30.9765 7.73753C30.7012 7.77766 30.4768 7.96703 30.3909 8.23159C30.3051 8.49616 30.3754 8.78116 30.5745 8.97522L32.871 11.2136L32.3289 14.3745C32.3055 14.5079 32.3201 14.6453 32.3712 14.7708C32.4222 14.8963 32.5076 15.0049 32.6175 15.0842C32.8425 15.2478 33.1352 15.269 33.3817 15.1395L36.2203 13.6472L39.0589 15.1395C39.1786 15.2029 39.3137 15.2314 39.4488 15.2216C39.584 15.2118 39.7136 15.1642 39.8229 15.0842C39.9328 15.0049 40.0182 14.8963 40.0693 14.7708C40.1203 14.6453 40.1349 14.5079 40.1115 14.3745L39.5694 11.2138L41.8661 8.97541C41.9635 8.88117 42.0323 8.76142 42.0648 8.62988C42.0972 8.49833 42.092 8.3603 42.0497 8.23159ZM38.8352 10.6205C38.751 10.7027 38.6881 10.804 38.6517 10.9159C38.6154 11.0278 38.6068 11.1468 38.6267 11.2627L39.1149 14.1101L36.5574 12.7655C36.4532 12.711 36.3374 12.6826 36.2198 12.6826C36.1022 12.6826 35.9864 12.7112 35.8822 12.7657L33.3251 14.1101L33.8136 11.2625C33.8334 11.1466 33.8248 11.0276 33.7884 10.9157C33.7521 10.8038 33.6891 10.7025 33.6049 10.6203L31.536 8.60378L34.3952 8.18828C34.5116 8.1714 34.6222 8.12644 34.7173 8.05729C34.8125 7.98813 34.8894 7.89686 34.9414 7.79134L36.2199 5.20066L37.4983 7.79078C37.5503 7.89643 37.6272 7.98783 37.7225 8.05709C37.8177 8.12634 37.9283 8.17137 38.0449 8.18828L40.9039 8.60378L38.8352 10.6205ZM20.6524 4.58903C20.6181 4.48216 20.5544 4.3871 20.4685 4.31474C20.3827 4.24239 20.2783 4.19566 20.1671 4.17991L18.6516 3.95959L17.9737 2.58616C17.8717 2.37953 17.6651 2.25128 17.4349 2.25128C17.2046 2.25128 16.998 2.37972 16.896 2.58634L16.2182 3.95959L14.7026 4.17991C14.4744 4.21309 14.2886 4.36984 14.2174 4.58903C14.1461 4.80822 14.2044 5.04428 14.3694 5.20497L15.4661 6.27391L15.2074 7.78309C15.1879 7.89365 15.2 8.00744 15.2423 8.11143C15.2845 8.21542 15.3552 8.30541 15.4462 8.37109C15.5516 8.44759 15.675 8.48659 15.7989 8.48659C15.8966 8.48644 15.9929 8.4625 16.0792 8.41684L17.4349 7.70416L18.7903 8.41684C18.9939 8.52391 19.2367 8.50666 19.4233 8.37109C19.6099 8.23553 19.7014 8.01016 19.6622 7.78328L19.4034 6.27372L20.5001 5.20478C20.5808 5.12684 20.6379 5.02773 20.6649 4.91882C20.6918 4.8099 20.6875 4.6956 20.6524 4.58903ZM18.6221 5.72641C18.5525 5.79443 18.5004 5.87834 18.4704 5.97093C18.4403 6.06352 18.4332 6.16202 18.4496 6.25797L18.6231 7.26972L17.7142 6.79197C17.628 6.74661 17.5321 6.72292 17.4347 6.72295C17.3372 6.72299 17.2413 6.74674 17.1551 6.79216L16.2465 7.26991L16.4201 6.25778C16.4365 6.1618 16.4293 6.06328 16.3992 5.97069C16.3691 5.8781 16.3169 5.79421 16.2472 5.72622L15.5122 5.00978L16.5277 4.86203C16.6242 4.84808 16.7159 4.81087 16.7947 4.7536C16.8736 4.69634 16.9374 4.62075 16.9806 4.53334L17.4349 3.61272L17.889 4.53259C17.932 4.62013 17.9958 4.69586 18.0747 4.75323C18.1536 4.8106 18.2453 4.84788 18.3418 4.86184L19.3575 5.00959L18.6221 5.72641Z" fill="black"/>
<path d="M30.094 20.508C30.0906 20.3093 30.0108 20.1195 29.8712 19.9781C29.7315 19.8367 29.5428 19.7544 29.3442 19.7484C27.0974 19.6826 25.9459 18.7845 25.5552 18.4014C25.3984 18.2475 25.183 18.167 24.9638 18.1805C24.7446 18.194 24.5403 18.3007 24.403 18.4732C22.5141 20.8485 19.7631 20.5719 18.6678 20.343C18.5548 20.319 18.4379 20.3207 18.3256 20.3479C18.2134 20.3751 18.1087 20.4271 18.0192 20.5001C17.9298 20.5724 17.8578 20.6638 17.8085 20.7677C17.7592 20.8715 17.7339 20.9851 17.7344 21.1001V22.7799C17.7344 22.9042 17.7838 23.0235 17.8717 23.1114C17.9596 23.1993 18.0788 23.2487 18.2031 23.2487C18.3275 23.2487 18.4467 23.1993 18.5346 23.1114C18.6225 23.0235 18.6719 22.9042 18.6719 22.7799V21.2985C19.8348 21.5049 22.8878 21.7442 25.027 19.1914C25.6538 19.7559 26.9373 20.5787 29.1574 20.6797V22.767C29.1574 22.8913 29.2068 23.0105 29.2947 23.0984C29.3826 23.1863 29.5019 23.2357 29.6262 23.2357C29.7505 23.2357 29.8697 23.1863 29.9577 23.0984C30.0456 23.0105 30.0949 22.8913 30.0949 22.767V20.6068C30.0951 20.5734 30.0948 20.5402 30.094 20.508ZM29.6264 24.1567C29.5021 24.1567 29.3828 24.2061 29.2949 24.294C29.207 24.3819 29.1576 24.5012 29.1576 24.6255V25.6944C29.1576 28.5853 26.8058 30.9373 23.9149 30.9373C21.0241 30.9373 18.6723 28.5855 18.6723 25.6944V24.5554C18.6723 24.431 18.6229 24.3118 18.535 24.2239C18.4471 24.136 18.3278 24.0866 18.2035 24.0866C18.0792 24.0866 17.96 24.136 17.8721 24.2239C17.7841 24.3118 17.7348 24.431 17.7348 24.5554V25.6944C17.7348 29.1022 20.5073 31.8748 23.9149 31.8748C27.3226 31.8748 30.0951 29.1022 30.0951 25.6944V24.6255C30.0951 24.5012 30.0457 24.3819 29.9578 24.294C29.8699 24.2061 29.7507 24.1567 29.6264 24.1567Z" fill="black"/>
<path d="M28.3792 13.9901C27.8581 13.9901 27.3417 14.1022 26.8644 14.3167C26.1609 13.4077 25.0666 12.8583 23.9146 12.8583H22.2393C18.7301 12.8583 15.875 15.7134 15.875 19.2225V21.7888C15.875 21.9131 15.9244 22.0323 16.0123 22.1202C16.1002 22.2081 16.2194 22.2575 16.3437 22.2575C16.4681 22.2575 16.5873 22.2081 16.6752 22.1202C16.7631 22.0323 16.8125 21.9131 16.8125 21.7888V19.2225C16.8125 16.2301 19.247 13.7958 22.2393 13.7958H23.9146C24.8864 13.7958 25.8044 14.3205 26.3103 15.165C26.342 15.2178 26.3837 15.2638 26.4331 15.3005C26.4826 15.3372 26.5388 15.3638 26.5985 15.3787C26.6582 15.3937 26.7203 15.3967 26.7812 15.3877C26.8421 15.3786 26.9006 15.3577 26.9534 15.326C27.3838 15.0666 27.8765 14.9289 28.379 14.9276C29.9195 14.9276 31.1727 16.1808 31.1727 17.7213V21.9375C31.1727 22.0618 31.2221 22.181 31.31 22.2689C31.398 22.3568 31.5172 22.4062 31.6415 22.4062C31.7658 22.4062 31.885 22.3568 31.973 22.2689C32.0609 22.181 32.1102 22.0618 32.1102 21.9375V17.7213C32.1104 15.6641 30.4366 13.9901 28.3792 13.9901Z" fill="black"/>
<path d="M29.9938 20.8727C29.906 20.8727 29.8168 20.877 29.7284 20.8854C29.4706 20.9102 29.2818 21.1391 29.3066 21.3968C29.3313 21.6544 29.5593 21.8438 29.8179 21.8186C29.8758 21.813 29.9345 21.8102 29.9938 21.8102C31.0501 21.8102 31.9096 22.6695 31.9096 23.7261C31.9096 24.7826 31.0501 25.6419 29.9938 25.6419C29.9311 25.6419 29.8657 25.638 29.7943 25.6298C29.6708 25.6155 29.5466 25.6508 29.4492 25.728C29.3518 25.8052 29.289 25.918 29.2747 26.0415C29.2604 26.165 29.2957 26.2891 29.373 26.3866C29.4502 26.484 29.5629 26.5468 29.6864 26.5611C29.7941 26.5734 29.8946 26.5796 29.9936 26.5796C31.5671 26.5796 32.8469 25.2996 32.8469 23.7263C32.8469 22.1529 31.5673 20.8727 29.9938 20.8727ZM18.5816 26.0334C18.566 25.9101 18.5021 25.798 18.4039 25.7218C18.3056 25.6456 18.1812 25.6116 18.0579 25.6271C17.9849 25.6367 17.9114 25.6416 17.8378 25.6419C16.7814 25.6419 15.9219 24.7826 15.9219 23.7261C15.9219 22.6695 16.7812 21.8102 17.8378 21.8102C17.9041 21.8102 17.9729 21.8141 18.0417 21.8216C18.1029 21.8284 18.1649 21.823 18.224 21.8058C18.2831 21.7886 18.3382 21.76 18.3863 21.7215C18.4343 21.683 18.4743 21.6354 18.5039 21.5815C18.5336 21.5275 18.5523 21.4683 18.5591 21.4071C18.5658 21.3459 18.5604 21.284 18.5433 21.2248C18.5261 21.1657 18.4974 21.1106 18.4589 21.0626C18.4204 21.0145 18.3728 20.9745 18.3189 20.9449C18.2649 20.9152 18.2057 20.8965 18.1445 20.8898C16.4319 20.7011 14.9844 22.0521 14.9844 23.7259C14.9844 25.2992 16.2644 26.5793 17.8378 26.5793C17.9467 26.5793 18.0569 26.5719 18.1753 26.5571C18.2986 26.5415 18.4107 26.4776 18.4868 26.3794C18.563 26.2812 18.5971 26.1568 18.5816 26.0334Z" fill="black"/>
<path d="M27.3647 1.66535C26.5213 1.50841 25.8567 0.857226 25.6964 0.031101C25.6949 0.0222914 25.6904 0.0142716 25.6837 0.00848189C25.6769 0.00269215 25.6682 -0.000488281 25.6593 -0.000488281C25.6504 -0.000488281 25.6418 0.00269215 25.635 0.00848189C25.6282 0.0142716 25.6237 0.0222914 25.6223 0.031101C25.462 0.857226 24.7973 1.50841 23.9539 1.66535C23.9451 1.66645 23.9369 1.67075 23.931 1.67743C23.9251 1.68411 23.9219 1.69272 23.9219 1.70163C23.9219 1.71055 23.9251 1.71915 23.931 1.72583C23.9369 1.73251 23.9451 1.73681 23.9539 1.73791C24.7973 1.89504 25.462 2.54623 25.6223 3.37235C25.6237 3.38116 25.6282 3.38918 25.635 3.39497C25.6418 3.40076 25.6504 3.40394 25.6593 3.40394C25.6682 3.40394 25.6769 3.40076 25.6837 3.39497C25.6904 3.38918 25.6949 3.38116 25.6964 3.37235C25.8567 2.54623 26.5213 1.89504 27.3647 1.73791C27.3736 1.73681 27.3817 1.73251 27.3876 1.72583C27.3935 1.71915 27.3968 1.71055 27.3968 1.70163C27.3968 1.69272 27.3935 1.68411 27.3876 1.67743C27.3817 1.67075 27.3736 1.66645 27.3647 1.66535Z" fill="#F5C84C"/>
<path d="M38.9801 19.1175C38.4168 19.0127 37.9728 18.5777 37.8657 18.0259C37.8647 18.02 37.8617 18.0147 37.8572 18.0109C37.8526 18.0071 37.8469 18.0051 37.841 18.0051C37.8351 18.0051 37.8294 18.0071 37.8248 18.0109C37.8203 18.0147 37.8173 18.02 37.8162 18.0259C37.7092 18.5777 37.2652 19.0127 36.7019 19.1175C36.6959 19.118 36.6902 19.1208 36.6861 19.1253C36.682 19.1298 36.6797 19.1357 36.6797 19.1418C36.6797 19.1479 36.682 19.1537 36.6861 19.1582C36.6902 19.1627 36.6959 19.1655 36.7019 19.166C37.2652 19.2709 37.7092 19.7059 37.8162 20.2577C37.8173 20.2635 37.8203 20.2688 37.8248 20.2726C37.8294 20.2764 37.8351 20.2785 37.841 20.2785C37.8469 20.2785 37.8526 20.2764 37.8572 20.2726C37.8617 20.2688 37.8647 20.2635 37.8657 20.2577C37.9728 19.7059 38.4168 19.2709 38.9801 19.166C38.9861 19.1655 38.9918 19.1627 38.9959 19.1582C39 19.1537 39.0023 19.1479 39.0023 19.1418C39.0023 19.1357 39 19.1298 38.9959 19.1253C38.9918 19.1208 38.9861 19.118 38.9801 19.1175Z" fill="#FC657E"/>
<path d="M8.18844 38.3066H7.75175V37.8697C7.75175 37.7127 7.68939 37.5622 7.57838 37.4511C7.46737 37.3401 7.3168 37.2778 7.15981 37.2778C7.00282 37.2778 6.85226 37.3401 6.74125 37.4511C6.63024 37.5622 6.56787 37.7127 6.56787 37.8697V38.3066H6.131C5.97401 38.3066 5.82345 38.3689 5.71244 38.48C5.60143 38.591 5.53906 38.7415 5.53906 38.8985C5.53906 39.0555 5.60143 39.2061 5.71244 39.3171C5.82345 39.4281 5.97401 39.4905 6.131 39.4905H6.56787V39.9273C6.56787 40.0843 6.63024 40.2349 6.74125 40.3459C6.85226 40.4569 7.00282 40.5193 7.15981 40.5193C7.3168 40.5193 7.46737 40.4569 7.57838 40.3459C7.68939 40.2349 7.75175 40.0843 7.75175 39.9273V39.4905H8.18844C8.34543 39.4905 8.49599 39.4281 8.607 39.3171C8.71801 39.2061 8.78038 39.0555 8.78038 38.8985C8.78038 38.7415 8.71801 38.591 8.607 38.48C8.49599 38.3689 8.34543 38.3066 8.18844 38.3066Z" fill="#70D6F9"/>
<path d="M8.80506 42.7612C8.63713 42.7612 8.47608 42.8279 8.35733 42.9467C8.23859 43.0654 8.17188 43.2265 8.17188 43.3944C8.17188 43.5623 8.23859 43.7234 8.35733 43.8422C8.47608 43.9609 8.63713 44.0276 8.80506 44.0276C8.97299 44.0276 9.13405 43.9609 9.25279 43.8422C9.37154 43.7234 9.43825 43.5623 9.43825 43.3944C9.43825 43.2265 9.37154 43.0654 9.25279 42.9467C9.13405 42.8279 8.97299 42.7612 8.80506 42.7612Z" fill="#F5C84C"/>
<path d="M28.1176 4.69873C27.9496 4.69873 27.7886 4.76544 27.6698 4.88419C27.5511 5.00293 27.4844 5.16399 27.4844 5.33192C27.4844 5.49985 27.5511 5.6609 27.6698 5.77965C27.7886 5.89839 27.9496 5.96511 28.1176 5.96511C28.2855 5.96511 28.4465 5.89839 28.5653 5.77965C28.684 5.6609 28.7508 5.49985 28.7508 5.33192C28.7508 5.16399 28.684 5.00293 28.5653 4.88419C28.4465 4.76544 28.2855 4.69873 28.1176 4.69873Z" fill="#87D147"/>
<path d="M37.1218 46.3415L35.3428 35.9694C35.3282 35.8843 35.2904 35.8049 35.2335 35.7399C34.87 35.3227 34.3875 35.0268 33.8508 34.892L29.4633 33.7877L27.9403 33.0367C27.6877 32.9134 27.4751 32.7215 27.3266 32.4828C27.1782 32.2442 27.1001 31.9685 27.1012 31.6875V30.7151C27.1012 30.6338 27.08 30.554 27.0398 30.4834C26.9996 30.4127 26.9417 30.3538 26.8719 30.3123C26.802 30.2708 26.7225 30.2481 26.6413 30.2466C26.56 30.2451 26.4798 30.2647 26.4084 30.3035C25.644 30.7188 24.7881 30.9367 23.9182 30.9373C23.1001 30.9373 22.3136 30.7504 21.5805 30.3819C21.509 30.346 21.4295 30.3289 21.3496 30.3324C21.2697 30.3359 21.192 30.3597 21.1239 30.4017C21.0559 30.4436 20.9996 30.5023 20.9606 30.5721C20.9216 30.642 20.9012 30.7206 20.9011 30.8006V31.6875C20.9022 31.9685 20.8241 32.2442 20.6757 32.4828C20.5273 32.7215 20.3146 32.9134 20.0621 33.0367L18.539 33.7877L14.1517 34.892C13.615 35.0269 13.1325 35.3228 12.7689 35.7399C12.7119 35.8048 12.6742 35.8843 12.6596 35.9694L10.8806 46.3415C10.8348 46.6022 10.8634 46.8704 10.9631 47.1155C11.0628 47.3606 11.2295 47.5727 11.4442 47.7274C11.6576 47.8838 11.9108 47.9769 12.1747 47.996C12.4387 48.0151 12.7026 47.9594 12.9363 47.8354L23.778 42.1355C23.8467 42.0993 23.9233 42.0804 24.001 42.0804C24.0787 42.0804 24.1552 42.0993 24.224 42.1355L35.0658 47.8354C35.2694 47.9429 35.4961 47.9993 35.7264 47.9996C36.0254 47.9992 36.3166 47.9039 36.558 47.7274C36.7726 47.5727 36.9394 47.3606 37.0391 47.1155C37.1388 46.8704 37.1675 46.6022 37.1218 46.3415ZM36.0071 46.9687C35.9352 47.0224 35.8495 47.0544 35.7601 47.0608C35.6706 47.0673 35.5812 47.048 35.5023 47.0053L24.6605 41.3055C24.4572 41.1985 24.2309 41.1426 24.0012 41.1426C23.7714 41.1426 23.5451 41.1985 23.3418 41.3055L12.5002 47.0053C12.4213 47.048 12.3319 47.0673 12.2424 47.0608C12.1529 47.0543 12.0672 47.0224 11.9953 46.9687C11.9221 46.9169 11.8653 46.8452 11.8316 46.7622C11.7978 46.6791 11.7884 46.5882 11.8046 46.5L13.5598 36.2659C13.7863 36.0396 14.0699 35.8789 14.3805 35.8009L18.8161 34.6843C18.8482 34.6762 18.8793 34.6648 18.909 34.6502L20.4766 33.8771C20.8865 33.677 21.2317 33.3653 21.4726 32.978C21.7135 32.5907 21.8404 32.1432 21.8386 31.6871V31.5118C22.5054 31.7531 23.2092 31.8758 23.9182 31.8744C24.6866 31.8744 25.4505 31.7287 26.1639 31.4492V31.6875C26.1639 32.6242 26.6859 33.4633 27.5259 33.8775L29.0936 34.6505C29.1232 34.6652 29.1543 34.6766 29.1864 34.6847L33.6221 35.8012C33.9326 35.8793 34.2161 36.04 34.4426 36.2662L36.1978 46.5C36.214 46.5882 36.2046 46.6791 36.1709 46.7622C36.1371 46.8452 36.0802 46.9169 36.0071 46.9687Z" fill="black"/>
<path d="M31.9076 39.648C31.7832 39.648 31.664 39.6974 31.5761 39.7853C31.4882 39.8732 31.4388 39.9924 31.4388 40.1167V45.5743C31.4388 45.6986 31.4882 45.8178 31.5761 45.9057C31.664 45.9937 31.7832 46.043 31.9076 46.043C32.0319 46.043 32.1511 45.9937 32.239 45.9057C32.3269 45.8178 32.3763 45.6986 32.3763 45.5743V40.1167C32.3763 39.9924 32.3269 39.8732 32.239 39.7853C32.1511 39.6974 32.0319 39.648 31.9076 39.648ZM16.0859 39.648C15.9616 39.648 15.8424 39.6974 15.7545 39.7853C15.6666 39.8732 15.6172 39.9924 15.6172 40.1167V45.5548C15.6172 45.6791 15.6666 45.7983 15.7545 45.8862C15.8424 45.9742 15.9616 46.0235 16.0859 46.0235C16.2103 46.0235 16.3295 45.9742 16.4174 45.8862C16.5053 45.7983 16.5547 45.6791 16.5547 45.5548V40.1167C16.5547 39.9924 16.5053 39.8732 16.4174 39.7853C16.3295 39.6974 16.2103 39.648 16.0859 39.648ZM23.4526 35.4071L21.1166 32.7866C21.0744 32.7394 21.0232 32.7011 20.9659 32.6742C20.9086 32.6473 20.8464 32.6323 20.7832 32.63C20.7199 32.6281 20.657 32.6389 20.5979 32.6617C20.5389 32.6845 20.485 32.7189 20.4395 32.7628C20.3274 32.8735 20.1986 32.9659 20.0577 33.0365L18.5347 33.7875L18.4085 33.8192C18.3304 33.8389 18.2586 33.8784 18.2002 33.9339C18.1418 33.9894 18.0986 34.059 18.075 34.136C18.0513 34.213 18.0479 34.2949 18.0651 34.3736C18.0822 34.4523 18.1194 34.5253 18.173 34.5855L20.9191 37.6655C21 37.7564 21.0993 37.8291 21.2103 37.8787C21.3214 37.9284 21.4417 37.954 21.5634 37.9537C21.7748 37.954 21.979 37.8763 22.1368 37.7355L23.3829 36.6244C23.5548 36.4712 23.6568 36.26 23.6701 36.03C23.6834 35.7999 23.6058 35.579 23.4526 35.4071ZM21.5686 36.986L19.3087 34.451L20.4719 33.8775C20.5543 33.8368 20.6342 33.7913 20.7112 33.7412L22.7026 35.9749L21.5686 36.986ZM29.9188 34.1364C29.8951 34.0593 29.852 33.9897 29.7936 33.9342C29.7352 33.8786 29.6634 33.8392 29.5852 33.8195L29.459 33.7879L27.9357 33.0367C27.7949 32.9661 27.6661 32.8738 27.554 32.7632C27.5087 32.719 27.4548 32.6844 27.3958 32.6616C27.3367 32.6388 27.2737 32.6282 27.2104 32.6304C27.1471 32.6326 27.0849 32.6477 27.0276 32.6746C26.9703 32.7015 26.9191 32.7397 26.8769 32.787L24.5409 35.4073C24.3875 35.5792 24.3104 35.8007 24.3236 36.0307C24.3367 36.2608 24.4387 36.4719 24.6106 36.6251L25.8568 37.736C26.0144 37.877 26.2186 37.9548 26.4301 37.9545C26.5518 37.9547 26.6722 37.9291 26.7832 37.8795C26.8943 37.8298 26.9936 37.7571 27.0746 37.6663L29.8205 34.5862C29.8741 34.526 29.9114 34.453 29.9286 34.3742C29.9458 34.2954 29.9424 34.2135 29.9188 34.1364ZM26.4249 36.986L25.2907 35.9749L27.2821 33.7412C27.3598 33.7916 27.4396 33.8372 27.5214 33.8775L28.6848 34.4512L26.4249 36.986Z" fill="black"/>
<path d="M18.9819 34.1595C18.9669 34.0998 18.9402 34.0436 18.9035 33.9942C18.8668 33.9448 18.8207 33.9031 18.7678 33.8715C18.715 33.8399 18.6564 33.819 18.5955 33.8101C18.5346 33.8011 18.4725 33.8043 18.4128 33.8194L14.1515 34.8919C13.6407 35.0204 13.1785 35.2948 12.821 35.6816C12.7398 35.7733 12.6977 35.8932 12.7037 36.0156C12.7097 36.1379 12.7634 36.2531 12.8532 36.3364C12.9431 36.4197 13.0619 36.4645 13.1844 36.4613C13.3069 36.458 13.4232 36.407 13.5085 36.3191C13.7428 36.0655 14.0457 35.8855 14.3804 35.801L18.6417 34.7285C18.7014 34.7135 18.7576 34.6869 18.807 34.6501C18.8564 34.6134 18.8981 34.5673 18.9297 34.5145C18.9612 34.4616 18.9821 34.4031 18.9911 34.3422C19 34.2813 18.9969 34.2192 18.9819 34.1595ZM24.7552 35.4375H23.2591C23.1348 35.4375 23.0156 35.4869 22.9277 35.5748C22.8397 35.6627 22.7904 35.7819 22.7904 35.9062C22.7904 36.0306 22.8397 36.1498 22.9277 36.2377C23.0156 36.3256 23.1348 36.375 23.2591 36.375H24.7552C24.8795 36.375 24.9987 36.3256 25.0866 36.2377C25.1745 36.1498 25.2239 36.0306 25.2239 35.9062C25.2239 35.7819 25.1745 35.6627 25.0866 35.5748C24.9987 35.4869 24.8795 35.4375 24.7552 35.4375ZM35.2042 35.7069C34.844 35.3069 34.373 35.0232 33.851 34.8919L29.5897 33.8194C29.4691 33.789 29.3414 33.8078 29.2347 33.8716C29.128 33.9353 29.051 34.0389 29.0206 34.1595C28.9902 34.28 29.009 34.4077 29.0728 34.5145C29.1366 34.6212 29.2402 34.6982 29.3607 34.7285L33.622 35.801C33.9641 35.8872 34.2728 36.0733 34.5087 36.3356C34.5526 36.3843 34.6063 36.4232 34.6662 36.4499C34.7261 36.4765 34.791 36.4902 34.8565 36.4901C34.9473 36.4901 35.036 36.4638 35.1121 36.4143C35.1881 36.3649 35.2482 36.2944 35.285 36.2115C35.3218 36.1286 35.3337 36.0368 35.3194 35.9472C35.305 35.8577 35.265 35.7742 35.2042 35.7069ZM21.3699 30.4297C21.2455 30.4297 21.1263 30.4791 21.0384 30.567C20.9505 30.6549 20.9011 30.7742 20.9011 30.8985V31.6875C20.9011 32.0938 20.7387 32.4757 20.4438 32.763C20.3997 32.8059 20.3645 32.8572 20.3402 32.9137C20.3159 32.9703 20.303 33.0311 20.3022 33.0927C20.3014 33.1542 20.3128 33.2153 20.3356 33.2725C20.3584 33.3297 20.3923 33.3818 20.4353 33.4259C20.4782 33.47 20.5295 33.5052 20.586 33.5295C20.6426 33.5537 20.7034 33.5667 20.7649 33.5674C20.8265 33.5682 20.8876 33.5569 20.9448 33.5341C21.002 33.5112 21.0541 33.4774 21.0982 33.4344C21.5688 32.976 21.8388 32.3392 21.8388 31.6875V30.8985C21.8387 30.7741 21.7893 30.6549 21.7014 30.567C21.6134 30.4791 21.4942 30.4297 21.3699 30.4297ZM27.5587 32.7628C27.2637 32.4755 27.1014 32.0936 27.1014 31.6873V30.8025C27.1014 30.6782 27.052 30.5589 26.9641 30.471C26.8762 30.3831 26.7569 30.3337 26.6326 30.3337C26.5083 30.3337 26.3891 30.3831 26.3012 30.471C26.2132 30.5589 26.1639 30.6782 26.1639 30.8025V31.6875C26.1639 32.3392 26.4337 32.976 26.9045 33.4344C26.9919 33.5199 27.1094 33.5676 27.2317 33.5674C27.3535 33.5674 27.4756 33.5201 27.5675 33.4258C27.6541 33.3366 27.7018 33.2168 27.7002 33.0925C27.6985 32.9682 27.6476 32.8496 27.5587 32.7628ZM24.0012 37.3828C23.8769 37.3828 23.7577 37.4322 23.6698 37.5201C23.5819 37.608 23.5325 37.7272 23.5325 37.8515V39.9609C23.5325 40.0852 23.5819 40.2045 23.6698 40.2924C23.7577 40.3803 23.8769 40.4297 24.0012 40.4297C24.1256 40.4297 24.2448 40.3803 24.3327 40.2924C24.4206 40.2045 24.47 40.0852 24.47 39.9609V37.8515C24.47 37.7272 24.4206 37.608 24.3327 37.5201C24.2448 37.4322 24.1256 37.3828 24.0012 37.3828ZM25.8339 27.6446C25.7867 27.6051 25.7322 27.5752 25.6735 27.5567C25.6147 27.5382 25.553 27.5315 25.4916 27.5369C25.4303 27.5423 25.3707 27.5597 25.3161 27.5882C25.2615 27.6166 25.213 27.6556 25.1735 27.7027C24.917 28.0087 24.4788 28.1914 24.0012 28.1914C23.5237 28.1914 23.0855 28.0087 22.829 27.7027C22.748 27.6113 22.6345 27.5551 22.5127 27.5461C22.3909 27.537 22.2704 27.5759 22.1768 27.6543C22.0832 27.7328 22.0239 27.8447 22.0115 27.9662C21.9991 28.0877 22.0346 28.2093 22.1105 28.305C22.5429 28.8208 23.2497 29.1289 24.0012 29.1289C24.7527 29.1289 25.4596 28.8208 25.892 28.305C25.9315 28.2578 25.9614 28.2033 25.9799 28.1446C25.9984 28.0859 26.0051 28.0241 25.9997 27.9628C25.9943 27.9014 25.9769 27.8418 25.9484 27.7872C25.92 27.7326 25.881 27.6841 25.8339 27.6446ZM25.1699 23.6717C24.8613 23.399 24.4462 23.2489 24.0012 23.2489C23.5029 23.2489 23.0392 23.4395 22.729 23.7722C22.6871 23.8172 22.6544 23.87 22.6328 23.9277C22.6112 23.9854 22.6013 24.0467 22.6034 24.1082C22.6056 24.1698 22.6198 24.2302 22.6453 24.2863C22.6709 24.3423 22.7072 24.3927 22.7522 24.4347C22.7972 24.4767 22.8501 24.5094 22.9077 24.5309C22.9654 24.5525 23.0267 24.5625 23.0883 24.5603C23.1498 24.5582 23.2103 24.5439 23.2663 24.5184C23.3223 24.4929 23.3728 24.4566 23.4147 24.4115C23.5464 24.2705 23.7657 24.1864 24.0014 24.1864C24.2146 24.1864 24.4145 24.2548 24.5497 24.3742C24.6428 24.4565 24.7649 24.4984 24.8889 24.4906C25.0129 24.4829 25.1288 24.4262 25.2111 24.3331C25.2933 24.2399 25.3352 24.1179 25.3275 23.9938C25.3198 23.8698 25.2631 23.7539 25.1699 23.6717Z" fill="black"/>
<path d="M29.1368 22.2761H25.4691C25.166 22.2765 24.8755 22.397 24.6613 22.6113C24.447 22.8256 24.3265 23.1161 24.3262 23.4191C24.3262 24.9765 25.5039 26.3121 27.0075 26.4596C27.4212 26.4997 27.8387 26.453 28.2334 26.3224C28.628 26.1918 28.991 25.9803 29.2991 25.7014C29.9222 25.1362 30.2796 24.333 30.2796 23.4973V23.4191C30.2793 23.1161 30.1588 22.8255 29.9446 22.6112C29.7303 22.3969 29.4398 22.2764 29.1368 22.2761ZM29.3422 23.4971C29.3422 24.0688 29.097 24.6191 28.6695 25.0067C28.4593 25.1992 28.2106 25.3451 27.94 25.4346C27.6693 25.5242 27.3828 25.5554 27.0992 25.5262C26.07 25.4252 25.2639 24.4997 25.2639 23.4189C25.2639 23.3057 25.356 23.2134 25.4693 23.2134H29.1369C29.2502 23.2134 29.3422 23.3057 29.3422 23.4189V23.4971ZM22.3654 22.2761H18.6977C18.3947 22.2765 18.1041 22.397 17.8898 22.6113C17.6756 22.8256 17.555 23.1161 17.5547 23.4191C17.5547 24.9765 18.7324 26.3121 20.2359 26.4596C20.6496 26.4998 21.0671 26.453 21.4617 26.3225C21.8563 26.1919 22.2193 25.9803 22.5274 25.7014C22.8353 25.4225 23.0815 25.0824 23.2503 24.7029C23.4192 24.3233 23.5069 23.9127 23.5078 23.4973V23.4191C23.5076 23.1161 23.3872 22.8256 23.173 22.6113C22.9588 22.397 22.6684 22.2765 22.3654 22.2761ZM22.5707 23.4971C22.5707 24.0688 22.3254 24.6191 21.8979 25.0069C21.6877 25.1994 21.439 25.3452 21.1684 25.4347C20.8977 25.5243 20.6112 25.5555 20.3276 25.5264C19.2984 25.4254 18.4922 24.4999 18.4922 23.4191C18.4922 23.3059 18.5844 23.2136 18.6977 23.2136H22.3654C22.4786 23.2136 22.5707 23.3059 22.5707 23.4191V23.4971Z" fill="black"/>
</g>
<defs>
<clipPath id="clip0_1745_8299">
<rect width="48" height="48" fill="white"/>
</clipPath>
</defs>
</svg>
