<svg width="13" height="18" fill="none" xmlns="http://www.w3.org/2000/svg"><path fill-rule="evenodd" clip-rule="evenodd" d="M8.153 4.305C8.787 2.159 9.271.31 9.233.198 9.173.025 8.887 0 7.347 0H5.544L5.42.323C5.346.509 4.687 2.68 3.954 5.16L2.625 9.676l-1.08.335-1.081.323-.249.744c-.149.41-.236.77-.21.794.024.037.496-.087 1.055-.26.56-.162 1.006-.26 1.006-.211 0 .05-.422 1.489-.931 3.213-.51 1.724-.932 3.176-.932 3.25 0 .199 11.702.174 11.95-.037.286-.223.994-2.705.82-2.903-.1-.124-.982-.161-4.037-.161-3.081 0-3.9-.037-3.864-.162.038-.074.36-1.153.72-2.394l.66-2.245 1.005-.286c.56-.16 1.056-.335 1.118-.384.125-.112.584-1.501.522-1.563-.012-.013-.472.099-1.006.273-.547.16-1.006.273-1.031.248-.025-.025.472-1.799 1.093-3.945z" fill="#23314F"/></svg>