<svg width="15" height="20" fill="none" xmlns="http://www.w3.org/2000/svg"><path d="M13.353 6.154a2.85 2.85 0 0 1-1.558 3.094l-.017.007c.821.156 1.562.592 2.098 1.232l.005.006c.371.554.593 1.234.593 1.967 0 .213-.02.423-.055.626l.003-.021a4.517 4.517 0 0 1-.402 1.53l.011-.028a3.322 3.322 0 0 1-.773 1.064l-.002.003c-.338.294-.723.53-1.14.694l-.026.009a6.819 6.819 0 0 1-1.418.408l-.043.007a13.72 13.72 0 0 1-1.718.18h-.03V20H7.03v-3.016a68.4 68.4 0 0 1-1.467-.012V20H3.713v-3.066c-.144 0-.36-.002-.65-.006a52.942 52.942 0 0 0-.66-.006H0l.372-2.2h1.334a.642.642 0 0 0 .697-.611V9.277h.192a1.222 1.222 0 0 0-.172-.013h-.02V5.816a.957.957 0 0 0-1.075-.815h.005H0V3.028l2.548.012c.513 0 .901-.004 1.166-.012V0h1.85v2.968a65.792 65.792 0 0 1 1.467-.024V0h1.85v3.028c.627.05 1.2.147 1.757.287l-.074-.016c.485.12.951.307 1.385.555l-.027-.014c.408.229.742.545.985.926l.007.011c.254.414.404.883.44 1.367v.01zm-2.584 6.55v-.03c0-.27-.067-.524-.184-.747l.004.008c-.11-.21-.26-.398-.441-.55l-.003-.003a2.26 2.26 0 0 0-.675-.361l-.016-.005a5.447 5.447 0 0 0-.748-.216l-.038-.007a6.678 6.678 0 0 0-.87-.106l-.02-.001a13.008 13.008 0 0 0-.829-.036c-.2 0-.458.004-.775.012-.316.007-.506.011-.57.011v4.06l.445.006a15.256 15.256 0 0 0 1.214-.012 8.892 8.892 0 0 0 1.388-.15 4.5 4.5 0 0 0 .7-.178l-.033.01c.223-.08.411-.165.591-.264l-.021.011c.184-.095.341-.216.473-.359.12-.137.22-.296.291-.47l.005-.011c.075-.188.114-.388.113-.59v-.023.002zm-.853-5.72v-.031c0-.244-.056-.475-.154-.682l.004.01c-.09-.19-.214-.36-.366-.505a1.784 1.784 0 0 0-.565-.33l-.012-.004a3.922 3.922 0 0 0-.635-.195l-.027-.005a6.193 6.193 0 0 0-.717-.095l-.023-.002a7.067 7.067 0 0 0-.697-.03 88.791 88.791 0 0 1-1.124.018v3.69l.415.005a13.11 13.11 0 0 0 1.158-.024 5.1 5.1 0 0 0 .691-.07l-.03.004c.178-.033.384-.077.619-.134.22-.048.415-.125.592-.227l-.01.005c.159-.097.308-.207.448-.329l-.004.004a1.15 1.15 0 0 0 .322-.455l.002-.008c.07-.176.11-.381.11-.595V6.98l.003.003z" fill="#E9983D"/></svg>