<svg width="56" height="56" viewBox="0 0 56 56" fill="none" xmlns="http://www.w3.org/2000/svg">
<path d="M37.779 4.66669C44.9867 4.66669 49 8.82002 49 15.9367V40.04C49 47.2734 44.9867 51.3334 37.779 51.3334H18.2233C11.13 51.3334 7 47.2734 7 40.04V15.9367C7 8.82002 11.13 4.66669 18.2233 4.66669H37.779ZM18.8533 36.7267C18.1533 36.6567 17.4767 36.9834 17.1033 37.59C16.73 38.1734 16.73 38.9434 17.1033 39.55C17.4767 40.1334 18.1533 40.4834 18.8533 40.39H37.1467C38.0777 40.2967 38.78 39.501 38.78 38.57C38.78 37.6134 38.0777 36.82 37.1467 36.7267H18.8533ZM37.1467 26.0844H18.8533C17.8477 26.0844 17.0333 26.9034 17.0333 27.9067C17.0333 28.91 17.8477 29.7267 18.8533 29.7267H37.1467C38.15 29.7267 38.9667 28.91 38.9667 27.9067C38.9667 26.9034 38.15 26.0844 37.1467 26.0844ZM25.8277 15.5167H18.8533V15.54C17.8477 15.54 17.0333 16.3567 17.0333 17.36C17.0333 18.3634 17.8477 19.18 18.8533 19.18H25.8277C26.8333 19.18 27.65 18.3634 27.65 17.3344C27.65 16.3334 26.8333 15.5167 25.8277 15.5167Z" fill="#40637D"/>
</svg>
