<svg width="168" height="50" fill="none" xmlns="http://www.w3.org/2000/svg"><g clip-path="url(#clip0_971_3963)"><path d="M161.778 0H6.222A6.222 6.222 0 0 0 0 6.222v37.334a6.222 6.222 0 0 0 6.222 6.222h155.556A6.222 6.222 0 0 0 168 43.556V6.222A6.222 6.222 0 0 0 161.778 0z" fill="#000"/><path d="M161.778.996a5.226 5.226 0 0 1 5.226 5.226v37.334a5.225 5.225 0 0 1-5.226 5.226H6.222a5.226 5.226 0 0 1-5.226-5.226V6.222A5.226 5.226 0 0 1 6.222.996h155.556zm0-.996H6.222C2.8 0 0 2.8 0 6.222v37.334c0 3.422 2.8 6.222 6.222 6.222h155.556c3.422 0 6.222-2.8 6.222-6.222V6.222C168 2.8 165.2 0 161.778 0z" fill="#A6A6A6"/><path d="M59.01 12.743c0 1.045-.311 1.88-.933 2.489-.697.734-1.606 1.108-2.738 1.108-1.133 0-2.004-.374-2.75-1.12-.747-.747-1.12-1.68-1.12-2.776 0-1.095.373-2.028 1.12-2.775.746-.746 1.667-1.132 2.75-1.132.547 0 1.07.1 1.556.286.485.2.883.473 1.194.821l-.684.685a2.195 2.195 0 0 0-.896-.647 2.85 2.85 0 0 0-1.17-.237c-.809 0-1.506.287-2.066.846-.56.573-.834 1.282-.834 2.141s.274 1.568.834 2.14c.56.56 1.245.847 2.066.847.747 0 1.356-.212 1.854-.623.498-.41.784-.995.859-1.717h-2.713v-.896h3.621c.038.2.05.386.05.56zM64.746 8.711v.92H61.35v2.365h3.061v.896H61.35v2.365h3.397v.92h-4.355V8.712h4.355zM68.791 9.632v6.546h-.958V9.632h-2.09v-.92h5.126v.92h-2.09.012zM75.548 16.178h-.958V8.71h.958v7.467zM79.807 9.632v6.546h-.959V9.632h-2.09v-.92h5.127v.92h-2.09.012zM92.698 12.444c0 1.108-.373 2.029-1.107 2.775-.747.747-1.655 1.12-2.738 1.12-1.082 0-1.991-.373-2.738-1.12-.734-.746-1.107-1.667-1.107-2.775 0-1.107.373-2.028 1.107-2.775.735-.746 1.643-1.132 2.738-1.132s1.991.373 2.738 1.132c.734.747 1.108 1.668 1.108 2.763v.012zm-6.695 0c0 .86.274 1.58.81 2.14.547.56 1.231.847 2.04.847.809 0 1.494-.286 2.029-.846.547-.56.82-1.27.82-2.14 0-.872-.273-1.581-.82-2.141-.548-.56-1.22-.846-2.029-.846-.809 0-1.493.286-2.04.846-.548.56-.81 1.282-.81 2.14zM95.001 16.178h-.958V8.71h1.17l3.634 5.812h.037l-.037-1.444V8.711h.958v7.467h-.996l-3.795-6.086h-.038l.038 1.444v4.654L95 16.178z" fill="#fff" stroke="#fff" stroke-width=".2" stroke-miterlimit="10"/><path d="M84.798 27.067c-2.924 0-5.314 2.227-5.314 5.288 0 3.062 2.39 5.29 5.314 5.29s5.314-2.24 5.314-5.29c0-3.048-2.39-5.288-5.314-5.288zm0 8.5c-1.605 0-2.987-1.32-2.987-3.212 0-1.891 1.382-3.21 2.987-3.21 1.605 0 2.987 1.306 2.987 3.21 0 1.905-1.382 3.211-2.987 3.211zm-11.586-8.5c-2.924 0-5.314 2.227-5.314 5.288 0 3.062 2.39 5.29 5.314 5.29 2.925 0 5.314-2.24 5.314-5.29 0-3.048-2.39-5.288-5.314-5.288zm0 8.5c-1.605 0-2.987-1.32-2.987-3.212 0-1.891 1.382-3.21 2.987-3.21 1.605 0 2.987 1.306 2.987 3.21 0 1.905-1.382 3.211-2.987 3.211zm-13.788-6.883v2.24H64.8c-.162 1.257-.585 2.19-1.22 2.825-.784.784-2.003 1.643-4.144 1.643-3.31 0-5.898-2.663-5.898-5.973s2.588-5.974 5.898-5.974c1.78 0 3.086.697 4.045 1.606l1.58-1.58c-1.344-1.283-3.124-2.266-5.637-2.266-4.53 0-8.338 3.684-8.338 8.226 0 4.542 3.808 8.226 8.338 8.226 2.451 0 4.293-.797 5.737-2.302 1.48-1.481 1.94-3.572 1.94-5.252 0-.523-.036-1.008-.123-1.406h-7.554v-.013zm56.385 1.743c-.435-1.183-1.779-3.373-4.529-3.373-2.751 0-4.99 2.14-4.99 5.29 0 2.96 2.239 5.288 5.251 5.288 2.427 0 3.833-1.48 4.405-2.34l-1.804-1.207c-.597.884-1.419 1.469-2.601 1.469s-2.028-.535-2.564-1.606l7.081-2.924-.236-.597h-.013zm-7.217 1.767c-.063-2.041 1.58-3.087 2.762-3.087.921 0 1.705.461 1.967 1.12l-4.729 1.967zm-5.75 5.127h2.327V21.765h-2.327v15.556zm-3.808-9.085h-.074c-.523-.622-1.518-1.182-2.788-1.182-2.65 0-5.077 2.327-5.077 5.314s2.427 5.276 5.077 5.276c1.257 0 2.265-.56 2.788-1.207h.074v.76c0 2.028-1.082 3.11-2.825 3.11-1.418 0-2.302-1.02-2.663-1.879l-2.028.847c.585 1.406 2.128 3.123 4.692 3.123 2.725 0 5.027-1.605 5.027-5.513v-9.507h-2.203v.858zm-2.663 7.318c-1.605 0-2.95-1.344-2.95-3.186 0-1.842 1.345-3.223 2.95-3.223 1.606 0 2.825 1.369 2.825 3.223 0 1.854-1.244 3.186-2.825 3.186zm30.34-13.789h-5.563v15.556h2.327v-5.899h3.248c2.576 0 5.103-1.867 5.103-4.828 0-2.962-2.527-4.829-5.103-4.829h-.012zm.062 7.504h-3.298v-5.338h3.298c1.742 0 2.725 1.443 2.725 2.663 0 1.22-.983 2.663-2.725 2.663v.012zm14.349-2.24c-1.68 0-3.423.747-4.144 2.377l2.065.859c.436-.859 1.257-1.145 2.116-1.145 1.195 0 2.426.722 2.439 2.003v.162c-.423-.236-1.319-.597-2.427-.597-2.227 0-4.48 1.22-4.48 3.497 0 2.078 1.817 3.422 3.858 3.422 1.556 0 2.427-.697 2.962-1.518h.074v1.194h2.241v-5.96c0-2.763-2.066-4.306-4.729-4.306l.025.012zm-.287 8.525c-.759 0-1.817-.386-1.817-1.32 0-1.194 1.319-1.654 2.464-1.654 1.021 0 1.506.224 2.116.522a2.809 2.809 0 0 1-2.763 2.464v-.012zm13.166-8.189l-2.663 6.745h-.074l-2.763-6.745H146l4.144 9.433-2.365 5.24h2.427l6.384-14.673h-2.589zm-20.919 9.956h2.327V21.765h-2.327v15.556z" fill="#fff"/><path d="M25.785 24.167L12.53 38.23a3.58 3.58 0 0 0 3.46 2.651c.66 0 1.282-.174 1.817-.498l.037-.025 14.909-8.599-6.982-7.603.013.012z" fill="#EA4335"/><path d="M39.186 21.778h-.013l-6.434-3.746-7.255 6.459 7.28 7.28 6.41-3.696a3.585 3.585 0 0 0 1.878-3.149 3.54 3.54 0 0 0-1.866-3.136v-.012z" fill="#FBBC04"/><path d="M12.53 11.549a3.734 3.734 0 0 0-.124.92v24.852c0 .324.038.622.125.92l13.701-13.7-13.701-12.992z" fill="#4285F4"/><path d="M25.884 24.889l6.857-6.857-14.896-8.636a3.595 3.595 0 0 0-5.314 2.14l13.353 13.34v.013z" fill="#34A853"/></g><defs><clipPath id="clip0_971_3963"><path fill="#fff" d="M0 0h168v49.778H0z"/></clipPath></defs></svg>