<svg width="167" height="50" viewBox="0 0 167 50" fill="none" xmlns="http://www.w3.org/2000/svg">
<g clip-path="url(#clip0_971_3931)">
<path d="M161.059 50H5.84995C2.62499 50 0 47.34 0 44.0837V5.9075C0 2.65 2.62499 0 5.84995 0H161.059C164.282 0 167 2.65 167 5.9075V44.0837C167 47.34 164.282 50 161.059 50Z" fill="#A6A6A6"/>
<path d="M165.803 44.0851C165.803 46.7301 163.683 48.8726 161.06 48.8726H5.85055C3.22927 48.8726 1.10156 46.7301 1.10156 44.0851V5.9063C1.10156 3.26255 3.22927 1.11255 5.85055 1.11255H161.059C163.683 1.11255 165.802 3.26255 165.802 5.9063L165.803 44.0851Z" fill="black"/>
<path d="M37.2696 24.73C37.2337 20.7013 40.5342 18.7413 40.6851 18.65C38.8159 15.8963 35.9188 15.52 34.9007 15.49C32.4674 15.2313 30.1072 16.9613 28.8677 16.9613C27.6034 16.9613 25.6947 15.515 23.6375 15.5575C20.9902 15.5988 18.5137 17.1475 17.1554 19.5525C14.3523 24.4563 16.4429 31.6625 19.1285 35.6263C20.4719 37.5675 22.0417 39.735 24.0964 39.6588C26.1066 39.575 26.8575 38.3638 29.2833 38.3638C31.6869 38.3638 32.392 39.6588 34.4875 39.61C36.6449 39.575 38.0032 37.66 39.2996 35.7013C40.8521 33.4763 41.4755 31.285 41.5003 31.1725C41.4496 31.155 37.3104 29.5588 37.2696 24.73Z" fill="white"/>
<path d="M33.3134 12.8825C34.3946 11.5162 35.1343 9.65749 34.929 7.77124C33.3641 7.84124 31.4071 8.86499 30.2802 10.2012C29.2831 11.3787 28.3925 13.3087 28.6225 15.1237C30.3804 15.2562 32.1852 14.2275 33.3134 12.8825Z" fill="white"/>
<path d="M66.359 39.38H63.5497L62.0109 34.4937H56.6619L55.196 39.38H52.4609L57.7604 22.745H61.0336L66.359 39.38ZM61.547 32.4437L60.1553 28.1C60.0081 27.6562 59.7322 26.6112 59.3253 24.9662H59.2758C59.1137 25.6737 58.8527 26.7187 58.494 28.1L57.127 32.4437H61.547Z" fill="white"/>
<path d="M79.9861 33.2349C79.9861 35.2749 79.4406 36.8874 78.3495 38.0712C77.3723 39.1249 76.1588 39.6512 74.7102 39.6512C73.1466 39.6512 72.0233 39.0837 71.3393 37.9487H71.2898V44.2674H68.6524V31.3337C68.6524 30.0512 68.619 28.7349 68.5547 27.3849H70.8741L71.0213 29.2862H71.0708C71.9504 27.8537 73.2851 27.1387 75.0763 27.1387C76.4767 27.1387 77.6457 27.6974 78.5809 28.8162C79.5185 29.9362 79.9861 31.4087 79.9861 33.2349ZM77.2993 33.3324C77.2993 32.1649 77.0395 31.2024 76.5175 30.4449C75.9472 29.6549 75.1815 29.2599 74.2216 29.2599C73.5709 29.2599 72.9796 29.4799 72.4514 29.9137C71.9219 30.3512 71.5755 30.9224 71.4135 31.6299C71.3318 31.9599 71.291 32.2299 71.291 32.4424V34.4424C71.291 35.3149 71.5557 36.0512 72.0852 36.6524C72.6146 37.2537 73.3024 37.5537 74.1486 37.5537C75.1419 37.5537 75.9151 37.1662 76.468 36.3937C77.0222 35.6199 77.2993 34.5999 77.2993 33.3324Z" fill="white"/>
<path d="M93.6412 33.2349C93.6412 35.2749 93.0956 36.8874 92.0033 38.0712C91.0273 39.1249 89.8138 39.6512 88.3652 39.6512C86.8016 39.6512 85.6784 39.0837 84.9955 37.9487H84.946V44.2674H82.3087V31.3337C82.3087 30.0512 82.2753 28.7349 82.2109 27.3849H84.5304L84.6776 29.2862H84.7271C85.6054 27.8537 86.9401 27.1387 88.7326 27.1387C90.1317 27.1387 91.3007 27.6974 92.2384 28.8162C93.1723 29.9362 93.6412 31.4087 93.6412 33.2349ZM90.9543 33.3324C90.9543 32.1649 90.6933 31.2024 90.1713 30.4449C89.601 29.6549 88.8377 29.2599 87.8766 29.2599C87.2247 29.2599 86.6346 29.4799 86.1051 29.9137C85.5757 30.3512 85.2305 30.9224 85.0685 31.6299C84.9881 31.9599 84.946 32.2299 84.946 32.4424V34.4424C84.946 35.3149 85.2107 36.0512 85.7377 36.6524C86.2672 37.2524 86.955 37.5537 87.8036 37.5537C88.7969 37.5537 89.5701 37.1662 90.123 36.3937C90.6772 35.6199 90.9543 34.5999 90.9543 33.3324Z" fill="white"/>
<path d="M108.904 34.715C108.904 36.13 108.418 37.2812 107.442 38.17C106.37 39.1412 104.877 39.6262 102.958 39.6262C101.187 39.6262 99.7664 39.2812 98.6914 38.59L99.3025 36.3687C100.46 37.0762 101.731 37.4312 103.115 37.4312C104.108 37.4312 104.882 37.2037 105.437 36.7512C105.99 36.2987 106.266 35.6912 106.266 34.9337C106.266 34.2587 106.038 33.69 105.582 33.2287C105.128 32.7675 104.369 32.3387 103.311 31.9425C100.428 30.8562 98.9883 29.265 98.9883 27.1725C98.9883 25.805 99.493 24.6837 100.504 23.8112C101.511 22.9375 102.854 22.5012 104.534 22.5012C106.032 22.5012 107.276 22.765 108.27 23.2912L107.61 25.4637C106.683 24.9537 105.634 24.6987 104.46 24.6987C103.532 24.6987 102.807 24.93 102.287 25.39C101.848 25.8012 101.628 26.3025 101.628 26.8962C101.628 27.5537 101.879 28.0975 102.384 28.525C102.823 28.92 103.621 29.3475 104.779 29.8087C106.195 30.385 107.236 31.0587 107.905 31.8312C108.572 32.6012 108.904 33.565 108.904 34.715Z" fill="white"/>
<path d="M117.624 29.385H114.717V35.2087C114.717 36.69 115.229 37.43 116.256 37.43C116.727 37.43 117.118 37.3887 117.427 37.3062L117.5 39.33C116.981 39.5262 116.296 39.625 115.449 39.625C114.407 39.625 113.594 39.3037 113.006 38.6625C112.421 38.02 112.126 36.9425 112.126 35.4287V29.3825H110.395V27.3825H112.126V25.1862L114.717 24.3962V27.3825H117.624V29.385Z" fill="white"/>
<path d="M130.744 33.2836C130.744 35.1274 130.222 36.6411 129.18 37.8249C128.088 39.0436 126.638 39.6511 124.831 39.6511C123.089 39.6511 121.703 39.0674 120.668 37.8999C119.634 36.7324 119.117 35.2586 119.117 33.4824C119.117 31.6236 119.649 30.1011 120.717 28.9174C121.782 27.7324 123.219 27.1399 125.027 27.1399C126.768 27.1399 128.17 27.7236 129.227 28.8924C130.239 30.0261 130.744 31.4899 130.744 33.2836ZM128.008 33.3699C128.008 32.2636 127.774 31.3149 127.3 30.5236C126.747 29.5661 125.957 29.0886 124.932 29.0886C123.872 29.0886 123.067 29.5674 122.514 30.5236C122.04 31.3161 121.807 32.2799 121.807 33.4199C121.807 34.5261 122.04 35.4749 122.514 36.2649C123.084 37.2224 123.881 37.6999 124.909 37.6999C125.916 37.6999 126.706 37.2124 127.277 36.2399C127.763 35.4336 128.008 34.4749 128.008 33.3699Z" fill="white"/>
<path d="M139.316 29.7287C139.055 29.6799 138.776 29.6549 138.485 29.6549C137.557 29.6549 136.839 30.0087 136.335 30.7174C135.895 31.3424 135.675 32.1324 135.675 33.0862V39.3799H133.039L133.064 31.1624C133.064 29.7799 133.03 28.5212 132.965 27.3862H135.262L135.359 29.6812H135.431C135.71 28.8924 136.149 28.2574 136.75 27.7812C137.338 27.3524 137.972 27.1387 138.656 27.1387C138.9 27.1387 139.12 27.1562 139.316 27.1874V29.7287Z" fill="white"/>
<path d="M151.112 32.815C151.112 33.2925 151.081 33.695 151.015 34.0237H143.103C143.134 35.2087 143.517 36.115 144.251 36.74C144.918 37.2987 145.78 37.5787 146.839 37.5787C148.011 37.5787 149.08 37.39 150.041 37.0112L150.454 38.8612C149.331 39.3562 148.005 39.6025 146.474 39.6025C144.634 39.6025 143.189 39.055 142.137 37.9612C141.088 36.8675 140.562 35.3987 140.562 33.5562C140.562 31.7475 141.051 30.2412 142.03 29.04C143.054 27.7575 144.438 27.1162 146.18 27.1162C147.891 27.1162 149.186 27.7575 150.065 29.04C150.762 30.0587 151.112 31.3187 151.112 32.815ZM148.597 32.1237C148.614 31.3337 148.442 30.6512 148.085 30.075C147.628 29.3337 146.927 28.9637 145.983 28.9637C145.121 28.9637 144.42 29.325 143.884 30.05C143.445 30.6262 143.184 31.3175 143.103 32.1225L148.597 32.1237Z" fill="white"/>
<path d="M60.6791 12.5114C60.6791 13.9826 60.2424 15.0901 59.3703 15.8339C58.5625 16.5201 57.4145 16.8639 55.9276 16.8639C55.1904 16.8639 54.5595 16.8314 54.0312 16.7664V8.72762C54.7203 8.61512 55.4625 8.55762 56.2641 8.55762C57.6805 8.55762 58.7481 8.86887 59.468 9.49137C60.2746 10.1951 60.6791 11.2014 60.6791 12.5114ZM59.3122 12.5476C59.3122 11.5939 59.0623 10.8626 58.5625 10.3526C58.0628 9.84387 57.3329 9.58887 56.3717 9.58887C55.9635 9.58887 55.6159 9.61637 55.3277 9.67387V15.7851C55.4872 15.8101 55.7792 15.8214 56.2035 15.8214C57.1956 15.8214 57.9613 15.5426 58.5007 14.9851C59.04 14.4276 59.3122 13.6151 59.3122 12.5476Z" fill="white"/>
<path d="M67.9262 13.7963C67.9262 14.7026 67.6702 15.4451 67.158 16.0276C66.6212 16.6263 65.9099 16.9251 65.0217 16.9251C64.1657 16.9251 63.484 16.6388 62.9756 16.0638C62.4684 15.4901 62.2148 14.7663 62.2148 13.8938C62.2148 12.9813 62.4759 12.2326 63.0004 11.6513C63.5249 11.0701 64.23 10.7788 65.1182 10.7788C65.9742 10.7788 66.662 11.0651 67.1828 11.6388C67.6776 12.1963 67.9262 12.9163 67.9262 13.7963ZM66.5816 13.8388C66.5816 13.2951 66.4653 12.8288 66.234 12.4401C65.9618 11.9701 65.5746 11.7351 65.0712 11.7351C64.5504 11.7351 64.1545 11.9701 63.8824 12.4401C63.6498 12.8288 63.5348 13.3026 63.5348 13.8626C63.5348 14.4063 63.651 14.8726 63.8824 15.2613C64.1632 15.7313 64.5541 15.9663 65.0588 15.9663C65.5536 15.9663 65.942 15.7276 66.2216 15.2488C66.4616 14.8526 66.5816 14.3826 66.5816 13.8388Z" fill="white"/>
<path d="M77.6443 10.8988L75.8196 16.7913H74.6321L73.8763 14.2326C73.6845 13.5938 73.5287 12.9588 73.4074 12.3288H73.3839C73.2713 12.9763 73.1155 13.6101 72.9151 14.2326L72.1122 16.7913H70.9111L69.1953 10.8988H70.5276L71.1869 13.7001C71.3465 14.3626 71.4776 14.9938 71.5828 15.5913H71.6063C71.7028 15.0988 71.8624 14.4713 72.0875 13.7126L72.9151 10.9001H73.9715L74.7645 13.6526C74.9562 14.3238 75.1121 14.9701 75.232 15.5926H75.2679C75.3558 14.9863 75.4881 14.3401 75.6638 13.6526L76.3714 10.9001H77.6443V10.8988Z" fill="white"/>
<path d="M84.3653 16.7914H83.0689V13.4164C83.0689 12.3764 82.678 11.8564 81.8937 11.8564C81.509 11.8564 81.1985 11.9989 80.9573 12.2851C80.7186 12.5714 80.5973 12.9089 80.5973 13.2951V16.7901H79.3009V12.5826C79.3009 12.0651 79.2848 11.5039 79.2539 10.8964H80.3932L80.4538 11.8176H80.4897C80.6406 11.5314 80.8658 11.2951 81.1614 11.1064C81.5127 10.8864 81.9061 10.7751 82.3366 10.7751C82.8809 10.7751 83.3337 10.9526 83.6936 11.3089C84.1414 11.7451 84.3653 12.3964 84.3653 13.2614V16.7914Z" fill="white"/>
<path d="M87.9397 16.7913H86.6445V8.19507H87.9397V16.7913Z" fill="white"/>
<path d="M95.5747 13.7963C95.5747 14.7026 95.3186 15.4451 94.8065 16.0276C94.2696 16.6263 93.5571 16.9251 92.6701 16.9251C91.8129 16.9251 91.1312 16.6388 90.6241 16.0638C90.1169 15.4901 89.8633 14.7663 89.8633 13.8938C89.8633 12.9813 90.1243 12.2326 90.6488 11.6513C91.1733 11.0701 91.8784 10.7788 92.7654 10.7788C93.6226 10.7788 94.3092 11.0651 94.8312 11.6388C95.326 12.1963 95.5747 12.9163 95.5747 13.7963ZM94.2288 13.8388C94.2288 13.2951 94.1125 12.8288 93.8812 12.4401C93.6103 11.9701 93.2218 11.7351 92.7196 11.7351C92.1976 11.7351 91.8017 11.9701 91.5308 12.4401C91.2982 12.8288 91.1832 13.3026 91.1832 13.8626C91.1832 14.4063 91.2995 14.8726 91.5308 15.2613C91.8116 15.7313 92.2025 15.9663 92.7072 15.9663C93.202 15.9663 93.5892 15.7276 93.8688 15.2488C94.11 14.8526 94.2288 14.3826 94.2288 13.8388Z" fill="white"/>
<path d="M101.846 16.7913H100.682L100.585 16.1126H100.55C100.151 16.6538 99.5834 16.9251 98.8461 16.9251C98.2956 16.9251 97.8503 16.7463 97.5151 16.3913C97.2108 16.0688 97.0586 15.6676 97.0586 15.1913C97.0586 14.4713 97.3555 13.9226 97.953 13.5426C98.5492 13.1626 99.3879 12.9763 100.468 12.9851V12.8751C100.468 12.0988 100.065 11.7113 99.2568 11.7113C98.6816 11.7113 98.1744 11.8576 97.7365 12.1476L97.473 11.2876C98.0148 10.9488 98.6841 10.7788 99.4733 10.7788C100.997 10.7788 101.762 11.5913 101.762 13.2163V15.3863C101.762 15.9751 101.79 16.4438 101.846 16.7913ZM100.5 14.7663V13.8576C99.07 13.8326 98.355 14.2288 98.355 15.0451C98.355 15.3526 98.4367 15.5826 98.6037 15.7363C98.7707 15.8901 98.9834 15.9663 99.237 15.9663C99.5215 15.9663 99.7875 15.8751 100.03 15.6938C100.274 15.5113 100.423 15.2801 100.479 14.9963C100.493 14.9326 100.5 14.8551 100.5 14.7663Z" fill="white"/>
<path d="M109.215 16.7913H108.065L108.004 15.8451H107.968C107.601 16.5651 106.975 16.9251 106.095 16.9251C105.393 16.9251 104.808 16.6463 104.344 16.0888C103.88 15.5313 103.648 14.8076 103.648 13.9188C103.648 12.9651 103.9 12.1926 104.404 11.6026C104.893 11.0526 105.492 10.7776 106.204 10.7776C106.987 10.7776 107.535 11.0438 107.847 11.5776H107.872V8.19507H109.169V15.2038C109.169 15.7776 109.184 16.3063 109.215 16.7913ZM107.872 14.3063V13.3238C107.872 13.1538 107.859 13.0163 107.836 12.9113C107.763 12.5963 107.606 12.3313 107.367 12.1176C107.126 11.9038 106.835 11.7963 106.5 11.7963C106.016 11.7963 105.638 11.9901 105.359 12.3788C105.083 12.7676 104.944 13.2638 104.944 13.8701C104.944 14.4526 105.076 14.9251 105.342 15.2888C105.623 15.6763 106.001 15.8701 106.475 15.8701C106.901 15.8701 107.241 15.7088 107.499 15.3851C107.749 15.0863 107.872 14.7263 107.872 14.3063Z" fill="white"/>
<path d="M120.301 13.7963C120.301 14.7026 120.045 15.4451 119.533 16.0276C118.996 16.6263 118.286 16.9251 117.397 16.9251C116.542 16.9251 115.86 16.6388 115.351 16.0638C114.843 15.4901 114.59 14.7663 114.59 13.8938C114.59 12.9813 114.851 12.2326 115.375 11.6513C115.9 11.0701 116.605 10.7788 117.494 10.7788C118.349 10.7788 119.038 11.0651 119.558 11.6388C120.053 12.1963 120.301 12.9163 120.301 13.7963ZM118.958 13.8388C118.958 13.2951 118.842 12.8288 118.61 12.4401C118.337 11.9701 117.951 11.7351 117.446 11.7351C116.927 11.7351 116.531 11.9701 116.257 12.4401C116.025 12.8288 115.91 13.3026 115.91 13.8626C115.91 14.4063 116.026 14.8726 116.257 15.2613C116.538 15.7313 116.929 15.9663 117.434 15.9663C117.929 15.9663 118.318 15.7276 118.598 15.2488C118.837 14.8526 118.958 14.3826 118.958 13.8388Z" fill="white"/>
<path d="M127.274 16.7913H125.979V13.4163C125.979 12.3763 125.588 11.8563 124.803 11.8563C124.418 11.8563 124.107 11.9988 123.867 12.285C123.627 12.5713 123.507 12.9088 123.507 13.295V16.79H122.21V12.5825C122.21 12.065 122.195 11.5038 122.164 10.8963H123.302L123.363 11.8175H123.399C123.551 11.5313 123.776 11.295 124.07 11.1063C124.423 10.8863 124.815 10.775 125.247 10.775C125.79 10.775 126.243 10.9525 126.603 11.3088C127.052 11.745 127.274 12.3963 127.274 13.2613V16.7913Z" fill="white"/>
<path d="M135.997 11.8801H134.569V14.7426C134.569 15.4701 134.823 15.8339 135.325 15.8339C135.558 15.8339 135.751 15.8139 135.903 15.7726L135.936 16.7664C135.68 16.8639 135.344 16.9126 134.929 16.9126C134.417 16.9126 134.019 16.7551 133.731 16.4401C133.441 16.1251 133.298 15.5951 133.298 14.8514V11.8801H132.445V10.8989H133.298V9.8189L134.568 9.4314V10.8976H135.996L135.997 11.8801Z" fill="white"/>
<path d="M142.861 16.7913H141.564V13.4413C141.564 12.3851 141.173 11.8563 140.39 11.8563C139.789 11.8563 139.378 12.1626 139.153 12.7751C139.114 12.9038 139.092 13.0613 139.092 13.2463V16.7901H137.797V8.19507H139.092V11.7463H139.117C139.525 11.1001 140.11 10.7776 140.868 10.7776C141.405 10.7776 141.849 10.9551 142.202 11.3113C142.641 11.7551 142.861 12.4151 142.861 13.2876V16.7913Z" fill="white"/>
<path d="M149.942 13.5663C149.942 13.8013 149.925 13.9988 149.894 14.1601H146.006C146.023 14.7426 146.209 15.1863 146.569 15.4938C146.898 15.7688 147.322 15.9063 147.842 15.9063C148.417 15.9063 148.941 15.8138 149.414 15.6276L149.617 16.5376C149.064 16.7801 148.413 16.9013 147.66 16.9013C146.757 16.9013 146.046 16.6326 145.531 16.0951C145.014 15.5576 144.758 14.8363 144.758 13.9313C144.758 13.0426 144.997 12.3026 145.478 11.7126C145.98 11.0826 146.659 10.7676 147.516 10.7676C148.355 10.7676 148.992 11.0826 149.423 11.7126C149.77 12.2126 149.942 12.8313 149.942 13.5663ZM148.705 13.2276C148.715 12.8388 148.63 12.5038 148.454 12.2213C148.229 11.8576 147.886 11.6751 147.422 11.6751C146.999 11.6751 146.654 11.8526 146.391 12.2088C146.175 12.4926 146.048 12.8313 146.006 13.2276H148.705Z" fill="white"/>
</g>
<defs>
<clipPath id="clip0_971_3931">
<rect width="167" height="50" fill="white"/>
</clipPath>
</defs>
</svg>
