<svg width="76" height="76" viewBox="0 0 76 76" fill="none" xmlns="http://www.w3.org/2000/svg">
<circle cx="38" cy="38" r="35" fill="#40637D" stroke="#EBF7FF" stroke-width="6"/>
<path d="M51.3307 40.3667V24.15C51.329 23.4035 51.0316 22.6881 50.5038 22.1603C49.976 21.6324 49.2605 21.3351 48.5141 21.3333H46.1807C46.0101 20.8462 45.6923 20.4241 45.2713 20.1255C44.8503 19.8269 44.3469 19.6665 43.8307 19.6665C43.3146 19.6665 42.8112 19.8269 42.3902 20.1255C41.9692 20.4241 41.6514 20.8462 41.4807 21.3333H29.5141C29.3434 20.8462 29.0256 20.4241 28.6046 20.1255C28.1836 19.8269 27.6802 19.6665 27.1641 19.6665C26.6479 19.6665 26.1445 19.8269 25.7235 20.1255C25.3025 20.4241 24.9847 20.8462 24.8141 21.3333H22.4807C21.7342 21.3351 21.0188 21.6324 20.491 22.1603C19.9631 22.6881 19.6658 23.4035 19.6641 24.15V48.5167C19.6658 49.2632 19.9631 49.9786 20.491 50.5064C21.0188 51.0343 21.7342 51.3316 22.4807 51.3333H40.3641C40.906 52.5784 41.7439 53.6721 42.805 54.5195C43.866 55.3668 45.1181 55.942 46.4521 56.195C47.7862 56.448 49.1619 56.3712 50.4596 55.9713C51.7572 55.5713 52.9374 54.8603 53.8976 53.9002C54.8577 52.94 55.5687 51.7598 55.9687 50.4622C56.3686 49.1645 56.4454 47.7888 56.1924 46.4548C55.9394 45.1207 55.3642 43.8686 54.5168 42.8076C53.6695 41.7465 52.5758 40.9086 51.3307 40.3667ZM42.9974 22.1667C42.9974 21.9457 43.0852 21.7337 43.2415 21.5774C43.3978 21.4211 43.6097 21.3333 43.8307 21.3333C44.0517 21.3333 44.2637 21.4211 44.42 21.5774C44.5763 21.7337 44.6641 21.9457 44.6641 22.1667V23.8333C44.6641 24.0544 44.5763 24.2663 44.42 24.4226C44.2637 24.5789 44.0517 24.6667 43.8307 24.6667C43.6097 24.6667 43.3978 24.5789 43.2415 24.4226C43.0852 24.2663 42.9974 24.0544 42.9974 23.8333V22.1667ZM26.3307 22.1667C26.3307 21.9457 26.4185 21.7337 26.5748 21.5774C26.7311 21.4211 26.943 21.3333 27.1641 21.3333C27.3851 21.3333 27.597 21.4211 27.7533 21.5774C27.9096 21.7337 27.9974 21.9457 27.9974 22.1667V23.8333C27.9974 24.0544 27.9096 24.2663 27.7533 24.4226C27.597 24.5789 27.3851 24.6667 27.1641 24.6667C26.943 24.6667 26.7311 24.5789 26.5748 24.4226C26.4185 24.2663 26.3307 24.0544 26.3307 23.8333V22.1667ZM21.3307 24.15C21.3312 23.8451 21.4525 23.5529 21.668 23.3373C21.8836 23.1217 22.1759 23.0004 22.4807 23H24.6641V23.8333C24.6641 24.4964 24.9275 25.1323 25.3963 25.6011C25.8651 26.0699 26.501 26.3333 27.1641 26.3333C27.8271 26.3333 28.463 26.0699 28.9318 25.6011C29.4007 25.1323 29.6641 24.4964 29.6641 23.8333V23H41.3307V23.8333C41.3307 24.4964 41.5941 25.1323 42.063 25.6011C42.5318 26.0699 43.1677 26.3333 43.8307 26.3333C44.4938 26.3333 45.1297 26.0699 45.5985 25.6011C46.0673 25.1323 46.3307 24.4964 46.3307 23.8333V23H48.5141C48.8189 23.0004 49.1112 23.1217 49.3267 23.3373C49.5423 23.5529 49.6636 23.8451 49.6641 24.15V28H21.3307V24.15ZM39.8307 49.6667H22.4807C22.1759 49.6662 21.8836 49.5449 21.668 49.3294C21.4525 49.1138 21.3312 48.8215 21.3307 48.5167V29.6667H49.6641V39.8333C49.1148 39.7267 48.5569 39.6709 47.9974 39.6667C45.7873 39.6667 43.6676 40.5446 42.1048 42.1075C40.542 43.6703 39.6641 45.7899 39.6641 48C39.6683 48.5595 39.7241 49.1174 39.8307 49.6667ZM47.9974 54.6667C46.6789 54.6667 45.3899 54.2757 44.2936 53.5431C43.1973 52.8106 42.3428 51.7694 41.8382 50.5512C41.3336 49.3331 41.2016 47.9926 41.4588 46.6994C41.7161 45.4062 42.351 44.2183 43.2834 43.286C44.2157 42.3536 45.4036 41.7187 46.6968 41.4614C47.99 41.2042 49.3304 41.3362 50.5486 41.8408C51.7668 42.3454 52.808 43.1999 53.5405 44.2962C54.2731 45.3925 54.6641 46.6815 54.6641 48C54.6641 49.7681 53.9617 51.4638 52.7114 52.7141C51.4612 53.9643 49.7655 54.6667 47.9974 54.6667Z" fill="#303754"/>
<path d="M21.332 29.6667V48.5167C21.3325 48.8216 21.4538 49.1138 21.6693 49.3294C21.8849 49.545 22.1772 49.6663 22.482 49.6667H39.832C39.7254 49.1174 39.6696 48.5595 39.6654 48C39.6654 45.7899 40.5433 43.6703 42.1061 42.1075C43.6689 40.5447 45.7886 39.6667 47.9987 39.6667C48.5582 39.671 49.1161 39.7268 49.6654 39.8334V29.6667H21.332ZM29.6654 45.5C29.6654 45.7211 29.5776 45.933 29.4213 46.0893C29.265 46.2456 29.053 46.3334 28.832 46.3334H25.4987C25.2777 46.3334 25.0657 46.2456 24.9094 46.0893C24.7532 45.933 24.6654 45.7211 24.6654 45.5V42.1667C24.6654 41.9457 24.7532 41.7337 24.9094 41.5775C25.0657 41.4212 25.2777 41.3334 25.4987 41.3334H28.832C29.053 41.3334 29.265 41.4212 29.4213 41.5775C29.5776 41.7337 29.6654 41.9457 29.6654 42.1667V45.5ZM29.6654 37.1667C29.6654 37.3877 29.5776 37.5997 29.4213 37.756C29.265 37.9122 29.053 38 28.832 38H25.4987C25.2777 38 25.0657 37.9122 24.9094 37.756C24.7532 37.5997 24.6654 37.3877 24.6654 37.1667V33.8334C24.6654 33.6124 24.7532 33.4004 24.9094 33.2441C25.0657 33.0878 25.2777 33 25.4987 33H28.832C29.053 33 29.265 33.0878 29.4213 33.2441C29.5776 33.4004 29.6654 33.6124 29.6654 33.8334V37.1667ZM37.9987 45.5C37.9987 45.7211 37.9109 45.933 37.7546 46.0893C37.5983 46.2456 37.3864 46.3334 37.1654 46.3334H33.832C33.611 46.3334 33.3991 46.2456 33.2428 46.0893C33.0865 45.933 32.9987 45.7211 32.9987 45.5V42.1667C32.9987 41.9457 33.0865 41.7337 33.2428 41.5775C33.3991 41.4212 33.611 41.3334 33.832 41.3334H37.1654C37.3864 41.3334 37.5983 41.4212 37.7546 41.5775C37.9109 41.7337 37.9987 41.9457 37.9987 42.1667V45.5ZM37.9987 37.1667C37.9987 37.3877 37.9109 37.5997 37.7546 37.756C37.5983 37.9122 37.3864 38 37.1654 38H33.832C33.611 38 33.3991 37.9122 33.2428 37.756C33.0865 37.5997 32.9987 37.3877 32.9987 37.1667V33.8334C32.9987 33.6124 33.0865 33.4004 33.2428 33.2441C33.3991 33.0878 33.611 33 33.832 33H37.1654C37.3864 33 37.5983 33.0878 37.7546 33.2441C37.9109 33.4004 37.9987 33.6124 37.9987 33.8334V37.1667ZM46.332 37.1667C46.332 37.3877 46.2442 37.5997 46.088 37.756C45.9317 37.9122 45.7197 38 45.4987 38H42.1654C41.9444 38 41.7324 37.9122 41.5761 37.756C41.4198 37.5997 41.332 37.3877 41.332 37.1667V33.8334C41.332 33.6124 41.4198 33.4004 41.5761 33.2441C41.7324 33.0878 41.9444 33 42.1654 33H45.4987C45.7197 33 45.9317 33.0878 46.088 33.2441C46.2442 33.4004 46.332 33.6124 46.332 33.8334V37.1667ZM44.6654 22.1667V23.8334C44.6654 24.0544 44.5776 24.2663 44.4213 24.4226C44.265 24.5789 44.053 24.6667 43.832 24.6667C43.611 24.6667 43.3991 24.5789 43.2428 24.4226C43.0865 24.2663 42.9987 24.0544 42.9987 23.8334V22.1667C42.9987 21.9457 43.0865 21.7337 43.2428 21.5775C43.3991 21.4212 43.611 21.3334 43.832 21.3334C44.053 21.3334 44.265 21.4212 44.4213 21.5775C44.5776 21.7337 44.6654 21.9457 44.6654 22.1667ZM27.9987 22.1667V23.8334C27.9987 24.0544 27.9109 24.2663 27.7546 24.4226C27.5983 24.5789 27.3864 24.6667 27.1654 24.6667C26.9444 24.6667 26.7324 24.5789 26.5761 24.4226C26.4198 24.2663 26.332 24.0544 26.332 23.8334V22.1667C26.332 21.9457 26.4198 21.7337 26.5761 21.5775C26.7324 21.4212 26.9444 21.3334 27.1654 21.3334C27.3864 21.3334 27.5983 21.4212 27.7546 21.5775C27.9109 21.7337 27.9987 21.9457 27.9987 22.1667Z" fill="white"/>
<path d="M47.9987 41.3333C46.6802 41.3333 45.3912 41.7243 44.2949 42.4569C43.1986 43.1894 42.3441 44.2306 41.8395 45.4488C41.3349 46.667 41.2029 48.0074 41.4601 49.3006C41.7174 50.5938 42.3523 51.7817 43.2847 52.714C44.217 53.6464 45.4049 54.2813 46.6981 54.5386C47.9913 54.7958 49.3317 54.6638 50.5499 54.1592C51.7681 53.6546 52.8093 52.8001 53.5418 51.7038C54.2744 50.6075 54.6654 49.3185 54.6654 48C54.6654 46.2319 53.963 44.5362 52.7127 43.286C51.4625 42.0357 49.7668 41.3333 47.9987 41.3333ZM50.2487 50.25C50.1735 50.3291 50.083 50.392 49.9827 50.435C49.8825 50.4781 49.7745 50.5002 49.6654 50.5002C49.5562 50.5002 49.4483 50.4781 49.348 50.435C49.2477 50.392 49.1572 50.3291 49.082 50.25L47.4154 48.5833C47.3352 48.509 47.2716 48.4187 47.2285 48.3182C47.1854 48.2177 47.1639 48.1093 47.1654 48V44.6667C47.1654 44.4457 47.2532 44.2337 47.4094 44.0774C47.5657 43.9211 47.7777 43.8333 47.9987 43.8333C48.2197 43.8333 48.4317 43.9211 48.588 44.0774C48.7442 44.2337 48.832 44.4457 48.832 44.6667V47.65L50.2487 49.0833C50.3278 49.1585 50.3907 49.249 50.4337 49.3493C50.4768 49.4496 50.499 49.5575 50.499 49.6667C50.499 49.7758 50.4768 49.8838 50.4337 49.984C50.3907 50.0843 50.3278 50.1748 50.2487 50.25ZM49.6654 24.15V28H21.332V24.15C21.3325 23.8451 21.4538 23.5529 21.6693 23.3373C21.8849 23.1217 22.1772 23.0004 22.482 23H24.6654V23.8333C24.6654 24.4964 24.9288 25.1323 25.3976 25.6011C25.8664 26.0699 26.5023 26.3333 27.1654 26.3333C27.8284 26.3333 28.4643 26.0699 28.9331 25.6011C29.402 25.1323 29.6654 24.4964 29.6654 23.8333V23H41.332V23.8333C41.332 24.4964 41.5954 25.1323 42.0643 25.6011C42.5331 26.0699 43.169 26.3333 43.832 26.3333C44.4951 26.3333 45.131 26.0699 45.5998 25.6011C46.0686 25.1323 46.332 24.4964 46.332 23.8333V23H48.5154C48.8202 23.0004 49.1125 23.1217 49.3281 23.3373C49.5436 23.5529 49.6649 23.8451 49.6654 24.15Z" fill="#2C98F6"/>
<path d="M50.2461 50.25C50.1709 50.3291 50.0804 50.392 49.9801 50.435C49.8799 50.478 49.7719 50.5002 49.6628 50.5002C49.5536 50.5002 49.4457 50.478 49.3454 50.435C49.2451 50.392 49.1546 50.3291 49.0794 50.25L47.4128 48.5833C47.3326 48.509 47.269 48.4186 47.2259 48.3182C47.1828 48.2177 47.1613 48.1093 47.1628 48V44.6666C47.1628 44.4456 47.2506 44.2337 47.4068 44.0774C47.5631 43.9211 47.7751 43.8333 47.9961 43.8333C48.2171 43.8333 48.4291 43.9211 48.5854 44.0774C48.7416 44.2337 48.8294 44.4456 48.8294 44.6666V47.65L50.2461 49.0833C50.3252 49.1585 50.3881 49.249 50.4311 49.3493C50.4742 49.4496 50.4963 49.5575 50.4963 49.6666C50.4963 49.7758 50.4742 49.8837 50.4311 49.984C50.3881 50.0843 50.3252 50.1748 50.2461 50.25ZM37.1628 41.3333H33.8294C33.6084 41.3333 33.3965 41.4211 33.2402 41.5774C33.0839 41.7337 32.9961 41.9456 32.9961 42.1666V45.5C32.9961 45.721 33.0839 45.933 33.2402 46.0892C33.3965 46.2455 33.6084 46.3333 33.8294 46.3333H37.1628C37.3838 46.3333 37.5957 46.2455 37.752 46.0892C37.9083 45.933 37.9961 45.721 37.9961 45.5V42.1666C37.9961 41.9456 37.9083 41.7337 37.752 41.5774C37.5957 41.4211 37.3838 41.3333 37.1628 41.3333ZM36.3294 44.6666H34.6628V43H36.3294V44.6666Z" fill="#303754"/>
<path d="M34.6641 43H36.3307V44.6667H34.6641V43Z" fill="white"/>
<path d="M28.8307 41.3333H25.4974C25.2764 41.3333 25.0644 41.4211 24.9081 41.5774C24.7519 41.7337 24.6641 41.9456 24.6641 42.1666V45.5C24.6641 45.721 24.7519 45.933 24.9081 46.0892C25.0644 46.2455 25.2764 46.3333 25.4974 46.3333H28.8307C29.0517 46.3333 29.2637 46.2455 29.42 46.0892C29.5763 45.933 29.6641 45.721 29.6641 45.5V42.1666C29.6641 41.9456 29.5763 41.7337 29.42 41.5774C29.2637 41.4211 29.0517 41.3333 28.8307 41.3333ZM27.9974 44.6666H26.3307V43H27.9974V44.6666Z" fill="#303754"/>
<path d="M26.332 43H27.9987V44.6667H26.332V43Z" fill="white"/>
<path d="M45.4987 33H42.1654C41.9444 33 41.7324 33.0878 41.5761 33.2441C41.4198 33.4004 41.332 33.6123 41.332 33.8333V37.1667C41.332 37.3877 41.4198 37.5996 41.5761 37.7559C41.7324 37.9122 41.9444 38 42.1654 38H45.4987C45.7197 38 45.9317 37.9122 46.088 37.7559C46.2442 37.5996 46.332 37.3877 46.332 37.1667V33.8333C46.332 33.6123 46.2442 33.4004 46.088 33.2441C45.9317 33.0878 45.7197 33 45.4987 33ZM44.6654 36.3333H42.9987V34.6667H44.6654V36.3333Z" fill="#303754"/>
<path d="M42.9961 34.6667H44.6628V36.3334H42.9961V34.6667Z" fill="white"/>
<path d="M37.1628 33H33.8294C33.6084 33 33.3965 33.0878 33.2402 33.2441C33.0839 33.4004 32.9961 33.6123 32.9961 33.8333V37.1667C32.9961 37.3877 33.0839 37.5996 33.2402 37.7559C33.3965 37.9122 33.6084 38 33.8294 38H37.1628C37.3838 38 37.5957 37.9122 37.752 37.7559C37.9083 37.5996 37.9961 37.3877 37.9961 37.1667V33.8333C37.9961 33.6123 37.9083 33.4004 37.752 33.2441C37.5957 33.0878 37.3838 33 37.1628 33ZM36.3294 36.3333H34.6628V34.6667H36.3294V36.3333Z" fill="#303754"/>
<path d="M34.6641 34.6667H36.3307V36.3334H34.6641V34.6667Z" fill="white"/>
<path d="M28.8307 33H25.4974C25.2764 33 25.0644 33.0878 24.9081 33.2441C24.7519 33.4004 24.6641 33.6123 24.6641 33.8333V37.1667C24.6641 37.3877 24.7519 37.5996 24.9081 37.7559C25.0644 37.9122 25.2764 38 25.4974 38H28.8307C29.0517 38 29.2637 37.9122 29.42 37.7559C29.5763 37.5996 29.6641 37.3877 29.6641 37.1667V33.8333C29.6641 33.6123 29.5763 33.4004 29.42 33.2441C29.2637 33.0878 29.0517 33 28.8307 33ZM27.9974 36.3333H26.3307V34.6667H27.9974V36.3333Z" fill="#303754"/>
<path d="M26.332 34.6667H27.9987V36.3334H26.332V34.6667Z" fill="white"/>
</svg>
