<svg width="76" height="76" viewBox="0 0 76 76" fill="none" xmlns="http://www.w3.org/2000/svg">
<circle cx="38" cy="38" r="35" fill="#40637D" stroke="#EBF7FF" stroke-width="6"/>
<g clip-path="url(#clip0_1655_6760)">
<path d="M40.7233 27.6837L39.705 26.0355L30.2071 28.2053L21.3672 49.3211L23.0903 50.0423L35.6577 55.3042L35.9852 55.4406L43.8022 36.766L44.8252 34.3241L40.7233 27.6837ZM39.0345 30.9732C38.76 31.6289 38.0053 31.9384 37.3495 31.6632C36.6923 31.3887 36.3835 30.6341 36.658 29.9783C36.9324 29.3218 37.6871 29.0123 38.3445 29.2867C39.0002 29.5619 39.3089 30.3166 39.0345 30.9732Z" fill="#FF3C63"/>
<path d="M40.7233 27.6837L31.7625 29.7928L23.0902 50.0423L21.3672 49.3211L30.2071 28.2053L39.705 26.0356L40.7233 27.6837Z" fill="#FF557E"/>
<path d="M43.8033 36.7665L35.9858 55.4409L35.6587 55.3041C34.1395 53.3536 33.2344 50.9012 33.2344 48.2367C33.2344 42.1976 37.8864 37.2448 43.8033 36.7665Z" fill="#EA2F5C"/>
<path d="M40.8709 35.7763L40.0565 37.7222L34.521 50.9447L33.4547 50.498L25.5938 47.2076L31.9436 32.0391L40.8709 35.7763Z" fill="#E0E0E3"/>
<path d="M40.059 37.7222L34.5236 50.9447L33.4573 50.498C33.3084 49.7535 33.2337 48.996 33.2344 48.2367C33.2344 43.5493 36.0374 39.516 40.059 37.7222Z" fill="#D1D1D1"/>
<path d="M44.7436 57.4143C49.812 57.4143 53.9208 53.3055 53.9208 48.2371C53.9208 43.1687 49.812 39.0599 44.7436 39.0599C39.6752 39.0599 35.5664 43.1687 35.5664 48.2371C35.5664 53.3055 39.6752 57.4143 44.7436 57.4143Z" fill="#FFCE00"/>
<path d="M44.7405 54.4894C48.1936 54.4894 50.9928 51.6902 50.9928 48.2371C50.9928 44.7841 48.1936 41.9849 44.7405 41.9849C41.2875 41.9849 38.4883 44.7841 38.4883 48.2371C38.4883 51.6902 41.2875 54.4894 44.7405 54.4894Z" fill="#FFDA2D"/>
<path d="M44.7421 52.9519C47.346 52.9519 49.4569 50.841 49.4569 48.2371C49.4569 45.6332 47.346 43.5223 44.7421 43.5223C42.1382 43.5223 40.0273 45.6332 40.0273 48.2371C40.0273 50.841 42.1382 52.9519 44.7421 52.9519Z" fill="#FFE571"/>
<path d="M22.969 45.4989C23.1124 45.5589 23.2737 45.5595 23.4175 45.5006C23.5612 45.4416 23.6757 45.328 23.7357 45.1846L30.6329 28.709L36.5721 27.3524C36.5956 27.9059 36.6314 28.4587 36.6794 29.0106C36.4331 29.2063 36.2405 29.4613 36.1194 29.7517C35.926 30.2135 35.9241 30.7229 36.1139 31.186C36.3036 31.6491 36.6625 32.0106 37.1244 32.204C37.3527 32.2999 37.5979 32.3493 37.8456 32.3493C38.5787 32.3493 39.2764 31.9164 39.5767 31.1989C39.7699 30.7375 39.7718 30.2283 39.5821 29.7651C39.3924 29.3017 39.0335 28.9399 38.5717 28.7467C38.3346 28.647 38.0794 28.5975 37.8221 28.601C37.7833 28.0969 37.7544 27.592 37.7353 27.0867L39.4285 26.7L40.4177 28.3015L40.4193 28.3042L42.467 31.6192C42.5071 31.6853 42.5599 31.7428 42.6224 31.7885C42.6848 31.8341 42.7557 31.8669 42.8309 31.885C42.9061 31.9031 42.9841 31.9061 43.0605 31.8939C43.1369 31.8817 43.2101 31.8545 43.2759 31.8138C43.3417 31.7732 43.3988 31.7199 43.444 31.6571C43.4891 31.5942 43.5213 31.5231 43.5388 31.4477C43.5562 31.3724 43.5586 31.2943 43.5458 31.218C43.5329 31.1418 43.5051 31.0688 43.4639 31.0033L41.6017 27.9885C43.8803 23.9185 43.4226 20.5241 41.921 18.9358C41.0291 17.9924 39.8264 17.7407 38.7822 18.2794C37.4242 18.9799 36.6972 21.0355 36.5596 24.5637C36.5396 25.0949 36.5328 25.6265 36.5393 26.158L30.0783 27.6337C29.9874 27.6545 29.9028 27.6966 29.8315 27.7566C29.7602 27.8166 29.7042 27.8927 29.6682 27.9787L22.6548 44.7322C22.5948 44.8756 22.5942 45.0368 22.6531 45.1806C22.7121 45.3244 22.8257 45.4389 22.969 45.4989ZM38.4975 30.2093C38.5327 30.2945 38.5507 30.3859 38.5503 30.4781C38.55 30.5703 38.5314 30.6615 38.4956 30.7464C38.346 31.1035 37.9339 31.2723 37.5769 31.123C37.4917 31.0876 37.4143 31.0357 37.3493 30.9703C37.2843 30.9048 37.233 30.8271 37.1982 30.7417C37.1271 30.5682 37.1279 30.3774 37.2004 30.2042C37.2358 30.1191 37.2877 30.0418 37.3532 29.9769C37.4186 29.9119 37.4963 29.8606 37.5817 29.8259C37.6663 29.791 37.7568 29.773 37.8483 29.7729C37.9401 29.7729 38.032 29.7912 38.1192 29.8278C38.2043 29.8632 38.2816 29.9151 38.3466 29.9806C38.4115 30.0461 38.4628 30.1239 38.4975 30.2093ZM37.731 24.5972C37.8467 21.6635 38.4109 19.7896 39.3195 19.3209C39.8974 19.0227 40.5353 19.1759 41.0695 19.7409C41.6762 20.3827 42.0209 21.4453 42.0151 22.6563C42.0091 23.9407 41.6209 25.3698 40.8881 26.8334L40.2051 25.7276C40.1408 25.6236 40.0456 25.5423 39.9329 25.495C39.8201 25.4478 39.6953 25.4371 39.5761 25.4643L37.7096 25.8906C37.7078 25.4729 37.7137 25.0374 37.731 24.5972Z" fill="black"/>
<path d="M33.9764 40.9597L33.0936 40.5901C33.0126 40.5564 32.939 40.507 32.8772 40.4447C32.8154 40.3824 32.7665 40.3085 32.7334 40.2272C32.6999 40.146 32.6829 40.0591 32.6832 39.9713C32.6835 39.8835 32.7013 39.7967 32.7354 39.7158C32.7691 39.6348 32.8185 39.5612 32.8808 39.4994C32.943 39.4376 33.017 39.3887 33.0983 39.3557C33.1794 39.3222 33.2664 39.3052 33.3541 39.3055C33.4419 39.3058 33.5287 39.3235 33.6096 39.3576L34.0509 39.5424H34.0511L35.0404 39.9565C35.0494 39.9602 35.0576 39.9656 35.0645 39.9726C35.0714 39.9795 35.0767 39.9877 35.0803 39.9968C35.0841 40.0057 35.0861 40.0154 35.0861 40.0251C35.086 40.0349 35.084 40.0445 35.0802 40.0534C35.0202 40.1968 35.0195 40.3581 35.0785 40.5018C35.1374 40.6456 35.251 40.7601 35.3943 40.8201C35.4653 40.8499 35.5414 40.8653 35.6183 40.8656C35.6953 40.8659 35.7715 40.8511 35.8427 40.8219C35.9139 40.7927 35.9787 40.7498 36.0333 40.6956C36.0879 40.6414 36.1313 40.577 36.161 40.506C36.2896 40.199 36.2909 39.8603 36.1646 39.5523C36.0384 39.2444 35.7998 39.004 35.4928 38.8755L35.044 38.6876L35.3953 37.8483C35.4537 37.7052 35.4532 37.5449 35.394 37.4022C35.3348 37.2595 35.2216 37.146 35.0791 37.0863C34.9366 37.0267 34.7763 37.0257 34.6331 37.0837C34.4898 37.1416 34.3753 37.2538 34.3144 37.3958L33.961 38.2399C33.535 38.0896 33.0752 38.0986 32.6539 38.2712C32.43 38.3623 32.2264 38.4969 32.0548 38.6672C31.8833 38.8374 31.7472 39.04 31.6545 39.2633C31.5605 39.486 31.5116 39.7251 31.5107 39.9668C31.5098 40.2086 31.5568 40.4481 31.6491 40.6715C31.8355 41.1262 32.1878 41.4812 32.6412 41.6709L33.5239 42.0405C33.605 42.0741 33.6786 42.1235 33.7404 42.1859C33.8022 42.2482 33.8511 42.3221 33.8841 42.4034C33.9176 42.4845 33.9347 42.5715 33.9344 42.6592C33.9341 42.747 33.9163 42.8338 33.8823 42.9147C33.74 43.2546 33.3479 43.4152 33.008 43.273L32.5668 43.0883L32.5667 43.0882L32.5666 43.0881L31.5773 42.674C31.5683 42.6704 31.5601 42.665 31.5532 42.6581C31.5464 42.6511 31.541 42.6429 31.5374 42.6338C31.5336 42.6248 31.5317 42.6152 31.5317 42.6054C31.5317 42.5957 31.5337 42.5861 31.5376 42.5771C31.5976 42.4338 31.5982 42.2725 31.5393 42.1287C31.4804 41.9849 31.3668 41.8704 31.2234 41.8104C31.1525 41.7806 31.0763 41.7652 30.9994 41.7649C30.9225 41.7646 30.8462 41.7794 30.775 41.8086C30.7038 41.8378 30.639 41.8807 30.5844 41.9349C30.5298 41.9891 30.4864 42.0535 30.4567 42.1245C30.3931 42.2753 30.36 42.4373 30.3594 42.601C30.3588 42.7646 30.3906 42.9268 30.4531 43.0781C30.5148 43.2298 30.6059 43.3677 30.7212 43.4838C30.8365 43.6 30.9738 43.6922 31.1249 43.755L31.5738 43.9429L31.2224 44.7822C31.1645 44.9251 31.1653 45.0851 31.2246 45.2275C31.2839 45.3699 31.397 45.4832 31.5393 45.5427C31.6815 45.6023 31.8416 45.6033 31.9846 45.5456C32.1277 45.4879 32.2422 45.3762 32.3034 45.2346L32.656 44.3922C32.8512 44.4611 33.0567 44.4964 33.2637 44.4965C33.9834 44.4965 34.6684 44.0715 34.9634 43.3671C35.3548 42.4315 34.9123 41.3515 33.9764 40.9597Z" fill="black"/>
<path d="M44.742 38.4738C44.3898 38.4738 44.042 38.493 43.6994 38.5296L45.3651 34.5509C45.4011 34.4649 45.4161 34.3716 45.4088 34.2787C45.4015 34.1858 45.3722 34.096 45.3232 34.0167L44.6544 32.9339C44.6142 32.8681 44.5614 32.8108 44.4989 32.7654C44.4365 32.72 44.3657 32.6874 44.2906 32.6695C44.2155 32.6515 44.1377 32.6486 44.0614 32.6609C43.9852 32.6731 43.9122 32.7003 43.8465 32.7408C43.7808 32.7814 43.7238 32.8345 43.6788 32.8972C43.6337 32.9599 43.6014 33.0308 43.5839 33.106C43.5663 33.1811 43.5637 33.259 43.5764 33.3352C43.589 33.4113 43.6165 33.4842 43.6574 33.5497L44.1679 34.3763L42.3255 38.7767C41.4465 39.0017 40.6035 39.3487 39.821 39.8078L41.4137 36.0033C41.4737 35.86 41.4743 35.6987 41.4153 35.5549C41.3564 35.4111 41.2428 35.2966 41.0994 35.2366L32.1723 31.4992C32.1013 31.4694 32.0251 31.4539 31.9482 31.4536C31.8712 31.4533 31.795 31.4682 31.7238 31.4973C31.6525 31.5265 31.5878 31.5694 31.5332 31.6236C31.4786 31.6779 31.4352 31.7423 31.4055 31.8133L25.0556 46.981C24.9956 47.1243 24.995 47.2856 25.0539 47.4294C25.1128 47.5732 25.2264 47.6877 25.3698 47.7477L34.2969 51.4852C34.3685 51.5153 34.4454 51.5308 34.523 51.5308C34.6386 51.5308 34.7516 51.4967 34.8478 51.4327C34.944 51.3687 35.0191 51.2776 35.0637 51.171L35.2812 50.6515C35.5054 51.5284 35.8512 52.3696 36.3085 53.1506L35.6707 54.674L22.134 49.0078L22.9155 47.1413C22.9463 47.0701 22.9627 46.9935 22.9637 46.916C22.9647 46.8384 22.9503 46.7615 22.9214 46.6895C22.8924 46.6176 22.8494 46.5521 22.795 46.4969C22.7405 46.4417 22.6757 46.3978 22.6041 46.3679C22.5326 46.3379 22.4558 46.3225 22.3783 46.3224C22.3007 46.3223 22.2239 46.3377 22.1523 46.3675C22.0808 46.3974 22.0158 46.4411 21.9613 46.4963C21.9067 46.5514 21.8637 46.6168 21.8346 46.6887L20.8268 49.0957C20.797 49.1667 20.7816 49.2428 20.7813 49.3198C20.7809 49.3968 20.7958 49.473 20.825 49.5442C20.8542 49.6155 20.8971 49.6802 20.9513 49.7348C21.0055 49.7894 21.07 49.8328 21.141 49.8625L35.7587 55.9812C35.9021 56.0411 36.0634 56.0417 36.2071 55.9828C36.3509 55.9239 36.4654 55.8103 36.5255 55.667L37.0969 54.3019C38.887 56.5536 41.6486 57.9999 44.7419 57.9999C50.1254 57.9999 54.5051 53.6203 54.5051 48.2368C54.5051 42.8534 50.1254 38.4738 44.742 38.4738ZM34.2091 50.1779L26.3628 46.893L32.2602 32.8063L40.1065 36.0911L37.9583 41.2227C36.1223 42.9989 34.9789 45.4867 34.9789 48.2369C34.9789 48.2703 34.9798 48.3033 34.9801 48.3366L34.2091 50.1779ZM44.742 56.8281C40.0782 56.8281 36.2705 53.0927 36.1535 48.4565C36.1536 48.4497 36.1534 48.443 36.1533 48.4362C36.1518 48.3699 36.1508 48.3035 36.1508 48.2369C36.1508 43.4996 40.0048 39.6456 44.742 39.6456C49.4792 39.6456 53.3333 43.4996 53.3333 48.2369C53.3333 52.9742 49.4792 56.8281 44.742 56.8281Z" fill="black"/>
<path d="M44.7409 41.3984C40.9702 41.3984 37.9023 44.4662 37.9023 48.237C37.9023 52.0079 40.9701 55.0755 44.7409 55.0755C46.6354 55.0755 48.397 54.3186 49.7016 52.9441C49.7546 52.8883 49.7961 52.8226 49.8236 52.7508C49.8512 52.679 49.8644 52.6024 49.8624 52.5255C49.8604 52.4486 49.8432 52.3728 49.8119 52.3025C49.7806 52.2322 49.7358 52.1688 49.68 52.1158C49.6242 52.0628 49.5585 52.0214 49.4867 51.9938C49.4148 51.9662 49.3383 51.953 49.2613 51.955C49.1844 51.9571 49.1086 51.9742 49.0384 52.0055C48.9681 52.0368 48.9046 52.0816 48.8516 52.1374C47.7705 53.2764 46.3108 53.9037 44.7409 53.9037C41.6163 53.9037 39.0742 51.3616 39.0742 48.237C39.0742 45.1124 41.6162 42.5703 44.7409 42.5703C47.8656 42.5703 50.4076 45.1123 50.4076 48.237C50.4076 49.0685 50.2318 49.8692 49.8852 50.617C49.8226 50.7575 49.8178 50.9171 49.8718 51.0612C49.9259 51.2052 50.0344 51.3223 50.174 51.387C50.3136 51.4517 50.4731 51.4589 50.618 51.4071C50.7629 51.3552 50.8815 51.2485 50.9484 51.1098C51.367 50.2065 51.5794 49.2399 51.5794 48.2371C51.5795 44.4662 48.5116 41.3984 44.7409 41.3984Z" fill="black"/>
<path d="M44.3733 46.8069H45.6542C45.6617 46.9597 45.7286 47.1034 45.8407 47.2075C45.9527 47.3116 46.101 47.3677 46.2539 47.364C46.4068 47.3602 46.5522 47.2968 46.6589 47.1873C46.7657 47.0778 46.8254 46.9309 46.8254 46.778C46.8254 46.1478 46.3127 45.635 45.6823 45.635H45.363V44.9584C45.363 44.803 45.3013 44.654 45.1914 44.5441C45.0815 44.4342 44.9325 44.3725 44.7771 44.3725C44.6217 44.3725 44.4727 44.4342 44.3628 44.5441C44.2529 44.654 44.1912 44.803 44.1912 44.9584V45.6457C43.3699 45.7366 42.7288 46.4343 42.7288 47.2793C42.7288 48.186 43.4665 48.9237 44.3732 48.9237H45.1809C45.4415 48.9237 45.6534 49.1357 45.6534 49.3962C45.6534 49.6568 45.4415 49.8687 45.1809 49.8687H43.9002C43.8927 49.716 43.8258 49.5722 43.7137 49.4681C43.6017 49.364 43.4534 49.3079 43.3005 49.3116C43.1476 49.3154 43.0022 49.3788 42.8954 49.4883C42.7887 49.5978 42.7289 49.7447 42.729 49.8976C42.729 50.5278 43.2417 51.0406 43.872 51.0406H44.1912V51.7172C44.1912 51.8726 44.253 52.0217 44.3629 52.1315C44.4728 52.2414 44.6218 52.3032 44.7772 52.3032C44.9326 52.3032 45.0816 52.2414 45.1915 52.1315C45.3014 52.0217 45.3631 51.8726 45.3631 51.7172V51.03C46.1844 50.939 46.8255 50.2414 46.8255 49.3963C46.8255 48.4896 46.0878 47.7519 45.1811 47.7519H44.3734C44.1128 47.7519 43.9009 47.54 43.9009 47.2794C43.9009 47.0189 44.1127 46.8069 44.3733 46.8069ZM48.6645 31.3277H50.8745C51.0299 31.3277 51.179 31.266 51.2889 31.1561C51.3987 31.0462 51.4605 30.8972 51.4605 30.7417C51.4605 30.5863 51.3987 30.4373 51.2889 30.3274C51.179 30.2175 51.0299 30.1558 50.8745 30.1558H48.6645C48.5091 30.1558 48.3601 30.2175 48.2502 30.3274C48.1403 30.4373 48.0786 30.5863 48.0786 30.7417C48.0786 30.8972 48.1403 31.0462 48.2502 31.1561C48.3601 31.266 48.5091 31.3277 48.6645 31.3277ZM54.6326 34.4745H52.4225C52.2671 34.4745 52.1181 34.5362 52.0082 34.6461C51.8983 34.756 51.8366 34.905 51.8366 35.0604C51.8366 35.2158 51.8983 35.3649 52.0082 35.4747C52.1181 35.5846 52.2671 35.6464 52.4225 35.6464H54.6326C54.788 35.6464 54.937 35.5846 55.0469 35.4747C55.1568 35.3649 55.2185 35.2158 55.2185 35.0604C55.2185 34.905 55.1568 34.756 55.0469 34.6461C54.937 34.5362 54.788 34.4745 54.6326 34.4745ZM25.5938 27.6276H27.8038C27.9592 27.6276 28.1082 27.5659 28.2181 27.456C28.328 27.3461 28.3897 27.1971 28.3897 27.0417C28.3897 26.8863 28.328 26.7372 28.2181 26.6274C28.1082 26.5175 27.9592 26.4557 27.8038 26.4557H25.5938C25.4383 26.4557 25.2893 26.5175 25.1794 26.6274C25.0695 26.7372 25.0078 26.8863 25.0078 27.0417C25.0078 27.1971 25.0695 27.3461 25.1794 27.456C25.2893 27.5659 25.4383 27.6276 25.5938 27.6276ZM31.2332 21.7923H33.4432C33.5986 21.7923 33.7476 21.7306 33.8575 21.6207C33.9674 21.5108 34.0291 21.3618 34.0291 21.2064C34.0291 21.051 33.9674 20.9019 33.8575 20.792C33.7476 20.6822 33.5986 20.6204 33.4432 20.6204H31.2332C31.0778 20.6204 30.9288 20.6822 30.8189 20.792C30.709 20.9019 30.6473 21.051 30.6473 21.2064C30.6473 21.3618 30.709 21.5108 30.8189 21.6207C30.9288 21.7306 31.0778 21.7923 31.2332 21.7923Z" fill="black"/>
</g>
<defs>
<clipPath id="clip0_1655_6760">
<rect width="40" height="40" fill="white" transform="translate(18 18)"/>
</clipPath>
</defs>
</svg>
