<svg width="76" height="76" viewBox="0 0 76 76" fill="none" xmlns="http://www.w3.org/2000/svg">
<circle cx="38" cy="38" r="35" fill="#40637D" stroke="#EBF7FF" stroke-width="6"/>
<g clip-path="url(#clip0_1655_6780)">
<path d="M21.3346 20.6667H54.668C56.1406 20.6667 57.3346 21.8607 57.3346 23.3334V46C57.3346 47.4727 56.1406 48.6667 54.668 48.6667H21.3346C19.862 48.6667 18.668 47.4727 18.668 46V23.3334C18.668 21.8607 19.862 20.6667 21.3346 20.6667Z" fill="#E0E0DE"/>
<path d="M22 23.3333H54V46H22V23.3333Z" fill="#348FD9"/>
<path d="M29.332 46H53.9987V23.3333H51.9987L29.332 46Z" fill="#3086CD"/>
<path d="M34.6686 34.6667H34.6019C34.5039 34.6569 34.4092 34.6256 34.3247 34.5748C34.2402 34.5241 34.168 34.4553 34.1133 34.3733L33.2314 33.0495L31.8059 34.4746L30.8633 33.5319L32.8633 31.5319C32.933 31.4622 33.0174 31.4088 33.1103 31.3756C33.2031 31.3423 33.3022 31.3301 33.4004 31.3398C33.4985 31.3496 33.5932 31.381 33.6778 31.4318C33.7623 31.4826 33.8345 31.5515 33.8893 31.6335L34.7711 32.9573L37.5299 30.1986C37.655 30.0737 37.8245 30.0035 38.0013 30.0035C38.178 30.0035 38.3476 30.0737 38.4726 30.1986L39.9567 31.6826L42.8232 28.2426C42.9545 28.0976 43.1407 28.0153 43.3359 28.0153C43.5312 28.0153 43.7175 28.0977 43.8486 28.2425L46.7152 31.6826L48.1992 30.1986C48.3243 30.0736 48.4938 30.0035 48.6706 30.0035C48.8473 30.0035 49.0169 30.0736 49.1419 30.1986L49.932 30.9886L51.4688 28.9332L52.5351 29.7334L50.5351 32.4001C50.478 32.4768 50.405 32.5403 50.3212 32.5863C50.2373 32.6323 50.1445 32.6597 50.0491 32.6667C49.9538 32.675 49.8577 32.662 49.768 32.6285C49.6783 32.5951 49.5972 32.5421 49.5306 32.4733L48.6686 31.6093L47.1399 33.138C47.0753 33.2046 46.9971 33.2564 46.9106 33.29C46.8241 33.3236 46.7313 33.3381 46.6387 33.3327C46.5461 33.3283 46.4555 33.3049 46.3724 33.2638C46.2893 33.2228 46.2156 33.165 46.1559 33.0941L43.3353 29.708L40.5146 33.0941C40.4549 33.165 40.3813 33.2228 40.2982 33.2638C40.2151 33.3049 40.1244 33.3283 40.0319 33.3327C39.9393 33.3378 39.8466 33.3231 39.7602 33.2895C39.6738 33.2559 39.5955 33.2043 39.5306 33.138L38.0019 31.6093L35.1399 34.4713C35.0149 34.5963 34.8454 34.6666 34.6686 34.6667Z" fill="#7EB457"/>
<path d="M24 25.3333H25.3333V26.6666H24V25.3333ZM24 28H26.6667V29.3333H24V28ZM24 30.6666H26.6667V32H24V30.6666ZM24 33.3333H26.6667V34.6666H24V33.3333ZM24 36H26.6667V37.3333H24V36ZM24 38.6666H26.6667V40H24V38.6666ZM24 41.3333H26.6667V42.6666H24V41.3333ZM52 37.3333H31.3333C31.1565 37.3333 30.987 37.2631 30.8619 37.1381C30.7369 37.013 30.6667 36.8435 30.6667 36.6666V28H32V36H52V37.3333ZM30.6667 25.3333H34.6667V26.6666H30.6667V25.3333ZM36 25.3333H37.3333V26.6666H36V25.3333ZM30.6667 38.6666H33.3333V40H30.6667V38.6666ZM34.6667 38.6666H36V40H34.6667V38.6666ZM30.6667 41.3333H33.3333V42.6666H30.6667V41.3333ZM34.6667 41.3333H36V42.6666H34.6667V41.3333ZM38.6667 38.6666H41.3333V40H38.6667V38.6666ZM42.6667 38.6666H44V40H42.6667V38.6666ZM38.6667 41.3333H41.3333V42.6666H38.6667V41.3333ZM42.6667 41.3333H44V42.6666H42.6667V41.3333ZM46.6667 38.6666H49.3333V40H46.6667V38.6666ZM50.6667 38.6666H52V40H50.6667V38.6666ZM46.6667 41.3333H49.3333V42.6666H46.6667V41.3333ZM50.6667 41.3333H52V42.6666H50.6667V41.3333ZM28 25.3333H29.3333V44H28V25.3333Z" fill="#2A71AD"/>
<path d="M50.892 45.3513C50.7006 45.3187 50.5044 45.3283 50.3171 45.3794C50.1298 45.4304 49.9559 45.5218 49.8076 45.6471C49.6593 45.7724 49.5402 45.9285 49.4585 46.1046C49.3768 46.2807 49.3345 46.4726 49.3346 46.6667C49.3346 45.9304 48.7376 45.3334 48.0012 45.3334C47.2649 45.3334 46.6679 45.9304 46.6679 46.6667C46.6679 45.9304 46.0709 45.3334 45.3346 45.3334C44.5982 45.3334 44.0012 45.9304 44.0012 46.6667V41.4046C44.0162 40.7347 43.5487 40.1508 42.8919 40.0179C42.7005 39.9854 42.5043 39.9949 42.3171 40.0461C42.1298 40.0972 41.9559 40.1885 41.8076 40.3138C41.6593 40.4391 41.5401 40.5952 41.4585 40.7713C41.3768 40.9474 41.3345 41.1392 41.3346 41.3334V50.6667L38.5553 49C38.3854 48.8977 38.1924 48.84 37.9942 48.8323C37.7961 48.8247 37.5992 48.8672 37.4219 48.9561L37.3174 49.0088C37.1222 49.1066 36.9581 49.2568 36.8434 49.4425C36.7287 49.6283 36.6679 49.8423 36.668 50.0606C36.6678 50.248 36.7124 50.4327 36.7981 50.5993C36.8837 50.766 37.008 50.9097 37.1605 51.0186L41.3346 54H52.0013V46.7379C52.0163 46.068 51.5488 45.4841 50.892 45.3513Z" fill="#FEC9A3"/>
<path d="M54.6667 20H21.3333C19.4932 20.0023 18.0023 21.4932 18 23.3333V46C18.0023 47.8402 19.4932 49.3311 21.3333 49.3333H34.6667V48H21.3333C20.2288 48 19.3333 47.1045 19.3333 46V23.3333C19.3333 22.2288 20.2288 21.3333 21.3333 21.3333H54.6667C55.7712 21.3333 56.6667 22.2288 56.6667 23.3333V46C56.6667 47.1045 55.7712 48 54.6667 48H54V49.3333H54.6667C56.5068 49.3311 57.9977 47.8402 58 46V23.3333C57.9977 21.4932 56.5068 20.0023 54.6667 20Z" fill="black"/>
<path d="M54.6654 44.6667V23.3334C54.6654 23.1565 54.5951 22.987 54.4701 22.8619C54.3451 22.7369 54.1755 22.6667 53.9987 22.6667H21.9987C21.8219 22.6667 21.6523 22.7369 21.5273 22.8619C21.4023 22.987 21.332 23.1565 21.332 23.3334V46C21.332 46.1768 21.4023 46.3464 21.5273 46.4714C21.6523 46.5965 21.8219 46.6667 21.9987 46.6667H39.332V45.3334H22.6654V24H53.332V44.6667H54.6654Z" fill="black"/>
<path d="M24 25.3333H25.3333V26.6666H24V25.3333ZM24 28H26.6667V29.3333H24V28ZM24 30.6666H26.6667V32H24V30.6666ZM24 33.3333H26.6667V34.6666H24V33.3333ZM24 36H26.6667V37.3333H24V36ZM24 38.6666H26.6667V40H24V38.6666ZM24 41.3333H26.6667V42.6666H24V41.3333ZM52 36H32V34.276L33.2302 33.0459L34.112 34.3701C34.1663 34.4525 34.2383 34.5219 34.3226 34.5732C34.407 34.6244 34.5017 34.6564 34.5999 34.6666H34.6667C34.8435 34.6666 35.013 34.5963 35.138 34.4713L38 31.6093L39.5287 33.138C39.5935 33.2043 39.6718 33.2559 39.7583 33.2895C39.8447 33.3231 39.9373 33.3378 40.0299 33.3326C40.1225 33.3283 40.2132 33.3049 40.2962 33.2638C40.3793 33.2228 40.453 33.165 40.5127 33.0941L43.3333 29.708L46.154 33.0941C46.2137 33.165 46.2874 33.2228 46.3704 33.2638C46.4535 33.3049 46.5442 33.3283 46.6367 33.3326C46.7294 33.3381 46.8221 33.3236 46.9086 33.29C46.9951 33.2564 47.0734 33.2046 47.138 33.138L48.6667 31.6093L49.5287 32.4713C49.5953 32.5401 49.6764 32.5931 49.7661 32.6265C49.8558 32.66 49.9518 32.673 50.0472 32.6646C50.1425 32.6576 50.2353 32.6301 50.3191 32.5841C50.403 32.5381 50.476 32.4747 50.5332 32.3981L52.5332 29.7314L51.4668 28.9313L49.9281 30.9834L49.1381 30.1934C49.0762 30.1315 49.0027 30.0823 48.9218 30.0488C48.841 30.0153 48.7543 29.9981 48.6667 29.9981C48.5792 29.9981 48.4925 30.0153 48.4116 30.0488C48.3307 30.0823 48.2572 30.1315 48.1953 30.1934L46.7113 31.6774L43.8447 28.2373C43.7799 28.1657 43.7008 28.1084 43.6125 28.0692C43.5242 28.0301 43.4286 28.0098 43.332 28.0098C43.2354 28.0098 43.1399 28.0301 43.0516 28.0693C42.9633 28.1084 42.8842 28.1657 42.8193 28.2373L39.9528 31.6773L38.4688 30.1933C38.4069 30.1314 38.3334 30.0823 38.2525 30.0488C38.1716 30.0153 38.085 29.998 37.9974 29.998C37.9099 29.998 37.8232 30.0153 37.7423 30.0488C37.6614 30.0823 37.588 30.1314 37.5261 30.1933L34.7673 32.9521L33.8854 31.628C33.8306 31.546 33.7584 31.4772 33.6738 31.4265C33.5892 31.3758 33.4945 31.3444 33.3964 31.3348C33.2983 31.3251 33.1992 31.3372 33.1064 31.3704C33.0135 31.4036 32.9292 31.457 32.8594 31.5266L32 32.3906V28H30.6667V36.6666C30.6667 36.8435 30.7369 37.013 30.8619 37.1381C30.987 37.2631 31.1565 37.3333 31.3333 37.3333H52V36ZM30.6667 25.3333H34.6667V26.6666H30.6667V25.3333ZM36 25.3333H37.3333V26.6666H36V25.3333ZM30.6667 38.6666H33.3333V40H30.6667V38.6666ZM34.6667 38.6666H36V40H34.6667V38.6666ZM30.6667 41.3333H33.3333V42.6666H30.6667V41.3333ZM34.6667 41.3333H36V42.6666H34.6667V41.3333ZM38.6667 38.6666H40V40H38.6667V38.6666ZM46.6667 38.6666H49.3333V40H46.6667V38.6666ZM50.6667 38.6666H52V40H50.6667V38.6666ZM46.6667 41.3333H49.3333V42.6666H46.6667V41.3333ZM50.6667 41.3333H52V42.6666H50.6667V41.3333Z" fill="black"/>
<path d="M51 44.6933C50.7126 44.6456 50.4183 44.6611 50.1375 44.7387C49.8567 44.8162 49.5962 44.954 49.374 45.1425C49.3607 45.1533 49.348 45.1647 49.3347 45.1767C48.5762 44.4957 47.4264 44.4957 46.668 45.1767C46.3968 44.9444 46.0703 44.7858 45.72 44.7163C45.3697 44.6467 45.0074 44.6687 44.668 44.7799V41.4046C44.6807 40.4096 43.9785 39.5485 43.0013 39.36C42.7144 39.3112 42.4202 39.3257 42.1394 39.4025C41.8586 39.4792 41.5979 39.6164 41.3757 39.8043C41.1533 39.9922 40.9747 40.2264 40.8522 40.4905C40.7297 40.7546 40.6664 41.0422 40.6667 41.3333V49.4892L38.8975 48.4281C38.6318 48.2675 38.3296 48.1771 38.0194 48.1654C37.7091 48.1537 37.401 48.2212 37.124 48.3613L37.0186 48.4134C36.7344 48.5557 36.4918 48.7691 36.3143 49.0328C36.1369 49.2966 36.0306 49.6017 36.0058 49.9186C35.9811 50.2355 36.0386 50.5535 36.1728 50.8417C36.3071 51.1299 36.5136 51.3785 36.7722 51.5635L40.946 54.5439C41.0592 54.6241 41.1946 54.6671 41.3333 54.6666H52C52.1768 54.6666 52.3464 54.5964 52.4714 54.4714C52.5964 54.3464 52.6667 54.1768 52.6667 54V46.7379C52.679 45.7429 51.9773 44.8818 51 44.6933ZM51.3333 53.3333H41.5466L37.5466 50.4766C37.4748 50.4255 37.4174 50.3568 37.38 50.277C37.3426 50.1973 37.3265 50.1092 37.3332 50.0213C37.3399 49.9335 37.3692 49.8489 37.4183 49.7757C37.4674 49.7026 37.5345 49.6433 37.6132 49.6038L37.7181 49.5521C37.7946 49.5132 37.8797 49.4945 37.9655 49.4977C38.0512 49.501 38.1347 49.5261 38.2081 49.5706L40.9872 51.2373C41.0884 51.2987 41.2041 51.3321 41.3224 51.334C41.4407 51.336 41.5574 51.3064 41.6605 51.2483C41.7636 51.1902 41.8494 51.1057 41.909 51.0035C41.9687 50.9013 42.0001 50.785 42 50.6666V41.3333C42 41.2365 42.021 41.1409 42.0617 41.053C42.1023 40.9652 42.1616 40.8872 42.2353 40.8246C42.3099 40.7607 42.3978 40.7143 42.4925 40.6888C42.5873 40.6632 42.6866 40.6591 42.7832 40.6767C42.9447 40.7161 43.0876 40.8101 43.1878 40.9427C43.2881 41.0753 43.3395 41.2384 43.3333 41.4046V46.6666C43.3333 46.8435 43.4036 47.013 43.5286 47.1381C43.6536 47.2631 43.8232 47.3333 44 47.3333C44.1768 47.3333 44.3464 47.2631 44.4714 47.1381C44.5964 47.013 44.6667 46.8435 44.6667 46.6666C44.6667 46.4898 44.7369 46.3203 44.8619 46.1952C44.987 46.0702 45.1565 46 45.3333 46C45.5101 46 45.6797 46.0702 45.8047 46.1952C45.9298 46.3203 46 46.4898 46 46.6666C46 46.8435 46.0702 47.013 46.1953 47.1381C46.3203 47.2631 46.4899 47.3333 46.6667 47.3333C46.8435 47.3333 47.013 47.2631 47.1381 47.1381C47.2631 47.013 47.3333 46.8435 47.3333 46.6666C47.3333 46.4898 47.4036 46.3203 47.5286 46.1952C47.6536 46.0702 47.8232 46 48 46C48.1768 46 48.3464 46.0702 48.4714 46.1952C48.5964 46.3203 48.6667 46.4898 48.6667 46.6666C48.6667 46.8435 48.7369 47.013 48.8619 47.1381C48.987 47.2631 49.1565 47.3333 49.3333 47.3333C49.5101 47.3333 49.6797 47.2631 49.8047 47.1381C49.9298 47.013 50 46.8435 50 46.6666C49.9999 46.5692 50.0212 46.4729 50.0623 46.3846C50.1035 46.2962 50.1635 46.218 50.2382 46.1554C50.3129 46.0928 50.4004 46.0473 50.4946 46.0222C50.5887 45.9971 50.6872 45.993 50.7832 46.0101C50.9447 46.0495 51.0876 46.1434 51.1878 46.276C51.2881 46.4086 51.3395 46.5718 51.3333 46.7379V53.3333ZM28 25.3333H29.3333V44H28V25.3333Z" fill="black"/>
</g>
<defs>
<clipPath id="clip0_1655_6780">
<rect width="40" height="35" fill="white" transform="translate(18 20)"/>
</clipPath>
</defs>
</svg>
