<svg width="488" height="274" viewBox="0 0 488 274" fill="none" xmlns="http://www.w3.org/2000/svg">
<path d="M33.9883 158H29.2891V149.527C29.2891 149.371 29.2891 149.086 29.2891 148.672C29.2891 148.25 29.293 147.785 29.3008 147.277C29.3164 146.77 29.3359 146.312 29.3594 145.906C29.1562 146.148 28.9648 146.355 28.7852 146.527C28.6133 146.699 28.4453 146.859 28.2812 147.008L26.3359 148.613L23.9336 145.66L29.8164 140.867H33.9883V158ZM44.0898 140.621C45.2227 140.621 46.2148 140.773 47.0664 141.078C47.9258 141.383 48.5977 141.848 49.082 142.473C49.5664 143.09 49.8086 143.867 49.8086 144.805C49.8086 145.492 49.6797 146.098 49.4219 146.621C49.1719 147.137 48.8242 147.59 48.3789 147.98C47.9414 148.363 47.4336 148.695 46.8555 148.977C47.3945 149.281 47.9297 149.637 48.4609 150.043C48.9922 150.449 49.4336 150.93 49.7852 151.484C50.1367 152.031 50.3125 152.684 50.3125 153.441C50.3125 154.355 50.0898 155.176 49.6445 155.902C49.1992 156.621 48.5156 157.191 47.5938 157.613C46.6719 158.027 45.4883 158.234 44.043 158.234C42.5977 158.234 41.4141 158.035 40.4922 157.637C39.5703 157.238 38.8906 156.684 38.4531 155.973C38.0234 155.254 37.8086 154.426 37.8086 153.488C37.8086 152.691 37.9414 152.02 38.207 151.473C38.4805 150.926 38.8516 150.461 39.3203 150.078C39.7891 149.695 40.3242 149.352 40.9258 149.047C40.4492 148.727 40.0117 148.363 39.6133 147.957C39.2148 147.551 38.8984 147.086 38.6641 146.562C38.4297 146.039 38.3125 145.445 38.3125 144.781C38.3125 143.859 38.5586 143.09 39.0508 142.473C39.543 141.855 40.2227 141.395 41.0898 141.09C41.9648 140.777 42.9648 140.621 44.0898 140.621ZM42.0508 153.301C42.0508 153.777 42.2227 154.164 42.5664 154.461C42.9102 154.758 43.3867 154.906 43.9961 154.906C44.707 154.906 45.2266 154.773 45.5547 154.508C45.8906 154.234 46.0586 153.863 46.0586 153.395C46.0586 153.043 45.9531 152.727 45.7422 152.445C45.5391 152.156 45.3008 151.906 45.0273 151.695C44.7539 151.484 44.5156 151.32 44.3125 151.203L43.9961 151.016C43.6445 151.195 43.3203 151.398 43.0234 151.625C42.7344 151.844 42.5 152.094 42.3203 152.375C42.1406 152.648 42.0508 152.957 42.0508 153.301ZM44.0664 143.961C43.6836 143.961 43.3516 144.074 43.0703 144.301C42.7891 144.52 42.6484 144.82 42.6484 145.203C42.6484 145.453 42.707 145.688 42.8242 145.906C42.9492 146.117 43.1133 146.312 43.3164 146.492C43.5273 146.672 43.7617 146.836 44.0195 146.984C44.2461 146.852 44.4688 146.707 44.6875 146.551C44.9062 146.395 45.0898 146.207 45.2383 145.988C45.3867 145.77 45.4609 145.508 45.4609 145.203C45.4609 144.82 45.3203 144.52 45.0391 144.301C44.7656 144.074 44.4414 143.961 44.0664 143.961ZM55.8789 140.621C57.2227 140.621 58.3008 141.09 59.1133 142.027C59.9336 142.965 60.3438 144.281 60.3438 145.977C60.3438 147.672 59.9609 148.996 59.1953 149.949C58.4297 150.902 57.3242 151.379 55.8789 151.379C54.5664 151.379 53.5078 150.902 52.7031 149.949C51.9062 148.996 51.5078 147.672 51.5078 145.977C51.5078 144.281 51.8828 142.965 52.6328 142.027C53.3906 141.09 54.4727 140.621 55.8789 140.621ZM55.9258 143.48C55.5898 143.48 55.3555 143.711 55.2227 144.172C55.0977 144.625 55.0352 145.242 55.0352 146.023C55.0352 146.789 55.0977 147.406 55.2227 147.875C55.3555 148.336 55.5898 148.566 55.9258 148.566C56.2617 148.566 56.4922 148.34 56.6172 147.887C56.7422 147.426 56.8047 146.805 56.8047 146.023C56.8047 145.242 56.7422 144.625 56.6172 144.172C56.4922 143.711 56.2617 143.48 55.9258 143.48ZM68.8867 140.867L59.3828 158H55.9023L65.4062 140.867H68.8867ZM68.9102 147.441C70.2539 147.441 71.332 147.91 72.1445 148.848C72.9648 149.785 73.375 151.102 73.375 152.797C73.375 154.484 72.9922 155.805 72.2266 156.758C71.4609 157.711 70.3555 158.188 68.9102 158.188C67.5977 158.188 66.5391 157.711 65.7344 156.758C64.9375 155.805 64.5391 154.484 64.5391 152.797C64.5391 151.102 64.9141 149.785 65.6641 148.848C66.4219 147.91 67.5039 147.441 68.9102 147.441ZM68.957 150.301C68.6211 150.301 68.3867 150.531 68.2539 150.992C68.1289 151.445 68.0664 152.062 68.0664 152.844C68.0664 153.609 68.1289 154.227 68.2539 154.695C68.3867 155.156 68.6211 155.387 68.957 155.387C69.293 155.387 69.5234 155.16 69.6484 154.707C69.7812 154.246 69.8477 153.625 69.8477 152.844C69.8477 152.031 69.7812 151.406 69.6484 150.969C69.5234 150.523 69.293 150.301 68.957 150.301ZM81.4609 139.766L81.0156 144.418L85.6445 143.07L85.9492 145.121L81.5195 145.578L84.3789 149.387L82.4805 150.43L80.3594 146.258L78.4141 150.43L76.4453 149.387L79.2812 145.578L74.875 145.121L75.2031 143.07L79.7617 144.418L79.3047 139.766H81.4609Z" fill="#2E4B67"/>
<rect y="165" width="110" height="109" rx="5" fill="#FCF6E7"/>
<path d="M58.0977 248.209C58.7949 248.209 59.457 248.385 60.084 248.736C60.7051 249.088 61.209 249.636 61.5957 250.38C61.9824 251.118 62.1758 252.073 62.1758 253.245C62.1758 253.831 62.1494 254.347 62.0967 254.792C62.0439 255.231 61.959 255.642 61.8418 256.022C61.7187 256.403 61.5605 256.799 61.3672 257.209L58.2734 257.209C58.625 256.512 58.8945 255.809 59.082 255.1C59.2637 254.391 59.3545 253.749 59.3545 253.175C59.3545 252.829 59.3135 252.548 59.2314 252.331C59.1494 252.108 59.0381 251.944 58.8975 251.839C58.751 251.733 58.584 251.681 58.3965 251.681C58.1738 251.681 57.9863 251.76 57.834 251.918C57.6758 252.07 57.5117 252.316 57.3418 252.656C57.1719 252.996 56.9609 253.444 56.709 254.001C56.4863 254.476 56.2578 254.906 56.0234 255.293C55.7891 255.674 55.5225 256.002 55.2236 256.277C54.9189 256.547 54.5645 256.755 54.1602 256.901C53.7559 257.048 53.2783 257.121 52.7275 257.121C51.9014 257.121 51.21 256.919 50.6533 256.515C50.0908 256.104 49.6689 255.536 49.3877 254.81C49.1064 254.077 48.9658 253.233 48.9658 252.278C48.9658 251.44 49.0596 250.687 49.2471 250.02C49.4346 249.346 49.6484 248.742 49.8887 248.209L52.5693 249.272C52.3174 249.823 52.1182 250.365 51.9717 250.898C51.8193 251.432 51.7432 251.927 51.7432 252.384C51.7432 252.683 51.7812 252.929 51.8574 253.122C51.9277 253.31 52.0244 253.45 52.1475 253.544C52.2705 253.632 52.4111 253.676 52.5693 253.676C52.7686 253.676 52.9473 253.6 53.1055 253.447C53.2637 253.289 53.4365 253.028 53.624 252.665C53.8057 252.296 54.043 251.795 54.3359 251.162C54.6172 250.535 54.9219 250.002 55.25 249.562C55.5723 249.123 55.9619 248.789 56.4189 248.561C56.8701 248.326 57.4297 248.209 58.0977 248.209ZM62 240.554L62 244.025L51.9893 244.025L51.9893 247.163L49.1504 247.163L49.1504 237.425L51.9893 237.425L51.9893 240.554L62 240.554ZM62 227.704L59.5918 228.337L59.5918 232.512L62 233.162L62 236.977L49.0977 232.784L49.0977 228.152L62 223.907L62 227.704ZM56.7441 229.058L54.6348 229.611C54.4062 229.67 54.0811 229.755 53.6592 229.866C53.2314 229.978 52.792 230.089 52.3408 230.2C51.8838 230.306 51.5088 230.388 51.2158 230.446C51.5088 230.499 51.8721 230.575 52.3057 230.675C52.7334 230.769 53.1582 230.868 53.5801 230.974C54.002 231.073 54.3535 231.161 54.6348 231.237L56.7441 231.791L56.7441 229.058ZM49.1504 218.3C49.1504 217.134 49.2939 216.164 49.5811 215.391C49.8623 214.617 50.2842 214.037 50.8467 213.65C51.4092 213.258 52.1094 213.062 52.9473 213.062C53.4687 213.062 53.9434 213.149 54.3711 213.325C54.7988 213.501 55.1826 213.753 55.5225 214.081C55.8564 214.403 56.1494 214.79 56.4014 215.241L62 211.497L62 215.435L57.3242 218.159L57.3242 219.038L62 219.038L62 222.51L49.1504 222.51L49.1504 218.3ZM51.7783 218.353L51.7783 219.038L54.7139 219.038L54.7139 218.388C54.7139 217.854 54.5967 217.418 54.3623 217.078C54.1279 216.738 53.709 216.568 53.1055 216.568C52.6895 216.568 52.3643 216.709 52.1299 216.99C51.8955 217.271 51.7783 217.726 51.7783 218.353ZM62 204.659L62 208.131L51.9893 208.131L51.9893 211.269L49.1504 211.269L49.1504 201.53L51.9893 201.53L51.9893 204.659L62 204.659ZM54.4766 194.64L54.4766 191.361L56.832 191.361L56.832 194.64L60.0049 194.64L60.0049 196.995L56.832 196.995L56.832 200.273L54.4766 200.273L54.4766 196.995L51.251 196.995L51.251 194.64L54.4766 194.64Z" fill="#26374C"/>
<path d="M162.098 132H149.664V128.953L153.848 124.723C154.715 123.816 155.387 123.09 155.863 122.543C156.348 121.996 156.688 121.531 156.883 121.148C157.078 120.766 157.176 120.367 157.176 119.953C157.176 119.445 157.012 119.078 156.684 118.852C156.355 118.625 155.969 118.512 155.523 118.512C154.984 118.512 154.438 118.668 153.883 118.98C153.336 119.285 152.715 119.738 152.02 120.34L149.477 117.363C149.992 116.902 150.539 116.465 151.117 116.051C151.695 115.629 152.379 115.285 153.168 115.02C153.957 114.754 154.918 114.621 156.051 114.621C157.215 114.621 158.223 114.824 159.074 115.23C159.934 115.637 160.598 116.195 161.066 116.906C161.535 117.609 161.77 118.41 161.77 119.309C161.77 120.301 161.586 121.188 161.219 121.969C160.859 122.742 160.316 123.52 159.59 124.301C158.863 125.074 157.957 125.953 156.871 126.938L155.617 128.062V128.18H162.098V132ZM176.711 128.684H174.824V132H170.254V128.684H163.422V125.285L170.547 114.867H174.824V125.227H176.711V128.684ZM170.254 125.227V123.234C170.254 123.055 170.258 122.828 170.266 122.555C170.273 122.281 170.281 122.008 170.289 121.734C170.305 121.453 170.316 121.219 170.324 121.031C170.34 120.836 170.352 120.73 170.359 120.715H170.23C170.082 121.066 169.945 121.359 169.82 121.594C169.695 121.82 169.531 122.09 169.328 122.402L167.43 125.227H170.254ZM181.879 114.621C183.223 114.621 184.301 115.09 185.113 116.027C185.934 116.965 186.344 118.281 186.344 119.977C186.344 121.672 185.961 122.996 185.195 123.949C184.43 124.902 183.324 125.379 181.879 125.379C180.566 125.379 179.508 124.902 178.703 123.949C177.906 122.996 177.508 121.672 177.508 119.977C177.508 118.281 177.883 116.965 178.633 116.027C179.391 115.09 180.473 114.621 181.879 114.621ZM181.926 117.48C181.59 117.48 181.355 117.711 181.223 118.172C181.098 118.625 181.035 119.242 181.035 120.023C181.035 120.789 181.098 121.406 181.223 121.875C181.355 122.336 181.59 122.566 181.926 122.566C182.262 122.566 182.492 122.34 182.617 121.887C182.742 121.426 182.805 120.805 182.805 120.023C182.805 119.242 182.742 118.625 182.617 118.172C182.492 117.711 182.262 117.48 181.926 117.48ZM194.887 114.867L185.383 132H181.902L191.406 114.867H194.887ZM194.91 121.441C196.254 121.441 197.332 121.91 198.145 122.848C198.965 123.785 199.375 125.102 199.375 126.797C199.375 128.484 198.992 129.805 198.227 130.758C197.461 131.711 196.355 132.188 194.91 132.188C193.598 132.188 192.539 131.711 191.734 130.758C190.938 129.805 190.539 128.484 190.539 126.797C190.539 125.102 190.914 123.785 191.664 122.848C192.422 121.91 193.504 121.441 194.91 121.441ZM194.957 124.301C194.621 124.301 194.387 124.531 194.254 124.992C194.129 125.445 194.066 126.062 194.066 126.844C194.066 127.609 194.129 128.227 194.254 128.695C194.387 129.156 194.621 129.387 194.957 129.387C195.293 129.387 195.523 129.16 195.648 128.707C195.781 128.246 195.848 127.625 195.848 126.844C195.848 126.031 195.781 125.406 195.648 124.969C195.523 124.523 195.293 124.301 194.957 124.301ZM207.461 113.766L207.016 118.418L211.645 117.07L211.949 119.121L207.52 119.578L210.379 123.387L208.48 124.43L206.359 120.258L204.414 124.43L202.445 123.387L205.281 119.578L200.875 119.121L201.203 117.07L205.762 118.418L205.305 113.766H207.461Z" fill="#2E4B67"/>
<rect x="126" y="139" width="110" height="135" rx="5" fill="#FFEAB5"/>
<path d="M175.15 252.164C175.15 250.535 175.505 249.316 176.214 248.508C176.923 247.693 177.931 247.286 179.237 247.286C179.823 247.286 180.386 247.371 180.925 247.541C181.464 247.705 181.944 247.978 182.366 248.358C182.788 248.733 183.122 249.234 183.368 249.861C183.614 250.482 183.737 251.25 183.737 252.164L183.737 253.14L188 253.14L188 256.611L175.15 256.611L175.15 252.164ZM177.954 252.243L177.954 253.14L180.907 253.14L180.907 252.454C180.907 252.155 180.857 251.877 180.758 251.619C180.652 251.361 180.485 251.156 180.257 251.004C180.022 250.846 179.712 250.767 179.325 250.767C178.921 250.767 178.593 250.887 178.341 251.127C178.083 251.367 177.954 251.739 177.954 252.243ZM175.15 241.028C175.15 239.862 175.294 238.893 175.581 238.119C175.862 237.346 176.284 236.766 176.847 236.379C177.409 235.986 178.109 235.79 178.947 235.79C179.469 235.79 179.943 235.878 180.371 236.054C180.799 236.229 181.183 236.481 181.522 236.81C181.856 237.132 182.149 237.519 182.401 237.97L188 234.226L188 238.163L183.324 240.888L183.324 241.767L188 241.767L188 245.238L175.15 245.238L175.15 241.028ZM177.778 241.081L177.778 241.767L180.714 241.767L180.714 241.116C180.714 240.583 180.597 240.146 180.362 239.807C180.128 239.467 179.709 239.297 179.105 239.297C178.689 239.297 178.364 239.437 178.13 239.719C177.896 240 177.778 240.454 177.778 241.081ZM181.558 221.033C182.548 221.033 183.45 221.153 184.265 221.394C185.073 221.628 185.771 221.997 186.356 222.501C186.942 223.005 187.394 223.652 187.71 224.443C188.021 225.234 188.176 226.181 188.176 227.282C188.176 228.36 188.021 229.295 187.71 230.086C187.394 230.871 186.945 231.519 186.365 232.028C185.779 232.538 185.079 232.916 184.265 233.162C183.45 233.408 182.542 233.531 181.54 233.531C180.204 233.531 179.044 233.312 178.06 232.872C177.069 232.427 176.305 231.741 175.766 230.815C175.221 229.89 174.948 228.706 174.948 227.265C174.948 225.8 175.221 224.61 175.766 223.696C176.311 222.776 177.078 222.103 178.068 221.675C179.059 221.247 180.222 221.033 181.558 221.033ZM181.558 229.875C182.331 229.875 182.996 229.787 183.553 229.611C184.109 229.436 184.537 229.157 184.836 228.776C185.135 228.396 185.284 227.897 185.284 227.282C185.284 226.644 185.135 226.137 184.836 225.762C184.537 225.381 184.109 225.108 183.553 224.944C182.996 224.774 182.331 224.689 181.558 224.689C180.397 224.689 179.48 224.883 178.807 225.27C178.133 225.656 177.796 226.321 177.796 227.265C177.796 227.892 177.948 228.398 178.253 228.785C178.558 229.166 178.991 229.444 179.554 229.62C180.116 229.79 180.784 229.875 181.558 229.875Z" fill="#26374C"/>
<path d="M287.523 68.582C287.523 69.3945 287.348 70.0977 286.996 70.6914C286.652 71.2773 286.191 71.7578 285.613 72.1328C285.043 72.5078 284.418 72.7891 283.738 72.9766V73.0469C285.105 73.2188 286.16 73.6367 286.902 74.3008C287.652 74.957 288.027 75.8906 288.027 77.1016C288.027 78.0391 287.777 78.8984 287.277 79.6797C286.777 80.4531 286 81.0742 284.945 81.543C283.891 82.0039 282.535 82.2344 280.879 82.2344C279.77 82.2344 278.824 82.1523 278.043 81.9883C277.262 81.8242 276.504 81.5977 275.77 81.3086V77.4648C276.512 77.8477 277.273 78.1328 278.055 78.3203C278.844 78.5 279.562 78.5898 280.211 78.5898C281.336 78.5898 282.102 78.4297 282.508 78.1094C282.922 77.7891 283.129 77.3594 283.129 76.8203C283.129 76.4297 283.031 76.0977 282.836 75.8242C282.641 75.5508 282.277 75.3398 281.746 75.1914C281.223 75.043 280.469 74.9688 279.484 74.9688H278.43V71.4883H279.508C280.383 71.4883 281.074 71.4102 281.582 71.2539C282.098 71.0977 282.469 70.8867 282.695 70.6211C282.922 70.3477 283.035 70.0352 283.035 69.6836C283.035 69.2305 282.859 68.8945 282.508 68.6758C282.156 68.457 281.691 68.3477 281.113 68.3477C280.598 68.3477 280.113 68.418 279.66 68.5586C279.207 68.6992 278.812 68.8555 278.477 69.0273C278.141 69.1992 277.887 69.3398 277.715 69.4492L275.793 66.3555C276.504 65.8711 277.316 65.4609 278.23 65.125C279.152 64.7891 280.355 64.6211 281.84 64.6211C283.605 64.6211 284.992 64.9727 286 65.6758C287.016 66.3789 287.523 67.3477 287.523 68.582ZM289.832 74.7578C289.832 73.7734 289.902 72.7969 290.043 71.8281C290.184 70.8516 290.438 69.9336 290.805 69.0742C291.172 68.207 291.691 67.4414 292.363 66.7773C293.035 66.1055 293.898 65.5781 294.953 65.1953C296.008 64.8125 297.293 64.6211 298.809 64.6211C299.145 64.6211 299.555 64.6406 300.039 64.6797C300.523 64.7188 300.926 64.7656 301.246 64.8203V68.4414C300.926 68.3789 300.566 68.3281 300.168 68.2891C299.77 68.2422 299.281 68.2188 298.703 68.2188C297.547 68.2188 296.633 68.3945 295.961 68.7461C295.297 69.0898 294.816 69.5859 294.52 70.2344C294.223 70.8828 294.051 71.6602 294.004 72.5664H294.145C294.348 72.1914 294.594 71.8555 294.883 71.5586C295.18 71.2539 295.543 71.0156 295.973 70.8438C296.402 70.6641 296.922 70.5742 297.531 70.5742C298.531 70.5742 299.391 70.793 300.109 71.2305C300.828 71.6602 301.379 72.2891 301.762 73.1172C302.145 73.9453 302.336 74.9531 302.336 76.1406C302.336 77.4219 302.09 78.5195 301.598 79.4336C301.113 80.3398 300.418 81.0352 299.512 81.5195C298.613 81.9961 297.539 82.2344 296.289 82.2344C295.367 82.2344 294.512 82.0859 293.723 81.7891C292.941 81.4922 292.258 81.0391 291.672 80.4297C291.094 79.8125 290.641 79.0352 290.312 78.0977C289.992 77.1523 289.832 76.0391 289.832 74.7578ZM296.184 78.5664C296.676 78.5664 297.074 78.3789 297.379 78.0039C297.691 77.6289 297.848 77.0391 297.848 76.2344C297.848 75.5859 297.719 75.0781 297.461 74.7109C297.211 74.3359 296.801 74.1484 296.23 74.1484C295.848 74.1484 295.523 74.2422 295.258 74.4297C294.992 74.6094 294.789 74.8398 294.648 75.1211C294.508 75.4023 294.438 75.6953 294.438 76C294.438 76.3047 294.469 76.6094 294.531 76.9141C294.602 77.2188 294.707 77.4961 294.848 77.7461C294.996 77.9883 295.18 78.1875 295.398 78.3438C295.617 78.4922 295.879 78.5664 296.184 78.5664ZM307.879 64.6211C309.223 64.6211 310.301 65.0898 311.113 66.0273C311.934 66.9648 312.344 68.2812 312.344 69.9766C312.344 71.6719 311.961 72.9961 311.195 73.9492C310.43 74.9023 309.324 75.3789 307.879 75.3789C306.566 75.3789 305.508 74.9023 304.703 73.9492C303.906 72.9961 303.508 71.6719 303.508 69.9766C303.508 68.2812 303.883 66.9648 304.633 66.0273C305.391 65.0898 306.473 64.6211 307.879 64.6211ZM307.926 67.4805C307.59 67.4805 307.355 67.7109 307.223 68.1719C307.098 68.625 307.035 69.2422 307.035 70.0234C307.035 70.7891 307.098 71.4062 307.223 71.875C307.355 72.3359 307.59 72.5664 307.926 72.5664C308.262 72.5664 308.492 72.3398 308.617 71.8867C308.742 71.4258 308.805 70.8047 308.805 70.0234C308.805 69.2422 308.742 68.625 308.617 68.1719C308.492 67.7109 308.262 67.4805 307.926 67.4805ZM320.887 64.8672L311.383 82H307.902L317.406 64.8672H320.887ZM320.91 71.4414C322.254 71.4414 323.332 71.9102 324.145 72.8477C324.965 73.7852 325.375 75.1016 325.375 76.7969C325.375 78.4844 324.992 79.8047 324.227 80.7578C323.461 81.7109 322.355 82.1875 320.91 82.1875C319.598 82.1875 318.539 81.7109 317.734 80.7578C316.938 79.8047 316.539 78.4844 316.539 76.7969C316.539 75.1016 316.914 73.7852 317.664 72.8477C318.422 71.9102 319.504 71.4414 320.91 71.4414ZM320.957 74.3008C320.621 74.3008 320.387 74.5312 320.254 74.9922C320.129 75.4453 320.066 76.0625 320.066 76.8438C320.066 77.6094 320.129 78.2266 320.254 78.6953C320.387 79.1562 320.621 79.3867 320.957 79.3867C321.293 79.3867 321.523 79.1602 321.648 78.707C321.781 78.2461 321.848 77.625 321.848 76.8438C321.848 76.0312 321.781 75.4062 321.648 74.9688C321.523 74.5234 321.293 74.3008 320.957 74.3008ZM333.461 63.7656L333.016 68.418L337.645 67.0703L337.949 69.1211L333.52 69.5781L336.379 73.3867L334.48 74.4297L332.359 70.2578L330.414 74.4297L328.445 73.3867L331.281 69.5781L326.875 69.1211L327.203 67.0703L331.762 68.418L331.305 63.7656H333.461Z" fill="#2E4B67"/>
<rect x="252" y="89" width="110" height="185" rx="5" fill="#FFE0E6"/>
<path d="M301.15 252.164C301.15 250.535 301.505 249.316 302.214 248.508C302.923 247.693 303.931 247.286 305.237 247.286C305.823 247.286 306.386 247.371 306.925 247.541C307.464 247.705 307.944 247.978 308.366 248.358C308.788 248.733 309.122 249.234 309.368 249.861C309.614 250.482 309.737 251.25 309.737 252.164L309.737 253.14L314 253.14L314 256.611L301.15 256.611L301.15 252.164ZM303.954 252.243L303.954 253.14L306.907 253.14L306.907 252.454C306.907 252.155 306.857 251.877 306.758 251.619C306.652 251.361 306.485 251.156 306.257 251.004C306.022 250.846 305.712 250.767 305.325 250.767C304.921 250.767 304.593 250.887 304.341 251.127C304.083 251.367 303.954 251.739 303.954 252.243ZM301.15 241.028C301.15 239.862 301.294 238.893 301.581 238.119C301.862 237.346 302.284 236.766 302.847 236.379C303.409 235.986 304.109 235.79 304.947 235.79C305.469 235.79 305.943 235.878 306.371 236.054C306.799 236.229 307.183 236.481 307.522 236.81C307.856 237.132 308.149 237.519 308.401 237.97L314 234.226L314 238.163L309.324 240.888L309.324 241.767L314 241.767L314 245.238L301.15 245.238L301.15 241.028ZM303.778 241.081L303.778 241.767L306.714 241.767L306.714 241.116C306.714 240.583 306.597 240.146 306.362 239.807C306.128 239.467 305.709 239.297 305.105 239.297C304.689 239.297 304.364 239.437 304.13 239.719C303.896 240 303.778 240.454 303.778 241.081ZM307.558 221.033C308.548 221.033 309.45 221.153 310.265 221.394C311.073 221.628 311.771 221.997 312.356 222.501C312.942 223.005 313.394 223.652 313.71 224.443C314.021 225.234 314.176 226.181 314.176 227.282C314.176 228.36 314.021 229.295 313.71 230.086C313.394 230.871 312.945 231.519 312.365 232.028C311.779 232.538 311.079 232.916 310.265 233.162C309.45 233.408 308.542 233.531 307.54 233.531C306.204 233.531 305.044 233.312 304.06 232.872C303.069 232.427 302.305 231.741 301.766 230.815C301.221 229.89 300.948 228.706 300.948 227.265C300.948 225.8 301.221 224.61 301.766 223.696C302.311 222.776 303.078 222.103 304.068 221.675C305.059 221.247 306.222 221.033 307.558 221.033ZM307.558 229.875C308.331 229.875 308.996 229.787 309.553 229.611C310.109 229.436 310.537 229.157 310.836 228.776C311.135 228.396 311.284 227.897 311.284 227.282C311.284 226.644 311.135 226.137 310.836 225.762C310.537 225.381 310.109 225.108 309.553 224.944C308.996 224.774 308.331 224.689 307.558 224.689C306.397 224.689 305.48 224.883 304.807 225.27C304.133 225.656 303.796 226.321 303.796 227.265C303.796 227.892 303.948 228.398 304.253 228.785C304.558 229.166 304.991 229.444 305.554 229.62C306.116 229.79 306.784 229.875 307.558 229.875ZM306.477 213.659L306.477 210.381L308.832 210.381L308.832 213.659L312.005 213.659L312.005 216.015L308.832 216.015L308.832 219.293L306.477 219.293L306.477 216.015L303.251 216.015L303.251 213.659L306.477 213.659Z" fill="#26374C"/>
<path d="M414.648 22.6836H412.762V26H408.191V22.6836H401.359V19.2852L408.484 8.86719H412.762V19.2266H414.648V22.6836ZM408.191 19.2266V17.2344C408.191 17.0547 408.195 16.8281 408.203 16.5547C408.211 16.2812 408.219 16.0078 408.227 15.7344C408.242 15.4531 408.254 15.2188 408.262 15.0312C408.277 14.8359 408.289 14.7305 408.297 14.7148H408.168C408.02 15.0664 407.883 15.3594 407.758 15.5938C407.633 15.8203 407.469 16.0898 407.266 16.4023L405.367 19.2266H408.191ZM422.09 8.62109C423.223 8.62109 424.215 8.77344 425.066 9.07812C425.926 9.38281 426.598 9.84766 427.082 10.4727C427.566 11.0898 427.809 11.8672 427.809 12.8047C427.809 13.4922 427.68 14.0977 427.422 14.6211C427.172 15.1367 426.824 15.5898 426.379 15.9805C425.941 16.3633 425.434 16.6953 424.855 16.9766C425.395 17.2812 425.93 17.6367 426.461 18.043C426.992 18.4492 427.434 18.9297 427.785 19.4844C428.137 20.0312 428.312 20.6836 428.312 21.4414C428.312 22.3555 428.09 23.1758 427.645 23.9023C427.199 24.6211 426.516 25.1914 425.594 25.6133C424.672 26.0273 423.488 26.2344 422.043 26.2344C420.598 26.2344 419.414 26.0352 418.492 25.6367C417.57 25.2383 416.891 24.6836 416.453 23.9727C416.023 23.2539 415.809 22.4258 415.809 21.4883C415.809 20.6914 415.941 20.0195 416.207 19.4727C416.48 18.9258 416.852 18.4609 417.32 18.0781C417.789 17.6953 418.324 17.3516 418.926 17.0469C418.449 16.7266 418.012 16.3633 417.613 15.957C417.215 15.5508 416.898 15.0859 416.664 14.5625C416.43 14.0391 416.312 13.4453 416.312 12.7812C416.312 11.8594 416.559 11.0898 417.051 10.4727C417.543 9.85547 418.223 9.39453 419.09 9.08984C419.965 8.77734 420.965 8.62109 422.09 8.62109ZM420.051 21.3008C420.051 21.7773 420.223 22.1641 420.566 22.4609C420.91 22.7578 421.387 22.9062 421.996 22.9062C422.707 22.9062 423.227 22.7734 423.555 22.5078C423.891 22.2344 424.059 21.8633 424.059 21.3945C424.059 21.043 423.953 20.7266 423.742 20.4453C423.539 20.1562 423.301 19.9062 423.027 19.6953C422.754 19.4844 422.516 19.3203 422.312 19.2031L421.996 19.0156C421.645 19.1953 421.32 19.3984 421.023 19.625C420.734 19.8438 420.5 20.0938 420.32 20.375C420.141 20.6484 420.051 20.957 420.051 21.3008ZM422.066 11.9609C421.684 11.9609 421.352 12.0742 421.07 12.3008C420.789 12.5195 420.648 12.8203 420.648 13.2031C420.648 13.4531 420.707 13.6875 420.824 13.9062C420.949 14.1172 421.113 14.3125 421.316 14.4922C421.527 14.6719 421.762 14.8359 422.02 14.9844C422.246 14.8516 422.469 14.707 422.688 14.5508C422.906 14.3945 423.09 14.207 423.238 13.9883C423.387 13.7695 423.461 13.5078 423.461 13.2031C423.461 12.8203 423.32 12.5195 423.039 12.3008C422.766 12.0742 422.441 11.9609 422.066 11.9609ZM433.879 8.62109C435.223 8.62109 436.301 9.08984 437.113 10.0273C437.934 10.9648 438.344 12.2812 438.344 13.9766C438.344 15.6719 437.961 16.9961 437.195 17.9492C436.43 18.9023 435.324 19.3789 433.879 19.3789C432.566 19.3789 431.508 18.9023 430.703 17.9492C429.906 16.9961 429.508 15.6719 429.508 13.9766C429.508 12.2812 429.883 10.9648 430.633 10.0273C431.391 9.08984 432.473 8.62109 433.879 8.62109ZM433.926 11.4805C433.59 11.4805 433.355 11.7109 433.223 12.1719C433.098 12.625 433.035 13.2422 433.035 14.0234C433.035 14.7891 433.098 15.4062 433.223 15.875C433.355 16.3359 433.59 16.5664 433.926 16.5664C434.262 16.5664 434.492 16.3398 434.617 15.8867C434.742 15.4258 434.805 14.8047 434.805 14.0234C434.805 13.2422 434.742 12.625 434.617 12.1719C434.492 11.7109 434.262 11.4805 433.926 11.4805ZM446.887 8.86719L437.383 26H433.902L443.406 8.86719H446.887ZM446.91 15.4414C448.254 15.4414 449.332 15.9102 450.145 16.8477C450.965 17.7852 451.375 19.1016 451.375 20.7969C451.375 22.4844 450.992 23.8047 450.227 24.7578C449.461 25.7109 448.355 26.1875 446.91 26.1875C445.598 26.1875 444.539 25.7109 443.734 24.7578C442.938 23.8047 442.539 22.4844 442.539 20.7969C442.539 19.1016 442.914 17.7852 443.664 16.8477C444.422 15.9102 445.504 15.4414 446.91 15.4414ZM446.957 18.3008C446.621 18.3008 446.387 18.5312 446.254 18.9922C446.129 19.4453 446.066 20.0625 446.066 20.8438C446.066 21.6094 446.129 22.2266 446.254 22.6953C446.387 23.1562 446.621 23.3867 446.957 23.3867C447.293 23.3867 447.523 23.1602 447.648 22.707C447.781 22.2461 447.848 21.625 447.848 20.8438C447.848 20.0312 447.781 19.4062 447.648 18.9688C447.523 18.5234 447.293 18.3008 446.957 18.3008ZM459.461 7.76562L459.016 12.418L463.645 11.0703L463.949 13.1211L459.52 13.5781L462.379 17.3867L460.48 18.4297L458.359 14.2578L456.414 18.4297L454.445 17.3867L457.281 13.5781L452.875 13.1211L453.203 11.0703L457.762 12.418L457.305 7.76562H459.461Z" fill="#2E4B67"/>
<rect x="378" y="33" width="110" height="241" rx="5" fill="#FFB3C2"/>
<path d="M440 248.982L440 256.611L427.15 256.611L427.15 248.982L429.937 248.982L429.937 253.14L431.958 253.14L431.958 249.29L434.744 249.29L434.744 253.14L437.17 253.14L437.17 248.982L440 248.982ZM440 235.157L440 239.174L435.983 241.679L440 244.157L440 248.086L433.426 243.823L427.15 247.831L427.15 243.981L431.123 241.661L427.15 239.429L427.15 235.465L433.698 239.534L440 235.157ZM440 228.038L440 231.51L429.989 231.51L429.989 234.647L427.15 234.647L427.15 224.909L429.989 224.909L429.989 228.038L440 228.038ZM427.15 218.862C427.15 217.696 427.294 216.727 427.581 215.953C427.862 215.18 428.284 214.6 428.847 214.213C429.409 213.82 430.109 213.624 430.947 213.624C431.469 213.624 431.943 213.712 432.371 213.888C432.799 214.063 433.183 214.315 433.522 214.644C433.856 214.966 434.149 215.353 434.401 215.804L440 212.06L440 215.997L435.324 218.722L435.324 219.601L440 219.601L440 223.072L427.15 223.072L427.15 218.862ZM429.778 218.915L429.778 219.601L432.714 219.601L432.714 218.95C432.714 218.417 432.597 217.98 432.362 217.641C432.128 217.301 431.709 217.131 431.105 217.131C430.689 217.131 430.364 217.271 430.13 217.553C429.896 217.834 429.778 218.288 429.778 218.915ZM440 203.007L437.592 203.64L437.592 207.814L440 208.465L440 212.279L427.098 208.087L427.098 203.455L440 199.21L440 203.007ZM434.744 204.36L432.635 204.914C432.406 204.973 432.081 205.058 431.659 205.169C431.231 205.28 430.792 205.392 430.341 205.503C429.884 205.608 429.509 205.69 429.216 205.749C429.509 205.802 429.872 205.878 430.306 205.978C430.733 206.071 431.158 206.171 431.58 206.276C432.002 206.376 432.354 206.464 432.635 206.54L434.744 207.094L434.744 204.36Z" fill="#26374C"/>
</svg>
