<svg width="488" height="274" fill="none" xmlns="http://www.w3.org/2000/svg"><path d="M33.988 158H29.29v-8.473-.855c0-.422.004-.887.012-1.395.015-.507.035-.965.058-1.371a7.874 7.874 0 0 1-.574.621c-.172.172-.34.332-.504.481l-1.945 1.605-2.402-2.953 5.882-4.793h4.172V158zm10.102-17.379c1.133 0 2.125.152 2.976.457.86.305 1.532.77 2.016 1.395.484.617.727 1.394.727 2.332 0 .687-.13 1.293-.387 1.816-.25.516-.598.969-1.043 1.359a6.867 6.867 0 0 1-1.523.997c.538.304 1.074.66 1.605 1.066.531.406.973.887 1.324 1.441.352.547.528 1.2.528 1.957 0 .914-.223 1.735-.669 2.461-.445.719-1.128 1.289-2.05 1.711-.922.414-2.106.621-3.551.621-1.445 0-2.629-.199-3.55-.597-.923-.399-1.602-.953-2.04-1.664-.43-.719-.644-1.547-.644-2.485 0-.797.132-1.468.398-2.015a4.214 4.214 0 0 1 1.113-1.395 8.852 8.852 0 0 1 1.606-1.031 8.377 8.377 0 0 1-1.313-1.09 4.733 4.733 0 0 1-.949-1.395c-.234-.523-.352-1.117-.352-1.781 0-.922.247-1.691.739-2.308.492-.618 1.172-1.078 2.039-1.383.875-.313 1.875-.469 3-.469zm-2.04 12.68c0 .476.173.863.516 1.16.344.297.82.445 1.43.445.711 0 1.23-.133 1.559-.398.336-.274.504-.645.504-1.113 0-.352-.106-.668-.317-.95a3.435 3.435 0 0 0-.715-.75 6.626 6.626 0 0 0-.715-.492l-.316-.187a6.31 6.31 0 0 0-.973.609 2.906 2.906 0 0 0-.703.75c-.18.273-.27.582-.27.926zm2.016-9.34c-.382 0-.714.113-.996.34-.28.219-.422.519-.422.902 0 .25.059.485.176.703.125.211.29.406.492.586.211.18.446.344.703.492.227-.132.45-.277.669-.433.218-.156.402-.344.55-.563.149-.218.223-.48.223-.785 0-.383-.14-.683-.422-.902a1.475 1.475 0 0 0-.973-.34zm11.813-3.34c1.344 0 2.422.469 3.234 1.406.82.938 1.23 2.254 1.23 3.95 0 1.695-.382 3.019-1.148 3.972-.765.953-1.87 1.43-3.316 1.43-1.313 0-2.371-.477-3.176-1.43-.797-.953-1.195-2.277-1.195-3.972 0-1.696.375-3.012 1.125-3.95.758-.937 1.84-1.406 3.246-1.406zm.047 2.859c-.336 0-.57.231-.703.692-.125.453-.188 1.07-.188 1.851 0 .766.063 1.383.188 1.852.133.461.367.691.703.691.336 0 .566-.226.691-.679.125-.461.188-1.082.188-1.864 0-.781-.063-1.398-.188-1.851-.125-.461-.355-.692-.691-.692zm12.96-2.613L59.384 158h-3.48l9.503-17.133h3.48zm.024 6.574c1.344 0 2.422.469 3.234 1.407.82.937 1.231 2.254 1.231 3.949 0 1.687-.383 3.008-1.148 3.961-.766.953-1.871 1.43-3.317 1.43-1.312 0-2.37-.477-3.176-1.43-.796-.953-1.195-2.274-1.195-3.961 0-1.695.375-3.012 1.125-3.949.758-.938 1.84-1.407 3.246-1.407zm.047 2.86c-.336 0-.57.23-.703.691-.125.453-.188 1.07-.188 1.852 0 .765.063 1.383.188 1.851.133.461.367.692.703.692.336 0 .566-.227.691-.68.133-.461.2-1.082.2-1.863 0-.813-.067-1.438-.2-1.875-.125-.446-.355-.668-.691-.668zm12.504-10.535l-.445 4.652 4.628-1.348.305 2.051-4.43.457 2.86 3.809-1.898 1.043-2.122-4.172-1.945 4.172-1.969-1.043 2.836-3.809-4.406-.457.328-2.051 4.559 1.348-.457-4.652h2.156z" fill="#2E4B67"/><rect y="165" width="110" height="109" rx="5" fill="#FCF6E7"/><path d="M58.098 248.209c.697 0 1.359.176 1.986.527.621.352 1.125.9 1.512 1.644.386.738.58 1.693.58 2.865 0 .586-.027 1.102-.08 1.547-.052.439-.137.85-.254 1.23-.123.381-.282.777-.475 1.187h-3.094c.352-.697.621-1.4.809-2.109.182-.709.273-1.351.273-1.925 0-.346-.041-.627-.124-.844-.082-.223-.193-.387-.334-.492a.832.832 0 0 0-.5-.158.75.75 0 0 0-.563.237c-.158.152-.322.398-.492.738-.17.34-.381.788-.633 1.345-.223.475-.451.905-.686 1.292a4.6 4.6 0 0 1-.8.984 3.25 3.25 0 0 1-1.063.624c-.404.147-.882.22-1.432.22-.827 0-1.518-.202-2.075-.606-.562-.411-.984-.979-1.265-1.705-.282-.733-.422-1.577-.422-2.532 0-.838.094-1.591.281-2.258.188-.674.401-1.278.642-1.811l2.68 1.063a10.8 10.8 0 0 0-.597 1.626 5.436 5.436 0 0 0-.229 1.486c0 .299.038.545.114.738.07.188.167.328.29.422a.707.707 0 0 0 .422.132c.2 0 .378-.076.536-.229.159-.158.332-.419.519-.782.182-.369.419-.87.712-1.503.281-.627.586-1.16.914-1.6a3.23 3.23 0 0 1 1.169-1.001c.451-.235 1.01-.352 1.679-.352zM62 240.554v3.471H51.99v3.138h-2.84v-9.738h2.84v3.129H62zm0-12.85l-2.408.633v4.175l2.408.65v3.815l-12.902-4.193v-4.632L62 223.907v3.797zm-5.256 1.354l-2.11.553-.975.255c-.428.112-.867.223-1.318.334a36.82 36.82 0 0 1-1.125.246c.293.053.656.129 1.09.229.427.094.852.193 1.274.299.422.099.773.187 1.055.263l2.11.554v-2.733zM49.15 218.3c0-1.166.144-2.136.431-2.909.281-.774.703-1.354 1.266-1.741.562-.392 1.262-.588 2.1-.588.522 0 .996.087 1.424.263.428.176.812.428 1.151.756.334.322.627.709.88 1.16L62 211.497v3.938l-4.676 2.724v.879H62v3.472H49.15v-4.21zm2.628.053v.685h2.936v-.65c0-.534-.117-.97-.352-1.31-.234-.34-.653-.51-1.257-.51-.415 0-.74.141-.975.422s-.352.736-.352 1.363zM62 204.659v3.472H51.99v3.138h-2.84v-9.739h2.84v3.129H62zm-7.523-10.019v-3.279h2.355v3.279h3.173v2.355h-3.173v3.278h-2.355v-3.278H51.25v-2.355h3.226z" fill="#26374C"/><path d="M162.098 132h-12.434v-3.047l4.184-4.23a67.454 67.454 0 0 0 2.015-2.18c.485-.547.825-1.012 1.02-1.395.195-.382.293-.781.293-1.195 0-.508-.164-.875-.492-1.101-.329-.227-.715-.34-1.161-.34-.539 0-1.085.156-1.64.468-.547.305-1.168.758-1.863 1.36l-2.543-2.977a19.345 19.345 0 0 1 1.64-1.312c.578-.422 1.262-.766 2.051-1.031.789-.266 1.75-.399 2.883-.399 1.164 0 2.172.203 3.023.609.86.407 1.524.965 1.992 1.676.469.703.704 1.504.704 2.403 0 .992-.184 1.879-.551 2.66-.36.773-.903 1.551-1.629 2.332a48.626 48.626 0 0 1-2.719 2.637l-1.254 1.124v.118h6.481V132zm14.613-3.316h-1.887V132h-4.57v-3.316h-6.832v-3.399l7.125-10.418h4.277v10.36h1.887v3.457zm-6.457-3.457v-1.993c0-.179.004-.406.012-.679l.023-.821c.016-.281.027-.515.035-.703.016-.195.028-.301.035-.316h-.129c-.148.351-.285.644-.41.879-.125.226-.289.496-.492.808l-1.898 2.825h2.824zm11.625-10.606c1.344 0 2.422.469 3.234 1.406.821.938 1.231 2.254 1.231 3.95 0 1.695-.383 3.019-1.149 3.972-.765.953-1.871 1.43-3.316 1.43-1.313 0-2.371-.477-3.176-1.43-.797-.953-1.195-2.277-1.195-3.972 0-1.696.375-3.012 1.125-3.95.758-.937 1.84-1.406 3.246-1.406zm.047 2.859c-.336 0-.571.231-.703.692-.125.453-.188 1.07-.188 1.851 0 .766.063 1.383.188 1.852.132.461.367.691.703.691.336 0 .566-.226.691-.679.125-.461.188-1.082.188-1.864 0-.781-.063-1.398-.188-1.851-.125-.461-.355-.692-.691-.692zm12.961-2.613L185.383 132h-3.481l9.504-17.133h3.481zm.023 6.574c1.344 0 2.422.469 3.235 1.407.82.937 1.23 2.254 1.23 3.949 0 1.687-.383 3.008-1.148 3.961-.766.953-1.872 1.43-3.317 1.43-1.312 0-2.371-.477-3.176-1.43-.796-.953-1.195-2.274-1.195-3.961 0-1.695.375-3.012 1.125-3.949.758-.938 1.84-1.407 3.246-1.407zm.047 2.86c-.336 0-.57.23-.703.691-.125.453-.188 1.07-.188 1.852 0 .765.063 1.383.188 1.851.133.461.367.692.703.692.336 0 .566-.227.691-.68.133-.461.2-1.082.2-1.863 0-.813-.067-1.438-.2-1.875-.125-.446-.355-.668-.691-.668zm12.504-10.535l-.445 4.652 4.629-1.348.304 2.051-4.429.457 2.859 3.809-1.899 1.043-2.121-4.172-1.945 4.172-1.969-1.043 2.836-3.809-4.406-.457.328-2.051 4.559 1.348-.457-4.652h2.156z" fill="#2E4B67"/><rect x="126" y="139" width="110" height="135" rx="5" fill="#FFEAB5"/><path d="M175.15 252.164c0-1.629.355-2.848 1.064-3.656.709-.815 1.717-1.222 3.023-1.222a5.58 5.58 0 0 1 1.688.255 3.77 3.77 0 0 1 1.441.817c.422.375.756.876 1.002 1.503.246.621.369 1.389.369 2.303v.976H188v3.471h-12.85v-4.447zm2.804.079v.897h2.953v-.686c0-.299-.05-.577-.149-.835a1.329 1.329 0 0 0-.501-.615c-.235-.158-.545-.237-.932-.237-.404 0-.732.12-.984.36-.258.24-.387.612-.387 1.116zm-2.804-11.215c0-1.166.144-2.135.431-2.909.281-.773.703-1.353 1.266-1.74.562-.393 1.262-.589 2.1-.589.522 0 .996.088 1.424.264.428.175.812.427 1.151.756.334.322.627.709.879 1.16l5.599-3.744v3.937l-4.676 2.725v.879H188v3.471h-12.85v-4.21zm2.628.053v.686h2.936v-.651c0-.533-.117-.97-.352-1.309-.234-.34-.653-.51-1.257-.51-.416 0-.741.14-.975.422-.234.281-.352.735-.352 1.362zm3.78-20.048c.99 0 1.892.12 2.707.361a5.502 5.502 0 0 1 2.091 1.107c.586.504 1.038 1.151 1.354 1.942.311.791.466 1.738.466 2.839 0 1.078-.155 2.013-.466 2.804-.316.785-.765 1.433-1.345 1.942-.586.51-1.286.888-2.1 1.134-.815.246-1.723.369-2.725.369-1.336 0-2.496-.219-3.48-.659a4.92 4.92 0 0 1-2.294-2.057c-.545-.925-.818-2.109-.818-3.55 0-1.465.273-2.655.818-3.569a4.84 4.84 0 0 1 2.302-2.021c.991-.428 2.154-.642 3.49-.642zm0 8.842c.773 0 1.438-.088 1.995-.264.556-.175.984-.454 1.283-.835.299-.38.448-.879.448-1.494 0-.638-.149-1.145-.448-1.52-.299-.381-.727-.654-1.283-.818-.557-.17-1.222-.255-1.995-.255-1.161 0-2.078.194-2.751.581-.674.386-1.011 1.051-1.011 1.995 0 .627.152 1.133.457 1.52.305.381.738.659 1.301.835.562.17 1.23.255 2.004.255z" fill="#26374C"/><path d="M287.523 68.582c0 .813-.175 1.516-.527 2.11a4.283 4.283 0 0 1-1.383 1.44 6.56 6.56 0 0 1-1.875.845v.07c1.367.172 2.422.59 3.164 1.254.75.656 1.125 1.59 1.125 2.8 0 .938-.25 1.797-.75 2.579-.5.773-1.277 1.394-2.332 1.863-1.054.46-2.41.691-4.066.691-1.109 0-2.055-.082-2.836-.246a14.108 14.108 0 0 1-2.273-.68v-3.843c.742.383 1.503.668 2.285.855.789.18 1.507.27 2.156.27 1.125 0 1.891-.16 2.297-.48.414-.32.621-.75.621-1.29 0-.39-.098-.722-.293-.996-.195-.273-.559-.484-1.09-.633-.523-.148-1.277-.222-2.262-.222h-1.054v-3.48h1.078c.875 0 1.566-.079 2.074-.235.516-.156.887-.367 1.113-.633.227-.273.34-.586.34-.937 0-.453-.176-.79-.527-1.008-.352-.219-.817-.328-1.395-.328-.515 0-1 .07-1.453.21-.453.141-.848.297-1.183.47a9.99 9.99 0 0 0-.762.421l-1.922-3.093a11.12 11.12 0 0 1 2.437-1.231c.922-.336 2.125-.504 3.61-.504 1.765 0 3.152.352 4.16 1.055 1.016.703 1.523 1.672 1.523 2.906zm2.309 6.176c0-.985.07-1.961.211-2.93.141-.976.395-1.894.762-2.754a7.076 7.076 0 0 1 1.558-2.297c.672-.671 1.535-1.199 2.59-1.582 1.055-.382 2.34-.574 3.856-.574.336 0 .746.02 1.23.059.484.039.887.086 1.207.14v3.621c-.32-.062-.68-.113-1.078-.152a12.83 12.83 0 0 0-1.465-.07c-1.156 0-2.07.175-2.742.527-.664.344-1.145.84-1.441 1.488-.297.649-.469 1.426-.516 2.332h.141c.203-.375.449-.71.738-1.007a3.11 3.11 0 0 1 1.09-.715c.429-.18.949-.27 1.558-.27 1 0 1.86.219 2.578.657.719.43 1.27 1.058 1.653 1.886.383.828.574 1.836.574 3.024 0 1.28-.246 2.378-.738 3.293a4.979 4.979 0 0 1-2.086 2.085c-.899.477-1.973.715-3.223.715a7.229 7.229 0 0 1-2.566-.445 5.542 5.542 0 0 1-2.051-1.36c-.578-.617-1.031-1.394-1.36-2.331-.32-.946-.48-2.059-.48-3.34zm6.352 3.808c.492 0 .89-.187 1.195-.562.312-.375.469-.965.469-1.77 0-.648-.129-1.156-.387-1.523-.25-.375-.66-.563-1.231-.563-.382 0-.707.094-.972.282a1.79 1.79 0 0 0-.61.691c-.14.281-.21.574-.21.879 0 .305.031.61.093.914.071.305.176.582.317.832.148.242.332.442.55.598.219.148.481.222.786.222zm11.695-13.945c1.344 0 2.422.469 3.234 1.406.821.938 1.231 2.254 1.231 3.95 0 1.695-.383 3.02-1.149 3.972-.765.953-1.871 1.43-3.316 1.43-1.313 0-2.371-.477-3.176-1.43-.797-.953-1.195-2.277-1.195-3.972 0-1.696.375-3.012 1.125-3.95.758-.937 1.84-1.406 3.246-1.406zm.047 2.86c-.336 0-.571.23-.703.69-.125.454-.188 1.071-.188 1.852 0 .766.063 1.383.188 1.852.132.46.367.691.703.691.336 0 .566-.226.691-.68.125-.46.188-1.081.188-1.863 0-.78-.063-1.398-.188-1.851-.125-.461-.355-.691-.691-.691zm12.961-2.614L311.383 82h-3.481l9.504-17.133h3.481zm.023 6.574c1.344 0 2.422.47 3.235 1.407.82.937 1.23 2.254 1.23 3.949 0 1.687-.383 3.008-1.148 3.96-.766.954-1.872 1.43-3.317 1.43-1.312 0-2.371-.476-3.176-1.43-.796-.952-1.195-2.273-1.195-3.96 0-1.695.375-3.012 1.125-3.95.758-.937 1.84-1.406 3.246-1.406zm.047 2.86c-.336 0-.57.23-.703.691-.125.453-.188 1.07-.188 1.852 0 .765.063 1.383.188 1.851.133.461.367.692.703.692.336 0 .566-.227.691-.68.133-.46.2-1.082.2-1.863 0-.813-.067-1.438-.2-1.875-.125-.446-.355-.668-.691-.668zm12.504-10.535l-.445 4.652 4.629-1.348.304 2.051-4.429.457 2.859 3.809-1.899 1.043-2.121-4.172-1.945 4.172-1.969-1.043 2.836-3.809-4.406-.457.328-2.05 4.559 1.347-.457-4.652h2.156z" fill="#2E4B67"/><rect x="252" y="89" width="110" height="185" rx="5" fill="#FFE0E6"/><path d="M301.15 252.164c0-1.629.355-2.848 1.064-3.656.709-.815 1.717-1.222 3.023-1.222a5.58 5.58 0 0 1 1.688.255 3.77 3.77 0 0 1 1.441.817c.422.375.756.876 1.002 1.503.246.621.369 1.389.369 2.303v.976H314v3.471h-12.85v-4.447zm2.804.079v.897h2.953v-.686c0-.299-.05-.577-.149-.835a1.329 1.329 0 0 0-.501-.615c-.235-.158-.545-.237-.932-.237-.404 0-.732.12-.984.36-.258.24-.387.612-.387 1.116zm-2.804-11.215c0-1.166.144-2.135.431-2.909.281-.773.703-1.353 1.266-1.74.562-.393 1.262-.589 2.1-.589.522 0 .996.088 1.424.264.428.175.812.427 1.151.756.334.322.627.709.879 1.16l5.599-3.744v3.937l-4.676 2.725v.879H314v3.471h-12.85v-4.21zm2.628.053v.686h2.936v-.651c0-.533-.117-.97-.352-1.309-.234-.34-.653-.51-1.257-.51-.416 0-.741.14-.975.422-.234.281-.352.735-.352 1.362zm3.78-20.048c.99 0 1.892.12 2.707.361a5.502 5.502 0 0 1 2.091 1.107c.586.504 1.038 1.151 1.354 1.942.311.791.466 1.738.466 2.839 0 1.078-.155 2.013-.466 2.804-.316.785-.765 1.433-1.345 1.942-.586.51-1.286.888-2.1 1.134-.815.246-1.723.369-2.725.369-1.336 0-2.496-.219-3.48-.659a4.92 4.92 0 0 1-2.294-2.057c-.545-.925-.818-2.109-.818-3.55 0-1.465.273-2.655.818-3.569a4.84 4.84 0 0 1 2.302-2.021c.991-.428 2.154-.642 3.49-.642zm0 8.842c.773 0 1.438-.088 1.995-.264.556-.175.984-.454 1.283-.835.299-.38.448-.879.448-1.494 0-.638-.149-1.145-.448-1.52-.299-.381-.727-.654-1.283-.818-.557-.17-1.222-.255-1.995-.255-1.161 0-2.078.194-2.751.581-.674.386-1.011 1.051-1.011 1.995 0 .627.152 1.133.457 1.52.305.381.738.659 1.301.835.562.17 1.23.255 2.004.255zm-1.081-16.216v-3.278h2.355v3.278h3.173v2.356h-3.173v3.278h-2.355v-3.278h-3.226v-2.356h3.226z" fill="#26374C"/><path d="M414.648 22.684h-1.886V26h-4.571v-3.316h-6.832v-3.399l7.125-10.418h4.278v10.36h1.886v3.457zm-6.457-3.457v-1.993c0-.18.004-.406.012-.68l.024-.82c.015-.28.027-.515.035-.703.015-.195.027-.3.035-.316h-.129c-.148.351-.285.644-.41.879a13.51 13.51 0 0 1-.492.808l-1.899 2.825h2.824zM422.09 8.62c1.133 0 2.125.152 2.976.457.86.305 1.532.77 2.016 1.395.484.617.727 1.394.727 2.332 0 .687-.129 1.293-.387 1.816-.25.516-.598.969-1.043 1.36a6.842 6.842 0 0 1-1.524.996c.54.304 1.075.66 1.606 1.066.531.406.973.887 1.324 1.441.352.547.527 1.2.527 1.957 0 .915-.222 1.735-.667 2.461-.446.72-1.129 1.29-2.051 1.711-.922.414-2.106.621-3.551.621-1.445 0-2.629-.199-3.551-.597-.922-.399-1.601-.953-2.039-1.664-.43-.72-.644-1.547-.644-2.485 0-.797.132-1.468.398-2.015a4.213 4.213 0 0 1 1.113-1.395 8.845 8.845 0 0 1 1.606-1.031 8.39 8.39 0 0 1-1.313-1.09 4.744 4.744 0 0 1-.949-1.395c-.234-.523-.352-1.117-.352-1.78 0-.923.247-1.692.739-2.31.492-.617 1.172-1.077 2.039-1.382.875-.313 1.875-.469 3-.469zm-2.039 12.68c0 .476.172.863.515 1.16.344.297.821.445 1.43.445.711 0 1.231-.133 1.559-.398.336-.274.504-.645.504-1.113 0-.352-.106-.668-.317-.95a3.417 3.417 0 0 0-.715-.75 6.548 6.548 0 0 0-.715-.492l-.316-.187c-.351.18-.676.382-.973.609a2.904 2.904 0 0 0-.703.75 1.653 1.653 0 0 0-.269.926zm2.015-9.34c-.382 0-.714.113-.996.34-.281.219-.422.52-.422.902 0 .25.059.485.176.703.125.211.289.406.492.586.211.18.446.344.704.492.226-.132.449-.277.668-.433a2.22 2.22 0 0 0 .55-.563 1.36 1.36 0 0 0 .223-.785c0-.383-.141-.683-.422-.902a1.476 1.476 0 0 0-.973-.34zm11.813-3.34c1.344 0 2.422.469 3.234 1.406.821.938 1.231 2.254 1.231 3.95 0 1.695-.383 3.02-1.149 3.972-.765.953-1.871 1.43-3.316 1.43-1.313 0-2.371-.477-3.176-1.43-.797-.953-1.195-2.277-1.195-3.972 0-1.696.375-3.012 1.125-3.95.758-.937 1.84-1.406 3.246-1.406zm.047 2.86c-.336 0-.571.23-.703.69-.125.454-.188 1.071-.188 1.852 0 .766.063 1.383.188 1.852.132.46.367.691.703.691.336 0 .566-.226.691-.68.125-.46.188-1.081.188-1.863 0-.78-.063-1.398-.188-1.851-.125-.461-.355-.692-.691-.692zm12.961-2.614L437.383 26h-3.481l9.504-17.133h3.481zm.023 6.574c1.344 0 2.422.47 3.235 1.407.82.937 1.23 2.254 1.23 3.949 0 1.687-.383 3.008-1.148 3.96-.766.954-1.872 1.43-3.317 1.43-1.312 0-2.371-.476-3.176-1.43-.796-.952-1.195-2.273-1.195-3.96 0-1.695.375-3.012 1.125-3.95.758-.937 1.84-1.406 3.246-1.406zm.047 2.86c-.336 0-.57.23-.703.691-.125.453-.188 1.07-.188 1.852 0 .765.063 1.383.188 1.851.133.461.367.692.703.692.336 0 .566-.227.691-.68.133-.46.2-1.082.2-1.863 0-.813-.067-1.438-.2-1.875-.125-.446-.355-.668-.691-.668zm12.504-10.535l-.445 4.652 4.629-1.348.304 2.051-4.429.457 2.859 3.809-1.899 1.043-2.121-4.172-1.945 4.172-1.969-1.043 2.836-3.809-4.406-.457.328-2.05 4.559 1.347-.457-4.652h2.156z" fill="#2E4B67"/><rect x="378" y="33" width="110" height="241" rx="5" fill="#FFB3C2"/><path d="M440 248.982v7.629h-12.85v-7.629h2.787v4.158h2.021v-3.85h2.786v3.85h2.426v-4.158H440zm0-13.825v4.017l-4.017 2.505 4.017 2.478v3.929l-6.574-4.263-6.276 4.008v-3.85l3.973-2.32-3.973-2.232v-3.964l6.548 4.069 6.302-4.377zm0-7.119v3.472h-10.011v3.137h-2.839v-9.738h2.839v3.129H440zm-12.85-9.176c0-1.166.144-2.135.431-2.909.281-.773.703-1.353 1.266-1.74.562-.393 1.262-.589 2.1-.589.522 0 .996.088 1.424.264.428.175.812.427 1.151.756.334.322.627.709.879 1.16L440 212.06v3.937l-4.676 2.725v.879H440v3.471h-12.85v-4.21zm2.628.053v.686h2.936v-.651c0-.533-.117-.97-.352-1.309-.234-.34-.653-.51-1.257-.51-.416 0-.741.14-.975.422-.234.281-.352.735-.352 1.362zM440 203.007l-2.408.633v4.174l2.408.651v3.814l-12.902-4.192v-4.632L440 199.21v3.797zm-5.256 1.353l-2.109.554-.976.255c-.428.111-.867.223-1.318.334-.457.105-.832.187-1.125.246.293.053.656.129 1.09.229.427.093.852.193 1.274.298.422.1.774.188 1.055.264l2.109.554v-2.734z" fill="#26374C"/></svg>