<svg width="16" height="16" viewBox="0 0 16 16" fill="none" xmlns="http://www.w3.org/2000/svg">
<path fill-rule="evenodd" clip-rule="evenodd" d="M7.82079 1.33325C11.4008 1.33325 14.3128 4.24525 14.3128 7.82525C14.3128 9.51428 13.6646 11.0548 12.6039 12.2109L14.6911 14.2937C14.8864 14.4891 14.8871 14.8051 14.6917 15.0004C14.5944 15.0991 14.4657 15.1477 14.3377 15.1477C14.2104 15.1477 14.0824 15.0991 13.9844 15.0017L11.872 12.8953C10.7608 13.7851 9.35191 14.3179 7.82079 14.3179C4.24079 14.3179 1.32812 11.4053 1.32812 7.82525C1.32812 4.24525 4.24079 1.33325 7.82079 1.33325ZM7.82079 2.33325C4.79212 2.33325 2.32812 4.79659 2.32812 7.82525C2.32812 10.8539 4.79212 13.3179 7.82079 13.3179C10.8488 13.3179 13.3128 10.8539 13.3128 7.82525C13.3128 4.79659 10.8488 2.33325 7.82079 2.33325Z" fill="#30CBFF"/>
</svg>
