<svg width="16" height="16" viewBox="0 0 16 16" fill="none" xmlns="http://www.w3.org/2000/svg">
<path fill-rule="evenodd" clip-rule="evenodd" d="M10.8841 1.33325C13.1435 1.33325 14.6615 2.91859 14.6615 5.27725V10.7226C14.6615 13.0813 13.1435 14.6666 10.8828 14.6666H5.10412C2.84546 14.6666 1.32812 13.0813 1.32812 10.7226V5.27725C1.32812 2.91859 2.84546 1.33325 5.10412 1.33325H10.8841ZM10.8841 2.33325H5.10412C3.41812 2.33325 2.32812 3.48858 2.32812 5.27725V10.7226C2.32812 12.5113 3.41812 13.6666 5.10412 13.6666H10.8828C12.5708 13.6666 13.6615 12.5113 13.6615 10.7226V5.27725C13.6615 3.48858 12.5708 2.33325 10.8841 2.33325ZM7.99079 7.49992C8.26679 7.49992 8.49079 7.72392 8.49079 7.99992V10.6666C8.49079 10.9426 8.26679 11.1666 7.99079 11.1666C7.71479 11.1666 7.49079 10.9426 7.49079 10.6666V7.99992C7.49079 7.72392 7.71479 7.49992 7.99079 7.49992ZM7.99406 4.80265C8.36272 4.80265 8.66072 5.10065 8.66072 5.46932C8.66072 5.83799 8.36272 6.13598 7.99406 6.13598C7.62539 6.13598 7.32406 5.83799 7.32406 5.46932C7.32406 5.10065 7.61939 4.80265 7.98739 4.80265H7.99406Z" fill="#30CBFF"/>
</svg>
