<svg width="16" height="16" viewBox="0 0 16 16" fill="none" xmlns="http://www.w3.org/2000/svg">
<path fill-rule="evenodd" clip-rule="evenodd" d="M9.41842 1.91684L9.90575 2.40418C10.0944 2.59151 10.3464 2.69551 10.6144 2.69551H11.2998C12.4071 2.69551 13.3078 3.59618 13.3078 4.70351V5.38818C13.3078 5.65551 13.4118 5.90818 13.6004 6.09818L14.0791 6.57751C14.4584 6.95418 14.6691 7.45751 14.6711 7.99418C14.6731 8.53084 14.4658 9.03551 14.0878 9.41618L13.5991 9.90351C13.4118 10.0922 13.3078 10.3435 13.3078 10.6115V11.2975C13.3078 12.4042 12.4071 13.3048 11.3004 13.3048H10.6131C10.3491 13.3048 10.0911 13.4115 9.90375 13.5975L9.42509 14.0762C9.03375 14.4702 8.51775 14.6675 8.00175 14.6675C7.49042 14.6675 6.97909 14.4742 6.58775 14.0862C6.58242 14.0808 6.57709 14.0755 6.57175 14.0695L6.09842 13.5968C5.90975 13.4095 5.65775 13.3055 5.38975 13.3048H4.70575C3.59842 13.3048 2.69842 12.4042 2.69842 11.2975V10.6102C2.69842 10.3422 2.59375 10.0908 2.40575 9.90151L1.92642 9.42284C1.14775 8.64818 1.13842 7.38684 1.90309 6.60018L1.92109 6.58218L2.40642 6.09551C2.59375 5.90684 2.69842 5.65418 2.69842 5.38684V4.70351C2.69842 3.59684 3.59842 2.69618 4.70509 2.69551H5.39175C5.65909 2.69551 5.91109 2.59084 6.10242 2.40218L6.57909 1.92418C7.35842 1.13951 8.63242 1.13551 9.41842 1.91684ZM7.28775 2.63018L6.80842 3.11084C6.42575 3.48884 5.92375 3.69551 5.39175 3.69551H4.70575C4.15042 3.69618 3.69842 4.14818 3.69842 4.70351V5.38684C3.69842 5.92084 3.49109 6.42284 3.11509 6.80151L2.64175 7.27551C2.63709 7.28084 2.63242 7.28484 2.62775 7.28951C2.23642 7.68351 2.23842 8.32284 2.63242 8.71418L3.11375 9.19551C3.49109 9.57418 3.69842 10.0762 3.69842 10.6102V11.2975C3.69842 11.8528 4.14975 12.3048 4.70575 12.3048H5.39042C5.92509 12.3055 6.42709 12.5128 6.80509 12.8895L7.28575 13.3688L7.29909 13.3835C7.69242 13.7675 8.32575 13.7628 8.71642 13.3702L9.19775 12.8902C9.57109 12.5175 10.0871 12.3048 10.6131 12.3048H11.2998C11.8558 12.3048 12.3078 11.8528 12.3078 11.2975V10.6115C12.3078 10.0775 12.5144 9.57551 12.8918 9.19751L13.3718 8.71684C13.5671 8.52084 13.6718 8.26684 13.6711 7.99751C13.6704 7.72884 13.5644 7.47618 13.3731 7.28551L12.8924 6.80418C12.5144 6.42351 12.3078 5.92218 12.3078 5.38818V4.70351C12.3078 4.14751 11.8558 3.69551 11.2998 3.69551H10.6144C10.0804 3.69551 9.57842 3.48818 9.20042 3.11284L8.71909 2.63084C8.31842 2.23418 7.67909 2.23618 7.28775 2.63018ZM9.67149 8.99931C10.0402 8.99931 10.3382 9.29731 10.3382 9.66598C10.3382 10.0346 10.0402 10.3326 9.67149 10.3326C9.30282 10.3326 9.00149 10.0346 9.00149 9.66598C9.00149 9.29731 9.29682 8.99931 9.66549 8.99931H9.67149ZM10.07 5.93351C10.2654 6.12884 10.2654 6.44551 10.07 6.64084L6.64269 10.0675C6.54535 10.1655 6.41735 10.2142 6.28935 10.2142C6.16135 10.2142 6.03335 10.1655 5.93602 10.0675C5.74069 9.87218 5.74069 9.55618 5.93602 9.36084L9.36269 5.93351C9.55802 5.73818 9.87469 5.73818 10.07 5.93351ZM6.33815 5.66598C6.70682 5.66598 7.00482 5.96398 7.00482 6.33264C7.00482 6.70131 6.70682 6.99931 6.33815 6.99931C5.96949 6.99931 5.66815 6.70131 5.66815 6.33264C5.66815 5.96398 5.96349 5.66598 6.33215 5.66598H6.33815Z" fill="#30CBFF"/>
</svg>
