<svg width="16" height="16" viewBox="0 0 16 16" fill="none" xmlns="http://www.w3.org/2000/svg">
<path fill-rule="evenodd" clip-rule="evenodd" d="M7.8375 0.66687C9.75283 0.66687 11.5528 1.41154 12.9048 2.7642C15.6995 5.55887 15.6995 10.1055 12.9048 12.9002C11.5348 14.2709 9.69017 14.9962 7.8215 14.9962C6.80283 14.9962 5.7775 14.7809 4.81817 14.3369C4.5355 14.2235 4.27083 14.1169 4.08083 14.1169C3.86217 14.1182 3.56817 14.2195 3.28417 14.3175C2.7015 14.5175 1.97617 14.7669 1.4395 14.2322C0.904833 13.6969 1.1515 12.9735 1.35017 12.3915C1.44817 12.1049 1.54883 11.8089 1.54883 11.5849C1.54883 11.4009 1.46017 11.1662 1.32417 10.8282C0.0754998 8.13154 0.652833 4.88154 2.77083 2.76487C4.12283 1.4122 5.92217 0.66687 7.8375 0.66687ZM7.83817 1.66687C6.1895 1.66687 4.64083 2.3082 3.4775 3.4722C1.65483 5.29354 1.15883 8.0902 2.24217 10.4322C2.39817 10.8182 2.54883 11.1942 2.54883 11.5849C2.54883 11.9749 2.41483 12.3675 2.29683 12.7142C2.1995 12.9995 2.05217 13.4302 2.14683 13.5249C2.2395 13.6209 2.67283 13.4695 2.95883 13.3715C3.30217 13.2542 3.6915 13.1195 4.0775 13.1169C4.46417 13.1169 4.82883 13.2635 5.21483 13.4189C7.5795 14.5122 10.3762 14.0149 12.1982 12.1935C14.6022 9.7882 14.6022 5.87554 12.1982 3.47154C11.0342 2.30754 9.48617 1.66687 7.83817 1.66687ZM10.4694 7.442C10.8374 7.442 11.1361 7.74 11.1361 8.10867C11.1361 8.47734 10.8374 8.77534 10.4694 8.77534C10.1014 8.77534 9.8001 8.47734 9.8001 8.10867C9.8001 7.74 10.0954 7.442 10.4634 7.442H10.4694ZM7.7969 7.442C8.1649 7.442 8.46357 7.74 8.46357 8.10867C8.46357 8.47734 8.1649 8.77534 7.7969 8.77534C7.4289 8.77534 7.12757 8.47734 7.12757 8.10867C7.12757 7.74 7.42223 7.442 7.7909 7.442H7.7969ZM5.1241 7.442C5.4921 7.442 5.79077 7.74 5.79077 8.10867C5.79077 8.47734 5.4921 8.77534 5.1241 8.77534C4.7561 8.77534 4.45477 8.47734 4.45477 8.10867C4.45477 7.74 4.7501 7.442 5.1181 7.442H5.1241Z" fill="#30CBFF"/>
</svg>
