<svg width="16" height="16" viewBox="0 0 16 16" fill="none" xmlns="http://www.w3.org/2000/svg">
<path fill-rule="evenodd" clip-rule="evenodd" d="M7.92961 9.60941L8.00489 9.60944L8.17328 9.61001C9.46034 9.61849 12.4016 9.7485 12.4016 11.7421C12.4016 13.7226 9.56286 13.8517 8.19334 13.8602L7.68593 13.8602C6.3988 13.8517 3.45694 13.7218 3.45694 11.7307C3.45694 9.74776 6.3988 9.61844 7.68593 9.61L7.85433 9.60944C7.88045 9.60942 7.90556 9.60941 7.92961 9.60941ZM7.92961 10.6094C6.34561 10.6094 4.45694 10.8041 4.45694 11.7307C4.45694 12.6364 6.23288 12.8482 7.78483 12.8602L7.92961 12.8607C9.51361 12.8607 11.4016 12.6667 11.4016 11.7421C11.4016 10.8061 9.51361 10.6094 7.92961 10.6094ZM13.232 9.33888C14.8473 9.58088 15.1867 10.3395 15.1867 10.9335C15.1867 11.2962 15.044 11.9582 14.0907 12.3215C14.032 12.3435 13.972 12.3542 13.9127 12.3542C13.7113 12.3542 13.5213 12.2315 13.4453 12.0322C13.3467 11.7742 13.4767 11.4849 13.7347 11.3869C14.1867 11.2149 14.1867 11.0249 14.1867 10.9335C14.1867 10.6415 13.8153 10.4375 13.0833 10.3282C12.8107 10.2869 12.622 10.0329 12.6627 9.75888C12.7033 9.48555 12.9567 9.30355 13.232 9.33888ZM3.19588 9.75888C3.23654 10.0329 3.04788 10.2869 2.77521 10.3282C2.04321 10.4375 1.67188 10.6415 1.67188 10.9335C1.67188 11.0249 1.67188 11.2142 2.12454 11.3869C2.38254 11.4849 2.51254 11.7742 2.41388 12.0322C2.33788 12.2315 2.14787 12.3542 1.94654 12.3542C1.88721 12.3542 1.82721 12.3435 1.76854 12.3215C0.814542 11.9575 0.671875 11.2955 0.671875 10.9335C0.671875 10.3402 1.01121 9.58088 2.62721 9.33888C2.90254 9.30421 3.15454 9.48555 3.19588 9.75888ZM7.92961 2.66675C9.60961 2.66675 10.9756 4.03341 10.9756 5.71275C10.9756 7.39208 9.60961 8.75875 7.92961 8.75875H7.91161C7.09828 8.75608 6.33628 8.43741 5.76561 7.86141C5.19361 7.28608 4.88094 6.52208 4.88425 5.71075C4.88425 4.03341 6.25027 2.66675 7.92961 2.66675ZM7.92961 3.66675C6.80161 3.66675 5.88426 4.58475 5.88426 5.71275C5.88228 6.25941 6.09161 6.77075 6.47494 7.15675C6.85828 7.54275 7.36894 7.75675 7.91294 7.75875L7.92961 8.25875V7.75875C9.05761 7.75875 9.97561 6.84141 9.97561 5.71275C9.97561 4.58475 9.05761 3.66675 7.92961 3.66675ZM12.0556 3.31975C13.2276 3.51241 14.0789 4.51508 14.0789 5.70375C14.0763 6.90041 13.1823 7.92708 11.9989 8.09308C11.9756 8.09641 11.9523 8.09775 11.9296 8.09775C11.6843 8.09775 11.4703 7.91708 11.4349 7.66708C11.3969 7.39308 11.5869 7.14041 11.8609 7.10242C12.5543 7.00508 13.0776 6.40375 13.0789 5.70241C13.0789 5.00708 12.5803 4.41908 11.8929 4.30641C11.6209 4.26175 11.4363 4.00441 11.4809 3.73175C11.5263 3.45908 11.7816 3.27641 12.0556 3.31975ZM4.37827 3.73175C4.42294 4.00441 4.23828 4.26175 3.96627 4.30641C3.27894 4.41908 2.78028 5.00708 2.78028 5.70375C2.78161 6.40375 3.30494 7.00575 3.99761 7.10242C4.27161 7.14041 4.46161 7.39308 4.42361 7.66708C4.38827 7.91708 4.17428 8.09775 3.92894 8.09775C3.90628 8.09775 3.88294 8.09641 3.85961 8.09308C2.67628 7.92708 1.78294 6.90041 1.78028 5.70508C1.78028 4.51508 2.63161 3.51241 3.80361 3.31975C4.08428 3.27575 4.33294 3.46041 4.37827 3.73175Z" fill="#30CBFF"/>
</svg>
