<svg width="16" height="16" viewBox="0 0 16 16" fill="none" xmlns="http://www.w3.org/2000/svg">
<path fill-rule="evenodd" clip-rule="evenodd" d="M10.8841 1.33325C13.1435 1.33325 14.6615 2.91859 14.6615 5.27725V10.7226C14.6615 13.0813 13.1435 14.6666 10.8835 14.6666H5.10479C2.84546 14.6666 1.32812 13.0813 1.32812 10.7226V5.27725C1.32812 2.91859 2.84546 1.33325 5.10479 1.33325H10.8841ZM10.8841 2.33325H5.10479C3.41812 2.33325 2.32812 3.48858 2.32812 5.27725V10.7226C2.32812 12.5113 3.41812 13.6666 5.10479 13.6666H10.8835C12.5708 13.6666 13.6615 12.5113 13.6615 10.7226V5.27725C13.6615 3.48858 12.5715 2.33325 10.8841 2.33325ZM7.99419 4.58899C8.27019 4.58899 8.49419 4.81299 8.49419 5.08899V7.71299L10.5115 8.91498C10.7482 9.05698 10.8262 9.36365 10.6849 9.60098C10.5909 9.75765 10.4249 9.84499 10.2549 9.84499C10.1675 9.84499 10.0795 9.82232 9.99886 9.77498L7.73819 8.42632C7.58752 8.33565 7.49419 8.17232 7.49419 7.99698V5.08899C7.49419 4.81299 7.71819 4.58899 7.99419 4.58899Z" fill="#30CBFF"/>
</svg>
