<svg width="16" height="16" viewBox="0 0 16 16" fill="none" xmlns="http://www.w3.org/2000/svg">
<path fill-rule="evenodd" clip-rule="evenodd" d="M13.2241 12.1287C13.2241 14.3261 10.2107 14.5801 7.94473 14.5801L7.78257 14.5799C6.33887 14.5764 2.66406 14.4853 2.66406 12.1154C2.66406 9.96291 5.5563 9.67524 7.80505 9.6644L8.10688 9.6642C9.55049 9.66771 13.2241 9.75886 13.2241 12.1287ZM7.94473 10.6641C5.10406 10.6641 3.66406 11.1521 3.66406 12.1154C3.66406 13.0874 5.10406 13.5801 7.94473 13.5801C10.7847 13.5801 12.2241 13.0921 12.2241 12.1287C12.2241 11.1567 10.7847 10.6641 7.94473 10.6641ZM7.94473 1.33313C9.89673 1.33313 11.4841 2.92113 11.4841 4.87313C11.4841 6.82513 9.89673 8.41246 7.94473 8.41246H7.9234C5.9754 8.40646 4.3974 6.8178 4.40404 4.87113C4.40404 2.92113 5.99206 1.33313 7.94473 1.33313ZM7.94473 2.28513C6.5174 2.28513 5.35605 3.4458 5.35605 4.87313C5.3514 6.2958 6.50406 7.4558 7.9254 7.46113L7.94473 7.93713V7.46113C9.3714 7.46113 10.5321 6.2998 10.5321 4.87313C10.5321 3.4458 9.3714 2.28513 7.94473 2.28513Z" fill="#30CBFF"/>
</svg>
