<svg width="16" height="17" fill="none" xmlns="http://www.w3.org/2000/svg"><path d="M11.226 4.364a.5.5 0 0 1 .495.432l.005.068v7.867l1.864-1.872a.5.5 0 0 1 .757.65l-.048.056-2.719 2.73a.533.533 0 0 1-.05.045l.05-.044a.504.504 0 0 1-.138.098l-.03.013a.39.39 0 0 1-.039.014l-.024.007a.436.436 0 0 1-.043.009l-.021.002a.428.428 0 0 1-.05.004h-.019a.496.496 0 0 1-.048-.003l.058.003a.501.501 0 0 1-.123-.015l-.023-.007a.397.397 0 0 1-.043-.015l-.022-.01a.345.345 0 0 1-.034-.017l-.03-.019a.304.304 0 0 1-.023-.015l-.006-.005a.492.492 0 0 1-.05-.044l-2.719-2.731a.5.5 0 0 1 .653-.754l.056.048 1.864 1.873V4.864a.5.5 0 0 1 .5-.5zM4.607 2.555h.01a.5.5 0 0 1 .049.003l-.059-.003a.504.504 0 0 1 .123.015l.025.007a.383.383 0 0 1 .038.014l.028.012a.34.34 0 0 1 .032.016l.026.016a.313.313 0 0 1 .026.018l.057.05 2.718 2.73a.5.5 0 0 1-.653.754l-.056-.048-1.864-1.874v7.869a.5.5 0 0 1-.995.068l-.005-.068V4.266L2.243 6.139a.5.5 0 0 1-.65.05l-.057-.049a.5.5 0 0 1-.05-.65l.048-.057 2.719-2.73.03-.028a.493.493 0 0 1 .02-.017l-.05.044a.502.502 0 0 1 .207-.125l.025-.007a.397.397 0 0 1 .04-.008l.025-.004a.41.41 0 0 1 .047-.003h.01z" fill="#30CBFF"/></svg>