<svg width="16" height="16" viewBox="0 0 16 16" fill="none" xmlns="http://www.w3.org/2000/svg">
<path fill-rule="evenodd" clip-rule="evenodd" d="M9.31607 1.3335C9.3447 1.3335 9.37277 1.33591 9.40009 1.34054L9.49133 1.3411C9.62733 1.3411 9.75733 1.39643 9.852 1.49443L13.2287 5.01243C13.318 5.1051 13.3681 5.22976 13.3681 5.35843V11.4691C13.38 13.1418 12.0773 14.5084 10.402 14.5764L5.056 14.5771H4.98333C3.35004 14.5402 2.04011 13.2192 2.0002 11.6019L2 4.3271C2.03867 2.6731 3.40467 1.3411 5.04667 1.3411L9.23204 1.34054C9.25936 1.33591 9.28743 1.3335 9.31607 1.3335ZM8.816 2.34083L5.048 2.3411C3.94333 2.3411 3.026 3.23576 3 4.3391V11.4691C2.97533 12.6111 3.87533 13.5518 5.006 13.5771H10.382C11.4947 13.5311 12.376 12.6064 12.3681 11.4731L12.368 5.98883L11.0281 5.9895C9.80807 5.98616 8.81607 4.9915 8.81607 3.77283L8.816 2.34083ZM9.19153 9.7389C9.46753 9.7389 9.69153 9.9629 9.69153 10.2389C9.69153 10.5149 9.46753 10.7389 9.19153 10.7389H5.59153C5.31553 10.7389 5.09153 10.5149 5.09153 10.2389C5.09153 9.9629 5.31553 9.7389 5.59153 9.7389H9.19153ZM7.82827 7.23756C8.10427 7.23756 8.32827 7.46156 8.32827 7.73756C8.32827 8.01356 8.10427 8.23756 7.82827 8.23756H5.59093C5.31493 8.23756 5.09093 8.01356 5.09093 7.73756C5.09093 7.46156 5.31493 7.23756 5.59093 7.23756H7.82827ZM9.816 2.9015L9.81607 3.77283C9.81607 4.44216 10.3607 4.9875 11.0294 4.9895L11.82 4.98883L9.816 2.9015Z" fill="#30CBFF"/>
</svg>
