<svg width="20" height="18" viewBox="0 0 20 18" fill="none" xmlns="http://www.w3.org/2000/svg">
<path d="M19.6004 8.03912C19.5999 7.54803 19.4585 7.0674 19.1929 6.65432C18.9273 6.24123 18.5488 5.91306 18.1022 5.70876C17.6556 5.50447 17.1598 5.43264 16.6736 5.50181C16.1874 5.57099 15.7313 5.77826 15.3594 6.099C14.0125 5.38548 12.4091 4.95257 10.7336 4.85636L11.1504 2.35505L12.8982 2.62763C12.9801 3.0784 13.219 3.48561 13.5725 3.77714C13.9259 4.06867 14.3711 4.22571 14.8293 4.22044C15.2874 4.21518 15.7289 4.04795 16.0755 3.74837C16.4222 3.44879 16.6516 3.0362 16.7232 2.58366C16.7948 2.13113 16.704 1.66785 16.4668 1.27589C16.2295 0.88392 15.8612 0.588559 15.4271 0.442111C14.993 0.295664 14.521 0.307582 14.0948 0.475754C13.6686 0.643925 13.3157 0.957499 13.0986 1.36094L10.7175 0.992155C10.5508 0.966689 10.3807 1.00794 10.2442 1.10698C10.1076 1.20602 10.0156 1.35486 9.98798 1.52128L9.4348 4.84834C7.68709 4.9205 6.00352 5.35342 4.60054 6.099C4.0892 5.67624 3.43397 5.46802 2.77238 5.51805C2.1108 5.56808 1.49433 5.87247 1.05239 6.36732C0.610446 6.86217 0.377403 7.509 0.402182 8.17201C0.426962 8.83501 0.707637 9.46264 1.18529 9.92312C1.06401 10.3536 1.00198 10.7987 1.00089 11.2459C1.00089 13.0017 1.96294 14.6451 3.71867 15.8557C5.47439 17.0663 7.62296 17.6595 9.97996 17.6595C12.337 17.6595 14.5577 17.0182 16.2413 15.8557C17.9248 14.6932 18.959 13.0017 18.959 11.2459C18.9585 10.8013 18.8965 10.3588 18.7746 9.93114C19.0343 9.68895 19.2415 9.3961 19.3835 9.07068C19.5256 8.74526 19.5994 8.39418 19.6004 8.03912ZM5.49043 10.2839C5.49043 10.0302 5.56566 9.78219 5.70661 9.57124C5.84755 9.3603 6.04789 9.19589 6.28227 9.0988C6.51666 9.00172 6.77457 8.97632 7.0234 9.02581C7.27222 9.0753 7.50078 9.19747 7.68017 9.37686C7.85957 9.55626 7.98173 9.78482 8.03123 10.0336C8.08072 10.2825 8.05532 10.5404 7.95823 10.7748C7.86115 11.0092 7.69674 11.2095 7.4858 11.3504C7.27485 11.4914 7.02685 11.5666 6.77315 11.5666C6.43295 11.5666 6.10669 11.4315 5.86613 11.1909C5.62557 10.9504 5.49043 10.6241 5.49043 10.2839ZM12.9222 14.3806C12.0124 14.8496 11.0036 15.0943 9.97996 15.0943C8.95635 15.0943 7.94756 14.8496 7.03771 14.3806C6.89794 14.2969 6.79525 14.1631 6.75051 14.0065C6.70577 13.8498 6.72232 13.682 6.79681 13.5371C6.8713 13.3922 6.99814 13.2811 7.15158 13.2263C7.30501 13.1715 7.47355 13.1772 7.62296 13.2422C8.35189 13.6177 9.15999 13.8136 9.97996 13.8136C10.7999 13.8136 11.608 13.6177 12.337 13.2422C12.4864 13.1772 12.6549 13.1715 12.8083 13.2263C12.9618 13.2811 13.0886 13.3922 13.1631 13.5371C13.2376 13.682 13.2542 13.8498 13.2094 14.0065C13.1647 14.1631 13.062 14.2969 12.9222 14.3806ZM13.1868 11.5666C12.9331 11.5666 12.6851 11.4914 12.4741 11.3504C12.2632 11.2095 12.0988 11.0092 12.0017 10.7748C11.9046 10.5404 11.8792 10.2825 11.9287 10.0336C11.9782 9.78482 12.1004 9.55626 12.2797 9.37686C12.4591 9.19747 12.6877 9.0753 12.9365 9.02581C13.1853 8.97632 13.4433 9.00172 13.6776 9.0988C13.912 9.19589 14.1124 9.3603 14.2533 9.57124C14.3943 9.78219 14.4695 10.0302 14.4695 10.2839C14.4695 10.6241 14.3344 10.9504 14.0938 11.1909C13.8532 11.4315 13.527 11.5666 13.1868 11.5666Z" fill="black"/></svg>
