<svg width="16" height="16" viewBox="0 0 16 16" fill="none" xmlns="http://www.w3.org/2000/svg">
<path fill-rule="evenodd" clip-rule="evenodd" d="M10.8628 1.33325C11.9348 1.33325 12.8595 1.69125 13.5361 2.36925C14.2435 3.07725 14.6315 4.10725 14.6301 5.26992L14.6311 9.93418C14.6323 9.95213 14.6325 9.97012 14.6317 9.98808L14.6301 10.6999C14.6301 13.0539 13.1148 14.6359 10.8595 14.6359H5.09546C2.84212 14.6359 1.32812 13.0539 1.32812 10.6999V5.26925C1.32812 2.91525 2.84212 1.33325 5.09546 1.33325H10.8628ZM11.0472 8.55478C10.6552 8.55478 10.1952 9.20345 9.78786 9.77612C9.22919 10.5628 8.65119 11.3768 7.78053 11.3768C7.19186 11.3768 6.65253 11.1501 6.17719 10.9495C5.42119 10.6308 5.07853 10.5288 4.74319 10.8048C4.07192 11.3579 3.40865 12.3652 3.10388 12.8609C3.58491 13.3568 4.26823 13.6359 5.09546 13.6359H10.8595C12.5428 13.6359 13.6301 12.4839 13.6301 10.6999L13.6301 10.1673L13.6148 10.151C13.0311 9.54977 12.0234 8.55478 11.0472 8.55478ZM10.8628 2.33325H5.09546C3.41479 2.33325 2.32812 3.48592 2.32812 5.26925V10.6999C2.32812 11.1456 2.39596 11.5519 2.52394 11.9106C2.90973 11.3281 3.49239 10.5395 4.10786 10.0328C4.94253 9.34612 5.84119 9.72345 6.56519 10.0281C6.99119 10.2075 7.39386 10.3768 7.78053 10.3768C8.13519 10.3768 8.57986 9.75012 8.97319 9.19745C9.51919 8.42678 10.1392 7.55479 11.0472 7.55479C12.0437 7.55479 12.9462 8.16716 13.6308 8.77488L13.6301 5.26925C13.6315 4.36058 13.3541 3.60192 12.8288 3.07592C12.3435 2.58992 11.6641 2.33325 10.8628 2.33325ZM5.89946 4.12625C6.85346 4.12692 7.62946 4.90292 7.63013 5.85625C7.63013 6.81025 6.85413 7.58692 5.89946 7.58692C4.94479 7.58692 4.16879 6.81092 4.16879 5.85692C4.16879 4.90225 4.94479 4.12625 5.89946 4.12625ZM5.89879 5.12625C5.49613 5.12625 5.16879 5.45359 5.16879 5.85692C5.16879 6.25958 5.49613 6.58692 5.89946 6.58692C6.30212 6.58692 6.63013 6.25958 6.63013 5.85758C6.62946 5.45425 6.30146 5.12692 5.89879 5.12625Z" fill="#30CBFF"/>
</svg>
