<svg width="16" height="16" viewBox="0 0 16 16" fill="none" xmlns="http://www.w3.org/2000/svg">
<path fill-rule="evenodd" clip-rule="evenodd" d="M6.88282 13.404C7.22815 13.7886 7.67148 14 8.13148 14H8.13215C8.59415 14 9.03948 13.7886 9.38548 13.4033C9.57082 13.1986 9.88682 13.182 10.0915 13.3666C10.2968 13.5513 10.3135 13.868 10.1288 14.0726C9.59015 14.6706 8.88148 15 8.13215 15H8.13082C7.38348 14.9993 6.67615 14.67 6.13948 14.072C5.95482 13.8673 5.97148 13.5506 6.17682 13.3666C6.38215 13.1813 6.69815 13.198 6.88282 13.404ZM8.16468 0.666626C11.128 0.666626 13.1187 2.97463 13.1187 5.12996C13.1187 6.23863 13.4007 6.70863 13.7 7.20729C13.996 7.69929 14.3314 8.25796 14.3314 9.31396C14.0987 12.012 11.282 12.232 8.16468 12.232C5.04735 12.232 2.23002 12.012 2.00001 9.35663C1.99802 8.25796 2.33335 7.69929 2.62935 7.20729L2.73385 7.0314C2.99113 6.5892 3.21068 6.10819 3.21068 5.12996C3.21068 2.97463 5.20135 0.666626 8.16468 0.666626ZM8.16468 1.66663C5.83468 1.66663 4.21068 3.49196 4.21068 5.12996C4.21068 6.51596 3.82602 7.15663 3.48602 7.72196C3.21335 8.17596 2.99802 8.53463 2.99802 9.31396C3.10935 10.5713 3.93935 11.232 8.16468 11.232C12.3667 11.232 13.2227 10.542 13.3334 9.27063C13.3314 8.53463 13.116 8.17596 12.8434 7.72196C12.5034 7.15663 12.1187 6.51596 12.1187 5.12996C12.1187 3.49196 10.4947 1.66663 8.16468 1.66663Z" fill="#30CBFF"/>
</svg>
