<svg width="16" height="17" viewBox="0 0 16 17" fill="none" xmlns="http://www.w3.org/2000/svg">
<path fill-rule="evenodd" clip-rule="evenodd" d="M6.46154 0.499756C5.8359 0.499756 5.23589 0.74829 4.79349 1.19068C4.3511 1.63308 4.10256 2.23309 4.10256 2.85873V3.57668H1.84615C1.35652 3.57668 0.886947 3.77118 0.540726 4.1174C0.194505 4.46363 0 4.9332 0 5.42283V8.49976C0 8.71737 0.0864464 8.92607 0.240323 9.07995C0.394199 9.23382 0.6029 9.32027 0.820513 9.32027H2.35897C2.54939 9.32027 2.732 9.39591 2.86664 9.53055C3.00128 9.66519 3.07692 9.84781 3.07692 10.0382C3.07692 10.2286 3.00128 10.4112 2.86664 10.5459C2.732 10.6805 2.54939 10.7562 2.35897 10.7562H0.820513C0.6029 10.7562 0.394199 10.8426 0.240323 10.9965C0.0864464 11.1504 0 11.3591 0 11.5767V14.6536C0 15.1432 0.194505 15.6128 0.540726 15.959C0.886947 16.3053 1.35652 16.4998 1.84615 16.4998H4.92308C5.14069 16.4998 5.34939 16.4133 5.50327 16.2594C5.65714 16.1056 5.74359 15.8969 5.74359 15.6792V14.1408C5.74359 13.9504 5.81923 13.7678 5.95387 13.6331C6.08851 13.4985 6.27113 13.4228 6.46154 13.4228C6.65195 13.4228 6.83456 13.4985 6.9692 13.6331C7.10385 13.7678 7.17949 13.9504 7.17949 14.1408V15.6792C7.17949 15.8969 7.26593 16.1056 7.41981 16.2594C7.57369 16.4133 7.78239 16.4998 8 16.4998H11.0769C11.5666 16.4998 12.0361 16.3053 12.3824 15.959C12.7286 15.6128 12.9231 15.1432 12.9231 14.6536V12.3972H13.641C14.2667 12.3972 14.8667 12.1487 15.3091 11.7063C15.7515 11.2639 16 10.6639 16 10.0382C16 9.41258 15.7515 8.81256 15.3091 8.37017C14.8667 7.92778 14.2667 7.67924 13.641 7.67924H12.9231V5.42283C12.9231 4.9332 12.7286 4.46363 12.3824 4.1174C12.0361 3.77118 11.5666 3.57668 11.0769 3.57668H8.82051V2.85873C8.82051 2.23309 8.57198 1.63308 8.12959 1.19068C7.68719 0.74829 7.08718 0.499756 6.46154 0.499756ZM5.95387 2.35106C6.08851 2.21642 6.27113 2.14078 6.46154 2.14078C6.65195 2.14078 6.83456 2.21642 6.9692 2.35106C7.10385 2.48571 7.17949 2.66832 7.17949 2.85873V4.39719C7.17949 4.61481 7.26593 4.82351 7.41981 4.97738C7.57369 5.13126 7.78239 5.2177 8 5.2177H11.0769C11.1313 5.2177 11.1835 5.23932 11.222 5.27779C11.2604 5.31625 11.2821 5.36843 11.2821 5.42283V8.49976C11.2821 8.71737 11.3685 8.92607 11.5224 9.07995C11.6762 9.23382 11.885 9.32027 12.1026 9.32027H13.641C13.8314 9.32027 14.014 9.39591 14.1487 9.53055C14.2833 9.66519 14.359 9.84781 14.359 10.0382C14.359 10.2286 14.2833 10.4112 14.1487 10.5459C14.014 10.6805 13.8314 10.7562 13.641 10.7562H12.1026C11.885 10.7562 11.6762 10.8426 11.5224 10.9965C11.3685 11.1504 11.2821 11.3591 11.2821 11.5767V14.6536C11.2821 14.708 11.2604 14.7602 11.222 14.7986C11.1835 14.8371 11.1313 14.8587 11.0769 14.8587H8.82051V14.1408C8.82051 13.5151 8.57198 12.9151 8.12959 12.4727C7.68719 12.0303 7.08718 11.7818 6.46154 11.7818C5.8359 11.7818 5.23589 12.0303 4.79349 12.4727C4.3511 12.9151 4.10256 13.5151 4.10256 14.1408V14.8587H1.84615C1.79175 14.8587 1.73957 14.8371 1.70111 14.7986C1.66264 14.7602 1.64103 14.708 1.64103 14.6536V12.3972H2.35897C2.98461 12.3972 3.58463 12.1487 4.02702 11.7063C4.46941 11.2639 4.71795 10.6639 4.71795 10.0382C4.71795 9.41258 4.46941 8.81256 4.02702 8.37017C3.58463 7.92778 2.98461 7.67924 2.35897 7.67924H1.64103V5.42283C1.64103 5.36843 1.66264 5.31625 1.70111 5.27779C1.73958 5.23932 1.79175 5.2177 1.84615 5.2177H4.92308C5.14069 5.2177 5.34939 5.13126 5.50327 4.97738C5.65714 4.82351 5.74359 4.61481 5.74359 4.39719V2.85873C5.74359 2.66832 5.81923 2.48571 5.95387 2.35106Z" fill='black'/>
</svg>
