<svg width="20" height="16" fill="none" xmlns="http://www.w3.org/2000/svg"><path d="M19.6 2.054a7.89 7.89 0 0 1-2.266.609A3.925 3.925 0 0 0 19.066.494a7.768 7.768 0 0 1-2.497.95A3.924 3.924 0 0 0 13.693.202 3.934 3.934 0 0 0 9.76 4.137c0 .305.037.61.097.903A11.181 11.181 0 0 1 1.743.92a3.907 3.907 0 0 0-.535 1.988c0 1.366.695 2.57 1.754 3.278a3.969 3.969 0 0 1-1.78-.5v.048a3.935 3.935 0 0 0 3.155 3.863A4.167 4.167 0 0 1 3.3 9.73c-.256 0-.499-.026-.743-.06a3.942 3.942 0 0 0 3.678 2.73 7.886 7.886 0 0 1-4.885 1.681c-.33 0-.634-.011-.95-.048a11.142 11.142 0 0 0 6.043 1.765c7.236 0 11.195-5.995 11.195-11.198 0-.17 0-.341-.011-.512A8.475 8.475 0 0 0 19.6 2.054z" fill="#000"/></svg>