<svg width="40" height="40" fill="none" xmlns="http://www.w3.org/2000/svg"><g clip-path="url(#clip0_971_4236)" fill="#E65069"><path d="M19.819 21.631l7.5 5.625a1.252 1.252 0 0 0 1.987-1.177 1.248 1.248 0 0 0-.487-.823L21.875 20V9.375a1.25 1.25 0 0 0-2.5 0v11.25c0 .415.174.789.444 1.006z"/><path d="M21.252 1.25c-9.15 0-16.963 6.604-18.488 15.625l-.475-.706a1.251 1.251 0 1 0-2.075 1.4l2.5 3.75a1.25 1.25 0 0 0 .913.556h.125a1.248 1.248 0 0 0 .88-.369l3.126-3.125a1.251 1.251 0 0 0-1.769-1.768l-.775.78C6.654 8.536 15.002 2.522 23.86 3.962c8.858 1.439 14.873 9.787 13.433 18.645A16.25 16.25 0 0 1 21.252 36.25 15.381 15.381 0 0 1 8.52 29.9a1.25 1.25 0 0 0-2.037 1.45 17.856 17.856 0 0 0 14.769 7.4c10.355 0 18.75-8.394 18.75-18.75S31.607 1.25 21.252 1.25z"/></g><defs><clipPath id="clip0_971_4236"><path fill="#fff" d="M0 0h40v40H0z"/></clipPath></defs></svg>