<svg width="40" height="40" viewBox="0 0 40 40" fill="none" xmlns="http://www.w3.org/2000/svg">
<g clip-path="url(#clip0_971_4236)">
<path d="M19.8187 21.6313L27.3187 27.2563C27.4501 27.3547 27.5995 27.4264 27.7585 27.4671C27.9175 27.5079 28.083 27.5169 28.2455 27.4937C28.408 27.4705 28.5644 27.4155 28.7056 27.3318C28.8469 27.2482 28.9703 27.1376 29.0687 27.0062C29.1672 26.8749 29.2389 26.7255 29.2796 26.5665C29.3204 26.4075 29.3294 26.242 29.3062 26.0795C29.283 25.917 29.228 25.7606 29.1443 25.6194C29.0607 25.4781 28.9501 25.3547 28.8188 25.2563L21.875 20V9.375C21.875 9.04348 21.7433 8.72554 21.5089 8.49112C21.2745 8.2567 20.9565 8.125 20.625 8.125C20.2935 8.125 19.9755 8.2567 19.7411 8.49112C19.5067 8.72554 19.375 9.04348 19.375 9.375V20.625C19.375 21.04 19.5487 21.4138 19.8187 21.6313Z" fill="#E65069"/>
<path d="M21.2516 1.25C12.1022 1.25 4.28907 7.85375 2.76407 16.875L2.28907 16.1688C2.10342 15.8936 1.81606 15.7034 1.49022 15.6402C1.16437 15.5769 0.826729 15.6456 0.551567 15.8313C0.276405 16.0169 0.0862622 16.3043 0.0229686 16.6301C-0.0403249 16.9559 0.0284151 17.2936 0.214067 17.5688L2.71407 21.3188C2.81559 21.4732 2.95009 21.6031 3.10788 21.6993C3.26566 21.7955 3.44281 21.8555 3.62657 21.875H3.75157C3.91548 21.8744 4.07768 21.8416 4.22889 21.7783C4.3801 21.715 4.51735 21.6226 4.63282 21.5063L7.75782 18.3813C7.98096 18.1444 8.10305 17.83 8.09821 17.5046C8.09336 17.1792 7.96195 16.8685 7.73186 16.6385C7.50177 16.4084 7.19109 16.277 6.86573 16.2721C6.54036 16.2673 6.22591 16.3894 5.98907 16.6125L5.21407 17.3937C6.65344 8.535 15.0016 2.52125 23.8597 3.96062C32.7178 5.4 38.7328 13.7475 37.2934 22.6062C36.0153 30.4725 29.2209 36.2513 21.2516 36.25C18.775 36.2949 16.3242 35.741 14.1076 34.6354C11.8911 33.5299 9.97429 31.9053 8.52032 29.9C8.42511 29.7662 8.30448 29.6525 8.16532 29.5653C8.02617 29.4782 7.8712 29.4193 7.70928 29.392C7.54736 29.3647 7.38165 29.3696 7.22161 29.4064C7.06158 29.4431 6.91035 29.511 6.77657 29.6062C6.64278 29.7015 6.52906 29.8221 6.44189 29.9612C6.35473 30.1004 6.29583 30.2554 6.26855 30.4173C6.24127 30.5792 6.24615 30.7449 6.28292 30.905C6.31968 31.065 6.38761 31.2162 6.48282 31.35C8.1666 33.6817 10.3887 35.5721 12.96 36.8605C15.5314 38.1489 18.3759 38.7971 21.2516 38.75C31.6072 38.75 40.0016 30.3556 40.0016 20C40.0016 9.64437 31.6072 1.25 21.2516 1.25Z" fill="#E65069"/>
</g>
<defs>
<clipPath id="clip0_971_4236">
<rect width="40" height="40" fill="white"/>
</clipPath>
</defs>
</svg>
