<svg width="40" height="40" viewBox="0 0 40 40" fill="none" xmlns="http://www.w3.org/2000/svg">
<path d="M0 5.9751V29.8032C0.000951194 30.6525 0.338728 31.4666 0.939224 32.0671C1.53972 32.6676 2.3539 33.0054 3.20312 33.0063H12.871L11.5162 35.3531C11.4065 35.5431 11.3487 35.7586 11.3487 35.9781C11.3487 36.1975 11.4065 36.413 11.5162 36.6031C11.6259 36.7931 11.7837 36.9509 11.9737 37.0606C12.1637 37.1703 12.3793 37.2281 12.5987 37.2281H27.4012C27.6207 37.2281 27.8362 37.1703 28.0263 37.0606C28.2163 36.9509 28.3741 36.7931 28.4838 36.6031C28.5935 36.4131 28.6513 36.1975 28.6513 35.9781C28.6513 35.7587 28.5935 35.5431 28.4838 35.3531L27.129 33.0063H36.7969C37.6461 33.0054 38.4603 32.6676 39.0608 32.0671C39.6613 31.4666 39.9991 30.6525 40 29.8032V5.9751C39.999 5.12587 39.6612 4.31171 39.0608 3.71122C38.4603 3.11073 37.6461 2.77294 36.7969 2.77197H3.20312C2.3539 2.77294 1.53974 3.11073 0.939247 3.71122C0.338755 4.31171 0.00097183 5.12587 0 5.9751ZM25.2362 34.7281H14.7638L15.7578 33.0063H24.2422L25.2362 34.7281ZM36.7969 30.5063H3.20312C3.01671 30.5061 2.83799 30.432 2.70617 30.3002C2.57435 30.1684 2.50021 29.9896 2.5 29.8032V28.0547H37.5V29.8034C37.4998 29.9898 37.4256 30.1685 37.2938 30.3002C37.162 30.432 36.9833 30.5061 36.7969 30.5063ZM37.5 5.9751V25.5547H2.5V5.9751C2.50023 5.78869 2.57438 5.60998 2.70619 5.47816C2.838 5.34635 3.01671 5.2722 3.20312 5.27197H36.7969C36.9833 5.2722 37.162 5.34635 37.2938 5.47816C37.4256 5.60998 37.4998 5.78869 37.5 5.9751Z" fill="#30CBFF"/>
</svg>
