<svg width="44" height="44" fill="none" xmlns="http://www.w3.org/2000/svg"><path d="M6.605 28.6L22.35 12.8c-1.073-1.024-1.943-2.31-3.515-2.64L20.93 8.11c.063.059.241.221.412.392 1.862 1.862 3.71 3.74 5.593 5.582.804.789 1.681 1.504 2.54 2.265-.778 1.15-2.458 1.31-3.546.212-.61-.617-1.177-1.276-1.735-1.879L10.122 28.758 21.977 40.62 40.664 21.92l-3.138-3.071 1.712-1.665L44 21.98 21.996 44 6.606 28.6z" fill="#30CBFF"/><path d="M21.622 31.178c1.116 1.093 2.02 2.347 3.646 2.711l-2.158 2.032c-2.88-2.626-5.445-5.742-8.582-8.255.982-1.208 2.548-1.282 3.675-.095.55.582 1.082 1.184 1.563 1.713l14.091-14.102L22.026 3.34 3.354 22.024l3.138 3.086-1.807 1.61L0 22.037C7.306 14.718 14.688 7.333 22.018 0l15.38 15.393-15.776 15.785z" fill="#30CBFF"/></svg>