<svg width="133" height="43" fill="none" xmlns="http://www.w3.org/2000/svg"><path d="M6.396 27.518L21.64 12.316c-1.039-.985-1.881-2.222-3.403-2.54l2.028-1.974c.061.057.234.213.398.377 1.804 1.792 3.593 3.598 5.416 5.371.78.76 1.628 1.447 2.46 2.18-.754 1.106-2.38 1.26-3.434.203-.59-.594-1.14-1.227-1.68-1.807L9.8 27.669l11.479 11.415L39.372 21.09l-3.038-2.955 1.658-1.603 4.61 4.617-21.305 21.186L6.396 27.518z" fill="#30CBFF"/><path d="M20.935 29.999c1.08 1.05 1.956 2.258 3.53 2.608l-2.088 1.955c-2.79-2.527-5.273-5.525-8.31-7.943.95-1.162 2.467-1.233 3.557-.09.534.558 1.048 1.138 1.514 1.647l13.644-13.568L21.326 3.213 3.247 21.19l3.039 2.97-1.75 1.549L0 21.202C7.074 14.162 14.221 7.056 21.318 0L36.21 14.81 20.935 30z" fill="#30CBFF"/><path d="M118.283 15.26h2.744v4.877c.24-.167.389-.265.531-.37 1.878-1.404 3.748-2.819 5.643-4.2a1.87 1.87 0 0 1 .983-.318 24.484 24.484 0 0 1 3.342.104l-7.738 5.474 8.843 6.254c-1.215 0-2.277-.047-3.333.015-.826.05-1.47-.19-2.123-.687-1.893-1.446-3.832-2.821-5.754-4.224-.081-.06-.167-.112-.346-.232v5.097h-2.792V15.26zM104.645 27.053V17.42h10.424v1.687h-7.983v2.075h4.618v1.687h-4.616v2.348h8.102v1.832l-10.545.004zM74.084 23.317v3.725h-2.328v-9.635c.148-.007.311-.022.479-.022h8.45a3.44 3.44 0 0 1 .618.048c1.005.185 1.447.66 1.486 1.67.031.826.034 1.653 0 2.474-.045 1.058-.598 1.645-1.707 1.682-1.863.062-3.73.043-5.595.056-.446.004-.89.002-1.403.002zm.018-1.703h1.454c1.35 0 2.701.01 4.044-.005.74-.008.944-.22.952-.911 0-.276-.007-.55 0-.826.012-.457-.208-.71-.66-.764a5.399 5.399 0 0 0-.619-.055 924.8 924.8 0 0 0-4.77 0c-.133.008-.266.021-.399.042l-.002 2.519zM58.849 27.068h-2.793v-9.666h-5.453v-2.128h13.653v2.107H58.85v9.687zM101.961 17.416v1.704h-4.7v7.934h-2.398v-7.89h-4.659v-1.748h11.757zM66.205 17.395h2.305v9.65h-2.305v-9.65zM87.53 27.057h-2.317v-9.645h2.317v9.645z" fill="#3A3A3A"/></svg>