<svg width="60" height="60" viewBox="0 0 60 60" fill="none" xmlns="http://www.w3.org/2000/svg">
<rect width="60" height="59.997" rx="13.0472" fill="#E65069" fill-opacity="0.1"/>
<g clip-path="url(#clip0_1236_6743)">
<path d="M17.8212 48.2583C17.7232 48.2583 17.6242 48.2399 17.5298 48.2003C17.2462 48.0833 17.0606 47.805 17.0606 47.4973V42.9324C17.0606 42.5117 17.4013 42.1717 17.8212 42.1717C18.2414 42.1717 18.5822 42.5117 18.5822 42.9324V45.6609L21.8487 42.3946C21.9192 42.3238 22.003 42.2677 22.0953 42.2295C22.1876 42.1912 22.2865 42.1716 22.3865 42.1717H45.2125C46.0518 42.1717 46.7345 41.4891 46.7345 40.6499V19.3468C46.7345 18.5075 46.0518 17.8249 45.2125 17.8249H41.4083C40.9876 17.8249 40.6473 17.4842 40.6473 17.0643C40.6473 16.6441 40.9876 16.3033 41.4083 16.3033H45.2125C46.891 16.3033 48.2561 17.6683 48.2561 19.3468V40.6499C48.2561 42.3283 46.891 43.6933 45.2125 43.6933H22.7016L18.3593 48.0354C18.2165 48.1779 18.023 48.2581 17.8212 48.2583ZM14.7779 43.6933C13.0994 43.6933 11.7344 42.3283 11.7344 40.6499V19.3468C11.7344 17.6683 13.0994 16.3033 14.7779 16.3033H18.5822C19.0021 16.3033 19.3432 16.6441 19.3432 17.0643C19.3432 17.4842 19.0021 17.8249 18.5822 17.8249H14.7779C13.9387 17.8249 13.256 18.5075 13.256 19.3468V40.6499C13.256 41.4891 13.9387 42.1717 14.7779 42.1717C15.1979 42.1717 15.5386 42.5117 15.5386 42.9324C15.5386 43.353 15.1979 43.6933 14.7779 43.6933Z" fill="#E65069"/>
<path d="M40.6479 30.7593H39.8872C39.4665 30.7593 39.1263 30.4183 39.1263 29.9984C39.1263 29.5785 39.4665 29.2375 39.8872 29.2375H40.6479C41.4872 29.2375 42.1698 28.5552 42.1698 27.7159V26.1944C42.1698 25.3551 41.4872 24.6725 40.6479 24.6725H39.8872C39.4665 24.6725 39.1263 24.3318 39.1263 23.9119V22.39C39.1263 17.3558 35.0306 13.26 29.9958 13.26C24.9611 13.26 20.8654 17.3558 20.8654 22.39V23.9119C20.8654 24.3318 20.5246 24.6725 20.1044 24.6725C19.6845 24.6725 19.3438 24.3318 19.3438 23.9119V22.39C19.3438 16.5166 24.1218 11.7385 29.9958 11.7385C35.8698 11.7385 40.6479 16.5166 40.6479 22.39V23.1509C42.3264 23.1509 43.6915 24.5159 43.6915 26.1944V27.7159C43.6915 29.3943 42.3264 30.7593 40.6479 30.7593Z" fill="#E65069"/>
<path d="M20.1011 30.7593H19.3404C17.6619 30.7593 16.2969 29.3943 16.2969 27.7159V26.1943C16.2969 24.5159 17.6619 23.1509 19.3404 23.1509H20.1011C20.5213 23.1509 20.8621 23.4916 20.8621 23.9118V29.9984C20.8621 30.4183 20.5213 30.7593 20.1011 30.7593ZM19.3404 24.6725C18.5012 24.6725 17.8185 25.3551 17.8185 26.1943V27.7159C17.8185 28.5551 18.5012 29.2375 19.3404 29.2375V24.6725ZM29.9925 40.6499C28.7339 40.6499 27.7099 39.626 27.7099 38.3674C27.7099 37.1092 28.7339 36.0849 29.9925 36.0849C30.9848 36.0849 31.8307 36.7211 32.145 37.6068H32.2751C36.0513 37.6068 39.123 34.5352 39.123 30.7593V26.955C39.123 26.5351 39.4632 26.1943 39.8839 26.1943C40.3046 26.1943 40.6446 26.5351 40.6446 26.955V30.7593C40.6446 35.3736 36.8897 39.1284 32.2751 39.1284H31.5142C31.4142 39.1284 31.3153 39.1088 31.2229 39.0706C31.1306 39.0324 31.0467 38.9763 30.976 38.9056C30.9054 38.835 30.8493 38.7511 30.8112 38.6587C30.773 38.5664 30.7534 38.4674 30.7535 38.3674C30.7535 37.9475 30.4118 37.6068 29.9925 37.6068C29.5732 37.6068 29.2316 37.9475 29.2316 38.3674C29.2316 38.7876 29.5732 39.1284 29.9925 39.1284C30.4125 39.1284 30.7535 39.4686 30.7535 39.8893C30.7535 40.31 30.4125 40.6499 29.9925 40.6499ZM36.8404 23.1509C36.4196 23.1509 36.0794 22.8102 36.0794 22.39C36.0794 19.034 33.3487 16.3034 29.9925 16.3034C26.6363 16.3034 23.9057 19.0339 23.9057 22.39C23.9057 22.8101 23.5646 23.1509 23.1447 23.1509C22.7248 23.1509 22.3837 22.8102 22.3837 22.39C22.3837 18.1948 25.7971 14.7819 29.9925 14.7819C34.188 14.7819 37.6013 18.1948 37.6013 22.39C37.6013 22.8101 37.2611 23.1509 36.8404 23.1509ZM26.1883 31.52H27.7099V33.0418H26.1883V31.52ZM29.2316 31.52H30.7535V33.0418H29.2316V31.52Z" fill="#E65069"/>
<path d="M32.2812 31.5202H33.8038V33.0421H32.2812V31.5202Z" fill="#E65069"/>
</g>
<defs>
<clipPath id="clip0_1236_6743">
<rect width="36.5217" height="36.5199" fill="white" transform="translate(11.7344 11.7383)"/>
</clipPath>
</defs>
</svg>
