<svg width="60" height="60" fill="none" xmlns="http://www.w3.org/2000/svg"><rect width="60" height="59.997" rx="13.047" fill="#30CBFF" fill-opacity=".1"/><g clip-path="url(#clip0_437_1040)" fill="#30CBFF"><path d="M17.829 48.258a.76.76 0 0 1-.76-.761v-4.565a.76.76 0 1 1 1.521 0v2.729l3.267-3.266a.756.756 0 0 1 .537-.223H45.22c.84 0 1.522-.683 1.522-1.522V19.347c0-.84-.682-1.522-1.522-1.522h-3.804a.76.76 0 1 1 0-1.522h3.804a3.047 3.047 0 0 1 3.044 3.044V40.65a3.047 3.047 0 0 1-3.044 3.043H22.71l-4.343 4.342a.763.763 0 0 1-.538.223zm-3.043-4.565a3.047 3.047 0 0 1-3.044-3.043V19.347a3.047 3.047 0 0 1 3.044-3.044h3.804a.761.761 0 0 1 0 1.522h-3.804c-.84 0-1.522.683-1.522 1.522V40.65c0 .84.683 1.522 1.522 1.522a.76.76 0 1 1 0 1.521z"/><path d="M40.658 30.76h-.761a.76.76 0 1 1 0-1.523h.76c.84 0 1.523-.682 1.523-1.521v-1.522c0-.839-.683-1.521-1.522-1.521h-.761a.76.76 0 0 1-.761-.761V22.39c0-5.034-4.096-9.13-9.13-9.13-5.035 0-9.13 4.096-9.13 9.13v1.522a.761.761 0 0 1-1.523 0V22.39c0-5.873 4.779-10.652 10.653-10.652 5.874 0 10.652 4.779 10.652 10.652v.76a3.047 3.047 0 0 1 3.043 3.044v1.522a3.047 3.047 0 0 1-3.043 3.043z"/><path d="M20.109 30.76h-.76a3.047 3.047 0 0 1-3.044-3.044v-1.522a3.047 3.047 0 0 1 3.043-3.043h.76c.421 0 .762.34.762.76v6.087c0 .42-.34.761-.761.761zm-.76-6.088c-.84 0-1.523.683-1.523 1.522v1.522c0 .84.683 1.521 1.522 1.521v-4.564zM30 40.65a2.285 2.285 0 0 1-2.282-2.283A2.285 2.285 0 0 1 30 36.085c.993 0 1.839.636 2.153 1.522h.13a6.855 6.855 0 0 0 6.848-6.848v-3.804a.76.76 0 1 1 1.521 0v3.804c0 4.615-3.755 8.37-8.369 8.37h-.761a.762.762 0 0 1-.76-.762.762.762 0 1 0-.762.761.76.76 0 1 1 0 1.522zm6.848-17.5a.76.76 0 0 1-.76-.76A6.094 6.094 0 0 0 30 16.303a6.094 6.094 0 0 0-6.087 6.087.761.761 0 0 1-1.521 0c0-4.195 3.413-7.608 7.608-7.608 4.196 0 7.61 3.413 7.61 7.608 0 .42-.341.76-.762.76zm-10.652 8.37h1.522v1.522h-1.522V31.52zm3.043 0h1.522v1.522H29.24V31.52z"/><path d="M32.29 31.52h1.522v1.522h-1.523V31.52z"/></g><defs><clipPath id="clip0_437_1040"><path fill="#fff" transform="translate(11.738 11.738)" d="M0 0h36.522v36.52H0z"/></clipPath></defs></svg>