<svg width="60" height="61" viewBox="0 0 60 61" fill="none" xmlns="http://www.w3.org/2000/svg">
<rect y="0.99707" width="60" height="59.997" rx="13.0472" fill="#E65069" fill-opacity="0.1"/>
<path d="M45.3749 45.838H45.1352V29.3025C45.1352 29.1511 45.0751 29.006 44.9681 28.899C44.8611 28.792 44.7159 28.7319 44.5646 28.7319H40.3999C40.2486 28.7319 40.1034 28.792 39.9964 28.899C39.8894 29.006 39.8293 29.1511 39.8293 29.3025V45.838H38.8889V35.5497C38.8889 35.3983 38.8287 35.2532 38.7217 35.1462C38.6147 35.0392 38.4696 34.979 38.3182 34.979H34.1524C34.0011 34.979 33.856 35.0392 33.7489 35.1462C33.6419 35.2532 33.5818 35.3983 33.5818 35.5497V45.838H32.6419V31.3847C32.6419 31.2333 32.5818 31.0882 32.4748 30.9812C32.3678 30.8742 32.2226 30.8141 32.0713 30.8141H27.9067C27.7553 30.8141 27.6102 30.8742 27.5031 30.9812C27.3961 31.0882 27.336 31.2333 27.336 31.3847V45.8386H26.395V35.5491C26.395 35.3978 26.3349 35.2526 26.2279 35.1456C26.1208 35.0386 25.9757 34.9785 25.8243 34.9785H21.6592C21.5078 34.9785 21.3627 35.0386 21.2556 35.1456C21.1486 35.2526 21.0885 35.3978 21.0885 35.5491V45.838H20.1481V40.1295C20.1481 39.9782 20.0879 39.833 19.9809 39.726C19.8739 39.619 19.7288 39.5589 19.5774 39.5589H15.4122C15.2609 39.5589 15.1157 39.619 15.0087 39.726C14.9017 39.833 14.8416 39.9782 14.8416 40.1295V45.8374H14.6019C14.4506 45.8374 14.3054 45.8976 14.1984 46.0046C14.0914 46.1116 14.0312 46.2567 14.0312 46.4081C14.0312 46.5594 14.0914 46.7045 14.1984 46.8116C14.3054 46.9186 14.4506 46.9787 14.6019 46.9787H45.3749C45.5262 46.9787 45.6714 46.9186 45.7784 46.8116C45.8854 46.7045 45.9455 46.5594 45.9455 46.4081C45.9455 46.2567 45.8854 46.1116 45.7784 46.0046C45.6714 45.8976 45.5262 45.8374 45.3749 45.8374V45.838ZM19.0062 45.838H15.9829V40.7001H19.0062V45.838ZM25.2531 45.838H22.2292V36.1203H25.2537L25.2531 45.838ZM31.5001 45.838H28.4767V31.9553H31.5001V45.838ZM37.7476 45.838H34.7231V36.1203H37.7476V45.838ZM43.9939 45.838H40.9706V29.8731H43.9939V45.838ZM20.8705 28.1538C22.1689 28.1538 23.4381 27.7688 24.5177 27.0475C25.5973 26.3262 26.4387 25.301 26.9356 24.1015C27.4325 22.902 27.5625 21.5821 27.3092 20.3087C27.0559 19.0353 26.4306 17.8656 25.5125 16.9476C24.5944 16.0295 23.4247 15.4043 22.1512 15.151C20.8778 14.8977 19.5578 15.0277 18.3583 15.5246C17.1587 16.0214 16.1334 16.8628 15.4121 17.9423C14.6908 19.0219 14.3057 20.291 14.3057 21.5894C14.3077 23.3298 15 24.9983 16.2307 26.229C17.4614 27.4596 19.13 28.1519 20.8705 28.1538ZM20.8705 16.1656C21.9432 16.1656 22.9917 16.4836 23.8836 17.0795C24.7755 17.6754 25.4706 18.5224 25.8811 19.5133C26.2916 20.5042 26.399 21.5946 26.1898 22.6466C25.9806 23.6986 25.4641 24.6649 24.7057 25.4234C23.9473 26.1818 22.9809 26.6984 21.9289 26.9077C20.8769 27.117 19.7865 27.0097 18.7954 26.5993C17.8044 26.189 16.9573 25.4939 16.3613 24.6022C15.7653 23.7104 15.4472 22.6619 15.447 21.5894C15.4485 20.1514 16.0204 18.7729 17.0372 17.756C18.0539 16.7392 19.4325 16.1672 20.8705 16.1656Z" fill="#E65069"/>
<path d="M24.9494 29.0359C24.6403 28.761 24.2482 28.5972 23.8354 28.5704C23.4226 28.5437 23.0127 28.6554 22.6706 28.888C22.3286 29.1207 22.074 29.4608 21.9472 29.8545C21.8203 30.2483 21.8286 30.6731 21.9706 31.0616L18.5558 33.6499C18.1816 33.3798 17.723 33.2528 17.2631 33.292C16.8033 33.3311 16.3727 33.5339 16.0496 33.8634C15.7265 34.1929 15.5323 34.6274 15.5022 35.0879C15.4721 35.5484 15.6081 36.0045 15.8855 36.3732C16.163 36.742 16.5635 36.9991 17.0144 37.0978C17.4652 37.1965 17.9365 37.1303 18.3427 36.9111C18.7488 36.692 19.063 36.3345 19.2281 35.9036C19.3931 35.4726 19.3982 34.9967 19.2423 34.5623L22.6571 31.9734C22.9668 32.1955 23.3372 32.3172 23.7182 32.322C24.0993 32.3267 24.4726 32.2143 24.7877 32C25.1028 31.7857 25.3445 31.4798 25.4801 31.1237C25.6157 30.7675 25.6386 30.3784 25.5458 30.0088L28.7574 28.0578C29.0934 28.3564 29.5273 28.5214 29.9769 28.5214C30.4264 28.5214 30.8603 28.3564 31.1964 28.0578L34.408 30.0093C34.3345 30.3035 34.3337 30.6112 34.4054 30.9058C34.4772 31.2004 34.6195 31.4732 34.8201 31.7006C35.0206 31.928 35.2735 32.1033 35.5568 32.2114C35.8401 32.3195 36.1455 32.3571 36.4466 32.3211C36.7476 32.285 37.0355 32.1764 37.2853 32.0044C37.535 31.8325 37.7393 31.6024 37.8805 31.3341C38.0217 31.0657 38.0955 30.7671 38.0957 30.4638C38.0959 30.1606 38.0224 29.8619 37.8815 29.5934L42.2071 25.268V26.1086C42.2071 26.2599 42.2672 26.405 42.3742 26.512C42.4812 26.6191 42.6264 26.6792 42.7777 26.6792C42.9291 26.6792 43.0742 26.6191 43.1813 26.512C43.2883 26.405 43.3484 26.2599 43.3484 26.1086V23.8249C43.3484 23.6736 43.2883 23.5284 43.1813 23.4214C43.0742 23.3144 42.9291 23.2543 42.7777 23.2543H40.4951C40.3438 23.2543 40.1986 23.3144 40.0916 23.4214C39.9846 23.5284 39.9245 23.6736 39.9245 23.8249C39.9245 23.9763 39.9846 24.1214 40.0916 24.2284C40.1986 24.3354 40.3438 24.3955 40.4951 24.3955H41.4658L37.0752 28.7865C36.746 28.6109 36.3707 28.5406 36.0002 28.5852C35.6298 28.6298 35.2819 28.7871 35.0037 29.0359L31.7927 27.0843C31.8617 26.8084 31.8669 26.5203 31.8079 26.2421C31.7489 25.9638 31.6273 25.7027 31.4522 25.4785C31.2772 25.2542 31.0533 25.0729 30.7977 24.9482C30.542 24.8234 30.2613 24.7586 29.9769 24.7586C29.6924 24.7586 29.4117 24.8234 29.1561 24.9482C28.9004 25.0729 28.6766 25.2542 28.5015 25.4785C28.3265 25.7027 28.2048 25.9638 28.1458 26.2421C28.0868 26.5203 28.092 26.8084 28.1611 27.0843L24.9494 29.0359ZM17.4824 35.9102C17.338 35.9099 17.1969 35.8669 17.0769 35.7865C16.957 35.7061 16.8635 35.592 16.8084 35.4585C16.7533 35.325 16.739 35.1782 16.7673 35.0366C16.7956 34.895 16.8653 34.7649 16.9675 34.6629C17.0697 34.5609 17.1998 34.4914 17.3415 34.4633C17.4832 34.4352 17.63 34.4498 17.7634 34.5051C17.8968 34.5604 18.0108 34.654 18.091 34.7741C18.1712 34.8942 18.214 35.0353 18.214 35.1798C18.2137 35.3736 18.1365 35.5594 17.9993 35.6963C17.8622 35.8332 17.6763 35.9102 17.4824 35.9102ZM23.7299 31.1745C23.5855 31.1744 23.4443 31.1315 23.3243 31.0512C23.2042 30.9709 23.1107 30.8567 23.0555 30.7233C23.0003 30.5898 22.9859 30.443 23.0142 30.3013C23.0424 30.1597 23.112 30.0296 23.2142 29.9275C23.3164 29.8254 23.4465 29.7559 23.5882 29.7277C23.7299 29.6996 23.8767 29.7141 24.0102 29.7694C24.1436 29.8247 24.2577 29.9183 24.3379 30.0384C24.4181 30.1585 24.4609 30.2997 24.4609 30.4442C24.4606 30.6379 24.3835 30.8236 24.2465 30.9605C24.1094 31.0974 23.9237 31.1744 23.7299 31.1745ZM36.2238 29.7138C36.3682 29.7139 36.5094 29.7568 36.6295 29.8371C36.7495 29.9175 36.843 30.0316 36.8982 30.165C36.9534 30.2985 36.9678 30.4453 36.9396 30.587C36.9113 30.7286 36.8417 30.8587 36.7395 30.9608C36.6373 31.0629 36.5072 31.1324 36.3655 31.1606C36.2238 31.1887 36.077 31.1742 35.9436 31.1189C35.8101 31.0636 35.6961 30.97 35.6159 30.8499C35.5356 30.7298 35.4928 30.5886 35.4928 30.4442C35.4931 30.2504 35.5702 30.0647 35.7073 29.9278C35.8443 29.7909 36.0301 29.7139 36.2238 29.7138ZM29.9769 25.918C30.1213 25.918 30.2626 25.9608 30.3827 26.0411C30.5028 26.1213 30.5964 26.2354 30.6517 26.3689C30.707 26.5023 30.7215 26.6492 30.6933 26.7909C30.6651 26.9325 30.5955 27.0627 30.4934 27.1648C30.3912 27.267 30.2611 27.3365 30.1194 27.3647C29.9777 27.3929 29.8308 27.3784 29.6973 27.3232C29.5639 27.2679 29.4498 27.1743 29.3695 27.0542C29.2893 26.934 29.2464 26.7928 29.2464 26.6484C29.2467 26.4547 29.3238 26.2691 29.4607 26.1322C29.5976 25.9953 29.7832 25.9183 29.9769 25.918ZM21.0011 23.8729C20.7741 23.8725 20.5564 23.7822 20.3959 23.6216C20.2355 23.461 20.1453 23.2434 20.1451 23.0163C20.1451 22.865 20.085 22.7199 19.978 22.6129C19.8709 22.5058 19.7258 22.4457 19.5745 22.4457C19.4231 22.4457 19.278 22.5058 19.1709 22.6129C19.0639 22.7199 19.0038 22.865 19.0038 23.0163C19.0054 23.4449 19.145 23.8616 19.4019 24.2045C19.6589 24.5475 20.0196 24.7986 20.4304 24.9205V25.8706C20.4304 26.0219 20.4906 26.1671 20.5976 26.2741C20.7046 26.3811 20.8497 26.4412 21.0011 26.4412C21.1524 26.4412 21.2976 26.3811 21.4046 26.2741C21.5116 26.1671 21.5717 26.0219 21.5717 25.8706V24.9205C22.0311 24.7843 22.4261 24.4871 22.6841 24.0834C22.9421 23.6797 23.046 23.1965 22.9767 22.7224C22.9073 22.2483 22.6694 21.8151 22.3066 21.5021C21.9437 21.1892 21.4802 21.0175 21.0011 21.0186C20.8317 21.0186 20.6661 20.9684 20.5252 20.8742C20.3844 20.7801 20.2746 20.6464 20.2097 20.4899C20.1449 20.3334 20.1279 20.1611 20.161 19.995C20.194 19.8288 20.2756 19.6762 20.3954 19.5564C20.5152 19.4367 20.6678 19.3551 20.834 19.322C21.0001 19.289 21.1724 19.306 21.3289 19.3708C21.4854 19.4356 21.6192 19.5454 21.7133 19.6862C21.8074 19.8271 21.8576 19.9927 21.8576 20.1621C21.8576 20.3134 21.9178 20.4586 22.0248 20.5656C22.1318 20.6726 22.2769 20.7327 22.4283 20.7327C22.5796 20.7327 22.7248 20.6726 22.8318 20.5656C22.9388 20.4586 22.9989 20.3134 22.9989 20.1621C22.9975 19.7334 22.858 19.3165 22.601 18.9733C22.3441 18.6301 21.9833 18.3788 21.5723 18.2568V17.3073C21.5723 17.1559 21.5122 17.0108 21.4052 16.9038C21.2981 16.7968 21.153 16.7366 21.0017 16.7366C20.8503 16.7366 20.7052 16.7968 20.5981 16.9038C20.4911 17.0108 20.431 17.1559 20.431 17.3073V18.2568C19.9707 18.3922 19.5747 18.6893 19.3159 19.0933C19.057 19.4973 18.9527 19.9812 19.0222 20.456C19.0916 20.9308 19.33 21.3645 19.6937 21.6776C20.0574 21.9906 20.5218 22.1618 21.0017 22.1598C21.1141 22.1598 21.2255 22.182 21.3294 22.225C21.4334 22.2681 21.5278 22.3312 21.6073 22.4107C21.6869 22.4902 21.75 22.5847 21.793 22.6886C21.836 22.7925 21.8582 22.9039 21.8582 23.0163C21.8582 23.1288 21.836 23.2402 21.793 23.3441C21.75 23.448 21.6869 23.5425 21.6073 23.622C21.5278 23.7015 21.4334 23.7646 21.3294 23.8077C21.2255 23.8507 21.1136 23.8729 21.0011 23.8729Z" fill="#E65069"/>
</svg>
