<svg width="60" height="60" viewBox="0 0 60 60" fill="none" xmlns="http://www.w3.org/2000/svg">
<rect width="60" height="59.997" rx="13.0472" fill="#E6AA12" fill-opacity="0.1"/>
<path d="M45.7056 29.9985C45.7102 33.9058 44.276 37.6779 41.6765 40.5951C39.0771 43.5123 35.4946 45.3702 31.6126 45.8142C27.7306 46.2582 23.8211 45.2574 20.6301 43.0025C17.439 40.7477 15.19 37.3969 14.3121 33.5895C14.2855 33.4743 14.2819 33.3549 14.3014 33.2383C14.321 33.1216 14.3633 33.01 14.4259 32.9097C14.4886 32.8094 14.5704 32.7224 14.6667 32.6538C14.763 32.5851 14.8719 32.5361 14.9871 32.5095C15.1024 32.4829 15.2217 32.4793 15.3383 32.4988C15.455 32.5183 15.5666 32.5606 15.6669 32.6233C15.7672 32.686 15.8542 32.7678 15.9228 32.8641C15.9915 32.9604 16.0405 33.0693 16.0671 33.1845C16.8186 36.4353 18.698 39.3146 21.3714 41.3109C24.0449 43.3072 27.3394 44.2913 30.6698 44.0885C34.0002 43.8856 37.1509 42.509 39.5623 40.2029C41.9737 37.8969 43.4898 34.8109 43.8412 31.4929C44.1926 28.1749 43.3566 24.8397 41.4817 22.0797C39.6068 19.3198 36.8144 17.3137 33.6004 16.4177C30.3864 15.5217 26.9588 15.794 23.9265 17.186C20.8942 18.578 18.4534 20.9997 17.0376 24.021H22.3881C22.6268 24.021 22.8557 24.1158 23.0245 24.2846C23.1933 24.4534 23.2881 24.6823 23.2881 24.921C23.2881 25.1597 23.1933 25.3886 23.0245 25.5574C22.8557 25.7262 22.6268 25.821 22.3881 25.821H15.5826C15.4644 25.821 15.3474 25.7977 15.2382 25.7525C15.129 25.7072 15.0298 25.641 14.9462 25.5574C14.7774 25.3886 14.6826 25.1597 14.6826 24.921V18.1155C14.6826 17.8768 14.7774 17.6479 14.9462 17.4791C15.115 17.3103 15.3439 17.2155 15.5826 17.2155C15.8213 17.2155 16.0502 17.3103 16.219 17.4791C16.3878 17.6479 16.4826 17.8768 16.4826 18.1155V21.327C18.3528 18.4558 21.1004 16.2657 24.3162 15.0827C27.5319 13.8997 31.0439 13.7872 34.3288 14.7619C37.6137 15.7367 40.4958 17.7465 42.5459 20.4921C44.596 23.2376 45.7042 26.572 45.7056 29.9985ZM29.7891 22.617C29.5504 22.617 29.3215 22.7118 29.1527 22.8806C28.9839 23.0494 28.8891 23.2783 28.8891 23.517V31.833C28.8891 32.0717 28.9839 32.3006 29.1527 32.4694C29.3215 32.6382 29.5504 32.733 29.7891 32.733H35.2476C35.3658 32.733 35.4828 32.7097 35.592 32.6645C35.7012 32.6192 35.8004 32.553 35.884 32.4694C35.9676 32.3858 36.0339 32.2866 36.0791 32.1774C36.1243 32.0682 36.1476 31.9512 36.1476 31.833C36.1476 31.7148 36.1243 31.5978 36.0791 31.4886C36.0339 31.3794 35.9676 31.2802 35.884 31.1966C35.8004 31.113 35.7012 31.0467 35.592 31.0015C35.4828 30.9563 35.3658 30.933 35.2476 30.933H30.6891V23.517C30.6891 23.2783 30.5943 23.0494 30.4255 22.8806C30.2567 22.7118 30.0278 22.617 29.7891 22.617Z" fill="#E6AA12"/>
</svg>
