<svg width="60" height="61" fill="none" xmlns="http://www.w3.org/2000/svg"><rect y=".994" width="60" height="59.997" rx="13.047" fill="#E6AA12" fill-opacity=".1"/><g clip-path="url(#clip0_437_1108)" stroke="#E6AA12" stroke-width="1.07" stroke-miterlimit="10" stroke-linecap="round" stroke-linejoin="round"><path d="M16.82 48.718h26.368M31.55 17.532s-.621-.645-1.458-.645-1.446.61-1.446 1.236c0 .627.789 1.129 1.787 1.392.997.262 1.209.778 1.209 1.327 0 .55-.486 1.258-1.626 1.258-1.139 0-1.649-.828-1.649-.828m1.637-5.352v.7m0 5.747v.7m0 2.969v15.323m.192-4.143a6.857 6.857 0 0 0 5.678-3.014m-1.666-5.916a.501.501 0 0 0-.43-.521 2.96 2.96 0 0 0-2.304.645 2.957 2.957 0 0 0-1.078 2.136.501.501 0 0 0 .43.521 2.96 2.96 0 0 0 2.304-.645 2.957 2.957 0 0 0 1.078-2.136z"/><path d="M29.811 33.086a6.857 6.857 0 0 1-5.678-3.014m10.085 6.119a.552.552 0 0 0-.463.582c.061.882.478 1.736 1.224 2.33a3.259 3.259 0 0 0 2.547.669.552.552 0 0 0 .464-.582 3.254 3.254 0 0 0-1.225-2.33 3.258 3.258 0 0 0-2.547-.67zm3.995-6.528a.552.552 0 0 0-.683-.293 3.255 3.255 0 0 0-1.926 1.795 3.252 3.252 0 0 0 .026 2.631c.117.26.415.387.683.293a3.256 3.256 0 0 0 1.926-1.794 3.252 3.252 0 0 0-.025-2.632z"/><path d="M36.1 18.245a6.231 6.231 0 0 0-6.105-4.977 6.228 6.228 0 0 0-6.23 6.226 6.228 6.228 0 0 0 6.23 6.226 6.231 6.231 0 0 0 6.105-4.978m-1.645 21.333a2.626 2.626 0 0 0-3.903-.643.873.873 0 0 1-1.114 0 2.63 2.63 0 0 0-4.256 1.55.855.855 0 0 1-.848.699 2.643 2.643 0 0 0-2.613 2.152.851.851 0 0 1-.843.698 2.637 2.637 0 0 0-2.622 2.187h23.478a2.638 2.638 0 0 0-2.622-2.188.851.851 0 0 1-.842-.697 2.644 2.644 0 0 0-1.962-2.075M25.78 32.06a.552.552 0 0 1 .463.582 3.254 3.254 0 0 1-1.224 2.33 3.258 3.258 0 0 1-2.547.669.552.552 0 0 1-.463-.582 3.253 3.253 0 0 1 1.224-2.33 3.258 3.258 0 0 1 2.547-.67zm-3.995-6.528a.553.553 0 0 1 .684-.293c.835.291 1.55.918 1.926 1.795a3.252 3.252 0 0 1-.026 2.631.553.553 0 0 1-.684.293 3.255 3.255 0 0 1-1.926-1.794 3.253 3.253 0 0 1 .026-2.632z"/></g><defs><clipPath id="clip0_437_1108"><path fill="#fff" transform="translate(11.729 12.732)" d="M0 0h36.544v36.52H0z"/></clipPath></defs></svg>