<svg width="60" height="60" viewBox="0 0 60 60" fill="none" xmlns="http://www.w3.org/2000/svg">
<rect width="60" height="59.997" rx="13.0472" fill="#E65069" fill-opacity="0.1"/>
<path d="M45.7892 42.5141L43.4946 25.4741C43.2639 23.7602 41.8412 22.5164 40.112 22.5164H37.0247V20.6449C37.0247 16.7698 33.8721 13.6172 29.9971 13.6172C26.122 13.6172 22.9695 16.7697 22.9695 20.6448V22.5163H19.8822C18.1529 22.5163 16.7303 23.7602 16.4995 25.474L14.205 42.5141C14.0697 43.5188 14.3509 44.4532 15.0181 45.2163C15.6854 45.9794 16.5739 46.3828 17.5876 46.3828H42.4065C43.4202 46.3828 44.3087 45.9795 44.9761 45.2163C45.6433 44.4532 45.9245 43.5187 45.7892 42.5141ZM24.0945 20.6448C24.0945 17.3901 26.7424 14.7422 29.9971 14.7422C33.2518 14.7422 35.8997 17.3901 35.8997 20.6448V22.5163H24.0945V20.6448ZM17.6143 25.6242C17.7691 24.4752 18.7228 23.6413 19.8821 23.6413H22.9694V26.4073C22.9694 26.5565 23.0287 26.6996 23.1342 26.8051C23.2397 26.9105 23.3827 26.9698 23.5319 26.9698C23.6811 26.9698 23.8242 26.9105 23.9297 26.8051C24.0351 26.6996 24.0944 26.5565 24.0944 26.4073V23.6413H35.8996V26.4073C35.8996 26.5565 35.9589 26.6996 36.0644 26.8051C36.1698 26.9105 36.3129 26.9698 36.4621 26.9698C36.6113 26.9698 36.7544 26.9105 36.8598 26.8051C36.9653 26.6996 37.0246 26.5565 37.0246 26.4073V23.6413H40.1119C41.2712 23.6413 42.2249 24.4752 42.3797 25.6241L43.1007 30.9788L31.341 35.6267C30.4367 35.9842 29.5575 35.9839 28.6531 35.6268L16.8934 30.9789L17.6143 25.6242ZM44.1293 44.4758C43.6755 44.9947 43.0959 45.2578 42.4066 45.2578H17.5876C16.8983 45.2578 16.3188 44.9947 15.865 44.4759C15.4113 43.957 15.2279 43.3474 15.3198 42.6642L16.7387 32.1274L28.2397 36.673C28.8227 36.9034 29.4099 37.0186 29.9971 37.0186C30.5843 37.0186 31.1714 36.9034 31.7545 36.673L43.2555 32.1274L44.6743 42.6642C44.7663 43.3474 44.5828 43.9569 44.1293 44.4758Z" fill="#E65069"/>
</svg>
