<svg width="60" height="61" fill="none" xmlns="http://www.w3.org/2000/svg"><rect y=".994" width="60" height="59.997" rx="13.047" fill="#E6AA12" fill-opacity=".1"/><g clip-path="url(#clip0_437_1085)" fill="#E6AA12"><path d="M44.803 17.833H38.26v-2.146a.535.535 0 0 0-1.07 0v2.146h-2.216a.535.535 0 1 0 0 1.069h2.216v2.264h-.402c-.56 0-1.017.456-1.017 1.016v6.295c0 .56.456 1.016 1.017 1.016h.402v4.241a.535.535 0 0 0 1.07 0v-4.241h.401c.561 0 1.017-.456 1.017-1.016v-6.295c0-.56-.456-1.016-1.017-1.016h-.401v-2.264h6.542a2.334 2.334 0 0 1 2.331 2.33v18.3H12.861v-18.3a2.333 2.333 0 0 1 2.332-2.33h9.378v1.044h-.401c-.56 0-1.017.455-1.017 1.016v6.294c0 .56.456 1.016 1.017 1.016h.401v4.725a.534.534 0 1 0 1.07 0v-4.725h.402c.56 0 1.017-.456 1.017-1.016v-6.294c0-.56-.456-1.016-1.017-1.016h-.402v-1.044h2.217a.535.535 0 1 0 0-1.07H25.64v-.263a.534.534 0 0 0-1.07 0v.264h-9.378a3.404 3.404 0 0 0-3.402 3.4v18.833c0 1.875 1.526 3.4 3.402 3.4h8.144v2.718l-1.724 2h-.685a.535.535 0 1 0 0 1.068h18.09a.535.535 0 1 0 0-1.069h-.635l-1.725-1.999v-2.718h8.145a3.404 3.404 0 0 0 3.401-3.4V21.232c0-1.874-1.526-3.4-3.401-3.4zm-6.194 10.59h-1.767v-6.188h1.767v6.189zm-12.62-1.22h-1.766v-6.188h1.767v6.188zm18.814 15.193H33.975a.535.535 0 1 0 0 1.07h1.613v2.382h-1.333a.535.535 0 1 0 0 1.07h1.623l1.092 1.265H23.025l1.092-1.266h1.623a.535.535 0 1 0 0-1.069h-1.333v-2.382h7.287a.535.535 0 1 0 0-1.07H15.193a2.335 2.335 0 0 1-2.27-1.795h34.149a2.335 2.335 0 0 1-2.27 1.795z"/><path d="M17.377 28.342a.535.535 0 0 0-.535.535v1.29c0 .56.456 1.017 1.017 1.017h.401v2.847a.534.534 0 1 0 1.07 0v-2.847h.402c.56 0 1.017-.456 1.017-1.017v-6.294c0-.56-.456-1.016-1.017-1.016h-.402v-.855a.535.535 0 0 0-1.07 0v.855h-.401c-.56 0-1.017.456-1.017 1.016v2.725a.534.534 0 1 0 1.07 0v-2.672h1.767v6.188h-1.767v-1.237a.535.535 0 0 0-.535-.535zm13.101-1.128h.402v2.847a.535.535 0 0 0 1.07 0v-2.847h.401c.561 0 1.017-.456 1.017-1.016v-4.194a.535.535 0 0 0-1.07 0v4.14h-1.767v-9.68h1.767v3.262a.535.535 0 0 0 1.07 0V16.41c0-.56-.456-1.016-1.017-1.016h-.401v-2.127a.535.535 0 0 0-1.07 0v2.127h-.402c-.56 0-1.017.456-1.017 1.016v9.788c0 .56.457 1.016 1.017 1.016zm10.334.177a.536.536 0 0 0 .725.217l2.465-1.328-.178.464a.533.533 0 0 0 .516.725.535.535 0 0 0 .484-.344l.602-1.58a.533.533 0 0 0-.309-.69l-1.678-.639a.536.536 0 0 0-.381 1l.389.147-2.418 1.303a.535.535 0 0 0-.217.725zM14.953 37.838a.535.535 0 0 0 .703.28l6.903-2.952.628 1.643a.536.536 0 0 0 .754.28l11.405-6.146a.535.535 0 1 0-.508-.941L23.97 35.858l-.608-1.593a.534.534 0 0 0-.71-.301l-7.416 3.172a.535.535 0 0 0-.282.701z"/></g><defs><clipPath id="clip0_437_1085"><path fill="#fff" transform="translate(11.729 12.732)" d="M0 0h36.544v36.52H0z"/></clipPath></defs></svg>