<svg width="60" height="60" viewBox="0 0 60 60" fill="none" xmlns="http://www.w3.org/2000/svg">
<rect width="60" height="59.997" rx="13.0472" fill="#30CBFF" fill-opacity="0.1"/>
<path d="M40.5 29.25V27C40.5 22.2531 37.3313 18.237 33 16.9423V16.5C33 14.8455 31.6537 13.5 29.9999 13.5C28.3461 13.5 27 14.8455 27 16.5V16.9423C22.6688 18.237 19.5 22.2531 19.5 27V29.25C19.5 34.2429 18.3252 35.997 17.4667 37.2781C16.9703 38.0201 16.5 38.721 16.5 39.75C16.5 42.1952 21.5973 43.0532 25.73 43.3487C26.3094 45.2038 28.0104 46.5 30 46.5C31.9896 46.5 33.6906 45.2038 34.27 43.3487C38.4027 43.0532 43.5 42.1951 43.5 39.75C43.5 38.721 43.0298 38.0201 42.5332 37.2781C41.6748 35.9971 40.5 34.243 40.5 29.25ZM28.5 16.5C28.5 15.6731 29.1724 15 30 15C30.8276 15 31.5 15.6731 31.5 16.5V16.6198C31.0087 16.5491 30.5106 16.5 30 16.5C29.4894 16.5 28.9913 16.5491 28.5 16.6198V16.5ZM30 45C28.8789 45 27.8944 44.3813 27.3829 43.4428C28.4456 43.4876 29.3685 43.5 30 43.5C30.6316 43.5 31.5544 43.4876 32.6172 43.4428C32.1057 44.3813 31.1211 45 30 45ZM30 42C23.1313 42 18 40.812 18 39.75C18 39.2015 18.2314 38.8316 18.7134 38.1131C19.6231 36.7537 21 34.6992 21 29.25V27C21 22.0371 25.0371 18 30 18C34.9629 18 39 22.0371 39 27V29.25C39 34.6992 40.3769 36.7537 41.2866 38.113C41.7686 38.8316 42 39.2014 42 39.75C42 40.812 36.8687 42 30 42ZM47.1065 24.5479C47.0754 24.4543 47.0262 24.3678 46.9617 24.2933C46.8971 24.2188 46.8185 24.1578 46.7303 24.1138C46.6421 24.0697 46.5461 24.0436 46.4477 24.0367C46.3494 24.0299 46.2507 24.0425 46.1572 24.0739C45.7647 24.2051 45.5523 24.6298 45.6826 25.0225C46.2246 26.6463 46.5 28.3205 46.5 30C46.5 31.6795 46.2246 33.3538 45.6826 34.9776C45.5523 35.3701 45.7647 35.795 46.1572 35.9261C46.2364 35.9525 46.3155 35.9649 46.3946 35.9649C46.708 35.9649 47.001 35.7664 47.1065 35.4522C47.6997 33.676 48 31.8414 48 30C48 28.1587 47.6997 26.324 47.1065 24.5479ZM43.314 25.0211C42.9214 25.1522 42.709 25.5769 42.8393 25.9696C43.2773 27.2864 43.5 28.6421 43.5 30C43.5 31.3579 43.2773 32.7137 42.8393 34.0305C42.709 34.4231 42.9214 34.8479 43.314 34.9791C43.3931 35.0047 43.4722 35.0172 43.5513 35.0172C43.7088 35.0172 43.8624 34.9676 43.9901 34.8754C44.1179 34.7833 44.2134 34.6532 44.2632 34.5037C44.7524 33.0345 45 31.5191 45 30.0001C45 28.4811 44.7524 26.9657 44.2632 25.4964C44.1313 25.1023 43.7095 24.8951 43.314 25.0211ZM13.5 30C13.5 28.322 13.7739 26.647 14.3159 25.0225C14.4462 24.6291 14.2338 24.2044 13.8413 24.0732C13.4487 23.9472 13.0239 24.1553 12.8921 24.5479C12.3003 26.3262 12 28.1609 12 30C12 31.8414 12.3003 33.676 12.8935 35.4522C12.9436 35.6014 13.0392 35.7312 13.167 35.8231C13.2947 35.9151 13.448 35.9647 13.6054 35.9649C13.6845 35.9649 13.7636 35.9525 13.8428 35.9261C14.2353 35.795 14.4477 35.3702 14.3174 34.9776C13.7754 33.3538 13.5 31.6794 13.5 30ZM17.1607 34.0305C16.7227 32.7137 16.5 31.358 16.5 30C16.5 28.6421 16.7227 27.2864 17.1607 25.9695C17.291 25.5769 17.0786 25.1521 16.686 25.021C16.2891 24.8943 15.8687 25.1023 15.7368 25.4963C15.2476 26.9656 15 28.481 15 30C15 31.5191 15.2476 33.0344 15.7368 34.5037C15.7866 34.6532 15.8821 34.7832 16.0099 34.8754C16.1376 34.9675 16.2912 35.0171 16.4487 35.0171C16.5278 35.0171 16.6069 35.0047 16.686 34.979C17.0786 34.8479 17.291 34.4231 17.1607 34.0305Z" fill="#30CBFF"/>
</svg>
