<svg width="32" height="32" fill="none" xmlns="http://www.w3.org/2000/svg"><path fill-rule="evenodd" clip-rule="evenodd" d="M22.215 2.667c4.44 0 7.788 3.622 7.788 8.426v9.158c0 2.458-.87 4.68-2.45 6.256-1.417 1.412-3.256 2.16-5.317 2.16H9.099c-2.058 0-3.895-.747-5.314-2.16-1.58-1.576-2.45-3.798-2.45-6.256v-9.158c0-4.804 3.349-8.426 7.789-8.426h13.09zm0 2H9.124c-3.353 0-5.788 2.702-5.788 6.426v9.158c0 1.924.661 3.642 1.861 4.838 1.035 1.034 2.386 1.578 3.906 1.578h13.112c.002-.003.013 0 .02 0 1.522 0 2.872-.544 3.906-1.578 1.202-1.196 1.862-2.914 1.862-4.838v-9.158c0-3.724-2.435-6.426-5.788-6.426zm2.1 6.171a1 1 0 0 1-.144 1.407l-5.926 4.816a4.056 4.056 0 0 1-5.065.008L7.2 12.248a1.001 1.001 0 0 1-.152-1.407 1.004 1.004 0 0 1 1.407-.15l5.974 4.816c.75.594 1.808.594 2.564-.006l5.915-4.808a.999.999 0 0 1 1.408.146z" fill="#30CBFF"/></svg>