<svg width="32" height="32" fill="none" xmlns="http://www.w3.org/2000/svg"><path fill-rule="evenodd" clip-rule="evenodd" d="M21.776 2.667c4.519 0 7.555 3.17 7.555 7.888v10.89c0 4.718-3.036 7.888-7.558 7.888H10.216c-4.517 0-7.552-3.17-7.552-7.888v-10.89c0-4.718 3.035-7.888 7.552-7.888h11.56zm0 2h-11.56c-3.372 0-5.552 2.31-5.552 5.888v10.89c0 3.578 2.18 5.888 5.552 5.888h11.557c3.376 0 5.558-2.31 5.558-5.888v-10.89c0-3.578-2.182-5.888-5.555-5.888zM11.78 12.53a3.475 3.475 0 0 1 3.322 2.467l7.575.001a1 1 0 0 1 1 1v2.471a1 1 0 0 1-2 0V17l-1.772-.001.001 1.471a1 1 0 0 1-2 0v-1.471h-2.804a3.476 3.476 0 0 1-3.322 2.47A3.474 3.474 0 0 1 8.31 16a3.473 3.473 0 0 1 3.47-3.469zm.003 2a1.47 1.47 0 1 0 1.467 1.47c0-.81-.66-1.469-1.467-1.47z" fill="#30CBFF"/></svg>