<svg width="367" height="56" viewBox="0 0 367 56" fill="none" xmlns="http://www.w3.org/2000/svg">
<g clip-path="url(#clip0_1472_6984)">
<path fill-rule="evenodd" clip-rule="evenodd" d="M87.848 24.4787C87.848 23.4837 88.633 22.6717 89.576 22.6717C90.545 22.6717 91.304 23.4837 91.304 24.4787C91.304 25.4737 90.544 26.2847 89.576 26.2847C88.633 26.3107 87.848 25.4997 87.848 24.4787ZM89.576 25.8917C90.309 25.8917 90.886 25.2637 90.886 24.5047C90.886 23.7447 90.283 23.1167 89.576 23.1167C88.843 23.1167 88.267 23.7457 88.267 24.5047C88.267 25.2637 88.843 25.8917 89.577 25.8917H89.576ZM89.34 25.2907H88.974V23.6927H89.628C89.759 23.6927 89.916 23.6927 90.021 23.7717C90.151 23.8497 90.204 24.0067 90.204 24.1647C90.204 24.3477 90.1 24.5047 89.943 24.5567L90.231 25.2637H89.838L89.602 24.6357H89.34V25.2907ZM89.34 24.4007H89.55C89.628 24.4007 89.707 24.4007 89.76 24.3737C89.811 24.3477 89.838 24.2687 89.838 24.1907C89.838 24.1387 89.811 24.0597 89.759 24.0337C89.707 24.0067 89.602 24.0067 89.549 24.0067H89.366L89.34 24.3997V24.4007ZM63.105 12.4087L62.635 15.4987C61.613 14.9487 60.853 14.7387 60.042 14.7387C57.895 14.7387 56.376 16.9387 56.376 20.0537C56.376 22.2007 57.397 23.5097 59.073 23.5097C59.78 23.5097 60.566 23.2737 61.534 22.7767L61.037 26.0227C59.963 26.3377 59.282 26.4427 58.471 26.4427C55.355 26.4427 53.418 24.0857 53.418 20.3157C53.418 15.2357 56.088 11.6757 59.938 11.6757C60.434 11.6757 60.88 11.7277 61.247 11.8317L62.45 12.1467C62.764 12.2767 62.844 12.3037 63.105 12.4087ZM53.496 14.5287C53.418 14.5027 53.313 14.5027 53.208 14.5027C52.266 14.5027 51.716 15.0007 50.826 16.3877L51.088 14.6337H48.469L46.689 26.1807H49.595C50.642 19.1107 50.904 17.9067 52.292 17.9067H52.501C52.763 16.5197 53.103 15.4977 53.601 14.5547L53.496 14.5287ZM36.19 26.0227C35.404 26.2847 34.776 26.4167 34.12 26.4167C32.655 26.4167 31.843 25.5257 31.843 23.8767C31.843 23.5617 31.869 23.1957 31.922 22.8287L32.105 21.7027L32.236 20.7867L33.493 12.9067H36.373L36.033 14.6077H37.525L37.105 17.4097H35.64L34.881 22.2267C34.855 22.4367 34.829 22.5927 34.829 22.6977C34.829 23.2997 35.143 23.5617 35.824 23.5617C36.164 23.5617 36.4 23.5357 36.609 23.4577L36.191 26.0227M24.774 18.2727C24.774 19.7397 25.454 20.7347 26.974 21.4937C28.125 22.0697 28.334 22.2527 28.334 22.7767C28.334 23.4837 27.811 23.8237 26.685 23.8237C25.821 23.8237 25.035 23.6937 24.093 23.3527L23.7 26.0227L23.831 26.0497L24.355 26.1547C24.538 26.1807 24.774 26.2327 25.115 26.2587C25.795 26.3107 26.345 26.3637 26.711 26.3637C29.749 26.3637 31.163 25.1337 31.163 22.5137C31.163 20.9437 30.586 20.0017 29.12 19.2937C27.916 18.7177 27.785 18.5877 27.785 18.0377C27.785 17.4087 28.256 17.0947 29.198 17.0947C29.775 17.0947 30.534 17.1737 31.268 17.2787L31.686 14.6077C30.926 14.4767 29.801 14.3717 29.146 14.3717C25.874 14.3717 24.748 16.1267 24.774 18.2727ZM86.172 26.1547H83.423L83.553 25.0287C82.768 25.9187 81.931 26.3107 80.883 26.3107C78.763 26.3107 77.375 24.4007 77.375 21.5207C77.375 17.6707 79.522 14.4247 82.088 14.4247C83.214 14.4247 84.051 14.9217 84.863 15.9947L85.491 11.9367H88.346L86.172 26.1547ZM81.905 23.4577C83.265 23.4577 84.209 21.8607 84.209 19.5567C84.209 18.0897 83.659 17.2787 82.664 17.2787C81.354 17.2787 80.412 18.9017 80.412 21.1537C80.412 22.6717 80.909 23.4577 81.905 23.4577ZM45.354 25.9187C44.358 26.2327 43.416 26.3897 42.369 26.3897C39.148 26.3897 37.446 24.6097 37.446 21.2057C37.446 17.2257 39.593 14.3197 42.499 14.3197C44.882 14.3197 46.401 15.9697 46.401 18.5347C46.401 19.3727 46.296 20.2107 46.034 21.3887H40.274C40.248 21.5727 40.248 21.6507 40.248 21.7557C40.248 23.1167 41.112 23.7977 42.788 23.7977C43.808 23.7977 44.751 23.5617 45.798 23.0647L45.354 25.9187ZM43.73 19.0327C43.756 18.7967 43.756 18.5877 43.756 18.4567C43.756 17.5137 43.259 16.9637 42.395 16.9637C41.479 16.9637 40.824 17.6977 40.562 19.0327H43.73ZM13.149 26.1547H10.269L11.918 15.2357L8.2 26.1547H6.236L6.001 15.3147L4.247 26.1547H1.55L3.802 11.9637H7.965L8.069 20.7607L10.897 11.9637H15.4L13.149 26.1547ZM20.61 21.0217C20.297 20.9957 20.166 20.9697 19.956 20.9697C18.306 20.9697 17.496 21.5727 17.496 22.7247C17.496 23.4317 17.914 23.9027 18.543 23.9027C19.695 23.9027 20.559 22.7247 20.611 21.0227L20.61 21.0217ZM22.705 26.1547H20.297L20.349 24.9497C19.616 25.9187 18.647 26.3377 17.312 26.3377C15.741 26.3377 14.667 25.0547 14.667 23.1957C14.667 20.3677 16.552 18.7447 19.747 18.7447C20.087 18.7447 20.507 18.7707 20.925 18.8237C21.004 18.4307 21.03 18.2737 21.03 18.0637C21.03 17.3037 20.532 17.0167 19.17 17.0167C18.36 17.0167 17.417 17.1467 16.762 17.3567L16.395 17.4867L16.134 17.5667L16.526 14.9737C17.966 14.5287 18.935 14.3457 19.982 14.3457C22.47 14.3457 23.779 15.5237 23.779 17.7237C23.779 18.2997 23.726 18.7177 23.543 20.0277L22.967 24.1377L22.863 24.8707L22.784 25.4477L22.732 25.8657L22.705 26.1547ZM68.106 21.0217C67.818 20.9957 67.661 20.9697 67.452 20.9697C65.802 20.9697 64.964 21.5727 64.964 22.7247C64.964 23.4317 65.384 23.9027 66.012 23.9027C67.19 23.9027 68.054 22.7247 68.106 21.0227V21.0217ZM70.201 26.1547H67.792L67.844 24.9497C67.111 25.9187 66.142 26.3377 64.807 26.3377C63.237 26.3377 62.163 25.0547 62.163 23.1957C62.163 20.3677 64.048 18.7447 67.243 18.7447C67.556 18.7447 68.001 18.7707 68.42 18.8237C68.499 18.4307 68.525 18.2737 68.525 18.0637C68.525 17.3037 68.027 17.0167 66.666 17.0167C65.855 17.0167 64.912 17.1467 64.257 17.3567L63.838 17.4617L63.577 17.5397L63.97 14.9477C65.41 14.5027 66.378 14.3197 67.426 14.3197C69.913 14.3197 71.222 15.4977 71.222 17.6977C71.222 18.2727 71.17 18.6917 70.986 20.0017L70.384 24.0857L70.305 24.8187L70.227 25.3947L70.175 25.7877L70.201 26.1547ZM78.291 14.5287C78.213 14.5027 78.108 14.5027 78.004 14.5027C77.061 14.5027 76.511 15.0007 75.62 16.3877L75.882 14.6337H73.264L71.484 26.1807H74.39C75.437 19.1107 75.699 17.9067 77.087 17.9067H77.297C77.557 16.5197 77.925 15.4977 78.396 14.5547L78.291 14.5287ZM66.142 37.3867C66.142 40.0047 65.331 41.5497 64.048 41.5497C63.105 41.5757 62.556 40.5287 62.556 38.9837C62.556 37.1507 63.393 35.0567 64.703 35.0567C65.776 35.0567 66.142 36.1817 66.142 37.3867ZM68.997 37.4127C68.997 34.5067 67.557 32.2287 64.859 32.2287C61.744 32.2287 59.728 34.9787 59.728 39.0367C59.728 41.9417 60.932 44.3247 63.864 44.3247C66.824 44.3247 68.997 42.2307 68.997 37.4127ZM60.644 30.2117L60.199 33.3017C59.23 32.7517 58.549 32.5427 57.79 32.5427C55.774 32.5427 54.36 34.7427 54.36 37.8577C54.36 40.0047 55.303 41.3137 56.874 41.3137C57.554 41.3137 58.288 41.0787 59.178 40.5807L58.707 43.8277C57.711 44.1417 57.057 44.2457 56.297 44.2457C53.392 44.2457 51.559 41.8897 51.559 38.1197C51.559 33.0397 54.072 29.4797 57.659 29.4797C58.13 29.4797 58.523 29.5317 58.864 29.6367L59.964 29.9507C60.33 30.0557 60.408 30.0807 60.644 30.2117ZM42.761 32.3067C42.683 32.2807 42.578 32.2807 42.473 32.2807C41.583 32.2807 41.086 32.7787 40.248 34.1657L40.51 32.4117H38.075L36.425 43.9587H39.122C40.091 36.8887 40.352 35.6847 41.635 35.6847C41.714 35.6847 41.714 35.6847 41.845 35.7107C42.08 34.3227 42.421 33.3027 42.865 32.3597L42.761 32.3067ZM78.056 43.8537H75.49L75.62 42.7277C74.887 43.6177 74.102 44.0107 73.107 44.0107C71.144 44.0107 69.834 42.0997 69.834 39.2197C69.834 35.3697 71.85 32.1237 74.234 32.1237C75.28 32.1237 76.092 32.6217 76.824 33.7207L77.427 29.6627H80.097L78.056 43.8537ZM74.05 41.1307C75.332 41.1307 76.197 39.5337 76.197 37.2297C76.197 35.7637 75.699 34.9777 74.757 34.9777C73.527 34.9777 72.662 36.5747 72.662 38.8527C72.662 40.3717 73.133 41.1307 74.05 41.1307ZM17.417 43.8007C16.5 44.1157 15.61 44.2727 14.641 44.2727C11.63 44.2727 10.059 42.4927 10.059 39.0887C10.059 35.1347 12.076 32.2027 14.772 32.2027C16.997 32.2027 18.412 33.8257 18.412 36.4177C18.412 37.2557 18.307 38.0937 18.071 39.2717H12.704C12.677 39.4547 12.677 39.5337 12.677 39.6377C12.677 40.9737 13.489 41.6537 15.06 41.6537C16.029 41.6537 16.893 41.4187 17.862 40.9217L17.417 43.8007ZM15.898 36.9147C15.898 36.6797 15.924 36.4707 15.924 36.3397C15.924 35.3967 15.453 34.8467 14.641 34.8467C13.777 34.8467 13.175 35.5797 12.913 36.9147H15.898ZM49.569 43.8007C48.653 44.1157 47.762 44.2727 46.794 44.2727C43.756 44.2727 42.186 42.4927 42.186 39.0887C42.186 35.1347 44.201 32.2027 46.898 32.2027C49.124 32.2027 50.564 33.8257 50.564 36.4177C50.564 37.2557 50.459 38.0937 50.224 39.2717H44.856C44.829 39.4547 44.829 39.5337 44.829 39.6377C44.829 40.9737 45.642 41.6537 47.213 41.6537C48.181 41.6537 49.046 41.4187 50.013 40.9217L49.569 43.8007ZM48.05 36.9147C48.076 36.6797 48.076 36.4707 48.076 36.3397C48.076 35.3967 47.606 34.8467 46.794 34.8467C45.929 34.8467 45.327 35.5797 45.065 36.9147H48.05ZM87.272 43.8007C86.329 44.1157 85.439 44.2727 84.497 44.2727C81.486 44.2727 79.888 42.4927 79.888 39.0887C79.888 35.1347 81.905 32.2027 84.628 32.2027C86.853 32.2027 88.267 33.8257 88.267 36.4177C88.267 37.2557 88.162 38.0937 87.927 39.2717H82.559C82.533 39.4547 82.533 39.5337 82.533 39.6377C82.533 40.9737 83.344 41.6537 84.916 41.6537C85.884 41.6537 86.748 41.4187 87.717 40.9217L87.272 43.8007ZM85.753 36.9147C85.753 36.6797 85.78 36.4707 85.78 36.3397C85.78 35.3967 85.308 34.8467 84.497 34.8467C83.632 34.8467 83.03 35.5797 82.768 36.9147H85.753ZM9.405 32.8307C8.881 32.4637 8.148 32.1767 7.153 32.1767C6.053 32.1767 5.189 32.4117 5.189 33.5637C5.189 35.6067 9.169 34.8467 9.169 39.2457C9.169 43.2517 6.551 44.2987 4.169 44.2987C3.121 44.2987 1.89 43.9587 1 43.5387L1.654 40.6067C2.204 41.1047 3.278 41.4447 4.194 41.4447C5.058 41.4447 6.368 41.2087 6.368 39.7167C6.368 37.3867 2.388 38.2507 2.388 34.1667C2.388 30.4217 4.718 29.3217 6.97 29.3217C8.226 29.3217 9.431 29.5057 10.111 29.9767L9.405 32.8307ZM25.324 43.8007C24.774 44.0627 24.014 44.2467 22.914 44.2467C20.559 44.2467 19.092 41.8897 19.092 39.0097C19.092 35.2397 21.213 32.2547 24.329 32.2547C25.009 32.2547 26.057 32.5427 26.869 33.0147L26.266 35.7637C25.69 35.3707 25.088 35.1337 24.46 35.1337C23.02 35.1337 21.973 36.4707 21.973 38.8267C21.973 40.1887 22.732 41.3137 23.91 41.3137C24.617 41.3137 25.114 41.1567 25.716 40.8167L25.324 43.8007ZM35.43 40.8947C35.3 41.8897 35.168 42.8587 35.09 43.8797H32.498L32.708 42.0207H32.681C31.869 43.2777 31.031 44.1407 29.539 44.1407C27.916 44.1407 27.026 42.4137 27.026 40.1887C27.026 39.4027 27.078 38.9837 27.235 37.7787L27.968 32.4387H30.874L30.089 37.8047C30.011 38.3817 29.906 38.9577 29.906 39.5597C29.906 40.2397 30.22 40.9217 31.006 40.8687C32.184 40.8687 32.89 39.4287 33.1 37.7267L33.912 32.4377H36.713L35.43 40.8947ZM89.969 43.7487H89.524V41.8377H88.895V41.4187H90.597V41.8377H89.969V43.7487ZM92.875 43.7487H92.456V41.8117L92.063 43.7487H91.644L91.252 41.8117V43.7487H90.833V41.4187H91.487L91.854 43.2517H91.88L92.247 41.4187H92.875V43.7487Z" fill="#758EB1"/>
<path d="M311.704 26.1596C311.984 26.3396 312.389 26.4796 312.824 26.4796C313.471 26.4796 313.845 26.1446 313.845 25.6456C313.845 25.1956 313.585 24.9276 312.927 24.6806C312.129 24.3906 311.637 23.9706 311.637 23.2896C311.637 22.5296 312.268 21.9626 313.215 21.9626C313.709 21.9626 314.077 22.0776 314.289 22.2016L314.114 22.7166C313.964 22.6216 313.638 22.4866 313.197 22.4866C312.529 22.4866 312.275 22.8826 312.275 23.2166C312.275 23.6726 312.572 23.8986 313.247 24.1596C314.072 24.4866 314.484 24.8756 314.484 25.5946C314.484 26.3476 313.935 27.0076 312.782 27.0076C312.31 27.0076 311.796 26.8616 311.535 26.6906L311.704 26.1596ZM317.6 24.8266C317.608 24.4266 317.435 23.7886 316.727 23.7886C316.073 23.7886 315.794 24.3836 315.747 24.8256L317.6 24.8266ZM315.739 25.2826C315.754 26.1446 316.295 26.4986 316.933 26.4986C317.391 26.4986 317.673 26.4216 317.909 26.3246L318.021 26.7746C317.798 26.8766 317.406 27.0006 316.848 27.0006C315.776 27.0006 315.122 26.2826 315.122 25.2316C315.122 24.1676 315.754 23.3316 316.776 23.3316C317.92 23.3316 318.22 24.3396 318.22 24.9846C318.22 25.1156 318.21 25.2176 318.198 25.2886L315.739 25.2826ZM321.508 26.8046C321.34 26.8826 320.97 27.0066 320.5 27.0066C319.441 27.0066 318.753 26.2886 318.753 25.2096C318.753 24.1286 319.493 23.3396 320.639 23.3396C321.015 23.3396 321.349 23.4326 321.519 23.5286L321.376 24.0146C321.225 23.9326 320.988 23.8466 320.639 23.8466C319.833 23.8466 319.396 24.4466 319.396 25.1806C319.396 25.9916 319.921 26.4946 320.618 26.4946C320.978 26.4946 321.218 26.4046 321.398 26.3246L321.508 26.8046ZM325.189 25.9696C325.189 26.3326 325.199 26.6526 325.219 26.9276H324.651L324.619 26.3546H324.603C324.444 26.6376 324.065 27.0076 323.442 27.0076C322.892 27.0076 322.232 26.6946 322.232 25.4696V23.4186H322.87V25.3536C322.87 26.0216 323.08 26.4776 323.653 26.4776C324.081 26.4776 324.378 26.1806 324.495 25.8896C324.531 25.8046 324.553 25.6896 324.553 25.5636V23.4186H325.189V25.9696ZM326.257 24.5126C326.257 24.0996 326.251 23.7456 326.227 23.4186H326.785L326.815 24.1096H326.837C326.997 23.6386 327.387 23.3396 327.813 23.3396C327.879 23.3396 327.931 23.3466 327.989 23.3596V23.9566C327.917 23.9486 327.851 23.9396 327.764 23.9396C327.314 23.9396 326.996 24.2816 326.91 24.7536C326.894 24.8476 326.886 24.9496 326.886 25.0586V26.9276H326.251L326.257 24.5126ZM329.765 26.9266H328.71V23.4196H329.765V26.9266ZM329.213 22.7746C328.816 22.7746 328.551 22.5856 328.551 22.3596C328.551 22.1356 328.829 21.9556 329.238 21.9556C329.645 21.9556 329.912 22.1356 329.912 22.3596C329.912 22.5856 329.645 22.7746 329.23 22.7746H329.213ZM331.11 22.5796V23.4206H332.023V23.9056H331.11V25.7986C331.11 26.2326 331.236 26.4786 331.59 26.4786C331.762 26.4786 331.865 26.4646 331.96 26.4346L331.987 26.9206C331.865 26.9636 331.669 27.0086 331.423 27.0086C331.125 27.0086 330.887 26.9066 330.736 26.7396C330.56 26.5436 330.488 26.2326 330.488 25.8176V23.9066H329.945V23.4216H330.488V22.7756L331.11 22.5796ZM333.039 23.4186L333.799 25.4916C333.889 25.7246 333.973 26.0006 334.031 26.2096H334.047C334.111 25.9996 334.185 25.7316 334.27 25.4796L334.967 23.4186H335.642L334.683 25.9186C334.227 27.1226 333.915 27.7406 333.481 28.1226C333.163 28.3916 332.858 28.4996 332.698 28.5296L332.539 27.9936C332.698 27.9506 332.909 27.8476 333.097 27.6806C333.271 27.5426 333.481 27.2966 333.633 26.9706C333.662 26.9046 333.683 26.8616 333.683 26.8186C333.683 26.7806 333.67 26.7286 333.633 26.6586L332.343 23.4186H333.039ZM311.704 33.4066C311.984 33.5886 312.389 33.7266 312.824 33.7266C313.471 33.7266 313.845 33.3916 313.845 32.8906C313.845 32.4426 313.585 32.1756 312.927 31.9286C312.129 31.6396 311.637 31.2176 311.637 30.5356C311.637 29.7756 312.268 29.2106 313.215 29.2106C313.709 29.2106 314.077 29.3266 314.289 29.4506L314.114 29.9646C313.964 29.8706 313.638 29.7336 313.197 29.7336C312.529 29.7336 312.275 30.1316 312.275 30.4636C312.275 30.9206 312.572 31.1446 313.247 31.4056C314.072 31.7336 314.484 32.1246 314.484 32.8426C314.484 33.5966 313.935 34.2546 312.782 34.2546C312.31 34.2546 311.796 34.1106 311.535 33.9346L311.704 33.4066ZM316.073 29.8266V30.6666H316.986V31.1536H316.073V33.0446C316.073 33.4806 316.198 33.7266 316.552 33.7266C316.727 33.7266 316.83 33.7116 316.922 33.6826L316.952 34.1686C316.83 34.2146 316.632 34.2556 316.385 34.2556C316.088 34.2556 315.85 34.1556 315.697 33.9886C315.524 33.7936 315.449 33.4806 315.449 33.0686V31.1536H314.906V30.6666H315.449V30.0226L316.073 29.8266ZM319.553 32.3866C318.856 32.3716 318.067 32.4956 318.067 33.1756C318.067 33.5976 318.342 33.7836 318.66 33.7836C319.124 33.7836 319.422 33.4946 319.524 33.1976C319.546 33.1326 319.554 33.0606 319.554 32.9946V32.3876L319.553 32.3866ZM320.175 33.3366C320.175 33.6406 320.191 33.9366 320.225 34.1766H319.655L319.595 33.7366H319.575C319.387 34.0086 319.005 34.2546 318.501 34.2546C317.791 34.2546 317.429 33.7546 317.429 33.2486C317.429 32.4006 318.182 31.9366 319.538 31.9426V31.8706C319.538 31.5826 319.457 31.0526 318.741 31.0606C318.408 31.0606 318.067 31.1536 317.819 31.3206L317.674 30.8906C317.966 30.7106 318.393 30.5906 318.835 30.5906C319.916 30.5906 320.175 31.3206 320.175 32.0226V33.3366ZM321.198 31.6166C321.198 31.2466 321.193 30.9596 321.168 30.6676H321.734L321.773 31.2406H321.785C321.959 30.9146 322.365 30.5906 322.945 30.5906C323.432 30.5906 324.184 30.8786 324.184 32.0806V34.1756H323.548V32.1536C323.548 31.5896 323.334 31.1106 322.734 31.1106C322.322 31.1106 321.996 31.4066 321.879 31.7616C321.852 31.8436 321.837 31.9596 321.837 32.0606V34.1756H321.197V31.6156M327.613 32.0946C327.613 32.0076 327.607 31.9076 327.583 31.8196C327.49 31.4226 327.143 31.0876 326.663 31.0876C326.002 31.0876 325.611 31.6676 325.611 32.4376C325.611 33.1536 325.967 33.7406 326.651 33.7406C327.076 33.7406 327.467 33.4506 327.583 32.9806C327.607 32.8916 327.613 32.8066 327.613 32.7046V32.0946ZM328.253 29.0286V33.2706C328.253 33.5826 328.257 33.9356 328.278 34.1746H327.707L327.677 33.5666H327.661C327.467 33.9586 327.047 34.2546 326.474 34.2546C325.626 34.2546 324.967 33.5376 324.967 32.4716C324.959 31.2986 325.692 30.5886 326.54 30.5886C327.081 30.5886 327.445 30.8406 327.597 31.1186H327.613V29.0286H328.253ZM331.16 32.3866C330.463 32.3716 329.67 32.4956 329.67 33.1756C329.67 33.5976 329.947 33.7836 330.267 33.7836C330.73 33.7836 331.025 33.4946 331.129 33.1976C331.149 33.1326 331.159 33.0606 331.159 32.9946V32.3876L331.16 32.3866ZM331.782 33.3366C331.782 33.6406 331.795 33.9366 331.834 34.1766H331.261L331.201 33.7366H331.181C330.991 34.0086 330.606 34.2546 330.108 34.2546C329.395 34.2546 329.033 33.7546 329.033 33.2486C329.033 32.4006 329.787 31.9366 331.143 31.9426V31.8706C331.143 31.5826 331.063 31.0526 330.346 31.0606C330.013 31.0606 329.671 31.1536 329.426 31.3206L329.279 30.8906C329.571 30.7106 330.001 30.5906 330.439 30.5906C331.521 30.5906 331.782 31.3206 331.782 32.0226V33.3366ZM332.81 31.7616C332.81 31.3486 332.8 30.9936 332.782 30.6666H333.341L333.367 31.3566H333.39C333.55 30.8846 333.94 30.5896 334.37 30.5896C334.433 30.5896 334.485 30.5946 334.544 30.6086V31.2046C334.47 31.1966 334.408 31.1896 334.317 31.1896C333.87 31.1896 333.549 31.5306 333.463 32.0006C333.448 32.0946 333.441 32.1976 333.441 32.3056V34.1756H332.801L332.81 31.7616ZM337.523 32.0946C337.523 32.0076 337.517 31.9076 337.496 31.8196C337.399 31.4226 337.052 31.0876 336.575 31.0876C335.912 31.0876 335.525 31.6676 335.525 32.4376C335.525 33.1536 335.876 33.7406 336.558 33.7406C336.988 33.7406 337.379 33.4506 337.496 32.9806C337.516 32.8916 337.523 32.8066 337.523 32.7046V32.0946ZM338.16 29.0286V33.2706C338.16 33.5826 338.167 33.9356 338.19 34.1746H337.617L337.587 33.5666H337.575C337.379 33.9586 336.957 34.2546 336.383 34.2546C335.535 34.2546 334.879 33.5376 334.879 32.4716C334.871 31.2986 335.603 30.5886 336.449 30.5886C336.992 30.5886 337.358 30.8406 337.509 31.1186H337.523V29.0286H338.16ZM339.133 33.5316C339.328 33.6476 339.661 33.7776 339.979 33.7776C340.437 33.7776 340.652 33.5516 340.652 33.2556C340.652 32.9506 340.472 32.7836 340.009 32.6106C339.372 32.3786 339.074 32.0366 339.074 31.6166C339.074 31.0526 339.54 30.5886 340.283 30.5886C340.64 30.5886 340.95 30.6806 341.141 30.8056L340.988 31.2636C340.849 31.1816 340.598 31.0586 340.268 31.0586C339.894 31.0586 339.689 31.2766 339.689 31.5376C339.689 31.8336 339.894 31.9656 340.349 32.1376C340.95 32.3626 341.27 32.6676 341.27 33.1966C341.27 33.8196 340.786 34.2546 339.967 34.2546C339.582 34.2546 339.225 34.1546 338.977 34.0086L339.133 33.5316ZM347.055 34.0246C346.83 34.1406 346.36 34.2546 345.765 34.2546C344.387 34.2546 343.358 33.3846 343.358 31.7766C343.358 30.2396 344.395 29.2106 345.91 29.2106C346.51 29.2106 346.9 29.3406 347.068 29.4286L346.908 29.9436C346.677 29.8276 346.337 29.7386 345.933 29.7386C344.786 29.7386 344.026 30.4716 344.026 31.7546C344.026 32.9586 344.712 33.7196 345.893 33.7196C346.287 33.7196 346.677 33.6396 346.935 33.5166L347.055 34.0246ZM349.186 33.7776C349.796 33.7776 350.252 33.2046 350.252 32.4076C350.252 31.8136 349.955 31.0676 349.2 31.0676C348.452 31.0676 348.126 31.7616 348.126 32.4296C348.126 33.1986 348.564 33.7776 349.179 33.7776H349.186ZM349.166 34.2556C348.222 34.2556 347.482 33.5596 347.482 32.4516C347.482 31.2766 348.258 30.5896 349.222 30.5896C350.229 30.5896 350.908 31.3196 350.908 32.3876C350.908 33.6916 350.004 34.2556 349.172 34.2556H349.166ZM354.652 33.2196C354.652 33.5826 354.657 33.9016 354.679 34.1746H354.116L354.078 33.6026H354.066C353.905 33.8846 353.528 34.2546 352.902 34.2546C352.354 34.2546 351.693 33.9446 351.693 32.7176V30.6666H352.333V32.6026C352.333 33.2706 352.541 33.7256 353.116 33.7256C353.541 33.7256 353.839 33.4296 353.956 33.1396C353.994 33.0516 354.013 32.9366 354.013 32.8146V30.6666H354.652V33.2196ZM355.709 31.6166C355.709 31.2466 355.702 30.9596 355.682 30.6676H356.244L356.283 31.2406H356.297C356.471 30.9146 356.877 30.5906 357.457 30.5906C357.943 30.5906 358.695 30.8786 358.695 32.0806V34.1756H358.06V32.1536C358.06 31.5896 357.848 31.1106 357.245 31.1106C356.835 31.1106 356.505 31.4066 356.389 31.7616C356.363 31.8436 356.348 31.9596 356.348 32.0606V34.1756H355.708V31.6156M362.234 34.0536C362.067 34.1336 361.7 34.2556 361.227 34.2556C360.169 34.2556 359.479 33.5396 359.479 32.4586C359.479 31.3806 360.217 30.5896 361.368 30.5896C361.74 30.5896 362.076 30.6806 362.248 30.7746L362.104 31.2646C361.95 31.1836 361.711 31.0956 361.368 31.0956C360.558 31.0956 360.124 31.6976 360.124 32.4306C360.124 33.2406 360.646 33.7416 361.343 33.7416C361.704 33.7416 361.945 33.6546 362.125 33.5756L362.234 34.0536ZM364.103 34.1746H363.04V30.6666H364.103V34.1746ZM363.55 30.0226C363.15 30.0226 362.886 29.8336 362.886 29.6096C362.886 29.3826 363.164 29.2026 363.573 29.2026C363.983 29.2026 364.247 29.3826 364.247 29.6096C364.247 29.8336 363.982 30.0226 363.558 30.0226H363.55ZM364.676 34.1746H365.314V29.0286H364.676V34.1746ZM308.462 31.8436L270.944 43.6386L260 13.8786L299.386 11.6666L308.462 31.8436Z" fill="#758EB1"/>
<path d="M275.412 25.9316C275.412 24.8216 274.59 24.2666 272.949 24.2666H272.352V27.6916H272.902C273.713 27.6916 274.335 27.5496 274.767 27.2666C275.198 26.9806 275.412 26.5366 275.412 25.9316ZM280.096 25.8776C280.096 26.6306 279.93 27.2926 279.592 27.8676C279.26 28.4436 278.79 28.9206 278.185 29.3016C277.578 29.6866 276.851 29.9736 275.997 30.1646C275.145 30.3546 274.201 30.4506 273.164 30.4506H272.4V34.2836H267.523V21.5066H273.236C275.372 21.5066 277.051 21.8686 278.266 22.5896C279.487 23.3106 280.096 24.4086 280.096 25.8766M292.15 34.2736C291.4 34.4166 290.551 34.4886 289.6 34.4886C288.251 34.4886 287.048 34.3336 285.987 34.0246C284.932 33.7176 284.036 33.2796 283.302 32.7106C282.568 32.1406 282.01 31.4506 281.627 30.6376C281.245 29.8196 281.054 28.9136 281.054 27.9146C281.054 26.9256 281.257 26.0246 281.664 25.2096C282.073 24.3946 282.648 23.6986 283.39 23.1176C284.13 22.5376 285.014 22.0896 286.04 21.7736C287.063 21.4606 288.193 21.3016 289.424 21.3016C290.374 21.3016 291.255 21.3296 292.026 21.4966C292.801 21.6656 292.816 21.6886 293.433 21.9116L293.424 25.3396C292.944 25.0676 292.399 24.8436 291.8 24.6636C291.202 24.4856 290.56 24.3936 289.877 24.3936C288.775 24.3936 287.881 24.6976 287.187 25.3006C286.497 25.9086 286.152 26.7706 286.152 27.8946C286.152 28.4766 286.26 28.9846 286.475 29.4226C286.693 29.8626 286.985 30.2256 287.351 30.5156C287.719 30.8076 288.146 31.0266 288.639 31.1716C289.131 31.3216 289.659 31.3956 290.227 31.3956C290.809 31.3956 291.381 31.3336 291.939 31.2106C292.496 31.0876 293.091 30.9076 293.725 30.6726L293.732 33.8736C292.962 34.0996 292.899 34.1316 292.15 34.2736ZM295.73 34.2836H300.63V21.5076H295.73V34.2836ZM301.157 17.5046C301.157 18.3646 300.871 19.0406 300.302 19.5296C299.732 20.0196 299.026 20.2646 298.187 20.2646C297.348 20.2646 296.643 20.0196 296.073 19.5296C295.502 19.0396 295.218 18.3636 295.218 17.5046C295.218 16.6256 295.502 15.9396 296.073 15.4516C296.643 14.9606 297.348 14.7146 298.187 14.7146C299.027 14.7146 299.731 14.9606 300.302 15.4516C300.871 15.9396 301.157 16.6256 301.157 17.5046Z" fill="white"/>
<path d="M361.912 22.4657H361.344V22.0677H362.964V22.4657H362.387V24.1747H361.912M364.984 23.3647C364.974 23.1147 364.964 22.8107 364.964 22.4997H364.961C364.891 22.7687 364.804 23.0697 364.724 23.3157L364.464 24.1377H364.094L363.869 23.3257C363.801 23.0757 363.732 22.7777 363.679 22.4997H363.675L363.638 23.3727L363.598 24.1737H363.158L363.29 22.0667H363.926L364.133 22.7727C364.201 23.0137 364.263 23.2767 364.311 23.5227H364.321C364.378 23.2797 364.449 23.0037 364.524 22.7657L364.744 22.0657H365.37L365.481 24.1737H365.019L364.984 23.3647Z" fill="#758EB1"/>
<path fill-rule="evenodd" clip-rule="evenodd" d="M199.579 33.4276C199.499 34.0686 199.394 34.6836 199.264 35.2736C198.717 35.0956 198.084 34.8096 197.193 34.8686C196.66 34.9046 196.03 35.1086 196.022 35.5886C196.012 36.1206 196.886 36.4376 197.372 36.6696C198.25 37.0896 199.191 37.6496 199.264 38.7866C199.32 39.6616 198.914 40.4226 198.454 40.8586C197.226 42.0186 194.503 42.1406 192.644 41.3986C192.76 40.7786 192.865 40.1486 192.96 39.5076C193.68 39.8136 194.667 40.2266 195.752 40.0926C196.245 40.0316 196.85 39.7436 196.832 39.2376C196.811 38.6196 195.657 38.2516 195.076 37.9316C194.401 37.5586 193.632 36.9396 193.59 35.9946C193.562 35.3646 193.807 34.7746 194.13 34.3736C195.09 33.1806 197.555 32.7566 199.579 33.4276ZM177.508 21.3676H179.991L178.462 31.0016H175.979L177.508 21.3676ZM171.084 23.2826L170.7 25.7006H171.418C172.116 25.7006 172.776 25.1566 172.886 24.4906C172.996 23.8266 172.514 23.2826 171.816 23.2826H171.084ZM168.904 21.3666H172.707C175.125 21.3666 175.753 22.7596 175.489 24.4226C175.269 25.8126 174.271 26.7396 172.974 27.0696L175.382 31.0016H172.266L170.46 27.2186L169.86 31.0016H167.376L168.904 21.3666ZM188.847 21.3676H191.33L189.802 31.0016H187.319L188.847 21.3676ZM193.217 21.3666H198.668L198.336 23.4616H195.368L195.106 25.1086H197.928L197.596 27.2026H194.774L194.504 28.9066H197.472L197.14 31.0016H191.688L193.217 21.3666ZM161.977 21.3666H167.428L167.096 23.4616H164.127L163.866 25.1086H166.688L166.356 27.2026H163.534L163.263 28.9066H166.232L165.9 31.0016H160.448L161.977 21.3666ZM181.871 21.3666H187.384L187.052 23.4616H184.022L183.757 25.1086H186.513L186.18 27.2026H183.424L182.821 31.0016H180.342L181.871 21.3666ZM202.28 23.4616H202.793C204.691 23.4616 205.433 24.8006 205.229 26.0916C204.953 27.8246 203.708 28.9066 202.08 28.9066H201.416L202.28 23.4616ZM200.13 21.3666H203.365C207.221 21.3666 208.099 24.2826 207.797 26.1866C207.365 28.9066 204.94 31.0016 201.837 31.0016H198.601L200.13 21.3666ZM150.336 20.0546H154.929L155.475 27.0546C158.515 21.7936 161.603 16.7316 164.715 11.7596H166.213C162.919 18.1116 159.666 24.5056 156.516 31.0016H153.144L152.322 23.2816C152.118 21.3666 151.732 20.5546 150.336 20.3486V20.0556" fill="#758EB1"/>
<path fill-rule="evenodd" clip-rule="evenodd" d="M152.078 16.0737L155.995 17.7337L156.335 22.0947H156.624L160.179 16.0767V15.7747H152.078V16.0737ZM168.179 33.2677H169.786L169.244 37.0647C169.704 36.6217 170.264 36.3477 170.892 36.3477C172.182 36.3477 173.027 37.5907 172.799 39.1237C172.571 40.6577 171.355 41.9017 170.066 41.9017C169.43 41.9017 168.975 41.6147 168.664 41.1327L168.578 41.7357H166.971L168.179 33.2677ZM170.184 37.9037C170.778 37.9037 171.182 38.4477 171.085 39.1187C170.989 39.7887 170.43 40.3327 169.837 40.3327C169.243 40.3327 168.839 39.7887 168.935 39.1187C169.031 38.4477 169.591 37.9037 170.185 37.9037H170.184Z" fill="#758EB1"/>
<path fill-rule="evenodd" clip-rule="evenodd" d="M172.933 36.4776H174.861L175.724 39.1686L177.399 36.4776H179.263L174.372 44.3336H172.508L174.571 41.0206L172.933 36.4776ZM188.846 41.7326L190.258 33.2656H192.569L191.157 41.7326H188.846ZM186.914 33.2466C186.117 35.1226 185.438 37.1156 184.617 38.9666L184.377 37.8566L184.373 37.8426L184.413 38.0406C184.235 37.4556 183.933 36.9046 183.545 36.3986L183.514 36.3596C183.446 36.2726 183.374 36.1886 183.301 36.1036L183.166 35.9506C182.606 35.3386 181.928 34.8106 181.212 34.3906L183.266 41.7136H185.743C186.909 38.8566 188.167 36.0926 189.346 33.2476L186.914 33.2466Z" fill="#758EB1"/>
<path fill-rule="evenodd" clip-rule="evenodd" d="M182.55 33.2487H178.773V33.4337C180.948 33.8577 183.693 35.6817 184.413 38.0407L183.602 34.0967C183.491 33.4887 183.067 33.2487 182.552 33.2487M203.86 35.5937L202.683 38.7417H204.586L203.86 35.5937ZM207.367 41.7587H205.25C205.114 41.3557 205.075 40.8537 204.935 40.4527H202.053L201.513 41.7587H199.081L202.233 34.5087C202.373 34.1907 202.623 33.7567 202.729 33.5627C202.889 33.2697 203.509 33.2477 203.772 33.2477H205.521L207.367 41.7587Z" fill="#758EB1"/>
</g>
<defs>
<clipPath id="clip0_1472_6984">
<rect width="367" height="56" fill="white"/>
</clipPath>
</defs>
</svg>
