<svg width="48" height="48" viewBox="0 0 48 48" fill="none" xmlns="http://www.w3.org/2000/svg">
<path d="M12.2318 47.2965H3.09375V44.0731C3.09375 43.1352 3.85406 42.375 4.79194 42.375H10.5337C11.4716 42.375 12.2318 43.1353 12.2318 44.0731V47.2965Z" fill="#A7C7D3"/>
<path d="M21.3728 47.2964H12.2344V39.8575C12.2344 38.9197 12.9947 38.1594 13.9325 38.1594H19.6747C20.6125 38.1594 21.3728 38.9197 21.3728 39.8575V47.2964Z" fill="#89B4C9"/>
<path d="M30.5135 47.2964H21.375V35.329C21.375 34.3912 22.1352 33.6309 23.0731 33.6309H28.8153C29.7528 33.6309 30.5134 34.3912 30.5134 35.329L30.5135 47.2964Z" fill="#6C96B3"/>
<path d="M39.6537 47.2965H30.5156V28.4601C30.5156 27.5222 31.2759 26.762 32.2137 26.762H37.9556C38.8934 26.762 39.6537 27.5223 39.6537 28.4601V47.2965Z" fill="#618AAA"/>
<path d="M32.9922 7.52147H42.1837C42.4682 7.52147 42.6016 7.16888 42.3877 6.98054L40 4.87866C39.9671 4.84965 39.9408 4.81398 39.9227 4.77401C39.9047 4.73403 39.8953 4.69068 39.8953 4.64682C39.8953 4.60296 39.9047 4.5596 39.9227 4.51963C39.9408 4.47965 39.9671 4.44398 40 4.41497L42.3877 2.31254C42.6016 2.12429 42.4683 1.77197 42.1837 1.77197H32.9922V7.52147Z" fill="#FDB659"/>
<path d="M33.7222 10.2122L23.7653 15.6192C22.8768 16.1015 22.634 16.9497 22.3238 18.0421L20.3438 25.0437L25.1961 23.0555L27.0795 17.3624L32.0903 14.3181C33.4903 13.4673 34.1565 11.7916 33.7222 10.2122Z" fill="#83D9FF"/>
<path d="M33.7222 10.2122L32.5733 10.8358C32.3797 11.8246 31.7823 12.7173 30.8789 13.2663L26.3133 16.04C26.0259 16.2148 25.81 16.4861 25.7043 16.8054L25.0524 18.7763C24.7175 19.7886 24.1675 20.7163 23.4402 21.496C22.7129 22.2756 21.8254 22.8885 20.8388 23.2928L20.3438 25.0441L25.1961 23.0555L27.0795 17.3628L32.0903 14.3184C33.4903 13.4673 34.1565 11.7916 33.7222 10.2122Z" fill="#5FC9ED"/>
<path d="M25.1961 23.0557L28.0639 26.4442C28.5388 27.0733 28.9523 27.5157 28.8666 28.2079L28.1957 33.6281H26.4459L25.9884 28.9681C25.9747 28.8298 25.9242 28.6976 25.8422 28.5854C25.7602 28.4731 25.6496 28.3849 25.5219 28.3299L20.3438 25.0442L25.1961 23.0557Z" fill="#38627C"/>
<path d="M20.3474 25.0442L20.0676 30.1817C20.0497 30.6076 20.1094 30.8959 19.9427 31.2127L16.6406 38.1596H18.4969L23.4616 31.5649C23.752 31.2269 23.7854 30.7684 23.8832 30.3461L25.1997 23.0557L20.3474 25.0442Z" fill="#4F7693"/>
<path d="M24.846 11.321L25.6604 12.9103C26.0431 13.6574 25.7476 14.5733 25.0005 14.956L24.3709 15.2783C23.6238 15.661 22.7084 15.3655 22.3257 14.6183L21.5112 13.029C21.1285 12.2818 21.424 11.366 22.1712 10.9834L22.8006 10.6611C23.5477 10.2784 24.4633 10.5739 24.846 11.321Z" fill="#FECBAA"/>
<path d="M42.8517 6.45261L40.8006 4.64643L42.8517 2.84071C43.1707 2.55946 43.2798 2.12109 43.1301 1.7234C42.9795 1.32534 42.6079 1.06828 42.1826 1.06828H33.6946V0.703499C33.6946 0.611114 33.6764 0.519634 33.6411 0.434281C33.6057 0.348929 33.5539 0.271376 33.4886 0.20605C33.4232 0.140724 33.3457 0.0889048 33.2603 0.0535506C33.175 0.0181965 33.0835 0 32.9911 0C32.8987 0 32.8073 0.0181965 32.7219 0.0535506C32.6366 0.0889048 32.559 0.140724 32.4937 0.20605C32.4284 0.271376 32.3765 0.348929 32.3412 0.434281C32.3058 0.519634 32.2876 0.611114 32.2876 0.703499V10.1913L26.5099 13.3286C26.4775 13.0708 26.4002 12.8207 26.2815 12.5896L25.4673 11.0002C24.9086 9.90898 23.5661 9.47642 22.4754 10.0349L21.8459 10.3572C21.3171 10.6281 20.9256 11.0881 20.7433 11.6536C20.6528 11.9313 20.6184 12.2242 20.6419 12.5153C20.6655 12.8064 20.7466 13.09 20.8806 13.3495L21.6946 14.9392C21.8776 15.2968 22.1547 15.5978 22.4959 15.8097C22.0637 16.3916 21.8587 17.1072 21.6478 17.8506L21.4962 18.3874C21.471 18.4763 21.4636 18.5693 21.4744 18.6611C21.4852 18.7529 21.5139 18.8416 21.559 18.9222C21.6041 19.0029 21.6647 19.0738 21.7372 19.1311C21.8098 19.1883 21.8929 19.2307 21.9818 19.2557C22.0456 19.274 22.11 19.2825 22.1733 19.2825C22.3265 19.2823 22.4755 19.2322 22.5976 19.1397C22.7197 19.0473 22.8083 18.9175 22.85 18.7701L23.0017 18.2343C23.31 17.147 23.4993 16.5647 24.1021 16.2375L25.1828 15.6504L25.3161 15.5823C25.3605 15.5596 25.4018 15.5339 25.4439 15.5087L33.1461 11.3262C33.0973 12.2889 32.5792 13.1986 31.7259 13.7168L26.7172 16.7599C26.7114 16.7633 26.7055 16.7665 26.7 16.7702L25.141 17.7172C24.9816 17.8142 24.8672 17.9706 24.823 18.1518C24.7788 18.3331 24.8084 18.5246 24.9052 18.6841C25.0953 18.9972 25.4908 19.1085 25.8134 18.9513L24.6306 22.5271L23.766 22.8815L21.4149 23.8451L22.0923 21.4501C22.143 21.2705 22.1204 21.0781 22.0293 20.9152C21.9382 20.7523 21.7863 20.6322 21.6067 20.5814C21.2325 20.4751 20.844 20.6931 20.7381 21.067L19.6677 24.8525C19.6534 24.9024 19.6449 24.9538 19.6424 25.0056L19.3622 30.1515C19.3538 30.3478 19.3956 30.7188 19.3048 30.9103L16.1934 37.456H13.9324C12.6079 37.456 11.5306 38.5333 11.5306 39.8575V41.8882C11.2185 41.7452 10.8792 41.6714 10.5359 41.6718H4.79408C3.46987 41.6718 2.3925 42.7488 2.3925 44.0734V46.5929H0.703499C0.516919 46.5929 0.337982 46.667 0.20605 46.799C0.0741184 46.9309 0 47.1098 0 47.2964C0 47.483 0.0741184 47.6619 0.20605 47.7939C0.337982 47.9258 0.516919 47.9999 0.703499 47.9999H42.1818C42.3684 47.9999 42.5473 47.9258 42.6792 47.7939C42.8112 47.6619 42.8853 47.483 42.8853 47.2964C42.8853 47.1098 42.8112 46.9309 42.6792 46.799C42.5473 46.667 42.3684 46.5929 42.1818 46.5929H40.3523V28.46C40.3523 27.1358 39.2749 26.0584 37.9507 26.0584H33.6946V13.7856C34.4746 12.7284 34.7637 11.3426 34.4015 10.0257C34.3735 9.92348 34.3226 9.82893 34.2529 9.74915C34.1831 9.66936 34.0961 9.60641 33.9986 9.56501C33.9026 9.52423 33.7988 9.50524 33.6946 9.50942V8.22505H42.1823C42.6079 8.22505 42.9795 7.96798 43.1297 7.5703C43.2798 7.17261 43.1707 6.73386 42.8517 6.45261ZM22.0824 12.0857C22.115 11.9835 22.1676 11.8888 22.237 11.8071C22.3065 11.7253 22.3915 11.6582 22.4871 11.6096L23.1166 11.2873C23.2313 11.2283 23.3583 11.1976 23.4872 11.1976C23.7839 11.1976 24.0706 11.3598 24.2149 11.6415L25.0293 13.2312C25.2195 13.6024 25.0964 14.0526 24.7584 14.28L24.5292 14.4042L24.0454 14.6521C23.6451 14.8572 23.1522 14.6982 22.9471 14.2976L22.1326 12.7083C22.0836 12.613 22.0538 12.5089 22.0452 12.402C22.0366 12.2952 22.0493 12.1877 22.0825 12.0858L22.0824 12.0857ZM20.669 37.6724C20.4249 37.5609 20.1638 37.4913 19.8966 37.4666L20.669 36.4408V37.6724ZM24.0092 32.0038C24.3476 31.5985 24.441 31.1249 24.5164 30.7434C24.5355 30.6524 24.8826 28.7563 24.8826 28.7563C24.8826 28.7563 25.2111 28.961 25.2455 28.9756C25.2575 28.9811 25.2678 28.9897 25.2754 29.0005C25.283 29.0114 25.2876 29.024 25.2887 29.0371L25.6714 32.9275H23.3137L24.0092 32.0038ZM28.1694 28.1209L27.5754 32.9241H27.0851L26.6892 28.8994C26.6644 28.6468 26.5752 28.4047 26.4301 28.1965C26.285 27.9882 26.0888 27.8207 25.8604 27.71L25.1529 27.2614L25.6242 24.6493C25.6242 24.6493 27.6098 27.008 27.6559 27.068C28.0668 27.6024 28.2074 27.8162 28.1694 28.1209ZM20.5705 31.5255C20.7126 31.0978 20.7785 30.6624 20.7676 30.2196L21.0231 25.5263L24.2769 24.193L23.6855 27.4691C23.6836 27.4779 23.6818 27.487 23.6807 27.4958L23.1915 30.2047C23.1277 30.4852 23.0721 30.9106 22.8971 31.1418L18.1432 37.456H17.7513L20.5705 31.5255ZM3.79959 44.073C3.79959 43.5249 4.24555 43.0788 4.79418 43.0788H10.536C11.0845 43.0788 11.5309 43.5249 11.5309 44.073V46.593H3.7994L3.79959 44.073ZM12.9376 44.073V39.8575C12.9376 39.309 13.384 38.863 13.9325 38.863H19.6743C20.223 38.863 20.669 39.309 20.669 39.8576V46.5929H12.9379V44.073H12.9376ZM38.9455 28.46V46.5929H31.2144V42.3749C31.2144 42.2825 31.1962 42.1911 31.1608 42.1057C31.1255 42.0203 31.0737 41.9428 31.0083 41.8775C30.943 41.8121 30.8654 41.7603 30.7801 41.725C30.6947 41.6896 30.6033 41.6714 30.5109 41.6714C30.4185 41.6714 30.3269 41.6895 30.2415 41.7249C30.1562 41.7602 30.0786 41.812 30.0132 41.8773C29.9478 41.9427 29.896 42.0202 29.8606 42.1056C29.8252 42.191 29.807 42.2825 29.807 42.3749V46.5929H22.076V35.3287C22.076 34.7804 22.522 34.3344 23.0706 34.3344H28.8124C29.361 34.3344 29.8071 34.7804 29.8071 35.3287V38.8553C29.8071 39.0418 29.8812 39.2208 30.0131 39.3527C30.145 39.4846 30.3239 39.5587 30.5105 39.5588C30.6029 39.5588 30.6944 39.5406 30.7798 39.5053C30.8651 39.4699 30.9427 39.4181 31.008 39.3528C31.0734 39.2875 31.1252 39.2099 31.1605 39.1245C31.1959 39.0392 31.214 38.9477 31.214 38.8553V28.46C31.214 27.9115 31.6604 27.4653 32.2091 27.4653H32.9839C32.9862 27.4653 32.9886 27.4658 32.9912 27.4658C32.9935 27.4658 32.996 27.4654 32.9982 27.4654H37.9505C38.499 27.4654 38.9455 27.9119 38.9455 28.4601V28.46ZM32.2091 26.0584C30.8848 26.0584 29.8074 27.1358 29.8074 28.46V33.1438C29.5501 33.0263 29.274 32.9555 28.9919 32.9348L29.5657 28.2942C29.6785 27.3896 29.217 26.7901 28.7711 26.2101C28.7238 26.1485 25.9893 22.9017 25.9893 22.9017L27.6669 17.8297L32.2878 15.0223V26.0584H32.2091ZM33.6946 6.81777V2.47556H41.1371L39.5342 3.88696C39.4263 3.98198 39.3399 4.09889 39.2806 4.2299C39.2214 4.36091 39.1908 4.50303 39.1907 4.6468C39.1907 4.93762 39.316 5.21446 39.5342 5.40674L41.1371 6.81814H33.6946V6.81777Z" fill="black"/>
</svg>
