<svg width="48" height="48" viewBox="0 0 48 48" fill="none" xmlns="http://www.w3.org/2000/svg">
<g clip-path="url(#clip0_1745_8739)">
<path d="M23.8624 0.534668C19.0669 0.534668 15.1797 4.42191 15.1797 9.21737V12.6533C15.76 12.1154 16.5855 11.8231 17.3915 11.9308V11.4981C17.3915 11.1541 17.6851 10.8825 18.0257 10.9083C21.3827 11.1494 24.7991 10.0827 27.3822 8.39521C27.499 8.31893 27.6389 8.28635 27.7773 8.30322C27.9157 8.32008 28.0437 8.38531 28.1387 8.48739C30.3471 10.8612 30.3338 10.7693 30.3338 11.0793V11.9289C31.2171 11.7965 32.0007 12.0695 32.5451 12.5756V9.21737C32.545 4.422 28.6579 0.534668 23.8624 0.534668Z" fill="#576574"/>
<path d="M17.5101 9.21737C17.5101 4.81733 20.7835 1.18433 25.0275 0.614712C24.6413 0.562119 24.252 0.535379 23.8623 0.534668C19.0668 0.534668 15.1797 4.42191 15.1797 9.21737V12.6533C15.7599 12.1154 16.5855 11.8231 17.3914 11.9308V11.4981C17.3914 11.3645 17.4361 11.2422 17.5102 11.1436V9.21737H17.5101Z" fill="#3E4B5A"/>
<path d="M30.2175 11.5841V16.3404C30.2175 16.3919 30.2148 16.4429 30.2136 16.4943C31.8967 16.7492 33.215 15.533 33.215 14.0393C33.2151 12.5427 31.8957 11.3324 30.2175 11.5841ZM17.5054 16.3404V11.5858C16.04 11.3902 14.5078 12.5148 14.5078 14.0393C14.5078 15.5309 15.8231 16.7493 17.5091 16.4941C17.5079 16.4428 17.5054 16.3917 17.5054 16.3404Z" fill="#F2BB88"/>
<path d="M32.3233 12.1382C31.7854 11.692 31.0453 11.4599 30.2176 11.584V16.3403C30.2176 16.3919 30.215 16.4429 30.2137 16.4942C31.0439 16.6199 31.785 16.3873 32.3233 15.9404V12.1382ZM17.5054 15.9407C17.2257 15.7091 17.0007 15.4186 16.8466 15.0898C16.6924 14.7611 16.6128 14.4024 16.6136 14.0393C16.6136 13.3034 16.9712 12.6611 17.5054 12.2152V11.5859C16.04 11.3902 14.5078 12.5148 14.5078 14.0393C14.5078 15.531 15.8231 16.7493 17.5091 16.4941C17.5079 16.4428 17.5054 16.3917 17.5054 16.3403V15.9407Z" fill="#E3A76F"/>
<path d="M23.9562 22.6041C22.5534 22.6041 21.3207 22.219 20.3125 21.5748V24.9824L23.9406 29.4607L27.5687 24.9824V21.4788C26.5409 22.1877 25.2965 22.6041 23.9562 22.6041Z" fill="#F2BB88"/>
<path d="M22.636 22.484C21.7711 22.3235 20.9908 22.0081 20.3125 21.5747V24.9823L22.636 27.8504V22.484Z" fill="#E3A76F"/>
<path d="M37.1639 28.4694L27.566 24.7524L23.938 29.2307L20.3097 24.7524L10.7218 28.4695C10.7218 28.4695 7.17188 29.9289 7.17188 33.9758V42.3928C7.17188 42.6118 7.25888 42.8219 7.41376 42.9767C7.56863 43.1316 7.77868 43.2186 7.99771 43.2186H39.8953C40.1124 43.2186 40.3206 43.1324 40.4741 42.9789C40.6277 42.8253 40.7139 42.6171 40.7139 42.4V33.9758C40.7139 29.9289 37.1639 28.4694 37.1639 28.4694Z" fill="#E4EAF8"/>
<path d="M9.49549 42.3925V32.9299C9.49549 30.1534 11.1663 28.5951 12.2154 27.8901L10.7218 28.4692C10.7218 28.4692 7.17188 29.9286 7.17188 33.9754V42.3924C7.17187 42.6114 7.25887 42.8214 7.41373 42.9763C7.56858 43.1312 7.77861 43.2182 7.99761 43.2182H10.3211C10.2127 43.2182 10.1053 43.1968 10.0052 43.1553C9.90498 43.1138 9.81396 43.053 9.73729 42.9764C9.66062 42.8997 9.5998 42.8087 9.55831 42.7085C9.51683 42.6083 9.49548 42.5009 9.49549 42.3925Z" fill="#D8DCE5"/>
<path d="M28.1378 8.25763C28.0428 8.15554 27.9149 8.0903 27.7764 8.07343C27.638 8.05657 27.4981 8.08916 27.3814 8.16546C24.7983 9.85296 21.3819 10.9197 18.0249 10.6785C17.6844 10.6527 17.3906 10.9244 17.3906 11.2683V16.4555C17.3906 19.7893 20.0028 22.8342 23.9541 22.8342C27.4714 22.8342 30.333 19.9727 30.333 16.4555V10.8496C30.3329 10.5396 30.3462 10.6314 28.1378 8.25763Z" fill="#F2D1A5"/>
<path d="M19.7142 16.4555V10.6919C19.1522 10.7218 18.5877 10.7189 18.0249 10.6785C17.6844 10.6527 17.3906 10.9243 17.3906 11.2683V16.4554C17.3906 19.7892 20.0028 22.8342 23.9541 22.8342C24.3187 22.8342 24.6755 22.8018 25.0235 22.7427C22.0139 22.2324 19.7142 19.6082 19.7142 16.4555Z" fill="#F2BB88"/>
<path d="M28.3182 31.5317L31.0312 26.0944L27.5656 24.7522L23.9375 29.2305L27.4747 31.7427C27.7612 31.9462 28.1614 31.8461 28.3182 31.5317Z" fill="#D8DCE5"/>
<path d="M19.5646 31.5317L16.8516 26.0944L20.3171 24.7522L23.9452 29.2305L20.408 31.7427C20.1217 31.9462 19.7215 31.8461 19.5646 31.5317Z" fill="#D8DCE5"/>
<path d="M23.9443 29.2336V29.2305L23.9421 29.2321L23.94 29.2305V29.2336L21.3672 31.0607L22.5833 32.891H25.3009L26.517 31.0607L23.9443 29.2336Z" fill="#EE5253"/>
<path d="M20.7344 43.2183H27.139L25.2955 32.8911H22.5779L20.7344 43.2183Z" fill="#FF6B6B"/>
<path d="M25.2297 30.1464L23.9444 29.2336V29.2305L23.9422 29.2321L23.94 29.2305V29.2336L21.3672 31.0607L22.5833 32.891H25.1582L24.1597 31.3882C24.1014 31.3004 24.0795 31.1934 24.0987 31.0897C24.1179 30.9861 24.1767 30.894 24.2627 30.833L25.2297 30.1464Z" fill="#D83941"/>
<path d="M22.5778 32.8911L20.7344 43.2182H23.3093L25.1528 32.8911H22.5778Z" fill="#EE5253"/>
<path d="M28.9237 41.6759C29.1981 41.4083 29.0467 40.9422 28.6674 40.8871L25.9331 40.4898C25.8589 40.479 25.7884 40.4503 25.7278 40.4062C25.6671 40.3621 25.6181 40.304 25.5849 40.2367L24.3621 37.7591C24.1924 37.4153 23.7023 37.4153 23.5326 37.7591L22.3099 40.2367C22.2767 40.304 22.2276 40.3621 22.167 40.4062C22.1063 40.4503 22.0359 40.479 21.9617 40.4898L19.2274 40.8871C18.8481 40.9422 18.6965 41.4084 18.9711 41.6759L20.9496 43.6045C21.0033 43.6568 21.0435 43.7214 21.0666 43.7927C21.0898 43.8641 21.0953 43.9399 21.0826 44.0138L20.6155 46.7371C20.5507 47.1149 20.9473 47.403 21.2866 47.2247L23.7322 45.9389C23.7986 45.904 23.8725 45.8858 23.9475 45.8858C24.0225 45.8858 24.0963 45.904 24.1627 45.9389L26.6083 47.2247C26.9477 47.4031 27.3442 47.1149 27.2794 46.7371L26.8123 44.0138C26.7997 43.9399 26.8052 43.8641 26.8283 43.7928C26.8515 43.7214 26.8917 43.6568 26.9453 43.6045L28.9237 41.6759ZM41.5905 41.6759C41.865 41.4083 41.7135 40.9422 41.3342 40.8871L38.5999 40.4898C38.5257 40.479 38.4552 40.4503 38.3946 40.4062C38.3339 40.3621 38.2849 40.304 38.2517 40.2367L37.029 37.7591C36.8593 37.4153 36.3691 37.4153 36.1995 37.7591L34.9767 40.2367C34.9435 40.304 34.8945 40.3621 34.8338 40.4062C34.7732 40.4503 34.7027 40.479 34.6285 40.4898L31.8942 40.8871C31.5149 40.9422 31.3634 41.4084 31.6379 41.6759L33.6164 43.6045C33.6701 43.6568 33.7103 43.7214 33.7335 43.7927C33.7566 43.8641 33.7621 43.9399 33.7494 44.0138L33.2823 46.7371C33.2175 47.1149 33.6141 47.403 33.9534 47.2247L36.3991 45.9389C36.4654 45.904 36.5393 45.8858 36.6143 45.8858C36.6893 45.8858 36.7632 45.904 36.8296 45.9389L39.2752 47.2247C39.6144 47.4031 40.0111 47.1149 39.9463 46.7371L39.4792 44.0138C39.4665 43.9399 39.472 43.8641 39.4952 43.7928C39.5183 43.7214 39.5585 43.6568 39.6122 43.6045L41.5905 41.6759ZM16.2568 41.6759C16.5313 41.4083 16.3799 40.9422 16.0005 40.8871L13.2663 40.4898C13.1921 40.479 13.1216 40.4503 13.0609 40.4062C13.0003 40.3621 12.9512 40.304 12.9181 40.2367L11.6953 37.7591C11.5256 37.4153 11.0355 37.4153 10.8658 37.7591L9.64305 40.2367C9.60985 40.304 9.56082 40.3621 9.50016 40.4062C9.4395 40.4503 9.36904 40.479 9.29484 40.4898L6.56057 40.8871C6.18123 40.9422 6.02971 41.4084 6.30426 41.6759L8.28278 43.6045C8.33648 43.6568 8.37665 43.7214 8.39982 43.7927C8.42299 43.8641 8.42847 43.9399 8.41578 44.0138L7.94868 46.7371C7.88388 47.1149 8.28043 47.403 8.61979 47.2247L11.0654 45.9389C11.1318 45.904 11.2057 45.8858 11.2806 45.8858C11.3556 45.8858 11.4295 45.904 11.4959 45.9389L13.9415 47.2247C14.2808 47.4031 14.6774 47.1149 14.6126 46.7371L14.1455 44.0138C14.1328 43.9399 14.1383 43.8641 14.1615 43.7928C14.1847 43.7214 14.2248 43.6568 14.2785 43.6045L16.2568 41.6759Z" fill="#FBC856"/>
<path d="M22.9638 44.014C22.9764 43.9401 22.9709 43.8642 22.9478 43.7929C22.9246 43.7216 22.8845 43.657 22.8308 43.6046L20.8523 41.676C20.5778 41.4084 20.7292 40.9423 21.1086 40.8872L23.8428 40.4899C23.917 40.4791 23.9875 40.4504 24.0482 40.4063C24.1088 40.3622 24.1579 40.3041 24.191 40.2368L24.888 38.8246L24.3621 37.7591C24.1925 37.4153 23.7023 37.4153 23.5326 37.7591L22.3099 40.2367C22.2767 40.304 22.2276 40.3621 22.167 40.4062C22.1063 40.4503 22.0359 40.479 21.9617 40.4898L19.2274 40.8871C18.8481 40.9422 18.6965 41.4083 18.9711 41.6759L20.9496 43.6045C21.0033 43.6568 21.0435 43.7215 21.0667 43.7928C21.0898 43.8641 21.0953 43.94 21.0826 44.0139L20.6155 46.7372C20.5507 47.115 20.9473 47.4031 21.2866 47.2248L22.5247 46.5739L22.9638 44.014ZM35.6306 44.014C35.6433 43.9401 35.6378 43.8642 35.6146 43.7929C35.5914 43.7216 35.5513 43.657 35.4976 43.6046L33.5191 41.676C33.2446 41.4084 33.396 40.9423 33.7754 40.8872L36.5097 40.4899C36.5839 40.4791 36.6543 40.4504 36.715 40.4063C36.7757 40.3622 36.8247 40.3041 36.8579 40.2368L37.5548 38.8246L37.029 37.7592C36.8593 37.4154 36.3691 37.4154 36.1995 37.7592L34.9767 40.2368C34.9435 40.3041 34.8945 40.3622 34.8338 40.4063C34.7732 40.4504 34.7027 40.4791 34.6285 40.4899L31.8942 40.8872C31.5149 40.9423 31.3634 41.4084 31.6379 41.676L33.6164 43.6046C33.6701 43.6569 33.7103 43.7216 33.7335 43.7929C33.7567 43.8642 33.7621 43.9401 33.7494 44.014L33.2823 46.7373C33.2175 47.1151 33.6141 47.4032 33.9534 47.2249L35.1915 46.574L35.6306 44.014ZM10.2969 44.014C10.3096 43.9401 10.3041 43.8642 10.281 43.7929C10.2578 43.7216 10.2176 43.657 10.1639 43.6046L8.18543 41.676C7.91097 41.4084 8.0624 40.9423 8.44174 40.8872L11.176 40.4899C11.2502 40.4791 11.3207 40.4504 11.3813 40.4063C11.442 40.3622 11.491 40.3041 11.5242 40.2368L12.2212 38.8246L11.6953 37.7592C11.5256 37.4154 11.0355 37.4154 10.8658 37.7592L9.64305 40.2368C9.60985 40.3041 9.56082 40.3622 9.50016 40.4063C9.4395 40.4504 9.36904 40.4791 9.29484 40.4899L6.56057 40.8872C6.18123 40.9423 6.02971 41.4084 6.30426 41.676L8.28278 43.6046C8.33649 43.6569 8.37666 43.7216 8.39983 43.7929C8.423 43.8642 8.42847 43.9401 8.41578 44.014L7.94868 46.7373C7.88388 47.1151 8.28043 47.4032 8.61979 47.2249L9.85788 46.574L10.2969 44.014Z" fill="#F4B537"/>
<path d="M42.1408 42.1953C42.8337 41.5199 42.4507 40.3423 41.4934 40.2032L41.4815 40.2015V37.6119C41.4815 37.2222 41.1658 36.9064 40.7761 36.9064C40.3864 36.9064 40.0707 37.2222 40.0707 37.6119V39.9965L38.8855 39.8244L37.7193 37.4613C37.2917 36.5943 36.0532 36.5931 35.6245 37.4612L35.4398 37.8354V35.3809C35.4398 34.9912 35.1241 34.6754 34.7344 34.6754C34.3447 34.6754 34.0289 34.9912 34.0289 35.3809V39.8867L31.8504 40.2032C30.8931 40.3423 30.5102 41.5196 31.203 42.1954L32.1225 43.0915H28.5546L29.4739 42.1954L29.474 42.1952C30.1646 41.5243 29.7872 40.3427 28.8266 40.2032L27.2738 39.9775L26.1035 33.0632L26.7622 32.0717L27.1287 32.3321C27.7664 32.7851 28.661 32.5636 29.0119 31.8609V31.8608L31.438 26.9984L36.9614 29.1375C37.1561 29.2208 40.0705 30.5273 40.0705 33.9898V34.3197C40.0705 34.7094 40.3862 35.0252 40.7759 35.0252C41.1656 35.0252 41.4814 34.7094 41.4814 34.3197V33.9898C41.4814 29.5216 37.6571 27.898 37.4942 27.831L37.4808 27.8256L28.3333 24.283V22.0801C29.7926 20.9544 30.8013 19.274 31.0421 17.3569C32.7989 17.2565 34.0972 15.8425 34.0972 14.1685C34.0976 13.3988 33.8182 12.6552 33.3111 12.0763V9.23184C33.3111 4.73604 30.111 0.858865 25.702 0.0128106C25.3201 -0.0607429 24.9497 0.189922 24.8763 0.572645C24.8589 0.663618 24.8595 0.757138 24.8782 0.847865C24.8969 0.938593 24.9332 1.02475 24.9852 1.10142C25.0372 1.17809 25.1038 1.24377 25.1812 1.2947C25.2585 1.34564 25.3452 1.38084 25.4361 1.39829C29.1816 2.11718 31.9003 5.41157 31.9003 9.23174V11.1417C31.6409 11.0567 31.372 11.0039 31.0998 10.9845C31.0998 10.2168 31.1637 10.4221 28.7158 7.79124L28.7157 7.79115C28.5077 7.56681 28.227 7.42341 27.9233 7.38639C27.6197 7.34937 27.3127 7.42112 27.057 7.58892C24.4464 9.29429 21.2744 10.1677 18.3243 10.0003C17.8234 9.97179 17.5697 9.99164 17.162 10.3314C16.9657 10.5135 16.8311 10.7583 16.7768 11.0053C16.5374 11.0299 16.2119 11.1003 15.9458 11.1974V9.23184C15.9458 5.41166 18.6643 2.11718 22.4099 1.39838C22.5009 1.38093 22.5875 1.34574 22.6649 1.2948C22.7423 1.24386 22.8089 1.17818 22.8608 1.10151C22.9128 1.02484 22.9492 0.938687 22.9679 0.847959C22.9866 0.757232 22.9872 0.663712 22.9698 0.57274C22.8965 0.190205 22.5264 -0.0609311 22.1441 0.0129047C17.735 0.858959 14.535 4.73613 14.535 9.23193V12.1503C14.026 12.7197 13.7491 13.4229 13.7491 14.1686C13.7491 15.8402 15.0443 17.2563 16.8035 17.3569C17.0409 19.2657 18.0474 21.0255 19.6664 22.1913V24.2834L10.5289 27.8258L10.5157 27.8312C10.3529 27.8982 6.52856 29.5218 6.52856 33.99V40.2016L6.51671 40.2033C6.30075 40.2338 6.09777 40.3245 5.93102 40.4651C5.76426 40.6057 5.64048 40.7904 5.57387 40.998C5.50564 41.2052 5.49717 41.4274 5.54944 41.6392C5.60171 41.851 5.7126 42.0438 5.8694 42.1954L7.75649 44.0348L7.31093 46.6322C7.27328 46.8471 7.2969 47.0682 7.3791 47.2702C7.46129 47.4722 7.59873 47.647 7.77568 47.7746C7.95161 47.9035 8.16032 47.9802 8.37786 47.9959C8.59539 48.0116 8.81295 47.9656 9.00558 47.8634L11.3382 46.6371L13.6708 47.8634C13.8634 47.9656 14.081 48.0114 14.2985 47.9957C14.516 47.98 14.7247 47.9034 14.9007 47.7746C15.0777 47.647 15.2151 47.4722 15.2973 47.2702C15.3795 47.0681 15.4031 46.847 15.3653 46.6321L15 44.5024H20.343L19.9777 46.6322C19.8144 47.5857 20.8158 48.3137 21.6724 47.8634L24.0051 46.6371L26.3376 47.8634C26.5303 47.9656 26.7478 48.0114 26.9653 47.9957C27.1828 47.98 27.3915 47.9034 27.5675 47.7746C27.7445 47.647 27.8819 47.4722 27.9641 47.2702C28.0463 47.0681 28.0699 46.847 28.0322 46.6321L27.6668 44.5024H33.0098L32.6445 46.6322C32.4812 47.5857 33.4826 48.3137 34.3392 47.8634L36.6719 46.6371L39.0044 47.8634C39.8606 48.3136 40.8625 47.5858 40.6991 46.6321L40.2536 44.0348L42.1408 42.1953ZM31.1 12.4026C32.0464 12.5247 32.6866 13.295 32.6866 14.1685C32.6866 15.0484 32.0422 15.814 31.1 15.935V12.4026ZM16.7468 15.935C15.8061 15.8142 15.1601 15.0508 15.1601 14.1685C15.1601 13.2997 15.8974 12.6026 16.7468 12.4366V15.935ZM30.1168 26.4867L27.819 31.0918L25.0214 29.1047L27.8528 25.61L30.1168 26.4867ZM24.9832 32.2H23.022L22.3936 31.2545L24.0025 30.1118L25.6115 31.2545L24.9832 32.2ZM25.6072 38.5853L25.0525 37.4612C24.624 36.5924 23.3857 36.5937 22.9577 37.4611L22.3953 38.6007L23.2399 33.6109H24.7655L25.6072 38.5853ZM21.0774 24.5105V22.9797C21.9776 23.3543 22.9806 23.5538 24.0157 23.5538C25.0296 23.5538 26.0364 23.33 26.9226 22.9291V24.5166L24.0025 28.1212L21.0774 24.5105ZM18.1576 16.4696V11.4044C21.3995 11.6077 24.881 10.6706 27.7483 8.8224C28.8781 10.0363 29.5056 10.6877 29.6891 10.9179V16.4695C29.6891 19.5934 27.1423 22.1427 24.0158 22.1427C20.5615 22.1428 18.1576 19.4776 18.1576 16.4696ZM20.1487 25.6114L22.9806 29.107L20.1863 31.0918L17.8884 26.4867L20.1487 25.6114ZM13.8438 43.1135C13.5736 43.3771 13.4427 43.7669 13.508 44.1473L13.8918 46.3854L11.8818 45.3288C11.7142 45.2406 11.5276 45.1946 11.3383 45.1946C11.1489 45.1946 10.9624 45.2406 10.7948 45.3288L8.78483 46.3854L9.16877 44.1473C9.20076 43.9607 9.18691 43.7691 9.12839 43.589C9.06988 43.4089 8.96847 43.2457 8.83289 43.1135L7.20681 41.5285L9.45443 41.202C9.64175 41.1746 9.81962 41.1022 9.97275 40.9909C10.1259 40.8796 10.2497 40.7328 10.3335 40.563L11.3384 38.5269C12.4008 40.6794 12.3527 40.5933 12.4144 40.6874C12.5051 40.8254 12.6241 40.9427 12.7634 41.0314C12.9028 41.1201 13.0593 41.1783 13.2228 41.2021L15.4699 41.5286L13.8438 43.1135ZM15.8877 43.0915L16.8071 42.1954L16.8072 42.1952C17.5005 41.5192 17.1172 40.3423 16.1597 40.2032L13.9815 39.8867V35.3808C13.9815 34.9911 13.6657 34.6754 13.276 34.6754C12.8863 34.6754 12.5706 34.9911 12.5706 35.3808V37.8357L12.3857 37.4611C11.9604 36.599 10.7216 36.5882 10.2909 37.461L9.12466 39.8242L7.93953 39.9963V33.9898C7.93953 30.5171 10.8712 29.2131 11.0479 29.1378L16.5668 26.9982L18.9932 31.8609C19.343 32.5618 20.2366 32.7865 20.8763 32.3322L21.2428 32.0718L21.9016 33.0633L20.7313 39.9784L19.1837 40.2033C18.2244 40.3425 17.8452 41.5214 18.5363 42.1955L19.4557 43.0916H15.8877V43.0915ZM26.5106 43.1135C26.2399 43.3776 26.1096 43.7675 26.1748 44.1473L26.5586 46.3854L24.5486 45.3288C24.381 45.2406 24.1945 45.1946 24.0051 45.1946C23.8157 45.1946 23.6292 45.2406 23.4616 45.3288L21.4517 46.3854L21.8356 44.1473C21.9026 43.7567 21.7619 43.369 21.4997 43.1135L19.8736 41.5285L22.1213 41.202C22.4876 41.1485 22.8276 40.9124 23.0003 40.563L24.0052 38.5269L25.0103 40.5632C25.1871 40.9211 25.5304 41.1497 25.8897 41.202L28.1368 41.5285L26.5106 43.1135ZM39.1774 43.1135C39.0418 43.2457 38.9404 43.4088 38.8819 43.5889C38.8234 43.769 38.8096 43.9607 38.8416 44.1473L39.2255 46.3854L37.2154 45.3288C37.0478 45.2406 36.8613 45.1946 36.6719 45.1946C36.4826 45.1946 36.296 45.2406 36.1284 45.3288L34.1185 46.3854L34.5024 44.1473C34.568 43.7649 34.4354 43.3755 34.1665 43.1135L32.5405 41.5285L34.7881 41.202C34.9754 41.1746 35.1533 41.1022 35.3064 40.9909C35.4595 40.8796 35.5833 40.7328 35.6671 40.563L36.6721 38.5269L37.6771 40.5632C37.761 40.7329 37.8848 40.8798 38.038 40.991C38.1912 41.1023 38.3691 41.1747 38.5564 41.202L40.8036 41.5285L39.1774 43.1135Z" fill="black"/>
</g>
<defs>
<clipPath id="clip0_1745_8739">
<rect width="48" height="48" fill="white"/>
</clipPath>
</defs>
</svg>
