<svg width="48" height="48" viewBox="0 0 48 48" fill="none" xmlns="http://www.w3.org/2000/svg">
<path d="M44.3159 16.1225V34.3752L3.67969 20.7482V13.8068C3.67969 11.3138 5.70066 9.29297 8.19253 9.29297H37.4863C41.2577 9.29288 44.3159 12.3511 44.3159 16.1225Z" fill="#665E66"/>
<path d="M44.3159 21.4731V34.3753L3.67969 20.7483V19.1564C3.67969 16.6636 5.70066 14.6436 8.19253 14.6436H37.4863C41.2577 14.6436 44.3159 17.7008 44.3159 21.4731Z" fill="#544F57"/>
<path d="M26.476 21.1551C32.1236 21.1551 36.7019 16.5767 36.7019 10.9291C36.7019 5.28145 32.1236 0.703125 26.476 0.703125C20.8283 0.703125 16.25 5.28145 16.25 10.9291C16.25 16.5767 20.8283 21.1551 26.476 21.1551Z" fill="#FFE07D"/>
<path d="M27.8824 21.0591C27.4162 21.1232 26.9461 21.1554 26.4754 21.1554C20.828 21.1554 16.25 16.5774 16.25 10.929C16.25 5.28161 20.828 0.703613 26.4754 0.703613C26.9532 0.703613 27.4222 0.736707 27.8824 0.799895C22.9006 1.48493 19.064 5.75936 19.064 10.9289C19.064 16.0996 22.9005 20.3741 27.8824 21.0591Z" fill="#FFC250"/>
<path d="M17.7103 24.7532C23.358 24.7532 27.9363 20.1749 27.9363 14.5272C27.9363 8.87959 23.358 4.30127 17.7103 4.30127C12.0627 4.30127 7.48438 8.87959 7.48438 14.5272C7.48438 20.1749 12.0627 24.7532 17.7103 24.7532Z" fill="#FFE07D"/>
<path d="M19.1168 24.6572C18.6505 24.7214 18.1804 24.7535 17.7098 24.7535C12.0624 24.7535 7.48438 20.1755 7.48438 14.5272C7.48438 8.87976 12.0624 4.30176 17.7098 4.30176C18.1875 4.30176 18.6566 4.33485 19.1168 4.39804C14.135 5.08307 10.2984 9.35751 10.2984 14.5271C10.2984 19.6978 14.135 23.9722 19.1168 24.6572Z" fill="#FFC250"/>
<path d="M17.6278 8.18829L13.7382 13.2978C13.0452 14.2081 13.6944 15.5182 14.8385 15.5182H16.8744V20.2691C16.8744 21.2345 18.1188 21.624 18.6693 20.8309L21.7122 16.4462C22.3486 15.5291 21.6923 14.2749 20.5761 14.2749H19.3971V8.78511C19.3971 7.84179 18.1992 7.43764 17.6278 8.18829Z" fill="#FFC250"/>
<path d="M44.3159 25.1491V40.4673C44.3159 44.2397 41.2577 47.2969 37.4863 47.2969H8.19253C5.70066 47.2969 3.67969 45.2759 3.67969 42.784V13.8066C3.67969 15.053 4.18472 16.1808 5.00203 16.9971C5.81841 17.8145 6.94706 18.3195 8.19253 18.3195H37.4863C41.2577 18.3195 44.3159 21.3767 44.3159 25.1491Z" fill="#80B4FB"/>
<path d="M8.36184 18.3195V47.2968H8.19253C5.70066 47.2968 3.67969 45.2758 3.67969 42.7839V13.8066C3.67969 15.053 4.18472 16.1808 5.00203 16.9971C5.81841 17.8145 6.94706 18.3195 8.19253 18.3195H8.36184Z" fill="#61A2F9"/>
<path d="M19.7241 41.5718V47.297H17.097V42.1167L11.9322 36.951C11.4184 36.4382 11.4184 35.6062 11.9322 35.0935C12.445 34.5807 13.2769 34.5807 13.7897 35.0935L19.3387 40.6436C19.4608 40.7654 19.5577 40.9101 19.6238 41.0694C19.6899 41.2286 19.724 41.3994 19.7241 41.5718ZM34.799 33.5454L29.6342 38.7111V47.297H27.0071V38.1662C27.0071 37.8179 27.1453 37.4841 27.3915 37.238L32.9416 31.6879C33.4544 31.1751 34.2863 31.1751 34.799 31.6879C35.3118 32.2007 35.3118 33.0327 34.799 33.5454ZM24.6797 34.1195V47.297H22.0525V34.6644L18.537 31.1489C18.0242 30.6351 18.0242 29.8041 18.537 29.2904C19.0498 28.7776 19.8817 28.7776 20.3944 29.2904L24.2943 33.1912C24.4165 33.3129 24.5135 33.4576 24.5796 33.6169C24.6457 33.7762 24.6797 33.947 24.6797 34.1195Z" fill="#FFC250"/>
<path d="M12.8562 38.6597C14.3129 38.6597 15.4937 37.4789 15.4937 36.0222C15.4937 34.5656 14.3129 33.3848 12.8562 33.3848C11.3996 33.3848 10.2188 34.5656 10.2188 36.0222C10.2188 37.4789 11.3996 38.6597 12.8562 38.6597Z" fill="#FFE07D"/>
<path d="M13.7625 38.5006C13.4719 38.6066 13.165 38.6606 12.8557 38.6602C11.3991 38.6602 10.2188 37.479 10.2188 36.0224C10.2188 34.5658 11.3991 33.3845 12.8557 33.3845C13.1748 33.3845 13.4803 33.441 13.7625 33.5441C12.7525 33.9148 12.0315 34.884 12.0315 36.0224C12.0315 37.1609 12.7524 38.13 13.7625 38.5006Z" fill="#FFC250"/>
<path d="M33.8718 35.2544C35.3285 35.2544 36.5093 34.0736 36.5093 32.617C36.5093 31.1603 35.3285 29.9795 33.8718 29.9795C32.4152 29.9795 31.2344 31.1603 31.2344 32.617C31.2344 34.0736 32.4152 35.2544 33.8718 35.2544Z" fill="#FFE07D"/>
<path d="M34.7781 35.0951C34.4875 35.2011 34.1806 35.2551 33.8713 35.2547C32.4147 35.2547 31.2344 34.0734 31.2344 32.6168C31.2344 31.1603 32.4147 29.979 33.8713 29.979C34.1904 29.979 34.4959 30.0354 34.7781 30.1386C33.7682 30.5093 33.0471 31.4784 33.0471 32.6168C33.0471 33.7553 33.7682 34.7244 34.7781 35.0951Z" fill="#FFC250"/>
<path d="M19.4656 32.857C20.9222 32.857 22.1031 31.6761 22.1031 30.2195C22.1031 28.7629 20.9222 27.582 19.4656 27.582C18.009 27.582 16.8281 28.7629 16.8281 30.2195C16.8281 31.6761 18.009 32.857 19.4656 32.857Z" fill="#FFE07D"/>
<path d="M20.3719 32.6977C20.0813 32.8036 19.7743 32.8576 19.465 32.8572C18.0084 32.8572 16.8281 31.676 16.8281 30.2194C16.8281 28.7628 18.0084 27.5815 19.465 27.5815C19.7842 27.5815 20.0897 27.638 20.3719 27.7411C19.3619 28.1118 18.6409 29.081 18.6409 30.2194C18.6409 31.3578 19.3618 32.3269 20.3719 32.6977Z" fill="#FFC250"/>
<path d="M40.7127 6.51055H39.3132V5.11105C39.3132 3.84402 38.2861 2.81689 37.0191 2.81689C35.752 2.81689 34.7249 3.84402 34.7249 5.11105V6.51055H33.3254C32.0584 6.51055 31.0312 7.53768 31.0312 8.80471C31.0312 10.0717 32.0584 11.0989 33.3254 11.0989H34.7249V12.4984C34.7249 13.7654 35.752 14.7925 37.0191 14.7925C38.2861 14.7925 39.3132 13.7654 39.3132 12.4984V11.0989H40.7127C41.9797 11.0989 43.0069 10.0717 43.0069 8.80471C43.0069 7.53768 41.9797 6.51055 40.7127 6.51055Z" fill="#F9F6F6"/>
<path d="M45.0197 16.1231C45.0197 14.1404 44.25 12.2678 42.8831 10.867C43.3941 10.3293 43.7087 9.60319 43.7087 8.80462C43.7087 7.15191 42.3641 5.80734 40.7114 5.80734H40.015V5.11097C40.015 3.45825 38.6705 2.11369 37.0178 2.11369C35.9583 2.11369 35.0261 2.66672 34.493 3.49884C34.0835 3.05681 33.6383 2.64931 33.1619 2.28047C33.0144 2.16643 32.8275 2.11568 32.6426 2.13938C32.4576 2.16308 32.2896 2.25929 32.1756 2.40684C32.0615 2.5544 32.0108 2.74121 32.0345 2.92619C32.0582 3.11116 32.1544 3.27915 32.3019 3.39319C32.9457 3.89138 33.5233 4.46978 34.0205 5.11434V5.80734H33.3241C31.6714 5.80734 30.3268 7.15191 30.3268 8.80462C30.3268 10.4573 31.6714 11.8019 33.3241 11.8019H34.0205V12.4983C34.0205 13.4501 34.467 14.299 35.1609 14.8485C34.6946 15.8757 34.051 16.8126 33.2594 17.6164H28.1977C28.4918 16.6181 28.6406 15.5831 28.6406 14.5275C28.6406 12.5526 28.1082 10.6179 27.1013 8.93325C25.5555 6.34172 23.0004 4.51322 20.0978 3.86259C21.8374 2.28881 24.1018 1.40625 26.4806 1.40625C27.708 1.40625 28.9022 1.63641 30.0299 2.09044C30.1156 2.1252 30.2073 2.14271 30.2998 2.14197C30.3923 2.14122 30.4838 2.12224 30.5689 2.0861C30.654 2.04996 30.7312 1.99738 30.796 1.93137C30.8608 1.86536 30.9119 1.78722 30.9464 1.70141C30.981 1.61561 30.9983 1.52384 30.9973 1.43135C30.9963 1.33886 30.9771 1.24748 30.9407 1.16244C30.9043 1.07739 30.8515 1.00036 30.7854 0.935747C30.7192 0.871135 30.6409 0.820216 30.555 0.785906C29.2597 0.264375 27.8888 0 26.4806 0C23.3708 0 20.4317 1.31447 18.3589 3.61819C18.1432 3.6051 17.9273 3.59841 17.7113 3.59812C15.7849 3.59813 13.8907 4.10644 12.2336 5.06803C10.743 5.93306 9.47166 7.146 8.53538 8.59031H8.19281C5.31656 8.59031 2.97656 10.9303 2.97656 13.8066H2.97694L2.97684 42.7837C2.97684 45.66 5.31684 48 8.19309 48H37.4866C41.6401 48 45.0192 44.6209 45.0192 40.4674L45.0193 25.1494H45.0197V16.1231ZM34.7236 10.3957H33.3241C32.4468 10.3957 31.7331 9.68194 31.7331 8.80462C31.7331 7.92731 32.4468 7.21359 33.3241 7.21359H34.7236C34.9101 7.21359 35.0889 7.13951 35.2208 7.00765C35.3526 6.87579 35.4267 6.69695 35.4267 6.51047V5.11097C35.4267 4.23366 36.1404 3.51994 37.0178 3.51994C37.8951 3.51994 38.6088 4.23366 38.6088 5.11097V6.51047C38.6088 6.69695 38.6829 6.87579 38.8147 7.00765C38.9466 7.13951 39.1254 7.21359 39.3119 7.21359H40.7114C41.5887 7.21359 42.3024 7.92731 42.3024 8.80462C42.3024 9.68194 41.5887 10.3957 40.7114 10.3957H39.3119C39.1254 10.3957 38.9466 10.4697 38.8147 10.6016C38.6829 10.7335 38.6088 10.9123 38.6088 11.0988V12.4983C38.6088 13.3756 37.8951 14.0893 37.0178 14.0893C36.1404 14.0893 35.4267 13.3756 35.4267 12.4983V11.0988C35.4267 10.9123 35.3526 10.7335 35.2208 10.6016C35.0889 10.4697 34.9101 10.3957 34.7236 10.3957ZM36.4372 15.4386C36.625 15.4756 36.8191 15.4955 37.0178 15.4955C38.6705 15.4955 40.015 14.1509 40.015 12.4982V11.8018H40.7114C41.0452 11.8018 41.3659 11.7461 41.666 11.6451C42.9079 12.8032 43.6134 14.4124 43.6134 16.123V20.775C42.2457 18.8647 40.01 17.6164 37.4867 17.6164H35.1225C35.6434 16.9437 36.0846 16.2129 36.4372 15.4386ZM17.7113 5.00437C18.004 5.00437 18.3003 5.01816 18.5931 5.04553C21.608 5.32172 24.3372 7.04437 25.8939 9.65419C26.7709 11.1215 27.2344 12.8066 27.2344 14.5275C27.2344 15.5888 27.0621 16.6256 26.722 17.6164H21.7601L22.2938 16.8475C22.5117 16.535 22.6395 16.1685 22.6632 15.7883C22.687 15.408 22.6059 15.0286 22.4287 14.6913C22.2526 14.3533 21.9871 14.0701 21.6611 13.8728C21.3351 13.6754 20.9611 13.5714 20.58 13.5721H20.1038V8.78531C20.1038 8.04909 19.6531 7.42125 18.9557 7.18575C18.2583 6.95025 17.5189 7.17628 17.0721 7.76231L13.1824 12.8726C12.699 13.5078 12.6189 14.3466 12.9734 15.0618C13.328 15.7772 14.0441 16.2216 14.8426 16.2216H16.1757V17.6164H8.70047C8.36044 16.6255 8.18813 15.5888 8.18813 14.5275C8.18813 12.8065 8.65163 11.1214 9.52884 9.65372C11.2402 6.78591 14.3754 5.00437 17.7113 5.00437ZM17.5819 17.6164V15.5184C17.5819 15.332 17.5078 15.1531 17.3759 15.0213C17.2441 14.8894 17.0652 14.8153 16.8788 14.8153H14.8425C14.5784 14.8153 14.3507 14.674 14.2333 14.4373C14.1161 14.2009 14.1415 13.9343 14.3014 13.7243L18.1907 8.6145C18.2978 8.47406 18.4342 8.49384 18.5058 8.51803C18.5774 8.54222 18.6975 8.60906 18.6975 8.78531V14.2753C18.6975 14.4618 18.7716 14.6406 18.9034 14.7725C19.0353 14.9044 19.2141 14.9784 19.4006 14.9784H20.58C20.9517 14.9784 21.1253 15.2335 21.1826 15.3432C21.24 15.4528 21.3504 15.7406 21.1387 16.0456L20.0482 17.6164H17.5819ZM7.75303 10.0227C7.11274 11.4382 6.78166 12.9739 6.78188 14.5275C6.78188 15.5353 6.91809 16.5242 7.18631 17.4803C5.57269 17.0376 4.38319 15.5587 4.38319 13.8064L4.38291 13.8016C4.38544 11.8518 5.86031 10.2413 7.75303 10.0227ZM17.592 41.6195L14.7484 38.775C15.0862 38.5422 15.3787 38.2497 15.6114 37.9118L18.8403 41.1407C18.897 41.1972 18.942 41.2644 18.9727 41.3384C19.0033 41.4123 19.0189 41.4917 19.0187 41.5718V46.5938H17.7979V42.1165C17.7979 41.9301 17.7238 41.7513 17.592 41.6195ZM12.8585 37.9567C11.7919 37.9567 10.9241 37.089 10.9241 36.0224C10.9241 34.9558 11.7919 34.0881 12.8585 34.0881C13.9251 34.0881 14.7928 34.9558 14.7928 36.0224C14.7928 37.089 13.9251 37.9567 12.8585 37.9567ZM31.9782 35.3696L29.1348 38.2139C29.003 38.3457 28.9289 38.5245 28.9289 38.711V46.5938H27.708V38.1661C27.7078 38.086 27.7234 38.0067 27.754 37.9327C27.7847 37.8587 27.8297 37.7915 27.8864 37.735L31.115 34.5065C31.3477 34.8444 31.6403 35.1369 31.9782 35.3696ZM31.9335 32.6169C31.9335 31.5503 32.8013 30.6826 33.8678 30.6826C34.9344 30.6826 35.8022 31.5503 35.8022 32.6169C35.8022 33.6835 34.9344 34.5513 33.8678 34.5513C32.8013 34.5513 31.9335 33.6834 31.9335 32.6169ZM43.613 40.4674C43.613 43.8455 40.8647 46.5938 37.4866 46.5938H30.3352V39.0022L33.4111 35.9254C33.5624 35.9465 33.715 35.9572 33.8678 35.9574C35.7098 35.9574 37.2084 34.4588 37.2084 32.6168C37.2084 30.7748 35.7098 29.2762 33.8678 29.2762C32.0258 29.2762 30.5273 30.7748 30.5273 32.6168C30.5273 32.7718 30.5387 32.9241 30.5592 33.0734L26.8921 36.7406C26.7043 36.9274 26.5555 37.1496 26.4542 37.3942C26.3529 37.6389 26.3011 37.9013 26.3018 38.1661V46.5938H25.3807V34.1194C25.3814 33.8545 25.3296 33.5922 25.2283 33.3475C25.127 33.1028 24.9782 32.8807 24.7904 32.6939L22.7722 30.6757C22.7927 30.5264 22.8041 30.3743 22.8041 30.2195C22.8041 28.3775 21.3056 26.8789 19.4636 26.8789C17.6216 26.8789 16.123 28.3775 16.123 30.2195C16.123 32.0615 17.6216 33.5601 19.4636 33.5601C19.6184 33.5601 19.7706 33.5486 19.9198 33.5281L21.3471 34.9553V36.2025C21.3471 36.389 21.4211 36.5678 21.553 36.6997C21.6849 36.8315 21.8637 36.9056 22.0502 36.9056C22.2367 36.9056 22.4155 36.8315 22.5474 36.6997C22.6792 36.5678 22.7533 36.389 22.7533 36.2025V34.6641C22.7533 34.4776 22.6793 34.2987 22.5473 34.1669L21.3529 32.9724C21.691 32.7396 21.9837 32.4469 22.2165 32.1087L23.796 33.6882C23.8528 33.7447 23.8978 33.8119 23.9284 33.8859C23.959 33.9599 23.9746 34.0392 23.9744 34.1193V46.5938H22.7531V39.0131C22.7531 38.8266 22.679 38.6478 22.5472 38.5159C22.4153 38.3841 22.2365 38.31 22.05 38.31C21.8635 38.31 21.6847 38.3841 21.5528 38.5159C21.421 38.6478 21.3469 38.8266 21.3469 39.0131V46.5938H20.425V41.5717C20.4258 41.3068 20.374 41.0445 20.2727 40.7998C20.1714 40.5551 20.0225 40.333 19.8348 40.1462L16.1671 36.4785C16.1875 36.3293 16.1991 36.1772 16.1991 36.0223C16.1991 34.1803 14.7005 32.6817 12.8585 32.6817C11.0165 32.6817 9.51788 34.1803 9.51788 36.0223C9.51788 37.8643 11.0165 39.3629 12.8585 39.3629C13.0136 39.3629 13.1661 39.3514 13.3157 39.3308L16.3916 42.4076V46.5938H8.19309C6.09225 46.5938 4.38309 44.8846 4.38309 42.7837L4.38319 17.3656C5.33588 18.3848 6.69141 19.0226 8.19319 19.0226H37.4867C40.8648 19.0226 43.6131 21.7709 43.6131 25.149L43.613 40.4674ZM19.4634 32.1537C18.3968 32.1537 17.5291 31.286 17.5291 30.2194C17.5291 29.1528 18.3968 28.285 19.4634 28.285C20.5299 28.285 21.3977 29.1528 21.3977 30.2194C21.3977 31.286 20.5299 32.1537 19.4634 32.1537Z" fill="black"/>
</svg>
