<svg width="48" height="48" viewBox="0 0 48 48" fill="none" xmlns="http://www.w3.org/2000/svg">
<g clip-path="url(#clip0_1745_8671)">
<path d="M31.8769 42.5494L27.454 42.8672L23.1365 47.3H6.50781L21.3343 35.9L25.6997 28.6237C26.4314 27.4041 28.1233 27.2158 29.1052 28.2448L37.2965 34.5201C38.5346 35.4686 38.6113 37.3069 37.4566 38.3552L34.0136 41.4808C33.4138 42.0323 32.6718 42.4034 31.8769 42.5494Z" fill="#FED9A8"/>
<path d="M37.2949 34.5201L35.2922 32.9858C35.5076 33.8436 35.2657 34.7985 34.5489 35.4492L31.1059 38.5747C30.5061 39.1265 29.7642 39.4976 28.9692 39.6435L24.5463 39.9613L17.3984 47.3001H23.1349L27.4524 42.8673L31.8753 42.5495C32.6702 42.4035 33.4122 42.0323 34.012 41.4807L37.4549 38.3552C38.6097 37.3068 38.533 35.4685 37.2949 34.5201Z" fill="#F4C28C"/>
<path d="M31.0644 30.9489L31.891 31.838C31.4257 31.8877 30.9488 31.7297 30.6114 31.3667L29.8594 30.5577C30.2916 30.4781 30.7487 30.6092 31.0644 30.9489Z" fill="#E8D06B"/>
<path d="M41.7133 38.5579L36.4618 42.9746L22.6172 24.039L25.3425 21.7468L41.7133 38.5579Z" fill="#F7BC14"/>
<path d="M5.95312 16.2906L10.4776 21.6702C13.6861 25.485 18.7407 27.3596 24.0946 26.72L27.2692 26.3408L28.1869 23.2783C29.7346 18.1132 28.7542 12.8121 25.5457 8.99724L21.0213 3.61768L5.95312 16.2906Z" fill="#FED130"/>
<path d="M25.5379 8.99724L21.0135 3.61768L17.7812 6.33614L22.5517 11.9835C25.7602 15.7983 26.7406 21.0994 25.1928 26.2645L25.0923 26.5999L27.2614 26.3408L28.1792 23.2783C29.7268 18.1133 28.7464 12.8121 25.5379 8.99724Z" fill="#F7BC14"/>
<path d="M22.4434 4.18711L6.26797 17.7915C6.21195 17.8386 6.1472 17.8742 6.07742 17.8963C6.00764 17.9184 5.93418 17.9265 5.86126 17.9202C5.78833 17.9139 5.71735 17.8933 5.65239 17.8596C5.58742 17.8259 5.52974 17.7797 5.48262 17.7237L4.45897 16.5066C4.41185 16.4506 4.37622 16.3859 4.35412 16.3161C4.33203 16.2463 4.3239 16.1728 4.33019 16.0999C4.33648 16.027 4.35708 15.956 4.39081 15.891C4.42453 15.8261 4.47073 15.7684 4.52675 15.7213L20.7023 2.11693C20.7583 2.0698 20.823 2.03418 20.8928 2.01208C20.9626 1.98999 21.0361 1.98185 21.109 1.98815C21.1819 1.99444 21.2529 2.01504 21.3179 2.04877C21.3828 2.08249 21.4405 2.12868 21.4876 2.18471L22.5112 3.40177C22.5583 3.45778 22.5939 3.52253 22.616 3.59232C22.6381 3.6621 22.6463 3.73555 22.64 3.80848C22.6337 3.88141 22.6131 3.95238 22.5793 4.01735C22.5456 4.08231 22.4994 4.14 22.4434 4.18711Z" fill="#FFB125"/>
<path d="M22.5103 3.40177L21.4867 2.18471C21.4396 2.12868 21.3819 2.08249 21.3169 2.04877C21.252 2.01504 21.181 1.99444 21.1081 1.98815C21.0351 1.98185 20.9617 1.98999 20.8919 2.01208C20.8221 2.03418 20.7574 2.0698 20.7013 2.11693L17.8438 4.5203L19.585 6.59058L22.4426 4.18721C22.5557 4.092 22.6263 3.95578 22.639 3.8085C22.6517 3.66122 22.6054 3.51492 22.5103 3.40177Z" fill="#FF901D"/>
<path d="M17.427 14.4719L20.3219 15.7407C20.359 15.757 20.4018 15.7539 20.4363 15.7326L23.1227 14.0671C23.2094 14.0133 23.3202 14.0824 23.3101 14.1839L22.998 17.3292C22.9939 17.3695 23.0101 17.4093 23.041 17.4354L25.4552 19.4757C25.5332 19.5416 25.5017 19.6683 25.402 19.6901L22.3142 20.3652C22.2947 20.3695 22.2765 20.3785 22.2612 20.3913C22.2459 20.4042 22.234 20.4205 22.2264 20.439L21.032 23.3654C20.9935 23.4599 20.8633 23.4692 20.8117 23.3811L19.2154 20.6529C19.2054 20.6357 19.1912 20.6212 19.1743 20.6106C19.1573 20.6 19.1381 20.5937 19.1181 20.5923L15.9659 20.3606C15.8641 20.3531 15.815 20.2322 15.8829 20.156L17.9842 17.7948C18.0111 17.7645 18.0215 17.7229 18.0118 17.6835L17.2579 14.6139C17.2336 14.5149 17.3335 14.4309 17.427 14.4719Z" fill="white"/>
<path d="M45.6403 38.1782L35.7761 46.4744C35.3478 46.8346 34.6996 46.7299 34.4066 46.2533L32.7763 43.6017C32.6613 43.4147 32.6173 43.1927 32.6523 42.976C32.6873 42.7593 32.799 42.5624 32.9669 42.4212L42.1286 34.7158C42.2965 34.5746 42.5097 34.4984 42.7291 34.501C42.9486 34.5037 43.1598 34.5851 43.3243 34.7304L45.6572 36.7911C46.0765 37.1615 46.0685 37.8181 45.6403 38.1782Z" fill="#FFB125"/>
<path d="M45.6549 36.7911L43.3219 34.7304C43.1574 34.5851 42.9462 34.5037 42.7268 34.501C42.5073 34.4984 42.2942 34.5746 42.1262 34.7158L39.4531 36.9641L43.1739 40.2507L45.638 38.1782C46.0663 37.8181 46.0743 37.1615 45.6549 36.7911Z" fill="#FF901D"/>
<path d="M35.6624 38.2095C36.3305 38.9292 37.4556 38.9708 38.1751 38.3024L40.4004 36.235C41.1195 35.567 41.1611 34.4426 40.4933 33.7233C39.8252 33.0035 38.7001 32.9619 37.9806 33.6304L35.7553 35.6977C35.0361 36.3657 34.9946 37.4901 35.6624 38.2095Z" fill="#F4C28C"/>
<path d="M35.7553 35.6977L37.9806 33.6303C38.7001 32.962 39.8252 33.0035 40.4933 33.7232C40.8807 34.1405 41.0289 34.6941 40.945 35.2159C40.268 34.6392 39.2516 34.6477 38.584 35.2678L36.3587 37.3351C36.0682 37.6043 35.8764 37.9631 35.8141 38.3542C35.7607 38.3089 35.71 38.2606 35.6623 38.2094C34.9946 37.4902 35.0361 36.3658 35.7553 35.6977Z" fill="#FED9A8"/>
<path d="M33.8804 35.0015C34.5586 35.7321 35.7008 35.7743 36.4311 35.0958L38.6171 33.065C39.347 32.3869 39.3892 31.2455 38.7114 30.5153C38.0332 29.7847 36.891 29.7425 36.1607 30.421L33.9747 32.4518C33.2448 33.13 33.2026 34.2713 33.8804 35.0015Z" fill="#F4C28C"/>
<path d="M33.9747 32.4518L36.1607 30.421C36.891 29.7425 38.0331 29.7847 38.7114 30.5153C39.0999 30.9338 39.2514 31.4874 39.1729 32.0113C38.4858 31.4134 37.4441 31.418 36.7617 32.0518L34.5758 34.0826C34.2761 34.3604 34.08 34.732 34.0199 35.1362C33.9711 35.0938 33.9245 35.0488 33.8804 35.0014C33.2026 34.2713 33.2448 33.13 33.9747 32.4518Z" fill="#FED9A8"/>
<path d="M31.4117 32.3799C32.0899 33.1105 33.2321 33.1527 33.9624 32.4742L36.1484 30.4434C36.8783 29.7653 36.9205 28.6239 36.2427 27.8937C35.5645 27.1631 34.4223 27.1209 33.692 27.7994L31.5061 29.8302C30.776 30.5083 30.7338 31.6497 31.4117 32.3799Z" fill="#F4C28C"/>
<path d="M31.506 29.8302L33.692 27.7994C34.4223 27.1209 35.5643 27.1631 36.2426 27.8937C36.2894 27.9441 36.3324 27.9966 36.3724 28.0506C35.9616 28.079 35.5729 28.2476 35.2716 28.5283L33.0857 30.5591C32.4061 31.1904 32.323 32.2231 32.8616 32.9519C32.3357 32.9888 31.7983 32.7964 31.4117 32.3799C30.7339 31.6497 30.7761 30.5083 31.506 29.8302Z" fill="#FED9A8"/>
<path d="M29.0367 29.6597C29.7149 30.3903 30.857 30.4325 31.5873 29.754L33.7733 27.7232C34.5032 27.0451 34.5454 25.9037 33.8676 25.1735C33.1894 24.4429 32.0473 24.4007 31.317 25.0792L29.131 27.11C28.4011 27.7882 28.3589 28.9295 29.0367 29.6597Z" fill="#F4C28C"/>
<path d="M29.131 27.1099L31.317 25.0791C32.0473 24.4007 33.1894 24.4429 33.8676 25.1734C34.2557 25.5915 34.4073 26.1443 34.3294 26.6679C33.6423 26.0688 32.5998 26.0731 31.9171 26.7074L29.7311 28.7382C29.4309 29.0163 29.2348 29.3886 29.175 29.7934C29.1271 29.7517 29.0809 29.7072 29.0367 29.6597C28.3589 28.9294 28.4011 27.7881 29.131 27.1099Z" fill="#FED9A8"/>
<path d="M33.215 31.0406L32.8096 31.4172C32.1718 32.0097 31.1877 31.9871 30.6108 31.3667L29.5902 30.2689C29.0906 29.7315 28.2372 29.7147 27.6881 30.2315C27.9954 34.9857 21.3359 35.9 21.3359 35.9L24.1664 28.9377C24.3421 28.4165 24.6437 27.9467 25.0445 27.57L27.0548 25.678C28.0321 24.7581 29.5511 24.7875 30.441 25.7434L33.325 28.8409C33.9029 29.4619 33.8537 30.4472 33.215 31.0406Z" fill="#FED9A8"/>
<path d="M24.004 14.253C24.0197 14.1001 23.9921 13.9459 23.9242 13.808C23.8564 13.6701 23.751 13.5541 23.6203 13.4734C23.4901 13.3916 23.3396 13.3481 23.1859 13.3479C23.0322 13.3477 22.8815 13.3908 22.7512 13.4723L20.3225 14.978L17.7054 13.8309C17.5649 13.7686 17.4096 13.7472 17.2575 13.7691C17.1054 13.791 16.9625 13.8554 16.8452 13.9548C16.7272 14.0533 16.6393 14.183 16.5916 14.3292C16.544 14.4753 16.5385 14.6319 16.5757 14.7811L17.2572 17.5562L15.3576 19.6906C15.255 19.805 15.1866 19.946 15.1604 20.0975C15.1342 20.249 15.1512 20.4048 15.2095 20.5471C15.2667 20.6898 15.3629 20.8135 15.4871 20.904C15.6114 20.9945 15.7586 21.0481 15.912 21.0588L18.7619 21.2682L20.2051 23.7348C20.2771 23.8589 20.3805 23.9619 20.5049 24.0334C20.6293 24.1049 20.7704 24.1423 20.9139 24.142C21.0778 24.143 21.2382 24.0947 21.3744 24.0034C21.5105 23.9121 21.6161 23.782 21.6774 23.63L22.7572 20.9842L25.5493 20.3738C25.6995 20.3415 25.8376 20.2675 25.9477 20.1603C26.0578 20.0531 26.1355 19.917 26.1719 19.7677C26.2094 19.6187 26.2041 19.4622 26.1568 19.316C26.1095 19.1698 26.0219 19.0399 25.9042 18.9411L23.7217 17.0967L24.004 14.253ZM24.1082 19.256L22.1621 19.6815C22.0317 19.71 21.9103 19.7698 21.8081 19.8557C21.706 19.9415 21.6263 20.051 21.5759 20.1745L20.8231 22.019L19.8166 20.299C19.7492 20.184 19.6548 20.0871 19.5416 20.0166C19.4285 19.9461 19.2998 19.9042 19.1669 19.8944L17.1801 19.7484L18.5047 18.26C18.5933 18.1603 18.6564 18.0406 18.6885 17.9111C18.7206 17.7816 18.7207 17.6463 18.6889 17.5168L18.2138 15.5822L20.0379 16.3816C20.1602 16.4353 20.2936 16.4584 20.4268 16.449C20.56 16.4396 20.6889 16.3979 20.8024 16.3275L22.4956 15.2778L22.299 17.2601C22.2857 17.3929 22.305 17.527 22.3552 17.6507C22.4053 17.7744 22.4847 17.884 22.5867 17.9702L24.1082 19.256Z" fill="black"/>
<path d="M46.1213 36.2665L43.7883 34.2057C43.1933 33.6803 42.2865 33.6693 41.6789 34.1802L41.5742 34.2682C41.4711 33.8966 41.2827 33.5448 41.0062 33.2471C40.6684 32.8832 40.2395 32.6343 39.767 32.5224C40.0396 31.6854 39.8634 30.7286 39.2234 30.0391C38.7681 29.5487 38.1492 29.265 37.4806 29.2404C37.4604 29.2396 37.4404 29.2399 37.4204 29.2396C37.451 28.5905 37.2318 27.9301 36.756 27.4174C36.3063 26.933 35.6969 26.6508 35.0376 26.6201C35.0971 25.9391 34.8801 25.2365 34.3796 24.6973C33.9243 24.2069 33.3054 23.9232 32.6368 23.8986C31.968 23.8734 31.3299 24.111 30.8397 24.5664L30.5074 24.875C30.0248 24.5266 29.4474 24.3288 28.8342 24.3087C28.7574 24.3063 28.6805 24.3068 28.6037 24.3102L28.8527 23.4792C29.2992 21.989 29.5771 19.2874 29.5688 19.4323C29.5929 19.444 29.6165 19.4561 29.6412 19.467C29.9809 19.6181 30.3486 19.696 30.7204 19.6958C31.1418 19.6958 31.5613 19.5959 31.9361 19.3975C32.7164 18.9844 33.2702 18.121 33.3142 17.2488C33.3561 16.4188 32.9653 15.686 32.2138 15.1851C31.892 14.9709 31.4575 15.0577 31.2432 15.3793C31.0289 15.701 31.1159 16.1355 31.4375 16.3499C31.7718 16.5726 31.9328 16.8512 31.9162 17.1781C31.8968 17.5627 31.6297 17.9757 31.2812 18.1602C30.9616 18.3296 30.5517 18.3403 30.2114 18.1885C29.9941 18.0916 29.7123 17.8855 29.6045 17.4539C29.2834 16.1687 30.0198 14.8931 30.8722 13.4161C32.4164 10.7408 34.3381 7.41143 30.3154 2.65681L28.6495 0.687682C28.314 0.291026 27.8441 0.0492443 27.3264 0.00668178C26.8087 -0.0358807 26.3057 0.125932 25.9098 0.462494C25.381 0.912313 24.969 1.48353 24.709 2.1273C24.449 2.77107 24.3489 3.46823 24.4171 4.15915L24.5002 5.00028C24.5209 5.2125 24.4916 5.42663 24.4147 5.62549C24.3377 5.82435 24.2152 6.00242 24.0571 6.14543L24.959 7.21793C25.2911 6.92816 25.5492 6.56321 25.7117 6.1535C25.8742 5.74379 25.9364 5.30119 25.8932 4.86256L25.81 4.02143C25.764 3.55557 25.8315 3.08549 26.0068 2.65142C26.1821 2.21734 26.4599 1.83219 26.8165 1.5289C26.8706 1.48251 26.9334 1.44738 27.0013 1.42555C27.0691 1.40372 27.1406 1.39564 27.2117 1.40178C27.2827 1.40741 27.3519 1.4271 27.4153 1.45971C27.4786 1.49232 27.5349 1.53719 27.5807 1.59171L29.2467 3.56084C32.6335 7.56406 31.189 10.0668 29.6597 12.7163C29.4205 13.1307 29.1794 13.5491 28.9612 13.9732C28.3829 11.9857 27.4149 10.1379 26.0765 8.54665L22.8731 4.73787L22.8911 4.72278C23.0178 4.61681 23.1223 4.48677 23.1984 4.34017C23.2745 4.19357 23.3208 4.03332 23.3345 3.86871C23.3492 3.70418 23.3311 3.53838 23.2812 3.3809C23.2314 3.22342 23.1508 3.07739 23.0441 2.95128L22.0205 1.73431C21.9146 1.60759 21.7845 1.50314 21.6379 1.42703C21.4913 1.35091 21.3311 1.30463 21.1665 1.29087C21.0019 1.27623 20.8361 1.29435 20.6786 1.34418C20.5211 1.39402 20.3751 1.47458 20.2489 1.58121L4.07369 15.1856C3.54316 15.6317 3.47453 16.4263 3.92069 16.9571L4.94425 18.174C5.05022 18.3008 5.18028 18.4052 5.3269 18.4813C5.47352 18.5574 5.63378 18.6037 5.79841 18.6175C5.96293 18.6322 6.12874 18.6141 6.28622 18.5643C6.44369 18.5144 6.5897 18.4338 6.71575 18.327L6.73384 18.3117L7.93694 19.7423C7.76972 19.8716 7.57479 19.9603 7.36747 20.0014C7.16016 20.0426 6.94612 20.0351 6.74219 19.9796L5.92722 19.7559C5.25768 19.5722 4.5536 19.5534 3.87522 19.7011C3.19683 19.8489 2.56433 20.1587 2.03181 20.6042C1.83544 20.7676 1.6735 20.9684 1.55539 21.1949C1.43728 21.4215 1.36535 21.6692 1.34378 21.9237C1.32076 22.1782 1.34853 22.4346 1.42548 22.6782C1.50242 22.9218 1.62701 23.1476 1.792 23.3427L3.45222 25.3166C7.46088 30.0829 11.0666 28.75 13.9638 27.6788C15.2714 27.1954 16.4331 26.766 17.4762 26.9166C17.6701 26.9713 17.8651 27.0225 18.0609 27.07C18.0932 27.0826 18.1255 27.0957 18.1577 27.1097C18.5648 27.2886 18.7205 27.6011 18.7795 27.8316C18.8717 28.1925 18.792 28.5947 18.5713 28.8813C18.3307 29.1938 17.8786 29.387 17.4962 29.3417C17.1711 29.3029 16.9236 29.0972 16.7604 28.7303C16.6833 28.5633 16.5435 28.4334 16.3714 28.3686C16.1992 28.3038 16.0085 28.3094 15.8404 28.3842C15.6724 28.4589 15.5405 28.5968 15.4733 28.768C15.406 28.9392 15.4089 29.13 15.4813 29.2991C15.8483 30.1243 16.5049 30.6331 17.33 30.7316C17.4213 30.7425 17.5132 30.7479 17.6051 30.7479C18.3909 30.7478 19.1982 30.3613 19.6802 29.7354C20.1647 29.1063 20.3349 28.265 20.1355 27.485C20.1309 27.4672 20.1254 27.4498 20.1204 27.4322C20.7629 27.5049 21.4089 27.5414 22.0555 27.5416C22.7547 27.5416 23.4619 27.4998 24.1728 27.415L24.2347 27.4076C23.9155 27.7879 23.6689 28.2237 23.5074 28.6932L20.7561 35.4607L6.08022 46.7453C5.9643 46.8344 5.87918 46.9575 5.83683 47.0975C5.79448 47.2374 5.79702 47.3871 5.84408 47.5255C5.89115 47.6639 5.98038 47.7841 6.09926 47.8692C6.21813 47.9543 6.36067 48.0001 6.50688 48H23.1355C23.229 48 23.3215 47.9813 23.4076 47.945C23.4937 47.9087 23.5716 47.8555 23.6369 47.7885L24.563 46.8376C24.6916 46.7045 24.7621 46.5258 24.7593 46.3407C24.7564 46.1557 24.6804 45.9793 24.5478 45.8501C24.4152 45.721 24.2369 45.6496 24.0518 45.6516C23.8668 45.6536 23.69 45.7289 23.5603 45.8608L22.8402 46.6002H8.56544L21.76 36.4549C21.7697 36.4474 21.7785 36.4392 21.7877 36.4314C21.7939 36.426 21.8004 36.4209 21.8065 36.4152C21.8288 36.3948 21.8495 36.3732 21.8687 36.3506C21.8724 36.3461 21.8759 36.3413 21.8795 36.3366C21.897 36.3148 21.9129 36.2922 21.9274 36.2688C21.9302 36.2644 21.9332 36.2602 21.9358 36.2557C21.9523 36.2277 21.9665 36.199 21.9789 36.1693C21.9797 36.1674 21.981 36.1656 21.9817 36.1636L24.8122 29.2014C24.8177 29.188 24.8227 29.1744 24.8273 29.1607C24.9665 28.7489 25.2049 28.3776 25.5215 28.0797L27.5318 26.1877C27.877 25.8627 28.3221 25.6921 28.788 25.7077C29.2278 25.7222 29.632 25.9042 29.9262 26.2202L32.8101 29.3177C32.8099 29.3175 32.8103 29.3179 32.8101 29.3177C32.9569 29.4754 33.0333 29.6837 33.0253 29.9042C33.0168 30.141 32.914 30.3626 32.7362 30.5278L32.3309 30.9044C32.0505 31.1649 31.652 31.2141 31.3427 31.0564C31.3346 31.052 31.3262 31.0483 31.3178 31.0442C31.2445 31.0035 31.178 30.9515 31.1208 30.8901L30.1002 29.7921C29.7354 29.3997 29.237 29.1737 28.6969 29.1557C28.1435 29.1376 27.6133 29.3382 27.2058 29.7217C27.1304 29.7927 27.0717 29.8795 27.0339 29.976C26.9961 30.0724 26.9801 30.1761 26.9872 30.2794C26.9906 30.3326 26.9929 30.3851 26.9943 30.4375C26.9951 30.4669 26.995 30.4961 26.9952 30.5253C26.9954 30.5478 26.9958 30.5704 26.9955 30.5927C26.9951 30.63 26.9938 30.667 26.9924 30.7038C26.9919 30.7172 26.9915 30.7306 26.9909 30.744C26.9888 30.7857 26.9859 30.827 26.9825 30.868L26.9812 30.8841C26.9792 30.9016 26.9778 30.9192 26.977 30.9368C26.9117 31.5848 26.6775 32.1647 26.2682 32.6958C26.155 32.8428 26.1047 33.0289 26.1286 33.2129C26.1525 33.397 26.2485 33.564 26.3955 33.6773C26.5426 33.7906 26.7286 33.8408 26.9126 33.817C27.0967 33.7931 27.2638 33.6971 27.377 33.5501C27.6143 33.2436 27.8148 32.9104 27.9745 32.5573L33.9275 40.6994L33.7855 40.8189C33.694 40.8501 33.61 40.9001 33.5388 40.9656C33.0441 41.4207 32.4386 41.7275 31.7858 41.8542L27.4029 42.1692C27.2319 42.1815 27.0713 42.2561 26.9517 42.379L25.8328 43.5278C25.7056 43.6612 25.6362 43.8394 25.6396 44.0237C25.643 44.208 25.7189 44.3835 25.851 44.5121C25.983 44.6407 26.1604 44.7121 26.3448 44.7107C26.5291 44.7093 26.7054 44.6352 26.8354 44.5046L27.7686 43.5463L31.9262 43.2477C31.9341 43.2471 31.9419 43.2455 31.9498 43.2447C31.9675 43.5009 32.0467 43.7492 32.1809 43.9683L33.8112 46.6198C33.9328 46.8178 34.0957 46.9872 34.2887 47.1164C34.4818 47.2456 34.7005 47.3317 34.9298 47.3686C35.1592 47.4058 35.3938 47.393 35.6178 47.3312C35.8417 47.2693 36.0497 47.1598 36.2274 47.0102L46.0916 38.7141C46.2694 38.5646 46.4129 38.3785 46.5123 38.1685C46.6116 37.9585 46.6645 37.7295 46.6672 37.4972C46.6702 37.2649 46.6229 37.0346 46.5287 36.8222C46.4345 36.6098 46.2955 36.4202 46.1213 36.2665ZM13.4785 26.3659C10.6089 27.4268 7.89859 28.4287 4.52359 24.4157L2.86338 22.4418C2.77019 22.3309 2.72575 22.1904 2.73841 22.046C2.75106 21.9016 2.81922 21.7708 2.93041 21.6779C3.28947 21.3776 3.71594 21.1687 4.17334 21.069C4.63073 20.9694 5.10546 20.9821 5.55691 21.1059L6.37187 21.3296C6.7945 21.4453 7.23858 21.4591 7.66756 21.3697C8.09654 21.2802 8.49813 21.0902 8.83928 20.8152L9.93728 22.1207C11.2788 23.7159 12.938 24.9886 14.8024 25.8995C14.3586 26.0407 13.9167 26.2039 13.4785 26.3659ZM27.5117 23.0774L26.9832 24.841C26.8376 24.9388 26.7002 25.0482 26.5724 25.1682L25.9027 25.7985L24.0069 26.025C18.9107 26.6339 14.0512 24.8374 11.0086 21.2197L7.80522 17.4109L9.05575 16.3591C9.1261 16.3 9.18411 16.2275 9.22646 16.1459C9.26881 16.0644 9.29468 15.9752 9.30258 15.8837C9.31049 15.7921 9.30027 15.6999 9.27253 15.6122C9.24478 15.5246 9.20005 15.4433 9.14088 15.373C9.08173 15.3026 9.0093 15.2446 8.92773 15.2022C8.84615 15.1598 8.75703 15.134 8.66545 15.126C8.57387 15.1181 8.48163 15.1283 8.394 15.1561C8.30637 15.1838 8.22506 15.2286 8.15472 15.2877L6.36878 16.7897L6.3685 16.7899L6.36822 16.7902L5.92384 17.164L5.08366 16.1651L21.0411 2.74418L21.8813 3.74318L21.4376 4.1164L21.4367 4.11706L21.4358 4.11781L10.679 13.1647C10.537 13.2842 10.4482 13.4552 10.4322 13.6401C10.4162 13.8251 10.4744 14.0088 10.5939 14.1509C10.7133 14.293 10.8844 14.3817 11.0693 14.3977C11.2543 14.4137 11.438 14.3555 11.5801 14.2361L21.802 5.63881L25.0053 9.44759C28.0481 13.0655 28.985 18.1608 27.5117 23.0774ZM39.2303 33.8557C39.3718 33.8605 39.511 33.8934 39.6398 33.9524C39.7685 34.0115 39.8842 34.0954 39.9803 34.1995C40.1417 34.3738 40.241 34.5965 40.2628 34.8331C40.2845 35.0697 40.2275 35.3068 40.1005 35.5076L37.0509 38.0726C36.8887 38.0867 36.7255 38.0635 36.5737 38.0047C36.4219 37.9459 36.2856 37.853 36.1753 37.7333C35.7711 37.2979 35.7964 36.6148 36.2315 36.2105L36.6734 35.8C36.7548 35.7408 36.8326 35.6769 36.9065 35.6086L38.6133 34.023C38.7973 33.9061 39.0125 33.8478 39.2303 33.8557ZM36.7187 30.8643C36.9218 30.7086 37.173 30.6289 37.4287 30.6391C37.5738 30.6441 37.7164 30.6778 37.8484 30.7383C37.9803 30.7988 38.099 30.8848 38.1975 30.9914C38.6118 31.4376 38.5859 32.1378 38.1398 32.5522L37.7367 32.9267C37.6555 32.9856 37.5778 33.0493 37.5042 33.1174L35.7953 34.705C35.6067 34.8263 35.3853 34.8865 35.1612 34.8776C35.0161 34.8726 34.8735 34.8389 34.7415 34.7784C34.6096 34.7179 34.4909 34.6319 34.3924 34.5252C34.0053 34.1082 34.0028 33.4696 34.3682 33.0496C34.3921 33.0291 34.4159 33.0084 34.439 32.9869L36.625 30.9561C36.6573 30.9261 36.6884 30.8955 36.7187 30.8643ZM33.0089 27.4772L31.5035 25.8603L31.7924 25.5919C32.0086 25.3911 32.29 25.2884 32.5849 25.2973C32.73 25.3023 32.8726 25.336 33.0046 25.3965C33.1366 25.457 33.2552 25.543 33.3537 25.6497C33.768 26.0958 33.742 26.796 33.2959 27.2105L33.0089 27.4772ZM33.2835 31.9301L33.6888 31.5534C34.1408 31.1336 34.4019 30.5658 34.424 29.955C34.4432 29.4246 34.2782 28.9179 33.9572 28.5083L34.1687 28.3119C34.2746 28.2127 34.3993 28.1355 34.5353 28.0849C34.6714 28.0344 34.8162 28.0114 34.9612 28.0173C35.1063 28.0223 35.2489 28.056 35.3808 28.1165C35.5128 28.177 35.6314 28.263 35.7299 28.3696C36.1172 28.7868 36.1195 29.4257 35.7538 29.8458C35.7299 29.8661 35.7065 29.8869 35.6834 29.9081L33.4974 31.9389C33.4651 31.969 33.4338 31.9997 33.4034 32.031C33.2399 32.1562 33.0443 32.2324 32.8393 32.2509C32.9996 32.162 33.1487 32.0543 33.2835 31.9301ZM28.3911 30.7556C28.3932 30.7028 28.3951 30.6501 28.3955 30.5968C28.4768 30.5661 28.5634 30.5519 28.6503 30.555C28.8151 30.5605 28.9658 30.6282 29.0749 30.7455L30.0956 31.8434C30.1981 31.9537 30.3116 32.0531 30.4344 32.1402C30.5466 32.4039 30.7038 32.6462 30.899 32.856C31.3543 33.3464 31.9732 33.6301 32.6419 33.6549C32.6621 33.6555 32.6821 33.6557 32.7021 33.656C32.6716 34.3049 32.8908 34.9652 33.3665 35.4777C33.7076 35.8451 34.1405 36.0965 34.6174 36.2099C34.3388 37.0424 34.5112 37.9984 35.1493 38.6857C35.3254 38.8752 35.5303 39.0357 35.7565 39.1612L35.0012 39.7964L28.3911 30.7556ZM45.1906 37.6426L35.3264 45.9387C35.3027 45.9589 35.2749 45.9736 35.245 45.9818C35.2151 45.9901 35.1837 45.9918 35.153 45.9866C35.1223 45.9819 35.0931 45.9704 35.0673 45.9531C35.0415 45.9359 35.0197 45.9132 35.0036 45.8866L33.3733 43.235C33.3459 43.191 33.3354 43.1386 33.3436 43.0875C33.3519 43.0364 33.3784 42.99 33.4182 42.9568L42.5797 35.2515C42.6186 35.2189 42.6679 35.2011 42.7187 35.2012C42.7699 35.2012 42.8211 35.2192 42.8615 35.2549L45.1945 37.3156C45.259 37.3726 45.2679 37.4431 45.2674 37.4801C45.2673 37.5112 45.2603 37.5418 45.247 37.5699C45.2337 37.598 45.2145 37.6228 45.1906 37.6426Z" fill="black"/>
</g>
<defs>
<clipPath id="clip0_1745_8671">
<rect width="48" height="48" fill="white"/>
</clipPath>
</defs>
</svg>
