<svg width="25" height="24" fill="none" xmlns="http://www.w3.org/2000/svg"><path fill-rule="evenodd" clip-rule="evenodd" d="M5.452 0c1.308.018 2.24.998 3.419 2.238.291.305.606.639.958.99 1.708 1.71 1.223 3.104.83 4.223-.426 1.221-.794 2.275 1.413 4.483 2.208 2.208 3.26 1.839 4.48 1.41 1.121-.392 2.512-.881 4.224.828.347.348.675.66.98.948C23 16.305 23.982 17.24 24 18.552c.012 1.116-.667 2.257-2.343 3.933l-.742-.503.628.612c-.37.38-1.358 1.394-3.29 1.406h-.035c-2.918 0-6.722-2.323-11.306-6.906C2.309 12.492-.018 8.677 0 5.754.01 3.821 1.023 2.832 1.404 2.46l.032-.035.08-.08C3.194.667 4.348-.023 5.451.002zM5.43 1.758h-.01c-.525 0-1.324.527-2.437 1.608l-.224.22h.003l-.052.054-.078.079c-.283.275-.87.847-.876 2.045-.01 1.675 1.093 4.786 6.397 10.089 5.279 5.277 8.385 6.392 10.065 6.392h.024c1.198-.007 1.769-.594 2.044-.876.083-.085.151-.15.2-.188 1.166-1.174 1.763-2.047 1.758-2.607-.008-.572-.718-1.246-1.7-2.181-.313-.297-.652-.62-1.01-.98-.93-.925-1.388-.767-2.4-.411-1.4.49-3.316 1.162-6.303-1.826-2.987-2.987-2.317-4.903-1.83-6.304.354-1.011.516-1.471-.413-2.4-.362-.364-.69-.708-.99-1.024-.93-.976-1.6-1.682-2.168-1.69zm10.077 2.408a6.032 6.032 0 0 1 4.792 4.79.878.878 0 1 1-1.723.338 4.285 4.285 0 0 0-3.403-3.404.877.877 0 1 1 .334-1.724zm-.07-4.158a10.151 10.151 0 0 1 9.017 9.007.878.878 0 1 1-1.744.196 8.407 8.407 0 0 0-7.467-7.458.877.877 0 0 1-.775-.97.87.87 0 0 1 .97-.775z" fill="#000"/></svg>