<svg width="48" height="48" viewBox="0 0 48 48" fill="none" xmlns="http://www.w3.org/2000/svg">
<path d="M34.9957 30.1026C34.5162 29.628 33.7439 29.6583 33.3001 30.1514L32.5564 30.9775L30.7193 29.1404C33.006 26.475 34.3899 23.013 34.3899 19.2341C34.3899 10.8341 27.5558 4 19.1559 4C10.744 4 4 10.807 4 19.2341C4 27.6447 10.7288 34.4681 19.1559 34.4681C22.9348 34.4681 26.3968 33.0845 29.0621 30.7978L30.9863 32.722L30.1605 33.6399C29.7418 34.105 29.7625 34.8166 30.2068 35.2567L37.9977 42.9695C39.3719 44.3434 41.5948 44.3437 42.9693 42.9695C44.338 41.6007 44.3505 39.3793 42.965 37.9938L34.9957 30.1026ZM6.34374 19.2341C6.34374 12.1262 12.0911 6.34375 19.1559 6.34375C26.2637 6.34375 32.0461 12.1262 32.0461 19.2341C32.0461 26.3419 26.2637 32.1244 19.1559 32.1244C12.0911 32.1244 6.34374 26.342 6.34374 19.2341ZM41.3119 41.312C41.2028 41.4214 41.0732 41.508 40.9306 41.5671C40.7879 41.6261 40.6349 41.6563 40.4805 41.6559C40.3261 41.6555 40.1733 41.6246 40.0309 41.5649C39.8885 41.5052 39.7593 41.4179 39.6508 41.308L32.6498 34.3772L34.2199 32.6328L41.3119 39.6552C41.7687 40.112 41.7687 40.8552 41.3119 41.312Z" fill="black"/>
<path d="M29.5368 18.6335C29.3516 18.3231 24.9324 11.0312 19.156 11.0312C13.3796 11.0312 8.96039 18.3231 8.77485 18.6335C8.66655 18.8151 8.60938 19.0227 8.60938 19.2341C8.60938 19.4456 8.66655 19.6531 8.77485 19.8347C8.96039 20.145 13.3797 27.4369 19.1561 27.4369C24.9325 27.4369 29.3516 20.145 29.5368 19.8347C29.6452 19.6531 29.7025 19.4456 29.7025 19.2341C29.7025 19.0226 29.6452 18.8151 29.5368 18.6335H29.5368ZM19.156 25.0935C15.529 25.0935 12.2749 20.8353 11.1791 19.2331C12.9374 16.6587 16.0273 13.3747 19.156 13.3747C22.7824 13.3747 26.0362 17.6319 27.1327 19.2353C25.3749 21.8095 22.2847 25.0935 19.156 25.0935Z" fill="black"/>
<path d="M19.1562 15.7184C17.2178 15.7184 15.6406 17.2956 15.6406 19.2341C15.6406 21.1725 17.2178 22.7497 19.1562 22.7497C21.0947 22.7497 22.6719 21.1726 22.6719 19.2341C22.6719 17.2956 21.0948 15.7184 19.1562 15.7184ZM19.1562 20.406C18.5102 20.406 17.9844 19.8802 17.9844 19.2341C17.9844 18.588 18.5102 18.0622 19.1562 18.0622C19.8023 18.0622 20.3281 18.588 20.3281 19.2341C20.3281 19.8802 19.8023 20.406 19.1562 20.406Z" fill="black"/>
</svg>
