<svg width="48" height="48" viewBox="0 0 48 48" fill="none" xmlns="http://www.w3.org/2000/svg">
<path d="M47.9132 37.6414C47.688 36.5574 47.0508 35.6312 46.1188 35.0333C45.1867 34.4356 44.0798 34.2426 43.0001 34.4894L37.997 35.6349V33.5897C39.0004 32.6445 40.0451 31.4104 40.7882 30.2825C42.0912 28.3045 43.0133 26.1325 43.529 23.828C44.142 21.0862 44.1552 18.1836 43.5667 15.433C43.4583 14.9269 42.9598 14.6038 42.4538 14.7127C41.9473 14.8207 41.625 15.319 41.733 15.8255C42.2655 18.3132 42.2538 20.939 41.699 23.4186C41.2331 25.5008 40.3996 27.4633 39.2223 29.2508C38.8732 29.7807 38.45 30.3367 37.997 30.8677V20.476C37.997 19.9582 37.5772 19.5385 37.0595 19.5385H29.6433V9.52698C29.6433 9.01061 29.2254 8.59136 28.7091 8.58948L20.3555 8.56136H20.3526C20.2297 8.56125 20.108 8.58534 19.9945 8.63226C19.8809 8.67918 19.7777 8.74802 19.6908 8.83483C19.6034 8.92189 19.534 9.02535 19.4867 9.13929C19.4394 9.25323 19.415 9.37539 19.4151 9.49876V14.7067H11.9978C11.4803 14.7067 11.0603 15.1264 11.0603 15.6442V24.928H8.97141V23.6546C8.97141 23.1371 8.55178 22.7175 8.03391 22.7175H7.07231C6.90821 21.8159 6.81427 20.9028 6.79134 19.9867C6.73641 17.7641 7.08872 15.5896 7.83797 13.5227C8.01363 13.0385 8.21038 12.5623 8.42766 12.0953C8.64628 11.6258 8.44266 11.068 7.97353 10.8493C7.50403 10.6315 6.94631 10.8343 6.72806 11.3038C6.48738 11.8206 6.26964 12.3477 6.07547 12.8837C5.24634 15.1706 4.85672 17.5763 4.91672 20.0329C4.93965 20.9325 5.02432 21.8295 5.17013 22.7175H0.9375C0.419719 22.7175 0 23.1372 0 23.655V40.1338C0 40.6516 0.419719 41.0713 0.9375 41.0713H8.03391C8.55178 41.0713 8.97141 40.6516 8.97141 40.1338V39.2425H12.4981L26.7835 44.8455C28.1173 45.3688 29.5145 45.6321 30.9188 45.6321C31.8552 45.6321 32.7957 45.5149 33.7218 45.2794L44.9187 42.4336C47.0442 41.8934 48.3592 39.7885 47.9132 37.6414ZM36.1222 21.4135V36.0641L33.6159 36.6379C33.3462 36.6991 33.074 36.7486 32.8 36.7863C31.7544 36.9304 30.692 36.8996 29.6565 36.6951C29.6521 36.694 29.6477 36.6932 29.6434 36.6922V35.2705C30.3581 34.2041 30.5951 32.8521 30.2205 31.618C30.1161 31.2727 29.9678 30.9424 29.7792 30.635C29.7365 30.5656 29.6918 30.4974 29.6452 30.4306C29.6448 30.4296 29.644 30.4288 29.6433 30.4278V21.4131H36.1223L36.1222 21.4135ZM21.2901 10.4395L27.7687 10.4611V28.9388L24.148 27.4402L21.2901 26.257V10.4395ZM12.9353 16.5817H19.4139V25.4802L18.2512 24.999C18.1376 24.9519 18.0157 24.9276 17.8927 24.9277H12.9353V16.5817ZM7.09641 39.1963H1.875V24.5921H6.29813C6.3 24.5921 6.30216 24.5925 6.30431 24.5925C6.30619 24.5925 6.30759 24.5921 6.30947 24.5921H7.09641V39.1963ZM44.4569 40.6165L33.26 43.4623C31.3271 43.9534 29.3243 43.8278 27.4681 43.1001L13.0177 37.4322C12.9086 37.3895 12.7924 37.3677 12.6753 37.3678H8.97141V26.803H17.7059L23.7718 29.3138L27.0912 30.6878C28.2656 31.1748 28.8278 32.5525 28.3462 33.7255C28.2496 33.961 28.1298 34.1847 27.9708 34.3843C27.3838 35.1251 26.4173 35.4518 25.5136 35.2321L25.4916 35.2266C25.4372 35.2129 25.3834 35.1973 25.3301 35.1797L19.0221 32.7547C18.9708 32.7349 18.9437 32.7247 18.9437 32.7247C18.4607 32.5386 17.9183 32.78 17.7323 33.2634C17.5467 33.7464 17.7877 34.2891 18.271 34.4747C18.271 34.4747 21.8276 35.8421 24.5398 36.8881C24.5944 36.9093 24.6486 36.9291 24.7031 36.9474L26.7858 37.7483C27.4153 37.9903 28.0418 38.2314 28.6971 38.3987C29.8115 38.6834 30.9627 38.7966 32.1112 38.7345C32.759 38.6997 33.4025 38.6097 34.035 38.4657L37.2689 37.7256C37.2722 37.7248 37.2755 37.7234 37.2788 37.7227L43.4187 36.3172C44.0028 36.1835 44.6023 36.2878 45.1062 36.6113C45.6109 36.935 45.9554 37.4363 46.0775 38.023C46.1946 38.5809 46.0913 39.1624 45.7892 39.6459C45.4871 40.1293 45.0097 40.4771 44.4569 40.6165ZM11.9887 6.66798C12.2208 6.6683 12.4447 6.58213 12.6168 6.42629C14.2896 4.91533 16.2872 3.71008 18.3948 2.94067C20.6781 2.10723 23.1812 1.75164 25.6337 1.9127C27.3834 2.02687 29.1062 2.40212 30.7449 3.02598C31.2283 3.2102 31.7703 2.96786 31.9545 2.48364C32.139 1.99989 31.8963 1.45829 31.4122 1.27408C29.599 0.583583 27.6927 0.168205 25.7567 0.0417314C23.046 -0.136206 20.2778 0.257075 17.7518 1.17958C15.42 2.03064 13.2099 3.36395 11.3603 5.03467C10.9757 5.38183 10.9457 5.9747 11.2928 6.35889C11.3806 6.4564 11.4879 6.53432 11.6078 6.58758C11.7277 6.64083 11.8575 6.66823 11.9887 6.66798Z" fill="black"/>
<path d="M33.2709 13.3587C33.4412 13.507 33.6595 13.5886 33.8853 13.5883C34.0196 13.5885 34.1523 13.5598 34.2745 13.5042C34.3967 13.4486 34.5055 13.3674 34.5936 13.266L42.3068 4.38724C42.6466 3.99649 42.6049 3.40437 42.214 3.06481C41.8229 2.72543 41.2312 2.76668 40.8917 3.15753L33.1781 12.0363C32.8383 12.4271 32.88 13.0192 33.2709 13.3587ZM40.183 9.35046C38.8852 9.35046 37.8295 10.4063 37.8295 11.7042C37.8295 13.002 38.8852 14.0577 40.183 14.0577C41.4809 14.0577 42.5367 13.0017 42.5367 11.7042C42.5367 10.4063 41.4809 9.35046 40.183 9.35046ZM40.183 12.1827C40.0562 12.1826 39.9345 12.1322 39.8448 12.0424C39.755 11.9527 39.7046 11.831 39.7045 11.7042C39.7046 11.5773 39.7551 11.4556 39.8448 11.3659C39.9345 11.2761 40.0562 11.2256 40.183 11.2255C40.3099 11.2257 40.4316 11.2762 40.5213 11.3659C40.611 11.4556 40.6615 11.5773 40.6617 11.7042C40.6616 11.831 40.6111 11.9527 40.5213 12.0424C40.4316 12.1321 40.3099 12.1826 40.183 12.1827ZM34.977 7.26349C36.2749 7.26349 37.3306 6.20768 37.3306 4.90981C37.3306 3.61193 36.2749 2.55621 34.977 2.55621C33.6791 2.55621 32.6233 3.61193 32.6233 4.90971C32.6233 6.20749 33.6791 7.26349 34.977 7.26349ZM34.977 4.43084C35.104 4.43104 35.2257 4.48159 35.3154 4.5714C35.4051 4.66121 35.4555 4.78295 35.4556 4.9099C35.4554 5.03678 35.405 5.15841 35.3152 5.24813C35.2255 5.33784 35.1039 5.38832 34.977 5.38849C34.8501 5.38835 34.7284 5.33786 34.6387 5.24813C34.549 5.15839 34.4985 5.03672 34.4983 4.90981C34.4983 4.64581 34.713 4.43084 34.977 4.43084ZM8.65595 8.87112C8.80614 9.23149 9.17561 9.46953 9.56711 9.44899C9.9542 9.42884 10.2933 9.167 10.413 8.79931C10.534 8.42834 10.402 8.00581 10.0919 7.76881C9.7758 7.52787 9.33198 7.51287 9.00095 7.7329C8.63364 7.97721 8.48645 8.46424 8.65595 8.87112Z" fill="black"/>
</svg>
