<svg width="48" height="48" viewBox="0 0 48 48" fill="none" xmlns="http://www.w3.org/2000/svg">
<g clip-path="url(#clip0_1620_4330)">
<path d="M26.7721 44H21.2288C20.5751 44.0021 19.9404 43.7801 19.4306 43.371C18.9208 42.9618 18.5666 42.3903 18.4271 41.7517L17.7238 38.63C16.5646 38.1364 15.4708 37.5016 14.4671 36.74L11.4304 37.6983C10.1271 38.1 8.71045 37.5484 8.05711 36.385L5.29378 31.605C4.97183 31.0375 4.84973 30.3783 4.94704 29.7331C5.04435 29.0879 5.35544 28.494 5.83045 28.0467L8.18378 25.8834C8.04197 24.6318 8.04141 23.3683 8.18211 22.1167L5.84045 19.9634C5.36353 19.519 5.04959 18.9275 4.94896 18.2835C4.84832 17.6395 4.96682 16.9803 5.28545 16.4117L8.06545 11.6033C8.71211 10.4533 10.1271 9.89668 11.4271 10.3017L14.4671 11.26C15.471 10.4988 16.5648 9.86398 17.7238 9.37002L18.4271 6.24668C18.5669 5.60836 18.9213 5.03723 19.4311 4.62842C19.9409 4.21962 20.5753 3.99783 21.2288 4.00002H26.7721C28.1254 4.00002 29.2771 4.92502 29.5738 6.24835L30.2771 9.37002C31.4363 9.86362 32.5301 10.4984 33.5338 11.26L36.5704 10.3017C37.8704 9.89502 39.2888 10.4517 39.9438 11.615L42.7071 16.395C43.3688 17.5783 43.1454 19.0367 42.1704 19.9533L39.8171 22.1167C39.9584 23.3683 39.9584 24.6318 39.8171 25.8834L42.1604 28.0367L42.1704 28.0467C43.1454 28.9634 43.3704 30.42 42.7154 31.5884L39.9354 36.3967C39.2871 37.5467 37.8721 38.1034 36.5738 37.6983L33.5321 36.7383C32.5282 37.4996 31.4345 38.1344 30.2754 38.6284L29.5721 41.7517C29.4332 42.3903 29.0795 42.962 28.5699 43.3712C28.0602 43.7804 27.4257 44.0024 26.7721 44ZM14.7238 34.0984C15.0104 34.0984 15.2921 34.1967 15.5204 34.3834C16.6621 35.325 17.9121 36.05 19.2338 36.5384C19.4293 36.6108 19.6036 36.7309 19.741 36.8878C19.8783 37.0447 19.9744 37.2333 20.0204 37.4367L20.8688 41.2034C20.8871 41.2865 20.933 41.361 20.9989 41.4148C21.0649 41.4686 21.147 41.4986 21.2321 41.5H26.7754C26.8602 41.4984 26.9421 41.4685 27.0079 41.4151C27.0738 41.3616 27.1198 41.2877 27.1388 41.205L27.9871 37.4384C28.0329 37.2349 28.1288 37.0461 28.2662 36.8892C28.4036 36.7323 28.5781 36.6122 28.7738 36.54C30.1236 36.0348 31.3788 35.3063 32.4871 34.385C32.6477 34.2519 32.8391 34.1612 33.0438 34.1213C33.2485 34.0814 33.46 34.0936 33.6588 34.1567L37.3271 35.315C37.5004 35.3683 37.6871 35.3083 37.7688 35.16L40.5488 30.3534C40.5895 30.2751 40.6035 30.1858 40.5887 30.0988C40.574 30.0119 40.5313 29.9321 40.4671 29.8717L37.6538 27.285C37.503 27.1467 37.3887 26.9734 37.3209 26.7803C37.2532 26.5873 37.2341 26.3805 37.2654 26.1784C37.3754 25.445 37.4321 24.7117 37.4321 24C37.4321 23.2884 37.3771 22.5567 37.2654 21.8217C37.2347 21.6195 37.2541 21.4129 37.3218 21.22C37.3895 21.027 37.5035 20.8536 37.6538 20.715L40.4738 18.1217C40.5375 18.0588 40.5785 17.9767 40.5906 17.888C40.6026 17.7994 40.585 17.7093 40.5404 17.6317L37.7771 12.8533C37.6871 12.695 37.5071 12.6333 37.3238 12.6867L33.6604 13.8433C33.4617 13.9065 33.2502 13.9187 33.0455 13.8788C32.8407 13.8389 32.6493 13.7482 32.4888 13.615C31.3809 12.6931 30.1255 11.9646 28.7754 11.46C28.5799 11.3875 28.4056 11.2674 28.2683 11.1106C28.1309 10.9537 28.0348 10.765 27.9888 10.5617L27.1404 6.79502C27.1197 6.71235 27.0725 6.63876 27.006 6.58548C26.9394 6.53221 26.8573 6.50219 26.7721 6.50002H21.2288C21.144 6.50159 21.0622 6.53149 20.9963 6.58494C20.9305 6.6384 20.8844 6.71235 20.8654 6.79502L20.0171 10.5633C19.9715 10.7666 19.8758 10.9553 19.7387 11.1122C19.6016 11.2691 19.4275 11.3892 19.2321 11.4617C17.882 11.9663 16.6267 12.6948 15.5188 13.6167C15.358 13.7494 15.1666 13.8399 14.962 13.8797C14.7573 13.9196 14.546 13.9077 14.3471 13.845L10.6788 12.6867C10.5054 12.6333 10.3188 12.695 10.2371 12.8417L7.45711 17.6467C7.41602 17.7256 7.40208 17.8159 7.41744 17.9036C7.43281 17.9913 7.47662 18.0714 7.54211 18.1317L10.3538 20.715C10.5046 20.8533 10.6189 21.0266 10.6866 21.2197C10.7544 21.4127 10.7734 21.6195 10.7421 21.8217C10.6321 22.555 10.5754 23.2884 10.5754 24C10.5754 24.7117 10.6304 25.4433 10.7421 26.1784C10.7728 26.3805 10.7535 26.5871 10.6858 26.7801C10.6181 26.973 10.5041 27.1464 10.3538 27.285L7.53378 29.8784C7.47011 29.9412 7.42904 30.0234 7.41698 30.112C7.40492 30.2006 7.42255 30.2908 7.46711 30.3684L10.2304 35.1467C10.2743 35.2234 10.3438 35.2822 10.4267 35.3127C10.5096 35.3432 10.6007 35.3434 10.6838 35.3134L14.3471 34.1567C14.4688 34.1176 14.5959 34.0979 14.7238 34.0984Z" fill="black"/>
<path d="M22.7559 30.6667C22.5678 30.667 22.382 30.6248 22.2125 30.5433C22.043 30.4618 21.894 30.3431 21.7768 30.196C21.6595 30.0489 21.5769 29.8773 21.5352 29.6939C21.4935 29.5105 21.4937 29.32 21.5359 29.1367L24.0359 18.3034C24.1192 17.9901 24.321 17.7214 24.5986 17.5541C24.8763 17.3867 25.2081 17.3338 25.524 17.4064C25.84 17.4791 26.1153 17.6717 26.292 17.9435C26.4686 18.2153 26.5328 18.5451 26.4709 18.8634L23.9709 29.6967C23.9079 29.972 23.7535 30.2178 23.5328 30.3939C23.3121 30.5701 23.0382 30.6663 22.7559 30.6667ZM29.4209 29C29.1674 29.0012 28.9196 28.9252 28.7103 28.7821C28.5011 28.639 28.3404 28.4356 28.2496 28.199C28.1588 27.9624 28.1421 27.7037 28.2019 27.4574C28.2617 27.211 28.395 26.9887 28.5842 26.82L31.7192 24L28.5842 21.18C28.4621 21.0702 28.3628 20.9373 28.292 20.7891C28.2212 20.6408 28.1803 20.4801 28.1716 20.316C28.1541 19.9847 28.269 19.66 28.4909 19.4134C28.6007 19.2912 28.7336 19.1919 28.8818 19.1212C29.0301 19.0504 29.1908 19.0095 29.3549 19.0008C29.6862 18.9833 30.0109 19.0981 30.2575 19.32L34.4242 23.07C34.554 23.1877 34.6578 23.3312 34.7288 23.4914C34.7998 23.6516 34.8365 23.8248 34.8365 24C34.8365 24.1752 34.7998 24.3485 34.7288 24.5087C34.6578 24.6689 34.554 24.8124 34.4242 24.93L30.2575 28.68C30.0278 28.8865 29.7297 29.0005 29.4209 29ZM18.5875 29C18.2786 29.0005 17.9805 28.8865 17.7509 28.68L13.5842 24.93C13.4543 24.8124 13.3506 24.6689 13.2796 24.5087C13.2086 24.3485 13.1719 24.1752 13.1719 24C13.1719 23.8248 13.2086 23.6516 13.2796 23.4914C13.3506 23.3312 13.4543 23.1877 13.5842 23.07L17.7509 19.32C17.9994 19.1111 18.3194 19.0069 18.6433 19.0294C18.9672 19.052 19.2697 19.1995 19.4869 19.4409C19.704 19.6823 19.8189 19.9987 19.8072 20.3232C19.7955 20.6477 19.6582 20.9549 19.4242 21.18L16.2892 24L19.4242 26.82C19.6125 26.9891 19.745 27.2114 19.8042 27.4574C19.8635 27.7034 19.8466 27.9617 19.756 28.1979C19.6653 28.4342 19.505 28.6374 19.2964 28.7806C19.0878 28.9238 18.8406 29.0003 18.5875 29Z" fill="black"/>
</g>
<defs>
<clipPath id="clip0_1620_4330">
<rect width="40" height="40" fill="white" transform="translate(4 4)"/>
</clipPath>
</defs>
</svg>
