<svg width="48" height="48" viewBox="0 0 48 48" fill="none" xmlns="http://www.w3.org/2000/svg">
<g clip-path="url(#clip0_1551_8236)">
<path d="M24.5112 20.8732V21.6631C24.5112 21.8588 24.4334 22.0464 24.2951 22.1848C24.1567 22.3231 23.9691 22.4008 23.7734 22.4008" stroke="black" stroke-width="1.17188" stroke-miterlimit="10" stroke-linecap="round" stroke-linejoin="round"/>
<path d="M22.544 5.18016V6.52734H20.5608C20.2534 6.52734 20.0713 6.87131 20.2442 7.12547L23.6834 12.1839C23.8354 12.4074 24.1647 12.4074 24.3167 12.1839L27.7559 7.12547C27.9288 6.87131 27.7466 6.52734 27.4393 6.52734H25.4561V0.9375C25.4561 0.87534 25.4314 0.815726 25.3875 0.771772C25.3435 0.727818 25.2839 0.703125 25.2218 0.703125H22.7784C22.7163 0.703125 22.6567 0.727818 22.6127 0.771772C22.5688 0.815726 22.5441 0.87534 22.5441 0.9375V1.89891M23.9937 15.2636C21.8108 15.2636 20.1052 17.1484 20.3225 19.3204L20.6318 22.4135C20.8044 24.1407 22.2578 25.456 23.9937 25.456C25.7296 25.456 27.183 24.1407 27.3557 22.4135L27.665 19.3204C27.8823 17.1484 26.1766 15.2636 23.9937 15.2636ZM38.7869 14.0768L37.3846 12.6745L41.3372 8.72194C41.3811 8.67797 41.4058 8.61835 41.4058 8.55619C41.4058 8.49402 41.3811 8.43441 41.3372 8.39044L39.6095 6.66272C39.5655 6.61877 39.5059 6.59409 39.4437 6.59409C39.3816 6.59409 39.3219 6.61877 39.278 6.66272L35.3254 10.6153L33.9231 9.213C33.7058 8.99569 33.3338 9.11016 33.2762 9.41203L32.1312 15.4208C32.0806 15.6863 32.3136 15.9192 32.579 15.8686L38.5878 14.7236C38.8898 14.6662 39.0043 14.2942 38.7869 14.0768ZM41.4727 27.4392V25.456H47.0625C47.1247 25.456 47.1843 25.4313 47.2282 25.3874C47.2722 25.3434 47.2969 25.2838 47.2969 25.2217V22.7783C47.2969 22.7162 47.2722 22.6566 47.2282 22.6126C47.1843 22.5687 47.1247 22.544 47.0625 22.544H41.4727V20.5608C41.4727 20.2534 41.1287 20.0713 40.8745 20.2442L35.8161 23.6834C35.5926 23.8354 35.5926 24.1647 35.8161 24.3167L40.8745 27.7559C41.1287 27.9287 41.4727 27.7466 41.4727 27.4392ZM33.9232 38.7869L35.3255 37.3846L39.2781 41.3372C39.322 41.3811 39.3817 41.4058 39.4438 41.4058C39.506 41.4058 39.5656 41.3811 39.6096 41.3372L41.3373 39.6095C41.3812 39.5655 41.4059 39.5059 41.4059 39.4437C41.4059 39.3816 41.3812 39.3219 41.3373 39.278L37.3847 35.3254L38.787 33.9231C39.0043 33.7058 38.8898 33.3338 38.588 33.2762L32.5792 32.1312C32.3137 32.0806 32.0808 32.3136 32.1314 32.579L33.2764 38.5878C33.3338 38.8898 33.7057 39.0043 33.9232 38.7869ZM20.5608 41.4727H22.544V47.0625C22.544 47.1247 22.5687 47.1843 22.6126 47.2282C22.6566 47.2722 22.7162 47.2969 22.7783 47.2969H25.2217C25.2838 47.2969 25.3434 47.2722 25.3874 47.2282C25.4313 47.1843 25.456 47.1247 25.456 47.0625V41.4727H27.4392C27.7466 41.4727 27.9287 41.1287 27.7558 40.8745L24.3166 35.8161C24.1646 35.5926 23.8353 35.5926 23.6833 35.8161L20.2441 40.8745C20.0713 41.1287 20.2534 41.4727 20.5608 41.4727ZM9.21309 33.9232L10.6154 35.3255L6.66281 39.2781C6.61887 39.322 6.59418 39.3817 6.59418 39.4438C6.59418 39.506 6.61887 39.5656 6.66281 39.6096L8.39053 41.3373C8.4345 41.3812 8.49412 41.4059 8.55628 41.4059C8.61844 41.4059 8.67806 41.3812 8.72203 41.3373L12.6746 37.3847L14.0769 38.787C14.2943 39.0043 14.6663 38.8898 14.7238 38.588L15.8688 32.5792C15.9194 32.3137 15.6864 32.0808 15.421 32.1314L9.41222 33.2764C9.11016 33.3338 8.99569 33.7057 9.21309 33.9232ZM6.52734 20.5608V22.544H0.9375C0.87534 22.544 0.815726 22.5687 0.771772 22.6126C0.727818 22.6566 0.703125 22.7162 0.703125 22.7783V25.2217C0.703125 25.2838 0.727818 25.3434 0.771772 25.3874C0.815726 25.4313 0.87534 25.456 0.9375 25.456H6.52734V27.4392C6.52734 27.7466 6.87131 27.9287 7.12547 27.7558L12.1839 24.3166C12.4074 24.1646 12.4074 23.8353 12.1839 23.6833L7.12547 20.2441C6.87131 20.0713 6.52734 20.2534 6.52734 20.5608ZM14.0768 9.21309L12.6745 10.6154L8.72194 6.66272C8.67797 6.61877 8.61835 6.59409 8.55619 6.59409C8.49402 6.59409 8.43441 6.61877 8.39044 6.66272L6.66272 8.39044C6.61877 8.43441 6.59409 8.49402 6.59409 8.55619C6.59409 8.61835 6.61877 8.67797 6.66272 8.72194L10.6153 12.6745L9.213 14.0768C8.99569 14.2942 9.11016 14.6662 9.41203 14.7237L15.4208 15.8687C15.6863 15.9193 15.9192 15.6863 15.8686 15.4209L14.7236 9.41213C14.6662 9.11016 14.2942 8.99569 14.0768 9.21309Z" stroke="black" stroke-width="1.17188" stroke-miterlimit="10" stroke-linecap="round" stroke-linejoin="round"/>
<path d="M35.2951 21.1414C35.5304 22.076 35.6491 23.0362 35.6484 24C35.6484 27.4499 34.1487 30.5495 31.7657 32.6824M16.2343 32.6824C13.8513 30.5495 12.3516 27.4499 12.3516 24C12.3516 17.5668 17.5668 12.3516 24 12.3516C28.2461 12.3516 31.9617 14.6235 33.9972 18.0181" stroke="black" stroke-width="1.17188" stroke-miterlimit="10" stroke-linecap="round" stroke-linejoin="round"/>
<path d="M19.973 28.3682H19.513C17.7023 28.3682 16.2344 29.836 16.2344 31.6468V32.6824C18.2952 34.5269 21.0166 35.6484 24 35.6484C26.9834 35.6484 29.7048 34.5268 31.7656 32.6824V31.6468C31.7656 29.8361 30.2977 28.3682 28.4869 28.3682H23.2542M28.3646 32.7328V34.8031M19.6353 32.7328V34.8031" stroke="black" stroke-width="1.17188" stroke-miterlimit="10" stroke-linecap="round" stroke-linejoin="round"/>
</g>
<defs>
<clipPath id="clip0_1551_8236">
<rect width="48" height="48" fill="white"/>
</clipPath>
</defs>
</svg>
