<svg width="48" height="48" viewBox="0 0 48 48" fill="none" xmlns="http://www.w3.org/2000/svg">
<g clip-path="url(#clip0_1551_8259)">
<path d="M36.4767 30.1312C35.9513 30.0598 35.4664 29.8101 35.103 29.424C34.8117 29.1146 34.6211 28.724 34.5567 28.304C34.5105 27.9946 34.3539 27.7123 34.1158 27.5094C33.8777 27.3065 33.5743 27.1965 33.2614 27.2H14.7503C14.4383 27.1999 14.1366 27.3111 13.8993 27.5137C13.662 27.7162 13.5048 27.9967 13.4559 28.3048C13.3774 28.8065 13.122 29.2637 12.7358 29.5936C12.3976 29.8842 11.9825 30.0709 11.5407 30.1312C11.2296 30.1719 10.9437 30.3235 10.7353 30.558C10.527 30.7925 10.4101 31.0943 10.4062 31.408V37.392C10.409 37.7055 10.5248 38.0076 10.7323 38.2427C10.9398 38.4778 11.2251 38.6302 11.5358 38.672C12.0612 38.7433 12.5461 38.993 12.9094 39.3792C13.2008 39.6885 13.3914 40.0791 13.4559 40.4992C13.5027 40.808 13.6596 41.0895 13.8976 41.2918C14.1356 41.494 14.4387 41.6035 14.751 41.6H33.2614C33.5745 41.6033 33.8782 41.4932 34.1163 41.2899C34.3544 41.0867 34.5108 40.8041 34.5567 40.4944C34.6211 40.0743 34.8116 39.6837 35.103 39.3744C35.4668 38.9879 35.9523 38.7382 36.4783 38.6672C36.7879 38.6252 37.0722 38.4733 37.2793 38.2392C37.4863 38.0051 37.6024 37.7045 37.6063 37.392V31.408C37.6027 31.095 37.4866 30.7937 37.2792 30.5592C37.0718 30.3248 36.7869 30.1728 36.4767 30.1312ZM36.0063 37.1272C35.2117 37.2886 34.487 37.6931 33.9327 38.2848C33.4822 38.7653 33.1681 39.3574 33.0231 40H14.9894C14.845 39.3572 14.5309 38.7649 14.0798 38.2848C13.5252 37.6934 12.8007 37.2889 12.0063 37.1272V31.6736C12.6608 31.5406 13.2703 31.242 13.7766 30.8064C14.3861 30.2853 14.8114 29.5817 14.9894 28.8H33.0231C33.1675 29.4427 33.4816 30.035 33.9327 30.5152C34.4873 31.1065 35.2118 31.511 36.0063 31.6728V37.1272Z" fill="black"/>
<path d="M16.0053 31.9736C15.5274 31.9709 15.0594 32.1102 14.6606 32.3738C14.2619 32.6374 13.9504 33.0134 13.7657 33.4542C13.581 33.8951 13.5313 34.3808 13.6229 34.8499C13.7146 35.319 13.9434 35.7504 14.2805 36.0893C14.6176 36.4281 15.0477 36.6593 15.5163 36.7534C15.9849 36.8476 16.471 36.8005 16.9128 36.6181C17.3546 36.4357 17.7323 36.1262 17.998 35.7289C18.2637 35.3316 18.4055 34.8643 18.4053 34.3864C18.4062 33.7484 18.154 33.1361 17.7041 32.6838C17.2542 32.2315 16.6433 31.9761 16.0053 31.9736ZM16.0053 35.2C15.8439 35.2027 15.6852 35.1572 15.5497 35.0695C15.4141 34.9818 15.3077 34.8557 15.244 34.7073C15.1804 34.5588 15.1623 34.3948 15.1921 34.2361C15.222 34.0774 15.2984 33.9312 15.4116 33.816C15.5248 33.7009 15.6697 33.622 15.8279 33.5895C15.9861 33.557 16.1504 33.5723 16.2999 33.6335C16.4493 33.6946 16.5772 33.7989 16.6672 33.933C16.7572 34.067 16.8053 34.2249 16.8053 34.3864C16.807 34.6003 16.7237 34.8062 16.5737 34.9587C16.4237 35.1113 16.2193 35.1981 16.0053 35.2ZM32.0053 31.9736C31.5274 31.9709 31.0594 32.1102 30.6606 32.3738C30.2619 32.6374 29.9504 33.0134 29.7657 33.4542C29.581 33.8951 29.5313 34.3808 29.6229 34.8499C29.7146 35.319 29.9434 35.7504 30.2805 36.0893C30.6176 36.4281 31.0477 36.6593 31.5163 36.7534C31.9849 36.8476 32.471 36.8005 32.9128 36.6181C33.3546 36.4357 33.7323 36.1262 33.998 35.7289C34.2637 35.3316 34.4055 34.8643 34.4053 34.3864C34.4062 33.7484 34.154 33.1361 33.7041 32.6838C33.2542 32.2315 32.6433 31.9761 32.0053 31.9736ZM32.0053 35.2C31.8439 35.2027 31.6852 35.1572 31.5497 35.0695C31.4141 34.9818 31.3077 34.8557 31.244 34.7073C31.1804 34.5588 31.1623 34.3948 31.1921 34.2361C31.222 34.0774 31.2984 33.9312 31.4116 33.816C31.5248 33.7009 31.6697 33.622 31.8279 33.5895C31.9861 33.557 32.1504 33.5723 32.2999 33.6335C32.4493 33.6946 32.5772 33.7989 32.6672 33.933C32.7572 34.067 32.8053 34.2249 32.8053 34.3864C32.807 34.6003 32.7237 34.8062 32.5737 34.9587C32.4237 35.1113 32.2193 35.1981 32.0053 35.2ZM24.0053 30.4C23.2142 30.4 22.4408 30.6346 21.783 31.0741C21.1252 31.5136 20.6126 32.1383 20.3098 32.8692C20.0071 33.6001 19.9278 34.4044 20.0822 35.1803C20.2365 35.9562 20.6175 36.669 21.1769 37.2284C21.7363 37.7878 22.449 38.1688 23.225 38.3231C24.0009 38.4774 24.8052 38.3982 25.5361 38.0955C26.267 37.7927 26.8917 37.28 27.3312 36.6222C27.7707 35.9644 28.0053 35.1911 28.0053 34.4C28.0041 33.3395 27.5822 32.3228 26.8324 31.5729C26.0825 30.8231 25.0658 30.4012 24.0053 30.4ZM24.0053 36.8C23.5307 36.8 23.0666 36.6592 22.672 36.3955C22.2773 36.1318 21.9697 35.7569 21.788 35.3184C21.6064 34.8799 21.5588 34.3973 21.6514 33.9317C21.744 33.4662 21.9726 33.0386 22.3083 32.7029C22.6439 32.3673 23.0716 32.1387 23.5371 32.0461C24.0027 31.9535 24.4852 32.001 24.9238 32.1827C25.3623 32.3643 25.7371 32.6719 26.0009 33.0666C26.2646 33.4613 26.4053 33.9253 26.4053 34.4C26.4053 35.0365 26.1525 35.6469 25.7024 36.097C25.2523 36.5471 24.6418 36.8 24.0053 36.8Z" fill="black"/>
<path d="M47.8834 4.72719C47.8471 4.37839 47.704 4.04929 47.4738 3.78475C47.2436 3.52022 46.9374 3.33313 46.5969 3.24898C46.2565 3.16483 45.8983 3.18772 45.5714 3.31453C45.2444 3.44134 44.9645 3.66589 44.7698 3.95759C39.053 12.3504 32.0402 15.2856 28.3698 16.2896C27.3484 16.5691 26.4466 17.1755 25.8024 18.016C25.1582 18.8566 24.807 19.885 24.8026 20.944V24H23.2026V20.944C23.1982 19.8851 22.8473 18.8568 22.2034 18.0162C21.5596 17.1756 20.6582 16.5689 19.637 16.2888C15.965 15.2856 8.95224 12.3504 3.23704 3.96399C3.04319 3.6679 2.7615 3.43995 2.4315 3.31211C2.1015 3.18427 1.73976 3.16296 1.39704 3.25119C1.05607 3.33319 0.749313 3.51983 0.519767 3.78496C0.290222 4.05008 0.149398 4.38039 0.117037 4.72959C-0.122163 7.15199 -0.109363 10.6016 1.28264 13.5032C0.719917 14.8869 0.645703 16.4212 1.07224 17.8528C1.08904 17.9032 1.10744 17.9512 1.12424 17.9992C0.704331 19.2514 0.68643 20.6035 1.07304 21.8664L1.12424 22.0112C0.70529 23.2586 0.685715 24.6057 1.06824 25.8648C1.86824 28.272 3.99144 29.7848 7.19944 30.2872V43.2C7.19944 43.6243 7.36801 44.0313 7.66807 44.3314C7.96813 44.6314 8.37509 44.8 8.79944 44.8H39.2026C39.627 44.8 40.034 44.6314 40.334 44.3314C40.6341 44.0313 40.8026 43.6243 40.8026 43.2V30.2872C44.0106 29.7832 46.1338 28.272 46.9338 25.8632C47.3165 24.6046 47.2969 23.2581 46.8778 22.0112C46.8962 21.96 46.9154 21.9072 46.9338 21.8512C47.3164 20.5924 47.2968 19.2456 46.8778 17.9984L46.9346 17.8384C47.3568 16.4102 47.281 14.8809 46.7194 13.5016C48.1146 10.6016 48.1274 7.15199 47.8834 4.72719ZM26.4026 20.944C26.4062 20.2359 26.6415 19.5484 27.0726 18.9866C27.5037 18.4248 28.1068 18.0196 28.7898 17.8328C32.6746 16.7712 40.0866 13.6728 46.0954 4.85279C46.1073 4.83181 46.126 4.81553 46.1484 4.80666C46.1708 4.79778 46.1956 4.79684 46.2186 4.80399C46.2392 4.80694 46.2579 4.8174 46.2712 4.83336C46.2845 4.84932 46.2914 4.86963 46.2906 4.89039C46.5226 7.18639 46.5122 10.472 45.1386 13.0856C44.6465 14.0326 43.954 14.8611 43.1093 15.5134C42.2647 16.1658 41.2881 16.6264 40.2474 16.8632C40.0586 16.9113 39.8938 17.0268 39.784 17.1879C39.6742 17.349 39.627 17.5446 39.6513 17.738C39.6756 17.9314 39.7696 18.1093 39.9158 18.2382C40.0619 18.3672 40.2501 18.4384 40.445 18.4384C40.5122 18.4384 40.5791 18.43 40.6442 18.4136C42.5649 17.9648 44.2845 16.8965 45.5378 15.3736C45.6498 16.0263 45.6093 16.696 45.4194 17.3304C45.377 17.4504 45.3346 17.5616 45.293 17.668C43.7002 21.388 37.5218 20.764 37.4594 20.7584C37.2484 20.7354 37.0369 20.7971 36.8714 20.93C36.706 21.063 36.6001 21.2562 36.577 21.4672C36.554 21.6782 36.6158 21.8897 36.7487 22.0552C36.8816 22.2207 37.0748 22.3266 37.2858 22.3496C37.3586 22.3568 37.841 22.4072 38.5554 22.4072C40.345 22.4072 43.5954 22.0952 45.5954 20.0464C45.6088 20.4847 45.5487 20.9222 45.4178 21.3408C45.3754 21.4624 45.3322 21.5808 45.2898 21.6856C44.453 23.6704 42.353 24.4344 40.5298 24.7152C40.3844 24.4961 40.1872 24.3162 39.9558 24.1915C39.7243 24.0667 39.4656 24.001 39.2026 24H26.4026V20.944ZM1.71464 4.89279C1.7134 4.87167 1.7201 4.85086 1.73342 4.83443C1.74674 4.818 1.76572 4.80714 1.78664 4.80399C1.81094 4.79646 1.83713 4.79789 1.86046 4.80802C1.8838 4.81815 1.90273 4.8363 1.91384 4.85919C7.92264 13.6744 15.3306 16.7712 19.2146 17.832C19.8979 18.0188 20.5012 18.4241 20.9325 18.986C21.3637 19.548 21.5991 20.2357 21.6026 20.944V24H8.80264C8.53977 24.0003 8.28101 24.0653 8.04925 24.1893C7.81749 24.3134 7.61986 24.4926 7.47384 24.7112C5.65064 24.4304 3.55384 23.6664 2.71384 21.6816C2.67097 21.5718 2.62963 21.4614 2.58984 21.3504C2.4577 20.9277 2.3966 20.4859 2.40904 20.0432C4.40904 22.0912 7.66024 22.4032 9.44904 22.4032C10.1634 22.4032 10.649 22.3528 10.7186 22.3456C10.9296 22.3225 11.1228 22.2165 11.2557 22.0509C11.3885 21.8853 11.4502 21.6738 11.427 21.4628C11.4039 21.2518 11.2979 21.0586 11.1324 20.9258C10.9668 20.7929 10.7552 20.7313 10.5442 20.7544C10.4794 20.76 4.30984 21.3944 2.71144 17.664C2.66984 17.5584 2.63144 17.4472 2.58984 17.344C2.39735 16.7058 2.35519 16.0316 2.46664 15.3744C3.72014 16.8972 5.43969 17.9654 7.36024 18.4144C7.42536 18.4308 7.49227 18.4392 7.55944 18.4392C7.75436 18.4392 7.94257 18.368 8.08872 18.239C8.23487 18.1101 8.32891 17.9322 8.35317 17.7388C8.37743 17.5454 8.33025 17.3498 8.22048 17.1887C8.11071 17.0276 7.94592 16.9121 7.75704 16.864C6.71646 16.627 5.73998 16.1662 4.89545 15.5137C4.05093 14.8612 3.35862 14.0327 2.86664 13.0856C1.49304 10.472 1.48264 7.18639 1.71464 4.89279ZM2.58984 25.36C2.45813 24.9374 2.39705 24.496 2.40904 24.0536C3.71869 25.3023 5.40355 26.0842 7.20264 26.2784V28.6784C5.33624 28.3392 3.29384 27.4768 2.58984 25.36ZM8.80264 43.2V25.6696C8.80264 25.6584 8.79864 25.6488 8.80264 25.6376V25.6H39.2026V43.2H8.80264ZM40.8026 28.6768V26.2768C42.6015 26.0831 44.2864 25.3017 45.5962 24.0536C45.6083 24.4955 45.5472 24.9364 45.4154 25.3584C44.7114 27.4768 42.669 28.3392 40.8026 28.6768Z" fill="black"/>
</g>
<defs>
<clipPath id="clip0_1551_8259">
<rect width="48" height="48" fill="white"/>
</clipPath>
</defs>
</svg>
