<svg width="423" height="422" viewBox="0 0 423 422" fill="none" xmlns="http://www.w3.org/2000/svg">
<g clip-path="url(#clip0_932_5791)">
<circle cx="211.25" cy="211" r="171" stroke="#E6EAF2" stroke-width="2"/>
<circle cx="211.25" cy="211" r="135.5" stroke="#E6EAF2"/>
<circle cx="211.25" cy="211" r="202" stroke="#E6EAF2" stroke-width="4"/>
<path d="M232.966 214.125H252.059C253.622 228.166 265.55 239.125 280 239.125C295.506 239.125 308.125 226.506 308.125 211C308.125 195.494 295.506 182.875 280 182.875C265.55 182.875 253.622 193.834 252.059 207.875H232.966C232.339 200.941 229.612 194.363 225.15 189.019L245.488 168.681C248.535 169.796 251.755 170.369 255 170.375C270.506 170.375 283.125 157.756 283.125 142.25C283.125 126.744 270.506 114.125 255 114.125C239.494 114.125 226.875 126.744 226.875 142.25C226.875 152.066 231.941 160.712 239.584 165.747L220.731 184.6C215.941 180.591 210.144 177.97 203.97 177.021C197.796 176.071 191.48 176.829 185.706 179.212C181.506 170.501 174.119 163.737 165.072 160.319C172.144 155.897 176.875 148.062 176.875 139.125C176.875 125.341 165.659 114.125 151.875 114.125C138.091 114.125 126.875 125.341 126.875 139.125C126.875 148.062 131.606 155.897 138.678 160.319C124.503 165.675 114.375 179.347 114.375 195.375V226.625C114.375 233.519 119.981 239.125 126.875 239.125H130V295.375C130 302.269 135.606 307.875 142.5 307.875C146.25 307.875 149.581 306.181 151.875 303.556C154.169 306.181 157.5 307.875 161.25 307.875C168.144 307.875 173.75 302.269 173.75 295.375V234.519C180.025 241.184 188.897 245.375 198.75 245.375C207.103 245.375 214.766 242.372 220.731 237.4L239.584 256.253C231.941 261.288 226.875 269.934 226.875 279.75C226.875 295.256 239.494 307.875 255 307.875C270.506 307.875 283.125 295.256 283.125 279.75C283.125 264.244 270.506 251.625 255 251.625C251.656 251.625 248.463 252.241 245.488 253.316L225.15 232.978C229.614 227.636 232.341 221.059 232.966 214.125ZM241.497 159.425C244.263 154.631 249.35 151.625 255 151.625C260.65 151.625 265.738 154.631 268.503 159.425C264.661 162.47 259.903 164.128 255 164.128C250.097 164.128 245.339 162.47 241.497 159.425ZM248.75 139.125C248.75 135.678 251.553 132.875 255 132.875C258.447 132.875 261.25 135.678 261.25 139.125C261.25 142.572 258.447 145.375 255 145.375C251.553 145.375 248.75 142.572 248.75 139.125ZM255 120.375C267.062 120.375 276.875 130.188 276.875 142.25C276.876 146.737 275.488 151.114 272.903 154.781C270.727 151.61 267.747 149.075 264.269 147.434C266.338 145.161 267.49 142.199 267.5 139.125C267.5 132.231 261.894 126.625 255 126.625C248.106 126.625 242.5 132.231 242.5 139.125C242.51 142.199 243.662 145.161 245.731 147.434C242.253 149.075 239.273 151.61 237.097 154.781C234.512 151.114 233.124 146.737 233.125 142.25C233.125 130.188 242.938 120.375 255 120.375ZM241.497 296.925C244.263 292.131 249.35 289.125 255 289.125C260.65 289.125 265.738 292.131 268.503 296.925C264.661 299.97 259.903 301.628 255 301.628C250.097 301.628 245.339 299.97 241.497 296.925ZM248.75 276.625C248.75 273.178 251.553 270.375 255 270.375C258.447 270.375 261.25 273.178 261.25 276.625C261.25 280.072 258.447 282.875 255 282.875C251.553 282.875 248.75 280.072 248.75 276.625ZM276.875 279.75C276.876 284.237 275.488 288.614 272.903 292.281C270.727 289.11 267.747 286.575 264.269 284.934C266.338 282.661 267.49 279.699 267.5 276.625C267.5 269.731 261.894 264.125 255 264.125C248.106 264.125 242.5 269.731 242.5 276.625C242.51 279.699 243.662 282.661 245.731 284.934C242.253 286.575 239.273 289.11 237.097 292.281C234.512 288.614 233.124 284.237 233.125 279.75C233.125 267.688 242.938 257.875 255 257.875C267.062 257.875 276.875 267.688 276.875 279.75ZM266.497 228.175C269.262 223.381 274.35 220.375 280 220.375C285.65 220.375 290.738 223.381 293.503 228.175C289.661 231.22 284.903 232.878 280 232.878C275.097 232.878 270.339 231.22 266.497 228.175ZM273.75 207.875C273.75 204.428 276.553 201.625 280 201.625C283.447 201.625 286.25 204.428 286.25 207.875C286.25 211.322 283.447 214.125 280 214.125C276.553 214.125 273.75 211.322 273.75 207.875ZM280 189.125C292.062 189.125 301.875 198.938 301.875 211C301.876 215.487 300.488 219.864 297.903 223.531C295.727 220.36 292.747 217.825 289.269 216.184C291.338 213.911 292.49 210.949 292.5 207.875C292.5 200.981 286.894 195.375 280 195.375C273.106 195.375 267.5 200.981 267.5 207.875C267.51 210.949 268.662 213.911 270.731 216.184C267.253 217.825 264.273 220.36 262.097 223.531C259.512 219.864 258.124 215.487 258.125 211C258.125 198.938 267.938 189.125 280 189.125ZM141.209 166.041C142.406 165.603 143.631 165.231 144.891 164.941L144.041 176.847C142.819 173.323 141.872 169.711 141.209 166.041ZM151.213 164.159C151.434 164.153 151.65 164.125 151.875 164.125C152.097 164.125 152.316 164.147 152.537 164.15L154.303 188.881C153.531 190.234 152.731 191.569 151.872 192.866C151.016 191.559 150.216 190.216 149.444 188.856L151.213 164.159ZM159.722 176.984L158.859 164.931C160.137 165.233 161.395 165.615 162.625 166.075C161.943 169.782 160.973 173.429 159.722 176.984ZM133.125 139.125C133.125 128.784 141.534 120.375 151.875 120.375C162.216 120.375 170.625 128.784 170.625 139.125C170.625 149.466 162.216 157.875 151.875 157.875C141.534 157.875 133.125 149.466 133.125 139.125ZM167.5 295.375C167.5 298.822 164.697 301.625 161.25 301.625C157.803 301.625 155 298.822 155 295.375V236.759C155 235.091 155.65 233.519 156.831 232.337L160.334 228.834L155.916 224.416L152.412 227.919C151.247 229.077 150.324 230.454 149.695 231.972C149.066 233.489 148.745 235.117 148.75 236.759V295.375C148.75 298.822 145.947 301.625 142.5 301.625C139.053 301.625 136.25 298.822 136.25 295.375V179.75H130V232.875H126.875C123.428 232.875 120.625 230.072 120.625 226.625V195.375C120.625 184.206 126.534 174.416 135.369 168.888C137.398 178.828 141.327 188.283 146.941 196.734L151.875 204.134L156.931 196.553C162.499 188.168 166.411 178.796 168.456 168.941C173.546 172.12 177.615 176.696 180.178 182.122C177.827 183.641 175.67 185.441 173.753 187.481V179.75H167.503V196.762C165.516 201.106 164.378 205.919 164.378 211C164.378 216.081 165.516 220.894 167.503 225.238L167.5 295.375ZM198.75 239.125C183.244 239.125 170.625 226.506 170.625 211C170.625 195.494 183.244 182.875 198.75 182.875C214.256 182.875 226.875 195.494 226.875 211C226.875 226.506 214.256 239.125 198.75 239.125Z" fill="#E6EAF2"/>
<path d="M196.239 195.272V196.544L195.279 196.716C191.167 197.473 188.217 199.916 187.522 203.131C187.304 204.153 187.343 205.753 187.6 206.729C187.92 207.946 188.459 208.851 189.379 209.733C190.628 210.919 192.119 211.63 194.679 212.262C195.217 212.394 195.787 212.543 195.951 212.582L196.239 212.66V217.264V221.877L196.029 221.822C195.904 221.799 195.545 221.666 195.225 221.541C193.102 220.69 191.939 219.176 191.674 216.929L191.627 216.476H188.935H186.25V216.882C186.25 217.974 186.664 219.567 187.226 220.69C188.654 223.523 191.331 225.342 195.108 226.052L196.239 226.27V227.613V228.963H198.737H201.234V227.644V226.317L201.609 226.27C205.526 225.732 208.445 224.194 209.998 221.845C210.841 220.573 211.145 219.574 211.2 217.873C211.247 216.554 211.153 215.836 210.802 214.876C210.24 213.323 208.851 211.77 207.243 210.88C206.447 210.443 205.729 210.201 203.497 209.647L201.273 209.093L201.25 205.02C201.234 201.789 201.25 200.946 201.328 200.946C201.507 200.946 202.412 201.406 202.974 201.781C203.88 202.382 204.527 203.388 204.801 204.629L204.941 205.238H207.665H210.388L210.342 204.59C210.17 202.296 208.742 199.939 206.674 198.573C205.261 197.645 203.31 196.895 201.57 196.614L201.234 196.56V195.28V194H198.737H196.239V195.272ZM196.239 204.302C196.239 206.229 196.224 207.813 196.2 207.813C196.185 207.813 195.896 207.704 195.56 207.571C194.241 207.056 193.453 206.432 193.063 205.589C192.868 205.168 192.845 205.043 192.845 204.263C192.845 203.49 192.868 203.357 193.055 202.951C193.336 202.35 194.101 201.586 194.718 201.297C195.17 201.086 195.943 200.813 196.146 200.797C196.216 200.79 196.239 201.539 196.239 204.302ZM202.537 214.252C203.809 214.658 204.457 215.024 205.027 215.641C205.589 216.242 205.784 216.835 205.776 217.92C205.776 219.824 204.808 221.002 202.631 221.767C202.264 221.9 201.796 222.025 201.601 222.056L201.234 222.111V218.006C201.234 214.533 201.25 213.901 201.343 213.901C201.406 213.901 201.936 214.057 202.537 214.252Z" fill="#4C9CFB"/>
<g clip-path="url(#clip1_932_5791)">
<rect x="35.779" y="342.599" width="54.432" height="54.432" rx="16.848" transform="rotate(-14.9804 35.779 342.599)" fill="white" stroke="#A8B5CA" stroke-width="0.864"/>
<path d="M77.098 363.335C76.1944 359.958 73.8582 359.342 69.6766 359.944C66.6786 360.333 65.8931 359.716 65.5316 358.365C65.1701 357.014 65.9028 355.888 67.8325 355.371C69.5693 354.906 70.6892 355.227 71.5589 356.545C71.7329 356.809 72.074 356.925 72.3634 356.847L73.9071 356.434C74.2932 356.331 74.5052 355.964 74.4019 355.578L74.3761 355.481C73.422 353.462 71.2463 352.286 68.9755 352.687L68.3558 350.371C68.2525 349.985 67.8856 349.773 67.3774 349.806L65.93 350.193C65.544 350.297 65.332 350.663 65.3646 351.172L65.9584 353.391C63.167 354.552 61.8502 356.972 62.4957 359.384C63.3477 362.568 65.613 363.306 69.7948 362.705C72.6256 362.464 73.649 362.811 74.0621 364.354C74.4752 365.898 73.4082 367.321 71.575 367.812C69.0661 368.483 67.9137 367.654 67.2369 366.284C67.0373 365.924 66.6962 365.808 66.4067 365.886L64.7662 366.325C64.3804 366.428 64.1684 366.795 64.2717 367.181L64.2975 367.277C65.3288 369.586 67.3374 370.91 70.6508 370.541L71.2704 372.856C71.3737 373.242 71.7406 373.454 72.2488 373.422L73.6961 373.034C74.0822 372.931 74.2942 372.564 74.2617 372.056L73.642 369.74C76.4076 368.483 77.7951 365.94 77.098 363.335Z" fill="#5482C7"/>
<path d="M68.521 376.487C60.2719 375.799 54.1659 368.437 54.9762 360.259C55.3391 355.819 57.6971 351.879 61.2659 349.373C61.6003 349.077 61.7157 348.736 61.5866 348.253L61.2251 346.903C61.1218 346.517 60.8515 346.279 60.4397 346.286C60.3431 346.312 60.1502 346.363 60.0794 346.485C51.6875 351.833 49.2777 362.921 54.6252 371.313C57.8079 376.252 63.0673 379.291 68.9354 379.582C69.373 379.671 69.7075 379.375 69.7005 378.963C69.7713 378.841 69.7454 378.744 69.6938 378.551L69.3323 377.2C69.2549 376.911 68.8621 376.603 68.521 376.487ZM70.6935 343.645C70.2558 343.556 69.9214 343.852 69.9284 344.264C69.8576 344.386 69.8834 344.482 69.9351 344.675L70.2965 346.026C70.3998 346.412 70.7925 346.721 71.1337 346.836C79.3828 347.524 85.4888 354.886 84.6785 363.065C84.3156 367.504 81.9576 371.444 78.3888 373.95C78.0544 374.246 77.939 374.587 78.0681 375.07L78.4296 376.421C78.5329 376.807 78.8032 377.045 79.215 377.038C79.3116 377.012 79.5045 376.96 79.5753 376.838C87.9672 371.49 90.377 360.402 85.0295 352.01C81.821 346.975 76.465 343.962 70.6935 343.645Z" fill="#5482C7"/>
</g>
<g clip-path="url(#clip2_932_5791)">
<rect x="287.087" y="-0.487283" width="54.432" height="54.432" rx="16.848" transform="rotate(12.0059 287.087 -0.487283)" fill="white" stroke="#A8B5CA" stroke-width="0.864"/>
<path fill-rule="evenodd" clip-rule="evenodd" d="M321.338 26.4458L321.944 23.5956L322.55 20.7454L310.942 18.2766L299.333 15.8078L298.727 18.658L298.121 21.5082L302.378 22.4135L306.635 23.3188L306.24 25.1755L305.845 27.0322L305.566 26.9898C303.63 26.6949 302.377 26.5463 300.908 26.4374C298.441 26.2545 296.337 26.3138 294.953 26.6054C292.943 27.0286 292.445 27.9149 293.573 29.0614C294.936 30.4453 298.613 32.0911 303.24 33.3873C303.672 33.5082 304.114 33.6327 304.223 33.664L304.422 33.721L303.153 39.6883L301.884 45.6556L304.967 46.3112L308.05 46.9668L309.319 40.999L310.588 35.0312L310.719 35.0452C310.791 35.0529 310.995 35.0831 311.171 35.1124C311.348 35.1417 311.8 35.2085 312.176 35.2608C316.753 35.8988 320.584 35.8791 322.351 35.2085C322.757 35.0545 323.075 34.8491 323.25 34.6274C323.369 34.4775 323.383 34.447 323.424 34.2538C323.465 34.0619 323.464 34.0269 323.419 33.8559C323.355 33.6122 323.144 33.2833 322.882 33.0161C321.755 31.8686 319.092 30.5535 315.511 29.3762C314.504 29.0449 313.808 28.8379 312.306 28.4227L312.035 28.3476L312.429 26.4914L312.824 24.6352L317.081 25.5405L321.338 26.4458ZM300.969 26.8719C302.196 26.9665 303.301 27.0956 304.961 27.3382C305.132 27.3631 305.379 27.4048 305.511 27.4307L305.75 27.4779L305.315 29.5526L304.88 31.6274L305.036 31.677C306.067 32.0051 309.895 32.8227 310.888 32.9268L311.032 32.9419L311.474 30.8618L311.917 28.7818L312.286 28.8776C313.24 29.1248 314.736 29.5717 315.755 29.9134C318.311 30.7713 320.238 31.66 321.251 32.4485C321.585 32.7087 321.724 32.8484 321.88 33.0784C322.032 33.3051 322.078 33.4752 322.038 33.6652C322 33.8458 321.911 33.9609 321.694 34.1103C321.194 34.4552 320.17 34.6523 318.65 34.6965C316.367 34.7629 313.191 34.4487 309.634 33.8049C308.148 33.5359 305.597 32.9567 304.023 32.5313C299.525 31.3149 296.088 29.8671 294.923 28.6976C294.311 28.0838 294.366 27.5634 295.078 27.2334C296.045 26.7848 298.158 26.6551 300.969 26.8719Z" fill="#3F7753"/>
</g>
<g clip-path="url(#clip3_932_5791)">
<rect x="330.772" y="135.234" width="47.421" height="47.4211" rx="14.678" transform="rotate(-30 330.772 135.234)" fill="white" stroke="#A8B5CA" stroke-width="0.752716"/>
<path fill-rule="evenodd" clip-rule="evenodd" d="M359.304 137.552L357.403 144.652L353.271 143.545L356.28 132.314L367.514 135.323L366.408 139.454L359.304 137.552ZM355.515 151.701L351.383 150.594L352.49 146.463L356.621 147.569L355.515 151.701ZM358.427 152.481L359.539 148.351L366.639 150.252L368.541 143.148L372.673 144.255L369.664 155.49L358.432 152.482L358.427 152.481ZM373.453 141.341L369.322 140.235L370.428 136.104L374.56 137.21L373.453 141.341ZM361.436 141.244L365.626 142.366L365.63 142.367L365.629 142.369L364.506 146.561L360.319 145.439L360.312 145.438L360.315 145.432L360.51 144.698L360.606 144.341L361.436 141.244Z" fill="#FFC700"/>
</g>
<g clip-path="url(#clip4_932_5791)">
<rect x="0.694019" y="0.369557" width="70.0539" height="70.054" rx="21.6834" transform="matrix(0.956482 -0.291791 0.29179 0.956482 4.17237 59.9843)" fill="white" stroke="#A8B5CA" stroke-width="1.11197"/>
<path d="M59.6868 71.1147C60.3328 72.3479 60.5548 73.7595 60.3185 75.1314C60.0822 76.5034 59.4008 77.7593 58.3794 78.7053L58.3489 78.7321C60.196 78.5313 62.0557 78.9765 63.6117 79.9921L63.6261 80.0012C64.7739 80.9375 65.6872 82.2418 66.1624 83.7998C66.3009 84.2536 66.3964 84.7127 66.4521 85.1684L66.4451 85.1202C66.6975 86.2754 66.7439 87.4661 66.5823 88.6374L66.5888 88.5696C66.4581 89.5457 66.1336 90.4859 65.6344 91.3348L65.6307 91.3418C65.1044 92.1874 64.4372 92.9368 63.6581 93.5574L63.6074 93.5942C62.7576 94.2884 61.8349 94.8882 60.8556 95.383L60.7695 95.4248C59.7527 95.9404 58.5146 96.4672 57.2309 96.9209L57.1676 96.9421L59.1586 103.468L55.2219 104.669L53.2645 98.2529C51.9009 98.6689 50.8585 98.9779 50.1374 99.1798L52.1023 105.621L48.1657 106.822L46.1758 100.299C45.8686 100.393 45.4071 100.529 44.7913 100.708C44.1755 100.887 43.7051 101.026 43.3801 101.125L38.2701 102.684L37.6349 97.7628L40.4708 96.8977C40.6593 96.8576 40.8378 96.7798 40.9955 96.669C41.1532 96.5581 41.2868 96.4165 41.3883 96.2527C41.4898 96.0889 41.5571 95.9062 41.5862 95.7157C41.6153 95.5252 41.6055 95.3307 41.5575 95.1441L38.4213 84.8637L38.829 84.7393C38.7027 84.7588 38.578 84.7871 38.4557 84.8241L38.4114 84.8376L38.4132 84.8371L36.1751 77.5008C35.9379 76.9912 35.5087 76.5962 34.9812 76.4021C34.4536 76.208 33.8708 76.2305 33.3598 76.4648L33.3699 76.4598L30.5339 77.325L29.2546 73.1313L34.6824 71.5025C35.7731 71.1698 36.5971 70.9094 37.1545 70.7213L35.1895 64.2801L39.1262 63.0791L41.0523 69.3927C42.4385 68.9323 43.4732 68.598 44.1562 68.3896L42.2452 62.1257L46.1819 60.9247L48.1469 67.3659C49.511 67.0679 50.7944 66.8992 52.0693 66.8358L51.9013 66.8502C53.011 66.792 54.1234 66.8869 55.2073 67.132L55.1413 67.1192C56.1568 67.3422 57.073 67.7989 57.8377 68.4511L57.8589 68.4698C58.6669 69.1855 59.2913 70.0846 59.6798 71.0917L59.688 71.1124L59.6868 71.1147ZM58.441 86.725L58.4204 86.6577C58.2452 86.0834 57.9391 85.5878 57.5442 85.189L57.5585 85.204C57.1887 84.8272 56.7482 84.527 56.2622 84.3208L56.2553 84.3171C55.7214 84.1124 55.1565 84.0003 54.5849 83.9858L54.548 83.9855C53.9708 83.9529 53.3921 83.9618 52.8162 84.0119L52.7304 84.0226C52.0838 84.093 51.4425 84.2058 50.8107 84.3603L50.7694 84.3709C50.0047 84.5487 49.4091 84.7026 48.9825 84.8327C48.5559 84.9629 48.009 85.1388 47.3417 85.3604C46.6744 85.5821 46.2722 85.7138 46.1351 85.7556L48.7695 94.3912C48.9054 94.3497 49.2222 94.2576 49.7198 94.1148C50.2174 93.9721 50.6275 93.8515 50.9501 93.7531C51.2727 93.6547 51.7207 93.5038 52.2942 93.3004C52.8676 93.0971 53.3558 92.9107 53.7588 92.7412C54.1618 92.5718 54.6254 92.3516 55.1498 92.0805C55.6701 91.8172 56.109 91.5477 56.5217 91.2493L56.4591 91.2917C56.8822 90.9766 57.2276 90.6736 57.5467 90.3477L57.5076 90.3848C57.8377 90.0632 58.0943 89.704 58.2814 89.3137L58.2826 89.3114C58.4491 88.9428 58.5568 88.5399 58.5968 88.1248L58.5981 88.0972C58.6369 87.6494 58.5888 87.1983 58.4563 86.7688L58.4417 86.7209L58.4422 86.7227L58.441 86.725ZM52.9134 75.1088L52.8934 75.0433C52.7349 74.5239 52.4664 74.0692 52.1231 73.6934L52.1379 73.7102C51.8245 73.3657 51.4497 73.0826 51.0327 72.8752L51.0304 72.874C50.5838 72.6766 50.1045 72.5634 49.6168 72.5399L49.5875 72.5392C49.0967 72.4964 48.6031 72.4953 48.1121 72.5359L48.0504 72.5431C47.5165 72.5999 46.9863 72.6879 46.4627 72.8066L46.4137 72.8177C45.7767 72.9565 45.2757 73.0861 44.9107 73.2065C44.5457 73.3268 44.088 73.4755 43.5375 73.6525C42.987 73.8295 42.6515 73.9363 42.531 73.9731L44.9253 81.8217L45.8118 81.5648C46.3177 81.4195 46.7135 81.2987 46.9993 81.2025C47.2851 81.1063 47.7053 80.9594 48.2598 80.7618C48.748 80.5946 49.2242 80.3943 49.685 80.1623L49.6239 80.1907C49.9812 80.0068 50.3907 79.7785 50.8526 79.5058C51.2892 79.2603 51.6542 78.9707 51.9652 78.6375L51.9472 78.6546C52.2215 78.3463 52.4692 78.0154 52.6877 77.6653L52.681 77.6751C52.9052 77.3208 53.0387 76.9168 53.07 76.4986L53.0704 76.4811C53.1047 76.0599 53.0567 75.5979 52.9178 75.1424L52.9064 75.1051L52.907 75.1069L52.9134 75.1088Z" fill="#E9983D"/>
</g>
<g clip-path="url(#clip5_932_5791)">
<rect x="30.4942" y="192.452" width="43.5456" height="43.5456" rx="13.4784" transform="rotate(22.6841 30.4942 192.452)" fill="white" stroke="#A8B5CA" stroke-width="0.6912"/>
<path fill-rule="evenodd" clip-rule="evenodd" d="M46.1612 215.565C48.1134 213.165 49.7168 211.066 49.7287 210.903C49.7421 210.649 49.3909 210.465 47.4263 209.644L45.1289 208.683L44.7985 209.028C44.6043 209.226 42.6071 211.644 40.3496 214.418L36.2469 219.469L34.6899 219.32L33.1395 219.155L32.4258 219.972C32.0174 220.415 31.7147 220.827 31.7332 220.872C31.745 220.933 32.4132 221.026 33.2188 221.103C34.0177 221.195 34.641 221.307 34.6146 221.37C34.5881 221.434 33.2822 223.044 31.7133 224.972C30.1444 226.9 28.8319 228.526 28.7922 228.621C28.6864 228.874 43.6246 235.081 44.0539 234.944C44.5374 234.812 46.7632 232.025 46.6472 231.679C46.5866 231.467 45.4815 230.95 41.5839 229.321C37.6546 227.678 36.6288 227.194 36.7424 227.055C36.8297 226.98 37.817 225.776 38.9379 224.386L40.9747 221.873L42.4101 222.045C43.2091 222.137 43.9355 222.181 44.0411 222.151C44.2591 222.074 45.5861 220.547 45.5399 220.435C45.5307 220.413 44.8849 220.31 44.111 220.247C43.3279 220.161 42.6822 220.058 42.6637 220.014C42.6453 219.969 44.2248 217.971 46.1612 215.565Z" fill="#23314F"/>
</g>
<g clip-path="url(#clip6_932_5791)">
<rect x="327.283" y="324.537" width="54.432" height="54.432" rx="16.848" transform="rotate(16.5416 327.283 324.537)" fill="white" stroke="#A8B5CA" stroke-width="0.864"/>
<path d="M343.103 366.592L334.716 357.57L340.624 374.916L355.054 363.611L343.097 366.59L343.103 366.592ZM350.621 341.833L335.445 355.686L343.825 364.717L355.778 361.731L350.621 341.833Z" fill="#23314F"/>
</g>
<g clip-path="url(#clip7_932_5791)">
<rect x="324.708" y="242.306" width="31.5" height="31.5" rx="9.75" transform="rotate(15 324.708 242.306)" fill="white" stroke="#A8B5CA" stroke-width="0.5"/>
<path d="M337.176 253.313L337.006 253.946L336.506 253.903C334.36 253.732 332.567 254.553 331.793 256.06C331.549 256.539 331.355 257.34 331.353 257.859C331.35 258.507 331.497 259.029 331.837 259.591C332.3 260.347 332.947 260.899 334.136 261.554C334.386 261.692 334.649 261.842 334.726 261.883L334.859 261.96L334.245 264.25L333.631 266.543L333.533 266.488C333.474 266.46 333.313 266.346 333.171 266.241C332.229 265.536 331.852 264.628 332.02 263.475L332.057 263.243L330.718 262.885L329.383 262.527L329.329 262.729C329.183 263.272 329.176 264.119 329.306 264.753C329.639 266.352 330.728 267.613 332.512 268.469L333.045 268.728L332.866 269.396L332.686 270.067L333.928 270.4L335.17 270.733L335.346 270.077L335.523 269.417L335.715 269.444C337.735 269.698 339.392 269.323 340.477 268.361C341.066 267.841 341.35 267.385 341.604 266.546C341.803 265.896 341.852 265.527 341.805 265.003C341.733 264.156 341.249 263.198 340.568 262.541C340.23 262.218 339.906 262.002 338.869 261.429L337.837 260.857L338.368 258.828C338.791 257.219 338.911 256.802 338.95 256.813C339.039 256.837 339.428 257.186 339.658 257.447C340.028 257.867 340.216 258.454 340.186 259.107L340.175 259.429L341.529 259.792L342.884 260.155L342.947 259.826C343.167 258.662 342.771 257.3 341.925 256.345C341.346 255.695 340.475 255.063 339.647 254.691L339.488 254.619L339.658 253.983L339.829 253.346L338.587 253.013L337.345 252.681L337.176 253.313ZM335.972 257.804C335.716 258.762 335.497 259.548 335.485 259.545C335.477 259.543 335.348 259.45 335.199 259.339C334.612 258.907 334.303 258.492 334.221 258.021C334.18 257.785 334.185 257.72 334.289 257.332C334.392 256.948 334.422 256.885 334.569 256.708C334.789 256.447 335.271 256.168 335.616 256.107C335.869 256.062 336.29 256.029 336.393 256.049C336.429 256.054 336.341 256.43 335.972 257.804ZM337.779 263.591C338.357 263.962 338.63 264.231 338.831 264.614C339.031 264.987 339.049 265.308 338.9 265.847C338.647 266.794 338.008 267.251 336.824 267.341C336.624 267.358 336.374 267.358 336.273 267.347L336.083 267.325L336.63 265.284C337.093 263.557 337.185 263.245 337.232 263.257C337.263 263.266 337.506 263.414 337.779 263.591Z" fill="#3E4757"/>
</g>
</g>
<defs>
<clipPath id="clip0_932_5791">
<rect width="422" height="422" fill="white" transform="translate(0.25)"/>
</clipPath>
<clipPath id="clip1_932_5791">
<rect width="55.296" height="55.296" fill="white" transform="translate(35.25 342.293) rotate(-14.9804)"/>
</clipPath>
<clipPath id="clip2_932_5791">
<rect width="55.296" height="55.296" fill="white" transform="translate(286.754 -1) rotate(12.0059)"/>
</clipPath>
<clipPath id="clip3_932_5791">
<rect width="48.1738" height="48.1739" fill="white" transform="translate(330.258 135.096) rotate(-30)"/>
</clipPath>
<clipPath id="clip4_932_5791">
<rect width="71.1658" height="71.166" fill="white" transform="matrix(0.956482 -0.291791 0.29179 0.956482 4.25 59.7656)"/>
</clipPath>
<clipPath id="clip5_932_5791">
<rect width="44.2368" height="44.2368" fill="white" transform="translate(30.3086 192) rotate(22.6841)"/>
</clipPath>
<clipPath id="clip6_932_5791">
<rect width="55.296" height="55.296" fill="white" transform="translate(326.992 324) rotate(16.5416)"/>
</clipPath>
<clipPath id="clip7_932_5791">
<rect width="32" height="32" fill="white" transform="translate(324.531 242) rotate(15)"/>
</clipPath>
</defs>
</svg>
