<svg width="423" height="422" fill="none" xmlns="http://www.w3.org/2000/svg"><g clip-path="url(#clip0_932_5791)"><circle cx="211.25" cy="211" r="171" stroke="#E6EAF2" stroke-width="2"/><circle cx="211.25" cy="211" r="135.5" stroke="#E6EAF2"/><circle cx="211.25" cy="211" r="202" stroke="#E6EAF2" stroke-width="4"/><path d="M232.966 214.125h19.093c1.563 14.041 13.491 25 27.941 25 15.506 0 28.125-12.619 28.125-28.125S295.506 182.875 280 182.875c-14.45 0-26.378 10.959-27.941 25h-19.093a34.23 34.23 0 0 0-7.816-18.856l20.338-20.338a27.832 27.832 0 0 0 9.512 1.694c15.506 0 28.125-12.619 28.125-28.125S270.506 114.125 255 114.125s-28.125 12.619-28.125 28.125c0 9.816 5.066 18.462 12.709 23.497L220.731 184.6a34.23 34.23 0 0 0-35.025-5.388 37.698 37.698 0 0 0-20.634-18.893c7.072-4.422 11.803-12.257 11.803-21.194 0-13.784-11.216-25-25-25s-25 11.216-25 25c0 8.937 4.731 16.772 11.803 21.194-14.175 5.356-24.303 19.028-24.303 35.056v31.25c0 6.894 5.606 12.5 12.5 12.5H130v56.25c0 6.894 5.606 12.5 12.5 12.5 3.75 0 7.081-1.694 9.375-4.319 2.294 2.625 5.625 4.319 9.375 4.319 6.894 0 12.5-5.606 12.5-12.5v-60.856c6.275 6.665 15.147 10.856 25 10.856 8.353 0 16.016-3.003 21.981-7.975l18.853 18.853c-7.643 5.035-12.709 13.681-12.709 23.497 0 15.506 12.619 28.125 28.125 28.125s28.125-12.619 28.125-28.125-12.619-28.125-28.125-28.125c-3.344 0-6.537.616-9.512 1.691l-20.338-20.338a34.187 34.187 0 0 0 7.816-18.853zm8.531-54.7a15.54 15.54 0 0 1 13.503-7.8c5.65 0 10.738 3.006 13.503 7.8a21.74 21.74 0 0 1-27.006 0zm7.253-20.3a6.256 6.256 0 0 1 6.25-6.25 6.256 6.256 0 0 1 6.25 6.25 6.256 6.256 0 0 1-6.25 6.25 6.256 6.256 0 0 1-6.25-6.25zm6.25-18.75c12.062 0 21.875 9.813 21.875 21.875a21.74 21.74 0 0 1-3.972 12.531 21.701 21.701 0 0 0-8.634-7.347 12.406 12.406 0 0 0 3.231-8.309c0-6.894-5.606-12.5-12.5-12.5s-12.5 5.606-12.5 12.5a12.406 12.406 0 0 0 3.231 8.309 21.701 21.701 0 0 0-8.634 7.347 21.74 21.74 0 0 1-3.972-12.531c0-12.062 9.813-21.875 21.875-21.875zm-13.503 176.55a15.54 15.54 0 0 1 13.503-7.8c5.65 0 10.738 3.006 13.503 7.8a21.74 21.74 0 0 1-27.006 0zm7.253-20.3a6.256 6.256 0 0 1 6.25-6.25 6.256 6.256 0 0 1 6.25 6.25 6.256 6.256 0 0 1-6.25 6.25 6.256 6.256 0 0 1-6.25-6.25zm28.125 3.125a21.74 21.74 0 0 1-3.972 12.531 21.701 21.701 0 0 0-8.634-7.347 12.406 12.406 0 0 0 3.231-8.309c0-6.894-5.606-12.5-12.5-12.5s-12.5 5.606-12.5 12.5a12.406 12.406 0 0 0 3.231 8.309 21.701 21.701 0 0 0-8.634 7.347 21.74 21.74 0 0 1-3.972-12.531c0-12.062 9.813-21.875 21.875-21.875s21.875 9.813 21.875 21.875zm-10.378-51.575a15.538 15.538 0 0 1 13.503-7.8c5.65 0 10.738 3.006 13.503 7.8a21.74 21.74 0 0 1-27.006 0zm7.253-20.3a6.256 6.256 0 0 1 6.25-6.25 6.256 6.256 0 0 1 6.25 6.25 6.256 6.256 0 0 1-6.25 6.25 6.256 6.256 0 0 1-6.25-6.25zm6.25-18.75c12.062 0 21.875 9.813 21.875 21.875a21.74 21.74 0 0 1-3.972 12.531 21.701 21.701 0 0 0-8.634-7.347 12.406 12.406 0 0 0 3.231-8.309c0-6.894-5.606-12.5-12.5-12.5s-12.5 5.606-12.5 12.5a12.406 12.406 0 0 0 3.231 8.309 21.701 21.701 0 0 0-8.634 7.347A21.74 21.74 0 0 1 258.125 211c0-12.062 9.813-21.875 21.875-21.875zm-138.791-23.084a30.825 30.825 0 0 1 3.682-1.1l-.85 11.906a72.106 72.106 0 0 1-2.832-10.806zm10.004-1.882c.221-.006.437-.034.662-.034.222 0 .441.022.662.025l1.766 24.731a70.24 70.24 0 0 1-2.431 3.985 73.782 73.782 0 0 1-2.428-4.01l1.769-24.697zm8.509 12.825l-.863-12.053c1.278.302 2.536.684 3.766 1.144a72.235 72.235 0 0 1-2.903 10.909zm-26.597-37.859c0-10.341 8.409-18.75 18.75-18.75s18.75 8.409 18.75 18.75-8.409 18.75-18.75 18.75-18.75-8.409-18.75-18.75zm34.375 156.25a6.256 6.256 0 0 1-6.25 6.25 6.256 6.256 0 0 1-6.25-6.25v-58.616c0-1.668.65-3.24 1.831-4.422l3.503-3.503-4.418-4.418-3.504 3.503a12.413 12.413 0 0 0-3.662 8.84v58.616a6.256 6.256 0 0 1-6.25 6.25 6.256 6.256 0 0 1-6.25-6.25V179.75H130v53.125h-3.125a6.256 6.256 0 0 1-6.25-6.25v-31.25c0-11.169 5.909-20.959 14.744-26.487a78.809 78.809 0 0 0 11.572 27.846l4.934 7.4 5.056-7.581a78.889 78.889 0 0 0 11.525-27.612 31.305 31.305 0 0 1 11.722 13.181 34.538 34.538 0 0 0-6.425 5.359v-7.731h-6.25v17.012c-1.987 4.344-3.125 9.157-3.125 14.238 0 5.081 1.138 9.894 3.125 14.238l-.003 70.137zm31.25-56.25c-15.506 0-28.125-12.619-28.125-28.125s12.619-28.125 28.125-28.125 28.125 12.619 28.125 28.125-12.619 28.125-28.125 28.125z" fill="#E6EAF2"/><path d="M196.239 195.272v1.272l-.96.172c-4.112.757-7.062 3.2-7.757 6.415-.218 1.022-.179 2.622.078 3.598.32 1.217.859 2.122 1.779 3.004 1.249 1.186 2.74 1.897 5.3 2.529.538.132 1.108.281 1.272.32l.288.078v9.217l-.21-.055c-.125-.023-.484-.156-.804-.281-2.123-.851-3.286-2.365-3.551-4.612l-.047-.453H186.25v.406c0 1.092.414 2.685.976 3.808 1.428 2.833 4.105 4.652 7.882 5.362l1.131.218v2.693h4.995v-2.646l.375-.047c3.917-.538 6.836-2.076 8.389-4.425.843-1.272 1.147-2.271 1.202-3.972.047-1.319-.047-2.037-.398-2.997-.562-1.553-1.951-3.106-3.559-3.996-.796-.437-1.514-.679-3.746-1.233l-2.224-.554-.023-4.073c-.016-3.231 0-4.074.078-4.074.179 0 1.084.46 1.646.835.906.601 1.553 1.607 1.827 2.848l.14.609h5.447l-.046-.648c-.172-2.294-1.6-4.651-3.668-6.017-1.413-.928-3.364-1.678-5.104-1.959l-.336-.054V194h-4.995v1.272zm0 9.03c0 1.927-.015 3.511-.039 3.511-.015 0-.304-.109-.64-.242-1.319-.515-2.107-1.139-2.497-1.982-.195-.421-.218-.546-.218-1.326 0-.773.023-.906.21-1.312.281-.601 1.046-1.365 1.663-1.654.452-.211 1.225-.484 1.428-.5.07-.007.093.742.093 3.505zm6.298 9.95c1.272.406 1.92.772 2.49 1.389.562.601.757 1.194.749 2.279 0 1.904-.968 3.082-3.145 3.847a7.248 7.248 0 0 1-1.03.289l-.367.055v-4.105c0-3.473.016-4.105.109-4.105.063 0 .593.156 1.194.351z" fill="#4C9CFB"/><g clip-path="url(#clip1_932_5791)"><rect x="35.779" y="342.599" width="54.432" height="54.432" rx="16.848" transform="rotate(-14.98 35.779 342.599)" fill="#fff" stroke="#A8B5CA" stroke-width=".864"/><path d="M77.098 363.335c-.904-3.377-3.24-3.993-7.421-3.391-2.998.389-3.784-.228-4.145-1.579-.362-1.351.37-2.477 2.3-2.994 1.737-.465 2.857-.144 3.727 1.174a.75.75 0 0 0 .804.302l1.544-.413a.682.682 0 0 0 .495-.856l-.026-.097a4.99 4.99 0 0 0-5.4-2.794l-.62-2.316c-.103-.386-.47-.598-.979-.565l-1.447.387c-.386.104-.598.47-.565.979l.593 2.219c-2.791 1.161-4.108 3.581-3.462 5.993.852 3.184 3.117 3.922 7.299 3.321 2.83-.241 3.854.106 4.267 1.649.413 1.544-.654 2.967-2.487 3.458-2.509.671-3.661-.158-4.338-1.528-.2-.36-.54-.476-.83-.398l-1.64.439a.682.682 0 0 0-.495.856l.025.096c1.032 2.309 3.04 3.633 6.354 3.264l.62 2.315c.103.386.47.598.978.566l1.447-.388c.386-.103.598-.47.566-.978l-.62-2.316c2.766-1.257 4.153-3.8 3.456-6.405z" fill="#5482C7"/><path d="M68.521 376.487c-8.25-.688-14.355-8.05-13.545-16.228.363-4.44 2.721-8.38 6.29-10.886.334-.296.45-.637.32-1.12l-.36-1.35c-.104-.386-.374-.624-.786-.617-.097.026-.29.077-.36.199-8.392 5.348-10.802 16.436-5.455 24.828 3.183 4.939 8.442 7.978 14.31 8.269.438.089.772-.207.766-.619.07-.122.044-.219-.007-.412l-.362-1.351c-.077-.289-.47-.597-.811-.713zm2.172-32.842c-.437-.089-.772.207-.765.619-.07.122-.045.218.007.411l.361 1.351c.104.386.496.695.838.81 8.249.688 14.355 8.05 13.544 16.229-.362 4.439-2.72 8.379-6.29 10.885-.334.296-.449.637-.32 1.12l.362 1.351c.103.386.373.624.785.617.097-.026.29-.078.36-.2 8.392-5.348 10.802-16.436 5.454-24.828-3.208-5.035-8.564-8.048-14.335-8.365z" fill="#5482C7"/></g><g clip-path="url(#clip2_932_5791)"><rect x="287.087" y="-.487" width="54.432" height="54.432" rx="16.848" transform="rotate(12.006 287.087 -.487)" fill="#fff" stroke="#A8B5CA" stroke-width=".864"/><path fill-rule="evenodd" clip-rule="evenodd" d="M321.338 26.446l.606-2.85.606-2.85-11.608-2.47-11.609-2.468-.606 2.85-.606 2.85 4.257.905 4.257.906-.395 1.857-.395 1.856-.279-.042c-1.936-.295-3.189-.444-4.658-.553-2.467-.183-4.571-.123-5.955.168-2.01.424-2.508 1.31-1.38 2.456 1.363 1.384 5.04 3.03 9.667 4.326l.983.277.199.057-1.269 5.967-1.269 5.968 3.083.655 3.083.656 1.269-5.968 1.269-5.968.131.014c.072.008.276.038.452.067.177.03.629.096 1.005.149 4.577.638 8.408.618 10.175-.053.406-.154.724-.359.899-.58.119-.15.133-.181.174-.374.041-.192.04-.227-.005-.398-.064-.244-.275-.573-.537-.84-1.127-1.147-3.79-2.462-7.371-3.64-1.007-.331-1.703-.538-3.205-.953l-.271-.075.394-1.857.395-1.856 4.257.905 4.257.906zm-20.369.426c1.227.095 2.332.224 3.992.466.171.025.418.067.55.093l.239.047-.435 2.075-.435 2.074.156.05c1.031.328 4.859 1.146 5.852 1.25l.144.015.442-2.08.443-2.08.369.096c.954.247 2.45.694 3.469 1.035 2.556.858 4.483 1.747 5.496 2.536.334.26.473.4.629.63.152.226.198.396.158.586-.038.18-.127.296-.344.445-.5.345-1.524.542-3.044.587-2.283.066-5.459-.248-9.016-.892a82.95 82.95 0 0 1-5.611-1.274c-4.498-1.216-7.935-2.664-9.1-3.833-.612-.614-.557-1.135.155-1.465.967-.448 3.08-.578 5.891-.361z" fill="#3F7753"/></g><g clip-path="url(#clip3_932_5791)"><rect x="330.772" y="135.234" width="47.421" height="47.421" rx="14.678" transform="rotate(-30 330.772 135.234)" fill="#fff" stroke="#A8B5CA" stroke-width=".753"/><path fill-rule="evenodd" clip-rule="evenodd" d="M359.304 137.552l-1.901 7.1-4.132-1.107 3.009-11.231 11.234 3.009-1.106 4.131-7.104-1.902zm-3.789 14.149l-4.132-1.107 1.107-4.131 4.131 1.106-1.106 4.132zm2.912.78l1.112-4.13 7.1 1.901 1.902-7.104 4.132 1.107-3.009 11.235-11.232-3.008-.005-.001zm15.026-11.14l-4.131-1.106 1.106-4.131 4.132 1.106-1.107 4.131zm-12.017-.097l4.19 1.122.004.001-.001.002-1.123 4.192-4.187-1.122-.007-.001.003-.006.195-.734.096-.357.83-3.097z" fill="#FFC700"/></g><g clip-path="url(#clip4_932_5791)"><rect x=".694" y=".37" width="70.054" height="70.054" rx="21.683" transform="rotate(-16.965 203.186 16.004)" fill="#fff" stroke="#A8B5CA" stroke-width="1.112"/><path d="M59.687 71.115a6.338 6.338 0 0 1-1.308 7.59l-.03.027a8.04 8.04 0 0 1 5.263 1.26l.014.01a7.853 7.853 0 0 1 2.536 3.798c.139.454.234.913.29 1.368l-.007-.048c.253 1.155.299 2.346.137 3.517l.007-.067a7.39 7.39 0 0 1-.955 2.765l-.003.007a8.731 8.731 0 0 1-1.973 2.215l-.05.037a15.147 15.147 0 0 1-2.752 1.789l-.087.042a30.542 30.542 0 0 1-3.538 1.496l-.063.021 1.99 6.526-3.936 1.201-1.958-6.416c-1.363.416-2.406.725-3.127.927l1.965 6.441-3.936 1.201-1.99-6.523c-.307.094-.769.23-1.385.409-.615.179-1.086.318-1.41.417l-5.11 1.559-.636-4.921 2.836-.865a1.43 1.43 0 0 0 1.087-1.754l-3.137-10.28.408-.125c-.126.02-.251.048-.373.085l-.045.014h.002L36.175 77.5a2.127 2.127 0 0 0-2.815-1.036l.01-.005-2.836.865-1.28-4.194 5.428-1.629a95.706 95.706 0 0 0 2.472-.78L35.19 64.28l3.937-1.2 1.926 6.313c1.386-.46 2.421-.795 3.104-1.003l-1.91-6.264 3.936-1.201 1.965 6.44a23.708 23.708 0 0 1 3.922-.53l-.168.015c1.11-.058 2.222.037 3.306.282l-.066-.013a6.172 6.172 0 0 1 2.697 1.332l.02.019a6.746 6.746 0 0 1 1.822 2.622l.008.02-.001.003zm-1.246 15.61l-.02-.067a3.55 3.55 0 0 0-.877-1.469l.015.015a4.012 4.012 0 0 0-1.297-.883l-.007-.004a5.022 5.022 0 0 0-1.67-.331h-.037a12.105 12.105 0 0 0-1.732.026l-.086.01c-.646.071-1.287.184-1.92.338l-.04.01c-.765.179-1.36.333-1.788.463-.426.13-.973.306-1.64.527-.668.222-1.07.354-1.207.396l2.635 8.635c.135-.041.452-.133.95-.276.497-.143.907-.263 1.23-.362.323-.098.77-.25 1.344-.453a27.87 27.87 0 0 0 1.465-.559c.403-.17.866-.39 1.39-.66.521-.264.96-.533 1.373-.832l-.063.043a9.06 9.06 0 0 0 1.088-.944l-.04.037c.33-.322.587-.681.774-1.071l.002-.003c.166-.368.274-.771.314-1.186l.001-.028a3.486 3.486 0 0 0-.142-1.328l-.014-.048v.002l-.001.002zm-5.528-11.616l-.02-.066a3.518 3.518 0 0 0-.77-1.35l.015.017a3.754 3.754 0 0 0-1.105-.835l-.003-.001a3.97 3.97 0 0 0-1.413-.334h-.03a8.716 8.716 0 0 0-1.475-.004l-.062.007c-.533.057-1.064.145-1.587.264l-.05.01c-.636.14-1.137.27-1.502.39a203.81 203.81 0 0 1-2.38.766l2.394 7.849.887-.257c.506-.145.902-.266 1.187-.362a82.25 82.25 0 0 0 1.26-.441 11.34 11.34 0 0 0 1.426-.6l-.061.029c.357-.184.767-.413 1.229-.685a4.56 4.56 0 0 0 1.112-.868l-.018.017c.274-.309.522-.64.74-.99l-.006.01c.224-.354.358-.758.389-1.176v-.018a3.626 3.626 0 0 0-.152-1.339l-.012-.037.001.002.006.002z" fill="#E9983D"/></g><g clip-path="url(#clip5_932_5791)"><rect x="30.494" y="192.452" width="43.546" height="43.546" rx="13.478" transform="rotate(22.684 30.494 192.452)" fill="#fff" stroke="#A8B5CA" stroke-width=".691"/><path fill-rule="evenodd" clip-rule="evenodd" d="M46.161 215.565c1.952-2.4 3.556-4.499 3.568-4.662.013-.254-.338-.438-2.303-1.259l-2.297-.961-.33.345c-.195.198-2.192 2.616-4.45 5.39l-4.102 5.051-1.557-.149-1.55-.165-.714.817c-.409.443-.711.855-.693.9.012.061.68.154 1.486.231.799.092 1.422.204 1.396.267-.027.064-1.333 1.674-2.902 3.602-1.569 1.928-2.881 3.554-2.92 3.649-.107.253 14.832 6.46 15.26 6.323.484-.132 2.71-2.919 2.594-3.265-.06-.212-1.166-.729-5.063-2.358-3.93-1.643-4.955-2.127-4.842-2.266.088-.075 1.075-1.279 2.196-2.669l2.037-2.513 1.435.172c.8.092 1.526.136 1.631.106.218-.077 1.545-1.604 1.499-1.716-.01-.022-.655-.125-1.429-.188-.783-.086-1.429-.189-1.447-.233-.019-.045 1.56-2.043 3.497-4.449z" fill="#23314F"/></g><g clip-path="url(#clip6_932_5791)"><rect x="327.283" y="324.537" width="54.432" height="54.432" rx="16.848" transform="rotate(16.542 327.283 324.537)" fill="#fff" stroke="#A8B5CA" stroke-width=".864"/><path d="M343.103 366.592l-8.387-9.022 5.908 17.346 14.43-11.305-11.957 2.979.006.002zm7.518-24.759l-15.176 13.853 8.38 9.031 11.953-2.986-5.157-19.898z" fill="#23314F"/></g><g clip-path="url(#clip7_932_5791)"><rect x="324.708" y="242.306" width="31.5" height="31.5" rx="9.75" transform="rotate(15 324.708 242.306)" fill="#fff" stroke="#A8B5CA" stroke-width=".5"/><path d="M337.176 253.313l-.17.633-.5-.043c-2.146-.171-3.939.65-4.713 2.157-.244.479-.438 1.28-.44 1.799-.003.648.144 1.17.484 1.732.463.756 1.11 1.308 2.299 1.963.25.138.513.288.59.329l.133.077-.614 2.29-.614 2.293-.098-.055a3.669 3.669 0 0 1-.362-.247c-.942-.705-1.319-1.613-1.151-2.766l.037-.232-1.339-.358-1.335-.358-.054.202c-.146.543-.153 1.39-.023 2.024.333 1.599 1.422 2.86 3.206 3.716l.533.259-.179.668-.18.671 1.242.333 1.242.333.176-.656.177-.66.192.027c2.02.254 3.677-.121 4.762-1.083.589-.52.873-.976 1.127-1.815.199-.65.248-1.019.201-1.543-.072-.847-.556-1.805-1.237-2.462-.338-.323-.662-.539-1.699-1.112l-1.032-.572.531-2.029c.423-1.609.543-2.026.582-2.015.089.024.478.373.708.634.37.42.558 1.007.528 1.66l-.011.322 1.354.363 1.355.363.063-.329c.22-1.164-.176-2.526-1.022-3.481-.579-.65-1.45-1.282-2.278-1.654l-.159-.072.17-.636.171-.637-1.242-.333-1.242-.332-.169.632zm-1.204 4.491c-.256.958-.475 1.744-.487 1.741a5.875 5.875 0 0 1-.286-.206c-.587-.432-.896-.847-.978-1.318-.041-.236-.036-.301.068-.689.103-.384.133-.447.28-.624.22-.261.702-.54 1.047-.601.253-.045.674-.078.777-.058.036.005-.052.381-.421 1.755zm1.807 5.787c.578.371.851.64 1.052 1.023.2.373.218.694.069 1.233-.253.947-.892 1.404-2.076 1.494-.2.017-.45.017-.551.006l-.19-.022.547-2.041c.463-1.727.555-2.039.602-2.027.031.009.274.157.547.334z" fill="#3E4757"/></g></g><defs><clipPath id="clip0_932_5791"><path fill="#fff" transform="translate(.25)" d="M0 0h422v422H0z"/></clipPath><clipPath id="clip1_932_5791"><path fill="#fff" transform="rotate(-14.98 1319.332 37.094)" d="M0 0h55.296v55.296H0z"/></clipPath><clipPath id="clip2_932_5791"><path fill="#fff" transform="rotate(12.006 148.132 1362.966)" d="M0 0h55.296v55.296H0z"/></clipPath><clipPath id="clip3_932_5791"><path fill="#fff" transform="rotate(-30 417.222 -548.722)" d="M0 0h48.174v48.174H0z"/></clipPath><clipPath id="clip4_932_5791"><path fill="#fff" transform="rotate(-16.965 202.492 15.635)" d="M0 0h71.166v71.166H0z"/></clipPath><clipPath id="clip5_932_5791"><path fill="#fff" transform="rotate(22.684 -463.45 171.551)" d="M0 0h44.237v44.237H0z"/></clipPath><clipPath id="clip6_932_5791"><path fill="#fff" transform="rotate(16.542 -950.95 1286.737)" d="M0 0h55.296v55.296H0z"/></clipPath><clipPath id="clip7_932_5791"><path fill="#fff" transform="rotate(15 -756.82 1353.529)" d="M0 0h32v32H0z"/></clipPath></defs></svg>