<svg width="424" height="423" fill="none" xmlns="http://www.w3.org/2000/svg"><g clip-path="url(#clip0_932_5765)"><g opacity=".2"><path d="M183.769 74.115l25.059-14.93 17.061 9.065 30.391 16.528 39.454 12.263 31.99 5.865v93.304l-4.265 45.319-12.263 33.59-28.791 41.587-31.99 21.86-41.587 15.995-31.99-10.663-37.855-19.728-27.192-33.589-17.061-36.789-8.53-57.582v-74.643l8.53-18.661 44.253-10.664 44.786-18.127z" fill="#F8F8F9"/><path fill-rule="evenodd" clip-rule="evenodd" d="M97.402 113.354a261.263 261.263 0 0 0 110.36-42.41 261.256 261.256 0 0 0 110.359 42.414v104.019a143.97 143.97 0 0 1-110.359 127.319 143.982 143.982 0 0 1-110.36-127.319V113.354zM205.617 364.47c.707.139 1.425.213 2.145.221.72-.007 1.438-.08 2.145-.22a164.312 164.312 0 0 0 127.905-145.773c.026-.308.04-.572.04-.881V104.59a9.827 9.827 0 0 0-8.839-9.776 240.904 240.904 0 0 1-115.495-43.909 9.877 9.877 0 0 0-11.508 0A240.903 240.903 0 0 1 86.52 94.814a9.83 9.83 0 0 0-8.848 9.776v113.227c0 .294.014.588.044.881A164.327 164.327 0 0 0 205.617 364.47z" fill="#9DB3D6"/></g><path fill-rule="evenodd" clip-rule="evenodd" d="M210.149 236.69l59.473-60.305-20.042-20.322-59.473 60.305-23.382-23.71-20.041 20.323 43.423 44.032 20.042-20.323z" fill="#FCBC58"/></g><path d="M337.214 165.61s42.351-92.183-1.599-104.568c-43.949-12.386-115.918 31.662-170.203 81.506-65.329 59.983-132.647 176.995-102.681 202.566 29.965 25.57 92.578 0 92.578 0" stroke="#DBE1EA" stroke-width="2.4" stroke-linecap="round"/><path d="M331.506 251.91s48.059 86.076 4.109 98.462c-43.949 12.385-115.918-31.663-170.203-81.506C100.083 208.883 32.765 91.87 62.731 66.3c29.965-25.57 102.681 6.217 102.681 6.217" stroke="#DBE1EA" stroke-width="2.4" stroke-linecap="round"/><path d="M337.498 154.023s92.958 28.903 70.64 68.738c-22.319 39.835-104.356 59.578-177.986 62.719-88.609 3.78-218.95-31.36-215.842-70.629 3.107-39.27 62.689-64.823 62.689-64.823" stroke="#DBE1EA" stroke-width="2.4" stroke-linecap="round"/><ellipse cx="61.757" cy="113.932" rx="13.757" ry="13.732" fill="#30CBFF"/><circle cx="351" cy="299.2" r="6" fill="#30CBFF"/><ellipse cx="389.64" cy="238.819" rx="11.64" ry="11.619" fill="#E60015"/><circle cx="39.5" cy="172.7" r="6.5" fill="#E60015"/><ellipse cx="59.64" cy="301.819" rx="11.64" ry="11.619" fill="#FFC250"/><circle cx="353.5" cy="110.7" r="6.5" fill="#FFC250"/><defs><clipPath id="clip0_932_5765"><path fill="#fff" transform="translate(49.945 49.056)" d="M0 0h315.635v315.635H0z"/></clipPath></defs></svg>