<svg width="32" height="32" fill="none" xmlns="http://www.w3.org/2000/svg"><path fill-rule="evenodd" clip-rule="evenodd" d="M16.354 2.667c.954 0 1.883.392 2.548 1.074a3.578 3.578 0 0 1 1.002 2.578c.003.215.074.463.202.68.212.36.546.614.944.718.397.098.813.045 1.166-.164 1.707-.975 3.88-.391 4.854 1.302l.83 1.439c.022.039.04.076.056.115a3.564 3.564 0 0 1-1.346 4.726c-.239.138-.432.33-.566.562a1.565 1.565 0 0 0-.16 1.177c.107.4.362.732.72.937a3.56 3.56 0 0 1 1.655 2.155c.241.904.11 1.885-.361 2.695l-.886 1.474a3.553 3.553 0 0 1-4.835 1.279c-.226-.13-.486-.2-.744-.207h-.009c-.385 0-.78.164-1.069.451a1.525 1.525 0 0 0-.45 1.095 3.56 3.56 0 0 1-3.551 3.542h-1.67a3.555 3.555 0 0 1-3.553-3.55 1.435 1.435 0 0 0-.201-.71 1.544 1.544 0 0 0-.939-.73 1.542 1.542 0 0 0-1.163.156 3.608 3.608 0 0 1-2.724.326 3.575 3.575 0 0 1-2.133-1.693l-.833-1.436a3.544 3.544 0 0 1 1.293-4.833c.479-.276.776-.791.776-1.343 0-.552-.297-1.068-.776-1.344a3.558 3.558 0 0 1-1.295-4.844L4.04 8.81c.962-1.672 3.135-2.261 4.83-1.288.23.137.481.207.736.21.83 0 1.525-.686 1.539-1.529a3.506 3.506 0 0 1 1.029-2.494 3.52 3.52 0 0 1 2.51-1.042h1.67zm0 2h-1.67a1.537 1.537 0 0 0-1.54 1.546c-.027 1.949-1.62 3.518-3.55 3.518a3.44 3.44 0 0 1-1.732-.482 1.553 1.553 0 0 0-2.102.581l-.902 1.484c-.414.717-.16 1.665.576 2.093a3.565 3.565 0 0 1 1.773 3.075 3.563 3.563 0 0 1-1.776 3.075 1.54 1.54 0 0 0-.561 2.1l.841 1.45c.208.375.548.646.941.756.392.11.824.063 1.184-.137a3.5 3.5 0 0 1 1.764-.472c.306 0 .611.039.91.119a3.558 3.558 0 0 1 2.148 1.654c.301.508.468 1.102.473 1.707 0 .867.696 1.561 1.552 1.561h1.67c.853 0 1.549-.69 1.553-1.542a3.504 3.504 0 0 1 1.036-2.51c.664-.664 1.592-1.062 2.52-1.036a3.63 3.63 0 0 1 1.71.472 1.56 1.56 0 0 0 2.12-.561l.884-1.476a1.542 1.542 0 0 0-.567-2.096 3.516 3.516 0 0 1-1.657-2.157c-.24-.9-.109-1.883.362-2.692a3.519 3.519 0 0 1 1.294-1.292 1.555 1.555 0 0 0 .556-2.104.756.756 0 0 1-.046-.092l-.781-1.355a1.553 1.553 0 0 0-2.115-.572 3.488 3.488 0 0 1-2.675.37 3.506 3.506 0 0 1-2.163-1.637 3.406 3.406 0 0 1-.478-1.714 1.59 1.59 0 0 0-.439-1.166 1.557 1.557 0 0 0-1.113-.468zm-.83 7.3a4.52 4.52 0 0 1 4.515 4.515 4.519 4.519 0 0 1-4.515 4.514 4.519 4.519 0 0 1-4.514-4.514 4.52 4.52 0 0 1 4.514-4.516zm0 2a2.519 2.519 0 0 0-2.514 2.515 2.516 2.516 0 0 0 2.514 2.514 2.516 2.516 0 0 0 2.515-2.514 2.519 2.519 0 0 0-2.515-2.516z" fill="#30CBFF"/></svg>