<svg width="33" height="32" viewBox="0 0 33 32" fill="none" xmlns="http://www.w3.org/2000/svg">
<path d="M18.1674 2.66669C18.4974 2.66669 18.7746 2.94669 18.7746 3.28002V7.57335C18.7746 10.0134 20.7548 12.0134 23.1839 12.0267C24.174 12.0267 24.966 12.04 25.5733 12.04C25.9825 12.04 26.6558 12.0267 27.2235 12.0267C27.5535 12.0267 27.8307 12.2934 27.8307 12.6267V23.3467C27.8307 26.6534 25.1641 29.3334 21.8901 29.3334H11.3951C7.94954 29.3334 5.16406 26.52 5.16406 23.0534V8.68002C5.16406 5.37335 7.81753 2.66669 11.1179 2.66669H18.1674ZM16.0155 11.6534C15.8835 11.6534 15.7515 11.68 15.6327 11.7334C15.5139 11.7867 15.4083 11.8534 15.3159 11.9467L11.5403 15.7867C11.1575 16.1734 11.1575 16.8 11.5403 17.1867C11.9231 17.5734 12.5436 17.5734 12.9264 17.1867L15.0254 15.0534V21.4934C15.0254 22.04 15.4611 22.48 16.0155 22.48C16.5568 22.48 16.9924 22.04 16.9924 21.4934V15.0534L19.0915 17.1867C19.4743 17.5734 20.0948 17.5734 20.4776 17.1867C20.8736 16.8 20.8736 16.1734 20.4908 15.7867L16.702 11.9467C16.6096 11.8534 16.504 11.7867 16.3852 11.7334C16.2664 11.68 16.1476 11.6534 16.0155 11.6534ZM20.6911 3.87469C20.6911 3.30002 21.3802 3.01469 21.7749 3.42935C23.2033 4.92802 25.697 7.54802 27.0911 9.01202C27.4752 9.41602 27.1927 10.0867 26.6369 10.088C25.5518 10.092 24.2739 10.088 23.3538 10.0787C21.8937 10.0787 20.6911 8.86402 20.6911 7.38935V3.87469Z" fill="#0085B1"/>
</svg>
