<svg width="32" height="32" viewBox="0 0 32 32" fill="none" xmlns="http://www.w3.org/2000/svg">
<path d="M16.0241 2.66669C23.5974 2.66669 29.3307 8.876 29.3307 15.98C29.3307 24.219 22.6107 29.3334 15.9974 29.3334C13.8107 29.3334 11.3841 28.7458 9.4374 27.5974C8.7574 27.1835 8.18406 26.8763 7.45073 27.1167L4.7574 27.9179C4.0774 28.1315 3.46406 27.5974 3.66406 26.8763L4.5574 23.8852C4.70406 23.4712 4.6774 23.0306 4.46406 22.6834C3.3174 20.5735 2.66406 18.2634 2.66406 16.02C2.66406 8.99618 8.2774 2.66669 16.0241 2.66669ZM22.1174 14.3242C21.1707 14.3242 20.4107 15.0853 20.4107 16.0334C20.4107 16.9681 21.1707 17.7426 22.1174 17.7426C23.0641 17.7426 23.8241 16.9681 23.8241 16.0334C23.8241 15.0853 23.0641 14.3242 22.1174 14.3242ZM15.9707 14.3242C15.0374 14.3108 14.2641 15.0853 14.2641 16.02C14.2641 16.9681 15.0241 17.7293 15.9707 17.7426C16.9174 17.7426 17.6774 16.9681 17.6774 16.0334C17.6774 15.0853 16.9174 14.3242 15.9707 14.3242ZM9.82406 14.3242C8.8774 14.3242 8.1174 15.0853 8.1174 16.0334C8.1174 16.9681 8.89073 17.7426 9.82406 17.7426C10.7707 17.7293 11.5307 16.9681 11.5307 16.0334C11.5307 15.0853 10.7707 14.3242 9.82406 14.3242Z" fill="#0085B1"/>
</svg>
