<svg width="32" height="32" viewBox="0 0 32 32" fill="none" xmlns="http://www.w3.org/2000/svg">
<path d="M15.9346 19.3862C20.5096 19.3862 24.4159 20.1115 24.4159 23.0138C24.4159 25.915 20.5346 26.6667 15.9346 26.6667C11.3597 26.6667 7.45339 25.9414 7.45339 23.0402C7.45339 20.1379 11.3347 19.3862 15.9346 19.3862ZM23.2494 17.6385C24.9984 17.6061 26.8787 17.8463 27.5736 18.0168C29.0456 18.3062 30.0138 18.897 30.415 19.7555C30.754 20.4604 30.754 21.2782 30.415 21.9818C29.8013 23.3135 27.8231 23.741 27.0542 23.8515C26.8954 23.8755 26.7677 23.7374 26.7844 23.5777C27.1772 19.8876 24.0528 18.1381 23.2446 17.7358C23.21 17.7178 23.2028 17.6901 23.2064 17.6733C23.2088 17.6613 23.2231 17.6421 23.2494 17.6385ZM8.75674 17.639C8.783 17.6426 8.79613 17.6618 8.79852 17.6726C8.8021 17.6906 8.79494 17.717 8.76151 17.7363C7.95207 18.1385 4.82771 19.8881 5.22049 23.577C5.23721 23.7379 5.11066 23.8748 4.95187 23.852C4.18302 23.7415 2.20478 23.314 1.59113 21.9823C1.25087 21.2774 1.25087 20.4609 1.59113 19.756C1.99227 18.8974 2.9593 18.3066 4.43134 18.016C5.12737 17.8467 7.00652 17.6066 8.75674 17.639ZM15.9346 5.33334C19.0495 5.33334 21.547 7.84303 21.547 10.9771C21.547 14.1101 19.0495 16.6221 15.9346 16.6221C12.8198 16.6221 10.3223 14.1101 10.3223 10.9771C10.3223 7.84303 12.8198 5.33334 15.9346 5.33334ZM23.5538 6.27454C26.5624 6.27454 28.925 9.12166 28.1204 12.293C27.5771 14.428 25.6108 15.8462 23.4201 15.7885C23.2004 15.7825 22.9843 15.7621 22.7754 15.7261C22.6238 15.6997 22.5474 15.528 22.6333 15.4007C23.469 14.1639 23.9454 12.6761 23.9454 11.079C23.9454 9.41225 23.4249 7.8584 22.5211 6.58435C22.4925 6.54472 22.471 6.48348 22.4996 6.43785C22.5235 6.40062 22.5677 6.38141 22.6095 6.3718C22.9139 6.30936 23.2267 6.27454 23.5538 6.27454ZM8.45051 6.27442C8.77763 6.27442 9.09042 6.30924 9.39605 6.37168C9.43665 6.38129 9.48201 6.4017 9.50589 6.43773C9.53335 6.48336 9.51305 6.5446 9.4844 6.58423C8.58064 7.85828 8.06011 9.41213 8.06011 11.0789C8.06011 12.6759 8.53647 14.1637 9.37218 15.4006C9.45814 15.5279 9.38173 15.6996 9.23011 15.726C9.01999 15.7632 8.80509 15.7824 8.58542 15.7884C6.39466 15.8461 4.42836 14.4279 3.88515 12.2929C3.07929 9.12154 5.44196 6.27442 8.45051 6.27442Z" fill="#0085B1"/>
</svg>
