<svg width="32" height="32" viewBox="0 0 32 32" fill="none" xmlns="http://www.w3.org/2000/svg">
<path d="M21.588 2.66669C25.7067 2.66669 28 5.04002 28 9.10669V22.88C28 27.0134 25.7067 29.3334 21.588 29.3334H10.4133C6.36 29.3334 4 27.0134 4 22.88V9.10669C4 5.04002 6.36 2.66669 10.4133 2.66669H21.588ZM10.7733 20.9867C10.3733 20.9467 9.98667 21.1334 9.77333 21.48C9.56 21.8134 9.56 22.2534 9.77333 22.6C9.98667 22.9334 10.3733 23.1334 10.7733 23.08H21.2267C21.7587 23.0267 22.16 22.572 22.16 22.04C22.16 21.4934 21.7587 21.04 21.2267 20.9867H10.7733ZM21.2267 14.9054H10.7733C10.1987 14.9054 9.73333 15.3734 9.73333 15.9467C9.73333 16.52 10.1987 16.9867 10.7733 16.9867H21.2267C21.8 16.9867 22.2667 16.52 22.2667 15.9467C22.2667 15.3734 21.8 14.9054 21.2267 14.9054ZM14.7587 8.86669H10.7733V8.88002C10.1987 8.88002 9.73333 9.34669 9.73333 9.92002C9.73333 10.4934 10.1987 10.96 10.7733 10.96H14.7587C15.3333 10.96 15.8 10.4934 15.8 9.90535C15.8 9.33335 15.3333 8.86669 14.7587 8.86669Z" fill="#0085B1"/>
</svg>
