<svg width="80" height="80" viewBox="0 0 80 80" fill="none" xmlns="http://www.w3.org/2000/svg">
<path d="M41.8999 6.99854L64.0247 14.4217C66.5013 15.2487 68.1758 17.5237 68.1892 20.0733L68.3302 42.2088C68.3738 48.9194 65.9274 55.4273 61.4474 60.5265C59.387 62.8669 56.746 64.8771 53.3734 66.6749L41.4805 73.0325C41.108 73.2286 40.6986 73.3299 40.2858 73.3332C39.873 73.3364 39.4603 73.2384 39.0911 73.0455L27.0875 66.835C23.678 65.0667 21.0135 63.0859 18.9329 60.7782C14.3791 55.7313 11.8488 49.2528 11.8052 42.5324L11.6641 20.4132C11.6508 17.8604 13.2951 15.569 15.7583 14.7094L37.7991 7.02142C39.1079 6.55727 40.5677 6.54746 41.8999 6.99854ZM52.4801 30.7288C51.4901 29.7777 49.8961 29.7842 48.9196 30.7485L37.6911 41.8162L33.0937 37.397C32.1037 36.4458 30.513 36.4556 29.5332 37.4198C28.5566 38.3841 28.5667 39.9334 29.5566 40.8846L35.9427 47.0298C36.4394 47.507 37.0837 47.7423 37.728 47.7359C38.3723 47.7325 39.0133 47.4906 39.5032 47.0069L52.5002 34.1936C53.4767 33.2294 53.4667 31.68 52.4801 30.7288Z" fill="#30CBFF"/>
</svg>
