<svg width="80" height="80" viewBox="0 0 80 80" fill="none" xmlns="http://www.w3.org/2000/svg">
<path d="M57.664 42.7646C61.7055 42.7646 65.3647 42.9942 67.6156 43.4218C67.6507 43.4218 69.7105 43.8455 70.3971 44.1186C71.388 44.5462 72.2267 45.3183 72.7612 46.2843C73.1435 47.0564 73.3307 47.872 73.3307 48.7232C73.2956 49.6101 72.7222 51.2769 72.453 51.9341C70.7794 56.2655 65.2867 64.5442 61.9356 67.7195C61.4012 68.2579 60.7536 68.84 60.6015 68.9944C59.7588 69.6516 58.7329 70 57.6288 70C56.6341 70 55.6432 69.6912 54.8435 69.0696C54.428 68.7726 53.8216 68.1817 53.5444 67.9048L53.3962 67.7551C49.9242 64.5086 44.7045 56.4199 43.0271 52.3182C42.9913 52.3182 42.1557 50.2722 41.9867 49.0376L41.9582 48.7232V48.5688C41.9582 46.7872 42.9491 45.1243 44.5524 44.2731C45.4301 43.8098 47.9815 43.3822 48.0205 43.3426C50.3065 42.9942 53.8136 42.7646 57.664 42.7646ZM22.3492 42.9684C23.9467 42.9684 25.2616 44.1871 25.4413 45.7592L25.4622 46.1278L26.3166 61.3902C26.3166 63.6153 24.5416 65.4167 22.3492 65.4167C20.2938 65.4167 18.6018 63.8334 18.3984 61.8021L18.3779 61.3902L19.2361 46.1278C19.2361 44.3818 20.6288 42.9684 22.3492 42.9684ZM22.3698 10C23.3568 10 24.3477 10.3088 25.1513 10.9264C25.4975 11.1764 25.9763 11.6289 26.2867 11.9331L26.5986 12.2448C30.0667 15.4953 35.2902 23.5798 36.9677 27.6815C36.9999 27.6815 37.8385 29.7307 38.0081 30.9658L38.0366 31.2803V31.4347C38.0366 33.2123 37.0418 34.8752 35.4424 35.7264C34.5646 36.1936 32.0133 36.6172 31.9743 36.6568C29.6883 37.0052 26.1812 37.2348 22.3308 37.2348C18.2893 37.2348 14.6301 37.0052 12.3792 36.5776C12.3401 36.5776 10.2843 36.154 9.59768 35.8808C8.6068 35.4572 7.76807 34.6812 7.23362 33.7152C6.85131 32.9431 6.66406 32.1276 6.66406 31.2803C6.69917 30.3895 7.27263 28.7267 7.53791 28.0694C9.21537 23.7342 14.7042 15.4557 18.0591 12.2844C18.5936 11.742 19.2412 11.16 19.3933 11.0056C20.232 10.3484 21.2619 10 22.3698 10ZM57.6464 14.5833C59.7018 14.5833 61.3903 16.1666 61.5933 18.1979L61.6138 18.6098L60.7595 33.8726C60.7595 35.6186 59.3668 37.0321 57.6464 37.0321C56.0489 37.0321 54.734 35.8133 54.5543 34.2413L54.5333 33.8726L53.6751 18.6098C53.6751 16.3848 55.454 14.5833 57.6464 14.5833Z" fill="#30CBFF"/>
</svg>
