<svg width="49" height="48" viewBox="0 0 49 48" fill="none" xmlns="http://www.w3.org/2000/svg">
<path d="M22.9602 14.581V6.56301C22.9602 5.71046 23.6402 5 24.5002 5C25.2702 5 25.9226 5.59698 26.0259 6.35316L26.0402 6.56301V14.581L35.6 14.5817C40.36 14.5817 44.2707 18.4796 44.4903 23.3408L44.5 23.7722V33.8508C44.5 38.7461 40.7253 42.7644 36.0361 42.99L35.62 43H13.38C8.62 43 4.72818 39.1216 4.50968 34.2425L4.5 33.8095V23.7515C4.5 18.8562 8.25582 14.8184 12.944 14.5917L13.36 14.5817L22.9602 14.581L22.96 27.3864L19.76 24.082C19.16 23.4624 18.18 23.4624 17.58 24.082C17.28 24.3918 17.14 24.8048 17.14 25.2179C17.14 25.5318 17.2296 25.8589 17.419 26.1359L17.58 26.3331L23.4 32.3638C23.68 32.6736 24.08 32.8388 24.5 32.8388C24.8333 32.8388 25.1667 32.724 25.4306 32.5065L25.58 32.3638L31.4 26.3331C32 25.7135 32 24.7016 31.4 24.082C30.8545 23.5187 29.995 23.4675 29.3925 23.9284L29.22 24.082L26.04 27.3864L26.0402 14.581H22.9602Z" fill="#30CBFF"/>
</svg>
