<svg width="32" height="32" viewBox="0 0 32 32" fill="none" xmlns="http://www.w3.org/2000/svg">
<path fill-rule="evenodd" clip-rule="evenodd" d="M32 9.456C32 3.808 28.352 0 22.928 0H9.056C3.6336 0 0 3.808 0 9.456V22.528C0 28.192 3.6336 32 9.056 32H22.928C28.352 32 32 28.192 32 22.528V9.456ZM14.8 9.472C14.8 8.8 15.328 8.272 16 8.272C16.656 8.272 17.2 8.8 17.2 9.472V19.632L21.136 15.664C21.616 15.2 22.368 15.2 22.848 15.664C23.312 16.128 23.312 16.896 22.848 17.36L16.848 23.392C16.4 23.84 15.6 23.84 15.152 23.392L9.152 17.36C8.688 16.896 8.688 16.128 9.152 15.664C9.392 15.44 9.6976 15.312 10 15.312C10.304 15.312 10.624 15.44 10.848 15.664L14.8 19.632V9.472ZM22.6664 26.6471C22.6664 25.9844 22.1291 25.4471 21.4664 25.4471H10.2664C9.60363 25.4471 9.06637 25.9844 9.06637 26.6471C9.06637 27.3099 9.60363 27.8471 10.2664 27.8471H21.4664C22.1291 27.8471 22.6664 27.3099 22.6664 26.6471Z" fill="white"/>
</svg>
