<svg width="32" height="32" viewBox="0 0 32 32" fill="none" xmlns="http://www.w3.org/2000/svg">
<path d="M8.6821 27.0526C10.0091 27.0526 11.0962 28.1629 11.0962 29.5345C11.0962 30.8897 10.0091 32 8.6821 32C7.33915 32 6.25199 30.8897 6.25199 29.5345C6.25199 28.1629 7.33915 27.0526 8.6821 27.0526ZM26.6681 27.0526C27.9951 27.0526 29.0822 28.1629 29.0822 29.5345C29.0822 30.8897 27.9951 32 26.6681 32C25.3251 32 24.238 30.8897 24.238 29.5345C24.238 28.1629 25.3251 27.0526 26.6681 27.0526ZM1.40809 0.0139813L5.22112 0.600162C5.76469 0.699763 6.16438 1.15532 6.21235 1.71048L6.51611 5.36798C6.56407 5.89211 6.97975 6.28399 7.49135 6.28399H29.0825C30.0578 6.28399 30.6973 6.62688 31.3368 7.37797C31.9763 8.12907 32.0882 9.20673 31.9443 10.1848L30.4255 20.896C30.1377 22.955 28.411 24.4719 26.3806 24.4719H8.93822C6.81188 24.4719 5.05325 22.8081 4.87739 20.6528L3.40653 2.85345L0.992414 2.42891C0.352912 2.31462 -0.0947387 1.67782 0.017174 1.02469C0.129087 0.356872 0.752601 -0.0856204 1.40809 0.0139813ZM23.8226 12.3238H19.3941C18.7226 12.3238 18.195 12.8626 18.195 13.5484C18.195 14.2178 18.7226 14.773 19.3941 14.773H23.8226C24.4941 14.773 25.0217 14.2178 25.0217 13.5484C25.0217 12.8626 24.4941 12.3238 23.8226 12.3238Z" fill="white"/>
</svg>
