<svg width="32" height="32" viewBox="0 0 32 32" fill="none" xmlns="http://www.w3.org/2000/svg">
<path fill-rule="evenodd" clip-rule="evenodd" d="M19.4031 1.40587C17.5144 -0.466133 14.4573 -0.466133 12.5846 1.42027L11.4322 2.57227C10.984 3.02027 10.3758 3.27787 9.73556 3.27787H8.08696C5.43 3.27787 3.26921 5.43627 3.26921 8.09227V9.72427C3.26921 10.3803 3.01312 10.9883 2.56496 11.4363L1.39653 12.6059C-0.476147 14.4923 -0.460141 17.5499 1.41254 19.4203L2.56496 20.5563C3.01312 21.0203 3.26921 21.6283 3.26921 22.2699V23.9163C3.26921 26.5723 5.43 28.7339 8.08696 28.7339H9.73556C10.3758 28.7339 10.984 28.9883 11.4322 29.4363L12.6006 30.6059C13.5449 31.5339 14.7774 31.9963 16.0098 31.9963C17.2423 31.9963 18.4747 31.5339 19.4191 30.5883L20.5715 29.4363C21.0197 28.9883 21.6279 28.7339 22.2681 28.7339H23.9167C26.5737 28.7339 28.7345 26.5723 28.7345 23.9163V22.2699C28.7345 21.6283 28.9906 21.0203 29.4387 20.5723L30.6231 19.3883C31.5195 18.4779 32.0157 17.2603 31.9996 15.9803C31.9996 14.7003 31.5035 13.4843 30.5911 12.5883L29.4387 11.4363C28.9906 10.9883 28.7345 10.3803 28.7345 9.74187V8.09227C28.7345 5.43627 26.5737 3.27787 23.9167 3.27787H22.2681C21.6279 3.27787 21.0197 3.02027 20.5715 2.57227L19.4031 1.40587ZM22.5985 12.6693C22.9661 12.1179 22.8171 11.3729 22.2657 11.0052C21.7142 10.6376 20.9692 10.7866 20.6016 11.3381L15.1717 19.4828L11.3804 14.1117C10.9982 13.5702 10.2494 13.4411 9.70799 13.8233C9.16655 14.2055 9.03745 14.9543 9.41965 15.4957L13.5472 21.3431C14.3571 22.4905 16.0663 22.4677 16.8453 21.2992L22.5985 12.6693Z" fill="white"/>
</svg>
