<svg width="49" height="48" viewBox="0 0 49 48" fill="none" xmlns="http://www.w3.org/2000/svg">
<path d="M33.17 3.9984C39.946 3.9984 44.5 8.7544 44.5 15.8324V32.1664C44.5 39.2444 39.946 43.9984 33.168 43.9984H15.832C9.054 43.9984 4.5 39.2444 4.5 32.1664V15.8324C4.5 8.7544 9.054 3.9984 15.832 3.9984H33.17ZM18.182 18.7964C15.314 18.7964 12.98 21.1304 12.98 23.9984C12.98 26.8684 15.314 29.2024 18.182 29.2024C20.526 29.2024 22.49 27.6344 23.138 25.4984H27.362V27.7024C27.362 28.5304 28.034 29.2024 28.862 29.2024C29.69 29.2024 30.362 28.5304 30.362 27.7024V25.4984H33.022V27.7024C33.022 28.5304 33.694 29.2024 34.522 29.2024C35.35 29.2024 36.022 28.5304 36.022 27.7024V23.9984C36.022 23.1704 35.35 22.4984 34.522 22.4984H23.138C22.49 20.3644 20.526 18.7964 18.182 18.7964ZM18.1822 21.7962C19.3962 21.7962 20.3862 22.7842 20.3862 24.0002C20.3862 25.2142 19.3962 26.2022 18.1822 26.2022C16.9682 26.2022 15.9782 25.2142 15.9782 24.0002C15.9782 22.7842 16.9682 21.7962 18.1822 21.7962Z" fill="#30CBFF"/>
</svg>
