<svg width="48" height="48" viewBox="0 0 48 48" fill="none" xmlns="http://www.w3.org/2000/svg">
<g clip-path="url(#clip0_1236_6281)">
<path fill-rule="evenodd" clip-rule="evenodd" d="M24.3206 32.9885H40.6162L44.8496 27.1253V18.3702C44.8496 16.8566 43.6085 15.6188 42.0911 15.6188H5.91478C4.39733 15.6188 3.15625 16.8566 3.15625 18.3702V27.1252L7.38959 32.9884H24.3206V32.9885Z" fill="#FF646F"/>
<path fill-rule="evenodd" clip-rule="evenodd" d="M40.6171 47.2355V31.1199H7.39062V47.2355H40.6171Z" fill="#FF646F"/>
<path fill-rule="evenodd" clip-rule="evenodd" d="M36.2578 34.7008H40.6134V47.2356H36.2578V34.7008Z" fill="#FB4455"/>
<path fill-rule="evenodd" clip-rule="evenodd" d="M7.38676 47.2356V28.9146C7.38676 27.9313 6.57893 27.1254 5.59294 27.1254H2.49694C1.51095 27.1254 0.703125 27.9313 0.703125 28.9146V47.2357L7.38676 47.2356ZM47.2969 47.2356V28.9145C47.2969 27.9312 46.4891 27.1254 45.5031 27.1254H42.4071C41.4211 27.1254 40.6133 27.9312 40.6133 28.9145V47.2357L47.2969 47.2356Z" fill="#AB695D"/>
<path fill-rule="evenodd" clip-rule="evenodd" d="M17.9603 5.35583L9.18805 9.22048C8.54234 9.41133 8.07985 9.88843 7.90979 10.5378C7.737 11.1872 7.90714 11.8287 8.37485 12.3137C9.28641 13.2388 10.7799 14.4421 12.2255 15.6191C12.3684 15.7374 12.5119 15.8549 12.656 15.9716L15.3853 12.6768L13.7084 11.7438L17.9523 9.6127C17.9417 9.45373 17.9338 9.29459 17.9338 9.13561V5.81969C17.9338 5.66336 17.9444 5.5096 17.9603 5.35583Z" fill="#FED2A4"/>
<path fill-rule="evenodd" clip-rule="evenodd" d="M31.4686 13.3129C30.472 13.8669 29.7015 13.9464 28.4816 13.912H19.5152C18.2954 13.9465 17.5274 13.8669 16.5309 13.3129L15.3856 12.6768L12.6562 15.9715C13.7166 16.8409 14.7131 17.6785 15.3909 18.3677C16.4087 19.4014 17.4212 21.0633 17.4212 22.5132V26.4626L22.0771 31.5968L30.5785 26.3751V22.5132C30.5785 21.0634 31.5883 19.4014 32.6089 18.3677C33.2865 17.6786 34.283 16.8411 35.3435 15.9716L34.7561 13.6469L32.6142 12.6768L31.4686 13.3129Z" fill="#6FD7A3"/>
<path fill-rule="evenodd" clip-rule="evenodd" d="M38.8094 9.22042L30.0078 5.34253C30.0849 6.01048 30.061 6.56185 30.061 6.73416V9.13563C30.061 9.29461 30.0556 9.45375 30.0424 9.61008L34.2917 11.7439L32.6148 12.6769L35.3441 15.9716C35.4882 15.8549 35.6317 15.7374 35.7746 15.6191C37.2176 14.4422 38.7111 13.2389 39.6253 12.3138C40.093 11.8287 40.2604 11.1873 40.0903 10.5379C39.9177 9.88837 39.4552 9.41119 38.8094 9.22042Z" fill="#FED2A4"/>
<path fill-rule="evenodd" clip-rule="evenodd" d="M35.346 15.9716L34.7586 13.647C34.5673 13.8007 33.5787 14.6091 33.39 14.7629C32.3296 15.6323 31.3331 16.4699 30.6554 17.159C29.6375 18.1928 28.625 19.8547 28.625 21.3046V27.8675L30.5809 26.3752V22.5133C30.5809 21.0634 31.5908 19.4015 32.6113 18.3678C33.2891 17.6786 34.2856 16.841 35.346 15.9716Z" fill="#3EC3A4"/>
<path fill-rule="evenodd" clip-rule="evenodd" d="M37.6704 11.1025C36.7855 12.001 35.3585 13.1567 33.9579 14.2964L35.3452 15.9716C35.4893 15.8549 35.6328 15.7374 35.7757 15.6191C37.2187 14.4423 38.7122 13.239 39.6264 12.3138C40.0941 11.8288 40.2616 11.1873 40.0914 10.5379C39.9187 9.88851 39.4562 9.41141 38.8105 9.22055L37.9283 8.8309C38.0187 8.98201 38.0877 9.14901 38.1356 9.32919C38.3056 9.97852 38.1382 10.62 37.6704 11.1025ZM13.7106 11.7438L17.9545 9.6127C17.9439 9.45372 17.936 9.29458 17.936 9.13561V5.81968C17.936 5.66328 17.9466 5.5096 17.9625 5.35583L16.275 6.10071V8.8309L13.0222 10.4742C12.0708 10.954 11.4251 11.8128 12.2861 12.4993L14.242 14.0579L15.3874 12.6769L13.7106 11.7438Z" fill="#FFBD86"/>
<path fill-rule="evenodd" clip-rule="evenodd" d="M21.9463 14.8238C22.2545 13.912 21.5902 13.5859 20.2906 13.912H19.5172C18.2974 13.9465 17.5294 13.8669 16.5329 13.3129L15.3876 12.6768L14.2422 14.0577L16.3628 15.1842C18.1965 16.157 20.4155 15.7143 21.9463 14.8238Z" fill="#3EC3A4"/>
<path fill-rule="evenodd" clip-rule="evenodd" d="M27.2042 6.14034C24.9454 4.74871 22.4872 5.87 19.4444 7.75727L17.9375 8.693V9.13565C17.9375 9.29463 17.9454 9.45377 17.956 9.61275C18.0942 11.3542 18.9819 12.8942 20.292 13.912C21.3205 14.7072 22.6067 15.1817 24.0018 15.1817C25.3944 15.1817 26.6833 14.7072 27.709 13.912C29.0218 12.8941 29.9094 11.3541 30.045 9.61002C30.0583 9.45361 30.0635 9.29463 30.0635 9.13557C28.8493 7.56369 28.6844 7.04949 27.2042 6.14034Z" fill="#FED2A4"/>
<path fill-rule="evenodd" clip-rule="evenodd" d="M30.0104 5.34249C29.8562 4.01984 29.2982 2.24393 27.3502 2.07427C26.6726 1.19426 25.543 0.783404 24.2967 0.762207H24.0788C21.4001 0.809901 18.2828 2.59906 17.964 5.35574C17.9481 5.5095 17.9375 5.66326 17.9375 5.81959V8.69286H19.4443C23.0266 8.69286 24.9454 5.68446 27.2042 7.07593C28.6844 7.98508 27.9935 7.60072 30.0637 9.13543V6.73404C30.0635 6.56182 30.0874 6.01053 30.0104 5.34249Z" fill="#554E56"/>
<path fill-rule="evenodd" clip-rule="evenodd" d="M28.5391 5.84878V7.97718C28.7996 8.18128 29.1823 8.48607 30.0566 9.13548V6.73409C30.0566 6.56178 30.0805 6.01041 30.0034 5.34246C29.8546 4.08612 29.3444 2.4215 27.625 2.11133C28.1724 2.78193 28.3956 3.69373 28.486 4.45715C28.5631 5.12527 28.5391 5.67648 28.5391 5.84878Z" fill="#433F43"/>
<path fill-rule="evenodd" clip-rule="evenodd" d="M28.5233 8.72474C28.3851 10.4689 27.5002 12.0089 26.1873 13.0267C25.1615 13.8219 23.8726 14.2964 22.4801 14.2964C21.6829 14.2964 20.9229 14.1426 20.2266 13.8617C20.2451 13.8776 20.2664 13.8935 20.2877 13.912C21.3161 14.7073 22.6023 15.1817 23.9976 15.1817C25.3902 15.1817 26.679 14.7073 27.7048 13.912C29.0176 12.8942 29.9052 11.3542 30.0407 9.61004C30.054 9.45363 30.0593 9.29465 30.0593 9.13559C29.185 8.48619 28.8023 8.1814 28.5418 7.97729V8.25029C28.5418 8.40927 28.5366 8.56833 28.5233 8.72474Z" fill="#FFBD86"/>
<path fill-rule="evenodd" clip-rule="evenodd" d="M7.38326 31.1198V28.9145C7.38326 27.9311 6.57543 27.1253 5.58944 27.1253H2.82031C3.80887 27.1253 4.61413 27.9311 4.61413 28.9145V47.2356H7.38326V31.1198ZM47.2934 47.2355V28.9144C47.2934 27.9311 46.4856 27.1252 45.4996 27.1252H43.06C44.0459 27.1252 44.8538 27.9311 44.8538 28.9144V47.2355H47.2934Z" fill="#935B50"/>
<path fill-rule="evenodd" clip-rule="evenodd" d="M23.5295 34.7008H40.6172V31.1199H7.39062V34.7008H23.5295Z" fill="#FB4455"/>
<path fill-rule="evenodd" clip-rule="evenodd" d="M22.0822 28.7927C21.6569 26.5317 19.1456 25.6888 17.4262 26.4628C16.4271 26.9108 15.6962 27.9021 15.7892 29.4739L15.853 30.5606L19.3237 31.0695L22.0822 28.7927ZM22.1433 34.7009L19.1696 35.3583L19.1935 35.4404C19.7436 37.3621 18.6752 39.3924 16.4085 39.9332L16.6077 43.3312H22.1433V34.7009Z" fill="#935B50"/>
<path fill-rule="evenodd" clip-rule="evenodd" d="M22.1366 43.3313H16.516C14.5149 43.3313 12.8487 44.9111 12.9497 47.2357H22.1366V43.3313Z" fill="#554E56"/>
<path fill-rule="evenodd" clip-rule="evenodd" d="M22.0774 28.7927C21.6522 26.5317 19.1408 25.6888 17.4215 26.4628C16.9644 26.6669 16.5657 26.9823 16.2734 27.417C17.6792 27.2606 19.2392 27.9603 19.8079 29.4368L20.0311 30.0491L22.0774 28.7927ZM22.1385 34.7009L20.3393 33.9535L19.1647 35.3583C19.1753 35.3875 16.9457 37.2932 16.3238 38.608L16.4938 41.4574C18.4205 40.7709 19.2842 39.9068 19.7201 39.1249C20.1904 38.6319 20.031 40.0607 20.031 40.4795V43.3315H22.1384L22.1385 34.7009Z" fill="#935B50"/>
<path fill-rule="evenodd" clip-rule="evenodd" d="M20.0312 43.3313H22.1387V47.2357H20.0312V43.3313Z" fill="#433F43"/>
<path fill-rule="evenodd" clip-rule="evenodd" d="M30.5741 26.3752L22.0728 28.7926L17.6454 30.049L17.4062 33.4444L19.1602 35.3581L22.134 34.7008L32.748 32.3497C33.6994 32.1377 34.3505 31.6871 34.7491 31.1198C36.2134 29.0258 34.2177 25.3414 31.0074 26.2533L30.5741 26.3752Z" fill="#AB695D"/>
<path fill-rule="evenodd" clip-rule="evenodd" d="M17.4062 33.4444L19.1602 35.3581L22.134 34.7008L32.748 32.3497C33.6994 32.1377 34.3505 31.6871 34.7491 31.1198C35.5782 29.9296 35.2965 28.2306 34.3079 27.1492C34.3584 27.8038 34.2123 28.4586 33.8296 29.0073C33.4336 29.5772 32.7799 30.0277 31.8285 30.2372L17.4062 33.4444Z" fill="#935B50"/>
<path fill-rule="evenodd" clip-rule="evenodd" d="M19.1633 35.3583L17.6485 30.0491L13.8828 31.1199L16.4022 39.9332C18.6691 39.3924 19.7373 37.362 19.1872 35.4404L19.1633 35.3583Z" fill="#554E56"/>
<path fill-rule="evenodd" clip-rule="evenodd" d="M16.4021 39.9331C18.669 39.3923 19.7373 37.362 19.1871 35.4403L19.1632 35.3582L18.5679 33.2722C19.1127 35.1913 18.0444 37.2163 15.7802 37.7544L13.8828 31.1199L16.4021 39.9331Z" fill="#433F43"/>
<path fill-rule="evenodd" clip-rule="evenodd" d="M44.8453 27.1254V18.3703C44.8453 16.8568 43.6042 15.6189 42.0868 15.6189H38.9297C40.4471 15.6189 41.6882 16.8568 41.6882 18.3703V27.2763C41.9141 27.1761 42.1586 27.1246 42.4057 27.1252H44.8454L44.8453 27.1254Z" fill="#FB4455"/>
<path fill-rule="evenodd" clip-rule="evenodd" d="M40.6135 34.7008V31.1199H38.6044C38.5034 31.9151 38.2058 32.6519 37.7566 33.2881C37.3634 33.8501 36.8531 34.3297 36.2578 34.7009H40.6134L40.6135 34.7008Z" fill="#F7314A"/>
<path d="M7.38675 47.9388H0.703122C0.516642 47.9388 0.3378 47.8647 0.20594 47.7329C0.0740787 47.601 0 47.4222 0 47.2357L0 39.4428C0 39.0545 0.314827 38.7397 0.703122 38.7397C1.09142 38.7397 1.40624 39.0545 1.40624 39.4428V46.5326H6.68363V28.9145C6.68363 28.3157 6.19441 27.8285 5.59294 27.8285H2.49694C1.89555 27.8285 1.40624 28.3156 1.40624 28.9145V36.5111C1.40624 36.8995 1.09142 37.2142 0.703122 37.2142C0.314827 37.2142 0 36.8995 0 36.5111V28.9145C0 27.5403 1.12008 26.4223 2.49694 26.4223H5.59294C6.96971 26.4223 8.08987 27.5403 8.08987 28.9145V47.2357C8.08987 47.4222 8.01579 47.601 7.88393 47.7329C7.75207 47.8647 7.57323 47.9388 7.38675 47.9388ZM47.2969 47.9388H40.6132C40.5209 47.9388 40.4295 47.9207 40.3442 47.8853C40.2589 47.85 40.1813 47.7982 40.116 47.7329C40.0507 47.6676 39.999 47.5901 39.9636 47.5048C39.9283 47.4195 39.9101 47.328 39.9101 47.2357V28.9145C39.9101 27.5403 41.0303 26.4223 42.4071 26.4223H45.5031C46.8799 26.4223 48.0001 27.5403 48.0001 28.9145V36.5111C48.0001 36.8995 47.6853 37.2142 47.297 37.2142C46.9086 37.2142 46.5938 36.8995 46.5938 36.5111V28.9145C46.5938 28.3157 46.1046 27.8285 45.5031 27.8285H42.4071C41.8057 27.8285 41.3164 28.3156 41.3164 28.9145V46.5326H46.5938V39.4428C46.5938 39.0545 46.9085 38.7397 47.2969 38.7397C47.6853 38.7397 48 39.0545 48 39.4428V47.2357C48 47.328 47.9818 47.4195 47.9465 47.5048C47.9112 47.5901 47.8594 47.6676 47.7941 47.7329C47.7288 47.7982 47.6513 47.85 47.566 47.8853C47.4807 47.9207 47.3892 47.9388 47.2969 47.9388ZM35.3438 16.6747C35.2403 16.6748 35.1381 16.6521 35.0444 16.6081C34.9507 16.5641 34.8679 16.4999 34.802 16.4201L32.0727 13.1254C31.9573 12.9814 31.9031 12.7979 31.9218 12.6143C31.9405 12.4307 32.0306 12.2618 32.1727 12.1441C32.3148 12.0263 32.4975 11.9692 32.6813 11.9849C32.8652 12.0007 33.0355 12.0881 33.1555 12.2282L35.8848 15.523C35.9699 15.6257 36.024 15.7506 36.0408 15.8829C36.0576 16.0153 36.0364 16.1497 35.9797 16.2705C35.923 16.3912 35.8331 16.4933 35.7205 16.5649C35.6079 16.6365 35.4772 16.6746 35.3438 16.6747ZM30.0604 9.83865C29.9096 9.83869 29.7627 9.79021 29.6415 9.70039C28.84 9.10622 28.4452 8.79436 28.1838 8.58801C27.7831 8.2715 27.7108 8.21449 26.8329 7.67525C25.9701 7.14379 25.198 7.47403 23.795 8.15411C22.6537 8.70749 21.2334 9.39608 19.4411 9.39608H17.9341C17.7477 9.39608 17.5688 9.322 17.437 9.19014C17.3051 9.05828 17.231 8.87943 17.231 8.69296V5.81961C17.231 3.50413 18.9808 1.41115 21.6888 0.48738C24.0773 -0.327429 26.4464 0.0484205 27.7067 1.41195C28.9965 1.62938 30.8274 2.64139 30.7644 6.64373C30.7638 6.68082 30.7633 6.71118 30.7633 6.73406V9.13553C30.7633 9.22785 30.7452 9.31929 30.7099 9.4046C30.6746 9.48991 30.6228 9.56742 30.5575 9.63272C30.4922 9.69802 30.4147 9.74981 30.3294 9.78514C30.2442 9.82048 30.1527 9.83866 30.0604 9.83865ZM18.6373 7.98983H19.4411C20.9104 7.98983 22.065 7.43011 23.1816 6.8887C24.5726 6.21432 26.0109 5.51715 27.5697 6.47736C28.4884 7.04158 28.6027 7.12677 29.0555 7.48431C29.139 7.55015 29.2364 7.62715 29.3572 7.72126V6.73414C29.3572 6.70564 29.3578 6.66782 29.3585 6.62165C29.3968 4.19312 28.6993 2.89881 27.2856 2.77475C27.1888 2.76628 27.0949 2.73784 27.0097 2.69124C26.9245 2.64464 26.8499 2.58089 26.7906 2.50401C25.832 1.26228 23.7657 1.26485 22.143 1.81839C20.5258 2.37 18.6374 3.74894 18.6374 5.81969V7.98983H18.6373Z" fill="black"/>
<path d="M23.9983 15.8848C20.2666 15.8848 17.2307 12.8571 17.2307 9.13564V8.69299C17.2307 8.50651 17.3048 8.32767 17.4367 8.19581C17.5685 8.06395 17.7474 7.98987 17.9338 7.98987C18.1203 7.98987 18.2992 8.06395 18.431 8.19581C18.5629 8.32767 18.637 8.50651 18.637 8.69299V9.13564C18.637 12.0817 21.042 14.4785 23.9983 14.4785C26.953 14.4785 29.3569 12.0817 29.3569 9.13564C29.3569 8.94916 29.431 8.77032 29.5628 8.63846C29.6947 8.5066 29.8735 8.43252 30.06 8.43252C30.2465 8.43252 30.4253 8.5066 30.5572 8.63846C30.6891 8.77032 30.7631 8.94916 30.7631 9.13564C30.7631 12.8571 27.7284 15.8848 23.9983 15.8848ZM12.6557 16.6747C12.5223 16.6746 12.3917 16.6365 12.2791 16.5649C12.1665 16.4934 12.0766 16.3912 12.0199 16.2705C11.9631 16.1497 11.9419 16.0153 11.9587 15.883C11.9755 15.7506 12.0296 15.6258 12.1146 15.523L14.8439 12.2283C14.9635 12.0866 15.1342 11.9979 15.3188 11.9814C15.5035 11.9649 15.6872 12.0221 15.8299 12.1403C15.9727 12.2586 16.063 12.4284 16.0811 12.6129C16.0993 12.7974 16.0439 12.9816 15.9269 13.1255L13.1976 16.4202C13.1316 16.4999 13.0488 16.5641 12.9552 16.6081C12.8615 16.6521 12.7592 16.6748 12.6557 16.6747Z" fill="black"/>
<path d="M17.4214 27.1658C17.3291 27.1658 17.2376 27.1476 17.1523 27.1123C17.067 27.0769 16.9895 27.0251 16.9242 26.9598C16.8589 26.8946 16.8071 26.817 16.7718 26.7317C16.7365 26.6464 16.7183 26.555 16.7183 26.4627V22.5132C16.7183 21.273 15.8001 19.7852 14.89 18.861C14.0763 18.0366 12.7383 16.9458 11.4444 15.8911C10.1167 14.8088 8.74378 13.6895 7.87446 12.8073C7.2273 12.1361 6.99461 11.2451 7.23067 10.3572C7.45926 9.48416 8.08233 8.83074 8.94315 8.56024L17.68 4.71246C17.8502 4.64014 18.042 4.63776 18.214 4.70585C18.3859 4.77394 18.5241 4.907 18.5986 5.07623C18.6731 5.24547 18.678 5.43724 18.6122 5.61004C18.5463 5.78284 18.4151 5.92274 18.2468 5.99947L9.4718 9.86403C9.44442 9.87607 9.41639 9.88635 9.38773 9.89486C8.98065 10.0151 8.69753 10.3068 8.59034 10.716C8.48155 11.1253 8.58512 11.5185 8.8814 11.8258C9.69164 12.6479 11.0344 13.7426 12.3329 14.8012C13.6558 15.8796 15.0237 16.9948 15.8914 17.8739C16.9218 18.9205 18.1245 20.7629 18.1245 22.5134V26.4628C18.1245 26.5551 18.1063 26.6466 18.071 26.7319C18.0356 26.8172 17.9838 26.8946 17.9185 26.9599C17.8533 27.0252 17.7757 27.077 17.6904 27.1123C17.6051 27.1476 17.5137 27.1658 17.4214 27.1658ZM30.5785 27.0783C30.4862 27.0783 30.3948 27.0601 30.3094 27.0248C30.2241 26.9894 30.1466 26.9376 30.0813 26.8723C30.016 26.8071 29.9642 26.7295 29.9289 26.6442C29.8936 26.5589 29.8754 26.4675 29.8754 26.3751V22.5132C29.8754 20.7585 31.0784 18.9173 32.1085 17.8737C32.9762 16.9933 34.3469 15.8762 35.6724 14.7958C36.9689 13.739 38.3097 12.6463 39.1239 11.8201C39.4178 11.5152 39.5184 11.1315 39.4096 10.7158C39.3011 10.3076 39.0167 10.015 38.6096 9.89462C38.581 9.88618 38.5529 9.87591 38.5256 9.86387L34.5101 8.09591L29.7237 5.98582C29.553 5.91059 29.4193 5.77066 29.3518 5.59682C29.2844 5.42298 29.2887 5.22947 29.364 5.05884C29.5205 4.70347 29.9356 4.54248 30.2909 4.69905L35.077 6.80906L39.0541 8.56008C39.913 8.83002 40.5367 9.48248 40.7693 10.357C41.0028 11.2489 40.7698 12.139 40.1309 12.8017C39.2574 13.688 37.8865 14.8053 36.5607 15.8858C35.2643 16.9424 33.9238 18.035 33.1097 18.8611C32.1996 19.7831 31.2817 21.2697 31.2817 22.5132V26.3751C31.2817 26.4675 31.2635 26.5589 31.2282 26.6442C31.1928 26.7295 31.141 26.8071 31.0757 26.8723C31.0104 26.9376 30.9329 26.9894 30.8476 27.0248C30.7623 27.0601 30.6709 27.0783 30.5785 27.0783ZM28.9224 14.6219C28.7776 14.6219 28.6279 14.6194 28.4719 14.6151H27.7059C27.5194 14.6151 27.3406 14.541 27.2087 14.4092C27.0769 14.2773 27.0028 14.0985 27.0028 13.912C27.0028 13.7255 27.0769 13.5467 27.2087 13.4148C27.3406 13.2829 27.5194 13.2089 27.7059 13.2089H28.4819C28.4884 13.2089 28.4951 13.2089 28.5017 13.2091C29.6244 13.2409 30.2704 13.1747 31.1273 12.6984L32.7874 11.7754L29.7264 10.2384C29.6439 10.1969 29.5703 10.1396 29.5099 10.0698C29.4495 9.99992 29.4035 9.91885 29.3744 9.83119C29.3454 9.74354 29.3339 9.65102 29.3406 9.55892C29.3473 9.46682 29.3721 9.37695 29.4136 9.29443C29.4973 9.12782 29.6437 9.00128 29.8207 8.94262C29.9977 8.88396 30.1908 8.89798 30.3574 8.98161L34.6067 11.1154C34.721 11.1728 34.8174 11.2602 34.8857 11.3683C34.954 11.4764 34.9915 11.6011 34.9942 11.7289C34.9969 11.8568 34.9647 11.9829 34.901 12.0938C34.8374 12.2047 34.7447 12.2962 34.633 12.3583L31.8107 13.9275C30.8143 14.4812 30.01 14.6219 28.9224 14.6219ZM19.0765 14.6218C17.9895 14.6218 17.1859 14.4813 16.1895 13.9274L13.3672 12.3582C13.2555 12.296 13.1629 12.2046 13.0992 12.0937C13.0356 11.9828 13.0034 11.8567 13.0061 11.7289C13.0088 11.6011 13.0463 11.4764 13.1145 11.3683C13.1828 11.2602 13.2792 11.1727 13.3934 11.1153L17.6373 8.98418C17.8036 8.90317 17.9952 8.89098 18.1705 8.95025C18.3457 9.00953 18.4906 9.13548 18.5736 9.30082C18.6566 9.46616 18.6712 9.65756 18.614 9.83354C18.5569 10.0095 18.4327 10.1559 18.2684 10.2409L15.2127 11.7753L16.8728 12.6983C17.7293 13.1744 18.374 13.2403 19.4956 13.209C19.5022 13.2089 19.5088 13.2088 19.5154 13.2088H20.2888C20.4753 13.2088 20.6541 13.2829 20.786 13.4147C20.9178 13.5466 20.9919 13.7254 20.9919 13.9119C20.9919 14.0984 20.9178 14.2772 20.786 14.4091C20.6541 14.5409 20.4753 14.615 20.2888 14.615H19.5255C19.3701 14.6194 19.2208 14.6218 19.0765 14.6218Z" fill="black"/>
<path d="M37.3786 23.781C37.2864 23.7811 37.1951 23.7631 37.1099 23.7278C37.0247 23.6926 36.9472 23.6409 36.882 23.5757L35.0191 21.7176C34.887 21.5859 34.8127 21.4072 34.8125 21.2207C34.8123 21.0342 34.8861 20.8553 35.0178 20.7233C35.2919 20.4483 35.737 20.4476 36.0122 20.722L37.8752 22.5801C37.9737 22.6784 38.0408 22.8036 38.0681 22.9401C38.0954 23.0765 38.0815 23.218 38.0284 23.3466C37.9752 23.4751 37.8851 23.5851 37.7694 23.6624C37.6538 23.7397 37.5178 23.781 37.3786 23.781Z" fill="black"/>
<path d="M35.5211 23.781C35.3819 23.781 35.2459 23.7397 35.1302 23.6624C35.0145 23.5851 34.9244 23.4751 34.8712 23.3466C34.8181 23.218 34.8042 23.0765 34.8315 22.9401C34.8588 22.8036 34.9259 22.6783 35.0244 22.5801L36.8874 20.7219C36.9528 20.6567 37.0303 20.605 37.1157 20.5698C37.201 20.5346 37.2925 20.5165 37.3848 20.5166C37.4772 20.5167 37.5686 20.535 37.6539 20.5705C37.7391 20.6059 37.8166 20.6578 37.8818 20.7232C37.947 20.7885 37.9987 20.8661 38.0339 20.9515C38.0691 21.0368 38.0872 21.1283 38.0871 21.2206C38.087 21.313 38.0687 21.4044 38.0332 21.4896C37.9978 21.5749 37.9459 21.6523 37.8805 21.7176L36.0176 23.5757C35.9524 23.6409 35.875 23.6926 35.7898 23.7278C35.7046 23.763 35.6133 23.7811 35.5211 23.781ZM10.5938 23.8048C10.5012 23.8049 10.4096 23.7867 10.3242 23.7513C10.2387 23.7158 10.1612 23.6638 10.0959 23.5982C10.0307 23.5328 9.97904 23.4552 9.94381 23.3699C9.90858 23.2845 9.89051 23.1931 9.89063 23.1007C9.89074 23.0084 9.90905 22.917 9.9445 22.8317C9.97995 22.7465 10.0318 22.669 10.0972 22.6038L11.9602 20.7458C12.2352 20.4715 12.6804 20.4721 12.9545 20.7471C13.0197 20.8124 13.0714 20.89 13.1067 20.9753C13.1419 21.0607 13.16 21.1522 13.1598 21.2445C13.1597 21.3368 13.1414 21.4282 13.106 21.5135C13.0705 21.5988 13.0186 21.6762 12.9532 21.7414L11.0903 23.5994C11.0251 23.6646 10.9477 23.7163 10.8625 23.7516C10.7773 23.7868 10.686 23.8049 10.5938 23.8048Z" fill="black"/>
<path d="M12.4567 23.8049C12.3645 23.805 12.2732 23.7869 12.188 23.7517C12.1028 23.7165 12.0254 23.6648 11.9602 23.5996L10.0972 21.7415C10.0318 21.6763 9.97995 21.5989 9.9445 21.5136C9.90905 21.4283 9.89074 21.3369 9.89063 21.2446C9.89051 21.1523 9.90858 21.0608 9.94381 20.9755C9.97903 20.8901 10.0307 20.8125 10.0959 20.7472C10.1611 20.6818 10.2386 20.6299 10.3238 20.5944C10.4091 20.559 10.5005 20.5406 10.5929 20.5405C10.6852 20.5404 10.7766 20.5585 10.862 20.5937C10.9474 20.629 11.0249 20.6807 11.0903 20.7459L12.9532 22.6039C13.0186 22.6691 13.0705 22.7466 13.106 22.8318C13.1414 22.9171 13.1597 23.0085 13.1598 23.1008C13.16 23.1932 13.1419 23.2846 13.1067 23.37C13.0714 23.4553 13.0197 23.5329 12.9545 23.5983C12.8893 23.6639 12.8117 23.7159 12.7263 23.7513C12.6408 23.7868 12.5492 23.805 12.4567 23.8049ZM22.1406 47.9388H12.9536C12.7724 47.9388 12.5982 47.8689 12.4673 47.7435C12.3365 47.6182 12.259 47.4472 12.2512 47.2662C12.195 45.9717 12.6189 44.7837 13.4449 43.921C14.2433 43.0873 15.3354 42.6282 16.52 42.6282H22.1406C22.3271 42.6282 22.5059 42.7022 22.6378 42.8341C22.7697 42.966 22.8438 43.1448 22.8438 43.3313V47.2358C22.8437 47.4222 22.7696 47.601 22.6378 47.7329C22.5059 47.8647 22.3271 47.9388 22.1406 47.9388ZM13.6882 46.5326H21.4375V44.0343H16.52C15.7225 44.0343 14.9911 44.3394 14.4606 44.8935C14.0443 45.3284 13.7794 45.8957 13.6882 46.5326ZM16.4053 40.6365C16.2526 40.6364 16.1041 40.5865 15.9822 40.4945C15.8604 40.4025 15.7717 40.2733 15.7298 40.1265L13.2104 31.3132C13.185 31.2243 13.1774 31.1313 13.1879 31.0395C13.1985 30.9477 13.2271 30.8589 13.272 30.7781C13.3169 30.6973 13.3774 30.6262 13.4498 30.5688C13.5222 30.5114 13.6053 30.4689 13.6942 30.4436L17.4598 29.3728C17.6391 29.3218 17.8312 29.3441 17.9941 29.4347C18.1569 29.5253 18.2771 29.6769 18.3283 29.8561L19.867 35.2474C20.1914 36.3808 20.0504 37.5524 19.4699 38.5457C18.8657 39.5793 17.8355 40.315 16.569 40.6171C16.5154 40.63 16.4605 40.6365 16.4053 40.6365ZM14.756 31.6037L16.8803 39.0349C17.4733 38.7714 17.9501 38.3589 18.2557 37.8361C18.6407 37.1774 18.7328 36.3953 18.5148 35.634L17.1688 30.9176L14.756 31.6037Z" fill="black"/>
<path d="M19.1627 36.0613C19.0099 36.0612 18.8613 36.0113 18.7394 35.9192C18.6175 35.8272 18.5289 35.6979 18.487 35.551L16.9722 30.2419C16.9469 30.153 16.9394 30.0601 16.95 29.9683C16.9606 29.8765 16.9892 29.7877 17.0342 29.707C17.0791 29.6263 17.1395 29.5552 17.2119 29.4979C17.2843 29.4405 17.3674 29.3979 17.4562 29.3726L30.8179 25.577L30.8177 25.5771C32.2702 25.1638 33.6902 25.5184 34.7135 26.5504C35.7709 27.6167 36.1963 29.1834 35.7973 30.5418C35.4218 31.8199 34.3939 32.7058 32.9031 33.0362L19.3151 36.0446C19.2651 36.0557 19.214 36.0613 19.1627 36.0613ZM18.5177 30.533L19.6577 34.5285L32.599 31.6632C33.5808 31.4456 34.2203 30.9207 34.448 30.1453C34.7008 29.2845 34.4063 28.2377 33.715 27.5405C33.3319 27.1542 32.4965 26.5614 31.2026 26.9296L31.2024 26.9297L18.5177 30.533Z" fill="black"/>
<path d="M22.1414 44.0343H16.6059C16.4265 44.0343 16.254 43.9657 16.1235 43.8427C15.993 43.7196 15.9145 43.5514 15.904 43.3723L15.7047 39.9743C15.6993 39.8821 15.7121 39.7897 15.7424 39.7025C15.7726 39.6153 15.8198 39.5348 15.8812 39.4658C15.9425 39.3968 16.0169 39.3406 16.1 39.3003C16.1831 39.2601 16.2733 39.2366 16.3655 39.2312C16.4577 39.2257 16.5501 39.2384 16.6373 39.2686C16.7246 39.2989 16.8051 39.346 16.8741 39.4074C16.9431 39.4688 16.9994 39.5431 17.0396 39.6263C17.0798 39.7094 17.1033 39.7997 17.1086 39.8919L17.269 42.628H21.4384V34.7007C21.4384 34.3124 21.7532 33.9976 22.1415 33.9976C22.5298 33.9976 22.8446 34.3124 22.8446 34.7007V43.3311C22.8446 43.5176 22.7705 43.6965 22.6386 43.8283C22.5068 43.9602 22.3279 44.0343 22.1414 44.0343ZM15.8505 31.2636C15.6713 31.2634 15.4988 31.1948 15.3685 31.0718C15.2382 30.9487 15.1597 30.7806 15.1492 30.6016L15.0855 29.5149C14.9381 27.0359 16.5735 25.7167 18.2599 25.5092C20.1183 25.2814 22.3298 26.3083 22.7715 28.6628C22.7885 28.7536 22.7875 28.8468 22.7685 28.9372C22.7495 29.0275 22.7129 29.1132 22.6607 29.1895C22.6086 29.2657 22.5419 29.3309 22.4646 29.3813C22.3873 29.4318 22.3007 29.4665 22.21 29.4835C21.8284 29.5553 21.4609 29.3037 21.3892 28.9221C21.1057 27.4104 19.6532 26.7551 18.4316 26.9049C17.9443 26.9649 16.3639 27.3243 16.4892 29.4319L16.553 30.5193C16.5586 30.615 16.5446 30.7108 16.5118 30.8009C16.4791 30.8909 16.4282 30.9734 16.3624 31.0431C16.2966 31.1128 16.2173 31.1683 16.1292 31.2062C16.0412 31.2441 15.9464 31.2637 15.8505 31.2636ZM3.15625 27.8285C2.96977 27.8285 2.79093 27.7544 2.65906 27.6226C2.5272 27.4907 2.45312 27.3119 2.45312 27.1254V18.3704C2.45312 16.4656 4.00598 14.9159 5.91478 14.9159H12.2291C12.4155 14.9159 12.5944 14.9899 12.7262 15.1218C12.8581 15.2537 12.9322 15.4325 12.9322 15.619C12.9322 15.8055 12.8581 15.9843 12.7262 16.1162C12.5944 16.248 12.4155 16.3221 12.2291 16.3221H5.91478C4.78145 16.3221 3.85937 17.241 3.85937 18.3704V27.1254C3.85937 27.3119 3.78529 27.4907 3.65343 27.6226C3.52157 27.7544 3.34273 27.8285 3.15625 27.8285ZM44.8497 27.8284C44.7573 27.8284 44.6659 27.8102 44.5806 27.7749C44.4953 27.7396 44.4178 27.6878 44.3525 27.6225C44.2872 27.5572 44.2354 27.4797 44.2 27.3944C44.1647 27.3091 44.1465 27.2176 44.1465 27.1253V18.3703C44.1465 17.2408 43.2245 16.322 42.0912 16.322H35.777C35.5905 16.322 35.4117 16.2479 35.2798 16.1161C35.148 15.9842 35.0739 15.8054 35.0739 15.6189C35.0739 15.4324 35.148 15.2536 35.2798 15.1217C35.4117 14.9899 35.5905 14.9158 35.777 14.9158H42.0912C43.9999 14.9158 45.5528 16.4654 45.5528 18.3703V27.1253C45.5528 27.2176 45.5346 27.3091 45.4993 27.3944C45.464 27.4797 45.4122 27.5572 45.3469 27.6225C45.2816 27.6878 45.2041 27.7396 45.1188 27.7749C45.0334 27.8102 44.942 27.8284 44.8497 27.8284ZM40.6162 47.9386H7.38975C7.20327 47.9386 7.02443 47.8646 6.89257 47.7327C6.76071 47.6008 6.68663 47.422 6.68663 47.2355C6.68663 47.049 6.76071 46.8702 6.89257 46.7383C7.02443 46.6065 7.20327 46.5324 7.38975 46.5324H40.6162C40.7086 46.5324 40.8 46.5506 40.8853 46.5859C40.9706 46.6212 41.0482 46.673 41.1134 46.7383C41.1787 46.8036 41.2305 46.8811 41.2659 46.9664C41.3012 47.0517 41.3194 47.1432 41.3194 47.2355C41.3194 47.3279 41.3012 47.4193 41.2659 47.5046C41.2305 47.5899 41.1787 47.6674 41.1134 47.7327C41.0482 47.798 40.9706 47.8498 40.8853 47.8851C40.8 47.9205 40.7086 47.9387 40.6162 47.9386ZM40.6162 31.8229H34.7565C34.6642 31.8229 34.5727 31.8047 34.4874 31.7694C34.4021 31.7341 34.3246 31.6823 34.2593 31.617C34.194 31.5517 34.1422 31.4742 34.1069 31.3889C34.0715 31.3035 34.0534 31.2121 34.0534 31.1198C34.0534 31.0274 34.0715 30.936 34.1069 30.8507C34.1422 30.7654 34.194 30.6879 34.2593 30.6226C34.3246 30.5573 34.4021 30.5055 34.4874 30.4701C34.5727 30.4348 34.6642 30.4166 34.7565 30.4166H40.6162C40.7086 30.4166 40.8 30.4348 40.8853 30.4701C40.9706 30.5055 41.0482 30.5573 41.1134 30.6226C41.1787 30.6879 41.2305 30.7654 41.2659 30.8507C41.3012 30.936 41.3194 31.0274 41.3194 31.1198C41.3194 31.2121 41.3012 31.3035 41.2659 31.3889C41.2305 31.4742 41.1787 31.5517 41.1134 31.617C41.0482 31.6823 40.9706 31.7341 40.8853 31.7694C40.8 31.8047 40.7086 31.8229 40.6162 31.8229ZM13.8873 31.8229H7.38975C7.20327 31.8229 7.02443 31.7488 6.89257 31.6169C6.76071 31.4851 6.68663 31.3062 6.68663 31.1198C6.68663 30.9333 6.76071 30.7544 6.89257 30.6226C7.02443 30.4907 7.20327 30.4166 7.38975 30.4166H13.8873C14.0737 30.4166 14.2526 30.4907 14.3844 30.6226C14.5163 30.7544 14.5904 30.9333 14.5904 31.1198C14.5904 31.2121 14.5722 31.3035 14.5369 31.3889C14.5016 31.4742 14.4498 31.5517 14.3845 31.617C14.3192 31.6823 14.2417 31.7341 14.1563 31.7694C14.071 31.8047 13.9796 31.8229 13.8873 31.8229Z" fill="black"/>
<path d="M40.6165 35.4039H22.1417C21.9552 35.4039 21.7764 35.3298 21.6445 35.198C21.5126 35.0661 21.4386 34.8873 21.4386 34.7008C21.4386 34.5143 21.5126 34.3355 21.6445 34.2036C21.7764 34.0717 21.9552 33.9977 22.1417 33.9977H40.6165C40.7088 33.9977 40.8003 34.0158 40.8856 34.0512C40.9709 34.0865 41.0484 34.1383 41.1137 34.2036C41.179 34.2689 41.2308 34.3464 41.2661 34.4317C41.3015 34.517 41.3196 34.6085 41.3196 34.7008C41.3196 34.7931 41.3015 34.8846 41.2661 34.9699C41.2308 35.0552 41.179 35.1327 41.1137 35.198C41.0484 35.2633 40.9709 35.3151 40.8856 35.3504C40.8003 35.3857 40.7088 35.4039 40.6165 35.4039ZM14.9108 35.4039H7.39001C7.20353 35.4039 7.02469 35.3298 6.89283 35.198C6.76097 35.0661 6.68689 34.8873 6.68689 34.7008C6.68689 34.5143 6.76097 34.3355 6.89283 34.2036C7.02469 34.0717 7.20353 33.9977 7.39001 33.9977H14.9108C15.0973 33.9977 15.2761 34.0717 15.408 34.2036C15.5398 34.3355 15.6139 34.5143 15.6139 34.7008C15.6139 34.8873 15.5398 35.0661 15.408 35.198C15.2761 35.3298 15.0973 35.4039 14.9108 35.4039ZM4.04687 33.1456C3.86039 33.1456 3.68155 33.0715 3.54969 32.9397C3.41783 32.8078 3.34375 32.629 3.34375 32.4425V31.0561C3.34375 30.6678 3.65858 30.353 4.04687 30.353C4.43517 30.353 4.74999 30.6678 4.74999 31.0561V32.4425C4.74999 32.629 4.67591 32.8078 4.54405 32.9397C4.41219 33.0715 4.23335 33.1456 4.04687 33.1456ZM43.957 33.1456C43.8647 33.1456 43.7732 33.1274 43.6879 33.0921C43.6026 33.0568 43.5251 33.005 43.4598 32.9397C43.3945 32.8744 43.3427 32.7969 43.3074 32.7116C43.272 32.6263 43.2539 32.5348 43.2539 32.4425V31.0561C43.2539 30.9638 43.272 30.8724 43.3074 30.7871C43.3427 30.7018 43.3945 30.6242 43.4598 30.5589C43.5251 30.4937 43.6026 30.4419 43.6879 30.4065C43.7732 30.3712 43.8647 30.353 43.957 30.353C44.0493 30.353 44.1408 30.3712 44.2261 30.4065C44.3114 30.4419 44.3889 30.4937 44.4542 30.5589C44.5195 30.6242 44.5713 30.7018 44.6066 30.7871C44.6419 30.8724 44.6601 30.9638 44.6601 31.0561V32.4425C44.6601 32.5348 44.6419 32.6263 44.6066 32.7116C44.5713 32.7969 44.5195 32.8744 44.4542 32.9397C44.3889 33.005 44.3114 33.0568 44.2261 33.0921C44.1408 33.1274 44.0493 33.1456 43.957 33.1456Z" fill="black"/>
</g>
<defs>
<clipPath id="clip0_1236_6281">
<rect width="48" height="48" fill="white" transform="translate(0 -0.000244141)"/>
</clipPath>
</defs>
</svg>
