<svg width="49" height="48" viewBox="0 0 49 48" fill="none" xmlns="http://www.w3.org/2000/svg">
<g clip-path="url(#clip0_1236_6398)">
<path d="M2.60366 13.4266H17.3248C18.0983 13.4266 18.7253 12.7995 18.7253 12.0261V2.52272C18.7253 1.74919 18.0982 1.12219 17.3248 1.12219H2.60366C1.83022 1.12219 1.20312 1.74929 1.20312 2.52272V12.026C1.20312 12.7995 1.83022 13.4266 2.60366 13.4266Z" fill="#DCF4F7"/>
<path d="M17.3199 1.12219H14.5C15.2735 1.12219 15.9005 1.74929 15.9005 2.52272V12.026C15.9005 12.7995 15.2734 13.4265 14.5 13.4265H17.3199C18.0934 13.4265 18.7204 12.7994 18.7204 12.026V2.52272C18.7204 1.74929 18.0933 1.12219 17.3199 1.12219Z" fill="#B9F0F1"/>
<path d="M13.774 7.27433C13.774 8.03164 13.1601 8.64551 12.4028 8.64551H7.52744C6.77012 8.64551 6.15625 8.03164 6.15625 7.27433C6.15625 6.51701 6.77012 5.90314 7.52744 5.90314H12.4027C13.16 5.90314 13.774 6.51711 13.774 7.27433Z" fill="#CB97E7"/>
<path d="M11.9956 21.2822L22.5303 40.9416H1.20312C1.20312 32.6766 5.50719 25.4175 11.9956 21.2822Z" fill="#4FC123"/>
<path d="M47.7959 40.9415H26.4688L35.0028 25.0153L37.0034 21.2822C38.2336 22.0664 39.3877 22.9641 40.4506 23.9634C44.9722 28.2131 47.7959 34.2469 47.7959 40.9415Z" fill="#FE5694"/>
<path d="M40.4478 23.9634C39.2262 24.6937 37.7975 25.1137 36.2712 25.1137C35.8391 25.1137 35.4144 25.08 35 25.0153L37.0006 21.2822C38.2308 22.0664 39.3849 22.9641 40.4478 23.9634Z" fill="#FD3581"/>
<path d="M1.20312 40.9419H47.7969V43.343C47.7969 44.1779 47.12 44.8548 46.2851 44.8548H2.71494C1.88 44.8548 1.20312 44.1779 1.20312 43.343V40.9419Z" fill="#678D98"/>
<path d="M44.0431 40.942V43.343C44.0431 44.1779 43.3662 44.8548 42.5312 44.8548H46.2885C47.1234 44.8548 47.8003 44.1779 47.8003 43.343V40.942H44.0431Z" fill="#537983"/>
<path d="M37.0088 21.2822L35.0081 25.0153L26.4741 40.9416H22.5347L12 21.2822C15.6131 18.9788 19.9031 17.6447 24.5044 17.6447C25.7578 17.6447 26.9878 17.7441 28.1878 17.9344C31.3931 18.4435 34.38 19.606 37.0088 21.2822Z" fill="#A2E62E"/>
<path d="M37.0084 21.2822L35.0078 25.0153C31.4256 24.4538 28.6169 21.5588 28.1875 17.9344C31.3928 18.4434 34.3797 19.6059 37.0084 21.2822Z" fill="#97D729"/>
<path d="M33.2507 21.2822C34.1929 21.883 35.0908 22.5506 35.9375 23.2797L37.0079 21.2822C33.3948 18.9788 29.1048 17.6447 24.5036 17.6447C23.8711 17.6447 23.2448 17.6709 22.625 17.7203C26.5139 18.0307 30.1343 19.2955 33.2507 21.2822Z" fill="#97D729"/>
<path d="M37.0079 21.2822L35.9375 23.2797C40.9002 27.5518 44.0432 33.8792 44.0432 40.9415H47.8004C47.8004 32.6765 43.4964 25.4175 37.0079 21.2822Z" fill="#FD3581"/>
<path d="M39.1031 25.1138C43.6042 25.1138 47.2531 21.465 47.2531 16.9639C47.2531 12.4628 43.6042 8.8139 39.1031 8.8139C34.602 8.8139 30.9531 12.4628 30.9531 16.9639C30.9531 21.465 34.602 25.1138 39.1031 25.1138Z" fill="#FEE45A"/>
<path d="M39.1028 8.8139C38.6201 8.8139 38.1472 8.85618 37.6875 8.93662C41.5139 9.60665 44.4221 12.9455 44.4221 16.9638C44.4221 20.9821 41.5139 24.3209 37.6875 24.9909C38.1548 25.0727 38.6284 25.1138 39.1028 25.1137C43.604 25.1137 47.2528 21.4648 47.2528 16.9637C47.2528 12.4627 43.604 8.8139 39.1028 8.8139Z" fill="#FCD829"/>
<path d="M26.9776 38.0123C29.1915 39.5263 29.759 42.5483 28.245 44.7623C26.731 46.9763 23.709 47.5437 21.495 46.0298C19.7579 44.8418 15.9539 38.6187 14.3958 35.9931C14.1186 35.526 14.5134 34.9486 15.0493 35.0375C18.0614 35.5369 25.2406 36.8244 26.9776 38.0123Z" fill="#DCF4F7"/>
<path d="M26.9681 38.0124C25.231 36.8245 18.0519 35.5369 15.0398 35.0374C14.5861 34.9621 14.2351 35.3648 14.306 35.7735C17.748 36.3944 22.7389 37.4237 24.1482 38.3874C26.3621 39.9013 26.9296 42.5484 25.4156 44.7624C24.7653 45.7132 23.8367 46.3593 22.8136 46.6683C24.7892 47.2697 27.0079 46.5573 28.2354 44.7624C29.7495 42.5484 29.1821 39.5263 26.9681 38.0124Z" fill="#B9F0F1"/>
<path d="M12.9704 16.2635L9.96425 13.4266M2.60366 13.4266H17.3248C18.0983 13.4266 18.7253 12.7995 18.7253 12.0261V2.52272C18.7253 1.74919 18.0982 1.12219 17.3248 1.12219H2.60366C1.83022 1.12219 1.20312 1.74929 1.20312 2.52272V12.026C1.20312 12.7995 1.83022 13.4266 2.60366 13.4266Z" stroke="black" stroke-width="1.40625" stroke-miterlimit="10" stroke-linecap="round" stroke-linejoin="round"/>
<path d="M17.4706 40.9416H1.20312C1.20312 32.6766 5.50719 25.4175 11.9956 21.2822C15.6088 18.9787 19.8987 17.6447 24.5 17.6447M41.3084 24.8119C45.3275 28.9978 47.7969 34.6809 47.7969 40.9416H28.9681M13.7731 7.27434C13.7731 8.03165 13.1593 8.64553 12.4019 8.64553H7.52656C6.76925 8.64553 6.15538 8.03165 6.15538 7.27434C6.15538 6.51703 6.76925 5.90315 7.52656 5.90315H12.4018C13.1592 5.90315 13.7731 6.51712 13.7731 7.27434Z" stroke="black" stroke-width="1.40625" stroke-miterlimit="10" stroke-linecap="round" stroke-linejoin="round"/>
<path d="M28.9681 40.9416H47.7969V43.3425C47.7969 44.1778 47.12 44.8547 46.2847 44.8547H28.1759M10.7502 44.8547H20.2972M17.4706 40.9416H1.20312V43.3425C1.20312 44.1778 1.88 44.8547 2.71531 44.8547H7.46787M19.8369 35.9156L11.9956 21.2822C15.6088 18.9788 19.8987 17.6447 24.5 17.6447C25.6275 17.6447 26.7366 17.7249 27.8216 17.8799M35.4219 24.2353L27.7091 38.6288M40.2675 14.3882C40.2675 14.3882 39.6063 13.7784 38.5871 14.0854C37.6512 14.3673 37.4188 15.6478 38.0548 16.1467C38.4199 16.4331 38.9694 16.6686 39.7099 16.9303C41.3673 17.5162 40.7547 19.8535 39.0687 19.8648C38.4107 19.8692 38.1031 19.8274 37.5252 19.4493M39.0687 19.8647V20.7179M39.0687 13.2099V14.0015" stroke="black" stroke-width="1.40625" stroke-miterlimit="10" stroke-linecap="round" stroke-linejoin="round"/>
<path d="M39.1031 25.1138C43.6042 25.1138 47.2531 21.465 47.2531 16.9639C47.2531 12.4628 43.6042 8.8139 39.1031 8.8139C34.602 8.8139 30.9531 12.4628 30.9531 16.9639C30.9531 21.465 34.602 25.1138 39.1031 25.1138Z" stroke="black" stroke-width="1.40625" stroke-miterlimit="10" stroke-linecap="round" stroke-linejoin="round"/>
<path d="M24.4819 42.1889L23.492 41.5119M26.9776 38.0123C29.1915 39.5263 29.759 42.5483 28.245 44.7623C26.731 46.9763 23.709 47.5437 21.495 46.0298C19.7579 44.8418 15.9539 38.6187 14.3958 35.9931C14.1186 35.526 14.5134 34.9486 15.0493 35.0375C18.0614 35.5369 25.2406 36.8244 26.9776 38.0123Z" stroke="black" stroke-width="1.40625" stroke-miterlimit="10" stroke-linecap="round" stroke-linejoin="round"/>
</g>
<defs>
<clipPath id="clip0_1236_6398">
<rect width="48" height="48" fill="white" transform="translate(0.5)"/>
</clipPath>
</defs>
</svg>
