<svg width="48" height="48" viewBox="0 0 48 48" fill="none" xmlns="http://www.w3.org/2000/svg">
<g clip-path="url(#clip0_1236_6323)">
<path d="M34.9269 37.6239H13.078C12.9289 37.6239 12.7858 37.5646 12.6803 37.4592C12.5749 37.3537 12.5156 37.2106 12.5156 37.0615V33.6871C12.5156 33.538 12.5749 33.3949 12.6803 33.2895C12.7858 33.184 12.9289 33.1248 13.078 33.1248H34.9269C35.076 33.1248 35.2191 33.184 35.3245 33.2895C35.43 33.3949 35.4893 33.538 35.4893 33.6871V37.0615C35.4893 37.2106 35.43 37.3537 35.3245 37.4592C35.2191 37.5646 35.076 37.6239 34.9269 37.6239ZM13.6404 36.4991H34.3645V34.2495H13.6404V36.4991Z" fill="black"/>
<path d="M13.6406 36.4991H34.3647V34.2495H13.6406V36.4991Z" fill="#994F1D"/>
<path d="M20.8968 27.9508H18.0848C18.011 27.9508 17.9378 27.9362 17.8696 27.908C17.8014 27.8797 17.7394 27.8383 17.6871 27.786C17.6349 27.7338 17.5935 27.6718 17.5652 27.6036C17.537 27.5354 17.5224 27.4622 17.5224 27.3884V19.1494C17.5224 19.0002 17.5817 18.8572 17.6871 18.7517C17.7926 18.6462 17.9357 18.587 18.0848 18.587H20.8968C21.0459 18.587 21.189 18.6462 21.2944 18.7517C21.3999 18.8572 21.4592 19.0002 21.4592 19.1494V27.3884C21.4592 27.4622 21.4446 27.5354 21.4163 27.6036C21.3881 27.6718 21.3467 27.7338 21.2944 27.786C21.2422 27.8383 21.1802 27.8797 21.112 27.908C21.0437 27.9362 20.9706 27.9508 20.8968 27.9508ZM18.6472 26.826H20.3344V19.7117H18.6472V26.826ZM15.6947 27.9508H12.8827C12.8088 27.9508 12.7357 27.9362 12.6675 27.908C12.5993 27.8797 12.5373 27.8383 12.485 27.786C12.4328 27.7338 12.3914 27.6718 12.3631 27.6036C12.3349 27.5354 12.3203 27.4622 12.3203 27.3884V21.1177C12.3203 20.9686 12.3796 20.8255 12.485 20.7201C12.5905 20.6146 12.7335 20.5553 12.8827 20.5553H15.6947C15.8438 20.5553 15.9869 20.6146 16.0923 20.7201C16.1978 20.8255 16.257 20.9686 16.257 21.1177V27.3884C16.257 27.4622 16.2425 27.5354 16.2142 27.6036C16.186 27.6718 16.1445 27.7338 16.0923 27.786C16.0401 27.8383 15.9781 27.8797 15.9099 27.908C15.8416 27.9362 15.7685 27.9508 15.6947 27.9508ZM13.4451 26.826H15.1323V21.6801H13.4451V26.826ZM26.0708 27.9508H23.2588C23.1849 27.9508 23.1118 27.9362 23.0436 27.908C22.9754 27.8797 22.9134 27.8383 22.8611 27.786C22.8089 27.7338 22.7675 27.6718 22.7392 27.6036C22.711 27.5354 22.6964 27.4622 22.6964 27.3884V16.8998C22.6964 16.7506 22.7557 16.6076 22.8611 16.5021C22.9666 16.3967 23.1096 16.3374 23.2588 16.3374H26.0708C26.2199 16.3374 26.363 16.3967 26.4684 16.5021C26.5739 16.6076 26.6331 16.7506 26.6331 16.8998V27.3884C26.6331 27.4622 26.6186 27.5354 26.5903 27.6036C26.5621 27.6718 26.5206 27.7338 26.4684 27.786C26.4162 27.8383 26.3542 27.8797 26.286 27.908C26.2177 27.9362 26.1446 27.9508 26.0708 27.9508ZM23.8212 26.826H25.5084V17.4622H23.8212V26.826Z" fill="black"/>
<path d="M27.3109 27.9508H11.6483C11.4992 27.9508 11.3561 27.8915 11.2507 27.786C11.1452 27.6806 11.0859 27.5375 11.0859 27.3884C11.0859 27.2392 11.1452 27.0962 11.2507 26.9907C11.3561 26.8852 11.4992 26.826 11.6483 26.826H27.2828C27.4319 26.826 27.575 26.8852 27.6804 26.9907C27.7859 27.0962 27.8452 27.2392 27.8452 27.3884C27.8452 27.5375 27.7859 27.6806 27.6804 27.786C27.575 27.8915 27.46 27.9508 27.3109 27.9508ZM15.81 16.3093C15.5356 16.3102 15.2669 16.2309 15.0371 16.081C14.8072 15.9311 14.6263 15.7172 14.5165 15.4657C14.487 15.3974 14.4712 15.3239 14.47 15.2495C14.4689 15.1751 14.4824 15.1012 14.5098 15.032C14.5372 14.9628 14.578 14.8997 14.6298 14.8462C14.6816 14.7928 14.7435 14.7501 14.8118 14.7205C14.8801 14.691 14.9536 14.6752 15.028 14.6741C15.1024 14.6729 15.1763 14.6864 15.2455 14.7138C15.3147 14.7413 15.3778 14.782 15.4313 14.8338C15.4847 14.8857 15.5274 14.9475 15.5569 15.0158C15.5755 15.075 15.6132 15.1265 15.664 15.1621C15.7149 15.1977 15.7761 15.2155 15.8381 15.2126C15.8663 15.1845 15.9506 15.1845 16.035 15.1283C16.0648 15.0993 16.0878 15.0642 16.1024 15.0253C16.117 14.9864 16.1228 14.9447 16.1193 14.9033C16.1193 14.7065 16.1193 14.7065 15.6975 14.6221C15.2757 14.4815 14.404 14.2566 14.404 13.2161C14.4003 13.0292 14.4339 12.8433 14.5029 12.6695C14.5719 12.4956 14.6748 12.3373 14.8058 12.2037C14.9367 12.0702 15.093 11.9641 15.2654 11.8917C15.4378 11.8193 15.623 11.782 15.81 11.7821C16.0844 11.7811 16.3531 11.8605 16.5829 12.0104C16.8128 12.1603 16.9938 12.3741 17.1035 12.6256C17.1355 12.754 17.1212 12.8895 17.0632 13.0083C17.0051 13.1272 16.9071 13.2218 16.7862 13.2755C16.6653 13.3292 16.5294 13.3386 16.4023 13.302C16.2752 13.2655 16.165 13.1853 16.0912 13.0755C16.0763 13.001 16.0324 12.9354 15.9691 12.8932C15.9058 12.851 15.8284 12.8357 15.7538 12.8506C15.6792 12.8655 15.6136 12.9094 15.5714 12.9727C15.5292 13.036 15.5139 13.1135 15.5288 13.188C15.5288 13.3849 15.5288 13.413 15.9506 13.4973C16.3724 13.6098 17.2441 13.8067 17.2441 14.9033C17.2441 15.2762 17.096 15.6338 16.8323 15.8975C16.5686 16.1612 16.211 16.3093 15.8381 16.3093H15.81Z" fill="black"/>
<path d="M15.8046 12.9068C15.6554 12.9068 15.5124 12.8476 15.4069 12.7421C15.3014 12.6367 15.2422 12.4936 15.2422 12.3445V11.5009C15.2422 11.3517 15.3014 11.2087 15.4069 11.1032C15.5124 10.9977 15.6554 10.9385 15.8046 10.9385C15.9537 10.9385 16.0968 10.9977 16.2022 11.1032C16.3077 11.2087 16.367 11.3517 16.367 11.5009V12.3445C16.367 12.4936 16.3077 12.6367 16.2022 12.7421C16.0968 12.8476 15.9537 12.9068 15.8046 12.9068ZM15.8046 17.1529C15.6554 17.1529 15.5124 17.0936 15.4069 16.9882C15.3014 16.8827 15.2422 16.7397 15.2422 16.5905V15.7469C15.2422 15.5978 15.3014 15.4547 15.4069 15.3492C15.5124 15.2438 15.6554 15.1845 15.8046 15.1845C15.9537 15.1845 16.0968 15.2438 16.2022 15.3492C16.3077 15.4547 16.367 15.5978 16.367 15.7469V16.5905C16.367 16.7397 16.3077 16.8827 16.2022 16.9882C16.0968 17.0936 15.9537 17.1529 15.8046 17.1529Z" fill="black"/>
<path d="M15.8038 18.4745C15.2222 18.4745 14.6463 18.3599 14.109 18.1373C13.5717 17.9148 13.0834 17.5885 12.6722 17.1773C12.2609 16.766 11.9347 16.2778 11.7121 15.7405C11.4896 15.2032 11.375 14.6272 11.375 14.0456C11.375 13.464 11.4896 12.8881 11.7121 12.3508C11.9347 11.8135 12.2609 11.3252 12.6722 10.914C13.0834 10.5027 13.5717 10.1765 14.109 9.95395C14.6463 9.73138 15.2222 9.61682 15.8038 9.61682C16.9784 9.61682 18.1049 10.0834 18.9355 10.914C19.766 11.7446 20.2326 12.871 20.2326 14.0456C20.2326 15.2202 19.766 16.3467 18.9355 17.1773C18.1049 18.0079 16.9784 18.4745 15.8038 18.4745ZM15.8038 10.7416C14.9275 10.7416 14.0871 11.0897 13.4675 11.7093C12.8479 12.329 12.4998 13.1694 12.4998 14.0456C12.4998 14.9219 12.8479 15.7623 13.4675 16.382C14.0871 17.0016 14.9275 17.3497 15.8038 17.3497C16.6801 17.3497 17.5205 17.0016 18.1401 16.382C18.7598 15.7623 19.1079 14.9219 19.1079 14.0456C19.1079 13.1694 18.7598 12.329 18.1401 11.7093C17.5205 11.0897 16.6801 10.7416 15.8038 10.7416Z" fill="black"/>
<path d="M38.4411 30.3691H9.56239C9.41324 30.3691 9.27019 30.3099 9.16472 30.2044C9.05925 30.0989 9 29.9559 9 29.8067V8.21095C9 8.1371 9.01455 8.06396 9.04281 7.99573C9.07107 7.9275 9.1125 7.8655 9.16472 7.81328C9.21694 7.76106 9.27894 7.71963 9.34717 7.69137C9.4154 7.66311 9.48854 7.64856 9.56239 7.64856H38.4411C38.515 7.64856 38.5881 7.66311 38.6563 7.69137C38.7246 7.71963 38.7866 7.76106 38.8388 7.81328C38.891 7.8655 38.9324 7.9275 38.9607 7.99573C38.989 8.06396 39.0035 8.1371 39.0035 8.21095V29.8067C39.0035 29.9559 38.9443 30.0989 38.8388 30.2044C38.7333 30.3099 38.5903 30.3691 38.4411 30.3691ZM10.1248 29.2443H37.8787V8.77334H10.1248V29.2443Z" fill="black"/>
<path d="M39.511 8.77328H8.46704C7.86777 8.68319 7.32072 8.38105 6.92534 7.9218C6.52996 7.46254 6.3125 6.87665 6.3125 6.27064C6.3125 5.66463 6.52996 5.07875 6.92534 4.61949C7.32072 4.16023 7.86777 3.85809 8.46704 3.76801H39.511C40.1103 3.85809 40.6573 4.16023 41.0527 4.61949C41.4481 5.07875 41.6655 5.66463 41.6655 6.27064C41.6655 6.87665 41.4481 7.46254 41.0527 7.9218C40.6573 8.38105 40.1103 8.68319 39.511 8.77328ZM8.46704 4.89279C8.10161 4.89279 7.75115 5.03795 7.49275 5.29635C7.23435 5.55475 7.08919 5.90521 7.08919 6.27064C7.08919 6.63607 7.23435 6.98653 7.49275 7.24493C7.75115 7.50333 8.10161 7.6485 8.46704 7.6485H39.511C39.8764 7.6485 40.2269 7.50333 40.4853 7.24493C40.7437 6.98653 40.8888 6.63607 40.8888 6.27064C40.8888 5.90521 40.7437 5.55475 40.4853 5.29635C40.2269 5.03795 39.8764 4.89279 39.511 4.89279H8.46704ZM39.511 34.2496H8.46704C7.86777 34.1595 7.32072 33.8573 6.92534 33.3981C6.52996 32.9388 6.3125 32.3529 6.3125 31.7469C6.3125 31.1409 6.52996 30.555 6.92534 30.0958C7.32072 29.6365 7.86777 29.3344 8.46704 29.2443H39.511C40.1103 29.3344 40.6573 29.6365 41.0527 30.0958C41.4481 30.555 41.6655 31.1409 41.6655 31.7469C41.6655 32.3529 41.4481 32.9388 41.0527 33.3981C40.6573 33.8573 40.1103 34.1595 39.511 34.2496ZM8.46704 30.3691C8.10161 30.3691 7.75115 30.5142 7.49275 30.7726C7.23435 31.031 7.08919 31.3815 7.08919 31.7469C7.08919 32.1123 7.23435 32.4628 7.49275 32.7212C7.75115 32.9796 8.10161 33.1248 8.46704 33.1248H39.511C39.8764 33.1248 40.2269 32.9796 40.4853 32.7212C40.7437 32.4628 40.8888 32.1123 40.8888 31.7469C40.8888 31.3815 40.7437 31.031 40.4853 30.7726C40.2269 30.5142 39.8764 30.3691 39.511 30.3691H8.46704ZM25.5918 48H22.4143C22.2652 48 22.1221 47.9407 22.0166 47.8353C21.9112 47.7298 21.8519 47.5868 21.8519 47.4376V37.0615C21.8519 36.9123 21.9112 36.7693 22.0166 36.6638C22.1221 36.5584 22.2652 36.4991 22.4143 36.4991H25.5918C25.741 36.4991 25.884 36.5584 25.9895 36.6638C26.095 36.7693 26.1542 36.9123 26.1542 37.0615V47.4376C26.1542 47.5868 26.095 47.7298 25.9895 47.8353C25.884 47.9407 25.741 48 25.5918 48ZM22.9486 46.8752H25.0294V37.6239H22.9486V46.8752ZM15.6375 48H12.3757C12.2842 48.0012 12.1939 47.9801 12.1124 47.9385C12.031 47.8969 11.9609 47.8361 11.9083 47.7613C11.8556 47.6865 11.822 47.6 11.8104 47.5093C11.7987 47.4186 11.8094 47.3264 11.8414 47.2408L15.4969 36.8647C15.5375 36.7561 15.6106 36.6627 15.7062 36.5973C15.8018 36.5319 15.9153 36.4976 16.0312 36.4991H19.2649C19.3564 36.4979 19.4467 36.519 19.5282 36.5606C19.6096 36.6022 19.6797 36.663 19.7323 36.7378C19.785 36.8126 19.8186 36.8991 19.8302 36.9898C19.8419 37.0805 19.8312 37.1727 19.7992 37.2583L16.1437 47.6063C16.1065 47.7248 16.0312 47.8277 15.9295 47.8989C15.8278 47.9701 15.7053 48.0057 15.5813 48H15.6375ZM13.1911 46.8752H15.2438L18.5057 37.6239H16.453L13.1911 46.8752ZM35.6024 48H32.3405C32.2165 48.0057 32.094 47.9701 31.9923 47.8989C31.8905 47.8277 31.8152 47.7248 31.7781 47.6063L28.1507 37.2583C28.1187 37.1727 28.108 37.0805 28.1197 36.9898C28.1313 36.8991 28.1649 36.8126 28.2176 36.7378C28.2702 36.663 28.3403 36.6022 28.4217 36.5606C28.5032 36.519 28.5935 36.4979 28.685 36.4991H31.9187C32.0346 36.4976 32.1481 36.5319 32.2437 36.5973C32.3393 36.6627 32.4124 36.7561 32.453 36.8647L36.0523 47.1564C36.1013 47.2412 36.1273 47.3374 36.1277 47.4354C36.1281 47.5333 36.1029 47.6297 36.0546 47.7149C36.0063 47.8002 35.9365 47.8713 35.8523 47.9213C35.768 47.9713 35.6722 47.9984 35.5742 48H35.6024ZM32.7623 46.8752H34.7869L31.5532 37.6239H29.5004L32.7623 46.8752Z" fill="black"/>
<path d="M27.6167 4.89279H20.3619C20.2127 4.89279 20.0697 4.83354 19.9642 4.72807C19.8587 4.62261 19.7995 4.47956 19.7995 4.3304V2.4464C19.7995 1.12478 20.9243 0 22.2459 0H25.7327C27.0824 0 28.1791 1.12478 28.1791 2.4464V4.3304C28.1791 4.47956 28.1199 4.62261 28.0144 4.72807C27.9089 4.83354 27.7659 4.89279 27.6167 4.89279ZM20.9243 3.76801H27.0543V2.4464C27.0543 2.09588 26.9151 1.75972 26.6672 1.51187C26.4194 1.26402 26.0832 1.12478 25.7327 1.12478H22.2459C21.8954 1.12478 21.5592 1.26402 21.3114 1.51187C21.0635 1.75972 20.9243 2.09588 20.9243 2.4464V3.76801ZM35.3777 12.8225H22.9208C22.7716 12.8225 22.6286 12.7632 22.5231 12.6578C22.4176 12.5523 22.3584 12.4093 22.3584 12.2601C22.3584 12.1109 22.4176 11.9679 22.5231 11.8624C22.6286 11.757 22.7716 11.6977 22.9208 11.6977H35.3777C35.5269 11.6977 35.6699 11.757 35.7754 11.8624C35.8808 11.9679 35.9401 12.1109 35.9401 12.2601C35.9401 12.4093 35.8808 12.5523 35.7754 12.6578C35.6699 12.7632 35.5269 12.8225 35.3777 12.8225ZM35.3777 15.5782H22.9208C22.7716 15.5782 22.6286 15.519 22.5231 15.4135C22.4176 15.308 22.3584 15.165 22.3584 15.0158C22.3584 14.8667 22.4176 14.7236 22.5231 14.6181C22.6286 14.5127 22.7716 14.4534 22.9208 14.4534H35.3777C35.5269 14.4534 35.6699 14.5127 35.7754 14.6181C35.8808 14.7236 35.9401 14.8667 35.9401 15.0158C35.9401 15.165 35.8808 15.308 35.7754 15.4135C35.6699 15.519 35.5269 15.5782 35.3777 15.5782ZM35.3777 18.362H29.1352C28.986 18.362 28.843 18.3028 28.7375 18.1973C28.632 18.0918 28.5728 17.9488 28.5728 17.7996C28.5728 17.6505 28.632 17.5074 28.7375 17.402C28.843 17.2965 28.986 17.2373 29.1352 17.2373H35.3777C35.5269 17.2373 35.6699 17.2965 35.7754 17.402C35.8808 17.5074 35.9401 17.6505 35.9401 17.7996C35.9401 17.9488 35.8808 18.0918 35.7754 18.1973C35.6699 18.3028 35.5269 18.362 35.3777 18.362ZM35.3777 20.8084H29.1352C28.986 20.8084 28.843 20.7492 28.7375 20.6437C28.632 20.5382 28.5728 20.3952 28.5728 20.246C28.5728 20.0969 28.632 19.9538 28.7375 19.8484C28.843 19.7429 28.986 19.6837 29.1352 19.6837H35.3777C35.5269 19.6837 35.6699 19.7429 35.7754 19.8484C35.8808 19.9538 35.9401 20.0969 35.9401 20.246C35.9401 20.3952 35.8808 20.5382 35.7754 20.6437C35.6699 20.7492 35.5269 20.8084 35.3777 20.8084ZM35.3777 23.5641H29.1352C28.986 23.5641 28.843 23.5049 28.7375 23.3994C28.632 23.294 28.5728 23.1509 28.5728 23.0018C28.5728 22.8526 28.632 22.7096 28.7375 22.6041C28.843 22.4986 28.986 22.4394 29.1352 22.4394H35.3777C35.5269 22.4394 35.6699 22.4986 35.7754 22.6041C35.8808 22.7096 35.9401 22.8526 35.9401 23.0018C35.9401 23.1509 35.8808 23.294 35.7754 23.3994C35.6699 23.5049 35.5269 23.5641 35.3777 23.5641ZM35.3777 26.3199H29.1352C28.986 26.3199 28.843 26.2606 28.7375 26.1551C28.632 26.0497 28.5728 25.9066 28.5728 25.7575C28.5728 25.6083 28.632 25.4653 28.7375 25.3598C28.843 25.2543 28.986 25.1951 29.1352 25.1951H35.3777C35.5269 25.1951 35.6699 25.2543 35.7754 25.3598C35.8808 25.4653 35.9401 25.6083 35.9401 25.7575C35.9401 25.9066 35.8808 26.0497 35.7754 26.1551C35.6699 26.2606 35.5269 26.3199 35.3777 26.3199ZM38.2178 48H9.78895C9.6398 48 9.49675 47.9407 9.39128 47.8353C9.28581 47.7298 9.22656 47.5868 9.22656 47.4376C9.22656 47.2885 9.28581 47.1454 9.39128 47.0399C9.49675 46.9345 9.6398 46.8752 9.78895 46.8752H38.2178C38.3669 46.8752 38.51 46.9345 38.6154 47.0399C38.7209 47.1454 38.7802 47.2885 38.7802 47.4376C38.7802 47.5868 38.7209 47.7298 38.6154 47.8353C38.51 47.9407 38.3669 48 38.2178 48Z" fill="black"/>
<path d="M9.56827 7.64853H39.5155C39.881 7.64853 40.2314 7.50337 40.4898 7.24497C40.7482 6.98657 40.8934 6.63611 40.8934 6.27068C40.8934 5.90525 40.7482 5.55479 40.4898 5.29639C40.2314 5.03799 39.881 4.89282 39.5155 4.89282H8.47161C8.10618 4.89282 7.75571 5.03799 7.49731 5.29639C7.23892 5.55479 7.09375 5.90525 7.09375 6.27068C7.09375 6.63611 7.23892 6.98657 7.49731 7.24497C7.75571 7.50337 8.10618 7.64853 8.47161 7.64853H9.56827Z" fill="#C57D4F"/>
<path d="M20.9219 3.76799H27.0519V2.44637C27.0519 2.09586 26.9127 1.7597 26.6648 1.51185C26.417 1.264 26.0808 1.12476 25.7303 1.12476H22.2435C21.893 1.12476 21.5568 1.264 21.309 1.51185C21.0611 1.7597 20.9219 2.09586 20.9219 2.44637V3.76799Z" fill="#994F1D"/>
<path d="M19.1237 14.0598C19.1237 13.1835 18.7756 12.3431 18.156 11.7235C17.5364 11.1038 16.696 10.7557 15.8197 10.7557C14.9434 10.7557 14.103 11.1038 13.4834 11.7235C12.8637 12.3431 12.5156 13.1835 12.5156 14.0598C12.5156 14.9361 12.8637 15.7765 13.4834 16.3961C14.103 17.0157 14.9434 17.3638 15.8197 17.3638C16.696 17.3638 17.5364 17.0157 18.156 16.3961C18.7756 15.7765 19.1237 14.9361 19.1237 14.0598ZM17.0991 12.6257C17.3803 13.3006 16.368 13.7505 16.0868 13.0756C16.0635 13.0216 16.0238 12.9763 15.9733 12.946C15.9229 12.9157 15.8642 12.9021 15.8056 12.9069C15.731 12.9069 15.6595 12.9365 15.6068 12.9892C15.554 13.042 15.5244 13.1135 15.5244 13.1881C15.5244 13.3849 15.5244 13.413 15.9462 13.4974C16.368 13.6099 17.2397 13.8067 17.2397 14.9034C17.2462 15.1825 17.1695 15.4573 17.0192 15.6927C16.869 15.9281 16.6521 16.1134 16.3961 16.225V16.5905C16.3961 16.7397 16.3369 16.8827 16.2314 16.9882C16.1259 17.0937 15.9829 17.1529 15.8337 17.1529C15.6846 17.1529 15.5415 17.0937 15.4361 16.9882C15.3306 16.8827 15.2713 16.7397 15.2713 16.5905V16.225C14.484 15.8875 14.1184 15.0158 14.7652 14.7346C14.8333 14.7019 14.9073 14.6831 14.9828 14.6796C15.0582 14.676 15.1337 14.6877 15.2045 14.714C15.2754 14.7402 15.3403 14.7805 15.3952 14.8323C15.4502 14.8842 15.4941 14.9466 15.5244 15.0158C15.6369 15.297 16.0868 15.2408 16.0868 14.9034C16.0868 14.7065 16.0868 14.7065 15.665 14.6222C15.2713 14.4816 14.3996 14.2566 14.3996 13.2162C14.3996 12.5694 14.7652 12.0914 15.2432 11.8946V11.529C15.2432 10.7979 16.368 10.7979 16.368 11.529V11.9227C16.6773 12.0352 16.9304 12.2601 17.0991 12.6257Z" fill="#FFCC33"/>
<path d="M15.1325 21.6802H13.4453V26.826H15.1325V21.6802Z" fill="#FF4646"/>
<path d="M18.6172 19.6836V26.8259H20.3044V19.7117L18.6172 19.6836Z" fill="#FFCC33"/>
<path d="M23.7969 17.4622V26.826H25.484V17.4622H23.7969Z" fill="#52CC52"/>
<path d="M22.6663 26.826V16.8999C22.6663 16.7507 22.7256 16.6077 22.831 16.5022C22.9365 16.3967 23.0795 16.3375 23.2287 16.3375H26.0406C26.1898 16.3375 26.3328 16.3967 26.4383 16.5022C26.5438 16.6077 26.603 16.7507 26.603 16.8999V26.826H27.306C27.4552 26.826 27.5982 26.8853 27.7037 26.9908C27.8092 27.0962 27.8684 27.2393 27.8684 27.3884C27.8684 27.5376 27.8092 27.6806 27.7037 27.7861C27.5982 27.8916 27.4552 27.9508 27.306 27.9508H11.6435C11.4943 27.9508 11.3513 27.8916 11.2458 27.7861C11.1403 27.6806 11.0811 27.5376 11.0811 27.3884C11.0811 27.2393 11.1403 27.0962 11.2458 26.9908C11.3513 26.8853 11.4943 26.826 11.6435 26.826H12.3183V21.1178C12.3183 21.0439 12.3329 20.9708 12.3611 20.9026C12.3894 20.8343 12.4308 20.7723 12.483 20.7201C12.5353 20.6679 12.5973 20.6265 12.6655 20.5982C12.7337 20.5699 12.8069 20.5554 12.8807 20.5554H15.6927C15.8418 20.5554 15.9849 20.6146 16.0903 20.7201C16.1958 20.8256 16.2551 20.9686 16.2551 21.1178V26.826H17.4923V19.1494C17.4923 19.0003 17.5516 18.8572 17.657 18.7517C17.7625 18.6463 17.9055 18.587 18.0547 18.587H20.8667C21.0158 18.587 21.1589 18.6463 21.2643 18.7517C21.3698 18.8572 21.429 19.0003 21.429 19.1494V26.826H22.6663ZM10.125 29.2443H37.879V8.77332H10.125V29.2443ZM20.248 14.0598C20.248 14.6414 20.1335 15.2173 19.9109 15.7546C19.6883 16.2919 19.3621 16.7802 18.9509 17.1914C18.5396 17.6027 18.0514 17.9289 17.514 18.1515C16.9767 18.3741 16.4008 18.4886 15.8192 18.4886C15.2376 18.4886 14.6617 18.3741 14.1244 18.1515C13.587 17.9289 13.0988 17.6027 12.6875 17.1914C12.2763 16.7802 11.9501 16.2919 11.7275 15.7546C11.5049 15.2173 11.3904 14.6414 11.3904 14.0598C11.3904 12.8852 11.857 11.7587 12.6875 10.9281C13.5181 10.0976 14.6446 9.63096 15.8192 9.63096C16.9938 9.63096 18.1203 10.0976 18.9509 10.9281C19.7814 11.7587 20.248 12.8852 20.248 14.0598ZM28.5714 23.0018C28.5714 22.9279 28.5859 22.8548 28.6142 22.7866C28.6425 22.7183 28.6839 22.6563 28.7361 22.6041C28.7883 22.5519 28.8503 22.5105 28.9186 22.4822C28.9868 22.4539 29.0599 22.4394 29.1338 22.4394H35.3763C35.5255 22.4394 35.6685 22.4986 35.774 22.6041C35.8795 22.7096 35.9387 22.8526 35.9387 23.0018C35.9387 23.1509 35.8795 23.294 35.774 23.3995C35.6685 23.5049 35.5255 23.5642 35.3763 23.5642H29.1338C29.0599 23.5642 28.9868 23.5496 28.9186 23.5214C28.8503 23.4931 28.7883 23.4517 28.7361 23.3995C28.6839 23.3472 28.6425 23.2852 28.6142 23.217C28.5859 23.1488 28.5714 23.0756 28.5714 23.0018ZM29.1338 25.1951H35.3763C35.5255 25.1951 35.6685 25.2544 35.774 25.3598C35.8795 25.4653 35.9387 25.6083 35.9387 25.7575C35.9387 25.9067 35.8795 26.0497 35.774 26.1552C35.6685 26.2606 35.5255 26.3199 35.3763 26.3199H29.1338C28.9846 26.3199 28.8416 26.2606 28.7361 26.1552C28.6306 26.0497 28.5714 25.9067 28.5714 25.7575C28.5714 25.6083 28.6306 25.4653 28.7361 25.3598C28.8416 25.2544 28.9846 25.1951 29.1338 25.1951ZM29.1338 19.6556H35.3763C35.5255 19.6556 35.6685 19.7148 35.774 19.8203C35.8795 19.9258 35.9387 20.0688 35.9387 20.218C35.9387 20.3671 35.8795 20.5102 35.774 20.6156C35.6685 20.7211 35.5255 20.7803 35.3763 20.7803H29.1338C28.9846 20.7803 28.8416 20.7211 28.7361 20.6156C28.6306 20.5102 28.5714 20.3671 28.5714 20.218C28.5714 20.0688 28.6306 19.9258 28.7361 19.8203C28.8416 19.7148 28.9846 19.6556 29.1338 19.6556ZM29.1338 18.3621C28.9846 18.3621 28.8416 18.3028 28.7361 18.1973C28.6306 18.0919 28.5714 17.9488 28.5714 17.7997C28.5714 17.6505 28.6306 17.5075 28.7361 17.402C28.8416 17.2965 28.9846 17.2373 29.1338 17.2373H35.3763C35.5255 17.2373 35.6685 17.2965 35.774 17.402C35.8795 17.5075 35.9387 17.6505 35.9387 17.7997C35.9387 17.9488 35.8795 18.0919 35.774 18.1973C35.6685 18.3028 35.5255 18.3621 35.3763 18.3621H29.1338ZM35.3763 15.5782H22.9194C22.7702 15.5782 22.6272 15.519 22.5217 15.4135C22.4162 15.308 22.357 15.165 22.357 15.0158C22.357 14.8667 22.4162 14.7236 22.5217 14.6182C22.6272 14.5127 22.7702 14.4535 22.9194 14.4535H35.3763C35.5255 14.4535 35.6685 14.5127 35.774 14.6182C35.8795 14.7236 35.9387 14.8667 35.9387 15.0158C35.9387 15.165 35.8795 15.308 35.774 15.4135C35.6685 15.519 35.5255 15.5782 35.3763 15.5782ZM35.3763 12.8225H22.9194C22.7702 12.8225 22.6272 12.7633 22.5217 12.6578C22.4162 12.5523 22.357 12.4093 22.357 12.2601C22.357 12.111 22.4162 11.9679 22.5217 11.8625C22.6272 11.757 22.7702 11.6977 22.9194 11.6977H35.3763C35.5255 11.6977 35.6685 11.757 35.774 11.8625C35.8795 11.9679 35.9387 12.111 35.9387 12.2601C35.9387 12.4093 35.8795 12.5523 35.774 12.6578C35.6685 12.7633 35.5255 12.8225 35.3763 12.8225Z" fill="#ECECFF"/>
<path d="M38.447 30.369H8.47161C8.10618 30.369 7.75571 30.5142 7.49731 30.7726C7.23892 31.031 7.09375 31.3814 7.09375 31.7469C7.09375 32.1123 7.23892 32.4628 7.49731 32.7212C7.75571 32.9796 8.10618 33.1247 8.47161 33.1247H39.5155C39.881 33.1247 40.2314 32.9796 40.4898 32.7212C40.7482 32.4628 40.8934 32.1123 40.8934 31.7469C40.8934 31.3814 40.7482 31.031 40.4898 30.7726C40.2314 30.5142 39.881 30.369 39.5155 30.369H38.447ZM15.2484 46.8752L18.5103 37.6239H16.4575L13.1957 46.8752H15.2484ZM22.9532 37.6239V46.8752H25.034V37.6239H22.9532Z" fill="#C57D4F"/>
<path d="M29.5312 37.6239L32.765 46.8752H34.7896L31.5559 37.6239H29.5312Z" fill="#C57D4F" stroke="#C57D4F" stroke-width="0.0843585"/>
</g>
<defs>
<clipPath id="clip0_1236_6323">
<rect width="48" height="48" fill="white"/>
</clipPath>
</defs>
</svg>
