<svg width="48" height="48" viewBox="0 0 48 48" fill="none" xmlns="http://www.w3.org/2000/svg">
<g clip-path="url(#clip0_1236_6349)">
<path d="M32.8569 10.5L32.4069 12.735C32.0019 12.285 31.4094 12 30.7494 12H29.9994V9.74998C29.9994 9.15324 29.7624 8.58094 29.3404 8.15899C28.9185 7.73703 28.3462 7.49998 27.7494 7.49998H20.2494C19.6527 7.49998 19.0804 7.73703 18.6584 8.15899C18.2365 8.58094 17.9994 9.15324 17.9994 9.74998V12H17.2494C16.5894 12 15.9969 12.285 15.5919 12.735L15.0894 10.23C14.8788 9.15527 15.0429 8.04082 15.5544 7.07248C15.9219 6.39748 16.4469 5.80498 17.1069 5.36998L17.2494 5.27248C17.6994 4.13998 18.4794 3.20248 19.4469 2.54998C20.4328 1.87793 21.5988 1.51975 22.7919 1.52248H25.4919C29.6394 1.52248 32.9994 4.88248 32.9994 9.02998C32.9994 9.52498 32.9469 10.02 32.8569 10.5Z" fill="#B27946"/>
<path d="M33 34.5001V46.5001H15V34.5001L12.63 37.3426C12.1986 37.8608 11.6586 38.2779 11.0482 38.5643C10.4377 38.8507 9.77179 38.9995 9.0975 39.0001C6.555 39.0001 4.5 36.9451 4.5 34.4026V25.5001H9L10.2975 30.6826C12.4056 27.276 15.6909 24.762 19.53 23.6176L19.7475 26.4526L19.9425 28.9726C20.0446 30.3137 20.5609 31.5901 21.42 32.6251C22.1086 33.4571 22.996 34.102 24 34.5001C25.004 34.102 25.8914 33.4571 26.58 32.6251C27.4378 31.5893 27.954 30.3134 28.0575 28.9726L28.2525 26.4526L28.47 23.6176C32.3091 24.762 35.5944 27.276 37.7025 30.6826L39 25.5001H43.5V34.4026C43.5 36.9451 41.445 39.0001 38.9025 39.0001C37.5375 39.0001 36.2475 38.3926 35.37 37.3426L33 34.5001Z" fill="#B4DD7F"/>
<path d="M24.7519 27.75L26.5819 32.625C25.8933 33.4571 25.0059 34.102 24.0019 34.5C22.9978 34.102 22.1105 33.4571 21.4219 32.625L23.2519 27.75H24.7519Z" fill="#FF826E"/>
<path d="M25.875 25.5L24.75 27.75H23.25L22.125 25.5L24 24.75L25.875 25.5Z" fill="#FC6E51"/>
<path d="M28.255 26.4525L28.06 28.9725C27.9565 30.3134 27.4403 31.5893 26.5825 32.625L24.7525 27.75L25.8775 25.5L28.255 26.4525ZM22.1275 25.5L23.2525 27.75L21.4225 32.625C20.5634 31.59 20.0471 30.3137 19.945 28.9725L19.75 26.4525L22.1275 25.5Z" fill="#FCD770"/>
<path d="M24 24.75L27 23.25C27.495 23.3475 27.99 23.475 28.47 23.6175L28.2525 26.4525L25.875 25.5L24 24.75ZM21 23.25L24 24.75L22.125 25.5L19.7475 26.4525L19.53 23.6175C20.01 23.475 20.505 23.3475 21 23.25ZM46.5 20.25V21.75C46.5 22.1625 46.1625 22.5 45.75 22.5H38.25C37.8375 22.5 37.5 22.1625 37.5 21.75V20.25C37.5 19.8375 37.8375 19.5 38.25 19.5H45.75C46.1625 19.5 46.5 19.8375 46.5 20.25ZM10.5 17.25V18.75C10.5 19.1625 10.1625 19.5 9.75 19.5H2.25C1.8375 19.5 1.5 19.1625 1.5 18.75V17.25C1.5 16.8375 1.8375 16.5 2.25 16.5H9.75C10.1625 16.5 10.5 16.8375 10.5 17.25Z" fill="#FFC729"/>
<path d="M46.5 17.25V18.75C46.5 19.1625 46.1625 19.5 45.75 19.5H38.25C37.8375 19.5 37.5 19.1625 37.5 18.75V17.25C37.5 16.8375 37.8375 16.5 38.25 16.5H45.75C46.1625 16.5 46.5 16.8375 46.5 17.25ZM10.5 20.25V21.75C10.5 22.1625 10.1625 22.5 9.75 22.5H2.25C1.8375 22.5 1.5 22.1625 1.5 21.75V20.25C1.5 19.8375 1.8375 19.5 2.25 19.5H9.75C10.1625 19.5 10.5 19.8375 10.5 20.25ZM10.5 14.25V15.75C10.5 16.1625 10.1625 16.5 9.75 16.5H2.25C1.8375 16.5 1.5 16.1625 1.5 15.75V14.25C1.5 13.8375 1.8375 13.5 2.25 13.5H9.75C10.1625 13.5 10.5 13.8375 10.5 14.25Z" fill="#FCD770"/>
<path d="M39 24C39 23.175 39.675 22.5 40.5 22.5H45.75C46.1625 22.5 46.5 22.8375 46.5 23.25C46.5 24.495 45.495 25.5 44.25 25.5H39V24ZM26.415 20.91L27 23.25L24 24.75L21 23.25L21.585 20.91C21.8775 20.97 22.185 21 22.5 21H25.5C25.815 21 26.1225 20.97 26.415 20.91ZM32.4075 12.735C32.775 13.1325 33 13.665 33 14.25C33 14.8725 32.745 15.435 32.34 15.84C31.935 16.245 31.3725 16.5 30.75 16.5H30V12H30.75C31.41 12 32.0025 12.285 32.4075 12.735ZM15.5925 12.735C15.9975 12.285 16.59 12 17.25 12H18V16.5H17.25C16.6275 16.5 16.065 16.245 15.66 15.84C15.255 15.435 15 14.8725 15 14.25C15 13.665 15.225 13.1325 15.5925 12.735Z" fill="#F0D0B4"/>
<path d="M30 12V16.5C30 18.6675 28.4625 20.4825 26.415 20.91C26.1225 20.97 25.815 21 25.5 21H22.5C22.185 21 21.8775 20.97 21.585 20.91C20.5723 20.6975 19.6634 20.1434 19.0107 19.3405C18.358 18.5376 18.0012 17.5347 18 16.5V9.75C18 9.15326 18.2371 8.58097 18.659 8.15901C19.081 7.73705 19.6533 7.5 20.25 7.5H27.75C28.3467 7.5 28.919 7.73705 29.341 8.15901C29.7629 8.58097 30 9.15326 30 9.75V12ZM9 24V25.5H3.75C2.505 25.5 1.5 24.495 1.5 23.25C1.5 22.8375 1.8375 22.5 2.25 22.5H7.5C8.325 22.5 9 23.175 9 24Z" fill="#F0D0B4"/>
<path d="M21 12.75C21.4142 12.75 21.75 12.4142 21.75 12C21.75 11.5858 21.4142 11.25 21 11.25C20.5858 11.25 20.25 11.5858 20.25 12C20.25 12.4142 20.5858 12.75 21 12.75Z" fill="black"/>
<path d="M27 12.75C27.4142 12.75 27.75 12.4142 27.75 12C27.75 11.5858 27.4142 11.25 27 11.25C26.5858 11.25 26.25 11.5858 26.25 12C26.25 12.4142 26.5858 12.75 27 12.75Z" fill="black"/>
<path d="M27.7513 15.75H26.2513C26.2513 16.5772 25.5786 17.25 24.7513 17.25H21.7513V18.75H24.7513C26.4058 18.75 27.7513 17.4045 27.7513 15.75ZM21.0703 5.58822L22.4113 4.91772L24.6598 9.41547L23.3188 10.086L21.0703 5.58822ZM24.8188 5.58897L26.1598 4.91847L28.4083 9.41622L27.0673 10.0867L24.8188 5.58897Z" fill="black"/>
<path d="M24 38.25C24.4142 38.25 24.75 37.9142 24.75 37.5C24.75 37.0858 24.4142 36.75 24 36.75C23.5858 36.75 23.25 37.0858 23.25 37.5C23.25 37.9142 23.5858 38.25 24 38.25Z" fill="black"/>
<path d="M24 42.75C24.4142 42.75 24.75 42.4142 24.75 42C24.75 41.5858 24.4142 41.25 24 41.25C23.5858 41.25 23.25 41.5858 23.25 42C23.25 42.4142 23.5858 42.75 24 42.75Z" fill="black"/>
<path d="M41.25 12.612V14.25H42.75V12.75H44.25V10.5C44.25 9.2595 43.2405 8.25 42 8.25C41.586 8.25 41.25 7.91325 41.25 7.5V6.75H42C42.414 6.75 42.75 7.08675 42.75 7.5V8.25H44.25V7.5C44.2485 7.0362 44.1035 6.58422 43.835 6.20609C43.5664 5.82795 43.1874 5.54219 42.75 5.388V3.75H41.25V5.25H39.75V7.5C39.75 8.7405 40.7595 9.75 42 9.75C42.414 9.75 42.75 10.0868 42.75 10.5V11.25H42C41.586 11.25 41.25 10.9132 41.25 10.5V9.75H39.75V10.5C39.75 11.4765 40.3792 12.3015 41.25 12.612Z" fill="black"/>
<path d="M47.25 17.2499C47.25 16.4227 46.5773 15.7499 45.75 15.7499H38.25C37.4227 15.7499 36.75 16.4227 36.75 17.2499V18.7499C36.75 19.0244 36.8295 19.2787 36.9585 19.4999C36.8235 19.7269 36.7515 19.9858 36.75 20.2499V21.7499C36.75 22.5772 37.4227 23.2499 38.25 23.2499H38.388C38.2992 23.4901 38.2525 23.7439 38.25 23.9999V25.4077L37.3792 28.8929C34.9504 25.7339 31.4994 23.517 27.6165 22.6214L27.315 21.4199C28.2001 21.0919 28.9805 20.5315 29.5744 19.7978C30.1682 19.0641 30.5536 18.184 30.69 17.2499H30.75C32.4045 17.2499 33.75 15.9044 33.75 14.2499C33.75 13.6147 33.549 13.0274 33.2107 12.5422L33.5895 10.6499C33.696 10.1167 33.75 9.5722 33.75 9.03145C33.75 4.47895 30.0465 0.774697 25.4933 0.774697H22.7887C21.4862 0.770286 20.2108 1.14676 19.1195 1.8578C18.0281 2.56884 17.1685 3.58342 16.6462 4.7767C15.907 5.27818 15.3019 5.95332 14.8842 6.74295C14.4664 7.53258 14.2487 8.41261 14.25 9.30595C14.25 9.6652 14.286 10.0267 14.3565 10.3814L14.7892 12.5429C14.4383 13.043 14.25 13.639 14.25 14.2499C14.25 15.9044 15.5955 17.2499 17.25 17.2499H17.31C17.4464 18.184 17.8318 19.0641 18.4256 19.7978C19.0195 20.5315 19.7999 21.0919 20.685 21.4199L20.3843 22.6214C16.5014 23.5171 13.0504 25.734 10.6215 28.8929L9.75 25.4077V23.9999C9.75 23.7359 9.696 23.4854 9.612 23.2499H9.75C10.5773 23.2499 11.25 22.5772 11.25 21.7499V20.2499C11.25 19.9754 11.1705 19.7212 11.0415 19.4999C11.1705 19.2787 11.25 19.0244 11.25 18.7499V17.2499C11.25 16.9754 11.1705 16.7212 11.0415 16.4999C11.1705 16.2787 11.25 16.0244 11.25 15.7499V14.2499C11.25 13.4227 10.5773 12.7499 9.75 12.7499H2.25C1.42275 12.7499 0.75 13.4227 0.75 14.2499V15.7499C0.75 16.0244 0.8295 16.2787 0.9585 16.4999C0.823478 16.7269 0.7515 16.9858 0.75 17.2499V18.7499C0.75 19.0244 0.8295 19.2787 0.9585 19.4999C0.823478 19.7269 0.7515 19.9858 0.75 20.2499V21.7499C0.75 22.0244 0.8295 22.2787 0.9585 22.4999C0.823478 22.7269 0.7515 22.9858 0.75 23.2499C0.75 24.9044 2.0955 26.2499 3.75 26.2499V34.4032C3.75159 35.8208 4.31541 37.1798 5.31778 38.1822C6.32015 39.1845 7.67919 39.7484 9.09675 39.7499C9.88076 39.7508 10.6553 39.5789 11.3654 39.2465C12.0755 38.9142 12.7037 38.4295 13.2052 37.827L14.25 36.5722V47.2499H33.75V36.5722L34.7955 37.8262C35.2967 38.429 35.9247 38.914 36.6347 39.2465C37.3447 39.579 38.1193 39.7509 38.9032 39.7499C40.3208 39.7484 41.6799 39.1845 42.6822 38.1822C43.6846 37.1798 44.2484 35.8208 44.25 34.4032V26.2499C45.9045 26.2499 47.25 24.9044 47.25 23.2499C47.25 22.9754 47.1705 22.7212 47.0415 22.4999C47.1705 22.2787 47.25 22.0244 47.25 21.7499V20.2499C47.25 19.9754 47.1705 19.7212 47.0415 19.4999C47.1705 19.2787 47.25 19.0244 47.25 18.7499V17.2499ZM38.25 17.2499H45.75V18.7499H38.25V17.2499ZM38.25 20.2499H45.75L45.7507 21.7499H38.25V20.2499ZM20.913 24.0449L22.1707 24.6734L20.4158 25.3754L20.325 24.1942C20.5208 24.1439 20.7143 24.0877 20.913 24.0449ZM24.2858 26.9999H23.7135L23.16 25.8937L24 25.5577L24.8392 25.8937L24.2858 26.9999ZM21.7628 26.4524L22.4325 27.7927L21.243 30.9644C20.9326 30.3215 20.7444 29.6264 20.688 28.9147L20.5365 26.9429L21.7628 26.4524ZM23.7698 28.4999H24.2302L25.7152 32.4607C25.224 32.9709 24.6424 33.3857 24 33.6839C23.3576 33.3857 22.776 32.9709 22.2847 32.4607L23.7698 28.4999ZM26.757 30.9652L25.5675 27.7934L26.2373 26.4532L27.4635 26.9437L27.312 28.9154C27.2556 29.6272 27.0674 30.3222 26.757 30.9652ZM27.5842 25.3754L25.8293 24.6734L27.087 24.0449C27.285 24.0877 27.4793 24.1439 27.675 24.1949L27.5842 25.3754ZM30.75 15.7499V12.7499C31.5772 12.7499 32.25 13.4227 32.25 14.2499C32.25 15.0772 31.5772 15.7499 30.75 15.7499ZM15.75 14.2499C15.75 13.4227 16.4227 12.7499 17.25 12.7499V15.7499C16.4227 15.7499 15.75 15.0772 15.75 14.2499ZM18.75 16.4999V9.74995C18.75 8.9227 19.4228 8.24995 20.25 8.24995V6.74995C18.5955 6.74995 17.25 8.09545 17.25 9.74995V11.2499C16.8442 11.2499 16.4588 11.3324 16.1055 11.4794L15.8265 10.0882C15.7757 9.83054 15.7501 9.56856 15.75 9.30595C15.75 7.9717 16.413 6.7342 17.523 5.99395L17.8597 5.76895L17.946 5.55295C18.3303 4.58322 18.9977 3.75173 19.8614 3.16684C20.7251 2.58196 21.7449 2.27081 22.788 2.27395H25.4925C29.2185 2.27395 32.2493 5.30545 32.2493 9.0307C32.2493 9.4732 32.205 9.91945 32.118 10.3559L31.893 11.4787C31.5308 11.3278 31.1424 11.25 30.75 11.2499V9.74995H29.25V16.4999C29.25 18.5677 27.5677 20.2499 25.5 20.2499H22.5C20.4323 20.2499 18.75 18.5677 18.75 16.4999ZM22.5 21.7499H25.5C25.617 21.7499 25.7318 21.7402 25.8473 21.7327L26.1262 22.8487L24 23.9114L21.8738 22.8487L22.1528 21.7327C22.2683 21.7402 22.383 21.7499 22.5 21.7499ZM9.75 21.7499H2.25V20.2499H9.75V21.7499ZM2.25 17.2499H9.75V18.7499H2.25V17.2499ZM2.25 14.2499H9.75V15.7499H2.25V14.2499ZM2.25 23.2499H7.5C7.914 23.2499 8.25 23.5867 8.25 23.9999V24.7499H3.75C2.92275 24.7499 2.25 24.0772 2.25 23.2499ZM42.75 34.4032C42.7488 35.4231 42.3431 36.4008 41.622 37.1219C40.9009 37.8431 39.9231 38.2488 38.9032 38.2499C38.3392 38.2506 37.782 38.1269 37.2712 37.8876C36.7604 37.6483 36.3087 37.2993 35.9482 36.8654L33.75 34.2277V30.7499H32.25V45.7499H15.75V30.7499H14.25V34.2277L12.0518 36.8654C11.6913 37.2993 11.2396 37.6483 10.7288 37.8876C10.218 38.1269 9.66079 38.2506 9.09675 38.2499C8.07689 38.2488 7.09915 37.8431 6.378 37.1219C5.65686 36.4008 5.25119 35.4231 5.25 34.4032V26.2499H8.43525L10.5225 34.6814L11.9767 34.3184L11.1038 30.8257C12.9513 27.9831 15.6712 25.8166 18.855 24.6517L19.1917 29.0309C19.2903 30.3806 19.7676 31.6752 20.5688 32.7658C21.37 33.8565 22.4625 34.699 23.721 35.1967L24 35.3077L24.2782 35.1967C25.5368 34.6992 26.6295 33.8567 27.4307 32.766C28.2319 31.6753 28.7091 30.3807 28.8075 29.0309L29.1443 24.6517C32.3281 25.8166 35.048 27.9831 36.8955 30.8257L36.0225 34.3184L37.4768 34.6814L39.585 26.2499H42.75V34.4032ZM44.25 24.7499H39.7402L39.75 23.9999C39.75 23.5867 40.086 23.2499 40.5 23.2499H45.75C45.75 24.0772 45.0773 24.7499 44.25 24.7499Z" fill="black"/>
<path d="M5.25 9.612V11.25H6.75V9.75H8.25V7.5C8.25 6.2595 7.2405 5.25 6 5.25C5.586 5.25 5.25 4.91325 5.25 4.5V3.75H6C6.414 3.75 6.75 4.08675 6.75 4.5V5.25H8.25V4.5C8.24851 4.0362 8.10354 3.58422 7.83498 3.20609C7.56642 2.82795 7.18742 2.54219 6.75 2.388V0.75H5.25V2.25H3.75V4.5C3.75 5.7405 4.7595 6.75 6 6.75C6.414 6.75 6.75 7.08675 6.75 7.5V8.25H6C5.586 8.25 5.25 7.91325 5.25 7.5V6.75H3.75V7.5C3.75 8.4765 4.37925 9.3015 5.25 9.612Z" fill="black"/>
</g>
<defs>
<clipPath id="clip0_1236_6349">
<rect width="48" height="48" fill="white"/>
</clipPath>
</defs>
</svg>
