<svg width="48" height="48" viewBox="0 0 48 48" fill="none" xmlns="http://www.w3.org/2000/svg">
<path d="M44.9184 38.3219H3.07996C1.76728 38.3219 0.703125 37.2577 0.703125 35.945V32.2804H47.2952V35.945C47.2953 37.2577 46.2311 38.3219 44.9184 38.3219Z" fill="#D9E7EC"/>
<path d="M0.703125 32.2804V8.1139C0.703125 6.80121 1.76728 5.73706 3.07996 5.73706H44.9184C46.2311 5.73706 47.2953 6.80121 47.2953 8.1139V32.2804H0.703125Z" fill="#596C76"/>
<path d="M0.703125 32.2804V8.1139C0.703125 6.80121 1.76728 5.73706 3.07996 5.73706H44.9184C46.2311 5.73706 47.2953 6.80121 47.2953 8.1139V32.2804H0.703125Z" fill="#596C76"/>
<path d="M47.3014 8.11352V32.2808H45.4243V8.11352C45.4243 6.8014 44.3599 5.73706 43.0469 5.73706H44.924C46.2371 5.73706 47.3014 6.8014 47.3014 8.11352Z" fill="#465A61"/>
<path d="M47.2934 32.2804V35.9446C47.2934 37.2576 46.2291 38.322 44.916 38.322H43.0389C44.351 38.322 45.4154 37.2576 45.4154 35.9446V32.2804H47.2934ZM28.5418 38.322H19.4529C19.4529 38.322 19.3679 43.6691 18.6875 45.6223H29.3072C28.6269 43.6691 28.5418 38.322 28.5418 38.322Z" fill="#C5D3DD"/>
<path d="M28.613 40.1995H19.3906C19.4451 39.1136 19.4573 38.3224 19.4573 38.3224H28.5464C28.5464 38.3224 28.5586 39.1136 28.613 40.1995Z" fill="#C8EFFE"/>
<path d="M28.613 40.1995H19.3906C19.4451 39.1136 19.4573 38.3224 19.4573 38.3224H28.5464C28.5464 38.3224 28.5586 39.1136 28.613 40.1995Z" fill="#B6C4CF"/>
<path d="M44.3631 32.2803H3.64062V10.0049C3.64062 9.43092 4.10597 8.96558 4.68 8.96558H43.3238C43.8978 8.96558 44.3631 9.43092 44.3631 10.0049V32.2803Z" fill="#C8EFFE"/>
<path d="M44.3615 10.0056V32.2804H42.4843V10.0056C42.4843 9.43117 42.0188 8.96564 41.4453 8.96564H43.3225C43.8959 8.96554 44.3615 9.43117 44.3615 10.0056Z" fill="#99E6FC"/>
<path d="M40.5416 32.2805H7.46875V3.38527C7.46875 2.82888 7.91983 2.37781 8.47621 2.37781H39.5342C40.0906 2.37781 40.5416 2.82888 40.5416 3.38527V32.2805Z" fill="#F5F8F9"/>
<path d="M40.5414 3.38502V32.2808H38.6643V3.38502C38.6643 2.82844 38.2128 2.37793 37.6562 2.37793H39.5334C40.09 2.37793 40.5414 2.82844 40.5414 3.38502Z" fill="#E8EDF2"/>
<path d="M40.5416 7.27414H7.46875V3.38527C7.46875 2.82888 7.91983 2.37781 8.47621 2.37781H39.5342C40.0906 2.37781 40.5416 2.82888 40.5416 3.38527V7.27414Z" fill="#FDB441"/>
<path d="M40.5414 3.38502V7.27445H38.6643V3.38502C38.6643 2.82844 38.2128 2.37793 37.6562 2.37793H39.5334C40.09 2.37793 40.5414 2.82844 40.5414 3.38502Z" fill="#FEA613"/>
<path d="M23.9944 28.4123C28.7634 28.4123 32.6294 24.5462 32.6294 19.7772C32.6294 15.0082 28.7634 11.1422 23.9944 11.1422C19.2254 11.1422 15.3594 15.0082 15.3594 19.7772C15.3594 24.5462 19.2254 28.4123 23.9944 28.4123Z" fill="#9CF8D2"/>
<path d="M32.6361 19.7773C32.6361 24.5462 28.7701 28.4121 24.0012 28.4121C22.1748 28.4121 20.4807 27.8452 19.0859 26.8757C20.0958 27.2905 21.2015 27.5196 22.3615 27.5196C27.1304 27.5196 30.9964 23.6536 30.9964 18.8847C30.9964 15.9432 29.5257 13.3453 27.2797 11.7872C30.4229 13.0777 32.6361 16.1694 32.6361 19.7773Z" fill="#00F2A6"/>
<path d="M22.3926 36.005H25.5971C25.9858 36.005 26.301 35.6899 26.301 35.3011C26.301 34.9122 25.9858 34.5972 25.5971 34.5972H22.3926C22.0039 34.5972 21.6887 34.9122 21.6887 35.3011C21.6887 35.6899 22.0039 36.005 22.3926 36.005ZM29.3268 21.6115L30.7445 19.746C30.8534 19.5971 30.8996 19.4114 30.873 19.2288C30.8464 19.0462 30.7492 18.8814 30.6023 18.7698C30.4554 18.6581 30.2706 18.6086 30.0875 18.6319C29.9045 18.6551 29.7379 18.7493 29.6236 18.8941L29.539 19.0055C29.2154 16.1453 26.7822 13.9149 23.8368 13.9149C22.3293 13.9149 20.9052 14.4949 19.8267 15.5478C19.6932 15.6783 19.6169 15.8564 19.6147 16.0431C19.6125 16.2298 19.6845 16.4097 19.8149 16.5433C19.9454 16.6769 20.1235 16.7531 20.3102 16.7554C20.4969 16.7576 20.6768 16.6856 20.8104 16.5551C21.6242 15.7603 22.6991 15.3227 23.8368 15.3227C26.0737 15.3227 27.9199 17.0268 28.1455 19.2051L27.9091 18.894C27.7948 18.7492 27.6282 18.655 27.4452 18.6318C27.2621 18.6085 27.0773 18.658 26.9304 18.7697C26.7835 18.8813 26.6863 19.0461 26.6597 19.2287C26.6331 19.4113 26.6793 19.597 26.7882 19.7459L28.2059 21.6114C28.2716 21.6978 28.3563 21.7678 28.4535 21.8161C28.5508 21.8643 28.6578 21.8894 28.7663 21.8894C28.8748 21.8894 28.9819 21.8643 29.0791 21.8161C29.1763 21.7679 29.2611 21.6979 29.3268 21.6115ZM20.6415 20.9382C20.7726 20.9381 20.901 20.9014 21.0123 20.8323C21.1236 20.7631 21.2134 20.6643 21.2716 20.5468C21.3298 20.4294 21.3541 20.2981 21.3417 20.1676C21.3293 20.0372 21.2807 19.9127 21.2015 19.8084L19.7838 17.9429C19.7181 17.8565 19.6333 17.7864 19.5361 17.7382C19.4389 17.69 19.3319 17.6649 19.2233 17.6649C19.1148 17.6649 19.0078 17.69 18.9106 17.7382C18.8133 17.7864 18.7286 17.8565 18.6629 17.9429L17.2452 19.8084C17.1363 19.9573 17.0901 20.143 17.1167 20.3256C17.1433 20.5081 17.2405 20.673 17.3874 20.7846C17.5343 20.8962 17.7191 20.9458 17.9022 20.9225C18.0852 20.8992 18.2518 20.8051 18.366 20.6602L18.4507 20.5488C18.7744 23.4091 21.2075 25.6394 24.1528 25.6394C25.6603 25.6394 27.0844 25.0594 28.1629 24.0064C28.2964 23.876 28.3727 23.6978 28.3749 23.5111C28.3771 23.3244 28.3051 23.1445 28.1746 23.0109C28.0442 22.8774 27.866 22.8011 27.6793 22.7989C27.4926 22.7967 27.3127 22.8687 27.1791 22.9992C26.3653 23.794 25.2905 24.2317 24.1527 24.2317C21.9159 24.2317 20.0697 22.5274 19.844 20.3493L20.0804 20.6603C20.1462 20.7468 20.231 20.8169 20.3284 20.8652C20.4257 20.9134 20.5329 20.9384 20.6415 20.9382Z" fill="black"/>
<path d="M23.9951 10.4384C18.8457 10.4384 14.6562 14.6279 14.6562 19.7773C14.6562 24.9268 18.8457 29.1162 23.9951 29.1162C27.0703 29.1162 29.9482 27.6019 31.6936 25.0655C31.7962 24.9116 31.8342 24.7236 31.7993 24.5419C31.7644 24.3603 31.6594 24.1997 31.507 24.0948C31.3547 23.99 31.1672 23.9493 30.985 23.9816C30.8029 24.0138 30.6408 24.1165 30.5338 24.2673C29.0512 26.422 26.6068 27.7083 23.9951 27.7083C19.6219 27.7083 16.0641 24.1505 16.0641 19.7773C16.0641 15.404 19.6219 11.8462 23.9951 11.8462C28.3683 11.8462 31.9261 15.404 31.9261 19.7773C31.9261 20.3518 31.8645 20.9249 31.7429 21.4805C31.7232 21.5708 31.7214 21.6641 31.7377 21.7551C31.754 21.8461 31.7881 21.933 31.838 22.0108C31.8878 22.0886 31.9526 22.1559 32.0284 22.2087C32.1043 22.2615 32.1899 22.2988 32.2802 22.3186C32.3705 22.3384 32.4638 22.3402 32.5548 22.3239C32.6458 22.3076 32.7327 22.2735 32.8106 22.2236C32.8884 22.1737 32.9557 22.1089 33.0085 22.0331C33.0613 21.9572 33.0986 21.8716 33.1183 21.7813C33.2619 21.1229 33.3342 20.451 33.334 19.7772C33.334 14.6278 29.1446 10.4384 23.9951 10.4384Z" fill="black"/>
<path d="M44.9192 5.03319H41.2404V3.38525C41.2404 2.44161 40.4727 1.67395 39.529 1.67395H22.3732C21.9844 1.67395 21.6692 1.98903 21.6692 2.37788C21.6692 2.76673 21.9844 3.08181 22.3732 3.08181H39.5289C39.6094 3.08188 39.6865 3.11387 39.7434 3.17076C39.8004 3.22765 39.8324 3.30478 39.8325 3.38525V6.57019H8.16753V3.38525C8.16763 3.30478 8.19965 3.22765 8.25655 3.17076C8.31346 3.11387 8.3906 3.08188 8.47107 3.08181H19.0849C19.4736 3.08181 19.7888 2.76673 19.7888 2.37788C19.7888 1.98903 19.4736 1.67395 19.0849 1.67395H8.47097C7.52734 1.67395 6.75958 2.4417 6.75958 3.38525V5.03319H3.08076C1.38205 5.03319 0 6.41514 0 8.11386V35.945C0 37.6437 1.38205 39.0257 3.08076 39.0257H18.7337C18.6813 40.6326 18.5212 43.412 18.1602 44.918H15.7207C15.3319 44.918 15.0168 45.2331 15.0168 45.622C15.0168 46.0108 15.3319 46.3259 15.7207 46.3259H32.2793C32.6681 46.3259 32.9832 46.0108 32.9832 45.622C32.9832 45.2331 32.6681 44.918 32.2793 44.918H29.8398C29.4791 43.4124 29.3188 40.6327 29.2663 39.0257H44.9191C46.6179 39.0257 47.9999 37.6436 47.9999 35.945V8.11386C48 6.41514 46.618 5.03319 44.9192 5.03319ZM41.2404 9.66916H43.322C43.4109 9.66924 43.4962 9.70459 43.5591 9.76746C43.6219 9.83033 43.6573 9.91559 43.6574 10.0045V31.576H41.2405V9.66916H41.2404ZM8.16753 7.97805H39.8326V31.5761H8.16753V7.97805ZM1.40786 8.11386C1.40786 7.19143 2.15834 6.44104 3.08076 6.44104H6.75968V8.26131H4.67812C3.71683 8.26131 2.93482 9.04332 2.93482 10.0045V31.5764H1.40786V8.11386ZM6.75968 9.66916V31.576H4.34267V10.0046C4.34277 9.91568 4.37815 9.83043 4.44104 9.76756C4.50393 9.70468 4.58919 9.66933 4.67812 9.66926H6.75968V9.66916ZM19.6005 44.9182C19.9729 43.0952 20.101 40.3141 20.1418 39.0259H27.8581C27.899 40.3141 28.027 43.0952 28.3994 44.9182H19.6005ZM46.5921 35.9451C46.5921 36.8675 45.8417 37.6179 44.9192 37.6179H3.08076C2.15834 37.6179 1.40786 36.8675 1.40786 35.9451V32.9844H46.5921V35.9451ZM46.5921 31.5764H45.0652V10.0046C45.0652 9.04342 44.2832 8.2614 43.3219 8.2614H41.2403V6.44104H44.9191C45.8416 6.44104 46.592 7.19143 46.592 8.11386L46.5921 31.5764Z" fill="black"/>
</svg>
