<svg width="32" height="32" fill="none" xmlns="http://www.w3.org/2000/svg"><path fill-rule="evenodd" clip-rule="evenodd" d="M15.851 19.219h.488c2.574.018 8.456.278 8.456 4.265 0 3.961-5.677 4.22-8.416 4.236h-1.015c-2.574-.017-8.458-.276-8.458-4.259 0-3.966 5.884-4.224 8.458-4.241l.337-.001h.15zm0 2c-3.168 0-6.945.389-6.945 2.242 0 1.812 3.552 2.235 6.656 2.26h.29c3.167 0 6.943-.388 6.943-2.237 0-1.872-3.776-2.265-6.944-2.265zm10.605-2.541c3.23.484 3.91 2.001 3.91 3.189 0 .725-.286 2.05-2.192 2.776a1 1 0 0 1-.712-1.87c.904-.343.904-.723.904-.906 0-.584-.743-.992-2.207-1.21a1.002 1.002 0 0 1-.841-1.14c.08-.546.587-.91 1.138-.84zm-20.072.84a1.002 1.002 0 0 1-.841 1.138c-1.464.219-2.207.627-2.207 1.211 0 .183 0 .561.905.907a1 1 0 1 1-.712 1.869c-1.908-.728-2.193-2.052-2.193-2.776 0-1.187.679-2.705 3.91-3.19.551-.069 1.055.294 1.138.84zM15.85 5.333a6.099 6.099 0 0 1 6.092 6.092 6.099 6.099 0 0 1-6.092 6.092h-.036a6.027 6.027 0 0 1-4.292-1.794 6.025 6.025 0 0 1-1.762-4.302 6.098 6.098 0 0 1 6.09-6.088zm0 2a4.096 4.096 0 0 0-4.09 4.092 4.043 4.043 0 0 0 1.181 2.888 4.048 4.048 0 0 0 2.876 1.204l.033 1v-1a4.096 4.096 0 0 0 4.092-4.092 4.097 4.097 0 0 0-4.092-4.092zm8.252-.694a4.815 4.815 0 0 1 4.047 4.768 4.857 4.857 0 0 1-4.16 4.779 1 1 0 0 1-.276-1.981 2.844 2.844 0 0 0 2.436-2.8 2.82 2.82 0 0 0-2.372-2.792 1 1 0 0 1 .325-1.974zM8.75 7.463a1 1 0 0 1-.824 1.15 2.821 2.821 0 0 0-2.372 2.794 2.842 2.842 0 0 0 2.434 2.798 1 1 0 1 1-.276 1.981 4.855 4.855 0 0 1-4.158-4.776 4.815 4.815 0 0 1 4.046-4.77.995.995 0 0 1 1.15.823z" fill="#30CBFF"/></svg>