<svg width="32" height="32" fill="none" xmlns="http://www.w3.org/2000/svg"><path fill-rule="evenodd" clip-rule="evenodd" d="M22.187 4c4.41 0 7.996 3.587 7.996 7.998v9.569c0 4.41-3.587 7.997-7.996 7.997H10.66c-4.409 0-7.997-3.588-7.997-7.997v-9.57C2.664 7.588 6.252 4 10.661 4h11.526zm0 2H10.66a6.004 6.004 0 0 0-5.997 5.998v9.569a6.004 6.004 0 0 0 5.997 5.997h11.526a6.003 6.003 0 0 0 5.996-5.997v-.373h-4.398a4.594 4.594 0 0 1-4.589-4.585c0-2.53 2.059-4.59 4.59-4.59l4.397-.002v-.02A6.003 6.003 0 0 0 22.187 6zm5.996 8.017l-4.398.001a2.594 2.594 0 0 0-2.589 2.59 2.592 2.592 0 0 0 2.59 2.586h4.397v-5.176zm-3.787 1.508a1 1 0 0 1 0 2h-.416a1 1 0 0 1 0-2h.416zM16.91 10.05a1 1 0 0 1 0 2H9.712a1 1 0 0 1 0-2h7.199z" fill="#30CBFF"/></svg>