<?xml version="1.0" encoding="utf-8"?>
<!-- Generator: Adobe Illustrator 23.0.3, SVG Export Plug-In . SVG Version: 6.00 Build 0)  -->
<svg version="1.1" id="Layer_1" xmlns="http://www.w3.org/2000/svg" xmlns:xlink="http://www.w3.org/1999/xlink" x="0px" y="0px"
	 viewBox="0 0 120 120" style="enable-background:new 0 0 120 120;" xml:space="preserve">
<style type="text/css">
	.st0{fill:#FFFFFF;}
</style>
<g>
	<polygon class="st0" points="11.2,31.9 11.2,88.6 60.3,117 109.4,88.6 109.4,31.9 60.3,3.6 	"/>
	<path d="M60.3,118.7L9.7,89.5V31.1L60.3,1.9l50.6,29.2v58.4L60.3,118.7z M12.7,87.8l47.6,27.5l47.6-27.5V32.8L60.3,5.3L12.7,32.8
		V87.8z"/>
</g>
<g>
	<path d="M40.1,82.4c3.9,2.5,10.8,5.3,17.4,5.3c9.6,0,14.1-4.8,14.1-10.8c0-6.3-3.8-9.8-13.5-13.3C45,58.9,38.9,51.7,38.9,43
		c0-11.7,9.4-21.3,25-21.3c7.3,0,13.8,2.1,17.8,4.5l-3.3,9.6c-2.8-1.8-8.1-4.2-14.8-4.2c-7.8,0-12.1,4.5-12.1,9.9
		c0,6,4.4,8.7,13.8,12.3c12.6,4.8,19,11.1,19,21.9c0,12.8-9.9,21.7-27.1,21.7c-8,0-15.3-2-20.4-4.9L40.1,82.4z"/>
</g>
</svg>
