<svg xmlns="http://www.w3.org/2000/svg" viewBox="0 0 120 120"><path fill="#fff" d="M11.2 31.9v56.7L60.3 117l49.1-28.4V31.9L60.3 3.6z"/><path d="M60.3 118.7L9.7 89.5V31.1L60.3 1.9l50.6 29.2v58.4l-50.6 29.2zM12.7 87.8l47.6 27.5 47.6-27.5v-55L60.3 5.3 12.7 32.8v55z"/><g><path d="M40.1 82.4c3.9 2.5 10.8 5.3 17.4 5.3 9.6 0 14.1-4.8 14.1-10.8 0-6.3-3.8-9.8-13.5-13.3C45 58.9 38.9 51.7 38.9 43c0-11.7 9.4-21.3 25-21.3 7.3 0 13.8 2.1 17.8 4.5l-3.3 9.6c-2.8-1.8-8.1-4.2-14.8-4.2-7.8 0-12.1 4.5-12.1 9.9 0 6 4.4 8.7 13.8 12.3 12.6 4.8 19 11.1 19 21.9 0 12.8-9.9 21.7-27.1 21.7-8 0-15.3-2-20.4-4.9l3.3-10.1z"/></g></svg>