<svg width="118" height="30" fill="none" xmlns="http://www.w3.org/2000/svg"><path d="M.32 1H6.8v22.72h14.04V29H.32V1zm37.232 28.48c-2.907 0-5.533-.627-7.88-1.88-2.32-1.253-4.147-2.973-5.48-5.16-1.307-2.213-1.96-4.693-1.96-7.44 0-2.747.653-5.213 1.96-7.4 1.333-2.213 3.16-3.947 5.48-5.2 2.347-1.253 4.973-1.88 7.88-1.88s5.52.627 7.84 1.88c2.32 1.253 4.146 2.987 5.48 5.2 1.333 2.187 2 4.653 2 7.4 0 2.747-.667 5.227-2 7.44-1.334 2.187-3.16 3.907-5.48 5.16-2.32 1.253-4.934 1.88-7.84 1.88zm0-5.52c1.653 0 3.147-.373 4.48-1.12a8.181 8.181 0 0 0 3.12-3.2c.773-1.36 1.16-2.907 1.16-4.64 0-1.733-.387-3.28-1.16-4.64a7.907 7.907 0 0 0-3.12-3.16c-1.333-.773-2.827-1.16-4.48-1.16-1.654 0-3.147.387-4.48 1.16-1.334.747-2.387 1.8-3.16 3.16-.747 1.36-1.12 2.907-1.12 4.64 0 1.733.373 3.28 1.12 4.64a8.467 8.467 0 0 0 3.16 3.2c1.333.747 2.826 1.12 4.48 1.12zm39.11-9.4h5.92v11.36c-1.52 1.147-3.28 2.027-5.28 2.64a20.5 20.5 0 0 1-6.04.92c-2.907 0-5.52-.613-7.84-1.84-2.32-1.253-4.147-2.973-5.48-5.16-1.307-2.213-1.96-4.707-1.96-7.48 0-2.773.653-5.253 1.96-7.44 1.333-2.213 3.173-3.933 5.52-5.16 2.346-1.253 4.986-1.88 7.92-1.88 2.453 0 4.68.413 6.68 1.24s3.68 2.027 5.04 3.6l-4.16 3.84c-2-2.107-4.413-3.16-7.24-3.16-1.787 0-3.373.373-4.76 1.12a8.034 8.034 0 0 0-3.24 3.16c-.773 1.36-1.16 2.92-1.16 4.68 0 1.733.386 3.28 1.16 4.64a8.383 8.383 0 0 0 3.2 3.2c1.386.747 2.96 1.12 4.72 1.12 1.867 0 3.546-.4 5.04-1.2v-8.2zm25.499 14.92c-2.906 0-5.533-.627-7.88-1.88-2.32-1.253-4.146-2.973-5.48-5.16-1.306-2.213-1.96-4.693-1.96-7.44 0-2.747.654-5.213 1.96-7.4 1.334-2.213 3.16-3.947 5.48-5.2 2.347-1.253 4.974-1.88 7.88-1.88 2.907 0 5.52.627 7.84 1.88 2.32 1.253 4.147 2.987 5.48 5.2 1.334 2.187 2 4.653 2 7.4 0 2.747-.666 5.227-2 7.44-1.333 2.187-3.16 3.907-5.48 5.16-2.32 1.253-4.933 1.88-7.84 1.88zm0-5.52c1.654 0 3.147-.373 4.48-1.12a8.172 8.172 0 0 0 3.12-3.2c.774-1.36 1.16-2.907 1.16-4.64 0-1.733-.386-3.28-1.16-4.64a7.899 7.899 0 0 0-3.12-3.16c-1.333-.773-2.826-1.16-4.48-1.16-1.653 0-3.146.387-4.48 1.16-1.333.747-2.386 1.8-3.16 3.16-.746 1.36-1.12 2.907-1.12 4.64 0 1.733.374 3.28 1.12 4.64a8.467 8.467 0 0 0 3.16 3.2c1.334.747 2.827 1.12 4.48 1.12z" fill="#000"/></svg>