<svg xmlns="http://www.w3.org/2000/svg" xmlns:xlink="http://www.w3.org/1999/xlink"><symbol id="at" viewBox="0 0 512 512"><path d="M437.02 74.981C388.668 26.629 324.381 0 256 0S123.334 26.629 74.981 74.981C26.63 123.333.001 187.62.001 256S26.63 388.667 74.982 437.02C123.334 485.371 187.621 512 256.001 512c42.42 0 84.448-10.595 121.539-30.638 7.483-4.043 10.271-13.387 6.227-20.871-4.042-7.482-13.385-10.27-20.87-6.227-32.609 17.621-69.573 26.934-106.896 26.934-124.175 0-225.199-101.023-225.199-225.198S131.826 30.802 256 30.802c124.175 0 225.198 101.024 225.198 225.198 0 29.389-7.139 64.356-13.546 77.359-5.682 11.53-21.78 27.768-39.78 27.768-23.299 0-42.255-18.955-42.255-42.254V156.484c0-8.505-6.896-15.401-15.401-15.401s-15.401 6.895-15.401 15.401v15.736c-23.794-28.021-59.26-45.837-98.815-45.837-71.47 0-129.617 58.146-129.617 129.617 0 71.47 58.145 129.617 129.617 129.617 40.84 0 77.322-18.991 101.097-48.601 8.089 31.535 36.752 54.912 70.774 54.912 29.711 0 56.402-22.615 67.41-44.954 9.375-19.024 16.718-58.984 16.718-90.973.001-68.381-26.628-132.668-74.979-181.02zM256 354.815c-54.486 0-98.815-44.328-98.815-98.815 0-54.487 44.328-98.815 98.815-98.815 54.487 0 98.815 44.328 98.815 98.815 0 54.487-44.328 98.815-98.815 98.815z"/></symbol><symbol id="dialogue" viewBox="0 -52 512 512"><g fill-rule="evenodd"><path d="M471.348 0H40.652C18.238 0 0 18.238 0 40.652V177.86c0 5.524 4.477 10 10 10s10-4.476 10-10V40.652C20 29.266 29.266 20 40.652 20h430.692C482.734 20 492 29.266 492 40.652v15.004c0 5.52 4.477 10 10 10 5.52 0 10-4.48 10-10V40.652C512 18.238 493.762 0 471.348 0zM502 125.656c-5.523 0-10 4.477-10 10V272.86c0 11.391-9.266 20.657-20.652 20.657h-277.73a10.013 10.013 0 0 0-7.071 2.93l-76.848 76.843v-69.773c0-5.524-4.476-10-10-10H40.652C29.266 293.516 20 284.25 20 272.863V257.86c0-5.52-4.477-10-10-10s-10 4.48-10 10v15.004c0 22.414 18.238 40.653 40.652 40.653H89.7v83.918a10 10 0 0 0 10 10c2.602 0 5.16-1.02 7.074-2.93l90.989-90.988h273.582c22.418 0 40.656-18.239 40.656-40.653V135.656c0-5.523-4.477-10-10-10zm0 0"/><path d="M156.613 92.172h11.051c4.274 13.785 17.145 23.824 32.313 23.824 15.171 0 28.039-10.039 32.316-23.824h123.094c5.523 0 10-4.477 10-10 0-5.52-4.477-10-10-10H232.293c-4.273-13.781-17.145-23.824-32.316-23.824-15.172 0-28.04 10.043-32.313 23.824h-11.05c-5.524 0-10 4.48-10 10 0 5.523 4.476 10 10 10zm43.364-23.824c7.625 0 13.824 6.203 13.824 13.824 0 7.625-6.2 13.824-13.824 13.824-7.622 0-13.825-6.2-13.825-13.824 0-7.621 6.203-13.824 13.825-13.824zm-43.364 98.41h126.371c4.274 13.781 17.145 23.824 32.317 23.824 15.168 0 28.039-10.043 32.312-23.824h7.774c5.523 0 10-4.477 10-10 0-5.524-4.477-10-10-10h-7.774c-4.273-13.785-17.144-23.824-32.312-23.824-15.172 0-28.04 10.039-32.317 23.824h-126.37c-5.524 0-10 4.476-10 10 0 5.523 4.476 10 10 10zm158.688-23.824c7.62 0 13.816 6.195 13.82 13.812v.02c-.004 7.62-6.2 13.816-13.82 13.816-7.625 0-13.824-6.2-13.824-13.824 0-7.621 6.199-13.824 13.824-13.824zm-158.688 98.41h67.07c4.278 13.781 17.145 23.82 32.317 23.82s28.04-10.039 32.313-23.82h67.074c5.523 0 10-4.48 10-10 0-5.524-4.477-10-10-10h-67.075c-4.273-13.785-17.14-23.824-32.312-23.824s-28.04 10.039-32.316 23.824h-67.07c-5.524 0-10 4.476-10 10 0 5.52 4.476 10 10 10zM256 217.52c7.621 0 13.816 6.195 13.824 13.812v.02c-.008 7.617-6.207 13.812-13.824 13.812s-13.816-6.195-13.824-13.812v-.02c.008-7.617 6.203-13.812 13.824-13.812zM10 227.86c5.508 0 10-4.493 10-10s-4.492-10-10-10-10 4.492-10 10 4.492 10 10 10zM502 85.656c-5.508 0-10 4.492-10 10s4.492 10 10 10 10-4.492 10-10-4.492-10-10-10zm0 0"/></g></symbol><symbol id="loupe" viewBox="0 0 512 512"><path d="M310 190c-5.52 0-10 4.48-10 10s4.48 10 10 10 10-4.48 10-10-4.48-10-10-10z"/><path d="M500.281 443.719l-133.48-133.48C388.546 277.485 400 239.555 400 200 400 89.72 310.28 0 200 0S0 89.72 0 200s89.72 200 200 200c39.556 0 77.486-11.455 110.239-33.198l36.895 36.895.016.016 96.568 96.568C451.276 507.838 461.319 512 472 512c10.681 0 20.724-4.162 28.278-11.716C507.837 492.731 512 482.687 512 472s-4.163-20.731-11.719-28.281zm-194.745-97.992l-.002.002C274.667 368.149 238.175 380 200 380c-99.252 0-180-80.748-180-180S100.748 20 200 20s180 80.748 180 180c0 38.175-11.851 74.667-34.272 105.535a180.872 180.872 0 0 1-40.192 40.192zm20.98 9.066a200.674 200.674 0 0 0 28.277-28.277l28.371 28.371a242.733 242.733 0 0 1-28.277 28.277l-28.371-28.371zm159.623 131.346c-3.78 3.78-8.801 5.861-14.139 5.861s-10.359-2.081-14.139-5.861l-88.795-88.795a262.775 262.775 0 0 0 28.277-28.277l88.798 88.798A19.846 19.846 0 0 1 492 472a19.856 19.856 0 0 1-5.861 14.139z"/><path d="M200 40c-88.225 0-160 71.775-160 160s71.775 160 160 160 160-71.775 160-160S288.225 40 200 40zm0 300c-77.196 0-140-62.804-140-140S122.804 60 200 60s140 62.804 140 140-62.804 140-140 140z"/><path d="M312.065 157.073c-8.611-22.412-23.604-41.574-43.36-55.413C248.479 87.49 224.721 80 200 80c-5.522 0-10 4.478-10 10s4.478 10 10 10c41.099 0 78.631 25.818 93.396 64.247a10.003 10.003 0 0 0 9.337 6.416 9.978 9.978 0 0 0 3.584-.668c5.155-1.981 7.729-7.766 5.748-12.922z"/></symbol><symbol id="play" viewBox="0 0 512 512"><path d="M256 512c-68.379 0-132.668-26.629-181.02-74.98C26.63 388.668 0 324.379 0 256S26.629 123.332 74.98 74.98C123.332 26.63 187.621 0 256 0s132.668 26.629 181.02 74.98C485.37 123.332 512 187.621 512 256s-26.629 132.668-74.98 181.02C388.668 485.37 324.379 512 256 512zm0-492c-63.04 0-122.305 24.547-166.879 69.121C44.547 133.695 20 192.961 20 256s24.547 122.305 69.121 166.879C133.695 467.453 192.961 492 256 492s122.305-24.547 166.879-69.121C467.453 378.305 492 319.039 492 256s-24.547-122.305-69.121-166.879C378.305 44.547 319.039 20 256 20zm0 0"/><path d="M256 462c-47.59 0-94.012-16.613-130.715-46.777-36.2-29.75-61.387-71.254-70.926-116.864-1.129-5.406 2.336-10.703 7.743-11.836 5.406-1.128 10.707 2.336 11.836 7.743 8.605 41.168 31.351 78.636 64.046 105.504C171.117 427.004 213.031 442 256 442c102.563 0 186-83.438 186-186S358.562 70 256 70c-42.914 0-84.785 14.96-117.898 42.133-32.668 26.805-55.434 64.195-64.098 105.289-1.14 5.402-6.442 8.863-11.848 7.723-5.402-1.141-8.86-6.446-7.722-11.848 9.601-45.527 34.808-86.95 70.984-116.629C162.098 66.574 208.473 50 256 50c113.59 0 206 92.41 206 206s-92.41 206-206 206zm0 0"/><path d="M207.68 340.98a22.166 22.166 0 0 1-11.29-3.078c-6.507-3.855-10.39-10.582-10.39-18V192.098c0-7.418 3.883-14.145 10.39-18 6.696-3.97 15.098-4.11 21.93-.368l116.649 63.907C341.773 241.363 346 248.398 346 256s-4.227 14.637-11.031 18.363L218.32 338.27a22.16 22.16 0 0 1-10.64 2.71zm.004-149.98c-.504 0-.907.188-1.102.305-.582.343-.582.668-.582.793v127.808c0 .121 0 .446.582.79a2.115 2.115 0 0 0 2.129.034l116.648-63.906c.575-.312.641-.62.641-.824s-.066-.508-.64-.824l-116.65-63.903a2.101 2.101 0 0 0-1.026-.273zM59.898 266c-5.523 0-10.007-4.477-10.007-10s4.472-10 9.996-10h.011c5.524 0 10 4.477 10 10s-4.476 10-10 10zm0 0"/></symbol><symbol id="schedule"><path d="M65.202 230.367h17.134c8.547 0 15.5-6.953 15.5-15.5v-17.133c0-8.547-6.953-15.5-15.5-15.5H65.202c-8.547 0-15.5 6.953-15.5 15.5v17.133c0 8.547 6.953 15.5 15.5 15.5zm-.5-32.634a.5.5 0 0 1 .5-.5h17.134a.5.5 0 0 1 .5.5v17.133a.5.5 0 0 1-.5.5H65.202a.5.5 0 0 1-.5-.5zm66.768 32.634h17.133c8.547 0 15.5-6.953 15.5-15.5v-17.133c0-8.547-6.953-15.5-15.5-15.5H131.47c-8.547 0-15.5 6.953-15.5 15.5v17.133c0 8.547 6.953 15.5 15.5 15.5zm-.5-32.634a.5.5 0 0 1 .5-.5h17.133a.5.5 0 0 1 .5.5v17.133a.5.5 0 0 1-.5.5H131.47a.5.5 0 0 1-.5-.5zm66.766 32.634h17.133c8.547 0 15.5-6.953 15.5-15.5v-17.133c0-8.547-6.953-15.5-15.5-15.5h-17.133c-8.547 0-15.5 6.953-15.5 15.5v17.133c0 8.547 6.953 15.5 15.5 15.5zm-.5-32.634a.5.5 0 0 1 .5-.5h17.133a.5.5 0 0 1 .5.5v17.133a.5.5 0 0 1-.5.5h-17.133a.5.5 0 0 1-.5-.5zm83.9 32.634c8.547 0 15.5-6.953 15.5-15.5v-17.133c0-8.547-6.953-15.5-15.5-15.5h-17.133c-8.547 0-15.5 6.953-15.5 15.5v17.133c0 8.547 6.953 15.5 15.5 15.5zm-17.633-15.5v-17.133a.5.5 0 0 1 .5-.5h17.133a.5.5 0 0 1 .5.5v17.133a.5.5 0 0 1-.5.5h-17.133a.5.5 0 0 1-.5-.5zm83.889 15.5c8.547 0 15.5-6.953 15.5-15.5v-17.133c0-8.547-6.953-15.5-15.5-15.5h-17.133c-8.547 0-15.5 6.953-15.5 15.5v17.133c0 8.547 6.953 15.5 15.5 15.5zm-17.633-15.5v-17.133a.5.5 0 0 1 .5-.5h17.133a.5.5 0 0 1 .5.5v17.133a.5.5 0 0 1-.5.5h-17.133a.5.5 0 0 1-.5-.5zm83.899 15.5c8.547 0 15.5-6.953 15.5-15.5v-17.133c0-8.547-6.953-15.5-15.5-15.5h-17.133c-8.547 0-15.5 6.953-15.5 15.5v17.133c0 8.547 6.953 15.5 15.5 15.5zm-17.633-15.5v-17.133a.5.5 0 0 1 .5-.5h17.133a.5.5 0 0 1 .5.5v17.133a.5.5 0 0 1-.5.5h-17.133a.5.5 0 0 1-.5-.5zM49.702 281.133c0 8.547 6.953 15.5 15.5 15.5h17.134c8.547 0 15.5-6.953 15.5-15.5V264c0-8.547-6.953-15.5-15.5-15.5H65.202c-8.547 0-15.5 6.953-15.5 15.5zm15-17.133a.5.5 0 0 1 .5-.5h17.134a.5.5 0 0 1 .5.5v17.133a.5.5 0 0 1-.5.5H65.202a.5.5 0 0 1-.5-.5zm51.268 17.133c0 8.547 6.953 15.5 15.5 15.5h17.133c8.547 0 15.5-6.953 15.5-15.5V264c0-8.547-6.953-15.5-15.5-15.5H131.47c-8.547 0-15.5 6.953-15.5 15.5zm15-17.133a.5.5 0 0 1 .5-.5h17.133a.5.5 0 0 1 .5.5v17.133a.5.5 0 0 1-.5.5H131.47a.5.5 0 0 1-.5-.5zm51.266 17.133c0 8.547 6.953 15.5 15.5 15.5h17.133c8.547 0 15.5-6.953 15.5-15.5V264c0-8.547-6.953-15.5-15.5-15.5h-17.133c-8.547 0-15.5 6.953-15.5 15.5zm15-17.133a.5.5 0 0 1 .5-.5h17.133a.5.5 0 0 1 .5.5v17.133a.5.5 0 0 1-.5.5h-17.133a.5.5 0 0 1-.5-.5zM49.702 347.4c0 8.547 6.953 15.5 15.5 15.5h17.134c8.547 0 15.5-6.953 15.5-15.5v-17.133c0-8.547-6.953-15.5-15.5-15.5H65.202c-8.547 0-15.5 6.953-15.5 15.5zm15-17.133a.5.5 0 0 1 .5-.5h17.134a.5.5 0 0 1 .5.5V347.4a.5.5 0 0 1-.5.5H65.202a.5.5 0 0 1-.5-.5zM115.97 347.4c0 8.547 6.953 15.5 15.5 15.5h17.133c8.547 0 15.5-6.953 15.5-15.5v-17.133c0-8.547-6.953-15.5-15.5-15.5H131.47c-8.547 0-15.5 6.953-15.5 15.5zm15-17.133a.5.5 0 0 1 .5-.5h17.133a.5.5 0 0 1 .5.5V347.4a.5.5 0 0 1-.5.5H131.47a.5.5 0 0 1-.5-.5zm51.266 17.133c0 8.547 6.953 15.5 15.5 15.5h17.133c8.547 0 15.5-6.953 15.5-15.5v-17.133c0-8.547-6.953-15.5-15.5-15.5h-17.133c-8.547 0-15.5 6.953-15.5 15.5zm15-17.133a.5.5 0 0 1 .5-.5h17.133a.5.5 0 0 1 .5.5V347.4a.5.5 0 0 1-.5.5h-17.133a.5.5 0 0 1-.5-.5z"/><path d="M462.324 293.006V73.766c0-22.405-18.227-40.632-40.633-40.632h-58.789v-4.925C362.902 12.654 350.248 0 334.694 0s-28.208 12.654-28.208 28.208v4.925H172.375v-4.925C172.375 12.654 159.721 0 144.167 0c-15.555 0-28.209 12.654-28.209 28.208v4.925H57.191c-22.405 0-40.633 18.228-40.633 40.632V191.3c0 4.142 3.357 7.5 7.5 7.5s7.5-3.358 7.5-7.5v-27.2h415.766v114.423c-22.765-18.749-51.907-30.023-83.633-30.023-24.471 0-47.4 6.714-67.056 18.385v-2.602c0-8.703-7.08-15.783-15.783-15.783h-16.566c-8.703 0-15.783 7.08-15.783 15.783v16.567c0 7.956 5.923 14.538 13.587 15.612-18.826 22.788-30.149 51.99-30.149 83.788 0 .262.008.521.01.783H57.191c-14.134 0-25.633-11.499-25.633-25.632V221.3c0-4.142-3.357-7.5-7.5-7.5s-7.5 3.358-7.5 7.5v167.234c0 22.405 18.227 40.632 40.633 40.632h18.145c4.143 0 7.5-3.358 7.5-7.5s-3.357-7.5-7.5-7.5H57.191c-14.134 0-25.633-11.499-25.633-25.632v-1.635c6.997 5.705 15.921 9.134 25.633 9.134H232.89a130.924 130.924 0 0 0 3.485 18.134h-131.04c-4.143 0-7.5 3.358-7.5 7.5s3.357 7.5 7.5 7.5h136.027C260.825 477.663 308.321 512 363.691 512c72.647 0 131.75-59.103 131.75-131.75 0-33.432-12.523-63.989-33.117-87.244zM321.486 28.208c0-7.283 5.925-13.208 13.208-13.208s13.208 5.925 13.208 13.208v41.417c0 7.283-5.925 13.209-13.208 13.209s-13.208-5.925-13.208-13.209zm-190.528 0c0-7.283 5.926-13.208 13.209-13.208s13.208 5.925 13.208 13.208v41.417c0 7.283-5.925 13.209-13.208 13.209s-13.209-5.925-13.209-13.209zM57.191 48.133h58.767v18.133h-9.066c-4.143 0-7.5 3.358-7.5 7.5s3.357 7.5 7.5 7.5h11.591c4.442 9.76 14.28 16.567 25.684 16.567s21.242-6.806 25.683-16.567h11.591c4.143 0 7.5-3.358 7.5-7.5s-3.357-7.5-7.5-7.5h-9.066V48.133h134.111v18.133h-9.067c-4.143 0-7.5 3.358-7.5 7.5s3.357 7.5 7.5 7.5h11.592c4.442 9.76 14.28 16.567 25.683 16.567s21.242-6.806 25.683-16.567h11.592c4.143 0 7.5-3.358 7.5-7.5s-3.357-7.5-7.5-7.5h-9.067V48.133h58.789c14.134 0 25.633 11.499 25.633 25.632v42.201H31.559v-42.2c0-14.134 11.499-25.633 25.632-25.633zM31.559 149.1v-18.133h415.766V149.1zm231.944 115.183c0-.432.352-.783.783-.783h16.566c.432 0 .783.352.783.783v12.969a132.78 132.78 0 0 0-5.207 4.381h-12.143a.784.784 0 0 1-.783-.783v-16.567zM363.691 497c-64.376 0-116.75-52.374-116.75-116.75s52.374-116.75 116.75-116.75 116.75 52.374 116.75 116.75S428.067 497 363.691 497z"/><path d="M363.691 281.633c-54.377 0-98.616 44.239-98.616 98.617s44.239 98.617 98.616 98.617c54.378 0 98.617-44.239 98.617-98.617s-44.239-98.617-98.617-98.617zm0 182.234c-46.107 0-83.616-37.51-83.616-83.617s37.51-83.617 83.616-83.617 83.617 37.51 83.617 83.617-37.51 83.617-83.617 83.617z"/><path d="M405.108 372.75h-18.553a24.17 24.17 0 0 0-15.363-15.364v-35.119c0-4.142-3.357-7.5-7.5-7.5s-7.5 3.358-7.5 7.5v35.119c-9.608 3.16-16.566 12.212-16.566 22.864 0 13.271 10.796 24.067 24.066 24.067 10.652 0 19.704-6.959 22.863-16.567h18.553c4.143 0 7.5-3.358 7.5-7.5s-3.357-7.5-7.5-7.5zm-41.417 16.567c-4.999 0-9.066-4.067-9.066-9.067s4.067-9.067 9.066-9.067 9.066 4.067 9.066 9.067-4.067 9.067-9.066 9.067z"/></symbol><symbol id="time" viewBox="0 0 512.336 512.336"><path d="M457.671 98.001h15.83c5.522 0 10-4.478 10-10s-4.478-10-10-10h-38c-5.522 0-10 4.478-10 10v38c0 5.522 4.478 10 10 10s10-4.478 10-10v-11.003c30.342 40.621 46.835 89.908 46.835 141.17 0 130.224-105.944 236.168-236.168 236.168S20 386.392 20 256.168 125.944 20 256.168 20c9.631 0 19.324.585 28.812 1.738 5.475.662 10.468-3.237 11.134-8.72.667-5.482-3.237-10.468-8.72-11.134A259.806 259.806 0 0 0 256.168 0C187.743 0 123.413 26.646 75.03 75.03 26.646 123.413 0 187.743 0 256.168s26.646 132.755 75.03 181.138c48.383 48.384 112.713 75.03 181.138 75.03s132.755-26.646 181.138-75.03c48.384-48.383 75.03-112.713 75.03-181.138 0-57.741-19.29-113.173-54.665-158.167z"/><path d="M108.472 151.013c-4.667-2.954-10.844-1.564-13.799 3.1-22.829 36.056-32.935 79.418-28.456 122.099 4.545 43.314 24.04 84.16 54.894 115.015 37.235 37.235 86.146 55.853 135.058 55.853s97.822-18.617 135.058-55.853c74.471-74.471 74.471-195.645 0-270.115-30.807-30.806-71.586-50.294-114.828-54.874-42.602-4.515-85.917 5.512-121.958 28.229-4.673 2.945-6.072 9.12-3.128 13.792 2.945 4.673 9.12 6.072 13.792 3.128 67.938-42.82 155.105-33.007 211.979 23.867 66.673 66.673 66.673 175.157 0 241.83-66.672 66.674-175.158 66.674-241.83 0-56.088-56.088-66.048-145.361-23.682-212.271 2.953-4.667 1.566-10.845-3.1-13.8z"/><path d="M386.169 266.33h12.332c5.522 0 10-4.478 10-10s-4.478-10-10-10h-12.332c-5.522 0-10 4.478-10 10s4.477 10 10 10zm-282.334-10.324c0 5.522 4.478 10 10 10h12.332c5.522 0 10-4.478 10-10s-4.478-10-10-10h-12.332c-5.522 0-10 4.477-10 10zM266.33 126.167v-12.332c0-5.522-4.478-10-10-10s-10 4.478-10 10v12.332c0 5.522 4.478 10 10 10s10-4.478 10-10zm-20.324 260.002v12.332c0 5.522 4.478 10 10 10s10-4.478 10-10v-12.332c0-5.522-4.478-10-10-10s-10 4.477-10 10zm-39.962-194.268c-3.906-3.904-10.236-3.904-14.143 0-3.905 3.905-3.905 10.237 0 14.143l33.891 33.891a34.234 34.234 0 0 0-4.074 16.233c0 18.996 15.454 34.45 34.45 34.45s34.45-15.454 34.45-34.45a34.246 34.246 0 0 0-4.074-16.233l68.383-68.383c3.905-3.905 3.905-10.237 0-14.143-3.906-3.904-10.236-3.904-14.143 0l-68.383 68.383c-4.84-2.597-10.367-4.074-16.233-4.074s-11.393 1.478-16.233 4.074l-33.891-33.891zm64.574 64.267c0 7.968-6.482 14.45-14.45 14.45s-14.45-6.482-14.45-14.45 6.482-14.45 14.45-14.45 14.45 6.482 14.45 14.45zm-135.37-120.92c1.87-1.86 2.939-4.44 2.939-7.07s-1.069-5.2-2.939-7.07a10.064 10.064 0 0 0-7.07-2.93c-2.63 0-5.21 1.07-7.07 2.93a10.08 10.08 0 0 0-2.93 7.07c0 2.64 1.07 5.21 2.93 7.07a10.08 10.08 0 0 0 7.07 2.93c2.639 0 5.21-1.071 7.07-2.93zm190.19-105.37a10.04 10.04 0 0 0 7.08-2.93 10.06 10.06 0 0 0 2.931-7.07c0-2.63-1.07-5.21-2.931-7.07a10.082 10.082 0 0 0-7.08-2.93c-2.63 0-5.21 1.07-7.069 2.93a10.077 10.077 0 0 0-2.931 7.07c0 2.64 1.07 5.21 2.931 7.07a10.033 10.033 0 0 0 7.069 2.93z"/></symbol><symbol id="user" viewBox="-42 0 512 512.001"><path d="M210.352 246.633c33.882 0 63.218-12.153 87.195-36.13 23.969-23.972 36.125-53.304 36.125-87.19 0-33.876-12.152-63.211-36.129-87.192C273.566 12.152 244.23 0 210.352 0c-33.887 0-63.22 12.152-87.192 36.125s-36.129 53.309-36.129 87.188c0 33.886 12.156 63.222 36.13 87.195 23.98 23.969 53.316 36.125 87.19 36.125zM144.379 57.34c18.394-18.395 39.973-27.336 65.973-27.336 25.996 0 47.578 8.941 65.976 27.336 18.395 18.398 27.34 39.98 27.34 65.972 0 26-8.945 47.579-27.34 65.977-18.398 18.399-39.98 27.34-65.976 27.34-25.993 0-47.57-8.945-65.973-27.34-18.399-18.394-27.344-39.976-27.344-65.976 0-25.993 8.945-47.575 27.344-65.973zm281.75 336.363c-.692-9.976-2.09-20.86-4.149-32.351-2.078-11.579-4.753-22.524-7.957-32.528-3.312-10.34-7.808-20.55-13.375-30.336-5.77-10.156-12.55-19-20.16-26.277-7.957-7.613-17.699-13.734-28.965-18.2-11.226-4.44-23.668-6.69-36.976-6.69-5.227 0-10.281 2.144-20.043 8.5a2711.03 2711.03 0 0 1-20.879 13.46c-6.707 4.274-15.793 8.278-27.016 11.903-10.949 3.543-22.066 5.34-33.043 5.34-10.968 0-22.086-1.797-33.043-5.34-11.21-3.622-20.3-7.625-26.996-11.899a2853.13 2853.13 0 0 1-20.898-13.469c-9.754-6.355-14.809-8.5-20.035-8.5-13.313 0-25.75 2.254-36.973 6.7-11.258 4.457-21.004 10.578-28.969 18.199-7.609 7.281-14.39 16.12-20.156 26.273-5.558 9.785-10.058 19.992-13.371 30.34-3.2 10.004-5.875 20.945-7.953 32.524-2.063 11.476-3.457 22.363-4.149 32.363C.343 403.492 0 413.668 0 423.949c0 26.727 8.496 48.363 25.25 64.32C41.797 504.017 63.688 512 90.316 512h246.532c26.62 0 48.511-7.984 65.062-23.73 16.758-15.946 25.254-37.59 25.254-64.325-.004-10.316-.351-20.492-1.035-30.242zm-44.906 72.828c-10.934 10.406-25.45 15.465-44.38 15.465H90.317c-18.933 0-33.449-5.059-44.379-15.46-10.722-10.208-15.933-24.141-15.933-42.587 0-9.594.316-19.066.95-28.16.616-8.922 1.878-18.723 3.75-29.137 1.847-10.285 4.198-19.937 6.995-28.675 2.684-8.38 6.344-16.676 10.883-24.668 4.332-7.618 9.316-14.153 14.816-19.418 5.145-4.926 11.63-8.957 19.27-11.98 7.066-2.798 15.008-4.329 23.629-4.56 1.05.56 2.922 1.626 5.953 3.602 6.168 4.02 13.277 8.606 21.137 13.625 8.86 5.649 20.273 10.75 33.91 15.152 13.941 4.508 28.16 6.797 42.273 6.797 14.114 0 28.336-2.289 42.27-6.793 13.648-4.41 25.058-9.507 33.93-15.164 8.043-5.14 14.953-9.593 21.12-13.617 3.032-1.973 4.903-3.043 5.954-3.601 8.625.23 16.566 1.761 23.636 4.558 7.637 3.024 14.122 7.059 19.266 11.98 5.5 5.262 10.484 11.798 14.816 19.423 4.543 7.988 8.208 16.289 10.887 24.66 2.801 8.75 5.156 18.398 7 28.675 1.867 10.434 3.133 20.239 3.75 29.145v.008c.637 9.058.957 18.527.961 28.148-.004 18.45-5.215 32.38-15.937 42.582zm0 0"/></symbol></svg>