<svg version="1.1" id="Layer_1" xmlns="http://www.w3.org/2000/svg" x="0" y="0" viewBox="0 0 229.4 80.9" xml:space="preserve"><style>.st0{fill:#de7b6f}</style><path class="st0" d="M0 0l1.8 5.7c0 .1 0 .2-.1.2l-.2-.2L0 0zM6.5 16.9c1.7 3.7 3.7 7.2 5.8 10.5.2.4.1.8-.2 1-.4.2-.8.1-1-.2-2-3.5-3.9-7.1-5.4-10.8-.1-.3 0-.5.3-.6 0-.3.3-.2.5.1zM19.3 37.1c2.5 3.1 5.2 6 8 8.9.4.4.4 1.1 0 1.6-.4.4-1.1.4-1.6 0-2.8-3-5.5-6-7.9-9.3-.3-.4-.3-1 .2-1.3.3-.4 1-.2 1.3.1zM36.2 54c3.2 2.4 6.4 4.8 9.8 6.8.6.3.9 1.2.4 1.9-.3.6-1.2.9-1.9.4-3.4-2.3-6.8-4.5-9.9-7.2-.5-.5-.6-1.2-.2-1.7.5-.6 1.3-.7 1.8-.2zM56.4 66.5c3.6 1.7 7.2 3.3 11 4.5.8.3 1.1 1.1.9 1.8-.3.8-1.1 1.1-1.8.9-3.8-1.4-7.7-2.9-11.3-4.7-.7-.3-1-1.2-.6-1.9.3-.6 1.1-.9 1.8-.6zM78.9 74.5c3.9.9 7.8 1.6 11.7 2.1.9.1 1.4.9 1.3 1.7-.1.8-.9 1.4-1.6 1.3-4-.5-8-1.3-12-2.2-.8-.2-1.3-1-1.1-1.8.1-.9.9-1.3 1.7-1.1zM102.5 77.7l12 .4h.1c.7 0 1.4.6 1.4 1.5 0 .7-.6 1.4-1.5 1.4l-12.1-.4c-.8 0-1.5-.7-1.4-1.5 0-.7.6-1.3 1.5-1.4zM126.6 77.9l12-.8c.7-.1 1.3.5 1.4 1.2.1.7-.5 1.3-1.2 1.4l-6.1.5-6.1.5c-.7.1-1.4-.4-1.4-1.3s.6-1.4 1.4-1.5c-.1 0-.1 0 0 0zM150.6 76.1l11.9-1.6c.5 0 1 .2 1.1.8 0 .5-.2 1-.7 1L151 78.2c-.6.1-1.1-.3-1.3-.9-.2-.5.2-1.2.9-1.2zM174.4 72.5l11.8-2.4c.3-.1.4.1.5.4.1.2-.1.4-.4.5l-11.8 2.9c-.4.1-.8-.2-.9-.6.1-.3.4-.7.8-.8zM198 67.5l5.8-1.5-5.7 1.8c-.1 0-.2 0-.2-.1 0-.2 0-.2.1-.2z"/><g><path class="st0" d="M196.4 74.9c2.1-1.4 4.2-2.6 6.2-3.9 2-1.3 4.1-2.6 6-3.8 3.9-2.7 7.8-5.3 11.5-8.2l1.6 4.4c-2.3.1-4.5.1-6.9-.2-2.3-.2-4.6-.6-6.9-1.3-2.3-.7-4.4-1.5-6.5-2.3s-4.1-1.8-6.2-2.8c2.3.1 4.5.3 6.8.6l6.6.9c4.2.5 8.4.4 12.8.2l7.9-.4-6.2 4.9c-3.9 3.1-8.2 5.7-12.6 7.8-2.2 1-4.6 1.9-6.9 2.7-2.3.5-4.7 1.1-7.2 1.4z"/></g></svg>