<svg data-name="Группа 10" xmlns="http://www.w3.org/2000/svg" width="671" height="547"><defs><filter id="a" x="414" y="0" width="249" height="249" filterUnits="userSpaceOnUse"><feOffset result="offset" dx="-21.855" dy="26.046" in="SourceAlpha"/><feGaussianBlur result="blur" stdDeviation="7.55"/><feFlood result="flood" flood-color="#de7b6f" flood-opacity=".32"/><feComposite result="composite" operator="in" in2="blur"/><feBlend result="blend" in="SourceGraphic"/></filter><filter id="b" x="924" y="6059" width="671" height="512" filterUnits="userSpaceOnUse"><feGaussianBlur result="blur" stdDeviation="15.333" in="SourceAlpha"/><feComposite result="composite"/><feComposite result="composite-2"/><feComposite result="composite-3"/><feFlood result="flood" flood-color="#de7b6f" flood-opacity=".17"/><feComposite result="composite-4" operator="in" in2="composite-3"/><feBlend result="blend" in2="SourceGraphic"/><feBlend result="blend-2" in="SourceGraphic"/></filter><filter id="c" x="403" y="247" width="174" height="174" filterUnits="userSpaceOnUse"><feOffset result="offset" dx="-21.855" dy="26.046" in="SourceAlpha"/><feGaussianBlur result="blur" stdDeviation="7.55"/><feFlood result="flood" flood-color="#de7b6f" flood-opacity=".32"/><feComposite result="composite" operator="in" in2="blur"/><feBlend result="blend" in="SourceGraphic"/></filter><filter id="d" x="1155" y="6453" width="146" height="147" filterUnits="userSpaceOnUse"><feOffset result="offset" dx="-21.855" dy="26.046" in="SourceAlpha"/><feGaussianBlur result="blur" stdDeviation="7.55"/><feFlood result="flood" flood-color="#de7b6f" flood-opacity=".32"/><feComposite result="composite" operator="in" in2="blur"/><feBlend result="blend" in="SourceGraphic"/></filter></defs><circle data-name="el копия 23" cx="559.61" cy="97.61" r="65.61" filter="url(#a)" fill="#fdd7c9"/><path data-name="bg копия 32" d="M1022.84 6158.82c88.57-56.67 376.91-88.1 487.99.4s-42.01 382.06-180.01 365.07-497.083-244.44-307.98-365.47z" transform="translate(-924 -6053)" fill-rule="evenodd" fill="#fff" fill-opacity=".7" filter="url(#b)"/><circle data-name="el копия 24" cx="511.485" cy="307.42" r="28.105" filter="url(#c)" fill="#fdd7c9"/><path data-name="el копия 25" d="M1249.48 6485.94a14.485 14.485 0 1 1-14.48 14.48 14.485 14.485 0 0 1 14.48-14.48z" transform="translate(-924 -6053)" filter="url(#d)" fill-rule="evenodd" fill="#fdd7c9"/></svg>