<svg version="1.1" id="logo" xmlns="http://www.w3.org/2000/svg" x="0" y="0" viewBox="0 0 205 78" xml:space="preserve"><style>.st0{enable-background:new}.st1{fill:#de7b6f}.st2{fill:#212c26}</style><g class="st0"><path class="st1" d="M3.7 3.8v13.3h16.7v2H3.7v13.7H1.4v-31h20.9v2H3.7zM33.4 1.8h2.3v31h-2.3v-31zM56.3 3.8H45v-2h24.8v2H58.6v29h-2.3v-29zM104.7 1.8v31h-1.9l-21.3-27v27h-2.3v-31h1.9l21.3 27v-27h2.3zM141 30.8v2h-21.6v-31h20.9v2h-18.6V16h16.7v2h-16.7v12.7H141zM154.7 31.8c-2.1-.8-3.7-1.8-4.8-3l1-1.7c1.1 1.2 2.6 2.1 4.4 2.8 1.9.7 3.8 1.1 5.9 1.1 3 0 5.2-.6 6.8-1.7 1.5-1.1 2.3-2.6 2.3-4.4 0-1.4-.4-2.5-1.2-3.3-.8-.8-1.8-1.5-3-1.9-1.2-.4-2.8-.9-4.8-1.4-2.3-.6-4.1-1.1-5.5-1.6-1.4-.5-2.6-1.4-3.5-2.5s-1.5-2.6-1.5-4.5c0-1.5.4-2.9 1.2-4.1.8-1.3 2-2.3 3.7-3 1.7-.7 3.7-1.1 6.2-1.1 1.7 0 3.4.3 5.1.8 1.7.5 3.1 1.2 4.3 2l-.8 1.8c-1.3-.9-2.6-1.5-4.1-2s-3-.7-4.4-.7c-2.9 0-5.1.6-6.6 1.7S153 7.9 153 9.7c0 1.4.4 2.5 1.2 3.3.8.8 1.8 1.5 3 1.9s2.8.9 4.9 1.4c2.3.6 4.1 1.1 5.5 1.6 1.4.5 2.5 1.3 3.5 2.4 1 1.1 1.5 2.5 1.5 4.4 0 1.5-.4 2.9-1.2 4.1-.8 1.2-2.1 2.2-3.8 3-1.7.7-3.8 1.1-6.3 1.1-2.3.1-4.5-.3-6.6-1.1zM185.7 31.8c-2.1-.8-3.7-1.8-4.8-3l1-1.7c1.1 1.2 2.6 2.1 4.4 2.8 1.9.7 3.8 1.1 5.9 1.1 3 0 5.2-.6 6.8-1.7 1.5-1.1 2.3-2.6 2.3-4.4 0-1.4-.4-2.5-1.2-3.3-.8-.8-1.8-1.5-3-1.9-1.2-.4-2.8-.9-4.8-1.4-2.3-.6-4.1-1.1-5.5-1.6-1.4-.5-2.6-1.4-3.5-2.5s-1.5-2.6-1.5-4.5c0-1.5.4-2.9 1.2-4.1.8-1.3 2-2.3 3.7-3 1.7-.7 3.7-1.1 6.2-1.1 1.7 0 3.4.3 5.1.8 1.7.5 3.1 1.2 4.3 2l-.8 1.8c-1.3-.9-2.6-1.5-4.1-2s-3-.7-4.4-.7c-2.9 0-5.1.6-6.6 1.7S184 7.9 184 9.7c0 1.4.4 2.5 1.2 3.3.8.8 1.8 1.5 3 1.9s2.8.9 4.9 1.4c2.3.6 4.1 1.1 5.5 1.6 1.4.5 2.5 1.3 3.5 2.4 1 1.1 1.5 2.5 1.5 4.4 0 1.5-.4 2.9-1.2 4.1-.8 1.2-2.1 2.2-3.8 3-1.7.7-3.8 1.1-6.3 1.1-2.4.1-4.5-.3-6.6-1.1z"/></g><g class="st0"><path class="st2" d="M10 75.2c-2.6-1.4-4.7-3.3-6.2-5.8s-2.3-5.2-2.3-8.3.8-5.8 2.3-8.3c1.5-2.5 3.6-4.4 6.2-5.8 2.6-1.4 5.6-2.1 8.9-2.1 3.3 0 6.3.7 8.9 2.1 2.6 1.4 4.7 3.3 6.2 5.8s2.3 5.2 2.3 8.3-.8 5.8-2.3 8.3c-1.5 2.5-3.6 4.4-6.2 5.8-2.6 1.4-5.6 2.1-8.9 2.1-3.3 0-6.3-.7-8.9-2.1zm13.2-6.3c1.3-.7 2.3-1.8 3-3.1.7-1.3 1.1-2.9 1.1-4.6s-.4-3.3-1.1-4.6c-.7-1.3-1.8-2.4-3-3.1-1.3-.7-2.7-1.1-4.3-1.1-1.6 0-3 .4-4.3 1.1-1.3.7-2.3 1.8-3 3.1-.7 1.3-1.1 2.9-1.1 4.6s.4 3.3 1.1 4.6c.7 1.3 1.8 2.4 3 3.1 1.3.7 2.7 1.1 4.3 1.1 1.6 0 3-.4 4.3-1.1zM62.6 47c2.1.9 3.7 2.3 4.8 4 1.1 1.7 1.7 3.8 1.7 6.1s-.6 4.4-1.7 6.1c-1.1 1.7-2.7 3-4.8 4-2.1.9-4.5 1.4-7.4 1.4h-5.5v8.1h-8.9v-31h14.3c3-.1 5.4.4 7.5 1.3zm-3.8 13.4c.9-.8 1.4-1.9 1.4-3.3s-.5-2.6-1.4-3.4c-.9-.8-2.3-1.2-4.1-1.2h-4.9v9.1h4.9c1.8 0 3.2-.4 4.1-1.2zM79.3 52.6h-9.6v-7h28v7h-9.6v24.1h-8.9V52.6z"/></g><path id="el" d="M110.4 67.6H205v1.5h-94.6v-1.5zm0 3.7h78.9v1.5h-78.9v-1.5zm0 3.7h64.1v1.5h-64.1V75z" fill-rule="evenodd" clip-rule="evenodd" fill="#a96d8e"/><g class="st0"><path class="st2" d="M123.2 44.1L116 57.4c-.5.9-1 1.5-1.6 1.9-.6.4-1.3.6-2 .6-.6 0-1.1-.1-1.8-.4l.4-.9c.5.2 1 .3 1.4.3 1.1 0 1.9-.6 2.6-1.8l.5-.9-6.4-12.1h1.3l5.8 11 5.9-11h1.1zM129.1 54.3h-2.8v5.4h-1.1V48.1h1.1v5.3h2.8l4.4-5.3h1.2l-4.7 5.6 5.1 6h-1.3l-4.7-5.4zM146.7 48.7c.9.5 1.6 1.2 2.1 2.1.5.9.7 1.9.7 3s-.2 2.2-.7 3c-.5.9-1.2 1.6-2.1 2.1-.9.5-1.9.7-3 .7-1 0-2-.2-2.8-.7-.8-.5-1.5-1.1-1.9-2v6.9h-1.1V48.1h1.1v2.7c.5-.9 1.1-1.6 2-2.1s1.8-.7 2.8-.7c1 0 2 .2 2.9.7zm-.6 9.4c.7-.4 1.3-1 1.7-1.7.4-.7.6-1.6.6-2.5s-.2-1.8-.6-2.5c-.4-.7-1-1.3-1.7-1.7s-1.5-.6-2.4-.6-1.7.2-2.4.6-1.3 1-1.7 1.7c-.4.7-.6 1.6-.6 2.5s.2 1.8.6 2.5 1 1.3 1.7 1.7 1.5.6 2.4.6 1.7-.2 2.4-.6zM160.3 49.1c.8.7 1.2 1.8 1.2 3.2v7.3h-1.1v-2.1c-.4.7-.9 1.2-1.6 1.6-.7.4-1.6.6-2.6.6-1.3 0-2.3-.3-3.1-.9-.8-.6-1.1-1.4-1.1-2.4s.3-1.7 1-2.3 1.8-.9 3.3-.9h4v-.9c0-1.1-.3-1.9-.9-2.5-.6-.6-1.4-.8-2.6-.8-.8 0-1.5.1-2.2.4-.7.3-1.3.6-1.8 1.1l-.6-.8c.6-.5 1.3-.9 2.1-1.2.8-.3 1.7-.4 2.6-.4 1.5-.1 2.6.2 3.4 1zm-1.5 9c.7-.4 1.2-1.1 1.5-1.9V54h-4c-1.1 0-2 .2-2.5.6-.5.4-.8 1-.8 1.7 0 .8.3 1.3.8 1.8.6.4 1.4.7 2.4.7 1.1 0 1.9-.2 2.6-.7zM166 48.1h1.1V58l8.3-9.9h1v11.6h-1.1v-9.9l-8.3 9.9h-1V48.1zM181.2 48.1h1.1v5.3h7.9v-5.3h1.1v11.6h-1.1v-5.3h-7.9v5.3h-1.1V48.1zM203.4 49.1c.8.7 1.2 1.8 1.2 3.2v7.3h-1.1v-2.1c-.4.7-.9 1.2-1.6 1.6s-1.6.6-2.6.6c-1.3 0-2.3-.3-3.1-.9-.8-.6-1.1-1.4-1.1-2.4s.3-1.7 1-2.3c.7-.6 1.8-.9 3.3-.9h4v-.9c0-1.1-.3-1.9-.9-2.5-.6-.6-1.4-.8-2.6-.8-.8 0-1.5.1-2.2.4-.7.3-1.3.6-1.8 1.1l-.6-.8c.6-.5 1.3-.9 2.1-1.2.8-.3 1.7-.4 2.6-.4 1.5-.1 2.6.2 3.4 1zm-1.5 9c.7-.4 1.2-1.1 1.5-1.9V54h-4c-1.1 0-2 .2-2.5.6-.5.4-.8 1-.8 1.7 0 .8.3 1.3.8 1.8.6.4 1.4.7 2.4.7 1.1 0 1.9-.2 2.6-.7z"/></g></svg>