<svg xmlns="http://www.w3.org/2000/svg"><symbol id="instagram" viewBox="0 0 108 89.1"><style>.st1{fill:#fff}</style><path id="bg_копия_31" d="M2 31.9c7.5 19.4 50 58.2 78.2 57.2s38.4-65.5 14.3-79S-14-9.4 2 31.9z" fill-rule="evenodd" clip-rule="evenodd" fill="#de7b6f"/><path class="st1" d="M66.3 20.9H48.8c-5.9 0-10.7 4.5-10.7 10v16.2c0 5.5 4.8 10 10.7 10h17.4c5.9 0 10.7-4.5 10.7-10V30.9c.1-5.5-4.7-10-10.6-10zm7.3 26.2c0 3.7-3.3 6.8-7.3 6.8H48.8c-4 0-7.3-3-7.3-6.8V30.9c0-3.7 3.3-6.8 7.3-6.8h17.4c4 0 7.3 3 7.3 6.8l.1 16.2z"/><path class="st1" d="M57.5 29.7c-5.5 0-10 4.2-10 9.3 0 5.2 4.5 9.3 10 9.3s10-4.2 10-9.3c.1-5.1-4.4-9.3-10-9.3zm0 15.5c-3.6 0-6.6-2.7-6.6-6.1 0-3.4 3-6.1 6.6-6.1 3.6 0 6.6 2.7 6.6 6.1 0 3.3-2.9 6.1-6.6 6.1zM68 27c-.7 0-1.3.3-1.8.7-.5.4-.7 1-.7 1.7 0 .6.3 1.2.7 1.7.5.4 1.1.7 1.8.7s1.3-.3 1.8-.7c.5-.4.7-1 .7-1.7 0-.6-.3-1.2-.7-1.7-.5-.5-1.1-.7-1.8-.7z"/></symbol><symbol id="telegram" viewBox="0 0 108 89.1"><path d="M2 57.2C9.5 37.8 52-1 80.2 0s38.4 65.5 14.3 79S-14 98.6 2 57.2z" fill-rule="evenodd" clip-rule="evenodd" fill="#de7b6f"/><path d="M68.3 66.8c-.4 0-.7-.1-1-.3l-10.9-7.4-5.8 4.2c-.5.3-1.1.4-1.6.2-.6-.2-1-.7-1.1-1.1l-3-11.2-10.5-4c-.7-.3-1.1-.9-1.1-1.6 0-.7.4-1.3 1.1-1.6l40-15.9c.2-.1.4-.1.6-.1h.2c.4 0 .8.2 1.1.5l.1.1c.3.3.4.7.4 1.1v.5L70 65.6c-.1.6-.5 1.1-1.1 1.2h-.6zm-11-11.2l9.8 6.6 5.3-27.6-19 18.3 3.9 2.7zm-8.1-1.5l1.3 5 2.8-2-3.6-2.5c-.3-.2-.4-.3-.5-.5zm-9.5-8.6l7.2 2.8c.5.2.9.7 1.1 1.1l1 3.4c0-.4.2-.8.5-1.1l18.1-17.4-27.9 11.2z" fill="#fff"/></symbol></svg>