<svg width="29" height="29" fill="none" xmlns="http://www.w3.org/2000/svg"><path d="M23.563 16.313a1.813 1.813 0 0 0 0 3.625H29v-3.625h-5.438z" fill="#fff" fill-opacity=".3"/><path d="M23.563 14.5h3.625V9.97a.897.897 0 0 0-.907-.907H24.47V6.344a.897.897 0 0 0-.907-.906h-2.156l-1.56-3.117c-.235-.454-.779-.635-1.213-.417L16.53 2.955l-.308-.634c-.236-.454-.78-.635-1.215-.417L7.94 5.438h-5.22A2.715 2.715 0 0 0 0 8.157v16.312a2.715 2.715 0 0 0 2.719 2.72H26.28a.897.897 0 0 0 .907-.907V21.75h-3.625a3.636 3.636 0 0 1-3.625-3.625 3.636 3.636 0 0 1 3.625-3.625zm-.907-7.25v.69l-.344-.69h.344zM1.866 8.466a.847.847 0 0 1-.054-.308c0-.508.4-.906.907-.906h1.595L1.867 8.465zm2.883.598l10.258-5.13 2.556 5.13H4.75zm14.844 0l-2.247-4.495 1.287-.634 2.555 5.13h-1.595z" fill="#fff" fill-opacity=".3"/></svg>