<svg width="21" height="21" fill="none" xmlns="http://www.w3.org/2000/svg"><g clip-path="url(#clip0)" fill="#fff" fill-opacity=".3"><path d="M7.651 11.586a.476.476 0 0 0-.476-.477H5.51a.476.476 0 0 0-.476.477v1.663c0 .263.213.476.476.476h1.664a.476.476 0 0 0 .476-.476v-1.663zM11.808 11.586a.476.476 0 0 0-.476-.477H9.67a.476.476 0 0 0-.477.477v1.663c0 .263.214.476.477.476h1.663a.476.476 0 0 0 .476-.476v-1.663zM15.965 11.586a.476.476 0 0 0-.476-.477h-1.664a.476.476 0 0 0-.476.477v1.663c0 .263.213.476.476.476h1.664a.476.476 0 0 0 .476-.476v-1.663zM7.651 15.743a.476.476 0 0 0-.476-.476H5.51a.476.476 0 0 0-.476.476v1.663c0 .263.213.476.476.476h1.664a.476.476 0 0 0 .476-.476v-1.663zM11.808 15.743a.476.476 0 0 0-.476-.476H9.67a.476.476 0 0 0-.477.476v1.663c0 .263.214.476.477.476h1.663a.476.476 0 0 0 .476-.476v-1.663zM15.965 15.743a.476.476 0 0 0-.476-.476h-1.664a.476.476 0 0 0-.476.476v1.663c0 .263.213.476.476.476h1.664a.476.476 0 0 0 .476-.476v-1.663z"/><path d="M18.94 2.338v2.54a2.075 2.075 0 0 1-2.08 2.074h-1.312a2.085 2.085 0 0 1-2.092-2.073v-2.55H7.544v2.55a2.085 2.085 0 0 1-2.092 2.073H4.14a2.075 2.075 0 0 1-2.08-2.073v-2.54a1.89 1.89 0 0 0-1.827 1.88v14.888c0 1.04.843 1.893 1.882 1.893h16.77a1.894 1.894 0 0 0 1.882-1.893V4.219a1.89 1.89 0 0 0-1.827-1.88zm-.61 15.841c0 .45-.364.814-.813.814H3.447a.814.814 0 0 1-.813-.814v-7.69c0-.449.364-.813.814-.813h14.069c.449 0 .813.364.813.814v7.69z"/><path d="M4.136 5.59h1.297a.713.713 0 0 0 .713-.713V.713A.713.713 0 0 0 5.433 0H4.136a.713.713 0 0 0-.714.713v4.164c0 .394.32.713.714.713zM15.532 5.59h1.297a.713.713 0 0 0 .713-.713V.713A.713.713 0 0 0 16.83 0h-1.297a.713.713 0 0 0-.713.713v4.164c0 .394.319.713.713.713z"/></g><defs><clipPath id="clip0"><path fill="#fff" d="M0 0h21v21H0z"/></clipPath></defs></svg>