<svg width="37" height="37" fill="none" xmlns="http://www.w3.org/2000/svg"><path d="M10.047 9.001c-.404-.342-.822-.375-1.061-.266-.26.12-.314.4-.314.61v3.67a14.669 14.669 0 0 1 4.015-1.92L10.047 9zM25.264 13.895a4.027 4.027 0 0 1-1.325 1.189c.426.42.785.896 1.042 1.431l-1.042.502c-.748-1.558-2.543-2.564-4.572-2.564-.636 0-1.255.099-1.84.294l-.367-1.096c.386-.129.784-.219 1.19-.278a4.042 4.042 0 0 1-.428-1.788c-.193-.008-.385-.023-.578-.023-7.014 0-12.719 4.798-12.719 10.696 0 5.897 5.706 10.695 12.719 10.695 7.013 0 12.718-4.798 12.718-10.695 0-3.252-1.784-6.34-4.798-8.363zM7.227 19.887l1.059-.463a2.314 2.314 0 0 0 4.433-.924c0-.735-.337-1.409-.926-1.85l.695-.925a3.443 3.443 0 0 1 1.387 2.775 3.47 3.47 0 1 1-6.648 1.387zm17.709 8.502c-2.332 1.503-4.931 2.26-7.536 2.26-2.285 0-4.576-.583-6.695-1.754l.56-1.012c4.154 2.296 9.03 2.122 13.043-.466l.238-.153.627.971-.237.154zM8.672 34.688c0 .319.259.578.578.578h2.89c.32 0 .579-.26.579-.578V33.43a14.67 14.67 0 0 1-4.047-1.93v3.188z" fill="#fff" fill-opacity=".3"/><path d="M22.915 14.284a2.883 2.883 0 0 0 1.944-2.722 2.894 2.894 0 0 0-2.89-2.89 2.894 2.894 0 0 0-2.89 2.89c0 .64.22 1.252.607 1.755 1.189.053 2.301.394 3.229.967zM2.313 19.078c-.236 0-.579.45-.579 1.156v3.47c0 .705.343 1.155.579 1.155H3.81a10.185 10.185 0 0 1-.341-2.601c0-1.101.18-2.167.51-3.18H2.313zM21.969 34.688c0 .319.259.578.578.578h2.89c.32 0 .579-.26.579-.578V31.5a14.684 14.684 0 0 1-4.047 1.93v1.258zM22.547 6.36a.576.576 0 0 0 .285-.076l.011-.008h.001l2.89-1.734-.594-.991-2.015 1.21V1.155h-1.156V4.76l-2.015-1.21-.595.992 2.89 1.735a.576.576 0 0 0 .298.082zM34.811 20.23c1.11-.943 1.774-1.988 1.567-2.994-.24-1.163-1.537-2.347-2.927-2.192-1.474.166-2.33 1.504-2.235 3.493.028.575.412 1.216 1.054 1.758.064.054.13.107.197.157-.397.228-.846.448-1.318.662.043.379.07.76.07 1.144 0 .032-.003.063-.003.094.848-.36 1.675-.783 2.41-1.254a4.69 4.69 0 0 0 2.256.298l-.141-1.147a3.39 3.39 0 0 1-.93-.02zm-1.286-.46a3.699 3.699 0 0 1-.51-.358c-.432-.365-.635-.73-.645-.93-.024-.502-.008-2.152 1.21-2.288a.94.94 0 0 1 .113-.007c.694 0 1.429.686 1.552 1.283.113.549-.5 1.416-1.72 2.3z" fill="#fff" fill-opacity=".3"/></svg>