<svg width="31" height="31" fill="none" xmlns="http://www.w3.org/2000/svg"><path d="M29.79 5.56H1.21A1.21 1.21 0 0 0 0 6.77v17.46c0 .668.542 1.21 1.21 1.21h28.58A1.21 1.21 0 0 0 31 24.23V6.77a1.21 1.21 0 0 0-1.21-1.21zM28.73 19.54a.908.908 0 0 1-.908.908c-1 0-1.815.815-1.815 1.816a.908.908 0 0 1-.908.908H5.9a.908.908 0 0 1-.908-.908c0-1.001-.814-1.816-1.815-1.816a.908.908 0 0 1-.908-.908v-8.08c0-.502.406-.909.908-.909 1 0 1.815-.814 1.815-1.815 0-.502.406-.908.908-.908h19.2c.502 0 .908.406.908.908 0 1.001.814 1.815 1.815 1.815.502 0 .908.407.908.909v8.08z" fill="#fff" fill-opacity=".3"/><path d="M24.306 9.645H6.694a3.646 3.646 0 0 1-2.608 2.608v6.494a3.646 3.646 0 0 1 2.608 2.608h17.614a3.646 3.646 0 0 1 2.608-2.608v-6.494a3.646 3.646 0 0 1-2.608-2.608zM8.748 16.408H7.75a.908.908 0 1 1 0-1.816h.998a.909.909 0 0 1 0 1.816zm6.752 2.485a3.397 3.397 0 0 1-3.393-3.393 3.397 3.397 0 0 1 3.393-3.393 3.397 3.397 0 0 1 3.393 3.393 3.397 3.397 0 0 1-3.393 3.393zm7.75-2.485h-.998a.909.909 0 0 1 0-1.816h.998a.908.908 0 1 1 0 1.816z" fill="#fff" fill-opacity=".3"/><path d="M15.5 17.077a1.577 1.577 0 1 0 0-3.154 1.577 1.577 0 0 0 0 3.154z" fill="#fff" fill-opacity=".3"/></svg>