<svg width="30" height="30" fill="none" xmlns="http://www.w3.org/2000/svg"><path d="M15.879 19.274c1.01-.248 1.758-.898 1.758-1.646 0-.747-.748-1.398-1.758-1.646v3.292z" fill="#fff" fill-opacity=".3"/><path d="M15 5.332c-5.33 0-9.668 4.337-9.668 9.668 0 5.33 4.337 9.668 9.668 9.668 5.33 0 9.668-4.337 9.668-9.668 0-5.33-4.337-9.668-9.668-9.668zm4.395 12.296c0 1.698-1.513 3.118-3.516 3.445v.958a.878.878 0 1 1-1.758 0v-.958c-2.003-.327-3.516-1.747-3.516-3.445a.878.878 0 1 1 1.758 0c0 .748.748 1.398 1.758 1.646V15.8c-2.003-.326-3.516-1.746-3.516-3.444s1.513-3.118 3.516-3.445v-.95a.878.878 0 1 1 1.758 0v.95c2.003.327 3.516 1.747 3.516 3.445a.878.878 0 1 1-1.758 0c0-.748-.748-1.398-1.758-1.646v3.475c2.003.326 3.516 1.746 3.516 3.444z" fill="#fff" fill-opacity=".3"/><path d="M14.121 10.709c-1.01.248-1.758.898-1.758 1.646 0 .747.748 1.398 1.758 1.646v-3.292z" fill="#fff" fill-opacity=".3"/><path d="M15 0C6.761 0 0 6.761 0 15s6.761 15 15 15 15-6.761 15-15S23.239 0 15 0zm0 26.426C8.7 26.426 3.574 21.3 3.574 15S8.7 3.574 15 3.574 26.426 8.7 26.426 15 21.3 26.426 15 26.426z" fill="#fff" fill-opacity=".3"/></svg>