<svg width="30" height="30" fill="none" xmlns="http://www.w3.org/2000/svg"><g clip-path="url(#clip0)" fill="#fff" fill-opacity=".3"><path d="M15 12.107a5.098 5.098 0 1 0 0-10.195 5.098 5.098 0 0 0 0 10.195zM25.313 12.107a3.223 3.223 0 1 0 0-6.445 3.223 3.223 0 0 0 0 6.445zM4.688 12.107a3.223 3.223 0 1 0 0-6.445 3.223 3.223 0 0 0 0 6.445zM7.863 15.001c-1.269-1.04-2.418-.902-3.884-.902C1.785 14.1 0 15.873 0 18.054v6.399c0 .947.773 1.717 1.723 1.717 4.103 0 3.609.074 3.609-.177 0-4.535-.537-7.86 2.53-10.992z"/><path d="M16.395 14.123c-2.562-.214-4.789.002-6.71 1.588-3.214 2.574-2.595 6.04-2.595 10.281 0 1.122.913 2.052 2.052 2.052 12.368 0 12.86.4 13.594-1.225.24-.549.174-.374.174-5.629 0-4.173-3.613-7.067-6.515-7.067zM26.021 14.1c-1.474 0-2.617-.137-3.884.9 3.045 3.11 2.531 6.208 2.531 10.992 0 .253-.41.177 3.547.177.985 0 1.785-.797 1.785-1.777v-6.338c0-2.18-1.785-3.955-3.979-3.955z"/></g><defs><clipPath id="clip0"><path fill="#fff" d="M0 0h30v30H0z"/></clipPath></defs></svg>