<svg width="1067" height="567" fill="none" xmlns="http://www.w3.org/2000/svg"><g clip-path="url(#clip0)" fill="#7094CF" fill-opacity=".3"><path d="M37.724 432.596c-15.27-2.766-29.942 7.408-32.708 22.678-2.765 15.27 7.408 29.942 22.678 32.708 15.27 2.765 29.943-7.408 32.708-22.678 2.765-15.271-7.408-29.943-22.678-32.708zm-9.194 50.77c-12.725-2.304-21.203-14.532-18.898-27.256 2.304-12.725 14.532-21.203 27.256-18.899 12.725 2.305 21.203 14.532 18.899 27.257-2.305 12.724-14.532 21.202-27.257 18.898z"/><path d="M37.943 444.552l-4.615-.836-.836 4.616-6.923-1.254-.836 4.616 12.125 2.195-14.687 11.951-.782 4.316 6.924 1.253-.836 4.616 4.615.836.836-4.616 6.923 1.254.836-4.616-12.126-2.195 14.688-11.951.781-4.316-6.923-1.253.836-4.616z"/></g><g clip-path="url(#clip1)" fill="#7094CF" fill-opacity=".3"><path d="M990.795 513.647l-3.391 2.008c7.765 13.11 3.43 30.033-9.68 37.797-13.111 7.765-30.034 3.431-37.798-9.68-7.764-13.111-3.43-30.033 9.68-37.798a27.59 27.59 0 0 1 24.024-1.987l1.43-3.671c-16.222-6.279-34.462 1.782-40.741 18.003-6.279 16.222 1.781 34.463 18.003 40.741 16.222 6.279 34.462-1.781 40.741-18.003a31.496 31.496 0 0 0-2.268-27.41z"/><path d="M985.324 512.626l3.092-2.444a31.662 31.662 0 0 0-2.814-3.112l-2.742 2.832a27.532 27.532 0 0 1 2.464 2.724zM980.056 507.527l2.342-3.171a32.002 32.002 0 0 0-3.536-2.266l-1.901 3.453a27.607 27.607 0 0 1 3.095 1.984zM976.649 534.011l1.232-12.13.009-.31a3.941 3.941 0 0 0-4.649-3.644l-19.123 3.526.715 3.876 19.097-3.521-1.206 11.935-.016.314-19.608 3.614.715 3.877 19.607-3.615a3.941 3.941 0 0 0 3.227-3.922z"/><path d="M959.423 528.49l-11.628 2.144.715 3.876 11.628-2.144-.715-3.876z"/></g><g clip-path="url(#clip2)" fill="#7094CF" fill-opacity=".3"><path d="M1038.79 266.087l-4.45-1.764a.474.474 0 0 0-.62.267l-1.89 4.781c-.1.245.02.521.26.618l4.52 1.786c1.54.612 3.3-.134 3.93-1.663.66-1.574-.16-3.398-1.75-4.025zM1035.43 274.586l-4.46-1.764a.48.48 0 0 0-.62.268l-1.89 4.78c-.09.245.03.522.27.618l4.52 1.787a3.05 3.05 0 0 0 3.93-1.664c.65-1.574-.16-3.398-1.75-4.025z"/><path d="M1057 262.946c-2.59-5.975-7.35-10.584-13.4-12.979-6.06-2.395-12.68-2.29-18.65.298-5.98 2.587-10.59 7.346-12.98 13.4-2.4 6.054-2.29 12.678.29 18.652 2.59 5.975 7.35 10.584 13.4 12.979 6.06 2.395 12.68 2.29 18.66-.298 5.97-2.587 10.58-7.346 12.98-13.4 2.39-6.054 2.29-12.678-.3-18.652zm-16.97 16.737a6.095 6.095 0 0 1-5.32 3.84.476.476 0 0 0-.41.3l-.59 1.502c-.31.763-1.15 1.187-1.93.922a1.52 1.52 0 0 1-.92-2.003l.38-.974a.47.47 0 0 0-.27-.618l-1.94-.77a.478.478 0 0 0-.62.267l-.37.934c-.3.763-1.15 1.187-1.92.922a1.524 1.524 0 0 1-.93-2.003l.39-.974a.486.486 0 0 0-.27-.617l-2.35-.93c-.77-.302-1.19-1.148-.92-1.924a1.518 1.518 0 0 1 2-.925l.97.385c.25.097.52-.023.62-.267l2.63-6.64 2.62-6.64a.473.473 0 0 0-.26-.618l-.94-.37c-.76-.301-1.18-1.147-.92-1.923a1.522 1.522 0 0 1 2-.926l2.39.946c.25.097.52-.023.62-.267l.37-.934c.3-.763 1.15-1.188 1.92-.922.83.284 1.25 1.197.93 2.003l-.39.973c-.09.245.03.521.27.618l1.95.771c.24.096.52-.023.62-.268l.37-.934c.3-.762 1.14-1.187 1.92-.921a1.53 1.53 0 0 1 .93 2.002l-.61 1.543a.484.484 0 0 0 .09.502 6.084 6.084 0 0 1 1.26 6.439 6.099 6.099 0 0 1-3.16 3.307.476.476 0 0 0-.25.619c.59 1.412.65 3.043.04 4.573z"/></g><g clip-path="url(#clip3)" fill="#7094CF" fill-opacity=".3"><path d="M104.836 248.735l-15.076-2.056 20.381 18.707 5.802-27.05-11.107 10.399zM113.04 234.149l-18.122-16.545-5.216 24.007 9.914-9.262 13.424 1.8z"/><path d="M91.552 243.917l12.277 1.654 9.072-8.466-12.295-1.647-9.054 8.459z"/></g><g clip-path="url(#clip4)" fill="#7094CF" fill-opacity=".3"><path d="M914.035 24.913a4.786 4.786 0 0 0-5.863 3.367 4.787 4.787 0 0 0 3.367 5.864 4.787 4.787 0 0 0 5.864-3.367 4.787 4.787 0 0 0-3.368-5.864zM895.605 30.972a3.005 3.005 0 0 0-2.113-3.68 3.003 3.003 0 0 0-3.679 2.114 3.004 3.004 0 0 0 2.112 3.679 3.004 3.004 0 0 0 3.68-2.113z"/><path d="M928.994 33.911a29.64 29.64 0 0 0 1.709-1.178c4.181-3.112 6.055-6.438 5.279-9.363-.776-2.925-4.053-4.883-9.228-5.512-3.209-.39-6.96-.257-10.909.364a46.928 46.928 0 0 0-4.92-3.53c.323-.492.652-.961.986-1.406 1.825-2.427 3.693-3.919 5.227-4.228a5.815 5.815 0 0 1 2.569-2.47 5.053 5.053 0 0 0-.657-.228c-2.921-.79-6.255 1.07-9.387 5.236a29.825 29.825 0 0 0-1.186 1.704 29.753 29.753 0 0 0-1.875-.892c-4.786-2.063-8.603-2.025-10.748.11-2.145 2.135-2.201 5.952-.159 10.748 1.267 2.975 3.256 6.157 5.768 9.267a47.018 47.018 0 0 0-.596 6.024 26.905 26.905 0 0 1-1.711-.15c-3.011-.367-5.234-1.237-6.27-2.409a5.799 5.799 0 0 1-3.428-.992c.029.23.072.456.131.68.612 2.307 2.779 4.011 6.205 4.938.919.248 1.929.44 3.023.574.667.08 1.358.139 2.069.175.032.71.087 1.402.165 2.07.605 5.177 2.548 8.463 5.469 9.253 2.921.79 6.255-1.07 9.387-5.236 1.943-2.585 3.705-5.898 5.142-9.63a46.975 46.975 0 0 0 5.515-2.495c.265.526.507 1.045.725 1.557 1.192 2.8 1.548 5.167 1.044 6.65a5.812 5.812 0 0 1 .855 3.454 5.13 5.13 0 0 0 .529-.458c2.145-2.135 2.201-5.952.16-10.748a30.04 30.04 0 0 0-.883-1.879zm-2.579-13.26c3.84.466 6.401 1.753 6.849 3.44.448 1.689-1.137 4.076-4.241 6.386-.446.332-.917.66-1.41.98-1.911-3.117-4.452-6.309-7.426-9.297a59.635 59.635 0 0 0-1.525-1.477c2.803-.297 5.437-.314 7.753-.033zm-28.133 1.513c-1.515-3.56-1.681-6.42-.443-7.652 1.237-1.232 4.097-1.053 7.649.48.512.22 1.03.464 1.554.73-1.744 3.214-3.238 7.01-4.338 11.08a57.124 57.124 0 0 0-.517 2.059c-1.659-2.278-2.991-4.551-3.905-6.697zm7.137 5.372c1.04-3.85 2.442-7.423 4.069-10.428 2.903 1.802 5.893 4.21 8.706 7.037 2.813 2.825 5.207 5.826 6.997 8.738-3.013 1.613-6.594 2.998-10.448 4.02-3.853 1.024-7.649 1.597-11.066 1.69.11-3.415.701-7.208 1.742-11.057zm8.24 18.234c-2.325 3.093-4.719 4.667-6.405 4.21-1.686-.455-2.96-3.021-3.41-6.864a27.54 27.54 0 0 1-.143-1.711c3.655-.097 7.689-.701 11.764-1.783.689-.183 1.37-.378 2.042-.583-1.143 2.576-2.446 4.866-3.848 6.731z"/><path d="M924.175 43.695a3.003 3.003 0 0 0-3.679 2.113 3.003 3.003 0 0 0 2.113 3.68 3.003 3.003 0 0 0 3.679-2.114 3.003 3.003 0 0 0-2.113-3.679zM921.476 14.702a3.003 3.003 0 0 0 3.679-2.113 3.003 3.003 0 0 0-2.113-3.68 3.004 3.004 0 0 0-3.679 2.113 3.004 3.004 0 0 0 2.113 3.68z"/></g><g clip-path="url(#clip5)" fill="#7094CF" fill-opacity=".3"><path d="M292.907 132.593c-15.711 3.172-30.994-6.974-34.167-22.686-3.172-15.71 6.974-30.994 22.686-34.167 15.711-3.172 30.994 6.974 34.167 22.686 3.172 15.711-6.974 30.994-22.686 34.167zm-10.805-53.508c-13.831 2.792-22.81 16.316-20.018 30.146 2.793 13.831 16.317 22.81 30.147 20.018 13.83-2.793 22.81-16.317 20.017-30.147-2.792-13.83-16.316-22.81-30.146-20.017z"/><path d="M303.085 118.355l-.675-3.344-17.746 3.583 1.545-12.546 10.388-3.814-1.176-3.202-8.743 3.211 1.652-13.424-3.386-.417-1.867 15.163-8.71 3.198 1.175 3.201 7.067-2.594-1.909 15.506 22.385-4.521z"/></g><defs><clipPath id="clip0"><path fill="#fff" transform="rotate(10.265 -2375.327 269.634)" d="M0 0h56.287v56.287H0z"/></clipPath><clipPath id="clip1"><path fill="#fff" transform="rotate(-10.446 3222.667 -4818.44)" d="M0 0h63v63H0z"/></clipPath><clipPath id="clip2"><path fill="#fff" transform="rotate(21.585 -121.662 2798.33)" d="M0 0h48.748v48.748H0z"/></clipPath><clipPath id="clip3"><path fill="#fff" transform="rotate(-17.674 759.847 -115.73)" d="M0 0h50.148v50.148H0z"/></clipPath><clipPath id="clip4"><path fill="#fff" transform="rotate(15.132 447.765 3371.015)" d="M0 0h48v48H0z"/></clipPath><clipPath id="clip5"><path fill="#fff" transform="rotate(-11.416 534.078 -1224.805)" d="M0 0h58v58H0z"/></clipPath></defs></svg>