<svg width="959" height="625" fill="none" xmlns="http://www.w3.org/2000/svg"><g clip-path="url(#clip0)" fill="#7094CF" fill-opacity=".3"><path d="M165.722 564.015c-15.27-2.765-29.942 7.408-32.708 22.678-2.765 15.27 7.408 29.943 22.678 32.708 15.271 2.765 29.943-7.408 32.708-22.678 2.766-15.27-7.408-29.943-22.678-32.708zm-9.194 50.77c-12.724-2.304-21.202-14.532-18.898-27.256 2.304-12.725 14.532-21.203 27.256-18.899 12.725 2.305 21.203 14.532 18.899 27.257-2.305 12.725-14.532 21.203-27.257 18.898z"/><path d="M165.941 575.971l-4.615-.835-.836 4.615-6.923-1.254-.836 4.616 12.126 2.196-14.688 11.95-.782 4.316 6.924 1.254-.836 4.615 4.615.836.836-4.616 6.923 1.254.836-4.615-12.126-2.196 14.688-11.951.781-4.315-6.923-1.254.836-4.616z"/></g><g clip-path="url(#clip1)" fill="#7094CF" fill-opacity=".3"><path d="M63.795 166.647l-3.391 2.008c7.764 13.11 3.43 30.033-9.68 37.797-13.111 7.765-30.034 3.431-37.798-9.68-7.764-13.111-3.43-30.033 9.68-37.798a27.59 27.59 0 0 1 24.024-1.987l1.43-3.671c-16.222-6.279-34.462 1.782-40.741 18.003C1.04 187.541 9.1 205.782 25.322 212.06c16.222 6.279 34.462-1.781 40.74-18.003a31.495 31.495 0 0 0-2.267-27.41z"/><path d="M58.324 165.626l3.093-2.444a31.765 31.765 0 0 0-2.815-3.112l-2.742 2.832a27.507 27.507 0 0 1 2.464 2.724zM53.056 160.527l2.342-3.171a31.895 31.895 0 0 0-3.536-2.266l-1.9 3.453a27.7 27.7 0 0 1 3.094 1.984zM49.649 187.011l1.232-12.13.01-.31a3.942 3.942 0 0 0-4.65-3.644l-19.123 3.526.715 3.876 19.097-3.521-1.206 11.935-.016.314-19.607 3.614.714 3.877 19.607-3.615a3.942 3.942 0 0 0 3.227-3.922z"/><path d="M32.423 181.49l-11.628 2.144.714 3.876 11.629-2.144-.715-3.876z"/></g><g clip-path="url(#clip2)" fill="#7094CF" fill-opacity=".3"><path d="M855.794 518.087l-4.459-1.764a.476.476 0 0 0-.618.267l-1.891 4.781a.476.476 0 0 0 .268.618l4.515 1.786a3.05 3.05 0 0 0 3.934-1.663c.654-1.574-.164-3.398-1.749-4.025zM852.431 526.586l-4.459-1.764a.476.476 0 0 0-.618.268l-1.891 4.78a.476.476 0 0 0 .267.618l4.516 1.787a3.05 3.05 0 0 0 3.934-1.664c.654-1.574-.164-3.398-1.749-4.025z"/><path d="M873.998 514.946a24.212 24.212 0 0 0-13.4-12.979c-6.054-2.395-12.678-2.29-18.652.298a24.212 24.212 0 0 0-12.979 13.4c-2.395 6.054-2.29 12.678.298 18.652a24.212 24.212 0 0 0 13.4 12.979c6.054 2.395 12.678 2.29 18.652-.298a24.212 24.212 0 0 0 12.979-13.4 24.214 24.214 0 0 0-.298-18.652zm-16.965 16.737a6.1 6.1 0 0 1-5.318 3.84.475.475 0 0 0-.415.3l-.595 1.502c-.302.763-1.147 1.187-1.923.922a1.525 1.525 0 0 1-.926-2.003l.386-.974a.477.477 0 0 0-.268-.618l-1.948-.77a.475.475 0 0 0-.617.267l-.37.934c-.302.763-1.148 1.187-1.924.922a1.525 1.525 0 0 1-.925-2.003l.385-.974a.475.475 0 0 0-.267-.617l-2.35-.93c-.763-.302-1.188-1.148-.922-1.924a1.523 1.523 0 0 1 2.002-.925l.974.385a.476.476 0 0 0 .618-.267l2.627-6.64 2.627-6.64a.475.475 0 0 0-.268-.618l-.933-.37c-.763-.301-1.187-1.147-.922-1.923a1.523 1.523 0 0 1 2.002-.926l2.391.946a.476.476 0 0 0 .618-.267l.369-.934c.302-.763 1.148-1.188 1.924-.922a1.523 1.523 0 0 1 .925 2.003l-.385.973a.476.476 0 0 0 .267.618l1.948.771a.477.477 0 0 0 .618-.268l.369-.934c.302-.762 1.148-1.187 1.924-.921a1.522 1.522 0 0 1 .925 2.002l-.61 1.543a.475.475 0 0 0 .098.502 6.1 6.1 0 0 1 1.251 6.439 6.068 6.068 0 0 1-3.158 3.307.477.477 0 0 0-.245.619 6.07 6.07 0 0 1 .041 4.573z"/></g><g clip-path="url(#clip3)" fill="#7094CF" fill-opacity=".3"><path d="M928.836 228.735l-15.076-2.056 20.381 18.707 5.802-27.05-11.107 10.399zM937.04 214.149l-18.122-16.545-5.216 24.007 9.914-9.262 13.424 1.8z"/><path d="M915.552 223.917l12.277 1.654 9.072-8.466-12.295-1.647-9.054 8.459z"/></g><g clip-path="url(#clip4)" fill="#7094CF" fill-opacity=".3"><path d="M889.035 39.913a4.786 4.786 0 0 0-5.863 3.367 4.787 4.787 0 0 0 3.367 5.864 4.787 4.787 0 0 0 5.864-3.367 4.787 4.787 0 0 0-3.368-5.864zM870.605 45.972a3.005 3.005 0 0 0-2.113-3.68 3.003 3.003 0 0 0-3.679 2.114 3.003 3.003 0 0 0 2.112 3.679 3.004 3.004 0 0 0 3.68-2.113z"/><path d="M903.994 48.911a29.74 29.74 0 0 0 1.709-1.178c4.181-3.112 6.055-6.438 5.279-9.363-.776-2.925-4.053-4.882-9.228-5.512-3.209-.39-6.96-.256-10.909.364a46.913 46.913 0 0 0-4.92-3.53c.323-.491.652-.96.986-1.406 1.825-2.427 3.693-3.919 5.227-4.228a5.815 5.815 0 0 1 2.569-2.47 5.057 5.057 0 0 0-.657-.228c-2.921-.79-6.255 1.07-9.387 5.236a29.79 29.79 0 0 0-1.186 1.704 29.7 29.7 0 0 0-1.875-.891c-4.786-2.064-8.603-2.025-10.748.11-2.145 2.135-2.201 5.952-.159 10.747 1.267 2.976 3.256 6.157 5.768 9.267a47.02 47.02 0 0 0-.596 6.024 26.905 26.905 0 0 1-1.711-.15c-3.011-.367-5.234-1.237-6.27-2.409a5.795 5.795 0 0 1-3.428-.992c.029.23.072.456.131.68.612 2.307 2.779 4.012 6.205 4.938.919.249 1.929.441 3.023.574.667.081 1.358.14 2.069.175.032.711.087 1.403.165 2.07.605 5.177 2.548 8.463 5.469 9.253 2.921.79 6.255-1.07 9.387-5.236 1.943-2.585 3.705-5.898 5.142-9.63a46.958 46.958 0 0 0 5.515-2.494c.265.525.507 1.044.725 1.556 1.192 2.8 1.548 5.167 1.044 6.65a5.812 5.812 0 0 1 .855 3.454c.186-.14.363-.293.529-.458 2.145-2.135 2.201-5.952.16-10.747a30.064 30.064 0 0 0-.883-1.88zm-2.579-13.26c3.84.466 6.401 1.753 6.849 3.44.448 1.689-1.137 4.076-4.241 6.386-.446.333-.917.66-1.41.98-1.911-3.117-4.452-6.309-7.426-9.296a59.977 59.977 0 0 0-1.525-1.478c2.803-.297 5.437-.314 7.753-.032zm-28.133 1.513c-1.515-3.56-1.681-6.42-.443-7.652 1.237-1.232 4.097-1.053 7.649.48.512.22 1.03.464 1.554.731-1.744 3.213-3.238 7.01-4.338 11.079a57.172 57.172 0 0 0-.517 2.059c-1.659-2.278-2.991-4.55-3.905-6.697zm7.137 5.372c1.04-3.849 2.442-7.423 4.069-10.428 2.903 1.803 5.893 4.21 8.706 7.037 2.813 2.825 5.207 5.826 6.997 8.738-3.013 1.613-6.594 2.998-10.448 4.02-3.853 1.024-7.649 1.597-11.066 1.69.11-3.415.701-7.208 1.742-11.057zm8.24 18.234c-2.325 3.093-4.719 4.667-6.405 4.211-1.686-.456-2.96-3.022-3.41-6.865a27.543 27.543 0 0 1-.143-1.711c3.655-.096 7.689-.701 11.764-1.783a58 58 0 0 0 2.042-.582c-1.143 2.575-2.446 4.866-3.848 6.73z"/><path d="M899.175 58.695a3.003 3.003 0 0 0-3.679 2.113 3.003 3.003 0 0 0 2.113 3.68 3.003 3.003 0 0 0 3.679-2.114 3.003 3.003 0 0 0-2.113-3.679zM896.476 29.701a3.003 3.003 0 0 0 3.679-2.113 3.003 3.003 0 0 0-2.113-3.679 3.004 3.004 0 0 0-3.679 2.113 3.004 3.004 0 0 0 2.113 3.68z"/></g><g clip-path="url(#clip5)" fill="#7094CF" fill-opacity=".3"><path d="M229.907 62.593c-15.711 3.172-30.994-6.974-34.167-22.687-3.172-15.71 6.974-30.993 22.686-34.166 15.711-3.172 30.994 6.974 34.167 22.686 3.172 15.71-6.974 30.994-22.686 34.167zM219.102 9.084c-13.831 2.793-22.81 16.317-20.018 30.147 2.793 13.83 16.317 22.81 30.147 20.017 13.83-2.792 22.81-16.316 20.017-30.146-2.792-13.83-16.316-22.81-30.146-20.018z"/><path d="M240.085 48.355l-.675-3.344-17.746 3.583 1.545-12.547 10.388-3.814-1.176-3.201-8.743 3.21 1.652-13.423-3.386-.417-1.867 15.162-8.71 3.199 1.175 3.201 7.067-2.595-1.909 15.506 22.385-4.52z"/></g><defs><clipPath id="clip0"><path fill="#fff" transform="rotate(10.265 -3042.938 1047.907)" d="M0 0h56.287v56.287H0z"/></clipPath><clipPath id="clip1"><path fill="#fff" transform="rotate(-10.446 861.092 78.711)" d="M0 0h63v63H0z"/></clipPath><clipPath id="clip2"><path fill="#fff" transform="rotate(21.585 -874.139 2444.344)" d="M0 0h48.748v48.748H0z"/></clipPath><clipPath id="clip3"><path fill="#fff" transform="rotate(-17.674 1107.525 -2775.799)" d="M0 0h50.148v50.148H0z"/></clipPath><clipPath id="clip4"><path fill="#fff" transform="rotate(15.132 378.802 3284.408)" d="M0 0h48v48H0z"/></clipPath><clipPath id="clip5"><path fill="#fff" transform="rotate(-11.416 152.426 -944.67)" d="M0 0h58v58H0z"/></clipPath></defs></svg>