<svg width="28" height="28" fill="none" xmlns="http://www.w3.org/2000/svg"><path d="M23.383 0H8.457a1.98 1.98 0 0 0-1.978 1.978v2.374H4.617A1.98 1.98 0 0 0 2.64 6.33v19.692A1.98 1.98 0 0 0 4.617 28h14.927a1.98 1.98 0 0 0 1.977-1.978v-2.374h1.862a1.98 1.98 0 0 0 1.978-1.978V1.978A1.98 1.98 0 0 0 23.383 0zm-3.557 26.022c0 .153-.13.283-.282.283H4.617a.286.286 0 0 1-.282-.283V6.33c0-.154.13-.283.282-.283h14.927c.153 0 .282.13.282.283v19.692zm3.84-4.352c0 .154-.13.283-.283.283H21.52V6.33a1.98 1.98 0 0 0-1.977-1.978H8.174V1.978c0-.153.13-.283.283-.283h14.926c.153 0 .282.13.282.283V21.67z" fill="#fff"/><path d="M16.903 8.716H7.258a.848.848 0 1 0 0 1.696h9.645a.848.848 0 1 0 0-1.696zM16.903 12.533H7.258a.848.848 0 1 0 0 1.696h9.645a.848.848 0 1 0 0-1.696zM16.903 16.351H7.258a.848.848 0 1 0 0 1.696h9.645a.848.848 0 1 0 0-1.696zM16.903 20.169H7.258a.848.848 0 1 0 0 1.695h9.645a.848.848 0 1 0 0-1.695z" fill="#fff"/></svg>