<svg width="154" height="154" fill="none" xmlns="http://www.w3.org/2000/svg"><path d="M93.844 24.063c-3.671 0-7.282.931-10.494 2.708l2.335 4.208a16.845 16.845 0 1 1-8.555 16.848l-4.775.596a21.657 21.657 0 1 0 21.489-24.36z" fill="#7094CF"/><path d="M78.224 39.403l-4.461-1.806a21.55 21.55 0 0 0-1.408 5.418l4.775.595c.18-1.444.548-2.858 1.094-4.207z" fill="#7094CF"/><path d="M125.125 4.813a21.673 21.673 0 0 0-16.242 7.33l3.609 3.185a16.844 16.844 0 1 1 23.738 23.81 16.844 16.844 0 0 1-6.892 3.644l1.199 4.66a21.66 21.66 0 0 0 8.905-37.22 21.66 21.66 0 0 0-14.317-5.41z" fill="#000" fill-opacity=".15"/><path d="M121.517 20.214a7.214 7.214 0 0 1 3.608-.964v-4.813a12.03 12.03 0 0 0-6.017 1.612l2.409 4.165zM128.733 32.723l2.409 4.166a12.036 12.036 0 0 0 0-20.84l-2.409 4.165a7.22 7.22 0 0 1 2.643 9.866 7.221 7.221 0 0 1-2.643 2.643z" fill="#000" fill-opacity=".15"/><path d="M93.844 14.438a31.282 31.282 0 1 0 31.281 31.28 31.316 31.316 0 0 0-31.281-31.28zm0 57.75a26.469 26.469 0 1 1 26.469-26.47 26.5 26.5 0 0 1-26.47 26.47z" fill="#7094CF"/><path d="M90.205 41.412l-2.67-4.004-2.245 1.496a2.406 2.406 0 0 0-1.071 2.002v9.625a2.405 2.405 0 0 0 1.071 2.002l7.219 4.813a2.406 2.406 0 0 0 2.67 0l7.218-4.813a2.403 2.403 0 0 0 1.072-2.002v-9.625a2.406 2.406 0 0 0-1.072-2.002l-7.219-4.812a2.405 2.405 0 0 0-2.669 0l-2.59 1.727 2.669 4.004 1.256-.837 4.812 3.208v7.05l-4.812 3.208-4.813-3.208v-7.05l1.174-.782z" fill="#7094CF"/><path d="M93.844 81.813v9.624a4.818 4.818 0 0 1-4.813 4.813H77v-8.28a11.732 11.732 0 0 0-7.119-10.795L35.786 62.563h24.37V57.75h-35.6l-1.878-.805 2.672-4.008h32.4v-4.812H24.062a2.407 2.407 0 0 0-2.002 1.072l-3.88 5.82-4.74-2.031a6.295 6.295 0 0 1 2.48-12.08h41.83v-4.812H15.92A11.119 11.119 0 0 0 4.812 47.2v58.842a14.451 14.451 0 0 0 7.383 12.597l52.7 29.512A8.13 8.13 0 0 0 77 141.056v-39.994h12.031a9.635 9.635 0 0 0 9.625-9.624v-9.625h-4.812zm-21.656 59.243a3.318 3.318 0 0 1-4.94 2.896l-52.7-29.512a9.638 9.638 0 0 1-4.923-8.398V56.353a11.14 11.14 0 0 0 1.92 1.056l56.44 24.19a6.925 6.925 0 0 1 4.203 6.372v53.085z" fill="#000" fill-opacity=".15"/></svg>