<svg width="130" height="130" fill="none" xmlns="http://www.w3.org/2000/svg"><g clip-path="url(#clip0)"><path d="M65.071 58.97a4.33 4.33 0 1 0-1.85 8.248v5.268a1.85 1.85 0 0 0 3.7 0V67.22a4.33 4.33 0 0 0-1.85-8.248z" fill="#7094CF"/><path d="M111.246 28.221c-7.965-3.151-14.287-8.956-17.8-16.344-.957-2.01-3.022-3.308-5.264-3.308H41.818c-2.241 0-4.307 1.298-5.263 3.308-3.514 7.388-9.836 13.193-17.8 16.344a5.798 5.798 0 0 0-3.678 5.426v11.276c0 14.783 4.31 29.385 12.465 42.23 8.235 12.97 20.167 23.809 34.506 31.346l.233.123a5.845 5.845 0 0 0 5.437 0l.235-.123c14.339-7.537 26.27-18.376 34.505-31.346 8.155-12.845 12.466-27.448 12.466-42.23V33.647a5.799 5.799 0 0 0-3.678-5.426zm-.022 16.703c0 14.078-4.112 27.995-11.89 40.246C91.446 97.595 80 107.987 66.232 115.224l-.235.123a2.144 2.144 0 0 1-1.994 0l-.234-.123c-13.767-7.236-25.214-17.629-33.103-30.054-7.778-12.251-11.89-26.168-11.89-40.247V33.647c0-.884.526-1.663 1.34-1.985 8.838-3.497 15.863-9.96 19.78-18.196a2.13 2.13 0 0 1 1.922-1.196h46.364c.822 0 1.576.47 1.922 1.196 3.917 8.237 10.943 14.699 19.781 18.196a2.119 2.119 0 0 1 1.339 1.985v11.277z" fill="#000" fill-opacity=".15"/><path d="M120.522 62.481a1.849 1.849 0 0 0-2.212 1.397c-5.635 24.928-22.796 46.546-47.084 59.312l-5.644 2.966c-.364.192-.8.192-1.164 0l-5.644-2.966C34.45 110.404 17.28 88.748 11.668 63.776a1.85 1.85 0 1 0-3.61.81c5.849 26.034 23.707 48.588 48.995 61.879l5.644 2.967a4.961 4.961 0 0 0 4.607-.001l5.644-2.966c25.248-13.271 43.097-35.785 48.971-61.771a1.85 1.85 0 0 0-1.397-2.213zM119.621 21.17c-9.879-1.042-17.647-7.977-18.89-16.863C100.387 1.851 98.277 0 95.822 0H34.178c-2.454 0-4.565 1.851-4.908 4.307-1.244 8.886-9.012 15.82-18.89 16.863-2.504.264-4.392 2.379-4.392 4.919v19.867c0 2.886.15 5.805.445 8.675a1.85 1.85 0 0 0 3.68-.379 81.476 81.476 0 0 1-.425-8.297V26.09c0-.631.474-1.176 1.08-1.24 11.571-1.22 20.687-9.457 22.166-20.03.091-.648.614-1.119 1.244-1.119h61.644c.63 0 1.153.47 1.244 1.12 1.48 10.572 10.595 18.808 22.167 20.03.605.063 1.079.608 1.079 1.239v19.867c0 2.731-.14 5.494-.417 8.21a1.851 1.851 0 0 0 3.682.375c.289-2.84.435-5.729.435-8.585V26.088c0-2.54-1.887-4.655-4.391-4.92z" fill="#000" fill-opacity=".15"/><path d="M86.191 46.177h-3.042v-8.832c0-9.968-8.11-18.077-18.078-18.077s-18.078 8.11-18.078 18.077v8.832h-3.042a5.89 5.89 0 0 0-5.884 5.884v26.49a5.89 5.89 0 0 0 5.884 5.883h42.24a5.89 5.89 0 0 0 5.884-5.883V52.06a5.89 5.89 0 0 0-5.884-5.884zm-35.497-8.831c0-7.928 6.45-14.378 14.377-14.378 7.928 0 14.378 6.45 14.378 14.378v8.83H50.694v-8.83zm37.68 41.205c0 1.203-.979 2.183-2.183 2.183h-42.24a2.186 2.186 0 0 1-2.183-2.183V52.06c0-1.204.98-2.184 2.183-2.184h42.24c1.204 0 2.184.98 2.184 2.184v26.49z" fill="#7094CF"/></g><defs><clipPath id="clip0"><path fill="#fff" d="M0 0h130v130H0z"/></clipPath></defs></svg>