<svg width="20" height="20" fill="none" xmlns="http://www.w3.org/2000/svg"><g clip-path="url(#clip0)"><path d="M10 4.04c3.821 0 7.287 2.09 9.843 5.485a.792.792 0 0 1 0 .945c-2.556 3.4-6.022 5.49-9.843 5.49-3.821 0-7.286-2.09-9.844-5.485a.792.792 0 0 1 0-.945C2.714 6.13 6.18 4.04 10 4.04zm-.274 10.158a4.209 4.209 0 0 0 4.472-4.472 4.216 4.216 0 0 0-3.924-3.924 4.21 4.21 0 0 0-4.472 4.472 4.23 4.23 0 0 0 3.924 3.924zm.127-1.94a2.261 2.261 0 0 0 2.405-2.405 2.275 2.275 0 0 0-2.115-2.115 2.261 2.261 0 0 0-2.405 2.405 2.275 2.275 0 0 0 2.115 2.115z" fill="#fff" fill-opacity=".5"/><path stroke="#8A8C8D" d="M23.224 16.553l-26-13"/></g><defs><clipPath id="clip0"><path fill="#fff" transform="matrix(-1 0 0 1 20 0)" d="M0 0h20v20H0z"/></clipPath></defs></svg>