<svg width="43" height="28" fill="none" xmlns="http://www.w3.org/2000/svg"><path d="M14 0a6.865 6.865 0 0 0-6.857 6.857A6.865 6.865 0 0 0 14 13.714a6.865 6.865 0 0 0 6.857-6.857A6.865 6.865 0 0 0 14 0zm0 12a5.149 5.149 0 0 1-5.143-5.143A5.149 5.149 0 0 1 14 1.714a5.149 5.149 0 0 1 5.143 5.143A5.149 5.149 0 0 1 14 12zM14 15.428c-6.46 0-11.714 5.255-11.714 11.714V28h23.428v-.857c0-6.46-5.255-11.715-11.714-11.715zM4.036 26.285c.437-5.114 4.739-9.143 9.964-9.143 5.225 0 9.527 4.03 9.964 9.143H4.036z" fill="#fff"/><path d="M37.5 19l4.763-5.25h-9.526L37.5 19z" fill="#7094CF"/></svg>