<svg width="175" height="34" fill="none" xmlns="http://www.w3.org/2000/svg"><path d="M73.05 16.288c.977.272 1.745.768 2.305 1.488.56.704.84 1.6.84 2.688 0 1.456-.552 2.576-1.656 3.36-1.088.784-2.68 1.176-4.776 1.176h-8.016V8.2h7.536c1.92 0 3.4.384 4.44 1.152 1.056.768 1.584 1.832 1.584 3.192 0 .88-.208 1.64-.624 2.28-.4.64-.944 1.128-1.632 1.464zm-8.903-6.144v5.376h4.92c1.232 0 2.176-.224 2.832-.672.672-.464 1.008-1.136 1.008-2.016 0-.88-.336-1.544-1.008-1.992-.656-.464-1.6-.696-2.832-.696h-4.92zm5.52 12.912c1.36 0 2.384-.224 3.072-.672.688-.448 1.032-1.152 1.032-2.112 0-1.872-1.368-2.808-4.104-2.808h-5.52v5.592h5.52zm21.404-4.344c0 .176-.016.408-.048.696h-10.32c.144 1.12.632 2.024 1.464 2.712.848.672 1.896 1.008 3.144 1.008 1.52 0 2.744-.512 3.672-1.536l1.272 1.488a5.554 5.554 0 0 1-2.16 1.536c-.848.352-1.8.528-2.856.528-1.344 0-2.536-.272-3.576-.816A6.067 6.067 0 0 1 79.239 22c-.56-.992-.84-2.112-.84-3.36 0-1.232.272-2.344.816-3.336A5.955 5.955 0 0 1 81.495 13c.976-.56 2.072-.84 3.288-.84 1.216 0 2.296.28 3.24.84a5.631 5.631 0 0 1 2.232 2.304c.544.992.816 2.128.816 3.408zm-6.288-4.608c-1.104 0-2.032.336-2.784 1.008-.736.672-1.168 1.552-1.296 2.64h8.16c-.128-1.072-.568-1.944-1.32-2.616-.736-.688-1.656-1.032-2.76-1.032zm13.135 11.04c-1.04 0-2.04-.136-3-.408-.96-.288-1.712-.648-2.256-1.08l.96-1.824c.56.4 1.24.72 2.04.96s1.608.36 2.424.36c2.016 0 3.024-.576 3.024-1.728 0-.384-.136-.688-.408-.912-.272-.224-.616-.384-1.032-.48a18.11 18.11 0 0 0-1.728-.36c-1.024-.16-1.864-.344-2.52-.552a3.874 3.874 0 0 1-1.656-1.056c-.464-.496-.696-1.192-.696-2.088 0-1.152.48-2.072 1.44-2.76.96-.704 2.248-1.056 3.864-1.056.848 0 1.696.104 2.544.312.848.208 1.544.488 2.088.84l-.984 1.824c-1.04-.672-2.264-1.008-3.672-1.008-.976 0-1.72.16-2.232.48-.512.32-.768.744-.768 1.272 0 .416.144.744.432.984.288.24.64.416 1.056.528.432.112 1.032.24 1.8.384 1.024.176 1.848.368 2.472.576a3.61 3.61 0 0 1 1.632 1.008c.448.48.672 1.152.672 2.016 0 1.152-.496 2.072-1.488 2.76-.976.672-2.312 1.008-4.008 1.008zm15.527-.888a3.58 3.58 0 0 1-1.248.672 5.481 5.481 0 0 1-1.536.216c-1.28 0-2.272-.344-2.976-1.032-.704-.688-1.056-1.672-1.056-2.952v-6.984h-2.16V12.28h2.16V9.496h2.304v2.784h3.648v1.896h-3.648v6.888c0 .688.168 1.216.504 1.584.352.368.848.552 1.488.552.704 0 1.304-.2 1.8-.6l.72 1.656z" fill="#7094CF"/><path d="M132.143 25l-.024-12.24-6.072 10.2h-1.104l-6.072-10.128V25h-2.304V8.2h1.968l7.008 11.808L132.455 8.2h1.968l.024 16.8h-2.304zm7.01-12.72h2.304V25h-2.304V12.28zm1.152-2.448c-.448 0-.824-.144-1.128-.432a1.436 1.436 0 0 1-.432-1.056c0-.416.144-.768.432-1.056.304-.304.68-.456 1.128-.456.448 0 .816.144 1.104.432.304.272.456.616.456 1.032 0 .432-.152.8-.456 1.104-.288.288-.656.432-1.104.432zm12.343 2.328c1.616 0 2.896.472 3.84 1.416.96.928 1.44 2.296 1.44 4.104V25h-2.304v-7.056c0-1.232-.296-2.16-.888-2.784-.592-.624-1.44-.936-2.544-.936-1.248 0-2.232.368-2.952 1.104-.72.72-1.08 1.76-1.08 3.12V25h-2.304V12.28h2.208v1.92c.464-.656 1.088-1.16 1.872-1.512.8-.352 1.704-.528 2.712-.528zm21.11 6.552c0 .176-.016.408-.048.696h-10.32c.144 1.12.632 2.024 1.464 2.712.848.672 1.896 1.008 3.144 1.008 1.52 0 2.744-.512 3.672-1.536l1.272 1.488a5.554 5.554 0 0 1-2.16 1.536c-.848.352-1.8.528-2.856.528-1.344 0-2.536-.272-3.576-.816A6.067 6.067 0 0 1 161.926 22c-.56-.992-.84-2.112-.84-3.36 0-1.232.272-2.344.816-3.336a5.955 5.955 0 0 1 2.28-2.304c.976-.56 2.072-.84 3.288-.84 1.216 0 2.296.28 3.24.84a5.631 5.631 0 0 1 2.232 2.304c.544.992.816 2.128.816 3.408zm-6.288-4.608c-1.104 0-2.032.336-2.784 1.008-.736.672-1.168 1.552-1.296 2.64h8.16c-.128-1.072-.568-1.944-1.32-2.616-.736-.688-1.656-1.032-2.76-1.032z" fill="#fff"/><path d="M23.387 10.612c-.668-.667-1.813-1.468-2.6-1.995L.582 28.82a1.995 1.995 0 0 0 0 2.817l1.78 1.78c.777.776 2.04.776 2.817 0l20.204-20.205c-.743-1.109-1.44-2.044-1.996-2.6z" fill="#AECCFF"/><path d="M33.418 5.179a1.995 1.995 0 0 0 0-2.818l-1.78-1.78a1.995 1.995 0 0 0-2.817.001l-1.673 1.674C22.095-.014 14.15.061 13.799.066a.996.996 0 0 0-.45 1.877c2.654 1.4 9.263 5.096 11.446 7.26 2.135 2.135 5.857 8.781 7.261 11.449a.996.996 0 0 0 1.878-.451c.004-.35.078-8.295-2.19-13.348l1.674-1.674z" fill="#AECCFF"/><path d="M30.367 25.047l-1.258-4.09a.997.997 0 0 0-1.52-.526l-4.966 3.44 2.636 2.636 5.108-1.46z" fill="#fff"/><path d="M33.459 26.236c-8.947 2.556-8.29 2.386-8.49 2.386a.996.996 0 0 1-.704-.292l-4.981-4.981-6.68 6.203a.996.996 0 0 0-.1 1.352l2.124 2.657c.19.236.476.373.778.373h17.532a.996.996 0 0 0 .994-1.067l-.474-6.631z" fill="#fff"/></svg>