<svg width="201" height="201" fill="none" xmlns="http://www.w3.org/2000/svg"><g clip-path="url(#clip0)"><path d="M197.65 95.475h-29.146L119.11 62.538a3.376 3.376 0 0 0-1.86-.563H89.22L55.656 35.882a3.342 3.342 0 0 0-2.056-.707H3.35A3.35 3.35 0 0 0 0 38.525v46.9c0 1.85 1.5 3.35 3.35 3.35h15.028l6.268 8.743a9.943 9.943 0 0 0-1.196 4.657v3.35a10.048 10.048 0 0 0 7.438 9.661 9.968 9.968 0 0 0-.738 3.739v3.35a10.048 10.048 0 0 0 7.438 9.661 9.968 9.968 0 0 0-.738 3.739v3.35a10.048 10.048 0 0 0 7.438 9.661 9.968 9.968 0 0 0-.738 3.739v3.35c0 5.55 4.5 10.05 10.05 10.05h8.375a11.723 11.723 0 0 0 10.843-7.304c1.445.401 2.935.604 4.433.604h60.099a14.11 14.11 0 0 0 13.461-10.05h46.839c1.85 0 3.35-1.5 3.35-3.35v-46.9c0-1.85-1.5-3.35-3.35-3.35zm-167.5 6.7c0-1.85 1.5-3.35 3.35-3.35h8.375a5.024 5.024 0 0 1 5.025 5.025 5.024 5.024 0 0 1-5.025 5.025H33.5a3.35 3.35 0 0 1-3.35-3.35v-3.35zm6.7 16.75c0-1.85 1.5-3.35 3.35-3.35h8.375A5.024 5.024 0 0 1 53.6 120.6a5.024 5.024 0 0 1-5.025 5.025H40.2a3.35 3.35 0 0 1-3.35-3.35v-3.35zm6.7 16.75c0-1.85 1.5-3.35 3.35-3.35h8.375a5.024 5.024 0 0 1 5.025 5.025 5.024 5.024 0 0 1-5.025 5.025H46.9a3.35 3.35 0 0 1-3.35-3.35v-3.35zm18.425 23.45H53.6a3.35 3.35 0 0 1-3.35-3.35v-3.35c0-1.85 1.5-3.35 3.35-3.35h8.375A5.024 5.024 0 0 1 67 154.1a5.024 5.024 0 0 1-5.025 5.025zm75.375-6.7h-4.907l-12.396-18.61-5.574 3.72 9.919 14.89h-12.059l-12.396-18.61-5.574 3.72 9.929 14.89H92.233l-12.396-18.61-5.574 3.72 9.929 14.89h-6.94a9.671 9.671 0 0 1-3.85-.875 11.728 11.728 0 0 0-7.904-8.575 11.556 11.556 0 0 0 .678-9.986 11.552 11.552 0 0 0-7.378-6.764 11.556 11.556 0 0 0 .678-9.986 11.552 11.552 0 0 0-7.378-6.764 11.592 11.592 0 0 0 1.502-5.625c0-6.476-5.25-11.725-11.725-11.725H33.5a10 10 0 0 0-3.91.79l-6.77-9.443a3.35 3.35 0 0 0-2.72-1.397H6.7v-40.2h45.752L78.54 62.157A13.309 13.309 0 0 0 67 75.375c0 7.4 6 13.4 13.4 13.4h31.527l32.458 58.43a7.408 7.408 0 0 1-7.035 5.22zm56.95-10.05h-44.931l-9.305-16.75h17.386v-6.7h-21.104l-19.531-35.152a3.353 3.353 0 0 0-2.915-1.698H80.4a6.7 6.7 0 0 1 0-13.4h35.846l49.406 32.937c.548.365 1.19.56 1.848.563h26.8v40.2z" fill="#fff" fill-opacity=".3"/></g><defs><clipPath id="clip0"><path fill="#fff" d="M0 0h201v201H0z"/></clipPath></defs></svg>