<svg width="157" height="157" fill="none" xmlns="http://www.w3.org/2000/svg"><g clip-path="url(#clip0)" fill="#fff" fill-opacity=".3"><path d="M81.068 120.471l-22.322 22.322c-5.94 5.941-13.84 9.212-22.241 9.212-8.402 0-16.301-3.271-22.242-9.212C2 130.529 2 110.574 14.263 98.31l42.023-42.023c5.941-5.941 13.84-9.213 22.242-9.213 8.402 0 16.3 3.272 22.241 9.213a31.5 31.5 0 0 1 7.609 12.316L88.49 88.49a14.075 14.075 0 0 1-10.018 4.15 14.076 14.076 0 0 1-10.019-4.15 14.037 14.037 0 0 1-3.105-4.682 2.506 2.506 0 1 0-4.646 1.88 19.024 19.024 0 0 0 4.208 6.345 19.056 19.056 0 0 0 13.562 5.618c5.123 0 9.94-1.995 13.562-5.618l42.023-42.023a19.052 19.052 0 0 0 5.618-13.562c0-5.123-1.995-9.94-5.618-13.562a19.055 19.055 0 0 0-13.562-5.617c-5.123 0-9.94 1.995-13.562 5.617L93.664 36.156a2.506 2.506 0 1 0 3.544 3.543l13.268-13.268a14.076 14.076 0 0 1 10.018-4.15c3.785 0 7.343 1.474 10.019 4.15a14.08 14.08 0 0 1 4.149 10.018 14.08 14.08 0 0 1-4.149 10.018l-18.239 18.24a36.57 36.57 0 0 0-7.962-11.964c-14.218-14.218-37.352-14.218-51.57 0L10.72 94.766c-14.218 14.218-14.218 37.353 0 51.571C17.829 153.446 27.167 157 36.505 157c9.338 0 18.676-3.554 25.785-10.663l22.322-22.322a2.506 2.506 0 0 0-3.544-3.544z"/><path d="M146.28 10.664c-14.218-14.219-37.353-14.218-51.57 0l-22.35 22.35a2.506 2.506 0 1 0 3.543 3.543l22.35-22.35c12.265-12.264 32.22-12.264 44.483 0 12.265 12.264 12.265 32.219 0 44.483l-42.023 42.023c-5.94 5.941-13.84 9.213-22.241 9.213-8.402 0-16.3-3.272-22.242-9.213a31.493 31.493 0 0 1-7.608-12.316L68.51 68.51a14.075 14.075 0 0 1 10.018-4.15c3.784 0 7.342 1.474 10.018 4.15a14.03 14.03 0 0 1 3.106 4.68 2.506 2.506 0 0 0 4.645-1.88 19.02 19.02 0 0 0-4.207-6.344 19.055 19.055 0 0 0-13.562-5.617c-5.123 0-9.94 1.995-13.563 5.617L44.482 85.451a2.494 2.494 0 0 0-.88.88l-20.659 20.658a19.052 19.052 0 0 0-5.617 13.562c0 5.123 1.995 9.94 5.617 13.562a19.052 19.052 0 0 0 13.562 5.618c5.123 0 9.94-1.995 13.562-5.618l13.25-13.249a2.506 2.506 0 0 0-3.544-3.544l-13.25 13.249a14.075 14.075 0 0 1-10.018 4.15 14.078 14.078 0 0 1-10.018-4.149 14.076 14.076 0 0 1-4.15-10.019c0-3.784 1.474-7.342 4.15-10.018l18.239-18.239a36.554 36.554 0 0 0 7.961 11.963c6.888 6.888 16.045 10.681 25.785 10.681 9.74 0 18.898-3.793 25.785-10.681l42.023-42.023c14.219-14.218 14.219-37.353.001-51.57z"/></g><defs><clipPath id="clip0"><path fill="#fff" d="M0 0h157v157H0z"/></clipPath></defs></svg>