<svg width="150" height="150" fill="none" xmlns="http://www.w3.org/2000/svg"><g clip-path="url(#clip0)" fill="#fff" fill-opacity=".3"><path d="M125 150h-18.75a6.26 6.26 0 0 1-6.25-6.25V112.5H84.375a3.124 3.124 0 0 1-2.888-1.931 3.117 3.117 0 0 1 .675-3.406l31.25-31.25a3.127 3.127 0 0 1 4.419 0l31.25 31.25a3.116 3.116 0 0 1 .675 3.406 3.11 3.11 0 0 1-2.881 1.931H131.25v31.25A6.26 6.26 0 0 1 125 150zm-33.081-43.75h11.206c1.725 0 3.125 1.4 3.125 3.125v34.375H125v-34.375c0-1.725 1.4-3.125 3.125-3.125h11.206l-23.706-23.706-23.706 23.706z"/><path d="M84.375 131.25h-68.75C7.012 131.25 0 124.238 0 115.625v-81.25C0 25.762 7.013 18.75 15.625 18.75h118.75c8.613 0 15.625 7.012 15.625 15.625v56.25a3.126 3.126 0 0 1-6.25 0v-56.25c0-5.169-4.206-9.375-9.375-9.375H15.625c-5.169 0-9.375 4.206-9.375 9.375v81.25c0 5.169 4.206 9.375 9.375 9.375h68.75a3.126 3.126 0 0 1 0 6.25z"/><path d="M46.875 100H3.125A3.126 3.126 0 0 1 0 96.875v-43.75C0 51.4 1.4 50 3.125 50h43.75C55.487 50 62.5 57.013 62.5 65.625v18.75C62.5 92.987 55.487 100 46.875 100zM6.25 93.75h40.625c5.169 0 9.375-4.206 9.375-9.375v-18.75c0-5.169-4.206-9.375-9.375-9.375H6.25v37.5z"/><path d="M31.25 87.5c-6.894 0-12.5-5.606-12.5-12.5s5.606-12.5 12.5-12.5 12.5 5.606 12.5 12.5-5.606 12.5-12.5 12.5zm0-18.75A6.26 6.26 0 0 0 25 75a6.26 6.26 0 0 0 6.25 6.25A6.26 6.26 0 0 0 37.5 75a6.26 6.26 0 0 0-6.25-6.25z"/></g><defs><clipPath id="clip0"><path fill="#fff" d="M0 0h150v150H0z"/></clipPath></defs></svg>