<svg width="154" height="154" fill="none" xmlns="http://www.w3.org/2000/svg"><path d="M141.203 116.499l-24.52-12.259a6.752 6.752 0 0 1-3.75-6.07v-8.678a43.99 43.99 0 0 0 1.846-2.44c3.18-4.493 5.729-9.492 7.582-14.885 3.621-1.66 5.972-5.241 5.972-9.284V52.617c0-2.472-.924-4.867-2.566-6.738V32.227c.143-1.411.708-9.815-5.37-16.747-5.272-6.014-13.826-9.063-25.43-9.063s-20.159 3.049-25.43 9.06c-3.684 4.202-4.924 8.935-5.299 12.333-4.399-2.274-9.583-3.427-15.471-3.427-26.665 0-28.218 22.728-28.234 23.1v11.753c-1.663 1.812-2.566 3.904-2.566 5.98v8.866c0 2.77 1.24 5.351 3.365 7.097 2.117 7.982 7.325 14.014 9.352 16.131v7.04c0 2.02-1.098 3.874-3.005 4.916l-17.076 10.71A20.338 20.338 0 0 0 0 137.838v9.745h154v-10.377c0-8.824-4.905-16.76-12.797-20.707zm-105.27 20.207v5.744h-30.8v-4.612c0-5.57 3.04-10.688 8.062-13.432l17.074-10.71a10.635 10.635 0 0 0 5.546-9.346v-9.216L35 94.37c-.067-.061-6.886-6.504-8.901-15.284l-.234-1.017-.878-.564c-1.18-.765-1.886-2.046-1.886-3.424v-8.865c0-.924.629-2.023 1.722-3.014l.845-.762-.006-13.809c.047-.736 1.384-18.115 23.106-18.115 6.142 0 11.313 1.42 15.4 4.22v12.142c-1.643 1.871-2.567 4.266-2.567 6.738v10.266c0 .78.09 1.548.26 2.292.069.298.207.57.302.858.141.43.254.875.452 1.283l.008.013a10.284 10.284 0 0 0 2.82 3.534c.013.049.029.093.041.139.154.588.316 1.173.49 1.745l.209.67c.035.118.08.239.118.357.09.277.177.552.27.824.153.449.315.913.502 1.419.08.21.167.4.25.608.21.537.42 1.055.64 1.569.055.123.1.256.155.377l.143.323c.067.15.136.283.203.429.252.55.498 1.08.755 1.594.04.082.08.172.12.254.162.32.324.624.486.932a56.164 56.164 0 0 0 2.279 3.95c.074.115.146.236.218.346.621.963 1.16 1.743 1.607 2.351l.32.437c.057.074.134.182.183.249v8.493a6.782 6.782 0 0 1-3.534 5.954l-6.792 3.704-1.183-.105-.483 1.014L48 116.373a23.154 23.154 0 0 0-12.066 20.333zm112.934 5.744h-107.8v-5.744a18.008 18.008 0 0 1 9.391-15.821l22.897-12.489a11.92 11.92 0 0 0 6.212-10.465V87.616l-.498-.596-.098-.115c-.005-.008-.164-.2-.423-.54-.016-.02-.031-.04-.05-.06-.135-.178-.294-.39-.477-.645l-.007-.013a46.613 46.613 0 0 1-1.396-2.053c-.013-.018-.023-.039-.036-.057a50.218 50.218 0 0 1-.79-1.275l-.063-.103a52.503 52.503 0 0 1-1.809-3.293s-.003-.002-.003-.005a52.085 52.085 0 0 1-.97-2.059c-.043-.1-.09-.197-.133-.297-.141-.321-.283-.657-.426-1.004-.052-.126-.103-.257-.154-.385-.134-.336-.27-.675-.413-1.063a42.405 42.405 0 0 1-.745-2.179l-.141-.456c-.015-.052-.033-.103-.049-.157a40.11 40.11 0 0 1-.667-2.492l-.234-1.017-.875-.564c-1.489-.96-2.377-2.57-2.377-4.305V52.617c0-1.44.611-2.782 1.72-3.786l.847-.762V31.175l-.07-.054c-.087-1.853.024-7.533 4.166-12.258 4.253-4.854 11.512-7.313 21.57-7.313 10.023 0 17.267 2.441 21.525 7.259 4.997 5.649 4.171 12.877 4.165 12.938l-.023 16.322.847.764c1.109 1.002 1.72 2.344 1.72 3.784v10.266c0 2.241-1.468 4.202-3.65 4.874l-1.278.393-.411 1.27c-1.717 5.342-4.163 10.275-7.274 14.664-.762 1.08-1.504 2.038-2.148 2.77l-.639.728V98.17c0 4.543 2.523 8.627 6.586 10.659l24.519 12.259c6.145 3.072 9.962 9.247 9.962 16.118v5.244z" fill="#fff" fill-opacity=".3"/></svg>