<svg width="143" height="143" fill="none" xmlns="http://www.w3.org/2000/svg"><path d="M71.5 0c-9.214 0-16.683 7.47-16.683 16.683.01 9.21 7.474 16.673 16.683 16.684 9.214 0 16.684-7.47 16.684-16.684C88.184 7.47 80.714 0 71.5 0zm0 28.6c-6.581 0-11.916-5.335-11.916-11.917.007-6.578 5.338-11.909 11.916-11.916 6.582 0 11.917 5.335 11.917 11.916 0 6.582-5.335 11.917-11.917 11.917zM78.65 35.75h-14.3c-11.841.013-21.437 9.609-21.45 21.45v40.517h9.533V143H57.2V88.183h-4.767v4.767h-4.766V57.2c.01-9.21 7.473-16.673 16.683-16.683h14.3c9.21.01 16.673 7.473 16.683 16.683v35.75h-4.766v-4.767H85.8V143h4.767V97.717h9.533V57.2c-.013-11.841-9.61-21.437-21.45-21.45z" fill="#fff" fill-opacity=".3"/><path d="M73.883 97.717h-4.766V143h4.766V97.717zM119.166 23.833c-7.898 0-14.3 6.402-14.3 14.3.008 7.895 6.406 14.292 14.3 14.3 7.898 0 14.3-6.402 14.3-14.3 0-7.898-6.402-14.3-14.3-14.3zm0 23.834a9.533 9.533 0 0 1-9.533-9.534c0-5.265 4.268-9.533 9.533-9.533s9.534 4.268 9.534 9.533-4.269 9.534-9.534 9.534zM126.316 54.817h-21.45v4.766h21.45c6.578.008 11.909 5.339 11.917 11.917v30.983h-4.767v-4.766H128.7V143h4.766v-35.75H143V71.5c-.011-9.21-7.474-16.673-16.684-16.683zM104.866 97.717v4.766h-9.533v4.767h9.533V143h4.767V97.717h-4.767z" fill="#fff" fill-opacity=".3"/><path d="M121.55 107.25h-4.767V143h4.767v-35.75zM23.833 23.833c-7.898 0-14.3 6.402-14.3 14.3.008 7.895 6.406 14.292 14.3 14.3 7.898 0 14.3-6.402 14.3-14.3 0-7.898-6.402-14.3-14.3-14.3zm0 23.834a9.533 9.533 0 1 1 0-19.067 9.533 9.533 0 0 1 0 19.067zM16.683 54.817C7.473 54.827.01 62.29 0 71.5v35.75h9.533V143H14.3V97.717H9.533v4.766H4.767V71.5c.007-6.578 5.338-11.909 11.916-11.917h21.45v-4.766h-21.45zM38.133 102.483v-4.766h-4.766V143h4.766v-35.75h9.534v-4.767h-9.534z" fill="#fff" fill-opacity=".3"/><path d="M26.217 107.25H21.45V143h4.767v-35.75z" fill="#fff" fill-opacity=".3"/></svg>