<svg width="154" height="154" fill="none" xmlns="http://www.w3.org/2000/svg"><g clip-path="url(#clip0)" fill="#fff" fill-opacity=".3"><path d="M152.589 1.411a4.807 4.807 0 0 0-6.805 0L1.468 145.727a4.807 4.807 0 0 0 0 6.805 4.797 4.797 0 0 0 3.402 1.41c1.232 0 2.46-.467 3.403-1.41L152.589 8.216a4.807 4.807 0 0 0 0-6.805zM33.73.054C15.136.054 0 15.18 0 33.77c0 18.596 15.135 33.726 33.73 33.726 18.591 0 33.721-15.125 33.721-33.726 0-18.59-15.13-33.716-33.72-33.716zm0 57.822c-13.291 0-24.105-10.809-24.105-24.1 0-13.283 10.814-24.092 24.105-24.092 13.288 0 24.097 10.809 24.097 24.091 0 13.292-10.81 24.1-24.096 24.1zM120.22 86.548c-18.591 0-33.721 15.131-33.721 33.721 0 18.596 15.13 33.731 33.721 33.731 18.595 0 33.721-15.135 33.721-33.731 0-18.59-15.131-33.72-33.721-33.72zm0 57.827c-13.287 0-24.096-10.814-24.096-24.106 0-13.287 10.809-24.096 24.096-24.096s24.096 10.809 24.096 24.096c0 13.292-10.809 24.106-24.096 24.106z"/></g><defs><clipPath id="clip0"><path fill="#fff" d="M0 0h154v154H0z"/></clipPath></defs></svg>