<svg width="73" height="73" fill="none" xmlns="http://www.w3.org/2000/svg"><g clip-path="url(#clip0)" fill="#7094CF"><path d="M36.751 33.213a3.29 3.29 0 0 0-3.287 3.287 3.29 3.29 0 0 0 3.287 3.287 3.29 3.29 0 0 0 3.287-3.287 3.29 3.29 0 0 0-3.287-3.287zM25.607 40.542a2.065 2.065 0 0 0-2.062-2.063 2.065 2.065 0 0 0-2.063 2.063c0 1.137.926 2.062 2.063 2.062a2.065 2.065 0 0 0 2.062-2.062z"/><path d="M48.295 36.5c.328-.362.637-.726.922-1.089 2.217-2.816 2.864-5.36 1.824-7.161-1.04-1.802-3.567-2.513-7.114-2.002-2.2.317-4.665 1.079-7.175 2.2a32.298 32.298 0 0 0-3.898-1.46c.126-.384.26-.755.402-1.11.775-1.939 1.747-3.264 2.71-3.744a4 4 0 0 1 1.262-2.101A3.499 3.499 0 0 0 36.75 20c-2.08 0-3.96 1.832-5.29 5.16-.172.428-.332.877-.482 1.343a20.42 20.42 0 0 0-1.404-.255c-3.547-.51-6.073.2-7.113 2.002-1.04 1.802-.393 4.345 1.823 7.161 1.375 1.748 3.266 3.502 5.491 5.115.15 1.44.38 2.82.686 4.105a18.55 18.55 0 0 1-1.163.207c-2.064.297-3.695.12-4.593-.473a3.98 3.98 0 0 1-2.453-.043c.06.147.13.29.209.428.82 1.421 2.564 2.163 5.004 2.163.654 0 1.359-.053 2.11-.161.456-.066.925-.152 1.403-.255.15.466.31.915.482 1.343 1.33 3.328 3.21 5.16 5.29 5.16s3.96-1.832 5.29-5.16c.826-2.064 1.4-4.579 1.684-7.313a32.302 32.302 0 0 0 3.213-2.646c.27.301.523.603.76.903 1.294 1.644 1.955 3.151 1.886 4.226a3.993 3.993 0 0 1 1.188 2.139 3.5 3.5 0 0 0 .269-.399c1.04-1.802.393-4.345-1.823-7.161a20.525 20.525 0 0 0-.923-1.089zm-4.092-8.338c2.633-.38 4.563.015 5.163 1.055.6 1.04-.023 2.908-1.668 4.999-.237.3-.49.602-.76.903-1.828-1.726-4.087-3.388-6.597-4.837-.425-.245-.85-.48-1.278-.707 1.807-.7 3.553-1.184 5.14-1.413zm-18.399 6.054c-1.644-2.09-2.268-3.96-1.667-5 .6-1.039 2.53-1.433 5.162-1.054.38.055.767.124 1.163.207-.581 2.445-.891 5.233-.891 8.131 0 .49.01.977.027 1.46-1.51-1.215-2.802-2.484-3.794-3.744zm5.7 2.284c0-2.741.29-5.364.83-7.651 2.25.675 4.666 1.737 7.04 3.108 2.374 1.37 4.502 2.931 6.212 4.543-1.71 1.611-3.838 3.173-6.212 4.543-2.374 1.371-4.79 2.433-7.04 3.108-.541-2.287-.83-4.91-.83-7.651zm8.742 10.622c-.988 2.47-2.294 3.944-3.495 3.944-1.2 0-2.507-1.474-3.495-3.944a18.587 18.587 0 0 1-.402-1.11c2.408-.72 4.977-1.845 7.487-3.294.425-.245.841-.497 1.25-.753-.296 1.915-.75 3.668-1.345 5.157z"/><path d="M46.851 43.858a2.065 2.065 0 0 0-2.062 2.063c0 1.137.925 2.062 2.062 2.062a2.065 2.065 0 0 0 2.063-2.062 2.065 2.065 0 0 0-2.063-2.063zM39.858 25.1a2.065 2.065 0 0 0 2.062-2.062 2.065 2.065 0 0 0-2.063-2.063 2.065 2.065 0 0 0-2.062 2.063c0 1.137.925 2.062 2.063 2.062z"/></g><circle cx="36.5" cy="36.5" r="36" stroke="#000" stroke-opacity=".3"/><defs><clipPath id="clip0"><path fill="#fff" transform="translate(20 20)" d="M0 0h33v33H0z"/></clipPath></defs></svg>