<svg width="73" height="73" fill="none" xmlns="http://www.w3.org/2000/svg"><circle cx="36.5" cy="36.5" r="36" stroke="#000" stroke-opacity=".3"/><path d="M37.9 31.313h-2.95a.293.293 0 0 0-.294.293v3.163c0 .162.131.294.293.294h2.989a1.877 1.877 0 0 0 1.874-1.843c.018-1.049-.863-1.907-1.912-1.907zM37.9 36.938h-2.95a.293.293 0 0 0-.294.292v3.165c0 .161.131.292.293.292h2.989a1.877 1.877 0 0 0 1.874-1.842c.018-1.049-.863-1.907-1.912-1.907z" fill="#7094CF"/><path d="M47.607 25.393A14.902 14.902 0 0 0 37 21c-4.007 0-7.773 1.56-10.607 4.393A14.902 14.902 0 0 0 22 36c0 4.007 1.56 7.773 4.393 10.607A14.901 14.901 0 0 0 37 51c4.007 0 7.773-1.56 10.607-4.393A14.902 14.902 0 0 0 52 36c0-4.007-1.56-7.773-4.393-10.607zm-5.92 13.42a3.754 3.754 0 0 1-2.174 3.401.293.293 0 0 0-.17.265v.995c0 .504-.387.939-.892.962a.937.937 0 0 1-.982-.936v-.645a.293.293 0 0 0-.293-.292h-1.29a.293.293 0 0 0-.292.292v.619c0 .504-.388.939-.892.962a.937.937 0 0 1-.983-.936v-.645a.293.293 0 0 0-.293-.292H31.87c-.505 0-.939-.389-.963-.893a.938.938 0 0 1 .937-.983h.644a.293.293 0 0 0 .293-.292v-8.79a.293.293 0 0 0-.293-.293h-.618c-.505 0-.939-.387-.963-.892a.938.938 0 0 1 .937-.983h1.582a.293.293 0 0 0 .293-.293v-.617c0-.505.388-.94.892-.963a.937.937 0 0 1 .983.936v.645c0 .161.13.293.293.293h1.289a.293.293 0 0 0 .293-.293v-.619c0-.504.388-.939.892-.962a.937.937 0 0 1 .983.936v1.02c0 .115.066.218.17.266a3.754 3.754 0 0 1 2.173 3.401 3.736 3.736 0 0 1-1.058 2.608.293.293 0 0 0 0 .41 3.736 3.736 0 0 1 1.059 2.608z" fill="#7094CF"/></svg>