<svg width="31" height="31" fill="none" xmlns="http://www.w3.org/2000/svg"><g clip-path="url(#clip0)"><path d="M6.625 5.394H.912a.912.912 0 0 1 0-1.824h5.713a.912.912 0 0 1 0 1.824z" fill="#fff"/><path d="M9.89 8.658a4.18 4.18 0 0 1-4.177-4.176A4.181 4.181 0 0 1 9.889.306a4.181 4.181 0 0 1 4.177 4.176 4.18 4.18 0 0 1-4.177 4.176zm0-6.529a2.356 2.356 0 0 0-2.354 2.353A2.355 2.355 0 0 0 9.89 6.835a2.355 2.355 0 0 0 2.353-2.353A2.356 2.356 0 0 0 9.889 2.13z" fill="#7094CF"/><path d="M30.088 5.394H16.461a.912.912 0 0 1 0-1.824h13.627a.912.912 0 0 1 0 1.824zM15.56 16.411H.911a.912.912 0 0 1 0-1.823h14.647a.912.912 0 0 1 0 1.823zM30.088 16.411h-4.692a.912.912 0 0 1 0-1.823h4.692a.912.912 0 0 1 0 1.823zM30.088 27.43H15.441a.912.912 0 0 1 0-1.824h14.647a.912.912 0 0 1 0 1.823zM5.605 27.43H.912a.912.912 0 0 1 0-1.824h4.693a.912.912 0 0 1 0 1.823z" fill="#fff"/><path d="M8.87 30.694a4.181 4.181 0 0 1-4.177-4.177 4.18 4.18 0 0 1 4.176-4.176 4.18 4.18 0 0 1 4.177 4.176 4.181 4.181 0 0 1-4.177 4.177zm0-6.53a2.355 2.355 0 0 0-2.354 2.353A2.356 2.356 0 0 0 8.87 28.87a2.356 2.356 0 0 0 2.353-2.353 2.355 2.355 0 0 0-2.353-2.352zM22.13 19.676a4.18 4.18 0 0 1-4.175-4.176 4.18 4.18 0 0 1 4.176-4.176 4.18 4.18 0 0 1 4.176 4.176 4.18 4.18 0 0 1-4.176 4.176zm0-6.529a2.355 2.355 0 0 0-2.352 2.353 2.355 2.355 0 0 0 2.353 2.352 2.355 2.355 0 0 0 2.353-2.352 2.355 2.355 0 0 0-2.353-2.353z" fill="#7094CF"/></g><defs><clipPath id="clip0"><path fill="#fff" d="M0 0h31v31H0z"/></clipPath></defs></svg>