<svg width="994" height="741" fill="none" xmlns="http://www.w3.org/2000/svg"><g clip-path="url(#clip0)" fill="#EB3333"><path d="M389.46 645.556c82.585-82.515 136.023-189.299 136.023-310.644V0h77.727v334.912c0 58.246 9.716 131.053 29.148 184.445 19.432-53.392 29.148-121.345 29.148-184.445V0h77.727v334.912c0 121.345 53.437 232.983 136.023 310.644C923.835 694.094 986.989 728.07 1055 752.339V830c-92.301-24.269-170.028-72.807-238.04-131.053-48.579-48.538-87.443-101.929-116.591-160.175-19.431 53.392-43.721 101.93-72.869 140.76-29.148-38.83-53.438-87.368-72.869-140.76-29.148 63.099-68.012 116.491-116.591 160.175C374.886 762.047 292.301 805.731 200 830v-77.661c77.727-19.415 140.881-58.245 189.46-106.783z" fill-opacity=".13"/><path d="M897.142 356.566c-6.53-3.655-13.06-6.787-15.933-14.357-1.567-4.177-1.306-9.397-2.873-13.574-3.134-8.614-9.664-15.923-16.977-21.143-18.806-13.052-42.314-12.53-63.992-8.875 2.873-6.787 5.485-13.574 7.835-20.622 1.829-5.481 3.396-10.963 4.702-16.706 2.089-8.614 3.395-16.967 3.918-25.842.783-12.79 5.485-20.099 10.447-31.323 10.187-23.493 1.306-51.684-19.067-66.563-21.94-16.184-51.977-16.184-75.484-3.132-22.463 12.268-45.448 40.198-37.612 67.084-3.657-1.044-7.836 1.045-9.925 4.699-3.918 7.048 2.089 14.618.522 21.927-1.306 6.003-4.179 11.746.784 16.967 2.089 2.349 4.962 3.393 8.097 3.393-3.918 28.713-5.747 59.776-2.09 88.75-8.88 1.305-15.41 6.787-24.813 8.092-15.411 2.35-31.866-1.566-47.015 1.305-4.701.783-10.97 1.045-11.492 7.309 0 1.044 0 1.827.261 2.611-10.97-1.045-36.828-.784-28.47 12.529 3.657 5.743 13.321 7.57 19.589 8.614 7.575 1.044 15.411.522 22.985-1.044-1.044 3.654-1.828 7.57-2.873 11.224-.522 2.088-1.306 4.438-2.089 6.787-7.314.783-15.411 4.699-20.112 8.353-2.873 2.349-4.44 5.743-2.351 9.397.522 1.044 1.567 1.827 2.351 2.349a48.824 48.824 0 0 1-5.224 2.611c-23.769-7.048-47.276-14.879-70.522-23.754-13.582-5.221-27.164-10.963-40.485-16.706-12.276-5.482-27.164-10.18-37.35-19.316-13.06-11.747-14.105-31.585-30.299-40.46-9.925-5.221-21.94-5.743-31.343-.522-8.097-7.57-18.805-8.092-29.253-6.004-5.746 1.044-15.411 5.482-14.105 11.486-45.969 9.919-61.119 70.478-33.955 105.717 30.56 39.938 91.418 33.673 115.447-9.136 1.306 2.349 3.657 4.176 6.269 4.959 2.873 1.044 7.313.522 9.925-1.305 24.03 31.324 59.552 55.6 94.03 74.133 23.507 12.529 55.372 27.147 80.708 15.662-1.828 6.786-2.351 13.834-3.134 21.143-1.567 16.184-3.396 32.368-7.314 48.291-3.395 14.356-9.141 26.103-15.671 39.415-3.918 7.57-5.746 14.879-4.441 22.971-.522 0-.783 0-1.305.261-3.918.783-7.575 3.132-9.665 6.004-1.306 1.827-2.35 3.654-2.873 6.004-14.626 4.959-26.38 19.838-36.567 30.279-8.097 8.092-15.932 17.489-16.977 28.713-37.873 3.655-67.388 17.75-94.552 44.898-15.41 15.4-30.559 30.54-49.104 42.287-17.5 11.224-36.044 20.099-54.067 30.279-34.477 19.577-61.902 45.68-87.76 75.438-26.12 30.018-50.41 61.603-81.492 86.662l-.261.261c-14.366-3.915-30.56 4.438-36.045 19.314-4.701-1.56-9.664-2.61-14.888-2.87-4.963-.26-14.104-.52-15.671 5.48-.784 3.4.783 6.01 3.395 8.09-33.955 3.66-94.03 16.97-78.358 52.73 8.358 18.8 31.343 32.63 50.15 38.37 19.066 6.01 33.17-.78 45.708-13.57 12.015 9.92 27.164 19.32 43.097 13.05 16.977-6.52 21.679-30.28 29.776-44.63 23.507-41.77 59.813-75.964 102.909-97.107 39.44-19.317 90.895-20.361 104.477-69.434 4.44-15.923 11.493-25.582 27.948-29.497 10.97-2.871 22.201-2.088 33.432-2.088 9.664 0 19.329-.522 28.47-2.872 14.366 11.225 38.134 11.747 57.985 8.615h.261c13.321 5.742 18.545 11.485 33.433 7.308 18.022-5.22 35-8.353 53.544-6.787 0 .784.261 1.306.523 2.089 5.746 30.801 13.582 60.298 16.194 91.883.783 9.136 1.828 19.055 9.402 25.319 8.097 6.791 13.844 2.871 21.941 2.091-1.829 10.18-.262 20.62 0 30.8.522 13.05.522 26.1-.262 38.89-.783 15.4-3.395 30.02 9.926 38.37 1.828 16.45 6.791 36.29 19.328 46.99 12.537 10.7 32.649 14.1 48.843 13.31 16.455-.78 22.985-12.53 27.948-27.14 3.395-10.71 3.134-21.93 6.529-32.37 3.657-11.49 11.493-20.89 15.411-32.63 12.798-38.37 12.537-78.572 14.627-118.509.522-9.136 1.044-18.272 1.828-27.408 5.224-53.512 20.112-108.328 36.567-159.49 8.619 0 17.238-1.305 24.291-6.265 10.709-7.309 13.32-20.36 15.41-32.368 2.351-12.79 3.918-26.364 0-38.893-1.567-4.96-4.963-8.614-6.791-13.052-3.657-8.353 2.09-13.573 4.701-21.665 3.918-12.269 3.918-26.103-.522-38.372-2.612-7.309-7.052-13.051-10.97-19.577-6.269-11.485-4.963-22.449-3.396-34.978 5.486-41.243 12.015-82.486 17.762-123.989 18.283-3.655 38.134-11.747 39.962-32.89 0-16.706-10.186-43.592-25.858-52.728z"/></g><defs><clipPath id="clip0"><path fill="#fff" d="M0 0h994v741H0z"/></clipPath></defs></svg>