<svg width="765" height="741" viewBox="0 0 765 741" fill="none" xmlns="http://www.w3.org/2000/svg">
<g clip-path="url(#clip0)">
<path d="M142.385 392.032H135.523L131.235 408.332L115.795 420.343L87.4899 443.506L75.4816 465.811L79.7703 495.837L90.9209 513.853L100.356 519L186.13 517.285L193.85 511.279L205.858 493.264L201.569 467.527L186.13 439.216L168.118 426.348L150.963 410.048L144.101 403.185L142.385 392.032Z" fill="#EB3333"/>
<path d="M147.532 406.616L144.101 403.185L142.385 392.032H135.523L132.092 406.616H147.532Z" fill="#EB3333"/>
<path d="M144.1 488.115L142.385 454.657L138.954 428.062V394.604L135.523 409.189L130.376 430.636L131.234 470.957C131.234 470.957 132.949 497.552 132.949 498.409C132.949 499.267 135.523 512.136 136.38 518.141H144.958L144.1 488.115Z" fill="#EB3333"/>
<path d="M188.703 460.664L180.983 439.216L178.41 434.069L168.975 426.348L169.832 428.064L177.552 446.079L181.841 464.953L180.983 482.111L176.694 498.411L172.406 512.137L168.117 518.142H177.552L185.272 503.558L189.56 481.253L188.703 460.664Z" fill="#EB3333"/>
<path d="M186.13 517.282L193.849 511.277L205.858 493.261L201.569 467.525L198.996 462.377L200.711 474.388L198.996 494.119L191.276 509.561L184.414 518.14L186.13 517.282Z" fill="#EB3333"/>
<path d="M124.373 501.84L120.942 488.972L118.368 464.093L121.799 439.214L122.657 427.204L129.519 414.335L137.239 398.035H133.808L131.234 408.33L125.23 412.619L123.515 416.909L116.653 424.63L110.649 443.504V478.677L114.08 506.13L122.657 518.998H128.661L124.373 501.84Z" fill="#EB3333"/>
<path d="M114.937 519L105.502 506.132L102.071 494.121L100.355 470.958L102.071 442.648L109.79 425.49L114.079 422.058L101.213 432.353L98.6398 437.501L93.4933 449.511L91.7779 482.111L96.9243 506.99L109.79 519H114.937Z" fill="#EB3333"/>
<path d="M88.3477 503.556L82.3435 483.824V458.946L90.9209 440.93L87.4899 443.504L75.4816 465.809L79.7703 495.835L90.9209 513.851L100.356 518.998H102.072L88.3477 503.556Z" fill="#EB3333"/>
<path d="M162.97 437.498L155.251 419.483L146.673 410.046L141.527 404.04L140.669 398.035H138.096L138.954 404.04L144.958 415.193L151.82 438.356L154.393 460.661L156.966 485.54L154.393 505.272L152.678 518.14H160.397L168.975 488.972L168.117 461.519L162.97 437.498Z" fill="#EB3333"/>
<path d="M203.284 478.676L198.138 482.108L174.121 488.113L139.812 488.971L95.2092 485.54L77.1966 478.676L79.7703 495.835L90.9209 513.851L100.356 518.998L186.13 517.282L193.849 511.277L205.858 493.261L203.284 478.676Z" fill="#EB3333"/>
<path d="M77.1966 478.676L79.7703 495.835L90.9209 513.851L100.356 518.998H102.072L88.3477 503.556L82.3435 483.824L82.3431 480.392L77.1966 478.676Z" fill="#EB3333"/>
<path d="M91.7779 484.683L96.9243 506.988L109.79 518.999H114.937L105.502 506.131L102.071 494.12V486.399L95.2088 485.541L91.7779 484.683Z" fill="#EB3333"/>
<path d="M114.079 506.132L122.657 519H128.661L124.372 501.842L120.941 488.974V487.258L111.506 486.4L114.079 506.132Z" fill="#EB3333"/>
<path d="M132.092 488.114C132.092 493.261 132.95 498.409 132.95 498.409C132.95 499.267 135.523 512.135 136.381 518.14H144.958L144.101 488.114H132.092Z" fill="#EB3333"/>
<path d="M168.975 488.972L168.975 488.114H156.967L154.393 505.272L152.678 518.14H160.397L168.975 488.972Z" fill="#EB3333"/>
<path d="M185.272 503.557L189.56 484.683L179.268 486.399L176.694 498.409L172.406 512.136L168.117 518.141H177.552L185.272 503.557Z" fill="#EB3333"/>
<path d="M203.284 478.676L199.853 480.392L198.996 494.119L191.276 509.561L184.414 518.14L186.13 517.282L193.849 511.277L205.858 493.261L203.284 478.676Z" fill="#EB3333"/>
<path d="M138.096 381.736L132.95 386.025L138.096 391.173L142.385 389.457L140.669 383.452L138.096 381.736Z" fill="#EB3333"/>
<path d="M136.381 347.42L138.096 387.741L138.954 347.42H136.381Z" fill="#EB3333"/>
<path d="M130.376 355.14L144.1 354.282L143.242 357.714H130.376V355.14Z" fill="#EB3333"/>
<path d="M132.092 368.868L143.243 372.299V375.731L132.092 371.441V368.868Z" fill="#EB3333"/>
<path d="M325.084 577.336L408.285 558.463V638.247L403.138 710.31H380.837L316.506 611.652L325.084 577.336Z" fill="#EB3333"/>
<path d="M638.159 538.729L637.301 691.434L596.988 685.429L594.414 543.876L638.159 538.729Z" fill="#EB3333"/>
<path d="M588.41 394.606L584.121 410.906L566.109 428.922L542.95 449.511L531.799 472.674V536.158L568.682 549.884L605.565 555.032L640.732 551.6L662.175 537.874L669.037 482.111L643.305 446.079L613.284 423.774L598.703 405.759L592.698 392.032L588.41 394.606Z" fill="#EB3333"/>
<path d="M646.736 506.13C645.021 506.988 613.285 509.562 613.285 509.562L566.967 508.704L530.941 497.552V536.157L567.824 550.741L604.707 555.03L639.017 551.599L661.318 537.872L665.607 500.125C658.745 502.699 648.452 506.13 646.736 506.13Z" fill="#EB3333"/>
<path d="M567.824 461.522L554.958 480.395L536.088 495.837L525.795 514.711L522.364 542.163L535.23 565.327L562.678 573.905L575.544 570.474H604.707L614.142 571.332L628.724 557.606L632.155 535.3L622.72 507.848L606.423 490.69L586.695 479.537L574.686 464.095L572.971 457.232L568.682 456.374L567.824 461.522Z" fill="#EB3333"/>
<path d="M604.707 570.472L614.142 571.33L628.724 557.603L632.155 535.298L630.439 531.009L623.577 536.156L587.552 545.593L539.519 542.161L523.222 531.867L522.364 542.161L535.23 565.324L562.678 573.903L575.544 570.472H604.707Z" fill="#EB3333"/>
<path d="M547.239 573.904L567.824 569.615L595.272 566.183L615 569.615L615.858 646.825L625.293 655.404L633.013 657.977L632.155 684.572L645.021 688.862L650.167 697.44L651.025 716.314L649.31 729.183L646.737 751.488L563.536 750.63L547.239 573.904Z" fill="#EB3333"/>
<path d="M711.924 766.929H746.234L753.096 767.787L758.242 771.219L762.531 809.824L789.979 814.113L815.711 814.971L820 905.908L759.1 923.066L714.498 924.781L711.924 766.929Z" fill="#EB3333"/>
<path d="M734.226 895.615L714.498 897.331V924.784L759.101 923.068L820 905.91L819.142 893.899L790.837 896.473L734.226 895.615Z" fill="#EB3333"/>
<path d="M762.531 809.824L761.674 922.208L820 905.908L815.711 814.971L789.979 814.113L762.531 809.824Z" fill="#EB3333"/>
<path d="M762.531 895.615L761.674 922.21L820 905.91L819.142 893.899L790.837 896.473L762.531 895.615Z" fill="#EB3333"/>
<path d="M643.305 730.9L673.326 726.61L700.773 730.9L705.062 734.331L703.347 747.2L640.732 751.489L643.305 730.9Z" fill="#EB3333"/>
<path d="M639.017 740.334L675.042 741.192L698.201 742.049L716.213 746.339L720.502 760.065L722.217 931.644L682.761 933.359L646.736 935.075L639.017 740.334Z" fill="#EB3333"/>
<path d="M113.222 785.804L111.506 935.078L126.088 936.793H144.1L183.556 939.367L218.724 944.514L259.895 938.509L331.088 939.367L385.983 935.078L433.159 944.514L554.1 945.372L651.883 941.941L655.314 937.651L660.46 768.646L661.318 743.767L568.682 738.62L478.619 736.904L416.004 731.757L295.92 725.752L240.167 762.641L171.548 766.073L113.222 785.804Z" fill="#EB3333"/>
<path d="M386.841 173.27L351.673 265.064L336.234 309.675L458.033 310.532L429.728 210.159L416.861 168.98L386.841 173.27Z" fill="#EB3333"/>
<path d="M391.987 172.411L386.841 173.27L351.673 265.064L336.234 309.675L345.669 309.674L391.987 172.411Z" fill="#EB3333"/>
<path d="M364.54 309.673H373.975L397.991 171.552L391.13 172.41L364.54 309.673Z" fill="#EB3333"/>
<path d="M392.845 309.672H406.569V169.835L396.276 171.551L392.845 309.672Z" fill="#EB3333"/>
<path d="M413.43 168.98L450.313 310.532H458.033L429.728 210.159L416.861 168.98H413.43Z" fill="#EB3333"/>
<path d="M379.979 114.933L385.126 163.833H418.578L416.862 117.507L395.419 108.928L379.979 114.933Z" fill="#EB3333"/>
<path d="M410.858 163.831H418.577L416.862 117.504L411.716 114.931L410.858 163.831Z" fill="#EB3333"/>
<path d="M385.126 163.833L388.557 163.833L384.268 113.217L379.979 114.933L385.126 163.833Z" fill="#EB3333"/>
<path d="M379.121 168.121L382.552 162.116L386.84 159.543L405.711 161.258L420.292 162.116L422.008 168.121L421.15 179.274L414.288 174.985L397.991 175.843L383.41 181.848L379.979 174.985L379.121 168.121Z" fill="#EB3333"/>
<path d="M382.552 162.116L379.979 167.264L389.414 163.832L406.569 164.69L422.008 168.121L420.292 162.116L405.711 161.258L386.84 159.543L382.552 162.116Z" fill="#EB3333"/>
<path d="M413.431 170.694H394.561L381.694 177.557L383.41 181.846L397.991 175.841L414.288 174.983L421.15 179.273V174.125L413.431 170.694Z" fill="#EB3333"/>
<path d="M395.419 65.1744L383.41 78.9006L371.402 91.769L367.971 111.501L374.833 120.937L383.41 120.079L393.703 115.79L410 119.222L421.151 121.795L426.297 111.501L423.724 94.3427L410.858 79.7585L398.85 66.8901L395.419 65.1744Z" fill="#EB3333"/>
<path d="M395.418 56.5954L391.129 60.027L395.418 64.3165L398.849 62.6007L397.134 58.3112L395.418 56.5954Z" fill="#EB3333"/>
<path d="M393.703 30L395.419 58.3105V30H393.703Z" fill="#EB3333"/>
<path d="M389.414 35.1481H398.849V37.7218L389.414 36.8639V35.1481Z" fill="#EB3333"/>
<path d="M391.129 44.5857L397.991 47.1594L398.849 49.733L391.129 47.1594V44.5857Z" fill="#EB3333"/>
<path d="M422.866 110.643L408.285 105.495C408.285 105.495 388.557 103.78 386.841 103.78C385.984 103.78 374.833 107.211 374.833 107.211L371.402 115.79L375.691 121.795L384.268 120.937L394.561 117.506L410.858 120.937L421.151 123.511L425.44 116.648L422.866 110.643Z" fill="#EB3333"/>
<path d="M315.649 318.253L340.523 295.09L380.837 304.526L399.707 279.648L428.871 302.811L470.9 305.384L464.038 314.821L464.896 373.158L334.519 368.868V344.847L315.649 318.253Z" fill="#EB3333"/>
<path d="M464.038 314.821L470.9 305.384L428.871 302.811L399.707 279.648L380.837 304.526L340.523 295.09L315.649 318.253L327.657 334.553L344.812 313.963L382.553 320.826L401.423 303.669L421.151 320.826L464.896 319.968L464.038 314.821Z" fill="#EB3333"/>
<path d="M428.871 302.811L399.707 279.648L380.837 304.526L340.523 295.09L315.649 318.253L321.653 325.974L340.523 303.669L379.122 312.247L399.707 288.226L425.44 308.816L467.469 311.39L470.9 305.384L428.871 302.811Z" fill="#EB3333"/>
<path d="M344.811 312.246L346.527 332.835L347.384 372.298L350.815 373.156L352.531 312.246H344.811Z" fill="#EB3333"/>
<path d="M383.41 313.962V339.698L385.983 374.014L391.129 373.156L390.271 312.246L383.41 313.962Z" fill="#EB3333"/>
<path d="M417.719 310.532L416.862 374.874L423.723 374.016V340.559L425.439 313.106L417.719 310.532Z" fill="#EB3333"/>
<path d="M328.515 365.435L338.808 356.856L349.958 361.146L365.398 348.277L379.122 346.562L390.272 350.851L399.707 363.72L416.862 348.277H428.871L444.31 356.856L447.741 366.293L459.749 358.572L470.9 362.004L469.184 385.167L465.753 453.798V465.809L377.406 441.788L331.946 446.077L336.235 421.198L333.661 386.025L328.515 365.435Z" fill="#EB3333"/>
<path d="M354.247 363.719L364.54 353.424L374.833 349.992L388.557 354.282L397.992 365.435L395.419 367.15L383.41 357.714H369.686L360.251 362.861L354.247 368.008V363.719Z" fill="#EB3333"/>
<path d="M403.138 365.435L415.146 355.998L422.866 354.282L433.159 356.856L439.163 361.145L443.452 368.008V377.445L440.878 376.587L436.59 366.292L428.012 362.003L420.293 362.861L405.711 368.866L403.138 365.435Z" fill="#EB3333"/>
<path d="M352.531 384.31L356.82 374.874L366.255 369.726H382.552L392.845 377.447L397.134 390.316L395.419 392.889H392.845L385.983 382.595L380.837 379.163H371.402L363.682 381.737L356.82 386.884L352.531 389.458L350.816 387.742L352.531 384.31Z" fill="#EB3333"/>
<path d="M399.707 391.172V393.746L407.426 392.888L414.288 380.877L424.581 380.019L430.585 384.309L435.732 395.462V400.609H438.305V387.74L433.159 374.872L423.724 372.298H411.715L404.853 378.304L399.707 391.172Z" fill="#EB3333"/>
<path d="M349.1 413.479L357.677 400.61L374.832 399.753L388.556 404.042L391.987 409.189L392.845 418.626L391.987 424.631L387.698 423.773L385.983 416.91L373.974 410.047H365.397L358.535 414.337L355.104 421.2H352.531L349.1 413.479Z" fill="#EB3333"/>
<path d="M396.276 423.771L404.853 411.761L418.577 405.755L433.159 409.187L434.874 419.482L431.443 425.487L420.292 419.482L408.284 420.34L401.422 426.345L396.276 423.771Z" fill="#EB3333"/>
<path d="M391.987 400.611L393.702 404.901L395.418 411.764L397.991 413.48L402.28 407.474L405.711 401.469L401.422 398.037L395.418 396.322L391.987 400.611Z" fill="#EB3333"/>
<path d="M393.703 372.299L397.134 377.447L397.992 383.452L400.565 382.594L403.138 375.731V370.583L397.992 368.868L393.703 372.299Z" fill="#EB3333"/>
<path d="M350.816 444.363V422.058L349.958 399.753V361.147L338.808 356.858L328.515 365.437L333.661 386.026L336.235 421.2L331.946 446.079L350.816 444.363Z" fill="#EB3333"/>
<path d="M329.372 368.867L331.088 375.73L331.946 373.156L340.523 369.725L349.101 370.583L348.243 366.293L340.523 363.719L332.803 365.435L329.372 368.867Z" fill="#EB3333"/>
<path d="M331.945 380.878L333.661 386.025L339.665 385.168L344.811 393.746L348.242 392.031L347.384 388.599L344.811 382.594L337.949 377.447L331.945 380.878Z" fill="#EB3333"/>
<path d="M336.234 416.05L339.665 417.766L343.096 424.629L348.242 423.771L347.385 418.624L340.523 406.613L335.376 405.755L336.234 416.05Z" fill="#EB3333"/>
<path d="M339.665 366.295L332.803 369.727L330.23 372.301L331.088 375.732L331.945 373.159L340.523 369.727L349.1 370.585V367.153H346.527L339.665 366.295Z" fill="#EB3333"/>
<path d="M346.527 392.889L343.096 386.026L340.523 382.595H332.804L333.661 386.026L339.666 385.168L344.812 393.747L346.527 392.889Z" fill="#EB3333"/>
<path d="M343.096 416.908L338.807 411.761L335.376 410.045L336.234 416.05L339.665 417.766L343.096 424.629L344.811 423.771L343.096 416.908Z" fill="#EB3333"/>
<path d="M389.414 381.738L381.694 375.732L370.544 374.874L360.251 380.022L351.674 388.601L352.531 389.458L356.82 386.884L363.682 381.737L371.402 379.163H380.837L385.983 382.595L392.845 392.889H395.419L389.414 381.738Z" fill="#EB3333"/>
<path d="M387.699 416.91L384.268 410.904L373.975 407.473H363.682L355.105 411.762L350.816 417.767L352.531 421.199H355.105L358.536 414.336L365.398 410.046H373.975L385.983 416.91L387.699 423.773H389.414L387.699 416.91Z" fill="#EB3333"/>
<path d="M435.732 389.456L433.159 382.592L427.155 376.587C427.155 376.587 420.293 375.729 418.577 375.729C417.719 375.729 410.858 377.445 410.858 377.445L404.853 387.74L403.138 393.745H407.427L415.146 381.735L425.439 380.877L431.443 386.024L436.59 396.319V401.466H437.448L435.732 389.456Z" fill="#EB3333"/>
<path d="M434.875 419.483L427.155 413.478L419.435 411.762L407.427 416.052L397.992 424.631L401.423 426.346L408.285 420.341L420.293 419.483L431.444 425.489L434.875 419.483Z" fill="#EB3333"/>
<path d="M318.222 450.367L344.811 437.498L352.531 433.209L367.113 432.351L393.703 436.64L440.878 451.225L449.456 453.798L448.598 519.856L408.284 563.608L373.117 578.193L338.807 585.056L327.657 580.766L326.799 513.851L318.222 450.367Z" fill="#EB3333"/>
<path d="M408.284 563.608L448.598 519.856L449.456 453.798L440.878 451.225L393.703 436.64L369.686 433.21L370.544 475.246L373.975 524.146L373.117 578.193L408.284 563.608Z" fill="#EB3333"/>
<path d="M393.703 436.64L367.113 432.351L352.531 433.209L344.811 437.498L318.222 450.367L319.937 461.519L337.95 450.367L361.109 444.361L369.686 442.646L386.841 448.651L418.577 457.23L449.456 464.951V453.798L440.878 451.225L393.703 436.64Z" fill="#EB3333"/>
<path d="M393.703 436.64L369.686 433.21V443.504V442.646L386.841 448.651L418.577 457.23L449.456 464.951V453.798L440.878 451.225L393.703 436.64Z" fill="#EB3333"/>
<path d="M258.18 531.867V550.741L259.037 574.762V582.483L295.92 579.909H320.795L336.234 581.625L337.092 535.299L299.351 536.157L266.757 534.441L258.18 531.867Z" fill="#EB3333"/>
<path d="M284.77 556.746L283.054 551.599L280.481 549.025L275.335 550.741L274.477 560.178L275.335 580.767H285.627L284.77 556.746Z" fill="#EB3333"/>
<path d="M298.494 549.025L294.205 553.315V579.909H295.92H303.64L305.356 563.609L302.783 552.457L298.494 549.025Z" fill="#EB3333"/>
<path d="M323.368 549.884L319.937 553.315L318.222 579.91L320.795 579.909L328.514 580.768V569.615L327.657 553.315L323.368 549.884Z" fill="#EB3333"/>
<path d="M215.293 684.572L235.021 616.799L258.18 577.336L289.058 574.762L327.657 576.478L339.665 578.193L367.97 633.099L390.272 683.714L391.987 729.183L215.293 724.893V684.572Z" fill="#EB3333"/>
<path d="M359.393 615.94L345.669 589.345L303.64 586.772L263.326 587.63L251.318 588.487L235.879 615.94L287.343 612.508L342.238 615.082L359.393 615.94Z" fill="#EB3333"/>
<path d="M373.975 645.968L367.971 632.242L361.109 619.374H317.364L278.766 620.232L234.163 621.947L227.301 647.684L269.33 646.826C269.33 646.826 320.795 646.826 324.226 646.826C327.657 646.826 365.397 646.826 365.397 646.826L373.975 645.968Z" fill="#EB3333"/>
<path d="M390.272 683.714L375.69 651.114L328.514 653.687L284.77 652.829H243.598L224.728 651.971L215.293 684.572V689.719L273.619 688.861L337.092 687.145L373.117 686.287L390.272 685.429L390.272 683.714Z" fill="#EB3333"/>
<path d="M390.272 691.436L367.97 692.294H326.799L268.473 694.01L215.293 694.868V724.893L391.987 729.183L390.272 691.436Z" fill="#EB3333"/>
<path d="M244.456 612.508L260.753 610.792L279.623 609.934H294.205L287.343 594.492L269.33 590.202L257.322 594.492L247.887 605.645L244.456 612.508Z" fill="#EB3333"/>
<path d="M296.778 609.936L300.209 596.21L312.217 588.489L325.083 590.205L334.519 599.642L335.376 610.794L296.778 609.936Z" fill="#EB3333"/>
<path d="M271.903 643.393L278.765 627.951L288.2 621.087H306.213L317.364 627.951L322.51 645.966L271.903 643.393Z" fill="#EB3333"/>
<path d="M235.879 682.856L241.025 668.272L254.749 657.12L269.33 656.262L281.339 659.693L289.916 674.277L293.347 684.572L235.879 682.856Z" fill="#EB3333"/>
<path d="M297.635 683.715L301.924 666.557L313.075 657.978L332.803 657.12L343.953 665.699L348.242 682.857L297.635 683.715Z" fill="#EB3333"/>
<path d="M356.82 612.511L348.243 593.637L340.523 597.069L338.807 609.937L356.82 612.511Z" fill="#EB3333"/>
<path d="M326.799 645.11H336.234H362.824L372.259 643.394L367.97 633.099L362.824 622.805H355.962L344.811 623.663L334.519 631.384L326.799 645.11Z" fill="#EB3333"/>
<path d="M232.448 627.95L227.301 644.25H269.33L267.615 636.529L258.18 627.95L243.598 625.377L232.448 627.95Z" fill="#EB3333"/>
<path d="M373.975 654.544L366.255 657.976L356.82 667.413L352.531 681.997L376.548 681.139L389.414 680.281L377.406 654.544H373.975Z" fill="#EB3333"/>
<path d="M232.447 682.856L231.59 675.993L227.301 659.693L223.87 656.262L216.15 682.856H232.447Z" fill="#EB3333"/>
<path d="M369.686 662.266L361.967 671.702L359.393 681.997L376.548 681.139L389.414 680.281L379.121 658.834L369.686 662.266Z" fill="#EB3333"/>
<path d="M301.067 683.713L344.811 682.855L342.238 674.276L336.234 667.413L326.799 663.123L313.933 663.981L303.64 674.276L301.067 683.713Z" fill="#EB3333"/>
<path d="M348.242 628.809L337.949 634.814L331.088 645.109L336.234 645.11H362.824L372.259 643.394L367.97 633.099L365.397 627.951L361.108 626.235L348.242 628.809Z" fill="#EB3333"/>
<path d="M275.334 643.393L318.222 645.967L317.364 640.82L313.933 632.241L304.498 626.235L291.632 627.093L281.339 633.099L275.334 643.393Z" fill="#EB3333"/>
<path d="M262.469 638.246L258.18 633.099L247.029 630.525L230.732 632.241L227.301 644.25L264.184 644.251L262.469 638.246Z" fill="#EB3333"/>
<path d="M287.343 683.713L281.339 668.271L266.757 663.123L252.175 664.839L243.598 674.276L241.025 682.855L287.343 683.713Z" fill="#EB3333"/>
<path d="M285.627 600.498L277.908 596.208L266.757 595.351L257.322 600.498L248.745 611.65L260.753 610.792L279.623 609.934L289.058 609.935L285.627 600.498Z" fill="#EB3333"/>
<path d="M331.945 610.795L331.088 604.79L326.799 597.926L319.079 593.637L307.071 596.211L301.067 603.932L300.209 609.937L331.945 610.795Z" fill="#EB3333"/>
<path d="M104.644 525.003V549.882L107.217 582.482L108.933 593.635L132.949 597.924H168.974L180.125 591.919L178.41 553.314L179.267 525.003L154.393 518.14L126.945 518.998L104.644 525.003Z" fill="#EB3333"/>
<path d="M127.804 518.998V597.066L132.949 597.924H162.971L161.255 519.856L154.393 518.14L127.804 518.998Z" fill="#EB3333"/>
<path d="M175.837 524.147L176.695 593.636L180.125 591.921L178.41 553.315L179.268 525.005L175.837 524.147Z" fill="#EB3333"/>
<path d="M110.648 548.168L108.933 524.147L104.644 525.005V549.884L107.217 582.484L108.933 593.636L113.221 594.494L110.648 548.168Z" fill="#EB3333"/>
<path d="M116.653 567.899L115.795 543.878L116.653 537.872L120.941 536.157L121.799 542.162V567.899H116.653Z" fill="#EB3333"/>
<path d="M142.385 566.182L143.242 546.451L144.1 536.156L147.531 535.298L150.104 539.588L149.247 565.324L142.385 566.182Z" fill="#EB3333"/>
<path d="M166.402 566.182V537.872L169.833 535.298L172.406 538.73L171.548 567.04L166.402 566.182Z" fill="#EB3333"/>
<path d="M103.787 531.866L126.946 523.287L143.243 524.145H161.256L178.41 528.434L188.703 518.139V512.992L169.833 500.124H129.519L100.356 513.85L96.925 518.997L103.787 531.866Z" fill="#EB3333"/>
<path d="M100.355 513.851L108.933 530.151L126.945 523.288L128.661 500.982L100.355 513.851Z" fill="#EB3333"/>
<path d="M188.703 515.566V512.992L169.833 500.124H168.117L161.256 524.145L176.695 527.576L188.703 515.566Z" fill="#EB3333"/>
<path d="M188.703 512.992L169.833 500.124H129.519L100.356 513.85L96.925 518.997L98.6405 523.287L102.072 517.282L128.661 505.271H166.402L186.13 517.282L186.988 519.855L188.703 518.139V512.992Z" fill="#EB3333"/>
<path d="M100.355 513.851L102.071 517.282L128.661 505.272V500.982L100.355 513.851Z" fill="#EB3333"/>
<path d="M188.703 512.992L169.833 500.124H168.117L166.402 505.271L186.13 517.282L186.13 518.139L188.703 515.566V512.992Z" fill="#EB3333"/>
<path d="M446.025 451.227L436.59 450.369L423.724 439.216L418.578 421.201L422.009 395.464L443.452 368.011L464.896 349.138L477.762 336.269L483.766 323.401L488.055 324.259L494.059 337.985L521.506 366.295L554.101 398.895L558.389 421.201L555.816 439.216L542.092 454.658L536.088 452.943L515.502 446.079L493.201 441.79L462.322 445.222L446.025 451.227Z" fill="#EB3333"/>
<path d="M443.451 450.367L444.309 477.82V513.852L487.196 517.283H536.087L538.66 450.367L493.2 437.499L452.886 444.362L443.451 450.367Z" fill="#EB3333"/>
<path d="M528.368 517.285H536.088L538.661 450.369L530.941 447.795L528.368 517.285Z" fill="#EB3333"/>
<path d="M452.886 444.364L443.451 450.369L444.309 477.821V513.853L458.891 515.569V474.39L460.606 443.506L452.886 444.364Z" fill="#EB3333"/>
<path d="M76.3391 610.794L77.1968 592.778L83.201 578.194L90.0629 579.052L95.2094 571.331L102.071 567.042L112.364 573.047L120.942 595.352L127.804 580.768L139.812 573.047L158.682 574.763L166.402 585.915L173.264 574.763L183.557 573.905L191.276 582.484L199.854 594.494V615.941L91.7784 609.936L79.77 612.51L76.3391 610.794Z" fill="#EB3333"/>
<path d="M183.556 573.903L173.264 574.76L166.402 585.913L158.682 574.76L139.812 573.045L127.803 580.766L120.941 595.35L115.795 581.624L116.653 591.918L118.368 598.781L123.515 599.639L132.092 583.339L144.958 578.192L153.536 579.908L162.113 587.629L164.686 596.208L171.548 583.339L180.983 578.192L187.845 581.624L199.854 597.066V594.492L191.276 582.482L183.556 573.903Z" fill="#EB3333"/>
<path d="M92.636 581.626L96.9247 573.047L107.218 570.473L102.071 567.042L95.2094 571.331L90.0629 579.052L83.201 578.194L81.4853 582.484L86.6318 581.626L90.0628 594.494V599.642L92.636 581.626Z" fill="#EB3333"/>
<path d="M98.6399 583.34L95.209 595.351V609.935L115.795 610.793V600.498L112.364 586.772L107.217 578.193L98.6399 583.34Z" fill="#EB3333"/>
<path d="M161.255 613.366L159.54 603.93L156.109 590.203L146.673 586.772L136.381 590.203L130.376 602.214L129.519 611.65L161.255 613.366Z" fill="#EB3333"/>
<path d="M183.556 589.348L173.263 591.921L168.974 605.648L169.832 614.226L195.564 615.942V605.648L190.418 593.637L183.556 589.348Z" fill="#EB3333"/>
<path d="M84.0587 596.211L80.6278 589.348L78.0546 590.205L77.1968 592.778L76.3391 610.794L79.77 612.51L84.0587 611.653V596.211Z" fill="#EB3333"/>
<path d="M73.7655 609.937L94.3512 603.932L118.368 602.216L168.117 603.932H179.268L205.858 613.369L201.569 621.948L203.284 688.863L200.711 750.631L162.113 768.647L113.222 774.652L84.9161 756.637L83.2006 676.853L81.4851 630.526L79.7697 621.948L73.7655 609.937Z" fill="#EB3333"/>
<path d="M201.569 621.948L205.858 613.369L179.268 603.932H168.117L118.368 602.216L94.3512 603.932L73.7655 609.937L79.7697 621.948V622.805L92.6358 617.658L115.795 614.227H139.811L173.263 618.516L201.569 621.948Z" fill="#EB3333"/>
<path d="M179.267 603.93H178.41L173.263 618.514L201.569 621.945L205.857 613.366L179.267 603.93Z" fill="#EB3333"/>
<path d="M119.226 614.226L139.811 614.227L168.117 618.516L170.691 603.932H168.117L120.942 602.216L119.226 614.226Z" fill="#EB3333"/>
<path d="M94.3512 603.932L89.2052 605.648L92.6361 618.516L92.6358 617.658L115.795 614.227L116.653 614.226L117.511 602.216L94.3512 603.932Z" fill="#EB3333"/>
<path d="M153.536 620.23L114.937 617.656L96.9249 621.946L80.6278 625.378L81.4855 630.525L83.201 676.851L84.0588 716.314L84.9165 756.635L113.222 774.651L162.113 768.646L200.711 750.63L203.285 688.862L202.427 627.951L166.402 621.946L153.536 620.23Z" fill="#EB3333"/>
<path d="M170.691 622.805V650.257L171.548 718.031L201.569 722.32L203.285 688.862L202.427 627.951L170.691 622.805Z" fill="#EB3333"/>
<path d="M153.536 620.23L119.226 618.515L120.084 653.689L122.657 718.031L168.117 718.889L167.26 621.947L166.402 621.946L153.536 620.23Z" fill="#EB3333"/>
<path d="M115.795 652.83L114.937 617.656L96.9249 621.946L80.6278 625.378L81.4855 630.525L83.201 676.851L84.0588 716.314V723.177L118.368 717.172L115.795 652.83Z" fill="#EB3333"/>
<path d="M172.406 724.034L120.084 723.176L84.059 728.323L84.9167 756.634L113.222 774.649L162.113 768.644L200.712 750.628L201.569 729.181L172.406 724.034Z" fill="#EB3333"/>
<path d="M171.548 718.031L201.569 722.32L202.427 696.584L199.853 673.421L190.418 627.953H186.987L177.552 672.563L171.548 698.3L171.548 718.031Z" fill="#EB3333"/>
<path d="M148.389 629.668V622.805H144.1L136.38 656.262L126.945 695.726L121.799 708.594L122.657 718.031L168.117 718.889L168.117 707.736L158.682 673.42L148.389 629.668Z" fill="#EB3333"/>
<path d="M118.368 706.877L115.795 701.729L104.644 645.966L99.4975 625.377H96.0666L83.2004 703.445L84.0582 716.313V723.177L118.368 717.171V706.877Z" fill="#EB3333"/>
<path d="M93.4939 674.278H101.214L102.071 715.457H94.3516L93.4939 674.278Z" fill="#EB3333"/>
<path d="M142.385 669.129L143.242 712.882L154.393 714.598L150.104 668.271L142.385 669.129Z" fill="#EB3333"/>
<path d="M184.414 671.705L181.841 714.6H189.56V670.847L184.414 671.705Z" fill="#EB3333"/>
<path d="M493.2 336.269L488.055 324.259L483.766 323.401L477.762 336.269H493.2Z" fill="#EB3333"/>
<path d="M554.1 440.931L555.816 419.484L542.092 391.174L520.649 372.3L506.067 356.858L494.916 341.416V337.126L488.054 322.542L488.912 337.126L501.778 361.147L519.791 380.879C519.791 380.879 534.372 398.895 534.372 400.61C534.372 401.468 544.665 418.626 544.665 418.626L547.238 434.926L545.523 450.368L554.1 440.931Z" fill="#EB3333"/>
<path d="M504.351 380.879L487.196 355.142L482.907 326.832L478.619 335.411L477.761 342.274L485.481 362.005L491.485 378.305L509.497 399.753L522.363 419.484L526.652 439.216L524.937 449.51L534.372 452.084L536.087 446.079V428.921L525.794 404.042L504.351 380.879Z" fill="#EB3333"/>
<path d="M493.201 398.895L482.05 381.738L472.615 356.001L473.472 340.559L469.184 345.706L468.326 354.285L469.184 365.438L475.188 382.595L483.765 399.753L495.774 412.622L501.778 428.922L500.062 442.648L511.213 445.222V428.922L506.067 414.337L493.201 398.895Z" fill="#EB3333"/>
<path d="M492.343 434.068L482.05 416.91L469.184 397.179L464.895 371.442L466.611 348.279L464.896 349.138L460.607 352.568L458.034 364.579C458.034 364.579 458.891 390.316 458.891 392.031C458.891 393.747 466.611 416.052 466.611 416.052L481.193 434.926L482.908 443.505L493.201 442.647L492.343 434.068Z" fill="#EB3333"/>
<path d="M465.753 425.487C465.753 424.629 455.46 403.182 455.46 403.182L448.599 379.161L454.603 358.571L448.599 363.719L444.31 386.024L446.025 399.75L452.887 424.629L463.18 439.213L465.753 446.076L474.331 445.219C470.9 438.355 465.753 426.345 465.753 425.487Z" fill="#EB3333"/>
<path d="M451.171 449.508L458.033 446.934C454.602 441.787 451.171 435.782 451.171 434.924C451.171 434.066 442.594 416.908 442.594 416.908L435.732 395.462L441.736 371.44L432.301 383.45L430.585 388.598L432.301 412.619L445.167 440.929L451.171 449.508Z" fill="#EB3333"/>
<path d="M444.31 451.227L437.448 445.222C437.448 445.222 430.586 434.069 429.728 433.211C429.728 432.353 422.866 411.764 422.866 411.764L424.582 392.032L422.009 395.464L418.578 421.201L423.724 439.216L436.59 451.227H444.31Z" fill="#EB3333"/>
<path d="M555.816 434.927L554.1 432.353L524.937 424.632L490.628 417.769L448.598 418.627L419.435 425.49L423.724 439.216L436.59 450.369L446.025 451.227L462.322 445.222L493.201 441.79L515.502 446.079L536.088 452.943L542.092 454.658L555.816 439.216L555.816 434.927Z" fill="#EB3333"/>
<path d="M423.724 439.214L436.59 451.225H444.31L437.448 445.219C437.448 445.219 430.586 434.067 429.728 433.209C429.728 432.351 428.013 428.061 426.297 423.772L419.435 425.488L423.724 439.214Z" fill="#EB3333"/>
<path d="M435.732 422.057L444.31 441.788L451.172 449.509L458.034 446.936C454.603 441.788 451.172 435.783 451.172 434.925C451.172 434.067 446.025 425.489 444.31 420.341L435.732 422.057Z" fill="#EB3333"/>
<path d="M452.029 423.771L462.322 438.355L464.895 445.219L473.473 444.361C470.899 438.355 464.895 427.203 464.895 426.345C464.895 425.487 463.18 422.913 461.464 418.624H450.314L452.029 423.771Z" fill="#EB3333"/>
<path d="M492.343 434.068L482.05 417.769L468.326 418.627L481.193 434.926L482.908 442.648L492.343 441.79L492.343 434.068Z" fill="#EB3333"/>
<path d="M501.778 428.919L500.063 442.645L506.925 444.361L511.213 445.219V428.919L507.782 421.198L497.489 418.624L501.778 428.919Z" fill="#EB3333"/>
<path d="M523.222 423.772L526.653 439.214L524.937 449.509L534.372 452.082L536.088 446.077V428.919L535.23 427.204L524.937 424.63L523.222 423.772Z" fill="#EB3333"/>
<path d="M546.38 449.511L554.1 440.932L554.958 433.211L554.1 432.353L547.238 430.637V434.927L546.38 449.511Z" fill="#EB3333"/>
<path d="M484.624 315.677L478.619 320.824L484.624 326.829L489.77 324.256L487.197 317.393L484.624 315.677Z" fill="#EB3333"/>
<path d="M482.05 275.358L482.907 318.253L486.338 317.395L485.481 275.358H482.05Z" fill="#EB3333"/>
<path d="M476.046 283.078H490.627L489.77 286.51H476.046V283.078Z" fill="#EB3333"/>
<path d="M477.761 297.664L488.912 301.953L489.769 305.385L477.761 300.238V297.664Z" fill="#EB3333"/>
<path d="M478.619 461.521V502.7H482.908L484.624 464.094L482.908 459.805L478.619 461.521Z" fill="#EB3333"/>
<path d="M496.632 461.52V502.699H503.494V464.952L500.921 458.946L496.632 461.52Z" fill="#EB3333"/>
<path d="M513.787 466.667L514.644 503.556H521.506V467.525L517.218 462.377L513.787 466.667Z" fill="#EB3333"/>
<path d="M466.611 463.236L467.469 500.983L459.749 502.699L458.034 465.81L459.749 460.662L463.18 458.946L466.611 463.236Z" fill="#EB3333"/>
<path d="M397.991 606.502V638.245L396.276 695.723L576.401 700.871L574.686 666.555L573.828 609.934L570.397 603.071L531.799 594.492L429.728 595.35L397.991 606.502Z" fill="#EB3333"/>
<path d="M432.301 670.845L431.443 626.235L432.301 595.351L429.728 595.35L397.991 606.502V638.245L396.276 695.723L432.301 696.582V670.845Z" fill="#EB3333"/>
<path d="M435.732 696.581L492.343 698.297V594.492L435.732 595.35V696.581Z" fill="#EB3333"/>
<path d="M542.949 700.013V658.834L545.522 597.066L531.799 594.492H496.631L494.916 609.934L496.631 645.108L495.773 698.297L542.949 700.013Z" fill="#EB3333"/>
<path d="M576.401 700.874L574.686 666.558L573.828 609.937L570.397 603.074L548.096 597.926L546.38 628.811V700.016L576.401 700.874Z" fill="#EB3333"/>
<path d="M574.686 666.555L574.686 656.261L572.97 651.971L568.681 630.524L565.25 621.087L551.527 657.977L546.38 678.566V691.435L554.958 663.982L563.535 633.098L568.681 647.682L570.397 665.698L575.543 681.998L574.686 666.555Z" fill="#EB3333"/>
<path d="M542.95 686.286L540.377 681.997L531.799 656.26L524.08 627.95L518.933 611.65V607.36L515.502 609.076L504.352 647.681L498.348 667.413L495.774 674.276V690.576L500.921 676.85L512.071 634.813L515.502 621.087H518.076L527.511 654.544L534.373 678.565L540.377 691.434L542.95 694.865V686.286Z" fill="#EB3333"/>
<path d="M492.343 676.85L482.908 663.981L476.046 639.102L468.327 615.081L463.18 607.36L451.172 640.818L442.594 668.271L435.732 681.139V694.865L439.163 688.86L448.599 663.981L463.18 619.371L470.042 634.813L476.046 659.692L484.624 677.708L492.343 690.576V676.85Z" fill="#EB3333"/>
<path d="M416.861 610.793L415.146 609.078L401.422 659.693L396.276 675.993V695.725H397.133L401.422 674.277L415.146 620.23L421.15 646.825L432.301 671.704V670.845V657.12L426.297 645.109L416.861 610.793Z" fill="#EB3333"/>
<path d="M411.716 650.255L410 686.286L416.004 687.144L418.578 650.255H411.716Z" fill="#EB3333"/>
<path d="M459.749 645.111L458.891 683.716L467.468 682L466.611 645.111H459.749Z" fill="#EB3333"/>
<path d="M513.786 647.683L511.213 687.146H519.79L518.933 648.541L513.786 647.683Z" fill="#EB3333"/>
<path d="M560.962 657.12L558.389 691.436H563.535L565.251 657.12H560.962Z" fill="#EB3333"/>
<path d="M412.573 542.161L422.008 519.856L431.444 510.419L458.891 509.561L524.079 513.851L539.519 516.424L548.096 533.582L551.527 555.03L563.536 553.314L569.54 560.177L576.402 574.761L578.117 605.645L573.828 615.94L548.954 603.93L493.201 602.214H421.151L395.419 610.793L386.841 596.208L385.126 560.177L386.841 548.166L397.992 542.161L404.854 540.445L412.573 542.161Z" fill="#EB3333"/>
<path d="M416.862 541.305L422.866 526.721L430.585 517.284L439.163 515.568L449.456 518.142L456.318 531.868L443.452 533.584L434.874 540.447L424.581 562.752L420.293 548.168L416.862 541.305Z" fill="#EB3333"/>
<path d="M392.845 547.31L389.414 553.315L388.557 573.047L389.414 585.915L420.293 571.331L416.862 557.605L410 546.452L400.565 545.594L392.845 547.31Z" fill="#EB3333"/>
<path d="M458.033 535.298L441.736 540.445L433.159 550.74L428.87 567.04V569.614L446.025 567.898H477.761L474.33 549.024L465.753 538.73L458.033 535.298Z" fill="#EB3333"/>
<path d="M483.766 567.897L489.77 549.881L499.205 539.587L511.213 538.729L522.364 542.161L531.799 553.313L533.515 571.329L518.075 570.471L493.201 567.897H483.766Z" fill="#EB3333"/>
<path d="M480.335 556.745L477.762 544.735L470.9 535.298L474.331 524.145L480.335 514.709L489.77 513.851L497.49 518.14L503.494 533.582L494.059 537.014L487.197 543.019L480.335 556.745Z" fill="#EB3333"/>
<path d="M518.075 534.44L522.364 524.145L533.515 518.14L539.519 522.43L544.665 536.156L547.239 552.456V556.745L537.803 566.182L536.946 553.314L532.657 544.735L524.08 537.872L518.075 534.44Z" fill="#EB3333"/>
<path d="M561.82 558.463L550.669 559.321L542.95 567.042L540.376 571.331H549.812L559.247 577.336L569.539 581.626L573.828 585.057L572.113 571.331L566.966 561.894L561.82 558.463Z" fill="#EB3333"/>
<path d="M578.117 605.645L577.259 592.776L559.247 581.624L548.096 578.192L536.088 574.76H518.075L479.477 573.903L444.309 573.045L426.297 573.903L403.996 583.339L386.841 591.06L386.841 596.208L395.419 610.793L421.151 602.214H493.201L548.954 603.93L573.828 615.94L578.117 605.645Z" fill="#EB3333"/>
<path d="M578.117 605.645L577.26 601.357L554.958 588.488L541.234 584.199L482.05 579.909L436.59 579.051L410.858 588.488L388.557 598.783L395.419 610.793L421.151 602.214H493.201L548.954 603.93L573.828 615.94L578.117 605.645Z" fill="#EB3333"/>
<path d="M560.105 566.183H551.527L547.239 571.33H549.812L559.247 577.336L569.54 581.625L568.682 574.762L560.105 566.183Z" fill="#EB3333"/>
<path d="M547.239 552.456L544.665 536.156L539.519 522.43L533.515 518.14L522.364 524.145L518.075 534.44L522.364 537.014L529.226 531.009L535.23 531.867L540.377 540.445V549.024L542.092 561.893L547.239 556.745V552.456Z" fill="#EB3333"/>
<path d="M526.652 559.319L522.364 549.882L512.071 543.877L500.92 548.166L492.343 556.745L488.912 567.898L493.201 567.897L495.774 568.756L496.632 565.324L500.063 555.888L508.64 553.314L518.933 557.603L520.648 570.472H527.51L526.652 559.319Z" fill="#EB3333"/>
<path d="M497.49 518.14L489.77 513.851L480.335 514.709L474.331 524.145L470.9 535.298L472.615 537.872L478.619 525.003L485.481 521.572L495.774 525.861L499.205 535.298L503.494 533.582L497.49 518.14Z" fill="#EB3333"/>
<path d="M471.757 558.463L467.469 548.168L458.891 541.305L448.598 543.021L436.59 556.747L433.159 568.757H440.878L445.167 556.747L451.171 550.742L458.033 549.026L466.611 558.463V567.899H473.473L471.757 558.463Z" fill="#EB3333"/>
<path d="M446.883 521.571H439.163L433.159 523.287L426.297 534.439L419.435 546.45L420.293 548.166L422.008 553.313L430.586 536.155L436.59 527.576L444.31 529.292L446.025 532.724H452.029L446.883 521.571Z" fill="#EB3333"/>
<path d="M414.289 563.608L406.569 551.597L399.707 552.455L394.561 555.029L393.703 573.045L394.561 583.339L400.565 580.766L399.707 572.187L401.423 561.034L406.569 562.75L411.716 575.618L417.72 573.045L414.289 563.608Z" fill="#EB3333"/>
<path d="M387.698 695.725L403.138 690.578L440.878 687.147H471.757L513.786 689.72L543.807 691.436L564.393 695.725L581.547 699.157L584.121 712.883L580.69 742.052L416.861 736.046L399.707 719.747L387.698 709.452V695.725Z" fill="#EB3333"/>
<path d="M564.393 695.725L543.807 691.436L513.786 689.72L471.757 687.147H440.878L403.138 690.578L387.698 695.725V709.452L399.707 719.747L401.422 720.604L442.594 713.741L482.907 711.168L533.514 714.599L558.389 718.889L582.405 724.894L584.121 712.883L581.547 699.157L564.393 695.725Z" fill="#EB3333"/>
<path d="M564.393 695.725L543.807 691.436L513.786 689.72L471.757 687.147H440.878L403.138 690.578L387.698 695.725V709.452L388.556 710.31L415.146 702.589L470.899 700.015L533.514 703.447L566.108 708.594L583.263 714.599L584.121 712.883L581.547 699.157L564.393 695.725Z" fill="#EB3333"/>
<path d="M108.933 766.071L109.79 790.092L148.389 779.797L183.556 774.65L258.179 778.94L307.071 731.755H358.535L419.435 738.619L417.719 730.898L390.272 706.877L282.196 702.587L258.179 710.308L235.02 725.75L204.142 732.613L168.974 740.334L108.933 766.071Z" fill="#EB3333"/>
<path d="M258.179 710.308L240.167 723.177L257.322 778.94H258.179L307.071 731.755L283.054 703.445L282.196 702.587L258.179 710.308Z" fill="#EB3333"/>
<path d="M168.974 740.334L108.933 766.071L109.79 790.092L148.389 779.797L166.401 777.223L168.974 740.334Z" fill="#EB3333"/>
<path d="M331.946 724.034L303.64 726.608L255.607 772.934L248.745 773.792L185.272 770.361L162.113 772.934L138.954 777.224L109.791 784.087L109.79 790.092L148.389 779.797L183.556 774.65L258.179 778.94L307.071 731.755H358.535L419.435 738.619L417.72 732.613L385.126 727.466L331.946 724.034Z" fill="#EB3333"/>
<path d="M109.791 790.093L148.389 779.798L166.402 777.225L167.26 772.077L162.113 772.934L138.954 777.224L109.791 784.087V790.093Z" fill="#EB3333"/>
<path d="M303.64 727.465L255.607 772.934L257.322 778.94L258.18 778.939L307.071 731.755L303.64 727.465Z" fill="#EB3333"/>
<path d="M218.723 640.821H214.435L181.841 750.631L215.292 760.068L255.606 750.631L235.878 682.858L218.723 640.821Z" fill="#EB3333"/>
<path d="M198.138 754.921L216.15 640.821H214.435L211.004 652.832L202.426 703.447L194.707 754.063L198.138 754.921Z" fill="#EB3333"/>
<path d="M218.723 640.821H215.293L214.435 694.01L213.578 759.21L215.292 760.068L217.008 759.21L218.724 694.01L219.582 642.537L218.723 640.821Z" fill="#EB3333"/>
<path d="M229.017 682L219.582 642.537L218.723 640.821H217.009L233.306 712.026L243.599 753.205H246.172L229.017 682Z" fill="#EB3333"/>
<path d="M120.084 863.871V839.85L123.515 821.834L143.243 800.387L156.966 788.376H178.41L192.992 791.808L192.134 826.124L168.117 838.134L129.519 858.724L120.084 863.871Z" fill="#EB3333"/>
<path d="M412.573 730.9L446.883 731.758L508.64 734.331L554.1 736.047L584.979 738.621L584.121 784.947L565.251 784.089L522.364 780.658L464.895 779.8L428.87 778.084H414.288L412.573 730.9Z" fill="#EB3333"/>
<path d="M428.87 778.082L443.451 778.94V757.492L437.447 745.482H430.585L427.154 754.919L426.297 778.082H428.87Z" fill="#EB3333"/>
<path d="M467.469 779.798V761.782L463.18 749.772L458.891 746.34L454.603 750.63L452.887 764.356L453.745 778.94L464.896 779.798H467.469Z" fill="#EB3333"/>
<path d="M491.485 780.656L490.627 761.782L488.912 751.488L483.766 746.34L477.761 751.488L476.046 764.356V779.798L491.485 780.656Z" fill="#EB3333"/>
<path d="M504.352 748.058L501.778 755.779L500.063 767.789L500.921 779.8H512.929C512.929 772.937 512.929 758.352 512.929 757.495C512.929 755.779 509.498 748.058 509.498 748.058H504.352Z" fill="#EB3333"/>
<path d="M539.518 754.92C539.518 753.204 536.945 747.199 536.945 747.199L530.083 753.204L524.937 764.357L526.652 780.657L541.234 781.515C540.376 774.652 539.518 756.636 539.518 754.92Z" fill="#EB3333"/>
<path d="M555.816 754.919L553.243 765.213L551.527 783.229L565.251 784.087H566.109L567.825 761.782L562.678 749.771L555.816 754.919Z" fill="#EB3333"/>
<path d="M508.64 734.331L446.883 731.758L412.573 730.9V737.763L452.887 742.91H501.778L549.811 743.768L584.979 747.2V738.621L554.1 736.047L508.64 734.331Z" fill="#EB3333"/>
<path d="M392.845 935.936L391.13 805.536L388.556 799.531L373.975 804.679L347.385 819.263L343.096 878.457L343.954 938.51L385.983 935.078L392.845 935.936Z" fill="#EB3333"/>
<path d="M433.159 944.514L452.887 944.515L446.025 819.263L435.732 816.689L427.155 820.979L420.293 849.289L422.008 894.757L420.293 941.941L433.159 944.514Z" fill="#EB3333"/>
<path d="M682.761 933.359L705.92 932.502L704.205 831.271L694.769 822.692L680.188 823.55L669.895 832.987L666.464 887.892L665.606 934.218L682.761 933.359Z" fill="#EB3333"/>
<path d="M54.038 679.426H46.3184L38.5987 688.005L6.86232 778.942H119.226L100.356 740.337L65.1887 692.295L54.038 679.426Z" fill="#EB3333"/>
<path d="M38.5987 688.004L6.86232 778.94H11.151L32.5945 712.025L40.3142 686.288L38.5987 688.004Z" fill="#EB3333"/>
<path d="M30.8785 778.939H36.8826L46.3178 680.281L42.0291 683.713L30.8785 778.939Z" fill="#EB3333"/>
<path d="M56.6111 694.01L54.8956 680.284L54.038 679.426H50.6069L65.1885 778.942H72.0504L56.6111 694.01Z" fill="#EB3333"/>
<path d="M100.356 740.337L65.1887 692.295L54.8956 679.426L68.6194 702.589L85.7742 726.61L101.214 751.489L111.506 778.942H119.226L100.356 740.337Z" fill="#EB3333"/>
<path d="M0 776.367L20.5858 768.646L41.1715 767.788L80.6276 768.646L110.649 769.503L119.226 772.077L120.941 783.23L116.653 789.235L114.937 884.461V937.65H53.1799L30.8787 939.366L14.5816 931.645L6.86192 845.856L4.2887 789.235L0 776.367Z" fill="#EB3333"/>
<path d="M0 776.367L4.2887 789.235L6.86192 845.856L14.5816 931.645L30.8787 939.366L27.4477 854.436L23.159 784.088L21.4435 768.646L20.5858 768.646L0 776.367Z" fill="#EB3333"/>
<path d="M110.649 769.503L80.6276 768.646L41.1715 767.788L20.5858 768.646L0 776.367L4.2887 789.235V790.093L23.159 784.088L48.8912 782.372L118.368 786.661L120.941 783.23L119.226 772.077L110.649 769.503Z" fill="#EB3333"/>
<path d="M21.4435 768.646L20.5858 768.646L0 776.367L4.2887 789.235V790.093L23.159 784.088L21.4435 768.646Z" fill="#EB3333"/>
<path d="M103.787 937.651L105.502 848.43L96.0669 847.572V839.851L102.071 835.561L98.6401 823.551L91.7782 819.261L77.1966 823.551L76.3389 838.135H66.046V832.13L60.0418 820.977L51.4644 820.119L41.1715 826.124V842.424H44.6025V853.577H38.5983L42.887 894.756L44.6025 938.508L53.1799 937.65L103.787 937.651Z" fill="#EB3333"/>
<path d="M63.473 835.56L78.9123 836.418V846.713H63.473V835.56Z" fill="#EB3333"/>
<path d="M218.724 795.24V815.829L219.582 828.697L245.314 831.271L262.469 830.413L259.895 794.382L247.887 788.376H231.59L218.724 795.24Z" fill="#EB3333"/>
<path d="M292.489 808.967L335.376 776.367L351.674 764.357L348.243 751.488L344.812 745.483L325.084 742.91L304.498 745.483L297.636 758.352L291.632 772.936L292.489 808.967Z" fill="#EB3333"/>
<path d="M473.472 812.4L474.33 867.305L476.046 893.899L524.079 887.894L522.363 806.394L506.066 803.821L473.472 812.4Z" fill="#EB3333"/>
<path d="M506.925 808.11L478.619 815.831L480.335 888.752L518.933 882.747L517.218 809.826L506.925 808.11Z" fill="#EB3333"/>
<path d="M495.774 826.981V861.297H502.636L503.494 826.123L495.774 826.981Z" fill="#EB3333"/>
<path d="M579.832 814.113L578.975 891.324L623.577 893.039L619.289 814.971L579.832 814.113Z" fill="#EB3333"/>
<path d="M587.552 822.692L586.695 861.297L585.837 883.602L615.858 885.318L613.285 844.139L612.427 823.55L587.552 822.692Z" fill="#EB3333"/>
<path d="M343.096 878.455L343.954 866.445H292.49L204.142 865.587L168.975 887.034L148.389 909.339H112.364L111.506 935.076L126.088 936.792H144.1L183.556 939.366L218.724 944.513L259.895 938.508L331.088 939.366L343.954 938.508L343.096 878.455Z" fill="#EB3333"/>
<path d="M205.858 901.619L203.285 875.024L189.561 882.745L163.829 903.335L146.674 920.493L144.1 936.792L183.556 939.366L208.431 942.798L205.858 901.619Z" fill="#EB3333"/>
<path d="M420.293 941.94L422.008 894.756L421.15 870.735L391.987 866.445L392.845 935.935L385.983 935.078L431.443 943.656L420.293 941.94Z" fill="#EB3333"/>
<path d="M640.732 906.768L621.004 908.484L577.259 906.768L530.941 909.341H450.314L452.887 944.515L446.025 944.515L554.1 945.372L651.883 941.941L655.314 937.651L656.171 907.626L640.732 906.768Z" fill="#EB3333"/>
<path d="M452.886 444.362L443.451 450.367V458.088L458.033 449.51L486.338 445.22L504.351 446.078L529.225 453.799L537.803 456.373L538.66 450.367L493.2 437.499L452.886 444.362Z" fill="#EB3333"/>
<path d="M458.033 449.511H460.606V443.506L452.886 444.364L443.451 450.369V458.09L458.033 449.511Z" fill="#EB3333"/>
<path d="M538.661 450.369L530.941 447.795L530.084 453.8L537.804 456.374L538.661 450.369Z" fill="#EB3333"/>
<path d="M266.757 534.441L258.18 531.867V544.736H265.042L285.627 545.594L304.498 547.309H318.221L337.092 544.736V535.299L299.351 536.157L266.757 534.441Z" fill="#EB3333"/>
<path d="M266.757 534.441L258.18 531.867V537.873L262.468 538.73L281.339 541.304H326.799L337.092 538.73V535.299L299.351 536.157L266.757 534.441Z" fill="#EB3333"/>
<path d="M240.168 525.003L258.18 534.44L265.9 536.156L283.912 537.872L312.218 538.73L331.946 537.014L341.381 531.866L352.531 510.419L351.674 479.535L335.377 462.377L315.649 441.788L297.636 419.483L294.205 410.904L284.77 426.346L270.188 443.504L247.029 460.661L235.021 484.682V506.13L240.168 525.003Z" fill="#EB3333"/>
<path d="M339.665 477.819L342.239 470.098L339.665 467.525L337.092 476.103L333.661 474.388L324.226 468.382L329.372 456.372L327.657 454.656L321.653 467.525L312.218 461.519L307.071 458.088L313.075 451.225L316.506 447.793L319.937 449.509L320.795 448.651L316.506 443.504L307.929 440.072L310.502 435.782L307.929 440.93L301.925 435.782L303.64 434.067L305.356 429.777L303.64 428.061L301.925 433.209L300.209 434.925L296.778 432.351L289.916 424.63L288.201 419.483L285.628 423.772L294.205 434.067L297.636 436.64L290.774 441.788L286.485 436.64L282.197 428.919L280.481 430.635L285.628 439.214L289.059 443.504L281.339 448.651L277.05 441.788L274.477 436.64L272.762 438.356L278.766 450.367L269.331 457.23L263.327 446.935L260.753 448.651L266.757 458.088L267.615 459.803L260.753 465.809L255.607 454.656L253.891 455.514L259.038 466.667L253.891 470.956L251.318 475.246L246.172 463.235L244.456 465.809L250.46 476.961L241.883 490.688L240.168 496.693L236.737 490.688L235.021 486.398V492.403L239.31 500.124L236.737 509.561L237.594 514.709L238.452 509.561L240.168 503.556L246.172 514.709L253.891 519.856L252.176 531.867L254.749 532.724L257.322 521.572L267.615 528.435L273.619 531.867L272.762 536.156V537.014H275.335L276.193 531.867L287.343 537.014L289.059 537.872H304.498L303.64 531.867L314.791 536.156L319.937 537.872L326.799 537.014L322.511 535.298V532.724L324.226 526.719L336.234 529.293L335.377 533.582L337.95 531.867V529.293L340.523 530.151L341.381 527.577L339.665 528.435L342.239 519.856L347.385 520.714L348.243 518.14L342.239 517.282L343.096 513.851L349.1 502.698H350.816V500.124H349.958V492.403L346.527 499.267L340.523 497.551L332.803 494.119L335.377 485.54L337.092 481.251L341.381 483.824L349.958 485.54V482.967L344.812 482.109L339.665 477.819ZM321.653 470.956L319.08 477.819L316.506 482.109L310.502 477.819L301.925 469.24L307.071 459.803L321.653 470.956ZM280.481 495.835L271.046 483.824L270.188 482.109L278.766 470.956L290.774 483.824L289.059 485.54L283.055 499.267L280.481 495.835ZM282.197 501.84L278.766 511.277V512.993L274.477 509.561L265.9 498.409L270.188 486.398L282.197 501.84ZM286.485 474.388L280.481 467.525L281.339 466.667L289.916 458.946L298.494 468.382L292.49 479.535L286.485 474.388ZM290.774 458.088L295.063 454.656L297.636 452.94L299.352 454.656L305.356 458.946L301.067 464.093L299.352 467.525L295.063 463.235L290.774 458.088ZM296.778 477.819L300.209 471.814L304.498 476.961L314.791 484.682L308.787 496.693L302.783 491.546L293.347 482.109L296.778 477.819ZM311.36 497.551L317.364 485.54L326.799 493.261L331.946 495.835L328.515 509.561L320.795 506.13L311.36 497.551ZM315.649 446.935L307.071 457.23L301.925 452.94L300.209 451.225L306.214 446.935L307.929 444.361L315.649 446.935ZM297.636 439.214L300.209 436.64L307.071 441.788L306.214 443.504L299.352 447.793L295.063 442.646H293.347L297.636 439.214ZM284.77 449.509L291.632 444.361L296.778 451.225L289.059 456.372L285.628 452.94L284.77 449.509ZM282.197 451.225L283.055 452.94L287.343 458.088L278.766 466.667L274.477 462.377L272.762 458.946L282.197 451.225ZM271.046 459.803L277.05 468.382L270.188 475.246L268.473 479.535L264.184 473.53L261.611 468.382L271.046 459.803ZM257.322 470.956L259.896 468.382L265.9 481.251L266.757 482.109L261.611 493.261L256.465 485.54L252.176 476.961L257.322 470.956ZM254.749 516.424L252.176 514.709L245.314 507.845L241.883 499.267L245.314 489.83L252.176 478.677L258.18 490.688L261.611 494.977L260.753 495.835L254.749 516.424ZM274.477 527.577L262.469 521.572L258.18 518.14L259.038 514.709L264.184 499.267L275.335 512.993L277.05 514.709L274.477 527.577ZM301.067 537.872L295.921 536.156L278.766 530.151L276.193 529.293V528.435L279.624 517.282L297.636 530.151L301.067 531.009V537.872ZM301.925 528.435L287.343 519.856L281.339 514.709L284.77 504.414L302.783 516.424L301.925 528.435ZM294.205 507.845L285.628 500.124L292.49 485.54L300.209 494.119L307.071 499.267L304.498 505.272L303.64 512.993L294.205 507.845ZM320.795 535.298L319.08 534.44L304.498 529.293L305.356 518.14L309.644 520.714L323.368 526.719L320.795 535.298ZM324.226 523.288L313.075 518.998L306.214 514.709V512.135L310.502 500.982L325.942 512.135L328.515 512.993L324.226 523.288ZM337.95 527.577L330.23 525.861L326.799 524.145L329.372 513.851L340.523 518.14L337.95 527.577ZM341.381 500.124L347.385 500.982L344.812 506.13L341.381 515.567L338.808 514.709L330.23 510.419L332.803 502.698L334.519 496.693L341.381 500.124ZM332.803 492.403L327.657 489.83L318.222 482.967L320.795 478.677L323.368 472.672L333.661 478.677L336.234 480.393L332.803 492.403Z" fill="#EB3333"/>
<path d="M352.531 498.409L339.665 510.42L312.218 513.851L283.055 512.994L252.176 506.13L237.594 500.125L235.021 497.552V506.13L240.168 525.003L258.18 534.44L265.9 536.156L283.912 537.872L312.218 538.73L331.946 537.014L341.381 531.866L352.531 510.419V498.409Z" fill="#EB3333"/>
<path d="M240.167 502.7L246.171 513.853L253.891 519L252.176 531.011L253.891 532.727L256.464 521.574L267.615 528.437L273.619 531.869L272.761 536.158V537.016H275.335L276.192 531.869L287.343 537.016L289.058 537.874H304.498L303.64 531.869L314.791 536.158L319.937 537.874H326.799L322.51 536.158V533.585L324.226 527.579L336.234 530.153L335.376 534.442L337.95 532.727V530.153L340.523 531.011L341.381 529.295L342.238 528.437H339.665L342.238 519.858L347.385 520.716V519.858L348.242 518.142L342.238 517.285L343.096 513.853L349.1 502.7H350.816V500.127H349.958V499.269L344.812 505.274V506.132L341.381 515.569L338.807 514.711L330.23 510.421L323.368 511.279L324.226 512.137L326.799 512.995L323.368 522.432L312.217 518.142L305.356 513.853V512.995H298.494L303.64 516.427L301.925 528.437L287.343 519.858L281.339 514.711L282.197 512.995L278.766 512.137L277.908 511.279H273.619L275.335 513.853L277.05 515.569L273.619 528.437L261.611 522.432L257.322 519L258.18 515.569L260.753 508.706L257.322 507.848L254.749 516.427L252.176 514.711L245.314 507.848L242.74 502.7L238.452 500.985L235.879 509.564L236.736 514.711L237.594 509.564L240.167 502.7ZM328.514 517.285L329.372 513.853L340.523 518.142L337.95 526.721L330.23 525.006L326.799 523.29L328.514 517.285ZM305.356 518.142L309.644 520.716L323.368 526.721L320.795 535.3L319.079 534.442L304.498 529.295L305.356 518.142ZM277.05 528.437L280.481 517.285L298.494 530.153L301.925 531.011L301.067 537.874L295.92 536.158L278.766 530.153L276.192 529.295L277.05 528.437Z" fill="#EB3333"/>
<path d="M287.343 421.199H297.636L298.494 410.904L295.063 407.473L289.058 409.189L287.343 421.199Z" fill="#EB3333"/>
<path d="M294.205 398.894L289.058 403.183L294.205 407.473L298.493 405.757L296.778 399.752L294.205 398.894Z" fill="#EB3333"/>
<path d="M292.489 363.719L295.062 404.04L295.92 363.719H292.489Z" fill="#EB3333"/>
<path d="M286.485 371.44H300.209V374.871L286.485 374.013V371.44Z" fill="#EB3333"/>
<path d="M288.201 385.167L299.351 389.456L300.209 392.888L288.201 388.598V385.167Z" fill="#EB3333"/>
</g>
<defs>
<clipPath id="clip0">
<rect width="765" height="741" fill="white"/>
</clipPath>
</defs>
</svg>
