<svg width="765" height="741" fill="none" xmlns="http://www.w3.org/2000/svg"><g clip-path="url(#clip0)" fill="#EB3333"><path d="M142.385 392.032h-6.862l-4.288 16.3-15.44 12.011-28.305 23.163-12.008 22.305 4.288 30.026 11.15 18.016 9.436 5.147 85.774-1.715 7.72-6.006 12.008-18.015-4.289-25.737-15.439-28.311-18.012-12.868-17.155-16.3-6.862-6.863-1.716-11.153z"/><path d="M147.532 406.616l-3.431-3.431-1.716-11.153h-6.862l-3.431 14.584h15.44z"/><path d="M144.1 488.115l-1.715-33.458-3.431-26.595v-33.458l-3.431 14.585-5.147 21.447.858 40.321s1.715 26.595 1.715 27.452c0 .858 2.574 13.727 3.431 19.732h8.578l-.858-30.026zM188.703 460.664l-7.72-21.448-2.573-5.147-9.435-7.721.857 1.716 7.72 18.015 4.289 18.874-.858 17.158-4.289 16.3-4.288 13.726-4.289 6.005h9.435l7.72-14.584 4.288-22.305-.857-20.589zM186.13 517.282l7.719-6.005 12.009-18.016-4.289-25.736-2.573-5.148 1.715 12.011-1.715 19.731-7.72 15.442-6.862 8.579 1.716-.858z"/><path d="M124.373 501.84l-3.431-12.868-2.574-24.879 3.431-24.879.858-12.01 6.862-12.869 7.72-16.3h-3.431l-2.574 10.295-6.004 4.289-1.715 4.29-6.862 7.721-6.004 18.874v35.173l3.431 27.453 8.577 12.868h6.004l-4.288-17.158z"/><path d="M114.937 519l-9.435-12.868-3.431-12.011-1.716-23.163 1.716-28.31 7.719-17.158 4.289-3.432-12.866 10.295-2.573 5.148-5.147 12.01-1.715 32.6 5.146 24.879L109.79 519h5.147z"/><path d="M88.348 503.556l-6.004-19.732v-24.878l8.577-18.016-3.431 2.574-12.008 22.305 4.288 30.026 11.15 18.016 9.436 5.147h1.716l-13.724-15.442zM162.97 437.498l-7.719-18.015-8.578-9.437-5.146-6.006-.858-6.005h-2.573l.858 6.005 6.004 11.153 6.862 23.163 2.573 22.305 2.573 24.879-2.573 19.732-1.715 12.868h7.719l8.578-29.168-.858-27.453-5.147-24.021z"/><path d="M203.284 478.676l-5.146 3.432-24.017 6.005-34.309.858-44.603-3.431-18.012-6.864 2.573 17.159 11.15 18.016 9.436 5.147 85.774-1.716 7.719-6.005 12.009-18.016-2.574-14.585z"/><path d="M77.197 478.676l2.573 17.159 11.15 18.016 9.436 5.147h1.716l-13.724-15.442-6.004-19.732v-3.432l-5.147-1.716zM91.778 484.683l5.146 22.305 12.866 12.011h5.147l-9.435-12.868-3.431-12.011v-7.721l-6.862-.858-3.431-.858zM114.079 506.132L122.657 519h6.004l-4.289-17.158-3.431-12.868v-1.716l-9.435-.858 2.573 19.732zM132.092 488.114c0 5.147.858 10.295.858 10.295 0 .858 2.573 13.726 3.431 19.731h8.577l-.857-30.026h-12.009zM168.975 488.972v-.858h-12.008l-2.574 17.158-1.715 12.868h7.719l8.578-29.168zM185.272 503.557l4.288-18.874-10.292 1.716-2.574 12.01-4.288 13.727-4.289 6.005h9.435l7.72-14.584zM203.284 478.676l-3.431 1.716-.857 13.727-7.72 15.442-6.862 8.579 1.716-.858 7.719-6.005 12.009-18.016-2.574-14.585zM138.096 381.736l-5.146 4.289 5.146 5.148 4.289-1.716-1.716-6.005-2.573-1.716z"/><path d="M136.381 347.42l1.715 40.321.858-40.321h-2.573z"/><path d="M130.376 355.14l13.724-.858-.858 3.432h-12.866v-2.574zM132.092 368.868l11.151 3.431v3.432l-11.151-4.29v-2.573zM325.084 577.336l83.201-18.873v79.784l-5.147 72.063h-22.301l-64.331-98.658 8.578-34.316zM638.159 538.729l-.858 152.705-40.313-6.005-2.574-141.553 43.745-5.147z"/><path d="M588.41 394.606l-4.289 16.3-18.012 18.016-23.159 20.589-11.151 23.163v63.484l36.883 13.726 36.883 5.148 35.167-3.432 21.443-13.726 6.862-55.763-25.732-36.032-30.021-22.305-14.581-18.015-6.005-13.727-4.288 2.574z"/><path d="M646.736 506.13c-1.715.858-33.451 3.432-33.451 3.432l-46.318-.858-36.026-11.152v38.605l36.883 14.584 36.883 4.289 34.31-3.431 22.301-13.727 4.289-37.747c-6.862 2.574-17.155 6.005-18.871 6.005z"/><path d="M567.824 461.522l-12.866 18.873-18.87 15.442-10.293 18.874-3.431 27.452 12.866 23.164 27.448 8.578 12.866-3.431h29.163l9.435.858 14.582-13.726 3.431-22.306-9.435-27.452-16.297-17.158-19.728-11.153-12.009-15.442-1.715-6.863-4.289-.858-.858 5.148z"/><path d="M604.707 570.472l9.435.858 14.582-13.727 3.431-22.305-1.716-4.289-6.862 5.147-36.025 9.437-48.033-3.432-16.297-10.294-.858 10.294 12.866 23.163 27.448 8.579 12.866-3.431h29.163z"/><path d="M547.239 573.904l20.585-4.289 27.448-3.432L615 569.615l.858 77.21 9.435 8.579 7.72 2.573-.858 26.595 12.866 4.29 5.146 8.578.858 18.874-1.715 12.869-2.573 22.305-83.201-.858-16.297-176.726zM711.924 766.929h34.31l6.862.858 5.146 3.432 4.289 38.605 27.448 4.289 25.732.858L820 905.908l-60.9 17.158-44.602 1.715-2.574-157.852z"/><path d="M734.226 895.615l-19.728 1.716v27.453l44.603-1.716L820 905.91l-.858-12.011-28.305 2.574-56.611-.858z"/><path d="M762.531 809.824l-.857 112.384 58.326-16.3-4.289-90.937-25.732-.858-27.448-4.289z"/><path d="M762.531 895.615l-.857 26.595L820 905.91l-.858-12.011-28.305 2.574-28.306-.858zM643.305 730.9l30.021-4.29 27.447 4.29 4.289 3.431-1.715 12.869-62.615 4.289 2.573-20.589z"/><path d="M639.017 740.334l36.025.858 23.159.857 18.012 4.29 4.289 13.726 1.715 171.579-39.456 1.715-36.025 1.716-7.719-194.741z"/><path d="M113.222 785.804l-1.716 149.274 14.582 1.715H144.1l39.456 2.574 35.168 5.147 41.171-6.005 71.193.858 54.895-4.289 47.176 9.436 120.941.858 97.783-3.431 3.431-4.29 5.146-169.005.858-24.879-92.636-5.147-90.063-1.716-62.615-5.147-120.084-6.005-55.753 36.889-68.619 3.432-58.326 19.731zM386.841 173.27l-35.168 91.794-15.439 44.611 121.799.857-28.305-100.373-12.867-41.179-30.02 4.29z"/><path d="M391.987 172.411l-5.146.859-35.168 91.794-15.439 44.611 9.435-.001 46.318-137.263z"/><path d="M364.54 309.673h9.435l24.016-138.121-6.861.858-26.59 137.263z"/><path d="M392.845 309.672h13.724V169.835l-10.293 1.716-3.431 138.121zM413.43 168.98l36.883 141.552h7.72l-28.305-100.373-12.867-41.179h-3.431zM379.979 114.933l5.147 48.9h33.452l-1.716-46.326-21.443-8.579-15.44 6.005z"/><path d="M410.858 163.831h7.719l-1.715-46.327-5.146-2.573-.858 48.9zM385.126 163.833h3.431l-4.289-50.616-4.289 1.716 5.147 48.9z"/><path d="M379.121 168.121l3.431-6.005 4.288-2.573 18.871 1.715 14.581.858 1.716 6.005-.858 11.153-6.862-4.289-16.297.858-14.581 6.005-3.431-6.863-.858-6.864z"/><path d="M382.552 162.116l-2.573 5.148 9.435-3.432 17.155.858 15.439 3.431-1.716-6.005-14.581-.858-18.871-1.715-4.288 2.573zM413.431 170.694h-18.87l-12.867 6.863 1.716 4.289 14.581-6.005 16.297-.858 6.862 4.29v-5.148l-7.719-3.431zM395.419 65.174L383.41 78.901l-12.008 12.868-3.431 19.732 6.862 9.436 8.577-.858 10.293-4.289L410 119.222l11.151 2.573 5.146-10.294-2.573-17.158-12.866-14.585L398.85 66.89l-3.431-1.716zM395.418 56.595l-4.289 3.432 4.289 4.29 3.431-1.716-1.715-4.29-1.716-1.716z"/><path d="M393.703 30l1.716 28.31V30h-1.716z"/><path d="M389.414 35.148h9.435v2.574l-9.435-.858v-1.716zM391.129 44.586l6.862 2.573.858 2.574-7.72-2.574v-2.573zM422.866 110.643l-14.581-5.148s-19.728-1.715-21.444-1.715c-.857 0-12.008 3.431-12.008 3.431l-3.431 8.579 4.289 6.005 8.577-.858 10.293-3.431 16.297 3.431 10.293 2.574 4.289-6.863-2.574-6.005zM315.649 318.253l24.874-23.163 40.314 9.436 18.87-24.878 29.164 23.163 42.029 2.573-6.862 9.437.858 58.337-130.377-4.29v-24.021l-18.87-26.594z"/><path d="M464.038 314.821l6.862-9.437-42.029-2.573-29.164-23.163-18.87 24.878-40.314-9.436-24.874 23.163 12.008 16.3 17.155-20.59 37.741 6.863 18.87-17.157 19.728 17.157 43.745-.858-.858-5.147z"/><path d="M428.871 302.811l-29.164-23.163-18.87 24.878-40.314-9.436-24.874 23.163 6.004 7.721 18.87-22.305 38.599 8.578 20.585-24.021 25.733 20.59 42.029 2.574 3.431-6.006-42.029-2.573z"/><path d="M344.811 312.246l1.716 20.589.857 39.463 3.431.858 1.716-60.91h-7.72zM383.41 313.962v25.736l2.573 34.316 5.146-.858-.858-60.91-6.861 1.716zM417.719 310.532l-.857 64.342 6.861-.858v-33.457l1.716-27.453-7.72-2.574z"/><path d="M328.515 365.435l10.293-8.579 11.15 4.29 15.44-12.869 13.724-1.715 11.15 4.289 9.435 12.869 17.155-15.443h12.009l15.439 8.579 3.431 9.437 12.008-7.721 11.151 3.432-1.716 23.163-3.431 68.631v12.011l-88.347-24.021-45.46 4.289 4.289-24.879-2.574-35.173-5.146-20.59z"/><path d="M354.247 363.719l10.293-10.295 10.293-3.432 13.724 4.29 9.435 11.153-2.573 1.715-12.009-9.436h-13.724l-9.435 5.147-6.004 5.147v-4.289zM403.138 365.435l12.008-9.437 7.72-1.716 10.293 2.574 6.004 4.289 4.289 6.863v9.437l-2.574-.858-4.288-10.295-8.578-4.289-7.719.858-14.582 6.005-2.573-3.431zM352.531 384.31l4.289-9.436 9.435-5.148h16.297l10.293 7.721 4.289 12.869-1.715 2.573h-2.574l-6.862-10.294-5.146-3.432h-9.435l-7.72 2.574-6.862 5.147-4.289 2.574-1.715-1.716 1.715-3.432z"/><path d="M399.707 391.172v2.574l7.719-.858 6.862-12.011 10.293-.858 6.004 4.29 5.147 11.153v5.147h2.573V387.74l-5.146-12.868-9.435-2.574h-12.009l-6.862 6.006-5.146 12.868zM349.1 413.479l8.577-12.869 17.155-.857 13.724 4.289 3.431 5.147.858 9.437-.858 6.005-4.289-.858-1.715-6.863-12.009-6.863h-8.577l-6.862 4.29-3.431 6.863h-2.573l-3.431-7.721zM396.276 423.771l8.577-12.01 13.724-6.006 14.582 3.432 1.715 10.295-3.431 6.005-11.151-6.005-12.008.858-6.862 6.005-5.146-2.574zM391.987 400.611l1.715 4.29 1.716 6.863 2.573 1.716 4.289-6.006 3.431-6.005-4.289-3.432-6.004-1.715-3.431 4.289zM393.703 372.299l3.431 5.148.858 6.005 2.573-.858 2.573-6.863v-5.148l-5.146-1.715-4.289 3.431z"/><path d="M350.816 444.363v-22.305l-.858-22.305v-38.606l-11.15-4.289-10.293 8.579 5.146 20.589 2.574 35.174-4.289 24.879 18.87-1.716z"/><path d="M329.372 368.867l1.716 6.863.858-2.574 8.577-3.431 8.578.858-.858-4.29-7.72-2.574-7.72 1.716-3.431 3.432zM331.945 380.878l1.716 5.147 6.004-.857 5.146 8.578 3.431-1.715-.858-3.432-2.573-6.005-6.862-5.147-6.004 3.431zM336.234 416.05l3.431 1.716 3.431 6.863 5.146-.858-.857-5.147-6.862-12.011-5.147-.858.858 10.295z"/><path d="M339.665 366.295l-6.862 3.432-2.573 2.574.858 3.431.857-2.573 8.578-3.432 8.577.858v-3.432h-2.573l-6.862-.858zM346.527 392.889l-3.431-6.863-2.573-3.431h-7.719l.857 3.431 6.005-.858 5.146 8.579 1.715-.858zM343.096 416.908l-4.289-5.147-3.431-1.716.858 6.005 3.431 1.716 3.431 6.863 1.715-.858-1.715-6.863zM389.414 381.738l-7.72-6.006-11.15-.858-10.293 5.148-8.577 8.579.857.857 4.289-2.574 6.862-5.147 7.72-2.574h9.435l5.146 3.432 6.862 10.294h2.574l-6.005-11.151zM387.699 416.91l-3.431-6.006-10.293-3.431h-10.293l-8.577 4.289-4.289 6.005 1.715 3.432h2.574l3.431-6.863 6.862-4.29h8.577l12.008 6.864 1.716 6.863h1.715l-1.715-6.863zM435.732 389.456l-2.573-6.864-6.004-6.005s-6.862-.858-8.578-.858c-.858 0-7.719 1.716-7.719 1.716l-6.005 10.295-1.715 6.005h4.289l7.719-12.01 10.293-.858 6.004 5.147 5.147 10.295v5.147h.858l-1.716-12.01zM434.875 419.483l-7.72-6.005-7.72-1.716-12.008 4.29-9.435 8.579 3.431 1.715 6.862-6.005 12.008-.858 11.151 6.006 3.431-6.006zM318.222 450.367l26.589-12.869 7.72-4.289 14.582-.858 26.59 4.289 47.175 14.585 8.578 2.573-.858 66.058-40.314 43.752-35.167 14.585-34.31 6.863-11.15-4.29-.858-66.915-8.577-63.484z"/><path d="M408.284 563.608l40.314-43.752.858-66.058-8.578-2.573-47.175-14.585-24.017-3.43.858 42.036 3.431 48.9-.858 54.047 35.167-14.585z"/><path d="M393.703 436.64l-26.59-4.289-14.582.858-7.72 4.289-26.589 12.869 1.715 11.152 18.013-11.152 23.159-6.006 8.577-1.715 17.155 6.005 31.736 8.579 30.879 7.721v-11.153l-8.578-2.573-47.175-14.585z"/><path d="M393.703 436.64l-24.017-3.43v10.294-.858l17.155 6.005 31.736 8.579 30.879 7.721v-11.153l-8.578-2.573-47.175-14.585zM258.18 531.867v18.874l.857 24.021v7.721l36.883-2.574h24.875l15.439 1.716.858-46.326-37.741.858-32.594-1.716-8.577-2.574z"/><path d="M284.77 556.746l-1.716-5.147-2.573-2.574-5.146 1.716-.858 9.437.858 20.589h10.292l-.857-24.021zM298.494 549.025l-4.289 4.29v26.594h9.435l1.716-16.3-2.573-11.152-4.289-3.432zM323.368 549.884l-3.431 3.431-1.715 26.595 2.573-.001 7.719.859v-11.153l-.857-16.3-4.289-3.431z"/><path d="M215.293 684.572l19.728-67.773 23.159-39.463 30.878-2.574 38.599 1.716 12.008 1.715 28.305 54.906 22.302 50.615 1.715 45.469-176.694-4.29v-40.321z"/><path d="M359.393 615.94l-13.724-26.595-42.029-2.573-40.314.858-12.008.857-15.439 27.453 51.464-3.432 54.895 2.574 17.155.858zM373.975 645.968l-6.004-13.726-6.862-12.868h-43.745l-38.598.858-44.603 1.715-6.862 25.737 42.029-.858H365.397l8.578-.858zM390.272 683.714l-14.582-32.6-47.176 2.573-43.744-.858h-41.172l-18.87-.858-9.435 32.601v5.147l58.326-.858 63.473-1.716 36.025-.858 17.155-.858v-1.715zM390.272 691.436l-22.302.858h-41.171l-58.326 1.716-53.18.858v30.025l176.694 4.29-1.715-37.747z"/><path d="M244.456 612.508l16.297-1.716 18.87-.858h14.582l-6.862-15.442-18.013-4.29-12.008 4.29-9.435 11.153-3.431 6.863zM296.778 609.936l3.431-13.726 12.008-7.721 12.866 1.716 9.436 9.437.857 11.152-38.598-.858zM271.903 643.393l6.862-15.442 9.435-6.864h18.013l11.151 6.864 5.146 18.015-50.607-2.573zM235.879 682.856l5.146-14.584 13.724-11.152 14.581-.858 12.009 3.431 8.577 14.584 3.431 10.295-57.468-1.716zM297.635 683.715l4.289-17.158 11.151-8.579 19.728-.858 11.15 8.579 4.289 17.158-50.607.858zM356.82 612.511l-8.577-18.874-7.72 3.432-1.716 12.868 18.013 2.574zM326.799 645.11h36.025l9.435-1.716-4.289-10.295-5.146-10.294h-6.862l-11.151.858-10.292 7.721-7.72 13.726zM232.448 627.95l-5.147 16.3h42.029l-1.715-7.721-9.435-8.579-14.582-2.573-11.15 2.573zM373.975 654.544l-7.72 3.432-9.435 9.437-4.289 14.584 24.017-.858 12.866-.858-12.008-25.737h-3.431zM232.447 682.856l-.857-6.863-4.289-16.3-3.431-3.431-7.72 26.594h16.297z"/><path d="M369.686 662.266l-7.719 9.436-2.574 10.295 17.155-.858 12.866-.858-10.293-21.447-9.435 3.432zM301.067 683.713l43.744-.858-2.573-8.579-6.004-6.863-9.435-4.29-12.866.858-10.293 10.295-2.573 9.437zM348.242 628.809l-10.293 6.005-6.861 10.295 5.146.001h26.59l9.435-1.716-4.289-10.295-2.573-5.148-4.289-1.716-12.866 2.574zM275.334 643.393l42.888 2.574-.858-5.147-3.431-8.579-9.435-6.006-12.866.858-10.293 6.006-6.005 10.294zM262.469 638.246l-4.289-5.147-11.151-2.574-16.297 1.716-3.431 12.009 36.883.001-1.715-6.005zM287.343 683.713l-6.004-15.442-14.582-5.148-14.582 1.716-8.577 9.437-2.573 8.579 46.318.858zM285.627 600.498l-7.719-4.29-11.151-.857-9.435 5.147-8.577 11.152 12.008-.858 18.87-.858 9.435.001-3.431-9.437zM331.945 610.795l-.857-6.005-4.289-6.864-7.72-4.289-12.008 2.574-6.004 7.721-.858 6.005 31.736.858zM104.644 525.003v24.879l2.573 32.6 1.716 11.153 24.016 4.289h36.025l11.151-6.005-1.715-38.605.857-28.311-24.874-6.863-27.448.858-22.301 6.005z"/><path d="M127.804 518.998v78.068l5.145.858h30.022l-1.716-78.068-6.862-1.716-26.589.858zM175.837 524.147l.858 69.489 3.43-1.715-1.715-38.606.858-28.31-3.431-.858zM110.648 548.168l-1.715-24.021-4.289.858v24.879l2.573 32.6 1.716 11.152 4.288.858-2.573-46.326zM116.653 567.899l-.858-24.021.858-6.006 4.288-1.715.858 6.005v25.737h-5.146z"/><path d="M142.385 566.182l.857-19.731.858-10.295 3.431-.858 2.573 4.29-.857 25.736-6.862.858zM166.402 566.182v-28.31l3.431-2.574 2.573 3.432-.858 28.31-5.146-.858zM103.787 531.866l23.159-8.579 16.297.858h18.013l17.154 4.289 10.293-10.295v-5.147l-18.87-12.868h-40.314l-29.163 13.726-3.431 5.147 6.862 12.869z"/><path d="M100.355 513.851l8.578 16.3 18.012-6.863 1.716-22.306-28.306 12.869zM188.703 515.566v-2.574l-18.87-12.868h-1.716l-6.861 24.021 15.439 3.431 12.008-12.01z"/><path d="M188.703 512.992l-18.87-12.868h-40.314l-29.163 13.726-3.431 5.147 1.716 4.29 3.431-6.005 26.589-12.011h37.741l19.728 12.011.858 2.573 1.715-1.716v-5.147z"/><path d="M100.355 513.851l1.716 3.431 26.59-12.01v-4.29l-28.306 12.869zM188.703 512.992l-18.87-12.868h-1.716l-1.715 5.147 19.728 12.011v.857l2.573-2.573v-2.574zM446.025 451.227l-9.435-.858-12.866-11.153-5.146-18.015 3.431-25.737 21.443-27.453 21.444-18.873 12.866-12.869 6.004-12.868 4.289.858 6.004 13.726 27.447 28.31 32.595 32.6 4.288 22.306-2.573 18.015-13.724 15.442-6.004-1.715-20.586-6.864-22.301-4.289-30.879 3.432-16.297 6.005z"/><path d="M443.451 450.367l.858 27.453v36.032l42.887 3.431h48.891l2.573-66.916-45.46-12.868-40.314 6.863-9.435 6.005z"/><path d="M528.368 517.285h7.72l2.573-66.916-7.72-2.574-2.573 69.49zM452.886 444.364l-9.435 6.005.858 27.452v36.032l14.582 1.716V474.39l1.715-30.884-7.72.858zM76.34 610.794l.857-18.016 6.004-14.584 6.862.858 5.146-7.721 6.862-4.289 10.293 6.005 8.578 22.305 6.862-14.584 12.008-7.721 18.87 1.716 7.72 11.152 6.862-11.152 10.293-.858 7.719 8.579 8.578 12.01v21.447l-108.076-6.005-12.008 2.574-3.43-1.716z"/><path d="M183.556 573.903l-10.292.857-6.862 11.153-7.72-11.153-18.87-1.715-12.009 7.721-6.862 14.584-5.146-13.726.858 10.294 1.715 6.863 5.147.858 8.577-16.3 12.866-5.147 8.578 1.716 8.577 7.721 2.573 8.579 6.862-12.869 9.435-5.147 6.862 3.432 12.009 15.442v-2.574l-8.578-12.01-7.72-8.579zM92.636 581.626l4.289-8.579 10.293-2.574-5.147-3.431-6.862 4.289-5.146 7.721-6.862-.858-1.716 4.29 5.147-.858 3.43 12.868v5.148l2.574-18.016z"/><path d="M98.64 583.34l-3.431 12.011v14.584l20.586.858v-10.295l-3.431-13.726-5.147-8.579-8.577 5.147zM161.255 613.366l-1.715-9.436-3.431-13.727-9.436-3.431-10.292 3.431-6.005 12.011-.857 9.436 31.736 1.716zM183.556 589.348l-10.293 2.573-4.289 13.727.858 8.578 25.732 1.716v-10.294l-5.146-12.011-6.862-4.289zM84.059 596.211l-3.431-6.863-2.573.857-.858 2.573-.858 18.016 3.431 1.716 4.289-.857v-15.442z"/><path d="M73.766 609.937l20.585-6.005 24.017-1.716 49.749 1.716h11.151l26.59 9.437-4.289 8.579 1.715 66.915-2.573 61.768-38.598 18.016-48.891 6.005-28.306-18.015-1.715-79.784-1.716-46.327-1.715-8.578-6.004-12.011z"/><path d="M201.569 621.948l4.289-8.579-26.59-9.437h-11.151l-49.749-1.716-24.017 1.716-20.585 6.005 6.004 12.011v.857l12.866-5.147 23.159-3.431h24.016l33.452 4.289 28.306 3.432z"/><path d="M179.267 603.93h-.857l-5.147 14.584 28.306 3.431 4.288-8.579-26.59-9.436zM119.226 614.226l20.585.001 28.306 4.289 2.574-14.584h-2.574l-47.175-1.716-1.716 12.01zM94.351 603.932l-5.146 1.716 3.431 12.868v-.858l23.159-3.431.858-.001.858-12.01-23.16 1.716zM153.536 620.23l-38.599-2.574-18.012 4.29-16.297 3.432.858 5.147 1.715 46.326.858 39.463.858 40.321 28.305 18.016 48.891-6.005 38.598-18.016 2.574-61.768-.858-60.911-36.025-6.005-12.866-1.716z"/><path d="M170.691 622.805v27.452l.857 67.774 30.021 4.289 1.716-33.458-.858-60.911-31.736-5.146zM153.536 620.23l-34.31-1.715.858 35.174 2.573 64.342 45.46.858-.857-96.942-.858-.001-12.866-1.716zM115.795 652.83l-.858-35.174-18.012 4.29-16.297 3.432.858 5.147 1.715 46.326.858 39.463v6.863l34.309-6.005-2.573-64.342zM172.406 724.034l-52.322-.858-36.025 5.147.858 28.311 28.305 18.015 48.891-6.005 38.599-18.016.857-21.447-29.163-5.147z"/><path d="M171.548 718.031l30.021 4.289.858-25.736-2.574-23.163-9.435-45.468h-3.431l-9.435 44.61-6.004 25.737v19.731zM148.389 629.668v-6.863H144.1l-7.72 33.457-9.435 39.464-5.146 12.868.858 9.437 45.46.858v-11.153l-9.435-34.316-10.293-43.752zM118.368 706.877l-2.573-5.148-11.151-55.763-5.147-20.589h-3.43L83.2 703.445l.858 12.868v6.864l34.31-6.006v-10.294z"/><path d="M93.494 674.278h7.72l.857 41.179h-7.72l-.857-41.179zM142.385 669.129l.857 43.753 11.151 1.716-4.289-46.327-7.719.858zM184.414 671.705l-2.573 42.895h7.719v-43.753l-5.146.858zM493.2 336.269l-5.145-12.01-4.289-.858-6.004 12.868H493.2z"/><path d="M554.1 440.931l1.716-21.447-13.724-28.31-21.443-18.874-14.582-15.442-11.151-15.442v-4.29l-6.862-14.584.858 14.584 12.866 24.021 18.013 19.732s14.581 18.016 14.581 19.731c0 .858 10.293 18.016 10.293 18.016l2.573 16.3-1.715 15.442 8.577-9.437z"/><path d="M504.351 380.879l-17.155-25.737-4.289-28.31-4.288 8.579-.858 6.863 7.72 19.731 6.004 16.3 18.012 21.448 12.866 19.731 4.289 19.732-1.715 10.294 9.435 2.574 1.715-6.005v-17.158l-10.293-24.879-21.443-23.163zM493.201 398.895l-11.151-17.157-9.435-25.737.857-15.442-4.288 5.147-.858 8.579.858 11.153 6.004 17.157 8.577 17.158 12.009 12.869 6.004 16.3-1.716 13.726 11.151 2.574v-16.3l-5.146-14.585-12.866-15.442z"/><path d="M492.343 434.068L482.05 416.91l-12.866-19.731-4.289-25.737 1.716-23.163-1.715.859-4.289 3.43-2.573 12.011s.857 25.737.857 27.452c0 1.716 7.72 24.021 7.72 24.021l14.582 18.874 1.715 8.579 10.293-.858-.858-8.579z"/><path d="M465.753 425.487c0-.858-10.293-22.305-10.293-22.305l-6.861-24.021 6.004-20.59-6.004 5.148-4.289 22.305 1.715 13.726 6.862 24.879 10.293 14.584 2.573 6.863 8.578-.857c-3.431-6.864-8.578-18.874-8.578-19.732z"/><path d="M451.171 449.508l6.862-2.574c-3.431-5.147-6.862-11.152-6.862-12.01 0-.858-8.577-18.016-8.577-18.016l-6.862-21.446 6.004-24.022-9.435 12.01-1.716 5.148 1.716 24.021 12.866 28.31 6.004 8.579zM444.31 451.227l-6.862-6.005s-6.862-11.153-7.72-12.011c0-.858-6.862-21.447-6.862-21.447l1.716-19.732-2.573 3.432-3.431 25.737 5.146 18.015 12.866 12.011h7.72z"/><path d="M555.816 434.927l-1.716-2.574-29.163-7.721-34.309-6.863-42.03.858-29.163 6.863 4.289 13.726 12.866 11.153 9.435.858 16.297-6.005 30.879-3.432 22.301 4.289 20.586 6.864 6.004 1.715 13.724-15.442v-4.289z"/><path d="M423.724 439.214l12.866 12.011h7.72l-6.862-6.006s-6.862-11.152-7.72-12.01c0-.858-1.715-5.148-3.431-9.437l-6.862 1.716 4.289 13.726zM435.732 422.057l8.578 19.731 6.862 7.721 6.862-2.573c-3.431-5.148-6.862-11.153-6.862-12.011 0-.858-5.147-9.436-6.862-14.584l-8.578 1.716zM452.029 423.771l10.293 14.584 2.573 6.864 8.578-.858c-2.574-6.006-8.578-17.158-8.578-18.016 0-.858-1.715-3.432-3.431-7.721h-11.15l1.715 5.147zM492.343 434.068l-10.293-16.299-13.724.858 12.867 16.299 1.715 7.722 9.435-.858v-7.722zM501.778 428.919l-1.715 13.726 6.862 1.716 4.288.858v-16.3l-3.431-7.721-10.293-2.574 4.289 10.295zM523.222 423.772l3.431 15.442-1.716 10.295 9.435 2.573 1.716-6.005v-17.158l-.858-1.715-10.293-2.574-1.715-.858zM546.38 449.511l7.72-8.579.858-7.721-.858-.858-6.862-1.716v4.29l-.858 14.584zM484.624 315.677l-6.005 5.147 6.005 6.005 5.146-2.573-2.573-6.863-2.573-1.716z"/><path d="M482.05 275.358l.857 42.895 3.431-.858-.857-42.037h-3.431z"/><path d="M476.046 283.078h14.581l-.857 3.432h-13.724v-3.432zM477.761 297.664l11.151 4.289.857 3.432-12.008-5.147v-2.574zM478.619 461.521V502.7h4.289l1.716-38.606-1.716-4.289-4.289 1.716zM496.632 461.52v41.179h6.862v-37.747l-2.573-6.006-4.289 2.574zM513.787 466.667l.857 36.889h6.862v-36.031l-4.288-5.148-3.431 4.29zM466.611 463.236l.858 37.747-7.72 1.716-1.715-36.889 1.715-5.148 3.431-1.716 3.431 4.29zM397.991 606.502v31.743l-1.715 57.478 180.125 5.148-1.715-34.316-.858-56.621-3.431-6.863-38.598-8.579-102.071.858-31.737 11.152z"/><path d="M432.301 670.845l-.858-44.61.858-30.884-2.573-.001-31.737 11.152v31.743l-1.715 57.478 36.025.859v-25.737zM435.732 696.581l56.611 1.716V594.492l-56.611.858v101.231zM542.949 700.013v-41.179l2.573-61.768-13.723-2.574h-35.168l-1.715 15.442 1.715 35.174-.858 53.189 47.176 1.716zM576.401 700.874l-1.715-34.316-.858-56.621-3.431-6.863-22.301-5.148-1.716 30.885v71.205l30.021.858z"/><path d="M574.686 666.555v-10.294l-1.716-4.29-4.289-21.447-3.431-9.437-13.723 36.89-5.147 20.589v12.869l8.578-27.453 8.577-30.884 5.146 14.584 1.716 18.016 5.146 16.3-.857-15.443zM542.95 686.286l-2.573-4.289-8.578-25.737-7.719-28.31-5.147-16.3v-4.29l-3.431 1.716-11.15 38.605-6.004 19.732-2.574 6.863v16.3l5.147-13.726 11.15-42.037 3.431-13.726h2.574l9.435 33.457 6.862 24.021 6.004 12.869 2.573 3.431v-8.579zM492.343 676.85l-9.435-12.869-6.862-24.879-7.719-24.021-5.147-7.721-12.008 33.458-8.578 27.453-6.862 12.868v13.726l3.431-6.005 9.436-24.879 14.581-44.61 6.862 15.442 6.004 24.879 8.578 18.016 7.719 12.868V676.85zM416.861 610.793l-1.715-1.715-13.724 50.615-5.146 16.3v19.732h.857l4.289-21.448 13.724-54.047 6.004 26.595 11.151 24.879V657.12l-6.004-12.011-9.436-34.316z"/><path d="M411.716 650.255L410 686.286l6.004.858 2.574-36.889h-6.862zM459.749 645.111l-.858 38.605 8.577-1.716-.857-36.889h-6.862zM513.786 647.683l-2.573 39.463h8.577l-.857-38.605-5.147-.858zM560.962 657.12l-2.573 34.316h5.146l1.716-34.316h-4.289zM412.573 542.161l9.435-22.305 9.436-9.437 27.447-.858 65.188 4.29 15.44 2.573 8.577 17.158 3.431 21.448 12.009-1.716 6.004 6.863 6.862 14.584 1.715 30.884-4.289 10.295-24.874-12.01-55.753-1.716h-72.05l-25.732 8.579-8.578-14.585-1.715-36.031 1.715-12.011 11.151-6.005 6.862-1.716 7.719 1.716z"/><path d="M416.862 541.305l6.004-14.584 7.719-9.437 8.578-1.716 10.293 2.574 6.862 13.726-12.866 1.716-8.578 6.863-10.293 22.305-4.288-14.584-3.431-6.863zM392.845 547.31l-3.431 6.005-.857 19.732.857 12.868 30.879-14.584-3.431-13.726L410 546.452l-9.435-.858-7.72 1.716z"/><path d="M458.033 535.298l-16.297 5.147-8.577 10.295-4.289 16.3v2.574l17.155-1.716h31.736l-3.431-18.874-8.577-10.294-7.72-3.432zM483.766 567.897l6.004-18.016 9.435-10.294 12.008-.858 11.151 3.432 9.435 11.152 1.716 18.016-15.44-.858-24.874-2.574h-9.435zM480.335 556.745l-2.573-12.01-6.862-9.437 3.431-11.153 6.004-9.436 9.435-.858 7.72 4.289 6.004 15.442-9.435 3.432-6.862 6.005-6.862 13.726z"/><path d="M518.075 534.44l4.289-10.295 11.151-6.005 6.004 4.29 5.146 13.726 2.574 16.3v4.289l-9.436 9.437-.857-12.868-4.289-8.579-8.577-6.863-6.005-3.432zM561.82 558.463l-11.151.858-7.719 7.721-2.574 4.289h9.436l9.435 6.005 10.292 4.29 4.289 3.431-1.715-13.726-5.147-9.437-5.146-3.431zM578.117 605.645l-.858-12.869-18.012-11.152-11.151-3.432-12.008-3.432h-18.013l-38.598-.857-35.168-.858-18.012.858-22.301 9.436-17.155 7.721v5.148l8.578 14.585 25.732-8.579h72.05l55.753 1.716 24.874 12.01 4.289-10.295z"/><path d="M578.117 605.645l-.857-4.288-22.302-12.869-13.724-4.289-59.184-4.29-45.46-.858-25.732 9.437-22.301 10.295 6.862 12.01 25.732-8.579h72.05l55.753 1.716 24.874 12.01 4.289-10.295zM560.105 566.183h-8.578l-4.288 5.147h2.573l9.435 6.006 10.293 4.289-.858-6.863-8.577-8.579zM547.239 552.456l-2.574-16.3-5.146-13.726-6.004-4.29-11.151 6.005-4.289 10.295 4.289 2.574 6.862-6.005 6.004.858 5.147 8.578v8.579l1.715 12.869 5.147-5.148v-4.289zM526.652 559.319l-4.288-9.437-10.293-6.005-11.151 4.289-8.577 8.579-3.431 11.153 4.289-.001 2.573.859.858-3.432 3.431-9.436 8.577-2.574 10.293 4.289 1.715 12.869h6.862l-.858-11.153zM497.49 518.14l-7.72-4.289-9.435.858-6.004 9.436-3.431 11.153 1.715 2.574 6.004-12.869 6.862-3.431 10.293 4.289 3.431 9.437 4.289-1.716-6.004-15.442zM471.757 558.463l-4.288-10.295-8.578-6.863-10.293 1.716-12.008 13.726-3.431 12.01h7.719l4.289-12.01 6.004-6.005 6.862-1.716 8.578 9.437v9.436h6.862l-1.716-9.436zM446.883 521.571h-7.72l-6.004 1.716-6.862 11.152-6.862 12.011.858 1.716 1.715 5.147 8.578-17.158 6.004-8.579 7.72 1.716 1.715 3.432h6.004l-5.146-11.153zM414.289 563.608l-7.72-12.011-6.862.858-5.146 2.574-.858 18.016.858 10.294 6.004-2.573-.858-8.579 1.716-11.153 5.146 1.716 5.147 12.868 6.004-2.573-3.431-9.437zM387.698 695.725l15.44-5.147 37.74-3.431h30.879l42.029 2.573 30.021 1.716 20.586 4.289 17.154 3.432 2.574 13.726-3.431 29.169-163.829-6.006-17.154-16.299-12.009-10.295v-13.727z"/><path d="M564.393 695.725l-20.586-4.289-30.021-1.716-42.029-2.573h-30.879l-37.74 3.431-15.44 5.147v13.727l12.009 10.295 1.715.857 41.172-6.863 40.313-2.573 50.607 3.431 24.875 4.29 24.016 6.005 1.716-12.011-2.574-13.726-17.154-3.432z"/><path d="M564.393 695.725l-20.586-4.289-30.021-1.716-42.029-2.573h-30.879l-37.74 3.431-15.44 5.147v13.727l.858.858 26.59-7.721 55.753-2.574 62.615 3.432 32.594 5.147 17.155 6.005.858-1.716-2.574-13.726-17.154-3.432z"/><path d="M108.933 766.071l.857 24.021 38.599-10.295 35.167-5.147 74.623 4.29 48.892-47.185h51.464l60.9 6.864-1.716-7.721-27.447-24.021-108.076-4.29-24.017 7.721-23.159 15.442-30.878 6.863-35.168 7.721-60.041 25.737z"/><path d="M258.179 710.308l-18.012 12.869 17.155 55.763h.857l48.892-47.185-24.017-28.31-.858-.858-24.017 7.721zM168.974 740.334l-60.041 25.737.857 24.021 38.599-10.295 18.012-2.574 2.573-36.889z"/><path d="M331.946 724.034l-28.306 2.574-48.033 46.326-6.862.858-63.473-3.431-23.159 2.573-23.159 4.29-29.163 6.863-.001 6.005 38.599-10.295 35.167-5.147 74.623 4.29 48.892-47.185h51.464l60.9 6.864-1.715-6.006-32.594-5.147-53.18-3.432z"/><path d="M109.791 790.093l38.598-10.295 18.013-2.573.858-5.148-5.147.857-23.159 4.29-29.163 6.863v6.006zM303.64 727.465l-48.033 45.469 1.715 6.006.858-.001 48.891-47.184-3.431-4.29zM218.723 640.821h-4.288l-32.594 109.81 33.451 9.437 40.314-9.437-19.728-67.773-17.155-42.037z"/><path d="M198.138 754.921l18.012-114.1h-1.715l-3.431 12.011-8.578 50.615-7.719 50.616 3.431.858z"/><path d="M218.723 640.821h-3.43l-.858 53.189-.857 65.2 1.714.858 1.716-.858 1.716-65.2.858-51.473-.859-1.716z"/><path d="M229.017 682l-9.435-39.463-.859-1.716h-1.714l16.297 71.205 10.293 41.179h2.573L229.017 682zM120.084 863.871V839.85l3.431-18.016 19.728-21.447 13.723-12.011h21.444l14.582 3.432-.858 34.316-24.017 12.01-38.598 20.59-9.435 5.147zM412.573 730.9l34.31.858 61.757 2.573 45.46 1.716 30.879 2.574-.858 46.326-18.87-.858-42.887-3.431-57.469-.858-36.025-1.716h-14.582l-1.715-47.184z"/><path d="M428.87 778.082l14.581.858v-21.448l-6.004-12.01h-6.862l-3.431 9.437-.857 23.163h2.573zM467.469 779.798v-18.016l-4.289-12.01-4.289-3.432-4.288 4.29-1.716 13.726.858 14.584 11.151.858h2.573zM491.485 780.656l-.858-18.874-1.715-10.294-5.146-5.148-6.005 5.148-1.715 12.868v15.442l15.439.858zM504.352 748.058l-2.574 7.721-1.715 12.01.858 12.011h12.008v-22.305c0-1.716-3.431-9.437-3.431-9.437h-5.146zM539.518 754.92c0-1.716-2.573-7.721-2.573-7.721l-6.862 6.005-5.146 11.153 1.715 16.3 14.582.858c-.858-6.863-1.716-24.879-1.716-26.595zM555.816 754.919l-2.573 10.294-1.716 18.016 13.724.858h.858l1.716-22.305-5.147-12.011-6.862 5.148zM508.64 734.331l-61.757-2.573-34.31-.858v6.863l40.314 5.147h48.891l48.033.858 35.168 3.432v-8.579l-30.879-2.574-45.46-1.716zM392.845 935.936l-1.715-130.4-2.574-6.005-14.581 5.148-26.59 14.584-4.289 59.194.858 60.053 42.029-3.432 6.862.858zM433.159 944.514l19.728.001-6.862-125.252-10.293-2.574-8.577 4.29-6.862 28.31 1.715 45.468-1.715 47.184 12.866 2.573zM682.761 933.359l23.159-.857-1.715-101.231-9.436-8.579-14.581.858-10.293 9.437-3.431 54.905-.858 46.326 17.155-.859zM54.038 679.426h-7.72l-7.72 8.579-31.736 90.937h112.364l-18.87-38.605-35.167-48.042-11.151-12.869z"/><path d="M38.599 688.004L6.862 778.94h4.289l21.443-66.915 7.72-25.737-1.715 1.716zM30.878 778.939h6.005l9.435-98.658-4.289 3.432-11.15 95.226zM56.611 694.01l-1.715-13.726-.858-.858h-3.431l14.582 99.516h6.861L56.611 694.01zM100.356 740.337l-35.167-48.042-10.293-12.869 13.723 23.163 17.155 24.021 15.44 24.879 10.292 27.453h7.72l-18.87-38.605z"/><path d="M0 776.367l20.586-7.721 20.586-.858 39.456.858 30.021.857 8.577 2.574 1.715 11.153-4.288 6.005-1.716 95.226v53.189H53.18l-22.301 1.716-16.297-7.721-7.72-85.789-2.573-56.621L0 776.367z"/><path d="M0 776.367l4.289 12.868 2.573 56.621 7.72 85.789 16.297 7.721-3.431-84.93-4.289-70.348-1.715-15.442h-.858L0 776.367z"/><path d="M110.649 769.503l-30.021-.857-39.456-.858-20.586.858L0 776.367l4.289 12.868v.858l18.87-6.005 25.732-1.716 69.477 4.289 2.573-3.431-1.715-11.153-8.577-2.574z"/><path d="M21.444 768.646h-.858L0 776.367l4.289 12.868v.858l18.87-6.005-1.715-15.442zM103.787 937.651l1.715-89.221-9.435-.858v-7.721l6.004-4.29-3.43-12.01-6.863-4.29-14.581 4.29-.858 14.584H66.046v-6.005l-6.004-11.153-8.578-.858-10.292 6.005v16.3h3.43v11.153h-6.004l4.289 41.179 1.715 43.752 8.578-.858 50.607.001z"/><path d="M63.473 835.56l15.44.858v10.295h-15.44V835.56zM218.724 795.24v20.589l.858 12.868 25.732 2.574 17.155-.858-2.574-36.031-12.008-6.006H231.59l-12.866 6.864zM292.489 808.967l42.887-32.6 16.298-12.01-3.431-12.869-3.431-6.005-19.728-2.573-20.586 2.573-6.862 12.869-6.004 14.584.857 36.031zM473.472 812.4l.858 54.905 1.716 26.594 48.033-6.005-1.716-81.5-16.297-2.573-32.594 8.579z"/><path d="M506.925 808.11l-28.306 7.721 1.716 72.921 38.598-6.005-1.715-72.921-10.293-1.716z"/><path d="M495.774 826.981v34.316h6.862l.858-35.174-7.72.858zM579.832 814.113l-.857 77.211 44.602 1.715-4.288-78.068-39.457-.858z"/><path d="M587.552 822.692l-.857 38.605-.858 22.305 30.021 1.716-2.573-41.179-.858-20.589-24.875-.858zM343.096 878.455l.858-12.01H292.49l-88.348-.858-35.167 21.447-20.586 22.305h-36.025l-.858 25.737 14.582 1.716H144.1l39.456 2.574 35.168 5.147 41.171-6.005 71.193.858 12.866-.858-.858-60.053z"/><path d="M205.858 901.619l-2.573-26.595-13.724 7.721-25.732 20.59-17.155 17.158-2.574 16.299 39.456 2.574 24.875 3.432-2.573-41.179zM420.293 941.94l1.715-47.184-.858-24.021-29.163-4.29.858 69.49-6.862-.857 45.46 8.578-11.15-1.716zM640.732 906.768l-19.728 1.716-43.745-1.716-46.318 2.573h-80.627l2.573 35.174h-6.862l108.075.857 97.783-3.431 3.431-4.29.857-30.025-15.439-.858zM452.886 444.362l-9.435 6.005v7.721l14.582-8.578 28.305-4.29 18.013.858 24.874 7.721 8.578 2.574.857-6.006-45.46-12.868-40.314 6.863z"/><path d="M458.033 449.511h2.573v-6.005l-7.72.858-9.435 6.005v7.721l14.582-8.579zM538.661 450.369l-7.72-2.574-.857 6.005 7.72 2.574.857-6.005zM266.757 534.441l-8.577-2.574v12.869h6.862l20.585.858 18.871 1.715h13.723l18.871-2.573v-9.437l-37.741.858-32.594-1.716z"/><path d="M266.757 534.441l-8.577-2.574v6.006l4.288.857 18.871 2.574h45.46l10.293-2.574v-3.431l-37.741.858-32.594-1.716z"/><path d="M240.168 525.003l18.012 9.437 7.72 1.716 18.012 1.716 28.306.858 19.728-1.716 9.435-5.148 11.15-21.447-.857-30.884-16.297-17.158-19.728-20.589-18.013-22.305-3.431-8.579-9.435 15.442-14.582 17.158-23.159 17.157-12.008 24.021v21.448l5.147 18.873z"/><path d="M339.665 477.819l2.574-7.721-2.574-2.573-2.573 8.578-3.431-1.715-9.435-6.006 5.146-12.01-1.715-1.716-6.004 12.869-9.435-6.006-5.147-3.431 6.004-6.863 3.431-3.432 3.431 1.716.858-.858-4.289-5.147-8.577-3.432 2.573-4.29-2.573 5.148-6.004-5.148 1.715-1.715 1.716-4.29-1.716-1.716-1.715 5.148-1.716 1.716-3.431-2.574-6.862-7.721-1.715-5.147-2.573 4.289 8.577 10.295 3.431 2.573-6.862 5.148-4.289-5.148-4.288-7.721-1.716 1.716 5.147 8.579 3.431 4.29-7.72 5.147-4.289-6.863-2.573-5.148-1.715 1.716 6.004 12.011-9.435 6.863-6.004-10.295-2.574 1.716 6.004 9.437.858 1.715-6.862 6.006-5.146-11.153-1.716.858 5.147 11.153-5.147 4.289-2.573 4.29-5.146-12.011-1.716 2.574 6.004 11.152-8.577 13.727-1.715 6.005-3.431-6.005-1.716-4.29v6.005l4.289 7.721-2.573 9.437.857 5.148.858-5.148 1.716-6.005 6.004 11.153 7.719 5.147-1.715 12.011 2.573.857 2.573-11.152 10.293 6.863 6.004 3.432-.857 4.289v.858h2.573l.858-5.147 11.15 5.147 1.716.858h15.439l-.858-6.005 11.151 4.289 5.146 1.716 6.862-.858-4.288-1.716v-2.574l1.715-6.005 12.008 2.574-.857 4.289 2.573-1.715v-2.574l2.573.858.858-2.574-1.716.858 2.574-8.579 5.146.858.858-2.574-6.004-.858.857-3.431 6.004-11.153h1.716v-2.574h-.858v-7.721l-3.431 6.864-6.004-1.716-7.72-3.432 2.574-8.579 1.715-4.289 4.289 2.573 8.577 1.716v-2.573l-5.146-.858-5.147-4.29zm-18.012-6.863l-2.573 6.863-2.574 4.29-6.004-4.29-8.577-8.579 5.146-9.437 14.582 11.153zm-41.172 24.879l-9.435-12.011-.858-1.715 8.578-11.153 12.008 12.868-1.715 1.716-6.004 13.727-2.574-3.432zm1.716 6.005l-3.431 9.437v1.716l-4.289-3.432-8.577-11.152 4.288-12.011 12.009 15.442zm4.288-27.452l-6.004-6.863.858-.858 8.577-7.721 8.578 9.436-6.004 11.153-6.005-5.147zm4.289-16.3l4.289-3.432 2.573-1.716 1.716 1.716 6.004 4.29-4.289 5.147-1.715 3.432-4.289-4.29-4.289-5.147zm6.004 19.731l3.431-6.005 4.289 5.147 10.293 7.721-6.004 12.011-6.004-5.147-9.436-9.437 3.431-4.29zm14.582 19.732l6.004-12.011 9.435 7.721 5.147 2.574-3.431 13.726-7.72-3.431-9.435-8.579zm4.289-50.616l-8.578 10.295-5.146-4.29-1.716-1.715 6.005-4.29 1.715-2.574 7.72 2.574zm-18.013-7.721l2.573-2.574 6.862 5.148-.857 1.716-6.862 4.289-4.289-5.147h-1.716l4.289-3.432zm-12.866 10.295l6.862-5.148 5.146 6.864-7.719 5.147-3.431-3.432-.858-3.431zm-2.573 1.716l.858 1.715 4.288 5.148-8.577 8.579-4.289-4.29-1.715-3.431 9.435-7.721zm-11.151 8.578l6.004 8.579-6.862 6.864-1.715 4.289-4.289-6.005-2.573-5.148 9.435-8.579zm-13.724 11.153l2.574-2.574 6.004 12.869.857.858-5.146 11.152-5.146-7.721-4.289-8.579 5.146-6.005zm-2.573 45.468l-2.573-1.715-6.862-6.864-3.431-8.578 3.431-9.437 6.862-11.153 6.004 12.011 3.431 4.289-.858.858-6.004 20.589zm19.728 11.153l-12.008-6.005-4.289-3.432.858-3.431 5.146-15.442 11.151 13.726 1.715 1.716-2.573 12.868zm26.59 10.295l-5.146-1.716-17.155-6.005-2.573-.858v-.858l3.431-11.153 18.012 12.869 3.431.858v6.863zm.858-9.437l-14.582-8.579-6.004-5.147 3.431-10.295 18.013 12.01-.858 12.011zm-7.72-20.59l-8.577-7.721 6.862-14.584 7.719 8.579 6.862 5.148-2.573 6.005-.858 7.721-9.435-5.148zm26.59 27.453l-1.715-.858-14.582-5.147.858-11.153 4.288 2.574 13.724 6.005-2.573 8.579zm3.431-12.01l-11.151-4.29-6.861-4.289v-2.574l4.288-11.153 15.44 11.153 2.573.858-4.289 10.295zm13.724 4.289l-7.72-1.716-3.431-1.716 2.573-10.294 11.151 4.289-2.573 9.437zm3.431-27.453l6.004.858-2.573 5.148-3.431 9.437-2.573-.858-8.578-4.29 2.573-7.721 1.716-6.005 6.862 3.431zm-8.578-7.721l-5.146-2.573-9.435-6.863 2.573-4.29 2.573-6.005 10.293 6.005 2.573 1.716-3.431 12.01z"/><path d="M352.531 498.409l-12.866 12.011-27.447 3.431-29.163-.857-30.879-6.864-14.582-6.005-2.573-2.573v8.578l5.147 18.873 18.012 9.437 7.72 1.716 18.012 1.716 28.306.858 19.728-1.716 9.435-5.148 11.15-21.447v-12.01z"/><path d="M240.167 502.7l6.004 11.153 7.72 5.147-1.715 12.011 1.715 1.716 2.573-11.153 11.151 6.863 6.004 3.432-.858 4.289v.858h2.574l.857-5.147 11.151 5.147 1.715.858h15.44l-.858-6.005 11.151 4.289 5.146 1.716h6.862l-4.289-1.716v-2.573l1.716-6.006 12.008 2.574-.858 4.289 2.574-1.715v-2.574l2.573.858.858-1.716.857-.858h-2.573l2.573-8.579 5.147.858v-.858l.857-1.716-6.004-.857.858-3.432L349.1 502.7h1.716v-2.573h-.858v-.858l-5.146 6.005v.858l-3.431 9.437-2.574-.858-8.577-4.29-6.862.858.858.858 2.573.858-3.431 9.437-11.151-4.29-6.861-4.289v-.858h-6.862l5.146 3.432-1.715 12.01-14.582-8.579-6.004-5.147.858-1.716-3.431-.858-.858-.858h-4.289l1.716 2.574 1.715 1.716-3.431 12.868-12.008-6.005-4.289-3.432.858-3.431 2.573-6.863-3.431-.858-2.573 8.579-2.573-1.716-6.862-6.863-2.574-5.148-4.288-1.715-2.573 8.579.857 5.147.858-5.147 2.573-6.864zm88.347 14.585l.858-3.432 11.151 4.289-2.573 8.579-7.72-1.715-3.431-1.716 1.715-6.005zm-23.158.857l4.288 2.574 13.724 6.005-2.573 8.579-1.716-.858-14.581-5.147.858-11.153zm-28.306 10.295l3.431-11.152 18.013 12.868 3.431.858-.858 6.863-5.147-1.716-17.154-6.005-2.574-.858.858-.858zM287.343 421.199h10.293l.858-10.295-3.431-3.431-6.005 1.716-1.715 12.01zM294.205 398.894l-5.147 4.289 5.147 4.29 4.288-1.716-1.715-6.005-2.573-.858z"/><path d="M292.489 363.719l2.573 40.321.858-40.321h-3.431z"/><path d="M286.485 371.44h13.724v3.431l-13.724-.858v-2.573zM288.201 385.167l11.15 4.289.858 3.432-12.008-4.29v-3.431z"/></g><defs><clipPath id="clip0"><path fill="#fff" d="M0 0h765v741H0z"/></clipPath></defs></svg>