<svg width="599" height="440" fill="none" xmlns="http://www.w3.org/2000/svg"><g clip-path="url(#clip0)" fill="#EB3333"><path d="M333.141 323.845c-.927-10.519-2.164-21.038-3.091-31.247-3.092-30.319-6.801-60.329-10.511-90.648-.309-3.712-.928-7.115-2.473-10.518-2.164-4.641-5.874-8.044-9.893-11.138-5.874-4.95-12.366-10.209-19.167-10.209-.928-.619-1.546-.929-2.473-1.238-12.366-4.95-24.732-9.9-35.243-17.944-.619-.309-.928-.928-1.237-1.237l-.927-1.856c-1.546-5.26-2.164-10.519-4.019-15.779-1.546-4.95-4.019-9.59-8.038-12.375 2.473-5.259 3.71-10.828 2.782-16.397 3.092.619 6.183-.928 8.038-3.093 1.855-2.475 2.782-5.26 3.401-8.353 1.546-7.426 2.164-15.47-1.546-21.966-1.546.619-3.401 1.237-4.946 1.856 1.236-.31.927-10.828 1.236-12.066 0-4.022.309-8.353-.309-12.065-.309-2.785-1.546-4.95-1.855-7.735 0-1.547 1.546-8.353-1.546-8.044.928-2.474 1.855-4.95 1.546-7.734-.618-2.475-3.091-4.95-5.564-4.331-1.546-4.022-2.783-7.425-4.019-10.519l-.928-1.856c-1.546-1.547-4.637-.31-6.801-1.238-1.546-.928-1.855-3.094-3.092-4.331-1.545-1.547-4.018-2.166-6.182-1.547-2.165.619-4.019 1.856-5.874 3.403-1.237-1.856-4.328-2.475-6.183-1.237-3.092-.928-6.492.618-8.038 3.403l-1.855-2.785c-4.019 2.476-8.347 4.641-12.984 5.879.927-.62 1.855-1.547 3.091-2.166-7.728.619-12.984 7.734-17.312 13.922-.309-.31-.618-.928-.618-1.547-3.71 6.188-4.328 13.922-4.637 21.038-.31 10.828-.31 21.965-.31 32.794.31-2.475-3.4-3.404-5.255-1.547-1.546 1.856-1.546 4.33-1.237 6.806.619 7.425 1.546 15.469 5.565 21.966 1.237 2.165 4.019 4.331 6.183 2.784.927 4.641 2.164 9.591 4.328 13.922-1.237 1.237-2.473 2.475-3.092 4.022-1.854 4.022-1.854 8.662-2.782 12.994-.309 1.237-.618 2.784-1.546 3.712-1.236 1.238-2.782 2.166-4.328 2.785-22.877 8.662-45.754 17.634-68.321 26.915-2.164.928-4.328 1.857-6.183 3.403-6.802 6.188-3.71 17.325-7.11 25.679-.928 2.475-2.474 4.64-4.02 6.806-5.255 8.972-7.42 19.181-9.892 29.081-2.164 8.663-4.638 17.635-7.42 26.297-2.164 6.497-4.637 13.303-8.965 18.563-5.874 7.115-4.328 17.015-4.947 26.297-.618 14.85-7.11 29.081-8.656 43.931-1.236 12.066 1.237 24.441 3.71 36.197 1.546 7.735 3.71 26.297 5.256 33.722.309.928.309 1.856 1.236 2.166.618.309 1.237.309 2.164.309h3.4c1.237 7.425 2.165 14.85 2.474 22.585.31 5.568.31 11.447-.31 17.015-.308 2.785-.617 5.569-.617 8.354 0 5.878 1.855 11.756 4.019 17.015.618 1.856 1.545 3.403 2.473 4.95 1.855 2.475 4.328 4.022 7.11 5.569 2.164 1.238 4.637 2.784 7.42 2.784 1.855 0 3.71-.309 5.564 0l2.783.929c-2.474 24.131-7.11 48.262-9.584 72.703-2.782 27.225-4.328 54.45-5.874 81.675-.618 9.282-1.236 18.253-1.545 27.535-2.164 38.362-4.638 76.725-11.439 114.469-1.855 9.9-4.328 20.419-11.13 27.844-1.236 1.547-2.782 2.784-3.4 4.64-.618 2.166 0 4.641.618 7.116 2.783 12.994-6.183 25.988-17.621 32.794-4.946 3.094-10.82 5.259-15.148 9.281-4.328 4.022-7.11 10.519-4.328 15.778 1.545 3.094 4.637 4.951 7.728 6.497 11.748 4.95 25.041 2.475 36.48-2.165 11.747-4.641 22.258-11.447 34.006-16.088 1.855-.619 3.71-1.237 4.946-2.784 2.783-2.785 1.855-7.425 1.546-11.138-.927-12.065 17.931-22.584 15.458-27.844-5.565-3.093-2.165-11.447.618-17.325 2.782-5.878 7.419-11.137 8.038-17.944.309-3.712-.619-7.425-1.237-10.828-.927-8.043.928-16.087 2.782-23.822 5.874-24.44 12.985-48.262 21.332-72.084 4.019-11.447 8.347-24.75 2.164-35.269 11.129-10.21 10.511-27.225 10.82-42.385.927-31.556 13.293-49.191 25.35-87.553.618 29.39 1.546 58.472 2.164 87.863.309 6.806.618 13.612 1.855 20.418 2.164 1.857 1.855 5.26.927 7.735-.927 2.475-2.164 5.259-1.545 8.044.618 4.022 4.946 6.497 6.492 10.209.618 2.166.309 4.641 0 7.116a211.06 211.06 0 0 1-9.275 33.103c-1.545 4.022-3.091 7.734-4.019 12.066-.927 4.331-.618 8.972-.618 13.612.618 19.181 1.546 38.672 5.874 57.544.618 2.785 1.236 5.878-.309 8.044-.619.928-1.546 1.547-2.164 2.475-.619 1.238-.619 2.475-.619 3.712.31 4.641 1.546 8.972 2.164 13.304.619 4.64.31 9.59-2.473 12.993-.927 1.238-2.164 2.166-2.164 3.404 0 1.546.928 2.784 1.546 4.021 2.473 5.26-.928 11.138-3.092 16.707-1.854 4.64-2.782 9.59-2.473 14.54 0 4.641 1.546 9.901 5.874 11.757 1.855.928 4.328.619 6.183 1.237 3.092.928 5.565 3.094 8.347 4.95 9.584 6.188 21.64 5.26 33.079 4.332 5.564-.619 12.366-1.857 14.53-7.116 1.855-4.331-.928-9.591-4.637-12.684-3.71-3.094-8.038-5.26-11.748-8.354-8.965-8.353-9.274-24.131-.618-32.794-3.092-3.093-6.802-7.115-5.565-11.446 1.546-5.26 9.893-8.044 8.347-13.304-.618-2.165-2.782-3.403-4.019-4.95-2.473-3.712-1.855-8.353-.618-12.375 11.438-35.269 19.476-71.466 24.422-108.281.619-3.713.928-7.425 2.474-10.829 1.236-3.093 3.4-5.878 4.328-9.281.927-3.403.309-7.425-2.783-8.972 7.729-3.712 12.675-11.137 15.458-19.181 2.782-8.044 3.4-16.397 4.328-24.75 3.091-25.678 10.202-50.428 14.221-76.107 2.164-13.303 3.4-27.225 2.473-40.837 0 .618.309 1.237.309 1.856-.309-1.238 6.492-9.281 7.42-10.828 1.545-3.094 2.782-6.188 4.018-9.282 1.237.619 2.474.929 3.71 1.238 1.237.309 2.473.309 3.71-.309.927-.619 1.546-1.547 1.855-2.475 13.602-26.916 24.113-55.688 31.533-85.079 1.855-7.116 3.401-14.231 4.019-21.656 1.855-12.685.618-26.297-.928-39.6zm-50.391 27.534c-.309-5.259-.309-10.828-.618-16.087-.309-6.497-.618-13.304-4.019-18.872-2.473-3.713-6.801-7.425-6.183-12.066.309-1.856 1.546-3.713 2.164-5.569.618-1.237.928-2.475.928-4.022 4.328 14.85 8.965 29.7 13.293 44.86.927 2.784 1.546 5.569 2.782 8.044-2.782.618-6.183 1.237-8.347 3.712zM87.369 408.923c-.928-18.872-2.164-48.881-3.092-67.753.619-.31 1.546-.619 2.474-.31-2.165-1.237-4.329-2.784-6.183-4.331 2.164-.309 4.637-.928 6.492-2.475 1.855-1.547 2.473-4.641.618-6.188a9.257 9.257 0 0 0 0-8.971c2.782 1.237 5.874-1.547 6.492-4.332.928-2.784.31-5.878.618-8.662.31-1.856.928-3.713 1.546-5.569 3.4-9.9 6.801-19.8 10.202-30.009 1.546 23.203 1.855 47.334.309 70.537-.309 4.95-.618 9.591.618 14.232.619 2.165 1.855 4.331 1.855 6.806.31 2.166-.309 4.331-.927 6.187l-19.476 77.963c-2.164-3.094-4.638-5.878-6.493-9.281-1.854-3.713-2.782-7.735-3.4-11.756-.618-3.404-.928-6.807-1.546-10.21 2.473-.619 4.637-1.547 6.801-2.475.619-.309 1.237-.619 1.855-1.237 1.237 0 1.237-1.238 1.237-2.166zM75.93 476.986c-.309-1.856 0-3.403 0-5.26.619-4.021 1.546-8.971 5.565-10.518.618 3.093 2.164 5.568 3.71 8.353.309.309.309.619.618.928-.309 1.856-.927 3.712-1.236 5.569-1.237 3.093-2.165 6.187-2.783 9.59-2.782-2.165-5.255-4.95-5.874-8.662z"/><path d="M599 478.325c0-2.784 0-5.568-1.238-8.042-1.547-2.784-4.332-4.64-6.808-6.496-4.332-3.094-8.046-6.187-10.831-10.827-4.642-8.042-8.974-16.394-11.45-25.056-1.547-5.568-2.166-11.136-3.094-16.704-2.476-17.322-5.261-34.335-8.665-51.349-1.548-7.733-2.785-15.157-5.88-22.271-2.785-6.496-6.189-12.374-6.189-19.488.309-28.15.309-56.299.619-84.757 0-11.445 0-22.891-3.714-33.717-3.094-8.662-9.593-16.704-17.948-20.416.309-.31.309-.619.309-.928-6.189-3.403-12.069-8.352-16.711-13.92-.619-.619-1.238-1.547-1.238-2.475 0-1.237.929-2.165 1.548-2.784 2.785-2.784 5.261-5.568 7.427-8.661 1.547-2.784 2.785-5.877 2.785-9.28.928 8.043-3.714 16.395-11.141 19.488 9.284-1.237 16.092-10.517 16.402-20.107.309-9.28-5.261-18.25-12.688-23.818-2.476-1.856-5.261-3.712-6.189-6.496-.619-1.856-.31-4.021 0-5.877 1.238-7.115 4.332-13.92 4.642-21.035.309-10.826-5.571-20.725-11.45-30.005-3.095-4.95-6.499-9.899-10.522-14.23-7.427-7.423-17.33-12.063-27.232-15.775-2.167-.619-4.023-1.547-6.19-1.238-2.166.31-4.332 1.547-4.951 3.712-2.785-1.856-5.57-1.237-8.355 0-3.095 1.238-5.571 3.403-8.046 5.26-7.737 6.495-15.473 12.682-21.353 21.034-5.88 8.042-9.284 18.25-7.427 28.149 1.238 6.496 4.642 13.301 1.857 19.178-2.476 5.259-8.974 7.424-12.997 11.446-4.642 4.64-6.19 12.063-3.714 18.25 1.857 4.331 5.261 8.661 3.714 12.992-.619 1.856-2.167 3.093-3.404 4.331-4.023 3.402-8.665 6.186-12.688 9.589-4.023 3.403-7.427 7.733-8.356 12.992-.309 2.165-.309 4.64 1.238 6.187.929 1.237 2.476 1.856 4.333 2.165-6.499 1.856-13.616 3.093-19.187 6.805-10.831 7.115-14.235 21.344-16.401 34.336a406.436 406.436 0 0 0-3.714 82.282c.31 6.805.929 13.301.619 20.107-.309 8.661-2.166 17.322-3.713 25.983-4.333 26.603-3.404 53.824-1.547 80.736.928 11.136 1.856 22.891-1.548 33.717-2.475 7.733-5.879 14.539-9.283 21.653-1.238 3.094-2.786 6.187-3.405 9.59-.928 6.496 1.238 13.301 2.167 19.797.309 1.237.309 2.784.928 4.021.31.928 1.238 1.547 1.857 2.165 4.951 5.259 10.212 10.827 16.711 13.611.618.309 1.547.619 2.166.309.619 0 1.547-.928 1.238-1.546 0-.619-.619-.928-.929-1.238-1.857-1.856-4.023-3.712-5.879-5.568 2.475 1.238 5.57 1.856 8.355 1.856.619 0 1.238 0 1.547-.309.31-.309.31-1.237.31-1.856v-1.237c.619.309 1.238.618 2.166.928h.928c.929-.31.929-1.547 1.238-2.475.31-6.187.928-12.373 2.166-18.25.929 2.474 1.548 4.949 2.476 7.424-.309 6.186 0 11.754 1.547 17.322 10.831 40.832 2.476 85.066 2.476 85.066 7.427 4.64 15.163 8.352 23.209 11.136 1.238 12.992 1.857 26.293 1.548 39.285-.31 10.517-.929 21.344.309 31.861 1.238 10.208 4.023 19.798 6.808 29.696 5.57 19.488 11.141 38.976 19.187 57.536 4.641 10.826 9.902 21.653 12.997 32.789 3.713 13.301 4.642 27.221 5.57 41.141a2001.688 2001.688 0 0 1 2.785 61.557A204.176 204.176 0 0 0 476.145 925c2.476 0 4.951 0 6.808-1.237 4.023-2.784 3.714-8.971 2.476-13.611-7.118-29.077-17.33-57.226-26.923-85.375 20.115-44.235 39.611-89.707 45.8-137.653 1.856-13.301 2.475-26.602 4.332-39.904.928-7.114 2.476-14.229 4.023-21.034 15.164-3.093 24.447-6.187 24.447-6.187s-11.759-37.738-6.808-97.749v-1.546-1.238c.31-3.093.31-6.186.619-9.279v-2.785c0-1.237 0-2.474.31-3.711.619-12.374.619-25.056.309-37.43-.619-40.831-4.023-75.167-4.023-75.167v-2.165c8.046 18.869 15.782 37.429 23.828 56.298.929 1.856 2.167 4.331 2.167 6.496.309 5.568-1.857 11.445-.619 17.013.619 2.475 1.856 4.64 3.404 6.805l8.355 13.92c-.309.31-.928.31-1.238.619-.309 1.856 0 3.712.929 5.568-.619-.619-1.548-1.547-2.476-1.547-.928-.309-2.166.31-2.476 1.238-.309.618 0 1.546.31 2.165 2.785 5.259 9.284 7.733 15.163 7.424 5.88-.309 11.45-2.784 16.711-5.568 2.166-.928 4.023-2.165 5.88-3.712.619-.309.928-.928 1.238-1.547.309-.618.309-.928.309-1.546v-14.23zM374.333 164.973c1.857-4.64 6.189-7.424 10.522-9.899-2.476 3.403-4.642 7.115-4.952 11.445-.309 2.475.31 5.259 1.548 7.424-1.238.619-2.786.928-4.023 1.547-3.404-2.165-4.642-6.805-3.095-10.517zm-12.069 203.54c5.88-30.933 3.404-63.104 11.45-93.418 1.547 2.784 3.404 5.568 4.951 8.661 7.118 13.92 6.809 30.624 3.095 45.472-3.713 15.157-10.831 29.077-17.02 43.306-2.476 5.259-4.642 10.827-6.808 16.395 1.547-6.806 3.094-13.611 4.332-20.416zm-30.327 145.695c-.619-.31-.619-1.238-.928-1.856-.929-8.043.309-17.013 6.498-21.963 1.238-.928 3.405-1.856 4.333-.309.309.619.309 1.547.309 2.165-.309 4.022-.928 8.043-1.856 11.755-.619 2.784-1.238 5.568-1.238 8.352-1.548.618-3.404 1.237-4.952 1.856-.928 0-1.547.309-2.166 0zm120.38 124.97c1.856 13.61 4.023 27.84.619 41.141-1.548 6.186-4.023 12.373-5.261 18.56-1.548 8.042-1.548 16.394-1.238 24.437 0 17.013-.928 34.026-2.785 51.04-1.548-5.878-2.785-12.064-4.023-17.942-7.427-39.285-7.737-79.807-.31-119.092.31-1.238.619-2.475.619-4.022h11.45c.31 2.166.619 4.022.929 5.878z"/></g><defs><clipPath id="clip0"><path fill="#fff" d="M0 0h599v440H0z"/></clipPath></defs></svg>