<svg width="599" height="440" viewBox="0 0 599 440" fill="none" xmlns="http://www.w3.org/2000/svg">
<g clip-path="url(#clip0)">
<path d="M333.141 323.845C332.214 313.326 330.977 302.807 330.05 292.598C326.958 262.279 323.249 232.269 319.539 201.95C319.23 198.238 318.611 194.835 317.066 191.432C314.902 186.791 311.192 183.388 307.173 180.294C301.299 175.344 294.807 170.085 288.006 170.085C287.078 169.466 286.46 169.156 285.533 168.847C273.167 163.897 260.801 158.947 250.29 150.903C249.671 150.594 249.362 149.975 249.053 149.666C248.744 149.047 248.435 148.428 248.126 147.81C246.58 142.55 245.962 137.291 244.107 132.031C242.561 127.081 240.088 122.441 236.069 119.656C238.542 114.397 239.779 108.828 238.851 103.259C241.943 103.878 245.034 102.331 246.889 100.166C248.744 97.6906 249.671 94.9062 250.29 91.8125C251.836 84.3874 252.454 76.3437 248.744 69.8468C247.198 70.4655 245.343 71.0843 243.798 71.703C245.034 71.3936 244.725 60.8748 245.034 59.6373C245.034 55.6154 245.343 51.2842 244.725 47.5717C244.416 44.7873 243.179 42.6216 242.87 39.8373C242.87 38.2904 244.416 31.4841 241.324 31.7935C242.252 29.3185 243.179 26.8435 242.87 24.0591C242.252 21.5841 239.779 19.1091 237.306 19.7278C235.76 15.7059 234.523 12.3028 233.287 9.20902C232.978 8.59027 232.668 7.97151 232.359 7.35276C230.813 5.80588 227.722 7.04338 225.558 6.11526C224.012 5.18713 223.703 3.02149 222.466 1.78399C220.921 0.237108 218.448 -0.381644 216.284 0.237108C214.119 0.85586 212.265 2.09337 210.41 3.64025C209.173 1.78399 206.082 1.16524 204.227 2.40274C201.135 1.47461 197.735 3.02149 196.189 5.80588C195.571 4.87775 194.952 3.94962 194.334 3.02149C190.315 5.4965 185.987 7.66214 181.35 8.89964C182.277 8.28089 183.205 7.35276 184.441 6.73401C176.713 7.35276 171.457 14.4684 167.129 20.6559C166.82 20.3466 166.511 19.7278 166.511 19.1091C162.801 25.2966 162.183 33.031 161.874 40.1466C161.564 50.9748 161.564 62.1123 161.564 72.9405C161.874 70.4655 158.164 69.5374 156.309 71.3936C154.763 73.2499 154.763 75.7249 155.072 78.1999C155.691 85.6249 156.618 93.6687 160.637 100.166C161.874 102.331 164.656 104.497 166.82 102.95C167.747 107.591 168.984 112.541 171.148 116.872C169.911 118.109 168.675 119.347 168.056 120.894C166.202 124.916 166.202 129.556 165.274 133.888C164.965 135.125 164.656 136.672 163.728 137.6C162.492 138.838 160.946 139.766 159.4 140.385C136.523 149.047 113.646 158.019 91.0787 167.3C88.9146 168.228 86.7506 169.157 84.8957 170.703C78.0944 176.891 81.1859 188.028 77.7853 196.382C76.8578 198.857 75.3121 201.022 73.7664 203.188C68.5109 212.16 66.3468 222.369 63.8736 232.269C61.7096 240.932 59.2364 249.904 56.4541 258.566C54.2901 265.063 51.8169 271.869 47.4888 277.129C41.615 284.244 43.1607 294.144 42.5424 303.426C41.9241 318.276 35.432 332.507 33.8863 347.357C32.6497 359.423 35.1229 371.798 37.5961 383.554C39.1418 391.289 41.3059 409.851 42.8516 417.276C43.1607 418.204 43.1607 419.132 44.0882 419.442C44.7065 419.751 45.3248 419.751 46.2522 419.751C47.4888 419.751 48.4163 419.751 49.6528 419.751C50.8894 427.176 51.8169 434.601 52.126 442.336C52.4352 447.904 52.4352 453.783 51.8169 459.351C51.5077 462.136 51.1986 464.92 51.1986 467.705C51.1986 473.583 53.0535 479.461 55.2175 484.72C55.8358 486.576 56.7632 488.123 57.6907 489.67C59.5456 492.145 62.0188 493.692 64.8011 495.239C66.9651 496.477 69.4383 498.023 72.2206 498.023C74.0755 498.023 75.9304 497.714 77.7853 498.023C78.7127 498.333 79.6402 498.642 80.5676 498.952C78.0944 523.083 73.4572 547.214 70.984 571.655C68.2017 598.88 66.656 626.105 65.1102 653.33C64.4919 662.612 63.8736 671.583 63.5645 680.865C61.4005 719.227 58.9273 757.59 52.126 795.334C50.2711 805.234 47.798 815.753 40.9967 823.178C39.7601 824.725 38.2144 825.962 37.5961 827.818C36.9778 829.984 37.5961 832.459 38.2144 834.934C40.9967 847.928 32.0314 860.922 20.5929 867.728C15.6466 870.822 9.77277 872.987 5.4447 877.009C1.11663 881.031 -1.6657 887.528 1.11663 892.787C2.66237 895.881 5.75385 897.738 8.84533 899.284C20.5929 904.234 33.8863 901.759 45.3248 897.119C57.0724 892.478 67.5834 885.672 79.331 881.031C81.1859 880.412 83.0408 879.794 84.2774 878.247C87.0597 875.462 86.1323 870.822 85.8231 867.109C84.8957 855.044 103.754 844.525 101.281 839.265C95.7159 836.172 99.1165 827.818 101.899 821.94C104.681 816.062 109.318 810.803 109.937 803.996C110.246 800.284 109.318 796.571 108.7 793.168C107.773 785.125 109.628 777.081 111.482 769.346C117.356 744.906 124.467 721.084 132.814 697.262C136.833 685.815 141.161 672.512 134.978 661.993C146.107 651.783 145.489 634.768 145.798 619.608C146.725 588.052 159.091 570.417 171.148 532.055C171.766 561.445 172.694 590.527 173.312 619.918C173.621 626.724 173.93 633.53 175.167 640.336C177.331 642.193 177.022 645.596 176.094 648.071C175.167 650.546 173.93 653.33 174.549 656.115C175.167 660.137 179.495 662.612 181.041 666.324C181.659 668.49 181.35 670.965 181.041 673.44C178.877 684.577 175.785 695.715 171.766 706.543C170.221 710.565 168.675 714.277 167.747 718.609C166.82 722.94 167.129 727.581 167.129 732.221C167.747 751.402 168.675 770.893 173.003 789.765C173.621 792.55 174.239 795.643 172.694 797.809C172.075 798.737 171.148 799.356 170.53 800.284C169.911 801.522 169.911 802.759 169.911 803.996C170.221 808.637 171.457 812.968 172.075 817.3C172.694 821.94 172.385 826.89 169.602 830.293C168.675 831.531 167.438 832.459 167.438 833.697C167.438 835.243 168.366 836.481 168.984 837.718C171.457 842.978 168.056 848.856 165.892 854.425C164.038 859.065 163.11 864.015 163.419 868.965C163.419 873.606 164.965 878.866 169.293 880.722C171.148 881.65 173.621 881.341 175.476 881.959C178.568 882.887 181.041 885.053 183.823 886.909C193.407 893.097 205.463 892.169 216.902 891.241C222.466 890.622 229.268 889.384 231.432 884.125C233.287 879.794 230.504 874.534 226.795 871.441C223.085 868.347 218.757 866.181 215.047 863.087C206.082 854.734 205.773 838.956 214.429 830.293C211.337 827.2 207.627 823.178 208.864 818.847C210.41 813.587 218.757 810.803 217.211 805.543C216.593 803.378 214.429 802.14 213.192 800.593C210.719 796.881 211.337 792.24 212.574 788.218C224.012 752.949 232.05 716.752 236.996 679.937C237.615 676.224 237.924 672.512 239.47 669.108C240.706 666.015 242.87 663.23 243.798 659.827C244.725 656.424 244.107 652.402 241.015 650.855C248.744 647.143 253.69 639.718 256.473 631.674C259.255 623.63 259.873 615.277 260.801 606.924C263.892 581.246 271.003 556.496 275.022 530.817C277.186 517.514 278.422 503.592 277.495 489.98C277.495 490.598 277.804 491.217 277.804 491.836C277.495 490.598 284.296 482.555 285.224 481.008C286.769 477.914 288.006 474.82 289.242 471.726C290.479 472.345 291.716 472.655 292.952 472.964C294.189 473.273 295.425 473.273 296.662 472.655C297.589 472.036 298.208 471.108 298.517 470.18C312.119 443.264 322.63 414.492 330.05 385.101C331.905 377.985 333.451 370.87 334.069 363.445C335.924 350.76 334.687 337.148 333.141 323.845ZM282.75 351.379C282.441 346.12 282.441 340.551 282.132 335.292C281.823 328.795 281.514 321.988 278.113 316.42C275.64 312.707 271.312 308.995 271.93 304.354C272.239 302.498 273.476 300.641 274.094 298.785C274.712 297.548 275.022 296.31 275.022 294.763C279.35 309.613 283.987 324.463 288.315 339.623C289.242 342.407 289.861 345.192 291.097 347.667C288.315 348.285 284.914 348.904 282.75 351.379ZM87.3689 408.923C86.4414 390.051 85.2048 360.042 84.2774 341.17C84.8957 340.86 85.8231 340.551 86.7506 340.86C84.5865 339.623 82.4225 338.076 80.5676 336.529C82.7317 336.22 85.2048 335.601 87.0597 334.054C88.9146 332.507 89.5329 329.413 87.678 327.866C89.2238 325.082 89.2238 321.679 87.678 318.895C90.4604 320.132 93.5518 317.348 94.1701 314.563C95.0976 311.779 94.4793 308.685 94.7884 305.901C95.0976 304.045 95.7159 302.188 96.3342 300.332C99.7348 290.432 103.135 280.532 106.536 270.323C108.082 293.526 108.391 317.657 106.845 340.86C106.536 345.81 106.227 350.451 107.463 355.092C108.082 357.257 109.318 359.423 109.318 361.898C109.628 364.064 109.009 366.229 108.391 368.085C101.899 394.073 95.4067 420.061 88.9146 446.048C86.7506 442.954 84.2774 440.17 82.4225 436.767C80.5676 433.054 79.6402 429.032 79.0219 425.011C78.4036 421.607 78.0944 418.204 77.4762 414.801C79.9493 414.182 82.1134 413.254 84.2774 412.326C84.8957 412.017 85.514 411.707 86.1323 411.089C87.3689 411.089 87.3689 409.851 87.3689 408.923ZM75.9304 476.986C75.6213 475.13 75.9304 473.583 75.9304 471.726C76.5487 467.705 77.4761 462.755 81.4951 461.208C82.1134 464.301 83.6591 466.776 85.2048 469.561C85.514 469.87 85.514 470.18 85.8231 470.489C85.514 472.345 84.8957 474.201 84.5865 476.058C83.35 479.151 82.4225 482.245 81.8042 485.648C79.0219 483.483 76.5487 480.698 75.9304 476.986Z" fill="#EB3333"/>
<path d="M599 478.325C599 475.541 599 472.757 597.762 470.283C596.215 467.499 593.43 465.643 590.954 463.787C586.622 460.693 582.908 457.6 580.123 452.96C575.481 444.918 571.149 436.566 568.673 427.904C567.126 422.336 566.507 416.768 565.579 411.2C563.103 393.878 560.318 376.865 556.914 359.851C555.366 352.118 554.129 344.694 551.034 337.58C548.249 331.084 544.845 325.206 544.845 318.092C545.154 289.942 545.154 261.793 545.464 233.335C545.464 221.89 545.464 210.444 541.75 199.618C538.656 190.956 532.157 182.914 523.802 179.202C524.111 178.892 524.111 178.583 524.111 178.274C517.922 174.871 512.042 169.922 507.4 164.354C506.781 163.735 506.162 162.807 506.162 161.879C506.162 160.642 507.091 159.714 507.71 159.095C510.495 156.311 512.971 153.527 515.137 150.434C516.684 147.65 517.922 144.557 517.922 141.154C518.85 149.197 514.208 157.549 506.781 160.642C516.065 159.405 522.873 150.125 523.183 140.535C523.492 131.255 517.922 122.285 510.495 116.717C508.019 114.861 505.234 113.005 504.306 110.221C503.687 108.365 503.996 106.2 504.306 104.344C505.544 97.229 508.638 90.4237 508.948 83.3091C509.257 72.4825 503.377 62.5839 497.498 53.3039C494.403 48.3546 490.999 43.4053 486.976 39.0747C479.549 31.6507 469.646 27.0107 459.744 23.2988C457.577 22.6801 455.721 21.7521 453.554 22.0614C451.388 22.3708 449.222 23.6081 448.603 25.7734C445.818 23.9174 443.033 24.5361 440.248 25.7734C437.153 27.0107 434.677 29.1761 432.202 31.0321C424.465 37.528 416.729 43.7146 410.849 52.0666C404.969 60.1092 401.565 70.3172 403.422 80.2158C404.66 86.7117 408.064 93.517 405.279 99.3943C402.803 104.653 396.305 106.818 392.282 110.84C387.64 115.48 386.092 122.903 388.568 129.09C390.425 133.421 393.829 137.751 392.282 142.082C391.663 143.938 390.115 145.175 388.878 146.413C384.855 149.815 380.213 152.599 376.19 156.002C372.167 159.405 368.763 163.735 367.834 168.994C367.525 171.159 367.525 173.634 369.072 175.181C370.001 176.418 371.548 177.037 373.405 177.346C366.906 179.202 359.789 180.439 354.218 184.151C343.387 191.266 339.983 205.495 337.817 218.487C333.794 245.708 332.556 273.239 334.103 300.769C334.413 307.574 335.032 314.07 334.722 320.876C334.413 329.537 332.556 338.198 331.009 346.859C326.676 373.462 327.605 400.683 329.462 427.595C330.39 438.731 331.318 450.486 327.914 461.312C325.439 469.045 322.035 475.851 318.631 482.965C317.393 486.059 315.845 489.152 315.226 492.555C314.298 499.051 316.464 505.856 317.393 512.352C317.702 513.589 317.702 515.136 318.321 516.373C318.631 517.301 319.559 517.92 320.178 518.538C325.129 523.797 330.39 529.365 336.889 532.149C337.507 532.458 338.436 532.768 339.055 532.458C339.674 532.458 340.602 531.53 340.293 530.912C340.293 530.293 339.674 529.984 339.364 529.674C337.507 527.818 335.341 525.962 333.485 524.106C335.96 525.344 339.055 525.962 341.84 525.962C342.459 525.962 343.078 525.962 343.387 525.653C343.697 525.344 343.697 524.416 343.697 523.797C343.697 523.488 343.697 522.869 343.697 522.56C344.316 522.869 344.935 523.178 345.863 523.488C346.172 523.488 346.482 523.488 346.791 523.488C347.72 523.178 347.72 521.941 348.029 521.013C348.339 514.826 348.957 508.64 350.195 502.763C351.124 505.237 351.743 507.712 352.671 510.187C352.362 516.373 352.671 521.941 354.218 527.509C365.049 568.341 356.694 612.575 356.694 612.575C364.121 617.215 371.857 620.927 379.903 623.711C381.141 636.703 381.76 650.004 381.451 662.996C381.141 673.513 380.522 684.34 381.76 694.857C382.998 705.065 385.783 714.655 388.568 724.553C394.138 744.041 399.709 763.529 407.755 782.089C412.396 792.915 417.657 803.742 420.752 814.878C424.465 828.179 425.394 842.099 426.322 856.019C427.56 876.435 428.488 896.851 429.107 917.576C444.58 921.907 460.363 924.381 476.145 925C478.621 925 481.096 925 482.953 923.763C486.976 920.979 486.667 914.792 485.429 910.152C478.311 881.075 468.099 852.926 458.506 824.777C478.621 780.542 498.117 735.07 504.306 687.124C506.162 673.823 506.781 660.522 508.638 647.22C509.566 640.106 511.114 632.991 512.661 626.186C527.825 623.093 537.108 619.999 537.108 619.999C537.108 619.999 525.349 582.261 530.3 522.25C530.3 521.632 530.3 521.322 530.3 520.704C530.3 520.394 530.3 519.776 530.3 519.466C530.61 516.373 530.61 513.28 530.919 510.187C530.919 509.259 530.919 508.331 530.919 507.402C530.919 506.165 530.919 504.928 531.229 503.691C531.848 491.317 531.848 478.635 531.538 466.261C530.919 425.43 527.515 391.094 527.515 391.094C527.515 390.475 527.515 389.857 527.515 388.929C535.561 407.798 543.297 426.358 551.343 445.227C552.272 447.083 553.51 449.558 553.51 451.723C553.819 457.291 551.653 463.168 552.891 468.736C553.51 471.211 554.747 473.376 556.295 475.541C559.08 480.181 561.865 484.821 564.65 489.461C564.341 489.771 563.722 489.771 563.412 490.08C563.103 491.936 563.412 493.792 564.341 495.648C563.722 495.029 562.793 494.101 561.865 494.101C560.937 493.792 559.699 494.411 559.389 495.339C559.08 495.957 559.389 496.885 559.699 497.504C562.484 502.763 568.983 505.237 574.862 504.928C580.742 504.619 586.312 502.144 591.573 499.36C593.739 498.432 595.596 497.195 597.453 495.648C598.072 495.339 598.381 494.72 598.691 494.101C599 493.483 599 493.173 599 492.555C599 487.605 599 482.965 599 478.325ZM374.333 164.973C376.19 160.333 380.522 157.549 384.855 155.074C382.379 158.477 380.213 162.189 379.903 166.519C379.594 168.994 380.213 171.778 381.451 173.943C380.213 174.562 378.665 174.871 377.428 175.49C374.024 173.325 372.786 168.685 374.333 164.973ZM362.264 368.513C368.144 337.58 365.668 305.409 373.714 275.095C375.261 277.879 377.118 280.663 378.665 283.756C385.783 297.676 385.474 314.38 381.76 329.228C378.047 344.385 370.929 358.305 364.74 372.534C362.264 377.793 360.098 383.361 357.932 388.929C359.479 382.123 361.026 375.318 362.264 368.513ZM331.937 514.208C331.318 513.898 331.318 512.97 331.009 512.352C330.08 504.309 331.318 495.339 337.507 490.389C338.745 489.461 340.912 488.533 341.84 490.08C342.149 490.699 342.149 491.627 342.149 492.245C341.84 496.267 341.221 500.288 340.293 504C339.674 506.784 339.055 509.568 339.055 512.352C337.507 512.97 335.651 513.589 334.103 514.208C333.175 514.208 332.556 514.517 331.937 514.208ZM452.317 639.178C454.173 652.788 456.34 667.018 452.936 680.319C451.388 686.505 448.913 692.692 447.675 698.879C446.127 706.921 446.127 715.273 446.437 723.316C446.437 740.329 445.509 757.342 443.652 774.356C442.104 768.478 440.867 762.292 439.629 756.414C432.202 717.129 431.892 676.607 439.319 637.322C439.629 636.084 439.938 634.847 439.938 633.3C443.652 633.3 447.675 633.3 451.388 633.3C451.698 635.466 452.007 637.322 452.317 639.178Z" fill="#EB3333"/>
</g>
<defs>
<clipPath id="clip0">
<rect width="599" height="440" fill="white"/>
</clipPath>
</defs>
</svg>
