<svg width="499" height="484" fill="none" xmlns="http://www.w3.org/2000/svg"><g clip-path="url(#clip0)"><g clip-path="url(#clip1)"><path d="M2.771 379.959C19.09 298.456 59.747 96.074 67.16 66.629c9.32-36.99 54.519-24.141 54.519-24.141L93.915 423.473l-64.166-6.352c-8.621-.853-16.485-5.384-21.606-12.482a31.533 31.533 0 0 1-5.372-24.68z" fill="#EB3333"/><path d="M517.521 475.065c20.076 1.552 37.626-13.459 39.178-33.536l23.99-309.143c1.315-17.053-10.953-32.155-27.919-34.352L106.337 40.43c-13.283-1.708-25.323 7.899-26.621 21.223L45.769 415.474c-1.199 12.525 8.112 23.582 20.637 24.574l451.115 35.017z" fill="#EB3333"/><path d="M538.061 446.173c6.189.509 11.395-4.552 11.034-10.744-2.363-41.047-8.548-182.09 9.284-296.897.807-5.227-2.832-10.127-8.071-10.811l-431.5-56.643c-5.914-.772-11.341 3.375-12.154 9.285-6.653 48.363-33.295 247.572-31.358 319.503a8.602 8.602 0 0 0 7.882 8.325l454.883 37.982zM44.986 412.701a1.144 1.144 0 0 0 1.24-1.017L67.319 212.65c.063-.636-.381-1.177-1.015-1.261a1.145 1.145 0 0 0-1.241 1.017L43.97 411.44a1.123 1.123 0 0 0 1.015 1.261zM70.912 167.965a1.145 1.145 0 0 0 1.24-1.017l7.359-69.518a1.149 1.149 0 0 0-1.015-1.262 1.145 1.145 0 0 0-1.24 1.018l-7.36 69.518a1.136 1.136 0 0 0 1.016 1.261z" fill="#EB3333"/><path d="M204.94 16.136c19.983 6.476 12.734 60.023 8.934 81.66a9.882 9.882 0 0 1-10.712 8.122 5.003 5.003 0 0 1-3.569-2.053 4.977 4.977 0 0 1-.866-4.024c3.397-16.308 11.853-63.414-2.941-67.449 0 0-10.588-2.976-14.483 17.74l-11.659-1.155c-.021-.002 10.172-40.987 35.296-32.841zM304.099 28.729c19.983 6.476 12.734 60.023 8.932 81.681a9.882 9.882 0 0 1-10.712 8.122 5.006 5.006 0 0 1-3.57-2.053 4.981 4.981 0 0 1-.866-4.024c3.397-16.308 11.858-63.456-2.936-67.49 0 0-10.629-2.566-14.479 17.698l-11.659-1.154c-.023.019 10.166-40.926 35.29-32.78zM403.253 41.363c19.983 6.476 12.732 60.045 8.93 81.702-.898 5.093-5.562 8.652-10.714 8.142a5.06 5.06 0 0 1-3.571-2.032 4.981 4.981 0 0 1-.866-4.024c3.397-16.308 11.859-63.476-2.935-67.51 0 0-10.656-2.279-14.517 18.088l-11.639-1.567c.024-.039 10.188-40.945 35.312-32.799zM502.367 54.408c19.983 6.476 12.73 60.065 8.928 81.722-.898 5.093-5.562 8.653-10.714 8.143a4.987 4.987 0 0 1-3.571-2.033 4.977 4.977 0 0 1-.866-4.024c3.397-16.308 11.865-63.538-2.931-67.552 0 0-10.62-2.647-14.471 17.617l-11.659-1.154s10.16-40.865 35.284-32.72z" fill="#EB3333"/><path d="M296.09 176.637l-2.43 31.245a8.557 8.557 0 0 1-9.339 7.864l-31.998-2.981c-4.662-.44-8.112-4.534-7.735-9.181l2.547-32.85c.385-4.936 4.864-8.514 9.77-7.821l31.861 4.584c4.475.65 7.687 4.637 7.324 9.14zM403.957 227.32l-31.999-2.981c-4.662-.441-8.112-4.534-7.735-9.181l2.164-27.934c.383-4.916 4.819-8.478 9.688-7.83l31.887 4.317c4.5.612 7.751 4.623 7.386 9.147l-2.073 26.596c-.348 4.774-4.552 8.296-9.318 7.866zM362.194 363.388l30.449 2.724c5.094.463 8.881 4.921 8.48 10.022l-2.225 28.55c-.397 5.059-4.777 8.896-9.847 8.601l-30.528-1.716c-5.236-.29-9.202-4.828-8.789-10.052l2.302-29.538c.41-5.182 4.979-9.042 10.158-8.591zM409.742 405.073l2.162-27.914c.401-5.1 4.88-8.885 9.976-8.443l30.759 2.734c5.013.455 8.724 4.843 8.351 9.864l-2.083 26.906c-.389 4.977-4.679 8.739-9.666 8.453l-30.836-1.747c-5.156-.261-9.046-4.73-8.663-9.853zM419.519 279.083l1.771-22.915c.423-5.534 5.326-9.629 10.846-9.062l29.347 2.967c5.337.528 9.284 5.251 8.859 10.598l-1.69 21.887c-.409 5.391-5.103 9.465-10.498 9.097l-29.428-1.939c-5.476-.376-9.625-5.16-9.207-10.633zM414.36 345.648l2.721-35.03c.393-5.019 4.747-8.796 9.772-8.464l30.107 1.985c5.499.358 9.627 5.14 9.208 10.633l-2.752 35.338c-.405 5.142-4.948 8.941-10.059 8.436l-30.749-3.044c-4.967-.492-8.637-4.877-8.248-9.854zM354.559 339.583l2.539-32.768c.402-5.1 4.823-8.933 9.93-8.593l30.497 2.024c5.189.348 9.116 4.861 8.707 10.044l-2.618 33.776c-.414 5.224-5.026 9.1-10.24 8.583l-30.42-3.011c-5.046-.541-8.771-4.993-8.395-10.055zM309.717 234.759l34.91 3.518c3.838.38 6.654 3.768 6.358 7.594l-2.456 31.512c-.3 3.867-3.657 6.789-7.528 6.53l-35.009-2.304c-3.933-.265-6.911-3.69-6.605-7.619l2.535-32.727c.331-3.967 3.836-6.916 7.795-6.504zM291.046 241.617l-2.328 30.012a8.906 8.906 0 0 1-9.476 8.202l-31.364-2.068c-4.942-.323-8.682-4.632-8.295-9.589l2.415-31.101c.39-4.978 4.799-8.687 9.785-8.173l31.276 3.159c4.822.498 8.362 4.724 7.987 9.558zM400.967 287.88l-35.009-2.305c-3.933-.264-6.91-3.689-6.604-7.618l2.371-30.649a7.088 7.088 0 0 1 7.774-6.506l34.91 3.518c3.838.38 6.653 3.767 6.358 7.593l-2.292 29.435c-.28 3.869-3.635 6.771-7.508 6.532zM307.084 294.236l30.497 2.024c5.189.348 9.095 4.86 8.706 10.045l-2.466 31.821c-.413 5.224-5.025 9.1-10.239 8.584l-30.42-3.012a9.338 9.338 0 0 1-8.397-10.034l2.387-30.814c.402-5.1 4.825-8.953 9.932-8.614zM246.087 290.209l32.64 2.153c4.592.31 8.073 4.302 7.7 8.908l-2.487 32.027a8.271 8.271 0 0 1-9.064 7.601l-32.555-3.222c-4.475-.443-7.794-4.399-7.433-8.882l2.401-30.957c.345-4.526 4.266-7.911 8.798-7.628zM459.37 232.059l-24.277-2.258c-6.45-.597-11.235-6.274-10.741-12.733l1.55-20.056c.476-6.068 5.95-10.48 11.962-9.657l26.918 3.639c6.115.833 10.509 6.284 10.026 12.413l-1.307 16.764c-.547 7.201-6.923 12.56-14.131 11.888zM471.706 383.204c.419-5.493 5.259-9.574 10.744-9.072l10.581.944c8.034.712 14.077 6.679 13.558 13.385l-1.506 19.397c-.512 6.644-7.303 11.589-15.3 11.129l-11.398-.651c-5.133-.28-9.044-4.751-8.638-9.893l1.959-25.239zM132.444 342.905l20.813 1.853c5.095.463 8.901 4.944 8.499 10.044l-2.831 36.346c-.399 5.08-4.777 8.896-9.849 8.622l-20.778-1.165c-8.286-.468-14.672-6.531-14.134-13.422l2.421-31.162c.512-6.852 7.64-11.847 15.859-11.116zM493.425 362.512l-10.325-1.023c-5.357-.53-9.307-5.232-8.879-10.6l2.76-35.627c.409-5.39 5.103-9.465 10.497-9.097l10.421.679c8.217.544 14.501 6.576 13.97 13.405l-2.421 31.163c-.517 6.893-7.771 11.916-16.023 11.1zM499.28 294.358l-13.036-.855c-4.16-.267-7.284-3.893-6.955-8.047l1.987-25.734c.331-4.175 4.038-7.29 8.203-6.857l13.115 1.319c7.962.809 13.885 6.722 13.352 13.365l-1.22 15.673c-.498 6.708-7.375 11.686-15.446 11.136zM344.13 221.729l-31.999-2.981c-4.662-.44-8.112-4.534-7.735-9.181l2.369-30.422c.383-4.916 4.819-8.477 9.688-7.829l31.887 4.317c4.5.611 7.751 4.623 7.386 9.147l-2.257 29.085c-.369 4.772-4.575 8.315-9.339 7.864zM148.366 148.127l20.782 2.803c4.685.63 8.043 4.818 7.682 9.508l-2.786 35.894c-.387 4.957-4.753 8.65-9.702 8.181l-21.483-2.003c-8.01-.751-14.013-6.693-13.496-13.378l2.33-30.032c.553-7.055 8.206-12.122 16.673-10.973zM302.363 358.046l30.449 2.724c5.095.463 8.882 4.922 8.479 10.043l-2.377 30.504c-.398 5.06-4.778 8.896-9.848 8.601l-30.528-1.716c-5.236-.29-9.202-4.828-8.788-10.052l2.454-31.491c.411-5.204 4.96-9.065 10.159-8.613zM142.353 217.882l21.118 2.132c4.823.477 8.362 4.724 7.987 9.558l-2.655 34.145a8.907 8.907 0 0 1-9.476 8.203l-21.293-1.403c-8.217-.544-14.501-6.576-13.971-13.405l2.185-28.139c.559-6.909 7.834-11.931 16.105-11.091zM136.675 282.985l22.137 1.466c4.592.309 8.073 4.302 7.7 8.908l-2.183 28.119a8.272 8.272 0 0 1-9.064 7.601l-22.169-2.194c-7.964-.789-13.906-6.725-13.393-13.369l1.506-19.397c.518-6.706 7.414-11.662 15.466-11.134zM226.46 297.304l-2.334 30.073a8.274 8.274 0 0 1-9.065 7.601l-32.555-3.223c-4.475-.443-7.795-4.378-7.432-8.882l2.249-29.003c.344-4.526 4.265-7.911 8.797-7.628l32.641 2.153c4.591.31 8.07 4.323 7.699 8.909zM182.659 347.378l30.429 2.722c5.094.463 8.902 4.923 8.499 10.044l-2.679 34.392c-.399 5.08-4.778 8.896-9.85 8.622l-30.507-1.714c-5.236-.29-9.202-4.829-8.809-10.055l2.756-35.378c.414-5.224 4.985-9.104 10.161-8.633zM503.321 236.161l-12.735-1.178a7.47 7.47 0 0 1-6.75-8.027l1.951-25.157c.341-4.277 4.194-7.399 8.449-6.832l13.417 1.825c7.692 1.031 13.272 6.848 12.759 13.285l-1.175 15.015c-.492 6.854-7.681 11.842-15.916 11.069zM242.51 352.723l29.915 2.671c5.385.471 9.394 5.199 8.962 10.608l-2.476 31.925c-.4 5.08-4.778 8.896-9.85 8.622l-30.507-1.715c-5.236-.29-9.202-4.828-8.809-10.054l2.604-33.425c.415-5.244 4.984-9.103 10.161-8.632zM236.47 168.539l-2.602 33.404c-.387 4.957-4.753 8.65-9.702 8.18l-31.3-2.911a8.91 8.91 0 0 1-8.049-9.565l2.688-34.702c.402-5.1 5-8.832 10.072-8.144l31.212 4.23c4.664.628 8.044 4.797 7.681 9.508zM231.263 235.595l-2.493 32.089a8.908 8.908 0 0 1-9.476 8.203l-31.364-2.068c-4.942-.324-8.682-4.632-8.295-9.589l2.577-33.158c.39-4.978 4.799-8.687 9.785-8.173l31.276 3.158c4.805.455 8.364 4.704 7.99 9.538zM513.365 170.08l-2.481 10.409a6.94 6.94 0 0 1-7.326 5.327l-.495-.028a6.965 6.965 0 0 1-6.409-7.496l.843-10.819c.332-4.196 4.272-7.143 8.394-6.279l2.152.462c3.818.793 6.24 4.597 5.322 8.424zM464.638 162.5l-2.481 10.408a6.941 6.941 0 0 1-7.326 5.328l-.495-.029a6.964 6.964 0 0 1-6.409-7.495l.843-10.819c.333-4.196 4.272-7.143 8.395-6.279l2.151.462c3.816.813 6.238 4.618 5.322 8.424zM404.268 157.374l-2.481 10.408a6.941 6.941 0 0 1-7.326 5.328l-.495-.029a6.964 6.964 0 0 1-6.409-7.495l.843-10.819c.333-4.196 4.272-7.143 8.395-6.279l2.151.462c3.839.794 6.238 4.618 5.322 8.424zM345.802 148.933l-2.482 10.408a6.939 6.939 0 0 1-7.326 5.327l-.492-.048a6.965 6.965 0 0 1-6.409-7.496l.843-10.819c.332-4.196 4.272-7.143 8.394-6.279l2.152.462a6.97 6.97 0 0 1 5.32 8.445zM286.234 135.284l-2.481 10.408a6.941 6.941 0 0 1-7.326 5.328l-.495-.029a6.964 6.964 0 0 1-6.409-7.495l.843-10.819c.332-4.196 4.272-7.143 8.394-6.279l2.152.462c3.818.792 6.238 4.618 5.322 8.424zM222.2 130.313l-2.481 10.409a6.94 6.94 0 0 1-7.326 5.327l-.495-.028a6.965 6.965 0 0 1-6.409-7.496l.843-10.819c.332-4.195 4.272-7.143 8.395-6.279l2.151.462c3.818.793 6.238 4.618 5.322 8.424zM168.368 123.844l-2.481 10.409a6.94 6.94 0 0 1-7.326 5.327l-.495-.028a6.964 6.964 0 0 1-6.409-7.495l.843-10.82c.332-4.195 4.272-7.143 8.394-6.278l2.152.461c3.818.793 6.238 4.618 5.322 8.424z" fill="#fff" fill-opacity=".05"/></g></g><defs><clipPath id="clip0"><path fill="#fff" d="M0 0h499v484H0z"/></clipPath><clipPath id="clip1"><path fill="#fff" transform="rotate(5.653 197.857 306.458)" d="M0 0h616.076v478.65H0z"/></clipPath></defs></svg>