<svg width="544" height="470" fill="none" xmlns="http://www.w3.org/2000/svg"><g clip-path="url(#clip0)" fill="#EB3333"><path d="M624.12 142.39h11.794c.086 0 .086 0 .086-.086v-4.042c0-.086 0-.086-.086-.086H624.12v4.214zM619.471 150.646h11.794c.086 0 .086 0 .086-.086v-4.042c0-.086 0-.086-.086-.086h-11.794v4.214zM616.458 158.558h11.794c.086 0 .086 0 .086-.086v-4.042c0-.086 0-.086-.086-.086h-11.794v4.214zM274.079 627l-61.295-48.074c-3.272-2.58-1.464-7.826 2.582-7.826h353.742L616.63 627H274.079z"/><path d="M288.37 556.738v62.522l-58.541-41.022 1.98-43.344 56.561 21.844z"/><path d="M274.079 552.008l-50.19-20.382c-2.927-1.204-2.066-5.59 1.033-5.59l330.154-2.15 61.554 25.112-342.551 3.01z"/><path d="M274.079 549.084H616.63V627H274.079v-77.916zM274.079 552.008l-42.528-17.114-.086 3.01 42.614 27.004v-12.9z"/><path d="M367.745 564.908h229.773v48.074H367.745v-48.074zM323.839 606.274c-9.557 0-17.304-7.932-17.304-17.716s7.747-17.716 17.304-17.716c9.557 0 17.304 7.932 17.304 17.716s-7.747 17.716-17.304 17.716z"/><path d="M323.839 607.134c9.987 0 18.079-8.342 18.079-18.576s-8.092-18.576-18.079-18.576c-9.986 0-18.079 8.342-18.079 18.576-.086 10.234 8.093 18.576 18.079 18.576zm0-35.518c9.126 0 16.443 7.568 16.443 16.942 0 9.288-7.403 16.942-16.443 16.942-9.125 0-16.443-7.568-16.443-16.942-.086-9.374 7.318-16.942 16.443-16.942zM323.064 25l-92.288 54.438c-4.821 3.096-1.721 8.772 3.444 8.772l349.351-7.482 29.701-39.388L323.064 25z"/><path d="M326.078 102.4l3.013-74.992-76.878 45.322 2.755 54.696 71.11-25.026z"/><path d="M323.495 98.186l-79.805 30.96c-4.132 1.634-3.013 6.966 1.463 6.708l328.69-15.308 40.462-22.36h-290.81zM323.064 25l291.5 16.34-.259 56.846h-290.81L323.064 25z"/><path d="M602.339 91.564l.086-41.624-185.351-11.868-.172 52.546 185.437.946zM266.848 461.45H607.59v79.206H266.848V461.45z"/><path d="M275.026 405.636h340.743v55.986H275.026v-55.986z"/><path d="M261.941 339.072h340.742v66.736H261.941v-66.736z"/><path d="M283.377 263.994H624.12v79.378H283.377v-79.378z"/><path d="M275.715 183.756h340.743v84.122H275.715v-84.122zM267.967 156.408H608.71v27.348H267.967v-27.348z"/><path d="M283.377 134.822H624.12v27.348H283.377v-27.348zM273.132 121.148h340.743a28.269 28.269 0 0 1 0-13.674l-340.743 6.794v6.88zM266.848 134.822H607.59c-1.463-4.386-1.463-9.202 0-13.674H266.848v13.674zM388.234 276.206h211.608v54.954H388.234v-54.954zM316.78 385.77c-9.224 0-16.702-7.662-16.702-17.114 0-9.452 7.478-17.114 16.702-17.114 9.224 0 16.701 7.662 16.701 17.114 0 9.452-7.477 17.114-16.701 17.114z"/><path d="M316.78 386.63c9.642 0 17.562-8.084 17.562-17.974s-7.834-17.974-17.562-17.974c-9.642 0-17.562 8.084-17.562 17.974s7.92 17.974 17.562 17.974zm0-34.314c8.781 0 15.926 7.31 15.926 16.34 0 9.03-7.145 16.34-15.926 16.34s-15.927-7.31-15.927-16.34c0-9.03 7.146-16.34 15.927-16.34zM323.839 321.442c-9.224 0-16.701-7.662-16.701-17.114 0-9.452 7.477-17.114 16.701-17.114s16.702 7.662 16.702 17.114c0 9.452-7.478 17.114-16.702 17.114z"/><path d="M323.839 322.388c9.642 0 17.562-8.084 17.562-17.974s-7.834-17.974-17.562-17.974c-9.642 0-17.562 8.084-17.562 17.974s7.834 17.974 17.562 17.974zm0-34.314c8.781 0 15.927 7.31 15.927 16.34 0 9.03-7.146 16.34-15.927 16.34-8.781 0-15.926-7.31-15.926-16.34 0-9.03 7.145-16.34 15.926-16.34zM325.991 249.374c-9.223 0-16.701-7.662-16.701-17.114 0-9.452 7.478-17.114 16.701-17.114 9.224 0 16.702 7.662 16.702 17.114 0 9.452-7.478 17.114-16.702 17.114z"/><path d="M325.991 250.234c9.642 0 17.563-8.084 17.563-17.974s-7.834-17.974-17.563-17.974c-9.642 0-17.562 8.084-17.562 17.974s7.92 17.974 17.562 17.974zm0-34.314c8.782 0 15.927 7.31 15.927 16.34 0 9.03-7.145 16.34-15.927 16.34-8.781 0-15.926-7.31-15.926-16.34 0-9.03 7.145-16.34 15.926-16.34zM318.416 520.876c-9.224 0-16.702-7.662-16.702-17.114 0-9.452 7.478-17.114 16.702-17.114 9.223 0 16.701 7.662 16.701 17.114 0 9.452-7.478 17.114-16.701 17.114z"/><path d="M318.416 521.736c9.642 0 17.562-8.084 17.562-17.974s-7.834-17.974-17.562-17.974c-9.729 0-17.563 8.084-17.563 17.974s7.921 17.974 17.563 17.974zm0-34.314c8.781 0 15.926 7.31 15.926 16.34 0 9.03-7.145 16.34-15.926 16.34-8.782 0-15.927-7.31-15.927-16.34 0-9.03 7.145-16.34 15.927-16.34zM370.758 78.75c-9.224 0-16.701-7.662-16.701-17.114 0-9.452 7.477-17.114 16.701-17.114s16.701 7.662 16.701 17.114c0 9.452-7.477 17.114-16.701 17.114z"/><path d="M370.758 79.61c9.642 0 17.562-8.084 17.562-17.974s-7.834-17.974-17.562-17.974c-9.642 0-17.562 8.084-17.562 17.974s7.92 17.974 17.562 17.974zm0-34.314c8.781 0 15.927 7.31 15.927 16.34 0 9.03-7.146 16.34-15.927 16.34-8.781 0-15.927-7.31-15.927-16.34 0-9.03 7.146-16.34 15.927-16.34zM364.56 229.68s-108.818 63.64-181.305-45.322L92 242.236s136.969 57.276 147.385 53.664c77.653-26.66 125.175-66.22 125.175-66.22zM323.064 73.246s-20.058 9.202-74.725-18.662L189.884 77.46s60.09 33.54 65.772 31.562c41.754-14.448 67.408-35.776 67.408-35.776zM269.947 422.406c33.575-35.088 36.588-83.334 36.588-83.334s5.682 57.62-13.774 132.182c-.775 3.01-11.278 11.868-25.655 22.962.258-23.908 1.55-47.902 2.841-71.81z"/><path d="M297.324 318.346S289.92 436.424 169.825 437.37l-2.755 101.308s113.811-78.088 116.479-88.15c19.543-74.562 13.775-132.182 13.775-132.182zM568.075 108.936c7.49-1.548 15.066-2.838 22.642-3.956 7.145-1.032 14.549-1.548 21.694-2.838-4.304.86-8.695 1.634-12.999 2.494l21.178-4.386c-4.218 2.924-7.92 4.3-10.331 4.988-.086 0 0 .086 0 .086l10.503-.688s.086.086 0 .086c-8.264 4.644-14.119 4.3-14.119 4.3l-35.727-.688-2.841.602zM285.443 100.594l-44.336 16.426v1.634l83.249-27.09-38.913 9.03zM505.574 134.822s-155.65 75.336-161.245 103.114l-43.476-36.292s139.207-66.306 204.721-66.822z"/><path d="M294.999 225.724c38.052-29.928 80.924-52.632 126.724-66.994l83.851-23.994H193.93l101.069 90.988zM594.419 203.106v12.9c-4.821 1.462-8.437 6.106-8.437 11.524 0 5.504 3.53 10.062 8.437 11.524v14.19h-68.355v-50.138h68.355zM585.724 415.268v9.46c-4.821 1.118-8.437 4.472-8.437 8.514 0 4.042 3.53 7.396 8.437 8.514v10.406h-68.355v-36.808h68.355v-.086z"/><path d="M541.215 207.062h1.636v41.968h-1.636v-41.968zM530.11 207.062h7.662v41.968h-7.662v-41.968zM383.327 481.488h196.629v39.474H383.327v-39.474zM383.327 348.876h196.629v39.474H383.327v-39.474zM559.983 423.61h4.649v23.65h-4.649v-23.65zM549.222 423.61h4.649v23.65h-4.649v-23.65zM535.447 423.61h4.649v23.65h-4.649v-23.65zM306.535 418.794h7.404v33.196h-7.404v-33.196z"/></g><defs><clipPath id="clip0"><path fill="#fff" d="M0 0h544v470H0z"/></clipPath></defs></svg>