<svg width="552" height="478" viewBox="0 0 552 478" fill="none" xmlns="http://www.w3.org/2000/svg">
<g clip-path="url(#clip0)">
<path d="M331.844 680.115C331.844 680.115 285.447 663.462 270.13 638.816C271.462 611.505 274.126 562.657 274.57 562.879L362.257 571.982L343.832 648.808L331.844 680.115Z" fill="#EB3333"/>
<path d="M297.879 632.155C289.665 617.944 282.562 583.75 282.562 572.204H519.428C519.428 572.204 523.868 623.495 523.424 644.145V644.367C518.54 656.579 506.774 664.128 480.357 675.674C431.297 696.99 364.477 693.66 331.844 680.337V669.235C331.844 669.235 306.093 646.365 297.879 632.155Z" fill="#EB3333"/>
<path d="M236.831 340.396C198.204 374.146 191.1 381.029 191.1 381.029C180.445 336.843 171.787 305.758 170.233 287.106C168.901 268.233 144.704 227.156 144.704 227.156C125.39 232.263 110.073 262.46 120.063 293.767C127.166 316.415 113.625 371.481 127.61 444.31C134.936 482.501 156.026 491.382 196.872 468.29C225.509 452.081 277.456 414.557 277.456 414.557L316.748 283.776C283.671 289.549 274.57 307.534 236.831 340.396Z" fill="#EB3333"/>
<path d="M310.089 283.11C291.441 286.884 278.566 296.432 257.254 317.748C235.943 339.063 190.878 379.919 190.878 379.919C190.878 379.919 201.978 407.673 192.876 442.978C184.885 473.619 172.453 478.948 172.453 478.948C172.453 478.948 182.221 481.834 207.972 465.182C233.945 448.529 291.219 407.451 291.219 407.451L310.089 283.11Z" fill="#EB3333"/>
<path d="M188.659 370.815C188.659 370.815 193.098 441.423 171.565 460.963C149.81 480.502 136.046 467.624 136.046 467.624C136.046 467.624 137.156 487.607 150.254 486.941C163.351 486.275 165.349 487.385 173.119 487.163C180.889 486.941 192.876 485.831 198.426 470.51C214.632 439.203 208.638 398.348 197.316 373.479C193.764 375.478 193.764 369.927 188.659 370.815Z" fill="#EB3333"/>
<path d="M89.2056 228.932C89.6497 241.588 94.7555 250.248 97.1974 256.687C107.187 281.999 112.737 278.891 122.727 298.43L143.594 244.253C152.696 228.266 145.592 221.161 131.384 217.83L89.2056 228.932Z" fill="#EB3333"/>
<path d="M212.412 206.95C198.426 216.276 179.335 212.501 169.789 198.513C160.465 184.524 164.239 165.429 178.225 155.881C192.21 146.556 211.302 150.33 220.847 164.319C230.171 178.529 226.397 197.625 212.412 206.95Z" fill="#EB3333"/>
<path d="M200.646 196.292C194.874 193.406 180.001 186.079 164.905 178.529C164.239 185.19 165.793 192.296 170.011 198.291C179.335 212.279 198.426 216.054 212.634 206.728C217.962 203.176 221.735 198.291 223.955 192.74C218.85 199.623 212.19 202.065 200.646 196.292Z" fill="#EB3333"/>
<path d="M174.451 188.299L172.897 163.653C156.026 182.748 127.388 206.506 103.857 220.051L104.523 229.82C120.729 224.935 149.144 207.394 174.451 188.299Z" fill="#EB3333"/>
<path d="M189.102 209.615L174.673 208.505L146.702 226.934C134.048 235.149 118.287 236.259 104.745 229.82C123.837 223.159 151.586 205.396 174.673 188.077L189.102 209.615Z" fill="#EB3333"/>
<path d="M141.374 207.394C141.374 207.616 141.374 207.838 141.374 208.06C141.374 209.171 142.262 210.503 143.372 211.169L148.478 213.611C149.588 214.055 149.588 215.166 148.7 215.61L148.034 216.054C147.146 216.72 145.37 216.72 144.482 216.276L139.376 213.833C138.266 213.389 137.378 212.057 137.378 210.725V210.059C137.378 208.949 138.044 207.394 138.932 206.728L139.598 206.284C140.486 205.84 141.374 206.062 141.374 207.394Z" fill="#EB3333"/>
<path d="M131.828 212.723C131.828 212.945 131.828 213.167 131.828 213.389C131.828 214.5 132.716 215.832 133.826 216.498L138.932 218.94C140.042 219.384 140.042 220.495 139.154 220.939L138.488 221.383C137.6 222.049 135.824 222.049 134.936 221.605L129.83 219.162C128.72 218.718 127.832 217.386 127.832 216.054V215.388C127.832 214.277 128.498 212.723 129.386 212.057L130.052 211.613C130.94 211.169 131.828 211.613 131.828 212.723Z" fill="#EB3333"/>
<path d="M122.283 218.274C122.283 218.496 122.283 218.718 122.283 218.94C122.283 220.051 123.171 221.383 124.281 222.049L129.386 224.491C130.496 224.935 130.496 226.046 129.608 226.49L128.942 226.934C128.054 227.6 126.278 227.6 125.391 227.156L120.285 224.713C119.175 224.269 118.287 222.937 118.287 221.605V220.939C118.287 219.828 118.953 218.274 119.841 217.608L120.507 217.164C121.395 216.72 122.283 217.164 122.283 218.274Z" fill="#EB3333"/>
<path d="M188.436 137.896C192.654 140.116 195.762 144.557 196.65 151.44C196.65 152.107 196.872 152.773 196.872 153.661C196.872 154.549 196.872 155.437 196.872 156.325C196.872 157.88 196.65 159.434 196.65 160.988C196.206 163.875 195.762 166.761 194.874 169.648C192.432 177.419 188.436 184.968 183.331 190.963C180.667 194.072 177.781 196.514 174.895 198.735C168.457 203.176 162.241 203.842 157.579 201.843L173.563 209.837C179.335 212.501 186.661 212.057 192.876 207.838C195.762 205.84 198.648 203.398 201.09 200.511C206.418 194.516 210.636 186.745 213.078 178.751C213.966 175.865 214.632 172.978 214.854 170.092C215.076 168.537 215.076 166.983 215.076 165.429C215.076 164.541 215.076 163.653 215.076 162.764C215.076 162.098 214.854 161.21 214.854 160.544C213.744 153.883 209.97 148.998 204.864 146.112L204.42 145.889C204.198 145.889 203.976 145.667 203.754 145.667L188.436 137.896Z" fill="#EB3333"/>
<path d="M173.341 209.615C179.113 212.057 186.439 211.835 192.654 207.616C195.54 205.618 198.426 203.176 200.868 200.289L183.109 190.963C180.445 194.072 177.559 196.514 174.673 198.735C168.235 203.176 162.019 203.842 157.357 201.843L173.341 209.615Z" fill="#EB3333"/>
<path d="M170.899 140.783C157.579 149.664 147.59 169.87 148.7 185.857C149.144 193.85 152.474 199.401 157.135 201.621C157.135 201.621 157.357 201.621 157.357 201.843C162.019 204.064 168.013 203.176 174.673 198.735C187.992 189.853 197.982 169.648 196.872 153.661C196.428 145.667 193.098 140.339 188.436 137.896C183.775 135.676 177.559 136.342 170.899 140.783Z" fill="#EB3333"/>
<path d="M170.899 140.783C157.579 149.664 147.59 169.87 148.7 185.857C149.144 193.85 152.474 199.401 157.135 201.621C157.135 201.621 157.357 201.621 157.357 201.843C162.019 204.064 168.013 203.176 174.673 198.735C187.992 189.853 197.982 169.648 196.872 153.661C196.428 145.667 193.098 140.339 188.436 137.896C183.775 135.676 177.559 136.342 170.899 140.783Z" fill="#EB3333"/>
<path d="M131.606 74.615C131.606 74.615 134.936 102.814 115.845 141.671C112.071 149.22 108.075 155.881 104.301 161.876C88.0957 185.634 72.5562 195.182 72.5562 195.182C92.0916 191.185 113.181 188.299 134.048 193.184C146.924 196.292 158.023 200.289 158.023 200.289C162.241 202.287 168.013 201.399 174.007 197.403C178.003 194.738 181.555 191.185 184.663 186.745C186.661 184.08 188.436 181.194 189.99 178.085C193.986 170.092 195.984 161.432 195.54 153.661C195.096 146.556 192.21 141.449 187.993 139.228C187.993 139.228 178.003 132.789 167.791 124.352C150.92 111.029 140.264 92.6002 131.606 74.615Z" fill="#EB3333"/>
<path d="M131.606 74.615C131.606 74.615 134.936 102.814 115.845 141.671C112.071 149.22 108.075 155.881 104.301 161.876C88.0957 185.634 72.5562 195.182 72.5562 195.182C92.0916 191.185 113.181 188.299 134.048 193.184C146.924 196.292 158.023 200.289 158.023 200.289C162.241 202.287 168.013 201.399 174.007 197.403C178.003 194.738 181.555 191.185 184.663 186.745C186.661 184.08 188.436 181.194 189.99 178.085C193.986 170.092 195.984 161.432 195.54 153.661C195.096 146.556 192.21 141.449 187.993 139.228C187.993 139.228 178.003 132.789 167.791 124.352C150.92 111.029 140.264 92.6002 131.606 74.615Z" fill="#EB3333"/>
<path d="M104.079 161.876C87.8737 185.634 72.3342 195.182 72.3342 195.182C91.8696 191.185 112.959 188.299 133.826 193.184C146.702 196.292 157.801 200.289 157.801 200.289C162.019 202.287 167.791 201.399 173.785 197.403C177.781 194.738 181.333 191.185 184.441 186.745C165.793 176.309 133.826 160.322 104.079 161.876Z" fill="#EB3333"/>
<path d="M74.9981 55.0756C61.2345 64.4012 48.803 78.8337 39.4792 95.2646C27.7136 116.358 20.8318 140.783 22.1638 162.098C24.6057 200.067 52.3549 213.611 83.8779 192.518C91.2036 187.633 97.8633 181.416 104.079 174.31C119.397 156.547 130.718 133.011 134.936 110.141C135.602 107.033 136.046 103.702 136.268 100.594C136.49 99.2613 136.49 97.9291 136.49 96.5968C136.49 94.8205 136.712 92.8222 136.712 91.0459C136.712 89.0475 136.712 87.2712 136.49 85.4949C134.27 47.5262 106.743 33.9819 74.9981 55.0756Z" fill="#EB3333"/>
<path d="M39.7012 95.2646C27.9356 116.358 21.0538 140.783 22.3857 162.098C24.8277 200.067 52.5768 213.611 84.0998 192.518C91.4255 187.633 98.0854 181.416 104.301 174.31C98.9733 175.199 88.7617 172.534 90.7596 166.761C85.2098 173.2 79.216 178.751 72.7782 182.97C63.6765 188.965 55.0187 191.852 47.693 191.408C41.4772 190.963 36.3714 187.855 32.5975 182.082C29.0456 176.753 26.8257 168.982 26.1597 159.878C25.0497 141.671 30.5995 120.577 40.1452 101.704C40.1452 101.926 37.4813 101.038 39.7012 95.2646Z" fill="#EB3333"/>
<path d="M75.6641 59.7384C61.6785 69.064 49.2469 84.6068 40.3672 101.926C30.5995 120.799 25.2717 141.893 26.3817 160.1C27.0477 169.204 29.2676 176.753 32.8195 182.304C36.5934 187.855 41.6992 190.963 47.915 191.63C55.2408 192.296 63.8984 189.409 73.0001 183.192C79.4379 178.973 85.4318 173.422 90.9816 166.983C92.9796 164.541 95.1995 162.098 96.9754 159.434C100.305 154.771 103.635 149.886 106.299 144.779C106.965 143.669 107.409 142.559 108.075 141.671C108.963 139.894 109.851 138.118 110.739 136.342C113.625 130.125 116.067 123.686 118.065 117.246V117.024C119.397 112.806 120.285 108.587 120.951 104.368C121.395 101.26 121.839 98.3732 122.061 95.4866C122.061 94.1544 122.283 93.0442 122.283 91.712C122.283 90.1577 122.283 88.8255 122.283 87.2712C122.283 85.939 122.283 84.3847 122.061 83.0525C121.395 73.9489 119.175 66.3995 115.623 60.8486C107.853 48.6364 92.7575 48.1924 75.6641 59.7384Z" fill="#EB3333"/>
<path d="M75.6641 59.7384C61.6785 69.064 49.2469 84.6068 40.3672 101.926C30.5995 120.799 25.2717 141.893 26.3817 160.1C27.0477 169.204 29.2676 176.753 32.8195 182.304C36.5934 187.855 41.6992 190.963 47.915 191.63C55.2408 192.296 63.8984 189.409 73.0001 183.192C79.4379 178.973 85.4318 173.422 90.9816 166.983C92.9796 164.541 95.1995 162.098 96.9754 159.434C100.305 154.771 103.635 149.886 106.299 144.779C106.965 143.669 107.409 142.559 108.075 141.671C108.963 139.894 109.851 138.118 110.739 136.342C113.625 130.125 116.067 123.686 118.065 117.246V117.024C119.397 112.806 120.285 108.587 120.951 104.368C121.395 101.26 121.839 98.3732 122.061 95.4866C122.061 94.1544 122.283 93.0442 122.283 91.712C122.283 90.1577 122.283 88.8255 122.283 87.2712C122.283 85.939 122.283 84.3847 122.061 83.0525C121.395 73.9489 119.175 66.3995 115.623 60.8486C107.853 48.6364 92.7575 48.1924 75.6641 59.7384Z" fill="#EB3333"/>
<path d="M87.4297 103.702L68.7823 140.561C77.218 145.223 87.6517 150.774 94.7555 161.876C95.4214 160.988 96.0874 160.1 96.7534 159.212C100.083 154.549 103.413 149.664 106.077 144.557C106.743 143.447 107.187 142.337 107.853 141.449C108.741 139.672 109.629 137.896 110.517 136.12C113.403 129.903 115.845 123.464 117.843 117.024V116.802C118.065 115.914 118.287 115.026 118.731 113.916C105.411 114.804 87.4297 103.702 87.4297 103.702Z" fill="#EB3333"/>
<path d="M66.7844 138.562C69.2263 142.337 73.6662 142.559 78.772 139.228H78.994C86.7637 133.899 92.7575 122.131 92.0916 112.584V112.362C91.8696 109.919 91.2036 107.699 90.3156 106.145C87.8737 102.37 83.4338 102.148 78.328 105.478H78.106C70.3362 110.807 64.3425 122.575 65.0084 132.123V132.345C65.2304 134.788 65.8964 137.008 66.7844 138.562Z" fill="#EB3333"/>
<path d="M136.046 197.625C136.046 197.625 129.83 195.848 127.61 195.182C122.283 194.072 118.287 192.074 114.513 196.07C113.181 197.403 112.293 199.845 110.739 200.955C108.963 202.065 105.633 201.621 103.413 202.065C100.971 202.509 98.7513 203.62 97.1974 205.84C96.3094 207.172 95.8654 209.837 94.5334 210.725C92.7575 211.835 90.0936 211.613 88.0957 212.501C83.8778 214.278 82.5458 220.051 80.9919 223.825C79.2159 228.044 76.5521 233.817 78.328 238.258C79.66 241.81 82.3239 244.253 85.2098 246.473C88.5397 249.138 92.3135 251.58 95.8654 253.8C98.9733 255.577 102.525 254.245 104.523 251.58C107.187 248.027 112.293 249.36 115.401 246.473C116.733 245.141 117.177 243.143 118.509 241.81C120.063 240.256 121.617 239.146 122.283 236.925C123.393 232.929 121.395 228.488 120.507 224.713C119.841 221.383 120.729 217.386 121.617 214.055C122.283 211.391 123.615 207.616 125.834 205.84C126.056 205.396 136.046 197.625 136.046 197.625Z" fill="#EB3333"/>
<path d="M170.455 286.884C170.011 263.348 171.343 253.134 171.343 241.81C171.343 229.154 162.463 221.827 152.03 213.389C144.038 206.95 141.152 204.064 136.268 198.735C132.272 194.294 128.942 207.838 129.608 212.945C130.496 218.94 136.268 226.046 140.042 231.375C148.478 243.809 114.957 260.906 122.727 298.208C130.496 310.42 170.455 286.884 170.455 286.884Z" fill="#EB3333"/>
<path d="M278.344 381.695C280.342 307.978 313.197 287.55 326.072 282.221L378.462 271.786C394.446 273.562 462.598 293.99 481.467 298.652C493.455 301.539 493.011 325.075 499.005 363.932C503.888 395.461 506.774 421.884 509.66 465.848C512.102 502.706 515.21 544.449 508.55 596.629C425.525 621.941 346.051 634.153 284.337 586.859C285.669 576.423 279.454 490.05 279.01 464.737C278.788 438.981 277.9 401.678 278.344 381.695Z" fill="#EB3333"/>
<path d="M495.675 300.207L429.299 279.113C429.299 279.113 423.749 296.432 411.317 329.738C398.886 363.044 399.552 383.471 403.326 439.425C407.1 495.157 408.21 615.058 413.537 665.017C438.401 666.127 506.33 646.365 526.754 618.832C526.754 618.832 519.65 517.805 516.542 460.741C513.212 403.677 524.978 313.751 495.675 300.207Z" fill="#EB3333"/>
<path d="M495.675 300.207L429.299 279.113C429.299 279.113 423.749 296.432 411.317 329.738C398.886 363.044 399.552 383.471 403.326 439.425C407.1 495.157 408.21 615.058 413.537 665.017C438.401 666.127 506.33 646.365 526.754 618.832C526.754 618.832 519.65 517.805 516.542 460.741C513.212 403.677 524.978 313.751 495.675 300.207Z" fill="#EB3333"/>
<path d="M355.153 281.333C333.398 292.213 320.3 318.636 318.08 353.718C315.86 388.8 308.091 458.964 306.981 485.387C301.653 600.403 295.659 631.267 295.659 631.267C284.781 625.716 271.462 619.055 269.464 603.29C271.906 578.643 273.46 484.721 273.682 462.739C273.904 440.757 275.014 389.91 275.902 363.266C276.79 336.399 283.227 302.649 305.649 284.442C328.736 276.892 354.265 275.56 354.265 275.56L355.153 281.333Z" fill="#EB3333"/>
<path d="M355.153 281.333C333.398 292.213 320.3 318.636 318.08 353.718C315.86 388.8 308.091 458.964 306.981 485.387C301.653 600.403 295.659 631.267 295.659 631.267C284.781 625.716 271.462 619.055 269.464 603.29C271.906 578.643 273.46 484.721 273.682 462.739C273.904 440.757 275.014 389.91 275.902 363.266C276.79 336.399 283.227 302.649 305.649 284.442C328.736 276.892 354.265 275.56 354.265 275.56L355.153 281.333Z" fill="#EB3333"/>
<path d="M316.526 373.924C317.192 348.167 327.626 301.317 354.265 289.549C355.597 285.996 355.153 281.333 355.153 281.333L353.599 268.233C353.599 268.233 342.278 273.118 331.178 281.777C320.078 290.659 301.653 317.082 298.323 337.287C309.423 325.963 315.638 342.172 316.526 373.924Z" fill="#EB3333"/>
<path d="M316.526 373.924C317.192 348.167 327.626 301.317 354.265 289.549C355.597 285.996 355.153 281.333 355.153 281.333L353.599 268.233C353.599 268.233 342.278 273.118 331.178 281.777C320.078 290.659 301.653 317.082 298.323 337.287C309.423 325.963 315.638 342.172 316.526 373.924Z" fill="#EB3333"/>
<path d="M425.747 253.8C430.409 236.259 449.944 219.384 459.49 204.508C468.592 190.297 474.363 179.195 474.807 164.985C475.029 156.547 470.812 144.779 465.04 141.893C475.029 111.695 453.274 95.0426 441.286 90.8238C436.625 89.2696 429.077 86.8271 424.637 84.3847C418.199 80.8321 417.089 75.5031 412.205 70.3962C403.548 61.5147 388.008 59.9604 380.904 71.2844C375.577 62.6249 367.141 62.1808 357.151 63.7351C347.605 65.2894 342.5 72.6166 342.722 81.2762C330.512 72.8387 317.636 80.8321 315.638 88.3814C314.306 93.9324 314.972 98.8172 310.755 103.48C306.093 108.809 298.323 107.921 296.325 103.036C294.327 110.807 296.769 117.246 305.427 117.691C302.097 121.687 300.765 127.46 301.653 132.789C302.985 140.117 309.867 145.001 315.638 145.667C316.082 150.108 315.86 154.105 318.302 158.324C320.522 162.32 323.63 166.095 327.626 168.537C340.28 176.087 354.487 179.417 368.473 183.636C374.023 185.412 379.35 186.967 384.9 188.743C385.788 188.965 390.894 189.853 391.338 190.741C391.116 190.741 425.747 253.8 425.747 253.8Z" fill="#EB3333"/>
<path d="M449.5 232.707C436.181 238.924 428.633 230.042 428.633 230.042L427.079 261.35L426.413 295.322C426.413 295.322 390.894 333.29 342.722 331.07C340.28 320.19 343.832 301.317 351.601 291.991L352.711 264.236C352.711 264.236 339.836 263.348 331.622 261.35C317.858 258.019 307.203 246.029 304.539 230.486C301.875 214.278 303.207 188.299 308.313 169.648C309.645 164.985 310.533 160.1 310.533 154.993C310.311 141.893 313.419 134.566 317.858 123.908C334.286 113.028 378.018 114.582 409.319 137.896C400.662 154.105 403.548 171.868 417.089 180.75C415.979 186.079 413.981 199.401 422.639 200.067C428.855 200.511 430.187 192.518 437.291 186.301C444.616 179.861 459.712 179.417 464.596 190.297C471.477 205.174 463.93 225.824 449.5 232.707Z" fill="#EB3333"/>
<path d="M352.711 264.236C375.133 263.792 392.226 262.904 405.102 248.027C413.315 238.702 421.085 222.937 421.085 222.937C421.085 222.937 416.867 242.254 408.432 254.911C401.994 264.68 387.342 271.786 352.489 271.564L352.711 264.236Z" fill="#EB3333"/>
<path d="M370.249 177.419C370.027 180.972 372.469 184.08 376.021 184.302C379.572 184.524 382.458 181.86 382.68 178.307C382.902 174.755 380.46 171.646 376.908 171.424C373.579 171.202 370.693 173.866 370.249 177.419Z" fill="#EB3333"/>
<path d="M376.687 159.434L389.562 167.649C391.782 163.875 390.672 158.99 387.12 156.769C383.568 154.327 378.906 155.659 376.687 159.434Z" fill="#EB3333"/>
<path d="M318.524 156.769L333.62 154.105C332.954 149.886 329.18 147 324.962 147.666C320.966 148.554 318.08 152.551 318.524 156.769Z" fill="#EB3333"/>
<path d="M319.856 170.98C319.634 174.533 322.076 177.641 325.628 177.863C329.18 178.085 332.066 175.421 332.288 171.868C332.51 168.315 330.068 165.207 326.516 164.985C323.186 164.763 320.3 167.427 319.856 170.98Z" fill="#EB3333"/>
<path d="M325.85 195.404L346.717 207.172L357.373 165.207C349.603 161.654 337.394 180.306 325.85 195.404Z" fill="#EB3333"/>
<path d="M367.807 219.384L341.168 222.493C341.834 230.042 348.271 235.593 355.597 234.705C363.145 233.817 368.473 226.934 367.807 219.384Z" fill="#EB3333"/>
<path d="M364.255 223.159C365.365 223.159 366.475 223.381 367.585 223.603C366.253 229.376 361.813 233.817 355.819 234.483C354.265 234.705 352.933 234.483 351.601 234.261C351.601 228.266 357.373 223.381 364.255 223.159Z" fill="#EB3333"/>
<path d="M400.884 383.249C402.438 332.624 423.083 328.184 429.521 344.17C445.282 315.305 443.728 291.769 442.618 282.443C436.847 274.228 434.627 269.121 432.629 266.235C429.965 262.238 427.079 261.572 427.079 261.572L426.413 274.228C426.413 274.228 424.859 289.105 411.539 308.866C401.994 323.299 399.774 340.84 400.884 383.249Z" fill="#EB3333"/>
<path d="M400.884 383.249C402.438 332.624 423.083 328.184 429.521 344.17C445.282 315.305 443.728 291.769 442.618 282.443C436.847 274.228 434.627 269.121 432.629 266.235C429.965 262.238 427.079 261.572 427.079 261.572L426.413 274.228C426.413 274.228 424.859 289.105 411.539 308.866C401.994 323.299 399.774 340.84 400.884 383.249Z" fill="#EB3333"/>
<path d="M482.355 295.988C522.536 308.2 540.517 314.861 553.615 341.062C566.712 367.04 589.578 431.654 602.231 470.733C613.109 504.26 619.103 534.902 611.777 550.222L533.414 524.688L491.901 423.216C491.901 423.216 465.04 360.379 482.355 295.988Z" fill="#EB3333"/>
<path d="M535.189 494.491C529.418 493.825 523.646 494.713 518.318 492.714C515.654 491.826 512.99 490.272 512.102 487.829C510.77 484.499 513.212 480.946 515.654 478.504C522.536 471.621 531.638 467.402 541.183 465.404C560.053 461.407 578.7 464.96 595.572 473.841C605.339 479.17 617.549 486.275 618.215 498.931C618.437 502.706 617.549 506.481 618.659 510.255C619.325 512.698 621.101 514.696 621.767 517.139C622.655 519.359 622.655 521.579 622.877 523.8C623.099 526.464 623.099 529.351 622.211 531.793C621.545 533.348 620.435 534.902 619.769 536.456C618.659 538.898 618.659 541.563 617.993 544.227C616.439 549.334 610.889 555.329 606.227 550.222C602.009 545.56 600.455 539.12 597.791 533.57C594.684 527.13 588.468 522.246 582.918 518.027C575.37 512.254 566.934 507.813 558.277 503.594C551.617 500.264 544.957 497.377 537.853 495.601C536.965 494.713 536.077 494.713 535.189 494.491Z" fill="#EB3333"/>
<path d="M505.886 469.178C513.212 478.06 535.855 480.724 551.617 485.165C567.378 489.606 586.914 497.155 597.569 513.586C607.115 528.019 617.105 540.009 612.443 551.555C609.113 559.326 591.132 563.545 570.042 563.767C548.953 563.989 530.084 544.672 507.884 531.349C488.793 519.803 480.135 514.474 480.135 514.474L505.886 469.178Z" fill="#EB3333"/>
<path d="M479.247 481.834C486.129 474.729 487.239 467.624 497.451 461.407C507.662 455.19 514.322 455.412 525.2 449.639C536.077 443.866 544.957 440.757 553.393 443.2C561.829 445.642 560.497 450.527 554.281 454.524C548.065 458.52 537.409 464.071 530.084 469.622C522.758 475.173 515.432 478.504 515.654 487.83C515.876 497.377 517.43 516.695 519.872 532.681C522.314 548.446 525.644 561.324 524.534 563.101C523.424 564.877 516.542 565.765 512.324 556.884C507.884 548.002 501.891 515.806 501.891 515.806C501.891 515.806 499.227 538.232 498.339 553.775C497.451 569.318 497.007 581.086 496.785 584.416C496.341 587.747 485.463 585.305 483.465 573.759C481.467 562.213 483.021 527.575 483.021 527.575C483.021 527.575 474.141 543.561 468.592 553.775C463.042 563.989 455.938 577.977 453.718 581.53C451.498 585.083 444.394 579.088 445.948 569.762C447.502 560.436 458.824 537.566 458.824 537.566C458.824 537.566 444.838 552.887 442.174 554.441C439.732 555.995 431.963 554.885 434.405 544.671C435.959 537.788 440.398 533.348 451.498 520.025C462.82 506.703 462.598 501.152 465.928 495.157C470.59 487.163 474.141 487.163 479.247 481.834Z" fill="#EB3333"/>
<path d="M507.884 486.719C496.563 492.048 485.241 487.163 483.687 484.277C484.353 492.27 500.337 496.489 507.884 486.719Z" fill="#EB3333"/>
<path d="M434.183 550.667C435.293 551.999 438.623 552.443 441.286 550C444.172 547.558 451.054 539.343 454.162 535.568C457.27 531.793 468.148 518.471 468.148 518.471L458.38 537.566C458.38 537.566 444.394 552.887 441.73 554.441C440.176 555.773 435.293 555.329 434.183 550.667Z" fill="#EB3333"/>
<path d="M246.821 96.5968C246.377 96.1528 245.711 95.7087 245.045 95.7087C244.379 95.7087 243.713 95.9307 243.047 96.3748L233.501 104.368C232.835 104.812 232.613 105.478 232.613 106.145C232.613 106.811 232.835 107.477 233.279 108.143L239.717 115.692C240.161 116.136 240.827 116.58 241.493 116.58C242.159 116.58 242.825 116.358 243.491 115.914L253.036 107.921C253.48 107.477 253.924 106.811 253.924 106.145C253.924 105.478 253.702 104.812 253.258 104.146L246.821 96.5968ZM211.968 55.5196C211.524 55.0756 210.858 54.6315 210.192 54.6315C209.526 54.6315 208.86 54.8535 208.194 55.2976L198.648 63.291C198.204 63.7351 197.76 64.4012 197.76 65.0673C197.76 65.7334 197.982 66.3995 198.426 67.0657L226.175 99.7054C226.619 100.149 227.285 100.594 227.951 100.594C228.617 100.594 229.283 100.372 229.949 99.9274L239.495 91.934C239.939 91.49 240.383 90.8238 240.383 90.1577C240.383 89.4916 240.161 88.8255 239.717 88.1594L211.968 55.5196Z" fill="#EB3333"/>
<path d="M274.792 67.5097C274.57 66.8436 274.348 66.1775 273.682 65.7334C273.016 65.2894 272.35 65.0673 271.684 65.2894L259.474 67.2877C258.808 67.5097 258.142 67.7318 257.698 68.3979C257.254 69.064 257.032 69.7301 257.254 70.3962L258.808 80.166C259.03 80.8321 259.252 81.4982 259.918 81.9423C260.584 82.3864 261.25 82.6084 261.916 82.3864L274.126 80.388C274.792 80.166 275.458 79.9439 275.902 79.2778C276.346 78.6117 276.568 77.9456 276.346 77.2795L274.792 67.5097ZM265.912 14.2204C265.69 13.5543 265.468 12.8882 264.802 12.4441C264.136 12 263.47 12 262.804 12L250.595 13.9984C249.929 14.2204 249.263 14.4424 248.819 15.1085C248.375 15.7747 248.153 16.4408 248.375 17.1069L255.256 59.2943C255.478 59.9604 255.7 60.6265 256.366 61.0706C257.032 61.5147 257.698 61.7367 258.364 61.5147L270.574 59.5163C271.24 59.2943 271.906 59.0723 272.35 58.4061C272.794 57.74 273.016 57.0739 272.794 56.4078L265.912 14.2204Z" fill="#EB3333"/>
<path d="M274.792 67.5097C274.57 66.8436 274.348 66.1775 273.682 65.7334C273.016 65.2894 272.35 65.0673 271.684 65.2894L259.474 67.2877C258.808 67.5097 258.142 67.7318 257.698 68.3979C257.254 69.064 257.032 69.7301 257.254 70.3962L258.808 80.166C259.03 80.8321 259.252 81.4982 259.918 81.9423C260.584 82.3864 261.25 82.6084 261.916 82.3864L274.126 80.388C274.792 80.166 275.458 79.9439 275.902 79.2778C276.346 78.6117 276.568 77.9456 276.346 77.2795L274.792 67.5097ZM265.912 14.2204C265.69 13.5543 265.468 12.8882 264.802 12.4441C264.136 12 263.47 12 262.804 12L250.595 13.9984C249.929 14.2204 249.263 14.4424 248.819 15.1085C248.375 15.7747 248.153 16.4408 248.375 17.1069L255.256 59.2943C255.478 59.9604 255.7 60.6265 256.366 61.0706C257.032 61.5147 257.698 61.7367 258.364 61.5147L270.574 59.5163C271.24 59.2943 271.906 59.0723 272.35 58.4061C272.794 57.74 273.016 57.0739 272.794 56.4078L265.912 14.2204Z" fill="#EB3333"/>
</g>
<defs>
<clipPath id="clip0">
<rect width="552" height="478" fill="white"/>
</clipPath>
</defs>
</svg>
