<svg width="552" height="478" fill="none" xmlns="http://www.w3.org/2000/svg"><g clip-path="url(#clip0)" fill="#EB3333"><path d="M331.844 680.115s-46.397-16.653-61.714-41.299c1.332-27.311 3.996-76.159 4.44-75.937l87.687 9.103-18.425 76.826-11.988 31.307z"/><path d="M297.879 632.155c-8.214-14.211-15.317-48.405-15.317-59.951h236.866s4.44 51.291 3.996 71.941v.222c-4.884 12.212-16.65 19.761-43.067 31.307-49.06 21.316-115.88 17.986-148.513 4.663v-11.102s-25.751-22.87-33.965-37.08zM236.831 340.396c-38.627 33.75-45.731 40.633-45.731 40.633-10.655-44.186-19.313-75.271-20.867-93.923-1.332-18.873-25.529-59.95-25.529-59.95-19.314 5.107-34.631 35.304-24.641 66.611 7.103 22.648-6.438 77.714 7.547 150.543 7.326 38.191 28.416 47.072 69.262 23.98 28.637-16.209 80.584-53.733 80.584-53.733l39.292-130.781c-33.077 5.773-42.178 23.758-79.917 56.62z"/><path d="M310.089 283.11c-18.648 3.774-31.523 13.322-52.835 34.638-21.311 21.315-66.376 62.171-66.376 62.171s11.1 27.754 1.998 63.059c-7.991 30.641-20.423 35.97-20.423 35.97s9.768 2.886 35.519-13.766c25.973-16.653 83.247-57.731 83.247-57.731l18.87-124.341z"/><path d="M188.659 370.815s4.439 70.608-17.094 90.148c-21.755 19.539-35.519 6.661-35.519 6.661s1.11 19.983 14.208 19.317c13.097-.666 15.095.444 22.865.222 7.77-.222 19.757-1.332 25.307-16.653 16.206-31.307 10.212-72.162-1.11-97.031-3.552 1.999-3.552-3.552-8.657-2.664zM89.206 228.932c.444 12.656 5.55 21.316 7.991 27.755 9.99 25.312 15.54 22.204 25.53 41.743l20.867-54.177c9.102-15.987 1.998-23.092-12.21-26.423l-42.178 11.102zM212.412 206.95c-13.986 9.326-33.077 5.551-42.623-8.437-9.324-13.989-5.55-33.084 8.436-42.632 13.985-9.325 33.077-5.551 42.622 8.438 9.324 14.21 5.55 33.306-8.435 42.631z"/><path d="M200.646 196.292c-5.772-2.886-20.645-10.213-35.741-17.763-.666 6.661.888 13.767 5.106 19.762 9.324 13.988 28.415 17.763 42.623 8.437 5.328-3.552 9.101-8.437 11.321-13.988-5.105 6.883-11.765 9.325-23.309 3.552z"/><path d="M174.451 188.299l-1.554-24.646c-16.871 19.095-45.509 42.853-69.04 56.398l.666 9.769c16.206-4.885 44.621-22.426 69.928-41.521z"/><path d="M189.102 209.615l-14.429-1.11-27.971 18.429c-12.654 8.215-28.415 9.325-41.957 2.886 19.092-6.661 46.841-24.424 69.928-41.743l14.429 21.538z"/><path d="M141.374 207.394v.666c0 1.111.888 2.443 1.998 3.109l5.106 2.442c1.11.444 1.11 1.555.222 1.999l-.666.444c-.888.666-2.664.666-3.552.222l-5.106-2.443c-1.11-.444-1.998-1.776-1.998-3.108v-.666c0-1.11.666-2.665 1.554-3.331l.666-.444c.888-.444 1.776-.222 1.776 1.11zM131.828 212.723v.666c0 1.111.888 2.443 1.998 3.109l5.106 2.442c1.11.444 1.11 1.555.222 1.999l-.666.444c-.888.666-2.664.666-3.552.222l-5.106-2.443c-1.11-.444-1.998-1.776-1.998-3.108v-.666c0-1.111.666-2.665 1.554-3.331l.666-.444c.888-.444 1.776 0 1.776 1.11zM122.283 218.274v.666c0 1.111.888 2.443 1.998 3.109l5.105 2.442c1.11.444 1.11 1.555.222 1.999l-.666.444c-.888.666-2.664.666-3.551.222l-5.106-2.443c-1.11-.444-1.998-1.776-1.998-3.108v-.666c0-1.111.666-2.665 1.554-3.331l.666-.444c.888-.444 1.776 0 1.776 1.11zM188.436 137.896c4.218 2.22 7.326 6.661 8.214 13.544 0 .667.222 1.333.222 2.221v2.664c0 1.555-.222 3.109-.222 4.663-.444 2.887-.888 5.773-1.776 8.66-2.442 7.771-6.438 15.32-11.543 21.315-2.664 3.109-5.55 5.551-8.436 7.772-6.438 4.441-12.654 5.107-17.316 3.108l15.984 7.994c5.772 2.664 13.098 2.22 19.313-1.999 2.886-1.998 5.772-4.44 8.214-7.327 5.328-5.995 9.546-13.766 11.988-21.76.888-2.886 1.554-5.773 1.776-8.659.222-1.555.222-3.109.222-4.663v-2.665c0-.666-.222-1.554-.222-2.22-1.11-6.661-4.884-11.546-9.99-14.432l-.444-.223c-.222 0-.444-.222-.666-.222l-15.318-7.771z"/><path d="M173.341 209.615c5.772 2.442 13.098 2.22 19.313-1.999 2.886-1.998 5.772-4.44 8.214-7.327l-17.759-9.326c-2.664 3.109-5.55 5.551-8.436 7.772-6.438 4.441-12.654 5.107-17.316 3.108l15.984 7.772z"/><path d="M170.899 140.783c-13.32 8.881-23.309 29.087-22.199 45.074.444 7.993 3.774 13.544 8.435 15.764 0 0 .222 0 .222.222 4.662 2.221 10.656 1.333 17.316-3.108 13.319-8.882 23.309-29.087 22.199-45.074-.444-7.994-3.774-13.322-8.436-15.765-4.661-2.22-10.877-1.554-17.537 2.887z"/><path d="M170.899 140.783c-13.32 8.881-23.309 29.087-22.199 45.074.444 7.993 3.774 13.544 8.435 15.764 0 0 .222 0 .222.222 4.662 2.221 10.656 1.333 17.316-3.108 13.319-8.882 23.309-29.087 22.199-45.074-.444-7.994-3.774-13.322-8.436-15.765-4.661-2.22-10.877-1.554-17.537 2.887z"/><path d="M131.606 74.615s3.33 28.199-15.761 67.056c-3.774 7.549-7.77 14.21-11.544 20.205-16.205 23.758-31.745 33.306-31.745 33.306 19.536-3.997 40.625-6.883 61.492-1.998 12.876 3.108 23.975 7.105 23.975 7.105 4.218 1.998 9.99 1.11 15.984-2.886 3.996-2.665 7.548-6.218 10.656-10.658a56.521 56.521 0 0 0 5.327-8.66c3.996-7.993 5.994-16.653 5.55-24.424-.444-7.105-3.33-12.212-7.547-14.433 0 0-9.99-6.439-20.202-14.876-16.871-13.323-27.527-31.752-36.185-49.737z"/><path d="M131.606 74.615s3.33 28.199-15.761 67.056c-3.774 7.549-7.77 14.21-11.544 20.205-16.205 23.758-31.745 33.306-31.745 33.306 19.536-3.997 40.625-6.883 61.492-1.998 12.876 3.108 23.975 7.105 23.975 7.105 4.218 1.998 9.99 1.11 15.984-2.886 3.996-2.665 7.548-6.218 10.656-10.658a56.521 56.521 0 0 0 5.327-8.66c3.996-7.993 5.994-16.653 5.55-24.424-.444-7.105-3.33-12.212-7.547-14.433 0 0-9.99-6.439-20.202-14.876-16.871-13.323-27.527-31.752-36.185-49.737z"/><path d="M104.079 161.876c-16.205 23.758-31.745 33.306-31.745 33.306 19.536-3.997 40.625-6.883 61.492-1.998 12.876 3.108 23.975 7.105 23.975 7.105 4.218 1.998 9.99 1.11 15.984-2.886 3.996-2.665 7.548-6.218 10.656-10.658-18.648-10.436-50.615-26.423-80.362-24.869z"/><path d="M74.998 55.076C61.234 64.4 48.803 78.834 39.48 95.265c-11.765 21.093-18.647 45.518-17.315 66.833 2.442 37.969 30.19 51.513 61.714 30.42 7.326-4.885 13.985-11.102 20.201-18.208 15.318-17.763 26.639-41.299 30.857-64.169.666-3.108 1.11-6.439 1.332-9.547.222-1.333.222-2.665.222-3.997 0-1.776.222-3.775.222-5.551 0-1.999 0-3.775-.222-5.551-2.22-37.969-29.747-51.513-61.492-30.42z"/><path d="M39.701 95.265c-11.765 21.093-18.647 45.518-17.315 66.833 2.442 37.969 30.19 51.513 61.714 30.42 7.326-4.885 13.985-11.102 20.201-18.208-5.328.889-15.54-1.776-13.541-7.549-5.55 6.439-11.544 11.99-17.982 16.209-9.102 5.995-17.76 8.882-25.085 8.438-6.216-.445-11.322-3.553-15.096-9.326-3.551-5.329-5.771-13.1-6.437-22.204-1.11-18.207 4.44-39.301 13.985-58.174 0 .222-2.664-.666-.444-6.44z"/><path d="M75.664 59.738c-13.986 9.326-26.417 24.869-35.297 42.188-9.767 18.873-15.095 39.967-13.985 58.174.666 9.104 2.886 16.653 6.437 22.204 3.774 5.551 8.88 8.659 15.096 9.326 7.326.666 15.983-2.221 25.085-8.438 6.438-4.219 12.432-9.77 17.982-16.209 1.998-2.442 4.218-4.885 5.993-7.549 3.33-4.663 6.66-9.548 9.324-14.655.666-1.11 1.11-2.22 1.776-3.108l2.664-5.329c2.886-6.217 5.328-12.656 7.326-19.096v-.222c1.332-4.218 2.22-8.437 2.886-12.656.444-3.108.888-5.995 1.11-8.881 0-1.333.222-2.443.222-3.775v-4.44c0-1.333 0-2.887-.222-4.22-.666-9.103-2.886-16.653-6.438-22.203-7.77-12.213-22.866-12.657-39.959-1.11z"/><path d="M75.664 59.738c-13.986 9.326-26.417 24.869-35.297 42.188-9.767 18.873-15.095 39.967-13.985 58.174.666 9.104 2.886 16.653 6.437 22.204 3.774 5.551 8.88 8.659 15.096 9.326 7.326.666 15.983-2.221 25.085-8.438 6.438-4.219 12.432-9.77 17.982-16.209 1.998-2.442 4.218-4.885 5.993-7.549 3.33-4.663 6.66-9.548 9.324-14.655.666-1.11 1.11-2.22 1.776-3.108l2.664-5.329c2.886-6.217 5.328-12.656 7.326-19.096v-.222c1.332-4.218 2.22-8.437 2.886-12.656.444-3.108.888-5.995 1.11-8.881 0-1.333.222-2.443.222-3.775v-4.44c0-1.333 0-2.887-.222-4.22-.666-9.103-2.886-16.653-6.438-22.203-7.77-12.213-22.866-12.657-39.959-1.11z"/><path d="M87.43 103.702l-18.648 36.859c8.436 4.662 18.87 10.213 25.974 21.315l1.997-2.664c3.33-4.663 6.66-9.548 9.324-14.655.666-1.11 1.11-2.22 1.776-3.108l2.664-5.329c2.886-6.217 5.328-12.656 7.326-19.096v-.222c.222-.888.444-1.776.888-2.886-13.32.888-31.301-10.214-31.301-10.214z"/><path d="M66.784 138.562c2.442 3.775 6.882 3.997 11.988.666h.222c7.77-5.329 13.763-17.097 13.098-26.644v-.222c-.222-2.443-.888-4.663-1.776-6.217-2.442-3.775-6.882-3.997-11.988-.667h-.222c-7.77 5.329-13.763 17.097-13.098 26.645v.222c.222 2.443.888 4.663 1.776 6.217zM136.046 197.625s-6.216-1.777-8.436-2.443c-5.327-1.11-9.323-3.108-13.097.888-1.332 1.333-2.22 3.775-3.774 4.885-1.776 1.11-5.106.666-7.326 1.11-2.442.444-4.662 1.555-6.216 3.775-.888 1.332-1.332 3.997-2.664 4.885-1.776 1.11-4.44.888-6.437 1.776-4.218 1.777-5.55 7.55-7.104 11.324-1.776 4.219-4.44 9.992-2.664 14.433 1.332 3.552 3.996 5.995 6.882 8.215 3.33 2.665 7.104 5.107 10.655 7.327 3.108 1.777 6.66.445 8.658-2.22 2.664-3.553 7.77-2.22 10.878-5.107 1.332-1.332 1.776-3.33 3.108-4.663 1.554-1.554 3.108-2.664 3.774-4.885 1.11-3.996-.888-8.437-1.776-12.212-.666-3.33.222-7.327 1.11-10.658.666-2.664 1.998-6.439 4.217-8.215.222-.444 10.212-8.215 10.212-8.215z"/><path d="M170.455 286.884c-.444-23.536.888-33.75.888-45.074 0-12.656-8.88-19.983-19.313-28.421-7.992-6.439-10.878-9.325-15.762-14.654-3.996-4.441-7.326 9.103-6.66 14.21.888 5.995 6.66 13.101 10.434 18.43 8.436 12.434-25.085 29.531-17.315 66.833 7.769 12.212 47.728-11.324 47.728-11.324zM278.344 381.695c1.998-73.717 34.853-94.145 47.728-99.474l52.39-10.435c15.984 1.776 84.136 22.204 103.005 26.866 11.988 2.887 11.544 26.423 17.538 65.28 4.883 31.529 7.769 57.952 10.655 101.916 2.442 36.858 5.55 78.601-1.11 130.781-83.025 25.312-162.499 37.524-224.213-9.77 1.332-10.436-4.883-96.809-5.327-122.122-.222-25.756-1.11-63.059-.666-83.042z"/><path d="M495.675 300.207l-66.376-21.094s-5.55 17.319-17.982 50.625c-12.431 33.306-11.765 53.733-7.991 109.687 3.774 55.732 4.884 175.633 10.211 225.592 24.864 1.11 92.793-18.652 113.217-46.185 0 0-7.104-101.027-10.212-158.091-3.33-57.064 8.436-146.99-20.867-160.534z"/><path d="M495.675 300.207l-66.376-21.094s-5.55 17.319-17.982 50.625c-12.431 33.306-11.765 53.733-7.991 109.687 3.774 55.732 4.884 175.633 10.211 225.592 24.864 1.11 92.793-18.652 113.217-46.185 0 0-7.104-101.027-10.212-158.091-3.33-57.064 8.436-146.99-20.867-160.534zM355.153 281.333c-21.755 10.88-34.853 37.303-37.073 72.385-2.22 35.082-9.989 105.246-11.099 131.669-5.328 115.016-11.322 145.88-11.322 145.88-10.878-5.551-24.197-12.212-26.195-27.977 2.442-24.647 3.996-118.569 4.218-140.551.222-21.982 1.332-72.829 2.22-99.473.888-26.867 7.325-60.617 29.747-78.824 23.087-7.55 48.616-8.882 48.616-8.882l.888 5.773z"/><path d="M355.153 281.333c-21.755 10.88-34.853 37.303-37.073 72.385-2.22 35.082-9.989 105.246-11.099 131.669-5.328 115.016-11.322 145.88-11.322 145.88-10.878-5.551-24.197-12.212-26.195-27.977 2.442-24.647 3.996-118.569 4.218-140.551.222-21.982 1.332-72.829 2.22-99.473.888-26.867 7.325-60.617 29.747-78.824 23.087-7.55 48.616-8.882 48.616-8.882l.888 5.773z"/><path d="M316.526 373.924c.666-25.757 11.1-72.607 37.739-84.375 1.332-3.553.888-8.216.888-8.216l-1.554-13.1s-11.321 4.885-22.421 13.544c-11.1 8.882-29.525 35.305-32.855 55.51 11.1-11.324 17.315 4.885 18.203 36.637z"/><path d="M316.526 373.924c.666-25.757 11.1-72.607 37.739-84.375 1.332-3.553.888-8.216.888-8.216l-1.554-13.1s-11.321 4.885-22.421 13.544c-11.1 8.882-29.525 35.305-32.855 55.51 11.1-11.324 17.315 4.885 18.203 36.637zM425.747 253.8c4.662-17.541 24.197-34.416 33.743-49.292 9.102-14.211 14.873-25.313 15.317-39.523.222-8.438-3.995-20.206-9.767-23.092 9.989-30.198-11.766-46.85-23.754-51.07-4.661-1.553-12.209-3.996-16.649-6.438-6.438-3.553-7.548-8.882-12.432-13.989-8.657-8.881-24.197-10.436-31.301.888-5.327-8.66-13.763-9.103-23.753-7.549-9.546 1.554-14.651 8.882-14.429 17.541-12.21-8.437-25.086-.444-27.084 7.105-1.332 5.551-.666 10.436-4.883 15.099-4.662 5.329-12.432 4.441-14.43-.444-1.998 7.771.444 14.21 9.102 14.655-3.33 3.996-4.662 9.769-3.774 15.098 1.332 7.328 8.214 12.212 13.985 12.878.444 4.441.222 8.438 2.664 12.657 2.22 3.996 5.328 7.771 9.324 10.213 12.654 7.55 26.861 10.88 40.847 15.099 5.55 1.776 10.877 3.331 16.427 5.107.888.222 5.994 1.11 6.438 1.998-.222 0 34.409 63.059 34.409 63.059z"/><path d="M449.5 232.707c-13.319 6.217-20.867-2.665-20.867-2.665l-1.554 31.308-.666 33.972s-35.519 37.968-83.691 35.748c-2.442-10.88 1.11-29.753 8.879-39.079l1.11-27.755s-12.875-.888-21.089-2.886c-13.764-3.331-24.419-15.321-27.083-30.864-2.664-16.208-1.332-42.187 3.774-60.838 1.332-4.663 2.22-9.548 2.22-14.655-.222-13.1 2.886-20.427 7.325-31.085 16.428-10.88 60.16-9.326 91.461 13.988-8.657 16.209-5.771 33.972 7.77 42.854-1.11 5.329-3.108 18.651 5.55 19.317 6.216.444 7.548-7.549 14.652-13.766 7.325-6.44 22.421-6.884 27.305 3.996 6.881 14.877-.666 35.527-15.096 42.41z"/><path d="M352.711 264.236c22.422-.444 39.515-1.332 52.391-16.209 8.213-9.325 15.983-25.09 15.983-25.09s-4.218 19.317-12.653 31.974c-6.438 9.769-21.09 16.875-55.943 16.653l.222-7.328zM370.249 177.419c-.222 3.553 2.22 6.661 5.772 6.883 3.551.222 6.437-2.442 6.659-5.995.222-3.552-2.22-6.661-5.772-6.883-3.329-.222-6.215 2.442-6.659 5.995zM376.687 159.434l12.875 8.215c2.22-3.774 1.11-8.659-2.442-10.88-3.552-2.442-8.214-1.11-10.433 2.665zM318.524 156.769l15.096-2.664c-.666-4.219-4.44-7.105-8.658-6.439-3.996.888-6.882 4.885-6.438 9.103zM319.856 170.98c-.222 3.553 2.22 6.661 5.772 6.883 3.552.222 6.438-2.442 6.66-5.995.222-3.553-2.22-6.661-5.772-6.883-3.33-.222-6.216 2.442-6.66 5.995zM325.85 195.404l20.867 11.768 10.656-41.965c-7.77-3.553-19.979 15.099-31.523 30.197zM367.807 219.384l-26.639 3.109c.666 7.549 7.103 13.1 14.429 12.212 7.548-.888 12.876-7.771 12.21-15.321z"/><path d="M364.255 223.159c1.11 0 2.22.222 3.33.444-1.332 5.773-5.772 10.214-11.766 10.88-1.554.222-2.886 0-4.218-.222 0-5.995 5.772-10.88 12.654-11.102zM400.884 383.249c1.554-50.625 22.199-55.065 28.637-39.079 15.761-28.865 14.207-52.401 13.097-61.727-5.771-8.215-7.991-13.322-9.989-16.208-2.664-3.997-5.55-4.663-5.55-4.663l-.666 12.656s-1.554 14.877-14.874 34.638c-9.545 14.433-11.765 31.974-10.655 74.383z"/><path d="M400.884 383.249c1.554-50.625 22.199-55.065 28.637-39.079 15.761-28.865 14.207-52.401 13.097-61.727-5.771-8.215-7.991-13.322-9.989-16.208-2.664-3.997-5.55-4.663-5.55-4.663l-.666 12.656s-1.554 14.877-14.874 34.638c-9.545 14.433-11.765 31.974-10.655 74.383zM482.355 295.988c40.181 12.212 58.162 18.873 71.26 45.074 13.097 25.978 35.963 90.592 48.616 129.671 10.878 33.527 16.872 64.169 9.546 79.489l-78.363-25.534-41.513-101.472s-26.861-62.837-9.546-127.228z"/><path d="M535.189 494.491c-5.771-.666-11.543.222-16.871-1.777-2.664-.888-5.328-2.442-6.216-4.885-1.332-3.33 1.11-6.883 3.552-9.325 6.882-6.883 15.984-11.102 25.529-13.1 18.87-3.997 37.517-.444 54.389 8.437 9.767 5.329 21.977 12.434 22.643 25.09.222 3.775-.666 7.55.444 11.324.666 2.443 2.442 4.441 3.108 6.884.888 2.22.888 4.44 1.11 6.661.222 2.664.222 5.551-.666 7.993-.666 1.555-1.776 3.109-2.442 4.663-1.11 2.442-1.11 5.107-1.776 7.771-1.554 5.107-7.104 11.102-11.766 5.995-4.218-4.662-5.772-11.102-8.436-16.652-3.107-6.44-9.323-11.324-14.873-15.543-7.548-5.773-15.984-10.214-24.641-14.433-6.66-3.33-13.32-6.217-20.424-7.993-.888-.888-1.776-.888-2.664-1.11z"/><path d="M505.886 469.178c7.326 8.882 29.969 11.546 45.731 15.987 15.761 4.441 35.297 11.99 45.952 28.421 9.546 14.433 19.536 26.423 14.874 37.969-3.33 7.771-21.311 11.99-42.401 12.212-21.089.222-39.958-19.095-62.158-32.418-19.091-11.546-27.749-16.875-27.749-16.875l25.751-45.296z"/><path d="M479.247 481.834c6.882-7.105 7.992-14.21 18.204-20.427 10.211-6.217 16.871-5.995 27.749-11.768 10.877-5.773 19.757-8.882 28.193-6.439 8.436 2.442 7.104 7.327.888 11.324-6.216 3.996-16.872 9.547-24.197 15.098-7.326 5.551-14.652 8.882-14.43 18.208.222 9.547 1.776 28.865 4.218 44.851 2.442 15.765 5.772 28.643 4.662 30.42-1.11 1.776-7.992 2.664-12.21-6.217-4.44-8.882-10.433-41.078-10.433-41.078s-2.664 22.426-3.552 37.969c-.888 15.543-1.332 27.311-1.554 30.641-.444 3.331-11.322.889-13.32-10.657-1.998-11.546-.444-46.184-.444-46.184s-8.88 15.986-14.429 26.2c-5.55 10.214-12.654 24.202-14.874 27.755-2.22 3.553-9.324-2.442-7.77-11.768 1.554-9.326 12.876-32.196 12.876-32.196s-13.986 15.321-16.65 16.875c-2.442 1.554-10.211.444-7.769-9.77 1.554-6.883 5.993-11.323 17.093-24.646 11.322-13.322 11.1-18.873 14.43-24.868 4.662-7.994 8.213-7.994 13.319-13.323z"/><path d="M507.884 486.719c-11.321 5.329-22.643.444-24.197-2.442.666 7.993 16.65 12.212 24.197 2.442zM434.183 550.667c1.11 1.332 4.44 1.776 7.103-.667 2.886-2.442 9.768-10.657 12.876-14.432 3.108-3.775 13.986-17.097 13.986-17.097l-9.768 19.095s-13.986 15.321-16.65 16.875c-1.554 1.332-6.437.888-7.547-3.774zM246.821 96.597c-.444-.444-1.11-.888-1.776-.888-.666 0-1.332.222-1.998.666l-9.546 7.993c-.666.444-.888 1.11-.888 1.777 0 .666.222 1.332.666 1.998l6.438 7.549c.444.444 1.11.888 1.776.888.666 0 1.332-.222 1.998-.666l9.545-7.993c.444-.444.888-1.11.888-1.776 0-.667-.222-1.333-.666-1.999l-6.437-7.55zM211.968 55.52c-.444-.444-1.11-.889-1.776-.889-.666 0-1.332.222-1.998.667l-9.546 7.993c-.444.444-.888 1.11-.888 1.776 0 .666.222 1.333.666 1.999l27.749 32.64c.444.443 1.11.888 1.776.888.666 0 1.332-.222 1.998-.667l9.546-7.993c.444-.444.888-1.11.888-1.776 0-.666-.222-1.332-.666-1.999l-27.749-32.64zM274.792 67.51c-.222-.666-.444-1.333-1.11-1.777-.666-.444-1.332-.666-1.998-.444l-12.21 1.999c-.666.222-1.332.444-1.776 1.11-.444.666-.666 1.332-.444 1.998l1.554 9.77c.222.666.444 1.332 1.11 1.776.666.444 1.332.666 1.998.444l12.21-1.998c.666-.222 1.332-.444 1.776-1.11.444-.666.666-1.332.444-1.999l-1.554-9.77zm-8.88-53.29c-.222-.666-.444-1.332-1.11-1.776-.666-.444-1.332-.444-1.998-.444l-12.209 1.998c-.666.222-1.332.444-1.776 1.11-.444.667-.666 1.333-.444 1.999l6.881 42.187c.222.666.444 1.333 1.11 1.777.666.444 1.332.666 1.998.444l12.21-1.999c.666-.222 1.332-.444 1.776-1.11.444-.666.666-1.332.444-1.998l-6.882-42.188z"/><path d="M274.792 67.51c-.222-.666-.444-1.333-1.11-1.777-.666-.444-1.332-.666-1.998-.444l-12.21 1.999c-.666.222-1.332.444-1.776 1.11-.444.666-.666 1.332-.444 1.998l1.554 9.77c.222.666.444 1.332 1.11 1.776.666.444 1.332.666 1.998.444l12.21-1.998c.666-.222 1.332-.444 1.776-1.11.444-.666.666-1.332.444-1.999l-1.554-9.77zm-8.88-53.29c-.222-.666-.444-1.332-1.11-1.776-.666-.444-1.332-.444-1.998-.444l-12.209 1.998c-.666.222-1.332.444-1.776 1.11-.444.667-.666 1.333-.444 1.999l6.881 42.187c.222.666.444 1.333 1.11 1.777.666.444 1.332.666 1.998.444l12.21-1.999c.666-.222 1.332-.444 1.776-1.11.444-.666.666-1.332.444-1.998l-6.882-42.188z"/></g><defs><clipPath id="clip0"><path fill="#fff" d="M0 0h552v478H0z"/></clipPath></defs></svg>