<svg width="21" height="22" fill="none" xmlns="http://www.w3.org/2000/svg"><path d="M19.938 22c-.17-.089-.358-.16-.506-.276-.273-.215-.327-.543-.331-.88a8.932 8.932 0 0 0-.583-3.12c-.824-2.157-2.24-3.744-4.219-4.787-.121-.066-.202-.033-.305.028-2.329 1.4-4.658 1.394-6.987 0a.339.339 0 0 0-.278-.014c-2.62 1.4-4.21 3.598-4.712 6.635a6.46 6.46 0 0 0-.099 1.137c.014.65-.22 1.095-.842 1.272H.852c-.698-.248-.869-.496-.85-1.272.013-.445.035-.89.102-1.33.529-3.429 2.209-6.049 5.048-7.86.054-.032.103-.074.162-.117-.036-.051-.054-.084-.077-.117-1.061-1.445-1.536-3.078-1.393-4.898C4.073 3.448 6.138.917 8.893.229 9.327.122 9.77.075 10.213 0h.583c.3.042.605.08.905.136 4.569.851 6.938 6.279 4.55 10.433-.17.3-.37.58-.559.875l.134.09a10.465 10.465 0 0 1 3.364 3.27c1.214 1.862 1.819 3.926 1.81 6.18 0 .216-.09.478-.229.632-.152.178-.407.258-.618.384h-.215zm-9.437-10.003c2.633.004 4.774-2.218 4.783-4.97.01-2.76-2.127-5.006-4.766-5.01C7.89 2.012 5.744 4.239 5.74 6.986c-.013 2.77 2.119 5.006 4.762 5.01z" fill="#fff"/></svg>