<svg width="18" height="22" fill="none" xmlns="http://www.w3.org/2000/svg"><path d="M8.26 0h.917c.05.014.1.037.151.041 1.943.252 3.53 1.852 3.75 3.8.04.362.04.724.063 1.104.537 0 1.064-.009 1.59 0 1.092.019 2.031.89 2.104 1.976.078 1.196.124 2.392.184 3.593.087 1.815.174 3.63.257 5.445.06 1.251.123 2.503.165 3.754a2.161 2.161 0 0 1-1.5 2.172c-.128.042-.26.078-.389.115H1.894c-.05-.014-.096-.037-.147-.046C.812 21.72.212 21.138.042 20.19c-.078-.422-.027-.867-.009-1.302.11-2.466.23-4.927.348-7.388.074-1.518.129-3.035.23-4.552.064-.916.577-1.544 1.434-1.86.257-.097.55-.12.83-.133.476-.023.958-.005 1.448-.005v-.578a4.356 4.356 0 0 1 2.8-4.056C7.486.17 7.88.101 8.26 0zm.458 20.533h6.463c.5 0 .802-.307.788-.802-.004-.252-.018-.504-.027-.756-.115-2.48-.234-4.96-.353-7.439-.069-1.457-.133-2.915-.211-4.372-.027-.527-.32-.784-.843-.784l-3.438.014c-2.74.009-5.486.013-8.227.018-.509 0-.788.252-.82.752-.037.6-.055 1.205-.087 1.806-.165 3.556-.335 7.108-.5 10.665-.027.605.252.89.857.89 2.136.008 4.267.008 6.398.008zm2.92-15.597c.105-1.324-.298-2.401-1.462-3.07-1.068-.615-2.159-.555-3.167.16-.995.706-1.32 1.719-1.21 2.915 1.952-.005 3.887-.005 5.839-.005z" fill="#fff"/><path d="M8.741 12.334A4.4 4.4 0 0 1 4.43 8.942c-.092-.394.027-.715.339-.89.284-.16.673-.118.884.125.11.133.184.311.234.486.312 1.104 1.008 1.842 2.118 2.135 1.109.29 2.08-.013 2.882-.834.38-.394.6-.87.73-1.402.137-.56.742-.784 1.182-.445.265.206.33.481.256.798a4.404 4.404 0 0 1-4.313 3.419z" fill="#fff"/></svg>