<svg width="23" height="20" fill="none" xmlns="http://www.w3.org/2000/svg"><path d="M15.813 0h1.078c.049.013.099.031.148.04a6.608 6.608 0 0 1 5.7 4.772c.122.425.176.871.261 1.304v.982c-.08.429-.14.862-.252 1.286-.44 1.63-1.32 3.027-2.367 4.33-1.397 1.741-3.037 3.237-4.798 4.607-1.244.974-2.524 1.898-3.903 2.679h-.315c-.184-.098-.373-.188-.548-.304-.732-.486-1.478-.96-2.188-1.477-2.228-1.612-4.303-3.393-6.033-5.54C1.59 11.429.741 10.085.296 8.53.162 8.062.1 7.576 0 7.098V6.071c.013-.058.036-.111.04-.17A6.599 6.599 0 0 1 4.968.224C5.36.125 5.76.071 6.154 0h.989c.058.013.112.031.17.04a6.602 6.602 0 0 1 3.688 1.58c.171.143.328.3.499.456l.14-.125A6.51 6.51 0 0 1 14.608.237c.395-.108.804-.161 1.204-.237zm5.754 6.513c-.009-.107-.023-.303-.04-.495-.32-3.022-3.298-5.143-6.276-4.473-1.294.29-2.336.964-3.118 2.026-.188.255-.426.393-.75.349-.256-.036-.413-.215-.561-.411C8.993 1.076 5.449.723 3.18 2.74 1.56 4.187 1.03 6.34 1.78 8.491c.503 1.451 1.375 2.683 2.376 3.83 2.09 2.389 4.578 4.309 7.224 6.045.117.076.184.036.274-.022 1.855-1.21 3.62-2.532 5.251-4.036 1.375-1.268 2.642-2.634 3.59-4.259.624-1.067 1.055-2.196 1.073-3.536z" fill="#fff"/></svg>