<svg width="29" height="29" fill="none" xmlns="http://www.w3.org/2000/svg"><path d="M14.5 8.524A5.982 5.982 0 0 0 8.524 14.5a5.982 5.982 0 0 0 5.976 5.976 5.982 5.982 0 0 0 5.976-5.976A5.982 5.982 0 0 0 14.5 8.524z" fill="#000"/><path d="M26.078 2.922A9.879 9.879 0 0 0 19.05 0h-9.1a9.879 9.879 0 0 0-7.028 2.922A9.879 9.879 0 0 0 0 9.95v9.1a9.879 9.879 0 0 0 2.922 7.028A9.879 9.879 0 0 0 9.95 29h9.1a9.879 9.879 0 0 0 7.028-2.922A9.88 9.88 0 0 0 29 19.05v-9.1a9.88 9.88 0 0 0-2.922-7.028zM14.5 22.175c-4.232 0-7.675-3.443-7.675-7.675 0-4.232 3.443-7.675 7.675-7.675 4.232 0 7.675 3.443 7.675 7.675 0 4.232-3.443 7.675-7.675 7.675zm8.502-14.976a.856.856 0 0 1-.6.249.855.855 0 0 1-.6-.249.854.854 0 0 1-.25-.6.854.854 0 0 1 .85-.85c.223 0 .442.09.6.248a.855.855 0 0 1 .25.601c0 .224-.091.443-.25.601z" fill="#000"/></svg>