<svg width="77" height="108" fill="none" xmlns="http://www.w3.org/2000/svg"><path d="M48.285 15.186h-5.454v10.909h1.658v-5.187h3.636v-1.551h-3.69v-2.62h3.797v-1.55h.053zM31.71 17.7c.802-.802 1.765-1.176 2.887-1.176 1.123 0 2.086.374 2.888 1.176.802.802 1.176 1.765 1.176 2.941 0 1.177-.374 2.14-1.176 2.941-.802.802-1.765 1.177-2.888 1.177-1.069 0-1.978-.375-2.78-1.177-.802-.802-1.23-1.764-1.23-2.994-.053-1.123.374-2.086 1.123-2.888zm-.963 7.166c1.123.962 2.407 1.443 3.797 1.443 1.604 0 2.94-.534 4.064-1.657 1.123-1.07 1.657-2.407 1.657-4.01 0-1.551-.534-2.888-1.657-4.011-1.123-1.123-2.46-1.658-4.01-1.658-1.551 0-2.942.535-4.065 1.658-1.122 1.123-1.71 2.406-1.71 3.957.053 1.764.695 3.208 1.924 4.278zM61.333 0c-1.818 0-3.261.642-4.384 1.978-.91 1.07-1.39 2.353-1.39 3.744 0 1.55.534 2.887 1.657 3.956 1.123 1.07 2.46 1.658 4.01 1.658 1.016 0 2.032-.267 2.995-.802V8.556c-.268.213-.535.427-.749.588-.267.16-.481.267-.695.374-.428.214-.909.267-1.497.267-1.123 0-2.086-.374-2.834-1.176-.749-.802-1.177-1.765-1.177-2.887 0-1.177.375-2.14 1.177-2.941a3.761 3.761 0 0 1 2.834-1.23c1.016 0 2.032.374 2.94 1.176V.802C63.259.267 62.297 0 61.334 0zm-9.945 11.122h1.657V.214h-1.657v10.908zm-6.631-9.41h.535c1.55 0 2.352.587 2.352 1.71 0 1.177-.748 1.765-2.245 1.765h-.642V1.71zm.748 4.972c1.123 0 2.032-.267 2.728-.856.695-.588 1.016-1.39 1.016-2.352 0-.91-.321-1.711-.963-2.3-.32-.427-.748-.641-1.23-.748a9.578 9.578 0 0 0-2.085-.214h-1.872v10.908h1.658V6.684h.748zM32.031 2.727c.802-.802 1.764-1.176 2.887-1.176s2.085.374 2.888 1.176c.802.802 1.176 1.765 1.176 2.941s-.374 2.139-1.176 2.941c-.803.802-1.765 1.176-2.888 1.176-1.07 0-1.978-.374-2.78-1.176-.803-.802-1.23-1.765-1.23-2.994-.054-1.123.32-2.086 1.123-2.888zm-1.016 7.165c1.122.963 2.406 1.444 3.796 1.444 1.604 0 2.941-.535 4.064-1.658 1.123-1.069 1.711-2.406 1.711-4.01 0-1.55-.535-2.887-1.658-4.01C37.806.588 36.468 0 34.918 0c-1.55 0-2.941.535-4.064 1.658-1.123 1.123-1.711 2.406-1.711 3.957.053 1.764.642 3.154 1.872 4.277zm-8.556-8.127h.588c1.497 0 2.3.534 2.3 1.657 0 1.177-.803 1.765-2.353 1.765h-.535V1.765zM26.256 5.4c.427-.535.641-1.23.641-1.979 0-1.016-.374-1.764-1.07-2.406-.641-.535-1.657-.802-3.154-.802h-1.925v10.908h1.71V6.631h.322l3.101 4.491h2.032L24.544 6.47c.695-.16 1.284-.481 1.712-1.07zm-7.38-3.636V.214h-6.63v1.55h2.513v9.358h1.658V1.765h2.46z" fill="#000"/><path d="M77 69.354c0-11.444-5.08-21.71-13.1-28.715v7.486l-.535-.642c-5.669-6.951-15.56-11.603-24.651-11.603-16.416 0-28.661 15.507-28.661 33.794 0 19.25 13.314 32.832 28.66 32.832 8.77 0 19.358-4.812 24.651-11.175l.535-.642v7.433C71.92 91.063 77 80.797 77 69.354z" fill="#DE8426"/><path d="M38.767 35.88c9.09 0 18.983 4.652 24.651 11.603l.535.642V40.64l-.107-.107c-6.684-6.15-15.72-9.678-24.811-9.678-10.267 0-20.052 4.01-27.485 11.282S0 59.033 0 69.3c0 20.747 16.63 38.233 38.928 38.233 8.93 0 17.539-3.209 24.864-9.304l.107-.107v-7.486l-.534.641c-5.24 6.364-15.828 11.176-24.651 11.176-15.347 0-28.661-13.582-28.661-32.832.053-18.288 12.298-33.741 28.714-33.741z" fill="#000"/></svg>