<svg width="36" height="86" viewBox="0 0 36 86" fill="none" xmlns="http://www.w3.org/2000/svg">
<path fill-rule="evenodd" clip-rule="evenodd" d="M30.8701 70.0421C29.0027 67.6855 26.8247 65.6971 24.5621 63.8683C30.6223 58.9596 35.9997 52.9409 35.9997 43C35.9997 37.4661 34.3218 32.6587 30.8701 28.3027C29.0029 25.9463 26.8247 23.9577 24.5614 22.1284C30.6466 17.1926 35.9995 11.1387 35.9995 1.25977C35.9995 0.564039 35.4166 0 34.6976 0C33.9786 0 33.3957 0.564039 33.3957 1.25977C33.3957 10.7453 27.907 16.2093 22.4987 20.5123C21.8326 20.0036 21.1652 19.5029 20.5017 19.0053L20.5015 19.0051C13.9612 14.1009 8.72555 10.1749 8.21122 2.51953H27.7938C27.6905 4.21753 27.3343 6.07123 26.3484 8.07879H15.2169C14.4979 8.07879 13.915 8.64283 13.915 9.33856C13.915 10.0343 14.4979 10.5983 15.2169 10.5983H24.8111C23.918 11.8191 22.7695 13.0898 21.291 14.411C20.763 14.8832 20.7302 15.6802 21.218 16.1913C21.7057 16.7023 22.5292 16.7339 23.0578 16.2621C26.7051 13.0023 30.4337 8.67088 30.4337 1.25993C30.4337 0.564207 29.8508 0.000167969 29.1318 0.000167969H6.86782C6.14882 0.000167969 5.56592 0.564207 5.56592 1.25993C5.56592 10.9932 12.0461 15.8524 18.9073 20.9973L18.9077 20.9976L18.9079 20.9978C22.4126 23.6261 26.0367 26.344 28.8037 29.836C31.8938 33.7353 33.3958 38.0416 33.3958 43.0002C33.3958 47.3438 32.2606 51.1482 29.9253 54.6303C27.8301 57.7545 25.0412 60.2275 22.499 62.2527C21.8328 61.744 21.1654 61.2433 20.5019 60.7457L20.1049 60.4479C25.8635 55.9516 30.4337 51.301 30.4337 43.0002C30.4337 33.2669 23.9536 28.4077 17.0923 23.2628L17.092 23.2625L17.0917 23.2623L17.0916 23.2623C13.587 20.634 9.96298 17.9161 7.1959 14.4241C4.1057 10.5246 2.60382 6.21837 2.60382 1.25977C2.60382 0.564039 2.02091 0 1.30191 0C0.582907 0 0 0.564039 0 1.25977C0 6.79366 1.6779 11.6011 5.12952 15.957C6.9968 18.3135 9.17515 20.3022 11.4382 22.1316C5.36577 27.0534 0 33.089 0 43C0 48.5341 1.67807 53.3418 5.12986 57.6979C6.99732 60.0545 9.17532 62.043 11.4379 63.8718C5.36403 68.7948 0 74.8324 0 84.7402C0 85.436 0.582907 86 1.30191 86C2.02091 86 2.60382 85.436 2.60382 84.7402C2.60382 75.2208 8.1088 69.7767 13.5006 65.4877C14.1668 65.9964 14.8343 66.4972 15.4977 66.9947C22.0383 71.899 27.2741 75.825 27.7884 83.4805H8.20584C8.30912 81.7825 8.66532 79.9288 9.6513 77.9212H20.7828C21.5018 77.9212 22.0847 77.3572 22.0847 76.6614C22.0847 75.9657 21.5018 75.4017 20.7828 75.4017H11.1886C12.0817 74.1809 13.2302 72.9102 14.7084 71.589C15.2365 71.117 15.2693 70.32 14.7813 69.8088C14.2936 69.2979 13.4701 69.2661 12.9417 69.7383C9.2944 72.9979 5.56592 77.3293 5.56592 84.7402C5.56592 85.436 6.14882 86 6.86782 86H29.1318C29.8508 86 30.4337 85.436 30.4337 84.7402C30.4337 75.0068 23.9534 70.1476 17.0927 65.0033L17.0927 65.0032C13.5879 62.3752 9.96393 59.6576 7.19608 56.1649C4.10587 52.2652 2.60382 47.9589 2.60382 43C2.60382 33.4768 8.11123 28.035 13.5008 23.7474C14.1668 24.2562 14.8343 24.7569 15.4977 25.2544L15.8951 25.5524C10.1325 30.0536 5.56609 34.7148 5.56609 43C5.56609 52.7334 12.0464 57.5926 18.9071 62.737L18.9072 62.737C22.4119 65.365 26.0359 68.0826 28.8037 71.5753C31.894 75.4749 33.3962 79.7813 33.3962 84.7401C33.3962 85.4358 33.9791 85.9998 34.6981 85.9998C35.4171 85.9998 36 85.4358 36 84.7401C36 79.206 34.3219 74.3982 30.8701 70.0421ZM18.0007 27.1479C20.7317 29.2518 23.1132 31.2857 24.8491 33.6616H11.1582C12.8988 31.2791 15.284 29.2424 18.0007 27.1479ZM26.3674 36.181H9.64106C8.85592 37.8193 8.35651 39.6415 8.21399 41.7402H27.7848C27.6433 39.6396 27.1493 37.8172 26.3674 36.181ZM8.21504 44.2598H27.7858C27.6437 46.3599 27.1453 48.1818 26.3615 49.819H9.63221C8.85037 48.1827 8.35651 46.3604 8.21504 44.2598ZM11.1504 52.3386C12.8865 54.7145 15.2677 56.7484 17.9988 58.8522C20.7166 56.7573 23.1038 54.7224 24.8451 52.3386H11.1504Z" fill="url(#paint0_linear)"/>
<defs>
<linearGradient id="paint0_linear" x1="39.0633" y1="184.857" x2="150.503" y2="73.4817" gradientUnits="userSpaceOnUse">
<stop stop-color="#10069F"/>
<stop offset="0.983396" stop-color="#F310ED"/>
<stop offset="1" stop-color="#F70EED"/>
</linearGradient>
</defs>
</svg>
