<svg width="50" height="54" viewBox="0 0 50 54" fill="none" xmlns="http://www.w3.org/2000/svg">
<path d="M32.723 53.4179C36.0059 53.4179 39.167 52.991 42.2063 52.1373C45.2456 51.2835 47.7925 50.1057 49.847 48.6039L45.4309 40.087C43.9483 41.1773 42.2222 42.0311 40.2524 42.6482C38.2827 43.2654 36.2812 43.574 34.2479 43.574C30.6685 43.574 27.481 42.8282 24.6852 41.3367C21.8895 39.8452 19.7185 37.7931 18.1724 35.1804H39.5853V29.3481H15.8532C15.6837 28.4841 15.599 27.7024 15.599 27.0029C15.599 26.2623 15.6837 25.5011 15.8532 24.7194H39.5853V18.8871H18.2041C19.7715 16.2538 21.9583 14.1811 24.7646 12.6691C27.571 11.157 30.7321 10.4009 34.2479 10.4009C36.2812 10.4009 38.2827 10.7095 40.2524 11.3267C42.2222 11.9439 43.9483 12.8079 45.4309 13.9188L49.847 5.40184C47.7713 3.87948 45.2191 2.69656 42.1904 1.8531C39.1617 1.00963 36.0059 0.587891 32.723 0.587891C28.7412 0.587891 24.95 1.3645 21.3494 2.91772C17.7488 4.47094 14.6036 6.62076 11.9137 9.36718C9.22386 12.1136 7.23294 15.2869 5.94097 18.8871H0V24.7194H4.60663C4.56427 25.0897 4.52191 25.4702 4.47955 25.8611C4.43719 26.252 4.41601 26.6326 4.41601 27.0029C4.41601 27.3732 4.43719 27.7692 4.47955 28.1909C4.52191 28.6127 4.56427 28.9984 4.60663 29.3481H0V35.1804H5.94097C7.23294 38.76 9.22915 41.9179 11.9296 44.654C14.63 47.3902 17.7805 49.5348 21.3811 51.0881C24.9817 52.6413 28.7623 53.4179 32.723 53.4179Z" fill="url(#paint0_linear_878_19474)"/>
<defs>
<linearGradient id="paint0_linear_878_19474" x1="54.0885" y1="114.146" x2="104.862" y2="-0.230816" gradientUnits="userSpaceOnUse">
<stop stop-color="#10069F"/>
<stop offset="0.983396" stop-color="#F310ED"/>
<stop offset="1" stop-color="#F70EED"/>
</linearGradient>
</defs>
</svg>
