<svg width="29" height="29" viewBox="0 0 29 29" fill="none" xmlns="http://www.w3.org/2000/svg">
<path fill-rule="evenodd" clip-rule="evenodd" d="M20.478 0.087C18.9317 0.0158182 18.4387 0 14.5 0C10.5613 0 10.0683 0.0171364 8.52336 0.087C6.97845 0.156864 5.92391 0.403364 5.00118 0.760591C4.03496 1.12573 3.15836 1.6965 2.43336 2.43468C1.69518 3.15836 1.12573 4.03364 0.761909 5.00118C0.403364 5.92391 0.158182 6.97845 0.0869999 8.52073C0.0158176 10.0696 0 10.5626 0 14.5C0 18.4387 0.0171356 18.9317 0.0869999 20.478C0.156864 22.0202 0.403364 23.0748 0.761909 23.9975C1.12574 24.9652 1.69613 25.8419 2.43336 26.5666C3.15836 27.3048 4.03496 27.8743 5.00118 28.2381C5.92391 28.5966 6.97845 28.8418 8.52073 28.913C10.0683 28.9842 10.5613 29 14.5 29C18.4387 29 18.9317 28.9829 20.478 28.913C22.0202 28.8431 23.0748 28.5966 23.9975 28.2381C24.9652 27.8742 25.8419 27.3038 26.5666 26.5666C27.3043 25.8425 27.8752 24.9662 28.2394 23.9988C28.5966 23.0761 28.8418 22.0215 28.913 20.4793C28.9842 18.9304 29 18.4374 29 14.5C29 10.5613 28.9829 10.0683 28.913 8.52336C28.8431 6.97846 28.5966 5.92391 28.2394 5.00118C27.8746 4.03374 27.3033 3.15746 26.5653 2.43336C25.8416 1.69584 24.9657 1.12499 23.9988 0.760591C23.0761 0.403364 22.0215 0.158182 20.4793 0.087H20.478ZM8.64068 2.697C10.1698 2.62714 10.6285 2.61264 14.5 2.61264C18.3715 2.61264 18.8302 2.62714 20.3593 2.697C21.7737 2.76159 22.5409 2.99755 23.0524 3.19659C23.7286 3.46023 24.2124 3.77264 24.7199 4.28014C25.2009 4.74816 25.5712 5.31792 25.8034 5.94764C26.0025 6.45909 26.2384 7.22627 26.303 8.64068C26.3729 10.1698 26.3874 10.6285 26.3874 14.5C26.3874 18.3715 26.3729 18.8302 26.303 20.3593C26.2384 21.7737 26.0025 22.5409 25.8034 23.0524C25.5714 23.6811 25.201 24.2519 24.7199 24.7199C24.2519 25.201 23.6811 25.5714 23.0524 25.8034C22.5409 26.0025 21.7737 26.2384 20.3593 26.303C18.8302 26.3729 18.3728 26.3874 14.5 26.3874C10.6272 26.3874 10.1698 26.3729 8.64068 26.303C7.22627 26.2384 6.45909 26.0025 5.94764 25.8034C5.27141 25.5398 4.78764 25.2274 4.28014 24.7199C3.799 24.2519 3.42859 23.6811 3.19659 23.0524C2.99755 22.5409 2.76159 21.7737 2.697 20.3593C2.62714 18.8302 2.61264 18.3715 2.61264 14.5C2.61264 10.6285 2.62714 10.1698 2.697 8.64068C2.76159 7.22627 2.99755 6.45909 3.19659 5.94764C3.46023 5.27141 3.77264 4.78764 4.28014 4.28014C4.74819 3.79909 5.31794 3.42887 5.94764 3.19659C6.45909 2.99755 7.22627 2.76159 8.64068 2.697ZM16.352 18.97C14.219 19.8579 11.7558 19.1131 10.4722 17.192C9.18847 15.271 9.44282 12.7103 11.0793 11.0793C12.463 9.69646 14.5434 9.28307 16.3507 10.0319C18.158 10.7806 19.3365 12.5442 19.3368 14.5005C19.3371 16.4567 18.1591 18.2206 16.352 18.97ZM19.7701 9.22991C17.8873 7.34709 15.143 6.61176 12.571 7.30092C9.99903 7.99008 7.99008 9.99903 7.30092 12.571C6.61176 15.143 7.34709 17.8873 9.22991 19.7701C12.1405 22.6807 16.8595 22.6807 19.7701 19.7701C22.6807 16.8595 22.6807 12.1405 19.7701 9.22991ZM5.394 8.15691C4.92707 7.71644 4.73654 7.05694 4.89664 6.43532C5.05675 5.8137 5.54216 5.32829 6.16377 5.16819C6.78539 5.00809 7.44489 5.19861 7.88536 5.66555C8.53954 6.35903 8.52368 7.44699 7.84957 8.12111C7.17545 8.79523 6.08748 8.81109 5.394 8.15691Z" fill="url(#paint0_linear)"/>
<defs>
<linearGradient id="paint0_linear" x1="-2.46763" y1="62.3356" x2="-29.2488" y2="-1.60453" gradientUnits="userSpaceOnUse">
<stop stop-color="#10069F"/>
<stop offset="0.983396" stop-color="#F310ED"/>
<stop offset="1" stop-color="#F70EED"/>
</linearGradient>
</defs>
</svg>
