<svg width="108" height="109" viewBox="0 0 108 109" fill="none" xmlns="http://www.w3.org/2000/svg">
<g opacity="0.228606">
<path fill-rule="evenodd" clip-rule="evenodd" d="M88.8266 25.7237L107.464 46.8622C108.021 47.4936 108.157 48.3932 107.811 49.1614C107.681 49.4509 107.491 49.7013 107.26 49.9012L107.255 49.9078C107.253 49.9109 107.251 49.914 107.248 49.9169L55.599 108.279C55.1933 108.738 54.6113 109 54 109C53.3887 109 52.8067 108.738 52.401 108.279L0.752071 49.9169C0.74995 49.9144 0.748067 49.9119 0.746197 49.9094C0.744111 49.9066 0.742041 49.9038 0.739674 49.9012C0.508833 49.7013 0.319031 49.4511 0.188862 49.1614C-0.156544 48.3932 -0.0208181 47.4936 0.535765 46.8622L19.1736 25.7237C19.5793 25.2635 20.1626 25 20.7752 25H87.2251C87.8376 25 88.4209 25.2635 88.8266 25.7237ZM73.9361 44.6337L83.435 29.2846H58.7134L73.9361 44.6337ZM69.4009 46.1385H38.5991L54 30.6097L69.4009 46.1385ZM34.0639 44.6339L49.2866 29.2848H24.565L34.0639 44.6339ZM20.4434 30.7537L29.9646 46.1385H6.87876L20.4434 30.7537ZM32.1742 50.4233H6.91467L49.6232 98.6834L32.1742 50.4233ZM58.4561 98.5939L70.6475 65.5211C71.0566 64.4111 70.4906 63.179 69.3834 62.769C68.2756 62.3585 67.0466 62.926 66.6377 64.036L54.0194 98.2667L36.7211 50.4233H101.085L58.4561 98.5939ZM87.5566 30.7537L78.0354 46.1385H101.121L87.5566 30.7537Z" fill="#F310ED"/>
<path d="M53.5 0C52.1195 0 51 0.93906 51 2.09752V12.9025C51 14.0609 52.1195 15 53.5 15C54.8805 15 56 14.0609 56 12.9025V2.09752C56 0.93906 54.8805 0 53.5 0Z" fill="#F310ED"/>
<path d="M73.3772 7.62286C72.5467 6.79238 71.2005 6.79238 70.3694 7.62286L62.6228 15.3695C61.7924 16.2 61.7924 17.5466 62.6228 18.3771C63.0384 18.7924 63.5826 19 64.1268 19C64.671 19 65.2152 18.7922 65.6306 18.3771L73.3772 10.6305C74.2076 9.79999 74.2076 8.45335 73.3772 7.62286Z" fill="#F310ED"/>
<path d="M45.3771 15.3695L37.6306 7.62286C36.8004 6.79238 35.4542 6.79238 34.6229 7.62286C33.7924 8.45335 33.7924 9.79999 34.6229 10.6305L42.3696 18.3771C42.7849 18.7924 43.3291 19 43.8734 19C44.4176 19 44.9618 18.7922 45.3771 18.3771C46.2076 17.5466 46.2076 16.2 45.3771 15.3695Z" fill="#F310ED"/>
</g>
</svg>
