<svg width="88" height="88" viewBox="0 0 88 88" fill="none" xmlns="http://www.w3.org/2000/svg">
<circle cx="44" cy="44" r="44" fill="#44426A"/>
<path fill-rule="evenodd" clip-rule="evenodd" d="M59.656 31.0537L67.7668 39.9243C68.0091 40.1893 68.0681 40.5668 67.9178 40.8892C67.8611 41.0106 67.7785 41.1157 67.6781 41.1996L67.6759 41.2024C67.6749 41.2037 67.6738 41.205 67.6727 41.2062L45.1959 65.6976C45.0193 65.8899 44.766 66 44.5 66C44.234 66 43.9807 65.89 43.8041 65.6976L21.3273 41.2062L21.3247 41.2031L21.3219 41.1996C21.2214 41.1157 21.1388 41.0107 21.0822 40.8892C20.9319 40.5668 20.9909 40.1893 21.2332 39.9243L29.3441 31.0537C29.5206 30.8606 29.7745 30.75 30.041 30.75H58.959C59.2256 30.75 59.4795 30.8606 59.656 31.0537ZM53.1759 38.9891L57.3097 32.548H46.5512L53.1759 38.9891ZM51.2023 39.6206H37.7977L44.5 33.1041L51.2023 39.6206ZM35.8241 38.9892L42.4488 32.5481H31.6903L35.8241 38.9892ZM29.8967 33.1645L34.0401 39.6206H23.9935L29.8967 33.1645ZM35.0017 41.4187H24.0092L42.5953 61.6707L35.0017 41.4187ZM46.4392 61.6332L51.7447 47.7544C51.9228 47.2886 51.6765 46.7715 51.1946 46.5995C50.7125 46.4272 50.1777 46.6654 49.9997 47.1312L44.5085 61.4959L36.9805 41.4187H64.9908L46.4392 61.6332ZM59.1033 33.1645L54.9599 39.6206H65.0065L59.1033 33.1645Z" fill="white"/>
<path d="M45.675 19C45.0262 19 44.5 19.4904 44.5 20.0954V25.738C44.5 26.3429 45.0262 26.8333 45.675 26.8333C46.3238 26.8333 46.85 26.3429 46.85 25.738V20.0954C46.85 19.4904 46.3238 19 45.675 19Z" fill="white"/>
<path d="M54.3582 21.6749C53.9245 21.2412 53.2215 21.2412 52.7874 21.6749L48.742 25.7203C48.3083 26.154 48.3083 26.8573 48.742 27.291C48.959 27.5079 49.2432 27.6163 49.5274 27.6163C49.8116 27.6163 50.0958 27.5078 50.3127 27.291L54.3582 23.2455C54.7918 22.8118 54.7918 22.1086 54.3582 21.6749Z" fill="white"/>
<path d="M42.6081 25.7203L38.5628 21.6749C38.1292 21.2412 37.4262 21.2412 36.992 21.6749C36.5583 22.1086 36.5583 22.8118 36.992 23.2455L41.0375 27.291C41.2544 27.5079 41.5386 27.6163 41.8228 27.6163C42.107 27.6163 42.3912 27.5078 42.6081 27.291C43.0418 26.8573 43.0418 26.154 42.6081 25.7203Z" fill="white"/>
</svg>
