<svg width="27" height="26" viewBox="0 0 27 26" fill="none" xmlns="http://www.w3.org/2000/svg">
<mask id="mask0" mask-type="alpha" maskUnits="userSpaceOnUse" x="0" y="0" width="27" height="26">
<path fill-rule="evenodd" clip-rule="evenodd" d="M0 0H27V26H0V0Z" fill="white"/>
</mask>
<g mask="url(#mask0)">
<path fill-rule="evenodd" clip-rule="evenodd" d="M0 13.0011C2.80154 14.0294 8.07271 14.7771 9.84121 16.4631C11.8612 18.3889 12.6871 24.8057 13.5323 26C13.9264 24.4249 14.5574 22.574 15.0631 20.9463C15.5077 19.5146 16.0882 17.4357 17.1368 16.4477C18.7873 14.892 24.2357 13.9571 27 13.008C26.4436 12.7363 25.1725 12.452 24.5025 12.2609C22.4229 11.668 18.4912 10.8406 17.1893 9.56343C16.0401 8.43571 15.6488 6.94543 15.0821 5.10171L13.5314 0C12.7481 1.11829 11.7811 7.71229 9.86058 9.53286C8.8155 10.5237 6.90408 11.0571 5.20337 11.5134C4.38134 11.7343 0.491283 12.7614 0 13.0011Z" fill="#2D255C"/>
</g>
</svg>
