<svg width="31" height="28" viewBox="0 0 31 28" fill="none" xmlns="http://www.w3.org/2000/svg">
<path fill-rule="evenodd" clip-rule="evenodd" d="M27.5923 0.27029C27.9464 0.121191 28.3222 0.0308752 28.705 0.00286689C29.1518 -0.0198598 29.5952 0.0929454 29.9775 0.326653C30.4328 0.613751 30.765 1.06156 30.9089 1.58222C31.0484 2.09668 31.0162 2.62673 30.8898 3.19276L26.4367 26.1324L26.395 26.2403C26.395 26.2403 26.1433 26.9107 25.4958 27.4347C24.853 27.9552 23.6365 28.2502 22.4356 27.7201L22.3044 27.6638L16.5419 23.2183L13.1036 26.3662L13.0619 26.3998C13.0619 26.3998 12.3213 26.9754 11.3994 26.6948L11.3912 26.6935C11.3356 26.6847 11.3042 26.6798 11.2587 26.6672C11.2531 26.6652 11.2474 26.6614 11.2412 26.6574C11.2328 26.6519 11.2237 26.646 11.2134 26.6432L11.273 26.6576C11.1705 26.6272 11.072 26.5845 10.9797 26.5305C10.802 26.4178 10.6541 26.2775 10.5277 26.1096C10.2665 25.781 10.0578 25.3505 9.84313 24.6621C9.61606 23.9427 8.94095 21.7226 8.40215 19.9508C8.07787 18.8844 7.80296 17.9803 7.70483 17.6636L1.88145 15.6909H1.87191C1.87191 15.6909 1.48552 15.5554 1.08004 15.2652C0.679331 14.9786 0.121203 14.4593 0.0138702 13.5935C-0.0517218 13.0814 0.12478 12.5861 0.344215 12.2624C0.529034 11.9905 0.76678 11.7592 1.04307 11.5824C1.41278 11.3276 1.76945 11.1868 1.88197 11.1456C2.40602 10.9234 8.33977 8.40716 14.3714 5.85379L23.175 2.12546C23.6242 1.93603 24.0452 1.75838 24.4355 1.59371C26.18 0.857718 27.3098 0.381025 27.5876 0.27029H27.5923ZM28.5845 2.46244C28.5845 2.46204 28.5845 2.46164 28.5846 2.46124V2.46244C28.5845 2.46244 28.5845 2.46244 28.5845 2.46244ZM28.5845 2.46244C28.5547 2.46244 28.5459 2.46244 28.5382 2.46536C28.5277 2.46933 28.5192 2.47871 28.4629 2.50081C28.3603 2.54159 26.5488 3.30068 24.0981 4.3356C21.9627 5.24256 19.2687 6.38351 16.5185 7.54821C16.1124 7.72023 15.705 7.89276 15.298 8.06513C8.98089 10.7394 2.76635 13.3728 2.76635 13.3728L2.72938 13.386L2.69122 13.4052C2.67959 13.4107 2.66764 13.4155 2.65544 13.4196L2.67333 13.4232V13.428L9.63323 15.7844L9.638 15.8084L24.1589 6.76279C24.1589 6.76279 24.909 6.37785 24.8756 6.92229C24.8756 6.92229 25.0342 7.01582 24.5596 7.45953L13.044 18.2524L12.1496 23.9966L16.4071 20.0944L23.4553 25.528C23.8428 25.6827 23.9168 25.6359 24.0098 25.5615C24.0867 25.4999 24.1211 25.4382 24.1413 25.4019C24.1442 25.3966 24.1469 25.3918 24.1493 25.3877L28.5607 2.68669V2.6735C28.5844 2.57034 28.5841 2.54476 28.5836 2.51145C28.5834 2.49815 28.5832 2.48362 28.5845 2.46244Z" fill="url(#paint0_linear)"/>
<defs>
<linearGradient id="paint0_linear" x1="33.6378" y1="60.1861" x2="57.6533" y2="-3.29423" gradientUnits="userSpaceOnUse">
<stop stop-color="#10069F"/>
<stop offset="0.983396" stop-color="#F310ED"/>
<stop offset="1" stop-color="#F70EED"/>
</linearGradient>
</defs>
</svg>
