<svg width="33" height="33" viewBox="0 0 33 33" fill="none" xmlns="http://www.w3.org/2000/svg">
<path fill-rule="evenodd" clip-rule="evenodd" d="M21.2547 18.4457C20.8789 18.3096 20.6054 18.2422 20.3304 18.652C20.0569 19.059 19.2707 19.9802 19.0317 20.2525C18.7913 20.5261 18.5523 20.5591 18.142 20.3556C17.7316 20.1493 16.408 19.719 14.8399 18.3275C13.6199 17.244 12.7951 15.9061 12.5561 15.4964C12.3171 15.088 12.5299 14.8666 12.7357 14.6631C12.9209 14.4802 13.1461 14.186 13.3519 13.9481C13.5578 13.7089 13.6255 13.5384 13.7623 13.2647C13.9004 12.9925 13.8313 12.7546 13.7277 12.5497C13.6255 12.3449 12.8048 10.3333 12.4622 9.51513C12.1292 8.71901 11.7907 8.82764 11.5392 8.81389C11.2988 8.80289 11.0253 8.80014 10.7517 8.80014C10.4782 8.80014 10.0333 8.90189 9.65748 9.31164C9.2803 9.72001 8.2206 10.7086 8.2206 12.7202C8.2206 14.7305 9.69064 16.6734 9.8965 16.947C10.1024 17.2192 12.791 21.347 16.9096 23.1166C17.8905 23.5373 18.6545 23.789 19.25 23.976C20.2337 24.2881 21.129 24.2441 21.8364 24.1382C22.6239 24.0213 24.2653 23.1496 24.6079 22.1953C24.9492 21.2411 24.9492 20.423 24.8469 20.2525C24.7447 20.082 24.4711 19.9802 24.0594 19.7754C23.6491 19.5705 21.6305 18.5832 21.2547 18.4457ZM16.5642 29.9544C14.1179 29.9549 11.7166 29.3004 9.61189 28.0597L9.11451 27.7654L3.94451 29.1157L5.32474 24.0997L5.00006 23.5855C3.63245 21.4189 2.9087 18.9115 2.91244 16.353C2.91521 8.85926 9.04128 2.76253 16.5752 2.76253C20.2227 2.76253 23.6518 4.17878 26.2299 6.74727C28.7984 9.29288 30.2371 12.7551 30.2256 16.3626C30.2228 23.8563 24.0967 29.9544 16.5697 29.9544H16.5642ZM16.5683 0.000167611C7.51322 0.000167611 0.140925 7.33577 0.138161 16.3516C0.13678 19.2336 0.892522 22.0468 2.33078 24.526L0 33.0001L8.70969 30.7258C11.1191 32.0322 13.819 32.7168 16.5628 32.7168H16.5697C25.6248 32.7168 32.9971 25.3812 32.9998 16.364C33.0133 12.0238 31.2821 7.85859 28.1918 4.79615C25.117 1.71586 20.9311 -0.0112673 16.5683 0.000167611Z" fill="black"/>
</svg>
