<svg width="42" height="42" viewBox="0 0 42 42" fill="none" xmlns="http://www.w3.org/2000/svg">
<path fill-rule="evenodd" clip-rule="evenodd" d="M21.5 42C19.6764 42 16.6292 41.3044 13.7617 40.53C11.2003 39.8298 8.65623 39.0684 6.1318 38.2462C4.64811 37.7596 3.57591 36.4722 3.37266 34.9335C1.79752 23.1814 5.45258 14.4716 9.88729 8.70975C11.7679 6.24498 14.0102 4.07444 16.5394 2.27063C17.4139 1.64645 18.3405 1.09758 19.3091 0.630001C20.0517 0.283501 20.8446 0 21.5 0C22.1554 0 22.9509 0.283501 23.6909 0.630001C24.6595 1.09759 25.5861 1.64646 26.4606 2.27063C28.9898 4.07438 31.2322 6.24493 33.1127 8.70975C37.5474 14.4716 41.2025 23.1814 39.6273 34.9335C39.4241 36.4722 38.3519 37.7596 36.8682 38.2462C35.1292 38.8106 32.1718 39.7425 29.2383 40.53C26.3708 41.3044 23.3236 42 21.5 42ZM6.96694 35.5793C9.44765 36.388 11.9476 37.1372 14.4647 37.8263V37.8236C17.3983 38.6137 20.0993 39.1991 21.5 39.1991C22.9034 39.1991 25.6017 38.6137 28.5353 37.8236C31.4081 37.0493 34.3126 36.1384 36.0331 35.5793C36.4956 35.4311 36.8323 35.0335 36.8999 34.5555C38.3641 23.6434 34.9812 15.6791 30.9456 10.437C29.2369 8.19425 27.1995 6.21844 24.9014 4.57537C23.9869 3.9375 23.1756 3.47287 22.5413 3.17625C22.2241 3.02662 21.9651 2.92687 21.7643 2.8665C21.6782 2.83732 21.5898 2.81536 21.5 2.80087C21.4091 2.81432 21.3198 2.8363 21.2331 2.8665C21.0349 2.92687 20.7759 3.02662 20.4587 3.17625C19.8218 3.47287 19.0131 3.93488 18.0986 4.57537C15.8004 6.21841 13.7631 8.19423 12.0544 10.437C8.0188 15.6817 4.63594 23.6434 6.10008 34.5555C6.16835 35.0332 6.50478 35.4306 6.96694 35.5793Z" fill="white"/>
<path d="M25.4643 24.9374C25.4652 23.268 24.4061 21.7794 22.8215 21.223L23.839 15.9992C23.9139 15.6145 23.8119 15.2167 23.5608 14.9145C23.3097 14.6123 22.9358 14.4373 22.5413 14.4374H20.4588C20.0647 14.4381 19.6916 14.6134 19.4411 14.9155C19.1906 15.2176 19.0889 15.615 19.1638 15.9992L20.1786 21.223C18.2781 21.8904 17.1845 23.868 17.6369 25.8191C18.0894 27.7701 19.9438 29.0733 21.9468 28.8477C23.9497 28.6221 25.4633 26.9395 25.4643 24.9374Z" fill="white"/>
</svg>
