<svg width="37" height="37" viewBox="0 0 37 37" fill="none" xmlns="http://www.w3.org/2000/svg">
<path fill-rule="evenodd" clip-rule="evenodd" d="M23.831 20.6815C23.4097 20.5289 23.103 20.4534 22.7947 20.9128C22.488 21.3691 21.6065 22.402 21.3386 22.7073C21.069 23.0141 20.801 23.0511 20.341 22.8229C19.8809 22.5917 18.3969 22.1091 16.6387 20.549C15.2708 19.3341 14.346 17.8341 14.078 17.3747C13.81 16.9168 14.0486 16.6686 14.2794 16.4404C14.487 16.2354 14.7395 15.9055 14.9703 15.6388C15.2011 15.3705 15.277 15.1794 15.4304 14.8726C15.5853 14.5673 15.5078 14.3006 15.3916 14.0709C15.277 13.8412 14.3569 11.5858 13.9727 10.6685C13.5994 9.77585 13.2198 9.89764 12.9379 9.88222C12.6684 9.86989 12.3616 9.8668 12.0549 9.8668C11.7482 9.8668 11.2494 9.98089 10.8281 10.4403C10.4052 10.8982 9.21702 12.0066 9.21702 14.2621C9.21702 16.516 10.8652 18.6943 11.096 19.0011C11.3269 19.3064 14.3414 23.9344 18.9592 25.9186C20.059 26.3903 20.9157 26.6724 21.5833 26.8821C22.6863 27.232 23.6901 27.1827 24.4832 27.064C25.3662 26.933 27.2065 25.9556 27.5906 24.8856C27.9733 23.8157 27.9733 22.8984 27.8586 22.7073C27.744 22.5161 27.4373 22.402 26.9757 22.1723C26.5156 21.9426 24.2524 20.8357 23.831 20.6815ZM18.5719 33.5852C15.8291 33.5857 13.1368 32.852 10.7769 31.4608L10.2193 31.1309L4.42262 32.6448L5.97015 27.0208L5.60611 26.4443C4.07274 24.0151 3.26127 21.2038 3.26546 18.3351C3.26856 9.9331 10.1372 3.09738 18.5843 3.09738C22.6739 3.09738 26.5187 4.68529 29.4093 7.56511C32.289 10.4193 33.9021 14.3012 33.8892 18.3459C33.8861 26.748 27.0175 33.5852 18.5781 33.5852H18.5719ZM18.5765 0.000187927C8.42389 0.000187927 0.158006 8.22494 0.154908 18.3336C0.153359 21.5649 1.0007 24.7191 2.6133 27.4988L0 37L9.76539 34.4501C12.4668 35.9149 15.494 36.6824 18.5704 36.6824H18.5781C28.7308 36.6824 36.9966 28.4577 36.9997 18.3475C37.0149 13.4813 35.0738 8.81113 31.6089 5.37749C28.1614 1.92385 23.4682 -0.012633 18.5765 0.000187927Z" fill="white"/>
</svg>
