<svg width="34" height="34" viewBox="0 0 34 34" fill="none" xmlns="http://www.w3.org/2000/svg">
<path fill-rule="evenodd" clip-rule="evenodd" d="M24.0086 0.102C22.1958 0.0185455 21.6178 0 17 0C12.3822 0 11.8042 0.0200909 9.99291 0.102C8.18163 0.183909 6.94527 0.472909 5.86345 0.891727C4.73064 1.31982 3.70291 1.989 2.85291 2.85445C1.98745 3.70291 1.31982 4.72909 0.893272 5.86345C0.472908 6.94527 0.185455 8.18164 0.102001 9.98982C0.0185471 11.8057 0 12.3837 0 17C0 21.6178 0.020092 22.1958 0.102001 24.0086C0.18391 25.8168 0.472908 27.0532 0.893272 28.135C1.31983 29.2695 1.98857 30.2974 2.85291 31.1471C3.70291 32.0125 4.73064 32.6802 5.86345 33.1067C6.94527 33.5271 8.18164 33.8145 9.98982 33.898C11.8042 33.9815 12.3822 34 17 34C21.6178 34 22.1958 33.9799 24.0086 33.898C25.8168 33.8161 27.0532 33.5271 28.135 33.1067C29.2695 32.6801 30.2974 32.0114 31.1471 31.1471C32.012 30.2981 32.6812 29.2707 33.1083 28.1365C33.5271 27.0547 33.8145 25.8184 33.898 24.0102C33.9815 22.1943 34 21.6163 34 17C34 12.3822 33.9799 11.8042 33.898 9.99291C33.8161 8.18164 33.5271 6.94527 33.1083 5.86345C32.6806 4.72922 32.0108 3.70185 31.1455 2.85291C30.297 1.98823 29.2702 1.31896 28.1365 0.891727C27.0547 0.472909 25.8184 0.185455 24.0102 0.102H24.0086ZM10.1305 3.162C11.9232 3.08009 12.461 3.06309 17 3.06309C21.539 3.06309 22.0768 3.08009 23.8695 3.162C25.5278 3.23773 26.4273 3.51436 27.0269 3.74773C27.8197 4.05682 28.3869 4.42309 28.9819 5.01809C29.5459 5.56681 29.98 6.2348 30.2523 6.97309C30.4856 7.57273 30.7623 8.47218 30.838 10.1305C30.9199 11.9232 30.9369 12.461 30.9369 17C30.9369 21.539 30.9199 22.0768 30.838 23.8695C30.7623 25.5278 30.4856 26.4273 30.2523 27.0269C29.9803 27.7641 29.546 28.4333 28.9819 28.9819C28.4333 29.546 27.7641 29.9803 27.0269 30.2523C26.4273 30.4856 25.5278 30.7623 23.8695 30.838C22.0768 30.9199 21.5405 30.9369 17 30.9369C12.4595 30.9369 11.9232 30.9199 10.1305 30.838C8.47218 30.7623 7.57273 30.4856 6.97309 30.2523C6.18027 29.9432 5.61309 29.5769 5.01809 28.9819C4.454 28.4333 4.01973 27.7641 3.74773 27.0269C3.51436 26.4273 3.23773 25.5278 3.162 23.8695C3.08009 22.0768 3.06309 21.539 3.06309 17C3.06309 12.461 3.08009 11.9232 3.162 10.1305C3.23773 8.47218 3.51436 7.57273 3.74773 6.97309C4.05682 6.18027 4.42309 5.61309 5.01809 5.01809C5.56684 4.45411 6.23482 4.02005 6.97309 3.74773C7.57273 3.51436 8.47218 3.23773 10.1305 3.162ZM19.1714 22.2406C16.6706 23.2816 13.7827 22.4084 12.2777 20.1562C10.7727 17.9039 11.0709 14.9017 12.9895 12.9895C14.6118 11.3683 17.0509 10.8836 19.1698 11.7615C21.2887 12.6394 22.6704 14.707 22.6707 17.0005C22.671 19.2941 21.29 21.3621 19.1714 22.2406ZM23.1787 10.8213C20.9713 8.61383 17.7539 7.75172 14.7384 8.5597C11.723 9.36768 9.36768 11.723 8.5597 14.7384C7.75172 17.7539 8.61383 20.9713 10.8213 23.1787C14.2337 26.5911 19.7663 26.5911 23.1787 23.1787C26.5911 19.7663 26.5911 14.2337 23.1787 10.8213ZM6.324 9.56327C5.77656 9.04686 5.55319 8.27365 5.74089 7.54486C5.9286 6.81607 6.4977 6.24697 7.22649 6.05926C7.95528 5.87155 8.7285 6.09493 9.24491 6.64236C10.0119 7.45541 9.99328 8.73096 9.20294 9.5213C8.4126 10.3116 7.13705 10.3302 6.324 9.56327Z" fill="white"/>
</svg>
