<svg version="1.1" id="Слой_1" xmlns="http://www.w3.org/2000/svg" x="0" y="0" viewBox="0 0 302.9 409.6" xml:space="preserve"><style>.st0{fill:#9c8edb}</style><path class="st0" d="M38.2 293.4c-5.5.2-11.1.2-17 .1-2.7 0-5.5-.1-8.4-.1-2.5 0-4.6 1.8-5 4.2L.1 341.9c-.3 1.5.2 3 1.1 4.2 1 1.2 2.4 1.8 3.9 1.8h69.8V404c0 2.8 2.3 5.1 5.1 5.1h36.7c2.8 0 5.1-2.3 5.1-5.1v-54h19v54.5c0 2.8 2.3 5.1 5.1 5.1h37.2c2.8 0 5.1-2.3 5.1-5.1v-54.6l23.5-.6c50.2 0 91.1-38.1 91.1-84.9 0-29.5-14.9-56.9-39.2-73.1 14.1-14.4 22.1-33.7 22.1-54.1 0-42.6-34.6-77.2-77.2-77.2l-18.3.1V5.5c0-2.8-2.3-5.1-5.1-5.1h-37.3c-2.8 0-5.1 2.3-5.1 5.1v52.7h-18.9V5.1c0-2.8-2.3-5.1-5.1-5.1H81.5c-2.8 0-5.1 2.3-5.1 5.1v55.1H7.5c-2.8 0-5.1 2.3-5.1 5.1v38.6c0 2.8 2.3 5.1 5.1 5.1H21.6c4.6.1 9.4.2 14.1.6 10.1.9 14.2 5.4 14.2 15.6-.4 52.5-.9 105-1.4 157.5-.2 8.3-2.2 10.4-10.3 10.7zM36.5 99.5c-5-.4-10.2-.6-14.7-.7-3-.1-6-.1-9.2 0V70.4h68.8c2.8 0 5.1-2.3 5.1-5.1V10.2h26.9v53.1c0 2.8 2.3 5.1 5.1 5.1h29.2c2.8 0 5.1-2.3 5.1-5.1V10.6H180v54.7c0 1.4.5 2.7 1.5 3.6 1 1 2.5 1.5 3.6 1.5l23.4-.1c36.9 0 67 30 67 67 0 19.6-8.6 38.2-23.6 51-1.3 1.1-1.9 2.7-1.8 4.4.2 1.7 1.1 3.2 2.6 4 24.6 13.7 39.9 39.6 39.9 67.7 0 41.2-36.3 74.6-80.9 74.6h-.1l-28.5.7c-2.8.1-5 2.3-5 5.1v54.5h-27v-54.5c0-2.8-2.3-5.1-5.1-5.1h-29.2c-2.8 0-5.1 2.3-5.1 5.1v54H85.1v-55.9c0-2.8-2.3-5.1-5.1-5.1H11.2l5.9-34.1h4c6 .1 11.7.1 17.5-.1 13.5-.6 19.8-7.2 19.9-20.7.5-52.5 1-105 1.4-157.5.2-15.6-7.9-24.5-23.4-25.9z"/><path class="st0" d="M118.7 186.6h48.8c23.1 0 41.8-18.8 41.8-41.8S190.5 103 167.5 103h-48.8c-2.8 0-5.1 2.3-5.1 5.1v73.4c0 2.8 2.3 5.1 5.1 5.1zm5.2-73.5h43.7c17.4 0 31.6 14.2 31.6 31.6s-14.2 31.6-31.6 31.6h-43.7v-63.2zM118.7 304.8h61c25.3 0 45.9-20.6 45.9-45.9S205 213 179.7 213h-61c-2.8 0-5.1 2.3-5.1 5.1v81.5c0 2.9 2.3 5.2 5.1 5.2zm5.2-81.5h55.9c19.6 0 35.6 16 35.6 35.6s-16 35.6-35.6 35.6h-55.9v-71.2z"/><script/></svg>