<?xml version="1.0" encoding="utf-8"?>
<!-- Generator: Adobe Illustrator 24.1.2, SVG Export Plug-In . SVG Version: 6.00 Build 0)  -->
<svg version="1.1" id="Слой_1" xmlns:svgjs="http://svgjs.com/svgjs"
	 xmlns="http://www.w3.org/2000/svg" xmlns:xlink="http://www.w3.org/1999/xlink" x="0px" y="0px" viewBox="0 0 302.9 409.6"
	 style="enable-background:new 0 0 302.9 409.6;" xml:space="preserve">
<style type="text/css">
	.st0{fill:#9C8EDB;}
</style>
<g>
	<path class="st0" d="M38.2,293.4c-5.5,0.2-11.1,0.2-17,0.1c-2.7,0-5.5-0.1-8.4-0.1c-2.5,0-4.6,1.8-5,4.2l-7.7,44.3
		c-0.3,1.5,0.2,3,1.1,4.2c1,1.2,2.4,1.8,3.9,1.8h69.8V404c0,2.8,2.3,5.1,5.1,5.1h36.7c2.8,0,5.1-2.3,5.1-5.1v-54h19v54.5
		c0,2.8,2.3,5.1,5.1,5.1h37.2c2.8,0,5.1-2.3,5.1-5.1v-54.6l23.5-0.6c50.2,0,91.1-38.1,91.1-84.9c0-29.5-14.9-56.9-39.2-73.1
		c14.1-14.4,22.1-33.7,22.1-54.1c0-42.6-34.6-77.2-77.2-77.2l-18.3,0.1V5.5c0-2.8-2.3-5.1-5.1-5.1h-37.3c-2.8,0-5.1,2.3-5.1,5.1
		v52.7h-18.9V5.1c0-2.8-2.3-5.1-5.1-5.1H81.5c-2.8,0-5.1,2.3-5.1,5.1v55.1H7.5c-2.8,0-5.1,2.3-5.1,5.1v38.6c0,2.8,2.3,5.1,5.1,5.1
		l4.8,0c3.3,0,6.3,0,9.3,0c4.6,0.1,9.4,0.2,14.1,0.6c10.1,0.9,14.2,5.4,14.2,15.6c-0.4,52.5-0.9,105-1.4,157.5
		C48.3,291,46.3,293.1,38.2,293.4z M36.5,99.5c-5-0.4-10.2-0.6-14.7-0.7c-3-0.1-6-0.1-9.2,0V70.4h68.8c2.8,0,5.1-2.3,5.1-5.1V10.2
		h26.9v53.1c0,2.8,2.3,5.1,5.1,5.1h29.2c2.8,0,5.1-2.3,5.1-5.1V10.6H180v54.7c0,1.4,0.5,2.7,1.5,3.6c1,1,2.5,1.5,3.6,1.5l23.4-0.1
		c36.9,0,67,30,67,67c0,19.6-8.6,38.2-23.6,51c-1.3,1.1-1.9,2.7-1.8,4.4c0.2,1.7,1.1,3.2,2.6,4c24.6,13.7,39.9,39.6,39.9,67.7
		c0,41.2-36.3,74.6-80.9,74.6c0,0-0.1,0-0.1,0l-28.5,0.7c-2.8,0.1-5,2.3-5,5.1v54.5h-27v-54.5c0-2.8-2.3-5.1-5.1-5.1h-29.2
		c-2.8,0-5.1,2.3-5.1,5.1v54H85.1v-55.9c0-2.8-2.3-5.1-5.1-5.1H11.2l5.9-34.1c1.3,0,2.7,0,4,0c6,0.1,11.7,0.1,17.5-0.1
		c13.5-0.6,19.8-7.2,19.9-20.7c0.5-52.5,1-105,1.4-157.5C60.1,109.8,52,100.9,36.5,99.5z"/>
	<path class="st0" d="M118.7,186.6h48.8c23.1,0,41.8-18.8,41.8-41.8s-18.8-41.8-41.8-41.8h-48.8c-2.8,0-5.1,2.3-5.1,5.1v73.4
		C113.6,184.3,115.9,186.6,118.7,186.6z M123.9,113.1h43.7c17.4,0,31.6,14.2,31.6,31.6s-14.2,31.6-31.6,31.6h-43.7V113.1z"/>
	<path class="st0" d="M118.7,304.8h61c25.3,0,45.9-20.6,45.9-45.9s-20.6-45.9-45.9-45.9h-61c-2.8,0-5.1,2.3-5.1,5.1v81.5
		C113.6,302.5,115.9,304.8,118.7,304.8z M123.9,223.3h55.9c19.6,0,35.6,16,35.6,35.6c0,19.6-16,35.6-35.6,35.6h-55.9V223.3z"/>
	<script></script>
</g>
</svg>
