<svg id="Слой_1" data-name="Слой 1" xmlns="http://www.w3.org/2000/svg" viewBox="0 0 510.99 510.47"><defs><style>.cls-1{fill:#5f57a2;}</style></defs><g id="fQKtiv"><path class="cls-1" d="M271.47,0a33.11,33.11,0,0,1,3,1.56c3.29,2.12,4.78,5.11,3.54,8.94a7.14,7.14,0,0,1-7.52,5.34c-3.89-.19-6.57-2.31-7.29-6.26s.93-6.77,4.51-8.48c.89-.42,1.83-.74,2.74-1.1Z"/><path class="cls-1" d="M0,253.5a24.48,24.48,0,0,1,1.66-2.45c3.16-3.67,8.17-4,11.42-.84a7.9,7.9,0,0,1,.21,10.8c-3.2,3.4-8,3.28-11.41-.3C1.22,260,.62,259.23,0,258.5Z"/><path class="cls-1" d="M368.78,133.14l27.31-27.32c-9.27-12.64-13.1-27.16-9.41-43.2a50.24,50.24,0,0,1,19.55-29.79,51.44,51.44,0,0,1,73,70.43c-15.77,22.9-41.14,27.93-70.82,14.27l-27.81,27.73c27.48,32.08,42.05,69.53,41.49,112.39-.56,42.7-16,79.66-44,110.82l27.19,27.32c27.48-19.6,57.41-9.16,71.8,9a51.59,51.59,0,0,1-3.07,67.56c-17.24,18.25-45.82,21.08-66.54,6.79-18.88-13-31.26-41.73-13.36-71.71-4.45-4.26-9.14-8.67-13.73-13.18s-9.12-9.21-14-14.18c-32,27.42-68.71,42.06-110.8,42.07s-78.64-14.4-110-41.24l-27.87,27.93c17.9,30.64,2.89,59.18-15.35,71a51.48,51.48,0,0,1-67.76-76c15.17-18.07,44.55-26.94,72.06-7.2,4.38-4.49,8.83-9.13,13.38-13.67s9-8.77,13.37-13c-6-8-12-15.11-17.09-22.86Q80,291.36,91.52,225.65c1.13-6.54,4.46-9.39,9.34-8.44s7,4.87,5.73,11.84c-4.5,25.74-3.16,51.18,6,75.65,21.45,57.21,62.46,91.84,123,100.44C317.13,416.71,391.38,360.72,405,279.19,418.36,199,362.4,120.28,282.43,106.69c-68.13-11.57-132.09,20.94-163.19,82.73a14.15,14.15,0,0,1-6.86,6.33c-1.78.7-5.93-.79-6.76-2.43-1.28-2.57-1.94-6.88-.61-9.1,7.48-12.5,15.64-24.6,23.59-36.82a21.82,21.82,0,0,1,1.5-1.9l-27.91-28c-13.53,8.28-28.78,10.82-44.91,5.22a50.26,50.26,0,0,1-27.52-22.62A51.46,51.46,0,0,1,107.3,34.77c17.41,14.65,27.12,44,7.4,71.59.6.71,1.18,1.51,1.86,2.2,8.2,8.25,16.41,16.47,24.93,25,32.56-29.24,70.33-44.74,113.94-44.74C298.89,88.86,336.55,104.2,368.78,133.14Zm68.05-23a36,36,0,1,0-35.95-35.74A36.12,36.12,0,0,0,436.83,110.13ZM400.88,436.85a36,36,0,1,0,35.72-36A36.11,36.11,0,0,0,400.88,436.85ZM74,400.9a36,36,0,1,0,36.14,35.52A36.07,36.07,0,0,0,74,400.9ZM110.12,74.09a36,36,0,1,0-35.66,36A36.1,36.1,0,0,0,110.12,74.09Z"/><path class="cls-1" d="M295.52,260.05c18.81,9.54,33.05,22.92,42.23,41.17a113.79,113.79,0,0,1,7.81,20.91,29.06,29.06,0,0,1-14,33.72,151.65,151.65,0,0,1-74.83,19.64c-5.39,0-8.75-2.85-8.95-7.3-.2-4.6,3.26-7.85,8.84-8a143.75,143.75,0,0,0,64.61-16.31c9.11-4.78,11.81-10.57,8.89-20.5q-10.29-35-43.51-50.38a8.77,8.77,0,0,0-8.35,0c-15.16,7.22-30.54,7.11-45.68-.08a8.3,8.3,0,0,0-7.89-.05q-35.05,16.2-44.52,53.6c-1.71,6.8,1.19,13.3,8.1,16.46,9.48,4.34,19.29,8,29,11.85,1.38.55,2.89.79,4.26,1.36,4,1.65,5.92,5.39,4.87,9.21a7.61,7.61,0,0,1-9.35,5.37c-13.78-3.41-27-8.4-39.06-15.89-11-6.83-15.88-19.78-12.69-32.58,6.59-26.39,21.91-46.19,45.43-59.72,1.43-.82,2.89-1.59,4.74-2.61-11.4-12.89-13.6-28.15-13.1-44.41.46-14.78,0-29.59.11-44.39.12-21.28,14.42-35.54,35.74-35.68,11.64-.07,23.28-.09,34.91,0,21,.17,35.32,14.49,35.46,35.47.1,15.63-.34,31.27.12,46.88S306.24,247.6,295.52,260.05Zm-1.7-41.33-.55-.07c0-2.83.15-5.67-.06-8.48a5.06,5.06,0,0,0-1.49-3.35c-11.21-8.58-23.58-13-37.74-9.22-7.21,1.91-14.26,4.42-21.33,6.83-5,1.7-11.92,2.35-14.18,5.9-2.5,3.91-.9,10.61-.64,16.08.88,18.65,15,34.13,32.58,36.07,19.42,2.14,36.52-9.06,41.31-27.54C293.08,229.7,293.16,224.13,293.82,218.72Zm-.6-30.65c0-6.44.33-12.92-.08-19.35-.63-10-8.18-17.56-18.15-17.81-13-.34-25.94-.3-38.91,0-9.1.2-16.71,6.37-17.67,15.31-.93,8.61-.2,17.4-.2,26.59,9.07-3,17.88-5.86,26.67-8.78,9.48-3.15,19.18-4.54,29-2.22C280.24,183.31,286.39,185.82,293.22,188.07Z"/><path class="cls-1" d="M495.63,255.06c.13-4.64,3.44-7.84,7.94-7.69a7.66,7.66,0,0,1,7.41,8.26c-.14,4.42-3.2,7.33-7.72,7.3C498.57,262.91,495.49,259.73,495.63,255.06Z"/><path class="cls-1" d="M480.1,135.7a7.63,7.63,0,1,1-7.94-7.73A7.82,7.82,0,0,1,480.1,135.7Z"/><path class="cls-1" d="M149.52,39a7.69,7.69,0,0,1-7.61-7.54,7.85,7.85,0,0,1,8-7.7,7.68,7.68,0,0,1,7.59,7.53A7.84,7.84,0,0,1,149.52,39Z"/><path class="cls-1" d="M301.39,19.74a8,8,0,0,1-7.55-8.2,7.76,7.76,0,0,1,15.49.92A8,8,0,0,1,301.39,19.74Z"/><path class="cls-1" d="M32.72,164.55A8,8,0,0,1,25,172.21a7.82,7.82,0,0,1-7.75-7.56,7.9,7.9,0,0,1,7.94-7.89A7.9,7.9,0,0,1,32.72,164.55Z"/><path class="cls-1" d="M216.77,498.74a7.64,7.64,0,1,1-15.28.43,7.64,7.64,0,1,1,15.28-.43Z"/><path class="cls-1" d="M339.83,491.17a7.72,7.72,0,1,1-7.6-7.65A7.67,7.67,0,0,1,339.83,491.17Z"/><path class="cls-1" d="M239.43.65A7.76,7.76,0,0,1,247.34,8a7.77,7.77,0,1,1-15.54.28A7.73,7.73,0,0,1,239.43.65Z"/><path class="cls-1" d="M302.06,491.17a7.73,7.73,0,1,1-7.72,7.55A7.67,7.67,0,0,1,302.06,491.17Z"/><path class="cls-1" d="M485.58,156.09A7.76,7.76,0,0,1,493.4,164a7.66,7.66,0,0,1-7.46,7.65,7.76,7.76,0,0,1-.36-15.51Z"/><path class="cls-1" d="M9.7,232.46a7.77,7.77,0,1,1,.1-15.53,7.59,7.59,0,0,1,7.4,7.81A7.67,7.67,0,0,1,9.7,232.46Z"/><path class="cls-1" d="M23.08,317.49a7.64,7.64,0,0,1-7.63,7.58,7.76,7.76,0,0,1,.34-15.51A7.69,7.69,0,0,1,23.08,317.49Z"/><path class="cls-1" d="M485.83,339.15a7.56,7.56,0,0,1,7.8,7.38,7.66,7.66,0,0,1-7.33,7.88,7.76,7.76,0,0,1-8.08-7.67A7.65,7.65,0,0,1,485.83,339.15Z"/><path class="cls-1" d="M360.63,23.43a7.7,7.7,0,1,1-7.55,7.6A7.49,7.49,0,0,1,360.63,23.43Z"/><path class="cls-1" d="M25.21,339.25a7.74,7.74,0,0,1,7.64,8,7.72,7.72,0,0,1-15.43-.71A7.56,7.56,0,0,1,25.21,339.25Z"/><path class="cls-1" d="M208.94,19.85A8,8,0,0,1,201,12.43a7.73,7.73,0,1,1,15.46-.33A7.89,7.89,0,0,1,208.94,19.85Z"/><path class="cls-1" d="M178.76,27.64a8,8,0,0,1-7.94-7.44,7.78,7.78,0,1,1,15.55-.36A8.09,8.09,0,0,1,178.76,27.64Z"/><path class="cls-1" d="M240,510.47a7.69,7.69,0,1,1,7.65-7.52A7.51,7.51,0,0,1,240,510.47Z"/><path class="cls-1" d="M509,286.82a7.77,7.77,0,0,1-7.73,7.52,7.68,7.68,0,0,1-7.51-8.18,7.54,7.54,0,0,1,7.92-7.24A7.68,7.68,0,0,1,509,286.82Z"/><path class="cls-1" d="M186.69,491.52a7.63,7.63,0,0,1-7.75,7.44,7.79,7.79,0,0,1-7.51-8.24,7.41,7.41,0,0,1,8-7.11A7.59,7.59,0,0,1,186.69,491.52Z"/><path class="cls-1" d="M15.19,186.49a7.63,7.63,0,1,1,.14,15.26,7.63,7.63,0,0,1-.14-15.26Z"/><path class="cls-1" d="M495.36,309.42a7.73,7.73,0,1,1-7.42,7.79A7.61,7.61,0,0,1,495.36,309.42Z"/><path class="cls-1" d="M46,374.86a7.61,7.61,0,0,1-15.21.55A7.61,7.61,0,1,1,46,374.86Z"/><path class="cls-1" d="M495.45,185.69a7.66,7.66,0,0,1,7.61,7.6,7.59,7.59,0,0,1-7.86,7.8,7.49,7.49,0,0,1-7.34-7.8A7.62,7.62,0,0,1,495.45,185.69Z"/><path class="cls-1" d="M368.72,479.87a7.7,7.7,0,0,1-15.39,0,7.73,7.73,0,0,1,8-7.76A7.61,7.61,0,0,1,368.72,479.87Z"/><path class="cls-1" d="M149.78,472.1a7.72,7.72,0,0,1,7.93,7.27,7.64,7.64,0,1,1-15.27.55A7.6,7.6,0,0,1,149.78,472.1Z"/><path class="cls-1" d="M480.25,374.93a7.46,7.46,0,0,1-7.51,7.6,7.65,7.65,0,1,1,.08-15.29A7.52,7.52,0,0,1,480.25,374.93Z"/><path class="cls-1" d="M509,224.1a7.65,7.65,0,1,1-15.29-.54,7.39,7.39,0,0,1,7.87-7.23A7.65,7.65,0,0,1,509,224.1Z"/><path class="cls-1" d="M331.94,27.23a7.35,7.35,0,0,1-7.8-7.25,7.57,7.57,0,0,1,7.16-8,7.67,7.67,0,0,1,8.09,7.58A7.45,7.45,0,0,1,331.94,27.23Z"/><path class="cls-1" d="M271.3,495.09a7.64,7.64,0,0,1,7.46,7.74,7.42,7.42,0,0,1-7.56,7.56,7.56,7.56,0,0,1-7.73-7.92A7.68,7.68,0,0,1,271.3,495.09Z"/><path class="cls-1" d="M17.27,287a7.52,7.52,0,0,1-7.66,7.48A7.72,7.72,0,0,1,2,286.34a7.55,7.55,0,0,1,8-7.17A7.38,7.38,0,0,1,17.27,287Z"/><path class="cls-1" d="M45.9,136.22a7.66,7.66,0,0,1-7.48,7.71,7.35,7.35,0,0,1-7.82-7.25,7.65,7.65,0,1,1,15.3-.46Z"/></g></svg>