<svg id="Слой_1" data-name="Слой 1" xmlns="http://www.w3.org/2000/svg" viewBox="0 0 510.99 510.47"><defs><style>.cls-1{fill:#5f57a2}</style></defs><g id="fQKtiv"><path class="cls-1" d="M271.47 0a33.11 33.11 0 0 1 3 1.56c3.29 2.12 4.78 5.11 3.54 8.94a7.14 7.14 0 0 1-7.52 5.34c-3.89-.19-6.57-2.31-7.29-6.26s.93-6.77 4.51-8.48c.89-.42 1.83-.74 2.74-1.1zM0 253.5a24.48 24.48 0 0 1 1.66-2.45c3.16-3.67 8.17-4 11.42-.84a7.9 7.9 0 0 1 .21 10.8c-3.2 3.4-8 3.28-11.41-.3-.66-.71-1.26-1.48-1.88-2.21zM368.78 133.14l27.31-27.32c-9.27-12.64-13.1-27.16-9.41-43.2a50.24 50.24 0 0 1 19.55-29.79 51.44 51.44 0 0 1 73 70.43c-15.77 22.9-41.14 27.93-70.82 14.27l-27.81 27.73c27.48 32.08 42.05 69.53 41.49 112.39-.56 42.7-16 79.66-44 110.82l27.19 27.32c27.48-19.6 57.41-9.16 71.8 9a51.59 51.59 0 0 1-3.07 67.56c-17.24 18.25-45.82 21.08-66.54 6.79-18.88-13-31.26-41.73-13.36-71.71-4.45-4.26-9.14-8.67-13.73-13.18s-9.12-9.21-14-14.18c-32 27.42-68.71 42.06-110.8 42.07s-78.64-14.4-110-41.24l-27.87 27.93c17.9 30.64 2.89 59.18-15.35 71a51.48 51.48 0 0 1-67.76-76c15.17-18.07 44.55-26.94 72.06-7.2 4.38-4.49 8.83-9.13 13.38-13.67s9-8.77 13.37-13c-6-8-12-15.11-17.09-22.86Q80 291.36 91.52 225.65c1.13-6.54 4.46-9.39 9.34-8.44s7 4.87 5.73 11.84c-4.5 25.74-3.16 51.18 6 75.65 21.45 57.21 62.46 91.84 123 100.44 81.54 11.57 155.79-44.42 169.41-125.95 13.36-80.19-42.6-158.91-122.57-172.5-68.13-11.57-132.09 20.94-163.19 82.73a14.15 14.15 0 0 1-6.86 6.33c-1.78.7-5.93-.79-6.76-2.43-1.28-2.57-1.94-6.88-.61-9.1 7.48-12.5 15.64-24.6 23.59-36.82a21.82 21.82 0 0 1 1.5-1.9l-27.91-28c-13.53 8.28-28.78 10.82-44.91 5.22a50.26 50.26 0 0 1-27.52-22.62 51.46 51.46 0 0 1 77.54-65.33c17.41 14.65 27.12 44 7.4 71.59.6.71 1.18 1.51 1.86 2.2 8.2 8.25 16.41 16.47 24.93 25 32.56-29.24 70.33-44.74 113.94-44.74 43.46.04 81.12 15.38 113.35 44.32zm68.05-23a36 36 0 1 0-35.95-35.74 36.12 36.12 0 0 0 35.95 35.73zm-35.95 326.71a36 36 0 1 0 35.72-36 36.11 36.11 0 0 0-35.72 36zM74 400.9a36 36 0 1 0 36.14 35.52A36.07 36.07 0 0 0 74 400.9zm36.12-326.81a36 36 0 1 0-35.66 36 36.1 36.1 0 0 0 35.66-36z"/><path class="cls-1" d="M295.52 260.05c18.81 9.54 33.05 22.92 42.23 41.17a113.79 113.79 0 0 1 7.81 20.91 29.06 29.06 0 0 1-14 33.72 151.65 151.65 0 0 1-74.83 19.64c-5.39 0-8.75-2.85-8.95-7.3-.2-4.6 3.26-7.85 8.84-8a143.75 143.75 0 0 0 64.61-16.31c9.11-4.78 11.81-10.57 8.89-20.5q-10.29-35-43.51-50.38a8.77 8.77 0 0 0-8.35 0c-15.16 7.22-30.54 7.11-45.68-.08a8.3 8.3 0 0 0-7.89-.05q-35.05 16.2-44.52 53.6c-1.71 6.8 1.19 13.3 8.1 16.46 9.48 4.34 19.29 8 29 11.85 1.38.55 2.89.79 4.26 1.36 4 1.65 5.92 5.39 4.87 9.21a7.61 7.61 0 0 1-9.35 5.37c-13.78-3.41-27-8.4-39.06-15.89-11-6.83-15.88-19.78-12.69-32.58 6.59-26.39 21.91-46.19 45.43-59.72 1.43-.82 2.89-1.59 4.74-2.61-11.4-12.89-13.6-28.15-13.1-44.41.46-14.78 0-29.59.11-44.39.12-21.28 14.42-35.54 35.74-35.68 11.64-.07 23.28-.09 34.91 0 21 .17 35.32 14.49 35.46 35.47.1 15.63-.34 31.27.12 46.88s-2.47 29.81-13.19 42.26zm-1.7-41.33l-.55-.07c0-2.83.15-5.67-.06-8.48a5.06 5.06 0 0 0-1.49-3.35c-11.21-8.58-23.58-13-37.74-9.22-7.21 1.91-14.26 4.42-21.33 6.83-5 1.7-11.92 2.35-14.18 5.9-2.5 3.91-.9 10.61-.64 16.08.88 18.65 15 34.13 32.58 36.07 19.42 2.14 36.52-9.06 41.31-27.54 1.36-5.24 1.44-10.81 2.1-16.22zm-.6-30.65c0-6.44.33-12.92-.08-19.35-.63-10-8.18-17.56-18.15-17.81-13-.34-25.94-.3-38.91 0-9.1.2-16.71 6.37-17.67 15.31-.93 8.61-.2 17.4-.2 26.59 9.07-3 17.88-5.86 26.67-8.78 9.48-3.15 19.18-4.54 29-2.22 6.36 1.5 12.51 4.01 19.34 6.26zM495.63 255.06c.13-4.64 3.44-7.84 7.94-7.69a7.66 7.66 0 0 1 7.41 8.26c-.14 4.42-3.2 7.33-7.72 7.3-4.69-.02-7.77-3.2-7.63-7.87zM480.1 135.7a7.63 7.63 0 1 1-7.94-7.73 7.82 7.82 0 0 1 7.94 7.73zM149.52 39a7.69 7.69 0 0 1-7.61-7.54 7.85 7.85 0 0 1 8-7.7 7.68 7.68 0 0 1 7.59 7.53 7.84 7.84 0 0 1-7.98 7.71zM301.39 19.74a8 8 0 0 1-7.55-8.2 7.76 7.76 0 0 1 15.49.92 8 8 0 0 1-7.94 7.28zM32.72 164.55a8 8 0 0 1-7.72 7.66 7.82 7.82 0 0 1-7.75-7.56 7.9 7.9 0 0 1 7.94-7.89 7.9 7.9 0 0 1 7.53 7.79zM216.77 498.74a7.64 7.64 0 1 1-15.28.43 7.64 7.64 0 1 1 15.28-.43zM339.83 491.17a7.72 7.72 0 1 1-7.6-7.65 7.67 7.67 0 0 1 7.6 7.65zM239.43.65A7.76 7.76 0 0 1 247.34 8a7.77 7.77 0 1 1-15.54.28 7.73 7.73 0 0 1 7.63-7.63zM302.06 491.17a7.73 7.73 0 1 1-7.72 7.55 7.67 7.67 0 0 1 7.72-7.55zM485.58 156.09a7.76 7.76 0 0 1 7.82 7.91 7.66 7.66 0 0 1-7.46 7.65 7.76 7.76 0 0 1-.36-15.51zM9.7 232.46a7.77 7.77 0 1 1 .1-15.53 7.59 7.59 0 0 1 7.4 7.81 7.67 7.67 0 0 1-7.5 7.72zM23.08 317.49a7.64 7.64 0 0 1-7.63 7.58 7.76 7.76 0 0 1 .34-15.51 7.69 7.69 0 0 1 7.29 7.93zM485.83 339.15a7.56 7.56 0 0 1 7.8 7.38 7.66 7.66 0 0 1-7.33 7.88 7.76 7.76 0 0 1-8.08-7.67 7.65 7.65 0 0 1 7.61-7.59zM360.63 23.43a7.7 7.7 0 1 1-7.55 7.6 7.49 7.49 0 0 1 7.55-7.6zM25.21 339.25a7.74 7.74 0 0 1 7.64 8 7.72 7.72 0 0 1-15.43-.71 7.56 7.56 0 0 1 7.79-7.29zM208.94 19.85a8 8 0 0 1-7.94-7.42 7.73 7.73 0 1 1 15.46-.33 7.89 7.89 0 0 1-7.52 7.75zM178.76 27.64a8 8 0 0 1-7.94-7.44 7.78 7.78 0 1 1 15.55-.36 8.09 8.09 0 0 1-7.61 7.8zM240 510.47a7.69 7.69 0 1 1 7.65-7.52 7.51 7.51 0 0 1-7.65 7.52zM509 286.82a7.77 7.77 0 0 1-7.73 7.52 7.68 7.68 0 0 1-7.51-8.18 7.54 7.54 0 0 1 7.92-7.24 7.68 7.68 0 0 1 7.32 7.9zM186.69 491.52a7.63 7.63 0 0 1-7.75 7.44 7.79 7.79 0 0 1-7.51-8.24 7.41 7.41 0 0 1 8-7.11 7.59 7.59 0 0 1 7.26 7.91zM15.19 186.49a7.63 7.63 0 1 1 .14 15.26 7.63 7.63 0 0 1-.14-15.26zM495.36 309.42a7.73 7.73 0 1 1-7.42 7.79 7.61 7.61 0 0 1 7.42-7.79zM46 374.86a7.61 7.61 0 0 1-15.21.55 7.61 7.61 0 1 1 15.21-.55zM495.45 185.69a7.66 7.66 0 0 1 7.61 7.6 7.59 7.59 0 0 1-7.86 7.8 7.49 7.49 0 0 1-7.34-7.8 7.62 7.62 0 0 1 7.59-7.6zM368.72 479.87a7.7 7.7 0 0 1-15.39 0 7.73 7.73 0 0 1 8-7.76 7.61 7.61 0 0 1 7.39 7.76zM149.78 472.1a7.72 7.72 0 0 1 7.93 7.27 7.64 7.64 0 1 1-15.27.55 7.6 7.6 0 0 1 7.34-7.82zM480.25 374.93a7.46 7.46 0 0 1-7.51 7.6 7.65 7.65 0 1 1 .08-15.29 7.52 7.52 0 0 1 7.43 7.69zM509 224.1a7.65 7.65 0 1 1-15.29-.54 7.39 7.39 0 0 1 7.87-7.23 7.65 7.65 0 0 1 7.42 7.77zM331.94 27.23a7.35 7.35 0 0 1-7.8-7.25 7.57 7.57 0 0 1 7.16-8 7.67 7.67 0 0 1 8.09 7.58 7.45 7.45 0 0 1-7.45 7.67zM271.3 495.09a7.64 7.64 0 0 1 7.46 7.74 7.42 7.42 0 0 1-7.56 7.56 7.56 7.56 0 0 1-7.73-7.92 7.68 7.68 0 0 1 7.83-7.38zM17.27 287a7.52 7.52 0 0 1-7.66 7.48A7.72 7.72 0 0 1 2 286.34a7.55 7.55 0 0 1 8-7.17 7.38 7.38 0 0 1 7.27 7.83zM45.9 136.22a7.66 7.66 0 0 1-7.48 7.71 7.35 7.35 0 0 1-7.82-7.25 7.65 7.65 0 1 1 15.3-.46z"/></g></svg>