<svg 
 xmlns="http://www.w3.org/2000/svg"
 xmlns:xlink="http://www.w3.org/1999/xlink"
 width="329px" height="470px">
<defs>
<linearGradient id="PSgrad_0" x1="0%" x2="70.711%" y1="70.711%" y2="0%">
  <stop offset="0%" stop-color="rgb(230,118,79)" stop-opacity="1" />
  <stop offset="51%" stop-color="rgb(255,149,208)" stop-opacity="1" />
  <stop offset="100%" stop-color="rgb(255,240,90)" stop-opacity="1" />
</linearGradient>
<linearGradient id="PSgrad_1" x1="0%" x2="70.711%" y1="70.711%" y2="0%">
  <stop offset="0%" stop-color="rgb(109,89,202)" stop-opacity="1" />
  <stop offset="51%" stop-color="rgb(55,159,214)" stop-opacity="1" />
  <stop offset="100%" stop-color="rgb(174,252,254)" stop-opacity="1" />
</linearGradient>

</defs>
<path fill-rule="evenodd"  fill="url(#PSgrad_0)"
 d="M290.976,171.519 L289.392,268.108 L165.093,192.895 L2.000,291.068 L165.093,387.657 L328.187,294.235 L328.187,148.558 L290.976,171.519 ZM165.885,339.362 L83.547,290.276 L165.885,242.774 L245.056,290.276 L165.885,339.362 Z"/>
<path fill-rule="evenodd"  fill="url(#PSgrad_1)"
 d="M37.441,216.183 L39.024,119.595 L163.323,194.808 L326.417,96.635 L163.323,0.046 L0.230,93.468 L0.230,239.143 L37.441,216.183 ZM162.532,48.340 L244.870,97.426 L162.532,144.930 L83.360,97.426 L162.532,48.340 Z"/>
<path fill-rule="evenodd"  fill="rgb(64, 64, 64)"
 d="M315.810,428.196 C314.111,427.774 312.439,427.563 310.795,427.563 C308.840,427.563 307.341,428.018 306.297,428.929 C305.253,429.840 304.731,431.028 304.731,432.494 C304.731,433.405 304.942,434.199 305.364,434.876 C305.786,435.554 306.458,436.209 307.380,436.842 C308.302,437.475 310.484,438.614 313.927,440.257 C318.481,442.435 321.602,444.617 323.290,446.805 C324.978,448.993 325.823,451.675 325.823,454.852 C325.823,459.250 324.240,462.715 321.075,465.247 C317.909,467.780 313.505,469.046 307.863,469.046 C302.665,469.046 298.067,468.069 294.069,466.114 L294.069,456.518 C297.356,457.984 300.138,459.017 302.415,459.616 C304.692,460.216 306.775,460.516 308.663,460.516 C310.929,460.516 312.667,460.083 313.877,459.216 C315.088,458.350 315.693,457.062 315.693,455.351 C315.693,454.397 315.427,453.547 314.894,452.802 C314.361,452.058 313.578,451.342 312.545,450.653 C311.512,449.965 309.407,448.865 306.231,447.355 C303.254,445.955 301.021,444.611 299.533,443.323 C298.045,442.035 296.856,440.535 295.968,438.825 C295.079,437.114 294.635,435.115 294.635,432.827 C294.635,428.518 296.096,425.130 299.017,422.664 C301.937,420.199 305.975,418.966 311.129,418.966 C313.661,418.966 316.077,419.266 318.376,419.866 C320.675,420.465 323.079,421.310 325.589,422.398 L322.257,430.428 C319.659,429.362 317.509,428.618 315.810,428.196 ZM258.850,419.666 L286.905,419.666 L286.905,428.129 L269.179,428.129 L269.179,438.825 L285.672,438.825 L285.672,447.288 L269.179,447.288 L269.179,459.850 L286.905,459.850 L286.905,468.379 L258.850,468.379 L258.850,419.666 ZM220.632,419.666 L248.687,419.666 L248.687,428.129 L230.961,428.129 L230.961,438.825 L247.454,438.825 L247.454,447.288 L230.961,447.288 L230.961,459.850 L248.687,459.850 L248.687,468.379 L220.632,468.379 L220.632,419.666 ZM199.907,468.379 L189.577,468.379 L189.577,428.262 L176.349,428.262 L176.349,419.666 L213.135,419.666 L213.135,428.262 L199.907,428.262 L199.907,468.379 ZM134.533,431.528 L134.233,431.528 C134.655,438.036 134.866,442.679 134.866,445.455 L134.866,468.379 L125.636,468.379 L125.636,419.666 L138.665,419.666 L159.823,456.151 L160.056,456.151 C159.723,449.820 159.556,445.344 159.556,442.723 L159.556,419.666 L168.852,419.666 L168.852,468.379 L155.724,468.379 L134.533,431.528 ZM92.350,469.046 C84.886,469.046 79.155,466.880 75.157,462.548 C71.158,458.217 69.159,451.997 69.159,443.889 C69.159,435.782 71.164,429.590 75.173,425.313 C79.183,421.038 84.930,418.899 92.416,418.899 C99.902,418.899 105.628,421.054 109.593,425.363 C113.558,429.673 115.541,435.871 115.541,443.956 C115.541,452.019 113.541,458.217 109.543,462.548 C105.545,466.880 99.813,469.046 92.350,469.046 ZM92.416,427.496 C88.307,427.496 85.208,428.879 83.120,431.644 C81.032,434.410 79.988,438.514 79.988,443.956 C79.988,449.399 81.021,453.497 83.087,456.251 C85.153,459.006 88.240,460.383 92.350,460.383 C100.591,460.383 104.712,454.907 104.712,443.956 C104.712,432.983 100.613,427.496 92.416,427.496 ZM49.434,445.322 C49.434,444.234 49.450,442.979 49.484,441.557 C49.517,440.136 49.667,436.359 49.934,430.228 L49.634,430.228 L37.072,468.379 L27.609,468.379 L15.881,430.161 L15.581,430.161 C16.002,437.936 16.214,443.123 16.214,445.722 L16.214,468.379 L6.984,468.379 L6.984,419.666 L21.045,419.666 L32.574,456.917 L32.774,456.917 L45.002,419.666 L59.063,419.666 L59.063,468.379 L49.434,468.379 L49.434,445.322 Z"/>
</svg>