<svg xmlns="http://www.w3.org/2000/svg" viewBox="0 0 370.2 512"><path d="M206.1 512h-42c-8.3-.7-16.6-1.3-24.8-2.2-42.4-4.4-83.6-14-123.4-29.5C4.8 476 0 469.5 0 457.7v-55-135.4c0-12.4 4.7-19 16.5-23.2 3.9-1.4 7.8-3.1 11.8-4.1 5.4-1.3 7.3-4.2 7.2-9.9-.3-25.3-.1-50.6-.1-76 0-25.7 4.8-50.3 16.9-73.1C72.4 43.2 103 17.8 144.4 6c10-2.9 20.5-4 30.7-6h20c.8.2 1.6.6 2.4.7 14.7 1.2 28.9 4.4 42.6 10 39.6 16.2 67.5 44.1 84 83.6 8.5 20.5 11 42 10.9 64-.1 24 .1 48-.2 72-.1 5.3 1.3 8.4 6.7 9.7 4.8 1.2 9.4 3.2 14.1 5 9.5 3.5 14.6 10.4 14.6 20.5.1 64.6.1 129.3 0 193.9 0 9.9-4.9 16.9-14 20.4-38.6 15-78.5 25.1-119.8 29.4-10.1.9-20.2 1.8-30.3 2.8zm76.8-288.5c.2-1.6.4-2.6.4-3.5 0-24.1.4-48.3-.2-72.4-1.2-52-41.4-92.9-93.3-95.7C135.3 49 88.4 92 87.1 146.6c-.5 24.4-.1 48.9-.1 73.4 0 1 .2 1.9.4 3.5 65.2-13.8 130.2-13.8 195.5 0zM164.8 394.2h.2c0 11-.3 22 .1 33 .3 8.7 5.1 14.7 13.2 17.7 13.6 5.1 27-4.7 27.2-20 .2-20.5.1-41 0-61.4 0-3.5 1-5.6 4-7.8 14.8-10.7 19.9-27.8 14-45.7-5.2-15.6-21.5-27.1-38.3-27-17.1.1-32.9 11.5-38.1 27.2-5.8 17.8-.6 34.8 14.3 45.6 2.8 2 3.7 4.1 3.7 7.4-.4 10.4-.3 20.7-.3 31z" fill="#5f57a2" stroke="#2c3189" stroke-miterlimit="10"/></svg>