<?xml version="1.0" encoding="utf-8"?>
<!-- Generator: Adobe Illustrator 24.1.2, SVG Export Plug-In . SVG Version: 6.00 Build 0)  -->
<svg version="1.1" id="Слой_1" xmlns="http://www.w3.org/2000/svg" xmlns:xlink="http://www.w3.org/1999/xlink" x="0px" y="0px"
	 viewBox="0 0 370.2 512" style="enable-background:new 0 0 370.2 512;" xml:space="preserve">
<style type="text/css">
	.st0{fill:#5F57A2;stroke:#2C3189;stroke-miterlimit:10;}
</style>
<g id="eP6PXE.tif">
	<g>
		<path class="st0" d="M206.1,512c-14,0-28,0-42,0c-8.3-0.7-16.6-1.3-24.8-2.2c-42.4-4.4-83.6-14-123.4-29.5
			C4.8,476,0,469.5,0,457.7c0-18.3,0-36.6,0-55c0-45.1,0-90.3,0-135.4c0-12.4,4.7-19,16.5-23.2c3.9-1.4,7.8-3.1,11.8-4.1
			c5.4-1.3,7.3-4.2,7.2-9.9c-0.3-25.3-0.1-50.6-0.1-76c0-25.7,4.8-50.3,16.9-73.1C72.4,43.2,103,17.8,144.4,6c10-2.9,20.5-4,30.7-6
			c6.7,0,13.3,0,20,0c0.8,0.2,1.6,0.6,2.4,0.7c14.7,1.2,28.9,4.4,42.6,10c39.6,16.2,67.5,44.1,84,83.6c8.5,20.5,11,42,10.9,64
			c-0.1,24,0.1,48-0.2,72c-0.1,5.3,1.3,8.4,6.7,9.7c4.8,1.2,9.4,3.2,14.1,5c9.5,3.5,14.6,10.4,14.6,20.5c0.1,64.6,0.1,129.3,0,193.9
			c0,9.9-4.9,16.9-14,20.4c-38.6,15-78.5,25.1-119.8,29.4C226.3,510.1,216.2,511,206.1,512z M282.9,223.5c0.2-1.6,0.4-2.6,0.4-3.5
			c0-24.1,0.4-48.3-0.2-72.4c-1.2-52-41.4-92.9-93.3-95.7c-54.5-2.9-101.4,40.1-102.7,94.7C86.6,171,87,195.5,87,220
			c0,1,0.2,1.9,0.4,3.5C152.6,209.7,217.6,209.7,282.9,223.5z M164.8,394.2c0.1,0,0.1,0,0.2,0c0,11-0.3,22,0.1,33
			c0.3,8.7,5.1,14.7,13.2,17.7c13.6,5.1,27-4.7,27.2-20c0.2-20.5,0.1-41,0-61.4c0-3.5,1-5.6,4-7.8c14.8-10.7,19.9-27.8,14-45.7
			c-5.2-15.6-21.5-27.1-38.3-27c-17.1,0.1-32.9,11.5-38.1,27.2c-5.8,17.8-0.6,34.8,14.3,45.6c2.8,2,3.7,4.1,3.7,7.4
			C164.7,373.6,164.8,383.9,164.8,394.2z"/>
	</g>
</g>
</svg>
