<svg xmlns="http://www.w3.org/2000/svg" version="1.1" xmlns:xlink="http://www.w3.org/1999/xlink" xmlns:svgjs="http://svgjs.com/svgjs" width="48" height="48"><svg width="48" height="48" viewBox="0 0 48 48" fill="none" xmlns="http://www.w3.org/2000/svg">
<path d="M24.0594 40.0999C24.8605 40.0999 25.6616 40.3592 26.3182 40.891C26.6465 41.1503 26.9354 41.4746 27.1586 41.8506C27.3819 42.2267 27.5526 42.6547 27.6183 43.1216C27.6839 43.5755 27.6708 44.0683 27.5395 44.5352C27.4082 45.0021 27.1718 45.469 26.8435 45.858C26.5152 46.2471 26.0949 46.5713 25.609 46.7918C25.1363 47.0122 24.5978 47.129 24.0726 47.129C23.9412 47.129 23.8099 47.116 23.6786 47.103C23.5473 47.0901 23.4159 47.0641 23.2846 47.0382C23.1533 47.0122 23.0351 46.9733 22.9038 46.9344C22.7856 46.8955 22.6543 46.8437 22.5361 46.7918C22.0633 46.5713 21.63 46.2471 21.3016 45.858C20.9733 45.469 20.737 45.015 20.6056 44.5482C20.4743 44.0813 20.4612 43.5885 20.5268 43.1346C20.5925 42.6806 20.7501 42.2397 20.9865 41.8636C21.2097 41.4875 21.4986 41.1633 21.8269 40.9039C22.4704 40.3592 23.2715 40.0999 24.0594 40.0999ZM24.0594 40.2166C23.2846 40.2166 22.5361 40.5408 21.9977 41.0725C21.4592 41.6042 21.1572 42.3564 21.1572 43.1086C21.1572 43.8608 21.4724 44.6 22.0239 45.1188C22.5623 45.6505 23.3109 45.9488 24.0594 45.9358C24.808 45.9488 25.5696 45.6376 26.0949 45.1188C26.6334 44.6 26.9485 43.8608 26.9617 43.1086C26.9748 42.3564 26.6596 41.6042 26.1212 41.0725C25.5959 40.5278 24.8342 40.2166 24.0594 40.2166Z" fill="#254EF5"></path>
<path d="M7.79846 6.32861C5.6185 8.71488 4.3578 11.4254 4.56792 14.7065C4.77803 17.9746 6.36704 20.5165 8.82277 22.6175C8.00857 22.4878 7.22064 22.2673 6.4721 21.969C2.78193 20.5036 0.707026 17.7801 0.116074 13.9284C-0.277895 11.3216 0.601969 9.12989 2.42736 7.26237C2.47988 7.2105 2.59807 7.17159 2.66374 7.19753C4.50225 7.79409 6.18319 7.52175 7.73279 6.38049C7.74593 6.36752 7.77219 6.34158 7.79846 6.32861Z" fill="#254EF5"></path>
<path d="M9.02113 0.0517578C9.84847 1.27083 9.84847 3.51444 8.69283 4.92805C7.26141 6.69181 4.98953 7.08088 3.30859 6.4454C3.6369 6.16009 3.95207 5.90071 4.25412 5.62836C4.95013 5.01883 5.6724 4.43523 6.34215 3.81272C7.13009 3.08647 7.8261 2.29537 8.36452 1.36161C8.62717 0.946609 8.81102 0.492699 9.02113 0.0517578Z" fill="#254EF5"></path>
<path d="M19.4772 40.2942C19.4641 40.2034 19.4247 40.0997 19.4247 40.0089C19.3984 38.9065 19.1489 37.856 18.5842 36.9093C18.2953 36.4295 17.9145 35.9885 17.5468 35.5606C17.4154 35.4049 17.3366 35.2752 17.3235 35.0807C17.2053 33.0705 16.6669 31.1771 15.7082 29.4004C15.4062 28.8427 15.0516 28.3239 14.7233 27.7922C14.6839 27.7403 14.6577 27.6755 14.6445 27.5847C14.7233 27.6496 14.8021 27.7144 14.8809 27.7792C17.3629 30.0229 19.0044 32.7333 19.6479 36.0145C19.9106 37.3632 19.8974 38.725 19.6217 40.0737C19.6085 40.1515 19.5691 40.2164 19.556 40.2942C19.5429 40.2812 19.5035 40.2942 19.4772 40.2942Z" fill="#254EF5"></path>
<path d="M40.6445 20.0107C40.001 20.9445 39.1474 21.6967 38.3069 22.4618C36.9674 23.6679 35.4441 24.5369 33.7894 25.1983C33.5005 25.315 33.2116 25.4187 32.949 25.5614C31.7802 26.2358 30.6245 26.9231 29.4558 27.5975C28.9961 27.8699 28.5234 28.1422 28.0638 28.4145C28.1032 28.4405 28.1294 28.4275 28.1557 28.4275C29.8366 27.9477 31.5044 27.4548 33.1853 26.975C33.2904 26.9491 33.4086 26.9231 33.5137 26.8972C33.5268 26.9231 33.5268 26.9361 33.5399 26.962C33.4743 27.0139 33.4086 27.0658 33.3429 27.1177C32.1348 28.0514 31.071 29.1278 30.178 30.3728C28.0769 33.3038 26.9475 36.5071 27.4465 40.1513C27.4991 40.5404 27.4597 40.9165 27.1708 41.1759C26.895 41.4353 26.5798 41.6687 26.2384 41.8373C25.5161 42.1745 24.7413 42.2523 23.9534 42.2264C23.1654 42.2523 22.3906 42.1875 21.6683 41.8373C21.3269 41.6817 21.0117 41.4353 20.7359 41.1759C20.4602 40.9035 20.4076 40.5404 20.4602 40.1513C20.9592 36.5071 19.8298 33.3038 17.7287 30.3728C16.8357 29.1278 15.7719 28.0514 14.5638 27.1177C14.4981 27.0658 14.4324 27.0139 14.3668 26.962C14.3799 26.9361 14.3799 26.9231 14.3931 26.8972C14.4981 26.9231 14.6163 26.9361 14.7214 26.975C16.4023 27.4548 18.0701 27.9347 19.751 28.4275C19.7773 28.4405 19.8036 28.4405 19.8429 28.4145C19.3833 28.1422 18.9106 27.8699 18.4509 27.5975C17.2822 26.9102 16.1265 26.2228 14.9577 25.5614C14.6951 25.4058 14.4062 25.315 14.1173 25.1983C12.4626 24.5369 10.9261 23.6679 9.59977 22.4618C8.75931 21.6967 7.90571 20.9445 7.26223 20.0107C6.23791 18.5323 5.64696 16.9112 5.72575 15.0826C5.73888 14.6805 5.80454 14.2915 5.85707 13.8765C5.92274 13.9024 5.949 13.9024 5.949 13.9154C6.56622 15.329 7.72186 16.146 9.12701 16.6518C10.5453 17.1706 12.0292 17.4818 13.5263 17.7152C16.9801 18.2599 20.4602 18.4415 23.9534 18.4674C27.4465 18.4415 30.9266 18.2599 34.3804 17.7152C35.8775 17.4818 37.3483 17.1706 38.7797 16.6518C40.1848 16.146 41.3405 15.316 41.9577 13.9154C41.9577 13.9024 41.984 13.9024 42.0496 13.8765C42.089 14.2915 42.1547 14.6805 42.181 15.0826C42.2597 16.9112 41.6688 18.5323 40.6445 20.0107Z" fill="#254EF5"></path>
<path d="M40.1337 6.32861C42.3137 8.71488 43.5744 11.4254 43.3642 14.7065C43.1541 17.9746 41.5651 20.5165 39.1094 22.6175C39.9236 22.4878 40.7115 22.2673 41.4601 21.969C45.1502 20.5036 47.2251 17.7801 47.8161 13.9284C48.21 11.3216 47.3302 9.12989 45.5048 7.26237C45.4523 7.2105 45.3341 7.17159 45.2684 7.19753C43.4299 7.79409 41.749 7.52175 40.1994 6.38049C40.1862 6.36752 40.16 6.34158 40.1337 6.32861Z" fill="#254EF5"></path>
<path d="M38.9088 0.0517578C38.0815 1.27083 38.0815 3.51444 39.2371 4.92805C40.6685 6.69181 42.9404 7.08088 44.6213 6.4454C44.293 6.16009 43.9779 5.90071 43.6758 5.62836C42.9798 5.01883 42.2575 4.43523 41.5878 3.81272C40.7999 3.08647 40.1038 2.29537 39.5654 1.36161C39.3028 0.946609 39.1189 0.492699 38.9088 0.0517578Z" fill="#254EF5"></path>
<path d="M28.4574 40.2942C28.4706 40.2034 28.51 40.0997 28.51 40.0089C28.5362 38.9065 28.7857 37.856 29.3504 36.9093C29.6393 36.4295 30.0202 35.9885 30.3879 35.5606C30.5192 35.4049 30.598 35.2752 30.6111 35.0807C30.7293 33.0705 31.2677 31.1771 32.2264 29.4004C32.5284 28.8427 32.883 28.3239 33.2113 27.7922C33.2507 27.7403 33.277 27.6755 33.2901 27.5847C33.2113 27.6496 33.1325 27.7144 33.0537 27.7792C30.5717 30.0229 28.9302 32.7333 28.2867 36.0145C28.0241 37.3632 28.0372 38.725 28.313 40.0737C28.3261 40.1515 28.3655 40.2164 28.3786 40.2942C28.3918 40.2812 28.418 40.2942 28.4574 40.2942Z" fill="#254EF5"></path>
</svg><style>@media (prefers-color-scheme: light) { :root { filter: none; } }
</style></svg>