<svg width="233" height="70" viewBox="0 0 233 70" fill="none" xmlns="http://www.w3.org/2000/svg">
<path d="M52.6562 66L51.4121 62.8213H47.4062L46.1758 66H45L48.9512 55.9648H49.9287L53.8594 66H52.6562ZM51.0498 61.7754L49.8877 58.6787C49.7373 58.2868 49.5824 57.806 49.4229 57.2363C49.3226 57.6738 49.179 58.1546 48.9922 58.6787L47.8164 61.7754H51.0498ZM61.1396 60.3877C61.1396 60.8753 60.9984 61.2467 60.7158 61.502C60.4378 61.7526 60.0459 61.9212 59.54 62.0078V62.0693C60.1781 62.1559 60.6429 62.3428 60.9346 62.6299C61.2308 62.917 61.3789 63.3135 61.3789 63.8193C61.3789 64.5166 61.1214 65.0544 60.6064 65.4326C60.096 65.8109 59.3486 66 58.3643 66H55.0625V58.5078H58.3506C60.21 58.5078 61.1396 59.1344 61.1396 60.3877ZM60.2441 63.7441C60.2441 63.3385 60.0892 63.0446 59.7793 62.8623C59.474 62.6755 58.9658 62.582 58.2549 62.582H56.1973V65.0498H58.2822C59.5902 65.0498 60.2441 64.6146 60.2441 63.7441ZM60.0322 60.4971C60.0322 60.1325 59.891 59.875 59.6084 59.7246C59.3304 59.5697 58.9066 59.4922 58.3369 59.4922H56.1973V61.6045H58.1182C58.82 61.6045 59.3145 61.5179 59.6016 61.3447C59.8887 61.1715 60.0322 60.889 60.0322 60.4971ZM68.085 59.4785H65.6514V66H64.5166V59.4785H62.1104V58.5078H68.085V59.4785ZM76.0352 62.2471C76.0352 63.4684 75.7275 64.4232 75.1123 65.1113C74.4971 65.7949 73.6471 66.1367 72.5625 66.1367C71.8926 66.1367 71.2979 65.9795 70.7783 65.665C70.2588 65.3506 69.8577 64.8994 69.5752 64.3115C69.2926 63.7236 69.1514 63.0355 69.1514 62.2471C69.1514 61.0257 69.4567 60.0755 70.0674 59.3965C70.6781 58.7129 71.5257 58.3711 72.6104 58.3711C73.6585 58.3711 74.4902 58.7197 75.1055 59.417C75.7253 60.1143 76.0352 61.0576 76.0352 62.2471ZM70.3271 62.2471C70.3271 63.2041 70.5186 63.9333 70.9014 64.4346C71.2842 64.9359 71.847 65.1865 72.5898 65.1865C73.3327 65.1865 73.8955 64.9382 74.2783 64.4414C74.6657 63.9401 74.8594 63.2087 74.8594 62.2471C74.8594 61.2946 74.6657 60.5723 74.2783 60.0801C73.8955 59.5833 73.3281 59.335 72.5762 59.335C71.8333 59.335 71.2728 59.5788 70.8945 60.0664C70.5163 60.554 70.3271 61.2809 70.3271 62.2471ZM81.0254 66.1367C79.9408 66.1367 79.0999 65.804 78.5029 65.1387C77.9105 64.4688 77.6143 63.5231 77.6143 62.3018C77.6143 61.0485 77.915 60.0801 78.5166 59.3965C79.1227 58.7129 79.984 58.3711 81.1006 58.3711C81.4606 58.3711 81.8206 58.4098 82.1807 58.4873C82.5407 58.5648 82.8232 58.6559 83.0283 58.7607L82.6797 59.7246C82.429 59.6243 82.1556 59.5423 81.8594 59.4785C81.5632 59.4102 81.3011 59.376 81.0732 59.376C79.5511 59.376 78.79 60.3467 78.79 62.2881C78.79 63.2087 78.9746 63.915 79.3438 64.4072C79.7174 64.8994 80.2689 65.1455 80.998 65.1455C81.6224 65.1455 82.2627 65.0111 82.9189 64.7422V65.7471C82.4176 66.0068 81.7865 66.1367 81.0254 66.1367ZM87.8682 66.1367C86.7607 66.1367 85.8857 65.7995 85.2432 65.125C84.6051 64.4505 84.2861 63.514 84.2861 62.3154C84.2861 61.1077 84.5824 60.1484 85.1748 59.4375C85.7718 58.7266 86.5716 58.3711 87.5742 58.3711C88.513 58.3711 89.2559 58.681 89.8027 59.3008C90.3496 59.916 90.623 60.7295 90.623 61.7412V62.459H85.4619C85.4847 63.3385 85.7057 64.0062 86.125 64.4619C86.5488 64.9176 87.1436 65.1455 87.9092 65.1455C88.7158 65.1455 89.5133 64.9769 90.3018 64.6396V65.6514C89.9007 65.8245 89.5202 65.9476 89.1602 66.0205C88.8047 66.098 88.374 66.1367 87.8682 66.1367ZM87.5605 59.3213C86.959 59.3213 86.4782 59.5173 86.1182 59.9092C85.7627 60.3011 85.5531 60.8434 85.4893 61.5361H89.4062C89.4062 60.8206 89.2467 60.2738 88.9277 59.8955C88.6087 59.5127 88.153 59.3213 87.5605 59.3213ZM96.0508 66.1367C95.5632 66.1367 95.1165 66.0479 94.7109 65.8701C94.3099 65.6878 93.9727 65.4098 93.6992 65.0361H93.6172C93.6719 65.4736 93.6992 65.8883 93.6992 66.2803V69.3633H92.5645V58.5078H93.4873L93.6445 59.5332H93.6992C93.9909 59.123 94.3304 58.8268 94.7178 58.6445C95.1051 58.4622 95.5495 58.3711 96.0508 58.3711C97.0443 58.3711 97.8099 58.7106 98.3477 59.3896C98.89 60.0687 99.1611 61.0212 99.1611 62.2471C99.1611 63.4775 98.8854 64.4346 98.334 65.1182C97.7871 65.7972 97.026 66.1367 96.0508 66.1367ZM95.8867 59.335C95.1211 59.335 94.5674 59.5469 94.2256 59.9707C93.8838 60.3945 93.7083 61.069 93.6992 61.9941V62.2471C93.6992 63.2998 93.8747 64.054 94.2256 64.5098C94.5765 64.9609 95.1393 65.1865 95.9141 65.1865C96.5612 65.1865 97.0671 64.9245 97.4316 64.4004C97.8008 63.8763 97.9854 63.154 97.9854 62.2334C97.9854 61.2992 97.8008 60.5837 97.4316 60.0869C97.0671 59.5856 96.5521 59.335 95.8867 59.335ZM107.228 60.3877C107.228 60.8753 107.086 61.2467 106.804 61.502C106.526 61.7526 106.134 61.9212 105.628 62.0078V62.0693C106.266 62.1559 106.731 62.3428 107.022 62.6299C107.319 62.917 107.467 63.3135 107.467 63.8193C107.467 64.5166 107.209 65.0544 106.694 65.4326C106.184 65.8109 105.437 66 104.452 66H101.15V58.5078H104.438C106.298 58.5078 107.228 59.1344 107.228 60.3877ZM106.332 63.7441C106.332 63.3385 106.177 63.0446 105.867 62.8623C105.562 62.6755 105.054 62.582 104.343 62.582H102.285V65.0498H104.37C105.678 65.0498 106.332 64.6146 106.332 63.7441ZM106.12 60.4971C106.12 60.1325 105.979 59.875 105.696 59.7246C105.418 59.5697 104.994 59.4922 104.425 59.4922H102.285V61.6045H104.206C104.908 61.6045 105.402 61.5179 105.689 61.3447C105.977 61.1715 106.12 60.889 106.12 60.4971ZM110.188 58.5078V63.2588L110.14 64.5029L110.119 64.8926L114.173 58.5078H115.588V66H114.528V61.4199L114.549 60.5176L114.583 59.6289L110.536 66H109.121V58.5078H110.188ZM120.988 66.1367C119.904 66.1367 119.063 65.804 118.466 65.1387C117.873 64.4688 117.577 63.5231 117.577 62.3018C117.577 61.0485 117.878 60.0801 118.479 59.3965C119.086 58.7129 119.947 58.3711 121.063 58.3711C121.424 58.3711 121.784 58.4098 122.144 58.4873C122.504 58.5648 122.786 58.6559 122.991 58.7607L122.643 59.7246C122.392 59.6243 122.118 59.5423 121.822 59.4785C121.526 59.4102 121.264 59.376 121.036 59.376C119.514 59.376 118.753 60.3467 118.753 62.2881C118.753 63.2087 118.938 63.915 119.307 64.4072C119.68 64.8994 120.232 65.1455 120.961 65.1455C121.585 65.1455 122.226 65.0111 122.882 64.7422V65.7471C122.381 66.0068 121.749 66.1367 120.988 66.1367ZM134.38 60.3877C134.38 60.8753 134.239 61.2467 133.956 61.502C133.678 61.7526 133.286 61.9212 132.78 62.0078V62.0693C133.418 62.1559 133.883 62.3428 134.175 62.6299C134.471 62.917 134.619 63.3135 134.619 63.8193C134.619 64.5166 134.362 65.0544 133.847 65.4326C133.336 65.8109 132.589 66 131.604 66H128.303V58.5078H131.591C133.45 58.5078 134.38 59.1344 134.38 60.3877ZM133.484 63.7441C133.484 63.3385 133.329 63.0446 133.02 62.8623C132.714 62.6755 132.206 62.582 131.495 62.582H129.438V65.0498H131.522C132.83 65.0498 133.484 64.6146 133.484 63.7441ZM133.272 60.4971C133.272 60.1325 133.131 59.875 132.849 59.7246C132.571 59.5697 132.147 59.4922 131.577 59.4922H129.438V61.6045H131.358C132.06 61.6045 132.555 61.5179 132.842 61.3447C133.129 61.1715 133.272 60.889 133.272 60.4971ZM148.756 60.9893C148.756 62.5889 148.35 63.8467 147.539 64.7627C146.732 65.6787 145.609 66.1367 144.169 66.1367C142.697 66.1367 141.56 65.6878 140.758 64.79C139.96 63.8877 139.562 62.6162 139.562 60.9756C139.562 59.3486 139.963 58.0885 140.765 57.1953C141.567 56.2975 142.706 55.8486 144.183 55.8486C145.618 55.8486 146.739 56.3044 147.546 57.2158C148.353 58.1273 148.756 59.3851 148.756 60.9893ZM140.792 60.9893C140.792 62.3428 141.079 63.3704 141.653 64.0723C142.232 64.7695 143.071 65.1182 144.169 65.1182C145.276 65.1182 146.113 64.7695 146.678 64.0723C147.243 63.375 147.525 62.3473 147.525 60.9893C147.525 59.6449 147.243 58.6263 146.678 57.9336C146.117 57.2363 145.285 56.8877 144.183 56.8877C143.075 56.8877 142.232 57.2386 141.653 57.9404C141.079 58.6377 140.792 59.654 140.792 60.9893ZM157.328 68.5908H156.228V66H150.991V68.5908H149.897V65.0225H150.485C151.096 64.193 151.575 63.2201 151.921 62.1035C152.267 60.987 152.447 59.7884 152.461 58.5078H156.255V65.0225H157.328V68.5908ZM155.161 65.0225V59.4033H153.479C153.42 60.415 153.224 61.4404 152.892 62.4795C152.563 63.514 152.153 64.3617 151.661 65.0225H155.161ZM161.997 66.1367C160.89 66.1367 160.015 65.7995 159.372 65.125C158.734 64.4505 158.415 63.514 158.415 62.3154C158.415 61.1077 158.711 60.1484 159.304 59.4375C159.901 58.7266 160.701 58.3711 161.703 58.3711C162.642 58.3711 163.385 58.681 163.932 59.3008C164.479 59.916 164.752 60.7295 164.752 61.7412V62.459H159.591C159.614 63.3385 159.835 64.0062 160.254 64.4619C160.678 64.9176 161.272 65.1455 162.038 65.1455C162.845 65.1455 163.642 64.9769 164.431 64.6396V65.6514C164.03 65.8245 163.649 65.9476 163.289 66.0205C162.934 66.098 162.503 66.1367 161.997 66.1367ZM161.689 59.3213C161.088 59.3213 160.607 59.5173 160.247 59.9092C159.892 60.3011 159.682 60.8434 159.618 61.5361H163.535C163.535 60.8206 163.376 60.2738 163.057 59.8955C162.738 59.5127 162.282 59.3213 161.689 59.3213ZM169.688 66.1367C168.603 66.1367 167.762 65.804 167.165 65.1387C166.573 64.4688 166.276 63.5231 166.276 62.3018C166.276 61.0485 166.577 60.0801 167.179 59.3965C167.785 58.7129 168.646 58.3711 169.763 58.3711C170.123 58.3711 170.483 58.4098 170.843 58.4873C171.203 58.5648 171.485 58.6559 171.69 58.7607L171.342 59.7246C171.091 59.6243 170.818 59.5423 170.521 59.4785C170.225 59.4102 169.963 59.376 169.735 59.376C168.213 59.376 167.452 60.3467 167.452 62.2881C167.452 63.2087 167.637 63.915 168.006 64.4072C168.38 64.8994 168.931 65.1455 169.66 65.1455C170.285 65.1455 170.925 65.0111 171.581 64.7422V65.7471C171.08 66.0068 170.449 66.1367 169.688 66.1367ZM176.359 66.1367C175.275 66.1367 174.434 65.804 173.837 65.1387C173.244 64.4688 172.948 63.5231 172.948 62.3018C172.948 61.0485 173.249 60.0801 173.851 59.3965C174.457 58.7129 175.318 58.3711 176.435 58.3711C176.795 58.3711 177.155 58.4098 177.515 58.4873C177.875 58.5648 178.157 58.6559 178.362 58.7607L178.014 59.7246C177.763 59.6243 177.49 59.5423 177.193 59.4785C176.897 59.4102 176.635 59.376 176.407 59.376C174.885 59.376 174.124 60.3467 174.124 62.2881C174.124 63.2087 174.309 63.915 174.678 64.4072C175.051 64.8994 175.603 65.1455 176.332 65.1455C176.956 65.1455 177.597 65.0111 178.253 64.7422V65.7471C177.752 66.0068 177.12 66.1367 176.359 66.1367ZM183.202 66.1367C182.095 66.1367 181.22 65.7995 180.577 65.125C179.939 64.4505 179.62 63.514 179.62 62.3154C179.62 61.1077 179.916 60.1484 180.509 59.4375C181.106 58.7266 181.906 58.3711 182.908 58.3711C183.847 58.3711 184.59 58.681 185.137 59.3008C185.684 59.916 185.957 60.7295 185.957 61.7412V62.459H180.796C180.819 63.3385 181.04 64.0062 181.459 64.4619C181.883 64.9176 182.478 65.1455 183.243 65.1455C184.05 65.1455 184.847 64.9769 185.636 64.6396V65.6514C185.235 65.8245 184.854 65.9476 184.494 66.0205C184.139 66.098 183.708 66.1367 183.202 66.1367ZM182.895 59.3213C182.293 59.3213 181.812 59.5173 181.452 59.9092C181.097 60.3011 180.887 60.8434 180.823 61.5361H184.74C184.74 60.8206 184.581 60.2738 184.262 59.8955C183.943 59.5127 183.487 59.3213 182.895 59.3213Z" fill="#273B3D"/>
<path fill-rule="evenodd" clip-rule="evenodd" d="M232.977 25.0342L232.212 33.8375C232.085 35.3791 231.32 36.704 229.919 37.7869C228.518 38.8699 226.887 39.4177 225.027 39.4177H224.262C222.504 39.4177 221.014 38.9463 219.791 38.0035C218.44 36.9588 217.842 35.5702 217.994 33.8375L218.759 25.0342C218.912 23.3015 219.753 21.9129 221.281 20.8682C222.632 19.9254 224.186 19.4541 225.944 19.4541H226.747C228.479 19.4541 229.957 19.9254 231.18 20.8682C232.531 21.9384 233.13 23.327 232.977 25.0342ZM227.855 25.0342C227.932 24.0914 227.804 23.3652 227.447 22.8684C227.104 22.3715 226.645 22.1167 226.084 22.1167C225.549 22.1167 225.065 22.346 224.632 22.8174C224.173 23.3652 223.906 24.1042 223.829 25.0214L223.103 33.8248C223.027 34.7166 223.167 35.4173 223.524 35.9396C223.88 36.462 224.326 36.7423 224.861 36.7677C225.396 36.7932 225.893 36.5512 226.339 36.0416C226.785 35.532 227.053 34.793 227.129 33.8248L227.855 25.0342Z" fill="#EE561C"/>
<path fill-rule="evenodd" clip-rule="evenodd" d="M216.873 36.7805L216.644 39.4177H214.274C213.026 39.4177 212.007 39.0992 211.217 38.4749C210.35 37.736 209.968 36.7168 210.07 35.4173L210.987 24.5373C211.038 23.9386 210.898 23.378 210.567 22.8684C210.236 22.3588 209.752 22.104 209.115 22.104H207.051L205.56 39.4304H200.439L201.7 24.5501C201.751 23.9513 201.611 23.3907 201.279 22.8811C200.948 22.3715 200.464 22.1167 199.827 22.1167H197.763L196.273 39.4432H191.189L192.642 22.1167H191.304L191.533 19.4796H209.369C211.51 19.4796 213.166 19.9255 214.338 20.8173C215.663 21.7855 216.249 23.2379 216.096 25.1743L215.255 35.1116C215.179 35.9015 215.281 36.3983 215.561 36.6021C215.688 36.7168 216.134 36.7805 216.873 36.7805Z" fill="#EE561C"/>
<path fill-rule="evenodd" clip-rule="evenodd" d="M173.455 36.7805L173.226 39.4177H171.43C169.646 39.4177 168.347 38.8826 167.531 37.8124C166.41 38.8826 165.098 39.4177 163.595 39.4177H162.792C161.059 39.4177 159.581 38.9463 158.358 38.0035C157.008 36.9588 156.409 35.5702 156.562 33.8375L157.288 25.0342C157.441 23.327 158.282 21.9383 159.811 20.8682C161.187 19.9254 162.741 19.454 164.474 19.454H173.315L173.099 22.0912H167.964H166.206H164.295C163.2 22.0912 162.601 22.741 162.499 24.0532L161.658 34.1433C161.505 35.9014 162.231 36.7677 163.837 36.7677C164.626 36.7677 165.327 36.4747 165.939 35.9014C166.55 35.3281 166.894 34.6274 166.971 33.8248L167.824 23.7857H172.958L172.016 35.0096C171.888 36.1307 172.385 36.7295 173.455 36.7805Z" fill="#EE561C"/>
<path fill-rule="evenodd" clip-rule="evenodd" d="M187.966 28.2319C189.572 29.404 190.26 31.073 190.107 33.226C189.979 35.0096 189.304 36.4238 188.017 37.6341C186.756 38.8189 185.304 39.4177 183.673 39.4177H175.175L176.488 23.7984H181.584L181.303 27.1745H182.603C183.278 27.1745 183.839 26.7668 184.323 26.2572C185.164 25.3782 185.265 23.8366 184.476 22.9066C184.017 22.3715 183.431 22.104 182.717 22.104H182.272H181.724H176.64H175.188L175.379 19.4668H184.756C186.387 19.4668 187.737 20.0656 188.794 21.2504C189.89 22.4862 189.712 23.5054 189.724 24.4227C189.724 25.7604 189.419 26.907 187.966 28.2319ZM185.087 32.4744C185.151 31.7737 184.947 31.1494 184.514 30.6143C184.081 30.0792 183.533 29.8117 182.87 29.8117H181.074L180.45 36.8315H182.093C182.807 36.8315 183.444 36.5639 183.991 36.0288C184.539 35.4938 184.858 34.8568 184.934 34.1178L185.087 32.4744Z" fill="#EE561C"/>
<path fill-rule="evenodd" clip-rule="evenodd" d="M16.7914 10.8545L14.8421 33.7865C14.7147 35.3281 13.9376 36.9588 12.5234 38.0544C11.1093 39.1501 9.46584 39.3921 7.60579 39.3921H0.30576L0.535081 36.7549H7.52936C8.80336 36.7549 9.50406 35.9778 9.63146 34.4363L9.93722 30.7799H7.10893C5.12149 30.7799 3.50351 30.283 2.25499 29.2893C0.879062 28.1937 0.2548 26.6648 0.420421 24.7284L1.37592 13.4534H0L0.22932 10.8163H6.72674L5.46547 25.6966C5.32533 27.3146 5.96233 28.13 7.33826 28.13H10.1665L11.6571 10.8035H16.7914V10.8545Z" fill="#EE561C"/>
<path fill-rule="evenodd" clip-rule="evenodd" d="M52.5271 22.0912L52.7564 19.4541H54.7439C55.9924 19.4541 56.9988 19.7853 57.7632 20.435C58.6296 21.174 59.0118 22.1804 58.9098 23.4544L58.5404 28.2447C58.3875 30.2321 58.999 31.2258 60.375 31.2258H62.4388L63.4198 19.5178H68.5413L66.8341 39.3922H64.0059H61.7636H61.0757L61.3305 36.755H61.9929L62.235 33.965H60.1711C58.1327 33.965 56.5147 33.4936 55.3172 32.589C53.9158 31.5316 53.3297 29.9901 53.4826 27.9134L53.8138 23.429C53.8521 22.8557 53.7756 22.4607 53.5463 22.2569C53.3807 22.1549 53.0367 22.0912 52.5271 22.0912Z" fill="#EE561C"/>
<path fill-rule="evenodd" clip-rule="evenodd" d="M51.1893 36.7805L50.96 39.4177H49.1636C47.38 39.4177 46.0806 38.8826 45.2652 37.8124C44.1441 38.8826 42.8318 39.4177 41.3285 39.4177H40.5259C38.7933 39.4177 37.3154 38.9463 36.0924 38.0035C34.7419 36.9589 34.1431 35.5702 34.296 33.8376L35.0222 25.0342C35.1751 23.327 36.0159 21.9384 37.5447 20.8682C38.9207 19.9254 40.4749 19.4541 42.2076 19.4541H51.0492L50.8326 22.0912H45.6983H42.7681H42.0292C40.9336 22.0912 40.3348 22.741 40.2329 24.0532L39.392 34.1433C39.2392 35.9014 39.9653 36.7805 41.5706 36.7805C42.3605 36.7805 43.0612 36.4875 43.6727 35.9142C44.2842 35.3409 44.6282 34.6402 44.7046 33.8376L45.5582 23.7984H50.6924L49.7497 35.0224C49.635 36.1308 50.1191 36.7295 51.1893 36.7805Z" fill="#EE561C"/>
<path fill-rule="evenodd" clip-rule="evenodd" d="M85.9696 36.7805L85.7403 39.4177H83.944C82.1604 39.4177 80.8609 38.8826 80.0455 37.8124C78.9244 38.8826 77.6122 39.4177 76.1089 39.4177H75.3062C73.5736 39.4177 72.0957 38.9463 70.8727 38.0035C69.5223 36.9589 68.9235 35.5702 69.0764 33.8376L69.8025 25.0342C69.9554 23.327 70.7963 21.9384 72.3251 20.8682C73.701 19.9254 75.2553 19.4541 76.9879 19.4541H85.8295L85.6129 22.0912H80.4787H77.472H76.8096C75.7139 22.0912 75.1151 22.741 75.0132 24.0532L74.1724 34.1433C74.0195 35.9014 74.7457 36.7805 76.3509 36.7805C77.1408 36.7805 77.8415 36.4875 78.453 35.9142C79.0645 35.3409 79.4085 34.6402 79.485 33.8376L80.3385 23.7984H85.4728L84.53 35.0224C84.4153 36.1308 84.8995 36.7295 85.9696 36.7805Z" fill="#EE561C"/>
<path fill-rule="evenodd" clip-rule="evenodd" d="M19.1484 15.1097C19.5688 12.2941 20.295 10.8163 22.7156 10.8163C24.359 10.8163 26.0152 10.8163 27.6587 10.8163C32.691 10.8163 34.0032 12.0776 33.6083 16.7531L31.7355 39.4177H31.5317C29.7481 39.4177 28.4486 38.8826 27.6332 37.8124C26.5121 38.8826 25.1999 39.4177 23.6966 39.4177H22.8939C21.1613 39.4177 19.6835 38.9463 18.4604 38.0035C17.11 36.9588 16.5112 35.5702 16.6641 33.8375L17.3902 25.0342C17.6705 20.728 21.5053 19.1355 24.5884 19.454L28.2957 19.8362L28.627 16.5493C28.8053 14.8421 28.1683 13.4407 26.4484 13.4407H24.8559C24.066 13.4662 23.7093 14.2306 23.5182 15.0969H19.1484V15.1097ZM28.0027 22.9703L24.2571 22.4734C23.1742 22.3333 22.6646 22.741 22.5627 24.0532L21.7219 34.1433C21.569 35.9014 22.2952 36.7805 23.9004 36.7805C24.6903 36.7805 25.391 36.4874 26.0025 35.9141C26.614 35.3408 26.9325 35.137 27.009 34.3216L28.0027 22.9703Z" fill="#EE561C"/>
<path fill-rule="evenodd" clip-rule="evenodd" d="M102.15 16.4473C102.392 16.511 102.621 16.6129 102.837 16.7276L103.232 16.562C103.309 16.5365 103.385 16.4983 103.436 16.562L104.15 17.2881C104.201 17.3518 104.188 17.4283 104.15 17.5047L103.984 17.8487C104.137 18.1035 104.252 18.371 104.328 18.6641L104.71 18.8424C104.787 18.8679 104.85 18.9061 104.85 18.9953V20.0272C104.85 20.1037 104.787 20.1546 104.71 20.1801L104.303 20.3203C104.226 20.5878 104.124 20.8426 103.997 21.0719L104.175 21.5051C104.201 21.5815 104.226 21.658 104.175 21.7217L103.462 22.4479C103.411 22.5116 103.322 22.4861 103.258 22.4479L102.837 22.2313C102.621 22.3587 102.392 22.4479 102.15 22.5116L101.971 22.9575C101.946 23.0339 101.907 23.1103 101.831 23.1103H100.825C100.748 23.1103 100.71 23.0339 100.684 22.9575L100.532 22.4988C100.277 22.4224 100.047 22.3205 99.8308 22.1931L99.3595 22.4351C99.283 22.4733 99.2066 22.4988 99.1556 22.4351L98.4422 21.7089C98.3912 21.6452 98.4167 21.5688 98.4422 21.4924L98.6715 20.9445C98.5696 20.7534 98.4931 20.5623 98.4422 20.3457L97.9453 20.1801C97.8689 20.1546 97.8052 20.1164 97.8052 20.0272V18.9953C97.8052 18.9189 97.8816 18.8806 97.9453 18.8424L98.4294 18.6386C98.4931 18.4093 98.5823 18.1799 98.697 17.9634L98.4804 17.5175C98.4422 17.441 98.4294 17.3646 98.4804 17.3009L99.1938 16.5747C99.2448 16.511 99.3212 16.5365 99.3977 16.5747L99.8436 16.7658C100.06 16.6384 100.289 16.5365 100.532 16.46L100.684 16.0014C100.71 15.925 100.748 15.8485 100.825 15.8485H101.831C101.907 15.8485 101.946 15.925 101.971 16.0014L102.15 16.4473ZM101.372 17.7977C100.468 17.7977 99.7289 18.5494 99.7289 19.4794C99.7289 20.4094 100.468 21.1611 101.372 21.1611C102.277 21.1611 103.003 20.4094 103.003 19.4794C103.003 18.5494 102.264 17.7977 101.372 17.7977Z" fill="#EE561C"/>
<path fill-rule="evenodd" clip-rule="evenodd" d="M141.784 15.8485L138.599 17.734V21.5051L141.784 23.3906L144.969 21.5051V17.734L141.784 15.8485ZM141.784 17.9251C142.701 17.9251 143.44 18.6895 143.44 19.6323C143.44 20.5751 142.701 21.3395 141.784 21.3395C140.867 21.3395 140.128 20.5751 140.128 19.6323C140.115 18.6895 140.867 17.9251 141.784 17.9251Z" fill="#EE561C"/>
<path fill-rule="evenodd" clip-rule="evenodd" d="M102.022 33.7866H96.7989C96.5058 33.7866 96.251 34.0414 96.251 34.3472C96.251 34.6529 96.5058 34.9077 96.7989 34.9077H102.022C102.315 34.9077 102.57 34.6529 102.57 34.3472C102.557 34.0414 102.315 33.7866 102.022 33.7866ZM140.803 33.7866H146.026C146.332 33.7866 146.574 34.0414 146.574 34.3472C146.574 34.6529 146.307 34.9077 146.026 34.9077H140.803C140.523 34.9077 140.255 34.6529 140.255 34.3472C140.255 34.0414 140.497 33.7866 140.803 33.7866ZM140.803 25.8751H146.026C146.332 25.8751 146.574 26.1299 146.574 26.4356C146.574 26.7414 146.307 26.9962 146.026 26.9962H140.803C140.523 26.9962 140.255 26.7414 140.255 26.4356C140.255 26.1299 140.497 25.8751 140.803 25.8751ZM141.58 29.6971H148.816C149.122 29.6971 149.364 29.9519 149.364 30.2576C149.364 30.5634 149.097 30.8182 148.816 30.8182H141.58C141.3 30.8182 141.032 30.5634 141.032 30.2576C141.032 29.9519 141.287 29.6971 141.58 29.6971ZM102.022 25.8751H96.7989C96.5058 25.8751 96.251 26.1299 96.251 26.4356C96.251 26.7414 96.5058 26.9962 96.7989 26.9962H102.022C102.315 26.9962 102.57 26.7414 102.57 26.4356C102.557 26.1299 102.315 25.8751 102.022 25.8751ZM101.232 29.6971H93.9961C93.703 29.6971 93.4482 29.9519 93.4482 30.2576C93.4482 30.5634 93.703 30.8182 93.9961 30.8182H101.232C101.525 30.8182 101.78 30.5634 101.78 30.2576C101.78 29.9519 101.525 29.6971 101.232 29.6971Z" fill="#EE561C"/>
<path fill-rule="evenodd" clip-rule="evenodd" d="M124.738 11.9501C126.521 10.8035 127.706 9.40214 127.706 6.45919C127.706 3.51625 124.891 0 121.413 0C117.935 0 115.119 3.51625 115.119 6.45919C115.119 9.40214 116.304 10.8035 118.087 11.9501V27.4293C117.527 32.6017 112.189 29.5441 111.386 38.2583C111.221 40.0546 113.998 46.2336 115.539 46.8451C115.794 46.947 116.584 47.1763 116.724 46.8578L116.979 46.2973L116.966 39.889C116.966 38.666 117.935 37.6723 119.132 37.6723H121.413H123.693C124.878 37.6723 125.859 38.666 125.859 39.889L125.846 46.2973L126.101 46.8578C126.241 47.1763 127.031 46.947 127.286 46.8451C128.827 46.2336 131.605 40.0546 131.439 38.2583C130.636 29.5441 125.298 32.6017 124.738 27.4293V11.9501ZM121.413 10.4596C119.26 10.4596 117.514 8.67596 117.514 6.45919C117.514 4.25517 119.26 2.45883 121.413 2.45883C123.566 2.45883 125.311 4.25517 125.311 6.45919C125.298 8.66322 123.553 10.4596 121.413 10.4596Z" fill="#EE561C"/>
<path fill-rule="evenodd" clip-rule="evenodd" d="M119.119 42.4243C120.623 42.6664 122.177 42.6664 123.68 42.4243V40.2331C123.68 40.0547 123.604 39.8891 123.489 39.7617C123.374 39.6343 123.209 39.5578 123.03 39.5578H121.4H119.769C119.591 39.5578 119.425 39.6343 119.31 39.7617C119.196 39.8891 119.119 40.0547 119.119 40.2331V42.4243Z" fill="#EE561C"/>
<path fill-rule="evenodd" clip-rule="evenodd" d="M132.483 17.4539C135.006 22.9193 136.917 24.5373 136.892 29.1619C136.879 33.277 135.668 36.4238 133.375 38.7297C133.401 38.4877 133.401 38.2711 133.375 38.08C133.082 34.9077 132.28 33.0222 131.273 31.7609C131.643 30.8819 131.872 29.9136 131.923 28.818C132.152 23.2761 130.101 23.1104 128.827 17.7214C128.496 16.32 128.432 14.1415 129.579 13.1095L130.292 12.4725C130.713 12.1031 131.12 11.9502 131.681 12.5235L133.694 14.409C134.114 14.8039 134.089 15.3135 133.579 15.7467L132.687 16.5748C132.547 16.7277 132.369 17.1991 132.483 17.4539Z" fill="#EE561C"/>
<path fill-rule="evenodd" clip-rule="evenodd" d="M110.329 17.454C107.806 22.9194 105.895 24.5374 105.921 29.1621C105.933 33.2771 107.144 36.4239 109.437 38.7298C109.411 38.4878 109.411 38.2712 109.437 38.0801C109.73 34.9078 110.533 33.0223 111.539 31.761C111.17 30.882 110.94 29.9137 110.889 28.8181C110.647 23.2762 112.711 23.1105 113.985 17.7215C114.316 16.3201 114.38 14.1416 113.233 13.1096L112.507 12.4726C112.087 12.1032 111.679 11.9503 111.119 12.5236L109.106 14.4091C108.685 14.804 108.711 15.3136 109.22 15.7468L110.112 16.5749C110.265 16.7278 110.456 17.1992 110.329 17.454Z" fill="#EE561C"/>
</svg>
