<svg width="24" height="24" viewBox="0 0 24 24" fill="none" xmlns="http://www.w3.org/2000/svg">
<path d="M12.0453 11.8259C11.1338 11.8259 10.2222 11.4789 9.52838 10.7849C8.14044 9.39716 8.14044 7.13892 9.52838 5.75098C10.2006 5.07861 11.0945 4.70837 12.0453 4.70837C12.9962 4.70837 13.89 5.0788 14.5623 5.75098C15.9503 7.13892 15.9503 9.39716 14.5623 10.7849C13.8683 11.4789 12.9568 11.8259 12.0453 11.8259ZM12.0453 6.11737C11.4944 6.11737 10.9434 6.32703 10.5239 6.74652C9.68494 7.58551 9.68494 8.95056 10.5239 9.78955C10.9302 10.1959 11.4706 10.4196 12.0453 10.4196C12.6201 10.4196 13.1605 10.1959 13.5668 9.78955C14.4058 8.95056 14.4058 7.58551 13.5668 6.74652C13.1473 6.32703 12.5963 6.11737 12.0453 6.11737Z" fill="#EE561C"/>
<path d="M12.0536 24L11.5093 23.3606C11.1907 22.9861 3.70312 14.1238 3.70312 8.34229C3.70312 3.74231 7.44543 0 12.0454 0C16.6454 0 20.3877 3.74231 20.3877 8.34229C20.3877 13.8395 12.9067 22.9666 12.5883 23.3524L12.0536 24ZM12.0454 1.4079C8.2218 1.4079 5.11102 4.51868 5.11102 8.34229C5.11102 10.4912 6.3924 13.6011 8.81671 17.3359C10.0748 19.274 11.3417 20.9154 12.0377 21.7841C12.7348 20.8916 14.0138 19.1962 15.2798 17.2213C17.7004 13.4454 18.9798 10.3749 18.9798 8.34229C18.9798 4.51868 15.869 1.4079 12.0454 1.4079Z" fill="#EE561C"/>
</svg>
