<svg width="24" height="24" viewBox="0 0 24 24" fill="none" xmlns="http://www.w3.org/2000/svg">
<g clip-path="url(#clip0)">
<path d="M20.5214 3.14396C18.4939 1.11641 15.798 -0.000113402 12.9308 8.63884e-09C12.4609 8.63884e-09 12.0802 0.380832 12.0802 0.850577C12.0802 1.32032 12.461 1.70115 12.9308 1.70115C15.3437 1.70104 17.6122 2.64065 19.3185 4.3469C21.0249 6.05316 21.9645 8.32182 21.9644 10.7349C21.9644 11.2046 22.3451 11.5854 22.8149 11.5854C23.2847 11.5854 23.6655 11.2046 23.6655 10.735C23.6656 7.86739 22.5491 5.17151 20.5214 3.14396Z" fill="#EE561C"/>
<path d="M17.0225 10.735C17.0225 11.2047 17.4033 11.5855 17.8732 11.5854C18.3429 11.5854 18.7237 11.2046 18.7237 10.7348C18.7234 7.54122 16.1248 4.94265 12.9309 4.94219C12.9308 4.94219 12.9309 4.94219 12.9308 4.94219C12.461 4.94219 12.0803 5.32291 12.0802 5.79266C12.0802 6.2624 12.4609 6.64323 12.9307 6.64335C15.1867 6.64369 17.0223 8.47912 17.0225 10.735Z" fill="#EE561C"/>
<path d="M15.1403 15.0718C13.8438 15.0046 13.1833 15.9689 12.8665 16.432C12.6013 16.8198 12.7006 17.3491 13.0884 17.6143C13.4761 17.8796 14.0054 17.7802 14.2707 17.3925C14.6449 16.8453 14.8145 16.7592 15.0445 16.7701C15.7806 16.8566 18.6799 18.9813 18.9703 19.6456C19.0431 19.8412 19.0404 20.033 18.9622 20.2663C18.6578 21.1697 18.1539 21.8046 17.5048 22.1022C16.8881 22.3849 16.132 22.3593 15.3187 22.0284C12.2819 20.7906 9.62879 19.0632 7.43316 16.8942C7.43226 16.8933 7.43135 16.8925 7.43055 16.8916C5.26601 14.6981 3.54183 12.0484 2.30611 9.01623C1.97507 8.20229 1.94943 7.44607 2.23217 6.82946C2.52976 6.18029 3.16463 5.67641 4.06726 5.37236C4.30134 5.29388 4.49277 5.29138 4.68659 5.36351C5.35333 5.65486 7.47785 8.55409 7.56358 9.28195C7.57583 9.52057 7.48907 9.69 6.94232 10.0636C6.55446 10.3285 6.45477 10.8578 6.71981 11.2457C6.98474 11.6335 7.51391 11.7331 7.90189 11.4682C8.36528 11.1517 9.32927 10.4931 9.26236 9.19213C9.18864 7.83325 6.54527 4.23463 5.28222 3.77021C4.7205 3.56086 4.12963 3.55723 3.52538 3.76001C2.16582 4.21784 1.18392 5.03417 0.685818 6.12064C0.20269 7.17468 0.218 8.39758 0.730615 9.65779C2.05309 12.9027 3.90338 15.7419 6.22999 18.0969C6.23566 18.1027 6.24145 18.1083 6.24734 18.1139C8.60061 20.4362 11.4365 22.2831 14.6771 23.604C15.3261 23.8679 15.9651 24 16.5763 24C17.1517 24 17.7027 23.883 18.2137 23.6487C19.3003 23.1507 20.1165 22.1689 20.5747 20.8084C20.777 20.2053 20.7737 19.6147 20.566 19.0555C20.1 17.7891 16.5013 15.1457 15.1403 15.0718Z" fill="#EE561C"/>
</g>
<defs>
<clipPath id="clip0">
<rect width="24" height="24" fill="white"/>
</clipPath>
</defs>
</svg>
