<svg width="24" height="20" viewBox="0 0 24 20" fill="none" xmlns="http://www.w3.org/2000/svg">
<path d="M21.8786 0.407505L1.14812 8.44538C0.476657 8.70575 0.517336 9.66447 1.20853 9.86752L6.47637 11.4153L8.44233 17.6221C8.64769 18.2705 9.47343 18.467 9.95144 17.9814L12.675 15.2144L18.019 19.1173C18.673 19.5949 19.6044 19.2401 19.7704 18.45L23.3098 1.6134C23.4831 0.788691 22.6676 0.101581 21.8786 0.407505ZM19.2796 4.14397L9.65036 12.6163C9.55438 12.7008 9.4933 12.8176 9.47901 12.9443L9.10828 16.2234C9.09617 16.3304 8.94577 16.3445 8.91366 16.2418L7.38836 11.3515C7.3185 11.1276 7.40959 10.885 7.60978 10.7615L18.9809 3.74451C19.2424 3.58302 19.5101 3.94119 19.2796 4.14397Z" fill="white"/>
</svg>
