<svg width="23" height="14" viewBox="0 0 23 14" fill="none" xmlns="http://www.w3.org/2000/svg">
<path fill-rule="evenodd" clip-rule="evenodd" d="M11.4304 13.2803H12.7454C12.7454 13.2803 13.1426 13.2363 13.3454 13.0156C13.5321 12.8131 13.5261 12.4327 13.5261 12.4327C13.5261 12.4327 13.5004 10.6519 14.3194 10.3896C15.1266 10.1313 16.1633 12.1108 17.2621 12.8719C18.093 13.4479 18.7244 13.3216 18.7244 13.3216L21.6623 13.2803C21.6623 13.2803 23.1993 13.1847 22.4705 11.9652C22.4108 11.8654 22.0461 11.063 20.2861 9.41421C18.4439 7.68855 18.6906 7.96767 20.9097 4.98265C22.2612 3.16475 22.8014 2.0549 22.6327 1.57955C22.4717 1.12681 21.4778 1.24648 21.4778 1.24648L18.1697 1.26727C18.1697 1.26727 17.9245 1.23351 17.7427 1.34323C17.5649 1.45084 17.4506 1.70163 17.4506 1.70163C17.4506 1.70163 16.927 3.10838 16.2287 4.30474C14.7557 6.82918 14.1667 6.96242 13.926 6.80567C13.366 6.44035 13.5058 5.33803 13.5058 4.55493C13.5058 2.10855 13.8734 1.08853 12.7899 0.82448C12.4303 0.736765 12.1657 0.678891 11.2461 0.669547C10.0658 0.657188 9.06673 0.673164 8.50105 0.952887C8.12474 1.13887 7.83443 1.55333 8.01124 1.57714C8.22986 1.60668 8.72505 1.71188 8.98758 2.07268C9.32656 2.53809 9.31462 3.58343 9.31462 3.58343C9.31462 3.58343 9.50935 6.46325 8.85975 6.82105C8.41384 7.06641 7.80218 6.56544 6.48894 4.2752C5.81605 3.10205 5.30802 1.80532 5.30802 1.80532C5.30802 1.80532 5.21006 1.56297 5.03534 1.43336C4.82329 1.27632 4.52701 1.22628 4.52701 1.22628L1.38356 1.24708C1.38356 1.24708 0.911671 1.26034 0.738445 1.46742C0.584334 1.65159 0.7262 2.03259 0.7262 2.03259C0.7262 2.03259 3.1872 7.84348 5.97375 10.7718C8.52883 13.4566 11.4304 13.2803 11.4304 13.2803Z" fill="white"/>
</svg>
