<svg
        xmlns="http://www.w3.org/2000/svg"
        xmlns:xlink="http://www.w3.org/1999/xlink"
        width="218px" height="27px">
    <path fill-rule="evenodd"  fill="rgb(255, 255, 255)"
          d="M207.652,10.172 C205.802,10.172 203.533,10.444 203.533,11.656 C203.533,12.325 205.383,12.415 207.776,12.529 C212.31,12.744 218.11,13.39 217.999,16.858 C217.999,21.210 213.7,22.241 207.652,22.241 C202.308,22.229 197.871,21.584 197.304,16.858 L203.533,16.858 C204.214,18.36 205.791,18.342 207.652,18.342 C209.501,18.342 211.770,18.36 211.770,16.858 C211.770,16.189 209.921,16.87 207.527,15.974 C203.272,15.759 197.293,15.464 197.304,11.656 C197.304,7.305 202.296,6.262 207.652,6.262 C212.996,6.296 217.432,6.897 217.999,11.656 L211.770,11.656 C211.90,10.455 209.512,10.172 207.652,10.172 ZM184.884,12.529 C189.139,12.744 195.119,13.39 195.107,16.858 C195.107,21.210 190.115,22.241 184.760,22.241 C179.416,22.229 174.979,21.584 174.412,16.858 L180.641,16.858 C181.322,18.36 182.899,18.342 184.760,18.342 C186.609,18.342 188.878,18.36 188.878,16.858 C188.878,16.189 187.29,16.87 184.635,15.974 C180.380,15.759 174.401,15.464 174.412,11.656 C174.412,7.305 179.404,6.262 184.760,6.262 C190.104,6.296 194.540,6.897 195.107,11.656 L188.878,11.656 C188.198,10.455 186.620,10.172 184.760,10.172 C182.910,10.172 180.641,10.444 180.641,11.656 C180.641,12.325 182.490,12.415 184.884,12.529 ZM154.368,6.658 L172.215,6.658 L172.215,10.557 L160.313,10.557 L160.313,12.506 L172.215,12.506 L172.215,16.31 L160.313,16.31 L160.313,17.980 L172.215,17.980 L172.215,21.890 L154.368,21.890 L154.368,6.658 ZM145.840,21.878 L142.969,18.161 L137.659,18.161 L137.659,21.878 L131.714,21.878 L131.714,6.647 L146.407,6.647 C149.550,6.613 152.217,9.254 152.171,12.405 C152.171,13.549 151.865,14.592 151.252,15.521 C150.651,16.439 149.845,17.141 148.847,17.606 L152.171,21.878 L145.840,21.878 ZM144.910,11.101 L137.659,11.101 L137.659,13.696 L144.910,13.696 C145.273,13.696 145.579,13.572 145.829,13.323 C146.90,13.62 146.214,12.755 146.214,12.405 C146.214,11.679 145.636,11.101 144.910,11.101 ZM123.754,18.172 L115.6,18.172 L115.6,21.890 L109.60,21.890 L109.60,6.658 L123.754,6.658 C126.896,6.624 129.563,9.265 129.517,12.415 C129.563,15.555 126.896,18.217 123.754,18.172 ZM123.175,11.497 C122.925,11.237 122.619,11.112 122.267,11.112 L115.6,11.112 L115.6,13.707 L122.267,13.707 C122.619,13.707 122.925,13.583 123.175,13.333 C123.436,13.73 123.561,12.767 123.561,12.415 C123.561,12.53 123.436,11.747 123.175,11.497 ZM100.532,21.878 L97.662,18.161 L92.352,18.161 L92.352,21.878 L86.406,21.878 L86.406,6.647 L101.100,6.647 C104.243,6.613 106.909,9.254 106.864,12.405 C106.864,13.549 106.557,14.592 105.945,15.521 C105.343,16.439 104.538,17.141 103.539,17.606 L106.864,21.878 L100.532,21.878 ZM99.602,11.101 L92.352,11.101 L92.352,13.696 L99.602,13.696 C99.965,13.696 100.271,13.572 100.521,13.323 C100.782,13.62 100.907,12.755 100.907,12.405 C100.907,11.679 100.328,11.101 99.602,11.101 ZM73.805,22.241 C68.64,22.229 63.367,20.563 63.389,14.807 L63.389,13.696 C63.367,7.928 68.64,6.274 73.805,6.262 C79.546,6.262 84.210,7.939 84.210,13.696 L84.210,14.807 C84.232,20.563 79.535,22.229 73.805,22.241 ZM78.264,14.59 C78.298,11.577 76.233,11.124 73.805,11.90 C71.366,11.124 69.301,11.577 69.335,14.59 L69.335,14.433 C69.301,16.926 71.366,17.379 73.805,17.413 C76.233,17.379 78.298,16.926 78.264,14.433 L78.264,14.59 ZM48.542,13.345 L59.707,13.345 L59.707,17.799 L48.542,17.799 L48.542,21.890 L42.596,21.890 L42.596,6.658 L61.193,6.658 L61.193,11.486 L48.542,11.486 L48.542,13.345 Z"/>
    <path fill-rule="evenodd"  fill="rgb(255, 52, 62)"
          d="M21.869,0.0 L0.0,0.0 L0.0,26.999 L5.400,26.999 L5.399,16.199 L21.959,16.199 C23.449,16.199 24.658,14.991 24.658,13.500 C24.658,12.8 23.449,10.799 21.959,10.799 L5.399,10.799 L5.399,5.399 L21.869,5.399 C26.334,5.399 29.967,9.33 29.967,13.500 C29.967,17.966 26.334,21.599 21.869,21.599 L10.812,21.599 L10.812,26.999 L21.869,26.999 C29.323,26.999 35.365,20.955 35.365,13.500 C35.365,6.44 29.323,0.0 21.869,0.0 Z"/>
</svg>