<svg
        xmlns="http://www.w3.org/2000/svg"
        xmlns:xlink="http://www.w3.org/1999/xlink"
        width="175px" height="67px">
    <path fill-rule="evenodd"  fill="rgb(255, 52, 62)"
          d="M141.352,0.002 L86.823,0.002 L86.823,66.1000 L100.288,66.1000 L100.285,40.201 L141.576,40.201 C145.293,40.201 148.307,37.201 148.307,33.501 C148.307,29.801 145.293,26.801 141.576,26.801 L100.285,26.801 L100.285,13.401 L141.352,13.401 C152.486,13.401 161.544,22.418 161.544,33.501 C161.544,44.584 152.486,53.600 141.352,53.600 L113.782,53.600 L113.782,66.1000 L141.352,66.1000 C159.938,66.1000 175.006,52.002 175.006,33.501 C175.006,15.000 159.938,0.002 141.352,0.002 Z"/>
    <path fill-rule="evenodd"  fill="rgb(33, 34, 39)"
          d="M33.490,66.997 L87.764,66.997 L87.764,-0.001 L74.363,-0.001 L74.365,26.798 L33.267,26.798 C29.567,26.798 26.568,29.797 26.568,33.498 C26.568,37.198 29.567,40.198 33.267,40.198 L74.365,40.198 L74.365,53.598 L33.490,53.598 C22.409,53.598 13.393,44.580 13.393,33.498 C13.393,22.415 22.409,13.398 33.490,13.398 L60.931,13.398 L60.931,-0.001 L33.490,-0.001 C14.991,-0.001 -0.006,14.997 -0.006,33.498 C-0.006,51.999 14.991,66.997 33.490,66.997 Z"/>
</svg>