<svg
        xmlns="http://www.w3.org/2000/svg"
        xmlns:xlink="http://www.w3.org/1999/xlink"
        width="29px" height="318px">
    <path fill-rule="evenodd"  fill="rgb(255, 255, 255)"
          d="M19.225,79.24 L19.225,67.730 C21.363,66.496 21.918,63.637 21.918,60.264 C21.918,56.911 21.363,52.796 19.225,52.796 C18.12,52.796 17.827,56.149 17.621,60.490 C17.230,68.204 16.696,79.45 9.787,79.24 C1.892,79.24 0.1,69.973 0.1,60.264 C0.62,50.574 1.152,42.532 9.787,41.503 L9.787,52.796 C7.608,54.30 7.94,56.890 7.94,60.264 C7.94,63.616 7.588,67.730 9.787,67.730 C11.1,67.730 11.165,64.377 11.371,60.37 C11.761,52.323 12.296,41.482 19.225,41.503 C27.120,41.503 28.991,50.554 28.991,60.264 C28.971,69.952 27.799,77.996 19.225,79.24 ZM19.225,37.520 L19.225,26.227 C21.363,24.993 21.918,22.133 21.918,18.759 C21.918,15.407 21.363,11.292 19.225,11.292 C18.12,11.292 17.827,14.646 17.621,18.985 C17.230,26.700 16.696,37.541 9.787,37.520 C1.892,37.520 0.1,28.469 0.1,18.759 C0.62,9.71 1.152,1.28 9.787,0.0 L9.787,11.292 C7.608,12.526 7.94,15.386 7.94,18.759 C7.94,22.113 7.588,26.227 9.787,26.227 C11.1,26.227 11.165,22.874 11.371,18.534 C11.761,10.819 12.296,0.21 19.225,0.0 C27.120,0.0 28.991,9.50 28.991,18.759 C28.971,28.449 27.799,36.492 19.225,37.520 ZM28.354,197.508 L0.720,197.508 L0.720,170.868 C0.659,165.170 5.449,160.336 11.165,160.418 C16.860,160.336 21.692,165.170 21.610,170.868 L21.610,186.729 L28.354,186.729 L28.354,197.508 ZM13.509,173.563 C13.509,172.926 13.283,172.370 12.831,171.918 C12.358,171.445 11.803,171.218 11.165,171.218 C10.507,171.218 9.952,171.445 9.500,171.918 C9.27,172.370 8.800,172.926 8.800,173.563 L8.800,186.729 L13.509,186.729 L13.509,173.563 ZM28.333,145.657 L28.333,156.436 L0.700,156.436 L0.700,129.797 C0.638,124.99 5.429,119.265 11.145,119.347 C13.221,119.347 15.113,119.902 16.799,121.13 C18.464,122.103 19.739,123.564 20.582,125.374 L28.333,119.347 L28.333,130.826 L21.589,136.30 L21.589,145.657 L28.333,145.657 ZM13.489,132.512 C13.489,131.854 13.262,131.299 12.810,130.846 C12.337,130.373 11.782,130.147 11.145,130.147 C9.829,130.147 8.780,131.196 8.780,132.512 L8.780,145.657 L13.489,145.657 L13.489,132.512 ZM28.333,227.800 L28.333,238.580 L0.700,238.580 L0.700,211.940 C0.638,206.242 5.429,201.408 11.145,201.491 C13.221,201.491 15.113,202.46 16.799,203.156 C18.464,204.247 19.739,205.707 20.582,207.518 L28.333,201.491 L28.333,212.969 L21.589,218.173 L21.589,227.800 L28.333,227.800 ZM13.489,214.656 C13.489,213.998 13.262,213.442 12.810,212.989 C12.337,212.516 11.782,212.290 11.145,212.290 C9.829,212.290 8.780,213.339 8.780,214.656 L8.780,227.800 L13.489,227.800 L13.489,214.656 ZM28.354,83.6 L28.354,115.365 L0.720,115.365 L0.720,83.6 L7.793,83.6 L7.793,104.585 L11.330,104.585 L11.330,83.6 L17.724,83.6 L17.724,104.585 L21.260,104.585 L21.260,83.6 L28.354,83.6 ZM13.489,242.562 L15.503,242.562 C25.948,242.521 28.971,251.37 28.991,261.425 C28.971,271.834 25.948,280.351 15.503,280.310 L13.489,280.310 C3.23,280.351 0.21,271.834 0.1,261.425 C0.1,251.17 3.44,242.562 13.489,242.562 ZM14.146,269.530 L14.825,269.530 C19.348,269.592 20.171,265.848 20.232,261.425 C20.171,257.24 19.348,253.280 14.825,253.341 L14.146,253.341 C9.643,253.280 8.821,257.24 8.759,261.425 C8.821,265.848 9.643,269.592 14.146,269.530 ZM9.479,307.229 L12.851,307.229 L12.851,286.987 L20.931,286.987 L20.931,307.229 L28.354,307.229 L28.354,318.8 L0.720,318.8 L0.720,284.292 L9.479,284.292 L9.479,307.229 Z"/>
</svg>