<svg width="23" height="23" fill="none" xmlns="http://www.w3.org/2000/svg"><path d="M17.773 4.184h1.045V5.23a1.045 1.045 0 0 0 2.091 0V4.184h1.046a1.046 1.046 0 1 0 0-2.09h-1.046V1.047a1.045 1.045 0 0 0-2.09 0v1.045h-1.046a1.046 1.046 0 1 0 0 2.091zm-11.5 2.09v10.454a1.045 1.045 0 1 0 2.09 0V6.275a1.045 1.045 0 0 0-2.09 0zm15.263 2.091a1.046 1.046 0 0 0-.815 1.234 9.407 9.407 0 0 1-10.58 11.206A9.41 9.41 0 0 1 3.221 7.034a9.409 9.409 0 0 1 10.18-4.752A1.066 1.066 0 0 0 13.822.19 11.293 11.293 0 0 0 11.5.003 11.501 11.501 0 0 0 .221 13.745a11.498 11.498 0 0 0 15.68 8.38A11.5 11.5 0 0 0 22.77 9.202a1.047 1.047 0 0 0-1.234-.837zm-11.082 0v1.046c.005.773.296 1.518.816 2.09a3.136 3.136 0 0 0-.816 2.091v1.045a3.136 3.136 0 0 0 3.137 3.136h1.045a3.137 3.137 0 0 0 3.137-3.136v-1.045a3.136 3.136 0 0 0-.816-2.09c.52-.573.811-1.318.816-2.091V8.365a3.136 3.136 0 0 0-3.137-3.136h-1.045a3.137 3.137 0 0 0-3.136 3.136zm5.228 6.272a1.045 1.045 0 0 1-1.046 1.046h-1.045a1.045 1.045 0 0 1-1.046-1.046v-1.045a1.045 1.045 0 0 1 1.046-1.045h1.045a1.046 1.046 0 0 1 1.046 1.045v1.045zm0-6.272v1.046a1.045 1.045 0 0 1-1.046 1.045h-1.045a1.045 1.045 0 0 1-1.046-1.045V8.365a1.046 1.046 0 0 1 1.046-1.045h1.045a1.046 1.046 0 0 1 1.046 1.045z" fill="#fff"/></svg>