<svg width="12" height="19" fill="none" xmlns="http://www.w3.org/2000/svg"><path d="M11.242 3.645c-.797-.782-1.707-1.172-2.73-1.172-1.117 0-2.09.41-2.918 1.23-.828.813-1.336 1.922-1.524 3.328h6.551l-.258 1.582H3.906v1.535h6.188l-.258 1.582H4.117c.219 1.485.715 2.625 1.488 3.422.782.797 1.75 1.196 2.907 1.196 1.117 0 2.027-.387 2.73-1.16v2.425c-.781.453-1.683.68-2.707.68-3.476 0-5.59-2.188-6.34-6.563H.73L1 10.148h1.008a8.905 8.905 0 0 1-.024-.714v-.82H.73L1 7.03h1.125C2.438 4.977 3.18 3.38 4.352 2.238c1.18-1.14 2.613-1.71 4.3-1.71 1.125 0 2.125.32 3 .96l-.41 2.157z" fill="#fff"/></svg>