<svg width="19" height="20" fill="none" xmlns="http://www.w3.org/2000/svg"><path d="M9.5 0a5.288 5.288 0 0 0-2.932.887 5.25 5.25 0 0 0-.8 8.098 5.282 5.282 0 0 0 5.752 1.14 5.275 5.275 0 0 0 2.368-1.938 5.253 5.253 0 0 0-.656-6.645A5.285 5.285 0 0 0 9.5 0zm0 8.421a3.173 3.173 0 0 1-2.926-1.95 3.15 3.15 0 0 1 .687-3.44 3.17 3.17 0 0 1 5.406 2.232c0 .838-.334 1.64-.928 2.233-.594.592-1.4.925-2.239.925zM19 20v-1.053a7.358 7.358 0 0 0-2.164-5.21 7.4 7.4 0 0 0-5.225-2.158H7.39a7.4 7.4 0 0 0-5.225 2.158A7.358 7.358 0 0 0 0 18.947V20h2.111v-1.053c0-1.395.556-2.734 1.546-3.721a5.285 5.285 0 0 1 3.732-1.542h4.222c1.4 0 2.742.555 3.732 1.542a5.256 5.256 0 0 1 1.546 3.721V20H19z" fill="#fff"/></svg>