<svg width="54" height="14" fill="none" xmlns="http://www.w3.org/2000/svg"><path d="M6.483 9.68l-2.394 4.008H.34l4.112-6.714L.758.989h3.539l2.082 3.539L8.46.988h3.591L8.305 6.975l4.112 6.714H8.825L6.483 9.68z" fill="#fff"/><path d="M12.104 10.253h3.33c.209.885.833 1.249 1.874 1.249.989 0 1.457-.312 1.457-.885 0-.728-1.093-.78-2.394-.937-1.77-.208-3.851-.624-3.851-3.07 0-2.03 1.561-3.435 4.476-3.435 3.07 0 4.476 1.405 4.788 3.435h-3.175c-.156-.729-.676-1.093-1.665-1.093-.99 0-1.353.364-1.353.885 0 .624.884.728 2.394.936 1.77.209 3.903.677 3.903 3.071 0 2.082-1.561 3.591-4.736 3.591-3.07 0-4.736-1.353-5.049-3.747zM22.825 8.796v-.313c0-3.487 2.134-5.308 5.204-5.308 3.071 0 5.153 1.873 5.153 5.308v.313c0 3.435-2.03 5.152-5.205 5.152-3.279 0-5.152-1.717-5.152-5.152zm7.182-.052v-.26c0-1.666-.729-2.55-1.926-2.55s-1.977.832-1.977 2.55v.26c0 1.561.78 2.394 1.977 2.394 1.145.052 1.926-.78 1.926-2.394zM34.587 13.688V0h3.279v13.688h-3.279zM39.636 13.688V0h3.278v13.688h-3.279zM50.981 11.97c-.572 1.146-1.717 1.978-3.59 1.978-2.239 0-3.332-1.04-3.332-2.758 0-1.25.52-2.03 1.354-2.55.832-.52 1.56-.677 3.226-.937 1.562-.208 2.186-.417 2.186-1.041 0-.573-.364-.989-1.457-.989-1.145 0-1.666.52-1.718 1.51h-3.278c.156-2.395 1.77-4.008 4.996-4.008C52.75 3.175 54 4.736 54 7.13v6.558h-2.654l-.365-1.718zm-.156-2.394v-.624c-.312.208-.78.364-1.405.468-.885.156-1.197.26-1.561.469-.26.208-.417.468-.417.832 0 .625.417.885 1.197.885 1.301 0 2.186-1.04 2.186-2.03z" fill="#fff"/></svg>