<svg width="65" height="16" fill="none" xmlns="http://www.w3.org/2000/svg"><g style="mix-blend-mode:luminosity"><path d="M7 14A7 7 0 1 0 7 0a7 7 0 0 0 0 14z" fill="#fff"/><path fill-rule="evenodd" clip-rule="evenodd" d="M3.596 6.833c-.685-.731-.997-1.4-.76-1.805.256-.436 1.096-.465 2.186-.153.062-.353.145-.703.248-1.046-1.337-.328-2.402-.21-2.768.414-.371.633.062 1.639 1.028 2.66.021-.024.044-.047.066-.07z" fill="url(#paint0_linear_152_1814)"/><path opacity=".3" fill-rule="evenodd" clip-rule="evenodd" d="M5.023 4.875c.061-.354.144-.703.248-1.046a7.387 7.387 0 0 0-.425-.091c-.11.336-.2.678-.268 1.025.142.03.29.068.445.112zM3.53 6.902l.065-.07a6.866 6.866 0 0 1-.083-.09l-.069.067c.03.03.058.062.087.093z" fill="#231F20"/><path fill-rule="evenodd" clip-rule="evenodd" d="M9.736 7.656c.776.784 1.144 1.513.893 1.942-.228.386-.91.453-1.816.248-.01.037-.021.074-.033.11 1.328.323 2.385.203 2.75-.418.364-.621-.053-1.618-.998-2.627-.25.264-.516.513-.796.745z" fill="url(#paint1_linear_152_1814)"/><path opacity=".3" fill-rule="evenodd" clip-rule="evenodd" d="M8.813 9.847a3.08 3.08 0 0 1-.033.11l.041.01.033-.11-.041-.01zM10.533 6.91c-.25.265-.517.514-.797.746.094.095.182.189.263.282a8.59 8.59 0 0 0 .789-.74 6.914 6.914 0 0 0-.255-.287z" fill="#231F20"/><path fill-rule="evenodd" clip-rule="evenodd" d="M5.183 9.732v-.007l-.03-.118c0-.005-.002-.01-.003-.014l-.029-.12-.002-.007c-.04-.177-.076-.36-.108-.548-1.06.29-1.874.253-2.124-.176-.35-.602.512-1.786 2.009-2.884a9.17 9.17 0 0 1 .014-.145C3.032 7.07 1.982 8.673 2.497 9.558c.364.624 1.424.746 2.757.423a4.608 4.608 0 0 1-.07-.249z" fill="url(#paint2_linear_152_1814)"/><path opacity=".3" fill-rule="evenodd" clip-rule="evenodd" d="M5.183 9.732v-.006l-.03-.119-.003-.014a6.37 6.37 0 0 1-.029-.12l-.002-.007c-.04-.176-.076-.36-.108-.548a6.418 6.418 0 0 1-.448.106c.066.354.153.704.263 1.047.139-.025.28-.054.427-.09a7.065 7.065 0 0 1-.07-.249zM4.894 5.858a9.17 9.17 0 0 1 .014-.145c-.177.128-.346.257-.507.39l-.01.147a11.3 11.3 0 0 1 .503-.392z" fill="#231F20"/><path fill-rule="evenodd" clip-rule="evenodd" d="M11.538 4.286c-.365-.626-1.431-.747-2.771-.42l.026.091c.949-.225 1.665-.163 1.897.234.31.532-.328 1.52-1.514 2.5l.002.244v.191l-.001.1v.05c0 .033-.001.065-.003.096l-.002.05-.004.097-.002.046-.006.104-.002.036-.008.126v.014l-.025.289c1.876-1.358 2.928-2.964 2.413-3.848z" fill="url(#paint3_linear_152_1814)"/><path opacity=".3" fill-rule="evenodd" clip-rule="evenodd" d="M8.793 3.957l.042-.01a4.322 4.322 0 0 0-.028-.091.877.877 0 0 0-.04.01l.026.091zM9.24 6.637l-.065.054.002.245v.19c0 .033 0 .067-.002.1v.051c0 .032 0 .064-.003.096l-.002.05-.003.097-.003.045-.005.105-.003.036-.008.125v.014c-.007.097-.015.194-.024.29l.065-.05a11.765 11.765 0 0 0 .05-1.448z" fill="#231F20"/><path fill-rule="evenodd" clip-rule="evenodd" d="M7.013 1.702c-1.195 0-2.164 2.342-2.164 5.233 0 2.892.969 5.234 2.164 5.234 1.196 0 2.166-2.343 2.166-5.234 0-2.89-.97-5.233-2.166-5.233zm.509 9.782c-.855 0-1.548-2.023-1.548-4.517 0-2.495.693-4.517 1.548-4.517.855 0 1.547 2.022 1.547 4.517 0 2.494-.693 4.517-1.547 4.517z" fill="url(#paint4_linear_152_1814)"/></g><path d="M23.803 2.228c1.027 0 1.927.2 2.702.602a4.236 4.236 0 0 1 1.806 1.722c.43.737.644 1.596.644 2.576s-.215 1.839-.644 2.576a4.285 4.285 0 0 1-1.806 1.694c-.775.401-1.675.602-2.702.602h-3.416V2.228h3.416zm-.07 8.106c1.027 0 1.82-.28 2.38-.84.56-.56.84-1.349.84-2.366 0-1.017-.28-1.81-.84-2.38-.56-.579-1.353-.868-2.38-.868h-1.386v6.454h1.386zm13.9-2.38c0 .28-.02.532-.057.756h-5.67c.047.56.243.999.588 1.316.345.317.77.476 1.274.476.728 0 1.246-.313 1.554-.938h2.114a3.569 3.569 0 0 1-1.288 1.848c-.635.476-1.414.714-2.338.714-.747 0-1.419-.163-2.016-.49a3.606 3.606 0 0 1-1.386-1.414c-.327-.607-.49-1.307-.49-2.1 0-.803.163-1.507.49-2.114a3.419 3.419 0 0 1 1.372-1.4c.588-.327 1.265-.49 2.03-.49.737 0 1.395.159 1.974.476.588.317 1.04.77 1.358 1.358.327.579.49 1.246.49 2.002zm-2.03-.56c-.01-.504-.192-.905-.547-1.204-.355-.308-.789-.462-1.302-.462-.485 0-.896.15-1.232.448-.327.29-.527.695-.602 1.218h3.682zm10.586-2.142c0 .523-.126 1.013-.378 1.47-.243.457-.63.826-1.162 1.106-.523.28-1.186.42-1.988.42h-1.638V12h-1.96V2.228h3.598c.756 0 1.4.13 1.932.392.532.261.928.62 1.19 1.078.27.457.406.975.406 1.554zm-3.612 1.414c.541 0 .942-.121 1.204-.364.261-.252.392-.602.392-1.05 0-.952-.532-1.428-1.596-1.428h-1.554v2.842h1.554zm4.5 1.428c0-.784.153-1.48.461-2.086.318-.607.742-1.073 1.274-1.4a3.428 3.428 0 0 1 1.806-.49c.579 0 1.083.117 1.512.35.439.233.789.527 1.05.882V4.244h1.974V12H53.18v-1.134c-.252.364-.602.667-1.05.91-.438.233-.947.35-1.526.35-.653 0-1.25-.168-1.792-.504-.532-.336-.956-.807-1.274-1.414-.308-.616-.462-1.32-.462-2.114zm6.103.028c0-.476-.093-.882-.28-1.218a1.916 1.916 0 0 0-.756-.784 1.982 1.982 0 0 0-1.022-.28c-.364 0-.7.089-1.008.266a2.04 2.04 0 0 0-.756.784c-.186.336-.28.737-.28 1.204 0 .467.094.877.28 1.232.196.345.448.611.756.798.318.187.654.28 1.008.28.364 0 .705-.089 1.022-.266.318-.187.57-.448.756-.784.187-.345.28-.756.28-1.232zM64.49 4.244l-4.803 11.424H57.6l1.68-3.864-3.108-7.56h2.199l2.002 5.418 2.03-5.418h2.086z" fill="#fff"/><defs><linearGradient id="paint0_linear_152_1814" x1="1.802" y1="2.84" x2="8.996" y2="9.831" gradientUnits="userSpaceOnUse"><stop stop-color="#70A1D4"/><stop offset=".31" stop-color="#447FC2"/><stop offset=".66" stop-color="#3E74AF"/><stop offset="1" stop-color="#265281"/></linearGradient><linearGradient id="paint1_linear_152_1814" x1=".928" y1="1.26" x2="12.107" y2="10.447" gradientUnits="userSpaceOnUse"><stop stop-color="#70A1D4"/><stop offset=".31" stop-color="#447FC2"/><stop offset=".83" stop-color="#3E74AF"/><stop offset="1" stop-color="#265281"/></linearGradient><linearGradient id="paint2_linear_152_1814" x1="12.876" y1="3.442" x2="1.613" y2="9.806" gradientUnits="userSpaceOnUse"><stop offset=".07" stop-color="#FDE976"/><stop offset=".58" stop-color="#FFE73F"/><stop offset="1" stop-color="#BBA312"/></linearGradient><linearGradient id="paint3_linear_152_1814" x1="13.229" y1="2.216" x2="5.785" y2="8.857" gradientUnits="userSpaceOnUse"><stop offset=".31" stop-color="#FDE976"/><stop offset=".58" stop-color="#FFE73F"/><stop offset="1" stop-color="#BBA312"/></linearGradient><linearGradient id="paint4_linear_152_1814" x1="7.083" y1="11.864" x2="6.959" y2="3.153" gradientUnits="userSpaceOnUse"><stop offset=".09" stop-color="#CC296B"/><stop offset=".57" stop-color="#FF3387"/><stop offset="1" stop-color="#FF87B9"/></linearGradient></defs></svg>