<svg width="16" height="16" fill="none" xmlns="http://www.w3.org/2000/svg"><g style="mix-blend-mode:luminosity"><path d="M16 8a8.002 8.002 0 0 1-9.607 7.838A8.003 8.003 0 0 1 2.437 2.251 7.973 7.973 0 0 1 8 0a7.972 7.972 0 0 1 5.664 2.35A7.974 7.974 0 0 1 16 8z" fill="#1BA27A"/><path d="M9.466 6.807V5.024h4.198V2.251H2.195v2.773h4.198v1.79c-3.39.173-5.931.884-5.931 1.734s2.54 1.56 5.93 1.734v5.556a8.02 8.02 0 0 0 3.074.028v-5.577c3.461-.16 6.072-.879 6.072-1.74 0-.863-2.61-1.581-6.072-1.742zM8 9.644c-3.782 0-6.848-.57-6.848-1.273 0-.6 2.234-1.103 5.24-1.237v2.038a10.772 10.772 0 0 0 3.074 0V7.127c3.078.125 5.382.635 5.382 1.244 0 .703-3.066 1.273-6.848 1.273z" fill="#F0EFEB"/></g></svg>