<?xml version="1.0" encoding="utf-8"?>
<!-- Generator: Adobe Illustrator 26.0.1, SVG Export Plug-In . SVG Version: 6.00 Build 0)  -->
<svg version="1.1" id="Слой_1" xmlns="http://www.w3.org/2000/svg" xmlns:xlink="http://www.w3.org/1999/xlink" x="0px" y="0px"
	 viewBox="0 0 16 16" style="enable-background:new 0 0 16 16;" xml:space="preserve">
<style type="text/css">
	.st0{fill:#FFFFFF;}
</style>
<path class="st0" d="M6.3,2.4C5.7,4,5.6,5.5,3.9,6.6L2.3,7.6c-0.8,0.5-1.1,2-0.3,3.3c0.4,0.8,1.1,1.3,1.7,1.4c0.6,0.2,1,0.3,1.5,0.8
	l1.1,1.2c0.2,0.2,0.6,0.3,0.8,0.1l1-0.6c0.3-0.2,0.3-0.5,0.2-0.7l-1.2-2c0.9-0.5,3.2,0,4.3,0.2c0.5,0.1,0.9-0.5,0.6-1
	c-1.5-2.6-4.5-7.8-4.5-7.8C7.2,1.9,6.5,1.9,6.3,2.4z"/>
<path class="st0" d="M9.6,3.7c-0.4,0.2-0.4,0.8,0,1c0.9,0.6,1.5,1.6,1.6,2.7c0,0.3,0.3,0.6,0.6,0.6c0.3,0,0.6-0.3,0.6-0.6
	c0-1.5-0.8-2.9-2.1-3.7C10,3.6,9.8,3.5,9.6,3.7z"/>
<path class="st0" d="M10.2,1.6c-0.4,0.3-0.3,0.8,0.1,1C11.2,3,12,3.8,12.6,4.7c0.6,1,0.8,2.1,0.7,3c0,0.3,0.2,0.6,0.5,0.6
	c0.3,0,0.6-0.2,0.6-0.5c0.1-1.2-0.2-2.6-0.9-3.7C12.9,3,11.9,2,10.8,1.5C10.6,1.5,10.4,1.5,10.2,1.6z"/>
</svg>
