<svg width="34" height="14" fill="none" xmlns="http://www.w3.org/2000/svg"><path fill-rule="evenodd" clip-rule="evenodd" d="M34 7.234c0-2.393-1.159-4.28-3.374-4.28-2.224 0-3.57 1.887-3.57 4.261 0 2.813 1.589 4.234 3.87 4.234 1.111 0 1.953-.253 2.588-.608V8.972c-.636.318-1.364.514-2.29.514-.906 0-1.71-.318-1.813-1.42h4.57c0-.122.019-.608.019-.832zm-4.617-.888c0-1.056.645-1.495 1.234-1.495.57 0 1.177.439 1.177 1.495h-2.41zM23.449 2.954c-.916 0-1.505.43-1.832.729l-.122-.58H19.44V14l2.337-.495.01-2.645c.336.243.831.589 1.653.589 1.673 0 3.197-1.346 3.197-4.309-.01-2.71-1.552-4.186-3.187-4.186zm-.561 6.439c-.551 0-.879-.197-1.103-.44l-.01-3.467c.244-.27.58-.458 1.113-.458.85 0 1.44.954 1.44 2.178 0 1.252-.58 2.187-1.44 2.187zM16.224 2.402l2.346-.505V0l-2.346.495v1.907z" fill="#fff"/><path d="M18.57 3.112h-2.345v8.177h2.345V3.112z" fill="#fff"/><path fill-rule="evenodd" clip-rule="evenodd" d="M13.71 3.804l-.149-.692h-2.018v8.178h2.336V5.748c.551-.72 1.486-.59 1.776-.486v-2.15c-.3-.112-1.393-.318-1.944.692zM9.038 1.084l-2.28.486-.01 7.486c0 1.383 1.037 2.402 2.42 2.402.767 0 1.328-.14 1.636-.309V9.252c-.299.122-1.776.551-1.776-.832V5.103h1.776V3.112H9.028l.01-2.028zM2.72 5.486c0-.364.3-.504.795-.504.71 0 1.607.215 2.317.598V3.384a6.163 6.163 0 0 0-2.317-.43c-1.898 0-3.16.99-3.16 2.644 0 2.58 3.552 2.169 3.552 3.28 0 .43-.374.57-.897.57-.776 0-1.766-.317-2.551-.747v2.224c.869.374 1.747.533 2.55.533 1.945 0 3.281-.963 3.281-2.635-.01-2.785-3.57-2.29-3.57-3.337z" fill="#fff"/></svg>