<svg width="16" height="16" viewBox="0 0 16 16" fill="none" xmlns="http://www.w3.org/2000/svg">
<g style="mix-blend-mode:luminosity">
<path d="M8 15.25C12.0041 15.25 15.25 12.0041 15.25 8C15.25 3.99594 12.0041 0.75 8 0.75C3.99594 0.75 0.75 3.99594 0.75 8C0.75 12.0041 3.99594 15.25 8 15.25Z" fill="#FFE477"/>
<path d="M8 14.25C11.4518 14.25 14.25 11.4518 14.25 8C14.25 4.54822 11.4518 1.75 8 1.75C4.54822 1.75 1.75 4.54822 1.75 8C1.75 11.4518 4.54822 14.25 8 14.25Z" fill="#FFDA44"/>
<path d="M8.03625 0.75C8.11721 1.08029 8.17485 1.41587 8.20875 1.75425C9.36299 1.79272 10.484 2.15024 11.4474 2.78715C12.4108 3.42406 13.1788 4.31544 13.6664 5.36238C14.1539 6.40931 14.3418 7.57085 14.2093 8.71811C14.0767 9.86536 13.6289 10.9534 12.9155 11.8616C12.2021 12.7698 11.251 13.4626 10.1677 13.863C9.0845 14.2635 7.91149 14.356 6.77889 14.1302C5.64628 13.9045 4.59837 13.3693 3.75144 12.5842C2.90452 11.799 2.2917 10.7946 1.981 9.68225C1.65588 9.72674 1.32814 9.74938 0.999995 9.75C0.987745 9.75 0.974995 9.75 0.963745 9.75C1.29135 11.067 1.98206 12.2657 2.95727 13.2095C3.93248 14.1534 5.15303 14.8045 6.48006 15.0889C7.80709 15.3733 9.1873 15.2795 10.4637 14.8182C11.74 14.3569 12.8613 13.5466 13.6998 12.4795C14.5384 11.4124 15.0606 10.1314 15.207 8.78214C15.3535 7.43291 15.1182 6.06965 14.5281 4.8475C13.938 3.62535 13.0167 2.59337 11.869 1.86899C10.7213 1.14461 9.39339 0.756907 8.03625 0.75Z" fill="#FFDE55"/>
<path d="M7.99996 14.2501C9.63189 14.2387 11.1946 13.5895 12.3542 12.4411C13.5138 11.2928 14.1782 9.73642 14.2055 8.10468C14.2327 6.47294 13.6207 4.89525 12.5001 3.70881C11.3795 2.52236 9.83934 1.82127 8.20871 1.75537C8.23522 2.00275 8.24899 2.25133 8.24996 2.50012C8.2497 4.25282 7.61451 5.94609 6.46196 7.26654C5.30941 8.58699 3.71754 9.44521 1.98096 9.68237C2.34817 10.9963 3.13525 12.154 4.22204 12.9788C5.30884 13.8036 6.63565 14.25 7.99996 14.2501Z" fill="#FFCD00"/>
<path d="M8 5.17154L9.9445 7.11604L11.0053 6.05554L8 3.05029L4.99475 6.05554L6.0555 7.11604L8 5.17154Z" fill="#F1F2F2"/>
<path d="M8 10.8288L6.0555 8.88428L4.99475 9.94478L8 12.95L11.0053 9.94478L9.9445 8.88428L8 10.8288Z" fill="#F1F2F2"/>
<path d="M6.93774 8L7.9984 6.93935L9.05905 8L7.9984 9.06065L6.93774 8Z" fill="#F1F2F2"/>
<path d="M10.8265 8.00049L11.8872 6.93983L12.9478 8.00049L11.8872 9.06114L10.8265 8.00049Z" fill="#F1F2F2"/>
<path d="M3.04919 7.99951L4.10985 6.93886L5.17051 7.99951L4.10985 9.06017L3.04919 7.99951Z" fill="#F1F2F2"/>
</g>
</svg>
