<svg width="26" height="16" viewBox="0 0 26 16" fill="none" xmlns="http://www.w3.org/2000/svg">
<g style="mix-blend-mode:luminosity">
<path d="M16.5525 1.71094H9.55188V14.2883H16.5525V1.71094Z" fill="#FF5A00"/>
<path d="M10.0179 8C10.0179 5.44466 11.2192 3.1767 13.0626 1.71133C11.7059 0.64466 9.9946 0 8.12793 0C3.70592 0 0.12793 3.57799 0.12793 8C0.12793 12.422 3.70592 16 8.12793 16C9.9946 16 11.7059 15.3553 13.0626 14.2887C11.2166 12.844 10.0179 10.5553 10.0179 8Z" fill="#EB001B"/>
<path d="M25.9973 8C25.9973 12.422 22.4193 16 17.9973 16C16.1306 16 14.4193 15.3553 13.0626 14.2887C14.9293 12.8207 16.1073 10.5553 16.1073 8C16.1073 5.44466 14.906 3.1767 13.0626 1.71133C14.4167 0.64466 16.128 0 17.9947 0C22.4193 0 25.9973 3.60129 25.9973 8Z" fill="#F79E1B"/>
</g>
</svg>
