<?xml version="1.0" encoding="utf-8"?>
<!-- Generator: Adobe Illustrator 26.0.1, SVG Export Plug-In . SVG Version: 6.00 Build 0)  -->
<svg version="1.1" id="Слой_1" xmlns="http://www.w3.org/2000/svg" xmlns:xlink="http://www.w3.org/1999/xlink" x="0px" y="0px"
	 viewBox="0 0 18 18" style="enable-background:new 0 0 18 18;" xml:space="preserve">
<style type="text/css">
	.st0{fill:#FFFFFF;}
</style>
<path class="st0" d="M16.3,7.7c-0.3-2.5-2.4-4.3-4.8-4.3H6.5c-2.4,0-4.5,1.8-4.8,4.3c0,0.3-0.6,4.4-0.6,4.6c0,1.3,1,2.3,2.2,2.3
	c0.9,0,1.6-0.5,2-1.3l1.4-2.7h4.5l1.4,2.7c0.4,0.8,1.2,1.3,2,1.3c1.2,0,2.2-1,2.2-2.3C16.9,12,16.3,7.9,16.3,7.7z M12.4,5.1
	c0.4,0,0.7,0.3,0.7,0.7c0,0.4-0.3,0.7-0.7,0.7s-0.7-0.3-0.7-0.7C11.6,5.4,12,5.1,12.4,5.1z M7.3,7.9H6.2V9H5.1V7.9H3.9V6.8h1.1V5.6
	h1.1v1.1h1.1V7.9z M10.9,8.1c-0.4,0-0.7-0.3-0.7-0.7s0.3-0.7,0.7-0.7c0.4,0,0.7,0.3,0.7,0.7C11.6,7.7,11.3,8.1,10.9,8.1z M12.4,9.6
	c-0.4,0-0.7-0.3-0.7-0.7c0-0.4,0.3-0.7,0.7-0.7s0.7,0.3,0.7,0.7C13.1,9.2,12.8,9.6,12.4,9.6z M13.9,8.1c-0.4,0-0.7-0.3-0.7-0.7
	s0.3-0.7,0.7-0.7c0.4,0,0.7,0.3,0.7,0.7S14.3,8.1,13.9,8.1z"/>
</svg>
