<svg width="17" height="16" fill="none" xmlns="http://www.w3.org/2000/svg"><g style="mix-blend-mode:luminosity"><path d="M14.4 4.134c.027-.22.04-.445.04-.672A3.462 3.462 0 0 0 10.98 0H5.193a.745.745 0 0 0-.735.622l-2.132 12.67a.745.745 0 0 0 .735.87h2.116c.364 0 .68-.263.741-.622l.01-.059-.295 1.753c-.067.4.242.766.648.766h1.851c.321 0 .595-.232.648-.548l.526-3.126c.09-.538.557-.933 1.104-.933h.486a4.783 4.783 0 0 0 4.783-4.783 3.033 3.033 0 0 0-1.28-2.476z" fill="#0032A5"/><path d="M14.4 4.134a5.45 5.45 0 0 1-5.41 4.778H7.377a.81.81 0 0 0-.778.586l-.965 5.736c-.067.4.242.766.648.766h1.851c.32 0 .595-.232.648-.548l.526-3.126c.09-.538.557-.933 1.103-.933h.487a4.783 4.783 0 0 0 4.783-4.783 3.033 3.033 0 0 0-1.28-2.476z" fill="#0085CC"/><path d="M7.376 8.912h1.615A5.45 5.45 0 0 0 14.4 4.134a3.023 3.023 0 0 0-1.76-.562H8.426c-.48 0-.889.346-.969.82l-.859 5.106a.81.81 0 0 1 .778-.586z" fill="#001E82"/></g></svg>