<svg width="150" height="20" fill="none" xmlns="http://www.w3.org/2000/svg"><path d="M11.928 15.808H5.256L4.152 19H.624L6.648 2.224h3.912L16.584 19h-3.552l-1.104-3.192zm-.912-2.688L8.592 6.112 6.168 13.12h4.848zm11.18-11.88V19h-3.36V1.24h3.36zm5.023 2.88c-.592 0-1.088-.184-1.488-.552a1.925 1.925 0 0 1-.576-1.416c0-.56.192-1.024.576-1.392.4-.384.896-.576 1.488-.576s1.08.192 1.464.576c.4.368.6.832.6 1.392 0 .56-.2 1.032-.6 1.416-.384.368-.872.552-1.464.552zm1.656 1.584V19h-3.36V5.704h3.36zm6.68 1.944c.432-.64 1.024-1.16 1.776-1.56.768-.4 1.64-.6 2.616-.6 1.136 0 2.16.28 3.072.84.928.56 1.656 1.36 2.184 2.4.544 1.024.816 2.216.816 3.576 0 1.36-.272 2.568-.816 3.624-.528 1.04-1.256 1.848-2.184 2.424-.912.576-1.936.864-3.072.864-.992 0-1.864-.192-2.616-.576-.736-.4-1.328-.912-1.776-1.536V19h-3.36V1.24h3.36v6.408zm7.032 4.656c0-.8-.168-1.488-.504-2.064-.32-.592-.752-1.04-1.296-1.344a3.403 3.403 0 0 0-1.728-.456c-.608 0-1.184.16-1.728.48-.528.304-.96.752-1.296 1.344-.32.592-.48 1.288-.48 2.088s.16 1.496.48 2.088c.336.592.768 1.048 1.296 1.368a3.49 3.49 0 0 0 1.728.456c.624 0 1.2-.16 1.728-.48a3.45 3.45 0 0 0 1.296-1.368c.336-.592.504-1.296.504-2.112zm5.01 0c0-1.344.264-2.536.792-3.576.544-1.04 1.272-1.84 2.184-2.4.928-.56 1.96-.84 3.096-.84.992 0 1.856.2 2.592.6.752.4 1.352.904 1.8 1.512V5.704h3.384V19H58.06v-1.944c-.432.624-1.032 1.144-1.8 1.56-.752.4-1.624.6-2.616.6a5.71 5.71 0 0 1-3.072-.864c-.912-.576-1.64-1.384-2.184-2.424-.528-1.056-.792-2.264-.792-3.624zm10.464.048c0-.816-.16-1.512-.48-2.088-.32-.592-.752-1.04-1.296-1.344a3.397 3.397 0 0 0-1.752-.48c-.624 0-1.2.152-1.728.456-.528.304-.96.752-1.296 1.344-.32.576-.48 1.264-.48 2.064s.16 1.504.48 2.112c.336.592.768 1.048 1.296 1.368.544.32 1.12.48 1.728.48.624 0 1.208-.152 1.752-.456.544-.32.976-.768 1.296-1.344.32-.592.48-1.296.48-2.112z" fill="#B94FE6"/><path d="M76.39 7.288a3.933 3.933 0 0 0-1.584-1.608c-.672-.368-1.456-.552-2.352-.552-.992 0-1.872.224-2.64.672-.768.448-1.368 1.088-1.8 1.92-.432.832-.648 1.792-.648 2.88 0 1.12.216 2.096.648 2.928a4.751 4.751 0 0 0 1.848 1.92c.784.448 1.696.672 2.736.672 1.28 0 2.328-.336 3.144-1.008.816-.688 1.352-1.64 1.608-2.856h-5.76V9.688h9.072v2.928a7.87 7.87 0 0 1-1.44 3.24c-.736.992-1.688 1.792-2.856 2.4-1.152.592-2.448.888-3.888.888-1.616 0-3.08-.36-4.392-1.08a8.143 8.143 0 0 1-3.072-3.048c-.736-1.296-1.104-2.768-1.104-4.416 0-1.648.368-3.12 1.104-4.416a7.92 7.92 0 0 1 3.072-3.048c1.312-.736 2.768-1.104 4.368-1.104 1.888 0 3.528.464 4.92 1.392 1.392.912 2.352 2.2 2.88 3.864H76.39zm5.894 5.016c0-1.344.264-2.536.792-3.576.544-1.04 1.272-1.84 2.184-2.4.928-.56 1.96-.84 3.096-.84.992 0 1.856.2 2.592.6.752.4 1.352.904 1.8 1.512V5.704h3.384V19h-3.384v-1.944c-.432.624-1.032 1.144-1.8 1.56-.752.4-1.624.6-2.616.6a5.71 5.71 0 0 1-3.072-.864c-.912-.576-1.64-1.384-2.184-2.424-.528-1.056-.792-2.264-.792-3.624zm10.464.048c0-.816-.16-1.512-.48-2.088-.32-.592-.752-1.04-1.296-1.344a3.397 3.397 0 0 0-1.752-.48c-.624 0-1.2.152-1.728.456-.528.304-.96.752-1.296 1.344-.32.576-.48 1.264-.48 2.064s.16 1.504.48 2.112c.336.592.768 1.048 1.296 1.368.544.32 1.12.48 1.728.48.624 0 1.208-.152 1.752-.456.544-.32.976-.768 1.296-1.344.32-.592.48-1.296.48-2.112zm23.178-6.84c1.632 0 2.944.504 3.936 1.512 1.008.992 1.512 2.384 1.512 4.176V19h-3.36v-7.344c0-1.04-.264-1.832-.792-2.376-.528-.56-1.248-.84-2.16-.84-.912 0-1.64.28-2.184.84-.528.544-.792 1.336-.792 2.376V19h-3.36v-7.344c0-1.04-.264-1.832-.792-2.376-.528-.56-1.248-.84-2.16-.84-.928 0-1.664.28-2.208.84-.528.544-.792 1.336-.792 2.376V19h-3.36V5.704h3.36v1.608c.432-.56.984-1 1.656-1.32.688-.32 1.44-.48 2.256-.48 1.04 0 1.968.224 2.784.672a4.55 4.55 0 0 1 1.896 1.872c.432-.768 1.056-1.384 1.872-1.848a5.43 5.43 0 0 1 2.688-.696zm20.996 6.552c0 .48-.032.912-.096 1.296h-9.72c.08.96.416 1.712 1.008 2.256.592.544 1.32.816 2.184.816 1.248 0 2.136-.536 2.664-1.608h3.624c-.384 1.28-1.12 2.336-2.208 3.168-1.088.816-2.424 1.224-4.008 1.224-1.28 0-2.432-.28-3.456-.84a6.182 6.182 0 0 1-2.376-2.424c-.56-1.04-.84-2.24-.84-3.6 0-1.376.28-2.584.84-3.624a5.861 5.861 0 0 1 2.352-2.4c1.008-.56 2.168-.84 3.48-.84 1.264 0 2.392.272 3.384.816a5.63 5.63 0 0 1 2.328 2.328c.56.992.84 2.136.84 3.432zm-3.48-.96c-.016-.864-.328-1.552-.936-2.064-.608-.528-1.352-.792-2.232-.792-.832 0-1.536.256-2.112.768-.56.496-.904 1.192-1.032 2.088h6.312zm11.021 8.112c-1.088 0-2.064-.192-2.928-.576-.864-.4-1.552-.936-2.064-1.608a4.092 4.092 0 0 1-.816-2.232h3.384c.064.512.312.936.744 1.272.448.336 1 .504 1.656.504.64 0 1.136-.128 1.488-.384.368-.256.552-.584.552-.984 0-.432-.224-.752-.672-.96-.432-.224-1.128-.464-2.088-.72-.992-.24-1.808-.488-2.448-.744a4.351 4.351 0 0 1-1.632-1.176c-.448-.528-.672-1.24-.672-2.136 0-.736.208-1.408.624-2.016.432-.608 1.04-1.088 1.824-1.44.8-.352 1.736-.528 2.808-.528 1.584 0 2.848.4 3.792 1.2.944.784 1.464 1.848 1.56 3.192h-3.216c-.048-.528-.272-.944-.672-1.248-.384-.32-.904-.48-1.56-.48-.608 0-1.08.112-1.416.336-.32.224-.48.536-.48.936 0 .448.224.792.672 1.032.448.224 1.144.456 2.088.696.96.24 1.752.488 2.376.744.624.256 1.16.656 1.608 1.2.464.528.704 1.232.72 2.112 0 .768-.216 1.456-.648 2.064-.416.608-1.024 1.088-1.824 1.44-.784.336-1.704.504-2.76.504z" fill="#fff"/></svg>