<svg xmlns="http://www.w3.org/2000/svg" xmlns:xlink="http://www.w3.org/1999/xlink"><defs><clipPath id="clip0_307_1539"><path fill="#fff" transform="translate(.435 .435)" d="M0 0h19.13v19.13H0z"/></clipPath><clipPath id="clip0_307_1544"><path fill="#fff" transform="translate(.435 .435)" d="M0 0h19.13v19.13H0z"/></clipPath><clipPath id="clip0_307_483"><path fill="#fff" d="M0 0h28v28H0z"/></clipPath></defs><symbol id="twitter"><path d="M19.565 2.025a8.012 8.012 0 0 1-2.248.625A3.843 3.843 0 0 0 19.04.462a8.232 8.232 0 0 1-2.487.962 3.925 3.925 0 0 0-2.87-1.25c-2.175 0-3.921 1.78-3.921 3.943 0 .313.024.601.095.89C6.604 4.862 3.735 3.276 1.798.895c-1.387 2.5.167 4.568 1.195 5.266-.621 0-1.243-.193-1.77-.481 0 1.947 1.364 3.558 3.133 3.919-.382.12-1.243.192-1.77.072.503 1.563 1.962 2.717 3.66 2.741-1.34 1.058-3.3 1.9-5.811 1.635a11.019 11.019 0 0 0 6.026 1.78c7.222 0 11.143-6.012 11.143-11.205 0-.168 0-.337-.024-.505.813-.601 1.483-1.298 1.985-2.092z" fill="#fff"/></symbol><symbol id="facebook"><g clip-path="url(#clip0_307_1539)"><path d="M11.482 19.565V10.84h2.927l.44-3.402h-3.367V5.267c0-.985.272-1.656 1.685-1.656h1.8V.567c-.311-.04-1.38-.133-2.623-.133C9.747.435 7.97 2.02 7.97 4.93v2.508H5.033v3.402H7.97v8.725h3.512z" fill="#fff"/></g></symbol><symbol id="discord"><g clip-path="url(#clip0_307_1544)"><path d="M16.63 3.918a15.777 15.777 0 0 0-3.894-1.208.06.06 0 0 0-.063.03c-.168.299-.354.69-.485.996a14.57 14.57 0 0 0-4.373 0 9.902 9.902 0 0 0-.493-.996.061.061 0 0 0-.062-.03 15.732 15.732 0 0 0-3.894 1.208.056.056 0 0 0-.026.022C.86 7.645.18 11.26.514 14.829a.066.066 0 0 0 .025.044 15.865 15.865 0 0 0 4.777 2.415.062.062 0 0 0 .067-.022 11.34 11.34 0 0 0 .977-1.59.06.06 0 0 0-.033-.084 10.447 10.447 0 0 1-1.493-.71.061.061 0 0 1-.006-.103c.1-.075.201-.153.297-.232a.06.06 0 0 1 .062-.008c3.13 1.43 6.52 1.43 9.614 0a.06.06 0 0 1 .062.007c.096.08.197.158.298.233a.061.061 0 0 1-.006.102 9.8 9.8 0 0 1-1.493.71.06.06 0 0 0-.032.086c.287.556.615 1.086.976 1.588a.06.06 0 0 0 .067.023 15.809 15.809 0 0 0 4.785-2.415.061.061 0 0 0 .025-.044c.399-4.126-.668-7.71-2.829-10.888a.048.048 0 0 0-.024-.023zm-9.802 8.737c-.943 0-1.72-.865-1.72-1.928S5.87 8.8 6.828 8.8c.965 0 1.734.873 1.719 1.928 0 1.063-.762 1.928-1.72 1.928zm6.356 0c-.942 0-1.719-.865-1.719-1.928s.762-1.928 1.72-1.928c.964 0 1.733.873 1.718 1.928 0 1.063-.754 1.928-1.719 1.928z" fill="#fff"/></g></symbol><symbol id="bell"><g clip-path="url(#clip0_307_483)" fill="#fff"><path d="M24.942 19.732a7.814 7.814 0 0 1-2.775-5.98V10.5c0-4.106-3.05-7.504-7-8.073v-1.26a1.166 1.166 0 1 0-2.334 0v1.26c-3.951.569-7 3.967-7 8.073v3.253a7.823 7.823 0 0 1-2.786 5.988 2.038 2.038 0 0 0-.714 1.55c0 1.127.916 2.042 2.042 2.042h19.25a2.044 2.044 0 0 0 2.042-2.041c0-.598-.26-1.162-.725-1.56zM14 28a4.382 4.382 0 0 0 4.286-3.5H9.714A4.382 4.382 0 0 0 14 28z"/></g></symbol><symbol id="google" viewBox="0 0 16 16"><path d="M16 8c0-.5 0-1-.1-1.5 0-.2-.2-.4-.5-.4H8c-.3 0-.5.2-.5.5v2.8c0 .3.2.5.5.5h3.8c-.2.5-.6.9-.9 1.2l2.6 2.6C15 12.3 16 10.3 16 8zM8 3.8c.9 0 1.8.3 2.5.8.2.1.4.1.6 0l2-2c.1-.1.1-.2.1-.4 0-.1-.1-.3-.2-.3C11.7.7 9.9 0 8 0 5.3 0 2.8 1.4 1.4 3.5l2.8 2.8C4.8 4.8 6.3 3.8 8 3.8zM8 16c1.8 0 3.4-.6 4.8-1.6l-2.7-2.7c-.6.3-1.4.5-2.1.5-1.7 0-3.2-1-3.9-2.5l-2.8 2.8C2.8 14.6 5.3 16 8 16zM3.8 8.7c0-.2-.1-.4-.1-.7 0-.2 0-.5.1-.7L.9 4.4C.3 5.5 0 6.7 0 8c0 1.3.3 2.5.9 3.6l2.9-2.9z" fill="#fff"/></symbol><symbol id="shop" viewBox="0 0 21 18"><path d="M16.7 13.5H8.8c-1.1 0-2.1-.8-2.4-1.9L3.7 2.4c-.1-.4-.4-.6-.7-.6H.9c-.5 0-.9-.4-.9-.9S.4 0 .9 0H3c1.1 0 2.1.8 2.4 1.9l.5 1.7h13.4c.5 0 1.1.3 1.4.7.3.4.4 1 .3 1.5l-1.8 5.9c-.4 1.1-1.4 1.8-2.5 1.8zm2.6-8.1zM9.6 18c-1 0-1.7-.8-1.7-1.8s.8-1.8 1.7-1.8 1.7.8 1.7 1.8c.1 1-.7 1.8-1.7 1.8zm0-1.8zm6.1 1.8c-1 0-1.8-.8-1.8-1.8s.8-1.8 1.8-1.8 1.7.8 1.7 1.8c.1 1-.7 1.8-1.7 1.8zm0-1.8z" fill="#fff" fill-opacity=".7"/></symbol><symbol id="news" viewBox="0 0 18 17"><path d="M17.5 0h-13c-.3 0-.5.2-.5.5v15c0 .5-.2 1.1-.5 1.5h12c1.4 0 2.5-1.1 2.5-2.5V.5c0-.3-.2-.5-.5-.5zm-3 13h-7c-.3 0-.5-.2-.5-.5s.2-.5.5-.5h7c.3 0 .5.2.5.5s-.2.5-.5.5zm0-3h-7c-.3 0-.5-.2-.5-.5s.2-.5.5-.5h7c.3 0 .5.2.5.5s-.2.5-.5.5zm0-3h-7c-.3 0-.5-.2-.5-.5s.2-.5.5-.5h7c.3 0 .5.2.5.5s-.2.5-.5.5zm0-3h-7c-.3 0-.5-.2-.5-.5s.2-.5.5-.5h7c.3 0 .5.2.5.5s-.2.5-.5.5zm-12-2h-2c-.3 0-.5.2-.5.5v13c0 .8.7 1.5 1.5 1.5S3 16.3 3 15.5v-13c0-.3-.2-.5-.5-.5z" fill="#fff" fill-opacity=".7"/></symbol><symbol id="games" viewBox="0 0 27 18"><path d="M24.6 3.2c-3.6-5.9-8.9-1.8-8.9-1.8-.3.3-1 .5-1.4.5h-1.4c-.4 0-1.1-.2-1.4-.5 0 0-5.4-4.1-8.9 1.8C-1 9.1.5 15.5.5 15.5c.3 1.6 1.1 2.6 2.6 2.5 1.6-.1 5-4.2 5-4.2.3-.3.9-.6 1.3-.6H18c.4 0 1 .3 1.3.6 0 0 3.4 4.1 5 4.2 1.6.1 2.4-.9 2.6-2.5-.2 0 1.3-6.4-2.3-12.3zM10.3 8H8.4v1.8s-.4.3-1 .3-.9-.3-.9-.3V8H4.8s-.2-.2-.3-.8c0-.6.2-1.1.2-1.1h1.9V4.2S7 4 7.5 4s.9.2.9.2V6h1.7s.3.4.3.9c.2.5-.1 1.1-.1 1.1zm8.4 2c-.8 0-1.5-.7-1.5-1.5S17.9 7 18.7 7s1.5.7 1.5 1.5c0 .9-.7 1.5-1.5 1.5zm0-4c-.8 0-1.5-.7-1.5-1.5S17.9 3 18.7 3s1.5.7 1.5 1.5S19.5 6 18.7 6zm3.7 2.2c-.8 0-1.5-.7-1.5-1.5s.7-1.5 1.5-1.5 1.5.7 1.5 1.5-.7 1.5-1.5 1.5z" fill="#fff"/></symbol></svg>