<svg width="32" height="32" fill="none" xmlns="http://www.w3.org/2000/svg"><path d="M16 32c8.837 0 16-7.163 16-16S24.837 0 16 0 0 7.163 0 16s7.163 16 16 16z" fill="#B159D7"/><path d="M16 29.004c7.182 0 13.004-5.822 13.004-13.004 0-7.182-5.822-13.004-13.004-13.004C8.818 2.996 2.996 8.818 2.996 16c0 7.182 5.822 13.004 13.004 13.004z" fill="#A73DD4"/><path d="M20.2 12.177v-3.7a.25.25 0 0 0-.25-.25h-7.9a.25.25 0 0 0-.25.25v3.7a.25.25 0 0 1-.25.25h-1.6a.25.25 0 0 0-.25.25v5.799c0 .138.113.25.25.25h1.6a.25.25 0 0 1 .25.25v1.6c0 .138.112.25.25.25h7.9a.25.25 0 0 0 .25-.25v-1.6a.25.25 0 0 1 .25-.25h1.6a.25.25 0 0 0 .25-.25V12.676a.25.25 0 0 0-.25-.25h-1.6a.25.25 0 0 1-.25-.25zM10.212 22.248h-1.6a.25.25 0 0 1-.25-.25v-1.6a.25.25 0 0 1 .25-.25h1.6a.25.25 0 0 1 .25.25v1.6a.25.25 0 0 1-.25.25zM23.387 22.248h-1.6a.25.25 0 0 1-.25-.25v-1.6a.25.25 0 0 1 .25-.25h1.6a.25.25 0 0 1 .25.25v1.6a.25.25 0 0 1-.25.25zM13.982 24.393h-1.6a.25.25 0 0 1-.25-.25v-1.6a.25.25 0 0 1 .25-.25h1.6a.25.25 0 0 1 .25.25v1.6a.25.25 0 0 1-.25.25zM19.846 24.393h-1.6a.25.25 0 0 1-.25-.25v-1.6a.25.25 0 0 1 .25-.25h1.6a.25.25 0 0 1 .25.25v1.6a.25.25 0 0 1-.25.25z" fill="#DB85FF"/><path d="M14.402 15.628h-1.6a.25.25 0 0 1-.25-.25v-1.6a.25.25 0 0 1 .25-.25h1.6a.25.25 0 0 1 .25.25v1.6a.25.25 0 0 1-.25.25zM19.198 15.628h-1.6a.25.25 0 0 1-.25-.25v-1.6a.25.25 0 0 1 .25-.25h1.6a.25.25 0 0 1 .25.25v1.6a.25.25 0 0 1-.25.25z" fill="#A73DD4"/></svg>