<svg width="32" height="32" viewBox="0 0 32 32" fill="none" xmlns="http://www.w3.org/2000/svg">
<path d="M16 31.5C24.5604 31.5 31.5 24.5604 31.5 16C31.5 7.43959 24.5604 0.5 16 0.5C7.43959 0.5 0.5 7.43959 0.5 16C0.5 24.5604 7.43959 31.5 16 31.5Z" fill="#2D2D45"/>
<path d="M28.4385 25.2374C26.9929 23.302 25.1158 21.7305 22.9564 20.6477C20.797 19.5649 18.4149 19.0008 15.9992 19C13.5835 18.9992 11.201 19.5619 9.04092 20.6434C6.88084 21.7248 5.00277 23.2951 3.55597 25.2296C4.99542 27.1739 6.87042 28.7538 9.03062 29.8427C11.1908 30.9317 13.5761 31.4993 15.9953 31.5C18.4144 31.5008 20.8001 30.9347 22.961 29.8471C25.1219 28.7596 26.9979 27.1808 28.4385 25.2374Z" fill="white"/>
<path d="M16 17C19.3137 17 22 14.3137 22 11C22 7.68629 19.3137 5 16 5C12.6863 5 10 7.68629 10 11C10 14.3137 12.6863 17 16 17Z" fill="white"/>
</svg>
