<svg width="16" height="16" fill="none" xmlns="http://www.w3.org/2000/svg"><g clip-path="url(#clip0)" fill="#fff"><path d="M13.653 3.21a.495.495 0 0 1-.336-.13A7.885 7.885 0 0 0 8 1a7.882 7.882 0 0 0-5.317 2.08.501.501 0 0 1-.674-.739A8.884 8.884 0 0 1 8 0c2.207 0 4.334.831 5.99 2.341a.5.5 0 0 1-.337.87z"/><path d="M14.5 6.478a.498.498 0 0 1-.415-.221C12.697 4.19 10.422 2.956 8 2.956s-4.697 1.234-6.085 3.3a.5.5 0 1 1-.83-.557C2.659 3.356 5.244 1.957 8 1.957c2.756 0 5.341 1.399 6.915 3.743a.5.5 0 0 1-.415.778z"/><path d="M6.42 16a.5.5 0 0 1-.355-.148c-.109-.11-2.671-2.725-2.671-5.243 0-2.614 2.066-4.74 4.606-4.74s4.606 2.126 4.606 4.74a.5.5 0 0 1-1 0c0-2.062-1.617-3.74-3.606-3.74-1.989 0-3.606 1.678-3.606 3.74 0 2.111 2.358 4.515 2.382 4.539a.5.5 0 0 1-.355.852z"/><path d="M9.58 16c-1.203 0-3.991-2.288-4.261-4.836-.096-.9.191-1.822.766-2.465a2.55 2.55 0 0 1 1.901-.872H8c.708 0 1.377.278 1.887.784.532.528.824 1.238.824 1.998v.326c0 .804.626 1.457 1.395 1.457.77 0 1.395-.653 1.395-1.457v-.114c0-3.113-2.255-5.703-5.134-5.895a5.355 5.355 0 0 0-4.053 1.455 5.8 5.8 0 0 0-1.815 4.228c0 1.323.448 2.612 1.262 3.629a.5.5 0 0 1-.782.624 6.834 6.834 0 0 1-1.48-4.253c0-1.884.778-3.692 2.132-4.958a6.342 6.342 0 0 1 4.802-1.724c3.402.228 6.068 3.256 6.068 6.894v.114c0 1.354-1.074 2.456-2.395 2.456-1.32 0-2.395-1.102-2.395-2.456v-.326c0-.492-.188-.95-.529-1.29a1.666 1.666 0 0 0-1.181-.493h-.01a1.547 1.547 0 0 0-1.161.54c-.39.435-.583 1.069-.517 1.693C6.533 13.137 8.922 15 9.579 15a.5.5 0 0 1 0 .999z"/><path d="M11.435 15.022c-1.79 0-3.974-2.187-3.974-4.74a.5.5 0 0 1 1 0c0 1.98 1.663 3.74 2.974 3.74a.5.5 0 0 1 0 1z"/></g><defs><clipPath id="clip0"><path fill="#fff" d="M0 0h16v16H0z"/></clipPath></defs></svg>