<svg width="35" height="35" viewBox="0 0 35 35" fill="none" xmlns="http://www.w3.org/2000/svg">
<path d="M24.014 19.7338L19.2534 16.8141C19.1954 16.7784 19.1287 16.7543 19.0614 16.7438L17.571 16.4813C17.2953 16.4326 17.0245 16.622 16.9759 16.8972C16.9272 17.1724 17.1167 17.4427 17.3924 17.4912L18.7989 17.739L23.4762 20.6077C23.7045 20.7477 24.0177 20.6797 24.1692 20.4596C24.3318 20.2234 24.2584 19.8839 24.014 19.7338Z" fill="white"/>
<path d="M34.8616 19.8982C34.6678 19.6913 34.3427 19.6804 34.1354 19.8737L32.0529 21.8165L22.5105 12.4183L34.8375 0.886843C35.0444 0.69318 35.055 0.368678 34.861 0.162095C34.6671 -0.044487 34.3419 -0.0550143 34.1349 0.13858L21.4181 12.0346C21.2084 12.2308 21.2041 12.5723 21.4086 12.7738L22.2527 13.605L21.9833 13.8425L16.3415 13.3575C16.2544 13.3501 16.164 13.3651 16.0845 13.4018L11.6144 15.4339C11.6014 15.4306 11.5883 15.4273 11.5749 15.4249L9.00355 14.972L9.21147 14.4414C9.31427 14.1791 9.18586 13.8831 8.92384 13.7786L0.704655 10.4969C0.441128 10.3915 0.142264 10.5196 0.0369351 10.7826C-0.0684619 11.0455 0.0596718 11.3439 0.32313 11.4491L8.06888 14.5418L3.50428 26.1854L0.685342 25.1888C0.417843 25.0943 0.124321 25.234 0.0296073 25.501C-0.0651062 25.7679 0.0749438 26.061 0.342374 26.1555L3.63002 27.3178C3.88807 27.409 4.18022 27.2755 4.27987 27.0212L5.04271 25.0753L7.04155 26.1934L6.8211 26.5501C6.19646 27.5606 6.51183 28.8901 7.5243 29.5137C8.05971 29.8434 8.72434 29.9216 9.32262 29.7283C9.41857 30.3507 9.78496 30.906 10.3222 31.2369C10.8576 31.5666 11.5222 31.6449 12.1205 31.4515C12.2166 32.0739 12.5828 32.6292 13.1201 32.9601C13.6571 33.2909 14.3183 33.3687 14.9185 33.1754C15.0147 33.7974 15.3809 34.3525 15.918 34.6833C16.6986 35.1641 17.7319 35.0922 18.4356 34.5035C18.613 34.3551 18.7656 34.178 18.8871 33.9814L19.2375 33.4145L19.5261 33.5915C20.3077 34.0709 21.3408 33.997 22.0433 33.407C22.2204 33.2583 22.3727 33.0809 22.4939 32.8841C22.7347 32.4929 22.8343 32.0544 22.808 31.6276C22.9712 31.6667 23.1381 31.6878 23.3066 31.6878C24.0527 31.6878 24.7584 31.2951 25.1488 30.6608C25.384 30.2787 25.4914 29.843 25.4642 29.4045C25.6269 29.4435 25.7935 29.4644 25.9614 29.4644C26.7075 29.4644 27.4133 29.0717 27.8037 28.4374C28.039 28.055 28.1464 27.6191 28.119 27.1802C28.2835 27.2193 28.4505 27.2398 28.6168 27.2398C29.3423 27.2398 30.0517 26.8751 30.4586 26.2142C31.0814 25.2024 30.7635 23.8735 29.7498 23.2519L29.3978 23.036L30.5784 21.8047L31.6827 22.8923C31.8764 23.083 32.1956 23.0872 32.3943 22.9019L34.8372 20.623C35.0443 20.4297 35.0553 20.1052 34.8616 19.8982ZM9.61902 28.2732C9.29173 28.8025 8.59409 28.9674 8.06375 28.6409C7.53341 28.3143 7.36822 27.6179 7.69537 27.0886L10.5727 22.4339C10.8938 21.9144 11.5829 21.7445 12.109 22.0548C12.6535 22.3761 12.8037 23.1211 12.4769 23.65L9.61902 28.2732ZM12.4168 29.9964C12.0897 30.5257 11.3919 30.6907 10.8617 30.3641C10.3378 30.0414 10.1695 29.3355 10.4933 28.8118L12.795 25.088C13.1162 24.5686 13.8052 24.3986 14.3314 24.7089C14.8759 25.0302 15.0261 25.7752 14.6992 26.3041L12.4168 29.9964ZM15.2149 31.7196C15.0563 31.9761 14.8072 32.1556 14.5135 32.225C14.2196 32.2945 13.9165 32.2455 13.6596 32.0873C13.1357 31.7646 12.9675 31.0587 13.2913 30.535L15.0176 27.7421C15.3387 27.2226 16.0279 27.0527 16.554 27.363C17.0984 27.6843 17.2487 28.4294 16.9218 28.9583L15.2149 31.7196ZM19.1443 31.6125L18.0128 33.4429C17.6895 33.9659 16.9823 34.1337 16.4575 33.8105C15.9337 33.4879 15.7655 32.7819 16.0892 32.2582L17.2401 30.3963C17.5612 29.8769 18.2503 29.7068 18.7764 30.0173C19.3209 30.3385 19.4711 31.0836 19.1443 31.6125ZM28.5022 22.4867L25.9558 20.9249C25.7197 20.78 25.3943 20.8576 25.2493 21.0933C25.1042 21.329 25.1819 21.6538 25.418 21.7986L29.2118 24.1254C29.7427 24.4511 29.9093 25.1471 29.5831 25.6771C29.2568 26.2071 28.5595 26.3733 28.0285 26.0477L23.9597 23.552C23.718 23.4037 23.4016 23.4792 23.2531 23.7205C23.1046 23.9617 23.1802 24.2775 23.4218 24.4257L26.557 26.3487C27.0816 26.6704 27.2511 27.3761 26.9283 27.9004C26.606 28.424 25.8991 28.5931 25.3738 28.271L22.5325 26.5283C22.2908 26.38 21.9744 26.4555 21.826 26.6967C21.6775 26.938 21.753 27.2538 21.9947 27.402L23.9023 28.572C24.4267 28.8937 24.5963 29.5993 24.2735 30.1236C23.9512 30.6471 23.2443 30.8164 22.719 30.4942C22.719 30.4942 21.0414 29.4663 21.0257 29.4588C20.7912 29.3457 20.5044 29.4262 20.3652 29.6523C20.2167 29.8935 20.2923 30.2094 20.5339 30.3576L21.2475 30.7952C21.7784 31.1209 21.9448 31.8169 21.6187 32.3469C21.2964 32.8705 20.5894 33.0396 20.0641 32.7175L19.7773 32.5415L20.0189 32.1507C20.3277 31.6511 20.4235 31.0359 20.2817 30.4628C20.1419 29.8972 19.793 29.4254 19.2996 29.1342C18.9146 28.9071 18.4839 28.8151 18.0645 28.8433C18.1432 28.5056 18.1436 28.1498 18.0593 27.8086C17.9194 27.243 17.5706 26.7712 17.0771 26.48C16.6921 26.2529 16.2614 26.1608 15.842 26.1891C16.0539 25.2807 15.6639 24.3034 14.8547 23.8258C14.4697 23.5987 14.039 23.5067 13.6196 23.5349C13.8314 22.6265 13.4415 21.6492 12.6322 21.1716C11.6277 20.5789 10.3117 20.9035 9.6988 21.895L7.58196 25.3195L5.42074 24.1111L8.62155 15.9461L10.3643 16.2531C9.86864 16.8676 9.72928 17.7329 10.0785 18.4986C10.44 19.2907 11.2252 19.7595 12.0453 19.7594C12.3439 19.7594 12.6472 19.6972 12.9363 19.5658L15.9447 18.1981C16.1994 18.0823 16.3153 17.7732 16.1992 17.5189C16.0832 17.2647 15.7736 17.1489 15.5189 17.2648L12.5104 18.6325C11.9434 18.8903 11.2718 18.6395 11.0135 18.0734C10.7552 17.5074 11.0064 16.8371 11.5736 16.5792L16.3876 14.3907L22.1141 14.883C22.1288 14.8843 22.1435 14.8849 22.1582 14.8849C22.2828 14.8849 22.4038 14.8396 22.4981 14.7566L22.9856 14.3269L29.8467 21.0842L28.5022 22.4867Z" fill="white"/>
</svg>
