<svg width="34" height="35" viewBox="0 0 34 35" fill="none" xmlns="http://www.w3.org/2000/svg">
<path d="M23.721 10.3423C21.9469 8.62195 19.5303 7.67448 16.9166 7.67448C14.3029 7.67448 11.8863 8.62195 10.1121 10.3423C8.33838 12.0623 7.36157 14.401 7.36157 16.9275C7.36157 19.624 8.56686 22.1969 10.6684 23.9867C11.7697 24.9244 12.4647 26.2214 12.6968 27.7554C12.132 28.0851 11.7521 28.6919 11.7521 29.3849V29.952C11.7521 30.8138 12.3395 31.5424 13.1399 31.7702C13.0331 32.0057 12.9731 32.2662 12.9731 32.5404V33.1075C12.9731 34.151 13.8339 35 14.8919 35H18.9413C19.9993 35 20.8601 34.151 20.8601 33.1075V32.5404C20.8601 32.2662 20.8002 32.0056 20.6934 31.7702C21.4938 31.5424 22.0811 30.8138 22.0811 29.952V29.3849C22.0811 28.6919 21.7013 28.0851 21.1364 27.7554C21.3686 26.2214 22.0637 24.9244 23.1648 23.9867C25.2664 22.197 26.4717 19.624 26.4717 16.9275C26.4717 14.401 25.4948 12.0623 23.721 10.3423ZM19.6572 33.1075C19.6572 33.4912 19.336 33.8033 18.9413 33.8033H14.8919C14.4971 33.8033 14.176 33.4912 14.176 33.1075V32.5404C14.176 32.1566 14.4971 31.8444 14.8919 31.8444H18.9412C19.336 31.8444 19.6571 32.1566 19.6571 32.5404L19.6572 33.1075ZM20.8781 29.9519C20.8781 30.3357 20.557 30.6478 20.1622 30.6478H13.6709C13.2761 30.6478 12.955 30.3357 12.955 29.9519V29.3848C12.955 29.0011 13.2761 28.6889 13.6709 28.6889H20.1622C20.557 28.6889 20.8781 29.0011 20.8781 29.3848V29.9519ZM15.0512 19.9864H13.8581C13.3757 19.9864 12.9832 19.604 12.9832 19.134C12.9832 18.6641 13.3757 18.2816 13.8581 18.2816H14.1763C14.6587 18.2816 15.0512 18.664 15.0512 19.134V19.9864ZM17.6221 27.4924H16.2541V21.183H17.6221V27.4924ZM22.3825 23.0777C21.0772 24.1892 20.2482 25.7073 19.9604 27.4924H18.825V21.183H20.0377C21.1834 21.183 22.1155 20.2638 22.1155 19.134C22.1155 18.0042 21.1834 17.085 20.0377 17.085H19.6999C18.5542 17.085 17.622 18.0042 17.622 19.134V19.9864H16.2541V19.134C16.2541 18.0042 15.3219 17.085 14.1762 17.085H13.8581C12.7123 17.085 11.7802 18.0042 11.7802 19.134C11.7802 20.2638 12.7123 21.183 13.8581 21.183H15.0511V27.4924H13.8727C13.5849 25.7073 12.7559 24.1892 11.4506 23.0777C9.61637 21.5156 8.56431 19.2739 8.56431 16.9275C8.56431 12.3346 12.1549 8.87106 16.9164 8.87106C21.678 8.87106 25.2686 12.3346 25.2686 16.9275C25.2687 19.2739 24.2167 21.5155 22.3825 23.0777ZM18.8251 19.9864V19.134C18.8251 18.664 19.2175 18.2816 19.7 18.2816H20.0377C20.5202 18.2816 20.9127 18.664 20.9127 19.134C20.9127 19.6041 20.5202 19.9864 20.0377 19.9864H18.8251Z" fill="white"/>
<path d="M26.5494 30.2536C26.1031 30.2536 25.6702 30.0857 25.3366 29.7548L23.6452 28.077L24.4946 27.2297L26.1861 28.9075C26.4157 29.1353 26.723 29.0685 26.9309 28.9354L29.0043 26.9472C29.2275 26.7227 29.1629 26.4237 29.0317 26.2196L27.3804 24.5815C27.175 24.3778 27.1451 24.0574 27.3092 23.8195C28.2092 22.5146 28.8595 20.9938 29.1897 19.4216C29.248 19.1443 29.4937 18.9457 29.7785 18.9457H32.1311C32.33 18.9112 32.6303 18.7695 32.6303 18.4254V15.5326C32.6044 15.3843 32.4941 15.0388 32.0337 15.0388H29.6375C29.3436 15.0388 29.0927 14.8276 29.0442 14.5392C28.7947 13.0538 28.1676 11.513 27.2307 10.0833C27.0753 9.84605 27.1083 9.53292 27.3099 9.33294L29.0014 7.65511C29.2294 7.42888 29.1627 7.12585 29.0293 6.92086L27.0251 4.86424C26.7973 4.64138 26.4939 4.70592 26.287 4.83702L24.6357 6.47506C24.4312 6.67796 24.1105 6.7075 23.8719 6.54566C22.5562 5.65264 21.0227 5.00738 19.4372 4.67974C19.1582 4.62208 18.9581 4.37746 18.9581 4.09394V1.71687C18.9581 1.40568 18.7225 1.19658 18.5024 1.19658H15.5858C15.387 1.23091 15.0867 1.37277 15.0867 1.71687V4.16372C15.0867 4.45628 14.874 4.70592 14.5838 4.75393C13.0859 5.00162 11.5322 5.62384 10.0905 6.55336C9.8526 6.70675 9.5393 6.67407 9.33864 6.47499L7.6472 4.79716C7.41759 4.56951 7.11023 4.63622 6.90235 4.76934L4.8289 6.75753C4.60575 6.98204 4.67041 7.28103 4.80161 7.48505L6.45289 9.12309C6.6583 9.32681 6.68822 9.64734 6.52417 9.88516C5.62413 11.19 4.97385 12.7108 4.64364 14.2831C4.58537 14.5604 4.33967 14.759 4.05487 14.759H1.70218C1.50332 14.7934 1.20296 14.9352 1.20296 15.2793V18.1719C1.23769 18.3688 1.381 18.6659 1.7291 18.6659H4.12524C4.41914 18.6659 4.67003 18.8771 4.71853 19.1655C4.96806 20.6509 5.59518 22.1917 6.53206 23.6214C6.68747 23.8587 6.65446 24.1718 6.45289 24.3718L4.76146 26.0496C4.53342 26.2758 4.60011 26.5789 4.73356 26.7838L6.73777 28.8405C6.96565 29.0633 7.26895 28.9988 7.47585 28.8678L9.12722 27.2296L9.97665 28.0769L8.28522 29.7547C8.26176 29.778 8.2365 29.7993 8.20951 29.8184C7.45751 30.3512 6.50176 30.2963 5.88532 29.6848C5.88291 29.6824 5.88058 29.68 5.87818 29.6775L3.83435 27.5804C3.81368 27.5591 3.79458 27.5364 3.77721 27.5124C3.23896 26.7649 3.29437 25.815 3.91194 25.2023L5.26332 23.8619C4.47808 22.5723 3.91976 21.2065 3.62827 19.8625H1.7291C0.844702 19.8625 0.119469 19.2011 0.00466148 18.2899C0.0015789 18.2652 0 18.2404 0 18.2155V15.2793C0 14.401 0.666213 13.6809 1.58422 13.567C1.60888 13.564 1.63377 13.5624 1.65865 13.5624H3.57527C3.92187 12.1703 4.4959 10.8259 5.2561 9.62573L3.91202 8.29244C3.88849 8.26918 3.86706 8.24398 3.84773 8.2172C3.30949 7.46972 3.3649 6.51978 3.98247 5.90721C3.98487 5.90482 3.98728 5.9025 3.98976 5.9001L6.10403 3.87273C6.12546 3.85224 6.14832 3.83331 6.17253 3.81619C6.92445 3.28334 7.88027 3.33823 8.49671 3.94983L9.84982 5.29202C11.1506 4.5123 12.5283 3.95806 13.8839 3.66878V1.71687C13.8839 0.838502 14.5501 0.118386 15.4681 0.00463674C15.4926 0.00157051 15.5175 0 15.5423 0H18.5023C19.4169 0 20.161 0.770148 20.161 1.71687V3.61621C21.5652 3.96015 22.9212 4.53002 24.1316 5.28491L25.4776 3.94983C25.501 3.92657 25.5263 3.90526 25.5533 3.88619C26.3052 3.35334 27.261 3.40823 27.8775 4.01976C27.8799 4.02215 27.8823 4.02454 27.8846 4.02701L29.9285 6.12431C29.9491 6.14555 29.9682 6.16829 29.9856 6.19237C30.5238 6.93986 30.4684 7.88979 29.8509 8.50236L28.4996 9.84283C29.2847 11.1324 29.843 12.4983 30.1346 13.8422H32.0338C32.9739 13.8422 33.712 14.4888 33.8287 15.4148C33.8318 15.4395 33.8333 15.4644 33.8333 15.4892V18.4254C33.8333 19.3037 33.1671 20.0238 32.2491 20.1377C32.2245 20.1407 32.1996 20.1423 32.1747 20.1423H30.2581C29.9115 21.5344 29.3374 22.8788 28.5772 24.079L29.9213 25.4123C29.9448 25.4355 29.9663 25.4607 29.9856 25.4875C30.5238 26.235 30.4684 27.1849 29.8509 27.7976C29.8485 27.8 29.8461 27.8023 29.8436 27.8047L27.7293 29.8321C27.7079 29.8525 27.685 29.8715 27.6608 29.8886C27.3157 30.1328 26.9277 30.2536 26.5494 30.2536Z" fill="white"/>
</svg>
