<svg width="37" height="37" viewBox="0 0 37 37" fill="none" xmlns="http://www.w3.org/2000/svg">
<path d="M25.4686 26.8043H21.8709M25.0885 29.8695H21.8709M25.0885 29.8695C25.9524 29.8694 26.6494 30.5842 26.6204 31.4546C26.5927 32.2871 25.8817 32.9348 25.0487 32.9348H24.7086C25.5724 32.9348 26.2694 33.6494 26.2403 34.5198C26.2126 35.3523 25.5014 36 24.6684 36C24.5893 36 20.8398 36 17.8086 36M25.0885 29.8695L25.4288 29.8694C26.2617 29.8693 26.9726 29.2217 27.0004 28.3894C27.0295 27.519 26.3326 26.8042 25.4686 26.8042C26.3052 26.8042 27.0137 26.1484 27.0352 25.3121C27.0575 24.4471 26.3629 23.739 25.5031 23.739H19.4647C18.7857 23.739 18.2929 23.0928 18.4724 22.438L19.2969 19.431C19.8406 17.7502 19.219 16.7325 18.4828 16.1395C17.8041 15.5928 16.7906 15.8537 16.4642 16.6618L15.4338 19.2129C15.1937 19.8073 14.7569 20.297 14.2044 20.622C12.8507 21.4183 11.7777 22.7176 11.2983 23.3592C11.0812 23.6497 10.7945 23.8821 10.4625 24.0283C9.73312 24.3495 8.94283 24.5168 8.14127 24.5168H7.15823V34.1362H8.70783C9.04952 34.1362 9.37706 34.2636 9.63594 34.4864C10.9127 35.5852 12.3769 36.0002 14.0103 36C14.0815 36 14.5882 36 15.3438 36M24.7085 32.9348H21.8709M21.7195 7.4683L23.9166 9.66541L27.1286 6.45344M15.4881 11.0643L13.7244 12.0825M14.5908 7.71542H12.5543M15.4881 4.36664L13.7244 3.3484M33.0663 11.0643L34.8299 12.0825M33.9636 7.71542H36M33.0663 4.36664L34.8299 3.3484M30.8794 6.48308C30.3006 3.36291 27.565 1 24.2772 1C20.5684 1 17.5618 4.00665 17.5618 7.71549C17.5618 11.4243 20.5684 14.4309 24.2772 14.4309C27.565 14.4309 30.3006 12.068 30.8794 8.9479M7.15823 34.3381V24.3148C7.15823 23.8029 6.74323 23.388 6.23139 23.388H1.92684C1.41493 23.388 1 23.803 1 24.3148V34.3381C1 34.85 1.41493 35.2649 1.92684 35.2649H6.23132C6.74323 35.265 7.15823 34.85 7.15823 34.3381Z" stroke="white" stroke-miterlimit="10" stroke-linecap="round" stroke-linejoin="round"/>
</svg>
