<svg height="512" viewBox="0 0 64 64" width="512" xmlns="http://www.w3.org/2000/svg"><g id="Outline"><g><path d="m56 37.2638v-5.8126c0-8.3501-1.0908-16.6738-3.2422-24.7397-.582-2.1851-2.5693-3.7114-4.8311-3.7114h-4.1572c-1.5049 0-2.7871 1.127-2.9814 2.626l-.5077 4.0608c-1.054-.306-2.1505-.513-3.2804-.6121v-1.0747c0-1.3242-.5176-2.5786-1.4678-3.5425-.9541-.9399-2.209-1.4575-3.5322-1.4575-2.7568 0-5 2.2432-5 5v1.0747c-1.1299.0991-2.2264.306-3.2805.6121l-.5086-4.0657c-.1934-1.4941-1.4756-2.6211-2.9805-2.6211h-4.1572c-2.2617 0-4.249 1.5264-4.8311 3.7114-2.1514 8.0659-3.2422 16.3896-3.2422 24.7397v5.8126c-1.8107 1.2666-3 3.3637-3 5.7362v10c0 1.6543 1.3457 3 3 3h2.6344c-.0007 1.3067.4841 2.5396 1.3988 3.4814.9492.9795 2.2246 1.5186 3.5889 1.5186h32.7559c1.3643 0 2.6396-.5391 3.5889-1.5186.9147-.942 1.3996-2.175 1.3989-3.4814h2.6343c1.6543 0 3-1.3457 3-3v-10c0-2.3726-1.1893-4.4696-3-5.7362zm-5.1738-30.0367c2.1055 7.8975 3.1738 16.0479 3.1738 24.2241v4.8437c-.3928-.1174-.7996-.2015-1.2177-.2483l-.3126-10.5563c-.1032-3.4288-1.1986-6.5792-3.0032-9.1898l1.1957-9.5305c.0658.1462.1216.2984.1639.4571zm-16.8262 20.7729h-4c-1.1025 0-2 .897-2 2v1h-11.54c-.8223 0-1.5889-.3237-2.1592-.9121-.5599-.5773-.855-1.3367-.8384-2.1425l.0679-2.3956c.2441-8.1587 6.834-14.5498 15-14.5498h6.9395c8.166 0 14.7559 6.3911 15 14.5498l.0679 2.3968c.0166.8045-.2784 1.564-.8384 2.1413-.5703.5884-1.3369.9121-2.1592.9121h-11.54v-1c0-1.103-.8975-2-2-2zm0 2v6h-4v-6zm8.7715-24.1211c.0654-.501.4941-.8789.998-.8789h3.9609c.2949 0 .5645.1201.7568.3384.1914.2168.2764.4966.2402.7871l-1.011 8.0579c-1.5535-1.6095-3.4168-2.9117-5.5073-3.8051l.5623-4.4993zm-10.7715-.8789c.7949 0 1.5508.3135 2.1182.8721.5684.5767.8818 1.3325.8818 2.1279v1h-6v-1c0-1.6543 1.3457-3 3-3zm-16.4873.3384c.1924-.2183.4619-.3384.7568-.3384h3.9609c.5039 0 .9326.3779.9971.874l.5632 4.5042c-2.0905.8934-3.9538 2.1956-5.5073 3.8051l-1.011-8.0579c-.0361-.2905.0488-.5703.2402-.7871zm-5.5127 26.1128c0-8.1763 1.0684-16.3267 3.1738-24.2241.0423-.1587.0981-.3109.1639-.4571l1.1957 9.5305c-1.8046 2.6107-2.9 5.761-3.0032 9.1898l-.3126 10.5563c-.4182.0468-.8249.1309-1.2177.2483v-4.8437zm-3 21.5488v-10c0-2.468 1.8019-4.5109 4.1566-4.9147l-.4772 15.9147h-2.6794c-.5518 0-1-.4487-1-1zm9.7539 6 .2598-11.0229c.0127-.5479.4521-.9771 1-.9771h27.9727c.5479 0 .9873.4292 1 .9761l.2607 11.0239zm33.7773-.9111c-.3608.3723-.8051.6246-1.2871.7698l-.2578-10.9304c-.04-1.6421-1.3574-2.9282-3-2.9282h-27.9726c-1.6426 0-2.96 1.2861-3 2.9292l-.257 10.9297c-.4822-.1451-.9269-.3976-1.288-.7701-.5703-.5869-.8701-1.3608-.8447-2.1792l.7202-24.0245c.8829.7101 1.9604 1.1148 3.1157 1.1148h11.54v3c0 1.103.8975 2 2 2h4c1.1025 0 2-.897 2-2v-3h11.54c1.1553 0 2.2328-.4048 3.1157-1.1148l.7202 24.025c.0254.8179-.2744 1.5918-.8447 2.1787zm6.4688-5.0889c0 .5513-.4482 1-1 1h-2.6795l-.4771-15.9147c2.3547.4038 4.1566 2.4467 4.1566 4.9147z"/><path d="m43.0156 17.6382c.293 0 .583-.1279.7803-.3735.3457-.4302.2773-1.0601-.1523-1.4058-2.3271-1.8701-5.1533-2.8589-8.1738-2.8589h-6.9395c-3.0205 0-5.8467.9888-8.1738 2.8589-.4297.3457-.498.9756-.1523 1.4058.3447.4292.9727.498 1.4062.1528 1.9668-1.5815 4.3604-2.4175 6.9199-2.4175h6.9395c2.5596 0 4.9531.8359 6.9199 2.4175.1855.1484.4062.2207.626.2207z"/><path d="m42 49h-20c-.5527 0-1 .4478-1 1s.4473 1 1 1h2v1c0 .5522.4473 1 1 1s1-.4478 1-1v-1h16c.5527 0 1-.4478 1-1s-.4473-1-1-1z"/></g></g></svg>