<svg height="512" viewBox="0 0 32 32" width="512" xmlns="http://www.w3.org/2000/svg"><g id="city_x2C__town_x2C__buildings_x2C__business_offices_x2C__business_center_x2C__metropolis"><g><path d="m28.5 31h-3c-.276 0-.5-.224-.5-.5v-12.511c0-.185.102-.354.264-.441.163-.086.358-.078.514.025l3 2c.138.093.222.249.222.416v10.511c0 .276-.224.5-.5.5zm-2.5-1h2v-9.743l-2-1.333z" fill="rgb(0,0,0)"/></g><g id="XMLID_3799_"><g id="XMLID_4634_"><g id="XMLID_231_"><circle id="XMLID_232_" cx="14.5" cy="28.5" fill="rgb(0,0,0)" r=".5"/></g><g id="XMLID_228_"><circle id="XMLID_229_" cx="12.5" cy="28.5" fill="rgb(0,0,0)" r=".5"/></g><g id="XMLID_226_"><circle id="XMLID_227_" cx="10.5" cy="28.5" fill="rgb(0,0,0)" r=".5"/></g><g id="XMLID_154_"><circle id="XMLID_225_" cx="8.5" cy="28.5" fill="rgb(0,0,0)" r=".5"/></g></g><g id="XMLID_4552_"><g id="XMLID_222_"><circle id="XMLID_223_" cx="14.5" cy="26.5" fill="rgb(0,0,0)" r=".5"/></g><g id="XMLID_219_"><circle id="XMLID_221_" cx="12.5" cy="26.5" fill="rgb(0,0,0)" r=".5"/></g><g id="XMLID_217_"><circle id="XMLID_218_" cx="10.5" cy="26.5" fill="rgb(0,0,0)" r=".5"/></g><g id="XMLID_153_"><circle id="XMLID_216_" cx="8.5" cy="26.5" fill="rgb(0,0,0)" r=".5"/></g></g><g id="XMLID_4354_"><g id="XMLID_214_"><circle id="XMLID_215_" cx="14.5" cy="24.5" fill="rgb(0,0,0)" r=".5"/></g><g id="XMLID_211_"><circle id="XMLID_213_" cx="12.5" cy="24.5" fill="rgb(0,0,0)" r=".5"/></g><g id="XMLID_208_"><circle id="XMLID_209_" cx="10.5" cy="24.5" fill="rgb(0,0,0)" r=".5"/></g><g id="XMLID_152_"><circle id="XMLID_207_" cx="8.5" cy="24.5" fill="rgb(0,0,0)" r=".5"/></g></g><g id="XMLID_4352_"><g id="XMLID_205_"><circle id="XMLID_206_" cx="14.5" cy="22.5" fill="rgb(0,0,0)" r=".5"/></g><g id="XMLID_203_"><circle id="XMLID_204_" cx="12.5" cy="22.5" fill="rgb(0,0,0)" r=".5"/></g><g id="XMLID_194_"><circle id="XMLID_198_" cx="10.5" cy="22.5" fill="rgb(0,0,0)" r=".5"/></g><g id="XMLID_151_"><circle id="XMLID_190_" cx="8.5" cy="22.5" fill="rgb(0,0,0)" r=".5"/></g></g><g id="XMLID_4350_"><g id="XMLID_188_"><circle id="XMLID_192_" cx="14.5" cy="20.5" fill="rgb(0,0,0)" r=".5"/></g><g id="XMLID_186_"><circle id="XMLID_187_" cx="12.5" cy="20.5" fill="rgb(0,0,0)" r=".5"/></g><g id="XMLID_184_"><circle id="XMLID_185_" cx="10.5" cy="20.5" fill="rgb(0,0,0)" r=".5"/></g><g id="XMLID_150_"><circle id="XMLID_180_" cx="8.5" cy="20.5" fill="rgb(0,0,0)" r=".5"/></g></g><g id="XMLID_4348_"><g id="XMLID_181_"><circle id="XMLID_182_" cx="14.5" cy="18.5" fill="rgb(0,0,0)" r=".5"/></g><g id="XMLID_178_"><circle id="XMLID_179_" cx="12.5" cy="18.5" fill="rgb(0,0,0)" r=".5"/></g><g id="XMLID_176_"><circle id="XMLID_177_" cx="10.5" cy="18.5" fill="rgb(0,0,0)" r=".5"/></g><g id="XMLID_149_"><circle id="XMLID_171_" cx="8.5" cy="18.5" fill="rgb(0,0,0)" r=".5"/></g></g><g id="XMLID_4300_"><g id="XMLID_173_"><circle id="XMLID_175_" cx="14.5" cy="16.5" fill="rgb(0,0,0)" r=".5"/></g><g id="XMLID_170_"><circle id="XMLID_172_" cx="12.5" cy="16.5" fill="rgb(0,0,0)" r=".5"/></g><g id="XMLID_168_"><circle id="XMLID_169_" cx="10.5" cy="16.5" fill="rgb(0,0,0)" r=".5"/></g><g id="XMLID_143_"><circle id="XMLID_162_" cx="8.5" cy="16.5" fill="rgb(0,0,0)" r=".5"/></g></g><g id="XMLID_4292_"><g id="XMLID_166_"><circle id="XMLID_167_" cx="14.5" cy="12.5" fill="rgb(0,0,0)" r=".5"/></g><g id="XMLID_163_"><circle id="XMLID_164_" cx="12.5" cy="12.5" fill="rgb(0,0,0)" r=".5"/></g><g id="XMLID_160_"><circle id="XMLID_161_" cx="10.5" cy="12.5" fill="rgb(0,0,0)" r=".5"/></g><g id="XMLID_147_"><circle id="XMLID_158_" cx="8.5" cy="12.5" fill="rgb(0,0,0)" r=".5"/></g></g><g id="XMLID_4298_"><g id="XMLID_684_"><circle id="XMLID_685_" cx="14.5" cy="14.5" fill="rgb(0,0,0)" r=".5"/></g><g id="XMLID_682_"><circle id="XMLID_683_" cx="12.5" cy="14.5" fill="rgb(0,0,0)" r=".5"/></g><g id="XMLID_680_"><circle id="XMLID_681_" cx="10.5" cy="14.5" fill="rgb(0,0,0)" r=".5"/></g><g id="XMLID_678_"><circle id="XMLID_679_" cx="8.5" cy="14.5" fill="rgb(0,0,0)" r=".5"/></g></g></g><path d="m6.5 31h-3c-.276 0-.5-.224-.5-.5v-10c0-.276.224-.5.5-.5s.5.224.5.5v9.5h2v-11h-2.5c-.276 0-.5-.224-.5-.5s.224-.5.5-.5h3c.276 0 .5.224.5.5v12c0 .276-.224.5-.5.5z" fill="rgb(0,0,0)"/><g id="XMLID_4295_"><g id="XMLID_4426_"><g id="XMLID_4547_"><path d="m25.5 29h-5c-.276 0-.5-.224-.5-.5s.224-.5.5-.5h5c.276 0 .5.224.5.5s-.224.5-.5.5z" fill="rgb(0,0,0)"/></g><g id="XMLID_4543_"><path d="m25.5 27h-5c-.276 0-.5-.224-.5-.5s.224-.5.5-.5h5c.276 0 .5.224.5.5s-.224.5-.5.5z" fill="rgb(0,0,0)"/></g><g id="XMLID_4472_"><path d="m25.5 25h-5c-.276 0-.5-.224-.5-.5s.224-.5.5-.5h5c.276 0 .5.224.5.5s-.224.5-.5.5z" fill="rgb(0,0,0)"/></g><g id="XMLID_4470_"><path d="m25.5 23h-5c-.276 0-.5-.224-.5-.5s.224-.5.5-.5h5c.276 0 .5.224.5.5s-.224.5-.5.5z" fill="rgb(0,0,0)"/></g><g id="XMLID_4466_"><path d="m25.5 21h-5c-.276 0-.5-.224-.5-.5s.224-.5.5-.5h5c.276 0 .5.224.5.5s-.224.5-.5.5z" fill="rgb(0,0,0)"/></g><g id="XMLID_4464_"><path d="m25.5 19h-5c-.276 0-.5-.224-.5-.5s.224-.5.5-.5h5c.276 0 .5.224.5.5s-.224.5-.5.5z" fill="rgb(0,0,0)"/></g><g id="XMLID_4462_"><path d="m25.5 17h-5c-.276 0-.5-.224-.5-.5s.224-.5.5-.5h5c.276 0 .5.224.5.5s-.224.5-.5.5z" fill="rgb(0,0,0)"/></g><g id="XMLID_4460_"><path d="m25.5 15h-7c-.276 0-.5-.224-.5-.5s.224-.5.5-.5h7c.276 0 .5.224.5.5s-.224.5-.5.5z" fill="rgb(0,0,0)"/></g><g id="XMLID_4458_"><path d="m25.5 13h-7c-.276 0-.5-.224-.5-.5s.224-.5.5-.5h7c.276 0 .5.224.5.5s-.224.5-.5.5z" fill="rgb(0,0,0)"/></g><g id="XMLID_4455_"><path d="m25.5 11h-7c-.276 0-.5-.224-.5-.5s.224-.5.5-.5h7c.276 0 .5.224.5.5s-.224.5-.5.5z" fill="rgb(0,0,0)"/></g><g id="XMLID_4435_"><path d="m25.5 9h-7c-.276 0-.5-.224-.5-.5s.224-.5.5-.5h7c.276 0 .5.224.5.5s-.224.5-.5.5z" fill="rgb(0,0,0)"/></g></g><g fill="rgb(0,0,0)"><path d="m25.5 19c-.276 0-.5-.224-.5-.5v-11.5h-8c-.276 0-.5-.224-.5-.5s.224-.5.5-.5h8.5c.276 0 .5.224.5.5v12c0 .276-.224.5-.5.5z"/><path d="m25.5 31h-8.5c-.276 0-.5-.224-.5-.5s.224-.5.5-.5h8v-11.5c0-.276.224-.5.5-.5s.5.224.5.5v12c0 .276-.224.5-.5.5z"/></g></g><g fill="rgb(0,0,0)"><path d="m14.5 30h-7.5v-19h9v5.5h1v-6c0-.276-.224-.5-.5-.5h-10c-.276 0-.5.224-.5.5v20c0 .276.224.5.5.5h8z"/><path d="m18.5 31h-4c-.276 0-.5-.224-.5-.5v-14c0-.276.224-.5.5-.5h4c.276 0 .5.224.5.5s-.224.5-.5.5h-3.5v13h3v-11.501c0-.276.224-.5.5-.5s.5.224.5.5v12.001c0 .276-.224.5-.5.5z"/><path d="m20.5 5c-.276 0-.5-.224-.5-.5v-2c0-.276.224-.5.5-.5s.5.224.5.5v2c0 .276-.224.5-.5.5z"/><path d="m22.5 5c-.276 0-.5-.224-.5-.5v-3c0-.276.224-.5.5-.5s.5.224.5.5v3c0 .276-.224.5-.5.5z"/><path d="m24.5 7h-6c-.276 0-.5-.224-.5-.5s.224-.5.5-.5h5.5v-1h-5.5c-.276 0-.5-.224-.5-.5s.224-.5.5-.5h6c.276 0 .5.224.5.5v2c0 .276-.224.5-.5.5z"/><path d="m30.5 31h-29c-.276 0-.5-.224-.5-.5s.224-.5.5-.5h29c.276 0 .5.224.5.5s-.224.5-.5.5z"/></g><g><path d="m15.5 11h-8c-.276 0-.5-.224-.5-.5v-2c0-.252.188-.465.438-.496l8-1c.148-.018.286.026.394.121.106.095.168.231.168.375v3c0 .276-.224.5-.5.5zm-7.5-1h7v-1.934l-7 .875z" fill="rgb(0,0,0)"/></g></g></svg>