<?xml version="1.0" encoding="UTF-8"?>
<svg xmlns="http://www.w3.org/2000/svg" xmlns:xlink="http://www.w3.org/1999/xlink" version="1.1" id="Capa_1" x="0px" y="0px" viewBox="0 0 512.002 512.002" style="enable-background:new 0 0 512.002 512.002;" xml:space="preserve" width="512" height="512">
<g>
	<path style="fill:none;stroke:#000000;stroke-width:15;stroke-linecap:round;stroke-linejoin:round;stroke-miterlimit:10;" d="&#10;&#9;&#9;M390.815,245.436l51.56-51.56H504.5v-62.125H361.688c-6.904,0-12.5,5.596-12.5,12.5v49.625h-49.625c-6.904,0-12.5,5.596-12.5,12.5&#10;&#9;&#9;v49.625h-49.625c-6.904,0-12.5,5.596-12.5,12.5v49.625h-49.625c-6.904,0-12.5,5.596-12.5,12.5v49.625h-49.625&#10;&#9;&#9;c-6.904,0-12.5,5.596-12.5,12.5v49.625H20c-6.904,0-12.5,5.596-12.5,12.5v49.625h124.25l233.387-233.387"/>
	
		<line style="fill:none;stroke:#000000;stroke-width:15;stroke-linecap:round;stroke-linejoin:round;stroke-miterlimit:10;" x1="100.688" y1="442.377" x2="131.75" y2="442.377"/>
	
		<line style="fill:none;stroke:#000000;stroke-width:15;stroke-linecap:round;stroke-linejoin:round;stroke-miterlimit:10;" x1="162.812" y1="380.252" x2="193.875" y2="380.252"/>
	
		<line style="fill:none;stroke:#000000;stroke-width:15;stroke-linecap:round;stroke-linejoin:round;stroke-miterlimit:10;" x1="224.938" y1="318.127" x2="256" y2="318.127"/>
	
		<line style="fill:none;stroke:#000000;stroke-width:15;stroke-linecap:round;stroke-linejoin:round;stroke-miterlimit:10;" x1="287.062" y1="256.002" x2="318.125" y2="256.002"/>
	
		<line style="fill:none;stroke:#000000;stroke-width:15;stroke-linecap:round;stroke-linejoin:round;stroke-miterlimit:10;" x1="349.188" y1="193.877" x2="380.25" y2="193.877"/>
	<path style="fill:none;stroke:#000000;stroke-width:15;stroke-linecap:round;stroke-linejoin:round;stroke-miterlimit:10;" d="&#10;&#9;&#9;M69.625,442.377v-94.812c10.723-2.549,20.63-8.027,28.551-15.947l126.761-126.761v63.646"/>
	<path style="fill:none;stroke:#000000;stroke-width:15;stroke-linecap:round;stroke-linejoin:round;stroke-miterlimit:10;" d="&#10;&#9;&#9;M277.743,108.13L77.994,307.879c-6.449,6.449-15.155,10.121-24.262,10.248H38.562v0.004h-16.06c-8.284,0-15,6.716-15,15v16.06&#10;&#9;&#9;h31.06v93.186"/>
	<path style="fill:none;stroke:#000000;stroke-width:15;stroke-linecap:round;stroke-linejoin:round;stroke-miterlimit:10;" d="&#10;&#9;&#9;M411.312,131.752V38.561h93.19v-16.06c0-8.284-6.716-15-15-15h-86.277c-15.913,0-31.174,6.321-42.426,17.574l-57.813,57.813"/>
	
		<polyline style="fill:none;stroke:#000000;stroke-width:15;stroke-linecap:round;stroke-linejoin:round;stroke-miterlimit:10;" points="&#10;&#9;&#9;256,256.002 256,173.793 380.25,49.543 380.25,131.752 &#9;"/>
</g>















</svg>
