<svg width="47" height="39" viewBox="0 0 47 39" fill="none" xmlns="http://www.w3.org/2000/svg">
<path d="M39.2862 3.75429H36.9922C36.6497 3.75429 36.4328 3.96759 36.4328 4.20327H36.4328V11.4984C36.4328 11.8014 36.798 11.9586 37.1747 11.9586C37.5399 11.9586 37.9165 11.8015 37.9165 11.4984V8.89461H39.195C40.7016 8.89461 41.8772 8.18747 41.8772 6.34688V6.27963C41.8772 4.43895 40.7358 3.75429 39.2862 3.75429ZM40.3933 6.45917C40.3933 7.33456 39.9368 7.74987 39.1949 7.74987H37.9165V5.0338H39.1949C39.9368 5.0338 40.3933 5.44911 40.3933 6.32449V6.45917Z" fill="black"/>
<path d="M26.9027 6.60621C24.7359 4.4756 21.8552 3.30225 18.7909 3.30225C15.7267 3.30225 12.8459 4.4756 10.6791 6.60621C10.4176 6.86329 10.4176 7.28013 10.6791 7.53729C10.9406 7.79437 11.3645 7.79437 11.6259 7.53729C13.5398 5.65545 16.0843 4.61903 18.7908 4.61903C21.4974 4.61903 24.042 5.65545 25.9557 7.53729C26.0865 7.66583 26.2579 7.7301 26.4292 7.7301C26.6005 7.7301 26.7719 7.66583 26.9027 7.53729C27.1642 7.28022 27.1642 6.86329 26.9027 6.60621Z" fill="black"/>
<path d="M24.1405 9.32237C21.1907 6.4218 16.3911 6.4218 13.4414 9.32237C13.1799 9.57944 13.1799 9.99638 13.4414 10.2535C13.7028 10.5105 14.1268 10.5105 14.3883 10.2535C16.8159 7.8664 20.7659 7.8664 23.1936 10.2535C23.3243 10.382 23.4956 10.4463 23.667 10.4463C23.8383 10.4463 24.0097 10.382 24.1405 10.2535C24.4019 9.99638 24.4019 9.57944 24.1405 9.32237Z" fill="black"/>
<path d="M21.4219 11.9955C19.9712 10.5689 17.6106 10.5689 16.1599 11.9955C15.8983 12.2525 15.8983 12.6694 16.1599 12.9266C16.4213 13.1837 16.8453 13.1836 17.1067 12.9266C18.0354 12.0134 19.5464 12.0134 20.4751 12.9266C20.6058 13.0552 20.7772 13.1194 20.9485 13.1194C21.1198 13.1194 21.2912 13.0551 21.4219 12.9266C21.6834 12.6694 21.6834 12.2526 21.4219 11.9955Z" fill="black"/>
<path d="M32.9478 24.8182C32.6581 24.6614 32.3722 24.4897 32.0983 24.3078L27.6696 21.3659C26.3255 20.473 24.7576 20.0011 23.1356 20.0011H15.0069C12.8492 20.0011 10.819 20.8258 9.29027 22.3233C8.50449 23.0932 7.60929 23.7371 6.62954 24.2374C6.05013 24.5333 5.69019 25.1156 5.69019 25.7571C5.69019 26.7018 6.47175 27.4703 7.43249 27.4703H10.2038C10.5736 27.4703 10.8734 27.1755 10.8734 26.8119C10.8734 26.4483 10.5736 26.1535 10.2038 26.1535H7.43249C7.21016 26.1535 7.02923 25.9756 7.02923 25.757C7.02923 25.6089 7.11249 25.4744 7.2466 25.4059C8.34733 24.8439 9.35296 24.1206 10.2353 23.2561C11.5113 22.0061 13.2058 21.3178 15.0068 21.3178H16.8267V26.1535H14.6023C14.2325 26.1535 13.9327 26.4483 13.9327 26.8119C13.9327 27.1755 14.2325 27.4703 14.6023 27.4703H32.9614C33.5118 27.4703 33.9596 27.03 33.9596 26.4888C33.9596 25.7957 33.5718 25.1555 32.9478 24.8182ZM18.166 26.1536V21.3178H23.1357C24.4896 21.3178 25.7982 21.7118 26.9201 22.457L31.3488 25.3989C31.6563 25.6032 31.9771 25.796 32.3026 25.972C32.3869 26.0176 32.4575 26.0802 32.5106 26.1536H18.166Z" fill="black"/>
<path d="M19.8249 28.4711H17.7568C17.387 28.4711 17.0872 28.766 17.0872 29.1295C17.0872 29.4931 17.387 29.7879 17.7568 29.7879H19.8249C20.1947 29.7879 20.4945 29.4931 20.4945 29.1295C20.4945 28.766 20.1947 28.4711 19.8249 28.4711Z" fill="black"/>
<path d="M46.4223 27.9185L46.2108 27.5734C45.4138 26.2727 44.0879 25.3569 42.5734 25.0607L40.8448 24.7226V16.1071H45.3182C46.2393 16.1071 46.9885 15.3703 46.9885 14.4647V1.64246C46.9885 0.736741 46.2392 0 45.3182 0H32.2784C31.3573 0 30.6081 0.736832 30.6081 1.64246V6.50638C30.6081 6.86997 30.9078 7.16477 31.2776 7.16477C31.6475 7.16477 31.9472 6.86997 31.9472 6.50638V1.64246C31.9472 1.46283 32.0958 1.31669 32.2785 1.31669H45.3184C45.5011 1.31669 45.6497 1.46283 45.6497 1.64246V14.4648C45.6497 14.6444 45.5011 14.7905 45.3184 14.7905H32.2784C32.0957 14.7905 31.9471 14.6444 31.9471 14.4648V10.7866C31.9471 10.423 31.6474 10.1282 31.2776 10.1282C30.9077 10.1282 30.608 10.423 30.608 10.7866V14.4648C30.608 15.3705 31.3573 16.1072 32.2783 16.1072H37.3511V24.0396L36.4625 23.8658C35.2361 23.626 34.0404 22.8982 33.2477 22.3715L28.8191 19.4297C27.1341 18.3105 25.1689 17.7189 23.1356 17.7189H15.007C12.3022 17.7189 9.75733 18.7527 7.84126 20.6298C6.62881 21.8175 5.1026 22.6277 3.42759 22.9727L2.4663 23.1706C1.03721 23.4649 0 24.7206 0 26.1564V32.5327C0 33.2933 0.456688 33.9844 1.16361 34.2933L3.83049 35.4588C3.99177 36.2881 4.39806 37.08 5.04963 37.7207C5.91555 38.5721 7.053 38.9979 8.19054 38.9979C9.32809 38.9979 10.4654 38.5721 11.3315 37.7207C11.8884 37.173 12.2651 36.5147 12.4639 35.8173H34.7003C34.899 36.5147 35.2758 37.173 35.8328 37.7207C36.6718 38.5456 37.7871 39 38.9737 39C40.1602 39 41.2757 38.5457 42.1147 37.7207C42.6716 37.173 43.0483 36.5147 43.2471 35.8173H44.5173C45.8862 35.8173 47 34.7221 47 33.376V29.9611C46.9998 29.2413 46.8001 28.5351 46.4223 27.9185ZM38.6902 16.1071H39.5057V24.4608L38.6902 24.3013V16.1071ZM10.3845 36.7897C9.79845 37.3659 9.01928 37.6833 8.19045 37.6833C7.36162 37.6833 6.58245 37.3659 5.99642 36.7897C5.05634 35.8653 4.84722 34.4906 5.36808 33.3654C5.3723 33.3564 5.37634 33.3473 5.38056 33.3382C5.39644 33.3048 5.41324 33.2718 5.43041 33.2389C5.43848 33.2234 5.44656 33.208 5.45501 33.1926C5.47052 33.1641 5.48668 33.1358 5.5032 33.1076C5.51458 33.0882 5.52624 33.069 5.53808 33.0498C5.55341 33.025 5.56893 33.0003 5.58508 32.9758C5.59968 32.9537 5.61473 32.9319 5.62997 32.9101C5.64503 32.8885 5.65999 32.8669 5.67559 32.8457C5.6935 32.8214 5.71213 32.7975 5.73086 32.7737C5.74545 32.7551 5.75968 32.7363 5.77474 32.718C5.79677 32.6912 5.81981 32.665 5.84276 32.6389C5.85588 32.624 5.86846 32.6087 5.88186 32.594C5.91601 32.5567 5.95117 32.5202 5.98734 32.4843C5.99046 32.4813 5.9933 32.478 5.99642 32.4749C6.00331 32.4682 6.01056 32.4618 6.01754 32.4552C6.0482 32.4256 6.07904 32.3963 6.11053 32.3682C6.1187 32.3609 6.12733 32.3542 6.13559 32.3469C6.16698 32.3196 6.19856 32.2924 6.23087 32.2665C6.2339 32.2641 6.23711 32.2618 6.24014 32.2594C7.37502 31.3563 9.01185 31.3574 10.1454 32.263C10.1466 32.2641 10.148 32.265 10.1494 32.2661C10.184 32.2938 10.2179 32.3228 10.2516 32.3523C10.2576 32.3575 10.2639 32.3625 10.2698 32.3678C10.3087 32.4024 10.3469 32.438 10.3844 32.4748C10.4248 32.5146 10.4637 32.5555 10.5015 32.5969C10.5181 32.6151 10.5338 32.6338 10.5499 32.6523C10.5695 32.6749 10.5893 32.6975 10.6082 32.7205C10.6294 32.7465 10.6499 32.7728 10.6701 32.7992C10.6814 32.8139 10.6927 32.8287 10.7037 32.8436C10.7283 32.8768 10.7521 32.9104 10.7752 32.9444C10.7791 32.9502 10.783 32.956 10.7868 32.9618C11.5744 34.1447 11.4404 35.7513 10.3845 36.7897ZM41.1676 36.7897C40.5815 37.3659 39.8023 37.6833 38.9735 37.6833C38.1447 37.6833 37.3656 37.3659 36.7796 36.7897C35.7234 35.7513 35.5894 34.1445 36.3771 32.9616C36.3809 32.956 36.3847 32.9503 36.3885 32.9447C36.4115 32.9106 36.4355 32.8769 36.4601 32.8435C36.471 32.8287 36.4822 32.8141 36.4935 32.7995C36.5138 32.773 36.5344 32.7465 36.5558 32.7205C36.5746 32.6976 36.594 32.6752 36.6136 32.6528C36.6298 32.6342 36.6457 32.6152 36.6625 32.5969C36.7003 32.5555 36.7393 32.5147 36.7797 32.4749C37.3657 31.8987 38.1448 31.5813 38.9736 31.5813C39.8024 31.5813 40.5816 31.8987 41.1676 32.4749C41.208 32.5147 41.2469 32.5555 41.2847 32.597C41.3015 32.6152 41.3172 32.634 41.3333 32.6526C41.353 32.6751 41.3726 32.6976 41.3914 32.7205C41.4127 32.7465 41.4332 32.7729 41.4535 32.7993C41.4648 32.8141 41.4761 32.8288 41.4871 32.8437C41.5116 32.877 41.5355 32.9105 41.5585 32.9445C41.5624 32.9503 41.5663 32.956 41.5701 32.9618C42.3576 34.1447 42.2236 35.7514 41.1676 36.7897ZM45.661 33.376H45.6608C45.6608 33.9961 45.1477 34.5006 44.5171 34.5006H43.4148C43.3885 33.5457 43.0458 32.6346 42.4289 31.8877C42.4248 31.8826 42.4208 31.8774 42.4166 31.8723C42.3784 31.8266 42.3388 31.7817 42.2986 31.7371C42.2884 31.7257 42.2786 31.714 42.2683 31.7026C42.2257 31.6565 42.1816 31.6113 42.1368 31.5667C42.1292 31.5591 42.1222 31.5512 42.1145 31.5437C41.5377 30.9765 40.8302 30.5845 40.0588 30.395C39.7081 30.3088 39.3444 30.2644 38.9735 30.2644C38.6769 30.2644 38.3847 30.2929 38.1001 30.3483C37.2465 30.5147 36.4619 30.925 35.8326 31.5437C35.8251 31.5511 35.8182 31.5588 35.8107 31.5663C35.7658 31.6112 35.7215 31.6565 35.6788 31.7028C35.6687 31.7137 35.6594 31.7251 35.6495 31.7361C35.6089 31.7811 35.5689 31.8264 35.5304 31.8726C35.5265 31.8772 35.523 31.882 35.5191 31.8867C34.9018 32.6337 34.5586 33.5453 34.5323 34.5007H12.6317C12.6053 33.5441 12.2614 32.6315 11.6426 31.8838C11.6397 31.8803 11.637 31.8768 11.6341 31.8732C11.5937 31.8247 11.5518 31.7771 11.5091 31.73C11.5012 31.7213 11.4938 31.7124 11.4859 31.7037C11.4358 31.6495 11.3844 31.596 11.3313 31.5438C11.1148 31.3309 10.8813 31.1446 10.6352 30.9849C9.89658 30.506 9.04352 30.2665 8.19045 30.2665C7.053 30.2665 5.91546 30.6923 5.04954 31.5438C5.00006 31.5924 4.95224 31.6423 4.90542 31.6929C4.89156 31.7079 4.87825 31.7231 4.86457 31.7382C4.83153 31.7749 4.79903 31.812 4.76736 31.8496C4.75332 31.8663 4.73927 31.8831 4.7255 31.9C4.69273 31.9402 4.66078 31.9808 4.62957 32.0219C4.61984 32.0347 4.60984 32.0473 4.60038 32.0602C4.51648 32.1731 4.43864 32.2895 4.36667 32.409C4.36465 32.4123 4.36272 32.4157 4.3607 32.4191C4.32554 32.4778 4.29185 32.5374 4.25963 32.5976C4.25872 32.5993 4.2578 32.6011 4.25679 32.6028C4.02335 33.0396 3.86638 33.5121 3.79441 34.0021L1.7076 33.0901C1.4838 32.9922 1.33922 32.7734 1.33922 32.5327V26.1564C1.33922 25.3403 1.92883 24.6266 2.74114 24.4592L3.70243 24.2613C5.63199 23.8639 7.39008 22.9306 8.78667 21.5625C10.45 19.9329 12.6592 19.0355 15.0073 19.0355H23.1358C24.901 19.0355 26.607 19.5491 28.0697 20.5206L32.4984 23.4624C33.387 24.0529 34.7378 24.8708 36.2015 25.1572L42.3124 26.3521C43.4582 26.5762 44.4611 27.269 45.0641 28.2529L45.2756 28.5981C45.5278 29.0094 45.661 29.4808 45.661 29.9611V33.376Z" fill="black"/>
<path d="M9.62789 33.2189C9.24382 32.8413 8.73343 32.6334 8.19045 32.6334C7.64748 32.6334 7.137 32.8414 6.7531 33.2189C6.36921 33.5964 6.15771 34.0984 6.15771 34.6323C6.15771 35.1662 6.36921 35.6681 6.7531 36.0456C7.137 36.4231 7.64748 36.6311 8.19054 36.6311C8.73352 36.6311 9.244 36.4232 9.62789 36.0456C10.4205 35.2663 10.4205 33.9982 9.62789 33.2189ZM8.68092 35.1145C8.54993 35.2434 8.3757 35.3143 8.19045 35.3143C8.00512 35.3143 7.83098 35.2434 7.69998 35.1145C7.56899 34.9856 7.49675 34.8144 7.49675 34.6322C7.49675 34.4499 7.5689 34.2787 7.69998 34.1499C7.83098 34.0211 8.00512 33.95 8.19045 33.95C8.3757 33.95 8.54993 34.021 8.68092 34.1499C8.95135 34.4159 8.95135 34.8486 8.68092 35.1145Z" fill="black"/>
<path d="M40.4109 33.219C40.027 32.8414 39.5166 32.6334 38.9735 32.6334C38.4305 32.6334 37.9201 32.8413 37.5361 33.2189C36.7436 33.9982 36.7436 35.2663 37.5361 36.0456C37.92 36.4232 38.4305 36.6311 38.9735 36.6311C39.5166 36.6311 40.027 36.4232 40.4108 36.0457C40.7948 35.6682 41.0062 35.1663 41.0062 34.6324C41.0062 34.0984 40.7948 33.5965 40.4109 33.219ZM39.464 35.1146C39.333 35.2434 39.1588 35.3144 38.9735 35.3144C38.7882 35.3144 38.614 35.2434 38.483 35.1146C38.2126 34.8487 38.2126 34.416 38.483 34.1501C38.614 34.0213 38.7882 33.9502 38.9735 33.9502C39.1588 33.9502 39.333 34.0212 39.4641 34.1501C39.5951 34.2789 39.6672 34.4501 39.6672 34.6324C39.6672 34.8144 39.5951 34.9857 39.464 35.1146Z" fill="black"/>
</svg>
