<svg id="Layer_1" enable-background="new 0 0 1550 1550" height="512" viewBox="0 0 1550 1550" width="512" xmlns="http://www.w3.org/2000/svg"><g><g><g><path d="m313 1353.3h-282c-11.6 0-21-9.4-21-21v-1019.3c0-11.6 9.4-21 21-21h282c11.6 0 21 9.4 21 21v1019.3c0 11.6-9.4 21-21 21zm-261-42h240v-977.3h-240z"/></g><g><g><path d="m313 527.5h-282c-11.6 0-21-9.4-21-21s9.4-21 21-21h282c11.6 0 21 9.4 21 21s-9.4 21-21 21z"/></g><g><path d="m313 656.9h-282c-11.6 0-21-9.4-21-21s9.4-21 21-21h282c11.6 0 21 9.4 21 21s-9.4 21-21 21z"/></g></g><g><path d="m226.1 1064.1h-108.2c-11.6 0-21-9.4-21-21s9.4-21 21-21h108.2c11.6 0 21 9.4 21 21s-9.4 21-21 21z"/></g></g><g><g><path d="m1257.4 1353.3c-8.3 0-16.2-5-19.5-13.2l-380.4-945.7c-4.3-10.8.9-23 11.6-27.3l261.6-105.2c5.2-2.1 10.9-2 16.1.2 5.1 2.2 9.2 6.3 11.2 11.5l380.4 945.7c2.1 5.2 2 10.9-.2 16.1-2.2 5.1-6.3 9.2-11.5 11.2l-261.6 105.2c-2.4 1-5.1 1.5-7.7 1.5zm-353.1-955 364.7 906.7 222.6-89.6-364.7-906.7z"/></g><g><g><path d="m949.2 587.1c-8.3 0-16.2-5-19.5-13.2-4.3-10.8.9-23 11.6-27.3l261.7-105.2c10.8-4.3 23 .9 27.3 11.6 4.3 10.8-.9 23-11.6 27.3l-261.7 105.3c-2.6 1-5.2 1.5-7.8 1.5z"/></g><g><path d="m997.5 707.2c-8.3 0-16.2-5-19.5-13.2-4.3-10.8.9-23 11.6-27.3l261.6-105.2c10.8-4.3 23 .9 27.3 11.6 4.3 10.8-.9 23-11.6 27.3l-261.6 105.2c-2.6 1.1-5.2 1.6-7.8 1.6z"/></g></g><g><path d="m1242.3 1047.6c-8.3 0-16.2-5-19.5-13.2-4.3-10.8.9-23 11.6-27.3l75.8-30.5c10.8-4.3 23 .9 27.3 11.6 4.3 10.8-.9 23-11.6 27.3l-75.8 30.5c-2.5 1.1-5.2 1.6-7.8 1.6z"/></g></g><g><path d="m595 460h-282c-11.6 0-21-9.4-21-21s9.4-21 21-21h282c11.6 0 21 9.4 21 21s-9.4 21-21 21z"/></g><g><g><path d="m508.1 1054.5h-108.2c-11.6 0-21-9.4-21-21s9.4-21 21-21h108.2c11.6 0 21 9.4 21 21s-9.4 21-21 21z"/></g><g><g><path d="m508.1 1177.9h-108.2c-11.6 0-21-9.4-21-21s9.4-21 21-21h108.2c11.6 0 21 9.4 21 21s-9.4 21-21 21z"/></g></g></g><g><g><g><path d="m508.1 879h-108.2c-11.6 0-21-9.4-21-21v-286.9c0-11.6 9.4-21 21-21h108.2c11.6 0 21 9.4 21 21v286.9c0 11.6-9.4 21-21 21zm-87.2-42h66.2v-244.9h-66.2z"/></g></g></g><g><path d="m877 1353.3h-282c-11.6 0-21-9.4-21-21v-1114.6c0-11.6 9.4-21 21-21h282c11.6 0 21 9.4 21 21v1114.7c0 11.5-9.4 20.9-21 20.9zm-261-42h240v-1072.6h-240z"/></g><g><g><path d="m877 425.9h-282c-11.6 0-21-9.4-21-21s9.4-21 21-21h282c11.6 0 21 9.4 21 21s-9.4 21-21 21z"/></g><g><path d="m877 555.3h-282c-11.6 0-21-9.4-21-21s9.4-21 21-21h282c11.6 0 21 9.4 21 21s-9.4 21-21 21z"/></g></g><g><path d="m595 1353.3h-282c-11.6 0-21-9.4-21-21s9.4-21 21-21h282c11.6 0 21 9.4 21 21s-9.4 21-21 21z"/></g><g><g><g><path d="m790.1 1034.3h-108.2c-11.6 0-21-9.4-21-21s9.4-21 21-21h108.2c11.6 0 21 9.4 21 21s-9.4 21-21 21z"/></g><g><path d="m790.1 1157.7h-108.2c-11.6 0-21-9.4-21-21s9.4-21 21-21h108.2c11.6 0 21 9.4 21 21s-9.4 21-21 21z"/></g></g><g><path d="m736 862c-42.2 0-76.5-34.3-76.5-76.5s34.3-76.5 76.5-76.5 76.5 34.3 76.5 76.5-34.3 76.5-76.5 76.5zm0-111c-19 0-34.5 15.5-34.5 34.5s15.5 34.5 34.5 34.5 34.5-15.5 34.5-34.5-15.5-34.5-34.5-34.5z"/></g></g></g></svg>