<svg id="Layer_1" height="512" viewBox="0 0 90 90" width="512" xmlns="http://www.w3.org/2000/svg"><path d="m29.611 24.862c-.881.22-1.162 1.33-.49 1.939 1.318 1.224 3.15 1.76 4.975 1.5 1.822-.256 3.453-1.276 4.422-2.803.342-.527.188-1.229-.344-1.568-.533-.338-1.234-.181-1.574.35-.594.932-1.639 1.609-2.822 1.776-1.182.167-2.334-.188-3.109-.912-.283-.266-.683-.375-1.058-.282z"/><path d="m23.22 26.571c.875-.261 1.682.567 1.4 1.433-.525 1.713-1.854 3.093-3.563 3.781-1.707.683-3.619.614-5.223-.224-.568-.287-.793-.975-.5-1.536.291-.558.979-.776 1.541-.48.98.516 2.229.578 3.334.135 1.109-.442 1.932-1.327 2.244-2.344.111-.369.398-.656.767-.765z"/><path d="m44.917 32.436c.322-.025.672.005 2.979 1.109 2.309 1.109 6.891 3.708 14.396 5.699 7.5 2.02 12.775 2.051 17.516 2.338 1.453.395 2.188 1.593 1.922 2.588-3.031 11.276-7.225 20.235-12.225 25.823-5 5.589-10.615 7.844-17.129 6.104-6.512-1.738-10.241-6.484-11.766-13.812-1.527-7.328-.65-17.182 2.379-28.458.2-.745.95-1.313 1.928-1.391zm-6.15-22.52c-.281.02-.559.071-.834.145-.074.021-.146.047-.213.078-3.803 1.887-7.588 4.048-13.947 5.745-6.355 1.699-10.719 1.719-14.953 1.979-.078 0-.152.011-.225.027-2.209.593-3.738 2.708-3.166 4.855 2.682 9.973 6.369 18.02 11.057 23.26s10.566 7.64 16.975 5.927c1.592-.307.953-2.713-.584-2.187-5.594 1.494-10.391-.428-14.697-5.246-4.309-4.817-7.938-12.574-10.563-22.338-.209-.776.369-1.744 1.557-2.068 4.1-.244 8.678-.276 15.182-2.031 6.516-1.724 10.496-3.979 14.168-5.808 1.197-.317 2.186.234 2.391 1.011 1.701 6.333 2.613 12.141 2.682 17.167-1.334.438-2.422 1.412-2.797 2.819-3.094 11.483-4.043 21.609-2.402 29.495 1.641 7.885 6.074 13.588 13.403 15.546 7.326 1.959 14.02-.771 19.395-6.781 5.381-6.01 9.635-15.26 12.729-26.746.637-2.369-1.066-4.724-3.535-5.385-.074-.02-.146-.031-.225-.037-4.875-.303-9.938-.317-17.281-2.297-7.348-1.942-11.744-4.449-16.119-6.621-.281-.14-.625-.202-.901-.202-.094-5.235-1.043-11.14-2.762-17.542-.507-1.88-2.394-2.929-4.335-2.765z"/><path d="m28.699 35.134c-3.4.911-5.691 4.145-5.623 7.795-.018.642.508 1.167 1.148 1.156.641-.009 1.146-.552 1.115-1.192-.047-2.699 1.588-4.948 3.943-5.574 2.35-.629 4.9.506 6.213 2.866.281.588 1.006.817 1.574.5.57-.319.76-1.052.404-1.601-1.774-3.195-5.374-4.856-8.774-3.95z"/><path d="m62.141 54.05c-.813-.287-1.02-1.338-.379-1.912 1.479-1.369 3.541-1.968 5.598-1.676 2.053.291 3.887 1.443 4.975 3.156.354.525.203 1.244-.338 1.583-.537.345-1.25.178-1.578-.369-.715-1.125-1.969-1.927-3.381-2.125-1.412-.197-2.797.224-3.734 1.095-.308.295-.757.39-1.163.248z"/><path d="m54.996 52.144c.85.158 1.557-.65 1.291-1.468-.594-1.922-2.082-3.469-4.004-4.24-1.928-.771-4.09-.687-5.896.256-.569.28-.797.974-.5 1.541.292.563.995.771 1.553.463 1.182-.613 2.672-.687 3.994-.156 1.322.532 2.307 1.589 2.682 2.814.12.404.464.712.88.79z"/><path d="m48.99 58.091c.766.423 1.355.912 2.277 1.287 1.75.718 3.619 1.328 4.979 1.688 1.365.364 3.291.771 5.166 1.021.979.131 1.734.005 2.609.021-.791 1.588-1.775 3.379-3.5 4.822-2.219 1.85-4.76 2.885-6.504 2.423-1.746-.469-3.422-2.631-4.412-5.339-.775-2.109-.724-4.152-.615-5.923zm-1.285-3.098c-.506.005-.949.344-1.084.833-.678 2.51-.271 5.891.854 8.969 1.131 3.083 3.027 5.958 5.959 6.739 2.938.787 6.02-.76 8.541-2.864s4.557-4.828 5.234-7.333c.229-.85-.541-1.625-1.391-1.396-.6.162-2.338.142-4.104-.099-1.762-.234-3.631-.636-4.875-.964-1.25-.333-3.072-.922-4.719-1.599-1.646-.672-3.166-1.517-3.604-1.953-.213-.218-.504-.333-.811-.333z"/><path d="m65.887 15.525c1.359 2.973 3.625 5.238 6.598 6.598-2.979 1.354-5.238 3.625-6.598 6.604-1.355-2.979-3.621-5.25-6.6-6.604 2.979-1.36 5.244-3.625 6.6-6.598zm.009-3.324c-.516-.005-.969.344-1.104.838-1.043 3.902-4.094 6.943-7.99 7.99-1.125.297-1.125 1.896 0 2.193 3.896 1.047 6.947 4.083 7.99 7.983.313 1.109 1.879 1.109 2.188 0 1.047-3.901 4.094-6.937 7.994-7.983 1.125-.298 1.125-1.896 0-2.193-3.9-1.047-6.947-4.088-7.994-7.99-.13-.489-.574-.833-1.084-.838z"/><path d="m22.966 61.108c1.27 2.734 3.357 4.817 6.092 6.093-2.734 1.276-4.822 3.36-6.092 6.101-1.281-2.735-3.361-4.824-6.096-6.101 2.735-1.276 4.815-3.359 6.096-6.093zm.008-3.323c-.514-.005-.973.339-1.104.839-.979 3.656-3.832 6.511-7.484 7.489-1.109.307-1.109 1.875 0 2.183 3.652.979 6.506 3.833 7.484 7.484.297 1.125 1.896 1.125 2.193 0 .979-3.651 3.828-6.505 7.484-7.484 1.104-.308 1.104-1.876 0-2.183-3.656-.979-6.506-3.833-7.484-7.489-.134-.49-.577-.834-1.089-.839z"/></svg>