<svg width="43" height="43" viewBox="0 0 43 43" fill="none" xmlns="http://www.w3.org/2000/svg">
<path d="M13.4822 42H5.92753C3.21039 42 0.999939 39.7827 0.999939 37.0572C0.999939 34.3316 3.21039 32.1142 5.92753 32.1142H37.0724C39.7895 32.1142 41.9999 34.3316 41.9999 37.0572C41.9999 39.7827 39.7895 42 37.0724 42H16.3695M27.8141 8.02725L24.8328 6.41193M24.1992 8.91848L29.874 11.9927V16.1932L26.9694 17.8176M30.355 9.40425L31.7179 10.1424C32.122 10.3609 32.3736 10.7846 32.3736 11.2455V16.9297C32.3736 17.384 32.1286 17.8027 31.7326 18.0245L27.0675 20.6345M15.9324 20.6345L11.2673 18.0245C10.8713 17.8027 10.6264 17.384 10.6264 16.9297V11.2455C10.6264 10.7845 10.8779 10.3609 11.2821 10.1424L18.1672 6.41194M16.0306 17.8176L13.1259 16.1932V11.9927L18.8008 8.91849M23.4345 13.7843C22.0255 14.3967 21.4967 15.9839 21.4603 17.4014M35.148 22.2755C34.0071 22.7711 33.5797 24.0555 33.55 25.2032M32.9697 32.1142C30.7339 32.1142 28.9285 28.8617 28.9285 26.6258C28.9285 25.3767 29.727 24.3642 30.9723 24.3642C31.7799 24.3642 32.4689 24.6374 33.0386 25.0337C33.3647 25.2606 33.7995 25.2606 34.1255 25.0337C34.6953 24.6374 35.3843 24.3642 36.1919 24.3642C37.437 24.3642 38.2357 25.3767 38.2357 26.6258C38.2357 28.8617 36.4302 32.1142 34.1945 32.1142M10.9835 22.2755C9.84265 22.7711 9.41524 24.0555 9.38563 25.2032M8.8055 32.1142C6.56972 32.1142 4.76424 28.8617 4.76424 26.6258C4.76424 25.3767 5.56287 24.3642 6.80805 24.3642C7.61567 24.3642 8.30467 24.6374 8.87446 25.0337C9.20048 25.2606 9.63532 25.2606 9.96134 25.0337C10.5311 24.6374 11.2201 24.3642 12.0277 24.3642C13.2728 24.3642 14.0715 25.3767 14.0715 26.6258C14.0715 28.8617 12.266 32.1142 10.0303 32.1142M21.5 4.43834V1M37.0724 34.6218H5.92753C4.58666 34.6218 3.4997 35.7121 3.4997 37.0571C3.4997 38.4021 4.58666 39.4925 5.92753 39.4925H37.0724C38.4133 39.4925 39.5003 38.4021 39.5003 37.0571C39.5003 35.7121 38.4133 34.6218 37.0724 34.6218ZM18.2758 16.3649C19.2735 16.3649 20.1246 16.7025 20.8286 17.1922C21.2315 17.4723 21.7685 17.4723 22.1713 17.1922C22.8753 16.7025 23.7264 16.3649 24.7241 16.3649C26.2624 16.3649 27.2491 17.6159 27.2491 19.1589C27.2491 21.9213 25.0186 25.9395 22.2565 25.9395H20.7434C17.9813 25.9395 15.7508 21.9213 15.7508 19.1589C15.7508 17.6159 16.7375 16.3649 18.2758 16.3649ZM21.5 10.2994C19.6593 10.2994 18.167 8.80255 18.167 6.95611V5.13731C18.167 4.75111 18.4791 4.43797 18.8641 4.43797H24.1359C24.5209 4.43797 24.8329 4.75111 24.8329 5.13731V6.95611C24.8329 8.80255 23.3407 10.2994 21.5 10.2994ZM9.86351 34.6218C8.52272 34.6218 7.43577 35.7121 7.43577 37.0571C7.43577 38.4021 8.52272 39.4925 9.86351 39.4925C11.2044 39.4925 12.2913 38.4021 12.2913 37.0571C12.2913 35.7121 11.2044 34.6218 9.86351 34.6218ZM21.5 34.6218C20.1592 34.6218 19.0721 35.7121 19.0721 37.0571C19.0721 38.4021 20.1592 39.4925 21.5 39.4925C22.8408 39.4925 23.9278 38.4021 23.9278 37.0571C23.9278 35.7121 22.8408 34.6218 21.5 34.6218ZM33.1364 34.6218C31.7956 34.6218 30.7086 35.7121 30.7086 37.0571C30.7086 38.4021 31.7956 39.4925 33.1364 39.4925C34.4772 39.4925 35.5642 38.4021 35.5642 37.0571C35.5642 35.7121 34.4772 34.6218 33.1364 34.6218Z" stroke="black" stroke-miterlimit="10" stroke-linecap="round" stroke-linejoin="round"/>
</svg>
