<svg id="uuid-bd596144-e5b2-43c5-aec4-fec684057231" height="512" viewBox="0 0 64 64" width="512" xmlns="http://www.w3.org/2000/svg"><path d="m63 34.25h-7.565c.194-.377.315-.798.315-1.25v-.25h.25c1.517 0 2.75-1.233 2.75-2.75 0-.965-.785-1.75-1.75-1.75h-8c-.414 0-.75.336-.75.75v4c0 .452.12.873.315 1.25h-13.129c.194-.377.315-.798.315-1.25v-.25h.25c1.517 0 2.75-1.233 2.75-2.75 0-.965-.785-1.75-1.75-1.75h-8c-.414 0-.75.336-.75.75v4c0 .452.12.873.315 1.25h-12.129c.194-.377.315-.798.315-1.25v-.25h.25c1.517 0 2.75-1.233 2.75-2.75 0-.965-.785-1.75-1.75-1.75h-8.002c-.414 0-.75.336-.75.75v4c0 .452.12.873.315 1.25h-8.565c-.414 0-.75.336-.75.75v3c0 .414.336.75.75.75h1.25v24.25c0 .414.336.75.75.75h58c.414 0 .75-.336.75-.75v-24.25h1.25c.414 0 .75-.336.75-.75v-3c0-.414-.336-.75-.75-.75zm-7.25-4.5h1.25c.138 0 .25.112.25.25 0 .689-.561 1.25-1.25 1.25h-.25zm-20 0h1.25c.138 0 .25.112.25.25 0 .689-.561 1.25-1.25 1.25h-.25zm-19 0h1.25c.138 0 .25.112.25.25 0 .689-.561 1.25-1.25 1.25h-.25zm33 0h4.5v3.25c0 .689-.561 1.25-1.25 1.25h-2c-.689 0-1.25-.561-1.25-1.25zm-20 0h4.5v3.25c0 .689-.561 1.25-1.25 1.25h-2c-.689 0-1.25-.561-1.25-1.25zm-19 0h4.5v3.25c0 .689-.561 1.25-1.25 1.25h-2c-.689 0-1.25-.561-1.25-1.25zm6.5 32.5h-8.5v-.25c0-.689.561-1.25 1.25-1.25h6c.689 0 1.25.561 1.25 1.25zm2-14.5v.25c0 .689-.561 1.25-1.25 1.25h-10c-.689 0-1.25-.561-1.25-1.25v-.25zm-12.5-1.5v-.25c0-1.241 1.01-2.25 2.25-2.25h8c1.24 0 2.25 1.009 2.25 2.25v.25zm5.5 4.5h1.5v8.5h-1.5zm24 11.5h-8.5v-.25c0-.689.561-1.25 1.25-1.25h6c.689 0 1.25.561 1.25 1.25zm2-14.5v.25c0 .689-.561 1.25-1.25 1.25h-10c-.689 0-1.25-.561-1.25-1.25v-.25zm-12.5-1.5v-.25c0-1.241 1.01-2.25 2.25-2.25h8c1.24 0 2.25 1.009 2.25 2.25v.25zm5.5 4.5h1.5v8.5h-1.5zm24 11.5h-8.5v-.25c0-.689.561-1.25 1.25-1.25h6c.689 0 1.25.561 1.25 1.25zm2-14.5v.25c0 .689-.561 1.25-1.25 1.25h-10c-.689 0-1.25-.561-1.25-1.25v-.25zm-12.5-1.5v-.25c0-1.241 1.01-2.25 2.25-2.25h8c1.24 0 2.25 1.009 2.25 2.25v.25zm5.5 4.5h1.5v8.5h-1.5zm10 11.5h-3.5v-.25c0-1.517-1.233-2.75-2.75-2.75h-.75v-8.5h2.75c1.517 0 2.75-1.233 2.75-2.75v-2c0-2.068-1.683-3.75-3.75-3.75h-8c-2.067 0-3.75 1.682-3.75 3.75v2c0 1.517 1.233 2.75 2.75 2.75h2.75v8.5h-.75c-1.517 0-2.75 1.233-2.75 2.75v.25h-7.5v-.25c0-1.517-1.233-2.75-2.75-2.75h-.75v-8.5h2.75c1.517 0 2.75-1.233 2.75-2.75v-2c0-2.068-1.683-3.75-3.75-3.75h-8c-2.067 0-3.75 1.682-3.75 3.75v2c0 1.517 1.233 2.75 2.75 2.75h2.75v8.5h-.75c-1.517 0-2.75 1.233-2.75 2.75v.25h-7.5v-.25c0-1.517-1.233-2.75-2.75-2.75h-.75v-8.5h2.75c1.517 0 2.75-1.233 2.75-2.75v-2c0-2.068-1.683-3.75-3.75-3.75h-8c-2.067 0-3.75 1.682-3.75 3.75v2c0 1.517 1.233 2.75 2.75 2.75h2.75v8.5h-.75c-1.517 0-2.75 1.233-2.75 2.75v.25h-3.5v-23.5h56.5zm2-25h-60.5v-1.5h60.5z"/><path d="m63 .25h-62c-.414 0-.75.336-.75.75v3c0 .414.336.75.75.75h11.25v2.576c-2.537.368-4.5 2.536-4.5 5.174v.5c0 .414.336.75.75.75h.826c.349 1.71 1.864 3 3.674 3s3.326-1.29 3.674-3h.826c.414 0 .75-.336.75-.75v-.5c0-2.638-1.963-4.806-4.5-5.174v-2.576h17.5v2.576c-2.537.368-4.5 2.536-4.5 5.174v.5c0 .414.336.75.75.75h.826c.349 1.71 1.864 3 3.674 3s3.326-1.29 3.674-3h.826c.414 0 .75-.336.75-.75v-.5c0-2.638-1.963-4.806-4.5-5.174v-2.576h18v2.576c-2.537.368-4.5 2.536-4.5 5.174v.5c0 .414.336.75.75.75h.826c.349 1.71 1.864 3 3.674 3s3.326-1.29 3.674-3h.826c.414 0 .75-.336.75-.75v-.5c0-2.638-1.963-4.806-4.5-5.174v-2.576h10.75c.414 0 .75-.336.75-.75v-3c0-.414-.336-.75-.75-.75zm-50 15c-.976 0-1.801-.629-2.112-1.5h4.223c-.311.871-1.136 1.5-2.112 1.5zm3.742-3h-7.484c.13-1.952 1.759-3.5 3.742-3.5s3.612 1.548 3.742 3.5zm15.258 3c-.976 0-1.801-.629-2.112-1.5h4.223c-.311.871-1.136 1.5-2.112 1.5zm3.742-3h-7.484c.13-1.952 1.759-3.5 3.742-3.5s3.612 1.548 3.742 3.5zm15.758 3c-.976 0-1.801-.629-2.112-1.5h4.223c-.311.871-1.136 1.5-2.112 1.5zm3.742-3h-7.484c.13-1.952 1.759-3.5 3.742-3.5s3.612 1.548 3.742 3.5zm7.008-9h-60.5v-1.5h60.5z"/></svg>