<?xml version="1.0" encoding="UTF-8" standalone="no"?>
<!-- Created with Inkscape (http://www.inkscape.org/) -->

<svg
   version="1.1"
   id="svg4401"
   xml:space="preserve"
   width="682.66669"
   height="682.66669"
   viewBox="0 0 682.66669 682.66669"
   xmlns="http://www.w3.org/2000/svg"
   xmlns:svg="http://www.w3.org/2000/svg"><defs
     id="defs4405"><clipPath
       clipPathUnits="userSpaceOnUse"
       id="clipPath4415"><path
         d="M 0,512 H 512 V 0 H 0 Z"
         id="path4413" /></clipPath></defs><g
     id="g4407"
     transform="matrix(1.3333333,0,0,-1.3333333,0,682.66667)"><g
       id="g4409"><g
         id="g4411"
         clip-path="url(#clipPath4415)"><g
           id="g4417"
           transform="translate(206.5244,39.084)"><path
             d="m 0,0 h -177.773 c -5.339,0 -9.667,-4.328 -9.667,-9.667 v -12.25 c 0,-5.339 4.328,-9.667 9.667,-9.667 H 0 c 5.339,0 9.667,4.328 9.667,9.667 v 12.25 C 9.667,-4.328 5.339,0 0,0 Z"
             style="fill:none;stroke:#000000;stroke-width:15;stroke-linecap:round;stroke-linejoin:round;stroke-miterlimit:10;stroke-dasharray:none;stroke-opacity:1"
             id="path4419" /></g><g
           id="g4421"
           transform="translate(453.7383,152)"><path
             d="m 0,0 -313.322,313.322 c -0.14,0.141 -0.262,0.292 -0.39,0.441 -40.538,-98.317 -28.702,-205.445 40.003,-274.15 C -205.004,-29.092 -97.875,-40.928 0.44,-0.39 0.292,-0.262 0.14,-0.14 0,0 Z"
             style="fill:none;stroke:#000000;stroke-width:15;stroke-linecap:round;stroke-linejoin:round;stroke-miterlimit:10;stroke-dasharray:none;stroke-opacity:1"
             id="path4423" /></g><g
           id="g4425"
           transform="translate(172.4756,479.3515)"><path
             d="M 0,0 240.947,-30.583"
             style="fill:none;stroke:#000000;stroke-width:15;stroke-linecap:round;stroke-linejoin:round;stroke-miterlimit:10;stroke-dasharray:none;stroke-opacity:1"
             id="path4427" /></g><g
           id="g4429"
           transform="translate(243.1616,408.665)"><path
             d="M 0,0 170.261,40.104"
             style="fill:none;stroke:#000000;stroke-width:15;stroke-linecap:round;stroke-linejoin:round;stroke-miterlimit:10;stroke-dasharray:none;stroke-opacity:1"
             id="path4431" /></g><g
           id="g4433"
           transform="translate(467.7671,184.0595)"><path
             d="M 0,0 -30.583,240.947"
             style="fill:none;stroke:#000000;stroke-width:15;stroke-linecap:round;stroke-linejoin:round;stroke-miterlimit:10;stroke-dasharray:none;stroke-opacity:1"
             id="path4435" /></g><g
           id="g4437"
           transform="translate(397.0815,254.7461)"><path
             d="M 0,0 40.103,170.261"
             style="fill:none;stroke:#000000;stroke-width:15;stroke-linecap:round;stroke-linejoin:round;stroke-miterlimit:10;stroke-dasharray:none;stroke-opacity:1"
             id="path4439" /></g><g
           id="g4441"
           transform="translate(407.0366,459.8681)"><path
             d="M 0,0 41.248,-41.247"
             style="fill:none;stroke:#000000;stroke-width:15;stroke-linecap:round;stroke-linejoin:round;stroke-miterlimit:10;stroke-dasharray:none;stroke-opacity:1"
             id="path4443" /></g><g
           id="g4445"
           transform="translate(486.3506,497.9345)"><path
             d="m 0,0 v 0 c -8.754,8.754 -22.946,8.754 -31.7,0 l -42.84,-42.84 31.7,-31.7 L 0,-31.7 C 8.753,-22.946 8.753,-8.754 0,0 Z"
             style="fill:none;stroke:#000000;stroke-width:15;stroke-linecap:round;stroke-linejoin:round;stroke-miterlimit:10;stroke-dasharray:none;stroke-opacity:1"
             id="path4447" /></g><g
           id="g4449"
           transform="translate(433.2597,476.5439)"><path
             d="M 0,0 -21.449,-21.449 10.25,-53.149 31.7,-31.7 Z"
             style="fill:none;stroke:#000000;stroke-width:15;stroke-linecap:round;stroke-linejoin:round;stroke-miterlimit:10;stroke-dasharray:none;stroke-opacity:1"
             id="path4451" /></g><g
           id="g4453"
           transform="translate(180.0288,191.6133)"><path
             d="M 0,0 C -13.436,13.437 -24.687,28.348 -33.807,44.37 -44.5,34.283 -51.184,19.993 -51.184,4.134 c 0,-30.552 24.767,-55.319 55.318,-55.319 15.86,0 30.15,6.685 40.236,17.377 C 28.348,-24.687 13.437,-13.437 0,0 Z"
             style="fill:none;stroke:#000000;stroke-width:15;stroke-linecap:round;stroke-linejoin:round;stroke-miterlimit:10;stroke-dasharray:none;stroke-opacity:1"
             id="path4455" /></g><g
           id="g4457"
           transform="translate(310.5966,339.8164)"><path
             d="m 0,0 -147.843,147.843 c -3.776,3.775 -9.896,3.775 -13.671,0 l -8.662,-8.662 c -3.775,-3.775 -3.775,-9.896 0,-13.671 l 313.322,-313.322 c 3.775,-3.775 9.896,-3.775 13.67,0 l 8.663,8.663 c 3.775,3.774 3.775,9.895 0,13.67 L 24.822,-24.822"
             style="fill:none;stroke:#000000;stroke-width:15;stroke-linecap:round;stroke-linejoin:round;stroke-miterlimit:10;stroke-dasharray:none;stroke-opacity:1"
             id="path4459" /></g><g
           id="g4461"
           transform="translate(190.5244,104.8574)"><path
             d="m 0,0 v 35.944 c -2.088,-0.239 -4.208,-0.373 -6.361,-0.373 -19.214,0 -36.135,9.8 -46.051,24.67 L -137.639,-65.773 H 0 V -35"
             style="fill:none;stroke:#000000;stroke-width:15;stroke-linecap:round;stroke-linejoin:round;stroke-miterlimit:10;stroke-dasharray:none;stroke-opacity:1"
             id="path4463" /></g></g></g></g></svg>
