<svg width="48" height="40" viewBox="0 0 48 40" fill="none" xmlns="http://www.w3.org/2000/svg">
<path d="M45.8448 35.6951H44.4863V25.1253C44.4863 24.7367 44.171 24.4217 43.7818 24.4217C43.3927 24.4217 43.0773 24.7367 43.0773 25.1253V35.6951H18.5117V25.3034C18.5117 24.9148 18.1963 24.5997 17.8072 24.5997H8.54981C8.16066 24.5997 7.84528 24.9148 7.84528 25.3034V35.6951H4.50694V21.8639L43.0773 11.9452V22.3108C43.0773 22.6994 43.3927 23.0145 43.7818 23.0145C44.171 23.0145 44.4863 22.6994 44.4863 22.3108V11.0374C44.4863 10.8199 44.3857 10.6146 44.2134 10.4814C44.0412 10.348 43.817 10.3021 43.6062 10.3561L40.1609 11.242L39.5059 3.98904C39.5059 3.98885 39.5058 3.98857 39.5058 3.98838L39.2034 0.640433C39.1707 0.277802 38.8663 0 38.5018 0H33.8505C33.486 0 33.1816 0.277802 33.1489 0.640433L32.8465 3.98857V3.98866L32.002 13.3402L27.9984 14.3698L27.2938 6.56715C27.2938 6.56696 27.2938 6.56678 27.2938 6.56678L26.9915 3.21874C26.9587 2.85611 26.6543 2.5783 26.2898 2.5783H21.6384C21.2739 2.5783 20.9695 2.85611 20.9368 3.21874L20.6345 6.56668C20.6345 6.56687 20.6345 6.56706 20.6344 6.56734L19.7379 16.4941L15.8359 17.4976L15.0816 9.14555C15.0816 9.14536 15.0816 9.14527 15.0816 9.14508L14.7792 5.79713C14.7465 5.4345 14.4421 5.1567 14.0776 5.1567H9.42637C9.06187 5.1567 8.75747 5.4345 8.72475 5.79713L8.07694 12.9698C8.04197 13.3569 8.32781 13.6989 8.71528 13.7338C9.10303 13.7688 9.44531 13.4833 9.48028 13.0963L9.76706 9.92091H13.7371L14.4534 17.8533L8.92228 19.2756L9.22697 15.9023C9.26194 15.5152 8.97609 15.1732 8.58862 15.1383C8.20097 15.1038 7.85859 15.3889 7.82363 15.7758L7.47394 19.648L3.62719 20.6372C3.31594 20.7173 3.09834 20.9976 3.09834 21.3186V35.6951H2.15522C0.966844 35.6951 0 36.6607 0 37.8475C0 39.0344 0.966844 40 2.15522 40H22.8517C23.2408 40 23.5562 39.6849 23.5562 39.2964C23.5562 38.9078 23.2408 38.5927 22.8517 38.5927H2.15522C1.74375 38.5927 1.40897 38.2585 1.40897 37.8475C1.40897 37.4366 1.74366 37.1022 2.15522 37.1022H45.8448C46.2509 37.1022 46.591 37.4419 46.591 37.8475C46.591 38.2531 46.2509 38.5927 45.8448 38.5927H25.6697C25.2805 38.5927 24.9652 38.9078 24.9652 39.2964C24.9652 39.6849 25.2805 40 25.6697 40H45.8448C47.0332 40 48 39.0344 48 37.8475C48 36.6607 47.0332 35.6951 45.8448 35.6951ZM9.89381 8.51345L10.0699 6.56378H13.4336L13.6097 8.51345H9.89381ZM37.858 1.40727L38.0341 3.35694H34.3182L34.4943 1.40727H37.858ZM34.1912 4.76411H38.1612L38.7783 11.5975L33.4504 12.9676L34.1912 4.76411ZM25.6459 3.98548L25.8219 5.93515H22.106L22.282 3.98548H25.6459ZM21.9788 7.34241H25.949L26.6157 14.7253L21.1861 16.1216L21.9788 7.34241ZM9.25425 26.007H17.1026V35.6951H9.25425V26.007Z" fill="black"/>
<path d="M26.6765 21.3691C26.6765 20.9805 26.3611 20.6655 25.9719 20.6655H23.1583C22.7692 20.6655 22.4538 20.9805 22.4538 21.3691V24.8782C22.4538 25.2668 22.7692 25.5818 23.1583 25.5818H25.9719C26.3611 25.5818 26.6765 25.2668 26.6765 24.8782V21.3691ZM25.2675 24.1747H23.8629V22.0727H25.2675V24.1747Z" fill="black"/>
<path d="M25.9719 27.8481H23.1583C22.7692 27.8481 22.4538 28.1631 22.4538 28.5517V32.0608C22.4538 32.4494 22.7692 32.7644 23.1583 32.7644H25.9719C26.3611 32.7644 26.6765 32.4494 26.6765 32.0608V28.5517C26.6765 28.1631 26.3611 27.8481 25.9719 27.8481ZM25.2675 31.3572H23.8629V29.2553H25.2675V31.3572Z" fill="black"/>
<path d="M33.8084 21.3691C33.8084 20.9805 33.493 20.6655 33.1039 20.6655H30.2902C29.901 20.6655 29.5856 20.9805 29.5856 21.3691V24.8782C29.5856 25.2668 29.901 25.5818 30.2902 25.5818H33.1039C33.493 25.5818 33.8084 25.2668 33.8084 24.8782V21.3691ZM32.3994 24.1747H30.9948V22.0727H32.3994V24.1747Z" fill="black"/>
<path d="M33.104 27.8481H30.2903C29.9011 27.8481 29.5857 28.1631 29.5857 28.5517V32.0608C29.5857 32.4494 29.9011 32.7644 30.2903 32.7644H33.104C33.4931 32.7644 33.8085 32.4494 33.8085 32.0608V28.5517C33.8084 28.1631 33.493 27.8481 33.104 27.8481ZM32.3994 31.3572H30.9948V29.2553H32.3994V31.3572Z" fill="black"/>
<path d="M40.9403 21.3691C40.9403 20.9805 40.625 20.6655 40.2358 20.6655H37.4222C37.033 20.6655 36.7177 20.9805 36.7177 21.3691V24.8782C36.7177 25.2668 37.033 25.5818 37.4222 25.5818H40.2358C40.625 25.5818 40.9403 25.2668 40.9403 24.8782V21.3691ZM39.5313 24.1747H38.1267V22.0727H39.5313V24.1747Z" fill="black"/>
<path d="M40.2358 27.8481H37.4222C37.033 27.8481 36.7177 28.1631 36.7177 28.5517V32.0608C36.7177 32.4494 37.033 32.7644 37.4222 32.7644H40.2358C40.625 32.7644 40.9403 32.4494 40.9403 32.0608V28.5517C40.9403 28.1631 40.625 27.8481 40.2358 27.8481ZM39.5313 31.3572H38.1267V29.2553H39.5313V31.3572Z" fill="black"/>
</svg>
