<svg width="36" height="40" viewBox="0 0 36 40" fill="none" xmlns="http://www.w3.org/2000/svg">
<path d="M34.8776 34.3125C34.8165 33.6875 34.6333 33.125 34.3279 32.5625L28.7084 22.9375C28.5251 22.625 28.2808 22.3125 28.0365 22.0625V13.625C28.0365 11.3125 26.3873 9.4375 24.1883 9.125V7.125H24.4937C25.41 7.125 26.1429 6.375 26.1429 5.4375V1.6875C26.1429 0.75 25.41 0 24.4937 0H3.54274C2.62651 0 1.89353 0.75 1.89353 1.6875V5.4375C1.89353 6.375 2.62651 7.125 3.54274 7.125H3.84814V9.125C1.71029 9.4375 0 11.3125 0 13.625V35.4375C0 37.9375 2.01569 40 4.45896 40H31.0906C32.19 40 33.1673 39.5625 33.9614 38.75C34.7555 38 35.122 36.9375 35.122 35.8125C35.122 35.3125 35.0609 34.8125 34.8776 34.3125ZM3.11516 5.4375V1.6875C3.11516 1.4375 3.29841 1.25 3.54274 1.25H24.5548C24.7992 1.25 24.9824 1.4375 24.9824 1.6875V5.4375C24.9824 5.6875 24.7992 5.875 24.5548 5.875H3.54274C3.29841 5.9375 3.11516 5.6875 3.11516 5.4375ZM26.8148 21.25C26.6316 21.1875 26.4484 21.0625 26.204 21.0625C25.1656 20.8125 24.0662 20.9375 23.1499 21.5C21.2564 22.6875 20.5845 25.1875 21.7451 27.1875L24.3716 31.6875H1.28271V17.375H26.8759V21.25H26.8148ZM18.1413 33.8125C18.691 33.25 19.3629 32.9375 20.1569 32.9375H25.0435V38.75H20.1569C18.5688 38.75 17.3472 37.4375 17.3472 35.875C17.2861 35.0625 17.5915 34.375 18.1413 33.8125ZM26.204 31.6875L30.7241 28.9375L32.4954 32C32.0679 31.8125 31.5792 31.75 31.0295 31.75L26.204 31.6875ZM30.1743 27.875L25.2878 30.8125L22.7835 26.5625C21.9894 25.1875 22.417 23.4375 23.7608 22.625C24.1883 22.375 24.677 22.25 25.1656 22.25C25.41 22.25 25.6543 22.25 25.8986 22.3125C26.6316 22.5 27.2424 22.9375 27.6089 23.625L30.1743 27.875ZM23.0278 9.125H5.06978V7.1875H23.0278V9.125ZM4.45896 10.375H23.6386C25.41 10.375 26.8759 11.875 26.8759 13.6875V16.1875H1.28271V13.6875C1.28271 11.8125 2.68759 10.375 4.45896 10.375ZM1.28271 35.4375V32.9375H17.2861C16.5531 33.6875 16.1256 34.75 16.1256 35.8125C16.1256 36.9375 16.5531 37.9375 17.2861 38.6875H4.45896C2.68759 38.75 1.28271 37.25 1.28271 35.4375ZM33.1063 37.875C32.5565 38.4375 31.8846 38.75 31.0906 38.75H26.204V32.9375H31.0906C32.6787 32.9375 33.9003 34.25 33.9003 35.8125C33.9003 36.625 33.656 37.375 33.1063 37.875Z" fill="black"/>
</svg>
