<svg id="Layer_1" enable-background="new 0 0 66 66" height="512" viewBox="0 0 66 66" width="512" xmlns="http://www.w3.org/2000/svg"><g><path d="m64 22h-33v-3c0-.55-.45-1-1-1h-4v-2h2c.55 0 1-.45 1-1v-7c0-.55-.45-1-1-1h-2v-2h7.18c.42 1.16 1.52 2 2.82 2 1.65 0 3-1.35 3-3s-1.35-3-3-3c-1.3 0-2.4.84-2.82 2h-16.36c-.42-1.16-1.52-2-2.82-2-1.65 0-3 1.35-3 3s1.35 3 3 3c1.3 0 2.4-.84 2.82-2h7.18v2h-2c-.55 0-1 .45-1 1v1l-12.5.01c-1.97-.11-3.85.58-5.28 1.94-1.43 1.35-2.22 3.18-2.22 5.15v33.8c0 1.97.79 3.79 2.22 5.15 1.33 1.27 3.06 1.95 4.84 1.95h12.94v1c0 .55.45 1 1 1h2v2h-7.18c-.41-1.16-1.51-2-2.82-2-1.65 0-3 1.35-3 3s1.35 3 3 3c1.3 0 2.4-.84 2.82-2h16.37c.41 1.16 1.51 2 2.82 2 1.65 0 3-1.35 3-3s-1.35-3-3-3c-1.3 0-2.4.84-2.82 2h-7.19v-2h2c.55 0 1-.45 1-1v-7c0-.55-.45-1-1-1h-2v-2h4c.55 0 1-.45 1-1v-3h33c.55 0 1-.45 1-1v-10-10c0-.55-.45-1-1-1zm-28-19c.55 0 1 .45 1 1s-.45 1-1 1-1-.45-1-1 .45-1 1-1zm-22 2c-.55 0-1-.45-1-1s.45-1 1-1 1 .45 1 1-.45 1-1 1zm0 58c-.55 0-1-.45-1-1s.45-1 1-1 1 .45 1 1-.45 1-1 1zm22-2c.55 0 1 .45 1 1s-.45 1-1 1-1-.45-1-1 .45-1 1-1zm27-35h-12c-.55 0-1 .45-1 1s.45 1 1 1h12v4h-48v-1h4c.55 0 1-.45 1-1s-.45-1-1-1h-4v-5h48zm-34-4h-8v-2h8zm-6-13h4v5h-4zm-14.61 45.99c-1.41.08-2.77-.42-3.8-1.39-1.02-.97-1.59-2.29-1.59-3.7v-33.8c0-1.41.57-2.72 1.59-3.7.96-.91 2.2-1.4 3.55-1.4.1 0 .2 0 .3.01l12.56-.01v2h-11.75c-1.1-.05-2.18.35-2.98 1.11-.82.77-1.27 1.82-1.27 2.94v31.78c0 1.15.48 2.26 1.33 3.06.82.77 1.85 1.17 2.89 1.11h11.78v2zm18.61 2.01h-4v-1-4h4zm-3-7h-2c-.55 0-1 .45-1 1h-11.83c-.54.03-1.05-.17-1.46-.56-.45-.42-.71-1.01-.71-1.61v-31.78c0-.57.23-1.09.64-1.48s.95-.59 1.53-.56h.05l11.78-.01c0 .55.45 1 1 1h2v2h-4c-.55 0-1 .45-1 1v3h-5c-.55 0-1 .45-1 1v20c0 .55.45 1 1 1h5v3c0 .55.45 1 1 1h4zm5-4h-8v-2h8zm-14-4v-2h12c.55 0 1-.45 1-1s-.45-1-1-1h-12v-4h48v5h-5c-.55 0-1 .45-1 1s.45 1 1 1h5v1z"/><path d="m34 30h11c.55 0 1-.45 1-1s-.45-1-1-1h-11c-.55 0-1 .45-1 1s.45 1 1 1z"/><path d="m27 25c-.55 0-1 .45-1 1s.45 1 1 1h3c.55 0 1-.45 1-1s-.45-1-1-1z"/><path d="m54 36h-11c-.55 0-1 .45-1 1s.45 1 1 1h11c.55 0 1-.45 1-1s-.45-1-1-1z"/><path d="m33 38h-1c-.55 0-1 .45-1 1s.45 1 1 1h1c.55 0 1-.45 1-1s-.45-1-1-1z"/></g></svg>