<svg width="44" height="44" viewBox="0 0 44 44" fill="none" xmlns="http://www.w3.org/2000/svg">
<path d="M41.2754 39.73V27.8859C41.2754 27.5255 40.9875 27.2335 40.6322 27.2335C40.2769 27.2335 39.9889 27.5256 39.9889 27.8859V39.6966H3.81916V23.0618C3.81916 22.2633 4.45965 21.6137 5.24701 21.6137H6.10355L6.10364 32.5488C6.10364 34.6885 7.81998 36.4292 9.92958 36.4292C12.0394 36.4292 13.7558 34.6884 13.7558 32.5488V23.8346C13.7558 23.8344 13.7558 23.8341 13.7558 23.8339C13.7558 23.8336 13.7558 23.8333 13.7558 23.833V21.6137H18.0026L18.0027 32.5488C18.0027 34.6885 19.719 36.4292 21.8286 36.4292C23.9385 36.4292 25.6549 34.6884 25.6549 32.5488L25.6548 21.6137H29.9016L29.9017 32.5488C29.9017 34.6885 31.618 36.4292 33.7276 36.4292C35.8374 36.4292 37.5538 34.6884 37.5538 32.5488V28.3572C37.5538 28.3572 37.5538 28.357 37.5538 28.3569V21.6137H38.5612C39.3485 21.6137 39.989 22.2633 39.989 23.0618V25.1241C39.989 25.4845 40.277 25.7765 40.6323 25.7765C40.9875 25.7765 41.2755 25.4844 41.2755 25.1241V23.0618C41.2755 21.5439 40.0579 20.3089 38.5611 20.3089H37.5537V10.9668C38.15 10.6815 38.5646 10.0676 38.5646 9.35585V9.30547C38.5646 8.32287 37.7764 7.52348 36.8074 7.52348H30.6477C29.6788 7.52348 28.8906 8.32287 28.8906 9.30547V9.35585C28.8906 10.0676 29.3053 10.6815 29.9015 10.9668L29.9016 20.3089H25.6548V17.2252C25.6548 17.2244 25.6549 17.2236 25.6549 17.2228C25.6549 17.222 25.6548 17.2212 25.6548 17.2205V10.9668C26.2511 10.6816 26.6658 10.0676 26.6658 9.35585V9.30547C26.6658 8.32287 25.8775 7.52348 24.9086 7.52348H18.7488C17.78 7.52348 16.9917 8.32287 16.9917 9.30547V9.35585C16.9917 10.0676 17.4063 10.6815 18.0027 10.9668L18.0027 20.3089H13.756V14.4966C13.756 14.1362 13.468 13.8441 13.1127 13.8441C12.7574 13.8441 12.4695 14.1363 12.4695 14.4966V23.1814H7.39004L7.38995 11.1379H12.4691V11.9457C12.4691 12.3061 12.7571 12.598 13.1124 12.598C13.4676 12.598 13.7556 12.306 13.7556 11.9457V10.9669C14.3519 10.6817 14.7665 10.0677 14.7665 9.35593V9.30556C14.7665 8.32296 13.9783 7.52357 13.0094 7.52357H6.84958C5.88072 7.52357 5.09241 8.32296 5.09241 9.30556V9.35593C5.09241 10.0677 5.50706 10.6816 6.10329 10.9669L6.10338 20.309H5.24692C3.75023 20.309 2.53258 21.544 2.53258 23.0619V39.7638C1.08857 40.0673 0 41.3673 0 42.9204V43.3476C0 43.708 0.287977 44 0.643243 44H43.3568C43.712 44 44 43.7079 44 43.3476V42.9204C44.0001 41.2992 42.8138 39.9542 41.2754 39.73ZM36.2672 32.5488C36.2672 33.969 35.1279 35.1245 33.7275 35.1245C32.3273 35.1245 31.1882 33.969 31.1882 32.5488V29.0095H36.2672V32.5488ZM30.1769 9.30564C30.1769 9.04243 30.3882 8.82838 30.6477 8.82838H36.8074C37.067 8.82838 37.278 9.04243 37.278 9.30564V9.35602C37.278 9.61923 37.0669 9.83329 36.8074 9.83329H34.0651C33.7098 9.83329 33.4218 10.1253 33.4218 10.4856C33.4218 10.846 33.7098 11.138 34.0651 11.138H36.2672V20.9485C36.2671 20.9528 36.2665 20.957 36.2665 20.9614C36.2665 20.9657 36.2671 20.97 36.2672 20.9743V27.7048H31.1881L31.1879 11.1381H31.449C31.8042 11.1381 32.0922 10.846 32.0922 10.4857C32.0922 10.1254 31.8042 9.83337 31.449 9.83337H30.6475C30.388 9.83337 30.1769 9.61932 30.1769 9.35611V9.30564ZM21.8285 35.1245C20.4283 35.1245 19.2891 33.969 19.2891 32.5488L19.2891 17.8753H24.3681V20.9606C24.3681 20.9608 24.3681 20.961 24.3681 20.9613C24.3681 20.9615 24.3681 20.9617 24.3681 20.962L24.3682 32.5488C24.3682 33.969 23.229 35.1245 21.8285 35.1245ZM19.289 16.5704V11.1379H24.3681V16.5704H19.289ZM18.278 9.30564C18.278 9.04243 18.4891 8.82838 18.7486 8.82838H24.9083C25.1679 8.82838 25.3789 9.04243 25.3789 9.30564V9.35602C25.3789 9.61923 25.1678 9.83329 24.9083 9.83329H18.7486C18.4891 9.83329 18.278 9.61923 18.278 9.35602V9.30564ZM12.4691 24.4862V32.5488C12.4691 33.969 11.3299 35.1245 9.9295 35.1245C8.52931 35.1245 7.39012 33.969 7.39012 32.5488L7.39004 24.4862H12.4691ZM6.37898 9.30564C6.37898 9.04243 6.59013 8.82838 6.84958 8.82838H13.0093C13.2689 8.82838 13.4799 9.04243 13.4799 9.30564V9.35602C13.4799 9.61923 13.2689 9.83329 13.0093 9.83329H6.84958C6.59013 9.83329 6.37898 9.61923 6.37898 9.35602V9.30564ZM1.29946 42.6953C1.40345 41.7967 2.12223 41.0866 3.01624 41.0091C3.06737 41.0223 40.7615 41.02 40.8213 41.0013C41.7896 41.0014 42.5903 41.7427 42.7005 42.6953H1.29946Z" fill="black"/>
<path d="M12.9298 2.42076C11.917 2.42076 11.093 3.25641 11.093 4.28354C11.093 5.31068 11.917 6.14633 12.9298 6.14633C13.9425 6.14633 14.7665 5.31068 14.7665 4.28354C14.7665 3.2565 13.9425 2.42076 12.9298 2.42076ZM12.9298 4.84169C12.6264 4.84169 12.3796 4.59138 12.3796 4.28363C12.3796 3.97588 12.6263 3.72557 12.9298 3.72557C13.2331 3.72557 13.48 3.97588 13.48 4.28363C13.48 4.59138 13.2332 4.84169 12.9298 4.84169Z" fill="black"/>
<path d="M33.1486 0C32.1357 0 31.3117 0.835652 31.3117 1.86278C31.3117 2.88992 32.1358 3.72557 33.1486 3.72557C34.1613 3.72557 34.9853 2.88992 34.9853 1.86278C34.9853 0.835652 34.1613 0 33.1486 0ZM33.1486 2.42076C32.8451 2.42076 32.5983 2.17045 32.5983 1.8627C32.5983 1.55495 32.8451 1.30473 33.1486 1.30473C33.4519 1.30473 33.6988 1.55504 33.6988 1.8627C33.6988 2.17045 33.452 2.42076 33.1486 2.42076Z" fill="black"/>
<path d="M9.37924 15.1852C9.75409 15.1852 10.058 14.877 10.058 14.4968C10.058 14.1167 9.75409 13.8085 9.37924 13.8085C9.00438 13.8085 8.7005 14.1167 8.7005 14.4968C8.7005 14.877 9.00438 15.1852 9.37924 15.1852Z" fill="black"/>
<path d="M9.37924 2.55106C9.75409 2.55106 10.058 2.24287 10.058 1.8627C10.058 1.48253 9.75409 1.17434 9.37924 1.17434C9.00438 1.17434 8.7005 1.48253 8.7005 1.8627C8.7005 2.24287 9.00438 2.55106 9.37924 2.55106Z" fill="black"/>
<path d="M23.045 6.49486C23.4199 6.49486 23.7238 6.18668 23.7238 5.80651C23.7238 5.42634 23.4199 5.11815 23.045 5.11815C22.6702 5.11815 22.3663 5.42634 22.3663 5.80651C22.3663 6.18668 22.6702 6.49486 23.045 6.49486Z" fill="black"/>
<path d="M30.8851 6.18189C31.26 6.18189 31.5639 5.8737 31.5639 5.49353C31.5639 5.11336 31.26 4.80517 30.8851 4.80517C30.5103 4.80517 30.2064 5.11336 30.2064 5.49353C30.2064 5.8737 30.5103 6.18189 30.8851 6.18189Z" fill="black"/>
<path d="M34.638 24.5221C35.0129 24.5221 35.3168 24.2139 35.3168 23.8338C35.3168 23.4536 35.0129 23.1454 34.638 23.1454C34.2632 23.1454 33.9593 23.4536 33.9593 23.8338C33.9593 24.2139 34.2632 24.5221 34.638 24.5221Z" fill="black"/>
<path d="M32.634 15.417C33.0088 15.417 33.3127 15.1088 33.3127 14.7287C33.3127 14.3485 33.0088 14.0403 32.634 14.0403C32.2591 14.0403 31.9552 14.3485 31.9552 14.7287C31.9552 15.1088 32.2591 15.417 32.634 15.417Z" fill="black"/>
</svg>
