<?xml version="1.0"?>
<svg xmlns="http://www.w3.org/2000/svg" id="Layer_1" data-name="Layer 1" viewBox="0 0 512 512" width="512" height="512"><title>Exhibition</title><path d="M442.5,303.379A29.57,29.57,0,0,0,413,333.128v32.983c-3,17.671-18.291,34.027-43.757,47.222-30.049,15.568-70.3,24.127-113.118,24.127s-83.257-8.564-113.3-24.132C117.353,400.133,102,383.781,99,366.111V333.128a29.5,29.5,0,1,0-59,0V490.333A7.722,7.722,0,0,0,48,498H91.5a7.309,7.309,0,0,0,7.5-7.667V400.424c9,10.055,21.173,19.223,36.4,27.11,32.281,16.725,75.148,25.917,120.479,25.917s88.385-9.192,120.666-25.917C391.764,419.647,404,410.479,413,400.424v89.909A7.309,7.309,0,0,0,420.5,498H464a7.722,7.722,0,0,0,8-7.667V333.128A29.57,29.57,0,0,0,442.5,303.379Zm-373,16A13.554,13.554,0,0,1,83,333.128V353H56V333.128A13.554,13.554,0,0,1,69.5,319.379ZM56,482V369H83V482ZM442.5,319.379A13.554,13.554,0,0,1,456,333.128V353H429V333.128A13.554,13.554,0,0,1,442.5,319.379ZM429,482V369h27V482Z"/><path d="M428,52a8,8,0,0,0-8-8H92a8,8,0,0,0-8,8V249a8,8,0,0,0,8,8H420a8,8,0,0,0,8-8Zm-16,8v81.473l-105.862,57.7a28.641,28.641,0,0,1-32.316-2.873l-50.485-42.141a45.007,45.007,0,0,0-53.816-2.346L100,197.764V60ZM100,241V216.943l78.4-51.817.126-.085a28.922,28.922,0,0,1,34.6,1.442l50.486,42.142a44.545,44.545,0,0,0,50.251,4.563L412,159.7V241Z"/><path d="M287.522,148.826c21.31,0,38.647-16.732,38.647-37.3s-17.337-37.3-38.647-37.3-38.647,16.732-38.647,37.3S266.212,148.826,287.522,148.826Zm0-58.6c12.488,0,22.647,9.555,22.647,21.3s-10.159,21.3-22.647,21.3-22.647-9.554-22.647-21.3S275.034,90.229,287.522,90.229Z"/><path d="M458,22a8,8,0,0,0-8-8H62a8,8,0,0,0-8,8V279a8,8,0,0,0,8,8H450a8,8,0,0,0,8-8ZM70,30H442V271H70Z"/></svg>
