<svg width="40" height="39" viewBox="0 0 40 39" fill="none" xmlns="http://www.w3.org/2000/svg">
<path d="M37.4958 10.3438C37.8004 9.95577 37.9826 9.46845 37.9826 8.93929C37.9826 7.72613 37.0274 6.73098 35.8254 6.65628L31.8569 2.1458C31.6447 0.928787 30.5752 0 29.291 0C28.5985 0 27.9687 0.270509 27.5016 0.710136L14.3665 8.72778L14.3675 8.7293C13.3308 9.32835 12.6318 10.4437 12.6318 11.719C12.6318 11.8415 13.2923 23.6106 13.2923 23.6106H13.2047C12.3492 23.6106 11.6531 24.3024 11.6531 25.1528V26.0537C11.6531 26.4078 11.942 26.6949 12.2983 26.6949H22.6104C22.9667 26.6949 23.2556 26.4078 23.2556 26.0537V25.1528C23.2556 24.3024 22.5594 23.6106 21.7039 23.6106H21.4156L18.8376 13.9261L28.7621 5.12404C28.7887 5.12949 28.8157 5.13398 28.8426 5.13863L33.3835 9.08325C33.4131 9.5567 33.5885 9.99127 33.8652 10.3438C32.3881 11.0267 31.361 12.5149 31.361 14.2379C31.361 15.7644 32.1874 17.1886 33.5177 17.9547C33.7173 18.0696 33.9635 18.0699 34.1634 17.9554C34.3632 17.8409 34.4864 17.6291 34.4864 17.3998V14.5557L35.6428 13.8921L36.7992 14.5557V17.4421C36.7992 17.6687 36.9194 17.8783 37.1156 17.9938C37.2169 18.0534 37.3306 18.0833 37.4444 18.0833C37.551 18.0833 37.6577 18.057 37.7545 18.0043C39.1396 17.2496 40 15.8063 40 14.2379C40 12.515 38.9729 11.0267 37.4958 10.3438ZM33.7487 7.69728L30.5042 4.87878C30.9679 4.63512 31.349 4.25657 31.5944 3.79578L34.4307 7.01944C34.1582 7.19521 33.9256 7.42653 33.7487 7.69728ZM29.2909 1.28249C30.0156 1.28249 30.6054 1.86855 30.6054 2.58887C30.6054 3.30918 30.0157 3.89525 29.2909 3.89525C28.566 3.89525 27.9764 3.30918 27.9764 2.58887C27.9764 1.86855 28.5661 1.28249 29.2909 1.28249ZM16.1096 9.54491C17.3158 9.54491 18.2971 10.5202 18.2971 11.7191C18.2971 12.9179 17.3158 13.8932 16.1096 13.8932C14.9034 13.8932 13.922 12.9179 13.922 11.7191C13.922 10.5203 14.9034 9.54491 16.1096 9.54491ZM21.9652 25.1529V25.4127H12.9434V25.1529C12.9434 25.0121 13.063 24.8931 13.2046 24.8931H21.7038C21.8455 24.8931 21.9652 25.0121 21.9652 25.1529ZM14.5844 23.6107L14.0765 14.5208C14.6488 14.9322 15.351 15.1756 16.1096 15.1756C16.6942 15.1756 17.2452 15.0308 17.7293 14.7765L20.0809 23.6107H14.5844ZM19.583 11.5464C19.512 10.1196 18.5664 8.9183 17.2694 8.46088L26.6893 2.71102C26.7224 3.41627 27.0406 4.0485 27.5319 4.49638L19.583 11.5464ZM34.6688 8.93937C34.6688 8.38489 35.1227 7.9338 35.6805 7.9338C36.2384 7.9338 36.6923 8.38489 36.6923 8.93937C36.6923 9.49378 36.2384 9.94487 35.6805 9.94487C35.1227 9.94487 34.6688 9.49378 34.6688 8.93937ZM38.0895 16.063V14.1854C38.0895 13.9563 37.9666 13.7447 37.7669 13.6301L35.9654 12.5963C35.8656 12.5391 35.7543 12.5104 35.6428 12.5104C35.5315 12.5104 35.42 12.539 35.3202 12.5963L33.5186 13.6301C33.319 13.7447 33.196 13.9563 33.196 14.1854V15.9576C32.8478 15.4599 32.6513 14.8609 32.6513 14.2378C32.6513 12.5777 34.0102 11.2272 35.6805 11.2272C37.3508 11.2272 38.7097 12.5778 38.7097 14.2379C38.7097 14.9088 38.4852 15.547 38.0895 16.063ZM32.666 19.3235C31.6629 19.3235 30.8129 19.9865 30.5356 20.8947H28.05C27.6937 20.8947 27.4048 21.1818 27.4048 21.5359V25.0256H25.5875V18.8819C26.5013 18.6064 27.1685 17.7616 27.1685 16.7646C27.1685 15.5446 26.1698 14.5521 24.9423 14.5521C23.7148 14.5521 22.7162 15.5446 22.7162 16.7646C22.7162 17.7616 23.3833 18.6064 24.2972 18.8819V25.0256H24.0011C23.6448 25.0256 23.356 25.3127 23.356 25.6668C23.356 28.9055 20.7048 31.5404 17.4461 31.5404C14.1874 31.5404 11.5363 28.9055 11.5363 25.6668C11.5363 25.3127 11.2474 25.0256 10.8911 25.0256H10.5951V16.4773C11.5089 16.2018 12.176 15.357 12.176 14.36C12.176 13.14 11.1774 12.1475 9.94992 12.1475C8.72242 12.1475 7.72379 13.14 7.72379 14.36C7.72379 15.357 8.39089 16.2018 9.30476 16.4773V25.0256H7.48742V18.3298C7.48742 17.9757 7.19855 17.6886 6.84226 17.6886H4.35653C4.07927 16.7804 3.22927 16.1174 2.22613 16.1174C0.998629 16.1174 0 17.1098 0 18.3298C0 19.5497 0.998629 20.5422 2.22613 20.5422C3.22927 20.5422 4.07927 19.8792 4.35653 18.971H6.19702V25.0255H4.67573C4.31944 25.0255 4.03056 25.3126 4.03056 25.6667V27.3843C4.03056 27.6496 4.19492 27.8874 4.44395 27.9827L6.24831 28.673C6.50806 29.6307 6.89089 30.5486 7.3896 31.4094L6.60435 33.1665C6.49605 33.4089 6.54903 33.6927 6.73774 33.8802L9.18194 36.3093C9.37073 36.4969 9.65597 36.5496 9.9 36.442L11.6688 35.6612C12.5351 36.157 13.4581 36.5374 14.421 36.7954L15.1158 38.5891C15.2116 38.8367 15.451 39 15.7179 39H19.1744C19.4413 39 19.6806 38.8367 19.7765 38.5891L20.471 36.7959C21.4344 36.5378 22.3577 36.1573 23.2242 35.6615L24.9923 36.442C25.2361 36.5496 25.5215 36.497 25.7103 36.3093L28.1544 33.8801C28.3431 33.6926 28.3961 33.4089 28.2878 33.1665L27.5023 31.4086C28.0011 30.5475 28.3839 29.6301 28.6434 28.6731L30.4482 27.9827C30.6973 27.8875 30.8616 27.6496 30.8616 27.3843V25.6667C30.8616 25.3126 30.5727 25.0255 30.2164 25.0255H28.6952V22.1771H30.5356C30.8129 23.0853 31.6629 23.7484 32.666 23.7484C33.8935 23.7484 34.8922 22.7558 34.8922 21.5359C34.8922 20.3159 33.8935 19.3235 32.666 19.3235ZM24.0065 16.7645C24.0065 16.2517 24.4263 15.8344 24.9423 15.8344C25.4584 15.8344 25.8781 16.2516 25.8781 16.7645C25.8781 17.2774 25.4584 17.6946 24.9423 17.6946C24.4263 17.6946 24.0065 17.2774 24.0065 16.7645ZM9.01403 14.3599C9.01403 13.8471 9.43379 13.4298 9.94984 13.4298C10.4659 13.4298 10.8856 13.847 10.8856 14.3599C10.8856 14.8728 10.4659 15.29 9.94984 15.29C9.43379 15.29 9.01403 14.8728 9.01403 14.3599ZM2.22613 19.2598C1.71016 19.2598 1.29032 18.8426 1.29032 18.3298C1.29032 17.8169 1.71008 17.3997 2.22613 17.3997C2.74218 17.3997 3.16194 17.8169 3.16194 18.3298C3.16194 18.8426 2.7421 19.2598 2.22613 19.2598ZM29.5713 26.944L27.8685 27.5954C27.6699 27.6713 27.5219 27.8397 27.4727 28.0454C27.2202 29.0996 26.8015 30.1037 26.2277 31.0295C26.1162 31.2096 26.1012 31.4326 26.1875 31.6259L26.9287 33.2846L25.1111 35.0912L23.4427 34.3548C23.2485 34.269 23.0239 34.2839 22.8426 34.3948C21.9112 34.9648 20.9008 35.3811 19.8394 35.6321C19.6325 35.6811 19.4631 35.8283 19.3867 36.0256L18.7314 37.7175H16.1609L15.5053 36.025C15.429 35.8278 15.2595 35.6806 15.0526 35.6316C13.9919 35.3807 12.9818 34.9645 12.0502 34.3944C11.869 34.2835 11.6444 34.2686 11.4502 34.3544L9.78121 35.091L7.96355 33.2845L8.70452 31.6265C8.79081 31.4332 8.77581 31.2101 8.66419 31.03C8.09081 30.1045 7.67194 29.1003 7.41919 28.0451C7.37 27.8394 7.22193 27.671 7.02339 27.5951L5.32105 26.9439V26.3076H10.2748C10.602 29.9543 13.6935 32.8225 17.4463 32.8225C21.1991 32.8225 24.2906 29.9543 24.6178 26.3076H29.5715V26.944H29.5713ZM32.666 22.4659C32.1501 22.4659 31.7302 22.0488 31.7302 21.5359C31.7302 21.023 32.15 20.6058 32.666 20.6058C33.1821 20.6058 33.6019 21.023 33.6019 21.5359C33.6019 22.0488 33.182 22.4659 32.666 22.4659Z" fill="black"/>
</svg>
