<svg viewBox="-38 0 512 512" xmlns="http://www.w3.org/2000/svg"><path d="m86.527344 136.496094c-4.144532 0-7.5 3.359375-7.5 7.5v9.46875c0 4.140625 3.355468 7.5 7.5 7.5 4.140625 0 7.5-3.355469 7.5-7.5v-9.46875c0-4.140625-3.359375-7.5-7.5-7.5zm0 0"/><path d="m126.976562 136.496094c-4.140624 0-7.5 3.359375-7.5 7.5v9.46875c0 4.140625 3.359376 7.5 7.5 7.5 4.144532 0 7.5-3.355469 7.5-7.5v-9.46875c0-4.140625-3.355468-7.5-7.5-7.5zm0 0"/><path d="m167.429688 136.496094c-4.144532 0-7.5 3.359375-7.5 7.5v9.46875c0 4.140625 3.355468 7.5 7.5 7.5 4.140624 0 7.5-3.355469 7.5-7.5v-9.46875c0-4.140625-3.359376-7.5-7.5-7.5zm0 0"/><path d="m207.878906 136.496094c-4.140625 0-7.5 3.359375-7.5 7.5v9.46875c0 4.140625 3.359375 7.5 7.5 7.5 4.144532 0 7.5-3.355469 7.5-7.5v-9.46875c0-4.140625-3.355468-7.5-7.5-7.5zm0 0"/><path d="m248.332031 136.496094c-4.144531 0-7.5 3.359375-7.5 7.5v9.46875c0 4.140625 3.355469 7.5 7.5 7.5 4.140625 0 7.5-3.355469 7.5-7.5v-9.46875c0-4.140625-3.359375-7.5-7.5-7.5zm0 0"/><path d="m106.753906 178.570312c-4.144531 0-7.5 3.359376-7.5 7.5v9.46875c0 4.144532 3.355469 7.5 7.5 7.5 4.140625 0 7.5-3.355468 7.5-7.5v-9.46875c0-4.140624-3.359375-7.5-7.5-7.5zm0 0"/><path d="m147.203125 178.570312c-4.144531 0-7.5 3.359376-7.5 7.5v9.46875c0 4.144532 3.355469 7.5 7.5 7.5 4.140625 0 7.5-3.355468 7.5-7.5v-9.46875c0-4.140624-3.359375-7.5-7.5-7.5zm0 0"/><path d="m187.652344 178.570312c-4.140625 0-7.5 3.359376-7.5 7.5v9.46875c0 4.144532 3.359375 7.5 7.5 7.5 4.144531 0 7.5-3.355468 7.5-7.5v-9.46875c0-4.140624-3.355469-7.5-7.5-7.5zm0 0"/><path d="m228.105469 178.570312c-4.144531 0-7.5 3.359376-7.5 7.5v9.46875c0 4.144532 3.355469 7.5 7.5 7.5 4.140625 0 7.5-3.355468 7.5-7.5v-9.46875c0-4.140624-3.359375-7.5-7.5-7.5zm0 0"/><path d="m86.527344 215.386719c-4.144532 0-7.5 3.355469-7.5 7.5v9.464843c0 4.144532 3.355468 7.5 7.5 7.5 4.140625 0 7.5-3.355468 7.5-7.5v-9.464843c0-4.144531-3.359375-7.5-7.5-7.5zm0 0"/><path d="m126.976562 215.386719c-4.140624 0-7.5 3.355469-7.5 7.5v9.464843c0 4.144532 3.359376 7.5 7.5 7.5 4.144532 0 7.5-3.355468 7.5-7.5v-9.464843c0-4.144531-3.355468-7.5-7.5-7.5zm0 0"/><path d="m167.429688 215.386719c-4.144532 0-7.5 3.355469-7.5 7.5v9.464843c0 4.144532 3.355468 7.5 7.5 7.5 4.140624 0 7.5-3.355468 7.5-7.5v-9.464843c0-4.144531-3.359376-7.5-7.5-7.5zm0 0"/><path d="m207.878906 215.386719c-4.140625 0-7.5 3.355469-7.5 7.5v9.464843c0 4.144532 3.359375 7.5 7.5 7.5 4.144532 0 7.5-3.355468 7.5-7.5v-9.464843c0-4.144531-3.355468-7.5-7.5-7.5zm0 0"/><path d="m248.332031 215.386719c-4.144531 0-7.5 3.355469-7.5 7.5v9.464843c0 4.144532 3.355469 7.5 7.5 7.5 4.140625 0 7.5-3.355468 7.5-7.5v-9.464843c0-4.144531-3.359375-7.5-7.5-7.5zm0 0"/><path d="m106.753906 257.460938c-4.144531 0-7.5 3.355468-7.5 7.5v9.464843c0 4.144531 3.355469 7.5 7.5 7.5 4.140625 0 7.5-3.355469 7.5-7.5v-9.464843c0-4.144532-3.359375-7.5-7.5-7.5zm0 0"/><path d="m147.203125 257.460938c-4.144531 0-7.5 3.355468-7.5 7.5v9.464843c0 4.144531 3.355469 7.5 7.5 7.5 4.140625 0 7.5-3.355469 7.5-7.5v-9.464843c0-4.144532-3.359375-7.5-7.5-7.5zm0 0"/><path d="m187.652344 257.460938c-4.140625 0-7.5 3.355468-7.5 7.5v9.464843c0 4.144531 3.359375 7.5 7.5 7.5 4.144531 0 7.5-3.355469 7.5-7.5v-9.464843c0-4.144532-3.355469-7.5-7.5-7.5zm0 0"/><path d="m228.105469 257.460938c-4.144531 0-7.5 3.355468-7.5 7.5v9.464843c0 4.144531 3.355469 7.5 7.5 7.5 4.140625 0 7.5-3.355469 7.5-7.5v-9.464843c0-4.144532-3.359375-7.5-7.5-7.5zm0 0"/><path d="m86.527344 294.273438c-4.144532 0-7.5 3.359374-7.5 7.5v9.46875c0 4.140624 3.355468 7.5 7.5 7.5 4.140625 0 7.5-3.359376 7.5-7.5v-9.46875c0-4.140626-3.359375-7.5-7.5-7.5zm0 0"/><path d="m126.976562 294.273438c-4.140624 0-7.5 3.359374-7.5 7.5v9.46875c0 4.140624 3.359376 7.5 7.5 7.5 4.144532 0 7.5-3.359376 7.5-7.5v-9.46875c0-4.140626-3.355468-7.5-7.5-7.5zm0 0"/><path d="m167.429688 294.273438c-4.144532 0-7.5 3.359374-7.5 7.5v9.46875c0 4.140624 3.355468 7.5 7.5 7.5 4.140624 0 7.5-3.359376 7.5-7.5v-9.46875c0-4.140626-3.359376-7.5-7.5-7.5zm0 0"/><path d="m207.878906 294.273438c-4.140625 0-7.5 3.359374-7.5 7.5v9.46875c0 4.140624 3.359375 7.5 7.5 7.5 4.144532 0 7.5-3.359376 7.5-7.5v-9.46875c0-4.140626-3.355468-7.5-7.5-7.5zm0 0"/><path d="m248.332031 294.273438c-4.144531 0-7.5 3.359374-7.5 7.5v9.46875c0 4.140624 3.355469 7.5 7.5 7.5 4.140625 0 7.5-3.359376 7.5-7.5v-9.46875c0-4.140626-3.359375-7.5-7.5-7.5zm0 0"/><path d="m126.976562 380.199219c-4.140624 0-7.5 3.359375-7.5 7.5v9.46875c0 4.140625 3.359376 7.5 7.5 7.5 4.144532 0 7.5-3.359375 7.5-7.5v-9.46875c0-4.140625-3.355468-7.5-7.5-7.5zm0 0"/><path d="m167.429688 380.199219c-4.144532 0-7.5 3.359375-7.5 7.5v9.46875c0 4.140625 3.355468 7.5 7.5 7.5 4.140624 0 7.5-3.359375 7.5-7.5v-9.46875c0-4.140625-3.359376-7.5-7.5-7.5zm0 0"/><path d="m207.878906 380.199219c-4.140625 0-7.5 3.359375-7.5 7.5v9.46875c0 4.140625 3.359375 7.5 7.5 7.5 4.144532 0 7.5-3.359375 7.5-7.5v-9.46875c0-4.140625-3.355468-7.5-7.5-7.5zm0 0"/><path d="m106.753906 337.398438c-4.144531 0-7.5 3.359374-7.5 7.5v9.46875c0 4.140624 3.355469 7.5 7.5 7.5 4.140625 0 7.5-3.359376 7.5-7.5v-9.46875c0-4.140626-3.359375-7.5-7.5-7.5zm0 0"/><path d="m147.203125 337.398438c-4.144531 0-7.5 3.359374-7.5 7.5v9.46875c0 4.140624 3.355469 7.5 7.5 7.5 4.140625 0 7.5-3.359376 7.5-7.5v-9.46875c0-4.140626-3.359375-7.5-7.5-7.5zm0 0"/><path d="m187.652344 337.398438c-4.140625 0-7.5 3.359374-7.5 7.5v9.46875c0 4.140624 3.359375 7.5 7.5 7.5 4.144531 0 7.5-3.359376 7.5-7.5v-9.46875c0-4.140626-3.355469-7.5-7.5-7.5zm0 0"/><path d="m228.105469 337.398438c-4.144531 0-7.5 3.359374-7.5 7.5v9.46875c0 4.140624 3.355469 7.5 7.5 7.5 4.140625 0 7.5-3.359376 7.5-7.5v-9.46875c0-4.140626-3.359375-7.5-7.5-7.5zm0 0"/><path d="m424.300781 449.398438h-30.386719v-44.398438c0-4.144531-3.355468-7.5-7.5-7.5-4.140624 0-7.5 3.355469-7.5 7.5v44.398438h-23.59375v-434.398438h23.59375v353.5c0 4.144531 3.359376 7.5 7.5 7.5 4.144532 0 7.5-3.355469 7.5-7.5v-356c0-6.894531-5.605468-12.5-12.5-12.5h-208.984374c-6.894532 0-12.5 5.605469-12.5 12.5v17.539062c-24.199219 3.476563-43.085938 23.519532-44.707032 48.195313h-4.578125c-6.890625 0-12.5 5.605469-12.5 12.5v18.449219c0 6.894531 5.609375 12.5 12.5 12.5h113.5625c6.894531 0 12.5-5.605469 12.5-12.5v-18.449219c0-6.894531-5.605469-12.5-12.5-12.5h-4.578125c-1.617187-24.675781-20.503906-44.71875-44.699218-48.195313v-15.039062h165.394531v217.277344h-10.691407c-6.894531 0-12.5 5.609375-12.5 12.5v77.042968c0 6.894532 5.605469 12.5 12.5 12.5h10.691407v115.078126h-218.925781c-4.140626 0-7.5 3.359374-7.5 7.5 0 4.144531 3.359374 7.5 7.5 7.5h300.402343v32.601562h-406.800781v-32.601562h71.898438c4.144531 0 7.5-3.355469 7.5-7.5 0-4.140626-3.355469-7.5-7.5-7.5h-74.398438c-6.894531 0-12.5 5.609374-12.5 12.5v37.601562c0 6.894531 5.605469 12.5 12.5 12.5h411.800781c6.890625 0 12.5-5.605469 12.5-12.5v-37.601562c0-6.890626-5.609375-12.5-12.5-12.5zm-219.710937-371.164063h-6.191406c-4.140626 0-7.5 3.355469-7.5 7.5s3.359374 7.5 7.5 7.5h23.308593v13.449219h-108.5625v-13.449219h49.253907c4.144531 0 7.5-3.355469 7.5-7.5s-3.355469-7.5-7.5-7.5h-32.136719c1.75-18.894531 17.746093-33.742187 37.167969-33.742187 19.417968 0 35.414062 14.847656 37.160156 33.742187zm135.734375 241.085937h-8.191407v-72.042968h8.191407zm0 0"/></svg>