<svg width="43" height="43" viewBox="0 0 43 43" fill="none" xmlns="http://www.w3.org/2000/svg">
<path d="M14.4688 13.0626H22.9062V14.4688H14.4688V13.0626Z" fill="black"/>
<path d="M24.3125 13.0626H25.7188V14.4688H24.3125V13.0626Z" fill="black"/>
<path d="M27.125 13.0626H28.5312V14.4688H27.125V13.0626Z" fill="black"/>
<path d="M14.4688 18.6876H22.9062V20.0938H14.4688V18.6876Z" fill="black"/>
<path d="M24.3125 18.6876H25.7188V20.0938H24.3125V18.6876Z" fill="black"/>
<path d="M27.125 18.6876H28.5312V20.0938H27.125V18.6876Z" fill="black"/>
<path d="M14.4688 24.3126H22.9062V25.7188H14.4688V24.3126Z" fill="black"/>
<path d="M24.3125 24.3126H25.7188V25.7188H24.3125V24.3126Z" fill="black"/>
<path d="M27.125 24.3126H28.5312V25.7188H27.125V24.3126Z" fill="black"/>
<path d="M39.7813 29.2344C39.1579 29.2352 38.5524 29.4427 38.0596 29.8244C37.5668 30.2061 37.2145 30.7405 37.0578 31.3438H29.2344V28.5313C29.7936 28.5307 30.3298 28.3082 30.7252 27.9128C31.1207 27.5173 31.3431 26.9812 31.3438 26.4219V24.3126H35.5625C36.5339 24.3118 37.4946 24.1099 38.3841 23.7194C39.2735 23.3288 40.0724 22.7583 40.7303 22.0436C41.3882 21.3289 41.8909 20.4857 42.2067 19.5671C42.5225 18.6484 42.6445 17.6743 42.5651 16.7062C42.4856 15.738 42.2064 14.7969 41.7451 13.942C41.2837 13.0872 40.6503 12.3372 39.8846 11.7393C39.119 11.1415 38.2378 10.7088 37.2966 10.4685C36.3554 10.2283 35.3746 10.1856 34.4161 10.3433C33.7282 7.74858 32.2748 5.42117 30.2453 3.66432C28.2157 1.90747 25.704 0.80264 23.0375 0.493782C20.371 0.184924 17.6732 0.686357 15.2958 1.93275C12.9183 3.17914 10.9714 5.1127 9.70868 7.4815C9.4213 7.45225 9.13262 7.43758 8.84375 7.43756C6.60599 7.43756 4.45988 8.3265 2.87754 9.90884C1.2952 11.4912 0.40625 13.6373 0.40625 15.8751C0.40625 18.1128 1.2952 20.2589 2.87754 21.8413C4.45988 23.4236 6.60599 24.3126 8.84375 24.3126H11.6563V26.4219C11.6569 26.9812 11.8793 27.5173 12.2748 27.9128C12.6702 28.3082 13.2064 28.5307 13.7656 28.5313V31.3438H5.94222C5.77108 30.681 5.36409 30.1034 4.79752 29.7192C4.23096 29.335 3.54373 29.1706 2.86464 29.2568C2.18555 29.3431 1.56123 29.6741 1.10871 30.1877C0.656186 30.7013 0.406525 31.3624 0.406525 32.0469C0.406525 32.7315 0.656186 33.3925 1.10871 33.9062C1.56123 34.4198 2.18555 34.7508 2.86464 34.837C3.54373 34.9233 4.23096 34.7589 4.79752 34.3747C5.36409 33.9905 5.77108 33.4129 5.94222 32.7501H14.4688C14.6552 32.7501 14.8341 32.676 14.9659 32.5441C15.0978 32.4123 15.1719 32.2334 15.1719 32.0469V28.5313H16.5781V34.1563H10.9531C10.7666 34.1563 10.5878 34.2304 10.4559 34.3622C10.3241 34.4941 10.25 34.6729 10.25 34.8594V37.0578C9.58719 37.229 9.00955 37.636 8.62536 38.2025C8.24116 38.7691 8.07679 39.4563 8.16304 40.1354C8.2493 40.8145 8.58026 41.4388 9.0939 41.8913C9.60754 42.3439 10.2686 42.5935 10.9531 42.5935C11.6377 42.5935 12.2987 42.3439 12.8124 41.8913C13.326 41.4388 13.657 40.8145 13.7432 40.1354C13.8295 39.4563 13.6651 38.7691 13.2809 38.2025C12.8967 37.636 12.3191 37.229 11.6563 37.0578V35.5626H17.2813C17.4677 35.5626 17.6466 35.4885 17.7784 35.3566C17.9103 35.2248 17.9844 35.0459 17.9844 34.8594V28.5313H20.7969V35.6516C20.1341 35.8227 19.5564 36.2297 19.1722 36.7963C18.788 37.3628 18.6237 38.0501 18.7099 38.7292C18.7962 39.4083 19.1271 40.0326 19.6408 40.4851C20.1544 40.9376 20.8155 41.1873 21.5 41.1873C22.1845 41.1873 22.8456 40.9376 23.3592 40.4851C23.8729 40.0326 24.2038 39.4083 24.2901 38.7292C24.3763 38.0501 24.212 37.3628 23.8278 36.7963C23.4436 36.2297 22.8659 35.8227 22.2031 35.6516V28.5313H25.0156V34.8594C25.0156 35.0459 25.0897 35.2248 25.2216 35.3566C25.3534 35.4885 25.5323 35.5626 25.7188 35.5626H31.3438V37.0578C30.6809 37.229 30.1033 37.636 29.7191 38.2025C29.3349 38.7691 29.1705 39.4563 29.2568 40.1354C29.343 40.8145 29.674 41.4388 30.1877 41.8913C30.7013 42.3439 31.3623 42.5935 32.0469 42.5935C32.7314 42.5935 33.3925 42.3439 33.9061 41.8913C34.4197 41.4388 34.7507 40.8145 34.837 40.1354C34.9232 39.4563 34.7588 38.7691 34.3746 38.2025C33.9904 37.636 33.4128 37.229 32.75 37.0578V34.8594C32.75 34.6729 32.6759 34.4941 32.5441 34.3622C32.4122 34.2304 32.2334 34.1563 32.0469 34.1563H26.4219V28.5313H27.8281V32.0469C27.8281 32.2334 27.9022 32.4123 28.0341 32.5441C28.1659 32.676 28.3448 32.7501 28.5313 32.7501H37.0578C37.1893 33.2594 37.461 33.7216 37.842 34.0842C38.2231 34.4469 38.6982 34.6954 39.2134 34.8016C39.7286 34.9077 40.2632 34.8673 40.7566 34.6848C41.2499 34.5023 41.6822 34.1852 42.0044 33.7693C42.3265 33.3535 42.5256 32.8556 42.579 32.3323C42.6323 31.809 42.5379 31.2812 42.3064 30.8089C42.0748 30.3366 41.7155 29.9387 41.2691 29.6604C40.8227 29.382 40.3073 29.2345 39.7813 29.2344ZM3.21875 33.4532C2.94062 33.4532 2.66874 33.3707 2.43748 33.2162C2.20622 33.0617 2.02598 32.842 1.91954 32.5851C1.81311 32.3281 1.78526 32.0454 1.83952 31.7726C1.89378 31.4998 2.02771 31.2492 2.22438 31.0526C2.42105 30.8559 2.67162 30.722 2.9444 30.6677C3.21719 30.6134 3.49994 30.6413 3.7569 30.7477C4.01386 30.8542 4.23348 31.0344 4.388 31.2657C4.54253 31.4969 4.625 31.7688 4.625 32.0469C4.62456 32.4198 4.47626 32.7772 4.21263 33.0408C3.949 33.3044 3.59158 33.4527 3.21875 33.4532ZM12.3594 39.7813C12.3594 40.0594 12.2769 40.3313 12.1224 40.5626C11.9679 40.7938 11.7482 40.9741 11.4913 41.0805C11.2343 41.1869 10.9516 41.2148 10.6788 41.1605C10.406 41.1063 10.1554 40.9723 9.95876 40.7757C9.76209 40.579 9.62816 40.3284 9.5739 40.0556C9.51964 39.7829 9.54748 39.5001 9.65392 39.2432C9.76036 38.9862 9.9406 38.7666 10.1719 38.612C10.4031 38.4575 10.675 38.3751 10.9531 38.3751C11.326 38.3755 11.6834 38.5238 11.947 38.7874C12.2106 39.051 12.3589 39.4085 12.3594 39.7813ZM22.9063 38.3751C22.9063 38.6532 22.8238 38.9251 22.6693 39.1563C22.5147 39.3876 22.2951 39.5678 22.0381 39.6743C21.7812 39.7807 21.4984 39.8085 21.2257 39.7543C20.9529 39.7 20.7023 39.5661 20.5056 39.3694C20.309 39.1728 20.175 38.9222 20.1208 38.6494C20.0665 38.3766 20.0944 38.0939 20.2008 37.8369C20.3072 37.5799 20.4875 37.3603 20.7187 37.2058C20.95 37.0513 21.2219 36.9688 21.5 36.9688C21.8728 36.9692 22.2303 37.1175 22.4939 37.3812C22.7575 37.6448 22.9058 38.0022 22.9063 38.3751ZM33.4531 39.7813C33.4531 40.0594 33.3707 40.3313 33.2161 40.5626C33.0616 40.7938 32.842 40.9741 32.585 41.0805C32.3281 41.1869 32.0453 41.2148 31.7725 41.1605C31.4997 41.1063 31.2492 40.9723 31.0525 40.7757C30.8558 40.579 30.7219 40.3284 30.6676 40.0556C30.6134 39.7829 30.6412 39.5001 30.7477 39.2432C30.8541 38.9862 31.0343 38.7666 31.2656 38.612C31.4969 38.4575 31.7687 38.3751 32.0469 38.3751C32.4197 38.3755 32.7771 38.5238 33.0408 38.7874C33.3044 39.051 33.4527 39.4085 33.4531 39.7813ZM13.0625 15.1719V12.3594C13.0627 12.173 13.1369 11.9943 13.2687 11.8625C13.4005 11.7307 13.5792 11.6565 13.7656 11.6563H29.2344C29.4208 11.6565 29.5995 11.7307 29.7313 11.8625C29.8631 11.9943 29.9373 12.173 29.9375 12.3594V15.1719C29.9373 15.3583 29.8631 15.5371 29.7313 15.6689C29.5995 15.8007 29.4208 15.8748 29.2344 15.8751H13.7656C13.5792 15.8748 13.4005 15.8007 13.2687 15.6689C13.1369 15.5371 13.0627 15.3583 13.0625 15.1719ZM13.0625 20.7969V17.9844C13.0627 17.798 13.1369 17.6193 13.2687 17.4875C13.4005 17.3557 13.5792 17.2815 13.7656 17.2813H29.2344C29.4208 17.2815 29.5995 17.3557 29.7313 17.4875C29.8631 17.6193 29.9373 17.798 29.9375 17.9844V20.7969C29.9373 20.9833 29.8631 21.1621 29.7313 21.2939C29.5995 21.4257 29.4208 21.4998 29.2344 21.5001H13.7656C13.5792 21.4998 13.4005 21.4257 13.2687 21.2939C13.1369 21.1621 13.0627 20.9833 13.0625 20.7969ZM1.8125 15.8751C1.81462 14.0109 2.55609 12.2237 3.87424 10.9055C5.1924 9.58739 6.9796 8.84592 8.84375 8.84381C9.22944 8.84372 9.6145 8.87499 9.99512 8.93732C10.1447 8.9621 10.2983 8.93782 10.4329 8.86812C10.5676 8.79843 10.6761 8.68704 10.7422 8.5506C11.831 6.30598 13.5946 4.45815 15.7861 3.26597C17.9776 2.07379 20.4871 1.59697 22.9631 1.90231C25.4391 2.20764 27.7575 3.27984 29.5937 4.9687C31.4299 6.65757 32.6918 8.8785 33.2026 11.3204C33.2222 11.4145 33.2608 11.5036 33.3162 11.5822C33.3716 11.6608 33.4424 11.7272 33.5245 11.7774C33.6065 11.8275 33.6979 11.8602 33.7931 11.8736C33.8883 11.887 33.9853 11.8808 34.0779 11.8552C34.8514 11.6439 35.661 11.6003 36.4527 11.7275C37.2443 11.8547 37.9996 12.1496 38.6679 12.5925C39.3362 13.0354 39.9022 13.6161 40.3277 14.2956C40.7533 14.9751 41.0287 15.7378 41.1354 16.5324C41.2422 17.327 41.1778 18.1353 40.9467 18.903C40.7155 19.6708 40.3229 20.3802 39.7952 20.9838C39.2674 21.5874 38.6167 22.0712 37.8867 22.4028C37.1567 22.7343 36.3643 22.906 35.5625 22.9063H31.2228C31.1307 22.6469 30.9887 22.4081 30.8049 22.2032C31.1521 21.8171 31.3441 21.3162 31.3438 20.7969V17.9844C31.3441 17.4652 31.1521 16.9642 30.8049 16.5782C31.1521 16.1921 31.3441 15.6912 31.3438 15.1719V12.3594C31.3431 11.8002 31.1207 11.264 30.7252 10.8686C30.3298 10.4732 29.7936 10.2507 29.2344 10.2501H13.7656C13.2064 10.2507 12.6702 10.4732 12.2748 10.8686C11.8793 11.264 11.6569 11.8002 11.6563 12.3594V15.1719C11.6559 15.6912 11.8479 16.1921 12.1951 16.5782C11.8479 16.9642 11.6559 17.4652 11.6563 17.9844V20.7969C11.6559 21.3162 11.8479 21.8171 12.1951 22.2032C12.0113 22.4081 11.8693 22.6469 11.7772 22.9063H8.84375C6.9796 22.9042 5.1924 22.1627 3.87424 20.8446C2.55609 19.5264 1.81462 17.7392 1.8125 15.8751ZM13.0625 26.4219V23.6094C13.0627 23.423 13.1369 23.2443 13.2687 23.1125C13.4005 22.9807 13.5792 22.9065 13.7656 22.9063H29.2344C29.4208 22.9065 29.5995 22.9807 29.7313 23.1125C29.8631 23.2443 29.9373 23.423 29.9375 23.6094V26.4219C29.9373 26.6083 29.8631 26.7871 29.7313 26.9189C29.5995 27.0507 29.4208 27.1248 29.2344 27.1251H13.7656C13.5792 27.1248 13.4005 27.0507 13.2687 26.9189C13.1369 26.7871 13.0627 26.6083 13.0625 26.4219ZM39.7813 33.4532C39.5031 33.4532 39.2312 33.3707 39 33.2162C38.7687 33.0617 38.5885 32.842 38.482 32.5851C38.3756 32.3281 38.3478 32.0454 38.402 31.7726C38.4563 31.4998 38.5902 31.2492 38.7869 31.0526C38.9836 30.8559 39.2341 30.722 39.5069 30.6677C39.7797 30.6134 40.0624 30.6413 40.3194 30.7477C40.5764 30.8542 40.796 31.0344 40.9505 31.2657C41.105 31.4969 41.1875 31.7688 41.1875 32.0469C41.1871 32.4198 41.0388 32.7772 40.7751 33.0408C40.5115 33.3044 40.1541 33.4527 39.7813 33.4532Z" fill="black"/>
</svg>
