<svg height="512" viewBox="0 0 64 64" width="512" xmlns="http://www.w3.org/2000/svg"><g id="ax"><path d="m62 61h-1.307l-2.693-7.182v-3.703l2.975-12.89c.068-.297-.002-.608-.192-.847-.189-.239-.478-.378-.782-.378h-11c-.466 0-.87.321-.975.775l-2.821 12.225h-3.204c-1.654 0-3 1.346-3 3v1.879l-1.78 7.121h-1.22v-2c0-.811-.405-1.491-1-1.807v-10.193h7c1.654 0 3-1.346 3-3s-1.346-3-3-3h-9v-21.994c10.039.058 14.756.965 14.805.975.064.013.13.02.194.02h.003c.113 0 .223-.026.328-.063.014-.005.028-.003.042-.008 3.879-1.55 13.365.04 13.461.057.403.069.818-.12 1.029-.478s.179-.809-.08-1.133c-7.351-9.188-25.632-13.354-29.781-14.198v-2.178c0-.553-.447-1-1-1s-1 .447-1 1v2.177c-4.149.844-22.43 5.01-29.781 14.198-.259.324-.291.775-.08 1.133s.625.549 1.029.478c.096-.017 9.581-1.607 13.461-.057.008.003.017.002.025.005.097.036.2.054.305.059.014 0 .027.008.041.008.034 0 .066-.011.099-.015.032-.003.064.002.096-.005.048-.009 4.765-.916 14.805-.975v21.994h-9c-1.654 0-3 1.346-3 3s1.346 3 3 3h7v10.193c-.595.316-1 .995-1 1.807v2h-1.22l-1.78-7.121v-1.879c0-1.654-1.346-3-3-3h-3.204l-2.821-12.225c-.104-.454-.509-.775-.975-.775h-11.002c-.305 0-.593.139-.782.378-.19.238-.261.55-.192.847l2.975 12.89v3.703l-2.693 7.182h-1.307c-.553 0-1 .447-1 1s.447 1 1 1h59.999c.553 0 1-.447 1-1s-.447-1-1-1zm-13.579-43.19c-2.951-4.654-6.676-7.98-9.804-10.185 6.241 1.758 15.314 4.99 20.726 9.999-3.045-.348-7.849-.679-10.922.186zm-43.765-.186c5.412-5.008 14.485-8.241 20.726-9.999-3.128 2.205-6.853 5.532-9.804 10.185-3.074-.865-7.877-.534-10.922-.187zm27.344-11.533c1.7.771 8.854 4.328 13.955 11.598-2.466-.298-7.021-.688-13.955-.688s-11.489.391-13.955.688c5.102-7.27 12.255-10.826 13.955-11.598zm22.693 54.909-2.25-6h3.863l2.25 6zm-4.387-6 2.25 6h-7.276l1.5-6zm-.511-17h8.947l-2.539 11h-8.947zm-8.796 14c0-.552.448-1 1-1h14v2h-15zm-.22 3h3.939l-1.5 6h-3.939zm-19.78-11c0-.552.448-1 1-1h20c.552 0 1 .448 1 1s-.448 1-1 1h-19.999c-.552 0-1-.448-1-1zm12 3v10h-2v-10zm-3 12h4v2h-4zm-9.22 2-1.5-6h3.939l1.5 6zm-3.561-6 1.5 6h-7.276l2.25-6zm5.78-3v1h-14.998v-2h14c.552 0 1 .448 1 1zm-8.796-14 2.539 11h-8.945l-2.539-11h8.947zm-6.511 17h3.863l-2.25 6h-3.863z"/></g></svg>