<svg width="24" height="16" viewBox="0 0 24 16" fill="none" xmlns="http://www.w3.org/2000/svg">
<path d="M22.7692 0H1.23079C0.553827 0 0 0.553827 0 1.23075V14.7692C0 15.4461 0.553827 16 1.23079 16H22.7692C23.4461 16 24 15.4462 24 14.7692V1.23075C24 0.553827 23.4461 0 22.7692 0ZM22.3073 0.923014L12.708 8.12309C12.5354 8.25444 12.2704 8.33661 11.9999 8.33539C11.7295 8.33661 11.4646 8.25444 11.2919 8.12309L1.69261 0.923014H22.3073ZM17.1797 8.59817L22.4104 15.0597C22.4157 15.0662 22.4221 15.0711 22.4277 15.077H1.57228C1.57781 15.0708 1.58428 15.0662 1.58953 15.0597L6.8203 8.59817C6.98056 8.40003 6.95019 8.10955 6.75167 7.94891C6.55353 7.78864 6.26305 7.81902 6.10274 8.0172L0.923061 14.4157V1.49995L10.7384 8.86147C11.1073 9.13625 11.5562 9.25719 11.9999 9.2584C12.4429 9.25747 12.8922 9.13653 13.2614 8.86147L23.0767 1.49995V14.4156L17.8972 8.0172C17.7369 7.81906 17.4461 7.78859 17.2482 7.94891C17.0498 8.10917 17.0193 8.40003 17.1797 8.59817Z" fill="#506075"/>
</svg>
