<svg width="161" height="69" viewBox="0 0 161 69" fill="none" xmlns="http://www.w3.org/2000/svg">
<g clip-path="url(#clip0_1_687)">
<mask id="mask0_1_687" style="mask-type:luminance" maskUnits="userSpaceOnUse" x="0" y="0" width="161" height="69">
<path d="M161 0H0V69H161V0Z" fill="white"/>
</mask>
<g mask="url(#mask0_1_687)">
<path d="M148.105 63.9271H12.6177C8.66238 63.9271 5.44724 60.6999 5.44724 56.7299V12.2699C5.44724 8.29987 8.66238 5.07275 12.6177 5.07275H148.105C152.06 5.07275 155.275 8.29987 155.275 12.2699V56.7299C155.275 60.7116 152.072 63.9271 148.105 63.9271Z" fill="white"/>
</g>
<mask id="mask1_1_687" style="mask-type:luminance" maskUnits="userSpaceOnUse" x="0" y="0" width="161" height="69">
<path d="M161 0H0V69H161V0Z" fill="white"/>
</mask>
<g mask="url(#mask1_1_687)">
<path d="M148.105 63.9271H67.3792V5.07275H148.105C152.06 5.07275 155.275 8.29987 155.275 12.2699V56.7299C155.275 60.7116 152.072 63.9271 148.105 63.9271Z" fill="#FD8702"/>
</g>
<path d="M79.8928 50.4499C79.8581 50.0785 79.7309 49.7302 79.5458 49.4516C79.2104 48.9409 78.8057 48.7087 78.2158 48.7087C77.5103 48.7087 77.0477 49.0337 76.7239 49.6954C76.4348 50.2642 76.377 50.9143 76.377 51.5876C76.377 52.5859 76.5157 53.1315 76.6892 53.5029C76.9205 53.9905 77.3831 54.5825 78.2274 54.5825C78.69 54.5825 79.0948 54.3968 79.4186 54.0137C79.6615 53.7235 79.8697 53.3056 79.9275 52.818L81.2691 52.9922C81.165 53.7699 80.8064 54.4432 80.3554 54.8959C79.7193 55.546 79.0138 55.7433 78.2968 55.7433C76.828 55.7433 75.9606 55.0004 75.4633 54.211C74.8503 53.2359 74.8041 52.0635 74.8041 51.5876C74.8041 49.7534 75.5558 48.8248 75.8334 48.5346C76.6545 47.6523 77.626 47.5479 78.2505 47.5479C78.875 47.5479 79.6846 47.6755 80.367 48.3372C80.8065 48.7667 81.1997 49.44 81.2691 50.2874L79.8928 50.4499Z" fill="black"/>
<path d="M87.8497 48.4069C88.3817 48.9176 88.9831 49.8811 88.9831 51.6456C88.9831 53.4101 88.3817 54.3736 87.8497 54.8843C87.1095 55.5924 86.219 55.7433 85.5367 55.7433C84.8543 55.7433 83.9638 55.5924 83.2236 54.8843C82.6916 54.3736 82.0902 53.4101 82.0902 51.6456C82.0902 49.8811 82.6916 48.9176 83.2236 48.4069C83.9638 47.6988 84.8543 47.5479 85.5367 47.5479C86.219 47.5479 87.1095 47.6988 87.8497 48.4069ZM84.1951 49.44C83.8019 50.032 83.6631 50.9723 83.6631 51.6456C83.6631 52.3189 83.8019 53.2592 84.1951 53.8512C84.5999 54.4548 85.155 54.5825 85.5367 54.5825C85.9183 54.5825 86.4734 54.4548 86.8782 53.8512C87.2715 53.2592 87.4102 52.3189 87.4102 51.6456C87.4102 50.9723 87.2715 50.032 86.8782 49.44C86.4734 48.8364 85.9183 48.7087 85.5367 48.7087C85.155 48.7087 84.5999 48.8364 84.1951 49.44Z" fill="black"/>
<path d="M95.263 53.4798H95.3556C95.3209 53.2245 95.2746 52.7833 95.2746 52.6208V47.6641H96.5005V55.6274H95.1821L91.539 49.266H91.4696C91.5043 49.6955 91.5622 49.591 91.5622 50.2295V55.6274H90.3362V47.6641H91.9323L95.263 53.4798Z" fill="black"/>
<path d="M102.491 49.8695C102.399 49.4748 102.168 49.2311 101.994 49.0918C101.659 48.8248 101.196 48.7087 100.733 48.7087C99.6694 48.7087 99.3803 49.3007 99.3803 49.7302C99.3803 50.4035 100.19 50.6125 100.595 50.7053L101.67 50.9607C102.179 51.0768 102.769 51.2045 103.243 51.5992C103.671 51.959 104.018 52.551 104.018 53.2592C104.018 54.0137 103.625 54.6986 103.104 55.1049C102.491 55.5808 101.636 55.7433 100.93 55.7433C99.8545 55.7433 99.1027 55.4415 98.6054 55.0701C98.1775 54.745 97.7149 54.211 97.5067 53.4449L98.8599 53.1895C99.0102 53.6538 99.3109 54.0137 99.6347 54.2343C100.074 54.5245 100.548 54.5825 100.918 54.5825C102.202 54.5825 102.491 53.9208 102.491 53.5029C102.491 53.1547 102.295 52.6091 101.289 52.3653L100.12 52.0867C99.7735 52.0055 99.1143 51.7965 98.6864 51.4483C98.3394 51.1697 97.9231 50.6589 97.9231 49.8811C97.9231 49.0221 98.351 48.4185 98.8367 48.0702C99.3572 47.6988 100.086 47.5479 100.826 47.5479C101.578 47.5479 102.364 47.7452 102.896 48.1631C103.324 48.4997 103.625 48.9989 103.764 49.4981L102.491 49.8695Z" fill="black"/>
<path d="M106.585 47.6641V52.7021C106.585 53.2593 106.609 53.712 106.875 54.0719C107.06 54.3156 107.418 54.5826 108.158 54.5826C108.841 54.5826 109.188 54.3273 109.361 54.1067C109.685 53.712 109.708 53.178 109.708 52.7021V47.6641H110.911V52.7253C110.911 53.4334 110.865 54.2576 110.24 54.9309C109.639 55.5693 108.817 55.7435 108.066 55.7435C106.979 55.7435 106.285 55.4533 105.845 55.0238C105.128 54.3273 105.128 53.387 105.128 52.7717V47.6641H106.585Z" fill="black"/>
<path d="M114.033 54.4666H117.572V55.6274H112.576V47.6641H114.033V54.4666Z" fill="black"/>
<path d="M122.511 47.6641V48.8249H120.452V55.6274H118.995V48.8249H116.936V47.6641H122.511Z" fill="black"/>
<path d="M124.859 55.6274H123.401V47.6641H124.859V55.6274Z" fill="black"/>
<path d="M131.566 53.4798H131.659C131.624 53.2245 131.578 52.7833 131.578 52.6208V47.6641H132.804V55.6274H131.485L127.842 49.266H127.773C127.808 49.6955 127.866 49.591 127.866 50.2295V55.6274H126.64V47.6641H128.236L131.566 53.4798Z" fill="black"/>
<path d="M140.853 55.6621H140.009L139.72 54.7334C139.546 54.9656 139.28 55.221 138.991 55.3951C138.563 55.6389 138.031 55.7433 137.499 55.7433C136.886 55.7433 135.857 55.6157 135.059 54.6289C134.458 53.886 134.157 52.7716 134.157 51.7385C134.157 50.7169 134.435 49.5097 135.082 48.7203C135.672 48.0122 136.609 47.5479 137.731 47.5479C138.517 47.5479 139.35 47.7916 139.905 48.314C140.333 48.7203 140.645 49.3471 140.761 49.9972L139.35 50.2294C139.304 49.9392 139.199 49.6257 139.038 49.3936C138.783 49.0221 138.297 48.7087 137.673 48.7087C136.817 48.7087 136.331 49.2659 136.112 49.6838C135.834 50.2062 135.73 50.9375 135.73 51.634C135.73 52.8064 135.996 53.3868 136.146 53.6306C136.401 54.0717 136.921 54.5825 137.754 54.5825C138.205 54.5825 138.633 54.4084 138.933 54.095C139.327 53.7003 139.396 53.2475 139.396 52.8993V52.5975H137.627V51.4366H140.853V55.6621Z" fill="black"/>
<path d="M94.4766 13.5815V16.8551L80.5867 36.8215H94.8698V40.9772H74.5034V37.2974L88.347 17.7257H75.2552V13.5815H94.4766Z" fill="white"/>
<path d="M121.967 26.316C121.331 29.3458 119.943 32.8632 117.191 35.7769C118.301 36.8913 119.064 37.1002 120.175 37.1002C120.845 37.1002 121.69 37.0189 122.28 36.9029V40.78C120.845 41.0586 120.256 41.1399 119.215 41.1399C117.064 41.1399 115.872 40.4666 114.519 39.2245L114.045 38.7834C112.692 39.9442 110.309 41.3837 106.528 41.3837C104.376 41.3837 101.913 40.9077 99.8082 39.3058C97.1482 37.3092 96.7434 34.558 96.7434 33.1998C96.7434 31.5282 97.2985 29.1717 99.6463 27.2099C100.838 26.2116 102.237 25.5731 103.463 25.2133C101.636 22.613 100.803 21.1852 100.803 19.3394C100.803 16.8204 102.468 13.187 108.205 13.187C110.275 13.187 112.067 13.5469 113.617 14.7077C115.329 15.9846 115.849 17.7375 115.849 19.3046C115.849 21.9049 114.612 23.414 113.189 24.4587C112.114 25.2597 110.841 25.8981 109.685 26.2928L114.346 32.8864C115.34 31.8068 116.971 29.6941 117.688 25.6544L121.967 26.316ZM105.66 27.9528C104.943 28.1502 104.191 28.5565 103.59 29.0324C102.711 29.7521 101.878 30.8665 101.878 32.7122C101.878 35.1036 103.59 37.4601 107.048 37.4601C107.8 37.4601 109.789 37.2627 111.42 35.8581L105.66 27.9528ZM108.563 23.1238C109.754 22.404 111.466 21.6031 111.466 19.5252C111.466 17.8884 110.113 16.774 108.286 16.774C106.539 16.774 105.498 17.8884 105.498 19.3278C105.498 20.8485 106.655 22.1254 107.164 22.7987L107.765 23.5997L108.563 23.1238Z" fill="white"/>
<path d="M135.776 31.5861C135.776 33.8265 135.741 36.4964 134.18 38.5743C132.468 40.8495 129.843 41.3719 127.461 41.3719C126.466 41.3719 125.078 41.2907 123.205 40.9772V36.984C124.396 37.2626 125.552 37.3786 126.385 37.3786C127.345 37.3786 128.698 37.2626 129.647 36.2178C130.803 34.9757 130.757 33.188 130.757 31.9808V13.5815H135.765V31.5861H135.776Z" fill="white"/>
<path d="M64.0947 63.9271H12.6293C8.67394 63.9271 5.4588 60.6999 5.4588 56.7299V12.2699C5.4588 8.29987 8.67394 5.07275 12.6293 5.07275H64.0947V63.9271Z" fill="black"/>
<path d="M51.8702 55.8709H29.8962V33.815C29.8962 31.4121 31.8392 29.4619 34.2332 29.4619H56.2072V51.5178C56.2072 53.9207 54.2642 55.8709 51.8702 55.8709Z" fill="#FD8702"/>
<path d="M43.7167 47.6868H21.7427V25.631C21.7427 23.228 23.6856 21.2778 26.0796 21.2778H48.0536V43.3337C48.0536 45.7366 46.1107 47.6868 43.7167 47.6868Z" fill="#F03700"/>
<path d="M35.5516 39.5262H13.5776V17.4703C13.5776 15.0674 15.5206 13.1172 17.9146 13.1172H39.8886V35.173C39.9001 37.576 37.9572 39.5262 35.5516 39.5262Z" fill="#984000"/>
<path d="M35.8523 39.5261H21.7195V25.3408C21.7195 23.1003 23.5353 21.2778 25.7674 21.2778H39.9001V35.4632C39.9001 37.7036 38.0844 39.5261 35.8523 39.5261Z" fill="#FD886B"/>
<path d="M44.029 47.7102H29.8962V33.5248C29.8962 31.2844 31.712 29.4619 33.9441 29.4619H48.0768V43.6473C48.0768 45.8877 46.2611 47.7102 44.029 47.7102Z" fill="#F9A95A"/>
<path d="M35.8523 39.5031H29.8962V33.5248C29.8962 31.2844 31.712 29.4619 33.9441 29.4619H39.9002V35.4402C39.9002 37.6806 38.0844 39.5031 35.8523 39.5031Z" fill="#F7CDA9"/>
</g>
<defs>
<clipPath id="clip0_1_687">
<rect width="161" height="69" fill="white"/>
</clipPath>
</defs>
</svg>
