<svg width="56" height="56" fill="none" xmlns="http://www.w3.org/2000/svg"><g clip-path="url(#clip0_596_5165)"><path d="M28 40.45c6.875 0 12.448-5.574 12.448-12.45 0-6.875-5.573-12.448-12.448-12.448-6.876 0-12.45 5.573-12.45 12.449 0 6.875 5.574 12.448 12.45 12.448z" fill="#F7F6F7"/><path d="M28 15.552c-.408 0-.812.02-1.21.059 6.307.608 11.24 5.923 11.24 12.39 0 6.467-4.932 11.781-11.24 12.39.398.038.802.059 1.21.059 6.875 0 12.449-5.574 12.449-12.45 0-6.875-5.574-12.448-12.45-12.448z" fill="#EDEBED"/><path d="M21.501 33.454a1.74 1.74 0 0 0 .87 1.896A11.595 11.595 0 0 0 28 36.798c2.042 0 3.961-.525 5.63-1.448a1.74 1.74 0 0 0 .87-1.896 6.664 6.664 0 0 0-12.999 0z" fill="#A4CCFF"/><path d="M34.5 33.454a6.664 6.664 0 0 0-7.71-5.086 6.67 6.67 0 0 1 5.29 5.086 1.74 1.74 0 0 1-.87 1.895 11.574 11.574 0 0 1-4.42 1.386 11.597 11.597 0 0 0 6.84-1.386 1.74 1.74 0 0 0 .87-1.895z" fill="#8BB3EA"/><path d="M28 29.182a3.556 3.556 0 0 1-3.556-3.556v-4.338c0-1.151.934-2.085 2.085-2.085h2.942c1.152 0 2.085.934 2.085 2.085v4.338A3.556 3.556 0 0 1 28 29.182z" fill="#F2CCBC"/><path d="M29.471 19.203h-2.42c1.152 0 2.085.934 2.085 2.085v4.338c0 1.54-.978 2.85-2.346 3.345a3.556 3.556 0 0 0 4.766-3.344v-4.34a2.085 2.085 0 0 0-2.085-2.084z" fill="#ECAD9A"/><path d="M29.471 19.203H26.53a2.085 2.085 0 0 0-2.085 2.085v2.652l3.014-.992a3.787 3.787 0 0 1 3.3.455l.798.537v-2.652a2.085 2.085 0 0 0-2.085-2.085z" fill="#655E68"/><path d="M29.471 19.203h-2.42c1.152 0 2.085.934 2.085 2.085v1.502c.58.076 1.136.286 1.621.613l.799.537v-2.652a2.085 2.085 0 0 0-2.085-2.085z" fill="#544F57"/><path d="M42.195 17.234a3.428 3.428 0 1 0 0-6.856 3.428 3.428 0 0 0 0 6.856z" fill="#FF8086"/><path d="M42.195 10.378a3.42 3.42 0 0 0-1.21.22 3.429 3.429 0 0 1 0 6.415 3.428 3.428 0 1 0 1.21-6.635z" fill="#E5646E"/><path d="M13.805 17.234a3.428 3.428 0 1 0 0-6.856 3.428 3.428 0 0 0 0 6.856z" fill="#FFC269"/><path d="M13.805 10.378c-.426 0-.834.078-1.21.22a3.428 3.428 0 0 1 0 6.415 3.428 3.428 0 1 0 1.21-6.635z" fill="#FFA95F"/><path d="M42.195 45.623a3.428 3.428 0 1 0 0-6.855 3.428 3.428 0 0 0 0 6.855z" fill="#B3E59F"/><path d="M42.195 38.768a3.42 3.42 0 0 0-1.21.22 3.429 3.429 0 0 1 0 6.415 3.428 3.428 0 1 0 1.21-6.635z" fill="#95D6A4"/><path d="M13.805 45.623a3.428 3.428 0 1 0 0-6.855 3.428 3.428 0 0 0 0 6.855z" fill="#FFE07D"/><path d="M13.805 38.768c-.426 0-.834.078-1.21.22a3.428 3.428 0 0 1 0 6.415 3.428 3.428 0 1 0 1.21-6.635z" fill="#FFD064"/><path d="M26.75 9.25c.35 0 .634-.292.61-.646a.608.608 0 0 0-1.214.059.605.605 0 0 0 .604.587zm2.444-.003a.605.605 0 0 0 .027-1.21.606.606 0 0 0-.639.569.61.61 0 0 0 .612.64zm-4.737.297a.605.605 0 1 0-.232-1.188.605.605 0 0 0 .232 1.188zM9.053 23.785a.608.608 0 1 0-.157-1.113.605.605 0 0 0-.277.37l-.001.006a.605.605 0 0 0 .435.737zm13.11-13.65a.607.607 0 0 0 .395-.768.608.608 0 0 0-1.156.378c.103.321.45.49.761.39zM10.71 36.825a.605.605 0 0 0-.234.823l.002.003a.605.605 0 1 0 1.054-.593.604.604 0 0 0-.822-.233zM8.754 26.197a.605.605 0 0 0 .6-.534.605.605 0 0 0-.52-.678.61.61 0 0 0-.682.537.608.608 0 0 0 .602.676zm.98-4.753a.61.61 0 0 0 .45-1.131.603.603 0 0 0-.788.333.61.61 0 0 0 .337.798zM19.97 11.007a.61.61 0 0 0 .296-.82.603.603 0 0 0-.808-.276.61.61 0 0 0-.292.805c.143.306.507.43.804.291zm26.225 12.286a.604.604 0 1 0 1.173-.297l-.003-.01a.602.602 0 0 0-.736-.433.607.607 0 0 0-.434.74zm-1.2 14.664a.605.605 0 0 0 .532-.317l.002-.004a.604.604 0 1 0-1.06-.583l-.006.011c-.218.39.082.893.532.893zm.807-17.699a.606.606 0 0 0-.343.784l.007.018a.608.608 0 0 0 .79.33.603.603 0 0 0 .33-.787V20.6a.605.605 0 0 0-.784-.343zm1.356 4.67a.606.606 0 0 0-.52.678.605.605 0 1 0 1.201-.141l-.002-.017a.604.604 0 0 0-.679-.52zm-1.88-5.77a.605.605 0 0 0 .234-.824l-.002-.003a.605.605 0 1 0-1.054.594.601.601 0 0 0 .823.232zm-11.495-9.04a.605.605 0 1 0 .372-1.151.606.606 0 1 0-.372 1.15zm-2.279-.581a.61.61 0 0 0 .703-.49.603.603 0 0 0-.489-.701h-.001a.605.605 0 1 0-.213 1.19zm4.471 1.445a.608.608 0 0 0 .865-.514.605.605 0 0 0-.345-.578.606.606 0 0 0-.813.287.606.606 0 0 0 .293.805zm-24.695 7.155a.608.608 0 0 0-.583 1.069.611.611 0 0 0 .875-.71.605.605 0 0 0-.292-.36zm30.914 20.026c-.953 0-1.83.333-2.52.888l-2.143-2.143a13.005 13.005 0 0 0 3.522-8.907 13 13 0 0 0-3.302-8.667l2.188-2.187a4.01 4.01 0 0 0 2.255.691 4.037 4.037 0 0 0 4.032-4.032 4.037 4.037 0 0 0-4.032-4.033 4.037 4.037 0 0 0-4.033 4.033c0 .953.333 1.829.888 2.52l-2.142 2.142A13.005 13.005 0 0 0 28 14.947a13.005 13.005 0 0 0-8.913 3.515l-2.137-2.137c.555-.69.888-1.566.888-2.52a4.037 4.037 0 0 0-4.033-4.032 4.037 4.037 0 0 0-4.033 4.033 4.037 4.037 0 0 0 4.033 4.032c.804.001 1.59-.24 2.256-.691l2.182 2.182c-.846.95-1.548 2.02-2.085 3.173a.605.605 0 0 0 1.096.51 11.853 11.853 0 0 1 2.255-3.268l.002-.002.004-.004A11.797 11.797 0 0 1 28 16.157c6.53 0 11.844 5.313 11.844 11.844 0 6.53-5.313 11.844-11.844 11.844S16.156 34.532 16.156 28c0-.773.075-1.545.222-2.296a.604.604 0 1 0-1.187-.233c-.163.833-.245 1.68-.245 2.529 0 3.44 1.338 6.573 3.521 8.907l-2.142 2.143a4.013 4.013 0 0 0-2.52-.888 4.037 4.037 0 0 0-4.033 4.033 4.037 4.037 0 0 0 4.033 4.032 4.037 4.037 0 0 0 4.032-4.032 4.008 4.008 0 0 0-.69-2.256l2.186-2.187A13 13 0 0 0 28 41.054a13 13 0 0 0 8.666-3.3l2.187 2.186a4.01 4.01 0 0 0-.69 2.256 4.037 4.037 0 0 0 4.032 4.032 4.037 4.037 0 0 0 4.032-4.032 4.037 4.037 0 0 0-4.032-4.033zm0-27.18a2.826 2.826 0 0 1 2.823 2.823 2.826 2.826 0 0 1-2.823 2.823 2.826 2.826 0 0 1-2.823-2.823 2.826 2.826 0 0 1 2.823-2.823zm-28.39 5.646a2.826 2.826 0 0 1-2.823-2.823 2.826 2.826 0 0 1 2.823-2.823 2.826 2.826 0 0 1 2.823 2.823 2.826 2.826 0 0 1-2.823 2.823zm0 28.39a2.826 2.826 0 0 1-2.823-2.823 2.826 2.826 0 0 1 2.823-2.823 2.826 2.826 0 0 1 2.823 2.823 2.826 2.826 0 0 1-2.823 2.823zm28.39 0a2.826 2.826 0 0 1-2.823-2.823 2.826 2.826 0 0 1 2.823-2.823 2.826 2.826 0 0 1 2.823 2.823 2.826 2.826 0 0 1-2.823 2.823zm-6.186-.015l-.01.005a.605.605 0 1 0 .52 1.092l.003-.002a.606.606 0 0 0-.513-1.095zm-2.193.87l-.013.004a.604.604 0 0 0 .382 1.148l.003-.001a.605.605 0 0 0-.372-1.151zM20.911 33.322c-.225 1.001.255 2.053 1.167 2.557a12.2 12.2 0 0 0 2.912 1.151.605.605 0 0 0 .296-1.172 10.99 10.99 0 0 1-2.623-1.037 1.14 1.14 0 0 1-.572-1.234 6.077 6.077 0 0 1 3.832-4.358 4.133 4.133 0 0 0 2.077.558c.73 0 1.446-.192 2.077-.558a6.072 6.072 0 0 1 3.832 4.357c.108.48-.128.988-.572 1.235a11.057 11.057 0 0 1-5.338 1.373.605.605 0 1 0 0 1.21c2.072 0 4.12-.528 5.924-1.525.911-.505 1.391-1.557 1.166-2.558a7.287 7.287 0 0 0-3.958-4.96 4.142 4.142 0 0 0 1.03-2.735v-4.338a2.693 2.693 0 0 0-2.69-2.69H26.53a2.693 2.693 0 0 0-2.69 2.69v4.338c0 1.047.39 2.003 1.029 2.735a7.29 7.29 0 0 0-3.957 4.96zm4.138-12.034c0-.816.664-1.48 1.48-1.48h2.942c.816 0 1.48.664 1.48 1.48v1.522a4.36 4.36 0 0 0-3.683-.437l-2.22.731.001-1.816zm0 3.09l2.598-.856c.94-.31 1.95-.17 2.773.382l.531.358v1.364A2.954 2.954 0 0 1 28 28.577a2.954 2.954 0 0 1-2.951-2.95v-1.25zm22.95 3.604v-.025a.605.605 0 1 0-1.209 0v.052c-.008.768 1.217.779 1.21 0V28v-.019zm-39.394.646a.605.605 0 0 0 .605-.605v-.009a.605.605 0 1 0-1.21 0c0 .337.268.614.605.614zm38.712 1.204a.607.607 0 0 0-.673.528l-.002.008a.604.604 0 0 0 1.202.142l.001-.008a.603.603 0 0 0-.528-.67zM31.53 46.46a.605.605 0 0 0 .21 1.191l.019-.003a.606.606 0 0 0-.229-1.188zm15.412-14.223a.606.606 0 0 0-.737.435l-.002.01a.609.609 0 0 0 .586.754.606.606 0 0 0 .586-.456l.002-.006a.605.605 0 0 0-.435-.736zm-.683 2.34a.605.605 0 0 0-.784.344.613.613 0 0 0 .56.833.605.605 0 0 0 .56-.378l.007-.015a.605.605 0 0 0-.343-.784zM29.192 46.754h-.016a.603.603 0 0 0-.558.645.607.607 0 0 0 .643.563h.002a.607.607 0 0 0 .568-.64.604.604 0 0 0-.64-.568zm-19.003-11.03a.605.605 0 0 0 .343-.784l-.007-.019a.607.607 0 0 0-.79-.33.603.603 0 0 0-.33.788.607.607 0 0 0 .784.344zm9.815 9.286a.605.605 0 1 0-.52 1.092c.299.143.668.024.813-.287a.607.607 0 0 0-.293-.805zM8.838 31.053a.605.605 0 0 0 .52-.68.605.605 0 0 0-1.201.142c.04.34.35.581.68.538zm.96 1.635a.605.605 0 0 0-1.172.297c.084.33.42.525.739.442a.607.607 0 0 0 .434-.74zm17.03 14.067a.605.605 0 1 0-.071 1.208.605.605 0 0 0 .071-1.208zm-4.625-.875a.604.604 0 0 0-.767.379c-.13.385.17.801.581.801a.606.606 0 0 0 .186-1.18zm2.288.584l-.018-.003a.606.606 0 0 0-.702.49.603.603 0 0 0 .606.712.605.605 0 0 0 .114-1.199z" fill="#000"/></g><defs><clipPath id="clip0_596_5165"><path fill="#fff" transform="translate(8 8)" d="M0 0h40v40H0z"/></clipPath></defs></svg>