<svg width="136" height="160" fill="none" xmlns="http://www.w3.org/2000/svg"><path fill-rule="evenodd" clip-rule="evenodd" d="M64.474.25L3.882 25.33A6.277 6.277 0 0 0 0 31.127v31.048c0 42.337 25.42 80.461 64.474 96.886v-13.793a92.882 92.882 0 0 1-34.571-29.254l-.948-1.273.032-.027a92.936 92.936 0 0 1-3.294-5.113c-.67-.975-1.566-2.604-2.023-3.479l.028-.023a92.1 92.1 0 0 1-11.105-43.924V35.318l2.541-1.052 29.334 29.013c-2.794 1.73-6.04 4.153-6.696 5.155-.083.126-.347.394-.741.793-2.993 3.035-13.484 13.67-8.88 27.679l-.151.122C32.667 111.04 44.8 125.055 63 135c-1.5-5.5-2-9-1.5-14.5.025-.277.052-.658.08-1.13.195-.663.519-1.554.884-2.403 1.01-2.347 1.2-2.511 2.923-2.514 4.418-.007 12.596-2.32 19.278-5.452.918-.431 1.8-.654 1.958-.496.656.657-1.57 5.593-3.928 8.711-1.393 1.841-2.33 3.346-2.084 3.346.247 0 1.704-1.318 3.24-2.928 2.139-2.245 3.05-3.711 3.906-6.284.723-2.173 1.052-2.972 1.812-3.462l12.95 12.809a92.502 92.502 0 0 1-31.598 24.865v13.751C110.317 143.029 136 104.73 136 62.175V31.127a6.277 6.277 0 0 0-3.882-5.797L70.921 0v13.593l42.387 17.545.019.007 5.016 2.074-.002.002 5.066 2.097v.41h.001v6.293h-.001v20.154c0 19.552-6.196 38.268-17.216 53.714l-12.548-12.411a23.226 23.226 0 0 0 .446-3.268c.037-.7.358-1.575.714-1.944.898-.933.814-1.444-.376-2.278-1.004-.704-.91-1.046 4.602-16.692 5.081-14.426 5.597-16.214 5.322-18.438-.192-1.562-.086-2.726.291-3.18.774-.934 5.578-.016 8.307.949 3.237 1.142 2.975.588-.449-.95-3.633-1.631-7.339-2.585-8.876-1.151-.997.93-1.129 1.438-.891 3.434.243 2.038-.396 4.315-4.9 17.477-2.848 8.324-5.395 15.136-5.66 15.138-.264.001-1.064.546-1.779 1.211-.714.665-1.985 1.426-2.824 1.692-.354.112-.793.376-1.262.745L67.74 77.86c-.16-.925-.372-1.585-.64-2.165-.56-1.208-1.147-2.582-1.304-3.053-.293-.876 3.011-6.514 4.307-7.35.378-.244 2.26-.444 4.183-.444h3.496l1.753-3.307c.965-1.819 2.313-3.765 2.996-4.325 1.119-.916 1.19-1.195.713-2.798-.29-.98-.62-3.323-.733-5.209-.324-5.419-1.469-8.614-3.862-10.779-1.136-1.026-2.681-2.1-3.434-2.387-2.076-.79-7.261-1.3-9.193-.905-4.85.993-8.468 5.994-8.236 11.388.213 4.972.276 6.437-.25 7.645-.221.506-.545.966-1.005 1.62-1.145 1.628-3.368 3.259-6.36 4.692L21.15 31.776l43.325-17.933V.25zm3.706 86.482c.01 2.801-.024 6.352-.087 10.909-.058 4.14.1 5.942.545 6.225 1.39.884 6.245.105 10.288-1.651 1.119-.485 2.324-.965 2.678-1.065.128-.037.359-.217.65-.497L68.18 86.733zM67.95 160h.1-.1zm64.222-128.552a3.219 3.219 0 0 1-3.224 3.214 3.22 3.22 0 0 1-3.224-3.214 3.22 3.22 0 0 1 3.224-3.214 3.219 3.219 0 0 1 3.224 3.214zM7.253 34.662a3.219 3.219 0 0 0 3.224-3.214 3.219 3.219 0 0 0-3.224-3.214 3.219 3.219 0 0 0-3.223 3.214 3.219 3.219 0 0 0 3.223 3.214zm20.148-8.838a3.219 3.219 0 0 0 3.224-3.214 3.219 3.219 0 0 0-3.224-3.214 3.219 3.219 0 0 0-3.223 3.214 3.219 3.219 0 0 0 3.223 3.214zM9.671 53.141a3.219 3.219 0 0 1-3.224 3.214 3.219 3.219 0 0 1-3.223-3.214 3.219 3.219 0 0 1 3.223-3.213 3.219 3.219 0 0 1 3.224 3.213zM7.253 80.46a3.219 3.219 0 0 0 3.224-3.214 3.219 3.219 0 0 0-3.224-3.214 3.219 3.219 0 0 0-3.223 3.214 3.219 3.219 0 0 0 3.223 3.214zm9.671 19.282a3.219 3.219 0 0 1-3.223 3.214 3.219 3.219 0 0 1-3.224-3.214 3.219 3.219 0 0 1 3.224-3.213 3.219 3.219 0 0 1 3.223 3.213zm8.866 24.907a3.219 3.219 0 0 0 3.223-3.214 3.219 3.219 0 0 0-3.223-3.213 3.219 3.219 0 0 0-3.224 3.213 3.219 3.219 0 0 0 3.224 3.214zm22.566 16.069a3.219 3.219 0 0 1-3.224 3.214 3.219 3.219 0 0 1-3.224-3.214 3.219 3.219 0 0 1 3.224-3.214 3.219 3.219 0 0 1 3.224 3.214zm-.806-123.73a3.219 3.219 0 0 0 3.223-3.215 3.219 3.219 0 0 0-3.223-3.213 3.219 3.219 0 0 0-3.224 3.213 3.219 3.219 0 0 0 3.224 3.214zm85.428 36.154a3.22 3.22 0 0 1-3.224 3.214 3.22 3.22 0 0 1-3.224-3.214 3.22 3.22 0 0 1 3.224-3.213 3.22 3.22 0 0 1 3.224 3.213zm-4.03 27.318a3.219 3.219 0 0 0 3.224-3.214 3.219 3.219 0 0 0-3.224-3.214 3.22 3.22 0 0 0-3.224 3.214 3.22 3.22 0 0 0 3.224 3.214zm-3.224 19.282a3.218 3.218 0 0 1-3.223 3.214 3.219 3.219 0 0 1-3.224-3.214 3.219 3.219 0 0 1 3.224-3.213 3.218 3.218 0 0 1 3.223 3.213zm-16.118 24.907a3.22 3.22 0 0 0 3.224-3.214 3.22 3.22 0 0 0-3.224-3.213 3.22 3.22 0 0 0-3.224 3.213 3.22 3.22 0 0 0 3.224 3.214zm-15.313 16.069a3.219 3.219 0 0 1-3.223 3.214 3.219 3.219 0 0 1-3.224-3.214 3.219 3.219 0 0 1 3.224-3.214 3.219 3.219 0 0 1 3.223 3.214zm15.313-114.893a3.22 3.22 0 0 0 3.224-3.214 3.22 3.22 0 0 0-3.224-3.214 3.22 3.22 0 0 0-3.224 3.214 3.22 3.22 0 0 0 3.224 3.214zM91.07 13.772a3.219 3.219 0 0 1-3.224 3.214 3.219 3.219 0 0 1-3.224-3.214 3.219 3.219 0 0 1 3.224-3.213 3.219 3.219 0 0 1 3.224 3.213zM79.943 49.328c.42 0 .763-.228.763-.508s-.344-.51-.763-.51c-.42 0-.763.23-.763.51s.343.508.763.508zm.632 3.776c-.488-.581-.886-1.325-.886-1.653 0-.328-.23-.596-.509-.596-.893 0-.549.804.886 2.074 1.013.895 1.152.943.509.175z" fill="url(#paint0_linear)"/><defs><linearGradient id="paint0_linear" x1="68.079" y1="0" x2="68.079" y2="160" gradientUnits="userSpaceOnUse"><stop stop-color="#fff"/><stop offset="1" stop-color="#006876"/></linearGradient></defs></svg>