<svg width="56" height="56" fill="none" xmlns="http://www.w3.org/2000/svg"><mask id="a" style="mask-type:luminance" maskUnits="userSpaceOnUse" x="8" y="8" width="40" height="40"><path d="M8 8h40v40H8V8z" fill="#fff"/></mask><g mask="url(#a)" fill-rule="evenodd" clip-rule="evenodd"><path d="M39.604 41.94h-7.99c-.022 0-.044-.003-.067-.003h-2.23a.962.962 0 0 0-.959.96v3.56c0 .525.432.957.96.957h10.534a.962.962 0 0 0 .959-.957v-3.56a.962.962 0 0 0-.96-.96h-.247v.003z" fill="#EB5468"/><path d="M19.1 15.323v18.832a.7.7 0 0 0 .697.7h16.434V15.323H19.1z" fill="#3BC3A4"/><path d="M24.486 31.886h5.43a2.477 2.477 0 0 1 .555-2.233 2.487 2.487 0 0 1 2.793-.642V15.323H22.07v14.075c0 .65-.087.421.45.543a2 2 0 0 1 1.494 1.502c.115.502-.106.442.472.442z" fill="#EFF6FF"/><path d="M33.264 29.011c.26.105.499.255.708.44l2.26 2.018V15.323h-2.968V29.01z" fill="#00A887"/><path d="M33.972 29.452a2.488 2.488 0 0 0-3.501.202 2.477 2.477 0 0 0-.556 2.232c.116.49.38.931.756 1.266l1.908 1.703h-5.554c0 2.884.806 7.034 4.522 7.082h8.057l1.833-9.544c.4-2.073.235-3.891-1.563-5.262l-3.643-2.702v7.04l-2.259-2.017z" fill="#FFE5C1"/><path d="M19.1 22.06v-2.97h-4.407a.367.367 0 0 1-.365-.366V11.92c0-.2.166-.366.365-.366h26.612a.37.37 0 0 1 .367.366v6.805a.368.368 0 0 1-.367.366H36.23v2.97h6.288a2.127 2.127 0 0 0 2.12-2.122v-9.23c0-1.154-.931-2.1-2.079-2.122H13.44a2.128 2.128 0 0 0-2.08 2.121v9.23c0 1.168.955 2.122 2.122 2.122H19.1z" fill="#375E7D"/><path d="M29.916 31.886h-3.707a13.85 13.85 0 0 1-2.175 2.97h8.546l-1.909-1.704a2.453 2.453 0 0 1-.755-1.267z" fill="#00A887"/><path d="M26.209 31.886h3.707a2.477 2.477 0 0 1 .556-2.233 2.487 2.487 0 0 1 2.792-.642V15.323H27a18.624 18.624 0 0 1 1.143 4.006 2.87 2.87 0 0 1 .175 5.623c-.27 2.582-1.014 4.951-2.108 6.933z" fill="#D9EEFF"/><path d="M37.534 27.13c1.798 1.372 1.962 3.19 1.565 5.263l-1.833 9.544h2.338l1.834-9.544c.398-2.073.234-3.891-1.564-5.262l-3.643-2.702v1.736l1.303.966z" fill="#FED1A3"/><path d="M14.694 19.09H19.1v-3.767h-4.772v3.401c0 .202.166.366.366.366zM36.232 15.323v3.767h5.073a.368.368 0 0 0 .368-.366v-3.401h-5.441zm0 0h5.44v-3.404a.37.37 0 0 0-.367-.366H14.694c-.2 0-.366.167-.366.366v3.404h21.904z" fill="#DDDAEC"/><path d="M27.666 25.025a2.867 2.867 0 1 0 .001-5.734 2.867 2.867 0 0 0-.001 5.734z" fill="#FFD772"/><path d="M28.317 24.952a2.87 2.87 0 0 0-.175-5.623 20.63 20.63 0 0 1 .288 3.45c0 .738-.038 1.462-.113 2.173z" fill="#FBBA58"/><path d="M33.946 31.323l2.05 1.86c1.908 1.703 1.947.155 1.425-.655l-3.448-3.076a2.488 2.488 0 0 0-3.501.201c1.198.16 2.544.828 3.474 1.67zM34.119 37.05c-.14-.711-.647-1.4-.972-1.688l-.567-.507h-2.04l.664.592c.324.29 1.143 1.29 1.285 2.002.142.71 1.652 1.09 1.63-.4z" fill="#FED1A3"/><path d="M38.222 42.896v3.561a.961.961 0 0 1-.956.957h2.586a.962.962 0 0 0 .96-.957v-3.56a.962.962 0 0 0-.96-.96h-.248v.003h-2.31a.959.959 0 0 1 .928.956z" fill="#E5384F"/><path d="M42.56 8.586H35.38a10.972 10.972 0 0 1 1.747 2.967h4.179a.37.37 0 0 1 .367.366v6.805a.368.368 0 0 1-.367.366h-4.017c-.266.78-.62 1.526-1.056 2.225v.744h6.286a2.128 2.128 0 0 0 2.122-2.121v-9.23c0-1.154-.932-2.1-2.08-2.122z" fill="#2B4D66"/><path d="M41.305 11.553h-4.179c.458 1.172.722 2.441.748 3.77h3.798v-3.404a.37.37 0 0 0-.367-.366zM41.673 15.323h-3.798a10.866 10.866 0 0 1-.587 3.767h4.017a.368.368 0 0 0 .368-.366v-3.401z" fill="#BEB9DD"/></g></svg>