<svg width="48" height="48" fill="none" xmlns="http://www.w3.org/2000/svg"><g clip-path="url(#clip0_1044_6144)" fill-rule="evenodd" clip-rule="evenodd"><path d="M34.426 13.89v20.215c0 1.832-4.665 3.316-10.418 3.316-5.754 0-10.418-1.484-10.418-3.316V13.89c0-1.832 4.664-3.316 10.418-3.316s10.418 1.484 10.418 3.316z" fill="#FDCD56"/><path d="M34.426 34.105c0 1.832-4.665 3.316-10.418 3.316-5.754 0-10.418-1.484-10.418-3.316v-7.521c0 1.831 4.664 3.316 10.418 3.316 5.753 0 10.418-1.485 10.418-3.316v7.521z" fill="#DAA33B"/><path d="M34.426 27.367c0 1.831-4.665 3.316-10.418 3.316-5.754 0-10.418-1.485-10.418-3.316v-7.522c0 1.832 4.664 3.316 10.418 3.316 5.753 0 10.418-1.484 10.418-3.316v7.522z" fill="#F5B945"/><path d="M34.426 20.628c0 1.831-4.665 3.316-10.418 3.316-5.754 0-10.418-1.485-10.418-3.316V13.89c0 1.832 4.664 3.316 10.418 3.316 5.753 0 10.418-1.484 10.418-3.315v6.738z" fill="#FAC44F"/><path d="M10.45 33.313c-2.18 1.067-4.378 2.093-6.571 3.131l3.094 7.416 4.552-2.218a2.738 2.738 0 0 1 2.034-.174l4.829 1.398c1.53.443 3.424-.371 4.848-.921l9.058-3.498c2.386-.922 2.96-5.709-2.673-4.055l-6.463 1.897a2.059 2.059 0 0 0-1.45-1.444l-4.378-1.17c-2.985-2.112-4.503-1.527-6.88-.362z" fill="#EFC7A4"/><path d="M23.162 37.36l-9.788-2.615a2.06 2.06 0 0 0 1.455 2.515l5.818 1.555a2.06 2.06 0 0 0 2.515-1.455z" fill="#D5A889"/><path d="M9.253 45.416L6.97 46.417a.984.984 0 0 1-1.294-.504l-4.082-9.281a.949.949 0 0 1-.016-.752.949.949 0 0 1 .52-.543l2.283-1.002a.984.984 0 0 1 1.294.504l4.082 9.281c.11.248.115.5.017.753a.949.949 0 0 1-.521.543z" fill="#E4E8EB"/><path d="M37.544 14.687c2.179-1.067 4.378-2.092 6.57-3.131L41.02 4.14 36.47 6.357c-.659.32-1.33.378-2.034.174l-4.829-1.398c-1.53-.443-3.425.371-4.848.921L15.7 9.554c-2.386.92-2.96 5.708 2.673 4.054l6.463-1.897c.188.68.722 1.25 1.45 1.444l4.378 1.17c2.984 2.112 4.503 1.527 6.88.362z" fill="#EFC7A4"/><path d="M24.832 10.64l9.788 2.615a2.06 2.06 0 0 0-1.454-2.515l-5.819-1.555a2.06 2.06 0 0 0-2.515 1.455z" fill="#D5A889"/><path d="M38.743 2.584l2.282-1a.984.984 0 0 1 1.294.503l4.083 9.281c.11.248.114.5.016.752a.95.95 0 0 1-.52.544l-2.283 1a.984.984 0 0 1-1.294-.503c-1.36-3.094-2.722-6.188-4.083-9.281a.949.949 0 0 1-.016-.753.948.948 0 0 1 .52-.543z" fill="#E4E8EB"/><path d="M41.305 26.992c-1.33 0-1.997 1.61-1.057 2.551a.444.444 0 0 1 0 .628l-.955.955a.443.443 0 0 1-.627 0c-.94-.94-2.551-.274-2.551 1.056a.444.444 0 0 1-.444.444h-1.35a.443.443 0 0 1-.444-.444c0-1.331-1.61-1.998-2.552-1.056a.444.444 0 0 1-.627 0l-.955-.956a.444.444 0 0 1 0-.627c.94-.94.273-2.551-1.057-2.551a.444.444 0 0 1-.444-.444v-1.35a.444.444 0 0 1 .444-.444c1.33 0 1.997-1.612 1.057-2.552a.444.444 0 0 1 0-.627l.955-.955a.444.444 0 0 1 .627 0c.94.94 2.552.273 2.552-1.057a.443.443 0 0 1 .443-.444h1.35a.444.444 0 0 1 .444.444c0 1.33 1.612 1.997 2.552 1.057a.444.444 0 0 1 .627 0l.955.955a.444.444 0 0 1 0 .627c-.94.94-.273 2.552 1.057 2.552a.444.444 0 0 1 .444.443v1.351a.444.444 0 0 1-.444.444zm-6.31-4.42a3.3 3.3 0 1 0 0 6.601 3.3 3.3 0 0 0 0-6.6z" fill="#636C77"/><path d="M32.343 25.875a2.647 2.647 0 0 0 2.643 2.644 2.647 2.647 0 0 0 2.644-2.644 2.646 2.646 0 0 0-2.644-2.643 2.647 2.647 0 0 0-2.643 2.643zm2.643-3.956a3.96 3.96 0 0 1 3.957 3.956 3.96 3.96 0 0 1-3.956 3.956 3.96 3.96 0 0 1-3.957-3.956 3.96 3.96 0 0 1 3.956-3.956zm10.827-10.26l-4.094-9.307a.332.332 0 0 0-.434-.169l-2.288 1.005a.325.325 0 0 0-.17.434l4.097 9.305c.07.166.264.242.432.17l2.29-1.005a.325.325 0 0 0 .171-.181.332.332 0 0 0-.004-.252zm-4.657.516c-1.357.64-2.692 1.275-4.018 1.924-2.29 1.123-3.51 1.579-6.173-.307a.648.648 0 0 0-.21-.098l-4.353-1.163a1.389 1.389 0 0 1-.983-1.698c.096-.355.326-.653.647-.84a1.376 1.376 0 0 1 1.051-.142l5.787 1.547a.656.656 0 0 0 .338-1.268l-5.786-1.546a2.68 2.68 0 0 0-2.047.272 2.682 2.682 0 0 0-1.348 2.4l-5.883 1.73c-1.88.554-3.177.376-3.466-.475-.248-.732.27-1.944 1.229-2.314l9.008-3.48.294-.114c1.293-.505 2.904-1.133 4.108-.784l4.802 1.39a3.381 3.381 0 0 0 2.492-.213l1.84-.897 2.671 6.076zm-5.697 7.604a2.112 2.112 0 0 0 1.318 1.772 2.114 2.114 0 0 0 2.187-.321l.668.668a2.112 2.112 0 0 0-.322 2.187c.313.752.98 1.243 1.774 1.317v.946a2.113 2.113 0 0 0-1.774 1.318 2.111 2.111 0 0 0 .322 2.186l-.668.668a2.113 2.113 0 0 0-2.187-.321 2.114 2.114 0 0 0-1.318 1.774h-.945a2.11 2.11 0 0 0-1.318-1.775 2.111 2.111 0 0 0-2.186.322l-.669-.668a2.111 2.111 0 0 0 .322-2.186 2.112 2.112 0 0 0-1.773-1.318v-.946a2.112 2.112 0 0 0 1.773-1.317 2.112 2.112 0 0 0-.322-2.187l.668-.668a2.113 2.113 0 0 0 2.187.321 2.11 2.11 0 0 0 1.318-1.772h.945zm-2.173 15.71c-.289-.85-1.585-1.028-3.466-.475l-5.883 1.73a2.682 2.682 0 0 1-1.348 2.399 2.68 2.68 0 0 1-2.046.273l-5.787-1.545a.655.655 0 1 1 .339-1.268l5.786 1.546c.355.094.73.045 1.05-.142.322-.187.552-.484.648-.84a1.39 1.39 0 0 0-.982-1.698l-4.354-1.163a.652.652 0 0 1-.21-.099c-2.663-1.885-3.882-1.43-6.173-.306-1.326.649-2.66 1.283-4.018 1.925L9.514 41.9l1.84-.896c.799-.39 1.637-.462 2.491-.214l4.802 1.39c1.204.349 2.815-.28 4.107-.783l.296-.116 9.007-3.477c.96-.371 1.477-1.584 1.229-2.316zM9.17 44.379a.332.332 0 0 1 .007.253.33.33 0 0 1-.177.18l-2.289 1.005a.329.329 0 0 1-.432-.17l-4.094-9.306a.328.328 0 0 1 .063-.36.327.327 0 0 1 .106-.073l2.288-1.004a.335.335 0 0 1 .312.026.329.329 0 0 1 .122.143l4.094 9.306zm24.59-11.244a1.1 1.1 0 0 1-.55-.95.825.825 0 0 0-.517-.775.825.825 0 0 0-.914.182 1.1 1.1 0 0 1-1.555 0l-.736-.736c-1.658.318-3.548.485-5.49.485-3.878 0-7.79-.677-9.761-1.99v2.278c1.011.078 2.107.5 3.457 1.44l4.24 1.132c.728.195 1.306.67 1.652 1.279l5.863-1.725c2.325-.684 3.61-.302 4.31.246v-.866zM14.237 27.37c0 .413.679 1.11 2.594 1.72 1.905.606 4.45.94 7.167.94 1.758 0 3.465-.142 4.977-.413.046-.203.147-.388.294-.535a.822.822 0 0 0 .18-.913.823.823 0 0 0-.773-.517c-.606 0-1.1-.494-1.1-1.1V25.2c0-.338.153-.64.392-.84-1.252.16-2.592.243-3.97.243-3.878 0-7.79-.678-9.761-1.99v4.756zm0-6.738v-4.757c1.971 1.312 5.883 1.99 9.76 1.99 3.696 0 7.054-.594 9.071-1.598.237.053.467.088.691.105v2.244a1.1 1.1 0 0 0-.548.95.822.822 0 0 1-.519.774.823.823 0 0 1-.913-.18 1.097 1.097 0 0 0-1.555 0l-.955.955a1.093 1.093 0 0 0-.322.777c0 .294.114.57.322.778.044.044.08.088.11.133-1.608.32-3.452.489-5.381.489-2.717 0-5.262-.334-7.167-.94-1.915-.61-2.594-1.308-2.594-1.72zm.017-6.619c.117.42.837 1.046 2.577 1.6 1.905.606 4.45.94 7.167.94 2.8 0 5.446-.366 7.315-.988a11.416 11.416 0 0 1-1.01-.632l-4.241-1.133a2.695 2.695 0 0 1-1.652-1.279l-5.863 1.725c-2.306.678-3.587.308-4.293-.233zm32.789-1.625c-.159.408-.468.73-.874.907l-2.29 1.004a1.642 1.642 0 0 1-2.162-.842l-.034-.08c-1.342.634-2.66 1.262-3.968 1.903-.95.464-1.794.839-2.643 1.008v2.179h.59a1.1 1.1 0 0 1 1.1 1.1c0 .518.396.723.517.773.122.05.546.186.913-.18a1.099 1.099 0 0 1 1.556 0l.954.955a1.087 1.087 0 0 1 .323.777 1.095 1.095 0 0 1-.323.778.82.82 0 0 0-.18.913.82.82 0 0 0 .774.518c.608 0 1.102.493 1.102 1.1v1.35c0 .607-.494 1.1-1.102 1.1a.821.821 0 0 0-.774.518.822.822 0 0 0 .18.913 1.092 1.092 0 0 1 .24 1.2 1.087 1.087 0 0 1-.24.355l-.954.956a1.095 1.095 0 0 1-.778.322c-.293 0-.57-.114-.778-.322a.821.821 0 0 0-.913-.18.82.82 0 0 0-.518.773c0 .606-.493 1.1-1.1 1.1h-.59v.823c0 .434-.157.849-.467 1.234.306 1.427-.623 3.126-2.076 3.687l-9.007 3.478-.29.113c-1.143.446-2.5.974-3.81.974-.387 0-.768-.045-1.14-.153l-4.803-1.39a2.077 2.077 0 0 0-1.551.134l-1.886.917.33.749a1.634 1.634 0 0 1-.843 2.163L7.24 47.018a1.644 1.644 0 0 1-2.162-.843L.985 36.87a1.628 1.628 0 0 1-.029-1.257c.159-.408.468-.73.872-.907l2.289-1.004a1.642 1.642 0 0 1 2.161.843l.035.079a312.935 312.935 0 0 0 3.97-1.902c.95-.465 1.793-.84 2.642-1.01v-17.82c0-.434.158-.849.469-1.234-.306-1.426.621-3.125 2.074-3.687l9.008-3.478.29-.113c1.478-.577 3.316-1.294 4.95-.82l4.803 1.39c.539.155 1.047.112 1.551-.135l1.885-.917-.329-.749a1.632 1.632 0 0 1 .843-2.164l2.29-1.004a1.642 1.642 0 0 1 2.16.843l4.094 9.306c.176.403.19.85.03 1.257zM16.72 20.32c.696.206 1.47.381 2.3.52a.657.657 0 0 0 .218-1.293c-.779-.131-1.5-.295-2.146-.486a.655.655 0 1 0-.372 1.26zm-.442 5.924a.653.653 0 0 1 .814-.444c.646.19 1.367.354 2.146.485a.657.657 0 0 1-.219 1.294c-.83-.14-1.603-.315-2.299-.52a.655.655 0 0 1-.442-.815z" fill="#000"/></g><defs><clipPath id="clip0_1044_6144"><path fill="#fff" d="M0 0h48v48H0z"/></clipPath></defs></svg>