<svg width="56" height="56" fill="none" xmlns="http://www.w3.org/2000/svg"><g clip-path="url(#clip0_971_4156)"><path d="M41.906 55.18H3.066A2.187 2.187 0 0 1 .88 52.992V3.008C.879 1.8 1.859.82 3.066.82h29.561l9.279 9.279v45.08z" fill="#F9F7F8"/><path d="M32.629.82v7.091c0 1.209.98 2.188 2.187 2.188h7.091L32.63.82z" fill="#C2BCE0"/><path d="M7.98 10.773h4.499v12.472H7.98V10.773z" fill="#00D8C0"/><path d="M15.422 13.945h4.498v9.3h-4.498v-9.3z" fill="#FE93D3"/><path d="M22.863 7.62h4.499v15.625h-4.499V7.62z" fill="#9BE69D"/><path d="M30.305 16.807h4.498v6.438h-4.498v-6.438z" fill="#FFE589"/><path d="M7.98 32.421h13.413v4.11H7.98v-4.11z" fill="#FFCD55"/><path d="M21.402 32.421h13.413v4.11H21.402v-4.11z" fill="#ACA6D6"/><path d="M46.538 42.935c4.717 0 8.542-3.83 8.542-8.554 0-4.725-3.825-8.555-8.542-8.555-4.718 0-8.542 3.83-8.542 8.555 0 4.724 3.824 8.554 8.542 8.554z" fill="#FFCD55"/><path d="M46.54 25.826c-.757 0-1.49.1-2.188.284a8.555 8.555 0 0 1 6.354 8.27 8.555 8.555 0 0 1-6.354 8.271 8.542 8.542 0 0 0 10.729-8.27c0-4.725-3.825-8.555-8.542-8.555z" fill="#FFBE46"/><path d="M46.54 39.405c-2.763 0-5.011-2.254-5.011-5.025 0-2.77 2.248-5.024 5.011-5.024 2.764 0 5.012 2.254 5.012 5.024s-2.248 5.025-5.012 5.025zm7.158 7.64H39.383a1.422 1.422 0 0 1-1.422-1.422V44.4c0-.785.636-1.422 1.422-1.422h14.314c.786 0 1.422.636 1.422 1.422v1.223c0 .786-.636 1.422-1.421 1.422z" fill="#FFE589"/><path d="M53.698 51.112H39.383a1.422 1.422 0 0 1-1.422-1.421v-1.224c0-.785.636-1.422 1.422-1.422h14.314c.786 0 1.422.637 1.422 1.422v1.224c0 .785-.636 1.421-1.421 1.421z" fill="#FFCD55"/><path d="M53.695 47.045H49.32c.786 0 1.422.637 1.422 1.422v1.224c0 .785-.636 1.421-1.422 1.421h4.375c.786 0 1.422-.636 1.422-1.421v-1.224c0-.785-.636-1.422-1.422-1.422z" fill="#FFBE46"/><path d="M53.698 55.18H39.383a1.422 1.422 0 0 1-1.422-1.422v-1.224c0-.785.636-1.422 1.422-1.422h14.314c.786 0 1.422.637 1.422 1.422v1.224c0 .785-.636 1.422-1.421 1.422z" fill="#FFE589"/><path d="M53.695 42.978H49.32c.786 0 1.422.636 1.422 1.422v1.223c0 .786-.636 1.422-1.422 1.422h4.375c.786 0 1.422-.636 1.422-1.422V44.4c0-.785-.636-1.422-1.422-1.422zm0 8.134H49.32c.786 0 1.422.637 1.422 1.422v1.224c0 .785-.636 1.422-1.422 1.422h4.375c.786 0 1.422-.637 1.422-1.422v-1.224c0-.785-.636-1.422-1.422-1.422z" fill="#FFD86D"/><path d="M.879 7.62V3.008C.879 1.8 1.859.82 3.066.82h29.561l9.279 9.279v17.093M39.38 55.18H3.066A2.187 2.187 0 0 1 .88 52.992V11.211" stroke="#000" stroke-width="1.641" stroke-miterlimit="10" stroke-linecap="round" stroke-linejoin="round"/><path d="M5.813 26.753h31.162m-15.582 9.778v-4.11H7.981v4.11h13.412zm0 0v13.466M9.678 40.642h7.203m-7.203 4.11h7.203m-7.203 4.11h7.203m9.027-8.22h7.203m-7.203 4.11h7.203m-7.203 4.11h7.203M32.628.82v7.091c0 1.209.98 2.188 2.188 2.188h7.09L32.629.82zM7.981 10.773h4.498v12.472H7.981V10.773zm7.442 3.172h4.499v9.3h-4.499v-9.3zm7.442-6.325h4.499v15.625h-4.499V7.62zm7.443 9.187h4.498v6.438h-4.498v-6.438zm-8.905 15.614h13.412v4.11H21.403v-4.11zm25.137-6.595c-4.718 0-8.542 3.83-8.542 8.554 0 4.725 3.824 8.555 8.542 8.555 4.717 0 8.541-3.83 8.541-8.555 0-4.724-3.824-8.554-8.541-8.554z" stroke="#000" stroke-width="1.641" stroke-miterlimit="10" stroke-linecap="round" stroke-linejoin="round"/><path d="M51.072 36.524c.316-.67.48-1.403.48-2.144 0-2.77-2.248-5.024-5.012-5.024-2.763 0-5.011 2.254-5.011 5.024s2.248 5.025 5.011 5.025c.79 0 1.567-.187 2.27-.547m-9.427 8.187h14.315c.785 0 1.422-.636 1.421-1.422V44.4c0-.785-.636-1.422-1.422-1.422H39.383c-.786 0-1.422.636-1.422 1.422v1.223c0 .786.636 1.422 1.422 1.422zm0 0c-.786 0-1.422.637-1.422 1.422v1.224c0 .785.636 1.421 1.422 1.421m0-4.067h14.314c.786 0 1.422.637 1.422 1.422v1.224c0 .785-.636 1.421-1.421 1.421H39.383m0 0c-.786 0-1.422.637-1.422 1.422v1.224c0 .785.636 1.422 1.422 1.422h14.315c.785 0 1.422-.637 1.421-1.422v-1.224c0-.785-.636-1.422-1.422-1.422H39.383z" stroke="#000" stroke-width="1.641" stroke-miterlimit="10" stroke-linecap="round" stroke-linejoin="round"/></g><defs><clipPath id="clip0_971_4156"><path fill="#fff" d="M0 0h56v56H0z"/></clipPath></defs></svg>