<svg width="48" height="48" fill="none" xmlns="http://www.w3.org/2000/svg"><path d="M33 6.75v27a4.425 4.425 0 0 1-.75 2.483 4.487 4.487 0 0 1-3.75 2.017h-15a4.496 4.496 0 0 1-4.5-4.5v-27a4.5 4.5 0 0 1 4.5-4.5h15a4.5 4.5 0 0 1 4.5 4.5z" fill="#5AAAE7"/><path d="M18.675 32.032c0 .395-.103.783-.3 1.126l-2.94 5.092H13.95l-.45-.75 3.375-5.843a2.259 2.259 0 0 0 .203-1.777c.166.046.325.114.472.203a2.236 2.236 0 0 1 1.125 1.95zM32.25 28.5v7.733a4.488 4.488 0 0 1-3.75 2.017h-.75V28.5a2.25 2.25 0 0 1 4.5 0z" fill="#3D9AE2"/><path d="M18.615 32.542a2.138 2.138 0 0 1-.24.615l-.375.646v-.053a1.467 1.467 0 0 1 .442-1.057 1.65 1.65 0 0 1 .173-.15z" fill="#D8D7DA"/><path d="M17.175 30.532a2.25 2.25 0 0 0-4.2-1.125l-3.577 6.195A4.485 4.485 0 0 1 9 33.75V21.765a1.5 1.5 0 0 0-1.155.855L4.44 30.007a7.431 7.431 0 0 0-.69 3.135V46.5l12-.008v-4.005a4.518 4.518 0 0 0-.645-2.317l-1.155-1.92-.45-.75 3.375-5.843c.197-.342.3-.73.3-1.125z" fill="#FFC477"/><path d="M22.5 32.25a1.504 1.504 0 0 1 1.5 1.5 1.511 1.511 0 0 1-1.5 1.5h-3a1.504 1.504 0 0 1-1.5-1.5 1.511 1.511 0 0 1 1.5-1.5h3z" fill="#E6E7E8"/><path d="M39.748 37.5a2.25 2.25 0 0 1 4.5 0v9H24.081l-3.233-5.595a2.25 2.25 0 0 1 1.95-3.375 2.236 2.236 0 0 1 1.95 1.125l1.5 2.595V27a2.25 2.25 0 0 1 4.5 0v9a2.25 2.25 0 0 1 4.5 0v.75a2.25 2.25 0 0 1 4.5 0v.75z" fill="#FFC477"/><path d="M22.5 26.25a6.75 6.75 0 1 0 0-13.5 6.75 6.75 0 0 0 0 13.5z" fill="#3D9AE2"/><path d="M21 24.75a6.75 6.75 0 1 0 0-13.5 6.75 6.75 0 0 0 0 13.5z" fill="#FFD422"/><path d="M14.999 4.5h1.5V6h-1.5V4.5zm3 0h6V6h-6V4.5zm4.5 27h-3a2.25 2.25 0 0 0 0 4.5h3a2.25 2.25 0 0 0 0-4.5zm0 3h-3a.75.75 0 1 1 0-1.5h3a.75.75 0 1 1 0 1.5zM2.999 21h1.5v-8.69l.97.97 1.06-1.06-2.25-2.25a.75.75 0 0 0-1.06 0l-2.25 2.25 1.06 1.06.97-.97V21zm34.5-8.69V21h1.5v-8.69l.97.97 1.06-1.06-2.25-2.25a.75.75 0 0 0-1.06 0l-2.25 2.25 1.06 1.06.97-.97z" fill="#000"/><path d="M42 34.5a2.955 2.955 0 0 0-1.928.705A3.01 3.01 0 0 0 37.5 33.75a2.955 2.955 0 0 0-1.928.705 2.99 2.99 0 0 0-1.822-1.358V6.75A5.256 5.256 0 0 0 28.5 1.5h-15a5.256 5.256 0 0 0-5.25 5.25v13.725a2.27 2.27 0 0 0-1.088 1.08l-3.405 7.387A8.314 8.314 0 0 0 3 32.392V46.5h1.5V32.392a6.779 6.779 0 0 1 .622-2.82l3.128-6.787V33.75c.001.612.11 1.219.322 1.792l-.742 1.283 1.297.75 4.5-7.793a1.5 1.5 0 0 1 .908-.704 1.545 1.545 0 0 1 1.14.15 1.507 1.507 0 0 1 .547 2.054l-3.375 5.843a.774.774 0 0 0 .008.765l1.605 2.67a3.74 3.74 0 0 1 .54 1.927v4.005h1.5v-4.005a5.27 5.27 0 0 0-.75-2.7L15.277 39h4.628c-.204.77-.096 1.59.3 2.28l3.233 5.595 1.297-.75-3.232-5.595a1.5 1.5 0 0 1 1.687-2.205 1.456 1.456 0 0 1 .907.705l1.5 2.595a.766.766 0 0 0 .848.352.75.75 0 0 0 .555-.727V27a1.5 1.5 0 1 1 3 0v12a.75.75 0 1 0 1.5 0v-3a1.5 1.5 0 1 1 3 0v3a.75.75 0 1 0 1.5 0v-2.25a1.5 1.5 0 1 1 3 0V39a.75.75 0 1 0 1.5 0v-1.5a1.5 1.5 0 1 1 3 0v9H45v-9a3 3 0 0 0-3-3zm-9.75-1.403a2.98 2.98 0 0 0-.75.308V27a3 3 0 0 0-6 0v10.5h-.758a3.063 3.063 0 0 0-1.162-.623 3.028 3.028 0 0 0-2.28.3 3.186 3.186 0 0 0-.442.323h-6.48l-.008-.008 3.158-5.46a3 3 0 1 0-5.198-3l-2.58 4.463V6.75A3.75 3.75 0 0 1 13.5 3h15a3.75 3.75 0 0 1 3.75 3.75v26.347z" fill="#000"/><path d="M20.25 15.75h1.5a.75.75 0 0 1 .75.75H24a2.25 2.25 0 0 0-2.25-2.25v-.75h-1.5v.75a2.25 2.25 0 0 0 0 4.5h1.5a.75.75 0 1 1 0 1.5h-1.5a.75.75 0 0 1-.75-.75H18a2.25 2.25 0 0 0 2.25 2.25v.75h1.5v-.75a2.25 2.25 0 0 0 0-4.5h-1.5a.75.75 0 1 1 0-1.5z" fill="#000"/><path d="M21 10.5a7.5 7.5 0 1 0 7.5 7.5 7.509 7.509 0 0 0-7.5-7.5zM21 24a6 6 0 1 1 6-6 6.007 6.007 0 0 1-6 6zm16.5-1.5H39V24h-1.5v-1.5zm0 3H39V27h-1.5v-1.5zM3 22.5h1.5V24H3v-1.5z" fill="#000"/></svg>