<svg width="56" height="56" fill="none" xmlns="http://www.w3.org/2000/svg"><g clip-path="url(#clip0_971_4203)"><path d="M52.792.854H38.995a2.386 2.386 0 0 0-2.386 2.386v6.9a2.385 2.385 0 0 0 2.386 2.386c.77 0 1.393.624 1.393 1.393v4.267c0 .542.714.74.992.275l3.154-5.258a1.394 1.394 0 0 1 1.194-.677h7.064a2.385 2.385 0 0 0 2.385-2.386v-6.9A2.385 2.385 0 0 0 52.792.854z" fill="#B3E59F"/><path d="M52.793.854h-7.146a2.386 2.386 0 0 1 2.386 2.386v6.9a2.386 2.386 0 0 1-2.386 2.386h-6.65c.769 0 1.392.624 1.392 1.393v4.267c0 .542.714.74.992.275l3.154-5.259a1.394 1.394 0 0 1 1.195-.676h7.063a2.386 2.386 0 0 0 2.386-2.386v-6.9A2.386 2.386 0 0 0 52.792.854z" fill="#95D6A4"/><path d="M28.456 34.233a2.389 2.389 0 0 1-1.937-2.346v-6.561h-9.132v6.56c0 1.17-.845 2.137-1.938 2.346 0 0 13.625.12 13.007 0z" fill="#FFDDCE"/><path d="M30.99 34.72c-.65-.125-18.072 0-18.072 0A14.108 14.108 0 0 0 1.477 48.574v4.652a1.91 1.91 0 0 0 1.91 1.91H40.52a1.91 1.91 0 0 0 1.911-1.91v-4.652c0-6.764-4.8-12.576-11.442-13.854z" fill="#FFD064"/><path d="M38.614 52.922H5.294L4.41 36.64a2.518 2.518 0 0 1 2.514-2.655h30.06a2.518 2.518 0 0 1 2.514 2.655l-.884 16.282z" fill="#EAF2FF"/><path d="M36.982 33.985h-7.146a2.518 2.518 0 0 1 2.514 2.655l-.884 16.282h7.146l.884-16.282a2.518 2.518 0 0 0-2.514-2.655z" fill="#DBE8F9"/><path d="M41.324 51.618H2.584a1.764 1.764 0 1 0 0 3.528h38.74a1.764 1.764 0 1 0 0-3.528z" fill="#9BC4F9"/><path d="M41.326 51.618h-5.433v1.764c0 .974-.79 1.764-1.764 1.764h7.197a1.764 1.764 0 0 0 0-3.528zm-17.169 0c0-1.446.542-2.836 1.509-3.91l.022-.024a5.001 5.001 0 0 0-1.263-7.686.43.43 0 0 0-.645.373v3.722a1.13 1.13 0 0 1-1.13 1.13h-1.388a1.13 1.13 0 0 1-1.13-1.13V40.37a.43.43 0 0 0-.644-.373 5.001 5.001 0 0 0-1.263 7.686l.022.024a5.845 5.845 0 0 1 1.508 3.91h4.402z" fill="#7FB2F9"/><path d="M31.504 16.648l-.61.002-.01-2.459c-.022-5.152-4.274-8.721-8.988-8.755-4.693.074-8.935 3.66-8.914 8.832L12.99 16l.003.726-.61.003a1.63 1.63 0 0 0-1.613 1.646l.007 1.817a1.63 1.63 0 0 0 1.627 1.633l.612-.003c.06 2.38 1.058 4.666 2.85 6.214 1.442 1.246 3.466 2.33 6.134 2.35 2.668-.042 4.683-1.144 6.115-2.402 1.778-1.564 2.757-3.858 2.797-6.238l.613-.003a1.63 1.63 0 0 0 1.613-1.646l-.008-1.817a1.63 1.63 0 0 0-1.626-1.633z" fill="#FFDDCE"/><path d="M33.13 18.28a1.63 1.63 0 0 0-1.627-1.632l-.61.002-.01-2.459c-.017-4.108-2.725-7.207-6.21-8.313a8.596 8.596 0 0 1 1.186 4.376l.029 11.493c-.04 2.38-1.019 4.674-2.797 6.237-.95.835-2.158 1.601-3.642 2.034a9.3 9.3 0 0 0 2.55.368c2.669-.041 4.684-1.143 6.116-2.401 1.778-1.564 2.756-3.858 2.797-6.238l.613-.003a1.63 1.63 0 0 0 1.613-1.646l-.008-1.817z" fill="#FFCBBE"/><path d="M30.907 15.167v6.763h1.796a1.823 1.823 0 0 0 1.824-1.824V16.99a1.823 1.823 0 0 0-1.824-1.823h-1.796zm-17.905 0v6.763h-1.796a1.823 1.823 0 0 1-1.823-1.824V16.99c0-1.007.816-1.823 1.823-1.823h1.796z" fill="#9BC4F9"/><path d="M30.306 7.583h-.092a.922.922 0 0 1-.921-.922 2.73 2.73 0 0 0-2.73-2.73h-8.688a7 7 0 0 0-7 7v4.627a1.598 1.598 0 0 0 1.072 1.508l1.724.6a.926.926 0 0 0 1.231-.876l-.003-3.262c-.007-1.587 1.258-2.878 2.825-2.885h.035c.477-.002.952.071 1.407.218.803.258 1.635.414 2.479.41h.621c.844.004 1.676-.152 2.479-.41.454-.147.93-.22 1.407-.218h.034c1.568.007 2.833 1.298 2.826 2.885l-.003 3.262a.927.927 0 0 0 1.231.876l1.724-.6a1.597 1.597 0 0 0 1.072-1.508v-5.246a2.73 2.73 0 0 0-2.73-2.73z" fill="#756E78"/><path d="M30.306 7.583h-.092a.922.922 0 0 1-.922-.922 2.73 2.73 0 0 0-2.73-2.73h-3.464c1.67 1.542 2.751 3.732 2.762 6.323l.001.398c.097-.006.194-.01.29-.01l.035.001c1.567.007 2.832 1.298 2.826 2.885l-.004 3.262a.926.926 0 0 0 1.232.876l1.723-.6a1.597 1.597 0 0 0 1.072-1.508v-5.246a2.73 2.73 0 0 0-2.73-2.73z" fill="#665E66"/><path d="M28.145 26.915h-2.059a1.422 1.422 0 1 1 0-2.845h2.059a1.422 1.422 0 0 1 0 2.845z" fill="#DB636E"/><path d="M51.507 4.074h-7.158a.82.82 0 1 0 0 1.641h7.158a.82.82 0 0 0 0-1.64zM40.285 5.715h.872a.82.82 0 1 0 0-1.64h-.872a.82.82 0 0 0 0 1.64zm0 3.854h11.222a.82.82 0 0 0 0-1.641H40.285a.82.82 0 0 0 0 1.64zm2.967 39.004c0-3.276-1.094-6.491-3.087-9.088l.152-2.8a3.336 3.336 0 0 0-3.334-3.52h-8.979a1.565 1.565 0 0 1-.664-1.278v-2.29c1.393-.901 2.37-1.928 3.088-3.15h1.588a3.334 3.334 0 0 0 3.33-3.33V16.99a2.642 2.642 0 0 0-1.491-2.378v-4.3a3.554 3.554 0 0 0-3.55-3.55h-.092a.102.102 0 0 1-.102-.101 3.554 3.554 0 0 0-3.55-3.55h-8.687c-4.312 0-7.82 3.508-7.82 7.82v3.68a2.643 2.643 0 0 0-1.493 2.38v3.115a2.647 2.647 0 0 0 2.644 2.643h1.06c.273 2.319 1.36 4.436 3.064 5.908.391.338.805.649 1.238.93v2.3c0 .51-.251.984-.666 1.278H6.924a3.336 3.336 0 0 0-3.333 3.519l.152 2.8a14.982 14.982 0 0 0-3.087 9.09v3.09A2.573 2.573 0 0 0 0 53.381a2.587 2.587 0 0 0 2.584 2.584h38.74a2.587 2.587 0 0 0 2.584-2.584c0-.66-.249-1.262-.656-1.719v-3.09zm-1.641 0v2.24a2.602 2.602 0 0 0-.287-.016H39.55l.463-8.53a13.33 13.33 0 0 1 1.597 6.306zm-7.99-31.983a.999.999 0 0 1 .085.4v3.116c0 .553-.45 1.003-1.003 1.003h-.976v-3.092l.506-.176a2.417 2.417 0 0 0 1.388-1.251zm-5.476 9.504h-2.059a.602.602 0 0 1 0-1.203h2.059a.602.602 0 0 1 0 1.203zm3.87-1.287h-.828a9.654 9.654 0 0 0 .474-2.057h1.042c.355 0 .693-.071 1.003-.198v.565c0 .932-.758 1.69-1.69 1.69zM11.695 10.932a6.187 6.187 0 0 1 6.18-6.18h8.688c1.052 0 1.909.856 1.909 1.909 0 .96.782 1.742 1.742 1.742h.092c1.053 0 1.91.856 1.91 1.91v5.245a.777.777 0 0 1-.522.733l-1.724.6a.107.107 0 0 1-.097-.013.106.106 0 0 1-.044-.087l.003-3.26c.01-2.379-2.218-4.454-5.339-3.451-1.57.504-3.512.503-5.076 0-3.09-.993-5.35 1.045-5.34 3.449l.005 3.262a.106.106 0 0 1-.142.1l-1.724-.6a.777.777 0 0 1-.521-.733v-4.626zm-1.492 9.174V16.99c0-.138.03-.274.085-.4a2.417 2.417 0 0 0 1.389 1.25l.505.177v3.092h-.975c-.554 0-1.004-.45-1.004-1.003zm3.635 1.696c-.027-1.078-.01-2.223-.015-3.27a1.747 1.747 0 0 0 1.9-1.742l-.005-3.266c-.005-1.332 1.19-2.527 3.197-1.882 1.902.611 4.184.61 6.08 0 1.913-.614 3.202.467 3.197 1.885l-.004 3.262a1.746 1.746 0 0 0 1.9 1.742v3.338a8.092 8.092 0 0 1-.34 2.058 2.234 2.234 0 0 0-1.602-.677h-2.059a2.245 2.245 0 0 0-2.242 2.242 2.245 2.245 0 0 0 2.242 2.243h1.042c-1.515 1.182-3.238 1.8-5.131 1.83-4.141-.033-8.042-3.092-8.16-7.763zm4.371 10.085V30.45a9.999 9.999 0 0 0 3.787.755H22.013c1.3-.02 2.532-.272 3.687-.748v1.429c0 .448.094.881.266 1.278h-8.025c.176-.403.267-.838.267-1.278zM3.894 42.267l.13 2.387a.82.82 0 1 0 1.638-.089l-.433-7.97a1.697 1.697 0 0 1 1.695-1.79h30.06c.971 0 1.748.813 1.695 1.79l-.77 14.203H25.044a5.038 5.038 0 0 1 1.228-2.54l.024-.027c2.483-2.778 1.74-7.122-1.47-8.946-.823-.468-1.87.116-1.87 1.086v3.722a.31.31 0 0 1-.309.31H21.26a.31.31 0 0 1-.31-.31v-3.722c0-.968-1.044-1.555-1.87-1.086-3.218 1.829-3.946 6.175-1.466 8.949l.02.023a5.038 5.038 0 0 1 1.23 2.54H6l-.132-2.425a.82.82 0 1 0-1.638.09l.127 2.335H2.584c-.097 0-.193.006-.287.017v-2.24c0-2.206.559-4.378 1.597-6.307zm16.627 8.53a6.67 6.67 0 0 0-1.667-3.637l-.02-.023a4.184 4.184 0 0 1 .476-6.026v2.982c0 1.075.875 1.95 1.95 1.95h1.388c1.076 0 1.95-.875 1.95-1.95V41.11a4.184 4.184 0 0 1 .474 6.03l-.018.02a6.67 6.67 0 0 0-1.667 3.638h-2.866zm20.803 3.528H2.584a.945.945 0 0 1 0-1.887h38.74a.945.945 0 0 1 0 1.887z" fill="#000"/><path d="M55.177 5.648a.82.82 0 0 0 .82-.82V3.24A3.21 3.21 0 0 0 52.793.034H38.995A3.21 3.21 0 0 0 35.79 3.24v6.9a3.21 3.21 0 0 0 3.206 3.206.574.574 0 0 1 .573.573v4.268c0 .616.399 1.14.993 1.305a1.341 1.341 0 0 0 1.523-.609l3.153-5.258a.577.577 0 0 1 .492-.279h7.063a3.21 3.21 0 0 0 3.206-3.206V8.663a.82.82 0 1 0-1.64 0v1.477c0 .864-.703 1.566-1.566 1.566h-7.064c-.773 0-1.5.412-1.898 1.075l-2.621 4.372v-3.234c0-1.22-.994-2.213-2.214-2.213a1.567 1.567 0 0 1-1.565-1.566v-6.9c0-.863.702-1.565 1.565-1.565h13.797c.863 0 1.565.702 1.565 1.565v1.588a.82.82 0 0 0 .82.82z" fill="#000"/></g><defs><clipPath id="clip0_971_4203"><path fill="#fff" d="M0 0h56v56H0z"/></clipPath></defs></svg>