<svg width="48" height="48" fill="none" xmlns="http://www.w3.org/2000/svg"><g clip-path="url(#clip0_1044_6083)"><path d="M15.825 44.66A8.834 8.834 0 1 0 3.332 32.167 8.834 8.834 0 0 0 15.825 44.66zM44.657 15.833A8.834 8.834 0 1 0 32.165 3.34a8.834 8.834 0 0 0 12.492 12.493zM44.653 44.663A8.834 8.834 0 1 0 32.161 32.17a8.834 8.834 0 0 0 12.492 12.493z" fill="#F5DE8E"/><path d="M9.584 45.562a8.834 8.834 0 0 1-8.794-7.99 8.834 8.834 0 1 0 17.587 0 8.834 8.834 0 0 1-8.793 7.99zm28.832 0a8.834 8.834 0 0 1-8.793-7.99 8.834 8.834 0 1 0 17.587 0 8.834 8.834 0 0 1-8.794 7.99z" fill="#EDD17A"/><path d="M15.829 15.83A8.834 8.834 0 1 0 3.336 3.337 8.834 8.834 0 0 0 15.83 15.83z" fill="#F5DE8E"/><path d="M38.416 16.73a8.834 8.834 0 0 1-8.793-7.99 8.834 8.834 0 1 0 17.587 0 8.834 8.834 0 0 1-8.794 7.99zm-28.832 0A8.834 8.834 0 0 1 .79 8.74a8.834 8.834 0 1 0 17.587 0 8.834 8.834 0 0 1-8.793 7.99z" fill="#EDD17A"/><path d="M18.379 8.763a15.64 15.64 0 0 1 5.757-1.09c1.933 0 3.784.35 5.494.99a8.778 8.778 0 0 1 1.273-3.727 19.577 19.577 0 0 0-6.767-1.199 19.57 19.57 0 0 0-6.988 1.283 8.778 8.778 0 0 1 1.23 3.743zm20.15 20.821a8.793 8.793 0 0 1 3.869.945 19.567 19.567 0 0 0 1.354-7.175c0-2.127-.34-4.174-.966-6.092a8.78 8.78 0 0 1-3.77 1.135c.52 1.558.801 3.224.801 4.957 0 2.214-.46 4.32-1.288 6.23zm-28.946-.001c.053 0 .106 0 .16.002a15.628 15.628 0 0 1-1.289-6.231c0-1.727.28-3.39.796-4.943a8.785 8.785 0 0 1-3.806-1.022 19.602 19.602 0 0 0-.924 5.965c0 2.49.465 4.872 1.311 7.064a8.798 8.798 0 0 1 3.752-.835zm20 8.833c0-.12.003-.238.007-.356-1.699.63-3.536.975-5.454.975-2.023 0-3.956-.383-5.73-1.08a8.805 8.805 0 0 1-.698 3.936 19.586 19.586 0 0 0 6.428 1.079c2.163 0 4.245-.351 6.192-.998a8.803 8.803 0 0 1-.746-3.556z" fill="#D75950"/><path d="M4.54 24.223a19.539 19.539 0 0 0 1.291 6.195 8.76 8.76 0 0 1 .496-.215 19.49 19.49 0 0 1-1.788-5.98zm39.078-3.168a19.55 19.55 0 0 1-1.945 9.149c.246.097.488.206.725.325a19.566 19.566 0 0 0 1.354-7.175c0-.769-.045-1.536-.134-2.3zM24 41.282c-2.023 0-3.973-.306-5.809-.874a8.775 8.775 0 0 1-.484 1.483 19.583 19.583 0 0 0 6.429 1.079c2.164 0 4.245-.352 6.192-.999a8.778 8.778 0 0 1-.52-1.563 19.62 19.62 0 0 1-5.808.874z" fill="#CA4844"/><path d="M29.916 29.92a8.372 8.372 0 1 0-11.84-11.84 8.372 8.372 0 0 0 11.84 11.84z" fill="#AADEFD"/><path d="M11.427 34.52a.705.705 0 0 0 0-1.41c-1.592 0-2.738.307-3.61.966-.693.526-1.175 1.267-1.443 2.213h-.74a.704.704 0 1 0 0 1.41h.51a9.1 9.1 0 0 0 0 1.175h-.51a.704.704 0 1 0 0 1.409h.74c.268.946.75 1.688 1.444 2.213.87.659 2.017.966 3.609.966a.704.704 0 1 0 0-1.41c-1.934 0-3.067-.534-3.574-1.77h2.488a.704.704 0 1 0 0-1.408H7.553a8.083 8.083 0 0 1 0-1.176h2.788a.704.704 0 1 0 0-1.409H7.853c.507-1.235 1.64-1.77 3.574-1.77zM35.277 10.1h1.318l.01.086c.103.92.05 1.263-.686 2.251l-.74.93c-.368.433-.023 1.156.546 1.143l5.779.05h.006a.705.705 0 0 0 .006-1.408l-4.346-.039c.782-1.089.97-1.78.843-3.013h1.322a.704.704 0 1 0 0-1.409H37.67c-.282-.42-.773-1.305-.77-2.034v-.006c-.001-.473.205-.82.63-1.06.645-.363 1.646-.369 2.232-.012.458.278.805.67.905 1.022a.705.705 0 0 0 1.356-.385c-.2-.7-.756-1.372-1.529-1.841-1.025-.624-2.563-.628-3.656-.01-.869.49-1.346 1.3-1.346 2.28V6.666c0 .738.27 1.468.55 2.026h-.767a.704.704 0 1 0 0 1.41z" fill="#000"/><path d="M43.306 30.221c.789-2.199 1.19-4.506 1.19-6.869 0-1.97-.283-3.916-.839-5.792A9.555 9.555 0 0 0 48 9.555C48 4.287 43.714 0 38.444 0a9.551 9.551 0 0 0-7.808 4.054 20.305 20.305 0 0 0-6.5-1.06c-2.305 0-4.562.382-6.719 1.137A9.552 9.552 0 0 0 9.555 0C4.287 0 0 4.287 0 9.555a9.559 9.559 0 0 0 4.573 8.15 20.366 20.366 0 0 0-.796 5.647c0 2.313.386 4.577 1.144 6.739C1.99 31.724 0 34.856 0 38.444 0 43.715 4.287 48 9.555 48c3.706 0 6.926-2.12 8.51-5.212 1.96.612 4 .924 6.071.924 1.988 0 3.948-.287 5.837-.852C31.57 45.912 34.768 48 38.444 48 43.715 48 48 43.714 48 38.444a9.56 9.56 0 0 0-4.694-8.223zM38.445 1.41c4.492 0 8.146 3.654 8.146 8.146 0 4.492-3.654 8.147-8.147 8.147-4.492 0-8.146-3.655-8.146-8.147 0-4.491 3.655-8.146 8.146-8.146zm1.52 17.58a9.478 9.478 0 0 0 2.427-.732 18.96 18.96 0 0 1 .694 5.095c0 2.144-.354 4.238-1.051 6.238a9.474 9.474 0 0 0-2.465-.634c.652-1.792.983-3.672.983-5.604 0-1.483-.198-2.946-.588-4.363zM24.136 4.402c1.97 0 3.903.3 5.758.89a9.48 9.48 0 0 0-.822 2.4 16.375 16.375 0 0 0-4.936-.756c-1.781 0-3.523.282-5.192.839a9.48 9.48 0 0 0-.8-2.404 18.888 18.888 0 0 1 5.992-.969zM1.41 9.555c0-4.491 3.654-8.146 8.146-8.146 4.492 0 8.147 3.655 8.147 8.146 0 4.492-3.655 8.147-8.147 8.147-4.491 0-8.146-3.655-8.146-8.147zm7.284 19.373a9.483 9.483 0 0 0-2.487.567 18.88 18.88 0 0 1-1.02-6.143c0-1.694.224-3.368.665-4.988a9.48 9.48 0 0 0 2.446.664 16.423 16.423 0 0 0-.577 4.324c0 1.922.328 3.793.973 5.576zm.862 17.663c-4.491 0-8.146-3.654-8.146-8.146 0-4.492 3.655-8.147 8.146-8.147 4.492 0 8.147 3.655 8.147 8.147 0 4.492-3.655 8.146-8.147 8.146zm14.581-4.288c-1.883 0-3.736-.276-5.52-.819.271-.81.433-1.652.48-2.505 1.623.524 3.313.79 5.04.79 1.63 0 3.231-.238 4.774-.706.054.85.222 1.69.5 2.495a18.95 18.95 0 0 1-5.274.745zm4.793-4.726c-1.54.52-3.15.783-4.793.783-1.745 0-3.45-.297-5.073-.88-.465-4.609-4.218-8.261-8.87-8.57a14.905 14.905 0 0 1-1.064-5.558c-.001-1.436.204-2.865.61-4.243 5.184-.098 9.372-4.346 9.372-9.554 0-.115-.003-.23-.007-.345a14.945 14.945 0 0 1 5.032-.865c1.632 0 3.232.26 4.763.773-.006.145-.01.29-.01.437 0 5.27 4.287 9.556 9.555 9.556l.09-.001c.405 1.373.61 2.798.61 4.242 0 1.918-.357 3.781-1.06 5.545-4.812.179-8.726 3.934-9.155 8.68zm9.515 9.014c-4.492 0-8.146-3.654-8.146-8.146 0-4.492 3.655-8.147 8.146-8.147 4.492 0 8.147 3.655 8.147 8.147 0 4.492-3.654 8.146-8.147 8.146z" fill="#000"/><path d="M41.733 33.33a.705.705 0 0 0-.976.198l-2.299 3.474-2.321-3.497a.705.705 0 0 0-1.174.779l2.455 3.698h-1.862a.704.704 0 1 0 0 1.41h2.196l-.003.988h-2.194a.704.704 0 1 0 0 1.41h2.191L37.743 43a.703.703 0 0 0 .703.706h.002a.704.704 0 0 0 .704-.703l.003-1.215h2.184a.704.704 0 1 0 0-1.409h-2.18l.002-.989h2.178a.705.705 0 0 0 0-1.409h-1.84l2.433-3.676a.703.703 0 0 0-.199-.976zM10.207 14.755v-.562c1.235-.3 2.027-1.349 2.201-2.383.225-1.34-.474-2.503-1.782-2.965-.14-.05-.28-.1-.419-.152V6.251c.298.102.472.249.486.26a.702.702 0 0 0 1.151-.261.705.705 0 0 0-.203-.78 3.09 3.09 0 0 0-1.434-.672v-.442a.704.704 0 1 0-1.409 0v.492a3.84 3.84 0 0 0-.165.046c-.867.26-1.515 1-1.69 1.932-.16.852.116 1.677.72 2.152.294.23.652.44 1.135.66v3.204c-.362-.044-.627-.159-1.047-.434a.705.705 0 0 0-.772 1.18c.711.464 1.21.622 1.82.67v.497a.705.705 0 0 0 1.408 0zm0-4.563c.908.351.851 1.146.811 1.384a1.569 1.569 0 0 1-.81 1.124v-2.507zM8.798 8.052a2.817 2.817 0 0 1-.265-.182c-.187-.147-.267-.454-.205-.782.048-.256.196-.555.47-.732V8.05zm15.2 6.856c-5.013 0-9.092 4.08-9.092 9.093 0 5.014 4.079 9.093 9.093 9.093 5.013 0 9.093-4.08 9.093-9.093 0-5.014-4.08-9.093-9.093-9.093zm6.837 5.592h-2.631c-.2-1-.487-1.923-.852-2.723a8.078 8.078 0 0 0-.48-.9 7.727 7.727 0 0 1 3.963 3.623zM27.13 24c0 .737-.044 1.436-.124 2.093h-6.015A17.404 17.404 0 0 1 20.867 24c0-.736.045-1.436.124-2.092h6.015c.08.656.124 1.356.124 2.092zm-3.131-7.683c1.058 0 2.202 1.612 2.77 4.183h-5.54c.567-2.571 1.712-4.183 2.77-4.183zm-2.874.56c-.17.273-.33.573-.48.9-.365.8-.651 1.723-.852 2.723h-2.63a7.727 7.727 0 0 1 3.962-3.623zM16.315 24c0-.725.103-1.426.292-2.092h2.967a18.776 18.776 0 0 0 0 4.183h-2.967A7.657 7.657 0 0 1 16.315 24zm.847 3.5h2.631c.2 1.001.487 1.924.853 2.724.149.327.309.627.479.9a7.728 7.728 0 0 1-3.963-3.623zm6.837 4.184c-1.058 0-2.203-1.612-2.77-4.183h5.54c-.568 2.571-1.712 4.183-2.77 4.183zm2.873-.56c.17-.273.33-.573.48-.9.365-.8.652-1.723.852-2.724h2.631a7.727 7.727 0 0 1-3.963 3.624zm1.551-5.032a18.787 18.787 0 0 0 0-4.184h2.968a7.654 7.654 0 0 1 0 4.183h-2.968z" fill="#000"/></g><defs><clipPath id="clip0_1044_6083"><path fill="#fff" d="M0 0h48v48H0z"/></clipPath></defs></svg>