<svg width="48" height="48" fill="none" xmlns="http://www.w3.org/2000/svg"><g clip-path="url(#clip0_1044_6101)"><path d="M24.137 42.256a.381.381 0 0 1-.274 0c-4.596-1.78-8.485-4.5-11.571-8.098-2.244-2.615-3.48-6.08-3.48-9.754V11.355c0-.178.115-.33.274-.364 2.912-.648 5.654-1.924 8.036-3.36a13.327 13.327 0 0 1 13.756 0c2.382 1.436 5.124 2.712 8.036 3.36a.365.365 0 0 1 .273.364v13.049c0 3.675-1.235 7.139-3.48 9.755-3.085 3.596-6.975 6.317-11.57 8.097z" fill="#FFD659"/><path d="M38.915 10.99a22.37 22.37 0 0 1-2.539-.73v13.683c0 3.885-1.235 7.547-3.48 10.313a28.604 28.604 0 0 1-9.712 7.726c.225.093.451.185.68.274a.383.383 0 0 0 .275 0c4.595-1.78 8.484-4.501 11.57-8.097 2.244-2.616 3.48-6.08 3.48-9.755V11.355a.366.366 0 0 0-.274-.364z" fill="#FFBD54"/><path d="M24.113 39.228a.285.285 0 0 1-.226 0c-3.727-1.606-6.906-3.924-9.46-6.901-1.807-2.106-2.802-4.92-2.802-7.923V13.496a.375.375 0 0 1 .261-.356c2.197-.706 4.438-1.744 6.688-3.1a10.51 10.51 0 0 1 10.852 0c2.25 1.356 4.491 2.394 6.688 3.1a.375.375 0 0 1 .261.356v10.908c0 3.003-.995 5.817-2.802 7.924-2.554 2.977-5.733 5.294-9.46 6.9z" fill="#4FB1F5"/><path d="M36.112 13.14a28.395 28.395 0 0 1-2.551-.961v11.388c0 3.32-.995 6.432-2.802 8.76a26.076 26.076 0 0 1-7.529 6.608c.218.1.436.198.655.293a.287.287 0 0 0 .226 0c3.727-1.605 6.906-3.923 9.46-6.9 1.807-2.107 2.802-4.92 2.802-7.924V13.496a.374.374 0 0 0-.261-.356z" fill="#46A4E6"/><path d="M27.75 29.344h-7.5a.938.938 0 0 1-.938-.938v-5.625c0-.517.42-.937.938-.937h7.5c.518 0 .938.42.938.937v5.625c0 .518-.42.938-.938.938z" fill="#FF2C5C"/><path d="M27.75 21.844h-2.813c.518 0 .938.42.938.937v5.625c0 .518-.42.938-.938.938h2.813c.518 0 .938-.42.938-.938v-5.625a.937.937 0 0 0-.938-.937z" fill="#E62753"/><path d="M16.594 47.297a1.406 1.406 0 1 0 0-2.813 1.406 1.406 0 0 0 0 2.813zM34.406 3.516a1.406 1.406 0 1 0 0-2.813 1.406 1.406 0 0 0 0 2.813zM2.11 17.719a1.406 1.406 0 1 0 0-2.813 1.406 1.406 0 0 0 0 2.813zM4.29 23.156a1.406 1.406 0 1 0 0-2.812 1.406 1.406 0 0 0 0 2.812zM45.89 23.906a1.406 1.406 0 1 0 0-2.812 1.406 1.406 0 0 0 0 2.812zM43.71 29.344a1.406 1.406 0 1 0 .001-2.813 1.406 1.406 0 0 0 0 2.813z" fill="#FF2C5C"/><path d="M24 26.297a1.406 1.406 0 1 0 0-2.812 1.406 1.406 0 0 0 0 2.812z" fill="#685C79"/><path d="M45.89 20.39c-.916 0-1.698.588-1.988 1.407h-4.011v-.82a.703.703 0 1 0-1.407 0v3.427c0 3.507-1.175 6.808-3.31 9.297-2.981 3.474-6.74 6.116-11.174 7.854-3.964-1.554-7.399-3.837-10.21-6.788a.703.703 0 0 0-1.018.97 28.661 28.661 0 0 0 3.119 2.824v5.341a2.113 2.113 0 0 0-1.407 1.989c0 1.163.947 2.11 2.11 2.11 1.163 0 2.11-.947 2.11-2.11 0-.917-.589-1.698-1.407-1.989v-4.31a30.585 30.585 0 0 0 6.311 3.32c.252.097.532.097.784 0 4.703-1.822 8.69-4.613 11.85-8.295 1.461-1.705 2.515-3.75 3.104-5.976h2.377a2.113 2.113 0 0 0 1.988 1.406c1.163 0 2.11-.946 2.11-2.11 0-1.163-.947-2.109-2.11-2.109-.917 0-1.698.588-1.989 1.407h-2.07c.16-.936.24-1.882.239-2.83v-1.202h4.011a2.113 2.113 0 0 0 1.989 1.406c1.163 0 2.109-.946 2.109-2.109s-.946-2.11-2.11-2.11zM16.595 46.595a.704.704 0 1 1 .001-1.408.704.704 0 0 1-.001 1.408zm27.117-19.36a.704.704 0 1 1-.001 1.408.704.704 0 0 1 0-1.408zm2.18-4.03a.704.704 0 1 1 .001-1.409.704.704 0 0 1-.001 1.408zm-36.375 1.2v-12.79c2.579-.61 5.258-1.747 7.97-3.381a12.589 12.589 0 0 1 13.029 0 32.634 32.634 0 0 0 3.633 1.9 24.947 24.947 0 0 0 4.336 1.48v6.356a.703.703 0 1 0 1.407 0v-6.614c0-.503-.347-.945-.824-1.05a22.947 22.947 0 0 1-3.958-1.288v-4.92a2.113 2.113 0 0 0 1.407-1.988C36.516.946 35.569 0 34.406 0c-1.163 0-2.11.946-2.11 2.11 0 .916.589 1.698 1.407 1.988v4.276c-.815-.4-1.636-.848-2.462-1.345a13.992 13.992 0 0 0-14.482 0c-2.678 1.614-5.31 2.716-7.826 3.275a1.074 1.074 0 0 0-.824 1.051v4.254H4.098a2.113 2.113 0 0 0-1.989-1.406C.946 14.203 0 15.15 0 16.313c0 1.163.946 2.109 2.11 2.109.916 0 1.698-.588 1.988-1.406h4.011v4.03H6.277a2.113 2.113 0 0 0-1.988-1.405c-1.163 0-2.11.946-2.11 2.109s.947 2.11 2.11 2.11c.917 0 1.698-.588 1.989-1.407h1.831v1.951c0 3.37.974 6.531 2.815 9.14a.702.702 0 1 0 1.149-.81c-1.673-2.371-2.557-5.252-2.557-8.33zm24.89-22.998a.704.704 0 1 1-.001 1.408.704.704 0 0 1 .001-1.408zM2.11 17.016a.704.704 0 1 1 .002-1.408.704.704 0 0 1-.002 1.408zm2.18 5.437a.704.704 0 1 1 .001-1.408.704.704 0 0 1 0 1.408z" fill="#000"/><path d="M16.265 12.108a.703.703 0 0 0-.624-1.26 29.014 29.014 0 0 1-3.97 1.622 1.075 1.075 0 0 0-.75 1.026v10.908c0 3.171 1.056 6.147 2.972 8.38 2.622 3.057 5.891 5.442 9.716 7.09a.988.988 0 0 0 .782 0c3.825-1.648 7.094-4.033 9.716-7.089 1.916-2.233 2.971-5.21 2.971-8.38V13.495c0-.47-.301-.882-.75-1.026-2.141-.688-4.342-1.708-6.539-3.033a11.212 11.212 0 0 0-11.578 0l-.15.09a.704.704 0 0 0 .72 1.208l.156-.093a9.806 9.806 0 0 1 10.126 0c2.213 1.334 4.436 2.374 6.609 3.093v10.67c0 2.834-.935 5.486-2.632 7.465-2.444 2.847-5.485 5.081-9.04 6.64-3.555-1.56-6.596-3.793-9.04-6.641-1.697-1.979-2.632-4.63-2.632-7.465V13.735c1.298-.43 2.62-.976 3.937-1.627z" fill="#000"/><path d="M24 16.453a3.52 3.52 0 0 0-3.516 3.516v1.172h-.234c-.905 0-1.64.736-1.64 1.64v5.625c0 .905.735 1.64 1.64 1.64h7.5c.905 0 1.64-.735 1.64-1.64v-5.625c0-.904-.735-1.64-1.64-1.64h-.234v-1.172A3.52 3.52 0 0 0 24 16.453zm-2.11 3.516c0-1.163.947-2.11 2.11-2.11 1.163 0 2.11.947 2.11 2.11v1.172h-4.22v-1.172zm6.094 2.812v5.625c0 .13-.105.235-.234.235h-7.5a.234.234 0 0 1-.234-.235v-5.625c0-.129.105-.234.234-.234h7.5c.13 0 .234.105.234.234z" fill="#000"/><path d="M24 22.781c-1.163 0-2.11.947-2.11 2.11 0 .916.588 1.698 1.407 1.988v.824a.703.703 0 1 0 1.406 0v-.824a2.113 2.113 0 0 0 1.406-1.988c0-1.163-.946-2.11-2.109-2.11zm0 2.813a.704.704 0 1 1 .001-1.408.704.704 0 0 1-.001 1.408z" fill="#000"/></g><defs><clipPath id="clip0_1044_6101"><path fill="#fff" d="M0 0h48v48H0z"/></clipPath></defs></svg>