<svg width="127" height="127" fill="none" xmlns="http://www.w3.org/2000/svg"><g clip-path="url(#clip0)"><path d="M127 63.5c0 35.074-28.426 63.5-63.5 63.5S0 98.574 0 63.5 28.426 0 63.5 0 127 28.426 127 63.5z" fill="url(#paint0_linear)" stroke="url(#paint1_linear)" stroke-miterlimit="10"/><path d="M77.936 61.49c5.83-4.39 9.625-11.385 9.625-19.223 0-13.27-10.79-24.036-24.06-24.036-13.271 0-24.037 10.79-24.037 24.036 0 7.838 3.77 14.833 9.6 19.224C33.437 67.345 22.3 82.426 22.3 100.087h7.441c0-18.604 15.156-33.76 33.76-33.76 18.603 0 33.758 15.156 33.758 33.76h7.442c0-17.636-11.138-32.718-26.764-38.596zm-31.03-19.223c0-9.153 7.441-16.594 16.594-16.594 9.153 0 16.594 7.441 16.594 16.594 0 9.153-7.44 16.62-16.594 16.62-9.153 0-16.594-7.442-16.594-16.62z" fill="#1C1C1C"/></g><defs><linearGradient id="paint0_linear" x1="5.156" y1="46.155" x2="126.923" y2="82.355" gradientUnits="userSpaceOnUse"><stop stop-color="#30FFE6"/><stop offset=".106" stop-color="#36FCE1"/><stop offset=".249" stop-color="#47F2D2"/><stop offset=".413" stop-color="#63E1B9"/><stop offset=".592" stop-color="#8BCB96"/><stop offset=".784" stop-color="#BDAE6A"/><stop offset=".985" stop-color="#FA8B34"/><stop offset="1" stop-color="#FF8830"/></linearGradient><linearGradient id="paint1_linear" x1="-.124" y1="63.5" x2="127.124" y2="63.5" gradientUnits="userSpaceOnUse"><stop stop-color="#00F38D"/><stop offset="1" stop-color="#5FB45D"/></linearGradient><clipPath id="clip0"><rect width="127" height="127" rx="63.5" fill="#fff"/></clipPath></defs></svg>