<svg width="3840" height="2160" viewBox="0 0 3840 2160" fill="none" xmlns="http://www.w3.org/2000/svg">
<rect width="3840" height="2160" fill="#EB3333"/>
<g opacity="0.5">
<path d="M133.465 191.05C135.984 194.189 138.755 197.073 141.609 199.873C155.212 212.937 172.593 222.269 191.989 226.257V214.549C175.868 210.817 161.425 202.757 150.006 191.813C146.228 188.25 142.869 184.263 139.846 180.106L133.465 191.05Z" fill="white"/>
<path d="M91.3135 178.833C103.992 166.617 111.885 149.735 111.885 131.241V80H123.808V131.326C123.808 140.318 125.32 150.923 128.007 159.067C130.778 150.838 132.205 140.318 132.205 131.326V80H144.128V131.326C144.128 149.82 152.021 166.702 164.7 178.918C172.257 186.214 181.577 191.813 191.989 195.207V207.169C178.303 203.436 166.128 196.394 156.303 186.978C148.914 179.936 142.953 171.538 138.838 162.206C135.732 170.265 132.289 177.9 128.007 183.669C123.725 177.9 120.282 170.265 117.175 162.206C112.977 171.538 107.015 179.852 99.7101 186.978C89.97 196.394 77.7109 203.436 64.0244 207.169V195.207C74.4362 191.813 83.7565 186.129 91.3135 178.833Z" fill="white"/>
<path d="M163.189 130.223C163.189 143.712 168.898 156.013 178.219 164.92C182.249 168.738 186.867 171.962 192.073 174.422V186.893C183.677 183.839 176.12 179.088 169.822 173.065C158.403 162.121 151.349 146.935 151.349 130.308V118.685H163.273V130.223H163.189Z" fill="white"/>
<path d="M92.9089 118.685H104.832V130.223C104.832 146.85 97.7789 162.036 86.3595 172.98C80.062 179.003 72.505 183.754 64.1084 186.808V174.337C69.2303 171.962 73.9325 168.738 77.9628 164.836C87.1991 155.928 92.9928 143.627 92.9928 130.138V118.685H92.9089Z" fill="white"/>
<path d="M116.252 180.191C113.229 184.348 109.786 188.25 106.092 191.898C94.6722 202.842 80.2299 210.901 64.1084 214.634V226.341C83.5046 222.354 100.97 213.022 114.488 199.958C117.427 197.158 120.114 194.189 122.633 191.135L116.252 180.191Z" fill="white"/>
<path d="M1296.07 191.05C1298.59 194.189 1301.36 197.073 1304.21 199.873C1317.81 212.937 1335.19 222.269 1354.59 226.257V214.549C1338.47 210.817 1324.03 202.757 1312.61 191.813C1308.83 188.25 1305.47 184.263 1302.45 180.106L1296.07 191.05Z" fill="white"/>
<path d="M1253.92 178.833C1266.59 166.617 1274.49 149.735 1274.49 131.241V80H1286.41V131.326C1286.41 140.318 1287.92 150.923 1290.61 159.067C1293.38 150.838 1294.81 140.318 1294.81 131.326V80H1306.73V131.326C1306.73 149.82 1314.62 166.702 1327.3 178.918C1334.86 186.214 1344.18 191.813 1354.59 195.207V207.169C1340.9 203.436 1328.73 196.394 1318.91 186.978C1311.52 179.936 1305.55 171.538 1301.44 162.206C1298.33 170.265 1294.89 177.9 1290.61 183.669C1286.33 177.9 1282.88 170.265 1279.78 162.206C1275.58 171.538 1269.62 179.852 1262.31 186.978C1252.57 196.394 1240.31 203.436 1226.63 207.169V195.207C1237.04 191.813 1246.36 186.129 1253.92 178.833Z" fill="white"/>
<path d="M1325.79 130.223C1325.79 143.712 1331.5 156.013 1340.82 164.92C1344.85 168.738 1349.47 171.962 1354.67 174.422V186.893C1346.28 183.839 1338.72 179.088 1332.42 173.065C1321 162.121 1313.95 146.935 1313.95 130.308V118.685H1325.87V130.223H1325.79Z" fill="white"/>
<path d="M1255.51 118.685H1267.43V130.223C1267.43 146.85 1260.38 162.036 1248.96 172.98C1242.66 179.003 1235.11 183.754 1226.71 186.808V174.337C1231.83 171.962 1236.53 168.738 1240.56 164.836C1249.8 155.928 1255.59 143.627 1255.59 130.138V118.685H1255.51Z" fill="white"/>
<path d="M1278.85 180.191C1275.83 184.348 1272.39 188.25 1268.69 191.898C1257.27 202.842 1242.83 210.901 1226.71 214.634V226.341C1246.11 222.354 1263.57 213.022 1277.09 199.958C1280.03 197.158 1282.72 194.189 1285.23 191.135L1278.85 180.191Z" fill="white"/>
<path d="M133.465 808.936C135.984 812.075 138.755 814.959 141.609 817.759C155.212 830.824 172.593 840.156 191.989 844.143V832.436C175.868 828.703 161.425 820.643 150.006 809.7C146.228 806.136 142.869 802.149 139.846 797.992L133.465 808.936Z" fill="white"/>
<path d="M91.3135 796.72C103.992 784.503 111.885 767.621 111.885 749.127V697.886H123.808V749.212C123.808 758.204 125.32 768.809 128.007 776.953C130.778 768.724 132.205 758.204 132.205 749.212V697.886H144.128V749.212C144.128 767.706 152.021 784.588 164.7 796.805C172.257 804.1 181.577 809.7 191.989 813.093V825.055C178.303 821.322 166.128 814.281 156.303 804.864C148.914 797.823 142.953 789.424 138.838 780.092C135.732 788.151 132.289 795.787 128.007 801.555C123.725 795.787 120.282 788.151 117.175 780.092C112.977 789.424 107.015 797.738 99.7101 804.864C89.97 814.281 77.7109 821.322 64.0244 825.055V813.093C74.4362 809.7 83.7565 804.016 91.3135 796.72Z" fill="white"/>
<path d="M163.189 748.109C163.189 761.598 168.898 773.899 178.219 782.807C182.249 786.624 186.867 789.848 192.073 792.308V804.779C183.677 801.725 176.12 796.974 169.822 790.951C158.403 780.007 151.349 764.822 151.349 748.194V736.571H163.273V748.109H163.189Z" fill="white"/>
<path d="M92.9089 736.571H104.832V748.109C104.832 764.737 97.7789 779.922 86.3595 790.866C80.062 796.889 72.505 801.64 64.1084 804.694V792.223C69.2303 789.848 73.9325 786.624 77.9628 782.722C87.1991 773.814 92.9928 761.513 92.9928 748.024V736.571H92.9089Z" fill="white"/>
<path d="M116.252 798.077C113.229 802.234 109.786 806.136 106.092 809.784C94.6722 820.728 80.2299 828.788 64.1084 832.52V844.228C83.5046 840.24 100.97 830.908 114.488 817.844C117.427 815.044 120.114 812.075 122.633 809.021L116.252 798.077Z" fill="white"/>
<path d="M1296.07 808.936C1298.59 812.075 1301.36 814.959 1304.21 817.759C1317.81 830.824 1335.19 840.156 1354.59 844.143V832.436C1338.47 828.703 1324.03 820.643 1312.61 809.7C1308.83 806.136 1305.47 802.149 1302.45 797.992L1296.07 808.936Z" fill="white"/>
<path d="M1253.92 796.72C1266.59 784.503 1274.49 767.621 1274.49 749.127V697.886H1286.41V749.212C1286.41 758.204 1287.92 768.809 1290.61 776.953C1293.38 768.724 1294.81 758.204 1294.81 749.212V697.886H1306.73V749.212C1306.73 767.706 1314.62 784.588 1327.3 796.805C1334.86 804.1 1344.18 809.7 1354.59 813.093V825.055C1340.9 821.322 1328.73 814.281 1318.91 804.864C1311.52 797.823 1305.55 789.424 1301.44 780.092C1298.33 788.151 1294.89 795.787 1290.61 801.555C1286.33 795.787 1282.88 788.151 1279.78 780.092C1275.58 789.424 1269.62 797.738 1262.31 804.864C1252.57 814.281 1240.31 821.322 1226.63 825.055V813.093C1237.04 809.7 1246.36 804.016 1253.92 796.72Z" fill="white"/>
<path d="M1325.79 748.109C1325.79 761.598 1331.5 773.899 1340.82 782.807C1344.85 786.624 1349.47 789.848 1354.67 792.308V804.779C1346.28 801.725 1338.72 796.974 1332.42 790.951C1321 780.007 1313.95 764.822 1313.95 748.194V736.571H1325.87V748.109H1325.79Z" fill="white"/>
<path d="M1255.51 736.571H1267.43V748.109C1267.43 764.737 1260.38 779.922 1248.96 790.866C1242.66 796.889 1235.11 801.64 1226.71 804.694V792.223C1231.83 789.848 1236.53 786.624 1240.56 782.722C1249.8 773.814 1255.59 761.513 1255.59 748.024V736.571H1255.51Z" fill="white"/>
<path d="M1278.85 798.077C1275.83 802.234 1272.39 806.136 1268.69 809.784C1257.27 820.728 1242.83 828.788 1226.71 832.52V844.228C1246.11 840.24 1263.57 830.908 1277.09 817.844C1280.03 815.044 1282.72 812.075 1285.23 809.021L1278.85 798.077Z" fill="white"/>
<path d="M133.465 1426.82C135.984 1429.96 138.755 1432.85 141.609 1435.65C155.212 1448.71 172.593 1458.04 191.989 1462.03V1450.32C175.868 1446.59 161.425 1438.53 150.006 1427.59C146.228 1424.02 142.869 1420.04 139.846 1415.88L133.465 1426.82Z" fill="white"/>
<path d="M91.3135 1414.61C103.992 1402.39 111.885 1385.51 111.885 1367.01V1315.77H123.808V1367.1C123.808 1376.09 125.32 1386.7 128.007 1394.84C130.778 1386.61 132.205 1376.09 132.205 1367.1V1315.77H144.128V1367.1C144.128 1385.59 152.021 1402.47 164.7 1414.69C172.257 1421.99 181.577 1427.59 191.989 1430.98V1442.94C178.303 1439.21 166.128 1432.17 156.303 1422.75C148.914 1415.71 142.953 1407.31 138.838 1397.98C135.732 1406.04 132.289 1413.67 128.007 1419.44C123.725 1413.67 120.282 1406.04 117.175 1397.98C112.977 1407.31 107.015 1415.62 99.7101 1422.75C89.97 1432.17 77.7109 1439.21 64.0244 1442.94V1430.98C74.4362 1427.59 83.7565 1421.9 91.3135 1414.61Z" fill="white"/>
<path d="M163.189 1366C163.189 1379.48 168.898 1391.79 178.219 1400.69C182.249 1404.51 186.867 1407.73 192.073 1410.19V1422.67C183.677 1419.61 176.12 1414.86 169.822 1408.84C158.403 1397.89 151.349 1382.71 151.349 1366.08V1354.46H163.273V1366H163.189Z" fill="white"/>
<path d="M92.9089 1354.46H104.832V1366C104.832 1382.62 97.7789 1397.81 86.3595 1408.75C80.062 1414.78 72.505 1419.53 64.1084 1422.58V1410.11C69.2303 1407.73 73.9325 1404.51 77.9628 1400.61C87.1991 1391.7 92.9928 1379.4 92.9928 1365.91V1354.46H92.9089Z" fill="white"/>
<path d="M116.252 1415.96C113.229 1420.12 109.786 1424.02 106.092 1427.67C94.6722 1438.61 80.2299 1446.67 64.1084 1450.41V1462.11C83.5046 1458.13 100.97 1448.79 114.488 1435.73C117.427 1432.93 120.114 1429.96 122.633 1426.91L116.252 1415.96Z" fill="white"/>
<path d="M133.465 2044.71C135.984 2047.85 138.755 2050.73 141.609 2053.53C155.212 2066.6 172.593 2075.93 191.989 2079.91V2068.21C175.868 2064.47 161.425 2056.42 150.006 2045.47C146.228 2041.91 142.869 2037.92 139.846 2033.76L133.465 2044.71Z" fill="white"/>
<path d="M91.3135 2032.49C103.992 2020.28 111.885 2003.39 111.885 1984.9V1933.66H123.808V1984.98C123.808 1993.98 125.32 2004.58 128.007 2012.72C130.778 2004.5 132.205 1993.98 132.205 1984.98V1933.66H144.128V1984.98C144.128 2003.48 152.021 2020.36 164.7 2032.58C172.257 2039.87 181.577 2045.47 191.989 2048.86V2060.83C178.303 2057.09 166.128 2050.05 156.303 2040.64C148.914 2033.59 142.953 2025.2 138.838 2015.86C135.732 2023.92 132.289 2031.56 128.007 2037.33C123.725 2031.56 120.282 2023.92 117.175 2015.86C112.977 2025.2 107.015 2033.51 99.7101 2040.64C89.97 2050.05 77.7109 2057.09 64.0244 2060.83V2048.86C74.4362 2045.47 83.7565 2039.79 91.3135 2032.49Z" fill="white"/>
<path d="M163.189 1983.88C163.189 1997.37 168.898 2009.67 178.219 2018.58C182.249 2022.4 186.867 2025.62 192.073 2028.08V2040.55C183.677 2037.5 176.12 2032.75 169.822 2026.72C158.403 2015.78 151.349 2000.59 151.349 1983.97V1972.34H163.273V1983.88H163.189Z" fill="white"/>
<path d="M92.9089 1972.34H104.832V1983.88C104.832 2000.51 97.7789 2015.69 86.3595 2026.64C80.062 2032.66 72.505 2037.41 64.1084 2040.47V2028C69.2303 2025.62 73.9325 2022.4 77.9628 2018.49C87.1991 2009.59 92.9928 1997.28 92.9928 1983.8V1972.34H92.9089Z" fill="white"/>
<path d="M116.252 2033.85C113.229 2038.01 109.786 2041.91 106.092 2045.56C94.6722 2056.5 80.2299 2064.56 64.1084 2068.29V2080C83.5046 2076.01 100.97 2066.68 114.488 2053.62C117.427 2050.82 120.114 2047.85 122.633 2044.79L116.252 2033.85Z" fill="white"/>
<path d="M1296.07 1426.82C1298.59 1429.96 1301.36 1432.85 1304.21 1435.65C1317.81 1448.71 1335.19 1458.04 1354.59 1462.03V1450.32C1338.47 1446.59 1324.03 1438.53 1312.61 1427.59C1308.83 1424.02 1305.47 1420.04 1302.45 1415.88L1296.07 1426.82Z" fill="white"/>
<path d="M1253.92 1414.61C1266.59 1402.39 1274.49 1385.51 1274.49 1367.01V1315.77H1286.41V1367.1C1286.41 1376.09 1287.92 1386.7 1290.61 1394.84C1293.38 1386.61 1294.81 1376.09 1294.81 1367.1V1315.77H1306.73V1367.1C1306.73 1385.59 1314.62 1402.47 1327.3 1414.69C1334.86 1421.99 1344.18 1427.59 1354.59 1430.98V1442.94C1340.9 1439.21 1328.73 1432.17 1318.91 1422.75C1311.52 1415.71 1305.55 1407.31 1301.44 1397.98C1298.33 1406.04 1294.89 1413.67 1290.61 1419.44C1286.33 1413.67 1282.88 1406.04 1279.78 1397.98C1275.58 1407.31 1269.62 1415.62 1262.31 1422.75C1252.57 1432.17 1240.31 1439.21 1226.63 1442.94V1430.98C1237.04 1427.59 1246.36 1421.9 1253.92 1414.61Z" fill="white"/>
<path d="M1325.79 1366C1325.79 1379.48 1331.5 1391.79 1340.82 1400.69C1344.85 1404.51 1349.47 1407.73 1354.67 1410.19V1422.67C1346.28 1419.61 1338.72 1414.86 1332.42 1408.84C1321 1397.89 1313.95 1382.71 1313.95 1366.08V1354.46H1325.87V1366H1325.79Z" fill="white"/>
<path d="M1255.51 1354.46H1267.43V1366C1267.43 1382.62 1260.38 1397.81 1248.96 1408.75C1242.66 1414.78 1235.11 1419.53 1226.71 1422.58V1410.11C1231.83 1407.73 1236.53 1404.51 1240.56 1400.61C1249.8 1391.7 1255.59 1379.4 1255.59 1365.91V1354.46H1255.51Z" fill="white"/>
<path d="M1278.85 1415.96C1275.83 1420.12 1272.39 1424.02 1268.69 1427.67C1257.27 1438.61 1242.83 1446.67 1226.71 1450.41V1462.11C1246.11 1458.13 1263.57 1448.79 1277.09 1435.73C1280.03 1432.93 1282.72 1429.96 1285.23 1426.91L1278.85 1415.96Z" fill="white"/>
<path d="M1296.07 2044.71C1298.59 2047.85 1301.36 2050.73 1304.21 2053.53C1317.81 2066.6 1335.19 2075.93 1354.59 2079.91V2068.21C1338.47 2064.47 1324.03 2056.42 1312.61 2045.47C1308.83 2041.91 1305.47 2037.92 1302.45 2033.76L1296.07 2044.71Z" fill="white"/>
<path d="M1253.92 2032.49C1266.59 2020.28 1274.49 2003.39 1274.49 1984.9V1933.66H1286.41V1984.98C1286.41 1993.98 1287.92 2004.58 1290.61 2012.72C1293.38 2004.5 1294.81 1993.98 1294.81 1984.98V1933.66H1306.73V1984.98C1306.73 2003.48 1314.62 2020.36 1327.3 2032.58C1334.86 2039.87 1344.18 2045.47 1354.59 2048.86V2060.83C1340.9 2057.09 1328.73 2050.05 1318.91 2040.64C1311.52 2033.59 1305.55 2025.2 1301.44 2015.86C1298.33 2023.92 1294.89 2031.56 1290.61 2037.33C1286.33 2031.56 1282.88 2023.92 1279.78 2015.86C1275.58 2025.2 1269.62 2033.51 1262.31 2040.64C1252.57 2050.05 1240.31 2057.09 1226.63 2060.83V2048.86C1237.04 2045.47 1246.36 2039.79 1253.92 2032.49Z" fill="white"/>
<path d="M1325.79 1983.88C1325.79 1997.37 1331.5 2009.67 1340.82 2018.58C1344.85 2022.4 1349.47 2025.62 1354.67 2028.08V2040.55C1346.28 2037.5 1338.72 2032.75 1332.42 2026.72C1321 2015.78 1313.95 2000.59 1313.95 1983.97V1972.34H1325.87V1983.88H1325.79Z" fill="white"/>
<path d="M1255.51 1972.34H1267.43V1983.88C1267.43 2000.51 1260.38 2015.69 1248.96 2026.64C1242.66 2032.66 1235.11 2037.41 1226.71 2040.47V2028C1231.83 2025.62 1236.53 2022.4 1240.56 2018.49C1249.8 2009.59 1255.59 1997.28 1255.59 1983.8V1972.34H1255.51Z" fill="white"/>
<path d="M1278.85 2033.85C1275.83 2038.01 1272.39 2041.91 1268.69 2045.56C1257.27 2056.5 1242.83 2064.56 1226.71 2068.29V2080C1246.11 2076.01 1263.57 2066.68 1277.09 2053.62C1280.03 2050.82 1282.72 2047.85 1285.23 2044.79L1278.85 2033.85Z" fill="white"/>
<path d="M714.765 191.05C717.284 194.189 720.055 197.073 722.91 199.873C736.513 212.937 753.894 222.269 773.29 226.257V214.549C757.168 210.817 742.726 202.757 731.307 191.813C727.528 188.25 724.17 184.263 721.147 180.106L714.765 191.05Z" fill="white"/>
<path d="M672.614 178.833C685.293 166.617 693.186 149.735 693.186 131.241V80H705.109V131.326C705.109 140.318 706.621 150.923 709.308 159.067C712.078 150.838 713.506 140.318 713.506 131.326V80H725.429V131.326C725.429 149.82 733.322 166.702 746.001 178.918C753.558 186.214 762.878 191.813 773.29 195.207V207.169C759.603 203.436 747.428 196.394 737.604 186.978C730.215 179.936 724.254 171.538 720.139 162.206C717.032 170.265 713.59 177.9 709.308 183.669C705.025 177.9 701.583 170.265 698.476 162.206C694.278 171.538 688.316 179.852 681.011 186.978C671.271 196.394 659.012 203.436 645.325 207.169V195.207C655.737 191.813 665.057 186.129 672.614 178.833Z" fill="white"/>
<path d="M744.489 130.223C744.489 143.712 750.199 156.013 759.519 164.92C763.55 168.738 768.168 171.962 773.374 174.422V186.893C764.977 183.839 757.42 179.088 751.123 173.065C739.703 162.121 732.65 146.935 732.65 130.308V118.685H744.573V130.223H744.489Z" fill="white"/>
<path d="M674.21 118.685H686.133V130.223C686.133 146.85 679.08 162.036 667.66 172.98C661.363 179.003 653.806 183.754 645.409 186.808V174.337C650.531 171.962 655.233 168.738 659.264 164.836C668.5 155.928 674.294 143.627 674.294 130.138V118.685H674.21Z" fill="white"/>
<path d="M697.552 180.191C694.529 184.348 691.087 188.25 687.392 191.898C675.973 202.842 661.531 210.901 645.409 214.634V226.341C664.805 222.354 682.27 213.022 695.789 199.958C698.728 197.158 701.415 194.189 703.934 191.135L697.552 180.191Z" fill="white"/>
<path d="M714.765 808.936C717.284 812.075 720.055 814.959 722.91 817.759C736.513 830.824 753.894 840.156 773.29 844.143V832.436C757.168 828.703 742.726 820.643 731.307 809.7C727.528 806.136 724.17 802.149 721.147 797.992L714.765 808.936Z" fill="white"/>
<path d="M672.614 796.72C685.293 784.503 693.186 767.621 693.186 749.127V697.886H705.109V749.212C705.109 758.204 706.621 768.809 709.308 776.953C712.078 768.724 713.506 758.204 713.506 749.212V697.886H725.429V749.212C725.429 767.706 733.322 784.588 746.001 796.805C753.558 804.1 762.878 809.7 773.29 813.093V825.055C759.603 821.322 747.428 814.281 737.604 804.864C730.215 797.823 724.254 789.424 720.139 780.092C717.032 788.151 713.59 795.787 709.308 801.555C705.025 795.787 701.583 788.151 698.476 780.092C694.278 789.424 688.316 797.738 681.011 804.864C671.271 814.281 659.012 821.322 645.325 825.055V813.093C655.737 809.7 665.057 804.016 672.614 796.72Z" fill="white"/>
<path d="M744.489 748.109C744.489 761.598 750.199 773.899 759.519 782.807C763.55 786.624 768.168 789.848 773.374 792.308V804.779C764.977 801.725 757.42 796.974 751.123 790.951C739.703 780.007 732.65 764.822 732.65 748.194V736.571H744.573V748.109H744.489Z" fill="white"/>
<path d="M674.21 736.571H686.133V748.109C686.133 764.737 679.08 779.922 667.66 790.866C661.363 796.889 653.806 801.64 645.409 804.694V792.223C650.531 789.848 655.233 786.624 659.264 782.722C668.5 773.814 674.294 761.513 674.294 748.024V736.571H674.21Z" fill="white"/>
<path d="M697.552 798.077C694.529 802.234 691.087 806.136 687.392 809.784C675.973 820.728 661.531 828.788 645.409 832.52V844.228C664.805 840.24 682.27 830.908 695.789 817.844C698.728 815.044 701.415 812.075 703.934 809.021L697.552 798.077Z" fill="white"/>
<path d="M1877.37 808.936C1879.89 812.075 1882.66 814.959 1885.51 817.759C1899.11 830.824 1916.5 840.156 1935.89 844.143V832.436C1919.77 828.703 1905.33 820.643 1893.91 809.7C1890.13 806.136 1886.77 802.149 1883.75 797.992L1877.37 808.936Z" fill="white"/>
<path d="M1835.22 796.72C1847.89 784.503 1855.79 767.621 1855.79 749.127V697.886H1867.71V749.212C1867.71 758.204 1869.22 768.809 1871.91 776.953C1874.68 768.724 1876.11 758.204 1876.11 749.212V697.886H1888.03V749.212C1888.03 767.706 1895.92 784.588 1908.6 796.805C1916.16 804.1 1925.48 809.7 1935.89 813.093V825.055C1922.21 821.322 1910.03 814.281 1900.21 804.864C1892.82 797.823 1886.86 789.424 1882.74 780.092C1879.63 788.151 1876.19 795.787 1871.91 801.555C1867.63 795.787 1864.18 788.151 1861.08 780.092C1856.88 789.424 1850.92 797.738 1843.61 804.864C1833.87 814.281 1821.61 821.322 1807.93 825.055V813.093C1818.34 809.7 1827.66 804.016 1835.22 796.72Z" fill="white"/>
<path d="M1907.09 748.109C1907.09 761.598 1912.8 773.899 1922.12 782.807C1926.15 786.624 1930.77 789.848 1935.98 792.308V804.779C1927.58 801.725 1920.02 796.974 1913.72 790.951C1902.31 780.007 1895.25 764.822 1895.25 748.194V736.571H1907.18V748.109H1907.09Z" fill="white"/>
<path d="M1836.81 736.571H1848.73V748.109C1848.73 764.737 1841.68 779.922 1830.26 790.866C1823.96 796.889 1816.41 801.64 1808.01 804.694V792.223C1813.13 789.848 1817.83 786.624 1821.87 782.722C1831.1 773.814 1836.9 761.513 1836.9 748.024V736.571H1836.81Z" fill="white"/>
<path d="M1860.15 798.077C1857.13 802.234 1853.69 806.136 1849.99 809.784C1838.57 820.728 1824.13 828.788 1808.01 832.52V844.228C1827.41 840.24 1844.87 830.908 1858.39 817.844C1861.33 815.044 1864.02 812.075 1866.54 809.021L1860.15 798.077Z" fill="white"/>
<path d="M714.765 1426.82C717.284 1429.96 720.055 1432.85 722.91 1435.65C736.513 1448.71 753.894 1458.04 773.29 1462.03V1450.32C757.168 1446.59 742.726 1438.53 731.307 1427.59C727.528 1424.02 724.17 1420.04 721.147 1415.88L714.765 1426.82Z" fill="white"/>
<path d="M672.614 1414.61C685.293 1402.39 693.186 1385.51 693.186 1367.01V1315.77H705.109V1367.1C705.109 1376.09 706.621 1386.7 709.308 1394.84C712.078 1386.61 713.506 1376.09 713.506 1367.1V1315.77H725.429V1367.1C725.429 1385.59 733.322 1402.47 746.001 1414.69C753.558 1421.99 762.878 1427.59 773.29 1430.98V1442.94C759.603 1439.21 747.428 1432.17 737.604 1422.75C730.215 1415.71 724.254 1407.31 720.139 1397.98C717.032 1406.04 713.59 1413.67 709.308 1419.44C705.025 1413.67 701.583 1406.04 698.476 1397.98C694.278 1407.31 688.316 1415.62 681.011 1422.75C671.271 1432.17 659.012 1439.21 645.325 1442.94V1430.98C655.737 1427.59 665.057 1421.9 672.614 1414.61Z" fill="white"/>
<path d="M744.489 1366C744.489 1379.48 750.199 1391.79 759.519 1400.69C763.55 1404.51 768.168 1407.73 773.374 1410.19V1422.67C764.977 1419.61 757.42 1414.86 751.123 1408.84C739.703 1397.89 732.65 1382.71 732.65 1366.08V1354.46H744.573V1366H744.489Z" fill="white"/>
<path d="M674.21 1354.46H686.133V1366C686.133 1382.62 679.08 1397.81 667.66 1408.75C661.363 1414.78 653.806 1419.53 645.409 1422.58V1410.11C650.531 1407.73 655.233 1404.51 659.264 1400.61C668.5 1391.7 674.294 1379.4 674.294 1365.91V1354.46H674.21Z" fill="white"/>
<path d="M697.552 1415.96C694.529 1420.12 691.087 1424.02 687.392 1427.67C675.973 1438.61 661.531 1446.67 645.409 1450.41V1462.11C664.805 1458.13 682.27 1448.79 695.789 1435.73C698.728 1432.93 701.415 1429.96 703.934 1426.91L697.552 1415.96Z" fill="white"/>
<path d="M714.765 2044.71C717.284 2047.85 720.055 2050.73 722.91 2053.53C736.513 2066.6 753.894 2075.93 773.29 2079.91V2068.21C757.168 2064.47 742.726 2056.42 731.307 2045.47C727.528 2041.91 724.17 2037.92 721.147 2033.76L714.765 2044.71Z" fill="white"/>
<path d="M672.614 2032.49C685.293 2020.28 693.186 2003.39 693.186 1984.9V1933.66H705.109V1984.98C705.109 1993.98 706.621 2004.58 709.308 2012.72C712.078 2004.5 713.506 1993.98 713.506 1984.98V1933.66H725.429V1984.98C725.429 2003.48 733.322 2020.36 746.001 2032.58C753.558 2039.87 762.878 2045.47 773.29 2048.86V2060.83C759.603 2057.09 747.428 2050.05 737.604 2040.64C730.215 2033.59 724.254 2025.2 720.139 2015.86C717.032 2023.92 713.59 2031.56 709.308 2037.33C705.025 2031.56 701.583 2023.92 698.476 2015.86C694.278 2025.2 688.316 2033.51 681.011 2040.64C671.271 2050.05 659.012 2057.09 645.325 2060.83V2048.86C655.737 2045.47 665.057 2039.79 672.614 2032.49Z" fill="white"/>
<path d="M744.489 1983.88C744.489 1997.37 750.199 2009.67 759.519 2018.58C763.55 2022.4 768.168 2025.62 773.374 2028.08V2040.55C764.977 2037.5 757.42 2032.75 751.123 2026.72C739.703 2015.78 732.65 2000.59 732.65 1983.97V1972.34H744.573V1983.88H744.489Z" fill="white"/>
<path d="M674.21 1972.34H686.133V1983.88C686.133 2000.51 679.08 2015.69 667.66 2026.64C661.363 2032.66 653.806 2037.41 645.409 2040.47V2028C650.531 2025.62 655.233 2022.4 659.264 2018.49C668.5 2009.59 674.294 1997.28 674.294 1983.8V1972.34H674.21Z" fill="white"/>
<path d="M697.552 2033.85C694.529 2038.01 691.087 2041.91 687.392 2045.56C675.973 2056.5 661.531 2064.56 645.409 2068.29V2080C664.805 2076.01 682.27 2066.68 695.789 2053.62C698.728 2050.82 701.415 2047.85 703.934 2044.79L697.552 2033.85Z" fill="white"/>
<path d="M1877.37 1426.82C1879.89 1429.96 1882.66 1432.85 1885.51 1435.65C1899.11 1448.71 1916.5 1458.04 1935.89 1462.03V1450.32C1919.77 1446.59 1905.33 1438.53 1893.91 1427.59C1890.13 1424.02 1886.77 1420.04 1883.75 1415.88L1877.37 1426.82Z" fill="white"/>
<path d="M1835.22 1414.61C1847.89 1402.39 1855.79 1385.51 1855.79 1367.01V1315.77H1867.71V1367.1C1867.71 1376.09 1869.22 1386.7 1871.91 1394.84C1874.68 1386.61 1876.11 1376.09 1876.11 1367.1V1315.77H1888.03V1367.1C1888.03 1385.59 1895.92 1402.47 1908.6 1414.69C1916.16 1421.99 1925.48 1427.59 1935.89 1430.98V1442.94C1922.21 1439.21 1910.03 1432.17 1900.21 1422.75C1892.82 1415.71 1886.86 1407.31 1882.74 1397.98C1879.63 1406.04 1876.19 1413.67 1871.91 1419.44C1867.63 1413.67 1864.18 1406.04 1861.08 1397.98C1856.88 1407.31 1850.92 1415.62 1843.61 1422.75C1833.87 1432.17 1821.61 1439.21 1807.93 1442.94V1430.98C1818.34 1427.59 1827.66 1421.9 1835.22 1414.61Z" fill="white"/>
<path d="M1907.09 1366C1907.09 1379.48 1912.8 1391.79 1922.12 1400.69C1926.15 1404.51 1930.77 1407.73 1935.98 1410.19V1422.67C1927.58 1419.61 1920.02 1414.86 1913.72 1408.84C1902.31 1397.89 1895.25 1382.71 1895.25 1366.08V1354.46H1907.18V1366H1907.09Z" fill="white"/>
<path d="M1836.81 1354.46H1848.73V1366C1848.73 1382.62 1841.68 1397.81 1830.26 1408.75C1823.96 1414.78 1816.41 1419.53 1808.01 1422.58V1410.11C1813.13 1407.73 1817.83 1404.51 1821.87 1400.61C1831.1 1391.7 1836.9 1379.4 1836.9 1365.91V1354.46H1836.81Z" fill="white"/>
<path d="M1860.15 1415.96C1857.13 1420.12 1853.69 1424.02 1849.99 1427.67C1838.57 1438.61 1824.13 1446.67 1808.01 1450.41V1462.11C1827.41 1458.13 1844.87 1448.79 1858.39 1435.73C1861.33 1432.93 1864.02 1429.96 1866.54 1426.91L1860.15 1415.96Z" fill="white"/>
<path d="M424.115 499.993C426.634 503.132 429.405 506.017 432.26 508.816C445.862 521.881 463.243 531.213 482.64 535.2V523.493C466.518 519.76 452.076 511.701 440.656 500.757C436.878 497.194 433.519 493.206 430.496 489.049L424.115 499.993Z" fill="white"/>
<path d="M381.964 487.777C394.643 475.561 402.536 458.678 402.536 440.184V388.943H414.459V440.269C414.459 449.261 415.97 459.866 418.657 468.01C421.428 459.781 422.855 449.261 422.855 440.269V388.943H434.779V440.269C434.779 458.763 442.672 475.645 455.35 487.862C462.907 495.158 472.228 500.757 482.64 504.15V516.112C468.953 512.379 456.778 505.338 446.954 495.921C439.565 488.88 433.603 480.481 429.489 471.149C426.382 479.208 422.939 486.844 418.657 492.612C414.375 486.844 410.932 479.208 407.826 471.149C403.627 480.481 397.666 488.795 390.361 495.921C380.62 505.338 368.361 512.379 354.675 516.112V504.15C365.087 500.757 374.407 495.073 381.964 487.777Z" fill="white"/>
<path d="M453.839 439.166C453.839 452.655 459.549 464.956 468.869 473.864C472.899 477.681 477.518 480.905 482.724 483.365V495.836C474.327 492.782 466.77 488.031 460.472 482.008C449.053 471.064 442 455.879 442 439.251V427.628H453.923V439.166H453.839Z" fill="white"/>
<path d="M383.559 427.628H395.482V439.166C395.482 455.794 388.429 470.979 377.01 481.923C370.712 487.947 363.155 492.697 354.759 495.751V483.281C359.881 480.905 364.583 477.681 368.613 473.779C377.85 464.871 383.643 452.57 383.643 439.081V427.628H383.559Z" fill="white"/>
<path d="M406.902 489.134C403.879 493.291 400.436 497.194 396.742 500.842C385.323 511.785 370.88 519.845 354.759 523.577V535.285C374.155 531.298 391.62 521.966 405.139 508.901C408.077 506.101 410.764 503.132 413.283 500.078L406.902 489.134Z" fill="white"/>
<path d="M1586.72 499.993C1589.24 503.132 1592.01 506.016 1594.86 508.816C1608.46 521.88 1625.85 531.212 1645.24 535.2V523.492C1629.12 519.759 1614.68 511.7 1603.26 500.756C1599.48 497.193 1596.12 493.206 1593.1 489.049L1586.72 499.993Z" fill="white"/>
<path d="M1544.57 487.776C1557.24 475.56 1565.14 458.678 1565.14 440.184V388.943H1577.06V440.268C1577.06 449.261 1578.57 459.865 1581.26 468.01C1584.03 459.781 1585.46 449.261 1585.46 440.268V388.943H1597.38V440.268C1597.38 458.763 1605.27 475.645 1617.95 487.861C1625.51 495.157 1634.83 500.756 1645.24 504.15V516.111C1631.55 512.379 1619.38 505.337 1609.56 495.921C1602.17 488.879 1596.2 480.481 1592.09 471.149C1588.98 479.208 1585.54 486.843 1581.26 492.612C1576.98 486.843 1573.53 479.208 1570.43 471.149C1566.23 480.481 1560.27 488.794 1552.96 495.921C1543.22 505.337 1530.96 512.379 1517.28 516.111V504.15C1527.69 500.756 1537.01 495.072 1544.57 487.776Z" fill="white"/>
<path d="M1616.44 439.166C1616.44 452.654 1622.15 464.956 1631.47 473.863C1635.5 477.681 1640.12 480.905 1645.33 483.365V495.836C1636.93 492.782 1629.37 488.031 1623.07 482.008C1611.65 471.064 1604.6 455.878 1604.6 439.25V427.628H1616.52V439.166H1616.44Z" fill="white"/>
<path d="M1546.16 427.628H1558.08V439.166C1558.08 455.793 1551.03 470.979 1539.61 481.923C1533.31 487.946 1525.76 492.697 1517.36 495.751V483.28C1522.48 480.905 1527.18 477.681 1531.21 473.778C1540.45 464.871 1546.24 452.57 1546.24 439.081V427.628H1546.16Z" fill="white"/>
<path d="M1569.5 489.134C1566.48 493.291 1563.04 497.193 1559.34 500.841C1547.92 511.785 1533.48 519.844 1517.36 523.577V535.284C1536.76 531.297 1554.22 521.965 1567.74 508.9C1570.68 506.101 1573.37 503.132 1575.89 500.078L1569.5 489.134Z" fill="white"/>
<path d="M1877.44 191.05C1879.96 194.189 1882.73 197.073 1885.58 199.873C1899.19 212.937 1916.57 222.269 1935.96 226.257V214.549C1919.84 210.817 1905.4 202.757 1893.98 191.813C1890.2 188.25 1886.84 184.263 1883.82 180.106L1877.44 191.05Z" fill="white"/>
<path d="M1835.29 178.833C1847.97 166.617 1855.86 149.735 1855.86 131.241V80H1867.78V131.326C1867.78 140.318 1869.3 150.923 1871.98 159.067C1874.75 150.838 1876.18 140.318 1876.18 131.326V80H1888.1V131.326C1888.1 149.82 1896 166.702 1908.68 178.918C1916.23 186.214 1925.55 191.813 1935.96 195.207V207.169C1922.28 203.436 1910.1 196.394 1900.28 186.978C1892.89 179.936 1886.93 171.538 1882.81 162.206C1879.71 170.265 1876.26 177.9 1871.98 183.669C1867.7 177.9 1864.26 170.265 1861.15 162.206C1856.95 171.538 1850.99 179.852 1843.69 186.978C1833.95 196.394 1821.69 203.436 1808 207.169V195.207C1818.41 191.813 1827.73 186.129 1835.29 178.833Z" fill="white"/>
<path d="M1907.16 130.223C1907.16 143.712 1912.87 156.013 1922.19 164.92C1926.22 168.738 1930.84 171.962 1936.05 174.422V186.893C1927.65 183.839 1920.1 179.088 1913.8 173.065C1902.38 162.121 1895.33 146.935 1895.33 130.308V118.685H1907.25V130.223H1907.16Z" fill="white"/>
<path d="M1836.88 118.685H1848.81V130.223C1848.81 146.85 1841.75 162.036 1830.34 172.98C1824.04 179.003 1816.48 183.754 1808.08 186.808V174.337C1813.21 171.962 1817.91 168.738 1821.94 164.836C1831.17 155.928 1836.97 143.627 1836.97 130.138V118.685H1836.88Z" fill="white"/>
<path d="M1860.23 180.191C1857.2 184.348 1853.76 188.25 1850.07 191.898C1838.65 202.842 1824.21 210.901 1808.08 214.634V226.341C1827.48 222.354 1844.95 213.022 1858.46 199.958C1861.4 197.158 1864.09 194.189 1866.61 191.135L1860.23 180.191Z" fill="white"/>
<path d="M1005.42 499.993C1007.93 503.132 1010.71 506.017 1013.56 508.816C1027.16 521.881 1044.54 531.213 1063.94 535.2V523.493C1047.82 519.76 1033.38 511.701 1021.96 500.757C1018.18 497.194 1014.82 493.206 1011.8 489.049L1005.42 499.993Z" fill="white"/>
<path d="M963.265 487.777C975.944 475.561 983.836 458.678 983.836 440.184V388.943H995.76V440.269C995.76 449.261 997.271 459.866 999.958 468.01C1002.73 459.781 1004.16 449.261 1004.16 440.269V388.943H1016.08V440.269C1016.08 458.763 1023.97 475.645 1036.65 487.862C1044.21 495.158 1053.53 500.757 1063.94 504.15V516.112C1050.25 512.379 1038.08 505.338 1028.25 495.921C1020.87 488.88 1014.9 480.481 1010.79 471.149C1007.68 479.208 1004.24 486.844 999.958 492.612C995.676 486.844 992.233 479.208 989.126 471.149C984.928 480.481 978.966 488.795 971.661 495.921C961.921 505.338 949.662 512.379 935.976 516.112V504.15C946.387 500.757 955.708 495.073 963.265 487.777Z" fill="white"/>
<path d="M1035.14 439.166C1035.14 452.655 1040.85 464.956 1050.17 473.864C1054.2 477.681 1058.82 480.905 1064.02 483.365V495.836C1055.63 492.782 1048.07 488.031 1041.77 482.008C1030.35 471.064 1023.3 455.879 1023.3 439.251V427.628H1035.22V439.166H1035.14Z" fill="white"/>
<path d="M964.86 427.628H976.783V439.166C976.783 455.794 969.73 470.979 958.311 481.923C952.013 487.947 944.456 492.697 936.06 495.751V483.281C941.182 480.905 945.884 477.681 949.914 473.779C959.15 464.871 964.944 452.57 964.944 439.081V427.628H964.86Z" fill="white"/>
<path d="M988.203 489.134C985.18 493.291 981.737 497.194 978.043 500.842C966.623 511.785 952.181 519.845 936.06 523.577V535.285C955.456 531.298 972.921 521.966 986.439 508.901C989.378 506.101 992.065 503.132 994.584 500.078L988.203 489.134Z" fill="white"/>
<path d="M1586.72 1117.88C1589.24 1121.02 1592.01 1123.9 1594.86 1126.7C1608.46 1139.77 1625.85 1149.1 1645.24 1153.09V1141.38C1629.12 1137.65 1614.68 1129.59 1603.26 1118.64C1599.48 1115.08 1596.12 1111.09 1593.1 1106.94L1586.72 1117.88Z" fill="white"/>
<path d="M1544.57 1105.66C1557.24 1093.45 1565.14 1076.56 1565.14 1058.07V1006.83H1577.06V1058.15C1577.06 1067.15 1578.57 1077.75 1581.26 1085.9C1584.03 1077.67 1585.46 1067.15 1585.46 1058.15V1006.83H1597.38V1058.15C1597.38 1076.65 1605.27 1093.53 1617.95 1105.75C1625.51 1113.04 1634.83 1118.64 1645.24 1122.04V1134C1631.55 1130.26 1619.38 1123.22 1609.56 1113.81C1602.17 1106.77 1596.2 1098.37 1592.09 1089.03C1588.98 1097.09 1585.54 1104.73 1581.26 1110.5C1576.98 1104.73 1573.53 1097.09 1570.43 1089.03C1566.23 1098.37 1560.27 1106.68 1552.96 1113.81C1543.22 1123.22 1530.96 1130.26 1517.28 1134V1122.04C1527.69 1118.64 1537.01 1112.96 1544.57 1105.66Z" fill="white"/>
<path d="M1616.44 1057.05C1616.44 1070.54 1622.15 1082.84 1631.47 1091.75C1635.5 1095.57 1640.12 1098.79 1645.33 1101.25V1113.72C1636.93 1110.67 1629.37 1105.92 1623.07 1099.89C1611.65 1088.95 1604.6 1073.76 1604.6 1057.14V1045.51H1616.52V1057.05H1616.44Z" fill="white"/>
<path d="M1546.16 1045.51H1558.08V1057.05C1558.08 1073.68 1551.03 1088.87 1539.61 1099.81C1533.31 1105.83 1525.76 1110.58 1517.36 1113.64V1101.17C1522.48 1098.79 1527.18 1095.57 1531.21 1091.66C1540.45 1082.76 1546.24 1070.46 1546.24 1056.97V1045.51H1546.16Z" fill="white"/>
<path d="M1569.5 1107.02C1566.48 1111.18 1563.04 1115.08 1559.34 1118.73C1547.92 1129.67 1533.48 1137.73 1517.36 1141.46V1153.17C1536.76 1149.18 1554.22 1139.85 1567.74 1126.79C1570.68 1123.99 1573.37 1121.02 1575.89 1117.96L1569.5 1107.02Z" fill="white"/>
<path d="M1005.42 1117.88C1007.93 1121.02 1010.71 1123.9 1013.56 1126.7C1027.16 1139.77 1044.54 1149.1 1063.94 1153.09V1141.38C1047.82 1137.65 1033.38 1129.59 1021.96 1118.64C1018.18 1115.08 1014.82 1111.09 1011.8 1106.94L1005.42 1117.88Z" fill="white"/>
<path d="M963.265 1105.66C975.944 1093.45 983.836 1076.56 983.836 1058.07V1006.83H995.76V1058.15C995.76 1067.15 997.271 1077.75 999.958 1085.9C1002.73 1077.67 1004.16 1067.15 1004.16 1058.15V1006.83H1016.08V1058.15C1016.08 1076.65 1023.97 1093.53 1036.65 1105.75C1044.21 1113.04 1053.53 1118.64 1063.94 1122.04V1134C1050.25 1130.26 1038.08 1123.22 1028.25 1113.81C1020.87 1106.77 1014.9 1098.37 1010.79 1089.03C1007.68 1097.09 1004.24 1104.73 999.958 1110.5C995.676 1104.73 992.233 1097.09 989.126 1089.03C984.928 1098.37 978.966 1106.68 971.661 1113.81C961.921 1123.22 949.662 1130.26 935.976 1134V1122.04C946.387 1118.64 955.708 1112.96 963.265 1105.66Z" fill="white"/>
<path d="M1035.14 1057.05C1035.14 1070.54 1040.85 1082.84 1050.17 1091.75C1054.2 1095.57 1058.82 1098.79 1064.02 1101.25V1113.72C1055.63 1110.67 1048.07 1105.92 1041.77 1099.89C1030.35 1088.95 1023.3 1073.76 1023.3 1057.14V1045.51H1035.22V1057.05H1035.14Z" fill="white"/>
<path d="M964.86 1045.51H976.783V1057.05C976.783 1073.68 969.73 1088.87 958.311 1099.81C952.013 1105.83 944.456 1110.58 936.06 1113.64V1101.17C941.182 1098.79 945.884 1095.57 949.914 1091.66C959.15 1082.76 964.944 1070.46 964.944 1056.97V1045.51H964.86Z" fill="white"/>
<path d="M988.203 1107.02C985.18 1111.18 981.737 1115.08 978.043 1118.73C966.623 1129.67 952.181 1137.73 936.06 1141.46V1153.17C955.456 1149.18 972.921 1139.85 986.439 1126.79C989.378 1123.99 992.065 1121.02 994.584 1117.96L988.203 1107.02Z" fill="white"/>
<path d="M424.115 1735.77C426.634 1738.9 429.405 1741.79 432.26 1744.59C445.862 1757.65 463.243 1766.99 482.64 1770.97V1759.27C466.518 1755.53 452.076 1747.47 440.656 1736.53C436.878 1732.97 433.519 1728.98 430.496 1724.82L424.115 1735.77Z" fill="white"/>
<path d="M381.964 1723.55C394.643 1711.33 402.536 1694.45 402.536 1675.96V1624.72H414.459V1676.04C414.459 1685.03 415.97 1695.64 418.657 1703.78C421.428 1695.55 422.855 1685.03 422.855 1676.04V1624.72H434.779V1676.04C434.779 1694.54 442.672 1711.42 455.35 1723.63C462.907 1730.93 472.228 1736.53 482.64 1739.92V1751.88C468.953 1748.15 456.778 1741.11 446.954 1731.69C439.565 1724.65 433.603 1716.25 429.489 1706.92C426.382 1714.98 422.939 1722.62 418.657 1728.38C414.375 1722.62 410.932 1714.98 407.826 1706.92C403.627 1716.25 397.666 1724.57 390.361 1731.69C380.62 1741.11 368.361 1748.15 354.675 1751.88V1739.92C365.087 1736.53 374.407 1730.85 381.964 1723.55Z" fill="white"/>
<path d="M453.839 1674.94C453.839 1688.43 459.549 1700.73 468.869 1709.64C472.899 1713.45 477.518 1716.68 482.724 1719.14V1731.61C474.327 1728.55 466.77 1723.8 460.472 1717.78C449.053 1706.84 442 1691.65 442 1675.02V1663.4H453.923V1674.94H453.839Z" fill="white"/>
<path d="M383.559 1663.4H395.482V1674.94C395.482 1691.57 388.429 1706.75 377.01 1717.7C370.712 1723.72 363.155 1728.47 354.759 1731.52V1719.05C359.881 1716.68 364.583 1713.45 368.613 1709.55C377.85 1700.64 383.643 1688.34 383.643 1674.85V1663.4H383.559Z" fill="white"/>
<path d="M406.902 1724.91C403.879 1729.06 400.436 1732.97 396.742 1736.61C385.323 1747.56 370.88 1755.62 354.759 1759.35V1771.06C374.155 1767.07 391.62 1757.74 405.139 1744.67C408.077 1741.87 410.764 1738.9 413.283 1735.85L406.902 1724.91Z" fill="white"/>
<path d="M1586.72 1735.77C1589.24 1738.9 1592.01 1741.79 1594.86 1744.59C1608.46 1757.65 1625.85 1766.99 1645.24 1770.97V1759.27C1629.12 1755.53 1614.68 1747.47 1603.26 1736.53C1599.48 1732.97 1596.12 1728.98 1593.1 1724.82L1586.72 1735.77Z" fill="white"/>
<path d="M1544.57 1723.55C1557.24 1711.33 1565.14 1694.45 1565.14 1675.96V1624.72H1577.06V1676.04C1577.06 1685.03 1578.57 1695.64 1581.26 1703.78C1584.03 1695.55 1585.46 1685.03 1585.46 1676.04V1624.72H1597.38V1676.04C1597.38 1694.54 1605.27 1711.42 1617.95 1723.63C1625.51 1730.93 1634.83 1736.53 1645.24 1739.92V1751.88C1631.55 1748.15 1619.38 1741.11 1609.56 1731.69C1602.17 1724.65 1596.2 1716.25 1592.09 1706.92C1588.98 1714.98 1585.54 1722.62 1581.26 1728.38C1576.98 1722.62 1573.53 1714.98 1570.43 1706.92C1566.23 1716.25 1560.27 1724.57 1552.96 1731.69C1543.22 1741.11 1530.96 1748.15 1517.28 1751.88V1739.92C1527.69 1736.53 1537.01 1730.85 1544.57 1723.55Z" fill="white"/>
<path d="M1616.44 1674.94C1616.44 1688.43 1622.15 1700.73 1631.47 1709.64C1635.5 1713.45 1640.12 1716.68 1645.33 1719.14V1731.61C1636.93 1728.55 1629.37 1723.8 1623.07 1717.78C1611.65 1706.84 1604.6 1691.65 1604.6 1675.02V1663.4H1616.52V1674.94H1616.44Z" fill="white"/>
<path d="M1546.16 1663.4H1558.08V1674.94C1558.08 1691.57 1551.03 1706.75 1539.61 1717.7C1533.31 1723.72 1525.76 1728.47 1517.36 1731.52V1719.05C1522.48 1716.68 1527.18 1713.45 1531.21 1709.55C1540.45 1700.64 1546.24 1688.34 1546.24 1674.85V1663.4H1546.16Z" fill="white"/>
<path d="M1569.5 1724.91C1566.48 1729.06 1563.04 1732.97 1559.34 1736.61C1547.92 1747.56 1533.48 1755.62 1517.36 1759.35V1771.06C1536.76 1767.07 1554.22 1757.74 1567.74 1744.67C1570.68 1741.87 1573.37 1738.9 1575.89 1735.85L1569.5 1724.91Z" fill="white"/>
<path d="M1005.42 1735.77C1007.93 1738.9 1010.71 1741.79 1013.56 1744.59C1027.16 1757.65 1044.54 1766.99 1063.94 1770.97V1759.27C1047.82 1755.53 1033.38 1747.47 1021.96 1736.53C1018.18 1732.97 1014.82 1728.98 1011.8 1724.82L1005.42 1735.77Z" fill="white"/>
<path d="M963.265 1723.55C975.944 1711.33 983.836 1694.45 983.836 1675.96V1624.72H995.76V1676.04C995.76 1685.03 997.271 1695.64 999.958 1703.78C1002.73 1695.55 1004.16 1685.03 1004.16 1676.04V1624.72H1016.08V1676.04C1016.08 1694.54 1023.97 1711.42 1036.65 1723.63C1044.21 1730.93 1053.53 1736.53 1063.94 1739.92V1751.88C1050.25 1748.15 1038.08 1741.11 1028.25 1731.69C1020.87 1724.65 1014.9 1716.25 1010.79 1706.92C1007.68 1714.98 1004.24 1722.62 999.958 1728.38C995.676 1722.62 992.233 1714.98 989.126 1706.92C984.928 1716.25 978.966 1724.57 971.661 1731.69C961.921 1741.11 949.662 1748.15 935.976 1751.88V1739.92C946.387 1736.53 955.708 1730.85 963.265 1723.55Z" fill="white"/>
<path d="M1035.14 1674.94C1035.14 1688.43 1040.85 1700.73 1050.17 1709.64C1054.2 1713.45 1058.82 1716.68 1064.02 1719.14V1731.61C1055.63 1728.55 1048.07 1723.8 1041.77 1717.78C1030.35 1706.84 1023.3 1691.65 1023.3 1675.02V1663.4H1035.22V1674.94H1035.14Z" fill="white"/>
<path d="M964.86 1663.4H976.783V1674.94C976.783 1691.57 969.73 1706.75 958.311 1717.7C952.013 1723.72 944.456 1728.47 936.06 1731.52V1719.05C941.182 1716.68 945.884 1713.45 949.914 1709.55C959.15 1700.64 964.944 1688.34 964.944 1674.85V1663.4H964.86Z" fill="white"/>
<path d="M988.203 1724.91C985.18 1729.06 981.737 1732.97 978.043 1736.61C966.623 1747.56 952.181 1755.62 936.06 1759.35V1771.06C955.456 1767.07 972.921 1757.74 986.439 1744.67C989.378 1741.87 992.065 1738.9 994.584 1735.85L988.203 1724.91Z" fill="white"/>
<path d="M2957.39 191.05C2959.91 194.189 2962.68 197.073 2965.54 199.873C2979.14 212.937 2996.52 222.269 3015.92 226.257V214.549C2999.79 210.817 2985.35 202.757 2973.93 191.813C2970.15 188.25 2966.8 184.263 2963.77 180.106L2957.39 191.05Z" fill="white"/>
<path d="M2915.24 178.833C2927.92 166.617 2935.81 149.735 2935.81 131.241V80H2947.74V131.326C2947.74 140.318 2949.25 150.923 2951.93 159.067C2954.7 150.838 2956.13 140.318 2956.13 131.326V80H2968.06V131.326C2968.06 149.82 2975.95 166.702 2988.63 178.918C2996.18 186.214 3005.5 191.813 3015.92 195.207V207.169C3002.23 203.436 2990.05 196.394 2980.23 186.978C2972.84 179.936 2966.88 171.538 2962.77 162.206C2959.66 170.265 2956.22 177.9 2951.93 183.669C2947.65 177.9 2944.21 170.265 2941.1 162.206C2936.9 171.538 2930.94 179.852 2923.64 186.978C2913.9 196.394 2901.64 203.436 2887.95 207.169V195.207C2898.36 191.813 2907.68 186.129 2915.24 178.833Z" fill="white"/>
<path d="M2987.12 130.223C2987.12 143.712 2992.83 156.013 3002.15 164.92C3006.18 168.738 3010.79 171.962 3016 174.422V186.893C3007.6 183.839 3000.05 179.088 2993.75 173.065C2982.33 162.121 2975.28 146.935 2975.28 130.308V118.685H2987.2V130.223H2987.12Z" fill="white"/>
<path d="M2916.84 118.685H2928.76V130.223C2928.76 146.85 2921.71 162.036 2910.29 172.98C2903.99 179.003 2896.43 183.754 2888.04 186.808V174.337C2893.16 171.962 2897.86 168.738 2901.89 164.836C2911.13 155.928 2916.92 143.627 2916.92 130.138V118.685H2916.84Z" fill="white"/>
<path d="M2940.18 180.191C2937.16 184.348 2933.71 188.25 2930.02 191.898C2918.6 202.842 2904.16 210.901 2888.04 214.634V226.341C2907.43 222.354 2924.9 213.022 2938.41 199.958C2941.35 197.158 2944.04 194.189 2946.56 191.135L2940.18 180.191Z" fill="white"/>
<path d="M2957.39 808.936C2959.91 812.075 2962.68 814.959 2965.54 817.759C2979.14 830.824 2996.52 840.156 3015.92 844.143V832.436C2999.79 828.703 2985.35 820.643 2973.93 809.7C2970.15 806.136 2966.8 802.149 2963.77 797.992L2957.39 808.936Z" fill="white"/>
<path d="M2915.24 796.72C2927.92 784.503 2935.81 767.621 2935.81 749.127V697.886H2947.74V749.212C2947.74 758.204 2949.25 768.809 2951.93 776.953C2954.7 768.724 2956.13 758.204 2956.13 749.212V697.886H2968.06V749.212C2968.06 767.706 2975.95 784.588 2988.63 796.805C2996.18 804.1 3005.5 809.7 3015.92 813.093V825.055C3002.23 821.322 2990.05 814.281 2980.23 804.864C2972.84 797.823 2966.88 789.424 2962.77 780.092C2959.66 788.151 2956.22 795.787 2951.93 801.555C2947.65 795.787 2944.21 788.151 2941.1 780.092C2936.9 789.424 2930.94 797.738 2923.64 804.864C2913.9 814.281 2901.64 821.322 2887.95 825.055V813.093C2898.36 809.7 2907.68 804.016 2915.24 796.72Z" fill="white"/>
<path d="M2987.12 748.109C2987.12 761.598 2992.83 773.899 3002.15 782.807C3006.18 786.624 3010.79 789.848 3016 792.308V804.779C3007.6 801.725 3000.05 796.974 2993.75 790.951C2982.33 780.007 2975.28 764.822 2975.28 748.194V736.571H2987.2V748.109H2987.12Z" fill="white"/>
<path d="M2916.84 736.571H2928.76V748.109C2928.76 764.737 2921.71 779.922 2910.29 790.866C2903.99 796.889 2896.43 801.64 2888.04 804.694V792.223C2893.16 789.848 2897.86 786.624 2901.89 782.722C2911.13 773.814 2916.92 761.513 2916.92 748.024V736.571H2916.84Z" fill="white"/>
<path d="M2940.18 798.077C2937.16 802.234 2933.71 806.136 2930.02 809.784C2918.6 820.728 2904.16 828.788 2888.04 832.52V844.228C2907.43 840.24 2924.9 830.908 2938.41 817.844C2941.35 815.044 2944.04 812.075 2946.56 809.021L2940.18 798.077Z" fill="white"/>
<path d="M2957.39 1426.82C2959.91 1429.96 2962.68 1432.85 2965.54 1435.65C2979.14 1448.71 2996.52 1458.04 3015.92 1462.03V1450.32C2999.79 1446.59 2985.35 1438.53 2973.93 1427.59C2970.15 1424.02 2966.8 1420.04 2963.77 1415.88L2957.39 1426.82Z" fill="white"/>
<path d="M2915.24 1414.61C2927.92 1402.39 2935.81 1385.51 2935.81 1367.01V1315.77H2947.74V1367.1C2947.74 1376.09 2949.25 1386.7 2951.93 1394.84C2954.7 1386.61 2956.13 1376.09 2956.13 1367.1V1315.77H2968.06V1367.1C2968.06 1385.59 2975.95 1402.47 2988.63 1414.69C2996.18 1421.99 3005.5 1427.59 3015.92 1430.98V1442.94C3002.23 1439.21 2990.05 1432.17 2980.23 1422.75C2972.84 1415.71 2966.88 1407.31 2962.77 1397.98C2959.66 1406.04 2956.22 1413.67 2951.93 1419.44C2947.65 1413.67 2944.21 1406.04 2941.1 1397.98C2936.9 1407.31 2930.94 1415.62 2923.64 1422.75C2913.9 1432.17 2901.64 1439.21 2887.95 1442.94V1430.98C2898.36 1427.59 2907.68 1421.9 2915.24 1414.61Z" fill="white"/>
<path d="M2987.12 1366C2987.12 1379.48 2992.83 1391.79 3002.15 1400.69C3006.18 1404.51 3010.79 1407.73 3016 1410.19V1422.67C3007.6 1419.61 3000.05 1414.86 2993.75 1408.84C2982.33 1397.89 2975.28 1382.71 2975.28 1366.08V1354.46H2987.2V1366H2987.12Z" fill="white"/>
<path d="M2916.84 1354.46H2928.76V1366C2928.76 1382.62 2921.71 1397.81 2910.29 1408.75C2903.99 1414.78 2896.43 1419.53 2888.04 1422.58V1410.11C2893.16 1407.73 2897.86 1404.51 2901.89 1400.61C2911.13 1391.7 2916.92 1379.4 2916.92 1365.91V1354.46H2916.84Z" fill="white"/>
<path d="M2940.18 1415.96C2937.16 1420.12 2933.71 1424.02 2930.02 1427.67C2918.6 1438.61 2904.16 1446.67 2888.04 1450.41V1462.11C2907.43 1458.13 2924.9 1448.79 2938.41 1435.73C2941.35 1432.93 2944.04 1429.96 2946.56 1426.91L2940.18 1415.96Z" fill="white"/>
<path d="M2957.39 2044.71C2959.91 2047.85 2962.68 2050.73 2965.54 2053.53C2979.14 2066.6 2996.52 2075.93 3015.92 2079.91V2068.21C2999.79 2064.47 2985.35 2056.42 2973.93 2045.47C2970.15 2041.91 2966.8 2037.92 2963.77 2033.76L2957.39 2044.71Z" fill="white"/>
<path d="M2915.24 2032.49C2927.92 2020.28 2935.81 2003.39 2935.81 1984.9V1933.66H2947.74V1984.98C2947.74 1993.98 2949.25 2004.58 2951.93 2012.72C2954.7 2004.5 2956.13 1993.98 2956.13 1984.98V1933.66H2968.06V1984.98C2968.06 2003.48 2975.95 2020.36 2988.63 2032.58C2996.18 2039.87 3005.5 2045.47 3015.92 2048.86V2060.83C3002.23 2057.09 2990.05 2050.05 2980.23 2040.64C2972.84 2033.59 2966.88 2025.2 2962.77 2015.86C2959.66 2023.92 2956.22 2031.56 2951.93 2037.33C2947.65 2031.56 2944.21 2023.92 2941.1 2015.86C2936.9 2025.2 2930.94 2033.51 2923.64 2040.64C2913.9 2050.05 2901.64 2057.09 2887.95 2060.83V2048.86C2898.36 2045.47 2907.68 2039.79 2915.24 2032.49Z" fill="white"/>
<path d="M2987.12 1983.88C2987.12 1997.37 2992.83 2009.67 3002.15 2018.58C3006.18 2022.4 3010.79 2025.62 3016 2028.08V2040.55C3007.6 2037.5 3000.05 2032.75 2993.75 2026.72C2982.33 2015.78 2975.28 2000.59 2975.28 1983.97V1972.34H2987.2V1983.88H2987.12Z" fill="white"/>
<path d="M2916.84 1972.34H2928.76V1983.88C2928.76 2000.51 2921.71 2015.69 2910.29 2026.64C2903.99 2032.66 2896.43 2037.41 2888.04 2040.47V2028C2893.16 2025.62 2897.86 2022.4 2901.89 2018.49C2911.13 2009.59 2916.92 1997.28 2916.92 1983.8V1972.34H2916.84Z" fill="white"/>
<path d="M2940.18 2033.85C2937.16 2038.01 2933.71 2041.91 2930.02 2045.56C2918.6 2056.5 2904.16 2064.56 2888.04 2068.29V2080C2907.43 2076.01 2924.9 2066.68 2938.41 2053.62C2941.35 2050.82 2944.04 2047.85 2946.56 2044.79L2940.18 2033.85Z" fill="white"/>
<path d="M2376.09 191.05C2378.61 194.189 2381.38 197.073 2384.24 199.873C2397.84 212.937 2415.22 222.269 2434.62 226.257V214.549C2418.49 210.817 2404.05 202.757 2392.63 191.813C2388.85 188.25 2385.49 184.263 2382.47 180.106L2376.09 191.05Z" fill="white"/>
<path d="M2333.94 178.833C2346.62 166.617 2354.51 149.735 2354.51 131.241V80H2366.43V131.326C2366.43 140.318 2367.95 150.923 2370.63 159.067C2373.4 150.838 2374.83 140.318 2374.83 131.326V80H2386.75V131.326C2386.75 149.82 2394.65 166.702 2407.33 178.918C2414.88 186.214 2424.2 191.813 2434.62 195.207V207.169C2420.93 203.436 2408.75 196.394 2398.93 186.978C2391.54 179.936 2385.58 171.538 2381.46 162.206C2378.36 170.265 2374.92 177.9 2370.63 183.669C2366.35 177.9 2362.91 170.265 2359.8 162.206C2355.6 171.538 2349.64 179.852 2342.34 186.978C2332.6 196.394 2320.34 203.436 2306.65 207.169V195.207C2317.06 191.813 2326.38 186.129 2333.94 178.833Z" fill="white"/>
<path d="M2405.81 130.223C2405.81 143.712 2411.52 156.013 2420.84 164.92C2424.88 168.738 2429.49 171.962 2434.7 174.422V186.893C2426.3 183.839 2418.75 179.088 2412.45 173.065C2401.03 162.121 2393.98 146.935 2393.98 130.308V118.685H2405.9V130.223H2405.81Z" fill="white"/>
<path d="M2335.53 118.685H2347.46V130.223C2347.46 146.85 2340.4 162.036 2328.99 172.98C2322.69 179.003 2315.13 183.754 2306.73 186.808V174.337C2311.86 171.962 2316.56 168.738 2320.59 164.836C2329.83 155.928 2335.62 143.627 2335.62 130.138V118.685H2335.53Z" fill="white"/>
<path d="M2358.88 180.191C2355.85 184.348 2352.41 188.25 2348.72 191.898C2337.3 202.842 2322.86 210.901 2306.73 214.634V226.341C2326.13 222.354 2343.6 213.022 2357.11 199.958C2360.05 197.158 2362.74 194.189 2365.26 191.135L2358.88 180.191Z" fill="white"/>
<path d="M3538.69 191.05C3541.21 194.189 3543.98 197.073 3546.84 199.873C3560.44 212.937 3577.82 222.269 3597.22 226.257V214.549C3581.1 210.817 3566.65 202.757 3555.23 191.813C3551.46 188.25 3548.1 184.263 3545.07 180.106L3538.69 191.05Z" fill="white"/>
<path d="M3496.54 178.833C3509.22 166.617 3517.11 149.735 3517.11 131.241V80H3529.04V131.326C3529.04 140.318 3530.55 150.923 3533.23 159.067C3536.01 150.838 3537.43 140.318 3537.43 131.326V80H3549.36V131.326C3549.36 149.82 3557.25 166.702 3569.93 178.918C3577.48 186.214 3586.8 191.813 3597.22 195.207V207.169C3583.53 203.436 3571.36 196.394 3561.53 186.978C3554.14 179.936 3548.18 171.538 3544.07 162.206C3540.96 170.265 3537.52 177.9 3533.23 183.669C3528.95 177.9 3525.51 170.265 3522.4 162.206C3518.2 171.538 3512.24 179.852 3504.94 186.978C3495.2 196.394 3482.94 203.436 3469.25 207.169V195.207C3479.66 191.813 3488.98 186.129 3496.54 178.833Z" fill="white"/>
<path d="M3568.42 130.223C3568.42 143.712 3574.13 156.013 3583.45 164.92C3587.48 168.738 3592.09 171.962 3597.3 174.422V186.893C3588.9 183.839 3581.35 179.088 3575.05 173.065C3563.63 162.121 3556.58 146.935 3556.58 130.308V118.685H3568.5V130.223H3568.42Z" fill="white"/>
<path d="M3498.14 118.685H3510.06V130.223C3510.06 146.85 3503.01 162.036 3491.59 172.98C3485.29 179.003 3477.73 183.754 3469.34 186.808V174.337C3474.46 171.962 3479.16 168.738 3483.19 164.836C3492.43 155.928 3498.22 143.627 3498.22 130.138V118.685H3498.14Z" fill="white"/>
<path d="M3521.48 180.191C3518.46 184.348 3515.01 188.25 3511.32 191.898C3499.9 202.842 3485.46 210.901 3469.34 214.634V226.341C3488.73 222.354 3506.2 213.022 3519.72 199.958C3522.65 197.158 3525.34 194.189 3527.86 191.135L3521.48 180.191Z" fill="white"/>
<path d="M2376.09 808.936C2378.61 812.075 2381.38 814.959 2384.24 817.759C2397.84 830.824 2415.22 840.156 2434.62 844.143V832.436C2418.49 828.703 2404.05 820.643 2392.63 809.7C2388.85 806.136 2385.49 802.149 2382.47 797.992L2376.09 808.936Z" fill="white"/>
<path d="M2333.94 796.72C2346.62 784.503 2354.51 767.621 2354.51 749.127V697.886H2366.43V749.212C2366.43 758.204 2367.95 768.809 2370.63 776.953C2373.4 768.724 2374.83 758.204 2374.83 749.212V697.886H2386.75V749.212C2386.75 767.706 2394.65 784.588 2407.33 796.805C2414.88 804.1 2424.2 809.7 2434.62 813.093V825.055C2420.93 821.322 2408.75 814.281 2398.93 804.864C2391.54 797.823 2385.58 789.424 2381.46 780.092C2378.36 788.151 2374.92 795.787 2370.63 801.555C2366.35 795.787 2362.91 788.151 2359.8 780.092C2355.6 789.424 2349.64 797.738 2342.34 804.864C2332.6 814.281 2320.34 821.322 2306.65 825.055V813.093C2317.06 809.7 2326.38 804.016 2333.94 796.72Z" fill="white"/>
<path d="M2405.81 748.109C2405.81 761.598 2411.52 773.899 2420.84 782.807C2424.88 786.624 2429.49 789.848 2434.7 792.308V804.779C2426.3 801.725 2418.75 796.974 2412.45 790.951C2401.03 780.007 2393.98 764.822 2393.98 748.194V736.571H2405.9V748.109H2405.81Z" fill="white"/>
<path d="M2335.53 736.571H2347.46V748.109C2347.46 764.737 2340.4 779.922 2328.99 790.866C2322.69 796.889 2315.13 801.64 2306.73 804.694V792.223C2311.86 789.848 2316.56 786.624 2320.59 782.722C2329.83 773.814 2335.62 761.513 2335.62 748.024V736.571H2335.53Z" fill="white"/>
<path d="M2358.88 798.077C2355.85 802.234 2352.41 806.136 2348.72 809.784C2337.3 820.728 2322.86 828.788 2306.73 832.52V844.228C2326.13 840.24 2343.6 830.908 2357.11 817.844C2360.05 815.044 2362.74 812.075 2365.26 809.021L2358.88 798.077Z" fill="white"/>
<path d="M3538.69 808.936C3541.21 812.075 3543.98 814.959 3546.84 817.759C3560.44 830.824 3577.82 840.156 3597.22 844.143V832.436C3581.1 828.703 3566.65 820.643 3555.23 809.7C3551.46 806.136 3548.1 802.149 3545.07 797.992L3538.69 808.936Z" fill="white"/>
<path d="M3496.54 796.72C3509.22 784.503 3517.11 767.621 3517.11 749.127V697.886H3529.04V749.212C3529.04 758.204 3530.55 768.809 3533.23 776.953C3536.01 768.724 3537.43 758.204 3537.43 749.212V697.886H3549.36V749.212C3549.36 767.706 3557.25 784.588 3569.93 796.805C3577.48 804.1 3586.8 809.7 3597.22 813.093V825.055C3583.53 821.322 3571.36 814.281 3561.53 804.864C3554.14 797.823 3548.18 789.424 3544.07 780.092C3540.96 788.151 3537.52 795.787 3533.23 801.555C3528.95 795.787 3525.51 788.151 3522.4 780.092C3518.2 789.424 3512.24 797.738 3504.94 804.864C3495.2 814.281 3482.94 821.322 3469.25 825.055V813.093C3479.66 809.7 3488.98 804.016 3496.54 796.72Z" fill="white"/>
<path d="M3568.42 748.109C3568.42 761.598 3574.13 773.899 3583.45 782.807C3587.48 786.624 3592.09 789.848 3597.3 792.308V804.779C3588.9 801.725 3581.35 796.974 3575.05 790.951C3563.63 780.007 3556.58 764.822 3556.58 748.194V736.571H3568.5V748.109H3568.42Z" fill="white"/>
<path d="M3498.14 736.571H3510.06V748.109C3510.06 764.737 3503.01 779.922 3491.59 790.866C3485.29 796.889 3477.73 801.64 3469.34 804.694V792.223C3474.46 789.848 3479.16 786.624 3483.19 782.722C3492.43 773.814 3498.22 761.513 3498.22 748.024V736.571H3498.14Z" fill="white"/>
<path d="M3521.48 798.077C3518.46 802.234 3515.01 806.136 3511.32 809.784C3499.9 820.728 3485.46 828.788 3469.34 832.52V844.228C3488.73 840.24 3506.2 830.908 3519.72 817.844C3522.65 815.044 3525.34 812.075 3527.86 809.021L3521.48 798.077Z" fill="white"/>
<path d="M2376.09 1426.82C2378.61 1429.96 2381.38 1432.85 2384.24 1435.65C2397.84 1448.71 2415.22 1458.04 2434.62 1462.03V1450.32C2418.49 1446.59 2404.05 1438.53 2392.63 1427.59C2388.85 1424.02 2385.49 1420.04 2382.47 1415.88L2376.09 1426.82Z" fill="white"/>
<path d="M2333.94 1414.61C2346.62 1402.39 2354.51 1385.51 2354.51 1367.01V1315.77H2366.43V1367.1C2366.43 1376.09 2367.95 1386.7 2370.63 1394.84C2373.4 1386.61 2374.83 1376.09 2374.83 1367.1V1315.77H2386.75V1367.1C2386.75 1385.59 2394.65 1402.47 2407.33 1414.69C2414.88 1421.99 2424.2 1427.59 2434.62 1430.98V1442.94C2420.93 1439.21 2408.75 1432.17 2398.93 1422.75C2391.54 1415.71 2385.58 1407.31 2381.46 1397.98C2378.36 1406.04 2374.92 1413.67 2370.63 1419.44C2366.35 1413.67 2362.91 1406.04 2359.8 1397.98C2355.6 1407.31 2349.64 1415.62 2342.34 1422.75C2332.6 1432.17 2320.34 1439.21 2306.65 1442.94V1430.98C2317.06 1427.59 2326.38 1421.9 2333.94 1414.61Z" fill="white"/>
<path d="M2405.81 1366C2405.81 1379.48 2411.52 1391.79 2420.84 1400.69C2424.88 1404.51 2429.49 1407.73 2434.7 1410.19V1422.67C2426.3 1419.61 2418.75 1414.86 2412.45 1408.84C2401.03 1397.89 2393.98 1382.71 2393.98 1366.08V1354.46H2405.9V1366H2405.81Z" fill="white"/>
<path d="M2335.53 1354.46H2347.46V1366C2347.46 1382.62 2340.4 1397.81 2328.99 1408.75C2322.69 1414.78 2315.13 1419.53 2306.73 1422.58V1410.11C2311.86 1407.73 2316.56 1404.51 2320.59 1400.61C2329.83 1391.7 2335.62 1379.4 2335.62 1365.91V1354.46H2335.53Z" fill="white"/>
<path d="M2358.88 1415.96C2355.85 1420.12 2352.41 1424.02 2348.72 1427.67C2337.3 1438.61 2322.86 1446.67 2306.73 1450.41V1462.11C2326.13 1458.13 2343.6 1448.79 2357.11 1435.73C2360.05 1432.93 2362.74 1429.96 2365.26 1426.91L2358.88 1415.96Z" fill="white"/>
<path d="M2376.09 2044.71C2378.61 2047.85 2381.38 2050.73 2384.24 2053.53C2397.84 2066.6 2415.22 2075.93 2434.62 2079.91V2068.21C2418.49 2064.47 2404.05 2056.42 2392.63 2045.47C2388.85 2041.91 2385.49 2037.92 2382.47 2033.76L2376.09 2044.71Z" fill="white"/>
<path d="M2333.94 2032.49C2346.62 2020.28 2354.51 2003.39 2354.51 1984.9V1933.66H2366.43V1984.98C2366.43 1993.98 2367.95 2004.58 2370.63 2012.72C2373.4 2004.5 2374.83 1993.98 2374.83 1984.98V1933.66H2386.75V1984.98C2386.75 2003.48 2394.65 2020.36 2407.33 2032.58C2414.88 2039.87 2424.2 2045.47 2434.62 2048.86V2060.83C2420.93 2057.09 2408.75 2050.05 2398.93 2040.64C2391.54 2033.59 2385.58 2025.2 2381.46 2015.86C2378.36 2023.92 2374.92 2031.56 2370.63 2037.33C2366.35 2031.56 2362.91 2023.92 2359.8 2015.86C2355.6 2025.2 2349.64 2033.51 2342.34 2040.64C2332.6 2050.05 2320.34 2057.09 2306.65 2060.83V2048.86C2317.06 2045.47 2326.38 2039.79 2333.94 2032.49Z" fill="white"/>
<path d="M2405.81 1983.88C2405.81 1997.37 2411.52 2009.67 2420.84 2018.58C2424.88 2022.4 2429.49 2025.62 2434.7 2028.08V2040.55C2426.3 2037.5 2418.75 2032.75 2412.45 2026.72C2401.03 2015.78 2393.98 2000.59 2393.98 1983.97V1972.34H2405.9V1983.88H2405.81Z" fill="white"/>
<path d="M2335.53 1972.34H2347.46V1983.88C2347.46 2000.51 2340.4 2015.69 2328.99 2026.64C2322.69 2032.66 2315.13 2037.41 2306.73 2040.47V2028C2311.86 2025.62 2316.56 2022.4 2320.59 2018.49C2329.83 2009.59 2335.62 1997.28 2335.62 1983.8V1972.34H2335.53Z" fill="white"/>
<path d="M2358.88 2033.85C2355.85 2038.01 2352.41 2041.91 2348.72 2045.56C2337.3 2056.5 2322.86 2064.56 2306.73 2068.29V2080C2326.13 2076.01 2343.6 2066.68 2357.11 2053.62C2360.05 2050.82 2362.74 2047.85 2365.26 2044.79L2358.88 2033.85Z" fill="white"/>
<path d="M3538.69 1426.82C3541.21 1429.96 3543.98 1432.85 3546.84 1435.65C3560.44 1448.71 3577.82 1458.04 3597.22 1462.03V1450.32C3581.1 1446.59 3566.65 1438.53 3555.23 1427.59C3551.46 1424.02 3548.1 1420.04 3545.07 1415.88L3538.69 1426.82Z" fill="white"/>
<path d="M3496.54 1414.61C3509.22 1402.39 3517.11 1385.51 3517.11 1367.01V1315.77H3529.04V1367.1C3529.04 1376.09 3530.55 1386.7 3533.23 1394.84C3536.01 1386.61 3537.43 1376.09 3537.43 1367.1V1315.77H3549.36V1367.1C3549.36 1385.59 3557.25 1402.47 3569.93 1414.69C3577.48 1421.99 3586.8 1427.59 3597.22 1430.98V1442.94C3583.53 1439.21 3571.36 1432.17 3561.53 1422.75C3554.14 1415.71 3548.18 1407.31 3544.07 1397.98C3540.96 1406.04 3537.52 1413.67 3533.23 1419.44C3528.95 1413.67 3525.51 1406.04 3522.4 1397.98C3518.2 1407.31 3512.24 1415.62 3504.94 1422.75C3495.2 1432.17 3482.94 1439.21 3469.25 1442.94V1430.98C3479.66 1427.59 3488.98 1421.9 3496.54 1414.61Z" fill="white"/>
<path d="M3568.42 1366C3568.42 1379.48 3574.13 1391.79 3583.45 1400.69C3587.48 1404.51 3592.09 1407.73 3597.3 1410.19V1422.67C3588.9 1419.61 3581.35 1414.86 3575.05 1408.84C3563.63 1397.89 3556.58 1382.71 3556.58 1366.08V1354.46H3568.5V1366H3568.42Z" fill="white"/>
<path d="M3498.14 1354.46H3510.06V1366C3510.06 1382.62 3503.01 1397.81 3491.59 1408.75C3485.29 1414.78 3477.73 1419.53 3469.34 1422.58V1410.11C3474.46 1407.73 3479.16 1404.51 3483.19 1400.61C3492.43 1391.7 3498.22 1379.4 3498.22 1365.91V1354.46H3498.14Z" fill="white"/>
<path d="M3521.48 1415.96C3518.46 1420.12 3515.01 1424.02 3511.32 1427.67C3499.9 1438.61 3485.46 1446.67 3469.34 1450.41V1462.11C3488.73 1458.13 3506.2 1448.79 3519.72 1435.73C3522.65 1432.93 3525.34 1429.96 3527.86 1426.91L3521.48 1415.96Z" fill="white"/>
<path d="M3538.69 2044.71C3541.21 2047.85 3543.98 2050.73 3546.84 2053.53C3560.44 2066.6 3577.82 2075.93 3597.22 2079.91V2068.21C3581.1 2064.47 3566.65 2056.42 3555.23 2045.47C3551.46 2041.91 3548.1 2037.92 3545.07 2033.76L3538.69 2044.71Z" fill="white"/>
<path d="M3496.54 2032.49C3509.22 2020.28 3517.11 2003.39 3517.11 1984.9V1933.66H3529.04V1984.98C3529.04 1993.98 3530.55 2004.58 3533.23 2012.72C3536.01 2004.5 3537.43 1993.98 3537.43 1984.98V1933.66H3549.36V1984.98C3549.36 2003.48 3557.25 2020.36 3569.93 2032.58C3577.48 2039.87 3586.8 2045.47 3597.22 2048.86V2060.83C3583.53 2057.09 3571.36 2050.05 3561.53 2040.64C3554.14 2033.59 3548.18 2025.2 3544.07 2015.86C3540.96 2023.92 3537.52 2031.56 3533.23 2037.33C3528.95 2031.56 3525.51 2023.92 3522.4 2015.86C3518.2 2025.2 3512.24 2033.51 3504.94 2040.64C3495.2 2050.05 3482.94 2057.09 3469.25 2060.83V2048.86C3479.66 2045.47 3488.98 2039.79 3496.54 2032.49Z" fill="white"/>
<path d="M3568.42 1983.88C3568.42 1997.37 3574.13 2009.67 3583.45 2018.58C3587.48 2022.4 3592.09 2025.62 3597.3 2028.08V2040.55C3588.9 2037.5 3581.35 2032.75 3575.05 2026.72C3563.63 2015.78 3556.58 2000.59 3556.58 1983.97V1972.34H3568.5V1983.88H3568.42Z" fill="white"/>
<path d="M3498.14 1972.34H3510.06V1983.88C3510.06 2000.51 3503.01 2015.69 3491.59 2026.64C3485.29 2032.66 3477.73 2037.41 3469.34 2040.47V2028C3474.46 2025.62 3479.16 2022.4 3483.19 2018.49C3492.43 2009.59 3498.22 1997.28 3498.22 1983.8V1972.34H3498.14Z" fill="white"/>
<path d="M3521.48 2033.85C3518.46 2038.01 3515.01 2041.91 3511.32 2045.56C3499.9 2056.5 3485.46 2064.56 3469.34 2068.29V2080C3488.73 2076.01 3506.2 2066.68 3519.72 2053.62C3522.65 2050.82 3525.34 2047.85 3527.86 2044.79L3521.48 2033.85Z" fill="white"/>
<path d="M2085.44 499.993C2087.96 503.132 2090.73 506.016 2093.58 508.816C2107.19 521.88 2124.57 531.212 2143.96 535.2V523.492C2127.84 519.759 2113.4 511.7 2101.98 500.756C2098.2 497.193 2094.84 493.206 2091.82 489.049L2085.44 499.993Z" fill="white"/>
<path d="M2043.29 487.776C2055.97 475.56 2063.86 458.678 2063.86 440.184V388.943H2075.78V440.268C2075.78 449.261 2077.3 459.865 2079.98 468.01C2082.75 459.781 2084.18 449.261 2084.18 440.268V388.943H2096.1V440.268C2096.1 458.763 2104 475.645 2116.68 487.861C2124.23 495.157 2133.55 500.756 2143.96 504.15V516.111C2130.28 512.379 2118.1 505.337 2108.28 495.921C2100.89 488.879 2094.93 480.481 2090.81 471.149C2087.71 479.208 2084.26 486.843 2079.98 492.612C2075.7 486.843 2072.26 479.208 2069.15 471.149C2064.95 480.481 2058.99 488.794 2051.69 495.921C2041.95 505.337 2029.69 512.379 2016 516.111V504.15C2026.41 500.756 2035.73 495.072 2043.29 487.776Z" fill="white"/>
<path d="M2115.16 439.166C2115.16 452.654 2120.87 464.956 2130.19 473.863C2134.22 477.681 2138.84 480.905 2144.05 483.365V495.836C2135.65 492.782 2128.1 488.031 2121.8 482.008C2110.38 471.064 2103.33 455.878 2103.33 439.25V427.628H2115.25V439.166H2115.16Z" fill="white"/>
<path d="M2044.88 427.628H2056.81V439.166C2056.81 455.793 2049.75 470.979 2038.34 481.923C2032.04 487.946 2024.48 492.697 2016.08 495.751V483.28C2021.21 480.905 2025.91 477.681 2029.94 473.778C2039.17 464.871 2044.97 452.57 2044.97 439.081V427.628H2044.88Z" fill="white"/>
<path d="M2068.23 489.134C2065.2 493.291 2061.76 497.193 2058.07 500.841C2046.65 511.785 2032.21 519.844 2016.08 523.577V535.284C2035.48 531.297 2052.95 521.965 2066.46 508.9C2069.4 506.101 2072.09 503.132 2074.61 500.078L2068.23 489.134Z" fill="white"/>
<path d="M3248.04 499.993C3250.56 503.132 3253.33 506.016 3256.19 508.816C3269.79 521.88 3287.17 531.212 3306.57 535.2V523.492C3290.44 519.759 3276 511.7 3264.58 500.756C3260.8 497.193 3257.45 493.206 3254.42 489.049L3248.04 499.993Z" fill="white"/>
<path d="M3205.89 487.776C3218.57 475.56 3226.46 458.678 3226.46 440.184V388.943H3238.39V440.268C3238.39 449.261 3239.9 459.865 3242.58 468.01C3245.35 459.781 3246.78 449.261 3246.78 440.268V388.943H3258.71V440.268C3258.71 458.763 3266.6 475.645 3279.28 487.861C3286.83 495.157 3296.15 500.756 3306.57 504.15V516.111C3292.88 512.379 3280.7 505.337 3270.88 495.921C3263.49 488.879 3257.53 480.481 3253.42 471.149C3250.31 479.208 3246.87 486.843 3242.58 492.612C3238.3 486.843 3234.86 479.208 3231.75 471.149C3227.55 480.481 3221.59 488.794 3214.29 495.921C3204.55 505.337 3192.29 512.379 3178.6 516.111V504.15C3189.01 500.756 3198.33 495.072 3205.89 487.776Z" fill="white"/>
<path d="M3277.77 439.166C3277.77 452.654 3283.48 464.956 3292.8 473.863C3296.83 477.681 3301.44 480.905 3306.65 483.365V495.836C3298.25 492.782 3290.7 488.031 3284.4 482.008C3272.98 471.064 3265.93 455.878 3265.93 439.25V427.628H3277.85V439.166H3277.77Z" fill="white"/>
<path d="M3207.49 427.628H3219.41V439.166C3219.41 455.793 3212.36 470.979 3200.94 481.923C3194.64 487.946 3187.08 492.697 3178.69 495.751V483.28C3183.81 480.905 3188.51 477.681 3192.54 473.778C3201.78 464.871 3207.57 452.57 3207.57 439.081V427.628H3207.49Z" fill="white"/>
<path d="M3230.83 489.134C3227.81 493.291 3224.36 497.193 3220.67 500.841C3209.25 511.785 3194.81 519.844 3178.69 523.577V535.284C3198.08 531.297 3215.55 521.965 3229.07 508.9C3232 506.101 3234.69 503.132 3237.21 500.078L3230.83 489.134Z" fill="white"/>
<path d="M3747.44 499.993C3749.96 503.132 3752.73 506.016 3755.58 508.816C3769.19 521.88 3786.57 531.212 3805.96 535.2V523.492C3789.84 519.759 3775.4 511.7 3763.98 500.756C3760.2 497.193 3756.84 493.206 3753.82 489.049L3747.44 499.993Z" fill="white"/>
<path d="M3705.29 487.776C3717.97 475.56 3725.86 458.678 3725.86 440.184V388.943H3737.78V440.268C3737.78 449.261 3739.3 459.865 3741.98 468.01C3744.75 459.781 3746.18 449.261 3746.18 440.268V388.943H3758.1V440.268C3758.1 458.763 3766 475.645 3778.68 487.861C3786.23 495.157 3795.55 500.756 3805.96 504.15V516.111C3792.28 512.379 3780.1 505.337 3770.28 495.921C3762.89 488.879 3756.93 480.481 3752.81 471.149C3749.71 479.208 3746.26 486.843 3741.98 492.612C3737.7 486.843 3734.26 479.208 3731.15 471.149C3726.95 480.481 3720.99 488.794 3713.69 495.921C3703.95 505.337 3691.69 512.379 3678 516.111V504.15C3688.41 500.756 3697.73 495.072 3705.29 487.776Z" fill="white"/>
<path d="M3777.16 439.166C3777.16 452.654 3782.87 464.956 3792.19 473.863C3796.22 477.681 3800.84 480.905 3806.05 483.365V495.836C3797.65 492.782 3790.1 488.031 3783.8 482.008C3772.38 471.064 3765.33 455.878 3765.33 439.25V427.628H3777.25V439.166H3777.16Z" fill="white"/>
<path d="M3706.88 427.628H3718.81V439.166C3718.81 455.793 3711.75 470.979 3700.34 481.923C3694.04 487.946 3686.48 492.697 3678.08 495.751V483.28C3683.21 480.905 3687.91 477.681 3691.94 473.778C3701.17 464.871 3706.97 452.57 3706.97 439.081V427.628H3706.88Z" fill="white"/>
<path d="M3730.23 489.134C3727.2 493.291 3723.76 497.193 3720.07 500.841C3708.65 511.785 3694.21 519.844 3678.08 523.577V535.284C3697.48 531.297 3714.95 521.965 3728.46 508.9C3731.4 506.101 3734.09 503.132 3736.61 500.078L3730.23 489.134Z" fill="white"/>
<path d="M2666.74 499.993C2669.26 503.132 2672.03 506.016 2674.89 508.816C2688.49 521.88 2705.87 531.212 2725.27 535.2V523.492C2709.14 519.759 2694.7 511.7 2683.28 500.756C2679.5 497.193 2676.15 493.206 2673.12 489.049L2666.74 499.993Z" fill="white"/>
<path d="M2624.59 487.776C2637.27 475.56 2645.16 458.678 2645.16 440.184V388.943H2657.08V440.268C2657.08 449.261 2658.6 459.865 2661.28 468.01C2664.05 459.781 2665.48 449.261 2665.48 440.268V388.943H2677.4V440.268C2677.4 458.763 2685.3 475.645 2697.98 487.861C2705.53 495.157 2714.85 500.756 2725.27 504.15V516.111C2711.58 512.379 2699.4 505.337 2689.58 495.921C2682.19 488.879 2676.23 480.481 2672.11 471.149C2669.01 479.208 2665.57 486.843 2661.28 492.612C2657 486.843 2653.56 479.208 2650.45 471.149C2646.25 480.481 2640.29 488.794 2632.99 495.921C2623.25 505.337 2610.99 512.379 2597.3 516.111V504.15C2607.71 500.756 2617.03 495.072 2624.59 487.776Z" fill="white"/>
<path d="M2696.47 439.166C2696.47 452.654 2702.17 464.956 2711.5 473.863C2715.53 477.681 2720.14 480.905 2725.35 483.365V495.836C2716.95 492.782 2709.4 488.031 2703.1 482.008C2691.68 471.064 2684.63 455.878 2684.63 439.25V427.628H2696.55V439.166H2696.47Z" fill="white"/>
<path d="M2626.19 427.628H2638.11V439.166C2638.11 455.793 2631.06 470.979 2619.64 481.923C2613.34 487.946 2605.78 492.697 2597.38 495.751V483.28C2602.51 480.905 2607.21 477.681 2611.24 473.778C2620.48 464.871 2626.27 452.57 2626.27 439.081V427.628H2626.19Z" fill="white"/>
<path d="M2649.53 489.134C2646.51 493.291 2643.06 497.193 2639.37 500.841C2627.95 511.785 2613.51 519.844 2597.38 523.577V535.284C2616.78 531.297 2634.25 521.965 2647.76 508.9C2650.7 506.101 2653.39 503.132 2655.91 500.078L2649.53 489.134Z" fill="white"/>
<path d="M2085.44 1117.88C2087.96 1121.02 2090.73 1123.9 2093.58 1126.7C2107.19 1139.77 2124.57 1149.1 2143.96 1153.09V1141.38C2127.84 1137.65 2113.4 1129.59 2101.98 1118.64C2098.2 1115.08 2094.84 1111.09 2091.82 1106.94L2085.44 1117.88Z" fill="white"/>
<path d="M2043.29 1105.66C2055.97 1093.45 2063.86 1076.56 2063.86 1058.07V1006.83H2075.78V1058.15C2075.78 1067.15 2077.3 1077.75 2079.98 1085.9C2082.75 1077.67 2084.18 1067.15 2084.18 1058.15V1006.83H2096.1V1058.15C2096.1 1076.65 2104 1093.53 2116.68 1105.75C2124.23 1113.04 2133.55 1118.64 2143.96 1122.04V1134C2130.28 1130.26 2118.1 1123.22 2108.28 1113.81C2100.89 1106.77 2094.93 1098.37 2090.81 1089.03C2087.71 1097.09 2084.26 1104.73 2079.98 1110.5C2075.7 1104.73 2072.26 1097.09 2069.15 1089.03C2064.95 1098.37 2058.99 1106.68 2051.69 1113.81C2041.95 1123.22 2029.69 1130.26 2016 1134V1122.04C2026.41 1118.64 2035.73 1112.96 2043.29 1105.66Z" fill="white"/>
<path d="M2115.16 1057.05C2115.16 1070.54 2120.87 1082.84 2130.19 1091.75C2134.22 1095.57 2138.84 1098.79 2144.05 1101.25V1113.72C2135.65 1110.67 2128.1 1105.92 2121.8 1099.89C2110.38 1088.95 2103.33 1073.76 2103.33 1057.14V1045.51H2115.25V1057.05H2115.16Z" fill="white"/>
<path d="M2044.88 1045.51H2056.81V1057.05C2056.81 1073.68 2049.75 1088.87 2038.34 1099.81C2032.04 1105.83 2024.48 1110.58 2016.08 1113.64V1101.17C2021.21 1098.79 2025.91 1095.57 2029.94 1091.66C2039.17 1082.76 2044.97 1070.46 2044.97 1056.97V1045.51H2044.88Z" fill="white"/>
<path d="M2068.23 1107.02C2065.2 1111.18 2061.76 1115.08 2058.07 1118.73C2046.65 1129.67 2032.21 1137.73 2016.08 1141.46V1153.17C2035.48 1149.18 2052.95 1139.85 2066.46 1126.79C2069.4 1123.99 2072.09 1121.02 2074.61 1117.96L2068.23 1107.02Z" fill="white"/>
<path d="M3248.04 1117.88C3250.56 1121.02 3253.33 1123.9 3256.19 1126.7C3269.79 1139.77 3287.17 1149.1 3306.57 1153.09V1141.38C3290.44 1137.65 3276 1129.59 3264.58 1118.64C3260.8 1115.08 3257.45 1111.09 3254.42 1106.94L3248.04 1117.88Z" fill="white"/>
<path d="M3205.89 1105.66C3218.57 1093.45 3226.46 1076.56 3226.46 1058.07V1006.83H3238.39V1058.15C3238.39 1067.15 3239.9 1077.75 3242.58 1085.9C3245.35 1077.67 3246.78 1067.15 3246.78 1058.15V1006.83H3258.71V1058.15C3258.71 1076.65 3266.6 1093.53 3279.28 1105.75C3286.83 1113.04 3296.15 1118.64 3306.57 1122.04V1134C3292.88 1130.26 3280.7 1123.22 3270.88 1113.81C3263.49 1106.77 3257.53 1098.37 3253.42 1089.03C3250.31 1097.09 3246.87 1104.73 3242.58 1110.5C3238.3 1104.73 3234.86 1097.09 3231.75 1089.03C3227.55 1098.37 3221.59 1106.68 3214.29 1113.81C3204.55 1123.22 3192.29 1130.26 3178.6 1134V1122.04C3189.01 1118.64 3198.33 1112.96 3205.89 1105.66Z" fill="white"/>
<path d="M3277.77 1057.05C3277.77 1070.54 3283.48 1082.84 3292.8 1091.75C3296.83 1095.57 3301.44 1098.79 3306.65 1101.25V1113.72C3298.25 1110.67 3290.7 1105.92 3284.4 1099.89C3272.98 1088.95 3265.93 1073.76 3265.93 1057.14V1045.51H3277.85V1057.05H3277.77Z" fill="white"/>
<path d="M3207.49 1045.51H3219.41V1057.05C3219.41 1073.68 3212.36 1088.87 3200.94 1099.81C3194.64 1105.83 3187.08 1110.58 3178.69 1113.64V1101.17C3183.81 1098.79 3188.51 1095.57 3192.54 1091.66C3201.78 1082.76 3207.57 1070.46 3207.57 1056.97V1045.51H3207.49Z" fill="white"/>
<path d="M3230.83 1107.02C3227.81 1111.18 3224.36 1115.08 3220.67 1118.73C3209.25 1129.67 3194.81 1137.73 3178.69 1141.46V1153.17C3198.08 1149.18 3215.55 1139.85 3229.07 1126.79C3232 1123.99 3234.69 1121.02 3237.21 1117.96L3230.83 1107.02Z" fill="white"/>
<path d="M2666.74 1117.88C2669.26 1121.02 2672.03 1123.9 2674.89 1126.7C2688.49 1139.77 2705.87 1149.1 2725.27 1153.09V1141.38C2709.14 1137.65 2694.7 1129.59 2683.28 1118.64C2679.5 1115.08 2676.15 1111.09 2673.12 1106.94L2666.74 1117.88Z" fill="white"/>
<path d="M2624.59 1105.66C2637.27 1093.45 2645.16 1076.56 2645.16 1058.07V1006.83H2657.08V1058.15C2657.08 1067.15 2658.6 1077.75 2661.28 1085.9C2664.05 1077.67 2665.48 1067.15 2665.48 1058.15V1006.83H2677.4V1058.15C2677.4 1076.65 2685.3 1093.53 2697.98 1105.75C2705.53 1113.04 2714.85 1118.64 2725.27 1122.04V1134C2711.58 1130.26 2699.4 1123.22 2689.58 1113.81C2682.19 1106.77 2676.23 1098.37 2672.11 1089.03C2669.01 1097.09 2665.57 1104.73 2661.28 1110.5C2657 1104.73 2653.56 1097.09 2650.45 1089.03C2646.25 1098.37 2640.29 1106.68 2632.99 1113.81C2623.25 1123.22 2610.99 1130.26 2597.3 1134V1122.04C2607.71 1118.64 2617.03 1112.96 2624.59 1105.66Z" fill="white"/>
<path d="M2696.47 1057.05C2696.47 1070.54 2702.17 1082.84 2711.5 1091.75C2715.53 1095.57 2720.14 1098.79 2725.35 1101.25V1113.72C2716.95 1110.67 2709.4 1105.92 2703.1 1099.89C2691.68 1088.95 2684.63 1073.76 2684.63 1057.14V1045.51H2696.55V1057.05H2696.47Z" fill="white"/>
<path d="M2626.19 1045.51H2638.11V1057.05C2638.11 1073.68 2631.06 1088.87 2619.64 1099.81C2613.34 1105.83 2605.78 1110.58 2597.38 1113.64V1101.17C2602.51 1098.79 2607.21 1095.57 2611.24 1091.66C2620.48 1082.76 2626.27 1070.46 2626.27 1056.97V1045.51H2626.19Z" fill="white"/>
<path d="M2649.53 1107.02C2646.51 1111.18 2643.06 1115.08 2639.37 1118.73C2627.95 1129.67 2613.51 1137.73 2597.38 1141.46V1153.17C2616.78 1149.18 2634.25 1139.85 2647.76 1126.79C2650.7 1123.99 2653.39 1121.02 2655.91 1117.96L2649.53 1107.02Z" fill="white"/>
<path d="M2085.44 1735.77C2087.96 1738.9 2090.73 1741.79 2093.58 1744.59C2107.19 1757.65 2124.57 1766.99 2143.96 1770.97V1759.27C2127.84 1755.53 2113.4 1747.47 2101.98 1736.53C2098.2 1732.97 2094.84 1728.98 2091.82 1724.82L2085.44 1735.77Z" fill="white"/>
<path d="M2043.29 1723.55C2055.97 1711.33 2063.86 1694.45 2063.86 1675.96V1624.72H2075.78V1676.04C2075.78 1685.03 2077.3 1695.64 2079.98 1703.78C2082.75 1695.55 2084.18 1685.03 2084.18 1676.04V1624.72H2096.1V1676.04C2096.1 1694.54 2104 1711.42 2116.68 1723.63C2124.23 1730.93 2133.55 1736.53 2143.96 1739.92V1751.88C2130.28 1748.15 2118.1 1741.11 2108.28 1731.69C2100.89 1724.65 2094.93 1716.25 2090.81 1706.92C2087.71 1714.98 2084.26 1722.62 2079.98 1728.38C2075.7 1722.62 2072.26 1714.98 2069.15 1706.92C2064.95 1716.25 2058.99 1724.57 2051.69 1731.69C2041.95 1741.11 2029.69 1748.15 2016 1751.88V1739.92C2026.41 1736.53 2035.73 1730.85 2043.29 1723.55Z" fill="white"/>
<path d="M2115.16 1674.94C2115.16 1688.43 2120.87 1700.73 2130.19 1709.64C2134.22 1713.45 2138.84 1716.68 2144.05 1719.14V1731.61C2135.65 1728.55 2128.1 1723.8 2121.8 1717.78C2110.38 1706.84 2103.33 1691.65 2103.33 1675.02V1663.4H2115.25V1674.94H2115.16Z" fill="white"/>
<path d="M2044.88 1663.4H2056.81V1674.94C2056.81 1691.57 2049.75 1706.75 2038.34 1717.7C2032.04 1723.72 2024.48 1728.47 2016.08 1731.52V1719.05C2021.21 1716.68 2025.91 1713.45 2029.94 1709.55C2039.17 1700.64 2044.97 1688.34 2044.97 1674.85V1663.4H2044.88Z" fill="white"/>
<path d="M2068.23 1724.91C2065.2 1729.06 2061.76 1732.97 2058.07 1736.61C2046.65 1747.56 2032.21 1755.62 2016.08 1759.35V1771.06C2035.48 1767.07 2052.95 1757.74 2066.46 1744.67C2069.4 1741.87 2072.09 1738.9 2074.61 1735.85L2068.23 1724.91Z" fill="white"/>
<path d="M3248.04 1735.77C3250.56 1738.9 3253.33 1741.79 3256.19 1744.59C3269.79 1757.65 3287.17 1766.99 3306.57 1770.97V1759.27C3290.44 1755.53 3276 1747.47 3264.58 1736.53C3260.8 1732.97 3257.45 1728.98 3254.42 1724.82L3248.04 1735.77Z" fill="white"/>
<path d="M3205.89 1723.55C3218.57 1711.33 3226.46 1694.45 3226.46 1675.96V1624.72H3238.39V1676.04C3238.39 1685.03 3239.9 1695.64 3242.58 1703.78C3245.35 1695.55 3246.78 1685.03 3246.78 1676.04V1624.72H3258.71V1676.04C3258.71 1694.54 3266.6 1711.42 3279.28 1723.63C3286.83 1730.93 3296.15 1736.53 3306.57 1739.92V1751.88C3292.88 1748.15 3280.7 1741.11 3270.88 1731.69C3263.49 1724.65 3257.53 1716.25 3253.42 1706.92C3250.31 1714.98 3246.87 1722.62 3242.58 1728.38C3238.3 1722.62 3234.86 1714.98 3231.75 1706.92C3227.55 1716.25 3221.59 1724.57 3214.29 1731.69C3204.55 1741.11 3192.29 1748.15 3178.6 1751.88V1739.92C3189.01 1736.53 3198.33 1730.85 3205.89 1723.55Z" fill="white"/>
<path d="M3277.77 1674.94C3277.77 1688.43 3283.48 1700.73 3292.8 1709.64C3296.83 1713.45 3301.44 1716.68 3306.65 1719.14V1731.61C3298.25 1728.55 3290.7 1723.8 3284.4 1717.78C3272.98 1706.84 3265.93 1691.65 3265.93 1675.02V1663.4H3277.85V1674.94H3277.77Z" fill="white"/>
<path d="M3207.49 1663.4H3219.41V1674.94C3219.41 1691.57 3212.36 1706.75 3200.94 1717.7C3194.64 1723.72 3187.08 1728.47 3178.69 1731.52V1719.05C3183.81 1716.68 3188.51 1713.45 3192.54 1709.55C3201.78 1700.64 3207.57 1688.34 3207.57 1674.85V1663.4H3207.49Z" fill="white"/>
<path d="M3230.83 1724.91C3227.81 1729.06 3224.36 1732.97 3220.67 1736.61C3209.25 1747.56 3194.81 1755.62 3178.69 1759.35V1771.06C3198.08 1767.07 3215.55 1757.74 3229.07 1744.67C3232 1741.87 3234.69 1738.9 3237.21 1735.85L3230.83 1724.91Z" fill="white"/>
<path d="M3747.44 1735.77C3749.96 1738.9 3752.73 1741.79 3755.58 1744.59C3769.19 1757.65 3786.57 1766.99 3805.96 1770.97V1759.27C3789.84 1755.53 3775.4 1747.47 3763.98 1736.53C3760.2 1732.97 3756.84 1728.98 3753.82 1724.82L3747.44 1735.77Z" fill="white"/>
<path d="M3705.29 1723.55C3717.97 1711.33 3725.86 1694.45 3725.86 1675.96V1624.72H3737.78V1676.04C3737.78 1685.03 3739.3 1695.64 3741.98 1703.78C3744.75 1695.55 3746.18 1685.03 3746.18 1676.04V1624.72H3758.1V1676.04C3758.1 1694.54 3766 1711.42 3778.68 1723.63C3786.23 1730.93 3795.55 1736.53 3805.96 1739.92V1751.88C3792.28 1748.15 3780.1 1741.11 3770.28 1731.69C3762.89 1724.65 3756.93 1716.25 3752.81 1706.92C3749.71 1714.98 3746.26 1722.62 3741.98 1728.38C3737.7 1722.62 3734.26 1714.98 3731.15 1706.92C3726.95 1716.25 3720.99 1724.57 3713.69 1731.69C3703.95 1741.11 3691.69 1748.15 3678 1751.88V1739.92C3688.41 1736.53 3697.73 1730.85 3705.29 1723.55Z" fill="white"/>
<path d="M3777.16 1674.94C3777.16 1688.43 3782.87 1700.73 3792.19 1709.64C3796.22 1713.45 3800.84 1716.68 3806.05 1719.14V1731.61C3797.65 1728.55 3790.1 1723.8 3783.8 1717.78C3772.38 1706.84 3765.33 1691.65 3765.33 1675.02V1663.4H3777.25V1674.94H3777.16Z" fill="white"/>
<path d="M3706.88 1663.4H3718.81V1674.94C3718.81 1691.57 3711.75 1706.75 3700.34 1717.7C3694.04 1723.72 3686.48 1728.47 3678.08 1731.52V1719.05C3683.21 1716.68 3687.91 1713.45 3691.94 1709.55C3701.17 1700.64 3706.97 1688.34 3706.97 1674.85V1663.4H3706.88Z" fill="white"/>
<path d="M3730.23 1724.91C3727.2 1729.06 3723.76 1732.97 3720.07 1736.61C3708.65 1747.56 3694.21 1755.62 3678.08 1759.35V1771.06C3697.48 1767.07 3714.95 1757.74 3728.46 1744.67C3731.4 1741.87 3734.09 1738.9 3736.61 1735.85L3730.23 1724.91Z" fill="white"/>
<path d="M2666.74 1735.77C2669.26 1738.9 2672.03 1741.79 2674.89 1744.59C2688.49 1757.65 2705.87 1766.99 2725.27 1770.97V1759.27C2709.14 1755.53 2694.7 1747.47 2683.28 1736.53C2679.5 1732.97 2676.15 1728.98 2673.12 1724.82L2666.74 1735.77Z" fill="white"/>
<path d="M2624.59 1723.55C2637.27 1711.33 2645.16 1694.45 2645.16 1675.96V1624.72H2657.08V1676.04C2657.08 1685.03 2658.6 1695.64 2661.28 1703.78C2664.05 1695.55 2665.48 1685.03 2665.48 1676.04V1624.72H2677.4V1676.04C2677.4 1694.54 2685.3 1711.42 2697.98 1723.63C2705.53 1730.93 2714.85 1736.53 2725.27 1739.92V1751.88C2711.58 1748.15 2699.4 1741.11 2689.58 1731.69C2682.19 1724.65 2676.23 1716.25 2672.11 1706.92C2669.01 1714.98 2665.57 1722.62 2661.28 1728.38C2657 1722.62 2653.56 1714.98 2650.45 1706.92C2646.25 1716.25 2640.29 1724.57 2632.99 1731.69C2623.25 1741.11 2610.99 1748.15 2597.3 1751.88V1739.92C2607.71 1736.53 2617.03 1730.85 2624.59 1723.55Z" fill="white"/>
<path d="M2696.47 1674.94C2696.47 1688.43 2702.17 1700.73 2711.5 1709.64C2715.53 1713.45 2720.14 1716.68 2725.35 1719.14V1731.61C2716.95 1728.55 2709.4 1723.8 2703.1 1717.78C2691.68 1706.84 2684.63 1691.65 2684.63 1675.02V1663.4H2696.55V1674.94H2696.47Z" fill="white"/>
<path d="M2626.19 1663.4H2638.11V1674.94C2638.11 1691.57 2631.06 1706.75 2619.64 1717.7C2613.34 1723.72 2605.78 1728.47 2597.38 1731.52V1719.05C2602.51 1716.68 2607.21 1713.45 2611.24 1709.55C2620.48 1700.64 2626.27 1688.34 2626.27 1674.85V1663.4H2626.19Z" fill="white"/>
<path d="M2649.53 1724.91C2646.51 1729.06 2643.06 1732.97 2639.37 1736.61C2627.95 1747.56 2613.51 1755.62 2597.38 1759.35V1771.06C2616.78 1767.07 2634.25 1757.74 2647.76 1744.67C2650.7 1741.87 2653.39 1738.9 2655.91 1735.85L2649.53 1724.91Z" fill="white"/>
</g>
</svg>
