<svg width="48" height="48" fill="none" xmlns="http://www.w3.org/2000/svg"><path d="M43.873 24.84l-.018.003-1.352.136c-.05.005-.1.008-.15.011l-.374.017a1.823 1.823 0 0 0-1.585 1.088l-.095.218a2.826 2.826 0 0 1-2.586 1.691h-1.588a1.52 1.52 0 0 1-1.513-1.37l-.063-.636a1.81 1.81 0 0 0-.82-1.34 1.695 1.695 0 0 1-.774-1.424v-.638a2.029 2.029 0 0 1 .685-1.52l2.713-2.4a1.886 1.886 0 0 0 .556-1.961 1.943 1.943 0 0 0-1.62-1.366l-.274-.034a2.118 2.118 0 0 1-1.338-.709 1.544 1.544 0 0 1-.178-1.78l1.784-3.058.002-.002c-3.382-2.157-7.517-3.59-11.487-3.59-.522 0-1.101.032-1.67.082v.002l2.549 3.677a2.82 2.82 0 0 1-.084 3.326l-.667.867a2.089 2.089 0 0 1-1.92.797l-.756-.097a2.183 2.183 0 0 0-2.159 1.06 2.11 2.11 0 0 1-2.085 1.025l-1.747-.222a2.287 2.287 0 0 0-2.183.987 1.96 1.96 0 0 0-.033 2.147l1.155 1.824a1.78 1.78 0 0 0 2.347.618l1.189-.637c.85-.456 2.203-.386 3.03.11l5.496 3.601.635.87c.068.096.142.19.218.28l1.444 1.7a1.298 1.298 0 0 1-.198 1.868l-2.189 1.682a2.983 2.983 0 0 0-1.03 1.483l-.728 2.368c-.08.258-.21.497-.382.704l-.71.854a3.61 3.61 0 0 0-.813 1.934 1.68 1.68 0 0 1-1.021 1.378 1.118 1.118 0 0 1-1.539-.849l-.668-4.014a2.533 2.533 0 0 0-.486-1.124l-2.449-3.214a3.412 3.412 0 0 1-.573-1.157l-.809-2.919a2.5 2.5 0 0 0-1.752-1.746l-.175-.048a2.818 2.818 0 0 1-1.189-.666l-1.507-1.42a3.972 3.972 0 0 1-.712-.899 2.795 2.795 0 0 0-2.957-1.34l-2.478.807-.003-.001a20.089 20.089 0 0 0-.533 4.463c0 11.136 9.018 20.163 20.142 20.163 11.125 0 20.144-9.027 20.144-20.163 0-.46-.025-.965-.069-1.496z" fill="#7CE5E9"/><path d="M42.52 18.193h-.002l-3.334-5.271v-.001a21.447 21.447 0 0 0-3.9-3.155l-.002.002-1.783 3.058a1.545 1.545 0 0 0 .178 1.78c.343.393.82.646 1.337.709l.274.034a1.943 1.943 0 0 1 1.621 1.366 1.885 1.885 0 0 1-.556 1.962l-2.713 2.399a2.03 2.03 0 0 0-.685 1.52v.638a1.695 1.695 0 0 0 .774 1.423 1.812 1.812 0 0 1 .82 1.34l.063.636a1.52 1.52 0 0 0 1.512 1.371h1.588a2.826 2.826 0 0 0 2.587-1.691l.095-.218a1.824 1.824 0 0 1 1.585-1.088l.373-.017c.05-.003.1-.006.151-.011l1.352-.136.018-.002c-.187-2.234-.733-4.925-1.354-6.648zm-13.963 10l-1.444-1.7a4.142 4.142 0 0 1-.218-.28l-.635-.87-5.496-3.6c-.827-.496-2.181-.567-3.03-.111l-1.19.637a1.78 1.78 0 0 1-2.346-.617l-1.155-1.825a1.96 1.96 0 0 1 .033-2.147 2.287 2.287 0 0 1 2.182-.987l1.748.222a2.109 2.109 0 0 0 2.085-1.024 2.184 2.184 0 0 1 2.159-1.06l.757.096a2.089 2.089 0 0 0 1.919-.797l.666-.867a2.82 2.82 0 0 0 .085-3.326l-2.55-3.677v-.002c-.474.042-.94.096-1.36.155l-.011-.003-5.715 1.715c-1.23.609-2.83 1.681-3.9 2.518L6.292 16.26l-.006.005a22.521 22.521 0 0 0-2.098 5.608h.004l2.478-.806a2.795 2.795 0 0 1 2.957 1.34c.192.332.432.635.711.898l1.508 1.42a2.82 2.82 0 0 0 1.189.667l.175.048a2.501 2.501 0 0 1 1.752 1.747l.808 2.918c.116.419.311.811.574 1.157l2.449 3.214c.251.329.418.715.486 1.124l.668 4.014a1.117 1.117 0 0 0 1.538.85 1.678 1.678 0 0 0 1.022-1.379 3.61 3.61 0 0 1 .813-1.934l.71-.854c.172-.207.302-.446.381-.704l.729-2.368a2.984 2.984 0 0 1 1.03-1.483l2.19-1.682a1.297 1.297 0 0 0 .197-1.868z" fill="#B1E862"/><path d="M6.469 26.337c.01-1.503.188-3 .532-4.463.066-.288.138-.574.216-.858H7.21c-.181 0-.362.018-.54.053l-2.478.806-.003-.001a20.09 20.09 0 0 0-.533 4.463c0 11.136 9.018 20.163 20.142 20.163.473 0 .942-.018 1.407-.05C14.737 45.727 6.469 37 6.469 26.337z" fill="#64CCC9"/><path d="M6.67 21.068c.178-.035.359-.052.54-.052h.007a22.298 22.298 0 0 1 1.881-4.75l.007-.005 4.848-5.618c1.071-.837 2.67-1.91 3.9-2.518l4.61-1.383-.335-.482v-.002c-.475.042-.942.096-1.36.155l-.012-.003-5.715 1.715c-1.23.609-2.83 1.681-3.9 2.518L6.292 16.26l-.006.005a22.521 22.521 0 0 0-2.098 5.608h.004l2.478-.806z" fill="#9AC146"/><path d="M15.041 8.125l-.51-.682a3.79 3.79 0 0 1-.76-2.479c.118-1.837 1.58-3.464 3.595-3.464s3.477 1.627 3.597 3.464c.031.491-.039.983-.207 1.446-.132.37-.319.718-.555 1.033l-2.835 3.792-2.325-3.11zm-3.204 4.472c.05.89-.22 1.77-.76 2.478L8.24 18.868l-1.948-2.607-.887-1.186a3.797 3.797 0 0 1-.762-2.478c.12-1.836 1.582-3.464 3.597-3.464a3.524 3.524 0 0 1 2.9 1.51c.408.574.649 1.25.696 1.954z" fill="#D4E1F4"/><path d="M17.248 6.971a1.88 1.88 0 1 0-.001-3.76 1.88 1.88 0 0 0 0 3.76zM8.123 10.842a1.881 1.881 0 1 1 .003 3.762 1.881 1.881 0 0 1-.003-3.762z" fill="#FF8564"/><path d="M27.915 21.566c.05.89-.219 1.77-.76 2.478l-2.836 3.793-1.948-2.607-.887-1.186a3.797 3.797 0 0 1-.761-2.478c.12-1.837 1.581-3.464 3.596-3.464a3.523 3.523 0 0 1 2.9 1.51c.408.574.65 1.25.696 1.954z" fill="#D4E1F4"/><path d="M24.249 19.852a1.88 1.88 0 1 1 .003 3.761 1.88 1.88 0 0 1-.003-3.761z" fill="#FF8564"/><path d="M44.337 14.586a3.008 3.008 0 0 1-.61 1.993l-1.208 1.613-1.073 1.434-2.279-3.047a2.983 2.983 0 0 1 .018-3.658 2.826 2.826 0 0 1 2.261-1.119c1.62 0 2.796 1.309 2.891 2.784zm-1.474.103a1.512 1.512 0 1 0-3.023 0 1.512 1.512 0 0 0 3.023 0z" fill="#D4E1F4"/><path d="M41.351 13.177a1.512 1.512 0 1 1 .001 3.023 1.512 1.512 0 0 1 0-3.023z" fill="#FF8564"/><path d="M41.351 12.614a2.074 2.074 0 1 0 0 4.147 2.074 2.074 0 0 0 0-4.147zm0 3.023a.95.95 0 1 1 0-1.898.95.95 0 0 1 0 1.898zM17.248 7.534a2.443 2.443 0 1 0 .002-4.886 2.443 2.443 0 0 0-.002 4.886zm0-3.762a1.318 1.318 0 1 1 .002 2.637 1.318 1.318 0 0 1-.002-2.637zm9.443 17.96a2.442 2.442 0 1 0-4.885.003 2.442 2.442 0 0 0 4.885-.002zm-2.442 1.319a1.318 1.318 0 1 1-.002-2.636 1.318 1.318 0 0 1 .001 2.636zM8.122 15.167a2.443 2.443 0 1 0 .002-4.886 2.443 2.443 0 0 0-.002 4.886zm0-3.762a1.318 1.318 0 1 1 .002 2.636 1.318 1.318 0 0 1-.002-2.636z" fill="#344D6B"/><path d="M44.899 14.55c-.12-1.856-1.638-3.31-3.453-3.31a3.4 3.4 0 0 0-2.27.875c-1.844-1.8-4.145-3.351-6.693-4.504-2.888-1.308-5.891-1.999-8.684-1.999-.77.007-1.54.055-2.305.143.038-.274.048-.551.03-.827-.146-2.238-1.972-3.99-4.158-3.99-2.186 0-4.012 1.752-4.157 3.989a4.38 4.38 0 0 0 .872 2.852l.116.156a28.265 28.265 0 0 0-2.97 1.935 4.11 4.11 0 0 0-2.986-1.3c-2.186 0-4.013 1.753-4.158 3.99a4.38 4.38 0 0 0 .872 2.852l.67.897c-1.588 3.056-2.531 6.777-2.531 10.028a20.705 20.705 0 1 0 41.41 0c0-2.307-.588-5.768-1.355-8.048l1.027-1.373a3.558 3.558 0 0 0 .723-2.366zM14.33 5c.094-1.443 1.255-2.938 3.035-2.938 1.78 0 2.941 1.494 3.035 2.94a3.168 3.168 0 0 1-.65 2.104l-2.385 3.19-2.38-3.185a3.251 3.251 0 0 1-.655-2.11zm-9.125 7.633C5.3 11.19 6.461 9.695 8.241 9.695c1.78 0 2.941 1.494 3.035 2.94a3.166 3.166 0 0 1-.65 2.103l-2.385 3.19-2.38-3.184a3.25 3.25 0 0 1-.655-2.11zm1.174 4.685l1.41 1.886a.562.562 0 0 0 .902 0l2.834-3.792a4.26 4.26 0 0 0 .361-4.63 27.042 27.042 0 0 1 2.99-1.938l2.039 2.727a.564.564 0 0 0 .9 0l2.836-3.792c.198-.264.366-.549.502-.85.234-.03.467-.057.698-.08l2.362 3.408a2.25 2.25 0 0 1-.067 2.662l-.667.867a1.53 1.53 0 0 1-1.402.583l-.757-.097a2.743 2.743 0 0 0-2.715 1.333 1.546 1.546 0 0 1-1.529.751l-1.748-.222a2.835 2.835 0 0 0-2.718 1.23 2.523 2.523 0 0 0-.043 2.763l1.155 1.825a2.351 2.351 0 0 0 3.088.813L18 22.127c.582-.312 1.528-.315 2.21-.034.064.842.366 1.65.87 2.328l2.836 3.793a.562.562 0 0 0 .9 0l1.439-1.924.183.25c.078.11.16.215.246.317l1.444 1.7a.734.734 0 0 1-.112 1.057l-2.188 1.683a3.518 3.518 0 0 0-1.225 1.764l-.73 2.367c-.057.187-.15.36-.275.51l-.71.855a4.156 4.156 0 0 0-.94 2.235 1.119 1.119 0 0 1-.68.918.558.558 0 0 1-.766-.424l-.668-4.014a3.118 3.118 0 0 0-.593-1.373l-2.45-3.213a2.838 2.838 0 0 1-.478-.966l-.809-2.918a3.079 3.079 0 0 0-2.146-2.14l-.175-.047a2.257 2.257 0 0 1-.95-.533l-1.508-1.421a3.404 3.404 0 0 1-.611-.771 3.356 3.356 0 0 0-3.553-1.61.56.56 0 0 0-.065.018l-1.51.491c.352-1.275.819-2.516 1.394-3.707zm14.951 4.324c.094-1.443 1.255-2.938 3.035-2.938 1.78 0 2.942 1.494 3.035 2.94a3.166 3.166 0 0 1-.65 2.104l-2.385 3.19-2.38-3.185a3.25 3.25 0 0 1-.655-2.11zm22.048 4.695c0 10.808-8.784 19.6-19.58 19.6-10.797 0-19.58-8.792-19.58-19.6.009-1.354.16-2.703.45-4.026l2.141-.697a2.232 2.232 0 0 1 2.33 1.076c.22.38.495.725.814 1.026l1.507 1.42a3.39 3.39 0 0 0 1.426.8l.176.047a1.947 1.947 0 0 1 1.357 1.354l.808 2.92c.135.487.362.944.669 1.347l2.449 3.214c.195.257.325.557.378.875l.669 4.014a1.68 1.68 0 0 0 2.31 1.276 2.243 2.243 0 0 0 1.364-1.839c.061-.6.3-1.169.686-1.633l.71-.854c.22-.264.385-.57.485-.898l.73-2.367a2.4 2.4 0 0 1 .835-1.203l2.189-1.683a1.858 1.858 0 0 0 .284-2.677l-1.444-1.7a3.819 3.819 0 0 1-.192-.247l-.39-.535.692-.925a4.29 4.29 0 0 0 .872-2.853c-.146-2.237-1.972-3.99-4.158-3.99-1.975 0-3.656 1.432-4.07 3.358-.934-.276-2.053-.216-2.828.2l-1.189.637a1.223 1.223 0 0 1-1.606-.423l-1.154-1.825a1.398 1.398 0 0 1 .023-1.53 1.715 1.715 0 0 1 1.646-.745l1.747.222a2.668 2.668 0 0 0 2.641-1.298 1.618 1.618 0 0 1 1.602-.787l.757.097a2.66 2.66 0 0 0 2.436-1.013l.667-.866a3.37 3.37 0 0 0 .1-3.99l-1.985-2.864c.228-.009.445-.015.646-.015 2.634 0 5.477.657 8.22 1.899.86.39 1.696.831 2.503 1.322l-1.511 2.59a2.106 2.106 0 0 0 .243 2.429 2.68 2.68 0 0 0 1.692.897l.274.034a1.38 1.38 0 0 1 1.152.97 1.33 1.33 0 0 1-.39 1.378l-2.714 2.4a2.595 2.595 0 0 0-.875 1.942v.636a2.249 2.249 0 0 0 1.032 1.896 1.242 1.242 0 0 1 .564.925l.064.635a2.076 2.076 0 0 0 2.072 1.877h1.588a3.387 3.387 0 0 0 3.101-2.027l.096-.218a1.252 1.252 0 0 1 1.095-.752l.373-.017c.06-.003.121-.008.181-.014l.793-.08c.017.309.027.604.027.878zm-.12-2l-.812.082-.12.009-.373.017a2.37 2.37 0 0 0-2.075 1.425l-.095.217a2.263 2.263 0 0 1-2.071 1.355h-1.589a.955.955 0 0 1-.952-.864l-.064-.636a2.359 2.359 0 0 0-1.073-1.757 1.128 1.128 0 0 1-.518-.951v-.637a1.468 1.468 0 0 1 .496-1.1l2.713-2.398a2.459 2.459 0 0 0 .722-2.547 2.506 2.506 0 0 0-2.09-1.76l-.275-.034a1.556 1.556 0 0 1-.982-.522.98.98 0 0 1-.116-1.126l1.485-2.546c1.07.717 2.072 1.53 2.993 2.43a3.58 3.58 0 0 0-.47 1.556 3.633 3.633 0 0 0 .723 2.366l2.28 3.048a.563.563 0 0 0 .9 0l.42-.56c.447 1.616.763 3.266.942 4.933zm.016-8.096l-1.829 2.446-1.825-2.44a2.502 2.502 0 0 1-.505-1.624c.072-1.11.964-2.258 2.33-2.258 1.367 0 2.258 1.148 2.33 2.26a2.433 2.433 0 0 1-.501 1.617z" fill="#344D6B"/></svg>