<svg width="48" height="48" fill="none" xmlns="http://www.w3.org/2000/svg"><g clip-path="url(#clip0_746_3923)"><path d="M24.998 33.655H2.759A2.056 2.056 0 0 1 .703 31.6v-2.587c0-1.135.92-2.056 2.056-2.056h22.239c1.135 0 2.055.92 2.055 2.056v2.587c0 1.136-.92 2.056-2.055 2.056z" fill="#F1E64C"/><path d="M7.038 33.656H2.76A2.056 2.056 0 0 1 .703 31.6v-2.588c0-1.135.92-2.056 2.057-2.056h4.278c-1.136 0-2.056.921-2.056 2.056V31.6c0 1.135.92 2.056 2.056 2.056z" fill="#FFC250"/><path d="M27.053 29.965V31.6c0 1.136-.92 2.055-2.056 2.055H2.76A2.055 2.055 0 0 1 .703 31.6v-1.635c0 1.136.92 2.056 2.056 2.056h22.238c1.136 0 2.056-.92 2.056-2.056z" fill="#FFC250"/><path d="M28.807 26.956H6.57a2.056 2.056 0 0 1-2.056-2.055v-2.588c0-1.135.92-2.056 2.056-2.056h22.238c1.136 0 2.056.92 2.056 2.056v2.588c0 1.135-.92 2.055-2.056 2.055z" fill="#F1E64C"/><path d="M10.847 26.957H6.57A2.056 2.056 0 0 1 4.513 24.9v-2.588c0-1.135.92-2.056 2.056-2.056h4.278c-1.135 0-2.055.921-2.055 2.056v2.588c0 1.135.92 2.056 2.055 2.056z" fill="#FFC250"/><path d="M30.863 23.266v1.635c0 1.136-.92 2.055-2.056 2.055H6.57a2.055 2.055 0 0 1-2.056-2.055v-1.635c0 1.136.92 2.056 2.056 2.056h22.238c1.135 0 2.056-.92 2.056-2.056z" fill="#FFC250"/><path d="M26.128 20.257H3.89a2.056 2.056 0 0 1-2.056-2.056v-2.587c0-1.136.92-2.056 2.056-2.056h22.238c1.136 0 2.056.92 2.056 2.056V18.2c0 1.136-.92 2.056-2.056 2.056z" fill="#F1E64C"/><path d="M8.168 20.258H3.891a2.056 2.056 0 0 1-2.057-2.056v-2.588c0-1.135.92-2.056 2.057-2.056h4.277c-1.135 0-2.055.921-2.055 2.056v2.588c0 1.135.92 2.055 2.055 2.055z" fill="#FFC250"/><path d="M28.184 16.567v1.635c0 1.135-.92 2.055-2.056 2.055H3.89a2.055 2.055 0 0 1-2.056-2.055v-1.635c0 1.136.92 2.056 2.056 2.056h22.238c1.136 0 2.056-.92 2.056-2.056z" fill="#FFC250"/><path d="M26.873 40.355H4.634a2.056 2.056 0 0 1-2.056-2.056V35.71c0-1.135.92-2.056 2.056-2.056h22.239c1.135 0 2.055.92 2.055 2.056V38.3c0 1.135-.92 2.056-2.055 2.056z" fill="#F1E64C"/><path d="M28.928 36.665V38.3c0 1.135-.92 2.055-2.056 2.055H4.634A2.055 2.055 0 0 1 2.578 38.3v-1.635c0 1.135.92 2.056 2.056 2.056h22.238c1.136 0 2.056-.921 2.056-2.056z" fill="#FFC250"/><path d="M8.913 40.355H4.635a2.056 2.056 0 0 1-2.057-2.056v-2.588c0-1.135.92-2.055 2.057-2.055h4.278c-1.136 0-2.056.92-2.056 2.055V38.3c0 1.135.92 2.056 2.056 2.056z" fill="#FFC250"/><path d="M25.466 47.054H3.228a2.056 2.056 0 0 1-2.056-2.056V42.41c0-1.135.92-2.055 2.056-2.055h22.238c1.136 0 2.056.92 2.056 2.055v2.588c0 1.135-.92 2.056-2.056 2.056z" fill="#F1E64C"/><path d="M27.522 43.364v1.635c0 1.135-.92 2.055-2.056 2.055H3.228a2.055 2.055 0 0 1-2.056-2.055v-1.635c0 1.135.92 2.056 2.056 2.056h22.238c1.136 0 2.056-.92 2.056-2.056z" fill="#FFC250"/><path d="M7.506 47.054H3.228a2.056 2.056 0 0 1-2.056-2.056V42.41c0-1.135.92-2.055 2.056-2.055h4.278c-1.135 0-2.055.92-2.055 2.055V45c0 1.134.92 2.055 2.055 2.055z" fill="#FFC250"/><path d="M34.121 47.054c7.277 0 13.176-5.899 13.176-13.175 0-7.276-5.9-13.175-13.176-13.175s-13.175 5.898-13.175 13.175c0 7.276 5.899 13.175 13.175 13.175z" fill="#F1E64C"/><path d="M35.236 47.007a12.95 12.95 0 0 1-1.115.047c-7.276 0-13.175-5.898-13.175-13.175 0-7.277 5.899-13.175 13.175-13.175.376 0 .748.015 1.115.047-6.757.565-12.062 6.226-12.062 13.128s5.305 12.563 12.062 13.128z" fill="#FFC250"/><path d="M34.121 42.775a8.897 8.897 0 1 0 0-17.793 8.897 8.897 0 0 0 0 17.793z" fill="#FFC250"/><path d="M18.503 29.064V18.218h1.854c2.25 0 3.658-2.437 2.532-4.386L16.947 3.54c-1.126-1.95-3.94-1.95-5.065 0L5.94 13.83c-1.125 1.95.281 4.387 2.532 4.387h1.855v10.846a1.84 1.84 0 0 0 1.84 1.84h4.497a1.84 1.84 0 0 0 1.84-1.84z" fill="#95D6A4"/><path d="M13.86 30.904h-1.694a1.84 1.84 0 0 1-1.84-1.84V18.218H8.472c-2.25 0-3.658-2.436-2.531-4.386L11.882 3.54a2.896 2.896 0 0 1 2.532-1.461c-.66 0-1.32.487-1.696 1.46l-3.98 10.292c-.756 1.95.187 4.386 1.695 4.386h.762c.79 0 1.431.64 1.431 1.43v9.417c0 1.016.553 1.84 1.233 1.84z" fill="#78C2A4"/><path d="M34.999 15.458l-.054-.2a1.394 1.394 0 0 1 .894-1.68l2.133-.731a1.394 1.394 0 0 1 1.798.957l.134.5a1.394 1.394 0 0 1-1.079 1.728l-2.212.433c-.719.14-1.424-.3-1.614-1.007zM31.593 9.45l-.147-.147a1.394 1.394 0 0 1-.065-1.902l1.48-1.699a1.394 1.394 0 0 1 2.037-.07l.365.365c.571.571.539 1.506-.07 2.037l-1.699 1.48a1.394 1.394 0 0 1-1.901-.064zm-5.954-3.5l-.2-.054a1.394 1.394 0 0 1-1.008-1.614l.433-2.212a1.394 1.394 0 0 1 1.73-1.078l.498.133c.78.21 1.22 1.035.958 1.799l-.732 2.132a1.394 1.394 0 0 1-1.679.894z" fill="#F7F493"/><path d="M44.225 24.365a.703.703 0 1 0-1.023.964 12.423 12.423 0 0 1 3.392 8.55c0 6.877-5.595 12.472-12.473 12.472-6.877 0-12.471-5.595-12.471-12.472s5.594-12.472 12.471-12.472c2.54 0 4.982.758 7.064 2.193a.703.703 0 0 0 .798-1.158A13.796 13.796 0 0 0 34.12 20c-1.119 0-2.234.135-3.321.403a2.748 2.748 0 0 0-1.992-.85h-.277c.234-.413.357-.879.356-1.353v-2.587a2.762 2.762 0 0 0-2.759-2.76h-2.991L17.556 3.19a3.592 3.592 0 0 0-3.142-1.814c-1.311 0-2.485.678-3.14 1.813l-5.582 9.667H3.89a2.762 2.762 0 0 0-2.76 2.759V18.2a2.762 2.762 0 0 0 2.76 2.76h.276a2.742 2.742 0 0 0-.356 1.352v2.588c0 .474.122.94.356 1.352H2.759A2.762 2.762 0 0 0 0 29.011V31.6c0 1.35.975 2.476 2.258 2.713-.251.423-.383.907-.383 1.399v2.587c0 .535.156 1.059.449 1.506A2.763 2.763 0 0 0 .469 42.41v2.588a2.762 2.762 0 0 0 2.759 2.759h22.238a2.769 2.769 0 0 0 2.44-1.472 13.792 13.792 0 0 0 6.215 1.473c7.653 0 13.879-6.226 13.879-13.88 0-3.55-1.34-6.93-3.775-9.513zM3.281 38.298v-2.587c0-.746.607-1.353 1.353-1.353h15.619a13.785 13.785 0 0 0 1.25 5.293H4.633a1.354 1.354 0 0 1-1.353-1.353zm25.73-17.322a13.958 13.958 0 0 0-6.479 5.277h-3.325V20.96h9.6c.07 0 .137.006.204.016zm-1.53-5.362V18.2c0 .746-.607 1.353-1.353 1.353h-6.921v-.633h1.15a3.59 3.59 0 0 0 3.141-1.814c.511-.885.622-1.903.337-2.846h2.293c.746 0 1.353.607 1.353 1.353zM2.537 18.2v-2.587c0-.746.607-1.353 1.353-1.353h1.103c-.177.59-.2 1.217-.064 1.82a.703.703 0 0 0 1.372-.31 2.172 2.172 0 0 1 .248-1.588L12.492 3.89a2.197 2.197 0 0 1 1.922-1.11 2.2 2.2 0 0 1 1.924 1.111l5.942 10.291a2.198 2.198 0 0 1 0 2.22 2.198 2.198 0 0 1-1.923 1.112h-1.854a.703.703 0 0 0-.703.703v10.846c0 .627-.51 1.137-1.137 1.137h-4.496c-.627 0-1.137-.51-1.137-1.137V18.218a.703.703 0 0 0-.703-.703H8.472c-.267 0-.525-.045-.765-.132a.701.701 0 0 0-.943.691.703.703 0 0 0 .462.63c.395.144.815.217 1.246.217h1.151v.633H3.89a1.354 1.354 0 0 1-1.353-1.353zm2.68 6.7v-2.588c0-.746.606-1.353 1.352-1.353h3.054v5.293H6.57a1.354 1.354 0 0 1-1.353-1.352zm-3.81 6.698v-2.587c0-.746.606-1.352 1.352-1.352h6.864v1.404a2.546 2.546 0 0 0 2.544 2.543h4.496a2.546 2.546 0 0 0 2.544-2.543V27.66h2.51a13.776 13.776 0 0 0-1.442 5.292H2.76a1.354 1.354 0 0 1-1.353-1.353zm24.06 14.752H3.226a1.354 1.354 0 0 1-1.352-1.353V42.41c0-.746.607-1.352 1.353-1.352h19.02a13.988 13.988 0 0 0 4.433 4.532c-.22.452-.687.76-1.215.76z" fill="#000"/><path d="M35.51 33.15a39.98 39.98 0 0 1-.758-.229v-3.116c.755.112 1.206.43 1.24.455a.703.703 0 0 0 .846-1.123c-.045-.035-.822-.61-2.086-.747v-.607a.703.703 0 1 0-1.406 0v.653a5.61 5.61 0 0 0-.416.086c-1.185.294-2.07 1.199-2.255 2.304-.155.933.225 1.82.993 2.316.423.273.95.523 1.678.789v3.946c-.73-.03-1.213-.153-2.007-.581a.702.702 0 1 0-.667 1.238c1.05.565 1.73.717 2.674.75v.69a.703.703 0 1 0 1.406 0v-.735c1.853-.277 2.981-1.592 3.163-2.889.204-1.46-.74-2.716-2.405-3.2zM32.43 31.96c-.423-.273-.399-.723-.368-.904.073-.439.428-.977 1.206-1.17l.077-.018v2.553a5.884 5.884 0 0 1-.915-.46zm4.09 4.194c-.098.707-.725 1.422-1.769 1.653v-3.416l.365.107c1 .291 1.511.895 1.405 1.656z" fill="#000"/><path d="M34.122 24.28c-5.293 0-9.6 4.305-9.6 9.599 0 5.293 4.307 9.6 9.6 9.6 5.294 0 9.6-4.307 9.6-9.6 0-5.294-4.306-9.6-9.6-9.6zm0 17.792c-4.518 0-8.193-3.675-8.193-8.193s3.675-8.194 8.193-8.194 8.194 3.676 8.194 8.194c0 4.518-3.676 8.193-8.194 8.193zm.145-26.633l.053.2a2.105 2.105 0 0 0 2.429 1.516l2.212-.433a2.104 2.104 0 0 0 1.376-.948 2.103 2.103 0 0 0 .246-1.653l-.133-.499a2.105 2.105 0 0 0-1.04-1.308 2.104 2.104 0 0 0-1.666-.133l-2.132.732a2.104 2.104 0 0 0-1.346 2.526zm1.801-1.196l2.132-.731a.684.684 0 0 1 .55.044c.17.09.292.244.342.43l.133.5c.05.186.021.38-.081.544a.684.684 0 0 1-.453.312l-2.212.433a.692.692 0 0 1-.8-.499l-.054-.2a.693.693 0 0 1 .443-.833zm-4.972-4.295c.407.406.945.612 1.484.612.49 0 .982-.17 1.377-.514l1.699-1.481c.436-.38.698-.93.718-1.51a2.104 2.104 0 0 0-.613-1.554l-.365-.365a2.1 2.1 0 0 0-3.064.105l-1.48 1.7a2.103 2.103 0 0 0 .097 2.86l.147.147zm.815-2.084l1.481-1.699a.683.683 0 0 1 .522-.237.684.684 0 0 1 .488.202l.365.366a.684.684 0 0 1 .136.785.684.684 0 0 1-.17.224l-1.7 1.48a.693.693 0 0 1-.942-.032l-.147-.146a.693.693 0 0 1-.033-.943zm-6.654-1.287l.201.053a2.105 2.105 0 0 0 2.526-1.346l.731-2.131a2.105 2.105 0 0 0-.133-1.666 2.103 2.103 0 0 0-1.308-1.04l-.498-.133a2.104 2.104 0 0 0-2.27.836 2.104 2.104 0 0 0-.33.786l-.434 2.212a2.104 2.104 0 0 0 1.515 2.429zm-.135-2.159l.433-2.212a.684.684 0 0 1 .576-.55.685.685 0 0 1 .28.016l.5.134a.683.683 0 0 1 .43.342.685.685 0 0 1 .044.549l-.73 2.132a.693.693 0 0 1-.833.443l-.2-.053a.693.693 0 0 1-.5-.8z" fill="#000"/></g><defs><clipPath id="clip0_746_3923"><path fill="#fff" d="M0 0h48v48H0z"/></clipPath></defs></svg>