<svg width="140" height="490" fill="none" xmlns="http://www.w3.org/2000/svg"><path fill="#236967" d="M0 140h140v140H0z"/><circle cx="70.5" cy="194.5" r="30.5" fill="#FFCC1A"/><circle cx="70.5" cy="225.5" r="30.5" fill="#FDE9D4"/><path d="M41.394 194.5A52.124 52.124 0 0 0 70.5 165.394 52.124 52.124 0 0 0 99.606 194.5 52.123 52.123 0 0 0 70.5 223.607 52.123 52.123 0 0 0 41.394 194.5z" stroke="#FDE9D4"/><path d="M41.394 225.5A52.124 52.124 0 0 0 70.5 196.394 52.124 52.124 0 0 0 99.606 225.5 52.123 52.123 0 0 0 70.5 254.607 52.123 52.123 0 0 0 41.394 225.5z" stroke="#FDD503"/><g clip-path="url(#clip0)"><path fill="#FFCC1A" d="M0 0h140v140H0z"/><path d="M0 140a70 70 0 0 1 140 0h-12.892a57.107 57.107 0 1 0-114.216 0H0z" fill="#FDE9D4"/><circle cx="19.96" cy="144" r="19.96" fill="#FDE9D4"/><circle cx="53.695" cy="144" r="19.96" fill="#FDE9D4"/><circle cx="87.43" cy="144" r="19.96" fill="#FDE9D4"/><circle cx="120.041" cy="144" r="19.96" fill="#FDE9D4"/><circle cx="70" cy="34" r="20" fill="#FC8B4C"/></g><mask id="a" fill="#fff"><path d="M140 420a69.997 69.997 0 0 1-20.503 49.497 69.996 69.996 0 0 1-98.995 0A69.998 69.998 0 0 1 0 420h140z"/></mask><path d="M140 420a69.997 69.997 0 0 1-20.503 49.497 69.996 69.996 0 0 1-98.995 0A69.998 69.998 0 0 1 0 420h140z" fill="#FDE9D4" stroke="#236967" stroke-width="20" mask="url(#a)"/><path fill="#FE7167" d="M0 280h140v140H0z"/><path fill="#FDE9D4" d="M65.833 325h8.333v50h-8.333z"/><path fill="#FDE9D4" d="M49.376 335.269l5.892-5.892 35.356 35.355-5.893 5.892z"/><path fill="#FDE9D4" d="M90.624 335.269l-5.892-5.892-35.356 35.355 5.893 5.892z"/><path fill="#FDE9D4" d="M45 354.167v-8.333h50v8.333z"/><circle r="5" transform="matrix(-1 0 0 1 70 400)" fill="#FDE9D4"/><circle r="5" transform="matrix(-1 0 0 1 120 350)" fill="#FDE9D4"/><circle r="5" transform="matrix(-1 0 0 1 20 350)" fill="#FDE9D4"/><circle r="5" transform="matrix(-1 0 0 1 70 300)" fill="#FDE9D4"/><defs><clipPath id="clip0"><path fill="#fff" d="M0 0h140v140H0z"/></clipPath></defs></svg>