<svg width="18" height="17" fill="none" xmlns="http://www.w3.org/2000/svg"><path fill-rule="evenodd" clip-rule="evenodd" d="M15.88 3.373V0H2.142v3.373H7.18V5.57l-.163.01a32.534 32.534 0 0 0-2.703.247c-1.419.194-2.602.48-3.35.812C-.125 7.121-.3 7.682.477 8.195c.938.62 3.218 1.109 5.993 1.285l.59.039.12.008v7.061H10.827V9.526l.076-.007a6.5 6.5 0 0 1 .264-.017c.103-.005.367-.021.586-.037 2.668-.19 4.834-.662 5.754-1.254.211-.136.366-.29.439-.437A.38.38 0 0 0 18 7.54a.363.363 0 0 0-.05-.224c-.066-.13-.225-.291-.406-.411-.776-.514-2.442-.938-4.61-1.173-.61-.066-1.029-.1-1.929-.154l-.163-.01V3.373h5.037zM4.4 6.066a32.032 32.032 0 0 1 2.316-.217c.1-.006.244-.012.322-.014l.141-.002.004 1.227.003 1.227.095.01c.623.06 2.888.063 3.463.002l.083-.009V5.83l.22.01c.57.025 1.47.098 2.088.169 1.55.177 2.748.449 3.416.773.221.107.317.17.432.28.114.11.16.202.16.314 0 .107-.036.183-.14.293-.242.256-.798.49-1.653.698-1.284.313-3.12.517-5.21.581-.874.027-2.388.006-3.33-.045-2.693-.147-4.812-.553-5.613-1.075-.42-.274-.451-.575-.088-.847.493-.37 1.674-.699 3.291-.914z" fill="#3F7753"/></svg>