<svg width="21" height="20" fill="none" xmlns="http://www.w3.org/2000/svg"><path d="M14.248 12.023c0-2.023-1.214-2.717-3.642-3.006-1.734-.231-2.081-.693-2.081-1.503 0-.81.578-1.33 1.734-1.33 1.04 0 1.619.348 1.908 1.215a.435.435 0 0 0 .404.289h.925a.395.395 0 0 0 .405-.405v-.058a2.888 2.888 0 0 0-2.601-2.37V3.468c0-.231-.174-.405-.463-.462H9.97c-.231 0-.404.173-.462.462v1.33c-1.734.23-2.833 1.387-2.833 2.832 0 1.907 1.156 2.659 3.584 2.948 1.619.289 2.139.636 2.139 1.56 0 .925-.81 1.561-1.908 1.561-1.503 0-2.023-.636-2.196-1.503-.058-.23-.231-.346-.405-.346h-.983a.395.395 0 0 0-.404.404v.058c.231 1.445 1.156 2.486 3.064 2.775v1.387c0 .231.173.404.462.462h.867c.231 0 .405-.173.463-.462v-1.387c1.734-.29 2.89-1.503 2.89-3.064z" fill="#5482C7"/><path d="M7.485 18.093C2.976 16.474.664 11.445 2.34 6.994c.867-2.428 2.775-4.277 5.145-5.144.231-.116.347-.29.347-.578v-.81c0-.23-.116-.404-.347-.462-.058 0-.174 0-.231.058C1.762 1.792-1.244 7.63.49 13.12a10.398 10.398 0 0 0 6.763 6.763c.23.116.462 0 .52-.23.058-.058.058-.116.058-.232v-.81c0-.173-.174-.404-.347-.52zM13.612.058c-.231-.116-.462 0-.52.231-.058.058-.058.116-.058.231v.81c0 .23.173.462.347.578 4.509 1.618 6.82 6.647 5.144 11.098-.867 2.428-2.774 4.277-5.144 5.144-.231.116-.347.29-.347.578v.81c0 .23.116.404.347.462.058 0 .173 0 .231-.058 5.492-1.734 8.497-7.572 6.763-13.063A10.484 10.484 0 0 0 13.612.058z" fill="#5482C7"/></svg>