<svg width="167" height="50" fill="none" xmlns="http://www.w3.org/2000/svg"><g clip-path="url(#clip0_971_3931)"><path d="M161.059 50H5.85C2.625 50 0 47.34 0 44.084V5.907C0 2.65 2.625 0 5.85 0h155.209C164.282 0 167 2.65 167 5.907v38.177c0 3.256-2.718 5.916-5.941 5.916z" fill="#A6A6A6"/><path d="M165.803 44.085c0 2.645-2.12 4.788-4.743 4.788H5.85c-2.62 0-4.748-2.143-4.748-4.788V5.906c0-2.643 2.127-4.793 4.749-4.793h155.208c2.624 0 4.743 2.15 4.743 4.793l.001 38.18z" fill="#000"/><path d="M37.27 24.73c-.036-4.029 3.264-5.989 3.415-6.08-1.87-2.754-4.766-3.13-5.784-3.16-2.434-.259-4.794 1.471-6.033 1.471-1.265 0-3.173-1.446-5.23-1.403-2.648.04-5.124 1.59-6.483 3.994-2.803 4.904-.712 12.11 1.973 16.074 1.344 1.942 2.914 4.109 4.968 4.033 2.01-.084 2.762-1.295 5.187-1.295 2.404 0 3.109 1.295 5.204 1.246 2.158-.035 3.516-1.95 4.813-3.909 1.552-2.225 2.175-4.416 2.2-4.529-.05-.017-4.19-1.613-4.23-6.442zM33.313 12.883c1.082-1.367 1.821-3.226 1.616-5.112-1.565.07-3.522 1.094-4.649 2.43-.997 1.178-1.888 3.108-1.658 4.923 1.758.132 3.563-.897 4.691-2.242zM66.359 39.38h-2.81l-1.538-4.886h-5.35l-1.465 4.886h-2.735l5.3-16.635h3.273l5.325 16.635zm-4.812-6.936L60.155 28.1c-.147-.444-.423-1.489-.83-3.134h-.05a122.4 122.4 0 0 1-.781 3.134l-1.367 4.344h4.42zM79.986 33.235c0 2.04-.545 3.652-1.636 4.836-.978 1.054-2.191 1.58-3.64 1.58-1.563 0-2.687-.567-3.37-1.702h-.05v6.318h-2.638V31.334c0-1.283-.033-2.6-.097-3.95h2.32l.146 1.902h.05c.88-1.432 2.214-2.147 4.005-2.147 1.4 0 2.57.558 3.505 1.677.938 1.12 1.405 2.593 1.405 4.419zm-2.687.097c0-1.167-.26-2.13-.782-2.887-.57-.79-1.335-1.185-2.295-1.185-.651 0-1.242.22-1.77.654-.53.437-.876 1.008-1.038 1.716-.082.33-.123.6-.123.812v2c0 .873.265 1.61.794 2.21.53.602 1.217.902 2.064.902.993 0 1.766-.388 2.319-1.16.554-.774.831-1.794.831-3.062zM93.641 33.235c0 2.04-.545 3.652-1.638 4.836-.976 1.054-2.19 1.58-3.638 1.58-1.563 0-2.687-.567-3.37-1.702h-.049v6.318h-2.637V31.334c0-1.283-.034-2.6-.098-3.95h2.32l.147 1.902h.05c.877-1.432 2.212-2.147 4.005-2.147 1.399 0 2.568.558 3.505 1.677.934 1.12 1.403 2.593 1.403 4.419zm-2.687.097c0-1.167-.26-2.13-.783-2.887-.57-.79-1.333-1.185-2.294-1.185-.652 0-1.242.22-1.772.654-.53.437-.874 1.008-1.037 1.716-.08.33-.122.6-.122.812v2c0 .873.265 1.61.792 2.21.53.6 1.217.902 2.066.902.993 0 1.766-.388 2.319-1.16.554-.774.831-1.794.831-3.062zM108.904 34.715c0 1.415-.486 2.566-1.462 3.455-1.072.971-2.565 1.456-4.484 1.456-1.771 0-3.192-.345-4.267-1.036l.611-2.221a7.173 7.173 0 0 0 3.813 1.062c.993 0 1.767-.227 2.322-.68.553-.452.829-1.06.829-1.817 0-.675-.228-1.244-.684-1.705-.454-.462-1.213-.89-2.271-1.287-2.883-1.086-4.323-2.677-4.323-4.77 0-1.367.505-2.488 1.516-3.36 1.007-.875 2.35-1.31 4.03-1.31 1.498 0 2.742.263 3.736.79l-.66 2.172c-.927-.51-1.976-.765-3.15-.765-.928 0-1.653.231-2.173.691a1.985 1.985 0 0 0-.659 1.506c0 .658.251 1.201.756 1.629.439.395 1.237.823 2.395 1.284 1.416.576 2.457 1.25 3.126 2.022.667.77.999 1.734.999 2.884zM117.624 29.385h-2.907v5.824c0 1.481.512 2.221 1.539 2.221.471 0 .862-.041 1.171-.124l.073 2.024c-.519.196-1.204.295-2.051.295-1.042 0-1.855-.321-2.443-.962-.585-.643-.88-1.72-.88-3.234v-6.047h-1.731v-2h1.731v-2.196l2.591-.79v2.986h2.907v2.003zM130.744 33.284c0 1.843-.522 3.357-1.564 4.54-1.092 1.22-2.542 1.827-4.349 1.827-1.742 0-3.128-.584-4.163-1.751-1.034-1.168-1.551-2.641-1.551-4.418 0-1.858.532-3.38 1.6-4.565 1.065-1.185 2.502-1.777 4.31-1.777 1.741 0 3.143.584 4.2 1.752 1.012 1.134 1.517 2.598 1.517 4.392zm-2.736.086c0-1.106-.234-2.055-.708-2.846-.553-.958-1.343-1.435-2.368-1.435-1.06 0-1.865.478-2.418 1.435-.474.792-.707 1.756-.707 2.896 0 1.106.233 2.055.707 2.845.57.957 1.367 1.435 2.395 1.435 1.007 0 1.797-.488 2.368-1.46.486-.806.731-1.765.731-2.87zM139.316 29.729a4.533 4.533 0 0 0-.831-.074c-.928 0-1.646.354-2.15 1.062-.44.625-.66 1.415-.66 2.37v6.293h-2.636l.025-8.218c0-1.382-.034-2.64-.099-3.776h2.297l.097 2.295h.072c.279-.789.718-1.424 1.319-1.9.588-.429 1.222-.642 1.906-.642.244 0 .464.017.66.048v2.542zM151.112 32.815c0 .477-.031.88-.097 1.209h-7.912c.031 1.185.414 2.091 1.148 2.716.667.559 1.529.839 2.588.839 1.172 0 2.241-.189 3.202-.568l.413 1.85c-1.123.495-2.449.742-3.98.742-1.84 0-3.285-.548-4.337-1.642-1.049-1.093-1.575-2.562-1.575-4.405 0-1.808.489-3.315 1.468-4.516 1.024-1.282 2.408-1.924 4.15-1.924 1.711 0 3.006.642 3.885 1.924.697 1.019 1.047 2.279 1.047 3.775zm-2.515-.691c.017-.79-.155-1.473-.512-2.049-.457-.741-1.158-1.111-2.102-1.111-.862 0-1.563.361-2.099 1.086-.439.576-.7 1.267-.781 2.073h5.494zM60.68 12.511c0 1.472-.438 2.58-1.31 3.323-.807.686-1.956 1.03-3.442 1.03a15.8 15.8 0 0 1-1.897-.098V8.728c.69-.113 1.431-.17 2.233-.17 1.416 0 2.484.31 3.204.933.807.704 1.211 1.71 1.211 3.02zm-1.368.037c0-.954-.25-1.685-.75-2.195-.5-.51-1.23-.764-2.19-.764a5.43 5.43 0 0 0-1.044.085v6.111c.16.025.451.036.875.036.993 0 1.758-.278 2.298-.836.539-.557.811-1.37.811-2.437zM67.926 13.796c0 .907-.256 1.65-.768 2.232-.537.598-1.248.897-2.136.897-.856 0-1.538-.286-2.046-.861-.508-.574-.761-1.298-.761-2.17 0-.913.26-1.661.785-2.243.525-.58 1.23-.872 2.118-.872.856 0 1.544.286 2.065.86.495.557.743 1.277.743 2.157zm-1.344.043c0-.544-.117-1.01-.348-1.399-.272-.47-.66-.705-1.163-.705-.52 0-.916.235-1.189.705-.232.389-.347.863-.347 1.423 0 .543.116 1.01.347 1.398.281.47.672.705 1.177.705.495 0 .883-.238 1.163-.717.24-.396.36-.866.36-1.41zM77.644 10.899L75.82 16.79h-1.188l-.756-2.558a19.324 19.324 0 0 1-.469-1.904h-.023a14.063 14.063 0 0 1-.469 1.904l-.803 2.558h-1.2L69.194 10.9h1.333l.659 2.801c.16.663.29 1.294.396 1.891h.023c.097-.492.256-1.12.482-1.878l.827-2.813h1.056l.793 2.753c.192.67.348 1.317.468 1.94h.036c.088-.607.22-1.253.396-1.94l.707-2.753h1.273V10.9zM84.365 16.791H83.07v-3.375c0-1.04-.391-1.56-1.175-1.56-.385 0-.696.143-.937.43-.238.285-.36.623-.36 1.01v3.494h-1.296v-4.207c0-.518-.016-1.08-.047-1.687h1.14l.06.922h.036c.15-.287.376-.523.671-.712.352-.22.745-.33 1.176-.33.544 0 .997.177 1.357.533.447.436.671 1.087.671 1.952v3.53zM87.94 16.791h-1.296V8.195h1.296v8.596zM95.575 13.796c0 .907-.256 1.65-.769 2.232-.536.598-1.249.897-2.136.897-.857 0-1.539-.286-2.046-.861-.507-.574-.76-1.298-.76-2.17 0-.913.26-1.661.785-2.243.524-.58 1.23-.872 2.116-.872.858 0 1.544.286 2.066.86.495.557.744 1.277.744 2.157zm-1.346.043c0-.544-.117-1.01-.348-1.399-.27-.47-.66-.705-1.161-.705-.522 0-.918.235-1.19.705-.232.389-.347.863-.347 1.423 0 .543.116 1.01.348 1.398.28.47.671.705 1.176.705.495 0 .882-.238 1.162-.717.241-.396.36-.866.36-1.41zM101.846 16.791h-1.164l-.097-.678h-.035c-.399.54-.967.812-1.704.812-.55 0-.996-.179-1.33-.534-.305-.322-.457-.723-.457-1.2 0-.72.297-1.268.894-1.648.596-.38 1.435-.567 2.515-.558v-.11c0-.776-.403-1.164-1.211-1.164-.575 0-1.083.147-1.52.437l-.264-.86c.542-.34 1.211-.51 2-.51 1.524 0 2.289.813 2.289 2.438v2.17c0 .59.028 1.058.084 1.405zm-1.346-2.025v-.908c-1.43-.025-2.145.37-2.145 1.187 0 .308.082.538.249.691a.9.9 0 0 0 .633.23 1.3 1.3 0 0 0 .793-.272 1.117 1.117 0 0 0 .47-.928zM109.215 16.791h-1.15l-.061-.946h-.036c-.367.72-.993 1.08-1.873 1.08-.702 0-1.287-.279-1.751-.836-.464-.558-.696-1.281-.696-2.17 0-.954.252-1.726.756-2.316.489-.55 1.088-.825 1.8-.825.783 0 1.331.266 1.643.8h.025V8.195h1.297v7.009c0 .574.015 1.102.046 1.587zm-1.343-2.485v-.982c0-.17-.013-.308-.036-.413a1.493 1.493 0 0 0-.469-.793 1.266 1.266 0 0 0-.867-.322c-.484 0-.862.194-1.141.583-.276.389-.415.885-.415 1.491 0 .583.132 1.055.398 1.419a1.33 1.33 0 0 0 1.133.581c.426 0 .766-.161 1.024-.485.25-.299.373-.659.373-1.079zM120.301 13.796c0 .907-.256 1.65-.768 2.232-.537.598-1.247.897-2.136.897-.855 0-1.537-.286-2.046-.861-.508-.574-.761-1.298-.761-2.17 0-.913.261-1.661.785-2.243.525-.58 1.23-.872 2.119-.872.855 0 1.544.286 2.064.86.495.557.743 1.277.743 2.157zm-1.343.043c0-.544-.116-1.01-.348-1.399-.273-.47-.659-.705-1.164-.705-.519 0-.915.235-1.189.705-.232.389-.347.863-.347 1.423 0 .543.116 1.01.347 1.398.281.47.672.705 1.177.705.495 0 .884-.238 1.164-.717.239-.396.36-.866.36-1.41zM127.274 16.791h-1.295v-3.375c0-1.04-.391-1.56-1.176-1.56-.385 0-.696.143-.936.429-.24.286-.36.624-.36 1.01v3.495h-1.297v-4.207c0-.518-.015-1.08-.046-1.687h1.138l.061.921h.036c.152-.286.377-.522.671-.71a2.18 2.18 0 0 1 1.177-.332c.543 0 .996.178 1.356.534.449.436.671 1.087.671 1.952v3.53zM135.997 11.88h-1.428v2.863c0 .727.254 1.09.756 1.09.233 0 .426-.02.578-.06l.033.993c-.256.098-.592.147-1.007.147-.512 0-.91-.158-1.198-.473-.29-.315-.433-.845-.433-1.589v-2.97h-.853v-.982h.853v-1.08l1.27-.388v1.467h1.428l.001.982zM142.861 16.791h-1.297v-3.35c0-1.056-.391-1.585-1.174-1.585-.601 0-1.012.307-1.237.92a1.637 1.637 0 0 0-.061.47v3.544h-1.295V8.195h1.295v3.551h.025c.408-.646.993-.968 1.751-.968.537 0 .981.177 1.334.533.439.444.659 1.104.659 1.977v3.503zM149.942 13.566c0 .235-.017.433-.048.594h-3.888c.017.583.203 1.026.563 1.334.329.275.753.412 1.273.412.575 0 1.099-.092 1.572-.278l.203.91c-.553.242-1.204.363-1.957.363-.903 0-1.614-.268-2.129-.806-.517-.537-.773-1.259-.773-2.164 0-.888.239-1.628.72-2.218.502-.63 1.181-.945 2.038-.945.839 0 1.476.315 1.907.945.347.5.519 1.118.519 1.853zm-1.237-.338c.01-.39-.075-.724-.251-1.007-.225-.363-.568-.546-1.032-.546-.423 0-.768.178-1.031.534a1.988 1.988 0 0 0-.385 1.019h2.699z" fill="#fff"/></g><defs><clipPath id="clip0_971_3931"><path fill="#fff" d="M0 0h167v50H0z"/></clipPath></defs></svg>