<svg width="108" height="108" fill="none" xmlns="http://www.w3.org/2000/svg"><g clip-path="url(#clip0)"><path d="M36.014 108a17.998 17.998 0 0 0 18-18V72h-18a18 18 0 1 0 0 36z" fill="#0ACF83"/><path d="M18.014 54a18 18 0 0 1 18-18h18v36h-18a18 18 0 0 1-18-18z" fill="#A259FF"/><path d="M18.014 18A18 18 0 0 1 36 0h18v36H36.014a18 18 0 0 1-18-18z" fill="#F24E1E"/><path d="M54.014 0h18a18 18 0 0 1 0 36h-18V0z" fill="#FF7262"/><path d="M90.014 54a18 18 0 1 1-36 0 18 18 0 0 1 36 0z" fill="#1ABCFE"/></g><defs><clipPath id="clip0"><path fill="#fff" d="M0 0h108v108H0z"/></clipPath></defs></svg>