<svg width="110" height="50" viewBox="0 0 110 50" fill="none" xmlns="http://www.w3.org/2000/svg">
<path fill-rule="evenodd" clip-rule="evenodd" d="M20.833 0H29.1663V14.9414L39.7315 4.37624L45.624 10.2688L35.0597 20.8332H50V29.1665H35.0588L45.6239 39.7316L39.7313 45.6241L29.1663 35.0592V50H20.833V35.0598L10.2687 45.6241L4.37613 39.7316L14.9412 29.1665H0V20.8332H14.9403L4.37598 10.2688L10.2685 4.37624L20.833 14.9407V0ZM80.833 0H89.1663V14.9414L99.7315 4.37624L105.624 10.2688L95.0597 20.8332H110V29.1665H95.0588L105.624 39.7316L99.7313 45.6241L89.1663 35.0592V50H80.833V35.0598L70.2687 45.6241L64.3761 39.7316L74.9412 29.1665H60V20.8332H74.9403L64.376 10.2688L70.2685 4.37624L80.833 14.9407V0Z" fill="#FFCC1A"/>
</svg>
