<svg width="110" height="50" fill="none" xmlns="http://www.w3.org/2000/svg"><path fill-rule="evenodd" clip-rule="evenodd" d="M20.833 0h8.333v14.941L39.731 4.376l5.893 5.893L35.06 20.833H50v8.334H35.059l10.565 10.565-5.893 5.892L29.166 35.06V50h-8.333V35.06L10.269 45.624l-5.893-5.892 10.565-10.566H0v-8.333h14.94L4.376 10.27l5.892-5.893 10.565 10.565V0zm60 0h8.333v14.941L99.732 4.376l5.892 5.893L95.06 20.833H110v8.334H95.059l10.565 10.565-5.893 5.892L89.166 35.06V50h-8.333V35.06L70.269 45.624l-5.893-5.892 10.565-10.566H60v-8.333h14.94L64.376 10.27l5.892-5.893 10.565 10.565V0z" fill="#FFCC1A"/></svg>