<svg width="499" height="346" fill="none" xmlns="http://www.w3.org/2000/svg"><path fill-rule="evenodd" clip-rule="evenodd" d="M284 276a59.24 59.24 0 0 0 35 35 59.24 59.24 0 0 0-35 35 59.24 59.24 0 0 0-35-35 59.24 59.24 0 0 0 35-35zm105 35a59.24 59.24 0 0 0-35 35 59.24 59.24 0 0 0-35-35 59.24 59.24 0 0 0 35-35 59.24 59.24 0 0 0 35 35zm0 0a59.24 59.24 0 0 0 35-35 59.24 59.24 0 0 0 35 35 59.24 59.24 0 0 0-35 35 59.24 59.24 0 0 0-35-35z" fill="#236967"/><rect x="299" y="62" width="200" height="200" rx="50" fill="#FE7167"/><path fill-rule="evenodd" clip-rule="evenodd" d="M195 238H5a2 2 0 1 0 0 4h190a2 2 0 1 0 0-4zM5 235a5 5 0 0 0 0 10h190a5 5 0 0 0 0-10H5zm190 43H5a2 2 0 1 0 0 4h190a2 2 0 1 0 0-4zM5 275a5 5 0 0 0 0 10h190a5 5 0 0 0 0-10H5zm0-17h190a2 2 0 1 1 0 4H5a2 2 0 1 1 0-4zm-5 2a5 5 0 0 1 5-5h190a5 5 0 0 1 0 10H5a5 5 0 0 1-5-5z" fill="#FFECA0"/><path fill-rule="evenodd" clip-rule="evenodd" d="M125 30c0 16.569-13.431 30-30 30-16.569 0-30-13.431-30-30C65 13.431 78.431 0 95 0c16.569 0 30 13.431 30 30zm62 0c0 16.569-13.431 30-30 30-16.569 0-30-13.431-30-30 0-16.569 13.431-30 30-30 16.569 0 30 13.431 30 30zm-30 92c16.569 0 30-13.431 30-30 0-16.569-13.431-30-30-30-16.569 0-30 13.431-30 30 0 16.569 13.431 30 30 30zm30 32c0 16.569-13.431 30-30 30-16.569 0-30-13.431-30-30 0-16.569 13.431-30 30-30 16.569 0 30 13.431 30 30zm-92-32c16.569 0 30-13.431 30-30 0-16.569-13.431-30-30-30-16.569 0-30 13.431-30 30 0 16.569 13.431 30 30 30zm30 32c0 16.569-13.431 30-30 30-16.569 0-30-13.431-30-30 0-16.569 13.431-30 30-30 16.569 0 30 13.431 30 30zm94-94c16.569 0 30-13.431 30-30 0-16.569-13.431-30-30-30-16.569 0-30 13.431-30 30 0 16.569 13.431 30 30 30zm30 32c0 16.569-13.431 30-30 30-16.569 0-30-13.431-30-30 0-16.569 13.431-30 30-30 16.569 0 30 13.431 30 30zm-30 92c16.569 0 30-13.431 30-30 0-16.569-13.431-30-30-30-16.569 0-30 13.431-30 30 0 16.569 13.431 30 30 30z" fill="#FFCC1A"/></svg>