<svg width="446" height="338" fill="none" xmlns="http://www.w3.org/2000/svg"><path fill-rule="evenodd" clip-rule="evenodd" d="M195 245H5a2 2 0 1 0 0 4h190a2 2 0 1 0 0-4zM5 242a5 5 0 0 0 0 10h190a5 5 0 0 0 0-10H5zm190 43H5a2 2 0 1 0 0 4h190a2 2 0 1 0 0-4zM5 282a5 5 0 0 0 0 10h190a5 5 0 0 0 0-10H5zm0-17h190a2 2 0 1 1 0 4H5a2 2 0 1 1 0-4zm-5 2a5 5 0 0 1 5-5h190a5 5 0 0 1 0 10H5a5 5 0 0 1-5-5z" fill="#000"/><rect x="-1.5" y="1.5" width="197" height="197" rx="58.5" transform="matrix(-1 0 0 1 443 71)" fill="#FFCC1A" stroke="#FFCC1A" stroke-width="3"/><rect x="-2.5" y="2.5" width="171" height="171" rx="47.5" transform="matrix(-1 0 0 1 429 83)" fill="#fff" stroke="#236967" stroke-width="5"/><path d="M117 66.5c0 26.786-21.714 48.5-48.5 48.5S20 93.286 20 66.5 41.714 18 68.5 18 117 39.714 117 66.5zm-85.925 0c0 20.67 16.756 37.425 37.425 37.425 20.67 0 37.425-16.756 37.425-37.425 0-20.67-16.756-37.425-37.425-37.425-20.67 0-37.425 16.756-37.425 37.425z" fill="#FC8B4C"/><circle cx="355" cy="303" r="35" fill="#FE7167"/><path fill-rule="evenodd" clip-rule="evenodd" d="M355.166 275h-8.333v14.941l-10.564-10.565-5.893 5.893 10.564 10.564H326v8.334h14.941l-10.565 10.565 5.893 5.892 10.564-10.564V325h8.333v-14.941l10.565 10.565 5.893-5.892-10.565-10.565H376v-8.334h-14.94l10.564-10.564-5.893-5.893-10.565 10.565V275z" fill="#fff"/><path fill-rule="evenodd" clip-rule="evenodd" d="M151 50c13.807 0 25-11.193 25-25 0 13.807 11.193 25 25 25s25-11.193 25-25-11.193-25-25-25-25 11.193-25 25c0-13.807-11.193-25-25-25s-25 11.193-25 25 11.193 25 25 25z" fill="#038192"/></svg>