<svg width="507" height="346" fill="none" xmlns="http://www.w3.org/2000/svg"><path fill-rule="evenodd" clip-rule="evenodd" d="M251 276a59.24 59.24 0 0 1-35 35 59.24 59.24 0 0 1 35 35 59.24 59.24 0 0 1 35-35 59.24 59.24 0 0 1-35-35zm-105 35a59.24 59.24 0 0 1 35 35 59.24 59.24 0 0 1 35-35 59.24 59.24 0 0 1-35-35 59.24 59.24 0 0 1-35 35zm0 0a59.24 59.24 0 0 1-35-35 59.24 59.24 0 0 1-35 35 59.24 59.24 0 0 1 35 35 59.24 59.24 0 0 1 35-35z" fill="#FE7167"/><rect width="200" height="200" rx="50" transform="matrix(-1 0 0 1 200 69)" fill="#FDE9D4"/><path fill-rule="evenodd" clip-rule="evenodd" d="M312 189h190a2 2 0 1 1 0 4H312a2 2 0 1 1 0-4zm190-3a5 5 0 0 1 0 10H312a5 5 0 0 1 0-10h190zm-190 43h190a2 2 0 1 1 0 4H312a2 2 0 1 1 0-4zm190-3a5 5 0 0 1 0 10H312a5 5 0 0 1 0-10h190zm0-17H312a2 2 0 1 0 0 4h190a2 2 0 1 0 0-4zm5 2a5 5 0 0 0-5-5H312a5 5 0 0 0 0 10h190a5 5 0 0 0 5-5z" fill="#FFECA0"/><path fill-rule="evenodd" clip-rule="evenodd" d="M412 60c-16.569 0-30-13.431-30-30 0-16.569 13.431-30 30-30 16.569 0 30 13.431 30 30 0 16.569-13.431 30-30 30zm-62 0c-16.569 0-30-13.431-30-30 0-16.569 13.431-30 30-30 16.569 0 30 13.431 30 30 0 16.569-13.431 30-30 30zm-30 32c0 16.569 13.431 30 30 30 16.569 0 30-13.431 30-30 0-16.569-13.431-30-30-30-16.569 0-30 13.431-30 30zm92 30c-16.569 0-30-13.431-30-30 0-16.569 13.431-30 30-30 16.569 0 30 13.431 30 30 0 16.569-13.431 30-30 30zM258 30c0 16.569 13.431 30 30 30 16.569 0 30-13.431 30-30 0-16.569-13.431-30-30-30-16.569 0-30 13.431-30 30zm-32 30c-16.569 0-30-13.431-30-30 0-16.569 13.431-30 30-30 16.569 0 30 13.431 30 30 0 16.569-13.431 30-30 30zm32 32c0 16.569 13.431 30 30 30 16.569 0 30-13.431 30-30 0-16.569-13.431-30-30-30-16.569 0-30 13.431-30 30zm-32 30c-16.569 0-30-13.431-30-30 0-16.569 13.431-30 30-30 16.569 0 30 13.431 30 30 0 16.569-13.431 30-30 30z" fill="#236967"/></svg>