<svg width="1119" height="570" fill="none" xmlns="http://www.w3.org/2000/svg"><path fill-rule="evenodd" clip-rule="evenodd" d="M96.497 556.831c1.919 5.063 6.76 8.245 16.383 10.767 8.62 2.259 12.558 2.085 16.362-.722 1.732-1.28 4.604-3.857 6.381-5.727 10.526-11.078 38.275-31.864 75.129-56.277 9.331-6.18 18.848-12.5 21.15-14.044 2.303-1.543 13.39-10.3 24.639-19.459 20.791-16.928 34.196-27.802 35.985-29.19.644-.5 2.258-.336 4.619.468 2.736.933 4.379 1.043 6.684.45 5.859-1.509 12.321-4.138 11.889-4.837-.24-.387.056-.516.656-.286.6.231 2.527-.889 4.283-2.488 1.755-1.598 2.762-2.693 2.238-2.434-.525.26-1.171.122-1.435-.306-.274-.442.286-.631 1.298-.436 2.043.394 4.15-1.014 3.381-2.259-.302-.488-.129-.599.412-.265.513.317.933.131.933-.413 0-.545.232-.759.515-.476 1.103 1.103 4.898-2.714 5.847-5.882.798-2.661 1.443-3.396 3.316-3.77 1.28-.256 3.101-1.29 4.048-2.298 1.52-1.618 2.107-1.746 5.009-1.094 1.807.406 3.936 1.086 4.732 1.512.943.504 1.588.488 1.854-.048.225-.452.306-.358.18.208-.125.567.462 2.016 1.305 3.22.844 1.205 2.214 4.168 3.046 6.585 2.347 6.821 3.046 7.784 5.655 7.784 1.782 0 2.732-.651 4.042-2.77 2.178-3.525 6.816-7.609 10.287-9.059 2.361-.986 3.007-.964 5.219.18 4.706 2.434 7.148-.398 7.148-8.288 0-5.357 1.684-9.888 4.554-12.253 5.16-4.253 16.611-6.481 18.933-3.683 1.303 1.571 1.252 5.41-.145 10.861-1.736 6.775.602 8.608 7.305 5.725 4.23-1.819 15.4-3.495 15.4-2.31 0 .4 1.271 2.897 2.826 5.549 4.24 7.234 7.473 15.285 10.825 26.953 2.839 9.887 3.142 10.516 5.174 10.756 1.757.207 3.102-.731 7.233-5.049 2.79-2.917 5.515-5.303 6.055-5.303 1.525 0 5.047 7.682 5.047 11.011 0 1.965-1.105 5.001-3.231 8.874-1.777 3.238-3.232 6.06-3.232 6.271 0 1.116 2.796 2.923 4.521 2.923 2.402 0 11.607-4.535 19.311-9.513 6.631-4.286 15.7-9.055 17.227-9.061.85-.003.955 1.465.511 7.142-.631 8.067.138 10.624 3.195 10.624 2.33 0 3.293-1.123 4.382-5.111 1.05-3.848 4.343-8.251 7.323-9.792 1.366-.706 4.147-1.105 7.024-1.008 4.332.146 5.036.434 7.809 3.204 1.676 1.674 4.654 5.55 6.618 8.613 4.116 6.421 6.415 7.699 8.722 4.85 2.088-2.578 9.043-3.046 17.1-1.148 3.307.778 6.582 1.197 7.279.929 1.601-.614 1.631-3.953.061-6.988-1.463-2.829-.911-4.556 1.926-6.023 2.596-1.342 10.521-2.873 14.873-2.873 2.392 0 3.873-.61 5.987-2.466 2.312-2.03 3.389-2.423 6.085-2.221 4.816.359 6.556 3.076 6.948 10.847.359 7.109.761 7.451 6.996 5.955 5.534-1.327 11.013-.041 24.384 5.724 25.512 11 31.694 12.801 34.458 10.038 1.636-1.636 1.081-4.305-1.237-5.935-2.293-1.614-5.24-6.668-7.09-12.16-2.948-8.749-1.67-15.436 2.949-15.436 2.764 0 9.138 6.293 9.138 9.021 0 2.435 1.391 3.903 3.698 3.903 2.267 0 3.293-1.296 3.993-5.044.324-1.731 1.737-4.304 3.304-6.014 3.151-3.441 3.315-4.439 1.215-7.396-3.739-5.263-6.313-15.472-6.803-26.982l-.335-7.876h2.412c1.327 0 4.512.942 7.078 2.094 7.512 3.371 9.957 1.781 8.142-5.297-1.397-5.451-1.448-9.29-.144-10.861 2.322-2.798 13.772-.57 18.933 3.683 2.87 2.365 4.553 6.896 4.553 12.253 0 7.89 2.442 10.722 7.148 8.288 2.213-1.144 2.859-1.166 5.22-.179 3.486 1.456 8.111 5.538 10.314 9.102 1.472 2.381 2.13 2.777 4.272 2.569 2.346-.229 2.712-.704 4.984-6.477 3.212-8.164 5.276-10.845 9.267-12.041 2.952-.884 3.61-.781 7.484 1.179 2.336 1.182 4.683 2.149 5.215 2.149s1.364 1.474 1.849 3.276c.257.955.431 1.641.728 2.27.826 1.746 2.604 3.042 9.762 8.386 5.047 3.768 6.942 5.247 9.07 6.215 1.623.739 3.381 1.18 6.774 2.114 6.402 1.761 7 1.797 10.438.626 2.397-.817 3.986-.977 4.637-.466 2.256 1.771 41.272 33.398 49.757 40.334 5.051 4.128 13.048 9.891 17.773 12.804 4.723 2.914 10.952 6.952 13.84 8.972 2.888 2.02 10.885 7.507 17.772 12.192 24.584 16.725 45.198 32.72 58.723 45.565 3.639 3.456 7.576 6.525 8.748 6.819 4.81 1.207 18.638-1.998 23.808-5.521 6.78-4.61 8.21-11.261 4.19-19.43-1.37-2.782-4.49-7.265-6.93-9.963-4.49-4.957-17.222-15.866-23.912-20.484-20.178-13.928-37.503-24.329-55.741-33.462-27.067-13.555-59.473-32.718-68.897-40.743-1.354-1.154-1.28-1.282 1.212-2.087 2.127-.688 2.702-1.342 2.894-3.296.21-2.141-.733-3.392-7.753-10.288-4.395-4.318-7.805-8.037-7.577-8.265.69-.689 4.752-.466 6.988.384 1.156.439 5.233 2.84 9.062 5.335 8.383 5.464 10.826 6.433 13.12 5.206 1.312-.702 1.687-1.719 1.738-4.704.036-2.095.493-5.444 1.017-7.443.846-3.236 1.189-3.619 3.123-3.489 5.899.397 20.149 10.097 23.851 16.236 2.257 3.742 3.886 4.969 5.898 4.443 2.631-.688 3.099-4.652 1.728-14.65-1.086-7.923-1.097-9.219-.088-9.858 1.647-1.041 16.011-.936 21.117.155 5.366 1.147 8.867 4.591 10.281 10.115.55 2.153 1.546 5.458 2.212 7.347 1.11 3.145 1.446 3.433 4.012 3.433 3.448 0 5.977-1.25 15.166-7.491 5.74-3.899 7.989-4.963 11.123-5.264 7.194-.692 15.113 3.812 18.546 10.55 1.91 3.725 2.11 6.491.96 12.939-1.46 8.222 1.93 12.204 12.9 15.121 4.44 1.179 5.47 2.586 4.5 6.146-.57 2.106-1.18 2.601-3.72 3.02-6.37 1.054-15.85.509-20.402-1.173-7.328-2.706-7.79-2.729-9.276-.461-1.77 2.701-1.065 3.891 5.582 9.423 7.036 5.858 17.286 11.747 24.296 13.964 4.6 1.456 7.53 1.785 15.75 1.766 11.77-.024 14.6-.924 27.96-8.897 8.29-4.946 15.82-8.396 18.39-8.429 1.3-.016 1.43.351.89 2.606-2.56 10.674 2.15 12.65 10.32 4.333 5.82-5.932 10.18-14.603 15.45-30.787 10.59-32.485 13.34-47.073 12.23-65.024-3.72-60.432-40.29-105.029-90.82-110.754-17.98-2.037-34.044.986-73.154 13.765-33.927 11.086-46.04 13.367-67.483 12.705-10.808-.334-16.515-.932-24.235-2.542-37.517-7.82-74.423-29.068-107.186-61.71-12.612-12.565-20.531-22.265-24.594-30.123-3.886-7.519-8.847-12.925-18.778-20.468-10.88-8.264-11.046-8.497-16.123-22.636-4.991-13.901-6.942-17.733-9.029-17.739-.812-.002-1.645-.507-1.85-1.122-.249-.745-.026-.905.664-.478.706.436.84.321.418-.362-.447-.722-.866-.757-1.498-.125-1.167 1.168-2.42 1.127-1.69-.054.357-.578.222-.713-.356-.356-.544.336-.933.079-.933-.616 0-.655.403-1.326.895-1.49 1.747-.582-5.664-6.183-10.525-7.956-4.531-1.651-5.239-2.253-8.604-7.315-2.017-3.034-4.754-8.184-6.083-11.446-4.276-10.499-7.842-12.378-15.632-8.236l-3.837 2.04-3.152-2.848c-2.319-2.095-3.886-2.848-5.93-2.848-1.527 0-3.002-.363-3.276-.807-.854-1.382-3.751-.894-7.402 1.245l-3.504 2.054V73c0-24.17-.165-27.608-1.589-33.177-4.795-18.744-16.394-31.864-33.368-37.74l-11.898-.732h-8.886l-8.959-.392c-6.438 1.088-15.789 6.589-22.439 13.2-7.541 7.498-11.52 14.673-14.299 25.782-1.899 7.591-1.964 8.804-1.925 36.063l.04 28.208-2.082.092c-1.259.055-2.793-.685-3.878-1.868-4.319-4.714-11.738-7.98-13.104-5.77-.275.444-1.669.808-3.099.808-2.685 0-5.659 1.634-7.856 4.317-1.232 1.504-1.352 1.491-5.244-.581-8.305-4.42-11.485-2.624-16.072 9.08-1.033 2.635-3.523 7.333-5.533 10.44-2.968 4.588-4.238 5.838-6.757 6.653-12.844 4.156-19.695 12.347-25.995 31.076-4.485 13.333-5.658 15.065-14.671 21.66-11.816 8.646-16.551 13.85-21.046 23.128-2.84 5.862-9.683 14.061-22.839 27.364-33.799 34.177-70.723 55.348-110.229 63.203-12.06 2.398-33.111 2.982-44.533 1.235-12.232-1.871-25.398-5.375-47.57-12.659-35.571-11.687-51.489-14.707-68.794-13.05-46.81 4.483-81.69 41.104-90.956 95.5-1.756 10.309-2.014 30.839-.497 39.58 2.85 16.428 13.422 50.392 18.967 60.938 1.901 3.617 5.224 8.278 7.616 10.688 8.198 8.255 12.869 6.272 10.32-4.381-.54-2.254-.415-2.621.886-2.606 2.572.033 10.099 3.483 18.389 8.429 12.376 7.385 16.38 8.773 26.416 9.162 10.389.401 17.996-1.396 27.631-6.527 6.484-3.453 16.347-10.968 19.267-14.68 1.574-2.001 1.589-2.207.295-4.181-1.508-2.301-1.952-2.28-9.296.431-4.556 1.682-14.029 2.227-20.402 1.174-2.537-.42-3.146-.915-3.719-3.021-1.001-3.682.066-4.956 5.409-6.455 5.989-1.681 9.848-4.221 11.547-7.602 1.167-2.321 1.195-3.265.249-8.23-1.753-9.199 1.678-16.381 9.772-20.458 6.964-3.507 12.034-2.743 20.631 3.111 15.205 10.352 18.747 10.555 20.659 1.182 1.97-9.657 4.937-13.161 12.311-14.543 4.764-.893 17.781-1.107 19.817-.325 1.601.614 1.606 2.86.025 11.898-.955 5.455-1.041 7.767-.367 9.809 1.569 4.754 5.123 4.242 8.168-1.175 3.115-5.541 16.231-14.796 23.532-16.605 1.887-.468 2.329-.233 3.028 1.606.451 1.185 1.057 4.709 1.347 7.831.452 4.865.793 5.799 2.377 6.52 2.18.994 4.517-.054 14.542-6.523 6.256-4.037 11.011-5.689 13.559-4.712.833.32-1.203 2.799-6.869 8.365-7.077 6.953-8.023 8.206-7.813 10.349.193 1.966.746 2.586 2.864 3.21 1.444.425 2.614.97 2.599 1.212-.038.621-18.344 12.817-27.164 18.098-10.737 6.428-32.024 18.008-45.436 24.717-13.116 6.56-29.233 16.12-45.231 26.83-31.504 21.088-44.842 37.215-40.424 48.875zm120.934-62.541c-37.085 24.133-69.421 48.06-85.362 63.166-4.699 4.453-7.924 6.899-9.095 6.899-1.657 0-1.536-.288 1.378-3.295 4.7-4.851 17.817-16.272 25.105-21.861 12.32-9.447 39.679-28.616 58.461-40.961 10.445-6.866 20.627-13.819 22.626-15.452 1.999-1.634 11.814-9.463 21.811-17.398 9.997-7.936 23.464-18.63 29.927-23.764 39.134-31.096 41.021-32.598 41.573-32.209.03.022.056.049.085.077.359.36-9.639 8.747-28.769 24.135-7.238 5.822-14.551 11.752-26.659 21.616-26.95 21.958-39.148 31.282-51.081 39.047zm681.595-3.858c50.243 33.115 74.092 50.603 91.286 66.937 5.995 5.695 6.945 6.914 5.417 6.946-1.25.027-4.216-2.199-9.108-6.834-12.498-11.844-35.97-29.813-62.956-48.198-12.799-8.719-17.663-11.639-18.842-11.31-.366.103-.458-.149-.205-.559.253-.41-1.446-1.928-3.777-3.373-10.79-6.689-13.582-8.826-51.444-39.377-2.917-2.353-6.039-4.897-6.937-5.654-.899-.756-4.352-3.537-7.675-6.18-3.322-2.642-6.222-5.015-6.444-5.272-.222-.258-7.556-6.204-16.298-13.214-8.741-7.01-16.329-13.27-16.861-13.912-2.464-2.968 1.36-.406 11.846 7.936 6.272 4.99 25.144 19.978 41.938 33.306 16.794 13.327 33.291 26.422 36.662 29.099 3.37 2.677 9.4 7.023 13.398 9.659zm-786.256 57.2c-2.079 4.804-.587 12.228 2.86 14.235 2.611 1.521-2.256.931-6.832-.828-5.655-2.174-8.617-5.711-8.088-9.656.924-6.889 6.97-14.517 20.207-25.495 13.591-11.271 42.973-29.958 62.498-39.75 31.642-15.868 52.236-28.107 76.661-45.561 11.955-8.543 20.781-14.26 23.977-15.531l5.059-2.011-4.166 3.9c-16.101 15.07-46.211 34.053-85.908 54.158-6.886 3.488-15.429 8.138-18.984 10.334-3.554 2.195-8.462 5.223-10.905 6.728-28.868 17.774-51.105 37.288-56.379 49.477zm905.18 3.751c.55 4.033-2.42 7.491-8.31 9.696-2.45.913-5.21 1.661-6.15 1.661-1.71 0-1.71-.005-.1-1.414 3.62-3.17 4.54-8.771 2.33-14.067-5.53-13.227-29.781-33.293-68.575-56.732-8.854-5.349-12.432-6.988-13.969-6.398-.895.343-1.198.22-.85-.343.33-.534-2.847-2.595-8.148-5.285-4.779-2.424-10.613-5.545-12.966-6.934-2.352-1.39-4.415-2.527-4.584-2.527-.719 0-18.558-10.392-27.492-16.015-11.662-7.341-29.023-20.099-35.14-25.824l-4.443-4.159 4.847 1.87c3.067 1.183 11.52 6.652 23.023 14.894 17.807 12.761 38.442 25.665 54.529 34.1 4.443 2.33 8.532 4.595 9.088 5.035.555.439 1.01.547 1.01.24 0-.307.999.149 2.221 1.014 1.222.864 6.346 3.635 11.388 6.159 19.061 9.54 48.602 28.35 62.088 39.534 13.233 10.978 19.283 18.606 20.203 25.495zM215.195 490.67c-40.718 26.39-67.521 45.877-87.829 63.858-4.097 3.628-7.613 6.596-7.814 6.596-.201 0-1.523-.974-2.939-2.165-2.409-2.028-2.551-2.436-2.22-6.426.634-7.636 8.45-17.263 24.395-30.047 17.668-14.167 38.651-27.515 63.077-40.129 24.657-12.732 39.132-20.901 53.185-30.015 10.647-6.905 28.885-20.848 34.87-26.658 4.103-3.983 6.266-5.291 14.092-8.52 5.084-2.098 9.33-3.73 9.433-3.626.168.168-9.408 7.857-42.047 33.759a24269.348 24269.348 0 0 0-28.333 22.546c-10.219 8.144-22.76 17.516-27.87 20.827zm739.434 13.681c38.939 25.329 57.181 46.399 47.331 54.682-3.067 2.582-3.236 2.582-5.651-.015-3.299-3.547-21.566-18.59-32.656-26.893-14.74-11.036-40.749-29.107-50.136-34.834-3.082-1.881-5.786-3.649-6.008-3.928-.223-.28-2.767-1.931-5.655-3.669-2.888-1.739-6.385-4.098-7.772-5.244-1.386-1.145-5.566-4.483-9.29-7.417-8.097-6.383-40.807-32.319-63.471-50.327-8.97-7.128-16.227-13.043-16.126-13.143.101-.101 4.35 1.526 9.443 3.616 6.489 2.663 10.106 4.663 12.087 6.686 16.096 16.431 52.693 40.051 92.093 59.44 9.219 4.537 21.77 11.913 35.811 21.046zm-289.468-49.856c-2.212 5.339.484 18.353 5.259 25.389 1.166 1.717 1.561 2.878.975 2.863-.978-.025-7.306-2.626-24.413-10.037-10.977-4.755-20.438-7.253-25.068-6.619l-3.392.465-.478-4.039c-1.367-11.539-9.987-16.275-19.199-10.55-2.309 1.436-5.19 2.538-6.647 2.548-4.647.025-13.687 2.344-16.419 4.211-3.171 2.168-4.627 5.213-3.892 8.142l.531 2.114-7.956-.478c-6.249-.375-8.607-.204-10.985.795l-3.028 1.273-3.126-4.604c-3.489-5.137-9.626-11.133-12.52-12.234-2.497-.949-12.16.272-14.552 1.839-1.026.672-3.013 2.37-4.416 3.772l-2.549 2.55v-4.056c0-3.274-.346-4.297-1.796-5.312-.987-.692-2.361-1.257-3.052-1.257-2.071 0-11.884 5.042-22.577 11.601-5.531 3.393-10.474 6.169-10.984 6.169-.555 0-.114-1.644 1.094-4.085 2.818-5.693 2.705-9.681-.464-16.401-1.437-3.049-2.613-6.411-2.613-7.472 0-1.061-.376-1.929-.835-1.929-1.807 0-8.656 4.048-12.327 7.285-2.13 1.878-3.997 3.279-4.15 3.114-.153-.166-1.068-3.206-2.035-6.756-2.205-8.097-5.764-17.064-9.424-23.745l-2.825-5.159 2.267-2.372 2.267-2.372.497 6.547c.273 3.601.745 6.796 1.048 7.099.304.303 1.17.113 1.927-.422 5.763-4.077 7.532-4.508 19.956-4.865l12.118-.349 2.827 5.868c4.061 8.431 6.185 10.473 10.892 10.473 2.08 0 6.751-.764 10.38-1.697 11.609-2.987 17.118-1.523 32.448 8.624 16.297 10.787 20.376 11.404 34.333 5.187 4.221-1.88 13.564-5.542 20.763-8.137 7.199-2.596 18.478-6.879 25.065-9.518 22.213-8.9 33.605-11.449 43.973-9.841 3.111.483 7.042 1.584 8.734 2.448 4.076 2.078 8.641 7.525 10.352 12.349 1.026 2.892 1.728 3.807 2.723 3.547.978-.255 1.471.337 1.818 2.181.262 1.392 1.561 4.823 2.887 7.626 2.407 5.086 2.409 5.098.818 6.806-.877.941-1.817 2.413-2.089 3.27-.441 1.388-.759 1.237-2.915-1.378-6.435-7.806-16.09-8.043-19.226-.471zm-549.28 16.868c-5.943 4.169-13.459 7.719-19.81 9.358-4.948 1.278-15.122 1.534-19.42.489-3.912-.952-9.981-3.868-17.985-8.642-17.928-10.695-26.916-11.156-25.83-1.326l.426 3.856-3.411-3.858c-1.876-2.123-4.704-6.485-6.284-9.693-5.24-10.644-14.99-43.031-17.685-58.743-1.574-9.183-1.182-26.877.86-38.772 9.245-53.872 46.605-89.846 93.337-89.877 15.939-.01 26.88 2.344 57.356 12.34 34.796 11.412 49.712 14.533 69.474 14.533 25.512 0 49.08-6.1 76.345-19.758 10.844-5.432 25.925-14.717 33.106-20.383l9.704-7.646c8.484-6.684 28.049-25.612 34.717-33.586 1.946-2.327 3.653-4.117 3.793-3.977.14.14-.483 2.439-1.384 5.108-1.541 4.563-2.373 5.525-13.93 16.121-11.717 10.742-30.889 27.768-33.9 30.103-1.127.875-1.657.895-2.615.1-1.939-1.609-3.595-.324-5.692 4.418-1.656 3.745-2.995 5.209-8.481 9.276-12.905 9.568-34.283 19.471-51.409 23.816-2.742.696-10.089 1.608-16.327 2.027-14.255.959-16.104 1.468-27.967 7.702-5.331 2.801-11.62 5.494-13.974 5.983-6.19 1.286-25.162 1.086-34.092-.359-10.578-1.712-25.111-5.761-42.94-11.965-21.448-7.463-28.282-8.886-42.69-8.889-10.689-.002-12.278.193-18.169 2.224-8.906 3.072-14.578 6.732-21.102 13.614-10.793 11.388-14.96 23.521-15.05 43.825-.075 16.908 3.71 37.239 10.002 53.715 3.665 9.598 7.086 13.482 15.651 17.771 8.275 4.143 9.425 5.518 14.512 17.367 5.652 13.161 13.73 18.884 29.101 20.619 3.656.413 8.567.432 11.31.044 2.665-.377 4.942-.602 5.059-.5.117.102-1.956 1.707-4.606 3.565zm946.729-.288c-3.33 1.986-9.15 5.129-12.92 6.984-6.46 3.171-7.35 3.389-14.95 3.636-8.98.292-13.7-.689-22.05-4.581-4.61-2.149-15.029-8.846-14.512-9.328.116-.109 2.212.125 4.652.52 6.16.997 13.75.211 21.64-2.242 8.9-2.766 13.54-6.839 17.62-15.464 4.93-10.424 6.91-14.207 8.29-15.812.73-.845 4.24-2.896 7.79-4.557 3.55-1.661 7.25-3.877 8.2-4.924 9.17-10.038 17.51-41.584 17.47-66.121-.03-21.879-4.92-34.814-17.74-46.899-10.12-9.541-20.43-13.221-37.01-13.218-13.54.004-19.37 1.253-43.222 9.274-32.978 11.088-44.236 13.297-64.933 12.741l-12.627-.339-12.315-6.168c-6.774-3.393-13.224-6.376-14.335-6.629-1.111-.254-7.361-.83-13.889-1.28-17.432-1.204-35.36-6.916-53.805-17.143-12.96-7.186-20.115-12.834-22.088-17.435-.89-2.077-2.197-4.416-2.904-5.197-1.195-1.32-1.388-1.326-2.754-.09-1.267 1.146-1.668 1.174-2.899.209-3.73-2.926-15.805-13.615-30.266-26.793-15.341-13.979-15.971-14.675-17.565-19.393-.909-2.691-1.538-5.008-1.398-5.148.141-.14 1.835 1.65 3.765 3.977 6.636 8.003 27.909 28.474 36.774 35.388 39.056 30.461 78.406 45.919 117.023 45.97 19.658.026 34.101-2.957 67.962-14.035 32.333-10.578 42.536-12.784 58.976-12.747 19.35.043 35.31 5.289 51.55 16.947 26.59 19.088 43.49 55.955 43.41 94.733-.03 17.501-2.39 29.138-11.79 58.089-4.56 14.061-8.36 22.053-12.95 27.24l-3.41 3.858.43-3.856c1.04-9.418-7.6-9.48-23.22-.167zM93.603 452.092c-1.583 1.748-1.98 5.446-.976 9.072.775 2.794.169 2.782-4.354-.086-4.744-3.008-8.289-7.387-10.507-12.976-3.026-7.628-6.104-13.299-8.359-15.401-1.185-1.105-5.13-3.468-8.765-5.25-5.402-2.649-7.074-3.936-9.152-7.044-3.097-4.634-6.046-12.242-8.703-22.449-10.283-39.509-6.716-66.948 10.854-83.493 10.216-9.619 19.553-12.978 35.936-12.928 13.43.04 20.366 1.543 44.027 9.535 29.291 9.895 42.23 12.583 60.444 12.558 14.086-.019 19.415-1.295 29.921-7.162 4.727-2.641 10.049-5.206 11.826-5.701 1.777-.494 8.502-1.261 14.945-1.704 13.115-.901 21.967-2.959 35.088-8.159 10.69-4.236 25.102-11.822 33.081-17.412 4.281-3 6.213-3.985 5.821-2.968-.322.837-1.662 8.427-2.977 16.868-2.849 18.292-3.824 22.051-9.015 34.734-2.182 5.331-4.864 12.02-5.959 14.864-1.096 2.844-4.156 9.7-6.8 15.236-2.645 5.536-4.808 10.356-4.808 10.711 0 .354-1.095 1.566-2.433 2.691-3.027 2.547-14.901 15.962-16.083 18.17-1.388 2.594-1.029 4.54 1.227 6.644 1.923 1.793 2.057 2.33 1.589 6.367-.281 2.425-.712 5.211-.958 6.191l-.447 1.782-6.795-2.354c-3.737-1.295-8.159-2.349-9.826-2.346-3.676.01-9.445 2.607-16.869 7.596l-5.55 3.73-.64-3.85c-.939-5.646-2.152-9.334-3.78-11.492-1.386-1.838-1.592-1.871-5.377-.86-6.773 1.81-16.424 7.374-21.951 12.657l-5.192 4.962.535-2.942c.294-1.619.746-5.001 1.005-7.516 1.014-9.854-.812-11.19-15.251-11.152-7.444.02-11 .394-14.178 1.492-2.332.805-4.241 1.142-4.241.749 0-2.248 4.159-8.201 8.947-12.808 7.336-7.06 18.257-13.137 42.755-23.793 36.795-16.005 60.97-28.246 71.293-36.099 7.243-5.509 14.887-14.154 13.629-15.412-.55-.551-1.538.077-3.03 1.924-3.721 4.609-10.856 11.199-15.654 14.457-9.496 6.448-37.681 20.284-67.854 33.31-18.02 7.78-26.053 11.764-33.167 16.45-10.815 7.124-16.504 13.466-19.366 21.588-.809 2.295-2.394 5.821-3.522 7.835-1.128 2.014-2.46 5.572-2.961 7.907-1.124 5.237-1.131 5.236-12.599-2.322-5.965-3.931-9.426-5.672-12.061-6.067-15.853-2.377-30.46 11.87-26.992 26.326.542 2.257.806 4.283.588 4.501-.219.218-1.534-1.616-2.923-4.077-10.48-18.569-10.46-46.642.048-64.529 11.286-19.213 35.5-36.078 51.797-36.078 2.154 0 3.018-.315 2.774-1.01-.587-1.668-9.453-.87-15.811 1.423-11.102 4.004-21.373 11.02-30.646 20.931-13.253 14.166-18.176 27.11-18.148 47.718.01 8.138.402 11.955 1.74 16.963 1.928 7.216 5.621 15.61 8.566 19.472 1.824 2.391 1.86 2.626.564 3.776-.76.675-3.959 1.989-7.109 2.919-3.15.931-6.395 2.43-7.211 3.331zm948.917-7.751c-4.52 10.109-6.92 13.434-12.07 16.702-4.58 2.904-5.19 2.921-4.41.121 1-3.626.6-7.324-.98-9.073-.81-.901-4.06-2.405-7.21-3.343-3.14-.937-6.34-2.137-7.09-2.666-1.29-.898-1.27-1.121.24-3.34 10.46-15.408 13.56-37.195 8.27-58.112-5.8-22.919-34.187-47.809-57.213-50.168-4.377-.449-5.271-.336-5.271.666 0 .895 1.341 1.332 5.182 1.69 11.543 1.078 25.529 8.71 37.314 20.363 10.018 9.9 15.858 19.919 18.838 32.295 3.63 15.045.56 36.391-6.9 48.062l-2.84 4.442.65-3.231c1.2-5.942.58-11.321-1.81-15.718-3.11-5.7-11.059-12.054-13.782-11.009-.655.251-.983.121-.729-.29.667-1.079-6.219-1.935-10.459-1.299-2.453.368-5.951 2.075-10.864 5.3-6.799 4.464-11.608 7.265-12.473 7.265-.207 0-.78-1.879-1.273-4.176-.492-2.297-1.945-6.205-3.227-8.684-1.283-2.479-3.433-6.869-4.779-9.757-2.998-6.432-9.38-13.046-18.294-18.961-8.028-5.327-13.778-8.208-32.718-16.392-30.812-13.314-58.193-26.744-67.726-33.217-4.909-3.333-12.029-9.894-15.782-14.543-1.491-1.847-2.479-2.475-3.03-1.924-1.312 1.312 6.592 10.094 14.354 15.948 6.77 5.106 30.152 17.537 48.353 25.708a3890.579 3890.579 0 0 1 12.522 5.647c2.443 1.111 8.078 3.55 12.521 5.419 25.014 10.523 40.13 20.468 46.595 30.656 3.28 5.169 3.017 5.704-1.962 3.984-3.178-1.097-6.733-1.473-14.177-1.491-14.439-.038-16.266 1.298-15.252 11.152.259 2.515.71 5.886 1.001 7.49l.531 2.918-5.378-5.07c-8.202-7.731-23.672-14.996-26.657-12.519-1.428 1.185-3.501 7.222-4.174 12.158-.273 1.999-.575 3.723-.671 3.83-.095.108-2.691-1.494-5.767-3.56-7.476-5.018-13.029-7.523-16.704-7.532-1.667-.004-6.088 1.051-9.825 2.346l-6.795 2.354-.414-1.748c-.228-.962-.654-3.748-.945-6.191-.487-4.077-.359-4.604 1.555-6.401 2.419-2.27 2.643-4.537.729-7.353-2.245-3.304-10.906-13.026-15.001-16.839-2.11-1.965-3.837-4.033-3.837-4.595 0-.562-1.861-4.958-4.136-9.769-4.818-10.189-12.817-29.375-16.113-38.646-2.125-5.979-3.017-10.36-6.819-33.493-.765-4.649-1.588-8.968-1.83-9.598-.242-.631 2.444.874 5.968 3.343 8.022 5.621 22.468 13.238 33.028 17.415 13.132 5.195 22.037 7.258 35.141 8.141 13.935.939 16.946 1.766 26.499 7.279 9.937 5.734 13.118 6.585 26.543 7.098 19.562.748 33.824-2.033 65.238-12.72 22.255-7.573 29.535-9.128 42.885-9.169 17.13-.051 26.23 3.414 36.75 13.996 9.44 9.49 13.75 19.35 15.28 34.969 2.04 20.705-5.14 56.733-13.92 69.862-2.11 3.169-3.75 4.426-9.27 7.132-3.69 1.807-7.78 4.363-9.1 5.68-1.32 1.318-4.16 6.342-6.31 11.166zm-455.721-6.912c-5.999 2.196-13.814 5.295-17.369 6.887-11.384 5.1-14.803 4.362-32.207-6.952-14.354-9.332-20.033-10.77-31.208-7.904-9.499 2.436-13.553 2.418-15.567-.069-1.482-1.83-6.244-10.692-6.244-11.62 0-.722 16.041-.468 25.85.409 5.11.457 13.392 1.588 18.404 2.513 9.574 1.767 18.784 1.794 20.518.059 1.636-1.635.111-2.015-4.068-1.013-3.507.842-5.409.699-15.19-1.139-14.837-2.788-32.339-3.921-53.997-3.497-17.421.342-18.793.525-25.648 3.43-1.267.537-1.414.028-1.414-4.892 0-4.922.324-6.042 3.12-10.79 3.845-6.527 6.761-15.153 6.423-19.002-.36-4.103-1.794-3.583-2.272.823l-.404 3.717-4.645-7.054c-5.377-8.166-5.825-11.005-2.702-17.128 2.346-4.599 10.157-12.638 18.418-18.955 3.34-2.554 6.255-4.645 6.477-4.645 1.307 0-.733 4.295-2.502 5.269-3.871 2.131-8.438 6.585-7.803 7.612.332.537 4.231 3.866 8.665 7.398 22.472 17.901 34.242 23.086 61.609 27.139 17.512 2.594 50.192 1.106 66.452-3.026 7.783-1.977 15.743-5.761 31.174-14.818 6.578-3.861 15.212-8.717 19.186-10.79 5.286-2.759 7.225-4.188 7.225-5.326 0-2.821-3.216-6.844-6.897-8.626-1.983-.959-3.605-2.228-3.605-2.818 0-.591-.214-1.633-.476-2.316-.609-1.585.944-1.15 13.402 3.753 5.109 2.011 10.471 3.903 11.915 4.206 2.923.612 3.008.96 1.718 7.045-1.287 6.073-3.24 9.51-8.119 14.287-3.999 3.915-4.191 4.282-3.123 5.968 2.317 3.659 3.441 6.416 3.846 9.434.45 3.358.431 3.374-5.429 4.495-13.067 2.499-27.968 8.404-54.425 21.566-22.149 11.019-42.866 20.106-43.596 19.124-.13-.175-2.182-3.045-4.56-6.377-10.935-15.326-16.039-19.343-29.587-23.286-18.556-5.4-39.544-6.545-44.505-2.428-1.968 1.633-.228 2.126 3.52.999 5.384-1.621 17.097-1.399 27.803.527 20.905 3.759 28.986 8.633 39.981 24.111 7.146 10.06 7.15 10.064 8.903 9.085.85-.474 5.908-2.658 11.24-4.853s19.328-8.763 31.101-14.595c11.774-5.832 25.951-12.371 31.505-14.531 9.336-3.63 25.022-8.147 28.293-8.147 3.031 0 2.403-9.41-.934-14.008l-1.667-2.296 2.25-2.349c2.771-2.892 3.05-2.9 4.329-.127 8.107 17.57 13.766 38.954 13.773 52.052.003 5.448-1.034 7.79-2.042 4.615-.92-2.901-6.122-8.015-10.426-10.25-3.578-1.858-5.252-2.16-13.38-2.413-11.994-.374-18.618 1.281-42.505 10.616-9.723 3.799-22.586 8.705-28.584 10.901zm-269.464-5.27c-1.749 1.49-4.998 3.306-7.219 4.036-6.592 2.167-14.138 2.459-14.138.548 0-.372 2.878-3.057 6.396-5.966 4.807-3.977 7.739-5.725 11.806-7.039 4.499-1.453 5.532-1.561 6.132-.638.578.89 1.001.749 2.132-.707 1.227-1.58 6.484-3.874 7.212-3.147.899.9-1.953 5.317-4.635 7.177-1.756 1.218-3.198 2.854-3.204 3.635-.009 1.019-.195 1.134-.657.407-.474-.746-1.485-.299-3.825 1.694zm505.351 4.549c0 .353-.818.861-1.818 1.128-5.067 1.358-14.813-1.614-19.896-6.068-1.946-1.705-5.123-4.102-7.06-5.327-3.138-1.985-5.894-6.204-4.781-7.317.676-.676 5.649 1.725 6.767 3.266.839 1.156 1.334 1.284 2.197.569.851-.706 2.376-.517 6.457.801 3.992 1.29 6.961 3.064 11.739 7.017 3.517 2.909 6.395 5.579 6.395 5.931zm-523.554-20.167c-18.492 7.394-22.448 9.286-28.399 13.582-3.804 2.745-7.041 4.956-7.194 4.912-.153-.043-1.798-.498-3.655-1.01-1.857-.511-3.573-1.131-3.814-1.378-.24-.246 2.189-3.038 5.397-6.205l5.833-5.759 10.502-3.229c13.299-4.089 22.204-6.869 40.26-12.569l14.41-4.548 4.979 1.318c2.738.725 6.136 1.664 7.551 2.087l2.573.768-4.842 4.6c-2.663 2.529-5.457 4.854-6.208 5.166-3.168 1.316-20.495 6.424-20.79 6.129-.176-.177 2.395-2.412 5.714-4.966 3.319-2.555 6.035-5.114 6.035-5.688 0-.573-.697-1.673-1.549-2.443-1.311-1.187-1.836-1.245-3.433-.38-1.036.562-11.553 4.888-23.37 9.613zm558.065 9.931c3.209 3.15 5.632 5.929 5.386 6.175-.245.246-2.173.836-4.283 1.311l-3.836.864-6.889-4.936c-5.852-4.192-9.916-6.133-26.997-12.895-11.059-4.378-21.505-8.659-23.214-9.514-2.944-1.472-3.186-1.481-4.645-.161-.846.766-1.538 1.845-1.538 2.398 0 .553 2.692 3.132 5.984 5.731 3.291 2.599 5.857 4.856 5.701 5.016-.155.159-5.483-1.372-11.84-3.402-11.151-3.561-11.714-3.849-15.945-8.135-3.053-3.094-4.035-4.56-3.231-4.827.635-.211 4.124-1.128 7.753-2.038l6.598-1.655 8.75 2.723a34720.32 34720.32 0 0 0 20.868 6.48c6.665 2.066 13.027 4.086 14.138 4.488 1.11.403 6.381 2.063 11.713 3.691 9.622 2.936 9.738 3.001 15.527 8.686zm-477.812-8.611c-1.743.062-4.296.696-5.674 1.409-1.378.712-4.327 3.146-6.554 5.408l-4.049 4.113-1.251-2.995c-.689-1.647-1.252-3.26-1.252-3.583 0-.323-1.086-2.087-2.413-3.918-2.473-3.415-6.553-5.99-11.013-6.952l-2.52-.543 2.924-2.988c1.608-1.644 3.011-3.43 3.117-3.97.107-.545-1.328-1.371-3.232-1.86a445.068 445.068 0 0 1-4.2-1.095c-.427-.119-.829-2.553-.895-5.409l-.118-5.194 16.236-15.831 16.236-15.831-2.195-3.168c-5.373-7.752-12.882-7.906-21.015-.431-1.222 1.123-2.222 1.766-2.222 1.43 0-.584 1.694-2.723 10.973-13.854 5.608-6.728 10.343-13.228 11.716-16.082.731-1.52 4.422-4.599 10.243-8.544 5.006-3.392 10.142-7.164 11.415-8.384 3.712-3.556 6.398-9.366 9.06-19.6 4.109-15.8 6.062-18.345 20.002-26.069 11.074-6.136 13.575-7.956 16.603-12.084 4.845-6.604 11.707-20.506 12.83-25.992l1.062-5.188 2.328 3.635c6.656 10.391 7.212 14.118 4.482 30.008-2.109 12.274-5.064 22.162-9.302 31.121-5.02 10.614-8.766 15.815-25.854 35.891-9.581 11.257-9.611 11.294-13.304 16.705-6.131 8.981-9.682 17.131-7.465 17.131.365 0 1.493-1.835 2.507-4.077 3.196-7.072 10.812-17.704 22.248-31.06 6.087-7.109 13.052-15.73 15.48-19.158 9.172-12.953 15.552-30.119 18.332-49.328.63-4.347 1.325-8.085 1.546-8.305.221-.221.882.791 1.469 2.249.588 1.459 2.221 5.196 3.63 8.306 7.98 17.62 10.763 34.196 9.264 55.177-.844 11.807-3.635 27.833-4.928 28.295-.421.151-4.043 2.807-8.049 5.903-18.266 14.115-24.878 25.033-20.318 33.547.756 1.412 2.919 4.816 4.808 7.564 4.417 6.429 4.458 8.753.26 15.019-2.794 4.171-4.124 6.184-5.994 7.24-1.773 1.001-4.032 1.142-8.486 1.449-4.467.308-10.19 1.098-12.718 1.756-2.528.659-4.728 1.066-4.889.904-.161-.161.046-2.078.459-4.26 1.016-5.363.132-9.097-2.645-11.164-1.859-1.384-3.402-1.683-8.555-1.652-5.423.031-7.022.398-11.644 2.673-6.583 3.241-9.067 6.346-10.491 13.115l-1.09 5.177-.73-4.847c-.401-2.665-.633-11.298-.515-19.184.13-8.71-.088-14.338-.556-14.338-.424 0-.966 1.545-1.205 3.433-.606 4.802-.106 31.913.653 35.34l.626 2.827-3.168.113zm390.135-6.288c-2.154.552-5.092 2.077-6.528 3.388h.002c-1.436 1.311-3.774 4.896-5.196 7.965l-2.585 5.58-3.996-4.032c-4.801-4.844-7.718-6.462-11.925-6.613-3.065-.11-3.142-.183-2.649-2.537.793-3.785 1.463-31.527.858-35.559-.298-1.989-.883-3.617-1.299-3.617-.447 0-.747 6.707-.735 16.357.013 8.997-.29 17.63-.673 19.185l-.696 2.827-.594-4.08c-1.265-8.698-7.223-14.348-17.41-16.509-12.252-2.6-18.279 2.034-16.161 12.427.443 2.175.667 4.094.497 4.263-.17.17-1.359-.101-2.642-.601-1.284-.501-4.826-1.147-7.871-1.436l-5.538-.526-1.849-7.27c-2.218-8.716-5.719-18.921-9.257-26.983l-2.596-5.914 2.091-4.661c2.029-4.521 3.702-11.273 3.702-14.944 0-1.538-.552-1.865-3.837-2.27-2.111-.261-8.2-2.254-13.531-4.43-5.332-2.175-10.654-4.19-11.827-4.478-1.961-.481-2.238-1.089-3.452-7.597-2.368-12.699-3.114-22.873-2.649-36.154.45-12.89 1.925-21.023 5.771-31.828 1.801-5.06 7.869-18.771 8.172-18.467.14.139.477 2.062.748 4.273 1.719 14.015 5.253 27.546 9.874 37.807 4.969 11.033 9.897 17.927 28.306 39.598 7.973 9.386 14.368 18.421 17.664 24.958 2.572 5.1 4.345 6.88 4.345 4.362 0-1.689-5.483-11.663-9.61-17.481-2.046-2.883-9.001-11.438-15.457-19.01-6.456-7.572-13.467-16.368-15.581-19.547-7.911-11.899-13.029-25.388-15.867-41.822-2.907-16.832-2.906-16.867.633-25.04 6.03-13.921 6.167-14.063 6.804-7.03.757 8.346 11.417 27.207 18.016 31.878 2.033 1.438 7.299 4.616 11.703 7.062 13.322 7.399 15.497 10.256 19.356 25.428 3.965 15.592 6.527 19.033 21.688 29.126 6.325 4.211 8.229 5.909 8.62 7.691.57 2.594 5.448 9.34 15.857 21.93 7.203 8.712 9.043 11.597 4.933 7.734-3.899-3.665-7.677-5.477-11.425-5.48-3.169-.003-3.968.416-7.472 3.92-2.158 2.158-3.924 4.309-3.924 4.779 0 .471 7.18 7.801 15.954 16.289l15.955 15.432.015 5.264.016 5.264-4.46 1.279c-2.452.704-4.618 1.424-4.812 1.601-.194.177 1.175 1.88 3.044 3.783l3.397 3.462-3.917 1.004zm-452.134-8.906a4584.205 4584.205 0 0 0-22.619 7.038c-6.665 2.095-12.572 3.983-13.128 4.195-1.238.473-1.245.041-.09-5.71.58-2.888 1.328-4.578 2.025-4.578.608 0 5.375-2.269 10.592-5.042 14.621-7.771 25.75-12.657 33.722-14.804 3.999-1.078 7.514-1.96 7.812-1.961.298-.001.792 1.137 1.098 2.529.306 1.393 1.235 4.028 2.066 5.857 1.638 3.607 1.933 6.712.806 8.492-.573.904-1.383.958-4.081.273-1.962-.497-4.272-.575-5.534-.185-1.192.367-6.893 2.121-12.669 3.896zm519.375 3.974c.287 1.666.719 4.029.962 5.251.194.977.314 1.583.068 1.85-.403.435-1.781-.032-5.411-1.26-3.978-1.346-14.234-4.572-38.082-11.979-6.808-2.114-8.215-2.31-11.188-1.555-2.733.693-3.541.641-4.115-.266-1.127-1.779-.832-4.884.806-8.492.83-1.828 1.76-4.463 2.066-5.856.306-1.392.8-2.53 1.097-2.529.298.001 3.996.915 8.217 2.03 5.517 1.459 12.686 4.522 25.512 10.903 9.811 4.881 18.222 8.874 18.692 8.874.47 0 1.089 1.363 1.376 3.029zm-529.886-17.125c-6.215 2.947-13.3 6.569-15.744 8.047-6.415 3.881-8.18 4.158-10.994 1.725l-2.335-2.018 1.559-2.92c2.593-4.858 16.745-19.191 21.091-21.362 4.804-2.399 13.564-3.125 20.767-1.721 5.585 1.088 12.422 4.417 13.603 6.622.648 1.211.249 1.553-2.683 2.299-9.481 2.412-14.916 4.419-25.264 9.328zm526.673-2.388c7.453 8.697 7.863 9.69 5.014 12.141-1.228 1.056-2.705 1.92-3.283 1.92-.577 0-3.374-1.283-6.215-2.851-16.37-9.034-30.633-15.122-42.495-18.138-4.218-1.073-3.928-2.432 1.154-5.41 7.869-4.611 20.667-5.652 28.731-2.336 5.399 2.22 9.267 5.54 17.094 14.674zm-474.96-26.216c5.356 4.702 5.328 5.208-.589 10.739a1028.743 1028.743 0 0 0-11.397 10.875c-4.871 4.729-6.26 5.696-6.664 4.643-.281-.732-.228-2.33.118-3.551.347-1.22.708-4.4.804-7.066.223-6.204 1.591-9.244 6.385-14.186 4.717-4.861 7.112-5.168 11.343-1.454zm419.017 15.64c.016 2.222.402 5.161.858 6.532.498 1.498.541 2.997.108 3.757-.581 1.021-2.876-.796-11.921-9.439-7.746-7.403-10.619-10.029-10.296-12.175.198-1.317 1.601-2.453 3.819-4.4 4.09-3.591 7.018-3.087 11.747 2.024 4.115 4.447 5.644 8.133 5.685 13.701zM633.259 366.03c-26.926 16.032-31.061 17.49-57.269 20.189-30.794 3.171-60.64-1.028-80.194-11.282-5.394-2.829-18.07-11.373-19.671-13.26-.222-.262-2.505-2.073-5.073-4.025-2.569-1.951-4.862-3.858-5.096-4.237-.423-.684 3.558-4.656 4.717-4.705.333-.014.605.55.605 1.254 0 .703.452 1.128 1.004.944 1.176-.392 3.905-10.757 6.434-24.436 1.498-8.103 1.794-12.609 1.807-27.464.015-16.744-.109-18.242-2.154-25.936-2.079-7.824-5.814-18.122-8.356-23.037-1.09-2.109-.325-3.431.869-1.5.769 1.245 6.579 4.028 12.888 6.174 3.111 1.058 7.005 3.007 8.653 4.331 3.394 2.727 3.898 2.887 3.898 1.237 0-1.942-5.066-5.19-12.099-7.756-8.929-3.259-10.438-4.108-14.527-8.18-3.225-3.212-6.434-8.613-6.477-10.902-.01-.521 2.072.431 4.627 2.117 8.466 5.586 12.967 6.847 24.437 6.848 9.594.001 11.041-.233 28.997-4.684 10.395-2.577 20.843-4.886 23.22-5.131 4.582-.473 7.962-2.644 4.116-2.644-3.363 0-14.701 2.342-30.078 6.213-17.584 4.426-29.278 5.402-37.186 3.104-17.928-5.212-27.409-16.334-37.928-44.491-3.131-8.381-4.39-10.656-5.194-9.387-.262.412-4.474 3.184-9.362 6.16-4.887 2.976-10.275 6.745-11.972 8.376-4 3.845-10.503 14.619-13.888 23.014-5.113 12.678-6.125 22.032-4.315 39.88.715 7.056 1.195 9.134 2.108 9.134.91 0 1.074-.697.716-3.029-.256-1.666-.708-8.663-1.006-15.549-.49-11.329-.373-13.169 1.228-19.331 3.419-13.159 10.525-26.718 17.254-32.92 3.526-3.25 18.916-12.888 19.557-12.247.191.191 1.989 4.595 3.996 9.786 2.006 5.192 4.774 11.67 6.151 14.396 2.476 4.905 2.492 5.017 1.534 10.694-1.032 6.118-6.114 17.063-11.664 25.121-3.437 4.989-6.424 7.263-18.083 13.765-8.608 4.8-13.594 8.989-15.818 13.29-.696 1.345-2.549 7.266-4.117 13.158-3.226 12.115-5.335 16.285-10.259 20.283-2.838 2.303-13.71 9.909-17.309 12.107-.624.382-2.023-1.445-4.048-5.286-1.703-3.228-8.18-12.711-14.395-21.072-6.215-8.361-12.143-16.412-13.173-17.89l-1.873-2.689 1.991-3.919c2.695-5.306 10.771-12.811 19.308-17.942 9.178-5.517 15.324-11.21 18.791-17.41 1.537-2.749 4.487-10.25 6.555-16.669 2.068-6.419 4.652-13.446 5.743-15.615 2.699-5.368 7.977-10.847 17.683-18.356 4.489-3.473 9.165-7.63 10.391-9.238 1.226-1.607 3.957-7.748 6.069-13.646 6.592-18.413 10.644-24.19 19.892-28.357 6.081-2.741 12.158-3.599 25.472-3.599h11.928l3.802 5.452c2.09 2.999 4.852 6.815 6.137 8.481 2.327 3.016 2.329 3.028.481 3.004-1.021-.014-5.491-.552-9.934-1.196-9.501-1.377-14.945-1.52-14.945-.394 0 .444.273.808.606.808.69 0 24.941 3.124 26.993 3.478 1.483.255 19.563 18.738 24.752 25.304 4.36 5.516 7.601 7.73 11.302 7.721 4.878-.013 10.361 2.788 12.117 6.19 2.134 4.134 7.377 7.901 12.47 8.958l4.258.883-.273 9.678c-.237 8.417-.106 9.678 1.01 9.678 1.104 0 1.283-1.412 1.283-10.097 0-9.811.049-10.097 1.747-10.097 2.586 0 8.288-3.615 11.119-7.049l2.483-3.012v2.271c0 3.854 1.95 1.971 2.869-2.771.839-4.324.89-4.384 3.826-4.503 4.169-.17 7.64-2.444 12.012-7.869 2.07-2.568 8.068-9.169 13.33-14.669 8.89-9.292 9.852-10.057 13.605-10.818 3.273-.663 23.19-3.276 24.973-3.276.261 0 .474-.364.474-.808 0-1.111-5.292-.972-15.349.404-4.665.638-9.102 1.171-9.859 1.186-.99.018.334-2.362 4.702-8.456l6.08-8.481h11.792c12.246 0 20.862 1.026 24.608 2.929 2.662 1.354 4.172 1.432 3.396.177-.357-.578-.222-.713.356-.356.513.317.933.934.933 1.371 0 .438 1.983 2.732 4.406 5.098 4.897 4.78 6.84 8.583 11.912 23.313 1.801 5.231 4.279 10.897 5.506 12.591 1.227 1.694 5.998 5.994 10.601 9.556 9.892 7.653 15.168 13.11 17.904 18.517 1.098 2.169 3.63 9.103 5.627 15.408 6.106 19.273 10.504 25.121 26.196 34.84 8.72 5.401 16.099 12.38 18.795 17.776.537 1.075 1.026 1.706 1.185 2.412.46 2.035-1.816 4.687-13.563 20.342-6.5 8.663-13.199 18.382-14.886 21.598l-3.067 5.847-8.448-5.712c-14.25-9.635-16.983-13.235-20.171-26.58-3.776-15.805-7.521-20.778-21.22-28.175-13.775-7.439-17.194-11.096-24.461-26.17-2.897-6.011-3.688-8.618-4.094-13.51-.48-5.775-.353-6.425 2.69-13.732 1.758-4.218 4.203-10.317 5.435-13.553l2.24-5.884 2.544 1.66c1.399.913 4.906 2.926 7.794 4.473 2.888 1.547 6.909 4.235 8.935 5.973 7.44 6.382 15.02 20.245 18.586 33.991 1.614 6.223 1.731 8.038 1.24 19.386-.297 6.886-.75 13.883-1.006 15.549-.361 2.349-.196 3.029.734 3.029 1.614 0 3.428-18.53 2.759-28.186-.783-11.307-4.748-22.743-11.963-34.508-4.804-7.831-8.643-11.434-17.997-16.89-3.597-2.097-7.799-4.671-9.339-5.72-1.54-1.049-3.053-1.641-3.363-1.314-.31.326-2.273 5.136-4.363 10.689-9.225 24.514-17.466 35.2-31.885 41.347-5.221 2.225-7.235 2.628-14.562 2.914-8.856.346-13.567-.4-31.485-4.986-4.221-1.08-7.782-1.86-7.914-1.733-1.514 1.453 11.699 5.461 28.019 8.498 14.185 2.64 29.139-1.183 38.548-9.855 1.971-1.816 3.724-3.159 3.895-2.983.631.65-4.34 10.458-6.944 13.698-3.136 3.904-6.964 6.288-14.8 9.22-6.959 2.603-12.172 5.597-12.858 7.383-.851 2.219.063 2.21 2.997-.027 1.525-1.164 6.347-3.548 10.714-5.298 4.368-1.751 9.02-3.98 10.338-4.955 2.189-1.618 2.343-1.639 1.768-.236-2.887 7.041-7.813 22.186-9.04 27.789-2.03 9.262-2.036 34.622-.012 46.446 2.002 11.697 5.295 25.036 6.609 26.771 1.067 1.408 1.138 1.365 1.162-.696.021-1.735.316-2.085 1.407-1.666 1.742.668 5.022 4.346 5.056 5.669.014.55-2.496 2.27-5.578 3.821-3.082 1.552-10.189 5.552-15.794 8.89zm-134.905-4.175c1.643 4.53 3.572 9.144 4.287 10.255 2.544 3.955 1.856-.329-1.478-9.204-3.722-9.907-5.646-13.926-9.049-18.893-3.328-4.857-5.234-9.567-5.892-14.553-.663-5.022-2.544-5.459-2.16-.501.446 5.75 1.784 9.207 6.571 16.978 2.604 4.226 6.078 11.389 7.721 15.918zm128.929-17.351c-3.731 5.947-12.206 25.527-12.209 28.211-.002 1.619 1.262 1.167 2.26-.807.505-1 2.4-5.77 4.21-10.6 1.811-4.83 5.145-11.671 7.41-15.201 4.574-7.13 5.965-10.555 6.78-16.696.467-3.523.351-4.151-.765-4.151-.954 0-1.316.743-1.316 2.699 0 4.465-1.921 9.455-6.37 16.545zm-72.181 6.341c1.992 14.823 2.697 19.281 3.231 20.457h.002c1.199 2.637 1.033-7.306-.25-14.943-1.735-10.326-1.645-13.73.494-18.638 1.572-3.61 1.669-4.692 1.044-11.653-.673-7.478-.661-28.17.015-28.847.186-.186 2.466.735 5.065 2.047 12.232 6.173 23.357 6.489 34.174.972l3.143-1.604.872 4.063c.479 2.234.871 6.534.871 9.555 0 4.706-.332 5.987-2.316 8.941-4.638 6.906-13.851 10.38-24.874 9.382-5.967-.541-9.97-.046-9.97 1.233 0 .396 4.998.715 11.107.712 10.132-.007 11.488-.185 15.429-2.019 2.377-1.107 4.427-2.012 4.556-2.012.128 0 .473 1.363.766 3.029.292 1.666 1.308 6.544 2.257 10.839 1.481 6.708 1.585 8.277.733 11.12-1.354 4.518-5.021 8.454-10.269 11.022-4.116 2.013-4.963 2.129-13.476 1.849-10.251-.337-12.828.919-4.06 1.979 11.099 1.343 18.063-.249 24.39-5.571 5.961-5.016 7.131-11.591 4.23-23.766-2.374-9.966-2.432-12.482-.335-14.713 4.187-4.456 5.282-12.147 3.147-22.091-1.05-4.889-1.047-4.904 1.293-7.674 2.858-3.384 7.04-10.872 9.538-17.078l1.855-4.61 4.722-.237c2.638-.132 4.628-.593 4.51-1.044-.126-.485-4.407-.816-10.712-.829-12.602-.024-14.881-.845-23.427-8.437-7.128-6.333-15.153-10.314-22.656-11.241-3.792-.469-6.143-.408-7.234.186-1.35.736-.686.987 4.04 1.525 10.026 1.142 16.056 3.845 23.608 10.583 7.579 6.762 11.359 8.694 18.209 9.307 3.007.269 4.701.379 5.266 1.235.736 1.115-.449 3.498-3.143 9.151-3.972 8.333-9.318 13.9-15.837 16.491-3.757 1.493-6.264 1.862-12.755 1.887-7.695.027-8.378-.115-14.419-2.999-3.487-1.665-6.623-2.853-6.968-2.639-1.121.692-3.251-13.739-3.236-21.913.009-4.379.375-10.443.814-13.476.47-3.249.503-6.041.08-6.796-.629-1.123-.776-1.09-1.196.264-.816 2.631-2.124 15.807-2.13 21.466-.004 2.96.538 8.23 1.205 11.713 1.642 8.58 1.628 8.658-1.818 10.319-9.851 4.747-18.812 5.733-27.143 2.985-8.895-2.934-13.573-7.512-18.683-18.282-2.598-5.477-3.664-7.617-3.017-8.495.445-.603 1.697-.612 3.814-.698 7.743-.313 11.6-2.194 20.475-9.984 5.789-5.081 10.642-7.542 18.954-9.609 3.635-.904 6.768-1.801 6.961-1.993.194-.192-2.318-.173-5.581.041-7.627.502-15.216 4.082-23.044 10.873-8.987 7.795-10.998 8.529-23.427 8.544-6.312.007-10.586.335-10.712.82-.118.452 1.868.913 4.5 1.045l4.711.236 2.576 6.302c2.586 6.324 6.272 12.574 9.518 16.136 1.653 1.814 1.685 2.136.651 6.462-1.803 7.538-1.475 14.48.909 19.265 1.131 2.269 2.535 4.308 3.12 4.533 1.217.467.578 6.061-1.724 15.084-2.11 8.269-1.767 13.92 1.091 18.009 2.812 4.022 8.817 8.263 13.507 9.539 4.28 1.164 20.033.018 20.529-1.495.257-.785-1.805-.891-9.376-.484-9.414.506-9.84.456-14.148-1.651-5.288-2.587-8.961-6.514-10.313-11.028-.844-2.816-.736-4.479.752-11.524.956-4.527 1.962-9.432 2.235-10.9.273-1.467.737-2.539 1.029-2.38 5.857 3.161 7.21 3.422 19.113 3.681 10.022.219 11.934.08 11.059-.8-.773-.776-3.349-1.003-9.528-.84-9.832.259-13.846-.592-18.959-4.022-8.288-5.559-9.936-11.96-6.771-26.298l.402-1.825 3.19 1.627c10.249 5.228 22.13 5.191 32.522-.102l3.03-1.543.006 10.719c.003 5.896.4 13.082.881 15.97.813 4.881.716 5.715-1.389 11.853-2.202 6.424-2.238 6.796-1.305 13.732zm-68.52-122.878c-1.889 1.709-1.16 3.495 1.984 4.862 4.225 1.837 10.987.019 10.987-2.954 0-3.659-9.493-5.056-12.971-1.908zm9.739 1.183c1.077.707 1.077.883 0 1.59-1.948 1.279-8.886.68-8.886-.768 0-1.644 6.691-2.263 8.886-.822zm81.549 3.648c.406-.251.967-.087 1.246.365.279.451 1.476.821 2.659.821 2.059 0 2.083-.048.558-1.109-2.585-1.798-8.765-2.842-9.864-1.666-.722.773-.305 1.113 1.866 1.521 1.539.288 3.129.319 3.535.068zm47.638-4.586c-1.815 2.24-1.436 3.121 1.981 4.608 3.099 1.349 3.399 1.362 7.164.316 6.979-1.938 4.705-6.826-3.176-6.826-3.677 0-4.691.323-5.969 1.902zm10.22 1.016c.306.494.055 1.215-.558 1.603-1.891 1.197-8.788.53-8.788-.851 0-1.597 8.406-2.274 9.346-.752zm-65.692.781c-2.572-.063-3.612 1.075-1.616 1.767.556.193 1.192.096 1.414-.215.222-.311.949-.773 1.616-1.027.666-.254.03-.49-1.414-.525zM356.202 343.842c-12.186 14.702-16.496 22.236-17.21 30.085-.233 2.555-.645 4.642-.916 4.64-.272-.003-1.123-1.111-1.892-2.462-3.58-6.289-23.133-10.112-33.464-6.542l-4.164 1.438.685-1.802c.377-.991 1.796-4.001 3.153-6.69 3.116-6.171 13.186-30.625 16.316-39.622 1.304-3.749 3.264-12.473 4.354-19.386 2.871-18.202 3.727-22.668 4.344-22.668.865 0 15.824 16.888 19.319 21.81 4.464 6.288 7.824 12.471 10.18 18.733 1.118 2.972 2.944 7.293 4.057 9.6 1.114 2.308 1.779 4.601 1.478 5.096-.3.495-3.108 3.992-6.24 7.77zm459.711 25.71c-7-2.419-18.944-1.534-27.56 2.043-1.777.738-4.407 2.701-5.844 4.361l-2.614 3.02-.012-3.403c-.026-7.374-4.322-15.512-15.429-29.223-3.739-4.617-7.276-9.038-7.86-9.825-.901-1.215-.79-1.964.732-4.935.988-1.927 2.989-6.535 4.448-10.241 3.146-7.992 7.802-16.04 13.064-22.582 5.569-6.923 16.23-18.315 16.701-17.845.222.223 1.14 5.11 2.041 10.861 2.329 14.879 3.152 19.445 4.577 25.399 1.297 5.418 13.3 35.752 17.26 43.619 1.23 2.444 2.775 5.733 3.432 7.311l1.197 2.868-4.133-1.428zm-458.688-15.947c4.441-3.017 7.61-2.686 11.498 1.201l3.214 3.214-3.444 3.358-3.445 3.358-2.019-2.745c-1.111-1.51-3.538-3.562-5.393-4.559l-3.373-1.814 2.962-2.013zm407.176 2.013l-3.373 1.822c-1.855 1.002-4.313 3.06-5.463 4.573l-2.091 2.751-3.366-3.429-3.366-3.43 3.233-3.156c3.911-3.818 7.065-4.133 11.464-1.144l2.962 2.013zm-394.102-30.719c0 .468-1.122 2.376-2.493 4.241-1.372 1.864-2.772 3.39-3.112 3.39-.646 0-5.124-9.429-6.138-12.924-1.093-3.772-5.41-11.693-9.685-17.771-3.953-5.621-6.212-8.269-17.226-20.194-4.323-4.681-4.343-4.782-2.045-10.397.965-2.358 1.288-2.582 2.395-1.663 1.342 1.114 22.05 28.356 29.391 38.665 4.033 5.665 8.911 14.778 8.913 16.653zm389.762-5.242c-.655 1.857-2.151 5.514-3.323 8.125-1.172 2.611-2.413 4.748-2.758 4.748-.817 0-5.615-6.522-5.614-7.631.001-1.645 4.935-11.257 7.864-15.32 8.132-11.282 28.728-38.405 30.118-39.664 1.538-1.391 1.619-1.352 2.725 1.31 2.285 5.497 2.157 5.822-5.567 14.124-12.253 13.172-19.974 24.469-23.445 34.308zm-420.67-52.99c2.058-1.72 3.421-2.599 3.029-1.952-4.73 7.793-5.098 8.204-5.945 6.622-.697-1.303-.243-2.03 2.916-4.67zm439.845-.032c3.123 2.611 3.641 3.416 2.986 4.64-.486.908-.725 1.361-.975 1.367-.248.005-.506-.431-1.027-1.3-.466-.777-1.728-2.865-2.805-4.639l-1.959-3.226 3.78 3.158zM372.41 241.13c-1.383 1.487-4.696 4.244-7.362 6.126-2.666 1.882-6.301 4.264-8.078 5.294-3.828 2.217-3.408 1.741 6.059-6.86 3.332-3.028 8.175-7.48 10.762-9.894 2.587-2.413 4.849-4.242 5.028-4.064.467.467-3.465 6.233-6.409 9.398zm370.087-7.43c1.992 1.981 8.66 8.067 19.602 17.892 1.555 1.396 2.645 2.55 2.423 2.562-.957.056-12.999-8.125-16.15-10.971-3.4-3.072-9.159-10.817-8.519-11.458.181-.18 1.371.708 2.644 1.975zm-170.526-67.356c9.581 8.412 7.069 23.49-4.736 28.421-3.299 1.378-8.879 1.571-11.778.407-1.021-.409-3.111-1.702-4.645-2.871-2.655-2.025-2.788-2.366-2.756-7.08l.033-4.953 1.785 3.586c2.305 4.634 5.151 6.645 10.072 7.118 4.448.427 7.455-.762 10.696-4.23 1.747-1.869 2.02-2.908 2.02-7.685 0-4.778-.273-5.817-2.02-7.686-6.58-7.041-16.544-5.677-20.793 2.846l-1.808 3.628.193-5.216c.189-5.129.249-5.256 3.569-7.585 6.119-4.292 14.406-3.758 20.168 1.3zm-3.849 5.471c4.332 4.331 4.274 10.088-.143 14.328-5.972 5.731-14.914 2.96-16.753-5.192-2.196-9.733 9.808-16.224 16.896-9.136zm-25.845 1.572l-.15 4.45c-.152 4.511-.501 4.886-3.395 3.643-.888-.382-2.888-.721-4.443-.754-3.855-.082-7.046-2.206-11.754-7.826-2.189-2.611-8.736-9.703-14.549-15.76-6.145-6.4-12.966-14.518-16.29-19.386-6.504-9.523-9.057-12.204-13.323-13.986-4.269-1.783-6.258-1.579-11.409 1.169-2.88 1.537-5.728 2.423-7.787 2.423h-3.245l2.892-4.025c1.591-2.214 4.301-7.212 6.022-11.107 1.72-3.894 3.647-7.415 4.281-7.824 1.418-.915 5.48.653 8.69 3.354 2.72 2.288 4.191 1.785 7.514-2.572 3.121-4.092 5.889-3.927 9.562.567 3.136 3.838 4.979 7.19 5.773 10.501.293 1.222.89 2.221 1.325 2.221 2.574 0-.727-8.357-5.817-14.728-.97-1.215-1.527-2.445-1.238-2.735.657-.657 3.157 1.048 7.829 5.339 2.703 2.483 4.072 3.208 5.418 2.87 2.859-.718 7.526 3.82 7.526 7.318 0 2.371-.268 2.744-1.972 2.744-1.084 0-2.215.394-2.513.875-.297.482.822 3.662 2.489 7.068 2.568 5.25 4.536 7.668 12.932 15.886l9.903 9.693 2.506 7.885c1.378 4.337 2.506 8.267 2.506 8.733 0 3.674-35.515-31.148-42.262-41.436-4.505-6.871-6.397-8.704-8.982-8.704-1.916 0-1.515 1.242.731 2.265 1.098.501 4.039 4.011 6.536 7.802 5.918 8.986 29.453 32.778 40.48 40.924l4.214 3.113zm53.853-.487c-2.188 2.612-5.092 5.428-6.453 6.257-3.285 2.003-7.191 2.063-6.601.102.234-.778.995-3.966 1.692-7.085l1.268-5.671 14.985-14.842c8.242-8.164 15.775-16.014 16.74-17.444.965-1.431 3.119-4.657 4.786-7.17 1.667-2.513 3.939-4.983 5.049-5.489 2.264-1.031 2.676-2.275.753-2.275-2.604 0-4.558 1.886-9.034 8.723-3.253 4.968-8.379 10.757-17.484 19.748-7.086 6.996-13.018 12.585-13.183 12.419-.432-.431 2.822-9.721 5.484-15.657 1.247-2.781 3.885-7.143 5.862-9.693 3.993-5.15 5.391-7.683 7.812-14.153.905-2.419 2.365-5.049 3.245-5.845.879-.796 1.598-2.325 1.598-3.399 0-1.073.495-2.446 1.099-3.05 2.91-2.91 8.777-7.671 9.452-7.671 1.351 0 .805 2.131-.95 3.711-4.093 3.684-8.208 14.059-5.577 14.059.436 0 1.032-.999 1.325-2.221.859-3.581 2.647-6.61 6.132-10.391 4.04-4.383 6.139-4.551 9.056-.727 3.182 4.172 5.067 4.957 7.208 3.002 2.183-1.994 6.499-4.202 8.211-4.202.852 0 2.531 2.654 4.886 7.728 1.973 4.251 4.678 9.315 6.012 11.252 1.333 1.938 2.424 3.89 2.424 4.337 0 1.392-5.812-.004-10.163-2.441-4.661-2.61-7.175-2.839-11.472-1.044-4.266 1.782-6.82 4.463-13.324 13.986-3.324 4.868-10.145 12.986-16.289 19.386-5.814 6.057-12.361 13.149-14.549 15.76zm-50.689-50.386c.579-8.281.729-4.323.836 22.011.072 17.66-.045 32.108-.259 32.108-.213 0-.615-.999-.892-2.221-4.715-20.784-15.989-46.196-26.313-59.31l-2.338-2.97.223-12.782c.209-11.974.289-12.551 1.266-9.146 1.822 6.35 4.152 11.477 8.616 18.967 2.389 4.006 6.046 10.92 8.128 15.362a9977.88 9977.88 0 0 0 5.781 12.318c1.098 2.333 2.307 4.241 2.687 4.241.771 0 1.229-3.76 2.265-18.578zm60.331-3.88c-8.231 12.225-16.838 30.851-20.863 45.145a1371.207 1371.207 0 0 1-2.74 9.623c-.616 2.102-.905-4.431-1.129-25.444-.324-30.567.29-40.009 1.276-19.588.686 14.217 1.347 15.47 4.48 8.481 4.864-10.851 10.813-22.679 14.93-29.684 2.48-4.221 5.39-10.4 6.467-13.732l1.957-6.058.038 12.321.038 12.322-4.454 6.614zm-27.62 38.453c.618.272.568 2.06.568 5.716 0 3.608-.272 6.549-.606 6.534-.333-.015-1.95-1.6-3.594-3.523l-2.988-3.496 2.18-1.97c2.58-2.33 3.833-3.529 4.44-3.261zm-13.104 3.222c-2.516-.638-4.483-.63-7.213.03-2.064.5-4.481 1.097-5.369 1.328-.889.232-2.269.031-3.068-.446-1.276-.761-1.423-1.888-1.212-9.286.132-4.631.445-8.42.695-8.42.25 0 1.523 1.136 2.828 2.525 6.533 6.953 18.189 7.335 24.107.792 2.308-2.552 2.904-2.099 2.904 2.206 0 3.557-.309 4.197-3.454 7.144-5.025 4.71-6.143 5.161-10.218 4.127zm10.069-15.651c-1.982 1.623-4.878 3.485-6.437 4.136v-.002c-3.429 1.434-4.804 1.439-8.75.031-3.316-1.183-4.248-1.852-8.505-6.101l-2.848-2.841-.075-20.588-.076-20.588-2.827-1.352c-2.72-1.3-2.896-1.288-4.645.333-1 .926-1.818 2.327-1.818 3.112 0 .785-.301 1.613-.669 1.84-.368.228-.507-1.538-.309-3.924l.359-4.338-4.034-1.433-4.035-1.433-2.068-6.896c-1.138-3.793-1.935-7.03-1.771-7.194.164-.163 1.093 1.552 2.066 3.813 1.857 4.316 6.615 9.26 10.302 10.704 1.198.47 4.724.846 7.834.834 3.783-.014 5.891-.269 7.06.659 1.689 1.34 1.422 5.144 1.422 15.7v15.586l4.073 3.809 4.072 3.809 3.4-2.995c1.973-1.739 3.229-2.765 4.028-4.07 1.487-2.429 1.391-5.827 1.391-16.587 0-10.165-.264-13.897 1.396-15.226 1.178-.944 3.323-.678 7.217-.643 4.858.043 6.371-.292 9.439-2.09 3.971-2.327 6.147-4.947 8.602-10.356 2.122-4.673 2.009-2.427-.244 4.884l-1.834 5.951-9.057 3.624-9.056 3.623v43.256l-3.603 2.953zm-51.878-19.113c1.538 2.554 4.491 8.037 6.563 12.185 2.072 4.149 3.653 7.885 3.513 8.304-.387 1.162-14.529-13.836-16.594-17.599l-1.817-3.308 2.769-2.112 2.769-2.112 2.797 4.642zm158.076 8.681c.445.275.808.66.808.856 0 .196-.363.356-.808.356-.444 0-.808-.385-.808-.856 0-.47.364-.63.808-.356zM542.89 100.458c1.129.433 1.209 2.062.688 13.889-.325 7.369-.826 15.036-1.112 17.038l-.521 3.641-3.088-6.929-3.087-6.928 2.591-10.031c2.277-8.812 2.751-10.768 3.566-10.922.262-.05.559.087.963.242zm56.673 6.104c-.862 1.222-4.458 8.038-7.992 15.145-3.534 7.108-6.533 12.923-6.664 12.923-.556 0-2.051-32.729-1.52-33.26.321-.32 3.85-2.354 7.842-4.52l7.258-3.937 2.699-8.691c1.484-4.78 2.507-9.19 2.273-9.801-.308-.803-4.978 1.548-16.824 8.47l-16.397 9.58-.22 15.595c-.207 14.689-.321 15.701-1.958 17.444-.957 1.018-2.13 1.85-2.608 1.85-.611 0-.869-15.693-.869-52.908 0-29.099.182-52.9.404-52.888.222.01 2.023 2.393 4.001 5.296 7.759 11.382 22.424 24.04 35.381 30.54l5.857 2.937v6.346c0 14.144-4.569 31.23-10.663 39.879zM562.16 21.464l.213 26.696c.117 14.683.117 38.752 0 53.487l-.213 26.792-2.527-2.878-2.526-2.877.409-14.951.409-14.95-6.23-3.419c-3.427-1.88-6.371-3.824-6.543-4.319-.171-.495.542-6.897 1.586-14.227 1.043-7.33 1.595-13.656 1.226-14.057-.854-.926-1.512.678-5.688 13.855-1.866 5.886-3.611 10.703-3.879 10.703-.267 0-3.572-1.799-7.345-3.997-3.773-2.198-7.127-3.73-7.453-3.406-.465.464 4.489 18.542 5.251 19.16.104.085 1.37.754 2.814 1.488l2.625 1.336-.036 10.681c-.02 6.084.039 9.09-.665 9.281-.697.188-2.142-2.391-5.154-7.484-6.957-11.763-10.608-24.422-11.659-40.424l-.5-7.619 4.766-2.099c12.046-5.305 28.314-18.867 36.707-30.602l4.412-6.17zm-88.458 103.473c1.607 0 3.628.534 4.491 1.186 1.423 1.077 1.01 1.186-4.491 1.186-5.501 0-5.914-.109-4.491-1.186.863-.652 2.883-1.186 4.491-1.186zm171.261 0c1.607 0 3.628.534 4.49 1.186 1.424 1.077 1.01 1.186-4.49 1.186-5.501 0-5.915-.109-4.491-1.186.862-.652 2.883-1.186 4.491-1.186zm-130.869-3.635c.444.275.807.66.807.856 0 .196-.363.356-.807.356-.445 0-.808-.385-.808-.856 0-.47.363-.63.808-.356zm4.039-3.231c.444.275.808.66.808.856 0 .196-.364.356-.808.356-.445 0-.808-.385-.808-.856 0-.47.363-.63.808-.356zm28.122-27.611c.584-.234 1.28-.205 1.549.064.268.268-.209.459-1.06.424-.942-.04-1.133-.23-.489-.488zm33.122 0c.583-.234 1.28-.205 1.548.064.268.268-.209.459-1.06.424-.941-.04-1.133-.23-.488-.488zm-39.629-5.507c2.329 1.333 4.234 2.696 4.235 3.03.002 1.683-7.343-1.869-8.746-4.229-1.228-2.068-1.169-2.052 4.511 1.2zm48.631-.383c4.559-2.688 5.491-1.988 1.449 1.087-3.037 2.31-7.069 3.572-7.069 2.211 0-.492.348-.895.773-.895.424 0 2.606-1.081 4.847-2.403zm21.829-36.773l.009 5.048c.005 2.777-.082 5.028-.194 5-1.399-.33-13.56-7.477-17.57-10.324-7.682-5.455-17.727-15.966-23.443-24.534-2.753-4.125-5.239-7.58-5.524-7.677-.285-.098-2.145 2.552-4.132 5.888-4.391 7.372-14.809 18.707-22.799 24.806-6.359 4.853-14.996 9.992-18.109 10.773-1.863.467-1.929.327-1.929-4.063 0-4.206.167-4.616 2.221-5.444 12.074-4.872 21.379-10.477 30.005-18.074 3.022-2.66 13.82-16.275 13.82-17.424 0-1.804 1.586-.284 5.683 5.446 8.63 12.07 23.237 23.55 36.114 28.384l5.848 2.195zm-58.709-37.325c-14.163 3.714-27.193 15.982-31.44 29.601-1.524 4.888-3.198 6.858-2.274 2.675 4.015-18.164 17.212-32.604 33.873-37.065 3.256-.872 4.493-1.217 4.963-.765.299.287.288.897.288 1.9 0 2.078-.38 2.335-5.41 3.654zm24.853-4.602c15.471 4.544 28.694 18.517 32.266 34.095 1.301 5.676.558 6.174-1.187.795-4.676-14.419-17.898-26.796-32.666-30.58-3.73-.956-4.123-1.273-4.123-3.328 0-2.656.006-2.657 5.71-.982zm-21.599 13.175c-5.884 7.924-17.002 16.892-27.505 22.185-5.206 2.623-6.162 2.677-5.437.306 2.55-8.335 9.668-17.742 17.158-22.673 5.464-3.598 13.427-7.011 16.354-7.011 2.341 0 2.051 3.664-.57 7.193zm28.006-3.386c9.874 4.695 18.257 14.202 22.603 25.63 1.08 2.842-.248 2.71-6.581-.651-8.708-4.623-12.923-7.794-20.667-15.55-6.71-6.719-7.472-7.785-7.472-10.45v-2.966l3.029.553c1.666.304 5.756 1.849 9.088 3.434zm-16.957-6.213c-1.324-3.197-2.638-3.084-4.507.386-.837 1.555-1.712 2.827-1.945 2.827-.355 0-.409-4.18-.102-7.875.056-.675 1.556-1.01 4.527-1.01h4.443v4.49c0 4.777-.77 5.154-2.416 1.182z" fill="url(#paint0_linear)" fill-opacity=".15"/><path d="M559.332 1.35h8.886l11.898.732C572.231-.619 556.909-.348 550.373.96l8.959.392z" fill="url(#paint1_linear)" fill-opacity=".15"/><defs><linearGradient id="paint0_linear" x1="559.5" y1="-99.848" x2="559.5" y2="569.152" gradientUnits="userSpaceOnUse"><stop offset=".443"/><stop offset=".901" stop-opacity="0"/></linearGradient><linearGradient id="paint1_linear" x1="559.5" y1="-99.848" x2="559.5" y2="569.152" gradientUnits="userSpaceOnUse"><stop offset=".443"/><stop offset=".901" stop-opacity="0"/></linearGradient></defs></svg>