<svg width="128" height="128" fill="none" xmlns="http://www.w3.org/2000/svg"><path fill-rule="evenodd" clip-rule="evenodd" d="M36.965 35.459c.877 9.232 1.747 18.412 2.637 27.798 1.451-2.495 2.501-4.888 4.085-6.848 1.475-1.826 3.334-3.511 5.357-4.678 2.641-1.524 6.104-.09 6.96 2.614.23.725-.319 1.697-.51 2.556-.647-.341-1.48-.53-1.902-1.051-1.793-2.217-2.873-2.48-4.856-.563-3.699 3.576-5.779 8.056-6.573 13.09-.153.975.456 2.068.713 3.106 1.011-.348 2.185-.476 3.002-1.084 2.656-1.977 4.302-4.666 5.21-7.88.197-.696 1.265-1.145 1.933-1.708.32.658 1.05 1.433.897 1.954a373.814 373.814 0 0 1-4.536 14.429c-.162.484-1.05.725-1.604 1.079-.223-.636-.692-1.302-.617-1.901.168-1.358.605-2.683.91-3.927l-7.24 3.333c.405 4.622.825 9.807 1.323 14.985.382 3.954 1.03 4.978 4.923 5.728 4.544.875 9.173 1.434 13.792 1.774A60.391 60.391 0 0 0 81.1 96.36c2.472-.664 3.458-2.29 3.635-4.717.162-2.235.524-4.456.775-6.685.493-4.391.972-8.783 1.476-13.358-1.667 1.056-2.978 2.238-4.51 2.739-1.117.365-2.525-.17-3.804-.303.245-1.174.23-2.497.796-3.487.922-1.618 2.224-3.021 3.364-4.515l-.49-.591c-.818.483-1.833.8-2.414 1.485-1.182 1.394-2.339 2.886-3.13 4.52-1.324 2.735-2.333 5.622-3.518 8.426-.515 1.216-.959 3.076-2.684 2.366-1.845-.761-.547-2.386-.114-3.542.69-1.844 1.6-3.606 2.215-4.962-1.746.208-3.516.459-5.294.614-.752.064-1.646-.348-2.26-.07-2.046.924-3.342.553-3.767-1.711-.947.615-1.749 1.448-2.694 1.672-1.147.273-2.703.452-3.543-.121-.673-.46-.918-2.184-.688-3.196.457-2.012 1.311-3.946 2.122-5.86.502-1.184 1.007-3.076 2.701-2.252 1.674.813.154 2.185-.232 3.286-.599 1.702-1.209 3.4-1.813 5.1l.96.58c.914-.793 2.053-1.44 2.693-2.414 1.048-1.592 1.681-3.452 2.673-5.086.411-.677 1.296-1.065 1.967-1.584.136.862.462 1.748.354 2.58-.107.84-.698 1.61-.98 2.442-.426 1.246-.769 2.52-1.2 3.969 2.042.078 2.917-.782 3.494-2.3 1.826-4.792 3.672-9.58 5.68-14.3.342-.807 1.508-1.263 2.295-1.883.091.974.525 2.078.216 2.899-1.645 4.349-3.492 8.62-5.228 12.935-.293.727-.387 1.534-.572 2.304 3.06-1.375 5.612-2.895 6.544-6.146.228-.79 1.162-1.377 1.771-2.058l1.416 1.5c.43-.362.824-.774 1.291-1.075 1.47-.947 3.053-1.782 4.603-.315 1.604 1.517.39 2.995-.448 4.307-.912 1.43-2.029 2.73-3.057 4.086 2.312-1.49 5.47-2.158 5.89-5.378 1.023-7.865 1.923-15.746 2.836-23.625.271-2.332.416-4.68.627-7.11-18.21 4.41-36.029 4.437-54.088-.068zm7.816 61.369c.877 2.317 2.21 4.593 2.558 7.011.737 5.147.924 10.372 1.446 15.554.076.755.565 1.792 1.175 2.124 8.98 4.88 18.047 5.726 27.21.389 1.366-.796 1.62-1.847 1.796-3.325.857-7.181-1.05-14.798 3.54-21.56-12.856 3.189-25.403 3.288-37.725-.193zm30.991-60.08c4.362-.421 8.671-1.445 12.985-2.291.813-.16 1.535-.778 2.3-1.185-1.008-.885-1.879-1.311-2.789-1.418-4.53-.535-9.076-.947-13.603-1.508-.684-.085-1.905-.93-1.854-1.083 1.321-3.98 1.256-8.485 4.254-11.84 3.79-4.24 7.617-8.442 11.416-12.647-2.826-3.04-2.864-3.044-5.425-.383-1.448 1.504-2.77 3.15-4.342 4.512-5.813 5.038-9.896 11.005-10.692 18.872-.183 1.805-1.174 2.457-3.069 2.485-6.256.09-12.519.263-18.76.674-3.094.203-6.149.997-9.222 1.523l-.028 1.149c1.923.593 3.81 1.372 5.773 1.749 10.944 2.098 21.991 2.458 33.056 1.39zM72.276 34c-2.477 2-4.524 2-6.5 0h6.5z" fill="#EB4A4B"/></svg>