<svg width="65" height="65" fill="none" xmlns="http://www.w3.org/2000/svg"><path d="M49.092 38.645c-4.518 0-8.194 3.676-8.194 8.194 0 4.518 3.676 8.193 8.194 8.193 4.518 0 8.193-3.675 8.193-8.193s-3.676-8.194-8.193-8.194zm0 12.29a4.1 4.1 0 0 1-4.097-4.096 4.1 4.1 0 0 1 4.097-4.097 4.1 4.1 0 0 1 4.096 4.097 4.1 4.1 0 0 1-4.096 4.096z" fill="url(#paint0_linear)"/><path d="M21.098 38.645c-4.518 0-8.194 3.676-8.194 8.194 0 4.518 3.676 8.193 8.194 8.193 4.518 0 8.193-3.675 8.193-8.193s-3.675-8.194-8.193-8.194zm0 12.29A4.1 4.1 0 0 1 17 46.84a4.1 4.1 0 0 1 4.097-4.097 4.101 4.101 0 0 1 4.096 4.097 4.1 4.1 0 0 1-4.096 4.096z" fill="url(#paint1_linear)"/><path d="M54.609 15.193a2.05 2.05 0 0 0-1.83-1.128H41.99v4.097h9.525l5.578 11.094 3.66-1.841-6.144-12.222z" fill="url(#paint2_linear)"/><path d="M42.947 44.858h-15.5v4.097h15.5v-4.097z" fill="url(#paint3_linear)"/><path d="M14.953 44.858H7.852a2.048 2.048 0 1 0 0 4.097h7.1a2.048 2.048 0 1 0 0-4.097z" fill="url(#paint4_linear)"/><path d="M64.57 32.336l-4.03-5.189a2.046 2.046 0 0 0-1.617-.792H44.04V12.017a2.048 2.048 0 0 0-2.049-2.048H7.852a2.048 2.048 0 1 0 0 4.096h32.09v14.339c0 1.13.917 2.048 2.048 2.048h15.93l2.983 3.842v10.564h-5.667a2.048 2.048 0 1 0 0 4.097h7.716A2.048 2.048 0 0 0 65 46.907V33.593c0-.455-.152-.898-.43-1.257z" fill="url(#paint5_linear)"/><path d="M14.816 34.48H5.394a2.048 2.048 0 1 0 0 4.096h9.422a2.048 2.048 0 1 0 0-4.096z" fill="url(#paint6_linear)"/><path d="M19.527 26.424H2.048a2.048 2.048 0 1 0 0 4.096h17.48a2.048 2.048 0 1 0 0-4.096z" fill="url(#paint7_linear)"/><path d="M22.873 18.366H5.393a2.048 2.048 0 1 0 0 4.097h17.48a2.048 2.048 0 1 0 0-4.097z" fill="url(#paint8_linear)"/><defs><linearGradient id="paint0_linear" x1="40.898" y1="38.645" x2="58.39" y2="39.925" gradientUnits="userSpaceOnUse"><stop stop-color="#0C8180"/><stop offset="1" stop-color="#304659"/></linearGradient><linearGradient id="paint1_linear" x1="12.904" y1="38.645" x2="30.396" y2="39.925" gradientUnits="userSpaceOnUse"><stop stop-color="#0C8180"/><stop offset="1" stop-color="#304659"/></linearGradient><linearGradient id="paint2_linear" x1="41.99" y1="14.065" x2="61.964" y2="15.871" gradientUnits="userSpaceOnUse"><stop stop-color="#0C8180"/><stop offset="1" stop-color="#304659"/></linearGradient><linearGradient id="paint3_linear" x1="27.448" y1="44.858" x2="42.897" y2="49.136" gradientUnits="userSpaceOnUse"><stop stop-color="#0C8180"/><stop offset="1" stop-color="#304659"/></linearGradient><linearGradient id="paint4_linear" x1="5.804" y1="44.858" x2="17.358" y2="47.169" gradientUnits="userSpaceOnUse"><stop stop-color="#0C8180"/><stop offset="1" stop-color="#304659"/></linearGradient><linearGradient id="paint5_linear" x1="5.804" y1="9.969" x2="68.557" y2="16.941" gradientUnits="userSpaceOnUse"><stop stop-color="#0C8180"/><stop offset="1" stop-color="#304659"/></linearGradient><linearGradient id="paint6_linear" x1="3.346" y1="34.48" x2="17.054" y2="37.79" gradientUnits="userSpaceOnUse"><stop stop-color="#0C8180"/><stop offset="1" stop-color="#304659"/></linearGradient><linearGradient id="paint7_linear" x1="0" y1="26.424" x2="20.16" y2="34.193" gradientUnits="userSpaceOnUse"><stop stop-color="#0C8180"/><stop offset="1" stop-color="#304659"/></linearGradient><linearGradient id="paint8_linear" x1="3.346" y1="18.366" x2="23.506" y2="26.136" gradientUnits="userSpaceOnUse"><stop stop-color="#0C8180"/><stop offset="1" stop-color="#304659"/></linearGradient></defs></svg>