<svg width="65" height="65" fill="none" xmlns="http://www.w3.org/2000/svg"><path d="M33.927 65a2.025 2.025 0 0 1-1.435-.596 2.026 2.026 0 0 1-.563-1.788l1.435-8.138c.073-.412.27-.79.563-1.083l20.11-20.11c.855-.856 1.763-1.392 2.697-1.584 1.29-.274 2.543.122 3.526 1.105l3.35 3.35a4.747 4.747 0 0 1 0 6.703L43.505 62.97a2.04 2.04 0 0 1-1.083.563l-8.139 1.435c-.12.022-.235.033-.355.033zm8.142-3.467h.027-.027zm-4.816-5.72l-.82 4.65 4.65-.82 19.654-19.657a.682.682 0 0 0 0-.96l-3.326-3.325c-.027.051-.23.179-.504.452l-19.654 19.66z" fill="url(#paint0_linear)"/><path d="M27.11 56.875H7.448A7.454 7.454 0 0 1 0 49.427V7.447A7.454 7.454 0 0 1 7.448 0h31.146a7.454 7.454 0 0 1 7.448 7.448v27.246a2.032 2.032 0 0 1-4.063 0V7.448a3.39 3.39 0 0 0-3.385-3.386H7.448a3.39 3.39 0 0 0-3.386 3.386v41.98a3.39 3.39 0 0 0 3.386 3.385H27.11a2.032 2.032 0 0 1 0 4.062z" fill="url(#paint1_linear)"/><path d="M35.885 25.73H10.156a2.032 2.032 0 0 1 0-4.063h25.73a2.032 2.032 0 0 1 0 4.063z" fill="url(#paint2_linear)"/><path d="M25.052 36.563H10.156a2.032 2.032 0 0 1 0-4.063h14.896a2.032 2.032 0 0 1 0 4.063z" fill="url(#paint3_linear)"/><path d="M22.344 14.896H10.156a2.032 2.032 0 0 1 0-4.063h12.188a2.032 2.032 0 0 1 0 4.063z" fill="url(#paint4_linear)"/><defs><linearGradient id="paint0_linear" x1="31.897" y1="31.616" x2="67.232" y2="34.18" gradientUnits="userSpaceOnUse"><stop stop-color="#0C8180"/><stop offset="1" stop-color="#304659"/></linearGradient><linearGradient id="paint1_linear" x1="0" y1="0" x2="49.238" y2="2.917" gradientUnits="userSpaceOnUse"><stop stop-color="#0C8180"/><stop offset="1" stop-color="#304659"/></linearGradient><linearGradient id="paint2_linear" x1="8.125" y1="21.667" x2="32.948" y2="34.988" gradientUnits="userSpaceOnUse"><stop stop-color="#0C8180"/><stop offset="1" stop-color="#304659"/></linearGradient><linearGradient id="paint3_linear" x1="8.125" y1="32.5" x2="26.346" y2="38.722" gradientUnits="userSpaceOnUse"><stop stop-color="#0C8180"/><stop offset="1" stop-color="#304659"/></linearGradient><linearGradient id="paint4_linear" x1="8.125" y1="10.833" x2="24.188" y2="15.535" gradientUnits="userSpaceOnUse"><stop stop-color="#0C8180"/><stop offset="1" stop-color="#304659"/></linearGradient></defs></svg>