<svg width="16" height="17" fill="none" xmlns="http://www.w3.org/2000/svg"><path fill-rule="evenodd" clip-rule="evenodd" d="M8.178 1.834c.477 0 .941.196 1.274.536.332.343.515.813.501 1.29a.771.771 0 0 0 1.156.617 1.78 1.78 0 0 1 2.427.65l.415.72c.01.02.02.038.028.057a1.782 1.782 0 0 1-.673 2.364.762.762 0 0 0-.283.28.783.783 0 0 0-.08.589c.054.2.18.366.36.469.405.232.707.624.828 1.077.12.452.054.943-.181 1.347l-.443.738a1.776 1.776 0 0 1-2.418.639.794.794 0 0 0-.372-.103h-.004a.771.771 0 0 0-.76.772 1.78 1.78 0 0 1-1.775 1.772h-.835c-.98 0-1.776-.796-1.776-1.776a.772.772 0 0 0-.57-.72.771.771 0 0 0-.582.078c-.418.234-.911.29-1.362.164a1.787 1.787 0 0 1-1.066-.847l-.417-.718a1.772 1.772 0 0 1 .647-2.417.777.777 0 0 0 0-1.343 1.779 1.779 0 0 1-.648-2.422l.452-.742a1.774 1.774 0 0 1 2.415-.644.73.73 0 0 0 .368.105.778.778 0 0 0 .77-.764c-.003-.465.18-.911.514-1.248a1.76 1.76 0 0 1 1.255-.52h.835zm0 1h-.835a.769.769 0 0 0-.77.772 1.785 1.785 0 0 1-1.775 1.76 1.72 1.72 0 0 1-.866-.242.776.776 0 0 0-1.05.291l-.452.742a.774.774 0 0 0 .288 1.047c.546.316.887.905.887 1.537 0 .632-.341 1.22-.888 1.537a.77.77 0 0 0-.281 1.05l.42.726a.784.784 0 0 0 .471.378.79.79 0 0 0 .592-.069 1.75 1.75 0 0 1 1.337-.177 1.779 1.779 0 0 1 1.31 1.681c0 .433.349.78.777.78h.835a.777.777 0 0 0 .776-.77c-.003-.471.181-.919.518-1.255a1.743 1.743 0 0 1 1.26-.518c.304.007.597.089.855.236a.78.78 0 0 0 1.06-.281l.442-.738a.771.771 0 0 0-.284-1.048 1.758 1.758 0 0 1-.828-1.079 1.78 1.78 0 0 1 .828-1.992.777.777 0 0 0 .278-1.052.386.386 0 0 1-.023-.046l-.39-.677a.777.777 0 0 0-1.058-.286 1.744 1.744 0 0 1-1.337.185 1.753 1.753 0 0 1-1.082-.818 1.703 1.703 0 0 1-.24-.858.795.795 0 0 0-.218-.582.779.779 0 0 0-.557-.234zm-.415 3.649a2.26 2.26 0 0 1 2.258 2.258 2.26 2.26 0 0 1-2.258 2.257A2.26 2.26 0 0 1 5.506 8.74a2.26 2.26 0 0 1 2.257-2.258zm0 1A1.258 1.258 0 1 0 9.02 8.741a1.26 1.26 0 0 0-1.257-1.258z" fill="#30CBFF"/></svg>