<svg width="20" height="14" fill="none" xmlns="http://www.w3.org/2000/svg"><path d="M19.198 2.606a2.228 2.228 0 0 0-.612-1.016 2.44 2.44 0 0 0-1.07-.593C16.012.6 9.994.6 9.994.6a61.291 61.291 0 0 0-7.511.376c-.402.111-.77.32-1.07.608-.296.285-.51.636-.623 1.02C.522 4.055.391 5.526.401 7c-.01 1.473.12 2.944.39 4.395.11.383.323.732.62 1.015.297.282.666.486 1.073.594 1.522.395 7.51.395 7.51.395a61.425 61.425 0 0 0 7.521-.376c.402-.104.77-.308 1.07-.593.293-.277.504-.628.613-1.016.276-1.449.41-2.92.4-4.396.021-1.48-.113-2.96-.4-4.413v.001zM8.081 9.74V4.262l5.008 2.739L8.08 9.739z" fill="#000"/></svg>