<svg width="16" height="17" fill="none" xmlns="http://www.w3.org/2000/svg"><path fill-rule="evenodd" clip-rule="evenodd" d="M6.394 9.805c2.173 0 5.062.244 5.062 2.361 0 2.23-3.366 2.364-4.81 2.371h-.524c-1.54-.007-4.789-.14-4.789-2.358 0-2.232 3.366-2.366 4.81-2.374h.251zm0 1c-1.852 0-4.061.238-4.061 1.374 0 .902 1.367 1.359 4.061 1.359 2.695 0 4.062-.462 4.062-1.372 0-.903-1.367-1.361-4.062-1.361zm6.077-1.312c1.804.27 2.182 1.106 2.182 1.758 0 .486-.21 1.144-1.212 1.524a.5.5 0 1 1-.355-.935c.567-.215.567-.477.567-.589 0-.378-.447-.636-1.33-.768a.501.501 0 0 1-.42-.568.508.508 0 0 1 .568-.422zm-6.077-7.66a3.428 3.428 0 0 1 3.424 3.424 3.385 3.385 0 0 1-.992 2.414A3.387 3.387 0 0 1 6.417 8.68h-.023A3.428 3.428 0 0 1 2.97 5.257a3.428 3.428 0 0 1 3.424-3.424zm4.725.75a2.689 2.689 0 0 1 2.261 2.664 2.712 2.712 0 0 1-2.322 2.67.5.5 0 0 1-.14-.99 1.706 1.706 0 0 0 1.462-1.681c0-.836-.599-1.541-1.422-1.676a.5.5 0 0 1 .161-.987zm-4.725.25A2.427 2.427 0 0 0 3.97 5.257 2.427 2.427 0 0 0 6.394 7.68h.021a2.396 2.396 0 0 0 1.702-.713 2.392 2.392 0 0 0 .7-1.708 2.427 2.427 0 0 0-2.423-2.426z" fill="#30CBFF"/></svg>