<svg width="16" height="17" fill="none" xmlns="http://www.w3.org/2000/svg"><path d="M3.333 15.167c-.366 0-.68-.13-.942-.392A1.286 1.286 0 0 1 2 13.833V4.5c0-.367.13-.68.391-.941.262-.262.576-.392.942-.392H4V1.833h1.333v1.334h5.334V1.833H12v1.334h.667c.366 0 .68.13.942.392.26.26.391.574.391.941v9.333c0 .367-.13.681-.391.942-.262.261-.576.392-.942.392H3.333zm0-1.334h9.334V7.167H3.333v6.666zm0-8h9.334V4.5H3.333v1.333zm4.667 4a.643.643 0 0 1-.475-.192.643.643 0 0 1-.192-.474c0-.19.064-.348.192-.476A.645.645 0 0 1 8 8.5c.189 0 .347.064.475.191a.647.647 0 0 1 .192.476.644.644 0 0 1-.192.474.646.646 0 0 1-.475.192zm-2.667 0a.646.646 0 0 1-.475-.192.644.644 0 0 1-.191-.474c0-.19.063-.348.191-.476a.647.647 0 0 1 .475-.191c.19 0 .348.064.476.191A.647.647 0 0 1 6 9.167a.645.645 0 0 1-.191.474.646.646 0 0 1-.476.192zm5.334 0a.644.644 0 0 1-.475-.192.643.643 0 0 1-.192-.474c0-.19.064-.348.192-.476a.645.645 0 0 1 .475-.191c.189 0 .347.064.474.191a.646.646 0 0 1 .192.476.643.643 0 0 1-.192.474.643.643 0 0 1-.474.192zM8 12.5a.643.643 0 0 1-.475-.192.643.643 0 0 1-.192-.475c0-.188.064-.347.192-.474A.643.643 0 0 1 8 11.167c.189 0 .347.064.475.192a.645.645 0 0 1 .192.474.644.644 0 0 1-.192.475A.646.646 0 0 1 8 12.5zm-2.667 0a.646.646 0 0 1-.475-.192.644.644 0 0 1-.191-.475c0-.188.063-.347.191-.474a.646.646 0 0 1 .475-.192c.19 0 .348.064.476.192a.645.645 0 0 1 .191.474.644.644 0 0 1-.191.475.646.646 0 0 1-.476.192zm5.334 0a.644.644 0 0 1-.475-.192.643.643 0 0 1-.192-.475c0-.188.064-.347.192-.474a.644.644 0 0 1 .475-.192c.189 0 .347.064.474.192a.644.644 0 0 1 .192.474.643.643 0 0 1-.192.475.643.643 0 0 1-.474.192z" fill="#000"/></svg>