<svg width="20" height="18" fill="none" xmlns="http://www.w3.org/2000/svg"><path d="M19.6 8.04a2.565 2.565 0 0 0-4.24-1.941c-1.348-.714-2.95-1.146-4.626-1.243l.416-2.501 1.748.273a1.94 1.94 0 1 0 .2-1.267l-2.38-.369a.641.641 0 0 0-.73.53l-.553 3.326C7.687 4.92 6.004 5.353 4.6 6.1a2.565 2.565 0 0 0-3.416 3.824c-.121.43-.183.876-.184 1.323 0 1.756.962 3.4 2.718 4.61 1.755 1.21 3.904 1.804 6.261 1.804s4.578-.642 6.261-1.804c1.684-1.163 2.718-2.854 2.718-4.61 0-.445-.063-.887-.184-1.315A2.596 2.596 0 0 0 19.6 8.04zM5.49 10.283a1.283 1.283 0 1 1 2.566 0 1.283 1.283 0 0 1-2.566 0zm7.432 4.097a6.421 6.421 0 0 1-5.884 0 .642.642 0 0 1 .585-1.139 5.147 5.147 0 0 0 4.714 0 .64.64 0 0 1 .585 1.139zm.265-2.814a1.283 1.283 0 1 1 0-2.566 1.283 1.283 0 0 1 0 2.566z" fill="#000"/></svg>