<svg width="16" height="17" fill="none" xmlns="http://www.w3.org/2000/svg"><path fill-rule="evenodd" clip-rule="evenodd" d="M11.094 2.5a4.002 4.002 0 0 1 3.998 3.999v4.784a4.003 4.003 0 0 1-3.998 3.999H5.332a4.003 4.003 0 0 1-3.999-3.999V6.5A4.003 4.003 0 0 1 5.332 2.5h5.762zm0 1H5.332a3.002 3.002 0 0 0-2.999 2.999v4.784a3.002 3.002 0 0 0 2.999 2.999h5.762a3.002 3.002 0 0 0 2.998-2.999v-.186h-2.198a2.297 2.297 0 0 1-2.295-2.293 2.298 2.298 0 0 1 2.295-2.295h2.198v-.01A3.002 3.002 0 0 0 11.094 3.5zm2.998 4.009h-2.198c-.714 0-1.295.581-1.295 1.295 0 .712.581 1.293 1.295 1.293h2.198V7.509zm-1.893.753a.5.5 0 0 1 0 1h-.208a.5.5 0 0 1 0-1h.208zM8.456 5.525a.5.5 0 0 1 0 1H4.857a.5.5 0 0 1 0-1h3.6z" fill="#30CBFF"/></svg>