<svg width="16" height="17" fill="none" xmlns="http://www.w3.org/2000/svg"><path fill-rule="evenodd" clip-rule="evenodd" d="M9.931 2.395a.5.5 0 0 1 0 1H5.086c-1.672 0-2.753 1.149-2.753 2.929v5.388c0 1.803 1.055 2.923 2.753 2.923h5.736c1.672 0 2.752-1.147 2.752-2.923V7.019a.5.5 0 0 1 1 0v4.693c0 2.347-1.508 3.923-3.752 3.923H5.086c-2.245 0-3.753-1.576-3.753-3.923V6.324c0-2.35 1.508-3.93 3.753-3.93H9.93zm1.41 4.553a.5.5 0 0 1 .09.701l-1.954 2.52a.497.497 0 0 1-.704.088L6.895 8.78l-1.688 2.192a.5.5 0 1 1-.792-.61L6.41 7.772a.5.5 0 0 1 .705-.088l1.88 1.476 1.645-2.122c.17-.22.483-.26.701-.09zm1.97-5.115a1.783 1.783 0 0 1 0 3.564c-.982 0-1.781-.8-1.781-1.782 0-.983.8-1.782 1.781-1.782zm0 1a.782.782 0 1 0 .002 1.564.782.782 0 0 0-.002-1.564z" fill="#30CBFF"/></svg>