<svg width="560" height="560" fill="none" xmlns="http://www.w3.org/2000/svg"><path d="M140 560V420H0v40c0 55.228 44.772 100 100 100h40z" fill="#FC8B4C"/><circle r="20" transform="matrix(0 -1 -1 0 96 470)" fill="#000"/><circle r="20" transform="matrix(0 -1 -1 0 76 470)" fill="#FDE9D4"/><path fill="#FDE9D4" d="M280 280h140v140H280z"/><circle cx="350.711" cy="351" r="50" transform="rotate(-45 350.711 351)" fill="#236967"/><mask id="a" fill="#fff"><path d="M315.356 315.645a49.997 49.997 0 0 0 0 70.71 49.997 49.997 0 0 0 70.71 0L350.711 351l-35.355-35.355z"/></mask><path d="M315.356 315.645a49.997 49.997 0 0 0 0 70.71 49.997 49.997 0 0 0 70.71 0L350.711 351l-35.355-35.355z" fill="#FFCC1A" stroke="#000" stroke-width="20" mask="url(#a)"/><g clip-path="url(#clip0)"><path fill="#FDE9D4" d="M280 140H140v140h140z"/><circle r="19.96" transform="matrix(-1 0 0 1 260.04 284)" fill="#FE7167"/><circle r="19.96" transform="matrix(-1 0 0 1 226.306 284)" fill="#FE7167"/><circle r="19.96" transform="matrix(-1 0 0 1 192.571 284)" fill="#FE7167"/><circle r="19.96" transform="matrix(-1 0 0 1 159.96 284)" fill="#FE7167"/><path d="M280 280a70 70 0 0 0-140 0h12.892a57.108 57.108 0 1 1 114.216 0H280z" fill="#FE7167"/><circle r="20" transform="matrix(-1 0 0 1 210 174)" fill="#FC8B4C"/></g><path fill="#FFCC1A" d="M140 280h140v140H140z"/><path d="M210 358l33 62h-66l33-62z" fill="#FC8B4C"/><path d="M210 346a33.852 33.852 0 0 0 20 20 33.852 33.852 0 0 0-20 20 33.852 33.852 0 0 0-20-20 33.852 33.852 0 0 0 20-20z" fill="#FDE9D4"/><path d="M210 280a59.24 59.24 0 0 0 35 35 59.24 59.24 0 0 0-35 35 59.24 59.24 0 0 0-35-35 59.24 59.24 0 0 0 35-35z" fill="#FDE9D4"/><path fill="#236967" d="M140 420h140v140H140z"/><path d="M280 420a69.997 69.997 0 0 1-20.503 49.497 69.997 69.997 0 0 1-98.994 0A69.997 69.997 0 0 1 140 420h140z" fill="#FFCC1A"/><path stroke="#FDE9D4" d="M207.334 502.5h7.333v49h-7.333z"/><path stroke="#FDE9D4" d="M191.082 512.269l5.185-5.185 34.648 34.648-5.185 5.185z"/><path stroke="#FDE9D4" d="M230.918 512.269l-5.185-5.185-34.649 34.648 5.186 5.185z"/><path stroke="#FDE9D4" d="M186.5 530.667v-7.333h49v7.333z"/><path fill="#FFCC1A" d="M280 140h140v140H280z"/><path fill="#FDE9D4" d="M285.91 156.516l10.607-10.607 42.426 42.427-10.607 10.606z"/><path fill="#FDE9D4" d="M296.516 198.943l-10.607-10.607 42.427-42.426 10.606 10.607zM285.91 231.369l10.607-10.607 42.426 42.427-10.607 10.606z"/><path fill="#FDE9D4" d="M296.516 273.796l-10.607-10.607 42.427-42.426 10.606 10.607zM360.764 156.516l10.607-10.607 42.426 42.427-10.607 10.606z"/><path fill="#FDE9D4" d="M371.369 198.943l-10.607-10.607 42.427-42.426 10.606 10.607zM360.764 231.369l10.607-10.607 42.426 42.427-10.607 10.606z"/><path fill="#FDE9D4" d="M371.369 273.796l-10.607-10.607 42.427-42.426 10.606 10.607z"/><path fill="#FE7167" d="M280 560h140V420H280z"/><path d="M350 465l-30 50h60l-30-50z" fill="#FDE9D4"/><path fill="#000" d="M337 560h26v-45h-26z"/><circle r="10" transform="matrix(1 0 0 -1 350 440)" fill="#000"/><circle r="10" transform="matrix(1 0 0 -1 380 440)" fill="#000"/><circle r="10" transform="matrix(1 0 0 -1 320 440)" fill="#000"/><path d="M280 0h140v140H280V0z" fill="#FDE9D4"/><path d="M280 70c0-38.66 31.34-70 70-70v140c-38.66 0-70-31.34-70-70z" fill="#236967"/><path fill="#FE7167" d="M315 70.355L350.355 35l35.356 35.355-35.356 35.355z"/><circle cx="350" cy="70" r="7" fill="#000"/><path fill="#236967" d="M420 420h140V280H420z"/><circle r="30.5" transform="matrix(1 0 0 -1 490.5 365.5)" fill="#FFCC1A"/><circle r="30.5" transform="matrix(1 0 0 -1 490.5 334.5)" fill="#FDE9D4"/><path d="M461.394 365.5a52.124 52.124 0 0 1 29.106 29.106 52.124 52.124 0 0 1 29.106-29.106 52.124 52.124 0 0 1-29.106-29.106 52.124 52.124 0 0 1-29.106 29.106z" stroke="#FDE9D4"/><path d="M461.394 334.5a52.124 52.124 0 0 1 29.106 29.106 52.124 52.124 0 0 1 29.106-29.106 52.124 52.124 0 0 1-29.106-29.106 52.124 52.124 0 0 1-29.106 29.106z" stroke="#FDD503"/><path d="M0 140h140V0H0v140z" fill="#FC8B4C"/><path d="M0 70c0 38.66 31.34 70 70 70V0C31.34 0 0 31.34 0 70z" fill="#FFCC1A"/><path fill="#FDE9D4" d="M35 69.645L70.355 105l35.356-35.355L70.355 34.29z"/><circle r="7" transform="matrix(1 0 0 -1 70 70)" fill="#000"/><path fill="#FDE9D4" d="M0 420V280h140v140z"/><path d="M95 350l-50 30v-60l50 30z" fill="#FE7167"/><path fill="#000" d="M0 363v-26h45v26z"/><circle cx="120" cy="350" r="10" transform="rotate(-90 120 350)" fill="#000"/><circle cx="120" cy="320" r="10" transform="rotate(-90 120 320)" fill="#000"/><circle cx="120" cy="380" r="10" transform="rotate(-90 120 380)" fill="#000"/><g clip-path="url(#clip1)"><path fill="#FFCC1A" d="M420 560h140V420H420z"/><path d="M420 420a69.997 69.997 0 0 0 20.503 49.497 69.997 69.997 0 0 0 98.994 0A69.997 69.997 0 0 0 560 420h-12.892a57.108 57.108 0 1 1-114.216 0H420z" fill="#FDE9D4"/><circle r="19.96" transform="matrix(1 0 0 -1 439.96 416)" fill="#FDE9D4"/><circle r="19.96" transform="matrix(1 0 0 -1 473.694 416)" fill="#FDE9D4"/><circle r="19.96" transform="matrix(1 0 0 -1 507.429 416)" fill="#FDE9D4"/><circle r="19.96" transform="matrix(1 0 0 -1 540.04 416)" fill="#FDE9D4"/><circle r="20" transform="matrix(1 0 0 -1 490 526)" fill="#FC8B4C"/></g><path d="M280 140V0H140v140h140z" fill="#236967"/><circle r="20" transform="matrix(0 -1 -1 0 236 50)" fill="#000"/><circle r="20" transform="matrix(0 -1 -1 0 216 50)" fill="#FDE9D4"/><path fill="#FC8B4C" d="M420 140h140V0H420z"/><path fill="#FDE9D4" d="M485.834 95h8.333V45h-8.333z"/><path fill="#FDE9D4" d="M469.375 84.731l5.892 5.893 35.356-35.356-5.893-5.892z"/><path fill="#FDE9D4" d="M510.625 84.732l-5.892 5.892-35.355-35.356 5.892-5.892z"/><path fill="#FDE9D4" d="M465 65.833v8.333h50v-8.333z"/><circle cx="490" cy="20" r="5" transform="rotate(-180 490 20)" fill="#FDE9D4"/><circle cx="540" cy="70" r="5" transform="rotate(-180 540 70)" fill="#FDE9D4"/><circle cx="440" cy="70" r="5" transform="rotate(-180 440 70)" fill="#FDE9D4"/><circle cx="490" cy="120" r="5" transform="rotate(-180 490 120)" fill="#FDE9D4"/><path fill="#FE7167" d="M420 280h140V140H420z"/><path d="M490 202l33-62h-66l33 62z" fill="#236967"/><path d="M490 214a33.852 33.852 0 0 1 20-20 33.852 33.852 0 0 1-20-20 33.852 33.852 0 0 1-20 20 33.852 33.852 0 0 1 20 20z" fill="#FDE9D4"/><path d="M490 280a59.24 59.24 0 0 1 35-35 59.24 59.24 0 0 1-35-35 59.24 59.24 0 0 1-35 35 59.24 59.24 0 0 1 35 35z" fill="#FDE9D4"/><path fill="#236967" d="M0 280h140V140H0z"/><path fill="#fff" d="M65.834 235h8.333v-50h-8.333z"/><path fill="#fff" d="M49.375 224.731l5.892 5.892 35.356-35.355-5.893-5.892z"/><path fill="#fff" d="M90.625 224.731l-5.892 5.892-35.356-35.355 5.893-5.892z"/><path fill="#fff" d="M45 205.833v8.333h50v-8.333z"/><circle cx="70" cy="160" r="5" transform="rotate(-180 70 160)" fill="#fff"/><circle cx="120" cy="210" r="5" transform="rotate(-180 120 210)" fill="#fff"/><circle cx="20" cy="210" r="5" transform="rotate(-180 20 210)" fill="#fff"/><circle cx="70" cy="260" r="5" transform="rotate(-180 70 260)" fill="#fff"/><defs><clipPath id="clip0"><path fill="#fff" transform="matrix(-1 0 0 1 280 140)" d="M0 0h140v140H0z"/></clipPath><clipPath id="clip1"><path fill="#fff" transform="matrix(1 0 0 -1 420 560)" d="M0 0h140v140H0z"/></clipPath></defs></svg>