<svg width="40" height="40" fill="none" xmlns="http://www.w3.org/2000/svg"><g clip-path="url(#clip0_971_4242)" stroke="#E6AA12" stroke-width="2.5" stroke-miterlimit="10" stroke-linecap="round" stroke-linejoin="round"><path d="M23.844 5.49c1.364.353 2.671.896 3.884 1.613l1.226-1.226a2.51 2.51 0 0 1 3.55 0l1.775 1.775a2.509 2.509 0 0 1 0 3.55l-1.226 1.226a14.987 14.987 0 0 1 1.612 3.884h1.73a2.51 2.51 0 0 1 2.511 2.51v2.511a2.51 2.51 0 0 1-2.51 2.51h-1.73a14.987 14.987 0 0 1-1.613 3.885l1.226 1.226a2.509 2.509 0 0 1 0 3.55l-1.775 1.775a2.508 2.508 0 0 1-3.55 0l-1.226-1.226a14.986 14.986 0 0 1-3.884 1.612v1.73a2.51 2.51 0 0 1-2.51 2.511h-2.511a2.51 2.51 0 0 1-2.51-2.51v-1.73a14.983 14.983 0 0 1-3.885-1.613l-1.226 1.226a2.509 2.509 0 0 1-3.55 0l-1.775-1.775a2.509 2.509 0 0 1 0-3.55l1.226-1.226a14.984 14.984 0 0 1-1.612-3.884H3.76a2.51 2.51 0 0 1-2.511-2.51v-2.511a2.51 2.51 0 0 1 2.51-2.51h1.73a14.984 14.984 0 0 1 1.613-3.885l-1.226-1.226a2.51 2.51 0 0 1 0-3.55l1.775-1.775a2.509 2.509 0 0 1 3.55 0l1.226 1.226a14.982 14.982 0 0 1 3.884-1.612V3.76a2.51 2.51 0 0 1 2.51-2.511h2.511a2.51 2.51 0 0 1 2.51 2.51v1.73z"/><path d="M20.078 12.547a7.535 7.535 0 0 1 7.531 7.531 7.535 7.535 0 0 1-7.53 7.531 7.535 7.535 0 0 1-7.532-7.53 7.535 7.535 0 0 1 7.531-7.532z"/></g><defs><clipPath id="clip0_971_4242"><path fill="#fff" d="M0 0h40v40H0z"/></clipPath></defs></svg>