<svg width="40" height="40" fill="none" xmlns="http://www.w3.org/2000/svg"><path d="M0 5.975v23.828a3.207 3.207 0 0 0 3.203 3.203h9.668l-1.355 2.347a1.25 1.25 0 0 0 1.083 1.875H27.4a1.25 1.25 0 0 0 1.083-1.875l-1.355-2.347h9.668A3.207 3.207 0 0 0 40 29.803V5.975a3.207 3.207 0 0 0-3.203-3.203H3.203A3.207 3.207 0 0 0 0 5.975zm25.236 28.753H14.764l.994-1.722h8.484l.994 1.722zm11.56-4.222H3.204a.704.704 0 0 1-.703-.703v-1.748h35v1.748a.703.703 0 0 1-.703.703zm.704-24.53v19.579h-35V5.975a.704.704 0 0 1 .703-.703h33.594a.704.704 0 0 1 .703.703z" fill="#30CBFF"/></svg>