<svg width="128" height="128" fill="none" xmlns="http://www.w3.org/2000/svg"><path d="M120 8H8v112h112V8z" fill="#F5DE19"/><path d="M83.236 95.5a11.464 11.464 0 0 0 10.4 6.4c4.36 0 7.148-2.18 7.148-5.2 0-3.6-2.864-4.888-7.664-6.988l-2.632-1.128c-7.6-3.236-12.64-7.288-12.64-15.856 0-7.892 6-13.904 15.412-13.904a15.556 15.556 0 0 1 14.968 8.428L100 72.512A7.154 7.154 0 0 0 93.244 68a4.58 4.58 0 0 0-5.036 4.512c0 3.156 1.956 4.436 6.472 6.4l2.632 1.128c8.944 3.836 14 7.744 14 16.532 0 9.476-7.444 14.668-17.44 14.668a20.221 20.221 0 0 1-19.18-10.764l8.544-4.976zm-37.18.912c1.652 2.932 3.156 5.412 6.772 5.412 3.456 0 5.64-1.352 5.64-6.612V59.424h10.524v35.928c0 10.896-6.4 15.856-15.716 15.856a16.343 16.343 0 0 1-15.788-9.6l8.568-5.196z" fill="#000"/></svg>