<svg width="109" height="109" fill="none" xmlns="http://www.w3.org/2000/svg"><path d="M4.542 5.905h99.917v97.192H4.542V5.905z" fill="#261300"/><path d="M0 1.363v106.275h109V1.363H0zm4.542 4.542h99.917v97.192H4.542V5.905zm33.29 55.634l-3.589 13.625c-.09.363-.227.455-.681.455h-6.676c-.455 0-.546-.136-.455-.681l12.898-45.145c.226-.818.362-1.545.454-3.77 0-.318.136-.454.363-.454h9.538c.318 0 .454.09.545.455L64.67 75.028c.09.363 0 .59-.363.59h-7.54c-.362 0-.59-.09-.68-.408l-3.77-13.67H37.832zm12.625-7.357l-5.404-21.346h-.09c-.954 5.314-3.36 14.307-5.268 21.346h10.762zm20.437-25.253c0-2.907 2.044-4.632 4.633-4.632 2.77 0 4.632 1.861 4.632 4.632 0 2.998-1.953 4.633-4.723 4.633-2.634 0-4.542-1.635-4.542-4.633zm.545 10.31c0-.363.137-.546.545-.546h7.131c.363 0 .545.137.545.545v35.834c0 .363-.09.545-.545.545h-7.039c-.454 0-.59-.226-.59-.59V39.24l-.047-.002z" fill="#FF7C00"/></svg>