<svg width="112" height="48" fill="none" xmlns="http://www.w3.org/2000/svg"><path d="M23.3 19.05L6.05 25.5l17.25 6.45v5.2L.25 28.2v-5.4l23.05-8.95v5.2zM31.192 8h15.3c3.733 0 7.05.733 9.95 2.2 2.9 1.433 5.15 3.483 6.75 6.15 1.6 2.633 2.4 5.683 2.4 9.15 0 3.467-.8 6.533-2.4 9.2-1.6 2.633-3.85 4.683-6.75 6.15-2.9 1.433-6.217 2.15-9.95 2.15h-15.3V8zm15 29.5c2.567 0 4.817-.483 6.75-1.45 1.967-1 3.467-2.4 4.5-4.2 1.067-1.833 1.6-3.95 1.6-6.35 0-2.4-.533-4.5-1.6-6.3-1.033-1.833-2.533-3.233-4.5-4.2-1.933-1-4.183-1.5-6.75-1.5h-8.5v24h8.5zM81.824.9h5.6L70.924 48h-5.6L81.824.9zm29.855 21.9v5.4l-23.05 8.95v-5.2l17.25-6.45-17.25-6.45v-5.2l23.05 8.95z" fill="url(#paint0_linear)"/><defs><linearGradient id="paint0_linear" x1="127.403" y1="90.659" x2="-7.8" y2="84.188" gradientUnits="userSpaceOnUse"><stop stop-color="#FF8830"/><stop offset="1" stop-color="#30FFE6"/></linearGradient></defs></svg>