<svg width="138" height="44" fill="none" xmlns="http://www.w3.org/2000/svg"><path d="M9.003 28.351l15.244-15.203c-1.038-.985-1.881-2.222-3.403-2.54l2.028-1.973c.061.056.234.213.399.377 1.803 1.792 3.593 3.598 5.415 5.37.78.76 1.629 1.448 2.46 2.18-.753 1.106-2.38 1.26-3.433.204-.591-.594-1.14-1.228-1.68-1.808L12.407 28.502l11.48 11.415L41.98 21.923l-3.039-2.956 1.658-1.602 4.61 4.617-21.304 21.186L9.003 28.35z" fill="#40637D"/><path d="M23.543 30.831c1.08 1.051 1.955 2.258 3.53 2.608l-2.09 1.955c-2.788-2.527-5.272-5.525-8.309-7.943.95-1.162 2.467-1.233 3.558-.09.533.559 1.048 1.139 1.514 1.647L35.389 15.44 23.933 4.046 5.855 22.023l3.038 2.97-1.749 1.55-4.537-4.508C9.681 14.993 16.83 7.888 23.926.833l14.891 14.81L23.543 30.83zM120.892 16.093h2.744v4.877c.24-.168.388-.265.531-.37 1.878-1.404 3.747-2.819 5.642-4.201.291-.196.632-.306.984-.317a24.453 24.453 0 0 1 3.341.103l-7.737 5.474 8.842 6.255c-1.215 0-2.277-.048-3.333.015-.826.05-1.47-.191-2.123-.688-1.893-1.446-3.832-2.82-5.753-4.223-.081-.06-.168-.113-.346-.233v5.098h-2.792v-11.79zM107.253 27.886v-9.633h10.424v1.687h-7.983v2.075h4.618V23.7h-4.616v2.348h8.102v1.832l-10.545.005zM76.692 24.15v3.724h-2.328V18.24c.149-.008.312-.022.48-.022h8.449c.207-.003.414.013.618.047 1.005.185 1.447.661 1.486 1.67.032.827.035 1.653 0 2.474-.044 1.059-.598 1.646-1.706 1.683-1.864.062-3.73.042-5.596.056-.445.004-.89.002-1.403.002zm.019-1.703h1.454c1.35 0 2.7.009 4.044-.006.74-.007.944-.22.951-.91 0-.276-.006-.551 0-.827.013-.457-.208-.709-.66-.763a5.399 5.399 0 0 0-.619-.055 924.8 924.8 0 0 0-4.77 0c-.133.007-.266.02-.398.041l-.002 2.52zM61.457 27.9h-2.793v-9.666h-5.453v-2.127h13.654v2.107h-5.408V27.9zM104.57 18.249v1.703h-4.7v7.935H97.47v-7.89h-4.659v-1.748h11.758zM68.814 18.227h2.304v9.651h-2.304v-9.65zM90.139 27.89H87.82v-9.645h2.318v9.645z" fill="#40637D"/></svg>