<svg width="119" height="61" fill="none" xmlns="http://www.w3.org/2000/svg"><path d="M26.3 24.05L9.05 30.5l17.25 6.45v5.2L3.25 33.2v-5.4l23.05-8.95v5.2zM34.192 13h15.3c3.733 0 7.05.733 9.95 2.2 2.9 1.433 5.15 3.483 6.75 6.15 1.6 2.633 2.4 5.683 2.4 9.15 0 3.467-.8 6.533-2.4 9.2-1.6 2.633-3.85 4.683-6.75 6.15-2.9 1.433-6.217 2.15-9.95 2.15h-15.3V13zm15 29.5c2.567 0 4.817-.483 6.75-1.45 1.967-1 3.467-2.4 4.5-4.2 1.067-1.833 1.6-3.95 1.6-6.35 0-2.4-.533-4.5-1.6-6.3-1.033-1.833-2.533-3.233-4.5-4.2-1.933-1-4.183-1.5-6.75-1.5h-8.5v24h8.5zM84.824 5.9h5.6L73.924 53h-5.6l16.5-47.1zm29.855 21.9v5.4l-23.05 8.95v-5.2l17.25-6.45-17.25-6.45v-5.2l23.05 8.95z" fill="url(#paint0_linear)"/><path d="M5.487 28.47l1.705.68a2.61 2.61 0 0 1 1.012.687c.26.288.42.617.48.985.06.364.014.74-.14 1.127-.153.386-.379.692-.676.919a1.958 1.958 0 0 1-1.025.386 2.662 2.662 0 0 1-1.205-.203l-1.706-.679 1.555-3.902zm.362 3.955c.286.114.558.16.817.138.263-.024.493-.114.688-.268.2-.157.354-.37.46-.637.107-.268.14-.526.102-.774a1.222 1.222 0 0 0-.316-.668 1.739 1.739 0 0 0-.685-.467l-.948-.377-1.066 2.675.948.378zm4.958-.802c.438.174.73.413.877.717.15.301.142.664-.027 1.087l-.695 1.745-.657-.262.144-.362a.889.889 0 0 1-.488.154 1.552 1.552 0 0 1-.608-.126 1.54 1.54 0 0 1-.541-.345 1.025 1.025 0 0 1-.264-.473.895.895 0 0 1 .05-.516.843.843 0 0 1 .551-.523c.266-.084.613-.04 1.04.13l.77.306.017-.044c.083-.208.083-.393.001-.555-.078-.16-.24-.29-.485-.387a1.751 1.751 0 0 0-.527-.12 1.309 1.309 0 0 0-.493.056l-.072-.616c.204-.057.428-.073.672-.05.245.025.49.086.735.183zM9.7 34.127a.97.97 0 0 0 .509.067.712.712 0 0 0 .427-.23l.138-.346-.72-.286c-.4-.16-.654-.108-.759.156a.382.382 0 0 0 .03.36c.072.115.196.208.375.279zm5.044-.936c.376.15.633.379.772.688.14.31.124.68-.048 1.111l-.68 1.706-.696-.277.644-1.617c.103-.26.12-.48.049-.658-.07-.183-.218-.32-.444-.41-.257-.102-.49-.105-.701-.008-.21.093-.372.285-.487.575l-.6 1.505-.697-.278 1.186-2.976.663.264-.153.384c.17-.091.357-.137.56-.139.202 0 .413.043.632.13zm3.264 1.3c.439.175.731.414.877.717.151.302.143.664-.026 1.088l-.695 1.745-.658-.262.145-.363a.889.889 0 0 1-.488.155 1.55 1.55 0 0 1-.609-.126 1.54 1.54 0 0 1-.54-.345 1.025 1.025 0 0 1-.264-.473.896.896 0 0 1 .05-.516.843.843 0 0 1 .551-.523c.266-.084.612-.04 1.04.13l.769.306.018-.045c.083-.208.083-.393.001-.554-.078-.16-.24-.29-.485-.387a1.749 1.749 0 0 0-.527-.12 1.309 1.309 0 0 0-.494.055l-.07-.616c.203-.057.426-.073.67-.049.245.024.49.085.735.183zm-1.107 2.504a.97.97 0 0 0 .51.067.712.712 0 0 0 .427-.23l.138-.345-.72-.287c-.4-.16-.654-.108-.759.156a.382.382 0 0 0 .03.361c.071.114.196.207.374.278zm6.075-.486l-2.674 2.66c-.259.272-.507.436-.745.492-.239.06-.49.037-.754-.068a1.493 1.493 0 0 1-.412-.248 1.046 1.046 0 0 1-.276-.343l.482-.401a.826.826 0 0 0 .431.41.499.499 0 0 0 .339.025.884.884 0 0 0 .35-.229l.096-.097-.109-3.505.725.289.06 2.575 1.819-1.827.668.267zm1.494.556c.438.174.73.413.877.717.15.301.142.664-.027 1.088l-.695 1.744-.657-.262.144-.362a.889.889 0 0 1-.488.154 1.552 1.552 0 0 1-.608-.126 1.54 1.54 0 0 1-.541-.344 1.024 1.024 0 0 1-.264-.474.895.895 0 0 1 .05-.515.843.843 0 0 1 .551-.524c.266-.083.613-.04 1.04.13l.77.307.017-.045c.083-.208.083-.393.002-.555-.079-.16-.24-.29-.486-.387a1.752 1.752 0 0 0-.527-.12 1.309 1.309 0 0 0-.493.056l-.072-.616c.204-.057.428-.073.672-.05.245.025.49.086.735.184zm-1.107 2.504a.97.97 0 0 0 .509.067.713.713 0 0 0 .427-.23l.138-.346-.719-.286c-.401-.16-.655-.108-.76.156a.382.382 0 0 0 .031.36c.07.115.195.208.374.279zM71.885 44.193l.6-1.735c.146-.424.359-.771.639-1.043.276-.273.597-.448.962-.525.361-.078.738-.05 1.132.086.393.136.71.347.95.633.235.284.38.62.432 1.006.05.385 0 .79-.145 1.213l-.6 1.736-3.97-1.371zm3.934-.546c.1-.291.134-.566.1-.823a1.269 1.269 0 0 0-.3-.675 1.487 1.487 0 0 0-.658-.43 1.456 1.456 0 0 0-.777-.065c-.249.045-.466.16-.653.346a1.74 1.74 0 0 0-.434.707l-.333.964 2.722.94.333-.964zm-1.032-4.915c.153-.447.379-.75.675-.91.294-.165.657-.173 1.088-.024l1.775.613-.231.669-.369-.127a.889.889 0 0 1 .177.48 1.55 1.55 0 0 1-.097.614 1.538 1.538 0 0 1-.32.556 1.025 1.025 0 0 1-.46.285.895.895 0 0 1-.518-.026.843.843 0 0 1-.548-.526c-.096-.261-.069-.61.081-1.044l.27-.783-.045-.016c-.212-.073-.396-.065-.554.025-.157.085-.278.253-.364.502a1.75 1.75 0 0 0-.095.533c-.003.18.023.344.078.49l-.612.1a1.819 1.819 0 0 1-.08-.67c.013-.244.062-.492.148-.741zm2.552.989a.97.97 0 0 0 .044-.512.712.712 0 0 0-.25-.416l-.352-.122-.252.732c-.141.408-.077.659.191.752a.382.382 0 0 0 .36-.048c.11-.076.197-.205.26-.386zm-.769-6.046l2.58 2.344-.252.732-3.477.253.254-.737 2.571-.166-1.91-1.745.234-.681zm.153-.443l.245-.709 3.028 1.045-.244.71-3.029-1.046zm-.376-.53a.488.488 0 0 1-.23.282.43.43 0 0 1-.352.025.412.412 0 0 1-.255-.234.475.475 0 0 1-.013-.366.488.488 0 0 1 .23-.282.387.387 0 0 1 .335-.031.463.463 0 0 1 .286.606zm.787-4.483l4.208 1.453-.235.68-.391-.135c.103.167.16.35.172.549.013.195-.016.396-.088.604-.1.291-.255.532-.465.722a1.476 1.476 0 0 1-.732.356c-.284.05-.58.023-.886-.083a1.715 1.715 0 0 1-.742-.479 1.477 1.477 0 0 1-.357-.732 1.706 1.706 0 0 1 .08-.855c.069-.2.166-.372.292-.515.125-.143.276-.25.453-.32l-1.554-.536.245-.709zm3.088 2.856a.983.983 0 0 0 .046-.498.91.91 0 0 0-.223-.439 1.074 1.074 0 0 0-.458-.291 1.074 1.074 0 0 0-.54-.054.868.868 0 0 0-.441.21.946.946 0 0 0-.278.418.946.946 0 0 0-.04.501.868.868 0 0 0 .218.437c.116.129.269.226.458.291.19.066.37.083.54.053a.91.91 0 0 0 .447-.207.984.984 0 0 0 .272-.42zm.925-5.695c.05.017.118.045.206.084l-.82 2.377a.887.887 0 0 0 .645-.14c.19-.133.33-.33.42-.591.115-.333.1-.645-.045-.936l.568-.23c.115.193.179.408.19.644.011.237-.028.486-.118.746a1.98 1.98 0 0 1-.502.811 1.54 1.54 0 0 1-.754.4c-.285.054-.577.03-.876-.074a1.68 1.68 0 0 1-.725-.473 1.526 1.526 0 0 1-.362-.753 1.724 1.724 0 0 1 .08-.874c.101-.295.258-.535.47-.72.21-.19.456-.308.738-.354.28-.052.576-.024.885.083zm-1.526 1.187a.908.908 0 0 0 .004.65.89.89 0 0 0 .435.467l.594-1.719a.884.884 0 0 0-.63.094.894.894 0 0 0-.403.508zm.79-4.127c.131-.381.349-.65.651-.803.303-.153.674-.154 1.112-.003l1.736.599-.245.709-1.645-.568c-.264-.091-.484-.097-.66-.018-.179.077-.308.232-.388.462-.09.261-.082.495.025.7.103.206.301.359.596.46l1.532.53-.245.708-3.029-1.045.233-.675.392.135c-.1-.166-.155-.35-.165-.552-.01-.203.022-.415.1-.639zm2.937-2.791l.317.7.8.276-.245.709-4.208-1.453.245-.709 2.54.877-.853-1.939.293-.85.834 1.703 2.236-.777-.298.862-1.66.6zm2.583-3.141c-.106.306-.267.56-.485.76-.217.2-.467.33-.75.388-.285.054-.577.03-.875-.074a1.654 1.654 0 0 1-.73-.48 1.558 1.558 0 0 1-.35-.768 1.818 1.818 0 0 1 .087-.897c.107-.31.27-.565.487-.765.217-.2.466-.328.748-.383.282-.06.573-.037.872.066.298.103.543.266.733.488.187.217.304.471.352.763a1.83 1.83 0 0 1-.09.902zm-.607-.21a.916.916 0 0 0-.038-.736c-.115-.23-.314-.394-.598-.492-.284-.098-.542-.092-.774.018a.916.916 0 0 0-.484.557.916.916 0 0 0 .037.736c.117.227.317.389.6.487.284.098.541.093.773-.013a.916.916 0 0 0 .484-.556z" fill="#1C1C1C"/><defs><linearGradient id="paint0_linear" x1="131.509" y1="95.659" x2="-4.835" y2="89.078" gradientUnits="userSpaceOnUse"><stop offset=".124" stop-color="#FF8830"/><stop offset="1" stop-color="#30FFE6"/></linearGradient></defs></svg>