<svg width="291" height="60" fill="none" xmlns="http://www.w3.org/2000/svg"><path d="M7.139 28.186c-3.22-.752-3.667-1.774-3.667-2.754 0-1.639 1.029-2.433 3.153-2.433 1.559 0 2.933.355 4.332 1.115l.337.186.21-.321c.371-.558.59-1.25.59-1.867 0-.811-.43-1.284-1.39-1.546C9.364 20.169 8.192 20 6.65 20 1.812 20 .093 22.957.093 25.72c0 2.804 1.87 4.654 5.554 5.499 3.346.794 4.029 1.85 4.029 3.193 0 2.18-1.981 2.644-3.641 2.644-1.652 0-3.212-.456-4.889-1.428l-.337-.194-.219.321c-.37.54-.59 1.242-.59 1.876 0 .819.388 1.292 1.332 1.638 1.331.507 2.933.778 4.635.778 4.265 0 7.13-2.383 7.13-5.922-.008-3.126-1.845-4.96-5.958-5.94zM22.554 20.253h-6.406v19.54h3.304v-6.26h3.102c4.517 0 7.105-2.416 7.105-6.623 0-4.233-2.588-6.657-7.105-6.657zm-3.093 2.872h3.101c2.52 0 3.75 1.234 3.75 3.785 0 2.509-1.263 3.784-3.75 3.784h-3.101v-7.569zM35.617 31.1h6.945v-2.872h-6.945v-5.103h8.698v-2.872H32.313v19.54h12.162V36.92h-8.858V31.1zM55.432 20.405l-.126-.144h-2.613l-.126.144c-3.397 3.928-5.807 11.185-6.296 18.94l-.025.447h3.413l.017-.405c.067-1.478.21-2.923.404-4.3h7.822a59.4 59.4 0 0 1 .438 4.3l.025.397h3.38l-.025-.448c-.413-7.535-2.883-14.97-6.288-18.931zm1.964 11.818h-6.785c.75-3.463 1.888-6.412 3.389-8.777 1.533 2.408 2.671 5.356 3.396 8.777zM72.684 29.284c2.95-2.197 5.032-5.272 5.757-8.516l.117-.515h-3.53l-.077.33c-.868 3.716-3.388 6.699-6.784 8.076v-8.406h-3.304v19.54h3.304v-8.11c.598-.203 1.171-.431 1.702-.684 2.866 1.833 4.66 4.671 5.335 8.447l.06.347h3.539l-.076-.482c-.59-4.004-2.882-7.78-6.043-10.027zM91.706 20.253l-.034.38c-.396 4.224-1.761 7.502-4.062 9.766-2.368-2.256-3.767-5.542-4.163-9.766l-.034-.38h-3.405l.042.465c.455 4.925 2.587 9.393 5.874 12.274v6.8h3.279v-6.8c3.346-2.94 5.487-7.4 5.874-12.283l.034-.456h-3.405z" fill="#236967"/><path d="M189.798 23.282l.255.195.177-.267.275-.413.153-.23-.217-.171c-1.313-1.039-3.283-1.696-5.186-1.696-2.071 0-3.591.55-4.596 1.442-1.008.893-1.469 2.104-1.469 3.359 0 1.754.74 2.86 1.847 3.603 1.079.725 2.504 1.1 3.865 1.444l.173.043c1.324.334 2.576.65 3.517 1.214.484.29.873.64 1.141 1.079.268.438.428.984.428 1.687 0 1.019-.385 1.927-1.196 2.587-.817.666-2.097 1.102-3.926 1.102-2.336 0-4.441-1.021-5.464-2.268l-.207-.252-.234.227-.343.334-.193.188.165.212c1.228 1.575 3.72 2.641 6.306 2.641 2.093 0 3.642-.536 4.673-1.416 1.035-.882 1.519-2.087 1.519-3.355v-.001c-.003-.854-.186-1.56-.517-2.147-.329-.587-.797-1.04-1.343-1.402-1.081-.714-2.507-1.088-3.869-1.436l-.124-.031c-1.343-.342-2.614-.667-3.567-1.245-.484-.294-.873-.648-1.142-1.091-.269-.443-.428-.992-.428-1.698 0-1.03.386-1.952 1.184-2.622.803-.674 2.053-1.116 3.82-1.116 1.49 0 3.209.493 4.523 1.5zM209.27 23.838l.232.228.209-.25.294-.354.172-.207-.187-.193c-1.549-1.604-3.751-2.362-6.088-2.362-5.22 0-9.153 4.001-9.153 9.321 0 5.32 3.923 9.321 9.153 9.321 2.33 0 4.541-.789 6.088-2.391l.187-.194-.172-.206-.294-.354-.209-.252-.233.23c-1.512 1.498-3.333 2.085-5.357 2.085-4.583 0-8.053-3.563-8.053-8.23h0c-.01-4.685 3.46-8.248 8.053-8.248 2.036 0 3.847.569 5.358 2.056zM228.405 21.069v8.259h-11.968v-8.56h-1.091v18.486h1.091v-8.835h11.968v8.835h1.1V20.769h-1.1v.3zM244.019 20.7c-5.219 0-9.152 4.001-9.152 9.321 0 5.32 3.923 9.321 9.152 9.321 5.23 0 9.153-4.002 9.153-9.321 0-5.33-3.923-9.321-9.153-9.321zm0 17.55c-4.583 0-8.053-3.515-8.053-8.229 0-4.714 3.47-8.23 8.053-8.23 4.585 0 8.063 3.517 8.063 8.23 0 4.713-3.478 8.23-8.063 8.23zM265.863 20.7c-5.22 0-9.153 4.001-9.153 9.321 0 5.32 3.923 9.321 9.153 9.321 5.229 0 9.153-4.002 9.153-9.321 0-5.33-3.924-9.321-9.153-9.321zm0 17.55c-4.584 0-8.053-3.515-8.053-8.229 0-4.714 3.469-8.23 8.053-8.23 4.584 0 8.062 3.516 8.062 8.23-.009 4.714-3.479 8.23-8.062 8.23zM289.138 20.769h-.3V38.172h-10.284v1.082H289.929V20.769H289.138z" fill="#216D6B" stroke="#236967" stroke-width=".6" stroke-miterlimit="10"/><path d="M137 0c-16.566 0-30 13.437-30 30.007 0 3.444.586 6.747 1.651 9.824a14.609 14.609 0 0 1 3.492-5.639c1.51-1.51 4.869-5.145 6.746-5.858 1.996-3.119 3.555-4.445 7.436-8.327 7.832-7.833 15.586-12.773 17.328-11.03 1.743 1.743-3.196 9.499-11.027 17.332a83.864 83.864 0 0 1-4.925 4.552 14.544 14.544 0 0 1 8.466 8.476 83.714 83.714 0 0 1 4.558-4.926c7.832-7.834 15.593-12.774 17.329-11.03 1.742 1.742-3.197 9.498-11.028 17.332-3.881 3.881-5.144 5.497-8.269 7.495-.713 1.87-4.41 5.18-5.913 6.683a14.554 14.554 0 0 1-5.595 3.479 29.903 29.903 0 0 0 9.744 1.63C153.566 60.014 167 46.577 167 30.007S153.566 0 137 0z" fill="#236967"/><path d="M120.243 42.3c.268 0 .543-.105.748-.31.409-.41.409-1.08 0-1.496a1.078 1.078 0 0 0-1.496 0 1.055 1.055 0 0 0 0 1.496c.205.212.473.31.748.31zM126.565 46.083c-.396-.402-1.094-.402-1.496 0a1.056 1.056 0 0 0 .748 1.807 1.059 1.059 0 0 0 1.058-1.059c0-.282-.106-.55-.31-.748zM117.329 45.512c-.783.776.19 2.766.508 3.359l.049.092.092.05c.311.161 1.552.797 2.505.797.338 0 .642-.078.853-.29.741-.74.438-1.933-.818-3.19-1.256-1.249-2.448-1.552-3.189-.818z" fill="#236967"/></svg>