<svg width="60" height="60" fill="none" xmlns="http://www.w3.org/2000/svg"><rect width="60" height="59.997" rx="13.047" fill="#30CBFF" fill-opacity=".1"/><g clip-path="url(#clip0_437_1090)"><path d="M37.416 42.24h.752a.743.743 0 0 0 .643-1.114l-8.135-14.09a.743.743 0 0 0-1.286 0l-8.136 14.09a.743.743 0 0 0 .643 1.113H34.92m3.903-22.108l-2.783 4.82c3.674 2.096 6.157 6.051 6.157 10.575h5.561c0-6.59-3.597-12.34-8.935-15.395zm0 0a17.646 17.646 0 0 0-8.79-2.33c-1.728 0-3.397.247-4.975.708M12.976 39.861a2.067 2.067 0 1 0 1.615-1.71m2.142-14.343a17.657 17.657 0 0 0-4.426 11.718h5.56c0-4.524 2.483-8.479 6.158-10.575l-2.783-4.82m0 0a17.776 17.776 0 0 0-2.929 2.097m2.929-2.097a17.7 17.7 0 0 1 1.47-.752m1.313 5.572a12.091 12.091 0 0 1 6.007-1.589c2.183 0 4.234.578 6.007 1.59M18.74 23.819l-1.042-3.889a.339.339 0 0 0-.567-.152l-2.848 2.847c-.184.185-.1.5.152.567l3.89 1.042a.339.339 0 0 0 .415-.415zm11.293 12.444a.827.827 0 0 1-.826-.781l-.182-3.337a1.01 1.01 0 1 1 2.015 0l-.182 3.337a.827.827 0 0 1-.826.781zm1.046 2.901a1.046 1.046 0 1 1-2.093 0 1.046 1.046 0 0 1 2.093 0zm11.9 1.009a2.067 2.067 0 1 1 4.133 0 2.067 2.067 0 0 1-4.134 0z" stroke="#30CBFF" stroke-width="1.2" stroke-miterlimit="10" stroke-linecap="round" stroke-linejoin="round"/></g><defs><clipPath id="clip0_437_1090"><path fill="#fff" transform="translate(11.74 11.738)" d="M0 0h36.522v36.52H0z"/></clipPath></defs></svg>