<svg width="60" height="61" fill="none" xmlns="http://www.w3.org/2000/svg"><rect y=".997" width="60" height="59.997" rx="13.047" fill="#E65069" fill-opacity=".1"/><g clip-path="url(#clip0_437_1069)"><path fill-rule="evenodd" clip-rule="evenodd" d="M30.006 12.806c1.216 0 2.429.12 3.62.36a.642.642 0 1 1-.253 1.26 16.984 16.984 0 0 0-3.367-.336c-9.337 0-16.906 7.569-16.906 16.905 0 3.942 1.35 7.567 3.61 10.442a2.926 2.926 0 1 1-.947.872 18.113 18.113 0 0 1-3.947-11.314c0-10.045 8.144-18.189 18.19-18.189m12.997 4.05a1.64 1.64 0 1 0-2.32 2.322 1.64 1.64 0 0 0 2.32-2.321zm-3.228-.907a2.925 2.925 0 0 1 4.474 3.732 18.113 18.113 0 0 1 3.946 11.314c0 10.045-8.143 18.188-18.189 18.188-1.204.001-2.405-.117-3.586-.353a.642.642 0 0 1 .25-1.26c1.099.22 2.216.33 3.335.33 9.337 0 16.906-7.569 16.906-16.905 0-3.942-1.348-7.567-3.61-10.442a2.926 2.926 0 0 1-3.526-4.604zm-12.641 2.777c0-.354.287-.642.642-.642h4.46c.355 0 .642.288.642.642v1.426c.967.255 1.896.64 2.76 1.143l1.008-1.007c.25-.251.657-.251.907 0l3.155 3.152a.642.642 0 0 1 0 .908L39.7 25.357a11.15 11.15 0 0 1 1.143 2.76h1.433c.355 0 .642.287.642.641v4.46a.642.642 0 0 1-.642.642h-1.432c-.256.967-.64 1.896-1.144 2.76l1.014 1.014c.25.25.25.657 0 .908l-3.153 3.155a.642.642 0 0 1-.908 0l-1.015-1.015a11.15 11.15 0 0 1-2.76 1.143v1.438a.642.642 0 0 1-.642.642h-4.46a.642.642 0 0 1-.642-.642v-1.438a11.15 11.15 0 0 1-2.76-1.143l-1.015 1.015a.642.642 0 0 1-.908 0l-3.153-3.155a.642.642 0 0 1 0-.908l1.014-1.014a11.147 11.147 0 0 1-1.143-2.76h-1.433a.642.642 0 0 1-.642-.642l.002-4.46c0-.354.288-.642.642-.642h1.43a11.15 11.15 0 0 1 1.144-2.76l-1.009-1.008a.642.642 0 0 1 0-.908l3.156-3.153c.25-.25.657-.25.907 0l1.008 1.008a11.147 11.147 0 0 1 2.76-1.143v-1.426zm1.284.642v1.29a.642.642 0 0 1-.507.627 9.864 9.864 0 0 0-3.284 1.361.642.642 0 0 1-.803-.085l-.912-.912-2.246 2.245.912.913c.214.214.25.548.085.802a9.863 9.863 0 0 0-1.36 3.284.642.642 0 0 1-.628.507H18.38l-.002 3.176h1.297c.302 0 .564.212.627.508a9.866 9.866 0 0 0 1.361 3.284.642.642 0 0 1-.085.802l-.918.918 2.245 2.247.919-.92a.642.642 0 0 1 .802-.084 9.864 9.864 0 0 0 3.285 1.36.642.642 0 0 1 .507.628v1.302h3.176V41.32c0-.302.211-.564.507-.627a9.864 9.864 0 0 0 3.285-1.361.642.642 0 0 1 .802.085l.919.919 2.245-2.247-.918-.918a.642.642 0 0 1-.085-.802 9.866 9.866 0 0 0 1.36-3.285.642.642 0 0 1 .628-.507h1.297V29.4h-1.297a.642.642 0 0 1-.627-.507 9.863 9.863 0 0 0-1.361-3.284.642.642 0 0 1 .085-.802l.913-.913L37.1 21.65l-.912.912a.642.642 0 0 1-.803.085 9.864 9.864 0 0 0-3.284-1.36.642.642 0 0 1-.507-.628v-1.29h-3.176zm1.588 7.088a4.539 4.539 0 1 0 0 9.078 4.539 4.539 0 0 0 0-9.078zm-5.823 4.539a5.823 5.823 0 1 1 11.645 0 5.823 5.823 0 0 1-11.645 0zM19.33 42.813a1.64 1.64 0 1 0-2.32 2.32 1.64 1.64 0 0 0 2.32-2.32z" fill="#E65069"/></g><defs><clipPath id="clip0_437_1069"><path fill="#fff" transform="translate(11.738 12.736)" d="M0 0h36.522v36.52H0z"/></clipPath></defs></svg>