<svg width="62" height="62" fill="none" xmlns="http://www.w3.org/2000/svg"><path d="M52.667 57.876L3.901 9.11C1.756 6.964 1.114 4.095 2.475 2.734c1.361-1.361 4.23-.72 6.376 1.426l48.766 48.766c2.146 2.146 2.788 5.015 1.426 6.377-1.36 1.36-4.23.719-6.376-1.427z" fill="url(#paint0_linear)"/><path d="M57.858 8.851L9.092 57.617c-2.145 2.146-5.015 2.788-6.376 1.427-1.361-1.362-.72-4.231 1.426-6.377L52.908 3.901c2.146-2.145 5.015-2.787 6.377-1.426 1.36 1.361.719 4.23-1.427 6.376z" fill="url(#paint1_linear)"/><defs><linearGradient id="paint0_linear" x1="66.138" y1="76.25" x2="22.257" y2="-2.754" gradientUnits="userSpaceOnUse"><stop stop-color="#FF8830"/><stop offset="1" stop-color="#30FFE6"/></linearGradient><linearGradient id="paint1_linear" x1="76.232" y1="-4.619" x2="-2.772" y2="39.262" gradientUnits="userSpaceOnUse"><stop stop-color="#FF8830"/><stop offset="1" stop-color="#30FFE6"/></linearGradient></defs></svg>