<svg width="424" height="342" fill="none" xmlns="http://www.w3.org/2000/svg"><path d="M209 90.5V107m0 0h99v34m-99-34v34m0-34h-96.5v34M116 227v25.5h-13.5m-71 20.5v-20.5h71m0 0V273M213.5 228.5V252m0 0H175v21.5m38.5-21.5H248v21.5M309.5 226.5v25h13m68 22.5v-22.5h-68m0 0V274" stroke="#26374C" stroke-width="3" stroke-linecap="round" stroke-dasharray="13 13"/><rect x="168" width="88" height="88" rx="12" fill="#30CBFF" fill-opacity=".5"/><path d="M212 50.348c8.677 0 16 1.41 16 6.85C228 62.64 220.629 64 212 64c-8.675 0-16-1.41-16-6.85 0-5.442 7.371-6.802 16-6.802zM212 24a10.547 10.547 0 0 1 10.588 10.582c0 5.874-4.71 10.584-10.588 10.584a10.55 10.55 0 0 1-10.588-10.584A10.548 10.548 0 0 1 212 24z" fill="#009ED3"/><rect x="176" y="152" width="72" height="72" rx="8" fill="#E65069" fill-opacity=".1"/><path d="M211.638 192.83c7.099 0 13.091 1.154 13.091 5.605 0 4.452-6.031 5.565-13.091 5.565-7.098 0-13.091-1.154-13.091-5.605 0-4.452 6.03-5.565 13.091-5.565zm0-21.557a8.63 8.63 0 0 1 8.663 8.658 8.631 8.631 0 0 1-8.663 8.66 8.632 8.632 0 0 1-8.663-8.66 8.63 8.63 0 0 1 8.663-8.658z" fill="#E65069"/><rect x="80" y="152" width="72" height="72" rx="8" fill="#E65069" fill-opacity=".1"/><path d="M115.638 192.83c7.099 0 13.091 1.154 13.091 5.605 0 4.452-6.031 5.565-13.091 5.565-7.098 0-13.091-1.154-13.091-5.605 0-4.452 6.03-5.565 13.091-5.565zm0-21.557a8.63 8.63 0 0 1 8.663 8.658 8.631 8.631 0 0 1-8.663 8.66 8.632 8.632 0 0 1-8.663-8.66 8.63 8.63 0 0 1 8.663-8.658z" fill="#E65069"/><rect y="278" width="64" height="64" rx="7.111" fill="#E6AA12" fill-opacity=".1"/><path d="M31.68 314.293c6.31 0 11.636 1.026 11.636 4.982 0 3.958-5.36 4.947-11.637 4.947-6.309 0-11.636-1.025-11.636-4.982 0-3.958 5.36-4.947 11.636-4.947zm0-19.162a7.67 7.67 0 0 1 7.7 7.696 7.672 7.672 0 0 1-7.7 7.698 7.673 7.673 0 0 1-7.701-7.698 7.671 7.671 0 0 1 7.7-7.696z" fill="#E6AA12"/><rect x="144" y="278" width="64" height="64" rx="7.111" fill="#E6AA12" fill-opacity=".1"/><path d="M175.679 314.293c6.311 0 11.637 1.026 11.637 4.982 0 3.958-5.361 4.947-11.637 4.947-6.309 0-11.636-1.025-11.636-4.982 0-3.958 5.361-4.947 11.636-4.947zm0-19.162a7.67 7.67 0 0 1 7.701 7.696 7.673 7.673 0 0 1-7.701 7.698 7.673 7.673 0 0 1-7.7-7.698 7.671 7.671 0 0 1 7.7-7.696z" fill="#E6AA12"/><rect x="288" y="278" width="64" height="64" rx="7.111" fill="#E6AA12" fill-opacity=".1"/><path d="M319.679 314.293c6.311 0 11.637 1.026 11.637 4.982 0 3.958-5.361 4.947-11.637 4.947-6.309 0-11.636-1.025-11.636-4.982 0-3.958 5.361-4.947 11.636-4.947zm0-19.162a7.67 7.67 0 0 1 7.701 7.696 7.673 7.673 0 0 1-7.701 7.698 7.673 7.673 0 0 1-7.7-7.698 7.671 7.671 0 0 1 7.7-7.696z" fill="#E6AA12"/><rect x="72" y="278" width="64" height="64" rx="7.111" fill="#E6AA12" fill-opacity=".1"/><path d="M103.679 314.293c6.311 0 11.637 1.026 11.637 4.982 0 3.958-5.361 4.947-11.637 4.947-6.309 0-11.636-1.025-11.636-4.982 0-3.958 5.36-4.947 11.636-4.947zm0-19.162a7.67 7.67 0 0 1 7.701 7.696 7.673 7.673 0 0 1-7.701 7.698 7.673 7.673 0 0 1-7.7-7.698 7.671 7.671 0 0 1 7.7-7.696z" fill="#E6AA12"/><rect x="216" y="278" width="64" height="64" rx="7.111" fill="#E6AA12" fill-opacity=".1"/><path d="M247.679 314.293c6.311 0 11.637 1.026 11.637 4.982 0 3.958-5.361 4.947-11.637 4.947-6.309 0-11.636-1.025-11.636-4.982 0-3.958 5.361-4.947 11.636-4.947zm0-19.162a7.67 7.67 0 0 1 7.701 7.696 7.673 7.673 0 0 1-7.701 7.698 7.673 7.673 0 0 1-7.7-7.698 7.671 7.671 0 0 1 7.7-7.696z" fill="#E6AA12"/><rect x="360" y="278" width="64" height="64" rx="7.111" fill="#E6AA12" fill-opacity=".1"/><path d="M391.679 314.293c6.311 0 11.637 1.026 11.637 4.982 0 3.958-5.361 4.947-11.637 4.947-6.309 0-11.636-1.025-11.636-4.982 0-3.958 5.361-4.947 11.636-4.947zm0-19.162a7.67 7.67 0 0 1 7.701 7.696 7.673 7.673 0 0 1-7.701 7.698 7.673 7.673 0 0 1-7.7-7.698 7.671 7.671 0 0 1 7.7-7.696z" fill="#E6AA12"/><rect x="272" y="152" width="72" height="72" rx="8" fill="#E65069" fill-opacity=".1"/><path d="M307.636 192.83c7.099 0 13.091 1.154 13.091 5.605 0 4.452-6.031 5.565-13.091 5.565-7.098 0-13.091-1.154-13.091-5.605 0-4.452 6.031-5.565 13.091-5.565zm0-21.557a8.63 8.63 0 0 1 8.663 8.658 8.631 8.631 0 0 1-8.663 8.66 8.632 8.632 0 0 1-8.663-8.66 8.63 8.63 0 0 1 8.663-8.658z" fill="#E65069"/></svg>