<svg width="109" height="109" fill="none" xmlns="http://www.w3.org/2000/svg"><path d="M5 6h100v97H5V6z" fill="#0C0824"/><path d="M4.543 6.531h99.914v96.938H4.543V6.531zM0 108h109V2H0v106zm73.486-62.513c-3.59 0-4.816 1.813-4.816 3.308 0 1.631.817 2.765 5.633 5.254 7.132 3.444 9.343 6.748 9.343 11.598 0 7.249-5.54 11.143-13.034 11.143a19.804 19.804 0 0 1-9.311-1.941c-.32-.136-.362-.361-.362-.726v-6.667c0-.454.226-.59.545-.361a16.888 16.888 0 0 0 9.128 2.671c3.59 0 5.089-1.495 5.089-3.533 0-1.63-1.044-3.08-5.633-5.436-6.45-3.08-9.13-6.212-9.13-11.415 0-5.844 4.587-10.69 12.536-10.69 2.767-.118 5.53.313 8.128 1.27a1.002 1.002 0 0 1 .456.905v6.212c0 .361-.226.59-.682.454a15.373 15.373 0 0 0-7.902-2.038l.011-.008zm-39.062 5.39c1.044.089 1.861.089 3.68.089 5.313 0 10.308-1.856 10.308-9.059 0-5.754-3.59-8.65-9.627-8.65-1.818 0-3.543.089-4.36.135v17.484zM26.34 26.802c0-.318.635-.543 1-.543 2.909-.136 7.222-.226 11.718-.226 12.582 0 17.487 6.885 17.487 15.675 0 11.505-8.358 16.444-18.62 16.444-1.724 0-2.316-.09-3.542-.09v17.395c0 .362-.136.544-.545.544h-6.949c-.362 0-.545-.136-.545-.544V26.823l-.004-.02z" fill="#31C5F0"/></svg>