<svg width="109" height="109" fill="none" xmlns="http://www.w3.org/2000/svg"><path d="M0 20.948L18.564 0l37.98 8.175 5.11 15.498-3.748 26.91-15.094-7.728.788 21.523v18.734l-33.21.341L0 20.948z" fill="url(#paint0_linear)"/><path d="M34.403 63.867l2.044-25.717L67.273 6.472l27.591 5.11L109 46.835 94.183 61.483l-24.014-3.917L55.01 73.234l-20.608-9.367z" fill="url(#paint1_linear)"/><path d="M67.273 6.472l-44.28 39.342 8.515 50.413L68.295 109 109 84.645 67.273 6.472z" fill="url(#paint2_linear)"/><path d="M88.563 20.438H20.436v68.124h68.126V20.439z" fill="#000"/><path d="M26.91 75.789h25.546v4.258H26.91v-4.258zm-.341-46.495h11.58c6.813 0 10.9 3.917 10.9 9.707 0 6.472-5.108 9.879-11.41 9.879H32.87v8.515H26.57V29.294zm11.24 14.476c2.98 0 4.94-2.044 4.94-4.428 0-2.725-1.874-4.258-5.11-4.258H32.87v8.686h4.94zm12.774 9.708l3.747-4.428c2.554 2.044 5.28 3.406 8.515 3.406 2.555 0 4.088-1.022 4.088-2.725 0-1.533-1.022-2.384-5.791-3.576-5.79-1.533-9.367-3.066-9.367-8.686v-.17c0-5.11 4.087-8.516 9.878-8.516a17.1 17.1 0 0 1 10.56 3.576l-3.237 4.769c-2.554-1.703-4.939-2.725-7.323-2.725-2.384 0-3.577 1.022-3.577 2.555 0 1.873 1.193 2.554 6.132 3.747 5.79 1.532 9.026 3.576 9.026 8.515 0 5.62-4.258 8.857-10.389 8.857a17.974 17.974 0 0 1-12.262-4.599z" fill="#fff"/><defs><linearGradient id="paint0_linear" x1="-6.633" y1="113.998" x2="61.441" y2="33.036" gradientUnits="userSpaceOnUse"><stop stop-color="#765AF8"/><stop offset=".02" stop-color="#765AF8"/><stop offset=".38" stop-color="#B345F1"/><stop offset=".76" stop-color="#FA3293"/><stop offset=".94" stop-color="#FF318C"/><stop offset="1" stop-color="#FF318C"/></linearGradient><linearGradient id="paint1_linear" x1="79.178" y1="72.25" x2="57.971" y2="9.406" gradientUnits="userSpaceOnUse"><stop stop-color="#765AF8"/><stop offset=".18" stop-color="#765AF8"/><stop offset=".24" stop-color="#8655F6"/><stop offset=".34" stop-color="#9F4CF3"/><stop offset=".44" stop-color="#AE47F2"/><stop offset=".52" stop-color="#B345F1"/><stop offset="1" stop-color="#B345F1"/></linearGradient><linearGradient id="paint2_linear" x1="98.487" y1="89.308" x2="32.647" y2="53.48" gradientUnits="userSpaceOnUse"><stop stop-color="#765AF8"/><stop offset=".02" stop-color="#765AF8"/><stop offset=".38" stop-color="#B345F1"/><stop offset="1" stop-color="#B345F1"/></linearGradient></defs></svg>