<svg width="11" height="14" fill="none" xmlns="http://www.w3.org/2000/svg"><path d="M1.862 13.5v-2.178H.35v-1.26h1.512V8.91H.35V7.47h1.512V.72H6.29c.816 0 1.512.204 2.088.612a3.855 3.855 0 0 1 1.314 1.53c.312.624.468 1.272.468 1.944a4.79 4.79 0 0 1-.432 1.998 3.768 3.768 0 0 1-1.278 1.53c-.552.384-1.236.576-2.052.576H3.482v1.152h2.826v1.26H3.482V13.5h-1.62zm1.62-6.03h2.826c.564 0 1.008-.12 1.332-.36.324-.24.552-.564.684-.972.132-.408.198-.852.198-1.332 0-.756-.186-1.386-.558-1.89-.372-.504-.966-.756-1.782-.756h-2.7v5.31z" fill="#000"/></svg>