<svg width="109" height="109" fill="none" xmlns="http://www.w3.org/2000/svg"><path d="M3.115 38.964s-2.58-1.894.516-4.423l7.214-6.569s2.064-2.211 4.247-.284l66.57 51.325v24.611s-.032 3.865-4.902 3.438L3.115 38.964z" fill="#2489CA"/><path d="M20.274 54.828L3.115 70.714s-1.763 1.336 0 3.723l7.967 7.379s1.892 2.069 4.687-.285L33.96 67.484 20.274 54.828z" fill="#1070B3"/><path d="M50.398 54.96l31.469-24.47-.204-24.48S80.319.668 75.835 3.45L33.96 42.259l16.438 12.7z" fill="#0877B9"/><path d="M76.76 107.095c1.828 1.905 4.042 1.281 4.042 1.281l24.524-12.306c3.139-2.179 2.698-4.883 2.698-4.883V17.703c0-3.23-3.247-4.346-3.247-4.346L83.522 2.923c-4.644-2.923-7.687.525-7.687.525S79.75.58 81.663 6.01v97.165c0 .668-.14 1.325-.42 1.916-.559 1.15-1.774 2.223-4.687 1.774l.204.23z" fill="#3C99D4"/></svg>