<svg width="128" height="128" fill="none" xmlns="http://www.w3.org/2000/svg"><path d="M9.04 64c0 21.8 12.52 40.58 30.8 49.392L13.912 41.74C10.9 48.696 9.04 56.12 9.04 64zm92.06-2.784c0-6.72-2.552-11.6-4.64-15.072-2.784-4.64-5.332-8.348-5.332-12.984 0-5.1 3.944-9.74 9.28-9.74h.696C91.36 14.376 78.376 9.04 64 9.04a55.8 55.8 0 0 0-45.912 24.812h3.48c5.8 0 14.608-.696 14.608-.696 3.016-.232 3.248 4.172.464 4.64 0 0-3.016.464-6.26.464l19.944 59.36L62.38 61.676l-8.58-23.42L48 37.8c-3.016-.232-2.552-4.64.232-4.64 0 0 9.04.696 14.376.696 5.8 0 14.608-.696 14.608-.696 3.016-.232 3.248 4.172.464 4.64 0 0-3.016.464-6.26.464L91.36 97.4l5.6-18.32c2.32-7.652 4.172-12.984 4.172-17.856l-.032-.008zm-36.172 7.652L48.464 116.64c4.868 1.392 10.2 2.32 15.536 2.32 6.492 0 12.52-1.2 18.32-3.016-.232-.232-.232-.464-.464-.696l-16.928-46.38zM112.232 37.8l.464 5.6c0 5.6-.928 11.828-4.172 19.712l-16.696 48.464c16.232-9.508 27.36-27.132 27.36-47.536-.232-9.508-2.784-18.32-6.96-26.2l.004-.04zM64 0C28.752 0 0 28.752 0 64c0 35.248 28.752 64 64 64 35.248 0 64-28.752 64-64 0-35.248-28.752-64-64-64zm0 125.216c-33.624 0-60.984-27.36-60.984-61.216A61.08 61.08 0 0 1 64 3.016 61.08 61.08 0 0 1 124.984 64c0 33.856-27.36 61.216-60.984 61.216z" fill="#00749A"/></svg>