<svg width="140" height="490" fill="none" xmlns="http://www.w3.org/2000/svg"><path d="M0 350h140v140H0V350z" fill="#FC8B4C"/><path d="M0 420c0-38.66 31.34-70 70-70v140c-38.66 0-70-31.34-70-70z" fill="#FFCC1A"/><path fill="#FDE9D4" d="M35 420.355L70.355 385l35.356 35.355-35.356 35.355z"/><circle cx="70" cy="420" r="7" fill="#000"/><path fill="#FDE9D4" d="M0 210h140v140H0z"/><path d="M70 305l-30-50h60l-30 50z" fill="#FE7167"/><path fill="#000" d="M57 210h26v45H57z"/><circle cx="70" cy="330" r="10" fill="#000"/><circle cx="100" cy="330" r="10" fill="#000"/><circle cx="40" cy="330" r="10" fill="#000"/><path d="M140 70v140H0v-40C0 114.772 44.772 70 100 70h40z" fill="#FE7167"/><circle cx="96" cy="160" r="20" transform="rotate(90 96 160)" fill="#000"/><circle cx="76" cy="160" r="20" transform="rotate(90 76 160)" fill="#FDE9D4"/><circle cx="35" cy="35" r="30" fill="#FDE9D4" stroke="#000" stroke-width="10"/><circle cx="105" cy="35" r="35" fill="#236967"/></svg>