<svg width="140" height="490" viewBox="0 0 140 490" fill="none" xmlns="http://www.w3.org/2000/svg">
<rect y="140" width="140" height="140" fill="#236967"/>
<circle cx="70.5" cy="194.5" r="30.5" fill="#FFCC1A"/>
<circle cx="70.5" cy="225.5" r="30.5" fill="#FDE9D4"/>
<path d="M41.3936 194.5C54.6769 189.203 65.203 178.677 70.5 165.394C75.797 178.677 86.3231 189.203 99.6064 194.5C86.3231 199.797 75.797 210.323 70.5 223.607C65.203 210.323 54.6769 199.797 41.3936 194.5Z" stroke="#FDE9D4"/>
<path d="M41.3936 225.5C54.6769 220.203 65.203 209.677 70.5 196.394C75.797 209.677 86.3231 220.203 99.6064 225.5C86.3231 230.797 75.797 241.323 70.5 254.607C65.203 241.323 54.6769 230.797 41.3936 225.5Z" stroke="#FDD503"/>
<g clip-path="url(#clip0)">
<rect y="0.000244141" width="140" height="140" fill="#FFCC1A"/>
<path d="M0 140C0 121.435 7.37498 103.63 20.5025 90.5025C33.6301 77.375 51.4348 70 70 70C88.5651 70 106.37 77.375 119.497 90.5025C132.625 103.63 140 121.435 140 140H127.108C127.108 124.854 121.092 110.328 110.382 99.6182C99.6719 88.9083 85.1461 82.8916 70 82.8916C54.8539 82.8916 40.3281 88.9083 29.6182 99.6182C18.9083 110.328 12.8916 124.854 12.8916 140H0Z" fill="#FDE9D4"/>
<circle cx="19.9598" cy="144" r="19.9598" fill="#FDE9D4"/>
<circle cx="53.6952" cy="144" r="19.9598" fill="#FDE9D4"/>
<circle cx="87.4296" cy="144" r="19.9598" fill="#FDE9D4"/>
<circle cx="120.041" cy="144" r="19.9598" fill="#FDE9D4"/>
<circle cx="70" cy="34" r="20" fill="#FC8B4C"/>
</g>
<mask id="path-13-inside-1" fill="white">
<path d="M140 420C140 438.565 132.625 456.37 119.497 469.497C106.37 482.625 88.5652 490 70 490C51.4349 490 33.6301 482.625 20.5025 469.497C7.37498 456.37 2.80326e-06 438.565 0 420L70 420H140Z"/>
</mask>
<path d="M140 420C140 438.565 132.625 456.37 119.497 469.497C106.37 482.625 88.5652 490 70 490C51.4349 490 33.6301 482.625 20.5025 469.497C7.37498 456.37 2.80326e-06 438.565 0 420L70 420H140Z" fill="#FDE9D4" stroke="#236967" stroke-width="20" mask="url(#path-13-inside-1)"/>
<rect y="280" width="140" height="140" fill="#FE7167"/>
<rect x="65.833" y="325" width="8.33333" height="50" fill="#FDE9D4"/>
<rect x="49.376" y="335.269" width="8.33333" height="50" transform="rotate(-45 49.376 335.269)" fill="#FDE9D4"/>
<rect width="8.33333" height="50" transform="matrix(-0.707107 -0.707107 -0.707107 0.707107 90.624 335.269)" fill="#FDE9D4"/>
<rect x="45" y="354.167" width="8.33333" height="50" transform="rotate(-90 45 354.167)" fill="#FDE9D4"/>
<circle r="5" transform="matrix(-1 0 0 1 70 400)" fill="#FDE9D4"/>
<circle r="5" transform="matrix(-1 0 0 1 120 350)" fill="#FDE9D4"/>
<circle r="5" transform="matrix(-1 0 0 1 20 350)" fill="#FDE9D4"/>
<circle r="5" transform="matrix(-1 0 0 1 70 300)" fill="#FDE9D4"/>
<defs>
<clipPath id="clip0">
<rect width="140" height="140" fill="white"/>
</clipPath>
</defs>
</svg>
