<svg width="353" height="300" fill="none" xmlns="http://www.w3.org/2000/svg"><path d="M48 52A45.001 45.001 0 0 1 93 7v45H48z" fill="#236967"/><path d="M58 57a40 40 0 0 1 40-40v40H58z" fill="#FDD503"/><path d="M300 260a40.001 40.001 0 0 1-40 40v-40h40z" fill="#236967"/><circle cx="276.5" cy="255.5" r="12.5" fill="#FC8B4C"/><circle cx="333" cy="117" r="17.5" stroke="#038192" stroke-width="5"/><circle cx="27" cy="275" r="7" fill="#038192"/><circle cx="4" cy="239" r="4" fill="#FE7167"/><circle cx="212" cy="17" r="5" fill="#FC8B4C"/><circle cx="198" cy="2" r="2" fill="#038192"/><circle cx="313" cy="193" r="5" fill="#FDD503"/><circle cx="37" cy="33" r="3" fill="#FDD503"/><path d="M353 97a40.002 40.002 0 0 0-47.804-39.231 39.998 39.998 0 0 0-29.151 54.538A39.996 39.996 0 0 0 313 137V97h40z" fill="#FE7167"/></svg>