<svg width="394" height="302" fill="none" xmlns="http://www.w3.org/2000/svg"><path d="M193.013 281.233a70.408 70.408 0 0 0 22.852 15.37A70.035 70.035 0 0 0 242.82 302a70.04 70.04 0 0 0 26.955-5.397 70.404 70.404 0 0 0 22.851-15.37 70.833 70.833 0 0 0 7.659-9.134L283.454 272a57.457 57.457 0 0 1-18.643 12.539 57.14 57.14 0 0 1-21.991 4.403 57.135 57.135 0 0 1-21.991-4.403A57.446 57.446 0 0 1 202.186 272h-16.901a70.756 70.756 0 0 0 7.728 9.233z" fill="#236967"/><path d="M80.076 21.824a68.907 68.907 0 0 1 22.365-15.042A68.535 68.535 0 0 1 128.819 1.5a68.542 68.542 0 0 1 26.378 5.282 68.908 68.908 0 0 1 22.364 15.042 69.208 69.208 0 0 1 5.769 6.594l-13.262.078a58.936 58.936 0 0 0-18.681-12.42 58.642 58.642 0 0 0-22.568-4.518 58.643 58.643 0 0 0-22.569 4.518A58.94 58.94 0 0 0 87.565 28.5H74.244a69.267 69.267 0 0 1 5.832-6.676z" stroke="#FFECA0" stroke-width="3"/><rect x="343.998" y="183" width="50" height="50" rx="25" fill="#FE7167"/><rect x="343.998" y="130" width="50" height="50" rx="25" fill="#FE7167"/><rect x="343.998" y="77" width="50" height="50" rx="25" fill="#FE7167"/><rect x="-1.923" y=".897" width="197" height="7" rx="3.5" transform="scale(-1 1) rotate(-20 563.91 648.92)" stroke="#000" stroke-width="3"/><rect x="-1.923" y=".897" width="197" height="7" rx="3.5" transform="scale(-1 1) rotate(-20 625.73 659.821)" stroke="#000" stroke-width="3"/><rect x="-1.923" y=".897" width="197" height="7" rx="3.5" transform="scale(-1 1) rotate(-20 502.093 638.02)" stroke="#000" stroke-width="3"/><rect x="-1.923" y=".897" width="197" height="7" rx="3.5" transform="scale(-1 1) rotate(-20 378.453 616.22)" stroke="#000" stroke-width="3"/><rect x="-1.923" y=".897" width="197" height="7" rx="3.5" transform="scale(-1 1) rotate(-20 440.273 627.12)" stroke="#000" stroke-width="3"/><rect x="-1.923" y=".897" width="197" height="7" rx="3.5" transform="scale(-1 1) rotate(-20 316.633 605.32)" stroke="#000" stroke-width="3"/></svg>