<svg width="580" height="420" fill="none" xmlns="http://www.w3.org/2000/svg"><g clip-path="url(#clip0)"><path fill="#FDE9D4" d="M300 140h140v140H300z"/><path d="M436 240c0-55.228-44.772-100-100-100h-40v140h140v-40z" fill="#FE7167"/><path d="M366 210c0-38.66-31.34-70-70-70v140c38.66 0 70-31.34 70-70z" fill="#000"/><path fill="#fff" d="M391 210l-35.355-35.355L320.289 210l35.356 35.355z"/><circle r="7" transform="matrix(-1 0 0 1 336 210)" fill="#000"/></g><path d="M160 100C160 44.772 204.772 0 260 0h40v140H160v-40z" fill="#FE7167"/><path d="M183 100c0-42.526 34.474-77 77-77h17v94h-94v-17z" fill="#FDE9D4" stroke="#000" stroke-width="6"/><path fill="#000" d="M300 280h140v140H300z"/><path fill="#fff" d="M300.91 291.517l10.607-10.607 42.426 42.427-10.607 10.606z"/><path fill="#fff" d="M311.518 333.943l-10.607-10.607 42.427-42.426 10.606 10.607z"/><path d="M370 358l33 62h-66l33-62z" fill="#FE7167"/><path d="M371 346a33.852 33.852 0 0 0 20 20 33.852 33.852 0 0 0-20 20 33.852 33.852 0 0 0-20-20 33.852 33.852 0 0 0 20-20zM300 0h140v140H300z" fill="#FDE9D4"/><circle cx="390" cy="90" r="50" transform="rotate(-45 390 90)" fill="#FFCC1A"/><path d="M354.645 54.645a50 50 0 1 0 70.71 70.71L390 90l-35.355-35.355z" fill="#000"/><path d="M386 140l54-57v57h-54z" fill="#236967"/><g clip-path="url(#clip1)"><path fill="#FDE9D4" d="M160 280V140h140v140z"/><circle cx="303.999" cy="260.04" r="19.96" transform="rotate(-90 303.999 260.04)" fill="#FFCC1A"/><circle cx="303.999" cy="226.305" r="19.96" transform="rotate(-90 303.999 226.305)" fill="#FFCC1A"/><circle cx="303.999" cy="192.571" r="19.96" transform="rotate(-90 303.999 192.571)" fill="#FFCC1A"/><circle cx="303.999" cy="159.959" r="19.96" transform="rotate(-90 303.999 159.959)" fill="#FFCC1A"/><path d="M300 280a69.997 69.997 0 0 1-49.497-20.503 69.997 69.997 0 0 1 0-98.994A69.997 69.997 0 0 1 300 140v12.892a57.108 57.108 0 1 0 0 114.216V280z" fill="#FFCC1A"/><circle cx="194" cy="210" r="20" transform="rotate(-90 194 210)" fill="#FC8B4C"/></g><path fill="#236967" d="M440 280h140v140H440z"/><circle cx="510.5" cy="334.5" r="30.5" fill="#FFCC1A"/><circle cx="510.5" cy="365.5" r="30.5" fill="#fff"/><path d="M481.394 334.5a52.124 52.124 0 0 0 29.106-29.106 52.124 52.124 0 0 0 29.106 29.106 52.124 52.124 0 0 0-29.106 29.106 52.124 52.124 0 0 0-29.106-29.106z" stroke="#fff"/><path d="M481.394 365.5a52.124 52.124 0 0 0 29.106-29.106 52.124 52.124 0 0 0 29.106 29.106 52.124 52.124 0 0 0-29.106 29.106 52.124 52.124 0 0 0-29.106-29.106z" stroke="#FDD503"/><path d="M440 140a50.776 50.776 0 0 0 30 30 50.776 50.776 0 0 0-30 30 50.776 50.776 0 0 0-30-30 50.776 50.776 0 0 0 30-30z" fill="#FFCC1A"/><g clip-path="url(#clip2)"><path fill="#FFCC1A" d="M440 140h140v140H440z"/><circle cx="459.96" cy="279.96" r="19.96" fill="#FDE9D4"/><circle cx="493.694" cy="279.96" r="19.96" fill="#FDE9D4"/><circle cx="527.429" cy="279.96" r="19.96" fill="#FDE9D4"/><circle cx="560.04" cy="279.96" r="19.96" fill="#FDE9D4"/><path d="M440 280a69.997 69.997 0 0 1 20.503-49.497 69.997 69.997 0 0 1 98.994 0A69.997 69.997 0 0 1 580 280h-12.892a57.108 57.108 0 1 0-114.216 0H440z" fill="#FDE9D4"/><circle cx="510" cy="174" r="20" fill="#FC8B4C"/></g><path fill="#FC8B4C" d="M440 0h140v140H440z"/><path fill="#fff" d="M505.834 45h8.333v50h-8.333z"/><path fill="#fff" d="M489.375 55.269l5.893-5.892 35.355 35.355-5.892 5.892z"/><path fill="#fff" d="M530.625 55.269l-5.892-5.893-35.356 35.356 5.893 5.892z"/><path fill="#fff" d="M485 74.167v-8.333h50v8.333z"/><circle r="5" transform="matrix(-1 0 0 1 510 120)" fill="#fff"/><circle r="5" transform="matrix(-1 0 0 1 560 70)" fill="#fff"/><circle r="5" transform="matrix(-1 0 0 1 460 70)" fill="#fff"/><circle r="5" transform="matrix(-1 0 0 1 510 20)" fill="#fff"/><path d="M508 140l-68-57v57h68z" fill="#236967"/><defs><clipPath id="clip0"><path fill="#fff" transform="translate(300 140)" d="M0 0h140v140H0z"/></clipPath><clipPath id="clip1"><path fill="#fff" transform="rotate(-90 220 60)" d="M0 0h140v140H0z"/></clipPath><clipPath id="clip2"><path fill="#fff" transform="translate(440 140)" d="M0 0h140v140H0z"/></clipPath></defs></svg>