<svg width="467" height="420" fill="none" xmlns="http://www.w3.org/2000/svg"><path fill="#FFCC1A" d="M187 0h140v140H187z"/><path fill="#FDE9D4" d="M192.91 16.516L203.516 5.91l42.427 42.426-10.607 10.607z"/><path fill="#FDE9D4" d="M203.517 58.943L192.91 48.336 235.337 5.91l10.606 10.606zM192.91 91.369l10.607-10.607 42.426 42.427-10.607 10.606z"/><path fill="#FDE9D4" d="M203.517 133.796l-10.607-10.607 42.427-42.426 10.606 10.607zM267.763 16.516L278.369 5.91l42.427 42.426-10.607 10.607z"/><path fill="#FDE9D4" d="M278.37 58.943l-10.608-10.607L310.19 5.91l10.606 10.606zM267.763 91.369l10.607-10.607 42.426 42.427-10.607 10.606z"/><path fill="#FDE9D4" d="M278.369 133.796l-10.607-10.607 42.427-42.426 10.606 10.607z"/><path fill="#236967" d="M327 280h140v140H327z"/><path d="M467 280a69.997 69.997 0 0 1-20.503 49.497 69.997 69.997 0 0 1-98.994 0A69.997 69.997 0 0 1 327 280h140z" fill="#FFCC1A"/><path stroke="#FDE9D4" d="M394.333 362.5h7.333v49h-7.333z"/><path stroke="#FDE9D4" d="M378.083 372.269l5.185-5.185 34.648 34.648-5.185 5.185z"/><path stroke="#FDE9D4" d="M417.917 372.269l-5.185-5.185-34.649 34.648 5.186 5.185z"/><path stroke="#FDE9D4" d="M373.5 390.667v-7.333h49v7.333z"/><path d="M467 140v140H327V140h140z" fill="#FDE9D4"/><path d="M397 140c38.66 0 70 31.34 70 70H327c0-38.66 31.34-70 70-70z" fill="#FE7167"/><path fill="#FFCC1A" d="M396.645 175L432 210.355l-35.355 35.356-35.355-35.356z"/><circle cx="397" cy="210" r="7" transform="rotate(90 397 210)" fill="#000"/><path d="M327 0v140h140v-40C467 44.772 422.228 0 367 0h-40z" fill="#FC8B4C"/><circle r="20" transform="matrix(0 1 1 0 371 90)" fill="#000"/><circle r="20" transform="matrix(0 1 1 0 391 90)" fill="#FDE9D4"/><circle cx="77.11" cy="396.11" r="4" transform="rotate(-109.592 77.11 396.11)" fill="#FE7167"/><circle cx="304.998" cy="164.999" r="7.827" transform="rotate(-109.592 304.998 164.999)" fill="#FE7167"/><circle cx="119.762" cy="402.11" r="10" transform="rotate(-109.592 119.762 402.11)" fill="#FFCC1A"/><path fill-rule="evenodd" clip-rule="evenodd" d="M50 360a50.777 50.777 0 0 1-30 30 50.777 50.777 0 0 1 30 30 50.777 50.777 0 0 1 30-30 50.777 50.777 0 0 1-30-30zm0-60a50.777 50.777 0 0 1-30 30 50.777 50.777 0 0 1 30 30 50.777 50.777 0 0 1 30-30 50.777 50.777 0 0 1-30-30z" fill="#236967"/><path d="M300 420a60.008 60.008 0 0 0-17.574-42.426A59.993 59.993 0 0 0 240 360v60h60z" fill="#FC8B4C"/><circle r="17.96" transform="matrix(0 1 1 0 267.96 174.96)" stroke="#038192" stroke-width="4"/><circle cx="152" cy="35" r="35" fill="#FDE9D4"/><circle cx="152" cy="105" r="35" fill="#038192"/><path d="M64.239 281.463a70.001 70.001 0 0 1 59.917-126.53l-6.504 13.734a54.806 54.806 0 0 0-72.985 26.076 54.803 54.803 0 0 0 26.076 72.985l-6.504 13.735z" fill="#FE7167"/></svg>