<svg width="300" height="150" fill="none" xmlns="http://www.w3.org/2000/svg"><g clip-path="url(#clip0)"><path d="M150 150h150V0H150v150z" fill="#FDE9D4"/><mask id="a" fill="#fff"><path d="M300 160.714a75.003 75.003 0 0 0-75-75 75.001 75.001 0 0 0-75 75h37.297a37.703 37.703 0 0 1 75.406 0H300z"/></mask><path d="M300 160.714a75.003 75.003 0 0 0-75-75 75.001 75.001 0 0 0-75 75h37.297a37.703 37.703 0 0 1 75.406 0H300z" stroke="#FFCC1A" stroke-width="20" mask="url(#a)"/><mask id="b" maskUnits="userSpaceOnUse" x="199.429" y="19.643" width="52" height="52" fill="#000"><path fill="#fff" d="M199.429 19.643h52v52h-52z"/><path fill-rule="evenodd" clip-rule="evenodd" d="M228.929 69.643h-7.857V55.556l-9.961 9.96-5.556-5.555 9.96-9.96h-14.086v-7.858h14.087l-9.961-9.961 5.555-5.556 9.962 9.961V22.5h7.857v14.087l9.961-9.961 5.556 5.556-9.962 9.961h14.088V50h-14.087l9.96 9.961-5.555 5.556-9.961-9.961v14.087z"/></mask><path fill-rule="evenodd" clip-rule="evenodd" d="M228.929 69.643h-7.857V55.556l-9.961 9.96-5.556-5.555 9.96-9.96h-14.086v-7.858h14.087l-9.961-9.961 5.555-5.556 9.962 9.961V22.5h7.857v14.087l9.961-9.961 5.556 5.556-9.962 9.961h14.088V50h-14.087l9.96 9.961-5.555 5.556-9.961-9.961v14.087z" fill="#FC8B4C"/><path d="M221.072 69.643v2a2 2 0 0 1-2-2h2zm7.857 0h2a2 2 0 0 1-2 2v-2zm-7.857-14.087l-1.415-1.414a2 2 0 0 1 3.415 1.414h-2zm-9.961 9.96l1.414 1.415a2 2 0 0 1-2.828 0l1.414-1.414zm-5.556-5.555l-1.414 1.414a2 2 0 0 1 0-2.828l1.414 1.414zm9.96-9.96v-2a2 2 0 0 1 1.415 3.414L215.515 50zm-14.086 0v2a2 2 0 0 1-2-2h2zm0-7.858h-2a2 2 0 0 1 2-2v2zm14.087 0l1.414-1.414a2.001 2.001 0 0 1-1.414 3.414v-2zm-9.961-9.961l-1.415 1.414a2 2 0 0 1 0-2.828l1.415 1.414zm5.555-5.556l-1.414-1.414a2 2 0 0 1 2.829 0l-1.415 1.414zm9.962 9.961h2a2.001 2.001 0 0 1-3.415 1.414l1.415-1.414zm0-14.087h-2a2 2 0 0 1 2-2v2zm7.857 0v-2a2 2 0 0 1 2 2h-2zm0 14.087l1.414 1.414a2 2 0 0 1-3.414-1.414h2zm9.961-9.961l-1.414-1.414a1.998 1.998 0 0 1 2.828 0l-1.414 1.414zm5.556 5.556l1.414-1.415a2 2 0 0 1 0 2.829l-1.414-1.414zm-9.962 9.961v2a2 2 0 0 1-1.414-3.414l1.414 1.414zm14.088 0v-2a2 2 0 0 1 2 2h-2zm0 7.857h2a2 2 0 0 1-2 2v-2zm-14.087 0l-1.414 1.415A2.001 2.001 0 0 1 234.485 48v2zm9.96 9.961l1.415-1.414a2 2 0 0 1 0 2.828l-1.415-1.414zm-5.555 5.556l1.414 1.414a2 2 0 0 1-2.829 0l1.415-1.414zm-9.961-9.961h-2a2 2 0 0 1 3.414-1.414l-1.414 1.414zm-7.857 12.087h7.857v4h-7.857v-4zm2-12.087v14.087h-4V55.556h4zm-13.375 8.547l9.96-9.961 2.829 2.828-9.961 9.961-2.828-2.828zm-2.728-5.556l5.556 5.556-2.828 2.828-5.556-5.556 2.828-2.828zm9.961-7.132l-9.961 9.96-2.828-2.828 9.96-9.96 2.829 2.828zM201.429 48h14.086v4h-14.086v-4zm2-5.857V50h-4v-7.857h4zm12.087 2h-14.087v-4h14.087v4zm-8.547-13.376l9.961 9.962-2.828 2.828-9.962-9.961 2.829-2.828zm5.556-2.727l-5.556 5.556-2.829-2.828 5.556-5.556 2.829 2.828zm7.132 9.961l-9.961-9.96 2.829-2.83 9.961 9.962L219.657 38zm3.415-15.5v14.086h-4V22.5h4zm5.857 2h-7.857v-4h7.857v4zm-2 12.086V22.5h4v14.087h-4zm13.375-8.547l-9.961 9.961-2.829-2.828 9.962-9.961 2.828 2.828zm2.728 5.556l-5.556-5.556 2.828-2.828 5.556 5.555-2.828 2.829zm-9.962 7.133l9.962-9.962 2.828 2.829-9.962 9.962-2.828-2.829zm15.502 3.414h-14.088v-4h14.088v4zm-2 5.857v-7.857h4V50h-4zm-12.087-2h14.087v4h-14.087v-4zm8.546 13.375l-9.96-9.96 2.828-2.829 9.961 9.96-2.829 2.83zm-5.556 2.728l5.556-5.556 2.829 2.828-5.556 5.556-2.829-2.828zm-7.132-9.961l9.961 9.96-2.829 2.829-9.961-9.96 2.829-2.83zm-3.414 15.501V55.556h4v14.087h-4z" fill="#236967" mask="url(#b)"/></g><path fill="#FFCC1A" d="M0 0h150v150H0z"/><circle cx="75.761" cy="76.071" r="53.571" transform="rotate(-45 75.761 76.071)" fill="#236967"/><mask id="c" fill="#fff"><path d="M37.881 38.19a53.571 53.571 0 0 0 75.761 75.762l-37.88-37.88L37.88 38.19z"/></mask><path d="M37.881 38.19a53.571 53.571 0 0 0 75.761 75.762l-37.88-37.88L37.88 38.19z" fill="#FE7167" stroke="#000" stroke-width="20" mask="url(#c)"/><defs><clipPath id="clip0"><path fill="#fff" transform="matrix(1 0 0 -1 150 150)" d="M0 0h150v150H0z"/></clipPath></defs></svg>