<svg width="300" height="150" fill="none" xmlns="http://www.w3.org/2000/svg"><g clip-path="url(#clip0)"><path d="M0 150h150V0H0v150z" fill="#236967"/><mask id="a" fill="#fff"><path d="M150 160.714a75.003 75.003 0 0 0-75-75 75.001 75.001 0 0 0-75 75h37.297a37.705 37.705 0 0 1 64.363-26.66 37.703 37.703 0 0 1 11.043 26.66H150z"/></mask><path d="M150 160.714a75.003 75.003 0 0 0-75-75 75.001 75.001 0 0 0-75 75h37.297a37.705 37.705 0 0 1 64.363-26.66 37.703 37.703 0 0 1 11.043 26.66H150z" stroke="#FDE9D4" stroke-width="20" mask="url(#a)"/><path stroke="#FDE9D4" stroke-width="4.464" d="M73.84 59.91h4.463V10.804H73.84z"/><path stroke="#FDE9D4" stroke-width="4.464" d="M57.132 51.14l3.156 3.157 34.724-34.724-3.157-3.156z"/><path stroke="#FDE9D4" stroke-width="4.464" d="M95.012 51.14l-3.156 3.157-34.724-34.724 3.156-3.157z"/><path stroke="#FDE9D4" stroke-width="4.464" d="M51.518 33.125v4.464h49.107v-4.464z"/></g><path fill="#FDD503" d="M150 0h150v150H150z"/><path fill="#fff" d="M156.333 17.696l11.364-11.364 45.457 45.457-11.364 11.364z"/><path fill="#fff" d="M167.696 63.153L156.332 51.79l45.457-45.457 11.364 11.364zM156.333 97.895l11.364-11.364 45.457 45.457-11.364 11.364z"/><path fill="#fff" d="M167.696 143.352l-11.364-11.364 45.457-45.457 11.364 11.364zM236.532 17.696l11.364-11.364 45.457 45.457-11.364 11.364z"/><path fill="#fff" d="M247.896 63.153L236.532 51.79l45.457-45.457 11.364 11.364zM236.532 97.895l11.364-11.364 45.457 45.457-11.364 11.364z"/><path fill="#fff" d="M247.896 143.352l-11.364-11.364 45.457-45.457 11.364 11.364z"/><defs><clipPath id="clip0"><path fill="#fff" transform="matrix(1 0 0 -1 0 150)" d="M0 0h150v150H0z"/></clipPath></defs></svg>