<svg width="467" height="420" viewBox="0 0 467 420" fill="none" xmlns="http://www.w3.org/2000/svg">
<rect x="187" y="0.000244141" width="140" height="140" fill="#FFCC1A"/>
<rect x="192.91" y="16.5164" width="15" height="60" transform="rotate(-45 192.91 16.5164)" fill="#FDE9D4"/>
<rect x="203.517" y="58.9429" width="15" height="60" transform="rotate(-135 203.517 58.9429)" fill="#FDE9D4"/>
<rect x="192.91" y="91.3691" width="15" height="60" transform="rotate(-45 192.91 91.3691)" fill="#FDE9D4"/>
<rect x="203.517" y="133.796" width="15" height="60" transform="rotate(-135 203.517 133.796)" fill="#FDE9D4"/>
<rect x="267.763" y="16.5164" width="15" height="60" transform="rotate(-45 267.763 16.5164)" fill="#FDE9D4"/>
<rect x="278.369" y="58.9429" width="15" height="60" transform="rotate(-135 278.369 58.9429)" fill="#FDE9D4"/>
<rect x="267.763" y="91.3691" width="15" height="60" transform="rotate(-45 267.763 91.3691)" fill="#FDE9D4"/>
<rect x="278.369" y="133.796" width="15" height="60" transform="rotate(-135 278.369 133.796)" fill="#FDE9D4"/>
<rect x="327" y="280" width="140" height="140" fill="#236967"/>
<path d="M467 280C467 298.565 459.625 316.37 446.497 329.497C433.37 342.625 415.565 350 397 350C378.435 350 360.63 342.625 347.503 329.497C334.375 316.37 327 298.565 327 280L397 280H467Z" fill="#FFCC1A"/>
<rect x="394.333" y="362.5" width="7.33333" height="49" stroke="#FDE9D4"/>
<rect x="378.083" y="372.269" width="7.33333" height="49" transform="rotate(-45 378.083 372.269)" stroke="#FDE9D4"/>
<rect x="-0.707107" width="7.33333" height="49" transform="matrix(-0.707107 -0.707107 -0.707107 0.707107 417.417 371.769)" stroke="#FDE9D4"/>
<rect x="373.5" y="390.667" width="7.33333" height="49" transform="rotate(-90 373.5 390.667)" stroke="#FDE9D4"/>
<path d="M467 140V280H327V140H467Z" fill="#FDE9D4"/>
<path d="M397 140C435.66 140 467 171.34 467 210H327C327 171.34 358.34 140 397 140Z" fill="#FE7167"/>
<rect x="396.645" y="175" width="50" height="50" transform="rotate(45 396.645 175)" fill="#FFCC1A"/>
<circle cx="397" cy="210" r="7" transform="rotate(90 397 210)" fill="black"/>
<path d="M327 0V140L467 140V100C467 44.7715 422.228 0 367 0L327 0Z" fill="#FC8B4C"/>
<circle r="20" transform="matrix(0 1 1 0 371 90)" fill="black"/>
<circle r="20" transform="matrix(0 1 1 0 391 90)" fill="#FDE9D4"/>
<circle cx="77.1097" cy="396.11" r="4" transform="rotate(-109.592 77.1097 396.11)" fill="#FE7167"/>
<circle cx="304.998" cy="164.999" r="7.82717" transform="rotate(-109.592 304.998 164.999)" fill="#FE7167"/>
<circle cx="119.762" cy="402.11" r="10" transform="rotate(-109.592 119.762 402.11)" fill="#FFCC1A"/>
<path fill-rule="evenodd" clip-rule="evenodd" d="M50 360C44.857 373.899 33.8987 384.857 20 390C33.8987 395.143 44.857 406.101 50 420C55.143 406.101 66.1013 395.143 80 390C66.1013 384.857 55.143 373.899 50 360ZM50 300C44.857 313.899 33.8987 324.857 20 330C33.8987 335.143 44.857 346.101 50 360C55.143 346.101 66.1013 335.143 80 330C66.1013 324.857 55.143 313.899 50 300Z" fill="#236967"/>
<path d="M300 420C300 412.121 298.448 404.319 295.433 397.039C292.417 389.759 287.998 383.145 282.426 377.574C276.855 372.002 270.241 367.583 262.961 364.567C255.681 361.552 247.879 360 240 360L240 420H300Z" fill="#FC8B4C"/>
<circle r="17.9598" transform="matrix(0 1 1 0 267.96 174.96)" stroke="#038192" stroke-width="4"/>
<circle cx="152" cy="35" r="35" fill="#FDE9D4"/>
<circle cx="152" cy="105" r="35" fill="#038192"/>
<path d="M64.2387 281.463C47.4597 273.517 34.5244 259.232 28.2782 241.749C22.0321 224.266 22.9868 205.018 30.9324 188.239C38.8779 171.46 53.1635 158.525 70.6463 152.279C88.1292 146.032 107.377 146.987 124.156 154.933L117.652 168.667C104.516 162.447 89.4466 161.699 75.7592 166.589C62.0718 171.48 50.8876 181.607 44.667 194.743C38.4464 207.879 37.6989 222.949 42.5891 236.636C47.4792 250.323 57.6063 261.508 70.7426 267.728L64.2387 281.463Z" fill="#FE7167"/>
</svg>
