<svg width="289" height="736" fill="none" xmlns="http://www.w3.org/2000/svg"><path d="M0 298v140h140v-40c0-55.228-44.772-100-100-100H0z" fill="#FC8B4C"/><circle r="20" transform="matrix(0 1 1 0 44 388)" fill="#000"/><circle r="20" transform="matrix(0 1 1 0 64 388)" fill="#FDE9D4"/><path fill="#FDE9D4" d="M0 149h140v140H0z"/><circle cx="70.711" cy="220" r="50" transform="rotate(-45 70.71 220)" fill="#236967"/><mask id="a" fill="#fff"><path d="M35.356 184.645a50 50 0 1 0 70.71 70.71L70.711 220l-35.355-35.355z"/></mask><path d="M35.356 184.645a50 50 0 1 0 70.71 70.71L70.711 220l-35.355-35.355z" fill="#FFCC1A" stroke="#000" stroke-width="20" mask="url(#a)"/><g clip-path="url(#clip0)"><path fill="#FDE9D4" d="M289 447H149v140h140z"/><circle r="19.96" transform="matrix(-1 0 0 1 269.04 591)" fill="#FE7167"/><circle r="19.96" transform="matrix(-1 0 0 1 235.305 591)" fill="#FE7167"/><circle r="19.96" transform="matrix(-1 0 0 1 201.57 591)" fill="#FE7167"/><circle r="19.96" transform="matrix(-1 0 0 1 168.959 591)" fill="#FE7167"/><path d="M289 587a70 70 0 0 0-140 0h12.892a57.108 57.108 0 1 1 114.216 0H289z" fill="#FE7167"/><circle r="20" transform="matrix(-1 0 0 1 219 481)" fill="#FC8B4C"/></g><path fill="#236967" d="M149 298h140v140H149z"/><path d="M219 376l33 62h-66l33-62z" fill="#FC8B4C"/><path d="M219 364a33.852 33.852 0 0 0 20 20 33.852 33.852 0 0 0-20 20 33.852 33.852 0 0 0-20-20 33.852 33.852 0 0 0 20-20z" fill="#FDE9D4"/><path d="M219 298a59.24 59.24 0 0 0 35 35 59.24 59.24 0 0 0-35 35 59.24 59.24 0 0 0-35-35 59.24 59.24 0 0 0 35-35z" fill="#FDE9D4"/><path fill="#236967" d="M0 447h140v140H0z"/><path d="M140 447a69.997 69.997 0 0 1-20.503 49.497 69.996 69.996 0 0 1-98.995 0A69.998 69.998 0 0 1 0 447h140z" fill="#FFCC1A"/><path stroke="#FDE9D4" d="M67.333 529.5h7.333v49h-7.333z"/><path stroke="#FDE9D4" d="M51.083 539.27l5.185-5.186 34.648 34.648-5.185 5.185z"/><path stroke="#FDE9D4" d="M90.917 539.269l-5.185-5.185-34.649 34.648 5.186 5.185z"/><path stroke="#FDE9D4" d="M46.5 557.667v-7.333h49v7.333z"/><path fill="#FFCC1A" d="M149 149h140v140H149z"/><path fill="#FDE9D4" d="M154.91 165.516l10.607-10.607 42.426 42.427-10.607 10.606z"/><path fill="#FDE9D4" d="M165.517 207.943l-10.607-10.607 42.427-42.426 10.606 10.607zM154.91 240.369l10.607-10.607 42.426 42.427-10.607 10.606z"/><path fill="#FDE9D4" d="M165.517 282.796l-10.607-10.607 42.427-42.426 10.606 10.607zM229.763 165.516l10.607-10.607 42.426 42.427-10.607 10.606z"/><path fill="#FDE9D4" d="M240.369 207.943l-10.607-10.607 42.427-42.426 10.606 10.607zM229.763 240.369l10.607-10.607 42.426 42.427-10.607 10.606z"/><path fill="#FDE9D4" d="M240.369 282.796l-10.607-10.607 42.427-42.426 10.606 10.607z"/><path fill="#FE7167" d="M0 140h140V0H0z"/><path d="M70 45L40 95h60L70 45z" fill="#FDE9D4"/><path fill="#000" d="M57 140h26V95H57z"/><circle r="10" transform="matrix(1 0 0 -1 70 20)" fill="#000"/><circle r="10" transform="matrix(1 0 0 -1 100 20)" fill="#000"/><circle r="10" transform="matrix(1 0 0 -1 40 20)" fill="#000"/><path d="M149 0h140v140H149V0z" fill="#FDE9D4"/><path d="M149 70c0-38.66 31.34-70 70-70v140c-38.66 0-70-31.34-70-70z" fill="#236967"/><path fill="#FE7167" d="M184 70.355L219.355 35l35.356 35.355-35.356 35.355z"/><circle cx="219" cy="70" r="7" fill="#000"/><path fill="#FE7167" d="M0 596h140v140H0z"/><path fill="#FDE9D4" d="M65.833 641h8.333v50h-8.333z"/><path fill="#FDE9D4" d="M49.376 651.269l5.892-5.892 35.356 35.355-5.893 5.892z"/><path fill="#FDE9D4" d="M90.624 651.269l-5.892-5.892-35.356 35.355 5.893 5.892z"/><path fill="#FDE9D4" d="M45 670.167v-8.333h50v8.333z"/><circle r="5" transform="matrix(-1 0 0 1 70 716)" fill="#FDE9D4"/><circle r="5" transform="matrix(-1 0 0 1 120 666)" fill="#FDE9D4"/><circle r="5" transform="matrix(-1 0 0 1 20 666)" fill="#FDE9D4"/><circle r="5" transform="matrix(-1 0 0 1 70 616)" fill="#FDE9D4"/><path fill="#FFCC1A" d="M149 596h140v140H149z"/><circle cx="219.5" cy="640.5" r="30.5" fill="#236967"/><circle cx="219.5" cy="671.5" r="30.5" fill="#FDE9D4"/><path d="M219.5 611.394a52.124 52.124 0 0 0 29.106 29.106 52.124 52.124 0 0 0-29.106 29.106 52.124 52.124 0 0 0-29.106-29.106 52.124 52.124 0 0 0 29.106-29.106z" stroke="#FDE9D4"/><path d="M219.5 642.394a52.124 52.124 0 0 0 29.106 29.106 52.124 52.124 0 0 0-29.106 29.106 52.124 52.124 0 0 0-29.106-29.106 52.124 52.124 0 0 0 29.106-29.106z" stroke="#236967"/><defs><clipPath id="clip0"><path fill="#fff" transform="matrix(-1 0 0 1 289 447)" d="M0 0h140v140H0z"/></clipPath></defs></svg>