<svg width="300" height="150" fill="none" xmlns="http://www.w3.org/2000/svg"><path fill="#FE7167" d="M0 0h150v150H0z"/><path fill="#fff" d="M39.321 17h8.929v53.571h-8.929z"/><path fill="#fff" d="M21.689 28.002l6.313-6.314 37.88 37.88-6.313 6.314z"/><path fill="#fff" d="M65.883 28.002l-6.314-6.313-37.88 37.88 6.313 6.314z"/><path fill="#fff" d="M17 48.25v-8.929h53.571v8.929zM39.321 80.571h8.929v53.571h-8.929z"/><path fill="#fff" d="M21.69 91.574l6.313-6.314 37.88 37.88-6.314 6.314z"/><path fill="#fff" d="M65.883 91.574l-6.314-6.314-37.88 37.88 6.313 6.314z"/><path fill="#fff" d="M17 111.821v-8.929h53.571v8.929zM102.893 17h8.929v53.571h-8.929z"/><path fill="#fff" d="M85.26 28.002l6.313-6.314 37.88 37.88-6.313 6.314z"/><path fill="#fff" d="M129.454 28.002l-6.314-6.313-37.88 37.88 6.314 6.314z"/><path fill="#fff" d="M80.571 48.25v-8.929h53.571v8.93zM102.893 80.571h8.929v53.571h-8.929z"/><path fill="#fff" d="M85.26 91.574l6.314-6.314 37.88 37.88-6.313 6.314z"/><path fill="#fff" d="M129.454 91.574l-6.314-6.314-37.88 37.88 6.314 6.314z"/><path fill="#fff" d="M80.571 111.821v-8.929h53.571v8.93z"/><path d="M150 0h150v150H150V0z" fill="#236967"/><path d="M150 70c0-38.66 31.34-70 70-70h5v150h-5c-38.66 0-70-31.34-70-70V70z" fill="#FFCC1A"/><path fill="#FDE9D4" d="M187.5 75.38l37.88-37.88 37.88 37.88-37.88 37.88z"/><circle cx="225" cy="74.999" r="7.5" fill="#000"/></svg>