<svg width="244" height="50" fill="none" xmlns="http://www.w3.org/2000/svg"><path d="M70.004 23.942c-2.708-.638-3.083-1.505-3.083-2.336 0-1.39.865-2.063 2.651-2.063 1.311 0 2.467.301 3.644.946l.283.157.178-.272c.311-.473.496-1.06.496-1.583 0-.688-.362-1.089-1.17-1.311-1.127-.337-2.112-.48-3.41-.48-4.069 0-5.515 2.507-5.515 4.85 0 2.378 1.574 3.947 4.672 4.664 2.814.673 3.388 1.569 3.388 2.708 0 1.848-1.666 2.242-3.062 2.242-1.39 0-2.701-.387-4.112-1.21l-.283-.166-.185.273A2.94 2.94 0 0 0 64 31.95c0 .695.326 1.096 1.12 1.39 1.12.43 2.467.659 3.9.659 3.586 0 5.996-2.02 5.996-5.022-.007-2.65-1.552-4.205-5.012-5.036zM82.97 17h-5.388v16.57h2.779v-5.308h2.609c3.8 0 5.976-2.05 5.976-5.617 0-3.589-2.177-5.645-5.976-5.645zm-2.602 2.436h2.609c2.12 0 3.154 1.046 3.154 3.21 0 2.127-1.063 3.209-3.154 3.209h-2.609v-6.42zM93.959 26.198H99.8v-2.435h-5.841v-4.327h7.316V17H91.18v16.57h10.229v-2.436h-7.45v-4.936zM110.626 17.122l-.107-.122h-2.197l-.107.122c-2.857 3.331-4.884 9.485-5.295 16.061l-.022.38h2.872l.014-.344a39.05 39.05 0 0 1 .34-3.646h6.579c.156 1.103.276 2.3.368 3.646l.022.337h2.842l-.021-.38c-.347-6.39-2.424-12.694-5.288-16.054zm1.651 10.022h-5.706c.631-2.937 1.588-5.437 2.849-7.443 1.291 2.041 2.248 4.542 2.857 7.443zM125.135 24.658c2.482-1.862 4.233-4.47 4.842-7.221l.099-.437h-2.97l-.064.28c-.73 3.151-2.85 5.68-5.706 6.848V17h-2.779v16.57h2.779v-6.877c.503-.172.985-.366 1.432-.58 2.41 1.554 3.92 3.961 4.487 7.163l.05.294h2.977l-.064-.408c-.496-3.396-2.424-6.598-5.083-8.504zM141.137 17l-.029.322c-.333 3.582-1.481 6.362-3.417 8.282-1.992-1.913-3.169-4.7-3.502-8.282l-.028-.322h-2.864l.035.394c.383 4.177 2.177 7.966 4.941 10.41v5.766h2.758v-5.767c2.814-2.493 4.615-6.275 4.941-10.416l.029-.387h-2.864z" fill="#236967"/><path d="M159.949 19.938l.255.195.177-.267.229-.344.153-.23-.217-.171c-1.102-.871-2.751-1.421-4.344-1.421-1.731 0-3.008.46-3.856 1.211-.85.754-1.238 1.775-1.238 2.83 0 1.477.624 2.413 1.558 3.039.906.608 2.1.921 3.23 1.207l.14.035c1.105.279 2.139.54 2.915 1.005.398.238.714.523.932.88.217.355.348.8.348 1.376 0 .833-.314 1.573-.976 2.112-.668.543-1.72.905-3.233.905-1.93 0-3.665-.845-4.505-1.868l-.207-.252-.234.228-.285.277-.193.188.165.212c1.034 1.325 3.122 2.215 5.284 2.215 1.749 0 3.05-.448 3.919-1.189.873-.744 1.281-1.76 1.281-2.828v-.001c-.002-.717-.157-1.313-.436-1.81-.279-.497-.674-.879-1.134-1.182-.907-.6-2.101-.913-3.232-1.201l-.099-.025c-1.12-.286-2.172-.554-2.957-1.03-.398-.242-.715-.53-.933-.891-.218-.359-.349-.806-.349-1.385 0-.843.316-1.595.967-2.141.656-.55 1.683-.917 3.144-.917 1.23 0 2.648.408 3.731 1.238zM176.137 20.395l.232.229.209-.25.244-.295.172-.207-.187-.193c-1.299-1.345-3.145-1.979-5.099-1.979-4.369 0-7.662 3.35-7.662 7.8 0 4.45 3.284 7.8 7.662 7.8 1.949 0 3.801-.66 5.099-2.003l.187-.194-.172-.207-.244-.294-.209-.251-.233.23c-1.246 1.233-2.747 1.719-4.42 1.719-3.782 0-6.646-2.94-6.646-6.792h0c-.008-3.869 2.856-6.808 6.646-6.808 1.683 0 3.175.47 4.421 1.695zM192.034 18.057v6.816h-9.852v-7.116h-1.007v15.47h1.007v-7.345h9.852v7.345h1.016v-15.47h-1.016v.3zM205.071 17.7c-4.369 0-7.662 3.35-7.662 7.8 0 4.45 3.284 7.8 7.662 7.8s7.662-3.35 7.662-7.8c0-4.458-3.284-7.8-7.662-7.8zm0 14.591c-3.783 0-6.646-2.899-6.646-6.791 0-3.892 2.863-6.791 6.646-6.791 3.784 0 6.655 2.9 6.655 6.791 0 3.892-2.871 6.791-6.655 6.791zM223.237 17.7c-4.369 0-7.662 3.35-7.662 7.8 0 4.45 3.284 7.8 7.662 7.8s7.662-3.35 7.662-7.8c0-4.458-3.284-7.8-7.662-7.8zm0 14.591c-3.783 0-6.646-2.899-6.646-6.791 0-3.892 2.863-6.791 6.646-6.791 3.784 0 6.655 2.9 6.655 6.79-.008 3.893-2.872 6.793-6.655 6.793zM242.592 17.757h-.3v14.47h-8.553v1H243.299v-15.47h-.707z" fill="#216D6B" stroke="#236967" stroke-width=".6" stroke-miterlimit="10"/><path d="M25 0C11.195 0 0 11.195 0 25c0 2.87.488 5.62 1.376 8.184a12.168 12.168 0 0 1 2.91-4.697c1.258-1.259 4.057-4.287 5.621-4.88 1.664-2.6 2.963-3.705 6.197-6.938 6.527-6.527 12.988-10.642 14.44-9.19 1.453 1.452-2.663 7.914-9.19 14.44a69.434 69.434 0 0 1-4.103 3.792 12.123 12.123 0 0 1 7.055 7.062 69.611 69.611 0 0 1 3.798-4.104c6.527-6.527 12.994-10.642 14.44-9.19 1.453 1.452-2.663 7.914-9.19 14.44-3.233 3.234-4.285 4.58-6.89 6.245-.594 1.557-3.675 4.315-4.927 5.567a12.127 12.127 0 0 1-4.663 2.9 24.925 24.925 0 0 0 8.12 1.357C38.805 50 50 38.805 50 25S38.805 0 25 0z" fill="#236967"/><path d="M11.036 35.242a.887.887 0 0 0 .623-.259.887.887 0 0 0 0-1.246.898.898 0 0 0-1.246 0 .881.881 0 0 0 .623 1.505zM16.304 38.394a.898.898 0 0 0-1.246 0 .881.881 0 1 0 1.505.623.857.857 0 0 0-.259-.623zM8.607 37.917c-.652.647.16 2.305.424 2.799l.041.076.076.042c.26.135 1.294.664 2.088.664.282 0 .535-.065.711-.241.617-.617.365-1.611-.682-2.658-1.046-1.04-2.04-1.293-2.658-.682z" fill="#236967"/></svg>