<svg width="139" height="560" fill="none" xmlns="http://www.w3.org/2000/svg"><path d="M-1 420h140v140H-1V420z" fill="#FC8B4C"/><path d="M-1 490c0-38.66 31.34-70 70-70v140c-38.66 0-70-31.34-70-70z" fill="#FFCC1A"/><path fill="#FDE9D4" d="M34 490.355L69.355 455l35.356 35.355-35.356 35.355z"/><circle cx="69" cy="490" r="7" fill="#000"/><path fill="#FDE9D4" d="M-1 140h140v140H-1z"/><path d="M69 235l-30-50h60l-30 50z" fill="#FE7167"/><path fill="#000" d="M56 140h26v45H56z"/><circle cx="69" cy="260" r="10" fill="#000"/><circle cx="99" cy="260" r="10" fill="#000"/><circle cx="39" cy="260" r="10" fill="#000"/><path d="M139 0v140H-1V0h140z" fill="#FE7167"/><circle cx="95" cy="90" r="20" transform="rotate(90 95 90)" fill="#000"/><circle cx="75" cy="90" r="20" transform="rotate(90 75 90)" fill="#FDE9D4"/><path fill="#236967" d="M-1 280h140v140H-1z"/><path fill="#fff" d="M64.833 325h8.333v50h-8.333z"/><path fill="#fff" d="M48.376 335.269l5.892-5.892 35.356 35.355-5.893 5.892z"/><path fill="#fff" d="M89.624 335.269l-5.892-5.892-35.356 35.355 5.893 5.892z"/><path fill="#fff" d="M44 354.167v-8.333h50v8.333z"/><circle r="5" transform="matrix(-1 0 0 1 69 400)" fill="#fff"/><circle r="5" transform="matrix(-1 0 0 1 119 350)" fill="#fff"/><circle r="5" transform="matrix(-1 0 0 1 19 350)" fill="#fff"/><circle r="5" transform="matrix(-1 0 0 1 69 300)" fill="#fff"/></svg>