<svg width="139" height="560" viewBox="0 0 139 560" fill="none" xmlns="http://www.w3.org/2000/svg">
<path d="M-1 420H139V560H-1L-1 420Z" fill="#FC8B4C"/>
<path d="M-1 490C-1 451.34 30.3401 420 69 420V560C30.3401 560 -1 528.66 -1 490Z" fill="#FFCC1A"/>
<rect x="34" y="490.355" width="50" height="50" transform="rotate(-45 34 490.355)" fill="#FDE9D4"/>
<circle cx="69" cy="490" r="7" fill="black"/>
<rect x="-1" y="140" width="140" height="140" fill="#FDE9D4"/>
<path d="M69 235L39 185H99L69 235Z" fill="#FE7167"/>
<rect x="56" y="140" width="26" height="45" fill="black"/>
<circle cx="69" cy="260" r="10" fill="black"/>
<circle cx="99" cy="260" r="10" fill="black"/>
<circle cx="39" cy="260" r="10" fill="black"/>
<path d="M139 0L139 140L-1 140L-1 0L139 0Z" fill="#FE7167"/>
<circle cx="95" cy="90" r="20" transform="rotate(90 95 90)" fill="black"/>
<circle cx="75" cy="90" r="20" transform="rotate(90 75 90)" fill="#FDE9D4"/>
<rect x="-1" y="280" width="140" height="140" fill="#236967"/>
<rect x="64.833" y="325" width="8.33333" height="50" fill="white"/>
<rect x="48.376" y="335.269" width="8.33333" height="50" transform="rotate(-45 48.376 335.269)" fill="white"/>
<rect width="8.33333" height="50" transform="matrix(-0.707107 -0.707107 -0.707107 0.707107 89.624 335.269)" fill="white"/>
<rect x="44" y="354.167" width="8.33333" height="50" transform="rotate(-90 44 354.167)" fill="white"/>
<circle r="5" transform="matrix(-1 0 0 1 69 400)" fill="white"/>
<circle r="5" transform="matrix(-1 0 0 1 119 350)" fill="white"/>
<circle r="5" transform="matrix(-1 0 0 1 19 350)" fill="white"/>
<circle r="5" transform="matrix(-1 0 0 1 69 300)" fill="white"/>
</svg>
