<svg width="44" height="64" viewBox="0 0 44 64" fill="none" xmlns="http://www.w3.org/2000/svg">
<path d="M36.5221 32.4507C36.5221 37.0485 31.1559 37.8498 26.7766 39.255C23.7419 40.2288 21.1884 41.3752 19.1529 43.0763C14.2185 47.2427 11.3072 53.0116 10.715 59.8037C10.604 60.9254 10.6163 62.0471 10.53 63.1689C5.99031 59.3476 2.38818 54.0224 0.796822 48.4877C-1.43601 40.7466 1.19158 33.0917 6.58244 27.0516C6.58244 27.0516 4.43597 23.9822 3.79449 21.862C3.79449 21.862 7.13757 21.0731 9.39507 22.1825C9.39507 22.1825 1.41363 7.63699 19.8437 0.820312C14.6996 4.74021 11.1961 11.5322 15.23 17.2765C17.4629 20.4568 21.3364 23.7727 25.2839 24.9314C29.0464 26.0285 36.5221 27.8405 36.5221 32.4507Z" fill="#BD0318"/>
<path d="M31.9073 25.1519C30.2913 24.326 28.4039 23.7959 26.8125 23.4261C32.3514 19.0008 27.0716 13.2812 27.0716 13.2812C34.5102 17.6079 33.0299 22.9331 31.9073 25.1519Z" fill="#BD0318"/>
<path d="M42.7612 42.8053C42.1073 40.9317 40.664 39.4894 38.7273 38.984C39.6771 38.6882 40.4543 38.1581 41.0588 37.3446C41.9346 36.2352 42.3541 34.6697 42.3541 32.6851C42.3541 28.1858 39.3564 26.2752 33.8668 25.8438C34.1876 25.9793 34.5083 26.1396 34.8167 26.2998C37.8637 27.89 39.4057 29.9855 39.4057 32.5002C39.4057 34.8916 37.9254 37.1104 35.5322 38.3061C33.1637 39.4894 30.3757 39.6867 27.8962 40.5865C25.1946 41.5357 22.7274 42.9163 20.6549 44.6667C17.904 46.9594 15.153 50.8423 13.9688 54.2815H33.0157C36.5191 54.2815 39.0357 53.6775 40.627 52.4571C42.3541 51.1012 43.2299 48.8824 43.2299 45.7514C43.2053 44.642 43.0696 43.6559 42.7612 42.8053ZM38.7026 50.0164C37.691 50.9163 36.186 51.3724 34.1999 51.3724H18.6688C22.2709 45.5665 28.7474 41.6959 36.149 41.6959C36.4451 41.6959 36.7041 41.6959 37.0002 41.7206C38.5422 41.7699 39.8375 42.9163 40.1089 44.4201C40.1829 44.8392 40.2199 45.2953 40.2199 45.7761C40.2076 47.7114 39.7018 49.1412 38.7026 50.0164Z" fill="#BD0318"/>
</svg>
