<svg width="400" height="78" viewBox="0 0 400 78" fill="none" xmlns="http://www.w3.org/2000/svg">
<path d="M48.3084 75.967L113.835 10.44C117.503 6.77201 114.906 0.500015 109.719 0.500016L82.5174 0.500017C80.9704 0.500017 79.4934 1.11602 78.4014 2.20802L55.2944 25.315C54.2024 26.407 52.7184 27.023 51.1784 27.023L44.3044 27.023C42.7574 27.023 41.2804 27.639 40.1884 28.731L1.71643 67.182C-1.92357 70.822 0.603427 77.052 5.75543 77.129L44.1084 77.675C45.6834 77.696 47.1954 77.08 48.3084 75.967Z" fill="#7DFFE1"/>
<path d="M142.854 75.967L208.381 10.44C212.049 6.77201 209.452 0.500015 204.265 0.500016L177.063 0.500017C175.516 0.500017 174.039 1.11602 172.947 2.20802L149.84 25.315C148.748 26.407 147.264 27.023 145.724 27.023L138.85 27.023C137.303 27.023 135.826 27.639 134.734 28.731L96.2692 67.182C92.6292 70.822 95.1562 77.052 100.308 77.122L138.654 77.675C140.229 77.696 141.741 77.08 142.854 75.967Z" fill="#7DFFE1"/>
<path d="M237.4 75.967L302.927 10.44C306.595 6.77201 303.998 0.500015 298.811 0.500016L271.609 0.500017C270.062 0.500017 268.585 1.11602 267.493 2.20802L244.386 25.315C243.294 26.407 241.81 27.023 240.27 27.023L233.396 27.023C231.849 27.023 230.372 27.639 229.28 28.731L190.815 67.196C187.175 70.836 189.702 77.066 194.854 77.136L233.2 77.675C234.775 77.696 236.287 77.08 237.4 75.967Z" fill="#7DFFE1"/>
<path d="M331.946 75.967L397.473 10.44C401.141 6.77201 398.544 0.500015 393.357 0.500016L366.155 0.500017C364.608 0.500017 363.131 1.11602 362.039 2.20802L338.932 25.315C337.84 26.407 336.356 27.023 334.816 27.023L327.942 27.023C326.395 27.023 324.918 27.639 323.826 28.731L285.361 67.196C281.721 70.836 284.248 77.066 289.393 77.136L327.746 77.675C329.321 77.696 330.833 77.08 331.946 75.967Z" fill="#7DFFE1"/>
</svg>
