<svg width="424" height="388" viewBox="0 0 424 388" fill="none" xmlns="http://www.w3.org/2000/svg">
<g clip-path="url(#clip0_2016_4283)">
<path d="M424 234.541V234.299V233.248H400.961V234.299V234.541V236.917H424V234.541Z" fill="#7DFFE1"/>
<path d="M424 234.541V234.299V233.248H400.961V234.299V234.541V236.917H424V234.541Z" fill="url(#paint0_linear_2016_4283)"/>
<path d="M424 237.721H400.961V240.911H424V237.721Z" fill="#7DFFE1"/>
<path d="M424 237.721H400.961V240.911H424V237.721Z" fill="url(#paint1_linear_2016_4283)"/>
<path d="M424 241.042H400.961V242.265H424V241.042Z" fill="#7DFFE1"/>
<path d="M424 241.042H400.961V242.265H424V241.042Z" fill="url(#paint2_linear_2016_4283)"/>
<path d="M400.961 272.696V272.938V273.989H424V272.938V272.696V270.32H400.961V272.696Z" fill="#7DFFE1"/>
<path d="M400.961 272.696V272.938V273.989H424V272.938V272.696V270.32H400.961V272.696Z" fill="url(#paint3_linear_2016_4283)"/>
<path d="M424 266.321H400.961V269.511H424V266.321Z" fill="#7DFFE1"/>
<path d="M424 266.321H400.961V269.511H424V266.321Z" fill="url(#paint4_linear_2016_4283)"/>
<path d="M424 264.972H400.961V266.195H424V264.972Z" fill="#7DFFE1"/>
<path d="M424 264.972H400.961V266.195H424V264.972Z" fill="url(#paint5_linear_2016_4283)"/>
<path d="M424 243.818H400.961V244.813H424V243.818Z" fill="#7DFFE1"/>
<path d="M424 243.818H400.961V244.813H424V243.818Z" fill="url(#paint6_linear_2016_4283)"/>
<path d="M424 262.633H400.961V264.288H424V262.633Z" fill="#7DFFE1"/>
<path d="M424 262.633H400.961V264.288H424V262.633Z" fill="url(#paint7_linear_2016_4283)"/>
<path d="M424 248.398V247.999V247.985V247.71V246.055H400.961V247.71V247.985V247.999V248.398V248.673H424V248.398Z" fill="#7DFFE1"/>
<path d="M424 248.398V247.999V247.985V247.71V246.055H400.961V247.71V247.985V247.999V248.398V248.673H424V248.398Z" fill="url(#paint8_linear_2016_4283)"/>
<path d="M424 250.156V249.803V249.012H400.961V249.803V250.156V251.947H424V250.156Z" fill="#7DFFE1"/>
<path d="M424 250.156V249.803V249.012H400.961V249.803V250.156V251.947H424V250.156Z" fill="url(#paint9_linear_2016_4283)"/>
<path d="M424 254.96V254.881V252.384H400.961V254.881V254.96V255.974H424V254.96Z" fill="#7DFFE1"/>
<path d="M424 254.96V254.881V252.384H400.961V254.881V254.96V255.974H424V254.96Z" fill="url(#paint10_linear_2016_4283)"/>
<path d="M424 260.531V260.294V260.178V259.908V258.787V258.657V257.62V257.243V256.974H400.961V257.243V257.62V258.657V258.787V259.908V260.178V260.294V260.531V260.801H424V260.531Z" fill="#7DFFE1"/>
<path d="M424 260.531V260.294V260.178V259.908V258.787V258.657V257.62V257.243V256.974H400.961V257.243V257.62V258.657V258.787V259.908V260.178V260.294V260.531V260.801H424V260.531Z" fill="url(#paint11_linear_2016_4283)"/>
<path d="M424 279.174V278.932V277.881H400.961V278.932V279.174V281.55H424V279.174Z" fill="#7DFFE1"/>
<path d="M424 279.174V278.932V277.881H400.961V278.932V279.174V281.55H424V279.174Z" fill="url(#paint12_linear_2016_4283)"/>
<path d="M424 282.355H400.961V285.545H424V282.355Z" fill="#7DFFE1"/>
<path d="M424 282.355H400.961V285.545H424V282.355Z" fill="url(#paint13_linear_2016_4283)"/>
<path d="M424 285.67H400.961V286.893H424V285.67Z" fill="#7DFFE1"/>
<path d="M424 285.67H400.961V286.893H424V285.67Z" fill="url(#paint14_linear_2016_4283)"/>
<path d="M400.962 316.786H400.957V317.548V317.725V319.459H424V318.618V317.571V317.33V314.953H400.962V316.786Z" fill="#7DFFE1"/>
<path d="M400.962 316.786H400.957V317.548V317.725V319.459H424V318.618V317.571V317.33V314.953H400.962V316.786Z" fill="url(#paint15_linear_2016_4283)"/>
<path d="M424 310.954H400.961V314.144H424V310.954Z" fill="#7DFFE1"/>
<path d="M424 310.954H400.961V314.144H424V310.954Z" fill="url(#paint16_linear_2016_4283)"/>
<path d="M424 309.605H400.961V310.828H424V309.605Z" fill="#7DFFE1"/>
<path d="M424 309.605H400.961V310.828H424V309.605Z" fill="url(#paint17_linear_2016_4283)"/>
<path d="M424 288.451H400.961V289.446H424V288.451Z" fill="#7DFFE1"/>
<path d="M424 288.451H400.961V289.446H424V288.451Z" fill="url(#paint18_linear_2016_4283)"/>
<path d="M424 307.266H400.961V308.922H424V307.266Z" fill="#7DFFE1"/>
<path d="M424 307.266H400.961V308.922H424V307.266Z" fill="url(#paint19_linear_2016_4283)"/>
<path d="M424 293.032V292.632V292.618V292.343V290.688H400.961V292.343V292.618V292.632V293.032V293.306H424V293.032Z" fill="#7DFFE1"/>
<path d="M424 293.032V292.632V292.618V292.343V290.688H400.961V292.343V292.618V292.632V293.032V293.306H424V293.032Z" fill="url(#paint20_linear_2016_4283)"/>
<path d="M424 294.79V294.436V293.646H400.961V294.436V294.79V296.58H424V294.79Z" fill="#7DFFE1"/>
<path d="M424 294.79V294.436V293.646H400.961V294.436V294.79V296.58H424V294.79Z" fill="url(#paint21_linear_2016_4283)"/>
<path d="M424 299.593V299.514V297.017H400.961V299.514V299.593V300.607H424V299.593Z" fill="#7DFFE1"/>
<path d="M424 299.593V299.514V297.017H400.961V299.514V299.593V300.607H424V299.593Z" fill="url(#paint22_linear_2016_4283)"/>
<path d="M424 305.164V304.927V304.811V304.541V303.421V303.29V302.253V301.877V301.607H400.961V301.877V302.253V303.29V303.421V304.541V304.811V304.927V305.164V305.434H424V305.164Z" fill="#7DFFE1"/>
<path d="M424 305.164V304.927V304.811V304.541V303.421V303.29V302.253V301.877V301.607H400.961V301.877V302.253V303.29V303.421V304.541V304.811V304.927V305.164V305.434H424V305.164Z" fill="url(#paint23_linear_2016_4283)"/>
<path d="M423.996 320.045H400.957V322.371H423.996V320.045Z" fill="#7DFFE1"/>
<path d="M423.996 320.045H400.957V322.371H423.996V320.045Z" fill="url(#paint24_linear_2016_4283)"/>
<path d="M423.996 322.459H400.957V323.352H423.996V322.459Z" fill="#7DFFE1"/>
<path d="M423.996 322.459H400.957V323.352H423.996V322.459Z" fill="url(#paint25_linear_2016_4283)"/>
<path d="M423.996 324.482H400.957V325.207H423.996V324.482Z" fill="#7DFFE1"/>
<path d="M423.996 324.482H400.957V325.207H423.996V324.482Z" fill="url(#paint26_linear_2016_4283)"/>
<path d="M424 327.821V327.528V327.518V327.318V326.109H400.957V327.318V327.518V327.528V327.821V328.016H424V327.821Z" fill="#7DFFE1"/>
<path d="M424 327.821V327.528V327.518V327.318V326.109H400.957V327.318V327.518V327.528V327.821V328.016H424V327.821Z" fill="url(#paint27_linear_2016_4283)"/>
<path d="M400.962 330.406V330.722V332.541V332.597V333.336V333.601H424V331.453V331.234V330.285V329.099V328.844V328.267H400.957V328.844L400.962 329.099V330.406Z" fill="#7DFFE1"/>
<path d="M400.962 330.406V330.722V332.541V332.597V333.336V333.601H424V331.453V331.234V330.285V329.099V328.844V328.267H400.957V328.844L400.962 329.099V330.406Z" fill="url(#paint28_linear_2016_4283)"/>
<path d="M424 334.331V334.261V334.066H400.961V334.261V334.536V335.289V335.387V336.2V336.4V336.484V336.656V336.851V337.214H424V334.331Z" fill="#7DFFE1"/>
<path d="M424 334.331V334.261V334.066H400.961V334.261V334.536V335.289V335.387V336.2V336.4V336.484V336.656V336.851V337.214H424V334.331Z" fill="url(#paint29_linear_2016_4283)"/>
<path d="M424 338.433V337.331H400.961V338.186V339.395H424V338.433Z" fill="#7DFFE1"/>
<path d="M424 338.433V337.331H400.961V338.186V339.395H424V338.433Z" fill="url(#paint30_linear_2016_4283)"/>
<path d="M400.961 365.953V366.171V367.125H424V366.171V365.953V363.804H400.961V365.953Z" fill="#7DFFE1"/>
<path d="M400.961 365.953V366.171V367.125H424V366.171V365.953V363.804H400.961V365.953Z" fill="url(#paint31_linear_2016_4283)"/>
<path d="M424 360.191H400.961V363.079H424V360.191Z" fill="#7DFFE1"/>
<path d="M424 360.191H400.961V363.079H424V360.191Z" fill="url(#paint32_linear_2016_4283)"/>
<path d="M424 358.973H400.961V360.08H424V358.973Z" fill="#7DFFE1"/>
<path d="M424 358.973H400.961V360.08H424V358.973Z" fill="url(#paint33_linear_2016_4283)"/>
<path d="M424 340.739V339.842H400.961V339.893V340.781H424V340.739Z" fill="#7DFFE1"/>
<path d="M424 340.739V339.842H400.961V339.893V340.781H424V340.739Z" fill="url(#paint34_linear_2016_4283)"/>
<path d="M424 356.857H400.961V358.354H424V356.857Z" fill="#7DFFE1"/>
<path d="M424 356.857H400.961V358.354H424V356.857Z" fill="url(#paint35_linear_2016_4283)"/>
<path d="M424 345.575V345.255V344.538V344.232V343.985V343.622V343.608V343.362V341.865V340.874H400.961V343.199V343.362V343.608V343.622V343.785V345.515V345.692V346.454V347.194H424V345.575Z" fill="#7DFFE1"/>
<path d="M424 345.575V345.255V344.538V344.232V343.985V343.622V343.608V343.362V341.865V340.874H400.961V343.199V343.362V343.608V343.622V343.785V345.515V345.692V346.454V347.194H424V345.575Z" fill="url(#paint36_linear_2016_4283)"/>
<path d="M424 349.914V349.844V347.589H400.961V349.844V349.914V350.835H424V349.914Z" fill="#7DFFE1"/>
<path d="M424 349.914V349.844V347.589H400.961V349.844V349.914V350.835H424V349.914Z" fill="url(#paint37_linear_2016_4283)"/>
<path d="M424 354.955V354.741V354.634V354.392V353.379V353.262V352.323V351.984V351.737H400.961V351.984V352.323V353.262V353.379V354.392V354.634V354.741V354.955V355.202H424V354.955Z" fill="#7DFFE1"/>
<path d="M424 354.955V354.741V354.634V354.392V353.379V353.262V352.323V351.984V351.737H400.961V351.984V352.323V353.262V353.379V354.392V354.634V354.741V354.955V355.202H424V354.955Z" fill="url(#paint38_linear_2016_4283)"/>
<path d="M393.139 248.761V248.952V250.807H398.175V248.952V248.761V247.943H393.139V248.761Z" fill="#7DFFE1"/>
<path d="M393.139 248.761V248.952V250.807H398.175V248.952V248.761V247.943H393.139V248.761Z" fill="url(#paint39_linear_2016_4283)"/>
<path d="M398.171 251.435H393.139V253.928H398.171V251.435Z" fill="#7DFFE1"/>
<path d="M398.171 251.435H393.139V253.928H398.171V251.435Z" fill="url(#paint40_linear_2016_4283)"/>
<path d="M398.171 254.021H393.139V254.974H398.171V254.021Z" fill="#7DFFE1"/>
<path d="M398.171 254.021H393.139V254.974H398.171V254.021Z" fill="url(#paint41_linear_2016_4283)"/>
<path d="M393.139 278.728V278.918V279.737H398.175V278.918V278.728V276.872H393.139V278.728Z" fill="#7DFFE1"/>
<path d="M393.139 278.728V278.918V279.737H398.175V278.918V278.728V276.872H393.139V278.728Z" fill="url(#paint42_linear_2016_4283)"/>
<path d="M398.171 273.756H393.139V276.249H398.171V273.756Z" fill="#7DFFE1"/>
<path d="M398.171 273.756H393.139V276.249H398.171V273.756Z" fill="url(#paint43_linear_2016_4283)"/>
<path d="M398.171 272.701H393.139V273.654H398.171V272.701Z" fill="#7DFFE1"/>
<path d="M398.171 272.701H393.139V273.654H398.171V272.701Z" fill="url(#paint44_linear_2016_4283)"/>
<path d="M398.171 256.188H393.139V256.964H398.171V256.188Z" fill="#7DFFE1"/>
<path d="M398.171 256.188H393.139V256.964H398.171V256.188Z" fill="url(#paint45_linear_2016_4283)"/>
<path d="M398.171 270.878H393.139V272.171H398.171V270.878Z" fill="#7DFFE1"/>
<path d="M398.171 270.878H393.139V272.171H398.171V270.878Z" fill="url(#paint46_linear_2016_4283)"/>
<path d="M393.139 259.229V259.443V259.452V259.768V259.978H398.175V259.768V259.452V259.443V259.229V257.936H393.139V259.229Z" fill="#7DFFE1"/>
<path d="M393.139 259.229V259.443V259.452V259.768V259.978H398.175V259.768V259.452V259.443V259.229V257.936H393.139V259.229Z" fill="url(#paint47_linear_2016_4283)"/>
<path d="M393.139 260.861V261.14V262.535H398.175V261.14V260.861V260.247H393.139V260.861Z" fill="#7DFFE1"/>
<path d="M393.139 260.861V261.14V262.535H398.175V261.14V260.861V260.247H393.139V260.861Z" fill="url(#paint48_linear_2016_4283)"/>
<path d="M393.139 264.823V264.888V265.679H398.175V264.888V264.823V262.875H393.139V264.823Z" fill="#7DFFE1"/>
<path d="M393.139 264.823V264.888V265.679H398.175V264.888V264.823V262.875H393.139V264.823Z" fill="url(#paint49_linear_2016_4283)"/>
<path d="M393.139 266.669V266.962V267.772V267.874V268.748V268.962V269.05V269.236V269.446H398.175V269.236V269.05V268.962V268.748V267.874V267.772V266.962V266.669V266.46H393.139V266.669Z" fill="#7DFFE1"/>
<path d="M393.139 266.669V266.962V267.772V267.874V268.748V268.962V269.05V269.236V269.446H398.175V269.236V269.05V268.962V268.748V267.874V267.772V266.962V266.669V266.46H393.139V266.669Z" fill="url(#paint50_linear_2016_4283)"/>
<path d="M393.139 283.596V283.787V285.642H398.175V283.787V283.596V282.778H393.139V283.596Z" fill="#7DFFE1"/>
<path d="M393.139 283.596V283.787V285.642H398.175V283.787V283.596V282.778H393.139V283.596Z" fill="url(#paint51_linear_2016_4283)"/>
<path d="M398.171 286.27H393.139V288.763H398.171V286.27Z" fill="#7DFFE1"/>
<path d="M398.171 286.27H393.139V288.763H398.171V286.27Z" fill="url(#paint52_linear_2016_4283)"/>
<path d="M398.171 288.856H393.139V289.809H398.171V288.856Z" fill="#7DFFE1"/>
<path d="M398.171 288.856H393.139V289.809H398.171V288.856Z" fill="url(#paint53_linear_2016_4283)"/>
<path d="M393.139 313.567V313.753V314.572V315.228H398.175V313.874V313.739V313.14V311.712H393.139V313.567Z" fill="#7DFFE1"/>
<path d="M393.139 313.567V313.753V314.572V315.228H398.175V313.874V313.739V313.14V311.712H393.139V313.567Z" fill="url(#paint54_linear_2016_4283)"/>
<path d="M398.171 308.592H393.139V311.084H398.171V308.592Z" fill="#7DFFE1"/>
<path d="M398.171 308.592H393.139V311.084H398.171V308.592Z" fill="url(#paint55_linear_2016_4283)"/>
<path d="M398.171 307.541H393.139V308.494H398.171V307.541Z" fill="#7DFFE1"/>
<path d="M398.171 307.541H393.139V308.494H398.171V307.541Z" fill="url(#paint56_linear_2016_4283)"/>
<path d="M398.171 291.028H393.139V291.804H398.171V291.028Z" fill="#7DFFE1"/>
<path d="M398.171 291.028H393.139V291.804H398.171V291.028Z" fill="url(#paint57_linear_2016_4283)"/>
<path d="M398.171 305.713H393.139V307.006H398.171V305.713Z" fill="#7DFFE1"/>
<path d="M398.171 305.713H393.139V307.006H398.171V305.713Z" fill="url(#paint58_linear_2016_4283)"/>
<path d="M393.139 294.064V294.278V294.287V294.604V294.813H398.175V294.604V294.287V294.278V294.064V292.771H393.139V294.064Z" fill="#7DFFE1"/>
<path d="M393.139 294.064V294.278V294.287V294.604V294.813H398.175V294.604V294.287V294.278V294.064V292.771H393.139V294.064Z" fill="url(#paint59_linear_2016_4283)"/>
<path d="M393.139 295.696V295.975V297.37H398.175V295.975V295.696V295.083H393.139V295.696Z" fill="#7DFFE1"/>
<path d="M393.139 295.696V295.975V297.37H398.175V295.975V295.696V295.083H393.139V295.696Z" fill="url(#paint60_linear_2016_4283)"/>
<path d="M393.139 299.663V299.724V300.514H398.175V299.724V299.663V297.71H393.139V299.663Z" fill="#7DFFE1"/>
<path d="M393.139 299.663V299.724V300.514H398.175V299.724V299.663V297.71H393.139V299.663Z" fill="url(#paint61_linear_2016_4283)"/>
<path d="M393.139 301.505V301.802V302.611V302.709V303.583V303.797V303.886V304.072V304.281H398.175V304.072V303.886V303.797V303.583V302.709V302.611V301.802V301.505V301.295H393.139V301.505Z" fill="#7DFFE1"/>
<path d="M393.139 301.505V301.802V302.611V302.709V303.583V303.797V303.886V304.072V304.281H398.175V304.072V303.886V303.797V303.583V302.709V302.611V301.802V301.505V301.295H393.139V301.505Z" fill="url(#paint62_linear_2016_4283)"/>
<path d="M398.171 315.683H393.139V317.497H398.171V315.683Z" fill="#7DFFE1"/>
<path d="M398.171 315.683H393.139V317.497H398.171V315.683Z" fill="url(#paint63_linear_2016_4283)"/>
<path d="M398.171 317.571H393.139V318.269H398.171V317.571Z" fill="#7DFFE1"/>
<path d="M398.171 317.571H393.139V318.269H398.171V317.571Z" fill="url(#paint64_linear_2016_4283)"/>
<path d="M398.171 319.148H393.139V319.711H398.171V319.148Z" fill="#7DFFE1"/>
<path d="M398.171 319.148H393.139V319.711H398.171V319.148Z" fill="url(#paint65_linear_2016_4283)"/>
<path d="M393.139 321.361V321.52V321.524V321.752V321.91H398.175V321.752V321.524V321.52V321.361V320.422H393.139V321.361Z" fill="#7DFFE1"/>
<path d="M393.139 321.361V321.52V321.524V321.752V321.91H398.175V321.752V321.524V321.52V321.361V320.422H393.139V321.361Z" fill="url(#paint66_linear_2016_4283)"/>
<path d="M393.139 322.552V322.752V323.677V324.417V324.589V326.267H398.175V326.058V325.482V325.44V324.017V323.77V322.752V322.552V322.105H393.139V322.552Z" fill="#7DFFE1"/>
<path d="M393.139 322.552V322.752V323.677V324.417V324.589V326.267H398.175V326.058V325.482V325.44V324.017V323.77V322.752V322.552V322.105H393.139V322.552Z" fill="url(#paint67_linear_2016_4283)"/>
<path d="M393.139 326.784V326.835V329.09H398.175V328.806V328.648V328.513V328.448V328.295V327.658V327.588V326.997V326.784V326.63H393.139V326.784Z" fill="#7DFFE1"/>
<path d="M393.139 326.784V326.835V329.09H398.175V328.806V328.648V328.513V328.448V328.295V327.658V327.588V326.997V326.784V326.63H393.139V326.784Z" fill="url(#paint68_linear_2016_4283)"/>
<path d="M393.139 330.039V330.787H398.175V329.848V329.174H393.139V330.039Z" fill="#7DFFE1"/>
<path d="M393.139 330.039V330.787H398.175V329.848V329.174H393.139V330.039Z" fill="url(#paint69_linear_2016_4283)"/>
<path d="M393.139 351.519V351.691V352.43H398.175V351.691V351.519V349.84H393.139V351.519Z" fill="#7DFFE1"/>
<path d="M393.139 351.519V351.691V352.43H398.175V351.691V351.519V349.84H393.139V351.519Z" fill="url(#paint70_linear_2016_4283)"/>
<path d="M398.171 347.022H393.139V349.272H398.171V347.022Z" fill="#7DFFE1"/>
<path d="M398.171 347.022H393.139V349.272H398.171V347.022Z" fill="url(#paint71_linear_2016_4283)"/>
<path d="M398.171 346.068H393.139V346.933H398.171V346.068Z" fill="#7DFFE1"/>
<path d="M398.171 346.068H393.139V346.933H398.171V346.068Z" fill="url(#paint72_linear_2016_4283)"/>
<path d="M393.139 331.838V331.871H398.175V331.178V331.136H393.139V331.838Z" fill="#7DFFE1"/>
<path d="M393.139 331.838V331.871H398.175V331.178V331.136H393.139V331.838Z" fill="url(#paint73_linear_2016_4283)"/>
<path d="M398.171 344.417H393.139V345.589H398.171V344.417Z" fill="#7DFFE1"/>
<path d="M398.171 344.417H393.139V345.589H398.171V344.417Z" fill="url(#paint74_linear_2016_4283)"/>
<path d="M393.139 332.717V333.884V334.075V334.089V334.373V334.563V334.805V335.363V335.61V336.875H398.175V336.298V335.703V335.568V334.215V334.089V334.075V333.884V333.754V331.941H393.139V332.717Z" fill="#7DFFE1"/>
<path d="M393.139 332.717V333.884V334.075V334.089V334.373V334.563V334.805V335.363V335.61V336.875H398.175V336.298V335.703V335.568V334.215V334.089V334.075V333.884V333.754V331.941H393.139V332.717Z" fill="url(#paint75_linear_2016_4283)"/>
<path d="M393.139 338.944V339V339.716H398.175V339V338.944V337.182H393.139V338.944Z" fill="#7DFFE1"/>
<path d="M393.139 338.944V339V339.716H398.175V339V338.944V337.182H393.139V338.944Z" fill="url(#paint76_linear_2016_4283)"/>
<path d="M393.139 340.614V340.879V341.613V341.702V342.492V342.683V342.767V342.934V343.125H398.175V342.934V342.767V342.683V342.492V341.702V341.613V340.879V340.614V340.423H393.139V340.614Z" fill="#7DFFE1"/>
<path d="M393.139 340.614V340.879V341.613V341.702V342.492V342.683V342.767V342.934V343.125H398.175V342.934V342.767V342.683V342.492V341.702V341.613V340.879V340.614V340.423H393.139V340.614Z" fill="url(#paint77_linear_2016_4283)"/>
<path d="M123.024 365.869H123.126H123.568V356.146H123.126H123.024H122.02V365.869H123.024Z" fill="#7DFFE1"/>
<path d="M123.024 365.869H123.126H123.568V356.146H123.126H123.024H122.02V365.869H123.024Z" fill="url(#paint78_linear_2016_4283)"/>
<path d="M121.681 356.146H120.332V365.874H121.681V356.146Z" fill="#7DFFE1"/>
<path d="M121.681 356.146H120.332V365.874H121.681V356.146Z" fill="url(#paint79_linear_2016_4283)"/>
<path d="M120.28 356.146H119.764V365.874H120.28V356.146Z" fill="#7DFFE1"/>
<path d="M120.28 356.146H119.764V365.874H120.28V356.146Z" fill="url(#paint80_linear_2016_4283)"/>
<path d="M106.911 356.146H106.809H106.367V365.869H106.809H106.911H107.916V356.146H106.911Z" fill="#7DFFE1"/>
<path d="M106.911 356.146H106.809H106.367V365.869H106.809H106.911H107.916V356.146H106.911Z" fill="url(#paint81_linear_2016_4283)"/>
<path d="M109.603 356.146H108.254V365.874H109.603V356.146Z" fill="#7DFFE1"/>
<path d="M109.603 356.146H108.254V365.874H109.603V356.146Z" fill="url(#paint82_linear_2016_4283)"/>
<path d="M110.171 356.146H109.654V365.874H110.171V356.146Z" fill="#7DFFE1"/>
<path d="M110.171 356.146H109.654V365.874H110.171V356.146Z" fill="url(#paint83_linear_2016_4283)"/>
<path d="M119.104 356.146H118.686V365.874H119.104V356.146Z" fill="#7DFFE1"/>
<path d="M119.104 356.146H118.686V365.874H119.104V356.146Z" fill="url(#paint84_linear_2016_4283)"/>
<path d="M111.161 356.146H110.459V365.874H111.161V356.146Z" fill="#7DFFE1"/>
<path d="M111.161 356.146H110.459V365.874H111.161V356.146Z" fill="url(#paint85_linear_2016_4283)"/>
<path d="M117.17 365.869H117.342H117.347H117.463H118.161V356.146H117.463H117.347H117.342H117.17H117.059V365.869H117.17Z" fill="#7DFFE1"/>
<path d="M117.17 365.869H117.342H117.347H117.463H118.161V356.146H117.463H117.347H117.342H117.17H117.059V365.869H117.17Z" fill="url(#paint86_linear_2016_4283)"/>
<path d="M116.43 365.869H116.579H116.914V356.146H116.579H116.43H115.672V365.869H116.43Z" fill="#7DFFE1"/>
<path d="M116.43 365.869H116.579H116.914V356.146H116.579H116.43H115.672V365.869H116.43Z" fill="url(#paint87_linear_2016_4283)"/>
<path d="M114.402 365.869H114.435H115.491V356.146H114.435H114.402H113.975V365.869H114.402Z" fill="#7DFFE1"/>
<path d="M114.402 365.869H114.435H115.491V356.146H114.435H114.402H113.975V365.869H114.402Z" fill="url(#paint88_linear_2016_4283)"/>
<path d="M112.05 365.869H112.148H112.199H112.31H112.785H112.84H113.278H113.436H113.552V356.146H113.436H113.278H112.84H112.785H112.31H112.199H112.148H112.05H111.934V365.869H112.05Z" fill="#7DFFE1"/>
<path d="M112.05 365.869H112.148H112.199H112.31H112.785H112.84H113.278H113.436H113.552V356.146H113.436H113.278H112.84H112.785H112.31H112.199H112.148H112.05H111.934V365.869H112.05Z" fill="url(#paint89_linear_2016_4283)"/>
<path d="M104.176 365.869H104.279H104.72V356.146H104.279H104.176H103.172V365.869H104.176Z" fill="#7DFFE1"/>
<path d="M104.176 365.869H104.279H104.72V356.146H104.279H104.176H103.172V365.869H104.176Z" fill="url(#paint90_linear_2016_4283)"/>
<path d="M102.831 356.146H101.482V365.874H102.831V356.146Z" fill="#7DFFE1"/>
<path d="M102.831 356.146H101.482V365.874H102.831V356.146Z" fill="url(#paint91_linear_2016_4283)"/>
<path d="M101.432 356.146H100.916V365.874H101.432V356.146Z" fill="#7DFFE1"/>
<path d="M101.432 356.146H100.916V365.874H101.432V356.146Z" fill="url(#paint92_linear_2016_4283)"/>
<path d="M88.2941 356.146H87.9686H87.8942H87.1641V365.869H87.5175H87.9639H88.0616H89.0661V356.146H88.2941Z" fill="#7DFFE1"/>
<path d="M88.2941 356.146H87.9686H87.8942H87.1641V365.869H87.5175H87.9639H88.0616H89.0661V356.146H88.2941Z" fill="url(#paint93_linear_2016_4283)"/>
<path d="M90.7549 356.146H89.4062V365.874H90.7549V356.146Z" fill="#7DFFE1"/>
<path d="M90.7549 356.146H89.4062V365.874H90.7549V356.146Z" fill="url(#paint94_linear_2016_4283)"/>
<path d="M91.3268 356.146H90.8105V365.874H91.3268V356.146Z" fill="#7DFFE1"/>
<path d="M91.3268 356.146H90.8105V365.874H91.3268V356.146Z" fill="url(#paint95_linear_2016_4283)"/>
<path d="M100.256 356.146H99.8379V365.874H100.256V356.146Z" fill="#7DFFE1"/>
<path d="M100.256 356.146H99.8379V365.874H100.256V356.146Z" fill="url(#paint96_linear_2016_4283)"/>
<path d="M92.3128 356.146H91.6152V365.874H92.3128V356.146Z" fill="#7DFFE1"/>
<path d="M92.3128 356.146H91.6152V365.874H92.3128V356.146Z" fill="url(#paint97_linear_2016_4283)"/>
<path d="M98.3252 365.869H98.4927H98.4973H98.6136H99.3158V356.146H98.6136H98.4973H98.4927H98.3252H98.209V365.869H98.3252Z" fill="#7DFFE1"/>
<path d="M98.3252 365.869H98.4927H98.4973H98.6136H99.3158V356.146H98.6136H98.4973H98.4927H98.3252H98.209V365.869H98.3252Z" fill="url(#paint98_linear_2016_4283)"/>
<path d="M97.5823 365.869H97.7311H98.0659V356.146H97.7311H97.5823H96.8242V365.869H97.5823Z" fill="#7DFFE1"/>
<path d="M97.5823 365.869H97.7311H98.0659V356.146H97.7311H97.5823H96.8242V365.869H97.5823Z" fill="url(#paint99_linear_2016_4283)"/>
<path d="M95.5528 365.869H95.5854H96.6411V356.146H95.5854H95.5528H95.125V365.869H95.5528Z" fill="#7DFFE1"/>
<path d="M95.5528 365.869H95.5854H96.6411V356.146H95.5854H95.5528H95.125V365.869H95.5528Z" fill="url(#paint100_linear_2016_4283)"/>
<path d="M93.2002 365.869H93.3026H93.3491H93.4653H93.935H93.9908H94.428H94.5861H94.7024V356.146H94.5861H94.428H93.9908H93.935H93.4653H93.3491H93.3026H93.2002H93.084V365.869H93.2002Z" fill="#7DFFE1"/>
<path d="M93.2002 365.869H93.3026H93.3491H93.4653H93.935H93.9908H94.428H94.5861H94.7024V356.146H94.5861H94.428H93.9908H93.935H93.4653H93.3491H93.3026H93.2002H93.084V365.869H93.2002Z" fill="url(#paint101_linear_2016_4283)"/>
<path d="M86.9188 356.146H85.9375V365.874H86.9188V356.146Z" fill="#7DFFE1"/>
<path d="M86.9188 356.146H85.9375V365.874H86.9188V356.146Z" fill="url(#paint102_linear_2016_4283)"/>
<path d="M85.9001 356.146H85.5234V365.874H85.9001V356.146Z" fill="#7DFFE1"/>
<path d="M85.9001 356.146H85.5234V365.874H85.9001V356.146Z" fill="url(#paint103_linear_2016_4283)"/>
<path d="M85.0433 356.146H84.7363V365.874H85.0433V356.146Z" fill="#7DFFE1"/>
<path d="M85.0433 356.146H84.7363V365.874H85.0433V356.146Z" fill="url(#paint104_linear_2016_4283)"/>
<path d="M83.6345 365.869H83.7554H83.7601H83.8438H84.3553V356.146H83.8438H83.7601H83.7554H83.6345H83.5508V365.869H83.6345Z" fill="#7DFFE1"/>
<path d="M83.6345 365.869H83.7554H83.7601H83.8438H84.3553V356.146H83.8438H83.7601H83.7554H83.6345H83.5508V365.869H83.6345Z" fill="url(#paint105_linear_2016_4283)"/>
<path d="M82.542 356.146H82.4071H81.6398H81.6166H81.305H81.1934V365.869H82.1002H82.1932H82.5932H83.0954H83.2024H83.4442V356.146H83.2024H83.0954H82.542Z" fill="#7DFFE1"/>
<path d="M82.542 356.146H82.4071H81.6398H81.6166H81.305H81.1934V365.869H82.1002H82.1932H82.5932H83.0954H83.2024H83.4442V356.146H83.2024H83.0954H82.542Z" fill="url(#paint106_linear_2016_4283)"/>
<path d="M80.8864 365.869H80.9143H80.998V356.146H80.9143H80.798H80.4772H80.44H80.0958H80.0121H79.9749H79.9051H79.8214H79.668V365.869H80.8864Z" fill="#7DFFE1"/>
<path d="M80.8864 365.869H80.9143H80.998V356.146H80.9143H80.798H80.4772H80.44H80.0958H80.0121H79.9749H79.9051H79.8214H79.668V365.869H80.8864Z" fill="url(#paint107_linear_2016_4283)"/>
<path d="M79.1507 365.869H79.6157V356.146H79.253H78.7461V365.869H79.1507Z" fill="#7DFFE1"/>
<path d="M79.1507 365.869H79.6157V356.146H79.253H78.7461V365.869H79.1507Z" fill="url(#paint108_linear_2016_4283)"/>
<path d="M67.5301 356.146H67.4371H67.0371V365.869H67.4371H67.5301H68.4369V356.146H67.5301Z" fill="#7DFFE1"/>
<path d="M67.5301 356.146H67.4371H67.0371V365.869H67.4371H67.5301H68.4369V356.146H67.5301Z" fill="url(#paint109_linear_2016_4283)"/>
<path d="M69.9626 356.146H68.7441V365.874H69.9626V356.146Z" fill="#7DFFE1"/>
<path d="M69.9626 356.146H68.7441V365.874H69.9626V356.146Z" fill="url(#paint110_linear_2016_4283)"/>
<path d="M70.4787 356.146H70.0137V365.874H70.4787V356.146Z" fill="#7DFFE1"/>
<path d="M70.4787 356.146H70.0137V365.874H70.4787V356.146Z" fill="url(#paint111_linear_2016_4283)"/>
<path d="M78.1788 365.869H78.5554V356.146H78.5368H78.1602V365.869H78.1788Z" fill="#7DFFE1"/>
<path d="M78.1788 365.869H78.5554V356.146H78.5368H78.1602V365.869H78.1788Z" fill="url(#paint112_linear_2016_4283)"/>
<path d="M71.3707 356.146H70.7383V365.874H71.3707V356.146Z" fill="#7DFFE1"/>
<path d="M71.3707 356.146H70.7383V365.874H71.3707V356.146Z" fill="url(#paint113_linear_2016_4283)"/>
<path d="M76.1387 365.869H76.2736H76.5759H76.7061H76.8084H76.9618H76.9665H77.0735H77.7059H78.1245V356.146H77.1432H77.0735H76.9665H76.9618H76.8921H76.162H76.0875H75.7667H75.4551V365.869H76.1387Z" fill="#7DFFE1"/>
<path d="M76.1387 365.869H76.2736H76.5759H76.7061H76.8084H76.9618H76.9665H77.0735H77.7059H78.1245V356.146H77.1432H77.0735H76.9665H76.9618H76.8921H76.162H76.0875H75.7667H75.4551V365.869H76.1387Z" fill="url(#paint114_linear_2016_4283)"/>
<path d="M74.302 365.869H74.3346H75.2879V356.146H74.3346H74.302H73.916V365.869H74.302Z" fill="#7DFFE1"/>
<path d="M74.302 365.869H74.3346H75.2879V356.146H74.3346H74.302H73.916V365.869H74.302Z" fill="url(#paint115_linear_2016_4283)"/>
<path d="M72.1765 365.869H72.2649H72.3114H72.4137H72.8416H72.8927H73.288H73.4322H73.5345V356.146H73.4322H73.288H72.8927H72.8416H72.4137H72.3114H72.2649H72.1765H72.0742V365.869H72.1765Z" fill="#7DFFE1"/>
<path d="M72.1765 365.869H72.2649H72.3114H72.4137H72.8416H72.8927H73.288H73.4322H73.5345V356.146H73.4322H73.288H72.8927H72.8416H72.4137H72.3114H72.2649H72.1765H72.0742V365.869H72.1765Z" fill="url(#paint116_linear_2016_4283)"/>
<path d="M117.017 352.844H116.938H116.156V354.969H116.938H117.017H117.365V352.844H117.017Z" fill="#7DFFE1"/>
<path d="M117.017 352.844H116.938H116.156V354.969H116.938H117.017H117.365V352.844H117.017Z" fill="url(#paint117_linear_2016_4283)"/>
<path d="M115.891 352.844H114.84V354.969H115.891V352.844Z" fill="#7DFFE1"/>
<path d="M115.891 352.844H114.84V354.969H115.891V352.844Z" fill="url(#paint118_linear_2016_4283)"/>
<path d="M114.797 352.844H114.393V354.969H114.797V352.844Z" fill="#7DFFE1"/>
<path d="M114.797 352.844H114.393V354.969H114.797V352.844Z" fill="url(#paint119_linear_2016_4283)"/>
<path d="M104.363 352.844H104.284H103.939V354.969H104.284H104.363H105.149V352.844H104.363Z" fill="#7DFFE1"/>
<path d="M104.363 352.844H104.284H103.939V354.969H104.284H104.363H105.149V352.844H104.363Z" fill="url(#paint120_linear_2016_4283)"/>
<path d="M106.463 352.844H105.412V354.969H106.463V352.844Z" fill="#7DFFE1"/>
<path d="M106.463 352.844H105.412V354.969H106.463V352.844Z" fill="url(#paint121_linear_2016_4283)"/>
<path d="M106.91 352.844H106.506V354.969H106.91V352.844Z" fill="#7DFFE1"/>
<path d="M106.91 352.844H106.506V354.969H106.91V352.844Z" fill="url(#paint122_linear_2016_4283)"/>
<path d="M113.882 352.844H113.557V354.969H113.882V352.844Z" fill="#7DFFE1"/>
<path d="M113.882 352.844H113.557V354.969H113.882V352.844Z" fill="url(#paint123_linear_2016_4283)"/>
<path d="M107.677 352.844H107.133V354.969H107.677V352.844Z" fill="#7DFFE1"/>
<path d="M107.677 352.844H107.133V354.969H107.677V352.844Z" fill="url(#paint124_linear_2016_4283)"/>
<path d="M112.597 352.844H112.509H112.504H112.37H112.281V354.969H112.37H112.504H112.509H112.597H113.142V352.844H112.597Z" fill="#7DFFE1"/>
<path d="M112.597 352.844H112.509H112.504H112.37H112.281V354.969H112.37H112.504H112.509H112.597H113.142V352.844H112.597Z" fill="url(#paint125_linear_2016_4283)"/>
<path d="M111.91 352.844H111.794H111.203V354.969H111.794H111.91H112.17V352.844H111.91Z" fill="#7DFFE1"/>
<path d="M111.91 352.844H111.794H111.203V354.969H111.794H111.91H112.17V352.844H111.91Z" fill="url(#paint126_linear_2016_4283)"/>
<path d="M110.236 352.844H110.208H109.873V354.969H110.208H110.236H111.059V352.844H110.236Z" fill="#7DFFE1"/>
<path d="M110.236 352.844H110.208H109.873V354.969H110.208H110.236H111.059V352.844H110.236Z" fill="url(#paint127_linear_2016_4283)"/>
<path d="M109.455 352.844H109.334H108.99H108.948H108.581H108.488H108.451H108.372H108.283V354.969H108.372H108.451H108.488H108.581H108.948H108.99H109.334H109.455H109.548V352.844H109.455Z" fill="#7DFFE1"/>
<path d="M109.455 352.844H109.334H108.99H108.948H108.581H108.488H108.451H108.372H108.283V354.969H108.372H108.451H108.488H108.581H108.948H108.99H109.334H109.455H109.548V352.844H109.455Z" fill="url(#paint128_linear_2016_4283)"/>
<path d="M102.306 352.844H102.227H101.445V354.969H102.227H102.306H102.654V352.844H102.306Z" fill="#7DFFE1"/>
<path d="M102.306 352.844H102.227H101.445V354.969H102.227H102.306H102.654V352.844H102.306Z" fill="url(#paint129_linear_2016_4283)"/>
<path d="M101.176 352.844H100.125V354.969H101.176V352.844Z" fill="#7DFFE1"/>
<path d="M101.176 352.844H100.125V354.969H101.176V352.844Z" fill="url(#paint130_linear_2016_4283)"/>
<path d="M100.088 352.844H99.6836V354.969H100.088V352.844Z" fill="#7DFFE1"/>
<path d="M100.088 352.844H99.6836V354.969H100.088V352.844Z" fill="url(#paint131_linear_2016_4283)"/>
<path d="M89.6514 352.844H89.5724H89.2282H88.9492V354.969H89.5212H89.577H89.8328H90.4374V352.844H89.6514Z" fill="#7DFFE1"/>
<path d="M89.6514 352.844H89.5724H89.2282H88.9492V354.969H89.5212H89.577H89.8328H90.4374V352.844H89.6514Z" fill="url(#paint132_linear_2016_4283)"/>
<path d="M91.7541 352.844H90.7031V354.969H91.7541V352.844Z" fill="#7DFFE1"/>
<path d="M91.7541 352.844H90.7031V354.969H91.7541V352.844Z" fill="url(#paint133_linear_2016_4283)"/>
<path d="M92.2015 352.844H91.7969V354.969H92.2015V352.844Z" fill="#7DFFE1"/>
<path d="M92.2015 352.844H91.7969V354.969H92.2015V352.844Z" fill="url(#paint134_linear_2016_4283)"/>
<path d="M99.1673 352.844H98.8418V354.969H99.1673V352.844Z" fill="#7DFFE1"/>
<path d="M99.1673 352.844H98.8418V354.969H99.1673V352.844Z" fill="url(#paint135_linear_2016_4283)"/>
<path d="M92.9679 352.844H92.4238V354.969H92.9679V352.844Z" fill="#7DFFE1"/>
<path d="M92.9679 352.844H92.4238V354.969H92.9679V352.844Z" fill="url(#paint136_linear_2016_4283)"/>
<path d="M97.8885 352.844H97.8001H97.7955H97.6606H97.5723V354.969H97.6606H97.7955H97.8001H97.8885H98.4326V352.844H97.8885Z" fill="#7DFFE1"/>
<path d="M97.8885 352.844H97.8001H97.7955H97.6606H97.5723V354.969H97.6606H97.7955H97.8001H97.8885H98.4326V352.844H97.8885Z" fill="url(#paint137_linear_2016_4283)"/>
<path d="M97.1964 352.844H97.0801H96.4941V354.969H97.0801H97.1964H97.4614V352.844H97.1964Z" fill="#7DFFE1"/>
<path d="M97.1964 352.844H97.0801H96.4941V354.969H97.0801H97.1964H97.4614V352.844H97.1964Z" fill="url(#paint138_linear_2016_4283)"/>
<path d="M95.5268 352.844H95.4989H95.1641V354.969H95.4989H95.5268H96.3499V352.844H95.5268Z" fill="#7DFFE1"/>
<path d="M95.5268 352.844H95.4989H95.1641V354.969H95.4989H95.5268H96.3499V352.844H95.5268Z" fill="url(#paint139_linear_2016_4283)"/>
<path d="M94.7442 352.844H94.6186H94.2791H94.2373H93.8652H93.7769H93.7397H93.6606H93.5723V354.969H93.6606H93.7397H93.7769H93.8652H94.2373H94.2791H94.6186H94.7442H94.8325V352.844H94.7442Z" fill="#7DFFE1"/>
<path d="M94.7442 352.844H94.6186H94.2791H94.2373H93.8652H93.7769H93.7397H93.6606H93.5723V354.969H93.6606H93.7397H93.7769H93.8652H94.2373H94.2791H94.6186H94.7442H94.8325V352.844H94.7442Z" fill="url(#paint140_linear_2016_4283)"/>
<path d="M88.7595 352.844H87.9922V354.969H88.7595V352.844Z" fill="#7DFFE1"/>
<path d="M88.7595 352.844H87.9922V354.969H88.7595V352.844Z" fill="url(#paint141_linear_2016_4283)"/>
<path d="M87.959 352.844H87.666V354.969H87.959V352.844Z" fill="#7DFFE1"/>
<path d="M87.959 352.844H87.666V354.969H87.959V352.844Z" fill="url(#paint142_linear_2016_4283)"/>
<path d="M87.2938 352.844H87.0566V354.969H87.2938V352.844Z" fill="#7DFFE1"/>
<path d="M87.2938 352.844H87.0566V354.969H87.2938V352.844Z" fill="url(#paint143_linear_2016_4283)"/>
<path d="M86.3607 352.844H86.2956H86.2909H86.1979H86.1328V354.969H86.1979H86.2909H86.2956H86.3607H86.7606V352.844H86.3607Z" fill="#7DFFE1"/>
<path d="M86.3607 352.844H86.2956H86.2909H86.1979H86.1328V354.969H86.1979H86.2909H86.2956H86.3607H86.7606V352.844H86.3607Z" fill="url(#paint144_linear_2016_4283)"/>
<path d="M85.8582 352.844H85.7745H85.3839H85.0723H84.9979H84.291V354.969H84.3794H84.6212H84.6398H85.2397H85.342H85.7745H85.8582H86.0489V352.844H85.8582Z" fill="#7DFFE1"/>
<path d="M85.8582 352.844H85.7745H85.3839H85.0723H84.9979H84.291V354.969H84.3794H84.6212H84.6398H85.2397H85.342H85.7745H85.8582H86.0489V352.844H85.8582Z" fill="url(#paint145_linear_2016_4283)"/>
<path d="M84.0716 352.844H84.0483H83.0996V354.969H83.2159H83.281H83.3414H83.3693H83.4344H83.6995H83.7321H83.9832H84.0716H84.1367V352.844H84.0716Z" fill="#7DFFE1"/>
<path d="M84.0716 352.844H84.0483H83.0996V354.969H83.2159H83.281H83.3414H83.3693H83.4344H83.6995H83.7321H83.9832H84.0716H84.1367V352.844H84.0716Z" fill="url(#paint146_linear_2016_4283)"/>
<path d="M82.6951 352.844H82.3789V354.969H82.7788H83.0625V352.844H82.6951Z" fill="#7DFFE1"/>
<path d="M82.6951 352.844H82.3789V354.969H82.7788H83.0625V352.844H82.6951Z" fill="url(#paint147_linear_2016_4283)"/>
<path d="M73.6262 352.844H73.5518H73.2402V354.969H73.5518H73.6262H74.3331V352.844H73.6262Z" fill="#7DFFE1"/>
<path d="M73.6262 352.844H73.5518H73.2402V354.969H73.5518H73.6262H74.3331V352.844H73.6262Z" fill="url(#paint148_linear_2016_4283)"/>
<path d="M75.5295 352.844H74.5762V354.969H75.5295V352.844Z" fill="#7DFFE1"/>
<path d="M75.5295 352.844H74.5762V354.969H75.5295V352.844Z" fill="url(#paint149_linear_2016_4283)"/>
<path d="M75.9233 352.844H75.5605V354.969H75.9233V352.844Z" fill="#7DFFE1"/>
<path d="M75.9233 352.844H75.5605V354.969H75.9233V352.844Z" fill="url(#paint150_linear_2016_4283)"/>
<path d="M81.9378 352.844H81.9238V354.969H82.2168H82.2354V352.844H81.9378Z" fill="#7DFFE1"/>
<path d="M81.9378 352.844H81.9238V354.969H82.2168H82.2354V352.844H81.9378Z" fill="url(#paint151_linear_2016_4283)"/>
<path d="M76.6258 352.844H76.1328V354.969H76.6258V352.844Z" fill="#7DFFE1"/>
<path d="M76.6258 352.844H76.1328V354.969H76.6258V352.844Z" fill="url(#paint152_linear_2016_4283)"/>
<path d="M81.5657 352.844H81.0728H80.9937H80.9891H80.8682H80.7891H80.6868H80.4496H80.3427H79.8125V354.969H80.0543H80.3055H80.3613H80.9333H80.9891H80.9937H81.0728H81.1286H81.8913V352.844H81.5657Z" fill="#7DFFE1"/>
<path d="M81.5657 352.844H81.0728H80.9937H80.9891H80.8682H80.7891H80.6868H80.4496H80.3427H79.8125V354.969H80.0543H80.3055H80.3613H80.9333H80.9891H80.9937H81.0728H81.1286H81.8913V352.844H81.5657Z" fill="url(#paint153_linear_2016_4283)"/>
<path d="M78.9369 352.844H78.9136H78.6113V354.969H78.9136H78.9369H79.6809V352.844H78.9369Z" fill="#7DFFE1"/>
<path d="M78.9369 352.844H78.9136H78.6113V354.969H78.9136H78.9369H79.6809V352.844H78.9369Z" fill="url(#paint154_linear_2016_4283)"/>
<path d="M78.2302 352.844H78.1186H77.8117H77.7698H77.435H77.3559H77.3234H77.2536H77.1699V354.969H77.2536H77.3234H77.3559H77.435H77.7698H77.8117H78.1186H78.2302H78.3139V352.844H78.2302Z" fill="#7DFFE1"/>
<path d="M78.2302 352.844H78.1186H77.8117H77.7698H77.435H77.3559H77.3234H77.2536H77.1699V354.969H77.2536H77.3234H77.3559H77.435H77.7698H77.8117H78.1186H78.2302H78.3139V352.844H78.2302Z" fill="url(#paint155_linear_2016_4283)"/>
<path d="M5.33866 350.663H4.65039V155.537L4.7527 155.439L24.4476 135.741V70.125H65.3952L89.0709 93.8043H170.929L184.318 80.4161H255.247L255.35 80.5184L289.14 114.307H382.866L394.13 103.049H413.169V103.733H394.413L383.15 114.996H288.856L254.964 81.1043H184.601L171.213 94.4879H88.7872L88.6896 94.3902L65.1115 70.8132H25.1358V136.024L25.0335 136.127L5.33866 155.82V350.663Z" fill="#7DFFE1"/>
<path d="M5.33866 350.663H4.65039V155.537L4.7527 155.439L24.4476 135.741V70.125H65.3952L89.0709 93.8043H170.929L184.318 80.4161H255.247L255.35 80.5184L289.14 114.307H382.866L394.13 103.049H413.169V103.733H394.413L383.15 114.996H288.856L254.964 81.1043H184.601L171.213 94.4879H88.7872L88.6896 94.3902L65.1115 70.8132H25.1358V136.024L25.0335 136.127L5.33866 155.82V350.663Z" fill="url(#paint156_linear_2016_4283)"/>
<path d="M360.924 383.922H325.785L325.697 383.833L305.291 363.433H234.445L222.86 375.016H161.469L161.381 374.928L132.134 345.682H51.0198L41.2724 355.429H24.791V354.834H41.0259L50.7734 345.092H132.38L132.469 345.175L161.716 374.421H222.614L234.198 362.837H305.537L305.625 362.926L326.032 383.326H360.924V383.922Z" fill="#7DFFE1"/>
<path d="M360.924 383.922H325.785L325.697 383.833L305.291 363.433H234.445L222.86 375.016H161.469L161.381 374.928L132.134 345.682H51.0198L41.2724 355.429H24.791V354.834H41.0259L50.7734 345.092H132.38L132.469 345.175L161.716 374.421H222.614L234.198 362.837H305.537L305.625 362.926L326.032 383.326H360.924V383.922Z" fill="url(#paint157_linear_2016_4283)"/>
<path d="M343.773 100.426H300.11L300.026 100.343L273.579 73.8964H91.707V73.3011H273.825L273.909 73.3895L300.356 99.8357H343.527L376.364 67H419.907V67.5952H376.611L343.773 100.426Z" fill="#7DFFE1"/>
<path d="M343.773 100.426H300.11L300.026 100.343L273.579 73.8964H91.707V73.3011H273.825L273.909 73.3895L300.356 99.8357H343.527L376.364 67H419.907V67.5952H376.611L343.773 100.426Z" fill="url(#paint158_linear_2016_4283)"/>
<path d="M376.491 344.176H365.427L365.339 344.087L351.466 330.216H272.933L259.898 343.255H150.844V342.66H259.652L272.687 329.625H351.713L351.801 329.709L365.674 343.581H376.491V344.176Z" fill="#7DFFE1"/>
<path d="M376.491 344.176H365.427L365.339 344.087L351.466 330.216H272.933L259.898 343.255H150.844V342.66H259.652L272.687 329.625H351.713L351.801 329.709L365.674 343.581H376.491V344.176Z" fill="url(#paint159_linear_2016_4283)"/>
<path d="M133.725 376.123H15.3329L15.2446 376.035L3.26953 364.06L3.69273 363.642L15.5794 375.528H133.725V376.123Z" fill="#7DFFE1"/>
<path d="M133.725 376.123H15.3329L15.2446 376.035L3.26953 364.06L3.69273 363.642L15.5794 375.528H133.725V376.123Z" fill="url(#paint160_linear_2016_4283)"/>
<path d="M374.541 329.327H373.857V237.596L373.955 237.493L408.918 202.537V134.262H409.601V202.821L374.541 237.879V329.327Z" fill="#7DFFE1"/>
<path d="M374.541 329.327H373.857V237.596L373.955 237.493L408.918 202.537V134.262H409.601V202.821L374.541 237.879V329.327Z" fill="url(#paint161_linear_2016_4283)"/>
<path d="M394.72 128.979V197.231L363.957 227.998V303.234L352.777 314.414H240.323L220.507 334.229H24.791V155.239L45.4485 134.583V94.3948H69.3521L90.9397 115.981H185.856V97.8174H240.323L265.901 123.399H360.924H394.72V128.979Z" fill="#7DFFE1"/>
<path d="M394.72 128.979V197.231L363.957 227.998V303.234L352.777 314.414H240.323L220.507 334.229H24.791V155.239L45.4485 134.583V94.3948H69.3521L90.9397 115.981H185.856V97.8174H240.323L265.901 123.399H360.924H394.72V128.979Z" fill="url(#paint162_linear_2016_4283)"/>
<path d="M98.7852 74.8194C99.3403 72.4672 97.8835 70.1104 95.5313 69.5553C93.1791 69.0001 90.8221 70.4568 90.267 72.809C89.7118 75.1611 91.1686 77.5179 93.5208 78.0731C95.8731 78.6282 98.23 77.1715 98.7852 74.8194Z" fill="#7DFFE1"/>
<path d="M98.7852 74.8194C99.3403 72.4672 97.8835 70.1104 95.5313 69.5553C93.1791 69.0001 90.8221 70.4568 90.267 72.809C89.7118 75.1611 91.1686 77.5179 93.5208 78.0731C95.8731 78.6282 98.23 77.1715 98.7852 74.8194Z" fill="url(#paint163_linear_2016_4283)"/>
<path d="M413.169 107.346C415.586 107.346 417.545 105.387 417.545 102.97C417.545 100.553 415.586 98.594 413.169 98.594C410.752 98.594 408.793 100.553 408.793 102.97C408.793 105.387 410.752 107.346 413.169 107.346Z" fill="#7DFFE1"/>
<path d="M413.169 107.346C415.586 107.346 417.545 105.387 417.545 102.97C417.545 100.553 415.586 98.594 413.169 98.594C410.752 98.594 408.793 100.553 408.793 102.97C408.793 105.387 410.752 107.346 413.169 107.346Z" fill="url(#paint164_linear_2016_4283)"/>
<path d="M411.885 137.877C413.594 136.168 413.594 133.397 411.885 131.688C410.176 129.979 407.405 129.979 405.696 131.688C403.987 133.397 403.987 136.168 405.696 137.877C407.405 139.586 410.176 139.586 411.885 137.877Z" fill="#7DFFE1"/>
<path d="M411.885 137.877C413.594 136.168 413.594 133.397 411.885 131.688C410.176 129.979 407.405 129.979 405.696 131.688C403.987 133.397 403.987 136.168 405.696 137.877C407.405 139.586 410.176 139.586 411.885 137.877Z" fill="url(#paint165_linear_2016_4283)"/>
<path d="M377.293 333.016C379.002 331.307 379.002 328.536 377.293 326.827C375.584 325.118 372.813 325.118 371.104 326.827C369.395 328.536 369.395 331.307 371.104 333.016C372.813 334.725 375.584 334.725 377.293 333.016Z" fill="#7DFFE1"/>
<path d="M377.293 333.016C379.002 331.307 379.002 328.536 377.293 326.827C375.584 325.118 372.813 325.118 371.104 326.827C369.395 328.536 369.395 331.307 371.104 333.016C372.813 334.725 375.584 334.725 377.293 333.016Z" fill="url(#paint166_linear_2016_4283)"/>
<path d="M380.732 344.868C381.288 342.516 379.831 340.159 377.479 339.604C375.126 339.049 372.769 340.506 372.214 342.858C371.659 345.21 373.116 347.567 375.468 348.122C377.82 348.677 380.177 347.22 380.732 344.868Z" fill="#7DFFE1"/>
<path d="M380.732 344.868C381.288 342.516 379.831 340.159 377.479 339.604C375.126 339.049 372.769 340.506 372.214 342.858C371.659 345.21 373.116 347.567 375.468 348.122C377.82 348.677 380.177 347.22 380.732 344.868Z" fill="url(#paint167_linear_2016_4283)"/>
<path d="M360.15 388C362.566 388 364.526 386.041 364.526 383.624C364.526 381.207 362.566 379.248 360.15 379.248C357.733 379.248 355.773 381.207 355.773 383.624C355.773 386.041 357.733 388 360.15 388Z" fill="#7DFFE1"/>
<path d="M360.15 388C362.566 388 364.526 386.041 364.526 383.624C364.526 381.207 362.566 379.248 360.15 379.248C357.733 379.248 355.773 381.207 355.773 383.624C355.773 386.041 357.733 388 360.15 388Z" fill="url(#paint168_linear_2016_4283)"/>
<path d="M155.098 344.871C155.653 342.519 154.196 340.162 151.844 339.607C149.492 339.051 147.135 340.508 146.579 342.86C146.024 345.212 147.481 347.569 149.833 348.124C152.186 348.679 154.542 347.223 155.098 344.871Z" fill="#7DFFE1"/>
<path d="M155.098 344.871C155.653 342.519 154.196 340.162 151.844 339.607C149.492 339.051 147.135 340.508 146.579 342.86C146.024 345.212 147.481 347.569 149.833 348.124C152.186 348.679 154.542 347.223 155.098 344.871Z" fill="url(#paint169_linear_2016_4283)"/>
<path d="M29.0508 355.762C29.606 353.41 28.1492 351.054 25.7969 350.498C23.4447 349.943 21.0878 351.4 20.5326 353.752C19.9774 356.104 21.4342 358.461 23.7865 359.016C26.1387 359.571 28.4956 358.115 29.0508 355.762Z" fill="#7DFFE1"/>
<path d="M29.0508 355.762C29.606 353.41 28.1492 351.054 25.7969 350.498C23.4447 349.943 21.0878 351.4 20.5326 353.752C19.9774 356.104 21.4342 358.461 23.7865 359.016C26.1387 359.571 28.4956 358.115 29.0508 355.762Z" fill="url(#paint170_linear_2016_4283)"/>
<path d="M137.982 376.817C138.538 374.465 137.081 372.108 134.729 371.553C132.376 370.997 130.019 372.454 129.464 374.806C128.909 377.158 130.366 379.515 132.718 380.07C135.07 380.626 137.427 379.169 137.982 376.817Z" fill="#7DFFE1"/>
<path d="M137.982 376.817C138.538 374.465 137.081 372.108 134.729 371.553C132.376 370.997 130.019 372.454 129.464 374.806C128.909 377.158 130.366 379.515 132.718 380.07C135.07 380.626 137.427 379.169 137.982 376.817Z" fill="url(#paint171_linear_2016_4283)"/>
<path d="M4.37612 368.227C6.79298 368.227 8.75224 366.268 8.75224 363.851C8.75224 361.434 6.79298 359.475 4.37612 359.475C1.95926 359.475 0 361.434 0 363.851C0 366.268 1.95926 368.227 4.37612 368.227Z" fill="#7DFFE1"/>
<path d="M4.37612 368.227C6.79298 368.227 8.75224 366.268 8.75224 363.851C8.75224 361.434 6.79298 359.475 4.37612 359.475C1.95926 359.475 0 361.434 0 363.851C0 366.268 1.95926 368.227 4.37612 368.227Z" fill="url(#paint172_linear_2016_4283)"/>
<path d="M4.99526 355.039C7.41213 355.039 9.37138 353.08 9.37138 350.663C9.37138 348.246 7.41213 346.287 4.99526 346.287C2.5784 346.287 0.619141 348.246 0.619141 350.663C0.619141 353.08 2.5784 355.039 4.99526 355.039Z" fill="#7DFFE1"/>
<path d="M4.99526 355.039C7.41213 355.039 9.37138 353.08 9.37138 350.663C9.37138 348.246 7.41213 346.287 4.99526 346.287C2.5784 346.287 0.619141 348.246 0.619141 350.663C0.619141 353.08 2.5784 355.039 4.99526 355.039Z" fill="url(#paint173_linear_2016_4283)"/>
<path d="M296.53 375.342L292.67 379.206H295.962L296.53 378.639V375.342Z" fill="#7DFFE1"/>
<path d="M296.53 375.342L292.67 379.206H295.962L296.53 378.639V375.342Z" fill="url(#paint174_linear_2016_4283)"/>
<path d="M296.529 372.445H294.236L287.475 379.206H290.772L296.529 373.445V372.445Z" fill="#7DFFE1"/>
<path d="M296.529 372.445H294.236L287.475 379.206H290.772L296.529 373.445V372.445Z" fill="url(#paint175_linear_2016_4283)"/>
<path d="M289.047 372.445L282.285 379.206H285.578L292.34 372.445H289.047Z" fill="#7DFFE1"/>
<path d="M289.047 372.445L282.285 379.206H285.578L292.34 372.445H289.047Z" fill="url(#paint176_linear_2016_4283)"/>
<path d="M283.852 372.445L277.09 379.206H280.387L287.149 372.445H283.852Z" fill="#7DFFE1"/>
<path d="M283.852 372.445L277.09 379.206H280.387L287.149 372.445H283.852Z" fill="url(#paint177_linear_2016_4283)"/>
<path d="M278.662 372.445L271.9 379.206H275.198L281.959 372.445H278.662Z" fill="#7DFFE1"/>
<path d="M278.662 372.445L271.9 379.206H275.198L281.959 372.445H278.662Z" fill="url(#paint178_linear_2016_4283)"/>
<path d="M273.473 372.445L266.711 379.206H270.003L276.765 372.445H273.473Z" fill="#7DFFE1"/>
<path d="M273.473 372.445L266.711 379.206H270.003L276.765 372.445H273.473Z" fill="url(#paint179_linear_2016_4283)"/>
<path d="M268.277 372.445L261.516 379.206H264.813L271.575 372.445H268.277Z" fill="#7DFFE1"/>
<path d="M268.277 372.445L261.516 379.206H264.813L271.575 372.445H268.277Z" fill="url(#paint180_linear_2016_4283)"/>
<path d="M263.088 372.445L256.326 379.206H259.623L266.385 372.445H263.088Z" fill="#7DFFE1"/>
<path d="M263.088 372.445L256.326 379.206H259.623L266.385 372.445H263.088Z" fill="url(#paint181_linear_2016_4283)"/>
<path d="M257.899 372.445L252.137 378.202V379.206H254.429L261.191 372.445H257.899Z" fill="#7DFFE1"/>
<path d="M257.899 372.445L252.137 378.202V379.206H254.429L261.191 372.445H257.899Z" fill="url(#paint182_linear_2016_4283)"/>
<path d="M252.137 376.309L256.001 372.445H252.704L252.137 373.012V376.309Z" fill="#7DFFE1"/>
<path d="M252.137 376.309L256.001 372.445H252.704L252.137 373.012V376.309Z" fill="url(#paint183_linear_2016_4283)"/>
<path d="M298.344 381.173C298.399 381.117 298.418 381.038 298.395 380.969V374.742C298.395 374.63 298.302 374.537 298.19 374.537C298.079 374.537 297.985 374.626 297.985 374.742V380.829H291.898C291.786 380.829 291.693 380.922 291.693 381.034C291.693 381.145 291.786 381.238 291.898 381.238H298.125C298.199 381.262 298.278 381.243 298.33 381.187L298.339 381.178L298.344 381.173Z" fill="#7DFFE1"/>
<path d="M298.344 381.173C298.399 381.117 298.418 381.038 298.395 380.969V374.742C298.395 374.63 298.302 374.537 298.19 374.537C298.079 374.537 297.985 374.626 297.985 374.742V380.829H291.898C291.786 380.829 291.693 380.922 291.693 381.034C291.693 381.145 291.786 381.238 291.898 381.238H298.125C298.199 381.262 298.278 381.243 298.33 381.187L298.339 381.178L298.344 381.173Z" fill="url(#paint184_linear_2016_4283)"/>
<path d="M250.681 376.909V370.822H256.768C256.88 370.822 256.973 370.734 256.973 370.617C256.973 370.501 256.88 370.413 256.768 370.413H250.541C250.541 370.413 250.499 370.403 250.476 370.403C250.425 370.403 250.374 370.422 250.332 370.464L250.323 370.473C250.267 370.529 250.248 370.608 250.272 370.678V376.904C250.272 377.016 250.36 377.109 250.476 377.109C250.592 377.109 250.681 377.016 250.681 376.904V376.909Z" fill="#7DFFE1"/>
<path d="M250.681 376.909V370.822H256.768C256.88 370.822 256.973 370.734 256.973 370.617C256.973 370.501 256.88 370.413 256.768 370.413H250.541C250.541 370.413 250.499 370.403 250.476 370.403C250.425 370.403 250.374 370.422 250.332 370.464L250.323 370.473C250.267 370.529 250.248 370.608 250.272 370.678V376.904C250.272 377.016 250.36 377.109 250.476 377.109C250.592 377.109 250.681 377.016 250.681 376.904V376.909Z" fill="url(#paint185_linear_2016_4283)"/>
<path d="M365.637 73.4035H350.043C349.913 73.4035 349.792 73.4547 349.699 73.5477L344.76 78.4863C344.667 78.5793 344.547 78.6304 344.416 78.6304H335.855C335.422 78.6304 335.204 78.105 335.511 77.798L345.119 68.1905C345.212 68.0975 345.332 68.0464 345.463 68.0464H365.641C365.911 68.0464 366.13 68.265 366.13 68.5347V72.9152C366.13 73.185 365.911 73.4035 365.641 73.4035H365.637Z" fill="#7DFFE1"/>
<path d="M365.637 73.4035H350.043C349.913 73.4035 349.792 73.4547 349.699 73.5477L344.76 78.4863C344.667 78.5793 344.547 78.6304 344.416 78.6304H335.855C335.422 78.6304 335.204 78.105 335.511 77.798L345.119 68.1905C345.212 68.0975 345.332 68.0464 345.463 68.0464H365.641C365.911 68.0464 366.13 68.265 366.13 68.5347V72.9152C366.13 73.185 365.911 73.4035 365.641 73.4035H365.637Z" fill="url(#paint186_linear_2016_4283)"/>
<path d="M342.129 68.9019L332.502 78.528C332.409 78.621 332.288 78.6721 332.158 78.6721H324.15C323.717 78.6721 323.499 78.1466 323.806 77.8397L325.735 75.9098C326.042 75.6029 325.824 75.0774 325.391 75.0774C324.959 75.0774 324.74 74.552 325.047 74.245L331.051 68.2415C331.144 68.1485 331.265 68.0974 331.395 68.0974H339.929L341.775 68.0695C342.212 68.0602 342.435 68.5903 342.129 68.9019Z" fill="#7DFFE1"/>
<path d="M342.129 68.9019L332.502 78.528C332.409 78.621 332.288 78.6721 332.158 78.6721H324.15C323.717 78.6721 323.499 78.1466 323.806 77.8397L325.735 75.9098C326.042 75.6029 325.824 75.0774 325.391 75.0774C324.959 75.0774 324.74 74.552 325.047 74.245L331.051 68.2415C331.144 68.1485 331.265 68.0974 331.395 68.0974H339.929L341.775 68.0695C342.212 68.0602 342.435 68.5903 342.129 68.9019Z" fill="url(#paint187_linear_2016_4283)"/>
<path d="M328.279 68.9019L318.652 78.528C318.559 78.621 318.438 78.6721 318.308 78.6721H310.3C309.868 78.6721 309.649 78.1466 309.956 77.8397L311.886 75.9098C312.193 75.6029 311.974 75.0774 311.542 75.0774C311.109 75.0774 310.891 74.552 311.198 74.245L317.201 68.2415C317.294 68.1485 317.415 68.0974 317.546 68.0974H326.079L327.925 68.0695C328.363 68.0602 328.586 68.5903 328.279 68.9019Z" fill="#7DFFE1"/>
<path d="M328.279 68.9019L318.652 78.528C318.559 78.621 318.438 78.6721 318.308 78.6721H310.3C309.868 78.6721 309.649 78.1466 309.956 77.8397L311.886 75.9098C312.193 75.6029 311.974 75.0774 311.542 75.0774C311.109 75.0774 310.891 74.552 311.198 74.245L317.201 68.2415C317.294 68.1485 317.415 68.0974 317.546 68.0974H326.079L327.925 68.0695C328.363 68.0602 328.586 68.5903 328.279 68.9019Z" fill="url(#paint188_linear_2016_4283)"/>
<path d="M314.429 68.9019L304.803 78.528C304.71 78.621 304.589 78.6721 304.459 78.6721H296.45C296.018 78.6721 295.799 78.1466 296.106 77.8397L298.036 75.9098C298.343 75.6029 298.125 75.0774 297.692 75.0774C297.26 75.0774 297.041 74.552 297.348 74.245L303.352 68.2415C303.445 68.1485 303.566 68.0974 303.696 68.0974H312.23L314.076 68.0695C314.513 68.0602 314.736 68.5903 314.429 68.9019Z" fill="#7DFFE1"/>
<path d="M314.429 68.9019L304.803 78.528C304.71 78.621 304.589 78.6721 304.459 78.6721H296.45C296.018 78.6721 295.799 78.1466 296.106 77.8397L298.036 75.9098C298.343 75.6029 298.125 75.0774 297.692 75.0774C297.26 75.0774 297.041 74.552 297.348 74.245L303.352 68.2415C303.445 68.1485 303.566 68.0974 303.696 68.0974H312.23L314.076 68.0695C314.513 68.0602 314.736 68.5903 314.429 68.9019Z" fill="url(#paint189_linear_2016_4283)"/>
<path d="M300.896 68.6091L292.446 77.0587C292.395 77.1098 292.362 77.1842 292.362 77.2586V78.2677C292.362 78.4212 292.237 78.5514 292.079 78.5514H286.354C286.201 78.5514 286.07 78.4258 286.07 78.2677V68.4138C286.07 68.2603 286.196 68.1348 286.354 68.1348H300.691C300.729 68.1348 300.771 68.1441 300.803 68.158C300.984 68.2371 301.031 68.4742 300.891 68.6137L300.896 68.6091Z" fill="#7DFFE1"/>
<path d="M300.896 68.6091L292.446 77.0587C292.395 77.1098 292.362 77.1842 292.362 77.2586V78.2677C292.362 78.4212 292.237 78.5514 292.079 78.5514H286.354C286.201 78.5514 286.07 78.4258 286.07 78.2677V68.4138C286.07 68.2603 286.196 68.1348 286.354 68.1348H300.691C300.729 68.1348 300.771 68.1441 300.803 68.158C300.984 68.2371 301.031 68.4742 300.891 68.6137L300.896 68.6091Z" fill="url(#paint190_linear_2016_4283)"/>
<path d="M199.625 197.862L232.75 230.793V197.862H246V132H73.75V197.862H199.625ZM206.25 224.207H34V290.069H47.25V323L80.375 290.069H206.25V224.207Z" fill="white"/>
<path d="M366.094 161.276L380.312 175.414V161.276H386V133H312.062V161.276H366.094ZM368.938 172.586H295V200.862H300.688V215L314.906 200.862H368.938V172.586Z" fill="white"/>
</g>
<path d="M24.2812 24.4828L11.9375 36.7241V24.4828H7V0H71.1875V24.4828H24.2812ZM21.8125 34.2759H86V58.7586H81.0625V71L68.7188 58.7586H21.8125V34.2759Z" fill="#7DFFE1"/>
<path d="M24.2812 24.4828L11.9375 36.7241V24.4828H7V0H71.1875V24.4828H24.2812ZM21.8125 34.2759H86V58.7586H81.0625V71L68.7188 58.7586H21.8125V34.2759Z" fill="url(#paint191_linear_2016_4283)"/>
<defs>
<linearGradient id="paint0_linear_2016_4283" x1="412.48" y1="233.248" x2="412.48" y2="236.917" gradientUnits="userSpaceOnUse">
<stop stop-color="#7DFFE1"/>
<stop offset="1" stop-color="#079085"/>
</linearGradient>
<linearGradient id="paint1_linear_2016_4283" x1="412.48" y1="237.721" x2="412.48" y2="240.911" gradientUnits="userSpaceOnUse">
<stop stop-color="#7DFFE1"/>
<stop offset="1" stop-color="#079085"/>
</linearGradient>
<linearGradient id="paint2_linear_2016_4283" x1="412.48" y1="241.042" x2="412.48" y2="242.265" gradientUnits="userSpaceOnUse">
<stop stop-color="#7DFFE1"/>
<stop offset="1" stop-color="#079085"/>
</linearGradient>
<linearGradient id="paint3_linear_2016_4283" x1="412.48" y1="270.32" x2="412.48" y2="273.989" gradientUnits="userSpaceOnUse">
<stop stop-color="#7DFFE1"/>
<stop offset="1" stop-color="#079085"/>
</linearGradient>
<linearGradient id="paint4_linear_2016_4283" x1="412.48" y1="266.321" x2="412.48" y2="269.511" gradientUnits="userSpaceOnUse">
<stop stop-color="#7DFFE1"/>
<stop offset="1" stop-color="#079085"/>
</linearGradient>
<linearGradient id="paint5_linear_2016_4283" x1="412.48" y1="264.972" x2="412.48" y2="266.195" gradientUnits="userSpaceOnUse">
<stop stop-color="#7DFFE1"/>
<stop offset="1" stop-color="#079085"/>
</linearGradient>
<linearGradient id="paint6_linear_2016_4283" x1="412.48" y1="243.818" x2="412.48" y2="244.813" gradientUnits="userSpaceOnUse">
<stop stop-color="#7DFFE1"/>
<stop offset="1" stop-color="#079085"/>
</linearGradient>
<linearGradient id="paint7_linear_2016_4283" x1="412.48" y1="262.633" x2="412.48" y2="264.288" gradientUnits="userSpaceOnUse">
<stop stop-color="#7DFFE1"/>
<stop offset="1" stop-color="#079085"/>
</linearGradient>
<linearGradient id="paint8_linear_2016_4283" x1="412.48" y1="246.055" x2="412.48" y2="248.673" gradientUnits="userSpaceOnUse">
<stop stop-color="#7DFFE1"/>
<stop offset="1" stop-color="#079085"/>
</linearGradient>
<linearGradient id="paint9_linear_2016_4283" x1="412.48" y1="249.012" x2="412.48" y2="251.947" gradientUnits="userSpaceOnUse">
<stop stop-color="#7DFFE1"/>
<stop offset="1" stop-color="#079085"/>
</linearGradient>
<linearGradient id="paint10_linear_2016_4283" x1="412.48" y1="252.384" x2="412.48" y2="255.974" gradientUnits="userSpaceOnUse">
<stop stop-color="#7DFFE1"/>
<stop offset="1" stop-color="#079085"/>
</linearGradient>
<linearGradient id="paint11_linear_2016_4283" x1="412.48" y1="256.974" x2="412.48" y2="260.801" gradientUnits="userSpaceOnUse">
<stop stop-color="#7DFFE1"/>
<stop offset="1" stop-color="#079085"/>
</linearGradient>
<linearGradient id="paint12_linear_2016_4283" x1="412.48" y1="277.881" x2="412.48" y2="281.55" gradientUnits="userSpaceOnUse">
<stop stop-color="#7DFFE1"/>
<stop offset="1" stop-color="#079085"/>
</linearGradient>
<linearGradient id="paint13_linear_2016_4283" x1="412.48" y1="282.355" x2="412.48" y2="285.545" gradientUnits="userSpaceOnUse">
<stop stop-color="#7DFFE1"/>
<stop offset="1" stop-color="#079085"/>
</linearGradient>
<linearGradient id="paint14_linear_2016_4283" x1="412.48" y1="285.67" x2="412.48" y2="286.893" gradientUnits="userSpaceOnUse">
<stop stop-color="#7DFFE1"/>
<stop offset="1" stop-color="#079085"/>
</linearGradient>
<linearGradient id="paint15_linear_2016_4283" x1="412.479" y1="314.953" x2="412.479" y2="319.459" gradientUnits="userSpaceOnUse">
<stop stop-color="#7DFFE1"/>
<stop offset="1" stop-color="#079085"/>
</linearGradient>
<linearGradient id="paint16_linear_2016_4283" x1="412.48" y1="310.954" x2="412.48" y2="314.144" gradientUnits="userSpaceOnUse">
<stop stop-color="#7DFFE1"/>
<stop offset="1" stop-color="#079085"/>
</linearGradient>
<linearGradient id="paint17_linear_2016_4283" x1="412.48" y1="309.605" x2="412.48" y2="310.828" gradientUnits="userSpaceOnUse">
<stop stop-color="#7DFFE1"/>
<stop offset="1" stop-color="#079085"/>
</linearGradient>
<linearGradient id="paint18_linear_2016_4283" x1="412.48" y1="288.451" x2="412.48" y2="289.446" gradientUnits="userSpaceOnUse">
<stop stop-color="#7DFFE1"/>
<stop offset="1" stop-color="#079085"/>
</linearGradient>
<linearGradient id="paint19_linear_2016_4283" x1="412.48" y1="307.266" x2="412.48" y2="308.922" gradientUnits="userSpaceOnUse">
<stop stop-color="#7DFFE1"/>
<stop offset="1" stop-color="#079085"/>
</linearGradient>
<linearGradient id="paint20_linear_2016_4283" x1="412.48" y1="290.688" x2="412.48" y2="293.306" gradientUnits="userSpaceOnUse">
<stop stop-color="#7DFFE1"/>
<stop offset="1" stop-color="#079085"/>
</linearGradient>
<linearGradient id="paint21_linear_2016_4283" x1="412.48" y1="293.646" x2="412.48" y2="296.58" gradientUnits="userSpaceOnUse">
<stop stop-color="#7DFFE1"/>
<stop offset="1" stop-color="#079085"/>
</linearGradient>
<linearGradient id="paint22_linear_2016_4283" x1="412.48" y1="297.017" x2="412.48" y2="300.607" gradientUnits="userSpaceOnUse">
<stop stop-color="#7DFFE1"/>
<stop offset="1" stop-color="#079085"/>
</linearGradient>
<linearGradient id="paint23_linear_2016_4283" x1="412.48" y1="301.607" x2="412.48" y2="305.434" gradientUnits="userSpaceOnUse">
<stop stop-color="#7DFFE1"/>
<stop offset="1" stop-color="#079085"/>
</linearGradient>
<linearGradient id="paint24_linear_2016_4283" x1="412.476" y1="320.045" x2="412.476" y2="322.371" gradientUnits="userSpaceOnUse">
<stop stop-color="#7DFFE1"/>
<stop offset="1" stop-color="#079085"/>
</linearGradient>
<linearGradient id="paint25_linear_2016_4283" x1="412.476" y1="322.459" x2="412.476" y2="323.352" gradientUnits="userSpaceOnUse">
<stop stop-color="#7DFFE1"/>
<stop offset="1" stop-color="#079085"/>
</linearGradient>
<linearGradient id="paint26_linear_2016_4283" x1="412.476" y1="324.482" x2="412.476" y2="325.207" gradientUnits="userSpaceOnUse">
<stop stop-color="#7DFFE1"/>
<stop offset="1" stop-color="#079085"/>
</linearGradient>
<linearGradient id="paint27_linear_2016_4283" x1="412.479" y1="326.109" x2="412.479" y2="328.016" gradientUnits="userSpaceOnUse">
<stop stop-color="#7DFFE1"/>
<stop offset="1" stop-color="#079085"/>
</linearGradient>
<linearGradient id="paint28_linear_2016_4283" x1="412.479" y1="328.267" x2="412.479" y2="333.601" gradientUnits="userSpaceOnUse">
<stop stop-color="#7DFFE1"/>
<stop offset="1" stop-color="#079085"/>
</linearGradient>
<linearGradient id="paint29_linear_2016_4283" x1="412.48" y1="334.066" x2="412.48" y2="337.214" gradientUnits="userSpaceOnUse">
<stop stop-color="#7DFFE1"/>
<stop offset="1" stop-color="#079085"/>
</linearGradient>
<linearGradient id="paint30_linear_2016_4283" x1="412.48" y1="337.331" x2="412.48" y2="339.395" gradientUnits="userSpaceOnUse">
<stop stop-color="#7DFFE1"/>
<stop offset="1" stop-color="#079085"/>
</linearGradient>
<linearGradient id="paint31_linear_2016_4283" x1="412.48" y1="363.804" x2="412.48" y2="367.125" gradientUnits="userSpaceOnUse">
<stop stop-color="#7DFFE1"/>
<stop offset="1" stop-color="#079085"/>
</linearGradient>
<linearGradient id="paint32_linear_2016_4283" x1="412.48" y1="360.191" x2="412.48" y2="363.079" gradientUnits="userSpaceOnUse">
<stop stop-color="#7DFFE1"/>
<stop offset="1" stop-color="#079085"/>
</linearGradient>
<linearGradient id="paint33_linear_2016_4283" x1="412.48" y1="358.973" x2="412.48" y2="360.08" gradientUnits="userSpaceOnUse">
<stop stop-color="#7DFFE1"/>
<stop offset="1" stop-color="#079085"/>
</linearGradient>
<linearGradient id="paint34_linear_2016_4283" x1="412.48" y1="339.842" x2="412.48" y2="340.781" gradientUnits="userSpaceOnUse">
<stop stop-color="#7DFFE1"/>
<stop offset="1" stop-color="#079085"/>
</linearGradient>
<linearGradient id="paint35_linear_2016_4283" x1="412.48" y1="356.857" x2="412.48" y2="358.354" gradientUnits="userSpaceOnUse">
<stop stop-color="#7DFFE1"/>
<stop offset="1" stop-color="#079085"/>
</linearGradient>
<linearGradient id="paint36_linear_2016_4283" x1="412.48" y1="340.874" x2="412.48" y2="347.194" gradientUnits="userSpaceOnUse">
<stop stop-color="#7DFFE1"/>
<stop offset="1" stop-color="#079085"/>
</linearGradient>
<linearGradient id="paint37_linear_2016_4283" x1="412.48" y1="347.589" x2="412.48" y2="350.835" gradientUnits="userSpaceOnUse">
<stop stop-color="#7DFFE1"/>
<stop offset="1" stop-color="#079085"/>
</linearGradient>
<linearGradient id="paint38_linear_2016_4283" x1="412.48" y1="351.737" x2="412.48" y2="355.202" gradientUnits="userSpaceOnUse">
<stop stop-color="#7DFFE1"/>
<stop offset="1" stop-color="#079085"/>
</linearGradient>
<linearGradient id="paint39_linear_2016_4283" x1="395.657" y1="247.943" x2="395.657" y2="250.807" gradientUnits="userSpaceOnUse">
<stop stop-color="#7DFFE1"/>
<stop offset="1" stop-color="#079085"/>
</linearGradient>
<linearGradient id="paint40_linear_2016_4283" x1="395.655" y1="251.435" x2="395.655" y2="253.928" gradientUnits="userSpaceOnUse">
<stop stop-color="#7DFFE1"/>
<stop offset="1" stop-color="#079085"/>
</linearGradient>
<linearGradient id="paint41_linear_2016_4283" x1="395.655" y1="254.021" x2="395.655" y2="254.974" gradientUnits="userSpaceOnUse">
<stop stop-color="#7DFFE1"/>
<stop offset="1" stop-color="#079085"/>
</linearGradient>
<linearGradient id="paint42_linear_2016_4283" x1="395.657" y1="276.872" x2="395.657" y2="279.737" gradientUnits="userSpaceOnUse">
<stop stop-color="#7DFFE1"/>
<stop offset="1" stop-color="#079085"/>
</linearGradient>
<linearGradient id="paint43_linear_2016_4283" x1="395.655" y1="273.756" x2="395.655" y2="276.249" gradientUnits="userSpaceOnUse">
<stop stop-color="#7DFFE1"/>
<stop offset="1" stop-color="#079085"/>
</linearGradient>
<linearGradient id="paint44_linear_2016_4283" x1="395.655" y1="272.701" x2="395.655" y2="273.654" gradientUnits="userSpaceOnUse">
<stop stop-color="#7DFFE1"/>
<stop offset="1" stop-color="#079085"/>
</linearGradient>
<linearGradient id="paint45_linear_2016_4283" x1="395.655" y1="256.188" x2="395.655" y2="256.964" gradientUnits="userSpaceOnUse">
<stop stop-color="#7DFFE1"/>
<stop offset="1" stop-color="#079085"/>
</linearGradient>
<linearGradient id="paint46_linear_2016_4283" x1="395.655" y1="270.878" x2="395.655" y2="272.171" gradientUnits="userSpaceOnUse">
<stop stop-color="#7DFFE1"/>
<stop offset="1" stop-color="#079085"/>
</linearGradient>
<linearGradient id="paint47_linear_2016_4283" x1="395.657" y1="257.936" x2="395.657" y2="259.978" gradientUnits="userSpaceOnUse">
<stop stop-color="#7DFFE1"/>
<stop offset="1" stop-color="#079085"/>
</linearGradient>
<linearGradient id="paint48_linear_2016_4283" x1="395.657" y1="260.247" x2="395.657" y2="262.535" gradientUnits="userSpaceOnUse">
<stop stop-color="#7DFFE1"/>
<stop offset="1" stop-color="#079085"/>
</linearGradient>
<linearGradient id="paint49_linear_2016_4283" x1="395.657" y1="262.875" x2="395.657" y2="265.679" gradientUnits="userSpaceOnUse">
<stop stop-color="#7DFFE1"/>
<stop offset="1" stop-color="#079085"/>
</linearGradient>
<linearGradient id="paint50_linear_2016_4283" x1="395.657" y1="266.46" x2="395.657" y2="269.446" gradientUnits="userSpaceOnUse">
<stop stop-color="#7DFFE1"/>
<stop offset="1" stop-color="#079085"/>
</linearGradient>
<linearGradient id="paint51_linear_2016_4283" x1="395.657" y1="282.778" x2="395.657" y2="285.642" gradientUnits="userSpaceOnUse">
<stop stop-color="#7DFFE1"/>
<stop offset="1" stop-color="#079085"/>
</linearGradient>
<linearGradient id="paint52_linear_2016_4283" x1="395.655" y1="286.27" x2="395.655" y2="288.763" gradientUnits="userSpaceOnUse">
<stop stop-color="#7DFFE1"/>
<stop offset="1" stop-color="#079085"/>
</linearGradient>
<linearGradient id="paint53_linear_2016_4283" x1="395.655" y1="288.856" x2="395.655" y2="289.809" gradientUnits="userSpaceOnUse">
<stop stop-color="#7DFFE1"/>
<stop offset="1" stop-color="#079085"/>
</linearGradient>
<linearGradient id="paint54_linear_2016_4283" x1="395.657" y1="311.712" x2="395.657" y2="315.228" gradientUnits="userSpaceOnUse">
<stop stop-color="#7DFFE1"/>
<stop offset="1" stop-color="#079085"/>
</linearGradient>
<linearGradient id="paint55_linear_2016_4283" x1="395.655" y1="308.592" x2="395.655" y2="311.084" gradientUnits="userSpaceOnUse">
<stop stop-color="#7DFFE1"/>
<stop offset="1" stop-color="#079085"/>
</linearGradient>
<linearGradient id="paint56_linear_2016_4283" x1="395.655" y1="307.541" x2="395.655" y2="308.494" gradientUnits="userSpaceOnUse">
<stop stop-color="#7DFFE1"/>
<stop offset="1" stop-color="#079085"/>
</linearGradient>
<linearGradient id="paint57_linear_2016_4283" x1="395.655" y1="291.028" x2="395.655" y2="291.804" gradientUnits="userSpaceOnUse">
<stop stop-color="#7DFFE1"/>
<stop offset="1" stop-color="#079085"/>
</linearGradient>
<linearGradient id="paint58_linear_2016_4283" x1="395.655" y1="305.713" x2="395.655" y2="307.006" gradientUnits="userSpaceOnUse">
<stop stop-color="#7DFFE1"/>
<stop offset="1" stop-color="#079085"/>
</linearGradient>
<linearGradient id="paint59_linear_2016_4283" x1="395.657" y1="292.771" x2="395.657" y2="294.813" gradientUnits="userSpaceOnUse">
<stop stop-color="#7DFFE1"/>
<stop offset="1" stop-color="#079085"/>
</linearGradient>
<linearGradient id="paint60_linear_2016_4283" x1="395.657" y1="295.083" x2="395.657" y2="297.37" gradientUnits="userSpaceOnUse">
<stop stop-color="#7DFFE1"/>
<stop offset="1" stop-color="#079085"/>
</linearGradient>
<linearGradient id="paint61_linear_2016_4283" x1="395.657" y1="297.71" x2="395.657" y2="300.514" gradientUnits="userSpaceOnUse">
<stop stop-color="#7DFFE1"/>
<stop offset="1" stop-color="#079085"/>
</linearGradient>
<linearGradient id="paint62_linear_2016_4283" x1="395.657" y1="301.295" x2="395.657" y2="304.281" gradientUnits="userSpaceOnUse">
<stop stop-color="#7DFFE1"/>
<stop offset="1" stop-color="#079085"/>
</linearGradient>
<linearGradient id="paint63_linear_2016_4283" x1="395.655" y1="315.683" x2="395.655" y2="317.497" gradientUnits="userSpaceOnUse">
<stop stop-color="#7DFFE1"/>
<stop offset="1" stop-color="#079085"/>
</linearGradient>
<linearGradient id="paint64_linear_2016_4283" x1="395.655" y1="317.571" x2="395.655" y2="318.269" gradientUnits="userSpaceOnUse">
<stop stop-color="#7DFFE1"/>
<stop offset="1" stop-color="#079085"/>
</linearGradient>
<linearGradient id="paint65_linear_2016_4283" x1="395.655" y1="319.148" x2="395.655" y2="319.711" gradientUnits="userSpaceOnUse">
<stop stop-color="#7DFFE1"/>
<stop offset="1" stop-color="#079085"/>
</linearGradient>
<linearGradient id="paint66_linear_2016_4283" x1="395.657" y1="320.422" x2="395.657" y2="321.91" gradientUnits="userSpaceOnUse">
<stop stop-color="#7DFFE1"/>
<stop offset="1" stop-color="#079085"/>
</linearGradient>
<linearGradient id="paint67_linear_2016_4283" x1="395.657" y1="322.105" x2="395.657" y2="326.267" gradientUnits="userSpaceOnUse">
<stop stop-color="#7DFFE1"/>
<stop offset="1" stop-color="#079085"/>
</linearGradient>
<linearGradient id="paint68_linear_2016_4283" x1="395.657" y1="326.63" x2="395.657" y2="329.09" gradientUnits="userSpaceOnUse">
<stop stop-color="#7DFFE1"/>
<stop offset="1" stop-color="#079085"/>
</linearGradient>
<linearGradient id="paint69_linear_2016_4283" x1="395.657" y1="329.174" x2="395.657" y2="330.787" gradientUnits="userSpaceOnUse">
<stop stop-color="#7DFFE1"/>
<stop offset="1" stop-color="#079085"/>
</linearGradient>
<linearGradient id="paint70_linear_2016_4283" x1="395.657" y1="349.84" x2="395.657" y2="352.43" gradientUnits="userSpaceOnUse">
<stop stop-color="#7DFFE1"/>
<stop offset="1" stop-color="#079085"/>
</linearGradient>
<linearGradient id="paint71_linear_2016_4283" x1="395.655" y1="347.022" x2="395.655" y2="349.272" gradientUnits="userSpaceOnUse">
<stop stop-color="#7DFFE1"/>
<stop offset="1" stop-color="#079085"/>
</linearGradient>
<linearGradient id="paint72_linear_2016_4283" x1="395.655" y1="346.068" x2="395.655" y2="346.933" gradientUnits="userSpaceOnUse">
<stop stop-color="#7DFFE1"/>
<stop offset="1" stop-color="#079085"/>
</linearGradient>
<linearGradient id="paint73_linear_2016_4283" x1="395.657" y1="331.136" x2="395.657" y2="331.871" gradientUnits="userSpaceOnUse">
<stop stop-color="#7DFFE1"/>
<stop offset="1" stop-color="#079085"/>
</linearGradient>
<linearGradient id="paint74_linear_2016_4283" x1="395.655" y1="344.417" x2="395.655" y2="345.589" gradientUnits="userSpaceOnUse">
<stop stop-color="#7DFFE1"/>
<stop offset="1" stop-color="#079085"/>
</linearGradient>
<linearGradient id="paint75_linear_2016_4283" x1="395.657" y1="331.941" x2="395.657" y2="336.875" gradientUnits="userSpaceOnUse">
<stop stop-color="#7DFFE1"/>
<stop offset="1" stop-color="#079085"/>
</linearGradient>
<linearGradient id="paint76_linear_2016_4283" x1="395.657" y1="337.182" x2="395.657" y2="339.716" gradientUnits="userSpaceOnUse">
<stop stop-color="#7DFFE1"/>
<stop offset="1" stop-color="#079085"/>
</linearGradient>
<linearGradient id="paint77_linear_2016_4283" x1="395.657" y1="340.423" x2="395.657" y2="343.125" gradientUnits="userSpaceOnUse">
<stop stop-color="#7DFFE1"/>
<stop offset="1" stop-color="#079085"/>
</linearGradient>
<linearGradient id="paint78_linear_2016_4283" x1="122.794" y1="356.146" x2="122.794" y2="365.869" gradientUnits="userSpaceOnUse">
<stop stop-color="#7DFFE1"/>
<stop offset="1" stop-color="#079085"/>
</linearGradient>
<linearGradient id="paint79_linear_2016_4283" x1="121.006" y1="356.146" x2="121.006" y2="365.874" gradientUnits="userSpaceOnUse">
<stop stop-color="#7DFFE1"/>
<stop offset="1" stop-color="#079085"/>
</linearGradient>
<linearGradient id="paint80_linear_2016_4283" x1="120.022" y1="356.146" x2="120.022" y2="365.874" gradientUnits="userSpaceOnUse">
<stop stop-color="#7DFFE1"/>
<stop offset="1" stop-color="#079085"/>
</linearGradient>
<linearGradient id="paint81_linear_2016_4283" x1="107.141" y1="356.146" x2="107.141" y2="365.869" gradientUnits="userSpaceOnUse">
<stop stop-color="#7DFFE1"/>
<stop offset="1" stop-color="#079085"/>
</linearGradient>
<linearGradient id="paint82_linear_2016_4283" x1="108.928" y1="356.146" x2="108.928" y2="365.874" gradientUnits="userSpaceOnUse">
<stop stop-color="#7DFFE1"/>
<stop offset="1" stop-color="#079085"/>
</linearGradient>
<linearGradient id="paint83_linear_2016_4283" x1="109.912" y1="356.146" x2="109.912" y2="365.874" gradientUnits="userSpaceOnUse">
<stop stop-color="#7DFFE1"/>
<stop offset="1" stop-color="#079085"/>
</linearGradient>
<linearGradient id="paint84_linear_2016_4283" x1="118.895" y1="356.146" x2="118.895" y2="365.874" gradientUnits="userSpaceOnUse">
<stop stop-color="#7DFFE1"/>
<stop offset="1" stop-color="#079085"/>
</linearGradient>
<linearGradient id="paint85_linear_2016_4283" x1="110.81" y1="356.146" x2="110.81" y2="365.874" gradientUnits="userSpaceOnUse">
<stop stop-color="#7DFFE1"/>
<stop offset="1" stop-color="#079085"/>
</linearGradient>
<linearGradient id="paint86_linear_2016_4283" x1="117.61" y1="356.146" x2="117.61" y2="365.869" gradientUnits="userSpaceOnUse">
<stop stop-color="#7DFFE1"/>
<stop offset="1" stop-color="#079085"/>
</linearGradient>
<linearGradient id="paint87_linear_2016_4283" x1="116.293" y1="356.146" x2="116.293" y2="365.869" gradientUnits="userSpaceOnUse">
<stop stop-color="#7DFFE1"/>
<stop offset="1" stop-color="#079085"/>
</linearGradient>
<linearGradient id="paint88_linear_2016_4283" x1="114.733" y1="356.146" x2="114.733" y2="365.869" gradientUnits="userSpaceOnUse">
<stop stop-color="#7DFFE1"/>
<stop offset="1" stop-color="#079085"/>
</linearGradient>
<linearGradient id="paint89_linear_2016_4283" x1="112.743" y1="356.146" x2="112.743" y2="365.869" gradientUnits="userSpaceOnUse">
<stop stop-color="#7DFFE1"/>
<stop offset="1" stop-color="#079085"/>
</linearGradient>
<linearGradient id="paint90_linear_2016_4283" x1="103.946" y1="356.146" x2="103.946" y2="365.869" gradientUnits="userSpaceOnUse">
<stop stop-color="#7DFFE1"/>
<stop offset="1" stop-color="#079085"/>
</linearGradient>
<linearGradient id="paint91_linear_2016_4283" x1="102.157" y1="356.146" x2="102.157" y2="365.874" gradientUnits="userSpaceOnUse">
<stop stop-color="#7DFFE1"/>
<stop offset="1" stop-color="#079085"/>
</linearGradient>
<linearGradient id="paint92_linear_2016_4283" x1="101.174" y1="356.146" x2="101.174" y2="365.874" gradientUnits="userSpaceOnUse">
<stop stop-color="#7DFFE1"/>
<stop offset="1" stop-color="#079085"/>
</linearGradient>
<linearGradient id="paint93_linear_2016_4283" x1="88.1151" y1="356.146" x2="88.1151" y2="365.869" gradientUnits="userSpaceOnUse">
<stop stop-color="#7DFFE1"/>
<stop offset="1" stop-color="#079085"/>
</linearGradient>
<linearGradient id="paint94_linear_2016_4283" x1="90.0806" y1="356.146" x2="90.0806" y2="365.874" gradientUnits="userSpaceOnUse">
<stop stop-color="#7DFFE1"/>
<stop offset="1" stop-color="#079085"/>
</linearGradient>
<linearGradient id="paint95_linear_2016_4283" x1="91.0686" y1="356.146" x2="91.0686" y2="365.874" gradientUnits="userSpaceOnUse">
<stop stop-color="#7DFFE1"/>
<stop offset="1" stop-color="#079085"/>
</linearGradient>
<linearGradient id="paint96_linear_2016_4283" x1="100.047" y1="356.146" x2="100.047" y2="365.874" gradientUnits="userSpaceOnUse">
<stop stop-color="#7DFFE1"/>
<stop offset="1" stop-color="#079085"/>
</linearGradient>
<linearGradient id="paint97_linear_2016_4283" x1="91.964" y1="356.146" x2="91.964" y2="365.874" gradientUnits="userSpaceOnUse">
<stop stop-color="#7DFFE1"/>
<stop offset="1" stop-color="#079085"/>
</linearGradient>
<linearGradient id="paint98_linear_2016_4283" x1="98.7624" y1="356.146" x2="98.7624" y2="365.869" gradientUnits="userSpaceOnUse">
<stop stop-color="#7DFFE1"/>
<stop offset="1" stop-color="#079085"/>
</linearGradient>
<linearGradient id="paint99_linear_2016_4283" x1="97.4451" y1="356.146" x2="97.4451" y2="365.869" gradientUnits="userSpaceOnUse">
<stop stop-color="#7DFFE1"/>
<stop offset="1" stop-color="#079085"/>
</linearGradient>
<linearGradient id="paint100_linear_2016_4283" x1="95.883" y1="356.146" x2="95.883" y2="365.869" gradientUnits="userSpaceOnUse">
<stop stop-color="#7DFFE1"/>
<stop offset="1" stop-color="#079085"/>
</linearGradient>
<linearGradient id="paint101_linear_2016_4283" x1="93.8932" y1="356.146" x2="93.8932" y2="365.869" gradientUnits="userSpaceOnUse">
<stop stop-color="#7DFFE1"/>
<stop offset="1" stop-color="#079085"/>
</linearGradient>
<linearGradient id="paint102_linear_2016_4283" x1="86.4281" y1="356.146" x2="86.4281" y2="365.874" gradientUnits="userSpaceOnUse">
<stop stop-color="#7DFFE1"/>
<stop offset="1" stop-color="#079085"/>
</linearGradient>
<linearGradient id="paint103_linear_2016_4283" x1="85.7118" y1="356.146" x2="85.7118" y2="365.874" gradientUnits="userSpaceOnUse">
<stop stop-color="#7DFFE1"/>
<stop offset="1" stop-color="#079085"/>
</linearGradient>
<linearGradient id="paint104_linear_2016_4283" x1="84.8898" y1="356.146" x2="84.8898" y2="365.874" gradientUnits="userSpaceOnUse">
<stop stop-color="#7DFFE1"/>
<stop offset="1" stop-color="#079085"/>
</linearGradient>
<linearGradient id="paint105_linear_2016_4283" x1="83.953" y1="356.146" x2="83.953" y2="365.869" gradientUnits="userSpaceOnUse">
<stop stop-color="#7DFFE1"/>
<stop offset="1" stop-color="#079085"/>
</linearGradient>
<linearGradient id="paint106_linear_2016_4283" x1="82.3188" y1="356.146" x2="82.3188" y2="365.869" gradientUnits="userSpaceOnUse">
<stop stop-color="#7DFFE1"/>
<stop offset="1" stop-color="#079085"/>
</linearGradient>
<linearGradient id="paint107_linear_2016_4283" x1="80.333" y1="356.146" x2="80.333" y2="365.869" gradientUnits="userSpaceOnUse">
<stop stop-color="#7DFFE1"/>
<stop offset="1" stop-color="#079085"/>
</linearGradient>
<linearGradient id="paint108_linear_2016_4283" x1="79.1809" y1="356.146" x2="79.1809" y2="365.869" gradientUnits="userSpaceOnUse">
<stop stop-color="#7DFFE1"/>
<stop offset="1" stop-color="#079085"/>
</linearGradient>
<linearGradient id="paint109_linear_2016_4283" x1="67.737" y1="356.146" x2="67.737" y2="365.869" gradientUnits="userSpaceOnUse">
<stop stop-color="#7DFFE1"/>
<stop offset="1" stop-color="#079085"/>
</linearGradient>
<linearGradient id="paint110_linear_2016_4283" x1="69.3534" y1="356.146" x2="69.3534" y2="365.874" gradientUnits="userSpaceOnUse">
<stop stop-color="#7DFFE1"/>
<stop offset="1" stop-color="#079085"/>
</linearGradient>
<linearGradient id="paint111_linear_2016_4283" x1="70.2462" y1="356.146" x2="70.2462" y2="365.874" gradientUnits="userSpaceOnUse">
<stop stop-color="#7DFFE1"/>
<stop offset="1" stop-color="#079085"/>
</linearGradient>
<linearGradient id="paint112_linear_2016_4283" x1="78.3578" y1="356.146" x2="78.3578" y2="365.869" gradientUnits="userSpaceOnUse">
<stop stop-color="#7DFFE1"/>
<stop offset="1" stop-color="#079085"/>
</linearGradient>
<linearGradient id="paint113_linear_2016_4283" x1="71.0545" y1="356.146" x2="71.0545" y2="365.874" gradientUnits="userSpaceOnUse">
<stop stop-color="#7DFFE1"/>
<stop offset="1" stop-color="#079085"/>
</linearGradient>
<linearGradient id="paint114_linear_2016_4283" x1="76.7898" y1="356.146" x2="76.7898" y2="365.869" gradientUnits="userSpaceOnUse">
<stop stop-color="#7DFFE1"/>
<stop offset="1" stop-color="#079085"/>
</linearGradient>
<linearGradient id="paint115_linear_2016_4283" x1="74.602" y1="356.146" x2="74.602" y2="365.869" gradientUnits="userSpaceOnUse">
<stop stop-color="#7DFFE1"/>
<stop offset="1" stop-color="#079085"/>
</linearGradient>
<linearGradient id="paint116_linear_2016_4283" x1="72.8043" y1="356.146" x2="72.8043" y2="365.869" gradientUnits="userSpaceOnUse">
<stop stop-color="#7DFFE1"/>
<stop offset="1" stop-color="#079085"/>
</linearGradient>
<linearGradient id="paint117_linear_2016_4283" x1="116.761" y1="352.844" x2="116.761" y2="354.969" gradientUnits="userSpaceOnUse">
<stop stop-color="#7DFFE1"/>
<stop offset="1" stop-color="#079085"/>
</linearGradient>
<linearGradient id="paint118_linear_2016_4283" x1="115.365" y1="352.844" x2="115.365" y2="354.969" gradientUnits="userSpaceOnUse">
<stop stop-color="#7DFFE1"/>
<stop offset="1" stop-color="#079085"/>
</linearGradient>
<linearGradient id="paint119_linear_2016_4283" x1="114.595" y1="352.844" x2="114.595" y2="354.969" gradientUnits="userSpaceOnUse">
<stop stop-color="#7DFFE1"/>
<stop offset="1" stop-color="#079085"/>
</linearGradient>
<linearGradient id="paint120_linear_2016_4283" x1="104.544" y1="352.844" x2="104.544" y2="354.969" gradientUnits="userSpaceOnUse">
<stop stop-color="#7DFFE1"/>
<stop offset="1" stop-color="#079085"/>
</linearGradient>
<linearGradient id="paint121_linear_2016_4283" x1="105.938" y1="352.844" x2="105.938" y2="354.969" gradientUnits="userSpaceOnUse">
<stop stop-color="#7DFFE1"/>
<stop offset="1" stop-color="#079085"/>
</linearGradient>
<linearGradient id="paint122_linear_2016_4283" x1="106.708" y1="352.844" x2="106.708" y2="354.969" gradientUnits="userSpaceOnUse">
<stop stop-color="#7DFFE1"/>
<stop offset="1" stop-color="#079085"/>
</linearGradient>
<linearGradient id="paint123_linear_2016_4283" x1="113.719" y1="352.844" x2="113.719" y2="354.969" gradientUnits="userSpaceOnUse">
<stop stop-color="#7DFFE1"/>
<stop offset="1" stop-color="#079085"/>
</linearGradient>
<linearGradient id="paint124_linear_2016_4283" x1="107.405" y1="352.844" x2="107.405" y2="354.969" gradientUnits="userSpaceOnUse">
<stop stop-color="#7DFFE1"/>
<stop offset="1" stop-color="#079085"/>
</linearGradient>
<linearGradient id="paint125_linear_2016_4283" x1="112.711" y1="352.844" x2="112.711" y2="354.969" gradientUnits="userSpaceOnUse">
<stop stop-color="#7DFFE1"/>
<stop offset="1" stop-color="#079085"/>
</linearGradient>
<linearGradient id="paint126_linear_2016_4283" x1="111.687" y1="352.844" x2="111.687" y2="354.969" gradientUnits="userSpaceOnUse">
<stop stop-color="#7DFFE1"/>
<stop offset="1" stop-color="#079085"/>
</linearGradient>
<linearGradient id="paint127_linear_2016_4283" x1="110.466" y1="352.844" x2="110.466" y2="354.969" gradientUnits="userSpaceOnUse">
<stop stop-color="#7DFFE1"/>
<stop offset="1" stop-color="#079085"/>
</linearGradient>
<linearGradient id="paint128_linear_2016_4283" x1="108.916" y1="352.844" x2="108.916" y2="354.969" gradientUnits="userSpaceOnUse">
<stop stop-color="#7DFFE1"/>
<stop offset="1" stop-color="#079085"/>
</linearGradient>
<linearGradient id="paint129_linear_2016_4283" x1="102.05" y1="352.844" x2="102.05" y2="354.969" gradientUnits="userSpaceOnUse">
<stop stop-color="#7DFFE1"/>
<stop offset="1" stop-color="#079085"/>
</linearGradient>
<linearGradient id="paint130_linear_2016_4283" x1="100.651" y1="352.844" x2="100.651" y2="354.969" gradientUnits="userSpaceOnUse">
<stop stop-color="#7DFFE1"/>
<stop offset="1" stop-color="#079085"/>
</linearGradient>
<linearGradient id="paint131_linear_2016_4283" x1="99.8859" y1="352.844" x2="99.8859" y2="354.969" gradientUnits="userSpaceOnUse">
<stop stop-color="#7DFFE1"/>
<stop offset="1" stop-color="#079085"/>
</linearGradient>
<linearGradient id="paint132_linear_2016_4283" x1="89.6933" y1="352.844" x2="89.6933" y2="354.969" gradientUnits="userSpaceOnUse">
<stop stop-color="#7DFFE1"/>
<stop offset="1" stop-color="#079085"/>
</linearGradient>
<linearGradient id="paint133_linear_2016_4283" x1="91.2286" y1="352.844" x2="91.2286" y2="354.969" gradientUnits="userSpaceOnUse">
<stop stop-color="#7DFFE1"/>
<stop offset="1" stop-color="#079085"/>
</linearGradient>
<linearGradient id="paint134_linear_2016_4283" x1="91.9992" y1="352.844" x2="91.9992" y2="354.969" gradientUnits="userSpaceOnUse">
<stop stop-color="#7DFFE1"/>
<stop offset="1" stop-color="#079085"/>
</linearGradient>
<linearGradient id="paint135_linear_2016_4283" x1="99.0046" y1="352.844" x2="99.0046" y2="354.969" gradientUnits="userSpaceOnUse">
<stop stop-color="#7DFFE1"/>
<stop offset="1" stop-color="#079085"/>
</linearGradient>
<linearGradient id="paint136_linear_2016_4283" x1="92.6959" y1="352.844" x2="92.6959" y2="354.969" gradientUnits="userSpaceOnUse">
<stop stop-color="#7DFFE1"/>
<stop offset="1" stop-color="#079085"/>
</linearGradient>
<linearGradient id="paint137_linear_2016_4283" x1="98.0024" y1="352.844" x2="98.0024" y2="354.969" gradientUnits="userSpaceOnUse">
<stop stop-color="#7DFFE1"/>
<stop offset="1" stop-color="#079085"/>
</linearGradient>
<linearGradient id="paint138_linear_2016_4283" x1="96.9778" y1="352.844" x2="96.9778" y2="354.969" gradientUnits="userSpaceOnUse">
<stop stop-color="#7DFFE1"/>
<stop offset="1" stop-color="#079085"/>
</linearGradient>
<linearGradient id="paint139_linear_2016_4283" x1="95.757" y1="352.844" x2="95.757" y2="354.969" gradientUnits="userSpaceOnUse">
<stop stop-color="#7DFFE1"/>
<stop offset="1" stop-color="#079085"/>
</linearGradient>
<linearGradient id="paint140_linear_2016_4283" x1="94.2024" y1="352.844" x2="94.2024" y2="354.969" gradientUnits="userSpaceOnUse">
<stop stop-color="#7DFFE1"/>
<stop offset="1" stop-color="#079085"/>
</linearGradient>
<linearGradient id="paint141_linear_2016_4283" x1="88.3759" y1="352.844" x2="88.3759" y2="354.969" gradientUnits="userSpaceOnUse">
<stop stop-color="#7DFFE1"/>
<stop offset="1" stop-color="#079085"/>
</linearGradient>
<linearGradient id="paint142_linear_2016_4283" x1="87.8125" y1="352.844" x2="87.8125" y2="354.969" gradientUnits="userSpaceOnUse">
<stop stop-color="#7DFFE1"/>
<stop offset="1" stop-color="#079085"/>
</linearGradient>
<linearGradient id="paint143_linear_2016_4283" x1="87.1752" y1="352.844" x2="87.1752" y2="354.969" gradientUnits="userSpaceOnUse">
<stop stop-color="#7DFFE1"/>
<stop offset="1" stop-color="#079085"/>
</linearGradient>
<linearGradient id="paint144_linear_2016_4283" x1="86.4467" y1="352.844" x2="86.4467" y2="354.969" gradientUnits="userSpaceOnUse">
<stop stop-color="#7DFFE1"/>
<stop offset="1" stop-color="#079085"/>
</linearGradient>
<linearGradient id="paint145_linear_2016_4283" x1="85.17" y1="352.844" x2="85.17" y2="354.969" gradientUnits="userSpaceOnUse">
<stop stop-color="#7DFFE1"/>
<stop offset="1" stop-color="#079085"/>
</linearGradient>
<linearGradient id="paint146_linear_2016_4283" x1="83.6181" y1="352.844" x2="83.6181" y2="354.969" gradientUnits="userSpaceOnUse">
<stop stop-color="#7DFFE1"/>
<stop offset="1" stop-color="#079085"/>
</linearGradient>
<linearGradient id="paint147_linear_2016_4283" x1="82.7207" y1="352.844" x2="82.7207" y2="354.969" gradientUnits="userSpaceOnUse">
<stop stop-color="#7DFFE1"/>
<stop offset="1" stop-color="#079085"/>
</linearGradient>
<linearGradient id="paint148_linear_2016_4283" x1="73.7867" y1="352.844" x2="73.7867" y2="354.969" gradientUnits="userSpaceOnUse">
<stop stop-color="#7DFFE1"/>
<stop offset="1" stop-color="#079085"/>
</linearGradient>
<linearGradient id="paint149_linear_2016_4283" x1="75.0528" y1="352.844" x2="75.0528" y2="354.969" gradientUnits="userSpaceOnUse">
<stop stop-color="#7DFFE1"/>
<stop offset="1" stop-color="#079085"/>
</linearGradient>
<linearGradient id="paint150_linear_2016_4283" x1="75.7419" y1="352.844" x2="75.7419" y2="354.969" gradientUnits="userSpaceOnUse">
<stop stop-color="#7DFFE1"/>
<stop offset="1" stop-color="#079085"/>
</linearGradient>
<linearGradient id="paint151_linear_2016_4283" x1="82.0796" y1="352.844" x2="82.0796" y2="354.969" gradientUnits="userSpaceOnUse">
<stop stop-color="#7DFFE1"/>
<stop offset="1" stop-color="#079085"/>
</linearGradient>
<linearGradient id="paint152_linear_2016_4283" x1="76.3793" y1="352.844" x2="76.3793" y2="354.969" gradientUnits="userSpaceOnUse">
<stop stop-color="#7DFFE1"/>
<stop offset="1" stop-color="#079085"/>
</linearGradient>
<linearGradient id="paint153_linear_2016_4283" x1="80.8519" y1="352.844" x2="80.8519" y2="354.969" gradientUnits="userSpaceOnUse">
<stop stop-color="#7DFFE1"/>
<stop offset="1" stop-color="#079085"/>
</linearGradient>
<linearGradient id="paint154_linear_2016_4283" x1="79.1461" y1="352.844" x2="79.1461" y2="354.969" gradientUnits="userSpaceOnUse">
<stop stop-color="#7DFFE1"/>
<stop offset="1" stop-color="#079085"/>
</linearGradient>
<linearGradient id="paint155_linear_2016_4283" x1="77.7419" y1="352.844" x2="77.7419" y2="354.969" gradientUnits="userSpaceOnUse">
<stop stop-color="#7DFFE1"/>
<stop offset="1" stop-color="#079085"/>
</linearGradient>
<linearGradient id="paint156_linear_2016_4283" x1="208.91" y1="70.125" x2="208.91" y2="350.663" gradientUnits="userSpaceOnUse">
<stop stop-color="#7DFFE1"/>
<stop offset="1" stop-color="#079085"/>
</linearGradient>
<linearGradient id="paint157_linear_2016_4283" x1="192.858" y1="345.092" x2="192.858" y2="383.922" gradientUnits="userSpaceOnUse">
<stop stop-color="#7DFFE1"/>
<stop offset="1" stop-color="#079085"/>
</linearGradient>
<linearGradient id="paint158_linear_2016_4283" x1="255.807" y1="67" x2="255.807" y2="100.426" gradientUnits="userSpaceOnUse">
<stop stop-color="#7DFFE1"/>
<stop offset="1" stop-color="#079085"/>
</linearGradient>
<linearGradient id="paint159_linear_2016_4283" x1="263.667" y1="329.625" x2="263.667" y2="344.176" gradientUnits="userSpaceOnUse">
<stop stop-color="#7DFFE1"/>
<stop offset="1" stop-color="#079085"/>
</linearGradient>
<linearGradient id="paint160_linear_2016_4283" x1="68.4974" y1="363.642" x2="68.4974" y2="376.123" gradientUnits="userSpaceOnUse">
<stop stop-color="#7DFFE1"/>
<stop offset="1" stop-color="#079085"/>
</linearGradient>
<linearGradient id="paint161_linear_2016_4283" x1="391.729" y1="134.262" x2="391.729" y2="329.327" gradientUnits="userSpaceOnUse">
<stop stop-color="#7DFFE1"/>
<stop offset="1" stop-color="#079085"/>
</linearGradient>
<linearGradient id="paint162_linear_2016_4283" x1="209.755" y1="94.3948" x2="209.755" y2="334.229" gradientUnits="userSpaceOnUse">
<stop stop-color="#7DFFE1"/>
<stop offset="1" stop-color="#079085"/>
</linearGradient>
<linearGradient id="paint163_linear_2016_4283" x1="90.267" y1="72.809" x2="98.7851" y2="74.8195" gradientUnits="userSpaceOnUse">
<stop stop-color="#7DFFE1"/>
<stop offset="1" stop-color="#079085"/>
</linearGradient>
<linearGradient id="paint164_linear_2016_4283" x1="413.169" y1="98.594" x2="413.169" y2="107.346" gradientUnits="userSpaceOnUse">
<stop stop-color="#7DFFE1"/>
<stop offset="1" stop-color="#079085"/>
</linearGradient>
<linearGradient id="paint165_linear_2016_4283" x1="405.696" y1="131.688" x2="411.884" y2="137.877" gradientUnits="userSpaceOnUse">
<stop stop-color="#7DFFE1"/>
<stop offset="1" stop-color="#079085"/>
</linearGradient>
<linearGradient id="paint166_linear_2016_4283" x1="371.104" y1="326.827" x2="377.293" y2="333.016" gradientUnits="userSpaceOnUse">
<stop stop-color="#7DFFE1"/>
<stop offset="1" stop-color="#079085"/>
</linearGradient>
<linearGradient id="paint167_linear_2016_4283" x1="372.214" y1="342.858" x2="380.732" y2="344.868" gradientUnits="userSpaceOnUse">
<stop stop-color="#7DFFE1"/>
<stop offset="1" stop-color="#079085"/>
</linearGradient>
<linearGradient id="paint168_linear_2016_4283" x1="360.15" y1="379.248" x2="360.15" y2="388" gradientUnits="userSpaceOnUse">
<stop stop-color="#7DFFE1"/>
<stop offset="1" stop-color="#079085"/>
</linearGradient>
<linearGradient id="paint169_linear_2016_4283" x1="146.579" y1="342.86" x2="155.098" y2="344.871" gradientUnits="userSpaceOnUse">
<stop stop-color="#7DFFE1"/>
<stop offset="1" stop-color="#079085"/>
</linearGradient>
<linearGradient id="paint170_linear_2016_4283" x1="20.5326" y1="353.752" x2="29.0507" y2="355.763" gradientUnits="userSpaceOnUse">
<stop stop-color="#7DFFE1"/>
<stop offset="1" stop-color="#079085"/>
</linearGradient>
<linearGradient id="paint171_linear_2016_4283" x1="129.464" y1="374.806" x2="137.982" y2="376.817" gradientUnits="userSpaceOnUse">
<stop stop-color="#7DFFE1"/>
<stop offset="1" stop-color="#079085"/>
</linearGradient>
<linearGradient id="paint172_linear_2016_4283" x1="4.37612" y1="359.475" x2="4.37612" y2="368.227" gradientUnits="userSpaceOnUse">
<stop stop-color="#7DFFE1"/>
<stop offset="1" stop-color="#079085"/>
</linearGradient>
<linearGradient id="paint173_linear_2016_4283" x1="4.99526" y1="346.287" x2="4.99526" y2="355.039" gradientUnits="userSpaceOnUse">
<stop stop-color="#7DFFE1"/>
<stop offset="1" stop-color="#079085"/>
</linearGradient>
<linearGradient id="paint174_linear_2016_4283" x1="294.6" y1="375.342" x2="294.6" y2="379.206" gradientUnits="userSpaceOnUse">
<stop stop-color="#7DFFE1"/>
<stop offset="1" stop-color="#079085"/>
</linearGradient>
<linearGradient id="paint175_linear_2016_4283" x1="292.002" y1="372.445" x2="292.002" y2="379.206" gradientUnits="userSpaceOnUse">
<stop stop-color="#7DFFE1"/>
<stop offset="1" stop-color="#079085"/>
</linearGradient>
<linearGradient id="paint176_linear_2016_4283" x1="287.312" y1="372.445" x2="287.312" y2="379.206" gradientUnits="userSpaceOnUse">
<stop stop-color="#7DFFE1"/>
<stop offset="1" stop-color="#079085"/>
</linearGradient>
<linearGradient id="paint177_linear_2016_4283" x1="282.119" y1="372.445" x2="282.119" y2="379.206" gradientUnits="userSpaceOnUse">
<stop stop-color="#7DFFE1"/>
<stop offset="1" stop-color="#079085"/>
</linearGradient>
<linearGradient id="paint178_linear_2016_4283" x1="276.93" y1="372.445" x2="276.93" y2="379.206" gradientUnits="userSpaceOnUse">
<stop stop-color="#7DFFE1"/>
<stop offset="1" stop-color="#079085"/>
</linearGradient>
<linearGradient id="paint179_linear_2016_4283" x1="271.738" y1="372.445" x2="271.738" y2="379.206" gradientUnits="userSpaceOnUse">
<stop stop-color="#7DFFE1"/>
<stop offset="1" stop-color="#079085"/>
</linearGradient>
<linearGradient id="paint180_linear_2016_4283" x1="266.545" y1="372.445" x2="266.545" y2="379.206" gradientUnits="userSpaceOnUse">
<stop stop-color="#7DFFE1"/>
<stop offset="1" stop-color="#079085"/>
</linearGradient>
<linearGradient id="paint181_linear_2016_4283" x1="261.356" y1="372.445" x2="261.356" y2="379.206" gradientUnits="userSpaceOnUse">
<stop stop-color="#7DFFE1"/>
<stop offset="1" stop-color="#079085"/>
</linearGradient>
<linearGradient id="paint182_linear_2016_4283" x1="256.664" y1="372.445" x2="256.664" y2="379.206" gradientUnits="userSpaceOnUse">
<stop stop-color="#7DFFE1"/>
<stop offset="1" stop-color="#079085"/>
</linearGradient>
<linearGradient id="paint183_linear_2016_4283" x1="254.069" y1="372.445" x2="254.069" y2="376.309" gradientUnits="userSpaceOnUse">
<stop stop-color="#7DFFE1"/>
<stop offset="1" stop-color="#079085"/>
</linearGradient>
<linearGradient id="paint184_linear_2016_4283" x1="295.049" y1="374.537" x2="295.049" y2="381.248" gradientUnits="userSpaceOnUse">
<stop stop-color="#7DFFE1"/>
<stop offset="1" stop-color="#079085"/>
</linearGradient>
<linearGradient id="paint185_linear_2016_4283" x1="253.617" y1="370.403" x2="253.617" y2="377.109" gradientUnits="userSpaceOnUse">
<stop stop-color="#7DFFE1"/>
<stop offset="1" stop-color="#079085"/>
</linearGradient>
<linearGradient id="paint186_linear_2016_4283" x1="350.748" y1="68.0464" x2="350.748" y2="78.6304" gradientUnits="userSpaceOnUse">
<stop stop-color="#7DFFE1"/>
<stop offset="1" stop-color="#079085"/>
</linearGradient>
<linearGradient id="paint187_linear_2016_4283" x1="332.966" y1="68.0693" x2="332.966" y2="78.6721" gradientUnits="userSpaceOnUse">
<stop stop-color="#7DFFE1"/>
<stop offset="1" stop-color="#079085"/>
</linearGradient>
<linearGradient id="paint188_linear_2016_4283" x1="319.117" y1="68.0693" x2="319.117" y2="78.6721" gradientUnits="userSpaceOnUse">
<stop stop-color="#7DFFE1"/>
<stop offset="1" stop-color="#079085"/>
</linearGradient>
<linearGradient id="paint189_linear_2016_4283" x1="305.267" y1="68.0693" x2="305.267" y2="78.6721" gradientUnits="userSpaceOnUse">
<stop stop-color="#7DFFE1"/>
<stop offset="1" stop-color="#079085"/>
</linearGradient>
<linearGradient id="paint190_linear_2016_4283" x1="293.522" y1="68.1348" x2="293.522" y2="78.5514" gradientUnits="userSpaceOnUse">
<stop stop-color="#7DFFE1"/>
<stop offset="1" stop-color="#079085"/>
</linearGradient>
<linearGradient id="paint191_linear_2016_4283" x1="46.5" y1="0" x2="46.5" y2="71" gradientUnits="userSpaceOnUse">
<stop stop-color="#7DFFE1"/>
<stop offset="1" stop-color="#079085"/>
</linearGradient>
<clipPath id="clip0_2016_4283">
<rect width="424" height="321" fill="white" transform="translate(0 67)"/>
</clipPath>
</defs>
</svg>
