<svg width="24" height="24" viewBox="0 0 24 24" fill="none" xmlns="http://www.w3.org/2000/svg">
<path d="M11.9847 15.4083L15.2267 19.0943C16.4267 20.4593 17.0277 21.1423 17.6567 20.9753C18.2847 20.8093 18.5007 19.9113 18.9317 18.1143L21.3217 8.14628C21.9867 5.37828 22.3187 3.99528 21.5807 3.31228C20.8427 2.62928 19.5637 3.13728 17.0057 4.15228L5.13974 8.86528C3.09374 9.67828 2.07074 10.0843 2.00574 10.7823C1.99809 10.8534 1.99809 10.9252 2.00574 10.9963C2.06874 11.6953 3.08974 12.1043 5.13374 12.9233C6.05874 13.2943 6.52174 13.4803 6.85374 13.8353C6.89107 13.8753 6.92707 13.9166 6.96174 13.9593C7.26774 14.3393 7.39774 14.8393 7.65874 15.8353L8.14774 17.7023C8.40074 18.6723 8.52774 19.1583 8.86074 19.2243C9.19374 19.2903 9.48274 18.8883 10.0617 18.0833L11.9847 15.4083ZM11.9847 15.4083L11.6677 15.0783C11.3057 14.7003 11.1247 14.5123 11.1247 14.2783C11.1247 14.0443 11.3047 13.8553 11.6677 13.4783L15.2407 9.75428" stroke="#7DFFE1" stroke-width="1.5" stroke-linecap="round" stroke-linejoin="round"/>
</svg>
