<svg width="72" height="72" viewBox="0 0 72 72" fill="none" xmlns="http://www.w3.org/2000/svg">
<path d="M48.0001 12C48.7957 12 49.5588 11.6839 50.1214 11.1213C50.684 10.5587 51.0001 9.79565 51.0001 9C51.0001 8.20435 50.684 7.44129 50.1214 6.87868C49.5588 6.31607 48.7957 6 48.0001 6C47.2044 6 46.4414 6.31607 45.8788 6.87868C45.3161 7.44129 45.0001 8.20435 45.0001 9C45.0001 9.79565 45.3161 10.5587 45.8788 11.1213C46.4414 11.6839 47.2044 12 48.0001 12ZM24.0001 28.5C24.0001 26.1131 24.9483 23.8239 26.6361 22.136C28.3239 20.4482 30.6131 19.5 33.0001 19.5C35.9838 19.5 38.8452 20.6853 40.955 22.795C43.0648 24.9048 44.2501 27.7663 44.2501 30.75C44.2501 34.3304 42.8278 37.7642 40.296 40.2959C37.7643 42.8277 34.3305 44.25 30.7501 44.25C30.1533 44.25 29.581 44.4871 29.1591 44.909C28.7371 45.331 28.5001 45.9033 28.5001 46.5C28.5001 47.0967 28.7371 47.669 29.1591 48.091C29.581 48.5129 30.1533 48.75 30.7501 48.75C35.524 48.75 40.1023 46.8536 43.478 43.4779C46.8537 40.1023 48.7501 35.5239 48.7501 30.75C48.7501 22.05 41.7001 15 33.0001 15C29.4197 15 25.9859 16.4223 23.4541 18.9541C20.9224 21.4858 19.5001 24.9196 19.5001 28.5C19.5001 31.4837 20.6853 34.3452 22.7951 36.455C24.9049 38.5647 27.7664 39.75 30.7501 39.75C33.137 39.75 35.4262 38.8018 37.114 37.114C38.8019 35.4261 39.7501 33.1369 39.7501 30.75C39.7501 28.9598 39.0389 27.2429 37.773 25.977C36.5072 24.7112 34.7903 24 33.0001 24C31.8066 24 30.662 24.4741 29.8181 25.318C28.9742 26.1619 28.5001 27.3065 28.5001 28.5C28.5001 29.0967 28.7371 29.669 29.1591 30.091C29.581 30.5129 30.1533 30.75 30.7501 30.75C31.3468 30.75 31.9191 30.5129 32.3411 30.091C32.763 29.669 33.0001 29.0967 33.0001 28.5C33.5968 28.5 34.1691 28.7371 34.5911 29.159C35.013 29.581 35.2501 30.1533 35.2501 30.75C35.2501 31.9435 34.776 33.0881 33.9321 33.932C33.0881 34.7759 31.9436 35.25 30.7501 35.25C28.9599 35.25 27.243 34.5388 25.9771 33.273C24.7112 32.0071 24.0001 30.2902 24.0001 28.5ZM58.5001 12.75C59.0968 12.75 59.6691 12.9871 60.0911 13.409C60.513 13.831 60.7501 14.4033 60.7501 15V17.25H63.0001C63.5968 17.25 64.1691 17.4871 64.5911 17.909C65.013 18.331 65.2501 18.9033 65.2501 19.5C65.2501 20.0967 65.013 20.669 64.5911 21.091C64.1691 21.5129 63.5968 21.75 63.0001 21.75H60.7501V24C60.7501 24.5967 60.513 25.169 60.0911 25.591C59.6691 26.0129 59.0968 26.25 58.5001 26.25C57.9033 26.25 57.331 26.0129 56.9091 25.591C56.4871 25.169 56.2501 24.5967 56.2501 24V21.75H54.0001C53.4033 21.75 52.831 21.5129 52.4091 21.091C51.9871 20.669 51.7501 20.0967 51.7501 19.5C51.7501 18.9033 51.9871 18.331 52.4091 17.909C52.831 17.4871 53.4033 17.25 54.0001 17.25H56.2501V15C56.2501 14.4033 56.4871 13.831 56.9091 13.409C57.331 12.9871 57.9033 12.75 58.5001 12.75ZM16.5001 38.25C16.5 37.8428 16.3895 37.4432 16.1802 37.0939C15.9709 36.7445 15.6708 36.4585 15.3117 36.2664C14.9527 36.0742 14.5482 35.9831 14.1415 36.0028C13.7347 36.0224 13.3409 36.1521 13.0021 36.378L4.00208 42.378C3.75269 42.5403 3.53799 42.7505 3.37038 42.9964C3.20278 43.2422 3.0856 43.5189 3.02564 43.8103C2.96569 44.1018 2.96413 44.4022 3.02108 44.6943C3.07802 44.9864 3.19232 45.2642 3.35738 45.5118C3.52243 45.7594 3.73496 45.9718 3.98265 46.1367C4.23034 46.3015 4.50827 46.4157 4.80037 46.4724C5.09246 46.5292 5.39291 46.5274 5.68432 46.4673C5.97574 46.4071 6.25232 46.2898 6.49808 46.122L12.0001 42.453V56.25C12.0001 57.5304 12.2523 58.7982 12.7423 59.9812C13.2322 61.1641 13.9504 62.2389 14.8558 63.1443C15.7612 64.0497 16.836 64.7678 18.0189 65.2578C19.2018 65.7478 20.4697 66 21.7501 66H50.2501C51.5305 66 52.7983 65.7478 53.9812 65.2578C55.1642 64.7678 56.239 64.0497 57.1444 63.1443C58.0497 62.2389 58.7679 61.1641 59.2579 59.9812C59.7479 58.7982 60.0001 57.5304 60.0001 56.25V42.453L65.5021 46.122C65.7478 46.2898 66.0244 46.4071 66.3158 46.4673C66.6072 46.5274 66.9077 46.5292 67.1998 46.4724C67.4919 46.4157 67.7698 46.3015 68.0175 46.1367C68.2652 45.9718 68.4777 45.7594 68.6428 45.5118C68.8078 45.2642 68.9221 44.9864 68.9791 44.6943C69.036 44.4022 69.0345 44.1018 68.9745 43.8103C68.9146 43.5189 68.7974 43.2422 68.6298 42.9964C68.4622 42.7505 68.2475 42.5403 67.9981 42.378L58.9981 36.378C58.6592 36.1521 58.2654 36.0224 57.8587 36.0028C57.4519 35.9831 57.0475 36.0742 56.6884 36.2664C56.3294 36.4585 56.0292 36.7445 55.8199 37.0939C55.6107 37.4432 55.5001 37.8428 55.5001 38.25V56.25C55.5001 57.6424 54.9469 58.9777 53.9624 59.9623C52.9778 60.9469 51.6425 61.5 50.2501 61.5H21.7501C20.3577 61.5 19.0223 60.9469 18.0378 59.9623C17.0532 58.9777 16.5001 57.6424 16.5001 56.25V38.25Z" fill="#7DFFE1"/>
</svg>
