<svg width="225" height="45" viewBox="0 0 225 45" fill="none" xmlns="http://www.w3.org/2000/svg">
<g clip-path="url(#clip0_38_148)">
<path d="M50.1198 5.45459H53.7715V16.3873C53.7715 16.4259 53.7909 16.4517 53.8362 16.4517H72.1077V19.9759H50.178V16.4517H53.2923C53.3506 16.4517 53.3571 16.4324 53.3118 16.3873L50.1133 14.085V5.45459H50.1198Z" fill="white"/>
<path d="M79.191 19.9759L73.7847 15.6799V5.45459H95.8568V8.9788H77.4817C77.4817 8.9788 77.4428 8.99166 77.4428 9.01738V13.5577C77.4428 13.6156 77.4623 13.622 77.5076 13.577L79.6572 11.1525H90.9749V14.2651H77.5076C77.4687 14.2651 77.4428 14.2844 77.4428 14.3294C77.4428 14.6767 77.4428 15.024 77.4299 15.3648C77.4234 15.7121 77.4299 16.0594 77.4428 16.4002C77.4428 16.4259 77.4558 16.4388 77.4817 16.4388H95.8568V19.963H79.191V19.9759Z" fill="white"/>
<path d="M101.179 5.45459V16.4066C101.179 16.4066 101.192 16.4452 101.218 16.4452H116.588C116.588 16.4452 116.627 16.4324 116.627 16.4066V5.45459H120.279V13.7506L113.092 19.9759H102.085L97.5142 14.5802V5.45459H101.166H101.179Z" fill="white"/>
<path d="M127.369 19.9759L121.962 15.6799V5.45459H144.034V8.9788H125.659C125.659 8.9788 125.621 8.99166 125.621 9.01738V13.5577C125.621 13.6156 125.64 13.622 125.685 13.577L127.835 11.1525H139.153V14.2651H125.685C125.646 14.2651 125.621 14.2844 125.621 14.3294C125.621 14.6767 125.621 15.024 125.608 15.3648C125.601 15.7121 125.608 16.0594 125.621 16.4002C125.621 16.4259 125.634 16.4388 125.659 16.4388H144.034V19.963H127.369V19.9759Z" fill="white"/>
<path d="M145.705 5.45459H149.357V16.3873C149.357 16.4259 149.376 16.4517 149.422 16.4517H167.693V19.9759H145.763V16.4517H148.878C148.936 16.4517 148.943 16.4324 148.897 16.3873L145.699 14.085V5.45459H145.705Z" fill="white"/>
<path d="M53.7778 25.0243V35.9763C53.7778 35.9763 53.7908 36.0149 53.8167 36.0149H68.3328C68.3328 36.0149 68.3717 36.002 68.3717 35.9763V25.0243H72.0234V36.0792H68.8896C68.8896 36.0792 68.8508 36.0921 68.8508 36.1178V39.5391H54.5677L50.1196 34.1435V25.0178H53.7713L53.7778 25.0243Z" fill="white"/>
<path d="M73.7002 28.0918H73.7196V25.0242H93.4155V28.259C93.4155 28.2976 93.4285 28.3169 93.4544 28.2976L96.0442 26.4068V30.0983L89.2394 35.4489H77.3972C77.3972 35.4489 77.3584 35.4617 77.3584 35.4875V39.5326H73.7067V28.0853L73.7002 28.0918ZM77.3519 35.0823C77.3519 35.0823 77.3649 35.108 77.3908 35.0823L79.8123 32.3427H87.8538L93.0529 28.587C93.0529 28.587 93.0788 28.5484 93.0529 28.5484H77.3908C77.3908 28.5484 77.3519 28.5612 77.3519 28.587V35.0823Z" fill="white"/>
<g filter="url(#filter0_d_38_148)">
<path d="M104.785 30.3362L109.628 25.0242H126.98V28.5484H108.476C108.476 28.5484 108.437 28.5612 108.437 28.587V32.5099C108.437 32.5099 108.45 32.5356 108.476 32.5099L110.043 30.7285H123.452V33.7961C123.452 33.7961 123.465 33.8347 123.491 33.8347H126.98V34.3942L122.111 39.539H104.779V35.9891H123.238C123.238 35.9891 123.277 35.9762 123.277 35.9505V33.8733C123.277 33.8733 123.264 33.8347 123.238 33.8347H104.779V30.3298L104.785 30.3362Z" fill="white"/>
<path d="M104.785 30.3362L109.628 25.0242H126.98V28.5484H108.476C108.476 28.5484 108.437 28.5612 108.437 28.587V32.5099C108.437 32.5099 108.45 32.5356 108.476 32.5099L110.043 30.7285H123.452V33.7961C123.452 33.7961 123.465 33.8347 123.491 33.8347H126.98V34.3942L122.111 39.539H104.779V35.9891H123.238C123.238 35.9891 123.277 35.9762 123.277 35.9505V33.8733C123.277 33.8733 123.264 33.8347 123.238 33.8347H104.779V30.3298L104.785 30.3362Z" fill="url(#paint0_linear_38_148)"/>
<path d="M128.651 28.0918H128.67V25.0242H148.366V28.259C148.366 28.2976 148.379 28.3169 148.405 28.2976L150.995 26.4068V30.0983L144.19 35.4489H132.348C132.348 35.4489 132.309 35.4617 132.309 35.4875V39.5326H128.657V28.0853L128.651 28.0918ZM132.309 35.0823C132.309 35.0823 132.322 35.108 132.348 35.0823L134.769 32.3427H142.811L148.01 28.587C148.01 28.587 148.036 28.5484 148.01 28.5484H132.348C132.348 28.5484 132.309 28.5612 132.309 28.587V35.0823Z" fill="white"/>
<path d="M128.651 28.0918H128.67V25.0242H148.366V28.259C148.366 28.2976 148.379 28.3169 148.405 28.2976L150.995 26.4068V30.0983L144.19 35.4489H132.348C132.348 35.4489 132.309 35.4617 132.309 35.4875V39.5326H128.657V28.0853L128.651 28.0918ZM132.309 35.0823C132.309 35.0823 132.322 35.108 132.348 35.0823L134.769 32.3427H142.811L148.01 28.587C148.01 28.587 148.036 28.5484 148.01 28.5484H132.348C132.348 28.5484 132.309 28.5612 132.309 28.587V35.0823Z" fill="url(#paint1_linear_38_148)"/>
<path d="M152.672 30.2719L157.476 25.0242H170.529L175.333 30.2719V39.5454H171.681V35.6675C171.681 35.6675 171.669 35.6289 171.643 35.6289H158.758L156.375 32.9343C156.375 32.9343 156.337 32.9086 156.337 32.9343V39.5519H152.685V30.2783L152.672 30.2719ZM156.324 32.4713C156.324 32.4713 156.337 32.5099 156.362 32.5099H171.63C171.63 32.5099 171.669 32.497 171.669 32.4713V28.5741C171.669 28.5741 171.656 28.5548 171.63 28.5548H156.362C156.362 28.5548 156.324 28.5612 156.324 28.5741V32.4713Z" fill="white"/>
<path d="M152.672 30.2719L157.476 25.0242H170.529L175.333 30.2719V39.5454H171.681V35.6675C171.681 35.6675 171.669 35.6289 171.643 35.6289H158.758L156.375 32.9343C156.375 32.9343 156.337 32.9086 156.337 32.9343V39.5519H152.685V30.2783L152.672 30.2719ZM156.324 32.4713C156.324 32.4713 156.337 32.5099 156.362 32.5099H171.63C171.63 32.5099 171.669 32.497 171.669 32.4713V28.5741C171.669 28.5741 171.656 28.5548 171.63 28.5548H156.362C156.362 28.5548 156.324 28.5612 156.324 28.5741V32.4713Z" fill="url(#paint2_linear_38_148)"/>
<path d="M182.41 39.5454L177.003 35.2495V25.0242H199.076V28.5484H180.7C180.7 28.5484 180.662 28.5612 180.662 28.587V35.9698C180.662 35.9698 180.675 36.0084 180.7 36.0084H199.076V39.5326H182.41V39.5454Z" fill="white"/>
<path d="M182.41 39.5454L177.003 35.2495V25.0242H199.076V28.5484H180.7C180.7 28.5484 180.662 28.5612 180.662 28.587V35.9698C180.662 35.9698 180.675 36.0084 180.7 36.0084H199.076V39.5326H182.41V39.5454Z" fill="url(#paint3_linear_38_148)"/>
<path d="M206.152 39.5454L200.746 35.2495V25.0242H222.818V28.5484H204.443C204.443 28.5484 204.404 28.5612 204.404 28.587V33.1273C204.404 33.1852 204.424 33.1916 204.469 33.1466L206.619 30.7221H217.936V33.8347H204.469C204.43 33.8347 204.404 33.854 204.404 33.899C204.404 34.2463 204.404 34.5935 204.391 34.9344C204.385 35.2817 204.391 35.6289 204.404 35.9698C204.404 35.9955 204.417 36.0084 204.443 36.0084H222.818V39.5326H206.152V39.5454Z" fill="white"/>
<path d="M206.152 39.5454L200.746 35.2495V25.0242H222.818V28.5484H204.443C204.443 28.5484 204.404 28.5612 204.404 28.587V33.1273C204.404 33.1852 204.424 33.1916 204.469 33.1466L206.619 30.7221H217.936V33.8347H204.469C204.43 33.8347 204.404 33.854 204.404 33.899C204.404 34.2463 204.404 34.5935 204.391 34.9344C204.385 35.2817 204.391 35.6289 204.404 35.9698C204.404 35.9955 204.417 36.0084 204.443 36.0084H222.818V39.5326H206.152V39.5454Z" fill="url(#paint4_linear_38_148)"/>
</g>
<g filter="url(#filter1_d_38_148)">
<path d="M2.18164 22.3637L22.6362 15.6161L43.0907 22.3637V8.92947L22.6362 2.18188L2.18164 8.92947V22.3637Z" fill="white"/>
<path d="M2.18164 22.3637L22.6362 15.6161L43.0907 22.3637V8.92947L22.6362 2.18188L2.18164 8.92947V22.3637Z" fill="url(#paint5_linear_38_148)"/>
</g>
<g filter="url(#filter2_d_38_148)">
<path d="M2.18164 42.8181L22.6362 35.9819L43.0907 42.8181V29.2074L22.6362 22.3635L2.18164 29.2074V42.8181Z" fill="white"/>
<path d="M2.18164 42.8181L22.6362 35.9819L43.0907 42.8181V29.2074L22.6362 22.3635L2.18164 29.2074V42.8181Z" fill="url(#paint6_linear_38_148)"/>
</g>
</g>
<defs>
<filter id="filter0_d_38_148" x="102.779" y="23.0242" width="122.04" height="18.5276" filterUnits="userSpaceOnUse" color-interpolation-filters="sRGB">
<feFlood flood-opacity="0" result="BackgroundImageFix"/>
<feColorMatrix in="SourceAlpha" type="matrix" values="0 0 0 0 0 0 0 0 0 0 0 0 0 0 0 0 0 0 127 0" result="hardAlpha"/>
<feOffset/>
<feGaussianBlur stdDeviation="1"/>
<feComposite in2="hardAlpha" operator="out"/>
<feColorMatrix type="matrix" values="0 0 0 0 0.490196 0 0 0 0 1 0 0 0 0 0.882353 0 0 0 0.75 0"/>
<feBlend mode="normal" in2="BackgroundImageFix" result="effect1_dropShadow_38_148"/>
<feBlend mode="normal" in="SourceGraphic" in2="effect1_dropShadow_38_148" result="shape"/>
</filter>
<filter id="filter1_d_38_148" x="0.181641" y="0.181885" width="44.9092" height="24.1819" filterUnits="userSpaceOnUse" color-interpolation-filters="sRGB">
<feFlood flood-opacity="0" result="BackgroundImageFix"/>
<feColorMatrix in="SourceAlpha" type="matrix" values="0 0 0 0 0 0 0 0 0 0 0 0 0 0 0 0 0 0 127 0" result="hardAlpha"/>
<feOffset/>
<feGaussianBlur stdDeviation="1"/>
<feComposite in2="hardAlpha" operator="out"/>
<feColorMatrix type="matrix" values="0 0 0 0 0.490196 0 0 0 0 1 0 0 0 0 0.882353 0 0 0 0.75 0"/>
<feBlend mode="normal" in2="BackgroundImageFix" result="effect1_dropShadow_38_148"/>
<feBlend mode="normal" in="SourceGraphic" in2="effect1_dropShadow_38_148" result="shape"/>
</filter>
<filter id="filter2_d_38_148" x="0.181641" y="20.3635" width="44.9092" height="24.4546" filterUnits="userSpaceOnUse" color-interpolation-filters="sRGB">
<feFlood flood-opacity="0" result="BackgroundImageFix"/>
<feColorMatrix in="SourceAlpha" type="matrix" values="0 0 0 0 0 0 0 0 0 0 0 0 0 0 0 0 0 0 127 0" result="hardAlpha"/>
<feOffset/>
<feGaussianBlur stdDeviation="1"/>
<feComposite in2="hardAlpha" operator="out"/>
<feColorMatrix type="matrix" values="0 0 0 0 0.490196 0 0 0 0 1 0 0 0 0 0.882353 0 0 0 0.75 0"/>
<feBlend mode="normal" in2="BackgroundImageFix" result="effect1_dropShadow_38_148"/>
<feBlend mode="normal" in="SourceGraphic" in2="effect1_dropShadow_38_148" result="shape"/>
</filter>
<linearGradient id="paint0_linear_38_148" x1="115.88" y1="25.0242" x2="115.88" y2="39.539" gradientUnits="userSpaceOnUse">
<stop stop-color="#7DFFE1"/>
<stop offset="1" stop-color="#079085"/>
</linearGradient>
<linearGradient id="paint1_linear_38_148" x1="139.823" y1="25.0242" x2="139.823" y2="39.5326" gradientUnits="userSpaceOnUse">
<stop stop-color="#7DFFE1"/>
<stop offset="1" stop-color="#079085"/>
</linearGradient>
<linearGradient id="paint2_linear_38_148" x1="164.003" y1="25.0242" x2="164.003" y2="39.5519" gradientUnits="userSpaceOnUse">
<stop stop-color="#7DFFE1"/>
<stop offset="1" stop-color="#079085"/>
</linearGradient>
<linearGradient id="paint3_linear_38_148" x1="188.039" y1="25.0242" x2="188.039" y2="39.5454" gradientUnits="userSpaceOnUse">
<stop stop-color="#7DFFE1"/>
<stop offset="1" stop-color="#079085"/>
</linearGradient>
<linearGradient id="paint4_linear_38_148" x1="211.782" y1="25.0242" x2="211.782" y2="39.5454" gradientUnits="userSpaceOnUse">
<stop stop-color="#7DFFE1"/>
<stop offset="1" stop-color="#079085"/>
</linearGradient>
<linearGradient id="paint5_linear_38_148" x1="22.6362" y1="2.18188" x2="22.6362" y2="22.3637" gradientUnits="userSpaceOnUse">
<stop stop-color="#7DFFE1"/>
<stop offset="1" stop-color="#079085"/>
</linearGradient>
<linearGradient id="paint6_linear_38_148" x1="22.6362" y1="22.3635" x2="22.6362" y2="42.8181" gradientUnits="userSpaceOnUse">
<stop stop-color="#7DFFE1"/>
<stop offset="1" stop-color="#079085"/>
</linearGradient>
<clipPath id="clip0_38_148">
<rect width="225" height="45" fill="white"/>
</clipPath>
</defs>
</svg>
