<svg width="40" height="40" viewBox="0 0 40 40" fill="none" xmlns="http://www.w3.org/2000/svg">
<path d="M17.8687 24.8125C18.4187 25.3625 19.1292 25.632 20 25.621C20.8708 25.61 21.5125 25.2947 21.925 24.675L29.625 13.125L18.075 20.825C17.4563 21.2375 17.1299 21.8677 17.096 22.7156C17.0621 23.5635 17.3197 24.2625 17.8687 24.8125ZM20 9C21.3521 9 22.6528 9.18883 23.9023 9.5665C25.1517 9.94417 26.3259 10.5116 27.425 11.2688L24.8125 12.9187C24.0562 12.5292 23.2716 12.2372 22.4585 12.0429C21.6454 11.8485 20.8259 11.7509 20 11.75C16.9521 11.75 14.3565 12.8216 12.2134 14.9648C10.0702 17.1079 8.99908 19.703 9 22.75C9 23.7125 9.132 24.6635 9.396 25.6031C9.66 26.5427 10.0322 27.425 10.5125 28.25H29.4875C30.0146 27.3792 30.3987 26.474 30.6398 25.5344C30.8808 24.5948 31.0009 23.6208 31 22.6125C31 21.7875 30.9024 20.9854 30.7071 20.2062C30.5119 19.4271 30.2199 18.6708 29.8312 17.9375L31.4813 15.325C32.1688 16.4021 32.7132 17.5479 33.1147 18.7625C33.5163 19.9771 33.728 21.2375 33.75 22.5438C33.772 23.85 33.623 25.099 33.3031 26.2906C32.9832 27.4823 32.5134 28.6167 31.8937 29.6937C31.6417 30.1062 31.2979 30.4271 30.8625 30.6562C30.4271 30.8854 29.9688 31 29.4875 31H10.5125C10.0312 31 9.57292 30.8854 9.1375 30.6562C8.70208 30.4271 8.35833 30.1062 8.10625 29.6937C7.51042 28.6625 7.05208 27.5685 6.73125 26.4116C6.41042 25.2548 6.25 24.0343 6.25 22.75C6.25 20.8479 6.61117 19.0664 7.3335 17.4054C8.05583 15.7444 9.04125 14.2892 10.2898 13.0398C11.5383 11.7903 12.999 10.8049 14.6719 10.0835C16.3448 9.36208 18.1208 9.00092 20 9Z" fill="#7DFFE1"/>
</svg>
