<svg width="40" height="40" viewBox="0 0 40 40" fill="none" xmlns="http://www.w3.org/2000/svg">
<path d="M30.1413 8.04511H31.9551V9.85892C31.9552 11.1005 31.7108 12.3299 31.2357 13.4769C30.7607 14.624 30.0643 15.6662 29.1865 16.5442L18.9803 26.749L13.2499 21.0186L23.4561 10.8138C24.334 9.93591 25.3763 9.23958 26.5233 8.76453C27.6704 8.28948 28.8998 8.04503 30.1413 8.04511ZM28.0426 21.5075L31.0948 18.4539C32.2238 17.3253 33.1193 15.9854 33.7304 14.5106C34.3415 13.0359 34.6561 11.4552 34.6562 9.85892V5.34399H30.1413C28.5451 5.34398 26.9645 5.65837 25.4898 6.26921C24.015 6.88005 22.6751 7.77537 21.5464 8.90407L18.4927 11.9563L10.8526 11.0015L5.133 16.7211L23.2778 34.8672L28.9974 29.1476L28.0426 21.5075ZM25.6224 23.9264L26.1531 28.1712L23.2778 31.0465L20.89 28.6587L25.6224 23.9264ZM16.0739 14.3765L11.3402 19.1089L8.95508 16.7211L11.8304 13.8458L16.0739 14.3765ZM11.3402 26.7477L6.56594 31.5233L4.65625 29.6136L9.43048 24.8393L11.3402 26.7477ZM15.1609 30.5698L10.3853 35.344L8.47564 33.4343L13.2499 28.6587L15.1609 30.5698Z" fill="#7DFFE1"/>
</svg>
