<svg width="40" height="40" viewBox="0 0 40 40" fill="none" xmlns="http://www.w3.org/2000/svg">
<path d="M3.1582 32.5289V22.9293L11.5565 19.3308L19.9548 22.932V32.5289L11.5565 36.1248L3.1582 32.5289Z" stroke="#7DFFE1" stroke-width="1.59109" stroke-linecap="round" stroke-linejoin="round"/>
<path d="M3.1582 22.9106L11.5565 26.5091L19.9548 22.9106M11.5565 9.79736L19.9522 13.3985L28.3505 9.80001" stroke="#7DFFE1" stroke-width="1.59109" stroke-linecap="round" stroke-linejoin="round"/>
<path d="M19.9492 22.9109L28.3475 26.5094L36.7458 22.9109" stroke="#7DFFE1" stroke-width="1.59109" stroke-linecap="round" stroke-linejoin="round"/>
<path d="M11.5586 26.5144V36.1272M28.3579 26.5144V36.1272M19.9542 13.3985V23.0087M11.5639 19.3253V9.72571L19.9596 6.1272L28.3579 9.72571V19.3253L19.9596 22.9238L11.5639 19.3253ZM19.9542 32.5287V22.9291L28.3525 19.3306L36.7509 22.9318V32.5287L28.3525 36.1245L19.9542 32.5287Z" stroke="#7DFFE1" stroke-width="1.59109" stroke-linecap="round" stroke-linejoin="round"/>
</svg>
