<svg width="40" height="40" viewBox="0 0 40 40" fill="none" xmlns="http://www.w3.org/2000/svg">
<path d="M10.8992 15.7335V31.3335H5.69922V15.7335H10.8992ZM16.0992 31.3335C15.4097 31.3335 14.7483 31.0596 14.2607 30.572C13.7731 30.0844 13.4992 29.4231 13.4992 28.7335V15.7335C13.4992 15.0185 13.7852 14.3685 14.2662 13.9005L22.8202 5.3335L24.1982 6.7115C24.5492 7.0625 24.7702 7.5435 24.7702 8.0765L24.7312 8.4925L23.4962 14.4335H31.6992C32.3888 14.4335 33.0501 14.7074 33.5377 15.195C34.0253 15.6826 34.2992 16.3439 34.2992 17.0335V19.6335C34.2992 19.9715 34.2342 20.2835 34.1172 20.5825L30.1912 29.7475C29.8012 30.6835 28.8782 31.3335 27.7992 31.3335H16.0992ZM16.0992 28.7335H27.8382L31.6992 19.6335V17.0335H20.2722L21.7412 10.1175L16.0992 15.7725V28.7335Z" fill="#7DFFE1"/>
</svg>
