<svg width="48" height="48" viewBox="0 0 48 48" fill="none" xmlns="http://www.w3.org/2000/svg">
<path d="M24.0098 25.6059C24.9671 25.6058 25.9025 25.892 26.6959 26.4277C27.4893 26.9633 28.1044 27.724 28.4622 28.6119C28.8199 29.4998 28.9041 30.4744 28.7037 31.4105C28.5033 32.3466 28.0276 33.2014 27.3378 33.8651L24.2818 36.8043H28.8098V40.0043H19.2098L19.2082 37.2459L25.1186 31.5579C25.3093 31.3745 25.4515 31.1468 25.5327 30.895C25.6138 30.6433 25.6312 30.3753 25.5834 30.1151C25.5356 29.855 25.424 29.6107 25.2587 29.4042C25.0933 29.1978 24.8794 29.0355 24.6359 28.932C24.3925 28.8285 24.1272 28.7869 23.8638 28.811C23.6004 28.8352 23.3471 28.9242 23.1265 29.0703C22.9059 29.2163 22.725 29.4147 22.5999 29.6478C22.4749 29.8809 22.4095 30.1413 22.4098 30.4059H19.2098C19.2098 29.1328 19.7155 27.9119 20.6156 27.0117C21.5158 26.1116 22.7367 25.6059 24.0098 25.6059ZM33.6098 25.6059V32.0059H36.8098V25.6059H40.0098V40.0059H36.8098V35.2059H30.4098V25.6059H33.6098ZM11.2098 24.0059C11.2084 25.9251 11.6391 27.82 12.4701 29.5501C13.301 31.2801 14.5108 32.8008 16.0098 33.9995V37.8651C13.577 36.4605 11.557 34.4403 10.1527 32.0074C8.74834 29.5746 8.00928 26.8149 8.00977 24.0059H11.2098ZM24.0098 8.00587C32.3058 8.00587 39.1282 14.3195 39.9298 22.4059H36.7106C36.3988 19.9339 35.3725 17.6067 33.7575 15.7095C32.1425 13.8123 30.0089 12.4276 27.6184 11.7252C25.228 11.0228 22.6845 11.0333 20.2999 11.7553C17.9152 12.4773 15.7931 13.8795 14.1938 15.7899L17.6098 19.2059H8.00977V9.60587L11.9218 13.5195C13.4226 11.7868 15.2788 10.3975 17.3644 9.4461C19.4499 8.49471 21.7159 8.0035 24.0082 8.00587" fill="#7DFFE1"/>
</svg>
