<svg width="48" height="48" viewBox="0 0 48 48" fill="none" xmlns="http://www.w3.org/2000/svg">
<path d="M39 19.3333V16C39 13.25 36.75 11 34 11H27.3333C26.05 11 24.8833 11.5 24 12.3C23.1167 11.5 21.95 11 20.6667 11H14C11.25 11 9 13.25 9 16V19.3333C6.25 19.3333 4 21.5833 4 24.3333V32.6667C4 35.4167 6.25 37.6667 9 37.6667V41H12.3333V37.6667H35.6667V41H39V37.6667C41.75 37.6667 44 35.4167 44 32.6667V24.3333C44 21.5833 41.75 19.3333 39 19.3333ZM27.3333 14.3333H34C34.9167 14.3333 35.6667 15.0833 35.6667 16V20.6333C34.65 21.55 34 22.8667 34 24.3333V27.6667H25.6667V16C25.6667 15.0833 26.4167 14.3333 27.3333 14.3333ZM12.3333 16C12.3333 15.0833 13.0833 14.3333 14 14.3333H20.6667C21.5833 14.3333 22.3333 15.0833 22.3333 16V27.6667H14V24.3333C14 22.8667 13.35 21.55 12.3333 20.6333V16ZM40.6667 32.6667C40.6667 33.5833 39.9167 34.3333 39 34.3333H9C8.08333 34.3333 7.33333 33.5833 7.33333 32.6667V24.3333C7.33333 23.4167 8.08333 22.6667 9 22.6667C9.91667 22.6667 10.6667 23.4167 10.6667 24.3333V31H37.3333V24.3333C37.3333 23.4167 38.0833 22.6667 39 22.6667C39.9167 22.6667 40.6667 23.4167 40.6667 24.3333V32.6667Z" fill="#7DFFE1"/>
</svg>
