<svg width="48" height="48" viewBox="0 0 48 48" fill="none" xmlns="http://www.w3.org/2000/svg">
<path d="M14 28C12.9 28 11.9587 27.6087 11.176 26.826C10.3933 26.0433 10.0013 25.1013 10 24C9.99867 22.8987 10.3907 21.9573 11.176 21.176C11.9613 20.3947 12.9027 20.0027 14 20C15.0973 19.9973 16.0393 20.3893 16.826 21.176C17.6127 21.9627 18.004 22.904 18 24C17.996 25.096 17.6047 26.038 16.826 26.826C16.0473 27.614 15.1053 28.0053 14 28ZM14 36C10.6667 36 7.83333 34.8333 5.5 32.5C3.16667 30.1667 2 27.3333 2 24C2 20.6667 3.16667 17.8333 5.5 15.5C7.83333 13.1667 10.6667 12 14 12C16.2333 12 18.2587 12.55 20.076 13.65C21.8933 14.75 23.3347 16.2 24.4 18H42L48 24L39 33L35 30L31 33L26.75 30H24.4C23.3333 31.8 21.892 33.25 20.076 34.35C18.26 35.45 16.2347 36 14 36ZM14 32C15.8667 32 17.5087 31.4333 18.926 30.3C20.3433 29.1667 21.2847 27.7333 21.75 26H28L30.9 28.05L35 25L38.55 27.75L42.3 24L40.3 22H21.75C21.2833 20.2667 20.342 18.8333 18.926 17.7C17.51 16.5667 15.868 16 14 16C11.8 16 9.91667 16.7833 8.35 18.35C6.78333 19.9167 6 21.8 6 24C6 26.2 6.78333 28.0833 8.35 29.65C9.91667 31.2167 11.8 32 14 32Z" fill="#7DFFE1"/>
</svg>
