<svg width="48" height="48" viewBox="0 0 48 48" fill="none" xmlns="http://www.w3.org/2000/svg">
<path fill-rule="evenodd" clip-rule="evenodd" d="M34.125 38.625V19.5H27.9375C26.8932 19.5 25.8917 19.0852 25.1533 18.3467C24.4148 17.6083 24 16.6068 24 15.5625V9.375H13.875V38.625H34.125ZM33.8527 16.125L27.375 9.64725V15.5625C27.375 15.873 27.627 16.125 27.9375 16.125H33.8527ZM10.5 8.25C10.5 7.65326 10.7371 7.08097 11.159 6.65901C11.581 6.23705 12.1533 6 12.75 6H27.5685C28.1652 6.00013 28.7374 6.23726 29.1593 6.65925L36.8407 14.3407C37.2627 14.7626 37.4999 15.3348 37.5 15.9315V39.75C37.5 40.3467 37.2629 40.919 36.841 41.341C36.419 41.7629 35.8467 42 35.25 42H12.75C12.1533 42 11.581 41.7629 11.159 41.341C10.7371 40.919 10.5 40.3467 10.5 39.75V8.25ZM23.4375 31.875C22.9899 31.875 22.5607 32.0528 22.2443 32.3693C21.9278 32.6857 21.75 33.1149 21.75 33.5625C21.75 34.0101 21.9278 34.4393 22.2443 34.7557C22.5607 35.0722 22.9899 35.25 23.4375 35.25H29.0625C29.5101 35.25 29.9393 35.0722 30.2557 34.7557C30.5722 34.4393 30.75 34.0101 30.75 33.5625C30.75 33.1149 30.5722 32.6857 30.2557 32.3693C29.9393 32.0528 29.5101 31.875 29.0625 31.875H23.4375ZM20.13 19.995C19.8101 19.6969 19.387 19.5346 18.9498 19.5424C18.5126 19.5501 18.0955 19.7272 17.7864 20.0364C17.4772 20.3455 17.3001 20.7626 17.2924 21.1998C17.2846 21.637 17.4469 22.0601 17.745 22.38L20.49 25.125L17.745 27.87C17.5792 28.0245 17.4462 28.2108 17.354 28.4178C17.2618 28.6248 17.2122 28.8482 17.2082 29.0748C17.2042 29.3014 17.2459 29.5265 17.3307 29.7366C17.4156 29.9467 17.5419 30.1376 17.7022 30.2978C17.8624 30.4581 18.0533 30.5844 18.2634 30.6693C18.4735 30.7541 18.6986 30.7958 18.9252 30.7918C19.1518 30.7878 19.3752 30.7382 19.5822 30.646C19.7892 30.5538 19.9755 30.4208 20.13 30.255L24.0675 26.3175L25.26 25.125L24.0675 23.9325L20.13 19.995Z" fill="#7DFFE1"/>
</svg>
