<svg width="24" height="97" viewBox="0 0 24 97" fill="none" xmlns="http://www.w3.org/2000/svg">
<path d="M23.7597 13.5076H0V0H23.7597V13.5076ZM3.4757 9.71284H20.2839V3.79475H3.4757V9.71284Z" fill="white"/>
<path d="M23.7597 34.281H0V20.7734H23.7597V34.281ZM3.4757 30.4863H20.2839V24.5682H3.4757V30.4863Z" fill="white"/>
<path d="M23.7597 55.054H0V41.5464H23.7597V55.054ZM3.4757 51.2592H20.2839V45.3411H3.4757V51.2592Z" fill="white"/>
<path d="M23.7597 75.8269H0V62.3193H23.7597V75.8269ZM3.4757 72.0322H20.2839V66.1141H3.4757V72.0322Z" fill="white"/>
<path d="M23.7597 96.5999H0V83.0923H23.7597V96.5999ZM3.4757 92.8137H20.2839V86.8956H3.4757V92.8137Z" fill="white"/>
</svg>
