<svg width="56" height="56" viewBox="0 0 56 56" fill="none" xmlns="http://www.w3.org/2000/svg">
<path d="M44.3333 7H18.6667C14.8073 7 11.6667 10.1407 11.6667 14V16.3333H9.33333C8.71449 16.3333 8.121 16.5792 7.68342 17.0168C7.24583 17.4543 7 18.0478 7 18.6667C7 19.2855 7.24583 19.879 7.68342 20.3166C8.121 20.7542 8.71449 21 9.33333 21H11.6667V25.6667H9.33333C8.71449 25.6667 8.121 25.9125 7.68342 26.3501C7.24583 26.7877 7 27.3812 7 28C7 28.6188 7.24583 29.2123 7.68342 29.6499C8.121 30.0875 8.71449 30.3333 9.33333 30.3333H11.6667V35H9.33333C8.71449 35 8.121 35.2458 7.68342 35.6834C7.24583 36.121 7 36.7145 7 37.3333C7 37.9522 7.24583 38.5457 7.68342 38.9832C8.121 39.4208 8.71449 39.6667 9.33333 39.6667H11.6667V42C11.6667 45.8593 14.8073 49 18.6667 49H44.3333C48.1927 49 51.3333 45.8593 51.3333 42V14C51.3333 10.1407 48.1927 7 44.3333 7ZM16.3333 14C16.3333 12.7143 17.381 11.6667 18.6667 11.6667V16.3333H16.3333V14ZM16.3333 21H18.6667V25.6667H16.3333V21ZM16.3333 30.3333H18.6667V35H16.3333V30.3333ZM16.3333 42V39.6667H18.6667V44.3333C17.381 44.3333 16.3333 43.2857 16.3333 42ZM46.6667 42C46.6667 43.2857 45.619 44.3333 44.3333 44.3333H21V11.6667H44.3333C45.619 11.6667 46.6667 12.7143 46.6667 14V42Z" fill="#7DFFE1"/>
<path d="M32.6667 29.1668C35.244 29.1668 37.3333 27.0775 37.3333 24.5002C37.3333 21.9228 35.244 19.8335 32.6667 19.8335C30.0893 19.8335 28 21.9228 28 24.5002C28 27.0775 30.0893 29.1668 32.6667 29.1668Z" fill="#7DFFE1"/>
<path d="M32.6654 31.1641C29.0207 31.1641 26.832 32.8324 26.832 34.4984C26.832 35.3314 29.0207 36.1667 32.6654 36.1667C36.086 36.1667 38.4987 35.3337 38.4987 34.4984C38.4987 32.8324 36.212 31.1641 32.6654 31.1641Z" fill="#7DFFE1"/>
</svg>
