<svg width="39" height="283" viewBox="0 0 39 283" fill="none" xmlns="http://www.w3.org/2000/svg">
<g clip-path="url(#clip0_2017_4488)">
<path d="M19.4494 2.02958L19.4494 57.0799C19.4494 57.5353 19.6317 57.9739 19.9593 58.2972L37.6366 75.7439C37.9642 76.0672 38.1465 76.5029 38.1465 76.9612L38.1465 107.191C38.1465 108.723 36.2694 109.49 35.1699 108.408L0.806503 74.4929C0.478935 74.1696 0.296633 73.7338 0.296633 73.2756L0.296636 2.02958C0.296636 1.07937 1.07711 0.30908 2.03987 0.30908L17.7062 0.309081C18.669 0.309081 19.4494 1.07937 19.4494 2.02958Z" fill="#7DFFE1"/>
<path d="M3.33892 85.0409L37.7792 119.029C38.1068 119.352 38.2891 119.788 38.2891 120.246L38.2891 148.519C38.2891 150.052 36.4119 150.819 35.3125 149.737L28.4022 142.917C27.3027 141.831 25.4256 142.602 25.4256 144.134C25.4256 145.666 23.5485 146.433 22.449 145.351L0.977569 124.16C0.65 123.836 0.467703 123.401 0.467703 122.942L0.467704 92.8113L0.362314 86.2863C0.336679 84.7401 2.23088 83.9501 3.33892 85.0409Z" fill="#7DFFE1"/>
<path d="M3.33892 133.935L37.7792 167.926C38.1068 168.249 38.2891 168.685 38.2891 169.143L38.2891 197.416C38.2891 198.948 36.4119 199.715 35.3125 198.633L28.4022 191.813C27.3027 190.728 25.4256 191.498 25.4256 193.03C25.4256 194.562 23.5485 195.33 22.449 194.248L0.977569 173.056C0.65 172.733 0.467703 172.297 0.467703 171.839L0.467704 141.708L0.362314 135.183C0.336679 133.637 2.23088 132.847 3.33892 133.937L3.33892 133.935Z" fill="#7DFFE1"/>
<path d="M3.33892 182.831L37.7792 216.822C38.1068 217.143 38.2891 217.581 38.2891 218.037L38.2891 246.31C38.2891 247.842 36.4119 248.609 35.3125 247.527L28.4022 240.707C27.3027 239.622 25.4256 240.392 25.4256 241.924C25.4256 243.456 23.5485 244.224 22.449 243.141L0.977569 221.95C0.65 221.627 0.467703 221.191 0.467703 220.733L0.467704 190.601L0.362314 184.076C0.336679 182.53 2.23088 181.74 3.33892 182.834L3.33892 182.831Z" fill="#7DFFE1"/>
<path d="M2.30251 230.62L32.53 260.453C32.718 260.638 32.9743 260.745 33.2421 260.745L36.8539 260.745C37.4093 260.745 37.8594 261.189 37.8594 261.738L37.8594 281.942C37.8594 282.49 37.4093 282.935 36.8539 282.935L1.5904 282.935C1.03496 282.935 0.584904 282.49 0.584904 281.942L0.584906 231.322C0.584906 231.185 0.613388 231.05 0.667508 230.926C0.949502 230.285 1.80118 230.125 2.30251 230.62Z" fill="#7DFFE1"/>
</g>
<defs>
<clipPath id="clip0_2017_4488">
<rect width="282.625" height="37.9923" fill="white" transform="translate(38.2891 0.309082) rotate(90)"/>
</clipPath>
</defs>
</svg>
