<svg width="480" height="480" viewBox="0 0 480 480" fill="none" xmlns="http://www.w3.org/2000/svg">
<g clip-path="url(#clip0_2017_4480)">
<path d="M464.495 15.5187L466.1 13.8994H14.8262L16.4316 15.5187V465.412L14.8262 467.031H466.1L464.495 465.412V15.5187ZM17.662 463.216V436.964L37.0093 419.893V443.707L17.662 463.216ZM463.265 17.7144V43.9667L443.917 61.0382V37.2241L463.265 17.7144ZM17.662 213.2L37.0093 215.638V239.91H17.662V213.2ZM38.2443 215.794L54.1064 217.793V239.91H38.2443V215.794ZM55.3367 217.948L68.5277 219.609V239.91H55.3367V217.948ZM69.7581 219.764L80.8588 221.164V239.91H69.7581V219.764ZM82.0892 221.319L91.525 222.509V239.91H82.0892V221.319ZM92.7554 222.664L100.842 223.684V239.91H92.7554V222.664ZM102.072 223.84L109.052 224.718V239.91H102.072V223.84ZM110.282 224.874L116.338 225.638V239.91H110.282V224.874ZM463.265 267.731L443.917 265.293V241.021H463.265V267.731ZM442.687 265.137L426.825 263.138V241.021H442.687V265.137ZM425.594 262.983L412.403 261.322V241.021H425.594V262.983ZM411.173 261.162L400.072 259.762V241.017H411.173V261.162ZM398.837 259.607L389.401 258.417V241.017H398.837V259.607ZM388.171 258.267L380.085 257.246V241.021H388.171V258.267ZM378.854 257.091L371.874 256.213V241.021H378.854V257.091ZM370.644 256.057L364.588 255.293V241.021H370.644V256.057ZM155.527 325.834V155.092H325.395V325.834H155.527ZM326.63 325.331V316.301L328.807 318.223V327.527L326.63 325.331ZM326.63 314.659V305.524L328.807 307.171V316.581L326.63 314.659ZM326.63 303.983V294.756L328.807 296.129V305.629L326.63 303.983ZM326.63 293.302V283.993L328.807 285.091V294.674L326.63 293.302ZM326.63 282.616V273.238L328.807 274.062V283.714L326.63 282.616ZM326.63 271.921V262.489L328.807 263.038V272.744L326.63 271.921ZM326.63 261.222V251.753L328.807 252.027V261.77L326.63 261.222ZM326.63 250.508V241.017H328.807V250.778L326.63 250.504V250.508ZM326.63 239.786V230.294L328.807 230.02V239.782H326.63V239.786ZM326.63 229.059V219.59L328.807 219.041V228.785L326.63 229.059ZM326.63 218.319V208.886L328.807 208.063V217.77L326.63 218.319ZM326.63 207.569V198.191L328.807 197.094V206.745L326.63 207.569ZM326.63 196.815V187.506L328.807 186.133V195.717L326.63 196.815ZM326.63 186.051V176.825L328.807 175.178V184.679L326.63 186.051ZM326.63 175.278V166.148L328.807 164.227V173.632L326.63 175.278ZM326.63 164.506V155.476L328.807 153.28V162.585L326.63 164.506ZM325.381 153.861H316.339L318.274 151.634H327.59L325.381 153.861ZM314.711 153.861H305.572L307.232 151.634H316.65L314.715 153.861H314.711ZM304.035 153.861H294.805L296.186 151.634H305.695L304.035 153.861ZM293.355 153.861H284.043L285.15 151.634H294.737L293.355 153.861ZM282.666 153.861H273.285L274.113 151.634H283.768L282.662 153.861H282.666ZM271.977 153.861H262.546L263.099 151.634H272.809L271.982 153.861H271.977ZM261.274 153.861H251.806L252.081 151.634H261.828L261.274 153.861ZM250.567 153.861H241.081V151.634H250.846L250.571 153.861H250.567ZM239.85 153.861H230.364L230.09 151.634H239.855V153.861H239.85ZM229.12 153.861H219.652L219.099 151.634H228.846L229.12 153.861ZM218.385 153.861H208.954L208.126 151.634H217.836L218.39 153.861H218.385ZM207.637 153.861H198.26L197.153 151.634H206.809L207.637 153.861ZM196.884 153.861H187.571L186.19 151.634H195.777L196.884 153.861ZM186.126 153.861H176.896L175.236 151.634H184.745L186.126 153.861ZM175.359 153.861H166.221L164.286 151.634H173.703L175.364 153.861H175.359ZM164.588 153.861H155.545L153.336 151.634H162.653L164.588 153.861ZM154.297 155.599V164.629L152.119 162.713V153.408L154.297 155.599ZM154.297 166.271V175.402L152.119 173.755V164.35L154.297 166.267V166.271ZM154.297 176.943V186.17L152.119 184.798V175.297L154.297 176.943ZM154.297 187.625V196.933L152.119 195.836V186.252L154.297 187.625ZM154.297 198.31V207.688L152.119 206.864V197.212L154.297 198.31ZM154.297 209.005V218.438L152.119 217.889V208.182L154.297 209.005ZM154.297 219.709V229.178L152.119 228.904V219.16L154.297 219.709ZM154.297 230.418V239.91H152.119V230.148L154.297 230.422V230.418ZM154.297 241.14V250.632L152.119 250.906V241.14H154.297ZM154.297 251.872V261.34L152.119 261.889V252.146L154.297 251.872ZM154.297 262.612V272.045L152.119 272.868V263.161L154.297 262.612ZM154.297 273.357V282.735L152.119 283.833V274.181L154.297 273.357ZM154.297 284.116V293.425L152.119 294.797V285.214L154.297 284.116ZM154.297 294.88V304.106L152.119 305.753V296.252L154.297 294.88ZM154.297 305.648V314.778L152.119 316.695V307.29L154.297 305.643V305.648ZM154.297 316.42V325.45L152.119 327.641V318.337L154.297 316.42ZM155.55 327.065H164.592L162.658 329.293H153.341L155.554 327.065H155.55ZM166.221 327.065H175.359L173.699 329.293H164.281L166.216 327.065H166.221ZM176.896 327.065H186.126L184.745 329.293H175.236L176.896 327.065ZM187.576 327.065H196.888L195.781 329.293H186.195L187.576 327.065ZM198.26 327.065H207.637L206.809 329.293H197.153L198.26 327.065ZM208.954 327.065H218.385L217.832 329.293H208.122L208.949 327.065H208.954ZM219.652 327.065H229.12L228.846 329.293H219.099L219.652 327.065ZM230.36 327.065H239.846V329.293H230.081L230.355 327.065H230.36ZM241.081 327.065H250.567L250.841 329.293H241.076V327.065H241.081ZM251.806 327.065H261.274L261.828 329.293H252.081L251.806 327.065ZM262.546 327.065H271.977L272.805 329.293H263.095L262.541 327.065H262.546ZM273.29 327.065H282.671L283.778 329.293H274.122L273.294 327.065H273.29ZM284.043 327.065H293.355L294.737 329.293H285.15L284.043 327.065ZM294.801 327.065H304.031L305.691 329.293H296.182L294.801 327.065ZM305.567 327.065H314.706L316.641 329.293H307.223L305.563 327.065H305.567ZM316.339 327.065H325.381L327.595 329.293H318.278L316.343 327.065H316.339ZM330.037 328.767V319.307L332.498 321.48V331.251L330.037 328.771V328.767ZM330.037 317.665V308.104L332.498 309.966V319.837L330.037 317.665ZM330.037 306.558V296.902L332.498 298.452V308.42L330.037 306.558ZM330.037 295.447V285.708L332.498 286.948V296.998L330.037 295.447ZM330.037 284.331V274.524L332.498 275.452V285.571L330.037 284.331ZM330.037 273.211V263.349L332.498 263.971V274.144L330.037 273.216V273.211ZM330.037 262.077V252.178L332.498 252.489V262.699L330.037 262.077ZM330.037 250.938V241.021H332.498V251.249L330.037 250.938ZM330.037 239.786V229.869L332.498 229.558V239.786H330.037ZM330.037 228.629V218.73L332.498 218.108V228.318L330.037 228.629ZM330.037 217.459V207.596L332.498 206.668V216.841L330.037 217.463V217.459ZM330.037 206.283V196.476L332.498 195.236V205.355L330.037 206.283ZM330.037 195.095V185.356L332.498 183.805V193.855L330.037 195.095ZM330.037 183.906V174.249L332.498 172.387V182.355L330.037 183.906ZM330.037 172.703V163.143L332.498 160.97V170.841L330.037 172.703ZM330.037 161.5V152.041L332.498 149.561V159.332L330.037 161.505V161.5ZM328.812 150.403H319.339L321.526 147.887H331.309L328.807 150.403H328.812ZM317.711 150.403H308.142L310.018 147.887H319.902L317.716 150.403H317.711ZM306.61 150.403H296.95L298.515 147.887H308.485L306.61 150.403ZM295.5 150.403H285.758L287.007 147.887H297.06L295.496 150.403H295.5ZM284.386 150.403H274.58L275.517 147.887H285.639L284.39 150.403H284.386ZM273.262 150.403H263.401L264.028 147.887H274.2L273.262 150.403ZM262.134 150.403H252.236L252.547 147.887H262.761L262.134 150.403ZM250.997 150.403H241.081V147.887H251.308L250.997 150.403ZM239.85 150.403H229.934L229.623 147.887H239.85V150.403ZM228.69 150.403H218.792L218.166 147.887H228.375L228.686 150.403H228.69ZM217.525 150.403H207.664L206.727 147.887H216.899L217.525 150.403ZM206.351 150.403H196.545L195.296 147.887H205.418L206.356 150.403H206.351ZM195.168 150.403H185.426L183.862 147.887H193.915L195.164 150.403H195.168ZM183.981 150.403H174.321L172.446 147.887H182.417L183.981 150.403ZM172.784 150.403H163.216L161.029 147.887H170.913L172.789 150.403H172.784ZM161.587 150.403H152.115L149.613 147.887H159.396L161.583 150.403H161.587ZM150.894 152.164V161.624L148.433 159.451V149.68L150.894 152.164ZM150.894 163.266V172.827L148.433 170.965V161.093L150.894 163.266ZM150.894 174.368V184.025L148.433 182.474V172.506L150.894 174.368ZM150.894 185.479V195.218L148.433 193.978V183.929L150.894 185.479ZM150.894 196.595V206.402L148.433 205.469V195.351L150.894 196.59V196.595ZM150.894 207.72V217.582L148.433 216.96V206.787L150.894 207.72ZM150.894 218.849V228.748L148.433 228.437V218.227L150.894 218.849ZM150.894 229.992V239.91H148.433V229.681L150.894 229.992ZM150.894 241.14V251.057L148.433 251.368V241.14H150.894ZM150.894 252.302V262.2L148.433 262.823V252.613L150.894 252.302ZM150.894 263.468V273.33L148.433 274.263V264.09L150.894 263.468ZM150.894 274.647V284.455L148.433 285.694V275.576L150.894 274.643V274.647ZM150.894 285.832V295.57L148.433 297.121V287.071L150.894 285.832ZM150.894 297.025V306.682L148.433 308.543V298.576L150.894 297.025ZM150.894 308.223V317.784L148.433 319.956V310.085L150.894 308.223ZM150.894 319.426V328.886L148.433 331.369V321.599L150.894 319.426ZM152.115 330.523H161.587L159.401 333.039H149.617L152.119 330.523H152.115ZM163.216 330.523H172.784L170.909 333.039H161.025L163.211 330.523H163.216ZM174.321 330.523H183.981L182.417 333.039H172.446L174.321 330.523ZM185.426 330.523H195.168L193.92 333.039H183.866L185.431 330.523H185.426ZM196.545 330.523H206.351L205.414 333.039H195.292L196.541 330.523H196.545ZM207.664 330.523H217.525L216.899 333.039H206.727L207.664 330.523ZM218.792 330.523H228.69L228.379 333.039H218.17L218.797 330.523H218.792ZM229.93 330.523H239.846V333.039H229.619L229.93 330.523ZM241.081 330.523H250.997L251.308 333.039H241.081V330.523ZM252.236 330.523H262.134L262.761 333.039H252.547L252.236 330.523ZM263.401 330.523H273.262L274.2 333.039H264.028L263.401 330.523ZM274.575 330.523H284.381L285.63 333.039H275.508L274.57 330.523H274.575ZM285.758 330.523H295.5L297.065 333.039H287.011L285.763 330.523H285.758ZM296.95 330.523H306.61L308.485 333.039H298.515L296.95 330.523ZM308.142 330.523H317.711L319.897 333.039H310.013L308.138 330.523H308.142ZM319.344 330.523H328.816L331.318 333.039H321.535L319.348 330.523H319.344ZM333.729 332.486V322.559L336.514 325.016V335.29L333.729 332.481V332.486ZM333.729 320.922V310.895L336.514 313.003V323.383L333.729 320.926V320.922ZM333.729 309.348V299.225L336.514 300.982V311.453L333.729 309.344V309.348ZM333.729 297.775V287.57L336.514 288.974V299.527L333.729 297.771V297.775ZM333.729 286.193V275.919L336.514 276.971V287.597L333.729 286.193ZM333.729 274.606V264.277L336.514 264.982V275.658L333.729 274.606ZM333.729 263.01V252.645L336.514 252.997V263.715L333.729 263.01ZM333.729 251.405V241.021H336.514V251.757L333.729 251.405ZM333.729 239.786V229.402L336.514 229.05V239.786H333.729ZM333.729 228.163V217.797L336.514 217.093V227.81L333.729 228.163ZM333.729 216.53V206.201L336.514 205.149V215.83L333.729 216.535V216.53ZM333.729 204.888V194.614L336.514 193.21V203.836L333.729 204.888ZM333.729 193.237V183.032L336.514 181.275V191.828L333.729 193.233V193.237ZM333.729 181.577V171.454L336.514 169.345V179.816L333.729 181.573V181.577ZM333.729 169.913V159.886L336.514 157.429V167.808L333.729 169.917V169.913ZM333.729 158.243V148.317L336.514 145.508V155.787L333.729 158.243ZM332.535 146.657H322.6L325.075 143.811H335.361L332.535 146.657ZM320.972 146.657H310.937L313.055 143.811H323.442L320.968 146.657H320.972ZM309.4 146.657H299.274L301.039 143.811H311.518L309.4 146.657ZM297.828 146.657H287.624L289.038 143.811H299.599L297.833 146.657H297.828ZM286.247 146.657H275.975L277.036 143.811H287.661L286.247 146.657ZM274.657 146.657H264.33L265.039 143.811H275.718L274.657 146.657ZM263.063 146.657H252.698L253.05 143.811H263.767L263.063 146.657ZM251.459 146.657H241.076V143.811H251.811L251.459 146.657ZM239.85 146.657H229.468L229.116 143.811H239.85V146.657ZM228.228 146.657H217.864L217.159 143.811H227.876L228.228 146.657ZM216.597 146.657H206.269L205.208 143.811H215.888L216.592 146.657H216.597ZM204.956 146.657H194.684L193.27 143.811H203.895L204.956 146.657ZM193.307 146.657H183.103L181.337 143.811H191.898L193.311 146.657H193.307ZM181.653 146.657H171.526L169.409 143.811H179.887L181.653 146.657ZM169.994 146.657H159.959L157.484 143.811H167.872L169.989 146.657H169.994ZM158.331 146.657H148.392L145.565 143.811H155.856L158.331 146.657ZM147.198 148.441V158.367L144.412 155.911V145.637L147.198 148.445V148.441ZM147.198 160.009V170.036L144.412 167.932V157.553L147.198 160.009ZM147.198 171.578V181.701L144.412 179.944V169.474L147.198 171.578ZM147.198 183.151V193.356L144.412 191.952V181.399L147.198 183.155V183.151ZM147.198 194.733V205.007L144.412 203.955V193.329L147.198 194.733ZM147.198 206.325V216.654L144.412 215.954V205.277L147.198 206.329V206.325ZM147.198 217.921V228.286L144.412 227.934V217.216L147.198 217.916V217.921ZM147.198 229.526V239.91H144.412V229.174L147.198 229.526ZM147.198 241.14V251.524L144.412 251.876V241.14H147.198ZM147.198 252.764V263.129L144.412 263.829V253.111L147.198 252.759V252.764ZM147.198 264.401V274.73L144.412 275.782V265.105L147.198 264.405V264.401ZM147.198 276.043V286.317L144.412 287.721V277.095L147.198 276.043ZM147.198 287.693V297.899L144.412 299.655V289.102L147.198 287.698V287.693ZM147.198 299.349V309.472L144.412 311.576V301.105L147.198 299.349ZM147.198 311.014V321.041L144.412 323.497V313.118L147.198 311.014ZM147.198 322.683V332.609L144.412 335.418V325.144L147.198 322.687V322.683ZM148.392 334.27H158.326L155.852 337.115H145.56L148.387 334.27H148.392ZM159.959 334.27H169.994L167.876 337.115H157.489L159.964 334.27H159.959ZM171.526 334.27H181.653L179.887 337.115H169.409L171.526 334.27ZM183.103 334.27H193.307L191.894 337.115H181.333L183.098 334.27H183.103ZM194.684 334.27H204.956L203.895 337.115H193.27L194.684 334.27ZM206.269 334.27H216.597L215.893 337.115H205.213L206.274 334.27H206.269ZM217.864 334.27H228.228L227.876 337.115H217.159L217.868 334.27H217.864ZM229.468 334.27H239.85V337.115H229.116L229.468 334.27ZM241.081 334.27H251.463L251.816 337.115H241.081V334.27ZM252.698 334.27H263.063L263.767 337.115H253.05L252.698 334.27ZM264.334 334.27H274.662L275.723 337.115H265.043L264.339 334.27H264.334ZM275.975 334.27H286.247L287.661 337.115H277.036L275.975 334.27ZM287.62 334.27H297.824L299.589 337.115H289.028L287.615 334.27H287.62ZM299.274 334.27H309.4L311.518 337.115H301.039L299.274 334.27ZM310.937 334.27H320.972L323.447 337.115H313.059L310.942 334.27H310.937ZM322.6 334.27H332.535L335.361 337.115H325.075L322.6 334.27ZM337.744 336.538V326.109L340.896 328.89V339.718L337.744 336.538ZM337.744 324.467V313.932L340.896 316.315V327.248L337.744 324.467ZM337.744 312.386V301.76L340.896 303.745V314.769L337.744 312.386ZM337.744 300.305V289.596L340.896 291.184V302.29L337.744 300.305ZM337.744 288.219V277.438L340.896 278.632V289.807L337.744 288.219ZM337.744 276.125V265.293L340.896 266.089V277.319L337.744 276.125ZM337.744 264.021V253.148L340.896 253.546V264.817L337.744 264.021ZM337.744 251.908V241.017H340.896V252.306L337.744 251.908ZM337.744 239.786V228.895L340.896 228.497V239.786H337.744ZM337.744 227.659V216.786L340.896 215.99V227.257L337.744 227.655V227.659ZM337.744 215.519V204.687L340.896 203.493V214.723L337.744 215.519ZM337.744 203.365V192.583L340.896 190.996V202.171L337.744 203.365ZM337.744 191.211V180.502L340.896 178.517V189.624L337.744 191.211ZM337.744 179.048V168.421L340.896 166.038V177.062L337.744 179.048ZM337.744 166.875V156.341L340.896 153.559V164.492L337.744 166.875ZM337.744 154.698V144.269L340.896 141.09V151.917L337.744 154.698ZM336.583 142.581H326.141L328.94 139.36H339.78L336.583 142.581ZM324.512 142.581H313.97L316.366 139.36H327.307L324.508 142.581H324.512ZM312.437 142.581H301.808L303.806 139.36H314.839L312.442 142.581H312.437ZM300.358 142.581H289.646L291.247 139.36H302.357L300.358 142.581ZM288.269 142.581H277.489L278.687 139.36H289.865L288.265 142.581H288.269ZM276.176 142.581H265.345L266.145 139.36H277.379L276.18 142.581H276.176ZM264.078 142.581H253.206L253.604 139.36H264.874L264.073 142.581H264.078ZM251.966 142.581H241.076V139.36H252.364L251.966 142.581ZM239.85 142.581H228.96L228.562 139.36H239.85V142.581ZM227.72 142.581H216.853L216.053 139.36H227.323L227.72 142.581ZM215.582 142.581H204.751L203.552 139.36H214.786L215.586 142.581H215.582ZM203.438 142.581H192.657L191.057 139.36H202.235L203.433 142.581H203.438ZM191.285 142.581H180.573L178.575 139.36H189.684L191.285 142.581ZM179.123 142.581H168.494L166.097 139.36H177.129L179.128 142.581H179.123ZM166.957 142.581H156.414L153.615 139.36H164.556L166.952 142.581H166.957ZM154.786 142.581H144.344L141.147 139.36H151.991L154.79 142.581H154.786ZM143.182 144.392V154.822L140.031 152.041V141.213L143.182 144.392ZM143.182 156.464V166.999L140.031 164.616V153.683L143.182 156.464ZM143.182 168.54V179.167L140.031 177.181V166.157L143.182 168.54ZM143.182 180.621V191.33L140.031 189.743V178.636L143.182 180.621ZM143.182 192.711V203.493L140.031 202.299V191.124L143.182 192.711ZM143.182 204.806V215.638L140.031 214.842V203.612L143.182 204.806ZM143.182 216.91V227.783L140.031 227.385V216.118L143.182 216.914V216.91ZM143.182 229.018V239.91H140.031V228.62L143.182 229.018ZM143.182 241.14V252.032L140.031 252.43V241.14H143.182ZM143.182 253.271V264.145L140.031 264.941V253.674L143.182 253.276V253.271ZM143.182 265.412V276.244L140.031 277.438V266.208L143.182 265.412ZM143.182 277.561V288.338L140.031 289.926V278.751L143.182 277.557V277.561ZM143.182 289.715V300.424L140.031 302.409V291.303L143.182 289.715ZM143.182 301.883V312.509L140.031 314.893V303.868L143.182 301.883ZM143.182 314.051V324.586L140.031 327.367V316.434L143.182 314.051ZM143.182 326.228V336.657L140.031 339.837V329.009L143.182 326.228ZM144.344 338.35H154.786L151.987 341.57H141.147L144.344 338.35ZM156.414 338.35H166.957L164.56 341.57H153.62L156.419 338.35H156.414ZM168.489 338.35H179.119L177.12 341.57H166.088L168.485 338.35H168.489ZM180.573 338.35H191.285L189.684 341.57H178.575L180.573 338.35ZM192.657 338.35H203.438L202.24 341.57H191.061L192.662 338.35H192.657ZM204.751 338.35H215.582L214.781 341.57H203.548L204.746 338.35H204.751ZM216.853 338.35H227.72L227.323 341.57H216.053L216.853 338.35ZM228.96 338.35H239.85V341.57H228.562L228.96 338.35ZM241.081 338.35H251.971L252.369 341.57H241.081V338.35ZM253.206 338.35H264.078L264.878 341.57H253.608L253.211 338.35H253.206ZM265.345 338.35H276.176L277.374 341.57H266.141L265.34 338.35H265.345ZM277.493 338.35H288.274L289.875 341.57H278.696L277.498 338.35H277.493ZM289.646 338.35H300.358L302.357 341.57H291.247L289.646 338.35ZM301.803 338.35H312.433L314.829 341.57H303.797L301.799 338.35H301.803ZM313.974 338.35H324.517L327.316 341.57H316.375L313.979 338.35H313.974ZM326.141 338.35H336.583L339.78 341.57H328.94L326.141 338.35ZM342.126 340.957V329.974L345.703 333.131V344.566L342.126 340.962V340.957ZM342.126 328.332V317.244L345.703 319.947V331.484L342.126 328.327V328.332ZM342.126 315.702V304.522L345.703 306.778V318.406L342.126 315.702ZM342.126 303.068V291.806L345.703 293.608V305.323L342.126 303.068ZM342.126 290.429V279.098L345.703 280.452V292.236L342.126 290.433V290.429ZM342.126 277.781V266.395L345.703 267.296V279.135L342.126 277.781ZM342.126 265.128V253.706L345.703 254.159V266.034L342.126 265.133V265.128ZM342.126 252.462V241.017H345.703V252.91L342.126 252.457V252.462ZM342.126 239.786V228.341L345.703 227.888V239.782H342.126V239.786ZM342.126 227.106V215.684L345.703 214.783V226.658L342.126 227.111V227.106ZM342.126 214.412V203.027L345.703 201.672V213.511L342.126 214.412ZM342.126 201.709V190.378L345.703 188.576V200.36L342.126 201.714V201.709ZM342.126 189.002V177.739L345.703 175.484V187.199L342.126 189.002ZM342.126 176.285V165.105L345.703 162.402V174.034L342.126 176.289V176.285ZM342.126 163.559V152.475L345.703 149.319V160.855L342.126 163.559ZM342.126 150.833V139.85L345.703 136.245V147.681L342.126 150.838V150.833ZM341.006 138.13H330.01L333.18 134.484H344.628L341.006 138.13ZM328.382 138.13H317.29L320.007 134.484H331.551L328.382 138.13ZM315.753 138.13H304.57L306.834 134.484H318.47L315.753 138.13ZM303.12 138.13H291.855L293.666 134.484H305.384L303.12 138.13ZM290.478 138.13H279.149L280.507 134.484H292.294L290.483 138.13H290.478ZM277.836 138.13H266.452L267.357 134.484H279.195L277.836 138.13ZM265.18 138.13H253.759L254.212 134.484H266.086L265.18 138.13ZM252.52 138.13H241.081V134.484H252.973L252.52 138.13ZM239.85 138.13H228.411L227.958 134.484H239.85V138.13ZM227.167 138.13H215.746L214.841 134.484H226.714L227.167 138.13ZM214.479 138.13H203.095L201.736 134.484H213.574L214.479 138.13ZM201.778 138.13H190.444L188.632 134.484H200.419L201.778 138.13ZM189.071 138.13H177.806L175.542 134.484H187.26L189.071 138.13ZM176.361 138.13H165.178L162.461 134.484H174.097L176.361 138.13ZM163.641 138.13H152.549L149.38 134.484H160.924L163.641 138.13ZM150.916 138.13H139.921L136.298 134.484H147.747L150.916 138.13ZM138.8 139.973V150.957L135.224 147.8V136.364L138.8 139.969V139.973ZM138.8 152.599V163.682L135.224 160.979V149.442L138.8 152.599ZM138.8 165.229V176.408L135.224 174.153V162.525L138.8 165.229ZM138.8 177.858V189.12L135.224 187.318V175.603L138.8 177.858ZM138.8 190.502V201.833L135.224 200.479V188.695L138.8 190.497V190.502ZM138.8 203.15V214.536L135.224 213.634V201.796L138.8 203.15ZM138.8 215.803V227.225L135.224 226.772V214.897L138.8 215.798V215.803ZM138.8 228.465V239.91H135.224V228.016L138.8 228.469V228.465ZM138.8 241.14V252.585L135.224 253.038V241.145H138.8V241.14ZM138.8 253.825V265.247L135.224 266.148V254.273L138.8 253.82V253.825ZM138.8 266.514V277.9L135.224 279.254V267.415L138.8 266.514ZM138.8 279.217V290.548L135.224 292.35V280.567L138.8 279.213V279.217ZM138.8 291.925V303.187L135.224 305.442V293.727L138.8 291.925ZM138.8 304.641V315.821L135.224 318.525V306.892L138.8 304.637V304.641ZM138.8 317.367V328.451L135.224 331.607V320.071L138.8 317.367ZM138.8 330.093V341.076L135.224 344.681V333.245L138.8 330.089V330.093ZM139.925 342.801H150.921L147.751 346.451H136.303L139.925 342.801ZM152.549 342.801H163.641L160.924 346.451H149.38L152.549 342.801ZM165.178 342.801H176.361L174.097 346.451H162.461L165.178 342.801ZM177.811 342.801H189.076L187.265 346.451H175.547L177.811 342.801ZM190.448 342.801H201.782L200.424 346.451H188.637L190.448 342.801ZM203.095 342.801H214.479L213.574 346.451H201.736L203.095 342.801ZM215.746 342.801H227.167L226.714 346.451H214.841L215.746 342.801ZM228.407 342.801H239.846V346.451H227.954L228.407 342.801ZM241.081 342.801H252.52L252.973 346.451H241.081V342.801ZM253.759 342.801H265.18L266.086 346.451H254.212L253.759 342.801ZM266.452 342.801H277.836L279.195 346.451H267.357L266.452 342.801ZM279.149 342.801H290.483L292.294 346.451H280.507L279.149 342.801ZM291.855 342.801H303.12L305.384 346.451H293.666L291.855 342.801ZM304.566 342.801H315.749L318.466 346.451H306.83L304.566 342.801ZM317.286 342.801H328.377L331.547 346.451H320.002L317.286 342.801ZM330.01 342.801H341.006L344.628 346.451H333.18L330.01 342.801ZM346.933 345.802V334.21L350.995 337.792V349.891L346.933 345.797V345.802ZM346.933 332.573V320.88L350.995 323.95V336.154L346.933 332.573ZM346.933 319.339V307.555L350.995 310.112V322.408L346.933 319.339ZM346.933 306.096V294.226L350.995 296.27V308.649L346.933 306.092V306.096ZM346.933 292.853V280.914L350.995 282.451V294.903L346.933 292.858V292.853ZM346.933 279.597V267.603L350.995 268.627V281.129L346.933 279.592V279.597ZM346.933 266.336V254.305L350.995 254.817V267.36L346.933 266.336ZM346.933 253.065V241.017H350.995V253.578L346.933 253.065ZM346.933 239.786V227.737L350.995 227.225V239.786H346.933ZM346.933 226.498V214.467L350.995 213.442V225.985L346.933 226.498ZM346.933 213.2V201.206L350.995 199.669V212.171L346.933 213.195V213.2ZM346.933 199.893V187.954L350.995 185.909V198.361L346.933 199.898V199.893ZM346.933 186.577V174.707L350.995 172.15V184.528L346.933 186.573V186.577ZM346.933 173.257V161.473L350.995 158.404V170.699L346.933 173.257ZM346.933 159.927V148.235L350.995 144.653V156.857L346.933 159.927ZM346.933 146.593V135.001L350.995 130.907V143.011L346.933 146.593ZM345.849 133.249H334.25L337.85 129.109H349.961L345.849 133.249ZM332.617 133.249H320.917L324 129.109H336.212L332.613 133.249H332.617ZM319.385 133.249H307.594L310.164 129.109H322.468L319.385 133.249ZM306.148 133.249H294.279L296.337 129.109H308.723L306.153 133.249H306.148ZM292.902 133.249H280.965L282.506 129.109H294.956L292.898 133.249H292.902ZM279.652 133.249H267.659L268.688 129.109H281.193L279.652 133.249ZM266.392 133.249H254.363L254.875 129.109H267.417L266.388 133.249H266.392ZM253.124 133.249H241.076V129.109H253.636L253.124 133.249ZM239.85 133.249H227.803L227.291 129.109H239.85V133.249ZM226.563 133.249H214.534L213.505 129.109H226.046L226.559 133.249H226.563ZM213.267 133.249H201.275L199.733 129.109H212.238L213.267 133.249ZM199.962 133.249H188.024L185.966 129.109H198.416L199.957 133.249H199.962ZM186.652 133.249H174.783L172.212 129.109H184.598L186.656 133.249H186.652ZM173.333 133.249H161.541L158.459 129.109H170.762L173.333 133.249ZM160.009 133.249H148.309L144.71 129.109H156.922L160.005 133.249H160.009ZM146.681 133.249H135.082L130.97 129.109H143.086L146.686 133.249H146.681ZM133.993 135.125V146.716L129.932 143.134V131.035L133.993 135.129V135.125ZM133.993 148.358V160.05L129.932 156.981V144.777L133.993 148.358ZM133.993 161.592V173.375L129.932 170.818V158.523L133.993 161.592ZM133.993 174.83V186.701L129.932 184.656V172.278L133.993 174.835V174.83ZM133.993 188.077V200.017L129.932 198.48V186.028L133.993 188.073V188.077ZM133.993 201.329V213.319L129.932 212.294V199.792L133.993 201.329ZM133.993 214.59V226.621L129.932 226.109V213.566L133.993 214.59ZM133.993 227.861V239.91H129.932V227.348L133.993 227.861ZM133.993 241.14V253.189L129.932 253.701V241.14H133.993ZM133.993 254.429V266.459L129.932 267.484V254.941L133.993 254.429ZM133.993 267.726V279.716L129.932 281.253V268.751L133.993 267.726ZM133.993 281.033V292.972L129.932 295.017V282.566L133.993 281.029V281.033ZM133.993 294.349V306.22L129.932 308.777V296.398L133.993 294.354V294.349ZM133.993 307.674V319.458L129.932 322.527V310.231L133.993 307.674ZM133.993 320.999V332.691L129.932 336.273V324.069L133.993 320.999ZM133.993 334.334V345.925L129.932 350.019V337.92L133.993 334.338V334.334ZM135.077 347.677H146.676L143.077 351.817H130.961L135.073 347.677H135.077ZM148.309 347.677H160.009L156.926 351.817H144.714L148.314 347.677H148.309ZM161.541 347.677H173.333L170.762 351.817H158.459L161.541 347.677ZM174.783 347.677H186.652L184.598 351.817H172.212L174.783 347.677ZM188.024 347.677H199.962L198.42 351.817H185.97L188.024 347.677ZM201.275 347.677H213.267L212.238 351.817H199.733L201.275 347.677ZM214.534 347.677H226.563L226.051 351.817H213.51L214.539 347.677H214.534ZM227.803 347.677H239.85V351.817H227.291L227.803 347.677ZM241.081 347.677H253.128L253.64 351.817H241.081V347.677ZM254.363 347.677H266.392L267.422 351.817H254.88L254.368 347.677H254.363ZM267.659 347.677H279.652L281.193 351.817H268.688L267.659 347.677ZM280.965 347.677H292.902L294.956 351.817H282.506L280.965 347.677ZM294.279 347.677H306.148L308.719 351.817H296.333L294.279 347.677ZM307.594 347.677H319.385L322.468 351.817H310.164L307.594 347.677ZM320.922 347.677H332.622L336.221 351.817H324.009L320.926 347.677H320.922ZM334.25 347.677H345.849L349.961 351.817H337.85L334.25 347.677ZM352.225 351.14V338.885L356.849 342.965V355.806L352.225 351.144V351.14ZM352.225 337.238V324.878L356.849 328.373V341.314L352.225 337.234V337.238ZM352.225 323.337V310.885L356.849 313.799V326.836L352.225 323.341V323.337ZM352.225 309.431V296.897L356.849 299.225V312.345L352.225 309.431ZM352.225 295.52V282.918L356.849 284.665V297.853L352.225 295.525V295.52ZM352.225 281.6V268.943L356.849 270.11V283.352L352.225 281.605V281.6ZM352.225 267.671V254.973L356.849 255.554V268.833L352.225 267.667V267.671ZM352.225 253.733V241.017H356.849V254.314L352.225 253.733ZM352.225 239.786V227.069L356.849 226.488V239.786H352.225ZM352.225 225.834V213.136L356.849 211.969V225.249L352.225 225.83V225.834ZM352.225 211.869V199.211L356.849 197.464V210.707L352.225 211.873V211.869ZM352.225 197.894V185.292L356.849 182.963V196.151L352.225 197.899V197.894ZM352.225 183.91V171.376L356.849 168.463V181.582L352.225 183.91ZM352.225 169.922V157.47L356.849 153.976V167.013L352.225 169.926V169.922ZM352.225 155.924V143.564L356.849 139.484V152.425L352.225 155.92V155.924ZM352.225 141.927V129.672L356.849 125.011V137.851L352.225 141.931V141.927ZM351.182 127.879H338.915L343.009 123.167H355.861L351.182 127.879ZM337.287 127.879H324.919L328.427 123.167H341.376L337.282 127.879H337.287ZM323.387 127.879H310.933L313.855 123.167H326.895L323.387 127.879ZM309.483 127.879H296.946L299.287 123.167H312.41L309.487 127.879H309.483ZM295.569 127.879H282.963L284.72 123.167H297.911L295.569 127.879ZM281.651 127.879H268.995L270.166 123.167H283.407L281.651 127.879ZM267.728 127.879H255.031L255.616 123.167H268.894L267.723 127.879H267.728ZM253.791 127.879H241.076V123.167H254.372L253.787 127.879H253.791ZM239.85 127.879H227.14L226.554 123.167H239.85V127.879ZM225.896 127.879H213.203L212.032 123.167H225.31L225.896 127.879ZM211.932 127.879H199.276L197.519 123.167H210.761L211.932 127.879ZM197.963 127.879H185.358L183.016 123.167H196.207L197.963 127.879ZM183.985 127.879H171.448L168.526 123.167H181.648L183.99 127.879H183.985ZM169.999 127.879H157.544L154.036 123.167H167.076L169.999 127.879ZM156.007 127.879H143.639L139.546 123.167H152.494L156.003 127.879H156.007ZM142.011 127.879H129.744L125.065 123.167H137.918L142.011 127.879ZM128.701 129.791V142.046L124.077 137.965V125.125L128.701 129.786V129.791ZM128.701 143.688V156.048L124.077 152.553V139.612L128.701 143.692V143.688ZM128.701 157.589V170.041L124.077 167.127V154.09L128.701 157.585V157.589ZM128.701 171.495V184.029L124.077 181.696V168.577L128.701 171.491V171.495ZM128.701 185.411V198.018L124.077 196.27V183.082L128.701 185.415V185.411ZM128.701 199.33V211.988L124.077 210.821V197.578L128.701 199.326V199.33ZM128.701 213.259V225.953L124.077 225.372V212.093L128.701 213.259ZM128.701 227.193V239.91H124.077V226.612L128.701 227.193ZM128.701 241.14V253.857L124.077 254.438V241.14H128.701ZM128.701 255.096V267.79L124.077 268.957V255.677L128.701 255.096ZM128.701 269.062V281.719L124.077 283.467V270.224L128.701 269.057V269.062ZM128.701 283.037V295.639L124.077 297.972V284.784L128.701 283.037ZM128.701 297.016V309.55L124.077 312.464V299.344L128.701 297.011V297.016ZM128.701 311.004V323.456L124.077 326.951V313.914L128.701 311V311.004ZM128.701 325.002V337.362L124.077 341.442V328.501L128.701 325.006V325.002ZM128.701 339.004V351.259L124.077 355.92V343.08L128.701 338.999V339.004ZM129.744 353.047H142.011L137.918 357.759H125.065L129.744 353.047ZM143.639 353.047H156.007L152.499 357.759H139.55L143.644 353.047H143.639ZM157.544 353.047H169.999L167.076 357.759H154.036L157.544 353.047ZM171.448 353.047H183.985L181.644 357.759H168.521L171.444 353.047H171.448ZM185.358 353.047H197.963L196.207 357.759H183.016L185.358 353.047ZM199.276 353.047H211.932L210.761 357.759H197.519L199.276 353.047ZM213.203 353.047H225.896L225.31 357.759H212.032L213.203 353.047ZM227.135 353.047H239.846V357.759H226.55L227.135 353.047ZM241.081 353.047H253.796L254.381 357.759H241.085V353.047H241.081ZM255.031 353.047H267.728L268.899 357.759H255.621L255.036 353.047H255.031ZM268.995 353.047H281.651L283.407 357.759H270.166L268.995 353.047ZM282.963 353.047H295.569L297.911 357.759H284.72L282.963 353.047ZM296.946 353.047H309.483L312.405 357.759H299.283L296.941 353.047H296.946ZM310.928 353.047H323.383L326.891 357.759H313.851L310.928 353.047ZM324.919 353.047H337.287L341.381 357.759H328.432L324.924 353.047H324.919ZM338.915 353.047H351.182L355.861 357.759H343.009L338.915 353.047ZM358.08 357.041V344.045L363.363 348.706V362.365L358.08 357.041ZM358.08 342.403V329.306L363.363 333.3V347.064L358.08 342.403ZM358.08 327.765V314.577L363.363 317.907V331.763L358.08 327.769V327.765ZM358.08 313.118V299.843L363.363 302.505V316.443L358.08 313.113V313.118ZM358.08 298.471V285.127L363.363 287.122V301.128L358.08 298.466V298.471ZM358.08 283.81V270.411L363.363 271.743V285.804L358.08 283.805V283.81ZM358.08 269.144V255.709L363.363 256.377V270.476L358.08 269.144ZM358.08 254.47V241.017H363.363V255.133L358.08 254.465V254.47ZM364.588 239.786V225.514L370.644 224.75V239.786H364.588ZM363.358 239.786H358.075V226.333L363.358 225.665V239.786ZM358.08 225.093V211.658L363.363 210.327V224.425L358.08 225.093ZM358.08 210.391V196.993L363.363 194.994V209.056L358.08 210.387V210.391ZM358.08 195.68V182.337L363.363 179.674V193.681L358.08 195.675V195.68ZM358.08 180.96V167.685L363.363 164.355V178.293L358.08 180.955V180.96ZM358.08 166.235V153.047L363.363 149.054V162.909L358.08 166.239V166.235ZM358.08 151.501V138.404L363.363 133.743V147.503L358.08 151.496V151.501ZM358.08 136.762V123.766L363.363 118.442V132.101L358.08 136.762ZM357.083 121.937H344.079L348.754 116.557H362.425L357.083 121.937ZM342.451 121.937H329.347L333.354 116.557H347.125L342.451 121.937ZM327.81 121.937H314.614L317.953 116.557H331.817L327.81 121.937ZM313.169 121.937H299.896L302.567 116.557H316.508L313.169 121.937ZM298.519 121.937H285.177L287.181 116.557H301.19L298.519 121.937ZM283.864 121.937H270.468L271.803 116.557H285.868L283.864 121.937ZM269.201 121.937H255.767L256.435 116.557H270.536L269.201 121.937ZM254.528 121.937H241.076V116.557H255.196L254.528 121.937ZM239.85 121.937H226.399L225.731 116.557H239.85V121.937ZM225.159 121.937H211.726L210.39 116.557H224.491L225.159 121.937ZM210.459 121.937H197.062L195.059 116.557H209.123L210.459 121.937ZM195.749 121.937H182.407L179.736 116.557H193.746L195.749 121.937ZM181.031 121.937H167.757L164.418 116.557H178.36L181.031 121.937ZM166.312 121.937H153.116L149.11 116.557H162.973L166.312 121.937ZM151.58 121.937H138.476L133.801 116.557H147.573L151.58 121.937ZM136.847 121.937H123.844L118.502 116.557H132.173L136.847 121.937ZM122.851 123.89V136.886L117.573 132.229V118.57L122.851 123.895V123.89ZM122.851 138.523V151.62L117.573 147.626V133.867L122.851 138.523ZM122.851 153.166V166.354L117.573 163.028V149.173L122.851 153.166ZM122.851 167.808V181.083L117.573 178.421V164.483L122.851 167.808ZM122.851 182.46V195.804L117.573 193.809V179.802L122.851 182.465V182.46ZM122.851 197.116V210.515L117.573 209.184V195.122L122.851 197.116ZM122.851 211.782V225.217L117.573 224.553V210.455L122.851 211.786V211.782ZM122.851 226.456V239.91H117.573V225.793L122.851 226.456ZM116.338 241.14V255.412L110.282 256.176V241.14H116.338ZM117.569 241.14H122.847V254.593L117.569 255.257V241.136V241.14ZM122.851 255.833V269.268L117.573 270.599V256.501L122.851 255.838V255.833ZM122.851 270.535V283.933L117.573 285.928V271.866L122.851 270.535ZM122.851 285.251V298.594L117.573 301.256V287.25L122.851 285.255V285.251ZM122.851 299.966V313.241L117.573 316.567V302.629L122.851 299.966ZM122.851 314.696V327.888L117.573 331.882V318.026L122.851 314.7V314.696ZM122.851 329.43V342.526L117.573 347.183V333.423L122.851 329.43ZM122.851 344.169V357.164L117.573 362.489V348.83L122.851 344.173V344.169ZM123.844 358.994H136.847L132.173 364.373H118.502L123.844 358.994ZM138.476 358.994H151.58L147.573 364.373H133.801L138.476 358.994ZM153.116 358.994H166.312L162.973 364.373H149.11L153.116 358.994ZM167.757 358.994H181.031L178.36 364.373H164.418L167.757 358.994ZM182.407 358.994H195.749L193.746 364.373H179.736L182.407 358.994ZM197.062 358.994H210.459L209.123 364.373H195.059L197.062 358.994ZM211.726 358.994H225.159L224.491 364.373H210.39L211.726 358.994ZM226.399 358.994H239.85V364.373H225.731L226.399 358.994ZM241.081 358.994H254.532L255.2 364.373H241.081V358.994ZM255.767 358.994H269.201L270.536 364.373H256.435L255.767 358.994ZM270.472 358.994H283.869L285.872 364.373H271.808L270.472 358.994ZM285.177 358.994H298.519L301.19 364.373H287.181L285.177 358.994ZM299.896 358.994H313.169L316.508 364.373H302.567L299.896 358.994ZM314.619 358.994H327.815L331.821 364.373H317.958L314.619 358.994ZM329.347 358.994H342.451L347.125 364.373H333.354L329.347 358.994ZM344.079 358.994H357.083L362.425 364.373H348.754L344.079 358.994ZM364.588 363.605V349.79L370.644 355.133V369.712L364.588 363.605ZM364.588 348.148V334.233L370.644 338.812V353.491L364.588 348.148ZM364.588 332.687V318.676L370.644 322.491V337.266L364.588 332.687ZM364.588 317.225V303.132L370.644 306.183V321.041L364.588 317.225ZM364.588 301.75V287.588L370.644 289.88V304.806L364.588 301.755V301.75ZM364.588 286.275V272.058L370.644 273.586V288.567L364.588 286.275ZM364.588 270.787V256.533L370.644 257.297V272.314L364.588 270.787ZM371.874 257.452L378.854 258.331V274.382L371.874 272.621V257.448V257.452ZM380.085 258.486L388.171 259.506V276.733L380.085 274.693V258.486ZM389.401 259.662L398.837 260.851V279.423L389.401 277.044V259.662ZM400.068 261.007L411.168 262.406V282.534L400.068 279.734V261.007ZM412.403 262.557L425.594 264.218V286.161L412.403 282.835V262.553V262.557ZM426.825 264.378L442.687 266.377V290.475L426.825 286.477V264.378ZM443.917 266.532L463.265 268.971V295.662L443.917 290.786V266.532ZM463.265 239.786H443.917V215.515L463.265 213.076V239.786ZM442.687 239.786H426.825V217.669L442.687 215.67V239.786ZM425.594 239.786H412.403V219.485L425.594 217.825V239.786ZM411.173 239.786H400.072V221.04L411.173 219.641V239.786ZM398.837 239.786H389.401V222.385L398.837 221.196V239.786ZM388.171 239.786H380.085V223.561L388.171 222.541V239.786ZM378.854 239.786H371.874V224.595L378.854 223.716V239.786ZM371.874 223.355V208.182L378.854 206.421V222.472L371.874 223.35V223.355ZM370.644 223.511L364.588 224.274V210.021L370.644 208.493V223.511ZM364.588 208.749V194.532L370.644 192.24V207.221L364.588 208.749ZM364.588 193.219V179.057L370.644 176.006V190.932L364.588 193.224V193.219ZM364.588 177.675V163.582L370.644 159.767V174.624L364.588 177.675ZM364.588 162.127V148.116L370.644 143.537V158.312L364.588 162.127ZM364.588 146.574V132.659L370.644 127.316V141.995L364.588 146.574ZM364.588 131.017V117.202L370.644 111.096V125.674L364.588 131.017ZM363.646 115.327H349.824L355.184 109.161H369.775L363.651 115.327H363.646ZM348.196 115.327H334.273L338.865 109.161H353.556L348.196 115.327ZM332.736 115.327H318.722L322.55 109.161H337.328L332.736 115.327ZM317.272 115.327H303.175L306.235 109.161H321.096L317.267 115.327H317.272ZM301.803 115.327H287.642L289.939 109.161H304.868L301.808 115.327H301.803ZM286.325 115.327H272.11L273.642 109.161H288.621L286.325 115.327ZM270.843 115.327H256.591L257.354 109.161H272.375L270.843 115.327ZM255.351 115.327H241.081V109.161H256.12L255.356 115.327H255.351ZM241.081 107.93V100.826H257.153L256.27 107.93H241.081ZM239.85 107.93H224.661L223.778 100.826H239.85V107.93ZM239.85 109.161V115.327H225.58L224.816 109.161H239.855H239.85ZM224.336 115.327H210.084L208.551 109.161H223.567L224.331 115.327H224.336ZM208.817 115.327H194.601L192.305 109.161H207.285L208.817 115.327ZM193.289 115.327H179.128L176.068 109.161H190.997L193.293 115.327H193.289ZM177.751 115.327H163.655L159.826 109.161H174.687L177.747 115.327H177.751ZM162.209 115.327H148.195L143.603 109.161H158.381L162.209 115.327ZM146.658 115.327H132.735L127.375 109.161H142.066L146.658 115.327ZM131.103 115.327H117.276L111.151 109.161H125.742L131.103 115.327ZM116.338 117.326V131.14L110.282 125.798V111.219L116.338 117.326ZM116.338 132.783V146.698L110.282 142.119V127.44L116.338 132.783ZM116.338 148.239V162.251L110.282 158.436V143.66L116.338 148.239ZM116.338 163.705V177.799L110.282 174.748V159.89L116.338 163.705ZM116.338 179.176V193.338L110.282 191.046V176.12L116.338 179.171V179.176ZM116.338 194.655V208.873L110.282 207.345V192.364L116.338 194.655ZM116.338 210.14V224.393L110.282 223.629V208.612L116.338 210.14ZM109.052 223.478L102.072 222.6V206.549L109.052 208.305V223.478ZM100.842 222.445L92.7554 221.425V204.198L100.842 206.238V222.445ZM91.525 221.269L82.0892 220.08V201.508L91.525 203.886V221.269ZM80.8588 219.924L69.7581 218.524V198.397L80.8588 201.197V219.924ZM68.5277 218.369L55.3367 216.708V194.765L68.5277 198.091V218.369ZM54.1064 216.553L38.2443 214.554V190.456L54.1064 194.454V216.553ZM37.0093 214.398L17.662 211.96V185.269L37.0093 190.145V214.398ZM17.662 241.14H37.0093V265.412L17.662 267.85V241.14ZM38.2443 241.14H54.1064V263.257L38.2443 265.256V241.14ZM55.3367 241.14H68.5277V261.441L55.3367 263.102V241.14ZM69.7581 241.14H80.8588V259.886L69.7581 261.286V241.14ZM82.0892 241.14H91.525V258.541L82.0892 259.73V241.14ZM92.7554 241.14H100.842V257.365L92.7554 258.385V241.14ZM102.072 241.14H109.052V256.332L102.072 257.21V241.14ZM109.052 257.571V272.744L102.072 274.506V258.454L109.052 257.576V257.571ZM110.282 257.416L116.338 256.652V270.906L110.282 272.433V257.416ZM116.338 272.177V286.394L110.282 288.686V273.705L116.338 272.177ZM116.338 287.712V301.874L110.282 304.925V289.999L116.338 287.707V287.712ZM116.338 303.251V317.344L110.282 321.159V306.302L116.338 303.251ZM116.338 318.799V332.81L110.282 337.389V322.614L116.338 318.799ZM116.338 334.352V348.267L110.282 353.61V338.931L116.338 334.352ZM116.338 349.909V363.724L110.282 369.831V355.252L116.338 349.909ZM117.28 365.604H131.107L125.751 371.77H111.161L117.285 365.604H117.28ZM132.735 365.604H146.658L142.066 371.77H127.375L132.731 365.604H132.735ZM148.195 365.604H162.209L158.381 371.77H143.603L148.195 365.604ZM163.655 365.604H177.751L174.691 371.77H159.831L163.659 365.604H163.655ZM179.123 365.604H193.284L190.988 371.77H176.059L179.119 365.604H179.123ZM194.601 365.604H208.817L207.285 371.77H192.305L194.601 365.604ZM210.084 365.604H224.336L223.572 371.77H208.556L210.088 365.604H210.084ZM225.575 365.604H239.846V371.77H224.807L225.571 365.604H225.575ZM239.85 373.001V380.105H223.778L224.661 373.001H239.85ZM241.081 373.001H256.27L257.153 380.105H241.081V373.001ZM241.081 371.77V365.604H255.351L256.115 371.77H241.076H241.081ZM256.591 365.604H270.843L272.375 371.77H257.354L256.591 365.604ZM272.11 365.604H286.325L288.621 371.77H273.642L272.11 365.604ZM287.642 365.604H301.803L304.863 371.77H289.934L287.638 365.604H287.642ZM303.175 365.604H317.272L321.1 371.77H306.24L303.18 365.604H303.175ZM318.722 365.604H332.736L337.328 371.77H322.55L318.722 365.604ZM334.268 365.604H348.191L353.547 371.77H338.856L334.264 365.604H334.268ZM349.824 365.604H363.651L369.775 371.77H355.184L349.829 365.604H349.824ZM371.874 370.951V356.217L378.854 362.374V377.987L371.874 370.951ZM371.874 354.575V339.741L378.854 345.015V360.728L371.874 354.571V354.575ZM371.874 338.199V323.268L378.854 327.664V343.473L371.874 338.199ZM371.874 321.814V306.801L378.854 310.318V326.21L371.874 321.814ZM371.874 305.424V290.342L378.854 292.981V308.941L371.874 305.424ZM371.874 289.029V273.893L378.854 275.649V291.664L371.874 289.025V289.029ZM380.085 275.965L388.171 278.005V295.195L380.085 292.14V275.969V275.965ZM389.401 278.311L398.837 280.69V299.225L389.401 295.657V278.311ZM400.068 281.001L411.168 283.801V303.887L400.068 299.687V281.001ZM412.403 284.107L425.594 287.433V309.339L412.403 304.353V284.112V284.107ZM426.825 287.744L442.687 291.742V315.803L426.825 309.806V287.744ZM443.917 292.053L463.265 296.929V323.584L443.917 316.269V292.053ZM463.265 211.837L443.917 214.275V190.022L463.265 185.145V211.837ZM442.687 214.43L426.825 216.429V194.331L442.687 190.333V214.43ZM425.594 216.585L412.403 218.245V197.963L425.594 194.637V216.58V216.585ZM411.173 218.401L400.072 219.801V201.073L411.173 198.274V218.401ZM398.837 219.956L389.401 221.146V203.763L398.837 201.384V219.956ZM388.171 221.301L380.085 222.321V206.114L388.171 204.074V221.301ZM380.085 204.843V188.672L388.171 185.616V202.807L380.085 204.847V204.843ZM378.854 205.154L371.874 206.915V191.778L378.854 189.139V205.154ZM371.874 190.461V175.379L378.854 171.861V187.821L371.874 190.461ZM371.874 174.002V158.989L378.854 154.593V170.484L371.874 174.002ZM371.874 157.539V142.608L378.854 137.329V153.138L371.874 157.534V157.539ZM371.874 141.067V126.232L378.854 120.075V135.788L371.874 141.062V141.067ZM371.874 124.59V109.856L378.854 102.82V118.433L371.874 124.59ZM370.992 107.93H356.25L362.42 100.826H378.045L370.992 107.93ZM354.622 107.93H339.78L345.067 100.826H360.792L354.622 107.93ZM338.243 107.93H323.309L327.719 100.826H343.535L338.243 107.93ZM321.864 107.93H306.853L310.379 100.826H326.273L321.864 107.93ZM305.476 107.93H290.396L293.04 100.826H309.002L305.476 107.93ZM289.083 107.93H273.948L275.709 100.826H291.727L289.083 107.93ZM272.681 107.93H257.51L258.393 100.826H274.447L272.686 107.93H272.681ZM258.544 99.5955L259.564 91.3663H276.789L274.744 99.5955H258.539H258.544ZM257.304 99.5955H241.081V91.3663H258.324L257.304 99.5955ZM239.85 99.5955H223.627L222.607 91.3663H239.85V99.5955ZM222.383 99.5955H206.178L204.133 91.3663H221.358L222.378 99.5955H222.383ZM222.538 100.826L223.421 107.93H208.25L206.484 100.826H222.538ZM206.978 107.93H191.843L189.2 100.826H205.213L206.974 107.93H206.978ZM190.535 107.93H175.455L171.929 100.826H187.891L190.535 107.93ZM174.078 107.93H159.067L154.658 100.826H170.552L174.078 107.93ZM157.617 107.93H142.684L137.392 100.826H153.208L157.617 107.93ZM141.147 107.93H126.305L120.134 100.826H135.859L141.147 107.93ZM124.676 107.93H109.93L102.877 100.826H118.502L124.672 107.93H124.676ZM109.052 109.979V124.713L102.072 118.556V102.944L109.052 109.979ZM109.052 126.351V141.186L102.072 135.907V120.194L109.052 126.351ZM109.052 142.732V157.663L102.072 153.267V137.458L109.052 142.736V142.732ZM109.052 159.113V174.126L102.072 170.608V154.717L109.052 159.113ZM109.052 175.503V190.584L102.072 187.945V171.985L109.052 175.503ZM109.052 191.902V207.038L102.072 205.282V189.267L109.052 191.906V191.902ZM100.842 204.966L92.7554 202.926V185.735L100.842 188.791V204.961V204.966ZM91.525 202.619L82.0892 200.241V181.705L91.525 185.273V202.619ZM80.8588 199.93L69.7581 197.13V177.044L80.8588 181.243V199.93ZM68.5277 196.819L55.3367 193.494V171.587L68.5277 176.573V196.815V196.819ZM54.1064 193.187L38.2443 189.189V165.128L54.1064 171.125V193.187ZM37.0093 188.878L17.662 184.002V157.347L37.0093 164.661V188.878ZM17.662 269.089L37.0093 266.651V290.905L17.662 295.781V269.089ZM38.2443 266.496L54.1064 264.497V286.596L38.2443 290.594V266.496ZM55.3367 264.341L68.5277 262.681V282.959L55.3367 286.285V264.341ZM69.7581 262.525L80.8588 261.126V279.853L69.7581 282.652V262.525ZM82.0892 260.97L91.525 259.781V277.163L82.0892 279.542V260.97ZM92.7554 259.625L100.842 258.605V274.812L92.7554 276.852V259.625ZM100.842 276.084V292.254L92.7554 295.31V278.119L100.842 276.079V276.084ZM102.072 275.773L109.052 274.016V289.153L102.072 291.792V275.777V275.773ZM109.052 290.465V305.547L102.072 309.065V293.105L109.052 290.465ZM109.052 306.924V321.937L102.072 326.333V310.442L109.052 306.924ZM109.052 323.392V338.322L102.072 343.597V327.788L109.052 323.392ZM109.052 339.864V354.699L102.072 360.856V345.143L109.052 339.869V339.864ZM109.052 356.341V371.075L102.072 378.11V362.498L109.052 356.341ZM109.935 373.001H124.676L118.506 380.105H102.882L109.935 373.001ZM126.305 373.001H141.147L135.855 380.105H120.13L126.3 373.001H126.305ZM142.684 373.001H157.617L153.208 380.105H137.392L142.684 373.001ZM159.067 373.001H174.078L170.552 380.105H154.658L159.067 373.001ZM175.451 373.001H190.531L187.887 380.105H171.924L175.451 373.001ZM191.848 373.001H206.983L205.217 380.105H189.204L191.848 373.001ZM208.25 373.001H223.421L222.538 380.105H206.484L208.25 373.001ZM222.383 381.335L221.363 389.564H204.138L206.182 381.335H222.387H222.383ZM223.622 381.335H239.846V389.564H222.602L223.622 381.335ZM241.081 381.335H257.304L258.324 389.564H241.081V381.335ZM258.544 381.335H274.749L276.793 389.564H259.568L258.548 381.335H258.544ZM258.388 380.105L257.505 373.001H272.677L274.442 380.105H258.388ZM273.948 373.001H289.083L291.727 380.105H275.709L273.944 373.001H273.948ZM290.396 373.001H305.476L309.002 380.105H293.04L290.396 373.001ZM306.848 373.001H321.859L326.269 380.105H310.374L306.848 373.001ZM323.309 373.001H338.243L343.535 380.105H327.719L323.309 373.001ZM339.78 373.001H354.622L360.792 380.105H345.067L339.775 373.001H339.78ZM356.25 373.001H370.992L378.045 380.105H362.42L356.25 373.001ZM380.085 379.226V363.459L388.171 370.595V387.383L380.085 379.231V379.226ZM380.085 361.816V345.948L388.171 352.064V368.952L380.085 361.816ZM380.085 344.406V328.442L388.171 333.538V350.522L380.085 344.406ZM380.085 326.987V310.94L388.171 315.016V332.083L380.085 326.987ZM380.085 309.563V293.448L388.171 296.504V313.639L380.085 309.563ZM389.401 296.97L398.837 300.538V319.019L389.401 314.261V296.97ZM400.068 301.005L411.168 305.204V325.24L400.068 319.641V301.005ZM412.403 305.666L425.594 310.652V332.504L412.403 325.853V305.666ZM426.825 311.119L442.687 317.116V341.122L426.825 333.126V311.119ZM443.917 317.582L463.265 324.897V351.497L443.917 341.744V317.582ZM463.265 183.878L443.917 188.754V164.538L463.265 157.223V183.878ZM442.687 189.066L426.825 193.064V171.001L442.687 165.004V189.066ZM425.594 193.375L412.403 196.7V176.459L425.594 171.473V193.379V193.375ZM411.173 197.007L400.072 199.806V181.115L411.173 176.916V197.002V197.007ZM398.837 200.117L389.401 202.496V185.15L398.837 181.582V200.117ZM389.401 183.837V166.546L398.837 161.789V180.269L389.401 183.837ZM388.171 184.299L380.085 187.355V171.239L388.171 167.163V184.299ZM380.085 169.867V153.82L388.171 148.724V165.791L380.085 169.867ZM380.085 152.365V136.401L388.171 130.285V147.27L380.085 152.365ZM380.085 134.859V118.991L388.171 111.855V128.743L380.085 134.859ZM380.085 117.349V101.581L388.171 93.4293V110.217L380.085 117.353V117.349ZM379.27 99.5955H363.495L370.644 91.3663H387.444L379.275 99.5955H379.27ZM361.862 99.5955H345.986L352.115 91.3663H369.016L361.867 99.5955H361.862ZM344.45 99.5955H328.482L333.591 91.3663H350.579L344.45 99.5955ZM327.037 99.5955H310.987L315.072 91.3663H332.141L327.032 99.5955H327.037ZM309.611 99.5955H293.497L296.561 91.3663H313.7L309.615 99.5955H309.611ZM292.184 99.5955H276.016L278.06 91.3663H295.249L292.184 99.5955ZM278.362 90.1358L280.745 80.5387H299.278L295.702 90.1358H278.358H278.362ZM277.095 90.1358H259.715L260.908 80.5387H279.478L277.095 90.1358ZM258.475 90.1358H241.076V80.5387H259.664L258.47 90.1358H258.475ZM239.85 90.1358H222.451L221.262 80.5387H239.85V90.1358ZM221.212 90.1358H203.831L201.448 80.5387H220.018L221.212 90.1358ZM202.564 90.1358H185.22L181.644 80.5387H200.177L202.56 90.1358H202.564ZM202.871 91.3663L204.915 99.5955H188.747L185.682 91.3663H202.871ZM187.429 99.5955H171.316L167.231 91.3663H184.37L187.434 99.5955H187.429ZM169.939 99.5955H153.894L148.785 91.3663H165.855L169.939 99.5955ZM152.444 99.5955H136.477L130.348 91.3663H147.335L152.444 99.5955ZM134.94 99.5955H119.064L111.915 91.3663H128.811L134.94 99.5955ZM117.436 99.5955H101.656L93.4872 91.3663H110.287L117.436 99.5955ZM100.842 101.7V117.468L92.7554 110.332V93.5437L100.842 101.695V101.7ZM100.842 119.11V134.978L92.7554 128.862V111.974L100.842 119.11ZM100.842 136.524V152.489L92.7554 147.393V130.408L100.842 136.524ZM100.842 153.939V169.986L92.7554 165.91V148.843L100.842 153.939ZM100.842 171.363V187.478L92.7554 184.423V167.287L100.842 171.363ZM91.525 183.956L82.0892 180.388V161.908L91.525 166.665V183.956ZM80.8588 179.926L69.7581 175.727V155.691L80.8588 161.29V179.926ZM68.5277 175.26L55.3367 170.274V148.422L68.5277 155.073V175.26ZM54.1064 169.807L38.2443 163.81V139.804L54.1064 147.8V169.807ZM37.0093 163.344L17.662 156.029V129.43L37.0093 139.182V163.344ZM17.662 297.048L37.0093 292.172V316.388L17.662 323.703V297.048ZM38.2443 291.865L54.1064 287.867V309.929L38.2443 315.926V291.865ZM55.3367 287.556L68.5277 284.231V304.472L55.3367 309.458V287.552V287.556ZM69.7581 283.92L80.8588 281.12V299.806L69.7581 304.006V283.92ZM82.0892 280.809L91.525 278.43V295.776L82.0892 299.344V280.809ZM91.525 297.094V314.385L82.0892 319.142V300.662L91.525 297.094ZM92.7554 296.627L100.842 293.571V309.687L92.7554 313.763V296.627ZM100.842 311.064V327.111L92.7554 332.207V315.14L100.842 311.064ZM100.842 328.561V344.525L92.7554 350.641V333.657L100.842 328.561ZM100.842 346.071V361.94L92.7554 369.076V352.187L100.842 346.071ZM100.842 363.582V379.35L92.7554 387.501V370.714L100.842 363.578V363.582ZM101.661 381.335H117.44L110.292 389.564H93.4918L101.661 381.335ZM119.064 381.335H134.94L128.811 389.564H111.915L119.064 381.335ZM136.477 381.335H152.444L147.335 389.564H130.348L136.477 381.335ZM153.894 381.335H169.944L165.859 389.564H148.79L153.899 381.335H153.894ZM171.316 381.335H187.429L184.365 389.564H167.227L171.311 381.335H171.316ZM188.742 381.335H204.911L202.866 389.564H185.678L188.742 381.335ZM202.564 390.79L200.181 400.387H181.648L185.22 390.79H202.564ZM203.831 390.79H221.212L220.023 400.387H201.453L203.836 390.79H203.831ZM222.451 390.79H239.85V400.387H221.262L222.451 390.79ZM241.081 390.79H258.48L259.669 400.387H241.081V390.79ZM259.715 390.79H277.095L279.478 400.387H260.908L259.719 390.79H259.715ZM278.362 390.79H295.706L299.278 400.387H280.745L278.362 390.79ZM278.06 389.56L276.016 381.331H292.184L295.249 389.56H278.06ZM293.497 381.335H309.611L313.695 389.564H296.557L293.492 381.335H293.497ZM310.987 381.335H327.037L332.146 389.564H315.076L310.992 381.335H310.987ZM328.482 381.335H344.45L350.579 389.564H333.591L328.482 381.335ZM345.986 381.335H361.862L369.011 389.564H352.111L345.982 381.335H345.986ZM363.491 381.335H379.266L387.435 389.564H370.635L363.486 381.335H363.491ZM389.401 388.622V371.679L398.837 380.004V398.137L389.401 388.622ZM389.401 370.037V352.992L398.837 360.128V378.362L389.401 370.037ZM389.401 351.451V334.315L398.837 340.262V358.587L389.401 351.451ZM389.401 332.861V315.638L398.837 320.396V338.807L389.401 332.861ZM400.068 321.018L411.168 326.617V346.579L400.068 339.58V321.013V321.018ZM412.403 327.234L425.594 333.885V355.668L412.403 347.357V327.239V327.234ZM426.825 334.503L442.687 342.499V366.437L426.825 356.442V334.503ZM443.917 343.121L463.265 352.874V379.405L443.917 367.214V343.121ZM463.265 155.911L443.917 163.225V139.063L463.265 129.311V155.911ZM442.687 163.692L426.825 169.689V147.681L442.687 139.685V163.692ZM425.594 170.151L412.403 175.137V154.95L425.594 148.299V170.151ZM411.173 175.603L400.072 179.802V161.166L411.173 155.567V175.603ZM400.068 159.79V141.222L411.168 134.223V154.186L400.068 159.785V159.79ZM398.837 160.412L389.401 165.169V147.947L398.837 142V160.412ZM389.401 146.492V129.356L398.837 122.22V140.545L389.401 146.492ZM389.401 127.815V110.771L398.837 102.445V120.679L389.401 127.815ZM389.401 109.129V92.1851L398.837 82.6704V100.803L389.401 109.129ZM388.66 90.1358H371.71L380.053 80.5387H398.197L388.665 90.1358H388.66ZM370.082 90.1358H353.03L360.179 80.5387H378.42L370.077 90.1358H370.082ZM351.493 90.1358H334.351L340.31 80.5387H358.642L351.493 90.1358ZM332.905 90.1358H315.685L320.451 80.5387H338.865L332.905 90.1358ZM314.308 90.1358H297.019L300.596 80.5387H319.074L314.308 90.1358ZM301.053 79.3082L305.256 68.0187H325.29L319.682 79.3082H301.048H301.053ZM299.74 79.3082H281.052L283.855 68.0187H303.944L299.74 79.3082ZM279.785 79.3082H261.059L262.459 68.0187H282.584L279.78 79.3082H279.785ZM259.82 79.3082H241.076V68.0187H261.219L259.82 79.3082ZM239.85 79.3082H221.107L219.707 68.0187H239.85V79.3082ZM219.867 79.3082H201.142L198.338 68.0187H218.463L219.863 79.3082H219.867ZM199.875 79.3082H181.191L176.987 68.0187H197.076L199.879 79.3082H199.875ZM179.873 79.3082H161.24L155.632 68.0187H175.666L179.869 79.3082H179.873ZM180.335 80.5387L183.912 90.1358H166.623L161.857 80.5387H180.34H180.335ZM165.242 90.1358H148.021L142.061 80.5387H160.476L165.242 90.1358ZM146.576 90.1358H129.433L122.284 80.5387H140.616L146.576 90.1358ZM127.896 90.1358H110.845L102.502 80.5387H120.743L127.892 90.1358H127.896ZM109.217 90.1358H92.266L82.7341 80.5387H100.879L109.221 90.1358H109.217ZM91.525 92.3086V109.252L82.0892 100.927V82.7939L91.525 92.3086ZM91.525 110.89V127.934L82.0892 120.798V102.564L91.525 110.89ZM91.525 129.48V146.615L82.0892 140.669V122.344L91.525 129.48ZM91.525 148.07V165.293L82.0892 160.535V142.123L91.525 148.07ZM80.8588 159.913L69.7581 154.314V134.352L80.8588 141.35V159.913ZM68.5277 153.697L55.3367 147.045V125.262L68.5277 133.574V153.692V153.697ZM54.1064 146.423L38.2443 138.427V114.49L54.1064 124.485V146.423ZM37.0093 137.81L17.662 128.057V101.526L37.0093 113.717V137.81ZM17.662 325.02L37.0093 317.706V341.868L17.662 351.62V325.02ZM38.2443 317.239L54.1064 311.242V333.249L38.2443 341.245V317.239ZM55.3367 310.776L68.5277 305.79V325.976L55.3367 332.627V310.776ZM69.7581 305.323L80.8588 301.124V319.76L69.7581 325.359V305.323ZM80.8588 321.137V339.699L69.7581 346.698V326.736L80.8588 321.137ZM82.0892 320.514L91.525 315.757V332.98L82.0892 338.926V320.514ZM91.525 334.434V351.574L82.0892 358.71V340.385L91.525 334.439V334.434ZM91.525 353.116V370.16L82.0892 378.485V360.252L91.525 353.116ZM91.525 371.802V388.746L82.0892 398.26V380.128L91.525 371.802ZM92.266 390.79H109.217L100.879 400.387H82.7341L92.266 390.79ZM110.845 390.79H127.896L120.747 400.387H102.507L110.845 390.79ZM129.433 390.79H146.576L140.621 400.387H122.289L129.438 390.79H129.433ZM148.021 390.79H165.242L160.476 400.387H142.061L148.017 390.79H148.021ZM166.618 390.79H183.908L180.335 400.387H161.853L166.618 390.79ZM179.873 401.623L175.67 412.912H155.637L161.244 401.623H179.878H179.873ZM181.186 401.623H199.87L197.067 412.912H176.978L181.182 401.623H181.186ZM201.142 401.623H219.867L218.468 412.912H198.343L201.146 401.623H201.142ZM221.107 401.623H239.85V412.912H219.707L221.107 401.623ZM241.081 401.623H259.824L261.224 412.912H241.081V401.623ZM261.059 401.623H279.785L282.588 412.912H262.463L261.064 401.623H261.059ZM281.052 401.623H299.74L303.944 412.912H283.855L281.052 401.623ZM301.053 401.623H319.687L325.294 412.912H305.261L301.058 401.623H301.053ZM300.596 400.392L297.023 390.795H314.313L319.079 400.392H300.6H300.596ZM315.685 390.79H332.905L338.86 400.387H320.446L315.68 390.79H315.685ZM334.355 390.79H351.498L358.647 400.387H340.315L334.36 390.79H334.355ZM353.03 390.79H370.082L378.42 400.387H360.179L353.03 390.79ZM371.71 390.79H388.66L398.192 400.387H380.048L371.71 390.79ZM400.068 399.377V381.088L411.168 390.882V410.565L400.068 399.372V399.377ZM400.068 379.451V361.062L411.168 369.456V389.244L400.068 379.451ZM400.068 359.515V341.035L411.168 348.034V367.914L400.068 359.52V359.515ZM412.403 348.807L425.594 357.119V378.819L412.403 368.843V348.807ZM426.825 357.896L442.687 367.891V391.746L426.825 379.752V357.896ZM443.917 368.664L463.265 380.855V407.304L443.917 392.671V368.664ZM463.265 127.934L443.917 137.686V113.593L463.265 101.402V127.934ZM442.687 138.308L426.825 146.304V124.366L442.687 114.371V138.308ZM425.594 146.922L412.403 153.573V133.455L425.594 125.143V146.926V146.922ZM412.403 132V111.965L425.594 101.988V123.689L412.403 132ZM411.173 132.773L400.072 139.772V121.292L411.173 112.898V132.778V132.773ZM400.068 119.746V101.357L411.168 91.563V111.352L400.068 119.746ZM400.068 99.7145V81.4262L411.168 70.2327V89.9208L400.068 99.7145ZM399.414 79.3082H381.118L390.929 68.0187H410.624L399.414 79.3082ZM379.49 79.3082H361.094L369.501 68.0187H389.296L379.485 79.3082H379.49ZM359.562 79.3082H341.079L348.086 68.0187H367.973L359.566 79.3082H359.562ZM339.629 79.3082H321.064L326.671 68.0187H346.641L339.633 79.3082H339.629ZM327.279 66.7882L333.939 53.3762H355.724L347.4 66.7882H327.279ZM325.903 66.7882H305.714L310.708 53.3762H332.562L325.903 66.7882ZM304.401 66.7882H284.162L287.492 53.3762H309.396L304.401 66.7882ZM282.895 66.7882H262.619L264.284 53.3762H286.225L282.895 66.7882ZM261.375 66.7882H241.076V53.3762H263.04L261.375 66.7882ZM239.85 66.7882H219.556L217.891 53.3762H239.85V66.7882ZM218.312 66.7882H198.036L194.706 53.3762H216.647L218.312 66.7882ZM196.765 66.7882H176.525L171.531 53.3762H193.435L196.765 66.7882ZM175.213 66.7882H155.024L148.364 53.3762H170.218L175.213 66.7882ZM153.652 66.7882H133.531L125.207 53.3762H146.992L153.652 66.7882ZM154.26 68.0187L159.867 79.3082H141.302L134.295 68.0187H154.26ZM139.852 79.3082H121.365L112.958 68.0187H132.845L139.852 79.3082ZM119.833 79.3082H101.437L91.6257 68.0187H111.421L119.828 79.3082H119.833ZM99.8083 79.3082H81.5129L70.3024 68.0187H90.0019L99.8128 79.3082H99.8083ZM80.8588 81.5543V99.8426L69.7581 90.0489V70.3654L80.8588 81.5588V81.5543ZM80.8588 101.48V119.869L69.7581 111.475V91.6865L80.8588 101.48ZM80.8588 121.411V139.891L69.7581 132.892V113.012L80.8588 121.406V121.411ZM68.5277 132.124L55.3367 123.812V102.111L68.5277 112.088V132.124ZM54.1064 123.035L38.2443 113.04V89.1843L54.1064 101.178V123.03V123.035ZM37.0093 112.262L17.662 100.071V73.6223L37.0093 88.2557V112.262ZM17.662 352.997L37.0093 343.244V367.338L17.662 379.528V352.997ZM38.2443 342.622L54.1064 334.626V356.565L38.2443 366.56V342.622ZM55.3367 334.004L68.5277 327.353V347.471L55.3367 355.783V334V334.004ZM68.5277 348.926V368.962L55.3367 378.938V357.237L68.5277 348.926ZM69.7581 348.153L80.8588 341.154V359.634L69.7581 368.028V348.148V348.153ZM80.8588 361.181V379.57L69.7581 389.363V369.575L80.8588 361.181ZM80.8588 381.212V399.5L69.7581 410.693V391.01L80.8588 381.216V381.212ZM81.5129 401.623H99.8083L89.9974 412.912H70.2978L81.5083 401.623H81.5129ZM101.437 401.623H119.833L111.426 412.912H91.6302L101.441 401.623H101.437ZM121.369 401.623H139.857L132.85 412.912H112.963L121.369 401.623ZM141.302 401.623H159.867L154.26 412.912H134.295L141.302 401.623ZM153.652 414.143L146.992 427.555H125.207L133.531 414.143H153.652ZM155.024 414.143H175.213L170.218 427.555H148.364L155.024 414.143ZM176.525 414.143H196.765L193.435 427.555H171.531L176.525 414.143ZM198.036 414.143H218.312L216.647 427.555H194.706L198.036 414.143ZM219.552 414.143H239.846V427.555H217.887L219.552 414.143ZM241.081 414.143H261.379L263.044 427.555H241.081V414.143ZM262.614 414.143H282.89L286.22 427.555H264.279L262.614 414.143ZM284.162 414.143H304.401L309.396 427.555H287.492L284.162 414.143ZM305.714 414.143H325.903L332.562 427.555H310.708L305.714 414.143ZM327.279 414.143H347.4L355.724 427.555H333.939L327.279 414.143ZM326.667 412.912L321.059 401.623H339.624L346.631 412.912H326.662H326.667ZM341.074 401.623H359.557L367.964 412.912H348.077L341.07 401.623H341.074ZM361.094 401.623H379.49L389.301 412.912H369.505L361.098 401.623H361.094ZM381.118 401.623H399.414L410.624 412.912H390.929L381.118 401.623ZM412.403 411.814V391.975L425.594 403.612V425.116L412.403 411.814ZM412.403 390.328V370.384L425.594 380.361V401.966L412.403 390.328ZM426.825 381.294L442.687 393.288V417.047L426.825 403.054V381.294ZM443.917 394.217L463.265 408.85V435.203L443.917 418.131V394.217ZM463.265 99.9478L443.917 112.138V88.1322L463.265 73.4988V99.9478ZM442.687 112.916L426.825 122.911V101.055L442.687 89.0608V112.916ZM426.825 99.5132V77.753L442.687 63.76V87.5192L426.825 99.5132ZM425.594 100.446L412.403 110.423V90.4788L425.594 78.8417V100.446ZM412.403 88.8367V68.9976L425.594 55.6954V77.1995L412.403 88.8367ZM411.85 66.7882H391.999L403.654 53.3762H425.169L411.85 66.7882ZM390.371 66.7882H370.42L380.409 53.3762H402.025L390.371 66.7882ZM368.883 66.7882H348.845L357.17 53.3762H378.872L368.883 66.7882ZM357.933 52.1457L367.941 36.0256H391.798L379.792 52.1457H357.933ZM356.483 52.1457H334.547L342.552 36.0256H366.491L356.483 52.1457ZM333.171 52.1457H311.166L317.171 36.0256H341.175L333.171 52.1457ZM309.853 52.1457H287.793L291.796 36.0256H315.854L309.849 52.1457H309.853ZM286.526 52.1457H264.43L266.434 36.0256H290.529L286.526 52.1457ZM263.195 52.1457H241.081V36.0256H265.199L263.195 52.1457ZM239.85 52.1457H217.736L215.732 36.0256H239.846V52.1457H239.85ZM216.496 52.1457H194.4L190.398 36.0256H214.493L216.496 52.1457ZM193.133 52.1457H171.073L165.068 36.0256H189.126L193.128 52.1457H193.133ZM169.761 52.1457H147.756L139.752 36.0256H163.76L169.765 52.1457H169.761ZM146.379 52.1457H124.443L114.435 36.0256H138.375L146.379 52.1457ZM122.993 52.1457H101.135L89.1283 36.0256H112.986L122.993 52.1457ZM123.757 53.3762L132.081 66.7882H112.043L102.054 53.3762H123.757ZM110.506 66.7882H90.5599L78.9058 53.3762H100.517L110.506 66.7882ZM88.9271 66.7882H69.0766L55.7575 53.3762H77.2729L88.9271 66.7882ZM68.5277 69.1166V88.9556L55.3367 77.3184V55.8143L68.5277 69.1166ZM68.5277 90.5978V110.542L55.3367 100.565V78.9606L68.5277 90.5978ZM54.1064 99.6367L38.2443 87.6427V63.8835L54.1064 77.8765V99.6367ZM37.0093 86.7096L17.662 72.0808V45.7278L37.0093 62.7994V86.7141V86.7096ZM17.662 380.978L37.0093 368.788V392.794L17.662 407.427V380.978ZM38.2443 368.01L54.1064 358.015V379.871L38.2443 391.865V368.01ZM54.1064 381.413V403.173L38.2443 417.166V393.407L54.1064 381.413ZM55.3367 380.484L68.5277 370.508V390.452L55.3367 402.089V380.484ZM68.5277 392.09V411.929L55.3367 425.231V403.727L68.5277 392.09ZM69.0766 414.143H88.9271L77.2729 427.555H55.7575L69.0766 414.143ZM90.5554 414.143H110.502L100.513 427.555H78.9012L90.5554 414.143ZM112.043 414.143H132.081L123.757 427.555H102.054L112.043 414.143ZM122.993 428.785L112.986 444.905H89.1283L101.135 428.785H122.993ZM124.443 428.785H146.379L138.375 444.905H114.435L124.443 428.785ZM147.756 428.785H169.761L163.755 444.905H139.747L147.751 428.785H147.756ZM171.073 428.785H193.133L189.131 444.905H165.072L171.078 428.785H171.073ZM194.4 428.785H216.496L214.493 444.905H190.398L194.4 428.785ZM217.736 428.785H239.85V444.905H215.737L217.74 428.785H217.736ZM241.081 428.785H263.195L265.199 444.905H241.081V428.785ZM264.435 428.785H286.531L290.533 444.905H266.438L264.435 428.785ZM287.798 428.785H309.858L315.863 444.905H291.805L287.803 428.785H287.798ZM311.166 428.785H333.171L341.175 444.905H317.171L311.166 428.785ZM334.547 428.785H356.483L366.491 444.905H342.552L334.547 428.785ZM357.933 428.785H379.792L391.798 444.905H367.941L357.933 428.785ZM357.17 427.555L348.845 414.143H368.883L378.872 427.555H357.17ZM370.42 414.143H390.371L402.025 427.555H380.409L370.42 414.143ZM391.999 414.143H411.85L425.169 427.555H403.654L391.999 414.143ZM426.825 426.352V404.692L442.687 418.685V442.344L426.825 426.352ZM443.917 419.774L463.265 436.845V463.097L443.917 443.588V419.774ZM463.265 71.9572L443.917 86.5861V62.6713L463.265 45.5998V71.9527V71.9572ZM442.687 62.1178L426.825 76.1108V54.4512L442.687 38.4592V62.1178ZM426.39 52.1457H404.724L418.734 36.0256H442.403L426.395 52.1457H426.39ZM403.091 52.1457H381.324L393.33 36.0256H417.101L403.091 52.1457ZM394.25 34.7905L408.895 15.1299H435.259L418.176 34.7905H394.254H394.25ZM392.713 34.7905H368.7L380.903 15.1299H407.354L392.708 34.7905H392.713ZM367.255 34.7905H343.164L352.925 15.1299H379.458L367.255 34.7905ZM341.788 34.7905H317.629L324.951 15.1299H351.548L341.788 34.7905ZM316.316 34.7905H292.102L296.982 15.1299H323.634L316.311 34.7905H316.316ZM290.835 34.7905H266.584L269.027 15.1299H295.715L290.835 34.7905ZM265.345 34.7905H241.076V15.1299H267.787L265.345 34.7905ZM239.85 34.7905H215.582L213.139 15.1299H239.846V34.7905H239.85ZM214.342 34.7905H190.091L185.211 15.1299H211.9L214.342 34.7905ZM188.825 34.7905H164.611L157.288 15.1299H183.94L188.82 34.7905H188.825ZM163.298 34.7905H139.139L129.378 15.1299H155.98L163.302 34.7905H163.298ZM137.762 34.7905H113.672L101.469 15.1299H128.001L137.762 34.7905ZM112.226 34.7905H88.2136L73.5681 15.1299H100.019L112.222 34.7905H112.226ZM86.6767 34.7905H62.7555L45.6722 15.1299H72.0313L86.6767 34.7905ZM87.5961 36.021L99.6024 52.1411H77.8355L63.8258 36.021H87.5915H87.5961ZM76.2072 52.1457H54.5409L38.5324 36.0256H62.2021L76.2118 52.1457H76.2072ZM54.1064 54.5747V76.2343L38.2443 62.2413V38.5827L54.1064 54.5747ZM37.0093 61.1572L17.662 44.0856V17.8334L37.0093 37.343V61.1572ZM17.662 408.969L37.0093 394.34V418.255L17.662 435.326V408.974V408.969ZM38.2443 418.808L54.1064 404.815V426.475L38.2443 442.467V418.808ZM54.5363 428.785H76.2026L62.1929 444.905H38.5233L54.5317 428.785H54.5363ZM77.8355 428.785H99.6024L87.5961 444.905H63.8304L77.8401 428.785H77.8355ZM86.6767 446.136L72.0313 465.796H45.6722L62.7555 446.136H86.6767ZM88.2136 446.136H112.226L100.023 465.796H73.5727L88.2181 446.136H88.2136ZM113.672 446.136H137.762L128.001 465.796H101.469L113.672 446.136ZM139.139 446.136H163.298L155.975 465.796H129.374L139.134 446.136H139.139ZM164.611 446.136H188.825L183.944 465.796H157.292L164.615 446.136H164.611ZM190.091 446.136H214.342L211.9 465.796H185.211L190.091 446.136ZM215.582 446.136H239.85V465.796H213.144L215.586 446.136H215.582ZM241.081 446.136H265.35L267.792 465.796H241.081V446.136ZM266.584 446.136H290.835L295.715 465.796H269.027L266.584 446.136ZM292.102 446.136H316.316L323.639 465.796H296.987L292.107 446.136H292.102ZM317.629 446.136H341.788L351.548 465.796H324.951L317.629 446.136ZM343.164 446.136H367.255L379.458 465.796H352.925L343.164 446.136ZM368.705 446.136H392.717L407.358 465.796H380.908L368.705 446.136ZM394.25 446.136H418.171L435.254 465.796H408.891L394.25 446.136ZM393.335 444.905L381.329 428.785H403.096L417.105 444.905H393.335ZM404.724 428.785H426.39L442.399 444.905H418.729L404.719 428.785H404.724ZM443.62 34.7905H419.799L436.883 15.1299H463.146L443.62 34.7905ZM44.0439 15.1299L61.1272 34.7905H37.3066L17.7809 15.1299H44.0439ZM37.3066 446.136H61.1272L44.0439 465.796H17.7809L37.3066 446.136ZM436.883 465.796L419.799 446.136H443.62L463.146 465.796H436.883Z" fill="white" fill-opacity="0.25"/>
</g>
<path d="M102.129 107.486C100.698 107.486 99.3511 106.929 98.3421 105.916L57.0464 64.6242V102.133C57.0464 105.088 54.6444 107.49 51.6892 107.49C48.7341 107.49 46.332 105.088 46.332 102.133V46.332H102.129C105.084 46.332 107.486 48.7341 107.486 51.6892C107.486 54.6444 105.084 57.0464 102.129 57.0464H64.6242L105.92 98.3421C106.933 99.3553 107.49 100.698 107.49 102.129C107.49 103.56 106.933 104.907 105.92 105.916C104.907 106.929 103.564 107.486 102.133 107.486H102.129ZM56.6243 63.6026L98.6419 105.62C99.5748 106.553 100.812 107.064 102.133 107.064C103.454 107.064 104.691 106.549 105.624 105.62C106.557 104.691 107.068 103.45 107.068 102.129C107.068 100.808 106.553 99.5706 105.624 98.6376L63.6026 56.6243H102.129C104.852 56.6243 107.064 54.4122 107.064 51.6892C107.064 48.9663 104.852 46.7542 102.129 46.7542H46.7542V102.129C46.7542 104.852 48.9663 107.064 51.6892 107.064C54.4122 107.064 56.6243 104.852 56.6243 102.129V63.6026Z" fill="#7DFFE1" stroke="#7DFFE1" stroke-width="3.70656"/>
<g clip-path="url(#clip1_2017_4480)">
<path d="M423.348 143.642H420.883C420.302 143.642 419.829 144.115 419.829 144.696V147.913C419.829 148.854 418.694 149.323 418.027 148.661L414.68 145.313V134.97C414.68 134.389 414.207 133.916 413.626 133.916H411.162C410.581 133.916 410.108 134.389 410.108 134.97V138.187C410.108 139.128 408.972 139.597 408.306 138.934L404.558 135.186C404.148 134.776 403.476 134.776 403.067 135.186L401.323 136.93C400.913 137.34 400.913 138.011 401.323 138.421L405.071 142.169C405.738 142.836 405.265 143.971 404.323 143.971H401.107C400.526 143.971 400.053 144.444 400.053 145.025V147.489C400.053 148.07 400.526 148.543 401.107 148.543H411.45L414.797 151.891C415.464 152.557 414.991 153.693 414.049 153.693H410.833C410.252 153.693 409.779 154.166 409.779 154.747V157.211C409.779 157.792 410.252 158.265 410.833 158.265H423.357C423.938 158.265 424.411 157.792 424.411 157.211V144.687C424.411 144.106 423.938 143.633 423.357 143.633L423.348 143.642Z" fill="white"/>
<path d="M373.564 123.23H376.028C376.609 123.23 377.082 122.757 377.082 122.176V118.96C377.082 118.018 378.217 117.55 378.884 118.212L382.231 121.559V131.902C382.231 132.483 382.704 132.956 383.285 132.956H385.75C386.331 132.956 386.804 132.483 386.804 131.902V128.686C386.804 127.744 387.939 127.276 388.606 127.938L392.354 131.686C392.764 132.096 393.435 132.096 393.845 131.686L395.588 129.943C395.998 129.533 395.998 128.861 395.588 128.451L391.84 124.703C391.174 124.037 391.647 122.901 392.588 122.901H395.805C396.386 122.901 396.859 122.428 396.859 121.847V119.383C396.859 118.802 396.386 118.329 395.805 118.329H385.461L382.114 114.982C381.447 114.315 381.92 113.18 382.862 113.18H386.079C386.66 113.18 387.133 112.707 387.133 112.126V109.662C387.133 109.08 386.66 108.607 386.079 108.607H373.564C372.983 108.607 372.51 109.08 372.51 109.662V122.185C372.51 122.766 372.983 123.239 373.564 123.239V123.23Z" fill="white"/>
<path d="M388.25 158.328V155.864C388.25 155.283 387.777 154.81 387.196 154.81H383.979C383.038 154.81 382.569 153.674 383.231 153.008L386.579 149.661H396.922C397.503 149.661 397.976 149.188 397.976 148.606V146.142C397.976 145.561 397.503 145.088 396.922 145.088H393.705C392.764 145.088 392.295 143.953 392.957 143.286L396.706 139.538C397.115 139.128 397.115 138.457 396.706 138.047L394.962 136.304C394.552 135.894 393.881 135.894 393.471 136.304L389.723 140.052C389.056 140.718 387.921 140.245 387.921 139.304V136.087C387.921 135.506 387.448 135.033 386.867 135.033H384.403C383.822 135.033 383.349 135.506 383.349 136.087V146.431L380.001 149.778C379.335 150.444 378.199 149.971 378.199 149.03V145.813C378.199 145.232 377.726 144.759 377.145 144.759H374.681C374.1 144.759 373.627 145.232 373.627 145.813V158.337C373.627 158.918 374.1 159.391 374.681 159.391H387.205C387.786 159.391 388.259 158.918 388.259 158.337L388.25 158.328Z" fill="white"/>
<path d="M408.662 108.544V111.009C408.662 111.59 409.135 112.063 409.716 112.063H412.932C413.874 112.063 414.342 113.198 413.68 113.865L410.333 117.212H399.99C399.409 117.212 398.936 117.685 398.936 118.266V120.73C398.936 121.311 399.409 121.784 399.99 121.784H403.206C404.148 121.784 404.616 122.92 403.954 123.586L400.206 127.334C399.796 127.744 399.796 128.415 400.206 128.825L401.949 130.569C402.359 130.979 403.03 130.979 403.44 130.569L407.189 126.821C407.855 126.154 408.99 126.627 408.99 127.569V130.785C408.99 131.366 409.463 131.839 410.045 131.839H412.509C413.09 131.839 413.563 131.366 413.563 130.785V120.442L416.91 117.095C417.577 116.428 418.712 116.901 418.712 117.842V121.059C418.712 121.64 419.185 122.113 419.766 122.113H422.23C422.811 122.113 423.285 121.64 423.285 121.059V108.544C423.285 107.963 422.811 107.49 422.23 107.49H409.707C409.126 107.49 408.653 107.963 408.653 108.544H408.662Z" fill="white"/>
</g>
<defs>
<clipPath id="clip0_2017_4480">
<rect width="451.274" height="453.127" fill="white" transform="translate(14.8262 13.8994)"/>
</clipPath>
<clipPath id="clip1_2017_4480">
<rect width="51.8919" height="51.8919" fill="white" transform="translate(372.51 107.49)"/>
</clipPath>
</defs>
</svg>
