<svg width="570" height="129" viewBox="0 0 570 129" fill="none" xmlns="http://www.w3.org/2000/svg">
<g clip-path="url(#clip0_2005_796)">
<path d="M547.85 58.9834L502.131 104.711H541.123L547.85 97.9845V58.9834Z" fill="#7DFFE1"/>
<path d="M547.85 24.6855H520.713L440.679 104.711H479.68L547.85 36.5412V24.6855Z" fill="#7DFFE1"/>
<path d="M459.27 24.6855L379.235 104.711H418.236L498.262 24.6855H459.27Z" fill="#7DFFE1"/>
<path d="M397.818 24.6855L317.792 104.711H356.793L436.819 24.6855H397.818Z" fill="#7DFFE1"/>
<path d="M336.374 24.6855L256.349 104.711H295.341L375.375 24.6855H336.374Z" fill="#7DFFE1"/>
<path d="M274.93 24.6855L194.904 104.711H233.897L313.931 24.6855H274.93Z" fill="#7DFFE1"/>
<path d="M213.487 24.6855L133.462 104.711H172.454L252.48 24.6855H213.487Z" fill="#7DFFE1"/>
<path d="M152.044 24.6855L72.0098 104.711H111.011L191.036 24.6855H152.044Z" fill="#7DFFE1"/>
<path d="M90.5908 24.6855L22.4209 92.8554V104.711H49.5664L129.592 24.6855H90.5908Z" fill="#7DFFE1"/>
<path d="M22.4209 70.4043L68.1485 24.6855H29.1474L22.4209 31.412V70.4043Z" fill="#7DFFE1"/>
<path d="M569.299 127.987C569.938 127.349 570.159 126.399 569.875 125.547V51.8398C569.875 50.5176 568.802 49.4438 567.479 49.4438C566.157 49.4438 565.083 50.5176 565.083 51.8398V123.897H493.027C491.705 123.897 490.631 124.97 490.631 126.292C490.631 127.615 491.705 128.688 493.027 128.688H566.734C567.586 128.972 568.535 128.751 569.183 128.103L569.308 127.979L569.299 127.987Z" fill="#7DFFE1"/>
<path d="M5.18797 77.5566V5.49992H77.2447C78.5669 5.49992 79.6406 4.42617 79.6406 3.10395C79.6406 1.78173 78.5669 0.707976 77.2447 0.707976H3.53741C3.29781 0.619236 3.04046 0.58374 2.79199 0.58374C2.17081 0.58374 1.55851 0.823338 1.09706 1.28478L0.972827 1.40902C0.3339 2.04795 0.112051 2.99746 0.396018 3.84936V77.5566C0.396018 78.8788 1.46977 79.9526 2.79199 79.9526C4.11421 79.9526 5.18797 78.8788 5.18797 77.5566Z" fill="#7DFFE1"/>
</g>
<defs>
<clipPath id="clip0_2005_796">
<rect width="569.727" height="128.229" fill="white" transform="translate(0.272461 0.58374)"/>
</clipPath>
</defs>
</svg>
